<?xml version="1.0" encoding="UTF-8" standalone="yes"?>
<svg width="256.0px" height="256.0px" xmlns="http://www.w3.org/2000/svg" xmlns:xlink="http://www.w3.org/1999/xlink" version="1.2" baseProfile="tiny">
<polyline points="28.3465,11.346000000000004 255.0,11.346000000000004" fill="none" stroke="#000000" stroke-width="0.40" />
<polyline points="28.3465,16.346000000000004 255.0,16.346000000000004" fill="none" stroke="#000000" stroke-width="0.40" />
<polyline points="28.3465,21.346000000000004 255.0,21.346000000000004" fill="none" stroke="#000000" stroke-width="0.40" />
<polyline points="28.3465,26.346000000000004 255.0,26.346000000000004" fill="none" stroke="#000000" stroke-width="0.40" />
<polyline points="28.3465,31.346000000000004 255.0,31.346000000000004" fill="none" stroke="#000000" stroke-width="0.40" />
<polyline points="28.3465,63.846000000000004 255.0,63.846000000000004" fill="none" stroke="#000000" stroke-width="0.40" />
<polyline points="28.3465,68.846 255.0,68.846" fill="none" stroke="#000000" stroke-width="0.40" />
<polyline points="28.3465,73.846 255.0,73.846" fill="none" stroke="#000000" stroke-width="0.40" />
<polyline points="28.3465,78.846 255.0,78.846" fill="none" stroke="#000000" stroke-width="0.40" />
<polyline points="28.3465,83.846 255.0,83.846" fill="none" stroke="#000000" stroke-width="0.40" />
<polyline points="28.3465,116.346 255.0,116.346" fill="none" stroke="#000000" stroke-width="0.40" />
<polyline points="28.3465,121.346 255.0,121.346" fill="none" stroke="#000000" stroke-width="0.40" />
<polyline points="28.3465,126.346 255.0,126.346" fill="none" stroke="#000000" stroke-width="0.40" />
<polyline points="28.3465,131.346 255.0,131.346" fill="none" stroke="#000000" stroke-width="0.40" />
<polyline points="28.3465,136.346 255.0,136.346" fill="none" stroke="#000000" stroke-width="0.40" />
<polyline points="28.7465,0.0 28.7465,136.346" fill="" stroke="#000000" stroke-width="0.80" />
<polyline points="210.955,112.971 204.504,116.971" fill="" stroke="#000000" stroke-width="0.65" />
<polyline points="183.896,112.971 177.445,116.971" fill="" stroke="#000000" stroke-width="0.65" />
<polyline points="239.233,124.78599999999994 239.233,150.096" fill="" stroke="#000000" stroke-width="0.65" />
<polyline points="239.233,67.28599999999994 239.233,80.096" fill="" stroke="#000000" stroke-width="0.65" />
<polyline points="245.165,42.90700000000004 245.165,-8.653999999999996" fill="" stroke="#000000" stroke-width="0.65" />
<polyline points="206.905,123.18899999999996 206.905,108.971" fill="" stroke="#000000" stroke-width="0.65" />
<polyline points="212.174,124.78599999999994 212.174,148.01300000000003" fill="" stroke="#000000" stroke-width="0.65" />
<polyline points="212.174,62.285999999999945 212.174,78.846" fill="" stroke="#000000" stroke-width="0.65" />
<polyline points="218.106,37.90700000000004 218.106,-8.653999999999996" fill="" stroke="#000000" stroke-width="0.65" />
<polyline points="179.846,123.18899999999996 179.846,108.971" fill="" stroke="#000000" stroke-width="0.65" />
<polyline points="185.115,124.78599999999994 185.115,145.92999999999995" fill="" stroke="#000000" stroke-width="0.65" />
<polyline points="185.115,62.285999999999945 185.115,77.596" fill="" stroke="#000000" stroke-width="0.65" />
<polyline points="191.047,37.90700000000004 191.047,-8.653999999999996" fill="" stroke="#000000" stroke-width="0.65" />
<polyline points="158.056,119.78599999999994 158.056,143.846" fill="" stroke="#000000" stroke-width="0.65" />
<polyline points="163.988,12.907000000000039 163.988,-8.653999999999996" fill="" stroke="#000000" stroke-width="0.65" />
<polyline points="120.694,132.90700000000004 120.694,116.346" fill="" stroke="#000000" stroke-width="0.65" />
<polyline points="114.761,59.785999999999945 114.761,76.346" fill="" stroke="#000000" stroke-width="0.65" />
<polyline points="114.761,2.2859999999999445 114.761,48.221000000000004" fill="" stroke="#000000" stroke-width="0.65" />
<polyline points="93.6351,132.90700000000004 93.6351,117.596" fill="" stroke="#000000" stroke-width="0.65" />
<polyline points="87.7023,59.785999999999945 87.7023,73.846" fill="" stroke="#000000" stroke-width="0.65" />
<polyline points="87.7023,2.2859999999999445 87.7023,51.346000000000004" fill="" stroke="#000000" stroke-width="0.65" />
<polyline points="66.5761,132.90700000000004 66.5761,117.596" fill="" stroke="#000000" stroke-width="0.65" />
<polyline points="60.6433,59.785999999999945 60.6433,73.846" fill="" stroke="#000000" stroke-width="0.65" />
<polyline points="60.6433,2.2859999999999445 60.6433,51.346000000000004" fill="" stroke="#000000" stroke-width="0.65" />
<polyline points="237.408,36.346000000000004 246.99,36.346000000000004" fill="" stroke="#000000" stroke-width="0.80" />
<polyline points="237.408,41.346000000000004 246.99,41.346000000000004" fill="" stroke="#000000" stroke-width="0.80" />
<polyline points="210.349,36.346000000000004 219.931,36.346000000000004" fill="" stroke="#000000" stroke-width="0.80" />
<polyline points="210.349,6.346000000000004 219.931,6.346000000000004" fill="" stroke="#000000" stroke-width="0.80" />
<polyline points="183.29,36.346000000000004 192.872,36.346000000000004" fill="" stroke="#000000" stroke-width="0.80" />
<polyline points="183.29,6.346000000000004 192.872,6.346000000000004" fill="" stroke="#000000" stroke-width="0.80" />
<polyline points="112.936,58.846000000000004 122.519,58.846000000000004" fill="" stroke="#000000" stroke-width="0.80" />
<polyline points="112.936,36.346000000000004 122.519,36.346000000000004" fill="" stroke="#000000" stroke-width="0.80" />
<polyline points="112.936,1.3460000000000036 122.519,1.3460000000000036" fill="" stroke="#000000" stroke-width="0.80" />
<polyline points="112.936,6.346000000000004 122.519,6.346000000000004" fill="" stroke="#000000" stroke-width="0.80" />
<polyline points="85.8773,58.846000000000004 95.4601,58.846000000000004" fill="" stroke="#000000" stroke-width="0.80" />
<polyline points="85.8773,36.346000000000004 95.4601,36.346000000000004" fill="" stroke="#000000" stroke-width="0.80" />
<polyline points="85.8773,1.3460000000000036 95.4601,1.3460000000000036" fill="" stroke="#000000" stroke-width="0.80" />
<polyline points="85.8773,6.346000000000004 95.4601,6.346000000000004" fill="" stroke="#000000" stroke-width="0.80" />
<polyline points="58.8183,58.846000000000004 68.4011,58.846000000000004" fill="" stroke="#000000" stroke-width="0.80" />
<polyline points="58.8183,36.346000000000004 68.4011,36.346000000000004" fill="" stroke="#000000" stroke-width="0.80" />
<polyline points="58.8183,1.3460000000000036 68.4011,1.3460000000000036" fill="" stroke="#000000" stroke-width="0.80" />
<polyline points="58.8183,6.346000000000004 68.4011,6.346000000000004" fill="" stroke="#000000" stroke-width="0.80" />
</svg>
