<?xml version="1.0" encoding="UTF-8" standalone="yes"?>
<svg width="256.0px" height="256.0px" xmlns="http://www.w3.org/2000/svg" xmlns:xlink="http://www.w3.org/1999/xlink" version="1.2" baseProfile="tiny">
<polyline points="0.0,13.846000000000004 255.0,13.846000000000004" fill="none" stroke="#000000" stroke-width="0.40" />
<polyline points="0.0,18.846000000000004 255.0,18.846000000000004" fill="none" stroke="#000000" stroke-width="0.40" />
<polyline points="0.0,23.846000000000004 255.0,23.846000000000004" fill="none" stroke="#000000" stroke-width="0.40" />
<polyline points="0.0,28.846000000000004 255.0,28.846000000000004" fill="none" stroke="#000000" stroke-width="0.40" />
<polyline points="0.0,33.846000000000004 255.0,33.846000000000004" fill="none" stroke="#000000" stroke-width="0.40" />
<polyline points="0.0,66.346 255.0,66.346" fill="none" stroke="#000000" stroke-width="0.40" />
<polyline points="0.0,71.346 255.0,71.346" fill="none" stroke="#000000" stroke-width="0.40" />
<polyline points="0.0,76.346 255.0,76.346" fill="none" stroke="#000000" stroke-width="0.40" />
<polyline points="0.0,81.346 255.0,81.346" fill="none" stroke="#000000" stroke-width="0.40" />
<polyline points="0.0,86.346 255.0,86.346" fill="none" stroke="#000000" stroke-width="0.40" />
<polyline points="166.82999999999993,66.346 166.82999999999993,86.346" fill="" stroke="#000000" stroke-width="0.80" />
<polyline points="166.82999999999993,13.846000000000004 166.82999999999993,33.846000000000004" fill="" stroke="#000000" stroke-width="0.80" />
<polyline points="252.55000000000018,72.28599999999994 252.55000000000018,86.346" fill="" stroke="#000000" stroke-width="0.65" />
<polyline points="252.55000000000018,9.785999999999945 252.55000000000018,33.846000000000004" fill="" stroke="#000000" stroke-width="0.65" />
<polyline points="235.2199999999998,9.785999999999945 235.2199999999998,23.846000000000004" fill="" stroke="#000000" stroke-width="0.65" />
<polyline points="217.88999999999987,65.90999999999997 217.88999999999987,90.096" fill="" stroke="#000000" stroke-width="0.65" />
<polyline points="217.88999999999987,9.785999999999945 217.88999999999987,23.846000000000004" fill="" stroke="#000000" stroke-width="0.65" />
<polyline points="200.57000000000016,65.90999999999997 200.57000000000016,90.65999999999997" fill="" stroke="#000000" stroke-width="0.65" />
<polyline points="200.57000000000016,9.785999999999945 200.57000000000016,23.846000000000004" fill="" stroke="#000000" stroke-width="0.65" />
<polyline points="179.48999999999978,65.90999999999997 179.48999999999978,91.346" fill="" stroke="#000000" stroke-width="0.65" />
<polyline points="179.48999999999978,9.785999999999945 179.48999999999978,23.846000000000004" fill="" stroke="#000000" stroke-width="0.65" />
<polyline points="151.94000000000005,12.285999999999945 151.94000000000005,37.596000000000004" fill="" stroke="#000000" stroke-width="0.65" />
<polyline points="137.1199999999999,65.90999999999997 137.1199999999999,95.096" fill="" stroke="#000000" stroke-width="0.65" />
<polyline points="137.1199999999999,9.785999999999945 137.1199999999999,40.0" fill="" stroke="#000000" stroke-width="0.65" />
<polyline points="113.40000000000009,65.90999999999997 113.40000000000009,97.17999999999995" fill="" stroke="#000000" stroke-width="0.65" />
<polyline points="113.40000000000009,29.785999999999945 113.40000000000009,43.846000000000004" fill="" stroke="#000000" stroke-width="0.65" />
<polyline points="89.69000000000005,65.90999999999997 89.69000000000005,99.26300000000003" fill="" stroke="#000000" stroke-width="0.65" />
<polyline points="95.61999999999989,27.90700000000004 95.61999999999989,13.846000000000004" fill="" stroke="#000000" stroke-width="0.65" />
<polyline points="65.98000000000002,65.90999999999997 65.98000000000002,101.346" fill="" stroke="#000000" stroke-width="0.65" />
<polyline points="71.90999999999985,27.90700000000004 71.90999999999985,13.846000000000004" fill="" stroke="#000000" stroke-width="0.65" />
<polyline points="57.090000000000146,32.90700000000004 57.090000000000146,13.846000000000004" fill="" stroke="#000000" stroke-width="0.65" />
<polyline points="36.340000000000146,65.90999999999997 36.340000000000146,92.596" fill="" stroke="#000000" stroke-width="0.65" />
<polyline points="12.63000000000011,65.90999999999997 12.63000000000011,95.096" fill="" stroke="#000000" stroke-width="0.65" />
<polyline points="18.559999999999945,25.40700000000004 18.559999999999945,10.096000000000004" fill="" stroke="#000000" stroke-width="0.65" />
<polyline points="250.7199999999998,8.846000000000004 255.0,8.846000000000004" fill="" stroke="#000000" stroke-width="0.80" />
<polyline points="233.4000000000001,8.846000000000004 242.98000000000002,8.846000000000004" fill="" stroke="#000000" stroke-width="0.80" />
<polyline points="216.07000000000016,8.846000000000004 225.6500000000001,8.846000000000004" fill="" stroke="#000000" stroke-width="0.80" />
<polyline points="198.73999999999978,8.846000000000004 208.32000000000016,8.846000000000004" fill="" stroke="#000000" stroke-width="0.80" />
<polyline points="177.67000000000007,8.846000000000004 187.25,8.846000000000004" fill="" stroke="#000000" stroke-width="0.80" />
<polyline points="135.28999999999996,8.846000000000004 144.8699999999999,8.846000000000004" fill="" stroke="#000000" stroke-width="0.80" />
</svg>
