<?xml version="1.0" encoding="UTF-8" standalone="yes"?>
<svg width="256.0px" height="256.0px" xmlns="http://www.w3.org/2000/svg" xmlns:xlink="http://www.w3.org/1999/xlink" version="1.2" baseProfile="tiny">
<polyline points="16.0,63.3465 255.0,63.3465" fill="none" stroke="#000000" stroke-width="0.40" />
<polyline points="16.0,68.3465 255.0,68.3465" fill="none" stroke="#000000" stroke-width="0.40" />
<polyline points="16.0,73.3465 255.0,73.3465" fill="none" stroke="#000000" stroke-width="0.40" />
<polyline points="16.0,78.3465 255.0,78.3465" fill="none" stroke="#000000" stroke-width="0.40" />
<polyline points="16.0,83.3465 255.0,83.3465" fill="none" stroke="#000000" stroke-width="0.40" />
<polyline points="16.0,115.846 255.0,115.846" fill="none" stroke="#000000" stroke-width="0.40" />
<polyline points="16.0,120.846 255.0,120.846" fill="none" stroke="#000000" stroke-width="0.40" />
<polyline points="16.0,125.846 255.0,125.846" fill="none" stroke="#000000" stroke-width="0.40" />
<polyline points="16.0,130.846 255.0,130.846" fill="none" stroke="#000000" stroke-width="0.40" />
<polyline points="16.0,135.846 255.0,135.846" fill="none" stroke="#000000" stroke-width="0.40" />
<polyline points="16.0,168.346 255.0,168.346" fill="none" stroke="#000000" stroke-width="0.40" />
<polyline points="16.0,173.346 255.0,173.346" fill="none" stroke="#000000" stroke-width="0.40" />
<polyline points="16.0,178.346 255.0,178.346" fill="none" stroke="#000000" stroke-width="0.40" />
<polyline points="16.0,183.346 255.0,183.346" fill="none" stroke="#000000" stroke-width="0.40" />
<polyline points="16.0,188.346 255.0,188.346" fill="none" stroke="#000000" stroke-width="0.40" />
<polyline points="16.0,220.846 255.0,220.846" fill="none" stroke="#000000" stroke-width="0.40" />
<polyline points="16.0,225.846 255.0,225.846" fill="none" stroke="#000000" stroke-width="0.40" />
<polyline points="16.0,230.846 255.0,230.846" fill="none" stroke="#000000" stroke-width="0.40" />
<polyline points="16.0,235.846 255.0,235.846" fill="none" stroke="#000000" stroke-width="0.40" />
<polyline points="16.0,240.846 255.0,240.846" fill="none" stroke="#000000" stroke-width="0.40" />
<polyline points="16.40000000000009,63.3465 16.40000000000009,255.0" fill="" stroke="#000000" stroke-width="0.80" />
<polyline points="248.76999999999998,242.91 248.76999999999998,254.596" fill="" stroke="#000000" stroke-width="0.65" />
<polyline points="254.69999999999982,193.862 254.69999999999982,158.346" fill="" stroke="#000000" stroke-width="0.65" />
<polyline points="248.76999999999998,84.2855 248.76999999999998,125.846" fill="" stroke="#000000" stroke-width="0.65" />
<polyline points="248.76999999999998,61.7855 248.76999999999998,78.3465" fill="" stroke="#000000" stroke-width="0.65" />
<polyline points="223.96000000000004,226.786 223.96000000000004,252.289" fill="" stroke="#000000" stroke-width="0.65" />
<polyline points="229.88999999999987,194.907 229.88999999999987,158.346" fill="" stroke="#000000" stroke-width="0.65" />
<polyline points="223.96000000000004,84.2855 223.96000000000004,124.596" fill="" stroke="#000000" stroke-width="0.65" />
<polyline points="223.96000000000004,61.7855 223.96000000000004,77.0965" fill="" stroke="#000000" stroke-width="0.65" />
<polyline points="208.44999999999982,84.2855 208.44999999999982,124.596" fill="" stroke="#000000" stroke-width="0.65" />
<polyline points="208.44999999999982,61.7855 208.44999999999982,78.3465" fill="" stroke="#000000" stroke-width="0.65" />
<polyline points="192.94000000000005,226.786 192.94000000000005,249.404" fill="" stroke="#000000" stroke-width="0.65" />
<polyline points="198.8699999999999,194.907 198.8699999999999,159.596" fill="" stroke="#000000" stroke-width="0.65" />
<polyline points="192.94000000000005,79.2855 192.94000000000005,124.596" fill="" stroke="#000000" stroke-width="0.65" />
<polyline points="192.94000000000005,56.7855 192.94000000000005,78.3465" fill="" stroke="#000000" stroke-width="0.65" />
<polyline points="168.1300000000001,219.286 168.1300000000001,247.096" fill="" stroke="#000000" stroke-width="0.65" />
<polyline points="174.05999999999995,194.907 174.05999999999995,159.596" fill="" stroke="#000000" stroke-width="0.65" />
<polyline points="168.1300000000001,79.2855 168.1300000000001,124.596" fill="" stroke="#000000" stroke-width="0.65" />
<polyline points="168.1300000000001,56.7855 168.1300000000001,78.3465" fill="" stroke="#000000" stroke-width="0.65" />
<polyline points="152.65999999999985,192.407 152.65999999999985,154.596" fill="" stroke="#000000" stroke-width="0.65" />
<polyline points="128.96000000000004,224.286 128.96000000000004,249.596" fill="" stroke="#000000" stroke-width="0.65" />
<polyline points="134.88999999999987,192.407 134.88999999999987,154.596" fill="" stroke="#000000" stroke-width="0.65" />
<polyline points="104.15000000000009,234.286 104.15000000000009,249.596" fill="" stroke="#000000" stroke-width="0.65" />
<polyline points="110.07999999999993,192.407 110.07999999999993,154.596" fill="" stroke="#000000" stroke-width="0.65" />
<polyline points="104.15000000000009,76.7855 104.15000000000009,125.846" fill="" stroke="#000000" stroke-width="0.65" />
<polyline points="104.15000000000009,54.2855 104.15000000000009,73.3465" fill="" stroke="#000000" stroke-width="0.65" />
<polyline points="79.32999999999993,224.286 79.32999999999993,249.596" fill="" stroke="#000000" stroke-width="0.65" />
<polyline points="85.26999999999998,192.407 85.26999999999998,155.846" fill="" stroke="#000000" stroke-width="0.65" />
<polyline points="54.51999999999998,216.786 54.51999999999998,249.596" fill="" stroke="#000000" stroke-width="0.65" />
<polyline points="60.44999999999982,192.407 60.44999999999982,155.846" fill="" stroke="#000000" stroke-width="0.65" />
<polyline points="54.51999999999998,76.7855 54.51999999999998,125.846" fill="" stroke="#000000" stroke-width="0.65" />
<polyline points="54.51999999999998,54.2855 54.51999999999998,73.3465" fill="" stroke="#000000" stroke-width="0.65" />
<polyline points="246.94999999999982,193.346 255.0,193.346" fill="" stroke="#000000" stroke-width="0.80" />
<polyline points="241.01000000000022,85.8465 255.0,85.8465" fill="" stroke="#000000" stroke-width="0.80" />
<polyline points="241.01000000000022,90.8465 255.0,90.8465" fill="" stroke="#000000" stroke-width="0.80" />
<polyline points="241.01000000000022,95.8465 255.0,95.8465" fill="" stroke="#000000" stroke-width="0.80" />
<polyline points="241.01000000000022,100.846 255.0,100.846" fill="" stroke="#000000" stroke-width="0.80" />
<polyline points="241.01000000000022,105.846 255.0,105.846" fill="" stroke="#000000" stroke-width="0.80" />
<polyline points="241.01000000000022,110.846 255.0,110.846" fill="" stroke="#000000" stroke-width="0.80" />
<polyline points="222.1300000000001,193.346 231.7199999999998,193.346" fill="" stroke="#000000" stroke-width="0.80" />
<polyline points="222.1300000000001,85.8465 231.7199999999998,85.8465" fill="" stroke="#000000" stroke-width="0.80" />
<polyline points="222.1300000000001,90.8465 231.7199999999998,90.8465" fill="" stroke="#000000" stroke-width="0.80" />
<polyline points="222.1300000000001,95.8465 231.7199999999998,95.8465" fill="" stroke="#000000" stroke-width="0.80" />
<polyline points="222.1300000000001,100.846 231.7199999999998,100.846" fill="" stroke="#000000" stroke-width="0.80" />
<polyline points="222.1300000000001,105.846 231.7199999999998,105.846" fill="" stroke="#000000" stroke-width="0.80" />
<polyline points="222.1300000000001,110.846 231.7199999999998,110.846" fill="" stroke="#000000" stroke-width="0.80" />
<polyline points="206.6199999999999,85.8465 216.21000000000004,85.8465" fill="" stroke="#000000" stroke-width="0.80" />
<polyline points="206.6199999999999,90.8465 216.21000000000004,90.8465" fill="" stroke="#000000" stroke-width="0.80" />
<polyline points="206.6199999999999,95.8465 216.21000000000004,95.8465" fill="" stroke="#000000" stroke-width="0.80" />
<polyline points="206.6199999999999,100.846 216.21000000000004,100.846" fill="" stroke="#000000" stroke-width="0.80" />
<polyline points="206.6199999999999,105.846 216.21000000000004,105.846" fill="" stroke="#000000" stroke-width="0.80" />
<polyline points="206.6199999999999,110.846 216.21000000000004,110.846" fill="" stroke="#000000" stroke-width="0.80" />
<polyline points="191.1199999999999,193.346 200.69999999999982,193.346" fill="" stroke="#000000" stroke-width="0.80" />
<polyline points="191.1199999999999,80.8465 200.69999999999982,80.8465" fill="" stroke="#000000" stroke-width="0.80" />
<polyline points="191.1199999999999,85.8465 200.69999999999982,85.8465" fill="" stroke="#000000" stroke-width="0.80" />
<polyline points="191.1199999999999,90.8465 200.69999999999982,90.8465" fill="" stroke="#000000" stroke-width="0.80" />
<polyline points="191.1199999999999,95.8465 200.69999999999982,95.8465" fill="" stroke="#000000" stroke-width="0.80" />
<polyline points="191.1199999999999,100.846 200.69999999999982,100.846" fill="" stroke="#000000" stroke-width="0.80" />
<polyline points="191.1199999999999,105.846 200.69999999999982,105.846" fill="" stroke="#000000" stroke-width="0.80" />
<polyline points="191.1199999999999,110.846 200.69999999999982,110.846" fill="" stroke="#000000" stroke-width="0.80" />
<polyline points="191.1199999999999,58.3465 200.69999999999982,58.3465" fill="" stroke="#000000" stroke-width="0.80" />
<polyline points="166.30000000000018,193.346 175.8800000000001,193.346" fill="" stroke="#000000" stroke-width="0.80" />
<polyline points="166.30000000000018,80.8465 175.8800000000001,80.8465" fill="" stroke="#000000" stroke-width="0.80" />
<polyline points="166.30000000000018,85.8465 175.8800000000001,85.8465" fill="" stroke="#000000" stroke-width="0.80" />
<polyline points="166.30000000000018,90.8465 175.8800000000001,90.8465" fill="" stroke="#000000" stroke-width="0.80" />
<polyline points="166.30000000000018,95.8465 175.8800000000001,95.8465" fill="" stroke="#000000" stroke-width="0.80" />
<polyline points="166.30000000000018,100.846 175.8800000000001,100.846" fill="" stroke="#000000" stroke-width="0.80" />
<polyline points="166.30000000000018,105.846 175.8800000000001,105.846" fill="" stroke="#000000" stroke-width="0.80" />
<polyline points="166.30000000000018,110.846 175.8800000000001,110.846" fill="" stroke="#000000" stroke-width="0.80" />
<polyline points="166.30000000000018,58.3465 175.8800000000001,58.3465" fill="" stroke="#000000" stroke-width="0.80" />
<polyline points="144.9000000000001,193.346 154.48000000000002,193.346" fill="" stroke="#000000" stroke-width="0.80" />
<polyline points="127.13999999999987,193.346 136.7199999999998,193.346" fill="" stroke="#000000" stroke-width="0.80" />
<polyline points="102.32000000000016,193.346 111.90000000000009,193.346" fill="" stroke="#000000" stroke-width="0.80" />
<polyline points="102.32000000000016,75.8465 111.90000000000009,75.8465" fill="" stroke="#000000" stroke-width="0.80" />
<polyline points="96.38999999999987,80.8465 111.90000000000009,80.8465" fill="" stroke="#000000" stroke-width="0.80" />
<polyline points="96.38999999999987,85.8465 111.90000000000009,85.8465" fill="" stroke="#000000" stroke-width="0.80" />
<polyline points="96.38999999999987,90.8465 111.90000000000009,90.8465" fill="" stroke="#000000" stroke-width="0.80" />
<polyline points="96.38999999999987,95.8465 111.90000000000009,95.8465" fill="" stroke="#000000" stroke-width="0.80" />
<polyline points="96.38999999999987,100.846 111.90000000000009,100.846" fill="" stroke="#000000" stroke-width="0.80" />
<polyline points="96.38999999999987,105.846 111.90000000000009,105.846" fill="" stroke="#000000" stroke-width="0.80" />
<polyline points="96.38999999999987,110.846 111.90000000000009,110.846" fill="" stroke="#000000" stroke-width="0.80" />
<polyline points="102.32000000000016,53.3465 111.90000000000009,53.3465" fill="" stroke="#000000" stroke-width="0.80" />
<polyline points="96.38999999999987,58.3465 111.90000000000009,58.3465" fill="" stroke="#000000" stroke-width="0.80" />
<polyline points="77.51000000000022,193.346 87.09000000000015,193.346" fill="" stroke="#000000" stroke-width="0.80" />
<polyline points="52.690000000000055,215.846 62.2800000000002,215.846" fill="" stroke="#000000" stroke-width="0.80" />
<polyline points="52.690000000000055,193.346 62.2800000000002,193.346" fill="" stroke="#000000" stroke-width="0.80" />
<polyline points="52.690000000000055,75.8465 62.2800000000002,75.8465" fill="" stroke="#000000" stroke-width="0.80" />
<polyline points="46.76000000000022,80.8465 62.2800000000002,80.8465" fill="" stroke="#000000" stroke-width="0.80" />
<polyline points="46.76000000000022,85.8465 62.2800000000002,85.8465" fill="" stroke="#000000" stroke-width="0.80" />
<polyline points="46.76000000000022,90.8465 62.2800000000002,90.8465" fill="" stroke="#000000" stroke-width="0.80" />
<polyline points="46.76000000000022,95.8465 62.2800000000002,95.8465" fill="" stroke="#000000" stroke-width="0.80" />
<polyline points="46.76000000000022,100.846 62.2800000000002,100.846" fill="" stroke="#000000" stroke-width="0.80" />
<polyline points="46.76000000000022,105.846 62.2800000000002,105.846" fill="" stroke="#000000" stroke-width="0.80" />
<polyline points="46.76000000000022,110.846 62.2800000000002,110.846" fill="" stroke="#000000" stroke-width="0.80" />
<polyline points="52.690000000000055,53.3465 62.2800000000002,53.3465" fill="" stroke="#000000" stroke-width="0.80" />
<polyline points="46.76000000000022,58.3465 62.2800000000002,58.3465" fill="" stroke="#000000" stroke-width="0.80" />
<polyline points="176.8800000000001,105.846 181.8800000000001,105.846" fill="" stroke="#000000" stroke-width="0.75" />
<polyline points="176.8800000000001,105.846 181.8800000000001,105.846" fill="" stroke="#000000" stroke-width="0.75" />
<polyline points="176.8800000000001,53.3465 181.8800000000001,53.3465" fill="" stroke="#000000" stroke-width="0.75" />
<polyline points="176.8800000000001,53.3465 181.8800000000001,53.3465" fill="" stroke="#000000" stroke-width="0.75" />
</svg>
