<?xml version="1.0" encoding="UTF-8" standalone="yes"?>
<svg width="256.0px" height="256.0px" xmlns="http://www.w3.org/2000/svg" xmlns:xlink="http://www.w3.org/1999/xlink" version="1.2" baseProfile="tiny">
<polyline points="0.0,13.846000000000004 215.30999999999995,13.846000000000004" fill="none" stroke="#000000" stroke-width="0.40" />
<polyline points="0.0,18.846000000000004 215.30999999999995,18.846000000000004" fill="none" stroke="#000000" stroke-width="0.40" />
<polyline points="0.0,23.846000000000004 215.30999999999995,23.846000000000004" fill="none" stroke="#000000" stroke-width="0.40" />
<polyline points="0.0,28.846000000000004 215.30999999999995,28.846000000000004" fill="none" stroke="#000000" stroke-width="0.40" />
<polyline points="0.0,33.846000000000004 215.30999999999995,33.846000000000004" fill="none" stroke="#000000" stroke-width="0.40" />
<polyline points="0.0,66.346 215.30999999999995,66.346" fill="none" stroke="#000000" stroke-width="0.40" />
<polyline points="0.0,71.346 215.30999999999995,71.346" fill="none" stroke="#000000" stroke-width="0.40" />
<polyline points="0.0,76.346 215.30999999999995,76.346" fill="none" stroke="#000000" stroke-width="0.40" />
<polyline points="0.0,81.346 215.30999999999995,81.346" fill="none" stroke="#000000" stroke-width="0.40" />
<polyline points="0.0,86.346 215.30999999999995,86.346" fill="none" stroke="#000000" stroke-width="0.40" />
<polyline points="214.90999999999985,66.346 214.90999999999985,86.346" fill="" stroke="#000000" stroke-width="0.80" />
<polyline points="214.90999999999985,13.846000000000004 214.90999999999985,33.846000000000004" fill="" stroke="#000000" stroke-width="0.80" />
<polyline points="197.5,0.0 197.5,22.596000000000004" fill="" stroke="#000000" stroke-width="0.65" />
<polyline points="180.17999999999984,74.78599999999994 180.17999999999984,90.096" fill="" stroke="#000000" stroke-width="0.65" />
<polyline points="180.17999999999984,0.0 180.17999999999984,23.013000000000034" fill="" stroke="#000000" stroke-width="0.65" />
<polyline points="162.8499999999999,74.78599999999994 162.8499999999999,90.096" fill="" stroke="#000000" stroke-width="0.65" />
<polyline points="145.51999999999998,2.2859999999999445 145.51999999999998,23.846000000000004" fill="" stroke="#000000" stroke-width="0.65" />
<polyline points="128.19000000000005,69.78599999999994 128.19000000000005,85.096" fill="" stroke="#000000" stroke-width="0.65" />
<polyline points="110.86999999999989,69.78599999999994 110.86999999999989,85.096" fill="" stroke="#000000" stroke-width="0.65" />
<polyline points="110.86999999999989,4.7859999999999445 110.86999999999989,22.596000000000004" fill="" stroke="#000000" stroke-width="0.65" />
<polyline points="93.53999999999996,4.7859999999999445 93.53999999999996,22.596000000000004" fill="" stroke="#000000" stroke-width="0.65" />
<polyline points="76.21000000000004,69.78599999999994 76.21000000000004,85.096" fill="" stroke="#000000" stroke-width="0.65" />
<polyline points="76.21000000000004,4.7859999999999445 76.21000000000004,22.596000000000004" fill="" stroke="#000000" stroke-width="0.65" />
<polyline points="48.5300000000002,69.78599999999994 48.5300000000002,86.346" fill="" stroke="#000000" stroke-width="0.65" />
<polyline points="48.5300000000002,4.7859999999999445 48.5300000000002,33.846000000000004" fill="" stroke="#000000" stroke-width="0.65" />
<polyline points="31.199999999999818,72.28599999999994 31.199999999999818,86.346" fill="" stroke="#000000" stroke-width="0.65" />
<polyline points="31.199999999999818,19.785999999999945 31.199999999999818,33.846000000000004" fill="" stroke="#000000" stroke-width="0.65" />
<polyline points="13.88000000000011,69.78599999999994 13.88000000000011,86.346" fill="" stroke="#000000" stroke-width="0.65" />
<polyline points="13.88000000000011,9.785999999999945 13.88000000000011,33.846000000000004" fill="" stroke="#000000" stroke-width="0.65" />
<polyline points="195.67999999999984,3.8460000000000036 205.26000000000022,3.8460000000000036" fill="" stroke="#000000" stroke-width="0.80" />
<polyline points="195.67999999999984,8.846000000000004 205.26000000000022,8.846000000000004" fill="" stroke="#000000" stroke-width="0.80" />
<polyline points="178.3499999999999,3.8460000000000036 187.94000000000005,3.8460000000000036" fill="" stroke="#000000" stroke-width="0.80" />
<polyline points="178.3499999999999,8.846000000000004 187.94000000000005,8.846000000000004" fill="" stroke="#000000" stroke-width="0.80" />
<polyline points="143.69999999999982,3.8460000000000036 153.2800000000002,3.8460000000000036" fill="" stroke="#000000" stroke-width="0.80" />
<polyline points="143.69999999999982,8.846000000000004 153.2800000000002,8.846000000000004" fill="" stroke="#000000" stroke-width="0.80" />
<polyline points="109.03999999999996,3.8460000000000036 118.63000000000011,3.8460000000000036" fill="" stroke="#000000" stroke-width="0.80" />
<polyline points="109.03999999999996,8.846000000000004 118.63000000000011,8.846000000000004" fill="" stroke="#000000" stroke-width="0.80" />
<polyline points="91.7199999999998,3.8460000000000036 101.30000000000018,3.8460000000000036" fill="" stroke="#000000" stroke-width="0.80" />
<polyline points="91.7199999999998,8.846000000000004 101.30000000000018,8.846000000000004" fill="" stroke="#000000" stroke-width="0.80" />
<polyline points="74.38999999999987,3.8460000000000036 83.9699999999998,3.8460000000000036" fill="" stroke="#000000" stroke-width="0.80" />
<polyline points="74.38999999999987,8.846000000000004 83.9699999999998,8.846000000000004" fill="" stroke="#000000" stroke-width="0.80" />
<polyline points="46.69999999999982,3.8460000000000036 56.289999999999964,3.8460000000000036" fill="" stroke="#000000" stroke-width="0.80" />
<polyline points="46.69999999999982,8.846000000000004 56.289999999999964,8.846000000000004" fill="" stroke="#000000" stroke-width="0.80" />
<polyline points="12.050000000000182,8.846000000000004 21.63000000000011,8.846000000000004" fill="" stroke="#000000" stroke-width="0.80" />
<polyline points="0.0,8.846000000000004 4.309999999999945,8.846000000000004" fill="" stroke="#000000" stroke-width="0.80" />
</svg>
