<?xml version="1.0" encoding="UTF-8" standalone="yes"?>
<svg width="256.0px" height="256.0px" xmlns="http://www.w3.org/2000/svg" xmlns:xlink="http://www.w3.org/1999/xlink" version="1.2" baseProfile="tiny">
<polyline points="0.0,63.3465 255.0,63.3465" fill="none" stroke="#000000" stroke-width="0.40" />
<polyline points="0.0,68.3465 255.0,68.3465" fill="none" stroke="#000000" stroke-width="0.40" />
<polyline points="0.0,73.3465 255.0,73.3465" fill="none" stroke="#000000" stroke-width="0.40" />
<polyline points="0.0,78.3465 255.0,78.3465" fill="none" stroke="#000000" stroke-width="0.40" />
<polyline points="0.0,83.3465 255.0,83.3465" fill="none" stroke="#000000" stroke-width="0.40" />
<polyline points="0.0,115.846 255.0,115.846" fill="none" stroke="#000000" stroke-width="0.40" />
<polyline points="0.0,120.846 255.0,120.846" fill="none" stroke="#000000" stroke-width="0.40" />
<polyline points="0.0,125.846 255.0,125.846" fill="none" stroke="#000000" stroke-width="0.40" />
<polyline points="0.0,130.846 255.0,130.846" fill="none" stroke="#000000" stroke-width="0.40" />
<polyline points="0.0,135.846 255.0,135.846" fill="none" stroke="#000000" stroke-width="0.40" />
<polyline points="0.0,168.346 255.0,168.346" fill="none" stroke="#000000" stroke-width="0.40" />
<polyline points="0.0,173.346 255.0,173.346" fill="none" stroke="#000000" stroke-width="0.40" />
<polyline points="0.0,178.346 255.0,178.346" fill="none" stroke="#000000" stroke-width="0.40" />
<polyline points="0.0,183.346 255.0,183.346" fill="none" stroke="#000000" stroke-width="0.40" />
<polyline points="0.0,188.346 255.0,188.346" fill="none" stroke="#000000" stroke-width="0.40" />
<polyline points="0.0,220.846 255.0,220.846" fill="none" stroke="#000000" stroke-width="0.40" />
<polyline points="0.0,225.846 255.0,225.846" fill="none" stroke="#000000" stroke-width="0.40" />
<polyline points="0.0,230.846 255.0,230.846" fill="none" stroke="#000000" stroke-width="0.40" />
<polyline points="0.0,235.846 255.0,235.846" fill="none" stroke="#000000" stroke-width="0.40" />
<polyline points="0.0,240.846 255.0,240.846" fill="none" stroke="#000000" stroke-width="0.40" />
<polyline points="175.51999999999998,220.846 175.51999999999998,240.846" fill="" stroke="#000000" stroke-width="0.80" />
<polyline points="175.51999999999998,168.346 175.51999999999998,188.346" fill="" stroke="#000000" stroke-width="0.80" />
<polyline points="175.51999999999998,115.846 175.51999999999998,135.846" fill="" stroke="#000000" stroke-width="0.80" />
<polyline points="175.51999999999998,63.3465 175.51999999999998,83.3465" fill="" stroke="#000000" stroke-width="0.80" />
<polyline points="141.05999999999995,224.971 134.61000000000013,228.971" fill="" stroke="#000000" stroke-width="0.65" />
<polyline points="251.3699999999999,239.907 251.3699999999999,223.346" fill="" stroke="#000000" stroke-width="0.65" />
<polyline points="251.3699999999999,199.907 251.3699999999999,154.596" fill="" stroke="#000000" stroke-width="0.65" />
<polyline points="224.1500000000001,239.907 224.1500000000001,225.846" fill="" stroke="#000000" stroke-width="0.65" />
<polyline points="196.92000000000007,239.907 196.92000000000007,225.846" fill="" stroke="#000000" stroke-width="0.65" />
<polyline points="196.92000000000007,192.407 196.92000000000007,160.846" fill="" stroke="#000000" stroke-width="0.65" />
<polyline points="137.01000000000022,235.189 137.01000000000022,220.971" fill="" stroke="#000000" stroke-width="0.65" />
<polyline points="155.92000000000007,239.907 155.92000000000007,224.596" fill="" stroke="#000000" stroke-width="0.65" />
<polyline points="130.26999999999998,243.862 130.26999999999998,222.922" fill="" stroke="#000000" stroke-width="0.65" />
<polyline points="104.80999999999995,234.907 104.80999999999995,221.259" fill="" stroke="#000000" stroke-width="0.65" />
<polyline points="79.34999999999991,234.907 79.34999999999991,219.596" fill="" stroke="#000000" stroke-width="0.65" />
<polyline points="79.5300000000002,195.078 79.5300000000002,158.971" fill="" stroke="#000000" stroke-width="0.65" />
<polyline points="63.440000000000055,244.907 63.440000000000055,220.846" fill="" stroke="#000000" stroke-width="0.65" />
<polyline points="22.059999999999945,232.407 22.059999999999945,217.096" fill="" stroke="#000000" stroke-width="0.65" />
<polyline points="243.61000000000013,193.346 253.19999999999982,193.346" fill="" stroke="#000000" stroke-width="0.80" />
<polyline points="243.61000000000013,198.346 253.19999999999982,198.346" fill="" stroke="#000000" stroke-width="0.80" />
<polyline points="189.15999999999985,193.346 198.75,193.346" fill="" stroke="#000000" stroke-width="0.80" />
<polyline points="122.51999999999998,245.846 132.0999999999999,245.846" fill="" stroke="#000000" stroke-width="0.80" />
<polyline points="71.40999999999985,193.346 81.36000000000013,193.346" fill="" stroke="#000000" stroke-width="0.80" />
<polyline points="55.679999999999836,245.846 65.26000000000022,245.846" fill="" stroke="#000000" stroke-width="0.80" />
</svg>
