<?xml version="1.0" encoding="UTF-8" standalone="yes"?>
<svg width="256.0px" height="256.0px" xmlns="http://www.w3.org/2000/svg" xmlns:xlink="http://www.w3.org/1999/xlink" version="1.2" baseProfile="tiny">
<polyline points="0.0,63.3465 125.85999999999967,63.3465" fill="none" stroke="#000000" stroke-width="0.40" />
<polyline points="0.0,68.3465 125.85999999999967,68.3465" fill="none" stroke="#000000" stroke-width="0.40" />
<polyline points="0.0,73.3465 125.85999999999967,73.3465" fill="none" stroke="#000000" stroke-width="0.40" />
<polyline points="0.0,78.3465 125.85999999999967,78.3465" fill="none" stroke="#000000" stroke-width="0.40" />
<polyline points="0.0,83.3465 125.85999999999967,83.3465" fill="none" stroke="#000000" stroke-width="0.40" />
<polyline points="0.0,115.846 125.85999999999967,115.846" fill="none" stroke="#000000" stroke-width="0.40" />
<polyline points="0.0,120.846 125.85999999999967,120.846" fill="none" stroke="#000000" stroke-width="0.40" />
<polyline points="0.0,125.846 125.85999999999967,125.846" fill="none" stroke="#000000" stroke-width="0.40" />
<polyline points="0.0,130.846 125.85999999999967,130.846" fill="none" stroke="#000000" stroke-width="0.40" />
<polyline points="0.0,135.846 125.85999999999967,135.846" fill="none" stroke="#000000" stroke-width="0.40" />
<polyline points="0.0,168.346 125.85999999999967,168.346" fill="none" stroke="#000000" stroke-width="0.40" />
<polyline points="0.0,173.346 125.85999999999967,173.346" fill="none" stroke="#000000" stroke-width="0.40" />
<polyline points="0.0,178.346 125.85999999999967,178.346" fill="none" stroke="#000000" stroke-width="0.40" />
<polyline points="0.0,183.346 125.85999999999967,183.346" fill="none" stroke="#000000" stroke-width="0.40" />
<polyline points="0.0,188.346 125.85999999999967,188.346" fill="none" stroke="#000000" stroke-width="0.40" />
<polyline points="0.0,220.846 125.85999999999967,220.846" fill="none" stroke="#000000" stroke-width="0.40" />
<polyline points="0.0,225.846 125.85999999999967,225.846" fill="none" stroke="#000000" stroke-width="0.40" />
<polyline points="0.0,230.846 125.85999999999967,230.846" fill="none" stroke="#000000" stroke-width="0.40" />
<polyline points="0.0,235.846 125.85999999999967,235.846" fill="none" stroke="#000000" stroke-width="0.40" />
<polyline points="0.0,240.846 125.85999999999967,240.846" fill="none" stroke="#000000" stroke-width="0.40" />
<polyline points="125.46000000000004,220.846 125.46000000000004,240.846" fill="" stroke="#000000" stroke-width="0.80" />
<polyline points="125.46000000000004,168.346 125.46000000000004,188.346" fill="" stroke="#000000" stroke-width="0.80" />
<polyline points="125.46000000000004,115.846 125.46000000000004,135.846" fill="" stroke="#000000" stroke-width="0.80" />
<polyline points="125.46000000000004,63.3465 125.46000000000004,83.3465" fill="" stroke="#000000" stroke-width="0.80" />
<polyline points="113.80000000000018,192.407 113.80000000000018,153.346" fill="" stroke="#000000" stroke-width="0.65" />
<polyline points="92.47999999999956,224.286 92.47999999999956,240.846" fill="" stroke="#000000" stroke-width="0.65" />
<polyline points="98.40999999999985,193.862 98.40999999999985,153.763" fill="" stroke="#000000" stroke-width="0.65" />
<polyline points="92.47999999999956,84.2855 92.47999999999956,124.596" fill="" stroke="#000000" stroke-width="0.65" />
<polyline points="92.47999999999956,61.7855 92.47999999999956,77.0965" fill="" stroke="#000000" stroke-width="0.65" />
<polyline points="77.09000000000015,226.786 77.09000000000015,240.846" fill="" stroke="#000000" stroke-width="0.65" />
<polyline points="61.69999999999982,216.786 61.69999999999982,240.846" fill="" stroke="#000000" stroke-width="0.65" />
<polyline points="67.63000000000011,194.907 67.63000000000011,154.596" fill="" stroke="#000000" stroke-width="0.65" />
<polyline points="61.69999999999982,86.7855 61.69999999999982,125.013" fill="" stroke="#000000" stroke-width="0.65" />
<polyline points="61.69999999999982,64.2855 61.69999999999982,77.9298" fill="" stroke="#000000" stroke-width="0.65" />
<polyline points="46.3100000000004,219.286 46.3100000000004,235.846" fill="" stroke="#000000" stroke-width="0.65" />
<polyline points="30.909999999999854,219.286 30.909999999999854,237.096" fill="" stroke="#000000" stroke-width="0.65" />
<polyline points="36.850000000000364,194.907 36.850000000000364,158.346" fill="" stroke="#000000" stroke-width="0.65" />
<polyline points="30.909999999999854,86.7855 30.909999999999854,125.43" fill="" stroke="#000000" stroke-width="0.65" />
<polyline points="30.909999999999854,64.2855 30.909999999999854,78.7631" fill="" stroke="#000000" stroke-width="0.65" />
<polyline points="21.460000000000036,194.907 21.460000000000036,158.346" fill="" stroke="#000000" stroke-width="0.65" />
<polyline points="0.13000000000010914,224.286 0.13000000000010914,239.596" fill="" stroke="#000000" stroke-width="0.65" />
<polyline points="6.069999999999709,194.907 6.069999999999709,158.346" fill="" stroke="#000000" stroke-width="0.65" />
<polyline points="0.13000000000010914,89.2855 0.13000000000010914,125.846" fill="" stroke="#000000" stroke-width="0.65" />
<polyline points="0.13000000000010914,66.7855 0.13000000000010914,79.5965" fill="" stroke="#000000" stroke-width="0.65" />
<polyline points="106.03999999999996,193.346 115.63000000000011,193.346" fill="" stroke="#000000" stroke-width="0.80" />
<polyline points="90.64999999999964,193.346 100.22999999999956,193.346" fill="" stroke="#000000" stroke-width="0.80" />
<polyline points="90.64999999999964,85.8465 100.22999999999956,85.8465" fill="" stroke="#000000" stroke-width="0.80" />
<polyline points="90.64999999999964,90.8465 100.22999999999956,90.8465" fill="" stroke="#000000" stroke-width="0.80" />
<polyline points="90.64999999999964,95.8465 100.22999999999956,95.8465" fill="" stroke="#000000" stroke-width="0.80" />
<polyline points="90.64999999999964,100.846 100.22999999999956,100.846" fill="" stroke="#000000" stroke-width="0.80" />
<polyline points="90.64999999999964,105.846 100.22999999999956,105.846" fill="" stroke="#000000" stroke-width="0.80" />
<polyline points="90.64999999999964,110.846 100.22999999999956,110.846" fill="" stroke="#000000" stroke-width="0.80" />
<polyline points="59.86999999999989,215.846 69.44999999999982,215.846" fill="" stroke="#000000" stroke-width="0.80" />
<polyline points="59.86999999999989,193.346 69.44999999999982,193.346" fill="" stroke="#000000" stroke-width="0.80" />
<polyline points="59.86999999999989,85.8465 69.44999999999982,85.8465" fill="" stroke="#000000" stroke-width="0.80" />
<polyline points="59.86999999999989,90.8465 69.44999999999982,90.8465" fill="" stroke="#000000" stroke-width="0.80" />
<polyline points="59.86999999999989,95.8465 69.44999999999982,95.8465" fill="" stroke="#000000" stroke-width="0.80" />
<polyline points="59.86999999999989,100.846 69.44999999999982,100.846" fill="" stroke="#000000" stroke-width="0.80" />
<polyline points="59.86999999999989,105.846 69.44999999999982,105.846" fill="" stroke="#000000" stroke-width="0.80" />
<polyline points="59.86999999999989,110.846 69.44999999999982,110.846" fill="" stroke="#000000" stroke-width="0.80" />
<polyline points="29.090000000000146,193.346 38.67000000000007,193.346" fill="" stroke="#000000" stroke-width="0.80" />
<polyline points="29.090000000000146,85.8465 38.67000000000007,85.8465" fill="" stroke="#000000" stroke-width="0.80" />
<polyline points="29.090000000000146,90.8465 38.67000000000007,90.8465" fill="" stroke="#000000" stroke-width="0.80" />
<polyline points="29.090000000000146,95.8465 38.67000000000007,95.8465" fill="" stroke="#000000" stroke-width="0.80" />
<polyline points="29.090000000000146,100.846 38.67000000000007,100.846" fill="" stroke="#000000" stroke-width="0.80" />
<polyline points="29.090000000000146,105.846 38.67000000000007,105.846" fill="" stroke="#000000" stroke-width="0.80" />
<polyline points="29.090000000000146,110.846 38.67000000000007,110.846" fill="" stroke="#000000" stroke-width="0.80" />
<polyline points="13.699999999999818,193.346 23.279999999999745,193.346" fill="" stroke="#000000" stroke-width="0.80" />
<polyline points="0.0,193.346 7.890000000000327,193.346" fill="" stroke="#000000" stroke-width="0.80" />
<polyline points="0.0,90.8465 7.890000000000327,90.8465" fill="" stroke="#000000" stroke-width="0.80" />
<polyline points="0.0,95.8465 7.890000000000327,95.8465" fill="" stroke="#000000" stroke-width="0.80" />
<polyline points="0.0,100.846 7.890000000000327,100.846" fill="" stroke="#000000" stroke-width="0.80" />
<polyline points="0.0,105.846 7.890000000000327,105.846" fill="" stroke="#000000" stroke-width="0.80" />
<polyline points="0.0,110.846 7.890000000000327,110.846" fill="" stroke="#000000" stroke-width="0.80" />
<polyline points="182.55000000000018,63.3465 255.0,63.3465" fill="none" stroke="#000000" stroke-width="0.40" />
<polyline points="182.55000000000018,68.3465 255.0,68.3465" fill="none" stroke="#000000" stroke-width="0.40" />
<polyline points="182.55000000000018,73.3465 255.0,73.3465" fill="none" stroke="#000000" stroke-width="0.40" />
<polyline points="182.55000000000018,78.3465 255.0,78.3465" fill="none" stroke="#000000" stroke-width="0.40" />
<polyline points="182.55000000000018,83.3465 255.0,83.3465" fill="none" stroke="#000000" stroke-width="0.40" />
<polyline points="182.55000000000018,115.846 255.0,115.846" fill="none" stroke="#000000" stroke-width="0.40" />
<polyline points="182.55000000000018,120.846 255.0,120.846" fill="none" stroke="#000000" stroke-width="0.40" />
<polyline points="182.55000000000018,125.846 255.0,125.846" fill="none" stroke="#000000" stroke-width="0.40" />
<polyline points="182.55000000000018,130.846 255.0,130.846" fill="none" stroke="#000000" stroke-width="0.40" />
<polyline points="182.55000000000018,135.846 255.0,135.846" fill="none" stroke="#000000" stroke-width="0.40" />
<polyline points="182.55000000000018,168.346 255.0,168.346" fill="none" stroke="#000000" stroke-width="0.40" />
<polyline points="182.55000000000018,173.346 255.0,173.346" fill="none" stroke="#000000" stroke-width="0.40" />
<polyline points="182.55000000000018,178.346 255.0,178.346" fill="none" stroke="#000000" stroke-width="0.40" />
<polyline points="182.55000000000018,183.346 255.0,183.346" fill="none" stroke="#000000" stroke-width="0.40" />
<polyline points="182.55000000000018,188.346 255.0,188.346" fill="none" stroke="#000000" stroke-width="0.40" />
<polyline points="182.55000000000018,220.846 255.0,220.846" fill="none" stroke="#000000" stroke-width="0.40" />
<polyline points="182.55000000000018,225.846 255.0,225.846" fill="none" stroke="#000000" stroke-width="0.40" />
<polyline points="182.55000000000018,230.846 255.0,230.846" fill="none" stroke="#000000" stroke-width="0.40" />
<polyline points="182.55000000000018,235.846 255.0,235.846" fill="none" stroke="#000000" stroke-width="0.40" />
<polyline points="182.55000000000018,240.846 255.0,240.846" fill="none" stroke="#000000" stroke-width="0.40" />
<polyline points="182.94999999999982,63.3465 182.94999999999982,255.0" fill="" stroke="#000000" stroke-width="0.80" />
<polyline points="235.22999999999956,232.407 235.22999999999956,219.596" fill="" stroke="#000000" stroke-width="0.65" />
<polyline points="220.96000000000004,232.407 220.96000000000004,219.596" fill="" stroke="#000000" stroke-width="0.65" />
<polyline points="221.14000000000033,192.578 221.14000000000033,157.096" fill="" stroke="#000000" stroke-width="0.65" />
<polyline points="213.02000000000044,193.346 222.97000000000025,193.346" fill="" stroke="#000000" stroke-width="0.80" />
</svg>
