<?xml version="1.0" encoding="UTF-8" standalone="yes"?>
<svg width="256.0px" height="256.0px" xmlns="http://www.w3.org/2000/svg" xmlns:xlink="http://www.w3.org/1999/xlink" version="1.2" baseProfile="tiny">
<polyline points="16.0,17.346000000000004 255.0,17.346000000000004" fill="none" stroke="#000000" stroke-width="0.40" />
<polyline points="16.0,22.346000000000004 255.0,22.346000000000004" fill="none" stroke="#000000" stroke-width="0.40" />
<polyline points="16.0,27.346000000000004 255.0,27.346000000000004" fill="none" stroke="#000000" stroke-width="0.40" />
<polyline points="16.0,32.346000000000004 255.0,32.346000000000004" fill="none" stroke="#000000" stroke-width="0.40" />
<polyline points="16.0,37.346000000000004 255.0,37.346000000000004" fill="none" stroke="#000000" stroke-width="0.40" />
<polyline points="16.0,112.346 255.0,112.346" fill="none" stroke="#000000" stroke-width="0.40" />
<polyline points="16.0,117.346 255.0,117.346" fill="none" stroke="#000000" stroke-width="0.40" />
<polyline points="16.0,122.346 255.0,122.346" fill="none" stroke="#000000" stroke-width="0.40" />
<polyline points="16.0,127.346 255.0,127.346" fill="none" stroke="#000000" stroke-width="0.40" />
<polyline points="16.0,132.346 255.0,132.346" fill="none" stroke="#000000" stroke-width="0.40" />
<polyline points="16.0,164.846 255.0,164.846" fill="none" stroke="#000000" stroke-width="0.40" />
<polyline points="16.0,169.846 255.0,169.846" fill="none" stroke="#000000" stroke-width="0.40" />
<polyline points="16.0,174.846 255.0,174.846" fill="none" stroke="#000000" stroke-width="0.40" />
<polyline points="16.0,179.846 255.0,179.846" fill="none" stroke="#000000" stroke-width="0.40" />
<polyline points="16.0,184.846 255.0,184.846" fill="none" stroke="#000000" stroke-width="0.40" />
<polyline points="16.0,217.346 255.0,217.346" fill="none" stroke="#000000" stroke-width="0.40" />
<polyline points="16.0,222.346 255.0,222.346" fill="none" stroke="#000000" stroke-width="0.40" />
<polyline points="16.0,227.346 255.0,227.346" fill="none" stroke="#000000" stroke-width="0.40" />
<polyline points="16.0,232.346 255.0,232.346" fill="none" stroke="#000000" stroke-width="0.40" />
<polyline points="16.0,237.346 255.0,237.346" fill="none" stroke="#000000" stroke-width="0.40" />
<polyline points="16.40000000000009,112.346 16.40000000000009,255.0" fill="" stroke="#000000" stroke-width="0.80" />
<polyline points="16.40000000000009,0.0 16.40000000000009,37.346000000000004" fill="" stroke="#000000" stroke-width="0.80" />
<polyline points="71.38999999999987,122.221 64.92999999999984,126.221" fill="" stroke="#000000" stroke-width="0.65" />
<polyline points="75.09000000000015,99.721 68.63000000000011,103.721" fill="" stroke="#000000" stroke-width="0.65" />
<polyline points="255.73999999999978,128.286 255.73999999999978,173.596" fill="" stroke="#000000" stroke-width="0.65" />
<polyline points="255.73999999999978,105.786 255.73999999999978,121.096" fill="" stroke="#000000" stroke-width="0.65" />
<polyline points="234.94999999999982,243.90699999999998 234.94999999999982,207.346" fill="" stroke="#000000" stroke-width="0.65" />
<polyline points="229.01999999999998,125.786 229.01999999999998,174.846" fill="" stroke="#000000" stroke-width="0.65" />
<polyline points="229.01999999999998,103.286 229.01999999999998,123.596" fill="" stroke="#000000" stroke-width="0.65" />
<polyline points="208.23000000000002,243.90699999999998 208.23000000000002,207.346" fill="" stroke="#000000" stroke-width="0.65" />
<polyline points="191.53999999999996,243.90699999999998 191.53999999999996,207.346" fill="" stroke="#000000" stroke-width="0.65" />
<polyline points="174.84000000000015,243.90699999999998 174.84000000000015,207.346" fill="" stroke="#000000" stroke-width="0.65" />
<polyline points="168.9000000000001,125.786 168.9000000000001,174.846" fill="" stroke="#000000" stroke-width="0.65" />
<polyline points="168.9000000000001,103.286 168.9000000000001,122.346" fill="" stroke="#000000" stroke-width="0.65" />
<polyline points="153.44000000000005,241.40699999999998 153.44000000000005,203.596" fill="" stroke="#000000" stroke-width="0.65" />
<polyline points="135.67000000000007,241.40699999999998 135.67000000000007,203.596" fill="" stroke="#000000" stroke-width="0.65" />
<polyline points="129.73999999999978,125.786 129.73999999999978,173.596" fill="" stroke="#000000" stroke-width="0.65" />
<polyline points="129.73999999999978,103.286 129.73999999999978,122.346" fill="" stroke="#000000" stroke-width="0.65" />
<polyline points="108.94999999999982,241.40699999999998 108.94999999999982,203.596" fill="" stroke="#000000" stroke-width="0.65" />
<polyline points="103.01999999999998,128.286 103.01999999999998,174.01299999999998" fill="" stroke="#000000" stroke-width="0.65" />
<polyline points="103.01999999999998,105.786 103.01999999999998,124.43" fill="" stroke="#000000" stroke-width="0.65" />
<polyline points="67.32999999999993,134.18900000000002 67.32999999999993,118.221" fill="" stroke="#000000" stroke-width="0.65" />
<polyline points="76.30000000000018,133.286 76.30000000000018,174.43" fill="" stroke="#000000" stroke-width="0.65" />
<polyline points="71.0300000000002,111.68900000000002 71.0300000000002,95.721" fill="" stroke="#000000" stroke-width="0.65" />
<polyline points="76.30000000000018,110.786 76.30000000000018,126.51299999999998" fill="" stroke="#000000" stroke-width="0.65" />
<polyline points="55.51999999999998,241.40699999999998 55.51999999999998,206.096" fill="" stroke="#000000" stroke-width="0.65" />
<polyline points="49.590000000000146,138.286 49.590000000000146,174.846" fill="" stroke="#000000" stroke-width="0.65" />
<polyline points="49.590000000000146,115.786 49.590000000000146,128.596" fill="" stroke="#000000" stroke-width="0.65" />
<polyline points="248.3699999999999,16.910000000000025 248.3699999999999,41.096000000000004" fill="" stroke="#000000" stroke-width="0.65" />
<polyline points="223.55999999999995,16.910000000000025 223.55999999999995,41.096000000000004" fill="" stroke="#000000" stroke-width="0.65" />
<polyline points="192.53999999999996,16.910000000000025 192.53999999999996,49.846000000000004" fill="" stroke="#000000" stroke-width="0.65" />
<polyline points="167.73000000000002,16.910000000000025 167.73000000000002,49.846000000000004" fill="" stroke="#000000" stroke-width="0.65" />
<polyline points="146.73000000000002,25.786 146.73000000000002,41.096000000000004" fill="" stroke="#000000" stroke-width="0.65" />
<polyline points="128.55999999999995,16.910000000000025 128.55999999999995,41.096000000000004" fill="" stroke="#000000" stroke-width="0.65" />
<polyline points="103.75,16.910000000000025 103.75,41.096000000000004" fill="" stroke="#000000" stroke-width="0.65" />
<polyline points="78.92999999999984,16.910000000000025 78.92999999999984,49.846000000000004" fill="" stroke="#000000" stroke-width="0.65" />
<polyline points="54.11999999999989,16.910000000000025 54.11999999999989,49.846000000000004" fill="" stroke="#000000" stroke-width="0.65" />
<polyline points="253.90999999999985,129.846 255.0,129.846" fill="" stroke="#000000" stroke-width="0.80" />
<polyline points="253.90999999999985,134.846 255.0,134.846" fill="" stroke="#000000" stroke-width="0.80" />
<polyline points="253.90999999999985,139.846 255.0,139.846" fill="" stroke="#000000" stroke-width="0.80" />
<polyline points="253.90999999999985,144.846 255.0,144.846" fill="" stroke="#000000" stroke-width="0.80" />
<polyline points="253.90999999999985,149.846 255.0,149.846" fill="" stroke="#000000" stroke-width="0.80" />
<polyline points="253.90999999999985,154.846 255.0,154.846" fill="" stroke="#000000" stroke-width="0.80" />
<polyline points="253.90999999999985,159.846 255.0,159.846" fill="" stroke="#000000" stroke-width="0.80" />
<polyline points="253.90999999999985,107.346 255.0,107.346" fill="" stroke="#000000" stroke-width="0.80" />
<polyline points="227.19000000000005,242.346 236.7800000000002,242.346" fill="" stroke="#000000" stroke-width="0.80" />
<polyline points="227.19000000000005,124.846 236.7800000000002,124.846" fill="" stroke="#000000" stroke-width="0.80" />
<polyline points="227.19000000000005,129.846 236.7800000000002,129.846" fill="" stroke="#000000" stroke-width="0.80" />
<polyline points="227.19000000000005,134.846 236.7800000000002,134.846" fill="" stroke="#000000" stroke-width="0.80" />
<polyline points="227.19000000000005,139.846 236.7800000000002,139.846" fill="" stroke="#000000" stroke-width="0.80" />
<polyline points="227.19000000000005,144.846 236.7800000000002,144.846" fill="" stroke="#000000" stroke-width="0.80" />
<polyline points="227.19000000000005,149.846 236.7800000000002,149.846" fill="" stroke="#000000" stroke-width="0.80" />
<polyline points="227.19000000000005,154.846 236.7800000000002,154.846" fill="" stroke="#000000" stroke-width="0.80" />
<polyline points="227.19000000000005,159.846 236.7800000000002,159.846" fill="" stroke="#000000" stroke-width="0.80" />
<polyline points="227.19000000000005,102.346 236.7800000000002,102.346" fill="" stroke="#000000" stroke-width="0.80" />
<polyline points="227.19000000000005,107.346 236.7800000000002,107.346" fill="" stroke="#000000" stroke-width="0.80" />
<polyline points="200.48000000000002,242.346 210.05999999999995,242.346" fill="" stroke="#000000" stroke-width="0.80" />
<polyline points="183.7800000000002,242.346 193.36000000000013,242.346" fill="" stroke="#000000" stroke-width="0.80" />
<polyline points="167.07999999999993,242.346 176.65999999999985,242.346" fill="" stroke="#000000" stroke-width="0.80" />
<polyline points="167.07999999999993,124.846 176.65999999999985,124.846" fill="" stroke="#000000" stroke-width="0.80" />
<polyline points="167.07999999999993,129.846 176.65999999999985,129.846" fill="" stroke="#000000" stroke-width="0.80" />
<polyline points="167.07999999999993,134.846 176.65999999999985,134.846" fill="" stroke="#000000" stroke-width="0.80" />
<polyline points="167.07999999999993,139.846 176.65999999999985,139.846" fill="" stroke="#000000" stroke-width="0.80" />
<polyline points="167.07999999999993,144.846 176.65999999999985,144.846" fill="" stroke="#000000" stroke-width="0.80" />
<polyline points="167.07999999999993,149.846 176.65999999999985,149.846" fill="" stroke="#000000" stroke-width="0.80" />
<polyline points="167.07999999999993,154.846 176.65999999999985,154.846" fill="" stroke="#000000" stroke-width="0.80" />
<polyline points="167.07999999999993,159.846 176.65999999999985,159.846" fill="" stroke="#000000" stroke-width="0.80" />
<polyline points="167.07999999999993,102.346 176.65999999999985,102.346" fill="" stroke="#000000" stroke-width="0.80" />
<polyline points="167.07999999999993,107.346 176.65999999999985,107.346" fill="" stroke="#000000" stroke-width="0.80" />
<polyline points="145.67999999999984,242.346 155.26000000000022,242.346" fill="" stroke="#000000" stroke-width="0.80" />
<polyline points="127.90999999999985,242.346 137.5,242.346" fill="" stroke="#000000" stroke-width="0.80" />
<polyline points="127.90999999999985,124.846 137.5,124.846" fill="" stroke="#000000" stroke-width="0.80" />
<polyline points="127.90999999999985,129.846 137.5,129.846" fill="" stroke="#000000" stroke-width="0.80" />
<polyline points="127.90999999999985,134.846 137.5,134.846" fill="" stroke="#000000" stroke-width="0.80" />
<polyline points="127.90999999999985,139.846 137.5,139.846" fill="" stroke="#000000" stroke-width="0.80" />
<polyline points="127.90999999999985,144.846 137.5,144.846" fill="" stroke="#000000" stroke-width="0.80" />
<polyline points="127.90999999999985,149.846 137.5,149.846" fill="" stroke="#000000" stroke-width="0.80" />
<polyline points="127.90999999999985,154.846 137.5,154.846" fill="" stroke="#000000" stroke-width="0.80" />
<polyline points="127.90999999999985,159.846 137.5,159.846" fill="" stroke="#000000" stroke-width="0.80" />
<polyline points="127.90999999999985,102.346 137.5,102.346" fill="" stroke="#000000" stroke-width="0.80" />
<polyline points="127.90999999999985,107.346 137.5,107.346" fill="" stroke="#000000" stroke-width="0.80" />
<polyline points="101.19999999999982,242.346 110.7800000000002,242.346" fill="" stroke="#000000" stroke-width="0.80" />
<polyline points="101.19999999999982,129.846 110.7800000000002,129.846" fill="" stroke="#000000" stroke-width="0.80" />
<polyline points="101.19999999999982,134.846 110.7800000000002,134.846" fill="" stroke="#000000" stroke-width="0.80" />
<polyline points="101.19999999999982,139.846 110.7800000000002,139.846" fill="" stroke="#000000" stroke-width="0.80" />
<polyline points="101.19999999999982,144.846 110.7800000000002,144.846" fill="" stroke="#000000" stroke-width="0.80" />
<polyline points="101.19999999999982,149.846 110.7800000000002,149.846" fill="" stroke="#000000" stroke-width="0.80" />
<polyline points="101.19999999999982,154.846 110.7800000000002,154.846" fill="" stroke="#000000" stroke-width="0.80" />
<polyline points="101.19999999999982,159.846 110.7800000000002,159.846" fill="" stroke="#000000" stroke-width="0.80" />
<polyline points="101.19999999999982,107.346 110.7800000000002,107.346" fill="" stroke="#000000" stroke-width="0.80" />
<polyline points="61.55000000000018,134.846 69.15999999999985,134.846" fill="" stroke="#000000" stroke-width="0.56" />
<polyline points="61.55000000000018,139.846 69.15999999999985,139.846" fill="" stroke="#000000" stroke-width="0.56" />
<polyline points="61.55000000000018,144.846 69.15999999999985,144.846" fill="" stroke="#000000" stroke-width="0.56" />
<polyline points="61.55000000000018,149.846 69.15999999999985,149.846" fill="" stroke="#000000" stroke-width="0.56" />
<polyline points="61.55000000000018,154.846 69.15999999999985,154.846" fill="" stroke="#000000" stroke-width="0.56" />
<polyline points="61.55000000000018,159.846 69.15999999999985,159.846" fill="" stroke="#000000" stroke-width="0.56" />
<polyline points="74.48000000000002,134.846 84.05999999999995,134.846" fill="" stroke="#000000" stroke-width="0.80" />
<polyline points="74.48000000000002,139.846 84.05999999999995,139.846" fill="" stroke="#000000" stroke-width="0.80" />
<polyline points="74.48000000000002,144.846 84.05999999999995,144.846" fill="" stroke="#000000" stroke-width="0.80" />
<polyline points="74.48000000000002,149.846 84.05999999999995,149.846" fill="" stroke="#000000" stroke-width="0.80" />
<polyline points="74.48000000000002,154.846 84.05999999999995,154.846" fill="" stroke="#000000" stroke-width="0.80" />
<polyline points="74.48000000000002,159.846 84.05999999999995,159.846" fill="" stroke="#000000" stroke-width="0.80" />
<polyline points="47.76000000000022,242.346 57.340000000000146,242.346" fill="" stroke="#000000" stroke-width="0.80" />
<polyline points="47.76000000000022,139.846 57.340000000000146,139.846" fill="" stroke="#000000" stroke-width="0.80" />
<polyline points="47.76000000000022,144.846 57.340000000000146,144.846" fill="" stroke="#000000" stroke-width="0.80" />
<polyline points="47.76000000000022,149.846 57.340000000000146,149.846" fill="" stroke="#000000" stroke-width="0.80" />
<polyline points="47.76000000000022,154.846 57.340000000000146,154.846" fill="" stroke="#000000" stroke-width="0.80" />
<polyline points="47.76000000000022,159.846 57.340000000000146,159.846" fill="" stroke="#000000" stroke-width="0.80" />
<polyline points="237.7800000000002,154.846 242.7800000000002,154.846" fill="" stroke="#000000" stroke-width="0.75" />
<polyline points="237.7800000000002,154.846 242.7800000000002,154.846" fill="" stroke="#000000" stroke-width="0.75" />
<polyline points="237.7800000000002,102.346 242.7800000000002,102.346" fill="" stroke="#000000" stroke-width="0.75" />
<polyline points="237.7800000000002,102.346 242.7800000000002,102.346" fill="" stroke="#000000" stroke-width="0.75" />
</svg>
