<?xml version="1.0" encoding="UTF-8" standalone="yes"?>
<svg width="256.0px" height="256.0px" xmlns="http://www.w3.org/2000/svg" xmlns:xlink="http://www.w3.org/1999/xlink" version="1.2" baseProfile="tiny">
<polyline points="0.0,17.346000000000004 255.0,17.346000000000004" fill="none" stroke="#000000" stroke-width="0.40" />
<polyline points="0.0,22.346000000000004 255.0,22.346000000000004" fill="none" stroke="#000000" stroke-width="0.40" />
<polyline points="0.0,27.346000000000004 255.0,27.346000000000004" fill="none" stroke="#000000" stroke-width="0.40" />
<polyline points="0.0,32.346000000000004 255.0,32.346000000000004" fill="none" stroke="#000000" stroke-width="0.40" />
<polyline points="0.0,37.346000000000004 255.0,37.346000000000004" fill="none" stroke="#000000" stroke-width="0.40" />
<polyline points="0.0,112.346 255.0,112.346" fill="none" stroke="#000000" stroke-width="0.40" />
<polyline points="0.0,117.346 255.0,117.346" fill="none" stroke="#000000" stroke-width="0.40" />
<polyline points="0.0,122.346 255.0,122.346" fill="none" stroke="#000000" stroke-width="0.40" />
<polyline points="0.0,127.346 255.0,127.346" fill="none" stroke="#000000" stroke-width="0.40" />
<polyline points="0.0,132.346 255.0,132.346" fill="none" stroke="#000000" stroke-width="0.40" />
<polyline points="0.0,164.846 255.0,164.846" fill="none" stroke="#000000" stroke-width="0.40" />
<polyline points="0.0,169.846 255.0,169.846" fill="none" stroke="#000000" stroke-width="0.40" />
<polyline points="0.0,174.846 255.0,174.846" fill="none" stroke="#000000" stroke-width="0.40" />
<polyline points="0.0,179.846 255.0,179.846" fill="none" stroke="#000000" stroke-width="0.40" />
<polyline points="0.0,184.846 255.0,184.846" fill="none" stroke="#000000" stroke-width="0.40" />
<polyline points="0.0,217.346 255.0,217.346" fill="none" stroke="#000000" stroke-width="0.40" />
<polyline points="0.0,222.346 255.0,222.346" fill="none" stroke="#000000" stroke-width="0.40" />
<polyline points="0.0,227.346 255.0,227.346" fill="none" stroke="#000000" stroke-width="0.40" />
<polyline points="0.0,232.346 255.0,232.346" fill="none" stroke="#000000" stroke-width="0.40" />
<polyline points="0.0,237.346 255.0,237.346" fill="none" stroke="#000000" stroke-width="0.40" />
<polyline points="226.23999999999978,217.346 226.23999999999978,237.346" fill="" stroke="#000000" stroke-width="0.80" />
<polyline points="226.23999999999978,164.846 226.23999999999978,184.846" fill="" stroke="#000000" stroke-width="0.80" />
<polyline points="226.23999999999978,112.346 226.23999999999978,132.346" fill="" stroke="#000000" stroke-width="0.80" />
<polyline points="92.15999999999985,17.346000000000004 92.15999999999985,37.346000000000004" fill="" stroke="#000000" stroke-width="0.80" />
<polyline points="117.10999999999967,132.221 110.65999999999985,136.221" fill="" stroke="#000000" stroke-width="0.65" />
<polyline points="120.8100000000004,109.721 114.35999999999967,113.721" fill="" stroke="#000000" stroke-width="0.65" />
<polyline points="241.39000000000033,241.57799999999997 241.39000000000033,206.096" fill="" stroke="#000000" stroke-width="0.65" />
<polyline points="197.39000000000033,243.90699999999998 197.39000000000033,207.346" fill="" stroke="#000000" stroke-width="0.65" />
<polyline points="191.44999999999982,154.41000000000003 191.44999999999982,173.596" fill="" stroke="#000000" stroke-width="0.65" />
<polyline points="197.39000000000033,127.86200000000002 197.39000000000033,107.346" fill="" stroke="#000000" stroke-width="0.65" />
<polyline points="162.6800000000003,243.90699999999998 162.6800000000003,207.346" fill="" stroke="#000000" stroke-width="0.65" />
<polyline points="156.73999999999978,145.786 156.73999999999978,173.99900000000002" fill="" stroke="#000000" stroke-width="0.65" />
<polyline points="162.6800000000003,121.40699999999998 162.6800000000003,107.346" fill="" stroke="#000000" stroke-width="0.65" />
<polyline points="127.97000000000025,243.90699999999998 127.97000000000025,207.346" fill="" stroke="#000000" stroke-width="0.65" />
<polyline points="113.0600000000004,144.18900000000002 113.0600000000004,128.221" fill="" stroke="#000000" stroke-width="0.65" />
<polyline points="122.02999999999975,143.286 122.02999999999975,174.401" fill="" stroke="#000000" stroke-width="0.65" />
<polyline points="116.76000000000022,121.68900000000002 116.76000000000022,105.721" fill="" stroke="#000000" stroke-width="0.65" />
<polyline points="127.97000000000025,118.90699999999998 127.97000000000025,107.346" fill="" stroke="#000000" stroke-width="0.65" />
<polyline points="83.64999999999964,155.786 83.64999999999964,174.846" fill="" stroke="#000000" stroke-width="0.65" />
<polyline points="89.57999999999993,131.40699999999998 89.57999999999993,107.346" fill="" stroke="#000000" stroke-width="0.65" />
<polyline points="66.30000000000018,160.786 66.30000000000018,178.596" fill="" stroke="#000000" stroke-width="0.65" />
<polyline points="72.22999999999956,136.40699999999998 72.22999999999956,122.346" fill="" stroke="#000000" stroke-width="0.65" />
<polyline points="48.9399999999996,163.286 48.9399999999996,179.846" fill="" stroke="#000000" stroke-width="0.65" />
<polyline points="54.86999999999989,138.90699999999998 54.86999999999989,123.596" fill="" stroke="#000000" stroke-width="0.65" />
<polyline points="230.9300000000003,16.910000000000025 230.9300000000003,48.596000000000004" fill="" stroke="#000000" stroke-width="0.65" />
<polyline points="204.51000000000022,16.910000000000025 204.51000000000022,48.596000000000004" fill="" stroke="#000000" stroke-width="0.65" />
<polyline points="185.3699999999999,16.910000000000025 185.3699999999999,48.596000000000004" fill="" stroke="#000000" stroke-width="0.65" />
<polyline points="166.10000000000036,16.910000000000025 166.10000000000036,43.596000000000004" fill="" stroke="#000000" stroke-width="0.65" />
<polyline points="146.09000000000015,16.910000000000025 146.09000000000015,46.17099999999999" fill="" stroke="#000000" stroke-width="0.65" />
<polyline points="126.94999999999982,16.910000000000025 126.94999999999982,48.634000000000015" fill="" stroke="#000000" stroke-width="0.65" />
<polyline points="107.8100000000004,16.910000000000025 107.8100000000004,51.096000000000004" fill="" stroke="#000000" stroke-width="0.65" />
<polyline points="77.81999999999971,16.910000000000025 77.81999999999971,48.596000000000004" fill="" stroke="#000000" stroke-width="0.65" />
<polyline points="59.98999999999978,16.910000000000025 59.98999999999978,48.596000000000004" fill="" stroke="#000000" stroke-width="0.65" />
<polyline points="45.720000000000255,16.910000000000025 45.720000000000255,48.596000000000004" fill="" stroke="#000000" stroke-width="0.65" />
<polyline points="31.449999999999818,16.910000000000025 31.449999999999818,48.596000000000004" fill="" stroke="#000000" stroke-width="0.65" />
<polyline points="1.8299999999999272,16.910000000000025 1.8299999999999272,43.596000000000004" fill="" stroke="#000000" stroke-width="0.65" />
<polyline points="233.27000000000044,242.346 243.22000000000025,242.346" fill="" stroke="#000000" stroke-width="0.80" />
<polyline points="189.6300000000001,242.346 199.21000000000004,242.346" fill="" stroke="#000000" stroke-width="0.80" />
<polyline points="189.6300000000001,154.846 199.21000000000004,154.846" fill="" stroke="#000000" stroke-width="0.80" />
<polyline points="189.6300000000001,159.846 199.21000000000004,159.846" fill="" stroke="#000000" stroke-width="0.80" />
<polyline points="154.92000000000007,242.346 164.5,242.346" fill="" stroke="#000000" stroke-width="0.80" />
<polyline points="154.92000000000007,144.846 164.5,144.846" fill="" stroke="#000000" stroke-width="0.80" />
<polyline points="154.92000000000007,149.846 164.5,149.846" fill="" stroke="#000000" stroke-width="0.80" />
<polyline points="154.92000000000007,154.846 164.5,154.846" fill="" stroke="#000000" stroke-width="0.80" />
<polyline points="154.92000000000007,159.846 164.5,159.846" fill="" stroke="#000000" stroke-width="0.80" />
<polyline points="120.21000000000004,242.346 129.78999999999996,242.346" fill="" stroke="#000000" stroke-width="0.80" />
<polyline points="107.27999999999975,144.846 114.89000000000033,144.846" fill="" stroke="#000000" stroke-width="0.56" />
<polyline points="107.27999999999975,149.846 114.89000000000033,149.846" fill="" stroke="#000000" stroke-width="0.56" />
<polyline points="107.27999999999975,154.846 114.89000000000033,154.846" fill="" stroke="#000000" stroke-width="0.56" />
<polyline points="107.27999999999975,159.846 114.89000000000033,159.846" fill="" stroke="#000000" stroke-width="0.56" />
<polyline points="120.21000000000004,144.846 129.78999999999996,144.846" fill="" stroke="#000000" stroke-width="0.80" />
<polyline points="120.21000000000004,149.846 129.78999999999996,149.846" fill="" stroke="#000000" stroke-width="0.80" />
<polyline points="120.21000000000004,154.846 129.78999999999996,154.846" fill="" stroke="#000000" stroke-width="0.80" />
<polyline points="120.21000000000004,159.846 129.78999999999996,159.846" fill="" stroke="#000000" stroke-width="0.80" />
<polyline points="81.82999999999993,154.846 91.40999999999985,154.846" fill="" stroke="#000000" stroke-width="0.80" />
<polyline points="81.82999999999993,159.846 91.40999999999985,159.846" fill="" stroke="#000000" stroke-width="0.80" />
<polyline points="64.47000000000025,159.846 74.05000000000018,159.846" fill="" stroke="#000000" stroke-width="0.80" />
<polyline points="64.47000000000025,137.346 74.05000000000018,137.346" fill="" stroke="#000000" stroke-width="0.80" />
<polyline points="47.11999999999989,137.346 56.69999999999982,137.346" fill="" stroke="#000000" stroke-width="0.80" />
</svg>
