<?xml version="1.0" encoding="UTF-8" standalone="yes"?>
<svg width="256.0px" height="256.0px" xmlns="http://www.w3.org/2000/svg" xmlns:xlink="http://www.w3.org/1999/xlink" version="1.2" baseProfile="tiny">
<polyline points="0.0,17.346000000000004 125.85999999999967,17.346000000000004" fill="none" stroke="#000000" stroke-width="0.40" />
<polyline points="0.0,22.346000000000004 125.85999999999967,22.346000000000004" fill="none" stroke="#000000" stroke-width="0.40" />
<polyline points="0.0,27.346000000000004 125.85999999999967,27.346000000000004" fill="none" stroke="#000000" stroke-width="0.40" />
<polyline points="0.0,32.346000000000004 125.85999999999967,32.346000000000004" fill="none" stroke="#000000" stroke-width="0.40" />
<polyline points="0.0,37.346000000000004 125.85999999999967,37.346000000000004" fill="none" stroke="#000000" stroke-width="0.40" />
<polyline points="0.0,112.346 125.85999999999967,112.346" fill="none" stroke="#000000" stroke-width="0.40" />
<polyline points="0.0,117.346 125.85999999999967,117.346" fill="none" stroke="#000000" stroke-width="0.40" />
<polyline points="0.0,122.346 125.85999999999967,122.346" fill="none" stroke="#000000" stroke-width="0.40" />
<polyline points="0.0,127.346 125.85999999999967,127.346" fill="none" stroke="#000000" stroke-width="0.40" />
<polyline points="0.0,132.346 125.85999999999967,132.346" fill="none" stroke="#000000" stroke-width="0.40" />
<polyline points="0.0,164.846 125.85999999999967,164.846" fill="none" stroke="#000000" stroke-width="0.40" />
<polyline points="0.0,169.846 125.85999999999967,169.846" fill="none" stroke="#000000" stroke-width="0.40" />
<polyline points="0.0,174.846 125.85999999999967,174.846" fill="none" stroke="#000000" stroke-width="0.40" />
<polyline points="0.0,179.846 125.85999999999967,179.846" fill="none" stroke="#000000" stroke-width="0.40" />
<polyline points="0.0,184.846 125.85999999999967,184.846" fill="none" stroke="#000000" stroke-width="0.40" />
<polyline points="0.0,217.346 125.85999999999967,217.346" fill="none" stroke="#000000" stroke-width="0.40" />
<polyline points="0.0,222.346 125.85999999999967,222.346" fill="none" stroke="#000000" stroke-width="0.40" />
<polyline points="0.0,227.346 125.85999999999967,227.346" fill="none" stroke="#000000" stroke-width="0.40" />
<polyline points="0.0,232.346 125.85999999999967,232.346" fill="none" stroke="#000000" stroke-width="0.40" />
<polyline points="0.0,237.346 125.85999999999967,237.346" fill="none" stroke="#000000" stroke-width="0.40" />
<polyline points="125.46000000000004,217.346 125.46000000000004,237.346" fill="" stroke="#000000" stroke-width="0.80" />
<polyline points="125.46000000000004,164.846 125.46000000000004,184.846" fill="" stroke="#000000" stroke-width="0.80" />
<polyline points="125.46000000000004,112.346 125.46000000000004,132.346" fill="" stroke="#000000" stroke-width="0.80" />
<polyline points="125.46000000000004,17.346000000000004 125.46000000000004,37.346000000000004" fill="" stroke="#000000" stroke-width="0.80" />
<polyline points="104.72999999999956,154.41000000000003 104.72999999999956,174.846" fill="" stroke="#000000" stroke-width="0.65" />
<polyline points="104.72999999999956,131.91000000000003 104.72999999999956,146.096" fill="" stroke="#000000" stroke-width="0.65" />
<polyline points="94.21000000000004,243.90699999999998 94.21000000000004,207.346" fill="" stroke="#000000" stroke-width="0.65" />
<polyline points="79.69999999999982,243.90699999999998 79.69999999999982,207.346" fill="" stroke="#000000" stroke-width="0.65" />
<polyline points="65.1899999999996,243.90699999999998 65.1899999999996,207.346" fill="" stroke="#000000" stroke-width="0.65" />
<polyline points="59.26000000000022,126.91000000000003 59.26000000000022,173.596" fill="" stroke="#000000" stroke-width="0.65" />
<polyline points="59.26000000000022,104.41000000000003 59.26000000000022,142.346" fill="" stroke="#000000" stroke-width="0.65" />
<polyline points="35.14000000000033,243.90699999999998 35.14000000000033,208.596" fill="" stroke="#000000" stroke-width="0.65" />
<polyline points="6.119999999999891,243.90699999999998 6.119999999999891,208.596" fill="" stroke="#000000" stroke-width="0.65" />
<polyline points="0.18999999999959982,138.286 0.18999999999959982,174.846" fill="" stroke="#000000" stroke-width="0.65" />
<polyline points="0.18999999999959982,115.786 0.18999999999959982,132.346" fill="" stroke="#000000" stroke-width="0.65" />
<polyline points="107.86999999999989,25.786 107.86999999999989,51.096000000000004" fill="" stroke="#000000" stroke-width="0.65" />
<polyline points="92.07999999999993,16.910000000000025 92.07999999999993,51.096000000000004" fill="" stroke="#000000" stroke-width="0.65" />
<polyline points="77.09000000000015,35.786 77.09000000000015,51.096000000000004" fill="" stroke="#000000" stroke-width="0.65" />
<polyline points="61.30000000000018,16.910000000000025 61.30000000000018,51.096000000000004" fill="" stroke="#000000" stroke-width="0.65" />
<polyline points="46.3100000000004,35.786 46.3100000000004,51.096000000000004" fill="" stroke="#000000" stroke-width="0.65" />
<polyline points="30.51000000000022,16.910000000000025 30.51000000000022,51.096000000000004" fill="" stroke="#000000" stroke-width="0.65" />
<polyline points="102.90999999999985,154.846 112.48999999999978,154.846" fill="" stroke="#000000" stroke-width="0.80" />
<polyline points="102.90999999999985,159.846 112.48999999999978,159.846" fill="" stroke="#000000" stroke-width="0.80" />
<polyline points="86.44999999999982,242.346 96.02999999999975,242.346" fill="" stroke="#000000" stroke-width="0.80" />
<polyline points="71.9399999999996,242.346 81.52000000000044,242.346" fill="" stroke="#000000" stroke-width="0.80" />
<polyline points="57.43000000000029,242.346 67.01000000000022,242.346" fill="" stroke="#000000" stroke-width="0.80" />
<polyline points="57.43000000000029,124.846 67.01000000000022,124.846" fill="" stroke="#000000" stroke-width="0.80" />
<polyline points="57.43000000000029,129.846 67.01000000000022,129.846" fill="" stroke="#000000" stroke-width="0.80" />
<polyline points="57.43000000000029,134.846 67.01000000000022,134.846" fill="" stroke="#000000" stroke-width="0.80" />
<polyline points="57.43000000000029,139.846 67.01000000000022,139.846" fill="" stroke="#000000" stroke-width="0.80" />
<polyline points="57.43000000000029,144.846 67.01000000000022,144.846" fill="" stroke="#000000" stroke-width="0.80" />
<polyline points="57.43000000000029,149.846 67.01000000000022,149.846" fill="" stroke="#000000" stroke-width="0.80" />
<polyline points="57.43000000000029,154.846 67.01000000000022,154.846" fill="" stroke="#000000" stroke-width="0.80" />
<polyline points="57.43000000000029,159.846 67.01000000000022,159.846" fill="" stroke="#000000" stroke-width="0.80" />
<polyline points="57.43000000000029,102.346 67.01000000000022,102.346" fill="" stroke="#000000" stroke-width="0.80" />
<polyline points="57.43000000000029,107.346 67.01000000000022,107.346" fill="" stroke="#000000" stroke-width="0.80" />
<polyline points="27.38000000000011,242.346 36.960000000000036,242.346" fill="" stroke="#000000" stroke-width="0.80" />
<polyline points="0.0,242.346 7.949999999999818,242.346" fill="" stroke="#000000" stroke-width="0.80" />
<polyline points="0.0,139.846 7.949999999999818,139.846" fill="" stroke="#000000" stroke-width="0.80" />
<polyline points="0.0,144.846 7.949999999999818,144.846" fill="" stroke="#000000" stroke-width="0.80" />
<polyline points="0.0,149.846 7.949999999999818,149.846" fill="" stroke="#000000" stroke-width="0.80" />
<polyline points="0.0,154.846 7.949999999999818,154.846" fill="" stroke="#000000" stroke-width="0.80" />
<polyline points="0.0,159.846 7.949999999999818,159.846" fill="" stroke="#000000" stroke-width="0.80" />
<polyline points="70.77999999999975,107.52100000000002 100.89000000000033,107.52100000000002" fill="" stroke="#000000" stroke-width="0.75" />
<polyline points="7.699999999999818,113.88499999999999 57.26000000000022,113.88499999999999" fill="" stroke="#000000" stroke-width="0.75" />
<polyline points="182.55000000000018,17.346000000000004 255.0,17.346000000000004" fill="none" stroke="#000000" stroke-width="0.40" />
<polyline points="182.55000000000018,22.346000000000004 255.0,22.346000000000004" fill="none" stroke="#000000" stroke-width="0.40" />
<polyline points="182.55000000000018,27.346000000000004 255.0,27.346000000000004" fill="none" stroke="#000000" stroke-width="0.40" />
<polyline points="182.55000000000018,32.346000000000004 255.0,32.346000000000004" fill="none" stroke="#000000" stroke-width="0.40" />
<polyline points="182.55000000000018,37.346000000000004 255.0,37.346000000000004" fill="none" stroke="#000000" stroke-width="0.40" />
<polyline points="182.55000000000018,112.346 255.0,112.346" fill="none" stroke="#000000" stroke-width="0.40" />
<polyline points="182.55000000000018,117.346 255.0,117.346" fill="none" stroke="#000000" stroke-width="0.40" />
<polyline points="182.55000000000018,122.346 255.0,122.346" fill="none" stroke="#000000" stroke-width="0.40" />
<polyline points="182.55000000000018,127.346 255.0,127.346" fill="none" stroke="#000000" stroke-width="0.40" />
<polyline points="182.55000000000018,132.346 255.0,132.346" fill="none" stroke="#000000" stroke-width="0.40" />
<polyline points="182.55000000000018,164.846 255.0,164.846" fill="none" stroke="#000000" stroke-width="0.40" />
<polyline points="182.55000000000018,169.846 255.0,169.846" fill="none" stroke="#000000" stroke-width="0.40" />
<polyline points="182.55000000000018,174.846 255.0,174.846" fill="none" stroke="#000000" stroke-width="0.40" />
<polyline points="182.55000000000018,179.846 255.0,179.846" fill="none" stroke="#000000" stroke-width="0.40" />
<polyline points="182.55000000000018,184.846 255.0,184.846" fill="none" stroke="#000000" stroke-width="0.40" />
<polyline points="182.55000000000018,217.346 255.0,217.346" fill="none" stroke="#000000" stroke-width="0.40" />
<polyline points="182.55000000000018,222.346 255.0,222.346" fill="none" stroke="#000000" stroke-width="0.40" />
<polyline points="182.55000000000018,227.346 255.0,227.346" fill="none" stroke="#000000" stroke-width="0.40" />
<polyline points="182.55000000000018,232.346 255.0,232.346" fill="none" stroke="#000000" stroke-width="0.40" />
<polyline points="182.55000000000018,237.346 255.0,237.346" fill="none" stroke="#000000" stroke-width="0.40" />
<polyline points="182.94999999999982,112.346 182.94999999999982,255.0" fill="" stroke="#000000" stroke-width="0.80" />
<polyline points="182.94999999999982,0.0 182.94999999999982,37.346000000000004" fill="" stroke="#000000" stroke-width="0.80" />
<polyline points="227.75,241.57799999999997 227.75,209.846" fill="" stroke="#000000" stroke-width="0.65" />
<polyline points="243.5600000000004,16.910000000000025 243.5600000000004,46.096000000000004" fill="" stroke="#000000" stroke-width="0.65" />
<polyline points="229.30000000000018,16.910000000000025 229.30000000000018,48.596000000000004" fill="" stroke="#000000" stroke-width="0.65" />
<polyline points="215.02999999999975,16.910000000000025 215.02999999999975,51.096000000000004" fill="" stroke="#000000" stroke-width="0.65" />
<polyline points="219.6300000000001,242.346 229.5699999999997,242.346" fill="" stroke="#000000" stroke-width="0.80" />
</svg>
