<?xml version="1.0" encoding="UTF-8" standalone="yes"?>
<svg width="256.0px" height="256.0px" xmlns="http://www.w3.org/2000/svg" xmlns:xlink="http://www.w3.org/1999/xlink" version="1.2" baseProfile="tiny">
<polyline points="0.0,113.346 255.0,113.346" fill="none" stroke="#000000" stroke-width="0.40" />
<polyline points="0.0,118.346 255.0,118.346" fill="none" stroke="#000000" stroke-width="0.40" />
<polyline points="0.0,123.346 255.0,123.346" fill="none" stroke="#000000" stroke-width="0.40" />
<polyline points="0.0,128.346 255.0,128.346" fill="none" stroke="#000000" stroke-width="0.40" />
<polyline points="0.0,133.346 255.0,133.346" fill="none" stroke="#000000" stroke-width="0.40" />
<polyline points="0.0,165.846 255.0,165.846" fill="none" stroke="#000000" stroke-width="0.40" />
<polyline points="0.0,170.846 255.0,170.846" fill="none" stroke="#000000" stroke-width="0.40" />
<polyline points="0.0,175.846 255.0,175.846" fill="none" stroke="#000000" stroke-width="0.40" />
<polyline points="0.0,180.846 255.0,180.846" fill="none" stroke="#000000" stroke-width="0.40" />
<polyline points="0.0,185.846 255.0,185.846" fill="none" stroke="#000000" stroke-width="0.40" />
<polyline points="0.0,218.346 255.0,218.346" fill="none" stroke="#000000" stroke-width="0.40" />
<polyline points="0.0,223.346 255.0,223.346" fill="none" stroke="#000000" stroke-width="0.40" />
<polyline points="0.0,228.346 255.0,228.346" fill="none" stroke="#000000" stroke-width="0.40" />
<polyline points="0.0,233.346 255.0,233.346" fill="none" stroke="#000000" stroke-width="0.40" />
<polyline points="0.0,238.346 255.0,238.346" fill="none" stroke="#000000" stroke-width="0.40" />
<polyline points="135.349,218.346 135.349,238.346" fill="" stroke="#000000" stroke-width="0.80" />
<polyline points="135.349,165.846 135.349,185.846" fill="" stroke="#000000" stroke-width="0.80" />
<polyline points="135.349,113.346 135.349,133.346" fill="" stroke="#000000" stroke-width="0.80" />
<polyline points="254.464,211.786 254.464,255.0" fill="" stroke="#000000" stroke-width="0.65" />
<polyline points="199.74099999999999,249.907 199.74099999999999,203.346" fill="" stroke="#000000" stroke-width="0.65" />
<polyline points="176.41199999999998,249.907 176.41199999999998,202.096" fill="" stroke="#000000" stroke-width="0.65" />
<polyline points="157.74900000000002,249.907 157.74900000000002,202.096" fill="" stroke="#000000" stroke-width="0.65" />
<polyline points="121.613,249.907 121.613,197.096" fill="" stroke="#000000" stroke-width="0.65" />
<polyline points="99.53800000000001,244.907 99.53800000000001,197.096" fill="" stroke="#000000" stroke-width="0.65" />
<polyline points="79.945,244.907 79.945,197.096" fill="" stroke="#000000" stroke-width="0.65" />
<polyline points="23.067999999999984,209.286 23.067999999999984,255.221" fill="" stroke="#000000" stroke-width="0.65" />
<polyline points="3.4750000000000227,209.286 3.4750000000000227,255.0" fill="" stroke="#000000" stroke-width="0.65" />
<polyline points="252.639,243.346 255.0,243.346" fill="" stroke="#000000" stroke-width="0.80" />
<polyline points="252.639,213.346 255.0,213.346" fill="" stroke="#000000" stroke-width="0.80" />
<polyline points="191.98399999999998,243.346 201.56599999999997,243.346" fill="" stroke="#000000" stroke-width="0.80" />
<polyline points="191.98399999999998,248.346 201.56599999999997,248.346" fill="" stroke="#000000" stroke-width="0.80" />
<polyline points="168.654,243.346 178.23700000000002,243.346" fill="" stroke="#000000" stroke-width="0.80" />
<polyline points="168.654,248.346 178.23700000000002,248.346" fill="" stroke="#000000" stroke-width="0.80" />
<polyline points="149.99099999999999,243.346 159.574,243.346" fill="" stroke="#000000" stroke-width="0.80" />
<polyline points="149.99099999999999,248.346 159.574,248.346" fill="" stroke="#000000" stroke-width="0.80" />
<polyline points="113.85500000000002,243.346 123.43799999999999,243.346" fill="" stroke="#000000" stroke-width="0.80" />
<polyline points="113.85500000000002,248.346 123.43799999999999,248.346" fill="" stroke="#000000" stroke-width="0.80" />
<polyline points="91.77999999999997,243.346 101.363,243.346" fill="" stroke="#000000" stroke-width="0.80" />
<polyline points="91.77999999999997,213.346 101.363,213.346" fill="" stroke="#000000" stroke-width="0.80" />
<polyline points="72.18700000000001,243.346 81.76999999999998,243.346" fill="" stroke="#000000" stroke-width="0.80" />
<polyline points="72.18700000000001,213.346 81.76999999999998,213.346" fill="" stroke="#000000" stroke-width="0.80" />
<polyline points="21.242999999999995,243.346 30.826000000000022,243.346" fill="" stroke="#000000" stroke-width="0.80" />
<polyline points="21.242999999999995,208.346 30.826000000000022,208.346" fill="" stroke="#000000" stroke-width="0.80" />
<polyline points="21.242999999999995,213.346 30.826000000000022,213.346" fill="" stroke="#000000" stroke-width="0.80" />
<polyline points="1.6499999999999773,243.346 11.233000000000004,243.346" fill="" stroke="#000000" stroke-width="0.80" />
<polyline points="1.6499999999999773,208.346 11.233000000000004,208.346" fill="" stroke="#000000" stroke-width="0.80" />
<polyline points="1.6499999999999773,213.346 11.233000000000004,213.346" fill="" stroke="#000000" stroke-width="0.80" />
</svg>
