<?xml version="1.0" encoding="UTF-8" standalone="yes"?>
<svg width="256.0px" height="256.0px" xmlns="http://www.w3.org/2000/svg" xmlns:xlink="http://www.w3.org/1999/xlink" version="1.2" baseProfile="tiny">
<polyline points="0.0,17.346000000000004 42.57999999999993,17.346000000000004" fill="none" stroke="#000000" stroke-width="0.40" />
<polyline points="0.0,22.346000000000004 42.57999999999993,22.346000000000004" fill="none" stroke="#000000" stroke-width="0.40" />
<polyline points="0.0,27.346000000000004 42.57999999999993,27.346000000000004" fill="none" stroke="#000000" stroke-width="0.40" />
<polyline points="0.0,32.346000000000004 42.57999999999993,32.346000000000004" fill="none" stroke="#000000" stroke-width="0.40" />
<polyline points="0.0,37.346000000000004 42.57999999999993,37.346000000000004" fill="none" stroke="#000000" stroke-width="0.40" />
<polyline points="0.0,112.346 42.57999999999993,112.346" fill="none" stroke="#000000" stroke-width="0.40" />
<polyline points="0.0,117.346 42.57999999999993,117.346" fill="none" stroke="#000000" stroke-width="0.40" />
<polyline points="0.0,122.346 42.57999999999993,122.346" fill="none" stroke="#000000" stroke-width="0.40" />
<polyline points="0.0,127.346 42.57999999999993,127.346" fill="none" stroke="#000000" stroke-width="0.40" />
<polyline points="0.0,132.346 42.57999999999993,132.346" fill="none" stroke="#000000" stroke-width="0.40" />
<polyline points="0.0,164.846 42.57999999999993,164.846" fill="none" stroke="#000000" stroke-width="0.40" />
<polyline points="0.0,169.846 42.57999999999993,169.846" fill="none" stroke="#000000" stroke-width="0.40" />
<polyline points="0.0,174.846 42.57999999999993,174.846" fill="none" stroke="#000000" stroke-width="0.40" />
<polyline points="0.0,179.846 42.57999999999993,179.846" fill="none" stroke="#000000" stroke-width="0.40" />
<polyline points="0.0,184.846 42.57999999999993,184.846" fill="none" stroke="#000000" stroke-width="0.40" />
<polyline points="0.0,217.346 42.57999999999993,217.346" fill="none" stroke="#000000" stroke-width="0.40" />
<polyline points="0.0,222.346 42.57999999999993,222.346" fill="none" stroke="#000000" stroke-width="0.40" />
<polyline points="0.0,227.346 42.57999999999993,227.346" fill="none" stroke="#000000" stroke-width="0.40" />
<polyline points="0.0,232.346 42.57999999999993,232.346" fill="none" stroke="#000000" stroke-width="0.40" />
<polyline points="0.0,237.346 42.57999999999993,237.346" fill="none" stroke="#000000" stroke-width="0.40" />
<polyline points="42.18000000000029,217.346 42.18000000000029,237.346" fill="" stroke="#000000" stroke-width="0.80" />
<polyline points="42.18000000000029,164.846 42.18000000000029,184.846" fill="" stroke="#000000" stroke-width="0.80" />
<polyline points="42.18000000000029,112.346 42.18000000000029,132.346" fill="" stroke="#000000" stroke-width="0.80" />
<polyline points="42.18000000000029,17.346000000000004 42.18000000000029,37.346000000000004" fill="" stroke="#000000" stroke-width="0.80" />
<polyline points="30.520000000000437,241.40699999999998 30.520000000000437,202.346" fill="" stroke="#000000" stroke-width="0.65" />
<polyline points="14.640000000000327,242.86200000000002 14.640000000000327,202.76299999999998" fill="" stroke="#000000" stroke-width="0.65" />
<polyline points="8.710000000000036,125.786 8.710000000000036,173.596" fill="" stroke="#000000" stroke-width="0.65" />
<polyline points="8.710000000000036,103.286 8.710000000000036,121.096" fill="" stroke="#000000" stroke-width="0.65" />
<polyline points="24.590000000000146,25.786 24.590000000000146,41.096000000000004" fill="" stroke="#000000" stroke-width="0.65" />
<polyline points="6.430000000000291,16.910000000000025 6.430000000000291,41.096000000000004" fill="" stroke="#000000" stroke-width="0.65" />
<polyline points="22.770000000000437,242.346 32.350000000000364,242.346" fill="" stroke="#000000" stroke-width="0.80" />
<polyline points="6.880000000000109,242.346 16.470000000000255,242.346" fill="" stroke="#000000" stroke-width="0.80" />
<polyline points="6.880000000000109,124.846 16.470000000000255,124.846" fill="" stroke="#000000" stroke-width="0.80" />
<polyline points="6.880000000000109,129.846 16.470000000000255,129.846" fill="" stroke="#000000" stroke-width="0.80" />
<polyline points="6.880000000000109,134.846 16.470000000000255,134.846" fill="" stroke="#000000" stroke-width="0.80" />
<polyline points="6.880000000000109,139.846 16.470000000000255,139.846" fill="" stroke="#000000" stroke-width="0.80" />
<polyline points="6.880000000000109,144.846 16.470000000000255,144.846" fill="" stroke="#000000" stroke-width="0.80" />
<polyline points="6.880000000000109,149.846 16.470000000000255,149.846" fill="" stroke="#000000" stroke-width="0.80" />
<polyline points="6.880000000000109,154.846 16.470000000000255,154.846" fill="" stroke="#000000" stroke-width="0.80" />
<polyline points="6.880000000000109,159.846 16.470000000000255,159.846" fill="" stroke="#000000" stroke-width="0.80" />
<polyline points="6.880000000000109,102.346 16.470000000000255,102.346" fill="" stroke="#000000" stroke-width="0.80" />
<polyline points="6.880000000000109,107.346 16.470000000000255,107.346" fill="" stroke="#000000" stroke-width="0.80" />
<polyline points="99.27999999999975,17.346000000000004 255.0,17.346000000000004" fill="none" stroke="#000000" stroke-width="0.40" />
<polyline points="99.27999999999975,22.346000000000004 255.0,22.346000000000004" fill="none" stroke="#000000" stroke-width="0.40" />
<polyline points="99.27999999999975,27.346000000000004 255.0,27.346000000000004" fill="none" stroke="#000000" stroke-width="0.40" />
<polyline points="99.27999999999975,32.346000000000004 255.0,32.346000000000004" fill="none" stroke="#000000" stroke-width="0.40" />
<polyline points="99.27999999999975,37.346000000000004 255.0,37.346000000000004" fill="none" stroke="#000000" stroke-width="0.40" />
<polyline points="99.27999999999975,112.346 255.0,112.346" fill="none" stroke="#000000" stroke-width="0.40" />
<polyline points="99.27999999999975,117.346 255.0,117.346" fill="none" stroke="#000000" stroke-width="0.40" />
<polyline points="99.27999999999975,122.346 255.0,122.346" fill="none" stroke="#000000" stroke-width="0.40" />
<polyline points="99.27999999999975,127.346 255.0,127.346" fill="none" stroke="#000000" stroke-width="0.40" />
<polyline points="99.27999999999975,132.346 255.0,132.346" fill="none" stroke="#000000" stroke-width="0.40" />
<polyline points="99.27999999999975,164.846 255.0,164.846" fill="none" stroke="#000000" stroke-width="0.40" />
<polyline points="99.27999999999975,169.846 255.0,169.846" fill="none" stroke="#000000" stroke-width="0.40" />
<polyline points="99.27999999999975,174.846 255.0,174.846" fill="none" stroke="#000000" stroke-width="0.40" />
<polyline points="99.27999999999975,179.846 255.0,179.846" fill="none" stroke="#000000" stroke-width="0.40" />
<polyline points="99.27999999999975,184.846 255.0,184.846" fill="none" stroke="#000000" stroke-width="0.40" />
<polyline points="99.27999999999975,217.346 255.0,217.346" fill="none" stroke="#000000" stroke-width="0.40" />
<polyline points="99.27999999999975,222.346 255.0,222.346" fill="none" stroke="#000000" stroke-width="0.40" />
<polyline points="99.27999999999975,227.346 255.0,227.346" fill="none" stroke="#000000" stroke-width="0.40" />
<polyline points="99.27999999999975,232.346 255.0,232.346" fill="none" stroke="#000000" stroke-width="0.40" />
<polyline points="99.27999999999975,237.346 255.0,237.346" fill="none" stroke="#000000" stroke-width="0.40" />
<polyline points="99.68000000000029,112.346 99.68000000000029,255.0" fill="" stroke="#000000" stroke-width="0.80" />
<polyline points="99.68000000000029,0.0 99.68000000000029,37.346000000000004" fill="" stroke="#000000" stroke-width="0.80" />
<polyline points="255.1300000000001,240.36200000000002 255.1300000000001,206.096" fill="" stroke="#000000" stroke-width="0.65" />
<polyline points="249.1899999999996,133.286 249.1899999999996,173.596" fill="" stroke="#000000" stroke-width="0.65" />
<polyline points="249.1899999999996,110.786 249.1899999999996,126.096" fill="" stroke="#000000" stroke-width="0.65" />
<polyline points="238.8199999999997,240.36200000000002 238.8199999999997,203.596" fill="" stroke="#000000" stroke-width="0.65" />
<polyline points="232.89000000000033,135.786 232.89000000000033,174.846" fill="" stroke="#000000" stroke-width="0.65" />
<polyline points="232.89000000000033,113.286 232.89000000000033,127.346" fill="" stroke="#000000" stroke-width="0.65" />
<polyline points="222.27999999999975,240.36200000000002 222.27999999999975,203.596" fill="" stroke="#000000" stroke-width="0.65" />
<polyline points="216.35000000000036,133.286 216.35000000000036,174.426" fill="" stroke="#000000" stroke-width="0.65" />
<polyline points="216.35000000000036,110.786 216.35000000000036,125.243" fill="" stroke="#000000" stroke-width="0.65" />
<polyline points="200.05000000000018,128.286 200.05000000000018,174.01100000000002" fill="" stroke="#000000" stroke-width="0.65" />
<polyline points="200.05000000000018,105.786 200.05000000000018,123.17000000000002" fill="" stroke="#000000" stroke-width="0.65" />
<polyline points="189.6800000000003,241.40699999999998 189.6800000000003,203.596" fill="" stroke="#000000" stroke-width="0.65" />
<polyline points="183.73999999999978,125.786 183.73999999999978,173.596" fill="" stroke="#000000" stroke-width="0.65" />
<polyline points="183.73999999999978,103.286 183.73999999999978,121.096" fill="" stroke="#000000" stroke-width="0.65" />
<polyline points="163.59000000000015,241.40699999999998 163.59000000000015,204.846" fill="" stroke="#000000" stroke-width="0.65" />
<polyline points="157.65999999999985,128.286 157.65999999999985,174.846" fill="" stroke="#000000" stroke-width="0.65" />
<polyline points="157.65999999999985,105.786 157.65999999999985,122.346" fill="" stroke="#000000" stroke-width="0.65" />
<polyline points="137.51000000000022,241.40699999999998 137.51000000000022,204.846" fill="" stroke="#000000" stroke-width="0.65" />
<polyline points="131.5699999999997,125.786 131.5699999999997,173.596" fill="" stroke="#000000" stroke-width="0.65" />
<polyline points="131.5699999999997,103.286 131.5699999999997,121.096" fill="" stroke="#000000" stroke-width="0.65" />
<polyline points="255.8100000000004,16.910000000000025 255.8100000000004,49.846000000000004" fill="" stroke="#000000" stroke-width="0.65" />
<polyline points="239.34000000000015,25.786 239.34000000000015,41.096000000000004" fill="" stroke="#000000" stroke-width="0.65" />
<polyline points="224.21000000000004,16.910000000000025 224.21000000000004,41.096000000000004" fill="" stroke="#000000" stroke-width="0.65" />
<polyline points="184.19999999999982,16.910000000000025 184.19999999999982,41.096000000000004" fill="" stroke="#000000" stroke-width="0.65" />
<polyline points="154.73999999999978,16.910000000000025 154.73999999999978,49.846000000000004" fill="" stroke="#000000" stroke-width="0.65" />
<polyline points="131.17000000000007,16.910000000000025 131.17000000000007,49.846000000000004" fill="" stroke="#000000" stroke-width="0.65" />
<polyline points="247.3699999999999,242.346 255.0,242.346" fill="" stroke="#000000" stroke-width="0.80" />
<polyline points="247.3699999999999,134.846 255.0,134.846" fill="" stroke="#000000" stroke-width="0.80" />
<polyline points="247.3699999999999,139.846 255.0,139.846" fill="" stroke="#000000" stroke-width="0.80" />
<polyline points="247.3699999999999,144.846 255.0,144.846" fill="" stroke="#000000" stroke-width="0.80" />
<polyline points="247.3699999999999,149.846 255.0,149.846" fill="" stroke="#000000" stroke-width="0.80" />
<polyline points="247.3699999999999,154.846 255.0,154.846" fill="" stroke="#000000" stroke-width="0.80" />
<polyline points="247.3699999999999,159.846 255.0,159.846" fill="" stroke="#000000" stroke-width="0.80" />
<polyline points="231.0600000000004,242.346 240.64999999999964,242.346" fill="" stroke="#000000" stroke-width="0.80" />
<polyline points="231.0600000000004,134.846 240.64999999999964,134.846" fill="" stroke="#000000" stroke-width="0.80" />
<polyline points="231.0600000000004,139.846 240.64999999999964,139.846" fill="" stroke="#000000" stroke-width="0.80" />
<polyline points="231.0600000000004,144.846 240.64999999999964,144.846" fill="" stroke="#000000" stroke-width="0.80" />
<polyline points="231.0600000000004,149.846 240.64999999999964,149.846" fill="" stroke="#000000" stroke-width="0.80" />
<polyline points="231.0600000000004,154.846 240.64999999999964,154.846" fill="" stroke="#000000" stroke-width="0.80" />
<polyline points="231.0600000000004,159.846 240.64999999999964,159.846" fill="" stroke="#000000" stroke-width="0.80" />
<polyline points="214.52000000000044,242.346 224.10999999999967,242.346" fill="" stroke="#000000" stroke-width="0.80" />
<polyline points="214.52000000000044,134.846 224.10999999999967,134.846" fill="" stroke="#000000" stroke-width="0.80" />
<polyline points="214.52000000000044,139.846 224.10999999999967,139.846" fill="" stroke="#000000" stroke-width="0.80" />
<polyline points="214.52000000000044,144.846 224.10999999999967,144.846" fill="" stroke="#000000" stroke-width="0.80" />
<polyline points="214.52000000000044,149.846 224.10999999999967,149.846" fill="" stroke="#000000" stroke-width="0.80" />
<polyline points="214.52000000000044,154.846 224.10999999999967,154.846" fill="" stroke="#000000" stroke-width="0.80" />
<polyline points="214.52000000000044,159.846 224.10999999999967,159.846" fill="" stroke="#000000" stroke-width="0.80" />
<polyline points="198.22000000000025,129.846 207.80000000000018,129.846" fill="" stroke="#000000" stroke-width="0.80" />
<polyline points="198.22000000000025,134.846 207.80000000000018,134.846" fill="" stroke="#000000" stroke-width="0.80" />
<polyline points="198.22000000000025,139.846 207.80000000000018,139.846" fill="" stroke="#000000" stroke-width="0.80" />
<polyline points="198.22000000000025,144.846 207.80000000000018,144.846" fill="" stroke="#000000" stroke-width="0.80" />
<polyline points="198.22000000000025,149.846 207.80000000000018,149.846" fill="" stroke="#000000" stroke-width="0.80" />
<polyline points="198.22000000000025,154.846 207.80000000000018,154.846" fill="" stroke="#000000" stroke-width="0.80" />
<polyline points="198.22000000000025,159.846 207.80000000000018,159.846" fill="" stroke="#000000" stroke-width="0.80" />
<polyline points="198.22000000000025,107.346 207.80000000000018,107.346" fill="" stroke="#000000" stroke-width="0.80" />
<polyline points="181.92000000000007,242.346 191.5,242.346" fill="" stroke="#000000" stroke-width="0.80" />
<polyline points="181.92000000000007,124.846 191.5,124.846" fill="" stroke="#000000" stroke-width="0.80" />
<polyline points="181.92000000000007,129.846 191.5,129.846" fill="" stroke="#000000" stroke-width="0.80" />
<polyline points="181.92000000000007,134.846 191.5,134.846" fill="" stroke="#000000" stroke-width="0.80" />
<polyline points="181.92000000000007,139.846 191.5,139.846" fill="" stroke="#000000" stroke-width="0.80" />
<polyline points="181.92000000000007,144.846 191.5,144.846" fill="" stroke="#000000" stroke-width="0.80" />
<polyline points="181.92000000000007,149.846 191.5,149.846" fill="" stroke="#000000" stroke-width="0.80" />
<polyline points="181.92000000000007,154.846 191.5,154.846" fill="" stroke="#000000" stroke-width="0.80" />
<polyline points="181.92000000000007,159.846 191.5,159.846" fill="" stroke="#000000" stroke-width="0.80" />
<polyline points="181.92000000000007,102.346 191.5,102.346" fill="" stroke="#000000" stroke-width="0.80" />
<polyline points="181.92000000000007,107.346 191.5,107.346" fill="" stroke="#000000" stroke-width="0.80" />
<polyline points="155.82999999999993,242.346 165.42000000000007,242.346" fill="" stroke="#000000" stroke-width="0.80" />
<polyline points="155.82999999999993,129.846 165.42000000000007,129.846" fill="" stroke="#000000" stroke-width="0.80" />
<polyline points="155.82999999999993,134.846 165.42000000000007,134.846" fill="" stroke="#000000" stroke-width="0.80" />
<polyline points="155.82999999999993,139.846 165.42000000000007,139.846" fill="" stroke="#000000" stroke-width="0.80" />
<polyline points="155.82999999999993,144.846 165.42000000000007,144.846" fill="" stroke="#000000" stroke-width="0.80" />
<polyline points="155.82999999999993,149.846 165.42000000000007,149.846" fill="" stroke="#000000" stroke-width="0.80" />
<polyline points="155.82999999999993,154.846 165.42000000000007,154.846" fill="" stroke="#000000" stroke-width="0.80" />
<polyline points="155.82999999999993,159.846 165.42000000000007,159.846" fill="" stroke="#000000" stroke-width="0.80" />
<polyline points="155.82999999999993,107.346 165.42000000000007,107.346" fill="" stroke="#000000" stroke-width="0.80" />
<polyline points="129.75,242.346 139.32999999999993,242.346" fill="" stroke="#000000" stroke-width="0.80" />
<polyline points="129.75,124.846 139.32999999999993,124.846" fill="" stroke="#000000" stroke-width="0.80" />
<polyline points="129.75,129.846 139.32999999999993,129.846" fill="" stroke="#000000" stroke-width="0.80" />
<polyline points="129.75,134.846 139.32999999999993,134.846" fill="" stroke="#000000" stroke-width="0.80" />
<polyline points="129.75,139.846 139.32999999999993,139.846" fill="" stroke="#000000" stroke-width="0.80" />
<polyline points="129.75,144.846 139.32999999999993,144.846" fill="" stroke="#000000" stroke-width="0.80" />
<polyline points="129.75,149.846 139.32999999999993,149.846" fill="" stroke="#000000" stroke-width="0.80" />
<polyline points="129.75,154.846 139.32999999999993,154.846" fill="" stroke="#000000" stroke-width="0.80" />
<polyline points="129.75,159.846 139.32999999999993,159.846" fill="" stroke="#000000" stroke-width="0.80" />
<polyline points="129.75,102.346 139.32999999999993,102.346" fill="" stroke="#000000" stroke-width="0.80" />
<polyline points="129.75,107.346 139.32999999999993,107.346" fill="" stroke="#000000" stroke-width="0.80" />
</svg>
