<?xml version="1.0" encoding="UTF-8" standalone="yes"?>
<svg width="256.0px" height="256.0px" xmlns="http://www.w3.org/2000/svg" xmlns:xlink="http://www.w3.org/1999/xlink" version="1.2" baseProfile="tiny">
<polyline points="0.0,63.3465 255.0,63.3465" fill="none" stroke="#000000" stroke-width="0.40" />
<polyline points="0.0,68.3465 255.0,68.3465" fill="none" stroke="#000000" stroke-width="0.40" />
<polyline points="0.0,73.3465 255.0,73.3465" fill="none" stroke="#000000" stroke-width="0.40" />
<polyline points="0.0,78.3465 255.0,78.3465" fill="none" stroke="#000000" stroke-width="0.40" />
<polyline points="0.0,83.3465 255.0,83.3465" fill="none" stroke="#000000" stroke-width="0.40" />
<polyline points="0.0,115.846 255.0,115.846" fill="none" stroke="#000000" stroke-width="0.40" />
<polyline points="0.0,120.846 255.0,120.846" fill="none" stroke="#000000" stroke-width="0.40" />
<polyline points="0.0,125.846 255.0,125.846" fill="none" stroke="#000000" stroke-width="0.40" />
<polyline points="0.0,130.846 255.0,130.846" fill="none" stroke="#000000" stroke-width="0.40" />
<polyline points="0.0,135.846 255.0,135.846" fill="none" stroke="#000000" stroke-width="0.40" />
<polyline points="0.0,168.346 255.0,168.346" fill="none" stroke="#000000" stroke-width="0.40" />
<polyline points="0.0,173.346 255.0,173.346" fill="none" stroke="#000000" stroke-width="0.40" />
<polyline points="0.0,178.346 255.0,178.346" fill="none" stroke="#000000" stroke-width="0.40" />
<polyline points="0.0,183.346 255.0,183.346" fill="none" stroke="#000000" stroke-width="0.40" />
<polyline points="0.0,188.346 255.0,188.346" fill="none" stroke="#000000" stroke-width="0.40" />
<polyline points="0.0,220.846 255.0,220.846" fill="none" stroke="#000000" stroke-width="0.40" />
<polyline points="0.0,225.846 255.0,225.846" fill="none" stroke="#000000" stroke-width="0.40" />
<polyline points="0.0,230.846 255.0,230.846" fill="none" stroke="#000000" stroke-width="0.40" />
<polyline points="0.0,235.846 255.0,235.846" fill="none" stroke="#000000" stroke-width="0.40" />
<polyline points="0.0,240.846 255.0,240.846" fill="none" stroke="#000000" stroke-width="0.40" />
<polyline points="23.860000000000127,220.846 23.860000000000127,240.846" fill="" stroke="#000000" stroke-width="0.80" />
<polyline points="23.860000000000127,168.346 23.860000000000127,188.346" fill="" stroke="#000000" stroke-width="0.80" />
<polyline points="23.860000000000127,115.846 23.860000000000127,135.846" fill="" stroke="#000000" stroke-width="0.80" />
<polyline points="23.860000000000127,63.3465 23.860000000000127,83.3465" fill="" stroke="#000000" stroke-width="0.80" />
<polyline points="246.6199999999999,224.286 246.6199999999999,239.596" fill="" stroke="#000000" stroke-width="0.65" />
<polyline points="246.6199999999999,89.2855 246.6199999999999,125.221" fill="" stroke="#000000" stroke-width="0.65" />
<polyline points="246.6199999999999,66.7855 246.6199999999999,84.5965" fill="" stroke="#000000" stroke-width="0.65" />
<polyline points="230.40999999999985,224.286 230.40999999999985,239.596" fill="" stroke="#000000" stroke-width="0.65" />
<polyline points="236.34000000000015,194.907 236.34000000000015,154.596" fill="" stroke="#000000" stroke-width="0.65" />
<polyline points="230.40999999999985,87.9105 230.40999999999985,124.596" fill="" stroke="#000000" stroke-width="0.65" />
<polyline points="230.40999999999985,65.4105 230.40999999999985,82.0965" fill="" stroke="#000000" stroke-width="0.65" />
<polyline points="214.19999999999982,226.786 214.19999999999982,244.596" fill="" stroke="#000000" stroke-width="0.65" />
<polyline points="198.0,226.786 198.0,245.013" fill="" stroke="#000000" stroke-width="0.65" />
<polyline points="203.92999999999984,194.907 203.92999999999984,158.346" fill="" stroke="#000000" stroke-width="0.65" />
<polyline points="181.78999999999996,226.786 181.78999999999996,245.43" fill="" stroke="#000000" stroke-width="0.65" />
<polyline points="187.7199999999998,194.907 187.7199999999998,158.346" fill="" stroke="#000000" stroke-width="0.65" />
<polyline points="165.57999999999993,229.286 165.57999999999993,245.846" fill="" stroke="#000000" stroke-width="0.65" />
<polyline points="171.51999999999998,194.907 171.51999999999998,158.346" fill="" stroke="#000000" stroke-width="0.65" />
<polyline points="165.57999999999993,86.7855 165.57999999999993,125.846" fill="" stroke="#000000" stroke-width="0.65" />
<polyline points="165.57999999999993,64.2855 165.57999999999993,80.8465" fill="" stroke="#000000" stroke-width="0.65" />
<polyline points="152.23000000000002,232.407 152.23000000000002,215.846" fill="" stroke="#000000" stroke-width="0.65" />
<polyline points="152.23000000000002,191.362 152.23000000000002,159.596" fill="" stroke="#000000" stroke-width="0.65" />
<polyline points="136.01999999999998,191.362 136.01999999999998,159.596" fill="" stroke="#000000" stroke-width="0.65" />
<polyline points="119.82000000000016,239.907 119.82000000000016,225.846" fill="" stroke="#000000" stroke-width="0.65" />
<polyline points="103.61000000000013,239.907 103.61000000000013,225.846" fill="" stroke="#000000" stroke-width="0.65" />
<polyline points="103.61000000000013,192.407 103.61000000000013,159.596" fill="" stroke="#000000" stroke-width="0.65" />
<polyline points="97.67999999999984,86.7855 97.67999999999984,125.846" fill="" stroke="#000000" stroke-width="0.65" />
<polyline points="97.67999999999984,64.2855 97.67999999999984,80.8465" fill="" stroke="#000000" stroke-width="0.65" />
<polyline points="87.40000000000009,243.862 87.40000000000009,230.846" fill="" stroke="#000000" stroke-width="0.65" />
<polyline points="71.19999999999982,243.862 71.19999999999982,228.923" fill="" stroke="#000000" stroke-width="0.65" />
<polyline points="45.26000000000022,239.907 45.26000000000022,225.846" fill="" stroke="#000000" stroke-width="0.65" />
<polyline points="45.26000000000022,192.407 45.26000000000022,160.846" fill="" stroke="#000000" stroke-width="0.65" />
<polyline points="39.32999999999993,86.7855 39.32999999999993,125.846" fill="" stroke="#000000" stroke-width="0.65" />
<polyline points="39.32999999999993,64.2855 39.32999999999993,80.8465" fill="" stroke="#000000" stroke-width="0.65" />
<polyline points="14.210000000000036,193.862 14.210000000000036,158.346" fill="" stroke="#000000" stroke-width="0.65" />
<polyline points="244.78999999999996,90.8465 254.3800000000001,90.8465" fill="" stroke="#000000" stroke-width="0.80" />
<polyline points="244.78999999999996,95.8465 254.3800000000001,95.8465" fill="" stroke="#000000" stroke-width="0.80" />
<polyline points="244.78999999999996,100.846 254.3800000000001,100.846" fill="" stroke="#000000" stroke-width="0.80" />
<polyline points="244.78999999999996,105.846 254.3800000000001,105.846" fill="" stroke="#000000" stroke-width="0.80" />
<polyline points="244.78999999999996,110.846 254.3800000000001,110.846" fill="" stroke="#000000" stroke-width="0.80" />
<polyline points="228.59000000000015,193.346 238.17000000000007,193.346" fill="" stroke="#000000" stroke-width="0.80" />
<polyline points="228.59000000000015,85.8465 238.17000000000007,85.8465" fill="" stroke="#000000" stroke-width="0.80" />
<polyline points="228.59000000000015,90.8465 238.17000000000007,90.8465" fill="" stroke="#000000" stroke-width="0.80" />
<polyline points="228.59000000000015,95.8465 238.17000000000007,95.8465" fill="" stroke="#000000" stroke-width="0.80" />
<polyline points="228.59000000000015,100.846 238.17000000000007,100.846" fill="" stroke="#000000" stroke-width="0.80" />
<polyline points="228.59000000000015,105.846 238.17000000000007,105.846" fill="" stroke="#000000" stroke-width="0.80" />
<polyline points="228.59000000000015,110.846 238.17000000000007,110.846" fill="" stroke="#000000" stroke-width="0.80" />
<polyline points="196.17000000000007,193.346 205.76000000000022,193.346" fill="" stroke="#000000" stroke-width="0.80" />
<polyline points="179.9699999999998,193.346 189.55000000000018,193.346" fill="" stroke="#000000" stroke-width="0.80" />
<polyline points="163.76000000000022,193.346 173.34000000000015,193.346" fill="" stroke="#000000" stroke-width="0.80" />
<polyline points="163.76000000000022,85.8465 173.34000000000015,85.8465" fill="" stroke="#000000" stroke-width="0.80" />
<polyline points="163.76000000000022,90.8465 173.34000000000015,90.8465" fill="" stroke="#000000" stroke-width="0.80" />
<polyline points="163.76000000000022,95.8465 173.34000000000015,95.8465" fill="" stroke="#000000" stroke-width="0.80" />
<polyline points="163.76000000000022,100.846 173.34000000000015,100.846" fill="" stroke="#000000" stroke-width="0.80" />
<polyline points="163.76000000000022,105.846 173.34000000000015,105.846" fill="" stroke="#000000" stroke-width="0.80" />
<polyline points="163.76000000000022,110.846 173.34000000000015,110.846" fill="" stroke="#000000" stroke-width="0.80" />
<polyline points="144.4699999999998,193.346 154.05999999999995,193.346" fill="" stroke="#000000" stroke-width="0.80" />
<polyline points="128.26999999999998,193.346 137.8499999999999,193.346" fill="" stroke="#000000" stroke-width="0.80" />
<polyline points="95.84999999999991,193.346 105.44000000000005,193.346" fill="" stroke="#000000" stroke-width="0.80" />
<polyline points="95.84999999999991,85.8465 105.44000000000005,85.8465" fill="" stroke="#000000" stroke-width="0.80" />
<polyline points="95.84999999999991,90.8465 105.44000000000005,90.8465" fill="" stroke="#000000" stroke-width="0.80" />
<polyline points="95.84999999999991,95.8465 105.44000000000005,95.8465" fill="" stroke="#000000" stroke-width="0.80" />
<polyline points="95.84999999999991,100.846 105.44000000000005,100.846" fill="" stroke="#000000" stroke-width="0.80" />
<polyline points="95.84999999999991,105.846 105.44000000000005,105.846" fill="" stroke="#000000" stroke-width="0.80" />
<polyline points="95.84999999999991,110.846 105.44000000000005,110.846" fill="" stroke="#000000" stroke-width="0.80" />
<polyline points="79.65000000000009,245.846 89.23000000000002,245.846" fill="" stroke="#000000" stroke-width="0.80" />
<polyline points="63.440000000000055,245.846 73.01999999999998,245.846" fill="" stroke="#000000" stroke-width="0.80" />
<polyline points="37.51000000000022,193.346 47.090000000000146,193.346" fill="" stroke="#000000" stroke-width="0.80" />
<polyline points="37.51000000000022,85.8465 47.090000000000146,85.8465" fill="" stroke="#000000" stroke-width="0.80" />
<polyline points="37.51000000000022,90.8465 47.090000000000146,90.8465" fill="" stroke="#000000" stroke-width="0.80" />
<polyline points="37.51000000000022,95.8465 47.090000000000146,95.8465" fill="" stroke="#000000" stroke-width="0.80" />
<polyline points="37.51000000000022,100.846 47.090000000000146,100.846" fill="" stroke="#000000" stroke-width="0.80" />
<polyline points="37.51000000000022,105.846 47.090000000000146,105.846" fill="" stroke="#000000" stroke-width="0.80" />
<polyline points="37.51000000000022,110.846 47.090000000000146,110.846" fill="" stroke="#000000" stroke-width="0.80" />
<polyline points="6.460000000000036,193.346 16.039999999999964,193.346" fill="" stroke="#000000" stroke-width="0.80" />
<polyline points="0.0,193.346 0.5300000000002001,193.346" fill="" stroke="#000000" stroke-width="0.80" />
<polyline points="0.0,85.8465 0.5300000000002001,85.8465" fill="" stroke="#000000" stroke-width="0.80" />
<polyline points="0.0,90.8465 0.5300000000002001,90.8465" fill="" stroke="#000000" stroke-width="0.80" />
<polyline points="0.0,95.8465 0.5300000000002001,95.8465" fill="" stroke="#000000" stroke-width="0.80" />
<polyline points="0.0,100.846 0.5300000000002001,100.846" fill="" stroke="#000000" stroke-width="0.80" />
<polyline points="0.0,105.846 0.5300000000002001,105.846" fill="" stroke="#000000" stroke-width="0.80" />
<polyline points="0.0,110.846 0.5300000000002001,110.846" fill="" stroke="#000000" stroke-width="0.80" />
<polyline points="48.090000000000146,105.846 53.090000000000146,105.846" fill="" stroke="#000000" stroke-width="0.75" />
<polyline points="48.090000000000146,53.3465 53.090000000000146,53.3465" fill="" stroke="#000000" stroke-width="0.75" />
</svg>
