<?xml version="1.0" encoding="UTF-8" standalone="yes"?>
<svg width="256.0px" height="256.0px" xmlns="http://www.w3.org/2000/svg" xmlns:xlink="http://www.w3.org/1999/xlink" version="1.2" baseProfile="tiny">
<polyline points="0.0,17.346000000000004 255.0,17.346000000000004" fill="none" stroke="#000000" stroke-width="0.40" />
<polyline points="0.0,22.346000000000004 255.0,22.346000000000004" fill="none" stroke="#000000" stroke-width="0.40" />
<polyline points="0.0,27.346000000000004 255.0,27.346000000000004" fill="none" stroke="#000000" stroke-width="0.40" />
<polyline points="0.0,32.346000000000004 255.0,32.346000000000004" fill="none" stroke="#000000" stroke-width="0.40" />
<polyline points="0.0,37.346000000000004 255.0,37.346000000000004" fill="none" stroke="#000000" stroke-width="0.40" />
<polyline points="0.0,112.346 255.0,112.346" fill="none" stroke="#000000" stroke-width="0.40" />
<polyline points="0.0,117.346 255.0,117.346" fill="none" stroke="#000000" stroke-width="0.40" />
<polyline points="0.0,122.346 255.0,122.346" fill="none" stroke="#000000" stroke-width="0.40" />
<polyline points="0.0,127.346 255.0,127.346" fill="none" stroke="#000000" stroke-width="0.40" />
<polyline points="0.0,132.346 255.0,132.346" fill="none" stroke="#000000" stroke-width="0.40" />
<polyline points="0.0,164.846 255.0,164.846" fill="none" stroke="#000000" stroke-width="0.40" />
<polyline points="0.0,169.846 255.0,169.846" fill="none" stroke="#000000" stroke-width="0.40" />
<polyline points="0.0,174.846 255.0,174.846" fill="none" stroke="#000000" stroke-width="0.40" />
<polyline points="0.0,179.846 255.0,179.846" fill="none" stroke="#000000" stroke-width="0.40" />
<polyline points="0.0,184.846 255.0,184.846" fill="none" stroke="#000000" stroke-width="0.40" />
<polyline points="0.0,217.346 255.0,217.346" fill="none" stroke="#000000" stroke-width="0.40" />
<polyline points="0.0,222.346 255.0,222.346" fill="none" stroke="#000000" stroke-width="0.40" />
<polyline points="0.0,227.346 255.0,227.346" fill="none" stroke="#000000" stroke-width="0.40" />
<polyline points="0.0,232.346 255.0,232.346" fill="none" stroke="#000000" stroke-width="0.40" />
<polyline points="0.0,237.346 255.0,237.346" fill="none" stroke="#000000" stroke-width="0.40" />
<polyline points="207.73999999999978,217.346 207.73999999999978,237.346" fill="" stroke="#000000" stroke-width="0.80" />
<polyline points="207.73999999999978,164.846 207.73999999999978,184.846" fill="" stroke="#000000" stroke-width="0.80" />
<polyline points="207.73999999999978,112.346 207.73999999999978,132.346" fill="" stroke="#000000" stroke-width="0.80" />
<polyline points="239.35999999999967,17.346000000000004 239.35999999999967,37.346000000000004" fill="" stroke="#000000" stroke-width="0.80" />
<polyline points="220.35000000000036,131.471 213.89999999999964,135.471" fill="" stroke="#000000" stroke-width="0.65" />
<polyline points="221.35000000000036,108.971 214.89999999999964,112.971" fill="" stroke="#000000" stroke-width="0.65" />
<polyline points="47.220000000000255,141.471 40.77000000000044,145.471" fill="" stroke="#000000" stroke-width="0.65" />
<polyline points="50.92000000000007,118.971 44.470000000000255,122.971" fill="" stroke="#000000" stroke-width="0.65" />
<polyline points="244.52000000000044,138.286 244.52000000000044,173.596" fill="" stroke="#000000" stroke-width="0.65" />
<polyline points="244.52000000000044,115.786 244.52000000000044,131.096" fill="" stroke="#000000" stroke-width="0.65" />
<polyline points="235.1300000000001,241.40699999999998 235.1300000000001,206.096" fill="" stroke="#000000" stroke-width="0.65" />
<polyline points="216.30000000000018,141.68900000000002 216.30000000000018,127.471" fill="" stroke="#000000" stroke-width="0.65" />
<polyline points="229.19999999999982,138.286 229.19999999999982,173.596" fill="" stroke="#000000" stroke-width="0.65" />
<polyline points="217.30000000000018,119.18900000000002 217.30000000000018,104.971" fill="" stroke="#000000" stroke-width="0.65" />
<polyline points="229.19999999999982,115.786 229.19999999999982,131.096" fill="" stroke="#000000" stroke-width="0.65" />
<polyline points="198.15999999999985,243.90699999999998 198.15999999999985,207.346" fill="" stroke="#000000" stroke-width="0.65" />
<polyline points="176.77999999999975,255.786 176.77999999999975,255.0" fill="" stroke="#000000" stroke-width="0.65" />
<polyline points="182.71000000000004,243.90699999999998 182.71000000000004,207.346" fill="" stroke="#000000" stroke-width="0.65" />
<polyline points="176.77999999999975,145.786 176.77999999999975,173.596" fill="" stroke="#000000" stroke-width="0.65" />
<polyline points="176.77999999999975,123.286 176.77999999999975,137.346" fill="" stroke="#000000" stroke-width="0.65" />
<polyline points="151.82999999999993,243.90699999999998 151.82999999999993,207.346" fill="" stroke="#000000" stroke-width="0.65" />
<polyline points="145.89999999999964,145.786 145.89999999999964,173.596" fill="" stroke="#000000" stroke-width="0.65" />
<polyline points="145.89999999999964,123.286 145.89999999999964,137.346" fill="" stroke="#000000" stroke-width="0.65" />
<polyline points="119.84000000000015,243.90699999999998 119.84000000000015,207.971" fill="" stroke="#000000" stroke-width="0.65" />
<polyline points="113.90999999999985,143.286 113.90999999999985,173.596" fill="" stroke="#000000" stroke-width="0.65" />
<polyline points="113.90999999999985,120.786 113.90999999999985,137.346" fill="" stroke="#000000" stroke-width="0.65" />
<polyline points="83.02999999999975,145.786 83.02999999999975,173.596" fill="" stroke="#000000" stroke-width="0.65" />
<polyline points="83.02999999999975,123.286 83.02999999999975,137.346" fill="" stroke="#000000" stroke-width="0.65" />
<polyline points="43.17000000000007,151.68900000000002 43.17000000000007,137.471" fill="" stroke="#000000" stroke-width="0.65" />
<polyline points="52.14000000000033,150.786 52.14000000000033,174.846" fill="" stroke="#000000" stroke-width="0.65" />
<polyline points="46.86999999999989,129.18900000000002 46.86999999999989,114.971" fill="" stroke="#000000" stroke-width="0.65" />
<polyline points="58.07999999999993,126.40699999999998 58.07999999999993,110.471" fill="" stroke="#000000" stroke-width="0.65" />
<polyline points="248.39999999999964,16.910000000000025 248.39999999999964,49.846000000000004" fill="" stroke="#000000" stroke-width="0.65" />
<polyline points="221.77000000000044,25.786 221.77000000000044,51.096000000000004" fill="" stroke="#000000" stroke-width="0.65" />
<polyline points="204.0,16.910000000000025 204.0,51.096000000000004" fill="" stroke="#000000" stroke-width="0.65" />
<polyline points="157.6899999999996,16.910000000000025 157.6899999999996,51.096000000000004" fill="" stroke="#000000" stroke-width="0.65" />
<polyline points="122.9399999999996,16.910000000000025 122.9399999999996,51.096000000000004" fill="" stroke="#000000" stroke-width="0.65" />
<polyline points="104.90999999999985,25.786 104.90999999999985,46.64100000000002" fill="" stroke="#000000" stroke-width="0.65" />
<polyline points="87.53999999999996,16.910000000000025 87.53999999999996,42.346000000000004" fill="" stroke="#000000" stroke-width="0.65" />
<polyline points="70.15999999999985,25.786 70.15999999999985,41.096000000000004" fill="" stroke="#000000" stroke-width="0.65" />
<polyline points="52.789999999999964,16.910000000000025 52.789999999999964,41.096000000000004" fill="" stroke="#000000" stroke-width="0.65" />
<polyline points="18.039999999999964,16.910000000000025 18.039999999999964,41.096000000000004" fill="" stroke="#000000" stroke-width="0.65" />
<polyline points="242.6899999999996,139.846 252.27000000000044,139.846" fill="" stroke="#000000" stroke-width="0.80" />
<polyline points="242.6899999999996,144.846 252.27000000000044,144.846" fill="" stroke="#000000" stroke-width="0.80" />
<polyline points="242.6899999999996,149.846 252.27000000000044,149.846" fill="" stroke="#000000" stroke-width="0.80" />
<polyline points="242.6899999999996,154.846 252.27000000000044,154.846" fill="" stroke="#000000" stroke-width="0.80" />
<polyline points="242.6899999999996,159.846 252.27000000000044,159.846" fill="" stroke="#000000" stroke-width="0.80" />
<polyline points="227.3800000000001,242.346 236.96000000000004,242.346" fill="" stroke="#000000" stroke-width="0.80" />
<polyline points="210.51000000000022,144.846 218.1199999999999,144.846" fill="" stroke="#000000" stroke-width="0.56" />
<polyline points="210.51000000000022,149.846 218.1199999999999,149.846" fill="" stroke="#000000" stroke-width="0.56" />
<polyline points="210.51000000000022,154.846 218.1199999999999,154.846" fill="" stroke="#000000" stroke-width="0.56" />
<polyline points="210.51000000000022,159.846 218.1199999999999,159.846" fill="" stroke="#000000" stroke-width="0.56" />
<polyline points="227.3800000000001,139.846 236.96000000000004,139.846" fill="" stroke="#000000" stroke-width="0.80" />
<polyline points="227.3800000000001,144.846 236.96000000000004,144.846" fill="" stroke="#000000" stroke-width="0.80" />
<polyline points="227.3800000000001,149.846 236.96000000000004,149.846" fill="" stroke="#000000" stroke-width="0.80" />
<polyline points="227.3800000000001,154.846 236.96000000000004,154.846" fill="" stroke="#000000" stroke-width="0.80" />
<polyline points="227.3800000000001,159.846 236.96000000000004,159.846" fill="" stroke="#000000" stroke-width="0.80" />
<polyline points="190.39999999999964,242.346 199.97999999999956,242.346" fill="" stroke="#000000" stroke-width="0.80" />
<polyline points="174.96000000000004,254.846 184.53999999999996,254.846" fill="" stroke="#000000" stroke-width="0.80" />
<polyline points="174.96000000000004,242.346 184.53999999999996,242.346" fill="" stroke="#000000" stroke-width="0.80" />
<polyline points="174.96000000000004,144.846 184.53999999999996,144.846" fill="" stroke="#000000" stroke-width="0.80" />
<polyline points="174.96000000000004,149.846 184.53999999999996,149.846" fill="" stroke="#000000" stroke-width="0.80" />
<polyline points="174.96000000000004,154.846 184.53999999999996,154.846" fill="" stroke="#000000" stroke-width="0.80" />
<polyline points="174.96000000000004,159.846 184.53999999999996,159.846" fill="" stroke="#000000" stroke-width="0.80" />
<polyline points="144.0699999999997,242.346 153.64999999999964,242.346" fill="" stroke="#000000" stroke-width="0.80" />
<polyline points="144.0699999999997,144.846 153.64999999999964,144.846" fill="" stroke="#000000" stroke-width="0.80" />
<polyline points="144.0699999999997,149.846 153.64999999999964,149.846" fill="" stroke="#000000" stroke-width="0.80" />
<polyline points="144.0699999999997,154.846 153.64999999999964,154.846" fill="" stroke="#000000" stroke-width="0.80" />
<polyline points="144.0699999999997,159.846 153.64999999999964,159.846" fill="" stroke="#000000" stroke-width="0.80" />
<polyline points="112.09000000000015,242.346 121.67000000000007,242.346" fill="" stroke="#000000" stroke-width="0.80" />
<polyline points="112.09000000000015,144.846 121.67000000000007,144.846" fill="" stroke="#000000" stroke-width="0.80" />
<polyline points="112.09000000000015,149.846 121.67000000000007,149.846" fill="" stroke="#000000" stroke-width="0.80" />
<polyline points="112.09000000000015,154.846 121.67000000000007,154.846" fill="" stroke="#000000" stroke-width="0.80" />
<polyline points="112.09000000000015,159.846 121.67000000000007,159.846" fill="" stroke="#000000" stroke-width="0.80" />
<polyline points="81.19999999999982,144.846 90.78999999999996,144.846" fill="" stroke="#000000" stroke-width="0.80" />
<polyline points="81.19999999999982,149.846 90.78999999999996,149.846" fill="" stroke="#000000" stroke-width="0.80" />
<polyline points="81.19999999999982,154.846 90.78999999999996,154.846" fill="" stroke="#000000" stroke-width="0.80" />
<polyline points="81.19999999999982,159.846 90.78999999999996,159.846" fill="" stroke="#000000" stroke-width="0.80" />
<polyline points="37.39000000000033,154.846 45.0,154.846" fill="" stroke="#000000" stroke-width="0.56" />
<polyline points="37.39000000000033,159.846 45.0,159.846" fill="" stroke="#000000" stroke-width="0.56" />
<polyline points="50.31999999999971,149.846 59.899999999999636,149.846" fill="" stroke="#000000" stroke-width="0.80" />
<polyline points="50.31999999999971,154.846 59.899999999999636,154.846" fill="" stroke="#000000" stroke-width="0.80" />
<polyline points="50.31999999999971,159.846 59.899999999999636,159.846" fill="" stroke="#000000" stroke-width="0.80" />
</svg>
