<?xml version="1.0" encoding="UTF-8" standalone="yes"?>
<svg width="256.0px" height="256.0px" xmlns="http://www.w3.org/2000/svg" xmlns:xlink="http://www.w3.org/1999/xlink" version="1.2" baseProfile="tiny">
<polyline points="0.0,13.846000000000004 209.1300000000001,13.846000000000004" fill="none" stroke="#000000" stroke-width="0.40" />
<polyline points="0.0,18.846000000000004 209.1300000000001,18.846000000000004" fill="none" stroke="#000000" stroke-width="0.40" />
<polyline points="0.0,23.846000000000004 209.1300000000001,23.846000000000004" fill="none" stroke="#000000" stroke-width="0.40" />
<polyline points="0.0,28.846000000000004 209.1300000000001,28.846000000000004" fill="none" stroke="#000000" stroke-width="0.40" />
<polyline points="0.0,33.846000000000004 209.1300000000001,33.846000000000004" fill="none" stroke="#000000" stroke-width="0.40" />
<polyline points="0.0,66.346 209.1300000000001,66.346" fill="none" stroke="#000000" stroke-width="0.40" />
<polyline points="0.0,71.346 209.1300000000001,71.346" fill="none" stroke="#000000" stroke-width="0.40" />
<polyline points="0.0,76.346 209.1300000000001,76.346" fill="none" stroke="#000000" stroke-width="0.40" />
<polyline points="0.0,81.346 209.1300000000001,81.346" fill="none" stroke="#000000" stroke-width="0.40" />
<polyline points="0.0,86.346 209.1300000000001,86.346" fill="none" stroke="#000000" stroke-width="0.40" />
<polyline points="208.72999999999956,66.346 208.72999999999956,86.346" fill="" stroke="#000000" stroke-width="0.80" />
<polyline points="208.72999999999956,13.846000000000004 208.72999999999956,33.846000000000004" fill="" stroke="#000000" stroke-width="0.80" />
<polyline points="191.39000000000033,74.78599999999994 191.39000000000033,90.096" fill="" stroke="#000000" stroke-width="0.65" />
<polyline points="174.10999999999967,65.90999999999997 174.10999999999967,90.096" fill="" stroke="#000000" stroke-width="0.65" />
<polyline points="180.05000000000018,27.90700000000004 180.05000000000018,13.846000000000004" fill="" stroke="#000000" stroke-width="0.65" />
<polyline points="162.77000000000044,37.90700000000004 162.77000000000044,18.846000000000004" fill="" stroke="#000000" stroke-width="0.65" />
<polyline points="139.5699999999997,65.90999999999997 139.5699999999997,90.096" fill="" stroke="#000000" stroke-width="0.65" />
<polyline points="116.98999999999978,65.90999999999997 116.98999999999978,98.846" fill="" stroke="#000000" stroke-width="0.65" />
<polyline points="122.92000000000007,27.90700000000004 122.92000000000007,13.846000000000004" fill="" stroke="#000000" stroke-width="0.65" />
<polyline points="94.39999999999964,65.90999999999997 94.39999999999964,98.846" fill="" stroke="#000000" stroke-width="0.65" />
<polyline points="100.32999999999993,27.90700000000004 100.32999999999993,13.846000000000004" fill="" stroke="#000000" stroke-width="0.65" />
<polyline points="71.81999999999971,65.90999999999997 71.81999999999971,91.346" fill="" stroke="#000000" stroke-width="0.65" />
<polyline points="77.75,25.40700000000004 77.75,10.096000000000004" fill="" stroke="#000000" stroke-width="0.65" />
<polyline points="53.43000000000029,37.90700000000004 53.43000000000029,13.846000000000004" fill="" stroke="#000000" stroke-width="0.65" />
<polyline points="24.449999999999818,65.90999999999997 24.449999999999818,95.82600000000002" fill="" stroke="#000000" stroke-width="0.65" />
<polyline points="1.8599999999996726,65.90999999999997 1.8599999999996726,97.96100000000001" fill="" stroke="#000000" stroke-width="0.65" />
<polyline points="7.800000000000182,25.40700000000004 7.800000000000182,12.596000000000004" fill="" stroke="#000000" stroke-width="0.65" />
<polyline points="155.02000000000044,38.846000000000004 164.60000000000036,38.846000000000004" fill="" stroke="#000000" stroke-width="0.80" />
<polyline points="45.67000000000007,38.846000000000004 55.25,38.846000000000004" fill="" stroke="#000000" stroke-width="0.80" />
</svg>
