<?xml version="1.0" encoding="UTF-8" standalone="yes"?>
<svg width="256.0px" height="256.0px" xmlns="http://www.w3.org/2000/svg" xmlns:xlink="http://www.w3.org/1999/xlink" version="1.2" baseProfile="tiny">
<polyline points="0.0,63.3465 255.0,63.3465" fill="none" stroke="#000000" stroke-width="0.40" />
<polyline points="0.0,68.3465 255.0,68.3465" fill="none" stroke="#000000" stroke-width="0.40" />
<polyline points="0.0,73.3465 255.0,73.3465" fill="none" stroke="#000000" stroke-width="0.40" />
<polyline points="0.0,78.3465 255.0,78.3465" fill="none" stroke="#000000" stroke-width="0.40" />
<polyline points="0.0,83.3465 255.0,83.3465" fill="none" stroke="#000000" stroke-width="0.40" />
<polyline points="0.0,115.846 255.0,115.846" fill="none" stroke="#000000" stroke-width="0.40" />
<polyline points="0.0,120.846 255.0,120.846" fill="none" stroke="#000000" stroke-width="0.40" />
<polyline points="0.0,125.846 255.0,125.846" fill="none" stroke="#000000" stroke-width="0.40" />
<polyline points="0.0,130.846 255.0,130.846" fill="none" stroke="#000000" stroke-width="0.40" />
<polyline points="0.0,135.846 255.0,135.846" fill="none" stroke="#000000" stroke-width="0.40" />
<polyline points="0.0,168.346 255.0,168.346" fill="none" stroke="#000000" stroke-width="0.40" />
<polyline points="0.0,173.346 255.0,173.346" fill="none" stroke="#000000" stroke-width="0.40" />
<polyline points="0.0,178.346 255.0,178.346" fill="none" stroke="#000000" stroke-width="0.40" />
<polyline points="0.0,183.346 255.0,183.346" fill="none" stroke="#000000" stroke-width="0.40" />
<polyline points="0.0,188.346 255.0,188.346" fill="none" stroke="#000000" stroke-width="0.40" />
<polyline points="0.0,220.846 255.0,220.846" fill="none" stroke="#000000" stroke-width="0.40" />
<polyline points="0.0,225.846 255.0,225.846" fill="none" stroke="#000000" stroke-width="0.40" />
<polyline points="0.0,230.846 255.0,230.846" fill="none" stroke="#000000" stroke-width="0.40" />
<polyline points="0.0,235.846 255.0,235.846" fill="none" stroke="#000000" stroke-width="0.40" />
<polyline points="0.0,240.846 255.0,240.846" fill="none" stroke="#000000" stroke-width="0.40" />
<polyline points="144.09000000000015,220.846 144.09000000000015,240.846" fill="" stroke="#000000" stroke-width="0.80" />
<polyline points="144.09000000000015,168.346 144.09000000000015,188.346" fill="" stroke="#000000" stroke-width="0.80" />
<polyline points="144.09000000000015,115.846 144.09000000000015,135.846" fill="" stroke="#000000" stroke-width="0.80" />
<polyline points="144.09000000000015,63.3465 144.09000000000015,83.3465" fill="" stroke="#000000" stroke-width="0.80" />
<polyline points="253.77000000000044,244.907 253.77000000000044,220.846" fill="" stroke="#000000" stroke-width="0.65" />
<polyline points="211.3199999999997,232.407 211.3199999999997,217.096" fill="" stroke="#000000" stroke-width="0.65" />
<polyline points="205.3800000000001,89.2855 205.3800000000001,125.846" fill="" stroke="#000000" stroke-width="0.65" />
<polyline points="205.3800000000001,66.7855 205.3800000000001,92.7215" fill="" stroke="#000000" stroke-width="0.65" />
<polyline points="159.0600000000004,232.407 159.0600000000004,217.096" fill="" stroke="#000000" stroke-width="0.65" />
<polyline points="159.23999999999978,192.578 159.23999999999978,157.096" fill="" stroke="#000000" stroke-width="0.65" />
<polyline points="153.1300000000001,111.786 153.1300000000001,128.346" fill="" stroke="#000000" stroke-width="0.65" />
<polyline points="159.0600000000004,87.4074 159.0600000000004,70.8465" fill="" stroke="#000000" stroke-width="0.65" />
<polyline points="113.0,104.286 113.0,134.596" fill="" stroke="#000000" stroke-width="0.65" />
<polyline points="113.0,81.7855 113.0,99.5965" fill="" stroke="#000000" stroke-width="0.65" />
<polyline points="97.67000000000007,224.286 97.67000000000007,239.596" fill="" stroke="#000000" stroke-width="0.65" />
<polyline points="103.60000000000036,198.862 103.60000000000036,160.846" fill="" stroke="#000000" stroke-width="0.65" />
<polyline points="97.67000000000007,101.786 97.67000000000007,133.164" fill="" stroke="#000000" stroke-width="0.65" />
<polyline points="97.67000000000007,79.2855 97.67000000000007,98.1635" fill="" stroke="#000000" stroke-width="0.65" />
<polyline points="78.59000000000015,219.286 78.59000000000015,237.096" fill="" stroke="#000000" stroke-width="0.65" />
<polyline points="59.5,216.786 59.5,234.596" fill="" stroke="#000000" stroke-width="0.65" />
<polyline points="65.43000000000029,194.907 65.43000000000029,158.346" fill="" stroke="#000000" stroke-width="0.65" />
<polyline points="59.5,89.2855 59.5,129.596" fill="" stroke="#000000" stroke-width="0.65" />
<polyline points="59.5,66.7855 59.5,94.5965" fill="" stroke="#000000" stroke-width="0.65" />
<polyline points="40.42000000000007,219.286 40.42000000000007,234.596" fill="" stroke="#000000" stroke-width="0.65" />
<polyline points="46.350000000000364,194.907 46.350000000000364,158.346" fill="" stroke="#000000" stroke-width="0.65" />
<polyline points="40.42000000000007,101.786 40.42000000000007,124.596" fill="" stroke="#000000" stroke-width="0.65" />
<polyline points="46.350000000000364,77.4074 46.350000000000364,59.5965" fill="" stroke="#000000" stroke-width="0.65" />
<polyline points="21.329999999999927,216.786 21.329999999999927,232.491" fill="" stroke="#000000" stroke-width="0.65" />
<polyline points="27.270000000000437,194.907 27.270000000000437,158.346" fill="" stroke="#000000" stroke-width="0.65" />
<polyline points="21.329999999999927,104.286 21.329999999999927,124.596" fill="" stroke="#000000" stroke-width="0.65" />
<polyline points="27.270000000000437,79.9074 27.270000000000437,57.4912" fill="" stroke="#000000" stroke-width="0.65" />
<polyline points="1.0299999999997453,198.862 1.0299999999997453,158.346" fill="" stroke="#000000" stroke-width="0.65" />
<polyline points="1.0299999999997453,69.9074 1.0299999999997453,54.5965" fill="" stroke="#000000" stroke-width="0.65" />
<polyline points="246.01000000000022,245.846 255.60000000000036,245.846" fill="" stroke="#000000" stroke-width="0.80" />
<polyline points="203.5600000000004,90.8465 213.14000000000033,90.8465" fill="" stroke="#000000" stroke-width="0.80" />
<polyline points="203.5600000000004,95.8465 213.14000000000033,95.8465" fill="" stroke="#000000" stroke-width="0.80" />
<polyline points="203.5600000000004,100.846 213.14000000000033,100.846" fill="" stroke="#000000" stroke-width="0.80" />
<polyline points="203.5600000000004,105.846 213.14000000000033,105.846" fill="" stroke="#000000" stroke-width="0.80" />
<polyline points="203.5600000000004,110.846 213.14000000000033,110.846" fill="" stroke="#000000" stroke-width="0.80" />
<polyline points="151.1199999999999,193.346 161.0699999999997,193.346" fill="" stroke="#000000" stroke-width="0.80" />
<polyline points="151.30000000000018,110.846 160.89000000000033,110.846" fill="" stroke="#000000" stroke-width="0.80" />
<polyline points="151.30000000000018,88.3465 160.89000000000033,88.3465" fill="" stroke="#000000" stroke-width="0.80" />
<polyline points="111.18000000000029,105.846 120.76000000000022,105.846" fill="" stroke="#000000" stroke-width="0.80" />
<polyline points="111.18000000000029,110.846 120.76000000000022,110.846" fill="" stroke="#000000" stroke-width="0.80" />
<polyline points="95.84000000000015,193.346 105.43000000000029,193.346" fill="" stroke="#000000" stroke-width="0.80" />
<polyline points="95.84000000000015,198.346 105.43000000000029,198.346" fill="" stroke="#000000" stroke-width="0.80" />
<polyline points="95.84000000000015,100.846 105.43000000000029,100.846" fill="" stroke="#000000" stroke-width="0.80" />
<polyline points="95.84000000000015,105.846 105.43000000000029,105.846" fill="" stroke="#000000" stroke-width="0.80" />
<polyline points="95.84000000000015,110.846 105.43000000000029,110.846" fill="" stroke="#000000" stroke-width="0.80" />
<polyline points="57.68000000000029,215.846 67.26000000000022,215.846" fill="" stroke="#000000" stroke-width="0.80" />
<polyline points="57.68000000000029,193.346 67.26000000000022,193.346" fill="" stroke="#000000" stroke-width="0.80" />
<polyline points="57.68000000000029,90.8465 67.26000000000022,90.8465" fill="" stroke="#000000" stroke-width="0.80" />
<polyline points="57.68000000000029,95.8465 67.26000000000022,95.8465" fill="" stroke="#000000" stroke-width="0.80" />
<polyline points="57.68000000000029,100.846 67.26000000000022,100.846" fill="" stroke="#000000" stroke-width="0.80" />
<polyline points="57.68000000000029,105.846 67.26000000000022,105.846" fill="" stroke="#000000" stroke-width="0.80" />
<polyline points="57.68000000000029,110.846 67.26000000000022,110.846" fill="" stroke="#000000" stroke-width="0.80" />
<polyline points="38.590000000000146,193.346 48.17000000000007,193.346" fill="" stroke="#000000" stroke-width="0.80" />
<polyline points="38.590000000000146,100.846 48.17000000000007,100.846" fill="" stroke="#000000" stroke-width="0.80" />
<polyline points="38.590000000000146,105.846 48.17000000000007,105.846" fill="" stroke="#000000" stroke-width="0.80" />
<polyline points="38.590000000000146,110.846 48.17000000000007,110.846" fill="" stroke="#000000" stroke-width="0.80" />
<polyline points="19.51000000000022,215.846 29.090000000000146,215.846" fill="" stroke="#000000" stroke-width="0.80" />
<polyline points="19.51000000000022,193.346 29.090000000000146,193.346" fill="" stroke="#000000" stroke-width="0.80" />
<polyline points="19.51000000000022,105.846 29.090000000000146,105.846" fill="" stroke="#000000" stroke-width="0.80" />
<polyline points="19.51000000000022,110.846 29.090000000000146,110.846" fill="" stroke="#000000" stroke-width="0.80" />
<polyline points="0.0,210.846 2.850000000000364,210.846" fill="" stroke="#000000" stroke-width="0.80" />
<polyline points="0.0,215.846 2.850000000000364,215.846" fill="" stroke="#000000" stroke-width="0.80" />
<polyline points="0.0,193.346 2.850000000000364,193.346" fill="" stroke="#000000" stroke-width="0.80" />
<polyline points="0.0,198.346 2.850000000000364,198.346" fill="" stroke="#000000" stroke-width="0.80" />
<polyline points="0.0,95.8465 2.850000000000364,95.8465" fill="" stroke="#000000" stroke-width="0.80" />
<polyline points="0.0,100.846 2.850000000000364,100.846" fill="" stroke="#000000" stroke-width="0.80" />
<polyline points="0.0,105.846 2.850000000000364,105.846" fill="" stroke="#000000" stroke-width="0.80" />
<polyline points="0.0,110.846 2.850000000000364,110.846" fill="" stroke="#000000" stroke-width="0.80" />
<polyline points="105.18000000000029,79.0869 111.51000000000022,79.0869" fill="" stroke="#000000" stroke-width="0.75" />
</svg>
