<?xml version="1.0" encoding="UTF-8" standalone="yes"?>
<svg width="256.0px" height="256.0px" xmlns="http://www.w3.org/2000/svg" xmlns:xlink="http://www.w3.org/1999/xlink" version="1.2" baseProfile="tiny">
<polyline points="0.0,13.846000000000004 202.96000000000004,13.846000000000004" fill="none" stroke="#000000" stroke-width="0.40" />
<polyline points="0.0,18.846000000000004 202.96000000000004,18.846000000000004" fill="none" stroke="#000000" stroke-width="0.40" />
<polyline points="0.0,23.846000000000004 202.96000000000004,23.846000000000004" fill="none" stroke="#000000" stroke-width="0.40" />
<polyline points="0.0,28.846000000000004 202.96000000000004,28.846000000000004" fill="none" stroke="#000000" stroke-width="0.40" />
<polyline points="0.0,33.846000000000004 202.96000000000004,33.846000000000004" fill="none" stroke="#000000" stroke-width="0.40" />
<polyline points="0.0,66.346 202.96000000000004,66.346" fill="none" stroke="#000000" stroke-width="0.40" />
<polyline points="0.0,71.346 202.96000000000004,71.346" fill="none" stroke="#000000" stroke-width="0.40" />
<polyline points="0.0,76.346 202.96000000000004,76.346" fill="none" stroke="#000000" stroke-width="0.40" />
<polyline points="0.0,81.346 202.96000000000004,81.346" fill="none" stroke="#000000" stroke-width="0.40" />
<polyline points="0.0,86.346 202.96000000000004,86.346" fill="none" stroke="#000000" stroke-width="0.40" />
<polyline points="202.5600000000004,66.346 202.5600000000004,86.346" fill="" stroke="#000000" stroke-width="0.80" />
<polyline points="202.5600000000004,13.846000000000004 202.5600000000004,33.846000000000004" fill="" stroke="#000000" stroke-width="0.80" />
<polyline points="187.17000000000007,74.78599999999994 187.17000000000007,90.096" fill="" stroke="#000000" stroke-width="0.65" />
<polyline points="171.46000000000004,65.90999999999997 171.46000000000004,90.096" fill="" stroke="#000000" stroke-width="0.65" />
<polyline points="171.85999999999967,19.785999999999945 171.85999999999967,33.846000000000004" fill="" stroke="#000000" stroke-width="0.65" />
<polyline points="156.53999999999996,19.785999999999945 156.53999999999996,33.846000000000004" fill="" stroke="#000000" stroke-width="0.65" />
<polyline points="140.82999999999993,65.90999999999997 140.82999999999993,90.096" fill="" stroke="#000000" stroke-width="0.65" />
<polyline points="141.22999999999956,12.285999999999945 141.22999999999956,33.846000000000004" fill="" stroke="#000000" stroke-width="0.65" />
<polyline points="125.90999999999985,19.785999999999945 125.90999999999985,33.846000000000004" fill="" stroke="#000000" stroke-width="0.65" />
<polyline points="110.19999999999982,65.90999999999997 110.19999999999982,98.846" fill="" stroke="#000000" stroke-width="0.65" />
<polyline points="110.60000000000036,19.785999999999945 110.60000000000036,33.846000000000004" fill="" stroke="#000000" stroke-width="0.65" />
<polyline points="76.1899999999996,65.90999999999997 76.1899999999996,98.846" fill="" stroke="#000000" stroke-width="0.65" />
<polyline points="76.59000000000015,12.285999999999945 76.59000000000015,33.846000000000004" fill="" stroke="#000000" stroke-width="0.65" />
<polyline points="61.26000000000022,74.78599999999994 61.26000000000022,90.096" fill="" stroke="#000000" stroke-width="0.65" />
<polyline points="45.9399999999996,17.285999999999945 45.9399999999996,42.596000000000004" fill="" stroke="#000000" stroke-width="0.65" />
<polyline points="24.48999999999978,65.90999999999997 24.48999999999978,90.096" fill="" stroke="#000000" stroke-width="0.65" />
<polyline points="24.890000000000327,27.285999999999945 24.890000000000327,42.596000000000004" fill="" stroke="#000000" stroke-width="0.65" />
<polyline points="3.430000000000291,65.90999999999997 3.430000000000291,98.846" fill="" stroke="#000000" stroke-width="0.65" />
<polyline points="3.8299999999999272,17.285999999999945 3.8299999999999272,42.596000000000004" fill="" stroke="#000000" stroke-width="0.65" />
</svg>
