<?xml version="1.0" encoding="UTF-8" standalone="yes"?>
<svg width="256.0px" height="256.0px" xmlns="http://www.w3.org/2000/svg" xmlns:xlink="http://www.w3.org/1999/xlink" version="1.2" baseProfile="tiny">
<polyline points="0.0,13.846000000000004 36.409999999999854,13.846000000000004" fill="none" stroke="#000000" stroke-width="0.40" />
<polyline points="0.0,18.846000000000004 36.409999999999854,18.846000000000004" fill="none" stroke="#000000" stroke-width="0.40" />
<polyline points="0.0,23.846000000000004 36.409999999999854,23.846000000000004" fill="none" stroke="#000000" stroke-width="0.40" />
<polyline points="0.0,28.846000000000004 36.409999999999854,28.846000000000004" fill="none" stroke="#000000" stroke-width="0.40" />
<polyline points="0.0,33.846000000000004 36.409999999999854,33.846000000000004" fill="none" stroke="#000000" stroke-width="0.40" />
<polyline points="0.0,66.346 36.409999999999854,66.346" fill="none" stroke="#000000" stroke-width="0.40" />
<polyline points="0.0,71.346 36.409999999999854,71.346" fill="none" stroke="#000000" stroke-width="0.40" />
<polyline points="0.0,76.346 36.409999999999854,76.346" fill="none" stroke="#000000" stroke-width="0.40" />
<polyline points="0.0,81.346 36.409999999999854,81.346" fill="none" stroke="#000000" stroke-width="0.40" />
<polyline points="0.0,86.346 36.409999999999854,86.346" fill="none" stroke="#000000" stroke-width="0.40" />
<polyline points="36.01000000000022,66.346 36.01000000000022,86.346" fill="" stroke="#000000" stroke-width="0.80" />
<polyline points="36.01000000000022,13.846000000000004 36.01000000000022,33.846000000000004" fill="" stroke="#000000" stroke-width="0.80" />
<polyline points="19.100000000000364,29.785999999999945 19.100000000000364,43.846000000000004" fill="" stroke="#000000" stroke-width="0.65" />
<polyline points="2.2700000000004366,65.90999999999997 2.2700000000004366,97.596" fill="" stroke="#000000" stroke-width="0.65" />
<polyline points="2.2700000000004366,12.285999999999945 2.2700000000004366,43.846000000000004" fill="" stroke="#000000" stroke-width="0.65" />
<polyline points="93.10000000000036,13.846000000000004 255.0,13.846000000000004" fill="none" stroke="#000000" stroke-width="0.40" />
<polyline points="93.10000000000036,18.846000000000004 255.0,18.846000000000004" fill="none" stroke="#000000" stroke-width="0.40" />
<polyline points="93.10000000000036,23.846000000000004 255.0,23.846000000000004" fill="none" stroke="#000000" stroke-width="0.40" />
<polyline points="93.10000000000036,28.846000000000004 255.0,28.846000000000004" fill="none" stroke="#000000" stroke-width="0.40" />
<polyline points="93.10000000000036,33.846000000000004 255.0,33.846000000000004" fill="none" stroke="#000000" stroke-width="0.40" />
<polyline points="93.10000000000036,66.346 255.0,66.346" fill="none" stroke="#000000" stroke-width="0.40" />
<polyline points="93.10000000000036,71.346 255.0,71.346" fill="none" stroke="#000000" stroke-width="0.40" />
<polyline points="93.10000000000036,76.346 255.0,76.346" fill="none" stroke="#000000" stroke-width="0.40" />
<polyline points="93.10000000000036,81.346 255.0,81.346" fill="none" stroke="#000000" stroke-width="0.40" />
<polyline points="93.10000000000036,86.346 255.0,86.346" fill="none" stroke="#000000" stroke-width="0.40" />
<polyline points="93.5,0.0 93.5,86.346" fill="" stroke="#000000" stroke-width="0.80" />
<polyline points="249.77000000000044,74.78599999999994 249.77000000000044,90.096" fill="" stroke="#000000" stroke-width="0.65" />
<polyline points="255.69999999999982,36.861999999999966 255.69999999999982,23.846000000000004" fill="" stroke="#000000" stroke-width="0.65" />
<polyline points="228.75,65.90999999999997 228.75,90.096" fill="" stroke="#000000" stroke-width="0.65" />
<polyline points="199.3800000000001,65.90999999999997 199.3800000000001,90.096" fill="" stroke="#000000" stroke-width="0.65" />
<polyline points="205.3199999999997,32.90700000000004 205.3199999999997,18.846000000000004" fill="" stroke="#000000" stroke-width="0.65" />
<polyline points="162.67000000000007,65.90999999999997 162.67000000000007,98.846" fill="" stroke="#000000" stroke-width="0.65" />
<polyline points="133.30000000000018,65.90999999999997 133.30000000000018,98.846" fill="" stroke="#000000" stroke-width="0.65" />
<polyline points="139.22999999999956,32.90700000000004 139.22999999999956,16.346000000000004" fill="" stroke="#000000" stroke-width="0.65" />
<polyline points="247.9399999999996,38.846000000000004 255.0,38.846000000000004" fill="" stroke="#000000" stroke-width="0.80" />
</svg>
