<?xml version="1.0" encoding="UTF-8" standalone="yes"?>
<svg width="256.0px" height="256.0px" xmlns="http://www.w3.org/2000/svg" xmlns:xlink="http://www.w3.org/1999/xlink" version="1.2" baseProfile="tiny">
<polyline points="0.0,17.346000000000004 119.6899999999996,17.346000000000004" fill="none" stroke="#000000" stroke-width="0.40" />
<polyline points="0.0,22.346000000000004 119.6899999999996,22.346000000000004" fill="none" stroke="#000000" stroke-width="0.40" />
<polyline points="0.0,27.346000000000004 119.6899999999996,27.346000000000004" fill="none" stroke="#000000" stroke-width="0.40" />
<polyline points="0.0,32.346000000000004 119.6899999999996,32.346000000000004" fill="none" stroke="#000000" stroke-width="0.40" />
<polyline points="0.0,37.346000000000004 119.6899999999996,37.346000000000004" fill="none" stroke="#000000" stroke-width="0.40" />
<polyline points="0.0,112.346 119.6899999999996,112.346" fill="none" stroke="#000000" stroke-width="0.40" />
<polyline points="0.0,117.346 119.6899999999996,117.346" fill="none" stroke="#000000" stroke-width="0.40" />
<polyline points="0.0,122.346 119.6899999999996,122.346" fill="none" stroke="#000000" stroke-width="0.40" />
<polyline points="0.0,127.346 119.6899999999996,127.346" fill="none" stroke="#000000" stroke-width="0.40" />
<polyline points="0.0,132.346 119.6899999999996,132.346" fill="none" stroke="#000000" stroke-width="0.40" />
<polyline points="0.0,164.846 119.6899999999996,164.846" fill="none" stroke="#000000" stroke-width="0.40" />
<polyline points="0.0,169.846 119.6899999999996,169.846" fill="none" stroke="#000000" stroke-width="0.40" />
<polyline points="0.0,174.846 119.6899999999996,174.846" fill="none" stroke="#000000" stroke-width="0.40" />
<polyline points="0.0,179.846 119.6899999999996,179.846" fill="none" stroke="#000000" stroke-width="0.40" />
<polyline points="0.0,184.846 119.6899999999996,184.846" fill="none" stroke="#000000" stroke-width="0.40" />
<polyline points="0.0,217.346 119.6899999999996,217.346" fill="none" stroke="#000000" stroke-width="0.40" />
<polyline points="0.0,222.346 119.6899999999996,222.346" fill="none" stroke="#000000" stroke-width="0.40" />
<polyline points="0.0,227.346 119.6899999999996,227.346" fill="none" stroke="#000000" stroke-width="0.40" />
<polyline points="0.0,232.346 119.6899999999996,232.346" fill="none" stroke="#000000" stroke-width="0.40" />
<polyline points="0.0,237.346 119.6899999999996,237.346" fill="none" stroke="#000000" stroke-width="0.40" />
<polyline points="119.28999999999996,217.346 119.28999999999996,237.346" fill="" stroke="#000000" stroke-width="0.80" />
<polyline points="119.28999999999996,164.846 119.28999999999996,184.846" fill="" stroke="#000000" stroke-width="0.80" />
<polyline points="119.28999999999996,112.346 119.28999999999996,132.346" fill="" stroke="#000000" stroke-width="0.80" />
<polyline points="119.28999999999996,17.346000000000004 119.28999999999996,37.346000000000004" fill="" stroke="#000000" stroke-width="0.80" />
<polyline points="94.43000000000029,155.786 94.43000000000029,174.846" fill="" stroke="#000000" stroke-width="0.65" />
<polyline points="100.35999999999967,131.40699999999998 100.35999999999967,112.346" fill="" stroke="#000000" stroke-width="0.65" />
<polyline points="63.44999999999982,145.786 63.44999999999982,173.596" fill="" stroke="#000000" stroke-width="0.65" />
<polyline points="69.38000000000011,121.40699999999998 69.38000000000011,107.346" fill="" stroke="#000000" stroke-width="0.65" />
<polyline points="19.98999999999978,244.07799999999997 19.98999999999978,207.971" fill="" stroke="#000000" stroke-width="0.65" />
<polyline points="13.88000000000011,140.786 13.88000000000011,174.846" fill="" stroke="#000000" stroke-width="0.65" />
<polyline points="13.88000000000011,118.286 13.88000000000011,134.221" fill="" stroke="#000000" stroke-width="0.65" />
<polyline points="93.07999999999993,16.910000000000025 93.07999999999993,48.596000000000004" fill="" stroke="#000000" stroke-width="0.65" />
<polyline points="60.42000000000007,16.910000000000025 60.42000000000007,48.596000000000004" fill="" stroke="#000000" stroke-width="0.65" />
<polyline points="34.30000000000018,16.910000000000025 34.30000000000018,48.596000000000004" fill="" stroke="#000000" stroke-width="0.65" />
<polyline points="8.170000000000073,16.910000000000025 8.170000000000073,48.596000000000004" fill="" stroke="#000000" stroke-width="0.65" />
<polyline points="92.60000000000036,154.846 102.18000000000029,154.846" fill="" stroke="#000000" stroke-width="0.80" />
<polyline points="92.60000000000036,159.846 102.18000000000029,159.846" fill="" stroke="#000000" stroke-width="0.80" />
<polyline points="61.61999999999989,144.846 71.19999999999982,144.846" fill="" stroke="#000000" stroke-width="0.80" />
<polyline points="61.61999999999989,149.846 71.19999999999982,149.846" fill="" stroke="#000000" stroke-width="0.80" />
<polyline points="61.61999999999989,154.846 71.19999999999982,154.846" fill="" stroke="#000000" stroke-width="0.80" />
<polyline points="61.61999999999989,159.846 71.19999999999982,159.846" fill="" stroke="#000000" stroke-width="0.80" />
<polyline points="11.86999999999989,242.346 21.81999999999971,242.346" fill="" stroke="#000000" stroke-width="0.80" />
<polyline points="12.050000000000182,139.846 21.640000000000327,139.846" fill="" stroke="#000000" stroke-width="0.80" />
<polyline points="12.050000000000182,144.846 21.640000000000327,144.846" fill="" stroke="#000000" stroke-width="0.80" />
<polyline points="12.050000000000182,149.846 21.640000000000327,149.846" fill="" stroke="#000000" stroke-width="0.80" />
<polyline points="12.050000000000182,154.846 21.640000000000327,154.846" fill="" stroke="#000000" stroke-width="0.80" />
<polyline points="12.050000000000182,159.846 21.640000000000327,159.846" fill="" stroke="#000000" stroke-width="0.80" />
<polyline points="176.3800000000001,17.346000000000004 255.0,17.346000000000004" fill="none" stroke="#000000" stroke-width="0.40" />
<polyline points="176.3800000000001,22.346000000000004 255.0,22.346000000000004" fill="none" stroke="#000000" stroke-width="0.40" />
<polyline points="176.3800000000001,27.346000000000004 255.0,27.346000000000004" fill="none" stroke="#000000" stroke-width="0.40" />
<polyline points="176.3800000000001,32.346000000000004 255.0,32.346000000000004" fill="none" stroke="#000000" stroke-width="0.40" />
<polyline points="176.3800000000001,37.346000000000004 255.0,37.346000000000004" fill="none" stroke="#000000" stroke-width="0.40" />
<polyline points="176.3800000000001,112.346 255.0,112.346" fill="none" stroke="#000000" stroke-width="0.40" />
<polyline points="176.3800000000001,117.346 255.0,117.346" fill="none" stroke="#000000" stroke-width="0.40" />
<polyline points="176.3800000000001,122.346 255.0,122.346" fill="none" stroke="#000000" stroke-width="0.40" />
<polyline points="176.3800000000001,127.346 255.0,127.346" fill="none" stroke="#000000" stroke-width="0.40" />
<polyline points="176.3800000000001,132.346 255.0,132.346" fill="none" stroke="#000000" stroke-width="0.40" />
<polyline points="176.3800000000001,164.846 255.0,164.846" fill="none" stroke="#000000" stroke-width="0.40" />
<polyline points="176.3800000000001,169.846 255.0,169.846" fill="none" stroke="#000000" stroke-width="0.40" />
<polyline points="176.3800000000001,174.846 255.0,174.846" fill="none" stroke="#000000" stroke-width="0.40" />
<polyline points="176.3800000000001,179.846 255.0,179.846" fill="none" stroke="#000000" stroke-width="0.40" />
<polyline points="176.3800000000001,184.846 255.0,184.846" fill="none" stroke="#000000" stroke-width="0.40" />
<polyline points="176.3800000000001,217.346 255.0,217.346" fill="none" stroke="#000000" stroke-width="0.40" />
<polyline points="176.3800000000001,222.346 255.0,222.346" fill="none" stroke="#000000" stroke-width="0.40" />
<polyline points="176.3800000000001,227.346 255.0,227.346" fill="none" stroke="#000000" stroke-width="0.40" />
<polyline points="176.3800000000001,232.346 255.0,232.346" fill="none" stroke="#000000" stroke-width="0.40" />
<polyline points="176.3800000000001,237.346 255.0,237.346" fill="none" stroke="#000000" stroke-width="0.40" />
<polyline points="176.77999999999975,112.346 176.77999999999975,255.0" fill="" stroke="#000000" stroke-width="0.80" />
<polyline points="176.77999999999975,0.0 176.77999999999975,37.346000000000004" fill="" stroke="#000000" stroke-width="0.80" />
<polyline points="221.57999999999993,241.57799999999997 221.57999999999993,209.846" fill="" stroke="#000000" stroke-width="0.65" />
<polyline points="251.3199999999997,16.910000000000025 251.3199999999997,49.846000000000004" fill="" stroke="#000000" stroke-width="0.65" />
<polyline points="216.5699999999997,16.910000000000025 216.5699999999997,49.846000000000004" fill="" stroke="#000000" stroke-width="0.65" />
<polyline points="213.46000000000004,242.346 223.39999999999964,242.346" fill="" stroke="#000000" stroke-width="0.80" />
</svg>
