<?xml version="1.0" encoding="UTF-8" standalone="yes"?>
<svg width="256.0px" height="256.0px" xmlns="http://www.w3.org/2000/svg" xmlns:xlink="http://www.w3.org/1999/xlink" version="1.2" baseProfile="tiny">
<polyline points="0.0,63.3465 119.6899999999996,63.3465" fill="none" stroke="#000000" stroke-width="0.40" />
<polyline points="0.0,68.3465 119.6899999999996,68.3465" fill="none" stroke="#000000" stroke-width="0.40" />
<polyline points="0.0,73.3465 119.6899999999996,73.3465" fill="none" stroke="#000000" stroke-width="0.40" />
<polyline points="0.0,78.3465 119.6899999999996,78.3465" fill="none" stroke="#000000" stroke-width="0.40" />
<polyline points="0.0,83.3465 119.6899999999996,83.3465" fill="none" stroke="#000000" stroke-width="0.40" />
<polyline points="0.0,115.846 119.6899999999996,115.846" fill="none" stroke="#000000" stroke-width="0.40" />
<polyline points="0.0,120.846 119.6899999999996,120.846" fill="none" stroke="#000000" stroke-width="0.40" />
<polyline points="0.0,125.846 119.6899999999996,125.846" fill="none" stroke="#000000" stroke-width="0.40" />
<polyline points="0.0,130.846 119.6899999999996,130.846" fill="none" stroke="#000000" stroke-width="0.40" />
<polyline points="0.0,135.846 119.6899999999996,135.846" fill="none" stroke="#000000" stroke-width="0.40" />
<polyline points="0.0,168.346 119.6899999999996,168.346" fill="none" stroke="#000000" stroke-width="0.40" />
<polyline points="0.0,173.346 119.6899999999996,173.346" fill="none" stroke="#000000" stroke-width="0.40" />
<polyline points="0.0,178.346 119.6899999999996,178.346" fill="none" stroke="#000000" stroke-width="0.40" />
<polyline points="0.0,183.346 119.6899999999996,183.346" fill="none" stroke="#000000" stroke-width="0.40" />
<polyline points="0.0,188.346 119.6899999999996,188.346" fill="none" stroke="#000000" stroke-width="0.40" />
<polyline points="0.0,220.846 119.6899999999996,220.846" fill="none" stroke="#000000" stroke-width="0.40" />
<polyline points="0.0,225.846 119.6899999999996,225.846" fill="none" stroke="#000000" stroke-width="0.40" />
<polyline points="0.0,230.846 119.6899999999996,230.846" fill="none" stroke="#000000" stroke-width="0.40" />
<polyline points="0.0,235.846 119.6899999999996,235.846" fill="none" stroke="#000000" stroke-width="0.40" />
<polyline points="0.0,240.846 119.6899999999996,240.846" fill="none" stroke="#000000" stroke-width="0.40" />
<polyline points="119.28999999999996,220.846 119.28999999999996,240.846" fill="" stroke="#000000" stroke-width="0.80" />
<polyline points="119.28999999999996,168.346 119.28999999999996,188.346" fill="" stroke="#000000" stroke-width="0.80" />
<polyline points="119.28999999999996,115.846 119.28999999999996,135.846" fill="" stroke="#000000" stroke-width="0.80" />
<polyline points="119.28999999999996,63.3465 119.28999999999996,83.3465" fill="" stroke="#000000" stroke-width="0.80" />
<polyline points="99.02000000000044,234.907 99.02000000000044,220.846" fill="" stroke="#000000" stroke-width="0.65" />
<polyline points="93.07999999999993,119.286 93.07999999999993,132.096" fill="" stroke="#000000" stroke-width="0.65" />
<polyline points="99.02000000000044,94.9074 99.02000000000044,59.5965" fill="" stroke="#000000" stroke-width="0.65" />
<polyline points="82.6899999999996,244.907 82.6899999999996,220.846" fill="" stroke="#000000" stroke-width="0.65" />
<polyline points="66.35999999999967,234.907 66.35999999999967,220.846" fill="" stroke="#000000" stroke-width="0.65" />
<polyline points="60.42000000000007,96.7855 60.42000000000007,131.135" fill="" stroke="#000000" stroke-width="0.65" />
<polyline points="66.35999999999967,79.9074 66.35999999999967,59.5965" fill="" stroke="#000000" stroke-width="0.65" />
<polyline points="40.22999999999956,234.907 40.22999999999956,220.846" fill="" stroke="#000000" stroke-width="0.65" />
<polyline points="34.30000000000018,96.7855 34.30000000000018,130.366" fill="" stroke="#000000" stroke-width="0.65" />
<polyline points="40.22999999999956,79.9074 40.22999999999956,59.5965" fill="" stroke="#000000" stroke-width="0.65" />
<polyline points="14.100000000000364,234.907 14.100000000000364,220.846" fill="" stroke="#000000" stroke-width="0.65" />
<polyline points="14.279999999999745,195.078 14.279999999999745,158.971" fill="" stroke="#000000" stroke-width="0.65" />
<polyline points="8.170000000000073,114.286 8.170000000000073,129.596" fill="" stroke="#000000" stroke-width="0.65" />
<polyline points="14.100000000000364,89.9074 14.100000000000364,59.5965" fill="" stroke="#000000" stroke-width="0.65" />
<polyline points="91.26000000000022,88.3465 100.84000000000015,88.3465" fill="" stroke="#000000" stroke-width="0.80" />
<polyline points="91.26000000000022,93.3465 100.84000000000015,93.3465" fill="" stroke="#000000" stroke-width="0.80" />
<polyline points="74.93000000000029,245.846 84.51000000000022,245.846" fill="" stroke="#000000" stroke-width="0.80" />
<polyline points="58.600000000000364,95.8465 68.18000000000029,95.8465" fill="" stroke="#000000" stroke-width="0.80" />
<polyline points="58.600000000000364,100.846 68.18000000000029,100.846" fill="" stroke="#000000" stroke-width="0.80" />
<polyline points="58.600000000000364,105.846 68.18000000000029,105.846" fill="" stroke="#000000" stroke-width="0.80" />
<polyline points="58.600000000000364,110.846 68.18000000000029,110.846" fill="" stroke="#000000" stroke-width="0.80" />
<polyline points="32.470000000000255,95.8465 42.05000000000018,95.8465" fill="" stroke="#000000" stroke-width="0.80" />
<polyline points="32.470000000000255,100.846 42.05000000000018,100.846" fill="" stroke="#000000" stroke-width="0.80" />
<polyline points="32.470000000000255,105.846 42.05000000000018,105.846" fill="" stroke="#000000" stroke-width="0.80" />
<polyline points="32.470000000000255,110.846 42.05000000000018,110.846" fill="" stroke="#000000" stroke-width="0.80" />
<polyline points="6.1599999999998545,193.346 16.109999999999673,193.346" fill="" stroke="#000000" stroke-width="0.80" />
<polyline points="6.3400000000001455,88.3465 15.930000000000291,88.3465" fill="" stroke="#000000" stroke-width="0.80" />
<polyline points="176.3800000000001,63.3465 255.0,63.3465" fill="none" stroke="#000000" stroke-width="0.40" />
<polyline points="176.3800000000001,68.3465 255.0,68.3465" fill="none" stroke="#000000" stroke-width="0.40" />
<polyline points="176.3800000000001,73.3465 255.0,73.3465" fill="none" stroke="#000000" stroke-width="0.40" />
<polyline points="176.3800000000001,78.3465 255.0,78.3465" fill="none" stroke="#000000" stroke-width="0.40" />
<polyline points="176.3800000000001,83.3465 255.0,83.3465" fill="none" stroke="#000000" stroke-width="0.40" />
<polyline points="176.3800000000001,115.846 255.0,115.846" fill="none" stroke="#000000" stroke-width="0.40" />
<polyline points="176.3800000000001,120.846 255.0,120.846" fill="none" stroke="#000000" stroke-width="0.40" />
<polyline points="176.3800000000001,125.846 255.0,125.846" fill="none" stroke="#000000" stroke-width="0.40" />
<polyline points="176.3800000000001,130.846 255.0,130.846" fill="none" stroke="#000000" stroke-width="0.40" />
<polyline points="176.3800000000001,135.846 255.0,135.846" fill="none" stroke="#000000" stroke-width="0.40" />
<polyline points="176.3800000000001,168.346 255.0,168.346" fill="none" stroke="#000000" stroke-width="0.40" />
<polyline points="176.3800000000001,173.346 255.0,173.346" fill="none" stroke="#000000" stroke-width="0.40" />
<polyline points="176.3800000000001,178.346 255.0,178.346" fill="none" stroke="#000000" stroke-width="0.40" />
<polyline points="176.3800000000001,183.346 255.0,183.346" fill="none" stroke="#000000" stroke-width="0.40" />
<polyline points="176.3800000000001,188.346 255.0,188.346" fill="none" stroke="#000000" stroke-width="0.40" />
<polyline points="176.3800000000001,220.846 255.0,220.846" fill="none" stroke="#000000" stroke-width="0.40" />
<polyline points="176.3800000000001,225.846 255.0,225.846" fill="none" stroke="#000000" stroke-width="0.40" />
<polyline points="176.3800000000001,230.846 255.0,230.846" fill="none" stroke="#000000" stroke-width="0.40" />
<polyline points="176.3800000000001,235.846 255.0,235.846" fill="none" stroke="#000000" stroke-width="0.40" />
<polyline points="176.3800000000001,240.846 255.0,240.846" fill="none" stroke="#000000" stroke-width="0.40" />
<polyline points="176.77999999999975,63.3465 176.77999999999975,255.0" fill="" stroke="#000000" stroke-width="0.80" />
<polyline points="251.3199999999997,89.2855 251.3199999999997,124.596" fill="" stroke="#000000" stroke-width="0.65" />
<polyline points="251.3199999999997,66.7855 251.3199999999997,82.0965" fill="" stroke="#000000" stroke-width="0.65" />
<polyline points="233.94999999999982,86.7855 233.94999999999982,124.596" fill="" stroke="#000000" stroke-width="0.65" />
<polyline points="233.94999999999982,64.2855 233.94999999999982,82.0965" fill="" stroke="#000000" stroke-width="0.65" />
<polyline points="222.5,239.907 222.5,223.346" fill="" stroke="#000000" stroke-width="0.65" />
<polyline points="222.6800000000003,192.578 222.6800000000003,160.846" fill="" stroke="#000000" stroke-width="0.65" />
<polyline points="216.5699999999997,84.2855 216.5699999999997,124.596" fill="" stroke="#000000" stroke-width="0.65" />
<polyline points="216.5699999999997,61.7855 216.5699999999997,82.0965" fill="" stroke="#000000" stroke-width="0.65" />
<polyline points="249.5,90.8465 255.0,90.8465" fill="" stroke="#000000" stroke-width="0.80" />
<polyline points="249.5,95.8465 255.0,95.8465" fill="" stroke="#000000" stroke-width="0.80" />
<polyline points="249.5,100.846 255.0,100.846" fill="" stroke="#000000" stroke-width="0.80" />
<polyline points="249.5,105.846 255.0,105.846" fill="" stroke="#000000" stroke-width="0.80" />
<polyline points="249.5,110.846 255.0,110.846" fill="" stroke="#000000" stroke-width="0.80" />
<polyline points="232.1199999999999,85.8465 241.69999999999982,85.8465" fill="" stroke="#000000" stroke-width="0.80" />
<polyline points="232.1199999999999,90.8465 241.69999999999982,90.8465" fill="" stroke="#000000" stroke-width="0.80" />
<polyline points="232.1199999999999,95.8465 241.69999999999982,95.8465" fill="" stroke="#000000" stroke-width="0.80" />
<polyline points="232.1199999999999,100.846 241.69999999999982,100.846" fill="" stroke="#000000" stroke-width="0.80" />
<polyline points="232.1199999999999,105.846 241.69999999999982,105.846" fill="" stroke="#000000" stroke-width="0.80" />
<polyline points="232.1199999999999,110.846 241.69999999999982,110.846" fill="" stroke="#000000" stroke-width="0.80" />
<polyline points="214.5699999999997,193.346 224.51000000000022,193.346" fill="" stroke="#000000" stroke-width="0.80" />
<polyline points="214.75,85.8465 224.32999999999993,85.8465" fill="" stroke="#000000" stroke-width="0.80" />
<polyline points="214.75,90.8465 224.32999999999993,90.8465" fill="" stroke="#000000" stroke-width="0.80" />
<polyline points="214.75,95.8465 224.32999999999993,95.8465" fill="" stroke="#000000" stroke-width="0.80" />
<polyline points="214.75,100.846 224.32999999999993,100.846" fill="" stroke="#000000" stroke-width="0.80" />
<polyline points="214.75,105.846 224.32999999999993,105.846" fill="" stroke="#000000" stroke-width="0.80" />
<polyline points="214.75,110.846 224.32999999999993,110.846" fill="" stroke="#000000" stroke-width="0.80" />
</svg>
