<?xml version="1.0" encoding="UTF-8" standalone="yes"?>
<svg width="256.0px" height="256.0px" xmlns="http://www.w3.org/2000/svg" xmlns:xlink="http://www.w3.org/1999/xlink" version="1.2" baseProfile="tiny">
<polyline points="0.0,63.3465 255.0,63.3465" fill="none" stroke="#000000" stroke-width="0.40" />
<polyline points="0.0,68.3465 255.0,68.3465" fill="none" stroke="#000000" stroke-width="0.40" />
<polyline points="0.0,73.3465 255.0,73.3465" fill="none" stroke="#000000" stroke-width="0.40" />
<polyline points="0.0,78.3465 255.0,78.3465" fill="none" stroke="#000000" stroke-width="0.40" />
<polyline points="0.0,83.3465 255.0,83.3465" fill="none" stroke="#000000" stroke-width="0.40" />
<polyline points="0.0,115.846 255.0,115.846" fill="none" stroke="#000000" stroke-width="0.40" />
<polyline points="0.0,120.846 255.0,120.846" fill="none" stroke="#000000" stroke-width="0.40" />
<polyline points="0.0,125.846 255.0,125.846" fill="none" stroke="#000000" stroke-width="0.40" />
<polyline points="0.0,130.846 255.0,130.846" fill="none" stroke="#000000" stroke-width="0.40" />
<polyline points="0.0,135.846 255.0,135.846" fill="none" stroke="#000000" stroke-width="0.40" />
<polyline points="0.0,168.346 255.0,168.346" fill="none" stroke="#000000" stroke-width="0.40" />
<polyline points="0.0,173.346 255.0,173.346" fill="none" stroke="#000000" stroke-width="0.40" />
<polyline points="0.0,178.346 255.0,178.346" fill="none" stroke="#000000" stroke-width="0.40" />
<polyline points="0.0,183.346 255.0,183.346" fill="none" stroke="#000000" stroke-width="0.40" />
<polyline points="0.0,188.346 255.0,188.346" fill="none" stroke="#000000" stroke-width="0.40" />
<polyline points="0.0,220.846 255.0,220.846" fill="none" stroke="#000000" stroke-width="0.40" />
<polyline points="0.0,225.846 255.0,225.846" fill="none" stroke="#000000" stroke-width="0.40" />
<polyline points="0.0,230.846 255.0,230.846" fill="none" stroke="#000000" stroke-width="0.40" />
<polyline points="0.0,235.846 255.0,235.846" fill="none" stroke="#000000" stroke-width="0.40" />
<polyline points="0.0,240.846 255.0,240.846" fill="none" stroke="#000000" stroke-width="0.40" />
<polyline points="239.35999999999967,220.846 239.35999999999967,240.846" fill="" stroke="#000000" stroke-width="0.80" />
<polyline points="239.35999999999967,168.346 239.35999999999967,188.346" fill="" stroke="#000000" stroke-width="0.80" />
<polyline points="239.35999999999967,115.846 239.35999999999967,135.846" fill="" stroke="#000000" stroke-width="0.80" />
<polyline points="239.35999999999967,63.3465 239.35999999999967,83.3465" fill="" stroke="#000000" stroke-width="0.80" />
<polyline points="115.05000000000018,92.4715 108.60000000000036,96.4715" fill="" stroke="#000000" stroke-width="0.65" />
<polyline points="116.05000000000018,69.9715 109.60000000000036,73.9715" fill="" stroke="#000000" stroke-width="0.65" />
<polyline points="254.51000000000022,232.578 254.51000000000022,217.096" fill="" stroke="#000000" stroke-width="0.65" />
<polyline points="254.51000000000022,192.578 254.51000000000022,157.096" fill="" stroke="#000000" stroke-width="0.65" />
<polyline points="227.69999999999982,192.407 227.69999999999982,154.596" fill="" stroke="#000000" stroke-width="0.65" />
<polyline points="209.9399999999996,234.907 209.9399999999996,220.846" fill="" stroke="#000000" stroke-width="0.65" />
<polyline points="209.9399999999996,192.407 209.9399999999996,154.596" fill="" stroke="#000000" stroke-width="0.65" />
<polyline points="204.0,101.786 204.0,125.846" fill="" stroke="#000000" stroke-width="0.65" />
<polyline points="209.9399999999996,77.4074 209.9399999999996,54.5965" fill="" stroke="#000000" stroke-width="0.65" />
<polyline points="189.75,96.7855 189.75,125.462" fill="" stroke="#000000" stroke-width="0.65" />
<polyline points="195.6899999999996,72.4074 195.6899999999996,54.5965" fill="" stroke="#000000" stroke-width="0.65" />
<polyline points="186.77999999999975,234.907 186.77999999999975,220.846" fill="" stroke="#000000" stroke-width="0.65" />
<polyline points="171.9399999999996,94.2855 171.9399999999996,124.981" fill="" stroke="#000000" stroke-width="0.65" />
<polyline points="177.8699999999999,69.9074 177.8699999999999,54.5965" fill="" stroke="#000000" stroke-width="0.65" />
<polyline points="163.6300000000001,234.907 163.6300000000001,220.846" fill="" stroke="#000000" stroke-width="0.65" />
<polyline points="163.6300000000001,194.907 163.6300000000001,154.596" fill="" stroke="#000000" stroke-width="0.65" />
<polyline points="157.6899999999996,96.7855 157.6899999999996,124.596" fill="" stroke="#000000" stroke-width="0.65" />
<polyline points="163.6300000000001,72.4074 163.6300000000001,54.5965" fill="" stroke="#000000" stroke-width="0.65" />
<polyline points="146.25,234.907 146.25,220.846" fill="" stroke="#000000" stroke-width="0.65" />
<polyline points="128.8800000000001,234.907 128.8800000000001,220.846" fill="" stroke="#000000" stroke-width="0.65" />
<polyline points="128.8800000000001,194.907 128.8800000000001,158.971" fill="" stroke="#000000" stroke-width="0.65" />
<polyline points="111.0,102.689 111.0,88.4715" fill="" stroke="#000000" stroke-width="0.65" />
<polyline points="122.9399999999996,101.786 122.9399999999996,124.596" fill="" stroke="#000000" stroke-width="0.65" />
<polyline points="112.0,80.1891 112.0,65.9715" fill="" stroke="#000000" stroke-width="0.65" />
<polyline points="128.8800000000001,77.4074 128.8800000000001,63.3465" fill="" stroke="#000000" stroke-width="0.65" />
<polyline points="87.53999999999996,101.786 87.53999999999996,124.596" fill="" stroke="#000000" stroke-width="0.65" />
<polyline points="93.47000000000025,77.4074 93.47000000000025,63.3465" fill="" stroke="#000000" stroke-width="0.65" />
<polyline points="52.789999999999964,224.286 52.789999999999964,240.846" fill="" stroke="#000000" stroke-width="0.65" />
<polyline points="52.789999999999964,94.2855 52.789999999999964,124.596" fill="" stroke="#000000" stroke-width="0.65" />
<polyline points="52.789999999999964,71.7855 52.789999999999964,87.0965" fill="" stroke="#000000" stroke-width="0.65" />
<polyline points="18.039999999999964,224.286 18.039999999999964,240.846" fill="" stroke="#000000" stroke-width="0.65" />
<polyline points="18.039999999999964,96.7855 18.039999999999964,125.846" fill="" stroke="#000000" stroke-width="0.65" />
<polyline points="18.039999999999964,74.2855 18.039999999999964,88.3465" fill="" stroke="#000000" stroke-width="0.65" />
<polyline points="246.39000000000033,193.346 255.0,193.346" fill="" stroke="#000000" stroke-width="0.80" />
<polyline points="219.9399999999996,193.346 229.52999999999975,193.346" fill="" stroke="#000000" stroke-width="0.80" />
<polyline points="202.1800000000003,193.346 211.76000000000022,193.346" fill="" stroke="#000000" stroke-width="0.80" />
<polyline points="202.1800000000003,100.846 211.76000000000022,100.846" fill="" stroke="#000000" stroke-width="0.80" />
<polyline points="202.1800000000003,105.846 211.76000000000022,105.846" fill="" stroke="#000000" stroke-width="0.80" />
<polyline points="202.1800000000003,110.846 211.76000000000022,110.846" fill="" stroke="#000000" stroke-width="0.80" />
<polyline points="187.9300000000003,95.8465 197.51000000000022,95.8465" fill="" stroke="#000000" stroke-width="0.80" />
<polyline points="187.9300000000003,100.846 197.51000000000022,100.846" fill="" stroke="#000000" stroke-width="0.80" />
<polyline points="187.9300000000003,105.846 197.51000000000022,105.846" fill="" stroke="#000000" stroke-width="0.80" />
<polyline points="187.9300000000003,110.846 197.51000000000022,110.846" fill="" stroke="#000000" stroke-width="0.80" />
<polyline points="170.1199999999999,95.8465 179.69999999999982,95.8465" fill="" stroke="#000000" stroke-width="0.80" />
<polyline points="170.1199999999999,100.846 179.69999999999982,100.846" fill="" stroke="#000000" stroke-width="0.80" />
<polyline points="170.1199999999999,105.846 179.69999999999982,105.846" fill="" stroke="#000000" stroke-width="0.80" />
<polyline points="170.1199999999999,110.846 179.69999999999982,110.846" fill="" stroke="#000000" stroke-width="0.80" />
<polyline points="155.8699999999999,193.346 165.44999999999982,193.346" fill="" stroke="#000000" stroke-width="0.80" />
<polyline points="155.8699999999999,95.8465 165.44999999999982,95.8465" fill="" stroke="#000000" stroke-width="0.80" />
<polyline points="155.8699999999999,100.846 165.44999999999982,100.846" fill="" stroke="#000000" stroke-width="0.80" />
<polyline points="155.8699999999999,105.846 165.44999999999982,105.846" fill="" stroke="#000000" stroke-width="0.80" />
<polyline points="155.8699999999999,110.846 165.44999999999982,110.846" fill="" stroke="#000000" stroke-width="0.80" />
<polyline points="121.11999999999989,193.346 130.69999999999982,193.346" fill="" stroke="#000000" stroke-width="0.80" />
<polyline points="105.21000000000004,105.846 112.81999999999971,105.846" fill="" stroke="#000000" stroke-width="0.56" />
<polyline points="105.21000000000004,110.846 112.81999999999971,110.846" fill="" stroke="#000000" stroke-width="0.56" />
<polyline points="121.11999999999989,100.846 130.69999999999982,100.846" fill="" stroke="#000000" stroke-width="0.80" />
<polyline points="121.11999999999989,105.846 130.69999999999982,105.846" fill="" stroke="#000000" stroke-width="0.80" />
<polyline points="121.11999999999989,110.846 130.69999999999982,110.846" fill="" stroke="#000000" stroke-width="0.80" />
<polyline points="85.71000000000004,100.846 95.30000000000018,100.846" fill="" stroke="#000000" stroke-width="0.80" />
<polyline points="85.71000000000004,105.846 95.30000000000018,105.846" fill="" stroke="#000000" stroke-width="0.80" />
<polyline points="85.71000000000004,110.846 95.30000000000018,110.846" fill="" stroke="#000000" stroke-width="0.80" />
<polyline points="50.960000000000036,95.8465 60.55000000000018,95.8465" fill="" stroke="#000000" stroke-width="0.80" />
<polyline points="50.960000000000036,100.846 60.55000000000018,100.846" fill="" stroke="#000000" stroke-width="0.80" />
<polyline points="50.960000000000036,105.846 60.55000000000018,105.846" fill="" stroke="#000000" stroke-width="0.80" />
<polyline points="50.960000000000036,110.846 60.55000000000018,110.846" fill="" stroke="#000000" stroke-width="0.80" />
<polyline points="16.210000000000036,95.8465 25.800000000000182,95.8465" fill="" stroke="#000000" stroke-width="0.80" />
<polyline points="16.210000000000036,100.846 25.800000000000182,100.846" fill="" stroke="#000000" stroke-width="0.80" />
<polyline points="16.210000000000036,105.846 25.800000000000182,105.846" fill="" stroke="#000000" stroke-width="0.80" />
<polyline points="16.210000000000036,110.846 25.800000000000182,110.846" fill="" stroke="#000000" stroke-width="0.80" />
<polyline points="0.0,90.8465 3.0799999999999272,90.8465" fill="" stroke="#000000" stroke-width="0.80" />
<polyline points="0.0,95.8465 3.0799999999999272,95.8465" fill="" stroke="#000000" stroke-width="0.80" />
<polyline points="0.0,100.846 3.0799999999999272,100.846" fill="" stroke="#000000" stroke-width="0.80" />
<polyline points="0.0,105.846 3.0799999999999272,105.846" fill="" stroke="#000000" stroke-width="0.80" />
<polyline points="0.0,110.846 3.0799999999999272,110.846" fill="" stroke="#000000" stroke-width="0.80" />
</svg>
