<?xml version="1.0" encoding="UTF-8" standalone="yes"?>
<svg width="256.0px" height="256.0px" xmlns="http://www.w3.org/2000/svg" xmlns:xlink="http://www.w3.org/1999/xlink" version="1.2" baseProfile="tiny">
<polyline points="9.829999999999927,63.3465 255.0,63.3465" fill="none" stroke="#000000" stroke-width="0.40" />
<polyline points="9.829999999999927,68.3465 255.0,68.3465" fill="none" stroke="#000000" stroke-width="0.40" />
<polyline points="9.829999999999927,73.3465 255.0,73.3465" fill="none" stroke="#000000" stroke-width="0.40" />
<polyline points="9.829999999999927,78.3465 255.0,78.3465" fill="none" stroke="#000000" stroke-width="0.40" />
<polyline points="9.829999999999927,83.3465 255.0,83.3465" fill="none" stroke="#000000" stroke-width="0.40" />
<polyline points="9.829999999999927,115.846 255.0,115.846" fill="none" stroke="#000000" stroke-width="0.40" />
<polyline points="9.829999999999927,120.846 255.0,120.846" fill="none" stroke="#000000" stroke-width="0.40" />
<polyline points="9.829999999999927,125.846 255.0,125.846" fill="none" stroke="#000000" stroke-width="0.40" />
<polyline points="9.829999999999927,130.846 255.0,130.846" fill="none" stroke="#000000" stroke-width="0.40" />
<polyline points="9.829999999999927,135.846 255.0,135.846" fill="none" stroke="#000000" stroke-width="0.40" />
<polyline points="9.829999999999927,168.346 255.0,168.346" fill="none" stroke="#000000" stroke-width="0.40" />
<polyline points="9.829999999999927,173.346 255.0,173.346" fill="none" stroke="#000000" stroke-width="0.40" />
<polyline points="9.829999999999927,178.346 255.0,178.346" fill="none" stroke="#000000" stroke-width="0.40" />
<polyline points="9.829999999999927,183.346 255.0,183.346" fill="none" stroke="#000000" stroke-width="0.40" />
<polyline points="9.829999999999927,188.346 255.0,188.346" fill="none" stroke="#000000" stroke-width="0.40" />
<polyline points="9.829999999999927,220.846 255.0,220.846" fill="none" stroke="#000000" stroke-width="0.40" />
<polyline points="9.829999999999927,225.846 255.0,225.846" fill="none" stroke="#000000" stroke-width="0.40" />
<polyline points="9.829999999999927,230.846 255.0,230.846" fill="none" stroke="#000000" stroke-width="0.40" />
<polyline points="9.829999999999927,235.846 255.0,235.846" fill="none" stroke="#000000" stroke-width="0.40" />
<polyline points="9.829999999999927,240.846 255.0,240.846" fill="none" stroke="#000000" stroke-width="0.40" />
<polyline points="10.229999999999563,63.3465 10.229999999999563,255.0" fill="" stroke="#000000" stroke-width="0.80" />
<polyline points="248.34000000000015,219.286 248.34000000000015,244.596" fill="" stroke="#000000" stroke-width="0.65" />
<polyline points="254.27999999999975,194.907 254.27999999999975,158.346" fill="" stroke="#000000" stroke-width="0.65" />
<polyline points="248.34000000000015,104.286 248.34000000000015,125.846" fill="" stroke="#000000" stroke-width="0.65" />
<polyline points="254.27999999999975,79.9074 254.27999999999975,63.3465" fill="" stroke="#000000" stroke-width="0.65" />
<polyline points="234.35999999999967,96.7855 234.35999999999967,124.596" fill="" stroke="#000000" stroke-width="0.65" />
<polyline points="240.28999999999996,72.4074 240.28999999999996,54.5965" fill="" stroke="#000000" stroke-width="0.65" />
<polyline points="220.3699999999999,94.2855 220.3699999999999,124.913" fill="" stroke="#000000" stroke-width="0.65" />
<polyline points="226.30000000000018,69.9074 226.30000000000018,54.5965" fill="" stroke="#000000" stroke-width="0.65" />
<polyline points="206.3800000000001,224.286 206.3800000000001,239.596" fill="" stroke="#000000" stroke-width="0.65" />
<polyline points="212.3100000000004,194.907 212.3100000000004,158.346" fill="" stroke="#000000" stroke-width="0.65" />
<polyline points="206.3800000000001,96.7855 206.3800000000001,125.229" fill="" stroke="#000000" stroke-width="0.65" />
<polyline points="212.3100000000004,72.4074 212.3100000000004,54.5965" fill="" stroke="#000000" stroke-width="0.65" />
<polyline points="179.09000000000015,224.286 179.09000000000015,239.596" fill="" stroke="#000000" stroke-width="0.65" />
<polyline points="179.09000000000015,101.786 179.09000000000015,125.846" fill="" stroke="#000000" stroke-width="0.65" />
<polyline points="185.02000000000044,77.4074 185.02000000000044,54.5965" fill="" stroke="#000000" stroke-width="0.65" />
<polyline points="160.1899999999996,219.286 160.1899999999996,234.596" fill="" stroke="#000000" stroke-width="0.65" />
<polyline points="141.28999999999996,209.286 141.28999999999996,230.846" fill="" stroke="#000000" stroke-width="0.65" />
<polyline points="141.28999999999996,104.286 141.28999999999996,125.846" fill="" stroke="#000000" stroke-width="0.65" />
<polyline points="141.28999999999996,81.7855 141.28999999999996,97.0965" fill="" stroke="#000000" stroke-width="0.65" />
<polyline points="103.48999999999978,94.2855 103.48999999999978,125.121" fill="" stroke="#000000" stroke-width="0.65" />
<polyline points="103.48999999999978,71.7855 103.48999999999978,93.4671" fill="" stroke="#000000" stroke-width="0.65" />
<polyline points="82.14000000000033,239.907 82.14000000000033,225.846" fill="" stroke="#000000" stroke-width="0.65" />
<polyline points="76.19999999999982,89.2855 76.19999999999982,124.596" fill="" stroke="#000000" stroke-width="0.65" />
<polyline points="76.19999999999982,66.7855 76.19999999999982,90.8465" fill="" stroke="#000000" stroke-width="0.65" />
<polyline points="54.840000000000146,239.907 54.840000000000146,225.846" fill="" stroke="#000000" stroke-width="0.65" />
<polyline points="55.029999999999745,192.578 55.029999999999745,160.846" fill="" stroke="#000000" stroke-width="0.65" />
<polyline points="246.52000000000044,193.346 255.0,193.346" fill="" stroke="#000000" stroke-width="0.80" />
<polyline points="246.52000000000044,105.846 255.0,105.846" fill="" stroke="#000000" stroke-width="0.80" />
<polyline points="246.52000000000044,110.846 255.0,110.846" fill="" stroke="#000000" stroke-width="0.80" />
<polyline points="232.52999999999975,95.8465 242.10999999999967,95.8465" fill="" stroke="#000000" stroke-width="0.80" />
<polyline points="232.52999999999975,100.846 242.10999999999967,100.846" fill="" stroke="#000000" stroke-width="0.80" />
<polyline points="232.52999999999975,105.846 242.10999999999967,105.846" fill="" stroke="#000000" stroke-width="0.80" />
<polyline points="232.52999999999975,110.846 242.10999999999967,110.846" fill="" stroke="#000000" stroke-width="0.80" />
<polyline points="218.53999999999996,95.8465 228.1300000000001,95.8465" fill="" stroke="#000000" stroke-width="0.80" />
<polyline points="218.53999999999996,100.846 228.1300000000001,100.846" fill="" stroke="#000000" stroke-width="0.80" />
<polyline points="218.53999999999996,105.846 228.1300000000001,105.846" fill="" stroke="#000000" stroke-width="0.80" />
<polyline points="218.53999999999996,110.846 228.1300000000001,110.846" fill="" stroke="#000000" stroke-width="0.80" />
<polyline points="204.55000000000018,193.346 214.14000000000033,193.346" fill="" stroke="#000000" stroke-width="0.80" />
<polyline points="204.55000000000018,95.8465 214.14000000000033,95.8465" fill="" stroke="#000000" stroke-width="0.80" />
<polyline points="204.55000000000018,100.846 214.14000000000033,100.846" fill="" stroke="#000000" stroke-width="0.80" />
<polyline points="204.55000000000018,105.846 214.14000000000033,105.846" fill="" stroke="#000000" stroke-width="0.80" />
<polyline points="204.55000000000018,110.846 214.14000000000033,110.846" fill="" stroke="#000000" stroke-width="0.80" />
<polyline points="177.26000000000022,100.846 186.85000000000036,100.846" fill="" stroke="#000000" stroke-width="0.80" />
<polyline points="177.26000000000022,105.846 186.85000000000036,105.846" fill="" stroke="#000000" stroke-width="0.80" />
<polyline points="177.26000000000022,110.846 186.85000000000036,110.846" fill="" stroke="#000000" stroke-width="0.80" />
<polyline points="139.47000000000025,210.846 149.05000000000018,210.846" fill="" stroke="#000000" stroke-width="0.80" />
<polyline points="139.47000000000025,215.846 149.05000000000018,215.846" fill="" stroke="#000000" stroke-width="0.80" />
<polyline points="139.47000000000025,105.846 149.05000000000018,105.846" fill="" stroke="#000000" stroke-width="0.80" />
<polyline points="139.47000000000025,110.846 149.05000000000018,110.846" fill="" stroke="#000000" stroke-width="0.80" />
<polyline points="101.67000000000007,95.8465 111.25,95.8465" fill="" stroke="#000000" stroke-width="0.80" />
<polyline points="101.67000000000007,100.846 111.25,100.846" fill="" stroke="#000000" stroke-width="0.80" />
<polyline points="101.67000000000007,105.846 111.25,105.846" fill="" stroke="#000000" stroke-width="0.80" />
<polyline points="101.67000000000007,110.846 111.25,110.846" fill="" stroke="#000000" stroke-width="0.80" />
<polyline points="74.38000000000011,90.8465 83.96000000000004,90.8465" fill="" stroke="#000000" stroke-width="0.80" />
<polyline points="74.38000000000011,95.8465 83.96000000000004,95.8465" fill="" stroke="#000000" stroke-width="0.80" />
<polyline points="74.38000000000011,100.846 83.96000000000004,100.846" fill="" stroke="#000000" stroke-width="0.80" />
<polyline points="74.38000000000011,105.846 83.96000000000004,105.846" fill="" stroke="#000000" stroke-width="0.80" />
<polyline points="74.38000000000011,110.846 83.96000000000004,110.846" fill="" stroke="#000000" stroke-width="0.80" />
<polyline points="46.909999999999854,193.346 56.850000000000364,193.346" fill="" stroke="#000000" stroke-width="0.80" />
<polyline points="148.80000000000018,80.5461 177.57999999999993,80.5461" fill="none" stroke="#000000" stroke-width="0.75" />
</svg>
