<?xml version="1.0" encoding="UTF-8" standalone="yes"?>
<svg width="256.0px" height="256.0px" xmlns="http://www.w3.org/2000/svg" xmlns:xlink="http://www.w3.org/1999/xlink" version="1.2" baseProfile="tiny">
<polyline points="0.0,63.3465 202.96000000000004,63.3465" fill="none" stroke="#000000" stroke-width="0.40" />
<polyline points="0.0,68.3465 202.96000000000004,68.3465" fill="none" stroke="#000000" stroke-width="0.40" />
<polyline points="0.0,73.3465 202.96000000000004,73.3465" fill="none" stroke="#000000" stroke-width="0.40" />
<polyline points="0.0,78.3465 202.96000000000004,78.3465" fill="none" stroke="#000000" stroke-width="0.40" />
<polyline points="0.0,83.3465 202.96000000000004,83.3465" fill="none" stroke="#000000" stroke-width="0.40" />
<polyline points="0.0,115.846 202.96000000000004,115.846" fill="none" stroke="#000000" stroke-width="0.40" />
<polyline points="0.0,120.846 202.96000000000004,120.846" fill="none" stroke="#000000" stroke-width="0.40" />
<polyline points="0.0,125.846 202.96000000000004,125.846" fill="none" stroke="#000000" stroke-width="0.40" />
<polyline points="0.0,130.846 202.96000000000004,130.846" fill="none" stroke="#000000" stroke-width="0.40" />
<polyline points="0.0,135.846 202.96000000000004,135.846" fill="none" stroke="#000000" stroke-width="0.40" />
<polyline points="0.0,168.346 202.96000000000004,168.346" fill="none" stroke="#000000" stroke-width="0.40" />
<polyline points="0.0,173.346 202.96000000000004,173.346" fill="none" stroke="#000000" stroke-width="0.40" />
<polyline points="0.0,178.346 202.96000000000004,178.346" fill="none" stroke="#000000" stroke-width="0.40" />
<polyline points="0.0,183.346 202.96000000000004,183.346" fill="none" stroke="#000000" stroke-width="0.40" />
<polyline points="0.0,188.346 202.96000000000004,188.346" fill="none" stroke="#000000" stroke-width="0.40" />
<polyline points="0.0,220.846 202.96000000000004,220.846" fill="none" stroke="#000000" stroke-width="0.40" />
<polyline points="0.0,225.846 202.96000000000004,225.846" fill="none" stroke="#000000" stroke-width="0.40" />
<polyline points="0.0,230.846 202.96000000000004,230.846" fill="none" stroke="#000000" stroke-width="0.40" />
<polyline points="0.0,235.846 202.96000000000004,235.846" fill="none" stroke="#000000" stroke-width="0.40" />
<polyline points="0.0,240.846 202.96000000000004,240.846" fill="none" stroke="#000000" stroke-width="0.40" />
<polyline points="202.5600000000004,220.846 202.5600000000004,240.846" fill="" stroke="#000000" stroke-width="0.80" />
<polyline points="202.5600000000004,168.346 202.5600000000004,188.346" fill="" stroke="#000000" stroke-width="0.80" />
<polyline points="202.5600000000004,115.846 202.5600000000004,135.846" fill="" stroke="#000000" stroke-width="0.80" />
<polyline points="202.5600000000004,63.3465 202.5600000000004,83.3465" fill="" stroke="#000000" stroke-width="0.80" />
<polyline points="155.4399999999996,234.907 155.4399999999996,218.971" fill="" stroke="#000000" stroke-width="0.65" />
<polyline points="133.85000000000036,234.907 133.85000000000036,220.846" fill="" stroke="#000000" stroke-width="0.65" />
<polyline points="112.26000000000022,234.907 112.26000000000022,220.846" fill="" stroke="#000000" stroke-width="0.65" />
<polyline points="112.4399999999996,195.078 112.4399999999996,158.971" fill="" stroke="#000000" stroke-width="0.65" />
<polyline points="74.93000000000029,96.7855 74.93000000000029,134.596" fill="" stroke="#000000" stroke-width="0.65" />
<polyline points="74.93000000000029,74.2855 74.93000000000029,92.0965" fill="" stroke="#000000" stroke-width="0.65" />
<polyline points="59.23999999999978,89.2855 59.23999999999978,132.602" fill="" stroke="#000000" stroke-width="0.65" />
<polyline points="59.23999999999978,66.7855 59.23999999999978,90.1024" fill="" stroke="#000000" stroke-width="0.65" />
<polyline points="47.399999999999636,86.7855 47.399999999999636,131.099" fill="" stroke="#000000" stroke-width="0.65" />
<polyline points="47.399999999999636,64.2855 47.399999999999636,88.5994" fill="" stroke="#000000" stroke-width="0.65" />
<polyline points="35.56999999999971,89.2855 35.56999999999971,129.596" fill="" stroke="#000000" stroke-width="0.65" />
<polyline points="35.56999999999971,66.7855 35.56999999999971,87.0965" fill="" stroke="#000000" stroke-width="0.65" />
<polyline points="104.32999999999993,193.346 114.27000000000044,193.346" fill="" stroke="#000000" stroke-width="0.80" />
<polyline points="73.10999999999967,95.8465 82.6899999999996,95.8465" fill="" stroke="#000000" stroke-width="0.80" />
<polyline points="73.10999999999967,100.846 82.6899999999996,100.846" fill="" stroke="#000000" stroke-width="0.80" />
<polyline points="73.10999999999967,105.846 82.6899999999996,105.846" fill="" stroke="#000000" stroke-width="0.80" />
<polyline points="73.10999999999967,110.846 82.6899999999996,110.846" fill="" stroke="#000000" stroke-width="0.80" />
<polyline points="57.409999999999854,90.8465 66.98999999999978,90.8465" fill="" stroke="#000000" stroke-width="0.80" />
<polyline points="57.409999999999854,95.8465 66.98999999999978,95.8465" fill="" stroke="#000000" stroke-width="0.80" />
<polyline points="57.409999999999854,100.846 66.98999999999978,100.846" fill="" stroke="#000000" stroke-width="0.80" />
<polyline points="57.409999999999854,105.846 66.98999999999978,105.846" fill="" stroke="#000000" stroke-width="0.80" />
<polyline points="57.409999999999854,110.846 66.98999999999978,110.846" fill="" stroke="#000000" stroke-width="0.80" />
<polyline points="45.57999999999993,85.8465 55.159999999999854,85.8465" fill="" stroke="#000000" stroke-width="0.80" />
<polyline points="45.57999999999993,90.8465 55.159999999999854,90.8465" fill="" stroke="#000000" stroke-width="0.80" />
<polyline points="45.57999999999993,95.8465 55.159999999999854,95.8465" fill="" stroke="#000000" stroke-width="0.80" />
<polyline points="45.57999999999993,100.846 55.159999999999854,100.846" fill="" stroke="#000000" stroke-width="0.80" />
<polyline points="45.57999999999993,105.846 55.159999999999854,105.846" fill="" stroke="#000000" stroke-width="0.80" />
<polyline points="45.57999999999993,110.846 55.159999999999854,110.846" fill="" stroke="#000000" stroke-width="0.80" />
<polyline points="33.73999999999978,90.8465 43.32999999999993,90.8465" fill="" stroke="#000000" stroke-width="0.80" />
<polyline points="33.73999999999978,95.8465 43.32999999999993,95.8465" fill="" stroke="#000000" stroke-width="0.80" />
<polyline points="33.73999999999978,100.846 43.32999999999993,100.846" fill="" stroke="#000000" stroke-width="0.80" />
<polyline points="33.73999999999978,105.846 43.32999999999993,105.846" fill="" stroke="#000000" stroke-width="0.80" />
<polyline points="33.73999999999978,110.846 43.32999999999993,110.846" fill="" stroke="#000000" stroke-width="0.80" />
<polyline points="0.0,193.346 0.3400000000001455,193.346" fill="" stroke="#000000" stroke-width="0.80" />
</svg>
