<?xml version="1.0" encoding="UTF-8" standalone="yes"?>
<svg width="256.0px" height="256.0px" xmlns="http://www.w3.org/2000/svg" xmlns:xlink="http://www.w3.org/1999/xlink" version="1.2" baseProfile="tiny">
<polyline points="0.0,13.846000000000004 255.0,13.846000000000004" fill="none" stroke="#000000" stroke-width="0.40" />
<polyline points="0.0,18.846000000000004 255.0,18.846000000000004" fill="none" stroke="#000000" stroke-width="0.40" />
<polyline points="0.0,23.846000000000004 255.0,23.846000000000004" fill="none" stroke="#000000" stroke-width="0.40" />
<polyline points="0.0,28.846000000000004 255.0,28.846000000000004" fill="none" stroke="#000000" stroke-width="0.40" />
<polyline points="0.0,33.846000000000004 255.0,33.846000000000004" fill="none" stroke="#000000" stroke-width="0.40" />
<polyline points="0.0,66.346 255.0,66.346" fill="none" stroke="#000000" stroke-width="0.40" />
<polyline points="0.0,71.346 255.0,71.346" fill="none" stroke="#000000" stroke-width="0.40" />
<polyline points="0.0,76.346 255.0,76.346" fill="none" stroke="#000000" stroke-width="0.40" />
<polyline points="0.0,81.346 255.0,81.346" fill="none" stroke="#000000" stroke-width="0.40" />
<polyline points="0.0,86.346 255.0,86.346" fill="none" stroke="#000000" stroke-width="0.40" />
<polyline points="151.71000000000004,66.346 151.71000000000004,86.346" fill="" stroke="#000000" stroke-width="0.80" />
<polyline points="151.71000000000004,13.846000000000004 151.71000000000004,33.846000000000004" fill="" stroke="#000000" stroke-width="0.80" />
<polyline points="235.10999999999967,65.90999999999997 235.10999999999967,92.596" fill="" stroke="#000000" stroke-width="0.65" />
<polyline points="210.3199999999997,65.90999999999997 210.3199999999997,95.096" fill="" stroke="#000000" stroke-width="0.65" />
<polyline points="210.3199999999997,9.785999999999945 210.3199999999997,26.346000000000004" fill="" stroke="#000000" stroke-width="0.65" />
<polyline points="185.53999999999996,65.90999999999997 185.53999999999996,97.596" fill="" stroke="#000000" stroke-width="0.65" />
<polyline points="191.47000000000025,25.40700000000004 191.47000000000025,12.596000000000004" fill="" stroke="#000000" stroke-width="0.65" />
<polyline points="160.75,65.90999999999997 160.75,100.096" fill="" stroke="#000000" stroke-width="0.65" />
<polyline points="166.6899999999996,25.40700000000004 166.6899999999996,12.596000000000004" fill="" stroke="#000000" stroke-width="0.65" />
<polyline points="133.27999999999975,29.785999999999945 133.27999999999975,48.846000000000004" fill="" stroke="#000000" stroke-width="0.65" />
<polyline points="114.92000000000007,65.90999999999997 114.92000000000007,100.096" fill="" stroke="#000000" stroke-width="0.65" />
<polyline points="114.92000000000007,27.285999999999945 114.92000000000007,46.763000000000034" fill="" stroke="#000000" stroke-width="0.65" />
<polyline points="96.56999999999971,84.78599999999994 96.56999999999971,100.096" fill="" stroke="#000000" stroke-width="0.65" />
<polyline points="96.56999999999971,29.785999999999945 96.56999999999971,44.67999999999995" fill="" stroke="#000000" stroke-width="0.65" />
<polyline points="78.21000000000004,65.90999999999997 78.21000000000004,100.096" fill="" stroke="#000000" stroke-width="0.65" />
<polyline points="78.21000000000004,19.785999999999945 78.21000000000004,42.596000000000004" fill="" stroke="#000000" stroke-width="0.65" />
<polyline points="41.5,65.90999999999997 41.5,98.846" fill="" stroke="#000000" stroke-width="0.65" />
<polyline points="41.5,19.785999999999945 41.5,33.846000000000004" fill="" stroke="#000000" stroke-width="0.65" />
<polyline points="12.11999999999989,65.90999999999997 12.11999999999989,98.846" fill="" stroke="#000000" stroke-width="0.65" />
<polyline points="12.11999999999989,19.785999999999945 12.11999999999989,33.846000000000004" fill="" stroke="#000000" stroke-width="0.65" />
<polyline points="208.5,8.846000000000004 218.07999999999993,8.846000000000004" fill="" stroke="#000000" stroke-width="0.80" />
<polyline points="0.0,38.846000000000004 1.5200000000004366,38.846000000000004" fill="" stroke="#000000" stroke-width="0.80" />
</svg>
