<?xml version="1.0" encoding="UTF-8" standalone="yes"?>
<svg width="256.0px" height="256.0px" xmlns="http://www.w3.org/2000/svg" xmlns:xlink="http://www.w3.org/1999/xlink" version="1.2" baseProfile="tiny">
<polyline points="0.0,63.3465 255.0,63.3465" fill="none" stroke="#000000" stroke-width="0.40" />
<polyline points="0.0,68.3465 255.0,68.3465" fill="none" stroke="#000000" stroke-width="0.40" />
<polyline points="0.0,73.3465 255.0,73.3465" fill="none" stroke="#000000" stroke-width="0.40" />
<polyline points="0.0,78.3465 255.0,78.3465" fill="none" stroke="#000000" stroke-width="0.40" />
<polyline points="0.0,83.3465 255.0,83.3465" fill="none" stroke="#000000" stroke-width="0.40" />
<polyline points="0.0,115.846 255.0,115.846" fill="none" stroke="#000000" stroke-width="0.40" />
<polyline points="0.0,120.846 255.0,120.846" fill="none" stroke="#000000" stroke-width="0.40" />
<polyline points="0.0,125.846 255.0,125.846" fill="none" stroke="#000000" stroke-width="0.40" />
<polyline points="0.0,130.846 255.0,130.846" fill="none" stroke="#000000" stroke-width="0.40" />
<polyline points="0.0,135.846 255.0,135.846" fill="none" stroke="#000000" stroke-width="0.40" />
<polyline points="0.0,168.346 255.0,168.346" fill="none" stroke="#000000" stroke-width="0.40" />
<polyline points="0.0,173.346 255.0,173.346" fill="none" stroke="#000000" stroke-width="0.40" />
<polyline points="0.0,178.346 255.0,178.346" fill="none" stroke="#000000" stroke-width="0.40" />
<polyline points="0.0,183.346 255.0,183.346" fill="none" stroke="#000000" stroke-width="0.40" />
<polyline points="0.0,188.346 255.0,188.346" fill="none" stroke="#000000" stroke-width="0.40" />
<polyline points="0.0,220.846 255.0,220.846" fill="none" stroke="#000000" stroke-width="0.40" />
<polyline points="0.0,225.846 255.0,225.846" fill="none" stroke="#000000" stroke-width="0.40" />
<polyline points="0.0,230.846 255.0,230.846" fill="none" stroke="#000000" stroke-width="0.40" />
<polyline points="0.0,235.846 255.0,235.846" fill="none" stroke="#000000" stroke-width="0.40" />
<polyline points="0.0,240.846 255.0,240.846" fill="none" stroke="#000000" stroke-width="0.40" />
<polyline points="68.01000000000022,220.846 68.01000000000022,240.846" fill="" stroke="#000000" stroke-width="0.80" />
<polyline points="68.01000000000022,168.346 68.01000000000022,188.346" fill="" stroke="#000000" stroke-width="0.80" />
<polyline points="68.01000000000022,115.846 68.01000000000022,135.846" fill="" stroke="#000000" stroke-width="0.80" />
<polyline points="68.01000000000022,63.3465 68.01000000000022,83.3465" fill="" stroke="#000000" stroke-width="0.80" />
<polyline points="251.60000000000036,227.407 251.60000000000036,212.096" fill="" stroke="#000000" stroke-width="0.65" />
<polyline points="212.77000000000044,234.907 212.77000000000044,220.846" fill="" stroke="#000000" stroke-width="0.65" />
<polyline points="188.8800000000001,234.907 188.8800000000001,220.846" fill="" stroke="#000000" stroke-width="0.65" />
<polyline points="189.0600000000004,195.078 189.0600000000004,158.971" fill="" stroke="#000000" stroke-width="0.65" />
<polyline points="169.60000000000036,232.407 169.60000000000036,215.846" fill="" stroke="#000000" stroke-width="0.65" />
<polyline points="106.88000000000011,232.407 106.88000000000011,219.596" fill="" stroke="#000000" stroke-width="0.65" />
<polyline points="82.97999999999956,232.407 82.97999999999956,219.596" fill="" stroke="#000000" stroke-width="0.65" />
<polyline points="83.17000000000007,192.578 83.17000000000007,157.096" fill="" stroke="#000000" stroke-width="0.65" />
<polyline points="49.039999999999964,236.786 49.039999999999964,254.596" fill="" stroke="#000000" stroke-width="0.65" />
<polyline points="30.140000000000327,236.786 30.140000000000327,251.263" fill="" stroke="#000000" stroke-width="0.65" />
<polyline points="36.06999999999971,194.907 36.06999999999971,158.346" fill="" stroke="#000000" stroke-width="0.65" />
<polyline points="30.140000000000327,96.7855 30.140000000000327,124.596" fill="" stroke="#000000" stroke-width="0.65" />
<polyline points="36.06999999999971,72.4074 36.06999999999971,58.3465" fill="" stroke="#000000" stroke-width="0.65" />
<polyline points="11.239999999999782,219.286 11.239999999999782,247.93" fill="" stroke="#000000" stroke-width="0.65" />
<polyline points="11.239999999999782,101.786 11.239999999999782,125.221" fill="" stroke="#000000" stroke-width="0.65" />
<polyline points="17.18000000000029,77.4074 17.18000000000029,60.8465" fill="" stroke="#000000" stroke-width="0.65" />
<polyline points="180.9399999999996,193.346 190.89000000000033,193.346" fill="" stroke="#000000" stroke-width="0.80" />
<polyline points="75.05000000000018,193.346 84.98999999999978,193.346" fill="" stroke="#000000" stroke-width="0.80" />
<polyline points="28.31999999999971,193.346 37.899999999999636,193.346" fill="" stroke="#000000" stroke-width="0.80" />
<polyline points="28.31999999999971,95.8465 37.899999999999636,95.8465" fill="" stroke="#000000" stroke-width="0.80" />
<polyline points="28.31999999999971,100.846 37.899999999999636,100.846" fill="" stroke="#000000" stroke-width="0.80" />
<polyline points="28.31999999999971,105.846 37.899999999999636,105.846" fill="" stroke="#000000" stroke-width="0.80" />
<polyline points="28.31999999999971,110.846 37.899999999999636,110.846" fill="" stroke="#000000" stroke-width="0.80" />
<polyline points="9.420000000000073,100.846 19.0,100.846" fill="" stroke="#000000" stroke-width="0.80" />
<polyline points="9.420000000000073,105.846 19.0,105.846" fill="" stroke="#000000" stroke-width="0.80" />
<polyline points="9.420000000000073,110.846 19.0,110.846" fill="" stroke="#000000" stroke-width="0.80" />
<polyline points="0.0,193.346 0.1000000000003638,193.346" fill="" stroke="#000000" stroke-width="0.80" />
<polyline points="0.0,105.846 0.1000000000003638,105.846" fill="" stroke="#000000" stroke-width="0.80" />
<polyline points="0.0,110.846 0.1000000000003638,110.846" fill="" stroke="#000000" stroke-width="0.80" />
</svg>
