<?xml version="1.0" encoding="UTF-8" standalone="yes"?>
<svg width="256.0px" height="256.0px" xmlns="http://www.w3.org/2000/svg" xmlns:xlink="http://www.w3.org/1999/xlink" version="1.2" baseProfile="tiny">
<polyline points="0.0,63.3465 255.0,63.3465" fill="none" stroke="#000000" stroke-width="0.40" />
<polyline points="0.0,68.3465 255.0,68.3465" fill="none" stroke="#000000" stroke-width="0.40" />
<polyline points="0.0,73.3465 255.0,73.3465" fill="none" stroke="#000000" stroke-width="0.40" />
<polyline points="0.0,78.3465 255.0,78.3465" fill="none" stroke="#000000" stroke-width="0.40" />
<polyline points="0.0,83.3465 255.0,83.3465" fill="none" stroke="#000000" stroke-width="0.40" />
<polyline points="0.0,115.846 255.0,115.846" fill="none" stroke="#000000" stroke-width="0.40" />
<polyline points="0.0,120.846 255.0,120.846" fill="none" stroke="#000000" stroke-width="0.40" />
<polyline points="0.0,125.846 255.0,125.846" fill="none" stroke="#000000" stroke-width="0.40" />
<polyline points="0.0,130.846 255.0,130.846" fill="none" stroke="#000000" stroke-width="0.40" />
<polyline points="0.0,135.846 255.0,135.846" fill="none" stroke="#000000" stroke-width="0.40" />
<polyline points="0.0,168.346 255.0,168.346" fill="none" stroke="#000000" stroke-width="0.40" />
<polyline points="0.0,173.346 255.0,173.346" fill="none" stroke="#000000" stroke-width="0.40" />
<polyline points="0.0,178.346 255.0,178.346" fill="none" stroke="#000000" stroke-width="0.40" />
<polyline points="0.0,183.346 255.0,183.346" fill="none" stroke="#000000" stroke-width="0.40" />
<polyline points="0.0,188.346 255.0,188.346" fill="none" stroke="#000000" stroke-width="0.40" />
<polyline points="0.0,220.846 255.0,220.846" fill="none" stroke="#000000" stroke-width="0.40" />
<polyline points="0.0,225.846 255.0,225.846" fill="none" stroke="#000000" stroke-width="0.40" />
<polyline points="0.0,230.846 255.0,230.846" fill="none" stroke="#000000" stroke-width="0.40" />
<polyline points="0.0,235.846 255.0,235.846" fill="none" stroke="#000000" stroke-width="0.40" />
<polyline points="0.0,240.846 255.0,240.846" fill="none" stroke="#000000" stroke-width="0.40" />
<polyline points="56.81999999999971,220.846 56.81999999999971,240.846" fill="" stroke="#000000" stroke-width="0.80" />
<polyline points="56.81999999999971,168.346 56.81999999999971,188.346" fill="" stroke="#000000" stroke-width="0.80" />
<polyline points="56.81999999999971,115.846 56.81999999999971,135.846" fill="" stroke="#000000" stroke-width="0.80" />
<polyline points="56.81999999999971,63.3465 56.81999999999971,83.3465" fill="" stroke="#000000" stroke-width="0.80" />
<polyline points="245.60999999999967,226.786 245.60999999999967,242.096" fill="" stroke="#000000" stroke-width="0.65" />
<polyline points="251.55000000000018,198.862 251.55000000000018,158.941" fill="" stroke="#000000" stroke-width="0.65" />
<polyline points="222.35999999999967,219.286 222.35999999999967,244.6" fill="" stroke="#000000" stroke-width="0.65" />
<polyline points="228.30000000000018,194.907 228.30000000000018,158.346" fill="" stroke="#000000" stroke-width="0.65" />
<polyline points="222.35999999999967,86.7855 222.35999999999967,125.846" fill="" stroke="#000000" stroke-width="0.65" />
<polyline points="222.35999999999967,64.2855 222.35999999999967,80.8465" fill="" stroke="#000000" stroke-width="0.65" />
<polyline points="199.17000000000007,226.786 199.17000000000007,247.098" fill="" stroke="#000000" stroke-width="0.65" />
<polyline points="205.10000000000036,194.907 205.10000000000036,159.596" fill="" stroke="#000000" stroke-width="0.65" />
<polyline points="199.17000000000007,86.7855 199.17000000000007,124.596" fill="" stroke="#000000" stroke-width="0.65" />
<polyline points="199.17000000000007,64.2855 199.17000000000007,78.3465" fill="" stroke="#000000" stroke-width="0.65" />
<polyline points="175.97999999999956,236.786 175.97999999999956,249.596" fill="" stroke="#000000" stroke-width="0.65" />
<polyline points="181.90999999999985,194.907 181.90999999999985,159.596" fill="" stroke="#000000" stroke-width="0.65" />
<polyline points="175.97999999999956,86.7855 175.97999999999956,124.596" fill="" stroke="#000000" stroke-width="0.65" />
<polyline points="175.97999999999956,64.2855 175.97999999999956,78.3465" fill="" stroke="#000000" stroke-width="0.65" />
<polyline points="146.98999999999978,224.286 146.98999999999978,240.846" fill="" stroke="#000000" stroke-width="0.65" />
<polyline points="146.98999999999978,84.2855 146.98999999999978,124.596" fill="" stroke="#000000" stroke-width="0.65" />
<polyline points="146.98999999999978,61.7855 146.98999999999978,77.0965" fill="" stroke="#000000" stroke-width="0.65" />
<polyline points="123.80000000000018,216.786 123.80000000000018,242.77" fill="" stroke="#000000" stroke-width="0.65" />
<polyline points="129.72999999999956,192.407 129.72999999999956,157.096" fill="" stroke="#000000" stroke-width="0.65" />
<polyline points="123.80000000000018,86.7855 123.80000000000018,125.846" fill="" stroke="#000000" stroke-width="0.65" />
<polyline points="123.80000000000018,64.2855 123.80000000000018,78.3465" fill="" stroke="#000000" stroke-width="0.65" />
<polyline points="109.30000000000018,84.2855 109.30000000000018,125.846" fill="" stroke="#000000" stroke-width="0.65" />
<polyline points="109.30000000000018,61.7855 109.30000000000018,77.0965" fill="" stroke="#000000" stroke-width="0.65" />
<polyline points="94.8100000000004,224.286 94.8100000000004,245.173" fill="" stroke="#000000" stroke-width="0.65" />
<polyline points="71.60999999999967,234.286 71.60999999999967,247.096" fill="" stroke="#000000" stroke-width="0.65" />
<polyline points="77.55000000000018,192.407 77.55000000000018,157.096" fill="" stroke="#000000" stroke-width="0.65" />
<polyline points="71.60999999999967,76.7855 71.60999999999967,124.596" fill="" stroke="#000000" stroke-width="0.65" />
<polyline points="71.60999999999967,54.2855 71.60999999999967,73.3465" fill="" stroke="#000000" stroke-width="0.65" />
<polyline points="39.43000000000029,224.286 39.43000000000029,240.846" fill="" stroke="#000000" stroke-width="0.65" />
<polyline points="22.109999999999673,226.786 22.109999999999673,240.846" fill="" stroke="#000000" stroke-width="0.65" />
<polyline points="28.039999999999964,193.862 28.039999999999964,159.596" fill="" stroke="#000000" stroke-width="0.65" />
<polyline points="22.109999999999673,76.7855 22.109999999999673,124.596" fill="" stroke="#000000" stroke-width="0.65" />
<polyline points="22.109999999999673,54.2855 22.109999999999673,72.0965" fill="" stroke="#000000" stroke-width="0.65" />
<polyline points="4.789999999999964,216.786 4.789999999999964,240.846" fill="" stroke="#000000" stroke-width="0.65" />
<polyline points="4.789999999999964,76.7855 4.789999999999964,124.596" fill="" stroke="#000000" stroke-width="0.65" />
<polyline points="4.789999999999964,54.2855 4.789999999999964,72.0965" fill="" stroke="#000000" stroke-width="0.65" />
<polyline points="243.78999999999996,193.346 253.3699999999999,193.346" fill="" stroke="#000000" stroke-width="0.80" />
<polyline points="243.78999999999996,198.346 253.3699999999999,198.346" fill="" stroke="#000000" stroke-width="0.80" />
<polyline points="220.53999999999996,193.346 230.1199999999999,193.346" fill="" stroke="#000000" stroke-width="0.80" />
<polyline points="220.53999999999996,85.8465 230.1199999999999,85.8465" fill="" stroke="#000000" stroke-width="0.80" />
<polyline points="220.53999999999996,90.8465 230.1199999999999,90.8465" fill="" stroke="#000000" stroke-width="0.80" />
<polyline points="220.53999999999996,95.8465 230.1199999999999,95.8465" fill="" stroke="#000000" stroke-width="0.80" />
<polyline points="220.53999999999996,100.846 230.1199999999999,100.846" fill="" stroke="#000000" stroke-width="0.80" />
<polyline points="220.53999999999996,105.846 230.1199999999999,105.846" fill="" stroke="#000000" stroke-width="0.80" />
<polyline points="220.53999999999996,110.846 230.1199999999999,110.846" fill="" stroke="#000000" stroke-width="0.80" />
<polyline points="197.35000000000036,193.346 206.9300000000003,193.346" fill="" stroke="#000000" stroke-width="0.80" />
<polyline points="197.35000000000036,85.8465 206.9300000000003,85.8465" fill="" stroke="#000000" stroke-width="0.80" />
<polyline points="197.35000000000036,90.8465 206.9300000000003,90.8465" fill="" stroke="#000000" stroke-width="0.80" />
<polyline points="197.35000000000036,95.8465 206.9300000000003,95.8465" fill="" stroke="#000000" stroke-width="0.80" />
<polyline points="197.35000000000036,100.846 206.9300000000003,100.846" fill="" stroke="#000000" stroke-width="0.80" />
<polyline points="197.35000000000036,105.846 206.9300000000003,105.846" fill="" stroke="#000000" stroke-width="0.80" />
<polyline points="197.35000000000036,110.846 206.9300000000003,110.846" fill="" stroke="#000000" stroke-width="0.80" />
<polyline points="174.14999999999964,193.346 183.73999999999978,193.346" fill="" stroke="#000000" stroke-width="0.80" />
<polyline points="174.14999999999964,85.8465 183.73999999999978,85.8465" fill="" stroke="#000000" stroke-width="0.80" />
<polyline points="174.14999999999964,90.8465 183.73999999999978,90.8465" fill="" stroke="#000000" stroke-width="0.80" />
<polyline points="174.14999999999964,95.8465 183.73999999999978,95.8465" fill="" stroke="#000000" stroke-width="0.80" />
<polyline points="174.14999999999964,100.846 183.73999999999978,100.846" fill="" stroke="#000000" stroke-width="0.80" />
<polyline points="174.14999999999964,105.846 183.73999999999978,105.846" fill="" stroke="#000000" stroke-width="0.80" />
<polyline points="174.14999999999964,110.846 183.73999999999978,110.846" fill="" stroke="#000000" stroke-width="0.80" />
<polyline points="145.15999999999985,85.8465 154.75,85.8465" fill="" stroke="#000000" stroke-width="0.80" />
<polyline points="145.15999999999985,90.8465 154.75,90.8465" fill="" stroke="#000000" stroke-width="0.80" />
<polyline points="145.15999999999985,95.8465 154.75,95.8465" fill="" stroke="#000000" stroke-width="0.80" />
<polyline points="145.15999999999985,100.846 154.75,100.846" fill="" stroke="#000000" stroke-width="0.80" />
<polyline points="145.15999999999985,105.846 154.75,105.846" fill="" stroke="#000000" stroke-width="0.80" />
<polyline points="145.15999999999985,110.846 154.75,110.846" fill="" stroke="#000000" stroke-width="0.80" />
<polyline points="121.97000000000025,215.846 131.55000000000018,215.846" fill="" stroke="#000000" stroke-width="0.80" />
<polyline points="121.97000000000025,193.346 131.55000000000018,193.346" fill="" stroke="#000000" stroke-width="0.80" />
<polyline points="121.97000000000025,85.8465 131.55000000000018,85.8465" fill="" stroke="#000000" stroke-width="0.80" />
<polyline points="121.97000000000025,90.8465 131.55000000000018,90.8465" fill="" stroke="#000000" stroke-width="0.80" />
<polyline points="121.97000000000025,95.8465 131.55000000000018,95.8465" fill="" stroke="#000000" stroke-width="0.80" />
<polyline points="121.97000000000025,100.846 131.55000000000018,100.846" fill="" stroke="#000000" stroke-width="0.80" />
<polyline points="121.97000000000025,105.846 131.55000000000018,105.846" fill="" stroke="#000000" stroke-width="0.80" />
<polyline points="121.97000000000025,110.846 131.55000000000018,110.846" fill="" stroke="#000000" stroke-width="0.80" />
<polyline points="107.47999999999956,85.8465 117.0600000000004,85.8465" fill="" stroke="#000000" stroke-width="0.80" />
<polyline points="107.47999999999956,90.8465 117.0600000000004,90.8465" fill="" stroke="#000000" stroke-width="0.80" />
<polyline points="107.47999999999956,95.8465 117.0600000000004,95.8465" fill="" stroke="#000000" stroke-width="0.80" />
<polyline points="107.47999999999956,100.846 117.0600000000004,100.846" fill="" stroke="#000000" stroke-width="0.80" />
<polyline points="107.47999999999956,105.846 117.0600000000004,105.846" fill="" stroke="#000000" stroke-width="0.80" />
<polyline points="107.47999999999956,110.846 117.0600000000004,110.846" fill="" stroke="#000000" stroke-width="0.80" />
<polyline points="69.78999999999996,193.346 79.36999999999989,193.346" fill="" stroke="#000000" stroke-width="0.80" />
<polyline points="69.78999999999996,75.8465 79.36999999999989,75.8465" fill="" stroke="#000000" stroke-width="0.80" />
<polyline points="63.85999999999967,80.8465 79.36999999999989,80.8465" fill="" stroke="#000000" stroke-width="0.80" />
<polyline points="63.85999999999967,85.8465 79.36999999999989,85.8465" fill="" stroke="#000000" stroke-width="0.80" />
<polyline points="63.85999999999967,90.8465 79.36999999999989,90.8465" fill="" stroke="#000000" stroke-width="0.80" />
<polyline points="63.85999999999967,95.8465 79.36999999999989,95.8465" fill="" stroke="#000000" stroke-width="0.80" />
<polyline points="63.85999999999967,100.846 79.36999999999989,100.846" fill="" stroke="#000000" stroke-width="0.80" />
<polyline points="63.85999999999967,105.846 79.36999999999989,105.846" fill="" stroke="#000000" stroke-width="0.80" />
<polyline points="63.85999999999967,110.846 79.36999999999989,110.846" fill="" stroke="#000000" stroke-width="0.80" />
<polyline points="69.78999999999996,53.3465 79.36999999999989,53.3465" fill="" stroke="#000000" stroke-width="0.80" />
<polyline points="63.85999999999967,58.3465 79.36999999999989,58.3465" fill="" stroke="#000000" stroke-width="0.80" />
<polyline points="20.279999999999745,193.346 29.86999999999989,193.346" fill="" stroke="#000000" stroke-width="0.80" />
<polyline points="20.279999999999745,75.8465 29.86999999999989,75.8465" fill="" stroke="#000000" stroke-width="0.80" />
<polyline points="20.279999999999745,80.8465 29.86999999999989,80.8465" fill="" stroke="#000000" stroke-width="0.80" />
<polyline points="20.279999999999745,85.8465 29.86999999999989,85.8465" fill="" stroke="#000000" stroke-width="0.80" />
<polyline points="20.279999999999745,90.8465 29.86999999999989,90.8465" fill="" stroke="#000000" stroke-width="0.80" />
<polyline points="20.279999999999745,95.8465 29.86999999999989,95.8465" fill="" stroke="#000000" stroke-width="0.80" />
<polyline points="20.279999999999745,100.846 29.86999999999989,100.846" fill="" stroke="#000000" stroke-width="0.80" />
<polyline points="20.279999999999745,105.846 29.86999999999989,105.846" fill="" stroke="#000000" stroke-width="0.80" />
<polyline points="20.279999999999745,110.846 29.86999999999989,110.846" fill="" stroke="#000000" stroke-width="0.80" />
<polyline points="20.279999999999745,53.3465 29.86999999999989,53.3465" fill="" stroke="#000000" stroke-width="0.80" />
<polyline points="20.279999999999745,58.3465 29.86999999999989,58.3465" fill="" stroke="#000000" stroke-width="0.80" />
<polyline points="2.9600000000000364,215.846 12.550000000000182,215.846" fill="" stroke="#000000" stroke-width="0.80" />
<polyline points="2.9600000000000364,75.8465 12.550000000000182,75.8465" fill="" stroke="#000000" stroke-width="0.80" />
<polyline points="2.9600000000000364,80.8465 12.550000000000182,80.8465" fill="" stroke="#000000" stroke-width="0.80" />
<polyline points="2.9600000000000364,85.8465 12.550000000000182,85.8465" fill="" stroke="#000000" stroke-width="0.80" />
<polyline points="2.9600000000000364,90.8465 12.550000000000182,90.8465" fill="" stroke="#000000" stroke-width="0.80" />
<polyline points="2.9600000000000364,95.8465 12.550000000000182,95.8465" fill="" stroke="#000000" stroke-width="0.80" />
<polyline points="2.9600000000000364,100.846 12.550000000000182,100.846" fill="" stroke="#000000" stroke-width="0.80" />
<polyline points="2.9600000000000364,105.846 12.550000000000182,105.846" fill="" stroke="#000000" stroke-width="0.80" />
<polyline points="2.9600000000000364,110.846 12.550000000000182,110.846" fill="" stroke="#000000" stroke-width="0.80" />
<polyline points="2.9600000000000364,53.3465 12.550000000000182,53.3465" fill="" stroke="#000000" stroke-width="0.80" />
<polyline points="2.9600000000000364,58.3465 12.550000000000182,58.3465" fill="" stroke="#000000" stroke-width="0.80" />
<polyline points="74.4399999999996,105.846 79.4399999999996,105.846" fill="" stroke="#000000" stroke-width="0.75" />
<polyline points="74.4399999999996,53.3465 79.4399999999996,53.3465" fill="" stroke="#000000" stroke-width="0.75" />
</svg>
