<?xml version="1.0" encoding="UTF-8" standalone="yes"?>
<svg width="256.0px" height="256.0px" xmlns="http://www.w3.org/2000/svg" xmlns:xlink="http://www.w3.org/1999/xlink" version="1.2" baseProfile="tiny">
<polyline points="9.829999999999927,17.346000000000004 255.0,17.346000000000004" fill="none" stroke="#000000" stroke-width="0.40" />
<polyline points="9.829999999999927,22.346000000000004 255.0,22.346000000000004" fill="none" stroke="#000000" stroke-width="0.40" />
<polyline points="9.829999999999927,27.346000000000004 255.0,27.346000000000004" fill="none" stroke="#000000" stroke-width="0.40" />
<polyline points="9.829999999999927,32.346000000000004 255.0,32.346000000000004" fill="none" stroke="#000000" stroke-width="0.40" />
<polyline points="9.829999999999927,37.346000000000004 255.0,37.346000000000004" fill="none" stroke="#000000" stroke-width="0.40" />
<polyline points="9.829999999999927,112.346 255.0,112.346" fill="none" stroke="#000000" stroke-width="0.40" />
<polyline points="9.829999999999927,117.346 255.0,117.346" fill="none" stroke="#000000" stroke-width="0.40" />
<polyline points="9.829999999999927,122.346 255.0,122.346" fill="none" stroke="#000000" stroke-width="0.40" />
<polyline points="9.829999999999927,127.346 255.0,127.346" fill="none" stroke="#000000" stroke-width="0.40" />
<polyline points="9.829999999999927,132.346 255.0,132.346" fill="none" stroke="#000000" stroke-width="0.40" />
<polyline points="9.829999999999927,164.846 255.0,164.846" fill="none" stroke="#000000" stroke-width="0.40" />
<polyline points="9.829999999999927,169.846 255.0,169.846" fill="none" stroke="#000000" stroke-width="0.40" />
<polyline points="9.829999999999927,174.846 255.0,174.846" fill="none" stroke="#000000" stroke-width="0.40" />
<polyline points="9.829999999999927,179.846 255.0,179.846" fill="none" stroke="#000000" stroke-width="0.40" />
<polyline points="9.829999999999927,184.846 255.0,184.846" fill="none" stroke="#000000" stroke-width="0.40" />
<polyline points="9.829999999999927,217.346 255.0,217.346" fill="none" stroke="#000000" stroke-width="0.40" />
<polyline points="9.829999999999927,222.346 255.0,222.346" fill="none" stroke="#000000" stroke-width="0.40" />
<polyline points="9.829999999999927,227.346 255.0,227.346" fill="none" stroke="#000000" stroke-width="0.40" />
<polyline points="9.829999999999927,232.346 255.0,232.346" fill="none" stroke="#000000" stroke-width="0.40" />
<polyline points="9.829999999999927,237.346 255.0,237.346" fill="none" stroke="#000000" stroke-width="0.40" />
<polyline points="10.229999999999563,112.346 10.229999999999563,255.0" fill="" stroke="#000000" stroke-width="0.80" />
<polyline points="10.229999999999563,0.0 10.229999999999563,37.346000000000004" fill="" stroke="#000000" stroke-width="0.80" />
<polyline points="50.64000000000033,142.221 44.18000000000029,146.221" fill="" stroke="#000000" stroke-width="0.65" />
<polyline points="54.340000000000146,119.721 47.88000000000011,123.721" fill="" stroke="#000000" stroke-width="0.65" />
<polyline points="251.3699999999999,155.786 251.3699999999999,173.596" fill="" stroke="#000000" stroke-width="0.65" />
<polyline points="239.17000000000007,243.90699999999998 239.17000000000007,207.346" fill="" stroke="#000000" stroke-width="0.65" />
<polyline points="221.03999999999996,243.90699999999998 221.03999999999996,207.346" fill="" stroke="#000000" stroke-width="0.65" />
<polyline points="178.84000000000015,153.286 178.84000000000015,174.846" fill="" stroke="#000000" stroke-width="0.65" />
<polyline points="184.77999999999975,128.90699999999998 184.77999999999975,112.346" fill="" stroke="#000000" stroke-width="0.65" />
<polyline points="113.56999999999971,153.286 113.56999999999971,174.846" fill="" stroke="#000000" stroke-width="0.65" />
<polyline points="119.51000000000022,128.90699999999998 119.51000000000022,112.346" fill="" stroke="#000000" stroke-width="0.65" />
<polyline points="61.67000000000007,241.57799999999997 61.67000000000007,209.846" fill="" stroke="#000000" stroke-width="0.65" />
<polyline points="46.590000000000146,154.18900000000002 46.590000000000146,138.221" fill="" stroke="#000000" stroke-width="0.65" />
<polyline points="55.55000000000018,153.286 55.55000000000018,174.846" fill="" stroke="#000000" stroke-width="0.65" />
<polyline points="50.289999999999964,131.68900000000002 50.289999999999964,115.721" fill="" stroke="#000000" stroke-width="0.65" />
<polyline points="61.48999999999978,128.90699999999998 61.48999999999978,112.346" fill="" stroke="#000000" stroke-width="0.65" />
<polyline points="248.34000000000015,16.910000000000025 248.34000000000015,41.096000000000004" fill="" stroke="#000000" stroke-width="0.65" />
<polyline points="206.3800000000001,16.910000000000025 206.3800000000001,49.846000000000004" fill="" stroke="#000000" stroke-width="0.65" />
<polyline points="179.09000000000015,16.910000000000025 179.09000000000015,49.846000000000004" fill="" stroke="#000000" stroke-width="0.65" />
<polyline points="141.28999999999996,16.910000000000025 141.28999999999996,51.096000000000004" fill="" stroke="#000000" stroke-width="0.65" />
<polyline points="122.39000000000033,16.910000000000025 122.39000000000033,51.096000000000004" fill="" stroke="#000000" stroke-width="0.65" />
<polyline points="103.48999999999978,16.910000000000025 103.48999999999978,51.096000000000004" fill="" stroke="#000000" stroke-width="0.65" />
<polyline points="76.19999999999982,16.910000000000025 76.19999999999982,49.846000000000004" fill="" stroke="#000000" stroke-width="0.65" />
<polyline points="48.909999999999854,16.910000000000025 48.909999999999854,49.846000000000004" fill="" stroke="#000000" stroke-width="0.65" />
<polyline points="249.53999999999996,242.346 255.0,242.346" fill="" stroke="#000000" stroke-width="0.80" />
<polyline points="249.53999999999996,154.846 255.0,154.846" fill="" stroke="#000000" stroke-width="0.80" />
<polyline points="249.53999999999996,159.846 255.0,159.846" fill="" stroke="#000000" stroke-width="0.80" />
<polyline points="231.40999999999985,242.346 240.98999999999978,242.346" fill="" stroke="#000000" stroke-width="0.80" />
<polyline points="213.27999999999975,242.346 222.85999999999967,242.346" fill="" stroke="#000000" stroke-width="0.80" />
<polyline points="177.02000000000044,154.846 186.60000000000036,154.846" fill="" stroke="#000000" stroke-width="0.80" />
<polyline points="177.02000000000044,159.846 186.60000000000036,159.846" fill="" stroke="#000000" stroke-width="0.80" />
<polyline points="111.75,154.846 121.32999999999993,154.846" fill="" stroke="#000000" stroke-width="0.80" />
<polyline points="111.75,159.846 121.32999999999993,159.846" fill="" stroke="#000000" stroke-width="0.80" />
<polyline points="53.55000000000018,242.346 63.48999999999978,242.346" fill="" stroke="#000000" stroke-width="0.80" />
<polyline points="40.80000000000018,154.846 48.409999999999854,154.846" fill="" stroke="#000000" stroke-width="0.56" />
<polyline points="40.80000000000018,159.846 48.409999999999854,159.846" fill="" stroke="#000000" stroke-width="0.56" />
<polyline points="53.72999999999956,154.846 63.3100000000004,154.846" fill="" stroke="#000000" stroke-width="0.80" />
<polyline points="53.72999999999956,159.846 63.3100000000004,159.846" fill="" stroke="#000000" stroke-width="0.80" />
</svg>
