<?xml version="1.0" encoding="UTF-8" standalone="yes"?>
<svg width="256.0px" height="256.0px" xmlns="http://www.w3.org/2000/svg" xmlns:xlink="http://www.w3.org/1999/xlink" version="1.2" baseProfile="tiny">
<polyline points="9.829999999999927,13.846000000000004 255.0,13.846000000000004" fill="none" stroke="#000000" stroke-width="0.40" />
<polyline points="9.829999999999927,18.846000000000004 255.0,18.846000000000004" fill="none" stroke="#000000" stroke-width="0.40" />
<polyline points="9.829999999999927,23.846000000000004 255.0,23.846000000000004" fill="none" stroke="#000000" stroke-width="0.40" />
<polyline points="9.829999999999927,28.846000000000004 255.0,28.846000000000004" fill="none" stroke="#000000" stroke-width="0.40" />
<polyline points="9.829999999999927,33.846000000000004 255.0,33.846000000000004" fill="none" stroke="#000000" stroke-width="0.40" />
<polyline points="9.829999999999927,66.346 255.0,66.346" fill="none" stroke="#000000" stroke-width="0.40" />
<polyline points="9.829999999999927,71.346 255.0,71.346" fill="none" stroke="#000000" stroke-width="0.40" />
<polyline points="9.829999999999927,76.346 255.0,76.346" fill="none" stroke="#000000" stroke-width="0.40" />
<polyline points="9.829999999999927,81.346 255.0,81.346" fill="none" stroke="#000000" stroke-width="0.40" />
<polyline points="9.829999999999927,86.346 255.0,86.346" fill="none" stroke="#000000" stroke-width="0.40" />
<polyline points="10.229999999999563,0.0 10.229999999999563,86.346" fill="" stroke="#000000" stroke-width="0.80" />
<polyline points="54.340000000000146,10.471000000000004 47.88000000000011,14.471000000000004" fill="" stroke="#000000" stroke-width="0.65" />
<polyline points="251.3699999999999,65.90999999999997 251.3699999999999,100.096" fill="" stroke="#000000" stroke-width="0.65" />
<polyline points="233.23999999999978,65.90999999999997 233.23999999999978,101.346" fill="" stroke="#000000" stroke-width="0.65" />
<polyline points="215.10999999999967,65.90999999999997 215.10999999999967,99.26300000000003" fill="" stroke="#000000" stroke-width="0.65" />
<polyline points="221.03999999999996,27.90700000000004 221.03999999999996,10.096000000000004" fill="" stroke="#000000" stroke-width="0.65" />
<polyline points="202.90999999999985,27.90700000000004 202.90999999999985,9.471000000000004" fill="" stroke="#000000" stroke-width="0.65" />
<polyline points="178.84000000000015,65.90999999999997 178.84000000000015,95.096" fill="" stroke="#000000" stroke-width="0.65" />
<polyline points="184.77999999999975,25.40700000000004 184.77999999999975,8.846000000000004" fill="" stroke="#000000" stroke-width="0.65" />
<polyline points="160.71000000000004,22.285999999999945 160.71000000000004,37.596000000000004" fill="" stroke="#000000" stroke-width="0.65" />
<polyline points="142.57999999999993,65.90999999999997 142.57999999999993,92.596" fill="" stroke="#000000" stroke-width="0.65" />
<polyline points="142.57999999999993,22.285999999999945 142.57999999999993,37.596000000000004" fill="" stroke="#000000" stroke-width="0.65" />
<polyline points="113.56999999999971,65.90999999999997 113.56999999999971,95.096" fill="" stroke="#000000" stroke-width="0.65" />
<polyline points="113.56999999999971,22.285999999999945 113.56999999999971,37.596000000000004" fill="" stroke="#000000" stroke-width="0.65" />
<polyline points="84.5600000000004,65.90999999999997 84.5600000000004,97.596" fill="" stroke="#000000" stroke-width="0.65" />
<polyline points="55.55000000000018,65.90999999999997 55.55000000000018,100.096" fill="" stroke="#000000" stroke-width="0.65" />
<polyline points="50.289999999999964,20.688999999999965 50.289999999999964,6.471000000000004" fill="" stroke="#000000" stroke-width="0.65" />
<polyline points="55.55000000000018,19.785999999999945 55.55000000000018,35.721000000000004" fill="" stroke="#000000" stroke-width="0.65" />
</svg>
