<?xml version="1.0" encoding="UTF-8" standalone="yes"?>
<svg width="256.0px" height="256.0px" xmlns="http://www.w3.org/2000/svg" xmlns:xlink="http://www.w3.org/1999/xlink" version="1.2" baseProfile="tiny">
<polyline points="0.0,17.346000000000004 255.0,17.346000000000004" fill="none" stroke="#000000" stroke-width="0.40" />
<polyline points="0.0,22.346000000000004 255.0,22.346000000000004" fill="none" stroke="#000000" stroke-width="0.40" />
<polyline points="0.0,27.346000000000004 255.0,27.346000000000004" fill="none" stroke="#000000" stroke-width="0.40" />
<polyline points="0.0,32.346000000000004 255.0,32.346000000000004" fill="none" stroke="#000000" stroke-width="0.40" />
<polyline points="0.0,37.346000000000004 255.0,37.346000000000004" fill="none" stroke="#000000" stroke-width="0.40" />
<polyline points="0.0,112.346 255.0,112.346" fill="none" stroke="#000000" stroke-width="0.40" />
<polyline points="0.0,117.346 255.0,117.346" fill="none" stroke="#000000" stroke-width="0.40" />
<polyline points="0.0,122.346 255.0,122.346" fill="none" stroke="#000000" stroke-width="0.40" />
<polyline points="0.0,127.346 255.0,127.346" fill="none" stroke="#000000" stroke-width="0.40" />
<polyline points="0.0,132.346 255.0,132.346" fill="none" stroke="#000000" stroke-width="0.40" />
<polyline points="0.0,164.846 255.0,164.846" fill="none" stroke="#000000" stroke-width="0.40" />
<polyline points="0.0,169.846 255.0,169.846" fill="none" stroke="#000000" stroke-width="0.40" />
<polyline points="0.0,174.846 255.0,174.846" fill="none" stroke="#000000" stroke-width="0.40" />
<polyline points="0.0,179.846 255.0,179.846" fill="none" stroke="#000000" stroke-width="0.40" />
<polyline points="0.0,184.846 255.0,184.846" fill="none" stroke="#000000" stroke-width="0.40" />
<polyline points="0.0,217.346 255.0,217.346" fill="none" stroke="#000000" stroke-width="0.40" />
<polyline points="0.0,222.346 255.0,222.346" fill="none" stroke="#000000" stroke-width="0.40" />
<polyline points="0.0,227.346 255.0,227.346" fill="none" stroke="#000000" stroke-width="0.40" />
<polyline points="0.0,232.346 255.0,232.346" fill="none" stroke="#000000" stroke-width="0.40" />
<polyline points="0.0,237.346 255.0,237.346" fill="none" stroke="#000000" stroke-width="0.40" />
<polyline points="151.71000000000004,217.346 151.71000000000004,237.346" fill="" stroke="#000000" stroke-width="0.80" />
<polyline points="151.71000000000004,164.846 151.71000000000004,184.846" fill="" stroke="#000000" stroke-width="0.80" />
<polyline points="151.71000000000004,112.346 151.71000000000004,132.346" fill="" stroke="#000000" stroke-width="0.80" />
<polyline points="144.09000000000015,17.346000000000004 144.09000000000015,37.346000000000004" fill="" stroke="#000000" stroke-width="0.80" />
<polyline points="210.3199999999997,138.286 210.3199999999997,174.846" fill="" stroke="#000000" stroke-width="0.65" />
<polyline points="210.3199999999997,115.786 210.3199999999997,132.346" fill="" stroke="#000000" stroke-width="0.65" />
<polyline points="185.53999999999996,150.786 185.53999999999996,173.596" fill="" stroke="#000000" stroke-width="0.65" />
<polyline points="191.47000000000025,126.40699999999998 191.47000000000025,112.346" fill="" stroke="#000000" stroke-width="0.65" />
<polyline points="166.8699999999999,241.57799999999997 166.8699999999999,206.096" fill="" stroke="#000000" stroke-width="0.65" />
<polyline points="160.75,160.786 160.75,176.096" fill="" stroke="#000000" stroke-width="0.65" />
<polyline points="166.6899999999996,136.40699999999998 166.6899999999996,117.346" fill="" stroke="#000000" stroke-width="0.65" />
<polyline points="120.85999999999967,247.86200000000002 120.85999999999967,209.846" fill="" stroke="#000000" stroke-width="0.65" />
<polyline points="84.14000000000033,243.90699999999998 84.14000000000033,207.346" fill="" stroke="#000000" stroke-width="0.65" />
<polyline points="78.21000000000004,138.286 78.21000000000004,174.846" fill="" stroke="#000000" stroke-width="0.65" />
<polyline points="78.21000000000004,115.786 78.21000000000004,137.971" fill="" stroke="#000000" stroke-width="0.65" />
<polyline points="65.78999999999996,243.90699999999998 65.78999999999996,207.346" fill="" stroke="#000000" stroke-width="0.65" />
<polyline points="59.850000000000364,135.786 59.850000000000364,173.596" fill="" stroke="#000000" stroke-width="0.65" />
<polyline points="59.850000000000364,113.286 59.850000000000364,137.346" fill="" stroke="#000000" stroke-width="0.65" />
<polyline points="47.43000000000029,243.90699999999998 47.43000000000029,207.346" fill="" stroke="#000000" stroke-width="0.65" />
<polyline points="41.5,138.286 41.5,173.596" fill="" stroke="#000000" stroke-width="0.65" />
<polyline points="41.5,115.786 41.5,137.346" fill="" stroke="#000000" stroke-width="0.65" />
<polyline points="12.11999999999989,145.786 12.11999999999989,173.596" fill="" stroke="#000000" stroke-width="0.65" />
<polyline points="12.11999999999989,123.286 12.11999999999989,137.346" fill="" stroke="#000000" stroke-width="0.65" />
<polyline points="231.51000000000022,16.910000000000025 231.51000000000022,43.596000000000004" fill="" stroke="#000000" stroke-width="0.65" />
<polyline points="205.3800000000001,16.910000000000025 205.3800000000001,46.096000000000004" fill="" stroke="#000000" stroke-width="0.65" />
<polyline points="179.26000000000022,16.910000000000025 179.26000000000022,48.596000000000004" fill="" stroke="#000000" stroke-width="0.65" />
<polyline points="153.1300000000001,16.910000000000025 153.1300000000001,51.096000000000004" fill="" stroke="#000000" stroke-width="0.65" />
<polyline points="97.67000000000007,16.910000000000025 97.67000000000007,46.096000000000004" fill="" stroke="#000000" stroke-width="0.65" />
<polyline points="59.5,16.910000000000025 59.5,48.422000000000025" fill="" stroke="#000000" stroke-width="0.65" />
<polyline points="21.329999999999927,16.910000000000025 21.329999999999927,50.74799999999999" fill="" stroke="#000000" stroke-width="0.65" />
<polyline points="208.5,139.846 218.07999999999993,139.846" fill="" stroke="#000000" stroke-width="0.80" />
<polyline points="208.5,144.846 218.07999999999993,144.846" fill="" stroke="#000000" stroke-width="0.80" />
<polyline points="208.5,149.846 218.07999999999993,149.846" fill="" stroke="#000000" stroke-width="0.80" />
<polyline points="208.5,154.846 218.07999999999993,154.846" fill="" stroke="#000000" stroke-width="0.80" />
<polyline points="208.5,159.846 218.07999999999993,159.846" fill="" stroke="#000000" stroke-width="0.80" />
<polyline points="183.71000000000004,149.846 193.30000000000018,149.846" fill="" stroke="#000000" stroke-width="0.80" />
<polyline points="183.71000000000004,154.846 193.30000000000018,154.846" fill="" stroke="#000000" stroke-width="0.80" />
<polyline points="183.71000000000004,159.846 193.30000000000018,159.846" fill="" stroke="#000000" stroke-width="0.80" />
<polyline points="158.75,242.346 168.6899999999996,242.346" fill="" stroke="#000000" stroke-width="0.80" />
<polyline points="158.9300000000003,159.846 168.51000000000022,159.846" fill="" stroke="#000000" stroke-width="0.80" />
<polyline points="158.9300000000003,137.346 168.51000000000022,137.346" fill="" stroke="#000000" stroke-width="0.80" />
<polyline points="113.10000000000036,242.346 122.68000000000029,242.346" fill="" stroke="#000000" stroke-width="0.80" />
<polyline points="113.10000000000036,247.346 122.68000000000029,247.346" fill="" stroke="#000000" stroke-width="0.80" />
<polyline points="76.39000000000033,242.346 85.97000000000025,242.346" fill="" stroke="#000000" stroke-width="0.80" />
<polyline points="76.39000000000033,139.846 85.97000000000025,139.846" fill="" stroke="#000000" stroke-width="0.80" />
<polyline points="76.39000000000033,144.846 85.97000000000025,144.846" fill="" stroke="#000000" stroke-width="0.80" />
<polyline points="76.39000000000033,149.846 85.97000000000025,149.846" fill="" stroke="#000000" stroke-width="0.80" />
<polyline points="76.39000000000033,154.846 85.97000000000025,154.846" fill="" stroke="#000000" stroke-width="0.80" />
<polyline points="76.39000000000033,159.846 85.97000000000025,159.846" fill="" stroke="#000000" stroke-width="0.80" />
<polyline points="58.029999999999745,242.346 67.60999999999967,242.346" fill="" stroke="#000000" stroke-width="0.80" />
<polyline points="58.029999999999745,134.846 67.60999999999967,134.846" fill="" stroke="#000000" stroke-width="0.80" />
<polyline points="58.029999999999745,139.846 67.60999999999967,139.846" fill="" stroke="#000000" stroke-width="0.80" />
<polyline points="58.029999999999745,144.846 67.60999999999967,144.846" fill="" stroke="#000000" stroke-width="0.80" />
<polyline points="58.029999999999745,149.846 67.60999999999967,149.846" fill="" stroke="#000000" stroke-width="0.80" />
<polyline points="58.029999999999745,154.846 67.60999999999967,154.846" fill="" stroke="#000000" stroke-width="0.80" />
<polyline points="58.029999999999745,159.846 67.60999999999967,159.846" fill="" stroke="#000000" stroke-width="0.80" />
<polyline points="39.67000000000007,242.346 49.25,242.346" fill="" stroke="#000000" stroke-width="0.80" />
<polyline points="39.67000000000007,139.846 49.25,139.846" fill="" stroke="#000000" stroke-width="0.80" />
<polyline points="39.67000000000007,144.846 49.25,144.846" fill="" stroke="#000000" stroke-width="0.80" />
<polyline points="39.67000000000007,149.846 49.25,149.846" fill="" stroke="#000000" stroke-width="0.80" />
<polyline points="39.67000000000007,154.846 49.25,154.846" fill="" stroke="#000000" stroke-width="0.80" />
<polyline points="39.67000000000007,159.846 49.25,159.846" fill="" stroke="#000000" stroke-width="0.80" />
<polyline points="10.300000000000182,144.846 19.88000000000011,144.846" fill="" stroke="#000000" stroke-width="0.80" />
<polyline points="10.300000000000182,149.846 19.88000000000011,149.846" fill="" stroke="#000000" stroke-width="0.80" />
<polyline points="10.300000000000182,154.846 19.88000000000011,154.846" fill="" stroke="#000000" stroke-width="0.80" />
<polyline points="10.300000000000182,159.846 19.88000000000011,159.846" fill="" stroke="#000000" stroke-width="0.80" />
<polyline points="0.0,149.846 1.5200000000004366,149.846" fill="" stroke="#000000" stroke-width="0.80" />
<polyline points="0.0,154.846 1.5200000000004366,154.846" fill="" stroke="#000000" stroke-width="0.80" />
<polyline points="0.0,159.846 1.5200000000004366,159.846" fill="" stroke="#000000" stroke-width="0.80" />
<polyline points="67.35999999999967,112.96499999999997 76.72000000000025,112.96499999999997" fill="" stroke="#000000" stroke-width="0.75" />
<polyline points="49.0,114.22800000000001 58.35999999999967,114.22800000000001" fill="" stroke="#000000" stroke-width="0.75" />
</svg>
