<?xml version="1.0" encoding="UTF-8" standalone="yes"?>
<svg width="256.0px" height="256.0px" xmlns="http://www.w3.org/2000/svg" xmlns:xlink="http://www.w3.org/1999/xlink" version="1.2" baseProfile="tiny">
<polyline points="0.0,13.846000000000004 255.0,13.846000000000004" fill="none" stroke="#000000" stroke-width="0.40" />
<polyline points="0.0,18.846000000000004 255.0,18.846000000000004" fill="none" stroke="#000000" stroke-width="0.40" />
<polyline points="0.0,23.846000000000004 255.0,23.846000000000004" fill="none" stroke="#000000" stroke-width="0.40" />
<polyline points="0.0,28.846000000000004 255.0,28.846000000000004" fill="none" stroke="#000000" stroke-width="0.40" />
<polyline points="0.0,33.846000000000004 255.0,33.846000000000004" fill="none" stroke="#000000" stroke-width="0.40" />
<polyline points="0.0,66.346 255.0,66.346" fill="none" stroke="#000000" stroke-width="0.40" />
<polyline points="0.0,71.346 255.0,71.346" fill="none" stroke="#000000" stroke-width="0.40" />
<polyline points="0.0,76.346 255.0,76.346" fill="none" stroke="#000000" stroke-width="0.40" />
<polyline points="0.0,81.346 255.0,81.346" fill="none" stroke="#000000" stroke-width="0.40" />
<polyline points="0.0,86.346 255.0,86.346" fill="none" stroke="#000000" stroke-width="0.40" />
<polyline points="207.73999999999978,66.346 207.73999999999978,86.346" fill="" stroke="#000000" stroke-width="0.80" />
<polyline points="207.73999999999978,13.846000000000004 207.73999999999978,33.846000000000004" fill="" stroke="#000000" stroke-width="0.80" />
<polyline points="228.80000000000018,65.90999999999997 228.80000000000018,98.846" fill="" stroke="#000000" stroke-width="0.65" />
<polyline points="229.19999999999982,9.785999999999945 229.19999999999982,42.596000000000004" fill="" stroke="#000000" stroke-width="0.65" />
<polyline points="192.22000000000025,77.28599999999994 192.22000000000025,91.346" fill="" stroke="#000000" stroke-width="0.65" />
<polyline points="176.77999999999975,77.28599999999994 176.77999999999975,91.346" fill="" stroke="#000000" stroke-width="0.65" />
<polyline points="176.77999999999975,0.0 176.77999999999975,22.596000000000004" fill="" stroke="#000000" stroke-width="0.65" />
<polyline points="161.34000000000015,77.28599999999994 161.34000000000015,91.346" fill="" stroke="#000000" stroke-width="0.65" />
<polyline points="161.34000000000015,2.2859999999999445 161.34000000000015,22.596000000000004" fill="" stroke="#000000" stroke-width="0.65" />
<polyline points="145.89999999999964,77.28599999999994 145.89999999999964,91.346" fill="" stroke="#000000" stroke-width="0.65" />
<polyline points="145.89999999999964,2.2859999999999445 145.89999999999964,22.596000000000004" fill="" stroke="#000000" stroke-width="0.65" />
<polyline points="129.35000000000036,72.28599999999994 129.35000000000036,90.096" fill="" stroke="#000000" stroke-width="0.65" />
<polyline points="129.35000000000036,2.2859999999999445 129.35000000000036,22.596000000000004" fill="" stroke="#000000" stroke-width="0.65" />
<polyline points="113.90999999999985,72.28599999999994 113.90999999999985,90.51300000000003" fill="" stroke="#000000" stroke-width="0.65" />
<polyline points="98.47000000000025,74.78599999999994 98.47000000000025,90.92999999999995" fill="" stroke="#000000" stroke-width="0.65" />
<polyline points="98.47000000000025,2.2859999999999445 98.47000000000025,23.42999999999995" fill="" stroke="#000000" stroke-width="0.65" />
<polyline points="83.02999999999975,74.78599999999994 83.02999999999975,91.346" fill="" stroke="#000000" stroke-width="0.65" />
<polyline points="83.02999999999975,4.7859999999999445 83.02999999999975,23.846000000000004" fill="" stroke="#000000" stroke-width="0.65" />
<polyline points="67.57999999999993,74.78599999999994 67.57999999999993,90.096" fill="" stroke="#000000" stroke-width="0.65" />
<polyline points="52.14000000000033,72.28599999999994 52.14000000000033,90.096" fill="" stroke="#000000" stroke-width="0.65" />
<polyline points="52.14000000000033,4.7859999999999445 52.14000000000033,23.846000000000004" fill="" stroke="#000000" stroke-width="0.65" />
<polyline points="36.68000000000029,74.78599999999994 36.68000000000029,90.096" fill="" stroke="#000000" stroke-width="0.65" />
<polyline points="36.68000000000029,9.785999999999945 36.68000000000029,23.846000000000004" fill="" stroke="#000000" stroke-width="0.65" />
<polyline points="21.229999999999563,74.78599999999994 21.229999999999563,90.096" fill="" stroke="#000000" stroke-width="0.65" />
<polyline points="21.229999999999563,9.785999999999945 21.229999999999563,23.846000000000004" fill="" stroke="#000000" stroke-width="0.65" />
<polyline points="5.789999999999964,72.28599999999994 5.789999999999964,90.096" fill="" stroke="#000000" stroke-width="0.65" />
<polyline points="5.789999999999964,9.785999999999945 5.789999999999964,23.846000000000004" fill="" stroke="#000000" stroke-width="0.65" />
<polyline points="227.3800000000001,8.846000000000004 236.96000000000004,8.846000000000004" fill="" stroke="#000000" stroke-width="0.80" />
<polyline points="174.96000000000004,3.8460000000000036 184.53999999999996,3.8460000000000036" fill="" stroke="#000000" stroke-width="0.80" />
<polyline points="174.96000000000004,8.846000000000004 184.53999999999996,8.846000000000004" fill="" stroke="#000000" stroke-width="0.80" />
<polyline points="159.51000000000022,3.8460000000000036 169.10000000000036,3.8460000000000036" fill="" stroke="#000000" stroke-width="0.80" />
<polyline points="159.51000000000022,8.846000000000004 169.10000000000036,8.846000000000004" fill="" stroke="#000000" stroke-width="0.80" />
<polyline points="144.0699999999997,3.8460000000000036 153.64999999999964,3.8460000000000036" fill="" stroke="#000000" stroke-width="0.80" />
<polyline points="144.0699999999997,8.846000000000004 153.64999999999964,8.846000000000004" fill="" stroke="#000000" stroke-width="0.80" />
<polyline points="127.52999999999975,3.8460000000000036 137.10999999999967,3.8460000000000036" fill="" stroke="#000000" stroke-width="0.80" />
<polyline points="127.52999999999975,8.846000000000004 137.10999999999967,8.846000000000004" fill="" stroke="#000000" stroke-width="0.80" />
<polyline points="96.64000000000033,3.8460000000000036 106.22999999999956,3.8460000000000036" fill="" stroke="#000000" stroke-width="0.80" />
<polyline points="96.64000000000033,8.846000000000004 106.22999999999956,8.846000000000004" fill="" stroke="#000000" stroke-width="0.80" />
<polyline points="81.19999999999982,3.8460000000000036 90.78999999999996,3.8460000000000036" fill="" stroke="#000000" stroke-width="0.80" />
<polyline points="81.19999999999982,8.846000000000004 90.78999999999996,8.846000000000004" fill="" stroke="#000000" stroke-width="0.80" />
<polyline points="50.31999999999971,3.8460000000000036 59.899999999999636,3.8460000000000036" fill="" stroke="#000000" stroke-width="0.80" />
<polyline points="50.31999999999971,8.846000000000004 59.899999999999636,8.846000000000004" fill="" stroke="#000000" stroke-width="0.80" />
<polyline points="34.850000000000364,8.846000000000004 44.43000000000029,8.846000000000004" fill="" stroke="#000000" stroke-width="0.80" />
<polyline points="19.409999999999854,8.846000000000004 28.98999999999978,8.846000000000004" fill="" stroke="#000000" stroke-width="0.80" />
<polyline points="3.9700000000002547,8.846000000000004 13.550000000000182,8.846000000000004" fill="" stroke="#000000" stroke-width="0.80" />
</svg>
