<?xml version="1.0" encoding="UTF-8" standalone="yes"?>
<svg width="256.0px" height="256.0px" xmlns="http://www.w3.org/2000/svg" xmlns:xlink="http://www.w3.org/1999/xlink" version="1.2" baseProfile="tiny">
<polyline points="0.0,113.346 54.928999999999974,113.346" fill="none" stroke="#000000" stroke-width="0.40" />
<polyline points="0.0,118.346 54.928999999999974,118.346" fill="none" stroke="#000000" stroke-width="0.40" />
<polyline points="0.0,123.346 54.928999999999974,123.346" fill="none" stroke="#000000" stroke-width="0.40" />
<polyline points="0.0,128.346 54.928999999999974,128.346" fill="none" stroke="#000000" stroke-width="0.40" />
<polyline points="0.0,133.346 54.928999999999974,133.346" fill="none" stroke="#000000" stroke-width="0.40" />
<polyline points="0.0,165.846 54.928999999999974,165.846" fill="none" stroke="#000000" stroke-width="0.40" />
<polyline points="0.0,170.846 54.928999999999974,170.846" fill="none" stroke="#000000" stroke-width="0.40" />
<polyline points="0.0,175.846 54.928999999999974,175.846" fill="none" stroke="#000000" stroke-width="0.40" />
<polyline points="0.0,180.846 54.928999999999974,180.846" fill="none" stroke="#000000" stroke-width="0.40" />
<polyline points="0.0,185.846 54.928999999999974,185.846" fill="none" stroke="#000000" stroke-width="0.40" />
<polyline points="0.0,218.346 54.928999999999974,218.346" fill="none" stroke="#000000" stroke-width="0.40" />
<polyline points="0.0,223.346 54.928999999999974,223.346" fill="none" stroke="#000000" stroke-width="0.40" />
<polyline points="0.0,228.346 54.928999999999974,228.346" fill="none" stroke="#000000" stroke-width="0.40" />
<polyline points="0.0,233.346 54.928999999999974,233.346" fill="none" stroke="#000000" stroke-width="0.40" />
<polyline points="0.0,238.346 54.928999999999974,238.346" fill="none" stroke="#000000" stroke-width="0.40" />
<polyline points="54.528999999999996,218.346 54.528999999999996,238.346" fill="" stroke="#000000" stroke-width="0.80" />
<polyline points="54.528999999999996,165.846 54.528999999999996,185.846" fill="" stroke="#000000" stroke-width="0.80" />
<polyline points="54.528999999999996,113.346 54.528999999999996,133.346" fill="" stroke="#000000" stroke-width="0.80" />
<polyline points="35.791000000000054,209.286 35.791000000000054,255.0" fill="" stroke="#000000" stroke-width="0.65" />
<polyline points="17.128000000000043,211.786 17.128000000000043,255.0" fill="" stroke="#000000" stroke-width="0.65" />
<polyline points="33.96600000000001,243.346 43.54899999999998,243.346" fill="" stroke="#000000" stroke-width="0.80" />
<polyline points="33.96600000000001,208.346 43.54899999999998,208.346" fill="" stroke="#000000" stroke-width="0.80" />
<polyline points="33.96600000000001,213.346 43.54899999999998,213.346" fill="" stroke="#000000" stroke-width="0.80" />
<polyline points="15.302999999999997,243.346 24.88499999999999,243.346" fill="" stroke="#000000" stroke-width="0.80" />
<polyline points="15.302999999999997,213.346 24.88499999999999,213.346" fill="" stroke="#000000" stroke-width="0.80" />
<polyline points="0.0,243.346 6.22199999999998,243.346" fill="" stroke="#000000" stroke-width="0.80" />
<polyline points="0.0,213.346 6.22199999999998,213.346" fill="" stroke="#000000" stroke-width="0.80" />
<polyline points="111.62199999999996,63.3465 255.0,63.3465" fill="none" stroke="#000000" stroke-width="0.40" />
<polyline points="111.62199999999996,68.3465 255.0,68.3465" fill="none" stroke="#000000" stroke-width="0.40" />
<polyline points="111.62199999999996,73.3465 255.0,73.3465" fill="none" stroke="#000000" stroke-width="0.40" />
<polyline points="111.62199999999996,78.3465 255.0,78.3465" fill="none" stroke="#000000" stroke-width="0.40" />
<polyline points="111.62199999999996,83.3465 255.0,83.3465" fill="none" stroke="#000000" stroke-width="0.40" />
<polyline points="111.62199999999996,115.846 255.0,115.846" fill="none" stroke="#000000" stroke-width="0.40" />
<polyline points="111.62199999999996,120.846 255.0,120.846" fill="none" stroke="#000000" stroke-width="0.40" />
<polyline points="111.62199999999996,125.846 255.0,125.846" fill="none" stroke="#000000" stroke-width="0.40" />
<polyline points="111.62199999999996,130.846 255.0,130.846" fill="none" stroke="#000000" stroke-width="0.40" />
<polyline points="111.62199999999996,135.846 255.0,135.846" fill="none" stroke="#000000" stroke-width="0.40" />
<polyline points="111.62199999999996,168.346 255.0,168.346" fill="none" stroke="#000000" stroke-width="0.40" />
<polyline points="111.62199999999996,173.346 255.0,173.346" fill="none" stroke="#000000" stroke-width="0.40" />
<polyline points="111.62199999999996,178.346 255.0,178.346" fill="none" stroke="#000000" stroke-width="0.40" />
<polyline points="111.62199999999996,183.346 255.0,183.346" fill="none" stroke="#000000" stroke-width="0.40" />
<polyline points="111.62199999999996,188.346 255.0,188.346" fill="none" stroke="#000000" stroke-width="0.40" />
<polyline points="111.62199999999996,220.846 255.0,220.846" fill="none" stroke="#000000" stroke-width="0.40" />
<polyline points="111.62199999999996,225.846 255.0,225.846" fill="none" stroke="#000000" stroke-width="0.40" />
<polyline points="111.62199999999996,230.846 255.0,230.846" fill="none" stroke="#000000" stroke-width="0.40" />
<polyline points="111.62199999999996,235.846 255.0,235.846" fill="none" stroke="#000000" stroke-width="0.40" />
<polyline points="111.62199999999996,240.846 255.0,240.846" fill="none" stroke="#000000" stroke-width="0.40" />
<polyline points="112.02200000000005,63.3465 112.02200000000005,255.0" fill="" stroke="#000000" stroke-width="0.80" />
<polyline points="252.63800000000003,242.407 252.63800000000003,220.846" fill="" stroke="#000000" stroke-width="0.65" />
<polyline points="246.70500000000004,161.786 246.70500000000004,213.346" fill="" stroke="#000000" stroke-width="0.65" />
<polyline points="228.98299999999995,160.41 228.98299999999995,212.866" fill="" stroke="#000000" stroke-width="0.65" />
<polyline points="206.56100000000004,232.407 206.56100000000004,217.096" fill="" stroke="#000000" stroke-width="0.65" />
<polyline points="200.62800000000004,159.286 200.62800000000004,212.096" fill="" stroke="#000000" stroke-width="0.65" />
<polyline points="200.62800000000004,76.7855 200.62800000000004,125.846" fill="" stroke="#000000" stroke-width="0.65" />
<polyline points="200.62800000000004,54.2855 200.62800000000004,73.3465" fill="" stroke="#000000" stroke-width="0.65" />
<polyline points="172.274,159.286 172.274,208.346" fill="" stroke="#000000" stroke-width="0.65" />
<polyline points="172.274,76.7855 172.274,124.596" fill="" stroke="#000000" stroke-width="0.65" />
<polyline points="172.274,54.2855 172.274,72.0965" fill="" stroke="#000000" stroke-width="0.65" />
<polyline points="149.85199999999998,232.407 149.85199999999998,217.096" fill="" stroke="#000000" stroke-width="0.65" />
<polyline points="143.91899999999998,159.286 143.91899999999998,208.346" fill="" stroke="#000000" stroke-width="0.65" />
<polyline points="143.91899999999998,76.7855 143.91899999999998,124.596" fill="" stroke="#000000" stroke-width="0.65" />
<polyline points="143.91899999999998,54.2855 143.91899999999998,72.0965" fill="" stroke="#000000" stroke-width="0.65" />
<polyline points="244.88,193.346 254.46299999999997,193.346" fill="" stroke="#000000" stroke-width="0.80" />
<polyline points="244.88,163.346 254.46299999999997,163.346" fill="" stroke="#000000" stroke-width="0.80" />
<polyline points="227.15800000000002,193.346 236.74099999999999,193.346" fill="" stroke="#000000" stroke-width="0.80" />
<polyline points="227.15800000000002,158.346 236.74099999999999,158.346" fill="" stroke="#000000" stroke-width="0.80" />
<polyline points="227.15800000000002,163.346 236.74099999999999,163.346" fill="" stroke="#000000" stroke-width="0.80" />
<polyline points="198.803,193.346 208.38599999999997,193.346" fill="" stroke="#000000" stroke-width="0.80" />
<polyline points="198.803,158.346 208.38599999999997,158.346" fill="" stroke="#000000" stroke-width="0.80" />
<polyline points="198.803,163.346 208.38599999999997,163.346" fill="" stroke="#000000" stroke-width="0.80" />
<polyline points="198.803,75.8465 208.38599999999997,75.8465" fill="" stroke="#000000" stroke-width="0.80" />
<polyline points="198.803,80.8465 208.38599999999997,80.8465" fill="" stroke="#000000" stroke-width="0.80" />
<polyline points="198.803,85.8465 208.38599999999997,85.8465" fill="" stroke="#000000" stroke-width="0.80" />
<polyline points="198.803,90.8465 208.38599999999997,90.8465" fill="" stroke="#000000" stroke-width="0.80" />
<polyline points="198.803,95.8465 208.38599999999997,95.8465" fill="" stroke="#000000" stroke-width="0.80" />
<polyline points="198.803,100.846 208.38599999999997,100.846" fill="" stroke="#000000" stroke-width="0.80" />
<polyline points="198.803,105.846 208.38599999999997,105.846" fill="" stroke="#000000" stroke-width="0.80" />
<polyline points="198.803,110.846 208.38599999999997,110.846" fill="" stroke="#000000" stroke-width="0.80" />
<polyline points="198.803,53.3465 208.38599999999997,53.3465" fill="" stroke="#000000" stroke-width="0.80" />
<polyline points="198.803,58.3465 208.38599999999997,58.3465" fill="" stroke="#000000" stroke-width="0.80" />
<polyline points="170.44899999999996,193.346 180.03099999999995,193.346" fill="" stroke="#000000" stroke-width="0.80" />
<polyline points="170.44899999999996,158.346 180.03099999999995,158.346" fill="" stroke="#000000" stroke-width="0.80" />
<polyline points="170.44899999999996,163.346 180.03099999999995,163.346" fill="" stroke="#000000" stroke-width="0.80" />
<polyline points="170.44899999999996,75.8465 180.03099999999995,75.8465" fill="" stroke="#000000" stroke-width="0.80" />
<polyline points="170.44899999999996,80.8465 180.03099999999995,80.8465" fill="" stroke="#000000" stroke-width="0.80" />
<polyline points="170.44899999999996,85.8465 180.03099999999995,85.8465" fill="" stroke="#000000" stroke-width="0.80" />
<polyline points="170.44899999999996,90.8465 180.03099999999995,90.8465" fill="" stroke="#000000" stroke-width="0.80" />
<polyline points="170.44899999999996,95.8465 180.03099999999995,95.8465" fill="" stroke="#000000" stroke-width="0.80" />
<polyline points="170.44899999999996,100.846 180.03099999999995,100.846" fill="" stroke="#000000" stroke-width="0.80" />
<polyline points="170.44899999999996,105.846 180.03099999999995,105.846" fill="" stroke="#000000" stroke-width="0.80" />
<polyline points="170.44899999999996,110.846 180.03099999999995,110.846" fill="" stroke="#000000" stroke-width="0.80" />
<polyline points="170.44899999999996,53.3465 180.03099999999995,53.3465" fill="" stroke="#000000" stroke-width="0.80" />
<polyline points="170.44899999999996,58.3465 180.03099999999995,58.3465" fill="" stroke="#000000" stroke-width="0.80" />
<polyline points="142.09400000000005,193.346 151.67700000000002,193.346" fill="" stroke="#000000" stroke-width="0.80" />
<polyline points="142.09400000000005,158.346 151.67700000000002,158.346" fill="" stroke="#000000" stroke-width="0.80" />
<polyline points="142.09400000000005,163.346 151.67700000000002,163.346" fill="" stroke="#000000" stroke-width="0.80" />
<polyline points="142.09400000000005,75.8465 151.67700000000002,75.8465" fill="" stroke="#000000" stroke-width="0.80" />
<polyline points="142.09400000000005,80.8465 151.67700000000002,80.8465" fill="" stroke="#000000" stroke-width="0.80" />
<polyline points="142.09400000000005,85.8465 151.67700000000002,85.8465" fill="" stroke="#000000" stroke-width="0.80" />
<polyline points="142.09400000000005,90.8465 151.67700000000002,90.8465" fill="" stroke="#000000" stroke-width="0.80" />
<polyline points="142.09400000000005,95.8465 151.67700000000002,95.8465" fill="" stroke="#000000" stroke-width="0.80" />
<polyline points="142.09400000000005,100.846 151.67700000000002,100.846" fill="" stroke="#000000" stroke-width="0.80" />
<polyline points="142.09400000000005,105.846 151.67700000000002,105.846" fill="" stroke="#000000" stroke-width="0.80" />
<polyline points="142.09400000000005,110.846 151.67700000000002,110.846" fill="" stroke="#000000" stroke-width="0.80" />
<polyline points="142.09400000000005,53.3465 151.67700000000002,53.3465" fill="" stroke="#000000" stroke-width="0.80" />
<polyline points="142.09400000000005,58.3465 151.67700000000002,58.3465" fill="" stroke="#000000" stroke-width="0.80" />
</svg>
