<?xml version="1.0" encoding="UTF-8" standalone="yes"?>
<svg width="256.0px" height="256.0px" xmlns="http://www.w3.org/2000/svg" xmlns:xlink="http://www.w3.org/1999/xlink" version="1.2" baseProfile="tiny">
<polyline points="0.0,17.346000000000004 24.05999999999949,17.346000000000004" fill="none" stroke="#000000" stroke-width="0.40" />
<polyline points="0.0,22.346000000000004 24.05999999999949,22.346000000000004" fill="none" stroke="#000000" stroke-width="0.40" />
<polyline points="0.0,27.346000000000004 24.05999999999949,27.346000000000004" fill="none" stroke="#000000" stroke-width="0.40" />
<polyline points="0.0,32.346000000000004 24.05999999999949,32.346000000000004" fill="none" stroke="#000000" stroke-width="0.40" />
<polyline points="0.0,37.346000000000004 24.05999999999949,37.346000000000004" fill="none" stroke="#000000" stroke-width="0.40" />
<polyline points="0.0,112.346 24.05999999999949,112.346" fill="none" stroke="#000000" stroke-width="0.40" />
<polyline points="0.0,117.346 24.05999999999949,117.346" fill="none" stroke="#000000" stroke-width="0.40" />
<polyline points="0.0,122.346 24.05999999999949,122.346" fill="none" stroke="#000000" stroke-width="0.40" />
<polyline points="0.0,127.346 24.05999999999949,127.346" fill="none" stroke="#000000" stroke-width="0.40" />
<polyline points="0.0,132.346 24.05999999999949,132.346" fill="none" stroke="#000000" stroke-width="0.40" />
<polyline points="0.0,164.846 24.05999999999949,164.846" fill="none" stroke="#000000" stroke-width="0.40" />
<polyline points="0.0,169.846 24.05999999999949,169.846" fill="none" stroke="#000000" stroke-width="0.40" />
<polyline points="0.0,174.846 24.05999999999949,174.846" fill="none" stroke="#000000" stroke-width="0.40" />
<polyline points="0.0,179.846 24.05999999999949,179.846" fill="none" stroke="#000000" stroke-width="0.40" />
<polyline points="0.0,184.846 24.05999999999949,184.846" fill="none" stroke="#000000" stroke-width="0.40" />
<polyline points="0.0,217.346 24.05999999999949,217.346" fill="none" stroke="#000000" stroke-width="0.40" />
<polyline points="0.0,222.346 24.05999999999949,222.346" fill="none" stroke="#000000" stroke-width="0.40" />
<polyline points="0.0,227.346 24.05999999999949,227.346" fill="none" stroke="#000000" stroke-width="0.40" />
<polyline points="0.0,232.346 24.05999999999949,232.346" fill="none" stroke="#000000" stroke-width="0.40" />
<polyline points="0.0,237.346 24.05999999999949,237.346" fill="none" stroke="#000000" stroke-width="0.40" />
<polyline points="23.659999999999854,217.346 23.659999999999854,237.346" fill="" stroke="#000000" stroke-width="0.80" />
<polyline points="23.659999999999854,164.846 23.659999999999854,184.846" fill="" stroke="#000000" stroke-width="0.80" />
<polyline points="23.659999999999854,112.346 23.659999999999854,132.346" fill="" stroke="#000000" stroke-width="0.80" />
<polyline points="23.659999999999854,17.346000000000004 23.659999999999854,37.346000000000004" fill="" stroke="#000000" stroke-width="0.80" />
<polyline points="1.3799999999991996,110.786 1.3799999999991996,173.596" fill="" stroke="#000000" stroke-width="0.65" />
<polyline points="1.3799999999991996,88.286 1.3799999999991996,121.096" fill="" stroke="#000000" stroke-width="0.65" />
<polyline points="8.319999999999709,25.786 8.319999999999709,41.096000000000004" fill="" stroke="#000000" stroke-width="0.65" />
<polyline points="0.0,109.846 9.139999999999418,109.846" fill="" stroke="#000000" stroke-width="0.80" />
<polyline points="0.0,114.846 9.139999999999418,114.846" fill="" stroke="#000000" stroke-width="0.80" />
<polyline points="0.0,119.846 9.139999999999418,119.846" fill="" stroke="#000000" stroke-width="0.80" />
<polyline points="0.0,124.846 9.139999999999418,124.846" fill="" stroke="#000000" stroke-width="0.80" />
<polyline points="0.0,129.846 9.139999999999418,129.846" fill="" stroke="#000000" stroke-width="0.80" />
<polyline points="0.0,134.846 9.139999999999418,134.846" fill="" stroke="#000000" stroke-width="0.80" />
<polyline points="0.0,139.846 9.139999999999418,139.846" fill="" stroke="#000000" stroke-width="0.80" />
<polyline points="0.0,144.846 9.139999999999418,144.846" fill="" stroke="#000000" stroke-width="0.80" />
<polyline points="0.0,149.846 9.139999999999418,149.846" fill="" stroke="#000000" stroke-width="0.80" />
<polyline points="0.0,154.846 9.139999999999418,154.846" fill="" stroke="#000000" stroke-width="0.80" />
<polyline points="0.0,159.846 9.139999999999418,159.846" fill="" stroke="#000000" stroke-width="0.80" />
<polyline points="0.0,87.346 9.139999999999418,87.346" fill="" stroke="#000000" stroke-width="0.80" />
<polyline points="0.0,92.346 9.139999999999418,92.346" fill="" stroke="#000000" stroke-width="0.80" />
<polyline points="0.0,97.346 9.139999999999418,97.346" fill="" stroke="#000000" stroke-width="0.80" />
<polyline points="0.0,102.346 9.139999999999418,102.346" fill="" stroke="#000000" stroke-width="0.80" />
<polyline points="0.0,107.346 9.139999999999418,107.346" fill="" stroke="#000000" stroke-width="0.80" />
<polyline points="80.76000000000022,17.346000000000004 255.0,17.346000000000004" fill="none" stroke="#000000" stroke-width="0.40" />
<polyline points="80.76000000000022,22.346000000000004 255.0,22.346000000000004" fill="none" stroke="#000000" stroke-width="0.40" />
<polyline points="80.76000000000022,27.346000000000004 255.0,27.346000000000004" fill="none" stroke="#000000" stroke-width="0.40" />
<polyline points="80.76000000000022,32.346000000000004 255.0,32.346000000000004" fill="none" stroke="#000000" stroke-width="0.40" />
<polyline points="80.76000000000022,37.346000000000004 255.0,37.346000000000004" fill="none" stroke="#000000" stroke-width="0.40" />
<polyline points="80.76000000000022,112.346 255.0,112.346" fill="none" stroke="#000000" stroke-width="0.40" />
<polyline points="80.76000000000022,117.346 255.0,117.346" fill="none" stroke="#000000" stroke-width="0.40" />
<polyline points="80.76000000000022,122.346 255.0,122.346" fill="none" stroke="#000000" stroke-width="0.40" />
<polyline points="80.76000000000022,127.346 255.0,127.346" fill="none" stroke="#000000" stroke-width="0.40" />
<polyline points="80.76000000000022,132.346 255.0,132.346" fill="none" stroke="#000000" stroke-width="0.40" />
<polyline points="80.76000000000022,164.846 255.0,164.846" fill="none" stroke="#000000" stroke-width="0.40" />
<polyline points="80.76000000000022,169.846 255.0,169.846" fill="none" stroke="#000000" stroke-width="0.40" />
<polyline points="80.76000000000022,174.846 255.0,174.846" fill="none" stroke="#000000" stroke-width="0.40" />
<polyline points="80.76000000000022,179.846 255.0,179.846" fill="none" stroke="#000000" stroke-width="0.40" />
<polyline points="80.76000000000022,184.846 255.0,184.846" fill="none" stroke="#000000" stroke-width="0.40" />
<polyline points="80.76000000000022,217.346 255.0,217.346" fill="none" stroke="#000000" stroke-width="0.40" />
<polyline points="80.76000000000022,222.346 255.0,222.346" fill="none" stroke="#000000" stroke-width="0.40" />
<polyline points="80.76000000000022,227.346 255.0,227.346" fill="none" stroke="#000000" stroke-width="0.40" />
<polyline points="80.76000000000022,232.346 255.0,232.346" fill="none" stroke="#000000" stroke-width="0.40" />
<polyline points="80.76000000000022,237.346 255.0,237.346" fill="none" stroke="#000000" stroke-width="0.40" />
<polyline points="81.15999999999985,112.346 81.15999999999985,255.0" fill="" stroke="#000000" stroke-width="0.80" />
<polyline points="81.15999999999985,0.0 81.15999999999985,37.346000000000004" fill="" stroke="#000000" stroke-width="0.80" />
<polyline points="125.95000000000073,241.57799999999997 125.95000000000073,209.846" fill="" stroke="#000000" stroke-width="0.65" />
<polyline points="119.65999999999985,135.63 119.65999999999985,174.846" fill="" stroke="#000000" stroke-width="0.65" />
<polyline points="119.65999999999985,113.13 119.65999999999985,129.846" fill="" stroke="#000000" stroke-width="0.65" />
<polyline points="238.0,16.910000000000025 238.0,51.096000000000004" fill="" stroke="#000000" stroke-width="0.65" />
<polyline points="202.77000000000044,16.910000000000025 202.77000000000044,51.096000000000004" fill="" stroke="#000000" stroke-width="0.65" />
<polyline points="188.64999999999964,16.910000000000025 188.64999999999964,51.096000000000004" fill="" stroke="#000000" stroke-width="0.65" />
<polyline points="174.52000000000044,16.910000000000025 174.52000000000044,51.096000000000004" fill="" stroke="#000000" stroke-width="0.65" />
<polyline points="142.04000000000087,16.910000000000025 142.04000000000087,49.846000000000004" fill="" stroke="#000000" stroke-width="0.65" />
<polyline points="119.44000000000051,16.910000000000025 119.44000000000051,49.846000000000004" fill="" stroke="#000000" stroke-width="0.65" />
<polyline points="248.73999999999978,242.346 255.0,242.346" fill="" stroke="#000000" stroke-width="0.80" />
<polyline points="117.84000000000015,242.346 127.78000000000065,242.346" fill="" stroke="#000000" stroke-width="0.80" />
<polyline points="117.84000000000015,134.846 127.78000000000065,134.846" fill="" stroke="#000000" stroke-width="0.80" />
<polyline points="117.84000000000015,139.846 127.78000000000065,139.846" fill="" stroke="#000000" stroke-width="0.80" />
<polyline points="117.84000000000015,144.846 127.78000000000065,144.846" fill="" stroke="#000000" stroke-width="0.80" />
<polyline points="117.84000000000015,149.846 127.78000000000065,149.846" fill="" stroke="#000000" stroke-width="0.80" />
<polyline points="117.84000000000015,154.846 127.78000000000065,154.846" fill="" stroke="#000000" stroke-width="0.80" />
<polyline points="117.84000000000015,159.846 127.78000000000065,159.846" fill="" stroke="#000000" stroke-width="0.80" />
</svg>
