<?xml version="1.0" encoding="UTF-8" standalone="yes"?>
<svg width="256.0px" height="256.0px" xmlns="http://www.w3.org/2000/svg" xmlns:xlink="http://www.w3.org/1999/xlink" version="1.2" baseProfile="tiny">
<polyline points="0.0,63.3465 255.0,63.3465" fill="none" stroke="#000000" stroke-width="0.40" />
<polyline points="0.0,68.3465 255.0,68.3465" fill="none" stroke="#000000" stroke-width="0.40" />
<polyline points="0.0,73.3465 255.0,73.3465" fill="none" stroke="#000000" stroke-width="0.40" />
<polyline points="0.0,78.3465 255.0,78.3465" fill="none" stroke="#000000" stroke-width="0.40" />
<polyline points="0.0,83.3465 255.0,83.3465" fill="none" stroke="#000000" stroke-width="0.40" />
<polyline points="0.0,115.846 255.0,115.846" fill="none" stroke="#000000" stroke-width="0.40" />
<polyline points="0.0,120.846 255.0,120.846" fill="none" stroke="#000000" stroke-width="0.40" />
<polyline points="0.0,125.846 255.0,125.846" fill="none" stroke="#000000" stroke-width="0.40" />
<polyline points="0.0,130.846 255.0,130.846" fill="none" stroke="#000000" stroke-width="0.40" />
<polyline points="0.0,135.846 255.0,135.846" fill="none" stroke="#000000" stroke-width="0.40" />
<polyline points="0.0,168.346 255.0,168.346" fill="none" stroke="#000000" stroke-width="0.40" />
<polyline points="0.0,173.346 255.0,173.346" fill="none" stroke="#000000" stroke-width="0.40" />
<polyline points="0.0,178.346 255.0,178.346" fill="none" stroke="#000000" stroke-width="0.40" />
<polyline points="0.0,183.346 255.0,183.346" fill="none" stroke="#000000" stroke-width="0.40" />
<polyline points="0.0,188.346 255.0,188.346" fill="none" stroke="#000000" stroke-width="0.40" />
<polyline points="0.0,220.846 255.0,220.846" fill="none" stroke="#000000" stroke-width="0.40" />
<polyline points="0.0,225.846 255.0,225.846" fill="none" stroke="#000000" stroke-width="0.40" />
<polyline points="0.0,230.846 255.0,230.846" fill="none" stroke="#000000" stroke-width="0.40" />
<polyline points="0.0,235.846 255.0,235.846" fill="none" stroke="#000000" stroke-width="0.40" />
<polyline points="0.0,240.846 255.0,240.846" fill="none" stroke="#000000" stroke-width="0.40" />
<polyline points="108.02000000000044,220.846 108.02000000000044,240.846" fill="" stroke="#000000" stroke-width="0.80" />
<polyline points="108.02000000000044,168.346 108.02000000000044,188.346" fill="" stroke="#000000" stroke-width="0.80" />
<polyline points="108.02000000000044,115.846 108.02000000000044,135.846" fill="" stroke="#000000" stroke-width="0.80" />
<polyline points="108.02000000000044,63.3465 108.02000000000044,83.3465" fill="" stroke="#000000" stroke-width="0.80" />
<polyline points="240.71000000000004,219.286 240.71000000000004,235.846" fill="" stroke="#000000" stroke-width="0.65" />
<polyline points="246.64000000000033,194.907 246.64000000000033,158.346" fill="" stroke="#000000" stroke-width="0.65" />
<polyline points="240.71000000000004,76.7855 240.71000000000004,125.846" fill="" stroke="#000000" stroke-width="0.65" />
<polyline points="240.71000000000004,54.2855 240.71000000000004,73.3465" fill="" stroke="#000000" stroke-width="0.65" />
<polyline points="225.23999999999978,192.407 225.23999999999978,154.596" fill="" stroke="#000000" stroke-width="0.65" />
<polyline points="201.53999999999996,224.286 201.53999999999996,237.096" fill="" stroke="#000000" stroke-width="0.65" />
<polyline points="207.47999999999956,192.407 207.47999999999956,154.596" fill="" stroke="#000000" stroke-width="0.65" />
<polyline points="201.53999999999996,76.7855 201.53999999999996,124.596" fill="" stroke="#000000" stroke-width="0.65" />
<polyline points="201.53999999999996,54.2855 201.53999999999996,72.0965" fill="" stroke="#000000" stroke-width="0.65" />
<polyline points="175.48999999999978,216.786 175.48999999999978,232.096" fill="" stroke="#000000" stroke-width="0.65" />
<polyline points="181.4300000000003,192.407 181.4300000000003,154.596" fill="" stroke="#000000" stroke-width="0.65" />
<polyline points="175.48999999999978,76.7855 175.48999999999978,124.596" fill="" stroke="#000000" stroke-width="0.65" />
<polyline points="175.48999999999978,54.2855 175.48999999999978,72.0965" fill="" stroke="#000000" stroke-width="0.65" />
<polyline points="159.21000000000004,224.286 159.21000000000004,244.596" fill="" stroke="#000000" stroke-width="0.65" />
<polyline points="142.9300000000003,224.286 142.9300000000003,247.0" fill="" stroke="#000000" stroke-width="0.65" />
<polyline points="148.8699999999999,192.407 148.8699999999999,155.846" fill="" stroke="#000000" stroke-width="0.65" />
<polyline points="116.88000000000011,234.286 116.88000000000011,250.846" fill="" stroke="#000000" stroke-width="0.65" />
<polyline points="122.81999999999971,192.407 122.81999999999971,155.846" fill="" stroke="#000000" stroke-width="0.65" />
<polyline points="116.88000000000011,76.7855 116.88000000000011,125.846" fill="" stroke="#000000" stroke-width="0.65" />
<polyline points="116.88000000000011,54.2855 116.88000000000011,73.3465" fill="" stroke="#000000" stroke-width="0.65" />
<polyline points="96.36999999999989,192.407 96.36999999999989,153.346" fill="" stroke="#000000" stroke-width="0.65" />
<polyline points="90.43000000000029,71.7855 90.43000000000029,124.596" fill="" stroke="#000000" stroke-width="0.65" />
<polyline points="90.43000000000029,49.2855 90.43000000000029,72.0965" fill="" stroke="#000000" stroke-width="0.65" />
<polyline points="74.98999999999978,229.286 74.98999999999978,242.096" fill="" stroke="#000000" stroke-width="0.65" />
<polyline points="80.92000000000007,193.862 80.92000000000007,153.827" fill="" stroke="#000000" stroke-width="0.65" />
<polyline points="50.279999999999745,226.786 50.279999999999745,240.846" fill="" stroke="#000000" stroke-width="0.65" />
<polyline points="56.210000000000036,194.907 56.210000000000036,154.596" fill="" stroke="#000000" stroke-width="0.65" />
<polyline points="50.279999999999745,76.7855 50.279999999999745,125.846" fill="" stroke="#000000" stroke-width="0.65" />
<polyline points="50.279999999999745,54.2855 50.279999999999745,73.3465" fill="" stroke="#000000" stroke-width="0.65" />
<polyline points="40.77000000000044,234.907 40.77000000000044,217.096" fill="" stroke="#000000" stroke-width="0.65" />
<polyline points="25.31999999999971,234.907 25.31999999999971,216.68" fill="" stroke="#000000" stroke-width="0.65" />
<polyline points="25.31999999999971,194.907 25.31999999999971,158.346" fill="" stroke="#000000" stroke-width="0.65" />
<polyline points="19.390000000000327,71.7855 19.390000000000327,125.846" fill="" stroke="#000000" stroke-width="0.65" />
<polyline points="19.390000000000327,49.2855 19.390000000000327,73.3465" fill="" stroke="#000000" stroke-width="0.65" />
<polyline points="9.88000000000011,194.907 9.88000000000011,158.346" fill="" stroke="#000000" stroke-width="0.65" />
<polyline points="238.8800000000001,193.346 248.47000000000025,193.346" fill="" stroke="#000000" stroke-width="0.80" />
<polyline points="238.8800000000001,75.8465 248.47000000000025,75.8465" fill="" stroke="#000000" stroke-width="0.80" />
<polyline points="238.8800000000001,80.8465 248.47000000000025,80.8465" fill="" stroke="#000000" stroke-width="0.80" />
<polyline points="238.8800000000001,85.8465 248.47000000000025,85.8465" fill="" stroke="#000000" stroke-width="0.80" />
<polyline points="238.8800000000001,90.8465 248.47000000000025,90.8465" fill="" stroke="#000000" stroke-width="0.80" />
<polyline points="238.8800000000001,95.8465 248.47000000000025,95.8465" fill="" stroke="#000000" stroke-width="0.80" />
<polyline points="238.8800000000001,100.846 248.47000000000025,100.846" fill="" stroke="#000000" stroke-width="0.80" />
<polyline points="238.8800000000001,105.846 248.47000000000025,105.846" fill="" stroke="#000000" stroke-width="0.80" />
<polyline points="238.8800000000001,110.846 248.47000000000025,110.846" fill="" stroke="#000000" stroke-width="0.80" />
<polyline points="238.8800000000001,53.3465 248.47000000000025,53.3465" fill="" stroke="#000000" stroke-width="0.80" />
<polyline points="238.8800000000001,58.3465 248.47000000000025,58.3465" fill="" stroke="#000000" stroke-width="0.80" />
<polyline points="217.47999999999956,193.346 227.0699999999997,193.346" fill="" stroke="#000000" stroke-width="0.80" />
<polyline points="199.72000000000025,193.346 209.30000000000018,193.346" fill="" stroke="#000000" stroke-width="0.80" />
<polyline points="199.72000000000025,75.8465 209.30000000000018,75.8465" fill="" stroke="#000000" stroke-width="0.80" />
<polyline points="199.72000000000025,80.8465 209.30000000000018,80.8465" fill="" stroke="#000000" stroke-width="0.80" />
<polyline points="199.72000000000025,85.8465 209.30000000000018,85.8465" fill="" stroke="#000000" stroke-width="0.80" />
<polyline points="199.72000000000025,90.8465 209.30000000000018,90.8465" fill="" stroke="#000000" stroke-width="0.80" />
<polyline points="199.72000000000025,95.8465 209.30000000000018,95.8465" fill="" stroke="#000000" stroke-width="0.80" />
<polyline points="199.72000000000025,100.846 209.30000000000018,100.846" fill="" stroke="#000000" stroke-width="0.80" />
<polyline points="199.72000000000025,105.846 209.30000000000018,105.846" fill="" stroke="#000000" stroke-width="0.80" />
<polyline points="199.72000000000025,110.846 209.30000000000018,110.846" fill="" stroke="#000000" stroke-width="0.80" />
<polyline points="199.72000000000025,53.3465 209.30000000000018,53.3465" fill="" stroke="#000000" stroke-width="0.80" />
<polyline points="199.72000000000025,58.3465 209.30000000000018,58.3465" fill="" stroke="#000000" stroke-width="0.80" />
<polyline points="173.67000000000007,215.846 183.25,215.846" fill="" stroke="#000000" stroke-width="0.80" />
<polyline points="173.67000000000007,193.346 183.25,193.346" fill="" stroke="#000000" stroke-width="0.80" />
<polyline points="173.67000000000007,75.8465 183.25,75.8465" fill="" stroke="#000000" stroke-width="0.80" />
<polyline points="173.67000000000007,80.8465 183.25,80.8465" fill="" stroke="#000000" stroke-width="0.80" />
<polyline points="173.67000000000007,85.8465 183.25,85.8465" fill="" stroke="#000000" stroke-width="0.80" />
<polyline points="173.67000000000007,90.8465 183.25,90.8465" fill="" stroke="#000000" stroke-width="0.80" />
<polyline points="173.67000000000007,95.8465 183.25,95.8465" fill="" stroke="#000000" stroke-width="0.80" />
<polyline points="173.67000000000007,100.846 183.25,100.846" fill="" stroke="#000000" stroke-width="0.80" />
<polyline points="173.67000000000007,105.846 183.25,105.846" fill="" stroke="#000000" stroke-width="0.80" />
<polyline points="173.67000000000007,110.846 183.25,110.846" fill="" stroke="#000000" stroke-width="0.80" />
<polyline points="173.67000000000007,53.3465 183.25,53.3465" fill="" stroke="#000000" stroke-width="0.80" />
<polyline points="173.67000000000007,58.3465 183.25,58.3465" fill="" stroke="#000000" stroke-width="0.80" />
<polyline points="141.10999999999967,193.346 150.6899999999996,193.346" fill="" stroke="#000000" stroke-width="0.80" />
<polyline points="115.0600000000004,193.346 124.64000000000033,193.346" fill="" stroke="#000000" stroke-width="0.80" />
<polyline points="115.0600000000004,75.8465 124.64000000000033,75.8465" fill="" stroke="#000000" stroke-width="0.80" />
<polyline points="115.0600000000004,80.8465 124.64000000000033,80.8465" fill="" stroke="#000000" stroke-width="0.80" />
<polyline points="115.0600000000004,85.8465 124.64000000000033,85.8465" fill="" stroke="#000000" stroke-width="0.80" />
<polyline points="115.0600000000004,90.8465 124.64000000000033,90.8465" fill="" stroke="#000000" stroke-width="0.80" />
<polyline points="115.0600000000004,95.8465 124.64000000000033,95.8465" fill="" stroke="#000000" stroke-width="0.80" />
<polyline points="115.0600000000004,100.846 124.64000000000033,100.846" fill="" stroke="#000000" stroke-width="0.80" />
<polyline points="115.0600000000004,105.846 124.64000000000033,105.846" fill="" stroke="#000000" stroke-width="0.80" />
<polyline points="115.0600000000004,110.846 124.64000000000033,110.846" fill="" stroke="#000000" stroke-width="0.80" />
<polyline points="115.0600000000004,53.3465 124.64000000000033,53.3465" fill="" stroke="#000000" stroke-width="0.80" />
<polyline points="115.0600000000004,58.3465 124.64000000000033,58.3465" fill="" stroke="#000000" stroke-width="0.80" />
<polyline points="88.60999999999967,193.346 98.1899999999996,193.346" fill="" stroke="#000000" stroke-width="0.80" />
<polyline points="88.60999999999967,70.8465 98.1899999999996,70.8465" fill="" stroke="#000000" stroke-width="0.80" />
<polyline points="88.60999999999967,75.8465 98.1899999999996,75.8465" fill="" stroke="#000000" stroke-width="0.80" />
<polyline points="88.60999999999967,80.8465 98.1899999999996,80.8465" fill="" stroke="#000000" stroke-width="0.80" />
<polyline points="88.60999999999967,85.8465 98.1899999999996,85.8465" fill="" stroke="#000000" stroke-width="0.80" />
<polyline points="88.60999999999967,90.8465 98.1899999999996,90.8465" fill="" stroke="#000000" stroke-width="0.80" />
<polyline points="88.60999999999967,95.8465 98.1899999999996,95.8465" fill="" stroke="#000000" stroke-width="0.80" />
<polyline points="88.60999999999967,100.846 98.1899999999996,100.846" fill="" stroke="#000000" stroke-width="0.80" />
<polyline points="88.60999999999967,105.846 98.1899999999996,105.846" fill="" stroke="#000000" stroke-width="0.80" />
<polyline points="88.60999999999967,110.846 98.1899999999996,110.846" fill="" stroke="#000000" stroke-width="0.80" />
<polyline points="88.60999999999967,48.3465 98.1899999999996,48.3465" fill="" stroke="#000000" stroke-width="0.80" />
<polyline points="88.60999999999967,53.3465 98.1899999999996,53.3465" fill="" stroke="#000000" stroke-width="0.80" />
<polyline points="88.60999999999967,58.3465 98.1899999999996,58.3465" fill="" stroke="#000000" stroke-width="0.80" />
<polyline points="73.15999999999985,193.346 82.75,193.346" fill="" stroke="#000000" stroke-width="0.80" />
<polyline points="48.44999999999982,193.346 58.039999999999964,193.346" fill="" stroke="#000000" stroke-width="0.80" />
<polyline points="48.44999999999982,75.8465 58.039999999999964,75.8465" fill="" stroke="#000000" stroke-width="0.80" />
<polyline points="48.44999999999982,80.8465 58.039999999999964,80.8465" fill="" stroke="#000000" stroke-width="0.80" />
<polyline points="48.44999999999982,85.8465 58.039999999999964,85.8465" fill="" stroke="#000000" stroke-width="0.80" />
<polyline points="48.44999999999982,90.8465 58.039999999999964,90.8465" fill="" stroke="#000000" stroke-width="0.80" />
<polyline points="48.44999999999982,95.8465 58.039999999999964,95.8465" fill="" stroke="#000000" stroke-width="0.80" />
<polyline points="48.44999999999982,100.846 58.039999999999964,100.846" fill="" stroke="#000000" stroke-width="0.80" />
<polyline points="48.44999999999982,105.846 58.039999999999964,105.846" fill="" stroke="#000000" stroke-width="0.80" />
<polyline points="48.44999999999982,110.846 58.039999999999964,110.846" fill="" stroke="#000000" stroke-width="0.80" />
<polyline points="48.44999999999982,53.3465 58.039999999999964,53.3465" fill="" stroke="#000000" stroke-width="0.80" />
<polyline points="48.44999999999982,58.3465 58.039999999999964,58.3465" fill="" stroke="#000000" stroke-width="0.80" />
<polyline points="17.5600000000004,193.346 27.149999999999636,193.346" fill="" stroke="#000000" stroke-width="0.80" />
<polyline points="17.5600000000004,70.8465 27.149999999999636,70.8465" fill="" stroke="#000000" stroke-width="0.80" />
<polyline points="17.5600000000004,75.8465 27.149999999999636,75.8465" fill="" stroke="#000000" stroke-width="0.80" />
<polyline points="17.5600000000004,80.8465 27.149999999999636,80.8465" fill="" stroke="#000000" stroke-width="0.80" />
<polyline points="17.5600000000004,85.8465 27.149999999999636,85.8465" fill="" stroke="#000000" stroke-width="0.80" />
<polyline points="17.5600000000004,90.8465 27.149999999999636,90.8465" fill="" stroke="#000000" stroke-width="0.80" />
<polyline points="17.5600000000004,95.8465 27.149999999999636,95.8465" fill="" stroke="#000000" stroke-width="0.80" />
<polyline points="17.5600000000004,100.846 27.149999999999636,100.846" fill="" stroke="#000000" stroke-width="0.80" />
<polyline points="17.5600000000004,105.846 27.149999999999636,105.846" fill="" stroke="#000000" stroke-width="0.80" />
<polyline points="17.5600000000004,110.846 27.149999999999636,110.846" fill="" stroke="#000000" stroke-width="0.80" />
<polyline points="17.5600000000004,48.3465 27.149999999999636,48.3465" fill="" stroke="#000000" stroke-width="0.80" />
<polyline points="17.5600000000004,53.3465 27.149999999999636,53.3465" fill="" stroke="#000000" stroke-width="0.80" />
<polyline points="17.5600000000004,58.3465 27.149999999999636,58.3465" fill="" stroke="#000000" stroke-width="0.80" />
<polyline points="2.119999999999891,193.346 11.699999999999818,193.346" fill="" stroke="#000000" stroke-width="0.80" />
<polyline points="125.64000000000033,105.846 130.64000000000033,105.846" fill="" stroke="#000000" stroke-width="0.75" />
<polyline points="133.14000000000033,120.846 138.14000000000033,120.846" fill="" stroke="#000000" stroke-width="0.75" />
<polyline points="125.64000000000033,53.3465 130.64000000000033,53.3465" fill="" stroke="#000000" stroke-width="0.75" />
<polyline points="133.14000000000033,68.3465 138.14000000000033,68.3465" fill="" stroke="#000000" stroke-width="0.75" />
</svg>
