<?xml version="1.0" encoding="UTF-8" standalone="yes"?>
<svg width="256.0px" height="256.0px" xmlns="http://www.w3.org/2000/svg" xmlns:xlink="http://www.w3.org/1999/xlink" version="1.2" baseProfile="tiny">
<polyline points="0.0,13.846000000000004 107.29999999999927,13.846000000000004" fill="none" stroke="#000000" stroke-width="0.40" />
<polyline points="0.0,18.846000000000004 107.29999999999927,18.846000000000004" fill="none" stroke="#000000" stroke-width="0.40" />
<polyline points="0.0,23.846000000000004 107.29999999999927,23.846000000000004" fill="none" stroke="#000000" stroke-width="0.40" />
<polyline points="0.0,28.846000000000004 107.29999999999927,28.846000000000004" fill="none" stroke="#000000" stroke-width="0.40" />
<polyline points="0.0,33.846000000000004 107.29999999999927,33.846000000000004" fill="none" stroke="#000000" stroke-width="0.40" />
<polyline points="0.0,66.346 107.29999999999927,66.346" fill="none" stroke="#000000" stroke-width="0.40" />
<polyline points="0.0,71.346 107.29999999999927,71.346" fill="none" stroke="#000000" stroke-width="0.40" />
<polyline points="0.0,76.346 107.29999999999927,76.346" fill="none" stroke="#000000" stroke-width="0.40" />
<polyline points="0.0,81.346 107.29999999999927,81.346" fill="none" stroke="#000000" stroke-width="0.40" />
<polyline points="0.0,86.346 107.29999999999927,86.346" fill="none" stroke="#000000" stroke-width="0.40" />
<polyline points="106.89999999999964,66.346 106.89999999999964,86.346" fill="" stroke="#000000" stroke-width="0.80" />
<polyline points="106.89999999999964,13.846000000000004 106.89999999999964,33.846000000000004" fill="" stroke="#000000" stroke-width="0.80" />
<polyline points="89.70000000000073,74.78599999999994 89.70000000000073,90.096" fill="" stroke="#000000" stroke-width="0.65" />
<polyline points="72.10000000000036,65.90999999999997 72.10000000000036,90.096" fill="" stroke="#000000" stroke-width="0.65" />
<polyline points="55.29999999999927,12.285999999999945 55.29999999999927,27.596000000000004" fill="" stroke="#000000" stroke-width="0.65" />
<polyline points="37.70000000000073,65.90999999999997 37.70000000000073,90.096" fill="" stroke="#000000" stroke-width="0.65" />
<polyline points="38.100000000000364,12.285999999999945 38.100000000000364,27.596000000000004" fill="" stroke="#000000" stroke-width="0.65" />
<polyline points="20.899999999999636,19.785999999999945 20.899999999999636,42.596000000000004" fill="" stroke="#000000" stroke-width="0.65" />
<polyline points="3.280000000000655,65.90999999999997 3.280000000000655,98.846" fill="" stroke="#000000" stroke-width="0.65" />
<polyline points="3.680000000000291,19.785999999999945 3.680000000000291,44.67999999999995" fill="" stroke="#000000" stroke-width="0.65" />
<polyline points="164.0,13.846000000000004 255.0,13.846000000000004" fill="none" stroke="#000000" stroke-width="0.40" />
<polyline points="164.0,18.846000000000004 255.0,18.846000000000004" fill="none" stroke="#000000" stroke-width="0.40" />
<polyline points="164.0,23.846000000000004 255.0,23.846000000000004" fill="none" stroke="#000000" stroke-width="0.40" />
<polyline points="164.0,28.846000000000004 255.0,28.846000000000004" fill="none" stroke="#000000" stroke-width="0.40" />
<polyline points="164.0,33.846000000000004 255.0,33.846000000000004" fill="none" stroke="#000000" stroke-width="0.40" />
<polyline points="164.0,66.346 255.0,66.346" fill="none" stroke="#000000" stroke-width="0.40" />
<polyline points="164.0,71.346 255.0,71.346" fill="none" stroke="#000000" stroke-width="0.40" />
<polyline points="164.0,76.346 255.0,76.346" fill="none" stroke="#000000" stroke-width="0.40" />
<polyline points="164.0,81.346 255.0,81.346" fill="none" stroke="#000000" stroke-width="0.40" />
<polyline points="164.0,86.346 255.0,86.346" fill="none" stroke="#000000" stroke-width="0.40" />
<polyline points="164.39999999999964,0.0 164.39999999999964,86.346" fill="" stroke="#000000" stroke-width="0.80" />
<polyline points="246.29999999999927,65.90999999999997 246.29999999999927,100.096" fill="" stroke="#000000" stroke-width="0.65" />
<polyline points="246.70000000000073,2.2859999999999445 246.70000000000073,22.596000000000004" fill="" stroke="#000000" stroke-width="0.65" />
<polyline points="232.10000000000036,84.78599999999994 232.10000000000036,100.096" fill="" stroke="#000000" stroke-width="0.65" />
<polyline points="232.10000000000036,2.2859999999999445 232.10000000000036,22.596000000000004" fill="" stroke="#000000" stroke-width="0.65" />
<polyline points="217.5,2.2859999999999445 217.5,22.596000000000004" fill="" stroke="#000000" stroke-width="0.65" />
<polyline points="202.5,65.90999999999997 202.5,100.096" fill="" stroke="#000000" stroke-width="0.65" />
<polyline points="202.89999999999964,2.2859999999999445 202.89999999999964,22.596000000000004" fill="" stroke="#000000" stroke-width="0.65" />
<polyline points="244.89999999999964,3.8460000000000036 254.5,3.8460000000000036" fill="" stroke="#000000" stroke-width="0.80" />
<polyline points="244.89999999999964,8.846000000000004 254.5,8.846000000000004" fill="" stroke="#000000" stroke-width="0.80" />
<polyline points="230.29999999999927,3.8460000000000036 239.89999999999964,3.8460000000000036" fill="" stroke="#000000" stroke-width="0.80" />
<polyline points="230.29999999999927,8.846000000000004 239.89999999999964,8.846000000000004" fill="" stroke="#000000" stroke-width="0.80" />
<polyline points="215.70000000000073,3.8460000000000036 225.29999999999927,3.8460000000000036" fill="" stroke="#000000" stroke-width="0.80" />
<polyline points="215.70000000000073,8.846000000000004 225.29999999999927,8.846000000000004" fill="" stroke="#000000" stroke-width="0.80" />
<polyline points="201.10000000000036,3.8460000000000036 210.70000000000073,3.8460000000000036" fill="" stroke="#000000" stroke-width="0.80" />
<polyline points="201.10000000000036,8.846000000000004 210.70000000000073,8.846000000000004" fill="" stroke="#000000" stroke-width="0.80" />
</svg>
