<?xml version="1.0" encoding="UTF-8" standalone="yes"?>
<svg width="256.0px" height="256.0px" xmlns="http://www.w3.org/2000/svg" xmlns:xlink="http://www.w3.org/1999/xlink" version="1.2" baseProfile="tiny">
<polyline points="0.0,63.3465 30.23999999999978,63.3465" fill="none" stroke="#000000" stroke-width="0.40" />
<polyline points="0.0,68.3465 30.23999999999978,68.3465" fill="none" stroke="#000000" stroke-width="0.40" />
<polyline points="0.0,73.3465 30.23999999999978,73.3465" fill="none" stroke="#000000" stroke-width="0.40" />
<polyline points="0.0,78.3465 30.23999999999978,78.3465" fill="none" stroke="#000000" stroke-width="0.40" />
<polyline points="0.0,83.3465 30.23999999999978,83.3465" fill="none" stroke="#000000" stroke-width="0.40" />
<polyline points="0.0,115.846 30.23999999999978,115.846" fill="none" stroke="#000000" stroke-width="0.40" />
<polyline points="0.0,120.846 30.23999999999978,120.846" fill="none" stroke="#000000" stroke-width="0.40" />
<polyline points="0.0,125.846 30.23999999999978,125.846" fill="none" stroke="#000000" stroke-width="0.40" />
<polyline points="0.0,130.846 30.23999999999978,130.846" fill="none" stroke="#000000" stroke-width="0.40" />
<polyline points="0.0,135.846 30.23999999999978,135.846" fill="none" stroke="#000000" stroke-width="0.40" />
<polyline points="0.0,168.346 30.23999999999978,168.346" fill="none" stroke="#000000" stroke-width="0.40" />
<polyline points="0.0,173.346 30.23999999999978,173.346" fill="none" stroke="#000000" stroke-width="0.40" />
<polyline points="0.0,178.346 30.23999999999978,178.346" fill="none" stroke="#000000" stroke-width="0.40" />
<polyline points="0.0,183.346 30.23999999999978,183.346" fill="none" stroke="#000000" stroke-width="0.40" />
<polyline points="0.0,188.346 30.23999999999978,188.346" fill="none" stroke="#000000" stroke-width="0.40" />
<polyline points="0.0,220.846 30.23999999999978,220.846" fill="none" stroke="#000000" stroke-width="0.40" />
<polyline points="0.0,225.846 30.23999999999978,225.846" fill="none" stroke="#000000" stroke-width="0.40" />
<polyline points="0.0,230.846 30.23999999999978,230.846" fill="none" stroke="#000000" stroke-width="0.40" />
<polyline points="0.0,235.846 30.23999999999978,235.846" fill="none" stroke="#000000" stroke-width="0.40" />
<polyline points="0.0,240.846 30.23999999999978,240.846" fill="none" stroke="#000000" stroke-width="0.40" />
<polyline points="29.840000000000146,220.846 29.840000000000146,240.846" fill="" stroke="#000000" stroke-width="0.80" />
<polyline points="29.840000000000146,168.346 29.840000000000146,188.346" fill="" stroke="#000000" stroke-width="0.80" />
<polyline points="29.840000000000146,115.846 29.840000000000146,135.846" fill="" stroke="#000000" stroke-width="0.80" />
<polyline points="29.840000000000146,63.3465 29.840000000000146,83.3465" fill="" stroke="#000000" stroke-width="0.80" />
<polyline points="21.199999999999818,192.407 21.199999999999818,159.596" fill="" stroke="#000000" stroke-width="0.65" />
<polyline points="13.4399999999996,193.346 23.020000000000437,193.346" fill="" stroke="#000000" stroke-width="0.80" />
<polyline points="86.93000000000029,63.3465 255.0,63.3465" fill="none" stroke="#000000" stroke-width="0.40" />
<polyline points="86.93000000000029,68.3465 255.0,68.3465" fill="none" stroke="#000000" stroke-width="0.40" />
<polyline points="86.93000000000029,73.3465 255.0,73.3465" fill="none" stroke="#000000" stroke-width="0.40" />
<polyline points="86.93000000000029,78.3465 255.0,78.3465" fill="none" stroke="#000000" stroke-width="0.40" />
<polyline points="86.93000000000029,83.3465 255.0,83.3465" fill="none" stroke="#000000" stroke-width="0.40" />
<polyline points="86.93000000000029,115.846 255.0,115.846" fill="none" stroke="#000000" stroke-width="0.40" />
<polyline points="86.93000000000029,120.846 255.0,120.846" fill="none" stroke="#000000" stroke-width="0.40" />
<polyline points="86.93000000000029,125.846 255.0,125.846" fill="none" stroke="#000000" stroke-width="0.40" />
<polyline points="86.93000000000029,130.846 255.0,130.846" fill="none" stroke="#000000" stroke-width="0.40" />
<polyline points="86.93000000000029,135.846 255.0,135.846" fill="none" stroke="#000000" stroke-width="0.40" />
<polyline points="86.93000000000029,168.346 255.0,168.346" fill="none" stroke="#000000" stroke-width="0.40" />
<polyline points="86.93000000000029,173.346 255.0,173.346" fill="none" stroke="#000000" stroke-width="0.40" />
<polyline points="86.93000000000029,178.346 255.0,178.346" fill="none" stroke="#000000" stroke-width="0.40" />
<polyline points="86.93000000000029,183.346 255.0,183.346" fill="none" stroke="#000000" stroke-width="0.40" />
<polyline points="86.93000000000029,188.346 255.0,188.346" fill="none" stroke="#000000" stroke-width="0.40" />
<polyline points="86.93000000000029,220.846 255.0,220.846" fill="none" stroke="#000000" stroke-width="0.40" />
<polyline points="86.93000000000029,225.846 255.0,225.846" fill="none" stroke="#000000" stroke-width="0.40" />
<polyline points="86.93000000000029,230.846 255.0,230.846" fill="none" stroke="#000000" stroke-width="0.40" />
<polyline points="86.93000000000029,235.846 255.0,235.846" fill="none" stroke="#000000" stroke-width="0.40" />
<polyline points="86.93000000000029,240.846 255.0,240.846" fill="none" stroke="#000000" stroke-width="0.40" />
<polyline points="87.32999999999993,63.3465 87.32999999999993,255.0" fill="" stroke="#000000" stroke-width="0.80" />
<polyline points="243.27999999999975,223.221 236.82999999999993,227.221" fill="" stroke="#000000" stroke-width="0.65" />
<polyline points="239.22999999999956,235.189 239.22999999999956,219.221" fill="" stroke="#000000" stroke-width="0.65" />
<polyline points="250.4300000000003,232.407 250.4300000000003,215.846" fill="" stroke="#000000" stroke-width="0.65" />
<polyline points="250.4300000000003,194.907 250.4300000000003,158.346" fill="" stroke="#000000" stroke-width="0.65" />
<polyline points="244.5,69.2855 244.5,124.596" fill="" stroke="#000000" stroke-width="0.65" />
<polyline points="244.5,46.7855 244.5,72.0965" fill="" stroke="#000000" stroke-width="0.65" />
<polyline points="227.52000000000044,244.907 227.52000000000044,225.846" fill="" stroke="#000000" stroke-width="0.65" />
<polyline points="227.52000000000044,191.362 227.52000000000044,159.596" fill="" stroke="#000000" stroke-width="0.65" />
<polyline points="212.07999999999993,191.362 212.07999999999993,159.596" fill="" stroke="#000000" stroke-width="0.65" />
<polyline points="206.14999999999964,69.2855 206.14999999999964,124.596" fill="" stroke="#000000" stroke-width="0.65" />
<polyline points="206.14999999999964,46.7855 206.14999999999964,72.0965" fill="" stroke="#000000" stroke-width="0.65" />
<polyline points="196.6300000000001,239.907 196.6300000000001,225.846" fill="" stroke="#000000" stroke-width="0.65" />
<polyline points="181.1899999999996,244.907 181.1899999999996,225.846" fill="" stroke="#000000" stroke-width="0.65" />
<polyline points="181.1899999999996,192.407 181.1899999999996,159.596" fill="" stroke="#000000" stroke-width="0.65" />
<polyline points="175.26000000000022,69.2855 175.26000000000022,124.596" fill="" stroke="#000000" stroke-width="0.65" />
<polyline points="175.26000000000022,46.7855 175.26000000000022,72.0965" fill="" stroke="#000000" stroke-width="0.65" />
<polyline points="156.47999999999956,192.407 156.47999999999956,162.096" fill="" stroke="#000000" stroke-width="0.65" />
<polyline points="150.55000000000018,71.7855 150.55000000000018,124.596" fill="" stroke="#000000" stroke-width="0.65" />
<polyline points="150.55000000000018,49.2855 150.55000000000018,72.0965" fill="" stroke="#000000" stroke-width="0.65" />
<polyline points="131.77000000000044,239.907 131.77000000000044,223.346" fill="" stroke="#000000" stroke-width="0.65" />
<polyline points="131.77000000000044,192.407 131.77000000000044,162.096" fill="" stroke="#000000" stroke-width="0.65" />
<polyline points="125.82999999999993,69.2855 125.82999999999993,124.596" fill="" stroke="#000000" stroke-width="0.65" />
<polyline points="125.82999999999993,46.7855 125.82999999999993,72.0965" fill="" stroke="#000000" stroke-width="0.65" />
<polyline points="242.67000000000007,193.346 252.26000000000022,193.346" fill="" stroke="#000000" stroke-width="0.80" />
<polyline points="242.67000000000007,70.8465 252.26000000000022,70.8465" fill="" stroke="#000000" stroke-width="0.80" />
<polyline points="242.67000000000007,75.8465 252.26000000000022,75.8465" fill="" stroke="#000000" stroke-width="0.80" />
<polyline points="242.67000000000007,80.8465 252.26000000000022,80.8465" fill="" stroke="#000000" stroke-width="0.80" />
<polyline points="242.67000000000007,85.8465 252.26000000000022,85.8465" fill="" stroke="#000000" stroke-width="0.80" />
<polyline points="242.67000000000007,90.8465 252.26000000000022,90.8465" fill="" stroke="#000000" stroke-width="0.80" />
<polyline points="242.67000000000007,95.8465 252.26000000000022,95.8465" fill="" stroke="#000000" stroke-width="0.80" />
<polyline points="242.67000000000007,100.846 252.26000000000022,100.846" fill="" stroke="#000000" stroke-width="0.80" />
<polyline points="242.67000000000007,105.846 252.26000000000022,105.846" fill="" stroke="#000000" stroke-width="0.80" />
<polyline points="242.67000000000007,110.846 252.26000000000022,110.846" fill="" stroke="#000000" stroke-width="0.80" />
<polyline points="242.67000000000007,48.3465 252.26000000000022,48.3465" fill="" stroke="#000000" stroke-width="0.80" />
<polyline points="242.67000000000007,53.3465 252.26000000000022,53.3465" fill="" stroke="#000000" stroke-width="0.80" />
<polyline points="242.67000000000007,58.3465 252.26000000000022,58.3465" fill="" stroke="#000000" stroke-width="0.80" />
<polyline points="219.77000000000044,245.846 229.35000000000036,245.846" fill="" stroke="#000000" stroke-width="0.80" />
<polyline points="219.77000000000044,193.346 229.35000000000036,193.346" fill="" stroke="#000000" stroke-width="0.80" />
<polyline points="204.3199999999997,193.346 213.89999999999964,193.346" fill="" stroke="#000000" stroke-width="0.80" />
<polyline points="204.3199999999997,70.8465 213.89999999999964,70.8465" fill="" stroke="#000000" stroke-width="0.80" />
<polyline points="204.3199999999997,75.8465 213.89999999999964,75.8465" fill="" stroke="#000000" stroke-width="0.80" />
<polyline points="204.3199999999997,80.8465 213.89999999999964,80.8465" fill="" stroke="#000000" stroke-width="0.80" />
<polyline points="204.3199999999997,85.8465 213.89999999999964,85.8465" fill="" stroke="#000000" stroke-width="0.80" />
<polyline points="204.3199999999997,90.8465 213.89999999999964,90.8465" fill="" stroke="#000000" stroke-width="0.80" />
<polyline points="204.3199999999997,95.8465 213.89999999999964,95.8465" fill="" stroke="#000000" stroke-width="0.80" />
<polyline points="204.3199999999997,100.846 213.89999999999964,100.846" fill="" stroke="#000000" stroke-width="0.80" />
<polyline points="204.3199999999997,105.846 213.89999999999964,105.846" fill="" stroke="#000000" stroke-width="0.80" />
<polyline points="204.3199999999997,110.846 213.89999999999964,110.846" fill="" stroke="#000000" stroke-width="0.80" />
<polyline points="204.3199999999997,48.3465 213.89999999999964,48.3465" fill="" stroke="#000000" stroke-width="0.80" />
<polyline points="204.3199999999997,53.3465 213.89999999999964,53.3465" fill="" stroke="#000000" stroke-width="0.80" />
<polyline points="204.3199999999997,58.3465 213.89999999999964,58.3465" fill="" stroke="#000000" stroke-width="0.80" />
<polyline points="173.4300000000003,245.846 183.01000000000022,245.846" fill="" stroke="#000000" stroke-width="0.80" />
<polyline points="173.4300000000003,193.346 183.01000000000022,193.346" fill="" stroke="#000000" stroke-width="0.80" />
<polyline points="173.4300000000003,70.8465 183.01000000000022,70.8465" fill="" stroke="#000000" stroke-width="0.80" />
<polyline points="173.4300000000003,75.8465 183.01000000000022,75.8465" fill="" stroke="#000000" stroke-width="0.80" />
<polyline points="173.4300000000003,80.8465 183.01000000000022,80.8465" fill="" stroke="#000000" stroke-width="0.80" />
<polyline points="173.4300000000003,85.8465 183.01000000000022,85.8465" fill="" stroke="#000000" stroke-width="0.80" />
<polyline points="173.4300000000003,90.8465 183.01000000000022,90.8465" fill="" stroke="#000000" stroke-width="0.80" />
<polyline points="173.4300000000003,95.8465 183.01000000000022,95.8465" fill="" stroke="#000000" stroke-width="0.80" />
<polyline points="173.4300000000003,100.846 183.01000000000022,100.846" fill="" stroke="#000000" stroke-width="0.80" />
<polyline points="173.4300000000003,105.846 183.01000000000022,105.846" fill="" stroke="#000000" stroke-width="0.80" />
<polyline points="173.4300000000003,110.846 183.01000000000022,110.846" fill="" stroke="#000000" stroke-width="0.80" />
<polyline points="173.4300000000003,48.3465 183.01000000000022,48.3465" fill="" stroke="#000000" stroke-width="0.80" />
<polyline points="173.4300000000003,53.3465 183.01000000000022,53.3465" fill="" stroke="#000000" stroke-width="0.80" />
<polyline points="173.4300000000003,58.3465 183.01000000000022,58.3465" fill="" stroke="#000000" stroke-width="0.80" />
<polyline points="148.72000000000025,193.346 158.30000000000018,193.346" fill="" stroke="#000000" stroke-width="0.80" />
<polyline points="148.72000000000025,70.8465 158.30000000000018,70.8465" fill="" stroke="#000000" stroke-width="0.80" />
<polyline points="148.72000000000025,75.8465 158.30000000000018,75.8465" fill="" stroke="#000000" stroke-width="0.80" />
<polyline points="148.72000000000025,80.8465 158.30000000000018,80.8465" fill="" stroke="#000000" stroke-width="0.80" />
<polyline points="148.72000000000025,85.8465 158.30000000000018,85.8465" fill="" stroke="#000000" stroke-width="0.80" />
<polyline points="148.72000000000025,90.8465 158.30000000000018,90.8465" fill="" stroke="#000000" stroke-width="0.80" />
<polyline points="148.72000000000025,95.8465 158.30000000000018,95.8465" fill="" stroke="#000000" stroke-width="0.80" />
<polyline points="148.72000000000025,100.846 158.30000000000018,100.846" fill="" stroke="#000000" stroke-width="0.80" />
<polyline points="148.72000000000025,105.846 158.30000000000018,105.846" fill="" stroke="#000000" stroke-width="0.80" />
<polyline points="148.72000000000025,110.846 158.30000000000018,110.846" fill="" stroke="#000000" stroke-width="0.80" />
<polyline points="148.72000000000025,48.3465 158.30000000000018,48.3465" fill="" stroke="#000000" stroke-width="0.80" />
<polyline points="148.72000000000025,53.3465 158.30000000000018,53.3465" fill="" stroke="#000000" stroke-width="0.80" />
<polyline points="148.72000000000025,58.3465 158.30000000000018,58.3465" fill="" stroke="#000000" stroke-width="0.80" />
<polyline points="124.01000000000022,193.346 133.59000000000015,193.346" fill="" stroke="#000000" stroke-width="0.80" />
<polyline points="124.01000000000022,70.8465 133.59000000000015,70.8465" fill="" stroke="#000000" stroke-width="0.80" />
<polyline points="124.01000000000022,75.8465 133.59000000000015,75.8465" fill="" stroke="#000000" stroke-width="0.80" />
<polyline points="124.01000000000022,80.8465 133.59000000000015,80.8465" fill="" stroke="#000000" stroke-width="0.80" />
<polyline points="124.01000000000022,85.8465 133.59000000000015,85.8465" fill="" stroke="#000000" stroke-width="0.80" />
<polyline points="124.01000000000022,90.8465 133.59000000000015,90.8465" fill="" stroke="#000000" stroke-width="0.80" />
<polyline points="124.01000000000022,95.8465 133.59000000000015,95.8465" fill="" stroke="#000000" stroke-width="0.80" />
<polyline points="124.01000000000022,100.846 133.59000000000015,100.846" fill="" stroke="#000000" stroke-width="0.80" />
<polyline points="124.01000000000022,105.846 133.59000000000015,105.846" fill="" stroke="#000000" stroke-width="0.80" />
<polyline points="124.01000000000022,110.846 133.59000000000015,110.846" fill="" stroke="#000000" stroke-width="0.80" />
<polyline points="124.01000000000022,48.3465 133.59000000000015,48.3465" fill="" stroke="#000000" stroke-width="0.80" />
<polyline points="124.01000000000022,53.3465 133.59000000000015,53.3465" fill="" stroke="#000000" stroke-width="0.80" />
<polyline points="124.01000000000022,58.3465 133.59000000000015,58.3465" fill="" stroke="#000000" stroke-width="0.80" />
<polyline points="134.59000000000015,105.846 139.59000000000015,105.846" fill="" stroke="#000000" stroke-width="0.75" />
<polyline points="134.59000000000015,53.3465 139.59000000000015,53.3465" fill="" stroke="#000000" stroke-width="0.75" />
</svg>
