<?xml version="1.0" encoding="UTF-8" standalone="yes"?>
<svg width="256.0px" height="256.0px" xmlns="http://www.w3.org/2000/svg" xmlns:xlink="http://www.w3.org/1999/xlink" version="1.2" baseProfile="tiny">
<polyline points="0.0,17.346000000000004 255.0,17.346000000000004" fill="none" stroke="#000000" stroke-width="0.40" />
<polyline points="0.0,22.346000000000004 255.0,22.346000000000004" fill="none" stroke="#000000" stroke-width="0.40" />
<polyline points="0.0,27.346000000000004 255.0,27.346000000000004" fill="none" stroke="#000000" stroke-width="0.40" />
<polyline points="0.0,32.346000000000004 255.0,32.346000000000004" fill="none" stroke="#000000" stroke-width="0.40" />
<polyline points="0.0,37.346000000000004 255.0,37.346000000000004" fill="none" stroke="#000000" stroke-width="0.40" />
<polyline points="0.0,112.346 255.0,112.346" fill="none" stroke="#000000" stroke-width="0.40" />
<polyline points="0.0,117.346 255.0,117.346" fill="none" stroke="#000000" stroke-width="0.40" />
<polyline points="0.0,122.346 255.0,122.346" fill="none" stroke="#000000" stroke-width="0.40" />
<polyline points="0.0,127.346 255.0,127.346" fill="none" stroke="#000000" stroke-width="0.40" />
<polyline points="0.0,132.346 255.0,132.346" fill="none" stroke="#000000" stroke-width="0.40" />
<polyline points="0.0,164.846 255.0,164.846" fill="none" stroke="#000000" stroke-width="0.40" />
<polyline points="0.0,169.846 255.0,169.846" fill="none" stroke="#000000" stroke-width="0.40" />
<polyline points="0.0,174.846 255.0,174.846" fill="none" stroke="#000000" stroke-width="0.40" />
<polyline points="0.0,179.846 255.0,179.846" fill="none" stroke="#000000" stroke-width="0.40" />
<polyline points="0.0,184.846 255.0,184.846" fill="none" stroke="#000000" stroke-width="0.40" />
<polyline points="0.0,217.346 255.0,217.346" fill="none" stroke="#000000" stroke-width="0.40" />
<polyline points="0.0,222.346 255.0,222.346" fill="none" stroke="#000000" stroke-width="0.40" />
<polyline points="0.0,227.346 255.0,227.346" fill="none" stroke="#000000" stroke-width="0.40" />
<polyline points="0.0,232.346 255.0,232.346" fill="none" stroke="#000000" stroke-width="0.40" />
<polyline points="0.0,237.346 255.0,237.346" fill="none" stroke="#000000" stroke-width="0.40" />
<polyline points="242.20000000000073,243.90699999999998 242.20000000000073,207.346" fill="" stroke="#000000" stroke-width="0.65" />
<polyline points="226.9400000000005,243.90699999999998 226.9400000000005,207.346" fill="" stroke="#000000" stroke-width="0.65" />
<polyline points="211.39999999999964,243.90699999999998 211.39999999999964,207.346" fill="" stroke="#000000" stroke-width="0.65" />
<polyline points="196.13999999999942,243.90699999999998 196.13999999999942,207.346" fill="" stroke="#000000" stroke-width="0.65" />
<polyline points="165.61000000000058,243.90699999999998 165.61000000000058,207.346" fill="" stroke="#000000" stroke-width="0.65" />
<polyline points="150.35000000000036,243.90699999999998 150.35000000000036,207.346" fill="" stroke="#000000" stroke-width="0.65" />
<polyline points="104.55999999999949,241.40699999999998 104.55999999999949,208.596" fill="" stroke="#000000" stroke-width="0.65" />
<polyline points="83.3700000000008,154.41000000000003 83.3700000000008,174.846" fill="" stroke="#000000" stroke-width="0.65" />
<polyline points="83.3700000000008,131.91000000000003 83.3700000000008,146.096" fill="" stroke="#000000" stroke-width="0.65" />
<polyline points="42.31999999999971,241.40699999999998 42.31999999999971,209.846" fill="" stroke="#000000" stroke-width="0.65" />
<polyline points="36.38999999999942,135.786 36.38999999999942,173.596" fill="" stroke="#000000" stroke-width="0.65" />
<polyline points="36.38999999999942,113.286 36.38999999999942,142.346" fill="" stroke="#000000" stroke-width="0.65" />
<polyline points="229.10000000000036,16.910000000000025 229.10000000000036,51.096000000000004" fill="" stroke="#000000" stroke-width="0.65" />
<polyline points="193.40999999999985,16.910000000000025 193.40999999999985,49.846000000000004" fill="" stroke="#000000" stroke-width="0.65" />
<polyline points="164.86000000000058,16.910000000000025 164.86000000000058,49.846000000000004" fill="" stroke="#000000" stroke-width="0.65" />
<polyline points="129.17000000000007,16.910000000000025 129.17000000000007,46.096000000000004" fill="" stroke="#000000" stroke-width="0.65" />
<polyline points="100.6200000000008,16.910000000000025 100.6200000000008,48.01999999999998" fill="" stroke="#000000" stroke-width="0.65" />
<polyline points="72.06999999999971,16.910000000000025 72.06999999999971,49.942999999999984" fill="" stroke="#000000" stroke-width="0.65" />
<polyline points="36.38999999999942,16.910000000000025 36.38999999999942,52.346000000000004" fill="" stroke="#000000" stroke-width="0.65" />
<polyline points="249.70999999999913,242.346 255.0,242.346" fill="" stroke="#000000" stroke-width="0.80" />
<polyline points="234.45000000000073,242.346 244.03000000000065,242.346" fill="" stroke="#000000" stroke-width="0.80" />
<polyline points="219.1800000000003,242.346 228.77000000000044,242.346" fill="" stroke="#000000" stroke-width="0.80" />
<polyline points="203.63999999999942,242.346 213.22999999999956,242.346" fill="" stroke="#000000" stroke-width="0.80" />
<polyline points="188.3799999999992,242.346 197.95999999999913,242.346" fill="" stroke="#000000" stroke-width="0.80" />
<polyline points="157.86000000000058,242.346 167.4400000000005,242.346" fill="" stroke="#000000" stroke-width="0.80" />
<polyline points="142.59000000000015,242.346 152.1800000000003,242.346" fill="" stroke="#000000" stroke-width="0.80" />
<polyline points="96.80999999999949,242.346 106.38999999999942,242.346" fill="" stroke="#000000" stroke-width="0.80" />
<polyline points="81.54000000000087,154.846 91.1299999999992,154.846" fill="" stroke="#000000" stroke-width="0.80" />
<polyline points="81.54000000000087,159.846 91.1299999999992,159.846" fill="" stroke="#000000" stroke-width="0.80" />
<polyline points="34.55999999999949,242.346 44.13999999999942,242.346" fill="" stroke="#000000" stroke-width="0.80" />
<polyline points="34.55999999999949,134.846 44.13999999999942,134.846" fill="" stroke="#000000" stroke-width="0.80" />
<polyline points="34.55999999999949,139.846 44.13999999999942,139.846" fill="" stroke="#000000" stroke-width="0.80" />
<polyline points="34.55999999999949,144.846 44.13999999999942,144.846" fill="" stroke="#000000" stroke-width="0.80" />
<polyline points="34.55999999999949,149.846 44.13999999999942,149.846" fill="" stroke="#000000" stroke-width="0.80" />
<polyline points="34.55999999999949,154.846 44.13999999999942,154.846" fill="" stroke="#000000" stroke-width="0.80" />
<polyline points="34.55999999999949,159.846 44.13999999999942,159.846" fill="" stroke="#000000" stroke-width="0.80" />
<polyline points="47.909999999999854,115.53399999999999 77.02000000000044,115.53399999999999" fill="" stroke="#000000" stroke-width="0.75" />
</svg>
