<?xml version="1.0" encoding="UTF-8" standalone="yes"?>
<svg width="256.0px" height="256.0px" xmlns="http://www.w3.org/2000/svg" xmlns:xlink="http://www.w3.org/1999/xlink" version="1.2" baseProfile="tiny">
<polyline points="0.0,13.846000000000004 113.51000000000022,13.846000000000004" fill="none" stroke="#000000" stroke-width="0.40" />
<polyline points="0.0,18.846000000000004 113.51000000000022,18.846000000000004" fill="none" stroke="#000000" stroke-width="0.40" />
<polyline points="0.0,23.846000000000004 113.51000000000022,23.846000000000004" fill="none" stroke="#000000" stroke-width="0.40" />
<polyline points="0.0,28.846000000000004 113.51000000000022,28.846000000000004" fill="none" stroke="#000000" stroke-width="0.40" />
<polyline points="0.0,33.846000000000004 113.51000000000022,33.846000000000004" fill="none" stroke="#000000" stroke-width="0.40" />
<polyline points="0.0,66.346 113.51000000000022,66.346" fill="none" stroke="#000000" stroke-width="0.40" />
<polyline points="0.0,71.346 113.51000000000022,71.346" fill="none" stroke="#000000" stroke-width="0.40" />
<polyline points="0.0,76.346 113.51000000000022,76.346" fill="none" stroke="#000000" stroke-width="0.40" />
<polyline points="0.0,81.346 113.51000000000022,81.346" fill="none" stroke="#000000" stroke-width="0.40" />
<polyline points="0.0,86.346 113.51000000000022,86.346" fill="none" stroke="#000000" stroke-width="0.40" />
<polyline points="113.11000000000058,66.346 113.11000000000058,86.346" fill="" stroke="#000000" stroke-width="0.80" />
<polyline points="113.11000000000058,13.846000000000004 113.11000000000058,33.846000000000004" fill="" stroke="#000000" stroke-width="0.80" />
<polyline points="82.54999999999927,65.90999999999997 82.54999999999927,97.596" fill="" stroke="#000000" stroke-width="0.65" />
<polyline points="58.159999999999854,65.90999999999997 58.159999999999854,97.596" fill="" stroke="#000000" stroke-width="0.65" />
<polyline points="58.159999999999854,12.285999999999945 58.159999999999854,28.846000000000004" fill="" stroke="#000000" stroke-width="0.65" />
<polyline points="33.77000000000044,65.90999999999997 33.77000000000044,97.596" fill="" stroke="#000000" stroke-width="0.65" />
<polyline points="33.77000000000044,19.785999999999945 33.77000000000044,38.846000000000004" fill="" stroke="#000000" stroke-width="0.65" />
<polyline points="9.3799999999992,65.90999999999997 9.3799999999992,97.596" fill="" stroke="#000000" stroke-width="0.65" />
<polyline points="9.3799999999992,29.785999999999945 9.3799999999992,43.846000000000004" fill="" stroke="#000000" stroke-width="0.65" />
<polyline points="170.20000000000073,13.846000000000004 255.0,13.846000000000004" fill="none" stroke="#000000" stroke-width="0.40" />
<polyline points="170.20000000000073,18.846000000000004 255.0,18.846000000000004" fill="none" stroke="#000000" stroke-width="0.40" />
<polyline points="170.20000000000073,23.846000000000004 255.0,23.846000000000004" fill="none" stroke="#000000" stroke-width="0.40" />
<polyline points="170.20000000000073,28.846000000000004 255.0,28.846000000000004" fill="none" stroke="#000000" stroke-width="0.40" />
<polyline points="170.20000000000073,33.846000000000004 255.0,33.846000000000004" fill="none" stroke="#000000" stroke-width="0.40" />
<polyline points="170.20000000000073,66.346 255.0,66.346" fill="none" stroke="#000000" stroke-width="0.40" />
<polyline points="170.20000000000073,71.346 255.0,71.346" fill="none" stroke="#000000" stroke-width="0.40" />
<polyline points="170.20000000000073,76.346 255.0,76.346" fill="none" stroke="#000000" stroke-width="0.40" />
<polyline points="170.20000000000073,81.346 255.0,81.346" fill="none" stroke="#000000" stroke-width="0.40" />
<polyline points="170.20000000000073,86.346 255.0,86.346" fill="none" stroke="#000000" stroke-width="0.40" />
<polyline points="170.60000000000036,0.0 170.60000000000036,86.346" fill="" stroke="#000000" stroke-width="0.80" />
<polyline points="237.96999999999935,65.90999999999997 237.96999999999935,99.26300000000003" fill="" stroke="#000000" stroke-width="0.65" />
<polyline points="243.89999999999964,20.40700000000004 243.89999999999964,7.596000000000004" fill="" stroke="#000000" stroke-width="0.65" />
<polyline points="209.29000000000087,65.90999999999997 209.29000000000087,101.346" fill="" stroke="#000000" stroke-width="0.65" />
<polyline points="215.21999999999935,32.90700000000004 215.21999999999935,12.596000000000004" fill="" stroke="#000000" stroke-width="0.65" />
</svg>
