<?xml version="1.0" encoding="UTF-8" standalone="yes"?>
<svg width="256.0px" height="256.0px" xmlns="http://www.w3.org/2000/svg" xmlns:xlink="http://www.w3.org/1999/xlink" version="1.2" baseProfile="tiny">
<polyline points="0.0,63.3465 255.0,63.3465" fill="none" stroke="#000000" stroke-width="0.40" />
<polyline points="0.0,68.3465 255.0,68.3465" fill="none" stroke="#000000" stroke-width="0.40" />
<polyline points="0.0,73.3465 255.0,73.3465" fill="none" stroke="#000000" stroke-width="0.40" />
<polyline points="0.0,78.3465 255.0,78.3465" fill="none" stroke="#000000" stroke-width="0.40" />
<polyline points="0.0,83.3465 255.0,83.3465" fill="none" stroke="#000000" stroke-width="0.40" />
<polyline points="0.0,115.846 255.0,115.846" fill="none" stroke="#000000" stroke-width="0.40" />
<polyline points="0.0,120.846 255.0,120.846" fill="none" stroke="#000000" stroke-width="0.40" />
<polyline points="0.0,125.846 255.0,125.846" fill="none" stroke="#000000" stroke-width="0.40" />
<polyline points="0.0,130.846 255.0,130.846" fill="none" stroke="#000000" stroke-width="0.40" />
<polyline points="0.0,135.846 255.0,135.846" fill="none" stroke="#000000" stroke-width="0.40" />
<polyline points="0.0,168.346 255.0,168.346" fill="none" stroke="#000000" stroke-width="0.40" />
<polyline points="0.0,173.346 255.0,173.346" fill="none" stroke="#000000" stroke-width="0.40" />
<polyline points="0.0,178.346 255.0,178.346" fill="none" stroke="#000000" stroke-width="0.40" />
<polyline points="0.0,183.346 255.0,183.346" fill="none" stroke="#000000" stroke-width="0.40" />
<polyline points="0.0,188.346 255.0,188.346" fill="none" stroke="#000000" stroke-width="0.40" />
<polyline points="0.0,220.846 255.0,220.846" fill="none" stroke="#000000" stroke-width="0.40" />
<polyline points="0.0,225.846 255.0,225.846" fill="none" stroke="#000000" stroke-width="0.40" />
<polyline points="0.0,230.846 255.0,230.846" fill="none" stroke="#000000" stroke-width="0.40" />
<polyline points="0.0,235.846 255.0,235.846" fill="none" stroke="#000000" stroke-width="0.40" />
<polyline points="0.0,240.846 255.0,240.846" fill="none" stroke="#000000" stroke-width="0.40" />
<polyline points="224.39999999999964,220.846 224.39999999999964,240.846" fill="" stroke="#000000" stroke-width="0.80" />
<polyline points="224.39999999999964,168.346 224.39999999999964,188.346" fill="" stroke="#000000" stroke-width="0.80" />
<polyline points="224.39999999999964,115.846 224.39999999999964,135.846" fill="" stroke="#000000" stroke-width="0.80" />
<polyline points="224.39999999999964,63.3465 224.39999999999964,83.3465" fill="" stroke="#000000" stroke-width="0.80" />
<polyline points="233.4400000000005,234.286 233.4400000000005,247.096" fill="" stroke="#000000" stroke-width="0.65" />
<polyline points="239.54999999999927,192.578 239.54999999999927,157.096" fill="" stroke="#000000" stroke-width="0.65" />
<polyline points="233.26000000000022,94.1305 233.26000000000022,125.846" fill="" stroke="#000000" stroke-width="0.65" />
<polyline points="233.26000000000022,71.6305 233.26000000000022,87.0965" fill="" stroke="#000000" stroke-width="0.65" />
<polyline points="179.34000000000015,224.286 179.34000000000015,239.596" fill="" stroke="#000000" stroke-width="0.65" />
<polyline points="164.34000000000015,224.286 164.34000000000015,239.596" fill="" stroke="#000000" stroke-width="0.65" />
<polyline points="170.27000000000044,194.907 170.27000000000044,158.971" fill="" stroke="#000000" stroke-width="0.65" />
<polyline points="164.34000000000015,104.286 164.34000000000015,125.846" fill="" stroke="#000000" stroke-width="0.65" />
<polyline points="170.27000000000044,79.9074 170.27000000000044,63.3465" fill="" stroke="#000000" stroke-width="0.65" />
<polyline points="155.28000000000065,194.907 155.28000000000065,158.346" fill="" stroke="#000000" stroke-width="0.65" />
<polyline points="140.28000000000065,194.907 140.28000000000065,158.346" fill="" stroke="#000000" stroke-width="0.65" />
<polyline points="119.36000000000058,216.786 119.36000000000058,230.846" fill="" stroke="#000000" stroke-width="0.65" />
<polyline points="104.36000000000058,216.786 104.36000000000058,230.846" fill="" stroke="#000000" stroke-width="0.65" />
<polyline points="56.3799999999992,224.286 56.3799999999992,240.846" fill="" stroke="#000000" stroke-width="0.65" />
<polyline points="62.30999999999949,192.407 62.30999999999949,160.846" fill="" stroke="#000000" stroke-width="0.65" />
<polyline points="47.30999999999949,192.407 47.30999999999949,159.596" fill="" stroke="#000000" stroke-width="0.65" />
<polyline points="32.31999999999971,227.407 32.31999999999971,214.596" fill="" stroke="#000000" stroke-width="0.65" />
<polyline points="32.31999999999971,192.407 32.31999999999971,159.596" fill="" stroke="#000000" stroke-width="0.65" />
<polyline points="8.329999999999927,239.907 8.329999999999927,219.596" fill="" stroke="#000000" stroke-width="0.65" />
<polyline points="8.329999999999927,192.407 8.329999999999927,159.596" fill="" stroke="#000000" stroke-width="0.65" />
<polyline points="2.209999999999127,94.1305 2.209999999999127,125.846" fill="" stroke="#000000" stroke-width="0.65" />
<polyline points="8.510000000000218,82.5785 8.510000000000218,55.8465" fill="" stroke="#000000" stroke-width="0.65" />
<polyline points="231.4300000000003,193.346 241.3700000000008,193.346" fill="" stroke="#000000" stroke-width="0.80" />
<polyline points="231.4300000000003,95.8465 241.3700000000008,95.8465" fill="" stroke="#000000" stroke-width="0.80" />
<polyline points="231.4300000000003,100.846 241.3700000000008,100.846" fill="" stroke="#000000" stroke-width="0.80" />
<polyline points="231.4300000000003,105.846 241.3700000000008,105.846" fill="" stroke="#000000" stroke-width="0.80" />
<polyline points="231.4300000000003,110.846 241.3700000000008,110.846" fill="" stroke="#000000" stroke-width="0.80" />
<polyline points="162.52000000000044,193.346 172.10000000000036,193.346" fill="" stroke="#000000" stroke-width="0.80" />
<polyline points="162.52000000000044,105.846 172.10000000000036,105.846" fill="" stroke="#000000" stroke-width="0.80" />
<polyline points="162.52000000000044,110.846 172.10000000000036,110.846" fill="" stroke="#000000" stroke-width="0.80" />
<polyline points="147.52000000000044,193.346 157.10000000000036,193.346" fill="" stroke="#000000" stroke-width="0.80" />
<polyline points="132.53000000000065,193.346 142.11000000000058,193.346" fill="" stroke="#000000" stroke-width="0.80" />
<polyline points="117.53000000000065,215.846 127.11000000000058,215.846" fill="" stroke="#000000" stroke-width="0.80" />
<polyline points="102.53000000000065,215.846 112.1200000000008,215.846" fill="" stroke="#000000" stroke-width="0.80" />
<polyline points="54.54999999999927,193.346 64.1299999999992,193.346" fill="" stroke="#000000" stroke-width="0.80" />
<polyline points="39.54999999999927,193.346 49.13999999999942,193.346" fill="" stroke="#000000" stroke-width="0.80" />
<polyline points="24.55999999999949,193.346 34.13999999999942,193.346" fill="" stroke="#000000" stroke-width="0.80" />
<polyline points="0.569999999999709,193.346 10.149999999999636,193.346" fill="" stroke="#000000" stroke-width="0.80" />
<polyline points="0.3899999999994179,95.8465 10.329999999999927,95.8465" fill="" stroke="#000000" stroke-width="0.80" />
<polyline points="0.3899999999994179,100.846 10.329999999999927,100.846" fill="" stroke="#000000" stroke-width="0.80" />
<polyline points="0.3899999999994179,105.846 10.329999999999927,105.846" fill="" stroke="#000000" stroke-width="0.80" />
<polyline points="0.3899999999994179,110.846 10.329999999999927,110.846" fill="" stroke="#000000" stroke-width="0.80" />
</svg>
