<?xml version="1.0" encoding="UTF-8" standalone="yes"?>
<svg width="256.0px" height="256.0px" xmlns="http://www.w3.org/2000/svg" xmlns:xlink="http://www.w3.org/1999/xlink" version="1.2" baseProfile="tiny">
<polyline points="0.0,63.3465 196.79000000000087,63.3465" fill="none" stroke="#000000" stroke-width="0.40" />
<polyline points="0.0,68.3465 196.79000000000087,68.3465" fill="none" stroke="#000000" stroke-width="0.40" />
<polyline points="0.0,73.3465 196.79000000000087,73.3465" fill="none" stroke="#000000" stroke-width="0.40" />
<polyline points="0.0,78.3465 196.79000000000087,78.3465" fill="none" stroke="#000000" stroke-width="0.40" />
<polyline points="0.0,83.3465 196.79000000000087,83.3465" fill="none" stroke="#000000" stroke-width="0.40" />
<polyline points="0.0,115.846 196.79000000000087,115.846" fill="none" stroke="#000000" stroke-width="0.40" />
<polyline points="0.0,120.846 196.79000000000087,120.846" fill="none" stroke="#000000" stroke-width="0.40" />
<polyline points="0.0,125.846 196.79000000000087,125.846" fill="none" stroke="#000000" stroke-width="0.40" />
<polyline points="0.0,130.846 196.79000000000087,130.846" fill="none" stroke="#000000" stroke-width="0.40" />
<polyline points="0.0,135.846 196.79000000000087,135.846" fill="none" stroke="#000000" stroke-width="0.40" />
<polyline points="0.0,168.346 196.79000000000087,168.346" fill="none" stroke="#000000" stroke-width="0.40" />
<polyline points="0.0,173.346 196.79000000000087,173.346" fill="none" stroke="#000000" stroke-width="0.40" />
<polyline points="0.0,178.346 196.79000000000087,178.346" fill="none" stroke="#000000" stroke-width="0.40" />
<polyline points="0.0,183.346 196.79000000000087,183.346" fill="none" stroke="#000000" stroke-width="0.40" />
<polyline points="0.0,188.346 196.79000000000087,188.346" fill="none" stroke="#000000" stroke-width="0.40" />
<polyline points="0.0,220.846 196.79000000000087,220.846" fill="none" stroke="#000000" stroke-width="0.40" />
<polyline points="0.0,225.846 196.79000000000087,225.846" fill="none" stroke="#000000" stroke-width="0.40" />
<polyline points="0.0,230.846 196.79000000000087,230.846" fill="none" stroke="#000000" stroke-width="0.40" />
<polyline points="0.0,235.846 196.79000000000087,235.846" fill="none" stroke="#000000" stroke-width="0.40" />
<polyline points="0.0,240.846 196.79000000000087,240.846" fill="none" stroke="#000000" stroke-width="0.40" />
<polyline points="196.38999999999942,220.846 196.38999999999942,240.846" fill="" stroke="#000000" stroke-width="0.80" />
<polyline points="196.38999999999942,168.346 196.38999999999942,188.346" fill="" stroke="#000000" stroke-width="0.80" />
<polyline points="196.38999999999942,115.846 196.38999999999942,135.846" fill="" stroke="#000000" stroke-width="0.80" />
<polyline points="196.38999999999942,63.3465 196.38999999999942,83.3465" fill="" stroke="#000000" stroke-width="0.80" />
<polyline points="180.46999999999935,227.91 180.46999999999935,243.346" fill="" stroke="#000000" stroke-width="0.65" />
<polyline points="139.29000000000087,219.286 139.29000000000087,235.846" fill="" stroke="#000000" stroke-width="0.65" />
<polyline points="139.29000000000087,94.2855 139.29000000000087,125.846" fill="" stroke="#000000" stroke-width="0.65" />
<polyline points="139.29000000000087,71.7855 139.29000000000087,87.0965" fill="" stroke="#000000" stroke-width="0.65" />
<polyline points="113.94000000000051,226.786 113.94000000000051,245.846" fill="" stroke="#000000" stroke-width="0.65" />
<polyline points="88.60000000000036,236.786 88.60000000000036,250.846" fill="" stroke="#000000" stroke-width="0.65" />
<polyline points="94.70999999999913,195.078 94.70999999999913,158.971" fill="" stroke="#000000" stroke-width="0.65" />
<polyline points="75.23999999999978,238.862 75.23999999999978,223.346" fill="" stroke="#000000" stroke-width="0.65" />
<polyline points="28.1299999999992,216.786 28.1299999999992,233.346" fill="" stroke="#000000" stroke-width="0.65" />
<polyline points="2.780000000000655,224.286 2.780000000000655,242.096" fill="" stroke="#000000" stroke-width="0.65" />
<polyline points="137.45999999999913,95.8465 147.04000000000087,95.8465" fill="" stroke="#000000" stroke-width="0.80" />
<polyline points="137.45999999999913,100.846 147.04000000000087,100.846" fill="" stroke="#000000" stroke-width="0.80" />
<polyline points="137.45999999999913,105.846 147.04000000000087,105.846" fill="" stroke="#000000" stroke-width="0.80" />
<polyline points="137.45999999999913,110.846 147.04000000000087,110.846" fill="" stroke="#000000" stroke-width="0.80" />
<polyline points="86.59000000000015,193.346 96.53000000000065,193.346" fill="" stroke="#000000" stroke-width="0.80" />
<polyline points="26.299999999999272,215.846 35.8799999999992,215.846" fill="" stroke="#000000" stroke-width="0.80" />
<polyline points="253.47999999999956,63.3465 255.0,63.3465" fill="none" stroke="#000000" stroke-width="0.40" />
<polyline points="253.47999999999956,68.3465 255.0,68.3465" fill="none" stroke="#000000" stroke-width="0.40" />
<polyline points="253.47999999999956,73.3465 255.0,73.3465" fill="none" stroke="#000000" stroke-width="0.40" />
<polyline points="253.47999999999956,78.3465 255.0,78.3465" fill="none" stroke="#000000" stroke-width="0.40" />
<polyline points="253.47999999999956,83.3465 255.0,83.3465" fill="none" stroke="#000000" stroke-width="0.40" />
<polyline points="253.47999999999956,115.846 255.0,115.846" fill="none" stroke="#000000" stroke-width="0.40" />
<polyline points="253.47999999999956,120.846 255.0,120.846" fill="none" stroke="#000000" stroke-width="0.40" />
<polyline points="253.47999999999956,125.846 255.0,125.846" fill="none" stroke="#000000" stroke-width="0.40" />
<polyline points="253.47999999999956,130.846 255.0,130.846" fill="none" stroke="#000000" stroke-width="0.40" />
<polyline points="253.47999999999956,135.846 255.0,135.846" fill="none" stroke="#000000" stroke-width="0.40" />
<polyline points="253.47999999999956,168.346 255.0,168.346" fill="none" stroke="#000000" stroke-width="0.40" />
<polyline points="253.47999999999956,173.346 255.0,173.346" fill="none" stroke="#000000" stroke-width="0.40" />
<polyline points="253.47999999999956,178.346 255.0,178.346" fill="none" stroke="#000000" stroke-width="0.40" />
<polyline points="253.47999999999956,183.346 255.0,183.346" fill="none" stroke="#000000" stroke-width="0.40" />
<polyline points="253.47999999999956,188.346 255.0,188.346" fill="none" stroke="#000000" stroke-width="0.40" />
<polyline points="253.47999999999956,220.846 255.0,220.846" fill="none" stroke="#000000" stroke-width="0.40" />
<polyline points="253.47999999999956,225.846 255.0,225.846" fill="none" stroke="#000000" stroke-width="0.40" />
<polyline points="253.47999999999956,230.846 255.0,230.846" fill="none" stroke="#000000" stroke-width="0.40" />
<polyline points="253.47999999999956,235.846 255.0,235.846" fill="none" stroke="#000000" stroke-width="0.40" />
<polyline points="253.47999999999956,240.846 255.0,240.846" fill="none" stroke="#000000" stroke-width="0.40" />
<polyline points="253.8799999999992,63.3465 253.8799999999992,255.0" fill="" stroke="#000000" stroke-width="0.80" />
</svg>
