<?xml version="1.0" encoding="UTF-8" standalone="yes"?>
<svg width="256.0px" height="256.0px" xmlns="http://www.w3.org/2000/svg" xmlns:xlink="http://www.w3.org/1999/xlink" version="1.2" baseProfile="tiny">
<polyline points="0.0,13.846000000000004 196.79000000000087,13.846000000000004" fill="none" stroke="#000000" stroke-width="0.40" />
<polyline points="0.0,18.846000000000004 196.79000000000087,18.846000000000004" fill="none" stroke="#000000" stroke-width="0.40" />
<polyline points="0.0,23.846000000000004 196.79000000000087,23.846000000000004" fill="none" stroke="#000000" stroke-width="0.40" />
<polyline points="0.0,28.846000000000004 196.79000000000087,28.846000000000004" fill="none" stroke="#000000" stroke-width="0.40" />
<polyline points="0.0,33.846000000000004 196.79000000000087,33.846000000000004" fill="none" stroke="#000000" stroke-width="0.40" />
<polyline points="0.0,66.346 196.79000000000087,66.346" fill="none" stroke="#000000" stroke-width="0.40" />
<polyline points="0.0,71.346 196.79000000000087,71.346" fill="none" stroke="#000000" stroke-width="0.40" />
<polyline points="0.0,76.346 196.79000000000087,76.346" fill="none" stroke="#000000" stroke-width="0.40" />
<polyline points="0.0,81.346 196.79000000000087,81.346" fill="none" stroke="#000000" stroke-width="0.40" />
<polyline points="0.0,86.346 196.79000000000087,86.346" fill="none" stroke="#000000" stroke-width="0.40" />
<polyline points="196.38999999999942,66.346 196.38999999999942,86.346" fill="" stroke="#000000" stroke-width="0.80" />
<polyline points="196.38999999999942,13.846000000000004 196.38999999999942,33.846000000000004" fill="" stroke="#000000" stroke-width="0.80" />
<polyline points="164.1800000000003,65.90999999999997 164.1800000000003,97.596" fill="" stroke="#000000" stroke-width="0.65" />
<polyline points="138.46999999999935,65.90999999999997 138.46999999999935,97.596" fill="" stroke="#000000" stroke-width="0.65" />
<polyline points="138.46999999999935,12.285999999999945 138.46999999999935,28.846000000000004" fill="" stroke="#000000" stroke-width="0.65" />
<polyline points="122.40999999999985,19.785999999999945 122.40999999999985,37.596000000000004" fill="" stroke="#000000" stroke-width="0.65" />
<polyline points="106.34000000000015,65.90999999999997 106.34000000000015,97.596" fill="" stroke="#000000" stroke-width="0.65" />
<polyline points="106.34000000000015,19.785999999999945 106.34000000000015,40.0" fill="" stroke="#000000" stroke-width="0.65" />
<polyline points="80.63999999999942,65.90999999999997 80.63999999999942,97.596" fill="" stroke="#000000" stroke-width="0.65" />
<polyline points="80.63999999999942,29.785999999999945 80.63999999999942,43.846000000000004" fill="" stroke="#000000" stroke-width="0.65" />
<polyline points="48.5,65.90999999999997 48.5,97.596" fill="" stroke="#000000" stroke-width="0.65" />
<polyline points="22.799999999999272,65.90999999999997 22.799999999999272,97.596" fill="" stroke="#000000" stroke-width="0.65" />
<polyline points="22.799999999999272,9.785999999999945 22.799999999999272,26.346000000000004" fill="" stroke="#000000" stroke-width="0.65" />
<polyline points="6.729999999999563,17.285999999999945 6.729999999999563,37.596000000000004" fill="" stroke="#000000" stroke-width="0.65" />
<polyline points="20.969999999999345,8.846000000000004 30.55999999999949,8.846000000000004" fill="" stroke="#000000" stroke-width="0.80" />
<polyline points="253.47999999999956,13.846000000000004 255.0,13.846000000000004" fill="none" stroke="#000000" stroke-width="0.40" />
<polyline points="253.47999999999956,18.846000000000004 255.0,18.846000000000004" fill="none" stroke="#000000" stroke-width="0.40" />
<polyline points="253.47999999999956,23.846000000000004 255.0,23.846000000000004" fill="none" stroke="#000000" stroke-width="0.40" />
<polyline points="253.47999999999956,28.846000000000004 255.0,28.846000000000004" fill="none" stroke="#000000" stroke-width="0.40" />
<polyline points="253.47999999999956,33.846000000000004 255.0,33.846000000000004" fill="none" stroke="#000000" stroke-width="0.40" />
<polyline points="253.47999999999956,66.346 255.0,66.346" fill="none" stroke="#000000" stroke-width="0.40" />
<polyline points="253.47999999999956,71.346 255.0,71.346" fill="none" stroke="#000000" stroke-width="0.40" />
<polyline points="253.47999999999956,76.346 255.0,76.346" fill="none" stroke="#000000" stroke-width="0.40" />
<polyline points="253.47999999999956,81.346 255.0,81.346" fill="none" stroke="#000000" stroke-width="0.40" />
<polyline points="253.47999999999956,86.346 255.0,86.346" fill="none" stroke="#000000" stroke-width="0.40" />
<polyline points="253.8799999999992,0.0 253.8799999999992,86.346" fill="" stroke="#000000" stroke-width="0.80" />
</svg>
