<?xml version="1.0" encoding="UTF-8" standalone="yes"?>
<svg width="256.0px" height="256.0px" xmlns="http://www.w3.org/2000/svg" xmlns:xlink="http://www.w3.org/1999/xlink" version="1.2" baseProfile="tiny">
<polyline points="0.0,17.346000000000004 255.0,17.346000000000004" fill="none" stroke="#000000" stroke-width="0.40" />
<polyline points="0.0,22.346000000000004 255.0,22.346000000000004" fill="none" stroke="#000000" stroke-width="0.40" />
<polyline points="0.0,27.346000000000004 255.0,27.346000000000004" fill="none" stroke="#000000" stroke-width="0.40" />
<polyline points="0.0,32.346000000000004 255.0,32.346000000000004" fill="none" stroke="#000000" stroke-width="0.40" />
<polyline points="0.0,37.346000000000004 255.0,37.346000000000004" fill="none" stroke="#000000" stroke-width="0.40" />
<polyline points="0.0,112.346 255.0,112.346" fill="none" stroke="#000000" stroke-width="0.40" />
<polyline points="0.0,117.346 255.0,117.346" fill="none" stroke="#000000" stroke-width="0.40" />
<polyline points="0.0,122.346 255.0,122.346" fill="none" stroke="#000000" stroke-width="0.40" />
<polyline points="0.0,127.346 255.0,127.346" fill="none" stroke="#000000" stroke-width="0.40" />
<polyline points="0.0,132.346 255.0,132.346" fill="none" stroke="#000000" stroke-width="0.40" />
<polyline points="0.0,164.846 255.0,164.846" fill="none" stroke="#000000" stroke-width="0.40" />
<polyline points="0.0,169.846 255.0,169.846" fill="none" stroke="#000000" stroke-width="0.40" />
<polyline points="0.0,174.846 255.0,174.846" fill="none" stroke="#000000" stroke-width="0.40" />
<polyline points="0.0,179.846 255.0,179.846" fill="none" stroke="#000000" stroke-width="0.40" />
<polyline points="0.0,184.846 255.0,184.846" fill="none" stroke="#000000" stroke-width="0.40" />
<polyline points="0.0,217.346 255.0,217.346" fill="none" stroke="#000000" stroke-width="0.40" />
<polyline points="0.0,222.346 255.0,222.346" fill="none" stroke="#000000" stroke-width="0.40" />
<polyline points="0.0,227.346 255.0,227.346" fill="none" stroke="#000000" stroke-width="0.40" />
<polyline points="0.0,232.346 255.0,232.346" fill="none" stroke="#000000" stroke-width="0.40" />
<polyline points="0.0,237.346 255.0,237.346" fill="none" stroke="#000000" stroke-width="0.40" />
<polyline points="123.06500000000005,217.346 123.06500000000005,237.346" fill="" stroke="#000000" stroke-width="0.80" />
<polyline points="123.06500000000005,164.846 123.06500000000005,184.846" fill="" stroke="#000000" stroke-width="0.80" />
<polyline points="123.06500000000005,112.346 123.06500000000005,132.346" fill="" stroke="#000000" stroke-width="0.80" />
<polyline points="129.00900000000001,17.346000000000004 129.00900000000001,37.346000000000004" fill="" stroke="#000000" stroke-width="0.80" />
<polyline points="239.88,247.86200000000002 239.88,195.039" fill="" stroke="#000000" stroke-width="0.65" />
<polyline points="210.83000000000004,248.90699999999998 210.83000000000004,197.346" fill="" stroke="#000000" stroke-width="0.65" />
<polyline points="204.71699999999998,128.13 204.71699999999998,174.846" fill="" stroke="#000000" stroke-width="0.65" />
<polyline points="204.71699999999998,105.63 204.71699999999998,122.346" fill="" stroke="#000000" stroke-width="0.65" />
<polyline points="181.779,248.90699999999998 181.779,201.096" fill="" stroke="#000000" stroke-width="0.65" />
<polyline points="175.846,138.286 175.846,174.846" fill="" stroke="#000000" stroke-width="0.65" />
<polyline points="175.846,115.786 175.846,131.096" fill="" stroke="#000000" stroke-width="0.65" />
<polyline points="157.68899999999996,133.286 157.68899999999996,174.221" fill="" stroke="#000000" stroke-width="0.65" />
<polyline points="157.68899999999996,110.786 157.68899999999996,128.596" fill="" stroke="#000000" stroke-width="0.65" />
<polyline points="145.46500000000003,248.90699999999998 145.46500000000003,201.096" fill="" stroke="#000000" stroke-width="0.65" />
<polyline points="139.53300000000002,130.786 139.53300000000002,173.596" fill="" stroke="#000000" stroke-width="0.65" />
<polyline points="139.53300000000002,108.286 139.53300000000002,126.096" fill="" stroke="#000000" stroke-width="0.65" />
<polyline points="96.125,211.91000000000003 96.125,255.0" fill="" stroke="#000000" stroke-width="0.65" />
<polyline points="96.125,143.286 96.125,174.846" fill="" stroke="#000000" stroke-width="0.65" />
<polyline points="96.125,120.786 96.125,136.096" fill="" stroke="#000000" stroke-width="0.65" />
<polyline points="62.543000000000006,210.786 62.543000000000006,255.0" fill="" stroke="#000000" stroke-width="0.65" />
<polyline points="62.543000000000006,138.286 62.543000000000006,174.39999999999998" fill="" stroke="#000000" stroke-width="0.65" />
<polyline points="62.543000000000006,115.786 62.543000000000006,133.86399999999998" fill="" stroke="#000000" stroke-width="0.65" />
<polyline points="35.678,210.786 35.678,255.0" fill="" stroke="#000000" stroke-width="0.65" />
<polyline points="35.678,135.786 35.678,174.043" fill="" stroke="#000000" stroke-width="0.65" />
<polyline points="35.678,113.286 35.678,132.079" fill="" stroke="#000000" stroke-width="0.65" />
<polyline points="18.886999999999944,210.786 18.886999999999944,255.0" fill="" stroke="#000000" stroke-width="0.65" />
<polyline points="2.0960000000000036,210.786 2.0960000000000036,255.0" fill="" stroke="#000000" stroke-width="0.65" />
<polyline points="2.0960000000000036,135.786 2.0960000000000036,173.596" fill="" stroke="#000000" stroke-width="0.65" />
<polyline points="2.0960000000000036,113.286 2.0960000000000036,129.846" fill="" stroke="#000000" stroke-width="0.65" />
<polyline points="223.02099999999996,16.910000000000025 223.02099999999996,43.596000000000004" fill="" stroke="#000000" stroke-width="0.65" />
<polyline points="197.173,16.910000000000025 197.173,46.096000000000004" fill="" stroke="#000000" stroke-width="0.65" />
<polyline points="171.32500000000005,16.910000000000025 171.32500000000005,48.596000000000004" fill="" stroke="#000000" stroke-width="0.65" />
<polyline points="145.476,16.910000000000025 145.476,51.096000000000004" fill="" stroke="#000000" stroke-width="0.65" />
<polyline points="93.49099999999999,16.910000000000025 93.49099999999999,48.596000000000004" fill="" stroke="#000000" stroke-width="0.65" />
<polyline points="65.13599999999997,16.910000000000025 65.13599999999997,48.596000000000004" fill="" stroke="#000000" stroke-width="0.65" />
<polyline points="36.78099999999995,16.910000000000025 36.78099999999995,48.596000000000004" fill="" stroke="#000000" stroke-width="0.65" />
<polyline points="8.426000000000045,16.910000000000025 8.426000000000045,48.596000000000004" fill="" stroke="#000000" stroke-width="0.65" />
<polyline points="250.27999999999997,242.346 255.0,242.346" fill="" stroke="#000000" stroke-width="0.80" />
<polyline points="250.27999999999997,212.346 255.0,212.346" fill="" stroke="#000000" stroke-width="0.80" />
<polyline points="232.12,242.346 241.71000000000004,242.346" fill="" stroke="#000000" stroke-width="0.80" />
<polyline points="232.12,247.346 241.71000000000004,247.346" fill="" stroke="#000000" stroke-width="0.80" />
<polyline points="203.07299999999998,242.346 212.65499999999997,242.346" fill="" stroke="#000000" stroke-width="0.80" />
<polyline points="203.07299999999998,247.346 212.65499999999997,247.346" fill="" stroke="#000000" stroke-width="0.80" />
<polyline points="202.89200000000005,129.846 212.836,129.846" fill="" stroke="#000000" stroke-width="0.80" />
<polyline points="202.89200000000005,134.846 212.836,134.846" fill="" stroke="#000000" stroke-width="0.80" />
<polyline points="202.89200000000005,139.846 212.836,139.846" fill="" stroke="#000000" stroke-width="0.80" />
<polyline points="202.89200000000005,144.846 212.836,144.846" fill="" stroke="#000000" stroke-width="0.80" />
<polyline points="202.89200000000005,149.846 212.836,149.846" fill="" stroke="#000000" stroke-width="0.80" />
<polyline points="202.89200000000005,154.846 212.836,154.846" fill="" stroke="#000000" stroke-width="0.80" />
<polyline points="202.89200000000005,159.846 212.836,159.846" fill="" stroke="#000000" stroke-width="0.80" />
<polyline points="202.89200000000005,107.346 212.836,107.346" fill="" stroke="#000000" stroke-width="0.80" />
<polyline points="174.02099999999996,242.346 183.60400000000004,242.346" fill="" stroke="#000000" stroke-width="0.80" />
<polyline points="174.02099999999996,247.346 183.60400000000004,247.346" fill="" stroke="#000000" stroke-width="0.80" />
<polyline points="174.02099999999996,139.846 183.60400000000004,139.846" fill="" stroke="#000000" stroke-width="0.80" />
<polyline points="174.02099999999996,144.846 183.60400000000004,144.846" fill="" stroke="#000000" stroke-width="0.80" />
<polyline points="174.02099999999996,149.846 183.60400000000004,149.846" fill="" stroke="#000000" stroke-width="0.80" />
<polyline points="174.02099999999996,154.846 183.60400000000004,154.846" fill="" stroke="#000000" stroke-width="0.80" />
<polyline points="174.02099999999996,159.846 183.60400000000004,159.846" fill="" stroke="#000000" stroke-width="0.80" />
<polyline points="155.86400000000003,134.846 165.447,134.846" fill="" stroke="#000000" stroke-width="0.80" />
<polyline points="155.86400000000003,139.846 165.447,139.846" fill="" stroke="#000000" stroke-width="0.80" />
<polyline points="155.86400000000003,144.846 165.447,144.846" fill="" stroke="#000000" stroke-width="0.80" />
<polyline points="155.86400000000003,149.846 165.447,149.846" fill="" stroke="#000000" stroke-width="0.80" />
<polyline points="155.86400000000003,154.846 165.447,154.846" fill="" stroke="#000000" stroke-width="0.80" />
<polyline points="155.86400000000003,159.846 165.447,159.846" fill="" stroke="#000000" stroke-width="0.80" />
<polyline points="137.70799999999997,242.346 147.28999999999996,242.346" fill="" stroke="#000000" stroke-width="0.80" />
<polyline points="137.70799999999997,247.346 147.28999999999996,247.346" fill="" stroke="#000000" stroke-width="0.80" />
<polyline points="137.70799999999997,129.846 147.28999999999996,129.846" fill="" stroke="#000000" stroke-width="0.80" />
<polyline points="137.70799999999997,134.846 147.28999999999996,134.846" fill="" stroke="#000000" stroke-width="0.80" />
<polyline points="137.70799999999997,139.846 147.28999999999996,139.846" fill="" stroke="#000000" stroke-width="0.80" />
<polyline points="137.70799999999997,144.846 147.28999999999996,144.846" fill="" stroke="#000000" stroke-width="0.80" />
<polyline points="137.70799999999997,149.846 147.28999999999996,149.846" fill="" stroke="#000000" stroke-width="0.80" />
<polyline points="137.70799999999997,154.846 147.28999999999996,154.846" fill="" stroke="#000000" stroke-width="0.80" />
<polyline points="137.70799999999997,159.846 147.28999999999996,159.846" fill="" stroke="#000000" stroke-width="0.80" />
<polyline points="137.70799999999997,107.346 147.28999999999996,107.346" fill="" stroke="#000000" stroke-width="0.80" />
<polyline points="94.29999999999995,242.346 103.88300000000004,242.346" fill="" stroke="#000000" stroke-width="0.80" />
<polyline points="94.29999999999995,212.346 103.88300000000004,212.346" fill="" stroke="#000000" stroke-width="0.80" />
<polyline points="94.29999999999995,144.846 103.88300000000004,144.846" fill="" stroke="#000000" stroke-width="0.80" />
<polyline points="94.29999999999995,149.846 103.88300000000004,149.846" fill="" stroke="#000000" stroke-width="0.80" />
<polyline points="94.29999999999995,154.846 103.88300000000004,154.846" fill="" stroke="#000000" stroke-width="0.80" />
<polyline points="94.29999999999995,159.846 103.88300000000004,159.846" fill="" stroke="#000000" stroke-width="0.80" />
<polyline points="60.71799999999996,242.346 70.30100000000004,242.346" fill="" stroke="#000000" stroke-width="0.80" />
<polyline points="60.71799999999996,212.346 70.30100000000004,212.346" fill="" stroke="#000000" stroke-width="0.80" />
<polyline points="60.71799999999996,139.846 70.30100000000004,139.846" fill="" stroke="#000000" stroke-width="0.80" />
<polyline points="60.71799999999996,144.846 70.30100000000004,144.846" fill="" stroke="#000000" stroke-width="0.80" />
<polyline points="60.71799999999996,149.846 70.30100000000004,149.846" fill="" stroke="#000000" stroke-width="0.80" />
<polyline points="60.71799999999996,154.846 70.30100000000004,154.846" fill="" stroke="#000000" stroke-width="0.80" />
<polyline points="60.71799999999996,159.846 70.30100000000004,159.846" fill="" stroke="#000000" stroke-width="0.80" />
<polyline points="33.85299999999995,242.346 43.436000000000035,242.346" fill="" stroke="#000000" stroke-width="0.80" />
<polyline points="33.85299999999995,212.346 43.436000000000035,212.346" fill="" stroke="#000000" stroke-width="0.80" />
<polyline points="33.85299999999995,134.846 43.436000000000035,134.846" fill="" stroke="#000000" stroke-width="0.80" />
<polyline points="33.85299999999995,139.846 43.436000000000035,139.846" fill="" stroke="#000000" stroke-width="0.80" />
<polyline points="33.85299999999995,144.846 43.436000000000035,144.846" fill="" stroke="#000000" stroke-width="0.80" />
<polyline points="33.85299999999995,149.846 43.436000000000035,149.846" fill="" stroke="#000000" stroke-width="0.80" />
<polyline points="33.85299999999995,154.846 43.436000000000035,154.846" fill="" stroke="#000000" stroke-width="0.80" />
<polyline points="33.85299999999995,159.846 43.436000000000035,159.846" fill="" stroke="#000000" stroke-width="0.80" />
<polyline points="17.062000000000012,242.346 26.644999999999982,242.346" fill="" stroke="#000000" stroke-width="0.80" />
<polyline points="17.062000000000012,212.346 26.644999999999982,212.346" fill="" stroke="#000000" stroke-width="0.80" />
<polyline points="0.27099999999995816,242.346 9.854000000000042,242.346" fill="" stroke="#000000" stroke-width="0.80" />
<polyline points="0.27099999999995816,212.346 9.854000000000042,212.346" fill="" stroke="#000000" stroke-width="0.80" />
<polyline points="0.27099999999995816,134.846 9.854000000000042,134.846" fill="" stroke="#000000" stroke-width="0.80" />
<polyline points="0.27099999999995816,139.846 9.854000000000042,139.846" fill="" stroke="#000000" stroke-width="0.80" />
<polyline points="0.27099999999995816,144.846 9.854000000000042,144.846" fill="" stroke="#000000" stroke-width="0.80" />
<polyline points="0.27099999999995816,149.846 9.854000000000042,149.846" fill="" stroke="#000000" stroke-width="0.80" />
<polyline points="0.27099999999995816,154.846 9.854000000000042,154.846" fill="" stroke="#000000" stroke-width="0.80" />
<polyline points="0.27099999999995816,159.846 9.854000000000042,159.846" fill="" stroke="#000000" stroke-width="0.80" />
<polyline points="44.436000000000035,154.846 49.436000000000035,154.846" fill="" stroke="#000000" stroke-width="0.75" />
<polyline points="44.436000000000035,102.346 49.436000000000035,102.346" fill="" stroke="#000000" stroke-width="0.75" />
</svg>
