<?xml version="1.0" encoding="UTF-8" standalone="yes"?>
<svg width="256.0px" height="256.0px" xmlns="http://www.w3.org/2000/svg" xmlns:xlink="http://www.w3.org/1999/xlink" version="1.2" baseProfile="tiny">
<polyline points="0.0,63.3465 255.0,63.3465" fill="none" stroke="#000000" stroke-width="0.40" />
<polyline points="0.0,68.3465 255.0,68.3465" fill="none" stroke="#000000" stroke-width="0.40" />
<polyline points="0.0,73.3465 255.0,73.3465" fill="none" stroke="#000000" stroke-width="0.40" />
<polyline points="0.0,78.3465 255.0,78.3465" fill="none" stroke="#000000" stroke-width="0.40" />
<polyline points="0.0,83.3465 255.0,83.3465" fill="none" stroke="#000000" stroke-width="0.40" />
<polyline points="0.0,115.846 255.0,115.846" fill="none" stroke="#000000" stroke-width="0.40" />
<polyline points="0.0,120.846 255.0,120.846" fill="none" stroke="#000000" stroke-width="0.40" />
<polyline points="0.0,125.846 255.0,125.846" fill="none" stroke="#000000" stroke-width="0.40" />
<polyline points="0.0,130.846 255.0,130.846" fill="none" stroke="#000000" stroke-width="0.40" />
<polyline points="0.0,135.846 255.0,135.846" fill="none" stroke="#000000" stroke-width="0.40" />
<polyline points="0.0,168.346 255.0,168.346" fill="none" stroke="#000000" stroke-width="0.40" />
<polyline points="0.0,173.346 255.0,173.346" fill="none" stroke="#000000" stroke-width="0.40" />
<polyline points="0.0,178.346 255.0,178.346" fill="none" stroke="#000000" stroke-width="0.40" />
<polyline points="0.0,183.346 255.0,183.346" fill="none" stroke="#000000" stroke-width="0.40" />
<polyline points="0.0,188.346 255.0,188.346" fill="none" stroke="#000000" stroke-width="0.40" />
<polyline points="0.0,220.846 255.0,220.846" fill="none" stroke="#000000" stroke-width="0.40" />
<polyline points="0.0,225.846 255.0,225.846" fill="none" stroke="#000000" stroke-width="0.40" />
<polyline points="0.0,230.846 255.0,230.846" fill="none" stroke="#000000" stroke-width="0.40" />
<polyline points="0.0,235.846 255.0,235.846" fill="none" stroke="#000000" stroke-width="0.40" />
<polyline points="0.0,240.846 255.0,240.846" fill="none" stroke="#000000" stroke-width="0.40" />
<polyline points="129.00900000000001,220.846 129.00900000000001,240.846" fill="" stroke="#000000" stroke-width="0.80" />
<polyline points="129.00900000000001,168.346 129.00900000000001,188.346" fill="" stroke="#000000" stroke-width="0.80" />
<polyline points="129.00900000000001,115.846 129.00900000000001,135.846" fill="" stroke="#000000" stroke-width="0.80" />
<polyline points="129.00900000000001,63.3465 129.00900000000001,83.3465" fill="" stroke="#000000" stroke-width="0.80" />
<polyline points="88.572,73.2215 82.12099999999998,77.2215" fill="" stroke="#000000" stroke-width="0.65" />
<polyline points="92.27200000000005,50.7215 85.82100000000003,54.7215" fill="" stroke="#000000" stroke-width="0.65" />
<polyline points="247.75,242.407 247.75,227.096" fill="" stroke="#000000" stroke-width="0.65" />
<polyline points="247.75,198.862 247.75,149.596" fill="" stroke="#000000" stroke-width="0.65" />
<polyline points="203.106,242.407 203.106,227.096" fill="" stroke="#000000" stroke-width="0.65" />
<polyline points="203.106,199.907 203.106,149.596" fill="" stroke="#000000" stroke-width="0.65" />
<polyline points="197.173,86.7855 197.173,125.846" fill="" stroke="#000000" stroke-width="0.65" />
<polyline points="197.173,64.2855 197.173,80.8465" fill="" stroke="#000000" stroke-width="0.65" />
<polyline points="177.25699999999995,244.907 177.25699999999995,230.846" fill="" stroke="#000000" stroke-width="0.65" />
<polyline points="177.25699999999995,199.907 177.25699999999995,152.096" fill="" stroke="#000000" stroke-width="0.65" />
<polyline points="171.32500000000005,86.7855 171.32500000000005,124.596" fill="" stroke="#000000" stroke-width="0.65" />
<polyline points="171.32500000000005,64.2855 171.32500000000005,78.3465" fill="" stroke="#000000" stroke-width="0.65" />
<polyline points="151.409,239.907 151.409,225.846" fill="" stroke="#000000" stroke-width="0.65" />
<polyline points="151.409,199.907 151.409,152.096" fill="" stroke="#000000" stroke-width="0.65" />
<polyline points="145.476,86.7855 145.476,124.596" fill="" stroke="#000000" stroke-width="0.65" />
<polyline points="145.476,64.2855 145.476,78.3465" fill="" stroke="#000000" stroke-width="0.65" />
<polyline points="117.14499999999998,234.907 117.14499999999998,220.846" fill="" stroke="#000000" stroke-width="0.65" />
<polyline points="111.21199999999999,162.91 111.21199999999999,212.096" fill="" stroke="#000000" stroke-width="0.65" />
<polyline points="99.423,238.862 99.423,220.846" fill="" stroke="#000000" stroke-width="0.65" />
<polyline points="93.49099999999999,162.91 93.49099999999999,212.096" fill="" stroke="#000000" stroke-width="0.65" />
<polyline points="84.52200000000005,85.1891 84.52200000000005,69.2215" fill="" stroke="#000000" stroke-width="0.65" />
<polyline points="93.49099999999999,84.2855 93.49099999999999,125.846" fill="" stroke="#000000" stroke-width="0.65" />
<polyline points="88.22199999999998,62.6891 88.22199999999998,46.7215" fill="" stroke="#000000" stroke-width="0.65" />
<polyline points="93.49099999999999,61.7855 93.49099999999999,74.5965" fill="" stroke="#000000" stroke-width="0.65" />
<polyline points="71.06899999999996,234.907 71.06899999999996,220.846" fill="" stroke="#000000" stroke-width="0.65" />
<polyline points="65.13599999999997,161.786 65.13599999999997,212.096" fill="" stroke="#000000" stroke-width="0.65" />
<polyline points="65.13599999999997,79.2855 65.13599999999997,125.43" fill="" stroke="#000000" stroke-width="0.65" />
<polyline points="65.13599999999997,56.7855 65.13599999999997,73.7631" fill="" stroke="#000000" stroke-width="0.65" />
<polyline points="42.714000000000055,234.907 42.714000000000055,220.846" fill="" stroke="#000000" stroke-width="0.65" />
<polyline points="36.78099999999995,161.786 36.78099999999995,209.596" fill="" stroke="#000000" stroke-width="0.65" />
<polyline points="36.78099999999995,76.7855 36.78099999999995,125.013" fill="" stroke="#000000" stroke-width="0.65" />
<polyline points="36.78099999999995,54.2855 36.78099999999995,72.9298" fill="" stroke="#000000" stroke-width="0.65" />
<polyline points="14.359000000000037,234.907 14.359000000000037,220.846" fill="" stroke="#000000" stroke-width="0.65" />
<polyline points="8.426000000000045,161.786 8.426000000000045,209.596" fill="" stroke="#000000" stroke-width="0.65" />
<polyline points="8.426000000000045,76.7855 8.426000000000045,124.596" fill="" stroke="#000000" stroke-width="0.65" />
<polyline points="8.426000000000045,54.2855 8.426000000000045,72.0965" fill="" stroke="#000000" stroke-width="0.65" />
<polyline points="240.0,193.346 249.58000000000004,193.346" fill="" stroke="#000000" stroke-width="0.80" />
<polyline points="240.0,198.346 249.58000000000004,198.346" fill="" stroke="#000000" stroke-width="0.80" />
<polyline points="195.34799999999996,193.346 204.93100000000004,193.346" fill="" stroke="#000000" stroke-width="0.80" />
<polyline points="195.34799999999996,198.346 204.93100000000004,198.346" fill="" stroke="#000000" stroke-width="0.80" />
<polyline points="195.34799999999996,85.8465 204.93100000000004,85.8465" fill="" stroke="#000000" stroke-width="0.80" />
<polyline points="195.34799999999996,90.8465 204.93100000000004,90.8465" fill="" stroke="#000000" stroke-width="0.80" />
<polyline points="195.34799999999996,95.8465 204.93100000000004,95.8465" fill="" stroke="#000000" stroke-width="0.80" />
<polyline points="195.34799999999996,100.846 204.93100000000004,100.846" fill="" stroke="#000000" stroke-width="0.80" />
<polyline points="195.34799999999996,105.846 204.93100000000004,105.846" fill="" stroke="#000000" stroke-width="0.80" />
<polyline points="195.34799999999996,110.846 204.93100000000004,110.846" fill="" stroke="#000000" stroke-width="0.80" />
<polyline points="169.5,245.846 179.082,245.846" fill="" stroke="#000000" stroke-width="0.80" />
<polyline points="169.5,193.346 179.082,193.346" fill="" stroke="#000000" stroke-width="0.80" />
<polyline points="169.5,198.346 179.082,198.346" fill="" stroke="#000000" stroke-width="0.80" />
<polyline points="169.5,85.8465 179.082,85.8465" fill="" stroke="#000000" stroke-width="0.80" />
<polyline points="169.5,90.8465 179.082,90.8465" fill="" stroke="#000000" stroke-width="0.80" />
<polyline points="169.5,95.8465 179.082,95.8465" fill="" stroke="#000000" stroke-width="0.80" />
<polyline points="169.5,100.846 179.082,100.846" fill="" stroke="#000000" stroke-width="0.80" />
<polyline points="169.5,105.846 179.082,105.846" fill="" stroke="#000000" stroke-width="0.80" />
<polyline points="169.5,110.846 179.082,110.846" fill="" stroke="#000000" stroke-width="0.80" />
<polyline points="143.65099999999995,193.346 153.23400000000004,193.346" fill="" stroke="#000000" stroke-width="0.80" />
<polyline points="143.65099999999995,198.346 153.23400000000004,198.346" fill="" stroke="#000000" stroke-width="0.80" />
<polyline points="143.65099999999995,85.8465 153.23400000000004,85.8465" fill="" stroke="#000000" stroke-width="0.80" />
<polyline points="143.65099999999995,90.8465 153.23400000000004,90.8465" fill="" stroke="#000000" stroke-width="0.80" />
<polyline points="143.65099999999995,95.8465 153.23400000000004,95.8465" fill="" stroke="#000000" stroke-width="0.80" />
<polyline points="143.65099999999995,100.846 153.23400000000004,100.846" fill="" stroke="#000000" stroke-width="0.80" />
<polyline points="143.65099999999995,105.846 153.23400000000004,105.846" fill="" stroke="#000000" stroke-width="0.80" />
<polyline points="143.65099999999995,110.846 153.23400000000004,110.846" fill="" stroke="#000000" stroke-width="0.80" />
<polyline points="109.38699999999994,193.346 118.97000000000003,193.346" fill="" stroke="#000000" stroke-width="0.80" />
<polyline points="109.38699999999994,163.346 118.97000000000003,163.346" fill="" stroke="#000000" stroke-width="0.80" />
<polyline points="91.66600000000005,193.346 101.24800000000005,193.346" fill="" stroke="#000000" stroke-width="0.80" />
<polyline points="91.66600000000005,163.346 101.24800000000005,163.346" fill="" stroke="#000000" stroke-width="0.80" />
<polyline points="78.73900000000003,85.8465 86.34699999999998,85.8465" fill="" stroke="#000000" stroke-width="0.56" />
<polyline points="78.73900000000003,90.8465 86.34699999999998,90.8465" fill="" stroke="#000000" stroke-width="0.56" />
<polyline points="78.73900000000003,95.8465 86.34699999999998,95.8465" fill="" stroke="#000000" stroke-width="0.56" />
<polyline points="78.73900000000003,100.846 86.34699999999998,100.846" fill="" stroke="#000000" stroke-width="0.56" />
<polyline points="78.73900000000003,105.846 86.34699999999998,105.846" fill="" stroke="#000000" stroke-width="0.56" />
<polyline points="78.73900000000003,110.846 86.34699999999998,110.846" fill="" stroke="#000000" stroke-width="0.56" />
<polyline points="91.66600000000005,85.8465 101.24800000000005,85.8465" fill="" stroke="#000000" stroke-width="0.80" />
<polyline points="91.66600000000005,90.8465 101.24800000000005,90.8465" fill="" stroke="#000000" stroke-width="0.80" />
<polyline points="91.66600000000005,95.8465 101.24800000000005,95.8465" fill="" stroke="#000000" stroke-width="0.80" />
<polyline points="91.66600000000005,100.846 101.24800000000005,100.846" fill="" stroke="#000000" stroke-width="0.80" />
<polyline points="91.66600000000005,105.846 101.24800000000005,105.846" fill="" stroke="#000000" stroke-width="0.80" />
<polyline points="91.66600000000005,110.846 101.24800000000005,110.846" fill="" stroke="#000000" stroke-width="0.80" />
<polyline points="63.311000000000035,193.346 72.894,193.346" fill="" stroke="#000000" stroke-width="0.80" />
<polyline points="63.311000000000035,163.346 72.894,163.346" fill="" stroke="#000000" stroke-width="0.80" />
<polyline points="63.311000000000035,80.8465 72.894,80.8465" fill="" stroke="#000000" stroke-width="0.80" />
<polyline points="63.311000000000035,85.8465 72.894,85.8465" fill="" stroke="#000000" stroke-width="0.80" />
<polyline points="63.311000000000035,90.8465 72.894,90.8465" fill="" stroke="#000000" stroke-width="0.80" />
<polyline points="63.311000000000035,95.8465 72.894,95.8465" fill="" stroke="#000000" stroke-width="0.80" />
<polyline points="63.311000000000035,100.846 72.894,100.846" fill="" stroke="#000000" stroke-width="0.80" />
<polyline points="63.311000000000035,105.846 72.894,105.846" fill="" stroke="#000000" stroke-width="0.80" />
<polyline points="63.311000000000035,110.846 72.894,110.846" fill="" stroke="#000000" stroke-width="0.80" />
<polyline points="63.311000000000035,58.3465 72.894,58.3465" fill="" stroke="#000000" stroke-width="0.80" />
<polyline points="34.95600000000002,193.346 44.53899999999999,193.346" fill="" stroke="#000000" stroke-width="0.80" />
<polyline points="34.95600000000002,163.346 44.53899999999999,163.346" fill="" stroke="#000000" stroke-width="0.80" />
<polyline points="34.95600000000002,75.8465 44.53899999999999,75.8465" fill="" stroke="#000000" stroke-width="0.80" />
<polyline points="34.95600000000002,80.8465 44.53899999999999,80.8465" fill="" stroke="#000000" stroke-width="0.80" />
<polyline points="34.95600000000002,85.8465 44.53899999999999,85.8465" fill="" stroke="#000000" stroke-width="0.80" />
<polyline points="34.95600000000002,90.8465 44.53899999999999,90.8465" fill="" stroke="#000000" stroke-width="0.80" />
<polyline points="34.95600000000002,95.8465 44.53899999999999,95.8465" fill="" stroke="#000000" stroke-width="0.80" />
<polyline points="34.95600000000002,100.846 44.53899999999999,100.846" fill="" stroke="#000000" stroke-width="0.80" />
<polyline points="34.95600000000002,105.846 44.53899999999999,105.846" fill="" stroke="#000000" stroke-width="0.80" />
<polyline points="34.95600000000002,110.846 44.53899999999999,110.846" fill="" stroke="#000000" stroke-width="0.80" />
<polyline points="34.95600000000002,53.3465 44.53899999999999,53.3465" fill="" stroke="#000000" stroke-width="0.80" />
<polyline points="34.95600000000002,58.3465 44.53899999999999,58.3465" fill="" stroke="#000000" stroke-width="0.80" />
<polyline points="6.600999999999999,193.346 16.18399999999997,193.346" fill="" stroke="#000000" stroke-width="0.80" />
<polyline points="6.600999999999999,163.346 16.18399999999997,163.346" fill="" stroke="#000000" stroke-width="0.80" />
<polyline points="6.600999999999999,75.8465 16.18399999999997,75.8465" fill="" stroke="#000000" stroke-width="0.80" />
<polyline points="6.600999999999999,80.8465 16.18399999999997,80.8465" fill="" stroke="#000000" stroke-width="0.80" />
<polyline points="6.600999999999999,85.8465 16.18399999999997,85.8465" fill="" stroke="#000000" stroke-width="0.80" />
<polyline points="6.600999999999999,90.8465 16.18399999999997,90.8465" fill="" stroke="#000000" stroke-width="0.80" />
<polyline points="6.600999999999999,95.8465 16.18399999999997,95.8465" fill="" stroke="#000000" stroke-width="0.80" />
<polyline points="6.600999999999999,100.846 16.18399999999997,100.846" fill="" stroke="#000000" stroke-width="0.80" />
<polyline points="6.600999999999999,105.846 16.18399999999997,105.846" fill="" stroke="#000000" stroke-width="0.80" />
<polyline points="6.600999999999999,110.846 16.18399999999997,110.846" fill="" stroke="#000000" stroke-width="0.80" />
<polyline points="6.600999999999999,53.3465 16.18399999999997,53.3465" fill="" stroke="#000000" stroke-width="0.80" />
<polyline points="6.600999999999999,58.3465 16.18399999999997,58.3465" fill="" stroke="#000000" stroke-width="0.80" />
<polyline points="45.53899999999999,105.846 50.53899999999999,105.846" fill="" stroke="#000000" stroke-width="0.75" />
<polyline points="45.53899999999999,53.3465 50.53899999999999,53.3465" fill="" stroke="#000000" stroke-width="0.75" />
</svg>
