<?xml version="1.0" encoding="UTF-8" standalone="yes"?>
<svg width="256.0px" height="256.0px" xmlns="http://www.w3.org/2000/svg" xmlns:xlink="http://www.w3.org/1999/xlink" version="1.2" baseProfile="tiny">
<polyline points="0.0,17.346000000000004 196.79000000000087,17.346000000000004" fill="none" stroke="#000000" stroke-width="0.40" />
<polyline points="0.0,22.346000000000004 196.79000000000087,22.346000000000004" fill="none" stroke="#000000" stroke-width="0.40" />
<polyline points="0.0,27.346000000000004 196.79000000000087,27.346000000000004" fill="none" stroke="#000000" stroke-width="0.40" />
<polyline points="0.0,32.346000000000004 196.79000000000087,32.346000000000004" fill="none" stroke="#000000" stroke-width="0.40" />
<polyline points="0.0,37.346000000000004 196.79000000000087,37.346000000000004" fill="none" stroke="#000000" stroke-width="0.40" />
<polyline points="0.0,112.346 196.79000000000087,112.346" fill="none" stroke="#000000" stroke-width="0.40" />
<polyline points="0.0,117.346 196.79000000000087,117.346" fill="none" stroke="#000000" stroke-width="0.40" />
<polyline points="0.0,122.346 196.79000000000087,122.346" fill="none" stroke="#000000" stroke-width="0.40" />
<polyline points="0.0,127.346 196.79000000000087,127.346" fill="none" stroke="#000000" stroke-width="0.40" />
<polyline points="0.0,132.346 196.79000000000087,132.346" fill="none" stroke="#000000" stroke-width="0.40" />
<polyline points="0.0,164.846 196.79000000000087,164.846" fill="none" stroke="#000000" stroke-width="0.40" />
<polyline points="0.0,169.846 196.79000000000087,169.846" fill="none" stroke="#000000" stroke-width="0.40" />
<polyline points="0.0,174.846 196.79000000000087,174.846" fill="none" stroke="#000000" stroke-width="0.40" />
<polyline points="0.0,179.846 196.79000000000087,179.846" fill="none" stroke="#000000" stroke-width="0.40" />
<polyline points="0.0,184.846 196.79000000000087,184.846" fill="none" stroke="#000000" stroke-width="0.40" />
<polyline points="0.0,217.346 196.79000000000087,217.346" fill="none" stroke="#000000" stroke-width="0.40" />
<polyline points="0.0,222.346 196.79000000000087,222.346" fill="none" stroke="#000000" stroke-width="0.40" />
<polyline points="0.0,227.346 196.79000000000087,227.346" fill="none" stroke="#000000" stroke-width="0.40" />
<polyline points="0.0,232.346 196.79000000000087,232.346" fill="none" stroke="#000000" stroke-width="0.40" />
<polyline points="0.0,237.346 196.79000000000087,237.346" fill="none" stroke="#000000" stroke-width="0.40" />
<polyline points="196.38999999999942,217.346 196.38999999999942,237.346" fill="" stroke="#000000" stroke-width="0.80" />
<polyline points="196.38999999999942,164.846 196.38999999999942,184.846" fill="" stroke="#000000" stroke-width="0.80" />
<polyline points="196.38999999999942,112.346 196.38999999999942,132.346" fill="" stroke="#000000" stroke-width="0.80" />
<polyline points="196.38999999999942,17.346000000000004 196.38999999999942,37.346000000000004" fill="" stroke="#000000" stroke-width="0.80" />
<polyline points="138.46999999999935,130.786 138.46999999999935,174.846" fill="" stroke="#000000" stroke-width="0.65" />
<polyline points="138.46999999999935,108.286 138.46999999999935,136.096" fill="" stroke="#000000" stroke-width="0.65" />
<polyline points="86.75,244.07799999999997 86.75,207.971" fill="" stroke="#000000" stroke-width="0.65" />
<polyline points="164.6299999999992,16.910000000000025 164.6299999999992,48.596000000000004" fill="" stroke="#000000" stroke-width="0.65" />
<polyline points="139.29000000000087,16.910000000000025 139.29000000000087,48.596000000000004" fill="" stroke="#000000" stroke-width="0.65" />
<polyline points="113.94000000000051,16.910000000000025 113.94000000000051,48.596000000000004" fill="" stroke="#000000" stroke-width="0.65" />
<polyline points="88.60000000000036,16.910000000000025 88.60000000000036,48.596000000000004" fill="" stroke="#000000" stroke-width="0.65" />
<polyline points="53.469999999999345,16.910000000000025 53.469999999999345,48.596000000000004" fill="" stroke="#000000" stroke-width="0.65" />
<polyline points="28.1299999999992,16.910000000000025 28.1299999999992,48.596000000000004" fill="" stroke="#000000" stroke-width="0.65" />
<polyline points="2.780000000000655,16.910000000000025 2.780000000000655,48.596000000000004" fill="" stroke="#000000" stroke-width="0.65" />
<polyline points="136.64999999999964,129.846 146.22999999999956,129.846" fill="" stroke="#000000" stroke-width="0.80" />
<polyline points="136.64999999999964,134.846 146.22999999999956,134.846" fill="" stroke="#000000" stroke-width="0.80" />
<polyline points="136.64999999999964,139.846 146.22999999999956,139.846" fill="" stroke="#000000" stroke-width="0.80" />
<polyline points="136.64999999999964,144.846 146.22999999999956,144.846" fill="" stroke="#000000" stroke-width="0.80" />
<polyline points="136.64999999999964,149.846 146.22999999999956,149.846" fill="" stroke="#000000" stroke-width="0.80" />
<polyline points="136.64999999999964,154.846 146.22999999999956,154.846" fill="" stroke="#000000" stroke-width="0.80" />
<polyline points="136.64999999999964,159.846 146.22999999999956,159.846" fill="" stroke="#000000" stroke-width="0.80" />
<polyline points="136.64999999999964,107.346 146.22999999999956,107.346" fill="" stroke="#000000" stroke-width="0.80" />
<polyline points="78.6299999999992,242.346 88.56999999999971,242.346" fill="" stroke="#000000" stroke-width="0.80" />
<polyline points="253.47999999999956,17.346000000000004 255.0,17.346000000000004" fill="none" stroke="#000000" stroke-width="0.40" />
<polyline points="253.47999999999956,22.346000000000004 255.0,22.346000000000004" fill="none" stroke="#000000" stroke-width="0.40" />
<polyline points="253.47999999999956,27.346000000000004 255.0,27.346000000000004" fill="none" stroke="#000000" stroke-width="0.40" />
<polyline points="253.47999999999956,32.346000000000004 255.0,32.346000000000004" fill="none" stroke="#000000" stroke-width="0.40" />
<polyline points="253.47999999999956,37.346000000000004 255.0,37.346000000000004" fill="none" stroke="#000000" stroke-width="0.40" />
<polyline points="253.47999999999956,112.346 255.0,112.346" fill="none" stroke="#000000" stroke-width="0.40" />
<polyline points="253.47999999999956,117.346 255.0,117.346" fill="none" stroke="#000000" stroke-width="0.40" />
<polyline points="253.47999999999956,122.346 255.0,122.346" fill="none" stroke="#000000" stroke-width="0.40" />
<polyline points="253.47999999999956,127.346 255.0,127.346" fill="none" stroke="#000000" stroke-width="0.40" />
<polyline points="253.47999999999956,132.346 255.0,132.346" fill="none" stroke="#000000" stroke-width="0.40" />
<polyline points="253.47999999999956,164.846 255.0,164.846" fill="none" stroke="#000000" stroke-width="0.40" />
<polyline points="253.47999999999956,169.846 255.0,169.846" fill="none" stroke="#000000" stroke-width="0.40" />
<polyline points="253.47999999999956,174.846 255.0,174.846" fill="none" stroke="#000000" stroke-width="0.40" />
<polyline points="253.47999999999956,179.846 255.0,179.846" fill="none" stroke="#000000" stroke-width="0.40" />
<polyline points="253.47999999999956,184.846 255.0,184.846" fill="none" stroke="#000000" stroke-width="0.40" />
<polyline points="253.47999999999956,217.346 255.0,217.346" fill="none" stroke="#000000" stroke-width="0.40" />
<polyline points="253.47999999999956,222.346 255.0,222.346" fill="none" stroke="#000000" stroke-width="0.40" />
<polyline points="253.47999999999956,227.346 255.0,227.346" fill="none" stroke="#000000" stroke-width="0.40" />
<polyline points="253.47999999999956,232.346 255.0,232.346" fill="none" stroke="#000000" stroke-width="0.40" />
<polyline points="253.47999999999956,237.346 255.0,237.346" fill="none" stroke="#000000" stroke-width="0.40" />
<polyline points="253.8799999999992,112.346 253.8799999999992,255.0" fill="" stroke="#000000" stroke-width="0.80" />
<polyline points="253.8799999999992,0.0 253.8799999999992,37.346000000000004" fill="" stroke="#000000" stroke-width="0.80" />
</svg>
