<?xml version="1.0" encoding="UTF-8" standalone="yes"?>
<svg width="256.0px" height="256.0px" xmlns="http://www.w3.org/2000/svg" xmlns:xlink="http://www.w3.org/1999/xlink" version="1.2" baseProfile="tiny">
<polyline points="0.0,17.346000000000004 255.0,17.346000000000004" fill="none" stroke="#000000" stroke-width="0.40" />
<polyline points="0.0,22.346000000000004 255.0,22.346000000000004" fill="none" stroke="#000000" stroke-width="0.40" />
<polyline points="0.0,27.346000000000004 255.0,27.346000000000004" fill="none" stroke="#000000" stroke-width="0.40" />
<polyline points="0.0,32.346000000000004 255.0,32.346000000000004" fill="none" stroke="#000000" stroke-width="0.40" />
<polyline points="0.0,37.346000000000004 255.0,37.346000000000004" fill="none" stroke="#000000" stroke-width="0.40" />
<polyline points="0.0,112.346 255.0,112.346" fill="none" stroke="#000000" stroke-width="0.40" />
<polyline points="0.0,117.346 255.0,117.346" fill="none" stroke="#000000" stroke-width="0.40" />
<polyline points="0.0,122.346 255.0,122.346" fill="none" stroke="#000000" stroke-width="0.40" />
<polyline points="0.0,127.346 255.0,127.346" fill="none" stroke="#000000" stroke-width="0.40" />
<polyline points="0.0,132.346 255.0,132.346" fill="none" stroke="#000000" stroke-width="0.40" />
<polyline points="0.0,164.846 255.0,164.846" fill="none" stroke="#000000" stroke-width="0.40" />
<polyline points="0.0,169.846 255.0,169.846" fill="none" stroke="#000000" stroke-width="0.40" />
<polyline points="0.0,174.846 255.0,174.846" fill="none" stroke="#000000" stroke-width="0.40" />
<polyline points="0.0,179.846 255.0,179.846" fill="none" stroke="#000000" stroke-width="0.40" />
<polyline points="0.0,184.846 255.0,184.846" fill="none" stroke="#000000" stroke-width="0.40" />
<polyline points="0.0,217.346 255.0,217.346" fill="none" stroke="#000000" stroke-width="0.40" />
<polyline points="0.0,222.346 255.0,222.346" fill="none" stroke="#000000" stroke-width="0.40" />
<polyline points="0.0,227.346 255.0,227.346" fill="none" stroke="#000000" stroke-width="0.40" />
<polyline points="0.0,232.346 255.0,232.346" fill="none" stroke="#000000" stroke-width="0.40" />
<polyline points="0.0,237.346 255.0,237.346" fill="none" stroke="#000000" stroke-width="0.40" />
<polyline points="152.67000000000007,217.346 152.67000000000007,237.346" fill="" stroke="#000000" stroke-width="0.80" />
<polyline points="152.67000000000007,164.846 152.67000000000007,184.846" fill="" stroke="#000000" stroke-width="0.80" />
<polyline points="152.67000000000007,112.346 152.67000000000007,132.346" fill="" stroke="#000000" stroke-width="0.80" />
<polyline points="108.02000000000044,17.346000000000004 108.02000000000044,37.346000000000004" fill="" stroke="#000000" stroke-width="0.80" />
<polyline points="8.489999999999782,122.221 2.0399999999999636,126.221" fill="" stroke="#000000" stroke-width="0.65" />
<polyline points="12.1899999999996,99.721 5.739999999999782,103.721" fill="" stroke="#000000" stroke-width="0.65" />
<polyline points="167.82999999999993,241.57799999999997 167.82999999999993,206.096" fill="" stroke="#000000" stroke-width="0.65" />
<polyline points="100.39999999999964,150.786 100.39999999999964,174.846" fill="" stroke="#000000" stroke-width="0.65" />
<polyline points="100.39999999999964,128.286 100.39999999999964,142.346" fill="" stroke="#000000" stroke-width="0.65" />
<polyline points="88.93000000000029,243.90699999999998 88.93000000000029,207.971" fill="" stroke="#000000" stroke-width="0.65" />
<polyline points="83.0,133.286 83.0,173.596" fill="" stroke="#000000" stroke-width="0.65" />
<polyline points="83.0,110.786 83.0,137.346" fill="" stroke="#000000" stroke-width="0.65" />
<polyline points="54.14000000000033,243.90699999999998 54.14000000000033,207.346" fill="" stroke="#000000" stroke-width="0.65" />
<polyline points="36.73999999999978,243.90699999999998 36.73999999999978,207.346" fill="" stroke="#000000" stroke-width="0.65" />
<polyline points="19.340000000000146,240.36200000000002 19.340000000000146,207.346" fill="" stroke="#000000" stroke-width="0.65" />
<polyline points="4.4399999999996,134.18900000000002 4.4399999999996,118.221" fill="" stroke="#000000" stroke-width="0.65" />
<polyline points="13.409999999999854,133.286 13.409999999999854,174.846" fill="" stroke="#000000" stroke-width="0.65" />
<polyline points="8.140000000000327,111.68900000000002 8.140000000000327,95.721" fill="" stroke="#000000" stroke-width="0.65" />
<polyline points="13.409999999999854,110.786 13.409999999999854,127.346" fill="" stroke="#000000" stroke-width="0.65" />
<polyline points="240.3100000000004,16.910000000000025 240.3100000000004,49.846000000000004" fill="" stroke="#000000" stroke-width="0.65" />
<polyline points="219.3100000000004,25.786 219.3100000000004,41.096000000000004" fill="" stroke="#000000" stroke-width="0.65" />
<polyline points="201.14000000000033,16.910000000000025 201.14000000000033,41.096000000000004" fill="" stroke="#000000" stroke-width="0.65" />
<polyline points="175.09000000000015,16.910000000000025 175.09000000000015,41.096000000000004" fill="" stroke="#000000" stroke-width="0.65" />
<polyline points="142.52999999999975,16.910000000000025 142.52999999999975,49.846000000000004" fill="" stroke="#000000" stroke-width="0.65" />
<polyline points="116.47999999999956,16.910000000000025 116.47999999999956,49.846000000000004" fill="" stroke="#000000" stroke-width="0.65" />
<polyline points="90.43000000000029,25.786 90.43000000000029,41.096000000000004" fill="" stroke="#000000" stroke-width="0.65" />
<polyline points="74.59000000000015,16.910000000000025 74.59000000000015,41.096000000000004" fill="" stroke="#000000" stroke-width="0.65" />
<polyline points="49.88000000000011,16.910000000000025 49.88000000000011,41.096000000000004" fill="" stroke="#000000" stroke-width="0.65" />
<polyline points="18.98999999999978,16.910000000000025 18.98999999999978,49.846000000000004" fill="" stroke="#000000" stroke-width="0.65" />
<polyline points="159.71000000000004,242.346 169.64999999999964,242.346" fill="" stroke="#000000" stroke-width="0.80" />
<polyline points="98.57999999999993,149.846 108.15999999999985,149.846" fill="" stroke="#000000" stroke-width="0.80" />
<polyline points="98.57999999999993,154.846 108.15999999999985,154.846" fill="" stroke="#000000" stroke-width="0.80" />
<polyline points="98.57999999999993,159.846 108.15999999999985,159.846" fill="" stroke="#000000" stroke-width="0.80" />
<polyline points="81.18000000000029,242.346 90.76000000000022,242.346" fill="" stroke="#000000" stroke-width="0.80" />
<polyline points="81.18000000000029,134.846 90.76000000000022,134.846" fill="" stroke="#000000" stroke-width="0.80" />
<polyline points="81.18000000000029,139.846 90.76000000000022,139.846" fill="" stroke="#000000" stroke-width="0.80" />
<polyline points="81.18000000000029,144.846 90.76000000000022,144.846" fill="" stroke="#000000" stroke-width="0.80" />
<polyline points="81.18000000000029,149.846 90.76000000000022,149.846" fill="" stroke="#000000" stroke-width="0.80" />
<polyline points="81.18000000000029,154.846 90.76000000000022,154.846" fill="" stroke="#000000" stroke-width="0.80" />
<polyline points="81.18000000000029,159.846 90.76000000000022,159.846" fill="" stroke="#000000" stroke-width="0.80" />
<polyline points="46.38000000000011,242.346 55.960000000000036,242.346" fill="" stroke="#000000" stroke-width="0.80" />
<polyline points="28.979999999999563,242.346 38.5600000000004,242.346" fill="" stroke="#000000" stroke-width="0.80" />
<polyline points="11.579999999999927,242.346 21.159999999999854,242.346" fill="" stroke="#000000" stroke-width="0.80" />
<polyline points="0.0,134.846 6.260000000000218,134.846" fill="" stroke="#000000" stroke-width="0.56" />
<polyline points="0.0,139.846 6.260000000000218,139.846" fill="" stroke="#000000" stroke-width="0.56" />
<polyline points="0.0,144.846 6.260000000000218,144.846" fill="" stroke="#000000" stroke-width="0.56" />
<polyline points="0.0,149.846 6.260000000000218,149.846" fill="" stroke="#000000" stroke-width="0.56" />
<polyline points="0.0,154.846 6.260000000000218,154.846" fill="" stroke="#000000" stroke-width="0.56" />
<polyline points="0.0,159.846 6.260000000000218,159.846" fill="" stroke="#000000" stroke-width="0.56" />
<polyline points="11.579999999999927,134.846 21.159999999999854,134.846" fill="" stroke="#000000" stroke-width="0.80" />
<polyline points="11.579999999999927,139.846 21.159999999999854,139.846" fill="" stroke="#000000" stroke-width="0.80" />
<polyline points="11.579999999999927,144.846 21.159999999999854,144.846" fill="" stroke="#000000" stroke-width="0.80" />
<polyline points="11.579999999999927,149.846 21.159999999999854,149.846" fill="" stroke="#000000" stroke-width="0.80" />
<polyline points="11.579999999999927,154.846 21.159999999999854,154.846" fill="" stroke="#000000" stroke-width="0.80" />
<polyline points="11.579999999999927,159.846 21.159999999999854,159.846" fill="" stroke="#000000" stroke-width="0.80" />
<polyline points="90.51000000000022,114.41399999999999 102.30000000000018,114.41399999999999" fill="" stroke="#000000" stroke-width="0.75" />
</svg>
