<?xml version="1.0" encoding="UTF-8" standalone="yes"?>
<svg width="256.0px" height="256.0px" xmlns="http://www.w3.org/2000/svg" xmlns:xlink="http://www.w3.org/1999/xlink" version="1.2" baseProfile="tiny">
<polyline points="0.0,63.3465 255.0,63.3465" fill="none" stroke="#000000" stroke-width="0.40" />
<polyline points="0.0,68.3465 255.0,68.3465" fill="none" stroke="#000000" stroke-width="0.40" />
<polyline points="0.0,73.3465 255.0,73.3465" fill="none" stroke="#000000" stroke-width="0.40" />
<polyline points="0.0,78.3465 255.0,78.3465" fill="none" stroke="#000000" stroke-width="0.40" />
<polyline points="0.0,83.3465 255.0,83.3465" fill="none" stroke="#000000" stroke-width="0.40" />
<polyline points="0.0,115.846 255.0,115.846" fill="none" stroke="#000000" stroke-width="0.40" />
<polyline points="0.0,120.846 255.0,120.846" fill="none" stroke="#000000" stroke-width="0.40" />
<polyline points="0.0,125.846 255.0,125.846" fill="none" stroke="#000000" stroke-width="0.40" />
<polyline points="0.0,130.846 255.0,130.846" fill="none" stroke="#000000" stroke-width="0.40" />
<polyline points="0.0,135.846 255.0,135.846" fill="none" stroke="#000000" stroke-width="0.40" />
<polyline points="0.0,168.346 255.0,168.346" fill="none" stroke="#000000" stroke-width="0.40" />
<polyline points="0.0,173.346 255.0,173.346" fill="none" stroke="#000000" stroke-width="0.40" />
<polyline points="0.0,178.346 255.0,178.346" fill="none" stroke="#000000" stroke-width="0.40" />
<polyline points="0.0,183.346 255.0,183.346" fill="none" stroke="#000000" stroke-width="0.40" />
<polyline points="0.0,188.346 255.0,188.346" fill="none" stroke="#000000" stroke-width="0.40" />
<polyline points="0.0,220.846 255.0,220.846" fill="none" stroke="#000000" stroke-width="0.40" />
<polyline points="0.0,225.846 255.0,225.846" fill="none" stroke="#000000" stroke-width="0.40" />
<polyline points="0.0,230.846 255.0,230.846" fill="none" stroke="#000000" stroke-width="0.40" />
<polyline points="0.0,235.846 255.0,235.846" fill="none" stroke="#000000" stroke-width="0.40" />
<polyline points="0.0,240.846 255.0,240.846" fill="none" stroke="#000000" stroke-width="0.40" />
<polyline points="224.1800000000003,77.4715 217.72999999999956,81.4715" fill="" stroke="#000000" stroke-width="0.65" />
<polyline points="227.8799999999992,54.9715 221.4300000000003,58.9715" fill="" stroke="#000000" stroke-width="0.65" />
<polyline points="163.63999999999942,217.471 157.1900000000005,221.471" fill="" stroke="#000000" stroke-width="0.65" />
<polyline points="246.9400000000005,229.286 246.9400000000005,251.68" fill="" stroke="#000000" stroke-width="0.65" />
<polyline points="229.10000000000036,226.786 229.10000000000036,249.596" fill="" stroke="#000000" stroke-width="0.65" />
<polyline points="235.03000000000065,194.907 235.03000000000065,158.971" fill="" stroke="#000000" stroke-width="0.65" />
<polyline points="220.1299999999992,87.6891 220.1299999999992,73.4715" fill="" stroke="#000000" stroke-width="0.65" />
<polyline points="229.10000000000036,86.7855 229.10000000000036,125.846" fill="" stroke="#000000" stroke-width="0.65" />
<polyline points="223.82999999999993,65.1891 223.82999999999993,50.9715" fill="" stroke="#000000" stroke-width="0.65" />
<polyline points="229.10000000000036,64.2855 229.10000000000036,80.8465" fill="" stroke="#000000" stroke-width="0.65" />
<polyline points="211.25,229.286 211.25,245.846" fill="" stroke="#000000" stroke-width="0.65" />
<polyline points="193.40999999999985,226.786 193.40999999999985,245.366" fill="" stroke="#000000" stroke-width="0.65" />
<polyline points="199.34000000000015,194.907 199.34000000000015,158.971" fill="" stroke="#000000" stroke-width="0.65" />
<polyline points="159.59000000000015,227.689 159.59000000000015,213.471" fill="" stroke="#000000" stroke-width="0.65" />
<polyline points="164.86000000000058,226.786 164.86000000000058,244.596" fill="" stroke="#000000" stroke-width="0.65" />
<polyline points="152.95000000000073,192.407 152.95000000000073,159.596" fill="" stroke="#000000" stroke-width="0.65" />
<polyline points="135.11000000000058,192.407 135.11000000000058,159.596" fill="" stroke="#000000" stroke-width="0.65" />
<polyline points="100.6200000000008,224.286 100.6200000000008,240.846" fill="" stroke="#000000" stroke-width="0.65" />
<polyline points="106.55999999999949,192.407 106.55999999999949,159.596" fill="" stroke="#000000" stroke-width="0.65" />
<polyline points="78.01000000000022,227.407 78.01000000000022,210.846" fill="" stroke="#000000" stroke-width="0.65" />
<polyline points="60.159999999999854,239.907 60.159999999999854,213.971" fill="" stroke="#000000" stroke-width="0.65" />
<polyline points="42.31999999999971,239.907 42.31999999999971,217.096" fill="" stroke="#000000" stroke-width="0.65" />
<polyline points="42.31999999999971,192.407 42.31999999999971,160.846" fill="" stroke="#000000" stroke-width="0.65" />
<polyline points="36.20000000000073,76.6305 36.20000000000073,125.846" fill="" stroke="#000000" stroke-width="0.65" />
<polyline points="36.20000000000073,54.1305 36.20000000000073,83.3465" fill="" stroke="#000000" stroke-width="0.65" />
<polyline points="227.27000000000044,193.346 236.86000000000058,193.346" fill="" stroke="#000000" stroke-width="0.80" />
<polyline points="214.35000000000036,90.8465 221.95000000000073,90.8465" fill="" stroke="#000000" stroke-width="0.56" />
<polyline points="214.35000000000036,95.8465 221.95000000000073,95.8465" fill="" stroke="#000000" stroke-width="0.56" />
<polyline points="214.35000000000036,100.846 221.95000000000073,100.846" fill="" stroke="#000000" stroke-width="0.56" />
<polyline points="214.35000000000036,105.846 221.95000000000073,105.846" fill="" stroke="#000000" stroke-width="0.56" />
<polyline points="214.35000000000036,110.846 221.95000000000073,110.846" fill="" stroke="#000000" stroke-width="0.56" />
<polyline points="227.27000000000044,85.8465 236.86000000000058,85.8465" fill="" stroke="#000000" stroke-width="0.80" />
<polyline points="227.27000000000044,90.8465 236.86000000000058,90.8465" fill="" stroke="#000000" stroke-width="0.80" />
<polyline points="227.27000000000044,95.8465 236.86000000000058,95.8465" fill="" stroke="#000000" stroke-width="0.80" />
<polyline points="227.27000000000044,100.846 236.86000000000058,100.846" fill="" stroke="#000000" stroke-width="0.80" />
<polyline points="227.27000000000044,105.846 236.86000000000058,105.846" fill="" stroke="#000000" stroke-width="0.80" />
<polyline points="227.27000000000044,110.846 236.86000000000058,110.846" fill="" stroke="#000000" stroke-width="0.80" />
<polyline points="191.59000000000015,193.346 201.17000000000007,193.346" fill="" stroke="#000000" stroke-width="0.80" />
<polyline points="145.1900000000005,193.346 154.77000000000044,193.346" fill="" stroke="#000000" stroke-width="0.80" />
<polyline points="127.35000000000036,193.346 136.9300000000003,193.346" fill="" stroke="#000000" stroke-width="0.80" />
<polyline points="98.79999999999927,193.346 108.3799999999992,193.346" fill="" stroke="#000000" stroke-width="0.80" />
<polyline points="34.55999999999949,193.346 44.13999999999942,193.346" fill="" stroke="#000000" stroke-width="0.80" />
<polyline points="34.3799999999992,75.8465 44.31999999999971,75.8465" fill="" stroke="#000000" stroke-width="0.80" />
<polyline points="34.3799999999992,80.8465 44.31999999999971,80.8465" fill="" stroke="#000000" stroke-width="0.80" />
<polyline points="34.3799999999992,85.8465 44.31999999999971,85.8465" fill="" stroke="#000000" stroke-width="0.80" />
<polyline points="34.3799999999992,90.8465 44.31999999999971,90.8465" fill="" stroke="#000000" stroke-width="0.80" />
<polyline points="34.3799999999992,95.8465 44.31999999999971,95.8465" fill="" stroke="#000000" stroke-width="0.80" />
<polyline points="34.3799999999992,100.846 44.31999999999971,100.846" fill="" stroke="#000000" stroke-width="0.80" />
<polyline points="34.3799999999992,105.846 44.31999999999971,105.846" fill="" stroke="#000000" stroke-width="0.80" />
<polyline points="34.3799999999992,110.846 44.31999999999971,110.846" fill="" stroke="#000000" stroke-width="0.80" />
<polyline points="34.3799999999992,53.3465 44.31999999999971,53.3465" fill="" stroke="#000000" stroke-width="0.80" />
<polyline points="34.3799999999992,58.3465 44.31999999999971,58.3465" fill="" stroke="#000000" stroke-width="0.80" />
</svg>
