<?xml version="1.0" encoding="UTF-8" standalone="yes"?>
<svg width="256.0px" height="256.0px" xmlns="http://www.w3.org/2000/svg" xmlns:xlink="http://www.w3.org/1999/xlink" version="1.2" baseProfile="tiny">
<polyline points="0.0,17.346000000000004 255.0,17.346000000000004" fill="none" stroke="#000000" stroke-width="0.40" />
<polyline points="0.0,22.346000000000004 255.0,22.346000000000004" fill="none" stroke="#000000" stroke-width="0.40" />
<polyline points="0.0,27.346000000000004 255.0,27.346000000000004" fill="none" stroke="#000000" stroke-width="0.40" />
<polyline points="0.0,32.346000000000004 255.0,32.346000000000004" fill="none" stroke="#000000" stroke-width="0.40" />
<polyline points="0.0,37.346000000000004 255.0,37.346000000000004" fill="none" stroke="#000000" stroke-width="0.40" />
<polyline points="0.0,112.346 255.0,112.346" fill="none" stroke="#000000" stroke-width="0.40" />
<polyline points="0.0,117.346 255.0,117.346" fill="none" stroke="#000000" stroke-width="0.40" />
<polyline points="0.0,122.346 255.0,122.346" fill="none" stroke="#000000" stroke-width="0.40" />
<polyline points="0.0,127.346 255.0,127.346" fill="none" stroke="#000000" stroke-width="0.40" />
<polyline points="0.0,132.346 255.0,132.346" fill="none" stroke="#000000" stroke-width="0.40" />
<polyline points="0.0,164.846 255.0,164.846" fill="none" stroke="#000000" stroke-width="0.40" />
<polyline points="0.0,169.846 255.0,169.846" fill="none" stroke="#000000" stroke-width="0.40" />
<polyline points="0.0,174.846 255.0,174.846" fill="none" stroke="#000000" stroke-width="0.40" />
<polyline points="0.0,179.846 255.0,179.846" fill="none" stroke="#000000" stroke-width="0.40" />
<polyline points="0.0,184.846 255.0,184.846" fill="none" stroke="#000000" stroke-width="0.40" />
<polyline points="0.0,217.346 255.0,217.346" fill="none" stroke="#000000" stroke-width="0.40" />
<polyline points="0.0,222.346 255.0,222.346" fill="none" stroke="#000000" stroke-width="0.40" />
<polyline points="0.0,227.346 255.0,227.346" fill="none" stroke="#000000" stroke-width="0.40" />
<polyline points="0.0,232.346 255.0,232.346" fill="none" stroke="#000000" stroke-width="0.40" />
<polyline points="0.0,237.346 255.0,237.346" fill="none" stroke="#000000" stroke-width="0.40" />
<polyline points="26.1299999999992,217.346 26.1299999999992,237.346" fill="" stroke="#000000" stroke-width="0.80" />
<polyline points="26.1299999999992,164.846 26.1299999999992,184.846" fill="" stroke="#000000" stroke-width="0.80" />
<polyline points="26.1299999999992,112.346 26.1299999999992,132.346" fill="" stroke="#000000" stroke-width="0.80" />
<polyline points="44.54999999999927,17.346000000000004 44.54999999999927,37.346000000000004" fill="" stroke="#000000" stroke-width="0.80" />
<polyline points="241.01000000000022,110.786 241.01000000000022,173.596" fill="" stroke="#000000" stroke-width="0.65" />
<polyline points="241.01000000000022,88.286 241.01000000000022,121.096" fill="" stroke="#000000" stroke-width="0.65" />
<polyline points="218.51000000000022,110.786 218.51000000000022,173.596" fill="" stroke="#000000" stroke-width="0.65" />
<polyline points="218.51000000000022,88.286 218.51000000000022,121.096" fill="" stroke="#000000" stroke-width="0.65" />
<polyline points="195.54999999999927,115.786 195.54999999999927,173.596" fill="" stroke="#000000" stroke-width="0.65" />
<polyline points="195.54999999999927,93.286 195.54999999999927,126.096" fill="" stroke="#000000" stroke-width="0.65" />
<polyline points="179.1800000000003,115.786 179.1800000000003,173.596" fill="" stroke="#000000" stroke-width="0.65" />
<polyline points="179.1800000000003,93.286 179.1800000000003,126.096" fill="" stroke="#000000" stroke-width="0.65" />
<polyline points="162.79000000000087,244.07799999999997 162.79000000000087,207.971" fill="" stroke="#000000" stroke-width="0.65" />
<polyline points="156.6800000000003,115.786 156.6800000000003,173.596" fill="" stroke="#000000" stroke-width="0.65" />
<polyline points="156.6800000000003,93.286 156.6800000000003,126.096" fill="" stroke="#000000" stroke-width="0.65" />
<polyline points="140.3199999999997,118.286 140.3199999999997,173.596" fill="" stroke="#000000" stroke-width="0.65" />
<polyline points="140.3199999999997,95.786 140.3199999999997,127.346" fill="" stroke="#000000" stroke-width="0.65" />
<polyline points="123.95000000000073,118.286 123.95000000000073,173.596" fill="" stroke="#000000" stroke-width="0.65" />
<polyline points="123.95000000000073,95.786 123.95000000000073,127.346" fill="" stroke="#000000" stroke-width="0.65" />
<polyline points="101.45000000000073,118.286 101.45000000000073,173.596" fill="" stroke="#000000" stroke-width="0.65" />
<polyline points="101.45000000000073,95.786 101.45000000000073,127.346" fill="" stroke="#000000" stroke-width="0.65" />
<polyline points="68.71999999999935,120.786 68.71999999999935,173.596" fill="" stroke="#000000" stroke-width="0.65" />
<polyline points="68.71999999999935,98.286 68.71999999999935,131.096" fill="" stroke="#000000" stroke-width="0.65" />
<polyline points="52.36000000000058,120.786 52.36000000000058,173.596" fill="" stroke="#000000" stroke-width="0.65" />
<polyline points="52.36000000000058,98.286 52.36000000000058,131.096" fill="" stroke="#000000" stroke-width="0.65" />
<polyline points="42.11000000000058,241.57799999999997 42.11000000000058,206.096" fill="" stroke="#000000" stroke-width="0.65" />
<polyline points="35.98999999999978,120.786 35.98999999999978,173.596" fill="" stroke="#000000" stroke-width="0.65" />
<polyline points="35.98999999999978,98.286 35.98999999999978,131.096" fill="" stroke="#000000" stroke-width="0.65" />
<polyline points="1.4699999999993452,243.90699999999998 1.4699999999993452,207.346" fill="" stroke="#000000" stroke-width="0.65" />
<polyline points="249.04999999999927,16.910000000000025 249.04999999999927,41.096000000000004" fill="" stroke="#000000" stroke-width="0.65" />
<polyline points="224.6200000000008,16.910000000000025 224.6200000000008,41.096000000000004" fill="" stroke="#000000" stroke-width="0.65" />
<polyline points="200.1800000000003,16.910000000000025 200.1800000000003,49.846000000000004" fill="" stroke="#000000" stroke-width="0.65" />
<polyline points="169.63999999999942,16.910000000000025 169.63999999999942,49.846000000000004" fill="" stroke="#000000" stroke-width="0.65" />
<polyline points="139.10000000000036,16.910000000000025 139.10000000000036,48.596000000000004" fill="" stroke="#000000" stroke-width="0.65" />
<polyline points="114.67000000000007,16.910000000000025 114.67000000000007,48.596000000000004" fill="" stroke="#000000" stroke-width="0.65" />
<polyline points="84.1299999999992,16.910000000000025 84.1299999999992,48.596000000000004" fill="" stroke="#000000" stroke-width="0.65" />
<polyline points="53.590000000000146,16.910000000000025 53.590000000000146,48.596000000000004" fill="" stroke="#000000" stroke-width="0.65" />
<polyline points="26.6299999999992,16.910000000000025 26.6299999999992,51.096000000000004" fill="" stroke="#000000" stroke-width="0.65" />
<polyline points="8.790000000000873,16.910000000000025 8.790000000000873,51.096000000000004" fill="" stroke="#000000" stroke-width="0.65" />
<polyline points="255.54999999999927,109.846 255.0,109.846" fill="" stroke="#000000" stroke-width="0.80" />
<polyline points="255.54999999999927,114.846 255.0,114.846" fill="" stroke="#000000" stroke-width="0.80" />
<polyline points="255.54999999999927,119.846 255.0,119.846" fill="" stroke="#000000" stroke-width="0.80" />
<polyline points="255.54999999999927,124.846 255.0,124.846" fill="" stroke="#000000" stroke-width="0.80" />
<polyline points="255.54999999999927,129.846 255.0,129.846" fill="" stroke="#000000" stroke-width="0.80" />
<polyline points="255.54999999999927,134.846 255.0,134.846" fill="" stroke="#000000" stroke-width="0.80" />
<polyline points="255.54999999999927,139.846 255.0,139.846" fill="" stroke="#000000" stroke-width="0.80" />
<polyline points="255.54999999999927,144.846 255.0,144.846" fill="" stroke="#000000" stroke-width="0.80" />
<polyline points="255.54999999999927,149.846 255.0,149.846" fill="" stroke="#000000" stroke-width="0.80" />
<polyline points="255.54999999999927,154.846 255.0,154.846" fill="" stroke="#000000" stroke-width="0.80" />
<polyline points="255.54999999999927,159.846 255.0,159.846" fill="" stroke="#000000" stroke-width="0.80" />
<polyline points="255.54999999999927,87.346 255.0,87.346" fill="" stroke="#000000" stroke-width="0.80" />
<polyline points="255.54999999999927,92.346 255.0,92.346" fill="" stroke="#000000" stroke-width="0.80" />
<polyline points="255.54999999999927,97.346 255.0,97.346" fill="" stroke="#000000" stroke-width="0.80" />
<polyline points="255.54999999999927,102.346 255.0,102.346" fill="" stroke="#000000" stroke-width="0.80" />
<polyline points="255.54999999999927,107.346 255.0,107.346" fill="" stroke="#000000" stroke-width="0.80" />
<polyline points="239.1900000000005,109.846 248.77000000000044,109.846" fill="" stroke="#000000" stroke-width="0.80" />
<polyline points="239.1900000000005,114.846 248.77000000000044,114.846" fill="" stroke="#000000" stroke-width="0.80" />
<polyline points="239.1900000000005,119.846 248.77000000000044,119.846" fill="" stroke="#000000" stroke-width="0.80" />
<polyline points="239.1900000000005,124.846 248.77000000000044,124.846" fill="" stroke="#000000" stroke-width="0.80" />
<polyline points="239.1900000000005,129.846 248.77000000000044,129.846" fill="" stroke="#000000" stroke-width="0.80" />
<polyline points="239.1900000000005,134.846 248.77000000000044,134.846" fill="" stroke="#000000" stroke-width="0.80" />
<polyline points="239.1900000000005,139.846 248.77000000000044,139.846" fill="" stroke="#000000" stroke-width="0.80" />
<polyline points="239.1900000000005,144.846 248.77000000000044,144.846" fill="" stroke="#000000" stroke-width="0.80" />
<polyline points="239.1900000000005,149.846 248.77000000000044,149.846" fill="" stroke="#000000" stroke-width="0.80" />
<polyline points="239.1900000000005,154.846 248.77000000000044,154.846" fill="" stroke="#000000" stroke-width="0.80" />
<polyline points="239.1900000000005,159.846 248.77000000000044,159.846" fill="" stroke="#000000" stroke-width="0.80" />
<polyline points="239.1900000000005,87.346 248.77000000000044,87.346" fill="" stroke="#000000" stroke-width="0.80" />
<polyline points="239.1900000000005,92.346 248.77000000000044,92.346" fill="" stroke="#000000" stroke-width="0.80" />
<polyline points="239.1900000000005,97.346 248.77000000000044,97.346" fill="" stroke="#000000" stroke-width="0.80" />
<polyline points="239.1900000000005,102.346 248.77000000000044,102.346" fill="" stroke="#000000" stroke-width="0.80" />
<polyline points="239.1900000000005,107.346 248.77000000000044,107.346" fill="" stroke="#000000" stroke-width="0.80" />
<polyline points="216.6900000000005,109.846 226.27000000000044,109.846" fill="" stroke="#000000" stroke-width="0.80" />
<polyline points="216.6900000000005,114.846 226.27000000000044,114.846" fill="" stroke="#000000" stroke-width="0.80" />
<polyline points="216.6900000000005,119.846 226.27000000000044,119.846" fill="" stroke="#000000" stroke-width="0.80" />
<polyline points="216.6900000000005,124.846 226.27000000000044,124.846" fill="" stroke="#000000" stroke-width="0.80" />
<polyline points="216.6900000000005,129.846 226.27000000000044,129.846" fill="" stroke="#000000" stroke-width="0.80" />
<polyline points="216.6900000000005,134.846 226.27000000000044,134.846" fill="" stroke="#000000" stroke-width="0.80" />
<polyline points="216.6900000000005,139.846 226.27000000000044,139.846" fill="" stroke="#000000" stroke-width="0.80" />
<polyline points="216.6900000000005,144.846 226.27000000000044,144.846" fill="" stroke="#000000" stroke-width="0.80" />
<polyline points="216.6900000000005,149.846 226.27000000000044,149.846" fill="" stroke="#000000" stroke-width="0.80" />
<polyline points="216.6900000000005,154.846 226.27000000000044,154.846" fill="" stroke="#000000" stroke-width="0.80" />
<polyline points="216.6900000000005,159.846 226.27000000000044,159.846" fill="" stroke="#000000" stroke-width="0.80" />
<polyline points="216.6900000000005,87.346 226.27000000000044,87.346" fill="" stroke="#000000" stroke-width="0.80" />
<polyline points="216.6900000000005,92.346 226.27000000000044,92.346" fill="" stroke="#000000" stroke-width="0.80" />
<polyline points="216.6900000000005,97.346 226.27000000000044,97.346" fill="" stroke="#000000" stroke-width="0.80" />
<polyline points="216.6900000000005,102.346 226.27000000000044,102.346" fill="" stroke="#000000" stroke-width="0.80" />
<polyline points="216.6900000000005,107.346 226.27000000000044,107.346" fill="" stroke="#000000" stroke-width="0.80" />
<polyline points="193.71999999999935,114.846 203.29999999999927,114.846" fill="" stroke="#000000" stroke-width="0.80" />
<polyline points="193.71999999999935,119.846 203.29999999999927,119.846" fill="" stroke="#000000" stroke-width="0.80" />
<polyline points="193.71999999999935,124.846 203.29999999999927,124.846" fill="" stroke="#000000" stroke-width="0.80" />
<polyline points="193.71999999999935,129.846 203.29999999999927,129.846" fill="" stroke="#000000" stroke-width="0.80" />
<polyline points="193.71999999999935,134.846 203.29999999999927,134.846" fill="" stroke="#000000" stroke-width="0.80" />
<polyline points="193.71999999999935,139.846 203.29999999999927,139.846" fill="" stroke="#000000" stroke-width="0.80" />
<polyline points="193.71999999999935,144.846 203.29999999999927,144.846" fill="" stroke="#000000" stroke-width="0.80" />
<polyline points="193.71999999999935,149.846 203.29999999999927,149.846" fill="" stroke="#000000" stroke-width="0.80" />
<polyline points="193.71999999999935,154.846 203.29999999999927,154.846" fill="" stroke="#000000" stroke-width="0.80" />
<polyline points="193.71999999999935,159.846 203.29999999999927,159.846" fill="" stroke="#000000" stroke-width="0.80" />
<polyline points="193.71999999999935,92.346 203.29999999999927,92.346" fill="" stroke="#000000" stroke-width="0.80" />
<polyline points="193.71999999999935,97.346 203.29999999999927,97.346" fill="" stroke="#000000" stroke-width="0.80" />
<polyline points="193.71999999999935,102.346 203.29999999999927,102.346" fill="" stroke="#000000" stroke-width="0.80" />
<polyline points="193.71999999999935,107.346 203.29999999999927,107.346" fill="" stroke="#000000" stroke-width="0.80" />
<polyline points="177.36000000000058,114.846 186.9400000000005,114.846" fill="" stroke="#000000" stroke-width="0.80" />
<polyline points="177.36000000000058,119.846 186.9400000000005,119.846" fill="" stroke="#000000" stroke-width="0.80" />
<polyline points="177.36000000000058,124.846 186.9400000000005,124.846" fill="" stroke="#000000" stroke-width="0.80" />
<polyline points="177.36000000000058,129.846 186.9400000000005,129.846" fill="" stroke="#000000" stroke-width="0.80" />
<polyline points="177.36000000000058,134.846 186.9400000000005,134.846" fill="" stroke="#000000" stroke-width="0.80" />
<polyline points="177.36000000000058,139.846 186.9400000000005,139.846" fill="" stroke="#000000" stroke-width="0.80" />
<polyline points="177.36000000000058,144.846 186.9400000000005,144.846" fill="" stroke="#000000" stroke-width="0.80" />
<polyline points="177.36000000000058,149.846 186.9400000000005,149.846" fill="" stroke="#000000" stroke-width="0.80" />
<polyline points="177.36000000000058,154.846 186.9400000000005,154.846" fill="" stroke="#000000" stroke-width="0.80" />
<polyline points="177.36000000000058,159.846 186.9400000000005,159.846" fill="" stroke="#000000" stroke-width="0.80" />
<polyline points="177.36000000000058,92.346 186.9400000000005,92.346" fill="" stroke="#000000" stroke-width="0.80" />
<polyline points="177.36000000000058,97.346 186.9400000000005,97.346" fill="" stroke="#000000" stroke-width="0.80" />
<polyline points="177.36000000000058,102.346 186.9400000000005,102.346" fill="" stroke="#000000" stroke-width="0.80" />
<polyline points="177.36000000000058,107.346 186.9400000000005,107.346" fill="" stroke="#000000" stroke-width="0.80" />
<polyline points="154.67000000000007,242.346 164.6200000000008,242.346" fill="" stroke="#000000" stroke-width="0.80" />
<polyline points="154.86000000000058,114.846 164.4400000000005,114.846" fill="" stroke="#000000" stroke-width="0.80" />
<polyline points="154.86000000000058,119.846 164.4400000000005,119.846" fill="" stroke="#000000" stroke-width="0.80" />
<polyline points="154.86000000000058,124.846 164.4400000000005,124.846" fill="" stroke="#000000" stroke-width="0.80" />
<polyline points="154.86000000000058,129.846 164.4400000000005,129.846" fill="" stroke="#000000" stroke-width="0.80" />
<polyline points="154.86000000000058,134.846 164.4400000000005,134.846" fill="" stroke="#000000" stroke-width="0.80" />
<polyline points="154.86000000000058,139.846 164.4400000000005,139.846" fill="" stroke="#000000" stroke-width="0.80" />
<polyline points="154.86000000000058,144.846 164.4400000000005,144.846" fill="" stroke="#000000" stroke-width="0.80" />
<polyline points="154.86000000000058,149.846 164.4400000000005,149.846" fill="" stroke="#000000" stroke-width="0.80" />
<polyline points="154.86000000000058,154.846 164.4400000000005,154.846" fill="" stroke="#000000" stroke-width="0.80" />
<polyline points="154.86000000000058,159.846 164.4400000000005,159.846" fill="" stroke="#000000" stroke-width="0.80" />
<polyline points="154.86000000000058,92.346 164.4400000000005,92.346" fill="" stroke="#000000" stroke-width="0.80" />
<polyline points="154.86000000000058,97.346 164.4400000000005,97.346" fill="" stroke="#000000" stroke-width="0.80" />
<polyline points="154.86000000000058,102.346 164.4400000000005,102.346" fill="" stroke="#000000" stroke-width="0.80" />
<polyline points="154.86000000000058,107.346 164.4400000000005,107.346" fill="" stroke="#000000" stroke-width="0.80" />
<polyline points="138.48999999999978,119.846 148.0699999999997,119.846" fill="" stroke="#000000" stroke-width="0.80" />
<polyline points="138.48999999999978,124.846 148.0699999999997,124.846" fill="" stroke="#000000" stroke-width="0.80" />
<polyline points="138.48999999999978,129.846 148.0699999999997,129.846" fill="" stroke="#000000" stroke-width="0.80" />
<polyline points="138.48999999999978,134.846 148.0699999999997,134.846" fill="" stroke="#000000" stroke-width="0.80" />
<polyline points="138.48999999999978,139.846 148.0699999999997,139.846" fill="" stroke="#000000" stroke-width="0.80" />
<polyline points="138.48999999999978,144.846 148.0699999999997,144.846" fill="" stroke="#000000" stroke-width="0.80" />
<polyline points="138.48999999999978,149.846 148.0699999999997,149.846" fill="" stroke="#000000" stroke-width="0.80" />
<polyline points="138.48999999999978,154.846 148.0699999999997,154.846" fill="" stroke="#000000" stroke-width="0.80" />
<polyline points="138.48999999999978,159.846 148.0699999999997,159.846" fill="" stroke="#000000" stroke-width="0.80" />
<polyline points="138.48999999999978,97.346 148.0699999999997,97.346" fill="" stroke="#000000" stroke-width="0.80" />
<polyline points="138.48999999999978,102.346 148.0699999999997,102.346" fill="" stroke="#000000" stroke-width="0.80" />
<polyline points="138.48999999999978,107.346 148.0699999999997,107.346" fill="" stroke="#000000" stroke-width="0.80" />
<polyline points="122.1299999999992,119.846 131.70999999999913,119.846" fill="" stroke="#000000" stroke-width="0.80" />
<polyline points="122.1299999999992,124.846 131.70999999999913,124.846" fill="" stroke="#000000" stroke-width="0.80" />
<polyline points="122.1299999999992,129.846 131.70999999999913,129.846" fill="" stroke="#000000" stroke-width="0.80" />
<polyline points="122.1299999999992,134.846 131.70999999999913,134.846" fill="" stroke="#000000" stroke-width="0.80" />
<polyline points="122.1299999999992,139.846 131.70999999999913,139.846" fill="" stroke="#000000" stroke-width="0.80" />
<polyline points="122.1299999999992,144.846 131.70999999999913,144.846" fill="" stroke="#000000" stroke-width="0.80" />
<polyline points="122.1299999999992,149.846 131.70999999999913,149.846" fill="" stroke="#000000" stroke-width="0.80" />
<polyline points="122.1299999999992,154.846 131.70999999999913,154.846" fill="" stroke="#000000" stroke-width="0.80" />
<polyline points="122.1299999999992,159.846 131.70999999999913,159.846" fill="" stroke="#000000" stroke-width="0.80" />
<polyline points="122.1299999999992,97.346 131.70999999999913,97.346" fill="" stroke="#000000" stroke-width="0.80" />
<polyline points="122.1299999999992,102.346 131.70999999999913,102.346" fill="" stroke="#000000" stroke-width="0.80" />
<polyline points="122.1299999999992,107.346 131.70999999999913,107.346" fill="" stroke="#000000" stroke-width="0.80" />
<polyline points="99.6299999999992,119.846 109.20999999999913,119.846" fill="" stroke="#000000" stroke-width="0.80" />
<polyline points="99.6299999999992,124.846 109.20999999999913,124.846" fill="" stroke="#000000" stroke-width="0.80" />
<polyline points="99.6299999999992,129.846 109.20999999999913,129.846" fill="" stroke="#000000" stroke-width="0.80" />
<polyline points="99.6299999999992,134.846 109.20999999999913,134.846" fill="" stroke="#000000" stroke-width="0.80" />
<polyline points="99.6299999999992,139.846 109.20999999999913,139.846" fill="" stroke="#000000" stroke-width="0.80" />
<polyline points="99.6299999999992,144.846 109.20999999999913,144.846" fill="" stroke="#000000" stroke-width="0.80" />
<polyline points="99.6299999999992,149.846 109.20999999999913,149.846" fill="" stroke="#000000" stroke-width="0.80" />
<polyline points="99.6299999999992,154.846 109.20999999999913,154.846" fill="" stroke="#000000" stroke-width="0.80" />
<polyline points="99.6299999999992,159.846 109.20999999999913,159.846" fill="" stroke="#000000" stroke-width="0.80" />
<polyline points="99.6299999999992,97.346 109.20999999999913,97.346" fill="" stroke="#000000" stroke-width="0.80" />
<polyline points="99.6299999999992,102.346 109.20999999999913,102.346" fill="" stroke="#000000" stroke-width="0.80" />
<polyline points="99.6299999999992,107.346 109.20999999999913,107.346" fill="" stroke="#000000" stroke-width="0.80" />
<polyline points="66.89999999999964,119.846 76.47999999999956,119.846" fill="" stroke="#000000" stroke-width="0.80" />
<polyline points="66.89999999999964,124.846 76.47999999999956,124.846" fill="" stroke="#000000" stroke-width="0.80" />
<polyline points="66.89999999999964,129.846 76.47999999999956,129.846" fill="" stroke="#000000" stroke-width="0.80" />
<polyline points="66.89999999999964,134.846 76.47999999999956,134.846" fill="" stroke="#000000" stroke-width="0.80" />
<polyline points="66.89999999999964,139.846 76.47999999999956,139.846" fill="" stroke="#000000" stroke-width="0.80" />
<polyline points="66.89999999999964,144.846 76.47999999999956,144.846" fill="" stroke="#000000" stroke-width="0.80" />
<polyline points="66.89999999999964,149.846 76.47999999999956,149.846" fill="" stroke="#000000" stroke-width="0.80" />
<polyline points="66.89999999999964,154.846 76.47999999999956,154.846" fill="" stroke="#000000" stroke-width="0.80" />
<polyline points="66.89999999999964,159.846 76.47999999999956,159.846" fill="" stroke="#000000" stroke-width="0.80" />
<polyline points="66.89999999999964,97.346 76.47999999999956,97.346" fill="" stroke="#000000" stroke-width="0.80" />
<polyline points="66.89999999999964,102.346 76.47999999999956,102.346" fill="" stroke="#000000" stroke-width="0.80" />
<polyline points="66.89999999999964,107.346 76.47999999999956,107.346" fill="" stroke="#000000" stroke-width="0.80" />
<polyline points="50.530000000000655,119.846 60.1200000000008,119.846" fill="" stroke="#000000" stroke-width="0.80" />
<polyline points="50.530000000000655,124.846 60.1200000000008,124.846" fill="" stroke="#000000" stroke-width="0.80" />
<polyline points="50.530000000000655,129.846 60.1200000000008,129.846" fill="" stroke="#000000" stroke-width="0.80" />
<polyline points="50.530000000000655,134.846 60.1200000000008,134.846" fill="" stroke="#000000" stroke-width="0.80" />
<polyline points="50.530000000000655,139.846 60.1200000000008,139.846" fill="" stroke="#000000" stroke-width="0.80" />
<polyline points="50.530000000000655,144.846 60.1200000000008,144.846" fill="" stroke="#000000" stroke-width="0.80" />
<polyline points="50.530000000000655,149.846 60.1200000000008,149.846" fill="" stroke="#000000" stroke-width="0.80" />
<polyline points="50.530000000000655,154.846 60.1200000000008,154.846" fill="" stroke="#000000" stroke-width="0.80" />
<polyline points="50.530000000000655,159.846 60.1200000000008,159.846" fill="" stroke="#000000" stroke-width="0.80" />
<polyline points="50.530000000000655,97.346 60.1200000000008,97.346" fill="" stroke="#000000" stroke-width="0.80" />
<polyline points="50.530000000000655,102.346 60.1200000000008,102.346" fill="" stroke="#000000" stroke-width="0.80" />
<polyline points="50.530000000000655,107.346 60.1200000000008,107.346" fill="" stroke="#000000" stroke-width="0.80" />
<polyline points="33.98999999999978,242.346 43.93000000000029,242.346" fill="" stroke="#000000" stroke-width="0.80" />
<polyline points="34.17000000000007,119.846 43.75,119.846" fill="" stroke="#000000" stroke-width="0.80" />
<polyline points="34.17000000000007,124.846 43.75,124.846" fill="" stroke="#000000" stroke-width="0.80" />
<polyline points="34.17000000000007,129.846 43.75,129.846" fill="" stroke="#000000" stroke-width="0.80" />
<polyline points="34.17000000000007,134.846 43.75,134.846" fill="" stroke="#000000" stroke-width="0.80" />
<polyline points="34.17000000000007,139.846 43.75,139.846" fill="" stroke="#000000" stroke-width="0.80" />
<polyline points="34.17000000000007,144.846 43.75,144.846" fill="" stroke="#000000" stroke-width="0.80" />
<polyline points="34.17000000000007,149.846 43.75,149.846" fill="" stroke="#000000" stroke-width="0.80" />
<polyline points="34.17000000000007,154.846 43.75,154.846" fill="" stroke="#000000" stroke-width="0.80" />
<polyline points="34.17000000000007,159.846 43.75,159.846" fill="" stroke="#000000" stroke-width="0.80" />
<polyline points="34.17000000000007,97.346 43.75,97.346" fill="" stroke="#000000" stroke-width="0.80" />
<polyline points="34.17000000000007,102.346 43.75,102.346" fill="" stroke="#000000" stroke-width="0.80" />
<polyline points="34.17000000000007,107.346 43.75,107.346" fill="" stroke="#000000" stroke-width="0.80" />
<polyline points="0.0,242.346 3.290000000000873,242.346" fill="" stroke="#000000" stroke-width="0.80" />
<polyline points="205.35000000000036,90.85700000000003 210.52000000000044,90.85700000000003" fill="" stroke="#000000" stroke-width="0.75" />
<polyline points="150.1200000000008,93.80099999999999 153.64999999999964,93.80099999999999" fill="" stroke="#000000" stroke-width="0.75" />
<polyline points="78.53000000000065,96.82400000000001 98.43000000000029,96.82400000000001" fill="" stroke="#000000" stroke-width="0.75" />
</svg>
