<?xml version="1.0" encoding="UTF-8" standalone="yes"?>
<svg width="256.0px" height="256.0px" xmlns="http://www.w3.org/2000/svg" xmlns:xlink="http://www.w3.org/1999/xlink" version="1.2" baseProfile="tiny">
<polyline points="0.0,13.846000000000004 30.23999999999978,13.846000000000004" fill="none" stroke="#000000" stroke-width="0.40" />
<polyline points="0.0,18.846000000000004 30.23999999999978,18.846000000000004" fill="none" stroke="#000000" stroke-width="0.40" />
<polyline points="0.0,23.846000000000004 30.23999999999978,23.846000000000004" fill="none" stroke="#000000" stroke-width="0.40" />
<polyline points="0.0,28.846000000000004 30.23999999999978,28.846000000000004" fill="none" stroke="#000000" stroke-width="0.40" />
<polyline points="0.0,33.846000000000004 30.23999999999978,33.846000000000004" fill="none" stroke="#000000" stroke-width="0.40" />
<polyline points="0.0,66.346 30.23999999999978,66.346" fill="none" stroke="#000000" stroke-width="0.40" />
<polyline points="0.0,71.346 30.23999999999978,71.346" fill="none" stroke="#000000" stroke-width="0.40" />
<polyline points="0.0,76.346 30.23999999999978,76.346" fill="none" stroke="#000000" stroke-width="0.40" />
<polyline points="0.0,81.346 30.23999999999978,81.346" fill="none" stroke="#000000" stroke-width="0.40" />
<polyline points="0.0,86.346 30.23999999999978,86.346" fill="none" stroke="#000000" stroke-width="0.40" />
<polyline points="29.840000000000146,66.346 29.840000000000146,86.346" fill="" stroke="#000000" stroke-width="0.80" />
<polyline points="29.840000000000146,13.846000000000004 29.840000000000146,33.846000000000004" fill="" stroke="#000000" stroke-width="0.80" />
<polyline points="13.699999999999818,74.78599999999994 13.699999999999818,90.096" fill="" stroke="#000000" stroke-width="0.65" />
<polyline points="86.93000000000029,13.846000000000004 255.0,13.846000000000004" fill="none" stroke="#000000" stroke-width="0.40" />
<polyline points="86.93000000000029,18.846000000000004 255.0,18.846000000000004" fill="none" stroke="#000000" stroke-width="0.40" />
<polyline points="86.93000000000029,23.846000000000004 255.0,23.846000000000004" fill="none" stroke="#000000" stroke-width="0.40" />
<polyline points="86.93000000000029,28.846000000000004 255.0,28.846000000000004" fill="none" stroke="#000000" stroke-width="0.40" />
<polyline points="86.93000000000029,33.846000000000004 255.0,33.846000000000004" fill="none" stroke="#000000" stroke-width="0.40" />
<polyline points="86.93000000000029,66.346 255.0,66.346" fill="none" stroke="#000000" stroke-width="0.40" />
<polyline points="86.93000000000029,71.346 255.0,71.346" fill="none" stroke="#000000" stroke-width="0.40" />
<polyline points="86.93000000000029,76.346 255.0,76.346" fill="none" stroke="#000000" stroke-width="0.40" />
<polyline points="86.93000000000029,81.346 255.0,81.346" fill="none" stroke="#000000" stroke-width="0.40" />
<polyline points="86.93000000000029,86.346 255.0,86.346" fill="none" stroke="#000000" stroke-width="0.40" />
<polyline points="87.32999999999993,0.0 87.32999999999993,86.346" fill="" stroke="#000000" stroke-width="0.80" />
<polyline points="247.6300000000001,69.78599999999994 247.6300000000001,86.346" fill="" stroke="#000000" stroke-width="0.65" />
<polyline points="253.5600000000004,32.90700000000004 253.5600000000004,18.846000000000004" fill="" stroke="#000000" stroke-width="0.65" />
<polyline points="230.22999999999956,69.78599999999994 230.22999999999956,87.596" fill="" stroke="#000000" stroke-width="0.65" />
<polyline points="236.15999999999985,32.90700000000004 236.15999999999985,18.846000000000004" fill="" stroke="#000000" stroke-width="0.65" />
<polyline points="212.82999999999993,74.78599999999994 212.82999999999993,88.846" fill="" stroke="#000000" stroke-width="0.65" />
<polyline points="218.76000000000022,32.90700000000004 218.76000000000022,18.846000000000004" fill="" stroke="#000000" stroke-width="0.65" />
<polyline points="195.4300000000003,74.78599999999994 195.4300000000003,90.096" fill="" stroke="#000000" stroke-width="0.65" />
<polyline points="201.35999999999967,32.90700000000004 201.35999999999967,18.846000000000004" fill="" stroke="#000000" stroke-width="0.65" />
<polyline points="178.02999999999975,69.78599999999994 178.02999999999975,85.096" fill="" stroke="#000000" stroke-width="0.65" />
<polyline points="160.6300000000001,69.78599999999994 160.6300000000001,85.096" fill="" stroke="#000000" stroke-width="0.65" />
<polyline points="143.22999999999956,69.78599999999994 143.22999999999956,85.096" fill="" stroke="#000000" stroke-width="0.65" />
<polyline points="125.82999999999993,69.78599999999994 125.82999999999993,85.096" fill="" stroke="#000000" stroke-width="0.65" />
<polyline points="131.77000000000044,32.90700000000004 131.77000000000044,16.346000000000004" fill="" stroke="#000000" stroke-width="0.65" />
</svg>
