<?xml version="1.0" encoding="UTF-8" standalone="yes"?>
<svg width="256.0px" height="256.0px" xmlns="http://www.w3.org/2000/svg" xmlns:xlink="http://www.w3.org/1999/xlink" version="1.2" baseProfile="tiny">
<polyline points="0.0,63.3465 255.0,63.3465" fill="none" stroke="#000000" stroke-width="0.40" />
<polyline points="0.0,68.3465 255.0,68.3465" fill="none" stroke="#000000" stroke-width="0.40" />
<polyline points="0.0,73.3465 255.0,73.3465" fill="none" stroke="#000000" stroke-width="0.40" />
<polyline points="0.0,78.3465 255.0,78.3465" fill="none" stroke="#000000" stroke-width="0.40" />
<polyline points="0.0,83.3465 255.0,83.3465" fill="none" stroke="#000000" stroke-width="0.40" />
<polyline points="0.0,115.846 255.0,115.846" fill="none" stroke="#000000" stroke-width="0.40" />
<polyline points="0.0,120.846 255.0,120.846" fill="none" stroke="#000000" stroke-width="0.40" />
<polyline points="0.0,125.846 255.0,125.846" fill="none" stroke="#000000" stroke-width="0.40" />
<polyline points="0.0,130.846 255.0,130.846" fill="none" stroke="#000000" stroke-width="0.40" />
<polyline points="0.0,135.846 255.0,135.846" fill="none" stroke="#000000" stroke-width="0.40" />
<polyline points="0.0,168.346 255.0,168.346" fill="none" stroke="#000000" stroke-width="0.40" />
<polyline points="0.0,173.346 255.0,173.346" fill="none" stroke="#000000" stroke-width="0.40" />
<polyline points="0.0,178.346 255.0,178.346" fill="none" stroke="#000000" stroke-width="0.40" />
<polyline points="0.0,183.346 255.0,183.346" fill="none" stroke="#000000" stroke-width="0.40" />
<polyline points="0.0,188.346 255.0,188.346" fill="none" stroke="#000000" stroke-width="0.40" />
<polyline points="0.0,220.846 255.0,220.846" fill="none" stroke="#000000" stroke-width="0.40" />
<polyline points="0.0,225.846 255.0,225.846" fill="none" stroke="#000000" stroke-width="0.40" />
<polyline points="0.0,230.846 255.0,230.846" fill="none" stroke="#000000" stroke-width="0.40" />
<polyline points="0.0,235.846 255.0,235.846" fill="none" stroke="#000000" stroke-width="0.40" />
<polyline points="0.0,240.846 255.0,240.846" fill="none" stroke="#000000" stroke-width="0.40" />
<polyline points="246.60000000000036,193.862 246.60000000000036,158.346" fill="" stroke="#000000" stroke-width="0.65" />
<polyline points="240.60000000000036,96.7855 240.60000000000036,125.846" fill="" stroke="#000000" stroke-width="0.65" />
<polyline points="240.60000000000036,74.2855 240.60000000000036,90.8465" fill="" stroke="#000000" stroke-width="0.65" />
<polyline points="207.79999999999927,219.286 207.79999999999927,239.596" fill="" stroke="#000000" stroke-width="0.65" />
<polyline points="213.79999999999927,193.862 213.79999999999927,158.346" fill="" stroke="#000000" stroke-width="0.65" />
<polyline points="175.10000000000036,224.286 175.10000000000036,239.596" fill="" stroke="#000000" stroke-width="0.65" />
<polyline points="142.29999999999927,224.286 142.29999999999927,239.596" fill="" stroke="#000000" stroke-width="0.65" />
<polyline points="148.20000000000073,194.907 148.20000000000073,158.346" fill="" stroke="#000000" stroke-width="0.65" />
<polyline points="142.29999999999927,79.2855 142.29999999999927,125.846" fill="" stroke="#000000" stroke-width="0.65" />
<polyline points="142.29999999999927,56.7855 142.29999999999927,78.3465" fill="" stroke="#000000" stroke-width="0.65" />
<polyline points="109.5,226.786 109.5,240.846" fill="" stroke="#000000" stroke-width="0.65" />
<polyline points="115.39999999999964,194.907 115.39999999999964,158.346" fill="" stroke="#000000" stroke-width="0.65" />
<polyline points="109.5,84.2855 109.5,124.596" fill="" stroke="#000000" stroke-width="0.65" />
<polyline points="109.5,61.7855 109.5,78.3465" fill="" stroke="#000000" stroke-width="0.65" />
<polyline points="76.70000000000073,216.786 76.70000000000073,239.18" fill="" stroke="#000000" stroke-width="0.65" />
<polyline points="82.60000000000036,194.907 82.60000000000036,158.346" fill="" stroke="#000000" stroke-width="0.65" />
<polyline points="76.70000000000073,84.2855 76.70000000000073,124.596" fill="" stroke="#000000" stroke-width="0.65" />
<polyline points="76.70000000000073,61.7855 76.70000000000073,78.3465" fill="" stroke="#000000" stroke-width="0.65" />
<polyline points="43.899999999999636,216.786 43.899999999999636,237.513" fill="" stroke="#000000" stroke-width="0.65" />
<polyline points="43.899999999999636,84.2855 43.899999999999636,124.596" fill="" stroke="#000000" stroke-width="0.65" />
<polyline points="43.899999999999636,61.7855 43.899999999999636,78.3465" fill="" stroke="#000000" stroke-width="0.65" />
<polyline points="11.100000000000364,219.286 11.100000000000364,235.846" fill="" stroke="#000000" stroke-width="0.65" />
<polyline points="17.100000000000364,194.907 17.100000000000364,158.346" fill="" stroke="#000000" stroke-width="0.65" />
<polyline points="11.100000000000364,84.2855 11.100000000000364,124.596" fill="" stroke="#000000" stroke-width="0.65" />
<polyline points="11.100000000000364,61.7855 11.100000000000364,78.3465" fill="" stroke="#000000" stroke-width="0.65" />
<polyline points="238.79999999999927,193.346 248.39999999999964,193.346" fill="" stroke="#000000" stroke-width="0.80" />
<polyline points="238.79999999999927,95.8465 248.39999999999964,95.8465" fill="" stroke="#000000" stroke-width="0.80" />
<polyline points="238.79999999999927,100.846 248.39999999999964,100.846" fill="" stroke="#000000" stroke-width="0.80" />
<polyline points="238.79999999999927,105.846 248.39999999999964,105.846" fill="" stroke="#000000" stroke-width="0.80" />
<polyline points="238.79999999999927,110.846 248.39999999999964,110.846" fill="" stroke="#000000" stroke-width="0.80" />
<polyline points="206.0,193.346 215.60000000000036,193.346" fill="" stroke="#000000" stroke-width="0.80" />
<polyline points="140.39999999999964,193.346 150.0,193.346" fill="" stroke="#000000" stroke-width="0.80" />
<polyline points="140.39999999999964,80.8465 150.0,80.8465" fill="" stroke="#000000" stroke-width="0.80" />
<polyline points="140.39999999999964,85.8465 150.0,85.8465" fill="" stroke="#000000" stroke-width="0.80" />
<polyline points="140.39999999999964,90.8465 150.0,90.8465" fill="" stroke="#000000" stroke-width="0.80" />
<polyline points="140.39999999999964,95.8465 150.0,95.8465" fill="" stroke="#000000" stroke-width="0.80" />
<polyline points="140.39999999999964,100.846 150.0,100.846" fill="" stroke="#000000" stroke-width="0.80" />
<polyline points="140.39999999999964,105.846 150.0,105.846" fill="" stroke="#000000" stroke-width="0.80" />
<polyline points="140.39999999999964,110.846 150.0,110.846" fill="" stroke="#000000" stroke-width="0.80" />
<polyline points="140.39999999999964,58.3465 150.0,58.3465" fill="" stroke="#000000" stroke-width="0.80" />
<polyline points="107.70000000000073,193.346 117.20000000000073,193.346" fill="" stroke="#000000" stroke-width="0.80" />
<polyline points="101.70000000000073,85.8465 117.20000000000073,85.8465" fill="" stroke="#000000" stroke-width="0.80" />
<polyline points="101.70000000000073,90.8465 117.20000000000073,90.8465" fill="" stroke="#000000" stroke-width="0.80" />
<polyline points="101.70000000000073,95.8465 117.20000000000073,95.8465" fill="" stroke="#000000" stroke-width="0.80" />
<polyline points="101.70000000000073,100.846 117.20000000000073,100.846" fill="" stroke="#000000" stroke-width="0.80" />
<polyline points="101.70000000000073,105.846 117.20000000000073,105.846" fill="" stroke="#000000" stroke-width="0.80" />
<polyline points="101.70000000000073,110.846 117.20000000000073,110.846" fill="" stroke="#000000" stroke-width="0.80" />
<polyline points="74.89999999999964,215.846 84.5,215.846" fill="" stroke="#000000" stroke-width="0.80" />
<polyline points="74.89999999999964,193.346 84.5,193.346" fill="" stroke="#000000" stroke-width="0.80" />
<polyline points="68.89999999999964,85.8465 84.5,85.8465" fill="" stroke="#000000" stroke-width="0.80" />
<polyline points="68.89999999999964,90.8465 84.5,90.8465" fill="" stroke="#000000" stroke-width="0.80" />
<polyline points="68.89999999999964,95.8465 84.5,95.8465" fill="" stroke="#000000" stroke-width="0.80" />
<polyline points="68.89999999999964,100.846 84.5,100.846" fill="" stroke="#000000" stroke-width="0.80" />
<polyline points="68.89999999999964,105.846 84.5,105.846" fill="" stroke="#000000" stroke-width="0.80" />
<polyline points="68.89999999999964,110.846 84.5,110.846" fill="" stroke="#000000" stroke-width="0.80" />
<polyline points="42.100000000000364,215.846 51.70000000000073,215.846" fill="" stroke="#000000" stroke-width="0.80" />
<polyline points="36.20000000000073,85.8465 51.70000000000073,85.8465" fill="" stroke="#000000" stroke-width="0.80" />
<polyline points="36.20000000000073,90.8465 51.70000000000073,90.8465" fill="" stroke="#000000" stroke-width="0.80" />
<polyline points="36.20000000000073,95.8465 51.70000000000073,95.8465" fill="" stroke="#000000" stroke-width="0.80" />
<polyline points="36.20000000000073,100.846 51.70000000000073,100.846" fill="" stroke="#000000" stroke-width="0.80" />
<polyline points="36.20000000000073,105.846 51.70000000000073,105.846" fill="" stroke="#000000" stroke-width="0.80" />
<polyline points="36.20000000000073,110.846 51.70000000000073,110.846" fill="" stroke="#000000" stroke-width="0.80" />
<polyline points="9.299999999999272,193.346 18.899999999999636,193.346" fill="" stroke="#000000" stroke-width="0.80" />
<polyline points="3.399999999999636,85.8465 18.899999999999636,85.8465" fill="" stroke="#000000" stroke-width="0.80" />
<polyline points="3.399999999999636,90.8465 18.899999999999636,90.8465" fill="" stroke="#000000" stroke-width="0.80" />
<polyline points="3.399999999999636,95.8465 18.899999999999636,95.8465" fill="" stroke="#000000" stroke-width="0.80" />
<polyline points="3.399999999999636,100.846 18.899999999999636,100.846" fill="" stroke="#000000" stroke-width="0.80" />
<polyline points="3.399999999999636,105.846 18.899999999999636,105.846" fill="" stroke="#000000" stroke-width="0.80" />
<polyline points="3.399999999999636,110.846 18.899999999999636,110.846" fill="" stroke="#000000" stroke-width="0.80" />
<polyline points="0.0,63.0002 9.600000000000364,63.0002" fill="" stroke="#000000" stroke-width="0.75" />
</svg>
