<?xml version="1.0" encoding="UTF-8" standalone="yes"?>
<svg width="256.0px" height="256.0px" xmlns="http://www.w3.org/2000/svg" xmlns:xlink="http://www.w3.org/1999/xlink" version="1.2" baseProfile="tiny">
<polyline points="0.0,17.346000000000004 255.0,17.346000000000004" fill="none" stroke="#000000" stroke-width="0.40" />
<polyline points="0.0,22.346000000000004 255.0,22.346000000000004" fill="none" stroke="#000000" stroke-width="0.40" />
<polyline points="0.0,27.346000000000004 255.0,27.346000000000004" fill="none" stroke="#000000" stroke-width="0.40" />
<polyline points="0.0,32.346000000000004 255.0,32.346000000000004" fill="none" stroke="#000000" stroke-width="0.40" />
<polyline points="0.0,37.346000000000004 255.0,37.346000000000004" fill="none" stroke="#000000" stroke-width="0.40" />
<polyline points="0.0,112.346 255.0,112.346" fill="none" stroke="#000000" stroke-width="0.40" />
<polyline points="0.0,117.346 255.0,117.346" fill="none" stroke="#000000" stroke-width="0.40" />
<polyline points="0.0,122.346 255.0,122.346" fill="none" stroke="#000000" stroke-width="0.40" />
<polyline points="0.0,127.346 255.0,127.346" fill="none" stroke="#000000" stroke-width="0.40" />
<polyline points="0.0,132.346 255.0,132.346" fill="none" stroke="#000000" stroke-width="0.40" />
<polyline points="0.0,164.846 255.0,164.846" fill="none" stroke="#000000" stroke-width="0.40" />
<polyline points="0.0,169.846 255.0,169.846" fill="none" stroke="#000000" stroke-width="0.40" />
<polyline points="0.0,174.846 255.0,174.846" fill="none" stroke="#000000" stroke-width="0.40" />
<polyline points="0.0,179.846 255.0,179.846" fill="none" stroke="#000000" stroke-width="0.40" />
<polyline points="0.0,184.846 255.0,184.846" fill="none" stroke="#000000" stroke-width="0.40" />
<polyline points="0.0,217.346 255.0,217.346" fill="none" stroke="#000000" stroke-width="0.40" />
<polyline points="0.0,222.346 255.0,222.346" fill="none" stroke="#000000" stroke-width="0.40" />
<polyline points="0.0,227.346 255.0,227.346" fill="none" stroke="#000000" stroke-width="0.40" />
<polyline points="0.0,232.346 255.0,232.346" fill="none" stroke="#000000" stroke-width="0.40" />
<polyline points="0.0,237.346 255.0,237.346" fill="none" stroke="#000000" stroke-width="0.40" />
<polyline points="152.0,141.471 145.60000000000036,145.471" fill="" stroke="#000000" stroke-width="0.65" />
<polyline points="155.70000000000073,118.971 149.29999999999927,122.971" fill="" stroke="#000000" stroke-width="0.65" />
<polyline points="252.70000000000073,241.40699999999998 252.70000000000073,212.346" fill="" stroke="#000000" stroke-width="0.65" />
<polyline points="225.10000000000036,243.90699999999998 225.10000000000036,207.346" fill="" stroke="#000000" stroke-width="0.65" />
<polyline points="219.10000000000036,138.286 219.10000000000036,174.846" fill="" stroke="#000000" stroke-width="0.65" />
<polyline points="219.10000000000036,115.786 219.10000000000036,137.971" fill="" stroke="#000000" stroke-width="0.65" />
<polyline points="207.79999999999927,243.90699999999998 207.79999999999927,207.346" fill="" stroke="#000000" stroke-width="0.65" />
<polyline points="201.89999999999964,135.786 201.89999999999964,173.596" fill="" stroke="#000000" stroke-width="0.65" />
<polyline points="201.89999999999964,113.286 201.89999999999964,137.346" fill="" stroke="#000000" stroke-width="0.65" />
<polyline points="190.5,243.90699999999998 190.5,207.346" fill="" stroke="#000000" stroke-width="0.65" />
<polyline points="184.60000000000036,138.286 184.60000000000036,174.077" fill="" stroke="#000000" stroke-width="0.65" />
<polyline points="184.60000000000036,115.786 184.60000000000036,139.26999999999998" fill="" stroke="#000000" stroke-width="0.65" />
<polyline points="148.0,151.68900000000002 148.0,137.471" fill="" stroke="#000000" stroke-width="0.65" />
<polyline points="157.0,150.786 157.0,174.846" fill="" stroke="#000000" stroke-width="0.65" />
<polyline points="151.70000000000073,129.18900000000002 151.70000000000073,114.971" fill="" stroke="#000000" stroke-width="0.65" />
<polyline points="157.0,128.286 157.0,142.346" fill="" stroke="#000000" stroke-width="0.65" />
<polyline points="131.29999999999927,138.286 131.29999999999927,173.596" fill="" stroke="#000000" stroke-width="0.65" />
<polyline points="131.29999999999927,115.786 131.29999999999927,132.346" fill="" stroke="#000000" stroke-width="0.65" />
<polyline points="96.79999999999927,135.786 96.79999999999927,174.43" fill="" stroke="#000000" stroke-width="0.65" />
<polyline points="96.79999999999927,113.286 96.79999999999927,134.846" fill="" stroke="#000000" stroke-width="0.65" />
<polyline points="79.5,138.286 79.5,174.846" fill="" stroke="#000000" stroke-width="0.65" />
<polyline points="79.5,115.786 79.5,136.096" fill="" stroke="#000000" stroke-width="0.65" />
<polyline points="30.299999999999272,241.57799999999997 30.299999999999272,209.846" fill="" stroke="#000000" stroke-width="0.65" />
<polyline points="237.89999999999964,16.910000000000025 237.89999999999964,46.096000000000004" fill="" stroke="#000000" stroke-width="0.65" />
<polyline points="204.5,16.910000000000025 204.5,48.18000000000001" fill="" stroke="#000000" stroke-width="0.65" />
<polyline points="171.10000000000036,16.910000000000025 171.10000000000036,50.26299999999998" fill="" stroke="#000000" stroke-width="0.65" />
<polyline points="137.70000000000073,16.910000000000025 137.70000000000073,52.346000000000004" fill="" stroke="#000000" stroke-width="0.65" />
<polyline points="121.0,25.786 121.0,41.096000000000004" fill="" stroke="#000000" stroke-width="0.65" />
<polyline points="104.39999999999964,16.910000000000025 104.39999999999964,41.096000000000004" fill="" stroke="#000000" stroke-width="0.65" />
<polyline points="77.60000000000036,16.910000000000025 77.60000000000036,41.096000000000004" fill="" stroke="#000000" stroke-width="0.65" />
<polyline points="50.899999999999636,16.910000000000025 50.899999999999636,49.846000000000004" fill="" stroke="#000000" stroke-width="0.65" />
<polyline points="24.200000000000728,16.910000000000025 24.200000000000728,49.846000000000004" fill="" stroke="#000000" stroke-width="0.65" />
<polyline points="244.89999999999964,242.346 254.5,242.346" fill="" stroke="#000000" stroke-width="0.80" />
<polyline points="217.29999999999927,242.346 226.89999999999964,242.346" fill="" stroke="#000000" stroke-width="0.80" />
<polyline points="217.29999999999927,139.846 226.89999999999964,139.846" fill="" stroke="#000000" stroke-width="0.80" />
<polyline points="217.29999999999927,144.846 226.89999999999964,144.846" fill="" stroke="#000000" stroke-width="0.80" />
<polyline points="217.29999999999927,149.846 226.89999999999964,149.846" fill="" stroke="#000000" stroke-width="0.80" />
<polyline points="217.29999999999927,154.846 226.89999999999964,154.846" fill="" stroke="#000000" stroke-width="0.80" />
<polyline points="217.29999999999927,159.846 226.89999999999964,159.846" fill="" stroke="#000000" stroke-width="0.80" />
<polyline points="200.0,242.346 209.60000000000036,242.346" fill="" stroke="#000000" stroke-width="0.80" />
<polyline points="200.0,134.846 209.60000000000036,134.846" fill="" stroke="#000000" stroke-width="0.80" />
<polyline points="200.0,139.846 209.60000000000036,139.846" fill="" stroke="#000000" stroke-width="0.80" />
<polyline points="200.0,144.846 209.60000000000036,144.846" fill="" stroke="#000000" stroke-width="0.80" />
<polyline points="200.0,149.846 209.60000000000036,149.846" fill="" stroke="#000000" stroke-width="0.80" />
<polyline points="200.0,154.846 209.60000000000036,154.846" fill="" stroke="#000000" stroke-width="0.80" />
<polyline points="200.0,159.846 209.60000000000036,159.846" fill="" stroke="#000000" stroke-width="0.80" />
<polyline points="182.79999999999927,242.346 192.29999999999927,242.346" fill="" stroke="#000000" stroke-width="0.80" />
<polyline points="182.79999999999927,139.846 192.29999999999927,139.846" fill="" stroke="#000000" stroke-width="0.80" />
<polyline points="182.79999999999927,144.846 192.29999999999927,144.846" fill="" stroke="#000000" stroke-width="0.80" />
<polyline points="182.79999999999927,149.846 192.29999999999927,149.846" fill="" stroke="#000000" stroke-width="0.80" />
<polyline points="182.79999999999927,154.846 192.29999999999927,154.846" fill="" stroke="#000000" stroke-width="0.80" />
<polyline points="182.79999999999927,159.846 192.29999999999927,159.846" fill="" stroke="#000000" stroke-width="0.80" />
<polyline points="142.20000000000073,154.846 149.79999999999927,154.846" fill="" stroke="#000000" stroke-width="0.56" />
<polyline points="142.20000000000073,159.846 149.79999999999927,159.846" fill="" stroke="#000000" stroke-width="0.56" />
<polyline points="155.10000000000036,149.846 164.70000000000073,149.846" fill="" stroke="#000000" stroke-width="0.80" />
<polyline points="155.10000000000036,154.846 164.70000000000073,154.846" fill="" stroke="#000000" stroke-width="0.80" />
<polyline points="155.10000000000036,159.846 164.70000000000073,159.846" fill="" stroke="#000000" stroke-width="0.80" />
<polyline points="129.5,139.846 139.10000000000036,139.846" fill="" stroke="#000000" stroke-width="0.80" />
<polyline points="129.5,144.846 139.10000000000036,144.846" fill="" stroke="#000000" stroke-width="0.80" />
<polyline points="129.5,149.846 139.10000000000036,149.846" fill="" stroke="#000000" stroke-width="0.80" />
<polyline points="129.5,154.846 139.10000000000036,154.846" fill="" stroke="#000000" stroke-width="0.80" />
<polyline points="129.5,159.846 139.10000000000036,159.846" fill="" stroke="#000000" stroke-width="0.80" />
<polyline points="94.89999999999964,134.846 104.5,134.846" fill="" stroke="#000000" stroke-width="0.80" />
<polyline points="94.89999999999964,139.846 104.5,139.846" fill="" stroke="#000000" stroke-width="0.80" />
<polyline points="94.89999999999964,144.846 104.5,144.846" fill="" stroke="#000000" stroke-width="0.80" />
<polyline points="94.89999999999964,149.846 104.5,149.846" fill="" stroke="#000000" stroke-width="0.80" />
<polyline points="94.89999999999964,154.846 104.5,154.846" fill="" stroke="#000000" stroke-width="0.80" />
<polyline points="94.89999999999964,159.846 104.5,159.846" fill="" stroke="#000000" stroke-width="0.80" />
<polyline points="77.70000000000073,139.846 87.29999999999927,139.846" fill="" stroke="#000000" stroke-width="0.80" />
<polyline points="77.70000000000073,144.846 87.29999999999927,144.846" fill="" stroke="#000000" stroke-width="0.80" />
<polyline points="77.70000000000073,149.846 87.29999999999927,149.846" fill="" stroke="#000000" stroke-width="0.80" />
<polyline points="77.70000000000073,154.846 87.29999999999927,154.846" fill="" stroke="#000000" stroke-width="0.80" />
<polyline points="77.70000000000073,159.846 87.29999999999927,159.846" fill="" stroke="#000000" stroke-width="0.80" />
<polyline points="22.200000000000728,242.346 32.20000000000073,242.346" fill="" stroke="#000000" stroke-width="0.80" />
<polyline points="209.39999999999964,113.00400000000002 217.60000000000036,113.00400000000002" fill="" stroke="#000000" stroke-width="0.75" />
<polyline points="192.10000000000036,114.18900000000002 200.39999999999964,114.18900000000002" fill="" stroke="#000000" stroke-width="0.75" />
</svg>
