<?xml version="1.0" encoding="UTF-8" standalone="yes"?>
<svg width="256.0px" height="256.0px" xmlns="http://www.w3.org/2000/svg" xmlns:xlink="http://www.w3.org/1999/xlink" version="1.2" baseProfile="tiny">
<polyline points="0.0,63.3465 138.20000000000005,63.3465" fill="none" stroke="#000000" stroke-width="0.40" />
<polyline points="0.0,68.3465 138.20000000000005,68.3465" fill="none" stroke="#000000" stroke-width="0.40" />
<polyline points="0.0,73.3465 138.20000000000005,73.3465" fill="none" stroke="#000000" stroke-width="0.40" />
<polyline points="0.0,78.3465 138.20000000000005,78.3465" fill="none" stroke="#000000" stroke-width="0.40" />
<polyline points="0.0,83.3465 138.20000000000005,83.3465" fill="none" stroke="#000000" stroke-width="0.40" />
<polyline points="0.0,115.846 138.20000000000005,115.846" fill="none" stroke="#000000" stroke-width="0.40" />
<polyline points="0.0,120.846 138.20000000000005,120.846" fill="none" stroke="#000000" stroke-width="0.40" />
<polyline points="0.0,125.846 138.20000000000005,125.846" fill="none" stroke="#000000" stroke-width="0.40" />
<polyline points="0.0,130.846 138.20000000000005,130.846" fill="none" stroke="#000000" stroke-width="0.40" />
<polyline points="0.0,135.846 138.20000000000005,135.846" fill="none" stroke="#000000" stroke-width="0.40" />
<polyline points="0.0,168.346 138.20000000000005,168.346" fill="none" stroke="#000000" stroke-width="0.40" />
<polyline points="0.0,173.346 138.20000000000005,173.346" fill="none" stroke="#000000" stroke-width="0.40" />
<polyline points="0.0,178.346 138.20000000000005,178.346" fill="none" stroke="#000000" stroke-width="0.40" />
<polyline points="0.0,183.346 138.20000000000005,183.346" fill="none" stroke="#000000" stroke-width="0.40" />
<polyline points="0.0,188.346 138.20000000000005,188.346" fill="none" stroke="#000000" stroke-width="0.40" />
<polyline points="0.0,220.846 138.20000000000005,220.846" fill="none" stroke="#000000" stroke-width="0.40" />
<polyline points="0.0,225.846 138.20000000000005,225.846" fill="none" stroke="#000000" stroke-width="0.40" />
<polyline points="0.0,230.846 138.20000000000005,230.846" fill="none" stroke="#000000" stroke-width="0.40" />
<polyline points="0.0,235.846 138.20000000000005,235.846" fill="none" stroke="#000000" stroke-width="0.40" />
<polyline points="0.0,240.846 138.20000000000005,240.846" fill="none" stroke="#000000" stroke-width="0.40" />
<polyline points="137.79999999999995,220.846 137.79999999999995,240.846" fill="" stroke="#000000" stroke-width="0.80" />
<polyline points="137.79999999999995,168.346 137.79999999999995,188.346" fill="" stroke="#000000" stroke-width="0.80" />
<polyline points="137.79999999999995,115.846 137.79999999999995,135.846" fill="" stroke="#000000" stroke-width="0.80" />
<polyline points="137.79999999999995,63.3465 137.79999999999995,83.3465" fill="" stroke="#000000" stroke-width="0.80" />
<polyline points="118.93000000000006,161.786 118.93000000000006,212.096" fill="" stroke="#000000" stroke-width="0.65" />
<polyline points="106.05999999999995,234.907 106.05999999999995,219.596" fill="" stroke="#000000" stroke-width="0.65" />
<polyline points="100.13000000000011,161.786 100.13000000000011,212.096" fill="" stroke="#000000" stroke-width="0.65" />
<polyline points="100.13000000000011,86.7855 100.13000000000011,124.596" fill="" stroke="#000000" stroke-width="0.65" />
<polyline points="100.13000000000011,64.2855 100.13000000000011,78.3465" fill="" stroke="#000000" stroke-width="0.65" />
<polyline points="80.22000000000003,234.907 80.22000000000003,221.288" fill="" stroke="#000000" stroke-width="0.65" />
<polyline points="74.27999999999997,161.786 74.27999999999997,212.096" fill="" stroke="#000000" stroke-width="0.65" />
<polyline points="74.27999999999997,89.2855 74.27999999999997,125.846" fill="" stroke="#000000" stroke-width="0.65" />
<polyline points="74.27999999999997,66.7855 74.27999999999997,79.5965" fill="" stroke="#000000" stroke-width="0.65" />
<polyline points="54.36999999999989,239.907 54.36999999999989,222.979" fill="" stroke="#000000" stroke-width="0.65" />
<polyline points="48.440000000000055,161.786 48.440000000000055,209.596" fill="" stroke="#000000" stroke-width="0.65" />
<polyline points="48.440000000000055,94.2855 48.440000000000055,129.596" fill="" stroke="#000000" stroke-width="0.65" />
<polyline points="48.440000000000055,71.7855 48.440000000000055,92.0965" fill="" stroke="#000000" stroke-width="0.65" />
<polyline points="33.09999999999991,90.4105 33.09999999999991,129.596" fill="" stroke="#000000" stroke-width="0.65" />
<polyline points="33.09999999999991,67.9105 33.09999999999991,92.0965" fill="" stroke="#000000" stroke-width="0.65" />
<polyline points="10.549999999999955,242.407 10.549999999999955,225.846" fill="" stroke="#000000" stroke-width="0.65" />
<polyline points="4.619999999999891,161.786 4.619999999999891,209.596" fill="" stroke="#000000" stroke-width="0.65" />
<polyline points="4.619999999999891,86.7855 4.619999999999891,129.596" fill="" stroke="#000000" stroke-width="0.65" />
<polyline points="4.619999999999891,64.2855 4.619999999999891,92.0965" fill="" stroke="#000000" stroke-width="0.65" />
<polyline points="117.1099999999999,193.346 126.69000000000005,193.346" fill="" stroke="#000000" stroke-width="0.80" />
<polyline points="117.1099999999999,163.346 126.69000000000005,163.346" fill="" stroke="#000000" stroke-width="0.80" />
<polyline points="98.30999999999995,193.346 107.8900000000001,193.346" fill="" stroke="#000000" stroke-width="0.80" />
<polyline points="98.30999999999995,163.346 107.8900000000001,163.346" fill="" stroke="#000000" stroke-width="0.80" />
<polyline points="98.30999999999995,85.8465 107.8900000000001,85.8465" fill="" stroke="#000000" stroke-width="0.80" />
<polyline points="98.30999999999995,90.8465 107.8900000000001,90.8465" fill="" stroke="#000000" stroke-width="0.80" />
<polyline points="98.30999999999995,95.8465 107.8900000000001,95.8465" fill="" stroke="#000000" stroke-width="0.80" />
<polyline points="98.30999999999995,100.846 107.8900000000001,100.846" fill="" stroke="#000000" stroke-width="0.80" />
<polyline points="98.30999999999995,105.846 107.8900000000001,105.846" fill="" stroke="#000000" stroke-width="0.80" />
<polyline points="98.30999999999995,110.846 107.8900000000001,110.846" fill="" stroke="#000000" stroke-width="0.80" />
<polyline points="72.46000000000004,193.346 82.03999999999996,193.346" fill="" stroke="#000000" stroke-width="0.80" />
<polyline points="72.46000000000004,163.346 82.03999999999996,163.346" fill="" stroke="#000000" stroke-width="0.80" />
<polyline points="72.46000000000004,90.8465 82.03999999999996,90.8465" fill="" stroke="#000000" stroke-width="0.80" />
<polyline points="72.46000000000004,95.8465 82.03999999999996,95.8465" fill="" stroke="#000000" stroke-width="0.80" />
<polyline points="72.46000000000004,100.846 82.03999999999996,100.846" fill="" stroke="#000000" stroke-width="0.80" />
<polyline points="72.46000000000004,105.846 82.03999999999996,105.846" fill="" stroke="#000000" stroke-width="0.80" />
<polyline points="72.46000000000004,110.846 82.03999999999996,110.846" fill="" stroke="#000000" stroke-width="0.80" />
<polyline points="46.6099999999999,193.346 56.190000000000055,193.346" fill="" stroke="#000000" stroke-width="0.80" />
<polyline points="46.6099999999999,163.346 56.190000000000055,163.346" fill="" stroke="#000000" stroke-width="0.80" />
<polyline points="46.6099999999999,95.8465 56.190000000000055,95.8465" fill="" stroke="#000000" stroke-width="0.80" />
<polyline points="46.6099999999999,100.846 56.190000000000055,100.846" fill="" stroke="#000000" stroke-width="0.80" />
<polyline points="46.6099999999999,105.846 56.190000000000055,105.846" fill="" stroke="#000000" stroke-width="0.80" />
<polyline points="46.6099999999999,110.846 56.190000000000055,110.846" fill="" stroke="#000000" stroke-width="0.80" />
<polyline points="31.279999999999973,90.8465 40.8599999999999,90.8465" fill="" stroke="#000000" stroke-width="0.80" />
<polyline points="31.279999999999973,95.8465 40.8599999999999,95.8465" fill="" stroke="#000000" stroke-width="0.80" />
<polyline points="31.279999999999973,100.846 40.8599999999999,100.846" fill="" stroke="#000000" stroke-width="0.80" />
<polyline points="31.279999999999973,105.846 40.8599999999999,105.846" fill="" stroke="#000000" stroke-width="0.80" />
<polyline points="31.279999999999973,110.846 40.8599999999999,110.846" fill="" stroke="#000000" stroke-width="0.80" />
<polyline points="2.7899999999999636,193.346 12.38000000000011,193.346" fill="" stroke="#000000" stroke-width="0.80" />
<polyline points="2.7899999999999636,163.346 12.38000000000011,163.346" fill="" stroke="#000000" stroke-width="0.80" />
<polyline points="2.7899999999999636,85.8465 12.38000000000011,85.8465" fill="" stroke="#000000" stroke-width="0.80" />
<polyline points="2.7899999999999636,90.8465 12.38000000000011,90.8465" fill="" stroke="#000000" stroke-width="0.80" />
<polyline points="2.7899999999999636,95.8465 12.38000000000011,95.8465" fill="" stroke="#000000" stroke-width="0.80" />
<polyline points="2.7899999999999636,100.846 12.38000000000011,100.846" fill="" stroke="#000000" stroke-width="0.80" />
<polyline points="2.7899999999999636,105.846 12.38000000000011,105.846" fill="" stroke="#000000" stroke-width="0.80" />
<polyline points="2.7899999999999636,110.846 12.38000000000011,110.846" fill="" stroke="#000000" stroke-width="0.80" />
<polyline points="40.6099999999999,67.3274 47.180000000000064,67.3274" fill="" stroke="#000000" stroke-width="0.75" />
<polyline points="16.1400000000001,64.0975 26.029999999999973,64.0975" fill="" stroke="#000000" stroke-width="0.75" />
<polyline points="194.9000000000001,63.3465 255.0,63.3465" fill="none" stroke="#000000" stroke-width="0.40" />
<polyline points="194.9000000000001,68.3465 255.0,68.3465" fill="none" stroke="#000000" stroke-width="0.40" />
<polyline points="194.9000000000001,73.3465 255.0,73.3465" fill="none" stroke="#000000" stroke-width="0.40" />
<polyline points="194.9000000000001,78.3465 255.0,78.3465" fill="none" stroke="#000000" stroke-width="0.40" />
<polyline points="194.9000000000001,83.3465 255.0,83.3465" fill="none" stroke="#000000" stroke-width="0.40" />
<polyline points="194.9000000000001,115.846 255.0,115.846" fill="none" stroke="#000000" stroke-width="0.40" />
<polyline points="194.9000000000001,120.846 255.0,120.846" fill="none" stroke="#000000" stroke-width="0.40" />
<polyline points="194.9000000000001,125.846 255.0,125.846" fill="none" stroke="#000000" stroke-width="0.40" />
<polyline points="194.9000000000001,130.846 255.0,130.846" fill="none" stroke="#000000" stroke-width="0.40" />
<polyline points="194.9000000000001,135.846 255.0,135.846" fill="none" stroke="#000000" stroke-width="0.40" />
<polyline points="194.9000000000001,168.346 255.0,168.346" fill="none" stroke="#000000" stroke-width="0.40" />
<polyline points="194.9000000000001,173.346 255.0,173.346" fill="none" stroke="#000000" stroke-width="0.40" />
<polyline points="194.9000000000001,178.346 255.0,178.346" fill="none" stroke="#000000" stroke-width="0.40" />
<polyline points="194.9000000000001,183.346 255.0,183.346" fill="none" stroke="#000000" stroke-width="0.40" />
<polyline points="194.9000000000001,188.346 255.0,188.346" fill="none" stroke="#000000" stroke-width="0.40" />
<polyline points="194.9000000000001,220.846 255.0,220.846" fill="none" stroke="#000000" stroke-width="0.40" />
<polyline points="194.9000000000001,225.846 255.0,225.846" fill="none" stroke="#000000" stroke-width="0.40" />
<polyline points="194.9000000000001,230.846 255.0,230.846" fill="none" stroke="#000000" stroke-width="0.40" />
<polyline points="194.9000000000001,235.846 255.0,235.846" fill="none" stroke="#000000" stroke-width="0.40" />
<polyline points="194.9000000000001,240.846 255.0,240.846" fill="none" stroke="#000000" stroke-width="0.40" />
<polyline points="195.29999999999995,63.3465 195.29999999999995,255.0" fill="" stroke="#000000" stroke-width="0.80" />
<polyline points="242.3900000000001,232.407 242.3900000000001,215.846" fill="" stroke="#000000" stroke-width="0.65" />
<polyline points="242.56999999999994,192.578 242.56999999999994,157.096" fill="" stroke="#000000" stroke-width="0.65" />
<polyline points="236.46000000000004,111.786 236.46000000000004,127.096" fill="" stroke="#000000" stroke-width="0.65" />
<polyline points="242.3900000000001,87.4074 242.3900000000001,68.3465" fill="" stroke="#000000" stroke-width="0.65" />
<polyline points="234.46000000000004,193.346 244.4000000000001,193.346" fill="" stroke="#000000" stroke-width="0.80" />
<polyline points="234.6400000000001,110.846 244.22000000000003,110.846" fill="" stroke="#000000" stroke-width="0.80" />
<polyline points="234.6400000000001,88.3465 244.22000000000003,88.3465" fill="" stroke="#000000" stroke-width="0.80" />
</svg>
