<?xml version="1.0" encoding="UTF-8" standalone="yes"?>
<svg width="256.0px" height="256.0px" xmlns="http://www.w3.org/2000/svg" xmlns:xlink="http://www.w3.org/1999/xlink" version="1.2" baseProfile="tiny">
<polyline points="0.0,13.846000000000004 138.20000000000005,13.846000000000004" fill="none" stroke="#000000" stroke-width="0.40" />
<polyline points="0.0,18.846000000000004 138.20000000000005,18.846000000000004" fill="none" stroke="#000000" stroke-width="0.40" />
<polyline points="0.0,23.846000000000004 138.20000000000005,23.846000000000004" fill="none" stroke="#000000" stroke-width="0.40" />
<polyline points="0.0,28.846000000000004 138.20000000000005,28.846000000000004" fill="none" stroke="#000000" stroke-width="0.40" />
<polyline points="0.0,33.846000000000004 138.20000000000005,33.846000000000004" fill="none" stroke="#000000" stroke-width="0.40" />
<polyline points="0.0,66.346 138.20000000000005,66.346" fill="none" stroke="#000000" stroke-width="0.40" />
<polyline points="0.0,71.346 138.20000000000005,71.346" fill="none" stroke="#000000" stroke-width="0.40" />
<polyline points="0.0,76.346 138.20000000000005,76.346" fill="none" stroke="#000000" stroke-width="0.40" />
<polyline points="0.0,81.346 138.20000000000005,81.346" fill="none" stroke="#000000" stroke-width="0.40" />
<polyline points="0.0,86.346 138.20000000000005,86.346" fill="none" stroke="#000000" stroke-width="0.40" />
<polyline points="137.79999999999995,66.346 137.79999999999995,86.346" fill="" stroke="#000000" stroke-width="0.80" />
<polyline points="137.79999999999995,13.846000000000004 137.79999999999995,33.846000000000004" fill="" stroke="#000000" stroke-width="0.80" />
<polyline points="108.68000000000006,65.90999999999997 108.68000000000006,97.596" fill="" stroke="#000000" stroke-width="0.65" />
<polyline points="114.6099999999999,27.90700000000004 114.6099999999999,12.596000000000004" fill="" stroke="#000000" stroke-width="0.65" />
<polyline points="108.68000000000006,0.0 108.68000000000006,2.5960000000000036" fill="" stroke="#000000" stroke-width="0.65" />
<polyline points="79.63000000000011,65.90999999999997 79.63000000000011,97.596" fill="" stroke="#000000" stroke-width="0.65" />
<polyline points="85.55999999999995,27.90700000000004 85.55999999999995,14.519999999999982" fill="" stroke="#000000" stroke-width="0.65" />
<polyline points="79.63000000000011,0.0 79.63000000000011,2.5960000000000036" fill="" stroke="#000000" stroke-width="0.65" />
<polyline points="50.57999999999993,65.90999999999997 50.57999999999993,97.596" fill="" stroke="#000000" stroke-width="0.65" />
<polyline points="56.50999999999999,32.90700000000004 56.50999999999999,16.442999999999984" fill="" stroke="#000000" stroke-width="0.65" />
<polyline points="50.57999999999993,0.0 50.57999999999993,5.096000000000004" fill="" stroke="#000000" stroke-width="0.65" />
<polyline points="32.42000000000007,0.0 32.42000000000007,5.096000000000004" fill="" stroke="#000000" stroke-width="0.65" />
<polyline points="14.259999999999991,65.90999999999997 14.259999999999991,97.596" fill="" stroke="#000000" stroke-width="0.65" />
<polyline points="20.200000000000045,35.40700000000004 20.200000000000045,18.846000000000004" fill="" stroke="#000000" stroke-width="0.65" />
<polyline points="14.259999999999991,0.0 14.259999999999991,5.096000000000004" fill="" stroke="#000000" stroke-width="0.65" />
<polyline points="194.9000000000001,13.846000000000004 255.0,13.846000000000004" fill="none" stroke="#000000" stroke-width="0.40" />
<polyline points="194.9000000000001,18.846000000000004 255.0,18.846000000000004" fill="none" stroke="#000000" stroke-width="0.40" />
<polyline points="194.9000000000001,23.846000000000004 255.0,23.846000000000004" fill="none" stroke="#000000" stroke-width="0.40" />
<polyline points="194.9000000000001,28.846000000000004 255.0,28.846000000000004" fill="none" stroke="#000000" stroke-width="0.40" />
<polyline points="194.9000000000001,33.846000000000004 255.0,33.846000000000004" fill="none" stroke="#000000" stroke-width="0.40" />
<polyline points="194.9000000000001,66.346 255.0,66.346" fill="none" stroke="#000000" stroke-width="0.40" />
<polyline points="194.9000000000001,71.346 255.0,71.346" fill="none" stroke="#000000" stroke-width="0.40" />
<polyline points="194.9000000000001,76.346 255.0,76.346" fill="none" stroke="#000000" stroke-width="0.40" />
<polyline points="194.9000000000001,81.346 255.0,81.346" fill="none" stroke="#000000" stroke-width="0.40" />
<polyline points="194.9000000000001,86.346 255.0,86.346" fill="none" stroke="#000000" stroke-width="0.40" />
<polyline points="195.29999999999995,0.0 195.29999999999995,86.346" fill="" stroke="#000000" stroke-width="0.80" />
<polyline points="252.23000000000002,65.90999999999997 252.23000000000002,95.28899999999999" fill="" stroke="#000000" stroke-width="0.65" />
<polyline points="227.3699999999999,65.90999999999997 227.3699999999999,97.596" fill="" stroke="#000000" stroke-width="0.65" />
<polyline points="233.30999999999995,25.40700000000004 233.30999999999995,10.096000000000004" fill="" stroke="#000000" stroke-width="0.65" />
</svg>
