<?xml version="1.0" encoding="UTF-8" standalone="yes"?>
<svg width="256.0px" height="256.0px" xmlns="http://www.w3.org/2000/svg" xmlns:xlink="http://www.w3.org/1999/xlink" version="1.2" baseProfile="tiny">
<polyline points="0.0,17.346000000000004 255.0,17.346000000000004" fill="none" stroke="#000000" stroke-width="0.40" />
<polyline points="0.0,22.346000000000004 255.0,22.346000000000004" fill="none" stroke="#000000" stroke-width="0.40" />
<polyline points="0.0,27.346000000000004 255.0,27.346000000000004" fill="none" stroke="#000000" stroke-width="0.40" />
<polyline points="0.0,32.346000000000004 255.0,32.346000000000004" fill="none" stroke="#000000" stroke-width="0.40" />
<polyline points="0.0,37.346000000000004 255.0,37.346000000000004" fill="none" stroke="#000000" stroke-width="0.40" />
<polyline points="0.0,112.346 255.0,112.346" fill="none" stroke="#000000" stroke-width="0.40" />
<polyline points="0.0,117.346 255.0,117.346" fill="none" stroke="#000000" stroke-width="0.40" />
<polyline points="0.0,122.346 255.0,122.346" fill="none" stroke="#000000" stroke-width="0.40" />
<polyline points="0.0,127.346 255.0,127.346" fill="none" stroke="#000000" stroke-width="0.40" />
<polyline points="0.0,132.346 255.0,132.346" fill="none" stroke="#000000" stroke-width="0.40" />
<polyline points="0.0,164.846 255.0,164.846" fill="none" stroke="#000000" stroke-width="0.40" />
<polyline points="0.0,169.846 255.0,169.846" fill="none" stroke="#000000" stroke-width="0.40" />
<polyline points="0.0,174.846 255.0,174.846" fill="none" stroke="#000000" stroke-width="0.40" />
<polyline points="0.0,179.846 255.0,179.846" fill="none" stroke="#000000" stroke-width="0.40" />
<polyline points="0.0,184.846 255.0,184.846" fill="none" stroke="#000000" stroke-width="0.40" />
<polyline points="0.0,217.346 255.0,217.346" fill="none" stroke="#000000" stroke-width="0.40" />
<polyline points="0.0,222.346 255.0,222.346" fill="none" stroke="#000000" stroke-width="0.40" />
<polyline points="0.0,227.346 255.0,227.346" fill="none" stroke="#000000" stroke-width="0.40" />
<polyline points="0.0,232.346 255.0,232.346" fill="none" stroke="#000000" stroke-width="0.40" />
<polyline points="0.0,237.346 255.0,237.346" fill="none" stroke="#000000" stroke-width="0.40" />
<polyline points="238.0,243.90699999999998 238.0,207.346" fill="" stroke="#000000" stroke-width="0.65" />
<polyline points="232.10000000000036,146.91000000000003 232.10000000000036,174.846" fill="" stroke="#000000" stroke-width="0.65" />
<polyline points="232.10000000000036,124.41000000000003 232.10000000000036,146.096" fill="" stroke="#000000" stroke-width="0.65" />
<polyline points="175.70000000000073,243.90699999999998 175.70000000000073,207.346" fill="" stroke="#000000" stroke-width="0.65" />
<polyline points="169.79999999999927,128.286 169.79999999999927,173.596" fill="" stroke="#000000" stroke-width="0.65" />
<polyline points="169.79999999999927,105.786 169.79999999999927,127.346" fill="" stroke="#000000" stroke-width="0.65" />
<polyline points="144.60000000000036,243.90699999999998 144.60000000000036,207.346" fill="" stroke="#000000" stroke-width="0.65" />
<polyline points="138.70000000000073,133.286 138.70000000000073,173.596" fill="" stroke="#000000" stroke-width="0.65" />
<polyline points="138.70000000000073,110.786 138.70000000000073,127.346" fill="" stroke="#000000" stroke-width="0.65" />
<polyline points="113.39999999999964,243.90699999999998 113.39999999999964,207.346" fill="" stroke="#000000" stroke-width="0.65" />
<polyline points="107.5,133.286 107.5,173.596" fill="" stroke="#000000" stroke-width="0.65" />
<polyline points="107.5,110.786 107.5,127.346" fill="" stroke="#000000" stroke-width="0.65" />
<polyline points="82.29999999999927,241.40699999999998 82.29999999999927,208.596" fill="" stroke="#000000" stroke-width="0.65" />
<polyline points="76.39999999999964,135.786 76.39999999999964,173.596" fill="" stroke="#000000" stroke-width="0.65" />
<polyline points="76.39999999999964,113.286 76.39999999999964,131.096" fill="" stroke="#000000" stroke-width="0.65" />
<polyline points="51.20000000000073,241.40699999999998 51.20000000000073,208.596" fill="" stroke="#000000" stroke-width="0.65" />
<polyline points="45.20000000000073,135.786 45.20000000000073,173.596" fill="" stroke="#000000" stroke-width="0.65" />
<polyline points="45.20000000000073,113.286 45.20000000000073,131.096" fill="" stroke="#000000" stroke-width="0.65" />
<polyline points="14.100000000000364,135.786 14.100000000000364,173.596" fill="" stroke="#000000" stroke-width="0.65" />
<polyline points="14.100000000000364,113.286 14.100000000000364,131.096" fill="" stroke="#000000" stroke-width="0.65" />
<polyline points="226.70000000000073,16.910000000000025 226.70000000000073,41.096000000000004" fill="" stroke="#000000" stroke-width="0.65" />
<polyline points="161.89999999999964,16.910000000000025 161.89999999999964,49.846000000000004" fill="" stroke="#000000" stroke-width="0.65" />
<polyline points="97.10000000000036,16.910000000000025 97.10000000000036,49.846000000000004" fill="" stroke="#000000" stroke-width="0.65" />
<polyline points="65.10000000000036,25.786 65.10000000000036,41.096000000000004" fill="" stroke="#000000" stroke-width="0.65" />
<polyline points="32.399999999999636,16.910000000000025 32.399999999999636,41.096000000000004" fill="" stroke="#000000" stroke-width="0.65" />
<polyline points="230.29999999999927,242.346 239.89999999999964,242.346" fill="" stroke="#000000" stroke-width="0.80" />
<polyline points="230.29999999999927,144.846 239.89999999999964,144.846" fill="" stroke="#000000" stroke-width="0.80" />
<polyline points="230.29999999999927,149.846 239.89999999999964,149.846" fill="" stroke="#000000" stroke-width="0.80" />
<polyline points="230.29999999999927,154.846 239.89999999999964,154.846" fill="" stroke="#000000" stroke-width="0.80" />
<polyline points="230.29999999999927,159.846 239.89999999999964,159.846" fill="" stroke="#000000" stroke-width="0.80" />
<polyline points="168.0,242.346 177.60000000000036,242.346" fill="" stroke="#000000" stroke-width="0.80" />
<polyline points="168.0,129.846 177.60000000000036,129.846" fill="" stroke="#000000" stroke-width="0.80" />
<polyline points="168.0,134.846 177.60000000000036,134.846" fill="" stroke="#000000" stroke-width="0.80" />
<polyline points="168.0,139.846 177.60000000000036,139.846" fill="" stroke="#000000" stroke-width="0.80" />
<polyline points="168.0,144.846 177.60000000000036,144.846" fill="" stroke="#000000" stroke-width="0.80" />
<polyline points="168.0,149.846 177.60000000000036,149.846" fill="" stroke="#000000" stroke-width="0.80" />
<polyline points="168.0,154.846 177.60000000000036,154.846" fill="" stroke="#000000" stroke-width="0.80" />
<polyline points="168.0,159.846 177.60000000000036,159.846" fill="" stroke="#000000" stroke-width="0.80" />
<polyline points="168.0,107.346 177.60000000000036,107.346" fill="" stroke="#000000" stroke-width="0.80" />
<polyline points="136.79999999999927,242.346 146.39999999999964,242.346" fill="" stroke="#000000" stroke-width="0.80" />
<polyline points="130.89999999999964,134.846 146.39999999999964,134.846" fill="" stroke="#000000" stroke-width="0.80" />
<polyline points="130.89999999999964,139.846 146.39999999999964,139.846" fill="" stroke="#000000" stroke-width="0.80" />
<polyline points="130.89999999999964,144.846 146.39999999999964,144.846" fill="" stroke="#000000" stroke-width="0.80" />
<polyline points="130.89999999999964,149.846 146.39999999999964,149.846" fill="" stroke="#000000" stroke-width="0.80" />
<polyline points="130.89999999999964,154.846 146.39999999999964,154.846" fill="" stroke="#000000" stroke-width="0.80" />
<polyline points="130.89999999999964,159.846 146.39999999999964,159.846" fill="" stroke="#000000" stroke-width="0.80" />
<polyline points="105.70000000000073,242.346 115.29999999999927,242.346" fill="" stroke="#000000" stroke-width="0.80" />
<polyline points="99.79999999999927,134.846 115.29999999999927,134.846" fill="" stroke="#000000" stroke-width="0.80" />
<polyline points="99.79999999999927,139.846 115.29999999999927,139.846" fill="" stroke="#000000" stroke-width="0.80" />
<polyline points="99.79999999999927,144.846 115.29999999999927,144.846" fill="" stroke="#000000" stroke-width="0.80" />
<polyline points="99.79999999999927,149.846 115.29999999999927,149.846" fill="" stroke="#000000" stroke-width="0.80" />
<polyline points="99.79999999999927,154.846 115.29999999999927,154.846" fill="" stroke="#000000" stroke-width="0.80" />
<polyline points="99.79999999999927,159.846 115.29999999999927,159.846" fill="" stroke="#000000" stroke-width="0.80" />
<polyline points="74.5,242.346 84.10000000000036,242.346" fill="" stroke="#000000" stroke-width="0.80" />
<polyline points="74.5,134.846 84.10000000000036,134.846" fill="" stroke="#000000" stroke-width="0.80" />
<polyline points="68.60000000000036,139.846 84.10000000000036,139.846" fill="" stroke="#000000" stroke-width="0.80" />
<polyline points="68.60000000000036,144.846 84.10000000000036,144.846" fill="" stroke="#000000" stroke-width="0.80" />
<polyline points="68.60000000000036,149.846 84.10000000000036,149.846" fill="" stroke="#000000" stroke-width="0.80" />
<polyline points="68.60000000000036,154.846 84.10000000000036,154.846" fill="" stroke="#000000" stroke-width="0.80" />
<polyline points="68.60000000000036,159.846 84.10000000000036,159.846" fill="" stroke="#000000" stroke-width="0.80" />
<polyline points="43.399999999999636,242.346 53.0,242.346" fill="" stroke="#000000" stroke-width="0.80" />
<polyline points="43.399999999999636,134.846 53.0,134.846" fill="" stroke="#000000" stroke-width="0.80" />
<polyline points="37.5,139.846 53.0,139.846" fill="" stroke="#000000" stroke-width="0.80" />
<polyline points="37.5,144.846 53.0,144.846" fill="" stroke="#000000" stroke-width="0.80" />
<polyline points="37.5,149.846 53.0,149.846" fill="" stroke="#000000" stroke-width="0.80" />
<polyline points="37.5,154.846 53.0,154.846" fill="" stroke="#000000" stroke-width="0.80" />
<polyline points="37.5,159.846 53.0,159.846" fill="" stroke="#000000" stroke-width="0.80" />
<polyline points="12.200000000000728,134.846 21.799999999999272,134.846" fill="" stroke="#000000" stroke-width="0.80" />
<polyline points="6.299999999999272,139.846 21.799999999999272,139.846" fill="" stroke="#000000" stroke-width="0.80" />
<polyline points="6.299999999999272,144.846 21.799999999999272,144.846" fill="" stroke="#000000" stroke-width="0.80" />
<polyline points="6.299999999999272,149.846 21.799999999999272,149.846" fill="" stroke="#000000" stroke-width="0.80" />
<polyline points="6.299999999999272,154.846 21.799999999999272,154.846" fill="" stroke="#000000" stroke-width="0.80" />
<polyline points="6.299999999999272,159.846 21.799999999999272,159.846" fill="" stroke="#000000" stroke-width="0.80" />
<polyline points="179.60000000000036,106.76799999999997 226.70000000000073,106.76799999999997" fill="" stroke="#000000" stroke-width="0.75" />
<polyline points="146.20000000000073,109.11700000000002 167.0,109.11700000000002" fill="" stroke="#000000" stroke-width="0.75" />
<polyline points="83.89999999999964,111.98200000000003 106.0,111.98200000000003" fill="" stroke="#000000" stroke-width="0.75" />
</svg>
