<?xml version="1.0" encoding="UTF-8" standalone="yes"?>
<svg width="256.0px" height="256.0px" xmlns="http://www.w3.org/2000/svg" xmlns:xlink="http://www.w3.org/1999/xlink" version="1.2" baseProfile="tiny">
<polyline points="0.0,17.346000000000004 184.39999999999964,17.346000000000004" fill="none" stroke="#000000" stroke-width="0.40" />
<polyline points="0.0,22.346000000000004 184.39999999999964,22.346000000000004" fill="none" stroke="#000000" stroke-width="0.40" />
<polyline points="0.0,27.346000000000004 184.39999999999964,27.346000000000004" fill="none" stroke="#000000" stroke-width="0.40" />
<polyline points="0.0,32.346000000000004 184.39999999999964,32.346000000000004" fill="none" stroke="#000000" stroke-width="0.40" />
<polyline points="0.0,37.346000000000004 184.39999999999964,37.346000000000004" fill="none" stroke="#000000" stroke-width="0.40" />
<polyline points="0.0,112.346 184.39999999999964,112.346" fill="none" stroke="#000000" stroke-width="0.40" />
<polyline points="0.0,117.346 184.39999999999964,117.346" fill="none" stroke="#000000" stroke-width="0.40" />
<polyline points="0.0,122.346 184.39999999999964,122.346" fill="none" stroke="#000000" stroke-width="0.40" />
<polyline points="0.0,127.346 184.39999999999964,127.346" fill="none" stroke="#000000" stroke-width="0.40" />
<polyline points="0.0,132.346 184.39999999999964,132.346" fill="none" stroke="#000000" stroke-width="0.40" />
<polyline points="0.0,164.846 184.39999999999964,164.846" fill="none" stroke="#000000" stroke-width="0.40" />
<polyline points="0.0,169.846 184.39999999999964,169.846" fill="none" stroke="#000000" stroke-width="0.40" />
<polyline points="0.0,174.846 184.39999999999964,174.846" fill="none" stroke="#000000" stroke-width="0.40" />
<polyline points="0.0,179.846 184.39999999999964,179.846" fill="none" stroke="#000000" stroke-width="0.40" />
<polyline points="0.0,184.846 184.39999999999964,184.846" fill="none" stroke="#000000" stroke-width="0.40" />
<polyline points="0.0,217.346 184.39999999999964,217.346" fill="none" stroke="#000000" stroke-width="0.40" />
<polyline points="0.0,222.346 184.39999999999964,222.346" fill="none" stroke="#000000" stroke-width="0.40" />
<polyline points="0.0,227.346 184.39999999999964,227.346" fill="none" stroke="#000000" stroke-width="0.40" />
<polyline points="0.0,232.346 184.39999999999964,232.346" fill="none" stroke="#000000" stroke-width="0.40" />
<polyline points="0.0,237.346 184.39999999999964,237.346" fill="none" stroke="#000000" stroke-width="0.40" />
<polyline points="184.0,217.346 184.0,237.346" fill="" stroke="#000000" stroke-width="0.80" />
<polyline points="184.0,164.846 184.0,184.846" fill="" stroke="#000000" stroke-width="0.80" />
<polyline points="184.0,112.346 184.0,132.346" fill="" stroke="#000000" stroke-width="0.80" />
<polyline points="4.200000000000728,217.346 4.200000000000728,237.346" fill="" stroke="#000000" stroke-width="0.80" />
<polyline points="4.200000000000728,164.846 4.200000000000728,184.846" fill="" stroke="#000000" stroke-width="0.80" />
<polyline points="4.200000000000728,112.346 4.200000000000728,132.346" fill="" stroke="#000000" stroke-width="0.80" />
<polyline points="184.0,17.346000000000004 184.0,37.346000000000004" fill="" stroke="#000000" stroke-width="0.80" />
<polyline points="140.10000000000036,243.90699999999998 140.10000000000036,207.971" fill="" stroke="#000000" stroke-width="0.65" />
<polyline points="118.0,243.90699999999998 118.0,208.596" fill="" stroke="#000000" stroke-width="0.65" />
<polyline points="95.79999999999927,243.90699999999998 95.79999999999927,208.596" fill="" stroke="#000000" stroke-width="0.65" />
<polyline points="19.299999999999272,241.57799999999997 19.299999999999272,206.096" fill="" stroke="#000000" stroke-width="0.65" />
<polyline points="153.20000000000073,25.786 153.20000000000073,41.096000000000004" fill="" stroke="#000000" stroke-width="0.65" />
<polyline points="122.10000000000036,16.910000000000025 122.10000000000036,41.096000000000004" fill="" stroke="#000000" stroke-width="0.65" />
<polyline points="60.600000000000364,16.910000000000025 60.600000000000364,41.096000000000004" fill="" stroke="#000000" stroke-width="0.65" />
<polyline points="132.29999999999927,242.346 141.89999999999964,242.346" fill="" stroke="#000000" stroke-width="0.80" />
<polyline points="110.20000000000073,242.346 119.79999999999927,242.346" fill="" stroke="#000000" stroke-width="0.80" />
<polyline points="88.10000000000036,242.346 97.70000000000073,242.346" fill="" stroke="#000000" stroke-width="0.80" />
<polyline points="11.200000000000728,242.346 21.100000000000364,242.346" fill="" stroke="#000000" stroke-width="0.80" />
<polyline points="241.10000000000036,17.346000000000004 255.0,17.346000000000004" fill="none" stroke="#000000" stroke-width="0.40" />
<polyline points="241.10000000000036,22.346000000000004 255.0,22.346000000000004" fill="none" stroke="#000000" stroke-width="0.40" />
<polyline points="241.10000000000036,27.346000000000004 255.0,27.346000000000004" fill="none" stroke="#000000" stroke-width="0.40" />
<polyline points="241.10000000000036,32.346000000000004 255.0,32.346000000000004" fill="none" stroke="#000000" stroke-width="0.40" />
<polyline points="241.10000000000036,37.346000000000004 255.0,37.346000000000004" fill="none" stroke="#000000" stroke-width="0.40" />
<polyline points="241.10000000000036,112.346 255.0,112.346" fill="none" stroke="#000000" stroke-width="0.40" />
<polyline points="241.10000000000036,117.346 255.0,117.346" fill="none" stroke="#000000" stroke-width="0.40" />
<polyline points="241.10000000000036,122.346 255.0,122.346" fill="none" stroke="#000000" stroke-width="0.40" />
<polyline points="241.10000000000036,127.346 255.0,127.346" fill="none" stroke="#000000" stroke-width="0.40" />
<polyline points="241.10000000000036,132.346 255.0,132.346" fill="none" stroke="#000000" stroke-width="0.40" />
<polyline points="241.10000000000036,164.846 255.0,164.846" fill="none" stroke="#000000" stroke-width="0.40" />
<polyline points="241.10000000000036,169.846 255.0,169.846" fill="none" stroke="#000000" stroke-width="0.40" />
<polyline points="241.10000000000036,174.846 255.0,174.846" fill="none" stroke="#000000" stroke-width="0.40" />
<polyline points="241.10000000000036,179.846 255.0,179.846" fill="none" stroke="#000000" stroke-width="0.40" />
<polyline points="241.10000000000036,184.846 255.0,184.846" fill="none" stroke="#000000" stroke-width="0.40" />
<polyline points="241.10000000000036,217.346 255.0,217.346" fill="none" stroke="#000000" stroke-width="0.40" />
<polyline points="241.10000000000036,222.346 255.0,222.346" fill="none" stroke="#000000" stroke-width="0.40" />
<polyline points="241.10000000000036,227.346 255.0,227.346" fill="none" stroke="#000000" stroke-width="0.40" />
<polyline points="241.10000000000036,232.346 255.0,232.346" fill="none" stroke="#000000" stroke-width="0.40" />
<polyline points="241.10000000000036,237.346 255.0,237.346" fill="none" stroke="#000000" stroke-width="0.40" />
<polyline points="241.5,112.346 241.5,255.0" fill="" stroke="#000000" stroke-width="0.80" />
<polyline points="241.5,0.0 241.5,37.346000000000004" fill="" stroke="#000000" stroke-width="0.80" />
</svg>
