<?xml version="1.0" encoding="UTF-8" standalone="yes"?>
<svg width="256.0px" height="256.0px" xmlns="http://www.w3.org/2000/svg" xmlns:xlink="http://www.w3.org/1999/xlink" version="1.2" baseProfile="tiny">
<polyline points="0.0,63.3465 255.0,63.3465" fill="none" stroke="#000000" stroke-width="0.40" />
<polyline points="0.0,68.3465 255.0,68.3465" fill="none" stroke="#000000" stroke-width="0.40" />
<polyline points="0.0,73.3465 255.0,73.3465" fill="none" stroke="#000000" stroke-width="0.40" />
<polyline points="0.0,78.3465 255.0,78.3465" fill="none" stroke="#000000" stroke-width="0.40" />
<polyline points="0.0,83.3465 255.0,83.3465" fill="none" stroke="#000000" stroke-width="0.40" />
<polyline points="0.0,115.846 255.0,115.846" fill="none" stroke="#000000" stroke-width="0.40" />
<polyline points="0.0,120.846 255.0,120.846" fill="none" stroke="#000000" stroke-width="0.40" />
<polyline points="0.0,125.846 255.0,125.846" fill="none" stroke="#000000" stroke-width="0.40" />
<polyline points="0.0,130.846 255.0,130.846" fill="none" stroke="#000000" stroke-width="0.40" />
<polyline points="0.0,135.846 255.0,135.846" fill="none" stroke="#000000" stroke-width="0.40" />
<polyline points="0.0,168.346 255.0,168.346" fill="none" stroke="#000000" stroke-width="0.40" />
<polyline points="0.0,173.346 255.0,173.346" fill="none" stroke="#000000" stroke-width="0.40" />
<polyline points="0.0,178.346 255.0,178.346" fill="none" stroke="#000000" stroke-width="0.40" />
<polyline points="0.0,183.346 255.0,183.346" fill="none" stroke="#000000" stroke-width="0.40" />
<polyline points="0.0,188.346 255.0,188.346" fill="none" stroke="#000000" stroke-width="0.40" />
<polyline points="0.0,220.846 255.0,220.846" fill="none" stroke="#000000" stroke-width="0.40" />
<polyline points="0.0,225.846 255.0,225.846" fill="none" stroke="#000000" stroke-width="0.40" />
<polyline points="0.0,230.846 255.0,230.846" fill="none" stroke="#000000" stroke-width="0.40" />
<polyline points="0.0,235.846 255.0,235.846" fill="none" stroke="#000000" stroke-width="0.40" />
<polyline points="0.0,240.846 255.0,240.846" fill="none" stroke="#000000" stroke-width="0.40" />
<polyline points="26.100000000000364,83.2215 19.700000000000728,87.2215" fill="" stroke="#000000" stroke-width="0.65" />
<polyline points="29.799999999999272,60.7215 23.399999999999636,64.7215" fill="" stroke="#000000" stroke-width="0.65" />
<polyline points="240.29999999999927,192.407 240.29999999999927,159.596" fill="" stroke="#000000" stroke-width="0.65" />
<polyline points="234.29999999999927,86.7855 234.29999999999927,124.596" fill="" stroke="#000000" stroke-width="0.65" />
<polyline points="234.29999999999927,64.2855 234.29999999999927,82.0965" fill="" stroke="#000000" stroke-width="0.65" />
<polyline points="201.60000000000036,224.286 201.60000000000036,239.596" fill="" stroke="#000000" stroke-width="0.65" />
<polyline points="207.5,192.407 207.5,159.596" fill="" stroke="#000000" stroke-width="0.65" />
<polyline points="201.60000000000036,86.7855 201.60000000000036,124.596" fill="" stroke="#000000" stroke-width="0.65" />
<polyline points="201.60000000000036,64.2855 201.60000000000036,82.0965" fill="" stroke="#000000" stroke-width="0.65" />
<polyline points="168.79999999999927,224.286 168.79999999999927,240.221" fill="" stroke="#000000" stroke-width="0.65" />
<polyline points="168.79999999999927,86.7855 168.79999999999927,124.596" fill="" stroke="#000000" stroke-width="0.65" />
<polyline points="168.79999999999927,64.2855 168.79999999999927,82.0965" fill="" stroke="#000000" stroke-width="0.65" />
<polyline points="136.0,226.786 136.0,240.846" fill="" stroke="#000000" stroke-width="0.65" />
<polyline points="141.89999999999964,192.407 141.89999999999964,159.596" fill="" stroke="#000000" stroke-width="0.65" />
<polyline points="136.0,86.7855 136.0,124.596" fill="" stroke="#000000" stroke-width="0.65" />
<polyline points="136.0,64.2855 136.0,82.0965" fill="" stroke="#000000" stroke-width="0.65" />
<polyline points="83.5,224.286 83.5,239.596" fill="" stroke="#000000" stroke-width="0.65" />
<polyline points="89.5,192.407 89.5,162.096" fill="" stroke="#000000" stroke-width="0.65" />
<polyline points="83.5,84.2855 83.5,124.596" fill="" stroke="#000000" stroke-width="0.65" />
<polyline points="83.5,61.7855 83.5,82.0965" fill="" stroke="#000000" stroke-width="0.65" />
<polyline points="31.100000000000364,224.286 31.100000000000364,239.596" fill="" stroke="#000000" stroke-width="0.65" />
<polyline points="37.0,192.407 37.0,162.096" fill="" stroke="#000000" stroke-width="0.65" />
<polyline points="22.100000000000364,95.1891 22.100000000000364,79.2215" fill="" stroke="#000000" stroke-width="0.65" />
<polyline points="31.100000000000364,94.2855 31.100000000000364,125.846" fill="" stroke="#000000" stroke-width="0.65" />
<polyline points="25.799999999999272,72.6891 25.799999999999272,56.7215" fill="" stroke="#000000" stroke-width="0.65" />
<polyline points="31.100000000000364,71.7855 31.100000000000364,84.5965" fill="" stroke="#000000" stroke-width="0.65" />
<polyline points="232.5,193.346 242.10000000000036,193.346" fill="" stroke="#000000" stroke-width="0.80" />
<polyline points="232.5,85.8465 242.10000000000036,85.8465" fill="" stroke="#000000" stroke-width="0.80" />
<polyline points="226.60000000000036,90.8465 242.10000000000036,90.8465" fill="" stroke="#000000" stroke-width="0.80" />
<polyline points="226.60000000000036,95.8465 242.10000000000036,95.8465" fill="" stroke="#000000" stroke-width="0.80" />
<polyline points="226.60000000000036,100.846 242.10000000000036,100.846" fill="" stroke="#000000" stroke-width="0.80" />
<polyline points="226.60000000000036,105.846 242.10000000000036,105.846" fill="" stroke="#000000" stroke-width="0.80" />
<polyline points="226.60000000000036,110.846 242.10000000000036,110.846" fill="" stroke="#000000" stroke-width="0.80" />
<polyline points="199.70000000000073,193.346 209.29999999999927,193.346" fill="" stroke="#000000" stroke-width="0.80" />
<polyline points="199.70000000000073,85.8465 209.29999999999927,85.8465" fill="" stroke="#000000" stroke-width="0.80" />
<polyline points="193.79999999999927,90.8465 209.29999999999927,90.8465" fill="" stroke="#000000" stroke-width="0.80" />
<polyline points="193.79999999999927,95.8465 209.29999999999927,95.8465" fill="" stroke="#000000" stroke-width="0.80" />
<polyline points="193.79999999999927,100.846 209.29999999999927,100.846" fill="" stroke="#000000" stroke-width="0.80" />
<polyline points="193.79999999999927,105.846 209.29999999999927,105.846" fill="" stroke="#000000" stroke-width="0.80" />
<polyline points="193.79999999999927,110.846 209.29999999999927,110.846" fill="" stroke="#000000" stroke-width="0.80" />
<polyline points="166.89999999999964,85.8465 176.5,85.8465" fill="" stroke="#000000" stroke-width="0.80" />
<polyline points="161.0,90.8465 176.5,90.8465" fill="" stroke="#000000" stroke-width="0.80" />
<polyline points="161.0,95.8465 176.5,95.8465" fill="" stroke="#000000" stroke-width="0.80" />
<polyline points="161.0,100.846 176.5,100.846" fill="" stroke="#000000" stroke-width="0.80" />
<polyline points="161.0,105.846 176.5,105.846" fill="" stroke="#000000" stroke-width="0.80" />
<polyline points="161.0,110.846 176.5,110.846" fill="" stroke="#000000" stroke-width="0.80" />
<polyline points="134.20000000000073,193.346 143.70000000000073,193.346" fill="" stroke="#000000" stroke-width="0.80" />
<polyline points="134.20000000000073,85.8465 143.70000000000073,85.8465" fill="" stroke="#000000" stroke-width="0.80" />
<polyline points="128.20000000000073,90.8465 143.70000000000073,90.8465" fill="" stroke="#000000" stroke-width="0.80" />
<polyline points="128.20000000000073,95.8465 143.70000000000073,95.8465" fill="" stroke="#000000" stroke-width="0.80" />
<polyline points="128.20000000000073,100.846 143.70000000000073,100.846" fill="" stroke="#000000" stroke-width="0.80" />
<polyline points="128.20000000000073,105.846 143.70000000000073,105.846" fill="" stroke="#000000" stroke-width="0.80" />
<polyline points="128.20000000000073,110.846 143.70000000000073,110.846" fill="" stroke="#000000" stroke-width="0.80" />
<polyline points="81.70000000000073,193.346 91.29999999999927,193.346" fill="" stroke="#000000" stroke-width="0.80" />
<polyline points="81.70000000000073,85.8465 91.29999999999927,85.8465" fill="" stroke="#000000" stroke-width="0.80" />
<polyline points="81.70000000000073,90.8465 91.29999999999927,90.8465" fill="" stroke="#000000" stroke-width="0.80" />
<polyline points="81.70000000000073,95.8465 91.29999999999927,95.8465" fill="" stroke="#000000" stroke-width="0.80" />
<polyline points="81.70000000000073,100.846 91.29999999999927,100.846" fill="" stroke="#000000" stroke-width="0.80" />
<polyline points="81.70000000000073,105.846 91.29999999999927,105.846" fill="" stroke="#000000" stroke-width="0.80" />
<polyline points="81.70000000000073,110.846 91.29999999999927,110.846" fill="" stroke="#000000" stroke-width="0.80" />
<polyline points="29.200000000000728,193.346 38.79999999999927,193.346" fill="" stroke="#000000" stroke-width="0.80" />
<polyline points="16.299999999999272,95.8465 23.899999999999636,95.8465" fill="" stroke="#000000" stroke-width="0.56" />
<polyline points="16.299999999999272,100.846 23.899999999999636,100.846" fill="" stroke="#000000" stroke-width="0.56" />
<polyline points="16.299999999999272,105.846 23.899999999999636,105.846" fill="" stroke="#000000" stroke-width="0.56" />
<polyline points="16.299999999999272,110.846 23.899999999999636,110.846" fill="" stroke="#000000" stroke-width="0.56" />
<polyline points="29.200000000000728,95.8465 38.79999999999927,95.8465" fill="" stroke="#000000" stroke-width="0.80" />
<polyline points="29.200000000000728,100.846 38.79999999999927,100.846" fill="" stroke="#000000" stroke-width="0.80" />
<polyline points="29.200000000000728,105.846 38.79999999999927,105.846" fill="" stroke="#000000" stroke-width="0.80" />
<polyline points="29.200000000000728,110.846 38.79999999999927,110.846" fill="" stroke="#000000" stroke-width="0.80" />
<polyline points="241.79999999999927,63.0002 255.0,63.0002" fill="" stroke="#000000" stroke-width="0.75" />
</svg>
