<?xml version="1.0" encoding="UTF-8" standalone="yes"?>
<svg width="256.0px" height="256.0px" xmlns="http://www.w3.org/2000/svg" xmlns:xlink="http://www.w3.org/1999/xlink" version="1.2" baseProfile="tiny">
<polyline points="0.0,13.846000000000004 17.899999999999636,13.846000000000004" fill="none" stroke="#000000" stroke-width="0.40" />
<polyline points="0.0,18.846000000000004 17.899999999999636,18.846000000000004" fill="none" stroke="#000000" stroke-width="0.40" />
<polyline points="0.0,23.846000000000004 17.899999999999636,23.846000000000004" fill="none" stroke="#000000" stroke-width="0.40" />
<polyline points="0.0,28.846000000000004 17.899999999999636,28.846000000000004" fill="none" stroke="#000000" stroke-width="0.40" />
<polyline points="0.0,33.846000000000004 17.899999999999636,33.846000000000004" fill="none" stroke="#000000" stroke-width="0.40" />
<polyline points="0.0,66.346 17.899999999999636,66.346" fill="none" stroke="#000000" stroke-width="0.40" />
<polyline points="0.0,71.346 17.899999999999636,71.346" fill="none" stroke="#000000" stroke-width="0.40" />
<polyline points="0.0,76.346 17.899999999999636,76.346" fill="none" stroke="#000000" stroke-width="0.40" />
<polyline points="0.0,81.346 17.899999999999636,81.346" fill="none" stroke="#000000" stroke-width="0.40" />
<polyline points="0.0,86.346 17.899999999999636,86.346" fill="none" stroke="#000000" stroke-width="0.40" />
<polyline points="17.5,66.346 17.5,86.346" fill="" stroke="#000000" stroke-width="0.80" />
<polyline points="17.5,13.846000000000004 17.5,33.846000000000004" fill="" stroke="#000000" stroke-width="0.80" />
<polyline points="74.60000000000036,13.846000000000004 255.0,13.846000000000004" fill="none" stroke="#000000" stroke-width="0.40" />
<polyline points="74.60000000000036,18.846000000000004 255.0,18.846000000000004" fill="none" stroke="#000000" stroke-width="0.40" />
<polyline points="74.60000000000036,23.846000000000004 255.0,23.846000000000004" fill="none" stroke="#000000" stroke-width="0.40" />
<polyline points="74.60000000000036,28.846000000000004 255.0,28.846000000000004" fill="none" stroke="#000000" stroke-width="0.40" />
<polyline points="74.60000000000036,33.846000000000004 255.0,33.846000000000004" fill="none" stroke="#000000" stroke-width="0.40" />
<polyline points="74.60000000000036,66.346 255.0,66.346" fill="none" stroke="#000000" stroke-width="0.40" />
<polyline points="74.60000000000036,71.346 255.0,71.346" fill="none" stroke="#000000" stroke-width="0.40" />
<polyline points="74.60000000000036,76.346 255.0,76.346" fill="none" stroke="#000000" stroke-width="0.40" />
<polyline points="74.60000000000036,81.346 255.0,81.346" fill="none" stroke="#000000" stroke-width="0.40" />
<polyline points="74.60000000000036,86.346 255.0,86.346" fill="none" stroke="#000000" stroke-width="0.40" />
<polyline points="75.0,0.0 75.0,86.346" fill="" stroke="#000000" stroke-width="0.80" />
<polyline points="238.89999999999964,74.78599999999994 238.89999999999964,95.096" fill="" stroke="#000000" stroke-width="0.65" />
<polyline points="238.89999999999964,27.285999999999945 238.89999999999964,42.596000000000004" fill="" stroke="#000000" stroke-width="0.65" />
<polyline points="207.79999999999927,74.78599999999994 207.79999999999927,100.096" fill="" stroke="#000000" stroke-width="0.65" />
<polyline points="176.60000000000036,74.78599999999994 176.60000000000036,100.096" fill="" stroke="#000000" stroke-width="0.65" />
<polyline points="182.60000000000036,25.40700000000004 182.60000000000036,12.596000000000004" fill="" stroke="#000000" stroke-width="0.65" />
<polyline points="145.5,74.78599999999994 145.5,100.096" fill="" stroke="#000000" stroke-width="0.65" />
<polyline points="113.89999999999964,65.90999999999997 113.89999999999964,100.096" fill="" stroke="#000000" stroke-width="0.65" />
<polyline points="120.29999999999927,32.90700000000004 120.29999999999927,17.596000000000004" fill="" stroke="#000000" stroke-width="0.65" />
</svg>
