<?xml version="1.0" encoding="UTF-8" standalone="yes"?>
<svg width="256.0px" height="256.0px" xmlns="http://www.w3.org/2000/svg" xmlns:xlink="http://www.w3.org/1999/xlink" version="1.2" baseProfile="tiny">
<polyline points="0.0,13.846000000000004 190.60000000000036,13.846000000000004" fill="none" stroke="#000000" stroke-width="0.40" />
<polyline points="0.0,18.846000000000004 190.60000000000036,18.846000000000004" fill="none" stroke="#000000" stroke-width="0.40" />
<polyline points="0.0,23.846000000000004 190.60000000000036,23.846000000000004" fill="none" stroke="#000000" stroke-width="0.40" />
<polyline points="0.0,28.846000000000004 190.60000000000036,28.846000000000004" fill="none" stroke="#000000" stroke-width="0.40" />
<polyline points="0.0,33.846000000000004 190.60000000000036,33.846000000000004" fill="none" stroke="#000000" stroke-width="0.40" />
<polyline points="0.0,66.346 190.60000000000036,66.346" fill="none" stroke="#000000" stroke-width="0.40" />
<polyline points="0.0,71.346 190.60000000000036,71.346" fill="none" stroke="#000000" stroke-width="0.40" />
<polyline points="0.0,76.346 190.60000000000036,76.346" fill="none" stroke="#000000" stroke-width="0.40" />
<polyline points="0.0,81.346 190.60000000000036,81.346" fill="none" stroke="#000000" stroke-width="0.40" />
<polyline points="0.0,86.346 190.60000000000036,86.346" fill="none" stroke="#000000" stroke-width="0.40" />
<polyline points="190.20000000000073,66.346 190.20000000000073,86.346" fill="" stroke="#000000" stroke-width="0.80" />
<polyline points="190.20000000000073,13.846000000000004 190.20000000000073,33.846000000000004" fill="" stroke="#000000" stroke-width="0.80" />
<polyline points="174.20000000000073,74.78599999999994 174.20000000000073,90.096" fill="" stroke="#000000" stroke-width="0.65" />
<polyline points="157.89999999999964,65.90999999999997 157.89999999999964,90.096" fill="" stroke="#000000" stroke-width="0.65" />
<polyline points="158.29999999999927,12.285999999999945 158.29999999999927,28.846000000000004" fill="" stroke="#000000" stroke-width="0.65" />
<polyline points="126.10000000000036,65.90999999999997 126.10000000000036,90.096" fill="" stroke="#000000" stroke-width="0.65" />
<polyline points="94.29999999999927,65.90999999999997 94.29999999999927,98.846" fill="" stroke="#000000" stroke-width="0.65" />
<polyline points="94.70000000000073,12.285999999999945 94.70000000000073,27.596000000000004" fill="" stroke="#000000" stroke-width="0.65" />
<polyline points="62.5,65.90999999999997 62.5,98.846" fill="" stroke="#000000" stroke-width="0.65" />
<polyline points="62.899999999999636,12.285999999999945 62.899999999999636,27.596000000000004" fill="" stroke="#000000" stroke-width="0.65" />
<polyline points="41.899999999999636,74.78599999999994 41.899999999999636,90.096" fill="" stroke="#000000" stroke-width="0.65" />
<polyline points="25.600000000000364,65.90999999999997 25.600000000000364,90.096" fill="" stroke="#000000" stroke-width="0.65" />
<polyline points="26.0,17.285999999999945 26.0,33.846000000000004" fill="" stroke="#000000" stroke-width="0.65" />
<polyline points="247.29999999999927,13.846000000000004 255.0,13.846000000000004" fill="none" stroke="#000000" stroke-width="0.40" />
<polyline points="247.29999999999927,18.846000000000004 255.0,18.846000000000004" fill="none" stroke="#000000" stroke-width="0.40" />
<polyline points="247.29999999999927,23.846000000000004 255.0,23.846000000000004" fill="none" stroke="#000000" stroke-width="0.40" />
<polyline points="247.29999999999927,28.846000000000004 255.0,28.846000000000004" fill="none" stroke="#000000" stroke-width="0.40" />
<polyline points="247.29999999999927,33.846000000000004 255.0,33.846000000000004" fill="none" stroke="#000000" stroke-width="0.40" />
<polyline points="247.29999999999927,66.346 255.0,66.346" fill="none" stroke="#000000" stroke-width="0.40" />
<polyline points="247.29999999999927,71.346 255.0,71.346" fill="none" stroke="#000000" stroke-width="0.40" />
<polyline points="247.29999999999927,76.346 255.0,76.346" fill="none" stroke="#000000" stroke-width="0.40" />
<polyline points="247.29999999999927,81.346 255.0,81.346" fill="none" stroke="#000000" stroke-width="0.40" />
<polyline points="247.29999999999927,86.346 255.0,86.346" fill="none" stroke="#000000" stroke-width="0.40" />
<polyline points="247.70000000000073,0.0 247.70000000000073,86.346" fill="" stroke="#000000" stroke-width="0.80" />
</svg>
