<?xml version="1.0" encoding="UTF-8" standalone="yes"?>
<svg width="256.0px" height="256.0px" xmlns="http://www.w3.org/2000/svg" xmlns:xlink="http://www.w3.org/1999/xlink" version="1.2" baseProfile="tiny">
<polyline points="0.0,17.346000000000004 255.0,17.346000000000004" fill="none" stroke="#000000" stroke-width="0.40" />
<polyline points="0.0,22.346000000000004 255.0,22.346000000000004" fill="none" stroke="#000000" stroke-width="0.40" />
<polyline points="0.0,27.346000000000004 255.0,27.346000000000004" fill="none" stroke="#000000" stroke-width="0.40" />
<polyline points="0.0,32.346000000000004 255.0,32.346000000000004" fill="none" stroke="#000000" stroke-width="0.40" />
<polyline points="0.0,37.346000000000004 255.0,37.346000000000004" fill="none" stroke="#000000" stroke-width="0.40" />
<polyline points="0.0,112.346 255.0,112.346" fill="none" stroke="#000000" stroke-width="0.40" />
<polyline points="0.0,117.346 255.0,117.346" fill="none" stroke="#000000" stroke-width="0.40" />
<polyline points="0.0,122.346 255.0,122.346" fill="none" stroke="#000000" stroke-width="0.40" />
<polyline points="0.0,127.346 255.0,127.346" fill="none" stroke="#000000" stroke-width="0.40" />
<polyline points="0.0,132.346 255.0,132.346" fill="none" stroke="#000000" stroke-width="0.40" />
<polyline points="0.0,164.846 255.0,164.846" fill="none" stroke="#000000" stroke-width="0.40" />
<polyline points="0.0,169.846 255.0,169.846" fill="none" stroke="#000000" stroke-width="0.40" />
<polyline points="0.0,174.846 255.0,174.846" fill="none" stroke="#000000" stroke-width="0.40" />
<polyline points="0.0,179.846 255.0,179.846" fill="none" stroke="#000000" stroke-width="0.40" />
<polyline points="0.0,184.846 255.0,184.846" fill="none" stroke="#000000" stroke-width="0.40" />
<polyline points="0.0,217.346 255.0,217.346" fill="none" stroke="#000000" stroke-width="0.40" />
<polyline points="0.0,222.346 255.0,222.346" fill="none" stroke="#000000" stroke-width="0.40" />
<polyline points="0.0,227.346 255.0,227.346" fill="none" stroke="#000000" stroke-width="0.40" />
<polyline points="0.0,232.346 255.0,232.346" fill="none" stroke="#000000" stroke-width="0.40" />
<polyline points="0.0,237.346 255.0,237.346" fill="none" stroke="#000000" stroke-width="0.40" />
<polyline points="3.5,217.346 3.5,237.346" fill="" stroke="#000000" stroke-width="0.80" />
<polyline points="3.5,164.846 3.5,184.846" fill="" stroke="#000000" stroke-width="0.80" />
<polyline points="3.5,112.346 3.5,132.346" fill="" stroke="#000000" stroke-width="0.80" />
<polyline points="16.100000000000364,132.221 9.700000000000728,136.221" fill="" stroke="#000000" stroke-width="0.65" />
<polyline points="19.799999999999272,109.721 13.399999999999636,113.721" fill="" stroke="#000000" stroke-width="0.65" />
<polyline points="255.89999999999964,146.91000000000003 255.89999999999964,183.596" fill="" stroke="#000000" stroke-width="0.65" />
<polyline points="244.10000000000036,241.40699999999998 244.10000000000036,203.596" fill="" stroke="#000000" stroke-width="0.65" />
<polyline points="238.10000000000036,146.91000000000003 238.10000000000036,183.596" fill="" stroke="#000000" stroke-width="0.65" />
<polyline points="244.10000000000036,142.86200000000002 244.10000000000036,107.346" fill="" stroke="#000000" stroke-width="0.65" />
<polyline points="222.79999999999927,146.91000000000003 222.79999999999927,183.596" fill="" stroke="#000000" stroke-width="0.65" />
<polyline points="228.79999999999927,142.86200000000002 228.79999999999927,107.346" fill="" stroke="#000000" stroke-width="0.65" />
<polyline points="212.20000000000073,243.90699999999998 212.20000000000073,203.596" fill="" stroke="#000000" stroke-width="0.65" />
<polyline points="206.29999999999927,146.91000000000003 206.29999999999927,183.596" fill="" stroke="#000000" stroke-width="0.65" />
<polyline points="212.20000000000073,135.36200000000002 212.20000000000073,107.346" fill="" stroke="#000000" stroke-width="0.65" />
<polyline points="197.0,243.90699999999998 197.0,207.346" fill="" stroke="#000000" stroke-width="0.65" />
<polyline points="191.0,146.91000000000003 191.0,178.596" fill="" stroke="#000000" stroke-width="0.65" />
<polyline points="197.0,135.36200000000002 197.0,107.346" fill="" stroke="#000000" stroke-width="0.65" />
<polyline points="181.70000000000073,243.90699999999998 181.70000000000073,207.346" fill="" stroke="#000000" stroke-width="0.65" />
<polyline points="175.70000000000073,146.91000000000003 175.70000000000073,176.974" fill="" stroke="#000000" stroke-width="0.65" />
<polyline points="181.70000000000073,135.36200000000002 181.70000000000073,107.346" fill="" stroke="#000000" stroke-width="0.65" />
<polyline points="165.10000000000036,243.90699999999998 165.10000000000036,207.346" fill="" stroke="#000000" stroke-width="0.65" />
<polyline points="159.20000000000073,146.91000000000003 159.20000000000073,175.219" fill="" stroke="#000000" stroke-width="0.65" />
<polyline points="165.10000000000036,127.86200000000002 165.10000000000036,107.346" fill="" stroke="#000000" stroke-width="0.65" />
<polyline points="149.79999999999927,243.90699999999998 149.79999999999927,207.346" fill="" stroke="#000000" stroke-width="0.65" />
<polyline points="143.89999999999964,146.91000000000003 143.89999999999964,173.596" fill="" stroke="#000000" stroke-width="0.65" />
<polyline points="149.79999999999927,127.86200000000002 149.79999999999927,107.346" fill="" stroke="#000000" stroke-width="0.65" />
<polyline points="134.60000000000036,243.90699999999998 134.60000000000036,207.346" fill="" stroke="#000000" stroke-width="0.65" />
<polyline points="128.60000000000036,146.91000000000003 128.60000000000036,173.596" fill="" stroke="#000000" stroke-width="0.65" />
<polyline points="128.60000000000036,124.41000000000003 128.60000000000036,146.096" fill="" stroke="#000000" stroke-width="0.65" />
<polyline points="119.10000000000036,240.36200000000002 119.10000000000036,207.765" fill="" stroke="#000000" stroke-width="0.65" />
<polyline points="113.20000000000073,146.91000000000003 113.20000000000073,173.596" fill="" stroke="#000000" stroke-width="0.65" />
<polyline points="113.20000000000073,124.41000000000003 113.20000000000073,146.096" fill="" stroke="#000000" stroke-width="0.65" />
<polyline points="88.29999999999927,241.40699999999998 88.29999999999927,208.596" fill="" stroke="#000000" stroke-width="0.65" />
<polyline points="82.39999999999964,133.286 82.39999999999964,173.596" fill="" stroke="#000000" stroke-width="0.65" />
<polyline points="82.39999999999964,110.786 82.39999999999964,146.096" fill="" stroke="#000000" stroke-width="0.65" />
<polyline points="57.70000000000073,241.40699999999998 57.70000000000073,211.096" fill="" stroke="#000000" stroke-width="0.65" />
<polyline points="51.79999999999927,133.286 51.79999999999927,173.596" fill="" stroke="#000000" stroke-width="0.65" />
<polyline points="51.79999999999927,110.786 51.79999999999927,131.096" fill="" stroke="#000000" stroke-width="0.65" />
<polyline points="27.0,241.40699999999998 27.0,211.096" fill="" stroke="#000000" stroke-width="0.65" />
<polyline points="12.100000000000364,144.18900000000002 12.100000000000364,128.221" fill="" stroke="#000000" stroke-width="0.65" />
<polyline points="21.0,143.286 21.0,174.846" fill="" stroke="#000000" stroke-width="0.65" />
<polyline points="15.799999999999272,121.68900000000002 15.799999999999272,105.721" fill="" stroke="#000000" stroke-width="0.65" />
<polyline points="21.0,120.786 21.0,133.596" fill="" stroke="#000000" stroke-width="0.65" />
<polyline points="240.60000000000036,25.786 240.60000000000036,51.096000000000004" fill="" stroke="#000000" stroke-width="0.65" />
<polyline points="207.39999999999964,16.910000000000025 207.39999999999964,51.096000000000004" fill="" stroke="#000000" stroke-width="0.65" />
<polyline points="175.10000000000036,35.786 175.10000000000036,51.096000000000004" fill="" stroke="#000000" stroke-width="0.65" />
<polyline points="141.89999999999964,16.910000000000025 141.89999999999964,51.096000000000004" fill="" stroke="#000000" stroke-width="0.65" />
<polyline points="109.10000000000036,16.910000000000025 109.10000000000036,51.096000000000004" fill="" stroke="#000000" stroke-width="0.65" />
<polyline points="76.29999999999927,16.910000000000025 76.29999999999927,51.096000000000004" fill="" stroke="#000000" stroke-width="0.65" />
<polyline points="10.700000000000728,16.910000000000025 10.700000000000728,51.096000000000004" fill="" stroke="#000000" stroke-width="0.65" />
<polyline points="254.10000000000036,242.346 255.0,242.346" fill="" stroke="#000000" stroke-width="0.80" />
<polyline points="254.10000000000036,144.846 255.0,144.846" fill="" stroke="#000000" stroke-width="0.80" />
<polyline points="254.10000000000036,149.846 255.0,149.846" fill="" stroke="#000000" stroke-width="0.80" />
<polyline points="254.10000000000036,154.846 255.0,154.846" fill="" stroke="#000000" stroke-width="0.80" />
<polyline points="254.10000000000036,159.846 255.0,159.846" fill="" stroke="#000000" stroke-width="0.80" />
<polyline points="254.10000000000036,137.346 255.0,137.346" fill="" stroke="#000000" stroke-width="0.80" />
<polyline points="254.10000000000036,142.346 255.0,142.346" fill="" stroke="#000000" stroke-width="0.80" />
<polyline points="236.29999999999927,242.346 245.89999999999964,242.346" fill="" stroke="#000000" stroke-width="0.80" />
<polyline points="236.29999999999927,144.846 245.89999999999964,144.846" fill="" stroke="#000000" stroke-width="0.80" />
<polyline points="236.29999999999927,149.846 245.89999999999964,149.846" fill="" stroke="#000000" stroke-width="0.80" />
<polyline points="236.29999999999927,154.846 245.89999999999964,154.846" fill="" stroke="#000000" stroke-width="0.80" />
<polyline points="236.29999999999927,159.846 245.89999999999964,159.846" fill="" stroke="#000000" stroke-width="0.80" />
<polyline points="236.29999999999927,137.346 245.89999999999964,137.346" fill="" stroke="#000000" stroke-width="0.80" />
<polyline points="236.29999999999927,142.346 245.89999999999964,142.346" fill="" stroke="#000000" stroke-width="0.80" />
<polyline points="221.0,144.846 230.60000000000036,144.846" fill="" stroke="#000000" stroke-width="0.80" />
<polyline points="221.0,149.846 230.60000000000036,149.846" fill="" stroke="#000000" stroke-width="0.80" />
<polyline points="221.0,154.846 230.60000000000036,154.846" fill="" stroke="#000000" stroke-width="0.80" />
<polyline points="221.0,159.846 230.60000000000036,159.846" fill="" stroke="#000000" stroke-width="0.80" />
<polyline points="221.0,137.346 230.60000000000036,137.346" fill="" stroke="#000000" stroke-width="0.80" />
<polyline points="221.0,142.346 230.60000000000036,142.346" fill="" stroke="#000000" stroke-width="0.80" />
<polyline points="204.5,242.346 214.10000000000036,242.346" fill="" stroke="#000000" stroke-width="0.80" />
<polyline points="204.5,144.846 214.10000000000036,144.846" fill="" stroke="#000000" stroke-width="0.80" />
<polyline points="204.5,149.846 214.10000000000036,149.846" fill="" stroke="#000000" stroke-width="0.80" />
<polyline points="204.5,154.846 214.10000000000036,154.846" fill="" stroke="#000000" stroke-width="0.80" />
<polyline points="204.5,159.846 214.10000000000036,159.846" fill="" stroke="#000000" stroke-width="0.80" />
<polyline points="204.5,137.346 214.10000000000036,137.346" fill="" stroke="#000000" stroke-width="0.80" />
<polyline points="189.20000000000073,242.346 198.79999999999927,242.346" fill="" stroke="#000000" stroke-width="0.80" />
<polyline points="189.20000000000073,144.846 198.79999999999927,144.846" fill="" stroke="#000000" stroke-width="0.80" />
<polyline points="189.20000000000073,149.846 198.79999999999927,149.846" fill="" stroke="#000000" stroke-width="0.80" />
<polyline points="189.20000000000073,154.846 198.79999999999927,154.846" fill="" stroke="#000000" stroke-width="0.80" />
<polyline points="189.20000000000073,159.846 198.79999999999927,159.846" fill="" stroke="#000000" stroke-width="0.80" />
<polyline points="189.20000000000073,137.346 198.79999999999927,137.346" fill="" stroke="#000000" stroke-width="0.80" />
<polyline points="173.89999999999964,242.346 183.5,242.346" fill="" stroke="#000000" stroke-width="0.80" />
<polyline points="173.89999999999964,144.846 183.5,144.846" fill="" stroke="#000000" stroke-width="0.80" />
<polyline points="173.89999999999964,149.846 183.5,149.846" fill="" stroke="#000000" stroke-width="0.80" />
<polyline points="173.89999999999964,154.846 183.5,154.846" fill="" stroke="#000000" stroke-width="0.80" />
<polyline points="173.89999999999964,159.846 183.5,159.846" fill="" stroke="#000000" stroke-width="0.80" />
<polyline points="173.89999999999964,137.346 183.5,137.346" fill="" stroke="#000000" stroke-width="0.80" />
<polyline points="157.39999999999964,242.346 167.0,242.346" fill="" stroke="#000000" stroke-width="0.80" />
<polyline points="157.39999999999964,144.846 167.0,144.846" fill="" stroke="#000000" stroke-width="0.80" />
<polyline points="157.39999999999964,149.846 167.0,149.846" fill="" stroke="#000000" stroke-width="0.80" />
<polyline points="157.39999999999964,154.846 167.0,154.846" fill="" stroke="#000000" stroke-width="0.80" />
<polyline points="157.39999999999964,159.846 167.0,159.846" fill="" stroke="#000000" stroke-width="0.80" />
<polyline points="142.10000000000036,242.346 151.70000000000073,242.346" fill="" stroke="#000000" stroke-width="0.80" />
<polyline points="142.10000000000036,144.846 151.70000000000073,144.846" fill="" stroke="#000000" stroke-width="0.80" />
<polyline points="142.10000000000036,149.846 151.70000000000073,149.846" fill="" stroke="#000000" stroke-width="0.80" />
<polyline points="142.10000000000036,154.846 151.70000000000073,154.846" fill="" stroke="#000000" stroke-width="0.80" />
<polyline points="142.10000000000036,159.846 151.70000000000073,159.846" fill="" stroke="#000000" stroke-width="0.80" />
<polyline points="126.79999999999927,242.346 136.39999999999964,242.346" fill="" stroke="#000000" stroke-width="0.80" />
<polyline points="126.79999999999927,144.846 136.39999999999964,144.846" fill="" stroke="#000000" stroke-width="0.80" />
<polyline points="126.79999999999927,149.846 136.39999999999964,149.846" fill="" stroke="#000000" stroke-width="0.80" />
<polyline points="126.79999999999927,154.846 136.39999999999964,154.846" fill="" stroke="#000000" stroke-width="0.80" />
<polyline points="126.79999999999927,159.846 136.39999999999964,159.846" fill="" stroke="#000000" stroke-width="0.80" />
<polyline points="111.29999999999927,242.346 120.89999999999964,242.346" fill="" stroke="#000000" stroke-width="0.80" />
<polyline points="111.29999999999927,144.846 120.89999999999964,144.846" fill="" stroke="#000000" stroke-width="0.80" />
<polyline points="111.29999999999927,149.846 120.89999999999964,149.846" fill="" stroke="#000000" stroke-width="0.80" />
<polyline points="111.29999999999927,154.846 120.89999999999964,154.846" fill="" stroke="#000000" stroke-width="0.80" />
<polyline points="111.29999999999927,159.846 120.89999999999964,159.846" fill="" stroke="#000000" stroke-width="0.80" />
<polyline points="80.60000000000036,242.346 90.10000000000036,242.346" fill="" stroke="#000000" stroke-width="0.80" />
<polyline points="80.60000000000036,134.846 90.10000000000036,134.846" fill="" stroke="#000000" stroke-width="0.80" />
<polyline points="80.60000000000036,139.846 90.10000000000036,139.846" fill="" stroke="#000000" stroke-width="0.80" />
<polyline points="80.60000000000036,144.846 90.10000000000036,144.846" fill="" stroke="#000000" stroke-width="0.80" />
<polyline points="80.60000000000036,149.846 90.10000000000036,149.846" fill="" stroke="#000000" stroke-width="0.80" />
<polyline points="80.60000000000036,154.846 90.10000000000036,154.846" fill="" stroke="#000000" stroke-width="0.80" />
<polyline points="80.60000000000036,159.846 90.10000000000036,159.846" fill="" stroke="#000000" stroke-width="0.80" />
<polyline points="50.0,242.346 59.600000000000364,242.346" fill="" stroke="#000000" stroke-width="0.80" />
<polyline points="50.0,134.846 59.600000000000364,134.846" fill="" stroke="#000000" stroke-width="0.80" />
<polyline points="50.0,139.846 59.600000000000364,139.846" fill="" stroke="#000000" stroke-width="0.80" />
<polyline points="50.0,144.846 59.600000000000364,144.846" fill="" stroke="#000000" stroke-width="0.80" />
<polyline points="50.0,149.846 59.600000000000364,149.846" fill="" stroke="#000000" stroke-width="0.80" />
<polyline points="50.0,154.846 59.600000000000364,154.846" fill="" stroke="#000000" stroke-width="0.80" />
<polyline points="50.0,159.846 59.600000000000364,159.846" fill="" stroke="#000000" stroke-width="0.80" />
<polyline points="19.200000000000728,242.346 28.799999999999272,242.346" fill="" stroke="#000000" stroke-width="0.80" />
<polyline points="6.299999999999272,144.846 13.899999999999636,144.846" fill="" stroke="#000000" stroke-width="0.56" />
<polyline points="6.299999999999272,149.846 13.899999999999636,149.846" fill="" stroke="#000000" stroke-width="0.56" />
<polyline points="6.299999999999272,154.846 13.899999999999636,154.846" fill="" stroke="#000000" stroke-width="0.56" />
<polyline points="6.299999999999272,159.846 13.899999999999636,159.846" fill="" stroke="#000000" stroke-width="0.56" />
<polyline points="19.200000000000728,144.846 28.799999999999272,144.846" fill="" stroke="#000000" stroke-width="0.80" />
<polyline points="19.200000000000728,149.846 28.799999999999272,149.846" fill="" stroke="#000000" stroke-width="0.80" />
<polyline points="19.200000000000728,154.846 28.799999999999272,154.846" fill="" stroke="#000000" stroke-width="0.80" />
<polyline points="19.200000000000728,159.846 28.799999999999272,159.846" fill="" stroke="#000000" stroke-width="0.80" />
</svg>
