<?xml version="1.0" encoding="UTF-8" standalone="yes"?>
<svg width="256.0px" height="256.0px" xmlns="http://www.w3.org/2000/svg" xmlns:xlink="http://www.w3.org/1999/xlink" version="1.2" baseProfile="tiny">
<polyline points="0.0,63.3465 190.60000000000036,63.3465" fill="none" stroke="#000000" stroke-width="0.40" />
<polyline points="0.0,68.3465 190.60000000000036,68.3465" fill="none" stroke="#000000" stroke-width="0.40" />
<polyline points="0.0,73.3465 190.60000000000036,73.3465" fill="none" stroke="#000000" stroke-width="0.40" />
<polyline points="0.0,78.3465 190.60000000000036,78.3465" fill="none" stroke="#000000" stroke-width="0.40" />
<polyline points="0.0,83.3465 190.60000000000036,83.3465" fill="none" stroke="#000000" stroke-width="0.40" />
<polyline points="0.0,115.846 190.60000000000036,115.846" fill="none" stroke="#000000" stroke-width="0.40" />
<polyline points="0.0,120.846 190.60000000000036,120.846" fill="none" stroke="#000000" stroke-width="0.40" />
<polyline points="0.0,125.846 190.60000000000036,125.846" fill="none" stroke="#000000" stroke-width="0.40" />
<polyline points="0.0,130.846 190.60000000000036,130.846" fill="none" stroke="#000000" stroke-width="0.40" />
<polyline points="0.0,135.846 190.60000000000036,135.846" fill="none" stroke="#000000" stroke-width="0.40" />
<polyline points="0.0,168.346 190.60000000000036,168.346" fill="none" stroke="#000000" stroke-width="0.40" />
<polyline points="0.0,173.346 190.60000000000036,173.346" fill="none" stroke="#000000" stroke-width="0.40" />
<polyline points="0.0,178.346 190.60000000000036,178.346" fill="none" stroke="#000000" stroke-width="0.40" />
<polyline points="0.0,183.346 190.60000000000036,183.346" fill="none" stroke="#000000" stroke-width="0.40" />
<polyline points="0.0,188.346 190.60000000000036,188.346" fill="none" stroke="#000000" stroke-width="0.40" />
<polyline points="0.0,220.846 190.60000000000036,220.846" fill="none" stroke="#000000" stroke-width="0.40" />
<polyline points="0.0,225.846 190.60000000000036,225.846" fill="none" stroke="#000000" stroke-width="0.40" />
<polyline points="0.0,230.846 190.60000000000036,230.846" fill="none" stroke="#000000" stroke-width="0.40" />
<polyline points="0.0,235.846 190.60000000000036,235.846" fill="none" stroke="#000000" stroke-width="0.40" />
<polyline points="0.0,240.846 190.60000000000036,240.846" fill="none" stroke="#000000" stroke-width="0.40" />
<polyline points="190.20000000000073,220.846 190.20000000000073,240.846" fill="" stroke="#000000" stroke-width="0.80" />
<polyline points="190.20000000000073,168.346 190.20000000000073,188.346" fill="" stroke="#000000" stroke-width="0.80" />
<polyline points="190.20000000000073,115.846 190.20000000000073,135.846" fill="" stroke="#000000" stroke-width="0.80" />
<polyline points="190.20000000000073,63.3465 190.20000000000073,83.3465" fill="" stroke="#000000" stroke-width="0.80" />
<polyline points="175.20000000000073,214.286 175.20000000000073,230.846" fill="" stroke="#000000" stroke-width="0.65" />
<polyline points="136.5,219.286 136.5,235.846" fill="" stroke="#000000" stroke-width="0.65" />
<polyline points="142.39999999999964,194.907 142.39999999999964,158.971" fill="" stroke="#000000" stroke-width="0.65" />
<polyline points="121.60000000000036,226.786 121.60000000000036,249.596" fill="" stroke="#000000" stroke-width="0.65" />
<polyline points="106.70000000000073,226.786 106.70000000000073,251.68" fill="" stroke="#000000" stroke-width="0.65" />
<polyline points="91.70000000000073,236.786 91.70000000000073,253.763" fill="" stroke="#000000" stroke-width="0.65" />
<polyline points="76.79999999999927,236.786 76.79999999999927,255.846" fill="" stroke="#000000" stroke-width="0.65" />
<polyline points="82.79999999999927,194.907 82.79999999999927,158.971" fill="" stroke="#000000" stroke-width="0.65" />
<polyline points="76.70000000000073,76.6305 76.70000000000073,125.846" fill="" stroke="#000000" stroke-width="0.65" />
<polyline points="76.70000000000073,54.1305 76.70000000000073,73.3465" fill="" stroke="#000000" stroke-width="0.65" />
<polyline points="47.0,79.2855 47.0,124.596" fill="" stroke="#000000" stroke-width="0.65" />
<polyline points="47.0,56.7855 47.0,72.0965" fill="" stroke="#000000" stroke-width="0.65" />
<polyline points="23.200000000000728,216.786 23.200000000000728,233.346" fill="" stroke="#000000" stroke-width="0.65" />
<polyline points="23.200000000000728,76.7855 23.200000000000728,124.596" fill="" stroke="#000000" stroke-width="0.65" />
<polyline points="23.200000000000728,54.2855 23.200000000000728,72.0965" fill="" stroke="#000000" stroke-width="0.65" />
<polyline points="8.299999999999272,224.286 8.299999999999272,244.596" fill="" stroke="#000000" stroke-width="0.65" />
<polyline points="173.39999999999964,215.846 183.0,215.846" fill="" stroke="#000000" stroke-width="0.80" />
<polyline points="134.60000000000036,193.346 144.20000000000073,193.346" fill="" stroke="#000000" stroke-width="0.80" />
<polyline points="75.0,193.346 84.60000000000036,193.346" fill="" stroke="#000000" stroke-width="0.80" />
<polyline points="74.79999999999927,75.8465 84.79999999999927,75.8465" fill="" stroke="#000000" stroke-width="0.80" />
<polyline points="68.5,80.8465 84.79999999999927,80.8465" fill="" stroke="#000000" stroke-width="0.80" />
<polyline points="68.5,85.8465 84.79999999999927,85.8465" fill="" stroke="#000000" stroke-width="0.80" />
<polyline points="68.5,90.8465 84.79999999999927,90.8465" fill="" stroke="#000000" stroke-width="0.80" />
<polyline points="68.5,95.8465 84.79999999999927,95.8465" fill="" stroke="#000000" stroke-width="0.80" />
<polyline points="68.5,100.846 84.79999999999927,100.846" fill="" stroke="#000000" stroke-width="0.80" />
<polyline points="68.5,105.846 84.79999999999927,105.846" fill="" stroke="#000000" stroke-width="0.80" />
<polyline points="68.5,110.846 84.79999999999927,110.846" fill="" stroke="#000000" stroke-width="0.80" />
<polyline points="74.79999999999927,53.3465 84.79999999999927,53.3465" fill="" stroke="#000000" stroke-width="0.80" />
<polyline points="68.5,58.3465 84.79999999999927,58.3465" fill="" stroke="#000000" stroke-width="0.80" />
<polyline points="45.20000000000073,80.8465 54.79999999999927,80.8465" fill="" stroke="#000000" stroke-width="0.80" />
<polyline points="45.20000000000073,85.8465 54.79999999999927,85.8465" fill="" stroke="#000000" stroke-width="0.80" />
<polyline points="45.20000000000073,90.8465 54.79999999999927,90.8465" fill="" stroke="#000000" stroke-width="0.80" />
<polyline points="45.20000000000073,95.8465 54.79999999999927,95.8465" fill="" stroke="#000000" stroke-width="0.80" />
<polyline points="45.20000000000073,100.846 54.79999999999927,100.846" fill="" stroke="#000000" stroke-width="0.80" />
<polyline points="45.20000000000073,105.846 54.79999999999927,105.846" fill="" stroke="#000000" stroke-width="0.80" />
<polyline points="45.20000000000073,110.846 54.79999999999927,110.846" fill="" stroke="#000000" stroke-width="0.80" />
<polyline points="45.20000000000073,58.3465 54.79999999999927,58.3465" fill="" stroke="#000000" stroke-width="0.80" />
<polyline points="21.299999999999272,215.846 30.899999999999636,215.846" fill="" stroke="#000000" stroke-width="0.80" />
<polyline points="21.299999999999272,75.8465 30.899999999999636,75.8465" fill="" stroke="#000000" stroke-width="0.80" />
<polyline points="15.399999999999636,80.8465 30.899999999999636,80.8465" fill="" stroke="#000000" stroke-width="0.80" />
<polyline points="15.399999999999636,85.8465 30.899999999999636,85.8465" fill="" stroke="#000000" stroke-width="0.80" />
<polyline points="15.399999999999636,90.8465 30.899999999999636,90.8465" fill="" stroke="#000000" stroke-width="0.80" />
<polyline points="15.399999999999636,95.8465 30.899999999999636,95.8465" fill="" stroke="#000000" stroke-width="0.80" />
<polyline points="15.399999999999636,100.846 30.899999999999636,100.846" fill="" stroke="#000000" stroke-width="0.80" />
<polyline points="15.399999999999636,105.846 30.899999999999636,105.846" fill="" stroke="#000000" stroke-width="0.80" />
<polyline points="15.399999999999636,110.846 30.899999999999636,110.846" fill="" stroke="#000000" stroke-width="0.80" />
<polyline points="21.299999999999272,53.3465 30.899999999999636,53.3465" fill="" stroke="#000000" stroke-width="0.80" />
<polyline points="15.399999999999636,58.3465 30.899999999999636,58.3465" fill="" stroke="#000000" stroke-width="0.80" />
<polyline points="0.0,80.8465 1.1000000000003638,80.8465" fill="" stroke="#000000" stroke-width="0.80" />
<polyline points="0.0,85.8465 1.1000000000003638,85.8465" fill="" stroke="#000000" stroke-width="0.80" />
<polyline points="0.0,90.8465 1.1000000000003638,90.8465" fill="" stroke="#000000" stroke-width="0.80" />
<polyline points="0.0,95.8465 1.1000000000003638,95.8465" fill="" stroke="#000000" stroke-width="0.80" />
<polyline points="0.0,100.846 1.1000000000003638,100.846" fill="" stroke="#000000" stroke-width="0.80" />
<polyline points="0.0,105.846 1.1000000000003638,105.846" fill="" stroke="#000000" stroke-width="0.80" />
<polyline points="0.0,110.846 1.1000000000003638,110.846" fill="" stroke="#000000" stroke-width="0.80" />
<polyline points="0.0,58.3465 1.1000000000003638,58.3465" fill="" stroke="#000000" stroke-width="0.80" />
<polyline points="77.0,74.3465 77.0,105.846" fill="" stroke="#000000" stroke-width="0.75" />
<polyline points="77.0,51.8465 77.0,53.3465" fill="" stroke="#000000" stroke-width="0.75" />
<polyline points="23.5,74.3465 23.5,105.846" fill="" stroke="#000000" stroke-width="0.75" />
<polyline points="23.5,51.8465 23.5,53.3465" fill="" stroke="#000000" stroke-width="0.75" />
<polyline points="247.29999999999927,63.3465 255.0,63.3465" fill="none" stroke="#000000" stroke-width="0.40" />
<polyline points="247.29999999999927,68.3465 255.0,68.3465" fill="none" stroke="#000000" stroke-width="0.40" />
<polyline points="247.29999999999927,73.3465 255.0,73.3465" fill="none" stroke="#000000" stroke-width="0.40" />
<polyline points="247.29999999999927,78.3465 255.0,78.3465" fill="none" stroke="#000000" stroke-width="0.40" />
<polyline points="247.29999999999927,83.3465 255.0,83.3465" fill="none" stroke="#000000" stroke-width="0.40" />
<polyline points="247.29999999999927,115.846 255.0,115.846" fill="none" stroke="#000000" stroke-width="0.40" />
<polyline points="247.29999999999927,120.846 255.0,120.846" fill="none" stroke="#000000" stroke-width="0.40" />
<polyline points="247.29999999999927,125.846 255.0,125.846" fill="none" stroke="#000000" stroke-width="0.40" />
<polyline points="247.29999999999927,130.846 255.0,130.846" fill="none" stroke="#000000" stroke-width="0.40" />
<polyline points="247.29999999999927,135.846 255.0,135.846" fill="none" stroke="#000000" stroke-width="0.40" />
<polyline points="247.29999999999927,168.346 255.0,168.346" fill="none" stroke="#000000" stroke-width="0.40" />
<polyline points="247.29999999999927,173.346 255.0,173.346" fill="none" stroke="#000000" stroke-width="0.40" />
<polyline points="247.29999999999927,178.346 255.0,178.346" fill="none" stroke="#000000" stroke-width="0.40" />
<polyline points="247.29999999999927,183.346 255.0,183.346" fill="none" stroke="#000000" stroke-width="0.40" />
<polyline points="247.29999999999927,188.346 255.0,188.346" fill="none" stroke="#000000" stroke-width="0.40" />
<polyline points="247.29999999999927,220.846 255.0,220.846" fill="none" stroke="#000000" stroke-width="0.40" />
<polyline points="247.29999999999927,225.846 255.0,225.846" fill="none" stroke="#000000" stroke-width="0.40" />
<polyline points="247.29999999999927,230.846 255.0,230.846" fill="none" stroke="#000000" stroke-width="0.40" />
<polyline points="247.29999999999927,235.846 255.0,235.846" fill="none" stroke="#000000" stroke-width="0.40" />
<polyline points="247.29999999999927,240.846 255.0,240.846" fill="none" stroke="#000000" stroke-width="0.40" />
<polyline points="247.70000000000073,63.3465 247.70000000000073,255.0" fill="" stroke="#000000" stroke-width="0.80" />
</svg>
