<?xml version="1.0" encoding="UTF-8" standalone="yes"?>
<svg width="256.0px" height="256.0px" xmlns="http://www.w3.org/2000/svg" xmlns:xlink="http://www.w3.org/1999/xlink" version="1.2" baseProfile="tiny">
<polyline points="0.0,13.846000000000004 101.20000000000073,13.846000000000004" fill="none" stroke="#000000" stroke-width="0.40" />
<polyline points="0.0,18.846000000000004 101.20000000000073,18.846000000000004" fill="none" stroke="#000000" stroke-width="0.40" />
<polyline points="0.0,23.846000000000004 101.20000000000073,23.846000000000004" fill="none" stroke="#000000" stroke-width="0.40" />
<polyline points="0.0,28.846000000000004 101.20000000000073,28.846000000000004" fill="none" stroke="#000000" stroke-width="0.40" />
<polyline points="0.0,33.846000000000004 101.20000000000073,33.846000000000004" fill="none" stroke="#000000" stroke-width="0.40" />
<polyline points="0.0,66.346 101.20000000000073,66.346" fill="none" stroke="#000000" stroke-width="0.40" />
<polyline points="0.0,71.346 101.20000000000073,71.346" fill="none" stroke="#000000" stroke-width="0.40" />
<polyline points="0.0,76.346 101.20000000000073,76.346" fill="none" stroke="#000000" stroke-width="0.40" />
<polyline points="0.0,81.346 101.20000000000073,81.346" fill="none" stroke="#000000" stroke-width="0.40" />
<polyline points="0.0,86.346 101.20000000000073,86.346" fill="none" stroke="#000000" stroke-width="0.40" />
<polyline points="100.79999999999927,66.346 100.79999999999927,86.346" fill="" stroke="#000000" stroke-width="0.80" />
<polyline points="100.79999999999927,13.846000000000004 100.79999999999927,33.846000000000004" fill="" stroke="#000000" stroke-width="0.80" />
<polyline points="38.0,65.90999999999997 38.0,101.346" fill="" stroke="#000000" stroke-width="0.65" />
<polyline points="38.399999999999636,12.285999999999945 38.399999999999636,27.596000000000004" fill="" stroke="#000000" stroke-width="0.65" />
<polyline points="7.200000000000728,74.78599999999994 7.200000000000728,98.24199999999996" fill="" stroke="#000000" stroke-width="0.65" />
<polyline points="157.89999999999964,13.846000000000004 255.0,13.846000000000004" fill="none" stroke="#000000" stroke-width="0.40" />
<polyline points="157.89999999999964,18.846000000000004 255.0,18.846000000000004" fill="none" stroke="#000000" stroke-width="0.40" />
<polyline points="157.89999999999964,23.846000000000004 255.0,23.846000000000004" fill="none" stroke="#000000" stroke-width="0.40" />
<polyline points="157.89999999999964,28.846000000000004 255.0,28.846000000000004" fill="none" stroke="#000000" stroke-width="0.40" />
<polyline points="157.89999999999964,33.846000000000004 255.0,33.846000000000004" fill="none" stroke="#000000" stroke-width="0.40" />
<polyline points="157.89999999999964,66.346 255.0,66.346" fill="none" stroke="#000000" stroke-width="0.40" />
<polyline points="157.89999999999964,71.346 255.0,71.346" fill="none" stroke="#000000" stroke-width="0.40" />
<polyline points="157.89999999999964,76.346 255.0,76.346" fill="none" stroke="#000000" stroke-width="0.40" />
<polyline points="157.89999999999964,81.346 255.0,81.346" fill="none" stroke="#000000" stroke-width="0.40" />
<polyline points="157.89999999999964,86.346 255.0,86.346" fill="none" stroke="#000000" stroke-width="0.40" />
<polyline points="158.29999999999927,0.0 158.29999999999927,86.346" fill="" stroke="#000000" stroke-width="0.80" />
<polyline points="249.79999999999927,74.78599999999994 249.79999999999927,90.096" fill="" stroke="#000000" stroke-width="0.65" />
<polyline points="232.20000000000073,72.28599999999994 232.20000000000073,90.096" fill="" stroke="#000000" stroke-width="0.65" />
<polyline points="238.10000000000036,20.40700000000004 238.10000000000036,5.099000000000046" fill="" stroke="#000000" stroke-width="0.65" />
<polyline points="214.5,74.78599999999994 214.5,90.096" fill="" stroke="#000000" stroke-width="0.65" />
<polyline points="196.79999999999927,72.28599999999994 196.79999999999927,90.096" fill="" stroke="#000000" stroke-width="0.65" />
<polyline points="202.70000000000073,15.407000000000039 202.70000000000073,2.5960000000000036" fill="" stroke="#000000" stroke-width="0.65" />
</svg>
