<?xml version="1.0" encoding="UTF-8" standalone="yes"?>
<svg width="256.0px" height="256.0px" xmlns="http://www.w3.org/2000/svg" xmlns:xlink="http://www.w3.org/1999/xlink" version="1.2" baseProfile="tiny">
<polyline points="0.0,63.3465 184.39999999999964,63.3465" fill="none" stroke="#000000" stroke-width="0.40" />
<polyline points="0.0,68.3465 184.39999999999964,68.3465" fill="none" stroke="#000000" stroke-width="0.40" />
<polyline points="0.0,73.3465 184.39999999999964,73.3465" fill="none" stroke="#000000" stroke-width="0.40" />
<polyline points="0.0,78.3465 184.39999999999964,78.3465" fill="none" stroke="#000000" stroke-width="0.40" />
<polyline points="0.0,83.3465 184.39999999999964,83.3465" fill="none" stroke="#000000" stroke-width="0.40" />
<polyline points="0.0,115.846 184.39999999999964,115.846" fill="none" stroke="#000000" stroke-width="0.40" />
<polyline points="0.0,120.846 184.39999999999964,120.846" fill="none" stroke="#000000" stroke-width="0.40" />
<polyline points="0.0,125.846 184.39999999999964,125.846" fill="none" stroke="#000000" stroke-width="0.40" />
<polyline points="0.0,130.846 184.39999999999964,130.846" fill="none" stroke="#000000" stroke-width="0.40" />
<polyline points="0.0,135.846 184.39999999999964,135.846" fill="none" stroke="#000000" stroke-width="0.40" />
<polyline points="0.0,168.346 184.39999999999964,168.346" fill="none" stroke="#000000" stroke-width="0.40" />
<polyline points="0.0,173.346 184.39999999999964,173.346" fill="none" stroke="#000000" stroke-width="0.40" />
<polyline points="0.0,178.346 184.39999999999964,178.346" fill="none" stroke="#000000" stroke-width="0.40" />
<polyline points="0.0,183.346 184.39999999999964,183.346" fill="none" stroke="#000000" stroke-width="0.40" />
<polyline points="0.0,188.346 184.39999999999964,188.346" fill="none" stroke="#000000" stroke-width="0.40" />
<polyline points="0.0,220.846 184.39999999999964,220.846" fill="none" stroke="#000000" stroke-width="0.40" />
<polyline points="0.0,225.846 184.39999999999964,225.846" fill="none" stroke="#000000" stroke-width="0.40" />
<polyline points="0.0,230.846 184.39999999999964,230.846" fill="none" stroke="#000000" stroke-width="0.40" />
<polyline points="0.0,235.846 184.39999999999964,235.846" fill="none" stroke="#000000" stroke-width="0.40" />
<polyline points="0.0,240.846 184.39999999999964,240.846" fill="none" stroke="#000000" stroke-width="0.40" />
<polyline points="184.0,220.846 184.0,240.846" fill="" stroke="#000000" stroke-width="0.80" />
<polyline points="184.0,168.346 184.0,188.346" fill="" stroke="#000000" stroke-width="0.80" />
<polyline points="184.0,115.846 184.0,135.846" fill="" stroke="#000000" stroke-width="0.80" />
<polyline points="184.0,63.3465 184.0,83.3465" fill="" stroke="#000000" stroke-width="0.80" />
<polyline points="159.20000000000073,238.862 159.20000000000073,225.846" fill="" stroke="#000000" stroke-width="0.65" />
<polyline points="159.20000000000073,194.907 159.20000000000073,158.346" fill="" stroke="#000000" stroke-width="0.65" />
<polyline points="153.20000000000073,71.7855 153.20000000000073,124.596" fill="" stroke="#000000" stroke-width="0.65" />
<polyline points="153.20000000000073,49.2855 153.20000000000073,72.0965" fill="" stroke="#000000" stroke-width="0.65" />
<polyline points="128.39999999999964,194.907 128.39999999999964,158.346" fill="" stroke="#000000" stroke-width="0.65" />
<polyline points="122.5,71.7855 122.5,124.596" fill="" stroke="#000000" stroke-width="0.65" />
<polyline points="122.5,49.2855 122.5,72.0965" fill="" stroke="#000000" stroke-width="0.65" />
<polyline points="91.70000000000073,71.7855 91.70000000000073,124.596" fill="" stroke="#000000" stroke-width="0.65" />
<polyline points="91.70000000000073,49.2855 91.70000000000073,72.0965" fill="" stroke="#000000" stroke-width="0.65" />
<polyline points="66.89999999999964,234.907 66.89999999999964,220.846" fill="" stroke="#000000" stroke-width="0.65" />
<polyline points="66.89999999999964,194.907 66.89999999999964,158.346" fill="" stroke="#000000" stroke-width="0.65" />
<polyline points="61.0,71.7855 61.0,124.596" fill="" stroke="#000000" stroke-width="0.65" />
<polyline points="61.0,49.2855 61.0,72.0965" fill="" stroke="#000000" stroke-width="0.65" />
<polyline points="36.20000000000073,194.907 36.20000000000073,158.346" fill="" stroke="#000000" stroke-width="0.65" />
<polyline points="30.200000000000728,71.7855 30.200000000000728,125.846" fill="" stroke="#000000" stroke-width="0.65" />
<polyline points="30.200000000000728,49.2855 30.200000000000728,73.3465" fill="" stroke="#000000" stroke-width="0.65" />
<polyline points="5.399999999999636,194.907 5.399999999999636,158.346" fill="" stroke="#000000" stroke-width="0.65" />
<polyline points="151.39999999999964,193.346 161.0,193.346" fill="" stroke="#000000" stroke-width="0.80" />
<polyline points="151.39999999999964,70.8465 161.0,70.8465" fill="" stroke="#000000" stroke-width="0.80" />
<polyline points="151.39999999999964,75.8465 161.0,75.8465" fill="" stroke="#000000" stroke-width="0.80" />
<polyline points="151.39999999999964,80.8465 161.0,80.8465" fill="" stroke="#000000" stroke-width="0.80" />
<polyline points="151.39999999999964,85.8465 161.0,85.8465" fill="" stroke="#000000" stroke-width="0.80" />
<polyline points="151.39999999999964,90.8465 161.0,90.8465" fill="" stroke="#000000" stroke-width="0.80" />
<polyline points="151.39999999999964,95.8465 161.0,95.8465" fill="" stroke="#000000" stroke-width="0.80" />
<polyline points="151.39999999999964,100.846 161.0,100.846" fill="" stroke="#000000" stroke-width="0.80" />
<polyline points="151.39999999999964,105.846 161.0,105.846" fill="" stroke="#000000" stroke-width="0.80" />
<polyline points="151.39999999999964,110.846 161.0,110.846" fill="" stroke="#000000" stroke-width="0.80" />
<polyline points="151.39999999999964,48.3465 161.0,48.3465" fill="" stroke="#000000" stroke-width="0.80" />
<polyline points="151.39999999999964,53.3465 161.0,53.3465" fill="" stroke="#000000" stroke-width="0.80" />
<polyline points="151.39999999999964,58.3465 161.0,58.3465" fill="" stroke="#000000" stroke-width="0.80" />
<polyline points="120.70000000000073,193.346 130.20000000000073,193.346" fill="" stroke="#000000" stroke-width="0.80" />
<polyline points="120.70000000000073,70.8465 130.20000000000073,70.8465" fill="" stroke="#000000" stroke-width="0.80" />
<polyline points="120.70000000000073,75.8465 130.20000000000073,75.8465" fill="" stroke="#000000" stroke-width="0.80" />
<polyline points="120.70000000000073,80.8465 130.20000000000073,80.8465" fill="" stroke="#000000" stroke-width="0.80" />
<polyline points="120.70000000000073,85.8465 130.20000000000073,85.8465" fill="" stroke="#000000" stroke-width="0.80" />
<polyline points="120.70000000000073,90.8465 130.20000000000073,90.8465" fill="" stroke="#000000" stroke-width="0.80" />
<polyline points="120.70000000000073,95.8465 130.20000000000073,95.8465" fill="" stroke="#000000" stroke-width="0.80" />
<polyline points="120.70000000000073,100.846 130.20000000000073,100.846" fill="" stroke="#000000" stroke-width="0.80" />
<polyline points="120.70000000000073,105.846 130.20000000000073,105.846" fill="" stroke="#000000" stroke-width="0.80" />
<polyline points="120.70000000000073,110.846 130.20000000000073,110.846" fill="" stroke="#000000" stroke-width="0.80" />
<polyline points="120.70000000000073,48.3465 130.20000000000073,48.3465" fill="" stroke="#000000" stroke-width="0.80" />
<polyline points="120.70000000000073,53.3465 130.20000000000073,53.3465" fill="" stroke="#000000" stroke-width="0.80" />
<polyline points="120.70000000000073,58.3465 130.20000000000073,58.3465" fill="" stroke="#000000" stroke-width="0.80" />
<polyline points="89.89999999999964,70.8465 99.5,70.8465" fill="" stroke="#000000" stroke-width="0.80" />
<polyline points="89.89999999999964,75.8465 99.5,75.8465" fill="" stroke="#000000" stroke-width="0.80" />
<polyline points="89.89999999999964,80.8465 99.5,80.8465" fill="" stroke="#000000" stroke-width="0.80" />
<polyline points="89.89999999999964,85.8465 99.5,85.8465" fill="" stroke="#000000" stroke-width="0.80" />
<polyline points="89.89999999999964,90.8465 99.5,90.8465" fill="" stroke="#000000" stroke-width="0.80" />
<polyline points="89.89999999999964,95.8465 99.5,95.8465" fill="" stroke="#000000" stroke-width="0.80" />
<polyline points="89.89999999999964,100.846 99.5,100.846" fill="" stroke="#000000" stroke-width="0.80" />
<polyline points="89.89999999999964,105.846 99.5,105.846" fill="" stroke="#000000" stroke-width="0.80" />
<polyline points="89.89999999999964,110.846 99.5,110.846" fill="" stroke="#000000" stroke-width="0.80" />
<polyline points="89.89999999999964,48.3465 99.5,48.3465" fill="" stroke="#000000" stroke-width="0.80" />
<polyline points="89.89999999999964,53.3465 99.5,53.3465" fill="" stroke="#000000" stroke-width="0.80" />
<polyline points="89.89999999999964,58.3465 99.5,58.3465" fill="" stroke="#000000" stroke-width="0.80" />
<polyline points="59.20000000000073,193.346 68.70000000000073,193.346" fill="" stroke="#000000" stroke-width="0.80" />
<polyline points="59.20000000000073,70.8465 68.70000000000073,70.8465" fill="" stroke="#000000" stroke-width="0.80" />
<polyline points="59.20000000000073,75.8465 68.70000000000073,75.8465" fill="" stroke="#000000" stroke-width="0.80" />
<polyline points="59.20000000000073,80.8465 68.70000000000073,80.8465" fill="" stroke="#000000" stroke-width="0.80" />
<polyline points="59.20000000000073,85.8465 68.70000000000073,85.8465" fill="" stroke="#000000" stroke-width="0.80" />
<polyline points="59.20000000000073,90.8465 68.70000000000073,90.8465" fill="" stroke="#000000" stroke-width="0.80" />
<polyline points="59.20000000000073,95.8465 68.70000000000073,95.8465" fill="" stroke="#000000" stroke-width="0.80" />
<polyline points="59.20000000000073,100.846 68.70000000000073,100.846" fill="" stroke="#000000" stroke-width="0.80" />
<polyline points="59.20000000000073,105.846 68.70000000000073,105.846" fill="" stroke="#000000" stroke-width="0.80" />
<polyline points="59.20000000000073,110.846 68.70000000000073,110.846" fill="" stroke="#000000" stroke-width="0.80" />
<polyline points="59.20000000000073,48.3465 68.70000000000073,48.3465" fill="" stroke="#000000" stroke-width="0.80" />
<polyline points="59.20000000000073,53.3465 68.70000000000073,53.3465" fill="" stroke="#000000" stroke-width="0.80" />
<polyline points="59.20000000000073,58.3465 68.70000000000073,58.3465" fill="" stroke="#000000" stroke-width="0.80" />
<polyline points="28.399999999999636,193.346 38.0,193.346" fill="" stroke="#000000" stroke-width="0.80" />
<polyline points="28.399999999999636,70.8465 38.0,70.8465" fill="" stroke="#000000" stroke-width="0.80" />
<polyline points="28.399999999999636,75.8465 38.0,75.8465" fill="" stroke="#000000" stroke-width="0.80" />
<polyline points="28.399999999999636,80.8465 38.0,80.8465" fill="" stroke="#000000" stroke-width="0.80" />
<polyline points="28.399999999999636,85.8465 38.0,85.8465" fill="" stroke="#000000" stroke-width="0.80" />
<polyline points="28.399999999999636,90.8465 38.0,90.8465" fill="" stroke="#000000" stroke-width="0.80" />
<polyline points="28.399999999999636,95.8465 38.0,95.8465" fill="" stroke="#000000" stroke-width="0.80" />
<polyline points="28.399999999999636,100.846 38.0,100.846" fill="" stroke="#000000" stroke-width="0.80" />
<polyline points="28.399999999999636,105.846 38.0,105.846" fill="" stroke="#000000" stroke-width="0.80" />
<polyline points="28.399999999999636,110.846 38.0,110.846" fill="" stroke="#000000" stroke-width="0.80" />
<polyline points="28.399999999999636,48.3465 38.0,48.3465" fill="" stroke="#000000" stroke-width="0.80" />
<polyline points="28.399999999999636,53.3465 38.0,53.3465" fill="" stroke="#000000" stroke-width="0.80" />
<polyline points="28.399999999999636,58.3465 38.0,58.3465" fill="" stroke="#000000" stroke-width="0.80" />
<polyline points="0.0,193.346 7.299999999999272,193.346" fill="" stroke="#000000" stroke-width="0.80" />
<polyline points="0.0,75.8465 7.299999999999272,75.8465" fill="" stroke="#000000" stroke-width="0.80" />
<polyline points="0.0,80.8465 7.299999999999272,80.8465" fill="" stroke="#000000" stroke-width="0.80" />
<polyline points="0.0,85.8465 7.299999999999272,85.8465" fill="" stroke="#000000" stroke-width="0.80" />
<polyline points="0.0,90.8465 7.299999999999272,90.8465" fill="" stroke="#000000" stroke-width="0.80" />
<polyline points="0.0,95.8465 7.299999999999272,95.8465" fill="" stroke="#000000" stroke-width="0.80" />
<polyline points="0.0,100.846 7.299999999999272,100.846" fill="" stroke="#000000" stroke-width="0.80" />
<polyline points="0.0,105.846 7.299999999999272,105.846" fill="" stroke="#000000" stroke-width="0.80" />
<polyline points="0.0,110.846 7.299999999999272,110.846" fill="" stroke="#000000" stroke-width="0.80" />
<polyline points="0.0,53.3465 7.299999999999272,53.3465" fill="" stroke="#000000" stroke-width="0.80" />
<polyline points="0.0,58.3465 7.299999999999272,58.3465" fill="" stroke="#000000" stroke-width="0.80" />
<polyline points="241.10000000000036,63.3465 255.0,63.3465" fill="none" stroke="#000000" stroke-width="0.40" />
<polyline points="241.10000000000036,68.3465 255.0,68.3465" fill="none" stroke="#000000" stroke-width="0.40" />
<polyline points="241.10000000000036,73.3465 255.0,73.3465" fill="none" stroke="#000000" stroke-width="0.40" />
<polyline points="241.10000000000036,78.3465 255.0,78.3465" fill="none" stroke="#000000" stroke-width="0.40" />
<polyline points="241.10000000000036,83.3465 255.0,83.3465" fill="none" stroke="#000000" stroke-width="0.40" />
<polyline points="241.10000000000036,115.846 255.0,115.846" fill="none" stroke="#000000" stroke-width="0.40" />
<polyline points="241.10000000000036,120.846 255.0,120.846" fill="none" stroke="#000000" stroke-width="0.40" />
<polyline points="241.10000000000036,125.846 255.0,125.846" fill="none" stroke="#000000" stroke-width="0.40" />
<polyline points="241.10000000000036,130.846 255.0,130.846" fill="none" stroke="#000000" stroke-width="0.40" />
<polyline points="241.10000000000036,135.846 255.0,135.846" fill="none" stroke="#000000" stroke-width="0.40" />
<polyline points="241.10000000000036,168.346 255.0,168.346" fill="none" stroke="#000000" stroke-width="0.40" />
<polyline points="241.10000000000036,173.346 255.0,173.346" fill="none" stroke="#000000" stroke-width="0.40" />
<polyline points="241.10000000000036,178.346 255.0,178.346" fill="none" stroke="#000000" stroke-width="0.40" />
<polyline points="241.10000000000036,183.346 255.0,183.346" fill="none" stroke="#000000" stroke-width="0.40" />
<polyline points="241.10000000000036,188.346 255.0,188.346" fill="none" stroke="#000000" stroke-width="0.40" />
<polyline points="241.10000000000036,220.846 255.0,220.846" fill="none" stroke="#000000" stroke-width="0.40" />
<polyline points="241.10000000000036,225.846 255.0,225.846" fill="none" stroke="#000000" stroke-width="0.40" />
<polyline points="241.10000000000036,230.846 255.0,230.846" fill="none" stroke="#000000" stroke-width="0.40" />
<polyline points="241.10000000000036,235.846 255.0,235.846" fill="none" stroke="#000000" stroke-width="0.40" />
<polyline points="241.10000000000036,240.846 255.0,240.846" fill="none" stroke="#000000" stroke-width="0.40" />
<polyline points="241.5,63.3465 241.5,255.0" fill="" stroke="#000000" stroke-width="0.80" />
</svg>
