<?xml version="1.0" encoding="UTF-8" standalone="yes"?>
<svg width="256.0px" height="256.0px" xmlns="http://www.w3.org/2000/svg" xmlns:xlink="http://www.w3.org/1999/xlink" version="1.2" baseProfile="tiny">
<polyline points="0.0,13.846000000000004 255.0,13.846000000000004" fill="none" stroke="#000000" stroke-width="0.40" />
<polyline points="0.0,18.846000000000004 255.0,18.846000000000004" fill="none" stroke="#000000" stroke-width="0.40" />
<polyline points="0.0,23.846000000000004 255.0,23.846000000000004" fill="none" stroke="#000000" stroke-width="0.40" />
<polyline points="0.0,28.846000000000004 255.0,28.846000000000004" fill="none" stroke="#000000" stroke-width="0.40" />
<polyline points="0.0,33.846000000000004 255.0,33.846000000000004" fill="none" stroke="#000000" stroke-width="0.40" />
<polyline points="0.0,66.346 255.0,66.346" fill="none" stroke="#000000" stroke-width="0.40" />
<polyline points="0.0,71.346 255.0,71.346" fill="none" stroke="#000000" stroke-width="0.40" />
<polyline points="0.0,76.346 255.0,76.346" fill="none" stroke="#000000" stroke-width="0.40" />
<polyline points="0.0,81.346 255.0,81.346" fill="none" stroke="#000000" stroke-width="0.40" />
<polyline points="0.0,86.346 255.0,86.346" fill="none" stroke="#000000" stroke-width="0.40" />
<polyline points="232.10000000000036,74.78599999999994 232.10000000000036,95.096" fill="" stroke="#000000" stroke-width="0.65" />
<polyline points="232.10000000000036,17.285999999999945 232.10000000000036,30.096000000000004" fill="" stroke="#000000" stroke-width="0.65" />
<polyline points="201.0,74.78599999999994 201.0,101.346" fill="" stroke="#000000" stroke-width="0.65" />
<polyline points="169.39999999999964,65.90999999999997 169.39999999999964,99.23599999999999" fill="" stroke="#000000" stroke-width="0.65" />
<polyline points="169.79999999999927,19.785999999999945 169.79999999999927,37.596000000000004" fill="" stroke="#000000" stroke-width="0.65" />
<polyline points="138.70000000000073,74.78599999999994 138.70000000000073,97.17999999999995" fill="" stroke="#000000" stroke-width="0.65" />
<polyline points="138.70000000000073,22.285999999999945 138.70000000000073,37.596000000000004" fill="" stroke="#000000" stroke-width="0.65" />
<polyline points="107.5,74.78599999999994 107.5,95.096" fill="" stroke="#000000" stroke-width="0.65" />
<polyline points="107.5,22.285999999999945 107.5,37.596000000000004" fill="" stroke="#000000" stroke-width="0.65" />
<polyline points="76.39999999999964,74.78599999999994 76.39999999999964,101.346" fill="" stroke="#000000" stroke-width="0.65" />
<polyline points="76.39999999999964,22.285999999999945 76.39999999999964,37.596000000000004" fill="" stroke="#000000" stroke-width="0.65" />
<polyline points="44.79999999999927,65.90999999999997 44.79999999999927,99.23599999999999" fill="" stroke="#000000" stroke-width="0.65" />
<polyline points="45.20000000000073,24.785999999999945 45.20000000000073,39.263000000000034" fill="" stroke="#000000" stroke-width="0.65" />
<polyline points="14.100000000000364,74.78599999999994 14.100000000000364,97.17999999999995" fill="" stroke="#000000" stroke-width="0.65" />
</svg>
