<?xml version="1.0" encoding="UTF-8" standalone="yes"?>
<svg width="256.0px" height="256.0px" xmlns="http://www.w3.org/2000/svg" xmlns:xlink="http://www.w3.org/1999/xlink" version="1.2" baseProfile="tiny">
<polyline points="0.0,17.346000000000004 138.20000000000005,17.346000000000004" fill="none" stroke="#000000" stroke-width="0.40" />
<polyline points="0.0,22.346000000000004 138.20000000000005,22.346000000000004" fill="none" stroke="#000000" stroke-width="0.40" />
<polyline points="0.0,27.346000000000004 138.20000000000005,27.346000000000004" fill="none" stroke="#000000" stroke-width="0.40" />
<polyline points="0.0,32.346000000000004 138.20000000000005,32.346000000000004" fill="none" stroke="#000000" stroke-width="0.40" />
<polyline points="0.0,37.346000000000004 138.20000000000005,37.346000000000004" fill="none" stroke="#000000" stroke-width="0.40" />
<polyline points="0.0,112.346 138.20000000000005,112.346" fill="none" stroke="#000000" stroke-width="0.40" />
<polyline points="0.0,117.346 138.20000000000005,117.346" fill="none" stroke="#000000" stroke-width="0.40" />
<polyline points="0.0,122.346 138.20000000000005,122.346" fill="none" stroke="#000000" stroke-width="0.40" />
<polyline points="0.0,127.346 138.20000000000005,127.346" fill="none" stroke="#000000" stroke-width="0.40" />
<polyline points="0.0,132.346 138.20000000000005,132.346" fill="none" stroke="#000000" stroke-width="0.40" />
<polyline points="0.0,164.846 138.20000000000005,164.846" fill="none" stroke="#000000" stroke-width="0.40" />
<polyline points="0.0,169.846 138.20000000000005,169.846" fill="none" stroke="#000000" stroke-width="0.40" />
<polyline points="0.0,174.846 138.20000000000005,174.846" fill="none" stroke="#000000" stroke-width="0.40" />
<polyline points="0.0,179.846 138.20000000000005,179.846" fill="none" stroke="#000000" stroke-width="0.40" />
<polyline points="0.0,184.846 138.20000000000005,184.846" fill="none" stroke="#000000" stroke-width="0.40" />
<polyline points="0.0,217.346 138.20000000000005,217.346" fill="none" stroke="#000000" stroke-width="0.40" />
<polyline points="0.0,222.346 138.20000000000005,222.346" fill="none" stroke="#000000" stroke-width="0.40" />
<polyline points="0.0,227.346 138.20000000000005,227.346" fill="none" stroke="#000000" stroke-width="0.40" />
<polyline points="0.0,232.346 138.20000000000005,232.346" fill="none" stroke="#000000" stroke-width="0.40" />
<polyline points="0.0,237.346 138.20000000000005,237.346" fill="none" stroke="#000000" stroke-width="0.40" />
<polyline points="137.79999999999995,217.346 137.79999999999995,237.346" fill="" stroke="#000000" stroke-width="0.80" />
<polyline points="137.79999999999995,164.846 137.79999999999995,184.846" fill="" stroke="#000000" stroke-width="0.80" />
<polyline points="137.79999999999995,112.346 137.79999999999995,132.346" fill="" stroke="#000000" stroke-width="0.80" />
<polyline points="137.79999999999995,17.346000000000004 137.79999999999995,37.346000000000004" fill="" stroke="#000000" stroke-width="0.80" />
<polyline points="108.68000000000006,210.786 108.68000000000006,255.0" fill="" stroke="#000000" stroke-width="0.65" />
<polyline points="79.63000000000011,210.786 79.63000000000011,255.0" fill="" stroke="#000000" stroke-width="0.65" />
<polyline points="79.63000000000011,133.286 79.63000000000011,174.846" fill="" stroke="#000000" stroke-width="0.65" />
<polyline points="79.63000000000011,110.786 79.63000000000011,127.346" fill="" stroke="#000000" stroke-width="0.65" />
<polyline points="50.57999999999993,210.786 50.57999999999993,255.0" fill="" stroke="#000000" stroke-width="0.65" />
<polyline points="32.42000000000007,210.786 32.42000000000007,255.0" fill="" stroke="#000000" stroke-width="0.65" />
<polyline points="14.259999999999991,210.786 14.259999999999991,255.0" fill="" stroke="#000000" stroke-width="0.65" />
<polyline points="2.0399999999999636,243.90699999999998 2.0399999999999636,193.596" fill="" stroke="#000000" stroke-width="0.65" />
<polyline points="100.13000000000011,16.910000000000025 100.13000000000011,48.596000000000004" fill="" stroke="#000000" stroke-width="0.65" />
<polyline points="74.27999999999997,16.910000000000025 74.27999999999997,48.596000000000004" fill="" stroke="#000000" stroke-width="0.65" />
<polyline points="48.440000000000055,16.910000000000025 48.440000000000055,48.596000000000004" fill="" stroke="#000000" stroke-width="0.65" />
<polyline points="4.619999999999891,16.910000000000025 4.619999999999891,48.596000000000004" fill="" stroke="#000000" stroke-width="0.65" />
<polyline points="106.84999999999991,242.346 116.44000000000005,242.346" fill="" stroke="#000000" stroke-width="0.80" />
<polyline points="106.84999999999991,212.346 116.44000000000005,212.346" fill="" stroke="#000000" stroke-width="0.80" />
<polyline points="77.79999999999995,242.346 87.3900000000001,242.346" fill="" stroke="#000000" stroke-width="0.80" />
<polyline points="77.79999999999995,212.346 87.3900000000001,212.346" fill="" stroke="#000000" stroke-width="0.80" />
<polyline points="77.79999999999995,134.846 87.3900000000001,134.846" fill="" stroke="#000000" stroke-width="0.80" />
<polyline points="77.79999999999995,139.846 87.3900000000001,139.846" fill="" stroke="#000000" stroke-width="0.80" />
<polyline points="77.79999999999995,144.846 87.3900000000001,144.846" fill="" stroke="#000000" stroke-width="0.80" />
<polyline points="77.79999999999995,149.846 87.3900000000001,149.846" fill="" stroke="#000000" stroke-width="0.80" />
<polyline points="77.79999999999995,154.846 87.3900000000001,154.846" fill="" stroke="#000000" stroke-width="0.80" />
<polyline points="77.79999999999995,159.846 87.3900000000001,159.846" fill="" stroke="#000000" stroke-width="0.80" />
<polyline points="48.75,242.346 58.32999999999993,242.346" fill="" stroke="#000000" stroke-width="0.80" />
<polyline points="48.75,212.346 58.32999999999993,212.346" fill="" stroke="#000000" stroke-width="0.80" />
<polyline points="30.589999999999918,242.346 40.180000000000064,242.346" fill="" stroke="#000000" stroke-width="0.80" />
<polyline points="30.589999999999918,212.346 40.180000000000064,212.346" fill="" stroke="#000000" stroke-width="0.80" />
<polyline points="12.440000000000055,242.346 22.019999999999982,242.346" fill="" stroke="#000000" stroke-width="0.80" />
<polyline points="12.440000000000055,212.346 22.019999999999982,212.346" fill="" stroke="#000000" stroke-width="0.80" />
<polyline points="0.0,242.346 3.8599999999999,242.346" fill="" stroke="#000000" stroke-width="0.80" />
<polyline points="0.0,212.346 3.8599999999999,212.346" fill="" stroke="#000000" stroke-width="0.80" />
<polyline points="85.8900000000001,128.346 85.8900000000001,154.846" fill="" stroke="#000000" stroke-width="0.75" />
<polyline points="85.8900000000001,105.846 85.8900000000001,102.346" fill="" stroke="#000000" stroke-width="0.75" />
<polyline points="194.9000000000001,17.346000000000004 255.0,17.346000000000004" fill="none" stroke="#000000" stroke-width="0.40" />
<polyline points="194.9000000000001,22.346000000000004 255.0,22.346000000000004" fill="none" stroke="#000000" stroke-width="0.40" />
<polyline points="194.9000000000001,27.346000000000004 255.0,27.346000000000004" fill="none" stroke="#000000" stroke-width="0.40" />
<polyline points="194.9000000000001,32.346000000000004 255.0,32.346000000000004" fill="none" stroke="#000000" stroke-width="0.40" />
<polyline points="194.9000000000001,37.346000000000004 255.0,37.346000000000004" fill="none" stroke="#000000" stroke-width="0.40" />
<polyline points="194.9000000000001,112.346 255.0,112.346" fill="none" stroke="#000000" stroke-width="0.40" />
<polyline points="194.9000000000001,117.346 255.0,117.346" fill="none" stroke="#000000" stroke-width="0.40" />
<polyline points="194.9000000000001,122.346 255.0,122.346" fill="none" stroke="#000000" stroke-width="0.40" />
<polyline points="194.9000000000001,127.346 255.0,127.346" fill="none" stroke="#000000" stroke-width="0.40" />
<polyline points="194.9000000000001,132.346 255.0,132.346" fill="none" stroke="#000000" stroke-width="0.40" />
<polyline points="194.9000000000001,164.846 255.0,164.846" fill="none" stroke="#000000" stroke-width="0.40" />
<polyline points="194.9000000000001,169.846 255.0,169.846" fill="none" stroke="#000000" stroke-width="0.40" />
<polyline points="194.9000000000001,174.846 255.0,174.846" fill="none" stroke="#000000" stroke-width="0.40" />
<polyline points="194.9000000000001,179.846 255.0,179.846" fill="none" stroke="#000000" stroke-width="0.40" />
<polyline points="194.9000000000001,184.846 255.0,184.846" fill="none" stroke="#000000" stroke-width="0.40" />
<polyline points="194.9000000000001,217.346 255.0,217.346" fill="none" stroke="#000000" stroke-width="0.40" />
<polyline points="194.9000000000001,222.346 255.0,222.346" fill="none" stroke="#000000" stroke-width="0.40" />
<polyline points="194.9000000000001,227.346 255.0,227.346" fill="none" stroke="#000000" stroke-width="0.40" />
<polyline points="194.9000000000001,232.346 255.0,232.346" fill="none" stroke="#000000" stroke-width="0.40" />
<polyline points="194.9000000000001,237.346 255.0,237.346" fill="none" stroke="#000000" stroke-width="0.40" />
<polyline points="195.29999999999995,112.346 195.29999999999995,255.0" fill="" stroke="#000000" stroke-width="0.80" />
<polyline points="195.29999999999995,0.0 195.29999999999995,37.346000000000004" fill="" stroke="#000000" stroke-width="0.80" />
<polyline points="233.49,241.57799999999997 233.49,206.096" fill="" stroke="#000000" stroke-width="0.65" />
<polyline points="227.3699999999999,160.786 227.3699999999999,177.346" fill="" stroke="#000000" stroke-width="0.65" />
<polyline points="233.30999999999995,136.40699999999998 233.30999999999995,119.846" fill="" stroke="#000000" stroke-width="0.65" />
<polyline points="236.05999999999995,16.910000000000025 236.05999999999995,49.846000000000004" fill="" stroke="#000000" stroke-width="0.65" />
<polyline points="225.3699999999999,242.346 235.30999999999995,242.346" fill="" stroke="#000000" stroke-width="0.80" />
<polyline points="225.54999999999995,159.846 235.1300000000001,159.846" fill="" stroke="#000000" stroke-width="0.80" />
<polyline points="225.54999999999995,137.346 235.1300000000001,137.346" fill="" stroke="#000000" stroke-width="0.80" />
</svg>
