<?xml version="1.0" encoding="UTF-8" standalone="yes"?>
<svg width="256.0px" height="256.0px" xmlns="http://www.w3.org/2000/svg" xmlns:xlink="http://www.w3.org/1999/xlink" version="1.2" baseProfile="tiny">
<polyline points="0.0,17.346000000000004 255.0,17.346000000000004" fill="none" stroke="#000000" stroke-width="0.40" />
<polyline points="0.0,22.346000000000004 255.0,22.346000000000004" fill="none" stroke="#000000" stroke-width="0.40" />
<polyline points="0.0,27.346000000000004 255.0,27.346000000000004" fill="none" stroke="#000000" stroke-width="0.40" />
<polyline points="0.0,32.346000000000004 255.0,32.346000000000004" fill="none" stroke="#000000" stroke-width="0.40" />
<polyline points="0.0,37.346000000000004 255.0,37.346000000000004" fill="none" stroke="#000000" stroke-width="0.40" />
<polyline points="0.0,112.346 255.0,112.346" fill="none" stroke="#000000" stroke-width="0.40" />
<polyline points="0.0,117.346 255.0,117.346" fill="none" stroke="#000000" stroke-width="0.40" />
<polyline points="0.0,122.346 255.0,122.346" fill="none" stroke="#000000" stroke-width="0.40" />
<polyline points="0.0,127.346 255.0,127.346" fill="none" stroke="#000000" stroke-width="0.40" />
<polyline points="0.0,132.346 255.0,132.346" fill="none" stroke="#000000" stroke-width="0.40" />
<polyline points="0.0,164.846 255.0,164.846" fill="none" stroke="#000000" stroke-width="0.40" />
<polyline points="0.0,169.846 255.0,169.846" fill="none" stroke="#000000" stroke-width="0.40" />
<polyline points="0.0,174.846 255.0,174.846" fill="none" stroke="#000000" stroke-width="0.40" />
<polyline points="0.0,179.846 255.0,179.846" fill="none" stroke="#000000" stroke-width="0.40" />
<polyline points="0.0,184.846 255.0,184.846" fill="none" stroke="#000000" stroke-width="0.40" />
<polyline points="0.0,217.346 255.0,217.346" fill="none" stroke="#000000" stroke-width="0.40" />
<polyline points="0.0,222.346 255.0,222.346" fill="none" stroke="#000000" stroke-width="0.40" />
<polyline points="0.0,227.346 255.0,227.346" fill="none" stroke="#000000" stroke-width="0.40" />
<polyline points="0.0,232.346 255.0,232.346" fill="none" stroke="#000000" stroke-width="0.40" />
<polyline points="0.0,237.346 255.0,237.346" fill="none" stroke="#000000" stroke-width="0.40" />
<polyline points="188.94000000000005,217.346 188.94000000000005,237.346" fill="" stroke="#000000" stroke-width="0.80" />
<polyline points="188.94000000000005,164.846 188.94000000000005,184.846" fill="" stroke="#000000" stroke-width="0.80" />
<polyline points="188.94000000000005,112.346 188.94000000000005,132.346" fill="" stroke="#000000" stroke-width="0.80" />
<polyline points="207.02999999999997,17.346000000000004 207.02999999999997,37.346000000000004" fill="" stroke="#000000" stroke-width="0.80" />
<polyline points="250.71000000000004,155.786 250.71000000000004,174.846" fill="" stroke="#000000" stroke-width="0.65" />
<polyline points="210.70000000000005,241.57799999999997 210.70000000000005,209.846" fill="" stroke="#000000" stroke-width="0.65" />
<polyline points="204.58999999999992,155.786 204.58999999999992,174.846" fill="" stroke="#000000" stroke-width="0.65" />
<polyline points="210.51999999999998,131.40699999999998 210.51999999999998,114.846" fill="" stroke="#000000" stroke-width="0.65" />
<polyline points="164.01,150.786 164.01,174.846" fill="" stroke="#000000" stroke-width="0.65" />
<polyline points="169.94000000000005,131.40699999999998 169.94000000000005,110.471" fill="" stroke="#000000" stroke-width="0.65" />
<polyline points="89.33999999999992,244.07799999999997 89.33999999999992,207.971" fill="" stroke="#000000" stroke-width="0.65" />
<polyline points="52.16000000000008,150.786 52.16000000000008,174.846" fill="" stroke="#000000" stroke-width="0.65" />
<polyline points="52.16000000000008,128.286 52.16000000000008,142.346" fill="" stroke="#000000" stroke-width="0.65" />
<polyline points="36.61999999999989,138.286 36.61999999999989,174.221" fill="" stroke="#000000" stroke-width="0.65" />
<polyline points="36.61999999999989,115.786 36.61999999999989,139.221" fill="" stroke="#000000" stroke-width="0.65" />
<polyline points="21.089999999999918,135.786 21.089999999999918,173.596" fill="" stroke="#000000" stroke-width="0.65" />
<polyline points="21.089999999999918,113.286 21.089999999999918,136.096" fill="" stroke="#000000" stroke-width="0.65" />
<polyline points="254.83999999999992,16.910000000000025 254.83999999999992,48.596000000000004" fill="" stroke="#000000" stroke-width="0.65" />
<polyline points="231.76,16.910000000000025 231.76,51.096000000000004" fill="" stroke="#000000" stroke-width="0.65" />
<polyline points="182.51,16.910000000000025 182.51,48.596000000000004" fill="" stroke="#000000" stroke-width="0.65" />
<polyline points="158.05999999999995,16.910000000000025 158.05999999999995,48.596000000000004" fill="" stroke="#000000" stroke-width="0.65" />
<polyline points="127.50999999999999,16.910000000000025 127.50999999999999,48.596000000000004" fill="" stroke="#000000" stroke-width="0.65" />
<polyline points="96.95000000000005,16.910000000000025 96.95000000000005,48.596000000000004" fill="" stroke="#000000" stroke-width="0.65" />
<polyline points="35.059999999999945,16.910000000000025 35.059999999999945,41.096000000000004" fill="" stroke="#000000" stroke-width="0.65" />
<polyline points="4.509999999999991,16.910000000000025 4.509999999999991,49.846000000000004" fill="" stroke="#000000" stroke-width="0.65" />
<polyline points="248.8800000000001,154.846 255.0,154.846" fill="" stroke="#000000" stroke-width="0.80" />
<polyline points="248.8800000000001,159.846 255.0,159.846" fill="" stroke="#000000" stroke-width="0.80" />
<polyline points="202.57999999999993,242.346 212.52999999999997,242.346" fill="" stroke="#000000" stroke-width="0.80" />
<polyline points="202.76,154.846 212.3499999999999,154.846" fill="" stroke="#000000" stroke-width="0.80" />
<polyline points="202.76,159.846 212.3499999999999,159.846" fill="" stroke="#000000" stroke-width="0.80" />
<polyline points="162.18000000000006,149.846 171.76999999999998,149.846" fill="" stroke="#000000" stroke-width="0.80" />
<polyline points="162.18000000000006,154.846 171.76999999999998,154.846" fill="" stroke="#000000" stroke-width="0.80" />
<polyline points="162.18000000000006,159.846 171.76999999999998,159.846" fill="" stroke="#000000" stroke-width="0.80" />
<polyline points="81.22000000000003,242.346 91.17000000000007,242.346" fill="" stroke="#000000" stroke-width="0.80" />
<polyline points="50.32999999999993,149.846 59.92000000000007,149.846" fill="" stroke="#000000" stroke-width="0.80" />
<polyline points="50.32999999999993,154.846 59.92000000000007,154.846" fill="" stroke="#000000" stroke-width="0.80" />
<polyline points="50.32999999999993,159.846 59.92000000000007,159.846" fill="" stroke="#000000" stroke-width="0.80" />
<polyline points="34.799999999999955,139.846 44.38000000000011,139.846" fill="" stroke="#000000" stroke-width="0.80" />
<polyline points="34.799999999999955,144.846 44.38000000000011,144.846" fill="" stroke="#000000" stroke-width="0.80" />
<polyline points="34.799999999999955,149.846 44.38000000000011,149.846" fill="" stroke="#000000" stroke-width="0.80" />
<polyline points="34.799999999999955,154.846 44.38000000000011,154.846" fill="" stroke="#000000" stroke-width="0.80" />
<polyline points="34.799999999999955,159.846 44.38000000000011,159.846" fill="" stroke="#000000" stroke-width="0.80" />
<polyline points="19.25999999999999,134.846 28.84999999999991,134.846" fill="" stroke="#000000" stroke-width="0.80" />
<polyline points="19.25999999999999,139.846 28.84999999999991,139.846" fill="" stroke="#000000" stroke-width="0.80" />
<polyline points="19.25999999999999,144.846 28.84999999999991,144.846" fill="" stroke="#000000" stroke-width="0.80" />
<polyline points="19.25999999999999,149.846 28.84999999999991,149.846" fill="" stroke="#000000" stroke-width="0.80" />
<polyline points="19.25999999999999,154.846 28.84999999999991,154.846" fill="" stroke="#000000" stroke-width="0.80" />
<polyline points="19.25999999999999,159.846 28.84999999999991,159.846" fill="" stroke="#000000" stroke-width="0.80" />
</svg>
