<?xml version="1.0" encoding="UTF-8" standalone="yes"?>
<svg width="256.0px" height="256.0px" xmlns="http://www.w3.org/2000/svg" xmlns:xlink="http://www.w3.org/1999/xlink" version="1.2" baseProfile="tiny">
<polyline points="0.0,17.346000000000004 5.5,17.346000000000004" fill="none" stroke="#000000" stroke-width="0.40" />
<polyline points="0.0,22.346000000000004 5.5,22.346000000000004" fill="none" stroke="#000000" stroke-width="0.40" />
<polyline points="0.0,27.346000000000004 5.5,27.346000000000004" fill="none" stroke="#000000" stroke-width="0.40" />
<polyline points="0.0,32.346000000000004 5.5,32.346000000000004" fill="none" stroke="#000000" stroke-width="0.40" />
<polyline points="0.0,37.346000000000004 5.5,37.346000000000004" fill="none" stroke="#000000" stroke-width="0.40" />
<polyline points="0.0,112.346 5.5,112.346" fill="none" stroke="#000000" stroke-width="0.40" />
<polyline points="0.0,117.346 5.5,117.346" fill="none" stroke="#000000" stroke-width="0.40" />
<polyline points="0.0,122.346 5.5,122.346" fill="none" stroke="#000000" stroke-width="0.40" />
<polyline points="0.0,127.346 5.5,127.346" fill="none" stroke="#000000" stroke-width="0.40" />
<polyline points="0.0,132.346 5.5,132.346" fill="none" stroke="#000000" stroke-width="0.40" />
<polyline points="0.0,164.846 5.5,164.846" fill="none" stroke="#000000" stroke-width="0.40" />
<polyline points="0.0,169.846 5.5,169.846" fill="none" stroke="#000000" stroke-width="0.40" />
<polyline points="0.0,174.846 5.5,174.846" fill="none" stroke="#000000" stroke-width="0.40" />
<polyline points="0.0,179.846 5.5,179.846" fill="none" stroke="#000000" stroke-width="0.40" />
<polyline points="0.0,184.846 5.5,184.846" fill="none" stroke="#000000" stroke-width="0.40" />
<polyline points="0.0,217.346 5.5,217.346" fill="none" stroke="#000000" stroke-width="0.40" />
<polyline points="0.0,222.346 5.5,222.346" fill="none" stroke="#000000" stroke-width="0.40" />
<polyline points="0.0,227.346 5.5,227.346" fill="none" stroke="#000000" stroke-width="0.40" />
<polyline points="0.0,232.346 5.5,232.346" fill="none" stroke="#000000" stroke-width="0.40" />
<polyline points="0.0,237.346 5.5,237.346" fill="none" stroke="#000000" stroke-width="0.40" />
<polyline points="5.100000000000364,217.346 5.100000000000364,237.346" fill="" stroke="#000000" stroke-width="0.80" />
<polyline points="5.100000000000364,164.846 5.100000000000364,184.846" fill="" stroke="#000000" stroke-width="0.80" />
<polyline points="5.100000000000364,112.346 5.100000000000364,132.346" fill="" stroke="#000000" stroke-width="0.80" />
<polyline points="5.100000000000364,17.346000000000004 5.100000000000364,37.346000000000004" fill="" stroke="#000000" stroke-width="0.80" />
<polyline points="62.20000000000073,17.346000000000004 255.0,17.346000000000004" fill="none" stroke="#000000" stroke-width="0.40" />
<polyline points="62.20000000000073,22.346000000000004 255.0,22.346000000000004" fill="none" stroke="#000000" stroke-width="0.40" />
<polyline points="62.20000000000073,27.346000000000004 255.0,27.346000000000004" fill="none" stroke="#000000" stroke-width="0.40" />
<polyline points="62.20000000000073,32.346000000000004 255.0,32.346000000000004" fill="none" stroke="#000000" stroke-width="0.40" />
<polyline points="62.20000000000073,37.346000000000004 255.0,37.346000000000004" fill="none" stroke="#000000" stroke-width="0.40" />
<polyline points="62.20000000000073,112.346 255.0,112.346" fill="none" stroke="#000000" stroke-width="0.40" />
<polyline points="62.20000000000073,117.346 255.0,117.346" fill="none" stroke="#000000" stroke-width="0.40" />
<polyline points="62.20000000000073,122.346 255.0,122.346" fill="none" stroke="#000000" stroke-width="0.40" />
<polyline points="62.20000000000073,127.346 255.0,127.346" fill="none" stroke="#000000" stroke-width="0.40" />
<polyline points="62.20000000000073,132.346 255.0,132.346" fill="none" stroke="#000000" stroke-width="0.40" />
<polyline points="62.20000000000073,164.846 255.0,164.846" fill="none" stroke="#000000" stroke-width="0.40" />
<polyline points="62.20000000000073,169.846 255.0,169.846" fill="none" stroke="#000000" stroke-width="0.40" />
<polyline points="62.20000000000073,174.846 255.0,174.846" fill="none" stroke="#000000" stroke-width="0.40" />
<polyline points="62.20000000000073,179.846 255.0,179.846" fill="none" stroke="#000000" stroke-width="0.40" />
<polyline points="62.20000000000073,184.846 255.0,184.846" fill="none" stroke="#000000" stroke-width="0.40" />
<polyline points="62.20000000000073,217.346 255.0,217.346" fill="none" stroke="#000000" stroke-width="0.40" />
<polyline points="62.20000000000073,222.346 255.0,222.346" fill="none" stroke="#000000" stroke-width="0.40" />
<polyline points="62.20000000000073,227.346 255.0,227.346" fill="none" stroke="#000000" stroke-width="0.40" />
<polyline points="62.20000000000073,232.346 255.0,232.346" fill="none" stroke="#000000" stroke-width="0.40" />
<polyline points="62.20000000000073,237.346 255.0,237.346" fill="none" stroke="#000000" stroke-width="0.40" />
<polyline points="62.600000000000364,112.346 62.600000000000364,255.0" fill="" stroke="#000000" stroke-width="0.80" />
<polyline points="62.600000000000364,0.0 62.600000000000364,37.346000000000004" fill="" stroke="#000000" stroke-width="0.80" />
<polyline points="253.70000000000073,240.36200000000002 253.70000000000073,203.596" fill="" stroke="#000000" stroke-width="0.65" />
<polyline points="239.5,240.36200000000002 239.5,203.596" fill="" stroke="#000000" stroke-width="0.65" />
<polyline points="225.29999999999927,240.36200000000002 225.29999999999927,203.596" fill="" stroke="#000000" stroke-width="0.65" />
<polyline points="211.0,240.36200000000002 211.0,203.596" fill="" stroke="#000000" stroke-width="0.65" />
<polyline points="204.89999999999964,123.13 204.89999999999964,174.846" fill="" stroke="#000000" stroke-width="0.65" />
<polyline points="204.89999999999964,100.63 204.89999999999964,122.346" fill="" stroke="#000000" stroke-width="0.65" />
<polyline points="176.70000000000073,123.286 176.70000000000073,173.596" fill="" stroke="#000000" stroke-width="0.65" />
<polyline points="176.70000000000073,100.786 176.70000000000073,121.096" fill="" stroke="#000000" stroke-width="0.65" />
<polyline points="154.20000000000073,241.40699999999998 154.20000000000073,206.096" fill="" stroke="#000000" stroke-width="0.65" />
<polyline points="148.20000000000073,123.286 148.20000000000073,173.596" fill="" stroke="#000000" stroke-width="0.65" />
<polyline points="148.20000000000073,100.786 148.20000000000073,121.096" fill="" stroke="#000000" stroke-width="0.65" />
<polyline points="119.79999999999927,123.286 119.79999999999927,173.596" fill="" stroke="#000000" stroke-width="0.65" />
<polyline points="119.79999999999927,100.786 119.79999999999927,121.096" fill="" stroke="#000000" stroke-width="0.65" />
<polyline points="103.0,241.40699999999998 103.0,206.096" fill="" stroke="#000000" stroke-width="0.65" />
<polyline points="249.39999999999964,16.910000000000025 249.39999999999964,49.846000000000004" fill="" stroke="#000000" stroke-width="0.65" />
<polyline points="217.39999999999964,16.910000000000025 217.39999999999964,49.846000000000004" fill="" stroke="#000000" stroke-width="0.65" />
<polyline points="201.70000000000073,25.786 201.70000000000073,41.096000000000004" fill="" stroke="#000000" stroke-width="0.65" />
<polyline points="185.29999999999927,16.910000000000025 185.29999999999927,41.096000000000004" fill="" stroke="#000000" stroke-width="0.65" />
<polyline points="159.70000000000073,16.910000000000025 159.70000000000073,41.096000000000004" fill="" stroke="#000000" stroke-width="0.65" />
<polyline points="126.0,16.910000000000025 126.0,49.846000000000004" fill="" stroke="#000000" stroke-width="0.65" />
<polyline points="100.39999999999964,16.910000000000025 100.39999999999964,49.846000000000004" fill="" stroke="#000000" stroke-width="0.65" />
<polyline points="245.89999999999964,242.346 255.5,242.346" fill="" stroke="#000000" stroke-width="0.80" />
<polyline points="231.70000000000073,242.346 241.29999999999927,242.346" fill="" stroke="#000000" stroke-width="0.80" />
<polyline points="217.5,242.346 227.10000000000036,242.346" fill="" stroke="#000000" stroke-width="0.80" />
<polyline points="203.29999999999927,242.346 212.89999999999964,242.346" fill="" stroke="#000000" stroke-width="0.80" />
<polyline points="196.79999999999927,124.846 213.0,124.846" fill="" stroke="#000000" stroke-width="0.80" />
<polyline points="196.79999999999927,129.846 213.0,129.846" fill="" stroke="#000000" stroke-width="0.80" />
<polyline points="196.79999999999927,134.846 213.0,134.846" fill="" stroke="#000000" stroke-width="0.80" />
<polyline points="196.79999999999927,139.846 213.0,139.846" fill="" stroke="#000000" stroke-width="0.80" />
<polyline points="196.79999999999927,144.846 213.0,144.846" fill="" stroke="#000000" stroke-width="0.80" />
<polyline points="196.79999999999927,149.846 213.0,149.846" fill="" stroke="#000000" stroke-width="0.80" />
<polyline points="196.79999999999927,154.846 213.0,154.846" fill="" stroke="#000000" stroke-width="0.80" />
<polyline points="196.79999999999927,159.846 213.0,159.846" fill="" stroke="#000000" stroke-width="0.80" />
<polyline points="196.79999999999927,102.346 213.0,102.346" fill="" stroke="#000000" stroke-width="0.80" />
<polyline points="196.79999999999927,107.346 213.0,107.346" fill="" stroke="#000000" stroke-width="0.80" />
<polyline points="168.89999999999964,124.846 184.39999999999964,124.846" fill="" stroke="#000000" stroke-width="0.80" />
<polyline points="168.89999999999964,129.846 184.39999999999964,129.846" fill="" stroke="#000000" stroke-width="0.80" />
<polyline points="168.89999999999964,134.846 184.39999999999964,134.846" fill="" stroke="#000000" stroke-width="0.80" />
<polyline points="168.89999999999964,139.846 184.39999999999964,139.846" fill="" stroke="#000000" stroke-width="0.80" />
<polyline points="168.89999999999964,144.846 184.39999999999964,144.846" fill="" stroke="#000000" stroke-width="0.80" />
<polyline points="168.89999999999964,149.846 184.39999999999964,149.846" fill="" stroke="#000000" stroke-width="0.80" />
<polyline points="168.89999999999964,154.846 184.39999999999964,154.846" fill="" stroke="#000000" stroke-width="0.80" />
<polyline points="168.89999999999964,159.846 184.39999999999964,159.846" fill="" stroke="#000000" stroke-width="0.80" />
<polyline points="168.89999999999964,102.346 184.39999999999964,102.346" fill="" stroke="#000000" stroke-width="0.80" />
<polyline points="168.89999999999964,107.346 184.39999999999964,107.346" fill="" stroke="#000000" stroke-width="0.80" />
<polyline points="146.39999999999964,242.346 156.0,242.346" fill="" stroke="#000000" stroke-width="0.80" />
<polyline points="140.5,124.846 156.0,124.846" fill="" stroke="#000000" stroke-width="0.80" />
<polyline points="140.5,129.846 156.0,129.846" fill="" stroke="#000000" stroke-width="0.80" />
<polyline points="140.5,134.846 156.0,134.846" fill="" stroke="#000000" stroke-width="0.80" />
<polyline points="140.5,139.846 156.0,139.846" fill="" stroke="#000000" stroke-width="0.80" />
<polyline points="140.5,144.846 156.0,144.846" fill="" stroke="#000000" stroke-width="0.80" />
<polyline points="140.5,149.846 156.0,149.846" fill="" stroke="#000000" stroke-width="0.80" />
<polyline points="140.5,154.846 156.0,154.846" fill="" stroke="#000000" stroke-width="0.80" />
<polyline points="140.5,159.846 156.0,159.846" fill="" stroke="#000000" stroke-width="0.80" />
<polyline points="140.5,102.346 156.0,102.346" fill="" stroke="#000000" stroke-width="0.80" />
<polyline points="140.5,107.346 156.0,107.346" fill="" stroke="#000000" stroke-width="0.80" />
<polyline points="112.0,124.846 127.5,124.846" fill="" stroke="#000000" stroke-width="0.80" />
<polyline points="112.0,129.846 127.5,129.846" fill="" stroke="#000000" stroke-width="0.80" />
<polyline points="112.0,134.846 127.5,134.846" fill="" stroke="#000000" stroke-width="0.80" />
<polyline points="112.0,139.846 127.5,139.846" fill="" stroke="#000000" stroke-width="0.80" />
<polyline points="112.0,144.846 127.5,144.846" fill="" stroke="#000000" stroke-width="0.80" />
<polyline points="112.0,149.846 127.5,149.846" fill="" stroke="#000000" stroke-width="0.80" />
<polyline points="112.0,154.846 127.5,154.846" fill="" stroke="#000000" stroke-width="0.80" />
<polyline points="112.0,159.846 127.5,159.846" fill="" stroke="#000000" stroke-width="0.80" />
<polyline points="112.0,102.346 127.5,102.346" fill="" stroke="#000000" stroke-width="0.80" />
<polyline points="112.0,107.346 127.5,107.346" fill="" stroke="#000000" stroke-width="0.80" />
<polyline points="95.20000000000073,242.346 104.79999999999927,242.346" fill="" stroke="#000000" stroke-width="0.80" />
<polyline points="205.29999999999927,120.846 205.29999999999927,154.846" fill="" stroke="#000000" stroke-width="0.75" />
<polyline points="205.29999999999927,98.346 205.29999999999927,102.346" fill="" stroke="#000000" stroke-width="0.75" />
<polyline points="177.0,120.846 177.0,154.846" fill="" stroke="#000000" stroke-width="0.75" />
<polyline points="177.0,98.346 177.0,102.346" fill="" stroke="#000000" stroke-width="0.75" />
<polyline points="148.60000000000036,120.846 148.60000000000036,154.846" fill="" stroke="#000000" stroke-width="0.75" />
<polyline points="148.60000000000036,98.346 148.60000000000036,102.346" fill="" stroke="#000000" stroke-width="0.75" />
</svg>
