<?xml version="1.0" encoding="UTF-8" standalone="yes"?>
<svg width="256.0px" height="256.0px" xmlns="http://www.w3.org/2000/svg" xmlns:xlink="http://www.w3.org/1999/xlink" version="1.2" baseProfile="tiny">
<polyline points="0.0,63.3465 95.0,63.3465" fill="none" stroke="#000000" stroke-width="0.40" />
<polyline points="0.0,68.3465 95.0,68.3465" fill="none" stroke="#000000" stroke-width="0.40" />
<polyline points="0.0,73.3465 95.0,73.3465" fill="none" stroke="#000000" stroke-width="0.40" />
<polyline points="0.0,78.3465 95.0,78.3465" fill="none" stroke="#000000" stroke-width="0.40" />
<polyline points="0.0,83.3465 95.0,83.3465" fill="none" stroke="#000000" stroke-width="0.40" />
<polyline points="0.0,115.846 95.0,115.846" fill="none" stroke="#000000" stroke-width="0.40" />
<polyline points="0.0,120.846 95.0,120.846" fill="none" stroke="#000000" stroke-width="0.40" />
<polyline points="0.0,125.846 95.0,125.846" fill="none" stroke="#000000" stroke-width="0.40" />
<polyline points="0.0,130.846 95.0,130.846" fill="none" stroke="#000000" stroke-width="0.40" />
<polyline points="0.0,135.846 95.0,135.846" fill="none" stroke="#000000" stroke-width="0.40" />
<polyline points="0.0,168.346 95.0,168.346" fill="none" stroke="#000000" stroke-width="0.40" />
<polyline points="0.0,173.346 95.0,173.346" fill="none" stroke="#000000" stroke-width="0.40" />
<polyline points="0.0,178.346 95.0,178.346" fill="none" stroke="#000000" stroke-width="0.40" />
<polyline points="0.0,183.346 95.0,183.346" fill="none" stroke="#000000" stroke-width="0.40" />
<polyline points="0.0,188.346 95.0,188.346" fill="none" stroke="#000000" stroke-width="0.40" />
<polyline points="0.0,220.846 95.0,220.846" fill="none" stroke="#000000" stroke-width="0.40" />
<polyline points="0.0,225.846 95.0,225.846" fill="none" stroke="#000000" stroke-width="0.40" />
<polyline points="0.0,230.846 95.0,230.846" fill="none" stroke="#000000" stroke-width="0.40" />
<polyline points="0.0,235.846 95.0,235.846" fill="none" stroke="#000000" stroke-width="0.40" />
<polyline points="0.0,240.846 95.0,240.846" fill="none" stroke="#000000" stroke-width="0.40" />
<polyline points="94.60000000000036,220.846 94.60000000000036,240.846" fill="" stroke="#000000" stroke-width="0.80" />
<polyline points="94.60000000000036,168.346 94.60000000000036,188.346" fill="" stroke="#000000" stroke-width="0.80" />
<polyline points="94.60000000000036,115.846 94.60000000000036,135.846" fill="" stroke="#000000" stroke-width="0.80" />
<polyline points="94.60000000000036,63.3465 94.60000000000036,83.3465" fill="" stroke="#000000" stroke-width="0.80" />
<polyline points="75.60000000000036,234.907 75.60000000000036,220.846" fill="" stroke="#000000" stroke-width="0.65" />
<polyline points="60.100000000000364,239.907 60.100000000000364,220.846" fill="" stroke="#000000" stroke-width="0.65" />
<polyline points="44.600000000000364,234.907 44.600000000000364,220.846" fill="" stroke="#000000" stroke-width="0.65" />
<polyline points="38.600000000000364,96.7855 38.600000000000364,125.846" fill="" stroke="#000000" stroke-width="0.65" />
<polyline points="44.600000000000364,79.9074 44.600000000000364,57.7215" fill="" stroke="#000000" stroke-width="0.65" />
<polyline points="19.700000000000728,234.907 19.700000000000728,220.846" fill="" stroke="#000000" stroke-width="0.65" />
<polyline points="13.799999999999272,96.7855 13.799999999999272,125.846" fill="" stroke="#000000" stroke-width="0.65" />
<polyline points="13.799999999999272,74.2855 13.799999999999272,90.8465" fill="" stroke="#000000" stroke-width="0.65" />
<polyline points="36.79999999999927,95.8465 46.399999999999636,95.8465" fill="" stroke="#000000" stroke-width="0.80" />
<polyline points="36.79999999999927,100.846 46.399999999999636,100.846" fill="" stroke="#000000" stroke-width="0.80" />
<polyline points="36.79999999999927,105.846 46.399999999999636,105.846" fill="" stroke="#000000" stroke-width="0.80" />
<polyline points="36.79999999999927,110.846 46.399999999999636,110.846" fill="" stroke="#000000" stroke-width="0.80" />
<polyline points="12.0,95.8465 21.5,95.8465" fill="" stroke="#000000" stroke-width="0.80" />
<polyline points="12.0,100.846 21.5,100.846" fill="" stroke="#000000" stroke-width="0.80" />
<polyline points="12.0,105.846 21.5,105.846" fill="" stroke="#000000" stroke-width="0.80" />
<polyline points="12.0,110.846 21.5,110.846" fill="" stroke="#000000" stroke-width="0.80" />
<polyline points="151.70000000000073,63.3465 255.0,63.3465" fill="none" stroke="#000000" stroke-width="0.40" />
<polyline points="151.70000000000073,68.3465 255.0,68.3465" fill="none" stroke="#000000" stroke-width="0.40" />
<polyline points="151.70000000000073,73.3465 255.0,73.3465" fill="none" stroke="#000000" stroke-width="0.40" />
<polyline points="151.70000000000073,78.3465 255.0,78.3465" fill="none" stroke="#000000" stroke-width="0.40" />
<polyline points="151.70000000000073,83.3465 255.0,83.3465" fill="none" stroke="#000000" stroke-width="0.40" />
<polyline points="151.70000000000073,115.846 255.0,115.846" fill="none" stroke="#000000" stroke-width="0.40" />
<polyline points="151.70000000000073,120.846 255.0,120.846" fill="none" stroke="#000000" stroke-width="0.40" />
<polyline points="151.70000000000073,125.846 255.0,125.846" fill="none" stroke="#000000" stroke-width="0.40" />
<polyline points="151.70000000000073,130.846 255.0,130.846" fill="none" stroke="#000000" stroke-width="0.40" />
<polyline points="151.70000000000073,135.846 255.0,135.846" fill="none" stroke="#000000" stroke-width="0.40" />
<polyline points="151.70000000000073,168.346 255.0,168.346" fill="none" stroke="#000000" stroke-width="0.40" />
<polyline points="151.70000000000073,173.346 255.0,173.346" fill="none" stroke="#000000" stroke-width="0.40" />
<polyline points="151.70000000000073,178.346 255.0,178.346" fill="none" stroke="#000000" stroke-width="0.40" />
<polyline points="151.70000000000073,183.346 255.0,183.346" fill="none" stroke="#000000" stroke-width="0.40" />
<polyline points="151.70000000000073,188.346 255.0,188.346" fill="none" stroke="#000000" stroke-width="0.40" />
<polyline points="151.70000000000073,220.846 255.0,220.846" fill="none" stroke="#000000" stroke-width="0.40" />
<polyline points="151.70000000000073,225.846 255.0,225.846" fill="none" stroke="#000000" stroke-width="0.40" />
<polyline points="151.70000000000073,230.846 255.0,230.846" fill="none" stroke="#000000" stroke-width="0.40" />
<polyline points="151.70000000000073,235.846 255.0,235.846" fill="none" stroke="#000000" stroke-width="0.40" />
<polyline points="151.70000000000073,240.846 255.0,240.846" fill="none" stroke="#000000" stroke-width="0.40" />
<polyline points="152.10000000000036,63.3465 152.10000000000036,255.0" fill="" stroke="#000000" stroke-width="0.80" />
<polyline points="254.60000000000036,239.907 254.60000000000036,225.846" fill="" stroke="#000000" stroke-width="0.65" />
<polyline points="248.60000000000036,94.2855 248.60000000000036,125.846" fill="" stroke="#000000" stroke-width="0.65" />
<polyline points="254.60000000000036,77.4074 254.60000000000036,55.8465" fill="" stroke="#000000" stroke-width="0.65" />
<polyline points="196.70000000000073,239.907 196.70000000000073,223.346" fill="" stroke="#000000" stroke-width="0.65" />
<polyline points="196.89999999999964,192.578 196.89999999999964,160.846" fill="" stroke="#000000" stroke-width="0.65" />
<polyline points="240.89999999999964,95.8465 255.0,95.8465" fill="" stroke="#000000" stroke-width="0.80" />
<polyline points="240.89999999999964,100.846 255.0,100.846" fill="" stroke="#000000" stroke-width="0.80" />
<polyline points="240.89999999999964,105.846 255.0,105.846" fill="" stroke="#000000" stroke-width="0.80" />
<polyline points="240.89999999999964,110.846 255.0,110.846" fill="" stroke="#000000" stroke-width="0.80" />
<polyline points="188.79999999999927,193.346 198.70000000000073,193.346" fill="" stroke="#000000" stroke-width="0.80" />
</svg>
