<?xml version="1.0" encoding="UTF-8" standalone="yes"?>
<svg width="256.0px" height="256.0px" xmlns="http://www.w3.org/2000/svg" xmlns:xlink="http://www.w3.org/1999/xlink" version="1.2" baseProfile="tiny">
<polyline points="0.0,17.346000000000004 255.0,17.346000000000004" fill="none" stroke="#000000" stroke-width="0.40" />
<polyline points="0.0,22.346000000000004 255.0,22.346000000000004" fill="none" stroke="#000000" stroke-width="0.40" />
<polyline points="0.0,27.346000000000004 255.0,27.346000000000004" fill="none" stroke="#000000" stroke-width="0.40" />
<polyline points="0.0,32.346000000000004 255.0,32.346000000000004" fill="none" stroke="#000000" stroke-width="0.40" />
<polyline points="0.0,37.346000000000004 255.0,37.346000000000004" fill="none" stroke="#000000" stroke-width="0.40" />
<polyline points="0.0,112.346 255.0,112.346" fill="none" stroke="#000000" stroke-width="0.40" />
<polyline points="0.0,117.346 255.0,117.346" fill="none" stroke="#000000" stroke-width="0.40" />
<polyline points="0.0,122.346 255.0,122.346" fill="none" stroke="#000000" stroke-width="0.40" />
<polyline points="0.0,127.346 255.0,127.346" fill="none" stroke="#000000" stroke-width="0.40" />
<polyline points="0.0,132.346 255.0,132.346" fill="none" stroke="#000000" stroke-width="0.40" />
<polyline points="0.0,164.846 255.0,164.846" fill="none" stroke="#000000" stroke-width="0.40" />
<polyline points="0.0,169.846 255.0,169.846" fill="none" stroke="#000000" stroke-width="0.40" />
<polyline points="0.0,174.846 255.0,174.846" fill="none" stroke="#000000" stroke-width="0.40" />
<polyline points="0.0,179.846 255.0,179.846" fill="none" stroke="#000000" stroke-width="0.40" />
<polyline points="0.0,184.846 255.0,184.846" fill="none" stroke="#000000" stroke-width="0.40" />
<polyline points="0.0,217.346 255.0,217.346" fill="none" stroke="#000000" stroke-width="0.40" />
<polyline points="0.0,222.346 255.0,222.346" fill="none" stroke="#000000" stroke-width="0.40" />
<polyline points="0.0,227.346 255.0,227.346" fill="none" stroke="#000000" stroke-width="0.40" />
<polyline points="0.0,232.346 255.0,232.346" fill="none" stroke="#000000" stroke-width="0.40" />
<polyline points="0.0,237.346 255.0,237.346" fill="none" stroke="#000000" stroke-width="0.40" />
<polyline points="191.89999999999964,217.346 191.89999999999964,237.346" fill="" stroke="#000000" stroke-width="0.80" />
<polyline points="191.89999999999964,164.846 191.89999999999964,184.846" fill="" stroke="#000000" stroke-width="0.80" />
<polyline points="191.89999999999964,112.346 191.89999999999964,132.346" fill="" stroke="#000000" stroke-width="0.80" />
<polyline points="207.5,17.346000000000004 207.5,37.346000000000004" fill="" stroke="#000000" stroke-width="0.80" />
<polyline points="252.70000000000073,135.786 252.70000000000073,173.596" fill="" stroke="#000000" stroke-width="0.65" />
<polyline points="252.70000000000073,113.286 252.70000000000073,137.346" fill="" stroke="#000000" stroke-width="0.65" />
<polyline points="207.0,241.57799999999997 207.0,206.096" fill="" stroke="#000000" stroke-width="0.65" />
<polyline points="174.89999999999964,153.286 174.89999999999964,174.846" fill="" stroke="#000000" stroke-width="0.65" />
<polyline points="174.89999999999964,130.786 174.89999999999964,146.096" fill="" stroke="#000000" stroke-width="0.65" />
<polyline points="163.89999999999964,241.40699999999998 163.89999999999964,212.346" fill="" stroke="#000000" stroke-width="0.65" />
<polyline points="158.0,150.786 158.0,174.43" fill="" stroke="#000000" stroke-width="0.65" />
<polyline points="158.0,128.286 158.0,144.43" fill="" stroke="#000000" stroke-width="0.65" />
<polyline points="130.10000000000036,243.90699999999998 130.10000000000036,207.346" fill="" stroke="#000000" stroke-width="0.65" />
<polyline points="124.20000000000073,138.286 124.20000000000073,173.596" fill="" stroke="#000000" stroke-width="0.65" />
<polyline points="124.20000000000073,115.786 124.20000000000073,141.096" fill="" stroke="#000000" stroke-width="0.65" />
<polyline points="113.20000000000073,243.90699999999998 113.20000000000073,207.346" fill="" stroke="#000000" stroke-width="0.65" />
<polyline points="107.20000000000073,135.786 107.20000000000073,173.596" fill="" stroke="#000000" stroke-width="0.65" />
<polyline points="107.20000000000073,113.286 107.20000000000073,136.096" fill="" stroke="#000000" stroke-width="0.65" />
<polyline points="96.29999999999927,243.90699999999998 96.29999999999927,207.346" fill="" stroke="#000000" stroke-width="0.65" />
<polyline points="90.29999999999927,138.286 90.29999999999927,174.846" fill="" stroke="#000000" stroke-width="0.65" />
<polyline points="90.29999999999927,115.786 90.29999999999927,137.346" fill="" stroke="#000000" stroke-width="0.65" />
<polyline points="56.5,150.786 56.5,174.846" fill="" stroke="#000000" stroke-width="0.65" />
<polyline points="62.399999999999636,126.40699999999998 62.399999999999636,109.846" fill="" stroke="#000000" stroke-width="0.65" />
<polyline points="39.600000000000364,143.286 39.600000000000364,173.596" fill="" stroke="#000000" stroke-width="0.65" />
<polyline points="39.600000000000364,120.786 39.600000000000364,137.346" fill="" stroke="#000000" stroke-width="0.65" />
<polyline points="22.700000000000728,145.786 22.700000000000728,173.596" fill="" stroke="#000000" stroke-width="0.65" />
<polyline points="22.700000000000728,123.286 22.700000000000728,137.346" fill="" stroke="#000000" stroke-width="0.65" />
<polyline points="5.799999999999272,135.786 5.799999999999272,173.596" fill="" stroke="#000000" stroke-width="0.65" />
<polyline points="5.799999999999272,113.286 5.799999999999272,137.346" fill="" stroke="#000000" stroke-width="0.65" />
<polyline points="240.0,16.910000000000025 240.0,49.096000000000004" fill="" stroke="#000000" stroke-width="0.65" />
<polyline points="216.5,16.910000000000025 216.5,51.096000000000004" fill="" stroke="#000000" stroke-width="0.65" />
<polyline points="178.5,16.910000000000025 178.5,43.596000000000004" fill="" stroke="#000000" stroke-width="0.65" />
<polyline points="142.29999999999927,16.910000000000025 142.29999999999927,46.096000000000004" fill="" stroke="#000000" stroke-width="0.65" />
<polyline points="106.10000000000036,16.910000000000025 106.10000000000036,48.596000000000004" fill="" stroke="#000000" stroke-width="0.65" />
<polyline points="70.0,16.910000000000025 70.0,51.096000000000004" fill="" stroke="#000000" stroke-width="0.65" />
<polyline points="21.600000000000364,16.910000000000025 21.600000000000364,43.596000000000004" fill="" stroke="#000000" stroke-width="0.65" />
<polyline points="250.79999999999927,134.846 255.0,134.846" fill="" stroke="#000000" stroke-width="0.80" />
<polyline points="250.79999999999927,139.846 255.0,139.846" fill="" stroke="#000000" stroke-width="0.80" />
<polyline points="250.79999999999927,144.846 255.0,144.846" fill="" stroke="#000000" stroke-width="0.80" />
<polyline points="250.79999999999927,149.846 255.0,149.846" fill="" stroke="#000000" stroke-width="0.80" />
<polyline points="250.79999999999927,154.846 255.0,154.846" fill="" stroke="#000000" stroke-width="0.80" />
<polyline points="250.79999999999927,159.846 255.0,159.846" fill="" stroke="#000000" stroke-width="0.80" />
<polyline points="198.89999999999964,242.346 208.79999999999927,242.346" fill="" stroke="#000000" stroke-width="0.80" />
<polyline points="173.10000000000036,154.846 182.60000000000036,154.846" fill="" stroke="#000000" stroke-width="0.80" />
<polyline points="173.10000000000036,159.846 182.60000000000036,159.846" fill="" stroke="#000000" stroke-width="0.80" />
<polyline points="156.10000000000036,242.346 165.70000000000073,242.346" fill="" stroke="#000000" stroke-width="0.80" />
<polyline points="156.10000000000036,149.846 165.70000000000073,149.846" fill="" stroke="#000000" stroke-width="0.80" />
<polyline points="156.10000000000036,154.846 165.70000000000073,154.846" fill="" stroke="#000000" stroke-width="0.80" />
<polyline points="156.10000000000036,159.846 165.70000000000073,159.846" fill="" stroke="#000000" stroke-width="0.80" />
<polyline points="122.29999999999927,242.346 131.89999999999964,242.346" fill="" stroke="#000000" stroke-width="0.80" />
<polyline points="122.29999999999927,139.846 131.89999999999964,139.846" fill="" stroke="#000000" stroke-width="0.80" />
<polyline points="122.29999999999927,144.846 131.89999999999964,144.846" fill="" stroke="#000000" stroke-width="0.80" />
<polyline points="122.29999999999927,149.846 131.89999999999964,149.846" fill="" stroke="#000000" stroke-width="0.80" />
<polyline points="122.29999999999927,154.846 131.89999999999964,154.846" fill="" stroke="#000000" stroke-width="0.80" />
<polyline points="122.29999999999927,159.846 131.89999999999964,159.846" fill="" stroke="#000000" stroke-width="0.80" />
<polyline points="105.39999999999964,242.346 115.0,242.346" fill="" stroke="#000000" stroke-width="0.80" />
<polyline points="105.39999999999964,134.846 115.0,134.846" fill="" stroke="#000000" stroke-width="0.80" />
<polyline points="105.39999999999964,139.846 115.0,139.846" fill="" stroke="#000000" stroke-width="0.80" />
<polyline points="105.39999999999964,144.846 115.0,144.846" fill="" stroke="#000000" stroke-width="0.80" />
<polyline points="105.39999999999964,149.846 115.0,149.846" fill="" stroke="#000000" stroke-width="0.80" />
<polyline points="105.39999999999964,154.846 115.0,154.846" fill="" stroke="#000000" stroke-width="0.80" />
<polyline points="105.39999999999964,159.846 115.0,159.846" fill="" stroke="#000000" stroke-width="0.80" />
<polyline points="88.5,242.346 98.10000000000036,242.346" fill="" stroke="#000000" stroke-width="0.80" />
<polyline points="88.5,139.846 98.10000000000036,139.846" fill="" stroke="#000000" stroke-width="0.80" />
<polyline points="88.5,144.846 98.10000000000036,144.846" fill="" stroke="#000000" stroke-width="0.80" />
<polyline points="88.5,149.846 98.10000000000036,149.846" fill="" stroke="#000000" stroke-width="0.80" />
<polyline points="88.5,154.846 98.10000000000036,154.846" fill="" stroke="#000000" stroke-width="0.80" />
<polyline points="88.5,159.846 98.10000000000036,159.846" fill="" stroke="#000000" stroke-width="0.80" />
<polyline points="54.70000000000073,149.846 64.29999999999927,149.846" fill="" stroke="#000000" stroke-width="0.80" />
<polyline points="54.70000000000073,154.846 64.29999999999927,154.846" fill="" stroke="#000000" stroke-width="0.80" />
<polyline points="54.70000000000073,159.846 64.29999999999927,159.846" fill="" stroke="#000000" stroke-width="0.80" />
<polyline points="37.79999999999927,144.846 47.399999999999636,144.846" fill="" stroke="#000000" stroke-width="0.80" />
<polyline points="37.79999999999927,149.846 47.399999999999636,149.846" fill="" stroke="#000000" stroke-width="0.80" />
<polyline points="37.79999999999927,154.846 47.399999999999636,154.846" fill="" stroke="#000000" stroke-width="0.80" />
<polyline points="37.79999999999927,159.846 47.399999999999636,159.846" fill="" stroke="#000000" stroke-width="0.80" />
<polyline points="20.899999999999636,144.846 30.5,144.846" fill="" stroke="#000000" stroke-width="0.80" />
<polyline points="20.899999999999636,149.846 30.5,149.846" fill="" stroke="#000000" stroke-width="0.80" />
<polyline points="20.899999999999636,154.846 30.5,154.846" fill="" stroke="#000000" stroke-width="0.80" />
<polyline points="20.899999999999636,159.846 30.5,159.846" fill="" stroke="#000000" stroke-width="0.80" />
<polyline points="4.0,134.846 13.5,134.846" fill="" stroke="#000000" stroke-width="0.80" />
<polyline points="4.0,139.846 13.5,139.846" fill="" stroke="#000000" stroke-width="0.80" />
<polyline points="4.0,144.846 13.5,144.846" fill="" stroke="#000000" stroke-width="0.80" />
<polyline points="4.0,149.846 13.5,149.846" fill="" stroke="#000000" stroke-width="0.80" />
<polyline points="4.0,154.846 13.5,154.846" fill="" stroke="#000000" stroke-width="0.80" />
<polyline points="4.0,159.846 13.5,159.846" fill="" stroke="#000000" stroke-width="0.80" />
<polyline points="114.79999999999927,113.01799999999997 122.70000000000073,113.01799999999997" fill="" stroke="#000000" stroke-width="0.75" />
<polyline points="97.79999999999927,114.17500000000001 105.79999999999927,114.17500000000001" fill="" stroke="#000000" stroke-width="0.75" />
</svg>
