<?xml version="1.0" encoding="UTF-8" standalone="yes"?>
<svg width="256.0px" height="256.0px" xmlns="http://www.w3.org/2000/svg" xmlns:xlink="http://www.w3.org/1999/xlink" version="1.2" baseProfile="tiny">
<polyline points="0.0,13.846000000000004 5.5,13.846000000000004" fill="none" stroke="#000000" stroke-width="0.40" />
<polyline points="0.0,18.846000000000004 5.5,18.846000000000004" fill="none" stroke="#000000" stroke-width="0.40" />
<polyline points="0.0,23.846000000000004 5.5,23.846000000000004" fill="none" stroke="#000000" stroke-width="0.40" />
<polyline points="0.0,28.846000000000004 5.5,28.846000000000004" fill="none" stroke="#000000" stroke-width="0.40" />
<polyline points="0.0,33.846000000000004 5.5,33.846000000000004" fill="none" stroke="#000000" stroke-width="0.40" />
<polyline points="0.0,66.346 5.5,66.346" fill="none" stroke="#000000" stroke-width="0.40" />
<polyline points="0.0,71.346 5.5,71.346" fill="none" stroke="#000000" stroke-width="0.40" />
<polyline points="0.0,76.346 5.5,76.346" fill="none" stroke="#000000" stroke-width="0.40" />
<polyline points="0.0,81.346 5.5,81.346" fill="none" stroke="#000000" stroke-width="0.40" />
<polyline points="0.0,86.346 5.5,86.346" fill="none" stroke="#000000" stroke-width="0.40" />
<polyline points="5.100000000000364,66.346 5.100000000000364,86.346" fill="" stroke="#000000" stroke-width="0.80" />
<polyline points="5.100000000000364,13.846000000000004 5.100000000000364,33.846000000000004" fill="" stroke="#000000" stroke-width="0.80" />
<polyline points="62.20000000000073,13.846000000000004 255.0,13.846000000000004" fill="none" stroke="#000000" stroke-width="0.40" />
<polyline points="62.20000000000073,18.846000000000004 255.0,18.846000000000004" fill="none" stroke="#000000" stroke-width="0.40" />
<polyline points="62.20000000000073,23.846000000000004 255.0,23.846000000000004" fill="none" stroke="#000000" stroke-width="0.40" />
<polyline points="62.20000000000073,28.846000000000004 255.0,28.846000000000004" fill="none" stroke="#000000" stroke-width="0.40" />
<polyline points="62.20000000000073,33.846000000000004 255.0,33.846000000000004" fill="none" stroke="#000000" stroke-width="0.40" />
<polyline points="62.20000000000073,66.346 255.0,66.346" fill="none" stroke="#000000" stroke-width="0.40" />
<polyline points="62.20000000000073,71.346 255.0,71.346" fill="none" stroke="#000000" stroke-width="0.40" />
<polyline points="62.20000000000073,76.346 255.0,76.346" fill="none" stroke="#000000" stroke-width="0.40" />
<polyline points="62.20000000000073,81.346 255.0,81.346" fill="none" stroke="#000000" stroke-width="0.40" />
<polyline points="62.20000000000073,86.346 255.0,86.346" fill="none" stroke="#000000" stroke-width="0.40" />
<polyline points="62.600000000000364,0.0 62.600000000000364,86.346" fill="" stroke="#000000" stroke-width="0.80" />
<polyline points="233.10000000000036,65.90999999999997 233.10000000000036,98.846" fill="" stroke="#000000" stroke-width="0.65" />
<polyline points="233.5,19.785999999999945 233.5,39.918000000000006" fill="" stroke="#000000" stroke-width="0.65" />
<polyline points="204.70000000000073,65.90999999999997 204.70000000000073,98.846" fill="" stroke="#000000" stroke-width="0.65" />
<polyline points="205.10000000000036,29.785999999999945 205.10000000000036,42.596000000000004" fill="" stroke="#000000" stroke-width="0.65" />
<polyline points="190.89999999999964,74.78599999999994 190.89999999999964,91.346" fill="" stroke="#000000" stroke-width="0.65" />
<polyline points="176.29999999999927,65.90999999999997 176.29999999999927,89.22400000000005" fill="" stroke="#000000" stroke-width="0.65" />
<polyline points="176.70000000000073,17.285999999999945 176.70000000000073,32.596000000000004" fill="" stroke="#000000" stroke-width="0.65" />
<polyline points="162.39999999999964,9.785999999999945 162.39999999999964,30.096000000000004" fill="" stroke="#000000" stroke-width="0.65" />
<polyline points="147.79999999999927,65.90999999999997 147.79999999999927,85.096" fill="" stroke="#000000" stroke-width="0.65" />
<polyline points="148.20000000000073,9.785999999999945 148.20000000000073,27.596000000000004" fill="" stroke="#000000" stroke-width="0.65" />
<polyline points="134.0,17.285999999999945 134.0,37.596000000000004" fill="" stroke="#000000" stroke-width="0.65" />
<polyline points="119.39999999999964,65.90999999999997 119.39999999999964,98.846" fill="" stroke="#000000" stroke-width="0.65" />
<polyline points="119.79999999999927,17.285999999999945 119.79999999999927,40.0" fill="" stroke="#000000" stroke-width="0.65" />
<polyline points="96.60000000000036,65.90999999999997 96.60000000000036,98.846" fill="" stroke="#000000" stroke-width="0.65" />
<polyline points="97.0,27.285999999999945 97.0,43.846000000000004" fill="" stroke="#000000" stroke-width="0.65" />
<polyline points="160.60000000000036,8.846000000000004 170.20000000000073,8.846000000000004" fill="" stroke="#000000" stroke-width="0.80" />
<polyline points="146.39999999999964,8.846000000000004 156.0,8.846000000000004" fill="" stroke="#000000" stroke-width="0.80" />
</svg>
