<?xml version="1.0" encoding="UTF-8" standalone="yes"?>
<svg width="256.0px" height="256.0px" xmlns="http://www.w3.org/2000/svg" xmlns:xlink="http://www.w3.org/1999/xlink" version="1.2" baseProfile="tiny">
<polyline points="0.0,13.846000000000004 11.700000000000728,13.846000000000004" fill="none" stroke="#000000" stroke-width="0.40" />
<polyline points="0.0,18.846000000000004 11.700000000000728,18.846000000000004" fill="none" stroke="#000000" stroke-width="0.40" />
<polyline points="0.0,23.846000000000004 11.700000000000728,23.846000000000004" fill="none" stroke="#000000" stroke-width="0.40" />
<polyline points="0.0,28.846000000000004 11.700000000000728,28.846000000000004" fill="none" stroke="#000000" stroke-width="0.40" />
<polyline points="0.0,33.846000000000004 11.700000000000728,33.846000000000004" fill="none" stroke="#000000" stroke-width="0.40" />
<polyline points="0.0,66.346 11.700000000000728,66.346" fill="none" stroke="#000000" stroke-width="0.40" />
<polyline points="0.0,71.346 11.700000000000728,71.346" fill="none" stroke="#000000" stroke-width="0.40" />
<polyline points="0.0,76.346 11.700000000000728,76.346" fill="none" stroke="#000000" stroke-width="0.40" />
<polyline points="0.0,81.346 11.700000000000728,81.346" fill="none" stroke="#000000" stroke-width="0.40" />
<polyline points="0.0,86.346 11.700000000000728,86.346" fill="none" stroke="#000000" stroke-width="0.40" />
<polyline points="11.299999999999272,66.346 11.299999999999272,86.346" fill="" stroke="#000000" stroke-width="0.80" />
<polyline points="11.299999999999272,13.846000000000004 11.299999999999272,33.846000000000004" fill="" stroke="#000000" stroke-width="0.80" />
<polyline points="1.3999999999996362,31.861999999999966 1.3999999999996362,3.8460000000000036" fill="" stroke="#000000" stroke-width="0.65" />
<polyline points="68.39999999999964,13.846000000000004 255.0,13.846000000000004" fill="none" stroke="#000000" stroke-width="0.40" />
<polyline points="68.39999999999964,18.846000000000004 255.0,18.846000000000004" fill="none" stroke="#000000" stroke-width="0.40" />
<polyline points="68.39999999999964,23.846000000000004 255.0,23.846000000000004" fill="none" stroke="#000000" stroke-width="0.40" />
<polyline points="68.39999999999964,28.846000000000004 255.0,28.846000000000004" fill="none" stroke="#000000" stroke-width="0.40" />
<polyline points="68.39999999999964,33.846000000000004 255.0,33.846000000000004" fill="none" stroke="#000000" stroke-width="0.40" />
<polyline points="68.39999999999964,66.346 255.0,66.346" fill="none" stroke="#000000" stroke-width="0.40" />
<polyline points="68.39999999999964,71.346 255.0,71.346" fill="none" stroke="#000000" stroke-width="0.40" />
<polyline points="68.39999999999964,76.346 255.0,76.346" fill="none" stroke="#000000" stroke-width="0.40" />
<polyline points="68.39999999999964,81.346 255.0,81.346" fill="none" stroke="#000000" stroke-width="0.40" />
<polyline points="68.39999999999964,86.346 255.0,86.346" fill="none" stroke="#000000" stroke-width="0.40" />
<polyline points="68.79999999999927,0.0 68.79999999999927,86.346" fill="" stroke="#000000" stroke-width="0.80" />
<polyline points="108.0,10.471000000000004 101.60000000000036,14.471000000000004" fill="" stroke="#000000" stroke-width="0.65" />
<polyline points="241.70000000000073,65.90999999999997 241.70000000000073,100.096" fill="" stroke="#000000" stroke-width="0.65" />
<polyline points="232.70000000000073,3.1889999999999645 232.70000000000073,-11.028999999999996" fill="" stroke="#000000" stroke-width="0.65" />
<polyline points="241.70000000000073,2.2859999999999445 241.70000000000073,28.846000000000004" fill="" stroke="#000000" stroke-width="0.65" />
<polyline points="212.29999999999927,65.90999999999997 212.29999999999927,92.596" fill="" stroke="#000000" stroke-width="0.65" />
<polyline points="182.89999999999964,65.90999999999997 182.89999999999964,94.73900000000003" fill="" stroke="#000000" stroke-width="0.65" />
<polyline points="146.20000000000073,65.90999999999997 146.20000000000073,97.418" fill="" stroke="#000000" stroke-width="0.65" />
<polyline points="109.39999999999964,65.90999999999997 109.39999999999964,100.096" fill="" stroke="#000000" stroke-width="0.65" />
<polyline points="104.0,20.688999999999965 104.0,6.471000000000004" fill="" stroke="#000000" stroke-width="0.65" />
<polyline points="109.29999999999927,19.629999999999995 109.29999999999927,35.721000000000004" fill="" stroke="#000000" stroke-width="0.65" />
<polyline points="227.0,3.8460000000000036 234.60000000000036,3.8460000000000036" fill="" stroke="#000000" stroke-width="0.56" />
<polyline points="227.0,8.846000000000004 234.60000000000036,8.846000000000004" fill="" stroke="#000000" stroke-width="0.56" />
<polyline points="239.89999999999964,3.8460000000000036 249.5,3.8460000000000036" fill="" stroke="#000000" stroke-width="0.80" />
<polyline points="239.89999999999964,8.846000000000004 249.5,8.846000000000004" fill="" stroke="#000000" stroke-width="0.80" />
</svg>
