<?xml version="1.0" encoding="UTF-8" standalone="yes"?>
<svg width="256.0px" height="256.0px" xmlns="http://www.w3.org/2000/svg" xmlns:xlink="http://www.w3.org/1999/xlink" version="1.2" baseProfile="tiny">
<polyline points="0.0,17.346000000000004 255.0,17.346000000000004" fill="none" stroke="#000000" stroke-width="0.40" />
<polyline points="0.0,22.346000000000004 255.0,22.346000000000004" fill="none" stroke="#000000" stroke-width="0.40" />
<polyline points="0.0,27.346000000000004 255.0,27.346000000000004" fill="none" stroke="#000000" stroke-width="0.40" />
<polyline points="0.0,32.346000000000004 255.0,32.346000000000004" fill="none" stroke="#000000" stroke-width="0.40" />
<polyline points="0.0,37.346000000000004 255.0,37.346000000000004" fill="none" stroke="#000000" stroke-width="0.40" />
<polyline points="0.0,112.346 255.0,112.346" fill="none" stroke="#000000" stroke-width="0.40" />
<polyline points="0.0,117.346 255.0,117.346" fill="none" stroke="#000000" stroke-width="0.40" />
<polyline points="0.0,122.346 255.0,122.346" fill="none" stroke="#000000" stroke-width="0.40" />
<polyline points="0.0,127.346 255.0,127.346" fill="none" stroke="#000000" stroke-width="0.40" />
<polyline points="0.0,132.346 255.0,132.346" fill="none" stroke="#000000" stroke-width="0.40" />
<polyline points="0.0,164.846 255.0,164.846" fill="none" stroke="#000000" stroke-width="0.40" />
<polyline points="0.0,169.846 255.0,169.846" fill="none" stroke="#000000" stroke-width="0.40" />
<polyline points="0.0,174.846 255.0,174.846" fill="none" stroke="#000000" stroke-width="0.40" />
<polyline points="0.0,179.846 255.0,179.846" fill="none" stroke="#000000" stroke-width="0.40" />
<polyline points="0.0,184.846 255.0,184.846" fill="none" stroke="#000000" stroke-width="0.40" />
<polyline points="0.0,217.346 255.0,217.346" fill="none" stroke="#000000" stroke-width="0.40" />
<polyline points="0.0,222.346 255.0,222.346" fill="none" stroke="#000000" stroke-width="0.40" />
<polyline points="0.0,227.346 255.0,227.346" fill="none" stroke="#000000" stroke-width="0.40" />
<polyline points="0.0,232.346 255.0,232.346" fill="none" stroke="#000000" stroke-width="0.40" />
<polyline points="0.0,237.346 255.0,237.346" fill="none" stroke="#000000" stroke-width="0.40" />
<polyline points="42.0,17.346000000000004 42.0,37.346000000000004" fill="" stroke="#000000" stroke-width="0.80" />
<polyline points="230.29999999999927,138.286 230.29999999999927,173.596" fill="" stroke="#000000" stroke-width="0.65" />
<polyline points="230.29999999999927,115.786 230.29999999999927,142.346" fill="" stroke="#000000" stroke-width="0.65" />
<polyline points="199.39999999999964,255.786 199.39999999999964,255.0" fill="" stroke="#000000" stroke-width="0.65" />
<polyline points="205.39999999999964,243.90699999999998 205.39999999999964,207.346" fill="" stroke="#000000" stroke-width="0.65" />
<polyline points="199.39999999999964,138.286 199.39999999999964,174.01299999999998" fill="" stroke="#000000" stroke-width="0.65" />
<polyline points="199.39999999999964,115.786 199.39999999999964,143.596" fill="" stroke="#000000" stroke-width="0.65" />
<polyline points="168.60000000000036,255.786 168.60000000000036,255.0" fill="" stroke="#000000" stroke-width="0.65" />
<polyline points="174.60000000000036,243.90699999999998 174.60000000000036,207.346" fill="" stroke="#000000" stroke-width="0.65" />
<polyline points="168.60000000000036,138.286 168.60000000000036,174.43" fill="" stroke="#000000" stroke-width="0.65" />
<polyline points="168.60000000000036,115.786 168.60000000000036,144.846" fill="" stroke="#000000" stroke-width="0.65" />
<polyline points="137.79999999999927,255.786 137.79999999999927,255.0" fill="" stroke="#000000" stroke-width="0.65" />
<polyline points="143.79999999999927,243.90699999999998 143.79999999999927,207.346" fill="" stroke="#000000" stroke-width="0.65" />
<polyline points="137.79999999999927,138.286 137.79999999999927,174.846" fill="" stroke="#000000" stroke-width="0.65" />
<polyline points="137.79999999999927,115.786 137.79999999999927,146.096" fill="" stroke="#000000" stroke-width="0.65" />
<polyline points="107.0,138.286 107.0,173.596" fill="" stroke="#000000" stroke-width="0.65" />
<polyline points="107.0,115.786 107.0,142.346" fill="" stroke="#000000" stroke-width="0.65" />
<polyline points="82.10000000000036,243.90699999999998 82.10000000000036,207.346" fill="" stroke="#000000" stroke-width="0.65" />
<polyline points="76.20000000000073,138.286 76.20000000000073,173.596" fill="" stroke="#000000" stroke-width="0.65" />
<polyline points="76.20000000000073,115.786 76.20000000000073,142.346" fill="" stroke="#000000" stroke-width="0.65" />
<polyline points="51.29999999999927,243.90699999999998 51.29999999999927,207.346" fill="" stroke="#000000" stroke-width="0.65" />
<polyline points="45.399999999999636,138.286 45.399999999999636,173.596" fill="" stroke="#000000" stroke-width="0.65" />
<polyline points="45.399999999999636,115.786 45.399999999999636,142.346" fill="" stroke="#000000" stroke-width="0.65" />
<polyline points="20.5,247.86200000000002 20.5,207.346" fill="" stroke="#000000" stroke-width="0.65" />
<polyline points="14.600000000000364,138.286 14.600000000000364,173.596" fill="" stroke="#000000" stroke-width="0.65" />
<polyline points="14.600000000000364,115.786 14.600000000000364,142.346" fill="" stroke="#000000" stroke-width="0.65" />
<polyline points="246.10000000000036,25.786 246.10000000000036,41.096000000000004" fill="" stroke="#000000" stroke-width="0.65" />
<polyline points="231.20000000000073,16.910000000000025 231.20000000000073,41.096000000000004" fill="" stroke="#000000" stroke-width="0.65" />
<polyline points="207.29999999999927,16.910000000000025 207.29999999999927,41.096000000000004" fill="" stroke="#000000" stroke-width="0.65" />
<polyline points="183.5,16.910000000000025 183.5,49.846000000000004" fill="" stroke="#000000" stroke-width="0.65" />
<polyline points="159.60000000000036,16.910000000000025 159.60000000000036,49.846000000000004" fill="" stroke="#000000" stroke-width="0.65" />
<polyline points="144.70000000000073,25.786 144.70000000000073,41.096000000000004" fill="" stroke="#000000" stroke-width="0.65" />
<polyline points="129.70000000000073,16.910000000000025 129.70000000000073,41.096000000000004" fill="" stroke="#000000" stroke-width="0.65" />
<polyline points="98.79999999999927,16.910000000000025 98.79999999999927,41.096000000000004" fill="" stroke="#000000" stroke-width="0.65" />
<polyline points="74.89999999999964,16.910000000000025 74.89999999999964,49.846000000000004" fill="" stroke="#000000" stroke-width="0.65" />
<polyline points="51.0,16.910000000000025 51.0,49.846000000000004" fill="" stroke="#000000" stroke-width="0.65" />
<polyline points="24.0,25.786 24.0,41.096000000000004" fill="" stroke="#000000" stroke-width="0.65" />
<polyline points="6.100000000000364,16.910000000000025 6.100000000000364,41.096000000000004" fill="" stroke="#000000" stroke-width="0.65" />
<polyline points="228.39999999999964,139.846 238.0,139.846" fill="" stroke="#000000" stroke-width="0.80" />
<polyline points="228.39999999999964,144.846 238.0,144.846" fill="" stroke="#000000" stroke-width="0.80" />
<polyline points="228.39999999999964,149.846 238.0,149.846" fill="" stroke="#000000" stroke-width="0.80" />
<polyline points="228.39999999999964,154.846 238.0,154.846" fill="" stroke="#000000" stroke-width="0.80" />
<polyline points="228.39999999999964,159.846 238.0,159.846" fill="" stroke="#000000" stroke-width="0.80" />
<polyline points="197.60000000000036,254.846 207.20000000000073,254.846" fill="" stroke="#000000" stroke-width="0.80" />
<polyline points="197.60000000000036,242.346 207.20000000000073,242.346" fill="" stroke="#000000" stroke-width="0.80" />
<polyline points="197.60000000000036,139.846 207.20000000000073,139.846" fill="" stroke="#000000" stroke-width="0.80" />
<polyline points="197.60000000000036,144.846 207.20000000000073,144.846" fill="" stroke="#000000" stroke-width="0.80" />
<polyline points="197.60000000000036,149.846 207.20000000000073,149.846" fill="" stroke="#000000" stroke-width="0.80" />
<polyline points="197.60000000000036,154.846 207.20000000000073,154.846" fill="" stroke="#000000" stroke-width="0.80" />
<polyline points="197.60000000000036,159.846 207.20000000000073,159.846" fill="" stroke="#000000" stroke-width="0.80" />
<polyline points="166.79999999999927,254.846 176.39999999999964,254.846" fill="" stroke="#000000" stroke-width="0.80" />
<polyline points="166.79999999999927,242.346 176.39999999999964,242.346" fill="" stroke="#000000" stroke-width="0.80" />
<polyline points="166.79999999999927,139.846 176.39999999999964,139.846" fill="" stroke="#000000" stroke-width="0.80" />
<polyline points="160.89999999999964,144.846 176.39999999999964,144.846" fill="" stroke="#000000" stroke-width="0.80" />
<polyline points="160.89999999999964,149.846 176.39999999999964,149.846" fill="" stroke="#000000" stroke-width="0.80" />
<polyline points="160.89999999999964,154.846 176.39999999999964,154.846" fill="" stroke="#000000" stroke-width="0.80" />
<polyline points="160.89999999999964,159.846 176.39999999999964,159.846" fill="" stroke="#000000" stroke-width="0.80" />
<polyline points="136.0,254.846 145.60000000000036,254.846" fill="" stroke="#000000" stroke-width="0.80" />
<polyline points="136.0,242.346 145.60000000000036,242.346" fill="" stroke="#000000" stroke-width="0.80" />
<polyline points="136.0,139.846 145.60000000000036,139.846" fill="" stroke="#000000" stroke-width="0.80" />
<polyline points="130.10000000000036,144.846 145.60000000000036,144.846" fill="" stroke="#000000" stroke-width="0.80" />
<polyline points="130.10000000000036,149.846 145.60000000000036,149.846" fill="" stroke="#000000" stroke-width="0.80" />
<polyline points="130.10000000000036,154.846 145.60000000000036,154.846" fill="" stroke="#000000" stroke-width="0.80" />
<polyline points="130.10000000000036,159.846 145.60000000000036,159.846" fill="" stroke="#000000" stroke-width="0.80" />
<polyline points="105.20000000000073,139.846 114.79999999999927,139.846" fill="" stroke="#000000" stroke-width="0.80" />
<polyline points="99.29999999999927,144.846 114.79999999999927,144.846" fill="" stroke="#000000" stroke-width="0.80" />
<polyline points="99.29999999999927,149.846 114.79999999999927,149.846" fill="" stroke="#000000" stroke-width="0.80" />
<polyline points="99.29999999999927,154.846 114.79999999999927,154.846" fill="" stroke="#000000" stroke-width="0.80" />
<polyline points="99.29999999999927,159.846 114.79999999999927,159.846" fill="" stroke="#000000" stroke-width="0.80" />
<polyline points="74.39999999999964,242.346 84.0,242.346" fill="" stroke="#000000" stroke-width="0.80" />
<polyline points="74.39999999999964,139.846 84.0,139.846" fill="" stroke="#000000" stroke-width="0.80" />
<polyline points="68.39999999999964,144.846 84.0,144.846" fill="" stroke="#000000" stroke-width="0.80" />
<polyline points="68.39999999999964,149.846 84.0,149.846" fill="" stroke="#000000" stroke-width="0.80" />
<polyline points="68.39999999999964,154.846 84.0,154.846" fill="" stroke="#000000" stroke-width="0.80" />
<polyline points="68.39999999999964,159.846 84.0,159.846" fill="" stroke="#000000" stroke-width="0.80" />
<polyline points="43.600000000000364,242.346 53.100000000000364,242.346" fill="" stroke="#000000" stroke-width="0.80" />
<polyline points="43.600000000000364,139.846 53.100000000000364,139.846" fill="" stroke="#000000" stroke-width="0.80" />
<polyline points="37.600000000000364,144.846 53.100000000000364,144.846" fill="" stroke="#000000" stroke-width="0.80" />
<polyline points="37.600000000000364,149.846 53.100000000000364,149.846" fill="" stroke="#000000" stroke-width="0.80" />
<polyline points="37.600000000000364,154.846 53.100000000000364,154.846" fill="" stroke="#000000" stroke-width="0.80" />
<polyline points="37.600000000000364,159.846 53.100000000000364,159.846" fill="" stroke="#000000" stroke-width="0.80" />
<polyline points="12.799999999999272,242.346 22.299999999999272,242.346" fill="" stroke="#000000" stroke-width="0.80" />
<polyline points="12.799999999999272,247.346 22.299999999999272,247.346" fill="" stroke="#000000" stroke-width="0.80" />
<polyline points="12.799999999999272,139.846 22.299999999999272,139.846" fill="" stroke="#000000" stroke-width="0.80" />
<polyline points="6.799999999999272,144.846 22.299999999999272,144.846" fill="" stroke="#000000" stroke-width="0.80" />
<polyline points="6.799999999999272,149.846 22.299999999999272,149.846" fill="" stroke="#000000" stroke-width="0.80" />
<polyline points="6.799999999999272,154.846 22.299999999999272,154.846" fill="" stroke="#000000" stroke-width="0.80" />
<polyline points="6.799999999999272,159.846 22.299999999999272,159.846" fill="" stroke="#000000" stroke-width="0.80" />
</svg>
