<?xml version="1.0" encoding="UTF-8" standalone="yes"?>
<svg width="256.0px" height="256.0px" xmlns="http://www.w3.org/2000/svg" xmlns:xlink="http://www.w3.org/1999/xlink" version="1.2" baseProfile="tiny">
<polyline points="0.0,63.3465 255.0,63.3465" fill="none" stroke="#000000" stroke-width="0.40" />
<polyline points="0.0,68.3465 255.0,68.3465" fill="none" stroke="#000000" stroke-width="0.40" />
<polyline points="0.0,73.3465 255.0,73.3465" fill="none" stroke="#000000" stroke-width="0.40" />
<polyline points="0.0,78.3465 255.0,78.3465" fill="none" stroke="#000000" stroke-width="0.40" />
<polyline points="0.0,83.3465 255.0,83.3465" fill="none" stroke="#000000" stroke-width="0.40" />
<polyline points="0.0,115.846 255.0,115.846" fill="none" stroke="#000000" stroke-width="0.40" />
<polyline points="0.0,120.846 255.0,120.846" fill="none" stroke="#000000" stroke-width="0.40" />
<polyline points="0.0,125.846 255.0,125.846" fill="none" stroke="#000000" stroke-width="0.40" />
<polyline points="0.0,130.846 255.0,130.846" fill="none" stroke="#000000" stroke-width="0.40" />
<polyline points="0.0,135.846 255.0,135.846" fill="none" stroke="#000000" stroke-width="0.40" />
<polyline points="0.0,168.346 255.0,168.346" fill="none" stroke="#000000" stroke-width="0.40" />
<polyline points="0.0,173.346 255.0,173.346" fill="none" stroke="#000000" stroke-width="0.40" />
<polyline points="0.0,178.346 255.0,178.346" fill="none" stroke="#000000" stroke-width="0.40" />
<polyline points="0.0,183.346 255.0,183.346" fill="none" stroke="#000000" stroke-width="0.40" />
<polyline points="0.0,188.346 255.0,188.346" fill="none" stroke="#000000" stroke-width="0.40" />
<polyline points="0.0,220.846 255.0,220.846" fill="none" stroke="#000000" stroke-width="0.40" />
<polyline points="0.0,225.846 255.0,225.846" fill="none" stroke="#000000" stroke-width="0.40" />
<polyline points="0.0,230.846 255.0,230.846" fill="none" stroke="#000000" stroke-width="0.40" />
<polyline points="0.0,235.846 255.0,235.846" fill="none" stroke="#000000" stroke-width="0.40" />
<polyline points="0.0,240.846 255.0,240.846" fill="none" stroke="#000000" stroke-width="0.40" />
<polyline points="42.0,220.846 42.0,240.846" fill="" stroke="#000000" stroke-width="0.80" />
<polyline points="42.0,168.346 42.0,188.346" fill="" stroke="#000000" stroke-width="0.80" />
<polyline points="42.0,115.846 42.0,135.846" fill="" stroke="#000000" stroke-width="0.80" />
<polyline points="42.0,63.3465 42.0,83.3465" fill="" stroke="#000000" stroke-width="0.80" />
<polyline points="207.29999999999927,96.7855 207.29999999999927,125.846" fill="" stroke="#000000" stroke-width="0.65" />
<polyline points="207.29999999999927,74.2855 207.29999999999927,88.9715" fill="" stroke="#000000" stroke-width="0.65" />
<polyline points="189.39999999999964,234.907 189.39999999999964,220.846" fill="" stroke="#000000" stroke-width="0.65" />
<polyline points="183.5,104.286 183.5,124.596" fill="" stroke="#000000" stroke-width="0.65" />
<polyline points="189.39999999999964,79.9074 189.39999999999964,67.0965" fill="" stroke="#000000" stroke-width="0.65" />
<polyline points="165.5,234.907 165.5,220.846" fill="" stroke="#000000" stroke-width="0.65" />
<polyline points="165.70000000000073,195.078 165.70000000000073,158.971" fill="" stroke="#000000" stroke-width="0.65" />
<polyline points="159.60000000000036,114.286 159.60000000000036,127.096" fill="" stroke="#000000" stroke-width="0.65" />
<polyline points="165.5,89.9074 165.5,72.0965" fill="" stroke="#000000" stroke-width="0.65" />
<polyline points="150.60000000000036,239.907 150.60000000000036,220.846" fill="" stroke="#000000" stroke-width="0.65" />
<polyline points="129.70000000000073,96.7855 129.70000000000073,125.846" fill="" stroke="#000000" stroke-width="0.65" />
<polyline points="129.70000000000073,74.2855 129.70000000000073,88.3465" fill="" stroke="#000000" stroke-width="0.65" />
<polyline points="114.29999999999927,89.2855 114.29999999999927,125.221" fill="" stroke="#000000" stroke-width="0.65" />
<polyline points="114.29999999999927,66.7855 114.29999999999927,87.7215" fill="" stroke="#000000" stroke-width="0.65" />
<polyline points="104.70000000000073,232.407 104.70000000000073,217.096" fill="" stroke="#000000" stroke-width="0.65" />
<polyline points="98.79999999999927,86.7855 98.79999999999927,124.596" fill="" stroke="#000000" stroke-width="0.65" />
<polyline points="98.79999999999927,64.2855 98.79999999999927,87.0965" fill="" stroke="#000000" stroke-width="0.65" />
<polyline points="57.0,232.407 57.0,217.096" fill="" stroke="#000000" stroke-width="0.65" />
<polyline points="57.20000000000073,192.578 57.20000000000073,157.096" fill="" stroke="#000000" stroke-width="0.65" />
<polyline points="24.0,90.4105 24.0,124.596" fill="" stroke="#000000" stroke-width="0.65" />
<polyline points="24.0,67.9105 24.0,88.3465" fill="" stroke="#000000" stroke-width="0.65" />
<polyline points="6.100000000000364,229.286 6.100000000000364,245.846" fill="" stroke="#000000" stroke-width="0.65" />
<polyline points="205.5,95.8465 215.10000000000036,95.8465" fill="" stroke="#000000" stroke-width="0.80" />
<polyline points="205.5,100.846 215.10000000000036,100.846" fill="" stroke="#000000" stroke-width="0.80" />
<polyline points="205.5,105.846 215.10000000000036,105.846" fill="" stroke="#000000" stroke-width="0.80" />
<polyline points="205.5,110.846 215.10000000000036,110.846" fill="" stroke="#000000" stroke-width="0.80" />
<polyline points="181.60000000000036,105.846 191.20000000000073,105.846" fill="" stroke="#000000" stroke-width="0.80" />
<polyline points="181.60000000000036,110.846 191.20000000000073,110.846" fill="" stroke="#000000" stroke-width="0.80" />
<polyline points="157.60000000000036,193.346 167.5,193.346" fill="" stroke="#000000" stroke-width="0.80" />
<polyline points="157.79999999999927,88.3465 167.29999999999927,88.3465" fill="" stroke="#000000" stroke-width="0.80" />
<polyline points="127.89999999999964,95.8465 137.5,95.8465" fill="" stroke="#000000" stroke-width="0.80" />
<polyline points="127.89999999999964,100.846 137.5,100.846" fill="" stroke="#000000" stroke-width="0.80" />
<polyline points="127.89999999999964,105.846 137.5,105.846" fill="" stroke="#000000" stroke-width="0.80" />
<polyline points="127.89999999999964,110.846 137.5,110.846" fill="" stroke="#000000" stroke-width="0.80" />
<polyline points="112.39999999999964,90.8465 122.0,90.8465" fill="" stroke="#000000" stroke-width="0.80" />
<polyline points="112.39999999999964,95.8465 122.0,95.8465" fill="" stroke="#000000" stroke-width="0.80" />
<polyline points="112.39999999999964,100.846 122.0,100.846" fill="" stroke="#000000" stroke-width="0.80" />
<polyline points="112.39999999999964,105.846 122.0,105.846" fill="" stroke="#000000" stroke-width="0.80" />
<polyline points="112.39999999999964,110.846 122.0,110.846" fill="" stroke="#000000" stroke-width="0.80" />
<polyline points="97.0,85.8465 106.60000000000036,85.8465" fill="" stroke="#000000" stroke-width="0.80" />
<polyline points="97.0,90.8465 106.60000000000036,90.8465" fill="" stroke="#000000" stroke-width="0.80" />
<polyline points="97.0,95.8465 106.60000000000036,95.8465" fill="" stroke="#000000" stroke-width="0.80" />
<polyline points="97.0,100.846 106.60000000000036,100.846" fill="" stroke="#000000" stroke-width="0.80" />
<polyline points="97.0,105.846 106.60000000000036,105.846" fill="" stroke="#000000" stroke-width="0.80" />
<polyline points="97.0,110.846 106.60000000000036,110.846" fill="" stroke="#000000" stroke-width="0.80" />
<polyline points="49.0,193.346 59.0,193.346" fill="" stroke="#000000" stroke-width="0.80" />
<polyline points="22.200000000000728,90.8465 31.799999999999272,90.8465" fill="" stroke="#000000" stroke-width="0.80" />
<polyline points="22.200000000000728,95.8465 31.799999999999272,95.8465" fill="" stroke="#000000" stroke-width="0.80" />
<polyline points="22.200000000000728,100.846 31.799999999999272,100.846" fill="" stroke="#000000" stroke-width="0.80" />
<polyline points="22.200000000000728,105.846 31.799999999999272,105.846" fill="" stroke="#000000" stroke-width="0.80" />
<polyline points="22.200000000000728,110.846 31.799999999999272,110.846" fill="" stroke="#000000" stroke-width="0.80" />
</svg>
