<?xml version="1.0" encoding="UTF-8" standalone="yes"?>
<svg width="256.0px" height="256.0px" xmlns="http://www.w3.org/2000/svg" xmlns:xlink="http://www.w3.org/1999/xlink" version="1.2" baseProfile="tiny">
<polyline points="0.0,63.3465 255.0,63.3465" fill="none" stroke="#000000" stroke-width="0.40" />
<polyline points="0.0,68.3465 255.0,68.3465" fill="none" stroke="#000000" stroke-width="0.40" />
<polyline points="0.0,73.3465 255.0,73.3465" fill="none" stroke="#000000" stroke-width="0.40" />
<polyline points="0.0,78.3465 255.0,78.3465" fill="none" stroke="#000000" stroke-width="0.40" />
<polyline points="0.0,83.3465 255.0,83.3465" fill="none" stroke="#000000" stroke-width="0.40" />
<polyline points="0.0,115.846 255.0,115.846" fill="none" stroke="#000000" stroke-width="0.40" />
<polyline points="0.0,120.846 255.0,120.846" fill="none" stroke="#000000" stroke-width="0.40" />
<polyline points="0.0,125.846 255.0,125.846" fill="none" stroke="#000000" stroke-width="0.40" />
<polyline points="0.0,130.846 255.0,130.846" fill="none" stroke="#000000" stroke-width="0.40" />
<polyline points="0.0,135.846 255.0,135.846" fill="none" stroke="#000000" stroke-width="0.40" />
<polyline points="0.0,168.346 255.0,168.346" fill="none" stroke="#000000" stroke-width="0.40" />
<polyline points="0.0,173.346 255.0,173.346" fill="none" stroke="#000000" stroke-width="0.40" />
<polyline points="0.0,178.346 255.0,178.346" fill="none" stroke="#000000" stroke-width="0.40" />
<polyline points="0.0,183.346 255.0,183.346" fill="none" stroke="#000000" stroke-width="0.40" />
<polyline points="0.0,188.346 255.0,188.346" fill="none" stroke="#000000" stroke-width="0.40" />
<polyline points="0.0,220.846 255.0,220.846" fill="none" stroke="#000000" stroke-width="0.40" />
<polyline points="0.0,225.846 255.0,225.846" fill="none" stroke="#000000" stroke-width="0.40" />
<polyline points="0.0,230.846 255.0,230.846" fill="none" stroke="#000000" stroke-width="0.40" />
<polyline points="0.0,235.846 255.0,235.846" fill="none" stroke="#000000" stroke-width="0.40" />
<polyline points="0.0,240.846 255.0,240.846" fill="none" stroke="#000000" stroke-width="0.40" />
<polyline points="123.10000000000036,220.846 123.10000000000036,240.846" fill="" stroke="#000000" stroke-width="0.80" />
<polyline points="123.10000000000036,168.346 123.10000000000036,188.346" fill="" stroke="#000000" stroke-width="0.80" />
<polyline points="123.10000000000036,115.846 123.10000000000036,135.846" fill="" stroke="#000000" stroke-width="0.80" />
<polyline points="123.10000000000036,63.3465 123.10000000000036,83.3465" fill="" stroke="#000000" stroke-width="0.80" />
<polyline points="250.89999999999964,234.907 250.89999999999964,220.846" fill="" stroke="#000000" stroke-width="0.65" />
<polyline points="251.10000000000036,195.078 251.10000000000036,158.971" fill="" stroke="#000000" stroke-width="0.65" />
<polyline points="235.39999999999964,239.907 235.39999999999964,220.846" fill="" stroke="#000000" stroke-width="0.65" />
<polyline points="229.39999999999964,94.2855 229.39999999999964,129.596" fill="" stroke="#000000" stroke-width="0.65" />
<polyline points="235.39999999999964,86.3625 235.39999999999964,53.3465" fill="" stroke="#000000" stroke-width="0.65" />
<polyline points="213.89999999999964,94.2855 213.89999999999964,126.334" fill="" stroke="#000000" stroke-width="0.65" />
<polyline points="219.79999999999927,86.3625 219.79999999999927,51.7154" fill="" stroke="#000000" stroke-width="0.65" />
<polyline points="197.39999999999964,89.2855 197.39999999999964,122.859" fill="" stroke="#000000" stroke-width="0.65" />
<polyline points="203.29999999999927,64.9074 203.29999999999927,49.9775" fill="" stroke="#000000" stroke-width="0.65" />
<polyline points="187.79999999999927,232.407 187.79999999999927,217.096" fill="" stroke="#000000" stroke-width="0.65" />
<polyline points="181.79999999999927,86.7855 181.79999999999927,119.596" fill="" stroke="#000000" stroke-width="0.65" />
<polyline points="187.79999999999927,62.4074 187.79999999999927,48.3465" fill="" stroke="#000000" stroke-width="0.65" />
<polyline points="138.10000000000036,232.407 138.10000000000036,217.096" fill="" stroke="#000000" stroke-width="0.65" />
<polyline points="138.29999999999927,192.578 138.29999999999927,157.096" fill="" stroke="#000000" stroke-width="0.65" />
<polyline points="111.20000000000073,239.907 111.20000000000073,223.346" fill="" stroke="#000000" stroke-width="0.65" />
<polyline points="93.29999999999927,192.407 93.29999999999927,163.346" fill="" stroke="#000000" stroke-width="0.65" />
<polyline points="75.5,234.907 75.5,220.846" fill="" stroke="#000000" stroke-width="0.65" />
<polyline points="57.70000000000073,234.907 57.70000000000073,220.846" fill="" stroke="#000000" stroke-width="0.65" />
<polyline points="57.70000000000073,194.907 57.70000000000073,158.346" fill="" stroke="#000000" stroke-width="0.65" />
<polyline points="51.79999999999927,89.2855 51.79999999999927,125.846" fill="" stroke="#000000" stroke-width="0.65" />
<polyline points="51.79999999999927,66.7855 51.79999999999927,88.9715" fill="" stroke="#000000" stroke-width="0.65" />
<polyline points="39.899999999999636,194.907 39.899999999999636,158.346" fill="" stroke="#000000" stroke-width="0.65" />
<polyline points="33.899999999999636,86.7855 33.899999999999636,124.596" fill="" stroke="#000000" stroke-width="0.65" />
<polyline points="33.899999999999636,64.2855 33.899999999999636,88.3465" fill="" stroke="#000000" stroke-width="0.65" />
<polyline points="22.100000000000364,194.907 22.100000000000364,158.346" fill="" stroke="#000000" stroke-width="0.65" />
<polyline points="16.100000000000364,89.2855 16.100000000000364,125.077" fill="" stroke="#000000" stroke-width="0.65" />
<polyline points="16.100000000000364,66.7855 16.100000000000364,90.2695" fill="" stroke="#000000" stroke-width="0.65" />
<polyline points="242.89999999999964,193.346 252.89999999999964,193.346" fill="" stroke="#000000" stroke-width="0.80" />
<polyline points="227.60000000000036,95.8465 237.20000000000073,95.8465" fill="" stroke="#000000" stroke-width="0.80" />
<polyline points="227.60000000000036,100.846 237.20000000000073,100.846" fill="" stroke="#000000" stroke-width="0.80" />
<polyline points="227.60000000000036,105.846 237.20000000000073,105.846" fill="" stroke="#000000" stroke-width="0.80" />
<polyline points="227.60000000000036,110.846 237.20000000000073,110.846" fill="" stroke="#000000" stroke-width="0.80" />
<polyline points="227.60000000000036,88.3465 237.20000000000073,88.3465" fill="" stroke="#000000" stroke-width="0.80" />
<polyline points="212.10000000000036,95.8465 221.70000000000073,95.8465" fill="" stroke="#000000" stroke-width="0.80" />
<polyline points="212.10000000000036,100.846 221.70000000000073,100.846" fill="" stroke="#000000" stroke-width="0.80" />
<polyline points="212.10000000000036,105.846 221.70000000000073,105.846" fill="" stroke="#000000" stroke-width="0.80" />
<polyline points="212.10000000000036,110.846 221.70000000000073,110.846" fill="" stroke="#000000" stroke-width="0.80" />
<polyline points="212.10000000000036,88.3465 221.70000000000073,88.3465" fill="" stroke="#000000" stroke-width="0.80" />
<polyline points="195.5,90.8465 205.10000000000036,90.8465" fill="" stroke="#000000" stroke-width="0.80" />
<polyline points="195.5,95.8465 205.10000000000036,95.8465" fill="" stroke="#000000" stroke-width="0.80" />
<polyline points="195.5,100.846 205.10000000000036,100.846" fill="" stroke="#000000" stroke-width="0.80" />
<polyline points="195.5,105.846 205.10000000000036,105.846" fill="" stroke="#000000" stroke-width="0.80" />
<polyline points="195.5,110.846 205.10000000000036,110.846" fill="" stroke="#000000" stroke-width="0.80" />
<polyline points="180.0,85.8465 189.60000000000036,85.8465" fill="" stroke="#000000" stroke-width="0.80" />
<polyline points="180.0,90.8465 189.60000000000036,90.8465" fill="" stroke="#000000" stroke-width="0.80" />
<polyline points="180.0,95.8465 189.60000000000036,95.8465" fill="" stroke="#000000" stroke-width="0.80" />
<polyline points="180.0,100.846 189.60000000000036,100.846" fill="" stroke="#000000" stroke-width="0.80" />
<polyline points="180.0,105.846 189.60000000000036,105.846" fill="" stroke="#000000" stroke-width="0.80" />
<polyline points="180.0,110.846 189.60000000000036,110.846" fill="" stroke="#000000" stroke-width="0.80" />
<polyline points="130.20000000000073,193.346 140.10000000000036,193.346" fill="" stroke="#000000" stroke-width="0.80" />
<polyline points="85.60000000000036,193.346 95.20000000000073,193.346" fill="" stroke="#000000" stroke-width="0.80" />
<polyline points="49.899999999999636,193.346 59.5,193.346" fill="" stroke="#000000" stroke-width="0.80" />
<polyline points="49.899999999999636,90.8465 59.5,90.8465" fill="" stroke="#000000" stroke-width="0.80" />
<polyline points="49.899999999999636,95.8465 59.5,95.8465" fill="" stroke="#000000" stroke-width="0.80" />
<polyline points="49.899999999999636,100.846 59.5,100.846" fill="" stroke="#000000" stroke-width="0.80" />
<polyline points="49.899999999999636,105.846 59.5,105.846" fill="" stroke="#000000" stroke-width="0.80" />
<polyline points="49.899999999999636,110.846 59.5,110.846" fill="" stroke="#000000" stroke-width="0.80" />
<polyline points="32.100000000000364,193.346 41.70000000000073,193.346" fill="" stroke="#000000" stroke-width="0.80" />
<polyline points="32.100000000000364,85.8465 41.70000000000073,85.8465" fill="" stroke="#000000" stroke-width="0.80" />
<polyline points="32.100000000000364,90.8465 41.70000000000073,90.8465" fill="" stroke="#000000" stroke-width="0.80" />
<polyline points="32.100000000000364,95.8465 41.70000000000073,95.8465" fill="" stroke="#000000" stroke-width="0.80" />
<polyline points="32.100000000000364,100.846 41.70000000000073,100.846" fill="" stroke="#000000" stroke-width="0.80" />
<polyline points="32.100000000000364,105.846 41.70000000000073,105.846" fill="" stroke="#000000" stroke-width="0.80" />
<polyline points="32.100000000000364,110.846 41.70000000000073,110.846" fill="" stroke="#000000" stroke-width="0.80" />
<polyline points="14.299999999999272,193.346 23.899999999999636,193.346" fill="" stroke="#000000" stroke-width="0.80" />
<polyline points="14.299999999999272,90.8465 23.899999999999636,90.8465" fill="" stroke="#000000" stroke-width="0.80" />
<polyline points="14.299999999999272,95.8465 23.899999999999636,95.8465" fill="" stroke="#000000" stroke-width="0.80" />
<polyline points="14.299999999999272,100.846 23.899999999999636,100.846" fill="" stroke="#000000" stroke-width="0.80" />
<polyline points="14.299999999999272,105.846 23.899999999999636,105.846" fill="" stroke="#000000" stroke-width="0.80" />
<polyline points="14.299999999999272,110.846 23.899999999999636,110.846" fill="" stroke="#000000" stroke-width="0.80" />
<polyline points="41.5,63.9836 50.29999999999927,63.9836" fill="" stroke="#000000" stroke-width="0.75" />
<polyline points="23.600000000000364,65.2093 32.5,65.2093" fill="" stroke="#000000" stroke-width="0.75" />
</svg>
