<?xml version="1.0" encoding="UTF-8" standalone="yes"?>
<svg width="256.0px" height="256.0px" xmlns="http://www.w3.org/2000/svg" xmlns:xlink="http://www.w3.org/1999/xlink" version="1.2" baseProfile="tiny">
<polyline points="0.0,13.846000000000004 178.29999999999927,13.846000000000004" fill="none" stroke="#000000" stroke-width="0.40" />
<polyline points="0.0,18.846000000000004 178.29999999999927,18.846000000000004" fill="none" stroke="#000000" stroke-width="0.40" />
<polyline points="0.0,23.846000000000004 178.29999999999927,23.846000000000004" fill="none" stroke="#000000" stroke-width="0.40" />
<polyline points="0.0,28.846000000000004 178.29999999999927,28.846000000000004" fill="none" stroke="#000000" stroke-width="0.40" />
<polyline points="0.0,33.846000000000004 178.29999999999927,33.846000000000004" fill="none" stroke="#000000" stroke-width="0.40" />
<polyline points="0.0,66.346 178.29999999999927,66.346" fill="none" stroke="#000000" stroke-width="0.40" />
<polyline points="0.0,71.346 178.29999999999927,71.346" fill="none" stroke="#000000" stroke-width="0.40" />
<polyline points="0.0,76.346 178.29999999999927,76.346" fill="none" stroke="#000000" stroke-width="0.40" />
<polyline points="0.0,81.346 178.29999999999927,81.346" fill="none" stroke="#000000" stroke-width="0.40" />
<polyline points="0.0,86.346 178.29999999999927,86.346" fill="none" stroke="#000000" stroke-width="0.40" />
<polyline points="177.89999999999964,66.346 177.89999999999964,86.346" fill="" stroke="#000000" stroke-width="0.80" />
<polyline points="177.89999999999964,13.846000000000004 177.89999999999964,33.846000000000004" fill="" stroke="#000000" stroke-width="0.80" />
<polyline points="145.39999999999964,65.90999999999997 145.39999999999964,97.596" fill="" stroke="#000000" stroke-width="0.65" />
<polyline points="145.39999999999964,29.785999999999945 145.39999999999964,43.846000000000004" fill="" stroke="#000000" stroke-width="0.65" />
<polyline points="129.29999999999927,12.285999999999945 129.29999999999927,43.846000000000004" fill="" stroke="#000000" stroke-width="0.65" />
<polyline points="113.10000000000036,65.90999999999997 113.10000000000036,97.596" fill="" stroke="#000000" stroke-width="0.65" />
<polyline points="113.10000000000036,29.785999999999945 113.10000000000036,43.846000000000004" fill="" stroke="#000000" stroke-width="0.65" />
<polyline points="87.20000000000073,65.90999999999997 87.20000000000073,97.596" fill="" stroke="#000000" stroke-width="0.65" />
<polyline points="93.20000000000073,27.90700000000004 93.20000000000073,13.846000000000004" fill="" stroke="#000000" stroke-width="0.65" />
<polyline points="61.29999999999927,65.90999999999997 61.29999999999927,97.596" fill="" stroke="#000000" stroke-width="0.65" />
<polyline points="67.29999999999927,27.90700000000004 67.29999999999927,13.846000000000004" fill="" stroke="#000000" stroke-width="0.65" />
<polyline points="51.100000000000364,32.90700000000004 51.100000000000364,13.846000000000004" fill="" stroke="#000000" stroke-width="0.65" />
<polyline points="29.0,65.90999999999997 29.0,92.596" fill="" stroke="#000000" stroke-width="0.65" />
<polyline points="2.600000000000364,25.40700000000004 2.600000000000364,10.096000000000004" fill="" stroke="#000000" stroke-width="0.65" />
<polyline points="235.0,13.846000000000004 255.0,13.846000000000004" fill="none" stroke="#000000" stroke-width="0.40" />
<polyline points="235.0,18.846000000000004 255.0,18.846000000000004" fill="none" stroke="#000000" stroke-width="0.40" />
<polyline points="235.0,23.846000000000004 255.0,23.846000000000004" fill="none" stroke="#000000" stroke-width="0.40" />
<polyline points="235.0,28.846000000000004 255.0,28.846000000000004" fill="none" stroke="#000000" stroke-width="0.40" />
<polyline points="235.0,33.846000000000004 255.0,33.846000000000004" fill="none" stroke="#000000" stroke-width="0.40" />
<polyline points="235.0,66.346 255.0,66.346" fill="none" stroke="#000000" stroke-width="0.40" />
<polyline points="235.0,71.346 255.0,71.346" fill="none" stroke="#000000" stroke-width="0.40" />
<polyline points="235.0,76.346 255.0,76.346" fill="none" stroke="#000000" stroke-width="0.40" />
<polyline points="235.0,81.346 255.0,81.346" fill="none" stroke="#000000" stroke-width="0.40" />
<polyline points="235.0,86.346 255.0,86.346" fill="none" stroke="#000000" stroke-width="0.40" />
<polyline points="235.39999999999964,0.0 235.39999999999964,86.346" fill="" stroke="#000000" stroke-width="0.80" />
</svg>
