<?xml version="1.0" encoding="UTF-8" standalone="yes"?>
<svg width="256.0px" height="256.0px" xmlns="http://www.w3.org/2000/svg" xmlns:xlink="http://www.w3.org/1999/xlink" version="1.2" baseProfile="tiny">
<polyline points="0.0,17.346000000000004 255.0,17.346000000000004" fill="none" stroke="#000000" stroke-width="0.40" />
<polyline points="0.0,22.346000000000004 255.0,22.346000000000004" fill="none" stroke="#000000" stroke-width="0.40" />
<polyline points="0.0,27.346000000000004 255.0,27.346000000000004" fill="none" stroke="#000000" stroke-width="0.40" />
<polyline points="0.0,32.346000000000004 255.0,32.346000000000004" fill="none" stroke="#000000" stroke-width="0.40" />
<polyline points="0.0,37.346000000000004 255.0,37.346000000000004" fill="none" stroke="#000000" stroke-width="0.40" />
<polyline points="0.0,112.346 255.0,112.346" fill="none" stroke="#000000" stroke-width="0.40" />
<polyline points="0.0,117.346 255.0,117.346" fill="none" stroke="#000000" stroke-width="0.40" />
<polyline points="0.0,122.346 255.0,122.346" fill="none" stroke="#000000" stroke-width="0.40" />
<polyline points="0.0,127.346 255.0,127.346" fill="none" stroke="#000000" stroke-width="0.40" />
<polyline points="0.0,132.346 255.0,132.346" fill="none" stroke="#000000" stroke-width="0.40" />
<polyline points="0.0,164.846 255.0,164.846" fill="none" stroke="#000000" stroke-width="0.40" />
<polyline points="0.0,169.846 255.0,169.846" fill="none" stroke="#000000" stroke-width="0.40" />
<polyline points="0.0,174.846 255.0,174.846" fill="none" stroke="#000000" stroke-width="0.40" />
<polyline points="0.0,179.846 255.0,179.846" fill="none" stroke="#000000" stroke-width="0.40" />
<polyline points="0.0,184.846 255.0,184.846" fill="none" stroke="#000000" stroke-width="0.40" />
<polyline points="0.0,217.346 255.0,217.346" fill="none" stroke="#000000" stroke-width="0.40" />
<polyline points="0.0,222.346 255.0,222.346" fill="none" stroke="#000000" stroke-width="0.40" />
<polyline points="0.0,227.346 255.0,227.346" fill="none" stroke="#000000" stroke-width="0.40" />
<polyline points="0.0,232.346 255.0,232.346" fill="none" stroke="#000000" stroke-width="0.40" />
<polyline points="0.0,237.346 255.0,237.346" fill="none" stroke="#000000" stroke-width="0.40" />
<polyline points="245.70000000000073,241.40699999999998 245.70000000000073,208.596" fill="" stroke="#000000" stroke-width="0.65" />
<polyline points="239.79999999999927,138.286 239.79999999999927,173.596" fill="" stroke="#000000" stroke-width="0.65" />
<polyline points="239.79999999999927,115.786 239.79999999999927,142.346" fill="" stroke="#000000" stroke-width="0.65" />
<polyline points="214.89999999999964,252.86200000000002 214.89999999999964,208.596" fill="" stroke="#000000" stroke-width="0.65" />
<polyline points="209.0,138.286 209.0,173.596" fill="" stroke="#000000" stroke-width="0.65" />
<polyline points="209.0,115.786 209.0,142.346" fill="" stroke="#000000" stroke-width="0.65" />
<polyline points="184.10000000000036,252.86200000000002 184.10000000000036,208.596" fill="" stroke="#000000" stroke-width="0.65" />
<polyline points="153.29999999999927,241.40699999999998 153.29999999999927,208.596" fill="" stroke="#000000" stroke-width="0.65" />
<polyline points="147.29999999999927,138.286 147.29999999999927,173.596" fill="" stroke="#000000" stroke-width="0.65" />
<polyline points="147.29999999999927,115.786 147.29999999999927,142.346" fill="" stroke="#000000" stroke-width="0.65" />
<polyline points="122.5,252.86200000000002 122.5,208.596" fill="" stroke="#000000" stroke-width="0.65" />
<polyline points="116.5,138.286 116.5,173.596" fill="" stroke="#000000" stroke-width="0.65" />
<polyline points="116.5,115.786 116.5,142.346" fill="" stroke="#000000" stroke-width="0.65" />
<polyline points="91.60000000000036,252.86200000000002 91.60000000000036,208.596" fill="" stroke="#000000" stroke-width="0.65" />
<polyline points="85.70000000000073,138.286 85.70000000000073,173.596" fill="" stroke="#000000" stroke-width="0.65" />
<polyline points="85.70000000000073,115.786 85.70000000000073,142.346" fill="" stroke="#000000" stroke-width="0.65" />
<polyline points="60.79999999999927,241.40699999999998 60.79999999999927,208.596" fill="" stroke="#000000" stroke-width="0.65" />
<polyline points="54.899999999999636,138.286 54.899999999999636,173.596" fill="" stroke="#000000" stroke-width="0.65" />
<polyline points="54.899999999999636,115.786 54.899999999999636,142.346" fill="" stroke="#000000" stroke-width="0.65" />
<polyline points="30.0,252.86200000000002 30.0,208.596" fill="" stroke="#000000" stroke-width="0.65" />
<polyline points="24.100000000000364,138.286 24.100000000000364,173.596" fill="" stroke="#000000" stroke-width="0.65" />
<polyline points="24.100000000000364,115.786 24.100000000000364,142.346" fill="" stroke="#000000" stroke-width="0.65" />
<polyline points="226.20000000000073,16.910000000000025 226.20000000000073,41.096000000000004" fill="" stroke="#000000" stroke-width="0.65" />
<polyline points="208.20000000000073,16.910000000000025 208.20000000000073,51.096000000000004" fill="" stroke="#000000" stroke-width="0.65" />
<polyline points="190.29999999999927,16.910000000000025 190.29999999999927,51.096000000000004" fill="" stroke="#000000" stroke-width="0.65" />
<polyline points="154.39999999999964,16.910000000000025 154.39999999999964,51.096000000000004" fill="" stroke="#000000" stroke-width="0.65" />
<polyline points="136.5,25.786 136.5,41.096000000000004" fill="" stroke="#000000" stroke-width="0.65" />
<polyline points="118.5,16.910000000000025 118.5,41.096000000000004" fill="" stroke="#000000" stroke-width="0.65" />
<polyline points="89.79999999999927,16.910000000000025 89.79999999999927,41.096000000000004" fill="" stroke="#000000" stroke-width="0.65" />
<polyline points="53.899999999999636,16.910000000000025 53.899999999999636,41.096000000000004" fill="" stroke="#000000" stroke-width="0.65" />
<polyline points="18.0,16.910000000000025 18.0,48.596000000000004" fill="" stroke="#000000" stroke-width="0.65" />
<polyline points="237.89999999999964,242.346 247.5,242.346" fill="" stroke="#000000" stroke-width="0.80" />
<polyline points="237.89999999999964,139.846 247.5,139.846" fill="" stroke="#000000" stroke-width="0.80" />
<polyline points="232.0,144.846 247.5,144.846" fill="" stroke="#000000" stroke-width="0.80" />
<polyline points="232.0,149.846 247.5,149.846" fill="" stroke="#000000" stroke-width="0.80" />
<polyline points="232.0,154.846 247.5,154.846" fill="" stroke="#000000" stroke-width="0.80" />
<polyline points="232.0,159.846 247.5,159.846" fill="" stroke="#000000" stroke-width="0.80" />
<polyline points="207.10000000000036,242.346 216.70000000000073,242.346" fill="" stroke="#000000" stroke-width="0.80" />
<polyline points="207.10000000000036,247.346 216.70000000000073,247.346" fill="" stroke="#000000" stroke-width="0.80" />
<polyline points="207.10000000000036,252.346 216.70000000000073,252.346" fill="" stroke="#000000" stroke-width="0.80" />
<polyline points="207.10000000000036,139.846 216.70000000000073,139.846" fill="" stroke="#000000" stroke-width="0.80" />
<polyline points="201.20000000000073,144.846 216.70000000000073,144.846" fill="" stroke="#000000" stroke-width="0.80" />
<polyline points="201.20000000000073,149.846 216.70000000000073,149.846" fill="" stroke="#000000" stroke-width="0.80" />
<polyline points="201.20000000000073,154.846 216.70000000000073,154.846" fill="" stroke="#000000" stroke-width="0.80" />
<polyline points="201.20000000000073,159.846 216.70000000000073,159.846" fill="" stroke="#000000" stroke-width="0.80" />
<polyline points="176.29999999999927,242.346 185.89999999999964,242.346" fill="" stroke="#000000" stroke-width="0.80" />
<polyline points="176.29999999999927,247.346 185.89999999999964,247.346" fill="" stroke="#000000" stroke-width="0.80" />
<polyline points="176.29999999999927,252.346 185.89999999999964,252.346" fill="" stroke="#000000" stroke-width="0.80" />
<polyline points="145.5,242.346 155.10000000000036,242.346" fill="" stroke="#000000" stroke-width="0.80" />
<polyline points="145.5,139.846 155.10000000000036,139.846" fill="" stroke="#000000" stroke-width="0.80" />
<polyline points="139.60000000000036,144.846 155.10000000000036,144.846" fill="" stroke="#000000" stroke-width="0.80" />
<polyline points="139.60000000000036,149.846 155.10000000000036,149.846" fill="" stroke="#000000" stroke-width="0.80" />
<polyline points="139.60000000000036,154.846 155.10000000000036,154.846" fill="" stroke="#000000" stroke-width="0.80" />
<polyline points="139.60000000000036,159.846 155.10000000000036,159.846" fill="" stroke="#000000" stroke-width="0.80" />
<polyline points="114.70000000000073,242.346 124.29999999999927,242.346" fill="" stroke="#000000" stroke-width="0.80" />
<polyline points="114.70000000000073,247.346 124.29999999999927,247.346" fill="" stroke="#000000" stroke-width="0.80" />
<polyline points="114.70000000000073,252.346 124.29999999999927,252.346" fill="" stroke="#000000" stroke-width="0.80" />
<polyline points="114.70000000000073,139.846 124.29999999999927,139.846" fill="" stroke="#000000" stroke-width="0.80" />
<polyline points="108.79999999999927,144.846 124.29999999999927,144.846" fill="" stroke="#000000" stroke-width="0.80" />
<polyline points="108.79999999999927,149.846 124.29999999999927,149.846" fill="" stroke="#000000" stroke-width="0.80" />
<polyline points="108.79999999999927,154.846 124.29999999999927,154.846" fill="" stroke="#000000" stroke-width="0.80" />
<polyline points="108.79999999999927,159.846 124.29999999999927,159.846" fill="" stroke="#000000" stroke-width="0.80" />
<polyline points="83.89999999999964,242.346 93.5,242.346" fill="" stroke="#000000" stroke-width="0.80" />
<polyline points="83.89999999999964,247.346 93.5,247.346" fill="" stroke="#000000" stroke-width="0.80" />
<polyline points="83.89999999999964,252.346 93.5,252.346" fill="" stroke="#000000" stroke-width="0.80" />
<polyline points="83.89999999999964,139.846 93.5,139.846" fill="" stroke="#000000" stroke-width="0.80" />
<polyline points="78.0,144.846 93.5,144.846" fill="" stroke="#000000" stroke-width="0.80" />
<polyline points="78.0,149.846 93.5,149.846" fill="" stroke="#000000" stroke-width="0.80" />
<polyline points="78.0,154.846 93.5,154.846" fill="" stroke="#000000" stroke-width="0.80" />
<polyline points="78.0,159.846 93.5,159.846" fill="" stroke="#000000" stroke-width="0.80" />
<polyline points="53.100000000000364,242.346 62.70000000000073,242.346" fill="" stroke="#000000" stroke-width="0.80" />
<polyline points="53.100000000000364,139.846 62.70000000000073,139.846" fill="" stroke="#000000" stroke-width="0.80" />
<polyline points="47.100000000000364,144.846 62.70000000000073,144.846" fill="" stroke="#000000" stroke-width="0.80" />
<polyline points="47.100000000000364,149.846 62.70000000000073,149.846" fill="" stroke="#000000" stroke-width="0.80" />
<polyline points="47.100000000000364,154.846 62.70000000000073,154.846" fill="" stroke="#000000" stroke-width="0.80" />
<polyline points="47.100000000000364,159.846 62.70000000000073,159.846" fill="" stroke="#000000" stroke-width="0.80" />
<polyline points="22.299999999999272,242.346 31.799999999999272,242.346" fill="" stroke="#000000" stroke-width="0.80" />
<polyline points="22.299999999999272,247.346 31.799999999999272,247.346" fill="" stroke="#000000" stroke-width="0.80" />
<polyline points="22.299999999999272,252.346 31.799999999999272,252.346" fill="" stroke="#000000" stroke-width="0.80" />
<polyline points="22.299999999999272,139.846 31.799999999999272,139.846" fill="" stroke="#000000" stroke-width="0.80" />
<polyline points="16.299999999999272,144.846 31.799999999999272,144.846" fill="" stroke="#000000" stroke-width="0.80" />
<polyline points="16.299999999999272,149.846 31.799999999999272,149.846" fill="" stroke="#000000" stroke-width="0.80" />
<polyline points="16.299999999999272,154.846 31.799999999999272,154.846" fill="" stroke="#000000" stroke-width="0.80" />
<polyline points="16.299999999999272,159.846 31.799999999999272,159.846" fill="" stroke="#000000" stroke-width="0.80" />
</svg>
