<?xml version="1.0" encoding="UTF-8" standalone="yes"?>
<svg width="256.0px" height="256.0px" xmlns="http://www.w3.org/2000/svg" xmlns:xlink="http://www.w3.org/1999/xlink" version="1.2" baseProfile="tiny">
<polyline points="0.0,13.846000000000004 255.0,13.846000000000004" fill="none" stroke="#000000" stroke-width="0.40" />
<polyline points="0.0,18.846000000000004 255.0,18.846000000000004" fill="none" stroke="#000000" stroke-width="0.40" />
<polyline points="0.0,23.846000000000004 255.0,23.846000000000004" fill="none" stroke="#000000" stroke-width="0.40" />
<polyline points="0.0,28.846000000000004 255.0,28.846000000000004" fill="none" stroke="#000000" stroke-width="0.40" />
<polyline points="0.0,33.846000000000004 255.0,33.846000000000004" fill="none" stroke="#000000" stroke-width="0.40" />
<polyline points="0.0,66.346 255.0,66.346" fill="none" stroke="#000000" stroke-width="0.40" />
<polyline points="0.0,71.346 255.0,71.346" fill="none" stroke="#000000" stroke-width="0.40" />
<polyline points="0.0,76.346 255.0,76.346" fill="none" stroke="#000000" stroke-width="0.40" />
<polyline points="0.0,81.346 255.0,81.346" fill="none" stroke="#000000" stroke-width="0.40" />
<polyline points="0.0,86.346 255.0,86.346" fill="none" stroke="#000000" stroke-width="0.40" />
<polyline points="57.29999999999927,66.346 57.29999999999927,86.346" fill="" stroke="#000000" stroke-width="0.80" />
<polyline points="57.29999999999927,13.846000000000004 57.29999999999927,33.846000000000004" fill="" stroke="#000000" stroke-width="0.80" />
<polyline points="121.70000000000073,5.471000000000004 115.20000000000073,9.471000000000004" fill="" stroke="#000000" stroke-width="0.65" />
<polyline points="248.29999999999927,74.78599999999994 248.29999999999927,90.096" fill="" stroke="#000000" stroke-width="0.65" />
<polyline points="235.39999999999964,74.78599999999994 235.39999999999964,90.096" fill="" stroke="#000000" stroke-width="0.65" />
<polyline points="241.39999999999964,25.40700000000004 241.39999999999964,10.096000000000004" fill="" stroke="#000000" stroke-width="0.65" />
<polyline points="222.5,74.78599999999994 222.5,90.096" fill="" stroke="#000000" stroke-width="0.65" />
<polyline points="220.39999999999964,25.40700000000004 220.39999999999964,10.096000000000004" fill="" stroke="#000000" stroke-width="0.65" />
<polyline points="206.39999999999964,74.78599999999994 206.39999999999964,90.096" fill="" stroke="#000000" stroke-width="0.65" />
<polyline points="193.5,72.28599999999994 193.5,90.096" fill="" stroke="#000000" stroke-width="0.65" />
<polyline points="199.5,27.90700000000004 199.5,10.096000000000004" fill="" stroke="#000000" stroke-width="0.65" />
<polyline points="177.79999999999927,74.78599999999994 177.79999999999927,90.096" fill="" stroke="#000000" stroke-width="0.65" />
<polyline points="162.10000000000036,74.78599999999994 162.10000000000036,90.096" fill="" stroke="#000000" stroke-width="0.65" />
<polyline points="162.10000000000036,17.285999999999945 162.10000000000036,32.596000000000004" fill="" stroke="#000000" stroke-width="0.65" />
<polyline points="146.39999999999964,74.78599999999994 146.39999999999964,90.096" fill="" stroke="#000000" stroke-width="0.65" />
<polyline points="146.39999999999964,17.285999999999945 146.39999999999964,32.596000000000004" fill="" stroke="#000000" stroke-width="0.65" />
<polyline points="117.60000000000036,15.688999999999965 117.60000000000036,1.4710000000000036" fill="" stroke="#000000" stroke-width="0.65" />
<polyline points="130.60000000000036,17.285999999999945 130.60000000000036,32.596000000000004" fill="" stroke="#000000" stroke-width="0.65" />
<polyline points="105.0,72.28599999999994 105.0,86.346" fill="" stroke="#000000" stroke-width="0.65" />
<polyline points="110.89999999999964,20.40700000000004 110.89999999999964,7.596000000000004" fill="" stroke="#000000" stroke-width="0.65" />
<polyline points="79.29999999999927,72.28599999999994 79.29999999999927,86.346" fill="" stroke="#000000" stroke-width="0.65" />
<polyline points="85.29999999999927,32.90700000000004 85.29999999999927,12.596000000000004" fill="" stroke="#000000" stroke-width="0.65" />
<polyline points="43.0,74.78599999999994 43.0,91.346" fill="" stroke="#000000" stroke-width="0.65" />
<polyline points="28.299999999999272,65.90999999999997 28.299999999999272,88.90099999999995" fill="" stroke="#000000" stroke-width="0.65" />
<polyline points="28.700000000000728,19.785999999999945 28.700000000000728,35.096000000000004" fill="" stroke="#000000" stroke-width="0.65" />
<polyline points="5.600000000000364,65.90999999999997 5.600000000000364,85.096" fill="" stroke="#000000" stroke-width="0.65" />
<polyline points="6.0,12.285999999999945 6.0,37.23900000000003" fill="" stroke="#000000" stroke-width="0.65" />
</svg>
