<?xml version="1.0" encoding="UTF-8" standalone="yes"?>
<svg width="256.0px" height="256.0px" xmlns="http://www.w3.org/2000/svg" xmlns:xlink="http://www.w3.org/1999/xlink" version="1.2" baseProfile="tiny">
<polyline points="0.0,13.846000000000004 255.0,13.846000000000004" fill="none" stroke="#000000" stroke-width="0.40" />
<polyline points="0.0,18.846000000000004 255.0,18.846000000000004" fill="none" stroke="#000000" stroke-width="0.40" />
<polyline points="0.0,23.846000000000004 255.0,23.846000000000004" fill="none" stroke="#000000" stroke-width="0.40" />
<polyline points="0.0,28.846000000000004 255.0,28.846000000000004" fill="none" stroke="#000000" stroke-width="0.40" />
<polyline points="0.0,33.846000000000004 255.0,33.846000000000004" fill="none" stroke="#000000" stroke-width="0.40" />
<polyline points="0.0,66.346 255.0,66.346" fill="none" stroke="#000000" stroke-width="0.40" />
<polyline points="0.0,71.346 255.0,71.346" fill="none" stroke="#000000" stroke-width="0.40" />
<polyline points="0.0,76.346 255.0,76.346" fill="none" stroke="#000000" stroke-width="0.40" />
<polyline points="0.0,81.346 255.0,81.346" fill="none" stroke="#000000" stroke-width="0.40" />
<polyline points="0.0,86.346 255.0,86.346" fill="none" stroke="#000000" stroke-width="0.40" />
<polyline points="239.79999999999927,74.78599999999994 239.79999999999927,90.096" fill="" stroke="#000000" stroke-width="0.65" />
<polyline points="239.79999999999927,2.2859999999999445 239.79999999999927,22.596000000000004" fill="" stroke="#000000" stroke-width="0.65" />
<polyline points="209.0,72.28599999999994 209.0,90.096" fill="" stroke="#000000" stroke-width="0.65" />
<polyline points="209.0,2.2859999999999445 209.0,23.013000000000034" fill="" stroke="#000000" stroke-width="0.65" />
<polyline points="178.10000000000036,74.78599999999994 178.10000000000036,90.096" fill="" stroke="#000000" stroke-width="0.65" />
<polyline points="147.29999999999927,4.7859999999999445 147.29999999999927,23.846000000000004" fill="" stroke="#000000" stroke-width="0.65" />
<polyline points="116.5,4.7859999999999445 116.5,33.846000000000004" fill="" stroke="#000000" stroke-width="0.65" />
<polyline points="85.70000000000073,74.78599999999994 85.70000000000073,90.096" fill="" stroke="#000000" stroke-width="0.65" />
<polyline points="85.70000000000073,19.785999999999945 85.70000000000073,33.846000000000004" fill="" stroke="#000000" stroke-width="0.65" />
<polyline points="54.899999999999636,74.78599999999994 54.899999999999636,90.096" fill="" stroke="#000000" stroke-width="0.65" />
<polyline points="54.899999999999636,9.785999999999945 54.899999999999636,33.846000000000004" fill="" stroke="#000000" stroke-width="0.65" />
<polyline points="24.100000000000364,72.28599999999994 24.100000000000364,90.096" fill="" stroke="#000000" stroke-width="0.65" />
<polyline points="24.100000000000364,9.785999999999945 24.100000000000364,33.846000000000004" fill="" stroke="#000000" stroke-width="0.65" />
<polyline points="237.89999999999964,3.8460000000000036 247.5,3.8460000000000036" fill="" stroke="#000000" stroke-width="0.80" />
<polyline points="237.89999999999964,8.846000000000004 247.5,8.846000000000004" fill="" stroke="#000000" stroke-width="0.80" />
<polyline points="207.10000000000036,3.8460000000000036 216.70000000000073,3.8460000000000036" fill="" stroke="#000000" stroke-width="0.80" />
<polyline points="207.10000000000036,8.846000000000004 216.70000000000073,8.846000000000004" fill="" stroke="#000000" stroke-width="0.80" />
<polyline points="145.5,3.8460000000000036 155.10000000000036,3.8460000000000036" fill="" stroke="#000000" stroke-width="0.80" />
<polyline points="145.5,8.846000000000004 155.10000000000036,8.846000000000004" fill="" stroke="#000000" stroke-width="0.80" />
<polyline points="114.70000000000073,3.8460000000000036 124.29999999999927,3.8460000000000036" fill="" stroke="#000000" stroke-width="0.80" />
<polyline points="114.70000000000073,8.846000000000004 124.29999999999927,8.846000000000004" fill="" stroke="#000000" stroke-width="0.80" />
<polyline points="53.100000000000364,8.846000000000004 62.70000000000073,8.846000000000004" fill="" stroke="#000000" stroke-width="0.80" />
<polyline points="22.299999999999272,8.846000000000004 31.799999999999272,8.846000000000004" fill="" stroke="#000000" stroke-width="0.80" />
</svg>
