<?xml version="1.0" encoding="UTF-8" standalone="yes"?>
<svg width="256.0px" height="256.0px" xmlns="http://www.w3.org/2000/svg" xmlns:xlink="http://www.w3.org/1999/xlink" version="1.2" baseProfile="tiny">
<polyline points="0.0,63.3465 255.0,63.3465" fill="none" stroke="#000000" stroke-width="0.40" />
<polyline points="0.0,68.3465 255.0,68.3465" fill="none" stroke="#000000" stroke-width="0.40" />
<polyline points="0.0,73.3465 255.0,73.3465" fill="none" stroke="#000000" stroke-width="0.40" />
<polyline points="0.0,78.3465 255.0,78.3465" fill="none" stroke="#000000" stroke-width="0.40" />
<polyline points="0.0,83.3465 255.0,83.3465" fill="none" stroke="#000000" stroke-width="0.40" />
<polyline points="0.0,115.846 255.0,115.846" fill="none" stroke="#000000" stroke-width="0.40" />
<polyline points="0.0,120.846 255.0,120.846" fill="none" stroke="#000000" stroke-width="0.40" />
<polyline points="0.0,125.846 255.0,125.846" fill="none" stroke="#000000" stroke-width="0.40" />
<polyline points="0.0,130.846 255.0,130.846" fill="none" stroke="#000000" stroke-width="0.40" />
<polyline points="0.0,135.846 255.0,135.846" fill="none" stroke="#000000" stroke-width="0.40" />
<polyline points="0.0,168.346 255.0,168.346" fill="none" stroke="#000000" stroke-width="0.40" />
<polyline points="0.0,173.346 255.0,173.346" fill="none" stroke="#000000" stroke-width="0.40" />
<polyline points="0.0,178.346 255.0,178.346" fill="none" stroke="#000000" stroke-width="0.40" />
<polyline points="0.0,183.346 255.0,183.346" fill="none" stroke="#000000" stroke-width="0.40" />
<polyline points="0.0,188.346 255.0,188.346" fill="none" stroke="#000000" stroke-width="0.40" />
<polyline points="0.0,220.846 255.0,220.846" fill="none" stroke="#000000" stroke-width="0.40" />
<polyline points="0.0,225.846 255.0,225.846" fill="none" stroke="#000000" stroke-width="0.40" />
<polyline points="0.0,230.846 255.0,230.846" fill="none" stroke="#000000" stroke-width="0.40" />
<polyline points="0.0,235.846 255.0,235.846" fill="none" stroke="#000000" stroke-width="0.40" />
<polyline points="0.0,240.846 255.0,240.846" fill="none" stroke="#000000" stroke-width="0.40" />
<polyline points="8.700000000000728,220.846 8.700000000000728,240.846" fill="" stroke="#000000" stroke-width="0.80" />
<polyline points="8.700000000000728,168.346 8.700000000000728,188.346" fill="" stroke="#000000" stroke-width="0.80" />
<polyline points="8.700000000000728,115.846 8.700000000000728,135.846" fill="" stroke="#000000" stroke-width="0.80" />
<polyline points="8.700000000000728,63.3465 8.700000000000728,83.3465" fill="" stroke="#000000" stroke-width="0.80" />
<polyline points="244.70000000000073,234.907 244.70000000000073,220.846" fill="" stroke="#000000" stroke-width="0.65" />
<polyline points="238.70000000000073,96.7855 238.70000000000073,124.596" fill="" stroke="#000000" stroke-width="0.65" />
<polyline points="244.70000000000073,72.4074 244.70000000000073,54.5965" fill="" stroke="#000000" stroke-width="0.65" />
<polyline points="226.79999999999927,239.907 226.79999999999927,220.846" fill="" stroke="#000000" stroke-width="0.65" />
<polyline points="209.0,234.907 209.0,220.846" fill="" stroke="#000000" stroke-width="0.65" />
<polyline points="203.10000000000036,91.7855 203.10000000000036,125.077" fill="" stroke="#000000" stroke-width="0.65" />
<polyline points="209.0,67.4074 209.0,54.5965" fill="" stroke="#000000" stroke-width="0.65" />
<polyline points="180.5,234.907 180.5,220.846" fill="" stroke="#000000" stroke-width="0.65" />
<polyline points="174.60000000000036,96.7855 174.60000000000036,125.462" fill="" stroke="#000000" stroke-width="0.65" />
<polyline points="180.5,72.4074 180.5,54.5965" fill="" stroke="#000000" stroke-width="0.65" />
<polyline points="152.0,234.907 152.0,220.846" fill="" stroke="#000000" stroke-width="0.65" />
<polyline points="152.20000000000073,195.078 152.20000000000073,158.971" fill="" stroke="#000000" stroke-width="0.65" />
<polyline points="146.0,104.286 146.0,125.846" fill="" stroke="#000000" stroke-width="0.65" />
<polyline points="152.0,79.9074 152.0,54.5965" fill="" stroke="#000000" stroke-width="0.65" />
<polyline points="134.20000000000073,239.907 134.20000000000073,220.846" fill="" stroke="#000000" stroke-width="0.65" />
<polyline points="110.39999999999964,96.7855 110.39999999999964,125.846" fill="" stroke="#000000" stroke-width="0.65" />
<polyline points="110.39999999999964,74.2855 110.39999999999964,88.3465" fill="" stroke="#000000" stroke-width="0.65" />
<polyline points="92.60000000000036,89.2855 92.60000000000036,125.221" fill="" stroke="#000000" stroke-width="0.65" />
<polyline points="92.60000000000036,66.7855 92.60000000000036,85.2215" fill="" stroke="#000000" stroke-width="0.65" />
<polyline points="80.70000000000073,232.407 80.70000000000073,217.096" fill="" stroke="#000000" stroke-width="0.65" />
<polyline points="74.79999999999927,86.7855 74.79999999999927,124.596" fill="" stroke="#000000" stroke-width="0.65" />
<polyline points="74.79999999999927,64.2855 74.79999999999927,82.0965" fill="" stroke="#000000" stroke-width="0.65" />
<polyline points="23.700000000000728,232.407 23.700000000000728,217.096" fill="" stroke="#000000" stroke-width="0.65" />
<polyline points="23.799999999999272,192.578 23.799999999999272,157.096" fill="" stroke="#000000" stroke-width="0.65" />
<polyline points="236.89999999999964,95.8465 246.5,95.8465" fill="" stroke="#000000" stroke-width="0.80" />
<polyline points="236.89999999999964,100.846 246.5,100.846" fill="" stroke="#000000" stroke-width="0.80" />
<polyline points="236.89999999999964,105.846 246.5,105.846" fill="" stroke="#000000" stroke-width="0.80" />
<polyline points="236.89999999999964,110.846 246.5,110.846" fill="" stroke="#000000" stroke-width="0.80" />
<polyline points="201.29999999999927,90.8465 210.79999999999927,90.8465" fill="" stroke="#000000" stroke-width="0.80" />
<polyline points="201.29999999999927,95.8465 210.79999999999927,95.8465" fill="" stroke="#000000" stroke-width="0.80" />
<polyline points="201.29999999999927,100.846 210.79999999999927,100.846" fill="" stroke="#000000" stroke-width="0.80" />
<polyline points="201.29999999999927,105.846 210.79999999999927,105.846" fill="" stroke="#000000" stroke-width="0.80" />
<polyline points="201.29999999999927,110.846 210.79999999999927,110.846" fill="" stroke="#000000" stroke-width="0.80" />
<polyline points="172.70000000000073,95.8465 182.29999999999927,95.8465" fill="" stroke="#000000" stroke-width="0.80" />
<polyline points="172.70000000000073,100.846 182.29999999999927,100.846" fill="" stroke="#000000" stroke-width="0.80" />
<polyline points="172.70000000000073,105.846 182.29999999999927,105.846" fill="" stroke="#000000" stroke-width="0.80" />
<polyline points="172.70000000000073,110.846 182.29999999999927,110.846" fill="" stroke="#000000" stroke-width="0.80" />
<polyline points="144.0,193.346 154.0,193.346" fill="" stroke="#000000" stroke-width="0.80" />
<polyline points="144.20000000000073,105.846 153.79999999999927,105.846" fill="" stroke="#000000" stroke-width="0.80" />
<polyline points="144.20000000000073,110.846 153.79999999999927,110.846" fill="" stroke="#000000" stroke-width="0.80" />
<polyline points="108.60000000000036,95.8465 118.20000000000073,95.8465" fill="" stroke="#000000" stroke-width="0.80" />
<polyline points="108.60000000000036,100.846 118.20000000000073,100.846" fill="" stroke="#000000" stroke-width="0.80" />
<polyline points="108.60000000000036,105.846 118.20000000000073,105.846" fill="" stroke="#000000" stroke-width="0.80" />
<polyline points="108.60000000000036,110.846 118.20000000000073,110.846" fill="" stroke="#000000" stroke-width="0.80" />
<polyline points="90.79999999999927,90.8465 100.29999999999927,90.8465" fill="" stroke="#000000" stroke-width="0.80" />
<polyline points="90.79999999999927,95.8465 100.29999999999927,95.8465" fill="" stroke="#000000" stroke-width="0.80" />
<polyline points="90.79999999999927,100.846 100.29999999999927,100.846" fill="" stroke="#000000" stroke-width="0.80" />
<polyline points="90.79999999999927,105.846 100.29999999999927,105.846" fill="" stroke="#000000" stroke-width="0.80" />
<polyline points="90.79999999999927,110.846 100.29999999999927,110.846" fill="" stroke="#000000" stroke-width="0.80" />
<polyline points="72.89999999999964,85.8465 82.5,85.8465" fill="" stroke="#000000" stroke-width="0.80" />
<polyline points="72.89999999999964,90.8465 82.5,90.8465" fill="" stroke="#000000" stroke-width="0.80" />
<polyline points="72.89999999999964,95.8465 82.5,95.8465" fill="" stroke="#000000" stroke-width="0.80" />
<polyline points="72.89999999999964,100.846 82.5,100.846" fill="" stroke="#000000" stroke-width="0.80" />
<polyline points="72.89999999999964,105.846 82.5,105.846" fill="" stroke="#000000" stroke-width="0.80" />
<polyline points="72.89999999999964,110.846 82.5,110.846" fill="" stroke="#000000" stroke-width="0.80" />
<polyline points="15.700000000000728,193.346 25.700000000000728,193.346" fill="" stroke="#000000" stroke-width="0.80" />
</svg>
