<?xml version="1.0" encoding="UTF-8" standalone="yes"?>
<svg width="256.0px" height="256.0px" xmlns="http://www.w3.org/2000/svg" xmlns:xlink="http://www.w3.org/1999/xlink" version="1.2" baseProfile="tiny">
<polyline points="0.0,17.346000000000004 255.0,17.346000000000004" fill="none" stroke="#000000" stroke-width="0.40" />
<polyline points="0.0,22.346000000000004 255.0,22.346000000000004" fill="none" stroke="#000000" stroke-width="0.40" />
<polyline points="0.0,27.346000000000004 255.0,27.346000000000004" fill="none" stroke="#000000" stroke-width="0.40" />
<polyline points="0.0,32.346000000000004 255.0,32.346000000000004" fill="none" stroke="#000000" stroke-width="0.40" />
<polyline points="0.0,37.346000000000004 255.0,37.346000000000004" fill="none" stroke="#000000" stroke-width="0.40" />
<polyline points="0.0,112.346 255.0,112.346" fill="none" stroke="#000000" stroke-width="0.40" />
<polyline points="0.0,117.346 255.0,117.346" fill="none" stroke="#000000" stroke-width="0.40" />
<polyline points="0.0,122.346 255.0,122.346" fill="none" stroke="#000000" stroke-width="0.40" />
<polyline points="0.0,127.346 255.0,127.346" fill="none" stroke="#000000" stroke-width="0.40" />
<polyline points="0.0,132.346 255.0,132.346" fill="none" stroke="#000000" stroke-width="0.40" />
<polyline points="0.0,164.846 255.0,164.846" fill="none" stroke="#000000" stroke-width="0.40" />
<polyline points="0.0,169.846 255.0,169.846" fill="none" stroke="#000000" stroke-width="0.40" />
<polyline points="0.0,174.846 255.0,174.846" fill="none" stroke="#000000" stroke-width="0.40" />
<polyline points="0.0,179.846 255.0,179.846" fill="none" stroke="#000000" stroke-width="0.40" />
<polyline points="0.0,184.846 255.0,184.846" fill="none" stroke="#000000" stroke-width="0.40" />
<polyline points="0.0,217.346 255.0,217.346" fill="none" stroke="#000000" stroke-width="0.40" />
<polyline points="0.0,222.346 255.0,222.346" fill="none" stroke="#000000" stroke-width="0.40" />
<polyline points="0.0,227.346 255.0,227.346" fill="none" stroke="#000000" stroke-width="0.40" />
<polyline points="0.0,232.346 255.0,232.346" fill="none" stroke="#000000" stroke-width="0.40" />
<polyline points="0.0,237.346 255.0,237.346" fill="none" stroke="#000000" stroke-width="0.40" />
<polyline points="125.39999999999964,217.346 125.39999999999964,237.346" fill="" stroke="#000000" stroke-width="0.80" />
<polyline points="125.39999999999964,164.846 125.39999999999964,184.846" fill="" stroke="#000000" stroke-width="0.80" />
<polyline points="125.39999999999964,112.346 125.39999999999964,132.346" fill="" stroke="#000000" stroke-width="0.80" />
<polyline points="123.10000000000036,17.346000000000004 123.10000000000036,37.346000000000004" fill="" stroke="#000000" stroke-width="0.80" />
<polyline points="163.29999999999927,123.971 156.89999999999964,127.971" fill="" stroke="#000000" stroke-width="0.65" />
<polyline points="163.29999999999927,101.471 156.89999999999964,105.471" fill="" stroke="#000000" stroke-width="0.65" />
<polyline points="240.0,244.07799999999997 240.0,207.971" fill="" stroke="#000000" stroke-width="0.65" />
<polyline points="159.29999999999927,134.18900000000002 159.29999999999927,119.971" fill="" stroke="#000000" stroke-width="0.65" />
<polyline points="172.20000000000073,128.286 172.20000000000073,174.846" fill="" stroke="#000000" stroke-width="0.65" />
<polyline points="159.29999999999927,111.68900000000002 159.29999999999927,97.471" fill="" stroke="#000000" stroke-width="0.65" />
<polyline points="172.20000000000073,105.786 172.20000000000073,127.346" fill="" stroke="#000000" stroke-width="0.65" />
<polyline points="140.60000000000036,241.57799999999997 140.60000000000036,206.096" fill="" stroke="#000000" stroke-width="0.65" />
<polyline points="94.5,241.40699999999998 94.5,212.346" fill="" stroke="#000000" stroke-width="0.65" />
<polyline points="57.79999999999927,243.90699999999998 57.79999999999927,207.346" fill="" stroke="#000000" stroke-width="0.65" />
<polyline points="39.399999999999636,243.90699999999998 39.399999999999636,207.346" fill="" stroke="#000000" stroke-width="0.65" />
<polyline points="21.0,243.90699999999998 21.0,207.346" fill="" stroke="#000000" stroke-width="0.65" />
<polyline points="245.0,16.910000000000025 245.0,48.596000000000004" fill="" stroke="#000000" stroke-width="0.65" />
<polyline points="213.89999999999964,16.910000000000025 213.89999999999964,32.346000000000004" fill="" stroke="#000000" stroke-width="0.65" />
<polyline points="181.79999999999927,16.910000000000025 181.79999999999927,34.798" fill="" stroke="#000000" stroke-width="0.65" />
<polyline points="157.0,16.910000000000025 157.0,36.697" fill="" stroke="#000000" stroke-width="0.65" />
<polyline points="132.20000000000073,16.910000000000025 132.20000000000073,38.596000000000004" fill="" stroke="#000000" stroke-width="0.65" />
<polyline points="105.20000000000073,16.910000000000025 105.20000000000073,51.096000000000004" fill="" stroke="#000000" stroke-width="0.65" />
<polyline points="87.39999999999964,16.910000000000025 87.39999999999964,51.096000000000004" fill="" stroke="#000000" stroke-width="0.65" />
<polyline points="51.79999999999927,16.910000000000025 51.79999999999927,51.096000000000004" fill="" stroke="#000000" stroke-width="0.65" />
<polyline points="16.100000000000364,16.910000000000025 16.100000000000364,49.846000000000004" fill="" stroke="#000000" stroke-width="0.65" />
<polyline points="231.89999999999964,242.346 241.89999999999964,242.346" fill="" stroke="#000000" stroke-width="0.80" />
<polyline points="153.5,134.846 161.10000000000036,134.846" fill="" stroke="#000000" stroke-width="0.56" />
<polyline points="153.5,139.846 161.10000000000036,139.846" fill="" stroke="#000000" stroke-width="0.56" />
<polyline points="153.5,144.846 161.10000000000036,144.846" fill="" stroke="#000000" stroke-width="0.56" />
<polyline points="153.5,149.846 161.10000000000036,149.846" fill="" stroke="#000000" stroke-width="0.56" />
<polyline points="153.5,154.846 161.10000000000036,154.846" fill="" stroke="#000000" stroke-width="0.56" />
<polyline points="153.5,159.846 161.10000000000036,159.846" fill="" stroke="#000000" stroke-width="0.56" />
<polyline points="170.39999999999964,129.846 179.89999999999964,129.846" fill="" stroke="#000000" stroke-width="0.80" />
<polyline points="170.39999999999964,134.846 179.89999999999964,134.846" fill="" stroke="#000000" stroke-width="0.80" />
<polyline points="170.39999999999964,139.846 179.89999999999964,139.846" fill="" stroke="#000000" stroke-width="0.80" />
<polyline points="170.39999999999964,144.846 179.89999999999964,144.846" fill="" stroke="#000000" stroke-width="0.80" />
<polyline points="170.39999999999964,149.846 179.89999999999964,149.846" fill="" stroke="#000000" stroke-width="0.80" />
<polyline points="170.39999999999964,154.846 179.89999999999964,154.846" fill="" stroke="#000000" stroke-width="0.80" />
<polyline points="170.39999999999964,159.846 179.89999999999964,159.846" fill="" stroke="#000000" stroke-width="0.80" />
<polyline points="170.39999999999964,107.346 179.89999999999964,107.346" fill="" stroke="#000000" stroke-width="0.80" />
<polyline points="132.5,242.346 142.39999999999964,242.346" fill="" stroke="#000000" stroke-width="0.80" />
<polyline points="86.79999999999927,242.346 96.39999999999964,242.346" fill="" stroke="#000000" stroke-width="0.80" />
<polyline points="50.0,242.346 59.600000000000364,242.346" fill="" stroke="#000000" stroke-width="0.80" />
<polyline points="31.700000000000728,242.346 41.20000000000073,242.346" fill="" stroke="#000000" stroke-width="0.80" />
<polyline points="13.299999999999272,242.346 22.899999999999636,242.346" fill="" stroke="#000000" stroke-width="0.80" />
</svg>
