<?xml version="1.0" encoding="UTF-8" standalone="yes"?>
<svg width="256.0px" height="256.0px" xmlns="http://www.w3.org/2000/svg" xmlns:xlink="http://www.w3.org/1999/xlink" version="1.2" baseProfile="tiny">
<polyline points="0.0,63.3465 255.0,63.3465" fill="none" stroke="#000000" stroke-width="0.40" />
<polyline points="0.0,68.3465 255.0,68.3465" fill="none" stroke="#000000" stroke-width="0.40" />
<polyline points="0.0,73.3465 255.0,73.3465" fill="none" stroke="#000000" stroke-width="0.40" />
<polyline points="0.0,78.3465 255.0,78.3465" fill="none" stroke="#000000" stroke-width="0.40" />
<polyline points="0.0,83.3465 255.0,83.3465" fill="none" stroke="#000000" stroke-width="0.40" />
<polyline points="0.0,115.846 255.0,115.846" fill="none" stroke="#000000" stroke-width="0.40" />
<polyline points="0.0,120.846 255.0,120.846" fill="none" stroke="#000000" stroke-width="0.40" />
<polyline points="0.0,125.846 255.0,125.846" fill="none" stroke="#000000" stroke-width="0.40" />
<polyline points="0.0,130.846 255.0,130.846" fill="none" stroke="#000000" stroke-width="0.40" />
<polyline points="0.0,135.846 255.0,135.846" fill="none" stroke="#000000" stroke-width="0.40" />
<polyline points="0.0,168.346 255.0,168.346" fill="none" stroke="#000000" stroke-width="0.40" />
<polyline points="0.0,173.346 255.0,173.346" fill="none" stroke="#000000" stroke-width="0.40" />
<polyline points="0.0,178.346 255.0,178.346" fill="none" stroke="#000000" stroke-width="0.40" />
<polyline points="0.0,183.346 255.0,183.346" fill="none" stroke="#000000" stroke-width="0.40" />
<polyline points="0.0,188.346 255.0,188.346" fill="none" stroke="#000000" stroke-width="0.40" />
<polyline points="0.0,220.846 255.0,220.846" fill="none" stroke="#000000" stroke-width="0.40" />
<polyline points="0.0,225.846 255.0,225.846" fill="none" stroke="#000000" stroke-width="0.40" />
<polyline points="0.0,230.846 255.0,230.846" fill="none" stroke="#000000" stroke-width="0.40" />
<polyline points="0.0,235.846 255.0,235.846" fill="none" stroke="#000000" stroke-width="0.40" />
<polyline points="0.0,240.846 255.0,240.846" fill="none" stroke="#000000" stroke-width="0.40" />
<polyline points="207.5,220.846 207.5,240.846" fill="" stroke="#000000" stroke-width="0.80" />
<polyline points="207.5,168.346 207.5,188.346" fill="" stroke="#000000" stroke-width="0.80" />
<polyline points="207.5,115.846 207.5,135.846" fill="" stroke="#000000" stroke-width="0.80" />
<polyline points="207.5,63.3465 207.5,83.3465" fill="" stroke="#000000" stroke-width="0.80" />
<polyline points="62.100000000000364,212.471 55.70000000000073,216.471" fill="" stroke="#000000" stroke-width="0.65" />
<polyline points="222.5,232.407 222.5,217.096" fill="" stroke="#000000" stroke-width="0.65" />
<polyline points="222.60000000000036,192.578 222.60000000000036,157.096" fill="" stroke="#000000" stroke-width="0.65" />
<polyline points="178.5,216.786 178.5,230.846" fill="" stroke="#000000" stroke-width="0.65" />
<polyline points="184.39999999999964,192.407 184.39999999999964,163.346" fill="" stroke="#000000" stroke-width="0.65" />
<polyline points="160.39999999999964,216.786 160.39999999999964,230.846" fill="" stroke="#000000" stroke-width="0.65" />
<polyline points="142.29999999999927,216.786 142.29999999999927,230.846" fill="" stroke="#000000" stroke-width="0.65" />
<polyline points="148.20000000000073,194.907 148.20000000000073,158.346" fill="" stroke="#000000" stroke-width="0.65" />
<polyline points="142.29999999999927,89.2855 142.29999999999927,125.846" fill="" stroke="#000000" stroke-width="0.65" />
<polyline points="142.29999999999927,66.7855 142.29999999999927,88.9715" fill="" stroke="#000000" stroke-width="0.65" />
<polyline points="124.20000000000073,219.286 124.20000000000073,234.596" fill="" stroke="#000000" stroke-width="0.65" />
<polyline points="130.10000000000036,194.907 130.10000000000036,153.346" fill="" stroke="#000000" stroke-width="0.65" />
<polyline points="124.20000000000073,86.7855 124.20000000000073,124.596" fill="" stroke="#000000" stroke-width="0.65" />
<polyline points="124.20000000000073,64.2855 124.20000000000073,87.0965" fill="" stroke="#000000" stroke-width="0.65" />
<polyline points="106.10000000000036,219.286 106.10000000000036,234.596" fill="" stroke="#000000" stroke-width="0.65" />
<polyline points="112.10000000000036,194.907 112.10000000000036,155.43" fill="" stroke="#000000" stroke-width="0.65" />
<polyline points="106.10000000000036,89.2855 106.10000000000036,125.846" fill="" stroke="#000000" stroke-width="0.65" />
<polyline points="106.10000000000036,66.7855 106.10000000000036,88.3465" fill="" stroke="#000000" stroke-width="0.65" />
<polyline points="88.0,219.286 88.0,234.596" fill="" stroke="#000000" stroke-width="0.65" />
<polyline points="94.0,198.862 94.0,157.513" fill="" stroke="#000000" stroke-width="0.65" />
<polyline points="58.100000000000364,222.689 58.100000000000364,208.471" fill="" stroke="#000000" stroke-width="0.65" />
<polyline points="70.0,219.286 70.0,234.596" fill="" stroke="#000000" stroke-width="0.65" />
<polyline points="75.89999999999964,198.862 75.89999999999964,159.596" fill="" stroke="#000000" stroke-width="0.65" />
<polyline points="45.600000000000364,239.907 45.600000000000364,225.846" fill="" stroke="#000000" stroke-width="0.65" />
<polyline points="27.5,239.907 27.5,225.846" fill="" stroke="#000000" stroke-width="0.65" />
<polyline points="214.5,193.346 224.5,193.346" fill="" stroke="#000000" stroke-width="0.80" />
<polyline points="176.60000000000036,215.846 186.20000000000073,215.846" fill="" stroke="#000000" stroke-width="0.80" />
<polyline points="176.60000000000036,193.346 186.20000000000073,193.346" fill="" stroke="#000000" stroke-width="0.80" />
<polyline points="158.60000000000036,215.846 168.10000000000036,215.846" fill="" stroke="#000000" stroke-width="0.80" />
<polyline points="140.5,215.846 150.10000000000036,215.846" fill="" stroke="#000000" stroke-width="0.80" />
<polyline points="140.5,193.346 150.10000000000036,193.346" fill="" stroke="#000000" stroke-width="0.80" />
<polyline points="140.5,90.8465 150.10000000000036,90.8465" fill="" stroke="#000000" stroke-width="0.80" />
<polyline points="140.5,95.8465 150.10000000000036,95.8465" fill="" stroke="#000000" stroke-width="0.80" />
<polyline points="140.5,100.846 150.10000000000036,100.846" fill="" stroke="#000000" stroke-width="0.80" />
<polyline points="140.5,105.846 150.10000000000036,105.846" fill="" stroke="#000000" stroke-width="0.80" />
<polyline points="140.5,110.846 150.10000000000036,110.846" fill="" stroke="#000000" stroke-width="0.80" />
<polyline points="122.39999999999964,193.346 132.0,193.346" fill="" stroke="#000000" stroke-width="0.80" />
<polyline points="122.39999999999964,85.8465 132.0,85.8465" fill="" stroke="#000000" stroke-width="0.80" />
<polyline points="122.39999999999964,90.8465 132.0,90.8465" fill="" stroke="#000000" stroke-width="0.80" />
<polyline points="122.39999999999964,95.8465 132.0,95.8465" fill="" stroke="#000000" stroke-width="0.80" />
<polyline points="122.39999999999964,100.846 132.0,100.846" fill="" stroke="#000000" stroke-width="0.80" />
<polyline points="122.39999999999964,105.846 132.0,105.846" fill="" stroke="#000000" stroke-width="0.80" />
<polyline points="122.39999999999964,110.846 132.0,110.846" fill="" stroke="#000000" stroke-width="0.80" />
<polyline points="104.29999999999927,193.346 113.89999999999964,193.346" fill="" stroke="#000000" stroke-width="0.80" />
<polyline points="104.29999999999927,90.8465 113.89999999999964,90.8465" fill="" stroke="#000000" stroke-width="0.80" />
<polyline points="104.29999999999927,95.8465 113.89999999999964,95.8465" fill="" stroke="#000000" stroke-width="0.80" />
<polyline points="104.29999999999927,100.846 113.89999999999964,100.846" fill="" stroke="#000000" stroke-width="0.80" />
<polyline points="104.29999999999927,105.846 113.89999999999964,105.846" fill="" stroke="#000000" stroke-width="0.80" />
<polyline points="104.29999999999927,110.846 113.89999999999964,110.846" fill="" stroke="#000000" stroke-width="0.80" />
<polyline points="86.20000000000073,193.346 95.79999999999927,193.346" fill="" stroke="#000000" stroke-width="0.80" />
<polyline points="86.20000000000073,198.346 95.79999999999927,198.346" fill="" stroke="#000000" stroke-width="0.80" />
<polyline points="68.10000000000036,193.346 77.70000000000073,193.346" fill="" stroke="#000000" stroke-width="0.80" />
<polyline points="68.10000000000036,198.346 77.70000000000073,198.346" fill="" stroke="#000000" stroke-width="0.80" />
<polyline points="0.0,95.8465 0.3999999999996362,95.8465" fill="" stroke="#000000" stroke-width="0.80" />
<polyline points="0.0,100.846 0.3999999999996362,100.846" fill="" stroke="#000000" stroke-width="0.80" />
<polyline points="0.0,105.846 0.3999999999996362,105.846" fill="" stroke="#000000" stroke-width="0.80" />
<polyline points="0.0,110.846 0.3999999999996362,110.846" fill="" stroke="#000000" stroke-width="0.80" />
<polyline points="131.70000000000073,63.9742 140.79999999999927,63.9742" fill="" stroke="#000000" stroke-width="0.75" />
<polyline points="113.60000000000036,65.2187 122.70000000000073,65.2187" fill="" stroke="#000000" stroke-width="0.75" />
</svg>
