<?xml version="1.0" encoding="UTF-8" standalone="yes"?>
<svg width="256.0px" height="256.0px" xmlns="http://www.w3.org/2000/svg" xmlns:xlink="http://www.w3.org/1999/xlink" version="1.2" baseProfile="tiny">
<polyline points="0.0,17.346000000000004 88.79999999999927,17.346000000000004" fill="none" stroke="#000000" stroke-width="0.40" />
<polyline points="0.0,22.346000000000004 88.79999999999927,22.346000000000004" fill="none" stroke="#000000" stroke-width="0.40" />
<polyline points="0.0,27.346000000000004 88.79999999999927,27.346000000000004" fill="none" stroke="#000000" stroke-width="0.40" />
<polyline points="0.0,32.346000000000004 88.79999999999927,32.346000000000004" fill="none" stroke="#000000" stroke-width="0.40" />
<polyline points="0.0,37.346000000000004 88.79999999999927,37.346000000000004" fill="none" stroke="#000000" stroke-width="0.40" />
<polyline points="0.0,112.346 88.79999999999927,112.346" fill="none" stroke="#000000" stroke-width="0.40" />
<polyline points="0.0,117.346 88.79999999999927,117.346" fill="none" stroke="#000000" stroke-width="0.40" />
<polyline points="0.0,122.346 88.79999999999927,122.346" fill="none" stroke="#000000" stroke-width="0.40" />
<polyline points="0.0,127.346 88.79999999999927,127.346" fill="none" stroke="#000000" stroke-width="0.40" />
<polyline points="0.0,132.346 88.79999999999927,132.346" fill="none" stroke="#000000" stroke-width="0.40" />
<polyline points="0.0,164.846 88.79999999999927,164.846" fill="none" stroke="#000000" stroke-width="0.40" />
<polyline points="0.0,169.846 88.79999999999927,169.846" fill="none" stroke="#000000" stroke-width="0.40" />
<polyline points="0.0,174.846 88.79999999999927,174.846" fill="none" stroke="#000000" stroke-width="0.40" />
<polyline points="0.0,179.846 88.79999999999927,179.846" fill="none" stroke="#000000" stroke-width="0.40" />
<polyline points="0.0,184.846 88.79999999999927,184.846" fill="none" stroke="#000000" stroke-width="0.40" />
<polyline points="0.0,217.346 88.79999999999927,217.346" fill="none" stroke="#000000" stroke-width="0.40" />
<polyline points="0.0,222.346 88.79999999999927,222.346" fill="none" stroke="#000000" stroke-width="0.40" />
<polyline points="0.0,227.346 88.79999999999927,227.346" fill="none" stroke="#000000" stroke-width="0.40" />
<polyline points="0.0,232.346 88.79999999999927,232.346" fill="none" stroke="#000000" stroke-width="0.40" />
<polyline points="0.0,237.346 88.79999999999927,237.346" fill="none" stroke="#000000" stroke-width="0.40" />
<polyline points="88.39999999999964,217.346 88.39999999999964,237.346" fill="" stroke="#000000" stroke-width="0.80" />
<polyline points="88.39999999999964,164.846 88.39999999999964,184.846" fill="" stroke="#000000" stroke-width="0.80" />
<polyline points="88.39999999999964,112.346 88.39999999999964,132.346" fill="" stroke="#000000" stroke-width="0.80" />
<polyline points="88.39999999999964,17.346000000000004 88.39999999999964,37.346000000000004" fill="" stroke="#000000" stroke-width="0.80" />
<polyline points="62.79999999999927,247.86200000000002 62.79999999999927,212.346" fill="" stroke="#000000" stroke-width="0.65" />
<polyline points="45.100000000000364,247.86200000000002 45.100000000000364,212.346" fill="" stroke="#000000" stroke-width="0.65" />
<polyline points="27.299999999999272,247.86200000000002 27.299999999999272,212.346" fill="" stroke="#000000" stroke-width="0.65" />
<polyline points="6.299999999999272,247.86200000000002 6.299999999999272,212.346" fill="" stroke="#000000" stroke-width="0.65" />
<polyline points="57.29999999999927,28.286 57.29999999999927,42.346000000000004" fill="" stroke="#000000" stroke-width="0.65" />
<polyline points="41.79999999999927,28.286 41.79999999999927,42.346000000000004" fill="" stroke="#000000" stroke-width="0.65" />
<polyline points="26.299999999999272,28.286 26.299999999999272,42.346000000000004" fill="" stroke="#000000" stroke-width="0.65" />
<polyline points="10.700000000000728,25.786 10.700000000000728,41.096000000000004" fill="" stroke="#000000" stroke-width="0.65" />
<polyline points="55.100000000000364,242.346 64.60000000000036,242.346" fill="" stroke="#000000" stroke-width="0.80" />
<polyline points="55.100000000000364,247.346 64.60000000000036,247.346" fill="" stroke="#000000" stroke-width="0.80" />
<polyline points="37.29999999999927,242.346 46.899999999999636,242.346" fill="" stroke="#000000" stroke-width="0.80" />
<polyline points="37.29999999999927,247.346 46.899999999999636,247.346" fill="" stroke="#000000" stroke-width="0.80" />
<polyline points="19.5,242.346 29.100000000000364,242.346" fill="" stroke="#000000" stroke-width="0.80" />
<polyline points="19.5,247.346 29.100000000000364,247.346" fill="" stroke="#000000" stroke-width="0.80" />
<polyline points="0.0,242.346 8.200000000000728,242.346" fill="" stroke="#000000" stroke-width="0.80" />
<polyline points="0.0,247.346 8.200000000000728,247.346" fill="" stroke="#000000" stroke-width="0.80" />
<polyline points="145.5,17.346000000000004 255.0,17.346000000000004" fill="none" stroke="#000000" stroke-width="0.40" />
<polyline points="145.5,22.346000000000004 255.0,22.346000000000004" fill="none" stroke="#000000" stroke-width="0.40" />
<polyline points="145.5,27.346000000000004 255.0,27.346000000000004" fill="none" stroke="#000000" stroke-width="0.40" />
<polyline points="145.5,32.346000000000004 255.0,32.346000000000004" fill="none" stroke="#000000" stroke-width="0.40" />
<polyline points="145.5,37.346000000000004 255.0,37.346000000000004" fill="none" stroke="#000000" stroke-width="0.40" />
<polyline points="145.5,112.346 255.0,112.346" fill="none" stroke="#000000" stroke-width="0.40" />
<polyline points="145.5,117.346 255.0,117.346" fill="none" stroke="#000000" stroke-width="0.40" />
<polyline points="145.5,122.346 255.0,122.346" fill="none" stroke="#000000" stroke-width="0.40" />
<polyline points="145.5,127.346 255.0,127.346" fill="none" stroke="#000000" stroke-width="0.40" />
<polyline points="145.5,132.346 255.0,132.346" fill="none" stroke="#000000" stroke-width="0.40" />
<polyline points="145.5,164.846 255.0,164.846" fill="none" stroke="#000000" stroke-width="0.40" />
<polyline points="145.5,169.846 255.0,169.846" fill="none" stroke="#000000" stroke-width="0.40" />
<polyline points="145.5,174.846 255.0,174.846" fill="none" stroke="#000000" stroke-width="0.40" />
<polyline points="145.5,179.846 255.0,179.846" fill="none" stroke="#000000" stroke-width="0.40" />
<polyline points="145.5,184.846 255.0,184.846" fill="none" stroke="#000000" stroke-width="0.40" />
<polyline points="145.5,217.346 255.0,217.346" fill="none" stroke="#000000" stroke-width="0.40" />
<polyline points="145.5,222.346 255.0,222.346" fill="none" stroke="#000000" stroke-width="0.40" />
<polyline points="145.5,227.346 255.0,227.346" fill="none" stroke="#000000" stroke-width="0.40" />
<polyline points="145.5,232.346 255.0,232.346" fill="none" stroke="#000000" stroke-width="0.40" />
<polyline points="145.5,237.346 255.0,237.346" fill="none" stroke="#000000" stroke-width="0.40" />
<polyline points="145.89999999999964,112.346 145.89999999999964,255.0" fill="none" stroke="#000000" stroke-width="0.80" />
<polyline points="145.89999999999964,0.0 145.89999999999964,37.346000000000004" fill="none" stroke="#000000" stroke-width="0.80" />
<polyline points="254.89999999999964,241.40699999999998 254.89999999999964,209.846" fill="none" stroke="#000000" stroke-width="0.65" />
<polyline points="249.0,125.786 249.0,173.596" fill="none" stroke="#000000" stroke-width="0.65" />
<polyline points="249.0,103.286 249.0,121.096" fill="none" stroke="#000000" stroke-width="0.65" />
<polyline points="216.5,125.786 216.5,173.596" fill="none" stroke="#000000" stroke-width="0.65" />
<polyline points="216.5,103.286 216.5,121.096" fill="none" stroke="#000000" stroke-width="0.65" />
<polyline points="184.0,125.786 184.0,173.596" fill="none" stroke="#000000" stroke-width="0.65" />
<polyline points="184.0,103.286 184.0,121.096" fill="none" stroke="#000000" stroke-width="0.65" />
<polyline points="224.39999999999964,16.910000000000025 224.39999999999964,49.846000000000004" fill="none" stroke="#000000" stroke-width="0.65" />
<polyline points="171.89999999999964,16.910000000000025 171.89999999999964,49.846000000000004" fill="none" stroke="#000000" stroke-width="0.65" />
<polyline points="247.20000000000073,242.346 255.0,242.346" fill="none" stroke="#000000" stroke-width="0.80" />
<polyline points="247.20000000000073,124.846 255.0,124.846" fill="none" stroke="#000000" stroke-width="0.80" />
<polyline points="241.20000000000073,129.846 255.0,129.846" fill="none" stroke="#000000" stroke-width="0.80" />
<polyline points="241.20000000000073,134.846 255.0,134.846" fill="none" stroke="#000000" stroke-width="0.80" />
<polyline points="241.20000000000073,139.846 255.0,139.846" fill="none" stroke="#000000" stroke-width="0.80" />
<polyline points="241.20000000000073,144.846 255.0,144.846" fill="none" stroke="#000000" stroke-width="0.80" />
<polyline points="241.20000000000073,149.846 255.0,149.846" fill="none" stroke="#000000" stroke-width="0.80" />
<polyline points="241.20000000000073,154.846 255.0,154.846" fill="none" stroke="#000000" stroke-width="0.80" />
<polyline points="241.20000000000073,159.846 255.0,159.846" fill="none" stroke="#000000" stroke-width="0.80" />
<polyline points="247.20000000000073,102.346 255.0,102.346" fill="none" stroke="#000000" stroke-width="0.80" />
<polyline points="241.20000000000073,107.346 255.0,107.346" fill="none" stroke="#000000" stroke-width="0.80" />
<polyline points="214.70000000000073,124.846 224.29999999999927,124.846" fill="none" stroke="#000000" stroke-width="0.80" />
<polyline points="208.70000000000073,129.846 224.29999999999927,129.846" fill="none" stroke="#000000" stroke-width="0.80" />
<polyline points="208.70000000000073,134.846 224.29999999999927,134.846" fill="none" stroke="#000000" stroke-width="0.80" />
<polyline points="208.70000000000073,139.846 224.29999999999927,139.846" fill="none" stroke="#000000" stroke-width="0.80" />
<polyline points="208.70000000000073,144.846 224.29999999999927,144.846" fill="none" stroke="#000000" stroke-width="0.80" />
<polyline points="208.70000000000073,149.846 224.29999999999927,149.846" fill="none" stroke="#000000" stroke-width="0.80" />
<polyline points="208.70000000000073,154.846 224.29999999999927,154.846" fill="none" stroke="#000000" stroke-width="0.80" />
<polyline points="208.70000000000073,159.846 224.29999999999927,159.846" fill="none" stroke="#000000" stroke-width="0.80" />
<polyline points="214.70000000000073,102.346 224.29999999999927,102.346" fill="none" stroke="#000000" stroke-width="0.80" />
<polyline points="208.70000000000073,107.346 224.29999999999927,107.346" fill="none" stroke="#000000" stroke-width="0.80" />
<polyline points="182.20000000000073,124.846 191.79999999999927,124.846" fill="none" stroke="#000000" stroke-width="0.80" />
<polyline points="176.29999999999927,129.846 191.79999999999927,129.846" fill="none" stroke="#000000" stroke-width="0.80" />
<polyline points="176.29999999999927,134.846 191.79999999999927,134.846" fill="none" stroke="#000000" stroke-width="0.80" />
<polyline points="176.29999999999927,139.846 191.79999999999927,139.846" fill="none" stroke="#000000" stroke-width="0.80" />
<polyline points="176.29999999999927,144.846 191.79999999999927,144.846" fill="none" stroke="#000000" stroke-width="0.80" />
<polyline points="176.29999999999927,149.846 191.79999999999927,149.846" fill="none" stroke="#000000" stroke-width="0.80" />
<polyline points="176.29999999999927,154.846 191.79999999999927,154.846" fill="none" stroke="#000000" stroke-width="0.80" />
<polyline points="176.29999999999927,159.846 191.79999999999927,159.846" fill="none" stroke="#000000" stroke-width="0.80" />
<polyline points="182.20000000000073,102.346 191.79999999999927,102.346" fill="none" stroke="#000000" stroke-width="0.80" />
<polyline points="176.29999999999927,107.346 191.79999999999927,107.346" fill="none" stroke="#000000" stroke-width="0.80" />
<polyline points="249.29999999999927,123.346 249.29999999999927,154.846" fill="" stroke="#000000" stroke-width="0.75" />
<polyline points="249.29999999999927,100.846 249.29999999999927,102.346" fill="" stroke="#000000" stroke-width="0.75" />
<polyline points="216.79999999999927,123.346 216.79999999999927,154.846" fill="" stroke="#000000" stroke-width="0.75" />
<polyline points="216.79999999999927,100.846 216.79999999999927,102.346" fill="" stroke="#000000" stroke-width="0.75" />
<polyline points="184.39999999999964,123.346 184.39999999999964,154.846" fill="" stroke="#000000" stroke-width="0.75" />
<polyline points="184.39999999999964,100.846 184.39999999999964,102.346" fill="" stroke="#000000" stroke-width="0.75" />
</svg>
