<?xml version="1.0" encoding="UTF-8" standalone="yes"?>
<svg width="256.0px" height="256.0px" xmlns="http://www.w3.org/2000/svg" xmlns:xlink="http://www.w3.org/1999/xlink" version="1.2" baseProfile="tiny">
<polyline points="0.0,63.3465 82.59999999999854,63.3465" fill="none" stroke="#000000" stroke-width="0.40" />
<polyline points="0.0,68.3465 82.59999999999854,68.3465" fill="none" stroke="#000000" stroke-width="0.40" />
<polyline points="0.0,73.3465 82.59999999999854,73.3465" fill="none" stroke="#000000" stroke-width="0.40" />
<polyline points="0.0,78.3465 82.59999999999854,78.3465" fill="none" stroke="#000000" stroke-width="0.40" />
<polyline points="0.0,83.3465 82.59999999999854,83.3465" fill="none" stroke="#000000" stroke-width="0.40" />
<polyline points="0.0,115.846 82.59999999999854,115.846" fill="none" stroke="#000000" stroke-width="0.40" />
<polyline points="0.0,120.846 82.59999999999854,120.846" fill="none" stroke="#000000" stroke-width="0.40" />
<polyline points="0.0,125.846 82.59999999999854,125.846" fill="none" stroke="#000000" stroke-width="0.40" />
<polyline points="0.0,130.846 82.59999999999854,130.846" fill="none" stroke="#000000" stroke-width="0.40" />
<polyline points="0.0,135.846 82.59999999999854,135.846" fill="none" stroke="#000000" stroke-width="0.40" />
<polyline points="0.0,168.346 82.59999999999854,168.346" fill="none" stroke="#000000" stroke-width="0.40" />
<polyline points="0.0,173.346 82.59999999999854,173.346" fill="none" stroke="#000000" stroke-width="0.40" />
<polyline points="0.0,178.346 82.59999999999854,178.346" fill="none" stroke="#000000" stroke-width="0.40" />
<polyline points="0.0,183.346 82.59999999999854,183.346" fill="none" stroke="#000000" stroke-width="0.40" />
<polyline points="0.0,188.346 82.59999999999854,188.346" fill="none" stroke="#000000" stroke-width="0.40" />
<polyline points="0.0,220.846 82.59999999999854,220.846" fill="none" stroke="#000000" stroke-width="0.40" />
<polyline points="0.0,225.846 82.59999999999854,225.846" fill="none" stroke="#000000" stroke-width="0.40" />
<polyline points="0.0,230.846 82.59999999999854,230.846" fill="none" stroke="#000000" stroke-width="0.40" />
<polyline points="0.0,235.846 82.59999999999854,235.846" fill="none" stroke="#000000" stroke-width="0.40" />
<polyline points="0.0,240.846 82.59999999999854,240.846" fill="none" stroke="#000000" stroke-width="0.40" />
<polyline points="82.20000000000073,220.846 82.20000000000073,240.846" fill="" stroke="#000000" stroke-width="0.80" />
<polyline points="82.20000000000073,168.346 82.20000000000073,188.346" fill="" stroke="#000000" stroke-width="0.80" />
<polyline points="82.20000000000073,115.846 82.20000000000073,135.846" fill="" stroke="#000000" stroke-width="0.80" />
<polyline points="82.20000000000073,63.3465 82.20000000000073,83.3465" fill="" stroke="#000000" stroke-width="0.80" />
<polyline points="51.599999999998545,61.7855 51.599999999998545,124.596" fill="" stroke="#000000" stroke-width="0.65" />
<polyline points="51.599999999998545,39.2855 51.599999999998545,72.0965" fill="" stroke="#000000" stroke-width="0.65" />
<polyline points="26.900000000001455,234.907 26.900000000001455,220.846" fill="" stroke="#000000" stroke-width="0.65" />
<polyline points="26.900000000001455,194.907 26.900000000001455,154.596" fill="" stroke="#000000" stroke-width="0.65" />
<polyline points="21.0,61.7855 21.0,124.596" fill="" stroke="#000000" stroke-width="0.65" />
<polyline points="21.0,39.2855 21.0,72.0965" fill="" stroke="#000000" stroke-width="0.65" />
<polyline points="49.79999999999927,60.8465 59.400000000001455,60.8465" fill="" stroke="#000000" stroke-width="0.80" />
<polyline points="49.79999999999927,65.8465 59.400000000001455,65.8465" fill="" stroke="#000000" stroke-width="0.80" />
<polyline points="49.79999999999927,70.8465 59.400000000001455,70.8465" fill="" stroke="#000000" stroke-width="0.80" />
<polyline points="49.79999999999927,75.8465 59.400000000001455,75.8465" fill="" stroke="#000000" stroke-width="0.80" />
<polyline points="49.79999999999927,80.8465 59.400000000001455,80.8465" fill="" stroke="#000000" stroke-width="0.80" />
<polyline points="49.79999999999927,85.8465 59.400000000001455,85.8465" fill="" stroke="#000000" stroke-width="0.80" />
<polyline points="49.79999999999927,90.8465 59.400000000001455,90.8465" fill="" stroke="#000000" stroke-width="0.80" />
<polyline points="49.79999999999927,95.8465 59.400000000001455,95.8465" fill="" stroke="#000000" stroke-width="0.80" />
<polyline points="49.79999999999927,100.846 59.400000000001455,100.846" fill="" stroke="#000000" stroke-width="0.80" />
<polyline points="49.79999999999927,105.846 59.400000000001455,105.846" fill="" stroke="#000000" stroke-width="0.80" />
<polyline points="49.79999999999927,110.846 59.400000000001455,110.846" fill="" stroke="#000000" stroke-width="0.80" />
<polyline points="49.79999999999927,38.3465 59.400000000001455,38.3465" fill="" stroke="#000000" stroke-width="0.80" />
<polyline points="49.79999999999927,43.3465 59.400000000001455,43.3465" fill="" stroke="#000000" stroke-width="0.80" />
<polyline points="49.79999999999927,48.3465 59.400000000001455,48.3465" fill="" stroke="#000000" stroke-width="0.80" />
<polyline points="49.79999999999927,53.3465 59.400000000001455,53.3465" fill="" stroke="#000000" stroke-width="0.80" />
<polyline points="49.79999999999927,58.3465 59.400000000001455,58.3465" fill="" stroke="#000000" stroke-width="0.80" />
<polyline points="19.200000000000728,193.346 28.799999999999272,193.346" fill="" stroke="#000000" stroke-width="0.80" />
<polyline points="19.200000000000728,60.8465 28.799999999999272,60.8465" fill="" stroke="#000000" stroke-width="0.80" />
<polyline points="19.200000000000728,65.8465 28.799999999999272,65.8465" fill="" stroke="#000000" stroke-width="0.80" />
<polyline points="19.200000000000728,70.8465 28.799999999999272,70.8465" fill="" stroke="#000000" stroke-width="0.80" />
<polyline points="19.200000000000728,75.8465 28.799999999999272,75.8465" fill="" stroke="#000000" stroke-width="0.80" />
<polyline points="19.200000000000728,80.8465 28.799999999999272,80.8465" fill="" stroke="#000000" stroke-width="0.80" />
<polyline points="19.200000000000728,85.8465 28.799999999999272,85.8465" fill="" stroke="#000000" stroke-width="0.80" />
<polyline points="19.200000000000728,90.8465 28.799999999999272,90.8465" fill="" stroke="#000000" stroke-width="0.80" />
<polyline points="19.200000000000728,95.8465 28.799999999999272,95.8465" fill="" stroke="#000000" stroke-width="0.80" />
<polyline points="19.200000000000728,100.846 28.799999999999272,100.846" fill="" stroke="#000000" stroke-width="0.80" />
<polyline points="19.200000000000728,105.846 28.799999999999272,105.846" fill="" stroke="#000000" stroke-width="0.80" />
<polyline points="19.200000000000728,110.846 28.799999999999272,110.846" fill="" stroke="#000000" stroke-width="0.80" />
<polyline points="19.200000000000728,38.3465 28.799999999999272,38.3465" fill="" stroke="#000000" stroke-width="0.80" />
<polyline points="19.200000000000728,43.3465 28.799999999999272,43.3465" fill="" stroke="#000000" stroke-width="0.80" />
<polyline points="19.200000000000728,48.3465 28.799999999999272,48.3465" fill="" stroke="#000000" stroke-width="0.80" />
<polyline points="19.200000000000728,53.3465 28.799999999999272,53.3465" fill="" stroke="#000000" stroke-width="0.80" />
<polyline points="19.200000000000728,58.3465 28.799999999999272,58.3465" fill="" stroke="#000000" stroke-width="0.80" />
<polyline points="57.900000000001455,56.8465 57.900000000001455,105.846" fill="" stroke="#000000" stroke-width="0.75" />
<polyline points="57.900000000001455,34.3465 57.900000000001455,53.3465" fill="" stroke="#000000" stroke-width="0.75" />
<polyline points="27.299999999999272,56.8465 27.299999999999272,105.846" fill="" stroke="#000000" stroke-width="0.75" />
<polyline points="27.299999999999272,34.3465 27.299999999999272,53.3465" fill="" stroke="#000000" stroke-width="0.75" />
<polyline points="139.29999999999927,63.3465 255.0,63.3465" fill="none" stroke="#000000" stroke-width="0.40" />
<polyline points="139.29999999999927,68.3465 255.0,68.3465" fill="none" stroke="#000000" stroke-width="0.40" />
<polyline points="139.29999999999927,73.3465 255.0,73.3465" fill="none" stroke="#000000" stroke-width="0.40" />
<polyline points="139.29999999999927,78.3465 255.0,78.3465" fill="none" stroke="#000000" stroke-width="0.40" />
<polyline points="139.29999999999927,83.3465 255.0,83.3465" fill="none" stroke="#000000" stroke-width="0.40" />
<polyline points="139.29999999999927,115.846 255.0,115.846" fill="none" stroke="#000000" stroke-width="0.40" />
<polyline points="139.29999999999927,120.846 255.0,120.846" fill="none" stroke="#000000" stroke-width="0.40" />
<polyline points="139.29999999999927,125.846 255.0,125.846" fill="none" stroke="#000000" stroke-width="0.40" />
<polyline points="139.29999999999927,130.846 255.0,130.846" fill="none" stroke="#000000" stroke-width="0.40" />
<polyline points="139.29999999999927,135.846 255.0,135.846" fill="none" stroke="#000000" stroke-width="0.40" />
<polyline points="139.29999999999927,168.346 255.0,168.346" fill="none" stroke="#000000" stroke-width="0.40" />
<polyline points="139.29999999999927,173.346 255.0,173.346" fill="none" stroke="#000000" stroke-width="0.40" />
<polyline points="139.29999999999927,178.346 255.0,178.346" fill="none" stroke="#000000" stroke-width="0.40" />
<polyline points="139.29999999999927,183.346 255.0,183.346" fill="none" stroke="#000000" stroke-width="0.40" />
<polyline points="139.29999999999927,188.346 255.0,188.346" fill="none" stroke="#000000" stroke-width="0.40" />
<polyline points="139.29999999999927,220.846 255.0,220.846" fill="none" stroke="#000000" stroke-width="0.40" />
<polyline points="139.29999999999927,225.846 255.0,225.846" fill="none" stroke="#000000" stroke-width="0.40" />
<polyline points="139.29999999999927,230.846 255.0,230.846" fill="none" stroke="#000000" stroke-width="0.40" />
<polyline points="139.29999999999927,235.846 255.0,235.846" fill="none" stroke="#000000" stroke-width="0.40" />
<polyline points="139.29999999999927,240.846 255.0,240.846" fill="none" stroke="#000000" stroke-width="0.40" />
<polyline points="139.70000000000073,63.3465 139.70000000000073,255.0" fill="" stroke="#000000" stroke-width="0.80" />
<polyline points="179.09999999999854,207.471 172.70000000000073,211.471" fill="" stroke="#000000" stroke-width="0.65" />
<polyline points="243.5,216.786 243.5,237.355" fill="" stroke="#000000" stroke-width="0.65" />
<polyline points="249.40000000000146,192.407 249.40000000000146,157.096" fill="" stroke="#000000" stroke-width="0.65" />
<polyline points="243.5,61.7855 243.5,124.596" fill="" stroke="#000000" stroke-width="0.65" />
<polyline points="243.5,39.2855 243.5,72.0965" fill="" stroke="#000000" stroke-width="0.65" />
<polyline points="213.0,61.7855 213.0,124.596" fill="" stroke="#000000" stroke-width="0.65" />
<polyline points="213.0,39.2855 213.0,72.0965" fill="" stroke="#000000" stroke-width="0.65" />
<polyline points="175.09999999999854,217.689 175.09999999999854,203.471" fill="" stroke="#000000" stroke-width="0.65" />
<polyline points="182.59999999999854,216.786 182.59999999999854,234.596" fill="" stroke="#000000" stroke-width="0.65" />
<polyline points="182.59999999999854,61.7855 182.59999999999854,124.596" fill="" stroke="#000000" stroke-width="0.65" />
<polyline points="182.59999999999854,39.2855 182.59999999999854,72.0965" fill="" stroke="#000000" stroke-width="0.65" />
<polyline points="241.59999999999854,215.846 251.20000000000073,215.846" fill="" stroke="#000000" stroke-width="0.80" />
<polyline points="241.59999999999854,193.346 251.20000000000073,193.346" fill="" stroke="#000000" stroke-width="0.80" />
<polyline points="241.59999999999854,60.8465 251.20000000000073,60.8465" fill="" stroke="#000000" stroke-width="0.80" />
<polyline points="241.59999999999854,65.8465 251.20000000000073,65.8465" fill="" stroke="#000000" stroke-width="0.80" />
<polyline points="241.59999999999854,70.8465 251.20000000000073,70.8465" fill="" stroke="#000000" stroke-width="0.80" />
<polyline points="241.59999999999854,75.8465 251.20000000000073,75.8465" fill="" stroke="#000000" stroke-width="0.80" />
<polyline points="241.59999999999854,80.8465 251.20000000000073,80.8465" fill="" stroke="#000000" stroke-width="0.80" />
<polyline points="241.59999999999854,85.8465 251.20000000000073,85.8465" fill="" stroke="#000000" stroke-width="0.80" />
<polyline points="241.59999999999854,90.8465 251.20000000000073,90.8465" fill="" stroke="#000000" stroke-width="0.80" />
<polyline points="241.59999999999854,95.8465 251.20000000000073,95.8465" fill="" stroke="#000000" stroke-width="0.80" />
<polyline points="241.59999999999854,100.846 251.20000000000073,100.846" fill="" stroke="#000000" stroke-width="0.80" />
<polyline points="241.59999999999854,105.846 251.20000000000073,105.846" fill="" stroke="#000000" stroke-width="0.80" />
<polyline points="241.59999999999854,110.846 251.20000000000073,110.846" fill="" stroke="#000000" stroke-width="0.80" />
<polyline points="241.59999999999854,38.3465 251.20000000000073,38.3465" fill="" stroke="#000000" stroke-width="0.80" />
<polyline points="241.59999999999854,43.3465 251.20000000000073,43.3465" fill="" stroke="#000000" stroke-width="0.80" />
<polyline points="241.59999999999854,48.3465 251.20000000000073,48.3465" fill="" stroke="#000000" stroke-width="0.80" />
<polyline points="241.59999999999854,53.3465 251.20000000000073,53.3465" fill="" stroke="#000000" stroke-width="0.80" />
<polyline points="241.59999999999854,58.3465 251.20000000000073,58.3465" fill="" stroke="#000000" stroke-width="0.80" />
<polyline points="211.20000000000073,60.8465 220.79999999999927,60.8465" fill="" stroke="#000000" stroke-width="0.80" />
<polyline points="211.20000000000073,65.8465 220.79999999999927,65.8465" fill="" stroke="#000000" stroke-width="0.80" />
<polyline points="211.20000000000073,70.8465 220.79999999999927,70.8465" fill="" stroke="#000000" stroke-width="0.80" />
<polyline points="211.20000000000073,75.8465 220.79999999999927,75.8465" fill="" stroke="#000000" stroke-width="0.80" />
<polyline points="211.20000000000073,80.8465 220.79999999999927,80.8465" fill="" stroke="#000000" stroke-width="0.80" />
<polyline points="211.20000000000073,85.8465 220.79999999999927,85.8465" fill="" stroke="#000000" stroke-width="0.80" />
<polyline points="211.20000000000073,90.8465 220.79999999999927,90.8465" fill="" stroke="#000000" stroke-width="0.80" />
<polyline points="211.20000000000073,95.8465 220.79999999999927,95.8465" fill="" stroke="#000000" stroke-width="0.80" />
<polyline points="211.20000000000073,100.846 220.79999999999927,100.846" fill="" stroke="#000000" stroke-width="0.80" />
<polyline points="211.20000000000073,105.846 220.79999999999927,105.846" fill="" stroke="#000000" stroke-width="0.80" />
<polyline points="211.20000000000073,110.846 220.79999999999927,110.846" fill="" stroke="#000000" stroke-width="0.80" />
<polyline points="211.20000000000073,38.3465 220.79999999999927,38.3465" fill="" stroke="#000000" stroke-width="0.80" />
<polyline points="211.20000000000073,43.3465 220.79999999999927,43.3465" fill="" stroke="#000000" stroke-width="0.80" />
<polyline points="211.20000000000073,48.3465 220.79999999999927,48.3465" fill="" stroke="#000000" stroke-width="0.80" />
<polyline points="211.20000000000073,53.3465 220.79999999999927,53.3465" fill="" stroke="#000000" stroke-width="0.80" />
<polyline points="211.20000000000073,58.3465 220.79999999999927,58.3465" fill="" stroke="#000000" stroke-width="0.80" />
<polyline points="180.70000000000073,215.846 190.29999999999927,215.846" fill="" stroke="#000000" stroke-width="0.80" />
<polyline points="180.70000000000073,60.8465 190.29999999999927,60.8465" fill="" stroke="#000000" stroke-width="0.80" />
<polyline points="180.70000000000073,65.8465 190.29999999999927,65.8465" fill="" stroke="#000000" stroke-width="0.80" />
<polyline points="180.70000000000073,70.8465 190.29999999999927,70.8465" fill="" stroke="#000000" stroke-width="0.80" />
<polyline points="180.70000000000073,75.8465 190.29999999999927,75.8465" fill="" stroke="#000000" stroke-width="0.80" />
<polyline points="180.70000000000073,80.8465 190.29999999999927,80.8465" fill="" stroke="#000000" stroke-width="0.80" />
<polyline points="180.70000000000073,85.8465 190.29999999999927,85.8465" fill="" stroke="#000000" stroke-width="0.80" />
<polyline points="180.70000000000073,90.8465 190.29999999999927,90.8465" fill="" stroke="#000000" stroke-width="0.80" />
<polyline points="180.70000000000073,95.8465 190.29999999999927,95.8465" fill="" stroke="#000000" stroke-width="0.80" />
<polyline points="180.70000000000073,100.846 190.29999999999927,100.846" fill="" stroke="#000000" stroke-width="0.80" />
<polyline points="180.70000000000073,105.846 190.29999999999927,105.846" fill="" stroke="#000000" stroke-width="0.80" />
<polyline points="180.70000000000073,110.846 190.29999999999927,110.846" fill="" stroke="#000000" stroke-width="0.80" />
<polyline points="180.70000000000073,38.3465 190.29999999999927,38.3465" fill="" stroke="#000000" stroke-width="0.80" />
<polyline points="180.70000000000073,43.3465 190.29999999999927,43.3465" fill="" stroke="#000000" stroke-width="0.80" />
<polyline points="180.70000000000073,48.3465 190.29999999999927,48.3465" fill="" stroke="#000000" stroke-width="0.80" />
<polyline points="180.70000000000073,53.3465 190.29999999999927,53.3465" fill="" stroke="#000000" stroke-width="0.80" />
<polyline points="180.70000000000073,58.3465 190.29999999999927,58.3465" fill="" stroke="#000000" stroke-width="0.80" />
<polyline points="249.70000000000073,56.8465 249.70000000000073,105.846" fill="" stroke="#000000" stroke-width="0.75" />
<polyline points="249.70000000000073,34.3465 249.70000000000073,53.3465" fill="" stroke="#000000" stroke-width="0.75" />
<polyline points="219.29999999999927,56.8465 219.29999999999927,105.846" fill="" stroke="#000000" stroke-width="0.75" />
<polyline points="219.29999999999927,34.3465 219.29999999999927,53.3465" fill="" stroke="#000000" stroke-width="0.75" />
</svg>
