<?xml version="1.0" encoding="UTF-8" standalone="yes"?>
<svg width="256.0px" height="256.0px" xmlns="http://www.w3.org/2000/svg" xmlns:xlink="http://www.w3.org/1999/xlink" version="1.2" baseProfile="tiny">
<polyline points="0.0,63.3465 255.0,63.3465" fill="none" stroke="#000000" stroke-width="0.40" />
<polyline points="0.0,68.3465 255.0,68.3465" fill="none" stroke="#000000" stroke-width="0.40" />
<polyline points="0.0,73.3465 255.0,73.3465" fill="none" stroke="#000000" stroke-width="0.40" />
<polyline points="0.0,78.3465 255.0,78.3465" fill="none" stroke="#000000" stroke-width="0.40" />
<polyline points="0.0,83.3465 255.0,83.3465" fill="none" stroke="#000000" stroke-width="0.40" />
<polyline points="0.0,115.846 255.0,115.846" fill="none" stroke="#000000" stroke-width="0.40" />
<polyline points="0.0,120.846 255.0,120.846" fill="none" stroke="#000000" stroke-width="0.40" />
<polyline points="0.0,125.846 255.0,125.846" fill="none" stroke="#000000" stroke-width="0.40" />
<polyline points="0.0,130.846 255.0,130.846" fill="none" stroke="#000000" stroke-width="0.40" />
<polyline points="0.0,135.846 255.0,135.846" fill="none" stroke="#000000" stroke-width="0.40" />
<polyline points="0.0,168.346 255.0,168.346" fill="none" stroke="#000000" stroke-width="0.40" />
<polyline points="0.0,173.346 255.0,173.346" fill="none" stroke="#000000" stroke-width="0.40" />
<polyline points="0.0,178.346 255.0,178.346" fill="none" stroke="#000000" stroke-width="0.40" />
<polyline points="0.0,183.346 255.0,183.346" fill="none" stroke="#000000" stroke-width="0.40" />
<polyline points="0.0,188.346 255.0,188.346" fill="none" stroke="#000000" stroke-width="0.40" />
<polyline points="0.0,220.846 255.0,220.846" fill="none" stroke="#000000" stroke-width="0.40" />
<polyline points="0.0,225.846 255.0,225.846" fill="none" stroke="#000000" stroke-width="0.40" />
<polyline points="0.0,230.846 255.0,230.846" fill="none" stroke="#000000" stroke-width="0.40" />
<polyline points="0.0,235.846 255.0,235.846" fill="none" stroke="#000000" stroke-width="0.40" />
<polyline points="0.0,240.846 255.0,240.846" fill="none" stroke="#000000" stroke-width="0.40" />
<polyline points="248.70000000000073,219.286 248.70000000000073,235.846" fill="none" stroke="#000000" stroke-width="0.65" />
<polyline points="254.60000000000036,198.862 254.60000000000036,154.596" fill="none" stroke="#000000" stroke-width="0.65" />
<polyline points="248.70000000000073,71.7855 248.70000000000073,124.596" fill="none" stroke="#000000" stroke-width="0.65" />
<polyline points="248.70000000000073,49.2855 248.70000000000073,72.0965" fill="none" stroke="#000000" stroke-width="0.65" />
<polyline points="215.89999999999964,224.286 215.89999999999964,240.846" fill="none" stroke="#000000" stroke-width="0.65" />
<polyline points="215.89999999999964,74.2855 215.89999999999964,124.596" fill="none" stroke="#000000" stroke-width="0.65" />
<polyline points="215.89999999999964,51.7855 215.89999999999964,72.0965" fill="none" stroke="#000000" stroke-width="0.65" />
<polyline points="183.10000000000036,74.2855 183.10000000000036,124.596" fill="none" stroke="#000000" stroke-width="0.65" />
<polyline points="183.10000000000036,51.7855 183.10000000000036,72.0965" fill="none" stroke="#000000" stroke-width="0.65" />
<polyline points="150.39999999999964,74.2855 150.39999999999964,124.596" fill="none" stroke="#000000" stroke-width="0.65" />
<polyline points="150.39999999999964,51.7855 150.39999999999964,72.0965" fill="none" stroke="#000000" stroke-width="0.65" />
<polyline points="117.60000000000036,216.786 117.60000000000036,233.346" fill="none" stroke="#000000" stroke-width="0.65" />
<polyline points="123.5,192.407 123.5,157.096" fill="none" stroke="#000000" stroke-width="0.65" />
<polyline points="117.60000000000036,74.2855 117.60000000000036,124.596" fill="none" stroke="#000000" stroke-width="0.65" />
<polyline points="117.60000000000036,51.7855 117.60000000000036,72.0965" fill="none" stroke="#000000" stroke-width="0.65" />
<polyline points="84.79999999999927,224.286 84.79999999999927,244.596" fill="none" stroke="#000000" stroke-width="0.65" />
<polyline points="84.79999999999927,74.2855 84.79999999999927,124.596" fill="none" stroke="#000000" stroke-width="0.65" />
<polyline points="84.79999999999927,51.7855 84.79999999999927,72.0965" fill="none" stroke="#000000" stroke-width="0.65" />
<polyline points="52.0,224.286 52.0,247.0" fill="none" stroke="#000000" stroke-width="0.65" />
<polyline points="58.0,192.407 58.0,157.096" fill="none" stroke="#000000" stroke-width="0.65" />
<polyline points="52.0,74.2855 52.0,124.596" fill="none" stroke="#000000" stroke-width="0.65" />
<polyline points="52.0,51.7855 52.0,72.0965" fill="none" stroke="#000000" stroke-width="0.65" />
<polyline points="246.89999999999964,193.346 255.0,193.346" fill="none" stroke="#000000" stroke-width="0.80" />
<polyline points="246.89999999999964,198.346 255.0,198.346" fill="none" stroke="#000000" stroke-width="0.80" />
<polyline points="246.89999999999964,70.8465 255.0,70.8465" fill="none" stroke="#000000" stroke-width="0.80" />
<polyline points="246.89999999999964,75.8465 255.0,75.8465" fill="none" stroke="#000000" stroke-width="0.80" />
<polyline points="246.89999999999964,80.8465 255.0,80.8465" fill="none" stroke="#000000" stroke-width="0.80" />
<polyline points="246.89999999999964,85.8465 255.0,85.8465" fill="none" stroke="#000000" stroke-width="0.80" />
<polyline points="246.89999999999964,90.8465 255.0,90.8465" fill="none" stroke="#000000" stroke-width="0.80" />
<polyline points="246.89999999999964,95.8465 255.0,95.8465" fill="none" stroke="#000000" stroke-width="0.80" />
<polyline points="246.89999999999964,100.846 255.0,100.846" fill="none" stroke="#000000" stroke-width="0.80" />
<polyline points="246.89999999999964,105.846 255.0,105.846" fill="none" stroke="#000000" stroke-width="0.80" />
<polyline points="246.89999999999964,110.846 255.0,110.846" fill="none" stroke="#000000" stroke-width="0.80" />
<polyline points="246.89999999999964,48.3465 255.0,48.3465" fill="none" stroke="#000000" stroke-width="0.80" />
<polyline points="246.89999999999964,53.3465 255.0,53.3465" fill="none" stroke="#000000" stroke-width="0.80" />
<polyline points="246.89999999999964,58.3465 255.0,58.3465" fill="none" stroke="#000000" stroke-width="0.80" />
<polyline points="208.20000000000073,75.8465 223.70000000000073,75.8465" fill="none" stroke="#000000" stroke-width="0.80" />
<polyline points="208.20000000000073,80.8465 223.70000000000073,80.8465" fill="none" stroke="#000000" stroke-width="0.80" />
<polyline points="208.20000000000073,85.8465 223.70000000000073,85.8465" fill="none" stroke="#000000" stroke-width="0.80" />
<polyline points="208.20000000000073,90.8465 223.70000000000073,90.8465" fill="none" stroke="#000000" stroke-width="0.80" />
<polyline points="208.20000000000073,95.8465 223.70000000000073,95.8465" fill="none" stroke="#000000" stroke-width="0.80" />
<polyline points="208.20000000000073,100.846 223.70000000000073,100.846" fill="none" stroke="#000000" stroke-width="0.80" />
<polyline points="208.20000000000073,105.846 223.70000000000073,105.846" fill="none" stroke="#000000" stroke-width="0.80" />
<polyline points="208.20000000000073,110.846 223.70000000000073,110.846" fill="none" stroke="#000000" stroke-width="0.80" />
<polyline points="208.20000000000073,53.3465 223.70000000000073,53.3465" fill="none" stroke="#000000" stroke-width="0.80" />
<polyline points="208.20000000000073,58.3465 223.70000000000073,58.3465" fill="none" stroke="#000000" stroke-width="0.80" />
<polyline points="175.39999999999964,75.8465 190.89999999999964,75.8465" fill="none" stroke="#000000" stroke-width="0.80" />
<polyline points="175.39999999999964,80.8465 190.89999999999964,80.8465" fill="none" stroke="#000000" stroke-width="0.80" />
<polyline points="175.39999999999964,85.8465 190.89999999999964,85.8465" fill="none" stroke="#000000" stroke-width="0.80" />
<polyline points="175.39999999999964,90.8465 190.89999999999964,90.8465" fill="none" stroke="#000000" stroke-width="0.80" />
<polyline points="175.39999999999964,95.8465 190.89999999999964,95.8465" fill="none" stroke="#000000" stroke-width="0.80" />
<polyline points="175.39999999999964,100.846 190.89999999999964,100.846" fill="none" stroke="#000000" stroke-width="0.80" />
<polyline points="175.39999999999964,105.846 190.89999999999964,105.846" fill="none" stroke="#000000" stroke-width="0.80" />
<polyline points="175.39999999999964,110.846 190.89999999999964,110.846" fill="none" stroke="#000000" stroke-width="0.80" />
<polyline points="175.39999999999964,53.3465 190.89999999999964,53.3465" fill="none" stroke="#000000" stroke-width="0.80" />
<polyline points="175.39999999999964,58.3465 190.89999999999964,58.3465" fill="none" stroke="#000000" stroke-width="0.80" />
<polyline points="142.60000000000036,75.8465 158.10000000000036,75.8465" fill="none" stroke="#000000" stroke-width="0.80" />
<polyline points="142.60000000000036,80.8465 158.10000000000036,80.8465" fill="none" stroke="#000000" stroke-width="0.80" />
<polyline points="142.60000000000036,85.8465 158.10000000000036,85.8465" fill="none" stroke="#000000" stroke-width="0.80" />
<polyline points="142.60000000000036,90.8465 158.10000000000036,90.8465" fill="none" stroke="#000000" stroke-width="0.80" />
<polyline points="142.60000000000036,95.8465 158.10000000000036,95.8465" fill="none" stroke="#000000" stroke-width="0.80" />
<polyline points="142.60000000000036,100.846 158.10000000000036,100.846" fill="none" stroke="#000000" stroke-width="0.80" />
<polyline points="142.60000000000036,105.846 158.10000000000036,105.846" fill="none" stroke="#000000" stroke-width="0.80" />
<polyline points="142.60000000000036,110.846 158.10000000000036,110.846" fill="none" stroke="#000000" stroke-width="0.80" />
<polyline points="142.60000000000036,53.3465 158.10000000000036,53.3465" fill="none" stroke="#000000" stroke-width="0.80" />
<polyline points="142.60000000000036,58.3465 158.10000000000036,58.3465" fill="none" stroke="#000000" stroke-width="0.80" />
<polyline points="115.79999999999927,215.846 125.29999999999927,215.846" fill="none" stroke="#000000" stroke-width="0.80" />
<polyline points="115.79999999999927,193.346 125.29999999999927,193.346" fill="none" stroke="#000000" stroke-width="0.80" />
<polyline points="109.79999999999927,75.8465 125.29999999999927,75.8465" fill="none" stroke="#000000" stroke-width="0.80" />
<polyline points="109.79999999999927,80.8465 125.29999999999927,80.8465" fill="none" stroke="#000000" stroke-width="0.80" />
<polyline points="109.79999999999927,85.8465 125.29999999999927,85.8465" fill="none" stroke="#000000" stroke-width="0.80" />
<polyline points="109.79999999999927,90.8465 125.29999999999927,90.8465" fill="none" stroke="#000000" stroke-width="0.80" />
<polyline points="109.79999999999927,95.8465 125.29999999999927,95.8465" fill="none" stroke="#000000" stroke-width="0.80" />
<polyline points="109.79999999999927,100.846 125.29999999999927,100.846" fill="none" stroke="#000000" stroke-width="0.80" />
<polyline points="109.79999999999927,105.846 125.29999999999927,105.846" fill="none" stroke="#000000" stroke-width="0.80" />
<polyline points="109.79999999999927,110.846 125.29999999999927,110.846" fill="none" stroke="#000000" stroke-width="0.80" />
<polyline points="109.79999999999927,53.3465 125.29999999999927,53.3465" fill="none" stroke="#000000" stroke-width="0.80" />
<polyline points="109.79999999999927,58.3465 125.29999999999927,58.3465" fill="none" stroke="#000000" stroke-width="0.80" />
<polyline points="77.10000000000036,75.8465 92.60000000000036,75.8465" fill="none" stroke="#000000" stroke-width="0.80" />
<polyline points="77.10000000000036,80.8465 92.60000000000036,80.8465" fill="none" stroke="#000000" stroke-width="0.80" />
<polyline points="77.10000000000036,85.8465 92.60000000000036,85.8465" fill="none" stroke="#000000" stroke-width="0.80" />
<polyline points="77.10000000000036,90.8465 92.60000000000036,90.8465" fill="none" stroke="#000000" stroke-width="0.80" />
<polyline points="77.10000000000036,95.8465 92.60000000000036,95.8465" fill="none" stroke="#000000" stroke-width="0.80" />
<polyline points="77.10000000000036,100.846 92.60000000000036,100.846" fill="none" stroke="#000000" stroke-width="0.80" />
<polyline points="77.10000000000036,105.846 92.60000000000036,105.846" fill="none" stroke="#000000" stroke-width="0.80" />
<polyline points="77.10000000000036,110.846 92.60000000000036,110.846" fill="none" stroke="#000000" stroke-width="0.80" />
<polyline points="77.10000000000036,53.3465 92.60000000000036,53.3465" fill="none" stroke="#000000" stroke-width="0.80" />
<polyline points="77.10000000000036,58.3465 92.60000000000036,58.3465" fill="none" stroke="#000000" stroke-width="0.80" />
<polyline points="50.20000000000073,193.346 59.79999999999927,193.346" fill="none" stroke="#000000" stroke-width="0.80" />
<polyline points="44.29999999999927,75.8465 59.79999999999927,75.8465" fill="none" stroke="#000000" stroke-width="0.80" />
<polyline points="44.29999999999927,80.8465 59.79999999999927,80.8465" fill="none" stroke="#000000" stroke-width="0.80" />
<polyline points="44.29999999999927,85.8465 59.79999999999927,85.8465" fill="none" stroke="#000000" stroke-width="0.80" />
<polyline points="44.29999999999927,90.8465 59.79999999999927,90.8465" fill="none" stroke="#000000" stroke-width="0.80" />
<polyline points="44.29999999999927,95.8465 59.79999999999927,95.8465" fill="none" stroke="#000000" stroke-width="0.80" />
<polyline points="44.29999999999927,100.846 59.79999999999927,100.846" fill="none" stroke="#000000" stroke-width="0.80" />
<polyline points="44.29999999999927,105.846 59.79999999999927,105.846" fill="none" stroke="#000000" stroke-width="0.80" />
<polyline points="44.29999999999927,110.846 59.79999999999927,110.846" fill="none" stroke="#000000" stroke-width="0.80" />
<polyline points="44.29999999999927,53.3465 59.79999999999927,53.3465" fill="none" stroke="#000000" stroke-width="0.80" />
<polyline points="44.29999999999927,58.3465 59.79999999999927,58.3465" fill="none" stroke="#000000" stroke-width="0.80" />
<polyline points="216.20000000000073,71.8465 216.20000000000073,105.846" fill="" stroke="#000000" stroke-width="0.75" />
<polyline points="216.20000000000073,49.3465 216.20000000000073,53.3465" fill="" stroke="#000000" stroke-width="0.75" />
<polyline points="183.5,71.8465 183.5,105.846" fill="" stroke="#000000" stroke-width="0.75" />
<polyline points="183.5,49.3465 183.5,53.3465" fill="" stroke="#000000" stroke-width="0.75" />
<polyline points="150.70000000000073,71.8465 150.70000000000073,105.846" fill="" stroke="#000000" stroke-width="0.75" />
<polyline points="150.70000000000073,49.3465 150.70000000000073,53.3465" fill="" stroke="#000000" stroke-width="0.75" />
<polyline points="117.89999999999964,71.8465 117.89999999999964,105.846" fill="" stroke="#000000" stroke-width="0.75" />
<polyline points="117.89999999999964,49.3465 117.89999999999964,53.3465" fill="" stroke="#000000" stroke-width="0.75" />
<polyline points="85.10000000000036,71.8465 85.10000000000036,105.846" fill="" stroke="#000000" stroke-width="0.75" />
<polyline points="85.10000000000036,49.3465 85.10000000000036,53.3465" fill="" stroke="#000000" stroke-width="0.75" />
</svg>
