<?xml version="1.0" encoding="UTF-8" standalone="yes"?>
<svg width="256.0px" height="256.0px" xmlns="http://www.w3.org/2000/svg" xmlns:xlink="http://www.w3.org/1999/xlink" version="1.2" baseProfile="tiny">
<polyline points="0.0,13.846000000000004 255.0,13.846000000000004" fill="none" stroke="#000000" stroke-width="0.40" />
<polyline points="0.0,18.846000000000004 255.0,18.846000000000004" fill="none" stroke="#000000" stroke-width="0.40" />
<polyline points="0.0,23.846000000000004 255.0,23.846000000000004" fill="none" stroke="#000000" stroke-width="0.40" />
<polyline points="0.0,28.846000000000004 255.0,28.846000000000004" fill="none" stroke="#000000" stroke-width="0.40" />
<polyline points="0.0,33.846000000000004 255.0,33.846000000000004" fill="none" stroke="#000000" stroke-width="0.40" />
<polyline points="0.0,66.346 255.0,66.346" fill="none" stroke="#000000" stroke-width="0.40" />
<polyline points="0.0,71.346 255.0,71.346" fill="none" stroke="#000000" stroke-width="0.40" />
<polyline points="0.0,76.346 255.0,76.346" fill="none" stroke="#000000" stroke-width="0.40" />
<polyline points="0.0,81.346 255.0,81.346" fill="none" stroke="#000000" stroke-width="0.40" />
<polyline points="0.0,86.346 255.0,86.346" fill="none" stroke="#000000" stroke-width="0.40" />
<polyline points="231.90000000000146,65.90999999999997 231.90000000000146,90.096" fill="" stroke="#000000" stroke-width="0.65" />
<polyline points="232.29999999999927,0.0 232.29999999999927,22.596000000000004" fill="" stroke="#000000" stroke-width="0.65" />
<polyline points="200.40000000000146,65.90999999999997 200.40000000000146,90.096" fill="" stroke="#000000" stroke-width="0.65" />
<polyline points="169.20000000000073,0.0 169.20000000000073,22.596000000000004" fill="" stroke="#000000" stroke-width="0.65" />
<polyline points="137.29999999999927,65.90999999999997 137.29999999999927,90.096" fill="" stroke="#000000" stroke-width="0.65" />
<polyline points="137.70000000000073,5.909999999999968 137.70000000000073,22.596000000000004" fill="" stroke="#000000" stroke-width="0.65" />
<polyline points="105.79999999999927,65.90999999999997 105.79999999999927,90.096" fill="" stroke="#000000" stroke-width="0.65" />
<polyline points="106.20000000000073,5.909999999999968 106.20000000000073,22.596000000000004" fill="" stroke="#000000" stroke-width="0.65" />
<polyline points="42.70000000000073,65.90999999999997 42.70000000000073,90.096" fill="" stroke="#000000" stroke-width="0.65" />
<polyline points="11.200000000000728,65.90999999999997 11.200000000000728,90.096" fill="" stroke="#000000" stroke-width="0.65" />
<polyline points="212.5,3.8460000000000036 220.09999999999854,3.8460000000000036" fill="" stroke="#000000" stroke-width="0.56" />
<polyline points="212.5,8.846000000000004 220.09999999999854,8.846000000000004" fill="" stroke="#000000" stroke-width="0.56" />
<polyline points="230.5,3.8460000000000036 240.0,3.8460000000000036" fill="" stroke="#000000" stroke-width="0.80" />
<polyline points="230.5,8.846000000000004 240.0,8.846000000000004" fill="" stroke="#000000" stroke-width="0.80" />
<polyline points="149.5,3.8460000000000036 157.09999999999854,3.8460000000000036" fill="" stroke="#000000" stroke-width="0.56" />
<polyline points="149.5,8.846000000000004 157.09999999999854,8.846000000000004" fill="" stroke="#000000" stroke-width="0.56" />
<polyline points="167.40000000000146,3.8460000000000036 177.0,3.8460000000000036" fill="" stroke="#000000" stroke-width="0.80" />
<polyline points="167.40000000000146,8.846000000000004 177.0,8.846000000000004" fill="" stroke="#000000" stroke-width="0.80" />
<polyline points="135.90000000000146,3.8460000000000036 145.5,3.8460000000000036" fill="" stroke="#000000" stroke-width="0.80" />
<polyline points="135.90000000000146,8.846000000000004 145.5,8.846000000000004" fill="" stroke="#000000" stroke-width="0.80" />
<polyline points="104.29999999999927,3.8460000000000036 113.90000000000146,3.8460000000000036" fill="" stroke="#000000" stroke-width="0.80" />
<polyline points="104.29999999999927,8.846000000000004 113.90000000000146,8.846000000000004" fill="" stroke="#000000" stroke-width="0.80" />
</svg>
