<?xml version="1.0" encoding="UTF-8" standalone="yes"?>
<svg width="256.0px" height="256.0px" xmlns="http://www.w3.org/2000/svg" xmlns:xlink="http://www.w3.org/1999/xlink" version="1.2" baseProfile="tiny">
<polyline points="0.0,13.846000000000004 165.90000000000146,13.846000000000004" fill="none" stroke="#000000" stroke-width="0.40" />
<polyline points="0.0,18.846000000000004 165.90000000000146,18.846000000000004" fill="none" stroke="#000000" stroke-width="0.40" />
<polyline points="0.0,23.846000000000004 165.90000000000146,23.846000000000004" fill="none" stroke="#000000" stroke-width="0.40" />
<polyline points="0.0,28.846000000000004 165.90000000000146,28.846000000000004" fill="none" stroke="#000000" stroke-width="0.40" />
<polyline points="0.0,33.846000000000004 165.90000000000146,33.846000000000004" fill="none" stroke="#000000" stroke-width="0.40" />
<polyline points="0.0,66.346 165.90000000000146,66.346" fill="none" stroke="#000000" stroke-width="0.40" />
<polyline points="0.0,71.346 165.90000000000146,71.346" fill="none" stroke="#000000" stroke-width="0.40" />
<polyline points="0.0,76.346 165.90000000000146,76.346" fill="none" stroke="#000000" stroke-width="0.40" />
<polyline points="0.0,81.346 165.90000000000146,81.346" fill="none" stroke="#000000" stroke-width="0.40" />
<polyline points="0.0,86.346 165.90000000000146,86.346" fill="none" stroke="#000000" stroke-width="0.40" />
<polyline points="165.5,66.346 165.5,86.346" fill="" stroke="#000000" stroke-width="0.80" />
<polyline points="165.5,13.846000000000004 165.5,33.846000000000004" fill="" stroke="#000000" stroke-width="0.80" />
<polyline points="133.90000000000146,12.285999999999945 133.90000000000146,28.846000000000004" fill="" stroke="#000000" stroke-width="0.65" />
<polyline points="102.40000000000146,77.28599999999994 102.40000000000146,91.346" fill="" stroke="#000000" stroke-width="0.65" />
<polyline points="102.40000000000146,12.285999999999945 102.40000000000146,30.513000000000034" fill="" stroke="#000000" stroke-width="0.65" />
<polyline points="70.90000000000146,74.78599999999994 70.90000000000146,90.721" fill="" stroke="#000000" stroke-width="0.65" />
<polyline points="70.90000000000146,17.285999999999945 70.90000000000146,32.17999999999995" fill="" stroke="#000000" stroke-width="0.65" />
<polyline points="39.29999999999927,74.78599999999994 39.29999999999927,90.096" fill="" stroke="#000000" stroke-width="0.65" />
<polyline points="39.29999999999927,19.785999999999945 39.29999999999927,33.846000000000004" fill="" stroke="#000000" stroke-width="0.65" />
<polyline points="222.59999999999854,13.846000000000004 255.0,13.846000000000004" fill="none" stroke="#000000" stroke-width="0.40" />
<polyline points="222.59999999999854,18.846000000000004 255.0,18.846000000000004" fill="none" stroke="#000000" stroke-width="0.40" />
<polyline points="222.59999999999854,23.846000000000004 255.0,23.846000000000004" fill="none" stroke="#000000" stroke-width="0.40" />
<polyline points="222.59999999999854,28.846000000000004 255.0,28.846000000000004" fill="none" stroke="#000000" stroke-width="0.40" />
<polyline points="222.59999999999854,33.846000000000004 255.0,33.846000000000004" fill="none" stroke="#000000" stroke-width="0.40" />
<polyline points="222.59999999999854,66.346 255.0,66.346" fill="none" stroke="#000000" stroke-width="0.40" />
<polyline points="222.59999999999854,71.346 255.0,71.346" fill="none" stroke="#000000" stroke-width="0.40" />
<polyline points="222.59999999999854,76.346 255.0,76.346" fill="none" stroke="#000000" stroke-width="0.40" />
<polyline points="222.59999999999854,81.346 255.0,81.346" fill="none" stroke="#000000" stroke-width="0.40" />
<polyline points="222.59999999999854,86.346 255.0,86.346" fill="none" stroke="#000000" stroke-width="0.40" />
<polyline points="223.0,0.0 223.0,86.346" fill="none" stroke="#000000" stroke-width="0.80" />
</svg>
