<?xml version="1.0" encoding="UTF-8" standalone="yes"?>
<svg width="256.0px" height="256.0px" xmlns="http://www.w3.org/2000/svg" xmlns:xlink="http://www.w3.org/1999/xlink" version="1.2" baseProfile="tiny">
<polyline points="56.099999999998545,63.3465 255.0,63.3465" fill="none" stroke="#000000" stroke-width="0.40" />
<polyline points="56.099999999998545,68.3465 255.0,68.3465" fill="none" stroke="#000000" stroke-width="0.40" />
<polyline points="56.099999999998545,73.3465 255.0,73.3465" fill="none" stroke="#000000" stroke-width="0.40" />
<polyline points="56.099999999998545,78.3465 255.0,78.3465" fill="none" stroke="#000000" stroke-width="0.40" />
<polyline points="56.099999999998545,83.3465 255.0,83.3465" fill="none" stroke="#000000" stroke-width="0.40" />
<polyline points="56.099999999998545,115.846 255.0,115.846" fill="none" stroke="#000000" stroke-width="0.40" />
<polyline points="56.099999999998545,120.846 255.0,120.846" fill="none" stroke="#000000" stroke-width="0.40" />
<polyline points="56.099999999998545,125.846 255.0,125.846" fill="none" stroke="#000000" stroke-width="0.40" />
<polyline points="56.099999999998545,130.846 255.0,130.846" fill="none" stroke="#000000" stroke-width="0.40" />
<polyline points="56.099999999998545,135.846 255.0,135.846" fill="none" stroke="#000000" stroke-width="0.40" />
<polyline points="56.099999999998545,168.346 255.0,168.346" fill="none" stroke="#000000" stroke-width="0.40" />
<polyline points="56.099999999998545,173.346 255.0,173.346" fill="none" stroke="#000000" stroke-width="0.40" />
<polyline points="56.099999999998545,178.346 255.0,178.346" fill="none" stroke="#000000" stroke-width="0.40" />
<polyline points="56.099999999998545,183.346 255.0,183.346" fill="none" stroke="#000000" stroke-width="0.40" />
<polyline points="56.099999999998545,188.346 255.0,188.346" fill="none" stroke="#000000" stroke-width="0.40" />
<polyline points="56.099999999998545,220.846 255.0,220.846" fill="none" stroke="#000000" stroke-width="0.40" />
<polyline points="56.099999999998545,225.846 255.0,225.846" fill="none" stroke="#000000" stroke-width="0.40" />
<polyline points="56.099999999998545,230.846 255.0,230.846" fill="none" stroke="#000000" stroke-width="0.40" />
<polyline points="56.099999999998545,235.846 255.0,235.846" fill="none" stroke="#000000" stroke-width="0.40" />
<polyline points="56.099999999998545,240.846 255.0,240.846" fill="none" stroke="#000000" stroke-width="0.40" />
<polyline points="56.5,63.3465 56.5,255.0" fill="" stroke="#000000" stroke-width="0.80" />
<polyline points="248.5,192.407 248.5,154.596" fill="" stroke="#000000" stroke-width="0.65" />
<polyline points="242.5,61.7855 242.5,124.596" fill="" stroke="#000000" stroke-width="0.65" />
<polyline points="242.5,39.2855 242.5,72.0965" fill="" stroke="#000000" stroke-width="0.65" />
<polyline points="217.90000000000146,232.407 217.90000000000146,215.846" fill="" stroke="#000000" stroke-width="0.65" />
<polyline points="217.90000000000146,192.407 217.90000000000146,154.596" fill="" stroke="#000000" stroke-width="0.65" />
<polyline points="212.0,61.7855 212.0,124.596" fill="" stroke="#000000" stroke-width="0.65" />
<polyline points="212.0,39.2855 212.0,72.0965" fill="" stroke="#000000" stroke-width="0.65" />
<polyline points="181.40000000000146,61.7855 181.40000000000146,124.596" fill="" stroke="#000000" stroke-width="0.65" />
<polyline points="181.40000000000146,39.2855 181.40000000000146,72.0965" fill="" stroke="#000000" stroke-width="0.65" />
<polyline points="156.70000000000073,232.407 156.70000000000073,219.596" fill="" stroke="#000000" stroke-width="0.65" />
<polyline points="156.70000000000073,192.407 156.70000000000073,157.096" fill="" stroke="#000000" stroke-width="0.65" />
<polyline points="150.79999999999927,61.7855 150.79999999999927,124.596" fill="" stroke="#000000" stroke-width="0.65" />
<polyline points="150.79999999999927,39.2855 150.79999999999927,72.0965" fill="" stroke="#000000" stroke-width="0.65" />
<polyline points="120.20000000000073,61.7855 120.20000000000073,124.596" fill="" stroke="#000000" stroke-width="0.65" />
<polyline points="120.20000000000073,39.2855 120.20000000000073,72.0965" fill="" stroke="#000000" stroke-width="0.65" />
<polyline points="95.59999999999854,232.407 95.59999999999854,219.596" fill="" stroke="#000000" stroke-width="0.65" />
<polyline points="89.59999999999854,61.7855 89.59999999999854,124.596" fill="" stroke="#000000" stroke-width="0.65" />
<polyline points="89.59999999999854,39.2855 89.59999999999854,72.0965" fill="" stroke="#000000" stroke-width="0.65" />
<polyline points="240.70000000000073,193.346 250.29999999999927,193.346" fill="" stroke="#000000" stroke-width="0.80" />
<polyline points="240.70000000000073,60.8465 250.29999999999927,60.8465" fill="" stroke="#000000" stroke-width="0.80" />
<polyline points="240.70000000000073,65.8465 250.29999999999927,65.8465" fill="" stroke="#000000" stroke-width="0.80" />
<polyline points="240.70000000000073,70.8465 250.29999999999927,70.8465" fill="" stroke="#000000" stroke-width="0.80" />
<polyline points="240.70000000000073,75.8465 250.29999999999927,75.8465" fill="" stroke="#000000" stroke-width="0.80" />
<polyline points="240.70000000000073,80.8465 250.29999999999927,80.8465" fill="" stroke="#000000" stroke-width="0.80" />
<polyline points="240.70000000000073,85.8465 250.29999999999927,85.8465" fill="" stroke="#000000" stroke-width="0.80" />
<polyline points="240.70000000000073,90.8465 250.29999999999927,90.8465" fill="" stroke="#000000" stroke-width="0.80" />
<polyline points="240.70000000000073,95.8465 250.29999999999927,95.8465" fill="" stroke="#000000" stroke-width="0.80" />
<polyline points="240.70000000000073,100.846 250.29999999999927,100.846" fill="" stroke="#000000" stroke-width="0.80" />
<polyline points="240.70000000000073,105.846 250.29999999999927,105.846" fill="" stroke="#000000" stroke-width="0.80" />
<polyline points="240.70000000000073,110.846 250.29999999999927,110.846" fill="" stroke="#000000" stroke-width="0.80" />
<polyline points="240.70000000000073,38.3465 250.29999999999927,38.3465" fill="" stroke="#000000" stroke-width="0.80" />
<polyline points="240.70000000000073,43.3465 250.29999999999927,43.3465" fill="" stroke="#000000" stroke-width="0.80" />
<polyline points="240.70000000000073,48.3465 250.29999999999927,48.3465" fill="" stroke="#000000" stroke-width="0.80" />
<polyline points="240.70000000000073,53.3465 250.29999999999927,53.3465" fill="" stroke="#000000" stroke-width="0.80" />
<polyline points="240.70000000000073,58.3465 250.29999999999927,58.3465" fill="" stroke="#000000" stroke-width="0.80" />
<polyline points="210.09999999999854,193.346 219.70000000000073,193.346" fill="" stroke="#000000" stroke-width="0.80" />
<polyline points="210.09999999999854,60.8465 219.70000000000073,60.8465" fill="" stroke="#000000" stroke-width="0.80" />
<polyline points="210.09999999999854,65.8465 219.70000000000073,65.8465" fill="" stroke="#000000" stroke-width="0.80" />
<polyline points="210.09999999999854,70.8465 219.70000000000073,70.8465" fill="" stroke="#000000" stroke-width="0.80" />
<polyline points="210.09999999999854,75.8465 219.70000000000073,75.8465" fill="" stroke="#000000" stroke-width="0.80" />
<polyline points="210.09999999999854,80.8465 219.70000000000073,80.8465" fill="" stroke="#000000" stroke-width="0.80" />
<polyline points="210.09999999999854,85.8465 219.70000000000073,85.8465" fill="" stroke="#000000" stroke-width="0.80" />
<polyline points="210.09999999999854,90.8465 219.70000000000073,90.8465" fill="" stroke="#000000" stroke-width="0.80" />
<polyline points="210.09999999999854,95.8465 219.70000000000073,95.8465" fill="" stroke="#000000" stroke-width="0.80" />
<polyline points="210.09999999999854,100.846 219.70000000000073,100.846" fill="" stroke="#000000" stroke-width="0.80" />
<polyline points="210.09999999999854,105.846 219.70000000000073,105.846" fill="" stroke="#000000" stroke-width="0.80" />
<polyline points="210.09999999999854,110.846 219.70000000000073,110.846" fill="" stroke="#000000" stroke-width="0.80" />
<polyline points="210.09999999999854,38.3465 219.70000000000073,38.3465" fill="" stroke="#000000" stroke-width="0.80" />
<polyline points="210.09999999999854,43.3465 219.70000000000073,43.3465" fill="" stroke="#000000" stroke-width="0.80" />
<polyline points="210.09999999999854,48.3465 219.70000000000073,48.3465" fill="" stroke="#000000" stroke-width="0.80" />
<polyline points="210.09999999999854,53.3465 219.70000000000073,53.3465" fill="" stroke="#000000" stroke-width="0.80" />
<polyline points="210.09999999999854,58.3465 219.70000000000073,58.3465" fill="" stroke="#000000" stroke-width="0.80" />
<polyline points="179.59999999999854,60.8465 189.09999999999854,60.8465" fill="" stroke="#000000" stroke-width="0.80" />
<polyline points="179.59999999999854,65.8465 189.09999999999854,65.8465" fill="" stroke="#000000" stroke-width="0.80" />
<polyline points="179.59999999999854,70.8465 189.09999999999854,70.8465" fill="" stroke="#000000" stroke-width="0.80" />
<polyline points="179.59999999999854,75.8465 189.09999999999854,75.8465" fill="" stroke="#000000" stroke-width="0.80" />
<polyline points="179.59999999999854,80.8465 189.09999999999854,80.8465" fill="" stroke="#000000" stroke-width="0.80" />
<polyline points="179.59999999999854,85.8465 189.09999999999854,85.8465" fill="" stroke="#000000" stroke-width="0.80" />
<polyline points="179.59999999999854,90.8465 189.09999999999854,90.8465" fill="" stroke="#000000" stroke-width="0.80" />
<polyline points="179.59999999999854,95.8465 189.09999999999854,95.8465" fill="" stroke="#000000" stroke-width="0.80" />
<polyline points="179.59999999999854,100.846 189.09999999999854,100.846" fill="" stroke="#000000" stroke-width="0.80" />
<polyline points="179.59999999999854,105.846 189.09999999999854,105.846" fill="" stroke="#000000" stroke-width="0.80" />
<polyline points="179.59999999999854,110.846 189.09999999999854,110.846" fill="" stroke="#000000" stroke-width="0.80" />
<polyline points="179.59999999999854,38.3465 189.09999999999854,38.3465" fill="" stroke="#000000" stroke-width="0.80" />
<polyline points="179.59999999999854,43.3465 189.09999999999854,43.3465" fill="" stroke="#000000" stroke-width="0.80" />
<polyline points="179.59999999999854,48.3465 189.09999999999854,48.3465" fill="" stroke="#000000" stroke-width="0.80" />
<polyline points="179.59999999999854,53.3465 189.09999999999854,53.3465" fill="" stroke="#000000" stroke-width="0.80" />
<polyline points="179.59999999999854,58.3465 189.09999999999854,58.3465" fill="" stroke="#000000" stroke-width="0.80" />
<polyline points="149.0,193.346 158.59999999999854,193.346" fill="" stroke="#000000" stroke-width="0.80" />
<polyline points="149.0,60.8465 158.59999999999854,60.8465" fill="" stroke="#000000" stroke-width="0.80" />
<polyline points="149.0,65.8465 158.59999999999854,65.8465" fill="" stroke="#000000" stroke-width="0.80" />
<polyline points="149.0,70.8465 158.59999999999854,70.8465" fill="" stroke="#000000" stroke-width="0.80" />
<polyline points="149.0,75.8465 158.59999999999854,75.8465" fill="" stroke="#000000" stroke-width="0.80" />
<polyline points="149.0,80.8465 158.59999999999854,80.8465" fill="" stroke="#000000" stroke-width="0.80" />
<polyline points="149.0,85.8465 158.59999999999854,85.8465" fill="" stroke="#000000" stroke-width="0.80" />
<polyline points="149.0,90.8465 158.59999999999854,90.8465" fill="" stroke="#000000" stroke-width="0.80" />
<polyline points="149.0,95.8465 158.59999999999854,95.8465" fill="" stroke="#000000" stroke-width="0.80" />
<polyline points="149.0,100.846 158.59999999999854,100.846" fill="" stroke="#000000" stroke-width="0.80" />
<polyline points="149.0,105.846 158.59999999999854,105.846" fill="" stroke="#000000" stroke-width="0.80" />
<polyline points="149.0,110.846 158.59999999999854,110.846" fill="" stroke="#000000" stroke-width="0.80" />
<polyline points="149.0,38.3465 158.59999999999854,38.3465" fill="" stroke="#000000" stroke-width="0.80" />
<polyline points="149.0,43.3465 158.59999999999854,43.3465" fill="" stroke="#000000" stroke-width="0.80" />
<polyline points="149.0,48.3465 158.59999999999854,48.3465" fill="" stroke="#000000" stroke-width="0.80" />
<polyline points="149.0,53.3465 158.59999999999854,53.3465" fill="" stroke="#000000" stroke-width="0.80" />
<polyline points="149.0,58.3465 158.59999999999854,58.3465" fill="" stroke="#000000" stroke-width="0.80" />
<polyline points="118.40000000000146,60.8465 128.0,60.8465" fill="" stroke="#000000" stroke-width="0.80" />
<polyline points="118.40000000000146,65.8465 128.0,65.8465" fill="" stroke="#000000" stroke-width="0.80" />
<polyline points="118.40000000000146,70.8465 128.0,70.8465" fill="" stroke="#000000" stroke-width="0.80" />
<polyline points="118.40000000000146,75.8465 128.0,75.8465" fill="" stroke="#000000" stroke-width="0.80" />
<polyline points="118.40000000000146,80.8465 128.0,80.8465" fill="" stroke="#000000" stroke-width="0.80" />
<polyline points="118.40000000000146,85.8465 128.0,85.8465" fill="" stroke="#000000" stroke-width="0.80" />
<polyline points="118.40000000000146,90.8465 128.0,90.8465" fill="" stroke="#000000" stroke-width="0.80" />
<polyline points="118.40000000000146,95.8465 128.0,95.8465" fill="" stroke="#000000" stroke-width="0.80" />
<polyline points="118.40000000000146,100.846 128.0,100.846" fill="" stroke="#000000" stroke-width="0.80" />
<polyline points="118.40000000000146,105.846 128.0,105.846" fill="" stroke="#000000" stroke-width="0.80" />
<polyline points="118.40000000000146,110.846 128.0,110.846" fill="" stroke="#000000" stroke-width="0.80" />
<polyline points="118.40000000000146,38.3465 128.0,38.3465" fill="" stroke="#000000" stroke-width="0.80" />
<polyline points="118.40000000000146,43.3465 128.0,43.3465" fill="" stroke="#000000" stroke-width="0.80" />
<polyline points="118.40000000000146,48.3465 128.0,48.3465" fill="" stroke="#000000" stroke-width="0.80" />
<polyline points="118.40000000000146,53.3465 128.0,53.3465" fill="" stroke="#000000" stroke-width="0.80" />
<polyline points="118.40000000000146,58.3465 128.0,58.3465" fill="" stroke="#000000" stroke-width="0.80" />
<polyline points="87.79999999999927,60.8465 97.40000000000146,60.8465" fill="" stroke="#000000" stroke-width="0.80" />
<polyline points="87.79999999999927,65.8465 97.40000000000146,65.8465" fill="" stroke="#000000" stroke-width="0.80" />
<polyline points="87.79999999999927,70.8465 97.40000000000146,70.8465" fill="" stroke="#000000" stroke-width="0.80" />
<polyline points="87.79999999999927,75.8465 97.40000000000146,75.8465" fill="" stroke="#000000" stroke-width="0.80" />
<polyline points="87.79999999999927,80.8465 97.40000000000146,80.8465" fill="" stroke="#000000" stroke-width="0.80" />
<polyline points="87.79999999999927,85.8465 97.40000000000146,85.8465" fill="" stroke="#000000" stroke-width="0.80" />
<polyline points="87.79999999999927,90.8465 97.40000000000146,90.8465" fill="" stroke="#000000" stroke-width="0.80" />
<polyline points="87.79999999999927,95.8465 97.40000000000146,95.8465" fill="" stroke="#000000" stroke-width="0.80" />
<polyline points="87.79999999999927,100.846 97.40000000000146,100.846" fill="" stroke="#000000" stroke-width="0.80" />
<polyline points="87.79999999999927,105.846 97.40000000000146,105.846" fill="" stroke="#000000" stroke-width="0.80" />
<polyline points="87.79999999999927,110.846 97.40000000000146,110.846" fill="" stroke="#000000" stroke-width="0.80" />
<polyline points="87.79999999999927,38.3465 97.40000000000146,38.3465" fill="" stroke="#000000" stroke-width="0.80" />
<polyline points="87.79999999999927,43.3465 97.40000000000146,43.3465" fill="" stroke="#000000" stroke-width="0.80" />
<polyline points="87.79999999999927,48.3465 97.40000000000146,48.3465" fill="" stroke="#000000" stroke-width="0.80" />
<polyline points="87.79999999999927,53.3465 97.40000000000146,53.3465" fill="" stroke="#000000" stroke-width="0.80" />
<polyline points="87.79999999999927,58.3465 97.40000000000146,58.3465" fill="" stroke="#000000" stroke-width="0.80" />
<polyline points="248.79999999999927,56.8465 248.79999999999927,105.846" fill="" stroke="#000000" stroke-width="0.75" />
<polyline points="248.79999999999927,34.3465 248.79999999999927,53.3465" fill="" stroke="#000000" stroke-width="0.75" />
<polyline points="218.20000000000073,56.8465 218.20000000000073,105.846" fill="" stroke="#000000" stroke-width="0.75" />
<polyline points="218.20000000000073,34.3465 218.20000000000073,53.3465" fill="" stroke="#000000" stroke-width="0.75" />
<polyline points="187.59999999999854,56.8465 187.59999999999854,105.846" fill="" stroke="#000000" stroke-width="0.75" />
<polyline points="187.59999999999854,34.3465 187.59999999999854,53.3465" fill="" stroke="#000000" stroke-width="0.75" />
<polyline points="157.09999999999854,56.8465 157.09999999999854,105.846" fill="" stroke="#000000" stroke-width="0.75" />
<polyline points="157.09999999999854,34.3465 157.09999999999854,53.3465" fill="" stroke="#000000" stroke-width="0.75" />
<polyline points="126.5,56.8465 126.5,105.846" fill="" stroke="#000000" stroke-width="0.75" />
<polyline points="126.5,34.3465 126.5,53.3465" fill="" stroke="#000000" stroke-width="0.75" />
</svg>
