<?xml version="1.0" encoding="UTF-8" standalone="yes"?>
<svg width="256.0px" height="256.0px" xmlns="http://www.w3.org/2000/svg" xmlns:xlink="http://www.w3.org/1999/xlink" version="1.2" baseProfile="tiny">
<polyline points="0.0,13.846000000000004 88.79999999999927,13.846000000000004" fill="none" stroke="#000000" stroke-width="0.40" />
<polyline points="0.0,18.846000000000004 88.79999999999927,18.846000000000004" fill="none" stroke="#000000" stroke-width="0.40" />
<polyline points="0.0,23.846000000000004 88.79999999999927,23.846000000000004" fill="none" stroke="#000000" stroke-width="0.40" />
<polyline points="0.0,28.846000000000004 88.79999999999927,28.846000000000004" fill="none" stroke="#000000" stroke-width="0.40" />
<polyline points="0.0,33.846000000000004 88.79999999999927,33.846000000000004" fill="none" stroke="#000000" stroke-width="0.40" />
<polyline points="0.0,66.346 88.79999999999927,66.346" fill="none" stroke="#000000" stroke-width="0.40" />
<polyline points="0.0,71.346 88.79999999999927,71.346" fill="none" stroke="#000000" stroke-width="0.40" />
<polyline points="0.0,76.346 88.79999999999927,76.346" fill="none" stroke="#000000" stroke-width="0.40" />
<polyline points="0.0,81.346 88.79999999999927,81.346" fill="none" stroke="#000000" stroke-width="0.40" />
<polyline points="0.0,86.346 88.79999999999927,86.346" fill="none" stroke="#000000" stroke-width="0.40" />
<polyline points="88.39999999999964,66.346 88.39999999999964,86.346" fill="" stroke="#000000" stroke-width="0.80" />
<polyline points="88.39999999999964,13.846000000000004 88.39999999999964,33.846000000000004" fill="" stroke="#000000" stroke-width="0.80" />
<polyline points="72.60000000000036,77.28599999999994 72.60000000000036,91.346" fill="" stroke="#000000" stroke-width="0.65" />
<polyline points="78.60000000000036,27.90700000000004 78.60000000000036,13.846000000000004" fill="" stroke="#000000" stroke-width="0.65" />
<polyline points="56.899999999999636,77.28599999999994 56.899999999999636,90.96299999999997" fill="" stroke="#000000" stroke-width="0.65" />
<polyline points="62.79999999999927,27.90700000000004 62.79999999999927,13.846000000000004" fill="" stroke="#000000" stroke-width="0.65" />
<polyline points="39.100000000000364,74.78599999999994 39.100000000000364,90.52999999999997" fill="" stroke="#000000" stroke-width="0.65" />
<polyline points="45.100000000000364,27.90700000000004 45.100000000000364,13.846000000000004" fill="" stroke="#000000" stroke-width="0.65" />
<polyline points="21.399999999999636,74.78599999999994 21.399999999999636,90.096" fill="" stroke="#000000" stroke-width="0.65" />
<polyline points="27.299999999999272,27.90700000000004 27.299999999999272,13.846000000000004" fill="" stroke="#000000" stroke-width="0.65" />
<polyline points="8.5,74.78599999999994 8.5,90.096" fill="" stroke="#000000" stroke-width="0.65" />
<polyline points="6.299999999999272,27.90700000000004 6.299999999999272,10.096000000000004" fill="" stroke="#000000" stroke-width="0.65" />
<polyline points="145.5,13.846000000000004 255.0,13.846000000000004" fill="none" stroke="#000000" stroke-width="0.40" />
<polyline points="145.5,18.846000000000004 255.0,18.846000000000004" fill="none" stroke="#000000" stroke-width="0.40" />
<polyline points="145.5,23.846000000000004 255.0,23.846000000000004" fill="none" stroke="#000000" stroke-width="0.40" />
<polyline points="145.5,28.846000000000004 255.0,28.846000000000004" fill="none" stroke="#000000" stroke-width="0.40" />
<polyline points="145.5,33.846000000000004 255.0,33.846000000000004" fill="none" stroke="#000000" stroke-width="0.40" />
<polyline points="145.5,66.346 255.0,66.346" fill="none" stroke="#000000" stroke-width="0.40" />
<polyline points="145.5,71.346 255.0,71.346" fill="none" stroke="#000000" stroke-width="0.40" />
<polyline points="145.5,76.346 255.0,76.346" fill="none" stroke="#000000" stroke-width="0.40" />
<polyline points="145.5,81.346 255.0,81.346" fill="none" stroke="#000000" stroke-width="0.40" />
<polyline points="145.5,86.346 255.0,86.346" fill="none" stroke="#000000" stroke-width="0.40" />
<polyline points="145.89999999999964,0.0 145.89999999999964,86.346" fill="none" stroke="#000000" stroke-width="0.80" />
<polyline points="249.0,74.78599999999994 249.0,91.346" fill="none" stroke="#000000" stroke-width="0.65" />
<polyline points="229.0,72.28599999999994 229.0,90.096" fill="none" stroke="#000000" stroke-width="0.65" />
<polyline points="184.0,72.28599999999994 184.0,88.846" fill="none" stroke="#000000" stroke-width="0.65" />
<polyline points="190.0,32.90700000000004 190.0,16.346000000000004" fill="none" stroke="#000000" stroke-width="0.65" />
<polyline points="246.20000000000073,93.88699999999994 246.20000000000073,98.88699999999994 265.7000000000007,98.50300000000004" fill="none" stroke="#000000" stroke-width="0.50" />
<polyline points="181.20000000000073,90.42100000000005 181.20000000000073,95.42100000000005 203.20000000000073,96.83399999999995" fill="none" stroke="#000000" stroke-width="0.50" />
<polyline points="213.20000000000073,97.47500000000002 235.29999999999927,98.88699999999994 235.29999999999927,93.88699999999994" fill="none" stroke="#000000" stroke-width="0.50" />
</svg>
