<?xml version="1.0" encoding="UTF-8" standalone="yes"?>
<svg width="256.0px" height="256.0px" xmlns="http://www.w3.org/2000/svg" xmlns:xlink="http://www.w3.org/1999/xlink" version="1.2" baseProfile="tiny">
<polyline points="56.099999999998545,13.846000000000004 255.0,13.846000000000004" fill="none" stroke="#000000" stroke-width="0.40" />
<polyline points="56.099999999998545,18.846000000000004 255.0,18.846000000000004" fill="none" stroke="#000000" stroke-width="0.40" />
<polyline points="56.099999999998545,23.846000000000004 255.0,23.846000000000004" fill="none" stroke="#000000" stroke-width="0.40" />
<polyline points="56.099999999998545,28.846000000000004 255.0,28.846000000000004" fill="none" stroke="#000000" stroke-width="0.40" />
<polyline points="56.099999999998545,33.846000000000004 255.0,33.846000000000004" fill="none" stroke="#000000" stroke-width="0.40" />
<polyline points="56.099999999998545,66.346 255.0,66.346" fill="none" stroke="#000000" stroke-width="0.40" />
<polyline points="56.099999999998545,71.346 255.0,71.346" fill="none" stroke="#000000" stroke-width="0.40" />
<polyline points="56.099999999998545,76.346 255.0,76.346" fill="none" stroke="#000000" stroke-width="0.40" />
<polyline points="56.099999999998545,81.346 255.0,81.346" fill="none" stroke="#000000" stroke-width="0.40" />
<polyline points="56.099999999998545,86.346 255.0,86.346" fill="none" stroke="#000000" stroke-width="0.40" />
<polyline points="56.5,0.0 56.5,86.346" fill="" stroke="#000000" stroke-width="0.80" />
<polyline points="251.0,19.785999999999945 251.0,33.846000000000004" fill="" stroke="#000000" stroke-width="0.65" />
<polyline points="219.40000000000146,65.90999999999997 219.40000000000146,90.096" fill="" stroke="#000000" stroke-width="0.65" />
<polyline points="219.79999999999927,17.285999999999945 219.79999999999927,33.846000000000004" fill="" stroke="#000000" stroke-width="0.65" />
<polyline points="188.20000000000073,65.90999999999997 188.20000000000073,100.096" fill="" stroke="#000000" stroke-width="0.65" />
<polyline points="157.0,65.90999999999997 157.0,100.096" fill="" stroke="#000000" stroke-width="0.65" />
<polyline points="163.29999999999927,32.90700000000004 163.29999999999927,18.846000000000004" fill="" stroke="#000000" stroke-width="0.65" />
<polyline points="132.09999999999854,32.90700000000004 132.09999999999854,18.846000000000004" fill="" stroke="#000000" stroke-width="0.65" />
<polyline points="94.59999999999854,65.90999999999997 94.59999999999854,100.096" fill="" stroke="#000000" stroke-width="0.65" />
<polyline points="100.90000000000146,32.90700000000004 100.90000000000146,18.846000000000004" fill="" stroke="#000000" stroke-width="0.65" />
</svg>
