<?xml version="1.0" encoding="UTF-8" standalone="yes"?>
<svg width="256.0px" height="256.0px" xmlns="http://www.w3.org/2000/svg" xmlns:xlink="http://www.w3.org/1999/xlink" version="1.2" baseProfile="tiny">
<polyline points="0.0,17.346000000000004 255.0,17.346000000000004" fill="none" stroke="#000000" stroke-width="0.40" />
<polyline points="0.0,22.346000000000004 255.0,22.346000000000004" fill="none" stroke="#000000" stroke-width="0.40" />
<polyline points="0.0,27.346000000000004 255.0,27.346000000000004" fill="none" stroke="#000000" stroke-width="0.40" />
<polyline points="0.0,32.346000000000004 255.0,32.346000000000004" fill="none" stroke="#000000" stroke-width="0.40" />
<polyline points="0.0,37.346000000000004 255.0,37.346000000000004" fill="none" stroke="#000000" stroke-width="0.40" />
<polyline points="0.0,112.346 255.0,112.346" fill="none" stroke="#000000" stroke-width="0.40" />
<polyline points="0.0,117.346 255.0,117.346" fill="none" stroke="#000000" stroke-width="0.40" />
<polyline points="0.0,122.346 255.0,122.346" fill="none" stroke="#000000" stroke-width="0.40" />
<polyline points="0.0,127.346 255.0,127.346" fill="none" stroke="#000000" stroke-width="0.40" />
<polyline points="0.0,132.346 255.0,132.346" fill="none" stroke="#000000" stroke-width="0.40" />
<polyline points="0.0,164.846 255.0,164.846" fill="none" stroke="#000000" stroke-width="0.40" />
<polyline points="0.0,169.846 255.0,169.846" fill="none" stroke="#000000" stroke-width="0.40" />
<polyline points="0.0,174.846 255.0,174.846" fill="none" stroke="#000000" stroke-width="0.40" />
<polyline points="0.0,179.846 255.0,179.846" fill="none" stroke="#000000" stroke-width="0.40" />
<polyline points="0.0,184.846 255.0,184.846" fill="none" stroke="#000000" stroke-width="0.40" />
<polyline points="0.0,217.346 255.0,217.346" fill="none" stroke="#000000" stroke-width="0.40" />
<polyline points="0.0,222.346 255.0,222.346" fill="none" stroke="#000000" stroke-width="0.40" />
<polyline points="0.0,227.346 255.0,227.346" fill="none" stroke="#000000" stroke-width="0.40" />
<polyline points="0.0,232.346 255.0,232.346" fill="none" stroke="#000000" stroke-width="0.40" />
<polyline points="0.0,237.346 255.0,237.346" fill="none" stroke="#000000" stroke-width="0.40" />
<polyline points="250.5,247.86200000000002 250.5,212.346" fill="" stroke="#000000" stroke-width="0.65" />
<polyline points="219.29999999999927,247.86200000000002 219.29999999999927,212.346" fill="" stroke="#000000" stroke-width="0.65" />
<polyline points="213.40000000000146,110.786 213.40000000000146,174.846" fill="" stroke="#000000" stroke-width="0.65" />
<polyline points="213.40000000000146,88.286 213.40000000000146,122.346" fill="" stroke="#000000" stroke-width="0.65" />
<polyline points="188.09999999999854,247.86200000000002 188.09999999999854,212.346" fill="" stroke="#000000" stroke-width="0.65" />
<polyline points="182.20000000000073,110.786 182.20000000000073,173.596" fill="" stroke="#000000" stroke-width="0.65" />
<polyline points="182.20000000000073,88.286 182.20000000000073,121.096" fill="" stroke="#000000" stroke-width="0.65" />
<polyline points="156.90000000000146,247.86200000000002 156.90000000000146,212.346" fill="" stroke="#000000" stroke-width="0.65" />
<polyline points="151.0,110.786 151.0,173.596" fill="" stroke="#000000" stroke-width="0.65" />
<polyline points="151.0,88.286 151.0,121.096" fill="" stroke="#000000" stroke-width="0.65" />
<polyline points="119.79999999999927,110.786 119.79999999999927,173.596" fill="" stroke="#000000" stroke-width="0.65" />
<polyline points="119.79999999999927,88.286 119.79999999999927,121.096" fill="" stroke="#000000" stroke-width="0.65" />
<polyline points="88.59999999999854,110.786 88.59999999999854,173.596" fill="" stroke="#000000" stroke-width="0.65" />
<polyline points="88.59999999999854,88.286 88.59999999999854,121.096" fill="" stroke="#000000" stroke-width="0.65" />
<polyline points="57.400000000001455,110.786 57.400000000001455,173.596" fill="" stroke="#000000" stroke-width="0.65" />
<polyline points="57.400000000001455,88.286 57.400000000001455,121.096" fill="" stroke="#000000" stroke-width="0.65" />
<polyline points="32.099999999998545,241.40699999999998 32.099999999998545,208.596" fill="" stroke="#000000" stroke-width="0.65" />
<polyline points="26.200000000000728,110.786 26.200000000000728,173.596" fill="" stroke="#000000" stroke-width="0.65" />
<polyline points="26.200000000000728,88.286 26.200000000000728,121.096" fill="" stroke="#000000" stroke-width="0.65" />
<polyline points="0.9000000000014552,241.40699999999998 0.9000000000014552,208.596" fill="" stroke="#000000" stroke-width="0.65" />
<polyline points="246.0,16.910000000000025 246.0,51.096000000000004" fill="" stroke="#000000" stroke-width="0.65" />
<polyline points="215.5,16.910000000000025 215.5,51.096000000000004" fill="" stroke="#000000" stroke-width="0.65" />
<polyline points="154.29999999999927,16.910000000000025 154.29999999999927,49.846000000000004" fill="" stroke="#000000" stroke-width="0.65" />
<polyline points="93.20000000000073,16.910000000000025 93.20000000000073,49.846000000000004" fill="" stroke="#000000" stroke-width="0.65" />
<polyline points="63.0,25.786 63.0,41.096000000000004" fill="" stroke="#000000" stroke-width="0.65" />
<polyline points="24.400000000001455,16.910000000000025 24.400000000001455,41.096000000000004" fill="" stroke="#000000" stroke-width="0.65" />
<polyline points="242.70000000000073,242.346 252.29999999999927,242.346" fill="" stroke="#000000" stroke-width="0.80" />
<polyline points="242.70000000000073,247.346 252.29999999999927,247.346" fill="" stroke="#000000" stroke-width="0.80" />
<polyline points="211.5,242.346 221.09999999999854,242.346" fill="" stroke="#000000" stroke-width="0.80" />
<polyline points="211.5,247.346 221.09999999999854,247.346" fill="" stroke="#000000" stroke-width="0.80" />
<polyline points="211.5,109.846 221.09999999999854,109.846" fill="" stroke="#000000" stroke-width="0.80" />
<polyline points="211.5,114.846 221.09999999999854,114.846" fill="" stroke="#000000" stroke-width="0.80" />
<polyline points="211.5,119.846 221.09999999999854,119.846" fill="" stroke="#000000" stroke-width="0.80" />
<polyline points="211.5,124.846 221.09999999999854,124.846" fill="" stroke="#000000" stroke-width="0.80" />
<polyline points="211.5,129.846 221.09999999999854,129.846" fill="" stroke="#000000" stroke-width="0.80" />
<polyline points="211.5,134.846 221.09999999999854,134.846" fill="" stroke="#000000" stroke-width="0.80" />
<polyline points="211.5,139.846 221.09999999999854,139.846" fill="" stroke="#000000" stroke-width="0.80" />
<polyline points="211.5,144.846 221.09999999999854,144.846" fill="" stroke="#000000" stroke-width="0.80" />
<polyline points="211.5,149.846 221.09999999999854,149.846" fill="" stroke="#000000" stroke-width="0.80" />
<polyline points="211.5,154.846 221.09999999999854,154.846" fill="" stroke="#000000" stroke-width="0.80" />
<polyline points="211.5,159.846 221.09999999999854,159.846" fill="" stroke="#000000" stroke-width="0.80" />
<polyline points="211.5,87.346 221.09999999999854,87.346" fill="" stroke="#000000" stroke-width="0.80" />
<polyline points="211.5,92.346 221.09999999999854,92.346" fill="" stroke="#000000" stroke-width="0.80" />
<polyline points="211.5,97.346 221.09999999999854,97.346" fill="" stroke="#000000" stroke-width="0.80" />
<polyline points="211.5,102.346 221.09999999999854,102.346" fill="" stroke="#000000" stroke-width="0.80" />
<polyline points="211.5,107.346 221.09999999999854,107.346" fill="" stroke="#000000" stroke-width="0.80" />
<polyline points="180.29999999999927,242.346 189.90000000000146,242.346" fill="" stroke="#000000" stroke-width="0.80" />
<polyline points="180.29999999999927,247.346 189.90000000000146,247.346" fill="" stroke="#000000" stroke-width="0.80" />
<polyline points="180.29999999999927,109.846 189.90000000000146,109.846" fill="" stroke="#000000" stroke-width="0.80" />
<polyline points="180.29999999999927,114.846 189.90000000000146,114.846" fill="" stroke="#000000" stroke-width="0.80" />
<polyline points="180.29999999999927,119.846 189.90000000000146,119.846" fill="" stroke="#000000" stroke-width="0.80" />
<polyline points="180.29999999999927,124.846 189.90000000000146,124.846" fill="" stroke="#000000" stroke-width="0.80" />
<polyline points="180.29999999999927,129.846 189.90000000000146,129.846" fill="" stroke="#000000" stroke-width="0.80" />
<polyline points="180.29999999999927,134.846 189.90000000000146,134.846" fill="" stroke="#000000" stroke-width="0.80" />
<polyline points="180.29999999999927,139.846 189.90000000000146,139.846" fill="" stroke="#000000" stroke-width="0.80" />
<polyline points="180.29999999999927,144.846 189.90000000000146,144.846" fill="" stroke="#000000" stroke-width="0.80" />
<polyline points="180.29999999999927,149.846 189.90000000000146,149.846" fill="" stroke="#000000" stroke-width="0.80" />
<polyline points="180.29999999999927,154.846 189.90000000000146,154.846" fill="" stroke="#000000" stroke-width="0.80" />
<polyline points="180.29999999999927,159.846 189.90000000000146,159.846" fill="" stroke="#000000" stroke-width="0.80" />
<polyline points="180.29999999999927,87.346 189.90000000000146,87.346" fill="" stroke="#000000" stroke-width="0.80" />
<polyline points="180.29999999999927,92.346 189.90000000000146,92.346" fill="" stroke="#000000" stroke-width="0.80" />
<polyline points="180.29999999999927,97.346 189.90000000000146,97.346" fill="" stroke="#000000" stroke-width="0.80" />
<polyline points="180.29999999999927,102.346 189.90000000000146,102.346" fill="" stroke="#000000" stroke-width="0.80" />
<polyline points="180.29999999999927,107.346 189.90000000000146,107.346" fill="" stroke="#000000" stroke-width="0.80" />
<polyline points="149.09999999999854,242.346 158.70000000000073,242.346" fill="" stroke="#000000" stroke-width="0.80" />
<polyline points="149.09999999999854,247.346 158.70000000000073,247.346" fill="" stroke="#000000" stroke-width="0.80" />
<polyline points="149.09999999999854,109.846 158.70000000000073,109.846" fill="" stroke="#000000" stroke-width="0.80" />
<polyline points="149.09999999999854,114.846 158.70000000000073,114.846" fill="" stroke="#000000" stroke-width="0.80" />
<polyline points="149.09999999999854,119.846 158.70000000000073,119.846" fill="" stroke="#000000" stroke-width="0.80" />
<polyline points="149.09999999999854,124.846 158.70000000000073,124.846" fill="" stroke="#000000" stroke-width="0.80" />
<polyline points="149.09999999999854,129.846 158.70000000000073,129.846" fill="" stroke="#000000" stroke-width="0.80" />
<polyline points="149.09999999999854,134.846 158.70000000000073,134.846" fill="" stroke="#000000" stroke-width="0.80" />
<polyline points="149.09999999999854,139.846 158.70000000000073,139.846" fill="" stroke="#000000" stroke-width="0.80" />
<polyline points="149.09999999999854,144.846 158.70000000000073,144.846" fill="" stroke="#000000" stroke-width="0.80" />
<polyline points="149.09999999999854,149.846 158.70000000000073,149.846" fill="" stroke="#000000" stroke-width="0.80" />
<polyline points="149.09999999999854,154.846 158.70000000000073,154.846" fill="" stroke="#000000" stroke-width="0.80" />
<polyline points="149.09999999999854,159.846 158.70000000000073,159.846" fill="" stroke="#000000" stroke-width="0.80" />
<polyline points="149.09999999999854,87.346 158.70000000000073,87.346" fill="" stroke="#000000" stroke-width="0.80" />
<polyline points="149.09999999999854,92.346 158.70000000000073,92.346" fill="" stroke="#000000" stroke-width="0.80" />
<polyline points="149.09999999999854,97.346 158.70000000000073,97.346" fill="" stroke="#000000" stroke-width="0.80" />
<polyline points="149.09999999999854,102.346 158.70000000000073,102.346" fill="" stroke="#000000" stroke-width="0.80" />
<polyline points="149.09999999999854,107.346 158.70000000000073,107.346" fill="" stroke="#000000" stroke-width="0.80" />
<polyline points="117.90000000000146,109.846 127.5,109.846" fill="" stroke="#000000" stroke-width="0.80" />
<polyline points="117.90000000000146,114.846 127.5,114.846" fill="" stroke="#000000" stroke-width="0.80" />
<polyline points="117.90000000000146,119.846 127.5,119.846" fill="" stroke="#000000" stroke-width="0.80" />
<polyline points="117.90000000000146,124.846 127.5,124.846" fill="" stroke="#000000" stroke-width="0.80" />
<polyline points="117.90000000000146,129.846 127.5,129.846" fill="" stroke="#000000" stroke-width="0.80" />
<polyline points="117.90000000000146,134.846 127.5,134.846" fill="" stroke="#000000" stroke-width="0.80" />
<polyline points="117.90000000000146,139.846 127.5,139.846" fill="" stroke="#000000" stroke-width="0.80" />
<polyline points="117.90000000000146,144.846 127.5,144.846" fill="" stroke="#000000" stroke-width="0.80" />
<polyline points="117.90000000000146,149.846 127.5,149.846" fill="" stroke="#000000" stroke-width="0.80" />
<polyline points="117.90000000000146,154.846 127.5,154.846" fill="" stroke="#000000" stroke-width="0.80" />
<polyline points="117.90000000000146,159.846 127.5,159.846" fill="" stroke="#000000" stroke-width="0.80" />
<polyline points="117.90000000000146,87.346 127.5,87.346" fill="" stroke="#000000" stroke-width="0.80" />
<polyline points="117.90000000000146,92.346 127.5,92.346" fill="" stroke="#000000" stroke-width="0.80" />
<polyline points="117.90000000000146,97.346 127.5,97.346" fill="" stroke="#000000" stroke-width="0.80" />
<polyline points="117.90000000000146,102.346 127.5,102.346" fill="" stroke="#000000" stroke-width="0.80" />
<polyline points="117.90000000000146,107.346 127.5,107.346" fill="" stroke="#000000" stroke-width="0.80" />
<polyline points="86.70000000000073,109.846 96.29999999999927,109.846" fill="" stroke="#000000" stroke-width="0.80" />
<polyline points="86.70000000000073,114.846 96.29999999999927,114.846" fill="" stroke="#000000" stroke-width="0.80" />
<polyline points="86.70000000000073,119.846 96.29999999999927,119.846" fill="" stroke="#000000" stroke-width="0.80" />
<polyline points="86.70000000000073,124.846 96.29999999999927,124.846" fill="" stroke="#000000" stroke-width="0.80" />
<polyline points="86.70000000000073,129.846 96.29999999999927,129.846" fill="" stroke="#000000" stroke-width="0.80" />
<polyline points="86.70000000000073,134.846 96.29999999999927,134.846" fill="" stroke="#000000" stroke-width="0.80" />
<polyline points="86.70000000000073,139.846 96.29999999999927,139.846" fill="" stroke="#000000" stroke-width="0.80" />
<polyline points="86.70000000000073,144.846 96.29999999999927,144.846" fill="" stroke="#000000" stroke-width="0.80" />
<polyline points="86.70000000000073,149.846 96.29999999999927,149.846" fill="" stroke="#000000" stroke-width="0.80" />
<polyline points="86.70000000000073,154.846 96.29999999999927,154.846" fill="" stroke="#000000" stroke-width="0.80" />
<polyline points="86.70000000000073,159.846 96.29999999999927,159.846" fill="" stroke="#000000" stroke-width="0.80" />
<polyline points="86.70000000000073,87.346 96.29999999999927,87.346" fill="" stroke="#000000" stroke-width="0.80" />
<polyline points="86.70000000000073,92.346 96.29999999999927,92.346" fill="" stroke="#000000" stroke-width="0.80" />
<polyline points="86.70000000000073,97.346 96.29999999999927,97.346" fill="" stroke="#000000" stroke-width="0.80" />
<polyline points="86.70000000000073,102.346 96.29999999999927,102.346" fill="" stroke="#000000" stroke-width="0.80" />
<polyline points="86.70000000000073,107.346 96.29999999999927,107.346" fill="" stroke="#000000" stroke-width="0.80" />
<polyline points="55.5,109.846 65.09999999999854,109.846" fill="" stroke="#000000" stroke-width="0.80" />
<polyline points="55.5,114.846 65.09999999999854,114.846" fill="" stroke="#000000" stroke-width="0.80" />
<polyline points="55.5,119.846 65.09999999999854,119.846" fill="" stroke="#000000" stroke-width="0.80" />
<polyline points="55.5,124.846 65.09999999999854,124.846" fill="" stroke="#000000" stroke-width="0.80" />
<polyline points="55.5,129.846 65.09999999999854,129.846" fill="" stroke="#000000" stroke-width="0.80" />
<polyline points="55.5,134.846 65.09999999999854,134.846" fill="" stroke="#000000" stroke-width="0.80" />
<polyline points="55.5,139.846 65.09999999999854,139.846" fill="" stroke="#000000" stroke-width="0.80" />
<polyline points="55.5,144.846 65.09999999999854,144.846" fill="" stroke="#000000" stroke-width="0.80" />
<polyline points="55.5,149.846 65.09999999999854,149.846" fill="" stroke="#000000" stroke-width="0.80" />
<polyline points="55.5,154.846 65.09999999999854,154.846" fill="" stroke="#000000" stroke-width="0.80" />
<polyline points="55.5,159.846 65.09999999999854,159.846" fill="" stroke="#000000" stroke-width="0.80" />
<polyline points="55.5,87.346 65.09999999999854,87.346" fill="" stroke="#000000" stroke-width="0.80" />
<polyline points="55.5,92.346 65.09999999999854,92.346" fill="" stroke="#000000" stroke-width="0.80" />
<polyline points="55.5,97.346 65.09999999999854,97.346" fill="" stroke="#000000" stroke-width="0.80" />
<polyline points="55.5,102.346 65.09999999999854,102.346" fill="" stroke="#000000" stroke-width="0.80" />
<polyline points="55.5,107.346 65.09999999999854,107.346" fill="" stroke="#000000" stroke-width="0.80" />
<polyline points="24.299999999999272,242.346 33.900000000001455,242.346" fill="" stroke="#000000" stroke-width="0.80" />
<polyline points="24.299999999999272,109.846 33.900000000001455,109.846" fill="" stroke="#000000" stroke-width="0.80" />
<polyline points="24.299999999999272,114.846 33.900000000001455,114.846" fill="" stroke="#000000" stroke-width="0.80" />
<polyline points="24.299999999999272,119.846 33.900000000001455,119.846" fill="" stroke="#000000" stroke-width="0.80" />
<polyline points="24.299999999999272,124.846 33.900000000001455,124.846" fill="" stroke="#000000" stroke-width="0.80" />
<polyline points="24.299999999999272,129.846 33.900000000001455,129.846" fill="" stroke="#000000" stroke-width="0.80" />
<polyline points="24.299999999999272,134.846 33.900000000001455,134.846" fill="" stroke="#000000" stroke-width="0.80" />
<polyline points="24.299999999999272,139.846 33.900000000001455,139.846" fill="" stroke="#000000" stroke-width="0.80" />
<polyline points="24.299999999999272,144.846 33.900000000001455,144.846" fill="" stroke="#000000" stroke-width="0.80" />
<polyline points="24.299999999999272,149.846 33.900000000001455,149.846" fill="" stroke="#000000" stroke-width="0.80" />
<polyline points="24.299999999999272,154.846 33.900000000001455,154.846" fill="" stroke="#000000" stroke-width="0.80" />
<polyline points="24.299999999999272,159.846 33.900000000001455,159.846" fill="" stroke="#000000" stroke-width="0.80" />
<polyline points="24.299999999999272,87.346 33.900000000001455,87.346" fill="" stroke="#000000" stroke-width="0.80" />
<polyline points="24.299999999999272,92.346 33.900000000001455,92.346" fill="" stroke="#000000" stroke-width="0.80" />
<polyline points="24.299999999999272,97.346 33.900000000001455,97.346" fill="" stroke="#000000" stroke-width="0.80" />
<polyline points="24.299999999999272,102.346 33.900000000001455,102.346" fill="" stroke="#000000" stroke-width="0.80" />
<polyline points="24.299999999999272,107.346 33.900000000001455,107.346" fill="" stroke="#000000" stroke-width="0.80" />
<polyline points="0.0,242.346 2.7000000000007276,242.346" fill="" stroke="#000000" stroke-width="0.80" />
<polyline points="0.0,109.846 2.7000000000007276,109.846" fill="" stroke="#000000" stroke-width="0.80" />
<polyline points="0.0,114.846 2.7000000000007276,114.846" fill="" stroke="#000000" stroke-width="0.80" />
<polyline points="0.0,119.846 2.7000000000007276,119.846" fill="" stroke="#000000" stroke-width="0.80" />
<polyline points="0.0,124.846 2.7000000000007276,124.846" fill="" stroke="#000000" stroke-width="0.80" />
<polyline points="0.0,129.846 2.7000000000007276,129.846" fill="" stroke="#000000" stroke-width="0.80" />
<polyline points="0.0,134.846 2.7000000000007276,134.846" fill="" stroke="#000000" stroke-width="0.80" />
<polyline points="0.0,139.846 2.7000000000007276,139.846" fill="" stroke="#000000" stroke-width="0.80" />
<polyline points="0.0,144.846 2.7000000000007276,144.846" fill="" stroke="#000000" stroke-width="0.80" />
<polyline points="0.0,149.846 2.7000000000007276,149.846" fill="" stroke="#000000" stroke-width="0.80" />
<polyline points="0.0,154.846 2.7000000000007276,154.846" fill="" stroke="#000000" stroke-width="0.80" />
<polyline points="0.0,159.846 2.7000000000007276,159.846" fill="" stroke="#000000" stroke-width="0.80" />
<polyline points="0.0,87.346 2.7000000000007276,87.346" fill="" stroke="#000000" stroke-width="0.80" />
<polyline points="0.0,92.346 2.7000000000007276,92.346" fill="" stroke="#000000" stroke-width="0.80" />
<polyline points="0.0,97.346 2.7000000000007276,97.346" fill="" stroke="#000000" stroke-width="0.80" />
<polyline points="0.0,102.346 2.7000000000007276,102.346" fill="" stroke="#000000" stroke-width="0.80" />
<polyline points="0.0,107.346 2.7000000000007276,107.346" fill="" stroke="#000000" stroke-width="0.80" />
<polyline points="219.59999999999854,105.846 219.59999999999854,154.846" fill="" stroke="#000000" stroke-width="0.75" />
<polyline points="219.59999999999854,83.346 219.59999999999854,102.346" fill="" stroke="#000000" stroke-width="0.75" />
<polyline points="188.40000000000146,105.846 188.40000000000146,154.846" fill="" stroke="#000000" stroke-width="0.75" />
<polyline points="188.40000000000146,83.346 188.40000000000146,102.346" fill="" stroke="#000000" stroke-width="0.75" />
<polyline points="157.20000000000073,105.846 157.20000000000073,154.846" fill="" stroke="#000000" stroke-width="0.75" />
<polyline points="157.20000000000073,83.346 157.20000000000073,102.346" fill="" stroke="#000000" stroke-width="0.75" />
<polyline points="126.0,105.846 126.0,154.846" fill="" stroke="#000000" stroke-width="0.75" />
<polyline points="126.0,83.346 126.0,102.346" fill="" stroke="#000000" stroke-width="0.75" />
<polyline points="94.79999999999927,105.846 94.79999999999927,154.846" fill="" stroke="#000000" stroke-width="0.75" />
<polyline points="94.79999999999927,83.346 94.79999999999927,102.346" fill="" stroke="#000000" stroke-width="0.75" />
<polyline points="63.599999999998545,105.846 63.599999999998545,154.846" fill="" stroke="#000000" stroke-width="0.75" />
<polyline points="63.599999999998545,83.346 63.599999999998545,102.346" fill="" stroke="#000000" stroke-width="0.75" />
<polyline points="32.400000000001455,105.846 32.400000000001455,154.846" fill="" stroke="#000000" stroke-width="0.75" />
<polyline points="32.400000000001455,83.346 32.400000000001455,102.346" fill="" stroke="#000000" stroke-width="0.75" />
<polyline points="1.2000000000007276,105.846 1.2000000000007276,154.846" fill="" stroke="#000000" stroke-width="0.75" />
<polyline points="1.2000000000007276,83.346 1.2000000000007276,102.346" fill="" stroke="#000000" stroke-width="0.75" />
</svg>
