<?xml version="1.0" encoding="UTF-8" standalone="yes"?>
<svg width="256.0px" height="256.0px" xmlns="http://www.w3.org/2000/svg" xmlns:xlink="http://www.w3.org/1999/xlink" version="1.2" baseProfile="tiny">
<polyline points="0.0,17.346000000000004 165.90000000000146,17.346000000000004" fill="none" stroke="#000000" stroke-width="0.40" />
<polyline points="0.0,22.346000000000004 165.90000000000146,22.346000000000004" fill="none" stroke="#000000" stroke-width="0.40" />
<polyline points="0.0,27.346000000000004 165.90000000000146,27.346000000000004" fill="none" stroke="#000000" stroke-width="0.40" />
<polyline points="0.0,32.346000000000004 165.90000000000146,32.346000000000004" fill="none" stroke="#000000" stroke-width="0.40" />
<polyline points="0.0,37.346000000000004 165.90000000000146,37.346000000000004" fill="none" stroke="#000000" stroke-width="0.40" />
<polyline points="0.0,112.346 165.90000000000146,112.346" fill="none" stroke="#000000" stroke-width="0.40" />
<polyline points="0.0,117.346 165.90000000000146,117.346" fill="none" stroke="#000000" stroke-width="0.40" />
<polyline points="0.0,122.346 165.90000000000146,122.346" fill="none" stroke="#000000" stroke-width="0.40" />
<polyline points="0.0,127.346 165.90000000000146,127.346" fill="none" stroke="#000000" stroke-width="0.40" />
<polyline points="0.0,132.346 165.90000000000146,132.346" fill="none" stroke="#000000" stroke-width="0.40" />
<polyline points="0.0,164.846 165.90000000000146,164.846" fill="none" stroke="#000000" stroke-width="0.40" />
<polyline points="0.0,169.846 165.90000000000146,169.846" fill="none" stroke="#000000" stroke-width="0.40" />
<polyline points="0.0,174.846 165.90000000000146,174.846" fill="none" stroke="#000000" stroke-width="0.40" />
<polyline points="0.0,179.846 165.90000000000146,179.846" fill="none" stroke="#000000" stroke-width="0.40" />
<polyline points="0.0,184.846 165.90000000000146,184.846" fill="none" stroke="#000000" stroke-width="0.40" />
<polyline points="0.0,217.346 165.90000000000146,217.346" fill="none" stroke="#000000" stroke-width="0.40" />
<polyline points="0.0,222.346 165.90000000000146,222.346" fill="none" stroke="#000000" stroke-width="0.40" />
<polyline points="0.0,227.346 165.90000000000146,227.346" fill="none" stroke="#000000" stroke-width="0.40" />
<polyline points="0.0,232.346 165.90000000000146,232.346" fill="none" stroke="#000000" stroke-width="0.40" />
<polyline points="0.0,237.346 165.90000000000146,237.346" fill="none" stroke="#000000" stroke-width="0.40" />
<polyline points="165.5,217.346 165.5,237.346" fill="" stroke="#000000" stroke-width="0.80" />
<polyline points="165.5,164.846 165.5,184.846" fill="" stroke="#000000" stroke-width="0.80" />
<polyline points="165.5,112.346 165.5,132.346" fill="" stroke="#000000" stroke-width="0.80" />
<polyline points="165.5,17.346000000000004 165.5,37.346000000000004" fill="" stroke="#000000" stroke-width="0.80" />
<polyline points="108.29999999999927,247.86200000000002 108.29999999999927,212.346" fill="" stroke="#000000" stroke-width="0.65" />
<polyline points="76.79999999999927,247.86200000000002 76.79999999999927,212.346" fill="" stroke="#000000" stroke-width="0.65" />
<polyline points="45.29999999999927,247.86200000000002 45.29999999999927,212.346" fill="" stroke="#000000" stroke-width="0.65" />
<polyline points="39.29999999999927,110.786 39.29999999999927,174.846" fill="" stroke="#000000" stroke-width="0.65" />
<polyline points="39.29999999999927,88.286 39.29999999999927,122.346" fill="" stroke="#000000" stroke-width="0.65" />
<polyline points="13.700000000000728,247.86200000000002 13.700000000000728,212.346" fill="" stroke="#000000" stroke-width="0.65" />
<polyline points="7.799999999999272,110.786 7.799999999999272,173.596" fill="" stroke="#000000" stroke-width="0.65" />
<polyline points="7.799999999999272,88.286 7.799999999999272,121.096" fill="" stroke="#000000" stroke-width="0.65" />
<polyline points="104.09999999999854,16.910000000000025 104.09999999999854,43.596000000000004" fill="" stroke="#000000" stroke-width="0.65" />
<polyline points="43.20000000000073,16.910000000000025 43.20000000000073,46.096000000000004" fill="" stroke="#000000" stroke-width="0.65" />
<polyline points="100.59999999999854,242.346 110.09999999999854,242.346" fill="" stroke="#000000" stroke-width="0.80" />
<polyline points="100.59999999999854,247.346 110.09999999999854,247.346" fill="" stroke="#000000" stroke-width="0.80" />
<polyline points="69.0,242.346 78.59999999999854,242.346" fill="" stroke="#000000" stroke-width="0.80" />
<polyline points="69.0,247.346 78.59999999999854,247.346" fill="" stroke="#000000" stroke-width="0.80" />
<polyline points="37.5,242.346 47.099999999998545,242.346" fill="" stroke="#000000" stroke-width="0.80" />
<polyline points="37.5,247.346 47.099999999998545,247.346" fill="" stroke="#000000" stroke-width="0.80" />
<polyline points="37.5,109.846 47.099999999998545,109.846" fill="" stroke="#000000" stroke-width="0.80" />
<polyline points="37.5,114.846 47.099999999998545,114.846" fill="" stroke="#000000" stroke-width="0.80" />
<polyline points="37.5,119.846 47.099999999998545,119.846" fill="" stroke="#000000" stroke-width="0.80" />
<polyline points="37.5,124.846 47.099999999998545,124.846" fill="" stroke="#000000" stroke-width="0.80" />
<polyline points="37.5,129.846 47.099999999998545,129.846" fill="" stroke="#000000" stroke-width="0.80" />
<polyline points="37.5,134.846 47.099999999998545,134.846" fill="" stroke="#000000" stroke-width="0.80" />
<polyline points="37.5,139.846 47.099999999998545,139.846" fill="" stroke="#000000" stroke-width="0.80" />
<polyline points="37.5,144.846 47.099999999998545,144.846" fill="" stroke="#000000" stroke-width="0.80" />
<polyline points="37.5,149.846 47.099999999998545,149.846" fill="" stroke="#000000" stroke-width="0.80" />
<polyline points="37.5,154.846 47.099999999998545,154.846" fill="" stroke="#000000" stroke-width="0.80" />
<polyline points="37.5,159.846 47.099999999998545,159.846" fill="" stroke="#000000" stroke-width="0.80" />
<polyline points="37.5,87.346 47.099999999998545,87.346" fill="" stroke="#000000" stroke-width="0.80" />
<polyline points="37.5,92.346 47.099999999998545,92.346" fill="" stroke="#000000" stroke-width="0.80" />
<polyline points="37.5,97.346 47.099999999998545,97.346" fill="" stroke="#000000" stroke-width="0.80" />
<polyline points="37.5,102.346 47.099999999998545,102.346" fill="" stroke="#000000" stroke-width="0.80" />
<polyline points="37.5,107.346 47.099999999998545,107.346" fill="" stroke="#000000" stroke-width="0.80" />
<polyline points="6.0,242.346 15.599999999998545,242.346" fill="" stroke="#000000" stroke-width="0.80" />
<polyline points="6.0,247.346 15.599999999998545,247.346" fill="" stroke="#000000" stroke-width="0.80" />
<polyline points="6.0,109.846 15.599999999998545,109.846" fill="" stroke="#000000" stroke-width="0.80" />
<polyline points="6.0,114.846 15.599999999998545,114.846" fill="" stroke="#000000" stroke-width="0.80" />
<polyline points="6.0,119.846 15.599999999998545,119.846" fill="" stroke="#000000" stroke-width="0.80" />
<polyline points="6.0,124.846 15.599999999998545,124.846" fill="" stroke="#000000" stroke-width="0.80" />
<polyline points="6.0,129.846 15.599999999998545,129.846" fill="" stroke="#000000" stroke-width="0.80" />
<polyline points="6.0,134.846 15.599999999998545,134.846" fill="" stroke="#000000" stroke-width="0.80" />
<polyline points="6.0,139.846 15.599999999998545,139.846" fill="" stroke="#000000" stroke-width="0.80" />
<polyline points="6.0,144.846 15.599999999998545,144.846" fill="" stroke="#000000" stroke-width="0.80" />
<polyline points="6.0,149.846 15.599999999998545,149.846" fill="" stroke="#000000" stroke-width="0.80" />
<polyline points="6.0,154.846 15.599999999998545,154.846" fill="" stroke="#000000" stroke-width="0.80" />
<polyline points="6.0,159.846 15.599999999998545,159.846" fill="" stroke="#000000" stroke-width="0.80" />
<polyline points="6.0,87.346 15.599999999998545,87.346" fill="" stroke="#000000" stroke-width="0.80" />
<polyline points="6.0,92.346 15.599999999998545,92.346" fill="" stroke="#000000" stroke-width="0.80" />
<polyline points="6.0,97.346 15.599999999998545,97.346" fill="" stroke="#000000" stroke-width="0.80" />
<polyline points="6.0,102.346 15.599999999998545,102.346" fill="" stroke="#000000" stroke-width="0.80" />
<polyline points="6.0,107.346 15.599999999998545,107.346" fill="" stroke="#000000" stroke-width="0.80" />
<polyline points="45.599999999998545,105.846 45.599999999998545,154.846" fill="" stroke="#000000" stroke-width="0.75" />
<polyline points="45.599999999998545,83.346 45.599999999998545,102.346" fill="" stroke="#000000" stroke-width="0.75" />
<polyline points="14.099999999998545,105.846 14.099999999998545,154.846" fill="" stroke="#000000" stroke-width="0.75" />
<polyline points="14.099999999998545,83.346 14.099999999998545,102.346" fill="" stroke="#000000" stroke-width="0.75" />
<polyline points="222.59999999999854,17.346000000000004 255.0,17.346000000000004" fill="none" stroke="#000000" stroke-width="0.40" />
<polyline points="222.59999999999854,22.346000000000004 255.0,22.346000000000004" fill="none" stroke="#000000" stroke-width="0.40" />
<polyline points="222.59999999999854,27.346000000000004 255.0,27.346000000000004" fill="none" stroke="#000000" stroke-width="0.40" />
<polyline points="222.59999999999854,32.346000000000004 255.0,32.346000000000004" fill="none" stroke="#000000" stroke-width="0.40" />
<polyline points="222.59999999999854,37.346000000000004 255.0,37.346000000000004" fill="none" stroke="#000000" stroke-width="0.40" />
<polyline points="222.59999999999854,112.346 255.0,112.346" fill="none" stroke="#000000" stroke-width="0.40" />
<polyline points="222.59999999999854,117.346 255.0,117.346" fill="none" stroke="#000000" stroke-width="0.40" />
<polyline points="222.59999999999854,122.346 255.0,122.346" fill="none" stroke="#000000" stroke-width="0.40" />
<polyline points="222.59999999999854,127.346 255.0,127.346" fill="none" stroke="#000000" stroke-width="0.40" />
<polyline points="222.59999999999854,132.346 255.0,132.346" fill="none" stroke="#000000" stroke-width="0.40" />
<polyline points="222.59999999999854,164.846 255.0,164.846" fill="none" stroke="#000000" stroke-width="0.40" />
<polyline points="222.59999999999854,169.846 255.0,169.846" fill="none" stroke="#000000" stroke-width="0.40" />
<polyline points="222.59999999999854,174.846 255.0,174.846" fill="none" stroke="#000000" stroke-width="0.40" />
<polyline points="222.59999999999854,179.846 255.0,179.846" fill="none" stroke="#000000" stroke-width="0.40" />
<polyline points="222.59999999999854,184.846 255.0,184.846" fill="none" stroke="#000000" stroke-width="0.40" />
<polyline points="222.59999999999854,217.346 255.0,217.346" fill="none" stroke="#000000" stroke-width="0.40" />
<polyline points="222.59999999999854,222.346 255.0,222.346" fill="none" stroke="#000000" stroke-width="0.40" />
<polyline points="222.59999999999854,227.346 255.0,227.346" fill="none" stroke="#000000" stroke-width="0.40" />
<polyline points="222.59999999999854,232.346 255.0,232.346" fill="none" stroke="#000000" stroke-width="0.40" />
<polyline points="222.59999999999854,237.346 255.0,237.346" fill="none" stroke="#000000" stroke-width="0.40" />
<polyline points="223.0,112.346 223.0,255.0" fill="none" stroke="#000000" stroke-width="0.80" />
<polyline points="223.0,0.0 223.0,37.346000000000004" fill="none" stroke="#000000" stroke-width="0.80" />
</svg>
