<?xml version="1.0" encoding="UTF-8" standalone="yes"?>
<svg width="256.0px" height="256.0px" xmlns="http://www.w3.org/2000/svg" xmlns:xlink="http://www.w3.org/1999/xlink" version="1.2" baseProfile="tiny">
<polyline points="56.099999999998545,17.346000000000004 255.0,17.346000000000004" fill="none" stroke="#000000" stroke-width="0.40" />
<polyline points="56.099999999998545,22.346000000000004 255.0,22.346000000000004" fill="none" stroke="#000000" stroke-width="0.40" />
<polyline points="56.099999999998545,27.346000000000004 255.0,27.346000000000004" fill="none" stroke="#000000" stroke-width="0.40" />
<polyline points="56.099999999998545,32.346000000000004 255.0,32.346000000000004" fill="none" stroke="#000000" stroke-width="0.40" />
<polyline points="56.099999999998545,37.346000000000004 255.0,37.346000000000004" fill="none" stroke="#000000" stroke-width="0.40" />
<polyline points="56.099999999998545,112.346 255.0,112.346" fill="none" stroke="#000000" stroke-width="0.40" />
<polyline points="56.099999999998545,117.346 255.0,117.346" fill="none" stroke="#000000" stroke-width="0.40" />
<polyline points="56.099999999998545,122.346 255.0,122.346" fill="none" stroke="#000000" stroke-width="0.40" />
<polyline points="56.099999999998545,127.346 255.0,127.346" fill="none" stroke="#000000" stroke-width="0.40" />
<polyline points="56.099999999998545,132.346 255.0,132.346" fill="none" stroke="#000000" stroke-width="0.40" />
<polyline points="56.099999999998545,164.846 255.0,164.846" fill="none" stroke="#000000" stroke-width="0.40" />
<polyline points="56.099999999998545,169.846 255.0,169.846" fill="none" stroke="#000000" stroke-width="0.40" />
<polyline points="56.099999999998545,174.846 255.0,174.846" fill="none" stroke="#000000" stroke-width="0.40" />
<polyline points="56.099999999998545,179.846 255.0,179.846" fill="none" stroke="#000000" stroke-width="0.40" />
<polyline points="56.099999999998545,184.846 255.0,184.846" fill="none" stroke="#000000" stroke-width="0.40" />
<polyline points="56.099999999998545,217.346 255.0,217.346" fill="none" stroke="#000000" stroke-width="0.40" />
<polyline points="56.099999999998545,222.346 255.0,222.346" fill="none" stroke="#000000" stroke-width="0.40" />
<polyline points="56.099999999998545,227.346 255.0,227.346" fill="none" stroke="#000000" stroke-width="0.40" />
<polyline points="56.099999999998545,232.346 255.0,232.346" fill="none" stroke="#000000" stroke-width="0.40" />
<polyline points="56.099999999998545,237.346 255.0,237.346" fill="none" stroke="#000000" stroke-width="0.40" />
<polyline points="56.5,112.346 56.5,255.0" fill="" stroke="#000000" stroke-width="0.80" />
<polyline points="56.5,0.0 56.5,37.346000000000004" fill="" stroke="#000000" stroke-width="0.80" />
<polyline points="251.0,110.786 251.0,173.596" fill="" stroke="#000000" stroke-width="0.65" />
<polyline points="251.0,88.286 251.0,121.096" fill="" stroke="#000000" stroke-width="0.65" />
<polyline points="225.70000000000073,241.40699999999998 225.70000000000073,208.596" fill="" stroke="#000000" stroke-width="0.65" />
<polyline points="219.79999999999927,110.786 219.79999999999927,173.596" fill="" stroke="#000000" stroke-width="0.65" />
<polyline points="219.79999999999927,88.286 219.79999999999927,121.096" fill="" stroke="#000000" stroke-width="0.65" />
<polyline points="188.59999999999854,110.786 188.59999999999854,173.596" fill="" stroke="#000000" stroke-width="0.65" />
<polyline points="188.59999999999854,88.286 188.59999999999854,121.096" fill="" stroke="#000000" stroke-width="0.65" />
<polyline points="163.29999999999927,241.40699999999998 163.29999999999927,211.096" fill="" stroke="#000000" stroke-width="0.65" />
<polyline points="157.40000000000146,110.786 157.40000000000146,173.596" fill="" stroke="#000000" stroke-width="0.65" />
<polyline points="157.40000000000146,88.286 157.40000000000146,121.096" fill="" stroke="#000000" stroke-width="0.65" />
<polyline points="126.20000000000073,110.786 126.20000000000073,173.596" fill="" stroke="#000000" stroke-width="0.65" />
<polyline points="126.20000000000073,88.286 126.20000000000073,121.096" fill="" stroke="#000000" stroke-width="0.65" />
<polyline points="100.90000000000146,241.40699999999998 100.90000000000146,211.096" fill="" stroke="#000000" stroke-width="0.65" />
<polyline points="95.0,110.786 95.0,173.596" fill="" stroke="#000000" stroke-width="0.65" />
<polyline points="95.0,88.286 95.0,121.096" fill="" stroke="#000000" stroke-width="0.65" />
<polyline points="211.59999999999854,16.910000000000025 211.59999999999854,41.096000000000004" fill="" stroke="#000000" stroke-width="0.65" />
<polyline points="150.40000000000146,16.910000000000025 150.40000000000146,49.846000000000004" fill="" stroke="#000000" stroke-width="0.65" />
<polyline points="89.20000000000073,16.910000000000025 89.20000000000073,49.846000000000004" fill="" stroke="#000000" stroke-width="0.65" />
<polyline points="249.09999999999854,242.346 255.0,242.346" fill="" stroke="#000000" stroke-width="0.80" />
<polyline points="249.09999999999854,109.846 255.0,109.846" fill="" stroke="#000000" stroke-width="0.80" />
<polyline points="249.09999999999854,114.846 255.0,114.846" fill="" stroke="#000000" stroke-width="0.80" />
<polyline points="249.09999999999854,119.846 255.0,119.846" fill="" stroke="#000000" stroke-width="0.80" />
<polyline points="249.09999999999854,124.846 255.0,124.846" fill="" stroke="#000000" stroke-width="0.80" />
<polyline points="249.09999999999854,129.846 255.0,129.846" fill="" stroke="#000000" stroke-width="0.80" />
<polyline points="249.09999999999854,134.846 255.0,134.846" fill="" stroke="#000000" stroke-width="0.80" />
<polyline points="249.09999999999854,139.846 255.0,139.846" fill="" stroke="#000000" stroke-width="0.80" />
<polyline points="249.09999999999854,144.846 255.0,144.846" fill="" stroke="#000000" stroke-width="0.80" />
<polyline points="249.09999999999854,149.846 255.0,149.846" fill="" stroke="#000000" stroke-width="0.80" />
<polyline points="249.09999999999854,154.846 255.0,154.846" fill="" stroke="#000000" stroke-width="0.80" />
<polyline points="249.09999999999854,159.846 255.0,159.846" fill="" stroke="#000000" stroke-width="0.80" />
<polyline points="249.09999999999854,87.346 255.0,87.346" fill="" stroke="#000000" stroke-width="0.80" />
<polyline points="249.09999999999854,92.346 255.0,92.346" fill="" stroke="#000000" stroke-width="0.80" />
<polyline points="249.09999999999854,97.346 255.0,97.346" fill="" stroke="#000000" stroke-width="0.80" />
<polyline points="249.09999999999854,102.346 255.0,102.346" fill="" stroke="#000000" stroke-width="0.80" />
<polyline points="249.09999999999854,107.346 255.0,107.346" fill="" stroke="#000000" stroke-width="0.80" />
<polyline points="217.90000000000146,242.346 227.5,242.346" fill="" stroke="#000000" stroke-width="0.80" />
<polyline points="217.90000000000146,109.846 227.5,109.846" fill="" stroke="#000000" stroke-width="0.80" />
<polyline points="217.90000000000146,114.846 227.5,114.846" fill="" stroke="#000000" stroke-width="0.80" />
<polyline points="217.90000000000146,119.846 227.5,119.846" fill="" stroke="#000000" stroke-width="0.80" />
<polyline points="217.90000000000146,124.846 227.5,124.846" fill="" stroke="#000000" stroke-width="0.80" />
<polyline points="217.90000000000146,129.846 227.5,129.846" fill="" stroke="#000000" stroke-width="0.80" />
<polyline points="217.90000000000146,134.846 227.5,134.846" fill="" stroke="#000000" stroke-width="0.80" />
<polyline points="217.90000000000146,139.846 227.5,139.846" fill="" stroke="#000000" stroke-width="0.80" />
<polyline points="217.90000000000146,144.846 227.5,144.846" fill="" stroke="#000000" stroke-width="0.80" />
<polyline points="217.90000000000146,149.846 227.5,149.846" fill="" stroke="#000000" stroke-width="0.80" />
<polyline points="217.90000000000146,154.846 227.5,154.846" fill="" stroke="#000000" stroke-width="0.80" />
<polyline points="217.90000000000146,159.846 227.5,159.846" fill="" stroke="#000000" stroke-width="0.80" />
<polyline points="217.90000000000146,87.346 227.5,87.346" fill="" stroke="#000000" stroke-width="0.80" />
<polyline points="217.90000000000146,92.346 227.5,92.346" fill="" stroke="#000000" stroke-width="0.80" />
<polyline points="217.90000000000146,97.346 227.5,97.346" fill="" stroke="#000000" stroke-width="0.80" />
<polyline points="217.90000000000146,102.346 227.5,102.346" fill="" stroke="#000000" stroke-width="0.80" />
<polyline points="217.90000000000146,107.346 227.5,107.346" fill="" stroke="#000000" stroke-width="0.80" />
<polyline points="186.70000000000073,109.846 196.29999999999927,109.846" fill="" stroke="#000000" stroke-width="0.80" />
<polyline points="186.70000000000073,114.846 196.29999999999927,114.846" fill="" stroke="#000000" stroke-width="0.80" />
<polyline points="186.70000000000073,119.846 196.29999999999927,119.846" fill="" stroke="#000000" stroke-width="0.80" />
<polyline points="186.70000000000073,124.846 196.29999999999927,124.846" fill="" stroke="#000000" stroke-width="0.80" />
<polyline points="186.70000000000073,129.846 196.29999999999927,129.846" fill="" stroke="#000000" stroke-width="0.80" />
<polyline points="186.70000000000073,134.846 196.29999999999927,134.846" fill="" stroke="#000000" stroke-width="0.80" />
<polyline points="186.70000000000073,139.846 196.29999999999927,139.846" fill="" stroke="#000000" stroke-width="0.80" />
<polyline points="186.70000000000073,144.846 196.29999999999927,144.846" fill="" stroke="#000000" stroke-width="0.80" />
<polyline points="186.70000000000073,149.846 196.29999999999927,149.846" fill="" stroke="#000000" stroke-width="0.80" />
<polyline points="186.70000000000073,154.846 196.29999999999927,154.846" fill="" stroke="#000000" stroke-width="0.80" />
<polyline points="186.70000000000073,159.846 196.29999999999927,159.846" fill="" stroke="#000000" stroke-width="0.80" />
<polyline points="186.70000000000073,87.346 196.29999999999927,87.346" fill="" stroke="#000000" stroke-width="0.80" />
<polyline points="186.70000000000073,92.346 196.29999999999927,92.346" fill="" stroke="#000000" stroke-width="0.80" />
<polyline points="186.70000000000073,97.346 196.29999999999927,97.346" fill="" stroke="#000000" stroke-width="0.80" />
<polyline points="186.70000000000073,102.346 196.29999999999927,102.346" fill="" stroke="#000000" stroke-width="0.80" />
<polyline points="186.70000000000073,107.346 196.29999999999927,107.346" fill="" stroke="#000000" stroke-width="0.80" />
<polyline points="155.5,242.346 165.09999999999854,242.346" fill="" stroke="#000000" stroke-width="0.80" />
<polyline points="155.5,109.846 165.09999999999854,109.846" fill="" stroke="#000000" stroke-width="0.80" />
<polyline points="155.5,114.846 165.09999999999854,114.846" fill="" stroke="#000000" stroke-width="0.80" />
<polyline points="155.5,119.846 165.09999999999854,119.846" fill="" stroke="#000000" stroke-width="0.80" />
<polyline points="155.5,124.846 165.09999999999854,124.846" fill="" stroke="#000000" stroke-width="0.80" />
<polyline points="155.5,129.846 165.09999999999854,129.846" fill="" stroke="#000000" stroke-width="0.80" />
<polyline points="155.5,134.846 165.09999999999854,134.846" fill="" stroke="#000000" stroke-width="0.80" />
<polyline points="155.5,139.846 165.09999999999854,139.846" fill="" stroke="#000000" stroke-width="0.80" />
<polyline points="155.5,144.846 165.09999999999854,144.846" fill="" stroke="#000000" stroke-width="0.80" />
<polyline points="155.5,149.846 165.09999999999854,149.846" fill="" stroke="#000000" stroke-width="0.80" />
<polyline points="155.5,154.846 165.09999999999854,154.846" fill="" stroke="#000000" stroke-width="0.80" />
<polyline points="155.5,159.846 165.09999999999854,159.846" fill="" stroke="#000000" stroke-width="0.80" />
<polyline points="155.5,87.346 165.09999999999854,87.346" fill="" stroke="#000000" stroke-width="0.80" />
<polyline points="155.5,92.346 165.09999999999854,92.346" fill="" stroke="#000000" stroke-width="0.80" />
<polyline points="155.5,97.346 165.09999999999854,97.346" fill="" stroke="#000000" stroke-width="0.80" />
<polyline points="155.5,102.346 165.09999999999854,102.346" fill="" stroke="#000000" stroke-width="0.80" />
<polyline points="155.5,107.346 165.09999999999854,107.346" fill="" stroke="#000000" stroke-width="0.80" />
<polyline points="124.29999999999927,109.846 133.90000000000146,109.846" fill="" stroke="#000000" stroke-width="0.80" />
<polyline points="124.29999999999927,114.846 133.90000000000146,114.846" fill="" stroke="#000000" stroke-width="0.80" />
<polyline points="124.29999999999927,119.846 133.90000000000146,119.846" fill="" stroke="#000000" stroke-width="0.80" />
<polyline points="124.29999999999927,124.846 133.90000000000146,124.846" fill="" stroke="#000000" stroke-width="0.80" />
<polyline points="124.29999999999927,129.846 133.90000000000146,129.846" fill="" stroke="#000000" stroke-width="0.80" />
<polyline points="124.29999999999927,134.846 133.90000000000146,134.846" fill="" stroke="#000000" stroke-width="0.80" />
<polyline points="124.29999999999927,139.846 133.90000000000146,139.846" fill="" stroke="#000000" stroke-width="0.80" />
<polyline points="124.29999999999927,144.846 133.90000000000146,144.846" fill="" stroke="#000000" stroke-width="0.80" />
<polyline points="124.29999999999927,149.846 133.90000000000146,149.846" fill="" stroke="#000000" stroke-width="0.80" />
<polyline points="124.29999999999927,154.846 133.90000000000146,154.846" fill="" stroke="#000000" stroke-width="0.80" />
<polyline points="124.29999999999927,159.846 133.90000000000146,159.846" fill="" stroke="#000000" stroke-width="0.80" />
<polyline points="124.29999999999927,87.346 133.90000000000146,87.346" fill="" stroke="#000000" stroke-width="0.80" />
<polyline points="124.29999999999927,92.346 133.90000000000146,92.346" fill="" stroke="#000000" stroke-width="0.80" />
<polyline points="124.29999999999927,97.346 133.90000000000146,97.346" fill="" stroke="#000000" stroke-width="0.80" />
<polyline points="124.29999999999927,102.346 133.90000000000146,102.346" fill="" stroke="#000000" stroke-width="0.80" />
<polyline points="124.29999999999927,107.346 133.90000000000146,107.346" fill="" stroke="#000000" stroke-width="0.80" />
<polyline points="93.09999999999854,242.346 102.70000000000073,242.346" fill="" stroke="#000000" stroke-width="0.80" />
<polyline points="93.09999999999854,109.846 102.70000000000073,109.846" fill="" stroke="#000000" stroke-width="0.80" />
<polyline points="93.09999999999854,114.846 102.70000000000073,114.846" fill="" stroke="#000000" stroke-width="0.80" />
<polyline points="93.09999999999854,119.846 102.70000000000073,119.846" fill="" stroke="#000000" stroke-width="0.80" />
<polyline points="93.09999999999854,124.846 102.70000000000073,124.846" fill="" stroke="#000000" stroke-width="0.80" />
<polyline points="93.09999999999854,129.846 102.70000000000073,129.846" fill="" stroke="#000000" stroke-width="0.80" />
<polyline points="93.09999999999854,134.846 102.70000000000073,134.846" fill="" stroke="#000000" stroke-width="0.80" />
<polyline points="93.09999999999854,139.846 102.70000000000073,139.846" fill="" stroke="#000000" stroke-width="0.80" />
<polyline points="93.09999999999854,144.846 102.70000000000073,144.846" fill="" stroke="#000000" stroke-width="0.80" />
<polyline points="93.09999999999854,149.846 102.70000000000073,149.846" fill="" stroke="#000000" stroke-width="0.80" />
<polyline points="93.09999999999854,154.846 102.70000000000073,154.846" fill="" stroke="#000000" stroke-width="0.80" />
<polyline points="93.09999999999854,159.846 102.70000000000073,159.846" fill="" stroke="#000000" stroke-width="0.80" />
<polyline points="93.09999999999854,87.346 102.70000000000073,87.346" fill="" stroke="#000000" stroke-width="0.80" />
<polyline points="93.09999999999854,92.346 102.70000000000073,92.346" fill="" stroke="#000000" stroke-width="0.80" />
<polyline points="93.09999999999854,97.346 102.70000000000073,97.346" fill="" stroke="#000000" stroke-width="0.80" />
<polyline points="93.09999999999854,102.346 102.70000000000073,102.346" fill="" stroke="#000000" stroke-width="0.80" />
<polyline points="93.09999999999854,107.346 102.70000000000073,107.346" fill="" stroke="#000000" stroke-width="0.80" />
<polyline points="226.0,105.846 226.0,154.846" fill="" stroke="#000000" stroke-width="0.75" />
<polyline points="226.0,83.346 226.0,102.346" fill="" stroke="#000000" stroke-width="0.75" />
<polyline points="194.79999999999927,105.846 194.79999999999927,154.846" fill="" stroke="#000000" stroke-width="0.75" />
<polyline points="194.79999999999927,83.346 194.79999999999927,102.346" fill="" stroke="#000000" stroke-width="0.75" />
<polyline points="163.59999999999854,105.846 163.59999999999854,154.846" fill="" stroke="#000000" stroke-width="0.75" />
<polyline points="163.59999999999854,83.346 163.59999999999854,102.346" fill="" stroke="#000000" stroke-width="0.75" />
<polyline points="132.40000000000146,105.846 132.40000000000146,154.846" fill="" stroke="#000000" stroke-width="0.75" />
<polyline points="132.40000000000146,83.346 132.40000000000146,102.346" fill="" stroke="#000000" stroke-width="0.75" />
</svg>
