<?xml version="1.0" encoding="UTF-8" standalone="yes"?>
<svg width="256.0px" height="256.0px" xmlns="http://www.w3.org/2000/svg" xmlns:xlink="http://www.w3.org/1999/xlink" version="1.2" baseProfile="tiny">
<polyline points="0.0,13.846000000000004 172.10000000000036,13.846000000000004" fill="none" stroke="#000000" stroke-width="0.40" />
<polyline points="0.0,18.846000000000004 172.10000000000036,18.846000000000004" fill="none" stroke="#000000" stroke-width="0.40" />
<polyline points="0.0,23.846000000000004 172.10000000000036,23.846000000000004" fill="none" stroke="#000000" stroke-width="0.40" />
<polyline points="0.0,28.846000000000004 172.10000000000036,28.846000000000004" fill="none" stroke="#000000" stroke-width="0.40" />
<polyline points="0.0,33.846000000000004 172.10000000000036,33.846000000000004" fill="none" stroke="#000000" stroke-width="0.40" />
<polyline points="0.0,66.346 172.10000000000036,66.346" fill="none" stroke="#000000" stroke-width="0.40" />
<polyline points="0.0,71.346 172.10000000000036,71.346" fill="none" stroke="#000000" stroke-width="0.40" />
<polyline points="0.0,76.346 172.10000000000036,76.346" fill="none" stroke="#000000" stroke-width="0.40" />
<polyline points="0.0,81.346 172.10000000000036,81.346" fill="none" stroke="#000000" stroke-width="0.40" />
<polyline points="0.0,86.346 172.10000000000036,86.346" fill="none" stroke="#000000" stroke-width="0.40" />
<polyline points="171.70000000000073,66.346 171.70000000000073,86.346" fill="none" stroke="#000000" stroke-width="0.80" />
<polyline points="171.70000000000073,13.846000000000004 171.70000000000073,33.846000000000004" fill="none" stroke="#000000" stroke-width="0.80" />
<polyline points="151.60000000000036,77.28599999999994 151.60000000000036,91.346" fill="none" stroke="#000000" stroke-width="0.65" />
<polyline points="131.70000000000073,77.28599999999994 131.70000000000073,91.10799999999995" fill="none" stroke="#000000" stroke-width="0.65" />
<polyline points="111.70000000000073,74.78599999999994 111.70000000000073,90.87" fill="none" stroke="#000000" stroke-width="0.65" />
<polyline points="111.70000000000073,29.785999999999945 111.70000000000073,48.846000000000004" fill="none" stroke="#000000" stroke-width="0.65" />
<polyline points="91.70000000000073,74.78599999999994 91.70000000000073,90.63199999999995" fill="none" stroke="#000000" stroke-width="0.65" />
<polyline points="79.20000000000073,35.90999999999997 79.20000000000073,48.846000000000004" fill="none" stroke="#000000" stroke-width="0.65" />
<polyline points="66.70000000000073,74.78599999999994 66.70000000000073,90.33500000000004" fill="none" stroke="#000000" stroke-width="0.65" />
<polyline points="46.70000000000073,74.78599999999994 46.70000000000073,90.096" fill="none" stroke="#000000" stroke-width="0.65" />
<polyline points="46.70000000000073,12.285999999999945 46.70000000000073,48.846000000000004" fill="none" stroke="#000000" stroke-width="0.65" />
<polyline points="26.700000000000728,74.78599999999994 26.700000000000728,90.096" fill="none" stroke="#000000" stroke-width="0.65" />
<polyline points="14.200000000000728,19.785999999999945 14.200000000000728,38.846000000000004" fill="none" stroke="#000000" stroke-width="0.65" />
<polyline points="1.7999999999992724,74.78599999999994 1.7999999999992724,90.096" fill="none" stroke="#000000" stroke-width="0.65" />
<polyline points="228.79999999999927,13.846000000000004 255.0,13.846000000000004" fill="none" stroke="#000000" stroke-width="0.40" />
<polyline points="228.79999999999927,18.846000000000004 255.0,18.846000000000004" fill="none" stroke="#000000" stroke-width="0.40" />
<polyline points="228.79999999999927,23.846000000000004 255.0,23.846000000000004" fill="none" stroke="#000000" stroke-width="0.40" />
<polyline points="228.79999999999927,28.846000000000004 255.0,28.846000000000004" fill="none" stroke="#000000" stroke-width="0.40" />
<polyline points="228.79999999999927,33.846000000000004 255.0,33.846000000000004" fill="none" stroke="#000000" stroke-width="0.40" />
<polyline points="228.79999999999927,66.346 255.0,66.346" fill="none" stroke="#000000" stroke-width="0.40" />
<polyline points="228.79999999999927,71.346 255.0,71.346" fill="none" stroke="#000000" stroke-width="0.40" />
<polyline points="228.79999999999927,76.346 255.0,76.346" fill="none" stroke="#000000" stroke-width="0.40" />
<polyline points="228.79999999999927,81.346 255.0,81.346" fill="none" stroke="#000000" stroke-width="0.40" />
<polyline points="228.79999999999927,86.346 255.0,86.346" fill="none" stroke="#000000" stroke-width="0.40" />
<polyline points="229.20000000000073,0.0 229.20000000000073,86.346" fill="none" stroke="#000000" stroke-width="0.80" />
</svg>
