<?xml version="1.0" encoding="UTF-8" standalone="yes"?>
<svg width="256.0px" height="256.0px" xmlns="http://www.w3.org/2000/svg" xmlns:xlink="http://www.w3.org/1999/xlink" version="1.2" baseProfile="tiny">
<polyline points="0.0,63.3465 165.90000000000146,63.3465" fill="none" stroke="#000000" stroke-width="0.40" />
<polyline points="0.0,68.3465 165.90000000000146,68.3465" fill="none" stroke="#000000" stroke-width="0.40" />
<polyline points="0.0,73.3465 165.90000000000146,73.3465" fill="none" stroke="#000000" stroke-width="0.40" />
<polyline points="0.0,78.3465 165.90000000000146,78.3465" fill="none" stroke="#000000" stroke-width="0.40" />
<polyline points="0.0,83.3465 165.90000000000146,83.3465" fill="none" stroke="#000000" stroke-width="0.40" />
<polyline points="0.0,115.846 165.90000000000146,115.846" fill="none" stroke="#000000" stroke-width="0.40" />
<polyline points="0.0,120.846 165.90000000000146,120.846" fill="none" stroke="#000000" stroke-width="0.40" />
<polyline points="0.0,125.846 165.90000000000146,125.846" fill="none" stroke="#000000" stroke-width="0.40" />
<polyline points="0.0,130.846 165.90000000000146,130.846" fill="none" stroke="#000000" stroke-width="0.40" />
<polyline points="0.0,135.846 165.90000000000146,135.846" fill="none" stroke="#000000" stroke-width="0.40" />
<polyline points="0.0,168.346 165.90000000000146,168.346" fill="none" stroke="#000000" stroke-width="0.40" />
<polyline points="0.0,173.346 165.90000000000146,173.346" fill="none" stroke="#000000" stroke-width="0.40" />
<polyline points="0.0,178.346 165.90000000000146,178.346" fill="none" stroke="#000000" stroke-width="0.40" />
<polyline points="0.0,183.346 165.90000000000146,183.346" fill="none" stroke="#000000" stroke-width="0.40" />
<polyline points="0.0,188.346 165.90000000000146,188.346" fill="none" stroke="#000000" stroke-width="0.40" />
<polyline points="0.0,220.846 165.90000000000146,220.846" fill="none" stroke="#000000" stroke-width="0.40" />
<polyline points="0.0,225.846 165.90000000000146,225.846" fill="none" stroke="#000000" stroke-width="0.40" />
<polyline points="0.0,230.846 165.90000000000146,230.846" fill="none" stroke="#000000" stroke-width="0.40" />
<polyline points="0.0,235.846 165.90000000000146,235.846" fill="none" stroke="#000000" stroke-width="0.40" />
<polyline points="0.0,240.846 165.90000000000146,240.846" fill="none" stroke="#000000" stroke-width="0.40" />
<polyline points="165.5,220.846 165.5,240.846" fill="" stroke="#000000" stroke-width="0.80" />
<polyline points="165.5,168.346 165.5,188.346" fill="" stroke="#000000" stroke-width="0.80" />
<polyline points="165.5,115.846 165.5,135.846" fill="" stroke="#000000" stroke-width="0.80" />
<polyline points="165.5,63.3465 165.5,83.3465" fill="" stroke="#000000" stroke-width="0.80" />
<polyline points="135.0,224.286 135.0,240.846" fill="" stroke="#000000" stroke-width="0.65" />
<polyline points="135.0,61.7855 135.0,124.596" fill="" stroke="#000000" stroke-width="0.65" />
<polyline points="135.0,39.2855 135.0,72.0965" fill="" stroke="#000000" stroke-width="0.65" />
<polyline points="104.5,226.786 104.5,240.846" fill="" stroke="#000000" stroke-width="0.65" />
<polyline points="110.5,191.362 110.5,154.596" fill="" stroke="#000000" stroke-width="0.65" />
<polyline points="104.5,61.7855 104.5,124.596" fill="" stroke="#000000" stroke-width="0.65" />
<polyline points="104.5,39.2855 104.5,72.0965" fill="" stroke="#000000" stroke-width="0.65" />
<polyline points="74.09999999999854,226.786 74.09999999999854,240.846" fill="" stroke="#000000" stroke-width="0.65" />
<polyline points="80.0,191.362 80.0,154.596" fill="" stroke="#000000" stroke-width="0.65" />
<polyline points="74.09999999999854,61.7855 74.09999999999854,124.596" fill="" stroke="#000000" stroke-width="0.65" />
<polyline points="74.09999999999854,39.2855 74.09999999999854,72.0965" fill="" stroke="#000000" stroke-width="0.65" />
<polyline points="43.599999999998545,226.786 43.599999999998545,240.846" fill="" stroke="#000000" stroke-width="0.65" />
<polyline points="49.599999999998545,191.362 49.599999999998545,154.596" fill="" stroke="#000000" stroke-width="0.65" />
<polyline points="43.599999999998545,61.7855 43.599999999998545,124.596" fill="" stroke="#000000" stroke-width="0.65" />
<polyline points="43.599999999998545,39.2855 43.599999999998545,72.0965" fill="" stroke="#000000" stroke-width="0.65" />
<polyline points="13.200000000000728,224.286 13.200000000000728,239.596" fill="" stroke="#000000" stroke-width="0.65" />
<polyline points="19.099999999998545,191.362 19.099999999998545,154.596" fill="" stroke="#000000" stroke-width="0.65" />
<polyline points="13.200000000000728,61.7855 13.200000000000728,124.596" fill="" stroke="#000000" stroke-width="0.65" />
<polyline points="13.200000000000728,39.2855 13.200000000000728,72.0965" fill="" stroke="#000000" stroke-width="0.65" />
<polyline points="133.20000000000073,60.8465 142.70000000000073,60.8465" fill="" stroke="#000000" stroke-width="0.80" />
<polyline points="133.20000000000073,65.8465 142.70000000000073,65.8465" fill="" stroke="#000000" stroke-width="0.80" />
<polyline points="133.20000000000073,70.8465 142.70000000000073,70.8465" fill="" stroke="#000000" stroke-width="0.80" />
<polyline points="133.20000000000073,75.8465 142.70000000000073,75.8465" fill="" stroke="#000000" stroke-width="0.80" />
<polyline points="133.20000000000073,80.8465 142.70000000000073,80.8465" fill="" stroke="#000000" stroke-width="0.80" />
<polyline points="133.20000000000073,85.8465 142.70000000000073,85.8465" fill="" stroke="#000000" stroke-width="0.80" />
<polyline points="133.20000000000073,90.8465 142.70000000000073,90.8465" fill="" stroke="#000000" stroke-width="0.80" />
<polyline points="133.20000000000073,95.8465 142.70000000000073,95.8465" fill="" stroke="#000000" stroke-width="0.80" />
<polyline points="133.20000000000073,100.846 142.70000000000073,100.846" fill="" stroke="#000000" stroke-width="0.80" />
<polyline points="133.20000000000073,105.846 142.70000000000073,105.846" fill="" stroke="#000000" stroke-width="0.80" />
<polyline points="133.20000000000073,110.846 142.70000000000073,110.846" fill="" stroke="#000000" stroke-width="0.80" />
<polyline points="133.20000000000073,38.3465 142.70000000000073,38.3465" fill="" stroke="#000000" stroke-width="0.80" />
<polyline points="133.20000000000073,43.3465 142.70000000000073,43.3465" fill="" stroke="#000000" stroke-width="0.80" />
<polyline points="133.20000000000073,48.3465 142.70000000000073,48.3465" fill="" stroke="#000000" stroke-width="0.80" />
<polyline points="133.20000000000073,53.3465 142.70000000000073,53.3465" fill="" stroke="#000000" stroke-width="0.80" />
<polyline points="133.20000000000073,58.3465 142.70000000000073,58.3465" fill="" stroke="#000000" stroke-width="0.80" />
<polyline points="102.70000000000073,193.346 112.29999999999927,193.346" fill="" stroke="#000000" stroke-width="0.80" />
<polyline points="102.70000000000073,60.8465 112.29999999999927,60.8465" fill="" stroke="#000000" stroke-width="0.80" />
<polyline points="102.70000000000073,65.8465 112.29999999999927,65.8465" fill="" stroke="#000000" stroke-width="0.80" />
<polyline points="102.70000000000073,70.8465 112.29999999999927,70.8465" fill="" stroke="#000000" stroke-width="0.80" />
<polyline points="102.70000000000073,75.8465 112.29999999999927,75.8465" fill="" stroke="#000000" stroke-width="0.80" />
<polyline points="102.70000000000073,80.8465 112.29999999999927,80.8465" fill="" stroke="#000000" stroke-width="0.80" />
<polyline points="102.70000000000073,85.8465 112.29999999999927,85.8465" fill="" stroke="#000000" stroke-width="0.80" />
<polyline points="102.70000000000073,90.8465 112.29999999999927,90.8465" fill="" stroke="#000000" stroke-width="0.80" />
<polyline points="102.70000000000073,95.8465 112.29999999999927,95.8465" fill="" stroke="#000000" stroke-width="0.80" />
<polyline points="102.70000000000073,100.846 112.29999999999927,100.846" fill="" stroke="#000000" stroke-width="0.80" />
<polyline points="102.70000000000073,105.846 112.29999999999927,105.846" fill="" stroke="#000000" stroke-width="0.80" />
<polyline points="102.70000000000073,110.846 112.29999999999927,110.846" fill="" stroke="#000000" stroke-width="0.80" />
<polyline points="102.70000000000073,38.3465 112.29999999999927,38.3465" fill="" stroke="#000000" stroke-width="0.80" />
<polyline points="102.70000000000073,43.3465 112.29999999999927,43.3465" fill="" stroke="#000000" stroke-width="0.80" />
<polyline points="102.70000000000073,48.3465 112.29999999999927,48.3465" fill="" stroke="#000000" stroke-width="0.80" />
<polyline points="102.70000000000073,53.3465 112.29999999999927,53.3465" fill="" stroke="#000000" stroke-width="0.80" />
<polyline points="102.70000000000073,58.3465 112.29999999999927,58.3465" fill="" stroke="#000000" stroke-width="0.80" />
<polyline points="72.29999999999927,193.346 81.79999999999927,193.346" fill="" stroke="#000000" stroke-width="0.80" />
<polyline points="72.29999999999927,60.8465 81.79999999999927,60.8465" fill="" stroke="#000000" stroke-width="0.80" />
<polyline points="72.29999999999927,65.8465 81.79999999999927,65.8465" fill="" stroke="#000000" stroke-width="0.80" />
<polyline points="72.29999999999927,70.8465 81.79999999999927,70.8465" fill="" stroke="#000000" stroke-width="0.80" />
<polyline points="72.29999999999927,75.8465 81.79999999999927,75.8465" fill="" stroke="#000000" stroke-width="0.80" />
<polyline points="72.29999999999927,80.8465 81.79999999999927,80.8465" fill="" stroke="#000000" stroke-width="0.80" />
<polyline points="72.29999999999927,85.8465 81.79999999999927,85.8465" fill="" stroke="#000000" stroke-width="0.80" />
<polyline points="72.29999999999927,90.8465 81.79999999999927,90.8465" fill="" stroke="#000000" stroke-width="0.80" />
<polyline points="72.29999999999927,95.8465 81.79999999999927,95.8465" fill="" stroke="#000000" stroke-width="0.80" />
<polyline points="72.29999999999927,100.846 81.79999999999927,100.846" fill="" stroke="#000000" stroke-width="0.80" />
<polyline points="72.29999999999927,105.846 81.79999999999927,105.846" fill="" stroke="#000000" stroke-width="0.80" />
<polyline points="72.29999999999927,110.846 81.79999999999927,110.846" fill="" stroke="#000000" stroke-width="0.80" />
<polyline points="72.29999999999927,38.3465 81.79999999999927,38.3465" fill="" stroke="#000000" stroke-width="0.80" />
<polyline points="72.29999999999927,43.3465 81.79999999999927,43.3465" fill="" stroke="#000000" stroke-width="0.80" />
<polyline points="72.29999999999927,48.3465 81.79999999999927,48.3465" fill="" stroke="#000000" stroke-width="0.80" />
<polyline points="72.29999999999927,53.3465 81.79999999999927,53.3465" fill="" stroke="#000000" stroke-width="0.80" />
<polyline points="72.29999999999927,58.3465 81.79999999999927,58.3465" fill="" stroke="#000000" stroke-width="0.80" />
<polyline points="41.79999999999927,193.346 51.400000000001455,193.346" fill="" stroke="#000000" stroke-width="0.80" />
<polyline points="41.79999999999927,60.8465 51.400000000001455,60.8465" fill="" stroke="#000000" stroke-width="0.80" />
<polyline points="41.79999999999927,65.8465 51.400000000001455,65.8465" fill="" stroke="#000000" stroke-width="0.80" />
<polyline points="41.79999999999927,70.8465 51.400000000001455,70.8465" fill="" stroke="#000000" stroke-width="0.80" />
<polyline points="41.79999999999927,75.8465 51.400000000001455,75.8465" fill="" stroke="#000000" stroke-width="0.80" />
<polyline points="41.79999999999927,80.8465 51.400000000001455,80.8465" fill="" stroke="#000000" stroke-width="0.80" />
<polyline points="41.79999999999927,85.8465 51.400000000001455,85.8465" fill="" stroke="#000000" stroke-width="0.80" />
<polyline points="41.79999999999927,90.8465 51.400000000001455,90.8465" fill="" stroke="#000000" stroke-width="0.80" />
<polyline points="41.79999999999927,95.8465 51.400000000001455,95.8465" fill="" stroke="#000000" stroke-width="0.80" />
<polyline points="41.79999999999927,100.846 51.400000000001455,100.846" fill="" stroke="#000000" stroke-width="0.80" />
<polyline points="41.79999999999927,105.846 51.400000000001455,105.846" fill="" stroke="#000000" stroke-width="0.80" />
<polyline points="41.79999999999927,110.846 51.400000000001455,110.846" fill="" stroke="#000000" stroke-width="0.80" />
<polyline points="41.79999999999927,38.3465 51.400000000001455,38.3465" fill="" stroke="#000000" stroke-width="0.80" />
<polyline points="41.79999999999927,43.3465 51.400000000001455,43.3465" fill="" stroke="#000000" stroke-width="0.80" />
<polyline points="41.79999999999927,48.3465 51.400000000001455,48.3465" fill="" stroke="#000000" stroke-width="0.80" />
<polyline points="41.79999999999927,53.3465 51.400000000001455,53.3465" fill="" stroke="#000000" stroke-width="0.80" />
<polyline points="41.79999999999927,58.3465 51.400000000001455,58.3465" fill="" stroke="#000000" stroke-width="0.80" />
<polyline points="11.400000000001455,193.346 20.900000000001455,193.346" fill="" stroke="#000000" stroke-width="0.80" />
<polyline points="11.400000000001455,60.8465 20.900000000001455,60.8465" fill="" stroke="#000000" stroke-width="0.80" />
<polyline points="11.400000000001455,65.8465 20.900000000001455,65.8465" fill="" stroke="#000000" stroke-width="0.80" />
<polyline points="11.400000000001455,70.8465 20.900000000001455,70.8465" fill="" stroke="#000000" stroke-width="0.80" />
<polyline points="11.400000000001455,75.8465 20.900000000001455,75.8465" fill="" stroke="#000000" stroke-width="0.80" />
<polyline points="11.400000000001455,80.8465 20.900000000001455,80.8465" fill="" stroke="#000000" stroke-width="0.80" />
<polyline points="11.400000000001455,85.8465 20.900000000001455,85.8465" fill="" stroke="#000000" stroke-width="0.80" />
<polyline points="11.400000000001455,90.8465 20.900000000001455,90.8465" fill="" stroke="#000000" stroke-width="0.80" />
<polyline points="11.400000000001455,95.8465 20.900000000001455,95.8465" fill="" stroke="#000000" stroke-width="0.80" />
<polyline points="11.400000000001455,100.846 20.900000000001455,100.846" fill="" stroke="#000000" stroke-width="0.80" />
<polyline points="11.400000000001455,105.846 20.900000000001455,105.846" fill="" stroke="#000000" stroke-width="0.80" />
<polyline points="11.400000000001455,110.846 20.900000000001455,110.846" fill="" stroke="#000000" stroke-width="0.80" />
<polyline points="11.400000000001455,38.3465 20.900000000001455,38.3465" fill="" stroke="#000000" stroke-width="0.80" />
<polyline points="11.400000000001455,43.3465 20.900000000001455,43.3465" fill="" stroke="#000000" stroke-width="0.80" />
<polyline points="11.400000000001455,48.3465 20.900000000001455,48.3465" fill="" stroke="#000000" stroke-width="0.80" />
<polyline points="11.400000000001455,53.3465 20.900000000001455,53.3465" fill="" stroke="#000000" stroke-width="0.80" />
<polyline points="11.400000000001455,58.3465 20.900000000001455,58.3465" fill="" stroke="#000000" stroke-width="0.80" />
<polyline points="141.20000000000073,56.8465 141.20000000000073,105.846" fill="" stroke="#000000" stroke-width="0.75" />
<polyline points="141.20000000000073,34.3465 141.20000000000073,53.3465" fill="" stroke="#000000" stroke-width="0.75" />
<polyline points="110.79999999999927,56.8465 110.79999999999927,105.846" fill="" stroke="#000000" stroke-width="0.75" />
<polyline points="110.79999999999927,34.3465 110.79999999999927,53.3465" fill="" stroke="#000000" stroke-width="0.75" />
<polyline points="80.29999999999927,56.8465 80.29999999999927,105.846" fill="" stroke="#000000" stroke-width="0.75" />
<polyline points="80.29999999999927,34.3465 80.29999999999927,53.3465" fill="" stroke="#000000" stroke-width="0.75" />
<polyline points="49.900000000001455,56.8465 49.900000000001455,105.846" fill="" stroke="#000000" stroke-width="0.75" />
<polyline points="49.900000000001455,34.3465 49.900000000001455,53.3465" fill="" stroke="#000000" stroke-width="0.75" />
<polyline points="19.400000000001455,56.8465 19.400000000001455,105.846" fill="" stroke="#000000" stroke-width="0.75" />
<polyline points="19.400000000001455,34.3465 19.400000000001455,53.3465" fill="" stroke="#000000" stroke-width="0.75" />
<polyline points="222.59999999999854,63.3465 255.0,63.3465" fill="none" stroke="#000000" stroke-width="0.40" />
<polyline points="222.59999999999854,68.3465 255.0,68.3465" fill="none" stroke="#000000" stroke-width="0.40" />
<polyline points="222.59999999999854,73.3465 255.0,73.3465" fill="none" stroke="#000000" stroke-width="0.40" />
<polyline points="222.59999999999854,78.3465 255.0,78.3465" fill="none" stroke="#000000" stroke-width="0.40" />
<polyline points="222.59999999999854,83.3465 255.0,83.3465" fill="none" stroke="#000000" stroke-width="0.40" />
<polyline points="222.59999999999854,115.846 255.0,115.846" fill="none" stroke="#000000" stroke-width="0.40" />
<polyline points="222.59999999999854,120.846 255.0,120.846" fill="none" stroke="#000000" stroke-width="0.40" />
<polyline points="222.59999999999854,125.846 255.0,125.846" fill="none" stroke="#000000" stroke-width="0.40" />
<polyline points="222.59999999999854,130.846 255.0,130.846" fill="none" stroke="#000000" stroke-width="0.40" />
<polyline points="222.59999999999854,135.846 255.0,135.846" fill="none" stroke="#000000" stroke-width="0.40" />
<polyline points="222.59999999999854,168.346 255.0,168.346" fill="none" stroke="#000000" stroke-width="0.40" />
<polyline points="222.59999999999854,173.346 255.0,173.346" fill="none" stroke="#000000" stroke-width="0.40" />
<polyline points="222.59999999999854,178.346 255.0,178.346" fill="none" stroke="#000000" stroke-width="0.40" />
<polyline points="222.59999999999854,183.346 255.0,183.346" fill="none" stroke="#000000" stroke-width="0.40" />
<polyline points="222.59999999999854,188.346 255.0,188.346" fill="none" stroke="#000000" stroke-width="0.40" />
<polyline points="222.59999999999854,220.846 255.0,220.846" fill="none" stroke="#000000" stroke-width="0.40" />
<polyline points="222.59999999999854,225.846 255.0,225.846" fill="none" stroke="#000000" stroke-width="0.40" />
<polyline points="222.59999999999854,230.846 255.0,230.846" fill="none" stroke="#000000" stroke-width="0.40" />
<polyline points="222.59999999999854,235.846 255.0,235.846" fill="none" stroke="#000000" stroke-width="0.40" />
<polyline points="222.59999999999854,240.846 255.0,240.846" fill="none" stroke="#000000" stroke-width="0.40" />
<polyline points="223.0,63.3465 223.0,255.0" fill="none" stroke="#000000" stroke-width="0.80" />
<polyline points="255.59999999999854,215.846 255.0,215.846" fill="none" stroke="#000000" stroke-width="0.80" />
<polyline points="255.59999999999854,193.346 255.0,193.346" fill="none" stroke="#000000" stroke-width="0.80" />
<polyline points="255.59999999999854,60.8465 255.0,60.8465" fill="none" stroke="#000000" stroke-width="0.80" />
<polyline points="255.59999999999854,65.8465 255.0,65.8465" fill="none" stroke="#000000" stroke-width="0.80" />
<polyline points="255.59999999999854,70.8465 255.0,70.8465" fill="none" stroke="#000000" stroke-width="0.80" />
<polyline points="255.59999999999854,75.8465 255.0,75.8465" fill="none" stroke="#000000" stroke-width="0.80" />
<polyline points="255.59999999999854,80.8465 255.0,80.8465" fill="none" stroke="#000000" stroke-width="0.80" />
<polyline points="255.59999999999854,85.8465 255.0,85.8465" fill="none" stroke="#000000" stroke-width="0.80" />
<polyline points="255.59999999999854,90.8465 255.0,90.8465" fill="none" stroke="#000000" stroke-width="0.80" />
<polyline points="255.59999999999854,95.8465 255.0,95.8465" fill="none" stroke="#000000" stroke-width="0.80" />
<polyline points="255.59999999999854,100.846 255.0,100.846" fill="none" stroke="#000000" stroke-width="0.80" />
<polyline points="255.59999999999854,105.846 255.0,105.846" fill="none" stroke="#000000" stroke-width="0.80" />
<polyline points="255.59999999999854,110.846 255.0,110.846" fill="none" stroke="#000000" stroke-width="0.80" />
<polyline points="255.59999999999854,38.3465 255.0,38.3465" fill="none" stroke="#000000" stroke-width="0.80" />
<polyline points="255.59999999999854,43.3465 255.0,43.3465" fill="none" stroke="#000000" stroke-width="0.80" />
<polyline points="255.59999999999854,48.3465 255.0,48.3465" fill="none" stroke="#000000" stroke-width="0.80" />
<polyline points="255.59999999999854,53.3465 255.0,53.3465" fill="none" stroke="#000000" stroke-width="0.80" />
<polyline points="255.59999999999854,58.3465 255.0,58.3465" fill="none" stroke="#000000" stroke-width="0.80" />
</svg>
