<?xml version="1.0" encoding="UTF-8" standalone="yes"?>
<svg width="256.0px" height="256.0px" xmlns="http://www.w3.org/2000/svg" xmlns:xlink="http://www.w3.org/1999/xlink" version="1.2" baseProfile="tiny">
<polyline points="0.0,17.346000000000004 255.0,17.346000000000004" fill="none" stroke="#000000" stroke-width="0.40" />
<polyline points="0.0,22.346000000000004 255.0,22.346000000000004" fill="none" stroke="#000000" stroke-width="0.40" />
<polyline points="0.0,27.346000000000004 255.0,27.346000000000004" fill="none" stroke="#000000" stroke-width="0.40" />
<polyline points="0.0,32.346000000000004 255.0,32.346000000000004" fill="none" stroke="#000000" stroke-width="0.40" />
<polyline points="0.0,37.346000000000004 255.0,37.346000000000004" fill="none" stroke="#000000" stroke-width="0.40" />
<polyline points="0.0,112.346 255.0,112.346" fill="none" stroke="#000000" stroke-width="0.40" />
<polyline points="0.0,117.346 255.0,117.346" fill="none" stroke="#000000" stroke-width="0.40" />
<polyline points="0.0,122.346 255.0,122.346" fill="none" stroke="#000000" stroke-width="0.40" />
<polyline points="0.0,127.346 255.0,127.346" fill="none" stroke="#000000" stroke-width="0.40" />
<polyline points="0.0,132.346 255.0,132.346" fill="none" stroke="#000000" stroke-width="0.40" />
<polyline points="0.0,164.846 255.0,164.846" fill="none" stroke="#000000" stroke-width="0.40" />
<polyline points="0.0,169.846 255.0,169.846" fill="none" stroke="#000000" stroke-width="0.40" />
<polyline points="0.0,174.846 255.0,174.846" fill="none" stroke="#000000" stroke-width="0.40" />
<polyline points="0.0,179.846 255.0,179.846" fill="none" stroke="#000000" stroke-width="0.40" />
<polyline points="0.0,184.846 255.0,184.846" fill="none" stroke="#000000" stroke-width="0.40" />
<polyline points="0.0,217.346 255.0,217.346" fill="none" stroke="#000000" stroke-width="0.40" />
<polyline points="0.0,222.346 255.0,222.346" fill="none" stroke="#000000" stroke-width="0.40" />
<polyline points="0.0,227.346 255.0,227.346" fill="none" stroke="#000000" stroke-width="0.40" />
<polyline points="0.0,232.346 255.0,232.346" fill="none" stroke="#000000" stroke-width="0.40" />
<polyline points="0.0,237.346 255.0,237.346" fill="none" stroke="#000000" stroke-width="0.40" />
<polyline points="222.40000000000146,243.971 215.90000000000146,247.971" fill="" stroke="#000000" stroke-width="0.65" />
<polyline points="159.29999999999927,243.971 152.79999999999927,247.971" fill="" stroke="#000000" stroke-width="0.65" />
<polyline points="218.29999999999927,254.18900000000002 218.29999999999927,239.971" fill="" stroke="#000000" stroke-width="0.65" />
<polyline points="232.29999999999927,255.786 232.29999999999927,255.0" fill="" stroke="#000000" stroke-width="0.65" />
<polyline points="238.20000000000073,247.86200000000002 238.20000000000073,212.346" fill="" stroke="#000000" stroke-width="0.65" />
<polyline points="232.29999999999927,110.786 232.29999999999927,173.596" fill="" stroke="#000000" stroke-width="0.65" />
<polyline points="232.29999999999927,88.286 232.29999999999927,121.096" fill="" stroke="#000000" stroke-width="0.65" />
<polyline points="206.70000000000073,247.86200000000002 206.70000000000073,212.346" fill="" stroke="#000000" stroke-width="0.65" />
<polyline points="200.79999999999927,110.786 200.79999999999927,173.596" fill="" stroke="#000000" stroke-width="0.65" />
<polyline points="200.79999999999927,88.286 200.79999999999927,121.096" fill="" stroke="#000000" stroke-width="0.65" />
<polyline points="155.20000000000073,254.18900000000002 155.20000000000073,239.971" fill="" stroke="#000000" stroke-width="0.65" />
<polyline points="169.20000000000073,255.786 169.20000000000073,255.0" fill="" stroke="#000000" stroke-width="0.65" />
<polyline points="175.20000000000073,247.86200000000002 175.20000000000073,212.346" fill="" stroke="#000000" stroke-width="0.65" />
<polyline points="169.20000000000073,110.786 169.20000000000073,173.596" fill="" stroke="#000000" stroke-width="0.65" />
<polyline points="169.20000000000073,88.286 169.20000000000073,121.096" fill="" stroke="#000000" stroke-width="0.65" />
<polyline points="143.59999999999854,240.36200000000002 143.59999999999854,208.596" fill="" stroke="#000000" stroke-width="0.65" />
<polyline points="137.70000000000073,110.786 137.70000000000073,173.596" fill="" stroke="#000000" stroke-width="0.65" />
<polyline points="137.70000000000073,88.286 137.70000000000073,121.096" fill="" stroke="#000000" stroke-width="0.65" />
<polyline points="112.09999999999854,240.36200000000002 112.09999999999854,208.596" fill="" stroke="#000000" stroke-width="0.65" />
<polyline points="106.20000000000073,110.786 106.20000000000073,173.596" fill="" stroke="#000000" stroke-width="0.65" />
<polyline points="106.20000000000073,88.286 106.20000000000073,121.096" fill="" stroke="#000000" stroke-width="0.65" />
<polyline points="74.59999999999854,110.786 74.59999999999854,173.596" fill="" stroke="#000000" stroke-width="0.65" />
<polyline points="74.59999999999854,88.286 74.59999999999854,121.096" fill="" stroke="#000000" stroke-width="0.65" />
<polyline points="49.0,241.40699999999998 49.0,208.596" fill="" stroke="#000000" stroke-width="0.65" />
<polyline points="43.099999999998545,110.786 43.099999999998545,173.596" fill="" stroke="#000000" stroke-width="0.65" />
<polyline points="43.099999999998545,88.286 43.099999999998545,121.096" fill="" stroke="#000000" stroke-width="0.65" />
<polyline points="11.599999999998545,110.786 11.599999999998545,173.596" fill="" stroke="#000000" stroke-width="0.65" />
<polyline points="11.599999999998545,88.286 11.599999999998545,121.096" fill="" stroke="#000000" stroke-width="0.65" />
<polyline points="238.29999999999927,16.910000000000025 238.29999999999927,48.596000000000004" fill="" stroke="#000000" stroke-width="0.65" />
<polyline points="177.40000000000146,16.910000000000025 177.40000000000146,51.096000000000004" fill="" stroke="#000000" stroke-width="0.65" />
<polyline points="147.40000000000146,25.786 147.40000000000146,41.096000000000004" fill="" stroke="#000000" stroke-width="0.65" />
<polyline points="116.5,16.910000000000025 116.5,41.096000000000004" fill="" stroke="#000000" stroke-width="0.65" />
<polyline points="55.599999999998545,16.910000000000025 55.599999999998545,41.096000000000004" fill="" stroke="#000000" stroke-width="0.65" />
<polyline points="212.5,254.846 220.09999999999854,254.846" fill="" stroke="#000000" stroke-width="0.56" />
<polyline points="230.5,254.846 240.0,254.846" fill="" stroke="#000000" stroke-width="0.80" />
<polyline points="230.5,242.346 240.0,242.346" fill="" stroke="#000000" stroke-width="0.80" />
<polyline points="230.5,247.346 240.0,247.346" fill="" stroke="#000000" stroke-width="0.80" />
<polyline points="230.5,109.846 240.0,109.846" fill="" stroke="#000000" stroke-width="0.80" />
<polyline points="230.5,114.846 240.0,114.846" fill="" stroke="#000000" stroke-width="0.80" />
<polyline points="230.5,119.846 240.0,119.846" fill="" stroke="#000000" stroke-width="0.80" />
<polyline points="230.5,124.846 240.0,124.846" fill="" stroke="#000000" stroke-width="0.80" />
<polyline points="230.5,129.846 240.0,129.846" fill="" stroke="#000000" stroke-width="0.80" />
<polyline points="230.5,134.846 240.0,134.846" fill="" stroke="#000000" stroke-width="0.80" />
<polyline points="230.5,139.846 240.0,139.846" fill="" stroke="#000000" stroke-width="0.80" />
<polyline points="230.5,144.846 240.0,144.846" fill="" stroke="#000000" stroke-width="0.80" />
<polyline points="230.5,149.846 240.0,149.846" fill="" stroke="#000000" stroke-width="0.80" />
<polyline points="230.5,154.846 240.0,154.846" fill="" stroke="#000000" stroke-width="0.80" />
<polyline points="230.5,159.846 240.0,159.846" fill="" stroke="#000000" stroke-width="0.80" />
<polyline points="230.5,87.346 240.0,87.346" fill="" stroke="#000000" stroke-width="0.80" />
<polyline points="230.5,92.346 240.0,92.346" fill="" stroke="#000000" stroke-width="0.80" />
<polyline points="230.5,97.346 240.0,97.346" fill="" stroke="#000000" stroke-width="0.80" />
<polyline points="230.5,102.346 240.0,102.346" fill="" stroke="#000000" stroke-width="0.80" />
<polyline points="230.5,107.346 240.0,107.346" fill="" stroke="#000000" stroke-width="0.80" />
<polyline points="198.90000000000146,242.346 208.5,242.346" fill="" stroke="#000000" stroke-width="0.80" />
<polyline points="198.90000000000146,247.346 208.5,247.346" fill="" stroke="#000000" stroke-width="0.80" />
<polyline points="198.90000000000146,109.846 208.5,109.846" fill="" stroke="#000000" stroke-width="0.80" />
<polyline points="198.90000000000146,114.846 208.5,114.846" fill="" stroke="#000000" stroke-width="0.80" />
<polyline points="198.90000000000146,119.846 208.5,119.846" fill="" stroke="#000000" stroke-width="0.80" />
<polyline points="198.90000000000146,124.846 208.5,124.846" fill="" stroke="#000000" stroke-width="0.80" />
<polyline points="198.90000000000146,129.846 208.5,129.846" fill="" stroke="#000000" stroke-width="0.80" />
<polyline points="198.90000000000146,134.846 208.5,134.846" fill="" stroke="#000000" stroke-width="0.80" />
<polyline points="198.90000000000146,139.846 208.5,139.846" fill="" stroke="#000000" stroke-width="0.80" />
<polyline points="198.90000000000146,144.846 208.5,144.846" fill="" stroke="#000000" stroke-width="0.80" />
<polyline points="198.90000000000146,149.846 208.5,149.846" fill="" stroke="#000000" stroke-width="0.80" />
<polyline points="198.90000000000146,154.846 208.5,154.846" fill="" stroke="#000000" stroke-width="0.80" />
<polyline points="198.90000000000146,159.846 208.5,159.846" fill="" stroke="#000000" stroke-width="0.80" />
<polyline points="198.90000000000146,87.346 208.5,87.346" fill="" stroke="#000000" stroke-width="0.80" />
<polyline points="198.90000000000146,92.346 208.5,92.346" fill="" stroke="#000000" stroke-width="0.80" />
<polyline points="198.90000000000146,97.346 208.5,97.346" fill="" stroke="#000000" stroke-width="0.80" />
<polyline points="198.90000000000146,102.346 208.5,102.346" fill="" stroke="#000000" stroke-width="0.80" />
<polyline points="198.90000000000146,107.346 208.5,107.346" fill="" stroke="#000000" stroke-width="0.80" />
<polyline points="149.5,254.846 157.09999999999854,254.846" fill="" stroke="#000000" stroke-width="0.56" />
<polyline points="167.40000000000146,254.846 177.0,254.846" fill="" stroke="#000000" stroke-width="0.80" />
<polyline points="167.40000000000146,242.346 177.0,242.346" fill="" stroke="#000000" stroke-width="0.80" />
<polyline points="167.40000000000146,247.346 177.0,247.346" fill="" stroke="#000000" stroke-width="0.80" />
<polyline points="167.40000000000146,109.846 177.0,109.846" fill="" stroke="#000000" stroke-width="0.80" />
<polyline points="167.40000000000146,114.846 177.0,114.846" fill="" stroke="#000000" stroke-width="0.80" />
<polyline points="167.40000000000146,119.846 177.0,119.846" fill="" stroke="#000000" stroke-width="0.80" />
<polyline points="167.40000000000146,124.846 177.0,124.846" fill="" stroke="#000000" stroke-width="0.80" />
<polyline points="167.40000000000146,129.846 177.0,129.846" fill="" stroke="#000000" stroke-width="0.80" />
<polyline points="167.40000000000146,134.846 177.0,134.846" fill="" stroke="#000000" stroke-width="0.80" />
<polyline points="167.40000000000146,139.846 177.0,139.846" fill="" stroke="#000000" stroke-width="0.80" />
<polyline points="167.40000000000146,144.846 177.0,144.846" fill="" stroke="#000000" stroke-width="0.80" />
<polyline points="167.40000000000146,149.846 177.0,149.846" fill="" stroke="#000000" stroke-width="0.80" />
<polyline points="167.40000000000146,154.846 177.0,154.846" fill="" stroke="#000000" stroke-width="0.80" />
<polyline points="167.40000000000146,159.846 177.0,159.846" fill="" stroke="#000000" stroke-width="0.80" />
<polyline points="167.40000000000146,87.346 177.0,87.346" fill="" stroke="#000000" stroke-width="0.80" />
<polyline points="167.40000000000146,92.346 177.0,92.346" fill="" stroke="#000000" stroke-width="0.80" />
<polyline points="167.40000000000146,97.346 177.0,97.346" fill="" stroke="#000000" stroke-width="0.80" />
<polyline points="167.40000000000146,102.346 177.0,102.346" fill="" stroke="#000000" stroke-width="0.80" />
<polyline points="167.40000000000146,107.346 177.0,107.346" fill="" stroke="#000000" stroke-width="0.80" />
<polyline points="135.90000000000146,242.346 145.5,242.346" fill="" stroke="#000000" stroke-width="0.80" />
<polyline points="135.90000000000146,109.846 145.5,109.846" fill="" stroke="#000000" stroke-width="0.80" />
<polyline points="135.90000000000146,114.846 145.5,114.846" fill="" stroke="#000000" stroke-width="0.80" />
<polyline points="135.90000000000146,119.846 145.5,119.846" fill="" stroke="#000000" stroke-width="0.80" />
<polyline points="135.90000000000146,124.846 145.5,124.846" fill="" stroke="#000000" stroke-width="0.80" />
<polyline points="135.90000000000146,129.846 145.5,129.846" fill="" stroke="#000000" stroke-width="0.80" />
<polyline points="135.90000000000146,134.846 145.5,134.846" fill="" stroke="#000000" stroke-width="0.80" />
<polyline points="135.90000000000146,139.846 145.5,139.846" fill="" stroke="#000000" stroke-width="0.80" />
<polyline points="135.90000000000146,144.846 145.5,144.846" fill="" stroke="#000000" stroke-width="0.80" />
<polyline points="135.90000000000146,149.846 145.5,149.846" fill="" stroke="#000000" stroke-width="0.80" />
<polyline points="135.90000000000146,154.846 145.5,154.846" fill="" stroke="#000000" stroke-width="0.80" />
<polyline points="135.90000000000146,159.846 145.5,159.846" fill="" stroke="#000000" stroke-width="0.80" />
<polyline points="135.90000000000146,87.346 145.5,87.346" fill="" stroke="#000000" stroke-width="0.80" />
<polyline points="135.90000000000146,92.346 145.5,92.346" fill="" stroke="#000000" stroke-width="0.80" />
<polyline points="135.90000000000146,97.346 145.5,97.346" fill="" stroke="#000000" stroke-width="0.80" />
<polyline points="135.90000000000146,102.346 145.5,102.346" fill="" stroke="#000000" stroke-width="0.80" />
<polyline points="135.90000000000146,107.346 145.5,107.346" fill="" stroke="#000000" stroke-width="0.80" />
<polyline points="104.29999999999927,242.346 113.90000000000146,242.346" fill="" stroke="#000000" stroke-width="0.80" />
<polyline points="104.29999999999927,109.846 113.90000000000146,109.846" fill="" stroke="#000000" stroke-width="0.80" />
<polyline points="104.29999999999927,114.846 113.90000000000146,114.846" fill="" stroke="#000000" stroke-width="0.80" />
<polyline points="104.29999999999927,119.846 113.90000000000146,119.846" fill="" stroke="#000000" stroke-width="0.80" />
<polyline points="104.29999999999927,124.846 113.90000000000146,124.846" fill="" stroke="#000000" stroke-width="0.80" />
<polyline points="104.29999999999927,129.846 113.90000000000146,129.846" fill="" stroke="#000000" stroke-width="0.80" />
<polyline points="104.29999999999927,134.846 113.90000000000146,134.846" fill="" stroke="#000000" stroke-width="0.80" />
<polyline points="104.29999999999927,139.846 113.90000000000146,139.846" fill="" stroke="#000000" stroke-width="0.80" />
<polyline points="104.29999999999927,144.846 113.90000000000146,144.846" fill="" stroke="#000000" stroke-width="0.80" />
<polyline points="104.29999999999927,149.846 113.90000000000146,149.846" fill="" stroke="#000000" stroke-width="0.80" />
<polyline points="104.29999999999927,154.846 113.90000000000146,154.846" fill="" stroke="#000000" stroke-width="0.80" />
<polyline points="104.29999999999927,159.846 113.90000000000146,159.846" fill="" stroke="#000000" stroke-width="0.80" />
<polyline points="104.29999999999927,87.346 113.90000000000146,87.346" fill="" stroke="#000000" stroke-width="0.80" />
<polyline points="104.29999999999927,92.346 113.90000000000146,92.346" fill="" stroke="#000000" stroke-width="0.80" />
<polyline points="104.29999999999927,97.346 113.90000000000146,97.346" fill="" stroke="#000000" stroke-width="0.80" />
<polyline points="104.29999999999927,102.346 113.90000000000146,102.346" fill="" stroke="#000000" stroke-width="0.80" />
<polyline points="104.29999999999927,107.346 113.90000000000146,107.346" fill="" stroke="#000000" stroke-width="0.80" />
<polyline points="72.79999999999927,109.846 82.40000000000146,109.846" fill="" stroke="#000000" stroke-width="0.80" />
<polyline points="72.79999999999927,114.846 82.40000000000146,114.846" fill="" stroke="#000000" stroke-width="0.80" />
<polyline points="72.79999999999927,119.846 82.40000000000146,119.846" fill="" stroke="#000000" stroke-width="0.80" />
<polyline points="72.79999999999927,124.846 82.40000000000146,124.846" fill="" stroke="#000000" stroke-width="0.80" />
<polyline points="72.79999999999927,129.846 82.40000000000146,129.846" fill="" stroke="#000000" stroke-width="0.80" />
<polyline points="72.79999999999927,134.846 82.40000000000146,134.846" fill="" stroke="#000000" stroke-width="0.80" />
<polyline points="72.79999999999927,139.846 82.40000000000146,139.846" fill="" stroke="#000000" stroke-width="0.80" />
<polyline points="72.79999999999927,144.846 82.40000000000146,144.846" fill="" stroke="#000000" stroke-width="0.80" />
<polyline points="72.79999999999927,149.846 82.40000000000146,149.846" fill="" stroke="#000000" stroke-width="0.80" />
<polyline points="72.79999999999927,154.846 82.40000000000146,154.846" fill="" stroke="#000000" stroke-width="0.80" />
<polyline points="72.79999999999927,159.846 82.40000000000146,159.846" fill="" stroke="#000000" stroke-width="0.80" />
<polyline points="72.79999999999927,87.346 82.40000000000146,87.346" fill="" stroke="#000000" stroke-width="0.80" />
<polyline points="72.79999999999927,92.346 82.40000000000146,92.346" fill="" stroke="#000000" stroke-width="0.80" />
<polyline points="72.79999999999927,97.346 82.40000000000146,97.346" fill="" stroke="#000000" stroke-width="0.80" />
<polyline points="72.79999999999927,102.346 82.40000000000146,102.346" fill="" stroke="#000000" stroke-width="0.80" />
<polyline points="72.79999999999927,107.346 82.40000000000146,107.346" fill="" stroke="#000000" stroke-width="0.80" />
<polyline points="41.29999999999927,242.346 50.900000000001455,242.346" fill="" stroke="#000000" stroke-width="0.80" />
<polyline points="41.29999999999927,109.846 50.900000000001455,109.846" fill="" stroke="#000000" stroke-width="0.80" />
<polyline points="41.29999999999927,114.846 50.900000000001455,114.846" fill="" stroke="#000000" stroke-width="0.80" />
<polyline points="41.29999999999927,119.846 50.900000000001455,119.846" fill="" stroke="#000000" stroke-width="0.80" />
<polyline points="41.29999999999927,124.846 50.900000000001455,124.846" fill="" stroke="#000000" stroke-width="0.80" />
<polyline points="41.29999999999927,129.846 50.900000000001455,129.846" fill="" stroke="#000000" stroke-width="0.80" />
<polyline points="41.29999999999927,134.846 50.900000000001455,134.846" fill="" stroke="#000000" stroke-width="0.80" />
<polyline points="41.29999999999927,139.846 50.900000000001455,139.846" fill="" stroke="#000000" stroke-width="0.80" />
<polyline points="41.29999999999927,144.846 50.900000000001455,144.846" fill="" stroke="#000000" stroke-width="0.80" />
<polyline points="41.29999999999927,149.846 50.900000000001455,149.846" fill="" stroke="#000000" stroke-width="0.80" />
<polyline points="41.29999999999927,154.846 50.900000000001455,154.846" fill="" stroke="#000000" stroke-width="0.80" />
<polyline points="41.29999999999927,159.846 50.900000000001455,159.846" fill="" stroke="#000000" stroke-width="0.80" />
<polyline points="41.29999999999927,87.346 50.900000000001455,87.346" fill="" stroke="#000000" stroke-width="0.80" />
<polyline points="41.29999999999927,92.346 50.900000000001455,92.346" fill="" stroke="#000000" stroke-width="0.80" />
<polyline points="41.29999999999927,97.346 50.900000000001455,97.346" fill="" stroke="#000000" stroke-width="0.80" />
<polyline points="41.29999999999927,102.346 50.900000000001455,102.346" fill="" stroke="#000000" stroke-width="0.80" />
<polyline points="41.29999999999927,107.346 50.900000000001455,107.346" fill="" stroke="#000000" stroke-width="0.80" />
<polyline points="9.799999999999272,109.846 19.299999999999272,109.846" fill="" stroke="#000000" stroke-width="0.80" />
<polyline points="9.799999999999272,114.846 19.299999999999272,114.846" fill="" stroke="#000000" stroke-width="0.80" />
<polyline points="9.799999999999272,119.846 19.299999999999272,119.846" fill="" stroke="#000000" stroke-width="0.80" />
<polyline points="9.799999999999272,124.846 19.299999999999272,124.846" fill="" stroke="#000000" stroke-width="0.80" />
<polyline points="9.799999999999272,129.846 19.299999999999272,129.846" fill="" stroke="#000000" stroke-width="0.80" />
<polyline points="9.799999999999272,134.846 19.299999999999272,134.846" fill="" stroke="#000000" stroke-width="0.80" />
<polyline points="9.799999999999272,139.846 19.299999999999272,139.846" fill="" stroke="#000000" stroke-width="0.80" />
<polyline points="9.799999999999272,144.846 19.299999999999272,144.846" fill="" stroke="#000000" stroke-width="0.80" />
<polyline points="9.799999999999272,149.846 19.299999999999272,149.846" fill="" stroke="#000000" stroke-width="0.80" />
<polyline points="9.799999999999272,154.846 19.299999999999272,154.846" fill="" stroke="#000000" stroke-width="0.80" />
<polyline points="9.799999999999272,159.846 19.299999999999272,159.846" fill="" stroke="#000000" stroke-width="0.80" />
<polyline points="9.799999999999272,87.346 19.299999999999272,87.346" fill="" stroke="#000000" stroke-width="0.80" />
<polyline points="9.799999999999272,92.346 19.299999999999272,92.346" fill="" stroke="#000000" stroke-width="0.80" />
<polyline points="9.799999999999272,97.346 19.299999999999272,97.346" fill="" stroke="#000000" stroke-width="0.80" />
<polyline points="9.799999999999272,102.346 19.299999999999272,102.346" fill="" stroke="#000000" stroke-width="0.80" />
<polyline points="9.799999999999272,107.346 19.299999999999272,107.346" fill="" stroke="#000000" stroke-width="0.80" />
<polyline points="238.5,105.846 238.5,154.846" fill="" stroke="#000000" stroke-width="0.75" />
<polyline points="238.5,83.346 238.5,102.346" fill="" stroke="#000000" stroke-width="0.75" />
<polyline points="207.0,105.846 207.0,154.846" fill="" stroke="#000000" stroke-width="0.75" />
<polyline points="207.0,83.346 207.0,102.346" fill="" stroke="#000000" stroke-width="0.75" />
<polyline points="175.5,105.846 175.5,154.846" fill="" stroke="#000000" stroke-width="0.75" />
<polyline points="175.5,83.346 175.5,102.346" fill="" stroke="#000000" stroke-width="0.75" />
<polyline points="144.0,105.846 144.0,154.846" fill="" stroke="#000000" stroke-width="0.75" />
<polyline points="144.0,83.346 144.0,102.346" fill="" stroke="#000000" stroke-width="0.75" />
<polyline points="112.40000000000146,105.846 112.40000000000146,154.846" fill="" stroke="#000000" stroke-width="0.75" />
<polyline points="112.40000000000146,83.346 112.40000000000146,102.346" fill="" stroke="#000000" stroke-width="0.75" />
<polyline points="80.90000000000146,105.846 80.90000000000146,154.846" fill="" stroke="#000000" stroke-width="0.75" />
<polyline points="80.90000000000146,83.346 80.90000000000146,102.346" fill="" stroke="#000000" stroke-width="0.75" />
<polyline points="49.400000000001455,105.846 49.400000000001455,154.846" fill="" stroke="#000000" stroke-width="0.75" />
<polyline points="49.400000000001455,83.346 49.400000000001455,102.346" fill="" stroke="#000000" stroke-width="0.75" />
<polyline points="17.799999999999272,105.846 17.799999999999272,154.846" fill="" stroke="#000000" stroke-width="0.75" />
<polyline points="17.799999999999272,83.346 17.799999999999272,102.346" fill="" stroke="#000000" stroke-width="0.75" />
</svg>
