<?xml version="1.0" encoding="UTF-8" standalone="yes"?>
<svg width="256.0px" height="256.0px" xmlns="http://www.w3.org/2000/svg" xmlns:xlink="http://www.w3.org/1999/xlink" version="1.2" baseProfile="tiny">
<polyline points="0.0,63.3465 255.0,63.3465" fill="none" stroke="#000000" stroke-width="0.40" />
<polyline points="0.0,68.3465 255.0,68.3465" fill="none" stroke="#000000" stroke-width="0.40" />
<polyline points="0.0,73.3465 255.0,73.3465" fill="none" stroke="#000000" stroke-width="0.40" />
<polyline points="0.0,78.3465 255.0,78.3465" fill="none" stroke="#000000" stroke-width="0.40" />
<polyline points="0.0,83.3465 255.0,83.3465" fill="none" stroke="#000000" stroke-width="0.40" />
<polyline points="0.0,115.846 255.0,115.846" fill="none" stroke="#000000" stroke-width="0.40" />
<polyline points="0.0,120.846 255.0,120.846" fill="none" stroke="#000000" stroke-width="0.40" />
<polyline points="0.0,125.846 255.0,125.846" fill="none" stroke="#000000" stroke-width="0.40" />
<polyline points="0.0,130.846 255.0,130.846" fill="none" stroke="#000000" stroke-width="0.40" />
<polyline points="0.0,135.846 255.0,135.846" fill="none" stroke="#000000" stroke-width="0.40" />
<polyline points="0.0,168.346 255.0,168.346" fill="none" stroke="#000000" stroke-width="0.40" />
<polyline points="0.0,173.346 255.0,173.346" fill="none" stroke="#000000" stroke-width="0.40" />
<polyline points="0.0,178.346 255.0,178.346" fill="none" stroke="#000000" stroke-width="0.40" />
<polyline points="0.0,183.346 255.0,183.346" fill="none" stroke="#000000" stroke-width="0.40" />
<polyline points="0.0,188.346 255.0,188.346" fill="none" stroke="#000000" stroke-width="0.40" />
<polyline points="0.0,220.846 255.0,220.846" fill="none" stroke="#000000" stroke-width="0.40" />
<polyline points="0.0,225.846 255.0,225.846" fill="none" stroke="#000000" stroke-width="0.40" />
<polyline points="0.0,230.846 255.0,230.846" fill="none" stroke="#000000" stroke-width="0.40" />
<polyline points="0.0,235.846 255.0,235.846" fill="none" stroke="#000000" stroke-width="0.40" />
<polyline points="0.0,240.846 255.0,240.846" fill="none" stroke="#000000" stroke-width="0.40" />
<polyline points="253.09999999999854,224.286 253.09999999999854,239.596" fill="none" stroke="#000000" stroke-width="0.65" />
<polyline points="253.09999999999854,61.7855 253.09999999999854,124.596" fill="none" stroke="#000000" stroke-width="0.65" />
<polyline points="253.09999999999854,39.2855 253.09999999999854,72.0965" fill="none" stroke="#000000" stroke-width="0.65" />
<polyline points="227.5,222.407 227.5,207.096" fill="none" stroke="#000000" stroke-width="0.65" />
<polyline points="227.5,192.407 227.5,154.596" fill="none" stroke="#000000" stroke-width="0.65" />
<polyline points="221.59999999999854,61.7855 221.59999999999854,124.596" fill="none" stroke="#000000" stroke-width="0.65" />
<polyline points="221.59999999999854,39.2855 221.59999999999854,72.0965" fill="none" stroke="#000000" stroke-width="0.65" />
<polyline points="196.09999999999854,222.407 196.09999999999854,207.096" fill="none" stroke="#000000" stroke-width="0.65" />
<polyline points="196.09999999999854,192.407 196.09999999999854,154.596" fill="none" stroke="#000000" stroke-width="0.65" />
<polyline points="190.20000000000073,61.7855 190.20000000000073,124.596" fill="none" stroke="#000000" stroke-width="0.65" />
<polyline points="190.20000000000073,39.2855 190.20000000000073,72.0965" fill="none" stroke="#000000" stroke-width="0.65" />
<polyline points="164.59999999999854,239.907 164.59999999999854,207.096" fill="none" stroke="#000000" stroke-width="0.65" />
<polyline points="158.70000000000073,61.7855 158.70000000000073,124.596" fill="none" stroke="#000000" stroke-width="0.65" />
<polyline points="158.70000000000073,39.2855 158.70000000000073,72.0965" fill="none" stroke="#000000" stroke-width="0.65" />
<polyline points="133.20000000000073,192.407 133.20000000000073,154.596" fill="none" stroke="#000000" stroke-width="0.65" />
<polyline points="127.20000000000073,61.7855 127.20000000000073,124.596" fill="none" stroke="#000000" stroke-width="0.65" />
<polyline points="127.20000000000073,39.2855 127.20000000000073,72.0965" fill="none" stroke="#000000" stroke-width="0.65" />
<polyline points="95.79999999999927,61.7855 95.79999999999927,124.596" fill="none" stroke="#000000" stroke-width="0.65" />
<polyline points="95.79999999999927,39.2855 95.79999999999927,72.0965" fill="none" stroke="#000000" stroke-width="0.65" />
<polyline points="64.29999999999927,216.786 64.29999999999927,230.846" fill="none" stroke="#000000" stroke-width="0.65" />
<polyline points="64.29999999999927,61.7855 64.29999999999927,124.596" fill="none" stroke="#000000" stroke-width="0.65" />
<polyline points="64.29999999999927,39.2855 64.29999999999927,72.0965" fill="none" stroke="#000000" stroke-width="0.65" />
<polyline points="32.900000000001455,61.7855 32.900000000001455,124.596" fill="none" stroke="#000000" stroke-width="0.65" />
<polyline points="32.900000000001455,39.2855 32.900000000001455,72.0965" fill="none" stroke="#000000" stroke-width="0.65" />
<polyline points="1.4000000000014552,216.786 1.4000000000014552,230.846" fill="none" stroke="#000000" stroke-width="0.65" />
<polyline points="7.299999999999272,192.407 7.299999999999272,157.096" fill="none" stroke="#000000" stroke-width="0.65" />
<polyline points="1.4000000000014552,61.7855 1.4000000000014552,124.596" fill="none" stroke="#000000" stroke-width="0.65" />
<polyline points="1.4000000000014552,39.2855 1.4000000000014552,72.0965" fill="none" stroke="#000000" stroke-width="0.65" />
<polyline points="251.20000000000073,60.8465 255.0,60.8465" fill="none" stroke="#000000" stroke-width="0.80" />
<polyline points="251.20000000000073,65.8465 255.0,65.8465" fill="none" stroke="#000000" stroke-width="0.80" />
<polyline points="251.20000000000073,70.8465 255.0,70.8465" fill="none" stroke="#000000" stroke-width="0.80" />
<polyline points="251.20000000000073,75.8465 255.0,75.8465" fill="none" stroke="#000000" stroke-width="0.80" />
<polyline points="251.20000000000073,80.8465 255.0,80.8465" fill="none" stroke="#000000" stroke-width="0.80" />
<polyline points="251.20000000000073,85.8465 255.0,85.8465" fill="none" stroke="#000000" stroke-width="0.80" />
<polyline points="251.20000000000073,90.8465 255.0,90.8465" fill="none" stroke="#000000" stroke-width="0.80" />
<polyline points="251.20000000000073,95.8465 255.0,95.8465" fill="none" stroke="#000000" stroke-width="0.80" />
<polyline points="251.20000000000073,100.846 255.0,100.846" fill="none" stroke="#000000" stroke-width="0.80" />
<polyline points="251.20000000000073,105.846 255.0,105.846" fill="none" stroke="#000000" stroke-width="0.80" />
<polyline points="251.20000000000073,110.846 255.0,110.846" fill="none" stroke="#000000" stroke-width="0.80" />
<polyline points="251.20000000000073,38.3465 255.0,38.3465" fill="none" stroke="#000000" stroke-width="0.80" />
<polyline points="251.20000000000073,43.3465 255.0,43.3465" fill="none" stroke="#000000" stroke-width="0.80" />
<polyline points="251.20000000000073,48.3465 255.0,48.3465" fill="none" stroke="#000000" stroke-width="0.80" />
<polyline points="251.20000000000073,53.3465 255.0,53.3465" fill="none" stroke="#000000" stroke-width="0.80" />
<polyline points="251.20000000000073,58.3465 255.0,58.3465" fill="none" stroke="#000000" stroke-width="0.80" />
<polyline points="219.79999999999927,193.346 229.40000000000146,193.346" fill="none" stroke="#000000" stroke-width="0.80" />
<polyline points="219.79999999999927,60.8465 229.40000000000146,60.8465" fill="none" stroke="#000000" stroke-width="0.80" />
<polyline points="219.79999999999927,65.8465 229.40000000000146,65.8465" fill="none" stroke="#000000" stroke-width="0.80" />
<polyline points="219.79999999999927,70.8465 229.40000000000146,70.8465" fill="none" stroke="#000000" stroke-width="0.80" />
<polyline points="219.79999999999927,75.8465 229.40000000000146,75.8465" fill="none" stroke="#000000" stroke-width="0.80" />
<polyline points="219.79999999999927,80.8465 229.40000000000146,80.8465" fill="none" stroke="#000000" stroke-width="0.80" />
<polyline points="219.79999999999927,85.8465 229.40000000000146,85.8465" fill="none" stroke="#000000" stroke-width="0.80" />
<polyline points="219.79999999999927,90.8465 229.40000000000146,90.8465" fill="none" stroke="#000000" stroke-width="0.80" />
<polyline points="219.79999999999927,95.8465 229.40000000000146,95.8465" fill="none" stroke="#000000" stroke-width="0.80" />
<polyline points="219.79999999999927,100.846 229.40000000000146,100.846" fill="none" stroke="#000000" stroke-width="0.80" />
<polyline points="219.79999999999927,105.846 229.40000000000146,105.846" fill="none" stroke="#000000" stroke-width="0.80" />
<polyline points="219.79999999999927,110.846 229.40000000000146,110.846" fill="none" stroke="#000000" stroke-width="0.80" />
<polyline points="219.79999999999927,38.3465 229.40000000000146,38.3465" fill="none" stroke="#000000" stroke-width="0.80" />
<polyline points="219.79999999999927,43.3465 229.40000000000146,43.3465" fill="none" stroke="#000000" stroke-width="0.80" />
<polyline points="219.79999999999927,48.3465 229.40000000000146,48.3465" fill="none" stroke="#000000" stroke-width="0.80" />
<polyline points="219.79999999999927,53.3465 229.40000000000146,53.3465" fill="none" stroke="#000000" stroke-width="0.80" />
<polyline points="219.79999999999927,58.3465 229.40000000000146,58.3465" fill="none" stroke="#000000" stroke-width="0.80" />
<polyline points="188.29999999999927,193.346 197.90000000000146,193.346" fill="none" stroke="#000000" stroke-width="0.80" />
<polyline points="188.29999999999927,60.8465 197.90000000000146,60.8465" fill="none" stroke="#000000" stroke-width="0.80" />
<polyline points="188.29999999999927,65.8465 197.90000000000146,65.8465" fill="none" stroke="#000000" stroke-width="0.80" />
<polyline points="188.29999999999927,70.8465 197.90000000000146,70.8465" fill="none" stroke="#000000" stroke-width="0.80" />
<polyline points="188.29999999999927,75.8465 197.90000000000146,75.8465" fill="none" stroke="#000000" stroke-width="0.80" />
<polyline points="188.29999999999927,80.8465 197.90000000000146,80.8465" fill="none" stroke="#000000" stroke-width="0.80" />
<polyline points="188.29999999999927,85.8465 197.90000000000146,85.8465" fill="none" stroke="#000000" stroke-width="0.80" />
<polyline points="188.29999999999927,90.8465 197.90000000000146,90.8465" fill="none" stroke="#000000" stroke-width="0.80" />
<polyline points="188.29999999999927,95.8465 197.90000000000146,95.8465" fill="none" stroke="#000000" stroke-width="0.80" />
<polyline points="188.29999999999927,100.846 197.90000000000146,100.846" fill="none" stroke="#000000" stroke-width="0.80" />
<polyline points="188.29999999999927,105.846 197.90000000000146,105.846" fill="none" stroke="#000000" stroke-width="0.80" />
<polyline points="188.29999999999927,110.846 197.90000000000146,110.846" fill="none" stroke="#000000" stroke-width="0.80" />
<polyline points="188.29999999999927,38.3465 197.90000000000146,38.3465" fill="none" stroke="#000000" stroke-width="0.80" />
<polyline points="188.29999999999927,43.3465 197.90000000000146,43.3465" fill="none" stroke="#000000" stroke-width="0.80" />
<polyline points="188.29999999999927,48.3465 197.90000000000146,48.3465" fill="none" stroke="#000000" stroke-width="0.80" />
<polyline points="188.29999999999927,53.3465 197.90000000000146,53.3465" fill="none" stroke="#000000" stroke-width="0.80" />
<polyline points="188.29999999999927,58.3465 197.90000000000146,58.3465" fill="none" stroke="#000000" stroke-width="0.80" />
<polyline points="156.90000000000146,60.8465 166.5,60.8465" fill="none" stroke="#000000" stroke-width="0.80" />
<polyline points="156.90000000000146,65.8465 166.5,65.8465" fill="none" stroke="#000000" stroke-width="0.80" />
<polyline points="156.90000000000146,70.8465 166.5,70.8465" fill="none" stroke="#000000" stroke-width="0.80" />
<polyline points="156.90000000000146,75.8465 166.5,75.8465" fill="none" stroke="#000000" stroke-width="0.80" />
<polyline points="156.90000000000146,80.8465 166.5,80.8465" fill="none" stroke="#000000" stroke-width="0.80" />
<polyline points="156.90000000000146,85.8465 166.5,85.8465" fill="none" stroke="#000000" stroke-width="0.80" />
<polyline points="156.90000000000146,90.8465 166.5,90.8465" fill="none" stroke="#000000" stroke-width="0.80" />
<polyline points="156.90000000000146,95.8465 166.5,95.8465" fill="none" stroke="#000000" stroke-width="0.80" />
<polyline points="156.90000000000146,100.846 166.5,100.846" fill="none" stroke="#000000" stroke-width="0.80" />
<polyline points="156.90000000000146,105.846 166.5,105.846" fill="none" stroke="#000000" stroke-width="0.80" />
<polyline points="156.90000000000146,110.846 166.5,110.846" fill="none" stroke="#000000" stroke-width="0.80" />
<polyline points="156.90000000000146,38.3465 166.5,38.3465" fill="none" stroke="#000000" stroke-width="0.80" />
<polyline points="156.90000000000146,43.3465 166.5,43.3465" fill="none" stroke="#000000" stroke-width="0.80" />
<polyline points="156.90000000000146,48.3465 166.5,48.3465" fill="none" stroke="#000000" stroke-width="0.80" />
<polyline points="156.90000000000146,53.3465 166.5,53.3465" fill="none" stroke="#000000" stroke-width="0.80" />
<polyline points="156.90000000000146,58.3465 166.5,58.3465" fill="none" stroke="#000000" stroke-width="0.80" />
<polyline points="125.40000000000146,193.346 135.0,193.346" fill="none" stroke="#000000" stroke-width="0.80" />
<polyline points="125.40000000000146,60.8465 135.0,60.8465" fill="none" stroke="#000000" stroke-width="0.80" />
<polyline points="125.40000000000146,65.8465 135.0,65.8465" fill="none" stroke="#000000" stroke-width="0.80" />
<polyline points="125.40000000000146,70.8465 135.0,70.8465" fill="none" stroke="#000000" stroke-width="0.80" />
<polyline points="125.40000000000146,75.8465 135.0,75.8465" fill="none" stroke="#000000" stroke-width="0.80" />
<polyline points="125.40000000000146,80.8465 135.0,80.8465" fill="none" stroke="#000000" stroke-width="0.80" />
<polyline points="125.40000000000146,85.8465 135.0,85.8465" fill="none" stroke="#000000" stroke-width="0.80" />
<polyline points="125.40000000000146,90.8465 135.0,90.8465" fill="none" stroke="#000000" stroke-width="0.80" />
<polyline points="125.40000000000146,95.8465 135.0,95.8465" fill="none" stroke="#000000" stroke-width="0.80" />
<polyline points="125.40000000000146,100.846 135.0,100.846" fill="none" stroke="#000000" stroke-width="0.80" />
<polyline points="125.40000000000146,105.846 135.0,105.846" fill="none" stroke="#000000" stroke-width="0.80" />
<polyline points="125.40000000000146,110.846 135.0,110.846" fill="none" stroke="#000000" stroke-width="0.80" />
<polyline points="125.40000000000146,38.3465 135.0,38.3465" fill="none" stroke="#000000" stroke-width="0.80" />
<polyline points="125.40000000000146,43.3465 135.0,43.3465" fill="none" stroke="#000000" stroke-width="0.80" />
<polyline points="125.40000000000146,48.3465 135.0,48.3465" fill="none" stroke="#000000" stroke-width="0.80" />
<polyline points="125.40000000000146,53.3465 135.0,53.3465" fill="none" stroke="#000000" stroke-width="0.80" />
<polyline points="125.40000000000146,58.3465 135.0,58.3465" fill="none" stroke="#000000" stroke-width="0.80" />
<polyline points="94.0,60.8465 103.5,60.8465" fill="none" stroke="#000000" stroke-width="0.80" />
<polyline points="94.0,65.8465 103.5,65.8465" fill="none" stroke="#000000" stroke-width="0.80" />
<polyline points="94.0,70.8465 103.5,70.8465" fill="none" stroke="#000000" stroke-width="0.80" />
<polyline points="94.0,75.8465 103.5,75.8465" fill="none" stroke="#000000" stroke-width="0.80" />
<polyline points="94.0,80.8465 103.5,80.8465" fill="none" stroke="#000000" stroke-width="0.80" />
<polyline points="94.0,85.8465 103.5,85.8465" fill="none" stroke="#000000" stroke-width="0.80" />
<polyline points="94.0,90.8465 103.5,90.8465" fill="none" stroke="#000000" stroke-width="0.80" />
<polyline points="94.0,95.8465 103.5,95.8465" fill="none" stroke="#000000" stroke-width="0.80" />
<polyline points="94.0,100.846 103.5,100.846" fill="none" stroke="#000000" stroke-width="0.80" />
<polyline points="94.0,105.846 103.5,105.846" fill="none" stroke="#000000" stroke-width="0.80" />
<polyline points="94.0,110.846 103.5,110.846" fill="none" stroke="#000000" stroke-width="0.80" />
<polyline points="94.0,38.3465 103.5,38.3465" fill="none" stroke="#000000" stroke-width="0.80" />
<polyline points="94.0,43.3465 103.5,43.3465" fill="none" stroke="#000000" stroke-width="0.80" />
<polyline points="94.0,48.3465 103.5,48.3465" fill="none" stroke="#000000" stroke-width="0.80" />
<polyline points="94.0,53.3465 103.5,53.3465" fill="none" stroke="#000000" stroke-width="0.80" />
<polyline points="94.0,58.3465 103.5,58.3465" fill="none" stroke="#000000" stroke-width="0.80" />
<polyline points="62.5,215.846 72.09999999999854,215.846" fill="none" stroke="#000000" stroke-width="0.80" />
<polyline points="62.5,60.8465 72.09999999999854,60.8465" fill="none" stroke="#000000" stroke-width="0.80" />
<polyline points="62.5,65.8465 72.09999999999854,65.8465" fill="none" stroke="#000000" stroke-width="0.80" />
<polyline points="62.5,70.8465 72.09999999999854,70.8465" fill="none" stroke="#000000" stroke-width="0.80" />
<polyline points="62.5,75.8465 72.09999999999854,75.8465" fill="none" stroke="#000000" stroke-width="0.80" />
<polyline points="62.5,80.8465 72.09999999999854,80.8465" fill="none" stroke="#000000" stroke-width="0.80" />
<polyline points="62.5,85.8465 72.09999999999854,85.8465" fill="none" stroke="#000000" stroke-width="0.80" />
<polyline points="62.5,90.8465 72.09999999999854,90.8465" fill="none" stroke="#000000" stroke-width="0.80" />
<polyline points="62.5,95.8465 72.09999999999854,95.8465" fill="none" stroke="#000000" stroke-width="0.80" />
<polyline points="62.5,100.846 72.09999999999854,100.846" fill="none" stroke="#000000" stroke-width="0.80" />
<polyline points="62.5,105.846 72.09999999999854,105.846" fill="none" stroke="#000000" stroke-width="0.80" />
<polyline points="62.5,110.846 72.09999999999854,110.846" fill="none" stroke="#000000" stroke-width="0.80" />
<polyline points="62.5,38.3465 72.09999999999854,38.3465" fill="none" stroke="#000000" stroke-width="0.80" />
<polyline points="62.5,43.3465 72.09999999999854,43.3465" fill="none" stroke="#000000" stroke-width="0.80" />
<polyline points="62.5,48.3465 72.09999999999854,48.3465" fill="none" stroke="#000000" stroke-width="0.80" />
<polyline points="62.5,53.3465 72.09999999999854,53.3465" fill="none" stroke="#000000" stroke-width="0.80" />
<polyline points="62.5,58.3465 72.09999999999854,58.3465" fill="none" stroke="#000000" stroke-width="0.80" />
<polyline points="31.0,60.8465 40.599999999998545,60.8465" fill="none" stroke="#000000" stroke-width="0.80" />
<polyline points="31.0,65.8465 40.599999999998545,65.8465" fill="none" stroke="#000000" stroke-width="0.80" />
<polyline points="31.0,70.8465 40.599999999998545,70.8465" fill="none" stroke="#000000" stroke-width="0.80" />
<polyline points="31.0,75.8465 40.599999999998545,75.8465" fill="none" stroke="#000000" stroke-width="0.80" />
<polyline points="31.0,80.8465 40.599999999998545,80.8465" fill="none" stroke="#000000" stroke-width="0.80" />
<polyline points="31.0,85.8465 40.599999999998545,85.8465" fill="none" stroke="#000000" stroke-width="0.80" />
<polyline points="31.0,90.8465 40.599999999998545,90.8465" fill="none" stroke="#000000" stroke-width="0.80" />
<polyline points="31.0,95.8465 40.599999999998545,95.8465" fill="none" stroke="#000000" stroke-width="0.80" />
<polyline points="31.0,100.846 40.599999999998545,100.846" fill="none" stroke="#000000" stroke-width="0.80" />
<polyline points="31.0,105.846 40.599999999998545,105.846" fill="none" stroke="#000000" stroke-width="0.80" />
<polyline points="31.0,110.846 40.599999999998545,110.846" fill="none" stroke="#000000" stroke-width="0.80" />
<polyline points="31.0,38.3465 40.599999999998545,38.3465" fill="none" stroke="#000000" stroke-width="0.80" />
<polyline points="31.0,43.3465 40.599999999998545,43.3465" fill="none" stroke="#000000" stroke-width="0.80" />
<polyline points="31.0,48.3465 40.599999999998545,48.3465" fill="none" stroke="#000000" stroke-width="0.80" />
<polyline points="31.0,53.3465 40.599999999998545,53.3465" fill="none" stroke="#000000" stroke-width="0.80" />
<polyline points="31.0,58.3465 40.599999999998545,58.3465" fill="none" stroke="#000000" stroke-width="0.80" />
<polyline points="0.0,215.846 9.200000000000728,215.846" fill="none" stroke="#000000" stroke-width="0.80" />
<polyline points="0.0,193.346 9.200000000000728,193.346" fill="none" stroke="#000000" stroke-width="0.80" />
<polyline points="0.0,60.8465 9.200000000000728,60.8465" fill="none" stroke="#000000" stroke-width="0.80" />
<polyline points="0.0,65.8465 9.200000000000728,65.8465" fill="none" stroke="#000000" stroke-width="0.80" />
<polyline points="0.0,70.8465 9.200000000000728,70.8465" fill="none" stroke="#000000" stroke-width="0.80" />
<polyline points="0.0,75.8465 9.200000000000728,75.8465" fill="none" stroke="#000000" stroke-width="0.80" />
<polyline points="0.0,80.8465 9.200000000000728,80.8465" fill="none" stroke="#000000" stroke-width="0.80" />
<polyline points="0.0,85.8465 9.200000000000728,85.8465" fill="none" stroke="#000000" stroke-width="0.80" />
<polyline points="0.0,90.8465 9.200000000000728,90.8465" fill="none" stroke="#000000" stroke-width="0.80" />
<polyline points="0.0,95.8465 9.200000000000728,95.8465" fill="none" stroke="#000000" stroke-width="0.80" />
<polyline points="0.0,100.846 9.200000000000728,100.846" fill="none" stroke="#000000" stroke-width="0.80" />
<polyline points="0.0,105.846 9.200000000000728,105.846" fill="none" stroke="#000000" stroke-width="0.80" />
<polyline points="0.0,110.846 9.200000000000728,110.846" fill="none" stroke="#000000" stroke-width="0.80" />
<polyline points="0.0,38.3465 9.200000000000728,38.3465" fill="none" stroke="#000000" stroke-width="0.80" />
<polyline points="0.0,43.3465 9.200000000000728,43.3465" fill="none" stroke="#000000" stroke-width="0.80" />
<polyline points="0.0,48.3465 9.200000000000728,48.3465" fill="none" stroke="#000000" stroke-width="0.80" />
<polyline points="0.0,53.3465 9.200000000000728,53.3465" fill="none" stroke="#000000" stroke-width="0.80" />
<polyline points="0.0,58.3465 9.200000000000728,58.3465" fill="none" stroke="#000000" stroke-width="0.80" />
<polyline points="227.90000000000146,56.8465 227.90000000000146,105.846" fill="" stroke="#000000" stroke-width="0.75" />
<polyline points="227.90000000000146,34.3465 227.90000000000146,53.3465" fill="" stroke="#000000" stroke-width="0.75" />
<polyline points="196.40000000000146,56.8465 196.40000000000146,105.846" fill="" stroke="#000000" stroke-width="0.75" />
<polyline points="196.40000000000146,34.3465 196.40000000000146,53.3465" fill="" stroke="#000000" stroke-width="0.75" />
<polyline points="165.0,56.8465 165.0,105.846" fill="" stroke="#000000" stroke-width="0.75" />
<polyline points="165.0,34.3465 165.0,53.3465" fill="" stroke="#000000" stroke-width="0.75" />
<polyline points="133.5,56.8465 133.5,105.846" fill="" stroke="#000000" stroke-width="0.75" />
<polyline points="133.5,34.3465 133.5,53.3465" fill="" stroke="#000000" stroke-width="0.75" />
<polyline points="102.0,56.8465 102.0,105.846" fill="" stroke="#000000" stroke-width="0.75" />
<polyline points="102.0,34.3465 102.0,53.3465" fill="" stroke="#000000" stroke-width="0.75" />
<polyline points="70.59999999999854,56.8465 70.59999999999854,105.846" fill="" stroke="#000000" stroke-width="0.75" />
<polyline points="70.59999999999854,34.3465 70.59999999999854,53.3465" fill="" stroke="#000000" stroke-width="0.75" />
<polyline points="39.099999999998545,56.8465 39.099999999998545,105.846" fill="" stroke="#000000" stroke-width="0.75" />
<polyline points="39.099999999998545,34.3465 39.099999999998545,53.3465" fill="" stroke="#000000" stroke-width="0.75" />
</svg>
