<?xml version="1.0" encoding="UTF-8" standalone="yes"?>
<svg width="256.0px" height="256.0px" xmlns="http://www.w3.org/2000/svg" xmlns:xlink="http://www.w3.org/1999/xlink" version="1.2" baseProfile="tiny">
<polyline points="49.900000000001455,13.846000000000004 255.0,13.846000000000004" fill="none" stroke="#000000" stroke-width="0.40" />
<polyline points="49.900000000001455,18.846000000000004 255.0,18.846000000000004" fill="none" stroke="#000000" stroke-width="0.40" />
<polyline points="49.900000000001455,23.846000000000004 255.0,23.846000000000004" fill="none" stroke="#000000" stroke-width="0.40" />
<polyline points="49.900000000001455,28.846000000000004 255.0,28.846000000000004" fill="none" stroke="#000000" stroke-width="0.40" />
<polyline points="49.900000000001455,33.846000000000004 255.0,33.846000000000004" fill="none" stroke="#000000" stroke-width="0.40" />
<polyline points="49.900000000001455,66.346 255.0,66.346" fill="none" stroke="#000000" stroke-width="0.40" />
<polyline points="49.900000000001455,71.346 255.0,71.346" fill="none" stroke="#000000" stroke-width="0.40" />
<polyline points="49.900000000001455,76.346 255.0,76.346" fill="none" stroke="#000000" stroke-width="0.40" />
<polyline points="49.900000000001455,81.346 255.0,81.346" fill="none" stroke="#000000" stroke-width="0.40" />
<polyline points="49.900000000001455,86.346 255.0,86.346" fill="none" stroke="#000000" stroke-width="0.40" />
<polyline points="50.29999999999927,0.0 50.29999999999927,86.346" fill="none" stroke="#000000" stroke-width="0.80" />
<polyline points="243.40000000000146,74.78599999999994 243.40000000000146,90.096" fill="none" stroke="#000000" stroke-width="0.65" />
<polyline points="243.40000000000146,0.0 243.40000000000146,32.596000000000004" fill="none" stroke="#000000" stroke-width="0.65" />
<polyline points="212.5,74.78599999999994 212.5,90.096" fill="none" stroke="#000000" stroke-width="0.65" />
<polyline points="212.5,0.0 212.5,32.596000000000004" fill="none" stroke="#000000" stroke-width="0.65" />
<polyline points="181.59999999999854,72.28599999999994 181.59999999999854,90.096" fill="none" stroke="#000000" stroke-width="0.65" />
<polyline points="181.59999999999854,17.285999999999945 181.59999999999854,32.596000000000004" fill="none" stroke="#000000" stroke-width="0.65" />
<polyline points="150.59999999999854,74.78599999999994 150.59999999999854,90.096" fill="none" stroke="#000000" stroke-width="0.65" />
<polyline points="150.59999999999854,0.0 150.59999999999854,32.596000000000004" fill="none" stroke="#000000" stroke-width="0.65" />
<polyline points="119.70000000000073,74.78599999999994 119.70000000000073,90.096" fill="none" stroke="#000000" stroke-width="0.65" />
<polyline points="119.70000000000073,0.0 119.70000000000073,32.596000000000004" fill="none" stroke="#000000" stroke-width="0.65" />
<polyline points="88.79999999999927,72.28599999999994 88.79999999999927,90.096" fill="none" stroke="#000000" stroke-width="0.65" />
<polyline points="88.79999999999927,17.285999999999945 88.79999999999927,32.596000000000004" fill="none" stroke="#000000" stroke-width="0.65" />
<polyline points="241.59999999999854,3.8460000000000036 251.09999999999854,3.8460000000000036" fill="none" stroke="#000000" stroke-width="0.80" />
<polyline points="241.59999999999854,8.846000000000004 251.09999999999854,8.846000000000004" fill="none" stroke="#000000" stroke-width="0.80" />
<polyline points="210.59999999999854,3.8460000000000036 220.20000000000073,3.8460000000000036" fill="none" stroke="#000000" stroke-width="0.80" />
<polyline points="210.59999999999854,8.846000000000004 220.20000000000073,8.846000000000004" fill="none" stroke="#000000" stroke-width="0.80" />
<polyline points="148.79999999999927,3.8460000000000036 158.40000000000146,3.8460000000000036" fill="none" stroke="#000000" stroke-width="0.80" />
<polyline points="148.79999999999927,8.846000000000004 158.40000000000146,8.846000000000004" fill="none" stroke="#000000" stroke-width="0.80" />
<polyline points="117.90000000000146,3.8460000000000036 127.5,3.8460000000000036" fill="none" stroke="#000000" stroke-width="0.80" />
<polyline points="117.90000000000146,8.846000000000004 127.5,8.846000000000004" fill="none" stroke="#000000" stroke-width="0.80" />
</svg>
