<?xml version="1.0" encoding="UTF-8" standalone="yes"?>
<svg width="256.0px" height="256.0px" xmlns="http://www.w3.org/2000/svg" xmlns:xlink="http://www.w3.org/1999/xlink" version="1.2" baseProfile="tiny">
<polyline points="0.0,17.346000000000004 76.5,17.346000000000004" fill="none" stroke="#000000" stroke-width="0.40" />
<polyline points="0.0,22.346000000000004 76.5,22.346000000000004" fill="none" stroke="#000000" stroke-width="0.40" />
<polyline points="0.0,27.346000000000004 76.5,27.346000000000004" fill="none" stroke="#000000" stroke-width="0.40" />
<polyline points="0.0,32.346000000000004 76.5,32.346000000000004" fill="none" stroke="#000000" stroke-width="0.40" />
<polyline points="0.0,37.346000000000004 76.5,37.346000000000004" fill="none" stroke="#000000" stroke-width="0.40" />
<polyline points="0.0,112.346 76.5,112.346" fill="none" stroke="#000000" stroke-width="0.40" />
<polyline points="0.0,117.346 76.5,117.346" fill="none" stroke="#000000" stroke-width="0.40" />
<polyline points="0.0,122.346 76.5,122.346" fill="none" stroke="#000000" stroke-width="0.40" />
<polyline points="0.0,127.346 76.5,127.346" fill="none" stroke="#000000" stroke-width="0.40" />
<polyline points="0.0,132.346 76.5,132.346" fill="none" stroke="#000000" stroke-width="0.40" />
<polyline points="0.0,164.846 76.5,164.846" fill="none" stroke="#000000" stroke-width="0.40" />
<polyline points="0.0,169.846 76.5,169.846" fill="none" stroke="#000000" stroke-width="0.40" />
<polyline points="0.0,174.846 76.5,174.846" fill="none" stroke="#000000" stroke-width="0.40" />
<polyline points="0.0,179.846 76.5,179.846" fill="none" stroke="#000000" stroke-width="0.40" />
<polyline points="0.0,184.846 76.5,184.846" fill="none" stroke="#000000" stroke-width="0.40" />
<polyline points="0.0,217.346 76.5,217.346" fill="none" stroke="#000000" stroke-width="0.40" />
<polyline points="0.0,222.346 76.5,222.346" fill="none" stroke="#000000" stroke-width="0.40" />
<polyline points="0.0,227.346 76.5,227.346" fill="none" stroke="#000000" stroke-width="0.40" />
<polyline points="0.0,232.346 76.5,232.346" fill="none" stroke="#000000" stroke-width="0.40" />
<polyline points="0.0,237.346 76.5,237.346" fill="none" stroke="#000000" stroke-width="0.40" />
<polyline points="71.59999999999854,217.346 71.59999999999854,237.346" fill="none" stroke="#000000" stroke-width="0.80" />
<polyline points="75.20000000000073,217.346 75.20000000000073,237.346" fill="none" stroke="#000000" stroke-width="2.50" />
<polyline points="71.59999999999854,164.846 71.59999999999854,184.846" fill="none" stroke="#000000" stroke-width="0.80" />
<polyline points="75.20000000000073,164.846 75.20000000000073,184.846" fill="none" stroke="#000000" stroke-width="2.50" />
<polyline points="71.59999999999854,112.346 71.59999999999854,132.346" fill="none" stroke="#000000" stroke-width="0.80" />
<polyline points="75.20000000000073,112.346 75.20000000000073,132.346" fill="none" stroke="#000000" stroke-width="2.50" />
<polyline points="76.09999999999854,17.346000000000004 76.09999999999854,37.346000000000004" fill="none" stroke="#000000" stroke-width="0.80" />
<polyline points="40.599999999998545,110.786 40.599999999998545,173.596" fill="none" stroke="#000000" stroke-width="0.65" />
<polyline points="40.599999999998545,88.286 40.599999999998545,121.096" fill="none" stroke="#000000" stroke-width="0.65" />
<polyline points="15.599999999998545,247.86200000000002 15.599999999998545,212.346" fill="none" stroke="#000000" stroke-width="0.65" />
<polyline points="9.700000000000728,110.786 9.700000000000728,173.596" fill="none" stroke="#000000" stroke-width="0.65" />
<polyline points="9.700000000000728,88.286 9.700000000000728,121.096" fill="none" stroke="#000000" stroke-width="0.65" />
<polyline points="44.5,25.786 44.5,41.096000000000004" fill="none" stroke="#000000" stroke-width="0.65" />
<polyline points="12.700000000000728,16.910000000000025 12.700000000000728,41.096000000000004" fill="none" stroke="#000000" stroke-width="0.65" />
<polyline points="38.79999999999927,109.846 48.29999999999927,109.846" fill="none" stroke="#000000" stroke-width="0.80" />
<polyline points="38.79999999999927,114.846 48.29999999999927,114.846" fill="none" stroke="#000000" stroke-width="0.80" />
<polyline points="38.79999999999927,119.846 48.29999999999927,119.846" fill="none" stroke="#000000" stroke-width="0.80" />
<polyline points="38.79999999999927,124.846 48.29999999999927,124.846" fill="none" stroke="#000000" stroke-width="0.80" />
<polyline points="38.79999999999927,129.846 48.29999999999927,129.846" fill="none" stroke="#000000" stroke-width="0.80" />
<polyline points="38.79999999999927,134.846 48.29999999999927,134.846" fill="none" stroke="#000000" stroke-width="0.80" />
<polyline points="38.79999999999927,139.846 48.29999999999927,139.846" fill="none" stroke="#000000" stroke-width="0.80" />
<polyline points="38.79999999999927,144.846 48.29999999999927,144.846" fill="none" stroke="#000000" stroke-width="0.80" />
<polyline points="38.79999999999927,149.846 48.29999999999927,149.846" fill="none" stroke="#000000" stroke-width="0.80" />
<polyline points="38.79999999999927,154.846 48.29999999999927,154.846" fill="none" stroke="#000000" stroke-width="0.80" />
<polyline points="38.79999999999927,159.846 48.29999999999927,159.846" fill="none" stroke="#000000" stroke-width="0.80" />
<polyline points="38.79999999999927,87.346 48.29999999999927,87.346" fill="none" stroke="#000000" stroke-width="0.80" />
<polyline points="38.79999999999927,92.346 48.29999999999927,92.346" fill="none" stroke="#000000" stroke-width="0.80" />
<polyline points="38.79999999999927,97.346 48.29999999999927,97.346" fill="none" stroke="#000000" stroke-width="0.80" />
<polyline points="38.79999999999927,102.346 48.29999999999927,102.346" fill="none" stroke="#000000" stroke-width="0.80" />
<polyline points="38.79999999999927,107.346 48.29999999999927,107.346" fill="none" stroke="#000000" stroke-width="0.80" />
<polyline points="7.799999999999272,242.346 17.400000000001455,242.346" fill="none" stroke="#000000" stroke-width="0.80" />
<polyline points="7.799999999999272,247.346 17.400000000001455,247.346" fill="none" stroke="#000000" stroke-width="0.80" />
<polyline points="7.799999999999272,109.846 17.400000000001455,109.846" fill="none" stroke="#000000" stroke-width="0.80" />
<polyline points="7.799999999999272,114.846 17.400000000001455,114.846" fill="none" stroke="#000000" stroke-width="0.80" />
<polyline points="7.799999999999272,119.846 17.400000000001455,119.846" fill="none" stroke="#000000" stroke-width="0.80" />
<polyline points="7.799999999999272,124.846 17.400000000001455,124.846" fill="none" stroke="#000000" stroke-width="0.80" />
<polyline points="7.799999999999272,129.846 17.400000000001455,129.846" fill="none" stroke="#000000" stroke-width="0.80" />
<polyline points="7.799999999999272,134.846 17.400000000001455,134.846" fill="none" stroke="#000000" stroke-width="0.80" />
<polyline points="7.799999999999272,139.846 17.400000000001455,139.846" fill="none" stroke="#000000" stroke-width="0.80" />
<polyline points="7.799999999999272,144.846 17.400000000001455,144.846" fill="none" stroke="#000000" stroke-width="0.80" />
<polyline points="7.799999999999272,149.846 17.400000000001455,149.846" fill="none" stroke="#000000" stroke-width="0.80" />
<polyline points="7.799999999999272,154.846 17.400000000001455,154.846" fill="none" stroke="#000000" stroke-width="0.80" />
<polyline points="7.799999999999272,159.846 17.400000000001455,159.846" fill="none" stroke="#000000" stroke-width="0.80" />
<polyline points="7.799999999999272,87.346 17.400000000001455,87.346" fill="none" stroke="#000000" stroke-width="0.80" />
<polyline points="7.799999999999272,92.346 17.400000000001455,92.346" fill="none" stroke="#000000" stroke-width="0.80" />
<polyline points="7.799999999999272,97.346 17.400000000001455,97.346" fill="none" stroke="#000000" stroke-width="0.80" />
<polyline points="7.799999999999272,102.346 17.400000000001455,102.346" fill="none" stroke="#000000" stroke-width="0.80" />
<polyline points="7.799999999999272,107.346 17.400000000001455,107.346" fill="none" stroke="#000000" stroke-width="0.80" />
<polyline points="46.79999999999927,105.846 46.79999999999927,154.846" fill="" stroke="#000000" stroke-width="0.75" />
<polyline points="46.79999999999927,83.346 46.79999999999927,102.346" fill="" stroke="#000000" stroke-width="0.75" />
<polyline points="15.900000000001455,105.846 15.900000000001455,154.846" fill="" stroke="#000000" stroke-width="0.75" />
<polyline points="15.900000000001455,83.346 15.900000000001455,102.346" fill="" stroke="#000000" stroke-width="0.75" />
</svg>
