<?xml version="1.0" encoding="UTF-8" standalone="yes"?>
<svg width="256.0px" height="256.0px" xmlns="http://www.w3.org/2000/svg" xmlns:xlink="http://www.w3.org/1999/xlink" version="1.2" baseProfile="tiny">
<polyline points="0.0,17.346000000000004 255.0,17.346000000000004" fill="none" stroke="#000000" stroke-width="0.40" />
<polyline points="0.0,22.346000000000004 255.0,22.346000000000004" fill="none" stroke="#000000" stroke-width="0.40" />
<polyline points="0.0,27.346000000000004 255.0,27.346000000000004" fill="none" stroke="#000000" stroke-width="0.40" />
<polyline points="0.0,32.346000000000004 255.0,32.346000000000004" fill="none" stroke="#000000" stroke-width="0.40" />
<polyline points="0.0,37.346000000000004 255.0,37.346000000000004" fill="none" stroke="#000000" stroke-width="0.40" />
<polyline points="0.0,112.346 255.0,112.346" fill="none" stroke="#000000" stroke-width="0.40" />
<polyline points="0.0,117.346 255.0,117.346" fill="none" stroke="#000000" stroke-width="0.40" />
<polyline points="0.0,122.346 255.0,122.346" fill="none" stroke="#000000" stroke-width="0.40" />
<polyline points="0.0,127.346 255.0,127.346" fill="none" stroke="#000000" stroke-width="0.40" />
<polyline points="0.0,132.346 255.0,132.346" fill="none" stroke="#000000" stroke-width="0.40" />
<polyline points="0.0,164.846 255.0,164.846" fill="none" stroke="#000000" stroke-width="0.40" />
<polyline points="0.0,169.846 255.0,169.846" fill="none" stroke="#000000" stroke-width="0.40" />
<polyline points="0.0,174.846 255.0,174.846" fill="none" stroke="#000000" stroke-width="0.40" />
<polyline points="0.0,179.846 255.0,179.846" fill="none" stroke="#000000" stroke-width="0.40" />
<polyline points="0.0,184.846 255.0,184.846" fill="none" stroke="#000000" stroke-width="0.40" />
<polyline points="0.0,217.346 255.0,217.346" fill="none" stroke="#000000" stroke-width="0.40" />
<polyline points="0.0,222.346 255.0,222.346" fill="none" stroke="#000000" stroke-width="0.40" />
<polyline points="0.0,227.346 255.0,227.346" fill="none" stroke="#000000" stroke-width="0.40" />
<polyline points="0.0,232.346 255.0,232.346" fill="none" stroke="#000000" stroke-width="0.40" />
<polyline points="0.0,237.346 255.0,237.346" fill="none" stroke="#000000" stroke-width="0.40" />
<polyline points="255.09999999999854,110.786 255.09999999999854,173.596" fill="none" stroke="#000000" stroke-width="0.65" />
<polyline points="255.09999999999854,88.286 255.09999999999854,121.096" fill="none" stroke="#000000" stroke-width="0.65" />
<polyline points="223.90000000000146,110.786 223.90000000000146,173.596" fill="none" stroke="#000000" stroke-width="0.65" />
<polyline points="223.90000000000146,88.286 223.90000000000146,121.096" fill="none" stroke="#000000" stroke-width="0.65" />
<polyline points="192.70000000000073,110.786 192.70000000000073,173.596" fill="none" stroke="#000000" stroke-width="0.65" />
<polyline points="192.70000000000073,88.286 192.70000000000073,121.096" fill="none" stroke="#000000" stroke-width="0.65" />
<polyline points="161.5,110.786 161.5,173.596" fill="none" stroke="#000000" stroke-width="0.65" />
<polyline points="161.5,88.286 161.5,121.096" fill="none" stroke="#000000" stroke-width="0.65" />
<polyline points="136.29999999999927,241.40699999999998 136.29999999999927,209.846" fill="none" stroke="#000000" stroke-width="0.65" />
<polyline points="130.29999999999927,110.786 130.29999999999927,173.596" fill="none" stroke="#000000" stroke-width="0.65" />
<polyline points="130.29999999999927,88.286 130.29999999999927,121.096" fill="none" stroke="#000000" stroke-width="0.65" />
<polyline points="99.09999999999854,110.786 99.09999999999854,173.596" fill="none" stroke="#000000" stroke-width="0.65" />
<polyline points="99.09999999999854,88.286 99.09999999999854,121.096" fill="none" stroke="#000000" stroke-width="0.65" />
<polyline points="73.90000000000146,241.40699999999998 73.90000000000146,211.096" fill="none" stroke="#000000" stroke-width="0.65" />
<polyline points="67.90000000000146,110.786 67.90000000000146,173.596" fill="none" stroke="#000000" stroke-width="0.65" />
<polyline points="67.90000000000146,88.286 67.90000000000146,121.096" fill="none" stroke="#000000" stroke-width="0.65" />
<polyline points="36.70000000000073,110.786 36.70000000000073,173.596" fill="none" stroke="#000000" stroke-width="0.65" />
<polyline points="36.70000000000073,88.286 36.70000000000073,121.096" fill="none" stroke="#000000" stroke-width="0.65" />
<polyline points="11.5,241.40699999999998 11.5,211.096" fill="none" stroke="#000000" stroke-width="0.65" />
<polyline points="5.5,110.786 5.5,173.596" fill="none" stroke="#000000" stroke-width="0.65" />
<polyline points="5.5,88.286 5.5,121.096" fill="none" stroke="#000000" stroke-width="0.65" />
<polyline points="252.70000000000073,16.910000000000025 252.70000000000073,49.846000000000004" fill="none" stroke="#000000" stroke-width="0.65" />
<polyline points="221.59999999999854,25.786 221.59999999999854,41.096000000000004" fill="none" stroke="#000000" stroke-width="0.65" />
<polyline points="189.79999999999927,16.910000000000025 189.79999999999927,41.096000000000004" fill="none" stroke="#000000" stroke-width="0.65" />
<polyline points="126.79999999999927,16.910000000000025 126.79999999999927,41.096000000000004" fill="none" stroke="#000000" stroke-width="0.65" />
<polyline points="63.900000000001455,16.910000000000025 63.900000000001455,49.846000000000004" fill="none" stroke="#000000" stroke-width="0.65" />
<polyline points="1.0,16.910000000000025 1.0,49.846000000000004" fill="none" stroke="#000000" stroke-width="0.65" />
<polyline points="253.29999999999927,109.846 255.0,109.846" fill="none" stroke="#000000" stroke-width="0.80" />
<polyline points="253.29999999999927,114.846 255.0,114.846" fill="none" stroke="#000000" stroke-width="0.80" />
<polyline points="253.29999999999927,119.846 255.0,119.846" fill="none" stroke="#000000" stroke-width="0.80" />
<polyline points="253.29999999999927,124.846 255.0,124.846" fill="none" stroke="#000000" stroke-width="0.80" />
<polyline points="253.29999999999927,129.846 255.0,129.846" fill="none" stroke="#000000" stroke-width="0.80" />
<polyline points="253.29999999999927,134.846 255.0,134.846" fill="none" stroke="#000000" stroke-width="0.80" />
<polyline points="253.29999999999927,139.846 255.0,139.846" fill="none" stroke="#000000" stroke-width="0.80" />
<polyline points="253.29999999999927,144.846 255.0,144.846" fill="none" stroke="#000000" stroke-width="0.80" />
<polyline points="253.29999999999927,149.846 255.0,149.846" fill="none" stroke="#000000" stroke-width="0.80" />
<polyline points="253.29999999999927,154.846 255.0,154.846" fill="none" stroke="#000000" stroke-width="0.80" />
<polyline points="253.29999999999927,159.846 255.0,159.846" fill="none" stroke="#000000" stroke-width="0.80" />
<polyline points="253.29999999999927,87.346 255.0,87.346" fill="none" stroke="#000000" stroke-width="0.80" />
<polyline points="253.29999999999927,92.346 255.0,92.346" fill="none" stroke="#000000" stroke-width="0.80" />
<polyline points="253.29999999999927,97.346 255.0,97.346" fill="none" stroke="#000000" stroke-width="0.80" />
<polyline points="253.29999999999927,102.346 255.0,102.346" fill="none" stroke="#000000" stroke-width="0.80" />
<polyline points="253.29999999999927,107.346 255.0,107.346" fill="none" stroke="#000000" stroke-width="0.80" />
<polyline points="222.09999999999854,109.846 231.70000000000073,109.846" fill="none" stroke="#000000" stroke-width="0.80" />
<polyline points="222.09999999999854,114.846 231.70000000000073,114.846" fill="none" stroke="#000000" stroke-width="0.80" />
<polyline points="222.09999999999854,119.846 231.70000000000073,119.846" fill="none" stroke="#000000" stroke-width="0.80" />
<polyline points="222.09999999999854,124.846 231.70000000000073,124.846" fill="none" stroke="#000000" stroke-width="0.80" />
<polyline points="222.09999999999854,129.846 231.70000000000073,129.846" fill="none" stroke="#000000" stroke-width="0.80" />
<polyline points="222.09999999999854,134.846 231.70000000000073,134.846" fill="none" stroke="#000000" stroke-width="0.80" />
<polyline points="222.09999999999854,139.846 231.70000000000073,139.846" fill="none" stroke="#000000" stroke-width="0.80" />
<polyline points="222.09999999999854,144.846 231.70000000000073,144.846" fill="none" stroke="#000000" stroke-width="0.80" />
<polyline points="222.09999999999854,149.846 231.70000000000073,149.846" fill="none" stroke="#000000" stroke-width="0.80" />
<polyline points="222.09999999999854,154.846 231.70000000000073,154.846" fill="none" stroke="#000000" stroke-width="0.80" />
<polyline points="222.09999999999854,159.846 231.70000000000073,159.846" fill="none" stroke="#000000" stroke-width="0.80" />
<polyline points="222.09999999999854,87.346 231.70000000000073,87.346" fill="none" stroke="#000000" stroke-width="0.80" />
<polyline points="222.09999999999854,92.346 231.70000000000073,92.346" fill="none" stroke="#000000" stroke-width="0.80" />
<polyline points="222.09999999999854,97.346 231.70000000000073,97.346" fill="none" stroke="#000000" stroke-width="0.80" />
<polyline points="222.09999999999854,102.346 231.70000000000073,102.346" fill="none" stroke="#000000" stroke-width="0.80" />
<polyline points="222.09999999999854,107.346 231.70000000000073,107.346" fill="none" stroke="#000000" stroke-width="0.80" />
<polyline points="190.90000000000146,109.846 200.5,109.846" fill="none" stroke="#000000" stroke-width="0.80" />
<polyline points="190.90000000000146,114.846 200.5,114.846" fill="none" stroke="#000000" stroke-width="0.80" />
<polyline points="190.90000000000146,119.846 200.5,119.846" fill="none" stroke="#000000" stroke-width="0.80" />
<polyline points="190.90000000000146,124.846 200.5,124.846" fill="none" stroke="#000000" stroke-width="0.80" />
<polyline points="190.90000000000146,129.846 200.5,129.846" fill="none" stroke="#000000" stroke-width="0.80" />
<polyline points="190.90000000000146,134.846 200.5,134.846" fill="none" stroke="#000000" stroke-width="0.80" />
<polyline points="190.90000000000146,139.846 200.5,139.846" fill="none" stroke="#000000" stroke-width="0.80" />
<polyline points="190.90000000000146,144.846 200.5,144.846" fill="none" stroke="#000000" stroke-width="0.80" />
<polyline points="190.90000000000146,149.846 200.5,149.846" fill="none" stroke="#000000" stroke-width="0.80" />
<polyline points="190.90000000000146,154.846 200.5,154.846" fill="none" stroke="#000000" stroke-width="0.80" />
<polyline points="190.90000000000146,159.846 200.5,159.846" fill="none" stroke="#000000" stroke-width="0.80" />
<polyline points="190.90000000000146,87.346 200.5,87.346" fill="none" stroke="#000000" stroke-width="0.80" />
<polyline points="190.90000000000146,92.346 200.5,92.346" fill="none" stroke="#000000" stroke-width="0.80" />
<polyline points="190.90000000000146,97.346 200.5,97.346" fill="none" stroke="#000000" stroke-width="0.80" />
<polyline points="190.90000000000146,102.346 200.5,102.346" fill="none" stroke="#000000" stroke-width="0.80" />
<polyline points="190.90000000000146,107.346 200.5,107.346" fill="none" stroke="#000000" stroke-width="0.80" />
<polyline points="159.70000000000073,109.846 169.29999999999927,109.846" fill="none" stroke="#000000" stroke-width="0.80" />
<polyline points="159.70000000000073,114.846 169.29999999999927,114.846" fill="none" stroke="#000000" stroke-width="0.80" />
<polyline points="159.70000000000073,119.846 169.29999999999927,119.846" fill="none" stroke="#000000" stroke-width="0.80" />
<polyline points="159.70000000000073,124.846 169.29999999999927,124.846" fill="none" stroke="#000000" stroke-width="0.80" />
<polyline points="159.70000000000073,129.846 169.29999999999927,129.846" fill="none" stroke="#000000" stroke-width="0.80" />
<polyline points="159.70000000000073,134.846 169.29999999999927,134.846" fill="none" stroke="#000000" stroke-width="0.80" />
<polyline points="159.70000000000073,139.846 169.29999999999927,139.846" fill="none" stroke="#000000" stroke-width="0.80" />
<polyline points="159.70000000000073,144.846 169.29999999999927,144.846" fill="none" stroke="#000000" stroke-width="0.80" />
<polyline points="159.70000000000073,149.846 169.29999999999927,149.846" fill="none" stroke="#000000" stroke-width="0.80" />
<polyline points="159.70000000000073,154.846 169.29999999999927,154.846" fill="none" stroke="#000000" stroke-width="0.80" />
<polyline points="159.70000000000073,159.846 169.29999999999927,159.846" fill="none" stroke="#000000" stroke-width="0.80" />
<polyline points="159.70000000000073,87.346 169.29999999999927,87.346" fill="none" stroke="#000000" stroke-width="0.80" />
<polyline points="159.70000000000073,92.346 169.29999999999927,92.346" fill="none" stroke="#000000" stroke-width="0.80" />
<polyline points="159.70000000000073,97.346 169.29999999999927,97.346" fill="none" stroke="#000000" stroke-width="0.80" />
<polyline points="159.70000000000073,102.346 169.29999999999927,102.346" fill="none" stroke="#000000" stroke-width="0.80" />
<polyline points="159.70000000000073,107.346 169.29999999999927,107.346" fill="none" stroke="#000000" stroke-width="0.80" />
<polyline points="128.5,242.346 138.09999999999854,242.346" fill="none" stroke="#000000" stroke-width="0.80" />
<polyline points="128.5,109.846 138.09999999999854,109.846" fill="none" stroke="#000000" stroke-width="0.80" />
<polyline points="128.5,114.846 138.09999999999854,114.846" fill="none" stroke="#000000" stroke-width="0.80" />
<polyline points="128.5,119.846 138.09999999999854,119.846" fill="none" stroke="#000000" stroke-width="0.80" />
<polyline points="128.5,124.846 138.09999999999854,124.846" fill="none" stroke="#000000" stroke-width="0.80" />
<polyline points="128.5,129.846 138.09999999999854,129.846" fill="none" stroke="#000000" stroke-width="0.80" />
<polyline points="128.5,134.846 138.09999999999854,134.846" fill="none" stroke="#000000" stroke-width="0.80" />
<polyline points="128.5,139.846 138.09999999999854,139.846" fill="none" stroke="#000000" stroke-width="0.80" />
<polyline points="128.5,144.846 138.09999999999854,144.846" fill="none" stroke="#000000" stroke-width="0.80" />
<polyline points="128.5,149.846 138.09999999999854,149.846" fill="none" stroke="#000000" stroke-width="0.80" />
<polyline points="128.5,154.846 138.09999999999854,154.846" fill="none" stroke="#000000" stroke-width="0.80" />
<polyline points="128.5,159.846 138.09999999999854,159.846" fill="none" stroke="#000000" stroke-width="0.80" />
<polyline points="128.5,87.346 138.09999999999854,87.346" fill="none" stroke="#000000" stroke-width="0.80" />
<polyline points="128.5,92.346 138.09999999999854,92.346" fill="none" stroke="#000000" stroke-width="0.80" />
<polyline points="128.5,97.346 138.09999999999854,97.346" fill="none" stroke="#000000" stroke-width="0.80" />
<polyline points="128.5,102.346 138.09999999999854,102.346" fill="none" stroke="#000000" stroke-width="0.80" />
<polyline points="128.5,107.346 138.09999999999854,107.346" fill="none" stroke="#000000" stroke-width="0.80" />
<polyline points="97.29999999999927,109.846 106.90000000000146,109.846" fill="none" stroke="#000000" stroke-width="0.80" />
<polyline points="97.29999999999927,114.846 106.90000000000146,114.846" fill="none" stroke="#000000" stroke-width="0.80" />
<polyline points="97.29999999999927,119.846 106.90000000000146,119.846" fill="none" stroke="#000000" stroke-width="0.80" />
<polyline points="97.29999999999927,124.846 106.90000000000146,124.846" fill="none" stroke="#000000" stroke-width="0.80" />
<polyline points="97.29999999999927,129.846 106.90000000000146,129.846" fill="none" stroke="#000000" stroke-width="0.80" />
<polyline points="97.29999999999927,134.846 106.90000000000146,134.846" fill="none" stroke="#000000" stroke-width="0.80" />
<polyline points="97.29999999999927,139.846 106.90000000000146,139.846" fill="none" stroke="#000000" stroke-width="0.80" />
<polyline points="97.29999999999927,144.846 106.90000000000146,144.846" fill="none" stroke="#000000" stroke-width="0.80" />
<polyline points="97.29999999999927,149.846 106.90000000000146,149.846" fill="none" stroke="#000000" stroke-width="0.80" />
<polyline points="97.29999999999927,154.846 106.90000000000146,154.846" fill="none" stroke="#000000" stroke-width="0.80" />
<polyline points="97.29999999999927,159.846 106.90000000000146,159.846" fill="none" stroke="#000000" stroke-width="0.80" />
<polyline points="97.29999999999927,87.346 106.90000000000146,87.346" fill="none" stroke="#000000" stroke-width="0.80" />
<polyline points="97.29999999999927,92.346 106.90000000000146,92.346" fill="none" stroke="#000000" stroke-width="0.80" />
<polyline points="97.29999999999927,97.346 106.90000000000146,97.346" fill="none" stroke="#000000" stroke-width="0.80" />
<polyline points="97.29999999999927,102.346 106.90000000000146,102.346" fill="none" stroke="#000000" stroke-width="0.80" />
<polyline points="97.29999999999927,107.346 106.90000000000146,107.346" fill="none" stroke="#000000" stroke-width="0.80" />
<polyline points="66.09999999999854,242.346 75.70000000000073,242.346" fill="none" stroke="#000000" stroke-width="0.80" />
<polyline points="66.09999999999854,109.846 75.70000000000073,109.846" fill="none" stroke="#000000" stroke-width="0.80" />
<polyline points="66.09999999999854,114.846 75.70000000000073,114.846" fill="none" stroke="#000000" stroke-width="0.80" />
<polyline points="66.09999999999854,119.846 75.70000000000073,119.846" fill="none" stroke="#000000" stroke-width="0.80" />
<polyline points="66.09999999999854,124.846 75.70000000000073,124.846" fill="none" stroke="#000000" stroke-width="0.80" />
<polyline points="66.09999999999854,129.846 75.70000000000073,129.846" fill="none" stroke="#000000" stroke-width="0.80" />
<polyline points="66.09999999999854,134.846 75.70000000000073,134.846" fill="none" stroke="#000000" stroke-width="0.80" />
<polyline points="66.09999999999854,139.846 75.70000000000073,139.846" fill="none" stroke="#000000" stroke-width="0.80" />
<polyline points="66.09999999999854,144.846 75.70000000000073,144.846" fill="none" stroke="#000000" stroke-width="0.80" />
<polyline points="66.09999999999854,149.846 75.70000000000073,149.846" fill="none" stroke="#000000" stroke-width="0.80" />
<polyline points="66.09999999999854,154.846 75.70000000000073,154.846" fill="none" stroke="#000000" stroke-width="0.80" />
<polyline points="66.09999999999854,159.846 75.70000000000073,159.846" fill="none" stroke="#000000" stroke-width="0.80" />
<polyline points="66.09999999999854,87.346 75.70000000000073,87.346" fill="none" stroke="#000000" stroke-width="0.80" />
<polyline points="66.09999999999854,92.346 75.70000000000073,92.346" fill="none" stroke="#000000" stroke-width="0.80" />
<polyline points="66.09999999999854,97.346 75.70000000000073,97.346" fill="none" stroke="#000000" stroke-width="0.80" />
<polyline points="66.09999999999854,102.346 75.70000000000073,102.346" fill="none" stroke="#000000" stroke-width="0.80" />
<polyline points="66.09999999999854,107.346 75.70000000000073,107.346" fill="none" stroke="#000000" stroke-width="0.80" />
<polyline points="34.900000000001455,109.846 44.5,109.846" fill="none" stroke="#000000" stroke-width="0.80" />
<polyline points="34.900000000001455,114.846 44.5,114.846" fill="none" stroke="#000000" stroke-width="0.80" />
<polyline points="34.900000000001455,119.846 44.5,119.846" fill="none" stroke="#000000" stroke-width="0.80" />
<polyline points="34.900000000001455,124.846 44.5,124.846" fill="none" stroke="#000000" stroke-width="0.80" />
<polyline points="34.900000000001455,129.846 44.5,129.846" fill="none" stroke="#000000" stroke-width="0.80" />
<polyline points="34.900000000001455,134.846 44.5,134.846" fill="none" stroke="#000000" stroke-width="0.80" />
<polyline points="34.900000000001455,139.846 44.5,139.846" fill="none" stroke="#000000" stroke-width="0.80" />
<polyline points="34.900000000001455,144.846 44.5,144.846" fill="none" stroke="#000000" stroke-width="0.80" />
<polyline points="34.900000000001455,149.846 44.5,149.846" fill="none" stroke="#000000" stroke-width="0.80" />
<polyline points="34.900000000001455,154.846 44.5,154.846" fill="none" stroke="#000000" stroke-width="0.80" />
<polyline points="34.900000000001455,159.846 44.5,159.846" fill="none" stroke="#000000" stroke-width="0.80" />
<polyline points="34.900000000001455,87.346 44.5,87.346" fill="none" stroke="#000000" stroke-width="0.80" />
<polyline points="34.900000000001455,92.346 44.5,92.346" fill="none" stroke="#000000" stroke-width="0.80" />
<polyline points="34.900000000001455,97.346 44.5,97.346" fill="none" stroke="#000000" stroke-width="0.80" />
<polyline points="34.900000000001455,102.346 44.5,102.346" fill="none" stroke="#000000" stroke-width="0.80" />
<polyline points="34.900000000001455,107.346 44.5,107.346" fill="none" stroke="#000000" stroke-width="0.80" />
<polyline points="3.7000000000007276,242.346 13.299999999999272,242.346" fill="none" stroke="#000000" stroke-width="0.80" />
<polyline points="3.7000000000007276,109.846 13.299999999999272,109.846" fill="none" stroke="#000000" stroke-width="0.80" />
<polyline points="3.7000000000007276,114.846 13.299999999999272,114.846" fill="none" stroke="#000000" stroke-width="0.80" />
<polyline points="3.7000000000007276,119.846 13.299999999999272,119.846" fill="none" stroke="#000000" stroke-width="0.80" />
<polyline points="3.7000000000007276,124.846 13.299999999999272,124.846" fill="none" stroke="#000000" stroke-width="0.80" />
<polyline points="3.7000000000007276,129.846 13.299999999999272,129.846" fill="none" stroke="#000000" stroke-width="0.80" />
<polyline points="3.7000000000007276,134.846 13.299999999999272,134.846" fill="none" stroke="#000000" stroke-width="0.80" />
<polyline points="3.7000000000007276,139.846 13.299999999999272,139.846" fill="none" stroke="#000000" stroke-width="0.80" />
<polyline points="3.7000000000007276,144.846 13.299999999999272,144.846" fill="none" stroke="#000000" stroke-width="0.80" />
<polyline points="3.7000000000007276,149.846 13.299999999999272,149.846" fill="none" stroke="#000000" stroke-width="0.80" />
<polyline points="3.7000000000007276,154.846 13.299999999999272,154.846" fill="none" stroke="#000000" stroke-width="0.80" />
<polyline points="3.7000000000007276,159.846 13.299999999999272,159.846" fill="none" stroke="#000000" stroke-width="0.80" />
<polyline points="3.7000000000007276,87.346 13.299999999999272,87.346" fill="none" stroke="#000000" stroke-width="0.80" />
<polyline points="3.7000000000007276,92.346 13.299999999999272,92.346" fill="none" stroke="#000000" stroke-width="0.80" />
<polyline points="3.7000000000007276,97.346 13.299999999999272,97.346" fill="none" stroke="#000000" stroke-width="0.80" />
<polyline points="3.7000000000007276,102.346 13.299999999999272,102.346" fill="none" stroke="#000000" stroke-width="0.80" />
<polyline points="3.7000000000007276,107.346 13.299999999999272,107.346" fill="none" stroke="#000000" stroke-width="0.80" />
<polyline points="230.20000000000073,105.846 230.20000000000073,154.846" fill="" stroke="#000000" stroke-width="0.75" />
<polyline points="230.20000000000073,83.346 230.20000000000073,102.346" fill="" stroke="#000000" stroke-width="0.75" />
<polyline points="199.0,105.846 199.0,154.846" fill="" stroke="#000000" stroke-width="0.75" />
<polyline points="199.0,83.346 199.0,102.346" fill="" stroke="#000000" stroke-width="0.75" />
<polyline points="167.79999999999927,105.846 167.79999999999927,154.846" fill="" stroke="#000000" stroke-width="0.75" />
<polyline points="167.79999999999927,83.346 167.79999999999927,102.346" fill="" stroke="#000000" stroke-width="0.75" />
<polyline points="105.40000000000146,105.846 105.40000000000146,154.846" fill="" stroke="#000000" stroke-width="0.75" />
<polyline points="105.40000000000146,83.346 105.40000000000146,102.346" fill="" stroke="#000000" stroke-width="0.75" />
<polyline points="74.20000000000073,105.846 74.20000000000073,154.846" fill="" stroke="#000000" stroke-width="0.75" />
<polyline points="74.20000000000073,83.346 74.20000000000073,102.346" fill="" stroke="#000000" stroke-width="0.75" />
<polyline points="43.0,105.846 43.0,154.846" fill="" stroke="#000000" stroke-width="0.75" />
<polyline points="43.0,83.346 43.0,102.346" fill="" stroke="#000000" stroke-width="0.75" />
<polyline points="11.799999999999272,105.846 11.799999999999272,154.846" fill="" stroke="#000000" stroke-width="0.75" />
<polyline points="11.799999999999272,83.346 11.799999999999272,102.346" fill="" stroke="#000000" stroke-width="0.75" />
</svg>
