<?xml version="1.0" encoding="UTF-8" standalone="yes"?>
<svg width="256.0px" height="256.0px" xmlns="http://www.w3.org/2000/svg" xmlns:xlink="http://www.w3.org/1999/xlink" version="1.2" baseProfile="tiny">
<polyline points="0.0,63.3465 76.5,63.3465" fill="none" stroke="#000000" stroke-width="0.40" />
<polyline points="0.0,68.3465 76.5,68.3465" fill="none" stroke="#000000" stroke-width="0.40" />
<polyline points="0.0,73.3465 76.5,73.3465" fill="none" stroke="#000000" stroke-width="0.40" />
<polyline points="0.0,78.3465 76.5,78.3465" fill="none" stroke="#000000" stroke-width="0.40" />
<polyline points="0.0,83.3465 76.5,83.3465" fill="none" stroke="#000000" stroke-width="0.40" />
<polyline points="0.0,115.846 76.5,115.846" fill="none" stroke="#000000" stroke-width="0.40" />
<polyline points="0.0,120.846 76.5,120.846" fill="none" stroke="#000000" stroke-width="0.40" />
<polyline points="0.0,125.846 76.5,125.846" fill="none" stroke="#000000" stroke-width="0.40" />
<polyline points="0.0,130.846 76.5,130.846" fill="none" stroke="#000000" stroke-width="0.40" />
<polyline points="0.0,135.846 76.5,135.846" fill="none" stroke="#000000" stroke-width="0.40" />
<polyline points="0.0,168.346 76.5,168.346" fill="none" stroke="#000000" stroke-width="0.40" />
<polyline points="0.0,173.346 76.5,173.346" fill="none" stroke="#000000" stroke-width="0.40" />
<polyline points="0.0,178.346 76.5,178.346" fill="none" stroke="#000000" stroke-width="0.40" />
<polyline points="0.0,183.346 76.5,183.346" fill="none" stroke="#000000" stroke-width="0.40" />
<polyline points="0.0,188.346 76.5,188.346" fill="none" stroke="#000000" stroke-width="0.40" />
<polyline points="0.0,220.846 76.5,220.846" fill="none" stroke="#000000" stroke-width="0.40" />
<polyline points="0.0,225.846 76.5,225.846" fill="none" stroke="#000000" stroke-width="0.40" />
<polyline points="0.0,230.846 76.5,230.846" fill="none" stroke="#000000" stroke-width="0.40" />
<polyline points="0.0,235.846 76.5,235.846" fill="none" stroke="#000000" stroke-width="0.40" />
<polyline points="0.0,240.846 76.5,240.846" fill="none" stroke="#000000" stroke-width="0.40" />
<polyline points="76.09999999999854,220.846 76.09999999999854,240.846" fill="none" stroke="#000000" stroke-width="0.80" />
<polyline points="76.09999999999854,168.346 76.09999999999854,188.346" fill="none" stroke="#000000" stroke-width="0.80" />
<polyline points="76.09999999999854,115.846 76.09999999999854,135.846" fill="none" stroke="#000000" stroke-width="0.80" />
<polyline points="76.09999999999854,63.3465 76.09999999999854,83.3465" fill="none" stroke="#000000" stroke-width="0.80" />
<polyline points="44.5,61.7855 44.5,124.596" fill="none" stroke="#000000" stroke-width="0.65" />
<polyline points="44.5,39.2855 44.5,72.0965" fill="none" stroke="#000000" stroke-width="0.65" />
<polyline points="13.099999999998545,224.286 13.099999999998545,239.596" fill="none" stroke="#000000" stroke-width="0.65" />
<polyline points="19.0,191.362 19.0,154.596" fill="none" stroke="#000000" stroke-width="0.65" />
<polyline points="13.099999999998545,61.7855 13.099999999998545,124.596" fill="none" stroke="#000000" stroke-width="0.65" />
<polyline points="13.099999999998545,39.2855 13.099999999998545,72.0965" fill="none" stroke="#000000" stroke-width="0.65" />
<polyline points="42.70000000000073,60.8465 52.29999999999927,60.8465" fill="none" stroke="#000000" stroke-width="0.80" />
<polyline points="42.70000000000073,65.8465 52.29999999999927,65.8465" fill="none" stroke="#000000" stroke-width="0.80" />
<polyline points="42.70000000000073,70.8465 52.29999999999927,70.8465" fill="none" stroke="#000000" stroke-width="0.80" />
<polyline points="42.70000000000073,75.8465 52.29999999999927,75.8465" fill="none" stroke="#000000" stroke-width="0.80" />
<polyline points="42.70000000000073,80.8465 52.29999999999927,80.8465" fill="none" stroke="#000000" stroke-width="0.80" />
<polyline points="42.70000000000073,85.8465 52.29999999999927,85.8465" fill="none" stroke="#000000" stroke-width="0.80" />
<polyline points="42.70000000000073,90.8465 52.29999999999927,90.8465" fill="none" stroke="#000000" stroke-width="0.80" />
<polyline points="42.70000000000073,95.8465 52.29999999999927,95.8465" fill="none" stroke="#000000" stroke-width="0.80" />
<polyline points="42.70000000000073,100.846 52.29999999999927,100.846" fill="none" stroke="#000000" stroke-width="0.80" />
<polyline points="42.70000000000073,105.846 52.29999999999927,105.846" fill="none" stroke="#000000" stroke-width="0.80" />
<polyline points="42.70000000000073,110.846 52.29999999999927,110.846" fill="none" stroke="#000000" stroke-width="0.80" />
<polyline points="42.70000000000073,38.3465 52.29999999999927,38.3465" fill="none" stroke="#000000" stroke-width="0.80" />
<polyline points="42.70000000000073,43.3465 52.29999999999927,43.3465" fill="none" stroke="#000000" stroke-width="0.80" />
<polyline points="42.70000000000073,48.3465 52.29999999999927,48.3465" fill="none" stroke="#000000" stroke-width="0.80" />
<polyline points="42.70000000000073,53.3465 52.29999999999927,53.3465" fill="none" stroke="#000000" stroke-width="0.80" />
<polyline points="42.70000000000073,58.3465 52.29999999999927,58.3465" fill="none" stroke="#000000" stroke-width="0.80" />
<polyline points="11.299999999999272,193.346 20.799999999999272,193.346" fill="none" stroke="#000000" stroke-width="0.80" />
<polyline points="11.299999999999272,60.8465 20.799999999999272,60.8465" fill="none" stroke="#000000" stroke-width="0.80" />
<polyline points="11.299999999999272,65.8465 20.799999999999272,65.8465" fill="none" stroke="#000000" stroke-width="0.80" />
<polyline points="11.299999999999272,70.8465 20.799999999999272,70.8465" fill="none" stroke="#000000" stroke-width="0.80" />
<polyline points="11.299999999999272,75.8465 20.799999999999272,75.8465" fill="none" stroke="#000000" stroke-width="0.80" />
<polyline points="11.299999999999272,80.8465 20.799999999999272,80.8465" fill="none" stroke="#000000" stroke-width="0.80" />
<polyline points="11.299999999999272,85.8465 20.799999999999272,85.8465" fill="none" stroke="#000000" stroke-width="0.80" />
<polyline points="11.299999999999272,90.8465 20.799999999999272,90.8465" fill="none" stroke="#000000" stroke-width="0.80" />
<polyline points="11.299999999999272,95.8465 20.799999999999272,95.8465" fill="none" stroke="#000000" stroke-width="0.80" />
<polyline points="11.299999999999272,100.846 20.799999999999272,100.846" fill="none" stroke="#000000" stroke-width="0.80" />
<polyline points="11.299999999999272,105.846 20.799999999999272,105.846" fill="none" stroke="#000000" stroke-width="0.80" />
<polyline points="11.299999999999272,110.846 20.799999999999272,110.846" fill="none" stroke="#000000" stroke-width="0.80" />
<polyline points="11.299999999999272,38.3465 20.799999999999272,38.3465" fill="none" stroke="#000000" stroke-width="0.80" />
<polyline points="11.299999999999272,43.3465 20.799999999999272,43.3465" fill="none" stroke="#000000" stroke-width="0.80" />
<polyline points="11.299999999999272,48.3465 20.799999999999272,48.3465" fill="none" stroke="#000000" stroke-width="0.80" />
<polyline points="11.299999999999272,53.3465 20.799999999999272,53.3465" fill="none" stroke="#000000" stroke-width="0.80" />
<polyline points="11.299999999999272,58.3465 20.799999999999272,58.3465" fill="none" stroke="#000000" stroke-width="0.80" />
<polyline points="50.79999999999927,56.8465 50.79999999999927,105.846" fill="" stroke="#000000" stroke-width="0.75" />
<polyline points="50.79999999999927,34.3465 50.79999999999927,53.3465" fill="" stroke="#000000" stroke-width="0.75" />
<polyline points="19.299999999999272,56.8465 19.299999999999272,105.846" fill="" stroke="#000000" stroke-width="0.75" />
<polyline points="19.299999999999272,34.3465 19.299999999999272,53.3465" fill="" stroke="#000000" stroke-width="0.75" />
</svg>
