<?xml version="1.0" encoding="UTF-8" standalone="yes"?>
<svg width="256.0px" height="256.0px" xmlns="http://www.w3.org/2000/svg" xmlns:xlink="http://www.w3.org/1999/xlink" version="1.2" baseProfile="tiny">
<polyline points="22.170000000000073,63.3465 255.0,63.3465" fill="none" stroke="#000000" stroke-width="0.40" />
<polyline points="22.170000000000073,68.3465 255.0,68.3465" fill="none" stroke="#000000" stroke-width="0.40" />
<polyline points="22.170000000000073,73.3465 255.0,73.3465" fill="none" stroke="#000000" stroke-width="0.40" />
<polyline points="22.170000000000073,78.3465 255.0,78.3465" fill="none" stroke="#000000" stroke-width="0.40" />
<polyline points="22.170000000000073,83.3465 255.0,83.3465" fill="none" stroke="#000000" stroke-width="0.40" />
<polyline points="22.170000000000073,115.846 255.0,115.846" fill="none" stroke="#000000" stroke-width="0.40" />
<polyline points="22.170000000000073,120.846 255.0,120.846" fill="none" stroke="#000000" stroke-width="0.40" />
<polyline points="22.170000000000073,125.846 255.0,125.846" fill="none" stroke="#000000" stroke-width="0.40" />
<polyline points="22.170000000000073,130.846 255.0,130.846" fill="none" stroke="#000000" stroke-width="0.40" />
<polyline points="22.170000000000073,135.846 255.0,135.846" fill="none" stroke="#000000" stroke-width="0.40" />
<polyline points="22.170000000000073,168.346 255.0,168.346" fill="none" stroke="#000000" stroke-width="0.40" />
<polyline points="22.170000000000073,173.346 255.0,173.346" fill="none" stroke="#000000" stroke-width="0.40" />
<polyline points="22.170000000000073,178.346 255.0,178.346" fill="none" stroke="#000000" stroke-width="0.40" />
<polyline points="22.170000000000073,183.346 255.0,183.346" fill="none" stroke="#000000" stroke-width="0.40" />
<polyline points="22.170000000000073,188.346 255.0,188.346" fill="none" stroke="#000000" stroke-width="0.40" />
<polyline points="22.170000000000073,220.846 255.0,220.846" fill="none" stroke="#000000" stroke-width="0.40" />
<polyline points="22.170000000000073,225.846 255.0,225.846" fill="none" stroke="#000000" stroke-width="0.40" />
<polyline points="22.170000000000073,230.846 255.0,230.846" fill="none" stroke="#000000" stroke-width="0.40" />
<polyline points="22.170000000000073,235.846 255.0,235.846" fill="none" stroke="#000000" stroke-width="0.40" />
<polyline points="22.170000000000073,240.846 255.0,240.846" fill="none" stroke="#000000" stroke-width="0.40" />
<polyline points="22.569999999999936,63.3465 22.569999999999936,255.0" fill="" stroke="#000000" stroke-width="0.80" />
<polyline points="247.66000000000008,236.786 247.66000000000008,250.846" fill="" stroke="#000000" stroke-width="0.65" />
<polyline points="231.43000000000006,226.786 231.43000000000006,250.846" fill="" stroke="#000000" stroke-width="0.65" />
<polyline points="215.20000000000005,236.786 215.20000000000005,250.846" fill="" stroke="#000000" stroke-width="0.65" />
<polyline points="198.81999999999994,234.907 198.81999999999994,220.846" fill="" stroke="#000000" stroke-width="0.65" />
<polyline points="176.51,234.907 176.51,220.846" fill="" stroke="#000000" stroke-width="0.65" />
<polyline points="176.69000000000005,195.078 176.69000000000005,158.971" fill="" stroke="#000000" stroke-width="0.65" />
<polyline points="154.19000000000005,232.407 154.19000000000005,219.596" fill="" stroke="#000000" stroke-width="0.65" />
<polyline points="132.02999999999997,89.2855 132.02999999999997,129.596" fill="" stroke="#000000" stroke-width="0.65" />
<polyline points="132.02999999999997,66.7855 132.02999999999997,87.0965" fill="" stroke="#000000" stroke-width="0.65" />
<polyline points="120.20000000000005,86.7855 120.20000000000005,129.596" fill="" stroke="#000000" stroke-width="0.65" />
<polyline points="120.20000000000005,64.2855 120.20000000000005,87.0965" fill="" stroke="#000000" stroke-width="0.65" />
<polyline points="114.29999999999995,232.407 114.29999999999995,219.596" fill="" stroke="#000000" stroke-width="0.65" />
<polyline points="108.36999999999989,89.2855 108.36999999999989,129.596" fill="" stroke="#000000" stroke-width="0.65" />
<polyline points="108.36999999999989,66.7855 108.36999999999989,87.0965" fill="" stroke="#000000" stroke-width="0.65" />
<polyline points="91.98000000000002,232.407 91.98000000000002,219.596" fill="" stroke="#000000" stroke-width="0.65" />
<polyline points="86.04999999999995,101.786 86.04999999999995,124.596" fill="" stroke="#000000" stroke-width="0.65" />
<polyline points="91.98000000000002,77.4074 91.98000000000002,63.3465" fill="" stroke="#000000" stroke-width="0.65" />
<polyline points="69.67000000000007,232.407 69.67000000000007,219.596" fill="" stroke="#000000" stroke-width="0.65" />
<polyline points="69.84999999999991,192.578 69.84999999999991,157.096" fill="" stroke="#000000" stroke-width="0.65" />
<polyline points="63.74000000000001,111.786 63.74000000000001,127.096" fill="" stroke="#000000" stroke-width="0.65" />
<polyline points="69.67000000000007,87.4074 69.67000000000007,68.3465" fill="" stroke="#000000" stroke-width="0.65" />
<polyline points="168.56999999999994,193.346 178.51,193.346" fill="" stroke="#000000" stroke-width="0.80" />
<polyline points="130.21000000000004,90.8465 139.78999999999996,90.8465" fill="" stroke="#000000" stroke-width="0.80" />
<polyline points="130.21000000000004,95.8465 139.78999999999996,95.8465" fill="" stroke="#000000" stroke-width="0.80" />
<polyline points="130.21000000000004,100.846 139.78999999999996,100.846" fill="" stroke="#000000" stroke-width="0.80" />
<polyline points="130.21000000000004,105.846 139.78999999999996,105.846" fill="" stroke="#000000" stroke-width="0.80" />
<polyline points="130.21000000000004,110.846 139.78999999999996,110.846" fill="" stroke="#000000" stroke-width="0.80" />
<polyline points="118.36999999999989,85.8465 127.96000000000004,85.8465" fill="" stroke="#000000" stroke-width="0.80" />
<polyline points="118.36999999999989,90.8465 127.96000000000004,90.8465" fill="" stroke="#000000" stroke-width="0.80" />
<polyline points="118.36999999999989,95.8465 127.96000000000004,95.8465" fill="" stroke="#000000" stroke-width="0.80" />
<polyline points="118.36999999999989,100.846 127.96000000000004,100.846" fill="" stroke="#000000" stroke-width="0.80" />
<polyline points="118.36999999999989,105.846 127.96000000000004,105.846" fill="" stroke="#000000" stroke-width="0.80" />
<polyline points="118.36999999999989,110.846 127.96000000000004,110.846" fill="" stroke="#000000" stroke-width="0.80" />
<polyline points="106.53999999999996,90.8465 116.11999999999989,90.8465" fill="" stroke="#000000" stroke-width="0.80" />
<polyline points="106.53999999999996,95.8465 116.11999999999989,95.8465" fill="" stroke="#000000" stroke-width="0.80" />
<polyline points="106.53999999999996,100.846 116.11999999999989,100.846" fill="" stroke="#000000" stroke-width="0.80" />
<polyline points="106.53999999999996,105.846 116.11999999999989,105.846" fill="" stroke="#000000" stroke-width="0.80" />
<polyline points="106.53999999999996,110.846 116.11999999999989,110.846" fill="" stroke="#000000" stroke-width="0.80" />
<polyline points="84.23000000000002,100.846 93.80999999999995,100.846" fill="" stroke="#000000" stroke-width="0.80" />
<polyline points="84.23000000000002,105.846 93.80999999999995,105.846" fill="" stroke="#000000" stroke-width="0.80" />
<polyline points="84.23000000000002,110.846 93.80999999999995,110.846" fill="" stroke="#000000" stroke-width="0.80" />
<polyline points="61.73000000000002,193.346 71.68000000000006,193.346" fill="" stroke="#000000" stroke-width="0.80" />
<polyline points="61.91000000000008,110.846 71.5,110.846" fill="" stroke="#000000" stroke-width="0.80" />
<polyline points="61.91000000000008,88.3465 71.5,88.3465" fill="" stroke="#000000" stroke-width="0.80" />
</svg>
