<?xml version="1.0" encoding="UTF-8" standalone="yes"?>
<svg width="256.0px" height="256.0px" xmlns="http://www.w3.org/2000/svg" xmlns:xlink="http://www.w3.org/1999/xlink" version="1.2" baseProfile="tiny">
<polyline points="0.0,63.3465 255.0,63.3465" fill="none" stroke="#000000" stroke-width="0.40" />
<polyline points="0.0,68.3465 255.0,68.3465" fill="none" stroke="#000000" stroke-width="0.40" />
<polyline points="0.0,73.3465 255.0,73.3465" fill="none" stroke="#000000" stroke-width="0.40" />
<polyline points="0.0,78.3465 255.0,78.3465" fill="none" stroke="#000000" stroke-width="0.40" />
<polyline points="0.0,83.3465 255.0,83.3465" fill="none" stroke="#000000" stroke-width="0.40" />
<polyline points="0.0,115.846 255.0,115.846" fill="none" stroke="#000000" stroke-width="0.40" />
<polyline points="0.0,120.846 255.0,120.846" fill="none" stroke="#000000" stroke-width="0.40" />
<polyline points="0.0,125.846 255.0,125.846" fill="none" stroke="#000000" stroke-width="0.40" />
<polyline points="0.0,130.846 255.0,130.846" fill="none" stroke="#000000" stroke-width="0.40" />
<polyline points="0.0,135.846 255.0,135.846" fill="none" stroke="#000000" stroke-width="0.40" />
<polyline points="0.0,168.346 255.0,168.346" fill="none" stroke="#000000" stroke-width="0.40" />
<polyline points="0.0,173.346 255.0,173.346" fill="none" stroke="#000000" stroke-width="0.40" />
<polyline points="0.0,178.346 255.0,178.346" fill="none" stroke="#000000" stroke-width="0.40" />
<polyline points="0.0,183.346 255.0,183.346" fill="none" stroke="#000000" stroke-width="0.40" />
<polyline points="0.0,188.346 255.0,188.346" fill="none" stroke="#000000" stroke-width="0.40" />
<polyline points="0.0,220.846 255.0,220.846" fill="none" stroke="#000000" stroke-width="0.40" />
<polyline points="0.0,225.846 255.0,225.846" fill="none" stroke="#000000" stroke-width="0.40" />
<polyline points="0.0,230.846 255.0,230.846" fill="none" stroke="#000000" stroke-width="0.40" />
<polyline points="0.0,235.846 255.0,235.846" fill="none" stroke="#000000" stroke-width="0.40" />
<polyline points="0.0,240.846 255.0,240.846" fill="none" stroke="#000000" stroke-width="0.40" />
<polyline points="237.59999999999854,224.286 237.59999999999854,239.596" fill="none" stroke="#000000" stroke-width="0.65" />
<polyline points="243.59999999999854,191.362 243.59999999999854,154.596" fill="none" stroke="#000000" stroke-width="0.65" />
<polyline points="237.59999999999854,61.7855 237.59999999999854,124.596" fill="none" stroke="#000000" stroke-width="0.65" />
<polyline points="237.59999999999854,39.2855 237.59999999999854,72.0965" fill="none" stroke="#000000" stroke-width="0.65" />
<polyline points="212.09999999999854,191.362 212.09999999999854,154.596" fill="none" stroke="#000000" stroke-width="0.65" />
<polyline points="206.20000000000073,61.7855 206.20000000000073,124.596" fill="none" stroke="#000000" stroke-width="0.65" />
<polyline points="206.20000000000073,39.2855 206.20000000000073,72.0965" fill="none" stroke="#000000" stroke-width="0.65" />
<polyline points="180.59999999999854,191.362 180.59999999999854,154.596" fill="none" stroke="#000000" stroke-width="0.65" />
<polyline points="174.70000000000073,61.7855 174.70000000000073,124.596" fill="none" stroke="#000000" stroke-width="0.65" />
<polyline points="174.70000000000073,39.2855 174.70000000000073,72.0965" fill="none" stroke="#000000" stroke-width="0.65" />
<polyline points="143.29999999999927,224.286 143.29999999999927,239.596" fill="none" stroke="#000000" stroke-width="0.65" />
<polyline points="149.20000000000073,191.362 149.20000000000073,154.596" fill="none" stroke="#000000" stroke-width="0.65" />
<polyline points="143.29999999999927,61.7855 143.29999999999927,124.596" fill="none" stroke="#000000" stroke-width="0.65" />
<polyline points="143.29999999999927,39.2855 143.29999999999927,72.0965" fill="none" stroke="#000000" stroke-width="0.65" />
<polyline points="111.79999999999927,61.7855 111.79999999999927,124.596" fill="none" stroke="#000000" stroke-width="0.65" />
<polyline points="111.79999999999927,39.2855 111.79999999999927,72.0965" fill="none" stroke="#000000" stroke-width="0.65" />
<polyline points="80.29999999999927,224.286 80.29999999999927,239.596" fill="none" stroke="#000000" stroke-width="0.65" />
<polyline points="86.29999999999927,192.407 86.29999999999927,154.596" fill="none" stroke="#000000" stroke-width="0.65" />
<polyline points="80.29999999999927,61.7855 80.29999999999927,124.596" fill="none" stroke="#000000" stroke-width="0.65" />
<polyline points="80.29999999999927,39.2855 80.29999999999927,72.0965" fill="none" stroke="#000000" stroke-width="0.65" />
<polyline points="48.900000000001455,226.786 48.900000000001455,240.846" fill="none" stroke="#000000" stroke-width="0.65" />
<polyline points="54.79999999999927,192.407 54.79999999999927,154.596" fill="none" stroke="#000000" stroke-width="0.65" />
<polyline points="48.900000000001455,61.7855 48.900000000001455,124.596" fill="none" stroke="#000000" stroke-width="0.65" />
<polyline points="48.900000000001455,39.2855 48.900000000001455,72.0965" fill="none" stroke="#000000" stroke-width="0.65" />
<polyline points="17.400000000001455,226.786 17.400000000001455,240.846" fill="none" stroke="#000000" stroke-width="0.65" />
<polyline points="23.400000000001455,191.362 23.400000000001455,154.596" fill="none" stroke="#000000" stroke-width="0.65" />
<polyline points="17.400000000001455,61.7855 17.400000000001455,124.596" fill="none" stroke="#000000" stroke-width="0.65" />
<polyline points="17.400000000001455,39.2855 17.400000000001455,72.0965" fill="none" stroke="#000000" stroke-width="0.65" />
<polyline points="235.79999999999927,193.346 245.40000000000146,193.346" fill="none" stroke="#000000" stroke-width="0.80" />
<polyline points="235.79999999999927,60.8465 245.40000000000146,60.8465" fill="none" stroke="#000000" stroke-width="0.80" />
<polyline points="235.79999999999927,65.8465 245.40000000000146,65.8465" fill="none" stroke="#000000" stroke-width="0.80" />
<polyline points="235.79999999999927,70.8465 245.40000000000146,70.8465" fill="none" stroke="#000000" stroke-width="0.80" />
<polyline points="235.79999999999927,75.8465 245.40000000000146,75.8465" fill="none" stroke="#000000" stroke-width="0.80" />
<polyline points="235.79999999999927,80.8465 245.40000000000146,80.8465" fill="none" stroke="#000000" stroke-width="0.80" />
<polyline points="235.79999999999927,85.8465 245.40000000000146,85.8465" fill="none" stroke="#000000" stroke-width="0.80" />
<polyline points="235.79999999999927,90.8465 245.40000000000146,90.8465" fill="none" stroke="#000000" stroke-width="0.80" />
<polyline points="235.79999999999927,95.8465 245.40000000000146,95.8465" fill="none" stroke="#000000" stroke-width="0.80" />
<polyline points="235.79999999999927,100.846 245.40000000000146,100.846" fill="none" stroke="#000000" stroke-width="0.80" />
<polyline points="235.79999999999927,105.846 245.40000000000146,105.846" fill="none" stroke="#000000" stroke-width="0.80" />
<polyline points="235.79999999999927,110.846 245.40000000000146,110.846" fill="none" stroke="#000000" stroke-width="0.80" />
<polyline points="235.79999999999927,38.3465 245.40000000000146,38.3465" fill="none" stroke="#000000" stroke-width="0.80" />
<polyline points="235.79999999999927,43.3465 245.40000000000146,43.3465" fill="none" stroke="#000000" stroke-width="0.80" />
<polyline points="235.79999999999927,48.3465 245.40000000000146,48.3465" fill="none" stroke="#000000" stroke-width="0.80" />
<polyline points="235.79999999999927,53.3465 245.40000000000146,53.3465" fill="none" stroke="#000000" stroke-width="0.80" />
<polyline points="235.79999999999927,58.3465 245.40000000000146,58.3465" fill="none" stroke="#000000" stroke-width="0.80" />
<polyline points="204.29999999999927,193.346 213.90000000000146,193.346" fill="none" stroke="#000000" stroke-width="0.80" />
<polyline points="204.29999999999927,60.8465 213.90000000000146,60.8465" fill="none" stroke="#000000" stroke-width="0.80" />
<polyline points="204.29999999999927,65.8465 213.90000000000146,65.8465" fill="none" stroke="#000000" stroke-width="0.80" />
<polyline points="204.29999999999927,70.8465 213.90000000000146,70.8465" fill="none" stroke="#000000" stroke-width="0.80" />
<polyline points="204.29999999999927,75.8465 213.90000000000146,75.8465" fill="none" stroke="#000000" stroke-width="0.80" />
<polyline points="204.29999999999927,80.8465 213.90000000000146,80.8465" fill="none" stroke="#000000" stroke-width="0.80" />
<polyline points="204.29999999999927,85.8465 213.90000000000146,85.8465" fill="none" stroke="#000000" stroke-width="0.80" />
<polyline points="204.29999999999927,90.8465 213.90000000000146,90.8465" fill="none" stroke="#000000" stroke-width="0.80" />
<polyline points="204.29999999999927,95.8465 213.90000000000146,95.8465" fill="none" stroke="#000000" stroke-width="0.80" />
<polyline points="204.29999999999927,100.846 213.90000000000146,100.846" fill="none" stroke="#000000" stroke-width="0.80" />
<polyline points="204.29999999999927,105.846 213.90000000000146,105.846" fill="none" stroke="#000000" stroke-width="0.80" />
<polyline points="204.29999999999927,110.846 213.90000000000146,110.846" fill="none" stroke="#000000" stroke-width="0.80" />
<polyline points="204.29999999999927,38.3465 213.90000000000146,38.3465" fill="none" stroke="#000000" stroke-width="0.80" />
<polyline points="204.29999999999927,43.3465 213.90000000000146,43.3465" fill="none" stroke="#000000" stroke-width="0.80" />
<polyline points="204.29999999999927,48.3465 213.90000000000146,48.3465" fill="none" stroke="#000000" stroke-width="0.80" />
<polyline points="204.29999999999927,53.3465 213.90000000000146,53.3465" fill="none" stroke="#000000" stroke-width="0.80" />
<polyline points="204.29999999999927,58.3465 213.90000000000146,58.3465" fill="none" stroke="#000000" stroke-width="0.80" />
<polyline points="172.90000000000146,193.346 182.5,193.346" fill="none" stroke="#000000" stroke-width="0.80" />
<polyline points="172.90000000000146,60.8465 182.5,60.8465" fill="none" stroke="#000000" stroke-width="0.80" />
<polyline points="172.90000000000146,65.8465 182.5,65.8465" fill="none" stroke="#000000" stroke-width="0.80" />
<polyline points="172.90000000000146,70.8465 182.5,70.8465" fill="none" stroke="#000000" stroke-width="0.80" />
<polyline points="172.90000000000146,75.8465 182.5,75.8465" fill="none" stroke="#000000" stroke-width="0.80" />
<polyline points="172.90000000000146,80.8465 182.5,80.8465" fill="none" stroke="#000000" stroke-width="0.80" />
<polyline points="172.90000000000146,85.8465 182.5,85.8465" fill="none" stroke="#000000" stroke-width="0.80" />
<polyline points="172.90000000000146,90.8465 182.5,90.8465" fill="none" stroke="#000000" stroke-width="0.80" />
<polyline points="172.90000000000146,95.8465 182.5,95.8465" fill="none" stroke="#000000" stroke-width="0.80" />
<polyline points="172.90000000000146,100.846 182.5,100.846" fill="none" stroke="#000000" stroke-width="0.80" />
<polyline points="172.90000000000146,105.846 182.5,105.846" fill="none" stroke="#000000" stroke-width="0.80" />
<polyline points="172.90000000000146,110.846 182.5,110.846" fill="none" stroke="#000000" stroke-width="0.80" />
<polyline points="172.90000000000146,38.3465 182.5,38.3465" fill="none" stroke="#000000" stroke-width="0.80" />
<polyline points="172.90000000000146,43.3465 182.5,43.3465" fill="none" stroke="#000000" stroke-width="0.80" />
<polyline points="172.90000000000146,48.3465 182.5,48.3465" fill="none" stroke="#000000" stroke-width="0.80" />
<polyline points="172.90000000000146,53.3465 182.5,53.3465" fill="none" stroke="#000000" stroke-width="0.80" />
<polyline points="172.90000000000146,58.3465 182.5,58.3465" fill="none" stroke="#000000" stroke-width="0.80" />
<polyline points="141.40000000000146,193.346 151.0,193.346" fill="none" stroke="#000000" stroke-width="0.80" />
<polyline points="141.40000000000146,60.8465 151.0,60.8465" fill="none" stroke="#000000" stroke-width="0.80" />
<polyline points="141.40000000000146,65.8465 151.0,65.8465" fill="none" stroke="#000000" stroke-width="0.80" />
<polyline points="141.40000000000146,70.8465 151.0,70.8465" fill="none" stroke="#000000" stroke-width="0.80" />
<polyline points="141.40000000000146,75.8465 151.0,75.8465" fill="none" stroke="#000000" stroke-width="0.80" />
<polyline points="141.40000000000146,80.8465 151.0,80.8465" fill="none" stroke="#000000" stroke-width="0.80" />
<polyline points="141.40000000000146,85.8465 151.0,85.8465" fill="none" stroke="#000000" stroke-width="0.80" />
<polyline points="141.40000000000146,90.8465 151.0,90.8465" fill="none" stroke="#000000" stroke-width="0.80" />
<polyline points="141.40000000000146,95.8465 151.0,95.8465" fill="none" stroke="#000000" stroke-width="0.80" />
<polyline points="141.40000000000146,100.846 151.0,100.846" fill="none" stroke="#000000" stroke-width="0.80" />
<polyline points="141.40000000000146,105.846 151.0,105.846" fill="none" stroke="#000000" stroke-width="0.80" />
<polyline points="141.40000000000146,110.846 151.0,110.846" fill="none" stroke="#000000" stroke-width="0.80" />
<polyline points="141.40000000000146,38.3465 151.0,38.3465" fill="none" stroke="#000000" stroke-width="0.80" />
<polyline points="141.40000000000146,43.3465 151.0,43.3465" fill="none" stroke="#000000" stroke-width="0.80" />
<polyline points="141.40000000000146,48.3465 151.0,48.3465" fill="none" stroke="#000000" stroke-width="0.80" />
<polyline points="141.40000000000146,53.3465 151.0,53.3465" fill="none" stroke="#000000" stroke-width="0.80" />
<polyline points="141.40000000000146,58.3465 151.0,58.3465" fill="none" stroke="#000000" stroke-width="0.80" />
<polyline points="110.0,60.8465 119.59999999999854,60.8465" fill="none" stroke="#000000" stroke-width="0.80" />
<polyline points="110.0,65.8465 119.59999999999854,65.8465" fill="none" stroke="#000000" stroke-width="0.80" />
<polyline points="110.0,70.8465 119.59999999999854,70.8465" fill="none" stroke="#000000" stroke-width="0.80" />
<polyline points="110.0,75.8465 119.59999999999854,75.8465" fill="none" stroke="#000000" stroke-width="0.80" />
<polyline points="110.0,80.8465 119.59999999999854,80.8465" fill="none" stroke="#000000" stroke-width="0.80" />
<polyline points="110.0,85.8465 119.59999999999854,85.8465" fill="none" stroke="#000000" stroke-width="0.80" />
<polyline points="110.0,90.8465 119.59999999999854,90.8465" fill="none" stroke="#000000" stroke-width="0.80" />
<polyline points="110.0,95.8465 119.59999999999854,95.8465" fill="none" stroke="#000000" stroke-width="0.80" />
<polyline points="110.0,100.846 119.59999999999854,100.846" fill="none" stroke="#000000" stroke-width="0.80" />
<polyline points="110.0,105.846 119.59999999999854,105.846" fill="none" stroke="#000000" stroke-width="0.80" />
<polyline points="110.0,110.846 119.59999999999854,110.846" fill="none" stroke="#000000" stroke-width="0.80" />
<polyline points="110.0,38.3465 119.59999999999854,38.3465" fill="none" stroke="#000000" stroke-width="0.80" />
<polyline points="110.0,43.3465 119.59999999999854,43.3465" fill="none" stroke="#000000" stroke-width="0.80" />
<polyline points="110.0,48.3465 119.59999999999854,48.3465" fill="none" stroke="#000000" stroke-width="0.80" />
<polyline points="110.0,53.3465 119.59999999999854,53.3465" fill="none" stroke="#000000" stroke-width="0.80" />
<polyline points="110.0,58.3465 119.59999999999854,58.3465" fill="none" stroke="#000000" stroke-width="0.80" />
<polyline points="78.5,193.346 88.09999999999854,193.346" fill="none" stroke="#000000" stroke-width="0.80" />
<polyline points="78.5,60.8465 88.09999999999854,60.8465" fill="none" stroke="#000000" stroke-width="0.80" />
<polyline points="78.5,65.8465 88.09999999999854,65.8465" fill="none" stroke="#000000" stroke-width="0.80" />
<polyline points="78.5,70.8465 88.09999999999854,70.8465" fill="none" stroke="#000000" stroke-width="0.80" />
<polyline points="78.5,75.8465 88.09999999999854,75.8465" fill="none" stroke="#000000" stroke-width="0.80" />
<polyline points="78.5,80.8465 88.09999999999854,80.8465" fill="none" stroke="#000000" stroke-width="0.80" />
<polyline points="78.5,85.8465 88.09999999999854,85.8465" fill="none" stroke="#000000" stroke-width="0.80" />
<polyline points="78.5,90.8465 88.09999999999854,90.8465" fill="none" stroke="#000000" stroke-width="0.80" />
<polyline points="78.5,95.8465 88.09999999999854,95.8465" fill="none" stroke="#000000" stroke-width="0.80" />
<polyline points="78.5,100.846 88.09999999999854,100.846" fill="none" stroke="#000000" stroke-width="0.80" />
<polyline points="78.5,105.846 88.09999999999854,105.846" fill="none" stroke="#000000" stroke-width="0.80" />
<polyline points="78.5,110.846 88.09999999999854,110.846" fill="none" stroke="#000000" stroke-width="0.80" />
<polyline points="78.5,38.3465 88.09999999999854,38.3465" fill="none" stroke="#000000" stroke-width="0.80" />
<polyline points="78.5,43.3465 88.09999999999854,43.3465" fill="none" stroke="#000000" stroke-width="0.80" />
<polyline points="78.5,48.3465 88.09999999999854,48.3465" fill="none" stroke="#000000" stroke-width="0.80" />
<polyline points="78.5,53.3465 88.09999999999854,53.3465" fill="none" stroke="#000000" stroke-width="0.80" />
<polyline points="78.5,58.3465 88.09999999999854,58.3465" fill="none" stroke="#000000" stroke-width="0.80" />
<polyline points="47.099999999998545,193.346 56.599999999998545,193.346" fill="none" stroke="#000000" stroke-width="0.80" />
<polyline points="47.099999999998545,60.8465 56.599999999998545,60.8465" fill="none" stroke="#000000" stroke-width="0.80" />
<polyline points="47.099999999998545,65.8465 56.599999999998545,65.8465" fill="none" stroke="#000000" stroke-width="0.80" />
<polyline points="47.099999999998545,70.8465 56.599999999998545,70.8465" fill="none" stroke="#000000" stroke-width="0.80" />
<polyline points="47.099999999998545,75.8465 56.599999999998545,75.8465" fill="none" stroke="#000000" stroke-width="0.80" />
<polyline points="47.099999999998545,80.8465 56.599999999998545,80.8465" fill="none" stroke="#000000" stroke-width="0.80" />
<polyline points="47.099999999998545,85.8465 56.599999999998545,85.8465" fill="none" stroke="#000000" stroke-width="0.80" />
<polyline points="47.099999999998545,90.8465 56.599999999998545,90.8465" fill="none" stroke="#000000" stroke-width="0.80" />
<polyline points="47.099999999998545,95.8465 56.599999999998545,95.8465" fill="none" stroke="#000000" stroke-width="0.80" />
<polyline points="47.099999999998545,100.846 56.599999999998545,100.846" fill="none" stroke="#000000" stroke-width="0.80" />
<polyline points="47.099999999998545,105.846 56.599999999998545,105.846" fill="none" stroke="#000000" stroke-width="0.80" />
<polyline points="47.099999999998545,110.846 56.599999999998545,110.846" fill="none" stroke="#000000" stroke-width="0.80" />
<polyline points="47.099999999998545,38.3465 56.599999999998545,38.3465" fill="none" stroke="#000000" stroke-width="0.80" />
<polyline points="47.099999999998545,43.3465 56.599999999998545,43.3465" fill="none" stroke="#000000" stroke-width="0.80" />
<polyline points="47.099999999998545,48.3465 56.599999999998545,48.3465" fill="none" stroke="#000000" stroke-width="0.80" />
<polyline points="47.099999999998545,53.3465 56.599999999998545,53.3465" fill="none" stroke="#000000" stroke-width="0.80" />
<polyline points="47.099999999998545,58.3465 56.599999999998545,58.3465" fill="none" stroke="#000000" stroke-width="0.80" />
<polyline points="15.599999999998545,193.346 25.200000000000728,193.346" fill="none" stroke="#000000" stroke-width="0.80" />
<polyline points="15.599999999998545,60.8465 25.200000000000728,60.8465" fill="none" stroke="#000000" stroke-width="0.80" />
<polyline points="15.599999999998545,65.8465 25.200000000000728,65.8465" fill="none" stroke="#000000" stroke-width="0.80" />
<polyline points="15.599999999998545,70.8465 25.200000000000728,70.8465" fill="none" stroke="#000000" stroke-width="0.80" />
<polyline points="15.599999999998545,75.8465 25.200000000000728,75.8465" fill="none" stroke="#000000" stroke-width="0.80" />
<polyline points="15.599999999998545,80.8465 25.200000000000728,80.8465" fill="none" stroke="#000000" stroke-width="0.80" />
<polyline points="15.599999999998545,85.8465 25.200000000000728,85.8465" fill="none" stroke="#000000" stroke-width="0.80" />
<polyline points="15.599999999998545,90.8465 25.200000000000728,90.8465" fill="none" stroke="#000000" stroke-width="0.80" />
<polyline points="15.599999999998545,95.8465 25.200000000000728,95.8465" fill="none" stroke="#000000" stroke-width="0.80" />
<polyline points="15.599999999998545,100.846 25.200000000000728,100.846" fill="none" stroke="#000000" stroke-width="0.80" />
<polyline points="15.599999999998545,105.846 25.200000000000728,105.846" fill="none" stroke="#000000" stroke-width="0.80" />
<polyline points="15.599999999998545,110.846 25.200000000000728,110.846" fill="none" stroke="#000000" stroke-width="0.80" />
<polyline points="15.599999999998545,38.3465 25.200000000000728,38.3465" fill="none" stroke="#000000" stroke-width="0.80" />
<polyline points="15.599999999998545,43.3465 25.200000000000728,43.3465" fill="none" stroke="#000000" stroke-width="0.80" />
<polyline points="15.599999999998545,48.3465 25.200000000000728,48.3465" fill="none" stroke="#000000" stroke-width="0.80" />
<polyline points="15.599999999998545,53.3465 25.200000000000728,53.3465" fill="none" stroke="#000000" stroke-width="0.80" />
<polyline points="15.599999999998545,58.3465 25.200000000000728,58.3465" fill="none" stroke="#000000" stroke-width="0.80" />
<polyline points="243.90000000000146,56.8465 243.90000000000146,105.846" fill="" stroke="#000000" stroke-width="0.75" />
<polyline points="243.90000000000146,34.3465 243.90000000000146,53.3465" fill="" stroke="#000000" stroke-width="0.75" />
<polyline points="212.40000000000146,56.8465 212.40000000000146,105.846" fill="" stroke="#000000" stroke-width="0.75" />
<polyline points="212.40000000000146,34.3465 212.40000000000146,53.3465" fill="" stroke="#000000" stroke-width="0.75" />
<polyline points="181.0,56.8465 181.0,105.846" fill="" stroke="#000000" stroke-width="0.75" />
<polyline points="181.0,34.3465 181.0,53.3465" fill="" stroke="#000000" stroke-width="0.75" />
<polyline points="149.5,56.8465 149.5,105.846" fill="" stroke="#000000" stroke-width="0.75" />
<polyline points="149.5,34.3465 149.5,53.3465" fill="" stroke="#000000" stroke-width="0.75" />
<polyline points="118.09999999999854,56.8465 118.09999999999854,105.846" fill="" stroke="#000000" stroke-width="0.75" />
<polyline points="118.09999999999854,34.3465 118.09999999999854,53.3465" fill="" stroke="#000000" stroke-width="0.75" />
<polyline points="86.59999999999854,56.8465 86.59999999999854,105.846" fill="" stroke="#000000" stroke-width="0.75" />
<polyline points="86.59999999999854,34.3465 86.59999999999854,53.3465" fill="" stroke="#000000" stroke-width="0.75" />
<polyline points="55.099999999998545,56.8465 55.099999999998545,105.846" fill="" stroke="#000000" stroke-width="0.75" />
<polyline points="55.099999999998545,34.3465 55.099999999998545,53.3465" fill="" stroke="#000000" stroke-width="0.75" />
<polyline points="23.700000000000728,56.8465 23.700000000000728,105.846" fill="" stroke="#000000" stroke-width="0.75" />
<polyline points="23.700000000000728,34.3465 23.700000000000728,53.3465" fill="" stroke="#000000" stroke-width="0.75" />
</svg>
