<?xml version="1.0" encoding="UTF-8" standalone="yes"?>
<svg width="256.0px" height="256.0px" xmlns="http://www.w3.org/2000/svg" xmlns:xlink="http://www.w3.org/1999/xlink" version="1.2" baseProfile="tiny">
<polyline points="0.0,13.846000000000004 76.5,13.846000000000004" fill="none" stroke="#000000" stroke-width="0.40" />
<polyline points="0.0,18.846000000000004 76.5,18.846000000000004" fill="none" stroke="#000000" stroke-width="0.40" />
<polyline points="0.0,23.846000000000004 76.5,23.846000000000004" fill="none" stroke="#000000" stroke-width="0.40" />
<polyline points="0.0,28.846000000000004 76.5,28.846000000000004" fill="none" stroke="#000000" stroke-width="0.40" />
<polyline points="0.0,33.846000000000004 76.5,33.846000000000004" fill="none" stroke="#000000" stroke-width="0.40" />
<polyline points="0.0,66.346 76.5,66.346" fill="none" stroke="#000000" stroke-width="0.40" />
<polyline points="0.0,71.346 76.5,71.346" fill="none" stroke="#000000" stroke-width="0.40" />
<polyline points="0.0,76.346 76.5,76.346" fill="none" stroke="#000000" stroke-width="0.40" />
<polyline points="0.0,81.346 76.5,81.346" fill="none" stroke="#000000" stroke-width="0.40" />
<polyline points="0.0,86.346 76.5,86.346" fill="none" stroke="#000000" stroke-width="0.40" />
<polyline points="71.59999999999854,66.346 71.59999999999854,86.346" fill="none" stroke="#000000" stroke-width="0.80" />
<polyline points="75.20000000000073,66.346 75.20000000000073,86.346" fill="none" stroke="#000000" stroke-width="2.50" />
<polyline points="71.59999999999854,13.846000000000004 71.59999999999854,33.846000000000004" fill="none" stroke="#000000" stroke-width="0.80" />
<polyline points="75.20000000000073,13.846000000000004 75.20000000000073,33.846000000000004" fill="none" stroke="#000000" stroke-width="2.50" />
<polyline points="9.700000000000728,72.28599999999994 9.700000000000728,90.096" fill="none" stroke="#000000" stroke-width="0.65" />
<polyline points="9.700000000000728,9.785999999999945 9.700000000000728,27.596000000000004" fill="none" stroke="#000000" stroke-width="0.65" />
<polyline points="7.799999999999272,8.846000000000004 17.400000000001455,8.846000000000004" fill="none" stroke="#000000" stroke-width="0.80" />
</svg>
