<?xml version="1.0" encoding="UTF-8" standalone="yes"?>
<svg width="256.0px" height="256.0px" xmlns="http://www.w3.org/2000/svg" xmlns:xlink="http://www.w3.org/1999/xlink" version="1.2" baseProfile="tiny">
<polyline points="0.0,17.346000000000004 255.0,17.346000000000004" fill="none" stroke="#000000" stroke-width="0.40" />
<polyline points="0.0,22.346000000000004 255.0,22.346000000000004" fill="none" stroke="#000000" stroke-width="0.40" />
<polyline points="0.0,27.346000000000004 255.0,27.346000000000004" fill="none" stroke="#000000" stroke-width="0.40" />
<polyline points="0.0,32.346000000000004 255.0,32.346000000000004" fill="none" stroke="#000000" stroke-width="0.40" />
<polyline points="0.0,37.346000000000004 255.0,37.346000000000004" fill="none" stroke="#000000" stroke-width="0.40" />
<polyline points="0.0,112.346 255.0,112.346" fill="none" stroke="#000000" stroke-width="0.40" />
<polyline points="0.0,117.346 255.0,117.346" fill="none" stroke="#000000" stroke-width="0.40" />
<polyline points="0.0,122.346 255.0,122.346" fill="none" stroke="#000000" stroke-width="0.40" />
<polyline points="0.0,127.346 255.0,127.346" fill="none" stroke="#000000" stroke-width="0.40" />
<polyline points="0.0,132.346 255.0,132.346" fill="none" stroke="#000000" stroke-width="0.40" />
<polyline points="0.0,164.846 255.0,164.846" fill="none" stroke="#000000" stroke-width="0.40" />
<polyline points="0.0,169.846 255.0,169.846" fill="none" stroke="#000000" stroke-width="0.40" />
<polyline points="0.0,174.846 255.0,174.846" fill="none" stroke="#000000" stroke-width="0.40" />
<polyline points="0.0,179.846 255.0,179.846" fill="none" stroke="#000000" stroke-width="0.40" />
<polyline points="0.0,184.846 255.0,184.846" fill="none" stroke="#000000" stroke-width="0.40" />
<polyline points="0.0,217.346 255.0,217.346" fill="none" stroke="#000000" stroke-width="0.40" />
<polyline points="0.0,222.346 255.0,222.346" fill="none" stroke="#000000" stroke-width="0.40" />
<polyline points="0.0,227.346 255.0,227.346" fill="none" stroke="#000000" stroke-width="0.40" />
<polyline points="0.0,232.346 255.0,232.346" fill="none" stroke="#000000" stroke-width="0.40" />
<polyline points="0.0,237.346 255.0,237.346" fill="none" stroke="#000000" stroke-width="0.40" />
<polyline points="240.70000000000073,247.86200000000002 240.70000000000073,212.346" fill="none" stroke="#000000" stroke-width="0.65" />
<polyline points="234.70000000000073,110.786 234.70000000000073,173.596" fill="none" stroke="#000000" stroke-width="0.65" />
<polyline points="234.70000000000073,88.286 234.70000000000073,121.096" fill="none" stroke="#000000" stroke-width="0.65" />
<polyline points="209.79999999999927,247.86200000000002 209.79999999999927,212.346" fill="none" stroke="#000000" stroke-width="0.65" />
<polyline points="203.79999999999927,110.786 203.79999999999927,173.596" fill="none" stroke="#000000" stroke-width="0.65" />
<polyline points="203.79999999999927,88.286 203.79999999999927,121.096" fill="none" stroke="#000000" stroke-width="0.65" />
<polyline points="178.79999999999927,247.86200000000002 178.79999999999927,212.346" fill="none" stroke="#000000" stroke-width="0.65" />
<polyline points="172.90000000000146,110.786 172.90000000000146,173.596" fill="none" stroke="#000000" stroke-width="0.65" />
<polyline points="172.90000000000146,88.286 172.90000000000146,121.096" fill="none" stroke="#000000" stroke-width="0.65" />
<polyline points="147.90000000000146,247.86200000000002 147.90000000000146,212.346" fill="none" stroke="#000000" stroke-width="0.65" />
<polyline points="142.0,110.786 142.0,173.596" fill="none" stroke="#000000" stroke-width="0.65" />
<polyline points="142.0,88.286 142.0,121.096" fill="none" stroke="#000000" stroke-width="0.65" />
<polyline points="111.09999999999854,110.786 111.09999999999854,173.596" fill="none" stroke="#000000" stroke-width="0.65" />
<polyline points="111.09999999999854,88.286 111.09999999999854,121.096" fill="none" stroke="#000000" stroke-width="0.65" />
<polyline points="80.09999999999854,110.786 80.09999999999854,173.596" fill="none" stroke="#000000" stroke-width="0.65" />
<polyline points="80.09999999999854,88.286 80.09999999999854,121.096" fill="none" stroke="#000000" stroke-width="0.65" />
<polyline points="49.20000000000073,255.786 49.20000000000073,255.0" fill="none" stroke="#000000" stroke-width="0.65" />
<polyline points="18.299999999999272,110.786 18.299999999999272,173.596" fill="none" stroke="#000000" stroke-width="0.65" />
<polyline points="18.299999999999272,88.286 18.299999999999272,121.096" fill="none" stroke="#000000" stroke-width="0.65" />
<polyline points="205.79999999999927,16.910000000000025 205.79999999999927,41.096000000000004" fill="none" stroke="#000000" stroke-width="0.65" />
<polyline points="142.90000000000146,16.910000000000025 142.90000000000146,49.846000000000004" fill="none" stroke="#000000" stroke-width="0.65" />
<polyline points="79.90000000000146,16.910000000000025 79.90000000000146,49.846000000000004" fill="none" stroke="#000000" stroke-width="0.65" />
<polyline points="48.900000000001455,25.786 48.900000000001455,41.096000000000004" fill="none" stroke="#000000" stroke-width="0.65" />
<polyline points="17.0,16.910000000000025 17.0,41.096000000000004" fill="none" stroke="#000000" stroke-width="0.65" />
<polyline points="232.90000000000146,242.346 242.5,242.346" fill="none" stroke="#000000" stroke-width="0.80" />
<polyline points="232.90000000000146,247.346 242.5,247.346" fill="none" stroke="#000000" stroke-width="0.80" />
<polyline points="232.90000000000146,109.846 242.5,109.846" fill="none" stroke="#000000" stroke-width="0.80" />
<polyline points="232.90000000000146,114.846 242.5,114.846" fill="none" stroke="#000000" stroke-width="0.80" />
<polyline points="232.90000000000146,119.846 242.5,119.846" fill="none" stroke="#000000" stroke-width="0.80" />
<polyline points="232.90000000000146,124.846 242.5,124.846" fill="none" stroke="#000000" stroke-width="0.80" />
<polyline points="232.90000000000146,129.846 242.5,129.846" fill="none" stroke="#000000" stroke-width="0.80" />
<polyline points="232.90000000000146,134.846 242.5,134.846" fill="none" stroke="#000000" stroke-width="0.80" />
<polyline points="232.90000000000146,139.846 242.5,139.846" fill="none" stroke="#000000" stroke-width="0.80" />
<polyline points="232.90000000000146,144.846 242.5,144.846" fill="none" stroke="#000000" stroke-width="0.80" />
<polyline points="232.90000000000146,149.846 242.5,149.846" fill="none" stroke="#000000" stroke-width="0.80" />
<polyline points="232.90000000000146,154.846 242.5,154.846" fill="none" stroke="#000000" stroke-width="0.80" />
<polyline points="232.90000000000146,159.846 242.5,159.846" fill="none" stroke="#000000" stroke-width="0.80" />
<polyline points="232.90000000000146,87.346 242.5,87.346" fill="none" stroke="#000000" stroke-width="0.80" />
<polyline points="232.90000000000146,92.346 242.5,92.346" fill="none" stroke="#000000" stroke-width="0.80" />
<polyline points="232.90000000000146,97.346 242.5,97.346" fill="none" stroke="#000000" stroke-width="0.80" />
<polyline points="232.90000000000146,102.346 242.5,102.346" fill="none" stroke="#000000" stroke-width="0.80" />
<polyline points="232.90000000000146,107.346 242.5,107.346" fill="none" stroke="#000000" stroke-width="0.80" />
<polyline points="202.0,242.346 211.59999999999854,242.346" fill="none" stroke="#000000" stroke-width="0.80" />
<polyline points="202.0,247.346 211.59999999999854,247.346" fill="none" stroke="#000000" stroke-width="0.80" />
<polyline points="202.0,109.846 211.59999999999854,109.846" fill="none" stroke="#000000" stroke-width="0.80" />
<polyline points="202.0,114.846 211.59999999999854,114.846" fill="none" stroke="#000000" stroke-width="0.80" />
<polyline points="202.0,119.846 211.59999999999854,119.846" fill="none" stroke="#000000" stroke-width="0.80" />
<polyline points="202.0,124.846 211.59999999999854,124.846" fill="none" stroke="#000000" stroke-width="0.80" />
<polyline points="202.0,129.846 211.59999999999854,129.846" fill="none" stroke="#000000" stroke-width="0.80" />
<polyline points="202.0,134.846 211.59999999999854,134.846" fill="none" stroke="#000000" stroke-width="0.80" />
<polyline points="202.0,139.846 211.59999999999854,139.846" fill="none" stroke="#000000" stroke-width="0.80" />
<polyline points="202.0,144.846 211.59999999999854,144.846" fill="none" stroke="#000000" stroke-width="0.80" />
<polyline points="202.0,149.846 211.59999999999854,149.846" fill="none" stroke="#000000" stroke-width="0.80" />
<polyline points="202.0,154.846 211.59999999999854,154.846" fill="none" stroke="#000000" stroke-width="0.80" />
<polyline points="202.0,159.846 211.59999999999854,159.846" fill="none" stroke="#000000" stroke-width="0.80" />
<polyline points="202.0,87.346 211.59999999999854,87.346" fill="none" stroke="#000000" stroke-width="0.80" />
<polyline points="202.0,92.346 211.59999999999854,92.346" fill="none" stroke="#000000" stroke-width="0.80" />
<polyline points="202.0,97.346 211.59999999999854,97.346" fill="none" stroke="#000000" stroke-width="0.80" />
<polyline points="202.0,102.346 211.59999999999854,102.346" fill="none" stroke="#000000" stroke-width="0.80" />
<polyline points="202.0,107.346 211.59999999999854,107.346" fill="none" stroke="#000000" stroke-width="0.80" />
<polyline points="171.09999999999854,242.346 180.70000000000073,242.346" fill="none" stroke="#000000" stroke-width="0.80" />
<polyline points="171.09999999999854,247.346 180.70000000000073,247.346" fill="none" stroke="#000000" stroke-width="0.80" />
<polyline points="171.09999999999854,109.846 180.70000000000073,109.846" fill="none" stroke="#000000" stroke-width="0.80" />
<polyline points="171.09999999999854,114.846 180.70000000000073,114.846" fill="none" stroke="#000000" stroke-width="0.80" />
<polyline points="171.09999999999854,119.846 180.70000000000073,119.846" fill="none" stroke="#000000" stroke-width="0.80" />
<polyline points="171.09999999999854,124.846 180.70000000000073,124.846" fill="none" stroke="#000000" stroke-width="0.80" />
<polyline points="171.09999999999854,129.846 180.70000000000073,129.846" fill="none" stroke="#000000" stroke-width="0.80" />
<polyline points="171.09999999999854,134.846 180.70000000000073,134.846" fill="none" stroke="#000000" stroke-width="0.80" />
<polyline points="171.09999999999854,139.846 180.70000000000073,139.846" fill="none" stroke="#000000" stroke-width="0.80" />
<polyline points="171.09999999999854,144.846 180.70000000000073,144.846" fill="none" stroke="#000000" stroke-width="0.80" />
<polyline points="171.09999999999854,149.846 180.70000000000073,149.846" fill="none" stroke="#000000" stroke-width="0.80" />
<polyline points="171.09999999999854,154.846 180.70000000000073,154.846" fill="none" stroke="#000000" stroke-width="0.80" />
<polyline points="171.09999999999854,159.846 180.70000000000073,159.846" fill="none" stroke="#000000" stroke-width="0.80" />
<polyline points="171.09999999999854,87.346 180.70000000000073,87.346" fill="none" stroke="#000000" stroke-width="0.80" />
<polyline points="171.09999999999854,92.346 180.70000000000073,92.346" fill="none" stroke="#000000" stroke-width="0.80" />
<polyline points="171.09999999999854,97.346 180.70000000000073,97.346" fill="none" stroke="#000000" stroke-width="0.80" />
<polyline points="171.09999999999854,102.346 180.70000000000073,102.346" fill="none" stroke="#000000" stroke-width="0.80" />
<polyline points="171.09999999999854,107.346 180.70000000000073,107.346" fill="none" stroke="#000000" stroke-width="0.80" />
<polyline points="140.20000000000073,242.346 149.70000000000073,242.346" fill="none" stroke="#000000" stroke-width="0.80" />
<polyline points="140.20000000000073,247.346 149.70000000000073,247.346" fill="none" stroke="#000000" stroke-width="0.80" />
<polyline points="140.20000000000073,109.846 149.70000000000073,109.846" fill="none" stroke="#000000" stroke-width="0.80" />
<polyline points="140.20000000000073,114.846 149.70000000000073,114.846" fill="none" stroke="#000000" stroke-width="0.80" />
<polyline points="140.20000000000073,119.846 149.70000000000073,119.846" fill="none" stroke="#000000" stroke-width="0.80" />
<polyline points="140.20000000000073,124.846 149.70000000000073,124.846" fill="none" stroke="#000000" stroke-width="0.80" />
<polyline points="140.20000000000073,129.846 149.70000000000073,129.846" fill="none" stroke="#000000" stroke-width="0.80" />
<polyline points="140.20000000000073,134.846 149.70000000000073,134.846" fill="none" stroke="#000000" stroke-width="0.80" />
<polyline points="140.20000000000073,139.846 149.70000000000073,139.846" fill="none" stroke="#000000" stroke-width="0.80" />
<polyline points="140.20000000000073,144.846 149.70000000000073,144.846" fill="none" stroke="#000000" stroke-width="0.80" />
<polyline points="140.20000000000073,149.846 149.70000000000073,149.846" fill="none" stroke="#000000" stroke-width="0.80" />
<polyline points="140.20000000000073,154.846 149.70000000000073,154.846" fill="none" stroke="#000000" stroke-width="0.80" />
<polyline points="140.20000000000073,159.846 149.70000000000073,159.846" fill="none" stroke="#000000" stroke-width="0.80" />
<polyline points="140.20000000000073,87.346 149.70000000000073,87.346" fill="none" stroke="#000000" stroke-width="0.80" />
<polyline points="140.20000000000073,92.346 149.70000000000073,92.346" fill="none" stroke="#000000" stroke-width="0.80" />
<polyline points="140.20000000000073,97.346 149.70000000000073,97.346" fill="none" stroke="#000000" stroke-width="0.80" />
<polyline points="140.20000000000073,102.346 149.70000000000073,102.346" fill="none" stroke="#000000" stroke-width="0.80" />
<polyline points="140.20000000000073,107.346 149.70000000000073,107.346" fill="none" stroke="#000000" stroke-width="0.80" />
<polyline points="109.20000000000073,109.846 118.79999999999927,109.846" fill="none" stroke="#000000" stroke-width="0.80" />
<polyline points="109.20000000000073,114.846 118.79999999999927,114.846" fill="none" stroke="#000000" stroke-width="0.80" />
<polyline points="109.20000000000073,119.846 118.79999999999927,119.846" fill="none" stroke="#000000" stroke-width="0.80" />
<polyline points="109.20000000000073,124.846 118.79999999999927,124.846" fill="none" stroke="#000000" stroke-width="0.80" />
<polyline points="109.20000000000073,129.846 118.79999999999927,129.846" fill="none" stroke="#000000" stroke-width="0.80" />
<polyline points="109.20000000000073,134.846 118.79999999999927,134.846" fill="none" stroke="#000000" stroke-width="0.80" />
<polyline points="109.20000000000073,139.846 118.79999999999927,139.846" fill="none" stroke="#000000" stroke-width="0.80" />
<polyline points="109.20000000000073,144.846 118.79999999999927,144.846" fill="none" stroke="#000000" stroke-width="0.80" />
<polyline points="109.20000000000073,149.846 118.79999999999927,149.846" fill="none" stroke="#000000" stroke-width="0.80" />
<polyline points="109.20000000000073,154.846 118.79999999999927,154.846" fill="none" stroke="#000000" stroke-width="0.80" />
<polyline points="109.20000000000073,159.846 118.79999999999927,159.846" fill="none" stroke="#000000" stroke-width="0.80" />
<polyline points="109.20000000000073,87.346 118.79999999999927,87.346" fill="none" stroke="#000000" stroke-width="0.80" />
<polyline points="109.20000000000073,92.346 118.79999999999927,92.346" fill="none" stroke="#000000" stroke-width="0.80" />
<polyline points="109.20000000000073,97.346 118.79999999999927,97.346" fill="none" stroke="#000000" stroke-width="0.80" />
<polyline points="109.20000000000073,102.346 118.79999999999927,102.346" fill="none" stroke="#000000" stroke-width="0.80" />
<polyline points="109.20000000000073,107.346 118.79999999999927,107.346" fill="none" stroke="#000000" stroke-width="0.80" />
<polyline points="78.29999999999927,109.846 87.90000000000146,109.846" fill="none" stroke="#000000" stroke-width="0.80" />
<polyline points="78.29999999999927,114.846 87.90000000000146,114.846" fill="none" stroke="#000000" stroke-width="0.80" />
<polyline points="78.29999999999927,119.846 87.90000000000146,119.846" fill="none" stroke="#000000" stroke-width="0.80" />
<polyline points="78.29999999999927,124.846 87.90000000000146,124.846" fill="none" stroke="#000000" stroke-width="0.80" />
<polyline points="78.29999999999927,129.846 87.90000000000146,129.846" fill="none" stroke="#000000" stroke-width="0.80" />
<polyline points="78.29999999999927,134.846 87.90000000000146,134.846" fill="none" stroke="#000000" stroke-width="0.80" />
<polyline points="78.29999999999927,139.846 87.90000000000146,139.846" fill="none" stroke="#000000" stroke-width="0.80" />
<polyline points="78.29999999999927,144.846 87.90000000000146,144.846" fill="none" stroke="#000000" stroke-width="0.80" />
<polyline points="78.29999999999927,149.846 87.90000000000146,149.846" fill="none" stroke="#000000" stroke-width="0.80" />
<polyline points="78.29999999999927,154.846 87.90000000000146,154.846" fill="none" stroke="#000000" stroke-width="0.80" />
<polyline points="78.29999999999927,159.846 87.90000000000146,159.846" fill="none" stroke="#000000" stroke-width="0.80" />
<polyline points="78.29999999999927,87.346 87.90000000000146,87.346" fill="none" stroke="#000000" stroke-width="0.80" />
<polyline points="78.29999999999927,92.346 87.90000000000146,92.346" fill="none" stroke="#000000" stroke-width="0.80" />
<polyline points="78.29999999999927,97.346 87.90000000000146,97.346" fill="none" stroke="#000000" stroke-width="0.80" />
<polyline points="78.29999999999927,102.346 87.90000000000146,102.346" fill="none" stroke="#000000" stroke-width="0.80" />
<polyline points="78.29999999999927,107.346 87.90000000000146,107.346" fill="none" stroke="#000000" stroke-width="0.80" />
<polyline points="47.400000000001455,254.846 57.0,254.846" fill="none" stroke="#000000" stroke-width="0.80" />
<polyline points="16.5,109.846 26.099999999998545,109.846" fill="none" stroke="#000000" stroke-width="0.80" />
<polyline points="16.5,114.846 26.099999999998545,114.846" fill="none" stroke="#000000" stroke-width="0.80" />
<polyline points="16.5,119.846 26.099999999998545,119.846" fill="none" stroke="#000000" stroke-width="0.80" />
<polyline points="16.5,124.846 26.099999999998545,124.846" fill="none" stroke="#000000" stroke-width="0.80" />
<polyline points="16.5,129.846 26.099999999998545,129.846" fill="none" stroke="#000000" stroke-width="0.80" />
<polyline points="16.5,134.846 26.099999999998545,134.846" fill="none" stroke="#000000" stroke-width="0.80" />
<polyline points="16.5,139.846 26.099999999998545,139.846" fill="none" stroke="#000000" stroke-width="0.80" />
<polyline points="16.5,144.846 26.099999999998545,144.846" fill="none" stroke="#000000" stroke-width="0.80" />
<polyline points="16.5,149.846 26.099999999998545,149.846" fill="none" stroke="#000000" stroke-width="0.80" />
<polyline points="16.5,154.846 26.099999999998545,154.846" fill="none" stroke="#000000" stroke-width="0.80" />
<polyline points="16.5,159.846 26.099999999998545,159.846" fill="none" stroke="#000000" stroke-width="0.80" />
<polyline points="16.5,87.346 26.099999999998545,87.346" fill="none" stroke="#000000" stroke-width="0.80" />
<polyline points="16.5,92.346 26.099999999998545,92.346" fill="none" stroke="#000000" stroke-width="0.80" />
<polyline points="16.5,97.346 26.099999999998545,97.346" fill="none" stroke="#000000" stroke-width="0.80" />
<polyline points="16.5,102.346 26.099999999998545,102.346" fill="none" stroke="#000000" stroke-width="0.80" />
<polyline points="16.5,107.346 26.099999999998545,107.346" fill="none" stroke="#000000" stroke-width="0.80" />
<polyline points="241.0,105.846 241.0,154.846" fill="" stroke="#000000" stroke-width="0.75" />
<polyline points="241.0,83.346 241.0,102.346" fill="" stroke="#000000" stroke-width="0.75" />
<polyline points="210.09999999999854,105.846 210.09999999999854,154.846" fill="" stroke="#000000" stroke-width="0.75" />
<polyline points="210.09999999999854,83.346 210.09999999999854,102.346" fill="" stroke="#000000" stroke-width="0.75" />
<polyline points="179.20000000000073,105.846 179.20000000000073,154.846" fill="" stroke="#000000" stroke-width="0.75" />
<polyline points="179.20000000000073,83.346 179.20000000000073,102.346" fill="" stroke="#000000" stroke-width="0.75" />
<polyline points="148.20000000000073,105.846 148.20000000000073,154.846" fill="" stroke="#000000" stroke-width="0.75" />
<polyline points="148.20000000000073,83.346 148.20000000000073,102.346" fill="" stroke="#000000" stroke-width="0.75" />
<polyline points="117.29999999999927,105.846 117.29999999999927,154.846" fill="" stroke="#000000" stroke-width="0.75" />
<polyline points="117.29999999999927,83.346 117.29999999999927,102.346" fill="" stroke="#000000" stroke-width="0.75" />
<polyline points="86.40000000000146,105.846 86.40000000000146,154.846" fill="" stroke="#000000" stroke-width="0.75" />
<polyline points="86.40000000000146,83.346 86.40000000000146,102.346" fill="" stroke="#000000" stroke-width="0.75" />
<polyline points="24.599999999998545,105.846 24.599999999998545,154.846" fill="" stroke="#000000" stroke-width="0.75" />
<polyline points="24.599999999998545,83.346 24.599999999998545,102.346" fill="" stroke="#000000" stroke-width="0.75" />
</svg>
