<?xml version="1.0" encoding="UTF-8" standalone="yes"?>
<svg width="256.0px" height="256.0px" xmlns="http://www.w3.org/2000/svg" xmlns:xlink="http://www.w3.org/1999/xlink" version="1.2" baseProfile="tiny">
<polyline points="49.900000000001455,63.3465 255.0,63.3465" fill="none" stroke="#000000" stroke-width="0.40" />
<polyline points="49.900000000001455,68.3465 255.0,68.3465" fill="none" stroke="#000000" stroke-width="0.40" />
<polyline points="49.900000000001455,73.3465 255.0,73.3465" fill="none" stroke="#000000" stroke-width="0.40" />
<polyline points="49.900000000001455,78.3465 255.0,78.3465" fill="none" stroke="#000000" stroke-width="0.40" />
<polyline points="49.900000000001455,83.3465 255.0,83.3465" fill="none" stroke="#000000" stroke-width="0.40" />
<polyline points="49.900000000001455,115.846 255.0,115.846" fill="none" stroke="#000000" stroke-width="0.40" />
<polyline points="49.900000000001455,120.846 255.0,120.846" fill="none" stroke="#000000" stroke-width="0.40" />
<polyline points="49.900000000001455,125.846 255.0,125.846" fill="none" stroke="#000000" stroke-width="0.40" />
<polyline points="49.900000000001455,130.846 255.0,130.846" fill="none" stroke="#000000" stroke-width="0.40" />
<polyline points="49.900000000001455,135.846 255.0,135.846" fill="none" stroke="#000000" stroke-width="0.40" />
<polyline points="49.900000000001455,168.346 255.0,168.346" fill="none" stroke="#000000" stroke-width="0.40" />
<polyline points="49.900000000001455,173.346 255.0,173.346" fill="none" stroke="#000000" stroke-width="0.40" />
<polyline points="49.900000000001455,178.346 255.0,178.346" fill="none" stroke="#000000" stroke-width="0.40" />
<polyline points="49.900000000001455,183.346 255.0,183.346" fill="none" stroke="#000000" stroke-width="0.40" />
<polyline points="49.900000000001455,188.346 255.0,188.346" fill="none" stroke="#000000" stroke-width="0.40" />
<polyline points="49.900000000001455,220.846 255.0,220.846" fill="none" stroke="#000000" stroke-width="0.40" />
<polyline points="49.900000000001455,225.846 255.0,225.846" fill="none" stroke="#000000" stroke-width="0.40" />
<polyline points="49.900000000001455,230.846 255.0,230.846" fill="none" stroke="#000000" stroke-width="0.40" />
<polyline points="49.900000000001455,235.846 255.0,235.846" fill="none" stroke="#000000" stroke-width="0.40" />
<polyline points="49.900000000001455,240.846 255.0,240.846" fill="none" stroke="#000000" stroke-width="0.40" />
<polyline points="50.29999999999927,63.3465 50.29999999999927,255.0" fill="none" stroke="#000000" stroke-width="0.80" />
<polyline points="242.0,226.786 242.0,240.846" fill="none" stroke="#000000" stroke-width="0.65" />
<polyline points="242.0,61.7855 242.0,124.596" fill="none" stroke="#000000" stroke-width="0.65" />
<polyline points="242.0,39.2855 242.0,72.0965" fill="none" stroke="#000000" stroke-width="0.65" />
<polyline points="216.40000000000146,192.407 216.40000000000146,154.596" fill="none" stroke="#000000" stroke-width="0.65" />
<polyline points="210.5,61.7855 210.5,124.596" fill="none" stroke="#000000" stroke-width="0.65" />
<polyline points="210.5,39.2855 210.5,72.0965" fill="none" stroke="#000000" stroke-width="0.65" />
<polyline points="179.09999999999854,61.7855 179.09999999999854,124.596" fill="none" stroke="#000000" stroke-width="0.65" />
<polyline points="179.09999999999854,39.2855 179.09999999999854,72.0965" fill="none" stroke="#000000" stroke-width="0.65" />
<polyline points="147.59999999999854,216.786 147.59999999999854,230.846" fill="none" stroke="#000000" stroke-width="0.65" />
<polyline points="153.5,192.407 153.5,155.846" fill="none" stroke="#000000" stroke-width="0.65" />
<polyline points="147.59999999999854,61.7855 147.59999999999854,124.596" fill="none" stroke="#000000" stroke-width="0.65" />
<polyline points="147.59999999999854,39.2855 147.59999999999854,72.0965" fill="none" stroke="#000000" stroke-width="0.65" />
<polyline points="116.09999999999854,61.7855 116.09999999999854,124.596" fill="none" stroke="#000000" stroke-width="0.65" />
<polyline points="116.09999999999854,39.2855 116.09999999999854,72.0965" fill="none" stroke="#000000" stroke-width="0.65" />
<polyline points="84.70000000000073,216.786 84.70000000000073,230.846" fill="none" stroke="#000000" stroke-width="0.65" />
<polyline points="90.59999999999854,192.407 90.59999999999854,155.846" fill="none" stroke="#000000" stroke-width="0.65" />
<polyline points="84.70000000000073,61.7855 84.70000000000073,124.596" fill="none" stroke="#000000" stroke-width="0.65" />
<polyline points="84.70000000000073,39.2855 84.70000000000073,72.0965" fill="none" stroke="#000000" stroke-width="0.65" />
<polyline points="240.09999999999854,60.8465 249.70000000000073,60.8465" fill="none" stroke="#000000" stroke-width="0.80" />
<polyline points="240.09999999999854,65.8465 249.70000000000073,65.8465" fill="none" stroke="#000000" stroke-width="0.80" />
<polyline points="240.09999999999854,70.8465 249.70000000000073,70.8465" fill="none" stroke="#000000" stroke-width="0.80" />
<polyline points="240.09999999999854,75.8465 249.70000000000073,75.8465" fill="none" stroke="#000000" stroke-width="0.80" />
<polyline points="240.09999999999854,80.8465 249.70000000000073,80.8465" fill="none" stroke="#000000" stroke-width="0.80" />
<polyline points="240.09999999999854,85.8465 249.70000000000073,85.8465" fill="none" stroke="#000000" stroke-width="0.80" />
<polyline points="240.09999999999854,90.8465 249.70000000000073,90.8465" fill="none" stroke="#000000" stroke-width="0.80" />
<polyline points="240.09999999999854,95.8465 249.70000000000073,95.8465" fill="none" stroke="#000000" stroke-width="0.80" />
<polyline points="240.09999999999854,100.846 249.70000000000073,100.846" fill="none" stroke="#000000" stroke-width="0.80" />
<polyline points="240.09999999999854,105.846 249.70000000000073,105.846" fill="none" stroke="#000000" stroke-width="0.80" />
<polyline points="240.09999999999854,110.846 249.70000000000073,110.846" fill="none" stroke="#000000" stroke-width="0.80" />
<polyline points="240.09999999999854,38.3465 249.70000000000073,38.3465" fill="none" stroke="#000000" stroke-width="0.80" />
<polyline points="240.09999999999854,43.3465 249.70000000000073,43.3465" fill="none" stroke="#000000" stroke-width="0.80" />
<polyline points="240.09999999999854,48.3465 249.70000000000073,48.3465" fill="none" stroke="#000000" stroke-width="0.80" />
<polyline points="240.09999999999854,53.3465 249.70000000000073,53.3465" fill="none" stroke="#000000" stroke-width="0.80" />
<polyline points="240.09999999999854,58.3465 249.70000000000073,58.3465" fill="none" stroke="#000000" stroke-width="0.80" />
<polyline points="208.70000000000073,193.346 218.29999999999927,193.346" fill="none" stroke="#000000" stroke-width="0.80" />
<polyline points="208.70000000000073,60.8465 218.29999999999927,60.8465" fill="none" stroke="#000000" stroke-width="0.80" />
<polyline points="208.70000000000073,65.8465 218.29999999999927,65.8465" fill="none" stroke="#000000" stroke-width="0.80" />
<polyline points="208.70000000000073,70.8465 218.29999999999927,70.8465" fill="none" stroke="#000000" stroke-width="0.80" />
<polyline points="208.70000000000073,75.8465 218.29999999999927,75.8465" fill="none" stroke="#000000" stroke-width="0.80" />
<polyline points="208.70000000000073,80.8465 218.29999999999927,80.8465" fill="none" stroke="#000000" stroke-width="0.80" />
<polyline points="208.70000000000073,85.8465 218.29999999999927,85.8465" fill="none" stroke="#000000" stroke-width="0.80" />
<polyline points="208.70000000000073,90.8465 218.29999999999927,90.8465" fill="none" stroke="#000000" stroke-width="0.80" />
<polyline points="208.70000000000073,95.8465 218.29999999999927,95.8465" fill="none" stroke="#000000" stroke-width="0.80" />
<polyline points="208.70000000000073,100.846 218.29999999999927,100.846" fill="none" stroke="#000000" stroke-width="0.80" />
<polyline points="208.70000000000073,105.846 218.29999999999927,105.846" fill="none" stroke="#000000" stroke-width="0.80" />
<polyline points="208.70000000000073,110.846 218.29999999999927,110.846" fill="none" stroke="#000000" stroke-width="0.80" />
<polyline points="208.70000000000073,38.3465 218.29999999999927,38.3465" fill="none" stroke="#000000" stroke-width="0.80" />
<polyline points="208.70000000000073,43.3465 218.29999999999927,43.3465" fill="none" stroke="#000000" stroke-width="0.80" />
<polyline points="208.70000000000073,48.3465 218.29999999999927,48.3465" fill="none" stroke="#000000" stroke-width="0.80" />
<polyline points="208.70000000000073,53.3465 218.29999999999927,53.3465" fill="none" stroke="#000000" stroke-width="0.80" />
<polyline points="208.70000000000073,58.3465 218.29999999999927,58.3465" fill="none" stroke="#000000" stroke-width="0.80" />
<polyline points="177.20000000000073,60.8465 186.79999999999927,60.8465" fill="none" stroke="#000000" stroke-width="0.80" />
<polyline points="177.20000000000073,65.8465 186.79999999999927,65.8465" fill="none" stroke="#000000" stroke-width="0.80" />
<polyline points="177.20000000000073,70.8465 186.79999999999927,70.8465" fill="none" stroke="#000000" stroke-width="0.80" />
<polyline points="177.20000000000073,75.8465 186.79999999999927,75.8465" fill="none" stroke="#000000" stroke-width="0.80" />
<polyline points="177.20000000000073,80.8465 186.79999999999927,80.8465" fill="none" stroke="#000000" stroke-width="0.80" />
<polyline points="177.20000000000073,85.8465 186.79999999999927,85.8465" fill="none" stroke="#000000" stroke-width="0.80" />
<polyline points="177.20000000000073,90.8465 186.79999999999927,90.8465" fill="none" stroke="#000000" stroke-width="0.80" />
<polyline points="177.20000000000073,95.8465 186.79999999999927,95.8465" fill="none" stroke="#000000" stroke-width="0.80" />
<polyline points="177.20000000000073,100.846 186.79999999999927,100.846" fill="none" stroke="#000000" stroke-width="0.80" />
<polyline points="177.20000000000073,105.846 186.79999999999927,105.846" fill="none" stroke="#000000" stroke-width="0.80" />
<polyline points="177.20000000000073,110.846 186.79999999999927,110.846" fill="none" stroke="#000000" stroke-width="0.80" />
<polyline points="177.20000000000073,38.3465 186.79999999999927,38.3465" fill="none" stroke="#000000" stroke-width="0.80" />
<polyline points="177.20000000000073,43.3465 186.79999999999927,43.3465" fill="none" stroke="#000000" stroke-width="0.80" />
<polyline points="177.20000000000073,48.3465 186.79999999999927,48.3465" fill="none" stroke="#000000" stroke-width="0.80" />
<polyline points="177.20000000000073,53.3465 186.79999999999927,53.3465" fill="none" stroke="#000000" stroke-width="0.80" />
<polyline points="177.20000000000073,58.3465 186.79999999999927,58.3465" fill="none" stroke="#000000" stroke-width="0.80" />
<polyline points="145.79999999999927,215.846 155.40000000000146,215.846" fill="none" stroke="#000000" stroke-width="0.80" />
<polyline points="145.79999999999927,193.346 155.40000000000146,193.346" fill="none" stroke="#000000" stroke-width="0.80" />
<polyline points="145.79999999999927,60.8465 155.40000000000146,60.8465" fill="none" stroke="#000000" stroke-width="0.80" />
<polyline points="145.79999999999927,65.8465 155.40000000000146,65.8465" fill="none" stroke="#000000" stroke-width="0.80" />
<polyline points="145.79999999999927,70.8465 155.40000000000146,70.8465" fill="none" stroke="#000000" stroke-width="0.80" />
<polyline points="145.79999999999927,75.8465 155.40000000000146,75.8465" fill="none" stroke="#000000" stroke-width="0.80" />
<polyline points="145.79999999999927,80.8465 155.40000000000146,80.8465" fill="none" stroke="#000000" stroke-width="0.80" />
<polyline points="145.79999999999927,85.8465 155.40000000000146,85.8465" fill="none" stroke="#000000" stroke-width="0.80" />
<polyline points="145.79999999999927,90.8465 155.40000000000146,90.8465" fill="none" stroke="#000000" stroke-width="0.80" />
<polyline points="145.79999999999927,95.8465 155.40000000000146,95.8465" fill="none" stroke="#000000" stroke-width="0.80" />
<polyline points="145.79999999999927,100.846 155.40000000000146,100.846" fill="none" stroke="#000000" stroke-width="0.80" />
<polyline points="145.79999999999927,105.846 155.40000000000146,105.846" fill="none" stroke="#000000" stroke-width="0.80" />
<polyline points="145.79999999999927,110.846 155.40000000000146,110.846" fill="none" stroke="#000000" stroke-width="0.80" />
<polyline points="145.79999999999927,38.3465 155.40000000000146,38.3465" fill="none" stroke="#000000" stroke-width="0.80" />
<polyline points="145.79999999999927,43.3465 155.40000000000146,43.3465" fill="none" stroke="#000000" stroke-width="0.80" />
<polyline points="145.79999999999927,48.3465 155.40000000000146,48.3465" fill="none" stroke="#000000" stroke-width="0.80" />
<polyline points="145.79999999999927,53.3465 155.40000000000146,53.3465" fill="none" stroke="#000000" stroke-width="0.80" />
<polyline points="145.79999999999927,58.3465 155.40000000000146,58.3465" fill="none" stroke="#000000" stroke-width="0.80" />
<polyline points="114.29999999999927,60.8465 123.90000000000146,60.8465" fill="none" stroke="#000000" stroke-width="0.80" />
<polyline points="114.29999999999927,65.8465 123.90000000000146,65.8465" fill="none" stroke="#000000" stroke-width="0.80" />
<polyline points="114.29999999999927,70.8465 123.90000000000146,70.8465" fill="none" stroke="#000000" stroke-width="0.80" />
<polyline points="114.29999999999927,75.8465 123.90000000000146,75.8465" fill="none" stroke="#000000" stroke-width="0.80" />
<polyline points="114.29999999999927,80.8465 123.90000000000146,80.8465" fill="none" stroke="#000000" stroke-width="0.80" />
<polyline points="114.29999999999927,85.8465 123.90000000000146,85.8465" fill="none" stroke="#000000" stroke-width="0.80" />
<polyline points="114.29999999999927,90.8465 123.90000000000146,90.8465" fill="none" stroke="#000000" stroke-width="0.80" />
<polyline points="114.29999999999927,95.8465 123.90000000000146,95.8465" fill="none" stroke="#000000" stroke-width="0.80" />
<polyline points="114.29999999999927,100.846 123.90000000000146,100.846" fill="none" stroke="#000000" stroke-width="0.80" />
<polyline points="114.29999999999927,105.846 123.90000000000146,105.846" fill="none" stroke="#000000" stroke-width="0.80" />
<polyline points="114.29999999999927,110.846 123.90000000000146,110.846" fill="none" stroke="#000000" stroke-width="0.80" />
<polyline points="114.29999999999927,38.3465 123.90000000000146,38.3465" fill="none" stroke="#000000" stroke-width="0.80" />
<polyline points="114.29999999999927,43.3465 123.90000000000146,43.3465" fill="none" stroke="#000000" stroke-width="0.80" />
<polyline points="114.29999999999927,48.3465 123.90000000000146,48.3465" fill="none" stroke="#000000" stroke-width="0.80" />
<polyline points="114.29999999999927,53.3465 123.90000000000146,53.3465" fill="none" stroke="#000000" stroke-width="0.80" />
<polyline points="114.29999999999927,58.3465 123.90000000000146,58.3465" fill="none" stroke="#000000" stroke-width="0.80" />
<polyline points="82.90000000000146,215.846 92.40000000000146,215.846" fill="none" stroke="#000000" stroke-width="0.80" />
<polyline points="82.90000000000146,193.346 92.40000000000146,193.346" fill="none" stroke="#000000" stroke-width="0.80" />
<polyline points="82.90000000000146,60.8465 92.40000000000146,60.8465" fill="none" stroke="#000000" stroke-width="0.80" />
<polyline points="82.90000000000146,65.8465 92.40000000000146,65.8465" fill="none" stroke="#000000" stroke-width="0.80" />
<polyline points="82.90000000000146,70.8465 92.40000000000146,70.8465" fill="none" stroke="#000000" stroke-width="0.80" />
<polyline points="82.90000000000146,75.8465 92.40000000000146,75.8465" fill="none" stroke="#000000" stroke-width="0.80" />
<polyline points="82.90000000000146,80.8465 92.40000000000146,80.8465" fill="none" stroke="#000000" stroke-width="0.80" />
<polyline points="82.90000000000146,85.8465 92.40000000000146,85.8465" fill="none" stroke="#000000" stroke-width="0.80" />
<polyline points="82.90000000000146,90.8465 92.40000000000146,90.8465" fill="none" stroke="#000000" stroke-width="0.80" />
<polyline points="82.90000000000146,95.8465 92.40000000000146,95.8465" fill="none" stroke="#000000" stroke-width="0.80" />
<polyline points="82.90000000000146,100.846 92.40000000000146,100.846" fill="none" stroke="#000000" stroke-width="0.80" />
<polyline points="82.90000000000146,105.846 92.40000000000146,105.846" fill="none" stroke="#000000" stroke-width="0.80" />
<polyline points="82.90000000000146,110.846 92.40000000000146,110.846" fill="none" stroke="#000000" stroke-width="0.80" />
<polyline points="82.90000000000146,38.3465 92.40000000000146,38.3465" fill="none" stroke="#000000" stroke-width="0.80" />
<polyline points="82.90000000000146,43.3465 92.40000000000146,43.3465" fill="none" stroke="#000000" stroke-width="0.80" />
<polyline points="82.90000000000146,48.3465 92.40000000000146,48.3465" fill="none" stroke="#000000" stroke-width="0.80" />
<polyline points="82.90000000000146,53.3465 92.40000000000146,53.3465" fill="none" stroke="#000000" stroke-width="0.80" />
<polyline points="82.90000000000146,58.3465 92.40000000000146,58.3465" fill="none" stroke="#000000" stroke-width="0.80" />
<polyline points="248.20000000000073,56.8465 248.20000000000073,105.846" fill="" stroke="#000000" stroke-width="0.75" />
<polyline points="248.20000000000073,34.3465 248.20000000000073,53.3465" fill="" stroke="#000000" stroke-width="0.75" />
<polyline points="185.29999999999927,56.8465 185.29999999999927,105.846" fill="" stroke="#000000" stroke-width="0.75" />
<polyline points="185.29999999999927,34.3465 185.29999999999927,53.3465" fill="" stroke="#000000" stroke-width="0.75" />
<polyline points="153.90000000000146,56.8465 153.90000000000146,105.846" fill="" stroke="#000000" stroke-width="0.75" />
<polyline points="153.90000000000146,34.3465 153.90000000000146,53.3465" fill="" stroke="#000000" stroke-width="0.75" />
<polyline points="122.40000000000146,56.8465 122.40000000000146,105.846" fill="" stroke="#000000" stroke-width="0.75" />
<polyline points="122.40000000000146,34.3465 122.40000000000146,53.3465" fill="" stroke="#000000" stroke-width="0.75" />
<polyline points="90.90000000000146,56.8465 90.90000000000146,105.846" fill="" stroke="#000000" stroke-width="0.75" />
<polyline points="90.90000000000146,34.3465 90.90000000000146,53.3465" fill="" stroke="#000000" stroke-width="0.75" />
</svg>
