<?xml version="1.0" encoding="UTF-8" standalone="yes"?>
<svg width="256.0px" height="256.0px" xmlns="http://www.w3.org/2000/svg" xmlns:xlink="http://www.w3.org/1999/xlink" version="1.2" baseProfile="tiny">
<polyline points="22.170000000000073,13.846000000000004 255.0,13.846000000000004" fill="none" stroke="#000000" stroke-width="0.40" />
<polyline points="22.170000000000073,18.846000000000004 255.0,18.846000000000004" fill="none" stroke="#000000" stroke-width="0.40" />
<polyline points="22.170000000000073,23.846000000000004 255.0,23.846000000000004" fill="none" stroke="#000000" stroke-width="0.40" />
<polyline points="22.170000000000073,28.846000000000004 255.0,28.846000000000004" fill="none" stroke="#000000" stroke-width="0.40" />
<polyline points="22.170000000000073,33.846000000000004 255.0,33.846000000000004" fill="none" stroke="#000000" stroke-width="0.40" />
<polyline points="22.170000000000073,66.346 255.0,66.346" fill="none" stroke="#000000" stroke-width="0.40" />
<polyline points="22.170000000000073,71.346 255.0,71.346" fill="none" stroke="#000000" stroke-width="0.40" />
<polyline points="22.170000000000073,76.346 255.0,76.346" fill="none" stroke="#000000" stroke-width="0.40" />
<polyline points="22.170000000000073,81.346 255.0,81.346" fill="none" stroke="#000000" stroke-width="0.40" />
<polyline points="22.170000000000073,86.346 255.0,86.346" fill="none" stroke="#000000" stroke-width="0.40" />
<polyline points="22.569999999999936,0.0 22.569999999999936,86.346" fill="" stroke="#000000" stroke-width="0.80" />
<polyline points="254.26999999999998,65.90999999999997 254.26999999999998,97.596" fill="" stroke="#000000" stroke-width="0.65" />
<polyline points="243.56999999999994,36.861999999999966 243.56999999999994,15.92999999999995" fill="" stroke="#000000" stroke-width="0.65" />
<polyline points="221.0,65.90999999999997 221.0,97.596" fill="" stroke="#000000" stroke-width="0.65" />
<polyline points="226.93000000000006,27.90700000000004 226.93000000000006,13.846000000000004" fill="" stroke="#000000" stroke-width="0.65" />
<polyline points="194.3800000000001,65.90999999999997 194.3800000000001,97.596" fill="" stroke="#000000" stroke-width="0.65" />
<polyline points="200.31999999999994,27.90700000000004 200.31999999999994,13.846000000000004" fill="" stroke="#000000" stroke-width="0.65" />
<polyline points="167.76999999999998,65.90999999999997 167.76999999999998,97.596" fill="" stroke="#000000" stroke-width="0.65" />
<polyline points="173.70000000000005,27.90700000000004 173.70000000000005,13.846000000000004" fill="" stroke="#000000" stroke-width="0.65" />
<polyline points="151.1300000000001,19.785999999999945 151.1300000000001,38.846000000000004" fill="" stroke="#000000" stroke-width="0.65" />
<polyline points="134.5,65.90999999999997 134.5,92.596" fill="" stroke="#000000" stroke-width="0.65" />
<polyline points="107.88000000000011,65.90999999999997 107.88000000000011,95.096" fill="" stroke="#000000" stroke-width="0.65" />
<polyline points="107.88000000000011,27.285999999999945 107.88000000000011,42.596000000000004" fill="" stroke="#000000" stroke-width="0.65" />
<polyline points="81.26999999999998,65.90999999999997 81.26999999999998,97.596" fill="" stroke="#000000" stroke-width="0.65" />
<polyline points="54.65000000000009,65.90999999999997 54.65000000000009,100.096" fill="" stroke="#000000" stroke-width="0.65" />
<polyline points="60.57999999999993,25.40700000000004 60.57999999999993,10.096000000000004" fill="" stroke="#000000" stroke-width="0.65" />
<polyline points="235.80999999999995,38.846000000000004 245.3900000000001,38.846000000000004" fill="" stroke="#000000" stroke-width="0.80" />
</svg>
