<?xml version="1.0" encoding="UTF-8" standalone="yes"?>
<svg width="256.0px" height="256.0px" xmlns="http://www.w3.org/2000/svg" xmlns:xlink="http://www.w3.org/1999/xlink" version="1.2" baseProfile="tiny">
<polyline points="0.0,13.846000000000004 255.0,13.846000000000004" fill="none" stroke="#000000" stroke-width="0.40" />
<polyline points="0.0,18.846000000000004 255.0,18.846000000000004" fill="none" stroke="#000000" stroke-width="0.40" />
<polyline points="0.0,23.846000000000004 255.0,23.846000000000004" fill="none" stroke="#000000" stroke-width="0.40" />
<polyline points="0.0,28.846000000000004 255.0,28.846000000000004" fill="none" stroke="#000000" stroke-width="0.40" />
<polyline points="0.0,33.846000000000004 255.0,33.846000000000004" fill="none" stroke="#000000" stroke-width="0.40" />
<polyline points="0.0,66.346 255.0,66.346" fill="none" stroke="#000000" stroke-width="0.40" />
<polyline points="0.0,71.346 255.0,71.346" fill="none" stroke="#000000" stroke-width="0.40" />
<polyline points="0.0,76.346 255.0,76.346" fill="none" stroke="#000000" stroke-width="0.40" />
<polyline points="0.0,81.346 255.0,81.346" fill="none" stroke="#000000" stroke-width="0.40" />
<polyline points="0.0,86.346 255.0,86.346" fill="none" stroke="#000000" stroke-width="0.40" />
<polyline points="31.610000000000127,66.346 31.610000000000127,86.346" fill="" stroke="#000000" stroke-width="0.80" />
<polyline points="31.610000000000127,13.846000000000004 31.610000000000127,33.846000000000004" fill="" stroke="#000000" stroke-width="0.80" />
<polyline points="49.19999999999982,10.471000000000004 42.75,14.471000000000004" fill="" stroke="#000000" stroke-width="0.65" />
<polyline points="242.76000000000022,65.90999999999997 242.76000000000022,100.096" fill="" stroke="#000000" stroke-width="0.65" />
<polyline points="208.57999999999993,65.90999999999997 208.57999999999993,98.846" fill="" stroke="#000000" stroke-width="0.65" />
<polyline points="208.57999999999993,22.285999999999945 208.57999999999993,35.096000000000004" fill="" stroke="#000000" stroke-width="0.65" />
<polyline points="181.23999999999978,65.90999999999997 181.23999999999978,98.846" fill="" stroke="#000000" stroke-width="0.65" />
<polyline points="181.23999999999978,22.285999999999945 181.23999999999978,35.096000000000004" fill="" stroke="#000000" stroke-width="0.65" />
<polyline points="163.21000000000004,19.785999999999945 163.21000000000004,33.846000000000004" fill="" stroke="#000000" stroke-width="0.65" />
<polyline points="146.1199999999999,65.90999999999997 146.1199999999999,97.596" fill="" stroke="#000000" stroke-width="0.65" />
<polyline points="146.1199999999999,19.785999999999945 146.1199999999999,33.846000000000004" fill="" stroke="#000000" stroke-width="0.65" />
<polyline points="129.0300000000002,19.785999999999945 129.0300000000002,33.846000000000004" fill="" stroke="#000000" stroke-width="0.65" />
<polyline points="111.94000000000005,65.90999999999997 111.94000000000005,97.596" fill="" stroke="#000000" stroke-width="0.65" />
<polyline points="111.94000000000005,19.785999999999945 111.94000000000005,33.846000000000004" fill="" stroke="#000000" stroke-width="0.65" />
<polyline points="94.84999999999991,19.785999999999945 94.84999999999991,33.846000000000004" fill="" stroke="#000000" stroke-width="0.65" />
<polyline points="77.76000000000022,65.90999999999997 77.76000000000022,97.596" fill="" stroke="#000000" stroke-width="0.65" />
<polyline points="77.76000000000022,19.785999999999945 77.76000000000022,33.846000000000004" fill="" stroke="#000000" stroke-width="0.65" />
<polyline points="50.42000000000007,65.90999999999997 50.42000000000007,97.596" fill="" stroke="#000000" stroke-width="0.65" />
<polyline points="45.15000000000009,20.688999999999965 45.15000000000009,6.471000000000004" fill="" stroke="#000000" stroke-width="0.65" />
<polyline points="50.42000000000007,19.785999999999945 50.42000000000007,33.846000000000004" fill="" stroke="#000000" stroke-width="0.65" />
<polyline points="20.840000000000146,36.861999999999966 20.840000000000146,20.096000000000004" fill="" stroke="#000000" stroke-width="0.65" />
<polyline points="4.199999999999818,31.861999999999966 4.199999999999818,18.013000000000034" fill="" stroke="#000000" stroke-width="0.65" />
<polyline points="13.079999999999927,38.846000000000004 22.659999999999854,38.846000000000004" fill="" stroke="#000000" stroke-width="0.80" />
</svg>
