<?xml version="1.0" encoding="UTF-8" standalone="yes"?>
<svg width="256.0px" height="256.0px" xmlns="http://www.w3.org/2000/svg" xmlns:xlink="http://www.w3.org/1999/xlink" version="1.2" baseProfile="tiny">
<polyline points="0.0,17.346000000000004 255.0,17.346000000000004" fill="none" stroke="#000000" stroke-width="0.40" />
<polyline points="0.0,22.346000000000004 255.0,22.346000000000004" fill="none" stroke="#000000" stroke-width="0.40" />
<polyline points="0.0,27.346000000000004 255.0,27.346000000000004" fill="none" stroke="#000000" stroke-width="0.40" />
<polyline points="0.0,32.346000000000004 255.0,32.346000000000004" fill="none" stroke="#000000" stroke-width="0.40" />
<polyline points="0.0,37.346000000000004 255.0,37.346000000000004" fill="none" stroke="#000000" stroke-width="0.40" />
<polyline points="0.0,112.346 255.0,112.346" fill="none" stroke="#000000" stroke-width="0.40" />
<polyline points="0.0,117.346 255.0,117.346" fill="none" stroke="#000000" stroke-width="0.40" />
<polyline points="0.0,122.346 255.0,122.346" fill="none" stroke="#000000" stroke-width="0.40" />
<polyline points="0.0,127.346 255.0,127.346" fill="none" stroke="#000000" stroke-width="0.40" />
<polyline points="0.0,132.346 255.0,132.346" fill="none" stroke="#000000" stroke-width="0.40" />
<polyline points="0.0,164.846 255.0,164.846" fill="none" stroke="#000000" stroke-width="0.40" />
<polyline points="0.0,169.846 255.0,169.846" fill="none" stroke="#000000" stroke-width="0.40" />
<polyline points="0.0,174.846 255.0,174.846" fill="none" stroke="#000000" stroke-width="0.40" />
<polyline points="0.0,179.846 255.0,179.846" fill="none" stroke="#000000" stroke-width="0.40" />
<polyline points="0.0,184.846 255.0,184.846" fill="none" stroke="#000000" stroke-width="0.40" />
<polyline points="0.0,217.346 255.0,217.346" fill="none" stroke="#000000" stroke-width="0.40" />
<polyline points="0.0,222.346 255.0,222.346" fill="none" stroke="#000000" stroke-width="0.40" />
<polyline points="0.0,227.346 255.0,227.346" fill="none" stroke="#000000" stroke-width="0.40" />
<polyline points="0.0,232.346 255.0,232.346" fill="none" stroke="#000000" stroke-width="0.40" />
<polyline points="0.0,237.346 255.0,237.346" fill="none" stroke="#000000" stroke-width="0.40" />
<polyline points="31.610000000000127,217.346 31.610000000000127,237.346" fill="" stroke="#000000" stroke-width="0.80" />
<polyline points="31.610000000000127,164.846 31.610000000000127,184.846" fill="" stroke="#000000" stroke-width="0.80" />
<polyline points="31.610000000000127,112.346 31.610000000000127,132.346" fill="" stroke="#000000" stroke-width="0.80" />
<polyline points="14.050000000000182,17.346000000000004 14.050000000000182,37.346000000000004" fill="" stroke="#000000" stroke-width="0.80" />
<polyline points="173.34000000000015,141.471 166.88999999999987,145.471" fill="" stroke="#000000" stroke-width="0.65" />
<polyline points="174.34000000000015,118.971 167.88999999999987,122.971" fill="" stroke="#000000" stroke-width="0.65" />
<polyline points="242.76000000000022,225.786 242.76000000000022,251.096" fill="" stroke="#000000" stroke-width="0.65" />
<polyline points="242.76000000000022,138.286 242.76000000000022,174.846" fill="" stroke="#000000" stroke-width="0.65" />
<polyline points="242.76000000000022,115.786 242.76000000000022,132.346" fill="" stroke="#000000" stroke-width="0.65" />
<polyline points="225.67000000000007,135.786 225.67000000000007,173.596" fill="" stroke="#000000" stroke-width="0.65" />
<polyline points="225.67000000000007,113.286 225.67000000000007,136.096" fill="" stroke="#000000" stroke-width="0.65" />
<polyline points="208.57999999999993,220.786 208.57999999999993,244.846" fill="" stroke="#000000" stroke-width="0.65" />
<polyline points="208.57999999999993,138.286 208.57999999999993,174.077" fill="" stroke="#000000" stroke-width="0.65" />
<polyline points="208.57999999999993,115.786 208.57999999999993,138.5" fill="" stroke="#000000" stroke-width="0.65" />
<polyline points="169.28999999999996,151.68900000000002 169.28999999999996,137.471" fill="" stroke="#000000" stroke-width="0.65" />
<polyline points="181.23999999999978,150.786 181.23999999999978,174.846" fill="" stroke="#000000" stroke-width="0.65" />
<polyline points="170.28999999999996,129.18900000000002 170.28999999999996,114.971" fill="" stroke="#000000" stroke-width="0.65" />
<polyline points="181.23999999999978,128.286 181.23999999999978,142.346" fill="" stroke="#000000" stroke-width="0.65" />
<polyline points="56.5300000000002,241.57799999999997 56.5300000000002,209.846" fill="" stroke="#000000" stroke-width="0.65" />
<polyline points="50.42000000000007,150.786 50.42000000000007,174.846" fill="" stroke="#000000" stroke-width="0.65" />
<polyline points="56.34999999999991,131.40699999999998 56.34999999999991,110.471" fill="" stroke="#000000" stroke-width="0.65" />
<polyline points="20.840000000000146,241.40699999999998 20.840000000000146,208.596" fill="" stroke="#000000" stroke-width="0.65" />
<polyline points="4.199999999999818,241.40699999999998 4.199999999999818,208.18" fill="" stroke="#000000" stroke-width="0.65" />
<polyline points="4.199999999999818,143.90699999999998 4.199999999999818,108.596" fill="" stroke="#000000" stroke-width="0.65" />
<polyline points="239.5,16.910000000000025 239.5,48.596000000000004" fill="" stroke="#000000" stroke-width="0.65" />
<polyline points="193.07999999999993,16.910000000000025 193.07999999999993,48.596000000000004" fill="" stroke="#000000" stroke-width="0.65" />
<polyline points="160.01000000000022,16.910000000000025 160.01000000000022,48.596000000000004" fill="" stroke="#000000" stroke-width="0.65" />
<polyline points="113.51999999999998,16.910000000000025 113.51999999999998,43.596000000000004" fill="" stroke="#000000" stroke-width="0.65" />
<polyline points="81.13000000000011,16.910000000000025 81.13000000000011,46.84699999999998" fill="" stroke="#000000" stroke-width="0.65" />
<polyline points="59.960000000000036,16.910000000000025 59.960000000000036,48.97199999999998" fill="" stroke="#000000" stroke-width="0.65" />
<polyline points="38.7800000000002,16.910000000000025 38.7800000000002,51.096000000000004" fill="" stroke="#000000" stroke-width="0.65" />
<polyline points="240.92999999999984,139.846 250.51999999999998,139.846" fill="" stroke="#000000" stroke-width="0.80" />
<polyline points="240.92999999999984,144.846 250.51999999999998,144.846" fill="" stroke="#000000" stroke-width="0.80" />
<polyline points="240.92999999999984,149.846 250.51999999999998,149.846" fill="" stroke="#000000" stroke-width="0.80" />
<polyline points="240.92999999999984,154.846 250.51999999999998,154.846" fill="" stroke="#000000" stroke-width="0.80" />
<polyline points="240.92999999999984,159.846 250.51999999999998,159.846" fill="" stroke="#000000" stroke-width="0.80" />
<polyline points="223.84000000000015,134.846 233.42999999999984,134.846" fill="" stroke="#000000" stroke-width="0.80" />
<polyline points="223.84000000000015,139.846 233.42999999999984,139.846" fill="" stroke="#000000" stroke-width="0.80" />
<polyline points="223.84000000000015,144.846 233.42999999999984,144.846" fill="" stroke="#000000" stroke-width="0.80" />
<polyline points="223.84000000000015,149.846 233.42999999999984,149.846" fill="" stroke="#000000" stroke-width="0.80" />
<polyline points="223.84000000000015,154.846 233.42999999999984,154.846" fill="" stroke="#000000" stroke-width="0.80" />
<polyline points="223.84000000000015,159.846 233.42999999999984,159.846" fill="" stroke="#000000" stroke-width="0.80" />
<polyline points="206.75,139.846 216.34000000000015,139.846" fill="" stroke="#000000" stroke-width="0.80" />
<polyline points="206.75,144.846 216.34000000000015,144.846" fill="" stroke="#000000" stroke-width="0.80" />
<polyline points="206.75,149.846 216.34000000000015,149.846" fill="" stroke="#000000" stroke-width="0.80" />
<polyline points="206.75,154.846 216.34000000000015,154.846" fill="" stroke="#000000" stroke-width="0.80" />
<polyline points="206.75,159.846 216.34000000000015,159.846" fill="" stroke="#000000" stroke-width="0.80" />
<polyline points="163.51000000000022,154.846 171.11000000000013,154.846" fill="" stroke="#000000" stroke-width="0.56" />
<polyline points="163.51000000000022,159.846 171.11000000000013,159.846" fill="" stroke="#000000" stroke-width="0.56" />
<polyline points="179.40999999999985,149.846 188.98999999999978,149.846" fill="" stroke="#000000" stroke-width="0.80" />
<polyline points="179.40999999999985,154.846 188.98999999999978,154.846" fill="" stroke="#000000" stroke-width="0.80" />
<polyline points="179.40999999999985,159.846 188.98999999999978,159.846" fill="" stroke="#000000" stroke-width="0.80" />
<polyline points="48.409999999999854,242.346 58.34999999999991,242.346" fill="" stroke="#000000" stroke-width="0.80" />
<polyline points="48.590000000000146,149.846 58.17000000000007,149.846" fill="" stroke="#000000" stroke-width="0.80" />
<polyline points="48.590000000000146,154.846 58.17000000000007,154.846" fill="" stroke="#000000" stroke-width="0.80" />
<polyline points="48.590000000000146,159.846 58.17000000000007,159.846" fill="" stroke="#000000" stroke-width="0.80" />
<polyline points="13.079999999999927,242.346 22.659999999999854,242.346" fill="" stroke="#000000" stroke-width="0.80" />
<polyline points="0.0,242.346 6.0300000000002,242.346" fill="" stroke="#000000" stroke-width="0.80" />
<polyline points="0.0,137.346 6.0300000000002,137.346" fill="" stroke="#000000" stroke-width="0.80" />
<polyline points="0.0,142.346 6.0300000000002,142.346" fill="" stroke="#000000" stroke-width="0.80" />
<polyline points="233.17999999999984,113.01100000000002 241.26999999999998,113.01100000000002" fill="none" stroke="#000000" stroke-width="0.75" />
<polyline points="216.09000000000015,114.18200000000002 224.17999999999984,114.18200000000002" fill="none" stroke="#000000" stroke-width="0.75" />
</svg>
