<?xml version="1.0" encoding="UTF-8" standalone="yes"?>
<svg width="256.0px" height="256.0px" xmlns="http://www.w3.org/2000/svg" xmlns:xlink="http://www.w3.org/1999/xlink" version="1.2" baseProfile="tiny">
<polyline points="0.0,17.346000000000004 48.76000000000022,17.346000000000004" fill="none" stroke="#000000" stroke-width="0.40" />
<polyline points="0.0,22.346000000000004 48.76000000000022,22.346000000000004" fill="none" stroke="#000000" stroke-width="0.40" />
<polyline points="0.0,27.346000000000004 48.76000000000022,27.346000000000004" fill="none" stroke="#000000" stroke-width="0.40" />
<polyline points="0.0,32.346000000000004 48.76000000000022,32.346000000000004" fill="none" stroke="#000000" stroke-width="0.40" />
<polyline points="0.0,37.346000000000004 48.76000000000022,37.346000000000004" fill="none" stroke="#000000" stroke-width="0.40" />
<polyline points="0.0,112.346 48.76000000000022,112.346" fill="none" stroke="#000000" stroke-width="0.40" />
<polyline points="0.0,117.346 48.76000000000022,117.346" fill="none" stroke="#000000" stroke-width="0.40" />
<polyline points="0.0,122.346 48.76000000000022,122.346" fill="none" stroke="#000000" stroke-width="0.40" />
<polyline points="0.0,127.346 48.76000000000022,127.346" fill="none" stroke="#000000" stroke-width="0.40" />
<polyline points="0.0,132.346 48.76000000000022,132.346" fill="none" stroke="#000000" stroke-width="0.40" />
<polyline points="0.0,164.846 48.76000000000022,164.846" fill="none" stroke="#000000" stroke-width="0.40" />
<polyline points="0.0,169.846 48.76000000000022,169.846" fill="none" stroke="#000000" stroke-width="0.40" />
<polyline points="0.0,174.846 48.76000000000022,174.846" fill="none" stroke="#000000" stroke-width="0.40" />
<polyline points="0.0,179.846 48.76000000000022,179.846" fill="none" stroke="#000000" stroke-width="0.40" />
<polyline points="0.0,184.846 48.76000000000022,184.846" fill="none" stroke="#000000" stroke-width="0.40" />
<polyline points="0.0,217.346 48.76000000000022,217.346" fill="none" stroke="#000000" stroke-width="0.40" />
<polyline points="0.0,222.346 48.76000000000022,222.346" fill="none" stroke="#000000" stroke-width="0.40" />
<polyline points="0.0,227.346 48.76000000000022,227.346" fill="none" stroke="#000000" stroke-width="0.40" />
<polyline points="0.0,232.346 48.76000000000022,232.346" fill="none" stroke="#000000" stroke-width="0.40" />
<polyline points="0.0,237.346 48.76000000000022,237.346" fill="none" stroke="#000000" stroke-width="0.40" />
<polyline points="48.36000000000013,217.346 48.36000000000013,237.346" fill="" stroke="#000000" stroke-width="0.80" />
<polyline points="48.36000000000013,164.846 48.36000000000013,184.846" fill="" stroke="#000000" stroke-width="0.80" />
<polyline points="48.36000000000013,112.346 48.36000000000013,132.346" fill="" stroke="#000000" stroke-width="0.80" />
<polyline points="48.36000000000013,17.346000000000004 48.36000000000013,37.346000000000004" fill="" stroke="#000000" stroke-width="0.80" />
<polyline points="20.940000000000055,220.786 20.940000000000055,246.096" fill="" stroke="#000000" stroke-width="0.65" />
<polyline points="3.849999999999909,223.286 3.849999999999909,248.596" fill="" stroke="#000000" stroke-width="0.65" />
<polyline points="15.889999999999873,16.910000000000025 15.889999999999873,48.596000000000004" fill="" stroke="#000000" stroke-width="0.65" />
<polyline points="105.44999999999982,17.346000000000004 255.0,17.346000000000004" fill="none" stroke="#000000" stroke-width="0.40" />
<polyline points="105.44999999999982,22.346000000000004 255.0,22.346000000000004" fill="none" stroke="#000000" stroke-width="0.40" />
<polyline points="105.44999999999982,27.346000000000004 255.0,27.346000000000004" fill="none" stroke="#000000" stroke-width="0.40" />
<polyline points="105.44999999999982,32.346000000000004 255.0,32.346000000000004" fill="none" stroke="#000000" stroke-width="0.40" />
<polyline points="105.44999999999982,37.346000000000004 255.0,37.346000000000004" fill="none" stroke="#000000" stroke-width="0.40" />
<polyline points="105.44999999999982,112.346 255.0,112.346" fill="none" stroke="#000000" stroke-width="0.40" />
<polyline points="105.44999999999982,117.346 255.0,117.346" fill="none" stroke="#000000" stroke-width="0.40" />
<polyline points="105.44999999999982,122.346 255.0,122.346" fill="none" stroke="#000000" stroke-width="0.40" />
<polyline points="105.44999999999982,127.346 255.0,127.346" fill="none" stroke="#000000" stroke-width="0.40" />
<polyline points="105.44999999999982,132.346 255.0,132.346" fill="none" stroke="#000000" stroke-width="0.40" />
<polyline points="105.44999999999982,164.846 255.0,164.846" fill="none" stroke="#000000" stroke-width="0.40" />
<polyline points="105.44999999999982,169.846 255.0,169.846" fill="none" stroke="#000000" stroke-width="0.40" />
<polyline points="105.44999999999982,174.846 255.0,174.846" fill="none" stroke="#000000" stroke-width="0.40" />
<polyline points="105.44999999999982,179.846 255.0,179.846" fill="none" stroke="#000000" stroke-width="0.40" />
<polyline points="105.44999999999982,184.846 255.0,184.846" fill="none" stroke="#000000" stroke-width="0.40" />
<polyline points="105.44999999999982,217.346 255.0,217.346" fill="none" stroke="#000000" stroke-width="0.40" />
<polyline points="105.44999999999982,222.346 255.0,222.346" fill="none" stroke="#000000" stroke-width="0.40" />
<polyline points="105.44999999999982,227.346 255.0,227.346" fill="none" stroke="#000000" stroke-width="0.40" />
<polyline points="105.44999999999982,232.346 255.0,232.346" fill="none" stroke="#000000" stroke-width="0.40" />
<polyline points="105.44999999999982,237.346 255.0,237.346" fill="none" stroke="#000000" stroke-width="0.40" />
<polyline points="105.84999999999991,112.346 105.84999999999991,255.0" fill="" stroke="#000000" stroke-width="0.80" />
<polyline points="105.84999999999991,0.0 105.84999999999991,37.346000000000004" fill="" stroke="#000000" stroke-width="0.80" />
<polyline points="235.09000000000015,150.786 235.09000000000015,174.846" fill="" stroke="#000000" stroke-width="0.65" />
<polyline points="241.0300000000002,126.40699999999998 241.0300000000002,112.346" fill="" stroke="#000000" stroke-width="0.65" />
<polyline points="210.57999999999993,145.786 210.57999999999993,173.596" fill="" stroke="#000000" stroke-width="0.65" />
<polyline points="216.51000000000022,121.40699999999998 216.51000000000022,107.346" fill="" stroke="#000000" stroke-width="0.65" />
<polyline points="198.01000000000022,145.786 198.01000000000022,173.596" fill="" stroke="#000000" stroke-width="0.65" />
<polyline points="198.01000000000022,123.286 198.01000000000022,141.096" fill="" stroke="#000000" stroke-width="0.65" />
<polyline points="185.44000000000005,143.286 185.44000000000005,173.858" fill="" stroke="#000000" stroke-width="0.65" />
<polyline points="185.44000000000005,120.786 185.44000000000005,142.142" fill="" stroke="#000000" stroke-width="0.65" />
<polyline points="172.8699999999999,138.286 172.8699999999999,174.11900000000003" fill="" stroke="#000000" stroke-width="0.65" />
<polyline points="172.8699999999999,115.786 172.8699999999999,143.188" fill="" stroke="#000000" stroke-width="0.65" />
<polyline points="154.9000000000001,150.786 154.9000000000001,174.493" fill="" stroke="#000000" stroke-width="0.65" />
<polyline points="154.9000000000001,128.286 154.9000000000001,144.68400000000003" fill="" stroke="#000000" stroke-width="0.65" />
<polyline points="144.03999999999996,241.57799999999997 144.03999999999996,206.096" fill="" stroke="#000000" stroke-width="0.65" />
<polyline points="137.92999999999984,153.286 137.92999999999984,174.846" fill="" stroke="#000000" stroke-width="0.65" />
<polyline points="137.92999999999984,130.786 137.92999999999984,146.096" fill="" stroke="#000000" stroke-width="0.65" />
<polyline points="243.4000000000001,16.910000000000025 243.4000000000001,48.596000000000004" fill="" stroke="#000000" stroke-width="0.65" />
<polyline points="212.3800000000001,16.910000000000025 212.3800000000001,43.596000000000004" fill="" stroke="#000000" stroke-width="0.65" />
<polyline points="187.55999999999995,16.910000000000025 187.55999999999995,46.096000000000004" fill="" stroke="#000000" stroke-width="0.65" />
<polyline points="162.73999999999978,16.910000000000025 162.73999999999978,48.596000000000004" fill="" stroke="#000000" stroke-width="0.65" />
<polyline points="137.92999999999984,16.910000000000025 137.92999999999984,51.096000000000004" fill="" stroke="#000000" stroke-width="0.65" />
<polyline points="233.26999999999998,149.846 242.8499999999999,149.846" fill="" stroke="#000000" stroke-width="0.80" />
<polyline points="233.26999999999998,154.846 242.8499999999999,154.846" fill="" stroke="#000000" stroke-width="0.80" />
<polyline points="233.26999999999998,159.846 242.8499999999999,159.846" fill="" stroke="#000000" stroke-width="0.80" />
<polyline points="208.75,144.846 218.32999999999993,144.846" fill="" stroke="#000000" stroke-width="0.80" />
<polyline points="208.75,149.846 218.32999999999993,149.846" fill="" stroke="#000000" stroke-width="0.80" />
<polyline points="208.75,154.846 218.32999999999993,154.846" fill="" stroke="#000000" stroke-width="0.80" />
<polyline points="208.75,159.846 218.32999999999993,159.846" fill="" stroke="#000000" stroke-width="0.80" />
<polyline points="196.17999999999984,144.846 205.76999999999998,144.846" fill="" stroke="#000000" stroke-width="0.80" />
<polyline points="196.17999999999984,149.846 205.76999999999998,149.846" fill="" stroke="#000000" stroke-width="0.80" />
<polyline points="196.17999999999984,154.846 205.76999999999998,154.846" fill="" stroke="#000000" stroke-width="0.80" />
<polyline points="196.17999999999984,159.846 205.76999999999998,159.846" fill="" stroke="#000000" stroke-width="0.80" />
<polyline points="183.6199999999999,144.846 193.19999999999982,144.846" fill="" stroke="#000000" stroke-width="0.80" />
<polyline points="183.6199999999999,149.846 193.19999999999982,149.846" fill="" stroke="#000000" stroke-width="0.80" />
<polyline points="183.6199999999999,154.846 193.19999999999982,154.846" fill="" stroke="#000000" stroke-width="0.80" />
<polyline points="183.6199999999999,159.846 193.19999999999982,159.846" fill="" stroke="#000000" stroke-width="0.80" />
<polyline points="171.05000000000018,139.846 180.6300000000001,139.846" fill="" stroke="#000000" stroke-width="0.80" />
<polyline points="171.05000000000018,144.846 180.6300000000001,144.846" fill="" stroke="#000000" stroke-width="0.80" />
<polyline points="171.05000000000018,149.846 180.6300000000001,149.846" fill="" stroke="#000000" stroke-width="0.80" />
<polyline points="171.05000000000018,154.846 180.6300000000001,154.846" fill="" stroke="#000000" stroke-width="0.80" />
<polyline points="171.05000000000018,159.846 180.6300000000001,159.846" fill="" stroke="#000000" stroke-width="0.80" />
<polyline points="153.07999999999993,149.846 162.65999999999985,149.846" fill="" stroke="#000000" stroke-width="0.80" />
<polyline points="153.07999999999993,154.846 162.65999999999985,154.846" fill="" stroke="#000000" stroke-width="0.80" />
<polyline points="153.07999999999993,159.846 162.65999999999985,159.846" fill="" stroke="#000000" stroke-width="0.80" />
<polyline points="135.92000000000007,242.346 145.86000000000013,242.346" fill="" stroke="#000000" stroke-width="0.80" />
<polyline points="136.0999999999999,154.846 145.67999999999984,154.846" fill="" stroke="#000000" stroke-width="0.80" />
<polyline points="136.0999999999999,159.846 145.67999999999984,159.846" fill="" stroke="#000000" stroke-width="0.80" />
</svg>
