<?xml version="1.0" encoding="UTF-8" standalone="yes"?>
<svg width="256.0px" height="256.0px" xmlns="http://www.w3.org/2000/svg" xmlns:xlink="http://www.w3.org/1999/xlink" version="1.2" baseProfile="tiny">
<polyline points="0.0,13.846000000000004 48.76000000000022,13.846000000000004" fill="none" stroke="#000000" stroke-width="0.40" />
<polyline points="0.0,18.846000000000004 48.76000000000022,18.846000000000004" fill="none" stroke="#000000" stroke-width="0.40" />
<polyline points="0.0,23.846000000000004 48.76000000000022,23.846000000000004" fill="none" stroke="#000000" stroke-width="0.40" />
<polyline points="0.0,28.846000000000004 48.76000000000022,28.846000000000004" fill="none" stroke="#000000" stroke-width="0.40" />
<polyline points="0.0,33.846000000000004 48.76000000000022,33.846000000000004" fill="none" stroke="#000000" stroke-width="0.40" />
<polyline points="0.0,66.346 48.76000000000022,66.346" fill="none" stroke="#000000" stroke-width="0.40" />
<polyline points="0.0,71.346 48.76000000000022,71.346" fill="none" stroke="#000000" stroke-width="0.40" />
<polyline points="0.0,76.346 48.76000000000022,76.346" fill="none" stroke="#000000" stroke-width="0.40" />
<polyline points="0.0,81.346 48.76000000000022,81.346" fill="none" stroke="#000000" stroke-width="0.40" />
<polyline points="0.0,86.346 48.76000000000022,86.346" fill="none" stroke="#000000" stroke-width="0.40" />
<polyline points="48.36000000000013,66.346 48.36000000000013,86.346" fill="" stroke="#000000" stroke-width="0.80" />
<polyline points="48.36000000000013,13.846000000000004 48.36000000000013,33.846000000000004" fill="" stroke="#000000" stroke-width="0.80" />
<polyline points="20.940000000000055,65.90999999999997 20.940000000000055,100.096" fill="" stroke="#000000" stroke-width="0.65" />
<polyline points="26.86999999999989,27.90700000000004 26.86999999999989,13.846000000000004" fill="" stroke="#000000" stroke-width="0.65" />
<polyline points="3.849999999999909,65.90999999999997 3.849999999999909,100.096" fill="" stroke="#000000" stroke-width="0.65" />
<polyline points="9.7800000000002,31.861999999999966 9.7800000000002,18.846000000000004" fill="" stroke="#000000" stroke-width="0.65" />
<polyline points="105.44999999999982,13.846000000000004 255.0,13.846000000000004" fill="none" stroke="#000000" stroke-width="0.40" />
<polyline points="105.44999999999982,18.846000000000004 255.0,18.846000000000004" fill="none" stroke="#000000" stroke-width="0.40" />
<polyline points="105.44999999999982,23.846000000000004 255.0,23.846000000000004" fill="none" stroke="#000000" stroke-width="0.40" />
<polyline points="105.44999999999982,28.846000000000004 255.0,28.846000000000004" fill="none" stroke="#000000" stroke-width="0.40" />
<polyline points="105.44999999999982,33.846000000000004 255.0,33.846000000000004" fill="none" stroke="#000000" stroke-width="0.40" />
<polyline points="105.44999999999982,66.346 255.0,66.346" fill="none" stroke="#000000" stroke-width="0.40" />
<polyline points="105.44999999999982,71.346 255.0,71.346" fill="none" stroke="#000000" stroke-width="0.40" />
<polyline points="105.44999999999982,76.346 255.0,76.346" fill="none" stroke="#000000" stroke-width="0.40" />
<polyline points="105.44999999999982,81.346 255.0,81.346" fill="none" stroke="#000000" stroke-width="0.40" />
<polyline points="105.44999999999982,86.346 255.0,86.346" fill="none" stroke="#000000" stroke-width="0.40" />
<polyline points="105.84999999999991,0.0 105.84999999999991,86.346" fill="" stroke="#000000" stroke-width="0.80" />
<polyline points="235.09000000000015,65.90999999999997 235.09000000000015,92.596" fill="" stroke="#000000" stroke-width="0.65" />
<polyline points="210.57999999999993,65.90999999999997 210.57999999999993,94.48900000000003" fill="" stroke="#000000" stroke-width="0.65" />
<polyline points="216.51000000000022,25.40700000000004 216.51000000000022,10.096000000000004" fill="" stroke="#000000" stroke-width="0.65" />
<polyline points="172.8699999999999,65.90999999999997 172.8699999999999,97.399" fill="" stroke="#000000" stroke-width="0.65" />
<polyline points="137.92999999999984,65.90999999999997 137.92999999999984,100.096" fill="" stroke="#000000" stroke-width="0.65" />
<polyline points="143.86000000000013,25.40700000000004 143.86000000000013,10.096000000000004" fill="" stroke="#000000" stroke-width="0.65" />
<polyline points="250.25,38.846000000000004 255.0,38.846000000000004" fill="" stroke="#000000" stroke-width="0.80" />
</svg>
