<?xml version="1.0" encoding="UTF-8" standalone="yes"?>
<svg width="256.0px" height="256.0px" xmlns="http://www.w3.org/2000/svg" xmlns:xlink="http://www.w3.org/1999/xlink" version="1.2" baseProfile="tiny">
<path d="M200.20000000000073,28.01800000000003 L200.20000000000073,29.565000000000055 C200.20000000000073,30.116999999999962 200.20000000000073,30.55499999999995 200.20000000000073,30.878000000000043 C200.70000000000073,30.513000000000034 201.0,30.241999999999962 201.20000000000073,30.065000000000055 C201.39999999999964,29.85699999999997 201.60000000000036,29.567999999999984 201.79999999999927,29.19799999999998 C202.0,28.827999999999975 202.10000000000036,28.461000000000013 202.10000000000036,28.096000000000004 C202.10000000000036,27.73199999999997 202.0,27.418999999999983 201.89999999999964,27.158999999999992 C201.70000000000073,26.899 201.5,26.76800000000003 201.20000000000073,26.76800000000003 C200.89999999999964,26.76800000000003 200.70000000000073,26.888000000000034 200.5,27.128000000000043 C200.29999999999927,27.388000000000034 200.20000000000073,27.684999999999945 200.20000000000073,28.01800000000003 M199.29999999999927,31.596000000000004 L199.10000000000036,19.706000000000017 C199.29999999999927,19.601999999999975 199.5,19.549999999999955 199.60000000000036,19.549999999999955 C199.79999999999927,19.549999999999955 200.0,19.601999999999975 200.20000000000073,19.706000000000017 L200.0,26.596000000000004 C200.60000000000036,26.138000000000034 201.20000000000073,25.908999999999992 201.89999999999964,25.908999999999992 C202.39999999999964,25.908999999999992 202.79999999999927,26.116999999999962 203.10000000000036,26.533999999999992 C203.5,26.951000000000022 203.60000000000036,27.42999999999995 203.60000000000036,27.971000000000004 C203.60000000000036,28.30499999999995 203.5,28.663999999999987 203.29999999999927,29.049999999999955 C203.10000000000036,29.39300000000003 202.89999999999964,29.663999999999987 202.70000000000073,29.861999999999966 C202.5,29.966000000000008 202.20000000000073,30.226999999999975 201.70000000000073,30.64300000000003 C201.5,30.758000000000038 201.29999999999927,30.89300000000003 201.10000000000036,31.049999999999955 C200.89999999999964,31.206000000000017 200.79999999999927,31.30499999999995 200.70000000000073,31.346000000000004 C200.60000000000036,31.399 200.5,31.503000000000043 200.39999999999964,31.658999999999992 C200.39999999999964,31.793999999999983 200.20000000000073,31.903999999999996 200.10000000000036,31.986999999999966 C200.0,32.07000000000005 199.89999999999964,32.111999999999966 199.79999999999927,32.111999999999966 C199.70000000000073,32.111999999999966 199.60000000000036,32.065000000000055 199.5,31.971000000000004 C199.39999999999964,31.878000000000043 199.29999999999927,31.753000000000043 199.29999999999927,31.596000000000004" />
<path d="M239.39999999999964,61.096000000000004 C239.70000000000073,61.096000000000004 239.89999999999964,61.17999999999995 240.0,61.346000000000004 C240.10000000000036,61.524 240.20000000000073,61.70100000000002 240.20000000000073,61.87800000000004 C240.20000000000073,62.15899999999999 240.0,62.513000000000034 239.39999999999964,62.940000000000055 C238.89999999999964,63.399 238.60000000000036,63.721000000000004 238.5,63.90899999999999 C238.39999999999964,64.05499999999995 238.29999999999927,64.38800000000003 238.0,64.90899999999999 C237.79999999999927,65.44000000000005 237.60000000000036,65.85699999999997 237.29999999999927,66.15899999999999 C237.10000000000036,66.44000000000005 236.79999999999927,66.58100000000002 236.39999999999964,66.58100000000002 C236.29999999999927,66.58100000000002 236.10000000000036,66.54399999999998 235.70000000000073,66.471 C235.39999999999964,66.38800000000003 235.10000000000036,66.346 235.0,66.346 C234.79999999999927,66.346 234.60000000000036,66.38800000000003 234.20000000000073,66.471 C233.89999999999964,66.55499999999995 233.70000000000073,66.596 233.60000000000036,66.596 C233.29999999999927,66.596 233.10000000000036,66.51300000000003 233.0,66.346 C232.89999999999964,66.149 232.79999999999927,65.971 232.79999999999927,65.81500000000005 C232.79999999999927,65.53399999999999 233.10000000000036,65.17999999999995 233.60000000000036,64.75300000000004 C234.10000000000036,64.29399999999998 234.39999999999964,63.971000000000004 234.5,63.78399999999999 C234.60000000000036,63.690000000000055 234.70000000000073,63.351999999999975 235.0,62.76800000000003 C235.20000000000073,62.236999999999966 235.5,61.82600000000002 235.70000000000073,61.53399999999999 C236.0,61.25300000000004 236.20000000000073,61.111999999999966 236.60000000000036,61.111999999999966 C236.70000000000073,61.111999999999966 237.0,61.149 237.29999999999927,61.221000000000004 C237.60000000000036,61.30499999999995 237.89999999999964,61.346000000000004 238.0,61.346000000000004 C238.20000000000073,61.346000000000004 238.39999999999964,61.30499999999995 238.79999999999927,61.221000000000004 C239.10000000000036,61.138000000000034 239.29999999999927,61.096000000000004 239.39999999999964,61.096000000000004" />
<path d="M237.20000000000073,81.096 C237.79999999999927,81.096 238.39999999999964,81.25800000000004 238.79999999999927,81.58100000000002 C239.20000000000073,81.93499999999995 239.39999999999964,82.37800000000004 239.39999999999964,82.90899999999999 C239.39999999999964,83.80499999999995 238.89999999999964,84.64300000000003 238.0,85.42499999999995 C237.10000000000036,86.20600000000002 236.10000000000036,86.596 235.0,86.596 C234.39999999999964,86.596 233.89999999999964,86.43499999999995 233.39999999999964,86.11199999999997 C233.0,85.75800000000004 232.79999999999927,85.31500000000005 232.79999999999927,84.78399999999999 C232.79999999999927,83.88800000000003 233.29999999999927,83.04999999999995 234.20000000000073,82.26800000000003 C235.10000000000036,81.48699999999997 236.10000000000036,81.096 237.20000000000073,81.096" />
<path d="M237.60000000000036,16.096000000000004 C238.20000000000073,16.096000000000004 238.79999999999927,16.258000000000038 239.20000000000073,16.581000000000017 C239.60000000000036,16.934999999999945 239.79999999999927,17.378000000000043 239.79999999999927,17.908999999999992 C239.79999999999927,18.80499999999995 239.29999999999927,19.64300000000003 238.39999999999964,20.424999999999955 C237.5,21.206000000000017 236.5,21.596000000000004 235.39999999999964,21.596000000000004 C234.79999999999927,21.596000000000004 234.29999999999927,21.434999999999945 233.79999999999927,21.111999999999966 C233.39999999999964,20.758000000000038 233.20000000000073,20.315000000000055 233.20000000000073,19.783999999999992 C233.20000000000073,18.888000000000034 233.70000000000073,18.049999999999955 234.60000000000036,17.26800000000003 C235.5,16.486999999999966 236.5,16.096000000000004 237.60000000000036,16.096000000000004" />
<path d="M211.0,61.096000000000004 C211.29999999999927,61.096000000000004 211.39999999999964,61.17999999999995 211.60000000000036,61.346000000000004 C211.70000000000073,61.524 211.79999999999927,61.70100000000002 211.79999999999927,61.87800000000004 C211.79999999999927,62.15899999999999 211.5,62.513000000000034 211.0,62.940000000000055 C210.5,63.399 210.20000000000073,63.721000000000004 210.10000000000036,63.90899999999999 C210.0,64.05499999999995 209.79999999999927,64.38800000000003 209.60000000000036,64.90899999999999 C209.39999999999964,65.44000000000005 209.10000000000036,65.85699999999997 208.89999999999964,66.15899999999999 C208.60000000000036,66.44000000000005 208.29999999999927,66.58100000000002 208.0,66.58100000000002 C207.89999999999964,66.58100000000002 207.60000000000036,66.54399999999998 207.29999999999927,66.471 C206.89999999999964,66.38800000000003 206.70000000000073,66.346 206.5,66.346 C206.39999999999964,66.346 206.10000000000036,66.38800000000003 205.79999999999927,66.471 C205.5,66.55499999999995 205.29999999999927,66.596 205.10000000000036,66.596 C204.89999999999964,66.596 204.70000000000073,66.51300000000003 204.60000000000036,66.346 C204.39999999999964,66.149 204.39999999999964,65.971 204.39999999999964,65.81500000000005 C204.39999999999964,65.53399999999999 204.60000000000036,65.17999999999995 205.20000000000073,64.75300000000004 C205.70000000000073,64.29399999999998 206.0,63.971000000000004 206.10000000000036,63.78399999999999 C206.20000000000073,63.690000000000055 206.29999999999927,63.351999999999975 206.60000000000036,62.76800000000003 C206.79999999999927,62.236999999999966 207.0,61.82600000000002 207.29999999999927,61.53399999999999 C207.5,61.25300000000004 207.79999999999927,61.111999999999966 208.10000000000036,61.111999999999966 C208.29999999999927,61.111999999999966 208.5,61.149 208.89999999999964,61.221000000000004 C209.20000000000073,61.30499999999995 209.39999999999964,61.346000000000004 209.60000000000036,61.346000000000004 C209.70000000000073,61.346000000000004 210.0,61.30499999999995 210.29999999999927,61.221000000000004 C210.60000000000036,61.138000000000034 210.89999999999964,61.096000000000004 211.0,61.096000000000004" />
<path d="M208.79999999999927,81.096 C209.39999999999964,81.096 209.89999999999964,81.25800000000004 210.39999999999964,81.58100000000002 C210.79999999999927,81.93499999999995 211.0,82.37800000000004 211.0,82.90899999999999 C211.0,83.80499999999995 210.5,84.64300000000003 209.60000000000036,85.42499999999995 C208.60000000000036,86.20600000000002 207.60000000000036,86.596 206.60000000000036,86.596 C205.89999999999964,86.596 205.39999999999964,86.43499999999995 205.0,86.11199999999997 C204.60000000000036,85.75800000000004 204.39999999999964,85.31500000000005 204.39999999999964,84.78399999999999 C204.39999999999964,83.88800000000003 204.89999999999964,83.04999999999995 205.79999999999927,82.26800000000003 C206.70000000000073,81.48699999999997 207.70000000000073,81.096 208.79999999999927,81.096" />
<path d="M209.20000000000073,26.096000000000004 C209.79999999999927,26.096000000000004 210.29999999999927,26.258000000000038 210.79999999999927,26.581000000000017 C211.20000000000073,26.934999999999945 211.39999999999964,27.378000000000043 211.39999999999964,27.908999999999992 C211.39999999999964,28.80499999999995 210.89999999999964,29.64300000000003 210.0,30.424999999999955 C209.0,31.206000000000017 208.0,31.596000000000004 207.0,31.596000000000004 C206.29999999999927,31.596000000000004 205.79999999999927,31.434999999999945 205.39999999999964,31.111999999999966 C205.0,30.758000000000038 204.79999999999927,30.315000000000055 204.79999999999927,29.783999999999992 C204.79999999999927,28.888000000000034 205.29999999999927,28.049999999999955 206.20000000000073,27.26800000000003 C207.10000000000036,26.486999999999966 208.10000000000036,26.096000000000004 209.20000000000073,26.096000000000004" />
<path d="M195.0,71.096 C195.60000000000036,71.096 196.10000000000036,71.25800000000004 196.5,71.58100000000002 C196.89999999999964,71.93499999999995 197.10000000000036,72.37800000000004 197.10000000000036,72.90899999999999 C197.10000000000036,73.80499999999995 196.70000000000073,74.64300000000003 195.79999999999927,75.42499999999995 C194.79999999999927,76.20600000000002 193.79999999999927,76.596 192.70000000000073,76.596 C192.10000000000036,76.596 191.60000000000036,76.43499999999995 191.20000000000073,76.11199999999997 C190.79999999999927,75.75800000000004 190.60000000000036,75.31500000000005 190.60000000000036,74.78399999999999 C190.60000000000036,73.88800000000003 191.0,73.04999999999995 192.0,72.26800000000003 C192.89999999999964,71.48699999999997 193.89999999999964,71.096 195.0,71.096" />
<path d="M182.60000000000036,61.096000000000004 C182.79999999999927,61.096000000000004 183.0,61.17999999999995 183.10000000000036,61.346000000000004 C183.29999999999927,61.524 183.29999999999927,61.70100000000002 183.29999999999927,61.87800000000004 C183.29999999999927,62.15899999999999 183.10000000000036,62.513000000000034 182.60000000000036,62.940000000000055 C182.0,63.399 181.70000000000073,63.721000000000004 181.60000000000036,63.90899999999999 C181.5,64.05499999999995 181.39999999999964,64.38800000000003 181.10000000000036,64.90899999999999 C180.89999999999964,65.44000000000005 180.70000000000073,65.85699999999997 180.39999999999964,66.15899999999999 C180.20000000000073,66.44000000000005 179.89999999999964,66.58100000000002 179.5,66.58100000000002 C179.39999999999964,66.58100000000002 179.20000000000073,66.54399999999998 178.79999999999927,66.471 C178.5,66.38800000000003 178.29999999999927,66.346 178.10000000000036,66.346 C177.89999999999964,66.346 177.70000000000073,66.38800000000003 177.39999999999964,66.471 C177.10000000000036,66.55499999999995 176.79999999999927,66.596 176.70000000000073,66.596 C176.39999999999964,66.596 176.20000000000073,66.51300000000003 176.10000000000036,66.346 C176.0,66.149 175.89999999999964,65.971 175.89999999999964,65.81500000000005 C175.89999999999964,65.53399999999999 176.20000000000073,65.17999999999995 176.70000000000073,64.75300000000004 C177.20000000000073,64.29399999999998 177.60000000000036,63.971000000000004 177.70000000000073,63.78399999999999 C177.70000000000073,63.690000000000055 177.89999999999964,63.351999999999975 178.10000000000036,62.76800000000003 C178.29999999999927,62.236999999999966 178.60000000000036,61.82600000000002 178.79999999999927,61.53399999999999 C179.10000000000036,61.25300000000004 179.39999999999964,61.111999999999966 179.70000000000073,61.111999999999966 C179.89999999999964,61.111999999999966 180.10000000000036,61.149 180.39999999999964,61.221000000000004 C180.70000000000073,61.30499999999995 181.0,61.346000000000004 181.20000000000073,61.346000000000004 C181.29999999999927,61.346000000000004 181.5,61.30499999999995 181.89999999999964,61.221000000000004 C182.20000000000073,61.138000000000034 182.39999999999964,61.096000000000004 182.60000000000036,61.096000000000004" />
<path d="M180.70000000000073,13.596000000000004 C181.39999999999964,13.596000000000004 181.89999999999964,13.758000000000038 182.29999999999927,14.081000000000017 C182.70000000000073,14.434999999999945 182.89999999999964,14.878000000000043 182.89999999999964,15.408999999999992 C182.89999999999964,16.30499999999995 182.5,17.14300000000003 181.5,17.924999999999955 C180.60000000000036,18.706000000000017 179.60000000000036,19.096000000000004 178.5,19.096000000000004 C177.89999999999964,19.096000000000004 177.39999999999964,18.934999999999945 177.0,18.611999999999966 C176.5,18.258000000000038 176.29999999999927,17.815000000000055 176.29999999999927,17.283999999999992 C176.29999999999927,16.388000000000034 176.79999999999927,15.549999999999955 177.70000000000073,14.768000000000029 C178.70000000000073,13.986999999999966 179.70000000000073,13.596000000000004 180.70000000000073,13.596000000000004" />
<path d="M166.5,6.096000000000004 C167.10000000000036,6.096000000000004 167.70000000000073,6.258000000000038 168.10000000000036,6.581000000000017 C168.5,6.934999999999945 168.70000000000073,7.378000000000043 168.70000000000073,7.908999999999992 C168.70000000000073,8.80499999999995 168.20000000000073,9.643000000000029 167.29999999999927,10.424999999999955 C166.39999999999964,11.206000000000017 165.39999999999964,11.596000000000004 164.29999999999927,11.596000000000004 C163.70000000000073,11.596000000000004 163.20000000000073,11.434999999999945 162.70000000000073,11.111999999999966 C162.29999999999927,10.758000000000038 162.10000000000036,10.315000000000055 162.10000000000036,9.783999999999992 C162.10000000000036,8.888000000000034 162.60000000000036,8.049999999999955 163.5,7.268000000000029 C164.39999999999964,6.486999999999966 165.39999999999964,6.096000000000004 166.5,6.096000000000004" />
<path d="M154.10000000000036,61.096000000000004 C154.39999999999964,61.096000000000004 154.60000000000036,61.17999999999995 154.70000000000073,61.346000000000004 C154.79999999999927,61.524 154.89999999999964,61.70100000000002 154.89999999999964,61.87800000000004 C154.89999999999964,62.15899999999999 154.60000000000036,62.513000000000034 154.10000000000036,62.940000000000055 C153.60000000000036,63.399 153.29999999999927,63.721000000000004 153.20000000000073,63.90899999999999 C153.10000000000036,64.05499999999995 152.89999999999964,64.38800000000003 152.70000000000073,64.90899999999999 C152.5,65.44000000000005 152.29999999999927,65.85699999999997 152.0,66.15899999999999 C151.79999999999927,66.44000000000005 151.39999999999964,66.58100000000002 151.10000000000036,66.58100000000002 C151.0,66.58100000000002 150.70000000000073,66.54399999999998 150.39999999999964,66.471 C150.10000000000036,66.38800000000003 149.79999999999927,66.346 149.70000000000073,66.346 C149.5,66.346 149.29999999999927,66.38800000000003 148.89999999999964,66.471 C148.60000000000036,66.55499999999995 148.39999999999964,66.596 148.29999999999927,66.596 C148.0,66.596 147.79999999999927,66.51300000000003 147.70000000000073,66.346 C147.60000000000036,66.149 147.5,65.971 147.5,65.81500000000005 C147.5,65.53399999999999 147.79999999999927,65.17999999999995 148.29999999999927,64.75300000000004 C148.79999999999927,64.29399999999998 149.10000000000036,63.971000000000004 149.20000000000073,63.78399999999999 C149.29999999999927,63.690000000000055 149.39999999999964,63.351999999999975 149.70000000000073,62.76800000000003 C149.89999999999964,62.236999999999966 150.10000000000036,61.82600000000002 150.39999999999964,61.53399999999999 C150.60000000000036,61.25300000000004 150.89999999999964,61.111999999999966 151.29999999999927,61.111999999999966 C151.39999999999964,61.111999999999966 151.60000000000036,61.149 152.0,61.221000000000004 C152.29999999999927,61.30499999999995 152.60000000000036,61.346000000000004 152.70000000000073,61.346000000000004 C152.89999999999964,61.346000000000004 153.10000000000036,61.30499999999995 153.39999999999964,61.221000000000004 C153.79999999999927,61.138000000000034 154.0,61.096000000000004 154.10000000000036,61.096000000000004" />
<path d="M152.29999999999927,6.096000000000004 C152.89999999999964,6.096000000000004 153.39999999999964,6.258000000000038 153.89999999999964,6.581000000000017 C154.29999999999927,6.934999999999945 154.5,7.378000000000043 154.5,7.908999999999992 C154.5,8.80499999999995 154.0,9.643000000000029 153.10000000000036,10.424999999999955 C152.20000000000073,11.206000000000017 151.20000000000073,11.596000000000004 150.10000000000036,11.596000000000004 C149.5,11.596000000000004 148.89999999999964,11.434999999999945 148.5,11.111999999999966 C148.10000000000036,10.758000000000038 147.89999999999964,10.315000000000055 147.89999999999964,9.783999999999992 C147.89999999999964,8.888000000000034 148.39999999999964,8.049999999999955 149.29999999999927,7.268000000000029 C150.20000000000073,6.486999999999966 151.20000000000073,6.096000000000004 152.29999999999927,6.096000000000004" />
<path d="M138.10000000000036,13.596000000000004 C138.70000000000073,13.596000000000004 139.20000000000073,13.758000000000038 139.70000000000073,14.081000000000017 C140.10000000000036,14.434999999999945 140.29999999999927,14.878000000000043 140.29999999999927,15.408999999999992 C140.29999999999927,16.30499999999995 139.79999999999927,17.14300000000003 138.89999999999964,17.924999999999955 C137.89999999999964,18.706000000000017 136.89999999999964,19.096000000000004 135.89999999999964,19.096000000000004 C135.20000000000073,19.096000000000004 134.70000000000073,18.934999999999945 134.29999999999927,18.611999999999966 C133.89999999999964,18.258000000000038 133.70000000000073,17.815000000000055 133.70000000000073,17.283999999999992 C133.70000000000073,16.388000000000034 134.20000000000073,15.549999999999955 135.10000000000036,14.768000000000029 C136.0,13.986999999999966 137.0,13.596000000000004 138.10000000000036,13.596000000000004" />
<path d="M125.70000000000073,61.096000000000004 C125.89999999999964,61.096000000000004 126.10000000000036,61.17999999999995 126.20000000000073,61.346000000000004 C126.39999999999964,61.524 126.5,61.70100000000002 126.5,61.87800000000004 C126.5,62.15899999999999 126.20000000000073,62.513000000000034 125.70000000000073,62.940000000000055 C125.10000000000036,63.399 124.79999999999927,63.721000000000004 124.70000000000073,63.90899999999999 C124.60000000000036,64.05499999999995 124.5,64.38800000000003 124.29999999999927,64.90899999999999 C124.10000000000036,65.44000000000005 123.79999999999927,65.85699999999997 123.60000000000036,66.15899999999999 C123.29999999999927,66.44000000000005 123.0,66.58100000000002 122.70000000000073,66.58100000000002 C122.5,66.58100000000002 122.29999999999927,66.54399999999998 122.0,66.471 C121.60000000000036,66.38800000000003 121.39999999999964,66.346 121.20000000000073,66.346 C121.10000000000036,66.346 120.79999999999927,66.38800000000003 120.5,66.471 C120.20000000000073,66.55499999999995 119.89999999999964,66.596 119.79999999999927,66.596 C119.60000000000036,66.596 119.39999999999964,66.51300000000003 119.20000000000073,66.346 C119.10000000000036,66.149 119.10000000000036,65.971 119.10000000000036,65.81500000000005 C119.10000000000036,65.53399999999999 119.29999999999927,65.17999999999995 119.79999999999927,64.75300000000004 C120.39999999999964,64.29399999999998 120.70000000000073,63.971000000000004 120.79999999999927,63.78399999999999 C120.79999999999927,63.690000000000055 121.0,63.351999999999975 121.20000000000073,62.76800000000003 C121.5,62.236999999999966 121.70000000000073,61.82600000000002 122.0,61.53399999999999 C122.20000000000073,61.25300000000004 122.5,61.111999999999966 122.79999999999927,61.111999999999966 C123.0,61.111999999999966 123.20000000000073,61.149 123.5,61.221000000000004 C123.89999999999964,61.30499999999995 124.10000000000036,61.346000000000004 124.29999999999927,61.346000000000004 C124.39999999999964,61.346000000000004 124.70000000000073,61.30499999999995 125.0,61.221000000000004 C125.29999999999927,61.138000000000034 125.5,61.096000000000004 125.70000000000073,61.096000000000004" />
<path d="M123.5,81.096 C124.10000000000036,81.096 124.60000000000036,81.25800000000004 125.0,81.58100000000002 C125.39999999999964,81.93499999999995 125.60000000000036,82.37800000000004 125.60000000000036,82.90899999999999 C125.60000000000036,83.80499999999995 125.20000000000073,84.64300000000003 124.29999999999927,85.42499999999995 C123.29999999999927,86.20600000000002 122.29999999999927,86.596 121.20000000000073,86.596 C120.60000000000036,86.596 120.10000000000036,86.43499999999995 119.70000000000073,86.11199999999997 C119.29999999999927,85.75800000000004 119.10000000000036,85.31500000000005 119.10000000000036,84.78399999999999 C119.10000000000036,83.88800000000003 119.5,83.04999999999995 120.5,82.26800000000003 C121.39999999999964,81.48699999999997 122.39999999999964,81.096 123.5,81.096" />
<path d="M123.89999999999964,13.596000000000004 C124.5,13.596000000000004 125.0,13.758000000000038 125.39999999999964,14.081000000000017 C125.79999999999927,14.434999999999945 126.0,14.878000000000043 126.0,15.408999999999992 C126.0,16.30499999999995 125.60000000000036,17.14300000000003 124.70000000000073,17.924999999999955 C123.70000000000073,18.706000000000017 122.70000000000073,19.096000000000004 121.60000000000036,19.096000000000004 C121.0,19.096000000000004 120.5,18.934999999999945 120.10000000000036,18.611999999999966 C119.70000000000073,18.258000000000038 119.5,17.815000000000055 119.5,17.283999999999992 C119.5,16.388000000000034 119.89999999999964,15.549999999999955 120.89999999999964,14.768000000000029 C121.79999999999927,13.986999999999966 122.79999999999927,13.596000000000004 123.89999999999964,13.596000000000004" />
<path d="M102.89999999999964,61.096000000000004 C103.20000000000073,61.096000000000004 103.39999999999964,61.17999999999995 103.5,61.346000000000004 C103.60000000000036,61.524 103.70000000000073,61.70100000000002 103.70000000000073,61.87800000000004 C103.70000000000073,62.15899999999999 103.39999999999964,62.513000000000034 102.89999999999964,62.940000000000055 C102.39999999999964,63.399 102.10000000000036,63.721000000000004 102.0,63.90899999999999 C101.89999999999964,64.05499999999995 101.70000000000073,64.38800000000003 101.5,64.90899999999999 C101.29999999999927,65.44000000000005 101.10000000000036,65.85699999999997 100.79999999999927,66.15899999999999 C100.60000000000036,66.44000000000005 100.29999999999927,66.58100000000002 99.89999999999964,66.58100000000002 C99.79999999999927,66.58100000000002 99.5,66.54399999999998 99.20000000000073,66.471 C98.89999999999964,66.38800000000003 98.60000000000036,66.346 98.5,66.346 C98.29999999999927,66.346 98.10000000000036,66.38800000000003 97.70000000000073,66.471 C97.39999999999964,66.55499999999995 97.20000000000073,66.596 97.10000000000036,66.596 C96.79999999999927,66.596 96.60000000000036,66.51300000000003 96.5,66.346 C96.39999999999964,66.149 96.29999999999927,65.971 96.29999999999927,65.81500000000005 C96.29999999999927,65.53399999999999 96.60000000000036,65.17999999999995 97.10000000000036,64.75300000000004 C97.60000000000036,64.29399999999998 97.89999999999964,63.971000000000004 98.0,63.78399999999999 C98.10000000000036,63.690000000000055 98.20000000000073,63.351999999999975 98.5,62.76800000000003 C98.70000000000073,62.236999999999966 98.89999999999964,61.82600000000002 99.20000000000073,61.53399999999999 C99.39999999999964,61.25300000000004 99.70000000000073,61.111999999999966 100.10000000000036,61.111999999999966 C100.20000000000073,61.111999999999966 100.5,61.149 100.79999999999927,61.221000000000004 C101.10000000000036,61.30499999999995 101.39999999999964,61.346000000000004 101.5,61.346000000000004 C101.70000000000073,61.346000000000004 101.89999999999964,61.30499999999995 102.20000000000073,61.221000000000004 C102.60000000000036,61.138000000000034 102.79999999999927,61.096000000000004 102.89999999999964,61.096000000000004" />
<path d="M100.70000000000073,81.096 C101.29999999999927,81.096 101.89999999999964,81.25800000000004 102.29999999999927,81.58100000000002 C102.70000000000073,81.93499999999995 102.89999999999964,82.37800000000004 102.89999999999964,82.90899999999999 C102.89999999999964,83.80499999999995 102.39999999999964,84.64300000000003 101.5,85.42499999999995 C100.60000000000036,86.20600000000002 99.60000000000036,86.596 98.5,86.596 C97.89999999999964,86.596 97.29999999999927,86.43499999999995 96.89999999999964,86.11199999999997 C96.5,85.75800000000004 96.29999999999927,85.31500000000005 96.29999999999927,84.78399999999999 C96.29999999999927,83.88800000000003 96.79999999999927,83.04999999999995 97.70000000000073,82.26800000000003 C98.60000000000036,81.48699999999997 99.60000000000036,81.096 100.70000000000073,81.096" />
<path d="M101.10000000000036,23.596000000000004 C101.70000000000073,23.596000000000004 102.29999999999927,23.758000000000038 102.70000000000073,24.081000000000017 C103.10000000000036,24.434999999999945 103.29999999999927,24.878000000000043 103.29999999999927,25.408999999999992 C103.29999999999927,26.30499999999995 102.79999999999927,27.14300000000003 101.89999999999964,27.924999999999955 C101.0,28.706000000000017 100.0,29.096000000000004 98.89999999999964,29.096000000000004 C98.29999999999927,29.096000000000004 97.70000000000073,28.934999999999945 97.29999999999927,28.611999999999966 C96.89999999999964,28.258000000000038 96.70000000000073,27.815000000000055 96.70000000000073,27.283999999999992 C96.70000000000073,26.388000000000034 97.20000000000073,25.549999999999955 98.10000000000036,24.76800000000003 C99.0,23.986999999999966 100.0,23.596000000000004 101.10000000000036,23.596000000000004" />
<path d="M76.0,81.346 L74.20000000000073,81.346 C74.10000000000036,81.346 74.0,81.28399999999999 74.0,81.15899999999999 L74.0,71.53399999999999 C74.0,71.40899999999999 74.10000000000036,71.346 74.20000000000073,71.346 L76.0,71.346 C76.20000000000073,71.346 76.20000000000073,71.40899999999999 76.20000000000073,71.53399999999999 L76.20000000000073,81.15899999999999 C76.20000000000073,81.28399999999999 76.20000000000073,81.346 76.0,81.346 M71.60000000000036,81.346 L69.79999999999927,81.346 C69.60000000000036,81.346 69.60000000000036,81.28399999999999 69.60000000000036,81.15899999999999 L69.60000000000036,71.53399999999999 C69.60000000000036,71.40899999999999 69.60000000000036,71.346 69.79999999999927,71.346 L71.60000000000036,71.346 C71.79999999999927,71.346 71.79999999999927,71.40899999999999 71.79999999999927,71.53399999999999 L71.79999999999927,81.15899999999999 C71.79999999999927,81.28399999999999 71.79999999999927,81.346 71.60000000000036,81.346" />
<path d="M71.5,37.40899999999999 C71.89999999999964,37.04399999999998 72.10000000000036,36.70600000000002 72.10000000000036,36.39300000000003 C72.0,36.101999999999975 71.89999999999964,35.88300000000004 71.70000000000073,35.736999999999966 C71.5,35.58100000000002 71.20000000000073,35.50300000000004 70.89999999999964,35.50300000000004 C70.70000000000073,35.50300000000004 70.5,35.57600000000002 70.29999999999927,35.721000000000004 C70.20000000000073,35.85699999999997 70.10000000000036,36.01800000000003 70.10000000000036,36.20600000000002 C70.10000000000036,36.44500000000005 70.20000000000073,36.62199999999996 70.39999999999964,36.736999999999966 L71.5,37.40899999999999 M71.89999999999964,37.565000000000055 C72.39999999999964,37.85699999999997 72.70000000000073,38.263000000000034 72.70000000000073,38.78399999999999 C72.70000000000073,38.78399999999999 72.70000000000073,38.80499999999995 72.70000000000073,38.846000000000004 C72.70000000000073,39.24199999999996 72.5,39.57600000000002 72.20000000000073,39.846000000000004 C71.89999999999964,40.12800000000004 71.39999999999964,40.26800000000003 70.79999999999927,40.26800000000003 C70.29999999999927,40.26800000000003 69.89999999999964,40.138000000000034 69.5,39.87800000000004 C69.20000000000073,39.638000000000034 69.0,39.309999999999945 69.0,38.89300000000003 C69.0,38.70600000000002 69.0,38.53899999999999 69.10000000000036,38.39300000000003 C69.20000000000073,38.226999999999975 69.29999999999927,38.111999999999966 69.39999999999964,38.049999999999955 C69.39999999999964,38.049999999999955 69.5,37.924999999999955 69.70000000000073,37.674999999999955 C69.29999999999927,37.403999999999996 69.10000000000036,37.05499999999995 69.10000000000036,36.62800000000004 C69.10000000000036,36.263000000000034 69.29999999999927,35.940000000000055 69.60000000000036,35.65899999999999 C69.89999999999964,35.399 70.39999999999964,35.26800000000003 70.89999999999964,35.26800000000003 C71.29999999999927,35.26800000000003 71.70000000000073,35.36699999999996 72.0,35.565000000000055 C72.29999999999927,35.763000000000034 72.5,36.03899999999999 72.5,36.39300000000003 C72.5,36.726999999999975 72.29999999999927,37.11699999999996 71.89999999999964,37.565000000000055 M70.0,37.846000000000004 C69.60000000000036,38.190000000000055 69.39999999999964,38.53899999999999 69.39999999999964,38.89300000000003 C69.39999999999964,39.226999999999975 69.60000000000036,39.49699999999996 69.79999999999927,39.70600000000002 C70.10000000000036,39.924999999999955 70.39999999999964,40.03399999999999 70.79999999999927,40.03399999999999 C71.10000000000036,40.03399999999999 71.29999999999927,39.95100000000002 71.39999999999964,39.78399999999999 C71.60000000000036,39.62800000000004 71.70000000000073,39.434999999999945 71.70000000000073,39.20600000000002 C71.60000000000036,38.924999999999955 71.5,38.721000000000004 71.29999999999927,38.596000000000004 L70.0,37.846000000000004 M77.70000000000073,17.065000000000055 C77.5,16.866999999999962 77.39999999999964,16.625 77.39999999999964,16.339000000000055 C77.39999999999964,16.05200000000002 77.5,15.812999999999988 77.70000000000073,15.620000000000005 C77.89999999999964,15.427000000000021 78.10000000000036,15.331000000000017 78.39999999999964,15.331000000000017 C78.70000000000073,15.331000000000017 78.89999999999964,15.427000000000021 79.10000000000036,15.620000000000005 C79.29999999999927,15.812999999999988 79.39999999999964,16.05200000000002 79.39999999999964,16.339000000000055 C79.39999999999964,16.625 79.29999999999927,16.866999999999962 79.10000000000036,17.065000000000055 C78.89999999999964,17.263000000000034 78.70000000000073,17.361999999999966 78.39999999999964,17.361999999999966 C78.10000000000036,17.361999999999966 77.89999999999964,17.263000000000034 77.70000000000073,17.065000000000055 M77.70000000000073,22.07299999999998 C77.5,21.879999999999995 77.39999999999964,21.640999999999963 77.39999999999964,21.354000000000042 C77.39999999999964,21.067999999999984 77.5,20.826000000000022 77.70000000000073,20.628000000000043 C77.89999999999964,20.42999999999995 78.10000000000036,20.331000000000017 78.39999999999964,20.331000000000017 C78.70000000000073,20.331000000000017 78.89999999999964,20.42999999999995 79.10000000000036,20.628000000000043 C79.29999999999927,20.826000000000022 79.39999999999964,21.067999999999984 79.39999999999964,21.354000000000042 C79.39999999999964,21.640999999999963 79.29999999999927,21.879999999999995 79.10000000000036,22.07299999999998 C78.89999999999964,22.265999999999963 78.70000000000073,22.361999999999966 78.39999999999964,22.361999999999966 C78.10000000000036,22.361999999999966 77.89999999999964,22.265999999999963 77.70000000000073,22.07299999999998 M70.89999999999964,13.596000000000004 C72.60000000000036,13.596000000000004 74.0,14.028999999999996 75.10000000000036,14.893000000000029 C76.20000000000073,15.809999999999945 76.79999999999927,17.049999999999955 76.79999999999927,18.611999999999966 C76.79999999999927,19.663999999999987 76.5,20.628000000000043 76.10000000000036,21.503000000000043 C75.70000000000073,22.418999999999983 75.20000000000073,23.226999999999975 74.60000000000036,23.924999999999955 C73.89999999999964,24.64300000000003 73.10000000000036,25.32000000000005 72.20000000000073,25.956000000000017 C71.29999999999927,26.581000000000017 70.39999999999964,27.14300000000003 69.39999999999964,27.64300000000003 C67.5,28.611999999999966 66.39999999999964,29.096000000000004 66.20000000000073,29.096000000000004 C66.10000000000036,29.096000000000004 66.0,29.013000000000034 66.0,28.846000000000004 C66.0,28.783999999999992 66.0,28.726999999999975 66.10000000000036,28.674999999999955 C66.70000000000073,28.278999999999996 67.5,27.778999999999996 68.5,27.174999999999955 C69.10000000000036,26.76800000000003 69.89999999999964,26.206000000000017 70.70000000000073,25.486999999999966 C71.5,24.809999999999945 72.10000000000036,24.174999999999955 72.60000000000036,23.581000000000017 C73.0,22.986999999999966 73.39999999999964,22.258000000000038 73.79999999999927,21.39300000000003 C74.10000000000036,20.51800000000003 74.29999999999927,19.653999999999996 74.29999999999927,18.799999999999955 C74.29999999999927,17.538999999999987 74.0,16.440000000000055 73.39999999999964,15.503000000000043 C72.70000000000073,14.565000000000055 71.89999999999964,14.096000000000004 70.89999999999964,14.096000000000004 C70.20000000000073,14.096000000000004 69.5,14.331000000000017 69.0,14.799999999999955 C68.5,15.278999999999996 68.0,15.883000000000038 67.79999999999927,16.611999999999966 C68.0,16.508000000000038 68.29999999999927,16.456000000000017 68.5,16.456000000000017 C69.0,16.456000000000017 69.5,16.653999999999996 69.89999999999964,17.049999999999955 C70.29999999999927,17.466000000000008 70.5,17.940000000000055 70.5,18.471000000000004 C70.5,19.033999999999992 70.29999999999927,19.538999999999987 69.89999999999964,19.986999999999966 C69.5,20.383000000000038 69.0,20.581000000000017 68.5,20.581000000000017 C67.89999999999964,20.581000000000017 67.39999999999964,20.383000000000038 66.89999999999964,19.986999999999966 C66.5,19.538999999999987 66.20000000000073,19.033999999999992 66.20000000000073,18.471000000000004 C66.20000000000073,17.128000000000043 66.70000000000073,15.981999999999971 67.60000000000036,15.033999999999992 C68.5,14.076000000000022 69.60000000000036,13.596000000000004 70.89999999999964,13.596000000000004" />
<path d="M204.39999999999964,97.596 L233.5,97.596 L233.5,100.096 L204.39999999999964,100.096 L204.39999999999964,97.596" />
<path d="M204.79999999999927,41.346000000000004 L285.10000000000036,33.78499999999997 L285.10000000000036,36.28499999999997 L204.79999999999927,43.846000000000004 L204.79999999999927,41.346000000000004" />
<path d="M147.5,83.846 L191.20000000000073,90.19100000000003 L191.20000000000073,92.69100000000003 L147.5,86.346 L147.5,83.846" />
<path d="M175.89999999999964,84.22400000000005 L191.20000000000073,86.44100000000003 L191.20000000000073,88.94100000000003 L175.89999999999964,86.72400000000005 L175.89999999999964,84.22400000000005" />
<path d="M147.89999999999964,26.346000000000004 L177.0,31.461000000000013 L177.0,33.96100000000001 L147.89999999999964,28.846000000000004 L147.89999999999964,26.346000000000004" />
<path d="M147.89999999999964,22.596000000000004 L162.79999999999927,25.211000000000013 L162.79999999999927,27.711000000000013 L147.89999999999964,25.096000000000004 L147.89999999999964,22.596000000000004" />
<path d="M96.29999999999927,97.596 L119.70000000000073,97.596 L119.70000000000073,100.096 L96.29999999999927,100.096 L96.29999999999927,97.596" />
<path d="M96.70000000000073,42.596000000000004 L134.29999999999927,36.236999999999966 L134.29999999999927,38.736999999999966 L96.70000000000073,45.096000000000004 L96.70000000000073,42.596000000000004" />
<path d="M119.5,35.0 L134.29999999999927,32.486999999999966 L134.29999999999927,34.986999999999966 L119.5,37.5 L119.5,35.0" />
<polyline points="0.0,13.846000000000004 5.5,13.846000000000004" fill="none" stroke="#000000" stroke-width="0.40" />
<polyline points="0.0,18.846000000000004 5.5,18.846000000000004" fill="none" stroke="#000000" stroke-width="0.40" />
<polyline points="0.0,23.846000000000004 5.5,23.846000000000004" fill="none" stroke="#000000" stroke-width="0.40" />
<polyline points="0.0,28.846000000000004 5.5,28.846000000000004" fill="none" stroke="#000000" stroke-width="0.40" />
<polyline points="0.0,33.846000000000004 5.5,33.846000000000004" fill="none" stroke="#000000" stroke-width="0.40" />
<polyline points="0.0,66.346 5.5,66.346" fill="none" stroke="#000000" stroke-width="0.40" />
<polyline points="0.0,71.346 5.5,71.346" fill="none" stroke="#000000" stroke-width="0.40" />
<polyline points="0.0,76.346 5.5,76.346" fill="none" stroke="#000000" stroke-width="0.40" />
<polyline points="0.0,81.346 5.5,81.346" fill="none" stroke="#000000" stroke-width="0.40" />
<polyline points="0.0,86.346 5.5,86.346" fill="none" stroke="#000000" stroke-width="0.40" />
<polyline points="5.100000000000364,66.346 5.100000000000364,86.346" fill="" stroke="#000000" stroke-width="0.80" />
<polyline points="5.100000000000364,13.846000000000004 5.100000000000364,33.846000000000004" fill="" stroke="#000000" stroke-width="0.80" />
<polyline points="62.20000000000073,13.846000000000004 255.0,13.846000000000004" fill="none" stroke="#000000" stroke-width="0.40" />
<polyline points="62.20000000000073,18.846000000000004 255.0,18.846000000000004" fill="none" stroke="#000000" stroke-width="0.40" />
<polyline points="62.20000000000073,23.846000000000004 255.0,23.846000000000004" fill="none" stroke="#000000" stroke-width="0.40" />
<polyline points="62.20000000000073,28.846000000000004 255.0,28.846000000000004" fill="none" stroke="#000000" stroke-width="0.40" />
<polyline points="62.20000000000073,33.846000000000004 255.0,33.846000000000004" fill="none" stroke="#000000" stroke-width="0.40" />
<polyline points="62.20000000000073,66.346 255.0,66.346" fill="none" stroke="#000000" stroke-width="0.40" />
<polyline points="62.20000000000073,71.346 255.0,71.346" fill="none" stroke="#000000" stroke-width="0.40" />
<polyline points="62.20000000000073,76.346 255.0,76.346" fill="none" stroke="#000000" stroke-width="0.40" />
<polyline points="62.20000000000073,81.346 255.0,81.346" fill="none" stroke="#000000" stroke-width="0.40" />
<polyline points="62.20000000000073,86.346 255.0,86.346" fill="none" stroke="#000000" stroke-width="0.40" />
<polyline points="62.600000000000364,0.0 62.600000000000364,86.346" fill="" stroke="#000000" stroke-width="0.80" />
<polyline points="233.10000000000036,65.90999999999997 233.10000000000036,98.846" fill="" stroke="#000000" stroke-width="0.65" />
<polyline points="233.5,19.785999999999945 233.5,39.918000000000006" fill="" stroke="#000000" stroke-width="0.65" />
<polyline points="204.70000000000073,65.90999999999997 204.70000000000073,98.846" fill="" stroke="#000000" stroke-width="0.65" />
<polyline points="205.10000000000036,29.785999999999945 205.10000000000036,42.596000000000004" fill="" stroke="#000000" stroke-width="0.65" />
<polyline points="190.89999999999964,74.78599999999994 190.89999999999964,91.346" fill="" stroke="#000000" stroke-width="0.65" />
<polyline points="176.29999999999927,65.90999999999997 176.29999999999927,89.22400000000005" fill="" stroke="#000000" stroke-width="0.65" />
<polyline points="176.70000000000073,17.285999999999945 176.70000000000073,32.596000000000004" fill="" stroke="#000000" stroke-width="0.65" />
<polyline points="162.39999999999964,9.785999999999945 162.39999999999964,30.096000000000004" fill="" stroke="#000000" stroke-width="0.65" />
<polyline points="147.79999999999927,65.90999999999997 147.79999999999927,85.096" fill="" stroke="#000000" stroke-width="0.65" />
<polyline points="148.20000000000073,9.785999999999945 148.20000000000073,27.596000000000004" fill="" stroke="#000000" stroke-width="0.65" />
<polyline points="134.0,17.285999999999945 134.0,37.596000000000004" fill="" stroke="#000000" stroke-width="0.65" />
<polyline points="119.39999999999964,65.90999999999997 119.39999999999964,98.846" fill="" stroke="#000000" stroke-width="0.65" />
<polyline points="119.79999999999927,17.285999999999945 119.79999999999927,40.0" fill="" stroke="#000000" stroke-width="0.65" />
<polyline points="96.60000000000036,65.90999999999997 96.60000000000036,98.846" fill="" stroke="#000000" stroke-width="0.65" />
<polyline points="97.0,27.285999999999945 97.0,43.846000000000004" fill="" stroke="#000000" stroke-width="0.65" />
<polyline points="160.60000000000036,8.846000000000004 170.20000000000073,8.846000000000004" fill="" stroke="#000000" stroke-width="0.80" />
<polyline points="146.39999999999964,8.846000000000004 156.0,8.846000000000004" fill="" stroke="#000000" stroke-width="0.80" />
</svg>
