<?xml version="1.0" encoding="UTF-8" standalone="yes"?>
<svg width="256.0px" height="256.0px" xmlns="http://www.w3.org/2000/svg" xmlns:xlink="http://www.w3.org/1999/xlink" version="1.2" baseProfile="tiny">
<path d="M153.70000000000073,40.08100000000002 C153.70000000000073,40.33100000000002 153.60000000000036,40.45600000000002 153.29999999999927,40.45600000000002 C153.10000000000036,40.45600000000002 152.89999999999964,40.33100000000002 152.89999999999964,40.08100000000002 L152.89999999999964,37.190000000000055 L151.29999999999927,37.815000000000055 L151.29999999999927,40.971000000000004 C151.29999999999927,41.221000000000004 151.20000000000073,41.346000000000004 150.89999999999964,41.346000000000004 C150.70000000000073,41.346000000000004 150.5,41.221000000000004 150.5,40.971000000000004 L150.5,38.065000000000055 L149.89999999999964,38.299999999999955 C149.89999999999964,38.309999999999945 149.89999999999964,38.315000000000055 149.79999999999927,38.315000000000055 C149.70000000000073,38.315000000000055 149.60000000000036,38.275999999999954 149.5,38.19799999999998 C149.39999999999964,38.120000000000005 149.39999999999964,38.028999999999996 149.39999999999964,37.924999999999955 L149.39999999999964,36.721000000000004 C149.39999999999964,36.524 149.39999999999964,36.399 149.60000000000036,36.346000000000004 L150.5,36.03399999999999 L150.5,32.83100000000002 L149.89999999999964,33.049999999999955 C149.89999999999964,33.059999999999945 149.89999999999964,33.065000000000055 149.79999999999927,33.065000000000055 C149.70000000000073,33.065000000000055 149.60000000000036,33.025999999999954 149.5,32.94799999999998 C149.39999999999964,32.870000000000005 149.39999999999964,32.778999999999996 149.39999999999964,32.674999999999955 L149.39999999999964,31.456000000000017 C149.39999999999964,31.278999999999996 149.39999999999964,31.163999999999987 149.60000000000036,31.111999999999966 L150.5,30.753000000000043 L150.5,27.611999999999966 C150.5,27.361999999999966 150.70000000000073,27.236999999999966 150.89999999999964,27.236999999999966 C151.20000000000073,27.236999999999966 151.29999999999927,27.361999999999966 151.29999999999927,27.611999999999966 L151.29999999999927,30.503000000000043 L152.89999999999964,29.878000000000043 L152.89999999999964,26.721000000000004 C152.89999999999964,26.471000000000004 153.10000000000036,26.346000000000004 153.29999999999927,26.346000000000004 C153.60000000000036,26.346000000000004 153.70000000000073,26.471000000000004 153.70000000000073,26.721000000000004 L153.70000000000073,29.628000000000043 L154.29999999999927,29.39300000000003 C154.29999999999927,29.383000000000038 154.39999999999964,29.378000000000043 154.5,29.378000000000043 C154.60000000000036,29.378000000000043 154.70000000000073,29.413999999999987 154.79999999999927,29.486999999999966 C154.79999999999927,29.57000000000005 154.89999999999964,29.663999999999987 154.89999999999964,29.76800000000003 L154.89999999999964,30.971000000000004 C154.89999999999964,31.158999999999992 154.79999999999927,31.283999999999992 154.60000000000036,31.346000000000004 L153.70000000000073,31.658999999999992 L153.70000000000073,34.861999999999966 L154.29999999999927,34.64300000000003 C154.29999999999927,34.63300000000004 154.39999999999964,34.62800000000004 154.5,34.62800000000004 C154.60000000000036,34.62800000000004 154.70000000000073,34.66899999999998 154.79999999999927,34.75300000000004 C154.79999999999927,34.82600000000002 154.89999999999964,34.91399999999999 154.89999999999964,35.01800000000003 L154.89999999999964,36.236999999999966 C154.89999999999964,36.403999999999996 154.79999999999927,36.51800000000003 154.60000000000036,36.58100000000002 L153.70000000000073,36.940000000000055 L153.70000000000073,40.08100000000002 M152.89999999999964,31.956000000000017 L151.29999999999927,32.53399999999999 L151.29999999999927,35.736999999999966 L152.89999999999964,35.15899999999999 L152.89999999999964,31.956000000000017" />
<path d="M85.0,28.01800000000003 L85.0,29.565000000000055 C85.0,30.116999999999962 85.0,30.55499999999995 85.0,30.878000000000043 C85.5,30.513000000000034 85.79999999999927,30.241999999999962 86.0,30.065000000000055 C86.20000000000073,29.85699999999997 86.39999999999964,29.567999999999984 86.60000000000036,29.19799999999998 C86.79999999999927,28.827999999999975 86.89999999999964,28.461000000000013 86.89999999999964,28.096000000000004 C86.89999999999964,27.73199999999997 86.79999999999927,27.418999999999983 86.70000000000073,27.158999999999992 C86.5,26.899 86.29999999999927,26.76800000000003 86.0,26.76800000000003 C85.70000000000073,26.76800000000003 85.5,26.888000000000034 85.29999999999927,27.128000000000043 C85.10000000000036,27.388000000000034 85.0,27.684999999999945 85.0,28.01800000000003 M84.10000000000036,31.596000000000004 L83.89999999999964,19.706000000000017 C84.10000000000036,19.601999999999975 84.29999999999927,19.549999999999955 84.39999999999964,19.549999999999955 C84.60000000000036,19.549999999999955 84.79999999999927,19.601999999999975 85.0,19.706000000000017 L84.79999999999927,26.596000000000004 C85.39999999999964,26.138000000000034 86.0,25.908999999999992 86.70000000000073,25.908999999999992 C87.20000000000073,25.908999999999992 87.60000000000036,26.116999999999962 87.89999999999964,26.533999999999992 C88.29999999999927,26.951000000000022 88.39999999999964,27.42999999999995 88.39999999999964,27.971000000000004 C88.39999999999964,28.30499999999995 88.29999999999927,28.663999999999987 88.10000000000036,29.049999999999955 C87.89999999999964,29.39300000000003 87.70000000000073,29.663999999999987 87.39999999999964,29.861999999999966 C87.29999999999927,29.966000000000008 87.0,30.226999999999975 86.39999999999964,30.64300000000003 C86.29999999999927,30.758000000000038 86.10000000000036,30.89300000000003 85.89999999999964,31.049999999999955 C85.70000000000073,31.206000000000017 85.5,31.30499999999995 85.5,31.346000000000004 C85.39999999999964,31.399 85.29999999999927,31.503000000000043 85.20000000000073,31.658999999999992 C85.10000000000036,31.793999999999983 85.0,31.903999999999996 84.89999999999964,31.986999999999966 C84.79999999999927,32.07000000000005 84.70000000000073,32.111999999999966 84.60000000000036,32.111999999999966 C84.5,32.111999999999966 84.39999999999964,32.065000000000055 84.29999999999927,31.971000000000004 C84.20000000000073,31.878000000000043 84.10000000000036,31.753000000000043 84.10000000000036,31.596000000000004" />
<path d="M174.20000000000073,26.096000000000004 C174.79999999999927,26.096000000000004 175.39999999999964,26.258000000000038 175.79999999999927,26.581000000000017 C176.20000000000073,26.934999999999945 176.39999999999964,27.378000000000043 176.39999999999964,27.908999999999992 C176.39999999999964,28.80499999999995 175.89999999999964,29.64300000000003 175.0,30.424999999999955 C174.10000000000036,31.206000000000017 173.10000000000036,31.596000000000004 172.0,31.596000000000004 C171.39999999999964,31.596000000000004 170.79999999999927,31.434999999999945 170.39999999999964,31.111999999999966 C170.0,30.758000000000038 169.79999999999927,30.315000000000055 169.79999999999927,29.783999999999992 C169.79999999999927,28.888000000000034 170.29999999999927,28.049999999999955 171.20000000000073,27.26800000000003 C172.10000000000036,26.486999999999966 173.10000000000036,26.096000000000004 174.20000000000073,26.096000000000004" />
<path d="M159.29999999999927,63.12800000000004 L161.70000000000073,61.174999999999955 C161.70000000000073,61.12199999999996 161.79999999999927,61.096000000000004 161.79999999999927,61.096000000000004 C161.89999999999964,61.096000000000004 162.0,61.12199999999996 162.10000000000036,61.174999999999955 L162.5,61.486999999999966 C162.5,61.549999999999955 162.60000000000036,61.62800000000004 162.60000000000036,61.721000000000004 C162.60000000000036,61.78399999999999 162.5,61.861999999999966 162.5,61.95600000000002 L160.10000000000036,63.846000000000004 L162.5,65.73699999999997 C162.5,65.80999999999995 162.60000000000036,65.89099999999996 162.60000000000036,65.97900000000004 C162.60000000000036,66.06799999999998 162.5,66.14300000000003 162.5,66.20600000000002 L162.10000000000036,66.51800000000003 C162.0,66.57000000000005 161.89999999999964,66.596 161.79999999999927,66.596 C161.79999999999927,66.596 161.70000000000073,66.57000000000005 161.70000000000073,66.51800000000003 L159.29999999999927,64.56500000000005 L156.79999999999927,66.51800000000003 C156.79999999999927,66.57000000000005 156.70000000000073,66.596 156.70000000000073,66.596 C156.60000000000036,66.596 156.60000000000036,66.57000000000005 156.5,66.51800000000003 L156.10000000000036,66.20600000000002 C156.0,66.14300000000003 156.0,66.06500000000005 156.0,65.971 C156.0,65.90899999999999 156.0,65.83100000000002 156.10000000000036,65.73699999999997 L158.39999999999964,63.846000000000004 L156.10000000000036,61.95600000000002 C156.0,61.88300000000004 156.0,61.80200000000002 156.0,61.714000000000055 C156.0,61.625 156.0,61.549999999999955 156.10000000000036,61.486999999999966 L156.5,61.174999999999955 C156.60000000000036,61.12199999999996 156.60000000000036,61.096000000000004 156.70000000000073,61.096000000000004 C156.70000000000073,61.096000000000004 156.79999999999927,61.12199999999996 156.79999999999927,61.174999999999955 L159.29999999999927,63.12800000000004" />
<path d="M160.39999999999964,81.096 C161.0,81.096 161.5,81.25800000000004 162.0,81.58100000000002 C162.39999999999964,81.93499999999995 162.60000000000036,82.37800000000004 162.60000000000036,82.90899999999999 C162.60000000000036,83.80499999999995 162.10000000000036,84.64300000000003 161.20000000000073,85.42499999999995 C160.20000000000073,86.20600000000002 159.20000000000073,86.596 158.20000000000073,86.596 C157.5,86.596 157.0,86.43499999999995 156.60000000000036,86.11199999999997 C156.20000000000073,85.75800000000004 156.0,85.31500000000005 156.0,84.78399999999999 C156.0,83.88800000000003 156.39999999999964,83.04999999999995 157.39999999999964,82.26800000000003 C158.29999999999927,81.48699999999997 159.29999999999927,81.096 160.39999999999964,81.096" />
<path d="M160.39999999999964,31.096000000000004 C161.0,31.096000000000004 161.5,31.258000000000038 162.0,31.581000000000017 C162.39999999999964,31.934999999999945 162.60000000000036,32.37800000000004 162.60000000000036,32.90899999999999 C162.60000000000036,33.80499999999995 162.10000000000036,34.64300000000003 161.20000000000073,35.424999999999955 C160.20000000000073,36.20600000000002 159.20000000000073,36.596000000000004 158.20000000000073,36.596000000000004 C157.5,36.596000000000004 157.0,36.434999999999945 156.60000000000036,36.111999999999966 C156.20000000000073,35.75800000000004 156.0,35.315000000000055 156.0,34.78399999999999 C156.0,33.888000000000034 156.39999999999964,33.049999999999955 157.39999999999964,32.26800000000003 C158.29999999999927,31.486999999999966 159.29999999999927,31.096000000000004 160.39999999999964,31.096000000000004" />
<path d="M137.10000000000036,63.12800000000004 L139.5,61.174999999999955 C139.60000000000036,61.12199999999996 139.70000000000073,61.096000000000004 139.70000000000073,61.096000000000004 C139.79999999999927,61.096000000000004 139.89999999999964,61.12199999999996 139.89999999999964,61.174999999999955 L140.29999999999927,61.486999999999966 C140.39999999999964,61.549999999999955 140.39999999999964,61.62800000000004 140.39999999999964,61.721000000000004 C140.39999999999964,61.78399999999999 140.39999999999964,61.861999999999966 140.29999999999927,61.95600000000002 L138.0,63.846000000000004 L140.29999999999927,65.73699999999997 C140.39999999999964,65.80999999999995 140.39999999999964,65.89099999999996 140.39999999999964,65.97900000000004 C140.39999999999964,66.06799999999998 140.39999999999964,66.14300000000003 140.29999999999927,66.20600000000002 L139.89999999999964,66.51800000000003 C139.89999999999964,66.57000000000005 139.79999999999927,66.596 139.70000000000073,66.596 C139.70000000000073,66.596 139.60000000000036,66.57000000000005 139.5,66.51800000000003 L137.10000000000036,64.56500000000005 L134.70000000000073,66.51800000000003 C134.70000000000073,66.57000000000005 134.60000000000036,66.596 134.5,66.596 C134.5,66.596 134.39999999999964,66.57000000000005 134.39999999999964,66.51800000000003 L133.89999999999964,66.20600000000002 C133.89999999999964,66.14300000000003 133.79999999999927,66.06500000000005 133.79999999999927,65.971 C133.79999999999927,65.90899999999999 133.89999999999964,65.83100000000002 133.89999999999964,65.73699999999997 L136.29999999999927,63.846000000000004 L133.89999999999964,61.95600000000002 C133.89999999999964,61.88300000000004 133.79999999999927,61.80200000000002 133.79999999999927,61.714000000000055 C133.79999999999927,61.625 133.89999999999964,61.549999999999955 133.89999999999964,61.486999999999966 L134.39999999999964,61.174999999999955 C134.39999999999964,61.12199999999996 134.5,61.096000000000004 134.5,61.096000000000004 C134.60000000000036,61.096000000000004 134.70000000000073,61.12199999999996 134.70000000000073,61.174999999999955 L137.10000000000036,63.12800000000004" />
<path d="M138.20000000000073,71.096 C138.89999999999964,71.096 139.39999999999964,71.25800000000004 139.79999999999927,71.58100000000002 C140.20000000000073,71.93499999999995 140.39999999999964,72.37800000000004 140.39999999999964,72.90899999999999 C140.39999999999964,73.80499999999995 140.0,74.64300000000003 139.0,75.42499999999995 C138.10000000000036,76.20600000000002 137.10000000000036,76.596 136.0,76.596 C135.39999999999964,76.596 134.89999999999964,76.43499999999995 134.39999999999964,76.11199999999997 C134.0,75.75800000000004 133.79999999999927,75.31500000000005 133.79999999999927,74.78399999999999 C133.79999999999927,73.88800000000003 134.29999999999927,73.04999999999995 135.20000000000073,72.26800000000003 C136.20000000000073,71.48699999999997 137.20000000000073,71.096 138.20000000000073,71.096" />
<path d="M115.0,63.12800000000004 L117.39999999999964,61.174999999999955 C117.5,61.12199999999996 117.5,61.096000000000004 117.60000000000036,61.096000000000004 C117.70000000000073,61.096000000000004 117.70000000000073,61.12199999999996 117.79999999999927,61.174999999999955 L118.20000000000073,61.486999999999966 C118.29999999999927,61.549999999999955 118.29999999999927,61.62800000000004 118.29999999999927,61.721000000000004 C118.29999999999927,61.78399999999999 118.29999999999927,61.861999999999966 118.20000000000073,61.95600000000002 L115.89999999999964,63.846000000000004 L118.20000000000073,65.73699999999997 C118.29999999999927,65.80999999999995 118.29999999999927,65.89099999999996 118.29999999999927,65.97900000000004 C118.29999999999927,66.06799999999998 118.29999999999927,66.14300000000003 118.20000000000073,66.20600000000002 L117.79999999999927,66.51800000000003 C117.70000000000073,66.57000000000005 117.70000000000073,66.596 117.60000000000036,66.596 C117.5,66.596 117.5,66.57000000000005 117.39999999999964,66.51800000000003 L115.0,64.56500000000005 L112.60000000000036,66.51800000000003 C112.5,66.57000000000005 112.5,66.596 112.39999999999964,66.596 C112.29999999999927,66.596 112.29999999999927,66.57000000000005 112.20000000000073,66.51800000000003 L111.79999999999927,66.20600000000002 C111.70000000000073,66.14300000000003 111.70000000000073,66.06500000000005 111.70000000000073,65.971 C111.70000000000073,65.90899999999999 111.70000000000073,65.83100000000002 111.79999999999927,65.73699999999997 L114.10000000000036,63.846000000000004 L111.79999999999927,61.95600000000002 C111.70000000000073,61.88300000000004 111.70000000000073,61.80200000000002 111.70000000000073,61.714000000000055 C111.70000000000073,61.625 111.70000000000073,61.549999999999955 111.79999999999927,61.486999999999966 L112.20000000000073,61.174999999999955 C112.29999999999927,61.12199999999996 112.29999999999927,61.096000000000004 112.39999999999964,61.096000000000004 C112.5,61.096000000000004 112.5,61.12199999999996 112.60000000000036,61.174999999999955 L115.0,63.12800000000004" />
<path d="M116.10000000000036,81.096 C116.70000000000073,81.096 117.29999999999927,81.25800000000004 117.70000000000073,81.58100000000002 C118.10000000000036,81.93499999999995 118.29999999999927,82.37800000000004 118.29999999999927,82.90899999999999 C118.29999999999927,83.80499999999995 117.79999999999927,84.64300000000003 116.89999999999964,85.42499999999995 C116.0,86.20600000000002 115.0,86.596 113.89999999999964,86.596 C113.29999999999927,86.596 112.70000000000073,86.43499999999995 112.29999999999927,86.11199999999997 C111.89999999999964,85.75800000000004 111.70000000000073,85.31500000000005 111.70000000000073,84.78399999999999 C111.70000000000073,83.88800000000003 112.20000000000073,83.04999999999995 113.10000000000036,82.26800000000003 C114.0,81.48699999999997 115.0,81.096 116.10000000000036,81.096" />
<path d="M116.10000000000036,26.096000000000004 C116.70000000000073,26.096000000000004 117.29999999999927,26.258000000000038 117.70000000000073,26.581000000000017 C118.10000000000036,26.934999999999945 118.29999999999927,27.378000000000043 118.29999999999927,27.908999999999992 C118.29999999999927,28.80499999999995 117.79999999999927,29.64300000000003 116.89999999999964,30.424999999999955 C116.0,31.206000000000017 115.0,31.596000000000004 113.89999999999964,31.596000000000004 C113.29999999999927,31.596000000000004 112.70000000000073,31.434999999999945 112.29999999999927,31.111999999999966 C111.89999999999964,30.758000000000038 111.70000000000073,30.315000000000055 111.70000000000073,29.783999999999992 C111.70000000000073,28.888000000000034 112.20000000000073,28.049999999999955 113.10000000000036,27.26800000000003 C114.0,26.486999999999966 115.0,26.096000000000004 116.10000000000036,26.096000000000004" />
<path d="M92.89999999999964,63.12800000000004 L95.29999999999927,61.174999999999955 C95.29999999999927,61.12199999999996 95.39999999999964,61.096000000000004 95.39999999999964,61.096000000000004 C95.5,61.096000000000004 95.60000000000036,61.12199999999996 95.70000000000073,61.174999999999955 L96.10000000000036,61.486999999999966 C96.10000000000036,61.549999999999955 96.20000000000073,61.62800000000004 96.20000000000073,61.721000000000004 C96.20000000000073,61.78399999999999 96.10000000000036,61.861999999999966 96.10000000000036,61.95600000000002 L93.70000000000073,63.846000000000004 L96.10000000000036,65.73699999999997 C96.10000000000036,65.80999999999995 96.20000000000073,65.89099999999996 96.20000000000073,65.97900000000004 C96.20000000000073,66.06799999999998 96.10000000000036,66.14300000000003 96.10000000000036,66.20600000000002 L95.70000000000073,66.51800000000003 C95.60000000000036,66.57000000000005 95.5,66.596 95.39999999999964,66.596 C95.39999999999964,66.596 95.29999999999927,66.57000000000005 95.29999999999927,66.51800000000003 L92.89999999999964,64.56500000000005 L90.39999999999964,66.51800000000003 C90.39999999999964,66.57000000000005 90.29999999999927,66.596 90.29999999999927,66.596 C90.20000000000073,66.596 90.20000000000073,66.57000000000005 90.10000000000036,66.51800000000003 L89.70000000000073,66.20600000000002 C89.60000000000036,66.14300000000003 89.60000000000036,66.06500000000005 89.60000000000036,65.971 C89.60000000000036,65.90899999999999 89.60000000000036,65.83100000000002 89.70000000000073,65.73699999999997 L92.0,63.846000000000004 L89.70000000000073,61.95600000000002 C89.60000000000036,61.88300000000004 89.60000000000036,61.80200000000002 89.60000000000036,61.714000000000055 C89.60000000000036,61.625 89.60000000000036,61.549999999999955 89.70000000000073,61.486999999999966 L90.10000000000036,61.174999999999955 C90.20000000000073,61.12199999999996 90.20000000000073,61.096000000000004 90.29999999999927,61.096000000000004 C90.29999999999927,61.096000000000004 90.39999999999964,61.12199999999996 90.39999999999964,61.174999999999955 L92.89999999999964,63.12800000000004" />
<path d="M94.0,81.096 C94.60000000000036,81.096 95.10000000000036,81.25800000000004 95.60000000000036,81.58100000000002 C96.0,81.93499999999995 96.20000000000073,82.37800000000004 96.20000000000073,82.90899999999999 C96.20000000000073,83.80499999999995 95.70000000000073,84.64300000000003 94.79999999999927,85.42499999999995 C93.79999999999927,86.20600000000002 92.79999999999927,86.596 91.79999999999927,86.596 C91.10000000000036,86.596 90.60000000000036,86.43499999999995 90.20000000000073,86.11199999999997 C89.79999999999927,85.75800000000004 89.60000000000036,85.31500000000005 89.60000000000036,84.78399999999999 C89.60000000000036,83.88800000000003 90.0,83.04999999999995 91.0,82.26800000000003 C91.89999999999964,81.48699999999997 92.89999999999964,81.096 94.0,81.096" />
<path d="M94.0,26.096000000000004 C94.60000000000036,26.096000000000004 95.10000000000036,26.258000000000038 95.60000000000036,26.581000000000017 C96.0,26.934999999999945 96.20000000000073,27.378000000000043 96.20000000000073,27.908999999999992 C96.20000000000073,28.80499999999995 95.70000000000073,29.64300000000003 94.79999999999927,30.424999999999955 C93.79999999999927,31.206000000000017 92.79999999999927,31.596000000000004 91.79999999999927,31.596000000000004 C91.10000000000036,31.596000000000004 90.60000000000036,31.434999999999945 90.20000000000073,31.111999999999966 C89.79999999999927,30.758000000000038 89.60000000000036,30.315000000000055 89.60000000000036,29.783999999999992 C89.60000000000036,28.888000000000034 90.0,28.049999999999955 91.0,27.26800000000003 C91.89999999999964,26.486999999999966 92.89999999999964,26.096000000000004 94.0,26.096000000000004" />
<path d="M74.70000000000073,31.096000000000004 C75.29999999999927,31.096000000000004 75.79999999999927,31.258000000000038 76.29999999999927,31.581000000000017 C76.70000000000073,31.934999999999945 76.89999999999964,32.37800000000004 76.89999999999964,32.90899999999999 C76.89999999999964,33.80499999999995 76.39999999999964,34.64300000000003 75.5,35.424999999999955 C74.60000000000036,36.20600000000002 73.5,36.596000000000004 72.5,36.596000000000004 C71.89999999999964,36.596000000000004 71.29999999999927,36.434999999999945 70.89999999999964,36.111999999999966 C70.5,35.75800000000004 70.29999999999927,35.315000000000055 70.29999999999927,34.78399999999999 C70.29999999999927,33.888000000000034 70.79999999999927,33.049999999999955 71.70000000000073,32.26800000000003 C72.60000000000036,31.486999999999966 73.60000000000036,31.096000000000004 74.70000000000073,31.096000000000004" />
<path d="M49.5,61.096000000000004 C49.79999999999927,61.096000000000004 50.0,61.17999999999995 50.100000000000364,61.346000000000004 C50.20000000000073,61.524 50.29999999999927,61.70100000000002 50.29999999999927,61.87800000000004 C50.29999999999927,62.15899999999999 50.0,62.513000000000034 49.5,62.940000000000055 C49.0,63.399 48.70000000000073,63.721000000000004 48.600000000000364,63.90899999999999 C48.5,64.05499999999995 48.29999999999927,64.38800000000003 48.100000000000364,64.90899999999999 C47.899999999999636,65.44000000000005 47.70000000000073,65.85699999999997 47.399999999999636,66.15899999999999 C47.100000000000364,66.44000000000005 46.79999999999927,66.58100000000002 46.5,66.58100000000002 C46.399999999999636,66.58100000000002 46.100000000000364,66.54399999999998 45.79999999999927,66.471 C45.5,66.38800000000003 45.20000000000073,66.346 45.100000000000364,66.346 C44.899999999999636,66.346 44.70000000000073,66.38800000000003 44.29999999999927,66.471 C44.0,66.55499999999995 43.79999999999927,66.596 43.600000000000364,66.596 C43.399999999999636,66.596 43.20000000000073,66.51300000000003 43.100000000000364,66.346 C43.0,66.149 42.899999999999636,65.971 42.899999999999636,65.81500000000005 C42.899999999999636,65.53399999999999 43.20000000000073,65.17999999999995 43.70000000000073,64.75300000000004 C44.20000000000073,64.29399999999998 44.5,63.971000000000004 44.600000000000364,63.78399999999999 C44.70000000000073,63.690000000000055 44.79999999999927,63.351999999999975 45.100000000000364,62.76800000000003 C45.29999999999927,62.236999999999966 45.5,61.82600000000002 45.79999999999927,61.53399999999999 C46.0,61.25300000000004 46.29999999999927,61.111999999999966 46.70000000000073,61.111999999999966 C46.79999999999927,61.111999999999966 47.0,61.149 47.399999999999636,61.221000000000004 C47.70000000000073,61.30499999999995 48.0,61.346000000000004 48.100000000000364,61.346000000000004 C48.29999999999927,61.346000000000004 48.5,61.30499999999995 48.79999999999927,61.221000000000004 C49.100000000000364,61.138000000000034 49.399999999999636,61.096000000000004 49.5,61.096000000000004" />
<path d="M47.29999999999927,71.096 C47.899999999999636,71.096 48.399999999999636,71.25800000000004 48.899999999999636,71.58100000000002 C49.29999999999927,71.93499999999995 49.5,72.37800000000004 49.5,72.90899999999999 C49.5,73.80499999999995 49.0,74.64300000000003 48.100000000000364,75.42499999999995 C47.20000000000073,76.20600000000002 46.20000000000073,76.596 45.100000000000364,76.596 C44.5,76.596 43.899999999999636,76.43499999999995 43.5,76.11199999999997 C43.100000000000364,75.75800000000004 42.899999999999636,75.31500000000005 42.899999999999636,74.78399999999999 C42.899999999999636,73.88800000000003 43.399999999999636,73.04999999999995 44.29999999999927,72.26800000000003 C45.20000000000073,71.48699999999997 46.20000000000073,71.096 47.29999999999927,71.096" />
<path d="M19.100000000000364,61.096000000000004 C19.299999999999272,61.096000000000004 19.5,61.17999999999995 19.700000000000728,61.346000000000004 C19.799999999999272,61.524 19.899999999999636,61.70100000000002 19.899999999999636,61.87800000000004 C19.899999999999636,62.15899999999999 19.600000000000364,62.513000000000034 19.100000000000364,62.940000000000055 C18.600000000000364,63.399 18.200000000000728,63.721000000000004 18.100000000000364,63.90899999999999 C18.100000000000364,64.05499999999995 17.899999999999636,64.38800000000003 17.700000000000728,64.90899999999999 C17.5,65.44000000000005 17.200000000000728,65.85699999999997 17.0,66.15899999999999 C16.700000000000728,66.44000000000005 16.399999999999636,66.58100000000002 16.100000000000364,66.58100000000002 C15.899999999999636,66.58100000000002 15.700000000000728,66.54399999999998 15.399999999999636,66.471 C15.0,66.38800000000003 14.799999999999272,66.346 14.600000000000364,66.346 C14.5,66.346 14.200000000000728,66.38800000000003 13.899999999999636,66.471 C13.600000000000364,66.55499999999995 13.399999999999636,66.596 13.200000000000728,66.596 C13.0,66.596 12.799999999999272,66.51300000000003 12.600000000000364,66.346 C12.5,66.149 12.5,65.971 12.5,65.81500000000005 C12.5,65.53399999999999 12.700000000000728,65.17999999999995 13.200000000000728,64.75300000000004 C13.799999999999272,64.29399999999998 14.100000000000364,63.971000000000004 14.200000000000728,63.78399999999999 C14.200000000000728,63.690000000000055 14.399999999999636,63.351999999999975 14.700000000000728,62.76800000000003 C14.899999999999636,62.236999999999966 15.100000000000364,61.82600000000002 15.399999999999636,61.53399999999999 C15.600000000000364,61.25300000000004 15.899999999999636,61.111999999999966 16.200000000000728,61.111999999999966 C16.399999999999636,61.111999999999966 16.600000000000364,61.149 16.899999999999636,61.221000000000004 C17.299999999999272,61.30499999999995 17.5,61.346000000000004 17.700000000000728,61.346000000000004 C17.799999999999272,61.346000000000004 18.100000000000364,61.30499999999995 18.399999999999636,61.221000000000004 C18.700000000000728,61.138000000000034 18.899999999999636,61.096000000000004 19.100000000000364,61.096000000000004" />
<path d="M16.899999999999636,81.096 C17.5,81.096 18.0,81.25800000000004 18.399999999999636,81.58100000000002 C18.799999999999272,81.93499999999995 19.0,82.37800000000004 19.0,82.90899999999999 C19.0,83.80499999999995 18.600000000000364,84.64300000000003 17.700000000000728,85.42499999999995 C16.700000000000728,86.20600000000002 15.700000000000728,86.596 14.700000000000728,86.596 C14.0,86.596 13.5,86.43499999999995 13.100000000000364,86.11199999999997 C12.700000000000728,85.75800000000004 12.5,85.31500000000005 12.5,84.78399999999999 C12.5,83.88800000000003 12.899999999999636,83.04999999999995 13.899999999999636,82.26800000000003 C14.799999999999272,81.48699999999997 15.799999999999272,81.096 16.899999999999636,81.096" />
<path d="M17.299999999999272,23.596000000000004 C17.899999999999636,23.596000000000004 18.399999999999636,23.758000000000038 18.799999999999272,24.081000000000017 C19.200000000000728,24.434999999999945 19.399999999999636,24.878000000000043 19.399999999999636,25.408999999999992 C19.399999999999636,26.30499999999995 19.0,27.14300000000003 18.100000000000364,27.924999999999955 C17.100000000000364,28.706000000000017 16.100000000000364,29.096000000000004 15.100000000000364,29.096000000000004 C14.399999999999636,29.096000000000004 13.899999999999636,28.934999999999945 13.5,28.611999999999966 C13.100000000000364,28.258000000000038 12.899999999999636,27.815000000000055 12.899999999999636,27.283999999999992 C12.899999999999636,26.388000000000034 13.299999999999272,25.549999999999955 14.299999999999272,24.76800000000003 C15.200000000000728,23.986999999999966 16.200000000000728,23.596000000000004 17.299999999999272,23.596000000000004" />
<path d="M135.20000000000073,19.736999999999966 C135.60000000000036,19.736999999999966 135.89999999999964,19.841000000000008 136.10000000000036,20.049999999999955 C136.29999999999927,20.288999999999987 136.39999999999964,20.513000000000034 136.39999999999964,20.721000000000004 C136.39999999999964,20.918999999999983 136.5,21.138000000000034 136.60000000000036,21.378000000000043 C136.70000000000073,21.586000000000013 136.89999999999964,21.690000000000055 137.10000000000036,21.690000000000055 C137.20000000000073,21.690000000000055 137.39999999999964,21.528999999999996 137.70000000000073,21.206000000000017 C138.0,20.924999999999955 138.20000000000073,20.668999999999983 138.29999999999927,20.440000000000055 C138.29999999999927,20.315000000000055 138.39999999999964,20.253000000000043 138.5,20.253000000000043 L138.60000000000036,20.253000000000043 C138.70000000000073,20.263000000000034 138.79999999999927,20.326000000000022 138.79999999999927,20.440000000000055 L136.39999999999964,28.846000000000004 C136.29999999999927,28.98199999999997 136.10000000000036,29.049999999999955 135.79999999999927,29.049999999999955 C135.60000000000036,29.049999999999955 135.39999999999964,28.98199999999997 135.29999999999927,28.846000000000004 L137.60000000000036,22.315000000000055 C136.79999999999927,22.616999999999962 136.10000000000036,22.76800000000003 135.5,22.76800000000003 C135.10000000000036,22.76800000000003 134.70000000000073,22.616999999999962 134.29999999999927,22.315000000000055 C134.0,22.033999999999992 133.79999999999927,21.658999999999992 133.79999999999927,21.190000000000055 C133.79999999999927,20.783999999999992 133.89999999999964,20.44500000000005 134.20000000000073,20.174999999999955 C134.5,19.883000000000038 134.79999999999927,19.736999999999966 135.20000000000073,19.736999999999966" />
<path d="M44.70000000000073,19.736999999999966 C45.100000000000364,19.736999999999966 45.399999999999636,19.841000000000008 45.600000000000364,20.049999999999955 C45.79999999999927,20.288999999999987 45.899999999999636,20.513000000000034 45.899999999999636,20.721000000000004 C45.899999999999636,20.918999999999983 46.0,21.138000000000034 46.100000000000364,21.378000000000043 C46.20000000000073,21.586000000000013 46.29999999999927,21.690000000000055 46.5,21.690000000000055 C46.70000000000073,21.690000000000055 46.899999999999636,21.528999999999996 47.20000000000073,21.206000000000017 C47.399999999999636,20.924999999999955 47.600000000000364,20.668999999999983 47.70000000000073,20.440000000000055 C47.79999999999927,20.315000000000055 47.899999999999636,20.253000000000043 48.0,20.253000000000043 L48.0,20.253000000000043 C48.20000000000073,20.263000000000034 48.20000000000073,20.326000000000022 48.29999999999927,20.440000000000055 L45.79999999999927,28.846000000000004 C45.70000000000073,28.98199999999997 45.5,29.049999999999955 45.29999999999927,29.049999999999955 C45.100000000000364,29.049999999999955 44.899999999999636,28.98199999999997 44.79999999999927,28.846000000000004 L47.100000000000364,22.315000000000055 C46.29999999999927,22.616999999999962 45.600000000000364,22.76800000000003 45.0,22.76800000000003 C44.5,22.76800000000003 44.100000000000364,22.616999999999962 43.79999999999927,22.315000000000055 C43.399999999999636,22.033999999999992 43.20000000000073,21.658999999999992 43.20000000000073,21.190000000000055 C43.20000000000073,20.783999999999992 43.399999999999636,20.44500000000005 43.70000000000073,20.174999999999955 C44.0,19.883000000000038 44.29999999999927,19.736999999999966 44.70000000000073,19.736999999999966" />
<path d="M50.399999999999636,22.150999999999954 C50.20000000000073,21.92700000000002 50.100000000000364,21.658999999999992 50.100000000000364,21.346000000000004 C50.100000000000364,21.033999999999992 50.20000000000073,20.765999999999963 50.399999999999636,20.54200000000003 C50.70000000000073,20.317999999999984 50.899999999999636,20.206000000000017 51.20000000000073,20.206000000000017 C51.5,20.206000000000017 51.79999999999927,20.317999999999984 52.0,20.54200000000003 C52.29999999999927,20.765999999999963 52.399999999999636,21.033999999999992 52.399999999999636,21.346000000000004 C52.399999999999636,21.658999999999992 52.29999999999927,21.92700000000002 52.0,22.150999999999954 C51.79999999999927,22.375 51.5,22.486999999999966 51.20000000000073,22.486999999999966 C50.899999999999636,22.486999999999966 50.70000000000073,22.375 50.399999999999636,22.150999999999954" />
<path d="M37.100000000000364,103.75300000000004 L37.100000000000364,103.721 C37.20000000000073,103.70100000000002 37.20000000000073,103.66399999999999 37.20000000000073,103.61199999999997 C37.20000000000073,103.55999999999995 37.20000000000073,103.50300000000004 37.20000000000073,103.44000000000005 C37.399999999999636,102.92999999999995 37.70000000000073,102.42999999999995 38.0,101.94000000000005 C38.5,101.28399999999999 39.0,100.96100000000001 39.600000000000364,100.971 C39.79999999999927,100.971 40.0,101.07000000000005 40.100000000000364,101.26800000000003 C40.29999999999927,101.43499999999995 40.29999999999927,101.65899999999999 40.399999999999636,101.94000000000005 C40.79999999999927,101.28399999999999 41.29999999999927,100.96100000000001 41.79999999999927,100.971 C42.0,100.971 42.20000000000073,101.07000000000005 42.399999999999636,101.26800000000003 C42.5,101.47699999999998 42.600000000000364,101.71600000000001 42.600000000000364,101.98699999999997 C43.0,101.29999999999995 43.5,100.96100000000001 44.0,100.971 C44.29999999999927,100.971 44.600000000000364,101.09400000000005 44.79999999999927,101.33900000000006 C45.0,101.58299999999997 45.20000000000073,101.86699999999996 45.100000000000364,102.19000000000005 C45.100000000000364,102.23199999999997 45.100000000000364,102.32000000000005 45.100000000000364,102.45600000000002 L44.5,105.15899999999999 C44.399999999999636,105.17999999999995 44.399999999999636,105.20600000000002 44.399999999999636,105.23699999999997 C44.399999999999636,105.34100000000001 44.5,105.39300000000003 44.600000000000364,105.39300000000003 C44.70000000000073,105.39300000000003 44.899999999999636,105.28899999999999 45.20000000000073,105.08100000000002 L45.600000000000364,104.75300000000004 C45.70000000000073,104.75300000000004 45.70000000000073,104.78399999999999 45.70000000000073,104.846 C45.70000000000073,104.899 45.70000000000073,104.94000000000005 45.600000000000364,104.971 C45.0,105.53399999999999 44.600000000000364,105.88300000000004 44.399999999999636,106.01800000000003 C44.100000000000364,106.28899999999999 43.70000000000073,106.42499999999995 43.399999999999636,106.42499999999995 C43.20000000000073,106.42499999999995 43.0,106.36699999999996 43.0,106.25300000000004 C42.899999999999636,106.15899999999999 42.79999999999927,106.029 42.79999999999927,105.86199999999997 C42.79999999999927,105.79999999999995 42.79999999999927,105.73699999999997 42.79999999999927,105.67499999999995 L43.5,102.70600000000002 C43.5,102.62199999999996 43.5,102.53899999999999 43.600000000000364,102.45600000000002 C43.600000000000364,102.21600000000001 43.5,102.096 43.399999999999636,102.096 C43.20000000000073,102.096 43.0,102.16399999999999 42.899999999999636,102.29999999999995 C42.70000000000073,102.42499999999995 42.600000000000364,102.55999999999995 42.600000000000364,102.70600000000002 L41.600000000000364,106.15899999999999 C41.600000000000364,106.28399999999999 41.5,106.346 41.399999999999636,106.346 L40.29999999999927,106.346 C40.20000000000073,106.346 40.20000000000073,106.28399999999999 40.20000000000073,106.15899999999999 L41.20000000000073,102.70600000000002 C41.20000000000073,102.59100000000001 41.20000000000073,102.49199999999996 41.20000000000073,102.40899999999999 C41.20000000000073,102.20100000000002 41.20000000000073,102.096 41.0,102.096 C40.79999999999927,102.096 40.70000000000073,102.16399999999999 40.600000000000364,102.29999999999995 C40.399999999999636,102.404 40.29999999999927,102.53899999999999 40.29999999999927,102.70600000000002 L39.100000000000364,106.15899999999999 C39.0,106.28399999999999 39.0,106.346 38.899999999999636,106.346 L37.79999999999927,106.346 C37.70000000000073,106.346 37.70000000000073,106.28399999999999 37.70000000000073,106.15899999999999 L38.899999999999636,102.70600000000002 C38.899999999999636,102.55999999999995 38.899999999999636,102.46600000000001 38.899999999999636,102.42499999999995 C38.899999999999636,102.20600000000002 38.899999999999636,102.096 38.70000000000073,102.096 C38.399999999999636,102.096 38.20000000000073,102.26800000000003 38.0,102.61199999999997 C37.79999999999927,102.93499999999995 37.600000000000364,103.29399999999998 37.5,103.69000000000005 C37.5,103.80499999999995 37.399999999999636,103.86199999999997 37.29999999999927,103.86199999999997 C37.20000000000073,103.84100000000001 37.100000000000364,103.80499999999995 37.100000000000364,103.75300000000004 M49.399999999999636,101.26800000000003 L48.399999999999636,104.36199999999997 C48.100000000000364,105.47699999999998 47.5,106.55499999999995 46.70000000000073,107.596 C45.899999999999636,108.63800000000003 45.100000000000364,109.15899999999999 44.29999999999927,109.15899999999999 C43.899999999999636,109.15899999999999 43.5,109.04700000000003 43.20000000000073,108.82299999999998 C42.79999999999927,108.59900000000005 42.70000000000073,108.30999999999995 42.70000000000073,107.95600000000002 C42.70000000000073,107.54999999999995 42.79999999999927,107.20600000000002 42.899999999999636,106.92499999999995 C43.100000000000364,106.654 43.399999999999636,106.50800000000004 43.70000000000073,106.48699999999997 C43.899999999999636,106.48699999999997 44.100000000000364,106.57000000000005 44.20000000000073,106.73699999999997 C44.399999999999636,106.904 44.5,107.096 44.5,107.31500000000005 C44.5,107.51300000000003 44.399999999999636,107.69500000000005 44.100000000000364,107.86199999999997 C43.899999999999636,108.00800000000004 43.79999999999927,108.17499999999995 43.79999999999927,108.36199999999997 C43.79999999999927,108.48699999999997 43.899999999999636,108.54999999999995 44.20000000000073,108.54999999999995 L44.29999999999927,108.54999999999995 C44.399999999999636,108.54999999999995 44.5,108.53399999999999 44.600000000000364,108.50300000000004 C44.70000000000073,108.49199999999996 44.70000000000073,108.45100000000002 44.899999999999636,108.37800000000004 C44.899999999999636,108.37800000000004 44.899999999999636,108.32600000000002 45.0,108.221 C45.100000000000364,108.10699999999997 45.20000000000073,108.024 45.20000000000073,107.971 C45.20000000000073,107.86699999999996 45.29999999999927,107.78399999999999 45.29999999999927,107.721 C45.29999999999927,107.67999999999995 45.399999999999636,107.57600000000002 45.399999999999636,107.40899999999999 C45.399999999999636,107.36699999999996 45.5,107.32000000000005 45.5,107.26800000000003 C45.5,107.21600000000001 45.5,107.17999999999995 45.5,107.15899999999999 C45.5,107.13800000000003 45.5,107.12199999999996 45.5,107.11199999999997 C45.600000000000364,106.904 45.600000000000364,106.779 45.600000000000364,106.73699999999997 C45.70000000000073,106.529 45.70000000000073,106.42499999999995 45.70000000000073,106.42499999999995 L47.0,101.26800000000003 L46.0,101.26800000000003 C45.899999999999636,101.26800000000003 45.79999999999927,101.23699999999997 45.79999999999927,101.17499999999995 C45.70000000000073,101.09100000000001 45.70000000000073,101.01800000000003 45.70000000000073,100.95600000000002 C45.70000000000073,100.87199999999996 45.70000000000073,100.79999999999995 45.79999999999927,100.73699999999997 C45.899999999999636,100.67499999999995 45.899999999999636,100.64300000000003 46.0,100.64300000000003 L47.100000000000364,100.64300000000003 C47.5,99.66399999999999 48.0,98.82000000000005 48.79999999999927,98.11199999999997 C49.5,97.38300000000004 50.29999999999927,97.01800000000003 51.100000000000364,97.01800000000003 C51.600000000000364,97.01800000000003 52.0,97.13300000000004 52.29999999999927,97.36199999999997 C52.600000000000364,97.58100000000002 52.79999999999927,97.86699999999996 52.79999999999927,98.221 C52.79999999999927,98.60699999999997 52.70000000000073,98.95100000000002 52.5,99.25300000000004 C52.29999999999927,99.524 52.100000000000364,99.66399999999999 51.79999999999927,99.67499999999995 C51.600000000000364,99.67499999999995 51.399999999999636,99.59400000000005 51.20000000000073,99.43200000000002 C51.100000000000364,99.27099999999996 51.0,99.08100000000002 51.0,98.86199999999997 C51.0,98.67499999999995 51.100000000000364,98.50300000000004 51.399999999999636,98.346 C51.600000000000364,98.19000000000005 51.70000000000073,98.01300000000003 51.70000000000073,97.81500000000005 C51.70000000000073,97.66899999999998 51.600000000000364,97.60199999999998 51.29999999999927,97.61199999999997 L51.20000000000073,97.61199999999997 C51.20000000000073,97.63300000000004 51.20000000000073,97.63800000000003 51.100000000000364,97.62800000000004 C50.899999999999636,97.62800000000004 50.70000000000073,97.68499999999995 50.600000000000364,97.79999999999995 C50.399999999999636,97.904 50.29999999999927,98.09100000000001 50.100000000000364,98.36199999999997 C50.100000000000364,98.43499999999995 50.100000000000364,98.50800000000004 50.0,98.58100000000002 C50.0,98.654 50.0,98.73400000000004 49.899999999999636,98.82299999999998 C49.899999999999636,98.91200000000003 49.899999999999636,98.971 49.899999999999636,99.00300000000004 C49.899999999999636,99.06500000000005 49.79999999999927,99.19500000000005 49.79999999999927,99.39300000000003 C49.79999999999927,99.58100000000002 49.70000000000073,99.74199999999996 49.70000000000073,99.87800000000004 C49.600000000000364,100.274 49.600000000000364,100.529 49.5,100.64300000000003 L50.600000000000364,100.64300000000003 C50.70000000000073,100.64300000000003 50.79999999999927,100.67200000000003 50.79999999999927,100.72900000000004 C50.899999999999636,100.78700000000003 50.899999999999636,100.85900000000004 50.899999999999636,100.94799999999998 C50.899999999999636,101.03700000000003 50.899999999999636,101.11199999999997 50.79999999999927,101.17499999999995 C50.79999999999927,101.23699999999997 50.70000000000073,101.26800000000003 50.600000000000364,101.26800000000003 L49.399999999999636,101.26800000000003" />
<path d="M39.79999999999927,101.26800000000003 L38.79999999999927,104.36199999999997 C38.5,105.47699999999998 37.899999999999636,106.55499999999995 37.20000000000073,107.596 C36.399999999999636,108.63800000000003 35.600000000000364,109.15899999999999 34.70000000000073,109.15899999999999 C34.29999999999927,109.15899999999999 33.899999999999636,109.04700000000003 33.600000000000364,108.82299999999998 C33.29999999999927,108.59900000000005 33.100000000000364,108.30999999999995 33.100000000000364,107.95600000000002 C33.100000000000364,107.54999999999995 33.20000000000073,107.20600000000002 33.399999999999636,106.92499999999995 C33.5,106.654 33.79999999999927,106.50800000000004 34.100000000000364,106.48699999999997 C34.29999999999927,106.48699999999997 34.5,106.57000000000005 34.70000000000073,106.73699999999997 C34.79999999999927,106.904 34.899999999999636,107.096 34.899999999999636,107.31500000000005 C34.899999999999636,107.51300000000003 34.79999999999927,107.69500000000005 34.600000000000364,107.86199999999997 C34.29999999999927,108.00800000000004 34.20000000000073,108.17499999999995 34.20000000000073,108.36199999999997 C34.20000000000073,108.48699999999997 34.29999999999927,108.54999999999995 34.600000000000364,108.54999999999995 L34.70000000000073,108.54999999999995 C34.79999999999927,108.54999999999995 34.899999999999636,108.53399999999999 35.0,108.50300000000004 C35.100000000000364,108.49199999999996 35.20000000000073,108.45100000000002 35.29999999999927,108.37800000000004 C35.29999999999927,108.37800000000004 35.399999999999636,108.32600000000002 35.5,108.221 C35.600000000000364,108.10699999999997 35.600000000000364,108.024 35.600000000000364,107.971 C35.70000000000073,107.86699999999996 35.70000000000073,107.78399999999999 35.70000000000073,107.721 C35.79999999999927,107.67999999999995 35.79999999999927,107.57600000000002 35.899999999999636,107.40899999999999 C35.899999999999636,107.36699999999996 35.899999999999636,107.32000000000005 35.899999999999636,107.26800000000003 C35.899999999999636,107.21600000000001 35.899999999999636,107.17999999999995 35.899999999999636,107.15899999999999 C35.899999999999636,107.13800000000003 35.899999999999636,107.12199999999996 35.899999999999636,107.11199999999997 C36.0,106.904 36.0,106.779 36.100000000000364,106.73699999999997 C36.100000000000364,106.529 36.100000000000364,106.42499999999995 36.100000000000364,106.42499999999995 L37.399999999999636,101.26800000000003 L36.399999999999636,101.26800000000003 C36.29999999999927,101.26800000000003 36.29999999999927,101.23699999999997 36.20000000000073,101.17499999999995 C36.20000000000073,101.09100000000001 36.100000000000364,101.01800000000003 36.100000000000364,100.95600000000002 C36.100000000000364,100.87199999999996 36.20000000000073,100.79999999999995 36.20000000000073,100.73699999999997 C36.29999999999927,100.67499999999995 36.399999999999636,100.64300000000003 36.399999999999636,100.64300000000003 L37.600000000000364,100.64300000000003 C37.899999999999636,99.66399999999999 38.399999999999636,98.82000000000005 39.20000000000073,98.11199999999997 C39.899999999999636,97.38300000000004 40.70000000000073,97.01800000000003 41.600000000000364,97.01800000000003 C42.0,97.01800000000003 42.399999999999636,97.13300000000004 42.70000000000073,97.36199999999997 C43.0,97.58100000000002 43.20000000000073,97.86699999999996 43.20000000000073,98.221 C43.20000000000073,98.60699999999997 43.100000000000364,98.95100000000002 43.0,99.25300000000004 C42.79999999999927,99.524 42.5,99.66399999999999 42.20000000000073,99.67499999999995 C42.0,99.67499999999995 41.79999999999927,99.59400000000005 41.70000000000073,99.43200000000002 C41.5,99.27099999999996 41.399999999999636,99.08100000000002 41.399999999999636,98.86199999999997 C41.399999999999636,98.67499999999995 41.5,98.50300000000004 41.79999999999927,98.346 C42.0,98.19000000000005 42.100000000000364,98.01300000000003 42.100000000000364,97.81500000000005 C42.100000000000364,97.66899999999998 42.0,97.60199999999998 41.70000000000073,97.61199999999997 L41.70000000000073,97.61199999999997 C41.600000000000364,97.63300000000004 41.600000000000364,97.63800000000003 41.600000000000364,97.62800000000004 C41.399999999999636,97.62800000000004 41.20000000000073,97.68499999999995 41.0,97.79999999999995 C40.899999999999636,97.904 40.70000000000073,98.09100000000001 40.600000000000364,98.36199999999997 C40.5,98.43499999999995 40.5,98.50800000000004 40.5,98.58100000000002 C40.399999999999636,98.654 40.399999999999636,98.73400000000004 40.399999999999636,98.82299999999998 C40.399999999999636,98.91200000000003 40.29999999999927,98.971 40.29999999999927,99.00300000000004 C40.29999999999927,99.06500000000005 40.29999999999927,99.19500000000005 40.20000000000073,99.39300000000003 C40.20000000000073,99.58100000000002 40.20000000000073,99.74199999999996 40.100000000000364,99.87800000000004 C40.0,100.274 40.0,100.529 40.0,100.64300000000003 L41.0,100.64300000000003 C41.100000000000364,100.64300000000003 41.20000000000073,100.67200000000003 41.29999999999927,100.72900000000004 C41.29999999999927,100.78700000000003 41.399999999999636,100.85900000000004 41.399999999999636,100.94799999999998 C41.399999999999636,101.03700000000003 41.29999999999927,101.11199999999997 41.29999999999927,101.17499999999995 C41.20000000000073,101.23699999999997 41.100000000000364,101.26800000000003 41.0,101.26800000000003 L39.79999999999927,101.26800000000003 M45.100000000000364,101.26800000000003 L44.100000000000364,104.36199999999997 C43.79999999999927,105.47699999999998 43.20000000000073,106.55499999999995 42.399999999999636,107.596 C41.70000000000073,108.63800000000003 40.79999999999927,109.15899999999999 40.0,109.15899999999999 C39.600000000000364,109.15899999999999 39.20000000000073,109.04700000000003 38.899999999999636,108.82299999999998 C38.600000000000364,108.59900000000005 38.399999999999636,108.30999999999995 38.399999999999636,107.95600000000002 C38.399999999999636,107.54999999999995 38.5,107.20600000000002 38.600000000000364,106.92499999999995 C38.79999999999927,106.654 39.100000000000364,106.50800000000004 39.399999999999636,106.48699999999997 C39.600000000000364,106.48699999999997 39.79999999999927,106.57000000000005 40.0,106.73699999999997 C40.100000000000364,106.904 40.20000000000073,107.096 40.20000000000073,107.31500000000005 C40.20000000000073,107.51300000000003 40.100000000000364,107.69500000000005 39.899999999999636,107.86199999999997 C39.600000000000364,108.00800000000004 39.5,108.17499999999995 39.5,108.36199999999997 C39.5,108.48699999999997 39.600000000000364,108.54999999999995 39.899999999999636,108.54999999999995 L40.0,108.54999999999995 C40.100000000000364,108.54999999999995 40.20000000000073,108.53399999999999 40.29999999999927,108.50300000000004 C40.399999999999636,108.49199999999996 40.5,108.45100000000002 40.600000000000364,108.37800000000004 C40.600000000000364,108.37800000000004 40.600000000000364,108.32600000000002 40.79999999999927,108.221 C40.79999999999927,108.10699999999997 40.899999999999636,108.024 40.899999999999636,107.971 C41.0,107.86699999999996 41.0,107.78399999999999 41.0,107.721 C41.100000000000364,107.67999999999995 41.100000000000364,107.57600000000002 41.100000000000364,107.40899999999999 C41.20000000000073,107.36699999999996 41.20000000000073,107.32000000000005 41.20000000000073,107.26800000000003 C41.20000000000073,107.21600000000001 41.20000000000073,107.17999999999995 41.20000000000073,107.15899999999999 C41.20000000000073,107.13800000000003 41.20000000000073,107.12199999999996 41.20000000000073,107.11199999999997 C41.29999999999927,106.904 41.29999999999927,106.779 41.29999999999927,106.73699999999997 C41.399999999999636,106.529 41.399999999999636,106.42499999999995 41.399999999999636,106.42499999999995 L42.70000000000073,101.26800000000003 L41.70000000000073,101.26800000000003 C41.600000000000364,101.26800000000003 41.5,101.23699999999997 41.5,101.17499999999995 C41.399999999999636,101.09100000000001 41.399999999999636,101.01800000000003 41.399999999999636,100.95600000000002 C41.399999999999636,100.87199999999996 41.399999999999636,100.79999999999995 41.5,100.73699999999997 C41.600000000000364,100.67499999999995 41.600000000000364,100.64300000000003 41.70000000000073,100.64300000000003 L42.899999999999636,100.64300000000003 C43.20000000000073,99.66399999999999 43.70000000000073,98.82000000000005 44.5,98.11199999999997 C45.20000000000073,97.38300000000004 46.0,97.01800000000003 46.899999999999636,97.01800000000003 C47.29999999999927,97.01800000000003 47.70000000000073,97.13300000000004 48.0,97.36199999999997 C48.29999999999927,97.58100000000002 48.5,97.86699999999996 48.5,98.221 C48.5,98.60699999999997 48.399999999999636,98.95100000000002 48.29999999999927,99.25300000000004 C48.100000000000364,99.524 47.79999999999927,99.66399999999999 47.5,99.67499999999995 C47.29999999999927,99.67499999999995 47.100000000000364,99.59400000000005 46.899999999999636,99.43200000000002 C46.79999999999927,99.27099999999996 46.70000000000073,99.08100000000002 46.70000000000073,98.86199999999997 C46.70000000000073,98.67499999999995 46.79999999999927,98.50300000000004 47.100000000000364,98.346 C47.29999999999927,98.19000000000005 47.399999999999636,98.01300000000003 47.399999999999636,97.81500000000005 C47.399999999999636,97.66899999999998 47.29999999999927,97.60199999999998 47.0,97.61199999999997 L47.0,97.61199999999997 C46.899999999999636,97.63300000000004 46.899999999999636,97.63800000000003 46.899999999999636,97.62800000000004 C46.600000000000364,97.62800000000004 46.399999999999636,97.68499999999995 46.29999999999927,97.79999999999995 C46.100000000000364,97.904 46.0,98.09100000000001 45.899999999999636,98.36199999999997 C45.79999999999927,98.43499999999995 45.79999999999927,98.50800000000004 45.70000000000073,98.58100000000002 C45.70000000000073,98.654 45.70000000000073,98.73400000000004 45.70000000000073,98.82299999999998 C45.600000000000364,98.91200000000003 45.600000000000364,98.971 45.600000000000364,99.00300000000004 C45.600000000000364,99.06500000000005 45.600000000000364,99.19500000000005 45.5,99.39300000000003 C45.5,99.58100000000002 45.399999999999636,99.74199999999996 45.399999999999636,99.87800000000004 C45.29999999999927,100.274 45.29999999999927,100.529 45.20000000000073,100.64300000000003 L46.29999999999927,100.64300000000003 C46.399999999999636,100.64300000000003 46.5,100.67200000000003 46.5,100.72900000000004 C46.600000000000364,100.78700000000003 46.600000000000364,100.85900000000004 46.600000000000364,100.94799999999998 C46.600000000000364,101.03700000000003 46.600000000000364,101.11199999999997 46.5,101.17499999999995 C46.5,101.23699999999997 46.399999999999636,101.26800000000003 46.29999999999927,101.26800000000003 L45.100000000000364,101.26800000000003 M50.399999999999636,101.26800000000003 L49.399999999999636,104.36199999999997 C49.100000000000364,105.47699999999998 48.5,106.55499999999995 47.70000000000073,107.596 C46.899999999999636,108.63800000000003 46.100000000000364,109.15899999999999 45.29999999999927,109.15899999999999 C44.899999999999636,109.15899999999999 44.5,109.04700000000003 44.20000000000073,108.82299999999998 C43.79999999999927,108.59900000000005 43.70000000000073,108.30999999999995 43.70000000000073,107.95600000000002 C43.70000000000073,107.54999999999995 43.79999999999927,107.20600000000002 43.899999999999636,106.92499999999995 C44.100000000000364,106.654 44.399999999999636,106.50800000000004 44.70000000000073,106.48699999999997 C44.899999999999636,106.48699999999997 45.100000000000364,106.57000000000005 45.20000000000073,106.73699999999997 C45.399999999999636,106.904 45.5,107.096 45.5,107.31500000000005 C45.5,107.51300000000003 45.399999999999636,107.69500000000005 45.100000000000364,107.86199999999997 C44.899999999999636,108.00800000000004 44.79999999999927,108.17499999999995 44.79999999999927,108.36199999999997 C44.79999999999927,108.48699999999997 44.899999999999636,108.54999999999995 45.20000000000073,108.54999999999995 L45.29999999999927,108.54999999999995 C45.399999999999636,108.54999999999995 45.5,108.53399999999999 45.600000000000364,108.50300000000004 C45.70000000000073,108.49199999999996 45.70000000000073,108.45100000000002 45.899999999999636,108.37800000000004 C45.899999999999636,108.37800000000004 45.899999999999636,108.32600000000002 46.0,108.221 C46.100000000000364,108.10699999999997 46.20000000000073,108.024 46.20000000000073,107.971 C46.20000000000073,107.86699999999996 46.29999999999927,107.78399999999999 46.29999999999927,107.721 C46.29999999999927,107.67999999999995 46.399999999999636,107.57600000000002 46.399999999999636,107.40899999999999 C46.399999999999636,107.36699999999996 46.5,107.32000000000005 46.5,107.26800000000003 C46.5,107.21600000000001 46.5,107.17999999999995 46.5,107.15899999999999 C46.5,107.13800000000003 46.5,107.12199999999996 46.5,107.11199999999997 C46.600000000000364,106.904 46.600000000000364,106.779 46.600000000000364,106.73699999999997 C46.70000000000073,106.529 46.70000000000073,106.42499999999995 46.70000000000073,106.42499999999995 L48.0,101.26800000000003 L47.0,101.26800000000003 C46.899999999999636,101.26800000000003 46.79999999999927,101.23699999999997 46.79999999999927,101.17499999999995 C46.70000000000073,101.09100000000001 46.70000000000073,101.01800000000003 46.70000000000073,100.95600000000002 C46.70000000000073,100.87199999999996 46.70000000000073,100.79999999999995 46.79999999999927,100.73699999999997 C46.899999999999636,100.67499999999995 46.899999999999636,100.64300000000003 47.0,100.64300000000003 L48.100000000000364,100.64300000000003 C48.5,99.66399999999999 49.0,98.82000000000005 49.79999999999927,98.11199999999997 C50.5,97.38300000000004 51.29999999999927,97.01800000000003 52.100000000000364,97.01800000000003 C52.600000000000364,97.01800000000003 53.0,97.13300000000004 53.29999999999927,97.36199999999997 C53.600000000000364,97.58100000000002 53.79999999999927,97.86699999999996 53.79999999999927,98.221 C53.79999999999927,98.60699999999997 53.70000000000073,98.95100000000002 53.5,99.25300000000004 C53.29999999999927,99.524 53.100000000000364,99.66399999999999 52.79999999999927,99.67499999999995 C52.600000000000364,99.67499999999995 52.399999999999636,99.59400000000005 52.20000000000073,99.43200000000002 C52.100000000000364,99.27099999999996 52.0,99.08100000000002 52.0,98.86199999999997 C52.0,98.67499999999995 52.100000000000364,98.50300000000004 52.399999999999636,98.346 C52.600000000000364,98.19000000000005 52.70000000000073,98.01300000000003 52.70000000000073,97.81500000000005 C52.70000000000073,97.66899999999998 52.600000000000364,97.60199999999998 52.29999999999927,97.61199999999997 L52.20000000000073,97.61199999999997 C52.20000000000073,97.63300000000004 52.20000000000073,97.63800000000003 52.100000000000364,97.62800000000004 C51.899999999999636,97.62800000000004 51.70000000000073,97.68499999999995 51.600000000000364,97.79999999999995 C51.399999999999636,97.904 51.29999999999927,98.09100000000001 51.100000000000364,98.36199999999997 C51.100000000000364,98.43499999999995 51.100000000000364,98.50800000000004 51.0,98.58100000000002 C51.0,98.654 51.0,98.73400000000004 50.899999999999636,98.82299999999998 C50.899999999999636,98.91200000000003 50.899999999999636,98.971 50.899999999999636,99.00300000000004 C50.899999999999636,99.06500000000005 50.79999999999927,99.19500000000005 50.79999999999927,99.39300000000003 C50.79999999999927,99.58100000000002 50.70000000000073,99.74199999999996 50.70000000000073,99.87800000000004 C50.600000000000364,100.274 50.600000000000364,100.529 50.5,100.64300000000003 L51.600000000000364,100.64300000000003 C51.70000000000073,100.64300000000003 51.79999999999927,100.67200000000003 51.79999999999927,100.72900000000004 C51.899999999999636,100.78700000000003 51.899999999999636,100.85900000000004 51.899999999999636,100.94799999999998 C51.899999999999636,101.03700000000003 51.899999999999636,101.11199999999997 51.79999999999927,101.17499999999995 C51.79999999999927,101.23699999999997 51.70000000000073,101.26800000000003 51.600000000000364,101.26800000000003 L50.399999999999636,101.26800000000003" />
<path d="M161.89999999999964,17.831000000000017 L176.39999999999964,12.596000000000004 L176.39999999999964,15.096000000000004 L161.89999999999964,20.331000000000017 L161.89999999999964,17.831000000000017" />
<path d="M161.89999999999964,21.581000000000017 L176.39999999999964,16.346000000000004 L176.39999999999964,18.846000000000004 L161.89999999999964,24.081000000000017 L161.89999999999964,21.581000000000017" />
<path d="M89.60000000000036,96.346 L156.60000000000036,96.346 L156.60000000000036,98.846 L89.60000000000036,98.846 L89.60000000000036,96.346" />
<path d="M95.5,12.596000000000004 L118.29999999999927,12.596000000000004 L118.29999999999927,15.096000000000004 L95.5,15.096000000000004 L95.5,12.596000000000004" />
<path d="M76.79999999999927,16.346000000000004 C76.79999999999927,17.013000000000034 77.0,17.67999999999995 77.29999999999927,18.346000000000004 C77.60000000000036,18.991999999999962 77.89999999999964,19.60699999999997 78.29999999999927,20.190000000000055 L79.5,21.908999999999992 C79.89999999999964,22.451000000000022 80.20000000000073,23.07000000000005 80.5,23.76800000000003 C80.79999999999927,24.424999999999955 80.89999999999964,25.081000000000017 80.89999999999964,25.736999999999966 C80.89999999999964,26.351999999999975 80.79999999999927,26.991999999999962 80.39999999999964,27.658999999999992 C80.79999999999927,28.451000000000022 81.0,29.226999999999975 81.0,29.986999999999966 C81.0,31.184999999999945 80.79999999999927,32.40899999999999 80.20000000000073,33.65899999999999 C80.10000000000036,33.815000000000055 80.0,33.89300000000003 79.79999999999927,33.89300000000003 C79.70000000000073,33.89300000000003 79.60000000000036,33.84100000000001 79.5,33.736999999999966 C79.39999999999964,33.653999999999996 79.29999999999927,33.55499999999995 79.29999999999927,33.440000000000055 C79.29999999999927,33.440000000000055 79.29999999999927,33.40899999999999 79.29999999999927,33.346000000000004 C79.89999999999964,32.23199999999997 80.20000000000073,31.111999999999966 80.20000000000073,29.986999999999966 C80.20000000000073,29.476999999999975 80.10000000000036,29.008000000000038 79.89999999999964,28.581000000000017 C79.70000000000073,28.07000000000005 79.39999999999964,27.601999999999975 79.0,27.174999999999955 C78.60000000000036,26.611999999999966 78.29999999999927,26.206000000000017 78.0,25.956000000000017 C77.70000000000073,25.621999999999957 77.29999999999927,25.253000000000043 76.79999999999927,24.846000000000004 L76.79999999999927,26.346000000000004 L76.20000000000073,26.346000000000004 L76.20000000000073,16.346000000000004 L76.79999999999927,16.346000000000004 M79.89999999999964,26.674999999999955 C80.0,26.403999999999996 80.0,26.091000000000008 80.0,25.736999999999966 C80.0,25.288999999999987 80.0,24.831000000000017 79.79999999999927,24.361999999999966 C79.60000000000036,23.89300000000003 79.29999999999927,23.413999999999987 79.0,22.924999999999955 C78.60000000000036,22.528999999999996 78.29999999999927,22.133000000000038 78.0,21.736999999999966 C77.70000000000073,21.456000000000017 77.29999999999927,21.081000000000017 76.79999999999927,20.611999999999966 C76.79999999999927,21.14300000000003 77.0,21.706000000000017 77.20000000000073,22.299999999999955 C77.39999999999964,22.861999999999966 77.70000000000073,23.351999999999975 77.89999999999964,23.76800000000003 C78.20000000000073,24.216000000000008 78.5,24.71900000000005 79.0,25.275999999999954 C79.39999999999964,25.83299999999997 79.70000000000073,26.299999999999955 79.89999999999964,26.674999999999955" />
<path d="M254.89999999999964,81.346 L253.10000000000036,81.346 C253.0,81.346 252.89999999999964,81.28399999999999 252.89999999999964,81.15899999999999 L252.89999999999964,71.53399999999999 C252.89999999999964,71.40899999999999 253.0,71.346 253.10000000000036,71.346 L254.89999999999964,71.346 C255.10000000000036,71.346 255.10000000000036,71.40899999999999 255.10000000000036,71.53399999999999 L255.10000000000036,81.15899999999999 C255.10000000000036,81.28399999999999 255.10000000000036,81.346 254.89999999999964,81.346 M250.5,81.346 L248.70000000000073,81.346 C248.5,81.346 248.5,81.28399999999999 248.5,81.15899999999999 L248.5,71.53399999999999 C248.5,71.40899999999999 248.5,71.346 248.70000000000073,71.346 L250.5,71.346 C250.70000000000073,71.346 250.70000000000073,71.40899999999999 250.70000000000073,71.53399999999999 L250.70000000000073,81.15899999999999 C250.70000000000073,81.28399999999999 250.70000000000073,81.346 250.5,81.346" />
<path d="M250.39999999999964,37.40899999999999 C250.79999999999927,37.04399999999998 251.0,36.70600000000002 251.0,36.39300000000003 C250.89999999999964,36.101999999999975 250.79999999999927,35.88300000000004 250.60000000000036,35.736999999999966 C250.39999999999964,35.58100000000002 250.10000000000036,35.50300000000004 249.79999999999927,35.50300000000004 C249.60000000000036,35.50300000000004 249.39999999999964,35.57600000000002 249.20000000000073,35.721000000000004 C249.10000000000036,35.85699999999997 249.0,36.01800000000003 249.0,36.20600000000002 C249.0,36.44500000000005 249.10000000000036,36.62199999999996 249.29999999999927,36.736999999999966 L250.39999999999964,37.40899999999999 M250.79999999999927,37.565000000000055 C251.29999999999927,37.85699999999997 251.60000000000036,38.263000000000034 251.60000000000036,38.78399999999999 C251.60000000000036,38.78399999999999 251.60000000000036,38.80499999999995 251.60000000000036,38.846000000000004 C251.60000000000036,39.24199999999996 251.39999999999964,39.57600000000002 251.10000000000036,39.846000000000004 C250.79999999999927,40.12800000000004 250.29999999999927,40.26800000000003 249.70000000000073,40.26800000000003 C249.20000000000073,40.26800000000003 248.79999999999927,40.138000000000034 248.39999999999964,39.87800000000004 C248.10000000000036,39.638000000000034 247.89999999999964,39.309999999999945 247.89999999999964,38.89300000000003 C247.89999999999964,38.70600000000002 247.89999999999964,38.53899999999999 248.0,38.39300000000003 C248.10000000000036,38.226999999999975 248.20000000000073,38.111999999999966 248.29999999999927,38.049999999999955 C248.29999999999927,38.049999999999955 248.39999999999964,37.924999999999955 248.60000000000036,37.674999999999955 C248.20000000000073,37.403999999999996 248.0,37.05499999999995 248.0,36.62800000000004 C248.0,36.263000000000034 248.20000000000073,35.940000000000055 248.5,35.65899999999999 C248.79999999999927,35.399 249.20000000000073,35.26800000000003 249.79999999999927,35.26800000000003 C250.20000000000073,35.26800000000003 250.60000000000036,35.36699999999996 250.89999999999964,35.565000000000055 C251.20000000000073,35.763000000000034 251.39999999999964,36.03899999999999 251.39999999999964,36.39300000000003 C251.39999999999964,36.726999999999975 251.20000000000073,37.11699999999996 250.79999999999927,37.565000000000055 M248.89999999999964,37.846000000000004 C248.5,38.190000000000055 248.29999999999927,38.53899999999999 248.29999999999927,38.89300000000003 C248.29999999999927,39.226999999999975 248.5,39.49699999999996 248.70000000000073,39.70600000000002 C249.0,39.924999999999955 249.29999999999927,40.03399999999999 249.70000000000073,40.03399999999999 C250.0,40.03399999999999 250.20000000000073,39.95100000000002 250.29999999999927,39.78399999999999 C250.5,39.62800000000004 250.60000000000036,39.434999999999945 250.60000000000036,39.20600000000002 C250.5,38.924999999999955 250.39999999999964,38.721000000000004 250.20000000000073,38.596000000000004 L248.89999999999964,37.846000000000004 M256.60000000000036,17.065000000000055 C256.39999999999964,16.866999999999962 256.2999999999993,16.625 256.2999999999993,16.339000000000055 C256.2999999999993,16.05200000000002 256.39999999999964,15.812999999999988 256.60000000000036,15.620000000000005 C256.7999999999993,15.427000000000021 257.0,15.331000000000017 257.2999999999993,15.331000000000017 C257.60000000000036,15.331000000000017 257.7999999999993,15.427000000000021 258.0,15.620000000000005 C258.2000000000007,15.812999999999988 258.2999999999993,16.05200000000002 258.2999999999993,16.339000000000055 C258.2999999999993,16.625 258.2000000000007,16.866999999999962 258.0,17.065000000000055 C257.7999999999993,17.263000000000034 257.60000000000036,17.361999999999966 257.2999999999993,17.361999999999966 C257.0,17.361999999999966 256.7999999999993,17.263000000000034 256.60000000000036,17.065000000000055 M256.60000000000036,22.07299999999998 C256.39999999999964,21.879999999999995 256.2999999999993,21.640999999999963 256.2999999999993,21.354000000000042 C256.2999999999993,21.067999999999984 256.39999999999964,20.826000000000022 256.60000000000036,20.628000000000043 C256.7999999999993,20.42999999999995 257.0,20.331000000000017 257.2999999999993,20.331000000000017 C257.60000000000036,20.331000000000017 257.7999999999993,20.42999999999995 258.0,20.628000000000043 C258.2000000000007,20.826000000000022 258.2999999999993,21.067999999999984 258.2999999999993,21.354000000000042 C258.2999999999993,21.640999999999963 258.2000000000007,21.879999999999995 258.0,22.07299999999998 C257.7999999999993,22.265999999999963 257.60000000000036,22.361999999999966 257.2999999999993,22.361999999999966 C257.0,22.361999999999966 256.7999999999993,22.265999999999963 256.60000000000036,22.07299999999998 M249.79999999999927,13.596000000000004 C251.5,13.596000000000004 252.89999999999964,14.028999999999996 254.0,14.893000000000029 C255.10000000000036,15.809999999999945 255.60000000000036,17.049999999999955 255.60000000000036,18.611999999999966 C255.60000000000036,19.663999999999987 255.39999999999964,20.628000000000043 255.0,21.503000000000043 C254.60000000000036,22.418999999999983 254.10000000000036,23.226999999999975 253.5,23.924999999999955 C252.79999999999927,24.64300000000003 252.0,25.32000000000005 251.10000000000036,25.956000000000017 C250.20000000000073,26.581000000000017 249.29999999999927,27.14300000000003 248.29999999999927,27.64300000000003 C246.39999999999964,28.611999999999966 245.29999999999927,29.096000000000004 245.10000000000036,29.096000000000004 C245.0,29.096000000000004 244.89999999999964,29.013000000000034 244.89999999999964,28.846000000000004 C244.89999999999964,28.783999999999992 244.89999999999964,28.726999999999975 245.0,28.674999999999955 C245.60000000000036,28.278999999999996 246.39999999999964,27.778999999999996 247.39999999999964,27.174999999999955 C248.0,26.76800000000003 248.79999999999927,26.206000000000017 249.60000000000036,25.486999999999966 C250.39999999999964,24.809999999999945 251.0,24.174999999999955 251.5,23.581000000000017 C251.89999999999964,22.986999999999966 252.29999999999927,22.258000000000038 252.70000000000073,21.39300000000003 C253.0,20.51800000000003 253.20000000000073,19.653999999999996 253.20000000000073,18.799999999999955 C253.20000000000073,17.538999999999987 252.89999999999964,16.440000000000055 252.29999999999927,15.503000000000043 C251.60000000000036,14.565000000000055 250.79999999999927,14.096000000000004 249.79999999999927,14.096000000000004 C249.10000000000036,14.096000000000004 248.39999999999964,14.331000000000017 247.89999999999964,14.799999999999955 C247.39999999999964,15.278999999999996 246.89999999999964,15.883000000000038 246.70000000000073,16.611999999999966 C246.89999999999964,16.508000000000038 247.20000000000073,16.456000000000017 247.39999999999964,16.456000000000017 C247.89999999999964,16.456000000000017 248.39999999999964,16.653999999999996 248.79999999999927,17.049999999999955 C249.20000000000073,17.466000000000008 249.39999999999964,17.940000000000055 249.39999999999964,18.471000000000004 C249.39999999999964,19.033999999999992 249.20000000000073,19.538999999999987 248.79999999999927,19.986999999999966 C248.39999999999964,20.383000000000038 247.89999999999964,20.581000000000017 247.39999999999964,20.581000000000017 C246.79999999999927,20.581000000000017 246.29999999999927,20.383000000000038 245.79999999999927,19.986999999999966 C245.39999999999964,19.538999999999987 245.10000000000036,19.033999999999992 245.10000000000036,18.471000000000004 C245.10000000000036,17.128000000000043 245.60000000000036,15.981999999999971 246.5,15.033999999999992 C247.39999999999964,14.076000000000022 248.5,13.596000000000004 249.79999999999927,13.596000000000004" />
<polyline points="0.0,13.846000000000004 184.39999999999964,13.846000000000004" fill="none" stroke="#000000" stroke-width="0.40" />
<polyline points="0.0,18.846000000000004 184.39999999999964,18.846000000000004" fill="none" stroke="#000000" stroke-width="0.40" />
<polyline points="0.0,23.846000000000004 184.39999999999964,23.846000000000004" fill="none" stroke="#000000" stroke-width="0.40" />
<polyline points="0.0,28.846000000000004 184.39999999999964,28.846000000000004" fill="none" stroke="#000000" stroke-width="0.40" />
<polyline points="0.0,33.846000000000004 184.39999999999964,33.846000000000004" fill="none" stroke="#000000" stroke-width="0.40" />
<polyline points="0.0,66.346 184.39999999999964,66.346" fill="none" stroke="#000000" stroke-width="0.40" />
<polyline points="0.0,71.346 184.39999999999964,71.346" fill="none" stroke="#000000" stroke-width="0.40" />
<polyline points="0.0,76.346 184.39999999999964,76.346" fill="none" stroke="#000000" stroke-width="0.40" />
<polyline points="0.0,81.346 184.39999999999964,81.346" fill="none" stroke="#000000" stroke-width="0.40" />
<polyline points="0.0,86.346 184.39999999999964,86.346" fill="none" stroke="#000000" stroke-width="0.40" />
<polyline points="184.0,66.346 184.0,86.346" fill="" stroke="#000000" stroke-width="0.80" />
<polyline points="184.0,13.846000000000004 184.0,33.846000000000004" fill="" stroke="#000000" stroke-width="0.80" />
<polyline points="4.200000000000728,66.346 4.200000000000728,86.346" fill="" stroke="#000000" stroke-width="0.80" />
<polyline points="4.200000000000728,13.846000000000004 4.200000000000728,33.846000000000004" fill="" stroke="#000000" stroke-width="0.80" />
<polyline points="176.10000000000036,27.90700000000004 176.10000000000036,13.846000000000004" fill="" stroke="#000000" stroke-width="0.65" />
<polyline points="156.29999999999927,65.90999999999997 156.29999999999927,97.596" fill="" stroke="#000000" stroke-width="0.65" />
<polyline points="162.20000000000073,32.90700000000004 162.20000000000073,18.846000000000004" fill="" stroke="#000000" stroke-width="0.65" />
<polyline points="134.20000000000073,65.90999999999997 134.20000000000073,97.596" fill="" stroke="#000000" stroke-width="0.65" />
<polyline points="112.0,65.90999999999997 112.0,97.596" fill="" stroke="#000000" stroke-width="0.65" />
<polyline points="118.0,27.90700000000004 118.0,13.846000000000004" fill="" stroke="#000000" stroke-width="0.65" />
<polyline points="89.89999999999964,65.90999999999997 89.89999999999964,97.596" fill="" stroke="#000000" stroke-width="0.65" />
<polyline points="95.79999999999927,27.90700000000004 95.79999999999927,13.846000000000004" fill="" stroke="#000000" stroke-width="0.65" />
<polyline points="76.5,32.90700000000004 76.5,16.346000000000004" fill="" stroke="#000000" stroke-width="0.65" />
<polyline points="43.20000000000073,65.90999999999997 43.20000000000073,90.096" fill="" stroke="#000000" stroke-width="0.65" />
<polyline points="12.799999999999272,65.90999999999997 12.799999999999272,97.596" fill="" stroke="#000000" stroke-width="0.65" />
<polyline points="19.100000000000364,25.40700000000004 19.100000000000364,10.096000000000004" fill="" stroke="#000000" stroke-width="0.65" />
<polyline points="241.10000000000036,13.846000000000004 255.0,13.846000000000004" fill="none" stroke="#000000" stroke-width="0.40" />
<polyline points="241.10000000000036,18.846000000000004 255.0,18.846000000000004" fill="none" stroke="#000000" stroke-width="0.40" />
<polyline points="241.10000000000036,23.846000000000004 255.0,23.846000000000004" fill="none" stroke="#000000" stroke-width="0.40" />
<polyline points="241.10000000000036,28.846000000000004 255.0,28.846000000000004" fill="none" stroke="#000000" stroke-width="0.40" />
<polyline points="241.10000000000036,33.846000000000004 255.0,33.846000000000004" fill="none" stroke="#000000" stroke-width="0.40" />
<polyline points="241.10000000000036,66.346 255.0,66.346" fill="none" stroke="#000000" stroke-width="0.40" />
<polyline points="241.10000000000036,71.346 255.0,71.346" fill="none" stroke="#000000" stroke-width="0.40" />
<polyline points="241.10000000000036,76.346 255.0,76.346" fill="none" stroke="#000000" stroke-width="0.40" />
<polyline points="241.10000000000036,81.346 255.0,81.346" fill="none" stroke="#000000" stroke-width="0.40" />
<polyline points="241.10000000000036,86.346 255.0,86.346" fill="none" stroke="#000000" stroke-width="0.40" />
<polyline points="241.5,0.0 241.5,86.346" fill="" stroke="#000000" stroke-width="0.80" />
</svg>
