<?xml version="1.0" encoding="UTF-8" standalone="yes"?>
<svg width="256.0px" height="256.0px" xmlns="http://www.w3.org/2000/svg" xmlns:xlink="http://www.w3.org/1999/xlink" version="1.2" baseProfile="tiny">
<path d="M42.18000000000029,24.07299999999998 L42.18000000000029,24.19799999999998 L40.47999999999956,29.432999999999993 L39.970000000000255,29.432999999999993 L41.539999999999964,24.66700000000003 L39.8100000000004,24.66700000000003 C39.590000000000146,24.66700000000003 39.42000000000007,24.706000000000017 39.3100000000004,24.783999999999992 C39.19999999999982,24.861999999999966 39.05000000000018,25.037000000000035 38.89000000000033,25.307999999999993 L38.75,25.245000000000005 L39.220000000000255,24.07299999999998 L42.18000000000029,24.07299999999998" />
<path d="M101.60000000000036,26.400999999999954 C102.09000000000015,26.754999999999995 102.42000000000007,27.05200000000002 102.59000000000015,27.29200000000003 C102.77000000000044,27.53200000000004 102.85000000000036,27.807999999999993 102.85000000000036,28.120000000000005 C102.85000000000036,28.537000000000035 102.71000000000004,28.866999999999962 102.42000000000007,29.111999999999966 C102.13000000000011,29.35699999999997 101.75,29.479000000000042 101.27000000000044,29.479000000000042 C100.8100000000004,29.479000000000042 100.4399999999996,29.35699999999997 100.15999999999985,29.111999999999966 C99.86999999999989,28.866999999999962 99.72999999999956,28.547000000000025 99.72999999999956,28.150999999999954 C99.72999999999956,27.879999999999995 99.78999999999996,27.653999999999996 99.92000000000007,27.47199999999998 C100.05000000000018,27.288999999999987 100.34000000000015,27.037000000000035 100.77000000000044,26.714000000000055 C100.35000000000036,26.339000000000055 100.06999999999971,26.062999999999988 99.94999999999982,25.885999999999967 C99.82999999999993,25.708999999999946 99.77000000000044,25.49000000000001 99.77000000000044,25.229000000000042 C99.77000000000044,24.86500000000001 99.92000000000007,24.559999999999945 100.19999999999982,24.315000000000055 C100.48999999999978,24.071000000000026 100.85999999999967,23.94799999999998 101.30000000000018,23.94799999999998 C101.69999999999982,23.94799999999998 102.02999999999975,24.05499999999995 102.27999999999975,24.269000000000005 C102.53999999999996,24.48199999999997 102.65999999999985,24.760999999999967 102.65999999999985,25.104000000000042 C102.65999999999985,25.375 102.59000000000015,25.604000000000042 102.43000000000029,25.79200000000003 C102.27000000000044,25.979000000000042 102.0,26.182999999999993 101.60000000000036,26.400999999999954 M100.97999999999956,26.870000000000005 C100.75,27.057999999999993 100.59000000000015,27.241999999999962 100.48999999999978,27.424999999999955 C100.39999999999964,27.60699999999997 100.35000000000036,27.827999999999975 100.35000000000036,28.089000000000055 C100.35000000000036,28.432999999999993 100.4399999999996,28.711000000000013 100.61999999999989,28.924999999999955 C100.8100000000004,29.138000000000034 101.05000000000018,29.245000000000005 101.35000000000036,29.245000000000005 C101.60999999999967,29.245000000000005 101.81999999999971,29.163999999999987 101.97999999999956,29.003000000000043 C102.14999999999964,28.841000000000008 102.22999999999956,28.629999999999995 102.22999999999956,28.370000000000005 C102.22999999999956,28.287000000000035 102.22000000000025,28.206000000000017 102.19999999999982,28.128000000000043 C102.1899999999996,28.049999999999955 102.17000000000007,27.985000000000014 102.14999999999964,27.932999999999993 C102.13000000000011,27.879999999999995 102.09000000000015,27.817999999999984 102.02999999999975,27.745000000000005 C101.97000000000025,27.672000000000025 101.93000000000029,27.616999999999962 101.89999999999964,27.581000000000017 C101.86999999999989,27.54499999999996 101.8100000000004,27.486999999999966 101.72000000000025,27.408999999999992 C101.63000000000011,27.331000000000017 101.5600000000004,27.275999999999954 101.52000000000044,27.245000000000005 C101.47000000000025,27.214000000000055 101.38000000000011,27.153999999999996 101.26000000000022,27.065000000000055 C101.13000000000011,26.976999999999975 101.03999999999996,26.912000000000035 100.97999999999956,26.870000000000005 M101.36999999999989,26.260999999999967 C101.38000000000011,26.25 101.42000000000007,26.22199999999998 101.47999999999956,26.174999999999955 C101.55000000000018,26.128000000000043 101.60000000000036,26.091000000000008 101.61999999999989,26.065000000000055 C101.64999999999964,26.038999999999987 101.6899999999996,26.0 101.76000000000022,25.94799999999998 C101.81999999999971,25.895999999999958 101.86999999999989,25.84400000000005 101.89999999999964,25.79200000000003 C101.93000000000029,25.74000000000001 101.97000000000025,25.67700000000002 102.01000000000022,25.604000000000042 C102.05000000000018,25.53200000000004 102.07999999999993,25.451000000000022 102.09000000000015,25.361999999999966 C102.10999999999967,25.274 102.11999999999989,25.182999999999993 102.11999999999989,25.089000000000055 C102.11999999999989,24.817999999999984 102.03999999999996,24.599000000000046 101.88000000000011,24.432999999999993 C101.72999999999956,24.265999999999963 101.51000000000022,24.182999999999993 101.23999999999978,24.182999999999993 C100.98999999999978,24.182999999999993 100.78999999999996,24.258000000000038 100.61999999999989,24.408999999999992 C100.46000000000004,24.559999999999945 100.38000000000011,24.75 100.38000000000011,24.979000000000042 C100.38000000000011,25.19799999999998 100.46000000000004,25.40700000000004 100.60999999999967,25.604000000000042 C100.76000000000022,25.80200000000002 101.01000000000022,26.020999999999958 101.36999999999989,26.260999999999967" />
</svg>
