<?xml version="1.0" encoding="UTF-8" standalone="yes"?>
<svg width="256.0px" height="256.0px" xmlns="http://www.w3.org/2000/svg" xmlns:xlink="http://www.w3.org/1999/xlink" version="1.2" baseProfile="tiny">
<path d="M192.8699999999999,228.346 C193.03999999999996,228.253 193.21000000000004,228.206 193.3800000000001,228.206 C193.54999999999995,228.206 193.72000000000003,228.253 193.8800000000001,228.346 L193.81999999999994,232.003 L195.96000000000004,231.612 L196.03999999999996,231.612 C196.26999999999998,231.612 196.3800000000001,231.721 196.3800000000001,231.94 L196.52999999999997,243.346 C196.3599999999999,243.44 196.19000000000005,243.487 196.01999999999998,243.487 C195.8499999999999,243.487 195.68000000000006,243.44 195.51,243.346 L195.56999999999994,239.69 L193.46000000000004,240.081 L193.3800000000001,240.081 C193.1500000000001,240.081 193.02999999999997,239.971 193.02999999999997,239.753 L192.8699999999999,228.346 M195.58999999999992,237.737 L195.6500000000001,233.596 L193.80999999999995,233.956 L193.74,238.096 L195.58999999999992,237.737" />
<path d="M192.99,170.018 L192.99,171.565 C192.99,172.117 193.01999999999998,172.555 193.06999999999994,172.878 C193.5,172.513 193.79999999999995,172.242 193.99,172.065 C194.20000000000005,171.857 194.41000000000008,171.568 194.6199999999999,171.198 C194.81999999999994,170.828 194.93000000000006,170.461 194.93000000000006,170.096 C194.93000000000006,169.732 194.8499999999999,169.419 194.69000000000005,169.159 C194.53999999999996,168.899 194.32999999999993,168.768 194.06999999999994,168.768 C193.76,168.768 193.5,168.888 193.28999999999996,169.128 C193.08999999999992,169.388 192.99,169.685 192.99,170.018 M192.16000000000008,173.596 L191.91000000000008,161.706 C192.0999999999999,161.602 192.28999999999996,161.55 192.47000000000003,161.55 C192.6500000000001,161.55 192.82999999999993,161.602 193.01,161.706 L192.8499999999999,168.596 C193.3800000000001,168.138 194.0,167.909 194.69000000000005,167.909 C195.19000000000005,167.909 195.6099999999999,168.117 195.95000000000005,168.534 C196.28999999999996,168.951 196.46000000000004,169.43 196.46000000000004,169.971 C196.46000000000004,170.305 196.3499999999999,170.664 196.1300000000001,171.05 C195.92000000000007,171.393 195.70000000000005,171.664 195.48000000000002,171.862 C195.33999999999992,171.966 195.01,172.227 194.48000000000002,172.643 C194.31999999999994,172.758 194.1300000000001,172.893 193.92000000000007,173.05 C193.71000000000004,173.206 193.56999999999994,173.305 193.51999999999998,173.346 C193.43000000000006,173.399 193.33999999999992,173.503 193.26,173.659 C193.17000000000007,173.794 193.06999999999994,173.904 192.94000000000005,173.987 C192.8599999999999,174.07 192.75,174.112 192.6199999999999,174.112 C192.49,174.112 192.3900000000001,174.065 192.29999999999995,173.971 C192.21000000000004,173.878 192.16000000000008,173.753 192.16000000000008,173.596" />
<path d="M192.8699999999999,175.846 C193.03999999999996,175.753 193.21000000000004,175.706 193.3800000000001,175.706 C193.54999999999995,175.706 193.72000000000003,175.753 193.8800000000001,175.846 L193.81999999999994,179.503 L195.96000000000004,179.112 L196.03999999999996,179.112 C196.26999999999998,179.112 196.3800000000001,179.221 196.3800000000001,179.44 L196.52999999999997,190.846 C196.3599999999999,190.94 196.19000000000005,190.987 196.01999999999998,190.987 C195.8499999999999,190.987 195.68000000000006,190.94 195.51,190.846 L195.56999999999994,187.19 L193.46000000000004,187.581 L193.3800000000001,187.581 C193.1500000000001,187.581 193.02999999999997,187.471 193.02999999999997,187.253 L192.8699999999999,175.846 M195.58999999999992,185.237 L195.6500000000001,181.096 L193.80999999999995,181.456 L193.74,185.596 L195.58999999999992,185.237" />
<path d="M110.65000000000009,235.018 L110.65000000000009,236.565 C110.65000000000009,237.117 110.68000000000006,237.555 110.73000000000002,237.878 C111.16000000000008,237.513 111.46000000000004,237.242 111.65000000000009,237.065 C111.8599999999999,236.857 112.06999999999994,236.568 112.27999999999997,236.198 C112.49000000000001,235.828 112.58999999999992,235.461 112.58999999999992,235.096 C112.58999999999992,234.732 112.50999999999999,234.419 112.3599999999999,234.159 C112.20000000000005,233.899 111.99000000000001,233.768 111.73000000000002,233.768 C111.42000000000007,233.768 111.16000000000008,233.888 110.95000000000005,234.128 C110.75,234.388 110.65000000000009,234.685 110.65000000000009,235.018 M109.81999999999994,238.596 L109.56999999999994,226.706 C109.75999999999999,226.602 109.95000000000005,226.55 110.13000000000011,226.55 C110.30999999999995,226.55 110.49000000000001,226.602 110.67000000000007,226.706 L110.50999999999999,233.596 C111.03999999999996,233.138 111.66000000000008,232.909 112.3599999999999,232.909 C112.8599999999999,232.909 113.26999999999998,233.117 113.6099999999999,233.534 C113.95000000000005,233.951 114.11999999999989,234.43 114.11999999999989,234.971 C114.11999999999989,235.305 114.00999999999999,235.664 113.78999999999996,236.05 C113.57999999999993,236.393 113.36999999999989,236.664 113.1400000000001,236.862 C113.0,236.966 112.67000000000007,237.227 112.1400000000001,237.643 C111.98000000000002,237.758 111.79999999999995,237.893 111.57999999999993,238.05 C111.36999999999989,238.206 111.24000000000001,238.305 111.18000000000006,238.346 C111.08999999999992,238.399 111.0,238.503 110.92000000000007,238.659 C110.82999999999993,238.794 110.73000000000002,238.904 110.6099999999999,238.987 C110.51999999999998,239.07 110.42000000000007,239.112 110.28999999999996,239.112 C110.16000000000008,239.112 110.04999999999995,239.065 109.96000000000004,238.971 C109.86999999999989,238.878 109.81999999999994,238.753 109.81999999999994,238.596" />
<path d="M109.65000000000009,177.518 L109.65000000000009,179.065 C109.65000000000009,179.617 109.68000000000006,180.055 109.73000000000002,180.378 C110.16000000000008,180.013 110.46000000000004,179.742 110.65000000000009,179.565 C110.8599999999999,179.357 111.06999999999994,179.068 111.27999999999997,178.698 C111.49000000000001,178.328 111.58999999999992,177.961 111.58999999999992,177.596 C111.58999999999992,177.232 111.50999999999999,176.919 111.3599999999999,176.659 C111.20000000000005,176.399 110.99000000000001,176.268 110.73000000000002,176.268 C110.42000000000007,176.268 110.16000000000008,176.388 109.95000000000005,176.628 C109.75,176.888 109.65000000000009,177.185 109.65000000000009,177.518 M108.81999999999994,181.096 L108.56999999999994,169.206 C108.75999999999999,169.102 108.95000000000005,169.05 109.13000000000011,169.05 C109.30999999999995,169.05 109.49000000000001,169.102 109.67000000000007,169.206 L109.50999999999999,176.096 C110.03999999999996,175.638 110.66000000000008,175.409 111.3599999999999,175.409 C111.8599999999999,175.409 112.26999999999998,175.617 112.6099999999999,176.034 C112.95000000000005,176.451 113.11999999999989,176.93 113.11999999999989,177.471 C113.11999999999989,177.805 113.00999999999999,178.164 112.78999999999996,178.55 C112.57999999999993,178.893 112.36999999999989,179.164 112.1400000000001,179.362 C112.0,179.466 111.67000000000007,179.727 111.1400000000001,180.143 C110.98000000000002,180.258 110.79999999999995,180.393 110.57999999999993,180.55 C110.36999999999989,180.706 110.24000000000001,180.805 110.18000000000006,180.846 C110.08999999999992,180.899 110.0,181.003 109.92000000000007,181.159 C109.82999999999993,181.294 109.73000000000002,181.404 109.6099999999999,181.487 C109.51999999999998,181.57 109.42000000000007,181.612 109.28999999999996,181.612 C109.16000000000008,181.612 109.04999999999995,181.565 108.96000000000004,181.471 C108.86999999999989,181.378 108.81999999999994,181.253 108.81999999999994,181.096" />
<path d="M109.65000000000009,195.018 L109.65000000000009,196.565 C109.65000000000009,197.117 109.68000000000006,197.555 109.73000000000002,197.878 C110.16000000000008,197.513 110.46000000000004,197.242 110.65000000000009,197.065 C110.8599999999999,196.857 111.06999999999994,196.568 111.27999999999997,196.198 C111.49000000000001,195.828 111.58999999999992,195.461 111.58999999999992,195.096 C111.58999999999992,194.732 111.50999999999999,194.419 111.3599999999999,194.159 C111.20000000000005,193.899 110.99000000000001,193.768 110.73000000000002,193.768 C110.42000000000007,193.768 110.16000000000008,193.888 109.95000000000005,194.128 C109.75,194.388 109.65000000000009,194.685 109.65000000000009,195.018 M108.81999999999994,198.596 L108.56999999999994,186.706 C108.75999999999999,186.602 108.95000000000005,186.55 109.13000000000011,186.55 C109.30999999999995,186.55 109.49000000000001,186.602 109.67000000000007,186.706 L109.50999999999999,193.596 C110.03999999999996,193.138 110.66000000000008,192.909 111.3599999999999,192.909 C111.8599999999999,192.909 112.26999999999998,193.117 112.6099999999999,193.534 C112.95000000000005,193.951 113.11999999999989,194.43 113.11999999999989,194.971 C113.11999999999989,195.305 113.00999999999999,195.664 112.78999999999996,196.05 C112.57999999999993,196.393 112.36999999999989,196.664 112.1400000000001,196.862 C112.0,196.966 111.67000000000007,197.227 111.1400000000001,197.643 C110.98000000000002,197.758 110.79999999999995,197.893 110.57999999999993,198.05 C110.36999999999989,198.206 110.24000000000001,198.305 110.18000000000006,198.346 C110.08999999999992,198.399 110.0,198.503 109.92000000000007,198.659 C109.82999999999993,198.794 109.73000000000002,198.904 109.6099999999999,198.987 C109.51999999999998,199.07 109.42000000000007,199.112 109.28999999999996,199.112 C109.16000000000008,199.112 109.04999999999995,199.065 108.96000000000004,198.971 C108.86999999999989,198.878 108.81999999999994,198.753 108.81999999999994,198.596" />
<path d="M109.65000000000009,95.0183 L109.65000000000009,96.5652 C109.65000000000009,97.1173 109.68000000000006,97.5548 109.73000000000002,97.8777 C110.16000000000008,97.5131 110.46000000000004,97.2423 110.65000000000009,97.0652 C110.8599999999999,96.8569 111.06999999999994,96.5678 111.27999999999997,96.198 C111.49000000000001,95.8282 111.58999999999992,95.461 111.58999999999992,95.0965 C111.58999999999992,94.7319 111.50999999999999,94.4194 111.3599999999999,94.159 C111.20000000000005,93.8985 110.99000000000001,93.7683 110.73000000000002,93.7683 C110.42000000000007,93.7683 110.16000000000008,93.8881 109.95000000000005,94.1277 C109.75,94.3881 109.65000000000009,94.685 109.65000000000009,95.0183 M108.81999999999994,98.5965 L108.56999999999994,86.7058 C108.75999999999999,86.6017 108.95000000000005,86.5496 109.13000000000011,86.5496 C109.30999999999995,86.5496 109.49000000000001,86.6017 109.67000000000007,86.7058 L109.50999999999999,93.5965 C110.03999999999996,93.1381 110.66000000000008,92.909 111.3599999999999,92.909 C111.8599999999999,92.909 112.26999999999998,93.1173 112.6099999999999,93.534 C112.95000000000005,93.9506 113.11999999999989,94.4298 113.11999999999989,94.9715 C113.11999999999989,95.3048 113.00999999999999,95.6642 112.78999999999996,96.0496 C112.57999999999993,96.3933 112.36999999999989,96.6642 112.1400000000001,96.8621 C112.0,96.9662 111.67000000000007,97.2267 111.1400000000001,97.6433 C110.98000000000002,97.7579 110.79999999999995,97.8933 110.57999999999993,98.0496 C110.36999999999989,98.2058 110.24000000000001,98.3048 110.18000000000006,98.3465 C110.08999999999992,98.3985 110.0,98.5027 109.92000000000007,98.659 C109.82999999999993,98.7944 109.73000000000002,98.9037 109.6099999999999,98.9871 C109.51999999999998,99.0704 109.42000000000007,99.1121 109.28999999999996,99.1121 C109.16000000000008,99.1121 109.04999999999995,99.0652 108.96000000000004,98.9715 C108.86999999999989,98.8777 108.81999999999994,98.7527 108.81999999999994,98.5965" />
<path d="M110.65000000000009,72.5183 L110.65000000000009,74.0652 C110.65000000000009,74.6173 110.68000000000006,75.0548 110.73000000000002,75.3777 C111.16000000000008,75.0131 111.46000000000004,74.7423 111.65000000000009,74.5652 C111.8599999999999,74.3569 112.06999999999994,74.0678 112.27999999999997,73.698 C112.49000000000001,73.3282 112.58999999999992,72.961 112.58999999999992,72.5965 C112.58999999999992,72.2319 112.50999999999999,71.9194 112.3599999999999,71.659 C112.20000000000005,71.3985 111.99000000000001,71.2683 111.73000000000002,71.2683 C111.42000000000007,71.2683 111.16000000000008,71.3881 110.95000000000005,71.6277 C110.75,71.8881 110.65000000000009,72.185 110.65000000000009,72.5183 M109.81999999999994,76.0965 L109.56999999999994,64.2058 C109.75999999999999,64.1017 109.95000000000005,64.0496 110.13000000000011,64.0496 C110.30999999999995,64.0496 110.49000000000001,64.1017 110.67000000000007,64.2058 L110.50999999999999,71.0965 C111.03999999999996,70.6381 111.66000000000008,70.409 112.3599999999999,70.409 C112.8599999999999,70.409 113.26999999999998,70.6173 113.6099999999999,71.034 C113.95000000000005,71.4506 114.11999999999989,71.9298 114.11999999999989,72.4715 C114.11999999999989,72.8048 114.00999999999999,73.1642 113.78999999999996,73.5496 C113.57999999999993,73.8933 113.36999999999989,74.1642 113.1400000000001,74.3621 C113.0,74.4662 112.67000000000007,74.7267 112.1400000000001,75.1433 C111.98000000000002,75.2579 111.79999999999995,75.3933 111.57999999999993,75.5496 C111.36999999999989,75.7058 111.24000000000001,75.8048 111.18000000000006,75.8465 C111.08999999999992,75.8985 111.0,76.0027 110.92000000000007,76.159 C110.82999999999993,76.2944 110.73000000000002,76.4037 110.6099999999999,76.4871 C110.51999999999998,76.5704 110.42000000000007,76.6121 110.28999999999996,76.6121 C110.16000000000008,76.6121 110.04999999999995,76.5652 109.96000000000004,76.4715 C109.86999999999989,76.3777 109.81999999999994,76.2527 109.81999999999994,76.0965" />
<path d="M77.67000000000007,229.581 C77.67000000000007,229.831 77.54999999999995,229.956 77.29999999999995,229.956 C77.05999999999995,229.956 76.94000000000005,229.831 76.94000000000005,229.581 L76.94000000000005,226.69 L75.27999999999997,227.315 L75.27999999999997,230.471 C75.27999999999997,230.721 75.16000000000008,230.846 74.91000000000008,230.846 C74.66000000000008,230.846 74.52999999999997,230.721 74.52999999999997,230.471 L74.52999999999997,227.565 L73.91000000000008,227.8 C73.90000000000009,227.81 73.83999999999992,227.815 73.75,227.815 C73.65000000000009,227.815 73.54999999999995,227.776 73.48000000000002,227.698 C73.40000000000009,227.62 73.3599999999999,227.529 73.3599999999999,227.425 L73.3599999999999,226.221 C73.3599999999999,226.024 73.44000000000005,225.899 73.6099999999999,225.846 L74.52999999999997,225.534 L74.52999999999997,222.331 L73.91000000000008,222.55 C73.90000000000009,222.56 73.83999999999992,222.565 73.75,222.565 C73.65000000000009,222.565 73.54999999999995,222.526 73.48000000000002,222.448 C73.40000000000009,222.37 73.3599999999999,222.279 73.3599999999999,222.175 L73.3599999999999,220.956 C73.3599999999999,220.779 73.44000000000005,220.664 73.6099999999999,220.612 L74.52999999999997,220.253 L74.52999999999997,217.112 C74.52999999999997,216.862 74.66000000000008,216.737 74.91000000000008,216.737 C75.16000000000008,216.737 75.27999999999997,216.862 75.27999999999997,217.112 L75.27999999999997,220.003 L76.94000000000005,219.378 L76.94000000000005,216.221 C76.94000000000005,215.971 77.05999999999995,215.846 77.29999999999995,215.846 C77.54999999999995,215.846 77.67000000000007,215.971 77.67000000000007,216.221 L77.67000000000007,219.128 L78.32999999999993,218.893 C78.33999999999992,218.883 78.38000000000011,218.878 78.45000000000005,218.878 C78.54999999999995,218.878 78.65000000000009,218.914 78.75,218.987 C78.82999999999993,219.07 78.86999999999989,219.164 78.86999999999989,219.268 L78.86999999999989,220.471 C78.86999999999989,220.659 78.77999999999997,220.784 78.58999999999992,220.846 L77.67000000000007,221.159 L77.67000000000007,224.362 L78.32999999999993,224.143 C78.33999999999992,224.133 78.38000000000011,224.128 78.45000000000005,224.128 C78.54999999999995,224.128 78.65000000000009,224.169 78.75,224.253 C78.82999999999993,224.326 78.86999999999989,224.414 78.86999999999989,224.518 L78.86999999999989,225.737 C78.86999999999989,225.904 78.77999999999997,226.018 78.58999999999992,226.081 L77.67000000000007,226.44 L77.67000000000007,229.581 M76.94000000000005,221.456 L75.27999999999997,222.034 L75.27999999999997,225.237 L76.94000000000005,224.659 L76.94000000000005,221.456" />
<path d="M40.059999999999945,112.518 L40.059999999999945,114.065 C40.059999999999945,114.617 40.07999999999993,115.055 40.13000000000011,115.378 C40.559999999999945,115.013 40.86999999999989,114.742 41.059999999999945,114.565 C41.25999999999999,114.357 41.47000000000003,114.068 41.680000000000064,113.698 C41.8900000000001,113.328 41.99000000000001,112.961 41.99000000000001,112.596 C41.99000000000001,112.232 41.92000000000007,111.919 41.75999999999999,111.659 C41.59999999999991,111.399 41.3900000000001,111.268 41.13000000000011,111.268 C40.819999999999936,111.268 40.559999999999945,111.388 40.34999999999991,111.628 C40.16000000000008,111.888 40.059999999999945,112.185 40.059999999999945,112.518 M39.23000000000002,116.096 L38.98000000000002,104.206 C39.17000000000007,104.102 39.34999999999991,104.05 39.52999999999997,104.05 C39.72000000000003,104.05 39.8900000000001,104.102 40.069999999999936,104.206 L39.92000000000007,111.096 C40.450000000000045,110.638 41.059999999999945,110.409 41.75999999999999,110.409 C42.25999999999999,110.409 42.680000000000064,110.617 43.01999999999998,111.034 C43.3599999999999,111.451 43.52999999999997,111.93 43.52999999999997,112.471 C43.52999999999997,112.805 43.42000000000007,113.164 43.200000000000045,113.55 C42.99000000000001,113.893 42.76999999999998,114.164 42.539999999999964,114.362 C42.41000000000008,114.466 42.069999999999936,114.727 41.539999999999964,115.143 C41.38000000000011,115.258 41.200000000000045,115.393 40.99000000000001,115.55 C40.76999999999998,115.706 40.6400000000001,115.805 40.58999999999992,115.846 C40.49000000000001,115.899 40.41000000000008,116.003 40.319999999999936,116.159 C40.24000000000001,116.294 40.13000000000011,116.404 40.00999999999999,116.487 C39.930000000000064,116.57 39.819999999999936,116.612 39.690000000000055,116.612 C39.559999999999945,116.612 39.450000000000045,116.565 39.36999999999989,116.471 C39.27999999999997,116.378 39.23000000000002,116.253 39.23000000000002,116.096" />
<path d="M39.059999999999945,90.0183 L39.059999999999945,91.5652 C39.059999999999945,92.1173 39.07999999999993,92.5548 39.13000000000011,92.8777 C39.559999999999945,92.5131 39.86999999999989,92.2423 40.059999999999945,92.0652 C40.25999999999999,91.8569 40.47000000000003,91.5678 40.680000000000064,91.198 C40.8900000000001,90.8282 40.99000000000001,90.461 40.99000000000001,90.0965 C40.99000000000001,89.7319 40.92000000000007,89.4194 40.75999999999999,89.159 C40.59999999999991,88.8985 40.3900000000001,88.7683 40.13000000000011,88.7683 C39.819999999999936,88.7683 39.559999999999945,88.8881 39.34999999999991,89.1277 C39.16000000000008,89.3881 39.059999999999945,89.685 39.059999999999945,90.0183 M38.23000000000002,93.5965 L37.98000000000002,81.7058 C38.17000000000007,81.6017 38.34999999999991,81.5496 38.52999999999997,81.5496 C38.72000000000003,81.5496 38.8900000000001,81.6017 39.069999999999936,81.7058 L38.92000000000007,88.5965 C39.450000000000045,88.1381 40.059999999999945,87.909 40.75999999999999,87.909 C41.25999999999999,87.909 41.680000000000064,88.1173 42.01999999999998,88.534 C42.3599999999999,88.9506 42.52999999999997,89.4298 42.52999999999997,89.9715 C42.52999999999997,90.3048 42.42000000000007,90.6642 42.200000000000045,91.0496 C41.99000000000001,91.3933 41.76999999999998,91.6642 41.539999999999964,91.8621 C41.41000000000008,91.9662 41.069999999999936,92.2267 40.539999999999964,92.6433 C40.38000000000011,92.7579 40.200000000000045,92.8933 39.99000000000001,93.0496 C39.76999999999998,93.2058 39.6400000000001,93.3048 39.58999999999992,93.3465 C39.49000000000001,93.3985 39.41000000000008,93.5027 39.319999999999936,93.659 C39.24000000000001,93.7944 39.13000000000011,93.9037 39.00999999999999,93.9871 C38.930000000000064,94.0704 38.819999999999936,94.1121 38.690000000000055,94.1121 C38.559999999999945,94.1121 38.450000000000045,94.0652 38.36999999999989,93.9715 C38.27999999999997,93.8777 38.23000000000002,93.7527 38.23000000000002,93.5965" />
<path d="M201.99,233.096 C202.6199999999999,233.096 203.1500000000001,233.258 203.58999999999992,233.581 C203.98000000000002,233.935 204.18000000000006,234.378 204.18000000000006,234.909 C204.18000000000006,235.805 203.72000000000003,236.643 202.80999999999995,237.425 C201.8699999999999,238.206 200.8599999999999,238.596 199.78999999999996,238.596 C199.17000000000007,238.596 198.6400000000001,238.435 198.21000000000004,238.112 C197.80999999999995,237.758 197.5999999999999,237.315 197.5999999999999,236.784 C197.5999999999999,235.888 198.06999999999994,235.05 199.01,234.268 C199.93000000000006,233.487 200.92000000000007,233.096 201.99,233.096" />
<path d="M207.93000000000006,168.096 C208.54999999999995,168.096 209.07999999999993,168.258 209.51999999999998,168.581 C209.92000000000007,168.935 210.1099999999999,169.378 210.1099999999999,169.909 C210.1099999999999,170.805 209.66000000000008,171.643 208.74,172.425 C207.79999999999995,173.206 206.79999999999995,173.596 205.72000000000003,173.596 C205.0999999999999,173.596 204.56999999999994,173.435 204.1500000000001,173.112 C203.74,172.758 203.53999999999996,172.315 203.53999999999996,171.784 C203.53999999999996,170.888 204.01,170.05 204.94000000000005,169.268 C205.8599999999999,168.487 206.8499999999999,168.096 207.93000000000006,168.096" />
<path d="M201.99,168.096 C202.6199999999999,168.096 203.1500000000001,168.258 203.58999999999992,168.581 C203.98000000000002,168.935 204.18000000000006,169.378 204.18000000000006,169.909 C204.18000000000006,170.805 203.72000000000003,171.643 202.80999999999995,172.425 C201.8699999999999,173.206 200.8599999999999,173.596 199.78999999999996,173.596 C199.17000000000007,173.596 198.6400000000001,173.435 198.21000000000004,173.112 C197.80999999999995,172.758 197.5999999999999,172.315 197.5999999999999,171.784 C197.5999999999999,170.888 198.06999999999994,170.05 199.01,169.268 C199.93000000000006,168.487 200.92000000000007,168.096 201.99,168.096" />
<path d="M201.99,173.096 C202.6199999999999,173.096 203.1500000000001,173.258 203.58999999999992,173.581 C203.98000000000002,173.935 204.18000000000006,174.378 204.18000000000006,174.909 C204.18000000000006,175.805 203.72000000000003,176.643 202.80999999999995,177.425 C201.8699999999999,178.206 200.8599999999999,178.596 199.78999999999996,178.596 C199.17000000000007,178.596 198.6400000000001,178.435 198.21000000000004,178.112 C197.80999999999995,177.758 197.5999999999999,177.315 197.5999999999999,176.784 C197.5999999999999,175.888 198.06999999999994,175.05 199.01,174.268 C199.93000000000006,173.487 200.92000000000007,173.096 201.99,173.096" />
<path d="M201.99,180.596 C202.6199999999999,180.596 203.1500000000001,180.758 203.58999999999992,181.081 C203.98000000000002,181.435 204.18000000000006,181.878 204.18000000000006,182.409 C204.18000000000006,183.305 203.72000000000003,184.143 202.80999999999995,184.925 C201.8699999999999,185.706 200.8599999999999,186.096 199.78999999999996,186.096 C199.17000000000007,186.096 198.6400000000001,185.935 198.21000000000004,185.612 C197.80999999999995,185.258 197.5999999999999,184.815 197.5999999999999,184.284 C197.5999999999999,183.388 198.06999999999994,182.55 199.01,181.768 C199.93000000000006,180.987 200.92000000000007,180.596 201.99,180.596" />
<path d="M201.99,190.596 C202.6199999999999,190.596 203.1500000000001,190.758 203.58999999999992,191.081 C203.98000000000002,191.435 204.18000000000006,191.878 204.18000000000006,192.409 C204.18000000000006,193.305 203.72000000000003,194.143 202.80999999999995,194.925 C201.8699999999999,195.706 200.8599999999999,196.096 199.78999999999996,196.096 C199.17000000000007,196.096 198.6400000000001,195.935 198.21000000000004,195.612 C197.80999999999995,195.258 197.5999999999999,194.815 197.5999999999999,194.284 C197.5999999999999,193.388 198.06999999999994,192.55 199.01,191.768 C199.93000000000006,190.987 200.92000000000007,190.596 201.99,190.596" />
<path d="M201.99,98.0965 C202.6199999999999,98.0965 203.1500000000001,98.2579 203.58999999999992,98.5808 C203.98000000000002,98.935 204.18000000000006,99.3777 204.18000000000006,99.909 C204.18000000000006,100.805 203.72000000000003,101.643 202.80999999999995,102.425 C201.8699999999999,103.206 200.8599999999999,103.596 199.78999999999996,103.596 C199.17000000000007,103.596 198.6400000000001,103.435 198.21000000000004,103.112 C197.80999999999995,102.758 197.5999999999999,102.315 197.5999999999999,101.784 C197.5999999999999,100.888 198.06999999999994,100.05 199.01,99.2683 C199.93000000000006,98.4871 200.92000000000007,98.0965 201.99,98.0965" />
<path d="M201.99,75.5965 C202.6199999999999,75.5965 203.1500000000001,75.7579 203.58999999999992,76.0808 C203.98000000000002,76.435 204.18000000000006,76.8777 204.18000000000006,77.409 C204.18000000000006,78.3048 203.72000000000003,79.1433 202.80999999999995,79.9246 C201.8699999999999,80.7058 200.8599999999999,81.0965 199.78999999999996,81.0965 C199.17000000000007,81.0965 198.6400000000001,80.935 198.21000000000004,80.6121 C197.80999999999995,80.2579 197.5999999999999,79.8152 197.5999999999999,79.284 C197.5999999999999,78.3881 198.06999999999994,77.5496 199.01,76.7683 C199.93000000000006,75.9871 200.92000000000007,75.5965 201.99,75.5965" />
<path d="M184.3499999999999,233.096 C184.97000000000003,233.096 185.5,233.258 185.94000000000005,233.581 C186.32999999999993,233.935 186.52999999999997,234.378 186.52999999999997,234.909 C186.52999999999997,235.805 186.06999999999994,236.643 185.16000000000008,237.425 C184.22000000000003,238.206 183.21000000000004,238.596 182.1400000000001,238.596 C181.51999999999998,238.596 180.99,238.435 180.55999999999995,238.112 C180.16000000000008,237.758 179.95000000000005,237.315 179.95000000000005,236.784 C179.95000000000005,235.888 180.42000000000007,235.05 181.3599999999999,234.268 C182.27999999999997,233.487 183.26999999999998,233.096 184.3499999999999,233.096" />
<path d="M166.70000000000005,233.096 C167.31999999999994,233.096 167.8499999999999,233.258 168.28999999999996,233.581 C168.69000000000005,233.935 168.8800000000001,234.378 168.8800000000001,234.909 C168.8800000000001,235.805 168.43000000000006,236.643 167.51,237.425 C166.56999999999994,238.206 165.56999999999994,238.596 164.49,238.596 C163.8699999999999,238.596 163.33999999999992,238.435 162.91000000000008,238.112 C162.51,237.758 162.30999999999995,237.315 162.30999999999995,236.784 C162.30999999999995,235.888 162.76999999999998,235.05 163.71000000000004,234.268 C164.6300000000001,233.487 165.6199999999999,233.096 166.70000000000005,233.096" />
<path d="M166.70000000000005,170.596 C167.31999999999994,170.596 167.8499999999999,170.758 168.28999999999996,171.081 C168.69000000000005,171.435 168.8800000000001,171.878 168.8800000000001,172.409 C168.8800000000001,173.305 168.43000000000006,174.143 167.51,174.925 C166.56999999999994,175.706 165.56999999999994,176.096 164.49,176.096 C163.8699999999999,176.096 163.33999999999992,175.935 162.91000000000008,175.612 C162.51,175.258 162.30999999999995,174.815 162.30999999999995,174.284 C162.30999999999995,173.388 162.76999999999998,172.55 163.71000000000004,171.768 C164.6300000000001,170.987 165.6199999999999,170.596 166.70000000000005,170.596" />
<path d="M166.70000000000005,175.596 C167.31999999999994,175.596 167.8499999999999,175.758 168.28999999999996,176.081 C168.69000000000005,176.435 168.8800000000001,176.878 168.8800000000001,177.409 C168.8800000000001,178.305 168.43000000000006,179.143 167.51,179.925 C166.56999999999994,180.706 165.56999999999994,181.096 164.49,181.096 C163.8699999999999,181.096 163.33999999999992,180.935 162.91000000000008,180.612 C162.51,180.258 162.30999999999995,179.815 162.30999999999995,179.284 C162.30999999999995,178.388 162.76999999999998,177.55 163.71000000000004,176.768 C164.6300000000001,175.987 165.6199999999999,175.596 166.70000000000005,175.596" />
<path d="M166.70000000000005,183.096 C167.31999999999994,183.096 167.8499999999999,183.258 168.28999999999996,183.581 C168.69000000000005,183.935 168.8800000000001,184.378 168.8800000000001,184.909 C168.8800000000001,185.805 168.43000000000006,186.643 167.51,187.425 C166.56999999999994,188.206 165.56999999999994,188.596 164.49,188.596 C163.8699999999999,188.596 163.33999999999992,188.435 162.91000000000008,188.112 C162.51,187.758 162.30999999999995,187.315 162.30999999999995,186.784 C162.30999999999995,185.888 162.76999999999998,185.05 163.71000000000004,184.268 C164.6300000000001,183.487 165.6199999999999,183.096 166.70000000000005,183.096" />
<path d="M166.70000000000005,193.096 C167.31999999999994,193.096 167.8499999999999,193.258 168.28999999999996,193.581 C168.69000000000005,193.935 168.8800000000001,194.378 168.8800000000001,194.909 C168.8800000000001,195.805 168.43000000000006,196.643 167.51,197.425 C166.56999999999994,198.206 165.56999999999994,198.596 164.49,198.596 C163.8699999999999,198.596 163.33999999999992,198.435 162.91000000000008,198.112 C162.51,197.758 162.30999999999995,197.315 162.30999999999995,196.784 C162.30999999999995,195.888 162.76999999999998,195.05 163.71000000000004,194.268 C164.6300000000001,193.487 165.6199999999999,193.096 166.70000000000005,193.096" />
<path d="M166.70000000000005,100.596 C167.31999999999994,100.596 167.8499999999999,100.758 168.28999999999996,101.081 C168.69000000000005,101.435 168.8800000000001,101.878 168.8800000000001,102.409 C168.8800000000001,103.305 168.43000000000006,104.143 167.51,104.925 C166.56999999999994,105.706 165.56999999999994,106.096 164.49,106.096 C163.8699999999999,106.096 163.33999999999992,105.935 162.91000000000008,105.612 C162.51,105.258 162.30999999999995,104.815 162.30999999999995,104.284 C162.30999999999995,103.388 162.76999999999998,102.55 163.71000000000004,101.768 C164.6300000000001,100.987 165.6199999999999,100.596 166.70000000000005,100.596" />
<path d="M166.70000000000005,78.0965 C167.31999999999994,78.0965 167.8499999999999,78.2579 168.28999999999996,78.5808 C168.69000000000005,78.935 168.8800000000001,79.3777 168.8800000000001,79.909 C168.8800000000001,80.8048 168.43000000000006,81.6433 167.51,82.4246 C166.56999999999994,83.2058 165.56999999999994,83.5965 164.49,83.5965 C163.8699999999999,83.5965 163.33999999999992,83.435 162.91000000000008,83.1121 C162.51,82.7579 162.30999999999995,82.3152 162.30999999999995,81.784 C162.30999999999995,80.8881 162.76999999999998,80.0496 163.71000000000004,79.2683 C164.6300000000001,78.4871 165.6199999999999,78.0965 166.70000000000005,78.0965" />
<path d="M152.22000000000003,93.0965 C152.8499999999999,93.0965 153.3800000000001,93.2579 153.81999999999994,93.5808 C154.21000000000004,93.935 154.41000000000008,94.3777 154.41000000000008,94.909 C154.41000000000008,95.8048 153.95000000000005,96.6433 153.02999999999997,97.4246 C152.0999999999999,98.2058 151.08999999999992,98.5965 150.01999999999998,98.5965 C149.3900000000001,98.5965 148.8699999999999,98.435 148.44000000000005,98.1121 C148.02999999999997,97.7579 147.82999999999993,97.3152 147.82999999999993,96.784 C147.82999999999993,95.8881 148.29999999999995,95.0496 149.24,94.2683 C150.1500000000001,93.4871 151.1500000000001,93.0965 152.22000000000003,93.0965" />
<path d="M152.22000000000003,70.5965 C152.8499999999999,70.5965 153.3800000000001,70.7579 153.81999999999994,71.0808 C154.21000000000004,71.435 154.41000000000008,71.8777 154.41000000000008,72.409 C154.41000000000008,73.3048 153.95000000000005,74.1433 153.02999999999997,74.9246 C152.0999999999999,75.7058 151.08999999999992,76.0965 150.01999999999998,76.0965 C149.3900000000001,76.0965 148.8699999999999,75.935 148.44000000000005,75.6121 C148.02999999999997,75.2579 147.82999999999993,74.8152 147.82999999999993,74.284 C147.82999999999993,73.3881 148.29999999999995,72.5496 149.24,71.7683 C150.1500000000001,70.9871 151.1500000000001,70.5965 152.22000000000003,70.5965" />
<path d="M143.18000000000006,233.096 C143.79999999999995,233.096 144.32999999999993,233.258 144.76999999999998,233.581 C145.17000000000007,233.935 145.3599999999999,234.378 145.3599999999999,234.909 C145.3599999999999,235.805 144.91000000000008,236.643 143.99,237.425 C143.04999999999995,238.206 142.04999999999995,238.596 140.97000000000003,238.596 C140.3499999999999,238.596 139.81999999999994,238.435 139.3900000000001,238.112 C138.99,237.758 138.78999999999996,237.315 138.78999999999996,236.784 C138.78999999999996,235.888 139.25,235.05 140.19000000000005,234.268 C141.1099999999999,233.487 142.0999999999999,233.096 143.18000000000006,233.096" />
<path d="M134.1300000000001,90.5965 C134.75,90.5965 135.28999999999996,90.7579 135.72000000000003,91.0808 C136.1199999999999,91.435 136.31999999999994,91.8777 136.31999999999994,92.409 C136.31999999999994,93.3048 135.8599999999999,94.1433 134.94000000000005,94.9246 C134.0,95.7058 133.0,96.0965 131.93000000000006,96.0965 C131.29999999999995,96.0965 130.77999999999997,95.935 130.3499999999999,95.6121 C129.94000000000005,95.2579 129.74,94.8152 129.74,94.284 C129.74,93.3881 130.21000000000004,92.5496 131.1500000000001,91.7683 C132.05999999999995,90.9871 133.05999999999995,90.5965 134.1300000000001,90.5965" />
<path d="M134.1300000000001,68.0965 C134.75,68.0965 135.28999999999996,68.2579 135.72000000000003,68.5808 C136.1199999999999,68.935 136.31999999999994,69.3777 136.31999999999994,69.909 C136.31999999999994,70.8048 135.8599999999999,71.6433 134.94000000000005,72.4246 C134.0,73.2058 133.0,73.5965 131.93000000000006,73.5965 C131.29999999999995,73.5965 130.77999999999997,73.435 130.3499999999999,73.1121 C129.94000000000005,72.7579 129.74,72.3152 129.74,71.784 C129.74,70.8881 130.21000000000004,70.0496 131.1500000000001,69.2683 C132.05999999999995,68.4871 133.05999999999995,68.0965 134.1300000000001,68.0965" />
<path d="M119.66000000000008,233.096 C120.27999999999997,233.096 120.80999999999995,233.258 121.25,233.581 C121.65000000000009,233.935 121.83999999999992,234.378 121.83999999999992,234.909 C121.83999999999992,235.805 121.38000000000011,236.643 120.47000000000003,237.425 C119.52999999999997,238.206 118.52999999999997,238.596 117.45000000000005,238.596 C116.82999999999993,238.596 116.29999999999995,238.435 115.86999999999989,238.112 C115.47000000000003,237.758 115.25999999999999,237.315 115.25999999999999,236.784 C115.25999999999999,235.888 115.73000000000002,235.05 116.67000000000007,234.268 C117.58999999999992,233.487 118.57999999999993,233.096 119.66000000000008,233.096" />
<path d="M119.66000000000008,170.596 C120.27999999999997,170.596 120.80999999999995,170.758 121.25,171.081 C121.65000000000009,171.435 121.83999999999992,171.878 121.83999999999992,172.409 C121.83999999999992,173.305 121.38000000000011,174.143 120.47000000000003,174.925 C119.52999999999997,175.706 118.52999999999997,176.096 117.45000000000005,176.096 C116.82999999999993,176.096 116.29999999999995,175.935 115.86999999999989,175.612 C115.47000000000003,175.258 115.25999999999999,174.815 115.25999999999999,174.284 C115.25999999999999,173.388 115.73000000000002,172.55 116.67000000000007,171.768 C117.58999999999992,170.987 118.57999999999993,170.596 119.66000000000008,170.596" />
<path d="M119.66000000000008,175.596 C120.27999999999997,175.596 120.80999999999995,175.758 121.25,176.081 C121.65000000000009,176.435 121.83999999999992,176.878 121.83999999999992,177.409 C121.83999999999992,178.305 121.38000000000011,179.143 120.47000000000003,179.925 C119.52999999999997,180.706 118.52999999999997,181.096 117.45000000000005,181.096 C116.82999999999993,181.096 116.29999999999995,180.935 115.86999999999989,180.612 C115.47000000000003,180.258 115.25999999999999,179.815 115.25999999999999,179.284 C115.25999999999999,178.388 115.73000000000002,177.55 116.67000000000007,176.768 C117.58999999999992,175.987 118.57999999999993,175.596 119.66000000000008,175.596" />
<path d="M119.66000000000008,183.096 C120.27999999999997,183.096 120.80999999999995,183.258 121.25,183.581 C121.65000000000009,183.935 121.83999999999992,184.378 121.83999999999992,184.909 C121.83999999999992,185.805 121.38000000000011,186.643 120.47000000000003,187.425 C119.52999999999997,188.206 118.52999999999997,188.596 117.45000000000005,188.596 C116.82999999999993,188.596 116.29999999999995,188.435 115.86999999999989,188.112 C115.47000000000003,187.758 115.25999999999999,187.315 115.25999999999999,186.784 C115.25999999999999,185.888 115.73000000000002,185.05 116.67000000000007,184.268 C117.58999999999992,183.487 118.57999999999993,183.096 119.66000000000008,183.096" />
<path d="M119.66000000000008,193.096 C120.27999999999997,193.096 120.80999999999995,193.258 121.25,193.581 C121.65000000000009,193.935 121.83999999999992,194.378 121.83999999999992,194.909 C121.83999999999992,195.805 121.38000000000011,196.643 120.47000000000003,197.425 C119.52999999999997,198.206 118.52999999999997,198.596 117.45000000000005,198.596 C116.82999999999993,198.596 116.29999999999995,198.435 115.86999999999989,198.112 C115.47000000000003,197.758 115.25999999999999,197.315 115.25999999999999,196.784 C115.25999999999999,195.888 115.73000000000002,195.05 116.67000000000007,194.268 C117.58999999999992,193.487 118.57999999999993,193.096 119.66000000000008,193.096" />
<path d="M119.66000000000008,93.0965 C120.27999999999997,93.0965 120.80999999999995,93.2579 121.25,93.5808 C121.65000000000009,93.935 121.83999999999992,94.3777 121.83999999999992,94.909 C121.83999999999992,95.8048 121.38000000000011,96.6433 120.47000000000003,97.4246 C119.52999999999997,98.2058 118.52999999999997,98.5965 117.45000000000005,98.5965 C116.82999999999993,98.5965 116.29999999999995,98.435 115.86999999999989,98.1121 C115.47000000000003,97.7579 115.25999999999999,97.3152 115.25999999999999,96.784 C115.25999999999999,95.8881 115.73000000000002,95.0496 116.67000000000007,94.2683 C117.58999999999992,93.4871 118.57999999999993,93.0965 119.66000000000008,93.0965" />
<path d="M119.66000000000008,70.5965 C120.27999999999997,70.5965 120.80999999999995,70.7579 121.25,71.0808 C121.65000000000009,71.435 121.83999999999992,71.8777 121.83999999999992,72.409 C121.83999999999992,73.3048 121.38000000000011,74.1433 120.47000000000003,74.9246 C119.52999999999997,75.7058 118.52999999999997,76.0965 117.45000000000005,76.0965 C116.82999999999993,76.0965 116.29999999999995,75.935 115.86999999999989,75.6121 C115.47000000000003,75.2579 115.25999999999999,74.8152 115.25999999999999,74.284 C115.25999999999999,73.3881 115.73000000000002,72.5496 116.67000000000007,71.7683 C117.58999999999992,70.9871 118.57999999999993,70.5965 119.66000000000008,70.5965" />
<path d="M102.00999999999999,98.0965 C102.63000000000011,98.0965 103.16000000000008,98.2579 103.59999999999991,98.5808 C104.0,98.935 104.19000000000005,99.3777 104.19000000000005,99.909 C104.19000000000005,100.805 103.74000000000001,101.643 102.81999999999994,102.425 C101.88000000000011,103.206 100.88000000000011,103.596 99.79999999999995,103.596 C99.18000000000006,103.596 98.65000000000009,103.435 98.23000000000002,103.112 C97.81999999999994,102.758 97.61999999999989,102.315 97.61999999999989,101.784 C97.61999999999989,100.888 98.07999999999993,100.05 99.01999999999998,99.2683 C99.94000000000005,98.4871 100.93000000000006,98.0965 102.00999999999999,98.0965" />
<path d="M102.00999999999999,75.5965 C102.63000000000011,75.5965 103.16000000000008,75.7579 103.59999999999991,76.0808 C104.0,76.435 104.19000000000005,76.8777 104.19000000000005,77.409 C104.19000000000005,78.3048 103.74000000000001,79.1433 102.81999999999994,79.9246 C101.88000000000011,80.7058 100.88000000000011,81.0965 99.79999999999995,81.0965 C99.18000000000006,81.0965 98.65000000000009,80.935 98.23000000000002,80.6121 C97.81999999999994,80.2579 97.61999999999989,79.8152 97.61999999999989,79.284 C97.61999999999989,78.3881 98.07999999999993,77.5496 99.01999999999998,76.7683 C99.94000000000005,75.9871 100.93000000000006,75.5965 102.00999999999999,75.5965" />
<path d="M84.3599999999999,220.596 C84.98000000000002,220.596 85.50999999999999,220.758 85.95000000000005,221.081 C86.34999999999991,221.435 86.54999999999995,221.878 86.54999999999995,222.409 C86.54999999999995,223.305 86.08999999999992,224.143 85.17000000000007,224.925 C84.23000000000002,225.706 83.23000000000002,226.096 82.15000000000009,226.096 C81.52999999999997,226.096 81.0,225.935 80.57999999999993,225.612 C80.17000000000007,225.258 79.97000000000003,224.815 79.97000000000003,224.284 C79.97000000000003,223.388 80.44000000000005,222.55 81.36999999999989,221.768 C82.28999999999996,220.987 83.27999999999997,220.596 84.3599999999999,220.596" />
<path d="M84.3599999999999,100.596 C84.98000000000002,100.596 85.50999999999999,100.758 85.95000000000005,101.081 C86.34999999999991,101.435 86.54999999999995,101.878 86.54999999999995,102.409 C86.54999999999995,103.305 86.08999999999992,104.143 85.17000000000007,104.925 C84.23000000000002,105.706 83.23000000000002,106.096 82.15000000000009,106.096 C81.52999999999997,106.096 81.0,105.935 80.57999999999993,105.612 C80.17000000000007,105.258 79.97000000000003,104.815 79.97000000000003,104.284 C79.97000000000003,103.388 80.44000000000005,102.55 81.36999999999989,101.768 C82.28999999999996,100.987 83.27999999999997,100.596 84.3599999999999,100.596" />
<path d="M84.3599999999999,78.0965 C84.98000000000002,78.0965 85.50999999999999,78.2579 85.95000000000005,78.5808 C86.34999999999991,78.935 86.54999999999995,79.3777 86.54999999999995,79.909 C86.54999999999995,80.8048 86.08999999999992,81.6433 85.17000000000007,82.4246 C84.23000000000002,83.2058 83.23000000000002,83.5965 82.15000000000009,83.5965 C81.52999999999997,83.5965 81.0,83.435 80.57999999999993,83.1121 C80.17000000000007,82.7579 79.97000000000003,82.3152 79.97000000000003,81.784 C79.97000000000003,80.8881 80.44000000000005,80.0496 81.36999999999989,79.2683 C82.28999999999996,78.4871 83.27999999999997,78.0965 84.3599999999999,78.0965" />
<path d="M66.71000000000004,108.096 C67.32999999999993,108.096 67.8599999999999,108.258 68.29999999999995,108.581 C68.70000000000005,108.935 68.90000000000009,109.378 68.90000000000009,109.909 C68.90000000000009,110.805 68.44000000000005,111.643 67.51999999999998,112.425 C66.57999999999993,113.206 65.57999999999993,113.596 64.50999999999999,113.596 C63.88000000000011,113.596 63.34999999999991,113.435 62.930000000000064,113.112 C62.51999999999998,112.758 62.319999999999936,112.315 62.319999999999936,111.784 C62.319999999999936,110.888 62.789999999999964,110.05 63.72000000000003,109.268 C64.6400000000001,108.487 65.6400000000001,108.096 66.71000000000004,108.096" />
<path d="M66.71000000000004,85.5965 C67.32999999999993,85.5965 67.8599999999999,85.7579 68.29999999999995,86.0808 C68.70000000000005,86.435 68.90000000000009,86.8777 68.90000000000009,87.409 C68.90000000000009,88.3048 68.44000000000005,89.1433 67.51999999999998,89.9246 C66.57999999999993,90.7058 65.57999999999993,91.0965 64.50999999999999,91.0965 C63.88000000000011,91.0965 63.34999999999991,90.935 62.930000000000064,90.6121 C62.51999999999998,90.2579 62.319999999999936,89.8152 62.319999999999936,89.284 C62.319999999999936,88.3881 62.789999999999964,87.5496 63.72000000000003,86.7683 C64.6400000000001,85.9871 65.6400000000001,85.5965 66.71000000000004,85.5965" />
<path d="M49.059999999999945,110.596 C49.680000000000064,110.596 50.22000000000003,110.758 50.65000000000009,111.081 C51.049999999999955,111.435 51.25,111.878 51.25,112.409 C51.25,113.305 50.789999999999964,114.143 49.86999999999989,114.925 C48.930000000000064,115.706 47.930000000000064,116.096 46.8599999999999,116.096 C46.23000000000002,116.096 45.710000000000036,115.935 45.27999999999997,115.612 C44.86999999999989,115.258 44.67000000000007,114.815 44.67000000000007,114.284 C44.67000000000007,113.388 45.1400000000001,112.55 46.07999999999993,111.768 C46.99000000000001,110.987 47.99000000000001,110.596 49.059999999999945,110.596" />
<path d="M49.059999999999945,88.0965 C49.680000000000064,88.0965 50.22000000000003,88.2579 50.65000000000009,88.5808 C51.049999999999955,88.935 51.25,89.3777 51.25,89.909 C51.25,90.8048 50.789999999999964,91.6433 49.86999999999989,92.4246 C48.930000000000064,93.2058 47.930000000000064,93.5965 46.8599999999999,93.5965 C46.23000000000002,93.5965 45.710000000000036,93.435 45.27999999999997,93.1121 C44.86999999999989,92.7579 44.67000000000007,92.3152 44.67000000000007,91.784 C44.67000000000007,90.8881 45.1400000000001,90.0496 46.07999999999993,89.2683 C46.99000000000001,88.4871 47.99000000000001,88.0965 49.059999999999945,88.0965" />
<path d="M100.11999999999989,226.737 C100.50999999999999,226.737 100.78999999999996,226.841 100.96000000000004,227.05 C101.1400000000001,227.279 101.25,227.503 101.28999999999996,227.721 C101.29999999999995,227.94 101.36999999999989,228.159 101.49000000000001,228.378 C101.55999999999995,228.586 101.70000000000005,228.69 101.91000000000008,228.69 C102.04999999999995,228.69 102.25,228.534 102.50999999999999,228.221 C102.79999999999995,227.857 102.99000000000001,227.596 103.06999999999994,227.44 C103.13000000000011,227.315 103.22000000000003,227.253 103.32999999999993,227.253 C103.32999999999993,227.253 103.34999999999991,227.253 103.36999999999989,227.253 C103.48000000000002,227.263 103.55999999999995,227.326 103.61999999999989,227.44 L100.03999999999996,240.846 C99.91000000000008,240.982 99.73000000000002,241.05 99.5,241.05 C99.25999999999999,241.05 99.07999999999993,240.982 98.94000000000005,240.846 L100.96000000000004,234.3 C100.07999999999993,234.612 99.38000000000011,234.768 98.82999999999993,234.768 C98.36999999999989,234.768 97.96000000000004,234.622 97.61999999999989,234.331 C97.25999999999999,234.039 97.07999999999993,233.659 97.07999999999993,233.19 C97.07999999999993,232.784 97.22000000000003,232.445 97.49000000000001,232.175 C97.77999999999997,231.893 98.13000000000011,231.753 98.53999999999996,231.753 C98.92000000000007,231.753 99.20000000000005,231.857 99.38000000000011,232.065 C99.56999999999994,232.284 99.68000000000006,232.503 99.73000000000002,232.721 C99.76999999999998,232.982 99.82999999999993,233.206 99.93000000000006,233.393 C100.00999999999999,233.602 100.15000000000009,233.706 100.34999999999991,233.706 C100.50999999999999,233.706 100.73000000000002,233.524 101.01999999999998,233.159 C101.30999999999995,232.815 101.5,232.544 101.56999999999994,232.346 L102.48000000000002,229.315 C101.6400000000001,229.617 100.95000000000005,229.768 100.40000000000009,229.768 C99.93000000000006,229.768 99.51999999999998,229.617 99.18000000000006,229.315 C98.81999999999994,229.034 98.65000000000009,228.659 98.65000000000009,228.19 C98.65000000000009,227.784 98.78999999999996,227.445 99.07999999999993,227.175 C99.36999999999989,226.883 99.71000000000004,226.737 100.11999999999989,226.737" />
<path d="M81.36999999999989,174.237 C81.75,174.237 82.02999999999997,174.341 82.23000000000002,174.55 C82.43000000000006,174.789 82.52999999999997,175.013 82.54999999999995,175.221 C82.57999999999993,175.419 82.6400000000001,175.638 82.75,175.878 C82.8599999999999,176.086 83.00999999999999,176.19 83.19000000000005,176.19 C83.32999999999993,176.19 83.54999999999995,176.029 83.83999999999992,175.706 C84.09999999999991,175.425 84.28999999999996,175.169 84.40000000000009,174.94 C84.47000000000003,174.815 84.55999999999995,174.753 84.67000000000007,174.753 L84.70000000000005,174.753 C84.82999999999993,174.763 84.91000000000008,174.826 84.97000000000003,174.94 L82.50999999999999,183.346 C82.38000000000011,183.482 82.19000000000005,183.55 81.96000000000004,183.55 C81.72000000000003,183.55 81.54999999999995,183.482 81.42000000000007,183.346 L83.75999999999999,176.815 C82.93000000000006,177.117 82.23000000000002,177.268 81.65000000000009,177.268 C81.19000000000005,177.268 80.77999999999997,177.117 80.44000000000005,176.815 C80.07999999999993,176.534 79.90000000000009,176.159 79.90000000000009,175.69 C79.90000000000009,175.284 80.04999999999995,174.945 80.33999999999992,174.675 C80.61999999999989,174.383 80.97000000000003,174.237 81.36999999999989,174.237" />
<path d="M23.0,121.737 C23.36999999999989,121.737 23.660000000000082,121.841 23.8599999999999,122.05 C24.059999999999945,122.289 24.160000000000082,122.513 24.170000000000073,122.721 C24.200000000000045,122.919 24.269999999999982,123.138 24.36999999999989,123.378 C24.49000000000001,123.586 24.63000000000011,123.69 24.809999999999945,123.69 C24.960000000000036,123.69 25.180000000000064,123.529 25.470000000000027,123.206 C25.730000000000018,122.925 25.920000000000073,122.669 26.029999999999973,122.44 C26.089999999999918,122.315 26.180000000000064,122.253 26.299999999999955,122.253 L26.329999999999927,122.253 C26.450000000000045,122.263 26.539999999999964,122.326 26.589999999999918,122.44 L24.1400000000001,130.846 C24.0,130.982 23.819999999999936,131.05 23.579999999999927,131.05 C23.34999999999991,131.05 23.170000000000073,130.982 23.049999999999955,130.846 L25.3900000000001,124.315 C24.559999999999945,124.617 23.84999999999991,124.768 23.279999999999973,124.768 C22.809999999999945,124.768 22.40000000000009,124.617 22.059999999999945,124.315 C21.710000000000036,124.034 21.529999999999973,123.659 21.529999999999973,123.19 C21.529999999999973,122.784 21.680000000000064,122.445 21.970000000000027,122.175 C22.25,121.883 22.589999999999918,121.737 23.0,121.737" />
<path d="M23.0,69.2371 C23.36999999999989,69.2371 23.660000000000082,69.3412 23.8599999999999,69.5496 C24.059999999999945,69.7892 24.160000000000082,70.0131 24.170000000000073,70.2215 C24.200000000000045,70.4194 24.269999999999982,70.6381 24.36999999999989,70.8777 C24.49000000000001,71.086 24.63000000000011,71.1902 24.809999999999945,71.1902 C24.960000000000036,71.1902 25.180000000000064,71.0287 25.470000000000027,70.7058 C25.730000000000018,70.4246 25.920000000000073,70.1694 26.029999999999973,69.9402 C26.089999999999918,69.8152 26.180000000000064,69.7527 26.299999999999955,69.7527 L26.329999999999927,69.7527 C26.450000000000045,69.7631 26.539999999999964,69.8256 26.589999999999918,69.9402 L24.1400000000001,78.3465 C24.0,78.4819 23.819999999999936,78.5496 23.579999999999927,78.5496 C23.34999999999991,78.5496 23.170000000000073,78.4819 23.049999999999955,78.3465 L25.3900000000001,71.8152 C24.559999999999945,72.1173 23.84999999999991,72.2683 23.279999999999973,72.2683 C22.809999999999945,72.2683 22.40000000000009,72.1173 22.059999999999945,71.8152 C21.710000000000036,71.534 21.529999999999973,71.159 21.529999999999973,70.6902 C21.529999999999973,70.284 21.680000000000064,69.9454 21.970000000000027,69.6746 C22.25,69.3829 22.589999999999918,69.2371 23.0,69.2371" />
<path d="M168.24,219.596 L204.19000000000005,219.596 L204.19000000000005,222.096 L168.24,222.096 L168.24,219.596" />
<path d="M168.24,223.346 L186.53999999999996,223.346 L186.53999999999996,225.846 L168.24,225.846 L168.24,223.346" />
<path d="M162.30999999999995,124.596 L198.25,123.323 L198.25,125.823 L162.30999999999995,127.096 L162.30999999999995,124.596" />
<path d="M168.24,63.3695 L204.19000000000005,62.0965 L204.19000000000005,64.5965 L168.24,65.8695 L168.24,63.3695" />
<path d="M121.20000000000005,219.596 L145.3699999999999,219.596 L145.3699999999999,222.096 L121.20000000000005,222.096 L121.20000000000005,219.596" />
<path d="M121.20000000000005,223.346 L145.3699999999999,223.346 L145.3699999999999,225.846 L121.20000000000005,225.846 L121.20000000000005,223.346" />
<path d="M121.20000000000005,157.106 L204.19000000000005,155.846 L204.19000000000005,158.346 L121.20000000000005,159.606 L121.20000000000005,157.106" />
<path d="M79.97000000000003,124.596 L148.48000000000002,123.334 L148.48000000000002,125.834 L79.97000000000003,127.096 L79.97000000000003,124.596" />
<path d="M79.97000000000003,120.846 L98.26999999999998,120.509 L98.26999999999998,123.009 L79.97000000000003,123.346 L79.97000000000003,120.846" />
<path d="M115.25999999999999,120.196 L148.48000000000002,119.584 L148.48000000000002,122.084 L115.25999999999999,122.696 L115.25999999999999,120.196" />
<path d="M85.90000000000009,53.3465 L154.41000000000008,53.3465 L154.41000000000008,55.8465 L85.90000000000009,55.8465 L85.90000000000009,53.3465" />
<path d="M85.90000000000009,57.0965 L104.20000000000005,57.0965 L104.20000000000005,59.5965 L85.90000000000009,59.5965 L85.90000000000009,57.0965" />
<path d="M121.20000000000005,57.0965 L154.41000000000008,57.0965 L154.41000000000008,59.5965 L121.20000000000005,59.5965 L121.20000000000005,57.0965" />
<path d="M44.67000000000007,129.596 L62.97000000000003,128.3 L62.97000000000003,130.8 L44.67000000000007,132.096 L44.67000000000007,129.596" />
<path d="M44.67000000000007,125.846 L62.97000000000003,124.55 L62.97000000000003,127.05 L44.67000000000007,128.346 L44.67000000000007,125.846" />
<path d="M50.59999999999991,73.3925 L68.90000000000009,72.0965 L68.90000000000009,74.5965 L50.59999999999991,75.8925 L50.59999999999991,73.3925" />
<path d="M50.59999999999991,77.1425 L68.90000000000009,75.8465 L68.90000000000009,78.3465 L50.59999999999991,79.6425 L50.59999999999991,77.1425" />
<path d="M80.58999999999992,236.846 C81.1099999999999,236.544 81.6099999999999,236.237 82.07999999999993,235.925 C82.57999999999993,235.57 83.01999999999998,235.216 83.40000000000009,234.862 C83.86999999999989,234.435 84.23000000000002,233.992 84.48000000000002,233.534 C84.74000000000001,233.044 84.86999999999989,232.56 84.86999999999989,232.081 C84.86999999999989,231.622 84.77999999999997,231.159 84.58999999999992,230.69 C84.46000000000004,230.867 84.02999999999997,231.284 83.32999999999993,231.94 C82.79999999999995,232.43 82.33999999999992,232.878 81.97000000000003,233.284 C81.61999999999989,233.649 81.30999999999995,234.107 81.02999999999997,234.659 C80.74000000000001,235.211 80.58999999999992,235.774 80.58999999999992,236.346 L80.58999999999992,236.846 M85.97000000000003,227.581 C85.97000000000003,228.362 85.72000000000003,229.138 85.22000000000003,229.909 C85.54999999999995,230.596 85.72000000000003,231.32 85.72000000000003,232.081 C85.72000000000003,232.716 85.53999999999996,233.357 85.19000000000005,234.003 C84.80999999999995,234.711 84.3900000000001,235.284 83.92000000000007,235.721 L82.3900000000001,237.206 C81.88000000000011,237.727 81.46000000000004,238.294 81.11999999999989,238.909 C80.76999999999998,239.534 80.58999999999992,240.18 80.58999999999992,240.846 L79.97000000000003,240.846 L79.97000000000003,230.846 L80.58999999999992,230.846 L80.58999999999992,232.346 C83.6099999999999,230.774 85.11999999999989,229.185 85.11999999999989,227.581 C85.11999999999989,227.227 85.02999999999997,226.815 84.8599999999999,226.346 C84.8599999999999,226.346 84.8599999999999,226.32 84.8599999999999,226.268 C84.8599999999999,226.164 84.8900000000001,226.06 84.97000000000003,225.956 C85.06999999999994,225.852 85.19000000000005,225.8 85.32999999999993,225.8 C85.45000000000005,225.8 85.56999999999994,225.878 85.67000000000007,226.034 C85.77999999999997,226.242 85.84999999999991,226.445 85.86999999999989,226.643 C85.88000000000011,226.737 85.8900000000001,226.857 85.90000000000009,227.003 L85.95000000000005,227.206 C85.96000000000004,227.3 85.97000000000003,227.425 85.97000000000003,227.581" />
<path d="M130.45000000000005,141.831 C132.03999999999996,141.57 132.82999999999993,141.018 132.82999999999993,140.175 C132.82999999999993,139.893 132.75,139.669 132.58999999999992,139.503 C132.43000000000006,139.336 132.21000000000004,139.253 131.94000000000005,139.253 C131.52999999999997,139.253 131.16000000000008,139.477 130.82999999999993,139.925 L130.67000000000007,139.878 C130.83999999999992,139.555 131.06999999999994,139.297 131.3499999999999,139.104 C131.6400000000001,138.912 131.96000000000004,138.815 132.30999999999995,138.815 C132.71000000000004,138.815 133.03999999999996,138.938 133.30999999999995,139.182 C133.56999999999994,139.427 133.70000000000005,139.737 133.70000000000005,140.112 C133.70000000000005,140.445 133.5999999999999,140.716 133.3800000000001,140.925 C133.16000000000008,141.133 132.75,141.357 132.1400000000001,141.596 L132.1400000000001,141.612 C132.78999999999996,141.914 133.1099999999999,142.414 133.1099999999999,143.112 C133.1099999999999,143.8 132.8499999999999,144.396 132.33999999999992,144.901 C131.81999999999994,145.406 131.1500000000001,145.659 130.30999999999995,145.659 C129.56999999999994,145.659 129.20000000000005,145.466 129.20000000000005,145.081 C129.20000000000005,144.82 129.3499999999999,144.69 129.6400000000001,144.69 C129.80999999999995,144.69 130.02999999999997,144.789 130.30999999999995,144.987 C130.57999999999993,145.185 130.80999999999995,145.284 131.0,145.284 C131.3599999999999,145.284 131.66000000000008,145.133 131.92000000000007,144.831 C132.18000000000006,144.529 132.30999999999995,144.133 132.30999999999995,143.643 C132.30999999999995,143.018 132.16000000000008,142.586 131.83999999999992,142.346 C131.51999999999998,142.107 131.05999999999995,141.987 130.45000000000005,141.987 L130.45000000000005,141.831" />
<path d="M136.3900000000001,46.5058 C137.97000000000003,46.2454 138.76,45.6933 138.76,44.8496 C138.76,44.5683 138.68000000000006,44.3444 138.51999999999998,44.1777 C138.3599999999999,44.011 138.1400000000001,43.9277 137.8699999999999,43.9277 C137.47000000000003,43.9277 137.0999999999999,44.1517 136.76,44.5996 L136.6099999999999,44.5527 C136.76999999999998,44.2298 137.0,43.972 137.28999999999996,43.7793 C137.56999999999994,43.5866 137.8900000000001,43.4902 138.25,43.4902 C138.6400000000001,43.4902 138.97000000000003,43.6126 139.24,43.8574 C139.5,44.1022 139.6400000000001,44.4121 139.6400000000001,44.7871 C139.6400000000001,45.1204 139.52999999999997,45.3912 139.30999999999995,45.5996 C139.08999999999992,45.8079 138.68000000000006,46.0319 138.06999999999994,46.2715 L138.06999999999994,46.2871 C138.72000000000003,46.5892 139.03999999999996,47.0892 139.03999999999996,47.7871 C139.03999999999996,48.4746 138.78999999999996,49.0709 138.26999999999998,49.5761 C137.75,50.0814 137.07999999999993,50.334 136.25,50.334 C135.51,50.334 135.1400000000001,50.1412 135.1400000000001,49.7558 C135.1400000000001,49.4954 135.27999999999997,49.3652 135.56999999999994,49.3652 C135.74,49.3652 135.96000000000004,49.4642 136.24,49.6621 C136.51,49.86 136.75,49.959 136.93000000000006,49.959 C137.28999999999996,49.959 137.5999999999999,49.8079 137.8599999999999,49.5058 C138.1199999999999,49.2037 138.25,48.8079 138.25,48.3183 C138.25,47.6933 138.08999999999992,47.261 137.76999999999998,47.0215 C137.45000000000005,46.7819 136.99,46.6621 136.3900000000001,46.6621 L136.3900000000001,46.5058" />
<polyline points="0.0,63.3465 221.48000000000002,63.3465" fill="none" stroke="#000000" stroke-width="0.40" />
<polyline points="0.0,68.3465 221.48000000000002,68.3465" fill="none" stroke="#000000" stroke-width="0.40" />
<polyline points="0.0,73.3465 221.48000000000002,73.3465" fill="none" stroke="#000000" stroke-width="0.40" />
<polyline points="0.0,78.3465 221.48000000000002,78.3465" fill="none" stroke="#000000" stroke-width="0.40" />
<polyline points="0.0,83.3465 221.48000000000002,83.3465" fill="none" stroke="#000000" stroke-width="0.40" />
<polyline points="0.0,115.846 221.48000000000002,115.846" fill="none" stroke="#000000" stroke-width="0.40" />
<polyline points="0.0,120.846 221.48000000000002,120.846" fill="none" stroke="#000000" stroke-width="0.40" />
<polyline points="0.0,125.846 221.48000000000002,125.846" fill="none" stroke="#000000" stroke-width="0.40" />
<polyline points="0.0,130.846 221.48000000000002,130.846" fill="none" stroke="#000000" stroke-width="0.40" />
<polyline points="0.0,135.846 221.48000000000002,135.846" fill="none" stroke="#000000" stroke-width="0.40" />
<polyline points="0.0,168.346 221.48000000000002,168.346" fill="none" stroke="#000000" stroke-width="0.40" />
<polyline points="0.0,173.346 221.48000000000002,173.346" fill="none" stroke="#000000" stroke-width="0.40" />
<polyline points="0.0,178.346 221.48000000000002,178.346" fill="none" stroke="#000000" stroke-width="0.40" />
<polyline points="0.0,183.346 221.48000000000002,183.346" fill="none" stroke="#000000" stroke-width="0.40" />
<polyline points="0.0,188.346 221.48000000000002,188.346" fill="none" stroke="#000000" stroke-width="0.40" />
<polyline points="0.0,220.846 221.48000000000002,220.846" fill="none" stroke="#000000" stroke-width="0.40" />
<polyline points="0.0,225.846 221.48000000000002,225.846" fill="none" stroke="#000000" stroke-width="0.40" />
<polyline points="0.0,230.846 221.48000000000002,230.846" fill="none" stroke="#000000" stroke-width="0.40" />
<polyline points="0.0,235.846 221.48000000000002,235.846" fill="none" stroke="#000000" stroke-width="0.40" />
<polyline points="0.0,240.846 221.48000000000002,240.846" fill="none" stroke="#000000" stroke-width="0.40" />
<polyline points="221.07999999999993,220.846 221.07999999999993,240.846" fill="" stroke="#000000" stroke-width="0.80" />
<polyline points="221.07999999999993,168.346 221.07999999999993,188.346" fill="" stroke="#000000" stroke-width="0.80" />
<polyline points="221.07999999999993,115.846 221.07999999999993,135.846" fill="" stroke="#000000" stroke-width="0.80" />
<polyline points="221.07999999999993,63.3465 221.07999999999993,83.3465" fill="" stroke="#000000" stroke-width="0.80" />
<polyline points="203.8599999999999,234.907 203.8599999999999,220.846" fill="" stroke="#000000" stroke-width="0.65" />
<polyline points="203.8599999999999,192.407 203.8599999999999,157.096" fill="" stroke="#000000" stroke-width="0.65" />
<polyline points="197.93000000000006,101.786 197.93000000000006,124.596" fill="" stroke="#000000" stroke-width="0.65" />
<polyline points="203.8599999999999,77.4074 203.8599999999999,63.3465" fill="" stroke="#000000" stroke-width="0.65" />
<polyline points="186.21000000000004,234.907 186.21000000000004,220.846" fill="" stroke="#000000" stroke-width="0.65" />
<polyline points="168.55999999999995,234.907 168.55999999999995,220.846" fill="" stroke="#000000" stroke-width="0.65" />
<polyline points="168.55999999999995,194.907 168.55999999999995,157.632" fill="" stroke="#000000" stroke-width="0.65" />
<polyline points="162.6300000000001,104.286 162.6300000000001,125.846" fill="" stroke="#000000" stroke-width="0.65" />
<polyline points="168.55999999999995,79.9074 168.55999999999995,64.5965" fill="" stroke="#000000" stroke-width="0.65" />
<polyline points="148.16000000000008,96.7855 148.16000000000008,124.596" fill="" stroke="#000000" stroke-width="0.65" />
<polyline points="154.08999999999992,72.4074 154.08999999999992,54.5965" fill="" stroke="#000000" stroke-width="0.65" />
<polyline points="145.03999999999996,234.907 145.03999999999996,220.846" fill="" stroke="#000000" stroke-width="0.65" />
<polyline points="130.05999999999995,94.2855 130.05999999999995,124.93" fill="" stroke="#000000" stroke-width="0.65" />
<polyline points="136.0,69.9074 136.0,54.5965" fill="" stroke="#000000" stroke-width="0.65" />
<polyline points="121.51999999999998,234.907 121.51999999999998,220.846" fill="" stroke="#000000" stroke-width="0.65" />
<polyline points="121.51999999999998,194.907 121.51999999999998,158.346" fill="" stroke="#000000" stroke-width="0.65" />
<polyline points="115.58999999999992,96.7855 115.58999999999992,125.196" fill="" stroke="#000000" stroke-width="0.65" />
<polyline points="121.51999999999998,72.4074 121.51999999999998,54.5965" fill="" stroke="#000000" stroke-width="0.65" />
<polyline points="97.94000000000005,101.786 97.94000000000005,125.521" fill="" stroke="#000000" stroke-width="0.65" />
<polyline points="103.86999999999989,77.4074 103.86999999999989,54.5965" fill="" stroke="#000000" stroke-width="0.65" />
<polyline points="80.28999999999996,224.286 80.28999999999996,240.846" fill="" stroke="#000000" stroke-width="0.65" />
<polyline points="80.28999999999996,104.286 80.28999999999996,125.846" fill="" stroke="#000000" stroke-width="0.65" />
<polyline points="86.22000000000003,79.9074 86.22000000000003,54.5965" fill="" stroke="#000000" stroke-width="0.65" />
<polyline points="62.6400000000001,111.786 62.6400000000001,129.596" fill="" stroke="#000000" stroke-width="0.65" />
<polyline points="68.57999999999993,87.4074 68.57999999999993,73.3465" fill="" stroke="#000000" stroke-width="0.65" />
<polyline points="44.99000000000001,114.286 44.99000000000001,130.846" fill="" stroke="#000000" stroke-width="0.65" />
<polyline points="50.930000000000064,89.9074 50.930000000000064,74.5965" fill="" stroke="#000000" stroke-width="0.65" />
<polyline points="196.0999999999999,193.346 205.69000000000005,193.346" fill="" stroke="#000000" stroke-width="0.80" />
<polyline points="196.0999999999999,100.846 205.69000000000005,100.846" fill="" stroke="#000000" stroke-width="0.80" />
<polyline points="196.0999999999999,105.846 205.69000000000005,105.846" fill="" stroke="#000000" stroke-width="0.80" />
<polyline points="196.0999999999999,110.846 205.69000000000005,110.846" fill="" stroke="#000000" stroke-width="0.80" />
<polyline points="160.80999999999995,193.346 170.3900000000001,193.346" fill="" stroke="#000000" stroke-width="0.80" />
<polyline points="160.80999999999995,105.846 170.3900000000001,105.846" fill="" stroke="#000000" stroke-width="0.80" />
<polyline points="160.80999999999995,110.846 170.3900000000001,110.846" fill="" stroke="#000000" stroke-width="0.80" />
<polyline points="146.32999999999993,95.8465 155.91000000000008,95.8465" fill="" stroke="#000000" stroke-width="0.80" />
<polyline points="146.32999999999993,100.846 155.91000000000008,100.846" fill="" stroke="#000000" stroke-width="0.80" />
<polyline points="146.32999999999993,105.846 155.91000000000008,105.846" fill="" stroke="#000000" stroke-width="0.80" />
<polyline points="146.32999999999993,110.846 155.91000000000008,110.846" fill="" stroke="#000000" stroke-width="0.80" />
<polyline points="128.24,95.8465 137.81999999999994,95.8465" fill="" stroke="#000000" stroke-width="0.80" />
<polyline points="128.24,100.846 137.81999999999994,100.846" fill="" stroke="#000000" stroke-width="0.80" />
<polyline points="128.24,105.846 137.81999999999994,105.846" fill="" stroke="#000000" stroke-width="0.80" />
<polyline points="128.24,110.846 137.81999999999994,110.846" fill="" stroke="#000000" stroke-width="0.80" />
<polyline points="113.75999999999999,193.346 123.34999999999991,193.346" fill="" stroke="#000000" stroke-width="0.80" />
<polyline points="113.75999999999999,95.8465 123.34999999999991,95.8465" fill="" stroke="#000000" stroke-width="0.80" />
<polyline points="113.75999999999999,100.846 123.34999999999991,100.846" fill="" stroke="#000000" stroke-width="0.80" />
<polyline points="113.75999999999999,105.846 123.34999999999991,105.846" fill="" stroke="#000000" stroke-width="0.80" />
<polyline points="113.75999999999999,110.846 123.34999999999991,110.846" fill="" stroke="#000000" stroke-width="0.80" />
<polyline points="96.11999999999989,100.846 105.70000000000005,100.846" fill="" stroke="#000000" stroke-width="0.80" />
<polyline points="96.11999999999989,105.846 105.70000000000005,105.846" fill="" stroke="#000000" stroke-width="0.80" />
<polyline points="96.11999999999989,110.846 105.70000000000005,110.846" fill="" stroke="#000000" stroke-width="0.80" />
<polyline points="78.47000000000003,105.846 88.04999999999995,105.846" fill="" stroke="#000000" stroke-width="0.80" />
<polyline points="78.47000000000003,110.846 88.04999999999995,110.846" fill="" stroke="#000000" stroke-width="0.80" />
<polyline points="60.819999999999936,110.846 70.40000000000009,110.846" fill="" stroke="#000000" stroke-width="0.80" />
<polyline points="60.819999999999936,88.3465 70.40000000000009,88.3465" fill="" stroke="#000000" stroke-width="0.80" />
<polyline points="43.17000000000007,88.3465 52.75,88.3465" fill="" stroke="#000000" stroke-width="0.80" />
<polyline points="87.79999999999995,80.2032 96.45000000000005,80.2032" fill="none" stroke="#000000" stroke-width="0.75" />
</svg>
