<?xml version="1.0" encoding="UTF-8" standalone="yes"?>
<svg width="256.0px" height="256.0px" xmlns="http://www.w3.org/2000/svg" xmlns:xlink="http://www.w3.org/1999/xlink" version="1.2" baseProfile="tiny">
<path d="M23.729999999999563,24.635999999999967 C23.61999999999989,24.635999999999967 23.43000000000029,24.692999999999984 23.149999999999636,24.807999999999993 L23.149999999999636,24.69799999999998 L24.56999999999971,23.964000000000055 L24.640000000000327,23.979000000000042 L24.640000000000327,28.775999999999954 C24.640000000000327,28.974000000000046 24.68000000000029,29.101999999999975 24.779999999999745,29.158999999999992 C24.88000000000011,29.216000000000008 25.090000000000146,29.245000000000005 25.399999999999636,29.245000000000005 L25.399999999999636,29.370000000000005 L23.199999999999818,29.370000000000005 L23.199999999999818,29.245000000000005 C23.5,29.235000000000014 23.699999999999818,29.190000000000055 23.8100000000004,29.111999999999966 C23.909999999999854,29.033999999999992 23.960000000000036,28.870000000000005 23.960000000000036,28.620000000000005 L23.960000000000036,25.010999999999967 C23.960000000000036,24.760999999999967 23.890000000000327,24.635999999999967 23.729999999999563,24.635999999999967 M26.890000000000327,28.729000000000042 C27.01000000000022,28.729000000000042 27.199999999999818,28.80499999999995 27.4399999999996,28.956000000000017 C27.68000000000029,29.10699999999997 27.899999999999636,29.182999999999993 28.06999999999971,29.182999999999993 C28.359999999999673,29.182999999999993 28.609999999999673,29.067999999999984 28.8100000000004,28.839000000000055 C29.020000000000437,28.610000000000014 29.11999999999989,28.327999999999975 29.11999999999989,27.995000000000005 C29.11999999999989,27.787000000000035 29.090000000000146,27.604000000000042 29.029999999999745,27.44799999999998 C28.979999999999563,27.29200000000003 28.890000000000327,27.16999999999996 28.779999999999745,27.081000000000017 C28.670000000000073,26.991999999999962 28.539999999999964,26.91999999999996 28.390000000000327,26.861999999999966 C28.23999999999978,26.80499999999995 28.100000000000364,26.769000000000005 27.960000000000036,26.753000000000043 C27.829999999999927,26.736999999999966 27.68000000000029,26.729000000000042 27.529999999999745,26.729000000000042 L27.529999999999745,26.620000000000005 C27.699999999999818,26.557999999999993 27.859999999999673,26.498000000000047 27.98999999999978,26.440000000000055 C28.11999999999989,26.383000000000038 28.26000000000022,26.30200000000002 28.399999999999636,26.19799999999998 C28.550000000000182,26.09400000000005 28.659999999999854,25.966000000000008 28.73999999999978,25.815000000000055 C28.8100000000004,25.663999999999987 28.850000000000364,25.495000000000005 28.850000000000364,25.307999999999993 C28.850000000000364,25.047000000000025 28.770000000000437,24.839000000000055 28.609999999999673,24.682999999999993 C28.449999999999818,24.525999999999954 28.23999999999978,24.44799999999998 27.979999999999563,24.44799999999998 C27.720000000000255,24.44799999999998 27.48999999999978,24.515999999999963 27.3100000000004,24.650999999999954 C27.11999999999989,24.787000000000035 26.9399999999996,25.0 26.779999999999745,25.29200000000003 L26.670000000000073,25.260999999999967 C26.800000000000182,24.885999999999967 26.98999999999978,24.576000000000022 27.220000000000255,24.331000000000017 C27.460000000000036,24.086000000000013 27.789999999999964,23.964000000000055 28.229999999999563,23.964000000000055 C28.600000000000364,23.964000000000055 28.909999999999854,24.065000000000055 29.140000000000327,24.269000000000005 C29.359999999999673,24.47199999999998 29.479999999999563,24.735000000000014 29.479999999999563,25.057999999999993 C29.479999999999563,25.275999999999954 29.420000000000073,25.46900000000005 29.3100000000004,25.635999999999967 C29.1899999999996,25.80200000000002 29.0,25.979000000000042 28.729999999999563,26.16700000000003 C29.039999999999964,26.30200000000002 29.289999999999964,26.476999999999975 29.470000000000255,26.690000000000055 C29.649999999999636,26.903999999999996 29.73999999999978,27.214000000000055 29.73999999999978,27.620000000000005 C29.73999999999978,28.182999999999993 29.529999999999745,28.633000000000038 29.100000000000364,28.97199999999998 C28.659999999999854,29.309999999999945 28.13000000000011,29.479000000000042 27.48999999999978,29.479000000000042 C27.210000000000036,29.479000000000042 26.98999999999978,29.437999999999988 26.829999999999927,29.354000000000042 C26.670000000000073,29.270999999999958 26.590000000000146,29.15700000000004 26.590000000000146,29.010999999999967 C26.590000000000146,28.92700000000002 26.61999999999989,28.860000000000014 26.670000000000073,28.807999999999993 C26.729999999999563,28.754999999999995 26.800000000000182,28.729000000000042 26.890000000000327,28.729000000000042" />
<path d="M88.39999999999964,24.635999999999967 C88.28999999999996,24.635999999999967 88.10000000000036,24.692999999999984 87.81999999999971,24.807999999999993 L87.81999999999971,24.69799999999998 L89.23999999999978,23.964000000000055 L89.30000000000018,23.979000000000042 L89.30000000000018,28.775999999999954 C89.30000000000018,28.974000000000046 89.35000000000036,29.101999999999975 89.44999999999982,29.158999999999992 C89.55000000000018,29.216000000000008 89.75,29.245000000000005 90.06999999999971,29.245000000000005 L90.06999999999971,29.370000000000005 L87.85999999999967,29.370000000000005 L87.85999999999967,29.245000000000005 C88.17000000000007,29.235000000000014 88.36999999999989,29.190000000000055 88.47000000000025,29.111999999999966 C88.57999999999993,29.033999999999992 88.63000000000011,28.870000000000005 88.63000000000011,28.620000000000005 L88.63000000000011,25.010999999999967 C88.63000000000011,24.760999999999967 88.55000000000018,24.635999999999967 88.39999999999964,24.635999999999967 M94.6899999999996,27.557999999999993 L94.6899999999996,28.04200000000003 L93.85999999999967,28.04200000000003 L93.85999999999967,29.370000000000005 L93.25,29.370000000000005 L93.25,28.04200000000003 L91.0,28.04200000000003 L91.0,27.557999999999993 L93.52000000000044,23.995000000000005 L93.85999999999967,23.995000000000005 L93.85999999999967,27.557999999999993 L94.6899999999996,27.557999999999993 M93.23999999999978,27.557999999999993 L93.23999999999978,24.807999999999993 L91.32999999999993,27.557999999999993 L93.23999999999978,27.557999999999993" />
</svg>
