<?xml version="1.0" encoding="UTF-8" standalone="yes"?>
<svg width="256.0px" height="256.0px" xmlns="http://www.w3.org/2000/svg" xmlns:xlink="http://www.w3.org/1999/xlink" version="1.2" baseProfile="tiny">
<path d="M228.70000000000073,5.081000000000017 C228.70000000000073,5.331000000000017 228.5,5.456000000000017 228.29999999999927,5.456000000000017 C228.0,5.456000000000017 227.90000000000146,5.331000000000017 227.90000000000146,5.081000000000017 L227.90000000000146,2.1900000000000546 L226.29999999999927,2.8150000000000546 L226.29999999999927,5.971000000000004 C226.29999999999927,6.221000000000004 226.09999999999854,6.346000000000004 225.90000000000146,6.346000000000004 C225.59999999999854,6.346000000000004 225.5,6.221000000000004 225.5,5.971000000000004 L225.5,3.0650000000000546 L224.90000000000146,3.2999999999999545 C224.90000000000146,3.3099999999999454 224.79999999999927,3.3150000000000546 224.70000000000073,3.3150000000000546 C224.59999999999854,3.3150000000000546 224.5,3.2759999999999536 224.5,3.197999999999979 C224.40000000000146,3.1200000000000045 224.29999999999927,3.0289999999999964 224.29999999999927,2.9249999999999545 L224.29999999999927,1.7210000000000036 C224.29999999999927,1.524000000000001 224.40000000000146,1.399000000000001 224.59999999999854,1.3460000000000036 L225.5,1.0339999999999918 L225.5,-2.1689999999999827 L224.90000000000146,-1.9499999999999886 C224.90000000000146,-1.9399999999999977 224.79999999999927,-1.9350000000000023 224.70000000000073,-1.9350000000000023 C224.59999999999854,-1.9350000000000023 224.5,-1.9739999999999895 224.5,-2.052000000000021 C224.40000000000146,-2.1299999999999955 224.29999999999927,-2.2210000000000036 224.29999999999927,-2.3249999999999886 L224.29999999999927,-3.5439999999999827 C224.29999999999927,-3.7210000000000036 224.40000000000146,-3.8360000000000127 224.59999999999854,-3.887999999999977 L225.5,-4.247000000000014 L225.5,-7.387999999999977 C225.5,-7.637999999999977 225.59999999999854,-7.762999999999977 225.90000000000146,-7.762999999999977 C226.09999999999854,-7.762999999999977 226.29999999999927,-7.637999999999977 226.29999999999927,-7.387999999999977 L226.29999999999927,-4.497000000000014 L227.90000000000146,-5.122000000000014 L227.90000000000146,-8.278999999999996 C227.90000000000146,-8.528999999999996 228.0,-8.653999999999996 228.29999999999927,-8.653999999999996 C228.5,-8.653999999999996 228.70000000000073,-8.528999999999996 228.70000000000073,-8.278999999999996 L228.70000000000073,-5.372000000000014 L229.29999999999927,-5.607000000000028 C229.29999999999927,-5.617000000000019 229.40000000000146,-5.622000000000014 229.40000000000146,-5.622000000000014 C229.5,-5.622000000000014 229.59999999999854,-5.586000000000013 229.70000000000073,-5.512999999999977 C229.79999999999927,-5.430000000000007 229.90000000000146,-5.336000000000013 229.90000000000146,-5.232000000000028 L229.90000000000146,-4.028999999999996 C229.90000000000146,-3.841000000000008 229.79999999999927,-3.716000000000008 229.59999999999854,-3.6539999999999964 L228.70000000000073,-3.341000000000008 L228.70000000000073,-0.1379999999999768 L229.29999999999927,-0.35700000000002774 C229.29999999999927,-0.36700000000001864 229.40000000000146,-0.3720000000000141 229.40000000000146,-0.3720000000000141 C229.5,-0.3720000000000141 229.59999999999854,-0.3310000000000173 229.70000000000073,-0.2470000000000141 C229.79999999999927,-0.17399999999997817 229.90000000000146,-0.08600000000001273 229.90000000000146,0.018000000000029104 L229.90000000000146,1.2369999999999663 C229.90000000000146,1.4039999999999964 229.79999999999927,1.518000000000029 229.59999999999854,1.5810000000000173 L228.70000000000073,1.9400000000000546 L228.70000000000073,5.081000000000017 M227.90000000000146,-3.0439999999999827 L226.29999999999927,-2.466000000000008 L226.29999999999927,0.7369999999999663 L227.90000000000146,0.15899999999999181 L227.90000000000146,-3.0439999999999827" />
<path d="M165.59999999999854,5.081000000000017 C165.59999999999854,5.331000000000017 165.5,5.456000000000017 165.20000000000073,5.456000000000017 C165.0,5.456000000000017 164.90000000000146,5.331000000000017 164.90000000000146,5.081000000000017 L164.90000000000146,2.1900000000000546 L163.20000000000073,2.8150000000000546 L163.20000000000073,5.971000000000004 C163.20000000000073,6.221000000000004 163.09999999999854,6.346000000000004 162.79999999999927,6.346000000000004 C162.59999999999854,6.346000000000004 162.5,6.221000000000004 162.5,5.971000000000004 L162.5,3.0650000000000546 L161.79999999999927,3.2999999999999545 C161.79999999999927,3.3099999999999454 161.79999999999927,3.3150000000000546 161.70000000000073,3.3150000000000546 C161.59999999999854,3.3150000000000546 161.5,3.2759999999999536 161.40000000000146,3.197999999999979 C161.29999999999927,3.1200000000000045 161.29999999999927,3.0289999999999964 161.29999999999927,2.9249999999999545 L161.29999999999927,1.7210000000000036 C161.29999999999927,1.524000000000001 161.40000000000146,1.399000000000001 161.5,1.3460000000000036 L162.5,1.0339999999999918 L162.5,-2.1689999999999827 L161.79999999999927,-1.9499999999999886 C161.79999999999927,-1.9399999999999977 161.79999999999927,-1.9350000000000023 161.70000000000073,-1.9350000000000023 C161.59999999999854,-1.9350000000000023 161.5,-1.9739999999999895 161.40000000000146,-2.052000000000021 C161.29999999999927,-2.1299999999999955 161.29999999999927,-2.2210000000000036 161.29999999999927,-2.3249999999999886 L161.29999999999927,-3.5439999999999827 C161.29999999999927,-3.7210000000000036 161.40000000000146,-3.8360000000000127 161.5,-3.887999999999977 L162.5,-4.247000000000014 L162.5,-7.387999999999977 C162.5,-7.637999999999977 162.59999999999854,-7.762999999999977 162.79999999999927,-7.762999999999977 C163.09999999999854,-7.762999999999977 163.20000000000073,-7.637999999999977 163.20000000000073,-7.387999999999977 L163.20000000000073,-4.497000000000014 L164.90000000000146,-5.122000000000014 L164.90000000000146,-8.278999999999996 C164.90000000000146,-8.528999999999996 165.0,-8.653999999999996 165.20000000000073,-8.653999999999996 C165.5,-8.653999999999996 165.59999999999854,-8.528999999999996 165.59999999999854,-8.278999999999996 L165.59999999999854,-5.372000000000014 L166.29999999999927,-5.607000000000028 C166.29999999999927,-5.617000000000019 166.29999999999927,-5.622000000000014 166.40000000000146,-5.622000000000014 C166.5,-5.622000000000014 166.59999999999854,-5.586000000000013 166.70000000000073,-5.512999999999977 C166.79999999999927,-5.430000000000007 166.79999999999927,-5.336000000000013 166.79999999999927,-5.232000000000028 L166.79999999999927,-4.028999999999996 C166.79999999999927,-3.841000000000008 166.70000000000073,-3.716000000000008 166.5,-3.6539999999999964 L165.59999999999854,-3.341000000000008 L165.59999999999854,-0.1379999999999768 L166.29999999999927,-0.35700000000002774 C166.29999999999927,-0.36700000000001864 166.29999999999927,-0.3720000000000141 166.40000000000146,-0.3720000000000141 C166.5,-0.3720000000000141 166.59999999999854,-0.3310000000000173 166.70000000000073,-0.2470000000000141 C166.79999999999927,-0.17399999999997817 166.79999999999927,-0.08600000000001273 166.79999999999927,0.018000000000029104 L166.79999999999927,1.2369999999999663 C166.79999999999927,1.4039999999999964 166.70000000000073,1.518000000000029 166.5,1.5810000000000173 L165.59999999999854,1.9400000000000546 L165.59999999999854,5.081000000000017 M164.90000000000146,-3.0439999999999827 L163.20000000000073,-2.466000000000008 L163.20000000000073,0.7369999999999663 L164.90000000000146,0.15899999999999181 L164.90000000000146,-3.0439999999999827" />
<path d="M165.59999999999854,0.08100000000001728 C165.59999999999854,0.3310000000000173 165.5,0.4560000000000173 165.20000000000073,0.4560000000000173 C165.0,0.4560000000000173 164.90000000000146,0.3310000000000173 164.90000000000146,0.08100000000001728 L164.90000000000146,-2.8100000000000023 L163.20000000000073,-2.1850000000000023 L163.20000000000073,0.9710000000000036 C163.20000000000073,1.2210000000000036 163.09999999999854,1.3460000000000036 162.79999999999927,1.3460000000000036 C162.59999999999854,1.3460000000000036 162.5,1.2210000000000036 162.5,0.9710000000000036 L162.5,-1.9350000000000023 L161.79999999999927,-1.6999999999999886 C161.79999999999927,-1.6899999999999977 161.79999999999927,-1.6850000000000023 161.70000000000073,-1.6850000000000023 C161.59999999999854,-1.6850000000000023 161.5,-1.7239999999999895 161.40000000000146,-1.802000000000021 C161.29999999999927,-1.8799999999999955 161.29999999999927,-1.9710000000000036 161.29999999999927,-2.0749999999999886 L161.29999999999927,-3.2789999999999964 C161.29999999999927,-3.475999999999999 161.40000000000146,-3.600999999999999 161.5,-3.6539999999999964 L162.5,-3.966000000000008 L162.5,-7.168999999999983 L161.79999999999927,-6.949999999999989 C161.79999999999927,-6.939999999999998 161.79999999999927,-6.935000000000002 161.70000000000073,-6.935000000000002 C161.59999999999854,-6.935000000000002 161.5,-6.9739999999999895 161.40000000000146,-7.052000000000021 C161.29999999999927,-7.1299999999999955 161.29999999999927,-7.221000000000004 161.29999999999927,-7.324999999999989 L161.29999999999927,-8.543999999999983 C161.29999999999927,-8.721000000000004 161.40000000000146,-8.836000000000013 161.5,-8.887999999999977 L162.5,-9.247000000000014 L162.5,-12.387999999999977 C162.5,-12.637999999999977 162.59999999999854,-12.762999999999977 162.79999999999927,-12.762999999999977 C163.09999999999854,-12.762999999999977 163.20000000000073,-12.637999999999977 163.20000000000073,-12.387999999999977 L163.20000000000073,-9.497000000000014 L164.90000000000146,-10.122000000000014 L164.90000000000146,-13.278999999999996 C164.90000000000146,-13.528999999999996 165.0,-13.653999999999996 165.20000000000073,-13.653999999999996 C165.5,-13.653999999999996 165.59999999999854,-13.528999999999996 165.59999999999854,-13.278999999999996 L165.59999999999854,-10.372000000000014 L166.29999999999927,-10.607000000000028 C166.29999999999927,-10.617000000000019 166.29999999999927,-10.622000000000014 166.40000000000146,-10.622000000000014 C166.5,-10.622000000000014 166.59999999999854,-10.586000000000013 166.70000000000073,-10.512999999999977 C166.79999999999927,-10.430000000000007 166.79999999999927,-10.336000000000013 166.79999999999927,-10.232000000000028 L166.79999999999927,-9.028999999999996 C166.79999999999927,-8.841000000000008 166.70000000000073,-8.716000000000008 166.5,-8.653999999999996 L165.59999999999854,-8.341000000000008 L165.59999999999854,-5.137999999999977 L166.29999999999927,-5.357000000000028 C166.29999999999927,-5.367000000000019 166.29999999999927,-5.372000000000014 166.40000000000146,-5.372000000000014 C166.5,-5.372000000000014 166.59999999999854,-5.331000000000017 166.70000000000073,-5.247000000000014 C166.79999999999927,-5.173999999999978 166.79999999999927,-5.086000000000013 166.79999999999927,-4.982000000000028 L166.79999999999927,-3.762999999999977 C166.79999999999927,-3.5960000000000036 166.70000000000073,-3.4820000000000277 166.5,-3.4189999999999827 L165.59999999999854,-3.0600000000000023 L165.59999999999854,0.08100000000001728 M164.90000000000146,-8.043999999999983 L163.20000000000073,-7.466000000000008 L163.20000000000073,-4.262999999999977 L164.90000000000146,-4.841000000000008 L164.90000000000146,-8.043999999999983" />
<path d="M100.20000000000073,3.018000000000029 L100.20000000000073,4.565000000000055 C100.20000000000073,5.116999999999962 100.29999999999927,5.55499999999995 100.29999999999927,5.878000000000043 C100.70000000000073,5.513000000000034 101.0,5.241999999999962 101.20000000000073,5.065000000000055 C101.40000000000146,4.856999999999971 101.59999999999854,4.567999999999984 101.90000000000146,4.197999999999979 C102.09999999999854,3.8279999999999745 102.20000000000073,3.4610000000000127 102.20000000000073,3.0960000000000036 C102.20000000000073,2.731999999999971 102.09999999999854,2.4189999999999827 101.90000000000146,2.158999999999992 C101.79999999999927,1.899000000000001 101.59999999999854,1.768000000000029 101.29999999999927,1.768000000000029 C101.0,1.768000000000029 100.70000000000073,1.8880000000000337 100.5,2.1280000000000427 C100.29999999999927,2.3880000000000337 100.20000000000073,2.6849999999999454 100.20000000000073,3.018000000000029 M99.40000000000146,6.596000000000004 L99.20000000000073,-5.293999999999983 C99.29999999999927,-5.398000000000025 99.5,-5.449999999999989 99.70000000000073,-5.449999999999989 C99.90000000000146,-5.449999999999989 100.09999999999854,-5.398000000000025 100.20000000000073,-5.293999999999983 L100.09999999999854,1.5960000000000036 C100.59999999999854,1.1380000000000337 101.20000000000073,0.9089999999999918 101.90000000000146,0.9089999999999918 C102.40000000000146,0.9089999999999918 102.90000000000146,1.1169999999999618 103.20000000000073,1.5339999999999918 C103.5,1.9510000000000218 103.70000000000073,2.42999999999995 103.70000000000073,2.9710000000000036 C103.70000000000073,3.30499999999995 103.59999999999854,3.6639999999999873 103.40000000000146,4.0499999999999545 C103.20000000000073,4.393000000000029 102.90000000000146,4.663999999999987 102.70000000000073,4.861999999999966 C102.59999999999854,4.966000000000008 102.20000000000073,5.226999999999975 101.70000000000073,5.643000000000029 C101.59999999999854,5.758000000000038 101.40000000000146,5.893000000000029 101.20000000000073,6.0499999999999545 C100.90000000000146,6.206000000000017 100.79999999999927,6.30499999999995 100.79999999999927,6.346000000000004 C100.70000000000073,6.399000000000001 100.59999999999854,6.503000000000043 100.5,6.658999999999992 C100.40000000000146,6.793999999999983 100.29999999999927,6.903999999999996 100.20000000000073,6.986999999999966 C100.09999999999854,7.07000000000005 100.0,7.111999999999966 99.90000000000146,7.111999999999966 C99.70000000000073,7.111999999999966 99.59999999999854,7.065000000000055 99.5,6.971000000000004 C99.40000000000146,6.878000000000043 99.40000000000146,6.753000000000043 99.40000000000146,6.596000000000004" />
<path d="M238.20000000000073,61.096000000000004 C238.40000000000146,61.096000000000004 238.59999999999854,61.17999999999995 238.70000000000073,61.346000000000004 C238.90000000000146,61.524 238.90000000000146,61.70100000000002 238.90000000000146,61.87800000000004 C238.90000000000146,62.15899999999999 238.70000000000073,62.513000000000034 238.20000000000073,62.940000000000055 C237.59999999999854,63.399 237.29999999999927,63.721000000000004 237.20000000000073,63.90899999999999 C237.09999999999854,64.05499999999995 237.0,64.38800000000003 236.79999999999927,64.90899999999999 C236.5,65.44000000000005 236.29999999999927,65.85699999999997 236.09999999999854,66.15899999999999 C235.79999999999927,66.44000000000005 235.5,66.58100000000002 235.09999999999854,66.58100000000002 C235.0,66.58100000000002 234.79999999999927,66.54399999999998 234.40000000000146,66.471 C234.09999999999854,66.38800000000003 233.90000000000146,66.346 233.70000000000073,66.346 C233.59999999999854,66.346 233.29999999999927,66.38800000000003 233.0,66.471 C232.70000000000073,66.55499999999995 232.40000000000146,66.596 232.29999999999927,66.596 C232.09999999999854,66.596 231.90000000000146,66.51300000000003 231.70000000000073,66.346 C231.59999999999854,66.149 231.59999999999854,65.971 231.59999999999854,65.81500000000005 C231.59999999999854,65.53399999999999 231.79999999999927,65.17999999999995 232.29999999999927,64.75300000000004 C232.90000000000146,64.29399999999998 233.20000000000073,63.971000000000004 233.29999999999927,63.78399999999999 C233.29999999999927,63.690000000000055 233.5,63.351999999999975 233.70000000000073,62.76800000000003 C233.90000000000146,62.236999999999966 234.20000000000073,61.82600000000002 234.40000000000146,61.53399999999999 C234.70000000000073,61.25300000000004 235.0,61.111999999999966 235.29999999999927,61.111999999999966 C235.5,61.111999999999966 235.70000000000073,61.149 236.0,61.221000000000004 C236.40000000000146,61.30499999999995 236.59999999999854,61.346000000000004 236.79999999999927,61.346000000000004 C236.90000000000146,61.346000000000004 237.20000000000073,61.30499999999995 237.5,61.221000000000004 C237.79999999999927,61.138000000000034 238.0,61.096000000000004 238.20000000000073,61.096000000000004" />
<path d="M235.90000000000146,71.096 C236.59999999999854,71.096 237.09999999999854,71.25800000000004 237.5,71.58100000000002 C237.90000000000146,71.93499999999995 238.09999999999854,72.37800000000004 238.09999999999854,72.90899999999999 C238.09999999999854,73.80499999999995 237.70000000000073,74.64300000000003 236.79999999999927,75.42499999999995 C235.79999999999927,76.20600000000002 234.79999999999927,76.596 233.70000000000073,76.596 C233.09999999999854,76.596 232.59999999999854,76.43499999999995 232.20000000000073,76.11199999999997 C231.79999999999927,75.75800000000004 231.59999999999854,75.31500000000005 231.59999999999854,74.78399999999999 C231.59999999999854,73.88800000000003 232.0,73.04999999999995 233.0,72.26800000000003 C233.90000000000146,71.48699999999997 234.90000000000146,71.096 235.90000000000146,71.096" />
<path d="M206.70000000000073,61.096000000000004 C206.90000000000146,61.096000000000004 207.09999999999854,61.17999999999995 207.20000000000073,61.346000000000004 C207.29999999999927,61.524 207.40000000000146,61.70100000000002 207.40000000000146,61.87800000000004 C207.40000000000146,62.15899999999999 207.20000000000073,62.513000000000034 206.59999999999854,62.940000000000055 C206.09999999999854,63.399 205.79999999999927,63.721000000000004 205.70000000000073,63.90899999999999 C205.59999999999854,64.05499999999995 205.5,64.38800000000003 205.20000000000073,64.90899999999999 C205.0,65.44000000000005 204.79999999999927,65.85699999999997 204.5,66.15899999999999 C204.29999999999927,66.44000000000005 204.0,66.58100000000002 203.59999999999854,66.58100000000002 C203.5,66.58100000000002 203.29999999999927,66.54399999999998 202.90000000000146,66.471 C202.59999999999854,66.38800000000003 202.29999999999927,66.346 202.20000000000073,66.346 C202.0,66.346 201.79999999999927,66.38800000000003 201.40000000000146,66.471 C201.09999999999854,66.55499999999995 200.90000000000146,66.596 200.79999999999927,66.596 C200.5,66.596 200.29999999999927,66.51300000000003 200.20000000000073,66.346 C200.09999999999854,66.149 200.0,65.971 200.0,65.81500000000005 C200.0,65.53399999999999 200.29999999999927,65.17999999999995 200.79999999999927,64.75300000000004 C201.29999999999927,64.29399999999998 201.59999999999854,63.971000000000004 201.70000000000073,63.78399999999999 C201.79999999999927,63.690000000000055 202.0,63.351999999999975 202.20000000000073,62.76800000000003 C202.40000000000146,62.236999999999966 202.70000000000073,61.82600000000002 202.90000000000146,61.53399999999999 C203.20000000000073,61.25300000000004 203.40000000000146,61.111999999999966 203.79999999999927,61.111999999999966 C203.90000000000146,61.111999999999966 204.20000000000073,61.149 204.5,61.221000000000004 C204.79999999999927,61.30499999999995 205.09999999999854,61.346000000000004 205.20000000000073,61.346000000000004 C205.40000000000146,61.346000000000004 205.59999999999854,61.30499999999995 206.0,61.221000000000004 C206.29999999999927,61.138000000000034 206.5,61.096000000000004 206.70000000000073,61.096000000000004" />
<path d="M204.40000000000146,71.096 C205.0,71.096 205.59999999999854,71.25800000000004 206.0,71.58100000000002 C206.40000000000146,71.93499999999995 206.59999999999854,72.37800000000004 206.59999999999854,72.90899999999999 C206.59999999999854,73.80499999999995 206.09999999999854,74.64300000000003 205.20000000000073,75.42499999999995 C204.29999999999927,76.20600000000002 203.29999999999927,76.596 202.20000000000073,76.596 C201.59999999999854,76.596 201.09999999999854,76.43499999999995 200.59999999999854,76.11199999999997 C200.20000000000073,75.75800000000004 200.0,75.31500000000005 200.0,74.78399999999999 C200.0,73.88800000000003 200.5,73.04999999999995 201.40000000000146,72.26800000000003 C202.29999999999927,71.48699999999997 203.29999999999927,71.096 204.40000000000146,71.096" />
<path d="M143.59999999999854,61.096000000000004 C143.79999999999927,61.096000000000004 144.0,61.17999999999995 144.20000000000073,61.346000000000004 C144.29999999999927,61.524 144.40000000000146,61.70100000000002 144.40000000000146,61.87800000000004 C144.40000000000146,62.15899999999999 144.09999999999854,62.513000000000034 143.59999999999854,62.940000000000055 C143.09999999999854,63.399 142.70000000000073,63.721000000000004 142.59999999999854,63.90899999999999 C142.59999999999854,64.05499999999995 142.40000000000146,64.38800000000003 142.20000000000073,64.90899999999999 C142.0,65.44000000000005 141.70000000000073,65.85699999999997 141.5,66.15899999999999 C141.20000000000073,66.44000000000005 140.90000000000146,66.58100000000002 140.59999999999854,66.58100000000002 C140.40000000000146,66.58100000000002 140.20000000000073,66.54399999999998 139.90000000000146,66.471 C139.5,66.38800000000003 139.29999999999927,66.346 139.09999999999854,66.346 C139.0,66.346 138.70000000000073,66.38800000000003 138.40000000000146,66.471 C138.09999999999854,66.55499999999995 137.90000000000146,66.596 137.70000000000073,66.596 C137.5,66.596 137.29999999999927,66.51300000000003 137.09999999999854,66.346 C137.0,66.149 137.0,65.971 137.0,65.81500000000005 C137.0,65.53399999999999 137.20000000000073,65.17999999999995 137.79999999999927,64.75300000000004 C138.29999999999927,64.29399999999998 138.59999999999854,63.971000000000004 138.70000000000073,63.78399999999999 C138.70000000000073,63.690000000000055 138.90000000000146,63.351999999999975 139.20000000000073,62.76800000000003 C139.40000000000146,62.236999999999966 139.59999999999854,61.82600000000002 139.90000000000146,61.53399999999999 C140.09999999999854,61.25300000000004 140.40000000000146,61.111999999999966 140.70000000000073,61.111999999999966 C140.90000000000146,61.111999999999966 141.09999999999854,61.149 141.40000000000146,61.221000000000004 C141.79999999999927,61.30499999999995 142.0,61.346000000000004 142.20000000000073,61.346000000000004 C142.29999999999927,61.346000000000004 142.59999999999854,61.30499999999995 142.90000000000146,61.221000000000004 C143.20000000000073,61.138000000000034 143.40000000000146,61.096000000000004 143.59999999999854,61.096000000000004" />
<path d="M141.40000000000146,71.096 C142.0,71.096 142.5,71.25800000000004 143.0,71.58100000000002 C143.29999999999927,71.93499999999995 143.5,72.37800000000004 143.5,72.90899999999999 C143.5,73.80499999999995 143.09999999999854,74.64300000000003 142.20000000000073,75.42499999999995 C141.20000000000073,76.20600000000002 140.20000000000073,76.596 139.20000000000073,76.596 C138.5,76.596 138.0,76.43499999999995 137.59999999999854,76.11199999999997 C137.20000000000073,75.75800000000004 137.0,75.31500000000005 137.0,74.78399999999999 C137.0,73.88800000000003 137.40000000000146,73.04999999999995 138.40000000000146,72.26800000000003 C139.29999999999927,71.48699999999997 140.29999999999927,71.096 141.40000000000146,71.096" />
<path d="M140.70000000000073,3.1280000000000427 L143.09999999999854,1.1749999999999545 C143.09999999999854,1.1219999999999573 143.20000000000073,1.0960000000000036 143.20000000000073,1.0960000000000036 C143.29999999999927,1.0960000000000036 143.40000000000146,1.1219999999999573 143.40000000000146,1.1749999999999545 L143.90000000000146,1.4869999999999663 C143.90000000000146,1.5499999999999545 143.90000000000146,1.6280000000000427 143.90000000000146,1.7210000000000036 C143.90000000000146,1.7839999999999918 143.90000000000146,1.8619999999999663 143.90000000000146,1.9560000000000173 L141.5,3.8460000000000036 L143.90000000000146,5.736999999999966 C143.90000000000146,5.809999999999945 143.90000000000146,5.890999999999963 143.90000000000146,5.979000000000042 C143.90000000000146,6.067999999999984 143.90000000000146,6.143000000000029 143.90000000000146,6.206000000000017 L143.40000000000146,6.518000000000029 C143.40000000000146,6.57000000000005 143.29999999999927,6.596000000000004 143.20000000000073,6.596000000000004 C143.20000000000073,6.596000000000004 143.09999999999854,6.57000000000005 143.09999999999854,6.518000000000029 L140.70000000000073,4.565000000000055 L138.20000000000073,6.518000000000029 C138.20000000000073,6.57000000000005 138.09999999999854,6.596000000000004 138.09999999999854,6.596000000000004 C138.0,6.596000000000004 137.90000000000146,6.57000000000005 137.90000000000146,6.518000000000029 L137.5,6.206000000000017 C137.40000000000146,6.143000000000029 137.40000000000146,6.065000000000055 137.40000000000146,5.971000000000004 C137.40000000000146,5.908999999999992 137.40000000000146,5.831000000000017 137.5,5.736999999999966 L139.79999999999927,3.8460000000000036 L137.5,1.9560000000000173 C137.40000000000146,1.8830000000000382 137.40000000000146,1.802000000000021 137.40000000000146,1.7140000000000555 C137.40000000000146,1.625 137.40000000000146,1.5499999999999545 137.5,1.4869999999999663 L137.90000000000146,1.1749999999999545 C137.90000000000146,1.1219999999999573 138.0,1.0960000000000036 138.09999999999854,1.0960000000000036 C138.09999999999854,1.0960000000000036 138.20000000000073,1.1219999999999573 138.20000000000073,1.1749999999999545 L140.70000000000073,3.1280000000000427" />
<path d="M112.09999999999854,61.096000000000004 C112.29999999999927,61.096000000000004 112.5,61.17999999999995 112.59999999999854,61.346000000000004 C112.79999999999927,61.524 112.79999999999927,61.70100000000002 112.79999999999927,61.87800000000004 C112.79999999999927,62.15899999999999 112.59999999999854,62.513000000000034 112.09999999999854,62.940000000000055 C111.5,63.399 111.20000000000073,63.721000000000004 111.09999999999854,63.90899999999999 C111.0,64.05499999999995 110.90000000000146,64.38800000000003 110.59999999999854,64.90899999999999 C110.40000000000146,65.44000000000005 110.20000000000073,65.85699999999997 109.90000000000146,66.15899999999999 C109.70000000000073,66.44000000000005 109.40000000000146,66.58100000000002 109.0,66.58100000000002 C108.90000000000146,66.58100000000002 108.70000000000073,66.54399999999998 108.29999999999927,66.471 C108.0,66.38800000000003 107.79999999999927,66.346 107.59999999999854,66.346 C107.40000000000146,66.346 107.20000000000073,66.38800000000003 106.90000000000146,66.471 C106.59999999999854,66.55499999999995 106.29999999999927,66.596 106.20000000000073,66.596 C105.90000000000146,66.596 105.70000000000073,66.51300000000003 105.59999999999854,66.346 C105.5,66.149 105.40000000000146,65.971 105.40000000000146,65.81500000000005 C105.40000000000146,65.53399999999999 105.70000000000073,65.17999999999995 106.20000000000073,64.75300000000004 C106.70000000000073,64.29399999999998 107.09999999999854,63.971000000000004 107.20000000000073,63.78399999999999 C107.20000000000073,63.690000000000055 107.40000000000146,63.351999999999975 107.59999999999854,62.76800000000003 C107.79999999999927,62.236999999999966 108.09999999999854,61.82600000000002 108.29999999999927,61.53399999999999 C108.59999999999854,61.25300000000004 108.90000000000146,61.111999999999966 109.20000000000073,61.111999999999966 C109.40000000000146,61.111999999999966 109.59999999999854,61.149 109.90000000000146,61.221000000000004 C110.20000000000073,61.30499999999995 110.5,61.346000000000004 110.70000000000073,61.346000000000004 C110.79999999999927,61.346000000000004 111.0,61.30499999999995 111.40000000000146,61.221000000000004 C111.70000000000073,61.138000000000034 111.90000000000146,61.096000000000004 112.09999999999854,61.096000000000004" />
<path d="M109.79999999999927,71.096 C110.5,71.096 111.0,71.25800000000004 111.40000000000146,71.58100000000002 C111.79999999999927,71.93499999999995 112.0,72.37800000000004 112.0,72.90899999999999 C112.0,73.80499999999995 111.59999999999854,74.64300000000003 110.59999999999854,75.42499999999995 C109.70000000000073,76.20600000000002 108.70000000000073,76.596 107.59999999999854,76.596 C107.0,76.596 106.5,76.43499999999995 106.09999999999854,76.11199999999997 C105.59999999999854,75.75800000000004 105.40000000000146,75.31500000000005 105.40000000000146,74.78399999999999 C105.40000000000146,73.88800000000003 105.90000000000146,73.04999999999995 106.79999999999927,72.26800000000003 C107.79999999999927,71.48699999999997 108.79999999999927,71.096 109.79999999999927,71.096" />
<path d="M109.09999999999854,3.1280000000000427 L111.5,1.1749999999999545 C111.59999999999854,1.1219999999999573 111.70000000000073,1.0960000000000036 111.70000000000073,1.0960000000000036 C111.79999999999927,1.0960000000000036 111.90000000000146,1.1219999999999573 111.90000000000146,1.1749999999999545 L112.29999999999927,1.4869999999999663 C112.40000000000146,1.5499999999999545 112.40000000000146,1.6280000000000427 112.40000000000146,1.7210000000000036 C112.40000000000146,1.7839999999999918 112.40000000000146,1.8619999999999663 112.29999999999927,1.9560000000000173 L110.0,3.8460000000000036 L112.29999999999927,5.736999999999966 C112.40000000000146,5.809999999999945 112.40000000000146,5.890999999999963 112.40000000000146,5.979000000000042 C112.40000000000146,6.067999999999984 112.40000000000146,6.143000000000029 112.29999999999927,6.206000000000017 L111.90000000000146,6.518000000000029 C111.90000000000146,6.57000000000005 111.79999999999927,6.596000000000004 111.70000000000073,6.596000000000004 C111.70000000000073,6.596000000000004 111.59999999999854,6.57000000000005 111.5,6.518000000000029 L109.09999999999854,4.565000000000055 L106.70000000000073,6.518000000000029 C106.70000000000073,6.57000000000005 106.59999999999854,6.596000000000004 106.5,6.596000000000004 C106.5,6.596000000000004 106.40000000000146,6.57000000000005 106.40000000000146,6.518000000000029 L105.90000000000146,6.206000000000017 C105.90000000000146,6.143000000000029 105.79999999999927,6.065000000000055 105.79999999999927,5.971000000000004 C105.79999999999927,5.908999999999992 105.90000000000146,5.831000000000017 105.90000000000146,5.736999999999966 L108.29999999999927,3.8460000000000036 L105.90000000000146,1.9560000000000173 C105.90000000000146,1.8830000000000382 105.79999999999927,1.802000000000021 105.79999999999927,1.7140000000000555 C105.79999999999927,1.625 105.90000000000146,1.5499999999999545 105.90000000000146,1.4869999999999663 L106.40000000000146,1.1749999999999545 C106.40000000000146,1.1219999999999573 106.5,1.0960000000000036 106.5,1.0960000000000036 C106.59999999999854,1.0960000000000036 106.70000000000073,1.1219999999999573 106.70000000000073,1.1749999999999545 L109.09999999999854,3.1280000000000427" />
<path d="M49.0,61.096000000000004 C49.29999999999927,61.096000000000004 49.400000000001455,61.17999999999995 49.599999999998545,61.346000000000004 C49.70000000000073,61.524 49.79999999999927,61.70100000000002 49.79999999999927,61.87800000000004 C49.79999999999927,62.15899999999999 49.5,62.513000000000034 49.0,62.940000000000055 C48.5,63.399 48.20000000000073,63.721000000000004 48.099999999998545,63.90899999999999 C48.0,64.05499999999995 47.79999999999927,64.38800000000003 47.599999999998545,64.90899999999999 C47.400000000001455,65.44000000000005 47.099999999998545,65.85699999999997 46.900000000001455,66.15899999999999 C46.599999999998545,66.44000000000005 46.29999999999927,66.58100000000002 46.0,66.58100000000002 C45.900000000001455,66.58100000000002 45.599999999998545,66.54399999999998 45.29999999999927,66.471 C44.900000000001455,66.38800000000003 44.70000000000073,66.346 44.5,66.346 C44.400000000001455,66.346 44.099999999998545,66.38800000000003 43.79999999999927,66.471 C43.5,66.55499999999995 43.29999999999927,66.596 43.099999999998545,66.596 C42.900000000001455,66.596 42.70000000000073,66.51300000000003 42.599999999998545,66.346 C42.400000000001455,66.149 42.400000000001455,65.971 42.400000000001455,65.81500000000005 C42.400000000001455,65.53399999999999 42.599999999998545,65.17999999999995 43.20000000000073,64.75300000000004 C43.70000000000073,64.29399999999998 44.0,63.971000000000004 44.099999999998545,63.78399999999999 C44.20000000000073,63.690000000000055 44.29999999999927,63.351999999999975 44.599999999998545,62.76800000000003 C44.79999999999927,62.236999999999966 45.0,61.82600000000002 45.29999999999927,61.53399999999999 C45.5,61.25300000000004 45.79999999999927,61.111999999999966 46.20000000000073,61.111999999999966 C46.29999999999927,61.111999999999966 46.5,61.149 46.900000000001455,61.221000000000004 C47.20000000000073,61.30499999999995 47.400000000001455,61.346000000000004 47.599999999998545,61.346000000000004 C47.70000000000073,61.346000000000004 48.0,61.30499999999995 48.29999999999927,61.221000000000004 C48.599999999998545,61.138000000000034 48.900000000001455,61.096000000000004 49.0,61.096000000000004" />
<path d="M46.79999999999927,71.096 C47.400000000001455,71.096 47.900000000001455,71.25800000000004 48.400000000001455,71.58100000000002 C48.79999999999927,71.93499999999995 49.0,72.37800000000004 49.0,72.90899999999999 C49.0,73.80499999999995 48.5,74.64300000000003 47.599999999998545,75.42499999999995 C46.70000000000073,76.20600000000002 45.599999999998545,76.596 44.599999999998545,76.596 C43.900000000001455,76.596 43.400000000001455,76.43499999999995 43.0,76.11199999999997 C42.599999999998545,75.75800000000004 42.400000000001455,75.31500000000005 42.400000000001455,74.78399999999999 C42.400000000001455,73.88800000000003 42.900000000001455,73.04999999999995 43.79999999999927,72.26800000000003 C44.70000000000073,71.48699999999997 45.70000000000073,71.096 46.79999999999927,71.096" />
<path d="M17.5,61.096000000000004 C17.700000000000728,61.096000000000004 17.900000000001455,61.17999999999995 18.0,61.346000000000004 C18.200000000000728,61.524 18.200000000000728,61.70100000000002 18.200000000000728,61.87800000000004 C18.200000000000728,62.15899999999999 18.0,62.513000000000034 17.5,62.940000000000055 C16.900000000001455,63.399 16.599999999998545,63.721000000000004 16.5,63.90899999999999 C16.400000000001455,64.05499999999995 16.299999999999272,64.38800000000003 16.099999999998545,64.90899999999999 C15.900000000001455,65.44000000000005 15.599999999998545,65.85699999999997 15.400000000001455,66.15899999999999 C15.099999999998545,66.44000000000005 14.799999999999272,66.58100000000002 14.5,66.58100000000002 C14.299999999999272,66.58100000000002 14.099999999998545,66.54399999999998 13.700000000000728,66.471 C13.400000000001455,66.38800000000003 13.200000000000728,66.346 13.0,66.346 C12.900000000001455,66.346 12.599999999998545,66.38800000000003 12.299999999999272,66.471 C12.0,66.55499999999995 11.700000000000728,66.596 11.599999999998545,66.596 C11.400000000001455,66.596 11.200000000000728,66.51300000000003 11.0,66.346 C10.900000000001455,66.149 10.900000000001455,65.971 10.900000000001455,65.81500000000005 C10.900000000001455,65.53399999999999 11.099999999998545,65.17999999999995 11.599999999998545,64.75300000000004 C12.200000000000728,64.29399999999998 12.5,63.971000000000004 12.599999999998545,63.78399999999999 C12.599999999998545,63.690000000000055 12.799999999999272,63.351999999999975 13.0,62.76800000000003 C13.299999999999272,62.236999999999966 13.5,61.82600000000002 13.700000000000728,61.53399999999999 C14.0,61.25300000000004 14.299999999999272,61.111999999999966 14.599999999998545,61.111999999999966 C14.799999999999272,61.111999999999966 15.0,61.149 15.299999999999272,61.221000000000004 C15.700000000000728,61.30499999999995 15.900000000001455,61.346000000000004 16.099999999998545,61.346000000000004 C16.200000000000728,61.346000000000004 16.5,61.30499999999995 16.799999999999272,61.221000000000004 C17.099999999998545,61.138000000000034 17.299999999999272,61.096000000000004 17.5,61.096000000000004" />
<path d="M15.200000000000728,71.096 C15.900000000001455,71.096 16.400000000001455,71.25800000000004 16.799999999999272,71.58100000000002 C17.200000000000728,71.93499999999995 17.400000000001455,72.37800000000004 17.400000000001455,72.90899999999999 C17.400000000001455,73.80499999999995 17.0,74.64300000000003 16.099999999998545,75.42499999999995 C15.099999999998545,76.20600000000002 14.099999999998545,76.596 13.0,76.596 C12.400000000001455,76.596 11.900000000001455,76.43499999999995 11.5,76.11199999999997 C11.099999999998545,75.75800000000004 10.900000000001455,75.31500000000005 10.900000000001455,74.78399999999999 C10.900000000001455,73.88800000000003 11.299999999999272,73.04999999999995 12.299999999999272,72.26800000000003 C13.200000000000728,71.48699999999997 14.200000000000728,71.096 15.200000000000728,71.096" />
<path d="M171.40000000000146,72.23699999999997 C171.79999999999927,72.23699999999997 172.09999999999854,72.34100000000001 172.20000000000073,72.54999999999995 C172.40000000000146,72.779 172.5,73.00300000000004 172.59999999999854,73.221 C172.59999999999854,73.44000000000005 172.59999999999854,73.65899999999999 172.79999999999927,73.87800000000004 C172.79999999999927,74.08600000000001 173.0,74.19000000000005 173.20000000000073,74.19000000000005 C173.29999999999927,74.19000000000005 173.5,74.03399999999999 173.79999999999927,73.721 C174.09999999999854,73.35699999999997 174.29999999999927,73.096 174.40000000000146,72.94000000000005 C174.40000000000146,72.81500000000005 174.5,72.75300000000004 174.59999999999854,72.75300000000004 C174.59999999999854,72.75300000000004 174.59999999999854,72.75300000000004 174.59999999999854,72.75300000000004 C174.79999999999927,72.76300000000003 174.79999999999927,72.82600000000002 174.90000000000146,72.94000000000005 L171.29999999999927,86.346 C171.20000000000073,86.48199999999997 171.0,86.54999999999995 170.79999999999927,86.54999999999995 C170.5,86.54999999999995 170.40000000000146,86.48199999999997 170.20000000000073,86.346 L172.20000000000073,79.79999999999995 C171.40000000000146,80.11199999999997 170.70000000000073,80.26800000000003 170.09999999999854,80.26800000000003 C169.59999999999854,80.26800000000003 169.20000000000073,80.12199999999996 168.90000000000146,79.83100000000002 C168.5,79.53899999999999 168.40000000000146,79.15899999999999 168.40000000000146,78.69000000000005 C168.40000000000146,78.28399999999999 168.5,77.94500000000005 168.79999999999927,77.67499999999995 C169.09999999999854,77.39300000000003 169.40000000000146,77.25300000000004 169.79999999999927,77.25300000000004 C170.20000000000073,77.25300000000004 170.5,77.35699999999997 170.70000000000073,77.56500000000005 C170.90000000000146,77.78399999999999 171.0,78.00300000000004 171.0,78.221 C171.0,78.48199999999997 171.09999999999854,78.70600000000002 171.20000000000073,78.89300000000003 C171.29999999999927,79.10199999999998 171.40000000000146,79.20600000000002 171.59999999999854,79.20600000000002 C171.79999999999927,79.20600000000002 172.0,79.024 172.29999999999927,78.65899999999999 C172.59999999999854,78.31500000000005 172.79999999999927,78.04399999999998 172.90000000000146,77.846 L173.79999999999927,74.81500000000005 C172.90000000000146,75.11699999999996 172.20000000000073,75.26800000000003 171.70000000000073,75.26800000000003 C171.20000000000073,75.26800000000003 170.79999999999927,75.11699999999996 170.5,74.81500000000005 C170.09999999999854,74.53399999999999 169.90000000000146,74.15899999999999 169.90000000000146,73.69000000000005 C169.90000000000146,73.28399999999999 170.09999999999854,72.94500000000005 170.40000000000146,72.67499999999995 C170.59999999999854,72.38300000000004 171.0,72.23699999999997 171.40000000000146,72.23699999999997" />
<path d="M44.20000000000073,19.736999999999966 C44.599999999998545,19.736999999999966 44.900000000001455,19.841000000000008 45.099999999998545,20.049999999999955 C45.20000000000073,20.288999999999987 45.400000000001455,20.513000000000034 45.400000000001455,20.721000000000004 C45.400000000001455,20.918999999999983 45.5,21.138000000000034 45.599999999998545,21.378000000000043 C45.70000000000073,21.586000000000013 45.79999999999927,21.690000000000055 46.0,21.690000000000055 C46.099999999998545,21.690000000000055 46.400000000001455,21.528999999999996 46.70000000000073,21.206000000000017 C46.900000000001455,20.924999999999955 47.099999999998545,20.668999999999983 47.20000000000073,20.440000000000055 C47.29999999999927,20.315000000000055 47.400000000001455,20.253000000000043 47.5,20.253000000000043 L47.5,20.253000000000043 C47.599999999998545,20.263000000000034 47.70000000000073,20.326000000000022 47.79999999999927,20.440000000000055 L45.29999999999927,28.846000000000004 C45.20000000000073,28.98199999999997 45.0,29.049999999999955 44.79999999999927,29.049999999999955 C44.5,29.049999999999955 44.400000000001455,28.98199999999997 44.20000000000073,28.846000000000004 L46.599999999998545,22.315000000000055 C45.70000000000073,22.616999999999962 45.0,22.76800000000003 44.5,22.76800000000003 C44.0,22.76800000000003 43.599999999998545,22.616999999999962 43.29999999999927,22.315000000000055 C42.900000000001455,22.033999999999992 42.70000000000073,21.658999999999992 42.70000000000073,21.190000000000055 C42.70000000000073,20.783999999999992 42.900000000001455,20.44500000000005 43.20000000000073,20.174999999999955 C43.400000000001455,19.883000000000038 43.79999999999927,19.736999999999966 44.20000000000073,19.736999999999966" />
<path d="M225.79999999999927,51.25300000000004 L225.79999999999927,51.221000000000004 C225.79999999999927,51.20100000000002 225.79999999999927,51.16399999999999 225.79999999999927,51.111999999999966 C225.90000000000146,51.059999999999945 225.90000000000146,51.00300000000004 225.90000000000146,50.940000000000055 C226.09999999999854,50.42999999999995 226.29999999999927,49.92999999999995 226.70000000000073,49.440000000000055 C227.09999999999854,48.78399999999999 227.70000000000073,48.46100000000001 228.20000000000073,48.471000000000004 C228.5,48.471000000000004 228.70000000000073,48.57000000000005 228.79999999999927,48.76800000000003 C228.90000000000146,48.934999999999945 229.0,49.15899999999999 229.0,49.440000000000055 C229.40000000000146,48.78399999999999 229.90000000000146,48.46100000000001 230.5,48.471000000000004 C230.70000000000073,48.471000000000004 230.90000000000146,48.57000000000005 231.0,48.76800000000003 C231.20000000000073,48.976999999999975 231.29999999999927,49.21600000000001 231.29999999999927,49.486999999999966 C231.70000000000073,48.799999999999955 232.20000000000073,48.46100000000001 232.70000000000073,48.471000000000004 C233.0,48.471000000000004 233.20000000000073,48.59400000000005 233.5,48.839000000000055 C233.70000000000073,49.08299999999997 233.79999999999927,49.36699999999996 233.79999999999927,49.690000000000055 C233.79999999999927,49.73199999999997 233.79999999999927,49.82000000000005 233.79999999999927,49.95600000000002 L233.09999999999854,52.65899999999999 C233.09999999999854,52.67999999999995 233.09999999999854,52.70600000000002 233.09999999999854,52.736999999999966 C233.09999999999854,52.84100000000001 233.09999999999854,52.89300000000003 233.20000000000073,52.89300000000003 C233.29999999999927,52.89300000000003 233.5,52.78899999999999 233.79999999999927,52.58100000000002 L234.20000000000073,52.25300000000004 C234.29999999999927,52.25300000000004 234.29999999999927,52.28399999999999 234.29999999999927,52.346000000000004 C234.29999999999927,52.399 234.29999999999927,52.440000000000055 234.29999999999927,52.471000000000004 C233.70000000000073,53.03399999999999 233.29999999999927,53.38300000000004 233.09999999999854,53.51800000000003 C232.70000000000073,53.78899999999999 232.40000000000146,53.924999999999955 232.09999999999854,53.924999999999955 C231.79999999999927,53.924999999999955 231.70000000000073,53.86699999999996 231.59999999999854,53.75300000000004 C231.5,53.65899999999999 231.5,53.528999999999996 231.40000000000146,53.361999999999966 C231.40000000000146,53.299999999999955 231.5,53.236999999999966 231.5,53.174999999999955 L232.20000000000073,50.20600000000002 C232.20000000000073,50.12199999999996 232.20000000000073,50.03899999999999 232.20000000000073,49.95600000000002 C232.20000000000073,49.71600000000001 232.09999999999854,49.596000000000004 232.0,49.596000000000004 C231.79999999999927,49.596000000000004 231.70000000000073,49.66399999999999 231.5,49.799999999999955 C231.40000000000146,49.924999999999955 231.29999999999927,50.059999999999945 231.29999999999927,50.20600000000002 L230.29999999999927,53.65899999999999 C230.20000000000073,53.78399999999999 230.09999999999854,53.846000000000004 230.0,53.846000000000004 L229.0,53.846000000000004 C228.90000000000146,53.846000000000004 228.79999999999927,53.78399999999999 228.90000000000146,53.65899999999999 L229.79999999999927,50.20600000000002 C229.90000000000146,50.09100000000001 229.90000000000146,49.99199999999996 229.90000000000146,49.90899999999999 C229.90000000000146,49.70100000000002 229.79999999999927,49.596000000000004 229.70000000000073,49.596000000000004 C229.5,49.596000000000004 229.29999999999927,49.66399999999999 229.20000000000073,49.799999999999955 C229.09999999999854,49.903999999999996 229.0,50.03899999999999 228.90000000000146,50.20600000000002 L227.70000000000073,53.65899999999999 C227.70000000000073,53.78399999999999 227.59999999999854,53.846000000000004 227.5,53.846000000000004 L226.5,53.846000000000004 C226.29999999999927,53.846000000000004 226.29999999999927,53.78399999999999 226.40000000000146,53.65899999999999 L227.5,50.20600000000002 C227.59999999999854,50.059999999999945 227.59999999999854,49.96600000000001 227.59999999999854,49.924999999999955 C227.59999999999854,49.70600000000002 227.5,49.596000000000004 227.29999999999927,49.596000000000004 C227.09999999999854,49.596000000000004 226.79999999999927,49.76800000000003 226.59999999999854,50.111999999999966 C226.40000000000146,50.434999999999945 226.29999999999927,50.79399999999998 226.20000000000073,51.190000000000055 C226.09999999999854,51.30499999999995 226.0,51.361999999999966 225.90000000000146,51.361999999999966 C225.79999999999927,51.34100000000001 225.79999999999927,51.30499999999995 225.79999999999927,51.25300000000004 M238.0,48.76800000000003 L237.09999999999854,51.861999999999966 C236.70000000000073,52.976999999999975 236.20000000000073,54.05499999999995 235.40000000000146,55.096000000000004 C234.59999999999854,56.138000000000034 233.79999999999927,56.65899999999999 233.0,56.65899999999999 C232.5,56.65899999999999 232.20000000000073,56.547000000000025 231.79999999999927,56.32299999999998 C231.5,56.099000000000046 231.29999999999927,55.809999999999945 231.29999999999927,55.45600000000002 C231.29999999999927,55.049999999999955 231.40000000000146,54.70600000000002 231.59999999999854,54.424999999999955 C231.79999999999927,54.153999999999996 232.0,54.00800000000004 232.29999999999927,53.986999999999966 C232.5,53.986999999999966 232.70000000000073,54.07000000000005 232.90000000000146,54.236999999999966 C233.09999999999854,54.403999999999996 233.09999999999854,54.596000000000004 233.09999999999854,54.815000000000055 C233.09999999999854,55.013000000000034 233.0,55.19500000000005 232.79999999999927,55.361999999999966 C232.5,55.50800000000004 232.40000000000146,55.674999999999955 232.40000000000146,55.861999999999966 C232.40000000000146,55.986999999999966 232.59999999999854,56.049999999999955 232.79999999999927,56.049999999999955 L233.0,56.049999999999955 C233.0,56.049999999999955 233.09999999999854,56.03399999999999 233.20000000000073,56.00300000000004 C233.29999999999927,55.99199999999996 233.40000000000146,55.95100000000002 233.5,55.87800000000004 C233.5,55.87800000000004 233.59999999999854,55.82600000000002 233.70000000000073,55.721000000000004 C233.79999999999927,55.60699999999997 233.79999999999927,55.524 233.79999999999927,55.471000000000004 C233.90000000000146,55.36699999999996 233.90000000000146,55.28399999999999 234.0,55.221000000000004 C234.0,55.17999999999995 234.0,55.07600000000002 234.09999999999854,54.90899999999999 C234.09999999999854,54.86699999999996 234.09999999999854,54.82000000000005 234.09999999999854,54.76800000000003 C234.09999999999854,54.71600000000001 234.09999999999854,54.67999999999995 234.09999999999854,54.65899999999999 C234.20000000000073,54.638000000000034 234.20000000000073,54.62199999999996 234.20000000000073,54.611999999999966 C234.20000000000073,54.403999999999996 234.20000000000073,54.278999999999996 234.29999999999927,54.236999999999966 C234.29999999999927,54.028999999999996 234.29999999999927,53.924999999999955 234.29999999999927,53.924999999999955 L235.59999999999854,48.76800000000003 L234.59999999999854,48.76800000000003 C234.5,48.76800000000003 234.5,48.736999999999966 234.40000000000146,48.674999999999955 C234.40000000000146,48.59100000000001 234.29999999999927,48.51800000000003 234.29999999999927,48.45600000000002 C234.29999999999927,48.37199999999996 234.40000000000146,48.299999999999955 234.40000000000146,48.236999999999966 C234.5,48.174999999999955 234.59999999999854,48.14300000000003 234.59999999999854,48.14300000000003 L235.79999999999927,48.14300000000003 C236.09999999999854,47.16399999999999 236.70000000000073,46.32000000000005 237.40000000000146,45.611999999999966 C238.20000000000073,44.88300000000004 238.90000000000146,44.51800000000003 239.79999999999927,44.51800000000003 C240.29999999999927,44.51800000000003 240.59999999999854,44.63300000000004 240.90000000000146,44.861999999999966 C241.29999999999927,45.08100000000002 241.40000000000146,45.36699999999996 241.40000000000146,45.721000000000004 C241.40000000000146,46.10699999999997 241.40000000000146,46.45100000000002 241.20000000000073,46.75300000000004 C241.0,47.024 240.70000000000073,47.16399999999999 240.5,47.174999999999955 C240.20000000000073,47.174999999999955 240.0,47.09400000000005 239.90000000000146,46.932000000000016 C239.70000000000073,46.77099999999996 239.59999999999854,46.58100000000002 239.59999999999854,46.361999999999966 C239.59999999999854,46.174999999999955 239.79999999999927,46.00300000000004 240.0,45.846000000000004 C240.20000000000073,45.690000000000055 240.40000000000146,45.513000000000034 240.29999999999927,45.315000000000055 C240.29999999999927,45.16899999999998 240.20000000000073,45.101999999999975 239.90000000000146,45.111999999999966 L239.90000000000146,45.111999999999966 C239.90000000000146,45.13300000000004 239.79999999999927,45.138000000000034 239.79999999999927,45.12800000000004 C239.59999999999854,45.12800000000004 239.40000000000146,45.184999999999945 239.20000000000073,45.299999999999955 C239.09999999999854,45.403999999999996 238.90000000000146,45.59100000000001 238.79999999999927,45.861999999999966 C238.70000000000073,45.934999999999945 238.70000000000073,46.00800000000004 238.70000000000073,46.08100000000002 C238.70000000000073,46.153999999999996 238.59999999999854,46.23400000000004 238.59999999999854,46.32299999999998 C238.59999999999854,46.412000000000035 238.5,46.471000000000004 238.5,46.50300000000004 C238.5,46.565000000000055 238.5,46.69500000000005 238.5,46.89300000000003 C238.40000000000146,47.08100000000002 238.40000000000146,47.24199999999996 238.29999999999927,47.37800000000004 C238.29999999999927,47.774 238.20000000000073,48.028999999999996 238.20000000000073,48.14300000000003 L239.29999999999927,48.14300000000003 C239.29999999999927,48.14300000000003 239.40000000000146,48.172000000000025 239.5,48.22900000000004 C239.5,48.287000000000035 239.59999999999854,48.35900000000004 239.59999999999854,48.44799999999998 C239.59999999999854,48.537000000000035 239.5,48.611999999999966 239.5,48.674999999999955 C239.40000000000146,48.736999999999966 239.29999999999927,48.76800000000003 239.29999999999927,48.76800000000003 L238.0,48.76800000000003" />
<path d="M162.70000000000073,51.25300000000004 L162.70000000000073,51.221000000000004 C162.79999999999927,51.20100000000002 162.79999999999927,51.16399999999999 162.79999999999927,51.111999999999966 C162.79999999999927,51.059999999999945 162.79999999999927,51.00300000000004 162.79999999999927,50.940000000000055 C163.0,50.42999999999995 163.29999999999927,49.92999999999995 163.59999999999854,49.440000000000055 C164.09999999999854,48.78399999999999 164.59999999999854,48.46100000000001 165.20000000000073,48.471000000000004 C165.40000000000146,48.471000000000004 165.59999999999854,48.57000000000005 165.70000000000073,48.76800000000003 C165.90000000000146,48.934999999999945 165.90000000000146,49.15899999999999 165.90000000000146,49.440000000000055 C166.40000000000146,48.78399999999999 166.90000000000146,48.46100000000001 167.40000000000146,48.471000000000004 C167.59999999999854,48.471000000000004 167.79999999999927,48.57000000000005 168.0,48.76800000000003 C168.09999999999854,48.976999999999975 168.20000000000073,49.21600000000001 168.20000000000073,49.486999999999966 C168.59999999999854,48.799999999999955 169.09999999999854,48.46100000000001 169.59999999999854,48.471000000000004 C169.90000000000146,48.471000000000004 170.20000000000073,48.59400000000005 170.40000000000146,48.839000000000055 C170.59999999999854,49.08299999999997 170.79999999999927,49.36699999999996 170.70000000000073,49.690000000000055 C170.70000000000073,49.73199999999997 170.70000000000073,49.82000000000005 170.70000000000073,49.95600000000002 L170.09999999999854,52.65899999999999 C170.0,52.67999999999995 170.0,52.70600000000002 170.0,52.736999999999966 C170.0,52.84100000000001 170.09999999999854,52.89300000000003 170.20000000000073,52.89300000000003 C170.29999999999927,52.89300000000003 170.5,52.78899999999999 170.79999999999927,52.58100000000002 L171.20000000000073,52.25300000000004 C171.29999999999927,52.25300000000004 171.29999999999927,52.28399999999999 171.29999999999927,52.346000000000004 C171.29999999999927,52.399 171.29999999999927,52.440000000000055 171.20000000000073,52.471000000000004 C170.59999999999854,53.03399999999999 170.20000000000073,53.38300000000004 170.0,53.51800000000003 C169.70000000000073,53.78899999999999 169.29999999999927,53.924999999999955 169.0,53.924999999999955 C168.79999999999927,53.924999999999955 168.59999999999854,53.86699999999996 168.59999999999854,53.75300000000004 C168.5,53.65899999999999 168.40000000000146,53.528999999999996 168.40000000000146,53.361999999999966 C168.40000000000146,53.299999999999955 168.40000000000146,53.236999999999966 168.40000000000146,53.174999999999955 L169.09999999999854,50.20600000000002 C169.09999999999854,50.12199999999996 169.09999999999854,50.03899999999999 169.20000000000073,49.95600000000002 C169.20000000000073,49.71600000000001 169.09999999999854,49.596000000000004 168.90000000000146,49.596000000000004 C168.79999999999927,49.596000000000004 168.59999999999854,49.66399999999999 168.5,49.799999999999955 C168.29999999999927,49.924999999999955 168.20000000000073,50.059999999999945 168.20000000000073,50.20600000000002 L167.20000000000073,53.65899999999999 C167.20000000000073,53.78399999999999 167.09999999999854,53.846000000000004 167.0,53.846000000000004 L165.90000000000146,53.846000000000004 C165.79999999999927,53.846000000000004 165.79999999999927,53.78399999999999 165.79999999999927,53.65899999999999 L166.79999999999927,50.20600000000002 C166.79999999999927,50.09100000000001 166.79999999999927,49.99199999999996 166.79999999999927,49.90899999999999 C166.79999999999927,49.70100000000002 166.79999999999927,49.596000000000004 166.59999999999854,49.596000000000004 C166.40000000000146,49.596000000000004 166.29999999999927,49.66399999999999 166.20000000000073,49.799999999999955 C166.0,49.903999999999996 165.90000000000146,50.03899999999999 165.90000000000146,50.20600000000002 L164.70000000000073,53.65899999999999 C164.59999999999854,53.78399999999999 164.59999999999854,53.846000000000004 164.40000000000146,53.846000000000004 L163.40000000000146,53.846000000000004 C163.29999999999927,53.846000000000004 163.29999999999927,53.78399999999999 163.29999999999927,53.65899999999999 L164.5,50.20600000000002 C164.5,50.059999999999945 164.5,49.96600000000001 164.5,49.924999999999955 C164.5,49.70600000000002 164.40000000000146,49.596000000000004 164.29999999999927,49.596000000000004 C164.0,49.596000000000004 163.79999999999927,49.76800000000003 163.59999999999854,50.111999999999966 C163.40000000000146,50.434999999999945 163.20000000000073,50.79399999999998 163.09999999999854,51.190000000000055 C163.09999999999854,51.30499999999995 163.0,51.361999999999966 162.90000000000146,51.361999999999966 C162.79999999999927,51.34100000000001 162.70000000000073,51.30499999999995 162.70000000000073,51.25300000000004 M174.90000000000146,48.76800000000003 L174.0,51.861999999999966 C173.70000000000073,52.976999999999975 173.09999999999854,54.05499999999995 172.29999999999927,55.096000000000004 C171.5,56.138000000000034 170.70000000000073,56.65899999999999 169.90000000000146,56.65899999999999 C169.5,56.65899999999999 169.09999999999854,56.547000000000025 168.79999999999927,56.32299999999998 C168.40000000000146,56.099000000000046 168.29999999999927,55.809999999999945 168.29999999999927,55.45600000000002 C168.29999999999927,55.049999999999955 168.40000000000146,54.70600000000002 168.5,54.424999999999955 C168.70000000000073,54.153999999999996 168.90000000000146,54.00800000000004 169.29999999999927,53.986999999999966 C169.5,53.986999999999966 169.70000000000073,54.07000000000005 169.79999999999927,54.236999999999966 C170.0,54.403999999999996 170.09999999999854,54.596000000000004 170.09999999999854,54.815000000000055 C170.09999999999854,55.013000000000034 170.0,55.19500000000005 169.70000000000073,55.361999999999966 C169.5,55.50800000000004 169.40000000000146,55.674999999999955 169.40000000000146,55.861999999999966 C169.40000000000146,55.986999999999966 169.5,56.049999999999955 169.79999999999927,56.049999999999955 L169.90000000000146,56.049999999999955 C170.0,56.049999999999955 170.09999999999854,56.03399999999999 170.20000000000073,56.00300000000004 C170.29999999999927,55.99199999999996 170.29999999999927,55.95100000000002 170.40000000000146,55.87800000000004 C170.40000000000146,55.87800000000004 170.5,55.82600000000002 170.59999999999854,55.721000000000004 C170.70000000000073,55.60699999999997 170.79999999999927,55.524 170.79999999999927,55.471000000000004 C170.79999999999927,55.36699999999996 170.90000000000146,55.28399999999999 170.90000000000146,55.221000000000004 C170.90000000000146,55.17999999999995 171.0,55.07600000000002 171.0,54.90899999999999 C171.0,54.86699999999996 171.0,54.82000000000005 171.09999999999854,54.76800000000003 C171.09999999999854,54.71600000000001 171.09999999999854,54.67999999999995 171.09999999999854,54.65899999999999 C171.09999999999854,54.638000000000034 171.09999999999854,54.62199999999996 171.09999999999854,54.611999999999966 C171.20000000000073,54.403999999999996 171.20000000000073,54.278999999999996 171.20000000000073,54.236999999999966 C171.29999999999927,54.028999999999996 171.29999999999927,53.924999999999955 171.29999999999927,53.924999999999955 L172.59999999999854,48.76800000000003 L171.59999999999854,48.76800000000003 C171.5,48.76800000000003 171.40000000000146,48.736999999999966 171.40000000000146,48.674999999999955 C171.29999999999927,48.59100000000001 171.29999999999927,48.51800000000003 171.29999999999927,48.45600000000002 C171.29999999999927,48.37199999999996 171.29999999999927,48.299999999999955 171.40000000000146,48.236999999999966 C171.5,48.174999999999955 171.5,48.14300000000003 171.59999999999854,48.14300000000003 L172.70000000000073,48.14300000000003 C173.09999999999854,47.16399999999999 173.59999999999854,46.32000000000005 174.40000000000146,45.611999999999966 C175.09999999999854,44.88300000000004 175.90000000000146,44.51800000000003 176.70000000000073,44.51800000000003 C177.20000000000073,44.51800000000003 177.59999999999854,44.63300000000004 177.90000000000146,44.861999999999966 C178.20000000000073,45.08100000000002 178.40000000000146,45.36699999999996 178.40000000000146,45.721000000000004 C178.40000000000146,46.10699999999997 178.29999999999927,46.45100000000002 178.09999999999854,46.75300000000004 C177.90000000000146,47.024 177.70000000000073,47.16399999999999 177.40000000000146,47.174999999999955 C177.20000000000073,47.174999999999955 177.0,47.09400000000005 176.79999999999927,46.932000000000016 C176.70000000000073,46.77099999999996 176.59999999999854,46.58100000000002 176.59999999999854,46.361999999999966 C176.59999999999854,46.174999999999955 176.70000000000073,46.00300000000004 176.90000000000146,45.846000000000004 C177.20000000000073,45.690000000000055 177.29999999999927,45.513000000000034 177.29999999999927,45.315000000000055 C177.29999999999927,45.16899999999998 177.20000000000073,45.101999999999975 176.90000000000146,45.111999999999966 L176.79999999999927,45.111999999999966 C176.79999999999927,45.13300000000004 176.79999999999927,45.138000000000034 176.70000000000073,45.12800000000004 C176.5,45.12800000000004 176.29999999999927,45.184999999999945 176.20000000000073,45.299999999999955 C176.0,45.403999999999996 175.90000000000146,45.59100000000001 175.70000000000073,45.861999999999966 C175.70000000000073,45.934999999999945 175.70000000000073,46.00800000000004 175.59999999999854,46.08100000000002 C175.59999999999854,46.153999999999996 175.59999999999854,46.23400000000004 175.5,46.32299999999998 C175.5,46.412000000000035 175.5,46.471000000000004 175.5,46.50300000000004 C175.5,46.565000000000055 175.40000000000146,46.69500000000005 175.40000000000146,46.89300000000003 C175.40000000000146,47.08100000000002 175.29999999999927,47.24199999999996 175.29999999999927,47.37800000000004 C175.20000000000073,47.774 175.20000000000073,48.028999999999996 175.09999999999854,48.14300000000003 L176.20000000000073,48.14300000000003 C176.29999999999927,48.14300000000003 176.40000000000146,48.172000000000025 176.40000000000146,48.22900000000004 C176.5,48.287000000000035 176.5,48.35900000000004 176.5,48.44799999999998 C176.5,48.537000000000035 176.5,48.611999999999966 176.40000000000146,48.674999999999955 C176.40000000000146,48.736999999999966 176.29999999999927,48.76800000000003 176.20000000000073,48.76800000000003 L174.90000000000146,48.76800000000003" />
<path d="M99.40000000000146,51.25300000000004 L99.40000000000146,51.221000000000004 C99.5,51.20100000000002 99.5,51.16399999999999 99.5,51.111999999999966 C99.5,51.059999999999945 99.5,51.00300000000004 99.5,50.940000000000055 C99.70000000000073,50.42999999999995 100.0,49.92999999999995 100.29999999999927,49.440000000000055 C100.79999999999927,48.78399999999999 101.29999999999927,48.46100000000001 101.90000000000146,48.471000000000004 C102.09999999999854,48.471000000000004 102.29999999999927,48.57000000000005 102.40000000000146,48.76800000000003 C102.59999999999854,48.934999999999945 102.59999999999854,49.15899999999999 102.70000000000073,49.440000000000055 C103.09999999999854,48.78399999999999 103.59999999999854,48.46100000000001 104.09999999999854,48.471000000000004 C104.29999999999927,48.471000000000004 104.5,48.57000000000005 104.70000000000073,48.76800000000003 C104.79999999999927,48.976999999999975 104.90000000000146,49.21600000000001 104.90000000000146,49.486999999999966 C105.29999999999927,48.799999999999955 105.79999999999927,48.46100000000001 106.29999999999927,48.471000000000004 C106.59999999999854,48.471000000000004 106.90000000000146,48.59400000000005 107.09999999999854,48.839000000000055 C107.40000000000146,49.08299999999997 107.5,49.36699999999996 107.40000000000146,49.690000000000055 C107.40000000000146,49.73199999999997 107.40000000000146,49.82000000000005 107.40000000000146,49.95600000000002 L106.79999999999927,52.65899999999999 C106.70000000000073,52.67999999999995 106.70000000000073,52.70600000000002 106.79999999999927,52.736999999999966 C106.79999999999927,52.84100000000001 106.79999999999927,52.89300000000003 106.90000000000146,52.89300000000003 C107.0,52.89300000000003 107.20000000000073,52.78899999999999 107.5,52.58100000000002 L107.90000000000146,52.25300000000004 C108.0,52.25300000000004 108.0,52.28399999999999 108.0,52.346000000000004 C108.0,52.399 108.0,52.440000000000055 107.90000000000146,52.471000000000004 C107.29999999999927,53.03399999999999 107.0,53.38300000000004 106.79999999999927,53.51800000000003 C106.40000000000146,53.78899999999999 106.0,53.924999999999955 105.70000000000073,53.924999999999955 C105.5,53.924999999999955 105.40000000000146,53.86699999999996 105.29999999999927,53.75300000000004 C105.20000000000073,53.65899999999999 105.09999999999854,53.528999999999996 105.09999999999854,53.361999999999966 C105.09999999999854,53.299999999999955 105.09999999999854,53.236999999999966 105.09999999999854,53.174999999999955 L105.79999999999927,50.20600000000002 C105.79999999999927,50.12199999999996 105.90000000000146,50.03899999999999 105.90000000000146,49.95600000000002 C105.90000000000146,49.71600000000001 105.79999999999927,49.596000000000004 105.70000000000073,49.596000000000004 C105.5,49.596000000000004 105.29999999999927,49.66399999999999 105.20000000000073,49.799999999999955 C105.0,49.924999999999955 104.90000000000146,50.059999999999945 104.90000000000146,50.20600000000002 L103.90000000000146,53.65899999999999 C103.90000000000146,53.78399999999999 103.79999999999927,53.846000000000004 103.70000000000073,53.846000000000004 L102.59999999999854,53.846000000000004 C102.5,53.846000000000004 102.5,53.78399999999999 102.5,53.65899999999999 L103.5,50.20600000000002 C103.5,50.09100000000001 103.5,49.99199999999996 103.5,49.90899999999999 C103.5,49.70100000000002 103.5,49.596000000000004 103.29999999999927,49.596000000000004 C103.09999999999854,49.596000000000004 103.0,49.66399999999999 102.90000000000146,49.799999999999955 C102.70000000000073,49.903999999999996 102.59999999999854,50.03899999999999 102.59999999999854,50.20600000000002 L101.40000000000146,53.65899999999999 C101.40000000000146,53.78399999999999 101.29999999999927,53.846000000000004 101.20000000000073,53.846000000000004 L100.09999999999854,53.846000000000004 C100.0,53.846000000000004 100.0,53.78399999999999 100.0,53.65899999999999 L101.20000000000073,50.20600000000002 C101.20000000000073,50.059999999999945 101.29999999999927,49.96600000000001 101.29999999999927,49.924999999999955 C101.29999999999927,49.70600000000002 101.20000000000073,49.596000000000004 101.0,49.596000000000004 C100.70000000000073,49.596000000000004 100.5,49.76800000000003 100.29999999999927,50.111999999999966 C100.09999999999854,50.434999999999945 99.90000000000146,50.79399999999998 99.79999999999927,51.190000000000055 C99.79999999999927,51.30499999999995 99.70000000000073,51.361999999999966 99.59999999999854,51.361999999999966 C99.5,51.34100000000001 99.40000000000146,51.30499999999995 99.40000000000146,51.25300000000004 M113.29999999999927,49.315000000000055 C112.90000000000146,49.315000000000055 112.59999999999854,49.50300000000004 112.29999999999927,49.87800000000004 C112.0,50.274 111.79999999999927,50.71100000000001 111.70000000000073,51.190000000000055 C111.5,51.649 111.40000000000146,52.049999999999955 111.40000000000146,52.39300000000003 C111.40000000000146,52.88300000000004 111.59999999999854,53.12800000000004 112.0,53.12800000000004 C112.29999999999927,53.12800000000004 112.59999999999854,53.00300000000004 112.79999999999927,52.75300000000004 C113.09999999999854,52.48199999999997 113.29999999999927,52.013000000000034 113.5,51.346000000000004 C113.70000000000073,50.65899999999999 113.79999999999927,50.17999999999995 113.79999999999927,49.90899999999999 C113.70000000000073,49.513000000000034 113.59999999999854,49.315000000000055 113.29999999999927,49.315000000000055 M110.40000000000146,48.39300000000003 C110.70000000000073,48.39300000000003 111.0,48.47900000000004 111.20000000000073,48.650999999999954 C111.5,48.82299999999998 111.59999999999854,49.05499999999995 111.70000000000073,49.346000000000004 C112.0,49.065000000000055 112.29999999999927,48.83600000000001 112.59999999999854,48.65899999999999 C113.0,48.48199999999997 113.29999999999927,48.39300000000003 113.59999999999854,48.39300000000003 C114.20000000000073,48.39300000000003 114.70000000000073,48.58600000000001 115.0,48.971000000000004 C115.40000000000146,49.37800000000004 115.5,49.888000000000034 115.5,50.50300000000004 C115.5,51.524 115.20000000000073,52.35699999999997 114.5,53.00300000000004 C113.79999999999927,53.55499999999995 113.20000000000073,53.83100000000002 112.70000000000073,53.83100000000002 C112.40000000000146,53.83100000000002 112.09999999999854,53.799999999999955 111.90000000000146,53.736999999999966 C111.70000000000073,53.674999999999955 111.5,53.61699999999996 111.40000000000146,53.565000000000055 C111.29999999999927,53.49199999999996 111.20000000000073,53.45600000000002 111.09999999999854,53.45600000000002 C111.0,53.45600000000002 110.90000000000146,53.524 110.79999999999927,53.65899999999999 L110.09999999999854,55.78399999999999 L110.09999999999854,55.87800000000004 C110.09999999999854,56.00300000000004 110.20000000000073,56.07600000000002 110.40000000000146,56.096000000000004 C110.40000000000146,56.10699999999997 110.5,56.11699999999996 110.70000000000073,56.12800000000004 C110.79999999999927,56.138000000000034 110.90000000000146,56.14300000000003 111.0,56.14300000000003 C111.20000000000073,56.174999999999955 111.29999999999927,56.226999999999975 111.29999999999927,56.299999999999955 C111.29999999999927,56.403999999999996 111.20000000000073,56.45600000000002 111.09999999999854,56.45600000000002 C110.0,56.38300000000004 109.20000000000073,56.346000000000004 108.90000000000146,56.346000000000004 C108.5,56.346000000000004 107.79999999999927,56.38300000000004 106.70000000000073,56.45600000000002 C106.59999999999854,56.45600000000002 106.5,56.403999999999996 106.5,56.299999999999955 C106.5,56.226999999999975 106.59999999999854,56.174999999999955 106.79999999999927,56.14300000000003 C106.90000000000146,56.12199999999996 107.20000000000073,56.111999999999966 107.79999999999927,56.111999999999966 C108.09999999999854,56.111999999999966 108.20000000000073,56.028999999999996 108.29999999999927,55.861999999999966 L110.29999999999927,49.940000000000055 C110.29999999999927,49.82600000000002 110.40000000000146,49.726999999999975 110.40000000000146,49.64300000000003 C110.40000000000146,49.41399999999999 110.29999999999927,49.30499999999995 110.09999999999854,49.315000000000055 C109.79999999999927,49.315000000000055 109.5,49.50300000000004 109.09999999999854,49.87800000000004 C108.79999999999927,50.23199999999997 108.59999999999854,50.63300000000004 108.40000000000146,51.08100000000002 C108.29999999999927,51.184999999999945 108.29999999999927,51.24199999999996 108.09999999999854,51.25300000000004 C108.0,51.25300000000004 108.0,51.21600000000001 108.0,51.14300000000003 C108.0,51.03899999999999 108.0,50.940000000000055 108.09999999999854,50.846000000000004 C108.40000000000146,50.29399999999998 108.59999999999854,49.79399999999998 108.90000000000146,49.346000000000004 C109.09999999999854,49.096000000000004 109.29999999999927,48.87800000000004 109.59999999999854,48.690000000000055 C109.79999999999927,48.49199999999996 110.09999999999854,48.39300000000003 110.40000000000146,48.39300000000003" />
<path d="M200.0,88.846 L232.20000000000073,88.846 L232.20000000000073,91.346 L200.0,91.346 L200.0,88.846" />
<path d="M200.0,85.096 L206.59999999999854,85.096 L206.59999999999854,87.596 L200.0,87.596 L200.0,85.096" />
<path d="M168.90000000000146,21.346000000000004 L232.59999999999854,21.346000000000004 L232.59999999999854,23.846000000000004 L168.90000000000146,23.846000000000004 L168.90000000000146,21.346000000000004" />
<path d="M105.79999999999927,21.346000000000004 L138.0,21.346000000000004 L138.0,23.846000000000004 L105.79999999999927,23.846000000000004 L105.79999999999927,21.346000000000004" />
<path d="M105.79999999999927,17.596000000000004 L138.0,17.596000000000004 L138.0,20.096000000000004 L105.79999999999927,20.096000000000004 L105.79999999999927,17.596000000000004" />
<path d="M42.400000000001455,88.846 L137.59999999999854,88.846 L137.59999999999854,91.346 L42.400000000001455,91.346 L42.400000000001455,88.846" />
<path d="M105.40000000000146,85.096 L137.59999999999854,85.096 L137.59999999999854,87.596 L105.40000000000146,87.596 L105.40000000000146,85.096" />
<path d="M11.5,85.096 L4.900000000001455,85.096 L4.900000000001455,87.596 L11.5,87.596 L11.5,85.096" />
<polyline points="0.0,13.846000000000004 255.0,13.846000000000004" fill="none" stroke="#000000" stroke-width="0.40" />
<polyline points="0.0,18.846000000000004 255.0,18.846000000000004" fill="none" stroke="#000000" stroke-width="0.40" />
<polyline points="0.0,23.846000000000004 255.0,23.846000000000004" fill="none" stroke="#000000" stroke-width="0.40" />
<polyline points="0.0,28.846000000000004 255.0,28.846000000000004" fill="none" stroke="#000000" stroke-width="0.40" />
<polyline points="0.0,33.846000000000004 255.0,33.846000000000004" fill="none" stroke="#000000" stroke-width="0.40" />
<polyline points="0.0,66.346 255.0,66.346" fill="none" stroke="#000000" stroke-width="0.40" />
<polyline points="0.0,71.346 255.0,71.346" fill="none" stroke="#000000" stroke-width="0.40" />
<polyline points="0.0,76.346 255.0,76.346" fill="none" stroke="#000000" stroke-width="0.40" />
<polyline points="0.0,81.346 255.0,81.346" fill="none" stroke="#000000" stroke-width="0.40" />
<polyline points="0.0,86.346 255.0,86.346" fill="none" stroke="#000000" stroke-width="0.40" />
<polyline points="231.90000000000146,65.90999999999997 231.90000000000146,90.096" fill="" stroke="#000000" stroke-width="0.65" />
<polyline points="232.29999999999927,0.0 232.29999999999927,22.596000000000004" fill="" stroke="#000000" stroke-width="0.65" />
<polyline points="200.40000000000146,65.90999999999997 200.40000000000146,90.096" fill="" stroke="#000000" stroke-width="0.65" />
<polyline points="169.20000000000073,0.0 169.20000000000073,22.596000000000004" fill="" stroke="#000000" stroke-width="0.65" />
<polyline points="137.29999999999927,65.90999999999997 137.29999999999927,90.096" fill="" stroke="#000000" stroke-width="0.65" />
<polyline points="137.70000000000073,5.909999999999968 137.70000000000073,22.596000000000004" fill="" stroke="#000000" stroke-width="0.65" />
<polyline points="105.79999999999927,65.90999999999997 105.79999999999927,90.096" fill="" stroke="#000000" stroke-width="0.65" />
<polyline points="106.20000000000073,5.909999999999968 106.20000000000073,22.596000000000004" fill="" stroke="#000000" stroke-width="0.65" />
<polyline points="42.70000000000073,65.90999999999997 42.70000000000073,90.096" fill="" stroke="#000000" stroke-width="0.65" />
<polyline points="11.200000000000728,65.90999999999997 11.200000000000728,90.096" fill="" stroke="#000000" stroke-width="0.65" />
<polyline points="212.5,3.8460000000000036 220.09999999999854,3.8460000000000036" fill="" stroke="#000000" stroke-width="0.56" />
<polyline points="212.5,8.846000000000004 220.09999999999854,8.846000000000004" fill="" stroke="#000000" stroke-width="0.56" />
<polyline points="230.5,3.8460000000000036 240.0,3.8460000000000036" fill="" stroke="#000000" stroke-width="0.80" />
<polyline points="230.5,8.846000000000004 240.0,8.846000000000004" fill="" stroke="#000000" stroke-width="0.80" />
<polyline points="149.5,3.8460000000000036 157.09999999999854,3.8460000000000036" fill="" stroke="#000000" stroke-width="0.56" />
<polyline points="149.5,8.846000000000004 157.09999999999854,8.846000000000004" fill="" stroke="#000000" stroke-width="0.56" />
<polyline points="167.40000000000146,3.8460000000000036 177.0,3.8460000000000036" fill="" stroke="#000000" stroke-width="0.80" />
<polyline points="167.40000000000146,8.846000000000004 177.0,8.846000000000004" fill="" stroke="#000000" stroke-width="0.80" />
<polyline points="135.90000000000146,3.8460000000000036 145.5,3.8460000000000036" fill="" stroke="#000000" stroke-width="0.80" />
<polyline points="135.90000000000146,8.846000000000004 145.5,8.846000000000004" fill="" stroke="#000000" stroke-width="0.80" />
<polyline points="104.29999999999927,3.8460000000000036 113.90000000000146,3.8460000000000036" fill="" stroke="#000000" stroke-width="0.80" />
<polyline points="104.29999999999927,8.846000000000004 113.90000000000146,8.846000000000004" fill="" stroke="#000000" stroke-width="0.80" />
</svg>
