<?xml version="1.0" encoding="UTF-8" standalone="yes"?>
<svg width="256.0px" height="256.0px" xmlns="http://www.w3.org/2000/svg" xmlns:xlink="http://www.w3.org/1999/xlink" version="1.2" baseProfile="tiny">
<path d="M218.1300000000001,28.729000000000042 C218.25,28.729000000000042 218.44000000000005,28.80499999999995 218.68000000000006,28.956000000000017 C218.93000000000006,29.10699999999997 219.1400000000001,29.182999999999993 219.31999999999994,29.182999999999993 C219.6099999999999,29.182999999999993 219.8599999999999,29.067999999999984 220.05999999999995,28.839000000000055 C220.26,28.610000000000014 220.3599999999999,28.327999999999975 220.3599999999999,27.995000000000005 C220.3599999999999,27.787000000000035 220.33999999999992,27.604000000000042 220.27999999999997,27.44799999999998 C220.22000000000003,27.29200000000003 220.1400000000001,27.16999999999996 220.02999999999997,27.081000000000017 C219.92000000000007,26.991999999999962 219.78999999999996,26.91999999999996 219.6400000000001,26.861999999999966 C219.49,26.80499999999995 219.33999999999992,26.769000000000005 219.21000000000004,26.753000000000043 C219.06999999999994,26.736999999999966 218.93000000000006,26.729000000000042 218.76999999999998,26.729000000000042 L218.76999999999998,26.620000000000005 C218.95000000000005,26.557999999999993 219.0999999999999,26.498000000000047 219.23000000000002,26.440000000000055 C219.3599999999999,26.383000000000038 219.5,26.30200000000002 219.6400000000001,26.19799999999998 C219.78999999999996,26.09400000000005 219.9000000000001,25.966000000000008 219.98000000000002,25.815000000000055 C220.05999999999995,25.663999999999987 220.0999999999999,25.495000000000005 220.0999999999999,25.307999999999993 C220.0999999999999,25.047000000000025 220.01999999999998,24.839000000000055 219.8599999999999,24.682999999999993 C219.69000000000005,24.525999999999954 219.48000000000002,24.44799999999998 219.22000000000003,24.44799999999998 C218.96000000000004,24.44799999999998 218.74,24.515999999999963 218.54999999999995,24.650999999999954 C218.3599999999999,24.787000000000035 218.19000000000005,25.0 218.01999999999998,25.29200000000003 L217.91000000000008,25.260999999999967 C218.04999999999995,24.885999999999967 218.23000000000002,24.576000000000022 218.47000000000003,24.331000000000017 C218.70000000000005,24.086000000000013 219.03999999999996,23.964000000000055 219.47000000000003,23.964000000000055 C219.8499999999999,23.964000000000055 220.1500000000001,24.065000000000055 220.3800000000001,24.269000000000005 C220.6099999999999,24.47199999999998 220.72000000000003,24.735000000000014 220.72000000000003,25.057999999999993 C220.72000000000003,25.275999999999954 220.67000000000007,25.46900000000005 220.54999999999995,25.635999999999967 C220.44000000000005,25.80200000000002 220.24,25.979000000000042 219.97000000000003,26.16700000000003 C220.28999999999996,26.30200000000002 220.52999999999997,26.476999999999975 220.72000000000003,26.690000000000055 C220.9000000000001,26.903999999999996 220.99,27.214000000000055 220.99,27.620000000000005 C220.99,28.182999999999993 220.76999999999998,28.633000000000038 220.33999999999992,28.97199999999998 C219.91000000000008,29.309999999999945 219.3699999999999,29.479000000000042 218.74,29.479000000000042 C218.46000000000004,29.479000000000042 218.24,29.437999999999988 218.06999999999994,29.354000000000042 C217.91000000000008,29.270999999999958 217.82999999999993,29.15700000000004 217.82999999999993,29.010999999999967 C217.82999999999993,28.92700000000002 217.8599999999999,28.860000000000014 217.92000000000007,28.807999999999993 C217.98000000000002,28.754999999999995 218.04999999999995,28.729000000000042 218.1300000000001,28.729000000000042" />
</svg>
