<?xml version="1.0" encoding="UTF-8" standalone="yes"?>
<svg width="256.0px" height="256.0px" xmlns="http://www.w3.org/2000/svg" xmlns:xlink="http://www.w3.org/1999/xlink" version="1.2" baseProfile="tiny">
<path d="M33.5,10.518000000000029 L33.5,12.065000000000055 C33.5,12.616999999999962 33.5,13.05499999999995 33.5,13.378000000000043 C34.0,13.013000000000034 34.29999999999927,12.741999999999962 34.5,12.565000000000055 C34.70000000000073,12.356999999999971 34.899999999999636,12.067999999999984 35.100000000000364,11.697999999999979 C35.29999999999927,11.327999999999975 35.399999999999636,10.961000000000013 35.399999999999636,10.596000000000004 C35.399999999999636,10.231999999999971 35.29999999999927,9.918999999999983 35.20000000000073,9.658999999999992 C35.0,9.399000000000001 34.79999999999927,9.268000000000029 34.5,9.268000000000029 C34.20000000000073,9.268000000000029 34.0,9.388000000000034 33.79999999999927,9.628000000000043 C33.600000000000364,9.888000000000034 33.5,10.184999999999945 33.5,10.518000000000029 M32.600000000000364,14.096000000000004 L32.399999999999636,2.2060000000000173 C32.600000000000364,2.1019999999999754 32.79999999999927,2.0499999999999545 32.899999999999636,2.0499999999999545 C33.100000000000364,2.0499999999999545 33.29999999999927,2.1019999999999754 33.5,2.2060000000000173 L33.29999999999927,9.096000000000004 C33.79999999999927,8.638000000000034 34.5,8.408999999999992 35.20000000000073,8.408999999999992 C35.70000000000073,8.408999999999992 36.100000000000364,8.616999999999962 36.399999999999636,9.033999999999992 C36.79999999999927,9.451000000000022 36.899999999999636,9.92999999999995 36.899999999999636,10.471000000000004 C36.899999999999636,10.80499999999995 36.79999999999927,11.163999999999987 36.600000000000364,11.549999999999955 C36.399999999999636,11.893000000000029 36.20000000000073,12.163999999999987 35.899999999999636,12.361999999999966 C35.79999999999927,12.466000000000008 35.5,12.726999999999975 34.899999999999636,13.143000000000029 C34.79999999999927,13.258000000000038 34.600000000000364,13.393000000000029 34.399999999999636,13.549999999999955 C34.20000000000073,13.706000000000017 34.0,13.80499999999995 34.0,13.846000000000004 C33.899999999999636,13.899000000000001 33.79999999999927,14.003000000000043 33.70000000000073,14.158999999999992 C33.600000000000364,14.293999999999983 33.5,14.403999999999996 33.399999999999636,14.486999999999966 C33.29999999999927,14.57000000000005 33.20000000000073,14.611999999999966 33.100000000000364,14.611999999999966 C33.0,14.611999999999966 32.899999999999636,14.565000000000055 32.79999999999927,14.471000000000004 C32.70000000000073,14.378000000000043 32.600000000000364,14.253000000000043 32.600000000000364,14.096000000000004" />
<path d="M44.29999999999927,61.096000000000004 C44.5,61.096000000000004 44.70000000000073,61.17999999999995 44.899999999999636,61.346000000000004 C45.0,61.524 45.100000000000364,61.70100000000002 45.100000000000364,61.87800000000004 C45.100000000000364,62.15899999999999 44.79999999999927,62.513000000000034 44.29999999999927,62.940000000000055 C43.79999999999927,63.399 43.399999999999636,63.721000000000004 43.29999999999927,63.90899999999999 C43.29999999999927,64.05499999999995 43.100000000000364,64.38800000000003 42.899999999999636,64.90899999999999 C42.70000000000073,65.44000000000005 42.399999999999636,65.85699999999997 42.20000000000073,66.15899999999999 C41.899999999999636,66.44000000000005 41.600000000000364,66.58100000000002 41.29999999999927,66.58100000000002 C41.100000000000364,66.58100000000002 40.899999999999636,66.54399999999998 40.600000000000364,66.471 C40.20000000000073,66.38800000000003 40.0,66.346 39.79999999999927,66.346 C39.70000000000073,66.346 39.399999999999636,66.38800000000003 39.100000000000364,66.471 C38.79999999999927,66.55499999999995 38.600000000000364,66.596 38.399999999999636,66.596 C38.20000000000073,66.596 38.0,66.51300000000003 37.79999999999927,66.346 C37.70000000000073,66.149 37.70000000000073,65.971 37.70000000000073,65.81500000000005 C37.70000000000073,65.53399999999999 37.899999999999636,65.17999999999995 38.5,64.75300000000004 C39.0,64.29399999999998 39.29999999999927,63.971000000000004 39.399999999999636,63.78399999999999 C39.399999999999636,63.690000000000055 39.600000000000364,63.351999999999975 39.899999999999636,62.76800000000003 C40.100000000000364,62.236999999999966 40.29999999999927,61.82600000000002 40.600000000000364,61.53399999999999 C40.79999999999927,61.25300000000004 41.100000000000364,61.111999999999966 41.399999999999636,61.111999999999966 C41.600000000000364,61.111999999999966 41.79999999999927,61.149 42.100000000000364,61.221000000000004 C42.5,61.30499999999995 42.70000000000073,61.346000000000004 42.899999999999636,61.346000000000004 C43.0,61.346000000000004 43.29999999999927,61.30499999999995 43.600000000000364,61.221000000000004 C43.899999999999636,61.138000000000034 44.20000000000073,61.096000000000004 44.29999999999927,61.096000000000004" />
<path d="M42.100000000000364,81.096 C42.70000000000073,81.096 43.20000000000073,81.25800000000004 43.70000000000073,81.58100000000002 C44.100000000000364,81.93499999999995 44.20000000000073,82.37800000000004 44.20000000000073,82.90899999999999 C44.20000000000073,83.80499999999995 43.79999999999927,84.64300000000003 42.899999999999636,85.42499999999995 C41.899999999999636,86.20600000000002 40.899999999999636,86.596 39.899999999999636,86.596 C39.20000000000073,86.596 38.70000000000073,86.43499999999995 38.29999999999927,86.11199999999997 C37.899999999999636,85.75800000000004 37.70000000000073,85.31500000000005 37.70000000000073,84.78399999999999 C37.70000000000073,83.88800000000003 38.100000000000364,83.04999999999995 39.100000000000364,82.26800000000003 C40.0,81.48699999999997 41.0,81.096 42.100000000000364,81.096" />
<path d="M42.5,8.596000000000004 C43.100000000000364,8.596000000000004 43.600000000000364,8.758000000000038 44.100000000000364,9.081000000000017 C44.5,9.434999999999945 44.600000000000364,9.878000000000043 44.600000000000364,10.408999999999992 C44.600000000000364,11.30499999999995 44.20000000000073,12.143000000000029 43.29999999999927,12.924999999999955 C42.29999999999927,13.706000000000017 41.29999999999927,14.096000000000004 40.29999999999927,14.096000000000004 C39.600000000000364,14.096000000000004 39.100000000000364,13.934999999999945 38.70000000000073,13.611999999999966 C38.29999999999927,13.258000000000038 38.100000000000364,12.815000000000055 38.100000000000364,12.283999999999992 C38.100000000000364,11.388000000000034 38.5,10.549999999999955 39.5,9.768000000000029 C40.399999999999636,8.986999999999966 41.399999999999636,8.596000000000004 42.5,8.596000000000004" />
<path d="M11.299999999999272,71.096 C11.899999999999636,71.096 12.5,71.25800000000004 12.899999999999636,71.58100000000002 C13.299999999999272,71.93499999999995 13.5,72.37800000000004 13.5,72.90899999999999 C13.5,73.80499999999995 13.0,74.64300000000003 12.100000000000364,75.42499999999995 C11.200000000000728,76.20600000000002 10.200000000000728,76.596 9.100000000000364,76.596 C8.5,76.596 8.0,76.43499999999995 7.5,76.11199999999997 C7.100000000000364,75.75800000000004 6.899999999999636,75.31500000000005 6.899999999999636,74.78399999999999 C6.899999999999636,73.88800000000003 7.399999999999636,73.04999999999995 8.299999999999272,72.26800000000003 C9.200000000000728,71.48699999999997 10.200000000000728,71.096 11.299999999999272,71.096" />
<path d="M227.20000000000073,20.51800000000003 L227.20000000000073,22.065000000000055 C227.20000000000073,22.616999999999962 227.29999999999927,23.05499999999995 227.29999999999927,23.378000000000043 C227.70000000000073,23.013000000000034 228.0,22.741999999999962 228.20000000000073,22.565000000000055 C228.39999999999964,22.35699999999997 228.70000000000073,22.067999999999984 228.89999999999964,21.69799999999998 C229.10000000000036,21.327999999999975 229.20000000000073,20.961000000000013 229.20000000000073,20.596000000000004 C229.20000000000073,20.23199999999997 229.10000000000036,19.918999999999983 228.89999999999964,19.658999999999992 C228.79999999999927,19.399 228.60000000000036,19.26800000000003 228.29999999999927,19.26800000000003 C228.0,19.26800000000003 227.70000000000073,19.388000000000034 227.5,19.628000000000043 C227.29999999999927,19.888000000000034 227.20000000000073,20.184999999999945 227.20000000000073,20.51800000000003 M226.39999999999964,24.096000000000004 L226.20000000000073,12.206000000000017 C226.29999999999927,12.101999999999975 226.5,12.049999999999955 226.70000000000073,12.049999999999955 C226.89999999999964,12.049999999999955 227.10000000000036,12.101999999999975 227.29999999999927,12.206000000000017 L227.10000000000036,19.096000000000004 C227.60000000000036,18.638000000000034 228.20000000000073,18.408999999999992 228.89999999999964,18.408999999999992 C229.39999999999964,18.408999999999992 229.89999999999964,18.616999999999962 230.20000000000073,19.033999999999992 C230.5,19.451000000000022 230.70000000000073,19.92999999999995 230.70000000000073,20.471000000000004 C230.70000000000073,20.80499999999995 230.60000000000036,21.163999999999987 230.39999999999964,21.549999999999955 C230.20000000000073,21.89300000000003 230.0,22.163999999999987 229.70000000000073,22.361999999999966 C229.60000000000036,22.466000000000008 229.29999999999927,22.726999999999975 228.70000000000073,23.14300000000003 C228.60000000000036,23.258000000000038 228.39999999999964,23.39300000000003 228.20000000000073,23.549999999999955 C228.0,23.706000000000017 227.79999999999927,23.80499999999995 227.79999999999927,23.846000000000004 C227.70000000000073,23.899 227.60000000000036,24.003000000000043 227.5,24.158999999999992 C227.39999999999964,24.293999999999983 227.29999999999927,24.403999999999996 227.20000000000073,24.486999999999966 C227.10000000000036,24.57000000000005 227.0,24.611999999999966 226.89999999999964,24.611999999999966 C226.70000000000073,24.611999999999966 226.60000000000036,24.565000000000055 226.5,24.471000000000004 C226.5,24.378000000000043 226.39999999999964,24.253000000000043 226.39999999999964,24.096000000000004" />
<path d="M194.10000000000036,22.581000000000017 C194.10000000000036,22.831000000000017 194.0,22.956000000000017 193.79999999999927,22.956000000000017 C193.5,22.956000000000017 193.39999999999964,22.831000000000017 193.39999999999964,22.581000000000017 L193.39999999999964,19.690000000000055 L191.79999999999927,20.315000000000055 L191.79999999999927,23.471000000000004 C191.79999999999927,23.721000000000004 191.60000000000036,23.846000000000004 191.39999999999964,23.846000000000004 C191.10000000000036,23.846000000000004 191.0,23.721000000000004 191.0,23.471000000000004 L191.0,20.565000000000055 L190.39999999999964,20.799999999999955 C190.39999999999964,20.809999999999945 190.29999999999927,20.815000000000055 190.20000000000073,20.815000000000055 C190.10000000000036,20.815000000000055 190.0,20.775999999999954 189.89999999999964,20.69799999999998 C189.89999999999964,20.620000000000005 189.79999999999927,20.528999999999996 189.79999999999927,20.424999999999955 L189.79999999999927,19.221000000000004 C189.79999999999927,19.024 189.89999999999964,18.899 190.10000000000036,18.846000000000004 L191.0,18.533999999999992 L191.0,15.331000000000017 L190.39999999999964,15.549999999999955 C190.39999999999964,15.559999999999945 190.29999999999927,15.565000000000055 190.20000000000073,15.565000000000055 C190.10000000000036,15.565000000000055 190.0,15.525999999999954 189.89999999999964,15.447999999999979 C189.89999999999964,15.370000000000005 189.79999999999927,15.278999999999996 189.79999999999927,15.174999999999955 L189.79999999999927,13.956000000000017 C189.79999999999927,13.778999999999996 189.89999999999964,13.663999999999987 190.10000000000036,13.611999999999966 L191.0,13.253000000000043 L191.0,10.111999999999966 C191.0,9.861999999999966 191.10000000000036,9.736999999999966 191.39999999999964,9.736999999999966 C191.60000000000036,9.736999999999966 191.79999999999927,9.861999999999966 191.79999999999927,10.111999999999966 L191.79999999999927,13.003000000000043 L193.39999999999964,12.378000000000043 L193.39999999999964,9.221000000000004 C193.39999999999964,8.971000000000004 193.5,8.846000000000004 193.79999999999927,8.846000000000004 C194.0,8.846000000000004 194.10000000000036,8.971000000000004 194.10000000000036,9.221000000000004 L194.10000000000036,12.128000000000043 L194.79999999999927,11.893000000000029 C194.79999999999927,11.883000000000038 194.89999999999964,11.878000000000043 194.89999999999964,11.878000000000043 C195.0,11.878000000000043 195.10000000000036,11.913999999999987 195.20000000000073,11.986999999999966 C195.29999999999927,12.07000000000005 195.29999999999927,12.163999999999987 195.29999999999927,12.268000000000029 L195.29999999999927,13.471000000000004 C195.29999999999927,13.658999999999992 195.29999999999927,13.783999999999992 195.10000000000036,13.846000000000004 L194.10000000000036,14.158999999999992 L194.10000000000036,17.361999999999966 L194.79999999999927,17.14300000000003 C194.79999999999927,17.133000000000038 194.89999999999964,17.128000000000043 194.89999999999964,17.128000000000043 C195.0,17.128000000000043 195.10000000000036,17.168999999999983 195.20000000000073,17.253000000000043 C195.29999999999927,17.326000000000022 195.29999999999927,17.413999999999987 195.29999999999927,17.51800000000003 L195.29999999999927,18.736999999999966 C195.29999999999927,18.903999999999996 195.29999999999927,19.01800000000003 195.10000000000036,19.081000000000017 L194.10000000000036,19.440000000000055 L194.10000000000036,22.581000000000017 M193.39999999999964,14.456000000000017 L191.79999999999927,15.033999999999992 L191.79999999999927,18.236999999999966 L193.39999999999964,17.658999999999992 L193.39999999999964,14.456000000000017" />
<path d="M253.89999999999964,71.096 C254.5,71.096 255.0,71.25800000000004 255.5,71.58100000000002 C255.89999999999964,71.93499999999995 256.10000000000036,72.37800000000004 256.10000000000036,72.90899999999999 C256.10000000000036,73.80499999999995 255.60000000000036,74.64300000000003 254.70000000000073,75.42499999999995 C253.79999999999927,76.20600000000002 252.79999999999927,76.596 251.70000000000073,76.596 C251.10000000000036,76.596 250.5,76.43499999999995 250.10000000000036,76.11199999999997 C249.70000000000073,75.75800000000004 249.5,75.31500000000005 249.5,74.78399999999999 C249.5,73.88800000000003 250.0,73.04999999999995 250.89999999999964,72.26800000000003 C251.79999999999927,71.48699999999997 252.79999999999927,71.096 253.89999999999964,71.096" />
<path d="M236.20000000000073,68.596 C236.89999999999964,68.596 237.39999999999964,68.75800000000004 237.79999999999927,69.08100000000002 C238.20000000000073,69.43499999999995 238.39999999999964,69.87800000000004 238.39999999999964,70.40899999999999 C238.39999999999964,71.30499999999995 238.0,72.14300000000003 237.10000000000036,72.92499999999995 C236.10000000000036,73.70600000000002 235.10000000000036,74.096 234.0,74.096 C233.39999999999964,74.096 232.89999999999964,73.93499999999995 232.5,73.61199999999997 C232.10000000000036,73.25800000000004 231.79999999999927,72.81500000000005 231.79999999999927,72.28399999999999 C231.79999999999927,71.38800000000003 232.29999999999927,70.54999999999995 233.29999999999927,69.76800000000003 C234.20000000000073,68.98699999999997 235.20000000000073,68.596 236.20000000000073,68.596" />
<path d="M236.20000000000073,18.596000000000004 C236.89999999999964,18.596000000000004 237.39999999999964,18.758000000000038 237.79999999999927,19.081000000000017 C238.20000000000073,19.434999999999945 238.39999999999964,19.878000000000043 238.39999999999964,20.408999999999992 C238.39999999999964,21.30499999999995 238.0,22.14300000000003 237.10000000000036,22.924999999999955 C236.10000000000036,23.706000000000017 235.10000000000036,24.096000000000004 234.0,24.096000000000004 C233.39999999999964,24.096000000000004 232.89999999999964,23.934999999999945 232.5,23.611999999999966 C232.10000000000036,23.258000000000038 231.79999999999927,22.815000000000055 231.79999999999927,22.283999999999992 C231.79999999999927,21.388000000000034 232.29999999999927,20.549999999999955 233.29999999999927,19.76800000000003 C234.20000000000073,18.986999999999966 235.20000000000073,18.596000000000004 236.20000000000073,18.596000000000004" />
<path d="M218.60000000000036,71.096 C219.20000000000073,71.096 219.79999999999927,71.25800000000004 220.20000000000073,71.58100000000002 C220.60000000000036,71.93499999999995 220.79999999999927,72.37800000000004 220.79999999999927,72.90899999999999 C220.79999999999927,73.80499999999995 220.29999999999927,74.64300000000003 219.39999999999964,75.42499999999995 C218.5,76.20600000000002 217.5,76.596 216.39999999999964,76.596 C215.79999999999927,76.596 215.20000000000073,76.43499999999995 214.79999999999927,76.11199999999997 C214.39999999999964,75.75800000000004 214.20000000000073,75.31500000000005 214.20000000000073,74.78399999999999 C214.20000000000073,73.88800000000003 214.70000000000073,73.04999999999995 215.60000000000036,72.26800000000003 C216.5,71.48699999999997 217.5,71.096 218.60000000000036,71.096" />
<path d="M200.79999999999927,68.596 C201.5,68.596 202.0,68.75800000000004 202.39999999999964,69.08100000000002 C202.79999999999927,69.43499999999995 203.0,69.87800000000004 203.0,70.40899999999999 C203.0,71.30499999999995 202.60000000000036,72.14300000000003 201.60000000000036,72.92499999999995 C200.70000000000073,73.70600000000002 199.70000000000073,74.096 198.60000000000036,74.096 C198.0,74.096 197.5,73.93499999999995 197.0,73.61199999999997 C196.60000000000036,73.25800000000004 196.39999999999964,72.81500000000005 196.39999999999964,72.28399999999999 C196.39999999999964,71.38800000000003 196.89999999999964,70.54999999999995 197.79999999999927,69.76800000000003 C198.79999999999927,68.98699999999997 199.79999999999927,68.596 200.79999999999927,68.596" />
<path d="M200.79999999999927,13.596000000000004 C201.5,13.596000000000004 202.0,13.758000000000038 202.39999999999964,14.081000000000017 C202.79999999999927,14.434999999999945 203.0,14.878000000000043 203.0,15.408999999999992 C203.0,16.30499999999995 202.60000000000036,17.14300000000003 201.60000000000036,17.924999999999955 C200.70000000000073,18.706000000000017 199.70000000000073,19.096000000000004 198.60000000000036,19.096000000000004 C198.0,19.096000000000004 197.5,18.934999999999945 197.0,18.611999999999966 C196.60000000000036,18.258000000000038 196.39999999999964,17.815000000000055 196.39999999999964,17.283999999999992 C196.39999999999964,16.388000000000034 196.89999999999964,15.549999999999955 197.79999999999927,14.768000000000029 C198.79999999999927,13.986999999999966 199.79999999999927,13.596000000000004 200.79999999999927,13.596000000000004" />
<path d="M171.70000000000073,81.346 L169.79999999999927,81.346 C169.70000000000073,81.346 169.60000000000036,81.28399999999999 169.60000000000036,81.15899999999999 L169.60000000000036,71.53399999999999 C169.60000000000036,71.40899999999999 169.70000000000073,71.346 169.79999999999927,71.346 L171.70000000000073,71.346 C171.79999999999927,71.346 171.89999999999964,71.40899999999999 171.89999999999964,71.53399999999999 L171.89999999999964,81.15899999999999 C171.89999999999964,81.28399999999999 171.79999999999927,81.346 171.70000000000073,81.346 M167.20000000000073,81.346 L165.39999999999964,81.346 C165.29999999999927,81.346 165.20000000000073,81.28399999999999 165.20000000000073,81.15899999999999 L165.20000000000073,71.53399999999999 C165.20000000000073,71.40899999999999 165.29999999999927,71.346 165.39999999999964,71.346 L167.20000000000073,71.346 C167.39999999999964,71.346 167.5,71.40899999999999 167.5,71.53399999999999 L167.5,81.15899999999999 C167.5,81.28399999999999 167.39999999999964,81.346 167.20000000000073,81.346" />
<path d="M167.20000000000073,37.40899999999999 C167.5,37.04399999999998 167.70000000000073,36.70600000000002 167.70000000000073,36.39300000000003 C167.70000000000073,36.101999999999975 167.5,35.88300000000004 167.29999999999927,35.736999999999966 C167.10000000000036,35.58100000000002 166.79999999999927,35.50300000000004 166.5,35.50300000000004 C166.29999999999927,35.50300000000004 166.10000000000036,35.57600000000002 166.0,35.721000000000004 C165.79999999999927,35.85699999999997 165.79999999999927,36.01800000000003 165.79999999999927,36.20600000000002 C165.79999999999927,36.44500000000005 165.89999999999964,36.62199999999996 166.10000000000036,36.736999999999966 L167.20000000000073,37.40899999999999 M167.5,37.565000000000055 C168.0,37.85699999999997 168.29999999999927,38.263000000000034 168.29999999999927,38.78399999999999 C168.29999999999927,38.78399999999999 168.29999999999927,38.80499999999995 168.29999999999927,38.846000000000004 C168.29999999999927,39.24199999999996 168.10000000000036,39.57600000000002 167.79999999999927,39.846000000000004 C167.5,40.12800000000004 167.0,40.26800000000003 166.39999999999964,40.26800000000003 C165.89999999999964,40.26800000000003 165.5,40.138000000000034 165.10000000000036,39.87800000000004 C164.79999999999927,39.638000000000034 164.60000000000036,39.309999999999945 164.60000000000036,38.89300000000003 C164.60000000000036,38.70600000000002 164.60000000000036,38.53899999999999 164.70000000000073,38.39300000000003 C164.79999999999927,38.226999999999975 164.89999999999964,38.111999999999966 165.0,38.049999999999955 C165.0,38.049999999999955 165.10000000000036,37.924999999999955 165.39999999999964,37.674999999999955 C165.0,37.403999999999996 164.70000000000073,37.05499999999995 164.70000000000073,36.62800000000004 C164.70000000000073,36.263000000000034 164.89999999999964,35.940000000000055 165.20000000000073,35.65899999999999 C165.5,35.399 166.0,35.26800000000003 166.5,35.26800000000003 C167.0,35.26800000000003 167.29999999999927,35.36699999999996 167.60000000000036,35.565000000000055 C168.0,35.763000000000034 168.10000000000036,36.03899999999999 168.10000000000036,36.39300000000003 C168.10000000000036,36.726999999999975 167.89999999999964,37.11699999999996 167.5,37.565000000000055 M165.70000000000073,37.846000000000004 C165.29999999999927,38.190000000000055 165.10000000000036,38.53899999999999 165.0,38.89300000000003 C165.10000000000036,39.226999999999975 165.20000000000073,39.49699999999996 165.5,39.70600000000002 C165.70000000000073,39.924999999999955 166.10000000000036,40.03399999999999 166.39999999999964,40.03399999999999 C166.70000000000073,40.03399999999999 166.89999999999964,39.95100000000002 167.10000000000036,39.78399999999999 C167.20000000000073,39.62800000000004 167.29999999999927,39.434999999999945 167.29999999999927,39.20600000000002 C167.29999999999927,38.924999999999955 167.10000000000036,38.721000000000004 166.89999999999964,38.596000000000004 L165.70000000000073,37.846000000000004 M173.29999999999927,17.065000000000055 C173.10000000000036,16.866999999999962 173.0,16.625 173.0,16.339000000000055 C173.0,16.05200000000002 173.10000000000036,15.812999999999988 173.29999999999927,15.620000000000005 C173.5,15.427000000000021 173.70000000000073,15.331000000000017 174.0,15.331000000000017 C174.29999999999927,15.331000000000017 174.5,15.427000000000021 174.70000000000073,15.620000000000005 C174.89999999999964,15.812999999999988 175.0,16.05200000000002 175.0,16.339000000000055 C175.0,16.625 174.89999999999964,16.866999999999962 174.70000000000073,17.065000000000055 C174.5,17.263000000000034 174.29999999999927,17.361999999999966 174.0,17.361999999999966 C173.70000000000073,17.361999999999966 173.5,17.263000000000034 173.29999999999927,17.065000000000055 M173.29999999999927,22.07299999999998 C173.10000000000036,21.879999999999995 173.0,21.640999999999963 173.0,21.354000000000042 C173.0,21.067999999999984 173.10000000000036,20.826000000000022 173.29999999999927,20.628000000000043 C173.5,20.42999999999995 173.70000000000073,20.331000000000017 174.0,20.331000000000017 C174.29999999999927,20.331000000000017 174.5,20.42999999999995 174.70000000000073,20.628000000000043 C174.89999999999964,20.826000000000022 175.0,21.067999999999984 175.0,21.354000000000042 C175.0,21.640999999999963 174.89999999999964,21.879999999999995 174.70000000000073,22.07299999999998 C174.5,22.265999999999963 174.29999999999927,22.361999999999966 174.0,22.361999999999966 C173.70000000000073,22.361999999999966 173.5,22.265999999999963 173.29999999999927,22.07299999999998 M166.5,13.596000000000004 C168.20000000000073,13.596000000000004 169.70000000000073,14.028999999999996 170.79999999999927,14.893000000000029 C171.79999999999927,15.809999999999945 172.39999999999964,17.049999999999955 172.39999999999964,18.611999999999966 C172.39999999999964,19.663999999999987 172.20000000000073,20.628000000000043 171.70000000000073,21.503000000000043 C171.39999999999964,22.418999999999983 170.79999999999927,23.226999999999975 170.20000000000073,23.924999999999955 C169.5,24.64300000000003 168.79999999999927,25.32000000000005 167.79999999999927,25.956000000000017 C166.89999999999964,26.581000000000017 166.0,27.14300000000003 165.10000000000036,27.64300000000003 C163.10000000000036,28.611999999999966 162.10000000000036,29.096000000000004 161.89999999999964,29.096000000000004 C161.70000000000073,29.096000000000004 161.60000000000036,29.013000000000034 161.60000000000036,28.846000000000004 C161.60000000000036,28.783999999999992 161.60000000000036,28.726999999999975 161.70000000000073,28.674999999999955 C162.39999999999964,28.278999999999996 163.20000000000073,27.778999999999996 164.10000000000036,27.174999999999955 C164.70000000000073,26.76800000000003 165.5,26.206000000000017 166.29999999999927,25.486999999999966 C167.10000000000036,24.809999999999945 167.70000000000073,24.174999999999955 168.20000000000073,23.581000000000017 C168.60000000000036,22.986999999999966 169.10000000000036,22.258000000000038 169.39999999999964,21.39300000000003 C169.79999999999927,20.51800000000003 169.89999999999964,19.653999999999996 169.89999999999964,18.799999999999955 C169.89999999999964,17.538999999999987 169.60000000000036,16.440000000000055 169.0,15.503000000000043 C168.39999999999964,14.565000000000055 167.5,14.096000000000004 166.5,14.096000000000004 C165.79999999999927,14.096000000000004 165.20000000000073,14.331000000000017 164.60000000000036,14.799999999999955 C164.10000000000036,15.278999999999996 163.70000000000073,15.883000000000038 163.39999999999964,16.611999999999966 C163.70000000000073,16.508000000000038 163.89999999999964,16.456000000000017 164.10000000000036,16.456000000000017 C164.60000000000036,16.456000000000017 165.10000000000036,16.653999999999996 165.5,17.049999999999955 C165.89999999999964,17.466000000000008 166.10000000000036,17.940000000000055 166.10000000000036,18.471000000000004 C166.10000000000036,19.033999999999992 165.89999999999964,19.538999999999987 165.5,19.986999999999966 C165.10000000000036,20.383000000000038 164.60000000000036,20.581000000000017 164.10000000000036,20.581000000000017 C163.5,20.581000000000017 163.0,20.383000000000038 162.5,19.986999999999966 C162.10000000000036,19.538999999999987 161.89999999999964,19.033999999999992 161.89999999999964,18.471000000000004 C161.89999999999964,17.128000000000043 162.29999999999927,15.981999999999971 163.20000000000073,15.033999999999992 C164.10000000000036,14.076000000000022 165.20000000000073,13.596000000000004 166.5,13.596000000000004" />
<path d="M196.39999999999964,88.846 L250.10000000000036,88.846 L250.10000000000036,91.346 L196.39999999999964,91.346 L196.39999999999964,88.846" />
<path d="M196.39999999999964,85.096 L250.10000000000036,85.096 L250.10000000000036,87.596 L196.39999999999964,87.596 L196.39999999999964,85.096" />
<path d="M202.39999999999964,1.3010000000000446 L309.10000000000036,8.846000000000004 L309.10000000000036,11.346000000000004 L202.39999999999964,3.8010000000000446 L202.39999999999964,1.3010000000000446" />
<polyline points="0.0,13.846000000000004 101.20000000000073,13.846000000000004" fill="none" stroke="#000000" stroke-width="0.40" />
<polyline points="0.0,18.846000000000004 101.20000000000073,18.846000000000004" fill="none" stroke="#000000" stroke-width="0.40" />
<polyline points="0.0,23.846000000000004 101.20000000000073,23.846000000000004" fill="none" stroke="#000000" stroke-width="0.40" />
<polyline points="0.0,28.846000000000004 101.20000000000073,28.846000000000004" fill="none" stroke="#000000" stroke-width="0.40" />
<polyline points="0.0,33.846000000000004 101.20000000000073,33.846000000000004" fill="none" stroke="#000000" stroke-width="0.40" />
<polyline points="0.0,66.346 101.20000000000073,66.346" fill="none" stroke="#000000" stroke-width="0.40" />
<polyline points="0.0,71.346 101.20000000000073,71.346" fill="none" stroke="#000000" stroke-width="0.40" />
<polyline points="0.0,76.346 101.20000000000073,76.346" fill="none" stroke="#000000" stroke-width="0.40" />
<polyline points="0.0,81.346 101.20000000000073,81.346" fill="none" stroke="#000000" stroke-width="0.40" />
<polyline points="0.0,86.346 101.20000000000073,86.346" fill="none" stroke="#000000" stroke-width="0.40" />
<polyline points="100.79999999999927,66.346 100.79999999999927,86.346" fill="" stroke="#000000" stroke-width="0.80" />
<polyline points="100.79999999999927,13.846000000000004 100.79999999999927,33.846000000000004" fill="" stroke="#000000" stroke-width="0.80" />
<polyline points="38.0,65.90999999999997 38.0,101.346" fill="" stroke="#000000" stroke-width="0.65" />
<polyline points="38.399999999999636,12.285999999999945 38.399999999999636,27.596000000000004" fill="" stroke="#000000" stroke-width="0.65" />
<polyline points="7.200000000000728,74.78599999999994 7.200000000000728,98.24199999999996" fill="" stroke="#000000" stroke-width="0.65" />
<polyline points="157.89999999999964,13.846000000000004 255.0,13.846000000000004" fill="none" stroke="#000000" stroke-width="0.40" />
<polyline points="157.89999999999964,18.846000000000004 255.0,18.846000000000004" fill="none" stroke="#000000" stroke-width="0.40" />
<polyline points="157.89999999999964,23.846000000000004 255.0,23.846000000000004" fill="none" stroke="#000000" stroke-width="0.40" />
<polyline points="157.89999999999964,28.846000000000004 255.0,28.846000000000004" fill="none" stroke="#000000" stroke-width="0.40" />
<polyline points="157.89999999999964,33.846000000000004 255.0,33.846000000000004" fill="none" stroke="#000000" stroke-width="0.40" />
<polyline points="157.89999999999964,66.346 255.0,66.346" fill="none" stroke="#000000" stroke-width="0.40" />
<polyline points="157.89999999999964,71.346 255.0,71.346" fill="none" stroke="#000000" stroke-width="0.40" />
<polyline points="157.89999999999964,76.346 255.0,76.346" fill="none" stroke="#000000" stroke-width="0.40" />
<polyline points="157.89999999999964,81.346 255.0,81.346" fill="none" stroke="#000000" stroke-width="0.40" />
<polyline points="157.89999999999964,86.346 255.0,86.346" fill="none" stroke="#000000" stroke-width="0.40" />
<polyline points="158.29999999999927,0.0 158.29999999999927,86.346" fill="" stroke="#000000" stroke-width="0.80" />
<polyline points="249.79999999999927,74.78599999999994 249.79999999999927,90.096" fill="" stroke="#000000" stroke-width="0.65" />
<polyline points="232.20000000000073,72.28599999999994 232.20000000000073,90.096" fill="" stroke="#000000" stroke-width="0.65" />
<polyline points="238.10000000000036,20.40700000000004 238.10000000000036,5.099000000000046" fill="" stroke="#000000" stroke-width="0.65" />
<polyline points="214.5,74.78599999999994 214.5,90.096" fill="" stroke="#000000" stroke-width="0.65" />
<polyline points="196.79999999999927,72.28599999999994 196.79999999999927,90.096" fill="" stroke="#000000" stroke-width="0.65" />
<polyline points="202.70000000000073,15.407000000000039 202.70000000000073,2.5960000000000036" fill="" stroke="#000000" stroke-width="0.65" />
</svg>
