<?xml version="1.0" encoding="UTF-8" standalone="yes"?>
<svg width="256.0px" height="256.0px" xmlns="http://www.w3.org/2000/svg" xmlns:xlink="http://www.w3.org/1999/xlink" version="1.2" baseProfile="tiny">
<path d="M145.52000000000044,76.54700000000003 C149.03000000000065,78.81299999999999 159.5599999999995,78.81299999999999 163.0699999999997,76.54700000000003 C159.5599999999995,79.61300000000006 149.03000000000065,79.61300000000006 145.52000000000044,76.54700000000003" />
<path d="M87.68000000000029,73.846 C91.19000000000051,70.77999999999997 101.71999999999935,70.77999999999997 105.22999999999956,73.846 C101.71999999999935,71.58000000000004 91.19000000000051,71.58000000000004 87.68000000000029,73.846" />
<path d="M29.850000000000364,76.54700000000003 C33.350000000000364,78.81299999999999 43.8799999999992,78.81299999999999 47.38999999999942,76.54700000000003 C43.8799999999992,79.61300000000006 33.350000000000364,79.61300000000006 29.850000000000364,76.54700000000003" />
<path d="M133.54000000000087,10.518000000000029 L133.54000000000087,12.065000000000055 C133.54000000000087,12.616999999999962 133.5599999999995,13.05499999999995 133.61000000000058,13.378000000000043 C134.04000000000087,13.013000000000034 134.35000000000036,12.741999999999962 134.54000000000087,12.565000000000055 C134.75,12.356999999999971 134.95000000000073,12.067999999999984 135.15999999999985,11.697999999999979 C135.3700000000008,11.327999999999975 135.46999999999935,10.961000000000013 135.46999999999935,10.596000000000004 C135.46999999999935,10.231999999999971 135.39999999999964,9.918999999999983 135.23999999999978,9.658999999999992 C135.07999999999993,9.399000000000001 134.8799999999992,9.268000000000029 134.61000000000058,9.268000000000029 C134.29999999999927,9.268000000000029 134.04000000000087,9.388000000000034 133.82999999999993,9.628000000000043 C133.63999999999942,9.888000000000034 133.54000000000087,10.184999999999945 133.54000000000087,10.518000000000029 M132.70999999999913,14.096000000000004 L132.45999999999913,2.2060000000000173 C132.64999999999964,2.1019999999999754 132.82999999999993,2.0499999999999545 133.01000000000022,2.0499999999999545 C133.20000000000073,2.0499999999999545 133.3799999999992,2.1019999999999754 133.54999999999927,2.2060000000000173 L133.39999999999964,9.096000000000004 C133.9300000000003,8.638000000000034 134.54000000000087,8.408999999999992 135.23999999999978,8.408999999999992 C135.73999999999978,8.408999999999992 136.15999999999985,8.616999999999962 136.5,9.033999999999992 C136.84000000000015,9.451000000000022 137.01000000000022,9.92999999999995 137.01000000000022,10.471000000000004 C137.01000000000022,10.80499999999995 136.89999999999964,11.163999999999987 136.6800000000003,11.549999999999955 C136.46999999999935,11.893000000000029 136.25,12.163999999999987 136.02000000000044,12.361999999999966 C135.88999999999942,12.466000000000008 135.54999999999927,12.726999999999975 135.02000000000044,13.143000000000029 C134.86000000000058,13.258000000000038 134.6800000000003,13.393000000000029 134.46999999999935,13.549999999999955 C134.25,13.706000000000017 134.1200000000008,13.80499999999995 134.0699999999997,13.846000000000004 C133.96999999999935,13.899000000000001 133.88999999999942,14.003000000000043 133.79999999999927,14.158999999999992 C133.71999999999935,14.293999999999983 133.61000000000058,14.403999999999996 133.48999999999978,14.486999999999966 C133.40999999999985,14.57000000000005 133.29999999999927,14.611999999999966 133.17000000000007,14.611999999999966 C133.04000000000087,14.611999999999966 132.9300000000003,14.565000000000055 132.85000000000036,14.471000000000004 C132.76000000000022,14.378000000000043 132.70999999999913,14.253000000000043 132.70999999999913,14.096000000000004" />
<path d="M75.70000000000073,28.01800000000003 L75.70000000000073,29.565000000000055 C75.70000000000073,30.116999999999962 75.71999999999935,30.55499999999995 75.78000000000065,30.878000000000043 C76.20000000000073,30.513000000000034 76.51000000000022,30.241999999999962 76.70000000000073,30.065000000000055 C76.90999999999985,29.85699999999997 77.1200000000008,29.567999999999984 77.31999999999971,29.19799999999998 C77.53000000000065,28.827999999999975 77.63999999999942,28.461000000000013 77.63999999999942,28.096000000000004 C77.63999999999942,27.73199999999997 77.55999999999949,27.418999999999983 77.39999999999964,27.158999999999992 C77.25,26.899 77.04000000000087,26.76800000000003 76.78000000000065,26.76800000000003 C76.45999999999913,26.76800000000003 76.20000000000073,26.888000000000034 76.0,27.128000000000043 C75.79999999999927,27.388000000000034 75.70000000000073,27.684999999999945 75.70000000000073,28.01800000000003 M74.8700000000008,31.596000000000004 L74.6200000000008,19.706000000000017 C74.80999999999949,19.601999999999975 74.98999999999978,19.549999999999955 75.18000000000029,19.549999999999955 C75.36000000000058,19.549999999999955 75.54000000000087,19.601999999999975 75.70999999999913,19.706000000000017 L75.55999999999949,26.596000000000004 C76.09000000000015,26.138000000000034 76.70000000000073,25.908999999999992 77.39999999999964,25.908999999999992 C77.89999999999964,25.908999999999992 78.31999999999971,26.116999999999962 78.65999999999985,26.533999999999992 C79.0,26.951000000000022 79.17000000000007,27.42999999999995 79.17000000000007,27.971000000000004 C79.17000000000007,28.30499999999995 79.05999999999949,28.663999999999987 78.84000000000015,29.049999999999955 C78.6299999999992,29.39300000000003 78.40999999999985,29.663999999999987 78.18000000000029,29.861999999999966 C78.04999999999927,29.966000000000008 77.70999999999913,30.226999999999975 77.18000000000029,30.64300000000003 C77.03000000000065,30.758000000000038 76.84000000000015,30.89300000000003 76.6299999999992,31.049999999999955 C76.40999999999985,31.206000000000017 76.28000000000065,31.30499999999995 76.22999999999956,31.346000000000004 C76.13999999999942,31.399 76.04999999999927,31.503000000000043 75.95999999999913,31.658999999999992 C75.8799999999992,31.793999999999983 75.78000000000065,31.903999999999996 75.64999999999964,31.986999999999966 C75.56999999999971,32.07000000000005 75.45999999999913,32.111999999999966 75.32999999999993,32.111999999999966 C75.20000000000073,32.111999999999966 75.09000000000015,32.065000000000055 75.01000000000022,31.971000000000004 C74.92000000000007,31.878000000000043 74.8700000000008,31.753000000000043 74.8700000000008,31.596000000000004" />
<path d="M167.14999999999964,63.12800000000004 L169.5599999999995,61.174999999999955 C169.6200000000008,61.12199999999996 169.6800000000003,61.096000000000004 169.72999999999956,61.096000000000004 C169.79999999999927,61.096000000000004 169.8700000000008,61.12199999999996 169.9300000000003,61.174999999999955 L170.34000000000015,61.486999999999966 C170.39999999999964,61.549999999999955 170.4300000000003,61.62800000000004 170.4300000000003,61.721000000000004 C170.4300000000003,61.78399999999999 170.39999999999964,61.861999999999966 170.34000000000015,61.95600000000002 L168.01000000000022,63.846000000000004 L170.34000000000015,65.73699999999997 C170.39999999999964,65.80999999999995 170.4300000000003,65.89099999999996 170.4300000000003,65.97900000000004 C170.4300000000003,66.06799999999998 170.39999999999964,66.14300000000003 170.34000000000015,66.20600000000002 L169.9300000000003,66.51800000000003 C169.8700000000008,66.57000000000005 169.79999999999927,66.596 169.72999999999956,66.596 C169.6800000000003,66.596 169.6200000000008,66.57000000000005 169.5599999999995,66.51800000000003 L167.14999999999964,64.56500000000005 L164.72999999999956,66.51800000000003 C164.67000000000007,66.57000000000005 164.61000000000058,66.596 164.5599999999995,66.596 C164.5,66.596 164.4300000000003,66.57000000000005 164.3700000000008,66.51800000000003 L163.95000000000073,66.20600000000002 C163.88999999999942,66.14300000000003 163.86000000000058,66.06500000000005 163.86000000000058,65.971 C163.86000000000058,65.90899999999999 163.88999999999942,65.83100000000002 163.95000000000073,65.73699999999997 L166.28000000000065,63.846000000000004 L163.95000000000073,61.95600000000002 C163.88999999999942,61.88300000000004 163.86000000000058,61.80200000000002 163.86000000000058,61.714000000000055 C163.86000000000058,61.625 163.88999999999942,61.549999999999955 163.95000000000073,61.486999999999966 L164.3700000000008,61.174999999999955 C164.4300000000003,61.12199999999996 164.5,61.096000000000004 164.5599999999995,61.096000000000004 C164.61000000000058,61.096000000000004 164.67000000000007,61.12199999999996 164.72999999999956,61.174999999999955 L167.14999999999964,63.12800000000004" />
<path d="M168.25,71.096 C168.8700000000008,71.096 169.39999999999964,71.25800000000004 169.84000000000015,71.58100000000002 C170.23999999999978,71.93499999999995 170.4300000000003,72.37800000000004 170.4300000000003,72.90899999999999 C170.4300000000003,73.80499999999995 169.96999999999935,74.64300000000003 169.0599999999995,75.42499999999995 C168.1200000000008,76.20600000000002 167.1200000000008,76.596 166.04000000000087,76.596 C165.42000000000007,76.596 164.88999999999942,76.43499999999995 164.45999999999913,76.11199999999997 C164.0599999999995,75.75800000000004 163.86000000000058,75.31500000000005 163.86000000000058,74.78399999999999 C163.86000000000058,73.88800000000003 164.3199999999997,73.04999999999995 165.26000000000022,72.26800000000003 C166.1800000000003,71.48699999999997 167.17000000000007,71.096 168.25,71.096" />
<path d="M168.25,81.096 C168.8700000000008,81.096 169.39999999999964,81.25800000000004 169.84000000000015,81.58100000000002 C170.23999999999978,81.93499999999995 170.4300000000003,82.37800000000004 170.4300000000003,82.90899999999999 C170.4300000000003,83.80499999999995 169.96999999999935,84.64300000000003 169.0599999999995,85.42499999999995 C168.1200000000008,86.20600000000002 167.1200000000008,86.596 166.04000000000087,86.596 C165.42000000000007,86.596 164.88999999999942,86.43499999999995 164.45999999999913,86.11199999999997 C164.0599999999995,85.75800000000004 163.86000000000058,85.31500000000005 163.86000000000058,84.78399999999999 C163.86000000000058,83.88800000000003 164.3199999999997,83.04999999999995 165.26000000000022,82.26800000000003 C166.1800000000003,81.48699999999997 167.17000000000007,81.096 168.25,81.096" />
<path d="M141.45000000000073,63.12800000000004 L143.85000000000036,61.174999999999955 C143.90999999999985,61.12199999999996 143.96999999999935,61.096000000000004 144.02000000000044,61.096000000000004 C144.10000000000036,61.096000000000004 144.15999999999985,61.12199999999996 144.22999999999956,61.174999999999955 L144.6299999999992,61.486999999999966 C144.70000000000073,61.549999999999955 144.72999999999956,61.62800000000004 144.72999999999956,61.721000000000004 C144.72999999999956,61.78399999999999 144.70000000000073,61.861999999999966 144.6299999999992,61.95600000000002 L142.3099999999995,63.846000000000004 L144.6299999999992,65.73699999999997 C144.70000000000073,65.80999999999995 144.72999999999956,65.89099999999996 144.72999999999956,65.97900000000004 C144.72999999999956,66.06799999999998 144.70000000000073,66.14300000000003 144.6299999999992,66.20600000000002 L144.22999999999956,66.51800000000003 C144.15999999999985,66.57000000000005 144.10000000000036,66.596 144.02000000000044,66.596 C143.96999999999935,66.596 143.90999999999985,66.57000000000005 143.85000000000036,66.51800000000003 L141.45000000000073,64.56500000000005 L139.02000000000044,66.51800000000003 C138.95999999999913,66.57000000000005 138.89999999999964,66.596 138.85000000000036,66.596 C138.79000000000087,66.596 138.72999999999956,66.57000000000005 138.65999999999985,66.51800000000003 L138.23999999999978,66.20600000000002 C138.1800000000003,66.14300000000003 138.14999999999964,66.06500000000005 138.14999999999964,65.971 C138.14999999999964,65.90899999999999 138.1800000000003,65.83100000000002 138.23999999999978,65.73699999999997 L140.5699999999997,63.846000000000004 L138.23999999999978,61.95600000000002 C138.1800000000003,61.88300000000004 138.14999999999964,61.80200000000002 138.14999999999964,61.714000000000055 C138.14999999999964,61.625 138.1800000000003,61.549999999999955 138.23999999999978,61.486999999999966 L138.65999999999985,61.174999999999955 C138.72999999999956,61.12199999999996 138.79000000000087,61.096000000000004 138.85000000000036,61.096000000000004 C138.89999999999964,61.096000000000004 138.95999999999913,61.12199999999996 139.02000000000044,61.174999999999955 L141.45000000000073,63.12800000000004" />
<path d="M142.54000000000087,71.096 C143.15999999999985,71.096 143.70000000000073,71.25800000000004 144.1299999999992,71.58100000000002 C144.53000000000065,71.93499999999995 144.72999999999956,72.37800000000004 144.72999999999956,72.90899999999999 C144.72999999999956,73.80499999999995 144.27000000000044,74.64300000000003 143.35000000000036,75.42499999999995 C142.40999999999985,76.20600000000002 141.40999999999985,76.596 140.34000000000015,76.596 C139.70999999999913,76.596 139.1900000000005,76.43499999999995 138.76000000000022,76.11199999999997 C138.35000000000036,75.75800000000004 138.14999999999964,75.31500000000005 138.14999999999964,74.78399999999999 C138.14999999999964,73.88800000000003 138.6200000000008,73.04999999999995 139.5599999999995,72.26800000000003 C140.46999999999935,71.48699999999997 141.46999999999935,71.096 142.54000000000087,71.096" />
<path d="M142.54000000000087,8.596000000000004 C143.15999999999985,8.596000000000004 143.70000000000073,8.758000000000038 144.1299999999992,9.081000000000017 C144.53000000000065,9.434999999999945 144.72999999999956,9.878000000000043 144.72999999999956,10.408999999999992 C144.72999999999956,11.30499999999995 144.27000000000044,12.143000000000029 143.35000000000036,12.924999999999955 C142.40999999999985,13.706000000000017 141.40999999999985,14.096000000000004 140.34000000000015,14.096000000000004 C139.70999999999913,14.096000000000004 139.1900000000005,13.934999999999945 138.76000000000022,13.611999999999966 C138.35000000000036,13.258000000000038 138.14999999999964,12.815000000000055 138.14999999999964,12.283999999999992 C138.14999999999964,11.388000000000034 138.6200000000008,10.549999999999955 139.5599999999995,9.768000000000029 C140.46999999999935,8.986999999999966 141.46999999999935,8.596000000000004 142.54000000000087,8.596000000000004" />
<path d="M126.46999999999935,16.096000000000004 C127.10000000000036,16.096000000000004 127.6299999999992,16.258000000000038 128.0699999999997,16.581000000000017 C128.45999999999913,16.934999999999945 128.65999999999985,17.378000000000043 128.65999999999985,17.908999999999992 C128.65999999999985,18.80499999999995 128.20000000000073,19.64300000000003 127.29000000000087,20.424999999999955 C126.35000000000036,21.206000000000017 125.34000000000015,21.596000000000004 124.27000000000044,21.596000000000004 C123.64999999999964,21.596000000000004 123.1200000000008,21.434999999999945 122.69000000000051,21.111999999999966 C122.29000000000087,20.758000000000038 122.07999999999993,20.315000000000055 122.07999999999993,19.783999999999992 C122.07999999999993,18.888000000000034 122.54999999999927,18.049999999999955 123.48999999999978,17.26800000000003 C124.40999999999985,16.486999999999966 125.39999999999964,16.096000000000004 126.46999999999935,16.096000000000004" />
<path d="M109.30999999999949,63.12800000000004 L111.71999999999935,61.174999999999955 C111.78000000000065,61.12199999999996 111.84000000000015,61.096000000000004 111.88999999999942,61.096000000000004 C111.96999999999935,61.096000000000004 112.03000000000065,61.12199999999996 112.10000000000036,61.174999999999955 L112.5,61.486999999999966 C112.55999999999949,61.549999999999955 112.60000000000036,61.62800000000004 112.60000000000036,61.721000000000004 C112.60000000000036,61.78399999999999 112.55999999999949,61.861999999999966 112.5,61.95600000000002 L110.17000000000007,63.846000000000004 L112.5,65.73699999999997 C112.55999999999949,65.80999999999995 112.60000000000036,65.89099999999996 112.60000000000036,65.97900000000004 C112.60000000000036,66.06799999999998 112.55999999999949,66.14300000000003 112.5,66.20600000000002 L112.10000000000036,66.51800000000003 C112.03000000000065,66.57000000000005 111.96999999999935,66.596 111.88999999999942,66.596 C111.84000000000015,66.596 111.78000000000065,66.57000000000005 111.71999999999935,66.51800000000003 L109.30999999999949,64.56500000000005 L106.88999999999942,66.51800000000003 C106.82999999999993,66.57000000000005 106.77000000000044,66.596 106.71999999999935,66.596 C106.65999999999985,66.596 106.60000000000036,66.57000000000005 106.53000000000065,66.51800000000003 L106.11000000000058,66.20600000000002 C106.04999999999927,66.14300000000003 106.02000000000044,66.06500000000005 106.02000000000044,65.971 C106.02000000000044,65.90899999999999 106.04999999999927,65.83100000000002 106.11000000000058,65.73699999999997 L108.44000000000051,63.846000000000004 L106.11000000000058,61.95600000000002 C106.04999999999927,61.88300000000004 106.02000000000044,61.80200000000002 106.02000000000044,61.714000000000055 C106.02000000000044,61.625 106.04999999999927,61.549999999999955 106.11000000000058,61.486999999999966 L106.53000000000065,61.174999999999955 C106.60000000000036,61.12199999999996 106.65999999999985,61.096000000000004 106.71999999999935,61.096000000000004 C106.77000000000044,61.096000000000004 106.82999999999993,61.12199999999996 106.88999999999942,61.174999999999955 L109.30999999999949,63.12800000000004" />
<path d="M110.40999999999985,71.096 C111.03000000000065,71.096 111.55999999999949,71.25800000000004 112.0,71.58100000000002 C112.39999999999964,71.93499999999995 112.60000000000036,72.37800000000004 112.60000000000036,72.90899999999999 C112.60000000000036,73.80499999999995 112.13999999999942,74.64300000000003 111.21999999999935,75.42499999999995 C110.28000000000065,76.20600000000002 109.28000000000065,76.596 108.20000000000073,76.596 C107.57999999999993,76.596 107.04999999999927,76.43499999999995 106.6299999999992,76.11199999999997 C106.21999999999935,75.75800000000004 106.02000000000044,75.31500000000005 106.02000000000044,74.78399999999999 C106.02000000000044,73.88800000000003 106.48999999999978,73.04999999999995 107.42000000000007,72.26800000000003 C108.34000000000015,71.48699999999997 109.32999999999993,71.096 110.40999999999985,71.096" />
<path d="M110.40999999999985,81.096 C111.03000000000065,81.096 111.55999999999949,81.25800000000004 112.0,81.58100000000002 C112.39999999999964,81.93499999999995 112.60000000000036,82.37800000000004 112.60000000000036,82.90899999999999 C112.60000000000036,83.80499999999995 112.13999999999942,84.64300000000003 111.21999999999935,85.42499999999995 C110.28000000000065,86.20600000000002 109.28000000000065,86.596 108.20000000000073,86.596 C107.57999999999993,86.596 107.04999999999927,86.43499999999995 106.6299999999992,86.11199999999997 C106.21999999999935,85.75800000000004 106.02000000000044,85.31500000000005 106.02000000000044,84.78399999999999 C106.02000000000044,83.88800000000003 106.48999999999978,83.04999999999995 107.42000000000007,82.26800000000003 C108.34000000000015,81.48699999999997 109.32999999999993,81.096 110.40999999999985,81.096" />
<path d="M110.40999999999985,16.096000000000004 C111.03000000000065,16.096000000000004 111.55999999999949,16.258000000000038 112.0,16.581000000000017 C112.39999999999964,16.934999999999945 112.60000000000036,17.378000000000043 112.60000000000036,17.908999999999992 C112.60000000000036,18.80499999999995 112.13999999999942,19.64300000000003 111.21999999999935,20.424999999999955 C110.28000000000065,21.206000000000017 109.28000000000065,21.596000000000004 108.20000000000073,21.596000000000004 C107.57999999999993,21.596000000000004 107.04999999999927,21.434999999999945 106.6299999999992,21.111999999999966 C106.21999999999935,20.758000000000038 106.02000000000044,20.315000000000055 106.02000000000044,19.783999999999992 C106.02000000000044,18.888000000000034 106.48999999999978,18.049999999999955 107.42000000000007,17.26800000000003 C108.34000000000015,16.486999999999966 109.32999999999993,16.096000000000004 110.40999999999985,16.096000000000004" />
<path d="M83.61000000000058,63.12800000000004 L86.01000000000022,61.174999999999955 C86.07999999999993,61.12199999999996 86.1299999999992,61.096000000000004 86.19000000000051,61.096000000000004 C86.26000000000022,61.096000000000004 86.32999999999993,61.12199999999996 86.38999999999942,61.174999999999955 L86.79999999999927,61.486999999999966 C86.86000000000058,61.549999999999955 86.88999999999942,61.62800000000004 86.88999999999942,61.721000000000004 C86.88999999999942,61.78399999999999 86.86000000000058,61.861999999999966 86.79999999999927,61.95600000000002 L84.46999999999935,63.846000000000004 L86.79999999999927,65.73699999999997 C86.86000000000058,65.80999999999995 86.88999999999942,65.89099999999996 86.88999999999942,65.97900000000004 C86.88999999999942,66.06799999999998 86.86000000000058,66.14300000000003 86.79999999999927,66.20600000000002 L86.38999999999942,66.51800000000003 C86.32999999999993,66.57000000000005 86.26000000000022,66.596 86.19000000000051,66.596 C86.1299999999992,66.596 86.07999999999993,66.57000000000005 86.01000000000022,66.51800000000003 L83.61000000000058,64.56500000000005 L81.19000000000051,66.51800000000003 C81.1200000000008,66.57000000000005 81.06999999999971,66.596 81.01000000000022,66.596 C80.95000000000073,66.596 80.88999999999942,66.57000000000005 80.82999999999993,66.51800000000003 L80.40999999999985,66.20600000000002 C80.34000000000015,66.14300000000003 80.30999999999949,66.06500000000005 80.30999999999949,65.971 C80.30999999999949,65.90899999999999 80.34000000000015,65.83100000000002 80.40999999999985,65.73699999999997 L82.72999999999956,63.846000000000004 L80.40999999999985,61.95600000000002 C80.34000000000015,61.88300000000004 80.30999999999949,61.80200000000002 80.30999999999949,61.714000000000055 C80.30999999999949,61.625 80.34000000000015,61.549999999999955 80.40999999999985,61.486999999999966 L80.82999999999993,61.174999999999955 C80.88999999999942,61.12199999999996 80.95000000000073,61.096000000000004 81.01000000000022,61.096000000000004 C81.06999999999971,61.096000000000004 81.1200000000008,61.12199999999996 81.19000000000051,61.174999999999955 L83.61000000000058,63.12800000000004" />
<path d="M84.70000000000073,71.096 C85.32999999999993,71.096 85.86000000000058,71.25800000000004 86.29999999999927,71.58100000000002 C86.69000000000051,71.93499999999995 86.88999999999942,72.37800000000004 86.88999999999942,72.90899999999999 C86.88999999999942,73.80499999999995 86.43000000000029,74.64300000000003 85.51000000000022,75.42499999999995 C84.57999999999993,76.20600000000002 83.56999999999971,76.596 82.5,76.596 C81.8700000000008,76.596 81.35000000000036,76.43499999999995 80.92000000000007,76.11199999999997 C80.51000000000022,75.75800000000004 80.30999999999949,75.31500000000005 80.30999999999949,74.78399999999999 C80.30999999999949,73.88800000000003 80.78000000000065,73.04999999999995 81.71999999999935,72.26800000000003 C82.6299999999992,71.48699999999997 83.6299999999992,71.096 84.70000000000073,71.096" />
<path d="M84.70000000000073,81.096 C85.32999999999993,81.096 85.86000000000058,81.25800000000004 86.29999999999927,81.58100000000002 C86.69000000000051,81.93499999999995 86.88999999999942,82.37800000000004 86.88999999999942,82.90899999999999 C86.88999999999942,83.80499999999995 86.43000000000029,84.64300000000003 85.51000000000022,85.42499999999995 C84.57999999999993,86.20600000000002 83.56999999999971,86.596 82.5,86.596 C81.8700000000008,86.596 81.35000000000036,86.43499999999995 80.92000000000007,86.11199999999997 C80.51000000000022,85.75800000000004 80.30999999999949,85.31500000000005 80.30999999999949,84.78399999999999 C80.30999999999949,83.88800000000003 80.78000000000065,83.04999999999995 81.71999999999935,82.26800000000003 C82.6299999999992,81.48699999999997 83.6299999999992,81.096 84.70000000000073,81.096" />
<path d="M84.70000000000073,26.096000000000004 C85.32999999999993,26.096000000000004 85.86000000000058,26.258000000000038 86.29999999999927,26.581000000000017 C86.69000000000051,26.934999999999945 86.88999999999942,27.378000000000043 86.88999999999942,27.908999999999992 C86.88999999999942,28.80499999999995 86.43000000000029,29.64300000000003 85.51000000000022,30.424999999999955 C84.57999999999993,31.206000000000017 83.56999999999971,31.596000000000004 82.5,31.596000000000004 C81.8700000000008,31.596000000000004 81.35000000000036,31.434999999999945 80.92000000000007,31.111999999999966 C80.51000000000022,30.758000000000038 80.30999999999949,30.315000000000055 80.30999999999949,29.783999999999992 C80.30999999999949,28.888000000000034 80.78000000000065,28.049999999999955 81.71999999999935,27.26800000000003 C82.6299999999992,26.486999999999966 83.6299999999992,26.096000000000004 84.70000000000073,26.096000000000004" />
<path d="M51.47999999999956,63.12800000000004 L53.8799999999992,61.174999999999955 C53.94000000000051,61.12199999999996 54.0,61.096000000000004 54.04999999999927,61.096000000000004 C54.1299999999992,61.096000000000004 54.19000000000051,61.12199999999996 54.26000000000022,61.174999999999955 L54.659999999999854,61.486999999999966 C54.72999999999956,61.549999999999955 54.76000000000022,61.62800000000004 54.76000000000022,61.721000000000004 C54.76000000000022,61.78399999999999 54.72999999999956,61.861999999999966 54.659999999999854,61.95600000000002 L52.340000000000146,63.846000000000004 L54.659999999999854,65.73699999999997 C54.72999999999956,65.80999999999995 54.76000000000022,65.89099999999996 54.76000000000022,65.97900000000004 C54.76000000000022,66.06799999999998 54.72999999999956,66.14300000000003 54.659999999999854,66.20600000000002 L54.26000000000022,66.51800000000003 C54.19000000000051,66.57000000000005 54.1299999999992,66.596 54.04999999999927,66.596 C54.0,66.596 53.94000000000051,66.57000000000005 53.8799999999992,66.51800000000003 L51.47999999999956,64.56500000000005 L49.04999999999927,66.51800000000003 C48.98999999999978,66.57000000000005 48.93000000000029,66.596 48.8799999999992,66.596 C48.81999999999971,66.596 48.76000000000022,66.57000000000005 48.69000000000051,66.51800000000003 L48.27000000000044,66.20600000000002 C48.20999999999913,66.14300000000003 48.18000000000029,66.06500000000005 48.18000000000029,65.971 C48.18000000000029,65.90899999999999 48.20999999999913,65.83100000000002 48.27000000000044,65.73699999999997 L50.600000000000364,63.846000000000004 L48.27000000000044,61.95600000000002 C48.20999999999913,61.88300000000004 48.18000000000029,61.80200000000002 48.18000000000029,61.714000000000055 C48.18000000000029,61.625 48.20999999999913,61.549999999999955 48.27000000000044,61.486999999999966 L48.69000000000051,61.174999999999955 C48.76000000000022,61.12199999999996 48.81999999999971,61.096000000000004 48.8799999999992,61.096000000000004 C48.93000000000029,61.096000000000004 48.98999999999978,61.12199999999996 49.04999999999927,61.174999999999955 L51.47999999999956,63.12800000000004" />
<path d="M52.56999999999971,71.096 C53.19000000000051,71.096 53.72999999999956,71.25800000000004 54.159999999999854,71.58100000000002 C54.55999999999949,71.93499999999995 54.76000000000022,72.37800000000004 54.76000000000022,72.90899999999999 C54.76000000000022,73.80499999999995 54.29999999999927,74.64300000000003 53.3799999999992,75.42499999999995 C52.44000000000051,76.20600000000002 51.44000000000051,76.596 50.3700000000008,76.596 C49.73999999999978,76.596 49.219999999999345,76.43499999999995 48.79000000000087,76.11199999999997 C48.3799999999992,75.75800000000004 48.18000000000029,75.31500000000005 48.18000000000029,74.78399999999999 C48.18000000000029,73.88800000000003 48.649999999999636,73.04999999999995 49.590000000000146,72.26800000000003 C50.5,71.48699999999997 51.5,71.096 52.56999999999971,71.096" />
<path d="M25.770000000000437,63.12800000000004 L28.18000000000029,61.174999999999955 C28.23999999999978,61.12199999999996 28.299999999999272,61.096000000000004 28.350000000000364,61.096000000000004 C28.420000000000073,61.096000000000004 28.48999999999978,61.12199999999996 28.549999999999272,61.174999999999955 L28.959999999999127,61.486999999999966 C29.020000000000437,61.549999999999955 29.049999999999272,61.62800000000004 29.049999999999272,61.721000000000004 C29.049999999999272,61.78399999999999 29.020000000000437,61.861999999999966 28.959999999999127,61.95600000000002 L26.6299999999992,63.846000000000004 L28.959999999999127,65.73699999999997 C29.020000000000437,65.80999999999995 29.049999999999272,65.89099999999996 29.049999999999272,65.97900000000004 C29.049999999999272,66.06799999999998 29.020000000000437,66.14300000000003 28.959999999999127,66.20600000000002 L28.549999999999272,66.51800000000003 C28.48999999999978,66.57000000000005 28.420000000000073,66.596 28.350000000000364,66.596 C28.299999999999272,66.596 28.23999999999978,66.57000000000005 28.18000000000029,66.51800000000003 L25.770000000000437,64.56500000000005 L23.350000000000364,66.51800000000003 C23.290000000000873,66.57000000000005 23.229999999999563,66.596 23.18000000000029,66.596 C23.110000000000582,66.596 23.049999999999272,66.57000000000005 22.98999999999978,66.51800000000003 L22.56999999999971,66.20600000000002 C22.5,66.14300000000003 22.469999999999345,66.06500000000005 22.469999999999345,65.971 C22.469999999999345,65.90899999999999 22.5,65.83100000000002 22.56999999999971,65.73699999999997 L24.899999999999636,63.846000000000004 L22.56999999999971,61.95600000000002 C22.5,61.88300000000004 22.469999999999345,61.80200000000002 22.469999999999345,61.714000000000055 C22.469999999999345,61.625 22.5,61.549999999999955 22.56999999999971,61.486999999999966 L22.98999999999978,61.174999999999955 C23.049999999999272,61.12199999999996 23.110000000000582,61.096000000000004 23.18000000000029,61.096000000000004 C23.229999999999563,61.096000000000004 23.290000000000873,61.12199999999996 23.350000000000364,61.174999999999955 L25.770000000000437,63.12800000000004" />
<path d="M26.860000000000582,71.096 C27.48999999999978,71.096 28.020000000000437,71.25800000000004 28.459999999999127,71.58100000000002 C28.850000000000364,71.93499999999995 29.049999999999272,72.37800000000004 29.049999999999272,72.90899999999999 C29.049999999999272,73.80499999999995 28.590000000000146,74.64300000000003 27.68000000000029,75.42499999999995 C26.73999999999978,76.20600000000002 25.729999999999563,76.596 24.659999999999854,76.596 C24.040000000000873,76.596 23.51000000000022,76.43499999999995 23.079999999999927,76.11199999999997 C22.68000000000029,75.75800000000004 22.469999999999345,75.31500000000005 22.469999999999345,74.78399999999999 C22.469999999999345,73.88800000000003 22.94000000000051,73.04999999999995 23.8799999999992,72.26800000000003 C24.799999999999272,71.48699999999997 25.790000000000873,71.096 26.860000000000582,71.096" />
<path d="M26.860000000000582,6.096000000000004 C27.48999999999978,6.096000000000004 28.020000000000437,6.258000000000038 28.459999999999127,6.581000000000017 C28.850000000000364,6.934999999999945 29.049999999999272,7.378000000000043 29.049999999999272,7.908999999999992 C29.049999999999272,8.80499999999995 28.590000000000146,9.643000000000029 27.68000000000029,10.424999999999955 C26.73999999999978,11.206000000000017 25.729999999999563,11.596000000000004 24.659999999999854,11.596000000000004 C24.040000000000873,11.596000000000004 23.51000000000022,11.434999999999945 23.079999999999927,11.111999999999966 C22.68000000000029,10.758000000000038 22.469999999999345,10.315000000000055 22.469999999999345,9.783999999999992 C22.469999999999345,8.888000000000034 22.94000000000051,8.049999999999955 23.8799999999992,7.268000000000029 C24.799999999999272,6.486999999999966 25.790000000000873,6.096000000000004 26.860000000000582,6.096000000000004" />
<path d="M10.799999999999272,13.596000000000004 C11.420000000000073,13.596000000000004 11.950000000000728,13.758000000000038 12.389999999999418,14.081000000000017 C12.790000000000873,14.434999999999945 12.989999999999782,14.878000000000043 12.989999999999782,15.408999999999992 C12.989999999999782,16.30499999999995 12.530000000000655,17.14300000000003 11.610000000000582,17.924999999999955 C10.670000000000073,18.706000000000017 9.670000000000073,19.096000000000004 8.590000000000146,19.096000000000004 C7.969999999999345,19.096000000000004 7.440000000000509,18.934999999999945 7.020000000000437,18.611999999999966 C6.610000000000582,18.258000000000038 6.4099999999998545,17.815000000000055 6.4099999999998545,17.283999999999992 C6.4099999999998545,16.388000000000034 6.8799999999992,15.549999999999955 7.809999999999491,14.768000000000029 C8.729999999999563,13.986999999999966 9.719999999999345,13.596000000000004 10.799999999999272,13.596000000000004" />
<path d="M182.42000000000007,19.736999999999966 C182.8199999999997,19.736999999999966 183.10000000000036,19.841000000000008 183.27000000000044,20.049999999999955 C183.4400000000005,20.278999999999996 183.54999999999927,20.503000000000043 183.59000000000015,20.721000000000004 C183.60000000000036,20.940000000000055 183.67000000000007,21.158999999999992 183.79999999999927,21.378000000000043 C183.8700000000008,21.586000000000013 184.01000000000022,21.690000000000055 184.21999999999935,21.690000000000055 C184.35000000000036,21.690000000000055 184.54999999999927,21.533999999999992 184.8099999999995,21.221000000000004 C185.10000000000036,20.85699999999997 185.29000000000087,20.596000000000004 185.3700000000008,20.440000000000055 C185.4400000000005,20.315000000000055 185.53000000000065,20.253000000000043 185.63999999999942,20.253000000000043 C185.63999999999942,20.253000000000043 185.64999999999964,20.253000000000043 185.67000000000007,20.253000000000043 C185.79000000000087,20.263000000000034 185.8700000000008,20.326000000000022 185.92000000000007,20.440000000000055 L182.34000000000015,33.846000000000004 C182.21999999999935,33.98199999999997 182.04000000000087,34.049999999999955 181.79999999999927,34.049999999999955 C181.5699999999997,34.049999999999955 181.3799999999992,33.98199999999997 181.25,33.846000000000004 L183.27000000000044,27.299999999999955 C182.38999999999942,27.611999999999966 181.6800000000003,27.76800000000003 181.13999999999942,27.76800000000003 C180.67000000000007,27.76800000000003 180.27000000000044,27.621999999999957 179.92000000000007,27.331000000000017 C179.5699999999997,27.038999999999987 179.38999999999942,26.658999999999992 179.38999999999942,26.190000000000055 C179.38999999999942,25.783999999999992 179.53000000000065,25.44500000000005 179.79999999999927,25.174999999999955 C180.09000000000015,24.89300000000003 180.4400000000005,24.753000000000043 180.84000000000015,24.753000000000043 C181.22999999999956,24.753000000000043 181.51000000000022,24.85699999999997 181.6900000000005,25.065000000000055 C181.8700000000008,25.283999999999992 181.98999999999978,25.503000000000043 182.03000000000065,25.721000000000004 C182.0699999999997,25.98199999999997 182.13999999999942,26.206000000000017 182.22999999999956,26.39300000000003 C182.3199999999997,26.601999999999975 182.45999999999913,26.706000000000017 182.65999999999985,26.706000000000017 C182.8099999999995,26.706000000000017 183.04000000000087,26.524 183.32999999999993,26.158999999999992 C183.6200000000008,25.815000000000055 183.79999999999927,25.543999999999983 183.8700000000008,25.346000000000004 L184.78000000000065,22.315000000000055 C183.95000000000073,22.616999999999962 183.25,22.76800000000003 182.70000000000073,22.76800000000003 C182.22999999999956,22.76800000000003 181.82999999999993,22.616999999999962 181.47999999999956,22.315000000000055 C181.1299999999992,22.033999999999992 180.95000000000073,21.658999999999992 180.95000000000073,21.190000000000055 C180.95000000000073,20.783999999999992 181.10000000000036,20.44500000000005 181.38999999999942,20.174999999999955 C181.67000000000007,19.883000000000038 182.02000000000044,19.736999999999966 182.42000000000007,19.736999999999966" />
<path d="M66.75,19.736999999999966 C67.13999999999942,19.736999999999966 67.42000000000007,19.841000000000008 67.59000000000015,20.049999999999955 C67.77000000000044,20.278999999999996 67.8799999999992,20.503000000000043 67.92000000000007,20.721000000000004 C67.93000000000029,20.940000000000055 68.0,21.158999999999992 68.1200000000008,21.378000000000043 C68.19000000000051,21.586000000000013 68.32999999999993,21.690000000000055 68.54000000000087,21.690000000000055 C68.68000000000029,21.690000000000055 68.8799999999992,21.533999999999992 69.13999999999942,21.221000000000004 C69.43000000000029,20.85699999999997 69.61000000000058,20.596000000000004 69.70000000000073,20.440000000000055 C69.76000000000022,20.315000000000055 69.85000000000036,20.253000000000043 69.95999999999913,20.253000000000043 C69.95999999999913,20.253000000000043 69.96999999999935,20.253000000000043 70.0,20.253000000000043 C70.11000000000058,20.263000000000034 70.19000000000051,20.326000000000022 70.25,20.440000000000055 L66.67000000000007,33.846000000000004 C66.54000000000087,33.98199999999997 66.36000000000058,34.049999999999955 66.1299999999992,34.049999999999955 C65.88999999999942,34.049999999999955 65.70999999999913,33.98199999999997 65.56999999999971,33.846000000000004 L67.59000000000015,27.299999999999955 C66.70999999999913,27.611999999999966 66.01000000000022,27.76800000000003 65.45999999999913,27.76800000000003 C65.0,27.76800000000003 64.59000000000015,27.621999999999957 64.25,27.331000000000017 C63.88999999999942,27.038999999999987 63.70999999999913,26.658999999999992 63.70999999999913,26.190000000000055 C63.70999999999913,25.783999999999992 63.850000000000364,25.44500000000005 64.1200000000008,25.174999999999955 C64.40999999999985,24.89300000000003 64.76000000000022,24.753000000000043 65.17000000000007,24.753000000000043 C65.54999999999927,24.753000000000043 65.82999999999993,24.85699999999997 66.01000000000022,25.065000000000055 C66.20000000000073,25.283999999999992 66.30999999999949,25.503000000000043 66.35000000000036,25.721000000000004 C66.39999999999964,25.98199999999997 66.45999999999913,26.206000000000017 66.55999999999949,26.39300000000003 C66.63999999999942,26.601999999999975 66.78000000000065,26.706000000000017 66.97999999999956,26.706000000000017 C67.13999999999942,26.706000000000017 67.36000000000058,26.524 67.64999999999964,26.158999999999992 C67.94000000000051,25.815000000000055 68.1299999999992,25.543999999999983 68.20000000000073,25.346000000000004 L69.10000000000036,22.315000000000055 C68.27000000000044,22.616999999999962 67.57999999999993,22.76800000000003 67.03000000000065,22.76800000000003 C66.55999999999949,22.76800000000003 66.14999999999964,22.616999999999962 65.80999999999949,22.315000000000055 C65.45000000000073,22.033999999999992 65.28000000000065,21.658999999999992 65.28000000000065,21.190000000000055 C65.28000000000065,20.783999999999992 65.42000000000007,20.44500000000005 65.70999999999913,20.174999999999955 C66.0,19.883000000000038 66.34000000000015,19.736999999999966 66.75,19.736999999999966" />
<path d="M80.30999999999949,96.346 L164.51000000000022,96.346 L164.51000000000022,98.846 L80.30999999999949,98.846 L80.30999999999949,96.346" />
<path d="M80.30999999999949,42.596000000000004 L122.72999999999956,36.249000000000024 L122.72999999999956,38.749000000000024 L80.30999999999949,45.096000000000004 L80.30999999999949,42.596000000000004" />
<path d="M106.02000000000044,35.0 L122.72999999999956,32.499000000000024 L122.72999999999956,34.999000000000024 L106.02000000000044,37.5 L106.02000000000044,35.0" />
<path d="M142.70000000000073,14.378000000000043 C143.0,14.378000000000043 143.3199999999997,14.861999999999966 143.65999999999985,15.831000000000017 C143.98999999999978,16.799999999999955 144.14999999999964,17.721000000000004 144.14999999999964,18.596000000000004 C144.14999999999964,19.336000000000013 143.96999999999935,20.07000000000005 143.60000000000036,20.799999999999955 C143.22999999999956,21.581000000000017 142.78000000000065,22.258000000000038 142.26000000000022,22.831000000000017 L140.64999999999964,24.628000000000043 C140.15999999999985,25.201000000000022 139.71999999999935,25.861999999999966 139.3199999999997,26.611999999999966 C138.95999999999913,27.341000000000008 138.77000000000044,28.086000000000013 138.77000000000044,28.846000000000004 L138.14999999999964,28.846000000000004 L138.14999999999964,23.846000000000004 L138.77000000000044,23.846000000000004 C139.1299999999992,23.628000000000043 139.64999999999964,23.274 140.34000000000015,22.783999999999992 C140.64999999999964,22.55499999999995 141.1200000000008,22.163999999999987 141.73999999999978,21.611999999999966 C142.25,21.14300000000003 142.63999999999942,20.663999999999987 142.89999999999964,20.174999999999955 C143.17000000000007,19.653999999999996 143.3099999999995,19.128000000000043 143.3099999999995,18.596000000000004 C143.3099999999995,17.35699999999997 142.95000000000073,16.121999999999957 142.22999999999956,14.893000000000029 C142.22999999999956,14.893000000000029 142.22999999999956,14.866999999999962 142.22999999999956,14.815000000000055 C142.22999999999956,14.701000000000022 142.27000000000044,14.606999999999971 142.35000000000036,14.533999999999992 C142.45999999999913,14.42999999999995 142.5699999999997,14.378000000000043 142.70000000000073,14.378000000000043" />
<path d="M27.020000000000437,11.878000000000043 C27.31999999999971,11.878000000000043 27.649999999999636,12.361999999999966 27.98999999999978,13.331000000000017 C28.30999999999949,14.299999999999955 28.469999999999345,15.221000000000004 28.469999999999345,16.096000000000004 C28.469999999999345,16.836000000000013 28.290000000000873,17.57000000000005 27.93000000000029,18.299999999999955 C27.549999999999272,19.081000000000017 27.100000000000364,19.758000000000038 26.579999999999927,20.331000000000017 L24.969999999999345,22.128000000000043 C24.479999999999563,22.701000000000022 24.040000000000873,23.361999999999966 23.649999999999636,24.111999999999966 C23.280000000000655,24.841000000000008 23.100000000000364,25.586000000000013 23.100000000000364,26.346000000000004 L22.469999999999345,26.346000000000004 L22.469999999999345,21.346000000000004 L23.100000000000364,21.346000000000004 C23.450000000000728,21.128000000000043 23.969999999999345,20.774 24.659999999999854,20.283999999999992 C24.969999999999345,20.05499999999995 25.44000000000051,19.663999999999987 26.06999999999971,19.111999999999966 C26.579999999999927,18.64300000000003 26.959999999999127,18.163999999999987 27.219999999999345,17.674999999999955 C27.48999999999978,17.153999999999996 27.6299999999992,16.628000000000043 27.6299999999992,16.096000000000004 C27.6299999999992,14.856999999999971 27.270000000000437,13.621999999999957 26.549999999999272,12.393000000000029 C26.549999999999272,12.393000000000029 26.549999999999272,12.366999999999962 26.549999999999272,12.315000000000055 C26.549999999999272,12.201000000000022 26.590000000000146,12.106999999999971 26.68000000000029,12.033999999999992 C26.780000000000655,11.92999999999995 26.899999999999636,11.878000000000043 27.020000000000437,11.878000000000043" />
<path d="M146.8199999999997,12.150999999999954 C146.59000000000015,11.927000000000021 146.47999999999956,11.658999999999992 146.47999999999956,11.346000000000004 C146.47999999999956,11.033999999999992 146.59000000000015,10.765999999999963 146.8199999999997,10.54200000000003 C147.04000000000087,10.317999999999984 147.3099999999995,10.206000000000017 147.6200000000008,10.206000000000017 C147.9400000000005,10.206000000000017 148.20000000000073,10.317999999999984 148.42000000000007,10.54200000000003 C148.63999999999942,10.765999999999963 148.75,11.033999999999992 148.75,11.346000000000004 C148.75,11.658999999999992 148.63999999999942,11.927000000000021 148.42000000000007,12.150999999999954 C148.20000000000073,12.375 147.9400000000005,12.486999999999966 147.6200000000008,12.486999999999966 C147.3099999999995,12.486999999999966 147.04000000000087,12.375 146.8199999999997,12.150999999999954" />
<path d="M31.139999999999418,7.150999999999954 C30.920000000000073,6.927000000000021 30.80999999999949,6.658999999999992 30.80999999999949,6.346000000000004 C30.80999999999949,6.033999999999992 30.920000000000073,5.765999999999963 31.139999999999418,5.54200000000003 C31.3700000000008,5.317999999999984 31.6299999999992,5.206000000000017 31.950000000000728,5.206000000000017 C32.26000000000022,5.206000000000017 32.52000000000044,5.317999999999984 32.73999999999978,5.54200000000003 C32.95999999999913,5.765999999999963 33.06999999999971,6.033999999999992 33.06999999999971,6.346000000000004 C33.06999999999971,6.658999999999992 32.95999999999913,6.927000000000021 32.73999999999978,7.150999999999954 C32.52000000000044,7.375 32.26000000000022,7.486999999999966 31.950000000000728,7.486999999999966 C31.6299999999992,7.486999999999966 31.3700000000008,7.375 31.139999999999418,7.150999999999954" />
<polyline points="0.0,13.846000000000004 196.79000000000087,13.846000000000004" fill="none" stroke="#000000" stroke-width="0.40" />
<polyline points="0.0,18.846000000000004 196.79000000000087,18.846000000000004" fill="none" stroke="#000000" stroke-width="0.40" />
<polyline points="0.0,23.846000000000004 196.79000000000087,23.846000000000004" fill="none" stroke="#000000" stroke-width="0.40" />
<polyline points="0.0,28.846000000000004 196.79000000000087,28.846000000000004" fill="none" stroke="#000000" stroke-width="0.40" />
<polyline points="0.0,33.846000000000004 196.79000000000087,33.846000000000004" fill="none" stroke="#000000" stroke-width="0.40" />
<polyline points="0.0,66.346 196.79000000000087,66.346" fill="none" stroke="#000000" stroke-width="0.40" />
<polyline points="0.0,71.346 196.79000000000087,71.346" fill="none" stroke="#000000" stroke-width="0.40" />
<polyline points="0.0,76.346 196.79000000000087,76.346" fill="none" stroke="#000000" stroke-width="0.40" />
<polyline points="0.0,81.346 196.79000000000087,81.346" fill="none" stroke="#000000" stroke-width="0.40" />
<polyline points="0.0,86.346 196.79000000000087,86.346" fill="none" stroke="#000000" stroke-width="0.40" />
<polyline points="196.38999999999942,66.346 196.38999999999942,86.346" fill="" stroke="#000000" stroke-width="0.80" />
<polyline points="196.38999999999942,13.846000000000004 196.38999999999942,33.846000000000004" fill="" stroke="#000000" stroke-width="0.80" />
<polyline points="164.1800000000003,65.90999999999997 164.1800000000003,97.596" fill="" stroke="#000000" stroke-width="0.65" />
<polyline points="138.46999999999935,65.90999999999997 138.46999999999935,97.596" fill="" stroke="#000000" stroke-width="0.65" />
<polyline points="138.46999999999935,12.285999999999945 138.46999999999935,28.846000000000004" fill="" stroke="#000000" stroke-width="0.65" />
<polyline points="122.40999999999985,19.785999999999945 122.40999999999985,37.596000000000004" fill="" stroke="#000000" stroke-width="0.65" />
<polyline points="106.34000000000015,65.90999999999997 106.34000000000015,97.596" fill="" stroke="#000000" stroke-width="0.65" />
<polyline points="106.34000000000015,19.785999999999945 106.34000000000015,40.0" fill="" stroke="#000000" stroke-width="0.65" />
<polyline points="80.63999999999942,65.90999999999997 80.63999999999942,97.596" fill="" stroke="#000000" stroke-width="0.65" />
<polyline points="80.63999999999942,29.785999999999945 80.63999999999942,43.846000000000004" fill="" stroke="#000000" stroke-width="0.65" />
<polyline points="48.5,65.90999999999997 48.5,97.596" fill="" stroke="#000000" stroke-width="0.65" />
<polyline points="22.799999999999272,65.90999999999997 22.799999999999272,97.596" fill="" stroke="#000000" stroke-width="0.65" />
<polyline points="22.799999999999272,9.785999999999945 22.799999999999272,26.346000000000004" fill="" stroke="#000000" stroke-width="0.65" />
<polyline points="6.729999999999563,17.285999999999945 6.729999999999563,37.596000000000004" fill="" stroke="#000000" stroke-width="0.65" />
<polyline points="20.969999999999345,8.846000000000004 30.55999999999949,8.846000000000004" fill="" stroke="#000000" stroke-width="0.80" />
<polyline points="253.47999999999956,13.846000000000004 255.0,13.846000000000004" fill="none" stroke="#000000" stroke-width="0.40" />
<polyline points="253.47999999999956,18.846000000000004 255.0,18.846000000000004" fill="none" stroke="#000000" stroke-width="0.40" />
<polyline points="253.47999999999956,23.846000000000004 255.0,23.846000000000004" fill="none" stroke="#000000" stroke-width="0.40" />
<polyline points="253.47999999999956,28.846000000000004 255.0,28.846000000000004" fill="none" stroke="#000000" stroke-width="0.40" />
<polyline points="253.47999999999956,33.846000000000004 255.0,33.846000000000004" fill="none" stroke="#000000" stroke-width="0.40" />
<polyline points="253.47999999999956,66.346 255.0,66.346" fill="none" stroke="#000000" stroke-width="0.40" />
<polyline points="253.47999999999956,71.346 255.0,71.346" fill="none" stroke="#000000" stroke-width="0.40" />
<polyline points="253.47999999999956,76.346 255.0,76.346" fill="none" stroke="#000000" stroke-width="0.40" />
<polyline points="253.47999999999956,81.346 255.0,81.346" fill="none" stroke="#000000" stroke-width="0.40" />
<polyline points="253.47999999999956,86.346 255.0,86.346" fill="none" stroke="#000000" stroke-width="0.40" />
<polyline points="253.8799999999992,0.0 253.8799999999992,86.346" fill="" stroke="#000000" stroke-width="0.80" />
</svg>
