<?xml version="1.0" encoding="UTF-8" standalone="yes"?>
<svg width="256.0px" height="256.0px" xmlns="http://www.w3.org/2000/svg" xmlns:xlink="http://www.w3.org/1999/xlink" version="1.2" baseProfile="tiny">
<path d="M66.79999999999927,97.37799999999999 C67.20000000000073,97.73200000000003 67.60000000000036,98.029 67.70000000000073,98.26799999999997 C67.89999999999964,98.50799999999998 68.0,98.78399999999999 68.0,99.096 C68.0,99.51299999999998 67.89999999999964,99.844 67.60000000000036,100.089 C67.29999999999927,100.33300000000003 66.89999999999964,100.45600000000002 66.39999999999964,100.45600000000002 C66.0,100.45600000000002 65.60000000000036,100.33300000000003 65.29999999999927,100.089 C65.0,99.844 64.89999999999964,99.524 64.89999999999964,99.12799999999999 C64.89999999999964,98.85700000000003 64.89999999999964,98.63 65.10000000000036,98.44799999999998 C65.20000000000073,98.26600000000002 65.5,98.01299999999998 65.89999999999964,97.69 C65.5,97.315 65.20000000000073,97.03899999999999 65.10000000000036,96.86200000000002 C65.0,96.685 64.89999999999964,96.46600000000001 64.89999999999964,96.20600000000002 C64.89999999999964,95.84100000000001 65.10000000000036,95.53699999999998 65.39999999999964,95.29199999999997 C65.60000000000036,95.04700000000003 66.0,94.92500000000001 66.5,94.92500000000001 C66.89999999999964,94.92500000000001 67.20000000000073,95.031 67.39999999999964,95.245 C67.70000000000073,95.45800000000003 67.79999999999927,95.73700000000002 67.79999999999927,96.08100000000002 C67.79999999999927,96.35199999999998 67.70000000000073,96.58100000000002 67.60000000000036,96.76799999999997 C67.39999999999964,96.95600000000002 67.10000000000036,97.15899999999999 66.79999999999927,97.37799999999999 M66.10000000000036,97.846 C65.89999999999964,98.03399999999999 65.70000000000073,98.219 65.60000000000036,98.40100000000001 C65.60000000000036,98.58300000000003 65.5,98.805 65.5,99.065 C65.5,99.40899999999999 65.60000000000036,99.68799999999999 65.79999999999927,99.90100000000001 C66.0,100.11500000000001 66.20000000000073,100.221 66.5,100.221 C66.79999999999927,100.221 67.0,100.14100000000002 67.10000000000036,99.97899999999998 C67.29999999999927,99.81799999999998 67.39999999999964,99.60700000000003 67.39999999999964,99.346 C67.39999999999964,99.26299999999998 67.39999999999964,99.18200000000002 67.39999999999964,99.10399999999998 C67.29999999999927,99.02600000000001 67.29999999999927,98.96100000000001 67.29999999999927,98.90899999999999 C67.29999999999927,98.85700000000003 67.20000000000073,98.79399999999998 67.20000000000073,98.721 C67.10000000000036,98.649 67.10000000000036,98.594 67.10000000000036,98.55700000000002 C67.0,98.52100000000002 67.0,98.464 66.89999999999964,98.38600000000002 C66.79999999999927,98.30700000000002 66.70000000000073,98.25299999999999 66.70000000000073,98.221 C66.60000000000036,98.19 66.5,98.13 66.39999999999964,98.04199999999997 C66.29999999999927,97.95299999999997 66.20000000000073,97.88799999999998 66.10000000000036,97.846 M66.5,97.23700000000002 C66.5,97.22699999999998 66.60000000000036,97.19799999999998 66.60000000000036,97.15100000000001 C66.70000000000073,97.10399999999998 66.79999999999927,97.06799999999998 66.79999999999927,97.04199999999997 C66.79999999999927,97.01600000000002 66.79999999999927,96.97699999999998 66.89999999999964,96.92500000000001 C67.0,96.87200000000001 67.0,96.82 67.10000000000036,96.76799999999997 C67.10000000000036,96.71600000000001 67.10000000000036,96.654 67.20000000000073,96.58100000000002 C67.20000000000073,96.50799999999998 67.20000000000073,96.42700000000002 67.20000000000073,96.339 C67.29999999999927,96.25 67.29999999999927,96.15899999999999 67.29999999999927,96.065 C67.29999999999927,95.79399999999998 67.20000000000073,95.57600000000002 67.0,95.40899999999999 C66.89999999999964,95.24200000000002 66.70000000000073,95.15899999999999 66.39999999999964,95.15899999999999 C66.10000000000036,95.15899999999999 65.89999999999964,95.23399999999998 65.79999999999927,95.38600000000002 C65.60000000000036,95.53699999999998 65.5,95.72699999999998 65.5,95.95600000000002 C65.5,96.17500000000001 65.60000000000036,96.38299999999998 65.79999999999927,96.58100000000002 C65.89999999999964,96.779 66.20000000000073,96.99700000000001 66.5,97.23700000000002 M68.89999999999964,100.51799999999997 L68.89999999999964,100.36200000000002 C69.5,100.25799999999998 70.0,100.0 70.39999999999964,99.589 C70.79999999999927,99.17700000000002 71.10000000000036,98.64299999999997 71.29999999999927,97.98700000000002 C70.89999999999964,98.30000000000001 70.5,98.45600000000002 70.10000000000036,98.45600000000002 C69.70000000000073,98.45600000000002 69.29999999999927,98.305 69.0,98.00299999999999 C68.79999999999927,97.70100000000002 68.60000000000036,97.31 68.60000000000036,96.83100000000002 C68.60000000000036,96.28899999999999 68.79999999999927,95.83600000000001 69.10000000000036,95.471 C69.39999999999964,95.10700000000003 69.79999999999927,94.92500000000001 70.29999999999927,94.92500000000001 C70.79999999999927,94.92500000000001 71.29999999999927,95.13600000000002 71.60000000000036,95.55700000000002 C71.89999999999964,95.97899999999998 72.10000000000036,96.524 72.10000000000036,97.19 C72.10000000000036,97.40899999999999 72.10000000000036,97.63 72.10000000000036,97.85399999999998 C72.0,98.07799999999997 71.89999999999964,98.344 71.79999999999927,98.65100000000001 C71.70000000000073,98.95800000000003 71.5,99.23200000000003 71.29999999999927,99.471 C71.0,99.71100000000001 70.70000000000073,99.93 70.29999999999927,100.12799999999999 C69.89999999999964,100.32600000000002 69.39999999999964,100.45600000000002 68.89999999999964,100.51799999999997 M70.39999999999964,98.096 C70.5,98.096 70.60000000000036,98.08300000000003 70.70000000000073,98.05700000000002 C70.79999999999927,98.031 71.0,97.969 71.10000000000036,97.87 C71.20000000000073,97.77100000000002 71.29999999999927,97.649 71.29999999999927,97.50299999999999 L71.29999999999927,97.19 C71.29999999999927,95.83600000000001 71.0,95.15899999999999 70.29999999999927,95.15899999999999 C70.10000000000036,95.15899999999999 69.89999999999964,95.20299999999997 69.79999999999927,95.29199999999997 C69.70000000000073,95.38 69.60000000000036,95.49700000000001 69.60000000000036,95.64299999999997 C69.5,95.78899999999999 69.5,95.935 69.39999999999964,96.08100000000002 C69.39999999999964,96.22699999999998 69.39999999999964,96.38299999999998 69.39999999999964,96.55000000000001 C69.39999999999964,97.029 69.5,97.406 69.70000000000073,97.68200000000002 C69.79999999999927,97.95800000000003 70.10000000000036,98.096 70.39999999999964,98.096" />
<path d="M106.60000000000036,238.58100000000002 C106.60000000000036,238.83100000000002 106.5,238.95600000000002 106.29999999999927,238.95600000000002 C106.0,238.95600000000002 105.89999999999964,238.83100000000002 105.89999999999964,238.58100000000002 L105.89999999999964,235.69 L104.20000000000073,236.315 L104.20000000000073,239.471 C104.20000000000073,239.721 104.10000000000036,239.846 103.89999999999964,239.846 C103.60000000000036,239.846 103.5,239.721 103.5,239.471 L103.5,236.565 L102.89999999999964,236.8 C102.89999999999964,236.81 102.79999999999927,236.815 102.70000000000073,236.815 C102.60000000000036,236.815 102.5,236.776 102.39999999999964,236.69799999999998 C102.39999999999964,236.62 102.29999999999927,236.529 102.29999999999927,236.425 L102.29999999999927,235.221 C102.29999999999927,235.024 102.39999999999964,234.899 102.60000000000036,234.846 L103.5,234.534 L103.5,231.33100000000002 L102.89999999999964,231.55 C102.89999999999964,231.56 102.79999999999927,231.565 102.70000000000073,231.565 C102.60000000000036,231.565 102.5,231.526 102.39999999999964,231.44799999999998 C102.39999999999964,231.37 102.29999999999927,231.279 102.29999999999927,231.175 L102.29999999999927,229.95600000000002 C102.29999999999927,229.779 102.39999999999964,229.664 102.60000000000036,229.61200000000002 L103.5,229.253 L103.5,226.11200000000002 C103.5,225.86200000000002 103.60000000000036,225.73700000000002 103.89999999999964,225.73700000000002 C104.10000000000036,225.73700000000002 104.20000000000073,225.86200000000002 104.20000000000073,226.11200000000002 L104.20000000000073,229.003 L105.89999999999964,228.378 L105.89999999999964,225.221 C105.89999999999964,224.971 106.0,224.846 106.29999999999927,224.846 C106.5,224.846 106.60000000000036,224.971 106.60000000000036,225.221 L106.60000000000036,228.128 L107.29999999999927,227.89299999999997 C107.29999999999927,227.88299999999998 107.29999999999927,227.878 107.39999999999964,227.878 C107.5,227.878 107.60000000000036,227.914 107.70000000000073,227.98700000000002 C107.79999999999927,228.07 107.79999999999927,228.164 107.79999999999927,228.26799999999997 L107.79999999999927,229.471 C107.79999999999927,229.659 107.70000000000073,229.784 107.60000000000036,229.846 L106.60000000000036,230.159 L106.60000000000036,233.36200000000002 L107.29999999999927,233.14299999999997 C107.29999999999927,233.13299999999998 107.29999999999927,233.128 107.39999999999964,233.128 C107.5,233.128 107.60000000000036,233.16899999999998 107.70000000000073,233.253 C107.79999999999927,233.32600000000002 107.79999999999927,233.414 107.79999999999927,233.51799999999997 L107.79999999999927,234.73700000000002 C107.79999999999927,234.904 107.70000000000073,235.01799999999997 107.60000000000036,235.08100000000002 L106.60000000000036,235.44 L106.60000000000036,238.58100000000002 M105.89999999999964,230.45600000000002 L104.20000000000073,231.034 L104.20000000000073,234.23700000000002 L105.89999999999964,233.659 L105.89999999999964,230.45600000000002" />
<path d="M97.70000000000073,236.51799999999997 L97.70000000000073,238.065 C97.70000000000073,238.61700000000002 97.70000000000073,239.055 97.79999999999927,239.378 C98.20000000000073,239.01299999999998 98.5,238.74200000000002 98.70000000000073,238.565 C98.89999999999964,238.35700000000003 99.10000000000036,238.06799999999998 99.29999999999927,237.69799999999998 C99.5,237.32799999999997 99.60000000000036,236.961 99.60000000000036,236.596 C99.60000000000036,236.23200000000003 99.60000000000036,235.91899999999998 99.39999999999964,235.659 C99.29999999999927,235.399 99.0,235.26799999999997 98.79999999999927,235.26799999999997 C98.5,235.26799999999997 98.20000000000073,235.38799999999998 98.0,235.628 C97.79999999999927,235.88799999999998 97.70000000000073,236.185 97.70000000000073,236.51799999999997 M96.89999999999964,240.096 L96.60000000000036,228.20600000000002 C96.79999999999927,228.10199999999998 97.0,228.05 97.20000000000073,228.05 C97.39999999999964,228.05 97.5,228.10199999999998 97.70000000000073,228.20600000000002 L97.60000000000036,235.096 C98.10000000000036,234.63799999999998 98.70000000000073,234.409 99.39999999999964,234.409 C99.89999999999964,234.409 100.29999999999927,234.61700000000002 100.70000000000073,235.034 C101.0,235.45100000000002 101.20000000000073,235.93 101.20000000000073,236.471 C101.20000000000073,236.805 101.10000000000036,237.164 100.89999999999964,237.55 C100.60000000000036,237.89299999999997 100.39999999999964,238.164 100.20000000000073,238.36200000000002 C100.10000000000036,238.466 99.70000000000073,238.72699999999998 99.20000000000073,239.14299999999997 C99.0,239.25799999999998 98.89999999999964,239.39299999999997 98.60000000000036,239.55 C98.39999999999964,239.70600000000002 98.29999999999927,239.805 98.20000000000073,239.846 C98.10000000000036,239.899 98.10000000000036,240.003 98.0,240.159 C97.89999999999964,240.29399999999998 97.79999999999927,240.404 97.70000000000073,240.48700000000002 C97.60000000000036,240.57 97.5,240.61200000000002 97.29999999999927,240.61200000000002 C97.20000000000073,240.61200000000002 97.10000000000036,240.565 97.0,240.471 C96.89999999999964,240.378 96.89999999999964,240.253 96.89999999999964,240.096" />
<path d="M245.79999999999927,254.596 C246.39999999999964,254.596 246.89999999999964,254.75799999999998 247.39999999999964,255.08100000000002 C247.79999999999927,255.435 248.0,255.878 248.0,256.409 C248.0,257.30499999999995 247.5,258.14300000000003 246.60000000000036,258.92499999999995 C245.70000000000073,259.706 244.70000000000073,260.096 243.60000000000036,260.096 C243.0,260.096 242.39999999999964,259.93499999999995 242.0,259.61199999999997 C241.60000000000036,259.25800000000004 241.39999999999964,258.81500000000005 241.39999999999964,258.284 C241.39999999999964,257.38800000000003 241.89999999999964,256.54999999999995 242.79999999999927,255.76799999999997 C243.70000000000073,254.98700000000002 244.70000000000073,254.596 245.79999999999927,254.596" />
<path d="M187.0,149.596 C187.60000000000036,149.596 188.10000000000036,149.75799999999998 188.60000000000036,150.08100000000002 C189.0,150.435 189.20000000000073,150.878 189.20000000000073,151.409 C189.20000000000073,152.305 188.70000000000073,153.14299999999997 187.79999999999927,153.925 C186.89999999999964,154.70600000000002 185.89999999999964,155.096 184.79999999999927,155.096 C184.20000000000073,155.096 183.60000000000036,154.935 183.20000000000073,154.61200000000002 C182.79999999999927,154.25799999999998 182.60000000000036,153.815 182.60000000000036,153.284 C182.60000000000036,152.38799999999998 183.10000000000036,151.55 184.0,150.76799999999997 C184.89999999999964,149.98700000000002 185.89999999999964,149.596 187.0,149.596" />
<path d="M187.0,127.096 C187.60000000000036,127.096 188.10000000000036,127.25799999999998 188.60000000000036,127.58100000000002 C189.0,127.935 189.20000000000073,128.378 189.20000000000073,128.909 C189.20000000000073,129.805 188.70000000000073,130.64299999999997 187.79999999999927,131.425 C186.89999999999964,132.20600000000002 185.89999999999964,132.596 184.79999999999927,132.596 C184.20000000000073,132.596 183.60000000000036,132.435 183.20000000000073,132.11200000000002 C182.79999999999927,131.75799999999998 182.60000000000036,131.315 182.60000000000036,130.784 C182.60000000000036,129.88799999999998 183.10000000000036,129.05 184.0,128.26799999999997 C184.89999999999964,127.48700000000002 185.89999999999964,127.096 187.0,127.096" />
<path d="M168.60000000000036,149.596 C169.20000000000073,149.596 169.79999999999927,149.75799999999998 170.20000000000073,150.08100000000002 C170.60000000000036,150.435 170.79999999999927,150.878 170.79999999999927,151.409 C170.79999999999927,152.305 170.29999999999927,153.14299999999997 169.39999999999964,153.925 C168.5,154.70600000000002 167.5,155.096 166.39999999999964,155.096 C165.79999999999927,155.096 165.29999999999927,154.935 164.79999999999927,154.61200000000002 C164.39999999999964,154.25799999999998 164.20000000000073,153.815 164.20000000000073,153.284 C164.20000000000073,152.38799999999998 164.70000000000073,151.55 165.60000000000036,150.76799999999997 C166.60000000000036,149.98700000000002 167.5,149.596 168.60000000000036,149.596" />
<path d="M168.60000000000036,127.096 C169.20000000000073,127.096 169.79999999999927,127.25799999999998 170.20000000000073,127.58100000000002 C170.60000000000036,127.935 170.79999999999927,128.378 170.79999999999927,128.909 C170.79999999999927,129.805 170.29999999999927,130.64299999999997 169.39999999999964,131.425 C168.5,132.20600000000002 167.5,132.596 166.39999999999964,132.596 C165.79999999999927,132.596 165.29999999999927,132.435 164.79999999999927,132.11200000000002 C164.39999999999964,131.75799999999998 164.20000000000073,131.315 164.20000000000073,130.784 C164.20000000000073,129.88799999999998 164.70000000000073,129.05 165.60000000000036,128.26799999999997 C166.60000000000036,127.48700000000002 167.5,127.096 168.60000000000036,127.096" />
<path d="M150.20000000000073,149.596 C150.89999999999964,149.596 151.39999999999964,149.75799999999998 151.79999999999927,150.08100000000002 C152.20000000000073,150.435 152.39999999999964,150.878 152.39999999999964,151.409 C152.39999999999964,152.305 152.0,153.14299999999997 151.10000000000036,153.925 C150.10000000000036,154.70600000000002 149.10000000000036,155.096 148.0,155.096 C147.39999999999964,155.096 146.89999999999964,154.935 146.5,154.61200000000002 C146.10000000000036,154.25799999999998 145.89999999999964,153.815 145.89999999999964,153.284 C145.89999999999964,152.38799999999998 146.29999999999927,151.55 147.29999999999927,150.76799999999997 C148.20000000000073,149.98700000000002 149.20000000000073,149.596 150.20000000000073,149.596" />
<path d="M150.20000000000073,127.096 C150.89999999999964,127.096 151.39999999999964,127.25799999999998 151.79999999999927,127.58100000000002 C152.20000000000073,127.935 152.39999999999964,128.378 152.39999999999964,128.909 C152.39999999999964,129.805 152.0,130.64299999999997 151.10000000000036,131.425 C150.10000000000036,132.20600000000002 149.10000000000036,132.596 148.0,132.596 C147.39999999999964,132.596 146.89999999999964,132.435 146.5,132.11200000000002 C146.10000000000036,131.75799999999998 145.89999999999964,131.315 145.89999999999964,130.784 C145.89999999999964,129.88799999999998 146.29999999999927,129.05 147.29999999999927,128.26799999999997 C148.20000000000073,127.48700000000002 149.20000000000073,127.096 150.20000000000073,127.096" />
<path d="M131.89999999999964,149.596 C132.5,149.596 133.0,149.75799999999998 133.5,150.08100000000002 C133.89999999999964,150.435 134.10000000000036,150.878 134.10000000000036,151.409 C134.10000000000036,152.305 133.60000000000036,153.14299999999997 132.70000000000073,153.925 C131.70000000000073,154.70600000000002 130.70000000000073,155.096 129.70000000000073,155.096 C129.0,155.096 128.5,154.935 128.10000000000036,154.61200000000002 C127.70000000000073,154.25799999999998 127.5,153.815 127.5,153.284 C127.5,152.38799999999998 128.0,151.55 128.89999999999964,150.76799999999997 C129.79999999999927,149.98700000000002 130.79999999999927,149.596 131.89999999999964,149.596" />
<path d="M131.89999999999964,127.096 C132.5,127.096 133.0,127.25799999999998 133.5,127.58100000000002 C133.89999999999964,127.935 134.10000000000036,128.378 134.10000000000036,128.909 C134.10000000000036,129.805 133.60000000000036,130.64299999999997 132.70000000000073,131.425 C131.70000000000073,132.20600000000002 130.70000000000073,132.596 129.70000000000073,132.596 C129.0,132.596 128.5,132.435 128.10000000000036,132.11200000000002 C127.70000000000073,131.75799999999998 127.5,131.315 127.5,130.784 C127.5,129.88799999999998 128.0,129.05 128.89999999999964,128.26799999999997 C129.79999999999927,127.48700000000002 130.79999999999927,127.096 131.89999999999964,127.096" />
<path d="M115.20000000000073,223.534 C115.20000000000073,223.315 115.20000000000073,223.128 115.0,222.971 C114.79999999999927,222.805 114.60000000000036,222.721 114.39999999999964,222.721 C114.0,222.721 113.20000000000073,223.11200000000002 112.0,223.89299999999997 C110.79999999999927,224.685 110.10000000000036,225.253 109.79999999999927,225.596 C109.60000000000036,225.774 109.60000000000036,225.961 109.60000000000036,226.159 C109.60000000000036,226.378 109.70000000000073,226.565 109.79999999999927,226.721 C110.0,226.88799999999998 110.20000000000073,226.971 110.39999999999964,226.971 C110.79999999999927,226.971 111.60000000000036,226.58100000000002 112.79999999999927,225.8 C114.0,225.01799999999997 114.70000000000073,224.45100000000002 115.0,224.096 C115.20000000000073,223.93 115.20000000000073,223.74200000000002 115.20000000000073,223.534 M114.20000000000073,222.096 C115.29999999999927,222.096 115.89999999999964,222.57600000000002 115.89999999999964,223.534 C115.89999999999964,224.003 115.70000000000073,224.55 115.5,225.175 C115.20000000000073,225.789 114.79999999999927,226.25799999999998 114.39999999999964,226.58100000000002 C113.39999999999964,227.25799999999998 112.10000000000036,227.596 110.60000000000036,227.596 C109.5,227.596 108.89999999999964,227.11700000000002 108.89999999999964,226.159 C108.89999999999964,225.73200000000003 109.10000000000036,225.19 109.29999999999927,224.534 C109.60000000000036,223.909 110.0,223.435 110.39999999999964,223.11200000000002 C111.39999999999964,222.435 112.70000000000073,222.096 114.20000000000073,222.096" />
<path d="M115.20000000000073,231.034 C115.20000000000073,230.815 115.20000000000073,230.628 115.0,230.471 C114.79999999999927,230.305 114.60000000000036,230.221 114.39999999999964,230.221 C114.0,230.221 113.20000000000073,230.61200000000002 112.0,231.39299999999997 C110.79999999999927,232.185 110.10000000000036,232.753 109.79999999999927,233.096 C109.60000000000036,233.274 109.60000000000036,233.461 109.60000000000036,233.659 C109.60000000000036,233.878 109.70000000000073,234.065 109.79999999999927,234.221 C110.0,234.38799999999998 110.20000000000073,234.471 110.39999999999964,234.471 C110.79999999999927,234.471 111.60000000000036,234.08100000000002 112.79999999999927,233.3 C114.0,232.51799999999997 114.70000000000073,231.95100000000002 115.0,231.596 C115.20000000000073,231.43 115.20000000000073,231.24200000000002 115.20000000000073,231.034 M114.20000000000073,229.596 C115.29999999999927,229.596 115.89999999999964,230.07600000000002 115.89999999999964,231.034 C115.89999999999964,231.503 115.70000000000073,232.05 115.5,232.675 C115.20000000000073,233.289 114.79999999999927,233.75799999999998 114.39999999999964,234.08100000000002 C113.39999999999964,234.75799999999998 112.10000000000036,235.096 110.60000000000036,235.096 C109.5,235.096 108.89999999999964,234.61700000000002 108.89999999999964,233.659 C108.89999999999964,233.23200000000003 109.10000000000036,232.69 109.29999999999927,232.034 C109.60000000000036,231.409 110.0,230.935 110.39999999999964,230.61200000000002 C111.39999999999964,229.935 112.70000000000073,229.596 114.20000000000073,229.596" />
<path d="M115.20000000000073,236.034 C115.20000000000073,235.815 115.20000000000073,235.628 115.0,235.471 C114.79999999999927,235.305 114.60000000000036,235.221 114.39999999999964,235.221 C114.0,235.221 113.20000000000073,235.61200000000002 112.0,236.39299999999997 C110.79999999999927,237.185 110.10000000000036,237.753 109.79999999999927,238.096 C109.60000000000036,238.274 109.60000000000036,238.461 109.60000000000036,238.659 C109.60000000000036,238.878 109.70000000000073,239.065 109.79999999999927,239.221 C110.0,239.38799999999998 110.20000000000073,239.471 110.39999999999964,239.471 C110.79999999999927,239.471 111.60000000000036,239.08100000000002 112.79999999999927,238.3 C114.0,237.51799999999997 114.70000000000073,236.95100000000002 115.0,236.596 C115.20000000000073,236.43 115.20000000000073,236.24200000000002 115.20000000000073,236.034 M114.20000000000073,234.596 C115.29999999999927,234.596 115.89999999999964,235.07600000000002 115.89999999999964,236.034 C115.89999999999964,236.503 115.70000000000073,237.05 115.5,237.675 C115.20000000000073,238.289 114.79999999999927,238.75799999999998 114.39999999999964,239.08100000000002 C113.39999999999964,239.75799999999998 112.10000000000036,240.096 110.60000000000036,240.096 C109.5,240.096 108.89999999999964,239.61700000000002 108.89999999999964,238.659 C108.89999999999964,238.23200000000003 109.10000000000036,237.69 109.29999999999927,237.034 C109.60000000000036,236.409 110.0,235.935 110.39999999999964,235.61200000000002 C111.39999999999964,234.935 112.70000000000073,234.596 114.20000000000073,234.596" />
<path d="M115.20000000000073,241.034 C115.20000000000073,240.815 115.20000000000073,240.628 115.0,240.471 C114.79999999999927,240.305 114.60000000000036,240.221 114.39999999999964,240.221 C114.0,240.221 113.20000000000073,240.61200000000002 112.0,241.39299999999997 C110.79999999999927,242.185 110.10000000000036,242.753 109.79999999999927,243.096 C109.60000000000036,243.274 109.60000000000036,243.461 109.60000000000036,243.659 C109.60000000000036,243.878 109.70000000000073,244.065 109.79999999999927,244.221 C110.0,244.38799999999998 110.20000000000073,244.471 110.39999999999964,244.471 C110.79999999999927,244.471 111.60000000000036,244.08100000000002 112.79999999999927,243.3 C114.0,242.51799999999997 114.70000000000073,241.95100000000002 115.0,241.596 C115.20000000000073,241.43 115.20000000000073,241.24200000000002 115.20000000000073,241.034 M114.20000000000073,239.596 C115.29999999999927,239.596 115.89999999999964,240.07600000000002 115.89999999999964,241.034 C115.89999999999964,241.503 115.70000000000073,242.05 115.5,242.675 C115.20000000000073,243.289 114.79999999999927,243.75799999999998 114.39999999999964,244.08100000000002 C113.39999999999964,244.75799999999998 112.10000000000036,245.096 110.60000000000036,245.096 C109.5,245.096 108.89999999999964,244.61700000000002 108.89999999999964,243.659 C108.89999999999964,243.23200000000003 109.10000000000036,242.69 109.29999999999927,242.034 C109.60000000000036,241.409 110.0,240.935 110.39999999999964,240.61200000000002 C111.39999999999964,239.935 112.70000000000073,239.596 114.20000000000073,239.596" />
<path d="M113.5,149.596 C114.10000000000036,149.596 114.70000000000073,149.75799999999998 115.10000000000036,150.08100000000002 C115.5,150.435 115.70000000000073,150.878 115.70000000000073,151.409 C115.70000000000073,152.305 115.20000000000073,153.14299999999997 114.29999999999927,153.925 C113.39999999999964,154.70600000000002 112.39999999999964,155.096 111.29999999999927,155.096 C110.70000000000073,155.096 110.10000000000036,154.935 109.70000000000073,154.61200000000002 C109.29999999999927,154.25799999999998 109.10000000000036,153.815 109.10000000000036,153.284 C109.10000000000036,152.38799999999998 109.60000000000036,151.55 110.5,150.76799999999997 C111.39999999999964,149.98700000000002 112.39999999999964,149.596 113.5,149.596" />
<path d="M113.5,127.096 C114.10000000000036,127.096 114.70000000000073,127.25799999999998 115.10000000000036,127.58100000000002 C115.5,127.935 115.70000000000073,128.378 115.70000000000073,128.909 C115.70000000000073,129.805 115.20000000000073,130.64299999999997 114.29999999999927,131.425 C113.39999999999964,132.20600000000002 112.39999999999964,132.596 111.29999999999927,132.596 C110.70000000000073,132.596 110.10000000000036,132.435 109.70000000000073,132.11200000000002 C109.29999999999927,131.75799999999998 109.10000000000036,131.315 109.10000000000036,130.784 C109.10000000000036,129.88799999999998 109.60000000000036,129.05 110.5,128.26799999999997 C111.39999999999964,127.48700000000002 112.39999999999964,127.096 113.5,127.096" />
<path d="M246.60000000000036,14.127999999999986 L249.0,12.175000000000011 C249.10000000000036,12.122000000000014 249.10000000000036,12.096000000000004 249.20000000000073,12.096000000000004 C249.20000000000073,12.096000000000004 249.29999999999927,12.122000000000014 249.39999999999964,12.175000000000011 L249.79999999999927,12.487000000000023 C249.79999999999927,12.550000000000011 249.89999999999964,12.627999999999986 249.89999999999964,12.721000000000004 C249.89999999999964,12.783999999999992 249.79999999999927,12.862000000000023 249.79999999999927,12.956000000000017 L247.39999999999964,14.846000000000004 L249.79999999999927,16.737000000000023 C249.79999999999927,16.810000000000002 249.89999999999964,16.89100000000002 249.89999999999964,16.978999999999985 C249.89999999999964,17.067999999999984 249.79999999999927,17.142999999999972 249.79999999999927,17.206000000000017 L249.39999999999964,17.517999999999972 C249.29999999999927,17.569999999999993 249.20000000000073,17.596000000000004 249.20000000000073,17.596000000000004 C249.10000000000036,17.596000000000004 249.10000000000036,17.569999999999993 249.0,17.517999999999972 L246.60000000000036,15.564999999999998 L244.20000000000073,17.517999999999972 C244.10000000000036,17.569999999999993 244.0,17.596000000000004 244.0,17.596000000000004 C243.89999999999964,17.596000000000004 243.89999999999964,17.569999999999993 243.79999999999927,17.517999999999972 L243.39999999999964,17.206000000000017 C243.29999999999927,17.142999999999972 243.29999999999927,17.064999999999998 243.29999999999927,16.971000000000004 C243.29999999999927,16.908999999999992 243.29999999999927,16.831000000000017 243.39999999999964,16.737000000000023 L245.70000000000073,14.846000000000004 L243.39999999999964,12.956000000000017 C243.29999999999927,12.882999999999981 243.29999999999927,12.802000000000021 243.29999999999927,12.713999999999999 C243.29999999999927,12.625 243.29999999999927,12.550000000000011 243.39999999999964,12.487000000000023 L243.79999999999927,12.175000000000011 C243.89999999999964,12.122000000000014 243.89999999999964,12.096000000000004 244.0,12.096000000000004 C244.0,12.096000000000004 244.10000000000036,12.122000000000014 244.20000000000073,12.175000000000011 L246.60000000000036,14.127999999999986" />
<path d="M247.70000000000073,22.096000000000004 C248.29999999999927,22.096000000000004 248.79999999999927,22.25799999999998 249.29999999999927,22.581000000000017 C249.70000000000073,22.935000000000002 249.89999999999964,23.377999999999986 249.89999999999964,23.908999999999992 C249.89999999999964,24.805000000000007 249.39999999999964,25.642999999999972 248.5,26.42500000000001 C247.60000000000036,27.206000000000017 246.5,27.596000000000004 245.5,27.596000000000004 C244.79999999999927,27.596000000000004 244.29999999999927,27.435000000000002 243.89999999999964,27.112000000000023 C243.5,26.75799999999998 243.29999999999927,26.314999999999998 243.29999999999927,25.783999999999992 C243.29999999999927,24.887999999999977 243.79999999999927,24.05000000000001 244.70000000000073,23.267999999999972 C245.60000000000036,22.487000000000023 246.60000000000036,22.096000000000004 247.70000000000073,22.096000000000004" />
<path d="M247.70000000000073,32.096000000000004 C248.29999999999927,32.096000000000004 248.79999999999927,32.25799999999998 249.29999999999927,32.58100000000002 C249.70000000000073,32.935 249.89999999999964,33.377999999999986 249.89999999999964,33.90899999999999 C249.89999999999964,34.80500000000001 249.39999999999964,35.64299999999997 248.5,36.42500000000001 C247.60000000000036,37.20600000000002 246.5,37.596000000000004 245.5,37.596000000000004 C244.79999999999927,37.596000000000004 244.29999999999927,37.435 243.89999999999964,37.11200000000002 C243.5,36.75799999999998 243.29999999999927,36.315 243.29999999999927,35.78399999999999 C243.29999999999927,34.88799999999998 243.79999999999927,34.05000000000001 244.70000000000073,33.26799999999997 C245.60000000000036,32.48700000000002 246.60000000000036,32.096000000000004 247.70000000000073,32.096000000000004" />
<path d="M203.10000000000036,14.127999999999986 L205.5,12.175000000000011 C205.60000000000036,12.122000000000014 205.70000000000073,12.096000000000004 205.70000000000073,12.096000000000004 C205.79999999999927,12.096000000000004 205.79999999999927,12.122000000000014 205.89999999999964,12.175000000000011 L206.29999999999927,12.487000000000023 C206.39999999999964,12.550000000000011 206.39999999999964,12.627999999999986 206.39999999999964,12.721000000000004 C206.39999999999964,12.783999999999992 206.39999999999964,12.862000000000023 206.29999999999927,12.956000000000017 L204.0,14.846000000000004 L206.29999999999927,16.737000000000023 C206.39999999999964,16.810000000000002 206.39999999999964,16.89100000000002 206.39999999999964,16.978999999999985 C206.39999999999964,17.067999999999984 206.39999999999964,17.142999999999972 206.29999999999927,17.206000000000017 L205.89999999999964,17.517999999999972 C205.79999999999927,17.569999999999993 205.79999999999927,17.596000000000004 205.70000000000073,17.596000000000004 C205.70000000000073,17.596000000000004 205.60000000000036,17.569999999999993 205.5,17.517999999999972 L203.10000000000036,15.564999999999998 L200.70000000000073,17.517999999999972 C200.60000000000036,17.569999999999993 200.60000000000036,17.596000000000004 200.5,17.596000000000004 C200.5,17.596000000000004 200.39999999999964,17.569999999999993 200.29999999999927,17.517999999999972 L199.89999999999964,17.206000000000017 C199.89999999999964,17.142999999999972 199.79999999999927,17.064999999999998 199.79999999999927,16.971000000000004 C199.79999999999927,16.908999999999992 199.89999999999964,16.831000000000017 199.89999999999964,16.737000000000023 L202.29999999999927,14.846000000000004 L199.89999999999964,12.956000000000017 C199.89999999999964,12.882999999999981 199.79999999999927,12.802000000000021 199.79999999999927,12.713999999999999 C199.79999999999927,12.625 199.89999999999964,12.550000000000011 199.89999999999964,12.487000000000023 L200.29999999999927,12.175000000000011 C200.39999999999964,12.122000000000014 200.5,12.096000000000004 200.5,12.096000000000004 C200.60000000000036,12.096000000000004 200.60000000000036,12.122000000000014 200.70000000000073,12.175000000000011 L203.10000000000036,14.127999999999986" />
<path d="M167.5,14.127999999999986 L169.89999999999964,12.175000000000011 C170.0,12.122000000000014 170.0,12.096000000000004 170.10000000000036,12.096000000000004 C170.10000000000036,12.096000000000004 170.20000000000073,12.122000000000014 170.29999999999927,12.175000000000011 L170.70000000000073,12.487000000000023 C170.70000000000073,12.550000000000011 170.79999999999927,12.627999999999986 170.79999999999927,12.721000000000004 C170.79999999999927,12.783999999999992 170.70000000000073,12.862000000000023 170.70000000000073,12.956000000000017 L168.29999999999927,14.846000000000004 L170.70000000000073,16.737000000000023 C170.70000000000073,16.810000000000002 170.79999999999927,16.89100000000002 170.79999999999927,16.978999999999985 C170.79999999999927,17.067999999999984 170.70000000000073,17.142999999999972 170.70000000000073,17.206000000000017 L170.29999999999927,17.517999999999972 C170.20000000000073,17.569999999999993 170.10000000000036,17.596000000000004 170.10000000000036,17.596000000000004 C170.0,17.596000000000004 170.0,17.569999999999993 169.89999999999964,17.517999999999972 L167.5,15.564999999999998 L165.10000000000036,17.517999999999972 C165.0,17.569999999999993 164.89999999999964,17.596000000000004 164.89999999999964,17.596000000000004 C164.79999999999927,17.596000000000004 164.79999999999927,17.569999999999993 164.70000000000073,17.517999999999972 L164.29999999999927,17.206000000000017 C164.20000000000073,17.142999999999972 164.20000000000073,17.064999999999998 164.20000000000073,16.971000000000004 C164.20000000000073,16.908999999999992 164.20000000000073,16.831000000000017 164.29999999999927,16.737000000000023 L166.60000000000036,14.846000000000004 L164.29999999999927,12.956000000000017 C164.20000000000073,12.882999999999981 164.20000000000073,12.802000000000021 164.20000000000073,12.713999999999999 C164.20000000000073,12.625 164.20000000000073,12.550000000000011 164.29999999999927,12.487000000000023 L164.70000000000073,12.175000000000011 C164.79999999999927,12.122000000000014 164.79999999999927,12.096000000000004 164.89999999999964,12.096000000000004 C164.89999999999964,12.096000000000004 165.0,12.122000000000014 165.10000000000036,12.175000000000011 L167.5,14.127999999999986" />
<path d="M168.60000000000036,22.096000000000004 C169.20000000000073,22.096000000000004 169.70000000000073,22.25799999999998 170.20000000000073,22.581000000000017 C170.60000000000036,22.935000000000002 170.79999999999927,23.377999999999986 170.79999999999927,23.908999999999992 C170.79999999999927,24.805000000000007 170.29999999999927,25.642999999999972 169.39999999999964,26.42500000000001 C168.5,27.206000000000017 167.5,27.596000000000004 166.39999999999964,27.596000000000004 C165.79999999999927,27.596000000000004 165.20000000000073,27.435000000000002 164.79999999999927,27.112000000000023 C164.39999999999964,26.75799999999998 164.20000000000073,26.314999999999998 164.20000000000073,25.783999999999992 C164.20000000000073,24.887999999999977 164.70000000000073,24.05000000000001 165.60000000000036,23.267999999999972 C166.5,22.487000000000023 167.5,22.096000000000004 168.60000000000036,22.096000000000004" />
<path d="M139.0,14.127999999999986 L141.39999999999964,12.175000000000011 C141.39999999999964,12.122000000000014 141.5,12.096000000000004 141.60000000000036,12.096000000000004 C141.60000000000036,12.096000000000004 141.70000000000073,12.122000000000014 141.79999999999927,12.175000000000011 L142.20000000000073,12.487000000000023 C142.20000000000073,12.550000000000011 142.29999999999927,12.627999999999986 142.29999999999927,12.721000000000004 C142.29999999999927,12.783999999999992 142.20000000000073,12.862000000000023 142.20000000000073,12.956000000000017 L139.79999999999927,14.846000000000004 L142.20000000000073,16.737000000000023 C142.20000000000073,16.810000000000002 142.29999999999927,16.89100000000002 142.29999999999927,16.978999999999985 C142.29999999999927,17.067999999999984 142.20000000000073,17.142999999999972 142.20000000000073,17.206000000000017 L141.79999999999927,17.517999999999972 C141.70000000000073,17.569999999999993 141.60000000000036,17.596000000000004 141.60000000000036,17.596000000000004 C141.5,17.596000000000004 141.39999999999964,17.569999999999993 141.39999999999964,17.517999999999972 L139.0,15.564999999999998 L136.60000000000036,17.517999999999972 C136.5,17.569999999999993 136.39999999999964,17.596000000000004 136.39999999999964,17.596000000000004 C136.29999999999927,17.596000000000004 136.29999999999927,17.569999999999993 136.20000000000073,17.517999999999972 L135.79999999999927,17.206000000000017 C135.70000000000073,17.142999999999972 135.70000000000073,17.064999999999998 135.70000000000073,16.971000000000004 C135.70000000000073,16.908999999999992 135.70000000000073,16.831000000000017 135.79999999999927,16.737000000000023 L138.10000000000036,14.846000000000004 L135.79999999999927,12.956000000000017 C135.70000000000073,12.882999999999981 135.70000000000073,12.802000000000021 135.70000000000073,12.713999999999999 C135.70000000000073,12.625 135.70000000000073,12.550000000000011 135.79999999999927,12.487000000000023 L136.20000000000073,12.175000000000011 C136.29999999999927,12.122000000000014 136.29999999999927,12.096000000000004 136.39999999999964,12.096000000000004 C136.39999999999964,12.096000000000004 136.5,12.122000000000014 136.60000000000036,12.175000000000011 L139.0,14.127999999999986" />
<path d="M140.10000000000036,32.096000000000004 C140.70000000000073,32.096000000000004 141.20000000000073,32.25799999999998 141.70000000000073,32.58100000000002 C142.10000000000036,32.935 142.29999999999927,33.377999999999986 142.29999999999927,33.90899999999999 C142.29999999999927,34.80500000000001 141.79999999999927,35.64299999999997 140.89999999999964,36.42500000000001 C139.89999999999964,37.20600000000002 138.89999999999964,37.596000000000004 137.89999999999964,37.596000000000004 C137.20000000000073,37.596000000000004 136.70000000000073,37.435 136.29999999999927,37.11200000000002 C135.89999999999964,36.75799999999998 135.70000000000073,36.315 135.70000000000073,35.78399999999999 C135.70000000000073,34.88799999999998 136.20000000000073,34.05000000000001 137.10000000000036,33.26799999999997 C138.0,32.48700000000002 139.0,32.096000000000004 140.10000000000036,32.096000000000004" />
<path d="M110.5,14.127999999999986 L112.89999999999964,12.175000000000011 C112.89999999999964,12.122000000000014 113.0,12.096000000000004 113.0,12.096000000000004 C113.10000000000036,12.096000000000004 113.20000000000073,12.122000000000014 113.20000000000073,12.175000000000011 L113.70000000000073,12.487000000000023 C113.70000000000073,12.550000000000011 113.70000000000073,12.627999999999986 113.70000000000073,12.721000000000004 C113.70000000000073,12.783999999999992 113.70000000000073,12.862000000000023 113.70000000000073,12.956000000000017 L111.29999999999927,14.846000000000004 L113.70000000000073,16.737000000000023 C113.70000000000073,16.810000000000002 113.70000000000073,16.89100000000002 113.70000000000073,16.978999999999985 C113.70000000000073,17.067999999999984 113.70000000000073,17.142999999999972 113.70000000000073,17.206000000000017 L113.20000000000073,17.517999999999972 C113.20000000000073,17.569999999999993 113.10000000000036,17.596000000000004 113.0,17.596000000000004 C113.0,17.596000000000004 112.89999999999964,17.569999999999993 112.89999999999964,17.517999999999972 L110.5,15.564999999999998 L108.0,17.517999999999972 C108.0,17.569999999999993 107.89999999999964,17.596000000000004 107.89999999999964,17.596000000000004 C107.79999999999927,17.596000000000004 107.70000000000073,17.569999999999993 107.70000000000073,17.517999999999972 L107.29999999999927,17.206000000000017 C107.20000000000073,17.142999999999972 107.20000000000073,17.064999999999998 107.20000000000073,16.971000000000004 C107.20000000000073,16.908999999999992 107.20000000000073,16.831000000000017 107.29999999999927,16.737000000000023 L109.60000000000036,14.846000000000004 L107.29999999999927,12.956000000000017 C107.20000000000073,12.882999999999981 107.20000000000073,12.802000000000021 107.20000000000073,12.713999999999999 C107.20000000000073,12.625 107.20000000000073,12.550000000000011 107.29999999999927,12.487000000000023 L107.70000000000073,12.175000000000011 C107.70000000000073,12.122000000000014 107.79999999999927,12.096000000000004 107.89999999999964,12.096000000000004 C107.89999999999964,12.096000000000004 108.0,12.122000000000014 108.0,12.175000000000011 L110.5,14.127999999999986" />
<path d="M111.60000000000036,22.096000000000004 C112.20000000000073,22.096000000000004 112.70000000000073,22.25799999999998 113.20000000000073,22.581000000000017 C113.5,22.935000000000002 113.70000000000073,23.377999999999986 113.70000000000073,23.908999999999992 C113.70000000000073,24.805000000000007 113.29999999999927,25.642999999999972 112.39999999999964,26.42500000000001 C111.39999999999964,27.206000000000017 110.39999999999964,27.596000000000004 109.39999999999964,27.596000000000004 C108.70000000000073,27.596000000000004 108.20000000000073,27.435000000000002 107.79999999999927,27.112000000000023 C107.39999999999964,26.75799999999998 107.20000000000073,26.314999999999998 107.20000000000073,25.783999999999992 C107.20000000000073,24.887999999999977 107.60000000000036,24.05000000000001 108.60000000000036,23.267999999999972 C109.5,22.487000000000023 110.5,22.096000000000004 111.60000000000036,22.096000000000004" />
<path d="M111.60000000000036,32.096000000000004 C112.20000000000073,32.096000000000004 112.70000000000073,32.25799999999998 113.20000000000073,32.58100000000002 C113.5,32.935 113.70000000000073,33.377999999999986 113.70000000000073,33.90899999999999 C113.70000000000073,34.80500000000001 113.29999999999927,35.64299999999997 112.39999999999964,36.42500000000001 C111.39999999999964,37.20600000000002 110.39999999999964,37.596000000000004 109.39999999999964,37.596000000000004 C108.70000000000073,37.596000000000004 108.20000000000073,37.435 107.79999999999927,37.11200000000002 C107.39999999999964,36.75799999999998 107.20000000000073,36.315 107.20000000000073,35.78399999999999 C107.20000000000073,34.88799999999998 107.60000000000036,34.05000000000001 108.60000000000036,33.26799999999997 C109.5,32.48700000000002 110.5,32.096000000000004 111.60000000000036,32.096000000000004" />
<path d="M79.79999999999927,227.221 C79.79999999999927,227.221 79.79999999999927,227.221 79.89999999999964,227.221 C79.89999999999964,227.211 80.0,227.20600000000002 80.0,227.20600000000002 C81.5,227.20600000000002 82.70000000000073,227.721 83.60000000000036,228.753 C84.5,229.76299999999998 85.0,230.945 85.0,232.3 C85.0,233.98700000000002 84.29999999999927,235.35700000000003 82.89999999999964,236.409 C82.60000000000036,236.70100000000002 82.10000000000036,236.935 81.5,237.11200000000002 C81.60000000000036,237.95600000000002 81.60000000000036,238.63799999999998 81.60000000000036,239.159 C81.60000000000036,239.26299999999998 81.60000000000036,239.64299999999997 81.60000000000036,240.3 C81.5,241.50799999999998 81.10000000000036,242.555 80.29999999999927,243.44 C79.60000000000036,244.315 78.60000000000036,244.753 77.5,244.753 C76.39999999999964,244.753 75.5,244.38299999999998 74.79999999999927,243.64299999999997 C74.10000000000036,242.88299999999998 73.70000000000073,241.971 73.70000000000073,240.909 C73.70000000000073,240.346 73.89999999999964,239.86700000000002 74.29999999999927,239.471 C74.79999999999927,239.086 75.29999999999927,238.89299999999997 75.89999999999964,238.89299999999997 C76.39999999999964,238.89299999999997 76.79999999999927,239.096 77.20000000000073,239.503 C77.5,239.878 77.70000000000073,240.346 77.70000000000073,240.909 C77.70000000000073,241.409 77.5,241.841 77.20000000000073,242.20600000000002 C76.79999999999927,242.57 76.39999999999964,242.753 75.89999999999964,242.753 C75.70000000000073,242.753 75.5,242.716 75.29999999999927,242.64299999999997 C75.79999999999927,243.48700000000002 76.60000000000036,243.909 77.60000000000036,243.909 C78.39999999999964,243.909 79.20000000000073,243.54399999999998 79.79999999999927,242.815 C80.39999999999964,242.065 80.70000000000073,241.185 80.70000000000073,240.175 C80.79999999999927,239.55 80.79999999999927,239.195 80.79999999999927,239.11200000000002 C80.79999999999927,238.38299999999998 80.70000000000073,237.784 80.70000000000073,237.315 C80.0,237.41899999999998 79.5,237.471 79.0,237.471 C77.10000000000036,237.471 75.60000000000036,236.753 74.29999999999927,235.315 C73.10000000000036,233.86700000000002 72.5,232.149 72.5,230.159 C72.5,229.74200000000002 72.5,229.32 72.60000000000036,228.89299999999997 C72.60000000000036,228.539 72.70000000000073,228.154 72.89999999999964,227.73700000000002 C72.89999999999964,227.497 73.10000000000036,227.11700000000002 73.39999999999964,226.596 C73.5,226.44 73.60000000000036,226.245 73.70000000000073,226.01100000000002 C73.89999999999964,225.776 74.0,225.622 74.0,225.55 C74.10000000000036,225.289 74.39999999999964,224.935 74.79999999999927,224.48700000000002 C74.89999999999964,224.372 75.0,224.245 75.10000000000036,224.10399999999998 C75.20000000000073,223.964 75.29999999999927,223.846 75.39999999999964,223.753 C75.5,223.659 75.5,223.586 75.60000000000036,223.534 C75.60000000000036,223.48200000000003 75.89999999999964,223.13799999999998 76.39999999999964,222.503 C76.60000000000036,222.36700000000002 76.70000000000073,222.22699999999998 76.79999999999927,222.08100000000002 C76.89999999999964,221.935 77.0,221.81799999999998 77.10000000000036,221.72899999999998 C77.20000000000073,221.64100000000002 77.29999999999927,221.58100000000002 77.29999999999927,221.55 C76.79999999999927,219.997 76.5,218.75799999999998 76.39999999999964,217.83100000000002 C76.29999999999927,217.091 76.29999999999927,216.07600000000002 76.29999999999927,214.784 C76.29999999999927,213.649 76.5,212.586 77.10000000000036,211.596 C77.60000000000036,210.57600000000002 78.29999999999927,209.73700000000002 79.20000000000073,209.08100000000002 C79.29999999999927,209.039 79.29999999999927,209.01799999999997 79.39999999999964,209.01799999999997 C79.5,209.01799999999997 79.5,209.039 79.60000000000036,209.08100000000002 C80.29999999999927,209.925 80.89999999999964,211.024 81.39999999999964,212.378 C81.89999999999964,213.73200000000003 82.20000000000073,214.966 82.20000000000073,216.08100000000002 C82.20000000000073,217.33100000000002 81.89999999999964,218.503 81.29999999999927,219.596 C80.60000000000036,220.753 79.70000000000073,221.95100000000002 78.70000000000073,223.19 C78.89999999999964,224.04399999999998 79.29999999999927,225.38799999999998 79.79999999999927,227.221 M81.39999999999964,236.315 C82.10000000000036,236.065 82.60000000000036,235.64299999999997 83.0,235.05 C83.39999999999964,234.47699999999998 83.60000000000036,233.83100000000002 83.60000000000036,233.11200000000002 C83.60000000000036,232.185 83.29999999999927,231.36200000000002 82.70000000000073,230.64299999999997 C82.0,229.904 81.20000000000073,229.48700000000002 80.20000000000073,229.39299999999997 C80.79999999999927,232.14299999999997 81.20000000000073,234.45100000000002 81.39999999999964,236.315 M73.89999999999964,231.8 C73.89999999999964,233.091 74.39999999999964,234.22699999999998 75.39999999999964,235.20600000000002 C76.5,236.154 77.70000000000073,236.628 79.0,236.628 C79.60000000000036,236.628 80.10000000000036,236.586 80.60000000000036,236.503 C80.39999999999964,234.524 80.0,232.154 79.39999999999964,229.39299999999997 C78.60000000000036,229.47699999999998 78.10000000000036,229.73700000000002 77.60000000000036,230.175 C77.20000000000073,230.63299999999998 77.0,231.149 77.0,231.721 C77.0,232.711 77.5,233.51299999999998 78.60000000000036,234.128 C78.60000000000036,234.221 78.70000000000073,234.32 78.70000000000073,234.425 C78.70000000000073,234.529 78.60000000000036,234.622 78.60000000000036,234.70600000000002 C78.5,234.8 78.39999999999964,234.846 78.29999999999927,234.846 C78.20000000000073,234.846 78.20000000000073,234.836 78.10000000000036,234.815 C77.29999999999927,234.409 76.79999999999927,233.88799999999998 76.39999999999964,233.253 C76.0,232.565 75.79999999999927,231.878 75.79999999999927,231.19 C75.79999999999927,230.29399999999998 76.10000000000036,229.48200000000003 76.60000000000036,228.753 C77.20000000000073,228.024 78.0,227.555 78.89999999999964,227.346 C78.5,225.88799999999998 78.20000000000073,224.747 78.0,223.925 C77.79999999999927,224.164 77.60000000000036,224.44799999999998 77.29999999999927,224.776 C77.0,225.10399999999998 76.79999999999927,225.305 76.79999999999927,225.378 C76.29999999999927,225.98200000000003 75.89999999999964,226.45600000000002 75.70000000000073,226.8 C75.20000000000073,227.414 74.89999999999964,227.94 74.70000000000073,228.378 C74.5,228.878 74.29999999999927,229.41899999999998 74.10000000000036,230.003 C73.89999999999964,230.565 73.89999999999964,231.164 73.89999999999964,231.8 M80.39999999999964,211.94 C79.39999999999964,212.41899999999998 78.60000000000036,213.10700000000003 78.10000000000036,214.003 C77.5,214.93 77.20000000000073,215.925 77.20000000000073,216.98700000000002 C77.20000000000073,217.925 77.5,219.19 77.89999999999964,220.784 C78.89999999999964,219.649 79.60000000000036,218.60199999999998 80.0,217.64299999999997 C80.5,216.622 80.79999999999927,215.56 80.79999999999927,214.45600000000002 C80.79999999999927,213.622 80.60000000000036,212.784 80.39999999999964,211.94 M78.20000000000073,247.58100000000002 C78.60000000000036,247.247 78.70000000000073,246.909 78.70000000000073,246.565 C78.70000000000073,246.29399999999998 78.60000000000036,246.086 78.39999999999964,245.94 C78.20000000000073,245.784 77.89999999999964,245.70600000000002 77.60000000000036,245.70600000000002 C77.29999999999927,245.70600000000002 77.20000000000073,245.779 77.0,245.925 C76.89999999999964,246.05 76.79999999999927,246.211 76.79999999999927,246.409 C76.79999999999927,246.649 76.89999999999964,246.82600000000002 77.10000000000036,246.94 L78.20000000000073,247.58100000000002 M78.60000000000036,247.753 C79.10000000000036,248.055 79.39999999999964,248.461 79.39999999999964,248.971 L79.39999999999964,249.034 C79.39999999999964,249.43 79.20000000000073,249.76799999999997 78.89999999999964,250.05 C78.60000000000036,250.33100000000002 78.10000000000036,250.471 77.5,250.471 C77.0,250.471 76.60000000000036,250.341 76.20000000000073,250.08100000000002 C75.79999999999927,249.83100000000002 75.70000000000073,249.49200000000002 75.70000000000073,249.065 C75.70000000000073,248.899 75.70000000000073,248.74200000000002 75.79999999999927,248.596 C75.89999999999964,248.43 76.0,248.315 76.10000000000036,248.253 L76.39999999999964,247.878 C76.0,247.60700000000003 75.79999999999927,247.247 75.79999999999927,246.8 C75.79999999999927,246.445 76.0,246.13299999999998 76.29999999999927,245.86200000000002 C76.60000000000036,245.60199999999998 77.0,245.471 77.60000000000036,245.471 C78.0,245.471 78.39999999999964,245.57 78.70000000000073,245.76799999999997 C79.0,245.966 79.20000000000073,246.23200000000003 79.20000000000073,246.565 C79.20000000000073,246.91899999999998 79.0,247.315 78.60000000000036,247.753 M76.70000000000073,248.05 C76.29999999999927,248.39299999999997 76.10000000000036,248.73200000000003 76.10000000000036,249.065 C76.10000000000036,249.41899999999998 76.29999999999927,249.70100000000002 76.5,249.909 C76.79999999999927,250.128 77.10000000000036,250.23700000000002 77.5,250.23700000000002 C77.70000000000073,250.23700000000002 78.0,250.154 78.10000000000036,249.98700000000002 C78.29999999999927,249.83100000000002 78.29999999999927,249.64299999999997 78.29999999999927,249.425 C78.29999999999927,249.13299999999998 78.20000000000073,248.925 78.0,248.8 L76.70000000000073,248.05" />
<path d="M77.70000000000073,188.409 C78.10000000000036,188.04399999999998 78.20000000000073,187.70600000000002 78.20000000000073,187.39299999999997 C78.20000000000073,187.10199999999998 78.10000000000036,186.88299999999998 77.89999999999964,186.73700000000002 C77.60000000000036,186.58100000000002 77.39999999999964,186.503 77.10000000000036,186.503 C76.79999999999927,186.503 76.70000000000073,186.57600000000002 76.5,186.721 C76.39999999999964,186.85700000000003 76.29999999999927,187.01799999999997 76.29999999999927,187.20600000000002 C76.29999999999927,187.445 76.39999999999964,187.622 76.60000000000036,187.73700000000002 L77.70000000000073,188.409 M78.0,188.565 C78.60000000000036,188.85700000000003 78.89999999999964,189.26299999999998 78.89999999999964,189.784 C78.89999999999964,189.784 78.89999999999964,189.805 78.89999999999964,189.846 C78.89999999999964,190.24200000000002 78.70000000000073,190.57600000000002 78.39999999999964,190.846 C78.0,191.128 77.60000000000036,191.26799999999997 77.0,191.26799999999997 C76.5,191.26799999999997 76.10000000000036,191.13799999999998 75.70000000000073,190.878 C75.29999999999927,190.63799999999998 75.10000000000036,190.31 75.10000000000036,189.89299999999997 C75.10000000000036,189.70600000000002 75.20000000000073,189.539 75.29999999999927,189.39299999999997 C75.39999999999964,189.22699999999998 75.5,189.11200000000002 75.5,189.05 C75.5,189.05 75.70000000000073,188.925 75.89999999999964,188.675 C75.5,188.404 75.29999999999927,188.055 75.29999999999927,187.628 C75.29999999999927,187.26299999999998 75.5,186.94 75.79999999999927,186.659 C76.10000000000036,186.399 76.5,186.26799999999997 77.10000000000036,186.26799999999997 C77.5,186.26799999999997 77.89999999999964,186.36700000000002 78.20000000000073,186.565 C78.5,186.76299999999998 78.70000000000073,187.039 78.70000000000073,187.39299999999997 C78.70000000000073,187.72699999999998 78.5,188.11700000000002 78.0,188.565 M76.20000000000073,188.846 C75.79999999999927,189.19 75.60000000000036,189.539 75.60000000000036,189.89299999999997 C75.60000000000036,190.22699999999998 75.70000000000073,190.497 76.0,190.70600000000002 C76.29999999999927,190.925 76.60000000000036,191.034 77.0,191.034 C77.20000000000073,191.034 77.5,190.95100000000002 77.60000000000036,190.784 C77.79999999999927,190.628 77.79999999999927,190.435 77.79999999999927,190.20600000000002 C77.79999999999927,189.925 77.70000000000073,189.721 77.5,189.596 L76.20000000000073,188.846 M83.79999999999927,168.065 C83.60000000000036,167.86700000000002 83.60000000000036,167.625 83.60000000000036,167.339 C83.60000000000036,167.05200000000002 83.60000000000036,166.813 83.79999999999927,166.62 C84.0,166.42700000000002 84.29999999999927,166.33100000000002 84.60000000000036,166.33100000000002 C84.79999999999927,166.33100000000002 85.10000000000036,166.42700000000002 85.29999999999927,166.62 C85.5,166.813 85.60000000000036,167.05200000000002 85.60000000000036,167.339 C85.60000000000036,167.625 85.5,167.86700000000002 85.29999999999927,168.065 C85.10000000000036,168.26299999999998 84.79999999999927,168.36200000000002 84.60000000000036,168.36200000000002 C84.29999999999927,168.36200000000002 84.0,168.26299999999998 83.79999999999927,168.065 M83.79999999999927,173.07299999999998 C83.60000000000036,172.88 83.60000000000036,172.64100000000002 83.60000000000036,172.35399999999998 C83.60000000000036,172.06799999999998 83.60000000000036,171.82600000000002 83.79999999999927,171.628 C84.0,171.43 84.29999999999927,171.33100000000002 84.60000000000036,171.33100000000002 C84.79999999999927,171.33100000000002 85.10000000000036,171.43 85.29999999999927,171.628 C85.5,171.82600000000002 85.60000000000036,172.06799999999998 85.60000000000036,172.35399999999998 C85.60000000000036,172.64100000000002 85.5,172.88 85.29999999999927,173.07299999999998 C85.10000000000036,173.26600000000002 84.79999999999927,173.36200000000002 84.60000000000036,173.36200000000002 C84.29999999999927,173.36200000000002 84.0,173.26600000000002 83.79999999999927,173.07299999999998 M77.10000000000036,164.596 C78.79999999999927,164.596 80.20000000000073,165.029 81.29999999999927,165.89299999999997 C82.39999999999964,166.81 82.89999999999964,168.05 82.89999999999964,169.61200000000002 C82.89999999999964,170.664 82.70000000000073,171.628 82.29999999999927,172.503 C81.89999999999964,173.41899999999998 81.39999999999964,174.22699999999998 80.79999999999927,174.925 C80.10000000000036,175.64299999999997 79.29999999999927,176.32 78.39999999999964,176.95600000000002 C77.5,177.58100000000002 76.60000000000036,178.14299999999997 75.60000000000036,178.64299999999997 C73.70000000000073,179.61200000000002 72.60000000000036,180.096 72.39999999999964,180.096 C72.20000000000073,180.096 72.20000000000073,180.01299999999998 72.20000000000073,179.846 C72.20000000000073,179.784 72.20000000000073,179.72699999999998 72.20000000000073,179.675 C72.89999999999964,179.279 73.70000000000073,178.779 74.70000000000073,178.175 C75.29999999999927,177.76799999999997 76.0,177.20600000000002 76.89999999999964,176.48700000000002 C77.70000000000073,175.81 78.29999999999927,175.175 78.70000000000073,174.58100000000002 C79.20000000000073,173.98700000000002 79.60000000000036,173.25799999999998 80.0,172.39299999999997 C80.29999999999927,171.51799999999997 80.5,170.654 80.5,169.8 C80.5,168.539 80.20000000000073,167.44 79.5,166.503 C78.89999999999964,165.565 78.10000000000036,165.096 77.10000000000036,165.096 C76.29999999999927,165.096 75.70000000000073,165.33100000000002 75.20000000000073,165.8 C74.60000000000036,166.279 74.20000000000073,166.88299999999998 74.0,167.61200000000002 C74.20000000000073,167.50799999999998 74.5,167.45600000000002 74.70000000000073,167.45600000000002 C75.20000000000073,167.45600000000002 75.70000000000073,167.654 76.10000000000036,168.05 C76.5,168.466 76.60000000000036,168.94 76.60000000000036,169.471 C76.60000000000036,170.034 76.5,170.539 76.10000000000036,170.98700000000002 C75.70000000000073,171.38299999999998 75.20000000000073,171.58100000000002 74.70000000000073,171.58100000000002 C74.10000000000036,171.58100000000002 73.60000000000036,171.38299999999998 73.10000000000036,170.98700000000002 C72.60000000000036,170.539 72.39999999999964,170.034 72.39999999999964,169.471 C72.39999999999964,168.128 72.89999999999964,166.98200000000003 73.79999999999927,166.034 C74.70000000000073,165.07600000000002 75.79999999999927,164.596 77.10000000000036,164.596" />
<path d="M79.79999999999927,122.221 C79.79999999999927,122.221 79.79999999999927,122.221 79.89999999999964,122.221 C79.89999999999964,122.21100000000001 80.0,122.20600000000002 80.0,122.20600000000002 C81.5,122.20600000000002 82.70000000000073,122.721 83.60000000000036,123.75299999999999 C84.5,124.76299999999998 85.0,125.945 85.0,127.30000000000001 C85.0,128.98700000000002 84.29999999999927,130.35700000000003 82.89999999999964,131.409 C82.60000000000036,131.70100000000002 82.10000000000036,131.935 81.5,132.11200000000002 C81.60000000000036,132.95600000000002 81.60000000000036,133.63799999999998 81.60000000000036,134.159 C81.60000000000036,134.26299999999998 81.60000000000036,134.64299999999997 81.60000000000036,135.3 C81.5,136.50799999999998 81.10000000000036,137.555 80.29999999999927,138.44 C79.60000000000036,139.315 78.60000000000036,139.753 77.5,139.753 C76.39999999999964,139.753 75.5,139.38299999999998 74.79999999999927,138.64299999999997 C74.10000000000036,137.88299999999998 73.70000000000073,136.971 73.70000000000073,135.909 C73.70000000000073,135.346 73.89999999999964,134.86700000000002 74.29999999999927,134.471 C74.79999999999927,134.086 75.29999999999927,133.89299999999997 75.89999999999964,133.89299999999997 C76.39999999999964,133.89299999999997 76.79999999999927,134.096 77.20000000000073,134.503 C77.5,134.878 77.70000000000073,135.346 77.70000000000073,135.909 C77.70000000000073,136.409 77.5,136.841 77.20000000000073,137.20600000000002 C76.79999999999927,137.57 76.39999999999964,137.753 75.89999999999964,137.753 C75.70000000000073,137.753 75.5,137.716 75.29999999999927,137.64299999999997 C75.79999999999927,138.48700000000002 76.60000000000036,138.909 77.60000000000036,138.909 C78.39999999999964,138.909 79.20000000000073,138.54399999999998 79.79999999999927,137.815 C80.39999999999964,137.065 80.70000000000073,136.185 80.70000000000073,135.175 C80.79999999999927,134.55 80.79999999999927,134.195 80.79999999999927,134.11200000000002 C80.79999999999927,133.38299999999998 80.70000000000073,132.784 80.70000000000073,132.315 C80.0,132.41899999999998 79.5,132.471 79.0,132.471 C77.10000000000036,132.471 75.60000000000036,131.753 74.29999999999927,130.315 C73.10000000000036,128.86700000000002 72.5,127.149 72.5,125.15899999999999 C72.5,124.74200000000002 72.5,124.32 72.60000000000036,123.89299999999997 C72.60000000000036,123.53899999999999 72.70000000000073,123.154 72.89999999999964,122.73700000000002 C72.89999999999964,122.49700000000001 73.10000000000036,122.11700000000002 73.39999999999964,121.596 C73.5,121.44 73.60000000000036,121.245 73.70000000000073,121.01100000000002 C73.89999999999964,120.77600000000001 74.0,120.62200000000001 74.0,120.55000000000001 C74.10000000000036,120.28899999999999 74.39999999999964,119.935 74.79999999999927,119.48700000000002 C74.89999999999964,119.37200000000001 75.0,119.245 75.10000000000036,119.10399999999998 C75.20000000000073,118.964 75.29999999999927,118.846 75.39999999999964,118.75299999999999 C75.5,118.65899999999999 75.5,118.58600000000001 75.60000000000036,118.53399999999999 C75.60000000000036,118.48200000000003 75.89999999999964,118.13799999999998 76.39999999999964,117.50299999999999 C76.60000000000036,117.36700000000002 76.70000000000073,117.22699999999998 76.79999999999927,117.08100000000002 C76.89999999999964,116.935 77.0,116.81799999999998 77.10000000000036,116.72899999999998 C77.20000000000073,116.64100000000002 77.29999999999927,116.58100000000002 77.29999999999927,116.55000000000001 C76.79999999999927,114.99700000000001 76.5,113.75799999999998 76.39999999999964,112.83100000000002 C76.29999999999927,112.09100000000001 76.29999999999927,111.07600000000002 76.29999999999927,109.78399999999999 C76.29999999999927,108.649 76.5,107.58600000000001 77.10000000000036,106.596 C77.60000000000036,105.57600000000002 78.29999999999927,104.73700000000002 79.20000000000073,104.08100000000002 C79.29999999999927,104.03899999999999 79.29999999999927,104.01799999999997 79.39999999999964,104.01799999999997 C79.5,104.01799999999997 79.5,104.03899999999999 79.60000000000036,104.08100000000002 C80.29999999999927,104.92500000000001 80.89999999999964,106.024 81.39999999999964,107.37799999999999 C81.89999999999964,108.73200000000003 82.20000000000073,109.96600000000001 82.20000000000073,111.08100000000002 C82.20000000000073,112.33100000000002 81.89999999999964,113.50299999999999 81.29999999999927,114.596 C80.60000000000036,115.75299999999999 79.70000000000073,116.95100000000002 78.70000000000073,118.19 C78.89999999999964,119.04399999999998 79.29999999999927,120.38799999999998 79.79999999999927,122.221 M81.39999999999964,131.315 C82.10000000000036,131.065 82.60000000000036,130.64299999999997 83.0,130.05 C83.39999999999964,129.47699999999998 83.60000000000036,128.83100000000002 83.60000000000036,128.11200000000002 C83.60000000000036,127.185 83.29999999999927,126.36200000000002 82.70000000000073,125.64299999999997 C82.0,124.904 81.20000000000073,124.48700000000002 80.20000000000073,124.39299999999997 C80.79999999999927,127.14299999999997 81.20000000000073,129.45100000000002 81.39999999999964,131.315 M73.89999999999964,126.80000000000001 C73.89999999999964,128.091 74.39999999999964,129.22699999999998 75.39999999999964,130.20600000000002 C76.5,131.154 77.70000000000073,131.628 79.0,131.628 C79.60000000000036,131.628 80.10000000000036,131.586 80.60000000000036,131.503 C80.39999999999964,129.524 80.0,127.154 79.39999999999964,124.39299999999997 C78.60000000000036,124.47699999999998 78.10000000000036,124.73700000000002 77.60000000000036,125.17500000000001 C77.20000000000073,125.63299999999998 77.0,126.149 77.0,126.721 C77.0,127.71100000000001 77.5,128.51299999999998 78.60000000000036,129.128 C78.60000000000036,129.221 78.70000000000073,129.32 78.70000000000073,129.425 C78.70000000000073,129.529 78.60000000000036,129.622 78.60000000000036,129.70600000000002 C78.5,129.8 78.39999999999964,129.846 78.29999999999927,129.846 C78.20000000000073,129.846 78.20000000000073,129.836 78.10000000000036,129.815 C77.29999999999927,129.409 76.79999999999927,128.88799999999998 76.39999999999964,128.253 C76.0,127.565 75.79999999999927,126.87799999999999 75.79999999999927,126.19 C75.79999999999927,125.29399999999998 76.10000000000036,124.48200000000003 76.60000000000036,123.75299999999999 C77.20000000000073,123.024 78.0,122.555 78.89999999999964,122.346 C78.5,120.88799999999998 78.20000000000073,119.74700000000001 78.0,118.92500000000001 C77.79999999999927,119.16399999999999 77.60000000000036,119.44799999999998 77.29999999999927,119.77600000000001 C77.0,120.10399999999998 76.79999999999927,120.305 76.79999999999927,120.37799999999999 C76.29999999999927,120.98200000000003 75.89999999999964,121.45600000000002 75.70000000000073,121.80000000000001 C75.20000000000073,122.41399999999999 74.89999999999964,122.94 74.70000000000073,123.37799999999999 C74.5,123.87799999999999 74.29999999999927,124.41899999999998 74.10000000000036,125.00299999999999 C73.89999999999964,125.565 73.89999999999964,126.16399999999999 73.89999999999964,126.80000000000001 M80.39999999999964,106.94 C79.39999999999964,107.41899999999998 78.60000000000036,108.10700000000003 78.10000000000036,109.00299999999999 C77.5,109.93 77.20000000000073,110.92500000000001 77.20000000000073,111.98700000000002 C77.20000000000073,112.92500000000001 77.5,114.19 77.89999999999964,115.78399999999999 C78.89999999999964,114.649 79.60000000000036,113.60199999999998 80.0,112.64299999999997 C80.5,111.62200000000001 80.79999999999927,110.56 80.79999999999927,109.45600000000002 C80.79999999999927,108.62200000000001 80.60000000000036,107.78399999999999 80.39999999999964,106.94 M78.20000000000073,142.58100000000002 C78.60000000000036,142.247 78.70000000000073,141.909 78.70000000000073,141.565 C78.70000000000073,141.29399999999998 78.60000000000036,141.086 78.39999999999964,140.94 C78.20000000000073,140.784 77.89999999999964,140.70600000000002 77.60000000000036,140.70600000000002 C77.29999999999927,140.70600000000002 77.20000000000073,140.779 77.0,140.925 C76.89999999999964,141.05 76.79999999999927,141.211 76.79999999999927,141.409 C76.79999999999927,141.649 76.89999999999964,141.82600000000002 77.10000000000036,141.94 L78.20000000000073,142.58100000000002 M78.60000000000036,142.753 C79.10000000000036,143.055 79.39999999999964,143.461 79.39999999999964,143.971 L79.39999999999964,144.034 C79.39999999999964,144.43 79.20000000000073,144.76799999999997 78.89999999999964,145.05 C78.60000000000036,145.33100000000002 78.10000000000036,145.471 77.5,145.471 C77.0,145.471 76.60000000000036,145.341 76.20000000000073,145.08100000000002 C75.79999999999927,144.83100000000002 75.70000000000073,144.49200000000002 75.70000000000073,144.065 C75.70000000000073,143.899 75.70000000000073,143.74200000000002 75.79999999999927,143.596 C75.89999999999964,143.43 76.0,143.315 76.10000000000036,143.253 L76.39999999999964,142.878 C76.0,142.60700000000003 75.79999999999927,142.247 75.79999999999927,141.8 C75.79999999999927,141.445 76.0,141.13299999999998 76.29999999999927,140.86200000000002 C76.60000000000036,140.60199999999998 77.0,140.471 77.60000000000036,140.471 C78.0,140.471 78.39999999999964,140.57 78.70000000000073,140.76799999999997 C79.0,140.966 79.20000000000073,141.23200000000003 79.20000000000073,141.565 C79.20000000000073,141.91899999999998 79.0,142.315 78.60000000000036,142.753 M76.70000000000073,143.05 C76.29999999999927,143.39299999999997 76.10000000000036,143.73200000000003 76.10000000000036,144.065 C76.10000000000036,144.41899999999998 76.29999999999927,144.70100000000002 76.5,144.909 C76.79999999999927,145.128 77.10000000000036,145.23700000000002 77.5,145.23700000000002 C77.70000000000073,145.23700000000002 78.0,145.154 78.10000000000036,144.98700000000002 C78.29999999999927,144.83100000000002 78.29999999999927,144.64299999999997 78.29999999999927,144.425 C78.29999999999927,144.13299999999998 78.20000000000073,143.925 78.0,143.8 L76.70000000000073,143.05" />
<path d="M82.20000000000073,32.346000000000004 L80.39999999999964,32.346000000000004 C80.20000000000073,32.346000000000004 80.20000000000073,32.28399999999999 80.20000000000073,32.15899999999999 L80.20000000000073,22.533999999999992 C80.20000000000073,22.408999999999992 80.20000000000073,22.346000000000004 80.39999999999964,22.346000000000004 L82.20000000000073,22.346000000000004 C82.29999999999927,22.346000000000004 82.39999999999964,22.408999999999992 82.39999999999964,22.533999999999992 L82.39999999999964,32.15899999999999 C82.39999999999964,32.28399999999999 82.29999999999927,32.346000000000004 82.20000000000073,32.346000000000004 M77.79999999999927,32.346000000000004 L75.89999999999964,32.346000000000004 C75.79999999999927,32.346000000000004 75.79999999999927,32.28399999999999 75.79999999999927,32.15899999999999 L75.79999999999927,22.533999999999992 C75.79999999999927,22.408999999999992 75.79999999999927,22.346000000000004 75.89999999999964,22.346000000000004 L77.79999999999927,22.346000000000004 C77.89999999999964,22.346000000000004 78.0,22.408999999999992 78.0,22.533999999999992 L78.0,32.15899999999999 C78.0,32.28399999999999 77.89999999999964,32.346000000000004 77.79999999999927,32.346000000000004" />
<path d="M242.79999999999927,223.23700000000002 C243.20000000000073,223.23700000000002 243.5,223.341 243.70000000000073,223.55 C243.89999999999964,223.789 244.0,224.01299999999998 244.0,224.221 C244.0,224.41899999999998 244.10000000000036,224.63799999999998 244.20000000000073,224.878 C244.29999999999927,225.086 244.39999999999964,225.19 244.60000000000036,225.19 C244.79999999999927,225.19 245.0,225.029 245.29999999999927,224.70600000000002 C245.5,224.425 245.70000000000073,224.16899999999998 245.79999999999927,223.94 C245.89999999999964,223.815 246.0,223.753 246.10000000000036,223.753 L246.10000000000036,223.753 C246.29999999999927,223.76299999999998 246.29999999999927,223.82600000000002 246.39999999999964,223.94 L243.89999999999964,232.346 C243.79999999999927,232.48200000000003 243.60000000000036,232.55 243.39999999999964,232.55 C243.20000000000073,232.55 243.0,232.48200000000003 242.79999999999927,232.346 L245.20000000000073,225.815 C244.39999999999964,226.11700000000002 243.70000000000073,226.26799999999997 243.10000000000036,226.26799999999997 C242.60000000000036,226.26799999999997 242.20000000000073,226.11700000000002 241.89999999999964,225.815 C241.5,225.534 241.29999999999927,225.159 241.29999999999927,224.69 C241.29999999999927,224.284 241.5,223.945 241.79999999999927,223.675 C242.0,223.38299999999998 242.39999999999964,223.23700000000002 242.79999999999927,223.23700000000002" />
<path d="M248.70000000000073,174.846 L241.60000000000036,174.846 C241.5,174.846 241.39999999999964,174.779 241.39999999999964,174.64299999999997 L241.39999999999964,171.909 C241.39999999999964,171.784 241.5,171.721 241.60000000000036,171.721 L248.70000000000073,171.721 C248.79999999999927,171.721 248.89999999999964,171.784 248.89999999999964,171.909 L248.89999999999964,174.64299999999997 C248.89999999999964,174.779 248.79999999999927,174.846 248.70000000000073,174.846" />
<path d="M248.70000000000073,122.346 L241.60000000000036,122.346 C241.5,122.346 241.39999999999964,122.279 241.39999999999964,122.14299999999997 L241.39999999999964,119.40899999999999 C241.39999999999964,119.28399999999999 241.5,119.221 241.60000000000036,119.221 L248.70000000000073,119.221 C248.79999999999927,119.221 248.89999999999964,119.28399999999999 248.89999999999964,119.40899999999999 L248.89999999999964,122.14299999999997 C248.89999999999964,122.279 248.79999999999927,122.346 248.70000000000073,122.346" />
<path d="M213.39999999999964,170.73700000000002 C213.79999999999927,170.73700000000002 214.10000000000036,170.841 214.29999999999927,171.05 C214.5,171.289 214.60000000000036,171.51299999999998 214.60000000000036,171.721 C214.60000000000036,171.91899999999998 214.70000000000073,172.13799999999998 214.79999999999927,172.378 C214.89999999999964,172.586 215.0,172.69 215.20000000000073,172.69 C215.39999999999964,172.69 215.60000000000036,172.529 215.89999999999964,172.20600000000002 C216.10000000000036,171.925 216.29999999999927,171.66899999999998 216.39999999999964,171.44 C216.5,171.315 216.60000000000036,171.253 216.70000000000073,171.253 L216.70000000000073,171.253 C216.89999999999964,171.26299999999998 216.89999999999964,171.32600000000002 217.0,171.44 L214.5,179.846 C214.39999999999964,179.98200000000003 214.20000000000073,180.05 214.0,180.05 C213.79999999999927,180.05 213.60000000000036,179.98200000000003 213.5,179.846 L215.79999999999927,173.315 C215.0,173.61700000000002 214.29999999999927,173.76799999999997 213.70000000000073,173.76799999999997 C213.20000000000073,173.76799999999997 212.79999999999927,173.61700000000002 212.5,173.315 C212.10000000000036,173.034 211.89999999999964,172.659 211.89999999999964,172.19 C211.89999999999964,171.784 212.10000000000036,171.445 212.39999999999964,171.175 C212.70000000000073,170.88299999999998 213.0,170.73700000000002 213.39999999999964,170.73700000000002" />
<path d="M213.39999999999964,118.23700000000002 C213.79999999999927,118.23700000000002 214.10000000000036,118.34100000000001 214.29999999999927,118.55000000000001 C214.5,118.78899999999999 214.60000000000036,119.01299999999998 214.60000000000036,119.221 C214.60000000000036,119.41899999999998 214.70000000000073,119.63799999999998 214.79999999999927,119.87799999999999 C214.89999999999964,120.08600000000001 215.0,120.19 215.20000000000073,120.19 C215.39999999999964,120.19 215.60000000000036,120.029 215.89999999999964,119.70600000000002 C216.10000000000036,119.42500000000001 216.29999999999927,119.16899999999998 216.39999999999964,118.94 C216.5,118.815 216.60000000000036,118.75299999999999 216.70000000000073,118.75299999999999 L216.70000000000073,118.75299999999999 C216.89999999999964,118.76299999999998 216.89999999999964,118.82600000000002 217.0,118.94 L214.5,127.346 C214.39999999999964,127.48200000000003 214.20000000000073,127.55000000000001 214.0,127.55000000000001 C213.79999999999927,127.55000000000001 213.60000000000036,127.48200000000003 213.5,127.346 L215.79999999999927,120.815 C215.0,121.11700000000002 214.29999999999927,121.26799999999997 213.70000000000073,121.26799999999997 C213.20000000000073,121.26799999999997 212.79999999999927,121.11700000000002 212.5,120.815 C212.10000000000036,120.53399999999999 211.89999999999964,120.15899999999999 211.89999999999964,119.69 C211.89999999999964,119.28399999999999 212.10000000000036,118.945 212.39999999999964,118.67500000000001 C212.70000000000073,118.38299999999998 213.0,118.23700000000002 213.39999999999964,118.23700000000002" />
<path d="M109.10000000000036,172.346 L164.89999999999964,172.346 L164.89999999999964,174.846 L109.10000000000036,174.846 L109.10000000000036,172.346" />
<path d="M109.10000000000036,168.596 L164.89999999999964,168.596 L164.89999999999964,171.096 L109.10000000000036,171.096 L109.10000000000036,168.596" />
<path d="M115.0,112.346 L170.79999999999927,112.346 L170.79999999999927,114.846 L115.0,114.846 L115.0,112.346" />
<path d="M115.0,116.096 L170.79999999999927,116.096 L170.79999999999927,118.596 L115.0,118.596 L115.0,116.096" />
<path d="M243.29999999999927,48.596000000000004 L272.39999999999964,48.596000000000004 L272.39999999999964,51.096000000000004 L243.29999999999927,51.096000000000004 L243.29999999999927,48.596000000000004" />
<path d="M107.20000000000073,49.846000000000004 L200.5,42.29399999999998 L200.5,44.79399999999998 L107.20000000000073,52.346000000000004 L107.20000000000073,49.846000000000004" />
<path d="M233.0,249.20600000000002 L233.0,249.315 C233.0,249.88799999999998 233.20000000000073,250.425 233.39999999999964,250.925 C233.60000000000036,251.57 233.79999999999927,252.034 234.0,252.315 C234.39999999999964,252.82600000000002 234.70000000000073,253.31 235.0,253.76799999999997 C235.5,254.39299999999997 235.79999999999927,254.841 236.0,255.11200000000002 C236.0,254.945 236.10000000000036,254.721 236.10000000000036,254.44 C236.10000000000036,253.86700000000002 235.89999999999964,253.22699999999998 235.5,252.51799999999997 C235.10000000000036,251.76799999999997 234.79999999999927,251.195 234.39999999999964,250.8 C234.0,250.22699999999998 233.5,249.695 233.0,249.20600000000002 M233.0,244.971 C233.0,245.63799999999998 233.20000000000073,246.305 233.39999999999964,246.971 C233.70000000000073,247.596 234.0,248.221 234.39999999999964,248.846 L235.5,250.596 C235.89999999999964,251.18 236.29999999999927,251.805 236.5,252.471 C236.79999999999927,253.149 236.89999999999964,253.805 236.89999999999964,254.44 C236.89999999999964,254.98200000000003 236.79999999999927,255.529 236.5,256.081 C236.89999999999964,256.88300000000004 237.10000000000036,257.63800000000003 237.10000000000036,258.346 C237.10000000000036,259.044 237.0,259.74199999999996 236.60000000000036,260.44000000000005 C237.0,261.201 237.20000000000073,261.956 237.20000000000073,262.706 C237.20000000000073,263.86199999999997 237.0,265.029 236.39999999999964,266.206 C236.29999999999927,266.37199999999996 236.20000000000073,266.456 236.0,266.456 C235.89999999999964,266.456 235.79999999999927,266.404 235.70000000000073,266.29999999999995 C235.60000000000036,266.19500000000005 235.5,266.091 235.5,265.98699999999997 C235.5,265.98699999999997 235.5,265.961 235.5,265.909 C236.10000000000036,264.846 236.39999999999964,263.779 236.39999999999964,262.706 C236.39999999999964,261.88300000000004 236.10000000000036,261.081 235.5,260.29999999999995 C234.79999999999927,259.50800000000004 234.0,258.716 233.0,257.92499999999995 L233.0,259.971 L232.39999999999964,259.971 L232.39999999999964,244.971 L233.0,244.971 M233.0,253.565 L233.0,253.659 C233.0,254.16899999999998 233.20000000000073,254.716 233.39999999999964,255.3 C233.60000000000036,255.904 233.79999999999927,256.36699999999996 234.10000000000036,256.69000000000005 C234.20000000000073,256.899 234.60000000000036,257.38300000000004 235.10000000000036,258.14300000000003 C235.60000000000036,258.779 235.89999999999964,259.221 236.10000000000036,259.471 C236.20000000000073,259.10699999999997 236.29999999999927,258.73199999999997 236.29999999999927,258.346 C236.29999999999927,257.794 236.10000000000036,257.19000000000005 235.70000000000073,256.534 C235.29999999999927,255.94 235.0,255.41899999999998 234.5,254.971 C234.10000000000036,254.534 233.60000000000036,254.065 233.0,253.565" />
<path d="M187.10000000000036,160.378 C187.5,160.378 187.79999999999927,160.86200000000002 188.10000000000036,161.83100000000002 C188.39999999999964,162.8 188.60000000000036,163.721 188.60000000000036,164.596 C188.60000000000036,165.336 188.39999999999964,166.07 188.10000000000036,166.8 C187.70000000000073,167.58100000000002 187.20000000000073,168.25799999999998 186.70000000000073,168.83100000000002 L185.10000000000036,170.628 C184.60000000000036,171.20100000000002 184.20000000000073,171.86200000000002 183.79999999999927,172.61200000000002 C183.39999999999964,173.341 183.20000000000073,174.086 183.20000000000073,174.846 L182.60000000000036,174.846 L182.60000000000036,169.846 L183.20000000000073,169.846 C183.60000000000036,169.628 184.10000000000036,169.274 184.79999999999927,168.784 C185.10000000000036,168.555 185.60000000000036,168.164 186.20000000000073,167.61200000000002 C186.70000000000073,167.14299999999997 187.10000000000036,166.664 187.39999999999964,166.175 C187.60000000000036,165.654 187.79999999999927,165.128 187.79999999999927,164.596 C187.79999999999927,163.35700000000003 187.39999999999964,162.122 186.70000000000073,160.89299999999997 C186.70000000000073,160.89299999999997 186.70000000000073,160.86700000000002 186.70000000000073,160.815 C186.70000000000073,160.70100000000002 186.70000000000073,160.60700000000003 186.79999999999927,160.534 C186.89999999999964,160.43 187.0,160.378 187.10000000000036,160.378" />
<path d="M188.5,117.346 L188.5,112.346 L189.20000000000073,112.346 C189.20000000000073,113.08600000000001 189.29999999999927,113.83100000000002 189.60000000000036,114.58100000000002 C189.89999999999964,115.38299999999998 190.29999999999927,116.08600000000001 190.60000000000036,116.69 C190.89999999999964,117.11700000000002 191.29999999999927,117.774 191.89999999999964,118.65899999999999 C192.29999999999927,119.33600000000001 192.60000000000036,120.04399999999998 192.89999999999964,120.78399999999999 C193.20000000000073,121.524 193.29999999999927,122.26799999999997 193.29999999999927,123.01799999999997 C193.29999999999927,124.37200000000001 193.10000000000036,125.75299999999999 192.5,127.15899999999999 C192.39999999999964,127.315 192.29999999999927,127.39299999999997 192.10000000000036,127.39299999999997 C192.0,127.39299999999997 191.89999999999964,127.34100000000001 191.79999999999927,127.23700000000002 C191.70000000000073,127.154 191.70000000000073,127.055 191.70000000000073,126.94 L191.70000000000073,126.846 C192.20000000000073,125.555 192.5,124.279 192.5,123.01799999999997 C192.5,122.36200000000002 192.29999999999927,121.65899999999999 191.89999999999964,120.90899999999999 C191.5,120.13799999999998 191.10000000000036,119.524 190.70000000000073,119.065 C190.29999999999927,118.53399999999999 189.70000000000073,117.96100000000001 189.20000000000073,117.346 L188.5,117.346" />
<polyline points="0.0,17.346000000000004 11.700000000000728,17.346000000000004" fill="none" stroke="#000000" stroke-width="0.40" />
<polyline points="0.0,22.346000000000004 11.700000000000728,22.346000000000004" fill="none" stroke="#000000" stroke-width="0.40" />
<polyline points="0.0,27.346000000000004 11.700000000000728,27.346000000000004" fill="none" stroke="#000000" stroke-width="0.40" />
<polyline points="0.0,32.346000000000004 11.700000000000728,32.346000000000004" fill="none" stroke="#000000" stroke-width="0.40" />
<polyline points="0.0,37.346000000000004 11.700000000000728,37.346000000000004" fill="none" stroke="#000000" stroke-width="0.40" />
<polyline points="0.0,112.346 11.700000000000728,112.346" fill="none" stroke="#000000" stroke-width="0.40" />
<polyline points="0.0,117.346 11.700000000000728,117.346" fill="none" stroke="#000000" stroke-width="0.40" />
<polyline points="0.0,122.346 11.700000000000728,122.346" fill="none" stroke="#000000" stroke-width="0.40" />
<polyline points="0.0,127.346 11.700000000000728,127.346" fill="none" stroke="#000000" stroke-width="0.40" />
<polyline points="0.0,132.346 11.700000000000728,132.346" fill="none" stroke="#000000" stroke-width="0.40" />
<polyline points="0.0,164.846 11.700000000000728,164.846" fill="none" stroke="#000000" stroke-width="0.40" />
<polyline points="0.0,169.846 11.700000000000728,169.846" fill="none" stroke="#000000" stroke-width="0.40" />
<polyline points="0.0,174.846 11.700000000000728,174.846" fill="none" stroke="#000000" stroke-width="0.40" />
<polyline points="0.0,179.846 11.700000000000728,179.846" fill="none" stroke="#000000" stroke-width="0.40" />
<polyline points="0.0,184.846 11.700000000000728,184.846" fill="none" stroke="#000000" stroke-width="0.40" />
<polyline points="0.0,217.346 11.700000000000728,217.346" fill="none" stroke="#000000" stroke-width="0.40" />
<polyline points="0.0,222.346 11.700000000000728,222.346" fill="none" stroke="#000000" stroke-width="0.40" />
<polyline points="0.0,227.346 11.700000000000728,227.346" fill="none" stroke="#000000" stroke-width="0.40" />
<polyline points="0.0,232.346 11.700000000000728,232.346" fill="none" stroke="#000000" stroke-width="0.40" />
<polyline points="0.0,237.346 11.700000000000728,237.346" fill="none" stroke="#000000" stroke-width="0.40" />
<polyline points="11.299999999999272,217.346 11.299999999999272,237.346" fill="" stroke="#000000" stroke-width="0.80" />
<polyline points="11.299999999999272,164.846 11.299999999999272,184.846" fill="" stroke="#000000" stroke-width="0.80" />
<polyline points="11.299999999999272,112.346 11.299999999999272,132.346" fill="" stroke="#000000" stroke-width="0.80" />
<polyline points="11.299999999999272,17.346000000000004 11.299999999999272,37.346000000000004" fill="" stroke="#000000" stroke-width="0.80" />
<polyline points="68.39999999999964,17.346000000000004 255.0,17.346000000000004" fill="none" stroke="#000000" stroke-width="0.40" />
<polyline points="68.39999999999964,22.346000000000004 255.0,22.346000000000004" fill="none" stroke="#000000" stroke-width="0.40" />
<polyline points="68.39999999999964,27.346000000000004 255.0,27.346000000000004" fill="none" stroke="#000000" stroke-width="0.40" />
<polyline points="68.39999999999964,32.346000000000004 255.0,32.346000000000004" fill="none" stroke="#000000" stroke-width="0.40" />
<polyline points="68.39999999999964,37.346000000000004 255.0,37.346000000000004" fill="none" stroke="#000000" stroke-width="0.40" />
<polyline points="68.39999999999964,112.346 255.0,112.346" fill="none" stroke="#000000" stroke-width="0.40" />
<polyline points="68.39999999999964,117.346 255.0,117.346" fill="none" stroke="#000000" stroke-width="0.40" />
<polyline points="68.39999999999964,122.346 255.0,122.346" fill="none" stroke="#000000" stroke-width="0.40" />
<polyline points="68.39999999999964,127.346 255.0,127.346" fill="none" stroke="#000000" stroke-width="0.40" />
<polyline points="68.39999999999964,132.346 255.0,132.346" fill="none" stroke="#000000" stroke-width="0.40" />
<polyline points="68.39999999999964,164.846 255.0,164.846" fill="none" stroke="#000000" stroke-width="0.40" />
<polyline points="68.39999999999964,169.846 255.0,169.846" fill="none" stroke="#000000" stroke-width="0.40" />
<polyline points="68.39999999999964,174.846 255.0,174.846" fill="none" stroke="#000000" stroke-width="0.40" />
<polyline points="68.39999999999964,179.846 255.0,179.846" fill="none" stroke="#000000" stroke-width="0.40" />
<polyline points="68.39999999999964,184.846 255.0,184.846" fill="none" stroke="#000000" stroke-width="0.40" />
<polyline points="68.39999999999964,217.346 255.0,217.346" fill="none" stroke="#000000" stroke-width="0.40" />
<polyline points="68.39999999999964,222.346 255.0,222.346" fill="none" stroke="#000000" stroke-width="0.40" />
<polyline points="68.39999999999964,227.346 255.0,227.346" fill="none" stroke="#000000" stroke-width="0.40" />
<polyline points="68.39999999999964,232.346 255.0,232.346" fill="none" stroke="#000000" stroke-width="0.40" />
<polyline points="68.39999999999964,237.346 255.0,237.346" fill="none" stroke="#000000" stroke-width="0.40" />
<polyline points="68.79999999999927,112.346 68.79999999999927,255.0" fill="" stroke="#000000" stroke-width="0.80" />
<polyline points="68.79999999999927,0.0 68.79999999999927,37.346000000000004" fill="" stroke="#000000" stroke-width="0.80" />
<polyline points="236.79999999999927,248.971 230.29999999999927,252.971" fill="" stroke="#000000" stroke-width="0.65" />
<polyline points="182.89999999999964,153.286 182.89999999999964,174.846" fill="" stroke="#000000" stroke-width="0.65" />
<polyline points="188.89999999999964,128.90699999999998 188.89999999999964,112.346" fill="" stroke="#000000" stroke-width="0.65" />
<polyline points="164.60000000000036,153.286 164.60000000000036,173.596" fill="" stroke="#000000" stroke-width="0.65" />
<polyline points="170.5,128.90699999999998 170.5,113.596" fill="" stroke="#000000" stroke-width="0.65" />
<polyline points="146.20000000000073,153.286 146.20000000000073,173.596" fill="" stroke="#000000" stroke-width="0.65" />
<polyline points="152.10000000000036,128.90699999999998 152.10000000000036,113.596" fill="" stroke="#000000" stroke-width="0.65" />
<polyline points="127.79999999999927,153.286 127.79999999999927,173.596" fill="" stroke="#000000" stroke-width="0.65" />
<polyline points="133.70000000000073,128.90699999999998 133.70000000000073,113.596" fill="" stroke="#000000" stroke-width="0.65" />
<polyline points="115.60000000000036,241.57799999999997 115.60000000000036,209.846" fill="" stroke="#000000" stroke-width="0.65" />
<polyline points="109.39999999999964,153.286 109.39999999999964,173.596" fill="" stroke="#000000" stroke-width="0.65" />
<polyline points="115.39999999999964,128.90699999999998 115.39999999999964,113.596" fill="" stroke="#000000" stroke-width="0.65" />
<polyline points="243.60000000000036,16.910000000000025 243.60000000000036,49.846000000000004" fill="" stroke="#000000" stroke-width="0.65" />
<polyline points="200.20000000000073,16.910000000000025 200.20000000000073,43.596000000000004" fill="" stroke="#000000" stroke-width="0.65" />
<polyline points="164.5,16.910000000000025 164.5,46.480999999999995" fill="" stroke="#000000" stroke-width="0.65" />
<polyline points="136.0,16.910000000000025 136.0,48.78899999999999" fill="" stroke="#000000" stroke-width="0.65" />
<polyline points="107.5,16.910000000000025 107.5,51.096000000000004" fill="" stroke="#000000" stroke-width="0.65" />
<polyline points="181.10000000000036,154.846 190.70000000000073,154.846" fill="" stroke="#000000" stroke-width="0.80" />
<polyline points="181.10000000000036,159.846 190.70000000000073,159.846" fill="" stroke="#000000" stroke-width="0.80" />
<polyline points="162.70000000000073,154.846 172.29999999999927,154.846" fill="" stroke="#000000" stroke-width="0.80" />
<polyline points="162.70000000000073,159.846 172.29999999999927,159.846" fill="" stroke="#000000" stroke-width="0.80" />
<polyline points="144.39999999999964,154.846 153.89999999999964,154.846" fill="" stroke="#000000" stroke-width="0.80" />
<polyline points="144.39999999999964,159.846 153.89999999999964,159.846" fill="" stroke="#000000" stroke-width="0.80" />
<polyline points="126.0,154.846 135.60000000000036,154.846" fill="" stroke="#000000" stroke-width="0.80" />
<polyline points="126.0,159.846 135.60000000000036,159.846" fill="" stroke="#000000" stroke-width="0.80" />
<polyline points="107.39999999999964,242.346 117.39999999999964,242.346" fill="" stroke="#000000" stroke-width="0.80" />
<polyline points="107.60000000000036,154.846 117.20000000000073,154.846" fill="" stroke="#000000" stroke-width="0.80" />
<polyline points="107.60000000000036,159.846 117.20000000000073,159.846" fill="" stroke="#000000" stroke-width="0.80" />
</svg>
