<?xml version="1.0" encoding="UTF-8" standalone="yes"?>
<svg width="256.0px" height="256.0px" xmlns="http://www.w3.org/2000/svg" xmlns:xlink="http://www.w3.org/1999/xlink" version="1.2" baseProfile="tiny">
<path d="M72.32999999999993,30.79200000000003 C72.19999999999982,30.69799999999998 72.0600000000004,30.591000000000008 71.89999999999964,30.47199999999998 C71.75,30.351999999999975 71.57999999999993,30.184999999999945 71.39999999999964,29.97199999999998 C71.21000000000004,29.758000000000038 71.03999999999996,29.53200000000004 70.89999999999964,29.29200000000003 C70.75,29.05200000000002 70.63000000000011,28.760999999999967 70.53999999999996,28.41700000000003 C70.4399999999996,28.07299999999998 70.39999999999964,27.71900000000005 70.39999999999964,27.354000000000042 C70.39999999999964,26.96900000000005 70.4399999999996,26.604000000000042 70.53999999999996,26.260999999999967 C70.63000000000011,25.91700000000003 70.75,25.633000000000038 70.88000000000011,25.408999999999992 C71.02000000000044,25.184999999999945 71.1899999999996,24.966000000000008 71.39000000000033,24.753000000000043 C71.59000000000015,24.538999999999987 71.76000000000022,24.383000000000038 71.89999999999964,24.283999999999992 C72.02999999999975,24.184999999999945 72.18000000000029,24.077999999999975 72.35000000000036,23.964000000000055 L72.43000000000029,24.089000000000055 C72.19999999999982,24.287000000000035 72.01000000000022,24.461000000000013 71.86999999999989,24.611999999999966 C71.72000000000025,24.763000000000034 71.57999999999993,24.964000000000055 71.4399999999996,25.214000000000055 C71.3100000000004,25.464000000000055 71.21000000000004,25.760999999999967 71.14999999999964,26.104000000000042 C71.10000000000036,26.44799999999998 71.06999999999971,26.860000000000014 71.06999999999971,27.339000000000055 C71.06999999999971,27.827999999999975 71.10000000000036,28.253000000000043 71.14999999999964,28.611999999999966 C71.21000000000004,28.97199999999998 71.3100000000004,29.275999999999954 71.4399999999996,29.525999999999954 C71.57999999999993,29.775999999999954 71.72000000000025,29.98199999999997 71.86999999999989,30.144000000000005 C72.01000000000022,30.30499999999995 72.19999999999982,30.474000000000046 72.43000000000029,30.650999999999954 L72.32999999999993,30.79200000000003 M72.86999999999989,27.66700000000003 C72.86999999999989,27.07299999999998 73.03999999999996,26.59699999999998 73.39000000000033,26.236999999999966 C73.73999999999978,25.878000000000043 74.14999999999964,25.69799999999998 74.61999999999989,25.69799999999998 C74.94999999999982,25.69799999999998 75.22999999999956,25.778999999999996 75.47000000000025,25.940000000000055 C75.69999999999982,26.101999999999975 75.81999999999971,26.297000000000025 75.81999999999971,26.525999999999954 C75.81999999999971,26.610000000000014 75.77999999999975,26.684999999999945 75.71000000000004,26.753000000000043 C75.64000000000033,26.821000000000026 75.55000000000018,26.854000000000042 75.4399999999996,26.854000000000042 C75.27000000000044,26.854000000000042 75.14999999999964,26.735000000000014 75.07999999999993,26.495000000000005 L75.03999999999996,26.32299999999998 C75.0,26.16700000000003 74.9399999999996,26.062999999999988 74.88000000000011,26.010999999999967 C74.81999999999971,25.958999999999946 74.71000000000004,25.932999999999993 74.56999999999971,25.932999999999993 C74.25,25.932999999999993 73.98999999999978,26.059999999999945 73.78999999999996,26.315000000000055 C73.59000000000015,26.571000000000026 73.48999999999978,26.90700000000004 73.48999999999978,27.32299999999998 C73.48999999999978,27.770999999999958 73.60000000000036,28.140999999999963 73.82999999999993,28.432999999999993 C74.0600000000004,28.724000000000046 74.35999999999967,28.870000000000005 74.72000000000025,28.870000000000005 C74.9399999999996,28.870000000000005 75.13000000000011,28.812999999999988 75.28999999999996,28.69799999999998 C75.46000000000004,28.583999999999946 75.63000000000011,28.390999999999963 75.81999999999971,28.120000000000005 L75.93000000000029,28.182999999999993 C75.88000000000011,28.297000000000025 75.82999999999993,28.388000000000034 75.78999999999996,28.456000000000017 C75.76000000000022,28.524 75.6899999999996,28.628000000000043 75.57999999999993,28.769000000000005 C75.47999999999956,28.908999999999992 75.38000000000011,29.020999999999958 75.27999999999975,29.104000000000042 C75.18000000000029,29.187999999999988 75.05000000000018,29.265999999999963 74.89000000000033,29.339000000000055 C74.72999999999956,29.412000000000035 74.5600000000004,29.44799999999998 74.38000000000011,29.44799999999998 C73.9399999999996,29.44799999999998 73.57999999999993,29.28200000000004 73.28999999999996,28.94799999999998 C73.01000000000022,28.61500000000001 72.86999999999989,28.187999999999988 72.86999999999989,27.66700000000003 M76.53999999999996,23.964000000000055 C76.68000000000029,24.047000000000025 76.82999999999993,24.149 76.97000000000025,24.269000000000005 C77.11999999999989,24.388000000000034 77.28999999999996,24.55499999999995 77.47999999999956,24.769000000000005 C77.68000000000029,24.98199999999997 77.84000000000015,25.211000000000013 77.97999999999956,25.456000000000017 C78.11999999999989,25.701000000000022 78.23999999999978,25.991999999999962 78.34000000000015,26.331000000000017 C78.4399999999996,26.66999999999996 78.48999999999978,27.025999999999954 78.48999999999978,27.400999999999954 C78.48999999999978,27.775999999999954 78.4399999999996,28.135999999999967 78.34000000000015,28.479000000000042 C78.23999999999978,28.82299999999998 78.13000000000011,29.110000000000014 78.0,29.339000000000055 C77.86999999999989,29.567999999999984 77.69999999999982,29.787000000000035 77.48999999999978,29.995000000000005 C77.27999999999975,30.202999999999975 77.10999999999967,30.360000000000014 76.97999999999956,30.464000000000055 C76.85000000000036,30.567999999999984 76.69999999999982,30.67700000000002 76.52000000000044,30.79200000000003 L76.4399999999996,30.650999999999954 C76.68000000000029,30.464000000000055 76.88000000000011,30.29200000000003 77.02000000000044,30.135999999999967 C77.17000000000007,29.979000000000042 77.3100000000004,29.778999999999996 77.4399999999996,29.533999999999992 C77.56999999999971,29.288999999999987 77.65999999999985,28.995000000000005 77.72000000000025,28.650999999999954 C77.77000000000044,28.307999999999993 77.80000000000018,27.895999999999958 77.80000000000018,27.41700000000003 C77.80000000000018,26.92700000000002 77.77000000000044,26.503000000000043 77.72000000000025,26.144000000000005 C77.65999999999985,25.783999999999992 77.56999999999971,25.476999999999975 77.4399999999996,25.22199999999998 C77.3100000000004,24.966000000000008 77.17000000000007,24.760999999999967 77.02000000000044,24.604000000000042 C76.88000000000011,24.44799999999998 76.68000000000029,24.275999999999954 76.4399999999996,24.089000000000055 L76.53999999999996,23.964000000000055 M82.31999999999971,24.635999999999967 C82.21000000000004,24.635999999999967 82.02000000000044,24.692999999999984 81.73999999999978,24.807999999999993 L81.73999999999978,24.69799999999998 L83.15999999999985,23.964000000000055 L83.22000000000025,23.979000000000042 L83.22000000000025,28.775999999999954 C83.22000000000025,28.974000000000046 83.27000000000044,29.101999999999975 83.36999999999989,29.158999999999992 C83.47000000000025,29.216000000000008 83.68000000000029,29.245000000000005 83.98999999999978,29.245000000000005 L83.98999999999978,29.370000000000005 L81.78999999999996,29.370000000000005 L81.78999999999996,29.245000000000005 C82.09000000000015,29.235000000000014 82.28999999999996,29.190000000000055 82.39999999999964,29.111999999999966 C82.5,29.033999999999992 82.55000000000018,28.870000000000005 82.55000000000018,28.620000000000005 L82.55000000000018,25.010999999999967 C82.55000000000018,24.760999999999967 82.47000000000025,24.635999999999967 82.31999999999971,24.635999999999967 M85.30000000000018,29.54200000000003 L85.28999999999996,29.385999999999967 C85.89000000000033,29.28200000000004 86.39999999999964,29.024 86.82999999999993,28.611999999999966 C87.25,28.201000000000022 87.53999999999996,27.66700000000003 87.71000000000004,27.010999999999967 C87.3100000000004,27.32299999999998 86.90999999999985,27.479000000000042 86.51000000000022,27.479000000000042 C86.07999999999993,27.479000000000042 85.72999999999956,27.327999999999975 85.47000000000025,27.025999999999954 C85.19999999999982,26.724000000000046 85.06999999999971,26.333999999999946 85.06999999999971,25.854000000000042 C85.06999999999971,25.312999999999988 85.22999999999956,24.860000000000014 85.53999999999996,24.495000000000005 C85.85999999999967,24.129999999999995 86.26000000000022,23.94799999999998 86.73999999999978,23.94799999999998 C87.27000000000044,23.94799999999998 87.69999999999982,24.158999999999992 88.03999999999996,24.581000000000017 C88.36999999999989,25.003000000000043 88.53999999999996,25.547000000000025 88.53999999999996,26.214000000000055 C88.53999999999996,26.432999999999993 88.52000000000044,26.653999999999996 88.47999999999956,26.878000000000043 C88.44999999999982,27.101999999999975 88.35999999999967,27.366999999999962 88.22000000000025,27.674999999999955 C88.09000000000015,27.98199999999997 87.90999999999985,28.254999999999995 87.6899999999996,28.495000000000005 C87.46000000000004,28.735000000000014 87.14999999999964,28.952999999999975 86.73999999999978,29.150999999999954 C86.32999999999993,29.349000000000046 85.85000000000036,29.479000000000042 85.30000000000018,29.54200000000003 M86.80000000000018,27.120000000000005 C86.90999999999985,27.120000000000005 87.02000000000044,27.10699999999997 87.14999999999964,27.081000000000017 C87.27000000000044,27.05499999999995 87.39999999999964,26.991999999999962 87.52999999999975,26.894000000000005 C87.65999999999985,26.79499999999996 87.72000000000025,26.672000000000025 87.72000000000025,26.525999999999954 L87.72000000000025,26.214000000000055 C87.72000000000025,24.860000000000014 87.38000000000011,24.182999999999993 86.68000000000029,24.182999999999993 C86.51000000000022,24.182999999999993 86.36999999999989,24.226999999999975 86.25,24.315000000000055 C86.13000000000011,24.403999999999996 86.03999999999996,24.520999999999958 85.97999999999956,24.66700000000003 C85.93000000000029,24.812999999999988 85.88000000000011,24.958999999999946 85.85000000000036,25.104000000000042 C85.81999999999971,25.25 85.80000000000018,25.40700000000004 85.80000000000018,25.57299999999998 C85.80000000000018,26.05200000000002 85.89000000000033,26.42999999999995 86.07999999999993,26.706000000000017 C86.26000000000022,26.98199999999997 86.5,27.120000000000005 86.80000000000018,27.120000000000005 M90.88000000000011,29.479000000000042 C90.34000000000015,29.479000000000042 89.89999999999964,29.265999999999963 89.57999999999993,28.839000000000055 C89.25,28.412000000000035 89.07999999999993,27.84400000000005 89.07999999999993,27.135999999999967 C89.07999999999993,26.91700000000003 89.10999999999967,26.692999999999984 89.14999999999964,26.464000000000055 C89.19999999999982,26.235000000000014 89.28999999999996,25.97199999999998 89.4399999999996,25.674999999999955 C89.57999999999993,25.378000000000043 89.76000000000022,25.111999999999966 90.0,24.878000000000043 C90.22999999999956,24.644000000000005 90.5600000000004,24.434999999999945 90.97000000000025,24.253000000000043 C91.38000000000011,24.071000000000026 91.85000000000036,23.952999999999975 92.39999999999964,23.900999999999954 L92.40999999999985,24.025999999999954 C91.77999999999975,24.129999999999995 91.25,24.385999999999967 90.82999999999993,24.79200000000003 C90.39999999999964,25.19799999999998 90.14000000000033,25.702999999999975 90.02000000000044,26.307999999999993 C90.27000000000044,26.162000000000035 90.46000000000004,26.067999999999984 90.59000000000015,26.025999999999954 C90.72000000000025,25.985000000000014 90.88000000000011,25.964000000000055 91.05000000000018,25.964000000000055 C91.52000000000044,25.964000000000055 91.89000000000033,26.111999999999966 92.17000000000007,26.408999999999992 C92.44999999999982,26.706000000000017 92.57999999999993,27.104000000000042 92.57999999999993,27.604000000000042 C92.57999999999993,28.15700000000004 92.43000000000029,28.60699999999997 92.10999999999967,28.956000000000017 C91.78999999999996,29.30499999999995 91.38000000000011,29.479000000000042 90.88000000000011,29.479000000000042 M90.76000000000022,26.32299999999998 C90.39000000000033,26.32299999999998 90.14000000000033,26.400999999999954 90.01000000000022,26.557999999999993 C89.88000000000011,26.714000000000055 89.81999999999971,26.94799999999998 89.81999999999971,27.260999999999967 C89.81999999999971,27.875 89.92000000000007,28.360000000000014 90.13000000000011,28.714000000000055 C90.34000000000015,29.067999999999984 90.61999999999989,29.245000000000005 90.96000000000004,29.245000000000005 C91.25,29.245000000000005 91.47000000000025,29.128000000000043 91.61999999999989,28.894000000000005 C91.76000000000022,28.658999999999992 91.82999999999993,28.32299999999998 91.82999999999993,27.885999999999967 C91.82999999999993,27.385999999999967 91.73999999999978,27.0 91.55000000000018,26.729000000000042 C91.36999999999989,26.458999999999946 91.10000000000036,26.32299999999998 90.76000000000022,26.32299999999998 M95.13000000000011,26.400999999999954 C95.61999999999989,26.754999999999995 95.94999999999982,27.05200000000002 96.11999999999989,27.29200000000003 C96.28999999999996,27.53200000000004 96.38000000000011,27.807999999999993 96.38000000000011,28.120000000000005 C96.38000000000011,28.537000000000035 96.23999999999978,28.866999999999962 95.94999999999982,29.111999999999966 C95.65999999999985,29.35699999999997 95.27999999999975,29.479000000000042 94.80000000000018,29.479000000000042 C94.34000000000015,29.479000000000042 93.97000000000025,29.35699999999997 93.6899999999996,29.111999999999966 C93.39999999999964,28.866999999999962 93.26000000000022,28.547000000000025 93.26000000000022,28.150999999999954 C93.26000000000022,27.879999999999995 93.31999999999971,27.653999999999996 93.44999999999982,27.47199999999998 C93.57999999999993,27.288999999999987 93.86999999999989,27.037000000000035 94.30000000000018,26.714000000000055 C93.88000000000011,26.339000000000055 93.60000000000036,26.062999999999988 93.47999999999956,25.885999999999967 C93.35999999999967,25.708999999999946 93.30000000000018,25.49000000000001 93.30000000000018,25.229000000000042 C93.30000000000018,24.86500000000001 93.44999999999982,24.559999999999945 93.72999999999956,24.315000000000055 C94.02000000000044,24.071000000000026 94.39000000000033,23.94799999999998 94.82999999999993,23.94799999999998 C95.22999999999956,23.94799999999998 95.5600000000004,24.05499999999995 95.8100000000004,24.269000000000005 C96.06999999999971,24.48199999999997 96.1899999999996,24.760999999999967 96.1899999999996,25.104000000000042 C96.1899999999996,25.375 96.11999999999989,25.604000000000042 95.96000000000004,25.79200000000003 C95.80000000000018,25.979000000000042 95.52999999999975,26.182999999999993 95.13000000000011,26.400999999999954 M94.51000000000022,26.870000000000005 C94.27999999999975,27.057999999999993 94.11999999999989,27.241999999999962 94.02000000000044,27.424999999999955 C93.93000000000029,27.60699999999997 93.88000000000011,27.827999999999975 93.88000000000011,28.089000000000055 C93.88000000000011,28.432999999999993 93.97000000000025,28.711000000000013 94.14999999999964,28.924999999999955 C94.34000000000015,29.138000000000034 94.57999999999993,29.245000000000005 94.88000000000011,29.245000000000005 C95.14000000000033,29.245000000000005 95.35000000000036,29.163999999999987 95.51000000000022,29.003000000000043 C95.68000000000029,28.841000000000008 95.76000000000022,28.629999999999995 95.76000000000022,28.370000000000005 C95.76000000000022,28.287000000000035 95.75,28.206000000000017 95.72999999999956,28.128000000000043 C95.72000000000025,28.049999999999955 95.69999999999982,27.985000000000014 95.68000000000029,27.932999999999993 C95.65999999999985,27.879999999999995 95.61999999999989,27.817999999999984 95.5600000000004,27.745000000000005 C95.5,27.672000000000025 95.46000000000004,27.616999999999962 95.43000000000029,27.581000000000017 C95.39999999999964,27.54499999999996 95.34000000000015,27.486999999999966 95.25,27.408999999999992 C95.15999999999985,27.331000000000017 95.09000000000015,27.275999999999954 95.03999999999996,27.245000000000005 C95.0,27.214000000000055 94.90999999999985,27.153999999999996 94.78999999999996,27.065000000000055 C94.65999999999985,26.976999999999975 94.56999999999971,26.912000000000035 94.51000000000022,26.870000000000005 M94.89999999999964,26.260999999999967 C94.90999999999985,26.25 94.94999999999982,26.22199999999998 95.01000000000022,26.174999999999955 C95.07999999999993,26.128000000000043 95.13000000000011,26.091000000000008 95.14999999999964,26.065000000000055 C95.18000000000029,26.038999999999987 95.22000000000025,26.0 95.28999999999996,25.94799999999998 C95.35000000000036,25.895999999999958 95.39999999999964,25.84400000000005 95.43000000000029,25.79200000000003 C95.46000000000004,25.74000000000001 95.5,25.67700000000002 95.53999999999996,25.604000000000042 C95.57999999999993,25.53200000000004 95.60999999999967,25.451000000000022 95.61999999999989,25.361999999999966 C95.64000000000033,25.274 95.64999999999964,25.182999999999993 95.64999999999964,25.089000000000055 C95.64999999999964,24.817999999999984 95.56999999999971,24.599000000000046 95.40999999999985,24.432999999999993 C95.26000000000022,24.265999999999963 95.03999999999996,24.182999999999993 94.77000000000044,24.182999999999993 C94.52000000000044,24.182999999999993 94.31999999999971,24.258000000000038 94.14999999999964,24.408999999999992 C93.98999999999978,24.559999999999945 93.90999999999985,24.75 93.90999999999985,24.979000000000042 C93.90999999999985,25.19799999999998 93.98999999999978,25.40700000000004 94.14000000000033,25.604000000000042 C94.28999999999996,25.80200000000002 94.53999999999996,26.020999999999958 94.89999999999964,26.260999999999967 M104.26000000000022,26.69799999999998 C104.26000000000022,26.937999999999988 104.22999999999956,27.172000000000025 104.17000000000007,27.400999999999954 C104.10999999999967,27.629999999999995 104.01000000000022,27.866999999999962 103.86999999999989,28.111999999999966 C103.72999999999956,28.35699999999997 103.55000000000018,28.567999999999984 103.32999999999993,28.745000000000005 C103.10000000000036,28.922000000000025 102.80000000000018,29.071000000000026 102.43000000000029,29.190000000000055 C102.05000000000018,29.309999999999945 101.63000000000011,29.370000000000005 101.15999999999985,29.370000000000005 L98.89999999999964,29.370000000000005 L98.89999999999964,29.214000000000055 C99.19999999999982,29.192999999999984 99.39000000000033,29.140999999999963 99.47000000000025,29.057999999999993 C99.5600000000004,28.974000000000046 99.60000000000036,28.787000000000035 99.60000000000036,28.495000000000005 L99.60000000000036,24.94799999999998 C99.60000000000036,24.65700000000004 99.5600000000004,24.47199999999998 99.47999999999956,24.394000000000005 C99.39999999999964,24.315000000000055 99.21000000000004,24.260999999999967 98.89999999999964,24.229000000000042 L98.89999999999964,24.07299999999998 L101.05000000000018,24.07299999999998 C101.53999999999996,24.07299999999998 101.97999999999956,24.128000000000043 102.35999999999967,24.236999999999966 C102.73999999999978,24.34699999999998 103.03999999999996,24.486999999999966 103.27999999999975,24.658999999999992 C103.51000000000022,24.831000000000017 103.71000000000004,25.037000000000035 103.85999999999967,25.275999999999954 C104.01000000000022,25.515999999999963 104.10999999999967,25.75 104.17000000000007,25.979000000000042 C104.22999999999956,26.208999999999946 104.26000000000022,26.44799999999998 104.26000000000022,26.69799999999998 M103.36999999999989,26.760999999999967 C103.36999999999989,26.53200000000004 103.34000000000015,26.309999999999945 103.30000000000018,26.09699999999998 C103.26000000000022,25.883000000000038 103.18000000000029,25.66999999999996 103.0600000000004,25.456000000000017 C102.9399999999996,25.241999999999962 102.78999999999996,25.059999999999945 102.60000000000036,24.908999999999992 C102.40999999999985,24.758000000000038 102.17000000000007,24.633000000000038 101.86999999999989,24.533999999999992 C101.5600000000004,24.434999999999945 101.22000000000025,24.385999999999967 100.82999999999993,24.385999999999967 C100.67000000000007,24.385999999999967 100.5600000000004,24.40700000000004 100.5,24.44799999999998 C100.4399999999996,24.49000000000001 100.40999999999985,24.57299999999998 100.40999999999985,24.69799999999998 L100.40999999999985,28.745000000000005 C100.40999999999985,28.870000000000005 100.4399999999996,28.956000000000017 100.5,29.003000000000043 C100.5600000000004,29.049999999999955 100.67000000000007,29.07299999999998 100.82999999999993,29.07299999999998 C102.52000000000044,29.07299999999998 103.36999999999989,28.30200000000002 103.36999999999989,26.760999999999967 M107.1899999999996,26.885999999999967 C107.0600000000004,26.458999999999946 106.94999999999982,26.190000000000055 106.86999999999989,26.081000000000017 C106.78999999999996,25.97199999999998 106.67000000000007,25.90700000000004 106.48999999999978,25.885999999999967 L106.48999999999978,25.775999999999954 L108.11999999999989,25.775999999999954 L108.11999999999989,25.885999999999967 C107.93000000000029,25.91700000000003 107.80000000000018,25.951000000000022 107.73999999999978,25.986999999999966 C107.68000000000029,26.024 107.64999999999964,26.089000000000055 107.64999999999964,26.182999999999993 C107.64999999999964,26.245000000000005 107.6899999999996,26.400999999999954 107.78999999999996,26.650999999999954 L108.46000000000004,28.44799999999998 L109.18000000000029,26.66700000000003 C109.27000000000044,26.44799999999998 109.31999999999971,26.270999999999958 109.31999999999971,26.135999999999967 C109.31999999999971,26.07299999999998 109.28999999999996,26.024 109.23999999999978,25.986999999999966 C109.1899999999996,25.951000000000022 109.09000000000015,25.91700000000003 108.96000000000004,25.885999999999967 L108.96000000000004,25.775999999999954 L109.9399999999996,25.775999999999954 L109.9399999999996,25.885999999999967 C109.85999999999967,25.91700000000003 109.80000000000018,25.956000000000017 109.77000000000044,26.003000000000043 C109.73999999999978,26.049999999999955 109.6899999999996,26.15700000000004 109.61999999999989,26.32299999999998 L108.51000000000022,29.089000000000055 C108.39999999999964,29.349000000000046 108.32999999999993,29.479000000000042 108.28999999999996,29.479000000000042 C108.25,29.479000000000042 108.18000000000029,29.36500000000001 108.10000000000036,29.135999999999967 L107.36999999999989,27.245000000000005 L106.47000000000025,29.16700000000003 C106.38000000000011,29.375 106.3100000000004,29.479000000000042 106.27000000000044,29.479000000000042 C106.22999999999956,29.479000000000042 106.15999999999985,29.36500000000001 106.06999999999971,29.135999999999967 L104.98999999999978,26.400999999999954 C104.90999999999985,26.192999999999984 104.84000000000015,26.057999999999993 104.78999999999996,25.995000000000005 C104.73999999999978,25.932999999999993 104.65999999999985,25.895999999999958 104.56999999999971,25.885999999999967 L104.56999999999971,25.775999999999954 L106.01000000000022,25.775999999999954 L106.01000000000022,25.885999999999967 C105.85999999999967,25.90700000000004 105.76000000000022,25.934999999999945 105.71000000000004,25.97199999999998 C105.65999999999985,26.008000000000038 105.63000000000011,26.067999999999984 105.63000000000011,26.150999999999954 C105.63000000000011,26.235000000000014 105.64999999999964,26.317999999999984 105.68000000000029,26.400999999999954 L106.47000000000025,28.479000000000042 L107.1899999999996,26.885999999999967 M110.21000000000004,28.57299999999998 C110.21000000000004,28.479000000000042 110.22000000000025,28.394000000000005 110.23999999999978,28.315000000000055 C110.26000000000022,28.236999999999966 110.30000000000018,28.162000000000035 110.35000000000036,28.089000000000055 C110.39999999999964,28.015999999999963 110.44999999999982,27.951000000000022 110.51000000000022,27.894000000000005 C110.5600000000004,27.836000000000013 110.63000000000011,27.775999999999954 110.72000000000025,27.714000000000055 C110.81999999999971,27.650999999999954 110.89999999999964,27.599000000000046 110.96000000000004,27.557999999999993 C111.02000000000044,27.515999999999963 111.11999999999989,27.46900000000005 111.23999999999978,27.41700000000003 C111.36999999999989,27.36500000000001 111.46000000000004,27.32299999999998 111.52999999999975,27.29200000000003 C111.60000000000036,27.260999999999967 111.71000000000004,27.216000000000008 111.85999999999967,27.158999999999992 C112.01000000000022,27.101999999999975 112.11999999999989,27.057999999999993 112.18000000000029,27.025999999999954 L112.18000000000029,26.54200000000003 C112.18000000000029,26.104000000000042 111.97999999999956,25.885999999999967 111.57999999999993,25.885999999999967 C111.42000000000007,25.885999999999967 111.27999999999975,25.924999999999955 111.17000000000007,26.003000000000043 C111.0600000000004,26.081000000000017 111.01000000000022,26.172000000000025 111.01000000000022,26.275999999999954 C111.01000000000022,26.317999999999984 111.01000000000022,26.375 111.02999999999975,26.44799999999998 C111.03999999999996,26.520999999999958 111.05000000000018,26.567999999999984 111.05000000000018,26.589000000000055 C111.05000000000018,26.682999999999993 111.02000000000044,26.763000000000034 110.9399999999996,26.831000000000017 C110.86999999999989,26.899 110.77999999999975,26.932999999999993 110.68000000000029,26.932999999999993 C110.57999999999993,26.932999999999993 110.5,26.899 110.4399999999996,26.831000000000017 C110.36999999999989,26.763000000000034 110.32999999999993,26.682999999999993 110.32999999999993,26.589000000000055 C110.32999999999993,26.339000000000055 110.46000000000004,26.128000000000043 110.72000000000025,25.956000000000017 C110.98999999999978,25.783999999999992 111.30000000000018,25.69799999999998 111.68000000000029,25.69799999999998 C112.10000000000036,25.69799999999998 112.39999999999964,25.80200000000002 112.5600000000004,26.010999999999967 C112.72000000000025,26.21900000000005 112.80000000000018,26.537000000000035 112.80000000000018,26.964000000000055 L112.80000000000018,28.510999999999967 C112.80000000000018,28.687999999999988 112.81999999999971,28.809999999999945 112.85999999999967,28.878000000000043 C112.89000000000033,28.946000000000026 112.96000000000004,28.979000000000042 113.05000000000018,28.979000000000042 C113.15999999999985,28.979000000000042 113.27000000000044,28.92700000000002 113.39999999999964,28.82299999999998 L113.39999999999964,29.04200000000003 C113.26000000000022,29.19799999999998 113.14000000000033,29.30499999999995 113.03999999999996,29.361999999999966 C112.93000000000029,29.41999999999996 112.8100000000004,29.44799999999998 112.68000000000029,29.44799999999998 C112.52000000000044,29.44799999999998 112.40999999999985,29.400999999999954 112.32999999999993,29.307999999999993 C112.26000000000022,29.214000000000055 112.21000000000004,29.062999999999988 112.1899999999996,28.854000000000042 C111.73999999999978,29.25 111.35000000000036,29.44799999999998 111.03999999999996,29.44799999999998 C110.80000000000018,29.44799999999998 110.60000000000036,29.366999999999962 110.4399999999996,29.206000000000017 C110.28999999999996,29.04499999999996 110.21000000000004,28.833999999999946 110.21000000000004,28.57299999999998 M112.18000000000029,28.370000000000005 L112.18000000000029,27.214000000000055 C111.69999999999982,27.390999999999963 111.36999999999989,27.562999999999988 111.18000000000029,27.729000000000042 C110.98999999999978,27.895999999999958 110.89999999999964,28.09400000000005 110.89999999999964,28.32299999999998 C110.89999999999964,28.54200000000003 110.94999999999982,28.702999999999975 111.05000000000018,28.807999999999993 C111.15999999999985,28.912000000000035 111.27000000000044,28.964000000000055 111.39999999999964,28.964000000000055 C111.56999999999971,28.964000000000055 111.77000000000044,28.90700000000004 111.97000000000025,28.79200000000003 C112.0600000000004,28.74000000000001 112.10999999999967,28.687999999999988 112.14000000000033,28.635999999999967 C112.15999999999985,28.583999999999946 112.18000000000029,28.495000000000005 112.18000000000029,28.370000000000005 M115.86999999999989,26.44799999999998 C115.77999999999975,26.44799999999998 115.68000000000029,26.400999999999954 115.5600000000004,26.307999999999993 C115.4399999999996,26.214000000000055 115.36999999999989,26.16700000000003 115.32999999999993,26.16700000000003 C115.22999999999956,26.16700000000003 115.10999999999967,26.245000000000005 114.97000000000025,26.400999999999954 C114.84000000000015,26.557999999999993 114.77000000000044,26.702999999999975 114.77000000000044,26.839000000000055 L114.77000000000044,28.650999999999954 C114.77000000000044,28.879999999999995 114.81999999999971,29.033999999999992 114.89999999999964,29.111999999999966 C114.98999999999978,29.190000000000055 115.17000000000007,29.235000000000014 115.4399999999996,29.245000000000005 L115.4399999999996,29.370000000000005 L113.52000000000044,29.370000000000005 L113.52000000000044,29.245000000000005 C113.77999999999975,29.202999999999975 113.9399999999996,29.150999999999954 114.0,29.089000000000055 C114.0600000000004,29.025999999999954 114.07999999999993,28.895999999999958 114.07999999999993,28.69799999999998 L114.07999999999993,26.682999999999993 C114.07999999999993,26.504999999999995 114.06999999999971,26.379999999999995 114.02999999999975,26.307999999999993 C113.98999999999978,26.235000000000014 113.92000000000007,26.19799999999998 113.81999999999971,26.19799999999998 C113.73999999999978,26.19799999999998 113.64000000000033,26.208999999999946 113.53999999999996,26.229000000000042 L113.53999999999996,26.104000000000042 C113.96000000000004,25.96900000000005 114.35999999999967,25.833999999999946 114.72000000000025,25.69799999999998 L114.77000000000044,25.714000000000055 L114.77000000000044,26.41700000000003 C114.97000000000025,26.145999999999958 115.14000000000033,25.958999999999946 115.27000000000044,25.854000000000042 C115.40999999999985,25.75 115.5600000000004,25.69799999999998 115.72000000000025,25.69799999999998 C115.86999999999989,25.69799999999998 115.97999999999956,25.73199999999997 116.05000000000018,25.799999999999955 C116.13000000000011,25.866999999999962 116.15999999999985,25.96900000000005 116.15999999999985,26.104000000000042 C116.15999999999985,26.208999999999946 116.14000000000033,26.29200000000003 116.07999999999993,26.354000000000042 C116.02999999999975,26.41700000000003 115.96000000000004,26.44799999999998 115.86999999999989,26.44799999999998 M118.85000000000036,24.729000000000042 C118.77000000000044,24.729000000000042 118.6899999999996,24.69799999999998 118.63000000000011,24.635999999999967 C118.56999999999971,24.57299999999998 118.52000000000044,24.504999999999995 118.47999999999956,24.432999999999993 C118.44999999999982,24.360000000000014 118.39000000000033,24.29200000000003 118.31999999999971,24.229000000000042 C118.25,24.16700000000003 118.15999999999985,24.135999999999967 118.06999999999971,24.135999999999967 C117.77000000000044,24.135999999999967 117.61999999999989,24.370000000000005 117.61999999999989,24.839000000000055 L117.61999999999989,25.775999999999954 L118.60000000000036,25.775999999999954 L118.60000000000036,26.010999999999967 L117.61999999999989,26.010999999999967 L117.61999999999989,28.54200000000003 C117.61999999999989,28.833999999999946 117.65999999999985,29.020999999999958 117.73999999999978,29.104000000000042 C117.81999999999971,29.187999999999988 118.02999999999975,29.235000000000014 118.36999999999989,29.245000000000005 L118.36999999999989,29.370000000000005 L116.27000000000044,29.370000000000005 L116.27000000000044,29.245000000000005 C116.5600000000004,29.235000000000014 116.75,29.187999999999988 116.82999999999993,29.104000000000042 C116.89999999999964,29.020999999999958 116.9399999999996,28.833999999999946 116.9399999999996,28.54200000000003 L116.9399999999996,26.010999999999967 L116.28999999999996,26.010999999999967 L116.28999999999996,25.775999999999954 L116.9399999999996,25.775999999999954 C116.94999999999982,25.172000000000025 117.06999999999971,24.706000000000017 117.27999999999975,24.378000000000043 C117.48999999999978,24.049999999999955 117.85000000000036,23.885999999999967 118.35000000000036,23.885999999999967 C118.59000000000015,23.885999999999967 118.78999999999996,23.934999999999945 118.9399999999996,24.033999999999992 C119.10000000000036,24.133000000000038 119.18000000000029,24.254999999999995 119.18000000000029,24.400999999999954 C119.18000000000029,24.495000000000005 119.14999999999964,24.57299999999998 119.07999999999993,24.635999999999967 C119.02000000000044,24.69799999999998 118.9399999999996,24.729000000000042 118.85000000000036,24.729000000000042 M126.55000000000018,24.79200000000003 L124.51000000000022,29.370000000000005 L124.39999999999964,29.370000000000005 L122.39999999999964,24.979000000000042 L122.39999999999964,28.19799999999998 C122.39999999999964,28.604000000000042 122.4399999999996,28.873000000000047 122.53999999999996,29.003000000000043 C122.63000000000011,29.133000000000038 122.82999999999993,29.202999999999975 123.14999999999964,29.214000000000055 L123.14999999999964,29.370000000000005 L121.27000000000044,29.370000000000005 L121.27000000000044,29.214000000000055 C121.59000000000015,29.192999999999984 121.80000000000018,29.120000000000005 121.89999999999964,28.995000000000005 C121.98999999999978,28.870000000000005 122.03999999999996,28.604000000000042 122.03999999999996,28.19799999999998 L122.03999999999996,24.94799999999998 C122.03999999999996,24.65700000000004 121.98999999999978,24.46900000000005 121.89999999999964,24.385999999999967 C121.81999999999971,24.30200000000002 121.60999999999967,24.25 121.28999999999996,24.229000000000042 L121.28999999999996,24.07299999999998 L122.86999999999989,24.07299999999998 L124.71000000000004,28.120000000000005 L126.47000000000025,24.07299999999998 L128.0699999999997,24.07299999999998 L128.0699999999997,24.229000000000042 C127.77000000000044,24.260999999999967 127.57999999999993,24.317999999999984 127.5,24.400999999999954 C127.42000000000007,24.485000000000014 127.38000000000011,24.66700000000003 127.38000000000011,24.94799999999998 L127.38000000000011,28.495000000000005 C127.38000000000011,28.775999999999954 127.42000000000007,28.961000000000013 127.51000000000022,29.049999999999955 C127.59000000000015,29.138000000000034 127.77999999999975,29.192999999999984 128.0699999999997,29.214000000000055 L128.0699999999997,29.370000000000005 L125.82999999999993,29.370000000000005 L125.82999999999993,29.214000000000055 C126.14999999999964,29.192999999999984 126.34000000000015,29.135999999999967 126.43000000000029,29.04200000000003 C126.51000000000022,28.94799999999998 126.55000000000018,28.74000000000001 126.55000000000018,28.41700000000003 L126.55000000000018,24.79200000000003 M132.03999999999996,28.94799999999998 L132.03999999999996,29.07299999999998 C131.6199999999999,29.187999999999988 131.26000000000022,29.312999999999988 130.9399999999996,29.44799999999998 L130.90999999999985,29.432999999999993 L130.89999999999964,28.745000000000005 C130.89000000000033,28.765999999999963 130.84000000000015,28.815000000000055 130.76000000000022,28.894000000000005 C130.6899999999996,28.97199999999998 130.6300000000001,29.025999999999954 130.60000000000036,29.057999999999993 C130.5699999999997,29.089000000000055 130.51000000000022,29.135999999999967 130.4399999999996,29.19799999999998 C130.35999999999967,29.260999999999967 130.28999999999996,29.30499999999995 130.22999999999956,29.331000000000017 C130.1800000000003,29.35699999999997 130.10000000000036,29.383000000000038 130.01000000000022,29.408999999999992 C129.9300000000003,29.434999999999945 129.82999999999993,29.44799999999998 129.73999999999978,29.44799999999998 C129.44999999999982,29.44799999999998 129.21000000000004,29.351999999999975 129.03999999999996,29.158999999999992 C128.85999999999967,28.966000000000008 128.77000000000044,28.714000000000055 128.77000000000044,28.400999999999954 L128.77000000000044,26.385999999999967 C128.77000000000044,26.208999999999946 128.73999999999978,26.083999999999946 128.67000000000007,26.010999999999967 C128.60000000000036,25.937999999999988 128.47000000000025,25.895999999999958 128.27000000000044,25.885999999999967 L128.27000000000044,25.775999999999954 L129.4399999999996,25.775999999999954 L129.4399999999996,28.370000000000005 C129.4399999999996,28.525999999999954 129.5,28.663999999999987 129.6199999999999,28.783999999999992 C129.72999999999956,28.903999999999996 129.85999999999967,28.964000000000055 130.01000000000022,28.964000000000055 C130.0699999999997,28.964000000000055 130.14000000000033,28.956000000000017 130.22000000000025,28.940000000000055 C130.28999999999996,28.924999999999955 130.39000000000033,28.895999999999958 130.48999999999978,28.854000000000042 C130.59000000000015,28.812999999999988 130.6800000000003,28.741999999999962 130.76000000000022,28.644000000000005 C130.82999999999993,28.54499999999996 130.8699999999999,28.422000000000025 130.8699999999999,28.275999999999954 L130.8699999999999,26.400999999999954 C130.8699999999999,26.214000000000055 130.82999999999993,26.086000000000013 130.76000000000022,26.019000000000005 C130.6800000000003,25.951000000000022 130.52000000000044,25.912000000000035 130.27000000000044,25.900999999999954 L130.27000000000044,25.775999999999954 L131.53999999999996,25.775999999999954 L131.53999999999996,28.495000000000005 C131.53999999999996,28.682999999999993 131.5699999999997,28.80499999999995 131.6300000000001,28.861999999999966 C131.6899999999996,28.91999999999996 131.8199999999997,28.94799999999998 132.01000000000022,28.94799999999998 L132.03999999999996,28.94799999999998 M134.23999999999978,25.854000000000042 C134.25,25.854000000000042 134.28999999999996,25.827999999999975 134.3699999999999,25.775999999999954 L134.46000000000004,25.775999999999954 L134.48999999999978,26.854000000000042 L134.3699999999999,26.854000000000042 C134.27999999999975,26.5 134.17000000000007,26.248000000000047 134.03999999999996,26.09699999999998 C133.89999999999964,25.946000000000026 133.72000000000025,25.870000000000005 133.48999999999978,25.870000000000005 C133.3100000000004,25.870000000000005 133.17000000000007,25.922000000000025 133.05000000000018,26.025999999999954 C132.9399999999996,26.129999999999995 132.8800000000001,26.260999999999967 132.8800000000001,26.41700000000003 C132.8800000000001,26.645999999999958 133.0,26.827999999999975 133.22000000000025,26.964000000000055 L134.07999999999993,27.479000000000042 C134.3199999999997,27.625 134.5,27.770999999999958 134.60000000000036,27.91700000000003 C134.69999999999982,28.062999999999988 134.76000000000022,28.235000000000014 134.76000000000022,28.432999999999993 C134.76000000000022,28.702999999999975 134.64000000000033,28.940000000000055 134.42000000000007,29.144000000000005 C134.19999999999982,29.34699999999998 133.9300000000003,29.44799999999998 133.6300000000001,29.44799999999998 C133.5,29.44799999999998 133.3199999999997,29.424999999999955 133.09000000000015,29.378000000000043 C132.8699999999999,29.331000000000017 132.72999999999956,29.307999999999993 132.6800000000003,29.307999999999993 C132.59000000000015,29.307999999999993 132.52999999999975,29.339000000000055 132.48999999999978,29.400999999999954 L132.3800000000001,29.400999999999954 L132.3800000000001,28.150999999999954 L132.52000000000044,28.150999999999954 C132.60000000000036,28.525999999999954 132.69999999999982,28.79200000000003 132.8199999999997,28.94799999999998 C132.98999999999978,29.16700000000003 133.22000000000025,29.275999999999954 133.53999999999996,29.275999999999954 C133.73999999999978,29.275999999999954 133.89000000000033,29.224000000000046 134.01000000000022,29.120000000000005 C134.1300000000001,29.015999999999963 134.1899999999996,28.875 134.1899999999996,28.69799999999998 C134.1899999999996,28.458999999999946 134.05000000000018,28.260999999999967 133.77000000000044,28.104000000000042 L133.3199999999997,27.839000000000055 C132.97000000000025,27.640999999999963 132.72999999999956,27.456000000000017 132.59000000000015,27.283999999999992 C132.44999999999982,27.111999999999966 132.3800000000001,26.912000000000035 132.3800000000001,26.682999999999993 C132.3800000000001,26.390999999999963 132.47999999999956,26.153999999999996 132.6899999999996,25.97199999999998 C132.89000000000033,25.788999999999987 133.14999999999964,25.69799999999998 133.47000000000025,25.69799999999998 C133.64000000000033,25.69799999999998 133.80000000000018,25.724000000000046 133.96000000000004,25.775999999999954 C134.1199999999999,25.827999999999975 134.21000000000004,25.854000000000042 134.23999999999978,25.854000000000042 M135.52000000000044,26.229000000000042 C135.39999999999964,26.229000000000042 135.27999999999975,26.235000000000014 135.1800000000003,26.245000000000005 L135.1800000000003,26.135999999999967 C135.55000000000018,26.03200000000004 135.97000000000025,25.885999999999967 136.4300000000003,25.69799999999998 L136.46000000000004,25.714000000000055 L136.46000000000004,28.557999999999993 C136.46000000000004,28.839000000000055 136.48999999999978,29.019000000000005 136.5600000000004,29.09699999999998 C136.6300000000001,29.174999999999955 136.78999999999996,29.224000000000046 137.05000000000018,29.245000000000005 L137.05000000000018,29.370000000000005 L135.14999999999964,29.370000000000005 L135.14999999999964,29.245000000000005 C135.4300000000003,29.235000000000014 135.60000000000036,29.187999999999988 135.6800000000003,29.104000000000042 C135.75,29.020999999999958 135.78999999999996,28.839000000000055 135.78999999999996,28.557999999999993 L135.78999999999996,26.69799999999998 C135.78999999999996,26.520999999999958 135.77000000000044,26.399 135.72000000000025,26.331000000000017 C135.6800000000003,26.263000000000034 135.6199999999999,26.229000000000042 135.52000000000044,26.229000000000042 M136.05000000000018,23.900999999999954 C136.17000000000007,23.900999999999954 136.27000000000044,23.942999999999984 136.35000000000036,24.025999999999954 C136.4300000000003,24.110000000000014 136.47000000000025,24.208999999999946 136.47000000000025,24.32299999999998 C136.47000000000025,24.437999999999988 136.4300000000003,24.533999999999992 136.35000000000036,24.611999999999966 C136.27000000000044,24.690000000000055 136.17000000000007,24.729000000000042 136.05000000000018,24.729000000000042 C135.9399999999996,24.729000000000042 135.84000000000015,24.687999999999988 135.76000000000022,24.604000000000042 C135.6899999999996,24.520999999999958 135.64999999999964,24.424999999999955 135.64999999999964,24.315000000000055 C135.64999999999964,24.206000000000017 135.6899999999996,24.110000000000014 135.76000000000022,24.025999999999954 C135.84000000000015,23.942999999999984 135.9399999999996,23.900999999999954 136.05000000000018,23.900999999999954 M137.4399999999996,27.66700000000003 C137.4399999999996,27.07299999999998 137.6199999999999,26.59699999999998 137.97000000000025,26.236999999999966 C138.3199999999997,25.878000000000043 138.72000000000025,25.69799999999998 139.1899999999996,25.69799999999998 C139.52999999999975,25.69799999999998 139.8100000000004,25.778999999999996 140.03999999999996,25.940000000000055 C140.27999999999975,26.101999999999975 140.39999999999964,26.297000000000025 140.39999999999964,26.525999999999954 C140.39999999999964,26.610000000000014 140.35999999999967,26.684999999999945 140.28999999999996,26.753000000000043 C140.21000000000004,26.821000000000026 140.1300000000001,26.854000000000042 140.02000000000044,26.854000000000042 C139.84000000000015,26.854000000000042 139.72000000000025,26.735000000000014 139.65999999999985,26.495000000000005 L139.6199999999999,26.32299999999998 C139.5699999999997,26.16700000000003 139.52000000000044,26.062999999999988 139.46000000000004,26.010999999999967 C139.39999999999964,25.958999999999946 139.28999999999996,25.932999999999993 139.14999999999964,25.932999999999993 C138.8199999999997,25.932999999999993 138.5600000000004,26.059999999999945 138.3699999999999,26.315000000000055 C138.17000000000007,26.571000000000026 138.0699999999997,26.90700000000004 138.0699999999997,27.32299999999998 C138.0699999999997,27.770999999999958 138.1800000000003,28.140999999999963 138.40999999999985,28.432999999999993 C138.64000000000033,28.724000000000046 138.9399999999996,28.870000000000005 139.30000000000018,28.870000000000005 C139.52000000000044,28.870000000000005 139.71000000000004,28.812999999999988 139.8699999999999,28.69799999999998 C140.02999999999975,28.583999999999946 140.21000000000004,28.390999999999963 140.39999999999964,28.120000000000005 L140.51000000000022,28.182999999999993 C140.44999999999982,28.297000000000025 140.40999999999985,28.388000000000034 140.3699999999999,28.456000000000017 C140.34000000000015,28.524 140.27000000000044,28.628000000000043 140.15999999999985,28.769000000000005 C140.0600000000004,28.908999999999992 139.96000000000004,29.020999999999958 139.85999999999967,29.104000000000042 C139.76000000000022,29.187999999999988 139.6300000000001,29.265999999999963 139.47000000000025,29.339000000000055 C139.3100000000004,29.412000000000035 139.14000000000033,29.44799999999998 138.96000000000004,29.44799999999998 C138.52000000000044,29.44799999999998 138.15999999999985,29.28200000000004 137.8699999999999,28.94799999999998 C137.59000000000015,28.61500000000001 137.4399999999996,28.187999999999988 137.4399999999996,27.66700000000003 M141.78999999999996,28.57299999999998 C141.89999999999964,28.57299999999998 142.0,28.616999999999962 142.09000000000015,28.706000000000017 C142.1800000000003,28.79499999999996 142.22000000000025,28.900999999999954 142.22000000000025,29.025999999999954 C142.22000000000025,29.140999999999963 142.1800000000003,29.241999999999962 142.09000000000015,29.331000000000017 C142.0,29.41999999999996 141.89999999999964,29.464000000000055 141.77000000000044,29.464000000000055 C141.65999999999985,29.464000000000055 141.5600000000004,29.41999999999996 141.47000000000025,29.331000000000017 C141.39000000000033,29.241999999999962 141.35000000000036,29.140999999999963 141.35000000000036,29.025999999999954 C141.35000000000036,28.900999999999954 141.39000000000033,28.79499999999996 141.47999999999956,28.706000000000017 C141.5699999999997,28.616999999999962 141.67000000000007,28.57299999999998 141.78999999999996,28.57299999999998" />
</svg>
