<?xml version="1.0" encoding="UTF-8" standalone="yes"?>
<svg width="256.0px" height="256.0px" xmlns="http://www.w3.org/2000/svg" xmlns:xlink="http://www.w3.org/1999/xlink" version="1.2" baseProfile="tiny">
<path d="M231.5999999999999,37.596000000000004 C235.81999999999994,40.400999999999954 248.47000000000003,40.400999999999954 252.69000000000005,37.596000000000004 C248.47000000000003,41.20100000000002 235.81999999999994,41.20100000000002 231.5999999999999,37.596000000000004" />
<path d="M115.13000000000011,26.871999999999957 C118.82999999999993,23.663999999999987 129.91000000000008,23.663999999999987 133.5999999999999,26.871999999999957 C129.91000000000008,24.464000000000055 118.82999999999993,24.464000000000055 115.13000000000011,26.871999999999957" />
<path d="M201.97000000000003,40.08100000000002 C201.97000000000003,40.33100000000002 201.8499999999999,40.45600000000002 201.5999999999999,40.45600000000002 C201.3599999999999,40.45600000000002 201.23000000000002,40.33100000000002 201.23000000000002,40.08100000000002 L201.23000000000002,37.190000000000055 L199.57999999999993,37.815000000000055 L199.57999999999993,40.971000000000004 C199.57999999999993,41.221000000000004 199.45000000000005,41.346000000000004 199.20000000000005,41.346000000000004 C198.95000000000005,41.346000000000004 198.82999999999993,41.221000000000004 198.82999999999993,40.971000000000004 L198.82999999999993,38.065000000000055 L198.20000000000005,38.299999999999955 C198.19000000000005,38.309999999999945 198.1400000000001,38.315000000000055 198.04999999999995,38.315000000000055 C197.94000000000005,38.315000000000055 197.8499999999999,38.275999999999954 197.76999999999998,38.19799999999998 C197.69000000000005,38.120000000000005 197.66000000000008,38.028999999999996 197.66000000000008,37.924999999999955 L197.66000000000008,36.721000000000004 C197.66000000000008,36.524 197.74,36.399 197.91000000000008,36.346000000000004 L198.82999999999993,36.03399999999999 L198.82999999999993,32.83100000000002 L198.20000000000005,33.049999999999955 C198.19000000000005,33.059999999999945 198.1400000000001,33.065000000000055 198.04999999999995,33.065000000000055 C197.94000000000005,33.065000000000055 197.8499999999999,33.025999999999954 197.76999999999998,32.94799999999998 C197.69000000000005,32.870000000000005 197.66000000000008,32.778999999999996 197.66000000000008,32.674999999999955 L197.66000000000008,31.456000000000017 C197.66000000000008,31.278999999999996 197.74,31.163999999999987 197.91000000000008,31.111999999999966 L198.82999999999993,30.753000000000043 L198.82999999999993,27.611999999999966 C198.82999999999993,27.361999999999966 198.95000000000005,27.236999999999966 199.20000000000005,27.236999999999966 C199.45000000000005,27.236999999999966 199.57999999999993,27.361999999999966 199.57999999999993,27.611999999999966 L199.57999999999993,30.503000000000043 L201.23000000000002,29.878000000000043 L201.23000000000002,26.721000000000004 C201.23000000000002,26.471000000000004 201.3599999999999,26.346000000000004 201.5999999999999,26.346000000000004 C201.8499999999999,26.346000000000004 201.97000000000003,26.471000000000004 201.97000000000003,26.721000000000004 L201.97000000000003,29.628000000000043 L202.6199999999999,29.39300000000003 C202.6400000000001,29.383000000000038 202.68000000000006,29.378000000000043 202.75,29.378000000000043 C202.83999999999992,29.378000000000043 202.94000000000005,29.413999999999987 203.04999999999995,29.486999999999966 C203.1300000000001,29.57000000000005 203.17000000000007,29.663999999999987 203.17000000000007,29.76800000000003 L203.17000000000007,30.971000000000004 C203.17000000000007,31.158999999999992 203.07999999999993,31.283999999999992 202.8900000000001,31.346000000000004 L201.97000000000003,31.658999999999992 L201.97000000000003,34.861999999999966 L202.6199999999999,34.64300000000003 C202.6400000000001,34.63300000000004 202.68000000000006,34.62800000000004 202.75,34.62800000000004 C202.83999999999992,34.62800000000004 202.94000000000005,34.66899999999998 203.04999999999995,34.75300000000004 C203.1300000000001,34.82600000000002 203.17000000000007,34.91399999999999 203.17000000000007,35.01800000000003 L203.17000000000007,36.236999999999966 C203.17000000000007,36.403999999999996 203.07999999999993,36.51800000000003 202.8900000000001,36.58100000000002 L201.97000000000003,36.940000000000055 L201.97000000000003,40.08100000000002 M201.23000000000002,31.956000000000017 L199.57999999999993,32.53399999999999 L199.57999999999993,35.736999999999966 L201.23000000000002,35.15899999999999 L201.23000000000002,31.956000000000017" />
<path d="M78.28999999999996,28.01800000000003 L78.28999999999996,29.565000000000055 C78.28999999999996,30.116999999999962 78.31999999999994,30.55499999999995 78.36999999999989,30.878000000000043 C78.79999999999995,30.513000000000034 79.09999999999991,30.241999999999962 79.28999999999996,30.065000000000055 C79.5,29.85699999999997 79.71000000000004,29.567999999999984 79.92000000000007,29.19799999999998 C80.11999999999989,28.827999999999975 80.23000000000002,28.461000000000013 80.23000000000002,28.096000000000004 C80.23000000000002,27.73199999999997 80.15000000000009,27.418999999999983 79.99000000000001,27.158999999999992 C79.83999999999992,26.899 79.63000000000011,26.76800000000003 79.36999999999989,26.76800000000003 C79.05999999999995,26.76800000000003 78.79999999999995,26.888000000000034 78.58999999999992,27.128000000000043 C78.3900000000001,27.388000000000034 78.28999999999996,27.684999999999945 78.28999999999996,28.01800000000003 M77.46000000000004,31.596000000000004 L77.21000000000004,19.706000000000017 C77.40000000000009,19.601999999999975 77.57999999999993,19.549999999999955 77.76999999999998,19.549999999999955 C77.95000000000005,19.549999999999955 78.13000000000011,19.601999999999975 78.30999999999995,19.706000000000017 L78.15000000000009,26.596000000000004 C78.68000000000006,26.138000000000034 79.29999999999995,25.908999999999992 79.99000000000001,25.908999999999992 C80.49000000000001,25.908999999999992 80.91000000000008,26.116999999999962 81.25,26.533999999999992 C81.58999999999992,26.951000000000022 81.75999999999999,27.42999999999995 81.75999999999999,27.971000000000004 C81.75999999999999,28.30499999999995 81.65000000000009,28.663999999999987 81.43000000000006,29.049999999999955 C81.22000000000003,29.39300000000003 81.0,29.663999999999987 80.76999999999998,29.861999999999966 C80.6400000000001,29.966000000000008 80.30999999999995,30.226999999999975 79.76999999999998,30.64300000000003 C79.61999999999989,30.758000000000038 79.43000000000006,30.89300000000003 79.22000000000003,31.049999999999955 C79.00999999999999,31.206000000000017 78.86999999999989,31.30499999999995 78.81999999999994,31.346000000000004 C78.73000000000002,31.399 78.6400000000001,31.503000000000043 78.55999999999995,31.658999999999992 C78.47000000000003,31.793999999999983 78.36999999999989,31.903999999999996 78.24000000000001,31.986999999999966 C78.16000000000008,32.07000000000005 78.04999999999995,32.111999999999966 77.92000000000007,32.111999999999966 C77.78999999999996,32.111999999999966 77.69000000000005,32.065000000000055 77.59999999999991,31.971000000000004 C77.50999999999999,31.878000000000043 77.46000000000004,31.753000000000043 77.46000000000004,31.596000000000004" />
<path d="M253.68000000000006,63.12800000000004 L256.0799999999999,61.174999999999955 C256.1500000000001,61.12199999999996 256.20000000000005,61.096000000000004 256.26,61.096000000000004 C256.3299999999999,61.096000000000004 256.4000000000001,61.12199999999996 256.46000000000004,61.174999999999955 L256.8699999999999,61.486999999999966 C256.93000000000006,61.549999999999955 256.96000000000004,61.62800000000004 256.96000000000004,61.721000000000004 C256.96000000000004,61.78399999999999 256.93000000000006,61.861999999999966 256.8699999999999,61.95600000000002 L254.53999999999996,63.846000000000004 L256.8699999999999,65.73699999999997 C256.93000000000006,65.80999999999995 256.96000000000004,65.89099999999996 256.96000000000004,65.97900000000004 C256.96000000000004,66.06799999999998 256.93000000000006,66.14300000000003 256.8699999999999,66.20600000000002 L256.46000000000004,66.51800000000003 C256.4000000000001,66.57000000000005 256.3299999999999,66.596 256.26,66.596 C256.20000000000005,66.596 256.1500000000001,66.57000000000005 256.0799999999999,66.51800000000003 L253.68000000000006,64.56500000000005 L251.26,66.51800000000003 C251.19000000000005,66.57000000000005 251.1400000000001,66.596 251.07999999999993,66.596 C251.01999999999998,66.596 250.96000000000004,66.57000000000005 250.9000000000001,66.51800000000003 L250.47000000000003,66.20600000000002 C250.41000000000008,66.14300000000003 250.3800000000001,66.06500000000005 250.3800000000001,65.971 C250.3800000000001,65.90899999999999 250.41000000000008,65.83100000000002 250.47000000000003,65.73699999999997 L252.79999999999995,63.846000000000004 L250.47000000000003,61.95600000000002 C250.41000000000008,61.88300000000004 250.3800000000001,61.80200000000002 250.3800000000001,61.714000000000055 C250.3800000000001,61.625 250.41000000000008,61.549999999999955 250.47000000000003,61.486999999999966 L250.9000000000001,61.174999999999955 C250.96000000000004,61.12199999999996 251.01999999999998,61.096000000000004 251.07999999999993,61.096000000000004 C251.1400000000001,61.096000000000004 251.19000000000005,61.12199999999996 251.26,61.174999999999955 L253.68000000000006,63.12800000000004" />
<path d="M254.76999999999998,71.096 C255.4000000000001,71.096 255.93000000000006,71.25800000000004 256.3699999999999,71.58100000000002 C256.76,71.93499999999995 256.96000000000004,72.37800000000004 256.96000000000004,72.90899999999999 C256.96000000000004,73.80499999999995 256.5,74.64300000000003 255.57999999999993,75.42499999999995 C254.6500000000001,76.20600000000002 253.6400000000001,76.596 252.56999999999994,76.596 C251.94000000000005,76.596 251.42000000000007,76.43499999999995 250.99,76.11199999999997 C250.57999999999993,75.75800000000004 250.3800000000001,75.31500000000005 250.3800000000001,74.78399999999999 C250.3800000000001,73.88800000000003 250.8499999999999,73.04999999999995 251.78999999999996,72.26800000000003 C252.70000000000005,71.48699999999997 253.70000000000005,71.096 254.76999999999998,71.096" />
<path d="M254.76999999999998,31.096000000000004 C255.4000000000001,31.096000000000004 255.93000000000006,31.258000000000038 256.3699999999999,31.581000000000017 C256.76,31.934999999999945 256.96000000000004,32.37800000000004 256.96000000000004,32.90899999999999 C256.96000000000004,33.80499999999995 256.5,34.64300000000003 255.57999999999993,35.424999999999955 C254.6500000000001,36.20600000000002 253.6400000000001,36.596000000000004 252.56999999999994,36.596000000000004 C251.94000000000005,36.596000000000004 251.42000000000007,36.434999999999945 250.99,36.111999999999966 C250.57999999999993,35.75800000000004 250.3800000000001,35.315000000000055 250.3800000000001,34.78399999999999 C250.3800000000001,33.888000000000034 250.8499999999999,33.049999999999955 251.78999999999996,32.26800000000003 C252.70000000000005,31.486999999999966 253.70000000000005,31.096000000000004 254.76999999999998,31.096000000000004" />
<path d="M230.6199999999999,63.12800000000004 L233.02999999999997,61.174999999999955 C233.08999999999992,61.12199999999996 233.1500000000001,61.096000000000004 233.20000000000005,61.096000000000004 C233.26999999999998,61.096000000000004 233.33999999999992,61.12199999999996 233.4000000000001,61.174999999999955 L233.80999999999995,61.486999999999966 C233.8699999999999,61.549999999999955 233.9000000000001,61.62800000000004 233.9000000000001,61.721000000000004 C233.9000000000001,61.78399999999999 233.8699999999999,61.861999999999966 233.80999999999995,61.95600000000002 L231.48000000000002,63.846000000000004 L233.80999999999995,65.73699999999997 C233.8699999999999,65.80999999999995 233.9000000000001,65.89099999999996 233.9000000000001,65.97900000000004 C233.9000000000001,66.06799999999998 233.8699999999999,66.14300000000003 233.80999999999995,66.20600000000002 L233.4000000000001,66.51800000000003 C233.33999999999992,66.57000000000005 233.26999999999998,66.596 233.20000000000005,66.596 C233.1500000000001,66.596 233.08999999999992,66.57000000000005 233.02999999999997,66.51800000000003 L230.6199999999999,64.56500000000005 L228.20000000000005,66.51800000000003 C228.1300000000001,66.57000000000005 228.07999999999993,66.596 228.02999999999997,66.596 C227.96000000000004,66.596 227.9000000000001,66.57000000000005 227.83999999999992,66.51800000000003 L227.42000000000007,66.20600000000002 C227.3499999999999,66.14300000000003 227.31999999999994,66.06500000000005 227.31999999999994,65.971 C227.31999999999994,65.90899999999999 227.3499999999999,65.83100000000002 227.42000000000007,65.73699999999997 L229.74,63.846000000000004 L227.42000000000007,61.95600000000002 C227.3499999999999,61.88300000000004 227.31999999999994,61.80200000000002 227.31999999999994,61.714000000000055 C227.31999999999994,61.625 227.3499999999999,61.549999999999955 227.42000000000007,61.486999999999966 L227.83999999999992,61.174999999999955 C227.9000000000001,61.12199999999996 227.96000000000004,61.096000000000004 228.02999999999997,61.096000000000004 C228.07999999999993,61.096000000000004 228.1300000000001,61.12199999999996 228.20000000000005,61.174999999999955 L230.6199999999999,63.12800000000004" />
<path d="M231.71000000000004,81.096 C232.33999999999992,81.096 232.8699999999999,81.25800000000004 233.30999999999995,81.58100000000002 C233.70000000000005,81.93499999999995 233.9000000000001,82.37800000000004 233.9000000000001,82.90899999999999 C233.9000000000001,83.80499999999995 233.44000000000005,84.64300000000003 232.52999999999997,85.42499999999995 C231.58999999999992,86.20600000000002 230.57999999999993,86.596 229.51,86.596 C228.8800000000001,86.596 228.3599999999999,86.43499999999995 227.93000000000006,86.11199999999997 C227.52999999999997,85.75800000000004 227.31999999999994,85.31500000000005 227.31999999999994,84.78399999999999 C227.31999999999994,83.88800000000003 227.78999999999996,83.04999999999995 228.73000000000002,82.26800000000003 C229.6500000000001,81.48699999999997 230.6400000000001,81.096 231.71000000000004,81.096" />
<path d="M231.71000000000004,31.096000000000004 C232.33999999999992,31.096000000000004 232.8699999999999,31.258000000000038 233.30999999999995,31.581000000000017 C233.70000000000005,31.934999999999945 233.9000000000001,32.37800000000004 233.9000000000001,32.90899999999999 C233.9000000000001,33.80499999999995 233.44000000000005,34.64300000000003 232.52999999999997,35.424999999999955 C231.58999999999992,36.20600000000002 230.57999999999993,36.596000000000004 229.51,36.596000000000004 C228.8800000000001,36.596000000000004 228.3599999999999,36.434999999999945 227.93000000000006,36.111999999999966 C227.52999999999997,35.75800000000004 227.31999999999994,35.315000000000055 227.31999999999994,34.78399999999999 C227.31999999999994,33.888000000000034 227.78999999999996,33.049999999999955 228.73000000000002,32.26800000000003 C229.6500000000001,31.486999999999966 230.6400000000001,31.096000000000004 231.71000000000004,31.096000000000004" />
<path d="M207.55999999999995,63.12800000000004 L209.97000000000003,61.174999999999955 C210.02999999999997,61.12199999999996 210.08999999999992,61.096000000000004 210.1400000000001,61.096000000000004 C210.21000000000004,61.096000000000004 210.27999999999997,61.12199999999996 210.33999999999992,61.174999999999955 L210.75,61.486999999999966 C210.80999999999995,61.549999999999955 210.83999999999992,61.62800000000004 210.83999999999992,61.721000000000004 C210.83999999999992,61.78399999999999 210.80999999999995,61.861999999999966 210.75,61.95600000000002 L208.42000000000007,63.846000000000004 L210.75,65.73699999999997 C210.80999999999995,65.80999999999995 210.83999999999992,65.89099999999996 210.83999999999992,65.97900000000004 C210.83999999999992,66.06799999999998 210.80999999999995,66.14300000000003 210.75,66.20600000000002 L210.33999999999992,66.51800000000003 C210.27999999999997,66.57000000000005 210.21000000000004,66.596 210.1400000000001,66.596 C210.08999999999992,66.596 210.02999999999997,66.57000000000005 209.97000000000003,66.51800000000003 L207.55999999999995,64.56500000000005 L205.1400000000001,66.51800000000003 C205.07999999999993,66.57000000000005 205.01999999999998,66.596 204.97000000000003,66.596 C204.9000000000001,66.596 204.83999999999992,66.57000000000005 204.77999999999997,66.51800000000003 L204.3599999999999,66.20600000000002 C204.28999999999996,66.14300000000003 204.26,66.06500000000005 204.26,65.971 C204.26,65.90899999999999 204.28999999999996,65.83100000000002 204.3599999999999,65.73699999999997 L206.69000000000005,63.846000000000004 L204.3599999999999,61.95600000000002 C204.28999999999996,61.88300000000004 204.26,61.80200000000002 204.26,61.714000000000055 C204.26,61.625 204.28999999999996,61.549999999999955 204.3599999999999,61.486999999999966 L204.77999999999997,61.174999999999955 C204.83999999999992,61.12199999999996 204.9000000000001,61.096000000000004 204.97000000000003,61.096000000000004 C205.01999999999998,61.096000000000004 205.07999999999993,61.12199999999996 205.1400000000001,61.174999999999955 L207.55999999999995,63.12800000000004" />
<path d="M208.6500000000001,71.096 C209.27999999999997,71.096 209.80999999999995,71.25800000000004 210.25,71.58100000000002 C210.6400000000001,71.93499999999995 210.83999999999992,72.37800000000004 210.83999999999992,72.90899999999999 C210.83999999999992,73.80499999999995 210.3800000000001,74.64300000000003 209.47000000000003,75.42499999999995 C208.52999999999997,76.20600000000002 207.51999999999998,76.596 206.45000000000005,76.596 C205.82999999999993,76.596 205.29999999999995,76.43499999999995 204.8699999999999,76.11199999999997 C204.47000000000003,75.75800000000004 204.26,75.31500000000005 204.26,74.78399999999999 C204.26,73.88800000000003 204.73000000000002,73.04999999999995 205.67000000000007,72.26800000000003 C206.58999999999992,71.48699999999997 207.57999999999993,71.096 208.6500000000001,71.096" />
<path d="M208.6500000000001,81.096 C209.27999999999997,81.096 209.80999999999995,81.25800000000004 210.25,81.58100000000002 C210.6400000000001,81.93499999999995 210.83999999999992,82.37800000000004 210.83999999999992,82.90899999999999 C210.83999999999992,83.80499999999995 210.3800000000001,84.64300000000003 209.47000000000003,85.42499999999995 C208.52999999999997,86.20600000000002 207.51999999999998,86.596 206.45000000000005,86.596 C205.82999999999993,86.596 205.29999999999995,86.43499999999995 204.8699999999999,86.11199999999997 C204.47000000000003,85.75800000000004 204.26,85.31500000000005 204.26,84.78399999999999 C204.26,83.88800000000003 204.73000000000002,83.04999999999995 205.67000000000007,82.26800000000003 C206.58999999999992,81.48699999999997 207.57999999999993,81.096 208.6500000000001,81.096" />
<path d="M208.6500000000001,31.096000000000004 C209.27999999999997,31.096000000000004 209.80999999999995,31.258000000000038 210.25,31.581000000000017 C210.6400000000001,31.934999999999945 210.83999999999992,32.37800000000004 210.83999999999992,32.90899999999999 C210.83999999999992,33.80499999999995 210.3800000000001,34.64300000000003 209.47000000000003,35.424999999999955 C208.52999999999997,36.20600000000002 207.51999999999998,36.596000000000004 206.45000000000005,36.596000000000004 C205.82999999999993,36.596000000000004 205.29999999999995,36.434999999999945 204.8699999999999,36.111999999999966 C204.47000000000003,35.75800000000004 204.26,35.315000000000055 204.26,34.78399999999999 C204.26,33.888000000000034 204.73000000000002,33.049999999999955 205.67000000000007,32.26800000000003 C206.58999999999992,31.486999999999966 207.57999999999993,31.096000000000004 208.6500000000001,31.096000000000004" />
<path d="M166.98000000000002,63.12800000000004 L169.3900000000001,61.174999999999955 C169.45000000000005,61.12199999999996 169.51,61.096000000000004 169.55999999999995,61.096000000000004 C169.6300000000001,61.096000000000004 169.70000000000005,61.12199999999996 169.76,61.174999999999955 L170.17000000000007,61.486999999999966 C170.23000000000002,61.549999999999955 170.26,61.62800000000004 170.26,61.721000000000004 C170.26,61.78399999999999 170.23000000000002,61.861999999999966 170.17000000000007,61.95600000000002 L167.83999999999992,63.846000000000004 L170.17000000000007,65.73699999999997 C170.23000000000002,65.80999999999995 170.26,65.89099999999996 170.26,65.97900000000004 C170.26,66.06799999999998 170.23000000000002,66.14300000000003 170.17000000000007,66.20600000000002 L169.76,66.51800000000003 C169.70000000000005,66.57000000000005 169.6300000000001,66.596 169.55999999999995,66.596 C169.51,66.596 169.45000000000005,66.57000000000005 169.3900000000001,66.51800000000003 L166.98000000000002,64.56500000000005 L164.55999999999995,66.51800000000003 C164.5,66.57000000000005 164.44000000000005,66.596 164.3900000000001,66.596 C164.32999999999993,66.596 164.26,66.57000000000005 164.20000000000005,66.51800000000003 L163.77999999999997,66.20600000000002 C163.72000000000003,66.14300000000003 163.68000000000006,66.06500000000005 163.68000000000006,65.971 C163.68000000000006,65.90899999999999 163.72000000000003,65.83100000000002 163.77999999999997,65.73699999999997 L166.1099999999999,63.846000000000004 L163.77999999999997,61.95600000000002 C163.72000000000003,61.88300000000004 163.68000000000006,61.80200000000002 163.68000000000006,61.714000000000055 C163.68000000000006,61.625 163.72000000000003,61.549999999999955 163.77999999999997,61.486999999999966 L164.20000000000005,61.174999999999955 C164.26,61.12199999999996 164.32999999999993,61.096000000000004 164.3900000000001,61.096000000000004 C164.44000000000005,61.096000000000004 164.5,61.12199999999996 164.55999999999995,61.174999999999955 L166.98000000000002,63.12800000000004" />
<path d="M168.07999999999993,81.096 C168.70000000000005,81.096 169.23000000000002,81.25800000000004 169.67000000000007,81.58100000000002 C170.06999999999994,81.93499999999995 170.26,82.37800000000004 170.26,82.90899999999999 C170.26,83.80499999999995 169.79999999999995,84.64300000000003 168.8900000000001,85.42499999999995 C167.95000000000005,86.20600000000002 166.95000000000005,86.596 165.8699999999999,86.596 C165.25,86.596 164.72000000000003,86.43499999999995 164.28999999999996,86.11199999999997 C163.8900000000001,85.75800000000004 163.68000000000006,85.31500000000005 163.68000000000006,84.78399999999999 C163.68000000000006,83.88800000000003 164.1500000000001,83.04999999999995 165.08999999999992,82.26800000000003 C166.01,81.48699999999997 167.0,81.096 168.07999999999993,81.096" />
<path d="M168.07999999999993,26.096000000000004 C168.70000000000005,26.096000000000004 169.23000000000002,26.258000000000038 169.67000000000007,26.581000000000017 C170.06999999999994,26.934999999999945 170.26,27.378000000000043 170.26,27.908999999999992 C170.26,28.80499999999995 169.79999999999995,29.64300000000003 168.8900000000001,30.424999999999955 C167.95000000000005,31.206000000000017 166.95000000000005,31.596000000000004 165.8699999999999,31.596000000000004 C165.25,31.596000000000004 164.72000000000003,31.434999999999945 164.28999999999996,31.111999999999966 C163.8900000000001,30.758000000000038 163.68000000000006,30.315000000000055 163.68000000000006,29.783999999999992 C163.68000000000006,28.888000000000034 164.1500000000001,28.049999999999955 165.08999999999992,27.26800000000003 C166.01,26.486999999999966 167.0,26.096000000000004 168.07999999999993,26.096000000000004" />
<path d="M152.53999999999996,16.096000000000004 C153.17000000000007,16.096000000000004 153.70000000000005,16.258000000000038 154.1300000000001,16.581000000000017 C154.52999999999997,16.934999999999945 154.73000000000002,17.378000000000043 154.73000000000002,17.908999999999992 C154.73000000000002,18.80499999999995 154.26999999999998,19.64300000000003 153.3499999999999,20.424999999999955 C152.42000000000007,21.206000000000017 151.41000000000008,21.596000000000004 150.33999999999992,21.596000000000004 C149.71000000000004,21.596000000000004 149.19000000000005,21.434999999999945 148.76,21.111999999999966 C148.3499999999999,20.758000000000038 148.1500000000001,20.315000000000055 148.1500000000001,19.783999999999992 C148.1500000000001,18.888000000000034 148.6199999999999,18.049999999999955 149.55999999999995,17.26800000000003 C150.47000000000003,16.486999999999966 151.47000000000003,16.096000000000004 152.53999999999996,16.096000000000004" />
<path d="M135.91000000000008,63.12800000000004 L138.31999999999994,61.174999999999955 C138.3800000000001,61.12199999999996 138.44000000000005,61.096000000000004 138.49,61.096000000000004 C138.55999999999995,61.096000000000004 138.6300000000001,61.12199999999996 138.69000000000005,61.174999999999955 L139.0999999999999,61.486999999999966 C139.16000000000008,61.549999999999955 139.19000000000005,61.62800000000004 139.19000000000005,61.721000000000004 C139.19000000000005,61.78399999999999 139.16000000000008,61.861999999999966 139.0999999999999,61.95600000000002 L136.76999999999998,63.846000000000004 L139.0999999999999,65.73699999999997 C139.16000000000008,65.80999999999995 139.19000000000005,65.89099999999996 139.19000000000005,65.97900000000004 C139.19000000000005,66.06799999999998 139.16000000000008,66.14300000000003 139.0999999999999,66.20600000000002 L138.69000000000005,66.51800000000003 C138.6300000000001,66.57000000000005 138.55999999999995,66.596 138.49,66.596 C138.44000000000005,66.596 138.3800000000001,66.57000000000005 138.31999999999994,66.51800000000003 L135.91000000000008,64.56500000000005 L133.49,66.51800000000003 C133.43000000000006,66.57000000000005 133.3699999999999,66.596 133.31999999999994,66.596 C133.26,66.596 133.19000000000005,66.57000000000005 133.1300000000001,66.51800000000003 L132.71000000000004,66.20600000000002 C132.6500000000001,66.14300000000003 132.6099999999999,66.06500000000005 132.6099999999999,65.971 C132.6099999999999,65.90899999999999 132.6500000000001,65.83100000000002 132.71000000000004,65.73699999999997 L135.03999999999996,63.846000000000004 L132.71000000000004,61.95600000000002 C132.6500000000001,61.88300000000004 132.6099999999999,61.80200000000002 132.6099999999999,61.714000000000055 C132.6099999999999,61.625 132.6500000000001,61.549999999999955 132.71000000000004,61.486999999999966 L133.1300000000001,61.174999999999955 C133.19000000000005,61.12199999999996 133.26,61.096000000000004 133.31999999999994,61.096000000000004 C133.3699999999999,61.096000000000004 133.43000000000006,61.12199999999996 133.49,61.174999999999955 L135.91000000000008,63.12800000000004" />
<path d="M137.01,71.096 C137.6300000000001,71.096 138.16000000000008,71.25800000000004 138.5999999999999,71.58100000000002 C138.99,71.93499999999995 139.19000000000005,72.37800000000004 139.19000000000005,72.90899999999999 C139.19000000000005,73.80499999999995 138.73000000000002,74.64300000000003 137.81999999999994,75.42499999999995 C136.8800000000001,76.20600000000002 135.8800000000001,76.596 134.79999999999995,76.596 C134.18000000000006,76.596 133.6500000000001,76.43499999999995 133.22000000000003,76.11199999999997 C132.81999999999994,75.75800000000004 132.6099999999999,75.31500000000005 132.6099999999999,74.78399999999999 C132.6099999999999,73.88800000000003 133.07999999999993,73.04999999999995 134.01999999999998,72.26800000000003 C134.94000000000005,71.48699999999997 135.93000000000006,71.096 137.01,71.096" />
<path d="M137.01,26.096000000000004 C137.6300000000001,26.096000000000004 138.16000000000008,26.258000000000038 138.5999999999999,26.581000000000017 C138.99,26.934999999999945 139.19000000000005,27.378000000000043 139.19000000000005,27.908999999999992 C139.19000000000005,28.80499999999995 138.73000000000002,29.64300000000003 137.81999999999994,30.424999999999955 C136.8800000000001,31.206000000000017 135.8800000000001,31.596000000000004 134.79999999999995,31.596000000000004 C134.18000000000006,31.596000000000004 133.6500000000001,31.434999999999945 133.22000000000003,31.111999999999966 C132.81999999999994,30.758000000000038 132.6099999999999,30.315000000000055 132.6099999999999,29.783999999999992 C132.6099999999999,28.888000000000034 133.07999999999993,28.049999999999955 134.01999999999998,27.26800000000003 C134.94000000000005,26.486999999999966 135.93000000000006,26.096000000000004 137.01,26.096000000000004" />
<path d="M111.05999999999995,63.12800000000004 L113.46000000000004,61.174999999999955 C113.51999999999998,61.12199999999996 113.57999999999993,61.096000000000004 113.63000000000011,61.096000000000004 C113.71000000000004,61.096000000000004 113.76999999999998,61.12199999999996 113.83999999999992,61.174999999999955 L114.24000000000001,61.486999999999966 C114.30999999999995,61.549999999999955 114.33999999999992,61.62800000000004 114.33999999999992,61.721000000000004 C114.33999999999992,61.78399999999999 114.30999999999995,61.861999999999966 114.24000000000001,61.95600000000002 L111.91000000000008,63.846000000000004 L114.24000000000001,65.73699999999997 C114.30999999999995,65.80999999999995 114.33999999999992,65.89099999999996 114.33999999999992,65.97900000000004 C114.33999999999992,66.06799999999998 114.30999999999995,66.14300000000003 114.24000000000001,66.20600000000002 L113.83999999999992,66.51800000000003 C113.76999999999998,66.57000000000005 113.71000000000004,66.596 113.63000000000011,66.596 C113.57999999999993,66.596 113.51999999999998,66.57000000000005 113.46000000000004,66.51800000000003 L111.05999999999995,64.56500000000005 L108.63000000000011,66.51800000000003 C108.56999999999994,66.57000000000005 108.50999999999999,66.596 108.46000000000004,66.596 C108.40000000000009,66.596 108.33999999999992,66.57000000000005 108.26999999999998,66.51800000000003 L107.84999999999991,66.20600000000002 C107.78999999999996,66.14300000000003 107.75999999999999,66.06500000000005 107.75999999999999,65.971 C107.75999999999999,65.90899999999999 107.78999999999996,65.83100000000002 107.84999999999991,65.73699999999997 L110.18000000000006,63.846000000000004 L107.84999999999991,61.95600000000002 C107.78999999999996,61.88300000000004 107.75999999999999,61.80200000000002 107.75999999999999,61.714000000000055 C107.75999999999999,61.625 107.78999999999996,61.549999999999955 107.84999999999991,61.486999999999966 L108.26999999999998,61.174999999999955 C108.33999999999992,61.12199999999996 108.40000000000009,61.096000000000004 108.46000000000004,61.096000000000004 C108.50999999999999,61.096000000000004 108.56999999999994,61.12199999999996 108.63000000000011,61.174999999999955 L111.05999999999995,63.12800000000004" />
<path d="M112.15000000000009,81.096 C112.76999999999998,81.096 113.30999999999995,81.25800000000004 113.74000000000001,81.58100000000002 C114.1400000000001,81.93499999999995 114.33999999999992,82.37800000000004 114.33999999999992,82.90899999999999 C114.33999999999992,83.80499999999995 113.88000000000011,84.64300000000003 112.96000000000004,85.42499999999995 C112.01999999999998,86.20600000000002 111.01999999999998,86.596 109.95000000000005,86.596 C109.31999999999994,86.596 108.79999999999995,86.43499999999995 108.36999999999989,86.11199999999997 C107.96000000000004,85.75800000000004 107.75999999999999,85.31500000000005 107.75999999999999,84.78399999999999 C107.75999999999999,83.88800000000003 108.23000000000002,83.04999999999995 109.16000000000008,82.26800000000003 C110.07999999999993,81.48699999999997 111.07999999999993,81.096 112.15000000000009,81.096" />
<path d="M112.15000000000009,26.096000000000004 C112.76999999999998,26.096000000000004 113.30999999999995,26.258000000000038 113.74000000000001,26.581000000000017 C114.1400000000001,26.934999999999945 114.33999999999992,27.378000000000043 114.33999999999992,27.908999999999992 C114.33999999999992,28.80499999999995 113.88000000000011,29.64300000000003 112.96000000000004,30.424999999999955 C112.01999999999998,31.206000000000017 111.01999999999998,31.596000000000004 109.95000000000005,31.596000000000004 C109.31999999999994,31.596000000000004 108.79999999999995,31.434999999999945 108.36999999999989,31.111999999999966 C107.96000000000004,30.758000000000038 107.75999999999999,30.315000000000055 107.75999999999999,29.783999999999992 C107.75999999999999,28.888000000000034 108.23000000000002,28.049999999999955 109.16000000000008,27.26800000000003 C110.07999999999993,26.486999999999966 111.07999999999993,26.096000000000004 112.15000000000009,26.096000000000004" />
<path d="M86.20000000000005,63.12800000000004 L88.6099999999999,61.174999999999955 C88.67000000000007,61.12199999999996 88.73000000000002,61.096000000000004 88.77999999999997,61.096000000000004 C88.84999999999991,61.096000000000004 88.92000000000007,61.12199999999996 88.98000000000002,61.174999999999955 L89.3900000000001,61.486999999999966 C89.45000000000005,61.549999999999955 89.48000000000002,61.62800000000004 89.48000000000002,61.721000000000004 C89.48000000000002,61.78399999999999 89.45000000000005,61.861999999999966 89.3900000000001,61.95600000000002 L87.05999999999995,63.846000000000004 L89.3900000000001,65.73699999999997 C89.45000000000005,65.80999999999995 89.48000000000002,65.89099999999996 89.48000000000002,65.97900000000004 C89.48000000000002,66.06799999999998 89.45000000000005,66.14300000000003 89.3900000000001,66.20600000000002 L88.98000000000002,66.51800000000003 C88.92000000000007,66.57000000000005 88.84999999999991,66.596 88.77999999999997,66.596 C88.73000000000002,66.596 88.67000000000007,66.57000000000005 88.6099999999999,66.51800000000003 L86.20000000000005,64.56500000000005 L83.77999999999997,66.51800000000003 C83.72000000000003,66.57000000000005 83.66000000000008,66.596 83.6099999999999,66.596 C83.53999999999996,66.596 83.48000000000002,66.57000000000005 83.42000000000007,66.51800000000003 L83.0,66.20600000000002 C82.93000000000006,66.14300000000003 82.90000000000009,66.06500000000005 82.90000000000009,65.971 C82.90000000000009,65.90899999999999 82.93000000000006,65.83100000000002 83.0,65.73699999999997 L85.31999999999994,63.846000000000004 L83.0,61.95600000000002 C82.93000000000006,61.88300000000004 82.90000000000009,61.80200000000002 82.90000000000009,61.714000000000055 C82.90000000000009,61.625 82.93000000000006,61.549999999999955 83.0,61.486999999999966 L83.42000000000007,61.174999999999955 C83.48000000000002,61.12199999999996 83.53999999999996,61.096000000000004 83.6099999999999,61.096000000000004 C83.66000000000008,61.096000000000004 83.72000000000003,61.12199999999996 83.77999999999997,61.174999999999955 L86.20000000000005,63.12800000000004" />
<path d="M87.28999999999996,71.096 C87.92000000000007,71.096 88.45000000000005,71.25800000000004 88.8900000000001,71.58100000000002 C89.27999999999997,71.93499999999995 89.48000000000002,72.37800000000004 89.48000000000002,72.90899999999999 C89.48000000000002,73.80499999999995 89.01999999999998,74.64300000000003 88.1099999999999,75.42499999999995 C87.17000000000007,76.20600000000002 86.16000000000008,76.596 85.08999999999992,76.596 C84.47000000000003,76.596 83.94000000000005,76.43499999999995 83.50999999999999,76.11199999999997 C83.1099999999999,75.75800000000004 82.90000000000009,75.31500000000005 82.90000000000009,74.78399999999999 C82.90000000000009,73.88800000000003 83.36999999999989,73.04999999999995 84.30999999999995,72.26800000000003 C85.23000000000002,71.48699999999997 86.22000000000003,71.096 87.28999999999996,71.096" />
<path d="M87.28999999999996,81.096 C87.92000000000007,81.096 88.45000000000005,81.25800000000004 88.8900000000001,81.58100000000002 C89.27999999999997,81.93499999999995 89.48000000000002,82.37800000000004 89.48000000000002,82.90899999999999 C89.48000000000002,83.80499999999995 89.01999999999998,84.64300000000003 88.1099999999999,85.42499999999995 C87.17000000000007,86.20600000000002 86.16000000000008,86.596 85.08999999999992,86.596 C84.47000000000003,86.596 83.94000000000005,86.43499999999995 83.50999999999999,86.11199999999997 C83.1099999999999,85.75800000000004 82.90000000000009,85.31500000000005 82.90000000000009,84.78399999999999 C82.90000000000009,83.88800000000003 83.36999999999989,83.04999999999995 84.30999999999995,82.26800000000003 C85.23000000000002,81.48699999999997 86.22000000000003,81.096 87.28999999999996,81.096" />
<path d="M87.28999999999996,26.096000000000004 C87.92000000000007,26.096000000000004 88.45000000000005,26.258000000000038 88.8900000000001,26.581000000000017 C89.27999999999997,26.934999999999945 89.48000000000002,27.378000000000043 89.48000000000002,27.908999999999992 C89.48000000000002,28.80499999999995 89.01999999999998,29.64300000000003 88.1099999999999,30.424999999999955 C87.17000000000007,31.206000000000017 86.16000000000008,31.596000000000004 85.08999999999992,31.596000000000004 C84.47000000000003,31.596000000000004 83.94000000000005,31.434999999999945 83.50999999999999,31.111999999999966 C83.1099999999999,30.758000000000038 82.90000000000009,30.315000000000055 82.90000000000009,29.783999999999992 C82.90000000000009,28.888000000000034 83.36999999999989,28.049999999999955 84.30999999999995,27.26800000000003 C85.23000000000002,26.486999999999966 86.22000000000003,26.096000000000004 87.28999999999996,26.096000000000004" />
<path d="M71.75999999999999,16.096000000000004 C72.38000000000011,16.096000000000004 72.91000000000008,16.258000000000038 73.34999999999991,16.581000000000017 C73.75,16.934999999999945 73.95000000000005,17.378000000000043 73.95000000000005,17.908999999999992 C73.95000000000005,18.80499999999995 73.49000000000001,19.64300000000003 72.56999999999994,20.424999999999955 C71.63000000000011,21.206000000000017 70.63000000000011,21.596000000000004 69.54999999999995,21.596000000000004 C68.93000000000006,21.596000000000004 68.40000000000009,21.434999999999945 67.98000000000002,21.111999999999966 C67.56999999999994,20.758000000000038 67.36999999999989,20.315000000000055 67.36999999999989,19.783999999999992 C67.36999999999989,18.888000000000034 67.83999999999992,18.049999999999955 68.76999999999998,17.26800000000003 C69.69000000000005,16.486999999999966 70.69000000000005,16.096000000000004 71.75999999999999,16.096000000000004" />
<path d="M55.13000000000011,63.12800000000004 L57.539999999999964,61.174999999999955 C57.59999999999991,61.12199999999996 57.66000000000008,61.096000000000004 57.710000000000036,61.096000000000004 C57.77999999999997,61.096000000000004 57.84999999999991,61.12199999999996 57.91000000000008,61.174999999999955 L58.319999999999936,61.486999999999966 C58.38000000000011,61.549999999999955 58.41000000000008,61.62800000000004 58.41000000000008,61.721000000000004 C58.41000000000008,61.78399999999999 58.38000000000011,61.861999999999966 58.319999999999936,61.95600000000002 L55.99000000000001,63.846000000000004 L58.319999999999936,65.73699999999997 C58.38000000000011,65.80999999999995 58.41000000000008,65.89099999999996 58.41000000000008,65.97900000000004 C58.41000000000008,66.06799999999998 58.38000000000011,66.14300000000003 58.319999999999936,66.20600000000002 L57.91000000000008,66.51800000000003 C57.84999999999991,66.57000000000005 57.77999999999997,66.596 57.710000000000036,66.596 C57.66000000000008,66.596 57.59999999999991,66.57000000000005 57.539999999999964,66.51800000000003 L55.13000000000011,64.56500000000005 L52.710000000000036,66.51800000000003 C52.6400000000001,66.57000000000005 52.58999999999992,66.596 52.539999999999964,66.596 C52.47000000000003,66.596 52.41000000000008,66.57000000000005 52.34999999999991,66.51800000000003 L51.930000000000064,66.20600000000002 C51.8599999999999,66.14300000000003 51.82999999999993,66.06500000000005 51.82999999999993,65.971 C51.82999999999993,65.90899999999999 51.8599999999999,65.83100000000002 51.930000000000064,65.73699999999997 L54.25,63.846000000000004 L51.930000000000064,61.95600000000002 C51.8599999999999,61.88300000000004 51.82999999999993,61.80200000000002 51.82999999999993,61.714000000000055 C51.82999999999993,61.625 51.8599999999999,61.549999999999955 51.930000000000064,61.486999999999966 L52.34999999999991,61.174999999999955 C52.41000000000008,61.12199999999996 52.47000000000003,61.096000000000004 52.539999999999964,61.096000000000004 C52.58999999999992,61.096000000000004 52.6400000000001,61.12199999999996 52.710000000000036,61.174999999999955 L55.13000000000011,63.12800000000004" />
<path d="M24.059999999999945,63.12800000000004 L26.470000000000027,61.174999999999955 C26.529999999999973,61.12199999999996 26.589999999999918,61.096000000000004 26.6400000000001,61.096000000000004 C26.710000000000036,61.096000000000004 26.779999999999973,61.12199999999996 26.839999999999918,61.174999999999955 L27.25,61.486999999999966 C27.309999999999945,61.549999999999955 27.339999999999918,61.62800000000004 27.339999999999918,61.721000000000004 C27.339999999999918,61.78399999999999 27.309999999999945,61.861999999999966 27.25,61.95600000000002 L24.920000000000073,63.846000000000004 L27.25,65.73699999999997 C27.309999999999945,65.80999999999995 27.339999999999918,65.89099999999996 27.339999999999918,65.97900000000004 C27.339999999999918,66.06799999999998 27.309999999999945,66.14300000000003 27.25,66.20600000000002 L26.839999999999918,66.51800000000003 C26.779999999999973,66.57000000000005 26.710000000000036,66.596 26.6400000000001,66.596 C26.589999999999918,66.596 26.529999999999973,66.57000000000005 26.470000000000027,66.51800000000003 L24.059999999999945,64.56500000000005 L21.6400000000001,66.51800000000003 C21.569999999999936,66.57000000000005 21.519999999999982,66.596 21.470000000000027,66.596 C21.40000000000009,66.596 21.339999999999918,66.57000000000005 21.279999999999973,66.51800000000003 L20.8599999999999,66.20600000000002 C20.789999999999964,66.14300000000003 20.75999999999999,66.06500000000005 20.75999999999999,65.971 C20.75999999999999,65.90899999999999 20.789999999999964,65.83100000000002 20.8599999999999,65.73699999999997 L23.180000000000064,63.846000000000004 L20.8599999999999,61.95600000000002 C20.789999999999964,61.88300000000004 20.75999999999999,61.80200000000002 20.75999999999999,61.714000000000055 C20.75999999999999,61.625 20.789999999999964,61.549999999999955 20.8599999999999,61.486999999999966 L21.279999999999973,61.174999999999955 C21.339999999999918,61.12199999999996 21.40000000000009,61.096000000000004 21.470000000000027,61.096000000000004 C21.519999999999982,61.096000000000004 21.569999999999936,61.12199999999996 21.6400000000001,61.174999999999955 L24.059999999999945,63.12800000000004" />
<path d="M25.15000000000009,71.096 C25.779999999999973,71.096 26.309999999999945,71.25800000000004 26.75,71.58100000000002 C27.1400000000001,71.93499999999995 27.339999999999918,72.37800000000004 27.339999999999918,72.90899999999999 C27.339999999999918,73.80499999999995 26.88000000000011,74.64300000000003 25.970000000000027,75.42499999999995 C25.029999999999973,76.20600000000002 24.019999999999982,76.596 22.950000000000045,76.596 C22.319999999999936,76.596 21.799999999999955,76.43499999999995 21.36999999999989,76.11199999999997 C20.970000000000027,75.75800000000004 20.75999999999999,75.31500000000005 20.75999999999999,74.78399999999999 C20.75999999999999,73.88800000000003 21.230000000000018,73.04999999999995 22.170000000000073,72.26800000000003 C23.089999999999918,71.48699999999997 24.079999999999927,71.096 25.15000000000009,71.096" />
<path d="M25.15000000000009,23.596000000000004 C25.779999999999973,23.596000000000004 26.309999999999945,23.758000000000038 26.75,24.081000000000017 C27.1400000000001,24.434999999999945 27.339999999999918,24.878000000000043 27.339999999999918,25.408999999999992 C27.339999999999918,26.30499999999995 26.88000000000011,27.14300000000003 25.970000000000027,27.924999999999955 C25.029999999999973,28.706000000000017 24.019999999999982,29.096000000000004 22.950000000000045,29.096000000000004 C22.319999999999936,29.096000000000004 21.799999999999955,28.934999999999945 21.36999999999989,28.611999999999966 C20.970000000000027,28.258000000000038 20.75999999999999,27.815000000000055 20.75999999999999,27.283999999999992 C20.75999999999999,26.388000000000034 21.230000000000018,25.549999999999955 22.170000000000073,24.76800000000003 C23.089999999999918,23.986999999999966 24.079999999999927,23.596000000000004 25.15000000000009,23.596000000000004" />
<path d="M204.26,98.846 L274.0899999999999,91.27599999999995 L274.0899999999999,93.77599999999995 L204.26,101.346 L204.26,98.846" />
<path d="M210.20000000000005,17.596000000000004 L233.91000000000008,17.596000000000004 L233.91000000000008,20.096000000000004 L210.20000000000005,20.096000000000004 L210.20000000000005,17.596000000000004" />
<path d="M132.6099999999999,42.596000000000004 L164.32999999999993,42.596000000000004 L164.32999999999993,45.096000000000004 L132.6099999999999,45.096000000000004 L132.6099999999999,42.596000000000004" />
<path d="M132.6099999999999,38.846000000000004 L148.79999999999995,38.846000000000004 L148.79999999999995,41.346000000000004 L132.6099999999999,41.346000000000004 L132.6099999999999,38.846000000000004" />
<path d="M82.90000000000009,96.346 L164.32999999999993,96.346 L164.32999999999993,98.846 L82.90000000000009,98.846 L82.90000000000009,96.346" />
<path d="M88.83999999999992,12.596000000000004 L114.33999999999992,12.596000000000004 L114.33999999999992,15.096000000000004 L88.83999999999992,15.096000000000004 L88.83999999999992,12.596000000000004" />
<path d="M20.75999999999999,41.346000000000004 L68.01999999999998,37.54399999999998 L68.01999999999998,40.04399999999998 L20.75999999999999,43.846000000000004 L20.75999999999999,41.346000000000004" />
<path d="M68.01999999999998,33.79399999999998 L61.42000000000007,34.325000000000045 L61.42000000000007,36.825000000000045 L68.01999999999998,36.29399999999998 L68.01999999999998,33.79399999999998" />
<path d="M29.430000000000064,27.150999999999954 C29.210000000000036,26.92700000000002 29.09999999999991,26.658999999999992 29.09999999999991,26.346000000000004 C29.09999999999991,26.033999999999992 29.210000000000036,25.765999999999963 29.430000000000064,25.54200000000003 C29.65000000000009,25.317999999999984 29.920000000000073,25.206000000000017 30.24000000000001,25.206000000000017 C30.549999999999955,25.206000000000017 30.809999999999945,25.317999999999984 31.029999999999973,25.54200000000003 C31.25,25.765999999999963 31.3599999999999,26.033999999999992 31.3599999999999,26.346000000000004 C31.3599999999999,26.658999999999992 31.25,26.92700000000002 31.029999999999973,27.150999999999954 C30.809999999999945,27.375 30.549999999999955,27.486999999999966 30.24000000000001,27.486999999999966 C29.920000000000073,27.486999999999966 29.65000000000009,27.375 29.430000000000064,27.150999999999954" />
<polyline points="0.0,13.846000000000004 255.0,13.846000000000004" fill="none" stroke="#000000" stroke-width="0.40" />
<polyline points="0.0,18.846000000000004 255.0,18.846000000000004" fill="none" stroke="#000000" stroke-width="0.40" />
<polyline points="0.0,23.846000000000004 255.0,23.846000000000004" fill="none" stroke="#000000" stroke-width="0.40" />
<polyline points="0.0,28.846000000000004 255.0,28.846000000000004" fill="none" stroke="#000000" stroke-width="0.40" />
<polyline points="0.0,33.846000000000004 255.0,33.846000000000004" fill="none" stroke="#000000" stroke-width="0.40" />
<polyline points="0.0,66.346 255.0,66.346" fill="none" stroke="#000000" stroke-width="0.40" />
<polyline points="0.0,71.346 255.0,71.346" fill="none" stroke="#000000" stroke-width="0.40" />
<polyline points="0.0,76.346 255.0,76.346" fill="none" stroke="#000000" stroke-width="0.40" />
<polyline points="0.0,81.346 255.0,81.346" fill="none" stroke="#000000" stroke-width="0.40" />
<polyline points="0.0,86.346 255.0,86.346" fill="none" stroke="#000000" stroke-width="0.40" />
<polyline points="188.94000000000005,66.346 188.94000000000005,86.346" fill="" stroke="#000000" stroke-width="0.80" />
<polyline points="188.94000000000005,13.846000000000004 188.94000000000005,33.846000000000004" fill="" stroke="#000000" stroke-width="0.80" />
<polyline points="250.71000000000004,65.90999999999997 250.71000000000004,95.096" fill="" stroke="#000000" stroke-width="0.65" />
<polyline points="227.6500000000001,65.90999999999997 227.6500000000001,97.596" fill="" stroke="#000000" stroke-width="0.65" />
<polyline points="233.57999999999993,32.90700000000004 233.57999999999993,18.846000000000004" fill="" stroke="#000000" stroke-width="0.65" />
<polyline points="204.58999999999992,65.90999999999997 204.58999999999992,100.096" fill="" stroke="#000000" stroke-width="0.65" />
<polyline points="210.51999999999998,32.90700000000004 210.51999999999998,18.846000000000004" fill="" stroke="#000000" stroke-width="0.65" />
<polyline points="164.01,65.90999999999997 164.01,97.596" fill="" stroke="#000000" stroke-width="0.65" />
<polyline points="164.01,29.785999999999945 164.01,43.846000000000004" fill="" stroke="#000000" stroke-width="0.65" />
<polyline points="148.47000000000003,19.785999999999945 148.47000000000003,43.846000000000004" fill="" stroke="#000000" stroke-width="0.65" />
<polyline points="132.94000000000005,65.90999999999997 132.94000000000005,97.596" fill="" stroke="#000000" stroke-width="0.65" />
<polyline points="132.94000000000005,29.785999999999945 132.94000000000005,43.846000000000004" fill="" stroke="#000000" stroke-width="0.65" />
<polyline points="108.07999999999993,65.90999999999997 108.07999999999993,97.596" fill="" stroke="#000000" stroke-width="0.65" />
<polyline points="114.01999999999998,27.90700000000004 114.01999999999998,13.846000000000004" fill="" stroke="#000000" stroke-width="0.65" />
<polyline points="83.23000000000002,65.90999999999997 83.23000000000002,97.596" fill="" stroke="#000000" stroke-width="0.65" />
<polyline points="89.16000000000008,27.90700000000004 89.16000000000008,13.846000000000004" fill="" stroke="#000000" stroke-width="0.65" />
<polyline points="67.69000000000005,19.785999999999945 67.69000000000005,38.846000000000004" fill="" stroke="#000000" stroke-width="0.65" />
<polyline points="52.16000000000008,65.90999999999997 52.16000000000008,90.096" fill="" stroke="#000000" stroke-width="0.65" />
<polyline points="21.089999999999918,65.90999999999997 21.089999999999918,92.981" fill="" stroke="#000000" stroke-width="0.65" />
<polyline points="21.089999999999918,27.285999999999945 21.089999999999918,42.596000000000004" fill="" stroke="#000000" stroke-width="0.65" />
</svg>
