<?xml version="1.0" encoding="UTF-8" standalone="yes"?>
<svg width="256.0px" height="256.0px" xmlns="http://www.w3.org/2000/svg" xmlns:xlink="http://www.w3.org/1999/xlink" version="1.2" baseProfile="tiny">
<path d="M226.5,30.79200000000003 C226.39999999999964,30.69799999999998 226.29999999999927,30.591000000000008 226.10000000000036,30.47199999999998 C226.0,30.351999999999975 225.79999999999927,30.184999999999945 225.60000000000036,29.97199999999998 C225.39999999999964,29.758000000000038 225.20000000000073,29.53200000000004 225.10000000000036,29.29200000000003 C225.0,29.05200000000002 224.79999999999927,28.760999999999967 224.70000000000073,28.41700000000003 C224.60000000000036,28.07299999999998 224.60000000000036,27.71900000000005 224.60000000000036,27.354000000000042 C224.60000000000036,26.96900000000005 224.60000000000036,26.604000000000042 224.70000000000073,26.260999999999967 C224.79999999999927,25.91700000000003 225.0,25.633000000000038 225.10000000000036,25.408999999999992 C225.20000000000073,25.184999999999945 225.39999999999964,24.966000000000008 225.60000000000036,24.753000000000043 C225.79999999999927,24.538999999999987 226.0,24.383000000000038 226.10000000000036,24.283999999999992 C226.20000000000073,24.184999999999945 226.39999999999964,24.077999999999975 226.60000000000036,23.964000000000055 L226.60000000000036,24.089000000000055 C226.39999999999964,24.287000000000035 226.20000000000073,24.461000000000013 226.10000000000036,24.611999999999966 C225.89999999999964,24.763000000000034 225.79999999999927,24.964000000000055 225.60000000000036,25.214000000000055 C225.5,25.464000000000055 225.39999999999964,25.760999999999967 225.39999999999964,26.104000000000042 C225.29999999999927,26.44799999999998 225.29999999999927,26.860000000000014 225.29999999999927,27.339000000000055 C225.29999999999927,27.827999999999975 225.29999999999927,28.253000000000043 225.39999999999964,28.611999999999966 C225.39999999999964,28.97199999999998 225.5,29.275999999999954 225.60000000000036,29.525999999999954 C225.79999999999927,29.775999999999954 225.89999999999964,29.98199999999997 226.10000000000036,30.144000000000005 C226.20000000000073,30.30499999999995 226.39999999999964,30.474000000000046 226.60000000000036,30.650999999999954 L226.5,30.79200000000003 M227.10000000000036,27.66700000000003 C227.10000000000036,27.07299999999998 227.20000000000073,26.59699999999998 227.60000000000036,26.236999999999966 C227.89999999999964,25.878000000000043 228.39999999999964,25.69799999999998 228.79999999999927,25.69799999999998 C229.20000000000073,25.69799999999998 229.39999999999964,25.778999999999996 229.70000000000073,25.940000000000055 C229.89999999999964,26.101999999999975 230.0,26.297000000000025 230.0,26.525999999999954 C230.0,26.610000000000014 230.0,26.684999999999945 229.89999999999964,26.753000000000043 C229.79999999999927,26.821000000000026 229.79999999999927,26.854000000000042 229.60000000000036,26.854000000000042 C229.5,26.854000000000042 229.39999999999964,26.735000000000014 229.29999999999927,26.495000000000005 L229.20000000000073,26.32299999999998 C229.20000000000073,26.16700000000003 229.10000000000036,26.062999999999988 229.10000000000036,26.010999999999967 C229.0,25.958999999999946 228.89999999999964,25.932999999999993 228.79999999999927,25.932999999999993 C228.5,25.932999999999993 228.20000000000073,26.059999999999945 228.0,26.315000000000055 C227.79999999999927,26.571000000000026 227.70000000000073,26.90700000000004 227.70000000000073,27.32299999999998 C227.70000000000073,27.770999999999958 227.79999999999927,28.140999999999963 228.0,28.432999999999993 C228.29999999999927,28.724000000000046 228.60000000000036,28.870000000000005 228.89999999999964,28.870000000000005 C229.10000000000036,28.870000000000005 229.29999999999927,28.812999999999988 229.5,28.69799999999998 C229.70000000000073,28.583999999999946 229.79999999999927,28.390999999999963 230.0,28.120000000000005 L230.10000000000036,28.182999999999993 C230.10000000000036,28.297000000000025 230.0,28.388000000000034 230.0,28.456000000000017 C230.0,28.524 229.89999999999964,28.628000000000043 229.79999999999927,28.769000000000005 C229.70000000000073,28.908999999999992 229.60000000000036,29.020999999999958 229.5,29.104000000000042 C229.39999999999964,29.187999999999988 229.29999999999927,29.265999999999963 229.10000000000036,29.339000000000055 C228.89999999999964,29.412000000000035 228.79999999999927,29.44799999999998 228.60000000000036,29.44799999999998 C228.10000000000036,29.44799999999998 227.79999999999927,29.28200000000004 227.5,28.94799999999998 C227.20000000000073,28.61500000000001 227.10000000000036,28.187999999999988 227.10000000000036,27.66700000000003 M230.70000000000073,23.964000000000055 C230.89999999999964,24.047000000000025 231.0,24.149 231.20000000000073,24.269000000000005 C231.29999999999927,24.388000000000034 231.5,24.55499999999995 231.70000000000073,24.769000000000005 C231.89999999999964,24.98199999999997 232.0,25.211000000000013 232.20000000000073,25.456000000000017 C232.29999999999927,25.701000000000022 232.39999999999964,25.991999999999962 232.5,26.331000000000017 C232.60000000000036,26.66999999999996 232.70000000000073,27.025999999999954 232.70000000000073,27.400999999999954 C232.70000000000073,27.775999999999954 232.60000000000036,28.135999999999967 232.5,28.479000000000042 C232.39999999999964,28.82299999999998 232.29999999999927,29.110000000000014 232.20000000000073,29.339000000000055 C232.10000000000036,29.567999999999984 231.89999999999964,29.787000000000035 231.70000000000073,29.995000000000005 C231.5,30.202999999999975 231.29999999999927,30.360000000000014 231.20000000000073,30.464000000000055 C231.10000000000036,30.567999999999984 230.89999999999964,30.67700000000002 230.70000000000073,30.79200000000003 L230.60000000000036,30.650999999999954 C230.89999999999964,30.464000000000055 231.10000000000036,30.29200000000003 231.20000000000073,30.135999999999967 C231.39999999999964,29.979000000000042 231.5,29.778999999999996 231.60000000000036,29.533999999999992 C231.79999999999927,29.288999999999987 231.89999999999964,28.995000000000005 231.89999999999964,28.650999999999954 C232.0,28.307999999999993 232.0,27.895999999999958 232.0,27.41700000000003 C232.0,26.92700000000002 232.0,26.503000000000043 231.89999999999964,26.144000000000005 C231.89999999999964,25.783999999999992 231.79999999999927,25.476999999999975 231.60000000000036,25.22199999999998 C231.5,24.966000000000008 231.39999999999964,24.760999999999967 231.20000000000073,24.604000000000042 C231.10000000000036,24.44799999999998 230.89999999999964,24.275999999999954 230.60000000000036,24.089000000000055 L230.70000000000073,23.964000000000055 M236.5,24.635999999999967 C236.39999999999964,24.635999999999967 236.20000000000073,24.692999999999984 235.89999999999964,24.807999999999993 L235.89999999999964,24.69799999999998 L237.39999999999964,23.964000000000055 L237.39999999999964,23.979000000000042 L237.39999999999964,28.775999999999954 C237.39999999999964,28.974000000000046 237.5,29.101999999999975 237.60000000000036,29.158999999999992 C237.70000000000073,29.216000000000008 237.89999999999964,29.245000000000005 238.20000000000073,29.245000000000005 L238.20000000000073,29.370000000000005 L236.0,29.370000000000005 L236.0,29.245000000000005 C236.29999999999927,29.235000000000014 236.5,29.190000000000055 236.60000000000036,29.111999999999966 C236.70000000000073,29.033999999999992 236.79999999999927,28.870000000000005 236.79999999999927,28.620000000000005 L236.79999999999927,25.010999999999967 C236.79999999999927,24.760999999999967 236.70000000000073,24.635999999999967 236.5,24.635999999999967 M239.5,29.54200000000003 L239.5,29.385999999999967 C240.10000000000036,29.28200000000004 240.60000000000036,29.024 241.0,28.611999999999966 C241.5,28.201000000000022 241.70000000000073,27.66700000000003 241.89999999999964,27.010999999999967 C241.5,27.32299999999998 241.10000000000036,27.479000000000042 240.70000000000073,27.479000000000042 C240.29999999999927,27.479000000000042 239.89999999999964,27.327999999999975 239.70000000000073,27.025999999999954 C239.39999999999964,26.724000000000046 239.29999999999927,26.333999999999946 239.29999999999927,25.854000000000042 C239.29999999999927,25.312999999999988 239.39999999999964,24.860000000000014 239.70000000000073,24.495000000000005 C240.10000000000036,24.129999999999995 240.5,23.94799999999998 240.89999999999964,23.94799999999998 C241.5,23.94799999999998 241.89999999999964,24.158999999999992 242.20000000000073,24.581000000000017 C242.60000000000036,25.003000000000043 242.70000000000073,25.547000000000025 242.70000000000073,26.214000000000055 C242.70000000000073,26.432999999999993 242.70000000000073,26.653999999999996 242.70000000000073,26.878000000000043 C242.70000000000073,27.101999999999975 242.60000000000036,27.366999999999962 242.39999999999964,27.674999999999955 C242.29999999999927,27.98199999999997 242.10000000000036,28.254999999999995 241.89999999999964,28.495000000000005 C241.70000000000073,28.735000000000014 241.39999999999964,28.952999999999975 240.89999999999964,29.150999999999954 C240.5,29.349000000000046 240.10000000000036,29.479000000000042 239.5,29.54200000000003 M241.0,27.120000000000005 C241.10000000000036,27.120000000000005 241.20000000000073,27.10699999999997 241.39999999999964,27.081000000000017 C241.5,27.05499999999995 241.60000000000036,26.991999999999962 241.70000000000073,26.894000000000005 C241.89999999999964,26.79499999999996 241.89999999999964,26.672000000000025 241.89999999999964,26.525999999999954 L241.89999999999964,26.214000000000055 C241.89999999999964,24.860000000000014 241.60000000000036,24.182999999999993 240.89999999999964,24.182999999999993 C240.70000000000073,24.182999999999993 240.60000000000036,24.226999999999975 240.5,24.315000000000055 C240.29999999999927,24.403999999999996 240.20000000000073,24.520999999999958 240.20000000000073,24.66700000000003 C240.10000000000036,24.812999999999988 240.10000000000036,24.958999999999946 240.10000000000036,25.104000000000042 C240.0,25.25 240.0,25.40700000000004 240.0,25.57299999999998 C240.0,26.05200000000002 240.10000000000036,26.42999999999995 240.29999999999927,26.706000000000017 C240.5,26.98199999999997 240.70000000000073,27.120000000000005 241.0,27.120000000000005 M245.10000000000036,29.479000000000042 C244.5,29.479000000000042 244.10000000000036,29.265999999999963 243.79999999999927,28.839000000000055 C243.5,28.412000000000035 243.29999999999927,27.84400000000005 243.29999999999927,27.135999999999967 C243.29999999999927,26.91700000000003 243.29999999999927,26.692999999999984 243.39999999999964,26.464000000000055 C243.39999999999964,26.235000000000014 243.5,25.97199999999998 243.60000000000036,25.674999999999955 C243.79999999999927,25.378000000000043 244.0,25.111999999999966 244.20000000000073,24.878000000000043 C244.39999999999964,24.644000000000005 244.79999999999927,24.434999999999945 245.20000000000073,24.253000000000043 C245.60000000000036,24.071000000000026 246.10000000000036,23.952999999999975 246.60000000000036,23.900999999999954 L246.60000000000036,24.025999999999954 C246.0,24.129999999999995 245.5,24.385999999999967 245.0,24.79200000000003 C244.60000000000036,25.19799999999998 244.29999999999927,25.702999999999975 244.20000000000073,26.307999999999993 C244.5,26.162000000000035 244.70000000000073,26.067999999999984 244.79999999999927,26.025999999999954 C244.89999999999964,25.985000000000014 245.10000000000036,25.964000000000055 245.29999999999927,25.964000000000055 C245.70000000000073,25.964000000000055 246.10000000000036,26.111999999999966 246.39999999999964,26.408999999999992 C246.70000000000073,26.706000000000017 246.79999999999927,27.104000000000042 246.79999999999927,27.604000000000042 C246.79999999999927,28.15700000000004 246.60000000000036,28.60699999999997 246.29999999999927,28.956000000000017 C246.0,29.30499999999995 245.60000000000036,29.479000000000042 245.10000000000036,29.479000000000042 M245.0,26.32299999999998 C244.60000000000036,26.32299999999998 244.29999999999927,26.400999999999954 244.20000000000073,26.557999999999993 C244.10000000000036,26.714000000000055 244.0,26.94799999999998 244.0,27.260999999999967 C244.0,27.875 244.10000000000036,28.360000000000014 244.29999999999927,28.714000000000055 C244.5,29.067999999999984 244.79999999999927,29.245000000000005 245.20000000000073,29.245000000000005 C245.5,29.245000000000005 245.70000000000073,29.128000000000043 245.79999999999927,28.894000000000005 C246.0,28.658999999999992 246.0,28.32299999999998 246.0,27.885999999999967 C246.0,27.385999999999967 245.89999999999964,27.0 245.79999999999927,26.729000000000042 C245.60000000000036,26.458999999999946 245.29999999999927,26.32299999999998 245.0,26.32299999999998 M249.29999999999927,26.400999999999954 C249.79999999999927,26.754999999999995 250.20000000000073,27.05200000000002 250.29999999999927,27.29200000000003 C250.5,27.53200000000004 250.60000000000036,27.807999999999993 250.60000000000036,28.120000000000005 C250.60000000000036,28.537000000000035 250.39999999999964,28.866999999999962 250.20000000000073,29.111999999999966 C249.89999999999964,29.35699999999997 249.5,29.479000000000042 249.0,29.479000000000042 C248.5,29.479000000000042 248.20000000000073,29.35699999999997 247.89999999999964,29.111999999999966 C247.60000000000036,28.866999999999962 247.5,28.547000000000025 247.5,28.150999999999954 C247.5,27.879999999999995 247.5,27.653999999999996 247.70000000000073,27.47199999999998 C247.79999999999927,27.288999999999987 248.10000000000036,27.037000000000035 248.5,26.714000000000055 C248.10000000000036,26.339000000000055 247.79999999999927,26.062999999999988 247.70000000000073,25.885999999999967 C247.60000000000036,25.708999999999946 247.5,25.49000000000001 247.5,25.229000000000042 C247.5,24.86500000000001 247.70000000000073,24.559999999999945 247.89999999999964,24.315000000000055 C248.20000000000073,24.071000000000026 248.60000000000036,23.94799999999998 249.0,23.94799999999998 C249.39999999999964,23.94799999999998 249.79999999999927,24.05499999999995 250.0,24.269000000000005 C250.29999999999927,24.48199999999997 250.39999999999964,24.760999999999967 250.39999999999964,25.104000000000042 C250.39999999999964,25.375 250.29999999999927,25.604000000000042 250.20000000000073,25.79200000000003 C250.0,25.979000000000042 249.70000000000073,26.182999999999993 249.29999999999927,26.400999999999954 M248.70000000000073,26.870000000000005 C248.5,27.057999999999993 248.29999999999927,27.241999999999962 248.20000000000073,27.424999999999955 C248.10000000000036,27.60699999999997 248.10000000000036,27.827999999999975 248.10000000000036,28.089000000000055 C248.10000000000036,28.432999999999993 248.20000000000073,28.711000000000013 248.39999999999964,28.924999999999955 C248.5,29.138000000000034 248.79999999999927,29.245000000000005 249.10000000000036,29.245000000000005 C249.29999999999927,29.245000000000005 249.60000000000036,29.163999999999987 249.70000000000073,29.003000000000043 C249.89999999999964,28.841000000000008 250.0,28.629999999999995 250.0,28.370000000000005 C250.0,28.287000000000035 250.0,28.206000000000017 249.89999999999964,28.128000000000043 C249.89999999999964,28.049999999999955 249.89999999999964,27.985000000000014 249.89999999999964,27.932999999999993 C249.89999999999964,27.879999999999995 249.79999999999927,27.817999999999984 249.79999999999927,27.745000000000005 C249.70000000000073,27.672000000000025 249.70000000000073,27.616999999999962 249.60000000000036,27.581000000000017 C249.60000000000036,27.54499999999996 249.5,27.486999999999966 249.5,27.408999999999992 C249.39999999999964,27.331000000000017 249.29999999999927,27.275999999999954 249.20000000000073,27.245000000000005 C249.20000000000073,27.214000000000055 249.10000000000036,27.153999999999996 249.0,27.065000000000055 C248.89999999999964,26.976999999999975 248.79999999999927,26.912000000000035 248.70000000000073,26.870000000000005 M249.10000000000036,26.260999999999967 C249.10000000000036,26.25 249.20000000000073,26.22199999999998 249.20000000000073,26.174999999999955 C249.29999999999927,26.128000000000043 249.29999999999927,26.091000000000008 249.39999999999964,26.065000000000055 C249.39999999999964,26.038999999999987 249.39999999999964,26.0 249.5,25.94799999999998 C249.60000000000036,25.895999999999958 249.60000000000036,25.84400000000005 249.60000000000036,25.79200000000003 C249.70000000000073,25.74000000000001 249.70000000000073,25.67700000000002 249.70000000000073,25.604000000000042 C249.79999999999927,25.53200000000004 249.79999999999927,25.451000000000022 249.79999999999927,25.361999999999966 C249.79999999999927,25.274 249.89999999999964,25.182999999999993 249.89999999999964,25.089000000000055 C249.89999999999964,24.817999999999984 249.79999999999927,24.599000000000046 249.60000000000036,24.432999999999993 C249.5,24.265999999999963 249.20000000000073,24.182999999999993 249.0,24.182999999999993 C248.70000000000073,24.182999999999993 248.5,24.258000000000038 248.39999999999964,24.408999999999992 C248.20000000000073,24.559999999999945 248.10000000000036,24.75 248.10000000000036,24.979000000000042 C248.10000000000036,25.19799999999998 248.20000000000073,25.40700000000004 248.29999999999927,25.604000000000042 C248.5,25.80200000000002 248.70000000000073,26.020999999999958 249.10000000000036,26.260999999999967 M258.5,26.69799999999998 C258.5,26.937999999999988 258.39999999999964,27.172000000000025 258.39999999999964,27.400999999999954 C258.2999999999993,27.629999999999995 258.2000000000007,27.866999999999962 258.10000000000036,28.111999999999966 C257.89999999999964,28.35699999999997 257.7999999999993,28.567999999999984 257.5,28.745000000000005 C257.2999999999993,28.922000000000025 257.0,29.071000000000026 256.60000000000036,29.190000000000055 C256.2999999999993,29.309999999999945 255.79999999999927,29.370000000000005 255.39999999999964,29.370000000000005 L253.10000000000036,29.370000000000005 L253.10000000000036,29.214000000000055 C253.39999999999964,29.192999999999984 253.60000000000036,29.140999999999963 253.70000000000073,29.057999999999993 C253.79999999999927,28.974000000000046 253.79999999999927,28.787000000000035 253.79999999999927,28.495000000000005 L253.79999999999927,24.94799999999998 C253.79999999999927,24.65700000000004 253.79999999999927,24.47199999999998 253.70000000000073,24.394000000000005 C253.60000000000036,24.315000000000055 253.39999999999964,24.260999999999967 253.10000000000036,24.229000000000042 L253.10000000000036,24.07299999999998 L255.29999999999927,24.07299999999998 C255.70000000000073,24.07299999999998 256.2000000000007,24.128000000000043 256.60000000000036,24.236999999999966 C256.89999999999964,24.34699999999998 257.2000000000007,24.486999999999966 257.5,24.658999999999992 C257.7000000000007,24.831000000000017 257.89999999999964,25.037000000000035 258.10000000000036,25.275999999999954 C258.2000000000007,25.515999999999963 258.2999999999993,25.75 258.39999999999964,25.979000000000042 C258.39999999999964,26.208999999999946 258.5,26.44799999999998 258.5,26.69799999999998 M257.60000000000036,26.760999999999967 C257.60000000000036,26.53200000000004 257.5,26.309999999999945 257.5,26.09699999999998 C257.5,25.883000000000038 257.39999999999964,25.66999999999996 257.2999999999993,25.456000000000017 C257.10000000000036,25.241999999999962 257.0,25.059999999999945 256.7999999999993,24.908999999999992 C256.60000000000036,24.758000000000038 256.39999999999964,24.633000000000038 256.10000000000036,24.533999999999992 C255.79999999999927,24.434999999999945 255.39999999999964,24.385999999999967 255.0,24.385999999999967 C254.89999999999964,24.385999999999967 254.79999999999927,24.40700000000004 254.70000000000073,24.44799999999998 C254.60000000000036,24.49000000000001 254.60000000000036,24.57299999999998 254.60000000000036,24.69799999999998 L254.60000000000036,28.745000000000005 C254.60000000000036,28.870000000000005 254.60000000000036,28.956000000000017 254.70000000000073,29.003000000000043 C254.79999999999927,29.049999999999955 254.89999999999964,29.07299999999998 255.0,29.07299999999998 C256.7000000000007,29.07299999999998 257.60000000000036,28.30200000000002 257.60000000000036,26.760999999999967 M261.39999999999964,26.885999999999967 C261.2999999999993,26.458999999999946 261.2000000000007,26.190000000000055 261.10000000000036,26.081000000000017 C261.0,25.97199999999998 260.89999999999964,25.90700000000004 260.7000000000007,25.885999999999967 L260.7000000000007,25.775999999999954 L262.2999999999993,25.775999999999954 L262.2999999999993,25.885999999999967 C262.10000000000036,25.91700000000003 262.0,25.951000000000022 261.89999999999964,25.986999999999966 C261.89999999999964,26.024 261.89999999999964,26.089000000000055 261.89999999999964,26.182999999999993 C261.89999999999964,26.245000000000005 261.89999999999964,26.400999999999954 262.0,26.650999999999954 L262.7000000000007,28.44799999999998 L263.39999999999964,26.66700000000003 C263.5,26.44799999999998 263.5,26.270999999999958 263.5,26.135999999999967 C263.5,26.07299999999998 263.5,26.024 263.39999999999964,25.986999999999966 C263.39999999999964,25.951000000000022 263.2999999999993,25.91700000000003 263.2000000000007,25.885999999999967 L263.2000000000007,25.775999999999954 L264.10000000000036,25.775999999999954 L264.10000000000036,25.885999999999967 C264.10000000000036,25.91700000000003 264.0,25.956000000000017 264.0,26.003000000000043 C263.89999999999964,26.049999999999955 263.89999999999964,26.15700000000004 263.7999999999993,26.32299999999998 L262.7000000000007,29.089000000000055 C262.60000000000036,29.349000000000046 262.5,29.479000000000042 262.5,29.479000000000042 C262.5,29.479000000000042 262.39999999999964,29.36500000000001 262.2999999999993,29.135999999999967 L261.60000000000036,27.245000000000005 L260.7000000000007,29.16700000000003 C260.60000000000036,29.375 260.5,29.479000000000042 260.5,29.479000000000042 C260.39999999999964,29.479000000000042 260.39999999999964,29.36500000000001 260.2999999999993,29.135999999999967 L259.2000000000007,26.400999999999954 C259.10000000000036,26.192999999999984 259.0,26.057999999999993 259.0,25.995000000000005 C258.89999999999964,25.932999999999993 258.89999999999964,25.895999999999958 258.7999999999993,25.885999999999967 L258.7999999999993,25.775999999999954 L260.2000000000007,25.775999999999954 L260.2000000000007,25.885999999999967 C260.10000000000036,25.90700000000004 260.0,25.934999999999945 259.89999999999964,25.97199999999998 C259.89999999999964,26.008000000000038 259.7999999999993,26.067999999999984 259.7999999999993,26.150999999999954 C259.7999999999993,26.235000000000014 259.89999999999964,26.317999999999984 259.89999999999964,26.400999999999954 L260.7000000000007,28.479000000000042 L261.39999999999964,26.885999999999967 M264.39999999999964,28.57299999999998 C264.39999999999964,28.479000000000042 264.39999999999964,28.394000000000005 264.39999999999964,28.315000000000055 C264.5,28.236999999999966 264.5,28.162000000000035 264.60000000000036,28.089000000000055 C264.60000000000036,28.015999999999963 264.7000000000007,27.951000000000022 264.7000000000007,27.894000000000005 C264.7999999999993,27.836000000000013 264.7999999999993,27.775999999999954 264.89999999999964,27.714000000000055 C265.0,27.650999999999954 265.10000000000036,27.599000000000046 265.2000000000007,27.557999999999993 C265.2000000000007,27.515999999999963 265.2999999999993,27.46900000000005 265.39999999999964,27.41700000000003 C265.60000000000036,27.36500000000001 265.7000000000007,27.32299999999998 265.7000000000007,27.29200000000003 C265.7999999999993,27.260999999999967 265.89999999999964,27.216000000000008 266.10000000000036,27.158999999999992 C266.2000000000007,27.101999999999975 266.2999999999993,27.057999999999993 266.39999999999964,27.025999999999954 L266.39999999999964,26.54200000000003 C266.39999999999964,26.104000000000042 266.2000000000007,25.885999999999967 265.7999999999993,25.885999999999967 C265.60000000000036,25.885999999999967 265.5,25.924999999999955 265.39999999999964,26.003000000000043 C265.2999999999993,26.081000000000017 265.2000000000007,26.172000000000025 265.2000000000007,26.275999999999954 C265.2000000000007,26.317999999999984 265.2000000000007,26.375 265.2000000000007,26.44799999999998 C265.2000000000007,26.520999999999958 265.2999999999993,26.567999999999984 265.2999999999993,26.589000000000055 C265.2999999999993,26.682999999999993 265.2000000000007,26.763000000000034 265.10000000000036,26.831000000000017 C265.10000000000036,26.899 265.0,26.932999999999993 264.89999999999964,26.932999999999993 C264.7999999999993,26.932999999999993 264.7000000000007,26.899 264.60000000000036,26.831000000000017 C264.60000000000036,26.763000000000034 264.5,26.682999999999993 264.5,26.589000000000055 C264.5,26.339000000000055 264.7000000000007,26.128000000000043 264.89999999999964,25.956000000000017 C265.2000000000007,25.783999999999992 265.5,25.69799999999998 265.89999999999964,25.69799999999998 C266.2999999999993,25.69799999999998 266.60000000000036,25.80200000000002 266.7999999999993,26.010999999999967 C266.89999999999964,26.21900000000005 267.0,26.537000000000035 267.0,26.964000000000055 L267.0,28.510999999999967 C267.0,28.687999999999988 267.0,28.809999999999945 267.10000000000036,28.878000000000043 C267.10000000000036,28.946000000000026 267.2000000000007,28.979000000000042 267.2999999999993,28.979000000000042 C267.39999999999964,28.979000000000042 267.5,28.92700000000002 267.60000000000036,28.82299999999998 L267.60000000000036,29.04200000000003 C267.5,29.19799999999998 267.2999999999993,29.30499999999995 267.2000000000007,29.361999999999966 C267.10000000000036,29.41999999999996 267.0,29.44799999999998 266.89999999999964,29.44799999999998 C266.7000000000007,29.44799999999998 266.60000000000036,29.400999999999954 266.5,29.307999999999993 C266.5,29.214000000000055 266.39999999999964,29.062999999999988 266.39999999999964,28.854000000000042 C265.89999999999964,29.25 265.60000000000036,29.44799999999998 265.2000000000007,29.44799999999998 C265.0,29.44799999999998 264.7999999999993,29.366999999999962 264.60000000000036,29.206000000000017 C264.5,29.04499999999996 264.39999999999964,28.833999999999946 264.39999999999964,28.57299999999998 M266.39999999999964,28.370000000000005 L266.39999999999964,27.214000000000055 C265.89999999999964,27.390999999999963 265.60000000000036,27.562999999999988 265.39999999999964,27.729000000000042 C265.2000000000007,27.895999999999958 265.10000000000036,28.09400000000005 265.10000000000036,28.32299999999998 C265.10000000000036,28.54200000000003 265.2000000000007,28.702999999999975 265.2999999999993,28.807999999999993 C265.39999999999964,28.912000000000035 265.5,28.964000000000055 265.60000000000036,28.964000000000055 C265.7999999999993,28.964000000000055 266.0,28.90700000000004 266.2000000000007,28.79200000000003 C266.2999999999993,28.74000000000001 266.2999999999993,28.687999999999988 266.2999999999993,28.635999999999967 C266.39999999999964,28.583999999999946 266.39999999999964,28.495000000000005 266.39999999999964,28.370000000000005 M270.10000000000036,26.44799999999998 C270.0,26.44799999999998 269.89999999999964,26.400999999999954 269.7999999999993,26.307999999999993 C269.60000000000036,26.214000000000055 269.60000000000036,26.16700000000003 269.5,26.16700000000003 C269.39999999999964,26.16700000000003 269.2999999999993,26.245000000000005 269.2000000000007,26.400999999999954 C269.0,26.557999999999993 269.0,26.702999999999975 269.0,26.839000000000055 L269.0,28.650999999999954 C269.0,28.879999999999995 269.0,29.033999999999992 269.10000000000036,29.111999999999966 C269.2000000000007,29.190000000000055 269.39999999999964,29.235000000000014 269.60000000000036,29.245000000000005 L269.60000000000036,29.370000000000005 L267.7000000000007,29.370000000000005 L267.7000000000007,29.245000000000005 C268.0,29.202999999999975 268.10000000000036,29.150999999999954 268.2000000000007,29.089000000000055 C268.2999999999993,29.025999999999954 268.2999999999993,28.895999999999958 268.2999999999993,28.69799999999998 L268.2999999999993,26.682999999999993 C268.2999999999993,26.504999999999995 268.2999999999993,26.379999999999995 268.2000000000007,26.307999999999993 C268.2000000000007,26.235000000000014 268.10000000000036,26.19799999999998 268.0,26.19799999999998 C267.89999999999964,26.19799999999998 267.7999999999993,26.208999999999946 267.7000000000007,26.229000000000042 L267.7000000000007,26.104000000000042 C268.2000000000007,25.96900000000005 268.60000000000036,25.833999999999946 268.89999999999964,25.69799999999998 L269.0,25.714000000000055 L269.0,26.41700000000003 C269.2000000000007,26.145999999999958 269.2999999999993,25.958999999999946 269.5,25.854000000000042 C269.60000000000036,25.75 269.7999999999993,25.69799999999998 269.89999999999964,25.69799999999998 C270.10000000000036,25.69799999999998 270.2000000000007,25.73199999999997 270.2999999999993,25.799999999999955 C270.2999999999993,25.866999999999962 270.39999999999964,25.96900000000005 270.39999999999964,26.104000000000042 C270.39999999999964,26.208999999999946 270.2999999999993,26.29200000000003 270.2999999999993,26.354000000000042 C270.2000000000007,26.41700000000003 270.2000000000007,26.44799999999998 270.10000000000036,26.44799999999998 M273.10000000000036,24.729000000000042 C273.0,24.729000000000042 272.89999999999964,24.69799999999998 272.7999999999993,24.635999999999967 C272.7999999999993,24.57299999999998 272.7000000000007,24.504999999999995 272.7000000000007,24.432999999999993 C272.7000000000007,24.360000000000014 272.60000000000036,24.29200000000003 272.5,24.229000000000042 C272.5,24.16700000000003 272.39999999999964,24.135999999999967 272.2999999999993,24.135999999999967 C272.0,24.135999999999967 271.7999999999993,24.370000000000005 271.7999999999993,24.839000000000055 L271.7999999999993,25.775999999999954 L272.7999999999993,25.775999999999954 L272.7999999999993,26.010999999999967 L271.7999999999993,26.010999999999967 L271.7999999999993,28.54200000000003 C271.7999999999993,28.833999999999946 271.89999999999964,29.020999999999958 271.89999999999964,29.104000000000042 C272.0,29.187999999999988 272.2000000000007,29.235000000000014 272.60000000000036,29.245000000000005 L272.60000000000036,29.370000000000005 L270.5,29.370000000000005 L270.5,29.245000000000005 C270.7999999999993,29.235000000000014 271.0,29.187999999999988 271.0,29.104000000000042 C271.10000000000036,29.020999999999958 271.10000000000036,28.833999999999946 271.10000000000036,28.54200000000003 L271.10000000000036,26.010999999999967 L270.5,26.010999999999967 L270.5,25.775999999999954 L271.10000000000036,25.775999999999954 C271.2000000000007,25.172000000000025 271.2999999999993,24.706000000000017 271.5,24.378000000000043 C271.7000000000007,24.049999999999955 272.10000000000036,23.885999999999967 272.60000000000036,23.885999999999967 C272.7999999999993,23.885999999999967 273.0,23.934999999999945 273.10000000000036,24.033999999999992 C273.2999999999993,24.133000000000038 273.39999999999964,24.254999999999995 273.39999999999964,24.400999999999954 C273.39999999999964,24.495000000000005 273.39999999999964,24.57299999999998 273.2999999999993,24.635999999999967 C273.2000000000007,24.69799999999998 273.10000000000036,24.729000000000042 273.10000000000036,24.729000000000042 M280.7999999999993,24.79200000000003 L278.7000000000007,29.370000000000005 L278.60000000000036,29.370000000000005 L276.60000000000036,24.979000000000042 L276.60000000000036,28.19799999999998 C276.60000000000036,28.604000000000042 276.60000000000036,28.873000000000047 276.7000000000007,29.003000000000043 C276.7999999999993,29.133000000000038 277.0,29.202999999999975 277.39999999999964,29.214000000000055 L277.39999999999964,29.370000000000005 L275.5,29.370000000000005 L275.5,29.214000000000055 C275.7999999999993,29.192999999999984 276.0,29.120000000000005 276.10000000000036,28.995000000000005 C276.2000000000007,28.870000000000005 276.2000000000007,28.604000000000042 276.2000000000007,28.19799999999998 L276.2000000000007,24.94799999999998 C276.2000000000007,24.65700000000004 276.2000000000007,24.46900000000005 276.10000000000036,24.385999999999967 C276.0,24.30200000000002 275.7999999999993,24.25 275.5,24.229000000000042 L275.5,24.07299999999998 L277.10000000000036,24.07299999999998 L278.89999999999964,28.120000000000005 L280.7000000000007,24.07299999999998 L282.2999999999993,24.07299999999998 L282.2999999999993,24.229000000000042 C282.0,24.260999999999967 281.7999999999993,24.317999999999984 281.7000000000007,24.400999999999954 C281.60000000000036,24.485000000000014 281.60000000000036,24.66700000000003 281.60000000000036,24.94799999999998 L281.60000000000036,28.495000000000005 C281.60000000000036,28.775999999999954 281.60000000000036,28.961000000000013 281.7000000000007,29.049999999999955 C281.7999999999993,29.138000000000034 282.0,29.192999999999984 282.2999999999993,29.214000000000055 L282.2999999999993,29.370000000000005 L280.0,29.370000000000005 L280.0,29.214000000000055 C280.39999999999964,29.192999999999984 280.5,29.135999999999967 280.60000000000036,29.04200000000003 C280.7000000000007,28.94799999999998 280.7999999999993,28.74000000000001 280.7999999999993,28.41700000000003 L280.7999999999993,24.79200000000003 M286.2000000000007,28.94799999999998 L286.2000000000007,29.07299999999998 C285.7999999999993,29.187999999999988 285.5,29.312999999999988 285.10000000000036,29.44799999999998 L285.10000000000036,29.432999999999993 L285.10000000000036,28.745000000000005 C285.10000000000036,28.765999999999963 285.0,28.815000000000055 285.0,28.894000000000005 C284.89999999999964,28.97199999999998 284.7999999999993,29.025999999999954 284.7999999999993,29.057999999999993 C284.7999999999993,29.089000000000055 284.7000000000007,29.135999999999967 284.60000000000036,29.19799999999998 C284.60000000000036,29.260999999999967 284.5,29.30499999999995 284.39999999999964,29.331000000000017 C284.39999999999964,29.35699999999997 284.2999999999993,29.383000000000038 284.2000000000007,29.408999999999992 C284.10000000000036,29.434999999999945 284.0,29.44799999999998 283.89999999999964,29.44799999999998 C283.7000000000007,29.44799999999998 283.39999999999964,29.351999999999975 283.2000000000007,29.158999999999992 C283.10000000000036,28.966000000000008 283.0,28.714000000000055 283.0,28.400999999999954 L283.0,26.385999999999967 C283.0,26.208999999999946 282.89999999999964,26.083999999999946 282.89999999999964,26.010999999999967 C282.7999999999993,25.937999999999988 282.7000000000007,25.895999999999958 282.5,25.885999999999967 L282.5,25.775999999999954 L283.60000000000036,25.775999999999954 L283.60000000000036,28.370000000000005 C283.60000000000036,28.525999999999954 283.7000000000007,28.663999999999987 283.7999999999993,28.783999999999992 C283.89999999999964,28.903999999999996 284.10000000000036,28.964000000000055 284.2000000000007,28.964000000000055 C284.2999999999993,28.964000000000055 284.2999999999993,28.956000000000017 284.39999999999964,28.940000000000055 C284.5,28.924999999999955 284.60000000000036,28.895999999999958 284.7000000000007,28.854000000000042 C284.7999999999993,28.812999999999988 284.89999999999964,28.741999999999962 285.0,28.644000000000005 C285.0,28.54499999999996 285.10000000000036,28.422000000000025 285.10000000000036,28.275999999999954 L285.10000000000036,26.400999999999954 C285.10000000000036,26.214000000000055 285.0,26.086000000000013 285.0,26.019000000000005 C284.89999999999964,25.951000000000022 284.7000000000007,25.912000000000035 284.5,25.900999999999954 L284.5,25.775999999999954 L285.7000000000007,25.775999999999954 L285.7000000000007,28.495000000000005 C285.7000000000007,28.682999999999993 285.7999999999993,28.80499999999995 285.7999999999993,28.861999999999966 C285.89999999999964,28.91999999999996 286.0,28.94799999999998 286.2000000000007,28.94799999999998 L286.2000000000007,28.94799999999998 M288.39999999999964,25.854000000000042 C288.5,25.854000000000042 288.5,25.827999999999975 288.60000000000036,25.775999999999954 L288.7000000000007,25.775999999999954 L288.7000000000007,26.854000000000042 L288.60000000000036,26.854000000000042 C288.5,26.5 288.39999999999964,26.248000000000047 288.2000000000007,26.09699999999998 C288.10000000000036,25.946000000000026 287.89999999999964,25.870000000000005 287.7000000000007,25.870000000000005 C287.5,25.870000000000005 287.39999999999964,25.922000000000025 287.2999999999993,26.025999999999954 C287.10000000000036,26.129999999999995 287.10000000000036,26.260999999999967 287.10000000000036,26.41700000000003 C287.10000000000036,26.645999999999958 287.2000000000007,26.827999999999975 287.39999999999964,26.964000000000055 L288.2999999999993,27.479000000000042 C288.5,27.625 288.7000000000007,27.770999999999958 288.7999999999993,27.91700000000003 C288.89999999999964,28.062999999999988 289.0,28.235000000000014 289.0,28.432999999999993 C289.0,28.702999999999975 288.7999999999993,28.940000000000055 288.60000000000036,29.144000000000005 C288.39999999999964,29.34699999999998 288.10000000000036,29.44799999999998 287.7999999999993,29.44799999999998 C287.7000000000007,29.44799999999998 287.5,29.424999999999955 287.2999999999993,29.378000000000043 C287.10000000000036,29.331000000000017 286.89999999999964,29.307999999999993 286.89999999999964,29.307999999999993 C286.7999999999993,29.307999999999993 286.7000000000007,29.339000000000055 286.7000000000007,29.400999999999954 L286.60000000000036,29.400999999999954 L286.60000000000036,28.150999999999954 L286.7000000000007,28.150999999999954 C286.7999999999993,28.525999999999954 286.89999999999964,28.79200000000003 287.0,28.94799999999998 C287.2000000000007,29.16700000000003 287.39999999999964,29.275999999999954 287.7000000000007,29.275999999999954 C287.89999999999964,29.275999999999954 288.10000000000036,29.224000000000046 288.2000000000007,29.120000000000005 C288.2999999999993,29.015999999999963 288.39999999999964,28.875 288.39999999999964,28.69799999999998 C288.39999999999964,28.458999999999946 288.2999999999993,28.260999999999967 288.0,28.104000000000042 L287.5,27.839000000000055 C287.2000000000007,27.640999999999963 286.89999999999964,27.456000000000017 286.7999999999993,27.283999999999992 C286.7000000000007,27.111999999999966 286.60000000000036,26.912000000000035 286.60000000000036,26.682999999999993 C286.60000000000036,26.390999999999963 286.7000000000007,26.153999999999996 286.89999999999964,25.97199999999998 C287.10000000000036,25.788999999999987 287.39999999999964,25.69799999999998 287.7000000000007,25.69799999999998 C287.7999999999993,25.69799999999998 288.0,25.724000000000046 288.2000000000007,25.775999999999954 C288.2999999999993,25.827999999999975 288.39999999999964,25.854000000000042 288.39999999999964,25.854000000000042 M289.7000000000007,26.229000000000042 C289.60000000000036,26.229000000000042 289.5,26.235000000000014 289.39999999999964,26.245000000000005 L289.39999999999964,26.135999999999967 C289.7999999999993,26.03200000000004 290.2000000000007,25.885999999999967 290.60000000000036,25.69799999999998 L290.7000000000007,25.714000000000055 L290.7000000000007,28.557999999999993 C290.7000000000007,28.839000000000055 290.7000000000007,29.019000000000005 290.7999999999993,29.09699999999998 C290.7999999999993,29.174999999999955 291.0,29.224000000000046 291.2999999999993,29.245000000000005 L291.2999999999993,29.370000000000005 L289.39999999999964,29.370000000000005 L289.39999999999964,29.245000000000005 C289.60000000000036,29.235000000000014 289.7999999999993,29.187999999999988 289.89999999999964,29.104000000000042 C290.0,29.020999999999958 290.0,28.839000000000055 290.0,28.557999999999993 L290.0,26.69799999999998 C290.0,26.520999999999958 290.0,26.399 289.89999999999964,26.331000000000017 C289.89999999999964,26.263000000000034 289.7999999999993,26.229000000000042 289.7000000000007,26.229000000000042 M290.2999999999993,23.900999999999954 C290.39999999999964,23.900999999999954 290.5,23.942999999999984 290.60000000000036,24.025999999999954 C290.60000000000036,24.110000000000014 290.7000000000007,24.208999999999946 290.7000000000007,24.32299999999998 C290.7000000000007,24.437999999999988 290.60000000000036,24.533999999999992 290.60000000000036,24.611999999999966 C290.5,24.690000000000055 290.39999999999964,24.729000000000042 290.2999999999993,24.729000000000042 C290.10000000000036,24.729000000000042 290.0,24.687999999999988 290.0,24.604000000000042 C289.89999999999964,24.520999999999958 289.89999999999964,24.424999999999955 289.89999999999964,24.315000000000055 C289.89999999999964,24.206000000000017 289.89999999999964,24.110000000000014 290.0,24.025999999999954 C290.0,23.942999999999984 290.10000000000036,23.900999999999954 290.2999999999993,23.900999999999954 M291.60000000000036,27.66700000000003 C291.60000000000036,27.07299999999998 291.7999999999993,26.59699999999998 292.2000000000007,26.236999999999966 C292.5,25.878000000000043 292.89999999999964,25.69799999999998 293.39999999999964,25.69799999999998 C293.7000000000007,25.69799999999998 294.0,25.778999999999996 294.2000000000007,25.940000000000055 C294.5,26.101999999999975 294.60000000000036,26.297000000000025 294.60000000000036,26.525999999999954 C294.60000000000036,26.610000000000014 294.60000000000036,26.684999999999945 294.5,26.753000000000043 C294.39999999999964,26.821000000000026 294.2999999999993,26.854000000000042 294.2000000000007,26.854000000000042 C294.0,26.854000000000042 293.89999999999964,26.735000000000014 293.89999999999964,26.495000000000005 L293.7999999999993,26.32299999999998 C293.7999999999993,26.16700000000003 293.7000000000007,26.062999999999988 293.7000000000007,26.010999999999967 C293.60000000000036,25.958999999999946 293.5,25.932999999999993 293.39999999999964,25.932999999999993 C293.0,25.932999999999993 292.7999999999993,26.059999999999945 292.60000000000036,26.315000000000055 C292.39999999999964,26.571000000000026 292.2999999999993,26.90700000000004 292.2999999999993,27.32299999999998 C292.2999999999993,27.770999999999958 292.39999999999964,28.140999999999963 292.60000000000036,28.432999999999993 C292.7999999999993,28.724000000000046 293.10000000000036,28.870000000000005 293.5,28.870000000000005 C293.7000000000007,28.870000000000005 293.89999999999964,28.812999999999988 294.10000000000036,28.69799999999998 C294.2000000000007,28.583999999999946 294.39999999999964,28.390999999999963 294.60000000000036,28.120000000000005 L294.7000000000007,28.182999999999993 C294.7000000000007,28.297000000000025 294.60000000000036,28.388000000000034 294.60000000000036,28.456000000000017 C294.5,28.524 294.5,28.628000000000043 294.39999999999964,28.769000000000005 C294.2999999999993,28.908999999999992 294.2000000000007,29.020999999999958 294.10000000000036,29.104000000000042 C294.0,29.187999999999988 293.7999999999993,29.265999999999963 293.7000000000007,29.339000000000055 C293.5,29.412000000000035 293.2999999999993,29.44799999999998 293.2000000000007,29.44799999999998 C292.7000000000007,29.44799999999998 292.39999999999964,29.28200000000004 292.10000000000036,28.94799999999998 C291.7999999999993,28.61500000000001 291.60000000000036,28.187999999999988 291.60000000000036,27.66700000000003 M296.0,28.57299999999998 C296.10000000000036,28.57299999999998 296.2000000000007,28.616999999999962 296.2999999999993,28.706000000000017 C296.39999999999964,28.79499999999996 296.39999999999964,28.900999999999954 296.39999999999964,29.025999999999954 C296.39999999999964,29.140999999999963 296.39999999999964,29.241999999999962 296.2999999999993,29.331000000000017 C296.2000000000007,29.41999999999996 296.10000000000036,29.464000000000055 296.0,29.464000000000055 C295.89999999999964,29.464000000000055 295.7999999999993,29.41999999999996 295.7000000000007,29.331000000000017 C295.60000000000036,29.241999999999962 295.60000000000036,29.140999999999963 295.60000000000036,29.025999999999954 C295.60000000000036,28.900999999999954 295.60000000000036,28.79499999999996 295.7000000000007,28.706000000000017 C295.7999999999993,28.616999999999962 295.89999999999964,28.57299999999998 296.0,28.57299999999998" />
</svg>
