<?xml version="1.0" encoding="UTF-8" standalone="yes"?>
<svg width="256.0px" height="256.0px" xmlns="http://www.w3.org/2000/svg" xmlns:xlink="http://www.w3.org/1999/xlink" version="1.2" baseProfile="tiny">
<path d="M190.28000000000065,24.635999999999967 C190.1800000000003,24.635999999999967 189.97999999999956,24.692999999999984 189.70000000000073,24.807999999999993 L189.70000000000073,24.69799999999998 L191.1200000000008,23.964000000000055 L191.1900000000005,23.979000000000042 L191.1900000000005,28.775999999999954 C191.1900000000005,28.974000000000046 191.23999999999978,29.101999999999975 191.32999999999993,29.158999999999992 C191.4300000000003,29.216000000000008 191.63999999999942,29.245000000000005 191.95000000000073,29.245000000000005 L191.95000000000073,29.370000000000005 L189.75,29.370000000000005 L189.75,29.245000000000005 C190.04999999999927,29.235000000000014 190.25,29.190000000000055 190.36000000000058,29.111999999999966 C190.45999999999913,29.033999999999992 190.51000000000022,28.870000000000005 190.51000000000022,28.620000000000005 L190.51000000000022,25.010999999999967 C190.51000000000022,24.760999999999967 190.4400000000005,24.635999999999967 190.28000000000065,24.635999999999967 M195.65999999999985,27.79200000000003 C195.65999999999985,27.510999999999967 195.59000000000015,27.260999999999967 195.46999999999935,27.04200000000003 C195.34000000000015,26.82299999999998 195.1900000000005,26.650999999999954 195.01000000000022,26.525999999999954 C194.8199999999997,26.400999999999954 194.6200000000008,26.30200000000002 194.40999999999985,26.229000000000042 C194.1900000000005,26.15700000000004 194.0,26.10699999999997 193.82999999999993,26.081000000000017 C193.67000000000007,26.05499999999995 193.53000000000065,26.04200000000003 193.40999999999985,26.04200000000003 C193.34000000000015,26.04200000000003 193.3099999999995,26.020999999999958 193.3099999999995,25.979000000000042 C193.3099999999995,25.958999999999946 193.3099999999995,25.942999999999984 193.3099999999995,25.932999999999993 L194.1900000000005,24.07299999999998 L195.86000000000058,24.07299999999998 C195.9400000000005,24.07299999999998 196.01000000000022,24.059999999999945 196.0599999999995,24.033999999999992 C196.11000000000058,24.008000000000038 196.17000000000007,23.952999999999975 196.22999999999956,23.870000000000005 L196.29999999999927,23.932999999999993 L196.0,24.589000000000055 C195.97999999999956,24.640999999999963 195.92000000000007,24.66700000000003 195.8099999999995,24.66700000000003 L194.25,24.66700000000003 L193.90999999999985,25.339000000000055 C194.6900000000005,25.485000000000014 195.27000000000044,25.714000000000055 195.64999999999964,26.025999999999954 C196.03000000000065,26.339000000000055 196.21999999999935,26.80200000000002 196.21999999999935,27.41700000000003 C196.21999999999935,27.729000000000042 196.17000000000007,28.010999999999967 196.0699999999997,28.260999999999967 C195.96999999999935,28.510999999999967 195.84000000000015,28.711000000000013 195.6900000000005,28.861999999999966 C195.53000000000065,29.013000000000034 195.35000000000036,29.135999999999967 195.15999999999985,29.229000000000042 C194.95999999999913,29.32299999999998 194.77000000000044,29.388000000000034 194.57999999999993,29.424999999999955 C194.39999999999964,29.461000000000013 194.21999999999935,29.479000000000042 194.03000000000065,29.479000000000042 C193.72999999999956,29.479000000000042 193.48999999999978,29.434999999999945 193.3099999999995,29.34699999999998 C193.1299999999992,29.258000000000038 193.04999999999927,29.135999999999967 193.04999999999927,28.979000000000042 C193.04999999999927,28.78200000000004 193.15999999999985,28.682999999999993 193.38999999999942,28.682999999999993 C193.54999999999927,28.682999999999993 193.73999999999978,28.765999999999963 193.97999999999956,28.932999999999993 C194.20999999999913,29.099000000000046 194.39999999999964,29.182999999999993 194.54999999999927,29.182999999999993 C194.86000000000058,29.182999999999993 195.1200000000008,29.049999999999955 195.32999999999993,28.783999999999992 C195.54999999999927,28.519000000000005 195.65999999999985,28.187999999999988 195.65999999999985,27.79200000000003" />
<path d="M254.95000000000073,24.635999999999967 C254.84000000000015,24.635999999999967 254.64999999999964,24.692999999999984 254.3700000000008,24.807999999999993 L254.3700000000008,24.69799999999998 L255.79000000000087,23.964000000000055 L255.85000000000036,23.979000000000042 L255.85000000000036,28.775999999999954 C255.85000000000036,28.974000000000046 255.89999999999964,29.101999999999975 256.0,29.158999999999992 C256.10000000000036,29.216000000000008 256.3099999999995,29.245000000000005 256.6200000000008,29.245000000000005 L256.6200000000008,29.370000000000005 L254.42000000000007,29.370000000000005 L254.42000000000007,29.245000000000005 C254.71999999999935,29.235000000000014 254.92000000000007,29.190000000000055 255.02000000000044,29.111999999999966 C255.1299999999992,29.033999999999992 255.1800000000003,28.870000000000005 255.1800000000003,28.620000000000005 L255.1800000000003,25.010999999999967 C255.1800000000003,24.760999999999967 255.10000000000036,24.635999999999967 254.95000000000073,24.635999999999967 M259.52000000000044,29.479000000000042 C258.97999999999956,29.479000000000042 258.5499999999993,29.265999999999963 258.21999999999935,28.839000000000055 C257.8899999999994,28.412000000000035 257.72999999999956,27.84400000000005 257.72999999999956,27.135999999999967 C257.72999999999956,26.91700000000003 257.75,26.692999999999984 257.7999999999993,26.464000000000055 C257.84000000000015,26.235000000000014 257.9400000000005,25.97199999999998 258.0799999999999,25.674999999999955 C258.21999999999935,25.378000000000043 258.40999999999985,25.111999999999966 258.6399999999994,24.878000000000043 C258.8799999999992,24.644000000000005 259.2000000000007,24.434999999999945 259.6100000000006,24.253000000000043 C260.02000000000044,24.071000000000026 260.5,23.952999999999975 261.0400000000009,23.900999999999954 L261.0599999999995,24.025999999999954 C260.4200000000001,24.129999999999995 259.8899999999994,24.385999999999967 259.46999999999935,24.79200000000003 C259.0499999999993,25.19799999999998 258.78000000000065,25.702999999999975 258.6700000000001,26.307999999999993 C258.9200000000001,26.162000000000035 259.1100000000006,26.067999999999984 259.2399999999998,26.025999999999954 C259.3700000000008,25.985000000000014 259.52000000000044,25.964000000000055 259.7000000000007,25.964000000000055 C260.1700000000001,25.964000000000055 260.5400000000009,26.111999999999966 260.8099999999995,26.408999999999992 C261.09000000000015,26.706000000000017 261.22999999999956,27.104000000000042 261.22999999999956,27.604000000000042 C261.22999999999956,28.15700000000004 261.0699999999997,28.60699999999997 260.75,28.956000000000017 C260.4300000000003,29.30499999999995 260.02000000000044,29.479000000000042 259.52000000000044,29.479000000000042 M259.39999999999964,26.32299999999998 C259.03000000000065,26.32299999999998 258.7900000000009,26.400999999999954 258.65999999999985,26.557999999999993 C258.53000000000065,26.714000000000055 258.4599999999991,26.94799999999998 258.4599999999991,27.260999999999967 C258.4599999999991,27.875 258.5699999999997,28.360000000000014 258.77000000000044,28.714000000000055 C258.97999999999956,29.067999999999984 259.2600000000002,29.245000000000005 259.60000000000036,29.245000000000005 C259.8899999999994,29.245000000000005 260.1100000000006,29.128000000000043 260.2600000000002,28.894000000000005 C260.39999999999964,28.658999999999992 260.47999999999956,28.32299999999998 260.47999999999956,27.885999999999967 C260.47999999999956,27.385999999999967 260.3799999999992,27.0 260.2000000000007,26.729000000000042 C260.0100000000002,26.458999999999946 259.7399999999998,26.32299999999998 259.39999999999964,26.32299999999998" />
</svg>
