<?xml version="1.0" encoding="UTF-8" standalone="yes"?>
<svg width="256.0px" height="256.0px" xmlns="http://www.w3.org/2000/svg" xmlns:xlink="http://www.w3.org/1999/xlink" version="1.2" baseProfile="tiny">
<path d="M124.70000000000073,30.79200000000003 C124.60000000000036,30.69799999999998 124.5,30.591000000000008 124.29999999999927,30.47199999999998 C124.20000000000073,30.351999999999975 124.0,30.184999999999945 123.79999999999927,29.97199999999998 C123.60000000000036,29.758000000000038 123.5,29.53200000000004 123.29999999999927,29.29200000000003 C123.20000000000073,29.05200000000002 123.0,28.760999999999967 122.89999999999964,28.41700000000003 C122.89999999999964,28.07299999999998 122.79999999999927,27.71900000000005 122.79999999999927,27.354000000000042 C122.79999999999927,26.96900000000005 122.89999999999964,26.604000000000042 122.89999999999964,26.260999999999967 C123.0,25.91700000000003 123.20000000000073,25.633000000000038 123.29999999999927,25.408999999999992 C123.39999999999964,25.184999999999945 123.60000000000036,24.966000000000008 123.79999999999927,24.753000000000043 C124.0,24.538999999999987 124.20000000000073,24.383000000000038 124.29999999999927,24.283999999999992 C124.39999999999964,24.184999999999945 124.60000000000036,24.077999999999975 124.79999999999927,23.964000000000055 L124.79999999999927,24.089000000000055 C124.60000000000036,24.287000000000035 124.39999999999964,24.461000000000013 124.29999999999927,24.611999999999966 C124.10000000000036,24.763000000000034 124.0,24.964000000000055 123.89999999999964,25.214000000000055 C123.70000000000073,25.464000000000055 123.60000000000036,25.760999999999967 123.60000000000036,26.104000000000042 C123.5,26.44799999999998 123.5,26.860000000000014 123.5,27.339000000000055 C123.5,27.827999999999975 123.5,28.253000000000043 123.60000000000036,28.611999999999966 C123.60000000000036,28.97199999999998 123.70000000000073,29.275999999999954 123.89999999999964,29.525999999999954 C124.0,29.775999999999954 124.10000000000036,29.98199999999997 124.29999999999927,30.144000000000005 C124.39999999999964,30.30499999999995 124.60000000000036,30.474000000000046 124.79999999999927,30.650999999999954 L124.70000000000073,30.79200000000003 M125.29999999999927,27.66700000000003 C125.29999999999927,27.07299999999998 125.39999999999964,26.59699999999998 125.79999999999927,26.236999999999966 C126.10000000000036,25.878000000000043 126.60000000000036,25.69799999999998 127.0,25.69799999999998 C127.39999999999964,25.69799999999998 127.60000000000036,25.778999999999996 127.89999999999964,25.940000000000055 C128.10000000000036,26.101999999999975 128.20000000000073,26.297000000000025 128.20000000000073,26.525999999999954 C128.20000000000073,26.610000000000014 128.20000000000073,26.684999999999945 128.10000000000036,26.753000000000043 C128.0,26.821000000000026 128.0,26.854000000000042 127.89999999999964,26.854000000000042 C127.70000000000073,26.854000000000042 127.60000000000036,26.735000000000014 127.5,26.495000000000005 L127.39999999999964,26.32299999999998 C127.39999999999964,26.16700000000003 127.39999999999964,26.062999999999988 127.29999999999927,26.010999999999967 C127.20000000000073,25.958999999999946 127.10000000000036,25.932999999999993 127.0,25.932999999999993 C126.70000000000073,25.932999999999993 126.39999999999964,26.059999999999945 126.20000000000073,26.315000000000055 C126.0,26.571000000000026 125.89999999999964,26.90700000000004 125.89999999999964,27.32299999999998 C125.89999999999964,27.770999999999958 126.0,28.140999999999963 126.20000000000073,28.432999999999993 C126.5,28.724000000000046 126.79999999999927,28.870000000000005 127.10000000000036,28.870000000000005 C127.39999999999964,28.870000000000005 127.5,28.812999999999988 127.70000000000073,28.69799999999998 C127.89999999999964,28.583999999999946 128.0,28.390999999999963 128.20000000000073,28.120000000000005 L128.29999999999927,28.182999999999993 C128.29999999999927,28.297000000000025 128.20000000000073,28.388000000000034 128.20000000000073,28.456000000000017 C128.20000000000073,28.524 128.10000000000036,28.628000000000043 128.0,28.769000000000005 C127.89999999999964,28.908999999999992 127.79999999999927,29.020999999999958 127.70000000000073,29.104000000000042 C127.60000000000036,29.187999999999988 127.5,29.265999999999963 127.29999999999927,29.339000000000055 C127.10000000000036,29.412000000000035 127.0,29.44799999999998 126.79999999999927,29.44799999999998 C126.39999999999964,29.44799999999998 126.0,29.28200000000004 125.70000000000073,28.94799999999998 C125.39999999999964,28.61500000000001 125.29999999999927,28.187999999999988 125.29999999999927,27.66700000000003 M128.89999999999964,23.964000000000055 C129.10000000000036,24.047000000000025 129.20000000000073,24.149 129.39999999999964,24.269000000000005 C129.5,24.388000000000034 129.70000000000073,24.55499999999995 129.89999999999964,24.769000000000005 C130.10000000000036,24.98199999999997 130.29999999999927,25.211000000000013 130.39999999999964,25.456000000000017 C130.5,25.701000000000022 130.70000000000073,25.991999999999962 130.79999999999927,26.331000000000017 C130.89999999999964,26.66999999999996 130.89999999999964,27.025999999999954 130.89999999999964,27.400999999999954 C130.89999999999964,27.775999999999954 130.89999999999964,28.135999999999967 130.79999999999927,28.479000000000042 C130.70000000000073,28.82299999999998 130.5,29.110000000000014 130.39999999999964,29.339000000000055 C130.29999999999927,29.567999999999984 130.10000000000036,29.787000000000035 129.89999999999964,29.995000000000005 C129.70000000000073,30.202999999999975 129.5,30.360000000000014 129.39999999999964,30.464000000000055 C129.29999999999927,30.567999999999984 129.10000000000036,30.67700000000002 128.89999999999964,30.79200000000003 L128.89999999999964,30.650999999999954 C129.10000000000036,30.464000000000055 129.29999999999927,30.29200000000003 129.39999999999964,30.135999999999967 C129.60000000000036,29.979000000000042 129.70000000000073,29.778999999999996 129.79999999999927,29.533999999999992 C130.0,29.288999999999987 130.10000000000036,28.995000000000005 130.10000000000036,28.650999999999954 C130.20000000000073,28.307999999999993 130.20000000000073,27.895999999999958 130.20000000000073,27.41700000000003 C130.20000000000073,26.92700000000002 130.20000000000073,26.503000000000043 130.10000000000036,26.144000000000005 C130.10000000000036,25.783999999999992 130.0,25.476999999999975 129.79999999999927,25.22199999999998 C129.70000000000073,24.966000000000008 129.60000000000036,24.760999999999967 129.39999999999964,24.604000000000042 C129.29999999999927,24.44799999999998 129.10000000000036,24.275999999999954 128.89999999999964,24.089000000000055 L128.89999999999964,23.964000000000055 M134.70000000000073,24.635999999999967 C134.60000000000036,24.635999999999967 134.39999999999964,24.692999999999984 134.10000000000036,24.807999999999993 L134.10000000000036,24.69799999999998 L135.60000000000036,23.964000000000055 L135.60000000000036,23.979000000000042 L135.60000000000036,28.775999999999954 C135.60000000000036,28.974000000000046 135.70000000000073,29.101999999999975 135.79999999999927,29.158999999999992 C135.89999999999964,29.216000000000008 136.10000000000036,29.245000000000005 136.39999999999964,29.245000000000005 L136.39999999999964,29.370000000000005 L134.20000000000073,29.370000000000005 L134.20000000000073,29.245000000000005 C134.5,29.235000000000014 134.70000000000073,29.190000000000055 134.79999999999927,29.111999999999966 C134.89999999999964,29.033999999999992 135.0,28.870000000000005 135.0,28.620000000000005 L135.0,25.010999999999967 C135.0,24.760999999999967 134.89999999999964,24.635999999999967 134.70000000000073,24.635999999999967 M137.70000000000073,29.54200000000003 L137.70000000000073,29.385999999999967 C138.29999999999927,29.28200000000004 138.79999999999927,29.024 139.20000000000073,28.611999999999966 C139.70000000000073,28.201000000000022 140.0,27.66700000000003 140.10000000000036,27.010999999999967 C139.70000000000073,27.32299999999998 139.29999999999927,27.479000000000042 138.89999999999964,27.479000000000042 C138.5,27.479000000000042 138.10000000000036,27.327999999999975 137.89999999999964,27.025999999999954 C137.60000000000036,26.724000000000046 137.5,26.333999999999946 137.5,25.854000000000042 C137.5,25.312999999999988 137.60000000000036,24.860000000000014 138.0,24.495000000000005 C138.29999999999927,24.129999999999995 138.70000000000073,23.94799999999998 139.10000000000036,23.94799999999998 C139.70000000000073,23.94799999999998 140.10000000000036,24.158999999999992 140.39999999999964,24.581000000000017 C140.79999999999927,25.003000000000043 140.89999999999964,25.547000000000025 140.89999999999964,26.214000000000055 C140.89999999999964,26.432999999999993 140.89999999999964,26.653999999999996 140.89999999999964,26.878000000000043 C140.89999999999964,27.101999999999975 140.79999999999927,27.366999999999962 140.60000000000036,27.674999999999955 C140.5,27.98199999999997 140.29999999999927,28.254999999999995 140.10000000000036,28.495000000000005 C139.89999999999964,28.735000000000014 139.60000000000036,28.952999999999975 139.10000000000036,29.150999999999954 C138.70000000000073,29.349000000000046 138.29999999999927,29.479000000000042 137.70000000000073,29.54200000000003 M139.20000000000073,27.120000000000005 C139.29999999999927,27.120000000000005 139.39999999999964,27.10699999999997 139.60000000000036,27.081000000000017 C139.70000000000073,27.05499999999995 139.79999999999927,26.991999999999962 139.89999999999964,26.894000000000005 C140.10000000000036,26.79499999999996 140.10000000000036,26.672000000000025 140.10000000000036,26.525999999999954 L140.10000000000036,26.214000000000055 C140.10000000000036,24.860000000000014 139.79999999999927,24.182999999999993 139.10000000000036,24.182999999999993 C138.89999999999964,24.182999999999993 138.79999999999927,24.226999999999975 138.70000000000073,24.315000000000055 C138.5,24.403999999999996 138.39999999999964,24.520999999999958 138.39999999999964,24.66700000000003 C138.29999999999927,24.812999999999988 138.29999999999927,24.958999999999946 138.29999999999927,25.104000000000042 C138.20000000000073,25.25 138.20000000000073,25.40700000000004 138.20000000000073,25.57299999999998 C138.20000000000073,26.05200000000002 138.29999999999927,26.42999999999995 138.5,26.706000000000017 C138.70000000000073,26.98199999999997 138.89999999999964,27.120000000000005 139.20000000000073,27.120000000000005 M143.29999999999927,29.479000000000042 C142.70000000000073,29.479000000000042 142.29999999999927,29.265999999999963 142.0,28.839000000000055 C141.70000000000073,28.412000000000035 141.5,27.84400000000005 141.5,27.135999999999967 C141.5,26.91700000000003 141.5,26.692999999999984 141.60000000000036,26.464000000000055 C141.60000000000036,26.235000000000014 141.70000000000073,25.97199999999998 141.79999999999927,25.674999999999955 C142.0,25.378000000000043 142.20000000000073,25.111999999999966 142.39999999999964,24.878000000000043 C142.60000000000036,24.644000000000005 143.0,24.434999999999945 143.39999999999964,24.253000000000043 C143.79999999999927,24.071000000000026 144.29999999999927,23.952999999999975 144.79999999999927,23.900999999999954 L144.79999999999927,24.025999999999954 C144.20000000000073,24.129999999999995 143.70000000000073,24.385999999999967 143.20000000000073,24.79200000000003 C142.79999999999927,25.19799999999998 142.5,25.702999999999975 142.39999999999964,26.307999999999993 C142.70000000000073,26.162000000000035 142.89999999999964,26.067999999999984 143.0,26.025999999999954 C143.10000000000036,25.985000000000014 143.29999999999927,25.964000000000055 143.5,25.964000000000055 C143.89999999999964,25.964000000000055 144.29999999999927,26.111999999999966 144.60000000000036,26.408999999999992 C144.89999999999964,26.706000000000017 145.0,27.104000000000042 145.0,27.604000000000042 C145.0,28.15700000000004 144.79999999999927,28.60699999999997 144.5,28.956000000000017 C144.20000000000073,29.30499999999995 143.79999999999927,29.479000000000042 143.29999999999927,29.479000000000042 M143.20000000000073,26.32299999999998 C142.79999999999927,26.32299999999998 142.60000000000036,26.400999999999954 142.39999999999964,26.557999999999993 C142.29999999999927,26.714000000000055 142.20000000000073,26.94799999999998 142.20000000000073,27.260999999999967 C142.20000000000073,27.875 142.29999999999927,28.360000000000014 142.5,28.714000000000055 C142.70000000000073,29.067999999999984 143.0,29.245000000000005 143.39999999999964,29.245000000000005 C143.70000000000073,29.245000000000005 143.89999999999964,29.128000000000043 144.0,28.894000000000005 C144.20000000000073,28.658999999999992 144.20000000000073,28.32299999999998 144.20000000000073,27.885999999999967 C144.20000000000073,27.385999999999967 144.10000000000036,27.0 144.0,26.729000000000042 C143.79999999999927,26.458999999999946 143.5,26.32299999999998 143.20000000000073,26.32299999999998 M147.5,26.400999999999954 C148.0,26.754999999999995 148.39999999999964,27.05200000000002 148.5,27.29200000000003 C148.70000000000073,27.53200000000004 148.79999999999927,27.807999999999993 148.79999999999927,28.120000000000005 C148.79999999999927,28.537000000000035 148.60000000000036,28.866999999999962 148.39999999999964,29.111999999999966 C148.10000000000036,29.35699999999997 147.70000000000073,29.479000000000042 147.20000000000073,29.479000000000042 C146.79999999999927,29.479000000000042 146.39999999999964,29.35699999999997 146.10000000000036,29.111999999999966 C145.79999999999927,28.866999999999962 145.70000000000073,28.547000000000025 145.70000000000073,28.150999999999954 C145.70000000000073,27.879999999999995 145.70000000000073,27.653999999999996 145.89999999999964,27.47199999999998 C146.0,27.288999999999987 146.29999999999927,27.037000000000035 146.70000000000073,26.714000000000055 C146.29999999999927,26.339000000000055 146.0,26.062999999999988 145.89999999999964,25.885999999999967 C145.79999999999927,25.708999999999946 145.70000000000073,25.49000000000001 145.70000000000073,25.229000000000042 C145.70000000000073,24.86500000000001 145.89999999999964,24.559999999999945 146.10000000000036,24.315000000000055 C146.39999999999964,24.071000000000026 146.79999999999927,23.94799999999998 147.20000000000073,23.94799999999998 C147.60000000000036,23.94799999999998 148.0,24.05499999999995 148.20000000000073,24.269000000000005 C148.5,24.48199999999997 148.60000000000036,24.760999999999967 148.60000000000036,25.104000000000042 C148.60000000000036,25.375 148.5,25.604000000000042 148.39999999999964,25.79200000000003 C148.20000000000073,25.979000000000042 147.89999999999964,26.182999999999993 147.5,26.400999999999954 M146.89999999999964,26.870000000000005 C146.70000000000073,27.057999999999993 146.5,27.241999999999962 146.39999999999964,27.424999999999955 C146.29999999999927,27.60699999999997 146.29999999999927,27.827999999999975 146.29999999999927,28.089000000000055 C146.29999999999927,28.432999999999993 146.39999999999964,28.711000000000013 146.60000000000036,28.924999999999955 C146.70000000000073,29.138000000000034 147.0,29.245000000000005 147.29999999999927,29.245000000000005 C147.60000000000036,29.245000000000005 147.79999999999927,29.163999999999987 147.89999999999964,29.003000000000043 C148.10000000000036,28.841000000000008 148.20000000000073,28.629999999999995 148.20000000000073,28.370000000000005 C148.20000000000073,28.287000000000035 148.20000000000073,28.206000000000017 148.10000000000036,28.128000000000043 C148.10000000000036,28.049999999999955 148.10000000000036,27.985000000000014 148.10000000000036,27.932999999999993 C148.10000000000036,27.879999999999995 148.0,27.817999999999984 148.0,27.745000000000005 C147.89999999999964,27.672000000000025 147.89999999999964,27.616999999999962 147.79999999999927,27.581000000000017 C147.79999999999927,27.54499999999996 147.70000000000073,27.486999999999966 147.70000000000073,27.408999999999992 C147.60000000000036,27.331000000000017 147.5,27.275999999999954 147.5,27.245000000000005 C147.39999999999964,27.214000000000055 147.29999999999927,27.153999999999996 147.20000000000073,27.065000000000055 C147.10000000000036,26.976999999999975 147.0,26.912000000000035 146.89999999999964,26.870000000000005 M147.29999999999927,26.260999999999967 C147.29999999999927,26.25 147.39999999999964,26.22199999999998 147.39999999999964,26.174999999999955 C147.5,26.128000000000043 147.5,26.091000000000008 147.60000000000036,26.065000000000055 C147.60000000000036,26.038999999999987 147.60000000000036,26.0 147.70000000000073,25.94799999999998 C147.79999999999927,25.895999999999958 147.79999999999927,25.84400000000005 147.79999999999927,25.79200000000003 C147.89999999999964,25.74000000000001 147.89999999999964,25.67700000000002 147.89999999999964,25.604000000000042 C148.0,25.53200000000004 148.0,25.451000000000022 148.0,25.361999999999966 C148.0,25.274 148.10000000000036,25.182999999999993 148.10000000000036,25.089000000000055 C148.10000000000036,24.817999999999984 148.0,24.599000000000046 147.79999999999927,24.432999999999993 C147.70000000000073,24.265999999999963 147.5,24.182999999999993 147.20000000000073,24.182999999999993 C146.89999999999964,24.182999999999993 146.70000000000073,24.258000000000038 146.60000000000036,24.408999999999992 C146.39999999999964,24.559999999999945 146.29999999999927,24.75 146.29999999999927,24.979000000000042 C146.29999999999927,25.19799999999998 146.39999999999964,25.40700000000004 146.5,25.604000000000042 C146.70000000000073,25.80200000000002 147.0,26.020999999999958 147.29999999999927,26.260999999999967 M156.70000000000073,26.69799999999998 C156.70000000000073,26.937999999999988 156.60000000000036,27.172000000000025 156.60000000000036,27.400999999999954 C156.5,27.629999999999995 156.39999999999964,27.866999999999962 156.29999999999927,28.111999999999966 C156.10000000000036,28.35699999999997 156.0,28.567999999999984 155.70000000000073,28.745000000000005 C155.5,28.922000000000025 155.20000000000073,29.071000000000026 154.79999999999927,29.190000000000055 C154.5,29.309999999999945 154.0,29.370000000000005 153.60000000000036,29.370000000000005 L151.29999999999927,29.370000000000005 L151.29999999999927,29.214000000000055 C151.60000000000036,29.192999999999984 151.79999999999927,29.140999999999963 151.89999999999964,29.057999999999993 C152.0,28.974000000000046 152.0,28.787000000000035 152.0,28.495000000000005 L152.0,24.94799999999998 C152.0,24.65700000000004 152.0,24.47199999999998 151.89999999999964,24.394000000000005 C151.79999999999927,24.315000000000055 151.60000000000036,24.260999999999967 151.29999999999927,24.229000000000042 L151.29999999999927,24.07299999999998 L153.5,24.07299999999998 C154.0,24.07299999999998 154.39999999999964,24.128000000000043 154.79999999999927,24.236999999999966 C155.10000000000036,24.34699999999998 155.5,24.486999999999966 155.70000000000073,24.658999999999992 C155.89999999999964,24.831000000000017 156.10000000000036,25.037000000000035 156.29999999999927,25.275999999999954 C156.39999999999964,25.515999999999963 156.5,25.75 156.60000000000036,25.979000000000042 C156.60000000000036,26.208999999999946 156.70000000000073,26.44799999999998 156.70000000000073,26.69799999999998 M155.79999999999927,26.760999999999967 C155.79999999999927,26.53200000000004 155.79999999999927,26.309999999999945 155.70000000000073,26.09699999999998 C155.70000000000073,25.883000000000038 155.60000000000036,25.66999999999996 155.5,25.456000000000017 C155.39999999999964,25.241999999999962 155.20000000000073,25.059999999999945 155.0,24.908999999999992 C154.79999999999927,24.758000000000038 154.60000000000036,24.633000000000038 154.29999999999927,24.533999999999992 C154.0,24.434999999999945 153.60000000000036,24.385999999999967 153.20000000000073,24.385999999999967 C153.10000000000036,24.385999999999967 153.0,24.40700000000004 152.89999999999964,24.44799999999998 C152.89999999999964,24.49000000000001 152.79999999999927,24.57299999999998 152.79999999999927,24.69799999999998 L152.79999999999927,28.745000000000005 C152.79999999999927,28.870000000000005 152.89999999999964,28.956000000000017 152.89999999999964,29.003000000000043 C153.0,29.049999999999955 153.10000000000036,29.07299999999998 153.20000000000073,29.07299999999998 C154.89999999999964,29.07299999999998 155.79999999999927,28.30200000000002 155.79999999999927,26.760999999999967 M159.60000000000036,26.885999999999967 C159.5,26.458999999999946 159.39999999999964,26.190000000000055 159.29999999999927,26.081000000000017 C159.20000000000073,25.97199999999998 159.10000000000036,25.90700000000004 158.89999999999964,25.885999999999967 L158.89999999999964,25.775999999999954 L160.5,25.775999999999954 L160.5,25.885999999999967 C160.29999999999927,25.91700000000003 160.20000000000073,25.951000000000022 160.10000000000036,25.986999999999966 C160.10000000000036,26.024 160.10000000000036,26.089000000000055 160.10000000000036,26.182999999999993 C160.10000000000036,26.245000000000005 160.10000000000036,26.400999999999954 160.20000000000073,26.650999999999954 L160.89999999999964,28.44799999999998 L161.60000000000036,26.66700000000003 C161.70000000000073,26.44799999999998 161.70000000000073,26.270999999999958 161.70000000000073,26.135999999999967 C161.70000000000073,26.07299999999998 161.70000000000073,26.024 161.60000000000036,25.986999999999966 C161.60000000000036,25.951000000000022 161.5,25.91700000000003 161.39999999999964,25.885999999999967 L161.39999999999964,25.775999999999954 L162.39999999999964,25.775999999999954 L162.39999999999964,25.885999999999967 C162.29999999999927,25.91700000000003 162.20000000000073,25.956000000000017 162.20000000000073,26.003000000000043 C162.10000000000036,26.049999999999955 162.10000000000036,26.15700000000004 162.0,26.32299999999998 L160.89999999999964,29.089000000000055 C160.79999999999927,29.349000000000046 160.70000000000073,29.479000000000042 160.70000000000073,29.479000000000042 C160.70000000000073,29.479000000000042 160.60000000000036,29.36500000000001 160.5,29.135999999999967 L159.79999999999927,27.245000000000005 L158.89999999999964,29.16700000000003 C158.79999999999927,29.375 158.70000000000073,29.479000000000042 158.70000000000073,29.479000000000042 C158.60000000000036,29.479000000000042 158.60000000000036,29.36500000000001 158.5,29.135999999999967 L157.39999999999964,26.400999999999954 C157.29999999999927,26.192999999999984 157.20000000000073,26.057999999999993 157.20000000000073,25.995000000000005 C157.10000000000036,25.932999999999993 157.10000000000036,25.895999999999958 157.0,25.885999999999967 L157.0,25.775999999999954 L158.39999999999964,25.775999999999954 L158.39999999999964,25.885999999999967 C158.29999999999927,25.90700000000004 158.20000000000073,25.934999999999945 158.10000000000036,25.97199999999998 C158.10000000000036,26.008000000000038 158.0,26.067999999999984 158.0,26.150999999999954 C158.0,26.235000000000014 158.10000000000036,26.317999999999984 158.10000000000036,26.400999999999954 L158.89999999999964,28.479000000000042 L159.60000000000036,26.885999999999967 M162.60000000000036,28.57299999999998 C162.60000000000036,28.479000000000042 162.60000000000036,28.394000000000005 162.60000000000036,28.315000000000055 C162.70000000000073,28.236999999999966 162.70000000000073,28.162000000000035 162.79999999999927,28.089000000000055 C162.79999999999927,28.015999999999963 162.89999999999964,27.951000000000022 162.89999999999964,27.894000000000005 C163.0,27.836000000000013 163.0,27.775999999999954 163.10000000000036,27.714000000000055 C163.20000000000073,27.650999999999954 163.29999999999927,27.599000000000046 163.39999999999964,27.557999999999993 C163.39999999999964,27.515999999999963 163.5,27.46900000000005 163.60000000000036,27.41700000000003 C163.79999999999927,27.36500000000001 163.89999999999964,27.32299999999998 163.89999999999964,27.29200000000003 C164.0,27.260999999999967 164.10000000000036,27.216000000000008 164.29999999999927,27.158999999999992 C164.39999999999964,27.101999999999975 164.5,27.057999999999993 164.60000000000036,27.025999999999954 L164.60000000000036,26.54200000000003 C164.60000000000036,26.104000000000042 164.39999999999964,25.885999999999967 164.0,25.885999999999967 C163.79999999999927,25.885999999999967 163.70000000000073,25.924999999999955 163.60000000000036,26.003000000000043 C163.5,26.081000000000017 163.39999999999964,26.172000000000025 163.39999999999964,26.275999999999954 C163.39999999999964,26.317999999999984 163.39999999999964,26.375 163.39999999999964,26.44799999999998 C163.5,26.520999999999958 163.5,26.567999999999984 163.5,26.589000000000055 C163.5,26.682999999999993 163.39999999999964,26.763000000000034 163.39999999999964,26.831000000000017 C163.29999999999927,26.899 163.20000000000073,26.932999999999993 163.10000000000036,26.932999999999993 C163.0,26.932999999999993 162.89999999999964,26.899 162.79999999999927,26.831000000000017 C162.79999999999927,26.763000000000034 162.70000000000073,26.682999999999993 162.70000000000073,26.589000000000055 C162.70000000000073,26.339000000000055 162.89999999999964,26.128000000000043 163.10000000000036,25.956000000000017 C163.39999999999964,25.783999999999992 163.70000000000073,25.69799999999998 164.10000000000036,25.69799999999998 C164.5,25.69799999999998 164.79999999999927,25.80200000000002 165.0,26.010999999999967 C165.10000000000036,26.21900000000005 165.20000000000073,26.537000000000035 165.20000000000073,26.964000000000055 L165.20000000000073,28.510999999999967 C165.20000000000073,28.687999999999988 165.20000000000073,28.809999999999945 165.29999999999927,28.878000000000043 C165.29999999999927,28.946000000000026 165.39999999999964,28.979000000000042 165.5,28.979000000000042 C165.60000000000036,28.979000000000042 165.70000000000073,28.92700000000002 165.79999999999927,28.82299999999998 L165.79999999999927,29.04200000000003 C165.70000000000073,29.19799999999998 165.60000000000036,29.30499999999995 165.39999999999964,29.361999999999966 C165.29999999999927,29.41999999999996 165.20000000000073,29.44799999999998 165.10000000000036,29.44799999999998 C164.89999999999964,29.44799999999998 164.79999999999927,29.400999999999954 164.70000000000073,29.307999999999993 C164.70000000000073,29.214000000000055 164.60000000000036,29.062999999999988 164.60000000000036,28.854000000000042 C164.10000000000036,29.25 163.79999999999927,29.44799999999998 163.39999999999964,29.44799999999998 C163.20000000000073,29.44799999999998 163.0,29.366999999999962 162.89999999999964,29.206000000000017 C162.70000000000073,29.04499999999996 162.60000000000036,28.833999999999946 162.60000000000036,28.57299999999998 M164.60000000000036,28.370000000000005 L164.60000000000036,27.214000000000055 C164.10000000000036,27.390999999999963 163.79999999999927,27.562999999999988 163.60000000000036,27.729000000000042 C163.39999999999964,27.895999999999958 163.29999999999927,28.09400000000005 163.29999999999927,28.32299999999998 C163.29999999999927,28.54200000000003 163.39999999999964,28.702999999999975 163.5,28.807999999999993 C163.60000000000036,28.912000000000035 163.70000000000073,28.964000000000055 163.79999999999927,28.964000000000055 C164.0,28.964000000000055 164.20000000000073,28.90700000000004 164.39999999999964,28.79200000000003 C164.5,28.74000000000001 164.5,28.687999999999988 164.5,28.635999999999967 C164.60000000000036,28.583999999999946 164.60000000000036,28.495000000000005 164.60000000000036,28.370000000000005 M168.29999999999927,26.44799999999998 C168.20000000000073,26.44799999999998 168.10000000000036,26.400999999999954 168.0,26.307999999999993 C167.89999999999964,26.214000000000055 167.79999999999927,26.16700000000003 167.70000000000073,26.16700000000003 C167.60000000000036,26.16700000000003 167.5,26.245000000000005 167.39999999999964,26.400999999999954 C167.20000000000073,26.557999999999993 167.20000000000073,26.702999999999975 167.20000000000073,26.839000000000055 L167.20000000000073,28.650999999999954 C167.20000000000073,28.879999999999995 167.20000000000073,29.033999999999992 167.29999999999927,29.111999999999966 C167.39999999999964,29.190000000000055 167.60000000000036,29.235000000000014 167.89999999999964,29.245000000000005 L167.89999999999964,29.370000000000005 L165.89999999999964,29.370000000000005 L165.89999999999964,29.245000000000005 C166.20000000000073,29.202999999999975 166.39999999999964,29.150999999999954 166.39999999999964,29.089000000000055 C166.5,29.025999999999954 166.5,28.895999999999958 166.5,28.69799999999998 L166.5,26.682999999999993 C166.5,26.504999999999995 166.5,26.379999999999995 166.39999999999964,26.307999999999993 C166.39999999999964,26.235000000000014 166.29999999999927,26.19799999999998 166.20000000000073,26.19799999999998 C166.10000000000036,26.19799999999998 166.10000000000036,26.208999999999946 165.89999999999964,26.229000000000042 L165.89999999999964,26.104000000000042 C166.39999999999964,25.96900000000005 166.79999999999927,25.833999999999946 167.10000000000036,25.69799999999998 L167.20000000000073,25.714000000000055 L167.20000000000073,26.41700000000003 C167.39999999999964,26.145999999999958 167.5,25.958999999999946 167.70000000000073,25.854000000000042 C167.79999999999927,25.75 168.0,25.69799999999998 168.10000000000036,25.69799999999998 C168.29999999999927,25.69799999999998 168.39999999999964,25.73199999999997 168.5,25.799999999999955 C168.5,25.866999999999962 168.60000000000036,25.96900000000005 168.60000000000036,26.104000000000042 C168.60000000000036,26.208999999999946 168.5,26.29200000000003 168.5,26.354000000000042 C168.39999999999964,26.41700000000003 168.39999999999964,26.44799999999998 168.29999999999927,26.44799999999998 M171.29999999999927,24.729000000000042 C171.20000000000073,24.729000000000042 171.10000000000036,24.69799999999998 171.0,24.635999999999967 C171.0,24.57299999999998 170.89999999999964,24.504999999999995 170.89999999999964,24.432999999999993 C170.89999999999964,24.360000000000014 170.79999999999927,24.29200000000003 170.70000000000073,24.229000000000042 C170.70000000000073,24.16700000000003 170.60000000000036,24.135999999999967 170.5,24.135999999999967 C170.20000000000073,24.135999999999967 170.0,24.370000000000005 170.0,24.839000000000055 L170.0,25.775999999999954 L171.0,25.775999999999954 L171.0,26.010999999999967 L170.0,26.010999999999967 L170.0,28.54200000000003 C170.0,28.833999999999946 170.10000000000036,29.020999999999958 170.10000000000036,29.104000000000042 C170.20000000000073,29.187999999999988 170.39999999999964,29.235000000000014 170.79999999999927,29.245000000000005 L170.79999999999927,29.370000000000005 L168.70000000000073,29.370000000000005 L168.70000000000073,29.245000000000005 C169.0,29.235000000000014 169.20000000000073,29.187999999999988 169.20000000000073,29.104000000000042 C169.29999999999927,29.020999999999958 169.39999999999964,28.833999999999946 169.39999999999964,28.54200000000003 L169.39999999999964,26.010999999999967 L168.70000000000073,26.010999999999967 L168.70000000000073,25.775999999999954 L169.39999999999964,25.775999999999954 C169.39999999999964,25.172000000000025 169.5,24.706000000000017 169.70000000000073,24.378000000000043 C169.89999999999964,24.049999999999955 170.29999999999927,23.885999999999967 170.79999999999927,23.885999999999967 C171.0,23.885999999999967 171.20000000000073,23.934999999999945 171.39999999999964,24.033999999999992 C171.5,24.133000000000038 171.60000000000036,24.254999999999995 171.60000000000036,24.400999999999954 C171.60000000000036,24.495000000000005 171.60000000000036,24.57299999999998 171.5,24.635999999999967 C171.39999999999964,24.69799999999998 171.39999999999964,24.729000000000042 171.29999999999927,24.729000000000042 M179.0,24.79200000000003 L176.89999999999964,29.370000000000005 L176.79999999999927,29.370000000000005 L174.79999999999927,24.979000000000042 L174.79999999999927,28.19799999999998 C174.79999999999927,28.604000000000042 174.89999999999964,28.873000000000047 174.89999999999964,29.003000000000043 C175.0,29.133000000000038 175.20000000000073,29.202999999999975 175.60000000000036,29.214000000000055 L175.60000000000036,29.370000000000005 L173.70000000000073,29.370000000000005 L173.70000000000073,29.214000000000055 C174.0,29.192999999999984 174.20000000000073,29.120000000000005 174.29999999999927,28.995000000000005 C174.39999999999964,28.870000000000005 174.39999999999964,28.604000000000042 174.39999999999964,28.19799999999998 L174.39999999999964,24.94799999999998 C174.39999999999964,24.65700000000004 174.39999999999964,24.46900000000005 174.29999999999927,24.385999999999967 C174.20000000000073,24.30200000000002 174.0,24.25 173.70000000000073,24.229000000000042 L173.70000000000073,24.07299999999998 L175.29999999999927,24.07299999999998 L177.10000000000036,28.120000000000005 L178.89999999999964,24.07299999999998 L180.5,24.07299999999998 L180.5,24.229000000000042 C180.20000000000073,24.260999999999967 180.0,24.317999999999984 179.89999999999964,24.400999999999954 C179.79999999999927,24.485000000000014 179.79999999999927,24.66700000000003 179.79999999999927,24.94799999999998 L179.79999999999927,28.495000000000005 C179.79999999999927,28.775999999999954 179.79999999999927,28.961000000000013 179.89999999999964,29.049999999999955 C180.0,29.138000000000034 180.20000000000073,29.192999999999984 180.5,29.214000000000055 L180.5,29.370000000000005 L178.20000000000073,29.370000000000005 L178.20000000000073,29.214000000000055 C178.60000000000036,29.192999999999984 178.79999999999927,29.135999999999967 178.79999999999927,29.04200000000003 C178.89999999999964,28.94799999999998 179.0,28.74000000000001 179.0,28.41700000000003 L179.0,24.79200000000003 M184.39999999999964,28.94799999999998 L184.39999999999964,29.07299999999998 C184.0,29.187999999999988 183.70000000000073,29.312999999999988 183.39999999999964,29.44799999999998 L183.29999999999927,29.432999999999993 L183.29999999999927,28.745000000000005 C183.29999999999927,28.765999999999963 183.29999999999927,28.815000000000055 183.20000000000073,28.894000000000005 C183.10000000000036,28.97199999999998 183.0,29.025999999999954 183.0,29.057999999999993 C183.0,29.089000000000055 182.89999999999964,29.135999999999967 182.79999999999927,29.19799999999998 C182.79999999999927,29.260999999999967 182.70000000000073,29.30499999999995 182.60000000000036,29.331000000000017 C182.60000000000036,29.35699999999997 182.5,29.383000000000038 182.39999999999964,29.408999999999992 C182.29999999999927,29.434999999999945 182.20000000000073,29.44799999999998 182.10000000000036,29.44799999999998 C181.89999999999964,29.44799999999998 181.60000000000036,29.351999999999975 181.39999999999964,29.158999999999992 C181.29999999999927,28.966000000000008 181.20000000000073,28.714000000000055 181.20000000000073,28.400999999999954 L181.20000000000073,26.385999999999967 C181.20000000000073,26.208999999999946 181.10000000000036,26.083999999999946 181.10000000000036,26.010999999999967 C181.0,25.937999999999988 180.89999999999964,25.895999999999958 180.70000000000073,25.885999999999967 L180.70000000000073,25.775999999999954 L181.89999999999964,25.775999999999954 L181.89999999999964,28.370000000000005 C181.89999999999964,28.525999999999954 181.89999999999964,28.663999999999987 182.0,28.783999999999992 C182.10000000000036,28.903999999999996 182.29999999999927,28.964000000000055 182.39999999999964,28.964000000000055 C182.5,28.964000000000055 182.5,28.956000000000017 182.60000000000036,28.940000000000055 C182.70000000000073,28.924999999999955 182.79999999999927,28.895999999999958 182.89999999999964,28.854000000000042 C183.0,28.812999999999988 183.10000000000036,28.741999999999962 183.20000000000073,28.644000000000005 C183.20000000000073,28.54499999999996 183.29999999999927,28.422000000000025 183.29999999999927,28.275999999999954 L183.29999999999927,26.400999999999954 C183.29999999999927,26.214000000000055 183.20000000000073,26.086000000000013 183.20000000000073,26.019000000000005 C183.10000000000036,25.951000000000022 182.89999999999964,25.912000000000035 182.70000000000073,25.900999999999954 L182.70000000000073,25.775999999999954 L183.89999999999964,25.775999999999954 L183.89999999999964,28.495000000000005 C183.89999999999964,28.682999999999993 184.0,28.80499999999995 184.0,28.861999999999966 C184.10000000000036,28.91999999999996 184.20000000000073,28.94799999999998 184.39999999999964,28.94799999999998 L184.39999999999964,28.94799999999998 M186.60000000000036,25.854000000000042 C186.70000000000073,25.854000000000042 186.70000000000073,25.827999999999975 186.79999999999927,25.775999999999954 L186.89999999999964,25.775999999999954 L186.89999999999964,26.854000000000042 L186.79999999999927,26.854000000000042 C186.70000000000073,26.5 186.60000000000036,26.248000000000047 186.39999999999964,26.09699999999998 C186.29999999999927,25.946000000000026 186.10000000000036,25.870000000000005 185.89999999999964,25.870000000000005 C185.70000000000073,25.870000000000005 185.60000000000036,25.922000000000025 185.5,26.025999999999954 C185.29999999999927,26.129999999999995 185.29999999999927,26.260999999999967 185.29999999999927,26.41700000000003 C185.29999999999927,26.645999999999958 185.39999999999964,26.827999999999975 185.60000000000036,26.964000000000055 L186.5,27.479000000000042 C186.70000000000073,27.625 186.89999999999964,27.770999999999958 187.0,27.91700000000003 C187.10000000000036,28.062999999999988 187.20000000000073,28.235000000000014 187.20000000000073,28.432999999999993 C187.20000000000073,28.702999999999975 187.10000000000036,28.940000000000055 186.79999999999927,29.144000000000005 C186.60000000000036,29.34699999999998 186.29999999999927,29.44799999999998 186.0,29.44799999999998 C185.89999999999964,29.44799999999998 185.70000000000073,29.424999999999955 185.5,29.378000000000043 C185.29999999999927,29.331000000000017 185.10000000000036,29.307999999999993 185.10000000000036,29.307999999999993 C185.0,29.307999999999993 184.89999999999964,29.339000000000055 184.89999999999964,29.400999999999954 L184.79999999999927,29.400999999999954 L184.79999999999927,28.150999999999954 L184.89999999999964,28.150999999999954 C185.0,28.525999999999954 185.10000000000036,28.79200000000003 185.20000000000073,28.94799999999998 C185.39999999999964,29.16700000000003 185.60000000000036,29.275999999999954 185.89999999999964,29.275999999999954 C186.10000000000036,29.275999999999954 186.29999999999927,29.224000000000046 186.39999999999964,29.120000000000005 C186.5,29.015999999999963 186.60000000000036,28.875 186.60000000000036,28.69799999999998 C186.60000000000036,28.458999999999946 186.5,28.260999999999967 186.20000000000073,28.104000000000042 L185.70000000000073,27.839000000000055 C185.39999999999964,27.640999999999963 185.10000000000036,27.456000000000017 185.0,27.283999999999992 C184.89999999999964,27.111999999999966 184.79999999999927,26.912000000000035 184.79999999999927,26.682999999999993 C184.79999999999927,26.390999999999963 184.89999999999964,26.153999999999996 185.10000000000036,25.97199999999998 C185.29999999999927,25.788999999999987 185.60000000000036,25.69799999999998 185.89999999999964,25.69799999999998 C186.10000000000036,25.69799999999998 186.20000000000073,25.724000000000046 186.39999999999964,25.775999999999954 C186.5,25.827999999999975 186.60000000000036,25.854000000000042 186.60000000000036,25.854000000000042 M187.89999999999964,26.229000000000042 C187.79999999999927,26.229000000000042 187.70000000000073,26.235000000000014 187.60000000000036,26.245000000000005 L187.60000000000036,26.135999999999967 C188.0,26.03200000000004 188.39999999999964,25.885999999999967 188.79999999999927,25.69799999999998 L188.89999999999964,25.714000000000055 L188.89999999999964,28.557999999999993 C188.89999999999964,28.839000000000055 188.89999999999964,29.019000000000005 189.0,29.09699999999998 C189.0,29.174999999999955 189.20000000000073,29.224000000000046 189.5,29.245000000000005 L189.5,29.370000000000005 L187.60000000000036,29.370000000000005 L187.60000000000036,29.245000000000005 C187.79999999999927,29.235000000000014 188.0,29.187999999999988 188.10000000000036,29.104000000000042 C188.20000000000073,29.020999999999958 188.20000000000073,28.839000000000055 188.20000000000073,28.557999999999993 L188.20000000000073,26.69799999999998 C188.20000000000073,26.520999999999958 188.20000000000073,26.399 188.10000000000036,26.331000000000017 C188.10000000000036,26.263000000000034 188.0,26.229000000000042 187.89999999999964,26.229000000000042 M188.5,23.900999999999954 C188.60000000000036,23.900999999999954 188.70000000000073,23.942999999999984 188.79999999999927,24.025999999999954 C188.79999999999927,24.110000000000014 188.89999999999964,24.208999999999946 188.89999999999964,24.32299999999998 C188.89999999999964,24.437999999999988 188.79999999999927,24.533999999999992 188.79999999999927,24.611999999999966 C188.70000000000073,24.690000000000055 188.60000000000036,24.729000000000042 188.5,24.729000000000042 C188.29999999999927,24.729000000000042 188.29999999999927,24.687999999999988 188.20000000000073,24.604000000000042 C188.10000000000036,24.520999999999958 188.10000000000036,24.424999999999955 188.10000000000036,24.315000000000055 C188.10000000000036,24.206000000000017 188.10000000000036,24.110000000000014 188.20000000000073,24.025999999999954 C188.29999999999927,23.942999999999984 188.29999999999927,23.900999999999954 188.5,23.900999999999954 M189.89999999999964,27.66700000000003 C189.89999999999964,27.07299999999998 190.0,26.59699999999998 190.39999999999964,26.236999999999966 C190.70000000000073,25.878000000000043 191.10000000000036,25.69799999999998 191.60000000000036,25.69799999999998 C191.89999999999964,25.69799999999998 192.20000000000073,25.778999999999996 192.5,25.940000000000055 C192.70000000000073,26.101999999999975 192.79999999999927,26.297000000000025 192.79999999999927,26.525999999999954 C192.79999999999927,26.610000000000014 192.79999999999927,26.684999999999945 192.70000000000073,26.753000000000043 C192.60000000000036,26.821000000000026 192.5,26.854000000000042 192.39999999999964,26.854000000000042 C192.29999999999927,26.854000000000042 192.10000000000036,26.735000000000014 192.10000000000036,26.495000000000005 L192.0,26.32299999999998 C192.0,26.16700000000003 191.89999999999964,26.062999999999988 191.89999999999964,26.010999999999967 C191.79999999999927,25.958999999999946 191.70000000000073,25.932999999999993 191.60000000000036,25.932999999999993 C191.20000000000073,25.932999999999993 191.0,26.059999999999945 190.79999999999927,26.315000000000055 C190.60000000000036,26.571000000000026 190.5,26.90700000000004 190.5,27.32299999999998 C190.5,27.770999999999958 190.60000000000036,28.140999999999963 190.79999999999927,28.432999999999993 C191.10000000000036,28.724000000000046 191.29999999999927,28.870000000000005 191.70000000000073,28.870000000000005 C191.89999999999964,28.870000000000005 192.10000000000036,28.812999999999988 192.29999999999927,28.69799999999998 C192.39999999999964,28.583999999999946 192.60000000000036,28.390999999999963 192.79999999999927,28.120000000000005 L192.89999999999964,28.182999999999993 C192.89999999999964,28.297000000000025 192.79999999999927,28.388000000000034 192.79999999999927,28.456000000000017 C192.70000000000073,28.524 192.70000000000073,28.628000000000043 192.60000000000036,28.769000000000005 C192.5,28.908999999999992 192.39999999999964,29.020999999999958 192.29999999999927,29.104000000000042 C192.20000000000073,29.187999999999988 192.0,29.265999999999963 191.89999999999964,29.339000000000055 C191.70000000000073,29.412000000000035 191.5,29.44799999999998 191.39999999999964,29.44799999999998 C190.89999999999964,29.44799999999998 190.60000000000036,29.28200000000004 190.29999999999927,28.94799999999998 C190.0,28.61500000000001 189.89999999999964,28.187999999999988 189.89999999999964,27.66700000000003 M194.20000000000073,28.57299999999998 C194.29999999999927,28.57299999999998 194.39999999999964,28.616999999999962 194.5,28.706000000000017 C194.60000000000036,28.79499999999996 194.60000000000036,28.900999999999954 194.60000000000036,29.025999999999954 C194.60000000000036,29.140999999999963 194.60000000000036,29.241999999999962 194.5,29.331000000000017 C194.39999999999964,29.41999999999996 194.29999999999927,29.464000000000055 194.20000000000073,29.464000000000055 C194.10000000000036,29.464000000000055 194.0,29.41999999999996 193.89999999999964,29.331000000000017 C193.79999999999927,29.241999999999962 193.79999999999927,29.140999999999963 193.79999999999927,29.025999999999954 C193.79999999999927,28.900999999999954 193.79999999999927,28.79499999999996 193.89999999999964,28.706000000000017 C194.0,28.616999999999962 194.10000000000036,28.57299999999998 194.20000000000073,28.57299999999998" />
</svg>
