<?xml version="1.0" encoding="UTF-8" standalone="yes"?>
<svg width="256.0px" height="256.0px" xmlns="http://www.w3.org/2000/svg" xmlns:xlink="http://www.w3.org/1999/xlink" version="1.2" baseProfile="tiny">
<path d="M55.0,237.096 C64.20000000000073,243.196 91.60000000000036,243.196 100.79999999999927,237.096 C91.60000000000036,243.996 64.20000000000073,243.996 55.0,237.096" />
<path d="M154.60000000000036,235.018 L154.60000000000036,236.565 C154.60000000000036,237.117 154.70000000000073,237.555 154.70000000000073,237.878 C155.20000000000073,237.513 155.5,237.242 155.60000000000036,237.065 C155.89999999999964,236.857 156.10000000000036,236.568 156.29999999999927,236.198 C156.5,235.828 156.60000000000036,235.461 156.60000000000036,235.096 C156.60000000000036,234.732 156.5,234.419 156.39999999999964,234.159 C156.20000000000073,233.899 156.0,233.768 155.70000000000073,233.768 C155.39999999999964,233.768 155.20000000000073,233.888 154.89999999999964,234.128 C154.70000000000073,234.388 154.60000000000036,234.685 154.60000000000036,235.018 M153.79999999999927,238.596 L153.60000000000036,226.706 C153.79999999999927,226.602 153.89999999999964,226.55 154.10000000000036,226.55 C154.29999999999927,226.55 154.5,226.602 154.70000000000073,226.706 L154.5,233.596 C155.0,233.138 155.70000000000073,232.909 156.39999999999964,232.909 C156.89999999999964,232.909 157.29999999999927,233.117 157.60000000000036,233.534 C157.89999999999964,233.951 158.10000000000036,234.43 158.10000000000036,234.971 C158.10000000000036,235.305 158.0,235.664 157.79999999999927,236.05 C157.60000000000036,236.393 157.39999999999964,236.664 157.10000000000036,236.862 C157.0,236.966 156.70000000000073,237.227 156.10000000000036,237.643 C156.0,237.758 155.79999999999927,237.893 155.60000000000036,238.05 C155.39999999999964,238.206 155.20000000000073,238.305 155.20000000000073,238.346 C155.10000000000036,238.399 155.0,238.503 154.89999999999964,238.659 C154.79999999999927,238.794 154.70000000000073,238.904 154.60000000000036,238.987 C154.5,239.07 154.39999999999964,239.112 154.29999999999927,239.112 C154.20000000000073,239.112 154.0,239.065 154.0,238.971 C153.89999999999964,238.878 153.79999999999927,238.753 153.79999999999927,238.596" />
<path d="M153.5,177.518 L153.5,179.065 C153.5,179.617 153.5,180.055 153.5,180.378 C154.0,180.013 154.29999999999927,179.742 154.5,179.565 C154.70000000000073,179.357 154.89999999999964,179.068 155.10000000000036,178.698 C155.29999999999927,178.328 155.39999999999964,177.961 155.39999999999964,177.596 C155.39999999999964,177.232 155.29999999999927,176.919 155.20000000000073,176.659 C155.0,176.399 154.79999999999927,176.268 154.5,176.268 C154.20000000000073,176.268 154.0,176.388 153.79999999999927,176.628 C153.60000000000036,176.888 153.5,177.185 153.5,177.518 M152.60000000000036,181.096 L152.39999999999964,169.206 C152.60000000000036,169.102 152.79999999999927,169.05 152.89999999999964,169.05 C153.10000000000036,169.05 153.29999999999927,169.102 153.5,169.206 L153.29999999999927,176.096 C153.89999999999964,175.638 154.5,175.409 155.20000000000073,175.409 C155.70000000000073,175.409 156.10000000000036,175.617 156.39999999999964,176.034 C156.79999999999927,176.451 156.89999999999964,176.93 156.89999999999964,177.471 C156.89999999999964,177.805 156.79999999999927,178.164 156.60000000000036,178.55 C156.39999999999964,178.893 156.20000000000073,179.164 156.0,179.362 C155.79999999999927,179.466 155.5,179.727 155.0,180.143 C154.79999999999927,180.258 154.60000000000036,180.393 154.39999999999964,180.55 C154.20000000000073,180.706 154.10000000000036,180.805 154.0,180.846 C153.89999999999964,180.899 153.79999999999927,181.003 153.70000000000073,181.159 C153.70000000000073,181.294 153.5,181.404 153.39999999999964,181.487 C153.29999999999927,181.57 153.20000000000073,181.612 153.10000000000036,181.612 C153.0,181.612 152.89999999999964,181.565 152.79999999999927,181.471 C152.70000000000073,181.378 152.60000000000036,181.253 152.60000000000036,181.096" />
<path d="M153.5,195.018 L153.5,196.565 C153.5,197.117 153.5,197.555 153.5,197.878 C154.0,197.513 154.29999999999927,197.242 154.5,197.065 C154.70000000000073,196.857 154.89999999999964,196.568 155.10000000000036,196.198 C155.29999999999927,195.828 155.39999999999964,195.461 155.39999999999964,195.096 C155.39999999999964,194.732 155.29999999999927,194.419 155.20000000000073,194.159 C155.0,193.899 154.79999999999927,193.768 154.5,193.768 C154.20000000000073,193.768 154.0,193.888 153.79999999999927,194.128 C153.60000000000036,194.388 153.5,194.685 153.5,195.018 M152.60000000000036,198.596 L152.39999999999964,186.706 C152.60000000000036,186.602 152.79999999999927,186.55 152.89999999999964,186.55 C153.10000000000036,186.55 153.29999999999927,186.602 153.5,186.706 L153.29999999999927,193.596 C153.89999999999964,193.138 154.5,192.909 155.20000000000073,192.909 C155.70000000000073,192.909 156.10000000000036,193.117 156.39999999999964,193.534 C156.79999999999927,193.951 156.89999999999964,194.43 156.89999999999964,194.971 C156.89999999999964,195.305 156.79999999999927,195.664 156.60000000000036,196.05 C156.39999999999964,196.393 156.20000000000073,196.664 156.0,196.862 C155.79999999999927,196.966 155.5,197.227 155.0,197.643 C154.79999999999927,197.758 154.60000000000036,197.893 154.39999999999964,198.05 C154.20000000000073,198.206 154.10000000000036,198.305 154.0,198.346 C153.89999999999964,198.399 153.79999999999927,198.503 153.70000000000073,198.659 C153.70000000000073,198.794 153.5,198.904 153.39999999999964,198.987 C153.29999999999927,199.07 153.20000000000073,199.112 153.10000000000036,199.112 C153.0,199.112 152.89999999999964,199.065 152.79999999999927,198.971 C152.70000000000073,198.878 152.60000000000036,198.753 152.60000000000036,198.596" />
<path d="M154.60000000000036,112.518 L154.60000000000036,114.065 C154.60000000000036,114.617 154.70000000000073,115.055 154.70000000000073,115.378 C155.20000000000073,115.013 155.5,114.742 155.60000000000036,114.565 C155.89999999999964,114.357 156.10000000000036,114.068 156.29999999999927,113.698 C156.5,113.328 156.60000000000036,112.961 156.60000000000036,112.596 C156.60000000000036,112.232 156.5,111.919 156.39999999999964,111.659 C156.20000000000073,111.399 156.0,111.268 155.70000000000073,111.268 C155.39999999999964,111.268 155.20000000000073,111.388 154.89999999999964,111.628 C154.70000000000073,111.888 154.60000000000036,112.185 154.60000000000036,112.518 M153.79999999999927,116.096 L153.60000000000036,104.206 C153.79999999999927,104.102 153.89999999999964,104.05 154.10000000000036,104.05 C154.29999999999927,104.05 154.5,104.102 154.70000000000073,104.206 L154.5,111.096 C155.0,110.638 155.70000000000073,110.409 156.39999999999964,110.409 C156.89999999999964,110.409 157.29999999999927,110.617 157.60000000000036,111.034 C157.89999999999964,111.451 158.10000000000036,111.93 158.10000000000036,112.471 C158.10000000000036,112.805 158.0,113.164 157.79999999999927,113.55 C157.60000000000036,113.893 157.39999999999964,114.164 157.10000000000036,114.362 C157.0,114.466 156.70000000000073,114.727 156.10000000000036,115.143 C156.0,115.258 155.79999999999927,115.393 155.60000000000036,115.55 C155.39999999999964,115.706 155.20000000000073,115.805 155.20000000000073,115.846 C155.10000000000036,115.899 155.0,116.003 154.89999999999964,116.159 C154.79999999999927,116.294 154.70000000000073,116.404 154.60000000000036,116.487 C154.5,116.57 154.39999999999964,116.612 154.29999999999927,116.612 C154.20000000000073,116.612 154.0,116.565 154.0,116.471 C153.89999999999964,116.378 153.79999999999927,116.253 153.79999999999927,116.096" />
<path d="M153.60000000000036,90.0183 L153.60000000000036,91.5652 C153.60000000000036,92.1173 153.70000000000073,92.5548 153.70000000000073,92.8777 C154.20000000000073,92.5131 154.5,92.2423 154.60000000000036,92.0652 C154.89999999999964,91.8569 155.10000000000036,91.5678 155.29999999999927,91.198 C155.5,90.8282 155.60000000000036,90.461 155.60000000000036,90.0965 C155.60000000000036,89.7319 155.5,89.4194 155.39999999999964,89.159 C155.20000000000073,88.8985 155.0,88.7683 154.70000000000073,88.7683 C154.39999999999964,88.7683 154.20000000000073,88.8881 153.89999999999964,89.1277 C153.70000000000073,89.3881 153.60000000000036,89.685 153.60000000000036,90.0183 M152.79999999999927,93.5965 L152.60000000000036,81.7058 C152.79999999999927,81.6017 152.89999999999964,81.5496 153.10000000000036,81.5496 C153.29999999999927,81.5496 153.5,81.6017 153.70000000000073,81.7058 L153.5,88.5965 C154.0,88.1381 154.70000000000073,87.909 155.39999999999964,87.909 C155.89999999999964,87.909 156.29999999999927,88.1173 156.60000000000036,88.534 C156.89999999999964,88.9506 157.10000000000036,89.4298 157.10000000000036,89.9715 C157.10000000000036,90.3048 157.0,90.6642 156.79999999999927,91.0496 C156.60000000000036,91.3933 156.39999999999964,91.6642 156.10000000000036,91.8621 C156.0,91.9662 155.70000000000073,92.2267 155.10000000000036,92.6433 C155.0,92.7579 154.79999999999927,92.8933 154.60000000000036,93.0496 C154.39999999999964,93.2058 154.20000000000073,93.3048 154.20000000000073,93.3465 C154.10000000000036,93.3985 154.0,93.5027 153.89999999999964,93.659 C153.79999999999927,93.7944 153.70000000000073,93.9037 153.60000000000036,93.9871 C153.5,94.0704 153.39999999999964,94.1121 153.29999999999927,94.1121 C153.20000000000073,94.1121 153.0,94.0652 153.0,93.9715 C152.89999999999964,93.8777 152.79999999999927,93.7527 152.79999999999927,93.5965" />
<path d="M142.0,247.081 C142.0,247.331 141.89999999999964,247.456 141.70000000000073,247.456 C141.39999999999964,247.456 141.29999999999927,247.331 141.29999999999927,247.081 L141.29999999999927,244.19 L139.70000000000073,244.815 L139.70000000000073,247.971 C139.70000000000073,248.221 139.5,248.346 139.29999999999927,248.346 C139.0,248.346 138.89999999999964,248.221 138.89999999999964,247.971 L138.89999999999964,245.065 L138.29999999999927,245.3 C138.29999999999927,245.31 138.20000000000073,245.315 138.10000000000036,245.315 C138.0,245.315 137.89999999999964,245.276 137.79999999999927,245.198 C137.79999999999927,245.12 137.70000000000073,245.029 137.70000000000073,244.925 L137.70000000000073,243.721 C137.70000000000073,243.524 137.79999999999927,243.399 138.0,243.346 L138.89999999999964,243.034 L138.89999999999964,239.831 L138.29999999999927,240.05 C138.29999999999927,240.06 138.20000000000073,240.065 138.10000000000036,240.065 C138.0,240.065 137.89999999999964,240.026 137.79999999999927,239.948 C137.79999999999927,239.87 137.70000000000073,239.779 137.70000000000073,239.675 L137.70000000000073,238.456 C137.70000000000073,238.279 137.79999999999927,238.164 138.0,238.112 L138.89999999999964,237.753 L138.89999999999964,234.612 C138.89999999999964,234.362 139.0,234.237 139.29999999999927,234.237 C139.5,234.237 139.70000000000073,234.362 139.70000000000073,234.612 L139.70000000000073,237.503 L141.29999999999927,236.878 L141.29999999999927,233.721 C141.29999999999927,233.471 141.39999999999964,233.346 141.70000000000073,233.346 C141.89999999999964,233.346 142.0,233.471 142.0,233.721 L142.0,236.628 L142.70000000000073,236.393 C142.70000000000073,236.383 142.79999999999927,236.378 142.79999999999927,236.378 C142.89999999999964,236.378 143.0,236.414 143.10000000000036,236.487 C143.20000000000073,236.57 143.20000000000073,236.664 143.20000000000073,236.768 L143.20000000000073,237.971 C143.20000000000073,238.159 143.20000000000073,238.284 143.0,238.346 L142.0,238.659 L142.0,241.862 L142.70000000000073,241.643 C142.70000000000073,241.633 142.79999999999927,241.628 142.79999999999927,241.628 C142.89999999999964,241.628 143.0,241.669 143.10000000000036,241.753 C143.20000000000073,241.826 143.20000000000073,241.914 143.20000000000073,242.018 L143.20000000000073,243.237 C143.20000000000073,243.404 143.20000000000073,243.518 143.0,243.581 L142.0,243.94 L142.0,247.081 M141.29999999999927,238.956 L139.70000000000073,239.534 L139.70000000000073,242.737 L141.29999999999927,242.159 L141.29999999999927,238.956" />
<path d="M123.79999999999927,95.0183 L123.79999999999927,96.5652 C123.79999999999927,97.1173 123.79999999999927,97.5548 123.89999999999964,97.8777 C124.29999999999927,97.5131 124.60000000000036,97.2423 124.79999999999927,97.0652 C125.0,96.8569 125.20000000000073,96.5678 125.39999999999964,96.198 C125.60000000000036,95.8282 125.70000000000073,95.461 125.70000000000073,95.0965 C125.70000000000073,94.7319 125.70000000000073,94.4194 125.5,94.159 C125.29999999999927,93.8985 125.10000000000036,93.7683 124.89999999999964,93.7683 C124.60000000000036,93.7683 124.29999999999927,93.8881 124.10000000000036,94.1277 C123.89999999999964,94.3881 123.79999999999927,94.685 123.79999999999927,95.0183 M123.0,98.5965 L122.70000000000073,86.7058 C122.89999999999964,86.6017 123.10000000000036,86.5496 123.29999999999927,86.5496 C123.5,86.5496 123.60000000000036,86.6017 123.79999999999927,86.7058 L123.70000000000073,93.5965 C124.20000000000073,93.1381 124.79999999999927,92.909 125.5,92.909 C126.0,92.909 126.39999999999964,93.1173 126.79999999999927,93.534 C127.10000000000036,93.9506 127.29999999999927,94.4298 127.29999999999927,94.9715 C127.29999999999927,95.3048 127.20000000000073,95.6642 126.89999999999964,96.0496 C126.70000000000073,96.3933 126.5,96.6642 126.29999999999927,96.8621 C126.20000000000073,96.9662 125.79999999999927,97.2267 125.29999999999927,97.6433 C125.10000000000036,97.7579 124.89999999999964,97.8933 124.70000000000073,98.0496 C124.5,98.2058 124.39999999999964,98.3048 124.29999999999927,98.3465 C124.20000000000073,98.3985 124.20000000000073,98.5027 124.10000000000036,98.659 C124.0,98.7944 123.89999999999964,98.9037 123.79999999999927,98.9871 C123.70000000000073,99.0704 123.60000000000036,99.1121 123.39999999999964,99.1121 C123.29999999999927,99.1121 123.20000000000073,99.0652 123.10000000000036,98.9715 C123.0,98.8777 123.0,98.7527 123.0,98.5965" />
<path d="M124.79999999999927,72.5183 L124.79999999999927,74.0652 C124.79999999999927,74.6173 124.79999999999927,75.0548 124.89999999999964,75.3777 C125.29999999999927,75.0131 125.60000000000036,74.7423 125.79999999999927,74.5652 C126.0,74.3569 126.20000000000073,74.0678 126.39999999999964,73.698 C126.60000000000036,73.3282 126.70000000000073,72.961 126.70000000000073,72.5965 C126.70000000000073,72.2319 126.70000000000073,71.9194 126.5,71.659 C126.29999999999927,71.3985 126.10000000000036,71.2683 125.89999999999964,71.2683 C125.60000000000036,71.2683 125.29999999999927,71.3881 125.10000000000036,71.6277 C124.89999999999964,71.8881 124.79999999999927,72.185 124.79999999999927,72.5183 M124.0,76.0965 L123.70000000000073,64.2058 C123.89999999999964,64.1017 124.10000000000036,64.0496 124.29999999999927,64.0496 C124.5,64.0496 124.60000000000036,64.1017 124.79999999999927,64.2058 L124.70000000000073,71.0965 C125.20000000000073,70.6381 125.79999999999927,70.409 126.5,70.409 C127.0,70.409 127.39999999999964,70.6173 127.79999999999927,71.034 C128.10000000000036,71.4506 128.29999999999927,71.9298 128.29999999999927,72.4715 C128.29999999999927,72.8048 128.20000000000073,73.1642 127.89999999999964,73.5496 C127.70000000000073,73.8933 127.5,74.1642 127.29999999999927,74.3621 C127.20000000000073,74.4662 126.79999999999927,74.7267 126.29999999999927,75.1433 C126.10000000000036,75.2579 125.89999999999964,75.3933 125.70000000000073,75.5496 C125.5,75.7058 125.39999999999964,75.8048 125.29999999999927,75.8465 C125.20000000000073,75.8985 125.20000000000073,76.0027 125.10000000000036,76.159 C125.0,76.2944 124.89999999999964,76.4037 124.79999999999927,76.4871 C124.70000000000073,76.5704 124.60000000000036,76.6121 124.39999999999964,76.6121 C124.29999999999927,76.6121 124.20000000000073,76.5652 124.10000000000036,76.4715 C124.0,76.3777 124.0,76.2527 124.0,76.0965" />
<path d="M108.29999999999927,87.5183 L108.29999999999927,89.0652 C108.29999999999927,89.6173 108.39999999999964,90.0548 108.39999999999964,90.3777 C108.79999999999927,90.0131 109.10000000000036,89.7423 109.29999999999927,89.5652 C109.5,89.3569 109.79999999999927,89.0678 110.0,88.698 C110.20000000000073,88.3282 110.29999999999927,87.961 110.29999999999927,87.5965 C110.29999999999927,87.2319 110.20000000000073,86.9194 110.0,86.659 C109.89999999999964,86.3985 109.70000000000073,86.2683 109.39999999999964,86.2683 C109.10000000000036,86.2683 108.79999999999927,86.3881 108.60000000000036,86.6277 C108.39999999999964,86.8881 108.29999999999927,87.185 108.29999999999927,87.5183 M107.5,91.0965 L107.29999999999927,79.2058 C107.39999999999964,79.1017 107.60000000000036,79.0496 107.79999999999927,79.0496 C108.0,79.0496 108.20000000000073,79.1017 108.39999999999964,79.2058 L108.20000000000073,86.0965 C108.70000000000073,85.6381 109.29999999999927,85.409 110.0,85.409 C110.5,85.409 111.0,85.6173 111.29999999999927,86.034 C111.60000000000036,86.4506 111.79999999999927,86.9298 111.79999999999927,87.4715 C111.79999999999927,87.8048 111.70000000000073,88.1642 111.5,88.5496 C111.29999999999927,88.8933 111.0,89.1642 110.79999999999927,89.3621 C110.70000000000073,89.4662 110.39999999999964,89.7267 109.79999999999927,90.1433 C109.70000000000073,90.2579 109.5,90.3933 109.29999999999927,90.5496 C109.10000000000036,90.7058 108.89999999999964,90.8048 108.89999999999964,90.8465 C108.79999999999927,90.8985 108.70000000000073,91.0027 108.60000000000036,91.159 C108.5,91.2944 108.39999999999964,91.4037 108.29999999999927,91.4871 C108.20000000000073,91.5704 108.10000000000036,91.6121 108.0,91.6121 C107.79999999999927,91.6121 107.70000000000073,91.5652 107.60000000000036,91.4715 C107.60000000000036,91.3777 107.5,91.2527 107.5,91.0965" />
<path d="M109.29999999999927,65.0183 L109.29999999999927,66.5652 C109.29999999999927,67.1173 109.39999999999964,67.5548 109.39999999999964,67.8777 C109.79999999999927,67.5131 110.10000000000036,67.2423 110.29999999999927,67.0652 C110.5,66.8569 110.79999999999927,66.5678 111.0,66.198 C111.20000000000073,65.8282 111.29999999999927,65.461 111.29999999999927,65.0965 C111.29999999999927,64.7319 111.20000000000073,64.4194 111.0,64.159 C110.89999999999964,63.8985 110.70000000000073,63.7683 110.39999999999964,63.7683 C110.10000000000036,63.7683 109.79999999999927,63.8881 109.60000000000036,64.1277 C109.39999999999964,64.3881 109.29999999999927,64.685 109.29999999999927,65.0183 M108.5,68.5965 L108.29999999999927,56.7058 C108.39999999999964,56.6017 108.60000000000036,56.5496 108.79999999999927,56.5496 C109.0,56.5496 109.20000000000073,56.6017 109.39999999999964,56.7058 L109.20000000000073,63.5965 C109.70000000000073,63.1381 110.29999999999927,62.909 111.0,62.909 C111.5,62.909 112.0,63.1173 112.29999999999927,63.534 C112.60000000000036,63.9506 112.79999999999927,64.4298 112.79999999999927,64.9715 C112.79999999999927,65.3048 112.70000000000073,65.6642 112.5,66.0496 C112.29999999999927,66.3933 112.0,66.6642 111.79999999999927,66.8621 C111.70000000000073,66.9662 111.39999999999964,67.2267 110.79999999999927,67.6433 C110.70000000000073,67.7579 110.5,67.8933 110.29999999999927,68.0496 C110.10000000000036,68.2058 109.89999999999964,68.3048 109.89999999999964,68.3465 C109.79999999999927,68.3985 109.70000000000073,68.5027 109.60000000000036,68.659 C109.5,68.7944 109.39999999999964,68.9037 109.29999999999927,68.9871 C109.20000000000073,69.0704 109.10000000000036,69.1121 109.0,69.1121 C108.79999999999927,69.1121 108.70000000000073,69.0652 108.60000000000036,68.9715 C108.60000000000036,68.8777 108.5,68.7527 108.5,68.5965" />
<path d="M45.899999999999636,170.018 L45.899999999999636,171.565 C45.899999999999636,172.117 46.0,172.555 46.0,172.878 C46.399999999999636,172.513 46.70000000000073,172.242 46.899999999999636,172.065 C47.100000000000364,171.857 47.29999999999927,171.568 47.600000000000364,171.198 C47.79999999999927,170.828 47.899999999999636,170.461 47.899999999999636,170.096 C47.899999999999636,169.732 47.79999999999927,169.419 47.600000000000364,169.159 C47.5,168.899 47.29999999999927,168.768 47.0,168.768 C46.70000000000073,168.768 46.399999999999636,168.888 46.20000000000073,169.128 C46.0,169.388 45.899999999999636,169.685 45.899999999999636,170.018 M45.100000000000364,173.596 L44.899999999999636,161.706 C45.0,161.602 45.20000000000073,161.55 45.399999999999636,161.55 C45.600000000000364,161.55 45.79999999999927,161.602 45.899999999999636,161.706 L45.79999999999927,168.596 C46.29999999999927,168.138 46.899999999999636,167.909 47.600000000000364,167.909 C48.100000000000364,167.909 48.600000000000364,168.117 48.899999999999636,168.534 C49.20000000000073,168.951 49.399999999999636,169.43 49.399999999999636,169.971 C49.399999999999636,170.305 49.29999999999927,170.664 49.100000000000364,171.05 C48.899999999999636,171.393 48.600000000000364,171.664 48.399999999999636,171.862 C48.29999999999927,171.966 47.899999999999636,172.227 47.399999999999636,172.643 C47.29999999999927,172.758 47.100000000000364,172.893 46.899999999999636,173.05 C46.600000000000364,173.206 46.5,173.305 46.5,173.346 C46.399999999999636,173.399 46.29999999999927,173.503 46.20000000000073,173.659 C46.100000000000364,173.794 46.0,173.904 45.899999999999636,173.987 C45.79999999999927,174.07 45.70000000000073,174.112 45.600000000000364,174.112 C45.399999999999636,174.112 45.29999999999927,174.065 45.20000000000073,173.971 C45.20000000000073,173.878 45.100000000000364,173.753 45.100000000000364,173.596" />
<path d="M1.1000000000003638,227.518 L1.1000000000003638,229.065 C1.1000000000003638,229.617 1.1000000000003638,230.055 1.2000000000007276,230.378 C1.6000000000003638,230.013 1.8999999999996362,229.742 2.100000000000364,229.565 C2.2999999999992724,229.357 2.5,229.068 2.7000000000007276,228.698 C2.899999999999636,228.328 3.100000000000364,227.961 3.100000000000364,227.596 C3.100000000000364,227.232 3.0,226.919 2.7999999999992724,226.659 C2.7000000000007276,226.399 2.5,226.268 2.2000000000007276,226.268 C1.8999999999996362,226.268 1.6000000000003638,226.388 1.3999999999996362,226.628 C1.2000000000007276,226.888 1.1000000000003638,227.185 1.1000000000003638,227.518 M0.2999999999992724,231.096 L0.0,219.206 C0.2000000000007276,219.102 0.3999999999996362,219.05 0.6000000000003638,219.05 C0.7999999999992724,219.05 1.0,219.102 1.1000000000003638,219.206 L1.0,226.096 C1.5,225.638 2.100000000000364,225.409 2.7999999999992724,225.409 C3.2999999999992724,225.409 3.7000000000007276,225.617 4.100000000000364,226.034 C4.399999999999636,226.451 4.600000000000364,226.93 4.600000000000364,227.471 C4.600000000000364,227.805 4.5,228.164 4.299999999999272,228.55 C4.0,228.893 3.7999999999992724,229.164 3.600000000000364,229.362 C3.5,229.466 3.100000000000364,229.727 2.600000000000364,230.143 C2.399999999999636,230.258 2.2999999999992724,230.393 2.0,230.55 C1.7999999999992724,230.706 1.7000000000007276,230.805 1.6000000000003638,230.846 C1.6000000000003638,230.899 1.5,231.003 1.3999999999996362,231.159 C1.2999999999992724,231.294 1.2000000000007276,231.404 1.1000000000003638,231.487 C1.0,231.57 0.8999999999996362,231.612 0.7000000000007276,231.612 C0.6000000000003638,231.612 0.5,231.565 0.3999999999996362,231.471 C0.2999999999992724,231.378 0.2999999999992724,231.253 0.2999999999992724,231.096" />
<path d="M211.39999999999964,93.0965 C212.0,93.0965 212.60000000000036,93.2579 213.0,93.5808 C213.39999999999964,93.935 213.60000000000036,94.3777 213.60000000000036,94.909 C213.60000000000036,95.8048 213.10000000000036,96.6433 212.20000000000073,97.4246 C211.29999999999927,98.2058 210.29999999999927,98.5965 209.20000000000073,98.5965 C208.60000000000036,98.5965 208.10000000000036,98.435 207.60000000000036,98.1121 C207.20000000000073,97.7579 207.0,97.3152 207.0,96.784 C207.0,95.8881 207.5,95.0496 208.39999999999964,94.2683 C209.29999999999927,93.4871 210.29999999999927,93.0965 211.39999999999964,93.0965" />
<path d="M211.39999999999964,70.5965 C212.0,70.5965 212.60000000000036,70.7579 213.0,71.0808 C213.39999999999964,71.435 213.60000000000036,71.8777 213.60000000000036,72.409 C213.60000000000036,73.3048 213.10000000000036,74.1433 212.20000000000073,74.9246 C211.29999999999927,75.7058 210.29999999999927,76.0965 209.20000000000073,76.0965 C208.60000000000036,76.0965 208.10000000000036,75.935 207.60000000000036,75.6121 C207.20000000000073,75.2579 207.0,74.8152 207.0,74.284 C207.0,73.3881 207.5,72.5496 208.39999999999964,71.7683 C209.29999999999927,70.9871 210.29999999999927,70.5965 211.39999999999964,70.5965" />
<path d="M187.5,233.096 C188.20000000000073,233.096 188.70000000000073,233.258 189.10000000000036,233.581 C189.5,233.935 189.70000000000073,234.378 189.70000000000073,234.909 C189.70000000000073,235.805 189.29999999999927,236.643 188.29999999999927,237.425 C187.39999999999964,238.206 186.39999999999964,238.596 185.29999999999927,238.596 C184.70000000000073,238.596 184.20000000000073,238.435 183.70000000000073,238.112 C183.29999999999927,237.758 183.10000000000036,237.315 183.10000000000036,236.784 C183.10000000000036,235.888 183.60000000000036,235.05 184.5,234.268 C185.5,233.487 186.5,233.096 187.5,233.096" />
<path d="M187.5,100.596 C188.20000000000073,100.596 188.70000000000073,100.758 189.10000000000036,101.081 C189.5,101.435 189.70000000000073,101.878 189.70000000000073,102.409 C189.70000000000073,103.305 189.29999999999927,104.143 188.29999999999927,104.925 C187.39999999999964,105.706 186.39999999999964,106.096 185.29999999999927,106.096 C184.70000000000073,106.096 184.20000000000073,105.935 183.70000000000073,105.612 C183.29999999999927,105.258 183.10000000000036,104.815 183.10000000000036,104.284 C183.10000000000036,103.388 183.60000000000036,102.55 184.5,101.768 C185.5,100.987 186.5,100.596 187.5,100.596" />
<path d="M187.5,78.0965 C188.20000000000073,78.0965 188.70000000000073,78.2579 189.10000000000036,78.5808 C189.5,78.935 189.70000000000073,79.3777 189.70000000000073,79.909 C189.70000000000073,80.8048 189.29999999999927,81.6433 188.29999999999927,82.4246 C187.39999999999964,83.2058 186.39999999999964,83.5965 185.29999999999927,83.5965 C184.70000000000073,83.5965 184.20000000000073,83.435 183.70000000000073,83.1121 C183.29999999999927,82.7579 183.10000000000036,82.3152 183.10000000000036,81.784 C183.10000000000036,80.8881 183.60000000000036,80.0496 184.5,79.2683 C185.5,78.4871 186.5,78.0965 187.5,78.0965" />
<path d="M163.70000000000073,233.096 C164.29999999999927,233.096 164.79999999999927,233.258 165.20000000000073,233.581 C165.60000000000036,233.935 165.79999999999927,234.378 165.79999999999927,234.909 C165.79999999999927,235.805 165.39999999999964,236.643 164.5,237.425 C163.5,238.206 162.5,238.596 161.39999999999964,238.596 C160.79999999999927,238.596 160.29999999999927,238.435 159.89999999999964,238.112 C159.5,237.758 159.29999999999927,237.315 159.29999999999927,236.784 C159.29999999999927,235.888 159.70000000000073,235.05 160.70000000000073,234.268 C161.60000000000036,233.487 162.60000000000036,233.096 163.70000000000073,233.096" />
<path d="M165.39999999999964,172.034 C165.39999999999964,171.815 165.29999999999927,171.628 165.10000000000036,171.471 C165.0,171.305 164.79999999999927,171.221 164.60000000000036,171.221 C164.20000000000073,171.221 163.39999999999964,171.612 162.20000000000073,172.393 C161.0,173.185 160.20000000000073,173.753 159.89999999999964,174.096 C159.79999999999927,174.274 159.70000000000073,174.461 159.70000000000073,174.659 C159.70000000000073,174.878 159.79999999999927,175.065 160.0,175.221 C160.10000000000036,175.388 160.29999999999927,175.471 160.60000000000036,175.471 C160.89999999999964,175.471 161.70000000000073,175.081 163.0,174.3 C164.20000000000073,173.518 164.89999999999964,172.951 165.20000000000073,172.596 C165.29999999999927,172.43 165.39999999999964,172.242 165.39999999999964,172.034 M164.39999999999964,170.596 C165.5,170.596 166.0,171.076 166.0,172.034 C166.0,172.503 165.89999999999964,173.05 165.60000000000036,173.675 C165.39999999999964,174.289 165.0,174.758 164.5,175.081 C163.5,175.758 162.29999999999927,176.096 160.79999999999927,176.096 C159.60000000000036,176.096 159.10000000000036,175.617 159.10000000000036,174.659 C159.10000000000036,174.232 159.20000000000073,173.69 159.5,173.034 C159.70000000000073,172.409 160.10000000000036,171.935 160.60000000000036,171.612 C161.60000000000036,170.935 162.89999999999964,170.596 164.39999999999964,170.596" />
<path d="M165.39999999999964,177.034 C165.39999999999964,176.815 165.29999999999927,176.628 165.10000000000036,176.471 C165.0,176.305 164.79999999999927,176.221 164.60000000000036,176.221 C164.20000000000073,176.221 163.39999999999964,176.612 162.20000000000073,177.393 C161.0,178.185 160.20000000000073,178.753 159.89999999999964,179.096 C159.79999999999927,179.274 159.70000000000073,179.461 159.70000000000073,179.659 C159.70000000000073,179.878 159.79999999999927,180.065 160.0,180.221 C160.10000000000036,180.388 160.29999999999927,180.471 160.60000000000036,180.471 C160.89999999999964,180.471 161.70000000000073,180.081 163.0,179.3 C164.20000000000073,178.518 164.89999999999964,177.951 165.20000000000073,177.596 C165.29999999999927,177.43 165.39999999999964,177.242 165.39999999999964,177.034 M164.39999999999964,175.596 C165.5,175.596 166.0,176.076 166.0,177.034 C166.0,177.503 165.89999999999964,178.05 165.60000000000036,178.675 C165.39999999999964,179.289 165.0,179.758 164.5,180.081 C163.5,180.758 162.29999999999927,181.096 160.79999999999927,181.096 C159.60000000000036,181.096 159.10000000000036,180.617 159.10000000000036,179.659 C159.10000000000036,179.232 159.20000000000073,178.69 159.5,178.034 C159.70000000000073,177.409 160.10000000000036,176.935 160.60000000000036,176.612 C161.60000000000036,175.935 162.89999999999964,175.596 164.39999999999964,175.596" />
<path d="M165.39999999999964,184.534 C165.39999999999964,184.315 165.29999999999927,184.128 165.10000000000036,183.971 C165.0,183.805 164.79999999999927,183.721 164.60000000000036,183.721 C164.20000000000073,183.721 163.39999999999964,184.112 162.20000000000073,184.893 C161.0,185.685 160.20000000000073,186.253 159.89999999999964,186.596 C159.79999999999927,186.774 159.70000000000073,186.961 159.70000000000073,187.159 C159.70000000000073,187.378 159.79999999999927,187.565 160.0,187.721 C160.10000000000036,187.888 160.29999999999927,187.971 160.60000000000036,187.971 C160.89999999999964,187.971 161.70000000000073,187.581 163.0,186.8 C164.20000000000073,186.018 164.89999999999964,185.451 165.20000000000073,185.096 C165.29999999999927,184.93 165.39999999999964,184.742 165.39999999999964,184.534 M164.39999999999964,183.096 C165.5,183.096 166.0,183.576 166.0,184.534 C166.0,185.003 165.89999999999964,185.55 165.60000000000036,186.175 C165.39999999999964,186.789 165.0,187.258 164.5,187.581 C163.5,188.258 162.29999999999927,188.596 160.79999999999927,188.596 C159.60000000000036,188.596 159.10000000000036,188.117 159.10000000000036,187.159 C159.10000000000036,186.732 159.20000000000073,186.19 159.5,185.534 C159.70000000000073,184.909 160.10000000000036,184.435 160.60000000000036,184.112 C161.60000000000036,183.435 162.89999999999964,183.096 164.39999999999964,183.096" />
<path d="M165.39999999999964,194.534 C165.39999999999964,194.315 165.29999999999927,194.128 165.10000000000036,193.971 C165.0,193.805 164.79999999999927,193.721 164.60000000000036,193.721 C164.20000000000073,193.721 163.39999999999964,194.112 162.20000000000073,194.893 C161.0,195.685 160.20000000000073,196.253 159.89999999999964,196.596 C159.79999999999927,196.774 159.70000000000073,196.961 159.70000000000073,197.159 C159.70000000000073,197.378 159.79999999999927,197.565 160.0,197.721 C160.10000000000036,197.888 160.29999999999927,197.971 160.60000000000036,197.971 C160.89999999999964,197.971 161.70000000000073,197.581 163.0,196.8 C164.20000000000073,196.018 164.89999999999964,195.451 165.20000000000073,195.096 C165.29999999999927,194.93 165.39999999999964,194.742 165.39999999999964,194.534 M164.39999999999964,193.096 C165.5,193.096 166.0,193.576 166.0,194.534 C166.0,195.003 165.89999999999964,195.55 165.60000000000036,196.175 C165.39999999999964,196.789 165.0,197.258 164.5,197.581 C163.5,198.258 162.29999999999927,198.596 160.79999999999927,198.596 C159.60000000000036,198.596 159.10000000000036,198.117 159.10000000000036,197.159 C159.10000000000036,196.732 159.20000000000073,196.19 159.5,195.534 C159.70000000000073,194.909 160.10000000000036,194.435 160.60000000000036,194.112 C161.60000000000036,193.435 162.89999999999964,193.096 164.39999999999964,193.096" />
<path d="M163.70000000000073,110.596 C164.29999999999927,110.596 164.79999999999927,110.758 165.20000000000073,111.081 C165.60000000000036,111.435 165.79999999999927,111.878 165.79999999999927,112.409 C165.79999999999927,113.305 165.39999999999964,114.143 164.5,114.925 C163.5,115.706 162.5,116.096 161.39999999999964,116.096 C160.79999999999927,116.096 160.29999999999927,115.935 159.89999999999964,115.612 C159.5,115.258 159.29999999999927,114.815 159.29999999999927,114.284 C159.29999999999927,113.388 159.70000000000073,112.55 160.70000000000073,111.768 C161.60000000000036,110.987 162.60000000000036,110.596 163.70000000000073,110.596" />
<path d="M163.70000000000073,88.0965 C164.29999999999927,88.0965 164.79999999999927,88.2579 165.20000000000073,88.5808 C165.60000000000036,88.935 165.79999999999927,89.3777 165.79999999999927,89.909 C165.79999999999927,90.8048 165.39999999999964,91.6433 164.5,92.4246 C163.5,93.2058 162.5,93.5965 161.39999999999964,93.5965 C160.79999999999927,93.5965 160.29999999999927,93.435 159.89999999999964,93.1121 C159.5,92.7579 159.29999999999927,92.3152 159.29999999999927,91.784 C159.29999999999927,90.8881 159.70000000000073,90.0496 160.70000000000073,89.2683 C161.60000000000036,88.4871 162.60000000000036,88.0965 163.70000000000073,88.0965" />
<path d="M148.70000000000073,238.096 C149.39999999999964,238.096 149.89999999999964,238.258 150.29999999999927,238.581 C150.70000000000073,238.935 150.89999999999964,239.378 150.89999999999964,239.909 C150.89999999999964,240.805 150.5,241.643 149.5,242.425 C148.60000000000036,243.206 147.60000000000036,243.596 146.5,243.596 C145.89999999999964,243.596 145.39999999999964,243.435 144.89999999999964,243.112 C144.5,242.758 144.29999999999927,242.315 144.29999999999927,241.784 C144.29999999999927,240.888 144.79999999999927,240.05 145.70000000000073,239.268 C146.70000000000073,238.487 147.70000000000073,238.096 148.70000000000073,238.096" />
<path d="M133.79999999999927,93.0965 C134.39999999999964,93.0965 135.0,93.2579 135.39999999999964,93.5808 C135.79999999999927,93.935 136.0,94.3777 136.0,94.909 C136.0,95.8048 135.5,96.6433 134.60000000000036,97.4246 C133.70000000000073,98.2058 132.70000000000073,98.5965 131.60000000000036,98.5965 C131.0,98.5965 130.5,98.435 130.0,98.1121 C129.60000000000036,97.7579 129.39999999999964,97.3152 129.39999999999964,96.784 C129.39999999999964,95.8881 129.89999999999964,95.0496 130.79999999999927,94.2683 C131.70000000000073,93.4871 132.70000000000073,93.0965 133.79999999999927,93.0965" />
<path d="M133.79999999999927,70.5965 C134.39999999999964,70.5965 135.0,70.7579 135.39999999999964,71.0808 C135.79999999999927,71.435 136.0,71.8777 136.0,72.409 C136.0,73.3048 135.5,74.1433 134.60000000000036,74.9246 C133.70000000000073,75.7058 132.70000000000073,76.0965 131.60000000000036,76.0965 C131.0,76.0965 130.5,75.935 130.0,75.6121 C129.60000000000036,75.2579 129.39999999999964,74.8152 129.39999999999964,74.284 C129.39999999999964,73.3881 129.89999999999964,72.5496 130.79999999999927,71.7683 C131.70000000000073,70.9871 132.70000000000073,70.5965 133.79999999999927,70.5965" />
<path d="M118.29999999999927,85.5965 C119.0,85.5965 119.5,85.7579 119.89999999999964,86.0808 C120.29999999999927,86.435 120.5,86.8777 120.5,87.409 C120.5,88.3048 120.10000000000036,89.1433 119.20000000000073,89.9246 C118.20000000000073,90.7058 117.20000000000073,91.0965 116.10000000000036,91.0965 C115.5,91.0965 115.0,90.935 114.60000000000036,90.6121 C114.20000000000073,90.2579 113.89999999999964,89.8152 113.89999999999964,89.284 C113.89999999999964,88.3881 114.39999999999964,87.5496 115.39999999999964,86.7683 C116.29999999999927,85.9871 117.29999999999927,85.5965 118.29999999999927,85.5965" />
<path d="M118.29999999999927,63.0965 C119.0,63.0965 119.5,63.2579 119.89999999999964,63.5808 C120.29999999999927,63.935 120.5,64.3777 120.5,64.909 C120.5,65.8048 120.10000000000036,66.6433 119.20000000000073,67.4246 C118.20000000000073,68.2058 117.20000000000073,68.5965 116.10000000000036,68.5965 C115.5,68.5965 115.0,68.435 114.60000000000036,68.1121 C114.20000000000073,67.7579 113.89999999999964,67.3152 113.89999999999964,66.784 C113.89999999999964,65.8881 114.39999999999964,65.0496 115.39999999999964,64.2683 C116.29999999999927,63.4871 117.29999999999927,63.0965 118.29999999999927,63.0965" />
<path d="M102.89999999999964,230.596 C103.5,230.596 104.0,230.758 104.5,231.081 C104.89999999999964,231.435 105.10000000000036,231.878 105.10000000000036,232.409 C105.10000000000036,233.305 104.60000000000036,234.143 103.70000000000073,234.925 C102.70000000000073,235.706 101.70000000000073,236.096 100.70000000000073,236.096 C100.0,236.096 99.5,235.935 99.10000000000036,235.612 C98.70000000000073,235.258 98.5,234.815 98.5,234.284 C98.5,233.388 98.89999999999964,232.55 99.89999999999964,231.768 C100.79999999999927,230.987 101.79999999999927,230.596 102.89999999999964,230.596" />
<path d="M102.89999999999964,83.0965 C103.5,83.0965 104.0,83.2579 104.5,83.5808 C104.89999999999964,83.935 105.10000000000036,84.3777 105.10000000000036,84.909 C105.10000000000036,85.8048 104.60000000000036,86.6433 103.70000000000073,87.4246 C102.70000000000073,88.2058 101.70000000000073,88.5965 100.70000000000073,88.5965 C100.0,88.5965 99.5,88.435 99.10000000000036,88.1121 C98.70000000000073,87.7579 98.5,87.3152 98.5,86.784 C98.5,85.8881 98.89999999999964,85.0496 99.89999999999964,84.2683 C100.79999999999927,83.4871 101.79999999999927,83.0965 102.89999999999964,83.0965" />
<path d="M102.89999999999964,90.5965 C103.5,90.5965 104.0,90.7579 104.5,91.0808 C104.89999999999964,91.435 105.10000000000036,91.8777 105.10000000000036,92.409 C105.10000000000036,93.3048 104.60000000000036,94.1433 103.70000000000073,94.9246 C102.70000000000073,95.7058 101.70000000000073,96.0965 100.70000000000073,96.0965 C100.0,96.0965 99.5,95.935 99.10000000000036,95.6121 C98.70000000000073,95.2579 98.5,94.8152 98.5,94.284 C98.5,93.3881 98.89999999999964,92.5496 99.89999999999964,91.7683 C100.79999999999927,90.9871 101.79999999999927,90.5965 102.89999999999964,90.5965" />
<path d="M102.89999999999964,60.5965 C103.5,60.5965 104.0,60.7579 104.5,61.0808 C104.89999999999964,61.435 105.10000000000036,61.8777 105.10000000000036,62.409 C105.10000000000036,63.3048 104.60000000000036,64.1433 103.70000000000073,64.9246 C102.70000000000073,65.7058 101.70000000000073,66.0965 100.70000000000073,66.0965 C100.0,66.0965 99.5,65.935 99.10000000000036,65.6121 C98.70000000000073,65.2579 98.5,64.8152 98.5,64.284 C98.5,63.3881 98.89999999999964,62.5496 99.89999999999964,61.7683 C100.79999999999927,60.9871 101.79999999999927,60.5965 102.89999999999964,60.5965" />
<path d="M102.89999999999964,68.0965 C103.5,68.0965 104.0,68.2579 104.5,68.5808 C104.89999999999964,68.935 105.10000000000036,69.3777 105.10000000000036,69.909 C105.10000000000036,70.8048 104.60000000000036,71.6433 103.70000000000073,72.4246 C102.70000000000073,73.2058 101.70000000000073,73.5965 100.70000000000073,73.5965 C100.0,73.5965 99.5,73.435 99.10000000000036,73.1121 C98.70000000000073,72.7579 98.5,72.3152 98.5,71.784 C98.5,70.8881 98.89999999999964,70.0496 99.89999999999964,69.2683 C100.79999999999927,68.4871 101.79999999999927,68.0965 102.89999999999964,68.0965" />
<path d="M55.100000000000364,230.596 C55.70000000000073,230.596 56.29999999999927,230.758 56.70000000000073,231.081 C57.100000000000364,231.435 57.29999999999927,231.878 57.29999999999927,232.409 C57.29999999999927,233.305 56.79999999999927,234.143 55.899999999999636,234.925 C55.0,235.706 54.0,236.096 52.899999999999636,236.096 C52.29999999999927,236.096 51.79999999999927,235.935 51.29999999999927,235.612 C50.899999999999636,235.258 50.70000000000073,234.815 50.70000000000073,234.284 C50.70000000000073,233.388 51.20000000000073,232.55 52.100000000000364,231.768 C53.0,230.987 54.0,230.596 55.100000000000364,230.596" />
<path d="M63.20000000000073,169.534 C63.20000000000073,169.315 63.100000000000364,169.128 62.899999999999636,168.971 C62.70000000000073,168.805 62.5,168.721 62.29999999999927,168.721 C61.899999999999636,168.721 61.100000000000364,169.112 59.899999999999636,169.893 C58.70000000000073,170.685 58.0,171.253 57.70000000000073,171.596 C57.600000000000364,171.774 57.5,171.961 57.5,172.159 C57.5,172.378 57.600000000000364,172.565 57.70000000000073,172.721 C57.899999999999636,172.888 58.100000000000364,172.971 58.29999999999927,172.971 C58.70000000000073,172.971 59.5,172.581 60.70000000000073,171.8 C61.899999999999636,171.018 62.70000000000073,170.451 62.899999999999636,170.096 C63.100000000000364,169.93 63.20000000000073,169.742 63.20000000000073,169.534 M62.100000000000364,168.096 C63.20000000000073,168.096 63.79999999999927,168.576 63.79999999999927,169.534 C63.79999999999927,170.003 63.70000000000073,170.55 63.399999999999636,171.175 C63.100000000000364,171.789 62.70000000000073,172.258 62.29999999999927,172.581 C61.29999999999927,173.258 60.0,173.596 58.5,173.596 C57.399999999999636,173.596 56.79999999999927,173.117 56.79999999999927,172.159 C56.79999999999927,171.732 57.0,171.19 57.20000000000073,170.534 C57.5,169.909 57.899999999999636,169.435 58.29999999999927,169.112 C59.29999999999927,168.435 60.600000000000364,168.096 62.100000000000364,168.096" />
<path d="M56.899999999999636,169.534 C56.899999999999636,169.315 56.79999999999927,169.128 56.600000000000364,168.971 C56.399999999999636,168.805 56.20000000000073,168.721 56.0,168.721 C55.600000000000364,168.721 54.79999999999927,169.112 53.70000000000073,169.893 C52.399999999999636,170.685 51.70000000000073,171.253 51.399999999999636,171.596 C51.29999999999927,171.774 51.20000000000073,171.961 51.20000000000073,172.159 C51.20000000000073,172.378 51.29999999999927,172.565 51.5,172.721 C51.600000000000364,172.888 51.79999999999927,172.971 52.0,172.971 C52.399999999999636,172.971 53.20000000000073,172.581 54.399999999999636,171.8 C55.600000000000364,171.018 56.399999999999636,170.451 56.600000000000364,170.096 C56.79999999999927,169.93 56.899999999999636,169.742 56.899999999999636,169.534 M55.79999999999927,168.096 C56.899999999999636,168.096 57.5,168.576 57.5,169.534 C57.5,170.003 57.399999999999636,170.55 57.100000000000364,171.175 C56.79999999999927,171.789 56.5,172.258 56.0,172.581 C55.0,173.258 53.70000000000073,173.596 52.20000000000073,173.596 C51.100000000000364,173.596 50.5,173.117 50.5,172.159 C50.5,171.732 50.70000000000073,171.19 51.0,170.534 C51.20000000000073,169.909 51.600000000000364,169.435 52.0,169.112 C53.100000000000364,168.435 54.29999999999927,168.096 55.79999999999927,168.096" />
<path d="M56.899999999999636,174.534 C56.899999999999636,174.315 56.79999999999927,174.128 56.600000000000364,173.971 C56.399999999999636,173.805 56.20000000000073,173.721 56.0,173.721 C55.600000000000364,173.721 54.79999999999927,174.112 53.70000000000073,174.893 C52.399999999999636,175.685 51.70000000000073,176.253 51.399999999999636,176.596 C51.29999999999927,176.774 51.20000000000073,176.961 51.20000000000073,177.159 C51.20000000000073,177.378 51.29999999999927,177.565 51.5,177.721 C51.600000000000364,177.888 51.79999999999927,177.971 52.0,177.971 C52.399999999999636,177.971 53.20000000000073,177.581 54.399999999999636,176.8 C55.600000000000364,176.018 56.399999999999636,175.451 56.600000000000364,175.096 C56.79999999999927,174.93 56.899999999999636,174.742 56.899999999999636,174.534 M55.79999999999927,173.096 C56.899999999999636,173.096 57.5,173.576 57.5,174.534 C57.5,175.003 57.399999999999636,175.55 57.100000000000364,176.175 C56.79999999999927,176.789 56.5,177.258 56.0,177.581 C55.0,178.258 53.70000000000073,178.596 52.20000000000073,178.596 C51.100000000000364,178.596 50.5,178.117 50.5,177.159 C50.5,176.732 50.70000000000073,176.19 51.0,175.534 C51.20000000000073,174.909 51.600000000000364,174.435 52.0,174.112 C53.100000000000364,173.435 54.29999999999927,173.096 55.79999999999927,173.096" />
<path d="M56.899999999999636,182.034 C56.899999999999636,181.815 56.79999999999927,181.628 56.600000000000364,181.471 C56.399999999999636,181.305 56.20000000000073,181.221 56.0,181.221 C55.600000000000364,181.221 54.79999999999927,181.612 53.70000000000073,182.393 C52.399999999999636,183.185 51.70000000000073,183.753 51.399999999999636,184.096 C51.29999999999927,184.274 51.20000000000073,184.461 51.20000000000073,184.659 C51.20000000000073,184.878 51.29999999999927,185.065 51.5,185.221 C51.600000000000364,185.388 51.79999999999927,185.471 52.0,185.471 C52.399999999999636,185.471 53.20000000000073,185.081 54.399999999999636,184.3 C55.600000000000364,183.518 56.399999999999636,182.951 56.600000000000364,182.596 C56.79999999999927,182.43 56.899999999999636,182.242 56.899999999999636,182.034 M55.79999999999927,180.596 C56.899999999999636,180.596 57.5,181.076 57.5,182.034 C57.5,182.503 57.399999999999636,183.05 57.100000000000364,183.675 C56.79999999999927,184.289 56.5,184.758 56.0,185.081 C55.0,185.758 53.70000000000073,186.096 52.20000000000073,186.096 C51.100000000000364,186.096 50.5,185.617 50.5,184.659 C50.5,184.232 50.70000000000073,183.69 51.0,183.034 C51.20000000000073,182.409 51.600000000000364,181.935 52.0,181.612 C53.100000000000364,180.935 54.29999999999927,180.596 55.79999999999927,180.596" />
<path d="M56.899999999999636,192.034 C56.899999999999636,191.815 56.79999999999927,191.628 56.600000000000364,191.471 C56.399999999999636,191.305 56.20000000000073,191.221 56.0,191.221 C55.600000000000364,191.221 54.79999999999927,191.612 53.70000000000073,192.393 C52.399999999999636,193.185 51.70000000000073,193.753 51.399999999999636,194.096 C51.29999999999927,194.274 51.20000000000073,194.461 51.20000000000073,194.659 C51.20000000000073,194.878 51.29999999999927,195.065 51.5,195.221 C51.600000000000364,195.388 51.79999999999927,195.471 52.0,195.471 C52.399999999999636,195.471 53.20000000000073,195.081 54.399999999999636,194.3 C55.600000000000364,193.518 56.399999999999636,192.951 56.600000000000364,192.596 C56.79999999999927,192.43 56.899999999999636,192.242 56.899999999999636,192.034 M55.79999999999927,190.596 C56.899999999999636,190.596 57.5,191.076 57.5,192.034 C57.5,192.503 57.399999999999636,193.05 57.100000000000364,193.675 C56.79999999999927,194.289 56.5,194.758 56.0,195.081 C55.0,195.758 53.70000000000073,196.096 52.20000000000073,196.096 C51.100000000000364,196.096 50.5,195.617 50.5,194.659 C50.5,194.232 50.70000000000073,193.69 51.0,193.034 C51.20000000000073,192.409 51.600000000000364,191.935 52.0,191.612 C53.100000000000364,190.935 54.29999999999927,190.596 55.79999999999927,190.596" />
<path d="M27.0,87.6277 L29.399999999999636,85.6746 C29.399999999999636,85.6225 29.5,85.5965 29.5,85.5965 C29.600000000000364,85.5965 29.700000000000728,85.6225 29.700000000000728,85.6746 L30.200000000000728,85.9871 C30.200000000000728,86.0496 30.200000000000728,86.1277 30.200000000000728,86.2215 C30.200000000000728,86.284 30.200000000000728,86.3621 30.200000000000728,86.4558 L27.799999999999272,88.3465 L30.200000000000728,90.2371 C30.200000000000728,90.31 30.200000000000728,90.3907 30.200000000000728,90.4793 C30.200000000000728,90.5678 30.200000000000728,90.6433 30.200000000000728,90.7058 L29.700000000000728,91.0183 C29.700000000000728,91.0704 29.600000000000364,91.0965 29.5,91.0965 C29.5,91.0965 29.399999999999636,91.0704 29.399999999999636,91.0183 L27.0,89.0652 L24.5,91.0183 C24.5,91.0704 24.399999999999636,91.0965 24.399999999999636,91.0965 C24.299999999999272,91.0965 24.200000000000728,91.0704 24.200000000000728,91.0183 L23.799999999999272,90.7058 C23.700000000000728,90.6433 23.700000000000728,90.5652 23.700000000000728,90.4715 C23.700000000000728,90.409 23.700000000000728,90.3308 23.799999999999272,90.2371 L26.100000000000364,88.3465 L23.799999999999272,86.4558 C23.700000000000728,86.3829 23.700000000000728,86.3022 23.700000000000728,86.2136 C23.700000000000728,86.1251 23.700000000000728,86.0496 23.799999999999272,85.9871 L24.200000000000728,85.6746 C24.200000000000728,85.6225 24.299999999999272,85.5965 24.399999999999636,85.5965 C24.399999999999636,85.5965 24.5,85.6225 24.5,85.6746 L27.0,87.6277" />
<path d="M27.0,95.1277 L29.399999999999636,93.1746 C29.399999999999636,93.1225 29.5,93.0965 29.5,93.0965 C29.600000000000364,93.0965 29.700000000000728,93.1225 29.700000000000728,93.1746 L30.200000000000728,93.4871 C30.200000000000728,93.5496 30.200000000000728,93.6277 30.200000000000728,93.7215 C30.200000000000728,93.784 30.200000000000728,93.8621 30.200000000000728,93.9558 L27.799999999999272,95.8465 L30.200000000000728,97.7371 C30.200000000000728,97.81 30.200000000000728,97.8907 30.200000000000728,97.9793 C30.200000000000728,98.0678 30.200000000000728,98.1433 30.200000000000728,98.2058 L29.700000000000728,98.5183 C29.700000000000728,98.5704 29.600000000000364,98.5965 29.5,98.5965 C29.5,98.5965 29.399999999999636,98.5704 29.399999999999636,98.5183 L27.0,96.5652 L24.5,98.5183 C24.5,98.5704 24.399999999999636,98.5965 24.399999999999636,98.5965 C24.299999999999272,98.5965 24.200000000000728,98.5704 24.200000000000728,98.5183 L23.799999999999272,98.2058 C23.700000000000728,98.1433 23.700000000000728,98.0652 23.700000000000728,97.9715 C23.700000000000728,97.909 23.700000000000728,97.8308 23.799999999999272,97.7371 L26.100000000000364,95.8465 L23.799999999999272,93.9558 C23.700000000000728,93.8829 23.700000000000728,93.8022 23.700000000000728,93.7136 C23.700000000000728,93.6251 23.700000000000728,93.5496 23.799999999999272,93.4871 L24.200000000000728,93.1746 C24.200000000000728,93.1225 24.299999999999272,93.0965 24.399999999999636,93.0965 C24.399999999999636,93.0965 24.5,93.1225 24.5,93.1746 L27.0,95.1277" />
<path d="M27.0,65.1277 L29.399999999999636,63.1746 C29.399999999999636,63.1225 29.5,63.0965 29.5,63.0965 C29.600000000000364,63.0965 29.700000000000728,63.1225 29.700000000000728,63.1746 L30.200000000000728,63.4871 C30.200000000000728,63.5496 30.200000000000728,63.6277 30.200000000000728,63.7215 C30.200000000000728,63.784 30.200000000000728,63.8621 30.200000000000728,63.9558 L27.799999999999272,65.8465 L30.200000000000728,67.7371 C30.200000000000728,67.81 30.200000000000728,67.8907 30.200000000000728,67.9793 C30.200000000000728,68.0678 30.200000000000728,68.1433 30.200000000000728,68.2058 L29.700000000000728,68.5183 C29.700000000000728,68.5704 29.600000000000364,68.5965 29.5,68.5965 C29.5,68.5965 29.399999999999636,68.5704 29.399999999999636,68.5183 L27.0,66.5652 L24.5,68.5183 C24.5,68.5704 24.399999999999636,68.5965 24.399999999999636,68.5965 C24.299999999999272,68.5965 24.200000000000728,68.5704 24.200000000000728,68.5183 L23.799999999999272,68.2058 C23.700000000000728,68.1433 23.700000000000728,68.0652 23.700000000000728,67.9715 C23.700000000000728,67.909 23.700000000000728,67.8308 23.799999999999272,67.7371 L26.100000000000364,65.8465 L23.799999999999272,63.9558 C23.700000000000728,63.8829 23.700000000000728,63.8022 23.700000000000728,63.7136 C23.700000000000728,63.6251 23.700000000000728,63.5496 23.799999999999272,63.4871 L24.200000000000728,63.1746 C24.200000000000728,63.1225 24.299999999999272,63.0965 24.399999999999636,63.0965 C24.399999999999636,63.0965 24.5,63.1225 24.5,63.1746 L27.0,65.1277" />
<path d="M27.0,72.6277 L29.399999999999636,70.6746 C29.399999999999636,70.6225 29.5,70.5965 29.5,70.5965 C29.600000000000364,70.5965 29.700000000000728,70.6225 29.700000000000728,70.6746 L30.200000000000728,70.9871 C30.200000000000728,71.0496 30.200000000000728,71.1277 30.200000000000728,71.2215 C30.200000000000728,71.284 30.200000000000728,71.3621 30.200000000000728,71.4558 L27.799999999999272,73.3465 L30.200000000000728,75.2371 C30.200000000000728,75.31 30.200000000000728,75.3907 30.200000000000728,75.4793 C30.200000000000728,75.5678 30.200000000000728,75.6433 30.200000000000728,75.7058 L29.700000000000728,76.0183 C29.700000000000728,76.0704 29.600000000000364,76.0965 29.5,76.0965 C29.5,76.0965 29.399999999999636,76.0704 29.399999999999636,76.0183 L27.0,74.0652 L24.5,76.0183 C24.5,76.0704 24.399999999999636,76.0965 24.399999999999636,76.0965 C24.299999999999272,76.0965 24.200000000000728,76.0704 24.200000000000728,76.0183 L23.799999999999272,75.7058 C23.700000000000728,75.6433 23.700000000000728,75.5652 23.700000000000728,75.4715 C23.700000000000728,75.409 23.700000000000728,75.3308 23.799999999999272,75.2371 L26.100000000000364,73.3465 L23.799999999999272,71.4558 C23.700000000000728,71.3829 23.700000000000728,71.3022 23.700000000000728,71.2136 C23.700000000000728,71.1251 23.700000000000728,71.0496 23.799999999999272,70.9871 L24.200000000000728,70.6746 C24.200000000000728,70.6225 24.299999999999272,70.5965 24.399999999999636,70.5965 C24.399999999999636,70.5965 24.5,70.6225 24.5,70.6746 L27.0,72.6277" />
<path d="M10.100000000000364,225.596 C10.700000000000728,225.596 11.299999999999272,225.758 11.700000000000728,226.081 C12.100000000000364,226.435 12.299999999999272,226.878 12.299999999999272,227.409 C12.299999999999272,228.305 11.799999999999272,229.143 10.899999999999636,229.925 C10.0,230.706 9.0,231.096 7.899999999999636,231.096 C7.299999999999272,231.096 6.799999999999272,230.935 6.299999999999272,230.612 C5.899999999999636,230.258 5.700000000000728,229.815 5.700000000000728,229.284 C5.700000000000728,228.388 6.200000000000728,227.55 7.100000000000364,226.768 C8.0,225.987 9.0,225.596 10.100000000000364,225.596" />
<path d="M206.89999999999964,229.284 C206.89999999999964,229.044 207.0,228.784 207.29999999999927,228.503 C207.5,228.294 207.79999999999927,228.044 208.20000000000073,227.753 C208.39999999999964,227.565 208.70000000000073,227.274 209.0,226.878 C209.20000000000073,226.503 209.39999999999964,226.091 209.39999999999964,225.643 C209.39999999999964,225.122 209.20000000000073,224.664 208.89999999999964,224.268 L208.20000000000073,223.425 C208.10000000000036,223.372 208.10000000000036,223.307 208.10000000000036,223.229 C208.10000000000036,223.151 208.10000000000036,223.081 208.20000000000073,223.018 C208.29999999999927,222.945 208.39999999999964,222.909 208.39999999999964,222.909 C208.5,222.909 208.60000000000036,222.951 208.70000000000073,223.034 L211.70000000000073,226.628 C211.79999999999927,226.794 211.89999999999964,226.961 211.89999999999964,227.128 C211.89999999999964,227.367 211.70000000000073,227.628 211.5,227.909 C211.29999999999927,228.096 211.0,228.346 210.70000000000073,228.659 C210.39999999999964,228.836 210.10000000000036,229.128 209.79999999999927,229.534 C209.5,229.909 209.39999999999964,230.32 209.39999999999964,230.768 C209.39999999999964,231.32 209.60000000000036,231.784 209.89999999999964,232.159 L211.5,234.128 C211.60000000000036,234.169 211.60000000000036,234.237 211.60000000000036,234.331 C211.60000000000036,234.414 211.60000000000036,234.492 211.5,234.565 C211.5,234.628 211.39999999999964,234.659 211.29999999999927,234.659 C211.29999999999927,234.659 211.20000000000073,234.586 211.0,234.44 C210.79999999999927,234.284 210.5,234.133 210.20000000000073,233.987 C209.89999999999964,233.852 209.5,233.784 209.10000000000036,233.784 C208.79999999999927,233.784 208.60000000000036,233.872 208.29999999999927,234.05 C208.20000000000073,234.237 208.10000000000036,234.591 208.10000000000036,235.112 C208.10000000000036,235.904 208.29999999999927,236.529 208.60000000000036,236.987 C208.70000000000073,237.039 208.70000000000073,237.102 208.70000000000073,237.175 C208.60000000000036,237.227 208.60000000000036,237.253 208.5,237.253 C208.39999999999964,237.253 208.20000000000073,237.018 207.89999999999964,236.55 C207.60000000000036,236.06 207.29999999999927,235.492 207.0,234.846 C206.70000000000073,234.169 206.5,233.612 206.5,233.175 C206.5,232.612 206.79999999999927,232.331 207.29999999999927,232.331 C208.0,232.331 208.79999999999927,232.539 209.70000000000073,232.956 L207.10000000000036,229.784 C207.0,229.617 206.89999999999964,229.451 206.89999999999964,229.284" />
<path d="M50.600000000000364,124.284 C50.600000000000364,124.044 50.70000000000073,123.784 51.0,123.503 C51.20000000000073,123.294 51.5,123.044 51.899999999999636,122.753 C52.100000000000364,122.565 52.399999999999636,122.274 52.70000000000073,121.878 C53.0,121.503 53.100000000000364,121.091 53.100000000000364,120.643 C53.100000000000364,120.122 52.899999999999636,119.664 52.600000000000364,119.268 L51.899999999999636,118.425 C51.79999999999927,118.372 51.79999999999927,118.307 51.79999999999927,118.229 C51.79999999999927,118.151 51.79999999999927,118.081 51.899999999999636,118.018 C52.0,117.945 52.100000000000364,117.909 52.100000000000364,117.909 C52.20000000000073,117.909 52.29999999999927,117.951 52.399999999999636,118.034 L55.399999999999636,121.628 C55.5,121.794 55.600000000000364,121.961 55.600000000000364,122.128 C55.600000000000364,122.367 55.5,122.628 55.20000000000073,122.909 C55.0,123.096 54.79999999999927,123.346 54.399999999999636,123.659 C54.100000000000364,123.836 53.79999999999927,124.128 53.5,124.534 C53.20000000000073,124.909 53.100000000000364,125.32 53.100000000000364,125.768 C53.100000000000364,126.32 53.29999999999927,126.784 53.600000000000364,127.159 L55.29999999999927,129.128 C55.29999999999927,129.169 55.29999999999927,129.237 55.29999999999927,129.331 C55.29999999999927,129.414 55.29999999999927,129.492 55.29999999999927,129.565 C55.20000000000073,129.628 55.100000000000364,129.659 55.0,129.659 C55.0,129.659 54.899999999999636,129.586 54.70000000000073,129.44 C54.5,129.284 54.29999999999927,129.133 53.899999999999636,128.987 C53.600000000000364,128.852 53.20000000000073,128.784 52.79999999999927,128.784 C52.5,128.784 52.29999999999927,128.872 52.100000000000364,129.05 C51.899999999999636,129.237 51.79999999999927,129.591 51.79999999999927,130.112 C51.79999999999927,130.904 52.0,131.529 52.29999999999927,131.987 C52.399999999999636,132.039 52.399999999999636,132.102 52.399999999999636,132.175 C52.29999999999927,132.227 52.29999999999927,132.253 52.20000000000073,132.253 C52.100000000000364,132.253 51.899999999999636,132.018 51.600000000000364,131.55 C51.29999999999927,131.06 51.0,130.492 50.70000000000073,129.846 C50.399999999999636,129.169 50.29999999999927,128.612 50.29999999999927,128.175 C50.29999999999927,127.612 50.5,127.331 51.100000000000364,127.331 C51.70000000000073,127.331 52.5,127.539 53.399999999999636,127.956 L50.79999999999927,124.784 C50.70000000000073,124.617 50.600000000000364,124.451 50.600000000000364,124.284" />
<path d="M50.600000000000364,71.784 C50.600000000000364,71.5444 50.70000000000073,71.284 51.0,71.0027 C51.20000000000073,70.7944 51.5,70.5444 51.899999999999636,70.2527 C52.100000000000364,70.0652 52.399999999999636,69.7735 52.70000000000073,69.3777 C53.0,69.0027 53.100000000000364,68.5912 53.100000000000364,68.1433 C53.100000000000364,67.6225 52.899999999999636,67.1642 52.600000000000364,66.7683 L51.899999999999636,65.9246 C51.79999999999927,65.8725 51.79999999999927,65.8074 51.79999999999927,65.7293 C51.79999999999927,65.6511 51.79999999999927,65.5808 51.899999999999636,65.5183 C52.0,65.4454 52.100000000000364,65.409 52.100000000000364,65.409 C52.20000000000073,65.409 52.29999999999927,65.4506 52.399999999999636,65.534 L55.399999999999636,69.1277 C55.5,69.2944 55.600000000000364,69.461 55.600000000000364,69.6277 C55.600000000000364,69.8673 55.5,70.1277 55.20000000000073,70.409 C55.0,70.5965 54.79999999999927,70.8465 54.399999999999636,71.159 C54.100000000000364,71.336 53.79999999999927,71.6277 53.5,72.034 C53.20000000000073,72.409 53.100000000000364,72.8204 53.100000000000364,73.2683 C53.100000000000364,73.8204 53.29999999999927,74.284 53.600000000000364,74.659 L55.29999999999927,76.6277 C55.29999999999927,76.6694 55.29999999999927,76.7371 55.29999999999927,76.8308 C55.29999999999927,76.9142 55.29999999999927,76.9923 55.29999999999927,77.0652 C55.20000000000073,77.1277 55.100000000000364,77.159 55.0,77.159 C55.0,77.159 54.899999999999636,77.086 54.70000000000073,76.9402 C54.5,76.784 54.29999999999927,76.6329 53.899999999999636,76.4871 C53.600000000000364,76.3517 53.20000000000073,76.284 52.79999999999927,76.284 C52.5,76.284 52.29999999999927,76.3725 52.100000000000364,76.5496 C51.899999999999636,76.7371 51.79999999999927,77.0912 51.79999999999927,77.6121 C51.79999999999927,78.4037 52.0,79.0287 52.29999999999927,79.4871 C52.399999999999636,79.5392 52.399999999999636,79.6017 52.399999999999636,79.6746 C52.29999999999927,79.7267 52.29999999999927,79.7527 52.20000000000073,79.7527 C52.100000000000364,79.7527 51.899999999999636,79.5183 51.600000000000364,79.0496 C51.29999999999927,78.56 51.0,77.9923 50.70000000000073,77.3465 C50.399999999999636,76.6694 50.29999999999927,76.1121 50.29999999999927,75.6746 C50.29999999999927,75.1121 50.5,74.8308 51.100000000000364,74.8308 C51.70000000000073,74.8308 52.5,75.0392 53.399999999999636,75.4558 L50.79999999999927,72.284 C50.70000000000073,72.1173 50.600000000000364,71.9506 50.600000000000364,71.784" />
<path d="M165.20000000000073,219.596 L189.70000000000073,219.596 L189.70000000000073,222.096 L165.20000000000073,222.096 L165.20000000000073,219.596" />
<path d="M159.29999999999927,125.846 L183.79999999999927,123.278 L183.79999999999927,125.778 L159.29999999999927,128.346 L159.29999999999927,125.846" />
<path d="M165.20000000000073,70.9826 L189.70000000000073,65.8465 L189.70000000000073,68.3465 L165.20000000000073,73.4826 L165.20000000000073,70.9826" />
<path d="M104.39999999999964,215.793 L150.89999999999964,219.596 L150.89999999999964,222.096 L104.39999999999964,218.293 L104.39999999999964,215.793" />
<path d="M150.89999999999964,223.346 L144.29999999999927,222.807 L144.29999999999927,225.307 L150.89999999999964,225.846 L150.89999999999964,223.346" />
<path d="M98.5,123.346 L130.10000000000036,124.623 L130.10000000000036,127.123 L98.5,125.846 L98.5,123.346" />
<path d="M98.5,119.596 L114.60000000000036,120.248 L114.60000000000036,122.748 L98.5,122.096 L98.5,119.596" />
<path d="M98.5,85.8465 L130.10000000000036,87.1227 L130.10000000000036,89.6227 L98.5,88.3465 L98.5,85.8465" />
<path d="M98.5,82.0965 L114.60000000000036,82.7477 L114.60000000000036,85.2477 L98.5,84.5965 L98.5,82.0965" />
<path d="M24.299999999999272,119.596 L17.700000000000728,119.596 L17.700000000000728,122.096 L24.299999999999272,122.096 L24.299999999999272,119.596" />
<path d="M24.299999999999272,83.3465 L17.700000000000728,83.3465 L17.700000000000728,85.8465 L24.299999999999272,85.8465 L24.299999999999272,83.3465" />
<path d="M107.10000000000036,234.151 C106.89999999999964,233.927 106.79999999999927,233.659 106.79999999999927,233.346 C106.79999999999927,233.034 106.89999999999964,232.766 107.10000000000036,232.542 C107.39999999999964,232.318 107.60000000000036,232.206 108.0,232.206 C108.29999999999927,232.206 108.5,232.318 108.79999999999927,232.542 C109.0,232.766 109.10000000000036,233.034 109.10000000000036,233.346 C109.10000000000036,233.659 109.0,233.927 108.79999999999927,234.151 C108.5,234.375 108.29999999999927,234.487 108.0,234.487 C107.60000000000036,234.487 107.39999999999964,234.375 107.10000000000036,234.151" />
<polyline points="0.0,63.3465 255.0,63.3465" fill="none" stroke="#000000" stroke-width="0.40" />
<polyline points="0.0,68.3465 255.0,68.3465" fill="none" stroke="#000000" stroke-width="0.40" />
<polyline points="0.0,73.3465 255.0,73.3465" fill="none" stroke="#000000" stroke-width="0.40" />
<polyline points="0.0,78.3465 255.0,78.3465" fill="none" stroke="#000000" stroke-width="0.40" />
<polyline points="0.0,83.3465 255.0,83.3465" fill="none" stroke="#000000" stroke-width="0.40" />
<polyline points="0.0,115.846 255.0,115.846" fill="none" stroke="#000000" stroke-width="0.40" />
<polyline points="0.0,120.846 255.0,120.846" fill="none" stroke="#000000" stroke-width="0.40" />
<polyline points="0.0,125.846 255.0,125.846" fill="none" stroke="#000000" stroke-width="0.40" />
<polyline points="0.0,130.846 255.0,130.846" fill="none" stroke="#000000" stroke-width="0.40" />
<polyline points="0.0,135.846 255.0,135.846" fill="none" stroke="#000000" stroke-width="0.40" />
<polyline points="0.0,168.346 255.0,168.346" fill="none" stroke="#000000" stroke-width="0.40" />
<polyline points="0.0,173.346 255.0,173.346" fill="none" stroke="#000000" stroke-width="0.40" />
<polyline points="0.0,178.346 255.0,178.346" fill="none" stroke="#000000" stroke-width="0.40" />
<polyline points="0.0,183.346 255.0,183.346" fill="none" stroke="#000000" stroke-width="0.40" />
<polyline points="0.0,188.346 255.0,188.346" fill="none" stroke="#000000" stroke-width="0.40" />
<polyline points="0.0,220.846 255.0,220.846" fill="none" stroke="#000000" stroke-width="0.40" />
<polyline points="0.0,225.846 255.0,225.846" fill="none" stroke="#000000" stroke-width="0.40" />
<polyline points="0.0,230.846 255.0,230.846" fill="none" stroke="#000000" stroke-width="0.40" />
<polyline points="0.0,235.846 255.0,235.846" fill="none" stroke="#000000" stroke-width="0.40" />
<polyline points="0.0,240.846 255.0,240.846" fill="none" stroke="#000000" stroke-width="0.40" />
<polyline points="42.0,220.846 42.0,240.846" fill="" stroke="#000000" stroke-width="0.80" />
<polyline points="42.0,168.346 42.0,188.346" fill="" stroke="#000000" stroke-width="0.80" />
<polyline points="42.0,115.846 42.0,135.846" fill="" stroke="#000000" stroke-width="0.80" />
<polyline points="42.0,63.3465 42.0,83.3465" fill="" stroke="#000000" stroke-width="0.80" />
<polyline points="207.29999999999927,96.7855 207.29999999999927,125.846" fill="" stroke="#000000" stroke-width="0.65" />
<polyline points="207.29999999999927,74.2855 207.29999999999927,88.9715" fill="" stroke="#000000" stroke-width="0.65" />
<polyline points="189.39999999999964,234.907 189.39999999999964,220.846" fill="" stroke="#000000" stroke-width="0.65" />
<polyline points="183.5,104.286 183.5,124.596" fill="" stroke="#000000" stroke-width="0.65" />
<polyline points="189.39999999999964,79.9074 189.39999999999964,67.0965" fill="" stroke="#000000" stroke-width="0.65" />
<polyline points="165.5,234.907 165.5,220.846" fill="" stroke="#000000" stroke-width="0.65" />
<polyline points="165.70000000000073,195.078 165.70000000000073,158.971" fill="" stroke="#000000" stroke-width="0.65" />
<polyline points="159.60000000000036,114.286 159.60000000000036,127.096" fill="" stroke="#000000" stroke-width="0.65" />
<polyline points="165.5,89.9074 165.5,72.0965" fill="" stroke="#000000" stroke-width="0.65" />
<polyline points="150.60000000000036,239.907 150.60000000000036,220.846" fill="" stroke="#000000" stroke-width="0.65" />
<polyline points="129.70000000000073,96.7855 129.70000000000073,125.846" fill="" stroke="#000000" stroke-width="0.65" />
<polyline points="129.70000000000073,74.2855 129.70000000000073,88.3465" fill="" stroke="#000000" stroke-width="0.65" />
<polyline points="114.29999999999927,89.2855 114.29999999999927,125.221" fill="" stroke="#000000" stroke-width="0.65" />
<polyline points="114.29999999999927,66.7855 114.29999999999927,87.7215" fill="" stroke="#000000" stroke-width="0.65" />
<polyline points="104.70000000000073,232.407 104.70000000000073,217.096" fill="" stroke="#000000" stroke-width="0.65" />
<polyline points="98.79999999999927,86.7855 98.79999999999927,124.596" fill="" stroke="#000000" stroke-width="0.65" />
<polyline points="98.79999999999927,64.2855 98.79999999999927,87.0965" fill="" stroke="#000000" stroke-width="0.65" />
<polyline points="57.0,232.407 57.0,217.096" fill="" stroke="#000000" stroke-width="0.65" />
<polyline points="57.20000000000073,192.578 57.20000000000073,157.096" fill="" stroke="#000000" stroke-width="0.65" />
<polyline points="24.0,90.4105 24.0,124.596" fill="" stroke="#000000" stroke-width="0.65" />
<polyline points="24.0,67.9105 24.0,88.3465" fill="" stroke="#000000" stroke-width="0.65" />
<polyline points="6.100000000000364,229.286 6.100000000000364,245.846" fill="" stroke="#000000" stroke-width="0.65" />
<polyline points="205.5,95.8465 215.10000000000036,95.8465" fill="" stroke="#000000" stroke-width="0.80" />
<polyline points="205.5,100.846 215.10000000000036,100.846" fill="" stroke="#000000" stroke-width="0.80" />
<polyline points="205.5,105.846 215.10000000000036,105.846" fill="" stroke="#000000" stroke-width="0.80" />
<polyline points="205.5,110.846 215.10000000000036,110.846" fill="" stroke="#000000" stroke-width="0.80" />
<polyline points="181.60000000000036,105.846 191.20000000000073,105.846" fill="" stroke="#000000" stroke-width="0.80" />
<polyline points="181.60000000000036,110.846 191.20000000000073,110.846" fill="" stroke="#000000" stroke-width="0.80" />
<polyline points="157.60000000000036,193.346 167.5,193.346" fill="" stroke="#000000" stroke-width="0.80" />
<polyline points="157.79999999999927,88.3465 167.29999999999927,88.3465" fill="" stroke="#000000" stroke-width="0.80" />
<polyline points="127.89999999999964,95.8465 137.5,95.8465" fill="" stroke="#000000" stroke-width="0.80" />
<polyline points="127.89999999999964,100.846 137.5,100.846" fill="" stroke="#000000" stroke-width="0.80" />
<polyline points="127.89999999999964,105.846 137.5,105.846" fill="" stroke="#000000" stroke-width="0.80" />
<polyline points="127.89999999999964,110.846 137.5,110.846" fill="" stroke="#000000" stroke-width="0.80" />
<polyline points="112.39999999999964,90.8465 122.0,90.8465" fill="" stroke="#000000" stroke-width="0.80" />
<polyline points="112.39999999999964,95.8465 122.0,95.8465" fill="" stroke="#000000" stroke-width="0.80" />
<polyline points="112.39999999999964,100.846 122.0,100.846" fill="" stroke="#000000" stroke-width="0.80" />
<polyline points="112.39999999999964,105.846 122.0,105.846" fill="" stroke="#000000" stroke-width="0.80" />
<polyline points="112.39999999999964,110.846 122.0,110.846" fill="" stroke="#000000" stroke-width="0.80" />
<polyline points="97.0,85.8465 106.60000000000036,85.8465" fill="" stroke="#000000" stroke-width="0.80" />
<polyline points="97.0,90.8465 106.60000000000036,90.8465" fill="" stroke="#000000" stroke-width="0.80" />
<polyline points="97.0,95.8465 106.60000000000036,95.8465" fill="" stroke="#000000" stroke-width="0.80" />
<polyline points="97.0,100.846 106.60000000000036,100.846" fill="" stroke="#000000" stroke-width="0.80" />
<polyline points="97.0,105.846 106.60000000000036,105.846" fill="" stroke="#000000" stroke-width="0.80" />
<polyline points="97.0,110.846 106.60000000000036,110.846" fill="" stroke="#000000" stroke-width="0.80" />
<polyline points="49.0,193.346 59.0,193.346" fill="" stroke="#000000" stroke-width="0.80" />
<polyline points="22.200000000000728,90.8465 31.799999999999272,90.8465" fill="" stroke="#000000" stroke-width="0.80" />
<polyline points="22.200000000000728,95.8465 31.799999999999272,95.8465" fill="" stroke="#000000" stroke-width="0.80" />
<polyline points="22.200000000000728,100.846 31.799999999999272,100.846" fill="" stroke="#000000" stroke-width="0.80" />
<polyline points="22.200000000000728,105.846 31.799999999999272,105.846" fill="" stroke="#000000" stroke-width="0.80" />
<polyline points="22.200000000000728,110.846 31.799999999999272,110.846" fill="" stroke="#000000" stroke-width="0.80" />
</svg>
