<?xml version="1.0" encoding="UTF-8" standalone="yes"?>
<svg width="256.0px" height="256.0px" xmlns="http://www.w3.org/2000/svg" xmlns:xlink="http://www.w3.org/1999/xlink" version="1.2" baseProfile="tiny">
<path d="M87.29999999999927,25.557999999999993 C87.29999999999927,25.442999999999984 87.29999999999927,25.339000000000055 87.29999999999927,25.245000000000005 C87.39999999999964,25.150999999999954 87.39999999999964,25.019000000000005 87.5,24.84699999999998 C87.60000000000036,24.674999999999955 87.70000000000073,24.53200000000004 87.79999999999927,24.41700000000003 C87.89999999999964,24.30200000000002 88.10000000000036,24.201000000000022 88.29999999999927,24.111999999999966 C88.5,24.024 88.70000000000073,23.979000000000042 88.89999999999964,23.979000000000042 C89.29999999999927,23.979000000000042 89.70000000000073,24.11500000000001 90.0,24.385999999999967 C90.29999999999927,24.65700000000004 90.39999999999964,24.99000000000001 90.39999999999964,25.385999999999967 C90.39999999999964,25.99000000000001 90.10000000000036,26.650999999999954 89.39999999999964,27.370000000000005 L88.0,28.79200000000003 L89.89999999999964,28.79200000000003 C90.10000000000036,28.79200000000003 90.29999999999927,28.760999999999967 90.39999999999964,28.69799999999998 C90.39999999999964,28.635999999999967 90.60000000000036,28.49000000000001 90.70000000000073,28.260999999999967 L90.79999999999927,28.29200000000003 L90.39999999999964,29.370000000000005 L87.29999999999927,29.370000000000005 L87.29999999999927,29.275999999999954 L88.70000000000073,27.760999999999967 C89.39999999999964,27.03200000000004 89.70000000000073,26.34400000000005 89.70000000000073,25.69799999999998 C89.70000000000073,25.354000000000042 89.60000000000036,25.077999999999975 89.39999999999964,24.870000000000005 C89.20000000000073,24.662000000000035 88.89999999999964,24.557999999999993 88.60000000000036,24.557999999999993 C88.29999999999927,24.557999999999993 88.10000000000036,24.633000000000038 87.89999999999964,24.783999999999992 C87.79999999999927,24.934999999999945 87.60000000000036,25.208999999999946 87.39999999999964,25.604000000000042 L87.29999999999927,25.557999999999993 M91.60000000000036,28.729000000000042 C91.79999999999927,28.729000000000042 92.0,28.80499999999995 92.20000000000073,28.956000000000017 C92.39999999999964,29.10699999999997 92.70000000000073,29.182999999999993 92.79999999999927,29.182999999999993 C93.10000000000036,29.182999999999993 93.39999999999964,29.067999999999984 93.60000000000036,28.839000000000055 C93.79999999999927,28.610000000000014 93.89999999999964,28.327999999999975 93.89999999999964,27.995000000000005 C93.89999999999964,27.787000000000035 93.79999999999927,27.604000000000042 93.79999999999927,27.44799999999998 C93.70000000000073,27.29200000000003 93.60000000000036,27.16999999999996 93.5,27.081000000000017 C93.39999999999964,26.991999999999962 93.29999999999927,26.91999999999996 93.10000000000036,26.861999999999966 C93.0,26.80499999999995 92.89999999999964,26.769000000000005 92.70000000000073,26.753000000000043 C92.60000000000036,26.736999999999966 92.39999999999964,26.729000000000042 92.29999999999927,26.729000000000042 L92.29999999999927,26.620000000000005 C92.5,26.557999999999993 92.60000000000036,26.498000000000047 92.70000000000073,26.440000000000055 C92.89999999999964,26.383000000000038 93.0,26.30200000000002 93.20000000000073,26.19799999999998 C93.29999999999927,26.09400000000005 93.39999999999964,25.966000000000008 93.5,25.815000000000055 C93.60000000000036,25.663999999999987 93.60000000000036,25.495000000000005 93.60000000000036,25.307999999999993 C93.60000000000036,25.047000000000025 93.5,24.839000000000055 93.39999999999964,24.682999999999993 C93.20000000000073,24.525999999999954 93.0,24.44799999999998 92.70000000000073,24.44799999999998 C92.5,24.44799999999998 92.29999999999927,24.515999999999963 92.10000000000036,24.650999999999954 C91.89999999999964,24.787000000000035 91.70000000000073,25.0 91.5,25.29200000000003 L91.39999999999964,25.260999999999967 C91.60000000000036,24.885999999999967 91.70000000000073,24.576000000000022 92.0,24.331000000000017 C92.20000000000073,24.086000000000013 92.5,23.964000000000055 93.0,23.964000000000055 C93.39999999999964,23.964000000000055 93.70000000000073,24.065000000000055 93.89999999999964,24.269000000000005 C94.10000000000036,24.47199999999998 94.20000000000073,24.735000000000014 94.20000000000073,25.057999999999993 C94.20000000000073,25.275999999999954 94.20000000000073,25.46900000000005 94.10000000000036,25.635999999999967 C93.89999999999964,25.80200000000002 93.79999999999927,25.979000000000042 93.5,26.16700000000003 C93.79999999999927,26.30200000000002 94.0,26.476999999999975 94.20000000000073,26.690000000000055 C94.39999999999964,26.903999999999996 94.5,27.214000000000055 94.5,27.620000000000005 C94.5,28.182999999999993 94.29999999999927,28.633000000000038 93.89999999999964,28.97199999999998 C93.39999999999964,29.309999999999945 92.89999999999964,29.479000000000042 92.29999999999927,29.479000000000042 C92.0,29.479000000000042 91.70000000000073,29.437999999999988 91.60000000000036,29.354000000000042 C91.39999999999964,29.270999999999958 91.29999999999927,29.15700000000004 91.29999999999927,29.010999999999967 C91.29999999999927,28.92700000000002 91.39999999999964,28.860000000000014 91.39999999999964,28.807999999999993 C91.5,28.754999999999995 91.60000000000036,28.729000000000042 91.60000000000036,28.729000000000042" />
<path d="M151.89999999999964,25.557999999999993 C152.0,25.442999999999984 152.0,25.339000000000055 152.0,25.245000000000005 C152.0,25.150999999999954 152.10000000000036,25.019000000000005 152.20000000000073,24.84699999999998 C152.29999999999927,24.674999999999955 152.39999999999964,24.53200000000004 152.5,24.41700000000003 C152.60000000000036,24.30200000000002 152.70000000000073,24.201000000000022 152.89999999999964,24.111999999999966 C153.10000000000036,24.024 153.29999999999927,23.979000000000042 153.60000000000036,23.979000000000042 C154.0,23.979000000000042 154.39999999999964,24.11500000000001 154.60000000000036,24.385999999999967 C154.89999999999964,24.65700000000004 155.10000000000036,24.99000000000001 155.10000000000036,25.385999999999967 C155.10000000000036,25.99000000000001 154.70000000000073,26.650999999999954 154.0,27.370000000000005 L152.70000000000073,28.79200000000003 L154.60000000000036,28.79200000000003 C154.79999999999927,28.79200000000003 154.89999999999964,28.760999999999967 155.0,28.69799999999998 C155.10000000000036,28.635999999999967 155.20000000000073,28.49000000000001 155.39999999999964,28.260999999999967 L155.5,28.29200000000003 L155.0,29.370000000000005 L151.89999999999964,29.370000000000005 L151.89999999999964,29.275999999999954 L153.29999999999927,27.760999999999967 C154.0,27.03200000000004 154.39999999999964,26.34400000000005 154.39999999999964,25.69799999999998 C154.39999999999964,25.354000000000042 154.29999999999927,25.077999999999975 154.10000000000036,24.870000000000005 C153.89999999999964,24.662000000000035 153.60000000000036,24.557999999999993 153.29999999999927,24.557999999999993 C153.0,24.557999999999993 152.79999999999927,24.633000000000038 152.60000000000036,24.783999999999992 C152.39999999999964,24.934999999999945 152.29999999999927,25.208999999999946 152.10000000000036,25.604000000000042 L151.89999999999964,25.557999999999993 M159.39999999999964,27.557999999999993 L159.39999999999964,28.04200000000003 L158.60000000000036,28.04200000000003 L158.60000000000036,29.370000000000005 L158.0,29.370000000000005 L158.0,28.04200000000003 L155.79999999999927,28.04200000000003 L155.79999999999927,27.557999999999993 L158.29999999999927,23.995000000000005 L158.60000000000036,23.995000000000005 L158.60000000000036,27.557999999999993 L159.39999999999964,27.557999999999993 M158.0,27.557999999999993 L158.0,24.807999999999993 L156.10000000000036,27.557999999999993 L158.0,27.557999999999993" />
</svg>
