<?xml version="1.0" encoding="UTF-8" standalone="yes"?>
<svg width="256.0px" height="256.0px" xmlns="http://www.w3.org/2000/svg" xmlns:xlink="http://www.w3.org/1999/xlink" version="1.2" baseProfile="tiny">
<path d="M71.64999999999964,10.518000000000029 L71.64999999999964,12.065000000000055 C71.64999999999964,12.616999999999962 71.68000000000029,13.05499999999995 71.72999999999956,13.378000000000043 C72.15999999999985,13.013000000000034 72.47000000000025,12.741999999999962 72.64999999999964,12.565000000000055 C72.85999999999967,12.356999999999971 73.06999999999971,12.067999999999984 73.27999999999975,11.697999999999979 C73.48999999999978,11.327999999999975 73.59000000000015,10.961000000000013 73.59000000000015,10.596000000000004 C73.59000000000015,10.231999999999971 73.51000000000022,9.918999999999983 73.35999999999967,9.658999999999992 C73.19999999999982,9.399000000000001 72.98999999999978,9.268000000000029 72.72999999999956,9.268000000000029 C72.42000000000007,9.268000000000029 72.15999999999985,9.388000000000034 71.94999999999982,9.628000000000043 C71.75,9.888000000000034 71.64999999999964,10.184999999999945 71.64999999999964,10.518000000000029 M70.82999999999993,14.096000000000004 L70.57999999999993,2.2060000000000173 C70.76000000000022,2.1019999999999754 70.94999999999982,2.0499999999999545 71.13000000000011,2.0499999999999545 C71.3100000000004,2.0499999999999545 71.48999999999978,2.1019999999999754 71.67000000000007,2.2060000000000173 L71.51000000000022,9.096000000000004 C72.05000000000018,8.638000000000034 72.65999999999985,8.408999999999992 73.35999999999967,8.408999999999992 C73.85999999999967,8.408999999999992 74.27999999999975,8.616999999999962 74.61999999999989,9.033999999999992 C74.94999999999982,9.451000000000022 75.11999999999989,9.92999999999995 75.11999999999989,10.471000000000004 C75.11999999999989,10.80499999999995 75.01000000000022,11.163999999999987 74.80000000000018,11.549999999999955 C74.59000000000015,11.893000000000029 74.36999999999989,12.163999999999987 74.14000000000033,12.361999999999966 C74.0,12.466000000000008 73.67000000000007,12.726999999999975 73.14000000000033,13.143000000000029 C72.97999999999956,13.258000000000038 72.80000000000018,13.393000000000029 72.57999999999993,13.549999999999955 C72.36999999999989,13.706000000000017 72.23999999999978,13.80499999999995 72.1899999999996,13.846000000000004 C72.09000000000015,13.899000000000001 72.0,14.003000000000043 71.92000000000007,14.158999999999992 C71.84000000000015,14.293999999999983 71.72999999999956,14.403999999999996 71.60999999999967,14.486999999999966 C71.52000000000044,14.57000000000005 71.42000000000007,14.611999999999966 71.28999999999996,14.611999999999966 C71.15999999999985,14.611999999999966 71.05000000000018,14.565000000000055 70.97000000000025,14.471000000000004 C70.86999999999989,14.378000000000043 70.82999999999993,14.253000000000043 70.82999999999993,14.096000000000004" />
<path d="M191.23999999999978,71.096 C191.85999999999967,71.096 192.39000000000033,71.25800000000004 192.82999999999993,71.58100000000002 C193.22999999999956,71.93499999999995 193.42000000000007,72.37800000000004 193.42000000000007,72.90899999999999 C193.42000000000007,73.80499999999995 192.97000000000025,74.64300000000003 192.05000000000018,75.42499999999995 C191.10999999999967,76.20600000000002 190.10999999999967,76.596 189.02999999999975,76.596 C188.40999999999985,76.596 187.8800000000001,76.43499999999995 187.46000000000004,76.11199999999997 C187.05000000000018,75.75800000000004 186.85000000000036,75.31500000000005 186.85000000000036,74.78399999999999 C186.85000000000036,73.88800000000003 187.3100000000004,73.04999999999995 188.25,72.26800000000003 C189.17000000000007,71.48699999999997 190.15999999999985,71.096 191.23999999999978,71.096" />
<path d="M177.76000000000022,61.096000000000004 C178.01000000000022,61.096000000000004 178.1899999999996,61.17999999999995 178.3199999999997,61.346000000000004 C178.44999999999982,61.524 178.52000000000044,61.70100000000002 178.52000000000044,61.87800000000004 C178.52000000000044,62.15899999999999 178.26000000000022,62.513000000000034 177.73999999999978,62.940000000000055 C177.22000000000025,63.399 176.90999999999985,63.721000000000004 176.80000000000018,63.90899999999999 C176.72000000000025,64.05499999999995 176.5600000000004,64.38800000000003 176.32999999999993,64.90899999999999 C176.1300000000001,65.44000000000005 175.89000000000033,65.85699999999997 175.6300000000001,66.15899999999999 C175.3800000000001,66.44000000000005 175.07999999999993,66.58100000000002 174.72999999999956,66.58100000000002 C174.60000000000036,66.58100000000002 174.3699999999999,66.54399999999998 174.02000000000044,66.471 C173.6899999999996,66.38800000000003 173.4399999999996,66.346 173.28999999999996,66.346 C173.1300000000001,66.346 172.89000000000033,66.38800000000003 172.55000000000018,66.471 C172.23999999999978,66.55499999999995 172.02000000000044,66.596 171.8800000000001,66.596 C171.6300000000001,66.596 171.4399999999996,66.51300000000003 171.30000000000018,66.346 C171.1899999999996,66.149 171.1300000000001,65.971 171.1300000000001,65.81500000000005 C171.1300000000001,65.53399999999999 171.39000000000033,65.17999999999995 171.90999999999985,64.75300000000004 C172.4300000000003,64.29399999999998 172.75,63.971000000000004 172.85000000000036,63.78399999999999 C172.89999999999964,63.690000000000055 173.0600000000004,63.351999999999975 173.3199999999997,62.76800000000003 C173.52999999999975,62.236999999999966 173.76000000000022,61.82600000000002 174.02000000000044,61.53399999999999 C174.26000000000022,61.25300000000004 174.55000000000018,61.111999999999966 174.89999999999964,61.111999999999966 C175.03999999999996,61.111999999999966 175.27999999999975,61.149 175.60000000000036,61.221000000000004 C175.9300000000003,61.30499999999995 176.1800000000003,61.346000000000004 176.35000000000036,61.346000000000004 C176.5,61.346000000000004 176.73999999999978,61.30499999999995 177.0699999999997,61.221000000000004 C177.3800000000001,61.138000000000034 177.60999999999967,61.096000000000004 177.76000000000022,61.096000000000004" />
<path d="M175.92000000000007,16.096000000000004 C176.55000000000018,16.096000000000004 177.07999999999993,16.258000000000038 177.52000000000044,16.581000000000017 C177.90999999999985,16.934999999999945 178.10999999999967,17.378000000000043 178.10999999999967,17.908999999999992 C178.10999999999967,18.80499999999995 177.64999999999964,19.64300000000003 176.72999999999956,20.424999999999955 C175.80000000000018,21.206000000000017 174.78999999999996,21.596000000000004 173.72000000000025,21.596000000000004 C173.09000000000015,21.596000000000004 172.5699999999997,21.434999999999945 172.14000000000033,21.111999999999966 C171.72999999999956,20.758000000000038 171.52999999999975,20.315000000000055 171.52999999999975,19.783999999999992 C171.52999999999975,18.888000000000034 172.0,18.049999999999955 172.9399999999996,17.26800000000003 C173.85000000000036,16.486999999999966 174.85000000000036,16.096000000000004 175.92000000000007,16.096000000000004" />
<path d="M160.60999999999967,16.096000000000004 C161.22999999999956,16.096000000000004 161.76000000000022,16.258000000000038 162.19999999999982,16.581000000000017 C162.60000000000036,16.934999999999945 162.80000000000018,17.378000000000043 162.80000000000018,17.908999999999992 C162.80000000000018,18.80499999999995 162.34000000000015,19.64300000000003 161.42000000000007,20.424999999999955 C160.47999999999956,21.206000000000017 159.47999999999956,21.596000000000004 158.39999999999964,21.596000000000004 C157.77999999999975,21.596000000000004 157.25,21.434999999999945 156.82999999999993,21.111999999999966 C156.42000000000007,20.758000000000038 156.22000000000025,20.315000000000055 156.22000000000025,19.783999999999992 C156.22000000000025,18.888000000000034 156.6899999999996,18.049999999999955 157.6199999999999,17.26800000000003 C158.53999999999996,16.486999999999966 159.52999999999975,16.096000000000004 160.60999999999967,16.096000000000004" />
<path d="M147.1300000000001,61.096000000000004 C147.3800000000001,61.096000000000004 147.5699999999997,61.17999999999995 147.6899999999996,61.346000000000004 C147.82999999999993,61.524 147.89000000000033,61.70100000000002 147.89000000000033,61.87800000000004 C147.89000000000033,62.15899999999999 147.6300000000001,62.513000000000034 147.10999999999967,62.940000000000055 C146.59000000000015,63.399 146.27999999999975,63.721000000000004 146.17000000000007,63.90899999999999 C146.09000000000015,64.05499999999995 145.9399999999996,64.38800000000003 145.71000000000004,64.90899999999999 C145.5,65.44000000000005 145.26000000000022,65.85699999999997 145.0,66.15899999999999 C144.75,66.44000000000005 144.44999999999982,66.58100000000002 144.10000000000036,66.58100000000002 C143.97000000000025,66.58100000000002 143.73999999999978,66.54399999999998 143.39000000000033,66.471 C143.0600000000004,66.38800000000003 142.8199999999997,66.346 142.65999999999985,66.346 C142.5,66.346 142.26000000000022,66.38800000000003 141.92000000000007,66.471 C141.60999999999967,66.55499999999995 141.39000000000033,66.596 141.25,66.596 C141.0,66.596 140.8100000000004,66.51300000000003 140.67000000000007,66.346 C140.5600000000004,66.149 140.5,65.971 140.5,65.81500000000005 C140.5,65.53399999999999 140.76000000000022,65.17999999999995 141.27999999999975,64.75300000000004 C141.80000000000018,64.29399999999998 142.1199999999999,63.971000000000004 142.22000000000025,63.78399999999999 C142.27000000000044,63.690000000000055 142.4300000000003,63.351999999999975 142.6899999999996,62.76800000000003 C142.89999999999964,62.236999999999966 143.1300000000001,61.82600000000002 143.39000000000033,61.53399999999999 C143.6300000000001,61.25300000000004 143.92000000000007,61.111999999999966 144.27000000000044,61.111999999999966 C144.40999999999985,61.111999999999966 144.64999999999964,61.149 144.97000000000025,61.221000000000004 C145.30000000000018,61.30499999999995 145.55000000000018,61.346000000000004 145.72000000000025,61.346000000000004 C145.8699999999999,61.346000000000004 146.10999999999967,61.30499999999995 146.4399999999996,61.221000000000004 C146.75,61.138000000000034 146.97999999999956,61.096000000000004 147.1300000000001,61.096000000000004" />
<path d="M144.89000000000033,71.096 C145.52000000000044,71.096 146.05000000000018,71.25800000000004 146.48999999999978,71.58100000000002 C146.8800000000001,71.93499999999995 147.07999999999993,72.37800000000004 147.07999999999993,72.90899999999999 C147.07999999999993,73.80499999999995 146.6199999999999,74.64300000000003 145.71000000000004,75.42499999999995 C144.77000000000044,76.20600000000002 143.76000000000022,76.596 142.6899999999996,76.596 C142.0699999999997,76.596 141.53999999999996,76.43499999999995 141.10999999999967,76.11199999999997 C140.71000000000004,75.75800000000004 140.5,75.31500000000005 140.5,74.78399999999999 C140.5,73.88800000000003 140.97000000000025,73.04999999999995 141.90999999999985,72.26800000000003 C142.82999999999993,71.48699999999997 143.8199999999997,71.096 144.89000000000033,71.096" />
<path d="M145.28999999999996,8.596000000000004 C145.92000000000007,8.596000000000004 146.44999999999982,8.758000000000038 146.89000000000033,9.081000000000017 C147.27999999999975,9.434999999999945 147.47999999999956,9.878000000000043 147.47999999999956,10.408999999999992 C147.47999999999956,11.30499999999995 147.02000000000044,12.143000000000029 146.10999999999967,12.924999999999955 C145.17000000000007,13.706000000000017 144.15999999999985,14.096000000000004 143.09000000000015,14.096000000000004 C142.47000000000025,14.096000000000004 141.9399999999996,13.934999999999945 141.51000000000022,13.611999999999966 C141.10999999999967,13.258000000000038 140.89999999999964,12.815000000000055 140.89999999999964,12.283999999999992 C140.89999999999964,11.388000000000034 141.3699999999999,10.549999999999955 142.3100000000004,9.768000000000029 C143.22999999999956,8.986999999999966 144.22000000000025,8.596000000000004 145.28999999999996,8.596000000000004" />
<path d="M129.97999999999956,16.096000000000004 C130.60000000000036,16.096000000000004 131.14000000000033,16.258000000000038 131.5699999999997,16.581000000000017 C131.97000000000025,16.934999999999945 132.17000000000007,17.378000000000043 132.17000000000007,17.908999999999992 C132.17000000000007,18.80499999999995 131.71000000000004,19.64300000000003 130.78999999999996,20.424999999999955 C129.85000000000036,21.206000000000017 128.85000000000036,21.596000000000004 127.77999999999975,21.596000000000004 C127.14999999999964,21.596000000000004 126.61999999999989,21.434999999999945 126.19999999999982,21.111999999999966 C125.78999999999996,20.758000000000038 125.59000000000015,20.315000000000055 125.59000000000015,19.783999999999992 C125.59000000000015,18.888000000000034 126.0600000000004,18.049999999999955 126.98999999999978,17.26800000000003 C127.90999999999985,16.486999999999966 128.90999999999985,16.096000000000004 129.97999999999956,16.096000000000004" />
<path d="M116.5,61.096000000000004 C116.75,61.096000000000004 116.9399999999996,61.17999999999995 117.0600000000004,61.346000000000004 C117.19999999999982,61.524 117.26000000000022,61.70100000000002 117.26000000000022,61.87800000000004 C117.26000000000022,62.15899999999999 117.0,62.513000000000034 116.47999999999956,62.940000000000055 C115.96000000000004,63.399 115.64999999999964,63.721000000000004 115.55000000000018,63.90899999999999 C115.46000000000004,64.05499999999995 115.3100000000004,64.38800000000003 115.07999999999993,64.90899999999999 C114.86999999999989,65.44000000000005 114.63000000000011,65.85699999999997 114.36999999999989,66.15899999999999 C114.11999999999989,66.44000000000005 113.81999999999971,66.58100000000002 113.47000000000025,66.58100000000002 C113.34000000000015,66.58100000000002 113.10999999999967,66.54399999999998 112.76000000000022,66.471 C112.43000000000029,66.38800000000003 112.1899999999996,66.346 112.02999999999975,66.346 C111.86999999999989,66.346 111.63000000000011,66.38800000000003 111.30000000000018,66.471 C110.97999999999956,66.55499999999995 110.76000000000022,66.596 110.61999999999989,66.596 C110.36999999999989,66.596 110.18000000000029,66.51300000000003 110.05000000000018,66.346 C109.93000000000029,66.149 109.86999999999989,65.971 109.86999999999989,65.81500000000005 C109.86999999999989,65.53399999999999 110.13000000000011,65.17999999999995 110.65999999999985,64.75300000000004 C111.18000000000029,64.29399999999998 111.48999999999978,63.971000000000004 111.59000000000015,63.78399999999999 C111.64000000000033,63.690000000000055 111.80000000000018,63.351999999999975 112.0600000000004,62.76800000000003 C112.27000000000044,62.236999999999966 112.5,61.82600000000002 112.76000000000022,61.53399999999999 C113.0,61.25300000000004 113.30000000000018,61.111999999999966 113.64000000000033,61.111999999999966 C113.78999999999996,61.111999999999966 114.02000000000044,61.149 114.34000000000015,61.221000000000004 C114.68000000000029,61.30499999999995 114.93000000000029,61.346000000000004 115.09000000000015,61.346000000000004 C115.23999999999978,61.346000000000004 115.47999999999956,61.30499999999995 115.8100000000004,61.221000000000004 C116.11999999999989,61.138000000000034 116.35000000000036,61.096000000000004 116.5,61.096000000000004" />
<path d="M114.26000000000022,81.096 C114.89000000000033,81.096 115.42000000000007,81.25800000000004 115.85999999999967,81.58100000000002 C116.25,81.93499999999995 116.44999999999982,82.37800000000004 116.44999999999982,82.90899999999999 C116.44999999999982,83.80499999999995 115.98999999999978,84.64300000000003 115.07999999999993,85.42499999999995 C114.14000000000033,86.20600000000002 113.13000000000011,86.596 112.0600000000004,86.596 C111.4399999999996,86.596 110.90999999999985,86.43499999999995 110.47999999999956,86.11199999999997 C110.07999999999993,85.75800000000004 109.86999999999989,85.31500000000005 109.86999999999989,84.78399999999999 C109.86999999999989,83.88800000000003 110.34000000000015,83.04999999999995 111.27999999999975,82.26800000000003 C112.19999999999982,81.48699999999997 113.1899999999996,81.096 114.26000000000022,81.096" />
<path d="M114.65999999999985,16.096000000000004 C115.28999999999996,16.096000000000004 115.81999999999971,16.258000000000038 116.26000000000022,16.581000000000017 C116.64999999999964,16.934999999999945 116.85000000000036,17.378000000000043 116.85000000000036,17.908999999999992 C116.85000000000036,18.80499999999995 116.39000000000033,19.64300000000003 115.47999999999956,20.424999999999955 C114.53999999999996,21.206000000000017 113.52999999999975,21.596000000000004 112.46000000000004,21.596000000000004 C111.84000000000015,21.596000000000004 111.3100000000004,21.434999999999945 110.88000000000011,21.111999999999966 C110.47999999999956,20.758000000000038 110.27000000000044,20.315000000000055 110.27000000000044,19.783999999999992 C110.27000000000044,18.888000000000034 110.73999999999978,18.049999999999955 111.68000000000029,17.26800000000003 C112.60000000000036,16.486999999999966 113.59000000000015,16.096000000000004 114.65999999999985,16.096000000000004" />
<path d="M82.48999999999978,61.096000000000004 C82.73999999999978,61.096000000000004 82.93000000000029,61.17999999999995 83.05000000000018,61.346000000000004 C83.1899999999996,61.524 83.26000000000022,61.70100000000002 83.26000000000022,61.87800000000004 C83.26000000000022,62.15899999999999 83.0,62.513000000000034 82.47999999999956,62.940000000000055 C81.96000000000004,63.399 81.64000000000033,63.721000000000004 81.53999999999996,63.90899999999999 C81.46000000000004,64.05499999999995 81.30000000000018,64.38800000000003 81.06999999999971,64.90899999999999 C80.85999999999967,65.44000000000005 80.63000000000011,65.85699999999997 80.36999999999989,66.15899999999999 C80.11999999999989,66.44000000000005 79.8100000000004,66.58100000000002 79.46000000000004,66.58100000000002 C79.34000000000015,66.58100000000002 79.10000000000036,66.54399999999998 78.76000000000022,66.471 C78.42000000000007,66.38800000000003 78.18000000000029,66.346 78.02000000000044,66.346 C77.86999999999989,66.346 77.61999999999989,66.38800000000003 77.28999999999996,66.471 C76.97999999999956,66.55499999999995 76.75,66.596 76.61999999999989,66.596 C76.36999999999989,66.596 76.17000000000007,66.51300000000003 76.03999999999996,66.346 C75.92000000000007,66.149 75.86999999999989,65.971 75.86999999999989,65.81500000000005 C75.86999999999989,65.53399999999999 76.13000000000011,65.17999999999995 76.64999999999964,64.75300000000004 C77.17000000000007,64.29399999999998 77.47999999999956,63.971000000000004 77.59000000000015,63.78399999999999 C77.64000000000033,63.690000000000055 77.78999999999996,63.351999999999975 78.05000000000018,62.76800000000003 C78.26000000000022,62.236999999999966 78.5,61.82600000000002 78.76000000000022,61.53399999999999 C79.0,61.25300000000004 79.28999999999996,61.111999999999966 79.63000000000011,61.111999999999966 C79.77999999999975,61.111999999999966 80.01000000000022,61.149 80.34000000000015,61.221000000000004 C80.67000000000007,61.30499999999995 80.92000000000007,61.346000000000004 81.09000000000015,61.346000000000004 C81.22999999999956,61.346000000000004 81.47000000000025,61.30499999999995 81.80000000000018,61.221000000000004 C82.11999999999989,61.138000000000034 82.35000000000036,61.096000000000004 82.48999999999978,61.096000000000004" />
<path d="M80.26000000000022,81.096 C80.88000000000011,81.096 81.40999999999985,81.25800000000004 81.85000000000036,81.58100000000002 C82.25,81.93499999999995 82.44999999999982,82.37800000000004 82.44999999999982,82.90899999999999 C82.44999999999982,83.80499999999995 81.98999999999978,84.64300000000003 81.06999999999971,85.42499999999995 C80.13000000000011,86.20600000000002 79.13000000000011,86.596 78.05000000000018,86.596 C77.43000000000029,86.596 76.89999999999964,86.43499999999995 76.47999999999956,86.11199999999997 C76.06999999999971,85.75800000000004 75.86999999999989,85.31500000000005 75.86999999999989,84.78399999999999 C75.86999999999989,83.88800000000003 76.34000000000015,83.04999999999995 77.27000000000044,82.26800000000003 C78.1899999999996,81.48699999999997 79.18000000000029,81.096 80.26000000000022,81.096" />
<path d="M80.65999999999985,8.596000000000004 C81.27999999999975,8.596000000000004 81.8100000000004,8.758000000000038 82.25,9.081000000000017 C82.64999999999964,9.434999999999945 82.85000000000036,9.878000000000043 82.85000000000036,10.408999999999992 C82.85000000000036,11.30499999999995 82.39000000000033,12.143000000000029 81.47000000000025,12.924999999999955 C80.52999999999975,13.706000000000017 79.52999999999975,14.096000000000004 78.44999999999982,14.096000000000004 C77.82999999999993,14.096000000000004 77.30000000000018,13.934999999999945 76.88000000000011,13.611999999999966 C76.47000000000025,13.258000000000038 76.27000000000044,12.815000000000055 76.27000000000044,12.283999999999992 C76.27000000000044,11.388000000000034 76.73999999999978,10.549999999999955 77.67000000000007,9.768000000000029 C78.59000000000015,8.986999999999966 79.57999999999993,8.596000000000004 80.65999999999985,8.596000000000004" />
<path d="M65.31999999999971,71.096 C65.94999999999982,71.096 66.47999999999956,71.25800000000004 66.92000000000007,71.58100000000002 C67.3100000000004,71.93499999999995 67.51000000000022,72.37800000000004 67.51000000000022,72.90899999999999 C67.51000000000022,73.80499999999995 67.05000000000018,74.64300000000003 66.14000000000033,75.42499999999995 C65.19999999999982,76.20600000000002 64.1899999999996,76.596 63.11999999999989,76.596 C62.5,76.596 61.970000000000255,76.43499999999995 61.539999999999964,76.11199999999997 C61.14000000000033,75.75800000000004 60.93000000000029,75.31500000000005 60.93000000000029,74.78399999999999 C60.93000000000029,73.88800000000003 61.399999999999636,73.04999999999995 62.340000000000146,72.26800000000003 C63.26000000000022,71.48699999999997 64.25,71.096 65.31999999999971,71.096" />
<path d="M50.01000000000022,13.596000000000004 C50.64000000000033,13.596000000000004 51.17000000000007,13.758000000000038 51.600000000000364,14.081000000000017 C52.0,14.434999999999945 52.19999999999982,14.878000000000043 52.19999999999982,15.408999999999992 C52.19999999999982,16.30499999999995 51.73999999999978,17.14300000000003 50.81999999999971,17.924999999999955 C49.89000000000033,18.706000000000017 48.88000000000011,19.096000000000004 47.8100000000004,19.096000000000004 C47.18000000000029,19.096000000000004 46.659999999999854,18.934999999999945 46.22999999999956,18.611999999999966 C45.81999999999971,18.258000000000038 45.61999999999989,17.815000000000055 45.61999999999989,17.283999999999992 C45.61999999999989,16.388000000000034 46.090000000000146,15.549999999999955 47.029999999999745,14.768000000000029 C47.9399999999996,13.986999999999966 48.9399999999996,13.596000000000004 50.01000000000022,13.596000000000004" />
<path d="M30.789999999999964,61.096000000000004 C31.039999999999964,61.096000000000004 31.220000000000255,61.17999999999995 31.350000000000364,61.346000000000004 C31.48999999999978,61.524 31.550000000000182,61.70100000000002 31.550000000000182,61.87800000000004 C31.550000000000182,62.15899999999999 31.289999999999964,62.513000000000034 30.770000000000437,62.940000000000055 C30.25,63.399 29.9399999999996,63.721000000000004 29.829999999999927,63.90899999999999 C29.75,64.05499999999995 29.590000000000146,64.38800000000003 29.36999999999989,64.90899999999999 C29.159999999999854,65.44000000000005 28.920000000000073,65.85699999999997 28.659999999999854,66.15899999999999 C28.409999999999854,66.44000000000005 28.109999999999673,66.58100000000002 27.76000000000022,66.58100000000002 C27.63000000000011,66.58100000000002 27.399999999999636,66.54399999999998 27.050000000000182,66.471 C26.720000000000255,66.38800000000003 26.470000000000255,66.346 26.31999999999971,66.346 C26.159999999999854,66.346 25.920000000000073,66.38800000000003 25.579999999999927,66.471 C25.270000000000437,66.55499999999995 25.050000000000182,66.596 24.909999999999854,66.596 C24.659999999999854,66.596 24.470000000000255,66.51300000000003 24.329999999999927,66.346 C24.220000000000255,66.149 24.159999999999854,65.971 24.159999999999854,65.81500000000005 C24.159999999999854,65.53399999999999 24.420000000000073,65.17999999999995 24.9399999999996,64.75300000000004 C25.460000000000036,64.29399999999998 25.779999999999745,63.971000000000004 25.88000000000011,63.78399999999999 C25.93000000000029,63.690000000000055 26.090000000000146,63.351999999999975 26.350000000000364,62.76800000000003 C26.5600000000004,62.236999999999966 26.789999999999964,61.82600000000002 27.050000000000182,61.53399999999999 C27.289999999999964,61.25300000000004 27.579999999999927,61.111999999999966 27.93000000000029,61.111999999999966 C28.06999999999971,61.111999999999966 28.3100000000004,61.149 28.63000000000011,61.221000000000004 C28.960000000000036,61.30499999999995 29.210000000000036,61.346000000000004 29.38000000000011,61.346000000000004 C29.529999999999745,61.346000000000004 29.770000000000437,61.30499999999995 30.100000000000364,61.221000000000004 C30.409999999999854,61.138000000000034 30.640000000000327,61.096000000000004 30.789999999999964,61.096000000000004" />
<path d="M28.550000000000182,71.096 C29.18000000000029,71.096 29.710000000000036,71.25800000000004 30.149999999999636,71.58100000000002 C30.539999999999964,71.93499999999995 30.73999999999978,72.37800000000004 30.73999999999978,72.90899999999999 C30.73999999999978,73.80499999999995 30.279999999999745,74.64300000000003 29.36999999999989,75.42499999999995 C28.43000000000029,76.20600000000002 27.420000000000073,76.596 26.350000000000364,76.596 C25.720000000000255,76.596 25.199999999999818,76.43499999999995 24.770000000000437,76.11199999999997 C24.36999999999989,75.75800000000004 24.159999999999854,75.31500000000005 24.159999999999854,74.78399999999999 C24.159999999999854,73.88800000000003 24.63000000000011,73.04999999999995 25.56999999999971,72.26800000000003 C26.48999999999978,71.48699999999997 27.479999999999563,71.096 28.550000000000182,71.096" />
<path d="M28.949999999999818,23.596000000000004 C29.579999999999927,23.596000000000004 30.109999999999673,23.758000000000038 30.550000000000182,24.081000000000017 C30.9399999999996,24.434999999999945 31.140000000000327,24.878000000000043 31.140000000000327,25.408999999999992 C31.140000000000327,26.30499999999995 30.68000000000029,27.14300000000003 29.770000000000437,27.924999999999955 C28.829999999999927,28.706000000000017 27.81999999999971,29.096000000000004 26.75,29.096000000000004 C26.11999999999989,29.096000000000004 25.600000000000364,28.934999999999945 25.170000000000073,28.611999999999966 C24.770000000000437,28.258000000000038 24.5600000000004,27.815000000000055 24.5600000000004,27.283999999999992 C24.5600000000004,26.388000000000034 25.029999999999745,25.549999999999955 25.970000000000255,24.76800000000003 C26.890000000000327,23.986999999999966 27.88000000000011,23.596000000000004 28.949999999999818,23.596000000000004" />
<path d="M9.729999999999563,61.096000000000004 C9.979999999999563,61.096000000000004 10.170000000000073,61.17999999999995 10.289999999999964,61.346000000000004 C10.430000000000291,61.524 10.5,61.70100000000002 10.5,61.87800000000004 C10.5,62.15899999999999 10.239999999999782,62.513000000000034 9.710000000000036,62.940000000000055 C9.1899999999996,63.399 8.88000000000011,63.721000000000004 8.779999999999745,63.90899999999999 C8.6899999999996,64.05499999999995 8.539999999999964,64.38800000000003 8.3100000000004,64.90899999999999 C8.100000000000364,65.44000000000005 7.869999999999891,65.85699999999997 7.600000000000364,66.15899999999999 C7.350000000000364,66.44000000000005 7.050000000000182,66.58100000000002 6.699999999999818,66.58100000000002 C6.569999999999709,66.58100000000002 6.3400000000001455,66.54399999999998 6.0,66.471 C5.6599999999998545,66.38800000000003 5.420000000000073,66.346 5.260000000000218,66.346 C5.100000000000364,66.346 4.859999999999673,66.38800000000003 4.529999999999745,66.471 C4.210000000000036,66.55499999999995 3.9899999999997817,66.596 3.850000000000364,66.596 C3.600000000000364,66.596 3.4099999999998545,66.51300000000003 3.2799999999997453,66.346 C3.1599999999998545,66.149 3.100000000000364,65.971 3.100000000000364,65.81500000000005 C3.100000000000364,65.53399999999999 3.369999999999891,65.17999999999995 3.8900000000003274,64.75300000000004 C4.4099999999998545,64.29399999999998 4.720000000000255,63.971000000000004 4.819999999999709,63.78399999999999 C4.880000000000109,63.690000000000055 5.029999999999745,63.351999999999975 5.289999999999964,62.76800000000003 C5.5,62.236999999999966 5.739999999999782,61.82600000000002 6.0,61.53399999999999 C6.239999999999782,61.25300000000004 6.529999999999745,61.111999999999966 6.869999999999891,61.111999999999966 C7.020000000000437,61.111999999999966 7.25,61.149 7.569999999999709,61.221000000000004 C7.9099999999998545,61.30499999999995 8.159999999999854,61.346000000000004 8.319999999999709,61.346000000000004 C8.470000000000255,61.346000000000004 8.710000000000036,61.30499999999995 9.039999999999964,61.221000000000004 C9.350000000000364,61.138000000000034 9.579999999999927,61.096000000000004 9.729999999999563,61.096000000000004" />
<path d="M7.5,81.096 C8.11999999999989,81.096 8.649999999999636,81.25800000000004 9.090000000000146,81.58100000000002 C9.489999999999782,81.93499999999995 9.680000000000291,82.37800000000004 9.680000000000291,82.90899999999999 C9.680000000000291,83.80499999999995 9.220000000000255,84.64300000000003 8.3100000000004,85.42499999999995 C7.369999999999891,86.20600000000002 6.369999999999891,86.596 5.289999999999964,86.596 C4.670000000000073,86.596 4.140000000000327,86.43499999999995 3.7100000000000364,86.11199999999997 C3.3100000000004,85.75800000000004 3.100000000000364,85.31500000000005 3.100000000000364,84.78399999999999 C3.100000000000364,83.88800000000003 3.569999999999709,83.04999999999995 4.510000000000218,82.26800000000003 C5.430000000000291,81.48699999999997 6.420000000000073,81.096 7.5,81.096" />
<path d="M7.899999999999636,13.596000000000004 C8.520000000000437,13.596000000000004 9.050000000000182,13.758000000000038 9.489999999999782,14.081000000000017 C9.890000000000327,14.434999999999945 10.079999999999927,14.878000000000043 10.079999999999927,15.408999999999992 C10.079999999999927,16.30499999999995 9.61999999999989,17.14300000000003 8.710000000000036,17.924999999999955 C7.770000000000437,18.706000000000017 6.770000000000437,19.096000000000004 5.6899999999996,19.096000000000004 C5.069999999999709,19.096000000000004 4.539999999999964,18.934999999999945 4.109999999999673,18.611999999999966 C3.7100000000000364,18.258000000000038 3.5,17.815000000000055 3.5,17.283999999999992 C3.5,16.388000000000034 3.9700000000002547,15.549999999999955 4.9099999999998545,14.768000000000029 C5.829999999999927,13.986999999999966 6.819999999999709,13.596000000000004 7.899999999999636,13.596000000000004" />
<path d="M170.65999999999985,101.26800000000003 L169.71000000000004,104.36199999999997 C169.3800000000001,105.47699999999998 168.8199999999997,106.55499999999995 168.03999999999996,107.596 C167.25,108.63800000000003 166.4399999999996,109.15899999999999 165.60999999999967,109.15899999999999 C165.1899999999996,109.15899999999999 164.8100000000004,109.04700000000003 164.47999999999956,108.82299999999998 C164.14999999999964,108.59900000000005 163.98999999999978,108.30999999999995 163.98999999999978,107.95600000000002 C163.98999999999978,107.54999999999995 164.0699999999997,107.20600000000002 164.23999999999978,106.92499999999995 C164.42000000000007,106.654 164.65999999999985,106.50800000000004 164.97000000000025,106.48699999999997 C165.19999999999982,106.48699999999997 165.39999999999964,106.57000000000005 165.55000000000018,106.73699999999997 C165.71000000000004,106.904 165.78999999999996,107.096 165.78999999999996,107.31500000000005 C165.78999999999996,107.51300000000003 165.67000000000007,107.69500000000005 165.4399999999996,107.86199999999997 C165.19999999999982,108.00800000000004 165.07999999999993,108.17499999999995 165.0699999999997,108.36199999999997 C165.0699999999997,108.48699999999997 165.21000000000004,108.54999999999995 165.48999999999978,108.54999999999995 L165.60999999999967,108.54999999999995 C165.6800000000003,108.54999999999995 165.77000000000044,108.53399999999999 165.89999999999964,108.50300000000004 C165.97000000000025,108.49199999999996 166.0600000000004,108.45100000000002 166.15999999999985,108.37800000000004 C166.15999999999985,108.37800000000004 166.22000000000025,108.32600000000002 166.35000000000036,108.221 C166.4300000000003,108.10699999999997 166.47999999999956,108.024 166.51000000000022,107.971 C166.55000000000018,107.86699999999996 166.57999999999993,107.78399999999999 166.60999999999967,107.721 C166.65999999999985,107.67999999999995 166.6899999999996,107.57600000000002 166.72000000000025,107.40899999999999 C166.75,107.36699999999996 166.76000000000022,107.32000000000005 166.77000000000044,107.26800000000003 C166.77999999999975,107.21600000000001 166.78999999999996,107.17999999999995 166.80000000000018,107.15899999999999 C166.8100000000004,107.13800000000003 166.8199999999997,107.12199999999996 166.8199999999997,107.11199999999997 C166.8699999999999,106.904 166.90999999999985,106.779 166.9300000000003,106.73699999999997 C166.97000000000025,106.529 166.98999999999978,106.42499999999995 166.98999999999978,106.42499999999995 L168.27000000000044,101.26800000000003 L167.28999999999996,101.26800000000003 C167.1899999999996,101.26800000000003 167.1300000000001,101.23699999999997 167.07999999999993,101.17499999999995 C167.02999999999975,101.09100000000001 167.01000000000022,101.01800000000003 167.01000000000022,100.95600000000002 C167.01000000000022,100.87199999999996 167.02999999999975,100.79999999999995 167.07999999999993,100.73699999999997 C167.17000000000007,100.67499999999995 167.22999999999956,100.64300000000003 167.28999999999996,100.64300000000003 L168.46000000000004,100.64300000000003 C168.77999999999975,99.66399999999999 169.3199999999997,98.82000000000005 170.0699999999997,98.11199999999997 C170.8100000000004,97.38300000000004 171.60000000000036,97.01800000000003 172.46000000000004,97.01800000000003 C172.92000000000007,97.01800000000003 173.30000000000018,97.13300000000004 173.60000000000036,97.36199999999997 C173.92000000000007,97.58100000000002 174.09000000000015,97.86699999999996 174.10000000000036,98.221 C174.10000000000036,98.60699999999997 174.02000000000044,98.95100000000002 173.85000000000036,99.25300000000004 C173.64999999999964,99.524 173.40999999999985,99.66399999999999 173.10999999999967,99.67499999999995 C172.89000000000033,99.67499999999995 172.6899999999996,99.59400000000005 172.53999999999996,99.43200000000002 C172.3800000000001,99.27099999999996 172.30000000000018,99.08100000000002 172.30000000000018,98.86199999999997 C172.30000000000018,98.67499999999995 172.42000000000007,98.50300000000004 172.65999999999985,98.346 C172.89999999999964,98.19000000000005 173.02000000000044,98.01300000000003 173.01000000000022,97.81500000000005 C173.01000000000022,97.66899999999998 172.8699999999999,97.60199999999998 172.60000000000036,97.61199999999997 L172.55000000000018,97.61199999999997 C172.52000000000044,97.63300000000004 172.48999999999978,97.63800000000003 172.46000000000004,97.62800000000004 C172.22999999999956,97.62800000000004 172.03999999999996,97.68499999999995 171.8800000000001,97.79999999999995 C171.72000000000025,97.904 171.57999999999993,98.09100000000001 171.4399999999996,98.36199999999997 C171.39999999999964,98.43499999999995 171.3699999999999,98.50800000000004 171.34000000000015,98.58100000000002 C171.3199999999997,98.654 171.28999999999996,98.73400000000004 171.26000000000022,98.82299999999998 C171.22000000000025,98.91200000000003 171.19999999999982,98.971 171.1800000000003,99.00300000000004 C171.17000000000007,99.06500000000005 171.14999999999964,99.19500000000005 171.10999999999967,99.39300000000003 C171.0699999999997,99.58100000000002 171.03999999999996,99.74199999999996 171.01000000000022,99.87800000000004 C170.92000000000007,100.274 170.85999999999967,100.529 170.82999999999993,100.64300000000003 L171.90999999999985,100.64300000000003 C172.0,100.64300000000003 172.0699999999997,100.67200000000003 172.14000000000033,100.72900000000004 C172.21000000000004,100.78700000000003 172.23999999999978,100.85900000000004 172.23999999999978,100.94799999999998 C172.23999999999978,101.03700000000003 172.21000000000004,101.11199999999997 172.14000000000033,101.17499999999995 C172.0699999999997,101.23699999999997 172.0,101.26800000000003 171.90999999999985,101.26800000000003 L170.65999999999985,101.26800000000003 M175.9399999999996,101.26800000000003 L174.98999999999978,104.36199999999997 C174.65999999999985,105.47699999999998 174.10000000000036,106.55499999999995 173.3199999999997,107.596 C172.52999999999975,108.63800000000003 171.72000000000025,109.15899999999999 170.89999999999964,109.15899999999999 C170.47000000000025,109.15899999999999 170.09000000000015,109.04700000000003 169.76000000000022,108.82299999999998 C169.4399999999996,108.59900000000005 169.27000000000044,108.30999999999995 169.27000000000044,107.95600000000002 C169.27000000000044,107.54999999999995 169.35000000000036,107.20600000000002 169.52000000000044,106.92499999999995 C169.69999999999982,106.654 169.9399999999996,106.50800000000004 170.26000000000022,106.48699999999997 C170.47999999999956,106.48699999999997 170.6800000000003,106.57000000000005 170.82999999999993,106.73699999999997 C170.98999999999978,106.904 171.0699999999997,107.096 171.0699999999997,107.31500000000005 C171.0699999999997,107.51300000000003 170.94999999999982,107.69500000000005 170.72000000000025,107.86199999999997 C170.47999999999956,108.00800000000004 170.35999999999967,108.17499999999995 170.35000000000036,108.36199999999997 C170.35000000000036,108.48699999999997 170.48999999999978,108.54999999999995 170.77000000000044,108.54999999999995 L170.89999999999964,108.54999999999995 C170.96000000000004,108.54999999999995 171.05000000000018,108.53399999999999 171.1800000000003,108.50300000000004 C171.25,108.49199999999996 171.34000000000015,108.45100000000002 171.4399999999996,108.37800000000004 C171.4399999999996,108.37800000000004 171.51000000000022,108.32600000000002 171.6300000000001,108.221 C171.71000000000004,108.10699999999997 171.77000000000044,108.024 171.78999999999996,107.971 C171.82999999999993,107.86699999999996 171.85999999999967,107.78399999999999 171.89999999999964,107.721 C171.9399999999996,107.67999999999995 171.97000000000025,107.57600000000002 172.01000000000022,107.40899999999999 C172.02999999999975,107.36699999999996 172.03999999999996,107.32000000000005 172.05000000000018,107.26800000000003 C172.0600000000004,107.21600000000001 172.0699999999997,107.17999999999995 172.07999999999993,107.15899999999999 C172.09000000000015,107.13800000000003 172.10000000000036,107.12199999999996 172.10000000000036,107.11199999999997 C172.14999999999964,106.904 172.1899999999996,106.779 172.21000000000004,106.73699999999997 C172.25,106.529 172.27000000000044,106.42499999999995 172.27000000000044,106.42499999999995 L173.55000000000018,101.26800000000003 L172.5699999999997,101.26800000000003 C172.47000000000025,101.26800000000003 172.40999999999985,101.23699999999997 172.35999999999967,101.17499999999995 C172.3100000000004,101.09100000000001 172.28999999999996,101.01800000000003 172.28999999999996,100.95600000000002 C172.28999999999996,100.87199999999996 172.3100000000004,100.79999999999995 172.35999999999967,100.73699999999997 C172.44999999999982,100.67499999999995 172.52000000000044,100.64300000000003 172.5699999999997,100.64300000000003 L173.73999999999978,100.64300000000003 C174.0600000000004,99.66399999999999 174.60000000000036,98.82000000000005 175.35000000000036,98.11199999999997 C176.09000000000015,97.38300000000004 176.89000000000033,97.01800000000003 177.73999999999978,97.01800000000003 C178.19999999999982,97.01800000000003 178.57999999999993,97.13300000000004 178.8800000000001,97.36199999999997 C179.19999999999982,97.58100000000002 179.3699999999999,97.86699999999996 179.3800000000001,98.221 C179.3800000000001,98.60699999999997 179.30000000000018,98.95100000000002 179.1300000000001,99.25300000000004 C178.9300000000003,99.524 178.6899999999996,99.66399999999999 178.39999999999964,99.67499999999995 C178.17000000000007,99.67499999999995 177.97000000000025,99.59400000000005 177.8199999999997,99.43200000000002 C177.65999999999985,99.27099999999996 177.57999999999993,99.08100000000002 177.57999999999993,98.86199999999997 C177.57999999999993,98.67499999999995 177.69999999999982,98.50300000000004 177.9399999999996,98.346 C178.1800000000003,98.19000000000005 178.30000000000018,98.01300000000003 178.28999999999996,97.81500000000005 C178.28999999999996,97.66899999999998 178.14999999999964,97.60199999999998 177.8800000000001,97.61199999999997 L177.82999999999993,97.61199999999997 C177.80000000000018,97.63300000000004 177.77000000000044,97.63800000000003 177.73999999999978,97.62800000000004 C177.51000000000022,97.62800000000004 177.3199999999997,97.68499999999995 177.15999999999985,97.79999999999995 C177.01000000000022,97.904 176.85999999999967,98.09100000000001 176.72000000000025,98.36199999999997 C176.6800000000003,98.43499999999995 176.64999999999964,98.50800000000004 176.6199999999999,98.58100000000002 C176.60000000000036,98.654 176.5699999999997,98.73400000000004 176.53999999999996,98.82299999999998 C176.51000000000022,98.91200000000003 176.47999999999956,98.971 176.46000000000004,99.00300000000004 C176.44999999999982,99.06500000000005 176.4300000000003,99.19500000000005 176.39999999999964,99.39300000000003 C176.35000000000036,99.58100000000002 176.3199999999997,99.74199999999996 176.28999999999996,99.87800000000004 C176.19999999999982,100.274 176.14999999999964,100.529 176.10999999999967,100.64300000000003 L177.1899999999996,100.64300000000003 C177.27999999999975,100.64300000000003 177.35000000000036,100.67200000000003 177.42000000000007,100.72900000000004 C177.48999999999978,100.78700000000003 177.52000000000044,100.85900000000004 177.52000000000044,100.94799999999998 C177.52000000000044,101.03700000000003 177.48999999999978,101.11199999999997 177.42000000000007,101.17499999999995 C177.35000000000036,101.23699999999997 177.27999999999975,101.26800000000003 177.1899999999996,101.26800000000003 L175.9399999999996,101.26800000000003" />
<path d="M72.76000000000022,101.26800000000003 L71.80000000000018,104.36199999999997 C71.47000000000025,105.47699999999998 70.90999999999985,106.55499999999995 70.13000000000011,107.596 C69.34000000000015,108.63800000000003 68.52999999999975,109.15899999999999 67.71000000000004,109.15899999999999 C67.27999999999975,109.15899999999999 66.89999999999964,109.04700000000003 66.57999999999993,108.82299999999998 C66.25,108.59900000000005 66.07999999999993,108.30999999999995 66.07999999999993,107.95600000000002 C66.07999999999993,107.54999999999995 66.17000000000007,107.20600000000002 66.32999999999993,106.92499999999995 C66.51000000000022,106.654 66.76000000000022,106.50800000000004 67.06999999999971,106.48699999999997 C67.30000000000018,106.48699999999997 67.48999999999978,106.57000000000005 67.64999999999964,106.73699999999997 C67.80000000000018,106.904 67.88000000000011,107.096 67.88000000000011,107.31500000000005 C67.88000000000011,107.51300000000003 67.77000000000044,107.69500000000005 67.53999999999996,107.86199999999997 C67.30000000000018,108.00800000000004 67.17000000000007,108.17499999999995 67.15999999999985,108.36199999999997 C67.15999999999985,108.48699999999997 67.30000000000018,108.54999999999995 67.57999999999993,108.54999999999995 L67.71000000000004,108.54999999999995 C67.77000000000044,108.54999999999995 67.86999999999989,108.53399999999999 67.98999999999978,108.50300000000004 C68.0600000000004,108.49199999999996 68.14999999999964,108.45100000000002 68.26000000000022,108.37800000000004 C68.26000000000022,108.37800000000004 68.31999999999971,108.32600000000002 68.4399999999996,108.221 C68.52999999999975,108.10699999999997 68.57999999999993,108.024 68.60000000000036,107.971 C68.64000000000033,107.86699999999996 68.68000000000029,107.78399999999999 68.71000000000004,107.721 C68.75,107.67999999999995 68.78999999999996,107.57600000000002 68.81999999999971,107.40899999999999 C68.84000000000015,107.36699999999996 68.85999999999967,107.32000000000005 68.86999999999989,107.26800000000003 C68.88000000000011,107.21600000000001 68.89000000000033,107.17999999999995 68.89999999999964,107.15899999999999 C68.90999999999985,107.13800000000003 68.90999999999985,107.12199999999996 68.90999999999985,107.11199999999997 C68.96000000000004,106.904 69.0,106.779 69.02000000000044,106.73699999999997 C69.0600000000004,106.529 69.07999999999993,106.42499999999995 69.07999999999993,106.42499999999995 L70.36999999999989,101.26800000000003 L69.38000000000011,101.26800000000003 C69.28999999999996,101.26800000000003 69.22000000000025,101.23699999999997 69.18000000000029,101.17499999999995 C69.13000000000011,101.09100000000001 69.10000000000036,101.01800000000003 69.10000000000036,100.95600000000002 C69.10000000000036,100.87199999999996 69.13000000000011,100.79999999999995 69.18000000000029,100.73699999999997 C69.26000000000022,100.67499999999995 69.32999999999993,100.64300000000003 69.38000000000011,100.64300000000003 L70.55000000000018,100.64300000000003 C70.88000000000011,99.66399999999999 71.40999999999985,98.82000000000005 72.15999999999985,98.11199999999997 C72.89999999999964,97.38300000000004 73.69999999999982,97.01800000000003 74.55000000000018,97.01800000000003 C75.01000000000022,97.01800000000003 75.39000000000033,97.13300000000004 75.6899999999996,97.36199999999997 C76.02000000000044,97.58100000000002 76.18000000000029,97.86699999999996 76.1899999999996,98.221 C76.1899999999996,98.60699999999997 76.10999999999967,98.95100000000002 75.9399999999996,99.25300000000004 C75.75,99.524 75.5,99.66399999999999 75.21000000000004,99.67499999999995 C74.97999999999956,99.67499999999995 74.78999999999996,99.59400000000005 74.63000000000011,99.43200000000002 C74.47999999999956,99.27099999999996 74.39999999999964,99.08100000000002 74.39999999999964,98.86199999999997 C74.39999999999964,98.67499999999995 74.52000000000044,98.50300000000004 74.76000000000022,98.346 C75.0,98.19000000000005 75.10999999999967,98.01300000000003 75.10000000000036,97.81500000000005 C75.10000000000036,97.66899999999998 74.96000000000004,97.60199999999998 74.6899999999996,97.61199999999997 L74.64999999999964,97.61199999999997 C74.61999999999989,97.63300000000004 74.57999999999993,97.63800000000003 74.55000000000018,97.62800000000004 C74.31999999999971,97.62800000000004 74.13000000000011,97.68499999999995 73.97999999999956,97.79999999999995 C73.81999999999971,97.904 73.67000000000007,98.09100000000001 73.53999999999996,98.36199999999997 C73.5,98.43499999999995 73.46000000000004,98.50800000000004 73.4399999999996,98.58100000000002 C73.40999999999985,98.654 73.38000000000011,98.73400000000004 73.35000000000036,98.82299999999998 C73.31999999999971,98.91200000000003 73.28999999999996,98.971 73.27000000000044,99.00300000000004 C73.26000000000022,99.06500000000005 73.23999999999978,99.19500000000005 73.21000000000004,99.39300000000003 C73.17000000000007,99.58100000000002 73.13000000000011,99.74199999999996 73.10000000000036,99.87800000000004 C73.02000000000044,100.274 72.96000000000004,100.529 72.93000000000029,100.64300000000003 L74.01000000000022,100.64300000000003 C74.09000000000015,100.64300000000003 74.17000000000007,100.67200000000003 74.22999999999956,100.72900000000004 C74.30000000000018,100.78700000000003 74.32999999999993,100.85900000000004 74.32999999999993,100.94799999999998 C74.32999999999993,101.03700000000003 74.30000000000018,101.11199999999997 74.22999999999956,101.17499999999995 C74.17000000000007,101.23699999999997 74.09000000000015,101.26800000000003 74.01000000000022,101.26800000000003 L72.76000000000022,101.26800000000003 M78.03999999999996,101.26800000000003 L77.07999999999993,104.36199999999997 C76.75,105.47699999999998 76.1899999999996,106.55499999999995 75.40999999999985,107.596 C74.61999999999989,108.63800000000003 73.8100000000004,109.15899999999999 72.98999999999978,109.15899999999999 C72.5600000000004,109.15899999999999 72.1899999999996,109.04700000000003 71.85999999999967,108.82299999999998 C71.52999999999975,108.59900000000005 71.36999999999989,108.30999999999995 71.36999999999989,107.95600000000002 C71.36999999999989,107.54999999999995 71.44999999999982,107.20600000000002 71.61999999999989,106.92499999999995 C71.78999999999996,106.654 72.03999999999996,106.50800000000004 72.35000000000036,106.48699999999997 C72.57999999999993,106.48699999999997 72.77000000000044,106.57000000000005 72.93000000000029,106.73699999999997 C73.07999999999993,106.904 73.15999999999985,107.096 73.15999999999985,107.31500000000005 C73.15999999999985,107.51300000000003 73.05000000000018,107.69500000000005 72.81999999999971,107.86199999999997 C72.57999999999993,108.00800000000004 72.44999999999982,108.17499999999995 72.4399999999996,108.36199999999997 C72.4399999999996,108.48699999999997 72.57999999999993,108.54999999999995 72.86999999999989,108.54999999999995 L72.98999999999978,108.54999999999995 C73.05000000000018,108.54999999999995 73.14999999999964,108.53399999999999 73.27000000000044,108.50300000000004 C73.35000000000036,108.49199999999996 73.43000000000029,108.45100000000002 73.53999999999996,108.37800000000004 C73.53999999999996,108.37800000000004 73.60000000000036,108.32600000000002 73.72999999999956,108.221 C73.8100000000004,108.10699999999997 73.85999999999967,108.024 73.88000000000011,107.971 C73.92000000000007,107.86699999999996 73.96000000000004,107.78399999999999 73.98999999999978,107.721 C74.02999999999975,107.67999999999995 74.06999999999971,107.57600000000002 74.10000000000036,107.40899999999999 C74.11999999999989,107.36699999999996 74.14000000000033,107.32000000000005 74.14999999999964,107.26800000000003 C74.15999999999985,107.21600000000001 74.17000000000007,107.17999999999995 74.18000000000029,107.15899999999999 C74.1899999999996,107.13800000000003 74.1899999999996,107.12199999999996 74.1899999999996,107.11199999999997 C74.25,106.904 74.27999999999975,106.779 74.30000000000018,106.73699999999997 C74.35000000000036,106.529 74.36999999999989,106.42499999999995 74.36999999999989,106.42499999999995 L75.64999999999964,101.26800000000003 L74.65999999999985,101.26800000000003 C74.56999999999971,101.26800000000003 74.5,101.23699999999997 74.46000000000004,101.17499999999995 C74.40999999999985,101.09100000000001 74.38000000000011,101.01800000000003 74.38000000000011,100.95600000000002 C74.38000000000011,100.87199999999996 74.40999999999985,100.79999999999995 74.46000000000004,100.73699999999997 C74.53999999999996,100.67499999999995 74.60999999999967,100.64300000000003 74.65999999999985,100.64300000000003 L75.82999999999993,100.64300000000003 C76.15999999999985,99.66399999999999 76.6899999999996,98.82000000000005 77.4399999999996,98.11199999999997 C78.18000000000029,97.38300000000004 78.97999999999956,97.01800000000003 79.82999999999993,97.01800000000003 C80.28999999999996,97.01800000000003 80.67000000000007,97.13300000000004 80.97999999999956,97.36199999999997 C81.30000000000018,97.58100000000002 81.46000000000004,97.86699999999996 81.47999999999956,98.221 C81.47999999999956,98.60699999999997 81.39000000000033,98.95100000000002 81.22999999999956,99.25300000000004 C81.02999999999975,99.524 80.77999999999975,99.66399999999999 80.48999999999978,99.67499999999995 C80.26000000000022,99.67499999999995 80.06999999999971,99.59400000000005 79.90999999999985,99.43200000000002 C79.76000000000022,99.27099999999996 79.68000000000029,99.08100000000002 79.68000000000029,98.86199999999997 C79.68000000000029,98.67499999999995 79.80000000000018,98.50300000000004 80.03999999999996,98.346 C80.27999999999975,98.19000000000005 80.39000000000033,98.01300000000003 80.38000000000011,97.81500000000005 C80.38000000000011,97.66899999999998 80.25,97.60199999999998 79.97999999999956,97.61199999999997 L79.93000000000029,97.61199999999997 C79.89999999999964,97.63300000000004 79.86999999999989,97.63800000000003 79.82999999999993,97.62800000000004 C79.60999999999967,97.62800000000004 79.40999999999985,97.68499999999995 79.26000000000022,97.79999999999995 C79.10000000000036,97.904 78.94999999999982,98.09100000000001 78.81999999999971,98.36199999999997 C78.77999999999975,98.43499999999995 78.73999999999978,98.50800000000004 78.72000000000025,98.58100000000002 C78.6899999999996,98.654 78.65999999999985,98.73400000000004 78.63000000000011,98.82299999999998 C78.60000000000036,98.91200000000003 78.56999999999971,98.971 78.55000000000018,99.00300000000004 C78.53999999999996,99.06500000000005 78.52000000000044,99.19500000000005 78.48999999999978,99.39300000000003 C78.44999999999982,99.58100000000002 78.40999999999985,99.74199999999996 78.38000000000011,99.87800000000004 C78.30000000000018,100.274 78.23999999999978,100.529 78.21000000000004,100.64300000000003 L79.28999999999996,100.64300000000003 C79.36999999999989,100.64300000000003 79.44999999999982,100.67200000000003 79.51000000000022,100.72900000000004 C79.57999999999993,100.78700000000003 79.61999999999989,100.85900000000004 79.61999999999989,100.94799999999998 C79.61999999999989,101.03700000000003 79.57999999999993,101.11199999999997 79.51000000000022,101.17499999999995 C79.44999999999982,101.23699999999997 79.36999999999989,101.26800000000003 79.28999999999996,101.26800000000003 L78.03999999999996,101.26800000000003 M83.31999999999971,101.26800000000003 L82.36999999999989,104.36199999999997 C82.02999999999975,105.47699999999998 81.47999999999956,106.55499999999995 80.6899999999996,107.596 C79.89999999999964,108.63800000000003 79.10000000000036,109.15899999999999 78.27000000000044,109.15899999999999 C77.85000000000036,109.15899999999999 77.47000000000025,109.04700000000003 77.14000000000033,108.82299999999998 C76.8100000000004,108.59900000000005 76.64999999999964,108.30999999999995 76.64999999999964,107.95600000000002 C76.64999999999964,107.54999999999995 76.72999999999956,107.20600000000002 76.89999999999964,106.92499999999995 C77.06999999999971,106.654 77.31999999999971,106.50800000000004 77.63000000000011,106.48699999999997 C77.85999999999967,106.48699999999997 78.05000000000018,106.57000000000005 78.21000000000004,106.73699999999997 C78.36999999999989,106.904 78.4399999999996,107.096 78.4399999999996,107.31500000000005 C78.4399999999996,107.51300000000003 78.32999999999993,107.69500000000005 78.10000000000036,107.86199999999997 C77.85999999999967,108.00800000000004 77.73999999999978,108.17499999999995 77.72999999999956,108.36199999999997 C77.72999999999956,108.48699999999997 77.86999999999989,108.54999999999995 78.14999999999964,108.54999999999995 L78.27000000000044,108.54999999999995 C78.32999999999993,108.54999999999995 78.43000000000029,108.53399999999999 78.55000000000018,108.50300000000004 C78.63000000000011,108.49199999999996 78.71000000000004,108.45100000000002 78.81999999999971,108.37800000000004 C78.81999999999971,108.37800000000004 78.88000000000011,108.32600000000002 79.01000000000022,108.221 C79.09000000000015,108.10699999999997 79.14000000000033,108.024 79.15999999999985,107.971 C79.19999999999982,107.86699999999996 79.23999999999978,107.78399999999999 79.27000000000044,107.721 C79.3100000000004,107.67999999999995 79.35000000000036,107.57600000000002 79.38000000000011,107.40899999999999 C79.39999999999964,107.36699999999996 79.42000000000007,107.32000000000005 79.43000000000029,107.26800000000003 C79.4399999999996,107.21600000000001 79.44999999999982,107.17999999999995 79.46000000000004,107.15899999999999 C79.47000000000025,107.13800000000003 79.47999999999956,107.12199999999996 79.47999999999956,107.11199999999997 C79.52999999999975,106.904 79.5600000000004,106.779 79.57999999999993,106.73699999999997 C79.63000000000011,106.529 79.64999999999964,106.42499999999995 79.64999999999964,106.42499999999995 L80.93000000000029,101.26800000000003 L79.9399999999996,101.26800000000003 C79.85000000000036,101.26800000000003 79.77999999999975,101.23699999999997 79.73999999999978,101.17499999999995 C79.6899999999996,101.09100000000001 79.65999999999985,101.01800000000003 79.65999999999985,100.95600000000002 C79.65999999999985,100.87199999999996 79.6899999999996,100.79999999999995 79.73999999999978,100.73699999999997 C79.81999999999971,100.67499999999995 79.89000000000033,100.64300000000003 79.9399999999996,100.64300000000003 L81.11999999999989,100.64300000000003 C81.4399999999996,99.66399999999999 81.97999999999956,98.82000000000005 82.72999999999956,98.11199999999997 C83.46000000000004,97.38300000000004 84.26000000000022,97.01800000000003 85.11999999999989,97.01800000000003 C85.56999999999971,97.01800000000003 85.94999999999982,97.13300000000004 86.26000000000022,97.36199999999997 C86.57999999999993,97.58100000000002 86.75,97.86699999999996 86.76000000000022,98.221 C86.76000000000022,98.60699999999997 86.67000000000007,98.95100000000002 86.51000000000022,99.25300000000004 C86.3100000000004,99.524 86.0600000000004,99.66399999999999 85.77000000000044,99.67499999999995 C85.53999999999996,99.67499999999995 85.35000000000036,99.59400000000005 85.1899999999996,99.43200000000002 C85.03999999999996,99.27099999999996 84.96000000000004,99.08100000000002 84.96000000000004,98.86199999999997 C84.96000000000004,98.67499999999995 85.07999999999993,98.50300000000004 85.31999999999971,98.346 C85.5600000000004,98.19000000000005 85.67000000000007,98.01300000000003 85.65999999999985,97.81500000000005 C85.65999999999985,97.66899999999998 85.52999999999975,97.60199999999998 85.26000000000022,97.61199999999997 L85.21000000000004,97.61199999999997 C85.18000000000029,97.63300000000004 85.14999999999964,97.63800000000003 85.11999999999989,97.62800000000004 C84.89000000000033,97.62800000000004 84.6899999999996,97.68499999999995 84.53999999999996,97.79999999999995 C84.38000000000011,97.904 84.23999999999978,98.09100000000001 84.10000000000036,98.36199999999997 C84.0600000000004,98.43499999999995 84.02000000000044,98.50800000000004 84.0,98.58100000000002 C83.97000000000025,98.654 83.9399999999996,98.73400000000004 83.90999999999985,98.82299999999998 C83.88000000000011,98.91200000000003 83.85999999999967,98.971 83.82999999999993,99.00300000000004 C83.81999999999971,99.06500000000005 83.80000000000018,99.19500000000005 83.77000000000044,99.39300000000003 C83.72999999999956,99.58100000000002 83.6899999999996,99.74199999999996 83.65999999999985,99.87800000000004 C83.57999999999993,100.274 83.52000000000044,100.529 83.48999999999978,100.64300000000003 L84.56999999999971,100.64300000000003 C84.64999999999964,100.64300000000003 84.72999999999956,100.67200000000003 84.80000000000018,100.72900000000004 C84.85999999999967,100.78700000000003 84.89999999999964,100.85900000000004 84.89999999999964,100.94799999999998 C84.89999999999964,101.03700000000003 84.85999999999967,101.11199999999997 84.80000000000018,101.17499999999995 C84.72999999999956,101.23699999999997 84.64999999999964,101.26800000000003 84.56999999999971,101.26800000000003 L83.31999999999971,101.26800000000003" />
<path d="M2.6400000000003274,101.26800000000003 L1.680000000000291,104.36199999999997 C1.3500000000003638,105.47699999999998 0.7899999999999636,106.55499999999995 0.010000000000218279,107.596 C-0.7799999999997453,108.63800000000003 -1.5900000000001455,109.15899999999999 -2.4099999999998545,109.15899999999999 C-2.8400000000001455,109.15899999999999 -3.2200000000002547,109.04700000000003 -3.5399999999999636,108.82299999999998 C-3.869999999999891,108.59900000000005 -4.039999999999964,108.30999999999995 -4.039999999999964,107.95600000000002 C-4.039999999999964,107.54999999999995 -3.949999999999818,107.20600000000002 -3.7899999999999636,106.92499999999995 C-3.6099999999996726,106.654 -3.3599999999996726,106.50800000000004 -3.050000000000182,106.48699999999997 C-2.819999999999709,106.48699999999997 -2.630000000000109,106.57000000000005 -2.4700000000002547,106.73699999999997 C-2.319999999999709,106.904 -2.2399999999997817,107.096 -2.2399999999997817,107.31500000000005 C-2.2399999999997817,107.51300000000003 -2.350000000000364,107.69500000000005 -2.5799999999999272,107.86199999999997 C-2.819999999999709,108.00800000000004 -2.949999999999818,108.17499999999995 -2.9600000000000364,108.36199999999997 C-2.9600000000000364,108.48699999999997 -2.819999999999709,108.54999999999995 -2.5399999999999636,108.54999999999995 L-2.4099999999998545,108.54999999999995 C-2.350000000000364,108.54999999999995 -2.2600000000002183,108.53399999999999 -2.130000000000109,108.50300000000004 C-2.0600000000004,108.49199999999996 -1.9700000000002547,108.45100000000002 -1.8599999999996726,108.37800000000004 C-1.8599999999996726,108.37800000000004 -1.800000000000182,108.32600000000002 -1.680000000000291,108.221 C-1.5900000000001455,108.10699999999997 -1.5399999999999636,108.024 -1.5200000000004366,107.971 C-1.4799999999995634,107.86699999999996 -1.4399999999995998,107.78399999999999 -1.4099999999998545,107.721 C-1.3699999999998909,107.67999999999995 -1.3299999999999272,107.57600000000002 -1.300000000000182,107.40899999999999 C-1.2799999999997453,107.36699999999996 -1.2700000000004366,107.32000000000005 -1.2600000000002183,107.26800000000003 C-1.25,107.21600000000001 -1.2299999999995634,107.17999999999995 -1.2200000000002547,107.15899999999999 C-1.2100000000000364,107.13800000000003 -1.2100000000000364,107.12199999999996 -1.2100000000000364,107.11199999999997 C-1.1599999999998545,106.904 -1.1199999999998909,106.779 -1.1000000000003638,106.73699999999997 C-1.0600000000004002,106.529 -1.0399999999999636,106.42499999999995 -1.0399999999999636,106.42499999999995 L0.23999999999978172,101.26800000000003 L-0.7399999999997817,101.26800000000003 C-0.8299999999999272,101.26800000000003 -0.8999999999996362,101.23699999999997 -0.9399999999995998,101.17499999999995 C-1.0,101.09100000000001 -1.0200000000004366,101.01800000000003 -1.0200000000004366,100.95600000000002 C-1.0200000000004366,100.87199999999996 -1.0,100.79999999999995 -0.9399999999995998,100.73699999999997 C-0.8599999999996726,100.67499999999995 -0.7899999999999636,100.64300000000003 -0.7399999999997817,100.64300000000003 L0.43000000000029104,100.64300000000003 C0.75,99.66399999999999 1.2899999999999636,98.82000000000005 2.0399999999999636,98.11199999999997 C2.7799999999997453,97.38300000000004 3.5799999999999272,97.01800000000003 4.430000000000291,97.01800000000003 C4.890000000000327,97.01800000000003 5.270000000000437,97.13300000000004 5.569999999999709,97.36199999999997 C5.899999999999636,97.58100000000002 6.0600000000004,97.86699999999996 6.069999999999709,98.221 C6.069999999999709,98.60699999999997 5.989999999999782,98.95100000000002 5.819999999999709,99.25300000000004 C5.619999999999891,99.524 5.380000000000109,99.66399999999999 5.0900000000001455,99.67499999999995 C4.859999999999673,99.67499999999995 4.670000000000073,99.59400000000005 4.510000000000218,99.43200000000002 C4.350000000000364,99.27099999999996 4.279999999999745,99.08100000000002 4.279999999999745,98.86199999999997 C4.279999999999745,98.67499999999995 4.399999999999636,98.50300000000004 4.640000000000327,98.346 C4.869999999999891,98.19000000000005 4.989999999999782,98.01300000000003 4.979999999999563,97.81500000000005 C4.979999999999563,97.66899999999998 4.8400000000001455,97.60199999999998 4.569999999999709,97.61199999999997 L4.529999999999745,97.61199999999997 C4.489999999999782,97.63300000000004 4.460000000000036,97.63800000000003 4.430000000000291,97.62800000000004 C4.199999999999818,97.62800000000004 4.010000000000218,97.68499999999995 3.850000000000364,97.79999999999995 C3.699999999999818,97.904 3.550000000000182,98.09100000000001 3.4200000000000728,98.36199999999997 C3.369999999999891,98.43499999999995 3.3400000000001455,98.50800000000004 3.3100000000004,98.58100000000002 C3.2899999999999636,98.654 3.2600000000002183,98.73400000000004 3.2299999999995634,98.82299999999998 C3.199999999999818,98.91200000000003 3.1700000000000728,98.971 3.149999999999636,99.00300000000004 C3.1400000000003274,99.06500000000005 3.119999999999891,99.19500000000005 3.0900000000001455,99.39300000000003 C3.050000000000182,99.58100000000002 3.0100000000002183,99.74199999999996 2.9799999999995634,99.87800000000004 C2.899999999999636,100.274 2.8400000000001455,100.529 2.8100000000004,100.64300000000003 L3.8900000000003274,100.64300000000003 C3.9700000000002547,100.64300000000003 4.039999999999964,100.67200000000003 4.109999999999673,100.72900000000004 C4.180000000000291,100.78700000000003 4.210000000000036,100.85900000000004 4.210000000000036,100.94799999999998 C4.210000000000036,101.03700000000003 4.180000000000291,101.11199999999997 4.109999999999673,101.17499999999995 C4.039999999999964,101.23699999999997 3.9700000000002547,101.26800000000003 3.8900000000003274,101.26800000000003 L2.6400000000003274,101.26800000000003 M7.920000000000073,101.26800000000003 L6.960000000000036,104.36199999999997 C6.630000000000109,105.47699999999998 6.069999999999709,106.55499999999995 5.289999999999964,107.596 C4.5,108.63800000000003 3.6899999999996,109.15899999999999 2.869999999999891,109.15899999999999 C2.4399999999996,109.15899999999999 2.0600000000004,109.04700000000003 1.7399999999997817,108.82299999999998 C1.4099999999998545,108.59900000000005 1.2399999999997817,108.30999999999995 1.2399999999997817,107.95600000000002 C1.2399999999997817,107.54999999999995 1.3299999999999272,107.20600000000002 1.4899999999997817,106.92499999999995 C1.6700000000000728,106.654 1.9200000000000728,106.50800000000004 2.2299999999995634,106.48699999999997 C2.4600000000000364,106.48699999999997 2.649999999999636,106.57000000000005 2.8100000000004,106.73699999999997 C2.9600000000000364,106.904 3.0399999999999636,107.096 3.0399999999999636,107.31500000000005 C3.0399999999999636,107.51300000000003 2.930000000000291,107.69500000000005 2.699999999999818,107.86199999999997 C2.4600000000000364,108.00800000000004 2.3299999999999272,108.17499999999995 2.319999999999709,108.36199999999997 C2.319999999999709,108.48699999999997 2.4600000000000364,108.54999999999995 2.7399999999997817,108.54999999999995 L2.869999999999891,108.54999999999995 C2.930000000000291,108.54999999999995 3.0299999999997453,108.53399999999999 3.149999999999636,108.50300000000004 C3.2200000000002547,108.49199999999996 3.3100000000004,108.45100000000002 3.4200000000000728,108.37800000000004 C3.4200000000000728,108.37800000000004 3.4799999999995634,108.32600000000002 3.600000000000364,108.221 C3.6899999999996,108.10699999999997 3.7399999999997817,108.024 3.7600000000002183,107.971 C3.800000000000182,107.86699999999996 3.8400000000001455,107.78399999999999 3.869999999999891,107.721 C3.9099999999998545,107.67999999999995 3.949999999999818,107.57600000000002 3.9799999999995634,107.40899999999999 C4.0,107.36699999999996 4.020000000000437,107.32000000000005 4.029999999999745,107.26800000000003 C4.039999999999964,107.21600000000001 4.050000000000182,107.17999999999995 4.0600000000004,107.15899999999999 C4.069999999999709,107.13800000000003 4.069999999999709,107.12199999999996 4.069999999999709,107.11199999999997 C4.119999999999891,106.904 4.1599999999998545,106.779 4.180000000000291,106.73699999999997 C4.220000000000255,106.529 4.239999999999782,106.42499999999995 4.239999999999782,106.42499999999995 L5.529999999999745,101.26800000000003 L4.539999999999964,101.26800000000003 C4.449999999999818,101.26800000000003 4.380000000000109,101.23699999999997 4.3400000000001455,101.17499999999995 C4.289999999999964,101.09100000000001 4.260000000000218,101.01800000000003 4.260000000000218,100.95600000000002 C4.260000000000218,100.87199999999996 4.289999999999964,100.79999999999995 4.3400000000001455,100.73699999999997 C4.420000000000073,100.67499999999995 4.489999999999782,100.64300000000003 4.539999999999964,100.64300000000003 L5.710000000000036,100.64300000000003 C6.039999999999964,99.66399999999999 6.569999999999709,98.82000000000005 7.319999999999709,98.11199999999997 C8.0600000000004,97.38300000000004 8.859999999999673,97.01800000000003 9.710000000000036,97.01800000000003 C10.170000000000073,97.01800000000003 10.550000000000182,97.13300000000004 10.850000000000364,97.36199999999997 C11.180000000000291,97.58100000000002 11.340000000000146,97.86699999999996 11.350000000000364,98.221 C11.350000000000364,98.60699999999997 11.270000000000437,98.95100000000002 11.100000000000364,99.25300000000004 C10.909999999999854,99.524 10.659999999999854,99.66399999999999 10.36999999999989,99.67499999999995 C10.140000000000327,99.67499999999995 9.949999999999818,99.59400000000005 9.789999999999964,99.43200000000002 C9.640000000000327,99.27099999999996 9.5600000000004,99.08100000000002 9.5600000000004,98.86199999999997 C9.5600000000004,98.67499999999995 9.680000000000291,98.50300000000004 9.920000000000073,98.346 C10.159999999999854,98.19000000000005 10.270000000000437,98.01300000000003 10.260000000000218,97.81500000000005 C10.260000000000218,97.66899999999998 10.11999999999989,97.60199999999998 9.850000000000364,97.61199999999997 L9.8100000000004,97.61199999999997 C9.779999999999745,97.63300000000004 9.739999999999782,97.63800000000003 9.710000000000036,97.62800000000004 C9.479999999999563,97.62800000000004 9.289999999999964,97.68499999999995 9.140000000000327,97.79999999999995 C8.979999999999563,97.904 8.829999999999927,98.09100000000001 8.699999999999818,98.36199999999997 C8.659999999999854,98.43499999999995 8.61999999999989,98.50800000000004 8.600000000000364,98.58100000000002 C8.569999999999709,98.654 8.539999999999964,98.73400000000004 8.510000000000218,98.82299999999998 C8.479999999999563,98.91200000000003 8.449999999999818,98.971 8.430000000000291,99.00300000000004 C8.420000000000073,99.06500000000005 8.399999999999636,99.19500000000005 8.36999999999989,99.39300000000003 C8.329999999999927,99.58100000000002 8.289999999999964,99.74199999999996 8.260000000000218,99.87800000000004 C8.180000000000291,100.274 8.11999999999989,100.529 8.090000000000146,100.64300000000003 L9.170000000000073,100.64300000000003 C9.25,100.64300000000003 9.329999999999927,100.67200000000003 9.390000000000327,100.72900000000004 C9.460000000000036,100.78700000000003 9.489999999999782,100.85900000000004 9.489999999999782,100.94799999999998 C9.489999999999782,101.03700000000003 9.460000000000036,101.11199999999997 9.390000000000327,101.17499999999995 C9.329999999999927,101.23699999999997 9.25,101.26800000000003 9.170000000000073,101.26800000000003 L7.920000000000073,101.26800000000003" />
<path d="M140.5,88.846 L187.5,88.846 L187.5,91.346 L140.5,91.346 L140.5,88.846" />
<path d="M171.1300000000001,85.096 L187.5,85.096 L187.5,87.596 L171.1300000000001,87.596 L171.1300000000001,85.096" />
<path d="M140.89999999999964,32.596000000000004 L172.1800000000003,32.596000000000004 L172.1800000000003,35.096000000000004 L140.89999999999964,35.096000000000004 L140.89999999999964,32.596000000000004" />
<path d="M140.89999999999964,28.846000000000004 L156.8699999999999,28.846000000000004 L156.8699999999999,31.346000000000004 L140.89999999999964,31.346000000000004 L140.89999999999964,28.846000000000004" />
<path d="M75.86999999999989,97.596 L110.52000000000044,97.596 L110.52000000000044,100.096 L75.86999999999989,100.096 L75.86999999999989,97.596" />
<path d="M76.27000000000044,32.596000000000004 L126.23999999999978,32.596000000000004 L126.23999999999978,35.096000000000004 L76.27000000000044,35.096000000000004 L76.27000000000044,32.596000000000004" />
<path d="M110.27000000000044,28.846000000000004 L126.23999999999978,28.846000000000004 L126.23999999999978,31.346000000000004 L110.27000000000044,31.346000000000004 L110.27000000000044,28.846000000000004" />
<path d="M24.159999999999854,88.846 L61.57999999999993,88.846 L61.57999999999993,91.346 L24.159999999999854,91.346 L24.159999999999854,88.846" />
<path d="M61.57999999999993,85.096 L54.97999999999956,85.096 L54.97999999999956,87.596 L61.57999999999993,87.596 L61.57999999999993,85.096" />
<path d="M33.63000000000011,64.65099999999995 C33.409999999999854,64.42700000000002 33.30000000000018,64.15899999999999 33.30000000000018,63.846000000000004 C33.30000000000018,63.53399999999999 33.409999999999854,63.26599999999996 33.63000000000011,63.04200000000003 C33.85999999999967,62.817999999999984 34.11999999999989,62.70600000000002 34.4399999999996,62.70600000000002 C34.75,62.70600000000002 35.01000000000022,62.817999999999984 35.22999999999956,63.04200000000003 C35.44999999999982,63.26599999999996 35.5600000000004,63.53399999999999 35.5600000000004,63.846000000000004 C35.5600000000004,64.15899999999999 35.44999999999982,64.42700000000002 35.22999999999956,64.65099999999995 C35.01000000000022,64.875 34.75,64.98699999999997 34.4399999999996,64.98699999999997 C34.11999999999989,64.98699999999997 33.85999999999967,64.875 33.63000000000011,64.65099999999995" />
<path d="M33.63000000000011,74.65099999999995 C33.409999999999854,74.42700000000002 33.30000000000018,74.15899999999999 33.30000000000018,73.846 C33.30000000000018,73.53399999999999 33.409999999999854,73.26599999999996 33.63000000000011,73.04200000000003 C33.85999999999967,72.81799999999998 34.11999999999989,72.70600000000002 34.4399999999996,72.70600000000002 C34.75,72.70600000000002 35.01000000000022,72.81799999999998 35.22999999999956,73.04200000000003 C35.44999999999982,73.26599999999996 35.5600000000004,73.53399999999999 35.5600000000004,73.846 C35.5600000000004,74.15899999999999 35.44999999999982,74.42700000000002 35.22999999999956,74.65099999999995 C35.01000000000022,74.875 34.75,74.98699999999997 34.4399999999996,74.98699999999997 C34.11999999999989,74.98699999999997 33.85999999999967,74.875 33.63000000000011,74.65099999999995" />
<polyline points="0.0,13.846000000000004 202.96000000000004,13.846000000000004" fill="none" stroke="#000000" stroke-width="0.40" />
<polyline points="0.0,18.846000000000004 202.96000000000004,18.846000000000004" fill="none" stroke="#000000" stroke-width="0.40" />
<polyline points="0.0,23.846000000000004 202.96000000000004,23.846000000000004" fill="none" stroke="#000000" stroke-width="0.40" />
<polyline points="0.0,28.846000000000004 202.96000000000004,28.846000000000004" fill="none" stroke="#000000" stroke-width="0.40" />
<polyline points="0.0,33.846000000000004 202.96000000000004,33.846000000000004" fill="none" stroke="#000000" stroke-width="0.40" />
<polyline points="0.0,66.346 202.96000000000004,66.346" fill="none" stroke="#000000" stroke-width="0.40" />
<polyline points="0.0,71.346 202.96000000000004,71.346" fill="none" stroke="#000000" stroke-width="0.40" />
<polyline points="0.0,76.346 202.96000000000004,76.346" fill="none" stroke="#000000" stroke-width="0.40" />
<polyline points="0.0,81.346 202.96000000000004,81.346" fill="none" stroke="#000000" stroke-width="0.40" />
<polyline points="0.0,86.346 202.96000000000004,86.346" fill="none" stroke="#000000" stroke-width="0.40" />
<polyline points="202.5600000000004,66.346 202.5600000000004,86.346" fill="" stroke="#000000" stroke-width="0.80" />
<polyline points="202.5600000000004,13.846000000000004 202.5600000000004,33.846000000000004" fill="" stroke="#000000" stroke-width="0.80" />
<polyline points="187.17000000000007,74.78599999999994 187.17000000000007,90.096" fill="" stroke="#000000" stroke-width="0.65" />
<polyline points="171.46000000000004,65.90999999999997 171.46000000000004,90.096" fill="" stroke="#000000" stroke-width="0.65" />
<polyline points="171.85999999999967,19.785999999999945 171.85999999999967,33.846000000000004" fill="" stroke="#000000" stroke-width="0.65" />
<polyline points="156.53999999999996,19.785999999999945 156.53999999999996,33.846000000000004" fill="" stroke="#000000" stroke-width="0.65" />
<polyline points="140.82999999999993,65.90999999999997 140.82999999999993,90.096" fill="" stroke="#000000" stroke-width="0.65" />
<polyline points="141.22999999999956,12.285999999999945 141.22999999999956,33.846000000000004" fill="" stroke="#000000" stroke-width="0.65" />
<polyline points="125.90999999999985,19.785999999999945 125.90999999999985,33.846000000000004" fill="" stroke="#000000" stroke-width="0.65" />
<polyline points="110.19999999999982,65.90999999999997 110.19999999999982,98.846" fill="" stroke="#000000" stroke-width="0.65" />
<polyline points="110.60000000000036,19.785999999999945 110.60000000000036,33.846000000000004" fill="" stroke="#000000" stroke-width="0.65" />
<polyline points="76.1899999999996,65.90999999999997 76.1899999999996,98.846" fill="" stroke="#000000" stroke-width="0.65" />
<polyline points="76.59000000000015,12.285999999999945 76.59000000000015,33.846000000000004" fill="" stroke="#000000" stroke-width="0.65" />
<polyline points="61.26000000000022,74.78599999999994 61.26000000000022,90.096" fill="" stroke="#000000" stroke-width="0.65" />
<polyline points="45.9399999999996,17.285999999999945 45.9399999999996,42.596000000000004" fill="" stroke="#000000" stroke-width="0.65" />
<polyline points="24.48999999999978,65.90999999999997 24.48999999999978,90.096" fill="" stroke="#000000" stroke-width="0.65" />
<polyline points="24.890000000000327,27.285999999999945 24.890000000000327,42.596000000000004" fill="" stroke="#000000" stroke-width="0.65" />
<polyline points="3.430000000000291,65.90999999999997 3.430000000000291,98.846" fill="" stroke="#000000" stroke-width="0.65" />
<polyline points="3.8299999999999272,17.285999999999945 3.8299999999999272,42.596000000000004" fill="" stroke="#000000" stroke-width="0.65" />
</svg>
