<?xml version="1.0" encoding="UTF-8" standalone="yes"?>
<svg width="256.0px" height="256.0px" xmlns="http://www.w3.org/2000/svg" xmlns:xlink="http://www.w3.org/1999/xlink" version="1.2" baseProfile="tiny">
<path d="M66.15999999999985,30.79200000000003 C66.02999999999975,30.69799999999998 65.88000000000011,30.591000000000008 65.72999999999956,30.47199999999998 C65.57999999999993,30.351999999999975 65.40999999999985,30.184999999999945 65.22000000000025,29.97199999999998 C65.03999999999996,29.758000000000038 64.86999999999989,29.53200000000004 64.72000000000025,29.29200000000003 C64.57999999999993,29.05200000000002 64.46000000000004,28.760999999999967 64.35999999999967,28.41700000000003 C64.27000000000044,28.07299999999998 64.22000000000025,27.71900000000005 64.22000000000025,27.354000000000042 C64.22000000000025,26.96900000000005 64.27000000000044,26.604000000000042 64.35999999999967,26.260999999999967 C64.46000000000004,25.91700000000003 64.56999999999971,25.633000000000038 64.71000000000004,25.408999999999992 C64.84000000000015,25.184999999999945 65.01000000000022,24.966000000000008 65.22000000000025,24.753000000000043 C65.42000000000007,24.538999999999987 65.59000000000015,24.383000000000038 65.72000000000025,24.283999999999992 C65.85999999999967,24.184999999999945 66.01000000000022,24.077999999999975 66.18000000000029,23.964000000000055 L66.25,24.089000000000055 C66.02999999999975,24.287000000000035 65.84000000000015,24.461000000000013 65.6899999999996,24.611999999999966 C65.55000000000018,24.763000000000034 65.40999999999985,24.964000000000055 65.27000000000044,25.214000000000055 C65.13000000000011,25.464000000000055 65.03999999999996,25.760999999999967 64.97999999999956,26.104000000000042 C64.92000000000007,26.44799999999998 64.89999999999964,26.860000000000014 64.89999999999964,27.339000000000055 C64.89999999999964,27.827999999999975 64.92000000000007,28.253000000000043 64.97999999999956,28.611999999999966 C65.03999999999996,28.97199999999998 65.13000000000011,29.275999999999954 65.27000000000044,29.525999999999954 C65.40999999999985,29.775999999999954 65.55000000000018,29.98199999999997 65.6899999999996,30.144000000000005 C65.84000000000015,30.30499999999995 66.02999999999975,30.474000000000046 66.25,30.650999999999954 L66.15999999999985,30.79200000000003 M66.6899999999996,27.66700000000003 C66.6899999999996,27.07299999999998 66.86999999999989,26.59699999999998 67.22000000000025,26.236999999999966 C67.5600000000004,25.878000000000043 67.97000000000025,25.69799999999998 68.4399999999996,25.69799999999998 C68.77999999999975,25.69799999999998 69.0600000000004,25.778999999999996 69.28999999999996,25.940000000000055 C69.52999999999975,26.101999999999975 69.64999999999964,26.297000000000025 69.64999999999964,26.525999999999954 C69.64999999999964,26.610000000000014 69.60999999999967,26.684999999999945 69.53999999999996,26.753000000000043 C69.46000000000004,26.821000000000026 69.36999999999989,26.854000000000042 69.27000000000044,26.854000000000042 C69.09000000000015,26.854000000000042 68.97000000000025,26.735000000000014 68.90999999999985,26.495000000000005 L68.85999999999967,26.32299999999998 C68.81999999999971,26.16700000000003 68.77000000000044,26.062999999999988 68.71000000000004,26.010999999999967 C68.64999999999964,25.958999999999946 68.53999999999996,25.932999999999993 68.39999999999964,25.932999999999993 C68.06999999999971,25.932999999999993 67.8100000000004,26.059999999999945 67.60999999999967,26.315000000000055 C67.42000000000007,26.571000000000026 67.31999999999971,26.90700000000004 67.31999999999971,27.32299999999998 C67.31999999999971,27.770999999999958 67.43000000000029,28.140999999999963 67.65999999999985,28.432999999999993 C67.89000000000033,28.724000000000046 68.1899999999996,28.870000000000005 68.55000000000018,28.870000000000005 C68.77000000000044,28.870000000000005 68.96000000000004,28.812999999999988 69.11999999999989,28.69799999999998 C69.27999999999975,28.583999999999946 69.46000000000004,28.390999999999963 69.64999999999964,28.120000000000005 L69.75,28.182999999999993 C69.69999999999982,28.297000000000025 69.65999999999985,28.388000000000034 69.61999999999989,28.456000000000017 C69.59000000000015,28.524 69.51000000000022,28.628000000000043 69.40999999999985,28.769000000000005 C69.3100000000004,28.908999999999992 69.21000000000004,29.020999999999958 69.10999999999967,29.104000000000042 C69.01000000000022,29.187999999999988 68.88000000000011,29.265999999999963 68.72000000000025,29.339000000000055 C68.55000000000018,29.412000000000035 68.38000000000011,29.44799999999998 68.21000000000004,29.44799999999998 C67.77000000000044,29.44799999999998 67.40999999999985,29.28200000000004 67.11999999999989,28.94799999999998 C66.84000000000015,28.61500000000001 66.6899999999996,28.187999999999988 66.6899999999996,27.66700000000003 M70.35999999999967,23.964000000000055 C70.51000000000022,24.047000000000025 70.65999999999985,24.149 70.80000000000018,24.269000000000005 C70.94999999999982,24.388000000000034 71.11999999999989,24.55499999999995 71.3100000000004,24.769000000000005 C71.5,24.98199999999997 71.67000000000007,25.211000000000013 71.8100000000004,25.456000000000017 C71.94999999999982,25.701000000000022 72.06999999999971,25.991999999999962 72.17000000000007,26.331000000000017 C72.27000000000044,26.66999999999996 72.31999999999971,27.025999999999954 72.31999999999971,27.400999999999954 C72.31999999999971,27.775999999999954 72.27000000000044,28.135999999999967 72.17000000000007,28.479000000000042 C72.06999999999971,28.82299999999998 71.96000000000004,29.110000000000014 71.81999999999971,29.339000000000055 C71.6899999999996,29.567999999999984 71.52999999999975,29.787000000000035 71.31999999999971,29.995000000000005 C71.10999999999967,30.202999999999975 70.9399999999996,30.360000000000014 70.8100000000004,30.464000000000055 C70.68000000000029,30.567999999999984 70.52999999999975,30.67700000000002 70.35000000000036,30.79200000000003 L70.27000000000044,30.650999999999954 C70.51000000000022,30.464000000000055 70.69999999999982,30.29200000000003 70.85000000000036,30.135999999999967 C70.98999999999978,29.979000000000042 71.13000000000011,29.778999999999996 71.26000000000022,29.533999999999992 C71.39000000000033,29.288999999999987 71.48999999999978,28.995000000000005 71.53999999999996,28.650999999999954 C71.60000000000036,28.307999999999993 71.63000000000011,27.895999999999958 71.63000000000011,27.41700000000003 C71.63000000000011,26.92700000000002 71.60000000000036,26.503000000000043 71.53999999999996,26.144000000000005 C71.48999999999978,25.783999999999992 71.39000000000033,25.476999999999975 71.26000000000022,25.22199999999998 C71.13000000000011,24.966000000000008 70.98999999999978,24.760999999999967 70.85000000000036,24.604000000000042 C70.69999999999982,24.44799999999998 70.51000000000022,24.275999999999954 70.27000000000044,24.089000000000055 L70.35999999999967,23.964000000000055 M76.14999999999964,24.635999999999967 C76.03999999999996,24.635999999999967 75.85000000000036,24.692999999999984 75.56999999999971,24.807999999999993 L75.56999999999971,24.69799999999998 L76.98999999999978,23.964000000000055 L77.05000000000018,23.979000000000042 L77.05000000000018,28.775999999999954 C77.05000000000018,28.974000000000046 77.10000000000036,29.101999999999975 77.19999999999982,29.158999999999992 C77.30000000000018,29.216000000000008 77.5,29.245000000000005 77.81999999999971,29.245000000000005 L77.81999999999971,29.370000000000005 L75.60999999999967,29.370000000000005 L75.60999999999967,29.245000000000005 C75.92000000000007,29.235000000000014 76.11999999999989,29.190000000000055 76.22000000000025,29.111999999999966 C76.32999999999993,29.033999999999992 76.38000000000011,28.870000000000005 76.38000000000011,28.620000000000005 L76.38000000000011,25.010999999999967 C76.38000000000011,24.760999999999967 76.30000000000018,24.635999999999967 76.14999999999964,24.635999999999967 M79.13000000000011,29.54200000000003 L79.10999999999967,29.385999999999967 C79.72000000000025,29.28200000000004 80.22999999999956,29.024 80.64999999999964,28.611999999999966 C81.06999999999971,28.201000000000022 81.36999999999989,27.66700000000003 81.53999999999996,27.010999999999967 C81.14000000000033,27.32299999999998 80.73999999999978,27.479000000000042 80.32999999999993,27.479000000000042 C79.90999999999985,27.479000000000042 79.5600000000004,27.327999999999975 79.28999999999996,27.025999999999954 C79.02999999999975,26.724000000000046 78.89999999999964,26.333999999999946 78.89999999999964,25.854000000000042 C78.89999999999964,25.312999999999988 79.05000000000018,24.860000000000014 79.36999999999989,24.495000000000005 C79.6899999999996,24.129999999999995 80.09000000000015,23.94799999999998 80.56999999999971,23.94799999999998 C81.10000000000036,23.94799999999998 81.52999999999975,24.158999999999992 81.85999999999967,24.581000000000017 C82.19999999999982,25.003000000000043 82.35999999999967,25.547000000000025 82.35999999999967,26.214000000000055 C82.35999999999967,26.432999999999993 82.35000000000036,26.653999999999996 82.3100000000004,26.878000000000043 C82.27000000000044,27.101999999999975 82.1899999999996,27.366999999999962 82.05000000000018,27.674999999999955 C81.92000000000007,27.98199999999997 81.73999999999978,28.254999999999995 81.51000000000022,28.495000000000005 C81.28999999999996,28.735000000000014 80.97000000000025,28.952999999999975 80.56999999999971,29.150999999999954 C80.15999999999985,29.349000000000046 79.68000000000029,29.479000000000042 79.13000000000011,29.54200000000003 M80.63000000000011,27.120000000000005 C80.72999999999956,27.120000000000005 80.85000000000036,27.10699999999997 80.97000000000025,27.081000000000017 C81.10000000000036,27.05499999999995 81.22999999999956,26.991999999999962 81.35999999999967,26.894000000000005 C81.48999999999978,26.79499999999996 81.55000000000018,26.672000000000025 81.55000000000018,26.525999999999954 L81.55000000000018,26.214000000000055 C81.55000000000018,24.860000000000014 81.19999999999982,24.182999999999993 80.5,24.182999999999993 C80.34000000000015,24.182999999999993 80.1899999999996,24.226999999999975 80.06999999999971,24.315000000000055 C79.96000000000004,24.403999999999996 79.86999999999989,24.520999999999958 79.8100000000004,24.66700000000003 C79.75,24.812999999999988 79.71000000000004,24.958999999999946 79.68000000000029,25.104000000000042 C79.64999999999964,25.25 79.63000000000011,25.40700000000004 79.63000000000011,25.57299999999998 C79.63000000000011,26.05200000000002 79.72000000000025,26.42999999999995 79.89999999999964,26.706000000000017 C80.09000000000015,26.98199999999997 80.32999999999993,27.120000000000005 80.63000000000011,27.120000000000005 M84.71000000000004,29.479000000000042 C84.17000000000007,29.479000000000042 83.72999999999956,29.265999999999963 83.39999999999964,28.839000000000055 C83.06999999999971,28.412000000000035 82.90999999999985,27.84400000000005 82.90999999999985,27.135999999999967 C82.90999999999985,26.91700000000003 82.93000000000029,26.692999999999984 82.97999999999956,26.464000000000055 C83.02999999999975,26.235000000000014 83.11999999999989,25.97199999999998 83.26000000000022,25.674999999999955 C83.39999999999964,25.378000000000043 83.59000000000015,25.111999999999966 83.81999999999971,24.878000000000043 C84.0600000000004,24.644000000000005 84.38000000000011,24.434999999999945 84.78999999999996,24.253000000000043 C85.21000000000004,24.071000000000026 85.68000000000029,23.952999999999975 86.22000000000025,23.900999999999954 L86.23999999999978,24.025999999999954 C85.60000000000036,24.129999999999995 85.06999999999971,24.385999999999967 84.64999999999964,24.79200000000003 C84.22999999999956,25.19799999999998 83.96000000000004,25.702999999999975 83.85000000000036,26.307999999999993 C84.10000000000036,26.162000000000035 84.28999999999996,26.067999999999984 84.42000000000007,26.025999999999954 C84.55000000000018,25.985000000000014 84.69999999999982,25.964000000000055 84.88000000000011,25.964000000000055 C85.35000000000036,25.964000000000055 85.72000000000025,26.111999999999966 86.0,26.408999999999992 C86.27000000000044,26.706000000000017 86.40999999999985,27.104000000000042 86.40999999999985,27.604000000000042 C86.40999999999985,28.15700000000004 86.25,28.60699999999997 85.93000000000029,28.956000000000017 C85.61999999999989,29.30499999999995 85.21000000000004,29.479000000000042 84.71000000000004,29.479000000000042 M84.57999999999993,26.32299999999998 C84.22000000000025,26.32299999999998 83.97000000000025,26.400999999999954 83.84000000000015,26.557999999999993 C83.71000000000004,26.714000000000055 83.64999999999964,26.94799999999998 83.64999999999964,27.260999999999967 C83.64999999999964,27.875 83.75,28.360000000000014 83.96000000000004,28.714000000000055 C84.17000000000007,29.067999999999984 84.4399999999996,29.245000000000005 84.78999999999996,29.245000000000005 C85.07999999999993,29.245000000000005 85.30000000000018,29.128000000000043 85.4399999999996,28.894000000000005 C85.59000000000015,28.658999999999992 85.65999999999985,28.32299999999998 85.65999999999985,27.885999999999967 C85.65999999999985,27.385999999999967 85.56999999999971,27.0 85.38000000000011,26.729000000000042 C85.1899999999996,26.458999999999946 84.93000000000029,26.32299999999998 84.57999999999993,26.32299999999998 M88.96000000000004,26.400999999999954 C89.44999999999982,26.754999999999995 89.77999999999975,27.05200000000002 89.94999999999982,27.29200000000003 C90.11999999999989,27.53200000000004 90.21000000000004,27.807999999999993 90.21000000000004,28.120000000000005 C90.21000000000004,28.537000000000035 90.0600000000004,28.866999999999962 89.77999999999975,29.111999999999966 C89.48999999999978,29.35699999999997 89.10999999999967,29.479000000000042 88.63000000000011,29.479000000000042 C88.17000000000007,29.479000000000042 87.80000000000018,29.35699999999997 87.51000000000022,29.111999999999966 C87.22999999999956,28.866999999999962 87.07999999999993,28.547000000000025 87.07999999999993,28.150999999999954 C87.07999999999993,27.879999999999995 87.14999999999964,27.653999999999996 87.27999999999975,27.47199999999998 C87.40999999999985,27.288999999999987 87.6899999999996,27.037000000000035 88.13000000000011,26.714000000000055 C87.69999999999982,26.339000000000055 87.43000000000029,26.062999999999988 87.3100000000004,25.885999999999967 C87.1899999999996,25.708999999999946 87.13000000000011,25.49000000000001 87.13000000000011,25.229000000000042 C87.13000000000011,24.86500000000001 87.27000000000044,24.559999999999945 87.5600000000004,24.315000000000055 C87.85000000000036,24.071000000000026 88.21000000000004,23.94799999999998 88.65999999999985,23.94799999999998 C89.0600000000004,23.94799999999998 89.38000000000011,24.05499999999995 89.64000000000033,24.269000000000005 C89.89000000000033,24.48199999999997 90.02000000000044,24.760999999999967 90.02000000000044,25.104000000000042 C90.02000000000044,25.375 89.9399999999996,25.604000000000042 89.78999999999996,25.79200000000003 C89.63000000000011,25.979000000000042 89.35000000000036,26.182999999999993 88.96000000000004,26.400999999999954 M88.32999999999993,26.870000000000005 C88.10000000000036,27.057999999999993 87.9399999999996,27.241999999999962 87.85000000000036,27.424999999999955 C87.75,27.60699999999997 87.71000000000004,27.827999999999975 87.71000000000004,28.089000000000055 C87.71000000000004,28.432999999999993 87.80000000000018,28.711000000000013 87.97999999999956,28.924999999999955 C88.15999999999985,29.138000000000034 88.40999999999985,29.245000000000005 88.71000000000004,29.245000000000005 C88.97000000000025,29.245000000000005 89.18000000000029,29.163999999999987 89.34000000000015,29.003000000000043 C89.5,28.841000000000008 89.57999999999993,28.629999999999995 89.57999999999993,28.370000000000005 C89.57999999999993,28.287000000000035 89.56999999999971,28.206000000000017 89.5600000000004,28.128000000000043 C89.53999999999996,28.049999999999955 89.52999999999975,27.985000000000014 89.5,27.932999999999993 C89.47999999999956,27.879999999999995 89.4399999999996,27.817999999999984 89.39000000000033,27.745000000000005 C89.32999999999993,27.672000000000025 89.28999999999996,27.616999999999962 89.25,27.581000000000017 C89.22000000000025,27.54499999999996 89.15999999999985,27.486999999999966 89.06999999999971,27.408999999999992 C88.98999999999978,27.331000000000017 88.92000000000007,27.275999999999954 88.86999999999989,27.245000000000005 C88.81999999999971,27.214000000000055 88.73999999999978,27.153999999999996 88.60999999999967,27.065000000000055 C88.48999999999978,26.976999999999975 88.39999999999964,26.912000000000035 88.32999999999993,26.870000000000005 M88.72000000000025,26.260999999999967 C88.72999999999956,26.25 88.77000000000044,26.22199999999998 88.84000000000015,26.174999999999955 C88.90999999999985,26.128000000000043 88.96000000000004,26.091000000000008 88.97999999999956,26.065000000000055 C89.01000000000022,26.038999999999987 89.05000000000018,26.0 89.10999999999967,25.94799999999998 C89.18000000000029,25.895999999999958 89.22000000000025,25.84400000000005 89.25,25.79200000000003 C89.28999999999996,25.74000000000001 89.31999999999971,25.67700000000002 89.35999999999967,25.604000000000042 C89.40999999999985,25.53200000000004 89.43000000000029,25.451000000000022 89.44999999999982,25.361999999999966 C89.47000000000025,25.274 89.47000000000025,25.182999999999993 89.47000000000025,25.089000000000055 C89.47000000000025,24.817999999999984 89.39999999999964,24.599000000000046 89.23999999999978,24.432999999999993 C89.07999999999993,24.265999999999963 88.86999999999989,24.182999999999993 88.60000000000036,24.182999999999993 C88.35000000000036,24.182999999999993 88.14000000000033,24.258000000000038 87.97999999999956,24.408999999999992 C87.81999999999971,24.559999999999945 87.73999999999978,24.75 87.73999999999978,24.979000000000042 C87.73999999999978,25.19799999999998 87.8100000000004,25.40700000000004 87.97000000000025,25.604000000000042 C88.11999999999989,25.80200000000002 88.36999999999989,26.020999999999958 88.72000000000025,26.260999999999967 M98.07999999999993,26.69799999999998 C98.07999999999993,26.937999999999988 98.05000000000018,27.172000000000025 98.0,27.400999999999954 C97.9399999999996,27.629999999999995 97.84000000000015,27.866999999999962 97.69999999999982,28.111999999999966 C97.5600000000004,28.35699999999997 97.38000000000011,28.567999999999984 97.14999999999964,28.745000000000005 C96.93000000000029,28.922000000000025 96.63000000000011,29.071000000000026 96.25,29.190000000000055 C95.88000000000011,29.309999999999945 95.46000000000004,29.370000000000005 94.98999999999978,29.370000000000005 L92.72000000000025,29.370000000000005 L92.72000000000025,29.214000000000055 C93.02999999999975,29.192999999999984 93.22000000000025,29.140999999999963 93.30000000000018,29.057999999999993 C93.38000000000011,28.974000000000046 93.43000000000029,28.787000000000035 93.43000000000029,28.495000000000005 L93.43000000000029,24.94799999999998 C93.43000000000029,24.65700000000004 93.39000000000033,24.47199999999998 93.3100000000004,24.394000000000005 C93.22999999999956,24.315000000000055 93.03999999999996,24.260999999999967 92.72000000000025,24.229000000000042 L92.72000000000025,24.07299999999998 L94.88000000000011,24.07299999999998 C95.36999999999989,24.07299999999998 95.80000000000018,24.128000000000043 96.18000000000029,24.236999999999966 C96.5600000000004,24.34699999999998 96.86999999999989,24.486999999999966 97.10999999999967,24.658999999999992 C97.34000000000015,24.831000000000017 97.52999999999975,25.037000000000035 97.68000000000029,25.275999999999954 C97.84000000000015,25.515999999999963 97.9399999999996,25.75 98.0,25.979000000000042 C98.05000000000018,26.208999999999946 98.07999999999993,26.44799999999998 98.07999999999993,26.69799999999998 M97.1899999999996,26.760999999999967 C97.1899999999996,26.53200000000004 97.17000000000007,26.309999999999945 97.13000000000011,26.09699999999998 C97.09000000000015,25.883000000000038 97.01000000000022,25.66999999999996 96.89000000000033,25.456000000000017 C96.77000000000044,25.241999999999962 96.60999999999967,25.059999999999945 96.43000000000029,24.908999999999992 C96.23999999999978,24.758000000000038 95.98999999999978,24.633000000000038 95.6899999999996,24.533999999999992 C95.39000000000033,24.434999999999945 95.05000000000018,24.385999999999967 94.65999999999985,24.385999999999967 C94.48999999999978,24.385999999999967 94.38000000000011,24.40700000000004 94.31999999999971,24.44799999999998 C94.27000000000044,24.49000000000001 94.23999999999978,24.57299999999998 94.23999999999978,24.69799999999998 L94.23999999999978,28.745000000000005 C94.23999999999978,28.870000000000005 94.27000000000044,28.956000000000017 94.31999999999971,29.003000000000043 C94.38000000000011,29.049999999999955 94.48999999999978,29.07299999999998 94.65999999999985,29.07299999999998 C96.35000000000036,29.07299999999998 97.1899999999996,28.30200000000002 97.1899999999996,26.760999999999967 M101.02000000000044,26.885999999999967 C100.88000000000011,26.458999999999946 100.77999999999975,26.190000000000055 100.69999999999982,26.081000000000017 C100.61999999999989,25.97199999999998 100.48999999999978,25.90700000000004 100.31999999999971,25.885999999999967 L100.31999999999971,25.775999999999954 L101.9399999999996,25.775999999999954 L101.9399999999996,25.885999999999967 C101.75,25.91700000000003 101.63000000000011,25.951000000000022 101.56999999999971,25.986999999999966 C101.5,26.024 101.47000000000025,26.089000000000055 101.47000000000025,26.182999999999993 C101.47000000000025,26.245000000000005 101.52000000000044,26.400999999999954 101.60999999999967,26.650999999999954 L102.28999999999996,28.44799999999998 L103.0,26.66700000000003 C103.10000000000036,26.44799999999998 103.14999999999964,26.270999999999958 103.14999999999964,26.135999999999967 C103.14999999999964,26.07299999999998 103.11999999999989,26.024 103.06999999999971,25.986999999999966 C103.01000000000022,25.951000000000022 102.92000000000007,25.91700000000003 102.78999999999996,25.885999999999967 L102.78999999999996,25.775999999999954 L103.77000000000044,25.775999999999954 L103.77000000000044,25.885999999999967 C103.6899999999996,25.91700000000003 103.63000000000011,25.956000000000017 103.60000000000036,26.003000000000043 C103.56999999999971,26.049999999999955 103.51000000000022,26.15700000000004 103.4399999999996,26.32299999999998 L102.32999999999993,29.089000000000055 C102.22999999999956,29.349000000000046 102.15999999999985,29.479000000000042 102.10999999999967,29.479000000000042 C102.06999999999971,29.479000000000042 102.01000000000022,29.36500000000001 101.93000000000029,29.135999999999967 L101.1899999999996,27.245000000000005 L100.30000000000018,29.16700000000003 C100.21000000000004,29.375 100.14000000000033,29.479000000000042 100.10000000000036,29.479000000000042 C100.0600000000004,29.479000000000042 99.98999999999978,29.36500000000001 99.89999999999964,29.135999999999967 L98.81999999999971,26.400999999999954 C98.72999999999956,26.192999999999984 98.67000000000007,26.057999999999993 98.60999999999967,25.995000000000005 C98.5600000000004,25.932999999999993 98.48999999999978,25.895999999999958 98.39999999999964,25.885999999999967 L98.39999999999964,25.775999999999954 L99.82999999999993,25.775999999999954 L99.82999999999993,25.885999999999967 C99.6899999999996,25.90700000000004 99.59000000000015,25.934999999999945 99.53999999999996,25.97199999999998 C99.47999999999956,26.008000000000038 99.46000000000004,26.067999999999984 99.46000000000004,26.150999999999954 C99.46000000000004,26.235000000000014 99.47000000000025,26.317999999999984 99.5,26.400999999999954 L100.30000000000018,28.479000000000042 L101.02000000000044,26.885999999999967 M104.03999999999996,28.57299999999998 C104.03999999999996,28.479000000000042 104.05000000000018,28.394000000000005 104.06999999999971,28.315000000000055 C104.09000000000015,28.236999999999966 104.11999999999989,28.162000000000035 104.18000000000029,28.089000000000055 C104.22999999999956,28.015999999999963 104.27999999999975,27.951000000000022 104.32999999999993,27.894000000000005 C104.38000000000011,27.836000000000013 104.46000000000004,27.775999999999954 104.55000000000018,27.714000000000055 C104.64999999999964,27.650999999999954 104.72000000000025,27.599000000000046 104.78999999999996,27.557999999999993 C104.85000000000036,27.515999999999963 104.9399999999996,27.46900000000005 105.06999999999971,27.41700000000003 C105.1899999999996,27.36500000000001 105.28999999999996,27.32299999999998 105.35999999999967,27.29200000000003 C105.42000000000007,27.260999999999967 105.52999999999975,27.216000000000008 105.68000000000029,27.158999999999992 C105.84000000000015,27.101999999999975 105.9399999999996,27.057999999999993 106.0,27.025999999999954 L106.0,26.54200000000003 C106.0,26.104000000000042 105.8100000000004,25.885999999999967 105.40999999999985,25.885999999999967 C105.23999999999978,25.885999999999967 105.10999999999967,25.924999999999955 105.0,26.003000000000043 C104.89000000000033,26.081000000000017 104.82999999999993,26.172000000000025 104.82999999999993,26.275999999999954 C104.82999999999993,26.317999999999984 104.84000000000015,26.375 104.85999999999967,26.44799999999998 C104.86999999999989,26.520999999999958 104.88000000000011,26.567999999999984 104.88000000000011,26.589000000000055 C104.88000000000011,26.682999999999993 104.84000000000015,26.763000000000034 104.77000000000044,26.831000000000017 C104.69999999999982,26.899 104.60999999999967,26.932999999999993 104.5,26.932999999999993 C104.40999999999985,26.932999999999993 104.32999999999993,26.899 104.26000000000022,26.831000000000017 C104.1899999999996,26.763000000000034 104.15999999999985,26.682999999999993 104.15999999999985,26.589000000000055 C104.15999999999985,26.339000000000055 104.28999999999996,26.128000000000043 104.55000000000018,25.956000000000017 C104.8100000000004,25.783999999999992 105.13000000000011,25.69799999999998 105.5,25.69799999999998 C105.93000000000029,25.69799999999998 106.22999999999956,25.80200000000002 106.39000000000033,26.010999999999967 C106.55000000000018,26.21900000000005 106.63000000000011,26.537000000000035 106.63000000000011,26.964000000000055 L106.63000000000011,28.510999999999967 C106.63000000000011,28.687999999999988 106.64999999999964,28.809999999999945 106.68000000000029,28.878000000000043 C106.72000000000025,28.946000000000026 106.78999999999996,28.979000000000042 106.88000000000011,28.979000000000042 C106.97999999999956,28.979000000000042 107.10000000000036,28.92700000000002 107.22000000000025,28.82299999999998 L107.22000000000025,29.04200000000003 C107.09000000000015,29.19799999999998 106.97000000000025,29.30499999999995 106.85999999999967,29.361999999999966 C106.76000000000022,29.41999999999996 106.64000000000033,29.44799999999998 106.5,29.44799999999998 C106.35000000000036,29.44799999999998 106.22999999999956,29.400999999999954 106.15999999999985,29.307999999999993 C106.09000000000015,29.214000000000055 106.03999999999996,29.062999999999988 106.02000000000044,28.854000000000042 C105.5600000000004,29.25 105.18000000000029,29.44799999999998 104.85999999999967,29.44799999999998 C104.61999999999989,29.44799999999998 104.43000000000029,29.366999999999962 104.27000000000044,29.206000000000017 C104.10999999999967,29.04499999999996 104.03999999999996,28.833999999999946 104.03999999999996,28.57299999999998 M106.0,28.370000000000005 L106.0,27.214000000000055 C105.52999999999975,27.390999999999963 105.1899999999996,27.562999999999988 105.0,27.729000000000042 C104.81999999999971,27.895999999999958 104.72000000000025,28.09400000000005 104.72000000000025,28.32299999999998 C104.72000000000025,28.54200000000003 104.77999999999975,28.702999999999975 104.88000000000011,28.807999999999993 C104.97999999999956,28.912000000000035 105.10000000000036,28.964000000000055 105.22000000000025,28.964000000000055 C105.39999999999964,28.964000000000055 105.59000000000015,28.90700000000004 105.80000000000018,28.79200000000003 C105.88000000000011,28.74000000000001 105.9399999999996,28.687999999999988 105.97000000000025,28.635999999999967 C105.98999999999978,28.583999999999946 106.0,28.495000000000005 106.0,28.370000000000005 M109.6899999999996,26.44799999999998 C109.60999999999967,26.44799999999998 109.51000000000022,26.400999999999954 109.39000000000033,26.307999999999993 C109.27000000000044,26.214000000000055 109.1899999999996,26.16700000000003 109.15999999999985,26.16700000000003 C109.0600000000004,26.16700000000003 108.9399999999996,26.245000000000005 108.80000000000018,26.400999999999954 C108.67000000000007,26.557999999999993 108.60000000000036,26.702999999999975 108.60000000000036,26.839000000000055 L108.60000000000036,28.650999999999954 C108.60000000000036,28.879999999999995 108.64000000000033,29.033999999999992 108.72999999999956,29.111999999999966 C108.81999999999971,29.190000000000055 109.0,29.235000000000014 109.27000000000044,29.245000000000005 L109.27000000000044,29.370000000000005 L107.35000000000036,29.370000000000005 L107.35000000000036,29.245000000000005 C107.60999999999967,29.202999999999975 107.77000000000044,29.150999999999954 107.81999999999971,29.089000000000055 C107.88000000000011,29.025999999999954 107.90999999999985,28.895999999999958 107.90999999999985,28.69799999999998 L107.90999999999985,26.682999999999993 C107.90999999999985,26.504999999999995 107.89000000000033,26.379999999999995 107.85999999999967,26.307999999999993 C107.81999999999971,26.235000000000014 107.75,26.19799999999998 107.64999999999964,26.19799999999998 C107.5600000000004,26.19799999999998 107.47000000000025,26.208999999999946 107.35999999999967,26.229000000000042 L107.35999999999967,26.104000000000042 C107.78999999999996,25.96900000000005 108.1899999999996,25.833999999999946 108.55000000000018,25.69799999999998 L108.60000000000036,25.714000000000055 L108.60000000000036,26.41700000000003 C108.80000000000018,26.145999999999958 108.96000000000004,25.958999999999946 109.10000000000036,25.854000000000042 C109.22999999999956,25.75 109.38000000000011,25.69799999999998 109.55000000000018,25.69799999999998 C109.69999999999982,25.69799999999998 109.8100000000004,25.73199999999997 109.88000000000011,25.799999999999955 C109.94999999999982,25.866999999999962 109.98999999999978,25.96900000000005 109.98999999999978,26.104000000000042 C109.98999999999978,26.208999999999946 109.96000000000004,26.29200000000003 109.90999999999985,26.354000000000042 C109.85999999999967,26.41700000000003 109.78999999999996,26.44799999999998 109.6899999999996,26.44799999999998 M112.68000000000029,24.729000000000042 C112.59000000000015,24.729000000000042 112.52000000000044,24.69799999999998 112.46000000000004,24.635999999999967 C112.39999999999964,24.57299999999998 112.35000000000036,24.504999999999995 112.3100000000004,24.432999999999993 C112.27000000000044,24.360000000000014 112.22000000000025,24.29200000000003 112.14999999999964,24.229000000000042 C112.06999999999971,24.16700000000003 111.98999999999978,24.135999999999967 111.89999999999964,24.135999999999967 C111.59000000000015,24.135999999999967 111.4399999999996,24.370000000000005 111.4399999999996,24.839000000000055 L111.4399999999996,25.775999999999954 L112.43000000000029,25.775999999999954 L112.43000000000029,26.010999999999967 L111.4399999999996,26.010999999999967 L111.4399999999996,28.54200000000003 C111.4399999999996,28.833999999999946 111.47999999999956,29.020999999999958 111.56999999999971,29.104000000000042 C111.64999999999964,29.187999999999988 111.85999999999967,29.235000000000014 112.1899999999996,29.245000000000005 L112.1899999999996,29.370000000000005 L110.10000000000036,29.370000000000005 L110.10000000000036,29.245000000000005 C110.39000000000033,29.235000000000014 110.56999999999971,29.187999999999988 110.64999999999964,29.104000000000042 C110.72999999999956,29.020999999999958 110.77000000000044,28.833999999999946 110.77000000000044,28.54200000000003 L110.77000000000044,26.010999999999967 L110.10999999999967,26.010999999999967 L110.10999999999967,25.775999999999954 L110.77000000000044,25.775999999999954 C110.77999999999975,25.172000000000025 110.89000000000033,24.706000000000017 111.10999999999967,24.378000000000043 C111.31999999999971,24.049999999999955 111.68000000000029,23.885999999999967 112.18000000000029,23.885999999999967 C112.42000000000007,23.885999999999967 112.60999999999967,23.934999999999945 112.77000000000044,24.033999999999992 C112.93000000000029,24.133000000000038 113.0,24.254999999999995 113.0,24.400999999999954 C113.0,24.495000000000005 112.97000000000025,24.57299999999998 112.90999999999985,24.635999999999967 C112.85000000000036,24.69799999999998 112.77000000000044,24.729000000000042 112.68000000000029,24.729000000000042 M120.38000000000011,24.79200000000003 L118.32999999999993,29.370000000000005 L118.22000000000025,29.370000000000005 L116.22000000000025,24.979000000000042 L116.22000000000025,28.19799999999998 C116.22000000000025,28.604000000000042 116.27000000000044,28.873000000000047 116.35999999999967,29.003000000000043 C116.46000000000004,29.133000000000038 116.65999999999985,29.202999999999975 116.97000000000025,29.214000000000055 L116.97000000000025,29.370000000000005 L115.10000000000036,29.370000000000005 L115.10000000000036,29.214000000000055 C115.42000000000007,29.192999999999984 115.63000000000011,29.120000000000005 115.72000000000025,28.995000000000005 C115.81999999999971,28.870000000000005 115.85999999999967,28.604000000000042 115.85999999999967,28.19799999999998 L115.85999999999967,24.94799999999998 C115.85999999999967,24.65700000000004 115.81999999999971,24.46900000000005 115.72999999999956,24.385999999999967 C115.64000000000033,24.30200000000002 115.4399999999996,24.25 115.10999999999967,24.229000000000042 L115.10999999999967,24.07299999999998 L116.6899999999996,24.07299999999998 L118.53999999999996,28.120000000000005 L120.30000000000018,24.07299999999998 L121.89999999999964,24.07299999999998 L121.89999999999964,24.229000000000042 C121.59000000000015,24.260999999999967 121.39999999999964,24.317999999999984 121.31999999999971,24.400999999999954 C121.25,24.485000000000014 121.21000000000004,24.66700000000003 121.21000000000004,24.94799999999998 L121.21000000000004,28.495000000000005 C121.21000000000004,28.775999999999954 121.25,28.961000000000013 121.32999999999993,29.049999999999955 C121.42000000000007,29.138000000000034 121.60000000000036,29.192999999999984 121.89999999999964,29.214000000000055 L121.89999999999964,29.370000000000005 L119.65999999999985,29.370000000000005 L119.65999999999985,29.214000000000055 C119.97000000000025,29.192999999999984 120.17000000000007,29.135999999999967 120.25,29.04200000000003 C120.34000000000015,28.94799999999998 120.38000000000011,28.74000000000001 120.38000000000011,28.41700000000003 L120.38000000000011,24.79200000000003 M125.85999999999967,28.94799999999998 L125.85999999999967,29.07299999999998 C125.44999999999982,29.187999999999988 125.07999999999993,29.312999999999988 124.77000000000044,29.44799999999998 L124.73999999999978,29.432999999999993 L124.72000000000025,28.745000000000005 C124.71000000000004,28.765999999999963 124.67000000000007,28.815000000000055 124.59000000000015,28.894000000000005 C124.51000000000022,28.97199999999998 124.46000000000004,29.025999999999954 124.43000000000029,29.057999999999993 C124.39999999999964,29.089000000000055 124.34000000000015,29.135999999999967 124.26000000000022,29.19799999999998 C124.18000000000029,29.260999999999967 124.11999999999989,29.30499999999995 124.0600000000004,29.331000000000017 C124.0,29.35699999999997 123.93000000000029,29.383000000000038 123.84000000000015,29.408999999999992 C123.75,29.434999999999945 123.65999999999985,29.44799999999998 123.56999999999971,29.44799999999998 C123.27999999999975,29.44799999999998 123.03999999999996,29.351999999999975 122.85999999999967,29.158999999999992 C122.6899999999996,28.966000000000008 122.60000000000036,28.714000000000055 122.60000000000036,28.400999999999954 L122.60000000000036,26.385999999999967 C122.60000000000036,26.208999999999946 122.5600000000004,26.083999999999946 122.5,26.010999999999967 C122.43000000000029,25.937999999999988 122.30000000000018,25.895999999999958 122.10000000000036,25.885999999999967 L122.10000000000036,25.775999999999954 L123.27000000000044,25.775999999999954 L123.27000000000044,28.370000000000005 C123.27000000000044,28.525999999999954 123.32999999999993,28.663999999999987 123.4399999999996,28.783999999999992 C123.5600000000004,28.903999999999996 123.6899999999996,28.964000000000055 123.82999999999993,28.964000000000055 C123.89999999999964,28.964000000000055 123.97000000000025,28.956000000000017 124.03999999999996,28.940000000000055 C124.11999999999989,28.924999999999955 124.21000000000004,28.895999999999958 124.31999999999971,28.854000000000042 C124.42000000000007,28.812999999999988 124.51000000000022,28.741999999999962 124.57999999999993,28.644000000000005 C124.65999999999985,28.54499999999996 124.6899999999996,28.422000000000025 124.6899999999996,28.275999999999954 L124.6899999999996,26.400999999999954 C124.6899999999996,26.214000000000055 124.65999999999985,26.086000000000013 124.57999999999993,26.019000000000005 C124.51000000000022,25.951000000000022 124.35000000000036,25.912000000000035 124.10000000000036,25.900999999999954 L124.10000000000036,25.775999999999954 L125.35999999999967,25.775999999999954 L125.35999999999967,28.495000000000005 C125.35999999999967,28.682999999999993 125.39999999999964,28.80499999999995 125.46000000000004,28.861999999999966 C125.52000000000044,28.91999999999996 125.64999999999964,28.94799999999998 125.82999999999993,28.94799999999998 L125.85999999999967,28.94799999999998 M128.0699999999997,25.854000000000042 C128.07999999999993,25.854000000000042 128.1199999999999,25.827999999999975 128.1899999999996,25.775999999999954 L128.28999999999996,25.775999999999954 L128.3199999999997,26.854000000000042 L128.1899999999996,26.854000000000042 C128.10999999999967,26.5 128.0,26.248000000000047 127.85999999999967,26.09699999999998 C127.72999999999956,25.946000000000026 127.55000000000018,25.870000000000005 127.31999999999971,25.870000000000005 C127.14000000000033,25.870000000000005 126.98999999999978,25.922000000000025 126.88000000000011,26.025999999999954 C126.76000000000022,26.129999999999995 126.71000000000004,26.260999999999967 126.71000000000004,26.41700000000003 C126.71000000000004,26.645999999999958 126.81999999999971,26.827999999999975 127.05000000000018,26.964000000000055 L127.90999999999985,27.479000000000042 C128.14999999999964,27.625 128.3199999999997,27.770999999999958 128.4300000000003,27.91700000000003 C128.52999999999975,28.062999999999988 128.57999999999993,28.235000000000014 128.57999999999993,28.432999999999993 C128.57999999999993,28.702999999999975 128.47000000000025,28.940000000000055 128.25,29.144000000000005 C128.02000000000044,29.34699999999998 127.76000000000022,29.44799999999998 127.46000000000004,29.44799999999998 C127.31999999999971,29.44799999999998 127.14000000000033,29.424999999999955 126.92000000000007,29.378000000000043 C126.6899999999996,29.331000000000017 126.5600000000004,29.307999999999993 126.5,29.307999999999993 C126.42000000000007,29.307999999999993 126.35999999999967,29.339000000000055 126.31999999999971,29.400999999999954 L126.21000000000004,29.400999999999954 L126.21000000000004,28.150999999999954 L126.35000000000036,28.150999999999954 C126.43000000000029,28.525999999999954 126.52999999999975,28.79200000000003 126.64999999999964,28.94799999999998 C126.8100000000004,29.16700000000003 127.05000000000018,29.275999999999954 127.35999999999967,29.275999999999954 C127.5600000000004,29.275999999999954 127.72000000000025,29.224000000000046 127.84000000000015,29.120000000000005 C127.96000000000004,29.015999999999963 128.02000000000044,28.875 128.02000000000044,28.69799999999998 C128.02000000000044,28.458999999999946 127.88000000000011,28.260999999999967 127.60000000000036,28.104000000000042 L127.14999999999964,27.839000000000055 C126.80000000000018,27.640999999999963 126.5600000000004,27.456000000000017 126.42000000000007,27.283999999999992 C126.27999999999975,27.111999999999966 126.21000000000004,26.912000000000035 126.21000000000004,26.682999999999993 C126.21000000000004,26.390999999999963 126.3100000000004,26.153999999999996 126.51000000000022,25.97199999999998 C126.72000000000025,25.788999999999987 126.97999999999956,25.69799999999998 127.30000000000018,25.69799999999998 C127.47000000000025,25.69799999999998 127.63000000000011,25.724000000000046 127.78999999999996,25.775999999999954 C127.9399999999996,25.827999999999975 128.03999999999996,25.854000000000042 128.0699999999997,25.854000000000042 M129.35000000000036,26.229000000000042 C129.22000000000025,26.229000000000042 129.10999999999967,26.235000000000014 129.0,26.245000000000005 L129.0,26.135999999999967 C129.3800000000001,26.03200000000004 129.80000000000018,25.885999999999967 130.25,25.69799999999998 L130.28999999999996,25.714000000000055 L130.28999999999996,28.557999999999993 C130.28999999999996,28.839000000000055 130.3199999999997,29.019000000000005 130.39000000000033,29.09699999999998 C130.46000000000004,29.174999999999955 130.6199999999999,29.224000000000046 130.8800000000001,29.245000000000005 L130.8800000000001,29.370000000000005 L128.97000000000025,29.370000000000005 L128.97000000000025,29.245000000000005 C129.25,29.235000000000014 129.4300000000003,29.187999999999988 129.5,29.104000000000042 C129.57999999999993,29.020999999999958 129.60999999999967,28.839000000000055 129.60999999999967,28.557999999999993 L129.60999999999967,26.69799999999998 C129.60999999999967,26.520999999999958 129.59000000000015,26.399 129.55000000000018,26.331000000000017 C129.51000000000022,26.263000000000034 129.4399999999996,26.229000000000042 129.35000000000036,26.229000000000042 M129.8800000000001,23.900999999999954 C129.98999999999978,23.900999999999954 130.09000000000015,23.942999999999984 130.1800000000003,24.025999999999954 C130.26000000000022,24.110000000000014 130.30000000000018,24.208999999999946 130.30000000000018,24.32299999999998 C130.30000000000018,24.437999999999988 130.26000000000022,24.533999999999992 130.1800000000003,24.611999999999966 C130.09000000000015,24.690000000000055 129.98999999999978,24.729000000000042 129.8800000000001,24.729000000000042 C129.76000000000022,24.729000000000042 129.67000000000007,24.687999999999988 129.59000000000015,24.604000000000042 C129.51000000000022,24.520999999999958 129.47000000000025,24.424999999999955 129.47000000000025,24.315000000000055 C129.47000000000025,24.206000000000017 129.51000000000022,24.110000000000014 129.59000000000015,24.025999999999954 C129.67000000000007,23.942999999999984 129.76000000000022,23.900999999999954 129.8800000000001,23.900999999999954 M131.27000000000044,27.66700000000003 C131.27000000000044,27.07299999999998 131.4399999999996,26.59699999999998 131.78999999999996,26.236999999999966 C132.14000000000033,25.878000000000043 132.55000000000018,25.69799999999998 133.02000000000044,25.69799999999998 C133.35000000000036,25.69799999999998 133.64000000000033,25.778999999999996 133.8699999999999,25.940000000000055 C134.10999999999967,26.101999999999975 134.22000000000025,26.297000000000025 134.22000000000025,26.525999999999954 C134.22000000000025,26.610000000000014 134.1899999999996,26.684999999999945 134.10999999999967,26.753000000000043 C134.03999999999996,26.821000000000026 133.94999999999982,26.854000000000042 133.85000000000036,26.854000000000042 C133.67000000000007,26.854000000000042 133.55000000000018,26.735000000000014 133.48999999999978,26.495000000000005 L133.4399999999996,26.32299999999998 C133.39999999999964,26.16700000000003 133.35000000000036,26.062999999999988 133.28999999999996,26.010999999999967 C133.22000000000025,25.958999999999946 133.1199999999999,25.932999999999993 132.97000000000025,25.932999999999993 C132.64999999999964,25.932999999999993 132.39000000000033,26.059999999999945 132.1899999999996,26.315000000000055 C131.98999999999978,26.571000000000026 131.89999999999964,26.90700000000004 131.89999999999964,27.32299999999998 C131.89999999999964,27.770999999999958 132.01000000000022,28.140999999999963 132.23999999999978,28.432999999999993 C132.47000000000025,28.724000000000046 132.76000000000022,28.870000000000005 133.1300000000001,28.870000000000005 C133.35000000000036,28.870000000000005 133.53999999999996,28.812999999999988 133.69999999999982,28.69799999999998 C133.85999999999967,28.583999999999946 134.03999999999996,28.390999999999963 134.22000000000025,28.120000000000005 L134.32999999999993,28.182999999999993 C134.27999999999975,28.297000000000025 134.23999999999978,28.388000000000034 134.19999999999982,28.456000000000017 C134.15999999999985,28.524 134.09000000000015,28.628000000000043 133.98999999999978,28.769000000000005 C133.8800000000001,28.908999999999992 133.77999999999975,29.020999999999958 133.6800000000003,29.104000000000042 C133.59000000000015,29.187999999999988 133.46000000000004,29.265999999999963 133.28999999999996,29.339000000000055 C133.1300000000001,29.412000000000035 132.96000000000004,29.44799999999998 132.78999999999996,29.44799999999998 C132.35000000000036,29.44799999999998 131.98999999999978,29.28200000000004 131.69999999999982,28.94799999999998 C131.40999999999985,28.61500000000001 131.27000000000044,28.187999999999988 131.27000000000044,27.66700000000003 M135.60999999999967,28.57299999999998 C135.72999999999956,28.57299999999998 135.82999999999993,28.616999999999962 135.92000000000007,28.706000000000017 C136.01000000000022,28.79499999999996 136.05000000000018,28.900999999999954 136.05000000000018,29.025999999999954 C136.05000000000018,29.140999999999963 136.01000000000022,29.241999999999962 135.92000000000007,29.331000000000017 C135.82999999999993,29.41999999999996 135.72000000000025,29.464000000000055 135.60000000000036,29.464000000000055 C135.47999999999956,29.464000000000055 135.3800000000001,29.41999999999996 135.30000000000018,29.331000000000017 C135.22000000000025,29.241999999999962 135.1800000000003,29.140999999999963 135.1800000000003,29.025999999999954 C135.1800000000003,28.900999999999954 135.22000000000025,28.79499999999996 135.3100000000004,28.706000000000017 C135.39999999999964,28.616999999999962 135.5,28.57299999999998 135.60999999999967,28.57299999999998" />
</svg>
