<?xml version="1.0" encoding="UTF-8" standalone="yes"?>
<svg width="256.0px" height="256.0px" xmlns="http://www.w3.org/2000/svg" xmlns:xlink="http://www.w3.org/1999/xlink" version="1.2" baseProfile="tiny">
<path d="M35.29999999999927,30.79200000000003 C35.20000000000073,30.69799999999998 35.0,30.591000000000008 34.900000000001455,30.47199999999998 C34.70000000000073,30.351999999999975 34.5,30.184999999999945 34.400000000001455,29.97199999999998 C34.20000000000073,29.758000000000038 34.0,29.53200000000004 33.900000000001455,29.29200000000003 C33.70000000000073,29.05200000000002 33.599999999998545,28.760999999999967 33.5,28.41700000000003 C33.400000000001455,28.07299999999998 33.400000000001455,27.71900000000005 33.400000000001455,27.354000000000042 C33.400000000001455,26.96900000000005 33.400000000001455,26.604000000000042 33.5,26.260999999999967 C33.599999999998545,25.91700000000003 33.70000000000073,25.633000000000038 33.79999999999927,25.408999999999992 C34.0,25.184999999999945 34.099999999998545,24.966000000000008 34.29999999999927,24.753000000000043 C34.599999999998545,24.538999999999987 34.70000000000073,24.383000000000038 34.900000000001455,24.283999999999992 C35.0,24.184999999999945 35.099999999998545,24.077999999999975 35.29999999999927,23.964000000000055 L35.400000000001455,24.089000000000055 C35.20000000000073,24.287000000000035 35.0,24.461000000000013 34.79999999999927,24.611999999999966 C34.70000000000073,24.763000000000034 34.5,24.964000000000055 34.400000000001455,25.214000000000055 C34.29999999999927,25.464000000000055 34.20000000000073,25.760999999999967 34.099999999998545,26.104000000000042 C34.099999999998545,26.44799999999998 34.0,26.860000000000014 34.0,27.339000000000055 C34.0,27.827999999999975 34.099999999998545,28.253000000000043 34.099999999998545,28.611999999999966 C34.20000000000073,28.97199999999998 34.29999999999927,29.275999999999954 34.400000000001455,29.525999999999954 C34.5,29.775999999999954 34.70000000000073,29.98199999999997 34.79999999999927,30.144000000000005 C35.0,30.30499999999995 35.20000000000073,30.474000000000046 35.400000000001455,30.650999999999954 L35.29999999999927,30.79200000000003 M35.79999999999927,27.66700000000003 C35.79999999999927,27.07299999999998 36.0,26.59699999999998 36.29999999999927,26.236999999999966 C36.70000000000073,25.878000000000043 37.099999999998545,25.69799999999998 37.599999999998545,25.69799999999998 C37.900000000001455,25.69799999999998 38.20000000000073,25.778999999999996 38.400000000001455,25.940000000000055 C38.70000000000073,26.101999999999975 38.79999999999927,26.297000000000025 38.79999999999927,26.525999999999954 C38.79999999999927,26.610000000000014 38.70000000000073,26.684999999999945 38.70000000000073,26.753000000000043 C38.599999999998545,26.821000000000026 38.5,26.854000000000042 38.400000000001455,26.854000000000042 C38.20000000000073,26.854000000000042 38.099999999998545,26.735000000000014 38.0,26.495000000000005 L38.0,26.32299999999998 C38.0,26.16700000000003 37.900000000001455,26.062999999999988 37.79999999999927,26.010999999999967 C37.79999999999927,25.958999999999946 37.70000000000073,25.932999999999993 37.5,25.932999999999993 C37.20000000000073,25.932999999999993 36.900000000001455,26.059999999999945 36.70000000000073,26.315000000000055 C36.5,26.571000000000026 36.5,26.90700000000004 36.5,27.32299999999998 C36.5,27.770999999999958 36.599999999998545,28.140999999999963 36.79999999999927,28.432999999999993 C37.0,28.724000000000046 37.29999999999927,28.870000000000005 37.70000000000073,28.870000000000005 C37.900000000001455,28.870000000000005 38.099999999998545,28.812999999999988 38.29999999999927,28.69799999999998 C38.400000000001455,28.583999999999946 38.599999999998545,28.390999999999963 38.79999999999927,28.120000000000005 L38.900000000001455,28.182999999999993 C38.79999999999927,28.297000000000025 38.79999999999927,28.388000000000034 38.79999999999927,28.456000000000017 C38.70000000000073,28.524 38.599999999998545,28.628000000000043 38.5,28.769000000000005 C38.400000000001455,28.908999999999992 38.29999999999927,29.020999999999958 38.20000000000073,29.104000000000042 C38.099999999998545,29.187999999999988 38.0,29.265999999999963 37.79999999999927,29.339000000000055 C37.70000000000073,29.412000000000035 37.5,29.44799999999998 37.29999999999927,29.44799999999998 C36.900000000001455,29.44799999999998 36.5,29.28200000000004 36.29999999999927,28.94799999999998 C36.0,28.61500000000001 35.79999999999927,28.187999999999988 35.79999999999927,27.66700000000003 M39.5,23.964000000000055 C39.599999999998545,24.047000000000025 39.79999999999927,24.149 39.900000000001455,24.269000000000005 C40.099999999998545,24.388000000000034 40.29999999999927,24.55499999999995 40.400000000001455,24.769000000000005 C40.599999999998545,24.98199999999997 40.79999999999927,25.211000000000013 40.900000000001455,25.456000000000017 C41.099999999998545,25.701000000000022 41.20000000000073,25.991999999999962 41.29999999999927,26.331000000000017 C41.400000000001455,26.66999999999996 41.5,27.025999999999954 41.5,27.400999999999954 C41.5,27.775999999999954 41.400000000001455,28.135999999999967 41.29999999999927,28.479000000000042 C41.20000000000073,28.82299999999998 41.099999999998545,29.110000000000014 41.0,29.339000000000055 C40.79999999999927,29.567999999999984 40.70000000000073,29.787000000000035 40.5,29.995000000000005 C40.20000000000073,30.202999999999975 40.099999999998545,30.360000000000014 39.900000000001455,30.464000000000055 C39.79999999999927,30.567999999999984 39.70000000000073,30.67700000000002 39.5,30.79200000000003 L39.400000000001455,30.650999999999954 C39.599999999998545,30.464000000000055 39.79999999999927,30.29200000000003 40.0,30.135999999999967 C40.099999999998545,29.979000000000042 40.29999999999927,29.778999999999996 40.400000000001455,29.533999999999992 C40.5,29.288999999999987 40.599999999998545,28.995000000000005 40.70000000000073,28.650999999999954 C40.70000000000073,28.307999999999993 40.79999999999927,27.895999999999958 40.79999999999927,27.41700000000003 C40.79999999999927,26.92700000000002 40.70000000000073,26.503000000000043 40.70000000000073,26.144000000000005 C40.599999999998545,25.783999999999992 40.5,25.476999999999975 40.400000000001455,25.22199999999998 C40.29999999999927,24.966000000000008 40.099999999998545,24.760999999999967 40.0,24.604000000000042 C39.79999999999927,24.44799999999998 39.599999999998545,24.275999999999954 39.400000000001455,24.089000000000055 L39.5,23.964000000000055 M45.29999999999927,24.635999999999967 C45.20000000000073,24.635999999999967 45.0,24.692999999999984 44.70000000000073,24.807999999999993 L44.70000000000073,24.69799999999998 L46.099999999998545,23.964000000000055 L46.20000000000073,23.979000000000042 L46.20000000000073,28.775999999999954 C46.20000000000073,28.974000000000046 46.20000000000073,29.101999999999975 46.29999999999927,29.158999999999992 C46.400000000001455,29.216000000000008 46.599999999998545,29.245000000000005 47.0,29.245000000000005 L47.0,29.370000000000005 L44.70000000000073,29.370000000000005 L44.70000000000073,29.245000000000005 C45.0,29.235000000000014 45.29999999999927,29.190000000000055 45.400000000001455,29.111999999999966 C45.5,29.033999999999992 45.5,28.870000000000005 45.5,28.620000000000005 L45.5,25.010999999999967 C45.5,24.760999999999967 45.400000000001455,24.635999999999967 45.29999999999927,24.635999999999967 M48.29999999999927,29.54200000000003 L48.20000000000073,29.385999999999967 C48.900000000001455,29.28200000000004 49.400000000001455,29.024 49.79999999999927,28.611999999999966 C50.20000000000073,28.201000000000022 50.5,27.66700000000003 50.70000000000073,27.010999999999967 C50.29999999999927,27.32299999999998 49.900000000001455,27.479000000000042 49.5,27.479000000000042 C49.0,27.479000000000042 48.70000000000073,27.327999999999975 48.400000000001455,27.025999999999954 C48.20000000000073,26.724000000000046 48.0,26.333999999999946 48.0,25.854000000000042 C48.0,25.312999999999988 48.20000000000073,24.860000000000014 48.5,24.495000000000005 C48.79999999999927,24.129999999999995 49.20000000000073,23.94799999999998 49.70000000000073,23.94799999999998 C50.20000000000073,23.94799999999998 50.70000000000073,24.158999999999992 51.0,24.581000000000017 C51.29999999999927,25.003000000000043 51.5,25.547000000000025 51.5,26.214000000000055 C51.5,26.432999999999993 51.5,26.653999999999996 51.400000000001455,26.878000000000043 C51.400000000001455,27.101999999999975 51.29999999999927,27.366999999999962 51.20000000000073,27.674999999999955 C51.0,27.98199999999997 50.900000000001455,28.254999999999995 50.599999999998545,28.495000000000005 C50.400000000001455,28.735000000000014 50.099999999998545,28.952999999999975 49.70000000000073,29.150999999999954 C49.29999999999927,29.349000000000046 48.79999999999927,29.479000000000042 48.29999999999927,29.54200000000003 M49.79999999999927,27.120000000000005 C49.900000000001455,27.120000000000005 50.0,27.10699999999997 50.099999999998545,27.081000000000017 C50.20000000000073,27.05499999999995 50.400000000001455,26.991999999999962 50.5,26.894000000000005 C50.599999999998545,26.79499999999996 50.70000000000073,26.672000000000025 50.70000000000073,26.525999999999954 L50.70000000000073,26.214000000000055 C50.70000000000073,24.860000000000014 50.29999999999927,24.182999999999993 49.599999999998545,24.182999999999993 C49.5,24.182999999999993 49.29999999999927,24.226999999999975 49.20000000000073,24.315000000000055 C49.099999999998545,24.403999999999996 49.0,24.520999999999958 48.900000000001455,24.66700000000003 C48.900000000001455,24.812999999999988 48.79999999999927,24.958999999999946 48.79999999999927,25.104000000000042 C48.79999999999927,25.25 48.79999999999927,25.40700000000004 48.79999999999927,25.57299999999998 C48.79999999999927,26.05200000000002 48.900000000001455,26.42999999999995 49.0,26.706000000000017 C49.20000000000073,26.98199999999997 49.5,27.120000000000005 49.79999999999927,27.120000000000005 M53.79999999999927,29.479000000000042 C53.29999999999927,29.479000000000042 52.900000000001455,29.265999999999963 52.5,28.839000000000055 C52.20000000000073,28.412000000000035 52.0,27.84400000000005 52.0,27.135999999999967 C52.0,26.91700000000003 52.099999999998545,26.692999999999984 52.099999999998545,26.464000000000055 C52.20000000000073,26.235000000000014 52.29999999999927,25.97199999999998 52.400000000001455,25.674999999999955 C52.5,25.378000000000043 52.70000000000073,25.111999999999966 53.0,24.878000000000043 C53.20000000000073,24.644000000000005 53.5,24.434999999999945 53.900000000001455,24.253000000000043 C54.29999999999927,24.071000000000026 54.79999999999927,23.952999999999975 55.400000000001455,23.900999999999954 L55.400000000001455,24.025999999999954 C54.70000000000073,24.129999999999995 54.20000000000073,24.385999999999967 53.79999999999927,24.79200000000003 C53.400000000001455,25.19799999999998 53.099999999998545,25.702999999999975 53.0,26.307999999999993 C53.20000000000073,26.162000000000035 53.400000000001455,26.067999999999984 53.599999999998545,26.025999999999954 C53.70000000000073,25.985000000000014 53.79999999999927,25.964000000000055 54.0,25.964000000000055 C54.5,25.964000000000055 54.900000000001455,26.111999999999966 55.099999999998545,26.408999999999992 C55.400000000001455,26.706000000000017 55.5,27.104000000000042 55.5,27.604000000000042 C55.5,28.15700000000004 55.400000000001455,28.60699999999997 55.099999999998545,28.956000000000017 C54.79999999999927,29.30499999999995 54.29999999999927,29.479000000000042 53.79999999999927,29.479000000000042 M53.70000000000073,26.32299999999998 C53.400000000001455,26.32299999999998 53.099999999998545,26.400999999999954 53.0,26.557999999999993 C52.79999999999927,26.714000000000055 52.79999999999927,26.94799999999998 52.79999999999927,27.260999999999967 C52.79999999999927,27.875 52.900000000001455,28.360000000000014 53.099999999998545,28.714000000000055 C53.29999999999927,29.067999999999984 53.599999999998545,29.245000000000005 53.900000000001455,29.245000000000005 C54.20000000000073,29.245000000000005 54.400000000001455,29.128000000000043 54.599999999998545,28.894000000000005 C54.70000000000073,28.658999999999992 54.79999999999927,28.32299999999998 54.79999999999927,27.885999999999967 C54.79999999999927,27.385999999999967 54.70000000000073,27.0 54.5,26.729000000000042 C54.29999999999927,26.458999999999946 54.099999999998545,26.32299999999998 53.70000000000073,26.32299999999998 M58.099999999998545,26.400999999999954 C58.599999999998545,26.754999999999995 58.900000000001455,27.05200000000002 59.099999999998545,27.29200000000003 C59.29999999999927,27.53200000000004 59.29999999999927,27.807999999999993 59.29999999999927,28.120000000000005 C59.29999999999927,28.537000000000035 59.20000000000073,28.866999999999962 58.900000000001455,29.111999999999966 C58.599999999998545,29.35699999999997 58.20000000000073,29.479000000000042 57.79999999999927,29.479000000000042 C57.29999999999927,29.479000000000042 56.900000000001455,29.35699999999997 56.599999999998545,29.111999999999966 C56.400000000001455,28.866999999999962 56.20000000000073,28.547000000000025 56.20000000000073,28.150999999999954 C56.20000000000073,27.879999999999995 56.29999999999927,27.653999999999996 56.400000000001455,27.47199999999998 C56.5,27.288999999999987 56.79999999999927,27.037000000000035 57.29999999999927,26.714000000000055 C56.79999999999927,26.339000000000055 56.599999999998545,26.062999999999988 56.400000000001455,25.885999999999967 C56.29999999999927,25.708999999999946 56.29999999999927,25.49000000000001 56.29999999999927,25.229000000000042 C56.29999999999927,24.86500000000001 56.400000000001455,24.559999999999945 56.70000000000073,24.315000000000055 C57.0,24.071000000000026 57.29999999999927,23.94799999999998 57.79999999999927,23.94799999999998 C58.20000000000073,23.94799999999998 58.5,24.05499999999995 58.79999999999927,24.269000000000005 C59.0,24.48199999999997 59.20000000000073,24.760999999999967 59.20000000000073,25.104000000000042 C59.20000000000073,25.375 59.099999999998545,25.604000000000042 58.900000000001455,25.79200000000003 C58.79999999999927,25.979000000000042 58.5,26.182999999999993 58.099999999998545,26.400999999999954 M57.5,26.870000000000005 C57.20000000000073,27.057999999999993 57.099999999998545,27.241999999999962 57.0,27.424999999999955 C56.900000000001455,27.60699999999997 56.79999999999927,27.827999999999975 56.79999999999927,28.089000000000055 C56.79999999999927,28.432999999999993 56.900000000001455,28.711000000000013 57.099999999998545,28.924999999999955 C57.29999999999927,29.138000000000034 57.5,29.245000000000005 57.79999999999927,29.245000000000005 C58.099999999998545,29.245000000000005 58.29999999999927,29.163999999999987 58.5,29.003000000000043 C58.599999999998545,28.841000000000008 58.70000000000073,28.629999999999995 58.70000000000073,28.370000000000005 C58.70000000000073,28.287000000000035 58.70000000000073,28.206000000000017 58.70000000000073,28.128000000000043 C58.70000000000073,28.049999999999955 58.70000000000073,27.985000000000014 58.599999999998545,27.932999999999993 C58.599999999998545,27.879999999999995 58.599999999998545,27.817999999999984 58.5,27.745000000000005 C58.5,27.672000000000025 58.400000000001455,27.616999999999962 58.400000000001455,27.581000000000017 C58.400000000001455,27.54499999999996 58.29999999999927,27.486999999999966 58.20000000000073,27.408999999999992 C58.099999999998545,27.331000000000017 58.099999999998545,27.275999999999954 58.0,27.245000000000005 C58.0,27.214000000000055 57.900000000001455,27.153999999999996 57.70000000000073,27.065000000000055 C57.599999999998545,26.976999999999975 57.5,26.912000000000035 57.5,26.870000000000005 M57.900000000001455,26.260999999999967 C57.900000000001455,26.25 57.900000000001455,26.22199999999998 58.0,26.174999999999955 C58.0,26.128000000000043 58.099999999998545,26.091000000000008 58.099999999998545,26.065000000000055 C58.099999999998545,26.038999999999987 58.20000000000073,26.0 58.20000000000073,25.94799999999998 C58.29999999999927,25.895999999999958 58.400000000001455,25.84400000000005 58.400000000001455,25.79200000000003 C58.400000000001455,25.74000000000001 58.5,25.67700000000002 58.5,25.604000000000042 C58.5,25.53200000000004 58.599999999998545,25.451000000000022 58.599999999998545,25.361999999999966 C58.599999999998545,25.274 58.599999999998545,25.182999999999993 58.599999999998545,25.089000000000055 C58.599999999998545,24.817999999999984 58.5,24.599000000000046 58.400000000001455,24.432999999999993 C58.20000000000073,24.265999999999963 58.0,24.182999999999993 57.70000000000073,24.182999999999993 C57.5,24.182999999999993 57.29999999999927,24.258000000000038 57.099999999998545,24.408999999999992 C57.0,24.559999999999945 56.900000000001455,24.75 56.900000000001455,24.979000000000042 C56.900000000001455,25.19799999999998 56.900000000001455,25.40700000000004 57.099999999998545,25.604000000000042 C57.29999999999927,25.80200000000002 57.5,26.020999999999958 57.900000000001455,26.260999999999967 M67.20000000000073,26.69799999999998 C67.20000000000073,26.937999999999988 67.20000000000073,27.172000000000025 67.09999999999854,27.400999999999954 C67.09999999999854,27.629999999999995 67.0,27.866999999999962 66.79999999999927,28.111999999999966 C66.70000000000073,28.35699999999997 66.5,28.567999999999984 66.29999999999927,28.745000000000005 C66.09999999999854,28.922000000000025 65.79999999999927,29.071000000000026 65.40000000000146,29.190000000000055 C65.0,29.309999999999945 64.59999999999854,29.370000000000005 64.09999999999854,29.370000000000005 L61.900000000001455,29.370000000000005 L61.900000000001455,29.214000000000055 C62.20000000000073,29.192999999999984 62.400000000001455,29.140999999999963 62.400000000001455,29.057999999999993 C62.5,28.974000000000046 62.599999999998545,28.787000000000035 62.599999999998545,28.495000000000005 L62.599999999998545,24.94799999999998 C62.599999999998545,24.65700000000004 62.5,24.47199999999998 62.400000000001455,24.394000000000005 C62.400000000001455,24.315000000000055 62.20000000000073,24.260999999999967 61.900000000001455,24.229000000000042 L61.900000000001455,24.07299999999998 L64.0,24.07299999999998 C64.5,24.07299999999998 64.90000000000146,24.128000000000043 65.29999999999927,24.236999999999966 C65.70000000000073,24.34699999999998 66.0,24.486999999999966 66.20000000000073,24.658999999999992 C66.5,24.831000000000017 66.70000000000073,25.037000000000035 66.79999999999927,25.275999999999954 C67.0,25.515999999999963 67.09999999999854,25.75 67.09999999999854,25.979000000000042 C67.20000000000073,26.208999999999946 67.20000000000073,26.44799999999998 67.20000000000073,26.69799999999998 M66.29999999999927,26.760999999999967 C66.29999999999927,26.53200000000004 66.29999999999927,26.309999999999945 66.29999999999927,26.09699999999998 C66.20000000000073,25.883000000000038 66.09999999999854,25.66999999999996 66.0,25.456000000000017 C65.90000000000146,25.241999999999962 65.70000000000073,25.059999999999945 65.59999999999854,24.908999999999992 C65.40000000000146,24.758000000000038 65.09999999999854,24.633000000000038 64.79999999999927,24.533999999999992 C64.5,24.434999999999945 64.20000000000073,24.385999999999967 63.79999999999927,24.385999999999967 C63.599999999998545,24.385999999999967 63.5,24.40700000000004 63.5,24.44799999999998 C63.400000000001455,24.49000000000001 63.400000000001455,24.57299999999998 63.400000000001455,24.69799999999998 L63.400000000001455,28.745000000000005 C63.400000000001455,28.870000000000005 63.400000000001455,28.956000000000017 63.5,29.003000000000043 C63.5,29.049999999999955 63.599999999998545,29.07299999999998 63.79999999999927,29.07299999999998 C65.5,29.07299999999998 66.29999999999927,28.30200000000002 66.29999999999927,26.760999999999967 M70.20000000000073,26.885999999999967 C70.0,26.458999999999946 69.90000000000146,26.190000000000055 69.79999999999927,26.081000000000017 C69.79999999999927,25.97199999999998 69.59999999999854,25.90700000000004 69.5,25.885999999999967 L69.5,25.775999999999954 L71.09999999999854,25.775999999999954 L71.09999999999854,25.885999999999967 C70.90000000000146,25.91700000000003 70.79999999999927,25.951000000000022 70.70000000000073,25.986999999999966 C70.59999999999854,26.024 70.59999999999854,26.089000000000055 70.59999999999854,26.182999999999993 C70.59999999999854,26.245000000000005 70.70000000000073,26.400999999999954 70.70000000000073,26.650999999999954 L71.40000000000146,28.44799999999998 L72.09999999999854,26.66700000000003 C72.20000000000073,26.44799999999998 72.29999999999927,26.270999999999958 72.29999999999927,26.135999999999967 C72.29999999999927,26.07299999999998 72.29999999999927,26.024 72.20000000000073,25.986999999999966 C72.09999999999854,25.951000000000022 72.09999999999854,25.91700000000003 71.90000000000146,25.885999999999967 L71.90000000000146,25.775999999999954 L72.90000000000146,25.775999999999954 L72.90000000000146,25.885999999999967 C72.79999999999927,25.91700000000003 72.79999999999927,25.956000000000017 72.70000000000073,26.003000000000043 C72.70000000000073,26.049999999999955 72.59999999999854,26.15700000000004 72.59999999999854,26.32299999999998 L71.5,29.089000000000055 C71.40000000000146,29.349000000000046 71.29999999999927,29.479000000000042 71.20000000000073,29.479000000000042 C71.20000000000073,29.479000000000042 71.09999999999854,29.36500000000001 71.09999999999854,29.135999999999967 L70.29999999999927,27.245000000000005 L69.40000000000146,29.16700000000003 C69.29999999999927,29.375 69.29999999999927,29.479000000000042 69.20000000000073,29.479000000000042 C69.20000000000073,29.479000000000042 69.09999999999854,29.36500000000001 69.0,29.135999999999967 L68.0,26.400999999999954 C67.90000000000146,26.192999999999984 67.79999999999927,26.057999999999993 67.70000000000073,25.995000000000005 C67.70000000000073,25.932999999999993 67.59999999999854,25.895999999999958 67.5,25.885999999999967 L67.5,25.775999999999954 L69.0,25.775999999999954 L69.0,25.885999999999967 C68.79999999999927,25.90700000000004 68.70000000000073,25.934999999999945 68.70000000000073,25.97199999999998 C68.59999999999854,26.008000000000038 68.59999999999854,26.067999999999984 68.59999999999854,26.150999999999954 C68.59999999999854,26.235000000000014 68.59999999999854,26.317999999999984 68.59999999999854,26.400999999999954 L69.40000000000146,28.479000000000042 L70.20000000000073,26.885999999999967 M73.20000000000073,28.57299999999998 C73.20000000000073,28.479000000000042 73.20000000000073,28.394000000000005 73.20000000000073,28.315000000000055 C73.20000000000073,28.236999999999966 73.29999999999927,28.162000000000035 73.29999999999927,28.089000000000055 C73.40000000000146,28.015999999999963 73.40000000000146,27.951000000000022 73.5,27.894000000000005 C73.5,27.836000000000013 73.59999999999854,27.775999999999954 73.70000000000073,27.714000000000055 C73.79999999999927,27.650999999999954 73.90000000000146,27.599000000000046 73.90000000000146,27.557999999999993 C74.0,27.515999999999963 74.09999999999854,27.46900000000005 74.20000000000073,27.41700000000003 C74.29999999999927,27.36500000000001 74.40000000000146,27.32299999999998 74.5,27.29200000000003 C74.59999999999854,27.260999999999967 74.70000000000073,27.216000000000008 74.79999999999927,27.158999999999992 C75.0,27.101999999999975 75.09999999999854,27.057999999999993 75.09999999999854,27.025999999999954 L75.09999999999854,26.54200000000003 C75.09999999999854,26.104000000000042 74.90000000000146,25.885999999999967 74.5,25.885999999999967 C74.40000000000146,25.885999999999967 74.20000000000073,25.924999999999955 74.09999999999854,26.003000000000043 C74.0,26.081000000000017 74.0,26.172000000000025 74.0,26.275999999999954 C74.0,26.317999999999984 74.0,26.375 74.0,26.44799999999998 C74.0,26.520999999999958 74.0,26.567999999999984 74.0,26.589000000000055 C74.0,26.682999999999993 74.0,26.763000000000034 73.90000000000146,26.831000000000017 C73.79999999999927,26.899 73.70000000000073,26.932999999999993 73.59999999999854,26.932999999999993 C73.5,26.932999999999993 73.5,26.899 73.40000000000146,26.831000000000017 C73.29999999999927,26.763000000000034 73.29999999999927,26.682999999999993 73.29999999999927,26.589000000000055 C73.29999999999927,26.339000000000055 73.40000000000146,26.128000000000043 73.70000000000073,25.956000000000017 C73.90000000000146,25.783999999999992 74.29999999999927,25.69799999999998 74.59999999999854,25.69799999999998 C75.09999999999854,25.69799999999998 75.40000000000146,25.80200000000002 75.5,26.010999999999967 C75.70000000000073,26.21900000000005 75.79999999999927,26.537000000000035 75.79999999999927,26.964000000000055 L75.79999999999927,28.510999999999967 C75.79999999999927,28.687999999999988 75.79999999999927,28.809999999999945 75.79999999999927,28.878000000000043 C75.90000000000146,28.946000000000026 75.90000000000146,28.979000000000042 76.0,28.979000000000042 C76.09999999999854,28.979000000000042 76.20000000000073,28.92700000000002 76.40000000000146,28.82299999999998 L76.40000000000146,29.04200000000003 C76.20000000000073,29.19799999999998 76.09999999999854,29.30499999999995 76.0,29.361999999999966 C75.90000000000146,29.41999999999996 75.79999999999927,29.44799999999998 75.59999999999854,29.44799999999998 C75.5,29.44799999999998 75.40000000000146,29.400999999999954 75.29999999999927,29.307999999999993 C75.20000000000073,29.214000000000055 75.20000000000073,29.062999999999988 75.20000000000073,28.854000000000042 C74.70000000000073,29.25 74.29999999999927,29.44799999999998 74.0,29.44799999999998 C73.79999999999927,29.44799999999998 73.59999999999854,29.366999999999962 73.40000000000146,29.206000000000017 C73.20000000000073,29.04499999999996 73.20000000000073,28.833999999999946 73.20000000000073,28.57299999999998 M75.09999999999854,28.370000000000005 L75.09999999999854,27.214000000000055 C74.70000000000073,27.390999999999963 74.29999999999927,27.562999999999988 74.09999999999854,27.729000000000042 C74.0,27.895999999999958 73.90000000000146,28.09400000000005 73.90000000000146,28.32299999999998 C73.90000000000146,28.54200000000003 73.90000000000146,28.702999999999975 74.0,28.807999999999993 C74.09999999999854,28.912000000000035 74.20000000000073,28.964000000000055 74.40000000000146,28.964000000000055 C74.5,28.964000000000055 74.70000000000073,28.90700000000004 74.90000000000146,28.79200000000003 C75.0,28.74000000000001 75.09999999999854,28.687999999999988 75.09999999999854,28.635999999999967 C75.09999999999854,28.583999999999946 75.09999999999854,28.495000000000005 75.09999999999854,28.370000000000005 M78.79999999999927,26.44799999999998 C78.70000000000073,26.44799999999998 78.59999999999854,26.400999999999954 78.5,26.307999999999993 C78.40000000000146,26.214000000000055 78.29999999999927,26.16700000000003 78.29999999999927,26.16700000000003 C78.20000000000073,26.16700000000003 78.09999999999854,26.245000000000005 77.90000000000146,26.400999999999954 C77.79999999999927,26.557999999999993 77.70000000000073,26.702999999999975 77.70000000000073,26.839000000000055 L77.70000000000073,28.650999999999954 C77.70000000000073,28.879999999999995 77.79999999999927,29.033999999999992 77.90000000000146,29.111999999999966 C78.0,29.190000000000055 78.09999999999854,29.235000000000014 78.40000000000146,29.245000000000005 L78.40000000000146,29.370000000000005 L76.5,29.370000000000005 L76.5,29.245000000000005 C76.70000000000073,29.202999999999975 76.90000000000146,29.150999999999954 77.0,29.089000000000055 C77.0,29.025999999999954 77.0,28.895999999999958 77.0,28.69799999999998 L77.0,26.682999999999993 C77.0,26.504999999999995 77.0,26.379999999999995 77.0,26.307999999999993 C77.0,26.235000000000014 76.90000000000146,26.19799999999998 76.79999999999927,26.19799999999998 C76.70000000000073,26.19799999999998 76.59999999999854,26.208999999999946 76.5,26.229000000000042 L76.5,26.104000000000042 C76.90000000000146,25.96900000000005 77.29999999999927,25.833999999999946 77.70000000000073,25.69799999999998 L77.70000000000073,25.714000000000055 L77.70000000000073,26.41700000000003 C77.90000000000146,26.145999999999958 78.09999999999854,25.958999999999946 78.20000000000073,25.854000000000042 C78.40000000000146,25.75 78.5,25.69799999999998 78.70000000000073,25.69799999999998 C78.79999999999927,25.69799999999998 78.90000000000146,25.73199999999997 79.0,25.799999999999955 C79.09999999999854,25.866999999999962 79.09999999999854,25.96900000000005 79.09999999999854,26.104000000000042 C79.09999999999854,26.208999999999946 79.09999999999854,26.29200000000003 79.0,26.354000000000042 C79.0,26.41700000000003 78.90000000000146,26.44799999999998 78.79999999999927,26.44799999999998 M81.79999999999927,24.729000000000042 C81.70000000000073,24.729000000000042 81.70000000000073,24.69799999999998 81.59999999999854,24.635999999999967 C81.5,24.57299999999998 81.5,24.504999999999995 81.40000000000146,24.432999999999993 C81.40000000000146,24.360000000000014 81.40000000000146,24.29200000000003 81.29999999999927,24.229000000000042 C81.20000000000073,24.16700000000003 81.09999999999854,24.135999999999967 81.0,24.135999999999967 C80.70000000000073,24.135999999999967 80.59999999999854,24.370000000000005 80.59999999999854,24.839000000000055 L80.59999999999854,25.775999999999954 L81.59999999999854,25.775999999999954 L81.59999999999854,26.010999999999967 L80.59999999999854,26.010999999999967 L80.59999999999854,28.54200000000003 C80.59999999999854,28.833999999999946 80.59999999999854,29.020999999999958 80.70000000000073,29.104000000000042 C80.79999999999927,29.187999999999988 81.0,29.235000000000014 81.29999999999927,29.245000000000005 L81.29999999999927,29.370000000000005 L79.20000000000073,29.370000000000005 L79.20000000000073,29.245000000000005 C79.5,29.235000000000014 79.70000000000073,29.187999999999988 79.79999999999927,29.104000000000042 C79.90000000000146,29.020999999999958 79.90000000000146,28.833999999999946 79.90000000000146,28.54200000000003 L79.90000000000146,26.010999999999967 L79.20000000000073,26.010999999999967 L79.20000000000073,25.775999999999954 L79.90000000000146,25.775999999999954 C79.90000000000146,25.172000000000025 80.0,24.706000000000017 80.20000000000073,24.378000000000043 C80.5,24.049999999999955 80.79999999999927,23.885999999999967 81.29999999999927,23.885999999999967 C81.5,23.885999999999967 81.70000000000073,23.934999999999945 81.90000000000146,24.033999999999992 C82.09999999999854,24.133000000000038 82.09999999999854,24.254999999999995 82.09999999999854,24.400999999999954 C82.09999999999854,24.495000000000005 82.09999999999854,24.57299999999998 82.0,24.635999999999967 C82.0,24.69799999999998 81.90000000000146,24.729000000000042 81.79999999999927,24.729000000000042 M89.5,24.79200000000003 L87.5,29.370000000000005 L87.40000000000146,29.370000000000005 L85.40000000000146,24.979000000000042 L85.40000000000146,28.19799999999998 C85.40000000000146,28.604000000000042 85.40000000000146,28.873000000000047 85.5,29.003000000000043 C85.59999999999854,29.133000000000038 85.79999999999927,29.202999999999975 86.09999999999854,29.214000000000055 L86.09999999999854,29.370000000000005 L84.20000000000073,29.370000000000005 L84.20000000000073,29.214000000000055 C84.59999999999854,29.192999999999984 84.79999999999927,29.120000000000005 84.90000000000146,28.995000000000005 C85.0,28.870000000000005 85.0,28.604000000000042 85.0,28.19799999999998 L85.0,24.94799999999998 C85.0,24.65700000000004 85.0,24.46900000000005 84.90000000000146,24.385999999999967 C84.79999999999927,24.30200000000002 84.59999999999854,24.25 84.20000000000073,24.229000000000042 L84.20000000000073,24.07299999999998 L85.79999999999927,24.07299999999998 L87.70000000000073,28.120000000000005 L89.40000000000146,24.07299999999998 L91.0,24.07299999999998 L91.0,24.229000000000042 C90.70000000000073,24.260999999999967 90.5,24.317999999999984 90.5,24.400999999999954 C90.40000000000146,24.485000000000014 90.29999999999927,24.66700000000003 90.29999999999927,24.94799999999998 L90.29999999999927,28.495000000000005 C90.29999999999927,28.775999999999954 90.40000000000146,28.961000000000013 90.5,29.049999999999955 C90.5,29.138000000000034 90.70000000000073,29.192999999999984 91.0,29.214000000000055 L91.0,29.370000000000005 L88.79999999999927,29.370000000000005 L88.79999999999927,29.214000000000055 C89.09999999999854,29.192999999999984 89.29999999999927,29.135999999999967 89.40000000000146,29.04200000000003 C89.5,28.94799999999998 89.5,28.74000000000001 89.5,28.41700000000003 L89.5,24.79200000000003 M95.0,28.94799999999998 L95.0,29.07299999999998 C94.59999999999854,29.187999999999988 94.20000000000073,29.312999999999988 93.90000000000146,29.44799999999998 L93.90000000000146,29.432999999999993 L93.90000000000146,28.745000000000005 C93.79999999999927,28.765999999999963 93.79999999999927,28.815000000000055 93.70000000000073,28.894000000000005 C93.59999999999854,28.97199999999998 93.59999999999854,29.025999999999954 93.59999999999854,29.057999999999993 C93.5,29.089000000000055 93.5,29.135999999999967 93.40000000000146,29.19799999999998 C93.29999999999927,29.260999999999967 93.29999999999927,29.30499999999995 93.20000000000073,29.331000000000017 C93.09999999999854,29.35699999999997 93.09999999999854,29.383000000000038 93.0,29.408999999999992 C92.90000000000146,29.434999999999945 92.79999999999927,29.44799999999998 92.70000000000073,29.44799999999998 C92.40000000000146,29.44799999999998 92.20000000000073,29.351999999999975 92.0,29.158999999999992 C91.79999999999927,28.966000000000008 91.70000000000073,28.714000000000055 91.70000000000073,28.400999999999954 L91.70000000000073,26.385999999999967 C91.70000000000073,26.208999999999946 91.70000000000073,26.083999999999946 91.59999999999854,26.010999999999967 C91.59999999999854,25.937999999999988 91.40000000000146,25.895999999999958 91.20000000000073,25.885999999999967 L91.20000000000073,25.775999999999954 L92.40000000000146,25.775999999999954 L92.40000000000146,28.370000000000005 C92.40000000000146,28.525999999999954 92.5,28.663999999999987 92.59999999999854,28.783999999999992 C92.70000000000073,28.903999999999996 92.79999999999927,28.964000000000055 93.0,28.964000000000055 C93.0,28.964000000000055 93.09999999999854,28.956000000000017 93.20000000000073,28.940000000000055 C93.29999999999927,28.924999999999955 93.29999999999927,28.895999999999958 93.5,28.854000000000042 C93.59999999999854,28.812999999999988 93.59999999999854,28.741999999999962 93.70000000000073,28.644000000000005 C93.79999999999927,28.54499999999996 93.79999999999927,28.422000000000025 93.79999999999927,28.275999999999954 L93.79999999999927,26.400999999999954 C93.79999999999927,26.214000000000055 93.79999999999927,26.086000000000013 93.70000000000073,26.019000000000005 C93.59999999999854,25.951000000000022 93.5,25.912000000000035 93.20000000000073,25.900999999999954 L93.20000000000073,25.775999999999954 L94.5,25.775999999999954 L94.5,28.495000000000005 C94.5,28.682999999999993 94.5,28.80499999999995 94.59999999999854,28.861999999999966 C94.70000000000073,28.91999999999996 94.79999999999927,28.94799999999998 95.0,28.94799999999998 L95.0,28.94799999999998 M97.20000000000073,25.854000000000042 C97.20000000000073,25.854000000000042 97.29999999999927,25.827999999999975 97.29999999999927,25.775999999999954 L97.40000000000146,25.775999999999954 L97.5,26.854000000000042 L97.29999999999927,26.854000000000042 C97.20000000000073,26.5 97.09999999999854,26.248000000000047 97.0,26.09699999999998 C96.90000000000146,25.946000000000026 96.70000000000073,25.870000000000005 96.5,25.870000000000005 C96.29999999999927,25.870000000000005 96.09999999999854,25.922000000000025 96.0,26.025999999999954 C95.90000000000146,26.129999999999995 95.79999999999927,26.260999999999967 95.79999999999927,26.41700000000003 C95.79999999999927,26.645999999999958 96.0,26.827999999999975 96.20000000000073,26.964000000000055 L97.0,27.479000000000042 C97.29999999999927,27.625 97.5,27.770999999999958 97.59999999999854,27.91700000000003 C97.70000000000073,28.062999999999988 97.70000000000073,28.235000000000014 97.70000000000073,28.432999999999993 C97.70000000000073,28.702999999999975 97.59999999999854,28.940000000000055 97.40000000000146,29.144000000000005 C97.20000000000073,29.34699999999998 96.90000000000146,29.44799999999998 96.59999999999854,29.44799999999998 C96.5,29.44799999999998 96.29999999999927,29.424999999999955 96.09999999999854,29.378000000000043 C95.79999999999927,29.331000000000017 95.70000000000073,29.307999999999993 95.59999999999854,29.307999999999993 C95.59999999999854,29.307999999999993 95.5,29.339000000000055 95.5,29.400999999999954 L95.29999999999927,29.400999999999954 L95.29999999999927,28.150999999999954 L95.5,28.150999999999954 C95.59999999999854,28.525999999999954 95.70000000000073,28.79200000000003 95.79999999999927,28.94799999999998 C95.90000000000146,29.16700000000003 96.20000000000073,29.275999999999954 96.5,29.275999999999954 C96.70000000000073,29.275999999999954 96.90000000000146,29.224000000000046 97.0,29.120000000000005 C97.09999999999854,29.015999999999963 97.20000000000073,28.875 97.20000000000073,28.69799999999998 C97.20000000000073,28.458999999999946 97.0,28.260999999999967 96.70000000000073,28.104000000000042 L96.29999999999927,27.839000000000055 C95.90000000000146,27.640999999999963 95.70000000000073,27.456000000000017 95.59999999999854,27.283999999999992 C95.40000000000146,27.111999999999966 95.29999999999927,26.912000000000035 95.29999999999927,26.682999999999993 C95.29999999999927,26.390999999999963 95.40000000000146,26.153999999999996 95.59999999999854,25.97199999999998 C95.79999999999927,25.788999999999987 96.09999999999854,25.69799999999998 96.40000000000146,25.69799999999998 C96.59999999999854,25.69799999999998 96.79999999999927,25.724000000000046 96.90000000000146,25.775999999999954 C97.09999999999854,25.827999999999975 97.20000000000073,25.854000000000042 97.20000000000073,25.854000000000042 M98.5,26.229000000000042 C98.40000000000146,26.229000000000042 98.20000000000073,26.235000000000014 98.09999999999854,26.245000000000005 L98.09999999999854,26.135999999999967 C98.5,26.03200000000004 98.90000000000146,25.885999999999967 99.40000000000146,25.69799999999998 L99.40000000000146,25.714000000000055 L99.40000000000146,28.557999999999993 C99.40000000000146,28.839000000000055 99.5,29.019000000000005 99.5,29.09699999999998 C99.59999999999854,29.174999999999955 99.79999999999927,29.224000000000046 100.0,29.245000000000005 L100.0,29.370000000000005 L98.09999999999854,29.370000000000005 L98.09999999999854,29.245000000000005 C98.40000000000146,29.235000000000014 98.59999999999854,29.187999999999988 98.59999999999854,29.104000000000042 C98.70000000000073,29.020999999999958 98.70000000000073,28.839000000000055 98.70000000000073,28.557999999999993 L98.70000000000073,26.69799999999998 C98.70000000000073,26.520999999999958 98.70000000000073,26.399 98.70000000000073,26.331000000000017 C98.59999999999854,26.263000000000034 98.59999999999854,26.229000000000042 98.5,26.229000000000042 M99.0,23.900999999999954 C99.09999999999854,23.900999999999954 99.20000000000073,23.942999999999984 99.29999999999927,24.025999999999954 C99.40000000000146,24.110000000000014 99.40000000000146,24.208999999999946 99.40000000000146,24.32299999999998 C99.40000000000146,24.437999999999988 99.40000000000146,24.533999999999992 99.29999999999927,24.611999999999966 C99.20000000000073,24.690000000000055 99.09999999999854,24.729000000000042 99.0,24.729000000000042 C98.90000000000146,24.729000000000042 98.79999999999927,24.687999999999988 98.70000000000073,24.604000000000042 C98.59999999999854,24.520999999999958 98.59999999999854,24.424999999999955 98.59999999999854,24.315000000000055 C98.59999999999854,24.206000000000017 98.59999999999854,24.110000000000014 98.70000000000073,24.025999999999954 C98.79999999999927,23.942999999999984 98.90000000000146,23.900999999999954 99.0,23.900999999999954 M100.40000000000146,27.66700000000003 C100.40000000000146,27.07299999999998 100.59999999999854,26.59699999999998 100.90000000000146,26.236999999999966 C101.29999999999927,25.878000000000043 101.70000000000073,25.69799999999998 102.20000000000073,25.69799999999998 C102.5,25.69799999999998 102.79999999999927,25.778999999999996 103.0,25.940000000000055 C103.20000000000073,26.101999999999975 103.40000000000146,26.297000000000025 103.40000000000146,26.525999999999954 C103.40000000000146,26.610000000000014 103.29999999999927,26.684999999999945 103.20000000000073,26.753000000000043 C103.20000000000073,26.821000000000026 103.09999999999854,26.854000000000042 103.0,26.854000000000042 C102.79999999999927,26.854000000000042 102.70000000000073,26.735000000000014 102.59999999999854,26.495000000000005 L102.59999999999854,26.32299999999998 C102.5,26.16700000000003 102.5,26.062999999999988 102.40000000000146,26.010999999999967 C102.40000000000146,25.958999999999946 102.29999999999927,25.932999999999993 102.09999999999854,25.932999999999993 C101.79999999999927,25.932999999999993 101.5,26.059999999999945 101.29999999999927,26.315000000000055 C101.09999999999854,26.571000000000026 101.0,26.90700000000004 101.0,27.32299999999998 C101.0,27.770999999999958 101.09999999999854,28.140999999999963 101.40000000000146,28.432999999999993 C101.59999999999854,28.724000000000046 101.90000000000146,28.870000000000005 102.29999999999927,28.870000000000005 C102.5,28.870000000000005 102.70000000000073,28.812999999999988 102.79999999999927,28.69799999999998 C103.0,28.583999999999946 103.20000000000073,28.390999999999963 103.40000000000146,28.120000000000005 L103.5,28.182999999999993 C103.40000000000146,28.297000000000025 103.40000000000146,28.388000000000034 103.29999999999927,28.456000000000017 C103.29999999999927,28.524 103.20000000000073,28.628000000000043 103.09999999999854,28.769000000000005 C103.0,28.908999999999992 102.90000000000146,29.020999999999958 102.79999999999927,29.104000000000042 C102.70000000000073,29.187999999999988 102.59999999999854,29.265999999999963 102.40000000000146,29.339000000000055 C102.29999999999927,29.412000000000035 102.09999999999854,29.44799999999998 101.90000000000146,29.44799999999998 C101.5,29.44799999999998 101.09999999999854,29.28200000000004 100.79999999999927,28.94799999999998 C100.5,28.61500000000001 100.40000000000146,28.187999999999988 100.40000000000146,27.66700000000003 M104.70000000000073,28.57299999999998 C104.90000000000146,28.57299999999998 105.0,28.616999999999962 105.09999999999854,28.706000000000017 C105.09999999999854,28.79499999999996 105.20000000000073,28.900999999999954 105.20000000000073,29.025999999999954 C105.20000000000073,29.140999999999963 105.09999999999854,29.241999999999962 105.09999999999854,29.331000000000017 C105.0,29.41999999999996 104.90000000000146,29.464000000000055 104.70000000000073,29.464000000000055 C104.59999999999854,29.464000000000055 104.5,29.41999999999996 104.40000000000146,29.331000000000017 C104.40000000000146,29.241999999999962 104.29999999999927,29.140999999999963 104.29999999999927,29.025999999999954 C104.29999999999927,28.900999999999954 104.40000000000146,28.79499999999996 104.40000000000146,28.706000000000017 C104.5,28.616999999999962 104.59999999999854,28.57299999999998 104.70000000000073,28.57299999999998" />
</svg>
