<?xml version="1.0" encoding="UTF-8" standalone="yes"?>
<svg width="256.0px" height="256.0px" xmlns="http://www.w3.org/2000/svg" xmlns:xlink="http://www.w3.org/1999/xlink" version="1.2" baseProfile="tiny">
<path d="M31.420000000000073,87.04600000000005 C33.42000000000007,88.64599999999996 39.399999999999636,88.64599999999996 41.39000000000033,87.04600000000005 C39.399999999999636,89.44600000000003 33.42000000000007,89.44600000000003 31.420000000000073,87.04600000000005" />
<path d="M211.46000000000004,26.871999999999957 C215.5699999999997,23.349000000000046 227.89000000000033,23.349000000000046 232.0,26.871999999999957 C227.89000000000033,24.149 215.5699999999997,24.149 211.46000000000004,26.871999999999957" />
<path d="M100.64000000000033,30.096000000000004 C105.63000000000011,33.49000000000001 120.60000000000036,33.49000000000001 125.59000000000015,30.096000000000004 C120.60000000000036,34.289999999999964 105.63000000000011,34.289999999999964 100.64000000000033,30.096000000000004" />
<path d="M253.32999999999993,10.518000000000029 L253.32999999999993,12.065000000000055 C253.32999999999993,12.616999999999962 253.35999999999967,13.05499999999995 253.40999999999985,13.378000000000043 C253.84000000000015,13.013000000000034 254.14999999999964,12.741999999999962 254.32999999999993,12.565000000000055 C254.53999999999996,12.356999999999971 254.75,12.067999999999984 254.96000000000004,11.697999999999979 C255.17000000000007,11.327999999999975 255.27000000000044,10.961000000000013 255.27000000000044,10.596000000000004 C255.27000000000044,10.231999999999971 255.1899999999996,9.918999999999983 255.03999999999996,9.658999999999992 C254.8800000000001,9.399000000000001 254.67000000000007,9.268000000000029 254.40999999999985,9.268000000000029 C254.10000000000036,9.268000000000029 253.84000000000015,9.388000000000034 253.6300000000001,9.628000000000043 C253.4300000000003,9.888000000000034 253.32999999999993,10.184999999999945 253.32999999999993,10.518000000000029 M252.51000000000022,14.096000000000004 L252.26000000000022,2.2060000000000173 C252.4399999999996,2.1019999999999754 252.6300000000001,2.0499999999999545 252.8100000000004,2.0499999999999545 C252.98999999999978,2.0499999999999545 253.17000000000007,2.1019999999999754 253.35000000000036,2.2060000000000173 L253.1899999999996,9.096000000000004 C253.72000000000025,8.638000000000034 254.34000000000015,8.408999999999992 255.03999999999996,8.408999999999992 C255.53999999999996,8.408999999999992 255.96000000000004,8.616999999999962 256.28999999999996,9.033999999999992 C256.6300000000001,9.451000000000022 256.8000000000002,9.92999999999995 256.8000000000002,10.471000000000004 C256.8000000000002,10.80499999999995 256.6899999999996,11.163999999999987 256.47000000000025,11.549999999999955 C256.27000000000044,11.893000000000029 256.0500000000002,12.163999999999987 255.8199999999997,12.361999999999966 C255.6800000000003,12.466000000000008 255.35000000000036,12.726999999999975 254.8199999999997,13.143000000000029 C254.65999999999985,13.258000000000038 254.47999999999956,13.393000000000029 254.26000000000022,13.549999999999955 C254.05000000000018,13.706000000000017 253.92000000000007,13.80499999999995 253.85999999999967,13.846000000000004 C253.77000000000044,13.899000000000001 253.6800000000003,14.003000000000043 253.60000000000036,14.158999999999992 C253.52000000000044,14.293999999999983 253.40999999999985,14.403999999999996 253.28999999999996,14.486999999999966 C253.19999999999982,14.57000000000005 253.10000000000036,14.611999999999966 252.97000000000025,14.611999999999966 C252.84000000000015,14.611999999999966 252.72999999999956,14.565000000000055 252.64999999999964,14.471000000000004 C252.55000000000018,14.378000000000043 252.51000000000022,14.253000000000043 252.51000000000022,14.096000000000004" />
<path d="M172.53999999999996,28.01800000000003 L172.53999999999996,29.565000000000055 C172.53999999999996,30.116999999999962 172.5699999999997,30.55499999999995 172.6199999999999,30.878000000000043 C173.05000000000018,30.513000000000034 173.35000000000036,30.241999999999962 173.53999999999996,30.065000000000055 C173.75,29.85699999999997 173.96000000000004,29.567999999999984 174.17000000000007,29.19799999999998 C174.3699999999999,28.827999999999975 174.47999999999956,28.461000000000013 174.47999999999956,28.096000000000004 C174.47999999999956,27.73199999999997 174.39999999999964,27.418999999999983 174.23999999999978,27.158999999999992 C174.09000000000015,26.899 173.8800000000001,26.76800000000003 173.6199999999999,26.76800000000003 C173.3100000000004,26.76800000000003 173.05000000000018,26.888000000000034 172.84000000000015,27.128000000000043 C172.64000000000033,27.388000000000034 172.53999999999996,27.684999999999945 172.53999999999996,28.01800000000003 M171.71000000000004,31.596000000000004 L171.46000000000004,19.706000000000017 C171.64999999999964,19.601999999999975 171.82999999999993,19.549999999999955 172.02000000000044,19.549999999999955 C172.19999999999982,19.549999999999955 172.3800000000001,19.601999999999975 172.5600000000004,19.706000000000017 L172.39999999999964,26.596000000000004 C172.9300000000003,26.138000000000034 173.55000000000018,25.908999999999992 174.23999999999978,25.908999999999992 C174.73999999999978,25.908999999999992 175.15999999999985,26.116999999999962 175.5,26.533999999999992 C175.84000000000015,26.951000000000022 176.01000000000022,27.42999999999995 176.01000000000022,27.971000000000004 C176.01000000000022,28.30499999999995 175.89999999999964,28.663999999999987 175.6800000000003,29.049999999999955 C175.47000000000025,29.39300000000003 175.25,29.663999999999987 175.02000000000044,29.861999999999966 C174.89000000000033,29.966000000000008 174.5600000000004,30.226999999999975 174.02000000000044,30.64300000000003 C173.8699999999999,30.758000000000038 173.6800000000003,30.89300000000003 173.47000000000025,31.049999999999955 C173.26000000000022,31.206000000000017 173.1199999999999,31.30499999999995 173.0699999999997,31.346000000000004 C172.97999999999956,31.399 172.89000000000033,31.503000000000043 172.8100000000004,31.658999999999992 C172.72000000000025,31.793999999999983 172.6199999999999,31.903999999999996 172.48999999999978,31.986999999999966 C172.40999999999985,32.07000000000005 172.30000000000018,32.111999999999966 172.17000000000007,32.111999999999966 C172.03999999999996,32.111999999999966 171.9399999999996,32.065000000000055 171.85000000000036,31.971000000000004 C171.76000000000022,31.878000000000043 171.71000000000004,31.753000000000043 171.71000000000004,31.596000000000004" />
<path d="M147.9300000000003,40.08100000000002 C147.9300000000003,40.33100000000002 147.80000000000018,40.45600000000002 147.5600000000004,40.45600000000002 C147.3100000000004,40.45600000000002 147.1899999999996,40.33100000000002 147.1899999999996,40.08100000000002 L147.1899999999996,37.190000000000055 L145.53999999999996,37.815000000000055 L145.53999999999996,40.971000000000004 C145.53999999999996,41.221000000000004 145.40999999999985,41.346000000000004 145.15999999999985,41.346000000000004 C144.90999999999985,41.346000000000004 144.78999999999996,41.221000000000004 144.78999999999996,40.971000000000004 L144.78999999999996,38.065000000000055 L144.15999999999985,38.299999999999955 C144.14999999999964,38.309999999999945 144.10000000000036,38.315000000000055 144.0,38.315000000000055 C143.89999999999964,38.315000000000055 143.8100000000004,38.275999999999954 143.72999999999956,38.19799999999998 C143.64999999999964,38.120000000000005 143.60999999999967,38.028999999999996 143.60999999999967,37.924999999999955 L143.60999999999967,36.721000000000004 C143.60999999999967,36.524 143.69999999999982,36.399 143.85999999999967,36.346000000000004 L144.78999999999996,36.03399999999999 L144.78999999999996,32.83100000000002 L144.15999999999985,33.049999999999955 C144.14999999999964,33.059999999999945 144.10000000000036,33.065000000000055 144.0,33.065000000000055 C143.89999999999964,33.065000000000055 143.8100000000004,33.025999999999954 143.72999999999956,32.94799999999998 C143.64999999999964,32.870000000000005 143.60999999999967,32.778999999999996 143.60999999999967,32.674999999999955 L143.60999999999967,31.456000000000017 C143.60999999999967,31.278999999999996 143.69999999999982,31.163999999999987 143.85999999999967,31.111999999999966 L144.78999999999996,30.753000000000043 L144.78999999999996,27.611999999999966 C144.78999999999996,27.361999999999966 144.90999999999985,27.236999999999966 145.15999999999985,27.236999999999966 C145.40999999999985,27.236999999999966 145.53999999999996,27.361999999999966 145.53999999999996,27.611999999999966 L145.53999999999996,30.503000000000043 L147.1899999999996,29.878000000000043 L147.1899999999996,26.721000000000004 C147.1899999999996,26.471000000000004 147.3100000000004,26.346000000000004 147.5600000000004,26.346000000000004 C147.80000000000018,26.346000000000004 147.9300000000003,26.471000000000004 147.9300000000003,26.721000000000004 L147.9300000000003,29.628000000000043 L148.57999999999993,29.39300000000003 C148.59000000000015,29.383000000000038 148.6300000000001,29.378000000000043 148.71000000000004,29.378000000000043 C148.80000000000018,29.378000000000043 148.89999999999964,29.413999999999987 149.0,29.486999999999966 C149.09000000000015,29.57000000000005 149.1300000000001,29.663999999999987 149.1300000000001,29.76800000000003 L149.1300000000001,30.971000000000004 C149.1300000000001,31.158999999999992 149.03999999999996,31.283999999999992 148.85000000000036,31.346000000000004 L147.9300000000003,31.658999999999992 L147.9300000000003,34.861999999999966 L148.57999999999993,34.64300000000003 C148.59000000000015,34.63300000000004 148.6300000000001,34.62800000000004 148.71000000000004,34.62800000000004 C148.80000000000018,34.62800000000004 148.89999999999964,34.66899999999998 149.0,34.75300000000004 C149.09000000000015,34.82600000000002 149.1300000000001,34.91399999999999 149.1300000000001,35.01800000000003 L149.1300000000001,36.236999999999966 C149.1300000000001,36.403999999999996 149.03999999999996,36.51800000000003 148.85000000000036,36.58100000000002 L147.9300000000003,36.940000000000055 L147.9300000000003,40.08100000000002 M147.1899999999996,31.956000000000017 L145.53999999999996,32.53399999999999 L145.53999999999996,35.736999999999966 L147.1899999999996,35.15899999999999 L147.1899999999996,31.956000000000017" />
<path d="M20.659999999999854,0.08100000000001728 C20.659999999999854,0.3310000000000173 20.529999999999745,0.4560000000000173 20.289999999999964,0.4560000000000173 C20.039999999999964,0.4560000000000173 19.920000000000073,0.3310000000000173 19.920000000000073,0.08100000000001728 L19.920000000000073,-2.8100000000000023 L18.270000000000437,-2.1850000000000023 L18.270000000000437,0.9710000000000036 C18.270000000000437,1.2210000000000036 18.140000000000327,1.3460000000000036 17.890000000000327,1.3460000000000036 C17.640000000000327,1.3460000000000036 17.520000000000437,1.2210000000000036 17.520000000000437,0.9710000000000036 L17.520000000000437,-1.9350000000000023 L16.890000000000327,-1.6999999999999886 C16.88000000000011,-1.6899999999999977 16.829999999999927,-1.6850000000000023 16.729999999999563,-1.6850000000000023 C16.63000000000011,-1.6850000000000023 16.539999999999964,-1.7239999999999895 16.460000000000036,-1.802000000000021 C16.38000000000011,-1.8799999999999955 16.340000000000146,-1.9710000000000036 16.340000000000146,-2.0749999999999886 L16.340000000000146,-3.2789999999999964 C16.340000000000146,-3.475999999999999 16.43000000000029,-3.600999999999999 16.590000000000146,-3.6539999999999964 L17.520000000000437,-3.966000000000008 L17.520000000000437,-7.168999999999983 L16.890000000000327,-6.949999999999989 C16.88000000000011,-6.939999999999998 16.829999999999927,-6.935000000000002 16.729999999999563,-6.935000000000002 C16.63000000000011,-6.935000000000002 16.539999999999964,-6.9739999999999895 16.460000000000036,-7.052000000000021 C16.38000000000011,-7.1299999999999955 16.340000000000146,-7.221000000000004 16.340000000000146,-7.324999999999989 L16.340000000000146,-8.543999999999983 C16.340000000000146,-8.721000000000004 16.43000000000029,-8.836000000000013 16.590000000000146,-8.887999999999977 L17.520000000000437,-9.247000000000014 L17.520000000000437,-12.387999999999977 C17.520000000000437,-12.637999999999977 17.640000000000327,-12.762999999999977 17.890000000000327,-12.762999999999977 C18.140000000000327,-12.762999999999977 18.270000000000437,-12.637999999999977 18.270000000000437,-12.387999999999977 L18.270000000000437,-9.497000000000014 L19.920000000000073,-10.122000000000014 L19.920000000000073,-13.278999999999996 C19.920000000000073,-13.528999999999996 20.039999999999964,-13.653999999999996 20.289999999999964,-13.653999999999996 C20.529999999999745,-13.653999999999996 20.659999999999854,-13.528999999999996 20.659999999999854,-13.278999999999996 L20.659999999999854,-10.372000000000014 L21.3100000000004,-10.607000000000028 C21.31999999999971,-10.617000000000019 21.359999999999673,-10.622000000000014 21.4399999999996,-10.622000000000014 C21.529999999999745,-10.622000000000014 21.63000000000011,-10.586000000000013 21.729999999999563,-10.512999999999977 C21.81999999999971,-10.430000000000007 21.859999999999673,-10.336000000000013 21.859999999999673,-10.232000000000028 L21.859999999999673,-9.028999999999996 C21.859999999999673,-8.841000000000008 21.770000000000437,-8.716000000000008 21.579999999999927,-8.653999999999996 L20.659999999999854,-8.341000000000008 L20.659999999999854,-5.137999999999977 L21.3100000000004,-5.357000000000028 C21.31999999999971,-5.367000000000019 21.359999999999673,-5.372000000000014 21.4399999999996,-5.372000000000014 C21.529999999999745,-5.372000000000014 21.63000000000011,-5.331000000000017 21.729999999999563,-5.247000000000014 C21.81999999999971,-5.173999999999978 21.859999999999673,-5.086000000000013 21.859999999999673,-4.982000000000028 L21.859999999999673,-3.762999999999977 C21.859999999999673,-3.5960000000000036 21.770000000000437,-3.4820000000000277 21.579999999999927,-3.4189999999999827 L20.659999999999854,-3.0600000000000023 L20.659999999999854,0.08100000000001728 M19.920000000000073,-8.043999999999983 L18.270000000000437,-7.466000000000008 L18.270000000000437,-4.262999999999977 L19.920000000000073,-4.841000000000008 L19.920000000000073,-8.043999999999983" />
<path d="M234.3100000000004,63.12800000000004 L236.72000000000025,61.174999999999955 C236.77999999999975,61.12199999999996 236.84000000000015,61.096000000000004 236.89000000000033,61.096000000000004 C236.96000000000004,61.096000000000004 237.02999999999975,61.12199999999996 237.09000000000015,61.174999999999955 L237.5,61.486999999999966 C237.5600000000004,61.549999999999955 237.59000000000015,61.62800000000004 237.59000000000015,61.721000000000004 C237.59000000000015,61.78399999999999 237.5600000000004,61.861999999999966 237.5,61.95600000000002 L235.17000000000007,63.846000000000004 L237.5,65.73699999999997 C237.5600000000004,65.80999999999995 237.59000000000015,65.89099999999996 237.59000000000015,65.97900000000004 C237.59000000000015,66.06799999999998 237.5600000000004,66.14300000000003 237.5,66.20600000000002 L237.09000000000015,66.51800000000003 C237.02999999999975,66.57000000000005 236.96000000000004,66.596 236.89000000000033,66.596 C236.84000000000015,66.596 236.77999999999975,66.57000000000005 236.72000000000025,66.51800000000003 L234.3100000000004,64.56500000000005 L231.89000000000033,66.51800000000003 C231.82999999999993,66.57000000000005 231.77000000000044,66.596 231.72000000000025,66.596 C231.65999999999985,66.596 231.59000000000015,66.57000000000005 231.52999999999975,66.51800000000003 L231.10999999999967,66.20600000000002 C231.05000000000018,66.14300000000003 231.01000000000022,66.06500000000005 231.01000000000022,65.971 C231.01000000000022,65.90899999999999 231.05000000000018,65.83100000000002 231.10999999999967,65.73699999999997 L233.4399999999996,63.846000000000004 L231.10999999999967,61.95600000000002 C231.05000000000018,61.88300000000004 231.01000000000022,61.80200000000002 231.01000000000022,61.714000000000055 C231.01000000000022,61.625 231.05000000000018,61.549999999999955 231.10999999999967,61.486999999999966 L231.52999999999975,61.174999999999955 C231.59000000000015,61.12199999999996 231.65999999999985,61.096000000000004 231.72000000000025,61.096000000000004 C231.77000000000044,61.096000000000004 231.82999999999993,61.12199999999996 231.89000000000033,61.174999999999955 L234.3100000000004,63.12800000000004" />
<path d="M235.40999999999985,71.096 C236.02999999999975,71.096 236.5600000000004,71.25800000000004 237.0,71.58100000000002 C237.39000000000033,71.93499999999995 237.59000000000015,72.37800000000004 237.59000000000015,72.90899999999999 C237.59000000000015,73.80499999999995 237.1300000000001,74.64300000000003 236.22000000000025,75.42499999999995 C235.27999999999975,76.20600000000002 234.27999999999975,76.596 233.19999999999982,76.596 C232.57999999999993,76.596 232.05000000000018,76.43499999999995 231.6199999999999,76.11199999999997 C231.22000000000025,75.75800000000004 231.01000000000022,75.31500000000005 231.01000000000022,74.78399999999999 C231.01000000000022,73.88800000000003 231.47999999999956,73.04999999999995 232.42000000000007,72.26800000000003 C233.34000000000015,71.48699999999997 234.32999999999993,71.096 235.40999999999985,71.096" />
<path d="M235.40999999999985,26.096000000000004 C236.02999999999975,26.096000000000004 236.5600000000004,26.258000000000038 237.0,26.581000000000017 C237.39000000000033,26.934999999999945 237.59000000000015,27.378000000000043 237.59000000000015,27.908999999999992 C237.59000000000015,28.80499999999995 237.1300000000001,29.64300000000003 236.22000000000025,30.424999999999955 C235.27999999999975,31.206000000000017 234.27999999999975,31.596000000000004 233.19999999999982,31.596000000000004 C232.57999999999993,31.596000000000004 232.05000000000018,31.434999999999945 231.6199999999999,31.111999999999966 C231.22000000000025,30.758000000000038 231.01000000000022,30.315000000000055 231.01000000000022,29.783999999999992 C231.01000000000022,28.888000000000034 231.47999999999956,28.049999999999955 232.42000000000007,27.26800000000003 C233.34000000000015,26.486999999999966 234.32999999999993,26.096000000000004 235.40999999999985,26.096000000000004" />
<path d="M207.3800000000001,63.12800000000004 L209.78999999999996,61.174999999999955 C209.85000000000036,61.12199999999996 209.90999999999985,61.096000000000004 209.96000000000004,61.096000000000004 C210.02999999999975,61.096000000000004 210.10000000000036,61.12199999999996 210.15999999999985,61.174999999999955 L210.5699999999997,61.486999999999966 C210.6300000000001,61.549999999999955 210.65999999999985,61.62800000000004 210.65999999999985,61.721000000000004 C210.65999999999985,61.78399999999999 210.6300000000001,61.861999999999966 210.5699999999997,61.95600000000002 L208.23999999999978,63.846000000000004 L210.5699999999997,65.73699999999997 C210.6300000000001,65.80999999999995 210.65999999999985,65.89099999999996 210.65999999999985,65.97900000000004 C210.65999999999985,66.06799999999998 210.6300000000001,66.14300000000003 210.5699999999997,66.20600000000002 L210.15999999999985,66.51800000000003 C210.10000000000036,66.57000000000005 210.02999999999975,66.596 209.96000000000004,66.596 C209.90999999999985,66.596 209.85000000000036,66.57000000000005 209.78999999999996,66.51800000000003 L207.3800000000001,64.56500000000005 L204.96000000000004,66.51800000000003 C204.89999999999964,66.57000000000005 204.84000000000015,66.596 204.78999999999996,66.596 C204.72000000000025,66.596 204.65999999999985,66.57000000000005 204.60000000000036,66.51800000000003 L204.1800000000003,66.20600000000002 C204.10999999999967,66.14300000000003 204.07999999999993,66.06500000000005 204.07999999999993,65.971 C204.07999999999993,65.90899999999999 204.10999999999967,65.83100000000002 204.1800000000003,65.73699999999997 L206.51000000000022,63.846000000000004 L204.1800000000003,61.95600000000002 C204.10999999999967,61.88300000000004 204.07999999999993,61.80200000000002 204.07999999999993,61.714000000000055 C204.07999999999993,61.625 204.10999999999967,61.549999999999955 204.1800000000003,61.486999999999966 L204.60000000000036,61.174999999999955 C204.65999999999985,61.12199999999996 204.72000000000025,61.096000000000004 204.78999999999996,61.096000000000004 C204.84000000000015,61.096000000000004 204.89999999999964,61.12199999999996 204.96000000000004,61.174999999999955 L207.3800000000001,63.12800000000004" />
<path d="M208.47000000000025,81.096 C209.10000000000036,81.096 209.6300000000001,81.25800000000004 210.0699999999997,81.58100000000002 C210.46000000000004,81.93499999999995 210.65999999999985,82.37800000000004 210.65999999999985,82.90899999999999 C210.65999999999985,83.80499999999995 210.19999999999982,84.64300000000003 209.28999999999996,85.42499999999995 C208.35000000000036,86.20600000000002 207.34000000000015,86.596 206.27000000000044,86.596 C205.64999999999964,86.596 205.1199999999999,86.43499999999995 204.6899999999996,86.11199999999997 C204.28999999999996,85.75800000000004 204.07999999999993,85.31500000000005 204.07999999999993,84.78399999999999 C204.07999999999993,83.88800000000003 204.55000000000018,83.04999999999995 205.48999999999978,82.26800000000003 C206.40999999999985,81.48699999999997 207.39999999999964,81.096 208.47000000000025,81.096" />
<path d="M208.47000000000025,26.096000000000004 C209.10000000000036,26.096000000000004 209.6300000000001,26.258000000000038 210.0699999999997,26.581000000000017 C210.46000000000004,26.934999999999945 210.65999999999985,27.378000000000043 210.65999999999985,27.908999999999992 C210.65999999999985,28.80499999999995 210.19999999999982,29.64300000000003 209.28999999999996,30.424999999999955 C208.35000000000036,31.206000000000017 207.34000000000015,31.596000000000004 206.27000000000044,31.596000000000004 C205.64999999999964,31.596000000000004 205.1199999999999,31.434999999999945 204.6899999999996,31.111999999999966 C204.28999999999996,30.758000000000038 204.07999999999993,30.315000000000055 204.07999999999993,29.783999999999992 C204.07999999999993,28.888000000000034 204.55000000000018,28.049999999999955 205.48999999999978,27.26800000000003 C206.40999999999985,26.486999999999966 207.39999999999964,26.096000000000004 208.47000000000025,26.096000000000004" />
<path d="M180.44999999999982,63.12800000000004 L182.85999999999967,61.174999999999955 C182.92000000000007,61.12199999999996 182.97999999999956,61.096000000000004 183.02999999999975,61.096000000000004 C183.10000000000036,61.096000000000004 183.17000000000007,61.12199999999996 183.22999999999956,61.174999999999955 L183.64000000000033,61.486999999999966 C183.69999999999982,61.549999999999955 183.72999999999956,61.62800000000004 183.72999999999956,61.721000000000004 C183.72999999999956,61.78399999999999 183.69999999999982,61.861999999999966 183.64000000000033,61.95600000000002 L181.3100000000004,63.846000000000004 L183.64000000000033,65.73699999999997 C183.69999999999982,65.80999999999995 183.72999999999956,65.89099999999996 183.72999999999956,65.97900000000004 C183.72999999999956,66.06799999999998 183.69999999999982,66.14300000000003 183.64000000000033,66.20600000000002 L183.22999999999956,66.51800000000003 C183.17000000000007,66.57000000000005 183.10000000000036,66.596 183.02999999999975,66.596 C182.97999999999956,66.596 182.92000000000007,66.57000000000005 182.85999999999967,66.51800000000003 L180.44999999999982,64.56500000000005 L178.02999999999975,66.51800000000003 C177.97000000000025,66.57000000000005 177.90999999999985,66.596 177.85999999999967,66.596 C177.78999999999996,66.596 177.72999999999956,66.57000000000005 177.67000000000007,66.51800000000003 L177.25,66.20600000000002 C177.1800000000003,66.14300000000003 177.14999999999964,66.06500000000005 177.14999999999964,65.971 C177.14999999999964,65.90899999999999 177.1800000000003,65.83100000000002 177.25,65.73699999999997 L179.5699999999997,63.846000000000004 L177.25,61.95600000000002 C177.1800000000003,61.88300000000004 177.14999999999964,61.80200000000002 177.14999999999964,61.714000000000055 C177.14999999999964,61.625 177.1800000000003,61.549999999999955 177.25,61.486999999999966 L177.67000000000007,61.174999999999955 C177.72999999999956,61.12199999999996 177.78999999999996,61.096000000000004 177.85999999999967,61.096000000000004 C177.90999999999985,61.096000000000004 177.97000000000025,61.12199999999996 178.02999999999975,61.174999999999955 L180.44999999999982,63.12800000000004" />
<path d="M181.53999999999996,71.096 C182.17000000000007,71.096 182.69999999999982,71.25800000000004 183.14000000000033,71.58100000000002 C183.52999999999975,71.93499999999995 183.72999999999956,72.37800000000004 183.72999999999956,72.90899999999999 C183.72999999999956,73.80499999999995 183.27000000000044,74.64300000000003 182.35999999999967,75.42499999999995 C181.42000000000007,76.20600000000002 180.40999999999985,76.596 179.34000000000015,76.596 C178.72000000000025,76.596 178.1899999999996,76.43499999999995 177.76000000000022,76.11199999999997 C177.35999999999967,75.75800000000004 177.14999999999964,75.31500000000005 177.14999999999964,74.78399999999999 C177.14999999999964,73.88800000000003 177.6199999999999,73.04999999999995 178.5600000000004,72.26800000000003 C179.47999999999956,71.48699999999997 180.47000000000025,71.096 181.53999999999996,71.096" />
<path d="M181.53999999999996,81.096 C182.17000000000007,81.096 182.69999999999982,81.25800000000004 183.14000000000033,81.58100000000002 C183.52999999999975,81.93499999999995 183.72999999999956,82.37800000000004 183.72999999999956,82.90899999999999 C183.72999999999956,83.80499999999995 183.27000000000044,84.64300000000003 182.35999999999967,85.42499999999995 C181.42000000000007,86.20600000000002 180.40999999999985,86.596 179.34000000000015,86.596 C178.72000000000025,86.596 178.1899999999996,86.43499999999995 177.76000000000022,86.11199999999997 C177.35999999999967,85.75800000000004 177.14999999999964,85.31500000000005 177.14999999999964,84.78399999999999 C177.14999999999964,83.88800000000003 177.6199999999999,83.04999999999995 178.5600000000004,82.26800000000003 C179.47999999999956,81.48699999999997 180.47000000000025,81.096 181.53999999999996,81.096" />
<path d="M181.53999999999996,26.096000000000004 C182.17000000000007,26.096000000000004 182.69999999999982,26.258000000000038 183.14000000000033,26.581000000000017 C183.52999999999975,26.934999999999945 183.72999999999956,27.378000000000043 183.72999999999956,27.908999999999992 C183.72999999999956,28.80499999999995 183.27000000000044,29.64300000000003 182.35999999999967,30.424999999999955 C181.42000000000007,31.206000000000017 180.40999999999985,31.596000000000004 179.34000000000015,31.596000000000004 C178.72000000000025,31.596000000000004 178.1899999999996,31.434999999999945 177.76000000000022,31.111999999999966 C177.35999999999967,30.758000000000038 177.14999999999964,30.315000000000055 177.14999999999964,29.783999999999992 C177.14999999999964,28.888000000000034 177.6199999999999,28.049999999999955 178.5600000000004,27.26800000000003 C179.47999999999956,26.486999999999966 180.47000000000025,26.096000000000004 181.53999999999996,26.096000000000004" />
<path d="M153.52000000000044,63.12800000000004 L155.92000000000007,61.174999999999955 C155.98999999999978,61.12199999999996 156.03999999999996,61.096000000000004 156.10000000000036,61.096000000000004 C156.17000000000007,61.096000000000004 156.23999999999978,61.12199999999996 156.30000000000018,61.174999999999955 L156.71000000000004,61.486999999999966 C156.77000000000044,61.549999999999955 156.80000000000018,61.62800000000004 156.80000000000018,61.721000000000004 C156.80000000000018,61.78399999999999 156.77000000000044,61.861999999999966 156.71000000000004,61.95600000000002 L154.3800000000001,63.846000000000004 L156.71000000000004,65.73699999999997 C156.77000000000044,65.80999999999995 156.80000000000018,65.89099999999996 156.80000000000018,65.97900000000004 C156.80000000000018,66.06799999999998 156.77000000000044,66.14300000000003 156.71000000000004,66.20600000000002 L156.30000000000018,66.51800000000003 C156.23999999999978,66.57000000000005 156.17000000000007,66.596 156.10000000000036,66.596 C156.03999999999996,66.596 155.98999999999978,66.57000000000005 155.92000000000007,66.51800000000003 L153.52000000000044,64.56500000000005 L151.10000000000036,66.51800000000003 C151.02999999999975,66.57000000000005 150.97999999999956,66.596 150.92000000000007,66.596 C150.85999999999967,66.596 150.80000000000018,66.57000000000005 150.73999999999978,66.51800000000003 L150.3199999999997,66.20600000000002 C150.25,66.14300000000003 150.22000000000025,66.06500000000005 150.22000000000025,65.971 C150.22000000000025,65.90899999999999 150.25,65.83100000000002 150.3199999999997,65.73699999999997 L152.64000000000033,63.846000000000004 L150.3199999999997,61.95600000000002 C150.25,61.88300000000004 150.22000000000025,61.80200000000002 150.22000000000025,61.714000000000055 C150.22000000000025,61.625 150.25,61.549999999999955 150.3199999999997,61.486999999999966 L150.73999999999978,61.174999999999955 C150.80000000000018,61.12199999999996 150.85999999999967,61.096000000000004 150.92000000000007,61.096000000000004 C150.97999999999956,61.096000000000004 151.02999999999975,61.12199999999996 151.10000000000036,61.174999999999955 L153.52000000000044,63.12800000000004" />
<path d="M154.60999999999967,31.096000000000004 C155.23999999999978,31.096000000000004 155.77000000000044,31.258000000000038 156.21000000000004,31.581000000000017 C156.60000000000036,31.934999999999945 156.80000000000018,32.37800000000004 156.80000000000018,32.90899999999999 C156.80000000000018,33.80499999999995 156.34000000000015,34.64300000000003 155.42000000000007,35.424999999999955 C154.48999999999978,36.20600000000002 153.47999999999956,36.596000000000004 152.40999999999985,36.596000000000004 C151.77999999999975,36.596000000000004 151.26000000000022,36.434999999999945 150.82999999999993,36.111999999999966 C150.42000000000007,35.75800000000004 150.22000000000025,35.315000000000055 150.22000000000025,34.78399999999999 C150.22000000000025,33.888000000000034 150.6899999999996,33.049999999999955 151.6300000000001,32.26800000000003 C152.53999999999996,31.486999999999966 153.53999999999996,31.096000000000004 154.60999999999967,31.096000000000004" />
<path d="M126.59000000000015,63.12800000000004 L128.98999999999978,61.174999999999955 C129.0600000000004,61.12199999999996 129.10999999999967,61.096000000000004 129.17000000000007,61.096000000000004 C129.23999999999978,61.096000000000004 129.3100000000004,61.12199999999996 129.3699999999999,61.174999999999955 L129.77000000000044,61.486999999999966 C129.84000000000015,61.549999999999955 129.8699999999999,61.62800000000004 129.8699999999999,61.721000000000004 C129.8699999999999,61.78399999999999 129.84000000000015,61.861999999999966 129.77000000000044,61.95600000000002 L127.44999999999982,63.846000000000004 L129.77000000000044,65.73699999999997 C129.84000000000015,65.80999999999995 129.8699999999999,65.89099999999996 129.8699999999999,65.97900000000004 C129.8699999999999,66.06799999999998 129.84000000000015,66.14300000000003 129.77000000000044,66.20600000000002 L129.3699999999999,66.51800000000003 C129.3100000000004,66.57000000000005 129.23999999999978,66.596 129.17000000000007,66.596 C129.10999999999967,66.596 129.0600000000004,66.57000000000005 128.98999999999978,66.51800000000003 L126.59000000000015,64.56500000000005 L124.17000000000007,66.51800000000003 C124.10000000000036,66.57000000000005 124.05000000000018,66.596 123.98999999999978,66.596 C123.93000000000029,66.596 123.86999999999989,66.57000000000005 123.8100000000004,66.51800000000003 L123.38000000000011,66.20600000000002 C123.31999999999971,66.14300000000003 123.28999999999996,66.06500000000005 123.28999999999996,65.971 C123.28999999999996,65.90899999999999 123.31999999999971,65.83100000000002 123.38000000000011,65.73699999999997 L125.71000000000004,63.846000000000004 L123.38000000000011,61.95600000000002 C123.31999999999971,61.88300000000004 123.28999999999996,61.80200000000002 123.28999999999996,61.714000000000055 C123.28999999999996,61.625 123.31999999999971,61.549999999999955 123.38000000000011,61.486999999999966 L123.8100000000004,61.174999999999955 C123.86999999999989,61.12199999999996 123.93000000000029,61.096000000000004 123.98999999999978,61.096000000000004 C124.05000000000018,61.096000000000004 124.10000000000036,61.12199999999996 124.17000000000007,61.174999999999955 L126.59000000000015,63.12800000000004" />
<path d="M127.68000000000029,71.096 C128.3100000000004,71.096 128.84000000000015,71.25800000000004 129.27000000000044,71.58100000000002 C129.67000000000007,71.93499999999995 129.8699999999999,72.37800000000004 129.8699999999999,72.90899999999999 C129.8699999999999,73.80499999999995 129.40999999999985,74.64300000000003 128.48999999999978,75.42499999999995 C127.5600000000004,76.20600000000002 126.55000000000018,76.596 125.47999999999956,76.596 C124.85000000000036,76.596 124.32999999999993,76.43499999999995 123.89999999999964,76.11199999999997 C123.48999999999978,75.75800000000004 123.28999999999996,75.31500000000005 123.28999999999996,74.78399999999999 C123.28999999999996,73.88800000000003 123.76000000000022,73.04999999999995 124.69999999999982,72.26800000000003 C125.60999999999967,71.48699999999997 126.60999999999967,71.096 127.68000000000029,71.096" />
<path d="M127.68000000000029,23.596000000000004 C128.3100000000004,23.596000000000004 128.84000000000015,23.758000000000038 129.27000000000044,24.081000000000017 C129.67000000000007,24.434999999999945 129.8699999999999,24.878000000000043 129.8699999999999,25.408999999999992 C129.8699999999999,26.30499999999995 129.40999999999985,27.14300000000003 128.48999999999978,27.924999999999955 C127.5600000000004,28.706000000000017 126.55000000000018,29.096000000000004 125.47999999999956,29.096000000000004 C124.85000000000036,29.096000000000004 124.32999999999993,28.934999999999945 123.89999999999964,28.611999999999966 C123.48999999999978,28.258000000000038 123.28999999999996,27.815000000000055 123.28999999999996,27.283999999999992 C123.28999999999996,26.388000000000034 123.76000000000022,25.549999999999955 124.69999999999982,24.76800000000003 C125.60999999999967,23.986999999999966 126.60999999999967,23.596000000000004 127.68000000000029,23.596000000000004" />
<path d="M99.65999999999985,63.12800000000004 L102.0600000000004,61.174999999999955 C102.13000000000011,61.12199999999996 102.18000000000029,61.096000000000004 102.22999999999956,61.096000000000004 C102.3100000000004,61.096000000000004 102.38000000000011,61.12199999999996 102.4399999999996,61.174999999999955 L102.84000000000015,61.486999999999966 C102.90999999999985,61.549999999999955 102.9399999999996,61.62800000000004 102.9399999999996,61.721000000000004 C102.9399999999996,61.78399999999999 102.90999999999985,61.861999999999966 102.84000000000015,61.95600000000002 L100.52000000000044,63.846000000000004 L102.84000000000015,65.73699999999997 C102.90999999999985,65.80999999999995 102.9399999999996,65.89099999999996 102.9399999999996,65.97900000000004 C102.9399999999996,66.06799999999998 102.90999999999985,66.14300000000003 102.84000000000015,66.20600000000002 L102.4399999999996,66.51800000000003 C102.38000000000011,66.57000000000005 102.3100000000004,66.596 102.22999999999956,66.596 C102.18000000000029,66.596 102.13000000000011,66.57000000000005 102.0600000000004,66.51800000000003 L99.65999999999985,64.56500000000005 L97.22999999999956,66.51800000000003 C97.17000000000007,66.57000000000005 97.10999999999967,66.596 97.0600000000004,66.596 C97.0,66.596 96.9399999999996,66.57000000000005 96.88000000000011,66.51800000000003 L96.44999999999982,66.20600000000002 C96.39000000000033,66.14300000000003 96.35999999999967,66.06500000000005 96.35999999999967,65.971 C96.35999999999967,65.90899999999999 96.39000000000033,65.83100000000002 96.44999999999982,65.73699999999997 L98.77999999999975,63.846000000000004 L96.44999999999982,61.95600000000002 C96.39000000000033,61.88300000000004 96.35999999999967,61.80200000000002 96.35999999999967,61.714000000000055 C96.35999999999967,61.625 96.39000000000033,61.549999999999955 96.44999999999982,61.486999999999966 L96.88000000000011,61.174999999999955 C96.9399999999996,61.12199999999996 97.0,61.096000000000004 97.0600000000004,61.096000000000004 C97.10999999999967,61.096000000000004 97.17000000000007,61.12199999999996 97.22999999999956,61.174999999999955 L99.65999999999985,63.12800000000004" />
<path d="M100.75,81.096 C101.38000000000011,81.096 101.90999999999985,81.25800000000004 102.34000000000015,81.58100000000002 C102.73999999999978,81.93499999999995 102.9399999999996,82.37800000000004 102.9399999999996,82.90899999999999 C102.9399999999996,83.80499999999995 102.47999999999956,84.64300000000003 101.5600000000004,85.42499999999995 C100.63000000000011,86.20600000000002 99.61999999999989,86.596 98.55000000000018,86.596 C97.92000000000007,86.596 97.39999999999964,86.43499999999995 96.97000000000025,86.11199999999997 C96.5600000000004,85.75800000000004 96.35999999999967,85.31500000000005 96.35999999999967,84.78399999999999 C96.35999999999967,83.88800000000003 96.82999999999993,83.04999999999995 97.77000000000044,82.26800000000003 C98.68000000000029,81.48699999999997 99.68000000000029,81.096 100.75,81.096" />
<path d="M100.75,23.596000000000004 C101.38000000000011,23.596000000000004 101.90999999999985,23.758000000000038 102.34000000000015,24.081000000000017 C102.73999999999978,24.434999999999945 102.9399999999996,24.878000000000043 102.9399999999996,25.408999999999992 C102.9399999999996,26.30499999999995 102.47999999999956,27.14300000000003 101.5600000000004,27.924999999999955 C100.63000000000011,28.706000000000017 99.61999999999989,29.096000000000004 98.55000000000018,29.096000000000004 C97.92000000000007,29.096000000000004 97.39999999999964,28.934999999999945 96.97000000000025,28.611999999999966 C96.5600000000004,28.258000000000038 96.35999999999967,27.815000000000055 96.35999999999967,27.283999999999992 C96.35999999999967,26.388000000000034 96.82999999999993,25.549999999999955 97.77000000000044,24.76800000000003 C98.68000000000029,23.986999999999966 99.68000000000029,23.596000000000004 100.75,23.596000000000004" />
<path d="M72.72999999999956,63.12800000000004 L75.13000000000011,61.174999999999955 C75.1899999999996,61.12199999999996 75.25,61.096000000000004 75.30000000000018,61.096000000000004 C75.38000000000011,61.096000000000004 75.4399999999996,61.12199999999996 75.51000000000022,61.174999999999955 L75.90999999999985,61.486999999999966 C75.97999999999956,61.549999999999955 76.01000000000022,61.62800000000004 76.01000000000022,61.721000000000004 C76.01000000000022,61.78399999999999 75.97999999999956,61.861999999999966 75.90999999999985,61.95600000000002 L73.57999999999993,63.846000000000004 L75.90999999999985,65.73699999999997 C75.97999999999956,65.80999999999995 76.01000000000022,65.89099999999996 76.01000000000022,65.97900000000004 C76.01000000000022,66.06799999999998 75.97999999999956,66.14300000000003 75.90999999999985,66.20600000000002 L75.51000000000022,66.51800000000003 C75.4399999999996,66.57000000000005 75.38000000000011,66.596 75.30000000000018,66.596 C75.25,66.596 75.1899999999996,66.57000000000005 75.13000000000011,66.51800000000003 L72.72999999999956,64.56500000000005 L70.30000000000018,66.51800000000003 C70.23999999999978,66.57000000000005 70.18000000000029,66.596 70.13000000000011,66.596 C70.06999999999971,66.596 70.01000000000022,66.57000000000005 69.9399999999996,66.51800000000003 L69.52000000000044,66.20600000000002 C69.46000000000004,66.14300000000003 69.43000000000029,66.06500000000005 69.43000000000029,65.971 C69.43000000000029,65.90899999999999 69.46000000000004,65.83100000000002 69.52000000000044,65.73699999999997 L71.85000000000036,63.846000000000004 L69.52000000000044,61.95600000000002 C69.46000000000004,61.88300000000004 69.43000000000029,61.80200000000002 69.43000000000029,61.714000000000055 C69.43000000000029,61.625 69.46000000000004,61.549999999999955 69.52000000000044,61.486999999999966 L69.9399999999996,61.174999999999955 C70.01000000000022,61.12199999999996 70.06999999999971,61.096000000000004 70.13000000000011,61.096000000000004 C70.18000000000029,61.096000000000004 70.23999999999978,61.12199999999996 70.30000000000018,61.174999999999955 L72.72999999999956,63.12800000000004" />
<path d="M73.81999999999971,81.096 C74.4399999999996,81.096 74.97999999999956,81.25800000000004 75.40999999999985,81.58100000000002 C75.8100000000004,81.93499999999995 76.01000000000022,82.37800000000004 76.01000000000022,82.90899999999999 C76.01000000000022,83.80499999999995 75.55000000000018,84.64300000000003 74.63000000000011,85.42499999999995 C73.6899999999996,86.20600000000002 72.6899999999996,86.596 71.61999999999989,86.596 C70.98999999999978,86.596 70.46000000000004,86.43499999999995 70.03999999999996,86.11199999999997 C69.63000000000011,85.75800000000004 69.43000000000029,85.31500000000005 69.43000000000029,84.78399999999999 C69.43000000000029,83.88800000000003 69.89999999999964,83.04999999999995 70.82999999999993,82.26800000000003 C71.75,81.48699999999997 72.75,81.096 73.81999999999971,81.096" />
<path d="M73.81999999999971,23.596000000000004 C74.4399999999996,23.596000000000004 74.97999999999956,23.758000000000038 75.40999999999985,24.081000000000017 C75.8100000000004,24.434999999999945 76.01000000000022,24.878000000000043 76.01000000000022,25.408999999999992 C76.01000000000022,26.30499999999995 75.55000000000018,27.14300000000003 74.63000000000011,27.924999999999955 C73.6899999999996,28.706000000000017 72.6899999999996,29.096000000000004 71.61999999999989,29.096000000000004 C70.98999999999978,29.096000000000004 70.46000000000004,28.934999999999945 70.03999999999996,28.611999999999966 C69.63000000000011,28.258000000000038 69.43000000000029,27.815000000000055 69.43000000000029,27.283999999999992 C69.43000000000029,26.388000000000034 69.89999999999964,25.549999999999955 70.82999999999993,24.76800000000003 C71.75,23.986999999999966 72.75,23.596000000000004 73.81999999999971,23.596000000000004" />
<path d="M46.56999999999971,71.096 C47.19999999999982,71.096 47.72999999999956,71.25800000000004 48.17000000000007,71.58100000000002 C48.5600000000004,71.93499999999995 48.76000000000022,72.37800000000004 48.76000000000022,72.90899999999999 C48.76000000000022,73.80499999999995 48.30000000000018,74.64300000000003 47.39000000000033,75.42499999999995 C46.44999999999982,76.20600000000002 45.4399999999996,76.596 44.36999999999989,76.596 C43.75,76.596 43.220000000000255,76.43499999999995 42.789999999999964,76.11199999999997 C42.39000000000033,75.75800000000004 42.18000000000029,75.31500000000005 42.18000000000029,74.78399999999999 C42.18000000000029,73.88800000000003 42.649999999999636,73.04999999999995 43.590000000000146,72.26800000000003 C44.51000000000022,71.48699999999997 45.5,71.096 46.56999999999971,71.096" />
<path d="M46.56999999999971,81.096 C47.19999999999982,81.096 47.72999999999956,81.25800000000004 48.17000000000007,81.58100000000002 C48.5600000000004,81.93499999999995 48.76000000000022,82.37800000000004 48.76000000000022,82.90899999999999 C48.76000000000022,83.80499999999995 48.30000000000018,84.64300000000003 47.39000000000033,85.42499999999995 C46.44999999999982,86.20600000000002 45.4399999999996,86.596 44.36999999999989,86.596 C43.75,86.596 43.220000000000255,86.43499999999995 42.789999999999964,86.11199999999997 C42.39000000000033,85.75800000000004 42.18000000000029,85.31500000000005 42.18000000000029,84.78399999999999 C42.18000000000029,83.88800000000003 42.649999999999636,83.04999999999995 43.590000000000146,82.26800000000003 C44.51000000000022,81.48699999999997 45.5,81.096 46.56999999999971,81.096" />
<path d="M46.56999999999971,26.096000000000004 C47.19999999999982,26.096000000000004 47.72999999999956,26.258000000000038 48.17000000000007,26.581000000000017 C48.5600000000004,26.934999999999945 48.76000000000022,27.378000000000043 48.76000000000022,27.908999999999992 C48.76000000000022,28.80499999999995 48.30000000000018,29.64300000000003 47.39000000000033,30.424999999999955 C46.44999999999982,31.206000000000017 45.4399999999996,31.596000000000004 44.36999999999989,31.596000000000004 C43.75,31.596000000000004 43.220000000000255,31.434999999999945 42.789999999999964,31.111999999999966 C42.39000000000033,30.758000000000038 42.18000000000029,30.315000000000055 42.18000000000029,29.783999999999992 C42.18000000000029,28.888000000000034 42.649999999999636,28.049999999999955 43.590000000000146,27.26800000000003 C44.51000000000022,26.486999999999966 45.5,26.096000000000004 46.56999999999971,26.096000000000004" />
<path d="M27.350000000000364,63.12800000000004 L29.75,61.174999999999955 C29.81999999999971,61.12199999999996 29.86999999999989,61.096000000000004 29.93000000000029,61.096000000000004 C30.0,61.096000000000004 30.06999999999971,61.12199999999996 30.13000000000011,61.174999999999955 L30.539999999999964,61.486999999999966 C30.600000000000364,61.549999999999955 30.63000000000011,61.62800000000004 30.63000000000011,61.721000000000004 C30.63000000000011,61.78399999999999 30.600000000000364,61.861999999999966 30.539999999999964,61.95600000000002 L28.210000000000036,63.846000000000004 L30.539999999999964,65.73699999999997 C30.600000000000364,65.80999999999995 30.63000000000011,65.89099999999996 30.63000000000011,65.97900000000004 C30.63000000000011,66.06799999999998 30.600000000000364,66.14300000000003 30.539999999999964,66.20600000000002 L30.13000000000011,66.51800000000003 C30.06999999999971,66.57000000000005 30.0,66.596 29.93000000000029,66.596 C29.86999999999989,66.596 29.81999999999971,66.57000000000005 29.75,66.51800000000003 L27.350000000000364,64.56500000000005 L24.93000000000029,66.51800000000003 C24.859999999999673,66.57000000000005 24.8100000000004,66.596 24.75,66.596 C24.6899999999996,66.596 24.63000000000011,66.57000000000005 24.56999999999971,66.51800000000003 L24.149999999999636,66.20600000000002 C24.079999999999927,66.14300000000003 24.050000000000182,66.06500000000005 24.050000000000182,65.971 C24.050000000000182,65.90899999999999 24.079999999999927,65.83100000000002 24.149999999999636,65.73699999999997 L26.470000000000255,63.846000000000004 L24.149999999999636,61.95600000000002 C24.079999999999927,61.88300000000004 24.050000000000182,61.80200000000002 24.050000000000182,61.714000000000055 C24.050000000000182,61.625 24.079999999999927,61.549999999999955 24.149999999999636,61.486999999999966 L24.56999999999971,61.174999999999955 C24.63000000000011,61.12199999999996 24.6899999999996,61.096000000000004 24.75,61.096000000000004 C24.8100000000004,61.096000000000004 24.859999999999673,61.12199999999996 24.93000000000029,61.174999999999955 L27.350000000000364,63.12800000000004" />
<path d="M28.4399999999996,81.096 C29.06999999999971,81.096 29.600000000000364,81.25800000000004 30.039999999999964,81.58100000000002 C30.43000000000029,81.93499999999995 30.63000000000011,82.37800000000004 30.63000000000011,82.90899999999999 C30.63000000000011,83.80499999999995 30.170000000000073,84.64300000000003 29.25,85.42499999999995 C28.31999999999971,86.20600000000002 27.3100000000004,86.596 26.23999999999978,86.596 C25.609999999999673,86.596 25.090000000000146,86.43499999999995 24.659999999999854,86.11199999999997 C24.25,85.75800000000004 24.050000000000182,85.31500000000005 24.050000000000182,84.78399999999999 C24.050000000000182,83.88800000000003 24.520000000000437,83.04999999999995 25.460000000000036,82.26800000000003 C26.36999999999989,81.48699999999997 27.36999999999989,81.096 28.4399999999996,81.096" />
<path d="M28.4399999999996,26.096000000000004 C29.06999999999971,26.096000000000004 29.600000000000364,26.258000000000038 30.039999999999964,26.581000000000017 C30.43000000000029,26.934999999999945 30.63000000000011,27.378000000000043 30.63000000000011,27.908999999999992 C30.63000000000011,28.80499999999995 30.170000000000073,29.64300000000003 29.25,30.424999999999955 C28.31999999999971,31.206000000000017 27.3100000000004,31.596000000000004 26.23999999999978,31.596000000000004 C25.609999999999673,31.596000000000004 25.090000000000146,31.434999999999945 24.659999999999854,31.111999999999966 C24.25,30.758000000000038 24.050000000000182,30.315000000000055 24.050000000000182,29.783999999999992 C24.050000000000182,28.888000000000034 24.520000000000437,28.049999999999955 25.460000000000036,27.26800000000003 C26.36999999999989,26.486999999999966 27.36999999999989,26.096000000000004 28.4399999999996,26.096000000000004" />
<path d="M63.26000000000022,103.75300000000004 L63.26000000000022,103.721 C63.279999999999745,103.70100000000002 63.30000000000018,103.66399999999999 63.31999999999971,103.61199999999997 C63.32999999999993,103.55999999999995 63.340000000000146,103.50300000000004 63.35999999999967,103.44000000000005 C63.529999999999745,102.92999999999995 63.80000000000018,102.42999999999995 64.17000000000007,101.94000000000005 C64.61999999999989,101.28399999999999 65.13000000000011,100.96100000000001 65.69999999999982,100.971 C65.9399999999996,100.971 66.13000000000011,101.07000000000005 66.26000000000022,101.26800000000003 C66.39000000000033,101.43499999999995 66.46000000000004,101.65899999999999 66.47999999999956,101.94000000000005 C66.90999999999985,101.28399999999999 67.39000000000033,100.96100000000001 67.93000000000029,100.971 C68.14000000000033,100.971 68.32999999999993,101.07000000000005 68.5,101.26800000000003 C68.64999999999964,101.47699999999998 68.73999999999978,101.71600000000001 68.76000000000022,101.98699999999997 C69.17000000000007,101.29999999999995 69.64000000000033,100.96100000000001 70.17000000000007,100.971 C70.44999999999982,100.971 70.71000000000004,101.09400000000005 70.9399999999996,101.33900000000006 C71.18000000000029,101.58299999999997 71.27999999999975,101.86699999999996 71.26000000000022,102.19000000000005 C71.26000000000022,102.23199999999997 71.25,102.32000000000005 71.22999999999956,102.45600000000002 L70.59000000000015,105.15899999999999 C70.56999999999971,105.17999999999995 70.5600000000004,105.20600000000002 70.56999999999971,105.23699999999997 C70.56999999999971,105.34100000000001 70.60999999999967,105.39300000000003 70.68000000000029,105.39300000000003 C70.8100000000004,105.39300000000003 71.01000000000022,105.28899999999999 71.28999999999996,105.08100000000002 L71.69999999999982,104.75300000000004 C71.77999999999975,104.75300000000004 71.81999999999971,104.78399999999999 71.81999999999971,104.846 C71.81999999999971,104.899 71.80000000000018,104.94000000000005 71.76000000000022,104.971 C71.17000000000007,105.53399999999999 70.77000000000044,105.88300000000004 70.56999999999971,106.01800000000003 C70.21000000000004,106.28899999999999 69.85999999999967,106.42499999999995 69.52999999999975,106.42499999999995 C69.31999999999971,106.42499999999995 69.18000000000029,106.36699999999996 69.10999999999967,106.25300000000004 C68.98999999999978,106.15899999999999 68.93000000000029,106.029 68.92000000000007,105.86199999999997 C68.92000000000007,105.79999999999995 68.93000000000029,105.73699999999997 68.94999999999982,105.67499999999995 L69.64000000000033,102.70600000000002 C69.65999999999985,102.62199999999996 69.67000000000007,102.53899999999999 69.68000000000029,102.45600000000002 C69.68000000000029,102.21600000000001 69.61999999999989,102.096 69.47999999999956,102.096 C69.3100000000004,102.096 69.15999999999985,102.16399999999999 69.01000000000022,102.29999999999995 C68.84000000000015,102.42499999999995 68.75,102.55999999999995 68.72999999999956,102.70600000000002 L67.72999999999956,106.15899999999999 C67.6899999999996,106.28399999999999 67.61999999999989,106.346 67.51000000000022,106.346 L66.46000000000004,106.346 C66.34000000000015,106.346 66.30000000000018,106.28399999999999 66.34000000000015,106.15899999999999 L67.3100000000004,102.70600000000002 C67.35000000000036,102.59100000000001 67.36999999999989,102.49199999999996 67.36999999999989,102.40899999999999 C67.36999999999989,102.20100000000002 67.28999999999996,102.096 67.14000000000033,102.096 C66.97000000000025,102.096 66.81999999999971,102.16399999999999 66.69999999999982,102.29999999999995 C66.55000000000018,102.404 66.44999999999982,102.53899999999999 66.39000000000033,102.70600000000002 L65.21000000000004,106.15899999999999 C65.17000000000007,106.28399999999999 65.09000000000015,106.346 64.97999999999956,106.346 L63.93000000000029,106.346 C63.81999999999971,106.346 63.789999999999964,106.28399999999999 63.840000000000146,106.15899999999999 L65.01000000000022,102.70600000000002 C65.05000000000018,102.55999999999995 65.06999999999971,102.46600000000001 65.06999999999971,102.42499999999995 C65.06999999999971,102.20600000000002 64.97999999999956,102.096 64.78999999999996,102.096 C64.53999999999996,102.096 64.31999999999971,102.26800000000003 64.11999999999989,102.61199999999997 C63.909999999999854,102.93499999999995 63.75,103.29399999999998 63.64000000000033,103.69000000000005 C63.590000000000146,103.80499999999995 63.51000000000022,103.86199999999997 63.39000000000033,103.86199999999997 C63.30000000000018,103.84100000000001 63.26000000000022,103.80499999999995 63.26000000000022,103.75300000000004 M75.47999999999956,101.26800000000003 L74.52999999999975,104.36199999999997 C74.1899999999996,105.47699999999998 73.64000000000033,106.55499999999995 72.85999999999967,107.596 C72.0600000000004,108.63800000000003 71.26000000000022,109.15899999999999 70.43000000000029,109.15899999999999 C70.01000000000022,109.15899999999999 69.63000000000011,109.04700000000003 69.30000000000018,108.82299999999998 C68.97000000000025,108.59900000000005 68.8100000000004,108.30999999999995 68.8100000000004,107.95600000000002 C68.8100000000004,107.54999999999995 68.89000000000033,107.20600000000002 69.0600000000004,106.92499999999995 C69.23999999999978,106.654 69.47999999999956,106.50800000000004 69.78999999999996,106.48699999999997 C70.02000000000044,106.48699999999997 70.21000000000004,106.57000000000005 70.36999999999989,106.73699999999997 C70.52999999999975,106.904 70.60999999999967,107.096 70.60999999999967,107.31500000000005 C70.60999999999967,107.51300000000003 70.48999999999978,107.69500000000005 70.26000000000022,107.86199999999997 C70.02000000000044,108.00800000000004 69.89999999999964,108.17499999999995 69.89000000000033,108.36199999999997 C69.89000000000033,108.48699999999997 70.02999999999975,108.54999999999995 70.3100000000004,108.54999999999995 L70.43000000000029,108.54999999999995 C70.5,108.54999999999995 70.59000000000015,108.53399999999999 70.71000000000004,108.50300000000004 C70.78999999999996,108.49199999999996 70.88000000000011,108.45100000000002 70.97999999999956,108.37800000000004 C70.97999999999956,108.37800000000004 71.03999999999996,108.32600000000002 71.17000000000007,108.221 C71.25,108.10699999999997 71.30000000000018,108.024 71.31999999999971,107.971 C71.36999999999989,107.86699999999996 71.39999999999964,107.78399999999999 71.43000000000029,107.721 C71.47999999999956,107.67999999999995 71.51000000000022,107.57600000000002 71.53999999999996,107.40899999999999 C71.5600000000004,107.36699999999996 71.57999999999993,107.32000000000005 71.59000000000015,107.26800000000003 C71.60000000000036,107.21600000000001 71.60999999999967,107.17999999999995 71.61999999999989,107.15899999999999 C71.63000000000011,107.13800000000003 71.64000000000033,107.12199999999996 71.64000000000033,107.11199999999997 C71.6899999999996,106.904 71.72999999999956,106.779 71.75,106.73699999999997 C71.78999999999996,106.529 71.8100000000004,106.42499999999995 71.8100000000004,106.42499999999995 L73.09000000000015,101.26800000000003 L72.10999999999967,101.26800000000003 C72.01000000000022,101.26800000000003 71.9399999999996,101.23699999999997 71.89999999999964,101.17499999999995 C71.85000000000036,101.09100000000001 71.81999999999971,101.01800000000003 71.81999999999971,100.95600000000002 C71.81999999999971,100.87199999999996 71.85000000000036,100.79999999999995 71.89999999999964,100.73699999999997 C71.98999999999978,100.67499999999995 72.05000000000018,100.64300000000003 72.10999999999967,100.64300000000003 L73.27999999999975,100.64300000000003 C73.60000000000036,99.66399999999999 74.14000000000033,98.82000000000005 74.89000000000033,98.11199999999997 C75.63000000000011,97.38300000000004 76.42000000000007,97.01800000000003 77.27999999999975,97.01800000000003 C77.73999999999978,97.01800000000003 78.11999999999989,97.13300000000004 78.42000000000007,97.36199999999997 C78.73999999999978,97.58100000000002 78.90999999999985,97.86699999999996 78.92000000000007,98.221 C78.92000000000007,98.60699999999997 78.82999999999993,98.95100000000002 78.67000000000007,99.25300000000004 C78.47000000000025,99.524 78.22999999999956,99.66399999999999 77.93000000000029,99.67499999999995 C77.69999999999982,99.67499999999995 77.51000000000022,99.59400000000005 77.35999999999967,99.43200000000002 C77.19999999999982,99.27099999999996 77.11999999999989,99.08100000000002 77.11999999999989,98.86199999999997 C77.11999999999989,98.67499999999995 77.23999999999978,98.50300000000004 77.47999999999956,98.346 C77.72000000000025,98.19000000000005 77.82999999999993,98.01300000000003 77.81999999999971,97.81500000000005 C77.81999999999971,97.66899999999998 77.6899999999996,97.60199999999998 77.42000000000007,97.61199999999997 L77.36999999999989,97.61199999999997 C77.34000000000015,97.63300000000004 77.3100000000004,97.63800000000003 77.27999999999975,97.62800000000004 C77.05000000000018,97.62800000000004 76.85999999999967,97.68499999999995 76.69999999999982,97.79999999999995 C76.53999999999996,97.904 76.39999999999964,98.09100000000001 76.26000000000022,98.36199999999997 C76.22000000000025,98.43499999999995 76.1899999999996,98.50800000000004 76.15999999999985,98.58100000000002 C76.13000000000011,98.654 76.10999999999967,98.73400000000004 76.06999999999971,98.82299999999998 C76.03999999999996,98.91200000000003 76.02000000000044,98.971 76.0,99.00300000000004 C75.98999999999978,99.06500000000005 75.96000000000004,99.19500000000005 75.93000000000029,99.39300000000003 C75.89000000000033,99.58100000000002 75.85999999999967,99.74199999999996 75.81999999999971,99.87800000000004 C75.73999999999978,100.274 75.68000000000029,100.529 75.64999999999964,100.64300000000003 L76.72999999999956,100.64300000000003 C76.8100000000004,100.64300000000003 76.89000000000033,100.67200000000003 76.96000000000004,100.72900000000004 C77.02000000000044,100.78700000000003 77.0600000000004,100.85900000000004 77.0600000000004,100.94799999999998 C77.0600000000004,101.03700000000003 77.02000000000044,101.11199999999997 76.96000000000004,101.17499999999995 C76.89000000000033,101.23699999999997 76.8100000000004,101.26800000000003 76.72999999999956,101.26800000000003 L75.47999999999956,101.26800000000003" />
<path d="M35.779999999999745,103.75300000000004 L35.779999999999745,103.721 C35.80000000000018,103.70100000000002 35.81999999999971,103.66399999999999 35.840000000000146,103.61199999999997 C35.850000000000364,103.55999999999995 35.85999999999967,103.50300000000004 35.88000000000011,103.44000000000005 C36.05000000000018,102.92999999999995 36.31999999999971,102.42999999999995 36.6899999999996,101.94000000000005 C37.14000000000033,101.28399999999999 37.649999999999636,100.96100000000001 38.220000000000255,100.971 C38.460000000000036,100.971 38.649999999999636,101.07000000000005 38.779999999999745,101.26800000000003 C38.909999999999854,101.43499999999995 38.97999999999956,101.65899999999999 39.0,101.94000000000005 C39.43000000000029,101.28399999999999 39.909999999999854,100.96100000000001 40.44999999999982,100.971 C40.659999999999854,100.971 40.850000000000364,101.07000000000005 41.02000000000044,101.26800000000003 C41.17000000000007,101.47699999999998 41.26000000000022,101.71600000000001 41.279999999999745,101.98699999999997 C41.6899999999996,101.29999999999995 42.159999999999854,100.96100000000001 42.6899999999996,100.971 C42.970000000000255,100.971 43.22999999999956,101.09400000000005 43.460000000000036,101.33900000000006 C43.69999999999982,101.58299999999997 43.80000000000018,101.86699999999996 43.779999999999745,102.19000000000005 C43.779999999999745,102.23199999999997 43.77000000000044,102.32000000000005 43.75,102.45600000000002 L43.10999999999967,105.15899999999999 C43.090000000000146,105.17999999999995 43.07999999999993,105.20600000000002 43.090000000000146,105.23699999999997 C43.090000000000146,105.34100000000001 43.13000000000011,105.39300000000003 43.19999999999982,105.39300000000003 C43.32999999999993,105.39300000000003 43.529999999999745,105.28899999999999 43.8100000000004,105.08100000000002 L44.220000000000255,104.75300000000004 C44.30000000000018,104.75300000000004 44.340000000000146,104.78399999999999 44.340000000000146,104.846 C44.340000000000146,104.899 44.31999999999971,104.94000000000005 44.279999999999745,104.971 C43.6899999999996,105.53399999999999 43.289999999999964,105.88300000000004 43.090000000000146,106.01800000000003 C42.72999999999956,106.28899999999999 42.38000000000011,106.42499999999995 42.05000000000018,106.42499999999995 C41.840000000000146,106.42499999999995 41.69999999999982,106.36699999999996 41.63000000000011,106.25300000000004 C41.51000000000022,106.15899999999999 41.44999999999982,106.029 41.4399999999996,105.86199999999997 C41.4399999999996,105.79999999999995 41.44999999999982,105.73699999999997 41.470000000000255,105.67499999999995 L42.159999999999854,102.70600000000002 C42.18000000000029,102.62199999999996 42.1899999999996,102.53899999999999 42.19999999999982,102.45600000000002 C42.19999999999982,102.21600000000001 42.14000000000033,102.096 42.0,102.096 C41.82999999999993,102.096 41.68000000000029,102.16399999999999 41.529999999999745,102.29999999999995 C41.35999999999967,102.42499999999995 41.27000000000044,102.55999999999995 41.25,102.70600000000002 L40.25,106.15899999999999 C40.210000000000036,106.28399999999999 40.14000000000033,106.346 40.029999999999745,106.346 L38.97999999999956,106.346 C38.85999999999967,106.346 38.81999999999971,106.28399999999999 38.85999999999967,106.15899999999999 L39.82999999999993,102.70600000000002 C39.86999999999989,102.59100000000001 39.89000000000033,102.49199999999996 39.89000000000033,102.40899999999999 C39.89000000000033,102.20100000000002 39.8100000000004,102.096 39.659999999999854,102.096 C39.48999999999978,102.096 39.340000000000146,102.16399999999999 39.220000000000255,102.29999999999995 C39.06999999999971,102.404 38.970000000000255,102.53899999999999 38.909999999999854,102.70600000000002 L37.72999999999956,106.15899999999999 C37.6899999999996,106.28399999999999 37.60999999999967,106.346 37.5,106.346 L36.44999999999982,106.346 C36.340000000000146,106.346 36.3100000000004,106.28399999999999 36.35999999999967,106.15899999999999 L37.529999999999745,102.70600000000002 C37.56999999999971,102.55999999999995 37.590000000000146,102.46600000000001 37.590000000000146,102.42499999999995 C37.590000000000146,102.20600000000002 37.5,102.096 37.3100000000004,102.096 C37.0600000000004,102.096 36.840000000000146,102.26800000000003 36.64000000000033,102.61199999999997 C36.43000000000029,102.93499999999995 36.27000000000044,103.29399999999998 36.159999999999854,103.69000000000005 C36.10999999999967,103.80499999999995 36.029999999999745,103.86199999999997 35.909999999999854,103.86199999999997 C35.81999999999971,103.84100000000001 35.779999999999745,103.80499999999995 35.779999999999745,103.75300000000004 M49.64000000000033,101.81500000000005 C49.289999999999964,101.81500000000005 48.970000000000255,102.00300000000004 48.6899999999996,102.37800000000004 C48.39000000000033,102.774 48.159999999999854,103.21100000000001 48.0,103.69000000000005 C47.840000000000146,104.149 47.77000000000044,104.54999999999995 47.779999999999745,104.89300000000003 C47.779999999999745,105.38300000000004 47.960000000000036,105.62800000000004 48.32999999999993,105.62800000000004 C48.649999999999636,105.62800000000004 48.93000000000029,105.50300000000004 49.159999999999854,105.25300000000004 C49.42000000000007,104.98199999999997 49.64000000000033,104.51300000000003 49.8100000000004,103.846 C50.0,103.15899999999999 50.090000000000146,102.67999999999995 50.090000000000146,102.40899999999999 C50.07999999999993,102.01300000000003 49.93000000000029,101.81500000000005 49.64000000000033,101.81500000000005 M46.720000000000255,100.89300000000003 C47.039999999999964,100.89300000000003 47.32999999999993,100.97900000000004 47.56999999999971,101.15099999999995 C47.81999999999971,101.32299999999998 47.970000000000255,101.55499999999995 48.029999999999745,101.846 C48.289999999999964,101.56500000000005 48.600000000000364,101.33600000000001 48.94999999999982,101.15899999999999 C49.3100000000004,100.98199999999997 49.64000000000033,100.89300000000003 49.9399999999996,100.89300000000003 C50.5600000000004,100.89300000000003 51.05000000000018,101.08600000000001 51.39000000000033,101.471 C51.720000000000255,101.87800000000004 51.89000000000033,102.38800000000003 51.89000000000033,103.00300000000004 C51.89000000000033,104.024 51.529999999999745,104.85699999999997 50.8100000000004,105.50300000000004 C50.159999999999854,106.05499999999995 49.5600000000004,106.33100000000002 49.029999999999745,106.33100000000002 C48.710000000000036,106.33100000000002 48.44999999999982,106.29999999999995 48.25,106.23699999999997 C48.0,106.17499999999995 47.82999999999993,106.11699999999996 47.75,106.06500000000005 C47.64000000000033,105.99199999999996 47.539999999999964,105.95600000000002 47.470000000000255,105.95600000000002 C47.30000000000018,105.95600000000002 47.1899999999996,106.024 47.14000000000033,106.15899999999999 L46.4399999999996,108.28399999999999 L46.4399999999996,108.37800000000004 C46.4399999999996,108.50300000000004 46.529999999999745,108.57600000000002 46.720000000000255,108.596 C46.779999999999745,108.60699999999997 46.88000000000011,108.61699999999996 47.01000000000022,108.62800000000004 C47.14000000000033,108.63800000000003 47.23999999999978,108.64300000000003 47.3100000000004,108.64300000000003 C47.5,108.67499999999995 47.590000000000146,108.72699999999998 47.590000000000146,108.79999999999995 C47.590000000000146,108.904 47.55000000000018,108.95600000000002 47.44999999999982,108.95600000000002 C46.31999999999971,108.88300000000004 45.57999999999993,108.846 45.25,108.846 C44.89000000000033,108.846 44.14000000000033,108.88300000000004 43.0,108.95600000000002 C42.899999999999636,108.95600000000002 42.850000000000364,108.904 42.88000000000011,108.79999999999995 C42.88000000000011,108.72699999999998 42.960000000000036,108.67499999999995 43.13000000000011,108.64300000000003 C43.19999999999982,108.62199999999996 43.529999999999745,108.61199999999997 44.13000000000011,108.61199999999997 C44.399999999999636,108.61199999999997 44.5600000000004,108.529 44.60999999999967,108.36199999999997 L46.659999999999854,102.44000000000005 C46.6899999999996,102.32600000000002 46.710000000000036,102.22699999999998 46.720000000000255,102.14300000000003 C46.720000000000255,101.91399999999999 46.60999999999967,101.80499999999995 46.409999999999854,101.81500000000005 C46.10999999999967,101.81500000000005 45.8100000000004,102.00300000000004 45.47999999999956,102.37800000000004 C45.17000000000007,102.73199999999997 44.92000000000007,103.13300000000004 44.72999999999956,103.58100000000002 C44.68000000000029,103.68499999999995 44.600000000000364,103.74199999999996 44.47999999999956,103.75300000000004 C44.39000000000033,103.75300000000004 44.340000000000146,103.71600000000001 44.340000000000146,103.64300000000003 C44.340000000000146,103.53899999999999 44.38000000000011,103.44000000000005 44.4399999999996,103.346 C44.69999999999982,102.79399999999998 44.970000000000255,102.29399999999998 45.25,101.846 C45.42000000000007,101.596 45.64000000000033,101.37800000000004 45.909999999999854,101.19000000000005 C46.159999999999854,100.99199999999996 46.43000000000029,100.89300000000003 46.720000000000255,100.89300000000003" />
<path d="M231.01000000000022,42.596000000000004 L275.4300000000003,42.596000000000004 L275.4300000000003,45.096000000000004 L231.01000000000022,45.096000000000004 L231.01000000000022,42.596000000000004" />
<path d="M177.14999999999964,96.346 L258.60000000000036,96.346 L258.60000000000036,98.846 L177.14999999999964,98.846 L177.14999999999964,96.346" />
<path d="M183.09000000000015,12.596000000000004 L210.67000000000007,12.596000000000004 L210.67000000000007,15.096000000000004 L183.09000000000015,15.096000000000004 L183.09000000000015,12.596000000000004" />
<path d="M69.43000000000029,98.846 L150.8699999999999,91.28599999999994 L150.8699999999999,93.78599999999994 L69.43000000000029,101.346 L69.43000000000029,98.846" />
<path d="M75.35999999999967,11.346000000000004 L156.80000000000018,11.346000000000004 L156.80000000000018,13.846000000000004 L75.35999999999967,13.846000000000004 L75.35999999999967,11.346000000000004" />
<path d="M24.050000000000182,95.096 L42.82999999999993,95.096 L42.82999999999993,97.596 L24.050000000000182,97.596 L24.050000000000182,95.096" />
<path d="M0.9799999999995634,12.596000000000004 L48.77000000000044,12.596000000000004 L48.77000000000044,15.096000000000004 L0.9799999999995634,15.096000000000004 L0.9799999999995634,12.596000000000004" />
<path d="M29.979999999999563,16.346000000000004 L48.77000000000044,16.346000000000004 L48.77000000000044,18.846000000000004 L29.979999999999563,18.846000000000004 L29.979999999999563,16.346000000000004" />
<polyline points="0.0,13.846000000000004 255.0,13.846000000000004" fill="none" stroke="#000000" stroke-width="0.40" />
<polyline points="0.0,18.846000000000004 255.0,18.846000000000004" fill="none" stroke="#000000" stroke-width="0.40" />
<polyline points="0.0,23.846000000000004 255.0,23.846000000000004" fill="none" stroke="#000000" stroke-width="0.40" />
<polyline points="0.0,28.846000000000004 255.0,28.846000000000004" fill="none" stroke="#000000" stroke-width="0.40" />
<polyline points="0.0,33.846000000000004 255.0,33.846000000000004" fill="none" stroke="#000000" stroke-width="0.40" />
<polyline points="0.0,66.346 255.0,66.346" fill="none" stroke="#000000" stroke-width="0.40" />
<polyline points="0.0,71.346 255.0,71.346" fill="none" stroke="#000000" stroke-width="0.40" />
<polyline points="0.0,76.346 255.0,76.346" fill="none" stroke="#000000" stroke-width="0.40" />
<polyline points="0.0,81.346 255.0,81.346" fill="none" stroke="#000000" stroke-width="0.40" />
<polyline points="0.0,86.346 255.0,86.346" fill="none" stroke="#000000" stroke-width="0.40" />
<polyline points="60.710000000000036,66.346 60.710000000000036,86.346" fill="" stroke="#000000" stroke-width="0.80" />
<polyline points="60.710000000000036,13.846000000000004 60.710000000000036,33.846000000000004" fill="" stroke="#000000" stroke-width="0.80" />
<polyline points="231.34000000000015,65.90999999999997 231.34000000000015,97.596" fill="" stroke="#000000" stroke-width="0.65" />
<polyline points="231.34000000000015,29.785999999999945 231.34000000000015,43.846000000000004" fill="" stroke="#000000" stroke-width="0.65" />
<polyline points="204.40999999999985,65.90999999999997 204.40999999999985,97.596" fill="" stroke="#000000" stroke-width="0.65" />
<polyline points="210.34000000000015,27.90700000000004 210.34000000000015,13.846000000000004" fill="" stroke="#000000" stroke-width="0.65" />
<polyline points="177.47999999999956,65.90999999999997 177.47999999999956,97.596" fill="" stroke="#000000" stroke-width="0.65" />
<polyline points="183.40999999999985,27.90700000000004 183.40999999999985,13.846000000000004" fill="" stroke="#000000" stroke-width="0.65" />
<polyline points="150.55000000000018,65.90999999999997 150.55000000000018,92.596" fill="" stroke="#000000" stroke-width="0.65" />
<polyline points="156.47999999999956,32.90700000000004 156.47999999999956,12.596000000000004" fill="" stroke="#000000" stroke-width="0.65" />
<polyline points="123.61999999999989,65.90999999999997 123.61999999999989,95.096" fill="" stroke="#000000" stroke-width="0.65" />
<polyline points="129.55000000000018,25.40700000000004 129.55000000000018,12.596000000000004" fill="" stroke="#000000" stroke-width="0.65" />
<polyline points="96.68000000000029,65.90999999999997 96.68000000000029,97.596" fill="" stroke="#000000" stroke-width="0.65" />
<polyline points="102.61999999999989,25.40700000000004 102.61999999999989,12.596000000000004" fill="" stroke="#000000" stroke-width="0.65" />
<polyline points="69.75,65.90999999999997 69.75,100.096" fill="" stroke="#000000" stroke-width="0.65" />
<polyline points="75.6899999999996,25.40700000000004 75.6899999999996,12.596000000000004" fill="" stroke="#000000" stroke-width="0.65" />
<polyline points="42.51000000000022,74.78599999999994 42.51000000000022,100.096" fill="" stroke="#000000" stroke-width="0.65" />
<polyline points="48.4399999999996,27.90700000000004 48.4399999999996,13.846000000000004" fill="" stroke="#000000" stroke-width="0.65" />
<polyline points="24.38000000000011,65.90999999999997 24.38000000000011,100.096" fill="" stroke="#000000" stroke-width="0.65" />
<polyline points="30.3100000000004,27.90700000000004 30.3100000000004,13.846000000000004" fill="" stroke="#000000" stroke-width="0.65" />
<polyline points="1.300000000000182,27.90700000000004 1.300000000000182,13.846000000000004" fill="" stroke="#000000" stroke-width="0.65" />
</svg>
