<?xml version="1.0" encoding="UTF-8" standalone="yes"?>
<svg width="256.0px" height="256.0px" xmlns="http://www.w3.org/2000/svg" xmlns:xlink="http://www.w3.org/1999/xlink" version="1.2" baseProfile="tiny">
<path d="M226.0,217.518 L226.0,219.065 C226.0,219.617 226.10000000000036,220.055 226.10000000000036,220.378 C226.5,220.013 226.79999999999927,219.742 227.0,219.565 C227.20000000000073,219.357 227.39999999999964,219.068 227.70000000000073,218.698 C227.89999999999964,218.328 228.0,217.961 228.0,217.596 C228.0,217.232 227.89999999999964,216.919 227.70000000000073,216.659 C227.60000000000036,216.399 227.39999999999964,216.268 227.10000000000036,216.268 C226.79999999999927,216.268 226.5,216.388 226.29999999999927,216.628 C226.10000000000036,216.888 226.0,217.185 226.0,217.518 M225.20000000000073,221.096 L225.0,209.206 C225.10000000000036,209.102 225.29999999999927,209.05 225.5,209.05 C225.70000000000073,209.05 225.89999999999964,209.102 226.0,209.206 L225.89999999999964,216.096 C226.39999999999964,215.638 227.0,215.409 227.70000000000073,215.409 C228.20000000000073,215.409 228.70000000000073,215.617 229.0,216.034 C229.29999999999927,216.451 229.5,216.93 229.5,217.471 C229.5,217.805 229.39999999999964,218.164 229.20000000000073,218.55 C229.0,218.893 228.70000000000073,219.164 228.5,219.362 C228.39999999999964,219.466 228.0,219.727 227.5,220.143 C227.39999999999964,220.258 227.20000000000073,220.393 227.0,220.55 C226.70000000000073,220.706 226.60000000000036,220.805 226.60000000000036,220.846 C226.5,220.899 226.39999999999964,221.003 226.29999999999927,221.159 C226.20000000000073,221.294 226.10000000000036,221.404 226.0,221.487 C225.89999999999964,221.57 225.79999999999927,221.612 225.70000000000073,221.612 C225.5,221.612 225.39999999999964,221.565 225.29999999999927,221.471 C225.20000000000073,221.378 225.20000000000073,221.253 225.20000000000073,221.096" />
<path d="M160.5,235.018 L160.5,236.565 C160.5,237.117 160.5,237.555 160.60000000000036,237.878 C161.0,237.513 161.29999999999927,237.242 161.5,237.065 C161.70000000000073,236.857 161.89999999999964,236.568 162.10000000000036,236.198 C162.29999999999927,235.828 162.39999999999964,235.461 162.39999999999964,235.096 C162.39999999999964,234.732 162.29999999999927,234.419 162.20000000000073,234.159 C162.0,233.899 161.79999999999927,233.768 161.60000000000036,233.768 C161.20000000000073,233.768 161.0,233.888 160.79999999999927,234.128 C160.60000000000036,234.388 160.5,234.685 160.5,235.018 M159.60000000000036,238.596 L159.39999999999964,226.706 C159.60000000000036,226.602 159.79999999999927,226.55 160.0,226.55 C160.10000000000036,226.55 160.29999999999927,226.602 160.5,226.706 L160.29999999999927,233.596 C160.89999999999964,233.138 161.5,232.909 162.20000000000073,232.909 C162.70000000000073,232.909 163.10000000000036,233.117 163.39999999999964,233.534 C163.79999999999927,233.951 163.89999999999964,234.43 163.89999999999964,234.971 C163.89999999999964,235.305 163.79999999999927,235.664 163.60000000000036,236.05 C163.39999999999964,236.393 163.20000000000073,236.664 163.0,236.862 C162.79999999999927,236.966 162.5,237.227 162.0,237.643 C161.79999999999927,237.758 161.60000000000036,237.893 161.39999999999964,238.05 C161.20000000000073,238.206 161.10000000000036,238.305 161.0,238.346 C160.89999999999964,238.399 160.79999999999927,238.503 160.70000000000073,238.659 C160.70000000000073,238.794 160.60000000000036,238.904 160.39999999999964,238.987 C160.29999999999927,239.07 160.20000000000073,239.112 160.10000000000036,239.112 C160.0,239.112 159.89999999999964,239.065 159.79999999999927,238.971 C159.70000000000073,238.878 159.60000000000036,238.753 159.60000000000036,238.596" />
<path d="M161.79999999999927,207.081 C161.79999999999927,207.331 161.70000000000073,207.456 161.39999999999964,207.456 C161.20000000000073,207.456 161.10000000000036,207.331 161.10000000000036,207.081 L161.10000000000036,204.19 L159.39999999999964,204.815 L159.39999999999964,207.971 C159.39999999999964,208.221 159.29999999999927,208.346 159.0,208.346 C158.79999999999927,208.346 158.70000000000073,208.221 158.70000000000073,207.971 L158.70000000000073,205.065 L158.0,205.3 C158.0,205.31 158.0,205.315 157.89999999999964,205.315 C157.79999999999927,205.315 157.70000000000073,205.276 157.60000000000036,205.198 C157.5,205.12 157.5,205.029 157.5,204.925 L157.5,203.721 C157.5,203.524 157.60000000000036,203.399 157.70000000000073,203.346 L158.70000000000073,203.034 L158.70000000000073,199.831 L158.0,200.05 C158.0,200.06 158.0,200.065 157.89999999999964,200.065 C157.79999999999927,200.065 157.70000000000073,200.026 157.60000000000036,199.948 C157.5,199.87 157.5,199.779 157.5,199.675 L157.5,198.456 C157.5,198.279 157.60000000000036,198.164 157.70000000000073,198.112 L158.70000000000073,197.753 L158.70000000000073,194.612 C158.70000000000073,194.362 158.79999999999927,194.237 159.0,194.237 C159.29999999999927,194.237 159.39999999999964,194.362 159.39999999999964,194.612 L159.39999999999964,197.503 L161.10000000000036,196.878 L161.10000000000036,193.721 C161.10000000000036,193.471 161.20000000000073,193.346 161.39999999999964,193.346 C161.70000000000073,193.346 161.79999999999927,193.471 161.79999999999927,193.721 L161.79999999999927,196.628 L162.5,196.393 C162.5,196.383 162.5,196.378 162.60000000000036,196.378 C162.70000000000073,196.378 162.79999999999927,196.414 162.89999999999964,196.487 C163.0,196.57 163.0,196.664 163.0,196.768 L163.0,197.971 C163.0,198.159 162.89999999999964,198.284 162.70000000000073,198.346 L161.79999999999927,198.659 L161.79999999999927,201.862 L162.5,201.643 C162.5,201.633 162.5,201.628 162.60000000000036,201.628 C162.70000000000073,201.628 162.79999999999927,201.669 162.89999999999964,201.753 C163.0,201.826 163.0,201.914 163.0,202.018 L163.0,203.237 C163.0,203.404 162.89999999999964,203.518 162.70000000000073,203.581 L161.79999999999927,203.94 L161.79999999999927,207.081 M161.10000000000036,198.956 L159.39999999999964,199.534 L159.39999999999964,202.737 L161.10000000000036,202.159 L161.10000000000036,198.956" />
<path d="M64.5,232.081 C64.5,232.331 64.29999999999927,232.456 64.10000000000036,232.456 C63.899999999999636,232.456 63.70000000000073,232.331 63.70000000000073,232.081 L63.70000000000073,229.19 L62.100000000000364,229.815 L62.100000000000364,232.971 C62.100000000000364,233.221 62.0,233.346 61.70000000000073,233.346 C61.5,233.346 61.29999999999927,233.221 61.29999999999927,232.971 L61.29999999999927,230.065 L60.70000000000073,230.3 C60.70000000000073,230.31 60.600000000000364,230.315 60.5,230.315 C60.399999999999636,230.315 60.399999999999636,230.276 60.29999999999927,230.198 C60.20000000000073,230.12 60.20000000000073,230.029 60.20000000000073,229.925 L60.20000000000073,228.721 C60.20000000000073,228.524 60.20000000000073,228.399 60.399999999999636,228.346 L61.29999999999927,228.034 L61.29999999999927,224.831 L60.70000000000073,225.05 C60.70000000000073,225.06 60.600000000000364,225.065 60.5,225.065 C60.399999999999636,225.065 60.399999999999636,225.026 60.29999999999927,224.948 C60.20000000000073,224.87 60.20000000000073,224.779 60.20000000000073,224.675 L60.20000000000073,223.456 C60.20000000000073,223.279 60.20000000000073,223.164 60.399999999999636,223.112 L61.29999999999927,222.753 L61.29999999999927,219.612 C61.29999999999927,219.362 61.5,219.237 61.70000000000073,219.237 C62.0,219.237 62.100000000000364,219.362 62.100000000000364,219.612 L62.100000000000364,222.503 L63.70000000000073,221.878 L63.70000000000073,218.721 C63.70000000000073,218.471 63.899999999999636,218.346 64.10000000000036,218.346 C64.29999999999927,218.346 64.5,218.471 64.5,218.721 L64.5,221.628 L65.10000000000036,221.393 C65.10000000000036,221.383 65.20000000000073,221.378 65.20000000000073,221.378 C65.29999999999927,221.378 65.39999999999964,221.414 65.5,221.487 C65.60000000000036,221.57 65.70000000000073,221.664 65.70000000000073,221.768 L65.70000000000073,222.971 C65.70000000000073,223.159 65.60000000000036,223.284 65.39999999999964,223.346 L64.5,223.659 L64.5,226.862 L65.10000000000036,226.643 C65.10000000000036,226.633 65.20000000000073,226.628 65.20000000000073,226.628 C65.29999999999927,226.628 65.39999999999964,226.669 65.5,226.753 C65.60000000000036,226.826 65.70000000000073,226.914 65.70000000000073,227.018 L65.70000000000073,228.237 C65.70000000000073,228.404 65.60000000000036,228.518 65.39999999999964,228.581 L64.5,228.94 L64.5,232.081 M63.70000000000073,223.956 L62.100000000000364,224.534 L62.100000000000364,227.737 L63.70000000000073,227.159 L63.70000000000073,223.956" />
<path d="M235.0,215.596 C235.70000000000073,215.596 236.20000000000073,215.758 236.60000000000036,216.081 C237.0,216.435 237.20000000000073,216.878 237.20000000000073,217.409 C237.20000000000073,218.305 236.79999999999927,219.143 235.79999999999927,219.925 C234.89999999999964,220.706 233.89999999999964,221.096 232.79999999999927,221.096 C232.20000000000073,221.096 231.70000000000073,220.935 231.29999999999927,220.612 C230.79999999999927,220.258 230.60000000000036,219.815 230.60000000000036,219.284 C230.60000000000036,218.388 231.10000000000036,217.55 232.0,216.768 C233.0,215.987 234.0,215.596 235.0,215.596" />
<path d="M235.0,168.096 C235.70000000000073,168.096 236.20000000000073,168.258 236.60000000000036,168.581 C237.0,168.935 237.20000000000073,169.378 237.20000000000073,169.909 C237.20000000000073,170.805 236.79999999999927,171.643 235.79999999999927,172.425 C234.89999999999964,173.206 233.89999999999964,173.596 232.79999999999927,173.596 C232.20000000000073,173.596 231.70000000000073,173.435 231.29999999999927,173.112 C230.79999999999927,172.758 230.60000000000036,172.315 230.60000000000036,171.784 C230.60000000000036,170.888 231.10000000000036,170.05 232.0,169.268 C233.0,168.487 234.0,168.096 235.0,168.096" />
<path d="M235.0,175.596 C235.70000000000073,175.596 236.20000000000073,175.758 236.60000000000036,176.081 C237.0,176.435 237.20000000000073,176.878 237.20000000000073,177.409 C237.20000000000073,178.305 236.79999999999927,179.143 235.79999999999927,179.925 C234.89999999999964,180.706 233.89999999999964,181.096 232.79999999999927,181.096 C232.20000000000073,181.096 231.70000000000073,180.935 231.29999999999927,180.612 C230.79999999999927,180.258 230.60000000000036,179.815 230.60000000000036,179.284 C230.60000000000036,178.388 231.10000000000036,177.55 232.0,176.768 C233.0,175.987 234.0,175.596 235.0,175.596" />
<path d="M235.0,180.596 C235.70000000000073,180.596 236.20000000000073,180.758 236.60000000000036,181.081 C237.0,181.435 237.20000000000073,181.878 237.20000000000073,182.409 C237.20000000000073,183.305 236.79999999999927,184.143 235.79999999999927,184.925 C234.89999999999964,185.706 233.89999999999964,186.096 232.79999999999927,186.096 C232.20000000000073,186.096 231.70000000000073,185.935 231.29999999999927,185.612 C230.79999999999927,185.258 230.60000000000036,184.815 230.60000000000036,184.284 C230.60000000000036,183.388 231.10000000000036,182.55 232.0,181.768 C233.0,180.987 234.0,180.596 235.0,180.596" />
<path d="M233.89999999999964,200.128 L236.29999999999927,198.175 C236.39999999999964,198.122 236.5,198.096 236.5,198.096 C236.60000000000036,198.096 236.70000000000073,198.122 236.70000000000073,198.175 L237.10000000000036,198.487 C237.20000000000073,198.55 237.20000000000073,198.628 237.20000000000073,198.721 C237.20000000000073,198.784 237.20000000000073,198.862 237.10000000000036,198.956 L234.79999999999927,200.846 L237.10000000000036,202.737 C237.20000000000073,202.81 237.20000000000073,202.891 237.20000000000073,202.979 C237.20000000000073,203.068 237.20000000000073,203.143 237.10000000000036,203.206 L236.70000000000073,203.518 C236.70000000000073,203.57 236.60000000000036,203.596 236.5,203.596 C236.5,203.596 236.39999999999964,203.57 236.29999999999927,203.518 L233.89999999999964,201.565 L231.5,203.518 C231.5,203.57 231.39999999999964,203.596 231.29999999999927,203.596 C231.29999999999927,203.596 231.20000000000073,203.57 231.20000000000073,203.518 L230.70000000000073,203.206 C230.70000000000073,203.143 230.60000000000036,203.065 230.60000000000036,202.971 C230.60000000000036,202.909 230.70000000000073,202.831 230.70000000000073,202.737 L233.10000000000036,200.846 L230.70000000000073,198.956 C230.70000000000073,198.883 230.60000000000036,198.802 230.60000000000036,198.714 C230.60000000000036,198.625 230.70000000000073,198.55 230.70000000000073,198.487 L231.20000000000073,198.175 C231.20000000000073,198.122 231.29999999999927,198.096 231.29999999999927,198.096 C231.39999999999964,198.096 231.5,198.122 231.5,198.175 L233.89999999999964,200.128" />
<path d="M202.29999999999927,168.096 C202.89999999999964,168.096 203.39999999999964,168.258 203.89999999999964,168.581 C204.20000000000073,168.935 204.39999999999964,169.378 204.39999999999964,169.909 C204.39999999999964,170.805 204.0,171.643 203.10000000000036,172.425 C202.10000000000036,173.206 201.10000000000036,173.596 200.10000000000036,173.596 C199.39999999999964,173.596 198.89999999999964,173.435 198.5,173.112 C198.10000000000036,172.758 197.89999999999964,172.315 197.89999999999964,171.784 C197.89999999999964,170.888 198.29999999999927,170.05 199.29999999999927,169.268 C200.20000000000073,168.487 201.20000000000073,168.096 202.29999999999927,168.096" />
<path d="M202.29999999999927,175.596 C202.89999999999964,175.596 203.39999999999964,175.758 203.89999999999964,176.081 C204.20000000000073,176.435 204.39999999999964,176.878 204.39999999999964,177.409 C204.39999999999964,178.305 204.0,179.143 203.10000000000036,179.925 C202.10000000000036,180.706 201.10000000000036,181.096 200.10000000000036,181.096 C199.39999999999964,181.096 198.89999999999964,180.935 198.5,180.612 C198.10000000000036,180.258 197.89999999999964,179.815 197.89999999999964,179.284 C197.89999999999964,178.388 198.29999999999927,177.55 199.29999999999927,176.768 C200.20000000000073,175.987 201.20000000000073,175.596 202.29999999999927,175.596" />
<path d="M202.29999999999927,180.596 C202.89999999999964,180.596 203.39999999999964,180.758 203.89999999999964,181.081 C204.20000000000073,181.435 204.39999999999964,181.878 204.39999999999964,182.409 C204.39999999999964,183.305 204.0,184.143 203.10000000000036,184.925 C202.10000000000036,185.706 201.10000000000036,186.096 200.10000000000036,186.096 C199.39999999999964,186.096 198.89999999999964,185.935 198.5,185.612 C198.10000000000036,185.258 197.89999999999964,184.815 197.89999999999964,184.284 C197.89999999999964,183.388 198.29999999999927,182.55 199.29999999999927,181.768 C200.20000000000073,180.987 201.20000000000073,180.596 202.29999999999927,180.596" />
<path d="M201.20000000000073,200.128 L203.60000000000036,198.175 C203.60000000000036,198.122 203.70000000000073,198.096 203.70000000000073,198.096 C203.79999999999927,198.096 203.89999999999964,198.122 203.89999999999964,198.175 L204.39999999999964,198.487 C204.39999999999964,198.55 204.39999999999964,198.628 204.39999999999964,198.721 C204.39999999999964,198.784 204.39999999999964,198.862 204.39999999999964,198.956 L202.0,200.846 L204.39999999999964,202.737 C204.39999999999964,202.81 204.39999999999964,202.891 204.39999999999964,202.979 C204.39999999999964,203.068 204.39999999999964,203.143 204.39999999999964,203.206 L203.89999999999964,203.518 C203.89999999999964,203.57 203.79999999999927,203.596 203.70000000000073,203.596 C203.70000000000073,203.596 203.60000000000036,203.57 203.60000000000036,203.518 L201.20000000000073,201.565 L198.70000000000073,203.518 C198.70000000000073,203.57 198.60000000000036,203.596 198.60000000000036,203.596 C198.5,203.596 198.39999999999964,203.57 198.39999999999964,203.518 L198.0,203.206 C197.89999999999964,203.143 197.89999999999964,203.065 197.89999999999964,202.971 C197.89999999999964,202.909 197.89999999999964,202.831 198.0,202.737 L200.29999999999927,200.846 L198.0,198.956 C197.89999999999964,198.883 197.89999999999964,198.802 197.89999999999964,198.714 C197.89999999999964,198.625 197.89999999999964,198.55 198.0,198.487 L198.39999999999964,198.175 C198.39999999999964,198.122 198.5,198.096 198.60000000000036,198.096 C198.60000000000036,198.096 198.70000000000073,198.122 198.70000000000073,198.175 L201.20000000000073,200.128" />
<path d="M169.5,233.096 C170.10000000000036,233.096 170.60000000000036,233.258 171.10000000000036,233.581 C171.5,233.935 171.70000000000073,234.378 171.70000000000073,234.909 C171.70000000000073,235.805 171.20000000000073,236.643 170.29999999999927,237.425 C169.39999999999964,238.206 168.39999999999964,238.596 167.29999999999927,238.596 C166.70000000000073,238.596 166.10000000000036,238.435 165.70000000000073,238.112 C165.29999999999927,237.758 165.10000000000036,237.315 165.10000000000036,236.784 C165.10000000000036,235.888 165.60000000000036,235.05 166.5,234.268 C167.39999999999964,233.487 168.39999999999964,233.096 169.5,233.096" />
<path d="M169.5,168.096 C170.10000000000036,168.096 170.60000000000036,168.258 171.10000000000036,168.581 C171.5,168.935 171.70000000000073,169.378 171.70000000000073,169.909 C171.70000000000073,170.805 171.20000000000073,171.643 170.29999999999927,172.425 C169.39999999999964,173.206 168.39999999999964,173.596 167.29999999999927,173.596 C166.70000000000073,173.596 166.10000000000036,173.435 165.70000000000073,173.112 C165.29999999999927,172.758 165.10000000000036,172.315 165.10000000000036,171.784 C165.10000000000036,170.888 165.60000000000036,170.05 166.5,169.268 C167.39999999999964,168.487 168.39999999999964,168.096 169.5,168.096" />
<path d="M169.5,175.596 C170.10000000000036,175.596 170.60000000000036,175.758 171.10000000000036,176.081 C171.5,176.435 171.70000000000073,176.878 171.70000000000073,177.409 C171.70000000000073,178.305 171.20000000000073,179.143 170.29999999999927,179.925 C169.39999999999964,180.706 168.39999999999964,181.096 167.29999999999927,181.096 C166.70000000000073,181.096 166.10000000000036,180.935 165.70000000000073,180.612 C165.29999999999927,180.258 165.10000000000036,179.815 165.10000000000036,179.284 C165.10000000000036,178.388 165.60000000000036,177.55 166.5,176.768 C167.39999999999964,175.987 168.39999999999964,175.596 169.5,175.596" />
<path d="M169.5,180.596 C170.10000000000036,180.596 170.60000000000036,180.758 171.10000000000036,181.081 C171.5,181.435 171.70000000000073,181.878 171.70000000000073,182.409 C171.70000000000073,183.305 171.20000000000073,184.143 170.29999999999927,184.925 C169.39999999999964,185.706 168.39999999999964,186.096 167.29999999999927,186.096 C166.70000000000073,186.096 166.10000000000036,185.935 165.70000000000073,185.612 C165.29999999999927,185.258 165.10000000000036,184.815 165.10000000000036,184.284 C165.10000000000036,183.388 165.60000000000036,182.55 166.5,181.768 C167.39999999999964,180.987 168.39999999999964,180.596 169.5,180.596" />
<path d="M168.39999999999964,200.128 L170.79999999999927,198.175 C170.89999999999964,198.122 170.89999999999964,198.096 171.0,198.096 C171.0,198.096 171.10000000000036,198.122 171.20000000000073,198.175 L171.60000000000036,198.487 C171.60000000000036,198.55 171.70000000000073,198.628 171.70000000000073,198.721 C171.70000000000073,198.784 171.60000000000036,198.862 171.60000000000036,198.956 L169.20000000000073,200.846 L171.60000000000036,202.737 C171.60000000000036,202.81 171.70000000000073,202.891 171.70000000000073,202.979 C171.70000000000073,203.068 171.60000000000036,203.143 171.60000000000036,203.206 L171.20000000000073,203.518 C171.10000000000036,203.57 171.0,203.596 171.0,203.596 C170.89999999999964,203.596 170.89999999999964,203.57 170.79999999999927,203.518 L168.39999999999964,201.565 L166.0,203.518 C165.89999999999964,203.57 165.79999999999927,203.596 165.79999999999927,203.596 C165.70000000000073,203.596 165.70000000000073,203.57 165.60000000000036,203.518 L165.20000000000073,203.206 C165.10000000000036,203.143 165.10000000000036,203.065 165.10000000000036,202.971 C165.10000000000036,202.909 165.10000000000036,202.831 165.20000000000073,202.737 L167.5,200.846 L165.20000000000073,198.956 C165.10000000000036,198.883 165.10000000000036,198.802 165.10000000000036,198.714 C165.10000000000036,198.625 165.10000000000036,198.55 165.20000000000073,198.487 L165.60000000000036,198.175 C165.70000000000073,198.122 165.70000000000073,198.096 165.79999999999927,198.096 C165.79999999999927,198.096 165.89999999999964,198.122 166.0,198.175 L168.39999999999964,200.128" />
<path d="M171.20000000000073,74.534 C171.20000000000073,74.3152 171.10000000000036,74.1277 171.0,73.9715 C170.79999999999927,73.8048 170.60000000000036,73.7215 170.39999999999964,73.7215 C170.0,73.7215 169.20000000000073,74.1121 168.0,74.8933 C166.79999999999927,75.685 166.0,76.2527 165.79999999999927,76.5965 C165.60000000000036,76.7735 165.60000000000036,76.961 165.60000000000036,77.159 C165.60000000000036,77.3777 165.60000000000036,77.5652 165.79999999999927,77.7215 C166.0,77.8881 166.20000000000073,77.9715 166.39999999999964,77.9715 C166.79999999999927,77.9715 167.60000000000036,77.5808 168.79999999999927,76.7996 C170.0,76.0183 170.70000000000073,75.4506 171.0,75.0965 C171.10000000000036,74.9298 171.20000000000073,74.7423 171.20000000000073,74.534 M170.20000000000073,73.0965 C171.29999999999927,73.0965 171.89999999999964,73.5756 171.89999999999964,74.534 C171.89999999999964,75.0027 171.70000000000073,75.5496 171.5,76.1746 C171.20000000000073,76.7892 170.79999999999927,77.2579 170.39999999999964,77.5808 C169.39999999999964,78.2579 168.10000000000036,78.5965 166.60000000000036,78.5965 C165.5,78.5965 164.89999999999964,78.1173 164.89999999999964,77.159 C164.89999999999964,76.7319 165.0,76.1902 165.29999999999927,75.534 C165.60000000000036,74.909 165.89999999999964,74.435 166.39999999999964,74.1121 C167.39999999999964,73.435 168.70000000000073,73.0965 170.20000000000073,73.0965" />
<path d="M164.89999999999964,77.034 C164.89999999999964,76.8152 164.79999999999927,76.6277 164.70000000000073,76.4715 C164.5,76.3048 164.29999999999927,76.2215 164.10000000000036,76.2215 C163.70000000000073,76.2215 162.89999999999964,76.6121 161.70000000000073,77.3933 C160.5,78.185 159.70000000000073,78.7527 159.5,79.0965 C159.29999999999927,79.2735 159.29999999999927,79.461 159.29999999999927,79.659 C159.29999999999927,79.8777 159.29999999999927,80.0652 159.5,80.2215 C159.70000000000073,80.3881 159.89999999999964,80.4715 160.10000000000036,80.4715 C160.5,80.4715 161.29999999999927,80.0808 162.5,79.2996 C163.70000000000073,78.5183 164.39999999999964,77.9506 164.70000000000073,77.5965 C164.89999999999964,77.4298 164.89999999999964,77.2423 164.89999999999964,77.034 M163.89999999999964,75.5965 C165.0,75.5965 165.60000000000036,76.0756 165.60000000000036,77.034 C165.60000000000036,77.5027 165.39999999999964,78.0496 165.20000000000073,78.6746 C164.89999999999964,79.2892 164.5,79.7579 164.10000000000036,80.0808 C163.10000000000036,80.7579 161.79999999999927,81.0965 160.29999999999927,81.0965 C159.20000000000073,81.0965 158.60000000000036,80.6173 158.60000000000036,79.659 C158.60000000000036,79.2319 158.79999999999927,78.6902 159.0,78.034 C159.29999999999927,77.409 159.60000000000036,76.935 160.10000000000036,76.6121 C161.10000000000036,75.935 162.39999999999964,75.5965 163.89999999999964,75.5965" />
<path d="M171.20000000000073,52.034 C171.20000000000073,51.8152 171.10000000000036,51.6277 171.0,51.4715 C170.79999999999927,51.3048 170.60000000000036,51.2215 170.39999999999964,51.2215 C170.0,51.2215 169.20000000000073,51.6121 168.0,52.3933 C166.79999999999927,53.185 166.0,53.7527 165.79999999999927,54.0965 C165.60000000000036,54.2735 165.60000000000036,54.461 165.60000000000036,54.659 C165.60000000000036,54.8777 165.60000000000036,55.0652 165.79999999999927,55.2215 C166.0,55.3881 166.20000000000073,55.4715 166.39999999999964,55.4715 C166.79999999999927,55.4715 167.60000000000036,55.0808 168.79999999999927,54.2996 C170.0,53.5183 170.70000000000073,52.9506 171.0,52.5965 C171.10000000000036,52.4298 171.20000000000073,52.2423 171.20000000000073,52.034 M170.20000000000073,50.5965 C171.29999999999927,50.5965 171.89999999999964,51.0756 171.89999999999964,52.034 C171.89999999999964,52.5027 171.70000000000073,53.0496 171.5,53.6746 C171.20000000000073,54.2892 170.79999999999927,54.7579 170.39999999999964,55.0808 C169.39999999999964,55.7579 168.10000000000036,56.0965 166.60000000000036,56.0965 C165.5,56.0965 164.89999999999964,55.6173 164.89999999999964,54.659 C164.89999999999964,54.2319 165.0,53.6902 165.29999999999927,53.034 C165.60000000000036,52.409 165.89999999999964,51.935 166.39999999999964,51.6121 C167.39999999999964,50.935 168.70000000000073,50.5965 170.20000000000073,50.5965" />
<path d="M164.89999999999964,54.534 C164.89999999999964,54.3152 164.79999999999927,54.1277 164.70000000000073,53.9715 C164.5,53.8048 164.29999999999927,53.7215 164.10000000000036,53.7215 C163.70000000000073,53.7215 162.89999999999964,54.1121 161.70000000000073,54.8933 C160.5,55.685 159.70000000000073,56.2527 159.5,56.5965 C159.29999999999927,56.7735 159.29999999999927,56.961 159.29999999999927,57.159 C159.29999999999927,57.3777 159.29999999999927,57.5652 159.5,57.7215 C159.70000000000073,57.8881 159.89999999999964,57.9715 160.10000000000036,57.9715 C160.5,57.9715 161.29999999999927,57.5808 162.5,56.7996 C163.70000000000073,56.0183 164.39999999999964,55.4506 164.70000000000073,55.0965 C164.89999999999964,54.9298 164.89999999999964,54.7423 164.89999999999964,54.534 M163.89999999999964,53.0965 C165.0,53.0965 165.60000000000036,53.5756 165.60000000000036,54.534 C165.60000000000036,55.0027 165.39999999999964,55.5496 165.20000000000073,56.1746 C164.89999999999964,56.7892 164.5,57.2579 164.10000000000036,57.5808 C163.10000000000036,58.2579 161.79999999999927,58.5965 160.29999999999927,58.5965 C159.20000000000073,58.5965 158.60000000000036,58.1173 158.60000000000036,57.159 C158.60000000000036,56.7319 158.79999999999927,56.1902 159.0,55.534 C159.29999999999927,54.909 159.60000000000036,54.435 160.10000000000036,54.1121 C161.10000000000036,53.435 162.39999999999964,53.0965 163.89999999999964,53.0965" />
<path d="M103.89999999999964,220.596 C104.60000000000036,220.596 105.10000000000036,220.758 105.5,221.081 C105.89999999999964,221.435 106.10000000000036,221.878 106.10000000000036,222.409 C106.10000000000036,223.305 105.70000000000073,224.143 104.70000000000073,224.925 C103.79999999999927,225.706 102.79999999999927,226.096 101.70000000000073,226.096 C101.10000000000036,226.096 100.60000000000036,225.935 100.10000000000036,225.612 C99.70000000000073,225.258 99.5,224.815 99.5,224.284 C99.5,223.388 100.0,222.55 100.89999999999964,221.768 C101.89999999999964,220.987 102.89999999999964,220.596 103.89999999999964,220.596" />
<path d="M103.89999999999964,73.0965 C104.60000000000036,73.0965 105.10000000000036,73.2579 105.5,73.5808 C105.89999999999964,73.935 106.10000000000036,74.3777 106.10000000000036,74.909 C106.10000000000036,75.8048 105.70000000000073,76.6433 104.70000000000073,77.4246 C103.79999999999927,78.2058 102.79999999999927,78.5965 101.70000000000073,78.5965 C101.10000000000036,78.5965 100.60000000000036,78.435 100.10000000000036,78.1121 C99.70000000000073,77.7579 99.5,77.3152 99.5,76.784 C99.5,75.8881 100.0,75.0496 100.89999999999964,74.2683 C101.89999999999964,73.4871 102.89999999999964,73.0965 103.89999999999964,73.0965" />
<path d="M98.0,75.5965 C98.60000000000036,75.5965 99.20000000000073,75.7579 99.60000000000036,76.0808 C100.0,76.435 100.20000000000073,76.8777 100.20000000000073,77.409 C100.20000000000073,78.3048 99.70000000000073,79.1433 98.79999999999927,79.9246 C97.89999999999964,80.7058 96.89999999999964,81.0965 95.79999999999927,81.0965 C95.20000000000073,81.0965 94.60000000000036,80.935 94.20000000000073,80.6121 C93.79999999999927,80.2579 93.60000000000036,79.8152 93.60000000000036,79.284 C93.60000000000036,78.3881 94.10000000000036,77.5496 95.0,76.7683 C95.89999999999964,75.9871 96.89999999999964,75.5965 98.0,75.5965" />
<path d="M103.89999999999964,50.5965 C104.60000000000036,50.5965 105.10000000000036,50.7579 105.5,51.0808 C105.89999999999964,51.435 106.10000000000036,51.8777 106.10000000000036,52.409 C106.10000000000036,53.3048 105.70000000000073,54.1433 104.70000000000073,54.9246 C103.79999999999927,55.7058 102.79999999999927,56.0965 101.70000000000073,56.0965 C101.10000000000036,56.0965 100.60000000000036,55.935 100.10000000000036,55.6121 C99.70000000000073,55.2579 99.5,54.8152 99.5,54.284 C99.5,53.3881 100.0,52.5496 100.89999999999964,51.7683 C101.89999999999964,50.9871 102.89999999999964,50.5965 103.89999999999964,50.5965" />
<path d="M98.0,53.0965 C98.60000000000036,53.0965 99.20000000000073,53.2579 99.60000000000036,53.5808 C100.0,53.935 100.20000000000073,54.3777 100.20000000000073,54.909 C100.20000000000073,55.8048 99.70000000000073,56.6433 98.79999999999927,57.4246 C97.89999999999964,58.2058 96.89999999999964,58.5965 95.79999999999927,58.5965 C95.20000000000073,58.5965 94.60000000000036,58.435 94.20000000000073,58.1121 C93.79999999999927,57.7579 93.60000000000036,57.3152 93.60000000000036,56.784 C93.60000000000036,55.8881 94.10000000000036,55.0496 95.0,54.2683 C95.89999999999964,53.4871 96.89999999999964,53.0965 98.0,53.0965" />
<path d="M71.20000000000073,223.096 C71.79999999999927,223.096 72.29999999999927,223.258 72.70000000000073,223.581 C73.10000000000036,223.935 73.29999999999927,224.378 73.29999999999927,224.909 C73.29999999999927,225.805 72.89999999999964,226.643 72.0,227.425 C71.0,228.206 70.0,228.596 69.0,228.596 C68.29999999999927,228.596 67.79999999999927,228.435 67.39999999999964,228.112 C67.0,227.758 66.79999999999927,227.315 66.79999999999927,226.784 C66.79999999999927,225.888 67.20000000000073,225.05 68.20000000000073,224.268 C69.10000000000036,223.487 70.10000000000036,223.096 71.20000000000073,223.096" />
<path d="M38.399999999999636,223.096 C39.0,223.096 39.5,223.258 40.0,223.581 C40.399999999999636,223.935 40.600000000000364,224.378 40.600000000000364,224.909 C40.600000000000364,225.805 40.100000000000364,226.643 39.20000000000073,227.425 C38.29999999999927,228.206 37.20000000000073,228.596 36.20000000000073,228.596 C35.600000000000364,228.596 35.0,228.435 34.600000000000364,228.112 C34.20000000000073,227.758 34.0,227.315 34.0,226.784 C34.0,225.888 34.5,225.05 35.399999999999636,224.268 C36.29999999999927,223.487 37.29999999999927,223.096 38.399999999999636,223.096" />
<path d="M38.399999999999636,168.096 C39.0,168.096 39.5,168.258 40.0,168.581 C40.399999999999636,168.935 40.600000000000364,169.378 40.600000000000364,169.909 C40.600000000000364,170.805 40.100000000000364,171.643 39.20000000000073,172.425 C38.29999999999927,173.206 37.20000000000073,173.596 36.20000000000073,173.596 C35.600000000000364,173.596 35.0,173.435 34.600000000000364,173.112 C34.20000000000073,172.758 34.0,172.315 34.0,171.784 C34.0,170.888 34.5,170.05 35.399999999999636,169.268 C36.29999999999927,168.487 37.29999999999927,168.096 38.399999999999636,168.096" />
<path d="M38.399999999999636,175.596 C39.0,175.596 39.5,175.758 40.0,176.081 C40.399999999999636,176.435 40.600000000000364,176.878 40.600000000000364,177.409 C40.600000000000364,178.305 40.100000000000364,179.143 39.20000000000073,179.925 C38.29999999999927,180.706 37.20000000000073,181.096 36.20000000000073,181.096 C35.600000000000364,181.096 35.0,180.935 34.600000000000364,180.612 C34.20000000000073,180.258 34.0,179.815 34.0,179.284 C34.0,178.388 34.5,177.55 35.399999999999636,176.768 C36.29999999999927,175.987 37.29999999999927,175.596 38.399999999999636,175.596" />
<path d="M38.399999999999636,180.596 C39.0,180.596 39.5,180.758 40.0,181.081 C40.399999999999636,181.435 40.600000000000364,181.878 40.600000000000364,182.409 C40.600000000000364,183.305 40.100000000000364,184.143 39.20000000000073,184.925 C38.29999999999927,185.706 37.20000000000073,186.096 36.20000000000073,186.096 C35.600000000000364,186.096 35.0,185.935 34.600000000000364,185.612 C34.20000000000073,185.258 34.0,184.815 34.0,184.284 C34.0,183.388 34.5,182.55 35.399999999999636,181.768 C36.29999999999927,180.987 37.29999999999927,180.596 38.399999999999636,180.596" />
<path d="M38.399999999999636,190.596 C39.0,190.596 39.5,190.758 40.0,191.081 C40.399999999999636,191.435 40.600000000000364,191.878 40.600000000000364,192.409 C40.600000000000364,193.305 40.100000000000364,194.143 39.20000000000073,194.925 C38.29999999999927,195.706 37.20000000000073,196.096 36.20000000000073,196.096 C35.600000000000364,196.096 35.0,195.935 34.600000000000364,195.612 C34.20000000000073,195.258 34.0,194.815 34.0,194.284 C34.0,193.388 34.5,192.55 35.399999999999636,191.768 C36.29999999999927,190.987 37.29999999999927,190.596 38.399999999999636,190.596" />
<path d="M38.399999999999636,73.0965 C39.0,73.0965 39.5,73.2579 40.0,73.5808 C40.399999999999636,73.935 40.600000000000364,74.3777 40.600000000000364,74.909 C40.600000000000364,75.8048 40.100000000000364,76.6433 39.20000000000073,77.4246 C38.29999999999927,78.2058 37.20000000000073,78.5965 36.20000000000073,78.5965 C35.600000000000364,78.5965 35.0,78.435 34.600000000000364,78.1121 C34.20000000000073,77.7579 34.0,77.3152 34.0,76.784 C34.0,75.8881 34.5,75.0496 35.399999999999636,74.2683 C36.29999999999927,73.4871 37.29999999999927,73.0965 38.399999999999636,73.0965" />
<path d="M32.399999999999636,75.5965 C33.100000000000364,75.5965 33.600000000000364,75.7579 34.0,76.0808 C34.399999999999636,76.435 34.600000000000364,76.8777 34.600000000000364,77.409 C34.600000000000364,78.3048 34.20000000000073,79.1433 33.29999999999927,79.9246 C32.29999999999927,80.7058 31.299999999999272,81.0965 30.200000000000728,81.0965 C29.600000000000364,81.0965 29.100000000000364,80.935 28.700000000000728,80.6121 C28.299999999999272,80.2579 28.100000000000364,79.8152 28.100000000000364,79.284 C28.100000000000364,78.3881 28.5,77.5496 29.5,76.7683 C30.399999999999636,75.9871 31.399999999999636,75.5965 32.399999999999636,75.5965" />
<path d="M38.399999999999636,50.5965 C39.0,50.5965 39.5,50.7579 40.0,51.0808 C40.399999999999636,51.435 40.600000000000364,51.8777 40.600000000000364,52.409 C40.600000000000364,53.3048 40.100000000000364,54.1433 39.20000000000073,54.9246 C38.29999999999927,55.7058 37.20000000000073,56.0965 36.20000000000073,56.0965 C35.600000000000364,56.0965 35.0,55.935 34.600000000000364,55.6121 C34.20000000000073,55.2579 34.0,54.8152 34.0,54.284 C34.0,53.3881 34.5,52.5496 35.399999999999636,51.7683 C36.29999999999927,50.9871 37.29999999999927,50.5965 38.399999999999636,50.5965" />
<path d="M32.399999999999636,53.0965 C33.100000000000364,53.0965 33.600000000000364,53.2579 34.0,53.5808 C34.399999999999636,53.935 34.600000000000364,54.3777 34.600000000000364,54.909 C34.600000000000364,55.8048 34.20000000000073,56.6433 33.29999999999927,57.4246 C32.29999999999927,58.2058 31.299999999999272,58.5965 30.200000000000728,58.5965 C29.600000000000364,58.5965 29.100000000000364,58.435 28.700000000000728,58.1121 C28.299999999999272,57.7579 28.100000000000364,57.3152 28.100000000000364,56.784 C28.100000000000364,55.8881 28.5,55.0496 29.5,54.2683 C30.399999999999636,53.4871 31.399999999999636,53.0965 32.399999999999636,53.0965" />
<path d="M5.600000000000364,73.0965 C6.200000000000728,73.0965 6.799999999999272,73.2579 7.200000000000728,73.5808 C7.600000000000364,73.935 7.799999999999272,74.3777 7.799999999999272,74.909 C7.799999999999272,75.8048 7.299999999999272,76.6433 6.399999999999636,77.4246 C5.5,78.2058 4.5,78.5965 3.399999999999636,78.5965 C2.7999999999992724,78.5965 2.2000000000007276,78.435 1.7999999999992724,78.1121 C1.3999999999996362,77.7579 1.2000000000007276,77.3152 1.2000000000007276,76.784 C1.2000000000007276,75.8881 1.7000000000007276,75.0496 2.600000000000364,74.2683 C3.5,73.4871 4.5,73.0965 5.600000000000364,73.0965" />
<path d="M5.600000000000364,50.5965 C6.200000000000728,50.5965 6.799999999999272,50.7579 7.200000000000728,51.0808 C7.600000000000364,51.435 7.799999999999272,51.8777 7.799999999999272,52.409 C7.799999999999272,53.3048 7.299999999999272,54.1433 6.399999999999636,54.9246 C5.5,55.7058 4.5,56.0965 3.399999999999636,56.0965 C2.7999999999992724,56.0965 2.2000000000007276,55.935 1.7999999999992724,55.6121 C1.3999999999996362,55.2579 1.2000000000007276,54.8152 1.2000000000007276,54.284 C1.2000000000007276,53.3881 1.7000000000007276,52.5496 2.600000000000364,51.7683 C3.5,50.9871 4.5,50.5965 5.600000000000364,50.5965" />
<path d="M165.10000000000036,249.596 L264.10000000000036,243.305 L264.10000000000036,245.805 L165.10000000000036,252.096 L165.10000000000036,249.596" />
<path d="M230.60000000000036,241.68 L264.10000000000036,239.555 L264.10000000000036,242.055 L230.60000000000036,244.18 L230.60000000000036,241.68" />
<path d="M171.0,153.346 L270.0,153.346 L270.0,155.846 L171.0,155.846 L171.0,153.346" />
<path d="M171.0,157.096 L270.0,157.096 L270.0,159.596 L171.0,159.596 L171.0,157.096" />
<path d="M34.0,239.596 L100.20000000000073,239.596 L100.20000000000073,242.096 L34.0,242.096 L34.0,239.596" />
<path d="M34.0,235.846 L67.39999999999964,235.846 L67.39999999999964,238.346 L34.0,238.346 L34.0,235.846" />
<path d="M34.0,123.346 L100.20000000000073,123.346 L100.20000000000073,125.846 L34.0,125.846 L34.0,123.346" />
<path d="M34.0,70.8465 L100.20000000000073,70.8465 L100.20000000000073,73.3465 L34.0,73.3465 L34.0,70.8465" />
<path d="M165.60000000000036,105.846 L166.79999999999927,108.346 L164.29999999999927,108.346 L165.60000000000036,105.846" />
<path d="M162.70000000000073,99.2058 C162.60000000000036,99.2058 162.60000000000036,99.1746 162.5,99.1121 C162.39999999999964,99.0496 162.39999999999964,98.9819 162.29999999999927,98.909 C162.29999999999927,98.836 162.29999999999927,98.7683 162.20000000000073,98.7058 C162.10000000000036,98.6433 162.0,98.6121 161.89999999999964,98.6121 C161.60000000000036,98.6121 161.5,98.8465 161.5,99.3152 L161.5,100.253 L162.5,100.253 L162.5,100.487 L161.5,100.487 L161.5,103.018 C161.5,103.31 161.5,103.497 161.60000000000036,103.581 C161.70000000000073,103.664 161.89999999999964,103.711 162.20000000000073,103.721 L162.20000000000073,103.846 L160.10000000000036,103.846 L160.10000000000036,103.721 C160.39999999999964,103.711 160.60000000000036,103.664 160.70000000000073,103.581 C160.79999999999927,103.497 160.79999999999927,103.31 160.79999999999927,103.018 L160.79999999999927,100.487 L160.10000000000036,100.487 L160.10000000000036,100.253 L160.79999999999927,100.253 C160.79999999999927,99.6485 160.89999999999964,99.1824 161.10000000000036,98.8543 C161.39999999999964,98.5261 161.70000000000073,98.3621 162.20000000000073,98.3621 C162.39999999999964,98.3621 162.60000000000036,98.4116 162.79999999999927,98.5105 C163.0,98.6095 163.0,98.7319 163.0,98.8777 C163.0,98.9715 163.0,99.0496 162.89999999999964,99.1121 C162.89999999999964,99.1746 162.79999999999927,99.2058 162.70000000000073,99.2058 M166.89999999999964,103.425 L166.89999999999964,103.55 C166.39999999999964,103.664 166.10000000000036,103.789 165.79999999999927,103.925 L165.70000000000073,103.909 L165.70000000000073,103.221 C165.70000000000073,103.242 165.70000000000073,103.292 165.60000000000036,103.37 C165.5,103.448 165.5,103.503 165.39999999999964,103.534 C165.39999999999964,103.565 165.29999999999927,103.612 165.29999999999927,103.675 C165.20000000000073,103.737 165.10000000000036,103.781 165.10000000000036,103.807 C165.0,103.833 164.89999999999964,103.859 164.79999999999927,103.886 C164.79999999999927,103.912 164.70000000000073,103.925 164.60000000000036,103.925 C164.29999999999927,103.925 164.0,103.828 163.89999999999964,103.636 C163.70000000000073,103.443 163.60000000000036,103.19 163.60000000000036,102.878 L163.60000000000036,100.862 C163.60000000000036,100.685 163.60000000000036,100.56 163.5,100.487 C163.39999999999964,100.414 163.29999999999927,100.372 163.10000000000036,100.362 L163.10000000000036,100.253 L164.29999999999927,100.253 L164.29999999999927,102.846 C164.29999999999927,103.003 164.29999999999927,103.141 164.39999999999964,103.261 C164.60000000000036,103.38 164.70000000000073,103.44 164.79999999999927,103.44 C164.89999999999964,103.44 165.0,103.432 165.0,103.417 C165.10000000000036,103.401 165.20000000000073,103.372 165.29999999999927,103.331 C165.39999999999964,103.289 165.5,103.219 165.60000000000036,103.12 C165.70000000000073,103.021 165.70000000000073,102.899 165.70000000000073,102.753 L165.70000000000073,100.878 C165.70000000000073,100.69 165.70000000000073,100.563 165.60000000000036,100.495 C165.5,100.427 165.39999999999964,100.388 165.10000000000036,100.378 L165.10000000000036,100.253 L166.39999999999964,100.253 L166.39999999999964,102.971 C166.39999999999964,103.159 166.39999999999964,103.281 166.5,103.339 C166.5,103.396 166.60000000000036,103.425 166.79999999999927,103.425 L166.89999999999964,103.425 M167.0,98.8621 L167.0,98.7371 C167.5,98.6121 168.0,98.4923 168.29999999999927,98.3777 L168.29999999999927,98.409 L168.29999999999927,103.175 C168.29999999999927,103.393 168.39999999999964,103.537 168.39999999999964,103.604 C168.5,103.672 168.70000000000073,103.711 168.89999999999964,103.721 L168.89999999999964,103.846 L167.0,103.846 L167.0,103.721 C167.29999999999927,103.701 167.39999999999964,103.654 167.5,103.581 C167.60000000000036,103.508 167.60000000000036,103.362 167.60000000000036,103.143 L167.60000000000036,99.3308 C167.60000000000036,99.1433 167.60000000000036,99.0157 167.60000000000036,98.948 C167.5,98.8803 167.39999999999964,98.8465 167.29999999999927,98.8465 C167.20000000000073,98.8465 167.10000000000036,98.8517 167.0,98.8621 M169.10000000000036,98.8621 L169.10000000000036,98.7371 C169.60000000000036,98.6121 170.0,98.4923 170.39999999999964,98.3777 L170.39999999999964,98.409 L170.39999999999964,103.175 C170.39999999999964,103.393 170.39999999999964,103.537 170.5,103.604 C170.60000000000036,103.672 170.70000000000073,103.711 171.0,103.721 L171.0,103.846 L169.10000000000036,103.846 L169.10000000000036,103.721 C169.29999999999927,103.701 169.5,103.654 169.60000000000036,103.581 C169.70000000000073,103.508 169.70000000000073,103.362 169.70000000000073,103.143 L169.70000000000073,99.3308 C169.70000000000073,99.1433 169.70000000000073,99.0157 169.60000000000036,98.948 C169.60000000000036,98.8803 169.5,98.8465 169.39999999999964,98.8465 C169.29999999999927,98.8465 169.20000000000073,98.8517 169.10000000000036,98.8621" />
<path d="M165.60000000000036,53.3465 L166.79999999999927,55.8465 L164.29999999999927,55.8465 L165.60000000000036,53.3465" />
<path d="M162.70000000000073,46.7058 C162.60000000000036,46.7058 162.60000000000036,46.6746 162.5,46.6121 C162.39999999999964,46.5496 162.39999999999964,46.4819 162.29999999999927,46.409 C162.29999999999927,46.336 162.29999999999927,46.2683 162.20000000000073,46.2058 C162.10000000000036,46.1433 162.0,46.1121 161.89999999999964,46.1121 C161.60000000000036,46.1121 161.5,46.3465 161.5,46.8152 L161.5,47.7527 L162.5,47.7527 L162.5,47.9871 L161.5,47.9871 L161.5,50.5183 C161.5,50.81 161.5,50.9975 161.60000000000036,51.0808 C161.70000000000073,51.1642 161.89999999999964,51.211 162.20000000000073,51.2215 L162.20000000000073,51.3465 L160.10000000000036,51.3465 L160.10000000000036,51.2215 C160.39999999999964,51.211 160.60000000000036,51.1642 160.70000000000073,51.0808 C160.79999999999927,50.9975 160.79999999999927,50.81 160.79999999999927,50.5183 L160.79999999999927,47.9871 L160.10000000000036,47.9871 L160.10000000000036,47.7527 L160.79999999999927,47.7527 C160.79999999999927,47.1485 160.89999999999964,46.6824 161.10000000000036,46.3543 C161.39999999999964,46.0261 161.70000000000073,45.8621 162.20000000000073,45.8621 C162.39999999999964,45.8621 162.60000000000036,45.9116 162.79999999999927,46.0105 C163.0,46.1095 163.0,46.2319 163.0,46.3777 C163.0,46.4715 163.0,46.5496 162.89999999999964,46.6121 C162.89999999999964,46.6746 162.79999999999927,46.7058 162.70000000000073,46.7058 M166.89999999999964,50.9246 L166.89999999999964,51.0496 C166.39999999999964,51.1642 166.10000000000036,51.2892 165.79999999999927,51.4246 L165.70000000000073,51.409 L165.70000000000073,50.7215 C165.70000000000073,50.7423 165.70000000000073,50.7918 165.60000000000036,50.8699 C165.5,50.948 165.5,51.0027 165.39999999999964,51.034 C165.39999999999964,51.0652 165.29999999999927,51.1121 165.29999999999927,51.1746 C165.20000000000073,51.2371 165.10000000000036,51.2814 165.10000000000036,51.3074 C165.0,51.3334 164.89999999999964,51.3595 164.79999999999927,51.3855 C164.79999999999927,51.4116 164.70000000000073,51.4246 164.60000000000036,51.4246 C164.29999999999927,51.4246 164.0,51.3282 163.89999999999964,51.1355 C163.70000000000073,50.9428 163.60000000000036,50.6902 163.60000000000036,50.3777 L163.60000000000036,48.3621 C163.60000000000036,48.185 163.60000000000036,48.06 163.5,47.9871 C163.39999999999964,47.9142 163.29999999999927,47.8725 163.10000000000036,47.8621 L163.10000000000036,47.7527 L164.29999999999927,47.7527 L164.29999999999927,50.3465 C164.29999999999927,50.5027 164.29999999999927,50.6407 164.39999999999964,50.7605 C164.60000000000036,50.8803 164.70000000000073,50.9402 164.79999999999927,50.9402 C164.89999999999964,50.9402 165.0,50.9324 165.0,50.9168 C165.10000000000036,50.9011 165.20000000000073,50.8725 165.29999999999927,50.8308 C165.39999999999964,50.7892 165.5,50.7189 165.60000000000036,50.6199 C165.70000000000073,50.5209 165.70000000000073,50.3985 165.70000000000073,50.2527 L165.70000000000073,48.3777 C165.70000000000073,48.1902 165.70000000000073,48.0626 165.60000000000036,47.9949 C165.5,47.9272 165.39999999999964,47.8881 165.10000000000036,47.8777 L165.10000000000036,47.7527 L166.39999999999964,47.7527 L166.39999999999964,50.4715 C166.39999999999964,50.659 166.39999999999964,50.7814 166.5,50.8386 C166.5,50.8959 166.60000000000036,50.9246 166.79999999999927,50.9246 L166.89999999999964,50.9246 M167.0,46.3621 L167.0,46.2371 C167.5,46.1121 168.0,45.9923 168.29999999999927,45.8777 L168.29999999999927,45.909 L168.29999999999927,50.6746 C168.29999999999927,50.8933 168.39999999999964,51.0366 168.39999999999964,51.1043 C168.5,51.172 168.70000000000073,51.211 168.89999999999964,51.2215 L168.89999999999964,51.3465 L167.0,51.3465 L167.0,51.2215 C167.29999999999927,51.2006 167.39999999999964,51.1537 167.5,51.0808 C167.60000000000036,51.0079 167.60000000000036,50.8621 167.60000000000036,50.6433 L167.60000000000036,46.8308 C167.60000000000036,46.6433 167.60000000000036,46.5157 167.60000000000036,46.448 C167.5,46.3803 167.39999999999964,46.3465 167.29999999999927,46.3465 C167.20000000000073,46.3465 167.10000000000036,46.3517 167.0,46.3621 M169.10000000000036,46.3621 L169.10000000000036,46.2371 C169.60000000000036,46.1121 170.0,45.9923 170.39999999999964,45.8777 L170.39999999999964,45.909 L170.39999999999964,50.6746 C170.39999999999964,50.8933 170.39999999999964,51.0366 170.5,51.1043 C170.60000000000036,51.172 170.70000000000073,51.211 171.0,51.2215 L171.0,51.3465 L169.10000000000036,51.3465 L169.10000000000036,51.2215 C169.29999999999927,51.2006 169.5,51.1537 169.60000000000036,51.0808 C169.70000000000073,51.0079 169.70000000000073,50.8621 169.70000000000073,50.6433 L169.70000000000073,46.8308 C169.70000000000073,46.6433 169.70000000000073,46.5157 169.60000000000036,46.448 C169.60000000000036,46.3803 169.5,46.3465 169.39999999999964,46.3465 C169.29999999999927,46.3465 169.20000000000073,46.3517 169.10000000000036,46.3621" />
<path d="M100.20000000000073,105.846 L101.39999999999964,108.346 L98.89999999999964,108.346 L100.20000000000073,105.846" />
<path d="M97.29999999999927,99.2058 C97.29999999999927,99.2058 97.20000000000073,99.1746 97.10000000000036,99.1121 C97.10000000000036,99.0496 97.0,98.9819 97.0,98.909 C96.89999999999964,98.836 96.89999999999964,98.7683 96.79999999999927,98.7058 C96.70000000000073,98.6433 96.70000000000073,98.6121 96.60000000000036,98.6121 C96.29999999999927,98.6121 96.10000000000036,98.8465 96.10000000000036,99.3152 L96.10000000000036,100.253 L97.10000000000036,100.253 L97.10000000000036,100.487 L96.10000000000036,100.487 L96.10000000000036,103.018 C96.10000000000036,103.31 96.10000000000036,103.497 96.20000000000073,103.581 C96.29999999999927,103.664 96.5,103.711 96.89999999999964,103.721 L96.89999999999964,103.846 L94.79999999999927,103.846 L94.79999999999927,103.721 C95.10000000000036,103.711 95.20000000000073,103.664 95.29999999999927,103.581 C95.39999999999964,103.497 95.39999999999964,103.31 95.39999999999964,103.018 L95.39999999999964,100.487 L94.79999999999927,100.487 L94.79999999999927,100.253 L95.39999999999964,100.253 C95.39999999999964,99.6485 95.60000000000036,99.1824 95.79999999999927,98.8543 C96.0,98.5261 96.29999999999927,98.3621 96.79999999999927,98.3621 C97.10000000000036,98.3621 97.29999999999927,98.4116 97.39999999999964,98.5105 C97.60000000000036,98.6095 97.70000000000073,98.7319 97.70000000000073,98.8777 C97.70000000000073,98.9715 97.60000000000036,99.0496 97.60000000000036,99.1121 C97.5,99.1746 97.39999999999964,99.2058 97.29999999999927,99.2058 M101.5,103.425 L101.5,103.55 C101.10000000000036,103.664 100.70000000000073,103.789 100.39999999999964,103.925 L100.39999999999964,103.909 L100.39999999999964,103.221 C100.29999999999927,103.242 100.29999999999927,103.292 100.20000000000073,103.37 C100.10000000000036,103.448 100.10000000000036,103.503 100.10000000000036,103.534 C100.0,103.565 100.0,103.612 99.89999999999964,103.675 C99.79999999999927,103.737 99.70000000000073,103.781 99.70000000000073,103.807 C99.60000000000036,103.833 99.60000000000036,103.859 99.5,103.886 C99.39999999999964,103.912 99.29999999999927,103.925 99.20000000000073,103.925 C98.89999999999964,103.925 98.70000000000073,103.828 98.5,103.636 C98.29999999999927,103.443 98.20000000000073,103.19 98.20000000000073,102.878 L98.20000000000073,100.862 C98.20000000000073,100.685 98.20000000000073,100.56 98.10000000000036,100.487 C98.10000000000036,100.414 97.89999999999964,100.372 97.70000000000073,100.362 L97.70000000000073,100.253 L98.89999999999964,100.253 L98.89999999999964,102.846 C98.89999999999964,103.003 99.0,103.141 99.10000000000036,103.261 C99.20000000000073,103.38 99.29999999999927,103.44 99.5,103.44 C99.5,103.44 99.60000000000036,103.432 99.70000000000073,103.417 C99.79999999999927,103.401 99.79999999999927,103.372 100.0,103.331 C100.10000000000036,103.289 100.10000000000036,103.219 100.20000000000073,103.12 C100.29999999999927,103.021 100.29999999999927,102.899 100.29999999999927,102.753 L100.29999999999927,100.878 C100.29999999999927,100.69 100.29999999999927,100.563 100.20000000000073,100.495 C100.10000000000036,100.427 100.0,100.388 99.70000000000073,100.378 L99.70000000000073,100.253 L101.0,100.253 L101.0,102.971 C101.0,103.159 101.0,103.281 101.10000000000036,103.339 C101.20000000000073,103.396 101.29999999999927,103.425 101.5,103.425 L101.5,103.425 M101.60000000000036,98.8621 L101.60000000000036,98.7371 C102.20000000000073,98.6121 102.60000000000036,98.4923 102.89999999999964,98.3777 L103.0,98.409 L103.0,103.175 C103.0,103.393 103.0,103.537 103.10000000000036,103.604 C103.10000000000036,103.672 103.29999999999927,103.711 103.5,103.721 L103.5,103.846 L101.70000000000073,103.846 L101.70000000000073,103.721 C101.89999999999964,103.701 102.10000000000036,103.654 102.20000000000073,103.581 C102.20000000000073,103.508 102.29999999999927,103.362 102.29999999999927,103.143 L102.29999999999927,99.3308 C102.29999999999927,99.1433 102.29999999999927,99.0157 102.20000000000073,98.948 C102.10000000000036,98.8803 102.10000000000036,98.8465 101.89999999999964,98.8465 C101.79999999999927,98.8465 101.70000000000073,98.8517 101.60000000000036,98.8621 M103.70000000000073,98.8621 L103.70000000000073,98.7371 C104.20000000000073,98.6121 104.70000000000073,98.4923 105.0,98.3777 L105.0,98.409 L105.0,103.175 C105.0,103.393 105.0,103.537 105.10000000000036,103.604 C105.20000000000073,103.672 105.39999999999964,103.711 105.60000000000036,103.721 L105.60000000000036,103.846 L103.70000000000073,103.846 L103.70000000000073,103.721 C104.0,103.701 104.10000000000036,103.654 104.20000000000073,103.581 C104.29999999999927,103.508 104.29999999999927,103.362 104.29999999999927,103.143 L104.29999999999927,99.3308 C104.29999999999927,99.1433 104.29999999999927,99.0157 104.29999999999927,98.948 C104.20000000000073,98.8803 104.10000000000036,98.8465 104.0,98.8465 C103.89999999999964,98.8465 103.79999999999927,98.8517 103.70000000000073,98.8621" />
<path d="M100.20000000000073,53.3465 L101.39999999999964,55.8465 L98.89999999999964,55.8465 L100.20000000000073,53.3465" />
<path d="M97.29999999999927,46.7058 C97.29999999999927,46.7058 97.20000000000073,46.6746 97.10000000000036,46.6121 C97.10000000000036,46.5496 97.0,46.4819 97.0,46.409 C96.89999999999964,46.336 96.89999999999964,46.2683 96.79999999999927,46.2058 C96.70000000000073,46.1433 96.70000000000073,46.1121 96.60000000000036,46.1121 C96.29999999999927,46.1121 96.10000000000036,46.3465 96.10000000000036,46.8152 L96.10000000000036,47.7527 L97.10000000000036,47.7527 L97.10000000000036,47.9871 L96.10000000000036,47.9871 L96.10000000000036,50.5183 C96.10000000000036,50.81 96.10000000000036,50.9975 96.20000000000073,51.0808 C96.29999999999927,51.1642 96.5,51.211 96.89999999999964,51.2215 L96.89999999999964,51.3465 L94.79999999999927,51.3465 L94.79999999999927,51.2215 C95.10000000000036,51.211 95.20000000000073,51.1642 95.29999999999927,51.0808 C95.39999999999964,50.9975 95.39999999999964,50.81 95.39999999999964,50.5183 L95.39999999999964,47.9871 L94.79999999999927,47.9871 L94.79999999999927,47.7527 L95.39999999999964,47.7527 C95.39999999999964,47.1485 95.60000000000036,46.6824 95.79999999999927,46.3543 C96.0,46.0261 96.29999999999927,45.8621 96.79999999999927,45.8621 C97.10000000000036,45.8621 97.29999999999927,45.9116 97.39999999999964,46.0105 C97.60000000000036,46.1095 97.70000000000073,46.2319 97.70000000000073,46.3777 C97.70000000000073,46.4715 97.60000000000036,46.5496 97.60000000000036,46.6121 C97.5,46.6746 97.39999999999964,46.7058 97.29999999999927,46.7058 M101.5,50.9246 L101.5,51.0496 C101.10000000000036,51.1642 100.70000000000073,51.2892 100.39999999999964,51.4246 L100.39999999999964,51.409 L100.39999999999964,50.7215 C100.29999999999927,50.7423 100.29999999999927,50.7918 100.20000000000073,50.8699 C100.10000000000036,50.948 100.10000000000036,51.0027 100.10000000000036,51.034 C100.0,51.0652 100.0,51.1121 99.89999999999964,51.1746 C99.79999999999927,51.2371 99.70000000000073,51.2814 99.70000000000073,51.3074 C99.60000000000036,51.3334 99.60000000000036,51.3595 99.5,51.3855 C99.39999999999964,51.4116 99.29999999999927,51.4246 99.20000000000073,51.4246 C98.89999999999964,51.4246 98.70000000000073,51.3282 98.5,51.1355 C98.29999999999927,50.9428 98.20000000000073,50.6902 98.20000000000073,50.3777 L98.20000000000073,48.3621 C98.20000000000073,48.185 98.20000000000073,48.06 98.10000000000036,47.9871 C98.10000000000036,47.9142 97.89999999999964,47.8725 97.70000000000073,47.8621 L97.70000000000073,47.7527 L98.89999999999964,47.7527 L98.89999999999964,50.3465 C98.89999999999964,50.5027 99.0,50.6407 99.10000000000036,50.7605 C99.20000000000073,50.8803 99.29999999999927,50.9402 99.5,50.9402 C99.5,50.9402 99.60000000000036,50.9324 99.70000000000073,50.9168 C99.79999999999927,50.9011 99.79999999999927,50.8725 100.0,50.8308 C100.10000000000036,50.7892 100.10000000000036,50.7189 100.20000000000073,50.6199 C100.29999999999927,50.5209 100.29999999999927,50.3985 100.29999999999927,50.2527 L100.29999999999927,48.3777 C100.29999999999927,48.1902 100.29999999999927,48.0626 100.20000000000073,47.9949 C100.10000000000036,47.9272 100.0,47.8881 99.70000000000073,47.8777 L99.70000000000073,47.7527 L101.0,47.7527 L101.0,50.4715 C101.0,50.659 101.0,50.7814 101.10000000000036,50.8386 C101.20000000000073,50.8959 101.29999999999927,50.9246 101.5,50.9246 L101.5,50.9246 M101.60000000000036,46.3621 L101.60000000000036,46.2371 C102.20000000000073,46.1121 102.60000000000036,45.9923 102.89999999999964,45.8777 L103.0,45.909 L103.0,50.6746 C103.0,50.8933 103.0,51.0366 103.10000000000036,51.1043 C103.10000000000036,51.172 103.29999999999927,51.211 103.5,51.2215 L103.5,51.3465 L101.70000000000073,51.3465 L101.70000000000073,51.2215 C101.89999999999964,51.2006 102.10000000000036,51.1537 102.20000000000073,51.0808 C102.20000000000073,51.0079 102.29999999999927,50.8621 102.29999999999927,50.6433 L102.29999999999927,46.8308 C102.29999999999927,46.6433 102.29999999999927,46.5157 102.20000000000073,46.448 C102.10000000000036,46.3803 102.10000000000036,46.3465 101.89999999999964,46.3465 C101.79999999999927,46.3465 101.70000000000073,46.3517 101.60000000000036,46.3621 M103.70000000000073,46.3621 L103.70000000000073,46.2371 C104.20000000000073,46.1121 104.70000000000073,45.9923 105.0,45.8777 L105.0,45.909 L105.0,50.6746 C105.0,50.8933 105.0,51.0366 105.10000000000036,51.1043 C105.20000000000073,51.172 105.39999999999964,51.211 105.60000000000036,51.2215 L105.60000000000036,51.3465 L103.70000000000073,51.3465 L103.70000000000073,51.2215 C104.0,51.2006 104.10000000000036,51.1537 104.20000000000073,51.0808 C104.29999999999927,51.0079 104.29999999999927,50.8621 104.29999999999927,50.6433 L104.29999999999927,46.8308 C104.29999999999927,46.6433 104.29999999999927,46.5157 104.29999999999927,46.448 C104.20000000000073,46.3803 104.10000000000036,46.3465 104.0,46.3465 C103.89999999999964,46.3465 103.79999999999927,46.3517 103.70000000000073,46.3621" />
<path d="M34.600000000000364,105.846 L35.899999999999636,108.346 L33.399999999999636,108.346 L34.600000000000364,105.846" />
<path d="M31.799999999999272,99.2058 C31.700000000000728,99.2058 31.600000000000364,99.1746 31.600000000000364,99.1121 C31.5,99.0496 31.5,98.9819 31.399999999999636,98.909 C31.399999999999636,98.836 31.299999999999272,98.7683 31.299999999999272,98.7058 C31.200000000000728,98.6433 31.100000000000364,98.6121 31.0,98.6121 C30.700000000000728,98.6121 30.600000000000364,98.8465 30.600000000000364,99.3152 L30.600000000000364,100.253 L31.5,100.253 L31.5,100.487 L30.600000000000364,100.487 L30.600000000000364,103.018 C30.600000000000364,103.31 30.600000000000364,103.497 30.700000000000728,103.581 C30.799999999999272,103.664 31.0,103.711 31.299999999999272,103.721 L31.299999999999272,103.846 L29.200000000000728,103.846 L29.200000000000728,103.721 C29.5,103.711 29.700000000000728,103.664 29.799999999999272,103.581 C29.799999999999272,103.497 29.899999999999636,103.31 29.899999999999636,103.018 L29.899999999999636,100.487 L29.200000000000728,100.487 L29.200000000000728,100.253 L29.899999999999636,100.253 C29.899999999999636,99.6485 30.0,99.1824 30.200000000000728,98.8543 C30.399999999999636,98.5261 30.799999999999272,98.3621 31.299999999999272,98.3621 C31.5,98.3621 31.700000000000728,98.4116 31.899999999999636,98.5105 C32.0,98.6095 32.100000000000364,98.7319 32.100000000000364,98.8777 C32.100000000000364,98.9715 32.100000000000364,99.0496 32.0,99.1121 C32.0,99.1746 31.899999999999636,99.2058 31.799999999999272,99.2058 M35.899999999999636,103.425 L35.899999999999636,103.55 C35.5,103.664 35.20000000000073,103.789 34.899999999999636,103.925 L34.79999999999927,103.909 L34.79999999999927,103.221 C34.79999999999927,103.242 34.79999999999927,103.292 34.70000000000073,103.37 C34.600000000000364,103.448 34.5,103.503 34.5,103.534 C34.5,103.565 34.399999999999636,103.612 34.29999999999927,103.675 C34.29999999999927,103.737 34.20000000000073,103.781 34.100000000000364,103.807 C34.100000000000364,103.833 34.0,103.859 33.899999999999636,103.886 C33.79999999999927,103.912 33.70000000000073,103.925 33.600000000000364,103.925 C33.399999999999636,103.925 33.100000000000364,103.828 32.899999999999636,103.636 C32.79999999999927,103.443 32.70000000000073,103.19 32.70000000000073,102.878 L32.70000000000073,100.862 C32.70000000000073,100.685 32.600000000000364,100.56 32.600000000000364,100.487 C32.5,100.414 32.399999999999636,100.372 32.20000000000073,100.362 L32.20000000000073,100.253 L33.399999999999636,100.253 L33.399999999999636,102.846 C33.399999999999636,103.003 33.399999999999636,103.141 33.5,103.261 C33.600000000000364,103.38 33.79999999999927,103.44 33.899999999999636,103.44 C34.0,103.44 34.0,103.432 34.100000000000364,103.417 C34.20000000000073,103.401 34.29999999999927,103.372 34.399999999999636,103.331 C34.5,103.289 34.600000000000364,103.219 34.70000000000073,103.12 C34.70000000000073,103.021 34.79999999999927,102.899 34.79999999999927,102.753 L34.79999999999927,100.878 C34.79999999999927,100.69 34.70000000000073,100.563 34.70000000000073,100.495 C34.600000000000364,100.427 34.399999999999636,100.388 34.20000000000073,100.378 L34.20000000000073,100.253 L35.399999999999636,100.253 L35.399999999999636,102.971 C35.399999999999636,103.159 35.5,103.281 35.5,103.339 C35.600000000000364,103.396 35.70000000000073,103.425 35.899999999999636,103.425 L35.899999999999636,103.425 M36.100000000000364,98.8621 L36.100000000000364,98.7371 C36.600000000000364,98.6121 37.0,98.4923 37.399999999999636,98.3777 L37.399999999999636,98.409 L37.399999999999636,103.175 C37.399999999999636,103.393 37.399999999999636,103.537 37.5,103.604 C37.600000000000364,103.672 37.70000000000073,103.711 38.0,103.721 L38.0,103.846 L36.100000000000364,103.846 L36.100000000000364,103.721 C36.399999999999636,103.701 36.5,103.654 36.600000000000364,103.581 C36.70000000000073,103.508 36.70000000000073,103.362 36.70000000000073,103.143 L36.70000000000073,99.3308 C36.70000000000073,99.1433 36.70000000000073,99.0157 36.600000000000364,98.948 C36.600000000000364,98.8803 36.5,98.8465 36.399999999999636,98.8465 C36.29999999999927,98.8465 36.20000000000073,98.8517 36.100000000000364,98.8621 M38.100000000000364,98.8621 L38.100000000000364,98.7371 C38.70000000000073,98.6121 39.100000000000364,98.4923 39.399999999999636,98.3777 L39.5,98.409 L39.5,103.175 C39.5,103.393 39.5,103.537 39.600000000000364,103.604 C39.600000000000364,103.672 39.79999999999927,103.711 40.100000000000364,103.721 L40.100000000000364,103.846 L38.20000000000073,103.846 L38.20000000000073,103.721 C38.399999999999636,103.701 38.600000000000364,103.654 38.70000000000073,103.581 C38.70000000000073,103.508 38.79999999999927,103.362 38.79999999999927,103.143 L38.79999999999927,99.3308 C38.79999999999927,99.1433 38.79999999999927,99.0157 38.70000000000073,98.948 C38.70000000000073,98.8803 38.600000000000364,98.8465 38.399999999999636,98.8465 C38.29999999999927,98.8465 38.20000000000073,98.8517 38.100000000000364,98.8621" />
<path d="M34.600000000000364,53.3465 L35.899999999999636,55.8465 L33.399999999999636,55.8465 L34.600000000000364,53.3465" />
<path d="M31.799999999999272,46.7058 C31.700000000000728,46.7058 31.600000000000364,46.6746 31.600000000000364,46.6121 C31.5,46.5496 31.5,46.4819 31.399999999999636,46.409 C31.399999999999636,46.336 31.299999999999272,46.2683 31.299999999999272,46.2058 C31.200000000000728,46.1433 31.100000000000364,46.1121 31.0,46.1121 C30.700000000000728,46.1121 30.600000000000364,46.3465 30.600000000000364,46.8152 L30.600000000000364,47.7527 L31.5,47.7527 L31.5,47.9871 L30.600000000000364,47.9871 L30.600000000000364,50.5183 C30.600000000000364,50.81 30.600000000000364,50.9975 30.700000000000728,51.0808 C30.799999999999272,51.1642 31.0,51.211 31.299999999999272,51.2215 L31.299999999999272,51.3465 L29.200000000000728,51.3465 L29.200000000000728,51.2215 C29.5,51.211 29.700000000000728,51.1642 29.799999999999272,51.0808 C29.799999999999272,50.9975 29.899999999999636,50.81 29.899999999999636,50.5183 L29.899999999999636,47.9871 L29.200000000000728,47.9871 L29.200000000000728,47.7527 L29.899999999999636,47.7527 C29.899999999999636,47.1485 30.0,46.6824 30.200000000000728,46.3543 C30.399999999999636,46.0261 30.799999999999272,45.8621 31.299999999999272,45.8621 C31.5,45.8621 31.700000000000728,45.9116 31.899999999999636,46.0105 C32.0,46.1095 32.100000000000364,46.2319 32.100000000000364,46.3777 C32.100000000000364,46.4715 32.100000000000364,46.5496 32.0,46.6121 C32.0,46.6746 31.899999999999636,46.7058 31.799999999999272,46.7058 M35.899999999999636,50.9246 L35.899999999999636,51.0496 C35.5,51.1642 35.20000000000073,51.2892 34.899999999999636,51.4246 L34.79999999999927,51.409 L34.79999999999927,50.7215 C34.79999999999927,50.7423 34.79999999999927,50.7918 34.70000000000073,50.8699 C34.600000000000364,50.948 34.5,51.0027 34.5,51.034 C34.5,51.0652 34.399999999999636,51.1121 34.29999999999927,51.1746 C34.29999999999927,51.2371 34.20000000000073,51.2814 34.100000000000364,51.3074 C34.100000000000364,51.3334 34.0,51.3595 33.899999999999636,51.3855 C33.79999999999927,51.4116 33.70000000000073,51.4246 33.600000000000364,51.4246 C33.399999999999636,51.4246 33.100000000000364,51.3282 32.899999999999636,51.1355 C32.79999999999927,50.9428 32.70000000000073,50.6902 32.70000000000073,50.3777 L32.70000000000073,48.3621 C32.70000000000073,48.185 32.600000000000364,48.06 32.600000000000364,47.9871 C32.5,47.9142 32.399999999999636,47.8725 32.20000000000073,47.8621 L32.20000000000073,47.7527 L33.399999999999636,47.7527 L33.399999999999636,50.3465 C33.399999999999636,50.5027 33.399999999999636,50.6407 33.5,50.7605 C33.600000000000364,50.8803 33.79999999999927,50.9402 33.899999999999636,50.9402 C34.0,50.9402 34.0,50.9324 34.100000000000364,50.9168 C34.20000000000073,50.9011 34.29999999999927,50.8725 34.399999999999636,50.8308 C34.5,50.7892 34.600000000000364,50.7189 34.70000000000073,50.6199 C34.70000000000073,50.5209 34.79999999999927,50.3985 34.79999999999927,50.2527 L34.79999999999927,48.3777 C34.79999999999927,48.1902 34.70000000000073,48.0626 34.70000000000073,47.9949 C34.600000000000364,47.9272 34.399999999999636,47.8881 34.20000000000073,47.8777 L34.20000000000073,47.7527 L35.399999999999636,47.7527 L35.399999999999636,50.4715 C35.399999999999636,50.659 35.5,50.7814 35.5,50.8386 C35.600000000000364,50.8959 35.70000000000073,50.9246 35.899999999999636,50.9246 L35.899999999999636,50.9246 M36.100000000000364,46.3621 L36.100000000000364,46.2371 C36.600000000000364,46.1121 37.0,45.9923 37.399999999999636,45.8777 L37.399999999999636,45.909 L37.399999999999636,50.6746 C37.399999999999636,50.8933 37.399999999999636,51.0366 37.5,51.1043 C37.600000000000364,51.172 37.70000000000073,51.211 38.0,51.2215 L38.0,51.3465 L36.100000000000364,51.3465 L36.100000000000364,51.2215 C36.399999999999636,51.2006 36.5,51.1537 36.600000000000364,51.0808 C36.70000000000073,51.0079 36.70000000000073,50.8621 36.70000000000073,50.6433 L36.70000000000073,46.8308 C36.70000000000073,46.6433 36.70000000000073,46.5157 36.600000000000364,46.448 C36.600000000000364,46.3803 36.5,46.3465 36.399999999999636,46.3465 C36.29999999999927,46.3465 36.20000000000073,46.3517 36.100000000000364,46.3621 M38.100000000000364,46.3621 L38.100000000000364,46.2371 C38.70000000000073,46.1121 39.100000000000364,45.9923 39.399999999999636,45.8777 L39.5,45.909 L39.5,50.6746 C39.5,50.8933 39.5,51.0366 39.600000000000364,51.1043 C39.600000000000364,51.172 39.79999999999927,51.211 40.100000000000364,51.2215 L40.100000000000364,51.3465 L38.20000000000073,51.3465 L38.20000000000073,51.2215 C38.399999999999636,51.2006 38.600000000000364,51.1537 38.70000000000073,51.0808 C38.70000000000073,51.0079 38.79999999999927,50.8621 38.79999999999927,50.6433 L38.79999999999927,46.8308 C38.79999999999927,46.6433 38.79999999999927,46.5157 38.70000000000073,46.448 C38.70000000000073,46.3803 38.600000000000364,46.3465 38.399999999999636,46.3465 C38.29999999999927,46.3465 38.20000000000073,46.3517 38.100000000000364,46.3621" />
<path d="M1.8999999999996362,105.846 L3.100000000000364,108.346 L0.6000000000003638,108.346 L1.8999999999996362,105.846" />
<path d="M1.8999999999996362,53.3465 L3.100000000000364,55.8465 L0.6000000000003638,55.8465 L1.8999999999996362,53.3465" />
<polyline points="0.0,63.3465 255.0,63.3465" fill="none" stroke="#000000" stroke-width="0.40" />
<polyline points="0.0,68.3465 255.0,68.3465" fill="none" stroke="#000000" stroke-width="0.40" />
<polyline points="0.0,73.3465 255.0,73.3465" fill="none" stroke="#000000" stroke-width="0.40" />
<polyline points="0.0,78.3465 255.0,78.3465" fill="none" stroke="#000000" stroke-width="0.40" />
<polyline points="0.0,83.3465 255.0,83.3465" fill="none" stroke="#000000" stroke-width="0.40" />
<polyline points="0.0,115.846 255.0,115.846" fill="none" stroke="#000000" stroke-width="0.40" />
<polyline points="0.0,120.846 255.0,120.846" fill="none" stroke="#000000" stroke-width="0.40" />
<polyline points="0.0,125.846 255.0,125.846" fill="none" stroke="#000000" stroke-width="0.40" />
<polyline points="0.0,130.846 255.0,130.846" fill="none" stroke="#000000" stroke-width="0.40" />
<polyline points="0.0,135.846 255.0,135.846" fill="none" stroke="#000000" stroke-width="0.40" />
<polyline points="0.0,168.346 255.0,168.346" fill="none" stroke="#000000" stroke-width="0.40" />
<polyline points="0.0,173.346 255.0,173.346" fill="none" stroke="#000000" stroke-width="0.40" />
<polyline points="0.0,178.346 255.0,178.346" fill="none" stroke="#000000" stroke-width="0.40" />
<polyline points="0.0,183.346 255.0,183.346" fill="none" stroke="#000000" stroke-width="0.40" />
<polyline points="0.0,188.346 255.0,188.346" fill="none" stroke="#000000" stroke-width="0.40" />
<polyline points="0.0,220.846 255.0,220.846" fill="none" stroke="#000000" stroke-width="0.40" />
<polyline points="0.0,225.846 255.0,225.846" fill="none" stroke="#000000" stroke-width="0.40" />
<polyline points="0.0,230.846 255.0,230.846" fill="none" stroke="#000000" stroke-width="0.40" />
<polyline points="0.0,235.846 255.0,235.846" fill="none" stroke="#000000" stroke-width="0.40" />
<polyline points="0.0,240.846 255.0,240.846" fill="none" stroke="#000000" stroke-width="0.40" />
<polyline points="231.0,219.286 231.0,246.68" fill="none" stroke="#000000" stroke-width="0.65" />
<polyline points="236.89999999999964,198.862 236.89999999999964,154.596" fill="none" stroke="#000000" stroke-width="0.65" />
<polyline points="204.10000000000036,198.862 204.10000000000036,154.596" fill="none" stroke="#000000" stroke-width="0.65" />
<polyline points="165.39999999999964,236.786 165.39999999999964,250.846" fill="none" stroke="#000000" stroke-width="0.65" />
<polyline points="171.29999999999927,198.862 171.29999999999927,154.596" fill="none" stroke="#000000" stroke-width="0.65" />
<polyline points="165.20000000000073,76.6305 165.20000000000073,125.846" fill="none" stroke="#000000" stroke-width="0.65" />
<polyline points="165.20000000000073,54.1305 165.20000000000073,73.3465" fill="none" stroke="#000000" stroke-width="0.65" />
<polyline points="99.89999999999964,224.286 99.89999999999964,240.846" fill="none" stroke="#000000" stroke-width="0.65" />
<polyline points="99.89999999999964,76.7855 99.89999999999964,124.596" fill="none" stroke="#000000" stroke-width="0.65" />
<polyline points="99.89999999999964,54.2855 99.89999999999964,72.0965" fill="none" stroke="#000000" stroke-width="0.65" />
<polyline points="67.10000000000036,226.786 67.10000000000036,240.846" fill="none" stroke="#000000" stroke-width="0.65" />
<polyline points="34.29999999999927,226.786 34.29999999999927,240.846" fill="none" stroke="#000000" stroke-width="0.65" />
<polyline points="40.20000000000073,192.407 40.20000000000073,157.096" fill="none" stroke="#000000" stroke-width="0.65" />
<polyline points="34.29999999999927,76.7855 34.29999999999927,124.596" fill="none" stroke="#000000" stroke-width="0.65" />
<polyline points="34.29999999999927,54.2855 34.29999999999927,72.0965" fill="none" stroke="#000000" stroke-width="0.65" />
<polyline points="1.5,76.7855 1.5,124.596" fill="none" stroke="#000000" stroke-width="0.65" />
<polyline points="1.5,54.2855 1.5,72.0965" fill="none" stroke="#000000" stroke-width="0.65" />
<polyline points="229.10000000000036,193.346 238.70000000000073,193.346" fill="none" stroke="#000000" stroke-width="0.80" />
<polyline points="229.10000000000036,198.346 238.70000000000073,198.346" fill="none" stroke="#000000" stroke-width="0.80" />
<polyline points="196.39999999999964,193.346 205.89999999999964,193.346" fill="none" stroke="#000000" stroke-width="0.80" />
<polyline points="196.39999999999964,198.346 205.89999999999964,198.346" fill="none" stroke="#000000" stroke-width="0.80" />
<polyline points="163.60000000000036,193.346 173.20000000000073,193.346" fill="none" stroke="#000000" stroke-width="0.80" />
<polyline points="163.60000000000036,198.346 173.20000000000073,198.346" fill="none" stroke="#000000" stroke-width="0.80" />
<polyline points="163.39999999999964,75.8465 173.39999999999964,75.8465" fill="none" stroke="#000000" stroke-width="0.80" />
<polyline points="157.10000000000036,80.8465 173.39999999999964,80.8465" fill="none" stroke="#000000" stroke-width="0.80" />
<polyline points="157.10000000000036,85.8465 173.39999999999964,85.8465" fill="none" stroke="#000000" stroke-width="0.80" />
<polyline points="157.10000000000036,90.8465 173.39999999999964,90.8465" fill="none" stroke="#000000" stroke-width="0.80" />
<polyline points="157.10000000000036,95.8465 173.39999999999964,95.8465" fill="none" stroke="#000000" stroke-width="0.80" />
<polyline points="157.10000000000036,100.846 173.39999999999964,100.846" fill="none" stroke="#000000" stroke-width="0.80" />
<polyline points="157.10000000000036,105.846 173.39999999999964,105.846" fill="none" stroke="#000000" stroke-width="0.80" />
<polyline points="157.10000000000036,110.846 173.39999999999964,110.846" fill="none" stroke="#000000" stroke-width="0.80" />
<polyline points="163.39999999999964,53.3465 173.39999999999964,53.3465" fill="none" stroke="#000000" stroke-width="0.80" />
<polyline points="157.10000000000036,58.3465 173.39999999999964,58.3465" fill="none" stroke="#000000" stroke-width="0.80" />
<polyline points="98.0,75.8465 107.60000000000036,75.8465" fill="none" stroke="#000000" stroke-width="0.80" />
<polyline points="92.10000000000036,80.8465 107.60000000000036,80.8465" fill="none" stroke="#000000" stroke-width="0.80" />
<polyline points="92.10000000000036,85.8465 107.60000000000036,85.8465" fill="none" stroke="#000000" stroke-width="0.80" />
<polyline points="92.10000000000036,90.8465 107.60000000000036,90.8465" fill="none" stroke="#000000" stroke-width="0.80" />
<polyline points="92.10000000000036,95.8465 107.60000000000036,95.8465" fill="none" stroke="#000000" stroke-width="0.80" />
<polyline points="92.10000000000036,100.846 107.60000000000036,100.846" fill="none" stroke="#000000" stroke-width="0.80" />
<polyline points="92.10000000000036,105.846 107.60000000000036,105.846" fill="none" stroke="#000000" stroke-width="0.80" />
<polyline points="92.10000000000036,110.846 107.60000000000036,110.846" fill="none" stroke="#000000" stroke-width="0.80" />
<polyline points="98.0,53.3465 107.60000000000036,53.3465" fill="none" stroke="#000000" stroke-width="0.80" />
<polyline points="92.10000000000036,58.3465 107.60000000000036,58.3465" fill="none" stroke="#000000" stroke-width="0.80" />
<polyline points="32.5,193.346 42.100000000000364,193.346" fill="none" stroke="#000000" stroke-width="0.80" />
<polyline points="32.5,75.8465 42.100000000000364,75.8465" fill="none" stroke="#000000" stroke-width="0.80" />
<polyline points="26.600000000000364,80.8465 42.100000000000364,80.8465" fill="none" stroke="#000000" stroke-width="0.80" />
<polyline points="26.600000000000364,85.8465 42.100000000000364,85.8465" fill="none" stroke="#000000" stroke-width="0.80" />
<polyline points="26.600000000000364,90.8465 42.100000000000364,90.8465" fill="none" stroke="#000000" stroke-width="0.80" />
<polyline points="26.600000000000364,95.8465 42.100000000000364,95.8465" fill="none" stroke="#000000" stroke-width="0.80" />
<polyline points="26.600000000000364,100.846 42.100000000000364,100.846" fill="none" stroke="#000000" stroke-width="0.80" />
<polyline points="26.600000000000364,105.846 42.100000000000364,105.846" fill="none" stroke="#000000" stroke-width="0.80" />
<polyline points="26.600000000000364,110.846 42.100000000000364,110.846" fill="none" stroke="#000000" stroke-width="0.80" />
<polyline points="32.5,53.3465 42.100000000000364,53.3465" fill="none" stroke="#000000" stroke-width="0.80" />
<polyline points="26.600000000000364,58.3465 42.100000000000364,58.3465" fill="none" stroke="#000000" stroke-width="0.80" />
<polyline points="0.0,75.8465 9.299999999999272,75.8465" fill="none" stroke="#000000" stroke-width="0.80" />
<polyline points="0.0,80.8465 9.299999999999272,80.8465" fill="none" stroke="#000000" stroke-width="0.80" />
<polyline points="0.0,85.8465 9.299999999999272,85.8465" fill="none" stroke="#000000" stroke-width="0.80" />
<polyline points="0.0,90.8465 9.299999999999272,90.8465" fill="none" stroke="#000000" stroke-width="0.80" />
<polyline points="0.0,95.8465 9.299999999999272,95.8465" fill="none" stroke="#000000" stroke-width="0.80" />
<polyline points="0.0,100.846 9.299999999999272,100.846" fill="none" stroke="#000000" stroke-width="0.80" />
<polyline points="0.0,105.846 9.299999999999272,105.846" fill="none" stroke="#000000" stroke-width="0.80" />
<polyline points="0.0,110.846 9.299999999999272,110.846" fill="none" stroke="#000000" stroke-width="0.80" />
<polyline points="0.0,53.3465 9.299999999999272,53.3465" fill="none" stroke="#000000" stroke-width="0.80" />
<polyline points="0.0,58.3465 9.299999999999272,58.3465" fill="none" stroke="#000000" stroke-width="0.80" />
<polyline points="165.60000000000036,74.3465 165.60000000000036,105.846" fill="" stroke="#000000" stroke-width="0.75" />
<polyline points="165.60000000000036,51.8465 165.60000000000036,53.3465" fill="" stroke="#000000" stroke-width="0.75" />
<polyline points="100.20000000000073,74.3465 100.20000000000073,105.846" fill="" stroke="#000000" stroke-width="0.75" />
<polyline points="100.20000000000073,51.8465 100.20000000000073,53.3465" fill="" stroke="#000000" stroke-width="0.75" />
<polyline points="34.600000000000364,74.3465 34.600000000000364,105.846" fill="" stroke="#000000" stroke-width="0.75" />
<polyline points="34.600000000000364,51.8465 34.600000000000364,53.3465" fill="" stroke="#000000" stroke-width="0.75" />
<polyline points="1.8999999999996362,74.3465 1.8999999999996362,105.846" fill="" stroke="#000000" stroke-width="0.75" />
<polyline points="1.8999999999996362,51.8465 1.8999999999996362,53.3465" fill="" stroke="#000000" stroke-width="0.75" />
</svg>
