<?xml version="1.0" encoding="UTF-8" standalone="yes"?>
<svg width="256.0px" height="256.0px" xmlns="http://www.w3.org/2000/svg" xmlns:xlink="http://www.w3.org/1999/xlink" version="1.2" baseProfile="tiny">
<path d="M217.53999999999996,76.69600000000003 C220.78999999999996,78.76300000000003 230.52999999999975,78.76300000000003 233.77000000000044,76.69600000000003 C230.52999999999975,79.56299999999999 220.78999999999996,79.56299999999999 217.53999999999996,76.69600000000003" />
<path d="M130.14000000000033,21.346000000000004 C130.3100000000004,21.253000000000043 130.47999999999956,21.206000000000017 130.64999999999964,21.206000000000017 C130.8199999999997,21.206000000000017 130.98999999999978,21.253000000000043 131.15999999999985,21.346000000000004 L131.09000000000015,25.003000000000043 L133.22999999999956,24.611999999999966 L133.3100000000004,24.611999999999966 C133.53999999999996,24.611999999999966 133.65999999999985,24.721000000000004 133.65999999999985,24.940000000000055 L133.80000000000018,36.346000000000004 C133.6300000000001,36.440000000000055 133.46000000000004,36.486999999999966 133.28999999999996,36.486999999999966 C133.1199999999999,36.486999999999966 132.94999999999982,36.440000000000055 132.77999999999975,36.346000000000004 L132.84000000000015,32.690000000000055 L130.72999999999956,33.08100000000002 L130.65999999999985,33.08100000000002 C130.42000000000007,33.08100000000002 130.30000000000018,32.971000000000004 130.30000000000018,32.75300000000004 L130.14000000000033,21.346000000000004 M132.85999999999967,30.736999999999966 L132.92000000000007,26.596000000000004 L131.07999999999993,26.956000000000017 L131.02000000000044,31.096000000000004 L132.85999999999967,30.736999999999966" />
<path d="M43.27000000000044,28.01800000000003 L43.27000000000044,29.565000000000055 C43.27000000000044,30.116999999999962 43.289999999999964,30.55499999999995 43.340000000000146,30.878000000000043 C43.77000000000044,30.513000000000034 44.07999999999993,30.241999999999962 44.27000000000044,30.065000000000055 C44.470000000000255,29.85699999999997 44.68000000000029,29.567999999999984 44.89000000000033,29.19799999999998 C45.100000000000364,28.827999999999975 45.19999999999982,28.461000000000013 45.19999999999982,28.096000000000004 C45.19999999999982,27.73199999999997 45.13000000000011,27.418999999999983 44.970000000000255,27.158999999999992 C44.8100000000004,26.899 44.600000000000364,26.76800000000003 44.340000000000146,26.76800000000003 C44.029999999999745,26.76800000000003 43.77000000000044,26.888000000000034 43.5600000000004,27.128000000000043 C43.36999999999989,27.388000000000034 43.27000000000044,27.684999999999945 43.27000000000044,28.01800000000003 M42.4399999999996,31.596000000000004 L42.1899999999996,19.706000000000017 C42.38000000000011,19.601999999999975 42.5600000000004,19.549999999999955 42.73999999999978,19.549999999999955 C42.92000000000007,19.549999999999955 43.100000000000364,19.601999999999975 43.279999999999745,19.706000000000017 L43.13000000000011,26.596000000000004 C43.659999999999854,26.138000000000034 44.27000000000044,25.908999999999992 44.970000000000255,25.908999999999992 C45.470000000000255,25.908999999999992 45.89000000000033,26.116999999999962 46.22999999999956,26.533999999999992 C46.56999999999971,26.951000000000022 46.72999999999956,27.42999999999995 46.72999999999956,27.971000000000004 C46.72999999999956,28.30499999999995 46.63000000000011,28.663999999999987 46.409999999999854,29.049999999999955 C46.19999999999982,29.39300000000003 45.97999999999956,29.663999999999987 45.75,29.861999999999966 C45.61999999999989,29.966000000000008 45.279999999999745,30.226999999999975 44.75,30.64300000000003 C44.590000000000146,30.758000000000038 44.409999999999854,30.89300000000003 44.19999999999982,31.049999999999955 C43.97999999999956,31.206000000000017 43.850000000000364,31.30499999999995 43.80000000000018,31.346000000000004 C43.69999999999982,31.399 43.61999999999989,31.503000000000043 43.529999999999745,31.658999999999992 C43.44999999999982,31.793999999999983 43.340000000000146,31.903999999999996 43.220000000000255,31.986999999999966 C43.14000000000033,32.07000000000005 43.029999999999745,32.111999999999966 42.899999999999636,32.111999999999966 C42.77000000000044,32.111999999999966 42.659999999999854,32.065000000000055 42.57999999999993,31.971000000000004 C42.47999999999956,31.878000000000043 42.4399999999996,31.753000000000043 42.4399999999996,31.596000000000004" />
<path d="M237.85999999999967,63.12800000000004 L240.26000000000022,61.174999999999955 C240.32999999999993,61.12199999999996 240.3800000000001,61.096000000000004 240.4399999999996,61.096000000000004 C240.51000000000022,61.096000000000004 240.57999999999993,61.12199999999996 240.64000000000033,61.174999999999955 L241.05000000000018,61.486999999999966 C241.10999999999967,61.549999999999955 241.14000000000033,61.62800000000004 241.14000000000033,61.721000000000004 C241.14000000000033,61.78399999999999 241.10999999999967,61.861999999999966 241.05000000000018,61.95600000000002 L238.72000000000025,63.846000000000004 L241.05000000000018,65.73699999999997 C241.10999999999967,65.80999999999995 241.14000000000033,65.89099999999996 241.14000000000033,65.97900000000004 C241.14000000000033,66.06799999999998 241.10999999999967,66.14300000000003 241.05000000000018,66.20600000000002 L240.64000000000033,66.51800000000003 C240.57999999999993,66.57000000000005 240.51000000000022,66.596 240.4399999999996,66.596 C240.3800000000001,66.596 240.32999999999993,66.57000000000005 240.26000000000022,66.51800000000003 L237.85999999999967,64.56500000000005 L235.4399999999996,66.51800000000003 C235.3699999999999,66.57000000000005 235.3199999999997,66.596 235.26000000000022,66.596 C235.19999999999982,66.596 235.14000000000033,66.57000000000005 235.07999999999993,66.51800000000003 L234.65999999999985,66.20600000000002 C234.59000000000015,66.14300000000003 234.5600000000004,66.06500000000005 234.5600000000004,65.971 C234.5600000000004,65.90899999999999 234.59000000000015,65.83100000000002 234.65999999999985,65.73699999999997 L236.97999999999956,63.846000000000004 L234.65999999999985,61.95600000000002 C234.59000000000015,61.88300000000004 234.5600000000004,61.80200000000002 234.5600000000004,61.714000000000055 C234.5600000000004,61.625 234.59000000000015,61.549999999999955 234.65999999999985,61.486999999999966 L235.07999999999993,61.174999999999955 C235.14000000000033,61.12199999999996 235.19999999999982,61.096000000000004 235.26000000000022,61.096000000000004 C235.3199999999997,61.096000000000004 235.3699999999999,61.12199999999996 235.4399999999996,61.174999999999955 L237.85999999999967,63.12800000000004" />
<path d="M238.94999999999982,71.096 C239.57999999999993,71.096 240.10999999999967,71.25800000000004 240.55000000000018,71.58100000000002 C240.9399999999996,71.93499999999995 241.14000000000033,72.37800000000004 241.14000000000033,72.90899999999999 C241.14000000000033,73.80499999999995 240.6800000000003,74.64300000000003 239.76000000000022,75.42499999999995 C238.82999999999993,76.20600000000002 237.8199999999997,76.596 236.75,76.596 C236.1199999999999,76.596 235.60000000000036,76.43499999999995 235.17000000000007,76.11199999999997 C234.76000000000022,75.75800000000004 234.5600000000004,75.31500000000005 234.5600000000004,74.78399999999999 C234.5600000000004,73.88800000000003 235.02999999999975,73.04999999999995 235.97000000000025,72.26800000000003 C236.8800000000001,71.48699999999997 237.8800000000001,71.096 238.94999999999982,71.096" />
<path d="M213.47000000000025,63.12800000000004 L215.8699999999999,61.174999999999955 C215.9399999999996,61.12199999999996 215.98999999999978,61.096000000000004 216.05000000000018,61.096000000000004 C216.1199999999999,61.096000000000004 216.1899999999996,61.12199999999996 216.25,61.174999999999955 L216.64999999999964,61.486999999999966 C216.72000000000025,61.549999999999955 216.75,61.62800000000004 216.75,61.721000000000004 C216.75,61.78399999999999 216.72000000000025,61.861999999999966 216.64999999999964,61.95600000000002 L214.32999999999993,63.846000000000004 L216.64999999999964,65.73699999999997 C216.72000000000025,65.80999999999995 216.75,65.89099999999996 216.75,65.97900000000004 C216.75,66.06799999999998 216.72000000000025,66.14300000000003 216.64999999999964,66.20600000000002 L216.25,66.51800000000003 C216.1899999999996,66.57000000000005 216.1199999999999,66.596 216.05000000000018,66.596 C215.98999999999978,66.596 215.9399999999996,66.57000000000005 215.8699999999999,66.51800000000003 L213.47000000000025,64.56500000000005 L211.05000000000018,66.51800000000003 C210.97999999999956,66.57000000000005 210.9300000000003,66.596 210.8699999999999,66.596 C210.8100000000004,66.596 210.75,66.57000000000005 210.6899999999996,66.51800000000003 L210.26000000000022,66.20600000000002 C210.19999999999982,66.14300000000003 210.17000000000007,66.06500000000005 210.17000000000007,65.971 C210.17000000000007,65.90899999999999 210.19999999999982,65.83100000000002 210.26000000000022,65.73699999999997 L212.59000000000015,63.846000000000004 L210.26000000000022,61.95600000000002 C210.19999999999982,61.88300000000004 210.17000000000007,61.80200000000002 210.17000000000007,61.714000000000055 C210.17000000000007,61.625 210.19999999999982,61.549999999999955 210.26000000000022,61.486999999999966 L210.6899999999996,61.174999999999955 C210.75,61.12199999999996 210.8100000000004,61.096000000000004 210.8699999999999,61.096000000000004 C210.9300000000003,61.096000000000004 210.97999999999956,61.12199999999996 211.05000000000018,61.174999999999955 L213.47000000000025,63.12800000000004" />
<path d="M214.5600000000004,71.096 C215.1899999999996,71.096 215.72000000000025,71.25800000000004 216.14999999999964,71.58100000000002 C216.55000000000018,71.93499999999995 216.75,72.37800000000004 216.75,72.90899999999999 C216.75,73.80499999999995 216.28999999999996,74.64300000000003 215.3699999999999,75.42499999999995 C214.4399999999996,76.20600000000002 213.4300000000003,76.596 212.35999999999967,76.596 C211.72999999999956,76.596 211.21000000000004,76.43499999999995 210.77999999999975,76.11199999999997 C210.3699999999999,75.75800000000004 210.17000000000007,75.31500000000005 210.17000000000007,74.78399999999999 C210.17000000000007,73.88800000000003 210.64000000000033,73.04999999999995 211.57999999999993,72.26800000000003 C212.48999999999978,71.48699999999997 213.48999999999978,71.096 214.5600000000004,71.096" />
<path d="M214.5600000000004,6.096000000000004 C215.1899999999996,6.096000000000004 215.72000000000025,6.258000000000038 216.14999999999964,6.581000000000017 C216.55000000000018,6.934999999999945 216.75,7.378000000000043 216.75,7.908999999999992 C216.75,8.80499999999995 216.28999999999996,9.643000000000029 215.3699999999999,10.424999999999955 C214.4399999999996,11.206000000000017 213.4300000000003,11.596000000000004 212.35999999999967,11.596000000000004 C211.72999999999956,11.596000000000004 211.21000000000004,11.434999999999945 210.77999999999975,11.111999999999966 C210.3699999999999,10.758000000000038 210.17000000000007,10.315000000000055 210.17000000000007,9.783999999999992 C210.17000000000007,8.888000000000034 210.64000000000033,8.049999999999955 211.57999999999993,7.268000000000029 C212.48999999999978,6.486999999999966 213.48999999999978,6.096000000000004 214.5600000000004,6.096000000000004" />
<path d="M190.17000000000007,13.596000000000004 C190.80000000000018,13.596000000000004 191.32999999999993,13.758000000000038 191.76000000000022,14.081000000000017 C192.15999999999985,14.434999999999945 192.35999999999967,14.878000000000043 192.35999999999967,15.408999999999992 C192.35999999999967,16.30499999999995 191.89999999999964,17.14300000000003 190.97999999999956,17.924999999999955 C190.05000000000018,18.706000000000017 189.03999999999996,19.096000000000004 187.97000000000025,19.096000000000004 C187.34000000000015,19.096000000000004 186.8199999999997,18.934999999999945 186.39000000000033,18.611999999999966 C185.97999999999956,18.258000000000038 185.77999999999975,17.815000000000055 185.77999999999975,17.283999999999992 C185.77999999999975,16.388000000000034 186.25,15.549999999999955 187.1899999999996,14.768000000000029 C188.10000000000036,13.986999999999966 189.10000000000036,13.596000000000004 190.17000000000007,13.596000000000004" />
<path d="M165.77999999999975,23.596000000000004 C166.39999999999964,23.596000000000004 166.9399999999996,23.758000000000038 167.3699999999999,24.081000000000017 C167.77000000000044,24.434999999999945 167.97000000000025,24.878000000000043 167.97000000000025,25.408999999999992 C167.97000000000025,26.30499999999995 167.51000000000022,27.14300000000003 166.59000000000015,27.924999999999955 C165.64999999999964,28.706000000000017 164.64999999999964,29.096000000000004 163.57999999999993,29.096000000000004 C162.94999999999982,29.096000000000004 162.42000000000007,28.934999999999945 162.0,28.611999999999966 C161.59000000000015,28.258000000000038 161.39000000000033,27.815000000000055 161.39000000000033,27.283999999999992 C161.39000000000033,26.388000000000034 161.85999999999967,25.549999999999955 162.78999999999996,24.76800000000003 C163.71000000000004,23.986999999999966 164.71000000000004,23.596000000000004 165.77999999999975,23.596000000000004" />
<path d="M139.27000000000044,73.596 C139.89000000000033,73.596 140.42000000000007,73.75800000000004 140.85999999999967,74.08100000000002 C141.25,74.43499999999995 141.44999999999982,74.87800000000004 141.44999999999982,75.40899999999999 C141.44999999999982,76.30499999999995 140.98999999999978,77.14300000000003 140.07999999999993,77.92499999999995 C139.14000000000033,78.70600000000002 138.1300000000001,79.096 137.0600000000004,79.096 C136.4399999999996,79.096 135.90999999999985,78.93499999999995 135.47999999999956,78.61199999999997 C135.07999999999993,78.25800000000004 134.8699999999999,77.81500000000005 134.8699999999999,77.28399999999999 C134.8699999999999,76.38800000000003 135.34000000000015,75.54999999999995 136.27999999999975,74.76800000000003 C137.19999999999982,73.98699999999997 138.1899999999996,73.596 139.27000000000044,73.596" />
<path d="M139.27000000000044,26.096000000000004 C139.89000000000033,26.096000000000004 140.42000000000007,26.258000000000038 140.85999999999967,26.581000000000017 C141.25,26.934999999999945 141.44999999999982,27.378000000000043 141.44999999999982,27.908999999999992 C141.44999999999982,28.80499999999995 140.98999999999978,29.64300000000003 140.07999999999993,30.424999999999955 C139.14000000000033,31.206000000000017 138.1300000000001,31.596000000000004 137.0600000000004,31.596000000000004 C136.4399999999996,31.596000000000004 135.90999999999985,31.434999999999945 135.47999999999956,31.111999999999966 C135.07999999999993,30.758000000000038 134.8699999999999,30.315000000000055 134.8699999999999,29.783999999999992 C134.8699999999999,28.888000000000034 135.34000000000015,28.049999999999955 136.27999999999975,27.26800000000003 C137.19999999999982,26.486999999999966 138.1899999999996,26.096000000000004 139.27000000000044,26.096000000000004" />
<path d="M121.86999999999989,73.596 C122.48999999999978,73.596 123.02000000000044,73.75800000000004 123.46000000000004,74.08100000000002 C123.85999999999967,74.43499999999995 124.05000000000018,74.87800000000004 124.05000000000018,75.40899999999999 C124.05000000000018,76.30499999999995 123.60000000000036,77.14300000000003 122.68000000000029,77.92499999999995 C121.73999999999978,78.70600000000002 120.73999999999978,79.096 119.65999999999985,79.096 C119.03999999999996,79.096 118.51000000000022,78.93499999999995 118.07999999999993,78.61199999999997 C117.68000000000029,78.25800000000004 117.47999999999956,77.81500000000005 117.47999999999956,77.28399999999999 C117.47999999999956,76.38800000000003 117.9399999999996,75.54999999999995 118.88000000000011,74.76800000000003 C119.80000000000018,73.98699999999997 120.78999999999996,73.596 121.86999999999989,73.596" />
<path d="M121.86999999999989,26.096000000000004 C122.48999999999978,26.096000000000004 123.02000000000044,26.258000000000038 123.46000000000004,26.581000000000017 C123.85999999999967,26.934999999999945 124.05000000000018,27.378000000000043 124.05000000000018,27.908999999999992 C124.05000000000018,28.80499999999995 123.60000000000036,29.64300000000003 122.68000000000029,30.424999999999955 C121.73999999999978,31.206000000000017 120.73999999999978,31.596000000000004 119.65999999999985,31.596000000000004 C119.03999999999996,31.596000000000004 118.51000000000022,31.434999999999945 118.07999999999993,31.111999999999966 C117.68000000000029,30.758000000000038 117.47999999999956,30.315000000000055 117.47999999999956,29.783999999999992 C117.47999999999956,28.888000000000034 117.9399999999996,28.049999999999955 118.88000000000011,27.26800000000003 C119.80000000000018,26.486999999999966 120.78999999999996,26.096000000000004 121.86999999999989,26.096000000000004" />
<path d="M104.47000000000025,73.596 C105.09000000000015,73.596 105.61999999999989,73.75800000000004 106.0600000000004,74.08100000000002 C106.46000000000004,74.43499999999995 106.64999999999964,74.87800000000004 106.64999999999964,75.40899999999999 C106.64999999999964,76.30499999999995 106.19999999999982,77.14300000000003 105.27999999999975,77.92499999999995 C104.34000000000015,78.70600000000002 103.34000000000015,79.096 102.26000000000022,79.096 C101.64000000000033,79.096 101.10999999999967,78.93499999999995 100.6899999999996,78.61199999999997 C100.27999999999975,78.25800000000004 100.07999999999993,77.81500000000005 100.07999999999993,77.28399999999999 C100.07999999999993,76.38800000000003 100.53999999999996,75.54999999999995 101.47999999999956,74.76800000000003 C102.39999999999964,73.98699999999997 103.39000000000033,73.596 104.47000000000025,73.596" />
<path d="M87.06999999999971,73.596 C87.6899999999996,73.596 88.22000000000025,73.75800000000004 88.65999999999985,74.08100000000002 C89.0600000000004,74.43499999999995 89.26000000000022,74.87800000000004 89.26000000000022,75.40899999999999 C89.26000000000022,76.30499999999995 88.80000000000018,77.14300000000003 87.88000000000011,77.92499999999995 C86.9399999999996,78.70600000000002 85.9399999999996,79.096 84.85999999999967,79.096 C84.23999999999978,79.096 83.71000000000004,78.93499999999995 83.28999999999996,78.61199999999997 C82.88000000000011,78.25800000000004 82.68000000000029,77.81500000000005 82.68000000000029,77.28399999999999 C82.68000000000029,76.38800000000003 83.14999999999964,75.54999999999995 84.07999999999993,74.76800000000003 C85.0,73.98699999999997 85.98999999999978,73.596 87.06999999999971,73.596" />
<path d="M87.06999999999971,26.096000000000004 C87.6899999999996,26.096000000000004 88.22000000000025,26.258000000000038 88.65999999999985,26.581000000000017 C89.0600000000004,26.934999999999945 89.26000000000022,27.378000000000043 89.26000000000022,27.908999999999992 C89.26000000000022,28.80499999999995 88.80000000000018,29.64300000000003 87.88000000000011,30.424999999999955 C86.9399999999996,31.206000000000017 85.9399999999996,31.596000000000004 84.85999999999967,31.596000000000004 C84.23999999999978,31.596000000000004 83.71000000000004,31.434999999999945 83.28999999999996,31.111999999999966 C82.88000000000011,30.758000000000038 82.68000000000029,30.315000000000055 82.68000000000029,29.783999999999992 C82.68000000000029,28.888000000000034 83.14999999999964,28.049999999999955 84.07999999999993,27.26800000000003 C85.0,26.486999999999966 85.98999999999978,26.096000000000004 87.06999999999971,26.096000000000004" />
<path d="M69.67000000000007,71.096 C70.28999999999996,71.096 70.81999999999971,71.25800000000004 71.26000000000022,71.58100000000002 C71.65999999999985,71.93499999999995 71.85999999999967,72.37800000000004 71.85999999999967,72.90899999999999 C71.85999999999967,73.80499999999995 71.39999999999964,74.64300000000003 70.47999999999956,75.42499999999995 C69.53999999999996,76.20600000000002 68.53999999999996,76.596 67.47000000000025,76.596 C66.84000000000015,76.596 66.3100000000004,76.43499999999995 65.89000000000033,76.11199999999997 C65.47999999999956,75.75800000000004 65.27999999999975,75.31500000000005 65.27999999999975,74.78399999999999 C65.27999999999975,73.88800000000003 65.75,73.04999999999995 66.68000000000029,72.26800000000003 C67.60000000000036,71.48699999999997 68.60000000000036,71.096 69.67000000000007,71.096" />
<path d="M69.67000000000007,26.096000000000004 C70.28999999999996,26.096000000000004 70.81999999999971,26.258000000000038 71.26000000000022,26.581000000000017 C71.65999999999985,26.934999999999945 71.85999999999967,27.378000000000043 71.85999999999967,27.908999999999992 C71.85999999999967,28.80499999999995 71.39999999999964,29.64300000000003 70.47999999999956,30.424999999999955 C69.53999999999996,31.206000000000017 68.53999999999996,31.596000000000004 67.47000000000025,31.596000000000004 C66.84000000000015,31.596000000000004 66.3100000000004,31.434999999999945 65.89000000000033,31.111999999999966 C65.47999999999956,30.758000000000038 65.27999999999975,30.315000000000055 65.27999999999975,29.783999999999992 C65.27999999999975,28.888000000000034 65.75,28.049999999999955 66.68000000000029,27.26800000000003 C67.60000000000036,26.486999999999966 68.60000000000036,26.096000000000004 69.67000000000007,26.096000000000004" />
<path d="M52.27000000000044,71.096 C52.89000000000033,71.096 53.43000000000029,71.25800000000004 53.85999999999967,71.58100000000002 C54.26000000000022,71.93499999999995 54.460000000000036,72.37800000000004 54.460000000000036,72.90899999999999 C54.460000000000036,73.80499999999995 54.0,74.64300000000003 53.07999999999993,75.42499999999995 C52.14000000000033,76.20600000000002 51.14000000000033,76.596 50.06999999999971,76.596 C49.4399999999996,76.596 48.92000000000007,76.43499999999995 48.48999999999978,76.11199999999997 C48.07999999999993,75.75800000000004 47.88000000000011,75.31500000000005 47.88000000000011,74.78399999999999 C47.88000000000011,73.88800000000003 48.350000000000364,73.04999999999995 49.279999999999745,72.26800000000003 C50.19999999999982,71.48699999999997 51.19999999999982,71.096 52.27000000000044,71.096" />
<path d="M52.27000000000044,26.096000000000004 C52.89000000000033,26.096000000000004 53.43000000000029,26.258000000000038 53.85999999999967,26.581000000000017 C54.26000000000022,26.934999999999945 54.460000000000036,27.378000000000043 54.460000000000036,27.908999999999992 C54.460000000000036,28.80499999999995 54.0,29.64300000000003 53.07999999999993,30.424999999999955 C52.14000000000033,31.206000000000017 51.14000000000033,31.596000000000004 50.06999999999971,31.596000000000004 C49.4399999999996,31.596000000000004 48.92000000000007,31.434999999999945 48.48999999999978,31.111999999999966 C48.07999999999993,30.758000000000038 47.88000000000011,30.315000000000055 47.88000000000011,29.783999999999992 C47.88000000000011,28.888000000000034 48.350000000000364,28.049999999999955 49.279999999999745,27.26800000000003 C50.19999999999982,26.486999999999966 51.19999999999982,26.096000000000004 52.27000000000044,26.096000000000004" />
<path d="M34.86999999999989,71.096 C35.5,71.096 36.029999999999745,71.25800000000004 36.460000000000036,71.58100000000002 C36.85999999999967,71.93499999999995 37.0600000000004,72.37800000000004 37.0600000000004,72.90899999999999 C37.0600000000004,73.80499999999995 36.600000000000364,74.64300000000003 35.68000000000029,75.42499999999995 C34.75,76.20600000000002 33.73999999999978,76.596 32.67000000000007,76.596 C32.039999999999964,76.596 31.520000000000437,76.43499999999995 31.090000000000146,76.11199999999997 C30.68000000000029,75.75800000000004 30.479999999999563,75.31500000000005 30.479999999999563,74.78399999999999 C30.479999999999563,73.88800000000003 30.949999999999818,73.04999999999995 31.890000000000327,72.26800000000003 C32.80000000000018,71.48699999999997 33.80000000000018,71.096 34.86999999999989,71.096" />
<path d="M17.470000000000255,66.096 C18.100000000000364,66.096 18.63000000000011,66.25800000000004 19.0600000000004,66.58100000000002 C19.460000000000036,66.93499999999995 19.659999999999854,67.37800000000004 19.659999999999854,67.90899999999999 C19.659999999999854,68.80499999999995 19.199999999999818,69.64300000000003 18.279999999999745,70.42499999999995 C17.350000000000364,71.20600000000002 16.340000000000146,71.596 15.270000000000437,71.596 C14.640000000000327,71.596 14.11999999999989,71.43499999999995 13.6899999999996,71.11199999999997 C13.279999999999745,70.75800000000004 13.079999999999927,70.31500000000005 13.079999999999927,69.78399999999999 C13.079999999999927,68.88800000000003 13.550000000000182,68.04999999999995 14.489999999999782,67.26800000000003 C15.399999999999636,66.48699999999997 16.399999999999636,66.096 17.470000000000255,66.096" />
<path d="M17.470000000000255,31.096000000000004 C18.100000000000364,31.096000000000004 18.63000000000011,31.258000000000038 19.0600000000004,31.581000000000017 C19.460000000000036,31.934999999999945 19.659999999999854,32.37800000000004 19.659999999999854,32.90899999999999 C19.659999999999854,33.80499999999995 19.199999999999818,34.64300000000003 18.279999999999745,35.424999999999955 C17.350000000000364,36.20600000000002 16.340000000000146,36.596000000000004 15.270000000000437,36.596000000000004 C14.640000000000327,36.596000000000004 14.11999999999989,36.434999999999945 13.6899999999996,36.111999999999966 C13.279999999999745,35.75800000000004 13.079999999999927,35.315000000000055 13.079999999999927,34.78399999999999 C13.079999999999927,33.888000000000034 13.550000000000182,33.049999999999955 14.489999999999782,32.26800000000003 C15.399999999999636,31.486999999999966 16.399999999999636,31.096000000000004 17.470000000000255,31.096000000000004" />
<path d="M252.3100000000004,19.736999999999966 C252.69999999999982,19.736999999999966 252.97999999999956,19.841000000000008 253.14999999999964,20.049999999999955 C253.32999999999993,20.278999999999996 253.4399999999996,20.503000000000043 253.47999999999956,20.721000000000004 C253.48999999999978,20.940000000000055 253.5600000000004,21.158999999999992 253.6800000000003,21.378000000000043 C253.75,21.586000000000013 253.89000000000033,21.690000000000055 254.10000000000036,21.690000000000055 C254.23999999999978,21.690000000000055 254.4399999999996,21.533999999999992 254.69999999999982,21.221000000000004 C254.98999999999978,20.85699999999997 255.1800000000003,20.596000000000004 255.26000000000022,20.440000000000055 C255.3199999999997,20.315000000000055 255.40999999999985,20.253000000000043 255.52000000000044,20.253000000000043 C255.52000000000044,20.253000000000043 255.52999999999975,20.253000000000043 255.5600000000004,20.253000000000043 C255.67000000000007,20.263000000000034 255.75,20.326000000000022 255.8100000000004,20.440000000000055 L252.22999999999956,33.846000000000004 C252.10000000000036,33.98199999999997 251.92000000000007,34.049999999999955 251.6899999999996,34.049999999999955 C251.44999999999982,34.049999999999955 251.27000000000044,33.98199999999997 251.1300000000001,33.846000000000004 L253.14999999999964,27.299999999999955 C252.27000000000044,27.611999999999966 251.5699999999997,27.76800000000003 251.02000000000044,27.76800000000003 C250.5600000000004,27.76800000000003 250.14999999999964,27.621999999999957 249.8100000000004,27.331000000000017 C249.44999999999982,27.038999999999987 249.27000000000044,26.658999999999992 249.27000000000044,26.190000000000055 C249.27000000000044,25.783999999999992 249.40999999999985,25.44500000000005 249.6800000000003,25.174999999999955 C249.97000000000025,24.89300000000003 250.3199999999997,24.753000000000043 250.72999999999956,24.753000000000043 C251.10999999999967,24.753000000000043 251.39000000000033,24.85699999999997 251.5699999999997,25.065000000000055 C251.76000000000022,25.283999999999992 251.8699999999999,25.503000000000043 251.92000000000007,25.721000000000004 C251.96000000000004,25.98199999999997 252.02000000000044,26.206000000000017 252.1199999999999,26.39300000000003 C252.19999999999982,26.601999999999975 252.34000000000015,26.706000000000017 252.53999999999996,26.706000000000017 C252.69999999999982,26.706000000000017 252.92000000000007,26.524 253.21000000000004,26.158999999999992 C253.5,25.815000000000055 253.6899999999996,25.543999999999983 253.76000000000022,25.346000000000004 L254.67000000000007,22.315000000000055 C253.82999999999993,22.616999999999962 253.14000000000033,22.76800000000003 252.59000000000015,22.76800000000003 C252.1199999999999,22.76800000000003 251.71000000000004,22.616999999999962 251.3699999999999,22.315000000000055 C251.01000000000022,22.033999999999992 250.84000000000015,21.658999999999992 250.84000000000015,21.190000000000055 C250.84000000000015,20.783999999999992 250.97999999999956,20.44500000000005 251.27000000000044,20.174999999999955 C251.5600000000004,19.883000000000038 251.89999999999964,19.736999999999966 252.3100000000004,19.736999999999966" />
<path d="M161.26000000000022,74.78399999999999 C161.26000000000022,74.54399999999998 161.39999999999964,74.28399999999999 161.67000000000007,74.00300000000004 C161.85999999999967,73.79399999999998 162.14000000000033,73.54399999999998 162.52999999999975,73.25300000000004 C162.8100000000004,73.06500000000005 163.09000000000015,72.774 163.35999999999967,72.37800000000004 C163.6199999999999,72.00300000000004 163.75,71.59100000000001 163.75,71.14300000000003 C163.75,70.62199999999996 163.57999999999993,70.16399999999999 163.25,69.76800000000003 L162.53999999999996,68.92499999999995 C162.48999999999978,68.87199999999996 162.47000000000025,68.80700000000002 162.47000000000025,68.72900000000004 C162.47000000000025,68.65099999999995 162.5,68.58100000000002 162.57999999999993,68.51800000000003 C162.67000000000007,68.44500000000005 162.75,68.40899999999999 162.8100000000004,68.40899999999999 C162.89999999999964,68.40899999999999 162.97999999999956,68.45100000000002 163.02999999999975,68.53399999999999 L166.0600000000004,72.12800000000004 C166.1899999999996,72.29399999999998 166.25,72.46100000000001 166.25,72.62800000000004 C166.25,72.86699999999996 166.1199999999999,73.12800000000004 165.85999999999967,73.40899999999999 C165.6899999999996,73.596 165.40999999999985,73.846 165.02999999999975,74.15899999999999 C164.72999999999956,74.33600000000001 164.4399999999996,74.62800000000004 164.17000000000007,75.03399999999999 C163.90999999999985,75.40899999999999 163.77999999999975,75.82000000000005 163.77999999999975,76.26800000000003 C163.77999999999975,76.82000000000005 163.9399999999996,77.28399999999999 164.25,77.65899999999999 L165.92000000000007,79.62800000000004 C165.96000000000004,79.66899999999998 165.98999999999978,79.73699999999997 166.01000000000022,79.83100000000002 C166.01000000000022,79.91399999999999 165.97999999999956,79.99199999999996 165.92000000000007,80.06500000000005 C165.82999999999993,80.12800000000004 165.75,80.15899999999999 165.6899999999996,80.15899999999999 C165.65999999999985,80.15899999999999 165.5600000000004,80.08600000000001 165.3699999999999,79.94000000000005 C165.17000000000007,79.78399999999999 164.90999999999985,79.63300000000004 164.59000000000015,79.48699999999997 C164.22999999999956,79.35199999999998 163.8699999999999,79.28399999999999 163.51000000000022,79.28399999999999 C163.1899999999996,79.28399999999999 162.92000000000007,79.37199999999996 162.72000000000025,79.54999999999995 C162.53999999999996,79.73699999999997 162.44999999999982,80.09100000000001 162.44999999999982,80.61199999999997 C162.44999999999982,81.404 162.64000000000033,82.029 163.01000000000022,82.48699999999997 C163.0600000000004,82.53899999999999 163.0600000000004,82.60199999999998 163.02999999999975,82.67499999999995 C163.01000000000022,82.72699999999998 162.96000000000004,82.75300000000004 162.89000000000033,82.75300000000004 C162.8100000000004,82.75300000000004 162.60999999999967,82.51800000000003 162.28999999999996,82.04999999999995 C161.96000000000004,81.55999999999995 161.64999999999964,80.99199999999996 161.3699999999999,80.346 C161.0699999999997,79.66899999999998 160.92000000000007,79.11199999999997 160.92000000000007,78.67499999999995 C160.92000000000007,78.11199999999997 161.1899999999996,77.83100000000002 161.72000000000025,77.83100000000002 C162.32999999999993,77.83100000000002 163.1300000000001,78.03899999999999 164.10999999999967,78.45600000000002 L161.47000000000025,75.28399999999999 C161.32999999999993,75.11699999999996 161.26000000000022,74.95100000000002 161.26000000000022,74.78399999999999" />
<path d="M213.35000000000036,101.81500000000005 C212.98999999999978,101.81500000000005 212.6800000000003,102.00300000000004 212.39000000000033,102.37800000000004 C212.09000000000015,102.774 211.85999999999967,103.21100000000001 211.71000000000004,103.69000000000005 C211.55000000000018,104.149 211.47999999999956,104.54999999999995 211.48999999999978,104.89300000000003 C211.48999999999978,105.38300000000004 211.67000000000007,105.62800000000004 212.02999999999975,105.62800000000004 C212.35999999999967,105.62800000000004 212.6300000000001,105.50300000000004 212.85999999999967,105.25300000000004 C213.1199999999999,104.98199999999997 213.34000000000015,104.51300000000003 213.52000000000044,103.846 C213.71000000000004,103.15899999999999 213.80000000000018,102.67999999999995 213.80000000000018,102.40899999999999 C213.78999999999996,102.01300000000003 213.64000000000033,101.81500000000005 213.35000000000036,101.81500000000005 M210.4300000000003,100.89300000000003 C210.75,100.89300000000003 211.02999999999975,100.97900000000004 211.27999999999975,101.15099999999995 C211.52000000000044,101.32299999999998 211.6800000000003,101.55499999999995 211.73999999999978,101.846 C212.0,101.56500000000005 212.3100000000004,101.33600000000001 212.65999999999985,101.15899999999999 C213.01000000000022,100.98199999999997 213.34000000000015,100.89300000000003 213.64000000000033,100.89300000000003 C214.27000000000044,100.89300000000003 214.75,101.08600000000001 215.10000000000036,101.471 C215.4300000000003,101.87800000000004 215.60000000000036,102.38800000000003 215.60000000000036,103.00300000000004 C215.60000000000036,104.024 215.23999999999978,104.85699999999997 214.52000000000044,105.50300000000004 C213.85999999999967,106.05499999999995 213.27000000000044,106.33100000000002 212.73999999999978,106.33100000000002 C212.42000000000007,106.33100000000002 212.14999999999964,106.29999999999995 211.96000000000004,106.23699999999997 C211.71000000000004,106.17499999999995 211.53999999999996,106.11699999999996 211.46000000000004,106.06500000000005 C211.34000000000015,105.99199999999996 211.25,105.95600000000002 211.1800000000003,105.95600000000002 C211.01000000000022,105.95600000000002 210.89999999999964,106.024 210.85000000000036,106.15899999999999 L210.14000000000033,108.28399999999999 L210.14000000000033,108.37800000000004 C210.14000000000033,108.50300000000004 210.23999999999978,108.57600000000002 210.4300000000003,108.596 C210.48999999999978,108.60699999999997 210.57999999999993,108.61699999999996 210.71000000000004,108.62800000000004 C210.84000000000015,108.63800000000003 210.94999999999982,108.64300000000003 211.02000000000044,108.64300000000003 C211.21000000000004,108.67499999999995 211.30000000000018,108.72699999999998 211.30000000000018,108.79999999999995 C211.30000000000018,108.904 211.25,108.95600000000002 211.15999999999985,108.95600000000002 C210.02000000000044,108.88300000000004 209.28999999999996,108.846 208.96000000000004,108.846 C208.59000000000015,108.846 207.84000000000015,108.88300000000004 206.71000000000004,108.95600000000002 C206.60000000000036,108.95600000000002 206.5600000000004,108.904 206.57999999999993,108.79999999999995 C206.57999999999993,108.72699999999998 206.67000000000007,108.67499999999995 206.82999999999993,108.64300000000003 C206.89999999999964,108.62199999999996 207.23999999999978,108.61199999999997 207.82999999999993,108.61199999999997 C208.10000000000036,108.61199999999997 208.26000000000022,108.529 208.3199999999997,108.36199999999997 L210.35999999999967,102.44000000000005 C210.39000000000033,102.32600000000002 210.42000000000007,102.22699999999998 210.4300000000003,102.14300000000003 C210.4300000000003,101.91399999999999 210.3199999999997,101.80499999999995 210.10999999999967,101.81500000000005 C209.8199999999997,101.81500000000005 209.51000000000022,102.00300000000004 209.1899999999996,102.37800000000004 C208.8800000000001,102.73199999999997 208.6300000000001,103.13300000000004 208.4399999999996,103.58100000000002 C208.39000000000033,103.68499999999995 208.3100000000004,103.74199999999996 208.1899999999996,103.75300000000004 C208.10000000000036,103.75300000000004 208.05000000000018,103.71600000000001 208.05000000000018,103.64300000000003 C208.05000000000018,103.53899999999999 208.07999999999993,103.44000000000005 208.14000000000033,103.346 C208.39999999999964,102.79399999999998 208.6800000000003,102.29399999999998 208.96000000000004,101.846 C209.1199999999999,101.596 209.34000000000015,101.37800000000004 209.60999999999967,101.19000000000005 C209.85999999999967,100.99199999999996 210.1300000000001,100.89300000000003 210.4300000000003,100.89300000000003" />
<path d="M210.17000000000007,86.346 L235.21000000000004,86.346 L235.21000000000004,88.846 L210.17000000000007,88.846 L210.17000000000007,86.346" />
<path d="M161.39000000000033,38.846000000000004 L186.4300000000003,33.712999999999965 L186.4300000000003,36.212999999999965 L161.39000000000033,41.346000000000004 L161.39000000000033,38.846000000000004" />
<path d="M82.68000000000029,90.096 L135.52000000000044,90.096 L135.52000000000044,92.596 L82.68000000000029,92.596 L82.68000000000029,90.096" />
<path d="M82.68000000000029,86.346 L135.52000000000044,86.346 L135.52000000000044,88.846 L82.68000000000029,88.846 L82.68000000000029,86.346" />
<path d="M88.60999999999967,12.596000000000004 L141.46000000000004,12.596000000000004 L141.46000000000004,15.096000000000004 L88.60999999999967,15.096000000000004 L88.60999999999967,12.596000000000004" />
<path d="M123.40999999999985,16.346000000000004 L141.46000000000004,16.346000000000004 L141.46000000000004,18.846000000000004 L123.40999999999985,18.846000000000004 L123.40999999999985,16.346000000000004" />
<path d="M13.079999999999927,88.846 L65.93000000000029,88.846 L65.93000000000029,91.346 L13.079999999999927,91.346 L13.079999999999927,88.846" />
<path d="M13.079999999999927,85.096 L65.93000000000029,85.096 L65.93000000000029,87.596 L13.079999999999927,87.596 L13.079999999999927,85.096" />
<path d="M19.01000000000022,12.596000000000004 L71.85999999999967,12.596000000000004 L71.85999999999967,15.096000000000004 L19.01000000000022,15.096000000000004 L19.01000000000022,12.596000000000004" />
<path d="M53.8100000000004,16.346000000000004 L71.85999999999967,16.346000000000004 L71.85999999999967,18.846000000000004 L53.8100000000004,18.846000000000004 L53.8100000000004,16.346000000000004" />
<path d="M214.72000000000025,11.878000000000043 C215.02000000000044,11.878000000000043 215.34000000000015,12.361999999999966 215.6899999999996,13.331000000000017 C216.01000000000022,14.299999999999955 216.17000000000007,15.221000000000004 216.17000000000007,16.096000000000004 C216.17000000000007,16.836000000000013 215.98999999999978,17.57000000000005 215.6199999999999,18.299999999999955 C215.25,19.081000000000017 214.80000000000018,19.758000000000038 214.27999999999975,20.331000000000017 L212.67000000000007,22.128000000000043 C212.1800000000003,22.701000000000022 211.73999999999978,23.361999999999966 211.34000000000015,24.111999999999966 C210.97999999999956,24.841000000000008 210.80000000000018,25.586000000000013 210.80000000000018,26.346000000000004 L210.17000000000007,26.346000000000004 L210.17000000000007,21.346000000000004 L210.80000000000018,21.346000000000004 C211.14999999999964,21.128000000000043 211.67000000000007,20.774 212.35999999999967,20.283999999999992 C212.67000000000007,20.05499999999995 213.14000000000033,19.663999999999987 213.76000000000022,19.111999999999966 C214.27000000000044,18.64300000000003 214.65999999999985,18.163999999999987 214.92000000000007,17.674999999999955 C215.1899999999996,17.153999999999996 215.32999999999993,16.628000000000043 215.32999999999993,16.096000000000004 C215.32999999999993,14.856999999999971 214.97000000000025,13.621999999999957 214.25,12.393000000000029 C214.25,12.393000000000029 214.25,12.366999999999962 214.25,12.315000000000055 C214.25,12.201000000000022 214.28999999999996,12.106999999999971 214.3699999999999,12.033999999999992 C214.47999999999956,11.92999999999995 214.59000000000015,11.878000000000043 214.72000000000025,11.878000000000043" />
<path d="M218.84000000000015,7.150999999999954 C218.6199999999999,6.927000000000021 218.5,6.658999999999992 218.5,6.346000000000004 C218.5,6.033999999999992 218.6199999999999,5.765999999999963 218.84000000000015,5.54200000000003 C219.0600000000004,5.317999999999984 219.32999999999993,5.206000000000017 219.64000000000033,5.206000000000017 C219.96000000000004,5.206000000000017 220.22000000000025,5.317999999999984 220.4399999999996,5.54200000000003 C220.65999999999985,5.765999999999963 220.77000000000044,6.033999999999992 220.77000000000044,6.346000000000004 C220.77000000000044,6.658999999999992 220.65999999999985,6.927000000000021 220.4399999999996,7.150999999999954 C220.22000000000025,7.375 219.96000000000004,7.486999999999966 219.64000000000033,7.486999999999966 C219.32999999999993,7.486999999999966 219.0600000000004,7.375 218.84000000000015,7.150999999999954" />
<polyline points="0.0,13.846000000000004 255.0,13.846000000000004" fill="none" stroke="#000000" stroke-width="0.40" />
<polyline points="0.0,18.846000000000004 255.0,18.846000000000004" fill="none" stroke="#000000" stroke-width="0.40" />
<polyline points="0.0,23.846000000000004 255.0,23.846000000000004" fill="none" stroke="#000000" stroke-width="0.40" />
<polyline points="0.0,28.846000000000004 255.0,28.846000000000004" fill="none" stroke="#000000" stroke-width="0.40" />
<polyline points="0.0,33.846000000000004 255.0,33.846000000000004" fill="none" stroke="#000000" stroke-width="0.40" />
<polyline points="0.0,66.346 255.0,66.346" fill="none" stroke="#000000" stroke-width="0.40" />
<polyline points="0.0,71.346 255.0,71.346" fill="none" stroke="#000000" stroke-width="0.40" />
<polyline points="0.0,76.346 255.0,76.346" fill="none" stroke="#000000" stroke-width="0.40" />
<polyline points="0.0,81.346 255.0,81.346" fill="none" stroke="#000000" stroke-width="0.40" />
<polyline points="0.0,86.346 255.0,86.346" fill="none" stroke="#000000" stroke-width="0.40" />
<polyline points="152.67000000000007,66.346 152.67000000000007,86.346" fill="" stroke="#000000" stroke-width="0.80" />
<polyline points="152.67000000000007,13.846000000000004 152.67000000000007,33.846000000000004" fill="" stroke="#000000" stroke-width="0.80" />
<polyline points="234.89000000000033,65.90999999999997 234.89000000000033,87.596" fill="" stroke="#000000" stroke-width="0.65" />
<polyline points="210.5,65.90999999999997 210.5,87.596" fill="" stroke="#000000" stroke-width="0.65" />
<polyline points="210.5,9.785999999999945 210.5,26.346000000000004" fill="" stroke="#000000" stroke-width="0.65" />
<polyline points="186.10000000000036,17.285999999999945 186.10000000000036,35.096000000000004" fill="" stroke="#000000" stroke-width="0.65" />
<polyline points="161.71000000000004,27.285999999999945 161.71000000000004,40.096000000000004" fill="" stroke="#000000" stroke-width="0.65" />
<polyline points="135.19999999999982,77.28599999999994 135.19999999999982,91.346" fill="" stroke="#000000" stroke-width="0.65" />
<polyline points="141.1300000000001,27.90700000000004 141.1300000000001,13.846000000000004" fill="" stroke="#000000" stroke-width="0.65" />
<polyline points="117.80000000000018,77.28599999999994 117.80000000000018,91.346" fill="" stroke="#000000" stroke-width="0.65" />
<polyline points="123.72999999999956,27.90700000000004 123.72999999999956,13.846000000000004" fill="" stroke="#000000" stroke-width="0.65" />
<polyline points="100.39999999999964,77.28599999999994 100.39999999999964,91.346" fill="" stroke="#000000" stroke-width="0.65" />
<polyline points="83.0,77.28599999999994 83.0,91.346" fill="" stroke="#000000" stroke-width="0.65" />
<polyline points="88.93000000000029,27.90700000000004 88.93000000000029,13.846000000000004" fill="" stroke="#000000" stroke-width="0.65" />
<polyline points="65.60000000000036,74.78599999999994 65.60000000000036,90.096" fill="" stroke="#000000" stroke-width="0.65" />
<polyline points="71.53999999999996,27.90700000000004 71.53999999999996,13.846000000000004" fill="" stroke="#000000" stroke-width="0.65" />
<polyline points="48.19999999999982,74.78599999999994 48.19999999999982,90.096" fill="" stroke="#000000" stroke-width="0.65" />
<polyline points="54.14000000000033,27.90700000000004 54.14000000000033,13.846000000000004" fill="" stroke="#000000" stroke-width="0.65" />
<polyline points="30.800000000000182,74.78599999999994 30.800000000000182,90.096" fill="" stroke="#000000" stroke-width="0.65" />
<polyline points="13.409999999999854,69.78599999999994 13.409999999999854,90.096" fill="" stroke="#000000" stroke-width="0.65" />
<polyline points="19.340000000000146,32.90700000000004 19.340000000000146,13.846000000000004" fill="" stroke="#000000" stroke-width="0.65" />
<polyline points="208.67000000000007,8.846000000000004 218.25,8.846000000000004" fill="" stroke="#000000" stroke-width="0.80" />
</svg>
