<?xml version="1.0" encoding="UTF-8" standalone="yes"?>
<svg width="256.0px" height="256.0px" xmlns="http://www.w3.org/2000/svg" xmlns:xlink="http://www.w3.org/1999/xlink" version="1.2" baseProfile="tiny">
<path d="M90.85400000000004,30.79200000000003 C90.71799999999996,30.69799999999998 90.57500000000005,30.591000000000008 90.42399999999998,30.47199999999998 C90.27300000000002,30.351999999999975 90.10400000000004,30.184999999999945 89.91600000000005,29.97199999999998 C89.72900000000004,29.758000000000038 89.56200000000001,29.53200000000004 89.41600000000005,29.29200000000003 C89.26999999999998,29.05200000000002 89.15099999999995,28.760999999999967 89.05700000000002,28.41700000000003 C88.96299999999997,28.07299999999998 88.91600000000005,27.71900000000005 88.91600000000005,27.354000000000042 C88.91600000000005,26.96900000000005 88.96299999999997,26.604000000000042 89.05700000000002,26.260999999999967 C89.15099999999995,25.91700000000003 89.26499999999999,25.633000000000038 89.40099999999995,25.408999999999992 C89.53599999999994,25.184999999999945 89.70500000000004,24.966000000000008 89.90800000000002,24.753000000000043 C90.11199999999997,24.538999999999987 90.28099999999995,24.383000000000038 90.41600000000005,24.283999999999992 C90.55200000000002,24.184999999999945 90.70299999999997,24.077999999999975 90.86900000000003,23.964000000000055 L90.947,24.089000000000055 C90.71799999999996,24.287000000000035 90.53099999999995,24.461000000000013 90.38499999999999,24.611999999999966 C90.23900000000003,24.763000000000034 90.09900000000005,24.964000000000055 89.96299999999997,25.214000000000055 C89.82799999999997,25.464000000000055 89.731,25.760999999999967 89.67399999999998,26.104000000000042 C89.61699999999996,26.44799999999998 89.58799999999997,26.860000000000014 89.58799999999997,27.339000000000055 C89.58799999999997,27.827999999999975 89.61699999999996,28.253000000000043 89.67399999999998,28.611999999999966 C89.731,28.97199999999998 89.82799999999997,29.275999999999954 89.96299999999997,29.525999999999954 C90.09900000000005,29.775999999999954 90.23900000000003,29.98199999999997 90.38499999999999,30.144000000000005 C90.53099999999995,30.30499999999995 90.71799999999996,30.474000000000046 90.947,30.650999999999954 L90.85400000000004,30.79200000000003 M91.38499999999999,27.66700000000003 C91.38499999999999,27.07299999999998 91.55899999999997,26.59699999999998 91.90800000000002,26.236999999999966 C92.25699999999995,25.878000000000043 92.66600000000005,25.69799999999998 93.13499999999999,25.69799999999998 C93.46799999999996,25.69799999999998 93.75199999999995,25.778999999999996 93.98699999999997,25.940000000000055 C94.221,26.101999999999975 94.33799999999997,26.297000000000025 94.33799999999997,26.525999999999954 C94.33799999999997,26.610000000000014 94.30200000000002,26.684999999999945 94.22900000000004,26.753000000000043 C94.15599999999995,26.821000000000026 94.06700000000001,26.854000000000042 93.96299999999997,26.854000000000042 C93.78599999999994,26.854000000000042 93.66600000000005,26.735000000000014 93.60400000000004,26.495000000000005 L93.55700000000002,26.32299999999998 C93.51499999999999,26.16700000000003 93.46299999999997,26.062999999999988 93.40099999999995,26.010999999999967 C93.33799999999997,25.958999999999946 93.23400000000004,25.932999999999993 93.08799999999997,25.932999999999993 C92.76499999999999,25.932999999999993 92.505,26.059999999999945 92.30700000000002,26.315000000000055 C92.10900000000004,26.571000000000026 92.00999999999999,26.90700000000004 92.00999999999999,27.32299999999998 C92.00999999999999,27.770999999999958 92.125,28.140999999999963 92.35400000000004,28.432999999999993 C92.58299999999997,28.724000000000046 92.88,28.870000000000005 93.24400000000003,28.870000000000005 C93.46299999999997,28.870000000000005 93.65300000000002,28.812999999999988 93.81500000000005,28.69799999999998 C93.976,28.583999999999946 94.15099999999995,28.390999999999963 94.33799999999997,28.120000000000005 L94.447,28.182999999999993 C94.39499999999998,28.297000000000025 94.351,28.388000000000034 94.31500000000005,28.456000000000017 C94.27800000000002,28.524 94.20799999999997,28.628000000000043 94.10400000000004,28.769000000000005 C94.0,28.908999999999992 93.89800000000002,29.020999999999958 93.79899999999998,29.104000000000042 C93.70000000000005,29.187999999999988 93.57000000000005,29.265999999999963 93.40800000000002,29.339000000000055 C93.24699999999996,29.412000000000035 93.07799999999997,29.44799999999998 92.90099999999995,29.44799999999998 C92.46299999999997,29.44799999999998 92.101,29.28200000000004 91.81500000000005,28.94799999999998 C91.52800000000002,28.61500000000001 91.38499999999999,28.187999999999988 91.38499999999999,27.66700000000003 M95.05700000000002,23.964000000000055 C95.20299999999997,24.047000000000025 95.34900000000005,24.149 95.49400000000003,24.269000000000005 C95.63999999999999,24.388000000000034 95.80899999999997,24.55499999999995 96.00199999999995,24.769000000000005 C96.19500000000005,24.98199999999997 96.36199999999997,25.211000000000013 96.50199999999995,25.456000000000017 C96.64300000000003,25.701000000000022 96.76300000000003,25.991999999999962 96.86199999999997,26.331000000000017 C96.96000000000004,26.66999999999996 97.00999999999999,27.025999999999954 97.00999999999999,27.400999999999954 C97.00999999999999,27.775999999999954 96.96000000000004,28.135999999999967 96.86199999999997,28.479000000000042 C96.76300000000003,28.82299999999998 96.64800000000002,29.110000000000014 96.51800000000003,29.339000000000055 C96.38800000000003,29.567999999999984 96.21799999999996,29.787000000000035 96.00999999999999,29.995000000000005 C95.80200000000002,30.202999999999975 95.63199999999995,30.360000000000014 95.50199999999995,30.464000000000055 C95.37199999999996,30.567999999999984 95.21799999999996,30.67700000000002 95.04100000000005,30.79200000000003 L94.96299999999997,30.650999999999954 C95.20299999999997,30.464000000000055 95.39499999999998,30.29200000000003 95.54100000000005,30.135999999999967 C95.68700000000001,29.979000000000042 95.82500000000005,29.778999999999996 95.95500000000004,29.533999999999992 C96.08500000000004,29.288999999999987 96.17899999999997,28.995000000000005 96.23699999999997,28.650999999999954 C96.29399999999998,28.307999999999993 96.322,27.895999999999958 96.322,27.41700000000003 C96.322,26.92700000000002 96.29399999999998,26.503000000000043 96.23699999999997,26.144000000000005 C96.17899999999997,25.783999999999992 96.08500000000004,25.476999999999975 95.95500000000004,25.22199999999998 C95.82500000000005,24.966000000000008 95.68700000000001,24.760999999999967 95.54100000000005,24.604000000000042 C95.39499999999998,24.44799999999998 95.20299999999997,24.275999999999954 94.96299999999997,24.089000000000055 L95.05700000000002,23.964000000000055 M100.83799999999997,24.635999999999967 C100.73400000000004,24.635999999999967 100.54100000000005,24.692999999999984 100.25999999999999,24.807999999999993 L100.25999999999999,24.69799999999998 L101.68200000000002,23.964000000000055 L101.74400000000003,23.979000000000042 L101.74400000000003,28.775999999999954 C101.74400000000003,28.974000000000046 101.79399999999998,29.101999999999975 101.89300000000003,29.158999999999992 C101.99199999999996,29.216000000000008 102.197,29.245000000000005 102.50999999999999,29.245000000000005 L102.50999999999999,29.370000000000005 L100.30700000000002,29.370000000000005 L100.30700000000002,29.245000000000005 C100.60900000000004,29.235000000000014 100.81200000000001,29.190000000000055 100.91600000000005,29.111999999999966 C101.01999999999998,29.033999999999992 101.072,28.870000000000005 101.072,28.620000000000005 L101.072,25.010999999999967 C101.072,24.760999999999967 100.99400000000003,24.635999999999967 100.83799999999997,24.635999999999967 M103.822,29.54200000000003 L103.80700000000002,29.385999999999967 C104.41099999999994,29.28200000000004 104.92399999999998,29.024 105.346,28.611999999999966 C105.76800000000003,28.201000000000022 106.06200000000001,27.66700000000003 106.22900000000004,27.010999999999967 C105.83299999999997,27.32299999999998 105.43200000000002,27.479000000000042 105.02599999999995,27.479000000000042 C104.59900000000005,27.479000000000042 104.25199999999995,27.327999999999975 103.98699999999997,27.025999999999954 C103.721,26.724000000000046 103.58799999999997,26.333999999999946 103.58799999999997,25.854000000000042 C103.58799999999997,25.312999999999988 103.74699999999996,24.860000000000014 104.06500000000005,24.495000000000005 C104.38199999999995,24.129999999999995 104.78099999999995,23.94799999999998 105.25999999999999,23.94799999999998 C105.79100000000005,23.94799999999998 106.22400000000005,24.158999999999992 106.55700000000002,24.581000000000017 C106.88999999999999,25.003000000000043 107.05700000000002,25.547000000000025 107.05700000000002,26.214000000000055 C107.05700000000002,26.432999999999993 107.03899999999999,26.653999999999996 107.00199999999995,26.878000000000043 C106.96600000000001,27.101999999999975 106.88,27.366999999999962 106.74400000000003,27.674999999999955 C106.60900000000004,27.98199999999997 106.42899999999997,28.254999999999995 106.20500000000004,28.495000000000005 C105.981,28.735000000000014 105.66600000000005,28.952999999999975 105.25999999999999,29.150999999999954 C104.85400000000004,29.349000000000046 104.375,29.479000000000042 103.822,29.54200000000003 M105.322,27.120000000000005 C105.42700000000002,27.120000000000005 105.54100000000005,27.10699999999997 105.66600000000005,27.081000000000017 C105.79100000000005,27.05499999999995 105.91899999999998,26.991999999999962 106.04899999999998,26.894000000000005 C106.17899999999997,26.79499999999996 106.24400000000003,26.672000000000025 106.24400000000003,26.525999999999954 L106.24400000000003,26.214000000000055 C106.24400000000003,24.860000000000014 105.89499999999998,24.182999999999993 105.197,24.182999999999993 C105.03099999999995,24.182999999999993 104.88800000000003,24.226999999999975 104.76800000000003,24.315000000000055 C104.64800000000002,24.403999999999996 104.55899999999997,24.520999999999958 104.50199999999995,24.66700000000003 C104.44500000000005,24.812999999999988 104.40099999999995,24.958999999999946 104.36900000000003,25.104000000000042 C104.33799999999997,25.25 104.322,25.40700000000004 104.322,25.57299999999998 C104.322,26.05200000000002 104.41399999999999,26.42999999999995 104.596,26.706000000000017 C104.77800000000002,26.98199999999997 105.01999999999998,27.120000000000005 105.322,27.120000000000005 M109.40099999999995,29.479000000000042 C108.85900000000004,29.479000000000042 108.42399999999998,29.265999999999963 108.096,28.839000000000055 C107.76800000000003,28.412000000000035 107.60400000000004,27.84400000000005 107.60400000000004,27.135999999999967 C107.60400000000004,26.91700000000003 107.62699999999995,26.692999999999984 107.67399999999998,26.464000000000055 C107.721,26.235000000000014 107.81500000000005,25.97199999999998 107.95500000000004,25.674999999999955 C108.096,25.378000000000043 108.28300000000002,25.111999999999966 108.51800000000003,24.878000000000043 C108.75199999999995,24.644000000000005 109.07500000000005,24.434999999999945 109.48699999999997,24.253000000000043 C109.89800000000002,24.071000000000026 110.375,23.952999999999975 110.91600000000005,23.900999999999954 L110.93200000000002,24.025999999999954 C110.29600000000005,24.129999999999995 109.76800000000003,24.385999999999967 109.346,24.79200000000003 C108.92399999999998,25.19799999999998 108.65599999999995,25.702999999999975 108.54100000000005,26.307999999999993 C108.79100000000005,26.162000000000035 108.981,26.067999999999984 109.11199999999997,26.025999999999954 C109.24199999999996,25.985000000000014 109.39499999999998,25.964000000000055 109.572,25.964000000000055 C110.04100000000005,25.964000000000055 110.41399999999999,26.111999999999966 110.69000000000005,26.408999999999992 C110.96600000000001,26.706000000000017 111.10400000000004,27.104000000000042 111.10400000000004,27.604000000000042 C111.10400000000004,28.15700000000004 110.94500000000005,28.60699999999997 110.62699999999995,28.956000000000017 C110.30899999999997,29.30499999999995 109.90099999999995,29.479000000000042 109.40099999999995,29.479000000000042 M109.27599999999995,26.32299999999998 C108.91099999999994,26.32299999999998 108.66399999999999,26.400999999999954 108.53300000000002,26.557999999999993 C108.40300000000002,26.714000000000055 108.33799999999997,26.94799999999998 108.33799999999997,27.260999999999967 C108.33799999999997,27.875 108.44200000000001,28.360000000000014 108.65099999999995,28.714000000000055 C108.85900000000004,29.067999999999984 109.13499999999999,29.245000000000005 109.47900000000004,29.245000000000005 C109.76999999999998,29.245000000000005 109.98900000000003,29.128000000000043 110.13499999999999,28.894000000000005 C110.28099999999995,28.658999999999992 110.35400000000004,28.32299999999998 110.35400000000004,27.885999999999967 C110.35400000000004,27.385999999999967 110.25999999999999,27.0 110.072,26.729000000000042 C109.88499999999999,26.458999999999946 109.61900000000003,26.32299999999998 109.27599999999995,26.32299999999998 M113.65099999999995,26.400999999999954 C114.13999999999999,26.754999999999995 114.471,27.05200000000002 114.64300000000003,27.29200000000003 C114.81500000000005,27.53200000000004 114.90099999999995,27.807999999999993 114.90099999999995,28.120000000000005 C114.90099999999995,28.537000000000035 114.75699999999995,28.866999999999962 114.471,29.111999999999966 C114.18399999999997,29.35699999999997 113.80200000000002,29.479000000000042 113.322,29.479000000000042 C112.86400000000003,29.479000000000042 112.49199999999996,29.35699999999997 112.20500000000004,29.111999999999966 C111.91899999999998,28.866999999999962 111.77599999999995,28.547000000000025 111.77599999999995,28.150999999999954 C111.77599999999995,27.879999999999995 111.84100000000001,27.653999999999996 111.971,27.47199999999998 C112.101,27.288999999999987 112.38499999999999,27.037000000000035 112.822,26.714000000000055 C112.39499999999998,26.339000000000055 112.12199999999996,26.062999999999988 112.00199999999995,25.885999999999967 C111.88199999999995,25.708999999999946 111.822,25.49000000000001 111.822,25.229000000000042 C111.822,24.86500000000001 111.96600000000001,24.559999999999945 112.25199999999995,24.315000000000055 C112.53899999999999,24.071000000000026 112.90599999999995,23.94799999999998 113.35400000000004,23.94799999999998 C113.75,23.94799999999998 114.07500000000005,24.05499999999995 114.33000000000004,24.269000000000005 C114.58500000000004,24.48199999999997 114.71299999999997,24.760999999999967 114.71299999999997,25.104000000000042 C114.71299999999997,25.375 114.63499999999999,25.604000000000042 114.47900000000004,25.79200000000003 C114.322,25.979000000000042 114.04600000000005,26.182999999999993 113.65099999999995,26.400999999999954 M113.02599999999995,26.870000000000005 C112.79600000000005,27.057999999999993 112.63499999999999,27.241999999999962 112.54100000000005,27.424999999999955 C112.447,27.60699999999997 112.40099999999995,27.827999999999975 112.40099999999995,28.089000000000055 C112.40099999999995,28.432999999999993 112.49199999999996,28.711000000000013 112.67399999999998,28.924999999999955 C112.856,29.138000000000034 113.09900000000005,29.245000000000005 113.40099999999995,29.245000000000005 C113.66099999999994,29.245000000000005 113.87199999999996,29.163999999999987 114.03300000000002,29.003000000000043 C114.19500000000005,28.841000000000008 114.27599999999995,28.629999999999995 114.27599999999995,28.370000000000005 C114.27599999999995,28.287000000000035 114.26800000000003,28.206000000000017 114.25199999999995,28.128000000000043 C114.23699999999997,28.049999999999955 114.21799999999996,27.985000000000014 114.197,27.932999999999993 C114.17700000000002,27.879999999999995 114.13800000000003,27.817999999999984 114.08000000000004,27.745000000000005 C114.02300000000002,27.672000000000025 113.97900000000004,27.616999999999962 113.947,27.581000000000017 C113.91600000000005,27.54499999999996 113.856,27.486999999999966 113.76800000000003,27.408999999999992 C113.67899999999997,27.331000000000017 113.61199999999997,27.275999999999954 113.56500000000005,27.245000000000005 C113.51800000000003,27.214000000000055 113.43200000000002,27.153999999999996 113.30700000000002,27.065000000000055 C113.18200000000002,26.976999999999975 113.08799999999997,26.912000000000035 113.02599999999995,26.870000000000005 M113.41600000000005,26.260999999999967 C113.42700000000002,26.25 113.46600000000001,26.22199999999998 113.53300000000002,26.174999999999955 C113.601,26.128000000000043 113.64800000000002,26.091000000000008 113.67399999999998,26.065000000000055 C113.70000000000005,26.038999999999987 113.74400000000003,26.0 113.80700000000002,25.94799999999998 C113.86900000000003,25.895999999999958 113.91600000000005,25.84400000000005 113.947,25.79200000000003 C113.97900000000004,25.74000000000001 114.01499999999999,25.67700000000002 114.05700000000002,25.604000000000042 C114.09900000000005,25.53200000000004 114.12699999999995,25.451000000000022 114.14300000000003,25.361999999999966 C114.15800000000002,25.274 114.16600000000005,25.182999999999993 114.16600000000005,25.089000000000055 C114.16600000000005,24.817999999999984 114.08799999999997,24.599000000000046 113.93200000000002,24.432999999999993 C113.77599999999995,24.265999999999963 113.56200000000001,24.182999999999993 113.29100000000005,24.182999999999993 C113.04100000000005,24.182999999999993 112.83500000000004,24.258000000000038 112.67399999999998,24.408999999999992 C112.51300000000003,24.559999999999945 112.43200000000002,24.75 112.43200000000002,24.979000000000042 C112.43200000000002,25.19799999999998 112.50699999999995,25.40700000000004 112.65800000000002,25.604000000000042 C112.80899999999997,25.80200000000002 113.06200000000001,26.020999999999958 113.41600000000005,26.260999999999967 M122.77599999999995,26.69799999999998 C122.77599999999995,26.937999999999988 122.74699999999996,27.172000000000025 122.69000000000005,27.400999999999954 C122.63199999999995,27.629999999999995 122.53300000000002,27.866999999999962 122.39300000000003,28.111999999999966 C122.25199999999995,28.35699999999997 122.07000000000005,28.567999999999984 121.846,28.745000000000005 C121.62199999999996,28.922000000000025 121.322,29.071000000000026 120.947,29.190000000000055 C120.572,29.309999999999945 120.15099999999995,29.370000000000005 119.68200000000002,29.370000000000005 L117.41600000000005,29.370000000000005 L117.41600000000005,29.214000000000055 C117.71799999999996,29.192999999999984 117.91099999999994,29.140999999999963 117.99400000000003,29.057999999999993 C118.07799999999997,28.974000000000046 118.11900000000003,28.787000000000035 118.11900000000003,28.495000000000005 L118.11900000000003,24.94799999999998 C118.11900000000003,24.65700000000004 118.08000000000004,24.47199999999998 118.00199999999995,24.394000000000005 C117.92399999999998,24.315000000000055 117.72900000000004,24.260999999999967 117.41600000000005,24.229000000000042 L117.41600000000005,24.07299999999998 L119.572,24.07299999999998 C120.06200000000001,24.07299999999998 120.49699999999996,24.128000000000043 120.87699999999995,24.236999999999966 C121.25699999999995,24.34699999999998 121.56500000000005,24.486999999999966 121.79899999999998,24.658999999999992 C122.03300000000002,24.831000000000017 122.226,25.037000000000035 122.37699999999995,25.275999999999954 C122.52800000000002,25.515999999999963 122.63199999999995,25.75 122.69000000000005,25.979000000000042 C122.74699999999996,26.208999999999946 122.77599999999995,26.44799999999998 122.77599999999995,26.69799999999998 M121.88499999999999,26.760999999999967 C121.88499999999999,26.53200000000004 121.86400000000003,26.309999999999945 121.822,26.09699999999998 C121.78099999999995,25.883000000000038 121.70000000000005,25.66999999999996 121.58000000000004,25.456000000000017 C121.46000000000004,25.241999999999962 121.30700000000002,25.059999999999945 121.11900000000003,24.908999999999992 C120.93200000000002,24.758000000000038 120.68700000000001,24.633000000000038 120.38499999999999,24.533999999999992 C120.08299999999997,24.434999999999945 119.73900000000003,24.385999999999967 119.35400000000004,24.385999999999967 C119.18700000000001,24.385999999999967 119.07500000000005,24.40700000000004 119.01800000000003,24.44799999999998 C118.96000000000004,24.49000000000001 118.93200000000002,24.57299999999998 118.93200000000002,24.69799999999998 L118.93200000000002,28.745000000000005 C118.93200000000002,28.870000000000005 118.96000000000004,28.956000000000017 119.01800000000003,29.003000000000043 C119.07500000000005,29.049999999999955 119.18700000000001,29.07299999999998 119.35400000000004,29.07299999999998 C121.04100000000005,29.07299999999998 121.88499999999999,28.30200000000002 121.88499999999999,26.760999999999967 M125.71299999999997,26.885999999999967 C125.57799999999997,26.458999999999946 125.471,26.190000000000055 125.39300000000003,26.081000000000017 C125.31500000000005,25.97199999999998 125.18700000000001,25.90700000000004 125.00999999999999,25.885999999999967 L125.00999999999999,25.775999999999954 L126.63499999999999,25.775999999999954 L126.63499999999999,25.885999999999967 C126.447,25.91700000000003 126.322,25.951000000000022 126.25999999999999,25.986999999999966 C126.197,26.024 126.16600000000005,26.089000000000055 126.16600000000005,26.182999999999993 C126.16600000000005,26.245000000000005 126.21299999999997,26.400999999999954 126.30700000000002,26.650999999999954 L126.97900000000004,28.44799999999998 L127.697,26.66700000000003 C127.79100000000005,26.44799999999998 127.83799999999997,26.270999999999958 127.83799999999997,26.135999999999967 C127.83799999999997,26.07299999999998 127.81200000000001,26.024 127.75999999999999,25.986999999999966 C127.70799999999997,25.951000000000022 127.61400000000003,25.91700000000003 127.47900000000004,25.885999999999967 L127.47900000000004,25.775999999999954 L128.46299999999997,25.775999999999954 L128.46299999999997,25.885999999999967 C128.38,25.91700000000003 128.322,25.956000000000017 128.29100000000005,26.003000000000043 C128.26,26.049999999999955 128.20799999999997,26.15700000000004 128.135,26.32299999999998 L127.02599999999995,29.089000000000055 C126.92100000000005,29.349000000000046 126.84900000000005,29.479000000000042 126.80700000000002,29.479000000000042 C126.76499999999999,29.479000000000042 126.70299999999997,29.36500000000001 126.61900000000003,29.135999999999967 L125.88499999999999,27.245000000000005 L124.99400000000003,29.16700000000003 C124.90099999999995,29.375 124.83299999999997,29.479000000000042 124.79100000000005,29.479000000000042 C124.75,29.479000000000042 124.68200000000002,29.36500000000001 124.58799999999997,29.135999999999967 L123.50999999999999,26.400999999999954 C123.42700000000002,26.192999999999984 123.35900000000004,26.057999999999993 123.30700000000002,25.995000000000005 C123.255,25.932999999999993 123.18200000000002,25.895999999999958 123.08799999999997,25.885999999999967 L123.08799999999997,25.775999999999954 L124.52599999999995,25.775999999999954 L124.52599999999995,25.885999999999967 C124.38,25.90700000000004 124.28099999999995,25.934999999999945 124.22900000000004,25.97199999999998 C124.17700000000002,26.008000000000038 124.15099999999995,26.067999999999984 124.15099999999995,26.150999999999954 C124.15099999999995,26.235000000000014 124.16600000000005,26.317999999999984 124.197,26.400999999999954 L124.99400000000003,28.479000000000042 L125.71299999999997,26.885999999999967 M128.72900000000004,28.57299999999998 C128.72900000000004,28.479000000000042 128.73900000000003,28.394000000000005 128.76,28.315000000000055 C128.78099999999995,28.236999999999966 128.817,28.162000000000035 128.86900000000003,28.089000000000055 C128.92100000000005,28.015999999999963 128.97400000000005,27.951000000000022 129.02599999999995,27.894000000000005 C129.07799999999997,27.836000000000013 129.15099999999995,27.775999999999954 129.24400000000003,27.714000000000055 C129.33799999999997,27.650999999999954 129.41600000000005,27.599000000000046 129.47900000000004,27.557999999999993 C129.54100000000005,27.515999999999963 129.635,27.46900000000005 129.76,27.41700000000003 C129.885,27.36500000000001 129.981,27.32299999999998 130.04899999999998,27.29200000000003 C130.11699999999996,27.260999999999967 130.226,27.216000000000008 130.37699999999995,27.158999999999992 C130.52800000000002,27.101999999999975 130.635,27.057999999999993 130.697,27.025999999999954 L130.697,26.54200000000003 C130.697,26.104000000000042 130.5,25.885999999999967 130.10400000000004,25.885999999999967 C129.937,25.885999999999967 129.79899999999998,25.924999999999955 129.69000000000005,26.003000000000043 C129.58000000000004,26.081000000000017 129.52599999999995,26.172000000000025 129.52599999999995,26.275999999999954 C129.52599999999995,26.317999999999984 129.53300000000002,26.375 129.54899999999998,26.44799999999998 C129.56500000000005,26.520999999999958 129.572,26.567999999999984 129.572,26.589000000000055 C129.572,26.682999999999993 129.53599999999994,26.763000000000034 129.46299999999997,26.831000000000017 C129.39,26.899 129.30200000000002,26.932999999999993 129.197,26.932999999999993 C129.10400000000004,26.932999999999993 129.02300000000002,26.899 128.95500000000004,26.831000000000017 C128.88800000000003,26.763000000000034 128.85400000000004,26.682999999999993 128.85400000000004,26.589000000000055 C128.85400000000004,26.339000000000055 128.98400000000004,26.128000000000043 129.24400000000003,25.956000000000017 C129.505,25.783999999999992 129.822,25.69799999999998 130.197,25.69799999999998 C130.625,25.69799999999998 130.91899999999998,25.80200000000002 131.08000000000004,26.010999999999967 C131.24199999999996,26.21900000000005 131.322,26.537000000000035 131.322,26.964000000000055 L131.322,28.510999999999967 C131.322,28.687999999999988 131.341,28.809999999999945 131.37699999999995,28.878000000000043 C131.414,28.946000000000026 131.47900000000004,28.979000000000042 131.572,28.979000000000042 C131.67700000000002,28.979000000000042 131.79100000000005,28.92700000000002 131.91600000000005,28.82299999999998 L131.91600000000005,29.04200000000003 C131.78099999999995,29.19799999999998 131.66099999999994,29.30499999999995 131.55700000000002,29.361999999999966 C131.45299999999997,29.41999999999996 131.33299999999997,29.44799999999998 131.197,29.44799999999998 C131.04100000000005,29.44799999999998 130.92700000000002,29.400999999999954 130.85400000000004,29.307999999999993 C130.78099999999995,29.214000000000055 130.73400000000004,29.062999999999988 130.71299999999997,28.854000000000042 C130.255,29.25 129.86900000000003,29.44799999999998 129.55700000000002,29.44799999999998 C129.317,29.44799999999998 129.11900000000003,29.366999999999962 128.96299999999997,29.206000000000017 C128.80700000000002,29.04499999999996 128.72900000000004,28.833999999999946 128.72900000000004,28.57299999999998 M130.697,28.370000000000005 L130.697,27.214000000000055 C130.21799999999996,27.390999999999963 129.885,27.562999999999988 129.697,27.729000000000042 C129.51,27.895999999999958 129.41600000000005,28.09400000000005 129.41600000000005,28.32299999999998 C129.41600000000005,28.54200000000003 129.46799999999996,28.702999999999975 129.572,28.807999999999993 C129.67700000000002,28.912000000000035 129.79100000000005,28.964000000000055 129.91600000000005,28.964000000000055 C130.09299999999996,28.964000000000055 130.28599999999994,28.90700000000004 130.49400000000003,28.79200000000003 C130.57799999999997,28.74000000000001 130.63199999999995,28.687999999999988 130.65800000000002,28.635999999999967 C130.68399999999997,28.583999999999946 130.697,28.495000000000005 130.697,28.370000000000005 M134.385,26.44799999999998 C134.30200000000002,26.44799999999998 134.20000000000005,26.400999999999954 134.08000000000004,26.307999999999993 C133.96000000000004,26.214000000000055 133.885,26.16700000000003 133.85400000000004,26.16700000000003 C133.75,26.16700000000003 133.63,26.245000000000005 133.49400000000003,26.400999999999954 C133.35900000000004,26.557999999999993 133.29100000000005,26.702999999999975 133.29100000000005,26.839000000000055 L133.29100000000005,28.650999999999954 C133.29100000000005,28.879999999999995 133.33500000000004,29.033999999999992 133.42399999999998,29.111999999999966 C133.51300000000003,29.190000000000055 133.692,29.235000000000014 133.96299999999997,29.245000000000005 L133.96299999999997,29.370000000000005 L132.04100000000005,29.370000000000005 L132.04100000000005,29.245000000000005 C132.30200000000002,29.202999999999975 132.46000000000004,29.150999999999954 132.51800000000003,29.089000000000055 C132.57500000000005,29.025999999999954 132.60400000000004,28.895999999999958 132.60400000000004,28.69799999999998 L132.60400000000004,26.682999999999993 C132.60400000000004,26.504999999999995 132.58500000000004,26.379999999999995 132.54899999999998,26.307999999999993 C132.51300000000003,26.235000000000014 132.442,26.19799999999998 132.33799999999997,26.19799999999998 C132.255,26.19799999999998 132.16099999999994,26.208999999999946 132.05700000000002,26.229000000000042 L132.05700000000002,26.104000000000042 C132.48400000000004,25.96900000000005 132.88,25.833999999999946 133.24400000000003,25.69799999999998 L133.29100000000005,25.714000000000055 L133.29100000000005,26.41700000000003 C133.48900000000003,26.145999999999958 133.65599999999995,25.958999999999946 133.79100000000005,25.854000000000042 C133.92700000000002,25.75 134.07799999999997,25.69799999999998 134.24400000000003,25.69799999999998 C134.39,25.69799999999998 134.5,25.73199999999997 134.572,25.799999999999955 C134.64499999999998,25.866999999999962 134.68200000000002,25.96900000000005 134.68200000000002,26.104000000000042 C134.68200000000002,26.208999999999946 134.65599999999995,26.29200000000003 134.60400000000004,26.354000000000042 C134.55200000000002,26.41700000000003 134.47900000000004,26.44799999999998 134.385,26.44799999999998 M137.36900000000003,24.729000000000042 C137.28599999999994,24.729000000000042 137.21299999999997,24.69799999999998 137.15099999999995,24.635999999999967 C137.08799999999997,24.57299999999998 137.039,24.504999999999995 137.00199999999995,24.432999999999993 C136.966,24.360000000000014 136.91099999999994,24.29200000000003 136.83799999999997,24.229000000000042 C136.765,24.16700000000003 136.68200000000002,24.135999999999967 136.58799999999997,24.135999999999967 C136.28599999999994,24.135999999999967 136.135,24.370000000000005 136.135,24.839000000000055 L136.135,25.775999999999954 L137.11900000000003,25.775999999999954 L137.11900000000003,26.010999999999967 L136.135,26.010999999999967 L136.135,28.54200000000003 C136.135,28.833999999999946 136.17700000000002,29.020999999999958 136.26,29.104000000000042 C136.34299999999996,29.187999999999988 136.55200000000002,29.235000000000014 136.885,29.245000000000005 L136.885,29.370000000000005 L134.79100000000005,29.370000000000005 L134.79100000000005,29.245000000000005 C135.08299999999997,29.235000000000014 135.26800000000003,29.187999999999988 135.346,29.104000000000042 C135.42399999999998,29.020999999999958 135.46299999999997,28.833999999999946 135.46299999999997,28.54200000000003 L135.46299999999997,26.010999999999967 L134.80700000000002,26.010999999999967 L134.80700000000002,25.775999999999954 L135.46299999999997,25.775999999999954 C135.47400000000005,25.172000000000025 135.58500000000004,24.706000000000017 135.79899999999998,24.378000000000043 C136.01300000000003,24.049999999999955 136.36900000000003,23.885999999999967 136.86900000000003,23.885999999999967 C137.10900000000004,23.885999999999967 137.30700000000002,23.934999999999945 137.46299999999997,24.033999999999992 C137.61900000000003,24.133000000000038 137.697,24.254999999999995 137.697,24.400999999999954 C137.697,24.495000000000005 137.66600000000005,24.57299999999998 137.60400000000004,24.635999999999967 C137.54100000000005,24.69799999999998 137.46299999999997,24.729000000000042 137.36900000000003,24.729000000000042 M145.072,24.79200000000003 L143.02599999999995,29.370000000000005 L142.91600000000005,29.370000000000005 L140.91600000000005,24.979000000000042 L140.91600000000005,28.19799999999998 C140.91600000000005,28.604000000000042 140.96299999999997,28.873000000000047 141.05700000000002,29.003000000000043 C141.15099999999995,29.133000000000038 141.35400000000004,29.202999999999975 141.66600000000005,29.214000000000055 L141.66600000000005,29.370000000000005 L139.79100000000005,29.370000000000005 L139.79100000000005,29.214000000000055 C140.11400000000003,29.192999999999984 140.322,29.120000000000005 140.41600000000005,28.995000000000005 C140.51,28.870000000000005 140.55700000000002,28.604000000000042 140.55700000000002,28.19799999999998 L140.55700000000002,24.94799999999998 C140.55700000000002,24.65700000000004 140.51300000000003,24.46900000000005 140.42399999999998,24.385999999999967 C140.33500000000004,24.30200000000002 140.13,24.25 139.80700000000002,24.229000000000042 L139.80700000000002,24.07299999999998 L141.385,24.07299999999998 L143.22900000000004,28.120000000000005 L144.99400000000003,24.07299999999998 L146.58799999999997,24.07299999999998 L146.58799999999997,24.229000000000042 C146.28599999999994,24.260999999999967 146.096,24.317999999999984 146.01800000000003,24.400999999999954 C145.94000000000005,24.485000000000014 145.90099999999995,24.66700000000003 145.90099999999995,24.94799999999998 L145.90099999999995,28.495000000000005 C145.90099999999995,28.775999999999954 145.942,28.961000000000013 146.02599999999995,29.049999999999955 C146.10900000000004,29.138000000000034 146.29600000000005,29.192999999999984 146.58799999999997,29.214000000000055 L146.58799999999997,29.370000000000005 L144.35400000000004,29.370000000000005 L144.35400000000004,29.214000000000055 C144.66600000000005,29.192999999999984 144.86400000000003,29.135999999999967 144.947,29.04200000000003 C145.03099999999995,28.94799999999998 145.072,28.74000000000001 145.072,28.41700000000003 L145.072,24.79200000000003 M150.55700000000002,28.94799999999998 L150.55700000000002,29.07299999999998 C150.14,29.187999999999988 149.77599999999995,29.312999999999988 149.46299999999997,29.44799999999998 L149.43200000000002,29.432999999999993 L149.41600000000005,28.745000000000005 C149.40599999999995,28.765999999999963 149.36199999999997,28.815000000000055 149.28300000000002,28.894000000000005 C149.20500000000004,28.97199999999998 149.15099999999995,29.025999999999954 149.11900000000003,29.057999999999993 C149.08799999999997,29.089000000000055 149.03300000000002,29.135999999999967 148.95500000000004,29.19799999999998 C148.87699999999995,29.260999999999967 148.80899999999997,29.30499999999995 148.75199999999995,29.331000000000017 C148.69500000000005,29.35699999999997 148.62199999999996,29.383000000000038 148.53300000000002,29.408999999999992 C148.44500000000005,29.434999999999945 148.35400000000004,29.44799999999998 148.26,29.44799999999998 C147.96799999999996,29.44799999999998 147.73400000000004,29.351999999999975 147.55700000000002,29.158999999999992 C147.38,28.966000000000008 147.29100000000005,28.714000000000055 147.29100000000005,28.400999999999954 L147.29100000000005,26.385999999999967 C147.29100000000005,26.208999999999946 147.25699999999995,26.083999999999946 147.19000000000005,26.010999999999967 C147.12199999999996,25.937999999999988 146.98900000000003,25.895999999999958 146.79100000000005,25.885999999999967 L146.79100000000005,25.775999999999954 L147.96299999999997,25.775999999999954 L147.96299999999997,28.370000000000005 C147.96299999999997,28.525999999999954 148.01999999999998,28.663999999999987 148.135,28.783999999999992 C148.25,28.903999999999996 148.38,28.964000000000055 148.52599999999995,28.964000000000055 C148.58799999999997,28.964000000000055 148.65800000000002,28.956000000000017 148.73699999999997,28.940000000000055 C148.81500000000005,28.924999999999955 148.90599999999995,28.895999999999958 149.01,28.854000000000042 C149.11400000000003,28.812999999999988 149.20299999999997,28.741999999999962 149.27599999999995,28.644000000000005 C149.34900000000005,28.54499999999996 149.385,28.422000000000025 149.385,28.275999999999954 L149.385,26.400999999999954 C149.385,26.214000000000055 149.34900000000005,26.086000000000013 149.27599999999995,26.019000000000005 C149.20299999999997,25.951000000000022 149.04100000000005,25.912000000000035 148.79100000000005,25.900999999999954 L148.79100000000005,25.775999999999954 L150.05700000000002,25.775999999999954 L150.05700000000002,28.495000000000005 C150.05700000000002,28.682999999999993 150.08799999999997,28.80499999999995 150.15099999999995,28.861999999999966 C150.21299999999997,28.91999999999996 150.33799999999997,28.94799999999998 150.52599999999995,28.94799999999998 L150.55700000000002,28.94799999999998 M152.76,25.854000000000042 C152.76999999999998,25.854000000000042 152.812,25.827999999999975 152.885,25.775999999999954 L152.97900000000004,25.775999999999954 L153.01,26.854000000000042 L152.885,26.854000000000042 C152.80200000000002,26.5 152.692,26.248000000000047 152.55700000000002,26.09699999999998 C152.42100000000005,25.946000000000026 152.23900000000003,25.870000000000005 152.01,25.870000000000005 C151.83299999999997,25.870000000000005 151.687,25.922000000000025 151.572,26.025999999999954 C151.45799999999997,26.129999999999995 151.40099999999995,26.260999999999967 151.40099999999995,26.41700000000003 C151.40099999999995,26.645999999999958 151.515,26.827999999999975 151.74400000000003,26.964000000000055 L152.60400000000004,27.479000000000042 C152.84299999999996,27.625 153.015,27.770999999999958 153.11900000000003,27.91700000000003 C153.22400000000005,28.062999999999988 153.27599999999995,28.235000000000014 153.27599999999995,28.432999999999993 C153.27599999999995,28.702999999999975 153.164,28.940000000000055 152.94000000000005,29.144000000000005 C152.716,29.34699999999998 152.45299999999997,29.44799999999998 152.15099999999995,29.44799999999998 C152.015,29.44799999999998 151.83500000000004,29.424999999999955 151.61199999999997,29.378000000000043 C151.38800000000003,29.331000000000017 151.25,29.307999999999993 151.197,29.307999999999993 C151.11400000000003,29.307999999999993 151.05200000000002,29.339000000000055 151.01,29.400999999999954 L150.90099999999995,29.400999999999954 L150.90099999999995,28.150999999999954 L151.04100000000005,28.150999999999954 C151.125,28.525999999999954 151.22400000000005,28.79200000000003 151.33799999999997,28.94799999999998 C151.505,29.16700000000003 151.74400000000003,29.275999999999954 152.05700000000002,29.275999999999954 C152.255,29.275999999999954 152.414,29.224000000000046 152.53300000000002,29.120000000000005 C152.65300000000002,29.015999999999963 152.71299999999997,28.875 152.71299999999997,28.69799999999998 C152.71299999999997,28.458999999999946 152.572,28.260999999999967 152.29100000000005,28.104000000000042 L151.83799999999997,27.839000000000055 C151.49400000000003,27.640999999999963 151.25199999999995,27.456000000000017 151.11199999999997,27.283999999999992 C150.971,27.111999999999966 150.90099999999995,26.912000000000035 150.90099999999995,26.682999999999993 C150.90099999999995,26.390999999999963 151.00199999999995,26.153999999999996 151.20500000000004,25.97199999999998 C151.40800000000002,25.788999999999987 151.67100000000005,25.69799999999998 151.99400000000003,25.69799999999998 C152.16099999999994,25.69799999999998 152.322,25.724000000000046 152.47900000000004,25.775999999999954 C152.635,25.827999999999975 152.72900000000004,25.854000000000042 152.76,25.854000000000042 M154.04100000000005,26.229000000000042 C153.91600000000005,26.229000000000042 153.80200000000002,26.235000000000014 153.697,26.245000000000005 L153.697,26.135999999999967 C154.072,26.03200000000004 154.48900000000003,25.885999999999967 154.947,25.69799999999998 L154.97900000000004,25.714000000000055 L154.97900000000004,28.557999999999993 C154.97900000000004,28.839000000000055 155.01300000000003,29.019000000000005 155.08000000000004,29.09699999999998 C155.14800000000002,29.174999999999955 155.312,29.224000000000046 155.572,29.245000000000005 L155.572,29.370000000000005 L153.66600000000005,29.370000000000005 L153.66600000000005,29.245000000000005 C153.947,29.235000000000014 154.125,29.187999999999988 154.197,29.104000000000042 C154.26999999999998,29.020999999999958 154.30700000000002,28.839000000000055 154.30700000000002,28.557999999999993 L154.30700000000002,26.69799999999998 C154.30700000000002,26.520999999999958 154.28599999999994,26.399 154.24400000000003,26.331000000000017 C154.20299999999997,26.263000000000034 154.135,26.229000000000042 154.04100000000005,26.229000000000042 M154.572,23.900999999999954 C154.687,23.900999999999954 154.78599999999994,23.942999999999984 154.86900000000003,24.025999999999954 C154.95299999999997,24.110000000000014 154.99400000000003,24.208999999999946 154.99400000000003,24.32299999999998 C154.99400000000003,24.437999999999988 154.95299999999997,24.533999999999992 154.86900000000003,24.611999999999966 C154.78599999999994,24.690000000000055 154.687,24.729000000000042 154.572,24.729000000000042 C154.45799999999997,24.729000000000042 154.36199999999997,24.687999999999988 154.28300000000002,24.604000000000042 C154.20500000000004,24.520999999999958 154.16600000000005,24.424999999999955 154.16600000000005,24.315000000000055 C154.16600000000005,24.206000000000017 154.20500000000004,24.110000000000014 154.28300000000002,24.025999999999954 C154.36199999999997,23.942999999999984 154.45799999999997,23.900999999999954 154.572,23.900999999999954 M155.96299999999997,27.66700000000003 C155.96299999999997,27.07299999999998 156.13800000000003,26.59699999999998 156.48699999999997,26.236999999999966 C156.83500000000004,25.878000000000043 157.24400000000003,25.69799999999998 157.71299999999997,25.69799999999998 C158.04600000000005,25.69799999999998 158.33000000000004,25.778999999999996 158.56500000000005,25.940000000000055 C158.79899999999998,26.101999999999975 158.91600000000005,26.297000000000025 158.91600000000005,26.525999999999954 C158.91600000000005,26.610000000000014 158.88,26.684999999999945 158.80700000000002,26.753000000000043 C158.73400000000004,26.821000000000026 158.64499999999998,26.854000000000042 158.54100000000005,26.854000000000042 C158.36400000000003,26.854000000000042 158.24400000000003,26.735000000000014 158.18200000000002,26.495000000000005 L158.135,26.32299999999998 C158.09299999999996,26.16700000000003 158.04100000000005,26.062999999999988 157.97900000000004,26.010999999999967 C157.91600000000005,25.958999999999946 157.812,25.932999999999993 157.66600000000005,25.932999999999993 C157.34299999999996,25.932999999999993 157.08299999999997,26.059999999999945 156.885,26.315000000000055 C156.687,26.571000000000026 156.58799999999997,26.90700000000004 156.58799999999997,27.32299999999998 C156.58799999999997,27.770999999999958 156.70299999999997,28.140999999999963 156.93200000000002,28.432999999999993 C157.16099999999994,28.724000000000046 157.45799999999997,28.870000000000005 157.822,28.870000000000005 C158.04100000000005,28.870000000000005 158.231,28.812999999999988 158.39300000000003,28.69799999999998 C158.55399999999997,28.583999999999946 158.72900000000004,28.390999999999963 158.91600000000005,28.120000000000005 L159.02599999999995,28.182999999999993 C158.97400000000005,28.297000000000025 158.92899999999997,28.388000000000034 158.89300000000003,28.456000000000017 C158.856,28.524 158.78599999999994,28.628000000000043 158.68200000000002,28.769000000000005 C158.57799999999997,28.908999999999992 158.476,29.020999999999958 158.37699999999995,29.104000000000042 C158.27800000000002,29.187999999999988 158.14800000000002,29.265999999999963 157.98699999999997,29.339000000000055 C157.82500000000005,29.412000000000035 157.65599999999995,29.44799999999998 157.47900000000004,29.44799999999998 C157.04100000000005,29.44799999999998 156.67899999999997,29.28200000000004 156.39300000000003,28.94799999999998 C156.106,28.61500000000001 155.96299999999997,28.187999999999988 155.96299999999997,27.66700000000003 M160.30700000000002,28.57299999999998 C160.42100000000005,28.57299999999998 160.52300000000002,28.616999999999962 160.61199999999997,28.706000000000017 C160.70000000000005,28.79499999999996 160.74400000000003,28.900999999999954 160.74400000000003,29.025999999999954 C160.74400000000003,29.140999999999963 160.70000000000005,29.241999999999962 160.61199999999997,29.331000000000017 C160.52300000000002,29.41999999999996 160.41600000000005,29.464000000000055 160.29100000000005,29.464000000000055 C160.17700000000002,29.464000000000055 160.07799999999997,29.41999999999996 159.99400000000003,29.331000000000017 C159.91099999999994,29.241999999999962 159.86900000000003,29.140999999999963 159.86900000000003,29.025999999999954 C159.86900000000003,28.900999999999954 159.914,28.79499999999996 160.00199999999995,28.706000000000017 C160.091,28.616999999999962 160.192,28.57299999999998 160.30700000000002,28.57299999999998" />
</svg>
