<?xml version="1.0" encoding="UTF-8" standalone="yes"?>
<svg width="256.0px" height="256.0px" xmlns="http://www.w3.org/2000/svg" xmlns:xlink="http://www.w3.org/1999/xlink" version="1.2" baseProfile="tiny">
<path d="M41.79999999999927,10.518000000000029 L41.79999999999927,12.065000000000055 C41.79999999999927,12.616999999999962 41.79999999999927,13.05499999999995 41.899999999999636,13.378000000000043 C42.29999999999927,13.013000000000034 42.600000000000364,12.741999999999962 42.79999999999927,12.565000000000055 C43.0,12.356999999999971 43.20000000000073,12.067999999999984 43.399999999999636,11.697999999999979 C43.600000000000364,11.327999999999975 43.70000000000073,10.961000000000013 43.70000000000073,10.596000000000004 C43.70000000000073,10.231999999999971 43.600000000000364,9.918999999999983 43.5,9.658999999999992 C43.29999999999927,9.399000000000001 43.100000000000364,9.268000000000029 42.899999999999636,9.268000000000029 C42.600000000000364,9.268000000000029 42.29999999999927,9.388000000000034 42.100000000000364,9.628000000000043 C41.899999999999636,9.888000000000034 41.79999999999927,10.184999999999945 41.79999999999927,10.518000000000029 M41.0,14.096000000000004 L40.70000000000073,2.2060000000000173 C40.899999999999636,2.1019999999999754 41.100000000000364,2.0499999999999545 41.29999999999927,2.0499999999999545 C41.399999999999636,2.0499999999999545 41.600000000000364,2.1019999999999754 41.79999999999927,2.2060000000000173 L41.600000000000364,9.096000000000004 C42.20000000000073,8.638000000000034 42.79999999999927,8.408999999999992 43.5,8.408999999999992 C44.0,8.408999999999992 44.399999999999636,8.616999999999962 44.70000000000073,9.033999999999992 C45.100000000000364,9.451000000000022 45.29999999999927,9.92999999999995 45.29999999999927,10.471000000000004 C45.29999999999927,10.80499999999995 45.100000000000364,11.163999999999987 44.899999999999636,11.549999999999955 C44.70000000000073,11.893000000000029 44.5,12.163999999999987 44.29999999999927,12.361999999999966 C44.100000000000364,12.466000000000008 43.79999999999927,12.726999999999975 43.29999999999927,13.143000000000029 C43.100000000000364,13.258000000000038 42.899999999999636,13.393000000000029 42.70000000000073,13.549999999999955 C42.5,13.706000000000017 42.399999999999636,13.80499999999995 42.29999999999927,13.846000000000004 C42.20000000000073,13.899000000000001 42.100000000000364,14.003000000000043 42.100000000000364,14.158999999999992 C42.0,14.293999999999983 41.899999999999636,14.403999999999996 41.70000000000073,14.486999999999966 C41.70000000000073,14.57000000000005 41.5,14.611999999999966 41.399999999999636,14.611999999999966 C41.29999999999927,14.611999999999966 41.20000000000073,14.565000000000055 41.100000000000364,14.471000000000004 C41.0,14.378000000000043 41.0,14.253000000000043 41.0,14.096000000000004" />
<path d="M155.70000000000073,73.596 C156.29999999999927,73.596 156.89999999999964,73.75800000000004 157.29999999999927,74.08100000000002 C157.70000000000073,74.43499999999995 157.89999999999964,74.87800000000004 157.89999999999964,75.40899999999999 C157.89999999999964,76.30499999999995 157.39999999999964,77.14300000000003 156.5,77.92499999999995 C155.60000000000036,78.70600000000002 154.60000000000036,79.096 153.5,79.096 C152.89999999999964,79.096 152.29999999999927,78.93499999999995 151.89999999999964,78.61199999999997 C151.5,78.25800000000004 151.29999999999927,77.81500000000005 151.29999999999927,77.28399999999999 C151.29999999999927,76.38800000000003 151.79999999999927,75.54999999999995 152.70000000000073,74.76800000000003 C153.60000000000036,73.98699999999997 154.60000000000036,73.596 155.70000000000073,73.596" />
<path d="M135.70000000000073,73.596 C136.29999999999927,73.596 136.89999999999964,73.75800000000004 137.29999999999927,74.08100000000002 C137.70000000000073,74.43499999999995 137.89999999999964,74.87800000000004 137.89999999999964,75.40899999999999 C137.89999999999964,76.30499999999995 137.39999999999964,77.14300000000003 136.5,77.92499999999995 C135.60000000000036,78.70600000000002 134.60000000000036,79.096 133.5,79.096 C132.89999999999964,79.096 132.39999999999964,78.93499999999995 131.89999999999964,78.61199999999997 C131.5,78.25800000000004 131.29999999999927,77.81500000000005 131.29999999999927,77.28399999999999 C131.29999999999927,76.38800000000003 131.79999999999927,75.54999999999995 132.70000000000073,74.76800000000003 C133.70000000000073,73.98699999999997 134.60000000000036,73.596 135.70000000000073,73.596" />
<path d="M115.70000000000073,71.096 C116.39999999999964,71.096 116.89999999999964,71.25800000000004 117.29999999999927,71.58100000000002 C117.70000000000073,71.93499999999995 117.89999999999964,72.37800000000004 117.89999999999964,72.90899999999999 C117.89999999999964,73.80499999999995 117.5,74.64300000000003 116.5,75.42499999999995 C115.60000000000036,76.20600000000002 114.60000000000036,76.596 113.5,76.596 C112.89999999999964,76.596 112.39999999999964,76.43499999999995 112.0,76.11199999999997 C111.5,75.75800000000004 111.29999999999927,75.31500000000005 111.29999999999927,74.78399999999999 C111.29999999999927,73.88800000000003 111.79999999999927,73.04999999999995 112.79999999999927,72.26800000000003 C113.70000000000073,71.48699999999997 114.70000000000073,71.096 115.70000000000073,71.096" />
<path d="M115.70000000000073,26.096000000000004 C116.39999999999964,26.096000000000004 116.89999999999964,26.258000000000038 117.29999999999927,26.581000000000017 C117.70000000000073,26.934999999999945 117.89999999999964,27.378000000000043 117.89999999999964,27.908999999999992 C117.89999999999964,28.80499999999995 117.5,29.64300000000003 116.5,30.424999999999955 C115.60000000000036,31.206000000000017 114.60000000000036,31.596000000000004 113.5,31.596000000000004 C112.89999999999964,31.596000000000004 112.39999999999964,31.434999999999945 112.0,31.111999999999966 C111.5,30.758000000000038 111.29999999999927,30.315000000000055 111.29999999999927,29.783999999999992 C111.29999999999927,28.888000000000034 111.79999999999927,28.049999999999955 112.79999999999927,27.26800000000003 C113.70000000000073,26.486999999999966 114.70000000000073,26.096000000000004 115.70000000000073,26.096000000000004" />
<path d="M95.79999999999927,71.096 C96.39999999999964,71.096 96.89999999999964,71.25800000000004 97.29999999999927,71.58100000000002 C97.70000000000073,71.93499999999995 97.89999999999964,72.37800000000004 97.89999999999964,72.90899999999999 C97.89999999999964,73.80499999999995 97.5,74.64300000000003 96.60000000000036,75.42499999999995 C95.60000000000036,76.20600000000002 94.60000000000036,76.596 93.5,76.596 C92.89999999999964,76.596 92.39999999999964,76.43499999999995 92.0,76.11199999999997 C91.60000000000036,75.75800000000004 91.39999999999964,75.31500000000005 91.39999999999964,74.78399999999999 C91.39999999999964,73.88800000000003 91.79999999999927,73.04999999999995 92.79999999999927,72.26800000000003 C93.70000000000073,71.48699999999997 94.70000000000073,71.096 95.79999999999927,71.096" />
<path d="M82.20000000000073,33.12800000000004 L84.60000000000036,31.174999999999955 C84.60000000000036,31.121999999999957 84.70000000000073,31.096000000000004 84.70000000000073,31.096000000000004 C84.79999999999927,31.096000000000004 84.89999999999964,31.121999999999957 84.89999999999964,31.174999999999955 L85.39999999999964,31.486999999999966 C85.39999999999964,31.549999999999955 85.39999999999964,31.628000000000043 85.39999999999964,31.721000000000004 C85.39999999999964,31.783999999999992 85.39999999999964,31.861999999999966 85.39999999999964,31.956000000000017 L83.0,33.846000000000004 L85.39999999999964,35.736999999999966 C85.39999999999964,35.809999999999945 85.39999999999964,35.89099999999996 85.39999999999964,35.97900000000004 C85.39999999999964,36.067999999999984 85.39999999999964,36.14300000000003 85.39999999999964,36.20600000000002 L84.89999999999964,36.51800000000003 C84.89999999999964,36.57000000000005 84.79999999999927,36.596000000000004 84.70000000000073,36.596000000000004 C84.70000000000073,36.596000000000004 84.60000000000036,36.57000000000005 84.60000000000036,36.51800000000003 L82.20000000000073,34.565000000000055 L79.70000000000073,36.51800000000003 C79.70000000000073,36.57000000000005 79.60000000000036,36.596000000000004 79.60000000000036,36.596000000000004 C79.5,36.596000000000004 79.39999999999964,36.57000000000005 79.39999999999964,36.51800000000003 L79.0,36.20600000000002 C78.89999999999964,36.14300000000003 78.89999999999964,36.065000000000055 78.89999999999964,35.971000000000004 C78.89999999999964,35.90899999999999 78.89999999999964,35.83100000000002 79.0,35.736999999999966 L81.29999999999927,33.846000000000004 L79.0,31.956000000000017 C78.89999999999964,31.883000000000038 78.89999999999964,31.80200000000002 78.89999999999964,31.714000000000055 C78.89999999999964,31.625 78.89999999999964,31.549999999999955 79.0,31.486999999999966 L79.39999999999964,31.174999999999955 C79.39999999999964,31.121999999999957 79.5,31.096000000000004 79.60000000000036,31.096000000000004 C79.60000000000036,31.096000000000004 79.70000000000073,31.121999999999957 79.70000000000073,31.174999999999955 L82.20000000000073,33.12800000000004" />
<path d="M70.79999999999927,71.096 C71.39999999999964,71.096 71.89999999999964,71.25800000000004 72.39999999999964,71.58100000000002 C72.79999999999927,71.93499999999995 73.0,72.37800000000004 73.0,72.90899999999999 C73.0,73.80499999999995 72.5,74.64300000000003 71.60000000000036,75.42499999999995 C70.60000000000036,76.20600000000002 69.60000000000036,76.596 68.60000000000036,76.596 C67.89999999999964,76.596 67.39999999999964,76.43499999999995 67.0,76.11199999999997 C66.60000000000036,75.75800000000004 66.39999999999964,75.31500000000005 66.39999999999964,74.78399999999999 C66.39999999999964,73.88800000000003 66.79999999999927,73.04999999999995 67.79999999999927,72.26800000000003 C68.70000000000073,71.48699999999997 69.70000000000073,71.096 70.79999999999927,71.096" />
<path d="M50.79999999999927,71.096 C51.399999999999636,71.096 51.899999999999636,71.25800000000004 52.399999999999636,71.58100000000002 C52.79999999999927,71.93499999999995 53.0,72.37800000000004 53.0,72.90899999999999 C53.0,73.80499999999995 52.5,74.64300000000003 51.600000000000364,75.42499999999995 C50.70000000000073,76.20600000000002 49.70000000000073,76.596 48.600000000000364,76.596 C48.0,76.596 47.399999999999636,76.43499999999995 47.0,76.11199999999997 C46.600000000000364,75.75800000000004 46.399999999999636,75.31500000000005 46.399999999999636,74.78399999999999 C46.399999999999636,73.88800000000003 46.899999999999636,73.04999999999995 47.79999999999927,72.26800000000003 C48.70000000000073,71.48699999999997 49.70000000000073,71.096 50.79999999999927,71.096" />
<path d="M50.79999999999927,8.596000000000004 C51.399999999999636,8.596000000000004 51.899999999999636,8.758000000000038 52.399999999999636,9.081000000000017 C52.79999999999927,9.434999999999945 53.0,9.878000000000043 53.0,10.408999999999992 C53.0,11.30499999999995 52.5,12.143000000000029 51.600000000000364,12.924999999999955 C50.70000000000073,13.706000000000017 49.70000000000073,14.096000000000004 48.600000000000364,14.096000000000004 C48.0,14.096000000000004 47.399999999999636,13.934999999999945 47.0,13.611999999999966 C46.600000000000364,13.258000000000038 46.399999999999636,12.815000000000055 46.399999999999636,12.283999999999992 C46.399999999999636,11.388000000000034 46.899999999999636,10.549999999999955 47.79999999999927,9.768000000000029 C48.70000000000073,8.986999999999966 49.70000000000073,8.596000000000004 50.79999999999927,8.596000000000004" />
<path d="M30.799999999999272,71.096 C31.399999999999636,71.096 32.0,71.25800000000004 32.399999999999636,71.58100000000002 C32.79999999999927,71.93499999999995 33.0,72.37800000000004 33.0,72.90899999999999 C33.0,73.80499999999995 32.5,74.64300000000003 31.600000000000364,75.42499999999995 C30.700000000000728,76.20600000000002 29.700000000000728,76.596 28.600000000000364,76.596 C28.0,76.596 27.5,76.43499999999995 27.0,76.11199999999997 C26.600000000000364,75.75800000000004 26.399999999999636,75.31500000000005 26.399999999999636,74.78399999999999 C26.399999999999636,73.88800000000003 26.899999999999636,73.04999999999995 27.799999999999272,72.26800000000003 C28.700000000000728,71.48699999999997 29.700000000000728,71.096 30.799999999999272,71.096" />
<path d="M18.299999999999272,16.096000000000004 C18.899999999999636,16.096000000000004 19.5,16.258000000000038 19.899999999999636,16.581000000000017 C20.299999999999272,16.934999999999945 20.5,17.378000000000043 20.5,17.908999999999992 C20.5,18.80499999999995 20.0,19.64300000000003 19.100000000000364,20.424999999999955 C18.200000000000728,21.206000000000017 17.200000000000728,21.596000000000004 16.100000000000364,21.596000000000004 C15.5,21.596000000000004 15.0,21.434999999999945 14.5,21.111999999999966 C14.100000000000364,20.758000000000038 13.899999999999636,20.315000000000055 13.899999999999636,19.783999999999992 C13.899999999999636,18.888000000000034 14.399999999999636,18.049999999999955 15.299999999999272,17.26800000000003 C16.200000000000728,16.486999999999966 17.200000000000728,16.096000000000004 18.299999999999272,16.096000000000004" />
<path d="M5.799999999999272,71.096 C6.399999999999636,71.096 7.0,71.25800000000004 7.399999999999636,71.58100000000002 C7.799999999999272,71.93499999999995 8.0,72.37800000000004 8.0,72.90899999999999 C8.0,73.80499999999995 7.600000000000364,74.64300000000003 6.600000000000364,75.42499999999995 C5.700000000000728,76.20600000000002 4.700000000000728,76.596 3.600000000000364,76.596 C3.0,76.596 2.5,76.43499999999995 2.0,76.11199999999997 C1.6000000000003638,75.75800000000004 1.3999999999996362,75.31500000000005 1.3999999999996362,74.78399999999999 C1.3999999999996362,73.88800000000003 1.8999999999996362,73.04999999999995 2.7999999999992724,72.26800000000003 C3.7999999999992724,71.48699999999997 4.799999999999272,71.096 5.799999999999272,71.096" />
<path d="M46.399999999999636,88.846 L152.0,90.10400000000004 L152.0,92.60400000000004 L46.399999999999636,91.346 L46.399999999999636,88.846" />
<path d="M46.399999999999636,85.096 L152.0,86.35400000000004 L152.0,88.85400000000004 L46.399999999999636,87.596 L46.399999999999636,85.096" />
<path d="M46.399999999999636,47.596000000000004 L112.0,47.596000000000004 L112.0,50.096000000000004 L46.399999999999636,50.096000000000004 L46.399999999999636,47.596000000000004" />
<path d="M46.399999999999636,43.846000000000004 L79.5,43.846000000000004 L79.5,46.346000000000004 L46.399999999999636,46.346000000000004 L46.399999999999636,43.846000000000004" />
<path d="M14.600000000000364,33.811000000000035 L8.0,34.168000000000006 L8.0,36.668000000000006 L14.600000000000364,36.311000000000035 L14.600000000000364,33.811000000000035" />
<path d="M101.60000000000036,95.02800000000002 L101.60000000000036,95.18499999999995 C101.0,95.25800000000004 100.39999999999964,95.52099999999996 99.79999999999927,95.97400000000005 C99.20000000000073,96.42700000000002 98.70000000000073,96.971 98.29999999999927,97.60699999999997 L98.39999999999964,97.62199999999996 C98.70000000000073,97.476 99.0,97.40300000000002 99.29999999999927,97.40300000000002 C99.79999999999927,97.40300000000002 100.20000000000073,97.57000000000005 100.5,97.90300000000002 C100.79999999999927,98.23699999999997 101.0,98.66399999999999 101.0,99.18499999999995 C101.0,99.93499999999995 100.70000000000073,100.58299999999997 100.20000000000073,101.13 C99.70000000000073,101.67700000000002 99.20000000000073,101.95000000000005 98.5,101.95000000000005 C97.89999999999964,101.95000000000005 97.5,101.75999999999999 97.20000000000073,101.38 C96.79999999999927,101.0 96.70000000000073,100.49199999999996 96.70000000000073,99.85699999999997 C96.70000000000073,99.13800000000003 96.79999999999927,98.44299999999998 97.20000000000073,97.77099999999996 C97.60000000000036,97.09900000000005 98.10000000000036,96.52800000000002 98.70000000000073,96.05999999999995 C99.10000000000036,95.73699999999997 99.5,95.50199999999995 99.89999999999964,95.35699999999997 C100.39999999999964,95.21100000000001 100.89999999999964,95.101 101.60000000000036,95.02800000000002 M98.39999999999964,101.70000000000005 C98.70000000000073,101.70000000000005 99.0,101.59100000000001 99.20000000000073,101.37199999999996 C99.5,101.15300000000002 99.60000000000036,100.88800000000003 99.70000000000073,100.57500000000005 C99.89999999999964,100.26300000000003 99.89999999999964,99.976 100.0,99.71600000000001 C100.10000000000036,99.45600000000002 100.10000000000036,99.23199999999997 100.10000000000036,99.04399999999998 C100.10000000000036,98.65899999999999 100.0,98.351 99.79999999999927,98.12199999999996 C99.60000000000036,97.89300000000003 99.29999999999927,97.77800000000002 98.89999999999964,97.77800000000002 C98.5,97.77800000000002 98.10000000000036,97.99699999999996 97.89999999999964,98.43499999999995 C97.70000000000073,98.65300000000002 97.60000000000036,98.95000000000005 97.5,99.32500000000005 C97.5,99.70000000000005 97.39999999999964,100.05399999999997 97.39999999999964,100.38800000000003 C97.39999999999964,100.80399999999997 97.5,101.12699999999995 97.70000000000073,101.35699999999997 C97.79999999999927,101.58600000000001 98.10000000000036,101.70000000000005 98.39999999999964,101.70000000000005" />
<path d="M242.60000000000036,81.346 L240.79999999999927,81.346 C240.60000000000036,81.346 240.5,81.28399999999999 240.5,81.15899999999999 L240.5,71.53399999999999 C240.5,71.40899999999999 240.60000000000036,71.346 240.79999999999927,71.346 L242.60000000000036,71.346 C242.70000000000073,71.346 242.79999999999927,71.40899999999999 242.79999999999927,71.53399999999999 L242.79999999999927,81.15899999999999 C242.79999999999927,81.28399999999999 242.70000000000073,81.346 242.60000000000036,81.346 M238.20000000000073,81.346 L236.29999999999927,81.346 C236.20000000000073,81.346 236.10000000000036,81.28399999999999 236.10000000000036,81.15899999999999 L236.10000000000036,71.53399999999999 C236.10000000000036,71.40899999999999 236.20000000000073,71.346 236.29999999999927,71.346 L238.20000000000073,71.346 C238.29999999999927,71.346 238.39999999999964,71.40899999999999 238.39999999999964,71.53399999999999 L238.39999999999964,81.15899999999999 C238.39999999999964,81.28399999999999 238.29999999999927,81.346 238.20000000000073,81.346" />
<path d="M238.10000000000036,37.40899999999999 C238.39999999999964,37.04399999999998 238.60000000000036,36.70600000000002 238.60000000000036,36.39300000000003 C238.60000000000036,36.101999999999975 238.5,35.88300000000004 238.29999999999927,35.736999999999966 C238.0,35.58100000000002 237.79999999999927,35.50300000000004 237.39999999999964,35.50300000000004 C237.20000000000073,35.50300000000004 237.0,35.57600000000002 236.89999999999964,35.721000000000004 C236.79999999999927,35.85699999999997 236.70000000000073,36.01800000000003 236.70000000000073,36.20600000000002 C236.70000000000073,36.44500000000005 236.79999999999927,36.62199999999996 237.0,36.736999999999966 L238.10000000000036,37.40899999999999 M238.39999999999964,37.565000000000055 C239.0,37.85699999999997 239.20000000000073,38.263000000000034 239.20000000000073,38.78399999999999 C239.20000000000073,38.78399999999999 239.20000000000073,38.80499999999995 239.20000000000073,38.846000000000004 C239.20000000000073,39.24199999999996 239.10000000000036,39.57600000000002 238.70000000000073,39.846000000000004 C238.39999999999964,40.12800000000004 238.0,40.26800000000003 237.39999999999964,40.26800000000003 C236.89999999999964,40.26800000000003 236.39999999999964,40.138000000000034 236.10000000000036,39.87800000000004 C235.70000000000073,39.638000000000034 235.5,39.309999999999945 235.5,38.89300000000003 C235.5,38.70600000000002 235.60000000000036,38.53899999999999 235.70000000000073,38.39300000000003 C235.79999999999927,38.226999999999975 235.79999999999927,38.111999999999966 235.89999999999964,38.049999999999955 C235.89999999999964,38.049999999999955 236.0,37.924999999999955 236.29999999999927,37.674999999999955 C235.89999999999964,37.403999999999996 235.70000000000073,37.05499999999995 235.70000000000073,36.62800000000004 C235.70000000000073,36.263000000000034 235.79999999999927,35.940000000000055 236.10000000000036,35.65899999999999 C236.5,35.399 236.89999999999964,35.26800000000003 237.39999999999964,35.26800000000003 C237.89999999999964,35.26800000000003 238.29999999999927,35.36699999999996 238.60000000000036,35.565000000000055 C238.89999999999964,35.763000000000034 239.0,36.03899999999999 239.0,36.39300000000003 C239.0,36.726999999999975 238.79999999999927,37.11699999999996 238.39999999999964,37.565000000000055 M236.60000000000036,37.846000000000004 C236.20000000000073,38.190000000000055 236.0,38.53899999999999 236.0,38.89300000000003 C236.0,39.226999999999975 236.10000000000036,39.49699999999996 236.39999999999964,39.70600000000002 C236.70000000000073,39.924999999999955 237.0,40.03399999999999 237.39999999999964,40.03399999999999 C237.60000000000036,40.03399999999999 237.79999999999927,39.95100000000002 238.0,39.78399999999999 C238.10000000000036,39.62800000000004 238.20000000000073,39.434999999999945 238.20000000000073,39.20600000000002 C238.20000000000073,38.924999999999955 238.10000000000036,38.721000000000004 237.89999999999964,38.596000000000004 L236.60000000000036,37.846000000000004 M244.20000000000073,17.065000000000055 C244.0,16.866999999999962 243.89999999999964,16.625 243.89999999999964,16.339000000000055 C243.89999999999964,16.05200000000002 244.0,15.812999999999988 244.20000000000073,15.620000000000005 C244.39999999999964,15.427000000000021 244.60000000000036,15.331000000000017 244.89999999999964,15.331000000000017 C245.20000000000073,15.331000000000017 245.5,15.427000000000021 245.70000000000073,15.620000000000005 C245.89999999999964,15.812999999999988 246.0,16.05200000000002 246.0,16.339000000000055 C246.0,16.625 245.89999999999964,16.866999999999962 245.70000000000073,17.065000000000055 C245.5,17.263000000000034 245.20000000000073,17.361999999999966 244.89999999999964,17.361999999999966 C244.60000000000036,17.361999999999966 244.39999999999964,17.263000000000034 244.20000000000073,17.065000000000055 M244.20000000000073,22.07299999999998 C244.0,21.879999999999995 243.89999999999964,21.640999999999963 243.89999999999964,21.354000000000042 C243.89999999999964,21.067999999999984 244.0,20.826000000000022 244.20000000000073,20.628000000000043 C244.39999999999964,20.42999999999995 244.60000000000036,20.331000000000017 244.89999999999964,20.331000000000017 C245.20000000000073,20.331000000000017 245.5,20.42999999999995 245.70000000000073,20.628000000000043 C245.89999999999964,20.826000000000022 246.0,21.067999999999984 246.0,21.354000000000042 C246.0,21.640999999999963 245.89999999999964,21.879999999999995 245.70000000000073,22.07299999999998 C245.5,22.265999999999963 245.20000000000073,22.361999999999966 244.89999999999964,22.361999999999966 C244.60000000000036,22.361999999999966 244.39999999999964,22.265999999999963 244.20000000000073,22.07299999999998 M237.39999999999964,13.596000000000004 C239.20000000000073,13.596000000000004 240.60000000000036,14.028999999999996 241.70000000000073,14.893000000000029 C242.79999999999927,15.809999999999945 243.29999999999927,17.049999999999955 243.29999999999927,18.611999999999966 C243.29999999999927,19.663999999999987 243.10000000000036,20.628000000000043 242.70000000000073,21.503000000000043 C242.29999999999927,22.418999999999983 241.79999999999927,23.226999999999975 241.10000000000036,23.924999999999955 C240.5,24.64300000000003 239.70000000000073,25.32000000000005 238.79999999999927,25.956000000000017 C237.89999999999964,26.581000000000017 236.89999999999964,27.14300000000003 236.0,27.64300000000003 C234.10000000000036,28.611999999999966 233.0,29.096000000000004 232.79999999999927,29.096000000000004 C232.60000000000036,29.096000000000004 232.5,29.013000000000034 232.5,28.846000000000004 C232.5,28.783999999999992 232.60000000000036,28.726999999999975 232.60000000000036,28.674999999999955 C233.29999999999927,28.278999999999996 234.10000000000036,27.778999999999996 235.10000000000036,27.174999999999955 C235.70000000000073,26.76800000000003 236.39999999999964,26.206000000000017 237.20000000000073,25.486999999999966 C238.10000000000036,24.809999999999945 238.70000000000073,24.174999999999955 239.10000000000036,23.581000000000017 C239.60000000000036,22.986999999999966 240.0,22.258000000000038 240.39999999999964,21.39300000000003 C240.70000000000073,20.51800000000003 240.79999999999927,19.653999999999996 240.79999999999927,18.799999999999955 C240.79999999999927,17.538999999999987 240.5,16.440000000000055 239.89999999999964,15.503000000000043 C239.29999999999927,14.565000000000055 238.5,14.096000000000004 237.39999999999964,14.096000000000004 C236.70000000000073,14.096000000000004 236.10000000000036,14.331000000000017 235.60000000000036,14.799999999999955 C235.0,15.278999999999996 234.60000000000036,15.883000000000038 234.29999999999927,16.611999999999966 C234.60000000000036,16.508000000000038 234.79999999999927,16.456000000000017 235.0,16.456000000000017 C235.60000000000036,16.456000000000017 236.0,16.653999999999996 236.39999999999964,17.049999999999955 C236.79999999999927,17.466000000000008 237.0,17.940000000000055 237.0,18.471000000000004 C237.0,19.033999999999992 236.79999999999927,19.538999999999987 236.5,19.986999999999966 C236.10000000000036,20.383000000000038 235.60000000000036,20.581000000000017 235.0,20.581000000000017 C234.5,20.581000000000017 233.89999999999964,20.383000000000038 233.5,19.986999999999966 C233.0,19.538999999999987 232.79999999999927,19.033999999999992 232.79999999999927,18.471000000000004 C232.79999999999927,17.128000000000043 233.20000000000073,15.981999999999971 234.20000000000073,15.033999999999992 C235.10000000000036,14.076000000000022 236.20000000000073,13.596000000000004 237.39999999999964,13.596000000000004" />
<polyline points="0.0,13.846000000000004 172.10000000000036,13.846000000000004" fill="none" stroke="#000000" stroke-width="0.40" />
<polyline points="0.0,18.846000000000004 172.10000000000036,18.846000000000004" fill="none" stroke="#000000" stroke-width="0.40" />
<polyline points="0.0,23.846000000000004 172.10000000000036,23.846000000000004" fill="none" stroke="#000000" stroke-width="0.40" />
<polyline points="0.0,28.846000000000004 172.10000000000036,28.846000000000004" fill="none" stroke="#000000" stroke-width="0.40" />
<polyline points="0.0,33.846000000000004 172.10000000000036,33.846000000000004" fill="none" stroke="#000000" stroke-width="0.40" />
<polyline points="0.0,66.346 172.10000000000036,66.346" fill="none" stroke="#000000" stroke-width="0.40" />
<polyline points="0.0,71.346 172.10000000000036,71.346" fill="none" stroke="#000000" stroke-width="0.40" />
<polyline points="0.0,76.346 172.10000000000036,76.346" fill="none" stroke="#000000" stroke-width="0.40" />
<polyline points="0.0,81.346 172.10000000000036,81.346" fill="none" stroke="#000000" stroke-width="0.40" />
<polyline points="0.0,86.346 172.10000000000036,86.346" fill="none" stroke="#000000" stroke-width="0.40" />
<polyline points="171.70000000000073,66.346 171.70000000000073,86.346" fill="none" stroke="#000000" stroke-width="0.80" />
<polyline points="171.70000000000073,13.846000000000004 171.70000000000073,33.846000000000004" fill="none" stroke="#000000" stroke-width="0.80" />
<polyline points="151.60000000000036,77.28599999999994 151.60000000000036,91.346" fill="none" stroke="#000000" stroke-width="0.65" />
<polyline points="131.70000000000073,77.28599999999994 131.70000000000073,91.10799999999995" fill="none" stroke="#000000" stroke-width="0.65" />
<polyline points="111.70000000000073,74.78599999999994 111.70000000000073,90.87" fill="none" stroke="#000000" stroke-width="0.65" />
<polyline points="111.70000000000073,29.785999999999945 111.70000000000073,48.846000000000004" fill="none" stroke="#000000" stroke-width="0.65" />
<polyline points="91.70000000000073,74.78599999999994 91.70000000000073,90.63199999999995" fill="none" stroke="#000000" stroke-width="0.65" />
<polyline points="79.20000000000073,35.90999999999997 79.20000000000073,48.846000000000004" fill="none" stroke="#000000" stroke-width="0.65" />
<polyline points="66.70000000000073,74.78599999999994 66.70000000000073,90.33500000000004" fill="none" stroke="#000000" stroke-width="0.65" />
<polyline points="46.70000000000073,74.78599999999994 46.70000000000073,90.096" fill="none" stroke="#000000" stroke-width="0.65" />
<polyline points="46.70000000000073,12.285999999999945 46.70000000000073,48.846000000000004" fill="none" stroke="#000000" stroke-width="0.65" />
<polyline points="26.700000000000728,74.78599999999994 26.700000000000728,90.096" fill="none" stroke="#000000" stroke-width="0.65" />
<polyline points="14.200000000000728,19.785999999999945 14.200000000000728,38.846000000000004" fill="none" stroke="#000000" stroke-width="0.65" />
<polyline points="1.7999999999992724,74.78599999999994 1.7999999999992724,90.096" fill="none" stroke="#000000" stroke-width="0.65" />
<polyline points="228.79999999999927,13.846000000000004 255.0,13.846000000000004" fill="none" stroke="#000000" stroke-width="0.40" />
<polyline points="228.79999999999927,18.846000000000004 255.0,18.846000000000004" fill="none" stroke="#000000" stroke-width="0.40" />
<polyline points="228.79999999999927,23.846000000000004 255.0,23.846000000000004" fill="none" stroke="#000000" stroke-width="0.40" />
<polyline points="228.79999999999927,28.846000000000004 255.0,28.846000000000004" fill="none" stroke="#000000" stroke-width="0.40" />
<polyline points="228.79999999999927,33.846000000000004 255.0,33.846000000000004" fill="none" stroke="#000000" stroke-width="0.40" />
<polyline points="228.79999999999927,66.346 255.0,66.346" fill="none" stroke="#000000" stroke-width="0.40" />
<polyline points="228.79999999999927,71.346 255.0,71.346" fill="none" stroke="#000000" stroke-width="0.40" />
<polyline points="228.79999999999927,76.346 255.0,76.346" fill="none" stroke="#000000" stroke-width="0.40" />
<polyline points="228.79999999999927,81.346 255.0,81.346" fill="none" stroke="#000000" stroke-width="0.40" />
<polyline points="228.79999999999927,86.346 255.0,86.346" fill="none" stroke="#000000" stroke-width="0.40" />
<polyline points="229.20000000000073,0.0 229.20000000000073,86.346" fill="none" stroke="#000000" stroke-width="0.80" />
</svg>
