<?xml version="1.0" encoding="UTF-8" standalone="yes"?>
<svg width="256.0px" height="256.0px" xmlns="http://www.w3.org/2000/svg" xmlns:xlink="http://www.w3.org/1999/xlink" version="1.2" baseProfile="tiny">
<path d="M130.9000000000001,27.79200000000003 C130.9000000000001,27.510999999999967 130.84000000000015,27.260999999999967 130.71000000000004,27.04200000000003 C130.59000000000015,26.82299999999998 130.42999999999984,26.650999999999954 130.25,26.525999999999954 C130.07000000000016,26.400999999999954 129.8699999999999,26.30200000000002 129.6500000000001,26.229000000000042 C129.42999999999984,26.15700000000004 129.23999999999978,26.10699999999997 129.07999999999993,26.081000000000017 C128.92000000000007,26.05499999999995 128.76999999999998,26.04200000000003 128.6500000000001,26.04200000000003 C128.59000000000015,26.04200000000003 128.55999999999995,26.020999999999958 128.55999999999995,25.979000000000042 C128.55999999999995,25.958999999999946 128.55999999999995,25.942999999999984 128.55999999999995,25.932999999999993 L129.42999999999984,24.07299999999998 L131.0999999999999,24.07299999999998 C131.19000000000005,24.07299999999998 131.25,24.059999999999945 131.30999999999995,24.033999999999992 C131.36000000000013,24.008000000000038 131.40999999999985,23.952999999999975 131.48000000000002,23.870000000000005 L131.53999999999996,23.932999999999993 L131.23999999999978,24.589000000000055 C131.2199999999998,24.640999999999963 131.15999999999985,24.66700000000003 131.05999999999995,24.66700000000003 L129.48999999999978,24.66700000000003 L129.1500000000001,25.339000000000055 C129.92999999999984,25.485000000000014 130.51000000000022,25.714000000000055 130.88999999999987,26.025999999999954 C131.26999999999998,26.339000000000055 131.46000000000004,26.80200000000002 131.46000000000004,27.41700000000003 C131.46000000000004,27.729000000000042 131.40999999999985,28.010999999999967 131.30999999999995,28.260999999999967 C131.21000000000004,28.510999999999967 131.09000000000015,28.711000000000013 130.92999999999984,28.861999999999966 C130.76999999999998,29.013000000000034 130.5999999999999,29.135999999999967 130.4000000000001,29.229000000000042 C130.19999999999982,29.32299999999998 130.01000000000022,29.388000000000034 129.82999999999993,29.424999999999955 C129.6500000000001,29.461000000000013 129.46000000000004,29.479000000000042 129.26999999999998,29.479000000000042 C128.9699999999998,29.479000000000042 128.73000000000002,29.434999999999945 128.55999999999995,29.34699999999998 C128.3800000000001,29.258000000000038 128.28999999999996,29.135999999999967 128.28999999999996,28.979000000000042 C128.28999999999996,28.78200000000004 128.4000000000001,28.682999999999993 128.6300000000001,28.682999999999993 C128.78999999999996,28.682999999999993 128.98999999999978,28.765999999999963 129.2199999999998,28.932999999999993 C129.44999999999982,29.099000000000046 129.63999999999987,29.182999999999993 129.78999999999996,29.182999999999993 C130.0999999999999,29.182999999999993 130.3699999999999,29.049999999999955 130.57999999999993,28.783999999999992 C130.78999999999996,28.519000000000005 130.9000000000001,28.187999999999988 130.9000000000001,27.79200000000003" />
<path d="M190.7800000000002,29.479000000000042 C190.23999999999978,29.479000000000042 189.80999999999995,29.265999999999963 189.48000000000002,28.839000000000055 C189.1500000000001,28.412000000000035 188.98999999999978,27.84400000000005 188.98999999999978,27.135999999999967 C188.98999999999978,26.91700000000003 189.01000000000022,26.692999999999984 189.05999999999995,26.464000000000055 C189.0999999999999,26.235000000000014 189.19999999999982,25.97199999999998 189.34000000000015,25.674999999999955 C189.48000000000002,25.378000000000043 189.67000000000007,25.111999999999966 189.9000000000001,24.878000000000043 C190.13999999999987,24.644000000000005 190.46000000000004,24.434999999999945 190.8699999999999,24.253000000000043 C191.2800000000002,24.071000000000026 191.76000000000022,23.952999999999975 192.30000000000018,23.900999999999954 L192.32000000000016,24.025999999999954 C191.67999999999984,24.129999999999995 191.1500000000001,24.385999999999967 190.73000000000002,24.79200000000003 C190.30999999999995,25.19799999999998 190.03999999999996,25.702999999999975 189.92000000000007,26.307999999999993 C190.17000000000007,26.162000000000035 190.36000000000013,26.067999999999984 190.5,26.025999999999954 C190.6300000000001,25.985000000000014 190.7800000000002,25.964000000000055 190.96000000000004,25.964000000000055 C191.42000000000007,25.964000000000055 191.80000000000018,26.111999999999966 192.07000000000016,26.408999999999992 C192.3499999999999,26.706000000000017 192.48999999999978,27.104000000000042 192.48999999999978,27.604000000000042 C192.48999999999978,28.15700000000004 192.32999999999993,28.60699999999997 192.01000000000022,28.956000000000017 C191.69000000000005,29.30499999999995 191.2800000000002,29.479000000000042 190.7800000000002,29.479000000000042 M190.65999999999985,26.32299999999998 C190.28999999999996,26.32299999999998 190.05000000000018,26.400999999999954 189.92000000000007,26.557999999999993 C189.78999999999996,26.714000000000055 189.7199999999998,26.94799999999998 189.7199999999998,27.260999999999967 C189.7199999999998,27.875 189.82999999999993,28.360000000000014 190.0300000000002,28.714000000000055 C190.23999999999978,29.067999999999984 190.51999999999998,29.245000000000005 190.86000000000013,29.245000000000005 C191.1500000000001,29.245000000000005 191.3699999999999,29.128000000000043 191.51999999999998,28.894000000000005 C191.65999999999985,28.658999999999992 191.73999999999978,28.32299999999998 191.73999999999978,27.885999999999967 C191.73999999999978,27.385999999999967 191.63999999999987,27.0 191.46000000000004,26.729000000000042 C191.26999999999998,26.458999999999946 191.0,26.32299999999998 190.65999999999985,26.32299999999998" />
</svg>
