<?xml version="1.0" encoding="UTF-8" standalone="yes"?>
<svg width="256.0px" height="256.0px" xmlns="http://www.w3.org/2000/svg" xmlns:xlink="http://www.w3.org/1999/xlink" version="1.2" baseProfile="tiny">
<path d="M59.98999999999978,30.79200000000003 C59.850000000000364,30.69799999999998 59.70999999999913,30.591000000000008 59.55999999999949,30.47199999999998 C59.409999999999854,30.351999999999975 59.23999999999978,30.184999999999945 59.04999999999927,29.97199999999998 C58.86000000000058,29.758000000000038 58.70000000000073,29.53200000000004 58.54999999999927,29.29200000000003 C58.399999999999636,29.05200000000002 58.280000000000655,28.760999999999967 58.19000000000051,28.41700000000003 C58.100000000000364,28.07299999999998 58.04999999999927,27.71900000000005 58.04999999999927,27.354000000000042 C58.04999999999927,26.96900000000005 58.100000000000364,26.604000000000042 58.19000000000051,26.260999999999967 C58.280000000000655,25.91700000000003 58.399999999999636,25.633000000000038 58.530000000000655,25.408999999999992 C58.67000000000007,25.184999999999945 58.840000000000146,24.966000000000008 59.04000000000087,24.753000000000043 C59.25,24.538999999999987 59.409999999999854,24.383000000000038 59.54999999999927,24.283999999999992 C59.69000000000051,24.184999999999945 59.840000000000146,24.077999999999975 60.0,23.964000000000055 L60.07999999999993,24.089000000000055 C59.850000000000364,24.287000000000035 59.659999999999854,24.461000000000013 59.52000000000044,24.611999999999966 C59.3700000000008,24.763000000000034 59.22999999999956,24.964000000000055 59.100000000000364,25.214000000000055 C58.95999999999913,25.464000000000055 58.8700000000008,25.760999999999967 58.80999999999949,26.104000000000042 C58.75,26.44799999999998 58.719999999999345,26.860000000000014 58.719999999999345,27.339000000000055 C58.719999999999345,27.827999999999975 58.75,28.253000000000043 58.80999999999949,28.611999999999966 C58.8700000000008,28.97199999999998 58.95999999999913,29.275999999999954 59.100000000000364,29.525999999999954 C59.22999999999956,29.775999999999954 59.3700000000008,29.98199999999997 59.52000000000044,30.144000000000005 C59.659999999999854,30.30499999999995 59.850000000000364,30.474000000000046 60.07999999999993,30.650999999999954 L59.98999999999978,30.79200000000003 M60.52000000000044,27.66700000000003 C60.52000000000044,27.07299999999998 60.69000000000051,26.59699999999998 61.04000000000087,26.236999999999966 C61.38999999999942,25.878000000000043 61.79999999999927,25.69799999999998 62.27000000000044,25.69799999999998 C62.600000000000364,25.69799999999998 62.88999999999942,25.778999999999996 63.1200000000008,25.940000000000055 C63.350000000000364,26.101999999999975 63.469999999999345,26.297000000000025 63.469999999999345,26.525999999999954 C63.469999999999345,26.610000000000014 63.44000000000051,26.684999999999945 63.36000000000058,26.753000000000043 C63.29000000000087,26.821000000000026 63.20000000000073,26.854000000000042 63.100000000000364,26.854000000000042 C62.92000000000007,26.854000000000042 62.79999999999927,26.735000000000014 62.73999999999978,26.495000000000005 L62.69000000000051,26.32299999999998 C62.649999999999636,26.16700000000003 62.600000000000364,26.062999999999988 62.530000000000655,26.010999999999967 C62.469999999999345,25.958999999999946 62.3700000000008,25.932999999999993 62.219999999999345,25.932999999999993 C61.899999999999636,25.932999999999993 61.63999999999942,26.059999999999945 61.44000000000051,26.315000000000055 C61.23999999999978,26.571000000000026 61.13999999999942,26.90700000000004 61.13999999999942,27.32299999999998 C61.13999999999942,27.770999999999958 61.26000000000022,28.140999999999963 61.48999999999978,28.432999999999993 C61.719999999999345,28.724000000000046 62.01000000000022,28.870000000000005 62.3799999999992,28.870000000000005 C62.600000000000364,28.870000000000005 62.79000000000087,28.812999999999988 62.95000000000073,28.69799999999998 C63.11000000000058,28.583999999999946 63.280000000000655,28.390999999999963 63.469999999999345,28.120000000000005 L63.57999999999993,28.182999999999993 C63.530000000000655,28.297000000000025 63.47999999999956,28.388000000000034 63.45000000000073,28.456000000000017 C63.409999999999854,28.524 63.340000000000146,28.628000000000043 63.23999999999978,28.769000000000005 C63.1299999999992,28.908999999999992 63.030000000000655,29.020999999999958 62.93000000000029,29.104000000000042 C62.82999999999993,29.187999999999988 62.70000000000073,29.265999999999963 62.54000000000087,29.339000000000055 C62.3799999999992,29.412000000000035 62.20999999999913,29.44799999999998 62.030000000000655,29.44799999999998 C61.600000000000364,29.44799999999998 61.22999999999956,29.28200000000004 60.95000000000073,28.94799999999998 C60.659999999999854,28.61500000000001 60.52000000000044,28.187999999999988 60.52000000000044,27.66700000000003 M64.19000000000051,23.964000000000055 C64.34000000000015,24.047000000000025 64.47999999999956,24.149 64.6299999999992,24.269000000000005 C64.77000000000044,24.388000000000034 64.94000000000051,24.55499999999995 65.13999999999942,24.769000000000005 C65.32999999999993,24.98199999999997 65.5,25.211000000000013 65.63999999999942,25.456000000000017 C65.78000000000065,25.701000000000022 65.89999999999964,25.991999999999962 66.0,26.331000000000017 C66.09000000000015,26.66999999999996 66.13999999999942,27.025999999999954 66.13999999999942,27.400999999999954 C66.13999999999942,27.775999999999954 66.09000000000015,28.135999999999967 66.0,28.479000000000042 C65.89999999999964,28.82299999999998 65.78000000000065,29.110000000000014 65.64999999999964,29.339000000000055 C65.52000000000044,29.567999999999984 65.35000000000036,29.787000000000035 65.13999999999942,29.995000000000005 C64.94000000000051,30.202999999999975 64.77000000000044,30.360000000000014 64.63999999999942,30.464000000000055 C64.51000000000022,30.567999999999984 64.35000000000036,30.67700000000002 64.18000000000029,30.79200000000003 L64.10000000000036,30.650999999999954 C64.34000000000015,30.464000000000055 64.53000000000065,30.29200000000003 64.68000000000029,30.135999999999967 C64.81999999999971,29.979000000000042 64.95999999999913,29.778999999999996 65.09000000000015,29.533999999999992 C65.21999999999935,29.288999999999987 65.30999999999949,28.995000000000005 65.3700000000008,28.650999999999954 C65.43000000000029,28.307999999999993 65.45999999999913,27.895999999999958 65.45999999999913,27.41700000000003 C65.45999999999913,26.92700000000002 65.43000000000029,26.503000000000043 65.3700000000008,26.144000000000005 C65.30999999999949,25.783999999999992 65.21999999999935,25.476999999999975 65.09000000000015,25.22199999999998 C64.95999999999913,24.966000000000008 64.81999999999971,24.760999999999967 64.68000000000029,24.604000000000042 C64.53000000000065,24.44799999999998 64.34000000000015,24.275999999999954 64.10000000000036,24.089000000000055 L64.19000000000051,23.964000000000055 M69.96999999999935,24.635999999999967 C69.8700000000008,24.635999999999967 69.68000000000029,24.692999999999984 69.38999999999942,24.807999999999993 L69.38999999999942,24.69799999999998 L70.81999999999971,23.964000000000055 L70.8799999999992,23.979000000000042 L70.8799999999992,28.775999999999954 C70.8799999999992,28.974000000000046 70.93000000000029,29.101999999999975 71.03000000000065,29.158999999999992 C71.1299999999992,29.216000000000008 71.32999999999993,29.245000000000005 71.63999999999942,29.245000000000005 L71.63999999999942,29.370000000000005 L69.44000000000051,29.370000000000005 L69.44000000000051,29.245000000000005 C69.73999999999978,29.235000000000014 69.95000000000073,29.190000000000055 70.04999999999927,29.111999999999966 C70.14999999999964,29.033999999999992 70.20999999999913,28.870000000000005 70.20999999999913,28.620000000000005 L70.20999999999913,25.010999999999967 C70.20999999999913,24.760999999999967 70.1299999999992,24.635999999999967 69.96999999999935,24.635999999999967 M72.95999999999913,29.54200000000003 L72.94000000000051,29.385999999999967 C73.54000000000087,29.28200000000004 74.05999999999949,29.024 74.47999999999956,28.611999999999966 C74.89999999999964,28.201000000000022 75.20000000000073,27.66700000000003 75.36000000000058,27.010999999999967 C74.96999999999935,27.32299999999998 74.56999999999971,27.479000000000042 74.15999999999985,27.479000000000042 C73.72999999999956,27.479000000000042 73.38999999999942,27.327999999999975 73.1200000000008,27.025999999999954 C72.85000000000036,26.724000000000046 72.71999999999935,26.333999999999946 72.71999999999935,25.854000000000042 C72.71999999999935,25.312999999999988 72.8799999999992,24.860000000000014 73.20000000000073,24.495000000000005 C73.52000000000044,24.129999999999995 73.90999999999985,23.94799999999998 74.38999999999942,23.94799999999998 C74.93000000000029,23.94799999999998 75.36000000000058,24.158999999999992 75.69000000000051,24.581000000000017 C76.02000000000044,25.003000000000043 76.19000000000051,25.547000000000025 76.19000000000051,26.214000000000055 C76.19000000000051,26.432999999999993 76.17000000000007,26.653999999999996 76.13999999999942,26.878000000000043 C76.10000000000036,27.101999999999975 76.01000000000022,27.366999999999962 75.8799999999992,27.674999999999955 C75.73999999999978,27.98199999999997 75.55999999999949,28.254999999999995 75.34000000000015,28.495000000000005 C75.1200000000008,28.735000000000014 74.79999999999927,28.952999999999975 74.38999999999942,29.150999999999954 C73.98999999999978,29.349000000000046 73.51000000000022,29.479000000000042 72.95999999999913,29.54200000000003 M74.45999999999913,27.120000000000005 C74.55999999999949,27.120000000000005 74.68000000000029,27.10699999999997 74.79999999999927,27.081000000000017 C74.93000000000029,27.05499999999995 75.04999999999927,26.991999999999962 75.18000000000029,26.894000000000005 C75.30999999999949,26.79499999999996 75.3799999999992,26.672000000000025 75.3799999999992,26.525999999999954 L75.3799999999992,26.214000000000055 C75.3799999999992,24.860000000000014 75.03000000000065,24.182999999999993 74.32999999999993,24.182999999999993 C74.15999999999985,24.182999999999993 74.02000000000044,24.226999999999975 73.89999999999964,24.315000000000055 C73.78000000000065,24.403999999999996 73.69000000000051,24.520999999999958 73.63999999999942,24.66700000000003 C73.57999999999993,24.812999999999988 73.53000000000065,24.958999999999946 73.5,25.104000000000042 C73.46999999999935,25.25 73.45999999999913,25.40700000000004 73.45999999999913,25.57299999999998 C73.45999999999913,26.05200000000002 73.54999999999927,26.42999999999995 73.72999999999956,26.706000000000017 C73.90999999999985,26.98199999999997 74.14999999999964,27.120000000000005 74.45999999999913,27.120000000000005 M78.53000000000065,29.479000000000042 C77.98999999999978,29.479000000000042 77.55999999999949,29.265999999999963 77.22999999999956,28.839000000000055 C76.89999999999964,28.412000000000035 76.73999999999978,27.84400000000005 76.73999999999978,27.135999999999967 C76.73999999999978,26.91700000000003 76.76000000000022,26.692999999999984 76.80999999999949,26.464000000000055 C76.85000000000036,26.235000000000014 76.95000000000073,25.97199999999998 77.09000000000015,25.674999999999955 C77.22999999999956,25.378000000000043 77.42000000000007,25.111999999999966 77.64999999999964,24.878000000000043 C77.88999999999942,24.644000000000005 78.20999999999913,24.434999999999945 78.6200000000008,24.253000000000043 C79.03000000000065,24.071000000000026 79.51000000000022,23.952999999999975 80.04999999999927,23.900999999999954 L80.06999999999971,24.025999999999954 C79.43000000000029,24.129999999999995 78.89999999999964,24.385999999999967 78.47999999999956,24.79200000000003 C78.05999999999949,25.19799999999998 77.79000000000087,25.702999999999975 77.68000000000029,26.307999999999993 C77.93000000000029,26.162000000000035 78.1200000000008,26.067999999999984 78.25,26.025999999999954 C78.3799999999992,25.985000000000014 78.53000000000065,25.964000000000055 78.70999999999913,25.964000000000055 C79.18000000000029,25.964000000000055 79.54999999999927,26.111999999999966 79.81999999999971,26.408999999999992 C80.10000000000036,26.706000000000017 80.23999999999978,27.104000000000042 80.23999999999978,27.604000000000042 C80.23999999999978,28.15700000000004 80.07999999999993,28.60699999999997 79.76000000000022,28.956000000000017 C79.44000000000051,29.30499999999995 79.03000000000065,29.479000000000042 78.53000000000065,29.479000000000042 M78.40999999999985,26.32299999999998 C78.04000000000087,26.32299999999998 77.79999999999927,26.400999999999954 77.67000000000007,26.557999999999993 C77.54000000000087,26.714000000000055 77.46999999999935,26.94799999999998 77.46999999999935,27.260999999999967 C77.46999999999935,27.875 77.57999999999993,28.360000000000014 77.78000000000065,28.714000000000055 C77.98999999999978,29.067999999999984 78.27000000000044,29.245000000000005 78.61000000000058,29.245000000000005 C78.89999999999964,29.245000000000005 79.1200000000008,29.128000000000043 79.27000000000044,28.894000000000005 C79.40999999999985,28.658999999999992 79.48999999999978,28.32299999999998 79.48999999999978,27.885999999999967 C79.48999999999978,27.385999999999967 79.38999999999942,27.0 79.20999999999913,26.729000000000042 C79.02000000000044,26.458999999999946 78.75,26.32299999999998 78.40999999999985,26.32299999999998 M82.78000000000065,26.400999999999954 C83.27000000000044,26.754999999999995 83.60000000000036,27.05200000000002 83.78000000000065,27.29200000000003 C83.95000000000073,27.53200000000004 84.03000000000065,27.807999999999993 84.03000000000065,28.120000000000005 C84.03000000000065,28.537000000000035 83.88999999999942,28.866999999999962 83.60000000000036,29.111999999999966 C83.31999999999971,29.35699999999997 82.94000000000051,29.479000000000042 82.45999999999913,29.479000000000042 C82.0,29.479000000000042 81.6299999999992,29.35699999999997 81.34000000000015,29.111999999999966 C81.04999999999927,28.866999999999962 80.90999999999985,28.547000000000025 80.90999999999985,28.150999999999954 C80.90999999999985,27.879999999999995 80.96999999999935,27.653999999999996 81.10000000000036,27.47199999999998 C81.22999999999956,27.288999999999987 81.52000000000044,27.037000000000035 81.95999999999913,26.714000000000055 C81.53000000000065,26.339000000000055 81.26000000000022,26.062999999999988 81.13999999999942,25.885999999999967 C81.02000000000044,25.708999999999946 80.95999999999913,25.49000000000001 80.95999999999913,25.229000000000042 C80.95999999999913,24.86500000000001 81.10000000000036,24.559999999999945 81.38999999999942,24.315000000000055 C81.67000000000007,24.071000000000026 82.04000000000087,23.94799999999998 82.48999999999978,23.94799999999998 C82.8799999999992,23.94799999999998 83.20999999999913,24.05499999999995 83.45999999999913,24.269000000000005 C83.71999999999935,24.48199999999997 83.85000000000036,24.760999999999967 83.85000000000036,25.104000000000042 C83.85000000000036,25.375 83.77000000000044,25.604000000000042 83.61000000000058,25.79200000000003 C83.45999999999913,25.979000000000042 83.18000000000029,26.182999999999993 82.78000000000065,26.400999999999954 M82.15999999999985,26.870000000000005 C81.93000000000029,27.057999999999993 81.77000000000044,27.241999999999962 81.68000000000029,27.424999999999955 C81.57999999999993,27.60699999999997 81.53000000000065,27.827999999999975 81.53000000000065,28.089000000000055 C81.53000000000065,28.432999999999993 81.6299999999992,28.711000000000013 81.80999999999949,28.924999999999955 C81.98999999999978,29.138000000000034 82.22999999999956,29.245000000000005 82.53000000000065,29.245000000000005 C82.79000000000087,29.245000000000005 83.01000000000022,29.163999999999987 83.17000000000007,29.003000000000043 C83.32999999999993,28.841000000000008 83.40999999999985,28.629999999999995 83.40999999999985,28.370000000000005 C83.40999999999985,28.287000000000035 83.39999999999964,28.206000000000017 83.38999999999942,28.128000000000043 C83.3700000000008,28.049999999999955 83.35000000000036,27.985000000000014 83.32999999999993,27.932999999999993 C83.30999999999949,27.879999999999995 83.27000000000044,27.817999999999984 83.20999999999913,27.745000000000005 C83.15999999999985,27.672000000000025 83.11000000000058,27.616999999999962 83.07999999999993,27.581000000000017 C83.04999999999927,27.54499999999996 82.98999999999978,27.486999999999966 82.89999999999964,27.408999999999992 C82.80999999999949,27.331000000000017 82.75,27.275999999999954 82.70000000000073,27.245000000000005 C82.64999999999964,27.214000000000055 82.56999999999971,27.153999999999996 82.44000000000051,27.065000000000055 C82.31999999999971,26.976999999999975 82.21999999999935,26.912000000000035 82.15999999999985,26.870000000000005 M82.54999999999927,26.260999999999967 C82.55999999999949,26.25 82.60000000000036,26.22199999999998 82.67000000000007,26.174999999999955 C82.72999999999956,26.128000000000043 82.78000000000065,26.091000000000008 82.80999999999949,26.065000000000055 C82.82999999999993,26.038999999999987 82.8799999999992,26.0 82.94000000000051,25.94799999999998 C83.0,25.895999999999958 83.04999999999927,25.84400000000005 83.07999999999993,25.79200000000003 C83.11000000000058,25.74000000000001 83.14999999999964,25.67700000000002 83.19000000000051,25.604000000000042 C83.22999999999956,25.53200000000004 83.26000000000022,25.451000000000022 83.28000000000065,25.361999999999966 C83.29000000000087,25.274 83.29999999999927,25.182999999999993 83.29999999999927,25.089000000000055 C83.29999999999927,24.817999999999984 83.21999999999935,24.599000000000046 83.06999999999971,24.432999999999993 C82.90999999999985,24.265999999999963 82.70000000000073,24.182999999999993 82.43000000000029,24.182999999999993 C82.18000000000029,24.182999999999993 81.96999999999935,24.258000000000038 81.80999999999949,24.408999999999992 C81.64999999999964,24.559999999999945 81.56999999999971,24.75 81.56999999999971,24.979000000000042 C81.56999999999971,25.19799999999998 81.63999999999942,25.40700000000004 81.79000000000087,25.604000000000042 C81.94000000000051,25.80200000000002 82.20000000000073,26.020999999999958 82.54999999999927,26.260999999999967 M91.90999999999985,26.69799999999998 C91.90999999999985,26.937999999999988 91.8799999999992,27.172000000000025 91.81999999999971,27.400999999999954 C91.77000000000044,27.629999999999995 91.67000000000007,27.866999999999962 91.53000000000065,28.111999999999966 C91.38999999999942,28.35699999999997 91.20000000000073,28.567999999999984 90.97999999999956,28.745000000000005 C90.76000000000022,28.922000000000025 90.45999999999913,29.071000000000026 90.07999999999993,29.190000000000055 C89.70999999999913,29.309999999999945 89.28000000000065,29.370000000000005 88.81999999999971,29.370000000000005 L86.54999999999927,29.370000000000005 L86.54999999999927,29.214000000000055 C86.85000000000036,29.192999999999984 87.04000000000087,29.140999999999963 87.1299999999992,29.057999999999993 C87.20999999999913,28.974000000000046 87.25,28.787000000000035 87.25,28.495000000000005 L87.25,24.94799999999998 C87.25,24.65700000000004 87.20999999999913,24.47199999999998 87.13999999999942,24.394000000000005 C87.05999999999949,24.315000000000055 86.86000000000058,24.260999999999967 86.54999999999927,24.229000000000042 L86.54999999999927,24.07299999999998 L88.70999999999913,24.07299999999998 C89.20000000000073,24.07299999999998 89.6299999999992,24.128000000000043 90.01000000000022,24.236999999999966 C90.38999999999942,24.34699999999998 90.70000000000073,24.486999999999966 90.93000000000029,24.658999999999992 C91.17000000000007,24.831000000000017 91.36000000000058,25.037000000000035 91.51000000000022,25.275999999999954 C91.65999999999985,25.515999999999963 91.77000000000044,25.75 91.81999999999971,25.979000000000042 C91.8799999999992,26.208999999999946 91.90999999999985,26.44799999999998 91.90999999999985,26.69799999999998 M91.02000000000044,26.760999999999967 C91.02000000000044,26.53200000000004 91.0,26.309999999999945 90.95999999999913,26.09699999999998 C90.90999999999985,25.883000000000038 90.82999999999993,25.66999999999996 90.70999999999913,25.456000000000017 C90.59000000000015,25.241999999999962 90.44000000000051,25.059999999999945 90.25,24.908999999999992 C90.06999999999971,24.758000000000038 89.81999999999971,24.633000000000038 89.52000000000044,24.533999999999992 C89.21999999999935,24.434999999999945 88.8700000000008,24.385999999999967 88.48999999999978,24.385999999999967 C88.31999999999971,24.385999999999967 88.20999999999913,24.40700000000004 88.14999999999964,24.44799999999998 C88.09000000000015,24.49000000000001 88.06999999999971,24.57299999999998 88.06999999999971,24.69799999999998 L88.06999999999971,28.745000000000005 C88.06999999999971,28.870000000000005 88.09000000000015,28.956000000000017 88.14999999999964,29.003000000000043 C88.20999999999913,29.049999999999955 88.31999999999971,29.07299999999998 88.48999999999978,29.07299999999998 C90.18000000000029,29.07299999999998 91.02000000000044,28.30200000000002 91.02000000000044,26.760999999999967 M94.85000000000036,26.885999999999967 C94.70999999999913,26.458999999999946 94.60000000000036,26.190000000000055 94.53000000000065,26.081000000000017 C94.45000000000073,25.97199999999998 94.31999999999971,25.90700000000004 94.13999999999942,25.885999999999967 L94.13999999999942,25.775999999999954 L95.77000000000044,25.775999999999954 L95.77000000000044,25.885999999999967 C95.57999999999993,25.91700000000003 95.45999999999913,25.951000000000022 95.38999999999942,25.986999999999966 C95.32999999999993,26.024 95.29999999999927,26.089000000000055 95.29999999999927,26.182999999999993 C95.29999999999927,26.245000000000005 95.35000000000036,26.400999999999954 95.44000000000051,26.650999999999954 L96.11000000000058,28.44799999999998 L96.82999999999993,26.66700000000003 C96.93000000000029,26.44799999999998 96.96999999999935,26.270999999999958 96.96999999999935,26.135999999999967 C96.96999999999935,26.07299999999998 96.95000000000073,26.024 96.88999999999942,25.986999999999966 C96.84000000000015,25.951000000000022 96.75,25.91700000000003 96.61000000000058,25.885999999999967 L96.61000000000058,25.775999999999954 L97.60000000000036,25.775999999999954 L97.60000000000036,25.885999999999967 C97.51000000000022,25.91700000000003 97.45999999999913,25.956000000000017 97.43000000000029,26.003000000000043 C97.38999999999942,26.049999999999955 97.34000000000015,26.15700000000004 97.27000000000044,26.32299999999998 L96.15999999999985,29.089000000000055 C96.05999999999949,29.349000000000046 95.97999999999956,29.479000000000042 95.94000000000051,29.479000000000042 C95.89999999999964,29.479000000000042 95.84000000000015,29.36500000000001 95.75,29.135999999999967 L95.02000000000044,27.245000000000005 L94.1299999999992,29.16700000000003 C94.03000000000065,29.375 93.96999999999935,29.479000000000042 93.93000000000029,29.479000000000042 C93.8799999999992,29.479000000000042 93.81999999999971,29.36500000000001 93.71999999999935,29.135999999999967 L92.63999999999942,26.400999999999954 C92.55999999999949,26.192999999999984 92.48999999999978,26.057999999999993 92.44000000000051,25.995000000000005 C92.38999999999942,25.932999999999993 92.31999999999971,25.895999999999958 92.21999999999935,25.885999999999967 L92.21999999999935,25.775999999999954 L93.65999999999985,25.775999999999954 L93.65999999999985,25.885999999999967 C93.51000000000022,25.90700000000004 93.40999999999985,25.934999999999945 93.36000000000058,25.97199999999998 C93.30999999999949,26.008000000000038 93.28000000000065,26.067999999999984 93.28000000000065,26.150999999999954 C93.28000000000065,26.235000000000014 93.29999999999927,26.317999999999984 93.32999999999993,26.400999999999954 L94.1299999999992,28.479000000000042 L94.85000000000036,26.885999999999967 M97.86000000000058,28.57299999999998 C97.86000000000058,28.479000000000042 97.8700000000008,28.394000000000005 97.88999999999942,28.315000000000055 C97.90999999999985,28.236999999999966 97.95000000000073,28.162000000000035 98.0,28.089000000000055 C98.05999999999949,28.015999999999963 98.11000000000058,27.951000000000022 98.15999999999985,27.894000000000005 C98.20999999999913,27.836000000000013 98.28000000000065,27.775999999999954 98.3799999999992,27.714000000000055 C98.46999999999935,27.650999999999954 98.54999999999927,27.599000000000046 98.61000000000058,27.557999999999993 C98.68000000000029,27.515999999999963 98.77000000000044,27.46900000000005 98.88999999999942,27.41700000000003 C99.02000000000044,27.36500000000001 99.1200000000008,27.32299999999998 99.18000000000029,27.29200000000003 C99.25,27.260999999999967 99.36000000000058,27.216000000000008 99.51000000000022,27.158999999999992 C99.65999999999985,27.101999999999975 99.77000000000044,27.057999999999993 99.82999999999993,27.025999999999954 L99.82999999999993,26.54200000000003 C99.82999999999993,26.104000000000042 99.6299999999992,25.885999999999967 99.23999999999978,25.885999999999967 C99.06999999999971,25.885999999999967 98.93000000000029,25.924999999999955 98.81999999999971,26.003000000000043 C98.70999999999913,26.081000000000017 98.65999999999985,26.172000000000025 98.65999999999985,26.275999999999954 C98.65999999999985,26.317999999999984 98.67000000000007,26.375 98.68000000000029,26.44799999999998 C98.70000000000073,26.520999999999958 98.70999999999913,26.567999999999984 98.70999999999913,26.589000000000055 C98.70999999999913,26.682999999999993 98.67000000000007,26.763000000000034 98.60000000000036,26.831000000000017 C98.52000000000044,26.899 98.44000000000051,26.932999999999993 98.32999999999993,26.932999999999993 C98.23999999999978,26.932999999999993 98.15999999999985,26.899 98.09000000000015,26.831000000000017 C98.02000000000044,26.763000000000034 97.98999999999978,26.682999999999993 97.98999999999978,26.589000000000055 C97.98999999999978,26.339000000000055 98.1200000000008,26.128000000000043 98.3799999999992,25.956000000000017 C98.63999999999942,25.783999999999992 98.95999999999913,25.69799999999998 99.32999999999993,25.69799999999998 C99.76000000000022,25.69799999999998 100.04999999999927,25.80200000000002 100.20999999999913,26.010999999999967 C100.3799999999992,26.21900000000005 100.45999999999913,26.537000000000035 100.45999999999913,26.964000000000055 L100.45999999999913,28.510999999999967 C100.45999999999913,28.687999999999988 100.46999999999935,28.809999999999945 100.51000000000022,28.878000000000043 C100.54999999999927,28.946000000000026 100.61000000000058,28.979000000000042 100.70999999999913,28.979000000000042 C100.80999999999949,28.979000000000042 100.93000000000029,28.92700000000002 101.04999999999927,28.82299999999998 L101.04999999999927,29.04200000000003 C100.90999999999985,29.19799999999998 100.79000000000087,29.30499999999995 100.69000000000051,29.361999999999966 C100.59000000000015,29.41999999999996 100.46999999999935,29.44799999999998 100.32999999999993,29.44799999999998 C100.18000000000029,29.44799999999998 100.05999999999949,29.400999999999954 99.98999999999978,29.307999999999993 C99.90999999999985,29.214000000000055 99.8700000000008,29.062999999999988 99.85000000000036,28.854000000000042 C99.38999999999942,29.25 99.0,29.44799999999998 98.69000000000051,29.44799999999998 C98.45000000000073,29.44799999999998 98.25,29.366999999999962 98.10000000000036,29.206000000000017 C97.94000000000051,29.04499999999996 97.86000000000058,28.833999999999946 97.86000000000058,28.57299999999998 M99.82999999999993,28.370000000000005 L99.82999999999993,27.214000000000055 C99.35000000000036,27.390999999999963 99.02000000000044,27.562999999999988 98.82999999999993,27.729000000000042 C98.63999999999942,27.895999999999958 98.54999999999927,28.09400000000005 98.54999999999927,28.32299999999998 C98.54999999999927,28.54200000000003 98.60000000000036,28.702999999999975 98.70999999999913,28.807999999999993 C98.80999999999949,28.912000000000035 98.93000000000029,28.964000000000055 99.04999999999927,28.964000000000055 C99.22999999999956,28.964000000000055 99.42000000000007,28.90700000000004 99.6299999999992,28.79200000000003 C99.70999999999913,28.74000000000001 99.77000000000044,28.687999999999988 99.79000000000087,28.635999999999967 C99.81999999999971,28.583999999999946 99.82999999999993,28.495000000000005 99.82999999999993,28.370000000000005 M103.52000000000044,26.44799999999998 C103.44000000000051,26.44799999999998 103.32999999999993,26.400999999999954 103.20999999999913,26.307999999999993 C103.09000000000015,26.214000000000055 103.02000000000044,26.16700000000003 102.98999999999978,26.16700000000003 C102.8799999999992,26.16700000000003 102.76000000000022,26.245000000000005 102.6299999999992,26.400999999999954 C102.48999999999978,26.557999999999993 102.43000000000029,26.702999999999975 102.43000000000029,26.839000000000055 L102.43000000000029,28.650999999999954 C102.43000000000029,28.879999999999995 102.46999999999935,29.033999999999992 102.55999999999949,29.111999999999966 C102.64999999999964,29.190000000000055 102.82999999999993,29.235000000000014 103.10000000000036,29.245000000000005 L103.10000000000036,29.370000000000005 L101.18000000000029,29.370000000000005 L101.18000000000029,29.245000000000005 C101.44000000000051,29.202999999999975 101.59000000000015,29.150999999999954 101.64999999999964,29.089000000000055 C101.70999999999913,29.025999999999954 101.73999999999978,28.895999999999958 101.73999999999978,28.69799999999998 L101.73999999999978,26.682999999999993 C101.73999999999978,26.504999999999995 101.71999999999935,26.379999999999995 101.68000000000029,26.307999999999993 C101.64999999999964,26.235000000000014 101.57999999999993,26.19799999999998 101.46999999999935,26.19799999999998 C101.38999999999942,26.19799999999998 101.29000000000087,26.208999999999946 101.19000000000051,26.229000000000042 L101.19000000000051,26.104000000000042 C101.6200000000008,25.96900000000005 102.01000000000022,25.833999999999946 102.3799999999992,25.69799999999998 L102.43000000000029,25.714000000000055 L102.43000000000029,26.41700000000003 C102.6200000000008,26.145999999999958 102.79000000000087,25.958999999999946 102.93000000000029,25.854000000000042 C103.05999999999949,25.75 103.20999999999913,25.69799999999998 103.3799999999992,25.69799999999998 C103.52000000000044,25.69799999999998 103.6299999999992,25.73199999999997 103.70999999999913,25.799999999999955 C103.78000000000065,25.866999999999962 103.81999999999971,25.96900000000005 103.81999999999971,26.104000000000042 C103.81999999999971,26.208999999999946 103.79000000000087,26.29200000000003 103.73999999999978,26.354000000000042 C103.69000000000051,26.41700000000003 103.61000000000058,26.44799999999998 103.52000000000044,26.44799999999998 M106.5,24.729000000000042 C106.42000000000007,24.729000000000042 106.35000000000036,24.69799999999998 106.28000000000065,24.635999999999967 C106.21999999999935,24.57299999999998 106.17000000000007,24.504999999999995 106.13999999999942,24.432999999999993 C106.10000000000036,24.360000000000014 106.04000000000087,24.29200000000003 105.96999999999935,24.229000000000042 C105.89999999999964,24.16700000000003 105.81999999999971,24.135999999999967 105.71999999999935,24.135999999999967 C105.42000000000007,24.135999999999967 105.27000000000044,24.370000000000005 105.27000000000044,24.839000000000055 L105.27000000000044,25.775999999999954 L106.25,25.775999999999954 L106.25,26.010999999999967 L105.27000000000044,26.010999999999967 L105.27000000000044,28.54200000000003 C105.27000000000044,28.833999999999946 105.30999999999949,29.020999999999958 105.38999999999942,29.104000000000042 C105.47999999999956,29.187999999999988 105.69000000000051,29.235000000000014 106.02000000000044,29.245000000000005 L106.02000000000044,29.370000000000005 L103.93000000000029,29.370000000000005 L103.93000000000029,29.245000000000005 C104.21999999999935,29.235000000000014 104.39999999999964,29.187999999999988 104.47999999999956,29.104000000000042 C104.55999999999949,29.020999999999958 104.60000000000036,28.833999999999946 104.60000000000036,28.54200000000003 L104.60000000000036,26.010999999999967 L103.94000000000051,26.010999999999967 L103.94000000000051,25.775999999999954 L104.60000000000036,25.775999999999954 C104.61000000000058,25.172000000000025 104.71999999999935,24.706000000000017 104.93000000000029,24.378000000000043 C105.14999999999964,24.049999999999955 105.5,23.885999999999967 106.0,23.885999999999967 C106.23999999999978,23.885999999999967 106.44000000000051,23.934999999999945 106.60000000000036,24.033999999999992 C106.75,24.133000000000038 106.82999999999993,24.254999999999995 106.82999999999993,24.400999999999954 C106.82999999999993,24.495000000000005 106.79999999999927,24.57299999999998 106.73999999999978,24.635999999999967 C106.68000000000029,24.69799999999998 106.60000000000036,24.729000000000042 106.5,24.729000000000042 M114.20999999999913,24.79200000000003 L112.15999999999985,29.370000000000005 L112.04999999999927,29.370000000000005 L110.04999999999927,24.979000000000042 L110.04999999999927,28.19799999999998 C110.04999999999927,28.604000000000042 110.10000000000036,28.873000000000047 110.19000000000051,29.003000000000043 C110.28000000000065,29.133000000000038 110.48999999999978,29.202999999999975 110.79999999999927,29.214000000000055 L110.79999999999927,29.370000000000005 L108.93000000000029,29.370000000000005 L108.93000000000029,29.214000000000055 C109.25,29.192999999999984 109.45999999999913,29.120000000000005 109.54999999999927,28.995000000000005 C109.63999999999942,28.870000000000005 109.69000000000051,28.604000000000042 109.69000000000051,28.19799999999998 L109.69000000000051,24.94799999999998 C109.69000000000051,24.65700000000004 109.64999999999964,24.46900000000005 109.55999999999949,24.385999999999967 C109.46999999999935,24.30200000000002 109.26000000000022,24.25 108.94000000000051,24.229000000000042 L108.94000000000051,24.07299999999998 L110.52000000000044,24.07299999999998 L112.36000000000058,28.120000000000005 L114.1299999999992,24.07299999999998 L115.71999999999935,24.07299999999998 L115.71999999999935,24.229000000000042 C115.42000000000007,24.260999999999967 115.22999999999956,24.317999999999984 115.14999999999964,24.400999999999954 C115.06999999999971,24.485000000000014 115.03000000000065,24.66700000000003 115.03000000000065,24.94799999999998 L115.03000000000065,28.495000000000005 C115.03000000000065,28.775999999999954 115.07999999999993,28.961000000000013 115.15999999999985,29.049999999999955 C115.23999999999978,29.138000000000034 115.43000000000029,29.192999999999984 115.71999999999935,29.214000000000055 L115.71999999999935,29.370000000000005 L113.48999999999978,29.370000000000005 L113.48999999999978,29.214000000000055 C113.79999999999927,29.192999999999984 114.0,29.135999999999967 114.07999999999993,29.04200000000003 C114.15999999999985,28.94799999999998 114.20999999999913,28.74000000000001 114.20999999999913,28.41700000000003 L114.20999999999913,24.79200000000003 M119.69000000000051,28.94799999999998 L119.69000000000051,29.07299999999998 C119.27000000000044,29.187999999999988 118.90999999999985,29.312999999999988 118.60000000000036,29.44799999999998 L118.56999999999971,29.432999999999993 L118.54999999999927,28.745000000000005 C118.54000000000087,28.765999999999963 118.5,28.815000000000055 118.42000000000007,28.894000000000005 C118.34000000000015,28.97199999999998 118.28000000000065,29.025999999999954 118.25,29.057999999999993 C118.21999999999935,29.089000000000055 118.17000000000007,29.135999999999967 118.09000000000015,29.19799999999998 C118.01000000000022,29.260999999999967 117.94000000000051,29.30499999999995 117.88999999999942,29.331000000000017 C117.82999999999993,29.35699999999997 117.76000000000022,29.383000000000038 117.67000000000007,29.408999999999992 C117.57999999999993,29.434999999999945 117.48999999999978,29.44799999999998 117.38999999999942,29.44799999999998 C117.10000000000036,29.44799999999998 116.8700000000008,29.351999999999975 116.69000000000051,29.158999999999992 C116.51000000000022,28.966000000000008 116.43000000000029,28.714000000000055 116.43000000000029,28.400999999999954 L116.43000000000029,26.385999999999967 C116.43000000000029,26.208999999999946 116.38999999999942,26.083999999999946 116.31999999999971,26.010999999999967 C116.26000000000022,25.937999999999988 116.1200000000008,25.895999999999958 115.93000000000029,25.885999999999967 L115.93000000000029,25.775999999999954 L117.10000000000036,25.775999999999954 L117.10000000000036,28.370000000000005 C117.10000000000036,28.525999999999954 117.14999999999964,28.663999999999987 117.27000000000044,28.783999999999992 C117.3799999999992,28.903999999999996 117.51000000000022,28.964000000000055 117.65999999999985,28.964000000000055 C117.71999999999935,28.964000000000055 117.79000000000087,28.956000000000017 117.8700000000008,28.940000000000055 C117.95000000000073,28.924999999999955 118.04000000000087,28.895999999999958 118.13999999999942,28.854000000000042 C118.25,28.812999999999988 118.34000000000015,28.741999999999962 118.40999999999985,28.644000000000005 C118.47999999999956,28.54499999999996 118.52000000000044,28.422000000000025 118.52000000000044,28.275999999999954 L118.52000000000044,26.400999999999954 C118.52000000000044,26.214000000000055 118.47999999999956,26.086000000000013 118.40999999999985,26.019000000000005 C118.34000000000015,25.951000000000022 118.18000000000029,25.912000000000035 117.93000000000029,25.900999999999954 L117.93000000000029,25.775999999999954 L119.19000000000051,25.775999999999954 L119.19000000000051,28.495000000000005 C119.19000000000051,28.682999999999993 119.21999999999935,28.80499999999995 119.28000000000065,28.861999999999966 C119.35000000000036,28.91999999999996 119.46999999999935,28.94799999999998 119.65999999999985,28.94799999999998 L119.69000000000051,28.94799999999998 M121.88999999999942,25.854000000000042 C121.89999999999964,25.854000000000042 121.95000000000073,25.827999999999975 122.02000000000044,25.775999999999954 L122.11000000000058,25.775999999999954 L122.13999999999942,26.854000000000042 L122.02000000000044,26.854000000000042 C121.94000000000051,26.5 121.82999999999993,26.248000000000047 121.69000000000051,26.09699999999998 C121.55999999999949,25.946000000000026 121.3700000000008,25.870000000000005 121.13999999999942,25.870000000000005 C120.96999999999935,25.870000000000005 120.81999999999971,25.922000000000025 120.70999999999913,26.025999999999954 C120.59000000000015,26.129999999999995 120.53000000000065,26.260999999999967 120.53000000000065,26.41700000000003 C120.53000000000065,26.645999999999958 120.64999999999964,26.827999999999975 120.8799999999992,26.964000000000055 L121.73999999999978,27.479000000000042 C121.97999999999956,27.625 122.14999999999964,27.770999999999958 122.25,27.91700000000003 C122.36000000000058,28.062999999999988 122.40999999999985,28.235000000000014 122.40999999999985,28.432999999999993 C122.40999999999985,28.702999999999975 122.29999999999927,28.940000000000055 122.06999999999971,29.144000000000005 C121.85000000000036,29.34699999999998 121.59000000000015,29.44799999999998 121.28000000000065,29.44799999999998 C121.14999999999964,29.44799999999998 120.96999999999935,29.424999999999955 120.75,29.378000000000043 C120.52000000000044,29.331000000000017 120.3799999999992,29.307999999999993 120.32999999999993,29.307999999999993 C120.25,29.307999999999993 120.19000000000051,29.339000000000055 120.13999999999942,29.400999999999954 L120.03000000000065,29.400999999999954 L120.03000000000065,28.150999999999954 L120.18000000000029,28.150999999999954 C120.26000000000022,28.525999999999954 120.36000000000058,28.79200000000003 120.46999999999935,28.94799999999998 C120.63999999999942,29.16700000000003 120.8799999999992,29.275999999999954 121.19000000000051,29.275999999999954 C121.38999999999942,29.275999999999954 121.54999999999927,29.224000000000046 121.67000000000007,29.120000000000005 C121.79000000000087,29.015999999999963 121.85000000000036,28.875 121.85000000000036,28.69799999999998 C121.85000000000036,28.458999999999946 121.70999999999913,28.260999999999967 121.43000000000029,28.104000000000042 L120.96999999999935,27.839000000000055 C120.6299999999992,27.640999999999963 120.38999999999942,27.456000000000017 120.25,27.283999999999992 C120.10000000000036,27.111999999999966 120.03000000000065,26.912000000000035 120.03000000000065,26.682999999999993 C120.03000000000065,26.390999999999963 120.13999999999942,26.153999999999996 120.34000000000015,25.97199999999998 C120.54000000000087,25.788999999999987 120.80999999999949,25.69799999999998 121.1299999999992,25.69799999999998 C121.29000000000087,25.69799999999998 121.45999999999913,25.724000000000046 121.61000000000058,25.775999999999954 C121.77000000000044,25.827999999999975 121.86000000000058,25.854000000000042 121.88999999999942,25.854000000000042 M123.18000000000029,26.229000000000042 C123.04999999999927,26.229000000000042 122.94000000000051,26.235000000000014 122.82999999999993,26.245000000000005 L122.82999999999993,26.135999999999967 C123.20999999999913,26.03200000000004 123.6200000000008,25.885999999999967 124.07999999999993,25.69799999999998 L124.11000000000058,25.714000000000055 L124.11000000000058,28.557999999999993 C124.11000000000058,28.839000000000055 124.14999999999964,29.019000000000005 124.20999999999913,29.09699999999998 C124.28000000000065,29.174999999999955 124.45000000000073,29.224000000000046 124.70999999999913,29.245000000000005 L124.70999999999913,29.370000000000005 L122.79999999999927,29.370000000000005 L122.79999999999927,29.245000000000005 C123.07999999999993,29.235000000000014 123.26000000000022,29.187999999999988 123.32999999999993,29.104000000000042 C123.39999999999964,29.020999999999958 123.44000000000051,28.839000000000055 123.44000000000051,28.557999999999993 L123.44000000000051,26.69799999999998 C123.44000000000051,26.520999999999958 123.42000000000007,26.399 123.3799999999992,26.331000000000017 C123.34000000000015,26.263000000000034 123.27000000000044,26.229000000000042 123.18000000000029,26.229000000000042 M123.70999999999913,23.900999999999954 C123.81999999999971,23.900999999999954 123.92000000000007,23.942999999999984 124.0,24.025999999999954 C124.09000000000015,24.110000000000014 124.1299999999992,24.208999999999946 124.1299999999992,24.32299999999998 C124.1299999999992,24.437999999999988 124.09000000000015,24.533999999999992 124.0,24.611999999999966 C123.92000000000007,24.690000000000055 123.81999999999971,24.729000000000042 123.70999999999913,24.729000000000042 C123.59000000000015,24.729000000000042 123.5,24.687999999999988 123.42000000000007,24.604000000000042 C123.34000000000015,24.520999999999958 123.29999999999927,24.424999999999955 123.29999999999927,24.315000000000055 C123.29999999999927,24.206000000000017 123.34000000000015,24.110000000000014 123.42000000000007,24.025999999999954 C123.5,23.942999999999984 123.59000000000015,23.900999999999954 123.70999999999913,23.900999999999954 M125.10000000000036,27.66700000000003 C125.10000000000036,27.07299999999998 125.27000000000044,26.59699999999998 125.6200000000008,26.236999999999966 C125.96999999999935,25.878000000000043 126.3799999999992,25.69799999999998 126.85000000000036,25.69799999999998 C127.18000000000029,25.69799999999998 127.45999999999913,25.778999999999996 127.70000000000073,25.940000000000055 C127.93000000000029,26.101999999999975 128.04999999999927,26.297000000000025 128.04999999999927,26.525999999999954 C128.04999999999927,26.610000000000014 128.01000000000022,26.684999999999945 127.94000000000051,26.753000000000043 C127.8700000000008,26.821000000000026 127.78000000000065,26.854000000000042 127.68000000000029,26.854000000000042 C127.5,26.854000000000042 127.3799999999992,26.735000000000014 127.31999999999971,26.495000000000005 L127.27000000000044,26.32299999999998 C127.22999999999956,26.16700000000003 127.18000000000029,26.062999999999988 127.11000000000058,26.010999999999967 C127.04999999999927,25.958999999999946 126.95000000000073,25.932999999999993 126.79999999999927,25.932999999999993 C126.47999999999956,25.932999999999993 126.21999999999935,26.059999999999945 126.02000000000044,26.315000000000055 C125.81999999999971,26.571000000000026 125.71999999999935,26.90700000000004 125.71999999999935,27.32299999999998 C125.71999999999935,27.770999999999958 125.84000000000015,28.140999999999963 126.06999999999971,28.432999999999993 C126.29000000000087,28.724000000000046 126.59000000000015,28.870000000000005 126.95999999999913,28.870000000000005 C127.18000000000029,28.870000000000005 127.3700000000008,28.812999999999988 127.53000000000065,28.69799999999998 C127.69000000000051,28.583999999999946 127.86000000000058,28.390999999999963 128.04999999999927,28.120000000000005 L128.15999999999985,28.182999999999993 C128.11000000000058,28.297000000000025 128.0599999999995,28.388000000000034 128.03000000000065,28.456000000000017 C127.98999999999978,28.524 127.92000000000007,28.628000000000043 127.81999999999971,28.769000000000005 C127.70999999999913,28.908999999999992 127.61000000000058,29.020999999999958 127.51000000000022,29.104000000000042 C127.40999999999985,29.187999999999988 127.28000000000065,29.265999999999963 127.1200000000008,29.339000000000055 C126.95999999999913,29.412000000000035 126.79000000000087,29.44799999999998 126.61000000000058,29.44799999999998 C126.18000000000029,29.44799999999998 125.80999999999949,29.28200000000004 125.53000000000065,28.94799999999998 C125.23999999999978,28.61500000000001 125.10000000000036,28.187999999999988 125.10000000000036,27.66700000000003 M129.4400000000005,28.57299999999998 C129.5599999999995,28.57299999999998 129.65999999999985,28.616999999999962 129.75,28.706000000000017 C129.82999999999993,28.79499999999996 129.8799999999992,28.900999999999954 129.8799999999992,29.025999999999954 C129.8799999999992,29.140999999999963 129.82999999999993,29.241999999999962 129.75,29.331000000000017 C129.65999999999985,29.41999999999996 129.54999999999927,29.464000000000055 129.4300000000003,29.464000000000055 C129.3099999999995,29.464000000000055 129.20999999999913,29.41999999999996 129.1299999999992,29.331000000000017 C129.04000000000087,29.241999999999962 129.0,29.140999999999963 129.0,29.025999999999954 C129.0,28.900999999999954 129.04999999999927,28.79499999999996 129.13999999999942,28.706000000000017 C129.21999999999935,28.616999999999962 129.32999999999993,28.57299999999998 129.4400000000005,28.57299999999998" />
</svg>
