<?xml version="1.0" encoding="UTF-8" standalone="yes"?>
<svg width="256.0px" height="256.0px" xmlns="http://www.w3.org/2000/svg" xmlns:xlink="http://www.w3.org/1999/xlink" version="1.2" baseProfile="tiny">
<path d="M149.4400000000005,30.79200000000003 C149.29999999999927,30.69799999999998 149.15999999999985,30.591000000000008 149.01000000000022,30.47199999999998 C148.86000000000058,30.351999999999975 148.6900000000005,30.184999999999945 148.5,29.97199999999998 C148.3099999999995,29.758000000000038 148.13999999999942,29.53200000000004 148.0,29.29200000000003 C147.85000000000036,29.05200000000002 147.72999999999956,28.760999999999967 147.63999999999942,28.41700000000003 C147.54999999999927,28.07299999999998 147.5,27.71900000000005 147.5,27.354000000000042 C147.5,26.96900000000005 147.54999999999927,26.604000000000042 147.63999999999942,26.260999999999967 C147.72999999999956,25.91700000000003 147.85000000000036,25.633000000000038 147.97999999999956,25.408999999999992 C148.1200000000008,25.184999999999945 148.29000000000087,24.966000000000008 148.48999999999978,24.753000000000043 C148.6900000000005,24.538999999999987 148.86000000000058,24.383000000000038 149.0,24.283999999999992 C149.1299999999992,24.184999999999945 149.29000000000087,24.077999999999975 149.45000000000073,23.964000000000055 L149.53000000000065,24.089000000000055 C149.29999999999927,24.287000000000035 149.11000000000058,24.461000000000013 148.96999999999935,24.611999999999966 C148.8199999999997,24.763000000000034 148.6800000000003,24.964000000000055 148.54999999999927,25.214000000000055 C148.40999999999985,25.464000000000055 148.3099999999995,25.760999999999967 148.26000000000022,26.104000000000042 C148.20000000000073,26.44799999999998 148.17000000000007,26.860000000000014 148.17000000000007,27.339000000000055 C148.17000000000007,27.827999999999975 148.20000000000073,28.253000000000043 148.26000000000022,28.611999999999966 C148.3099999999995,28.97199999999998 148.40999999999985,29.275999999999954 148.54999999999927,29.525999999999954 C148.6800000000003,29.775999999999954 148.8199999999997,29.98199999999997 148.96999999999935,30.144000000000005 C149.11000000000058,30.30499999999995 149.29999999999927,30.474000000000046 149.53000000000065,30.650999999999954 L149.4400000000005,30.79200000000003 M149.96999999999935,27.66700000000003 C149.96999999999935,27.07299999999998 150.13999999999942,26.59699999999998 150.48999999999978,26.236999999999966 C150.84000000000015,25.878000000000043 151.25,25.69799999999998 151.71999999999935,25.69799999999998 C152.04999999999927,25.69799999999998 152.32999999999993,25.778999999999996 152.5699999999997,25.940000000000055 C152.79999999999927,26.101999999999975 152.92000000000007,26.297000000000025 152.92000000000007,26.525999999999954 C152.92000000000007,26.610000000000014 152.8799999999992,26.684999999999945 152.8099999999995,26.753000000000043 C152.73999999999978,26.821000000000026 152.64999999999964,26.854000000000042 152.54999999999927,26.854000000000042 C152.3700000000008,26.854000000000042 152.25,26.735000000000014 152.1900000000005,26.495000000000005 L152.13999999999942,26.32299999999998 C152.10000000000036,26.16700000000003 152.04999999999927,26.062999999999988 151.97999999999956,26.010999999999967 C151.92000000000007,25.958999999999946 151.8199999999997,25.932999999999993 151.67000000000007,25.932999999999993 C151.35000000000036,25.932999999999993 151.09000000000015,26.059999999999945 150.88999999999942,26.315000000000055 C150.6900000000005,26.571000000000026 150.59000000000015,26.90700000000004 150.59000000000015,27.32299999999998 C150.59000000000015,27.770999999999958 150.70999999999913,28.140999999999963 150.9400000000005,28.432999999999993 C151.17000000000007,28.724000000000046 151.45999999999913,28.870000000000005 151.82999999999993,28.870000000000005 C152.04999999999927,28.870000000000005 152.23999999999978,28.812999999999988 152.39999999999964,28.69799999999998 C152.5599999999995,28.583999999999946 152.72999999999956,28.390999999999963 152.92000000000007,28.120000000000005 L153.03000000000065,28.182999999999993 C152.97999999999956,28.297000000000025 152.9300000000003,28.388000000000034 152.89999999999964,28.456000000000017 C152.86000000000058,28.524 152.79000000000087,28.628000000000043 152.6900000000005,28.769000000000005 C152.57999999999993,28.908999999999992 152.47999999999956,29.020999999999958 152.3799999999992,29.104000000000042 C152.28000000000065,29.187999999999988 152.14999999999964,29.265999999999963 151.98999999999978,29.339000000000055 C151.82999999999993,29.412000000000035 151.65999999999985,29.44799999999998 151.47999999999956,29.44799999999998 C151.04999999999927,29.44799999999998 150.6800000000003,29.28200000000004 150.39999999999964,28.94799999999998 C150.11000000000058,28.61500000000001 149.96999999999935,28.187999999999988 149.96999999999935,27.66700000000003 M153.63999999999942,23.964000000000055 C153.79000000000087,24.047000000000025 153.9300000000003,24.149 154.07999999999993,24.269000000000005 C154.21999999999935,24.388000000000034 154.38999999999942,24.55499999999995 154.57999999999993,24.769000000000005 C154.78000000000065,24.98199999999997 154.9400000000005,25.211000000000013 155.07999999999993,25.456000000000017 C155.22999999999956,25.701000000000022 155.35000000000036,25.991999999999962 155.4400000000005,26.331000000000017 C155.54000000000087,26.66999999999996 155.59000000000015,27.025999999999954 155.59000000000015,27.400999999999954 C155.59000000000015,27.775999999999954 155.54000000000087,28.135999999999967 155.4400000000005,28.479000000000042 C155.35000000000036,28.82299999999998 155.22999999999956,29.110000000000014 155.10000000000036,29.339000000000055 C154.96999999999935,29.567999999999984 154.79999999999927,29.787000000000035 154.59000000000015,29.995000000000005 C154.3799999999992,30.202999999999975 154.21999999999935,30.360000000000014 154.07999999999993,30.464000000000055 C153.95000000000073,30.567999999999984 153.79999999999927,30.67700000000002 153.6200000000008,30.79200000000003 L153.54999999999927,30.650999999999954 C153.79000000000087,30.464000000000055 153.97999999999956,30.29200000000003 154.1200000000008,30.135999999999967 C154.27000000000044,29.979000000000042 154.40999999999985,29.778999999999996 154.54000000000087,29.533999999999992 C154.67000000000007,29.288999999999987 154.76000000000022,28.995000000000005 154.8199999999997,28.650999999999954 C154.8799999999992,28.307999999999993 154.90999999999985,27.895999999999958 154.90999999999985,27.41700000000003 C154.90999999999985,26.92700000000002 154.8799999999992,26.503000000000043 154.8199999999997,26.144000000000005 C154.76000000000022,25.783999999999992 154.67000000000007,25.476999999999975 154.54000000000087,25.22199999999998 C154.40999999999985,24.966000000000008 154.27000000000044,24.760999999999967 154.1200000000008,24.604000000000042 C153.97999999999956,24.44799999999998 153.79000000000087,24.275999999999954 153.54999999999927,24.089000000000055 L153.63999999999942,23.964000000000055 M159.42000000000007,24.635999999999967 C159.3199999999997,24.635999999999967 159.1200000000008,24.692999999999984 158.84000000000015,24.807999999999993 L158.84000000000015,24.69799999999998 L160.26000000000022,23.964000000000055 L160.32999999999993,23.979000000000042 L160.32999999999993,28.775999999999954 C160.32999999999993,28.974000000000046 160.3799999999992,29.101999999999975 160.47999999999956,29.158999999999992 C160.5699999999997,29.216000000000008 160.78000000000065,29.245000000000005 161.09000000000015,29.245000000000005 L161.09000000000015,29.370000000000005 L158.88999999999942,29.370000000000005 L158.88999999999942,29.245000000000005 C159.1900000000005,29.235000000000014 159.38999999999942,29.190000000000055 159.5,29.111999999999966 C159.60000000000036,29.033999999999992 159.65999999999985,28.870000000000005 159.65999999999985,28.620000000000005 L159.65999999999985,25.010999999999967 C159.65999999999985,24.760999999999967 159.57999999999993,24.635999999999967 159.42000000000007,24.635999999999967 M162.40999999999985,29.54200000000003 L162.38999999999942,29.385999999999967 C162.98999999999978,29.28200000000004 163.51000000000022,29.024 163.9300000000003,28.611999999999966 C164.35000000000036,28.201000000000022 164.63999999999942,27.66700000000003 164.8099999999995,27.010999999999967 C164.42000000000007,27.32299999999998 164.01000000000022,27.479000000000042 163.61000000000058,27.479000000000042 C163.1800000000003,27.479000000000042 162.82999999999993,27.327999999999975 162.5699999999997,27.025999999999954 C162.29999999999927,26.724000000000046 162.17000000000007,26.333999999999946 162.17000000000007,25.854000000000042 C162.17000000000007,25.312999999999988 162.32999999999993,24.860000000000014 162.64999999999964,24.495000000000005 C162.96999999999935,24.129999999999995 163.36000000000058,23.94799999999998 163.84000000000015,23.94799999999998 C164.3700000000008,23.94799999999998 164.8099999999995,24.158999999999992 165.13999999999942,24.581000000000017 C165.46999999999935,25.003000000000043 165.63999999999942,25.547000000000025 165.63999999999942,26.214000000000055 C165.63999999999942,26.432999999999993 165.6200000000008,26.653999999999996 165.57999999999993,26.878000000000043 C165.54999999999927,27.101999999999975 165.45999999999913,27.366999999999962 165.32999999999993,27.674999999999955 C165.1900000000005,27.98199999999997 165.01000000000022,28.254999999999995 164.79000000000087,28.495000000000005 C164.5599999999995,28.735000000000014 164.25,28.952999999999975 163.84000000000015,29.150999999999954 C163.4400000000005,29.349000000000046 162.95999999999913,29.479000000000042 162.40999999999985,29.54200000000003 M163.90999999999985,27.120000000000005 C164.01000000000022,27.120000000000005 164.1200000000008,27.10699999999997 164.25,27.081000000000017 C164.3700000000008,27.05499999999995 164.5,26.991999999999962 164.6299999999992,26.894000000000005 C164.76000000000022,26.79499999999996 164.82999999999993,26.672000000000025 164.82999999999993,26.525999999999954 L164.82999999999993,26.214000000000055 C164.82999999999993,24.860000000000014 164.47999999999956,24.182999999999993 163.78000000000065,24.182999999999993 C163.61000000000058,24.182999999999993 163.46999999999935,24.226999999999975 163.35000000000036,24.315000000000055 C163.22999999999956,24.403999999999996 163.13999999999942,24.520999999999958 163.07999999999993,24.66700000000003 C163.03000000000065,24.812999999999988 162.97999999999956,24.958999999999946 162.95000000000073,25.104000000000042 C162.92000000000007,25.25 162.90999999999985,25.40700000000004 162.90999999999985,25.57299999999998 C162.90999999999985,26.05200000000002 163.0,26.42999999999995 163.1800000000003,26.706000000000017 C163.36000000000058,26.98199999999997 163.60000000000036,27.120000000000005 163.90999999999985,27.120000000000005 M167.97999999999956,29.479000000000042 C167.4400000000005,29.479000000000042 167.01000000000022,29.265999999999963 166.6800000000003,28.839000000000055 C166.35000000000036,28.412000000000035 166.1900000000005,27.84400000000005 166.1900000000005,27.135999999999967 C166.1900000000005,26.91700000000003 166.20999999999913,26.692999999999984 166.26000000000022,26.464000000000055 C166.29999999999927,26.235000000000014 166.39999999999964,25.97199999999998 166.54000000000087,25.674999999999955 C166.6800000000003,25.378000000000043 166.8700000000008,25.111999999999966 167.10000000000036,24.878000000000043 C167.32999999999993,24.644000000000005 167.65999999999985,24.434999999999945 168.0699999999997,24.253000000000043 C168.47999999999956,24.071000000000026 168.95999999999913,23.952999999999975 169.5,23.900999999999954 L169.51000000000022,24.025999999999954 C168.8799999999992,24.129999999999995 168.35000000000036,24.385999999999967 167.9300000000003,24.79200000000003 C167.51000000000022,25.19799999999998 167.23999999999978,25.702999999999975 167.1200000000008,26.307999999999993 C167.3700000000008,26.162000000000035 167.5599999999995,26.067999999999984 167.6900000000005,26.025999999999954 C167.8199999999997,25.985000000000014 167.97999999999956,25.964000000000055 168.15999999999985,25.964000000000055 C168.6200000000008,25.964000000000055 169.0,26.111999999999966 169.27000000000044,26.408999999999992 C169.54999999999927,26.706000000000017 169.6900000000005,27.104000000000042 169.6900000000005,27.604000000000042 C169.6900000000005,28.15700000000004 169.53000000000065,28.60699999999997 169.20999999999913,28.956000000000017 C168.88999999999942,29.30499999999995 168.47999999999956,29.479000000000042 167.97999999999956,29.479000000000042 M167.86000000000058,26.32299999999998 C167.48999999999978,26.32299999999998 167.25,26.400999999999954 167.1200000000008,26.557999999999993 C166.98999999999978,26.714000000000055 166.92000000000007,26.94799999999998 166.92000000000007,27.260999999999967 C166.92000000000007,27.875 167.02000000000044,28.360000000000014 167.22999999999956,28.714000000000055 C167.4400000000005,29.067999999999984 167.71999999999935,29.245000000000005 168.0599999999995,29.245000000000005 C168.35000000000036,29.245000000000005 168.5699999999997,29.128000000000043 168.71999999999935,28.894000000000005 C168.86000000000058,28.658999999999992 168.9400000000005,28.32299999999998 168.9400000000005,27.885999999999967 C168.9400000000005,27.385999999999967 168.84000000000015,27.0 168.65999999999985,26.729000000000042 C168.46999999999935,26.458999999999946 168.20000000000073,26.32299999999998 167.86000000000058,26.32299999999998 M172.22999999999956,26.400999999999954 C172.71999999999935,26.754999999999995 173.04999999999927,27.05200000000002 173.22999999999956,27.29200000000003 C173.39999999999964,27.53200000000004 173.47999999999956,27.807999999999993 173.47999999999956,28.120000000000005 C173.47999999999956,28.537000000000035 173.34000000000015,28.866999999999962 173.04999999999927,29.111999999999966 C172.77000000000044,29.35699999999997 172.3799999999992,29.479000000000042 171.90999999999985,29.479000000000042 C171.45000000000073,29.479000000000042 171.0699999999997,29.35699999999997 170.79000000000087,29.111999999999966 C170.5,28.866999999999962 170.36000000000058,28.547000000000025 170.36000000000058,28.150999999999954 C170.36000000000058,27.879999999999995 170.42000000000007,27.653999999999996 170.54999999999927,27.47199999999998 C170.6800000000003,27.288999999999987 170.96999999999935,27.037000000000035 171.40999999999985,26.714000000000055 C170.97999999999956,26.339000000000055 170.70000000000073,26.062999999999988 170.57999999999993,25.885999999999967 C170.46999999999935,25.708999999999946 170.40999999999985,25.49000000000001 170.40999999999985,25.229000000000042 C170.40999999999985,24.86500000000001 170.54999999999927,24.559999999999945 170.82999999999993,24.315000000000055 C171.1200000000008,24.071000000000026 171.48999999999978,23.94799999999998 171.9400000000005,23.94799999999998 C172.32999999999993,23.94799999999998 172.65999999999985,24.05499999999995 172.90999999999985,24.269000000000005 C173.17000000000007,24.48199999999997 173.29999999999927,24.760999999999967 173.29999999999927,25.104000000000042 C173.29999999999927,25.375 173.21999999999935,25.604000000000042 173.0599999999995,25.79200000000003 C172.90999999999985,25.979000000000042 172.6299999999992,26.182999999999993 172.22999999999956,26.400999999999954 M171.61000000000058,26.870000000000005 C171.3799999999992,27.057999999999993 171.21999999999935,27.241999999999962 171.1200000000008,27.424999999999955 C171.03000000000065,27.60699999999997 170.97999999999956,27.827999999999975 170.97999999999956,28.089000000000055 C170.97999999999956,28.432999999999993 171.0699999999997,28.711000000000013 171.26000000000022,28.924999999999955 C171.4400000000005,29.138000000000034 171.6800000000003,29.245000000000005 171.97999999999956,29.245000000000005 C172.23999999999978,29.245000000000005 172.45000000000073,29.163999999999987 172.6200000000008,29.003000000000043 C172.78000000000065,28.841000000000008 172.86000000000058,28.629999999999995 172.86000000000058,28.370000000000005 C172.86000000000058,28.287000000000035 172.85000000000036,28.206000000000017 172.82999999999993,28.128000000000043 C172.8199999999997,28.049999999999955 172.79999999999927,27.985000000000014 172.78000000000065,27.932999999999993 C172.76000000000022,27.879999999999995 172.71999999999935,27.817999999999984 172.65999999999985,27.745000000000005 C172.61000000000058,27.672000000000025 172.5599999999995,27.616999999999962 172.53000000000065,27.581000000000017 C172.5,27.54499999999996 172.4400000000005,27.486999999999966 172.35000000000036,27.408999999999992 C172.26000000000022,27.331000000000017 172.1900000000005,27.275999999999954 172.14999999999964,27.245000000000005 C172.10000000000036,27.214000000000055 172.01000000000022,27.153999999999996 171.88999999999942,27.065000000000055 C171.76000000000022,26.976999999999975 171.67000000000007,26.912000000000035 171.61000000000058,26.870000000000005 M172.0,26.260999999999967 C172.01000000000022,26.25 172.04999999999927,26.22199999999998 172.1200000000008,26.174999999999955 C172.1800000000003,26.128000000000043 172.22999999999956,26.091000000000008 172.26000000000022,26.065000000000055 C172.28000000000065,26.038999999999987 172.32999999999993,26.0 172.38999999999942,25.94799999999998 C172.45000000000073,25.895999999999958 172.5,25.84400000000005 172.53000000000065,25.79200000000003 C172.5599999999995,25.74000000000001 172.60000000000036,25.67700000000002 172.63999999999942,25.604000000000042 C172.6800000000003,25.53200000000004 172.70999999999913,25.451000000000022 172.72999999999956,25.361999999999966 C172.73999999999978,25.274 172.75,25.182999999999993 172.75,25.089000000000055 C172.75,24.817999999999984 172.67000000000007,24.599000000000046 172.51000000000022,24.432999999999993 C172.36000000000058,24.265999999999963 172.13999999999942,24.182999999999993 171.8700000000008,24.182999999999993 C171.6200000000008,24.182999999999993 171.42000000000007,24.258000000000038 171.26000000000022,24.408999999999992 C171.10000000000036,24.559999999999945 171.01000000000022,24.75 171.01000000000022,24.979000000000042 C171.01000000000022,25.19799999999998 171.09000000000015,25.40700000000004 171.23999999999978,25.604000000000042 C171.38999999999942,25.80200000000002 171.63999999999942,26.020999999999958 172.0,26.260999999999967 M181.36000000000058,26.69799999999998 C181.36000000000058,26.937999999999988 181.32999999999993,27.172000000000025 181.27000000000044,27.400999999999954 C181.21999999999935,27.629999999999995 181.1200000000008,27.866999999999962 180.97999999999956,28.111999999999966 C180.82999999999993,28.35699999999997 180.64999999999964,28.567999999999984 180.4300000000003,28.745000000000005 C180.20000000000073,28.922000000000025 179.90999999999985,29.071000000000026 179.53000000000065,29.190000000000055 C179.15999999999985,29.309999999999945 178.72999999999956,29.370000000000005 178.26000000000022,29.370000000000005 L176.0,29.370000000000005 L176.0,29.214000000000055 C176.29999999999927,29.192999999999984 176.48999999999978,29.140999999999963 176.57999999999993,29.057999999999993 C176.65999999999985,28.974000000000046 176.70000000000073,28.787000000000035 176.70000000000073,28.495000000000005 L176.70000000000073,24.94799999999998 C176.70000000000073,24.65700000000004 176.65999999999985,24.47199999999998 176.57999999999993,24.394000000000005 C176.51000000000022,24.315000000000055 176.3099999999995,24.260999999999967 176.0,24.229000000000042 L176.0,24.07299999999998 L178.15999999999985,24.07299999999998 C178.63999999999942,24.07299999999998 179.07999999999993,24.128000000000043 179.45999999999913,24.236999999999966 C179.84000000000015,24.34699999999998 180.14999999999964,24.486999999999966 180.3799999999992,24.658999999999992 C180.6200000000008,24.831000000000017 180.8099999999995,25.037000000000035 180.95999999999913,25.275999999999954 C181.11000000000058,25.515999999999963 181.21999999999935,25.75 181.27000000000044,25.979000000000042 C181.32999999999993,26.208999999999946 181.36000000000058,26.44799999999998 181.36000000000058,26.69799999999998 M180.46999999999935,26.760999999999967 C180.46999999999935,26.53200000000004 180.45000000000073,26.309999999999945 180.40999999999985,26.09699999999998 C180.36000000000058,25.883000000000038 180.28000000000065,25.66999999999996 180.15999999999985,25.456000000000017 C180.04000000000087,25.241999999999962 179.88999999999942,25.059999999999945 179.70000000000073,24.908999999999992 C179.51000000000022,24.758000000000038 179.27000000000044,24.633000000000038 178.96999999999935,24.533999999999992 C178.67000000000007,24.434999999999945 178.3199999999997,24.385999999999967 177.9400000000005,24.385999999999967 C177.77000000000044,24.385999999999967 177.65999999999985,24.40700000000004 177.60000000000036,24.44799999999998 C177.54000000000087,24.49000000000001 177.51000000000022,24.57299999999998 177.51000000000022,24.69799999999998 L177.51000000000022,28.745000000000005 C177.51000000000022,28.870000000000005 177.54000000000087,28.956000000000017 177.60000000000036,29.003000000000043 C177.65999999999985,29.049999999999955 177.77000000000044,29.07299999999998 177.9400000000005,29.07299999999998 C179.6200000000008,29.07299999999998 180.46999999999935,28.30200000000002 180.46999999999935,26.760999999999967 M184.29999999999927,26.885999999999967 C184.15999999999985,26.458999999999946 184.04999999999927,26.190000000000055 183.97999999999956,26.081000000000017 C183.89999999999964,25.97199999999998 183.77000000000044,25.90700000000004 183.59000000000015,25.885999999999967 L183.59000000000015,25.775999999999954 L185.21999999999935,25.775999999999954 L185.21999999999935,25.885999999999967 C185.03000000000065,25.91700000000003 184.90999999999985,25.951000000000022 184.84000000000015,25.986999999999966 C184.78000000000065,26.024 184.75,26.089000000000055 184.75,26.182999999999993 C184.75,26.245000000000005 184.79999999999927,26.400999999999954 184.88999999999942,26.650999999999954 L185.5599999999995,28.44799999999998 L186.28000000000065,26.66700000000003 C186.3700000000008,26.44799999999998 186.42000000000007,26.270999999999958 186.42000000000007,26.135999999999967 C186.42000000000007,26.07299999999998 186.38999999999942,26.024 186.34000000000015,25.986999999999966 C186.29000000000087,25.951000000000022 186.20000000000073,25.91700000000003 186.0599999999995,25.885999999999967 L186.0599999999995,25.775999999999954 L187.04999999999927,25.775999999999954 L187.04999999999927,25.885999999999967 C186.95999999999913,25.91700000000003 186.90999999999985,25.956000000000017 186.8700000000008,26.003000000000043 C186.84000000000015,26.049999999999955 186.79000000000087,26.15700000000004 186.71999999999935,26.32299999999998 L185.61000000000058,29.089000000000055 C185.5,29.349000000000046 185.4300000000003,29.479000000000042 185.38999999999942,29.479000000000042 C185.35000000000036,29.479000000000042 185.29000000000087,29.36500000000001 185.20000000000073,29.135999999999967 L184.46999999999935,27.245000000000005 L183.57999999999993,29.16700000000003 C183.47999999999956,29.375 183.42000000000007,29.479000000000042 183.3700000000008,29.479000000000042 C183.32999999999993,29.479000000000042 183.26000000000022,29.36500000000001 183.17000000000007,29.135999999999967 L182.09000000000015,26.400999999999954 C182.01000000000022,26.192999999999984 181.9400000000005,26.057999999999993 181.88999999999942,25.995000000000005 C181.84000000000015,25.932999999999993 181.76000000000022,25.895999999999958 181.67000000000007,25.885999999999967 L181.67000000000007,25.775999999999954 L183.11000000000058,25.775999999999954 L183.11000000000058,25.885999999999967 C182.95999999999913,25.90700000000004 182.86000000000058,25.934999999999945 182.8099999999995,25.97199999999998 C182.76000000000022,26.008000000000038 182.72999999999956,26.067999999999984 182.72999999999956,26.150999999999954 C182.72999999999956,26.235000000000014 182.75,26.317999999999984 182.78000000000065,26.400999999999954 L183.57999999999993,28.479000000000042 L184.29999999999927,26.885999999999967 M187.3099999999995,28.57299999999998 C187.3099999999995,28.479000000000042 187.3199999999997,28.394000000000005 187.34000000000015,28.315000000000055 C187.36000000000058,28.236999999999966 187.39999999999964,28.162000000000035 187.45000000000073,28.089000000000055 C187.5,28.015999999999963 187.5599999999995,27.951000000000022 187.61000000000058,27.894000000000005 C187.65999999999985,27.836000000000013 187.72999999999956,27.775999999999954 187.82999999999993,27.714000000000055 C187.92000000000007,27.650999999999954 188.0,27.599000000000046 188.0599999999995,27.557999999999993 C188.1200000000008,27.515999999999963 188.21999999999935,27.46900000000005 188.34000000000015,27.41700000000003 C188.46999999999935,27.36500000000001 188.5599999999995,27.32299999999998 188.6299999999992,27.29200000000003 C188.70000000000073,27.260999999999967 188.8099999999995,27.216000000000008 188.95999999999913,27.158999999999992 C189.11000000000058,27.101999999999975 189.21999999999935,27.057999999999993 189.28000000000065,27.025999999999954 L189.28000000000065,26.54200000000003 C189.28000000000065,26.104000000000042 189.07999999999993,25.885999999999967 188.6900000000005,25.885999999999967 C188.52000000000044,25.885999999999967 188.3799999999992,25.924999999999955 188.27000000000044,26.003000000000043 C188.15999999999985,26.081000000000017 188.11000000000058,26.172000000000025 188.11000000000058,26.275999999999954 C188.11000000000058,26.317999999999984 188.1200000000008,26.375 188.1299999999992,26.44799999999998 C188.14999999999964,26.520999999999958 188.15999999999985,26.567999999999984 188.15999999999985,26.589000000000055 C188.15999999999985,26.682999999999993 188.1200000000008,26.763000000000034 188.04999999999927,26.831000000000017 C187.96999999999935,26.899 187.8799999999992,26.932999999999993 187.78000000000065,26.932999999999993 C187.6900000000005,26.932999999999993 187.61000000000058,26.899 187.54000000000087,26.831000000000017 C187.46999999999935,26.763000000000034 187.4400000000005,26.682999999999993 187.4400000000005,26.589000000000055 C187.4400000000005,26.339000000000055 187.5699999999997,26.128000000000043 187.82999999999993,25.956000000000017 C188.09000000000015,25.783999999999992 188.40999999999985,25.69799999999998 188.78000000000065,25.69799999999998 C189.20999999999913,25.69799999999998 189.5,25.80200000000002 189.65999999999985,26.010999999999967 C189.8199999999997,26.21900000000005 189.90999999999985,26.537000000000035 189.90999999999985,26.964000000000055 L189.90999999999985,28.510999999999967 C189.90999999999985,28.687999999999988 189.92000000000007,28.809999999999945 189.95999999999913,28.878000000000043 C190.0,28.946000000000026 190.0599999999995,28.979000000000042 190.15999999999985,28.979000000000042 C190.26000000000022,28.979000000000042 190.3700000000008,28.92700000000002 190.5,28.82299999999998 L190.5,29.04200000000003 C190.36000000000058,29.19799999999998 190.23999999999978,29.30499999999995 190.13999999999942,29.361999999999966 C190.04000000000087,29.41999999999996 189.92000000000007,29.44799999999998 189.78000000000065,29.44799999999998 C189.6200000000008,29.44799999999998 189.51000000000022,29.400999999999954 189.4400000000005,29.307999999999993 C189.36000000000058,29.214000000000055 189.3199999999997,29.062999999999988 189.29999999999927,28.854000000000042 C188.84000000000015,29.25 188.45000000000073,29.44799999999998 188.13999999999942,29.44799999999998 C187.89999999999964,29.44799999999998 187.70000000000073,29.366999999999962 187.54999999999927,29.206000000000017 C187.38999999999942,29.04499999999996 187.3099999999995,28.833999999999946 187.3099999999995,28.57299999999998 M189.28000000000065,28.370000000000005 L189.28000000000065,27.214000000000055 C188.79999999999927,27.390999999999963 188.46999999999935,27.562999999999988 188.28000000000065,27.729000000000042 C188.09000000000015,27.895999999999958 188.0,28.09400000000005 188.0,28.32299999999998 C188.0,28.54200000000003 188.04999999999927,28.702999999999975 188.15999999999985,28.807999999999993 C188.26000000000022,28.912000000000035 188.3700000000008,28.964000000000055 188.5,28.964000000000055 C188.6800000000003,28.964000000000055 188.8700000000008,28.90700000000004 189.07999999999993,28.79200000000003 C189.15999999999985,28.74000000000001 189.21999999999935,28.687999999999988 189.23999999999978,28.635999999999967 C189.27000000000044,28.583999999999946 189.28000000000065,28.495000000000005 189.28000000000065,28.370000000000005 M192.96999999999935,26.44799999999998 C192.8799999999992,26.44799999999998 192.78000000000065,26.400999999999954 192.65999999999985,26.307999999999993 C192.54000000000087,26.214000000000055 192.46999999999935,26.16700000000003 192.4400000000005,26.16700000000003 C192.32999999999993,26.16700000000003 192.20999999999913,26.245000000000005 192.07999999999993,26.400999999999954 C191.9400000000005,26.557999999999993 191.8700000000008,26.702999999999975 191.8700000000008,26.839000000000055 L191.8700000000008,28.650999999999954 C191.8700000000008,28.879999999999995 191.92000000000007,29.033999999999992 192.01000000000022,29.111999999999966 C192.10000000000036,29.190000000000055 192.27000000000044,29.235000000000014 192.54999999999927,29.245000000000005 L192.54999999999927,29.370000000000005 L190.6200000000008,29.370000000000005 L190.6200000000008,29.245000000000005 C190.8799999999992,29.202999999999975 191.04000000000087,29.150999999999954 191.10000000000036,29.089000000000055 C191.15999999999985,29.025999999999954 191.1900000000005,28.895999999999958 191.1900000000005,28.69799999999998 L191.1900000000005,26.682999999999993 C191.1900000000005,26.504999999999995 191.17000000000007,26.379999999999995 191.1299999999992,26.307999999999993 C191.10000000000036,26.235000000000014 191.02000000000044,26.19799999999998 190.92000000000007,26.19799999999998 C190.84000000000015,26.19799999999998 190.73999999999978,26.208999999999946 190.63999999999942,26.229000000000042 L190.63999999999942,26.104000000000042 C191.0699999999997,25.96900000000005 191.45999999999913,25.833999999999946 191.82999999999993,25.69799999999998 L191.8700000000008,25.714000000000055 L191.8700000000008,26.41700000000003 C192.0699999999997,26.145999999999958 192.23999999999978,25.958999999999946 192.3700000000008,25.854000000000042 C192.51000000000022,25.75 192.65999999999985,25.69799999999998 192.82999999999993,25.69799999999998 C192.96999999999935,25.69799999999998 193.07999999999993,25.73199999999997 193.15999999999985,25.799999999999955 C193.22999999999956,25.866999999999962 193.26000000000022,25.96900000000005 193.26000000000022,26.104000000000042 C193.26000000000022,26.208999999999946 193.23999999999978,26.29200000000003 193.1900000000005,26.354000000000042 C193.1299999999992,26.41700000000003 193.0599999999995,26.44799999999998 192.96999999999935,26.44799999999998 M195.95000000000073,24.729000000000042 C195.8700000000008,24.729000000000042 195.79999999999927,24.69799999999998 195.72999999999956,24.635999999999967 C195.67000000000007,24.57299999999998 195.6200000000008,24.504999999999995 195.57999999999993,24.432999999999993 C195.54999999999927,24.360000000000014 195.48999999999978,24.29200000000003 195.42000000000007,24.229000000000042 C195.35000000000036,24.16700000000003 195.26000000000022,24.135999999999967 195.17000000000007,24.135999999999967 C194.8700000000008,24.135999999999967 194.71999999999935,24.370000000000005 194.71999999999935,24.839000000000055 L194.71999999999935,25.775999999999954 L195.70000000000073,25.775999999999954 L195.70000000000073,26.010999999999967 L194.71999999999935,26.010999999999967 L194.71999999999935,28.54200000000003 C194.71999999999935,28.833999999999946 194.76000000000022,29.020999999999958 194.84000000000015,29.104000000000042 C194.9300000000003,29.187999999999988 195.1299999999992,29.235000000000014 195.46999999999935,29.245000000000005 L195.46999999999935,29.370000000000005 L193.3700000000008,29.370000000000005 L193.3700000000008,29.245000000000005 C193.67000000000007,29.235000000000014 193.85000000000036,29.187999999999988 193.9300000000003,29.104000000000042 C194.01000000000022,29.020999999999958 194.04999999999927,28.833999999999946 194.04999999999927,28.54200000000003 L194.04999999999927,26.010999999999967 L193.38999999999942,26.010999999999967 L193.38999999999942,25.775999999999954 L194.04999999999927,25.775999999999954 C194.0599999999995,25.172000000000025 194.17000000000007,24.706000000000017 194.3799999999992,24.378000000000043 C194.60000000000036,24.049999999999955 194.95000000000073,23.885999999999967 195.45000000000073,23.885999999999967 C195.6900000000005,23.885999999999967 195.88999999999942,23.934999999999945 196.04999999999927,24.033999999999992 C196.20000000000073,24.133000000000038 196.28000000000065,24.254999999999995 196.28000000000065,24.400999999999954 C196.28000000000065,24.495000000000005 196.25,24.57299999999998 196.1900000000005,24.635999999999967 C196.1200000000008,24.69799999999998 196.04999999999927,24.729000000000042 195.95000000000073,24.729000000000042 M203.65999999999985,24.79200000000003 L201.61000000000058,29.370000000000005 L201.5,29.370000000000005 L199.5,24.979000000000042 L199.5,28.19799999999998 C199.5,28.604000000000042 199.54999999999927,28.873000000000047 199.63999999999942,29.003000000000043 C199.72999999999956,29.133000000000038 199.9400000000005,29.202999999999975 200.25,29.214000000000055 L200.25,29.370000000000005 L198.3700000000008,29.370000000000005 L198.3700000000008,29.214000000000055 C198.70000000000073,29.192999999999984 198.90999999999985,29.120000000000005 199.0,28.995000000000005 C199.09000000000015,28.870000000000005 199.13999999999942,28.604000000000042 199.13999999999942,28.19799999999998 L199.13999999999942,24.94799999999998 C199.13999999999942,24.65700000000004 199.10000000000036,24.46900000000005 199.01000000000022,24.385999999999967 C198.92000000000007,24.30200000000002 198.70999999999913,24.25 198.38999999999942,24.229000000000042 L198.38999999999942,24.07299999999998 L199.96999999999935,24.07299999999998 L201.8099999999995,28.120000000000005 L203.57999999999993,24.07299999999998 L205.17000000000007,24.07299999999998 L205.17000000000007,24.229000000000042 C204.8700000000008,24.260999999999967 204.6800000000003,24.317999999999984 204.60000000000036,24.400999999999954 C204.52000000000044,24.485000000000014 204.47999999999956,24.66700000000003 204.47999999999956,24.94799999999998 L204.47999999999956,28.495000000000005 C204.47999999999956,28.775999999999954 204.52000000000044,28.961000000000013 204.61000000000058,29.049999999999955 C204.6900000000005,29.138000000000034 204.8799999999992,29.192999999999984 205.17000000000007,29.214000000000055 L205.17000000000007,29.370000000000005 L202.9400000000005,29.370000000000005 L202.9400000000005,29.214000000000055 C203.25,29.192999999999984 203.45000000000073,29.135999999999967 203.53000000000065,29.04200000000003 C203.61000000000058,28.94799999999998 203.65999999999985,28.74000000000001 203.65999999999985,28.41700000000003 L203.65999999999985,24.79200000000003 M209.13999999999942,28.94799999999998 L209.13999999999942,29.07299999999998 C208.71999999999935,29.187999999999988 208.36000000000058,29.312999999999988 208.04999999999927,29.44799999999998 L208.01000000000022,29.432999999999993 L208.0,28.745000000000005 C207.98999999999978,28.765999999999963 207.9400000000005,28.815000000000055 207.8700000000008,28.894000000000005 C207.79000000000087,28.97199999999998 207.72999999999956,29.025999999999954 207.70000000000073,29.057999999999993 C207.67000000000007,29.089000000000055 207.6200000000008,29.135999999999967 207.54000000000087,29.19799999999998 C207.45999999999913,29.260999999999967 207.38999999999942,29.30499999999995 207.32999999999993,29.331000000000017 C207.28000000000065,29.35699999999997 207.20000000000073,29.383000000000038 207.1200000000008,29.408999999999992 C207.03000000000065,29.434999999999945 206.9400000000005,29.44799999999998 206.84000000000015,29.44799999999998 C206.54999999999927,29.44799999999998 206.3199999999997,29.351999999999975 206.13999999999942,29.158999999999992 C205.95999999999913,28.966000000000008 205.8700000000008,28.714000000000055 205.8700000000008,28.400999999999954 L205.8700000000008,26.385999999999967 C205.8700000000008,26.208999999999946 205.84000000000015,26.083999999999946 205.77000000000044,26.010999999999967 C205.70000000000073,25.937999999999988 205.5699999999997,25.895999999999958 205.3700000000008,25.885999999999967 L205.3700000000008,25.775999999999954 L206.54999999999927,25.775999999999954 L206.54999999999927,28.370000000000005 C206.54999999999927,28.525999999999954 206.60000000000036,28.663999999999987 206.71999999999935,28.783999999999992 C206.82999999999993,28.903999999999996 206.95999999999913,28.964000000000055 207.11000000000058,28.964000000000055 C207.17000000000007,28.964000000000055 207.23999999999978,28.956000000000017 207.3199999999997,28.940000000000055 C207.39999999999964,28.924999999999955 207.48999999999978,28.895999999999958 207.59000000000015,28.854000000000042 C207.70000000000073,28.812999999999988 207.79000000000087,28.741999999999962 207.86000000000058,28.644000000000005 C207.9300000000003,28.54499999999996 207.96999999999935,28.422000000000025 207.96999999999935,28.275999999999954 L207.96999999999935,26.400999999999954 C207.96999999999935,26.214000000000055 207.9300000000003,26.086000000000013 207.86000000000058,26.019000000000005 C207.79000000000087,25.951000000000022 207.6200000000008,25.912000000000035 207.3700000000008,25.900999999999954 L207.3700000000008,25.775999999999954 L208.63999999999942,25.775999999999954 L208.63999999999942,28.495000000000005 C208.63999999999942,28.682999999999993 208.67000000000007,28.80499999999995 208.72999999999956,28.861999999999966 C208.79999999999927,28.91999999999996 208.92000000000007,28.94799999999998 209.11000000000058,28.94799999999998 L209.13999999999942,28.94799999999998 M211.34000000000015,25.854000000000042 C211.35000000000036,25.854000000000042 211.38999999999942,25.827999999999975 211.46999999999935,25.775999999999954 L211.5599999999995,25.775999999999954 L211.59000000000015,26.854000000000042 L211.46999999999935,26.854000000000042 C211.3799999999992,26.5 211.27000000000044,26.248000000000047 211.13999999999942,26.09699999999998 C211.0,25.946000000000026 210.8199999999997,25.870000000000005 210.59000000000015,25.870000000000005 C210.42000000000007,25.870000000000005 210.27000000000044,25.922000000000025 210.15999999999985,26.025999999999954 C210.04000000000087,26.129999999999995 209.97999999999956,26.260999999999967 209.97999999999956,26.41700000000003 C209.97999999999956,26.645999999999958 210.10000000000036,26.827999999999975 210.32999999999993,26.964000000000055 L211.1900000000005,27.479000000000042 C211.4300000000003,27.625 211.60000000000036,27.770999999999958 211.70000000000073,27.91700000000003 C211.8099999999995,28.062999999999988 211.86000000000058,28.235000000000014 211.86000000000058,28.432999999999993 C211.86000000000058,28.702999999999975 211.75,28.940000000000055 211.52000000000044,29.144000000000005 C211.29999999999927,29.34699999999998 211.04000000000087,29.44799999999998 210.72999999999956,29.44799999999998 C210.60000000000036,29.44799999999998 210.42000000000007,29.424999999999955 210.1900000000005,29.378000000000043 C209.96999999999935,29.331000000000017 209.82999999999993,29.307999999999993 209.78000000000065,29.307999999999993 C209.70000000000073,29.307999999999993 209.6299999999992,29.339000000000055 209.59000000000015,29.400999999999954 L209.47999999999956,29.400999999999954 L209.47999999999956,28.150999999999954 L209.6200000000008,28.150999999999954 C209.70999999999913,28.525999999999954 209.8099999999995,28.79200000000003 209.92000000000007,28.94799999999998 C210.09000000000015,29.16700000000003 210.32999999999993,29.275999999999954 210.63999999999942,29.275999999999954 C210.84000000000015,29.275999999999954 211.0,29.224000000000046 211.1200000000008,29.120000000000005 C211.23999999999978,29.015999999999963 211.29999999999927,28.875 211.29999999999927,28.69799999999998 C211.29999999999927,28.458999999999946 211.15999999999985,28.260999999999967 210.8700000000008,28.104000000000042 L210.42000000000007,27.839000000000055 C210.07999999999993,27.640999999999963 209.82999999999993,27.456000000000017 209.6900000000005,27.283999999999992 C209.54999999999927,27.111999999999966 209.47999999999956,26.912000000000035 209.47999999999956,26.682999999999993 C209.47999999999956,26.390999999999963 209.57999999999993,26.153999999999996 209.79000000000087,25.97199999999998 C209.98999999999978,25.788999999999987 210.25,25.69799999999998 210.57999999999993,25.69799999999998 C210.73999999999978,25.69799999999998 210.90999999999985,25.724000000000046 211.0599999999995,25.775999999999954 C211.21999999999935,25.827999999999975 211.3099999999995,25.854000000000042 211.34000000000015,25.854000000000042 M212.6200000000008,26.229000000000042 C212.5,26.229000000000042 212.3799999999992,26.235000000000014 212.28000000000065,26.245000000000005 L212.28000000000065,26.135999999999967 C212.65999999999985,26.03200000000004 213.0699999999997,25.885999999999967 213.53000000000065,25.69799999999998 L213.5599999999995,25.714000000000055 L213.5599999999995,28.557999999999993 C213.5599999999995,28.839000000000055 213.60000000000036,29.019000000000005 213.65999999999985,29.09699999999998 C213.72999999999956,29.174999999999955 213.88999999999942,29.224000000000046 214.15999999999985,29.245000000000005 L214.15999999999985,29.370000000000005 L212.25,29.370000000000005 L212.25,29.245000000000005 C212.53000000000065,29.235000000000014 212.70999999999913,29.187999999999988 212.78000000000065,29.104000000000042 C212.85000000000036,29.020999999999958 212.88999999999942,28.839000000000055 212.88999999999942,28.557999999999993 L212.88999999999942,26.69799999999998 C212.88999999999942,26.520999999999958 212.8700000000008,26.399 212.82999999999993,26.331000000000017 C212.79000000000087,26.263000000000034 212.71999999999935,26.229000000000042 212.6200000000008,26.229000000000042 M213.15999999999985,23.900999999999954 C213.27000000000044,23.900999999999954 213.3700000000008,23.942999999999984 213.45000000000073,24.025999999999954 C213.54000000000087,24.110000000000014 213.57999999999993,24.208999999999946 213.57999999999993,24.32299999999998 C213.57999999999993,24.437999999999988 213.54000000000087,24.533999999999992 213.45000000000073,24.611999999999966 C213.3700000000008,24.690000000000055 213.27000000000044,24.729000000000042 213.15999999999985,24.729000000000042 C213.04000000000087,24.729000000000042 212.9400000000005,24.687999999999988 212.8700000000008,24.604000000000042 C212.79000000000087,24.520999999999958 212.75,24.424999999999955 212.75,24.315000000000055 C212.75,24.206000000000017 212.79000000000087,24.110000000000014 212.8700000000008,24.025999999999954 C212.9400000000005,23.942999999999984 213.04000000000087,23.900999999999954 213.15999999999985,23.900999999999954 M214.54999999999927,27.66700000000003 C214.54999999999927,27.07299999999998 214.71999999999935,26.59699999999998 215.0699999999997,26.236999999999966 C215.42000000000007,25.878000000000043 215.82999999999993,25.69799999999998 216.29999999999927,25.69799999999998 C216.6299999999992,25.69799999999998 216.90999999999985,25.778999999999996 217.14999999999964,25.940000000000055 C217.3799999999992,26.101999999999975 217.5,26.297000000000025 217.5,26.525999999999954 C217.5,26.610000000000014 217.45999999999913,26.684999999999945 217.38999999999942,26.753000000000043 C217.3199999999997,26.821000000000026 217.22999999999956,26.854000000000042 217.1200000000008,26.854000000000042 C216.95000000000073,26.854000000000042 216.82999999999993,26.735000000000014 216.76000000000022,26.495000000000005 L216.71999999999935,26.32299999999998 C216.6800000000003,26.16700000000003 216.6200000000008,26.062999999999988 216.5599999999995,26.010999999999967 C216.5,25.958999999999946 216.38999999999942,25.932999999999993 216.25,25.932999999999993 C215.9300000000003,25.932999999999993 215.67000000000007,26.059999999999945 215.46999999999935,26.315000000000055 C215.27000000000044,26.571000000000026 215.17000000000007,26.90700000000004 215.17000000000007,27.32299999999998 C215.17000000000007,27.770999999999958 215.29000000000087,28.140999999999963 215.51000000000022,28.432999999999993 C215.73999999999978,28.724000000000046 216.04000000000087,28.870000000000005 216.40999999999985,28.870000000000005 C216.6200000000008,28.870000000000005 216.8099999999995,28.812999999999988 216.97999999999956,28.69799999999998 C217.13999999999942,28.583999999999946 217.3099999999995,28.390999999999963 217.5,28.120000000000005 L217.61000000000058,28.182999999999993 C217.5599999999995,28.297000000000025 217.51000000000022,28.388000000000034 217.47999999999956,28.456000000000017 C217.4400000000005,28.524 217.3700000000008,28.628000000000043 217.26000000000022,28.769000000000005 C217.15999999999985,28.908999999999992 217.0599999999995,29.020999999999958 216.95999999999913,29.104000000000042 C216.86000000000058,29.187999999999988 216.72999999999956,29.265999999999963 216.5699999999997,29.339000000000055 C216.40999999999985,29.412000000000035 216.23999999999978,29.44799999999998 216.0599999999995,29.44799999999998 C215.6200000000008,29.44799999999998 215.26000000000022,29.28200000000004 214.97999999999956,28.94799999999998 C214.6900000000005,28.61500000000001 214.54999999999927,28.187999999999988 214.54999999999927,27.66700000000003 M218.88999999999942,28.57299999999998 C219.0,28.57299999999998 219.11000000000058,28.616999999999962 219.1900000000005,28.706000000000017 C219.28000000000065,28.79499999999996 219.32999999999993,28.900999999999954 219.32999999999993,29.025999999999954 C219.32999999999993,29.140999999999963 219.28000000000065,29.241999999999962 219.1900000000005,29.331000000000017 C219.11000000000058,29.41999999999996 219.0,29.464000000000055 218.8700000000008,29.464000000000055 C218.76000000000022,29.464000000000055 218.65999999999985,29.41999999999996 218.57999999999993,29.331000000000017 C218.48999999999978,29.241999999999962 218.45000000000073,29.140999999999963 218.45000000000073,29.025999999999954 C218.45000000000073,28.900999999999954 218.5,28.79499999999996 218.57999999999993,28.706000000000017 C218.67000000000007,28.616999999999962 218.77000000000044,28.57299999999998 218.88999999999942,28.57299999999998" />
</svg>
