<?xml version="1.0" encoding="UTF-8" standalone="yes"?>
<svg width="256.0px" height="256.0px" xmlns="http://www.w3.org/2000/svg" xmlns:xlink="http://www.w3.org/1999/xlink" version="1.2" baseProfile="tiny">
<path d="M228.3199999999997,170.018 L228.3199999999997,171.565 C228.3199999999997,172.117 228.34000000000015,172.555 228.39999999999964,172.878 C228.8199999999997,172.513 229.1299999999992,172.242 229.3199999999997,172.065 C229.53000000000065,171.857 229.73999999999978,171.568 229.9400000000005,171.198 C230.14999999999964,170.828 230.26000000000022,170.461 230.26000000000022,170.096 C230.26000000000022,169.732 230.1800000000003,169.419 230.02000000000044,169.159 C229.8700000000008,168.899 229.65999999999985,168.768 229.39999999999964,168.768 C229.07999999999993,168.768 228.8199999999997,168.888 228.6200000000008,169.128 C228.42000000000007,169.388 228.3199999999997,169.685 228.3199999999997,170.018 M227.48999999999978,173.596 L227.23999999999978,161.706 C227.4300000000003,161.602 227.61000000000058,161.55 227.79999999999927,161.55 C227.97999999999956,161.55 228.15999999999985,161.602 228.32999999999993,161.706 L228.1800000000003,168.596 C228.70999999999913,168.138 229.3199999999997,167.909 230.02000000000044,167.909 C230.52000000000044,167.909 230.9400000000005,168.117 231.28000000000065,168.534 C231.6200000000008,168.951 231.79000000000087,169.43 231.79000000000087,169.971 C231.79000000000087,170.305 231.6800000000003,170.664 231.45999999999913,171.05 C231.25,171.393 231.03000000000065,171.664 230.79999999999927,171.862 C230.67000000000007,171.966 230.32999999999993,172.227 229.79999999999927,172.643 C229.64999999999964,172.758 229.45999999999913,172.893 229.25,173.05 C229.03000000000065,173.206 228.89999999999964,173.305 228.85000000000036,173.346 C228.76000000000022,173.399 228.67000000000007,173.503 228.57999999999993,173.659 C228.5,173.794 228.39999999999964,173.904 228.27000000000044,173.987 C228.1900000000005,174.07 228.07999999999993,174.112 227.95000000000073,174.112 C227.8199999999997,174.112 227.70999999999913,174.065 227.6299999999992,173.971 C227.54000000000087,173.878 227.48999999999978,173.753 227.48999999999978,173.596" />
<path d="M128.40999999999985,177.518 L128.40999999999985,179.065 C128.40999999999985,179.617 128.4400000000005,180.055 128.48999999999978,180.378 C128.92000000000007,180.013 129.22999999999956,179.742 129.40999999999985,179.565 C129.6200000000008,179.357 129.82999999999993,179.068 130.04000000000087,178.698 C130.25,178.328 130.35000000000036,177.961 130.35000000000036,177.596 C130.35000000000036,177.232 130.27000000000044,176.919 130.1200000000008,176.659 C129.95999999999913,176.399 129.75,176.268 129.48999999999978,176.268 C129.1800000000003,176.268 128.92000000000007,176.388 128.70999999999913,176.628 C128.51000000000022,176.888 128.40999999999985,177.185 128.40999999999985,177.518 M127.57999999999993,181.096 L127.32999999999993,169.206 C127.52000000000044,169.102 127.70999999999913,169.05 127.88999999999942,169.05 C128.0699999999997,169.05 128.25,169.102 128.4300000000003,169.206 L128.27000000000044,176.096 C128.79999999999927,175.638 129.42000000000007,175.409 130.1200000000008,175.409 C130.6200000000008,175.409 131.04000000000087,175.617 131.3700000000008,176.034 C131.70999999999913,176.451 131.8799999999992,176.93 131.8799999999992,177.471 C131.8799999999992,177.805 131.77000000000044,178.164 131.54999999999927,178.55 C131.35000000000036,178.893 131.1299999999992,179.164 130.89999999999964,179.362 C130.76000000000022,179.466 130.4300000000003,179.727 129.89999999999964,180.143 C129.73999999999978,180.258 129.5599999999995,180.393 129.34000000000015,180.55 C129.1299999999992,180.706 129.0,180.805 128.9400000000005,180.846 C128.85000000000036,180.899 128.76000000000022,181.003 128.6800000000003,181.159 C128.60000000000036,181.294 128.48999999999978,181.404 128.3700000000008,181.487 C128.28000000000065,181.57 128.1800000000003,181.612 128.04999999999927,181.612 C127.92000000000007,181.612 127.80999999999949,181.565 127.72999999999956,181.471 C127.6299999999992,181.378 127.57999999999993,181.253 127.57999999999993,181.096" />
<path d="M128.40999999999985,195.018 L128.40999999999985,196.565 C128.40999999999985,197.117 128.4400000000005,197.555 128.48999999999978,197.878 C128.92000000000007,197.513 129.22999999999956,197.242 129.40999999999985,197.065 C129.6200000000008,196.857 129.82999999999993,196.568 130.04000000000087,196.198 C130.25,195.828 130.35000000000036,195.461 130.35000000000036,195.096 C130.35000000000036,194.732 130.27000000000044,194.419 130.1200000000008,194.159 C129.95999999999913,193.899 129.75,193.768 129.48999999999978,193.768 C129.1800000000003,193.768 128.92000000000007,193.888 128.70999999999913,194.128 C128.51000000000022,194.388 128.40999999999985,194.685 128.40999999999985,195.018 M127.57999999999993,198.596 L127.32999999999993,186.706 C127.52000000000044,186.602 127.70999999999913,186.55 127.88999999999942,186.55 C128.0699999999997,186.55 128.25,186.602 128.4300000000003,186.706 L128.27000000000044,193.596 C128.79999999999927,193.138 129.42000000000007,192.909 130.1200000000008,192.909 C130.6200000000008,192.909 131.04000000000087,193.117 131.3700000000008,193.534 C131.70999999999913,193.951 131.8799999999992,194.43 131.8799999999992,194.971 C131.8799999999992,195.305 131.77000000000044,195.664 131.54999999999927,196.05 C131.35000000000036,196.393 131.1299999999992,196.664 130.89999999999964,196.862 C130.76000000000022,196.966 130.4300000000003,197.227 129.89999999999964,197.643 C129.73999999999978,197.758 129.5599999999995,197.893 129.34000000000015,198.05 C129.1299999999992,198.206 129.0,198.305 128.9400000000005,198.346 C128.85000000000036,198.399 128.76000000000022,198.503 128.6800000000003,198.659 C128.60000000000036,198.794 128.48999999999978,198.904 128.3700000000008,198.987 C128.28000000000065,199.07 128.1800000000003,199.112 128.04999999999927,199.112 C127.92000000000007,199.112 127.80999999999949,199.065 127.72999999999956,198.971 C127.6299999999992,198.878 127.57999999999993,198.753 127.57999999999993,198.596" />
<path d="M53.75,229.581 C53.75,229.831 53.6299999999992,229.956 53.38999999999942,229.956 C53.13999999999942,229.956 53.02000000000044,229.831 53.02000000000044,229.581 L53.02000000000044,226.69 L51.36000000000058,227.315 L51.36000000000058,230.471 C51.36000000000058,230.721 51.23999999999978,230.846 50.98999999999978,230.846 C50.73999999999978,230.846 50.61000000000058,230.721 50.61000000000058,230.471 L50.61000000000058,227.565 L49.98999999999978,227.8 C49.97999999999956,227.81 49.93000000000029,227.815 49.82999999999993,227.815 C49.72999999999956,227.815 49.63999999999942,227.776 49.55999999999949,227.698 C49.47999999999956,227.62 49.44000000000051,227.529 49.44000000000051,227.425 L49.44000000000051,226.221 C49.44000000000051,226.024 49.530000000000655,225.899 49.69000000000051,225.846 L50.61000000000058,225.534 L50.61000000000058,222.331 L49.98999999999978,222.55 C49.97999999999956,222.56 49.93000000000029,222.565 49.82999999999993,222.565 C49.72999999999956,222.565 49.63999999999942,222.526 49.55999999999949,222.448 C49.47999999999956,222.37 49.44000000000051,222.279 49.44000000000051,222.175 L49.44000000000051,220.956 C49.44000000000051,220.779 49.530000000000655,220.664 49.69000000000051,220.612 L50.61000000000058,220.253 L50.61000000000058,217.112 C50.61000000000058,216.862 50.73999999999978,216.737 50.98999999999978,216.737 C51.23999999999978,216.737 51.36000000000058,216.862 51.36000000000058,217.112 L51.36000000000058,220.003 L53.02000000000044,219.378 L53.02000000000044,216.221 C53.02000000000044,215.971 53.13999999999942,215.846 53.38999999999942,215.846 C53.6299999999992,215.846 53.75,215.971 53.75,216.221 L53.75,219.128 L54.409999999999854,218.893 C54.42000000000007,218.883 54.45999999999913,218.878 54.54000000000087,218.878 C54.6299999999992,218.878 54.72999999999956,218.914 54.82999999999993,218.987 C54.92000000000007,219.07 54.95999999999913,219.164 54.95999999999913,219.268 L54.95999999999913,220.471 C54.95999999999913,220.659 54.86000000000058,220.784 54.68000000000029,220.846 L53.75,221.159 L53.75,224.362 L54.409999999999854,224.143 C54.42000000000007,224.133 54.45999999999913,224.128 54.54000000000087,224.128 C54.6299999999992,224.128 54.72999999999956,224.169 54.82999999999993,224.253 C54.92000000000007,224.326 54.95999999999913,224.414 54.95999999999913,224.518 L54.95999999999913,225.737 C54.95999999999913,225.904 54.86000000000058,226.018 54.68000000000029,226.081 L53.75,226.44 L53.75,229.581 M53.02000000000044,221.456 L51.36000000000058,222.034 L51.36000000000058,225.237 L53.02000000000044,224.659 L53.02000000000044,221.456" />
<path d="M21.450000000000728,227.518 L21.450000000000728,229.065 C21.450000000000728,229.617 21.469999999999345,230.055 21.530000000000655,230.378 C21.950000000000728,230.013 22.26000000000022,229.742 22.450000000000728,229.565 C22.659999999999854,229.357 22.860000000000582,229.068 23.06999999999971,228.698 C23.280000000000655,228.328 23.3799999999992,227.961 23.3799999999992,227.596 C23.3799999999992,227.232 23.30999999999949,226.919 23.149999999999636,226.659 C22.98999999999978,226.399 22.790000000000873,226.268 22.530000000000655,226.268 C22.209999999999127,226.268 21.950000000000728,226.388 21.73999999999978,226.628 C21.549999999999272,226.888 21.450000000000728,227.185 21.450000000000728,227.518 M20.6200000000008,231.096 L20.3700000000008,219.206 C20.55999999999949,219.102 20.73999999999978,219.05 20.920000000000073,219.05 C21.110000000000582,219.05 21.290000000000873,219.102 21.459999999999127,219.206 L21.30999999999949,226.096 C21.840000000000146,225.638 22.450000000000728,225.409 23.149999999999636,225.409 C23.649999999999636,225.409 24.06999999999971,225.617 24.409999999999854,226.034 C24.75,226.451 24.920000000000073,226.93 24.920000000000073,227.471 C24.920000000000073,227.805 24.80999999999949,228.164 24.590000000000146,228.55 C24.3799999999992,228.893 24.159999999999854,229.164 23.93000000000029,229.362 C23.799999999999272,229.466 23.459999999999127,229.727 22.93000000000029,230.143 C22.780000000000655,230.258 22.590000000000146,230.393 22.3799999999992,230.55 C22.159999999999854,230.706 22.030000000000655,230.805 21.979999999999563,230.846 C21.8799999999992,230.899 21.799999999999272,231.003 21.709999999999127,231.159 C21.6299999999992,231.294 21.530000000000655,231.404 21.399999999999636,231.487 C21.31999999999971,231.57 21.209999999999127,231.612 21.079999999999927,231.612 C20.950000000000728,231.612 20.840000000000146,231.565 20.76000000000022,231.471 C20.670000000000073,231.378 20.6200000000008,231.253 20.6200000000008,231.096" />
<path d="M237.5,230.596 C238.1299999999992,230.596 238.65999999999985,230.758 239.10000000000036,231.081 C239.48999999999978,231.435 239.6900000000005,231.878 239.6900000000005,232.409 C239.6900000000005,233.305 239.22999999999956,234.143 238.3099999999995,234.925 C237.3799999999992,235.706 236.3700000000008,236.096 235.29999999999927,236.096 C234.67000000000007,236.096 234.14999999999964,235.935 233.71999999999935,235.612 C233.3099999999995,235.258 233.11000000000058,234.815 233.11000000000058,234.284 C233.11000000000058,233.388 233.57999999999993,232.55 234.52000000000044,231.768 C235.4300000000003,230.987 236.4300000000003,230.596 237.5,230.596" />
<path d="M245.54000000000087,169.534 C245.54000000000087,169.315 245.45000000000073,169.128 245.29000000000087,168.971 C245.11000000000058,168.805 244.90999999999985,168.721 244.6900000000005,168.721 C244.3099999999995,168.721 243.52000000000044,169.112 242.32999999999993,169.893 C241.11000000000058,170.685 240.36000000000058,171.253 240.07999999999993,171.596 C239.9400000000005,171.774 239.8700000000008,171.961 239.8700000000008,172.159 C239.8700000000008,172.378 239.95000000000073,172.565 240.1299999999992,172.721 C240.29000000000087,172.888 240.47999999999956,172.971 240.70999999999913,172.971 C241.07999999999993,172.971 241.8799999999992,172.581 243.10000000000036,171.8 C244.29999999999927,171.018 245.04000000000087,170.451 245.3199999999997,170.096 C245.45999999999913,169.93 245.54000000000087,169.742 245.54000000000087,169.534 M244.51000000000022,168.096 C245.6200000000008,168.096 246.1800000000003,168.576 246.1800000000003,169.534 C246.1800000000003,170.003 246.04000000000087,170.55 245.77000000000044,171.175 C245.5,171.789 245.13999999999942,172.258 244.6800000000003,172.581 C243.6800000000003,173.258 242.42000000000007,173.596 240.90999999999985,173.596 C239.79000000000087,173.596 239.21999999999935,173.117 239.21999999999935,172.159 C239.21999999999935,171.732 239.36000000000058,171.19 239.6299999999992,170.534 C239.88999999999942,169.909 240.26000000000022,169.435 240.71999999999935,169.112 C241.73999999999978,168.435 243.0,168.096 244.51000000000022,168.096" />
<path d="M239.23999999999978,169.534 C239.23999999999978,169.315 239.15999999999985,169.128 238.98999999999978,168.971 C238.8199999999997,168.805 238.6200000000008,168.721 238.39999999999964,168.721 C238.01000000000022,168.721 237.22999999999956,169.112 236.04000000000087,169.893 C234.8099999999995,170.685 234.0599999999995,171.253 233.79000000000087,171.596 C233.63999999999942,171.774 233.5699999999997,171.961 233.5699999999997,172.159 C233.5699999999997,172.378 233.65999999999985,172.565 233.84000000000015,172.721 C233.98999999999978,172.888 234.1900000000005,172.971 234.42000000000007,172.971 C234.79000000000087,172.971 235.59000000000015,172.581 236.8099999999995,171.8 C238.0,171.018 238.73999999999978,170.451 239.02000000000044,170.096 C239.17000000000007,169.93 239.23999999999978,169.742 239.23999999999978,169.534 M238.20999999999913,168.096 C239.32999999999993,168.096 239.8799999999992,168.576 239.8799999999992,169.534 C239.8799999999992,170.003 239.75,170.55 239.47999999999956,171.175 C239.20999999999913,171.789 238.84000000000015,172.258 238.3799999999992,172.581 C237.3799999999992,173.258 236.1299999999992,173.596 234.6200000000008,173.596 C233.48999999999978,173.596 232.9300000000003,173.117 232.9300000000003,172.159 C232.9300000000003,171.732 233.0699999999997,171.19 233.34000000000015,170.534 C233.60000000000036,169.909 233.95999999999913,169.435 234.4300000000003,169.112 C235.4400000000005,168.435 236.70000000000073,168.096 238.20999999999913,168.096" />
<path d="M239.23999999999978,174.534 C239.23999999999978,174.315 239.15999999999985,174.128 238.98999999999978,173.971 C238.8199999999997,173.805 238.6200000000008,173.721 238.39999999999964,173.721 C238.01000000000022,173.721 237.22999999999956,174.112 236.04000000000087,174.893 C234.8099999999995,175.685 234.0599999999995,176.253 233.79000000000087,176.596 C233.63999999999942,176.774 233.5699999999997,176.961 233.5699999999997,177.159 C233.5699999999997,177.378 233.65999999999985,177.565 233.84000000000015,177.721 C233.98999999999978,177.888 234.1900000000005,177.971 234.42000000000007,177.971 C234.79000000000087,177.971 235.59000000000015,177.581 236.8099999999995,176.8 C238.0,176.018 238.73999999999978,175.451 239.02000000000044,175.096 C239.17000000000007,174.93 239.23999999999978,174.742 239.23999999999978,174.534 M238.20999999999913,173.096 C239.32999999999993,173.096 239.8799999999992,173.576 239.8799999999992,174.534 C239.8799999999992,175.003 239.75,175.55 239.47999999999956,176.175 C239.20999999999913,176.789 238.84000000000015,177.258 238.3799999999992,177.581 C237.3799999999992,178.258 236.1299999999992,178.596 234.6200000000008,178.596 C233.48999999999978,178.596 232.9300000000003,178.117 232.9300000000003,177.159 C232.9300000000003,176.732 233.0699999999997,176.19 233.34000000000015,175.534 C233.60000000000036,174.909 233.95999999999913,174.435 234.4300000000003,174.112 C235.4400000000005,173.435 236.70000000000073,173.096 238.20999999999913,173.096" />
<path d="M239.23999999999978,182.034 C239.23999999999978,181.815 239.15999999999985,181.628 238.98999999999978,181.471 C238.8199999999997,181.305 238.6200000000008,181.221 238.39999999999964,181.221 C238.01000000000022,181.221 237.22999999999956,181.612 236.04000000000087,182.393 C234.8099999999995,183.185 234.0599999999995,183.753 233.79000000000087,184.096 C233.63999999999942,184.274 233.5699999999997,184.461 233.5699999999997,184.659 C233.5699999999997,184.878 233.65999999999985,185.065 233.84000000000015,185.221 C233.98999999999978,185.388 234.1900000000005,185.471 234.42000000000007,185.471 C234.79000000000087,185.471 235.59000000000015,185.081 236.8099999999995,184.3 C238.0,183.518 238.73999999999978,182.951 239.02000000000044,182.596 C239.17000000000007,182.43 239.23999999999978,182.242 239.23999999999978,182.034 M238.20999999999913,180.596 C239.32999999999993,180.596 239.8799999999992,181.076 239.8799999999992,182.034 C239.8799999999992,182.503 239.75,183.05 239.47999999999956,183.675 C239.20999999999913,184.289 238.84000000000015,184.758 238.3799999999992,185.081 C237.3799999999992,185.758 236.1299999999992,186.096 234.6200000000008,186.096 C233.48999999999978,186.096 232.9300000000003,185.617 232.9300000000003,184.659 C232.9300000000003,184.232 233.0699999999997,183.69 233.34000000000015,183.034 C233.60000000000036,182.409 233.95999999999913,181.935 234.4300000000003,181.612 C235.4400000000005,180.935 236.70000000000073,180.596 238.20999999999913,180.596" />
<path d="M239.23999999999978,192.034 C239.23999999999978,191.815 239.15999999999985,191.628 238.98999999999978,191.471 C238.8199999999997,191.305 238.6200000000008,191.221 238.39999999999964,191.221 C238.01000000000022,191.221 237.22999999999956,191.612 236.04000000000087,192.393 C234.8099999999995,193.185 234.0599999999995,193.753 233.79000000000087,194.096 C233.63999999999942,194.274 233.5699999999997,194.461 233.5699999999997,194.659 C233.5699999999997,194.878 233.65999999999985,195.065 233.84000000000015,195.221 C233.98999999999978,195.388 234.1900000000005,195.471 234.42000000000007,195.471 C234.79000000000087,195.471 235.59000000000015,195.081 236.8099999999995,194.3 C238.0,193.518 238.73999999999978,192.951 239.02000000000044,192.596 C239.17000000000007,192.43 239.23999999999978,192.242 239.23999999999978,192.034 M238.20999999999913,190.596 C239.32999999999993,190.596 239.8799999999992,191.076 239.8799999999992,192.034 C239.8799999999992,192.503 239.75,193.05 239.47999999999956,193.675 C239.20999999999913,194.289 238.84000000000015,194.758 238.3799999999992,195.081 C237.3799999999992,195.758 236.1299999999992,196.096 234.6200000000008,196.096 C233.48999999999978,196.096 232.9300000000003,195.617 232.9300000000003,194.659 C232.9300000000003,194.232 233.0699999999997,193.69 233.34000000000015,193.034 C233.60000000000036,192.409 233.95999999999913,191.935 234.4300000000003,191.612 C235.4400000000005,190.935 236.70000000000073,190.596 238.20999999999913,190.596" />
<path d="M239.23999999999978,92.034 C239.23999999999978,91.8152 239.15999999999985,91.6277 238.98999999999978,91.4715 C238.8199999999997,91.3048 238.6200000000008,91.2215 238.39999999999964,91.2215 C238.01000000000022,91.2215 237.22999999999956,91.6121 236.04000000000087,92.3933 C234.8099999999995,93.185 234.0599999999995,93.7527 233.79000000000087,94.0965 C233.63999999999942,94.2735 233.5699999999997,94.461 233.5699999999997,94.659 C233.5699999999997,94.8777 233.65999999999985,95.0652 233.84000000000015,95.2215 C233.98999999999978,95.3881 234.1900000000005,95.4715 234.42000000000007,95.4715 C234.79000000000087,95.4715 235.59000000000015,95.0808 236.8099999999995,94.2996 C238.0,93.5183 238.73999999999978,92.9506 239.02000000000044,92.5965 C239.17000000000007,92.4298 239.23999999999978,92.2423 239.23999999999978,92.034 M238.20999999999913,90.5965 C239.32999999999993,90.5965 239.8799999999992,91.0756 239.8799999999992,92.034 C239.8799999999992,92.5027 239.75,93.0496 239.47999999999956,93.6746 C239.20999999999913,94.2892 238.84000000000015,94.7579 238.3799999999992,95.0808 C237.3799999999992,95.7579 236.1299999999992,96.0965 234.6200000000008,96.0965 C233.48999999999978,96.0965 232.9300000000003,95.6173 232.9300000000003,94.659 C232.9300000000003,94.2319 233.0699999999997,93.6902 233.34000000000015,93.034 C233.60000000000036,92.409 233.95999999999913,91.935 234.4300000000003,91.6121 C235.4400000000005,90.935 236.70000000000073,90.5965 238.20999999999913,90.5965" />
<path d="M239.23999999999978,69.534 C239.23999999999978,69.3152 239.15999999999985,69.1277 238.98999999999978,68.9715 C238.8199999999997,68.8048 238.6200000000008,68.7215 238.39999999999964,68.7215 C238.01000000000022,68.7215 237.22999999999956,69.1121 236.04000000000087,69.8933 C234.8099999999995,70.685 234.0599999999995,71.2527 233.79000000000087,71.5965 C233.63999999999942,71.7735 233.5699999999997,71.961 233.5699999999997,72.159 C233.5699999999997,72.3777 233.65999999999985,72.5652 233.84000000000015,72.7215 C233.98999999999978,72.8881 234.1900000000005,72.9715 234.42000000000007,72.9715 C234.79000000000087,72.9715 235.59000000000015,72.5808 236.8099999999995,71.7996 C238.0,71.0183 238.73999999999978,70.4506 239.02000000000044,70.0965 C239.17000000000007,69.9298 239.23999999999978,69.7423 239.23999999999978,69.534 M238.20999999999913,68.0965 C239.32999999999993,68.0965 239.8799999999992,68.5756 239.8799999999992,69.534 C239.8799999999992,70.0027 239.75,70.5496 239.47999999999956,71.1746 C239.20999999999913,71.7892 238.84000000000015,72.2579 238.3799999999992,72.5808 C237.3799999999992,73.2579 236.1299999999992,73.5965 234.6200000000008,73.5965 C233.48999999999978,73.5965 232.9300000000003,73.1173 232.9300000000003,72.159 C232.9300000000003,71.7319 233.0699999999997,71.1902 233.34000000000015,70.534 C233.60000000000036,69.909 233.95999999999913,69.435 234.4300000000003,69.1121 C235.4400000000005,68.435 236.70000000000073,68.0965 238.20999999999913,68.0965" />
<path d="M183.39999999999964,220.596 C184.03000000000065,220.596 184.5599999999995,220.758 185.0,221.081 C185.38999999999942,221.435 185.59000000000015,221.878 185.59000000000015,222.409 C185.59000000000015,223.305 185.1299999999992,224.143 184.20999999999913,224.925 C183.28000000000065,225.706 182.27000000000044,226.096 181.20000000000073,226.096 C180.5699999999997,226.096 180.04999999999927,225.935 179.6200000000008,225.612 C179.20999999999913,225.258 179.01000000000022,224.815 179.01000000000022,224.284 C179.01000000000022,223.388 179.47999999999956,222.55 180.42000000000007,221.768 C181.32999999999993,220.987 182.32999999999993,220.596 183.39999999999964,220.596" />
<path d="M168.40999999999985,220.596 C169.03000000000065,220.596 169.5599999999995,220.758 170.0,221.081 C170.39999999999964,221.435 170.59000000000015,221.878 170.59000000000015,222.409 C170.59000000000015,223.305 170.13999999999942,224.143 169.21999999999935,224.925 C168.28000000000065,225.706 167.28000000000065,226.096 166.20000000000073,226.096 C165.57999999999993,226.096 165.04999999999927,225.935 164.6299999999992,225.612 C164.21999999999935,225.258 164.02000000000044,224.815 164.02000000000044,224.284 C164.02000000000044,223.388 164.47999999999956,222.55 165.42000000000007,221.768 C166.34000000000015,220.987 167.32999999999993,220.596 168.40999999999985,220.596" />
<path d="M168.40999999999985,170.596 C169.03000000000065,170.596 169.5599999999995,170.758 170.0,171.081 C170.39999999999964,171.435 170.59000000000015,171.878 170.59000000000015,172.409 C170.59000000000015,173.305 170.13999999999942,174.143 169.21999999999935,174.925 C168.28000000000065,175.706 167.28000000000065,176.096 166.20000000000073,176.096 C165.57999999999993,176.096 165.04999999999927,175.935 164.6299999999992,175.612 C164.21999999999935,175.258 164.02000000000044,174.815 164.02000000000044,174.284 C164.02000000000044,173.388 164.47999999999956,172.55 165.42000000000007,171.768 C166.34000000000015,170.987 167.32999999999993,170.596 168.40999999999985,170.596" />
<path d="M168.40999999999985,175.596 C169.03000000000065,175.596 169.5599999999995,175.758 170.0,176.081 C170.39999999999964,176.435 170.59000000000015,176.878 170.59000000000015,177.409 C170.59000000000015,178.305 170.13999999999942,179.143 169.21999999999935,179.925 C168.28000000000065,180.706 167.28000000000065,181.096 166.20000000000073,181.096 C165.57999999999993,181.096 165.04999999999927,180.935 164.6299999999992,180.612 C164.21999999999935,180.258 164.02000000000044,179.815 164.02000000000044,179.284 C164.02000000000044,178.388 164.47999999999956,177.55 165.42000000000007,176.768 C166.34000000000015,175.987 167.32999999999993,175.596 168.40999999999985,175.596" />
<path d="M168.40999999999985,183.096 C169.03000000000065,183.096 169.5599999999995,183.258 170.0,183.581 C170.39999999999964,183.935 170.59000000000015,184.378 170.59000000000015,184.909 C170.59000000000015,185.805 170.13999999999942,186.643 169.21999999999935,187.425 C168.28000000000065,188.206 167.28000000000065,188.596 166.20000000000073,188.596 C165.57999999999993,188.596 165.04999999999927,188.435 164.6299999999992,188.112 C164.21999999999935,187.758 164.02000000000044,187.315 164.02000000000044,186.784 C164.02000000000044,185.888 164.47999999999956,185.05 165.42000000000007,184.268 C166.34000000000015,183.487 167.32999999999993,183.096 168.40999999999985,183.096" />
<path d="M168.40999999999985,193.096 C169.03000000000065,193.096 169.5599999999995,193.258 170.0,193.581 C170.39999999999964,193.935 170.59000000000015,194.378 170.59000000000015,194.909 C170.59000000000015,195.805 170.13999999999942,196.643 169.21999999999935,197.425 C168.28000000000065,198.206 167.28000000000065,198.596 166.20000000000073,198.596 C165.57999999999993,198.596 165.04999999999927,198.435 164.6299999999992,198.112 C164.21999999999935,197.758 164.02000000000044,197.315 164.02000000000044,196.784 C164.02000000000044,195.888 164.47999999999956,195.05 165.42000000000007,194.268 C166.34000000000015,193.487 167.32999999999993,193.096 168.40999999999985,193.096" />
<path d="M168.40999999999985,100.596 C169.03000000000065,100.596 169.5599999999995,100.758 170.0,101.081 C170.39999999999964,101.435 170.59000000000015,101.878 170.59000000000015,102.409 C170.59000000000015,103.305 170.13999999999942,104.143 169.21999999999935,104.925 C168.28000000000065,105.706 167.28000000000065,106.096 166.20000000000073,106.096 C165.57999999999993,106.096 165.04999999999927,105.935 164.6299999999992,105.612 C164.21999999999935,105.258 164.02000000000044,104.815 164.02000000000044,104.284 C164.02000000000044,103.388 164.47999999999956,102.55 165.42000000000007,101.768 C166.34000000000015,100.987 167.32999999999993,100.596 168.40999999999985,100.596" />
<path d="M168.40999999999985,78.0965 C169.03000000000065,78.0965 169.5599999999995,78.2579 170.0,78.5808 C170.39999999999964,78.935 170.59000000000015,79.3777 170.59000000000015,79.909 C170.59000000000015,80.8048 170.13999999999942,81.6433 169.21999999999935,82.4246 C168.28000000000065,83.2058 167.28000000000065,83.5965 166.20000000000073,83.5965 C165.57999999999993,83.5965 165.04999999999927,83.435 164.6299999999992,83.1121 C164.21999999999935,82.7579 164.02000000000044,82.3152 164.02000000000044,81.784 C164.02000000000044,80.8881 164.47999999999956,80.0496 165.42000000000007,79.2683 C166.34000000000015,78.4871 167.32999999999993,78.0965 168.40999999999985,78.0965" />
<path d="M153.40999999999985,170.596 C154.04000000000087,170.596 154.5699999999997,170.758 155.0,171.081 C155.39999999999964,171.435 155.60000000000036,171.878 155.60000000000036,172.409 C155.60000000000036,173.305 155.13999999999942,174.143 154.21999999999935,174.925 C153.29000000000087,175.706 152.28000000000065,176.096 151.20999999999913,176.096 C150.57999999999993,176.096 150.0599999999995,175.935 149.6299999999992,175.612 C149.21999999999935,175.258 149.02000000000044,174.815 149.02000000000044,174.284 C149.02000000000044,173.388 149.48999999999978,172.55 150.4300000000003,171.768 C151.34000000000015,170.987 152.34000000000015,170.596 153.40999999999985,170.596" />
<path d="M153.40999999999985,175.596 C154.04000000000087,175.596 154.5699999999997,175.758 155.0,176.081 C155.39999999999964,176.435 155.60000000000036,176.878 155.60000000000036,177.409 C155.60000000000036,178.305 155.13999999999942,179.143 154.21999999999935,179.925 C153.29000000000087,180.706 152.28000000000065,181.096 151.20999999999913,181.096 C150.57999999999993,181.096 150.0599999999995,180.935 149.6299999999992,180.612 C149.21999999999935,180.258 149.02000000000044,179.815 149.02000000000044,179.284 C149.02000000000044,178.388 149.48999999999978,177.55 150.4300000000003,176.768 C151.34000000000015,175.987 152.34000000000015,175.596 153.40999999999985,175.596" />
<path d="M153.40999999999985,183.096 C154.04000000000087,183.096 154.5699999999997,183.258 155.0,183.581 C155.39999999999964,183.935 155.60000000000036,184.378 155.60000000000036,184.909 C155.60000000000036,185.805 155.13999999999942,186.643 154.21999999999935,187.425 C153.29000000000087,188.206 152.28000000000065,188.596 151.20999999999913,188.596 C150.57999999999993,188.596 150.0599999999995,188.435 149.6299999999992,188.112 C149.21999999999935,187.758 149.02000000000044,187.315 149.02000000000044,186.784 C149.02000000000044,185.888 149.48999999999978,185.05 150.4300000000003,184.268 C151.34000000000015,183.487 152.34000000000015,183.096 153.40999999999985,183.096" />
<path d="M153.40999999999985,193.096 C154.04000000000087,193.096 154.5699999999997,193.258 155.0,193.581 C155.39999999999964,193.935 155.60000000000036,194.378 155.60000000000036,194.909 C155.60000000000036,195.805 155.13999999999942,196.643 154.21999999999935,197.425 C153.29000000000087,198.206 152.28000000000065,198.596 151.20999999999913,198.596 C150.57999999999993,198.596 150.0599999999995,198.435 149.6299999999992,198.112 C149.21999999999935,197.758 149.02000000000044,197.315 149.02000000000044,196.784 C149.02000000000044,195.888 149.48999999999978,195.05 150.4300000000003,194.268 C151.34000000000015,193.487 152.34000000000015,193.096 153.40999999999985,193.096" />
<path d="M138.42000000000007,170.596 C139.04000000000087,170.596 139.5699999999997,170.758 140.01000000000022,171.081 C140.40999999999985,171.435 140.60000000000036,171.878 140.60000000000036,172.409 C140.60000000000036,173.305 140.14999999999964,174.143 139.22999999999956,174.925 C138.29000000000087,175.706 137.29000000000087,176.096 136.20999999999913,176.096 C135.59000000000015,176.096 135.0599999999995,175.935 134.6299999999992,175.612 C134.22999999999956,175.258 134.03000000000065,174.815 134.03000000000065,174.284 C134.03000000000065,173.388 134.48999999999978,172.55 135.4300000000003,171.768 C136.35000000000036,170.987 137.34000000000015,170.596 138.42000000000007,170.596" />
<path d="M138.42000000000007,175.596 C139.04000000000087,175.596 139.5699999999997,175.758 140.01000000000022,176.081 C140.40999999999985,176.435 140.60000000000036,176.878 140.60000000000036,177.409 C140.60000000000036,178.305 140.14999999999964,179.143 139.22999999999956,179.925 C138.29000000000087,180.706 137.29000000000087,181.096 136.20999999999913,181.096 C135.59000000000015,181.096 135.0599999999995,180.935 134.6299999999992,180.612 C134.22999999999956,180.258 134.03000000000065,179.815 134.03000000000065,179.284 C134.03000000000065,178.388 134.48999999999978,177.55 135.4300000000003,176.768 C136.35000000000036,175.987 137.34000000000015,175.596 138.42000000000007,175.596" />
<path d="M138.42000000000007,183.096 C139.04000000000087,183.096 139.5699999999997,183.258 140.01000000000022,183.581 C140.40999999999985,183.935 140.60000000000036,184.378 140.60000000000036,184.909 C140.60000000000036,185.805 140.14999999999964,186.643 139.22999999999956,187.425 C138.29000000000087,188.206 137.29000000000087,188.596 136.20999999999913,188.596 C135.59000000000015,188.596 135.0599999999995,188.435 134.6299999999992,188.112 C134.22999999999956,187.758 134.03000000000065,187.315 134.03000000000065,186.784 C134.03000000000065,185.888 134.48999999999978,185.05 135.4300000000003,184.268 C136.35000000000036,183.487 137.34000000000015,183.096 138.42000000000007,183.096" />
<path d="M138.42000000000007,193.096 C139.04000000000087,193.096 139.5699999999997,193.258 140.01000000000022,193.581 C140.40999999999985,193.935 140.60000000000036,194.378 140.60000000000036,194.909 C140.60000000000036,195.805 140.14999999999964,196.643 139.22999999999956,197.425 C138.29000000000087,198.206 137.29000000000087,198.596 136.20999999999913,198.596 C135.59000000000015,198.596 135.0599999999995,198.435 134.6299999999992,198.112 C134.22999999999956,197.758 134.03000000000065,197.315 134.03000000000065,196.784 C134.03000000000065,195.888 134.48999999999978,195.05 135.4300000000003,194.268 C136.35000000000036,193.487 137.34000000000015,193.096 138.42000000000007,193.096" />
<path d="M123.42000000000007,213.096 C124.04999999999927,213.096 124.57999999999993,213.258 125.01000000000022,213.581 C125.40999999999985,213.935 125.61000000000058,214.378 125.61000000000058,214.909 C125.61000000000058,215.805 125.14999999999964,216.643 124.22999999999956,217.425 C123.29999999999927,218.206 122.29000000000087,218.596 121.21999999999935,218.596 C120.59000000000015,218.596 120.06999999999971,218.435 119.63999999999942,218.112 C119.22999999999956,217.758 119.03000000000065,217.315 119.03000000000065,216.784 C119.03000000000065,215.888 119.5,215.05 120.44000000000051,214.268 C121.35000000000036,213.487 122.35000000000036,213.096 123.42000000000007,213.096" />
<path d="M108.43000000000029,213.096 C109.04999999999927,213.096 109.57999999999993,213.258 110.02000000000044,213.581 C110.42000000000007,213.935 110.61000000000058,214.378 110.61000000000058,214.909 C110.61000000000058,215.805 110.14999999999964,216.643 109.23999999999978,217.425 C108.29999999999927,218.206 107.29999999999927,218.596 106.21999999999935,218.596 C105.60000000000036,218.596 105.06999999999971,218.435 104.63999999999942,218.112 C104.23999999999978,217.758 104.03000000000065,217.315 104.03000000000065,216.784 C104.03000000000065,215.888 104.5,215.05 105.44000000000051,214.268 C106.36000000000058,213.487 107.35000000000036,213.096 108.43000000000029,213.096" />
<path d="M60.44000000000051,220.596 C61.06999999999971,220.596 61.600000000000364,220.758 62.030000000000655,221.081 C62.43000000000029,221.435 62.6299999999992,221.878 62.6299999999992,222.409 C62.6299999999992,223.305 62.17000000000007,224.143 61.25,224.925 C60.31999999999971,225.706 59.30999999999949,226.096 58.23999999999978,226.096 C57.61000000000058,226.096 57.090000000000146,225.935 56.659999999999854,225.612 C56.25,225.258 56.04999999999927,224.815 56.04999999999927,224.284 C56.04999999999927,223.388 56.52000000000044,222.55 57.45999999999913,221.768 C58.3700000000008,220.987 59.3700000000008,220.596 60.44000000000051,220.596" />
<path d="M60.44000000000051,173.096 C61.06999999999971,173.096 61.600000000000364,173.258 62.030000000000655,173.581 C62.43000000000029,173.935 62.6299999999992,174.378 62.6299999999992,174.909 C62.6299999999992,175.805 62.17000000000007,176.643 61.25,177.425 C60.31999999999971,178.206 59.30999999999949,178.596 58.23999999999978,178.596 C57.61000000000058,178.596 57.090000000000146,178.435 56.659999999999854,178.112 C56.25,177.758 56.04999999999927,177.315 56.04999999999927,176.784 C56.04999999999927,175.888 56.52000000000044,175.05 57.45999999999913,174.268 C58.3700000000008,173.487 59.3700000000008,173.096 60.44000000000051,173.096" />
<path d="M60.44000000000051,180.596 C61.06999999999971,180.596 61.600000000000364,180.758 62.030000000000655,181.081 C62.43000000000029,181.435 62.6299999999992,181.878 62.6299999999992,182.409 C62.6299999999992,183.305 62.17000000000007,184.143 61.25,184.925 C60.31999999999971,185.706 59.30999999999949,186.096 58.23999999999978,186.096 C57.61000000000058,186.096 57.090000000000146,185.935 56.659999999999854,185.612 C56.25,185.258 56.04999999999927,184.815 56.04999999999927,184.284 C56.04999999999927,183.388 56.52000000000044,182.55 57.45999999999913,181.768 C58.3700000000008,180.987 59.3700000000008,180.596 60.44000000000051,180.596" />
<path d="M60.44000000000051,185.596 C61.06999999999971,185.596 61.600000000000364,185.758 62.030000000000655,186.081 C62.43000000000029,186.435 62.6299999999992,186.878 62.6299999999992,187.409 C62.6299999999992,188.305 62.17000000000007,189.143 61.25,189.925 C60.31999999999971,190.706 59.30999999999949,191.096 58.23999999999978,191.096 C57.61000000000058,191.096 57.090000000000146,190.935 56.659999999999854,190.612 C56.25,190.258 56.04999999999927,189.815 56.04999999999927,189.284 C56.04999999999927,188.388 56.52000000000044,187.55 57.45999999999913,186.768 C58.3700000000008,185.987 59.3700000000008,185.596 60.44000000000051,185.596" />
<path d="M60.44000000000051,190.596 C61.06999999999971,190.596 61.600000000000364,190.758 62.030000000000655,191.081 C62.43000000000029,191.435 62.6299999999992,191.878 62.6299999999992,192.409 C62.6299999999992,193.305 62.17000000000007,194.143 61.25,194.925 C60.31999999999971,195.706 59.30999999999949,196.096 58.23999999999978,196.096 C57.61000000000058,196.096 57.090000000000146,195.935 56.659999999999854,195.612 C56.25,195.258 56.04999999999927,194.815 56.04999999999927,194.284 C56.04999999999927,193.388 56.52000000000044,192.55 57.45999999999913,191.768 C58.3700000000008,190.987 59.3700000000008,190.596 60.44000000000051,190.596" />
<path d="M45.45000000000073,173.096 C46.06999999999971,173.096 46.600000000000364,173.258 47.04000000000087,173.581 C47.44000000000051,173.935 47.6299999999992,174.378 47.6299999999992,174.909 C47.6299999999992,175.805 47.17000000000007,176.643 46.26000000000022,177.425 C45.31999999999971,178.206 44.31999999999971,178.596 43.23999999999978,178.596 C42.6200000000008,178.596 42.090000000000146,178.435 41.659999999999854,178.112 C41.26000000000022,177.758 41.04999999999927,177.315 41.04999999999927,176.784 C41.04999999999927,175.888 41.52000000000044,175.05 42.45999999999913,174.268 C43.3799999999992,173.487 44.3700000000008,173.096 45.45000000000073,173.096" />
<path d="M45.45000000000073,180.596 C46.06999999999971,180.596 46.600000000000364,180.758 47.04000000000087,181.081 C47.44000000000051,181.435 47.6299999999992,181.878 47.6299999999992,182.409 C47.6299999999992,183.305 47.17000000000007,184.143 46.26000000000022,184.925 C45.31999999999971,185.706 44.31999999999971,186.096 43.23999999999978,186.096 C42.6200000000008,186.096 42.090000000000146,185.935 41.659999999999854,185.612 C41.26000000000022,185.258 41.04999999999927,184.815 41.04999999999927,184.284 C41.04999999999927,183.388 41.52000000000044,182.55 42.45999999999913,181.768 C43.3799999999992,180.987 44.3700000000008,180.596 45.45000000000073,180.596" />
<path d="M45.45000000000073,185.596 C46.06999999999971,185.596 46.600000000000364,185.758 47.04000000000087,186.081 C47.44000000000051,186.435 47.6299999999992,186.878 47.6299999999992,187.409 C47.6299999999992,188.305 47.17000000000007,189.143 46.26000000000022,189.925 C45.31999999999971,190.706 44.31999999999971,191.096 43.23999999999978,191.096 C42.6200000000008,191.096 42.090000000000146,190.935 41.659999999999854,190.612 C41.26000000000022,190.258 41.04999999999927,189.815 41.04999999999927,189.284 C41.04999999999927,188.388 41.52000000000044,187.55 42.45999999999913,186.768 C43.3799999999992,185.987 44.3700000000008,185.596 45.45000000000073,185.596" />
<path d="M45.45000000000073,190.596 C46.06999999999971,190.596 46.600000000000364,190.758 47.04000000000087,191.081 C47.44000000000051,191.435 47.6299999999992,191.878 47.6299999999992,192.409 C47.6299999999992,193.305 47.17000000000007,194.143 46.26000000000022,194.925 C45.31999999999971,195.706 44.31999999999971,196.096 43.23999999999978,196.096 C42.6200000000008,196.096 42.090000000000146,195.935 41.659999999999854,195.612 C41.26000000000022,195.258 41.04999999999927,194.815 41.04999999999927,194.284 C41.04999999999927,193.388 41.52000000000044,192.55 42.45999999999913,191.768 C43.3799999999992,190.987 44.3700000000008,190.596 45.45000000000073,190.596" />
<path d="M30.450000000000728,225.596 C31.079999999999927,225.596 31.610000000000582,225.758 32.04000000000087,226.081 C32.44000000000051,226.435 32.63999999999942,226.878 32.63999999999942,227.409 C32.63999999999942,228.305 32.18000000000029,229.143 31.26000000000022,229.925 C30.329999999999927,230.706 29.31999999999971,231.096 28.25,231.096 C27.6200000000008,231.096 27.100000000000364,230.935 26.670000000000073,230.612 C26.26000000000022,230.258 26.05999999999949,229.815 26.05999999999949,229.284 C26.05999999999949,228.388 26.530000000000655,227.55 27.469999999999345,226.768 C28.3799999999992,225.987 29.3799999999992,225.596 30.450000000000728,225.596" />
<path d="M30.450000000000728,173.096 C31.079999999999927,173.096 31.610000000000582,173.258 32.04000000000087,173.581 C32.44000000000051,173.935 32.63999999999942,174.378 32.63999999999942,174.909 C32.63999999999942,175.805 32.18000000000029,176.643 31.26000000000022,177.425 C30.329999999999927,178.206 29.31999999999971,178.596 28.25,178.596 C27.6200000000008,178.596 27.100000000000364,178.435 26.670000000000073,178.112 C26.26000000000022,177.758 26.05999999999949,177.315 26.05999999999949,176.784 C26.05999999999949,175.888 26.530000000000655,175.05 27.469999999999345,174.268 C28.3799999999992,173.487 29.3799999999992,173.096 30.450000000000728,173.096" />
<path d="M30.450000000000728,180.596 C31.079999999999927,180.596 31.610000000000582,180.758 32.04000000000087,181.081 C32.44000000000051,181.435 32.63999999999942,181.878 32.63999999999942,182.409 C32.63999999999942,183.305 32.18000000000029,184.143 31.26000000000022,184.925 C30.329999999999927,185.706 29.31999999999971,186.096 28.25,186.096 C27.6200000000008,186.096 27.100000000000364,185.935 26.670000000000073,185.612 C26.26000000000022,185.258 26.05999999999949,184.815 26.05999999999949,184.284 C26.05999999999949,183.388 26.530000000000655,182.55 27.469999999999345,181.768 C28.3799999999992,180.987 29.3799999999992,180.596 30.450000000000728,180.596" />
<path d="M30.450000000000728,185.596 C31.079999999999927,185.596 31.610000000000582,185.758 32.04000000000087,186.081 C32.44000000000051,186.435 32.63999999999942,186.878 32.63999999999942,187.409 C32.63999999999942,188.305 32.18000000000029,189.143 31.26000000000022,189.925 C30.329999999999927,190.706 29.31999999999971,191.096 28.25,191.096 C27.6200000000008,191.096 27.100000000000364,190.935 26.670000000000073,190.612 C26.26000000000022,190.258 26.05999999999949,189.815 26.05999999999949,189.284 C26.05999999999949,188.388 26.530000000000655,187.55 27.469999999999345,186.768 C28.3799999999992,185.987 29.3799999999992,185.596 30.450000000000728,185.596" />
<path d="M30.450000000000728,190.596 C31.079999999999927,190.596 31.610000000000582,190.758 32.04000000000087,191.081 C32.44000000000051,191.435 32.63999999999942,191.878 32.63999999999942,192.409 C32.63999999999942,193.305 32.18000000000029,194.143 31.26000000000022,194.925 C30.329999999999927,195.706 29.31999999999971,196.096 28.25,196.096 C27.6200000000008,196.096 27.100000000000364,195.935 26.670000000000073,195.612 C26.26000000000022,195.258 26.05999999999949,194.815 26.05999999999949,194.284 C26.05999999999949,193.388 26.530000000000655,192.55 27.469999999999345,191.768 C28.3799999999992,190.987 29.3799999999992,190.596 30.450000000000728,190.596" />
<path d="M6.459999999999127,238.096 C7.079999999999927,238.096 7.610000000000582,238.258 8.049999999999272,238.581 C8.450000000000728,238.935 8.649999999999636,239.378 8.649999999999636,239.909 C8.649999999999636,240.805 8.19000000000051,241.643 7.270000000000437,242.425 C6.329999999999927,243.206 5.329999999999927,243.596 4.25,243.596 C3.6299999999991996,243.596 3.100000000000364,243.435 2.680000000000291,243.112 C2.2700000000004366,242.758 2.069999999999709,242.315 2.069999999999709,241.784 C2.069999999999709,240.888 2.540000000000873,240.05 3.469999999999345,239.268 C4.389999999999418,238.487 5.389999999999418,238.096 6.459999999999127,238.096" />
<path d="M6.459999999999127,173.096 C7.079999999999927,173.096 7.610000000000582,173.258 8.049999999999272,173.581 C8.450000000000728,173.935 8.649999999999636,174.378 8.649999999999636,174.909 C8.649999999999636,175.805 8.19000000000051,176.643 7.270000000000437,177.425 C6.329999999999927,178.206 5.329999999999927,178.596 4.25,178.596 C3.6299999999991996,178.596 3.100000000000364,178.435 2.680000000000291,178.112 C2.2700000000004366,177.758 2.069999999999709,177.315 2.069999999999709,176.784 C2.069999999999709,175.888 2.540000000000873,175.05 3.469999999999345,174.268 C4.389999999999418,173.487 5.389999999999418,173.096 6.459999999999127,173.096" />
<path d="M6.459999999999127,180.596 C7.079999999999927,180.596 7.610000000000582,180.758 8.049999999999272,181.081 C8.450000000000728,181.435 8.649999999999636,181.878 8.649999999999636,182.409 C8.649999999999636,183.305 8.19000000000051,184.143 7.270000000000437,184.925 C6.329999999999927,185.706 5.329999999999927,186.096 4.25,186.096 C3.6299999999991996,186.096 3.100000000000364,185.935 2.680000000000291,185.612 C2.2700000000004366,185.258 2.069999999999709,184.815 2.069999999999709,184.284 C2.069999999999709,183.388 2.540000000000873,182.55 3.469999999999345,181.768 C4.389999999999418,180.987 5.389999999999418,180.596 6.459999999999127,180.596" />
<path d="M6.459999999999127,185.596 C7.079999999999927,185.596 7.610000000000582,185.758 8.049999999999272,186.081 C8.450000000000728,186.435 8.649999999999636,186.878 8.649999999999636,187.409 C8.649999999999636,188.305 8.19000000000051,189.143 7.270000000000437,189.925 C6.329999999999927,190.706 5.329999999999927,191.096 4.25,191.096 C3.6299999999991996,191.096 3.100000000000364,190.935 2.680000000000291,190.612 C2.2700000000004366,190.258 2.069999999999709,189.815 2.069999999999709,189.284 C2.069999999999709,188.388 2.540000000000873,187.55 3.469999999999345,186.768 C4.389999999999418,185.987 5.389999999999418,185.596 6.459999999999127,185.596" />
<path d="M6.459999999999127,190.596 C7.079999999999927,190.596 7.610000000000582,190.758 8.049999999999272,191.081 C8.450000000000728,191.435 8.649999999999636,191.878 8.649999999999636,192.409 C8.649999999999636,193.305 8.19000000000051,194.143 7.270000000000437,194.925 C6.329999999999927,195.706 5.329999999999927,196.096 4.25,196.096 C3.6299999999991996,196.096 3.100000000000364,195.935 2.680000000000291,195.612 C2.2700000000004366,195.258 2.069999999999709,194.815 2.069999999999709,194.284 C2.069999999999709,193.388 2.540000000000873,192.55 3.469999999999345,191.768 C4.389999999999418,190.987 5.389999999999418,190.596 6.459999999999127,190.596" />
<path d="M8.200000000000728,92.034 C8.200000000000728,91.8152 8.1200000000008,91.6277 7.950000000000728,91.4715 C7.770000000000437,91.3048 7.569999999999709,91.2215 7.360000000000582,91.2215 C6.969999999999345,91.2215 6.180000000000291,91.6121 5.0,92.3933 C3.7700000000004366,93.185 3.0200000000004366,93.7527 2.75,94.0965 C2.600000000000364,94.2735 2.530000000000655,94.461 2.530000000000655,94.659 C2.530000000000655,94.8777 2.6200000000008004,95.0652 2.790000000000873,95.2215 C2.9500000000007276,95.3881 3.139999999999418,95.4715 3.3700000000008004,95.4715 C3.75,95.4715 4.540000000000873,95.0808 5.760000000000218,94.2996 C6.959999999999127,93.5183 7.700000000000728,92.9506 7.979999999999563,92.5965 C8.1299999999992,92.4298 8.200000000000728,92.2423 8.200000000000728,92.034 M7.170000000000073,90.5965 C8.280000000000655,90.5965 8.840000000000146,91.0756 8.840000000000146,92.034 C8.840000000000146,92.5027 8.700000000000728,93.0496 8.430000000000291,93.6746 C8.159999999999854,94.2892 7.799999999999272,94.7579 7.3400000000001455,95.0808 C6.3400000000001455,95.7579 5.079999999999927,96.0965 3.569999999999709,96.0965 C2.4500000000007276,96.0965 1.889999999999418,95.6173 1.889999999999418,94.659 C1.889999999999418,94.2319 2.0200000000004366,93.6902 2.290000000000873,93.034 C2.5499999999992724,92.409 2.9200000000000728,91.935 3.389999999999418,91.6121 C4.399999999999636,90.935 5.6599999999998545,90.5965 7.170000000000073,90.5965" />
<path d="M8.200000000000728,99.534 C8.200000000000728,99.3152 8.1200000000008,99.1277 7.950000000000728,98.9715 C7.770000000000437,98.8048 7.569999999999709,98.7215 7.360000000000582,98.7215 C6.969999999999345,98.7215 6.180000000000291,99.1121 5.0,99.8933 C3.7700000000004366,100.685 3.0200000000004366,101.253 2.75,101.596 C2.600000000000364,101.774 2.530000000000655,101.961 2.530000000000655,102.159 C2.530000000000655,102.378 2.6200000000008004,102.565 2.790000000000873,102.721 C2.9500000000007276,102.888 3.139999999999418,102.971 3.3700000000008004,102.971 C3.75,102.971 4.540000000000873,102.581 5.760000000000218,101.8 C6.959999999999127,101.018 7.700000000000728,100.451 7.979999999999563,100.096 C8.1299999999992,99.9298 8.200000000000728,99.7423 8.200000000000728,99.534 M7.170000000000073,98.0965 C8.280000000000655,98.0965 8.840000000000146,98.5756 8.840000000000146,99.534 C8.840000000000146,100.003 8.700000000000728,100.55 8.430000000000291,101.175 C8.159999999999854,101.789 7.799999999999272,102.258 7.3400000000001455,102.581 C6.3400000000001455,103.258 5.079999999999927,103.596 3.569999999999709,103.596 C2.4500000000007276,103.596 1.889999999999418,103.117 1.889999999999418,102.159 C1.889999999999418,101.732 2.0200000000004366,101.19 2.290000000000873,100.534 C2.5499999999992724,99.909 2.9200000000000728,99.435 3.389999999999418,99.1121 C4.399999999999636,98.435 5.6599999999998545,98.0965 7.170000000000073,98.0965" />
<path d="M8.200000000000728,104.534 C8.200000000000728,104.315 8.1200000000008,104.128 7.950000000000728,103.971 C7.770000000000437,103.805 7.569999999999709,103.721 7.360000000000582,103.721 C6.969999999999345,103.721 6.180000000000291,104.112 5.0,104.893 C3.7700000000004366,105.685 3.0200000000004366,106.253 2.75,106.596 C2.600000000000364,106.774 2.530000000000655,106.961 2.530000000000655,107.159 C2.530000000000655,107.378 2.6200000000008004,107.565 2.790000000000873,107.721 C2.9500000000007276,107.888 3.139999999999418,107.971 3.3700000000008004,107.971 C3.75,107.971 4.540000000000873,107.581 5.760000000000218,106.8 C6.959999999999127,106.018 7.700000000000728,105.451 7.979999999999563,105.096 C8.1299999999992,104.93 8.200000000000728,104.742 8.200000000000728,104.534 M7.170000000000073,103.096 C8.280000000000655,103.096 8.840000000000146,103.576 8.840000000000146,104.534 C8.840000000000146,105.003 8.700000000000728,105.55 8.430000000000291,106.175 C8.159999999999854,106.789 7.799999999999272,107.258 7.3400000000001455,107.581 C6.3400000000001455,108.258 5.079999999999927,108.596 3.569999999999709,108.596 C2.4500000000007276,108.596 1.889999999999418,108.117 1.889999999999418,107.159 C1.889999999999418,106.732 2.0200000000004366,106.19 2.290000000000873,105.534 C2.5499999999992724,104.909 2.9200000000000728,104.435 3.389999999999418,104.112 C4.399999999999636,103.435 5.6599999999998545,103.096 7.170000000000073,103.096" />
<path d="M8.200000000000728,69.534 C8.200000000000728,69.3152 8.1200000000008,69.1277 7.950000000000728,68.9715 C7.770000000000437,68.8048 7.569999999999709,68.7215 7.360000000000582,68.7215 C6.969999999999345,68.7215 6.180000000000291,69.1121 5.0,69.8933 C3.7700000000004366,70.685 3.0200000000004366,71.2527 2.75,71.5965 C2.600000000000364,71.7735 2.530000000000655,71.961 2.530000000000655,72.159 C2.530000000000655,72.3777 2.6200000000008004,72.5652 2.790000000000873,72.7215 C2.9500000000007276,72.8881 3.139999999999418,72.9715 3.3700000000008004,72.9715 C3.75,72.9715 4.540000000000873,72.5808 5.760000000000218,71.7996 C6.959999999999127,71.0183 7.700000000000728,70.4506 7.979999999999563,70.0965 C8.1299999999992,69.9298 8.200000000000728,69.7423 8.200000000000728,69.534 M7.170000000000073,68.0965 C8.280000000000655,68.0965 8.840000000000146,68.5756 8.840000000000146,69.534 C8.840000000000146,70.0027 8.700000000000728,70.5496 8.430000000000291,71.1746 C8.159999999999854,71.7892 7.799999999999272,72.2579 7.3400000000001455,72.5808 C6.3400000000001455,73.2579 5.079999999999927,73.5965 3.569999999999709,73.5965 C2.4500000000007276,73.5965 1.889999999999418,73.1173 1.889999999999418,72.159 C1.889999999999418,71.7319 2.0200000000004366,71.1902 2.290000000000873,70.534 C2.5499999999992724,69.909 2.9200000000000728,69.435 3.389999999999418,69.1121 C4.399999999999636,68.435 5.6599999999998545,68.0965 7.170000000000073,68.0965" />
<path d="M8.200000000000728,77.034 C8.200000000000728,76.8152 8.1200000000008,76.6277 7.950000000000728,76.4715 C7.770000000000437,76.3048 7.569999999999709,76.2215 7.360000000000582,76.2215 C6.969999999999345,76.2215 6.180000000000291,76.6121 5.0,77.3933 C3.7700000000004366,78.185 3.0200000000004366,78.7527 2.75,79.0965 C2.600000000000364,79.2735 2.530000000000655,79.461 2.530000000000655,79.659 C2.530000000000655,79.8777 2.6200000000008004,80.0652 2.790000000000873,80.2215 C2.9500000000007276,80.3881 3.139999999999418,80.4715 3.3700000000008004,80.4715 C3.75,80.4715 4.540000000000873,80.0808 5.760000000000218,79.2996 C6.959999999999127,78.5183 7.700000000000728,77.9506 7.979999999999563,77.5965 C8.1299999999992,77.4298 8.200000000000728,77.2423 8.200000000000728,77.034 M7.170000000000073,75.5965 C8.280000000000655,75.5965 8.840000000000146,76.0756 8.840000000000146,77.034 C8.840000000000146,77.5027 8.700000000000728,78.0496 8.430000000000291,78.6746 C8.159999999999854,79.2892 7.799999999999272,79.7579 7.3400000000001455,80.0808 C6.3400000000001455,80.7579 5.079999999999927,81.0965 3.569999999999709,81.0965 C2.4500000000007276,81.0965 1.889999999999418,80.6173 1.889999999999418,79.659 C1.889999999999418,79.2319 2.0200000000004366,78.6902 2.290000000000873,78.034 C2.5499999999992724,77.409 2.9200000000000728,76.935 3.389999999999418,76.6121 C4.399999999999636,75.935 5.6599999999998545,75.5965 7.170000000000073,75.5965" />
<path d="M8.200000000000728,82.034 C8.200000000000728,81.8152 8.1200000000008,81.6277 7.950000000000728,81.4715 C7.770000000000437,81.3048 7.569999999999709,81.2215 7.360000000000582,81.2215 C6.969999999999345,81.2215 6.180000000000291,81.6121 5.0,82.3933 C3.7700000000004366,83.185 3.0200000000004366,83.7527 2.75,84.0965 C2.600000000000364,84.2735 2.530000000000655,84.461 2.530000000000655,84.659 C2.530000000000655,84.8777 2.6200000000008004,85.0652 2.790000000000873,85.2215 C2.9500000000007276,85.3881 3.139999999999418,85.4715 3.3700000000008004,85.4715 C3.75,85.4715 4.540000000000873,85.0808 5.760000000000218,84.2996 C6.959999999999127,83.5183 7.700000000000728,82.9506 7.979999999999563,82.5965 C8.1299999999992,82.4298 8.200000000000728,82.2423 8.200000000000728,82.034 M7.170000000000073,80.5965 C8.280000000000655,80.5965 8.840000000000146,81.0756 8.840000000000146,82.034 C8.840000000000146,82.5027 8.700000000000728,83.0496 8.430000000000291,83.6746 C8.159999999999854,84.2892 7.799999999999272,84.7579 7.3400000000001455,85.0808 C6.3400000000001455,85.7579 5.079999999999927,86.0965 3.569999999999709,86.0965 C2.4500000000007276,86.0965 1.889999999999418,85.6173 1.889999999999418,84.659 C1.889999999999418,84.2319 2.0200000000004366,83.6902 2.290000000000873,83.034 C2.5499999999992724,82.409 2.9200000000000728,81.935 3.389999999999418,81.6121 C4.399999999999636,80.935 5.6599999999998545,80.5965 7.170000000000073,80.5965" />
<path d="M195.40999999999985,226.737 C195.79000000000087,226.737 196.0699999999997,226.841 196.27000000000044,227.05 C196.46999999999935,227.289 196.5699999999997,227.513 196.57999999999993,227.721 C196.6200000000008,227.919 196.6800000000003,228.138 196.79000000000087,228.378 C196.89999999999964,228.586 197.04999999999927,228.69 197.22999999999956,228.69 C197.3700000000008,228.69 197.59000000000015,228.529 197.8799999999992,228.206 C198.13999999999942,227.925 198.32999999999993,227.669 198.4400000000005,227.44 C198.51000000000022,227.315 198.59000000000015,227.253 198.70999999999913,227.253 L198.73999999999978,227.253 C198.8700000000008,227.263 198.95000000000073,227.326 199.01000000000022,227.44 L196.54999999999927,235.846 C196.42000000000007,235.982 196.22999999999956,236.05 196.0,236.05 C195.76000000000022,236.05 195.57999999999993,235.982 195.45999999999913,235.846 L197.79999999999927,229.315 C196.96999999999935,229.617 196.27000000000044,229.768 195.6900000000005,229.768 C195.22999999999956,229.768 194.8199999999997,229.617 194.47999999999956,229.315 C194.1200000000008,229.034 193.9400000000005,228.659 193.9400000000005,228.19 C193.9400000000005,227.784 194.09000000000015,227.445 194.3799999999992,227.175 C194.65999999999985,226.883 195.01000000000022,226.737 195.40999999999985,226.737" />
<path d="M135.4300000000003,226.737 C135.8099999999995,226.737 136.09000000000015,226.841 136.29000000000087,227.05 C136.48999999999978,227.289 136.59000000000015,227.513 136.60000000000036,227.721 C136.6299999999992,227.919 136.70000000000073,228.138 136.8099999999995,228.378 C136.92000000000007,228.586 137.0699999999997,228.69 137.23999999999978,228.69 C137.38999999999942,228.69 137.61000000000058,228.529 137.89999999999964,228.206 C138.15999999999985,227.925 138.35000000000036,227.669 138.45999999999913,227.44 C138.53000000000065,227.315 138.61000000000058,227.253 138.72999999999956,227.253 L138.76000000000022,227.253 C138.8799999999992,227.263 138.96999999999935,227.326 139.03000000000065,227.44 L136.5699999999997,235.846 C136.4400000000005,235.982 136.25,236.05 136.02000000000044,236.05 C135.78000000000065,236.05 135.60000000000036,235.982 135.47999999999956,235.846 L137.8199999999997,229.315 C136.98999999999978,229.617 136.29000000000087,229.768 135.70999999999913,229.768 C135.23999999999978,229.768 134.84000000000015,229.617 134.48999999999978,229.315 C134.13999999999942,229.034 133.95999999999913,228.659 133.95999999999913,228.19 C133.95999999999913,227.784 134.11000000000058,227.445 134.39999999999964,227.175 C134.6800000000003,226.883 135.03000000000065,226.737 135.4300000000003,226.737" />
<path d="M105.44000000000051,174.237 C105.81999999999971,174.237 106.10000000000036,174.341 106.29999999999927,174.55 C106.5,174.789 106.60000000000036,175.013 106.61000000000058,175.221 C106.63999999999942,175.419 106.70999999999913,175.638 106.81999999999971,175.878 C106.93000000000029,176.086 107.07999999999993,176.19 107.25,176.19 C107.39999999999964,176.19 107.6200000000008,176.029 107.90999999999985,175.706 C108.17000000000007,175.425 108.36000000000058,175.169 108.46999999999935,174.94 C108.53000000000065,174.815 108.6200000000008,174.753 108.73999999999978,174.753 L108.77000000000044,174.753 C108.88999999999942,174.763 108.97999999999956,174.826 109.03000000000065,174.94 L106.57999999999993,183.346 C106.45000000000073,183.482 106.26000000000022,183.55 106.03000000000065,183.55 C105.79000000000087,183.55 105.61000000000058,183.482 105.48999999999978,183.346 L107.82999999999993,176.815 C107.0,177.117 106.29999999999927,177.268 105.71999999999935,177.268 C105.25,177.268 104.85000000000036,177.117 104.5,176.815 C104.14999999999964,176.534 103.96999999999935,176.159 103.96999999999935,175.69 C103.96999999999935,175.284 104.1200000000008,174.945 104.40999999999985,174.675 C104.69000000000051,174.383 105.03000000000065,174.237 105.44000000000051,174.237" />
<path d="M233.11000000000058,245.846 L259.1100000000006,240.718 L259.1100000000006,243.218 L233.11000000000058,248.346 L233.11000000000058,245.846" />
<path d="M164.02000000000044,238.346 L179.65999999999985,238.346 L179.65999999999985,240.846 L164.02000000000044,240.846 L164.02000000000044,238.346" />
<path d="M164.02000000000044,234.596 L179.65999999999985,234.596 L179.65999999999985,237.096 L164.02000000000044,237.096 L164.02000000000044,234.596" />
<path d="M139.95999999999913,157.096 L155.60000000000036,157.096 L155.60000000000036,159.596 L139.95999999999913,159.596 L139.95999999999913,157.096" />
<path d="M139.95999999999913,160.846 L155.60000000000036,160.846 L155.60000000000036,163.346 L139.95999999999913,163.346 L139.95999999999913,160.846" />
<path d="M104.03000000000065,229.596 L119.68000000000029,229.596 L119.68000000000029,232.096 L104.03000000000065,232.096 L104.03000000000065,229.596" />
<path d="M104.03000000000065,225.846 L119.68000000000029,225.846 L119.68000000000029,228.346 L104.03000000000065,228.346 L104.03000000000065,225.846" />
<path d="M8.0,218.482 L32.63999999999942,213.346 L32.63999999999942,215.846 L8.0,220.982 L8.0,218.482" />
<path d="M8.0,158.346 L47.63999999999942,158.346 L47.63999999999942,160.846 L8.0,160.846 L8.0,158.346" />
<path d="M31.98999999999978,162.096 L47.63999999999942,162.096 L47.63999999999942,164.596 L31.98999999999978,164.596 L31.98999999999978,162.096" />
<path d="M241.95999999999913,94.1511 C241.73999999999978,93.9272 241.6200000000008,93.659 241.6200000000008,93.3465 C241.6200000000008,93.034 241.73999999999978,92.7657 241.95999999999913,92.5418 C242.1800000000003,92.3178 242.45000000000073,92.2058 242.77000000000044,92.2058 C243.07999999999993,92.2058 243.34000000000015,92.3178 243.5599999999995,92.5418 C243.78000000000065,92.7657 243.88999999999942,93.034 243.88999999999942,93.3465 C243.88999999999942,93.659 243.78000000000065,93.9272 243.5599999999995,94.1511 C243.34000000000015,94.3751 243.07999999999993,94.4871 242.77000000000044,94.4871 C242.45000000000073,94.4871 242.1800000000003,94.3751 241.95999999999913,94.1511" />
<path d="M241.95999999999913,71.6511 C241.73999999999978,71.4272 241.6200000000008,71.159 241.6200000000008,70.8465 C241.6200000000008,70.534 241.73999999999978,70.2657 241.95999999999913,70.0418 C242.1800000000003,69.8178 242.45000000000073,69.7058 242.77000000000044,69.7058 C243.07999999999993,69.7058 243.34000000000015,69.8178 243.5599999999995,70.0418 C243.78000000000065,70.2657 243.88999999999942,70.534 243.88999999999942,70.8465 C243.88999999999942,71.159 243.78000000000065,71.4272 243.5599999999995,71.6511 C243.34000000000015,71.8751 243.07999999999993,71.9871 242.77000000000044,71.9871 C242.45000000000073,71.9871 242.1800000000003,71.8751 241.95999999999913,71.6511" />
<path d="M10.209999999999127,89.1511 C9.989999999999782,88.9272 9.8799999999992,88.659 9.8799999999992,88.3465 C9.8799999999992,88.034 9.989999999999782,87.7657 10.209999999999127,87.5418 C10.44000000000051,87.3178 10.700000000000728,87.2058 11.020000000000437,87.2058 C11.329999999999927,87.2058 11.590000000000146,87.3178 11.80999999999949,87.5418 C12.030000000000655,87.7657 12.139999999999418,88.034 12.139999999999418,88.3465 C12.139999999999418,88.659 12.030000000000655,88.9272 11.80999999999949,89.1511 C11.590000000000146,89.3751 11.329999999999927,89.4871 11.020000000000437,89.4871 C10.700000000000728,89.4871 10.44000000000051,89.3751 10.209999999999127,89.1511" />
<path d="M10.209999999999127,94.1511 C9.989999999999782,93.9272 9.8799999999992,93.659 9.8799999999992,93.3465 C9.8799999999992,93.034 9.989999999999782,92.7657 10.209999999999127,92.5418 C10.44000000000051,92.3178 10.700000000000728,92.2058 11.020000000000437,92.2058 C11.329999999999927,92.2058 11.590000000000146,92.3178 11.80999999999949,92.5418 C12.030000000000655,92.7657 12.139999999999418,93.034 12.139999999999418,93.3465 C12.139999999999418,93.659 12.030000000000655,93.9272 11.80999999999949,94.1511 C11.590000000000146,94.3751 11.329999999999927,94.4871 11.020000000000437,94.4871 C10.700000000000728,94.4871 10.44000000000051,94.3751 10.209999999999127,94.1511" />
<path d="M10.209999999999127,104.151 C9.989999999999782,103.927 9.8799999999992,103.659 9.8799999999992,103.346 C9.8799999999992,103.034 9.989999999999782,102.766 10.209999999999127,102.542 C10.44000000000051,102.318 10.700000000000728,102.206 11.020000000000437,102.206 C11.329999999999927,102.206 11.590000000000146,102.318 11.80999999999949,102.542 C12.030000000000655,102.766 12.139999999999418,103.034 12.139999999999418,103.346 C12.139999999999418,103.659 12.030000000000655,103.927 11.80999999999949,104.151 C11.590000000000146,104.375 11.329999999999927,104.487 11.020000000000437,104.487 C10.700000000000728,104.487 10.44000000000051,104.375 10.209999999999127,104.151" />
<path d="M10.920000000000073,94.1511 C10.69000000000051,93.9272 10.579999999999927,93.659 10.579999999999927,93.3465 C10.579999999999927,93.034 10.69000000000051,92.7657 10.920000000000073,92.5418 C11.139999999999418,92.3178 11.409999999999854,92.2058 11.719999999999345,92.2058 C12.030000000000655,92.2058 12.299999999999272,92.3178 12.520000000000437,92.5418 C12.739999999999782,92.7657 12.850000000000364,93.034 12.850000000000364,93.3465 C12.850000000000364,93.659 12.739999999999782,93.9272 12.520000000000437,94.1511 C12.299999999999272,94.3751 12.030000000000655,94.4871 11.719999999999345,94.4871 C11.409999999999854,94.4871 11.139999999999418,94.3751 10.920000000000073,94.1511" />
<path d="M10.920000000000073,99.1511 C10.69000000000051,98.9272 10.579999999999927,98.659 10.579999999999927,98.3465 C10.579999999999927,98.034 10.69000000000051,97.7657 10.920000000000073,97.5418 C11.139999999999418,97.3178 11.409999999999854,97.2058 11.719999999999345,97.2058 C12.030000000000655,97.2058 12.299999999999272,97.3178 12.520000000000437,97.5418 C12.739999999999782,97.7657 12.850000000000364,98.034 12.850000000000364,98.3465 C12.850000000000364,98.659 12.739999999999782,98.9272 12.520000000000437,99.1511 C12.299999999999272,99.3751 12.030000000000655,99.4871 11.719999999999345,99.4871 C11.409999999999854,99.4871 11.139999999999418,99.3751 10.920000000000073,99.1511" />
<path d="M10.920000000000073,104.151 C10.69000000000051,103.927 10.579999999999927,103.659 10.579999999999927,103.346 C10.579999999999927,103.034 10.69000000000051,102.766 10.920000000000073,102.542 C11.139999999999418,102.318 11.409999999999854,102.206 11.719999999999345,102.206 C12.030000000000655,102.206 12.299999999999272,102.318 12.520000000000437,102.542 C12.739999999999782,102.766 12.850000000000364,103.034 12.850000000000364,103.346 C12.850000000000364,103.659 12.739999999999782,103.927 12.520000000000437,104.151 C12.299999999999272,104.375 12.030000000000655,104.487 11.719999999999345,104.487 C11.409999999999854,104.487 11.139999999999418,104.375 10.920000000000073,104.151" />
<path d="M10.569999999999709,66.6511 C10.350000000000364,66.4272 10.239999999999782,66.159 10.239999999999782,65.8465 C10.239999999999782,65.534 10.350000000000364,65.2657 10.569999999999709,65.0418 C10.799999999999272,64.8178 11.05999999999949,64.7058 11.3799999999992,64.7058 C11.69000000000051,64.7058 11.950000000000728,64.8178 12.170000000000073,65.0418 C12.389999999999418,65.2657 12.5,65.534 12.5,65.8465 C12.5,66.159 12.389999999999418,66.4272 12.170000000000073,66.6511 C11.950000000000728,66.8751 11.69000000000051,66.9871 11.3799999999992,66.9871 C11.05999999999949,66.9871 10.799999999999272,66.8751 10.569999999999709,66.6511" />
<path d="M10.569999999999709,71.6511 C10.350000000000364,71.4272 10.239999999999782,71.159 10.239999999999782,70.8465 C10.239999999999782,70.534 10.350000000000364,70.2657 10.569999999999709,70.0418 C10.799999999999272,69.8178 11.05999999999949,69.7058 11.3799999999992,69.7058 C11.69000000000051,69.7058 11.950000000000728,69.8178 12.170000000000073,70.0418 C12.389999999999418,70.2657 12.5,70.534 12.5,70.8465 C12.5,71.159 12.389999999999418,71.4272 12.170000000000073,71.6511 C11.950000000000728,71.8751 11.69000000000051,71.9871 11.3799999999992,71.9871 C11.05999999999949,71.9871 10.799999999999272,71.8751 10.569999999999709,71.6511" />
<path d="M10.569999999999709,81.6511 C10.350000000000364,81.4272 10.239999999999782,81.159 10.239999999999782,80.8465 C10.239999999999782,80.534 10.350000000000364,80.2657 10.569999999999709,80.0418 C10.799999999999272,79.8178 11.05999999999949,79.7058 11.3799999999992,79.7058 C11.69000000000051,79.7058 11.950000000000728,79.8178 12.170000000000073,80.0418 C12.389999999999418,80.2657 12.5,80.534 12.5,80.8465 C12.5,81.159 12.389999999999418,81.4272 12.170000000000073,81.6511 C11.950000000000728,81.8751 11.69000000000051,81.9871 11.3799999999992,81.9871 C11.05999999999949,81.9871 10.799999999999272,81.8751 10.569999999999709,81.6511" />
<path d="M10.920000000000073,71.6511 C10.69000000000051,71.4272 10.579999999999927,71.159 10.579999999999927,70.8465 C10.579999999999927,70.534 10.69000000000051,70.2657 10.920000000000073,70.0418 C11.139999999999418,69.8178 11.409999999999854,69.7058 11.719999999999345,69.7058 C12.030000000000655,69.7058 12.299999999999272,69.8178 12.520000000000437,70.0418 C12.739999999999782,70.2657 12.850000000000364,70.534 12.850000000000364,70.8465 C12.850000000000364,71.159 12.739999999999782,71.4272 12.520000000000437,71.6511 C12.299999999999272,71.8751 12.030000000000655,71.9871 11.719999999999345,71.9871 C11.409999999999854,71.9871 11.139999999999418,71.8751 10.920000000000073,71.6511" />
<path d="M10.920000000000073,76.6511 C10.69000000000051,76.4272 10.579999999999927,76.159 10.579999999999927,75.8465 C10.579999999999927,75.534 10.69000000000051,75.2657 10.920000000000073,75.0418 C11.139999999999418,74.8178 11.409999999999854,74.7058 11.719999999999345,74.7058 C12.030000000000655,74.7058 12.299999999999272,74.8178 12.520000000000437,75.0418 C12.739999999999782,75.2657 12.850000000000364,75.534 12.850000000000364,75.8465 C12.850000000000364,76.159 12.739999999999782,76.4272 12.520000000000437,76.6511 C12.299999999999272,76.8751 12.030000000000655,76.9871 11.719999999999345,76.9871 C11.409999999999854,76.9871 11.139999999999418,76.8751 10.920000000000073,76.6511" />
<path d="M10.920000000000073,81.6511 C10.69000000000051,81.4272 10.579999999999927,81.159 10.579999999999927,80.8465 C10.579999999999927,80.534 10.69000000000051,80.2657 10.920000000000073,80.0418 C11.139999999999418,79.8178 11.409999999999854,79.7058 11.719999999999345,79.7058 C12.030000000000655,79.7058 12.299999999999272,79.8178 12.520000000000437,80.0418 C12.739999999999782,80.2657 12.850000000000364,80.534 12.850000000000364,80.8465 C12.850000000000364,81.159 12.739999999999782,81.4272 12.520000000000437,81.6511 C12.299999999999272,81.8751 12.030000000000655,81.9871 11.719999999999345,81.9871 C11.409999999999854,81.9871 11.139999999999418,81.8751 10.920000000000073,81.6511" />
<polyline points="0.0,63.3465 255.0,63.3465" fill="none" stroke="#000000" stroke-width="0.40" />
<polyline points="0.0,68.3465 255.0,68.3465" fill="none" stroke="#000000" stroke-width="0.40" />
<polyline points="0.0,73.3465 255.0,73.3465" fill="none" stroke="#000000" stroke-width="0.40" />
<polyline points="0.0,78.3465 255.0,78.3465" fill="none" stroke="#000000" stroke-width="0.40" />
<polyline points="0.0,83.3465 255.0,83.3465" fill="none" stroke="#000000" stroke-width="0.40" />
<polyline points="0.0,115.846 255.0,115.846" fill="none" stroke="#000000" stroke-width="0.40" />
<polyline points="0.0,120.846 255.0,120.846" fill="none" stroke="#000000" stroke-width="0.40" />
<polyline points="0.0,125.846 255.0,125.846" fill="none" stroke="#000000" stroke-width="0.40" />
<polyline points="0.0,130.846 255.0,130.846" fill="none" stroke="#000000" stroke-width="0.40" />
<polyline points="0.0,135.846 255.0,135.846" fill="none" stroke="#000000" stroke-width="0.40" />
<polyline points="0.0,168.346 255.0,168.346" fill="none" stroke="#000000" stroke-width="0.40" />
<polyline points="0.0,173.346 255.0,173.346" fill="none" stroke="#000000" stroke-width="0.40" />
<polyline points="0.0,178.346 255.0,178.346" fill="none" stroke="#000000" stroke-width="0.40" />
<polyline points="0.0,183.346 255.0,183.346" fill="none" stroke="#000000" stroke-width="0.40" />
<polyline points="0.0,188.346 255.0,188.346" fill="none" stroke="#000000" stroke-width="0.40" />
<polyline points="0.0,220.846 255.0,220.846" fill="none" stroke="#000000" stroke-width="0.40" />
<polyline points="0.0,225.846 255.0,225.846" fill="none" stroke="#000000" stroke-width="0.40" />
<polyline points="0.0,230.846 255.0,230.846" fill="none" stroke="#000000" stroke-width="0.40" />
<polyline points="0.0,235.846 255.0,235.846" fill="none" stroke="#000000" stroke-width="0.40" />
<polyline points="0.0,240.846 255.0,240.846" fill="none" stroke="#000000" stroke-width="0.40" />
<polyline points="224.39999999999964,220.846 224.39999999999964,240.846" fill="" stroke="#000000" stroke-width="0.80" />
<polyline points="224.39999999999964,168.346 224.39999999999964,188.346" fill="" stroke="#000000" stroke-width="0.80" />
<polyline points="224.39999999999964,115.846 224.39999999999964,135.846" fill="" stroke="#000000" stroke-width="0.80" />
<polyline points="224.39999999999964,63.3465 224.39999999999964,83.3465" fill="" stroke="#000000" stroke-width="0.80" />
<polyline points="233.4400000000005,234.286 233.4400000000005,247.096" fill="" stroke="#000000" stroke-width="0.65" />
<polyline points="239.54999999999927,192.578 239.54999999999927,157.096" fill="" stroke="#000000" stroke-width="0.65" />
<polyline points="233.26000000000022,94.1305 233.26000000000022,125.846" fill="" stroke="#000000" stroke-width="0.65" />
<polyline points="233.26000000000022,71.6305 233.26000000000022,87.0965" fill="" stroke="#000000" stroke-width="0.65" />
<polyline points="179.34000000000015,224.286 179.34000000000015,239.596" fill="" stroke="#000000" stroke-width="0.65" />
<polyline points="164.34000000000015,224.286 164.34000000000015,239.596" fill="" stroke="#000000" stroke-width="0.65" />
<polyline points="170.27000000000044,194.907 170.27000000000044,158.971" fill="" stroke="#000000" stroke-width="0.65" />
<polyline points="164.34000000000015,104.286 164.34000000000015,125.846" fill="" stroke="#000000" stroke-width="0.65" />
<polyline points="170.27000000000044,79.9074 170.27000000000044,63.3465" fill="" stroke="#000000" stroke-width="0.65" />
<polyline points="155.28000000000065,194.907 155.28000000000065,158.346" fill="" stroke="#000000" stroke-width="0.65" />
<polyline points="140.28000000000065,194.907 140.28000000000065,158.346" fill="" stroke="#000000" stroke-width="0.65" />
<polyline points="119.36000000000058,216.786 119.36000000000058,230.846" fill="" stroke="#000000" stroke-width="0.65" />
<polyline points="104.36000000000058,216.786 104.36000000000058,230.846" fill="" stroke="#000000" stroke-width="0.65" />
<polyline points="56.3799999999992,224.286 56.3799999999992,240.846" fill="" stroke="#000000" stroke-width="0.65" />
<polyline points="62.30999999999949,192.407 62.30999999999949,160.846" fill="" stroke="#000000" stroke-width="0.65" />
<polyline points="47.30999999999949,192.407 47.30999999999949,159.596" fill="" stroke="#000000" stroke-width="0.65" />
<polyline points="32.31999999999971,227.407 32.31999999999971,214.596" fill="" stroke="#000000" stroke-width="0.65" />
<polyline points="32.31999999999971,192.407 32.31999999999971,159.596" fill="" stroke="#000000" stroke-width="0.65" />
<polyline points="8.329999999999927,239.907 8.329999999999927,219.596" fill="" stroke="#000000" stroke-width="0.65" />
<polyline points="8.329999999999927,192.407 8.329999999999927,159.596" fill="" stroke="#000000" stroke-width="0.65" />
<polyline points="2.209999999999127,94.1305 2.209999999999127,125.846" fill="" stroke="#000000" stroke-width="0.65" />
<polyline points="8.510000000000218,82.5785 8.510000000000218,55.8465" fill="" stroke="#000000" stroke-width="0.65" />
<polyline points="231.4300000000003,193.346 241.3700000000008,193.346" fill="" stroke="#000000" stroke-width="0.80" />
<polyline points="231.4300000000003,95.8465 241.3700000000008,95.8465" fill="" stroke="#000000" stroke-width="0.80" />
<polyline points="231.4300000000003,100.846 241.3700000000008,100.846" fill="" stroke="#000000" stroke-width="0.80" />
<polyline points="231.4300000000003,105.846 241.3700000000008,105.846" fill="" stroke="#000000" stroke-width="0.80" />
<polyline points="231.4300000000003,110.846 241.3700000000008,110.846" fill="" stroke="#000000" stroke-width="0.80" />
<polyline points="162.52000000000044,193.346 172.10000000000036,193.346" fill="" stroke="#000000" stroke-width="0.80" />
<polyline points="162.52000000000044,105.846 172.10000000000036,105.846" fill="" stroke="#000000" stroke-width="0.80" />
<polyline points="162.52000000000044,110.846 172.10000000000036,110.846" fill="" stroke="#000000" stroke-width="0.80" />
<polyline points="147.52000000000044,193.346 157.10000000000036,193.346" fill="" stroke="#000000" stroke-width="0.80" />
<polyline points="132.53000000000065,193.346 142.11000000000058,193.346" fill="" stroke="#000000" stroke-width="0.80" />
<polyline points="117.53000000000065,215.846 127.11000000000058,215.846" fill="" stroke="#000000" stroke-width="0.80" />
<polyline points="102.53000000000065,215.846 112.1200000000008,215.846" fill="" stroke="#000000" stroke-width="0.80" />
<polyline points="54.54999999999927,193.346 64.1299999999992,193.346" fill="" stroke="#000000" stroke-width="0.80" />
<polyline points="39.54999999999927,193.346 49.13999999999942,193.346" fill="" stroke="#000000" stroke-width="0.80" />
<polyline points="24.55999999999949,193.346 34.13999999999942,193.346" fill="" stroke="#000000" stroke-width="0.80" />
<polyline points="0.569999999999709,193.346 10.149999999999636,193.346" fill="" stroke="#000000" stroke-width="0.80" />
<polyline points="0.3899999999994179,95.8465 10.329999999999927,95.8465" fill="" stroke="#000000" stroke-width="0.80" />
<polyline points="0.3899999999994179,100.846 10.329999999999927,100.846" fill="" stroke="#000000" stroke-width="0.80" />
<polyline points="0.3899999999994179,105.846 10.329999999999927,105.846" fill="" stroke="#000000" stroke-width="0.80" />
<polyline points="0.3899999999994179,110.846 10.329999999999927,110.846" fill="" stroke="#000000" stroke-width="0.80" />
</svg>
