<?xml version="1.0" encoding="UTF-8" standalone="yes"?>
<svg width="256.0px" height="256.0px" xmlns="http://www.w3.org/2000/svg" xmlns:xlink="http://www.w3.org/1999/xlink" version="1.2" baseProfile="tiny">
<path d="M89.46000000000004,28.01800000000003 L89.46000000000004,29.565000000000055 C89.46000000000004,30.116999999999962 89.48999999999978,30.55499999999995 89.53999999999996,30.878000000000043 C89.97000000000025,30.513000000000034 90.27999999999975,30.241999999999962 90.46000000000004,30.065000000000055 C90.67000000000007,29.85699999999997 90.88000000000011,29.567999999999984 91.09000000000015,29.19799999999998 C91.30000000000018,28.827999999999975 91.39999999999964,28.461000000000013 91.39999999999964,28.096000000000004 C91.39999999999964,27.73199999999997 91.31999999999971,27.418999999999983 91.17000000000007,27.158999999999992 C91.01000000000022,26.899 90.80000000000018,26.76800000000003 90.53999999999996,26.76800000000003 C90.22999999999956,26.76800000000003 89.97000000000025,26.888000000000034 89.76000000000022,27.128000000000043 C89.5600000000004,27.388000000000034 89.46000000000004,27.684999999999945 89.46000000000004,28.01800000000003 M88.64000000000033,31.596000000000004 L88.39000000000033,19.706000000000017 C88.56999999999971,19.601999999999975 88.76000000000022,19.549999999999955 88.9399999999996,19.549999999999955 C89.11999999999989,19.549999999999955 89.30000000000018,19.601999999999975 89.47999999999956,19.706000000000017 L89.31999999999971,26.596000000000004 C89.85000000000036,26.138000000000034 90.47000000000025,25.908999999999992 91.17000000000007,25.908999999999992 C91.67000000000007,25.908999999999992 92.09000000000015,26.116999999999962 92.42000000000007,26.533999999999992 C92.76000000000022,26.951000000000022 92.93000000000029,27.42999999999995 92.93000000000029,27.971000000000004 C92.93000000000029,28.30499999999995 92.81999999999971,28.663999999999987 92.60000000000036,29.049999999999955 C92.39999999999964,29.39300000000003 92.18000000000029,29.663999999999987 91.94999999999982,29.861999999999966 C91.8100000000004,29.966000000000008 91.47999999999956,30.226999999999975 90.94999999999982,30.64300000000003 C90.78999999999996,30.758000000000038 90.60999999999967,30.89300000000003 90.39000000000033,31.049999999999955 C90.18000000000029,31.206000000000017 90.05000000000018,31.30499999999995 89.98999999999978,31.346000000000004 C89.89999999999964,31.399 89.8100000000004,31.503000000000043 89.72999999999956,31.658999999999992 C89.64999999999964,31.793999999999983 89.53999999999996,31.903999999999996 89.42000000000007,31.986999999999966 C89.32999999999993,32.07000000000005 89.22999999999956,32.111999999999966 89.10000000000036,32.111999999999966 C88.97000000000025,32.111999999999966 88.85999999999967,32.065000000000055 88.77999999999975,31.971000000000004 C88.68000000000029,31.878000000000043 88.64000000000033,31.753000000000043 88.64000000000033,31.596000000000004" />
<path d="M41.5600000000004,38.01800000000003 L41.5600000000004,39.565000000000055 C41.5600000000004,40.11699999999996 41.57999999999993,40.55499999999995 41.64000000000033,40.87800000000004 C42.0600000000004,40.513000000000034 42.36999999999989,40.24199999999996 42.5600000000004,40.065000000000055 C42.77000000000044,39.85699999999997 42.97999999999956,39.567999999999984 43.18000000000029,39.19799999999998 C43.39000000000033,38.827999999999975 43.5,38.46100000000001 43.5,38.096000000000004 C43.5,37.73199999999997 43.42000000000007,37.41899999999998 43.26000000000022,37.15899999999999 C43.10999999999967,36.899 42.899999999999636,36.76800000000003 42.64000000000033,36.76800000000003 C42.31999999999971,36.76800000000003 42.0600000000004,36.888000000000034 41.85999999999967,37.12800000000004 C41.659999999999854,37.388000000000034 41.5600000000004,37.684999999999945 41.5600000000004,38.01800000000003 M40.72999999999956,41.596000000000004 L40.47999999999956,29.706000000000017 C40.67000000000007,29.601999999999975 40.850000000000364,29.549999999999955 41.039999999999964,29.549999999999955 C41.220000000000255,29.549999999999955 41.399999999999636,29.601999999999975 41.56999999999971,29.706000000000017 L41.42000000000007,36.596000000000004 C41.94999999999982,36.138000000000034 42.5600000000004,35.90899999999999 43.26000000000022,35.90899999999999 C43.76000000000022,35.90899999999999 44.18000000000029,36.11699999999996 44.52000000000044,36.53399999999999 C44.85999999999967,36.95100000000002 45.029999999999745,37.42999999999995 45.029999999999745,37.971000000000004 C45.029999999999745,38.30499999999995 44.92000000000007,38.66399999999999 44.69999999999982,39.049999999999955 C44.48999999999978,39.39300000000003 44.27000000000044,39.66399999999999 44.039999999999964,39.861999999999966 C43.909999999999854,39.96600000000001 43.56999999999971,40.226999999999975 43.039999999999964,40.64300000000003 C42.89000000000033,40.75800000000004 42.69999999999982,40.89300000000003 42.48999999999978,41.049999999999955 C42.27000000000044,41.20600000000002 42.14000000000033,41.30499999999995 42.090000000000146,41.346000000000004 C42.0,41.399 41.909999999999854,41.50300000000004 41.81999999999971,41.65899999999999 C41.73999999999978,41.79399999999998 41.64000000000033,41.903999999999996 41.51000000000022,41.986999999999966 C41.43000000000029,42.07000000000005 41.31999999999971,42.111999999999966 41.1899999999996,42.111999999999966 C41.0600000000004,42.111999999999966 40.94999999999982,42.065000000000055 40.86999999999989,41.971000000000004 C40.779999999999745,41.87800000000004 40.72999999999956,41.75300000000004 40.72999999999956,41.596000000000004" />
<path d="M195.44999999999982,71.096 C196.07999999999993,71.096 196.60999999999967,71.25800000000004 197.05000000000018,71.58100000000002 C197.4399999999996,71.93499999999995 197.64000000000033,72.37800000000004 197.64000000000033,72.90899999999999 C197.64000000000033,73.80499999999995 197.1800000000003,74.64300000000003 196.26000000000022,75.42499999999995 C195.32999999999993,76.20600000000002 194.3199999999997,76.596 193.25,76.596 C192.6199999999999,76.596 192.10000000000036,76.43499999999995 191.67000000000007,76.11199999999997 C191.26000000000022,75.75800000000004 191.0600000000004,75.31500000000005 191.0600000000004,74.78399999999999 C191.0600000000004,73.88800000000003 191.52999999999975,73.04999999999995 192.47000000000025,72.26800000000003 C193.3800000000001,71.48699999999997 194.3800000000001,71.096 195.44999999999982,71.096" />
<path d="M177.09000000000015,63.12800000000004 L179.48999999999978,61.174999999999955 C179.55000000000018,61.12199999999996 179.60999999999967,61.096000000000004 179.65999999999985,61.096000000000004 C179.73999999999978,61.096000000000004 179.80000000000018,61.12199999999996 179.8699999999999,61.174999999999955 L180.27000000000044,61.486999999999966 C180.34000000000015,61.549999999999955 180.3699999999999,61.62800000000004 180.3699999999999,61.721000000000004 C180.3699999999999,61.78399999999999 180.34000000000015,61.861999999999966 180.27000000000044,61.95600000000002 L177.94999999999982,63.846000000000004 L180.27000000000044,65.73699999999997 C180.34000000000015,65.80999999999995 180.3699999999999,65.89099999999996 180.3699999999999,65.97900000000004 C180.3699999999999,66.06799999999998 180.34000000000015,66.14300000000003 180.27000000000044,66.20600000000002 L179.8699999999999,66.51800000000003 C179.80000000000018,66.57000000000005 179.73999999999978,66.596 179.65999999999985,66.596 C179.60999999999967,66.596 179.55000000000018,66.57000000000005 179.48999999999978,66.51800000000003 L177.09000000000015,64.56500000000005 L174.65999999999985,66.51800000000003 C174.60000000000036,66.57000000000005 174.53999999999996,66.596 174.48999999999978,66.596 C174.4300000000003,66.596 174.3699999999999,66.57000000000005 174.30000000000018,66.51800000000003 L173.8800000000001,66.20600000000002 C173.8199999999997,66.14300000000003 173.78999999999996,66.06500000000005 173.78999999999996,65.971 C173.78999999999996,65.90899999999999 173.8199999999997,65.83100000000002 173.8800000000001,65.73699999999997 L176.21000000000004,63.846000000000004 L173.8800000000001,61.95600000000002 C173.8199999999997,61.88300000000004 173.78999999999996,61.80200000000002 173.78999999999996,61.714000000000055 C173.78999999999996,61.625 173.8199999999997,61.549999999999955 173.8800000000001,61.486999999999966 L174.30000000000018,61.174999999999955 C174.3699999999999,61.12199999999996 174.4300000000003,61.096000000000004 174.48999999999978,61.096000000000004 C174.53999999999996,61.096000000000004 174.60000000000036,61.12199999999996 174.65999999999985,61.174999999999955 L177.09000000000015,63.12800000000004" />
<path d="M178.1800000000003,26.096000000000004 C178.80000000000018,26.096000000000004 179.34000000000015,26.258000000000038 179.77000000000044,26.581000000000017 C180.17000000000007,26.934999999999945 180.3699999999999,27.378000000000043 180.3699999999999,27.908999999999992 C180.3699999999999,28.80499999999995 179.90999999999985,29.64300000000003 178.98999999999978,30.424999999999955 C178.05000000000018,31.206000000000017 177.05000000000018,31.596000000000004 175.97999999999956,31.596000000000004 C175.35000000000036,31.596000000000004 174.82999999999993,31.434999999999945 174.39999999999964,31.111999999999966 C173.98999999999978,30.758000000000038 173.78999999999996,30.315000000000055 173.78999999999996,29.783999999999992 C173.78999999999996,28.888000000000034 174.26000000000022,28.049999999999955 175.19999999999982,27.26800000000003 C176.10999999999967,26.486999999999966 177.10999999999967,26.096000000000004 178.1800000000003,26.096000000000004" />
<path d="M160.90999999999985,36.096000000000004 C161.52999999999975,36.096000000000004 162.0600000000004,36.25800000000004 162.5,36.58100000000002 C162.89999999999964,36.934999999999945 163.09000000000015,37.37800000000004 163.09000000000015,37.90899999999999 C163.09000000000015,38.80499999999995 162.64000000000033,39.64300000000003 161.72000000000025,40.424999999999955 C160.77999999999975,41.20600000000002 159.77999999999975,41.596000000000004 158.69999999999982,41.596000000000004 C158.07999999999993,41.596000000000004 157.55000000000018,41.434999999999945 157.1300000000001,41.111999999999966 C156.72000000000025,40.75800000000004 156.52000000000044,40.315000000000055 156.52000000000044,39.78399999999999 C156.52000000000044,38.888000000000034 156.98999999999978,38.049999999999955 157.92000000000007,37.26800000000003 C158.84000000000015,36.486999999999966 159.82999999999993,36.096000000000004 160.90999999999985,36.096000000000004" />
<path d="M142.53999999999996,63.12800000000004 L144.94999999999982,61.174999999999955 C145.01000000000022,61.12199999999996 145.0699999999997,61.096000000000004 145.1199999999999,61.096000000000004 C145.1899999999996,61.096000000000004 145.26000000000022,61.12199999999996 145.3199999999997,61.174999999999955 L145.72999999999956,61.486999999999966 C145.78999999999996,61.549999999999955 145.8199999999997,61.62800000000004 145.8199999999997,61.721000000000004 C145.8199999999997,61.78399999999999 145.78999999999996,61.861999999999966 145.72999999999956,61.95600000000002 L143.39999999999964,63.846000000000004 L145.72999999999956,65.73699999999997 C145.78999999999996,65.80999999999995 145.8199999999997,65.89099999999996 145.8199999999997,65.97900000000004 C145.8199999999997,66.06799999999998 145.78999999999996,66.14300000000003 145.72999999999956,66.20600000000002 L145.3199999999997,66.51800000000003 C145.26000000000022,66.57000000000005 145.1899999999996,66.596 145.1199999999999,66.596 C145.0699999999997,66.596 145.01000000000022,66.57000000000005 144.94999999999982,66.51800000000003 L142.53999999999996,64.56500000000005 L140.1199999999999,66.51800000000003 C140.0600000000004,66.57000000000005 140.0,66.596 139.94999999999982,66.596 C139.89000000000033,66.596 139.8199999999997,66.57000000000005 139.76000000000022,66.51800000000003 L139.34000000000015,66.20600000000002 C139.27999999999975,66.14300000000003 139.23999999999978,66.06500000000005 139.23999999999978,65.971 C139.23999999999978,65.90899999999999 139.27999999999975,65.83100000000002 139.34000000000015,65.73699999999997 L141.67000000000007,63.846000000000004 L139.34000000000015,61.95600000000002 C139.27999999999975,61.88300000000004 139.23999999999978,61.80200000000002 139.23999999999978,61.714000000000055 C139.23999999999978,61.625 139.27999999999975,61.549999999999955 139.34000000000015,61.486999999999966 L139.76000000000022,61.174999999999955 C139.8199999999997,61.12199999999996 139.89000000000033,61.096000000000004 139.94999999999982,61.096000000000004 C140.0,61.096000000000004 140.0600000000004,61.12199999999996 140.1199999999999,61.174999999999955 L142.53999999999996,63.12800000000004" />
<path d="M143.64000000000033,71.096 C144.26000000000022,71.096 144.78999999999996,71.25800000000004 145.22999999999956,71.58100000000002 C145.6199999999999,71.93499999999995 145.8199999999997,72.37800000000004 145.8199999999997,72.90899999999999 C145.8199999999997,73.80499999999995 145.35999999999967,74.64300000000003 144.44999999999982,75.42499999999995 C143.51000000000022,76.20600000000002 142.5,76.596 141.4300000000003,76.596 C140.8100000000004,76.596 140.27999999999975,76.43499999999995 139.85000000000036,76.11199999999997 C139.44999999999982,75.75800000000004 139.23999999999978,75.31500000000005 139.23999999999978,74.78399999999999 C139.23999999999978,73.88800000000003 139.71000000000004,73.04999999999995 140.64999999999964,72.26800000000003 C141.5699999999997,71.48699999999997 142.5600000000004,71.096 143.64000000000033,71.096" />
<path d="M119.96000000000004,63.12800000000004 L122.35999999999967,61.174999999999955 C122.43000000000029,61.12199999999996 122.47999999999956,61.096000000000004 122.53999999999996,61.096000000000004 C122.60999999999967,61.096000000000004 122.68000000000029,61.12199999999996 122.73999999999978,61.174999999999955 L123.14000000000033,61.486999999999966 C123.21000000000004,61.549999999999955 123.23999999999978,61.62800000000004 123.23999999999978,61.721000000000004 C123.23999999999978,61.78399999999999 123.21000000000004,61.861999999999966 123.14000000000033,61.95600000000002 L120.81999999999971,63.846000000000004 L123.14000000000033,65.73699999999997 C123.21000000000004,65.80999999999995 123.23999999999978,65.89099999999996 123.23999999999978,65.97900000000004 C123.23999999999978,66.06799999999998 123.21000000000004,66.14300000000003 123.14000000000033,66.20600000000002 L122.73999999999978,66.51800000000003 C122.68000000000029,66.57000000000005 122.60999999999967,66.596 122.53999999999996,66.596 C122.47999999999956,66.596 122.43000000000029,66.57000000000005 122.35999999999967,66.51800000000003 L119.96000000000004,64.56500000000005 L117.53999999999996,66.51800000000003 C117.47000000000025,66.57000000000005 117.42000000000007,66.596 117.35999999999967,66.596 C117.30000000000018,66.596 117.23999999999978,66.57000000000005 117.18000000000029,66.51800000000003 L116.75,66.20600000000002 C116.6899999999996,66.14300000000003 116.65999999999985,66.06500000000005 116.65999999999985,65.971 C116.65999999999985,65.90899999999999 116.6899999999996,65.83100000000002 116.75,65.73699999999997 L119.07999999999993,63.846000000000004 L116.75,61.95600000000002 C116.6899999999996,61.88300000000004 116.65999999999985,61.80200000000002 116.65999999999985,61.714000000000055 C116.65999999999985,61.625 116.6899999999996,61.549999999999955 116.75,61.486999999999966 L117.18000000000029,61.174999999999955 C117.23999999999978,61.12199999999996 117.30000000000018,61.096000000000004 117.35999999999967,61.096000000000004 C117.42000000000007,61.096000000000004 117.47000000000025,61.12199999999996 117.53999999999996,61.174999999999955 L119.96000000000004,63.12800000000004" />
<path d="M121.05000000000018,81.096 C121.68000000000029,81.096 122.21000000000004,81.25800000000004 122.64000000000033,81.58100000000002 C123.03999999999996,81.93499999999995 123.23999999999978,82.37800000000004 123.23999999999978,82.90899999999999 C123.23999999999978,83.80499999999995 122.77999999999975,84.64300000000003 121.85999999999967,85.42499999999995 C120.93000000000029,86.20600000000002 119.92000000000007,86.596 118.85000000000036,86.596 C118.22000000000025,86.596 117.69999999999982,86.43499999999995 117.27000000000044,86.11199999999997 C116.85999999999967,85.75800000000004 116.65999999999985,85.31500000000005 116.65999999999985,84.78399999999999 C116.65999999999985,83.88800000000003 117.13000000000011,83.04999999999995 118.06999999999971,82.26800000000003 C118.97999999999956,81.48699999999997 119.97999999999956,81.096 121.05000000000018,81.096" />
<path d="M121.05000000000018,26.096000000000004 C121.68000000000029,26.096000000000004 122.21000000000004,26.258000000000038 122.64000000000033,26.581000000000017 C123.03999999999996,26.934999999999945 123.23999999999978,27.378000000000043 123.23999999999978,27.908999999999992 C123.23999999999978,28.80499999999995 122.77999999999975,29.64300000000003 121.85999999999967,30.424999999999955 C120.93000000000029,31.206000000000017 119.92000000000007,31.596000000000004 118.85000000000036,31.596000000000004 C118.22000000000025,31.596000000000004 117.69999999999982,31.434999999999945 117.27000000000044,31.111999999999966 C116.85999999999967,30.758000000000038 116.65999999999985,30.315000000000055 116.65999999999985,29.783999999999992 C116.65999999999985,28.888000000000034 117.13000000000011,28.049999999999955 118.06999999999971,27.26800000000003 C118.97999999999956,26.486999999999966 119.97999999999956,26.096000000000004 121.05000000000018,26.096000000000004" />
<path d="M97.36999999999989,63.12800000000004 L99.77999999999975,61.174999999999955 C99.84000000000015,61.12199999999996 99.89999999999964,61.096000000000004 99.94999999999982,61.096000000000004 C100.02000000000044,61.096000000000004 100.09000000000015,61.12199999999996 100.14999999999964,61.174999999999955 L100.5600000000004,61.486999999999966 C100.61999999999989,61.549999999999955 100.64999999999964,61.62800000000004 100.64999999999964,61.721000000000004 C100.64999999999964,61.78399999999999 100.61999999999989,61.861999999999966 100.5600000000004,61.95600000000002 L98.22999999999956,63.846000000000004 L100.5600000000004,65.73699999999997 C100.61999999999989,65.80999999999995 100.64999999999964,65.89099999999996 100.64999999999964,65.97900000000004 C100.64999999999964,66.06799999999998 100.61999999999989,66.14300000000003 100.5600000000004,66.20600000000002 L100.14999999999964,66.51800000000003 C100.09000000000015,66.57000000000005 100.02000000000044,66.596 99.94999999999982,66.596 C99.89999999999964,66.596 99.84000000000015,66.57000000000005 99.77999999999975,66.51800000000003 L97.36999999999989,64.56500000000005 L94.94999999999982,66.51800000000003 C94.89000000000033,66.57000000000005 94.82999999999993,66.596 94.77999999999975,66.596 C94.72000000000025,66.596 94.64999999999964,66.57000000000005 94.59000000000015,66.51800000000003 L94.17000000000007,66.20600000000002 C94.10999999999967,66.14300000000003 94.07999999999993,66.06500000000005 94.07999999999993,65.971 C94.07999999999993,65.90899999999999 94.10999999999967,65.83100000000002 94.17000000000007,65.73699999999997 L96.5,63.846000000000004 L94.17000000000007,61.95600000000002 C94.10999999999967,61.88300000000004 94.07999999999993,61.80200000000002 94.07999999999993,61.714000000000055 C94.07999999999993,61.625 94.10999999999967,61.549999999999955 94.17000000000007,61.486999999999966 L94.59000000000015,61.174999999999955 C94.64999999999964,61.12199999999996 94.72000000000025,61.096000000000004 94.77999999999975,61.096000000000004 C94.82999999999993,61.096000000000004 94.89000000000033,61.12199999999996 94.94999999999982,61.174999999999955 L97.36999999999989,63.12800000000004" />
<path d="M98.47000000000025,71.096 C99.09000000000015,71.096 99.61999999999989,71.25800000000004 100.0600000000004,71.58100000000002 C100.46000000000004,71.93499999999995 100.64999999999964,72.37800000000004 100.64999999999964,72.90899999999999 C100.64999999999964,73.80499999999995 100.19999999999982,74.64300000000003 99.27999999999975,75.42499999999995 C98.34000000000015,76.20600000000002 97.34000000000015,76.596 96.26000000000022,76.596 C95.64000000000033,76.596 95.10999999999967,76.43499999999995 94.6899999999996,76.11199999999997 C94.27999999999975,75.75800000000004 94.07999999999993,75.31500000000005 94.07999999999993,74.78399999999999 C94.07999999999993,73.88800000000003 94.53999999999996,73.04999999999995 95.47999999999956,72.26800000000003 C96.39999999999964,71.48699999999997 97.39000000000033,71.096 98.47000000000025,71.096" />
<path d="M98.47000000000025,81.096 C99.09000000000015,81.096 99.61999999999989,81.25800000000004 100.0600000000004,81.58100000000002 C100.46000000000004,81.93499999999995 100.64999999999964,82.37800000000004 100.64999999999964,82.90899999999999 C100.64999999999964,83.80499999999995 100.19999999999982,84.64300000000003 99.27999999999975,85.42499999999995 C98.34000000000015,86.20600000000002 97.34000000000015,86.596 96.26000000000022,86.596 C95.64000000000033,86.596 95.10999999999967,86.43499999999995 94.6899999999996,86.11199999999997 C94.27999999999975,85.75800000000004 94.07999999999993,85.31500000000005 94.07999999999993,84.78399999999999 C94.07999999999993,83.88800000000003 94.53999999999996,83.04999999999995 95.47999999999956,82.26800000000003 C96.39999999999964,81.48699999999997 97.39000000000033,81.096 98.47000000000025,81.096" />
<path d="M98.47000000000025,26.096000000000004 C99.09000000000015,26.096000000000004 99.61999999999989,26.258000000000038 100.0600000000004,26.581000000000017 C100.46000000000004,26.934999999999945 100.64999999999964,27.378000000000043 100.64999999999964,27.908999999999992 C100.64999999999964,28.80499999999995 100.19999999999982,29.64300000000003 99.27999999999975,30.424999999999955 C98.34000000000015,31.206000000000017 97.34000000000015,31.596000000000004 96.26000000000022,31.596000000000004 C95.64000000000033,31.596000000000004 95.10999999999967,31.434999999999945 94.6899999999996,31.111999999999966 C94.27999999999975,30.758000000000038 94.07999999999993,30.315000000000055 94.07999999999993,29.783999999999992 C94.07999999999993,28.888000000000034 94.53999999999996,28.049999999999955 95.47999999999956,27.26800000000003 C96.39999999999964,26.486999999999966 97.39000000000033,26.096000000000004 98.47000000000025,26.096000000000004" />
<path d="M74.78999999999996,63.12800000000004 L77.1899999999996,61.174999999999955 C77.26000000000022,61.12199999999996 77.3100000000004,61.096000000000004 77.36999999999989,61.096000000000004 C77.4399999999996,61.096000000000004 77.51000000000022,61.12199999999996 77.56999999999971,61.174999999999955 L77.97999999999956,61.486999999999966 C78.03999999999996,61.549999999999955 78.06999999999971,61.62800000000004 78.06999999999971,61.721000000000004 C78.06999999999971,61.78399999999999 78.03999999999996,61.861999999999966 77.97999999999956,61.95600000000002 L75.64999999999964,63.846000000000004 L77.97999999999956,65.73699999999997 C78.03999999999996,65.80999999999995 78.06999999999971,65.89099999999996 78.06999999999971,65.97900000000004 C78.06999999999971,66.06799999999998 78.03999999999996,66.14300000000003 77.97999999999956,66.20600000000002 L77.56999999999971,66.51800000000003 C77.51000000000022,66.57000000000005 77.4399999999996,66.596 77.36999999999989,66.596 C77.3100000000004,66.596 77.26000000000022,66.57000000000005 77.1899999999996,66.51800000000003 L74.78999999999996,64.56500000000005 L72.36999999999989,66.51800000000003 C72.30000000000018,66.57000000000005 72.25,66.596 72.1899999999996,66.596 C72.13000000000011,66.596 72.06999999999971,66.57000000000005 72.01000000000022,66.51800000000003 L71.59000000000015,66.20600000000002 C71.52000000000044,66.14300000000003 71.48999999999978,66.06500000000005 71.48999999999978,65.971 C71.48999999999978,65.90899999999999 71.52000000000044,65.83100000000002 71.59000000000015,65.73699999999997 L73.90999999999985,63.846000000000004 L71.59000000000015,61.95600000000002 C71.52000000000044,61.88300000000004 71.48999999999978,61.80200000000002 71.48999999999978,61.714000000000055 C71.48999999999978,61.625 71.52000000000044,61.549999999999955 71.59000000000015,61.486999999999966 L72.01000000000022,61.174999999999955 C72.06999999999971,61.12199999999996 72.13000000000011,61.096000000000004 72.1899999999996,61.096000000000004 C72.25,61.096000000000004 72.30000000000018,61.12199999999996 72.36999999999989,61.174999999999955 L74.78999999999996,63.12800000000004" />
<path d="M75.88000000000011,23.596000000000004 C76.51000000000022,23.596000000000004 77.03999999999996,23.758000000000038 77.47999999999956,24.081000000000017 C77.86999999999989,24.434999999999945 78.06999999999971,24.878000000000043 78.06999999999971,25.408999999999992 C78.06999999999971,26.30499999999995 77.60999999999967,27.14300000000003 76.6899999999996,27.924999999999955 C75.76000000000022,28.706000000000017 74.75,29.096000000000004 73.68000000000029,29.096000000000004 C73.05000000000018,29.096000000000004 72.52999999999975,28.934999999999945 72.10000000000036,28.611999999999966 C71.6899999999996,28.258000000000038 71.48999999999978,27.815000000000055 71.48999999999978,27.283999999999992 C71.48999999999978,26.388000000000034 71.96000000000004,25.549999999999955 72.89999999999964,24.76800000000003 C73.8100000000004,23.986999999999966 74.8100000000004,23.596000000000004 75.88000000000011,23.596000000000004" />
<path d="M51.5600000000004,36.096000000000004 C52.1899999999996,36.096000000000004 52.720000000000255,36.25800000000004 53.159999999999854,36.58100000000002 C53.55000000000018,36.934999999999945 53.75,37.37800000000004 53.75,37.90899999999999 C53.75,38.80499999999995 53.289999999999964,39.64300000000003 52.36999999999989,40.424999999999955 C51.4399999999996,41.20600000000002 50.43000000000029,41.596000000000004 49.35999999999967,41.596000000000004 C48.72999999999956,41.596000000000004 48.210000000000036,41.434999999999945 47.779999999999745,41.111999999999966 C47.36999999999989,40.75800000000004 47.17000000000007,40.315000000000055 47.17000000000007,39.78399999999999 C47.17000000000007,38.888000000000034 47.64000000000033,38.049999999999955 48.57999999999993,37.26800000000003 C49.48999999999978,36.486999999999966 50.48999999999978,36.096000000000004 51.5600000000004,36.096000000000004" />
<path d="M27.420000000000073,63.12800000000004 L29.829999999999927,61.174999999999955 C29.890000000000327,61.12199999999996 29.9399999999996,61.096000000000004 30.0,61.096000000000004 C30.06999999999971,61.096000000000004 30.140000000000327,61.12199999999996 30.199999999999818,61.174999999999955 L30.609999999999673,61.486999999999966 C30.670000000000073,61.549999999999955 30.699999999999818,61.62800000000004 30.699999999999818,61.721000000000004 C30.699999999999818,61.78399999999999 30.670000000000073,61.861999999999966 30.609999999999673,61.95600000000002 L28.279999999999745,63.846000000000004 L30.609999999999673,65.73699999999997 C30.670000000000073,65.80999999999995 30.699999999999818,65.89099999999996 30.699999999999818,65.97900000000004 C30.699999999999818,66.06799999999998 30.670000000000073,66.14300000000003 30.609999999999673,66.20600000000002 L30.199999999999818,66.51800000000003 C30.140000000000327,66.57000000000005 30.06999999999971,66.596 30.0,66.596 C29.9399999999996,66.596 29.890000000000327,66.57000000000005 29.829999999999927,66.51800000000003 L27.420000000000073,64.56500000000005 L25.0,66.51800000000003 C24.93000000000029,66.57000000000005 24.88000000000011,66.596 24.829999999999927,66.596 C24.76000000000022,66.596 24.699999999999818,66.57000000000005 24.640000000000327,66.51800000000003 L24.220000000000255,66.20600000000002 C24.149999999999636,66.14300000000003 24.11999999999989,66.06500000000005 24.11999999999989,65.971 C24.11999999999989,65.90899999999999 24.149999999999636,65.83100000000002 24.220000000000255,65.73699999999997 L26.539999999999964,63.846000000000004 L24.220000000000255,61.95600000000002 C24.149999999999636,61.88300000000004 24.11999999999989,61.80200000000002 24.11999999999989,61.714000000000055 C24.11999999999989,61.625 24.149999999999636,61.549999999999955 24.220000000000255,61.486999999999966 L24.640000000000327,61.174999999999955 C24.699999999999818,61.12199999999996 24.76000000000022,61.096000000000004 24.829999999999927,61.096000000000004 C24.88000000000011,61.096000000000004 24.93000000000029,61.12199999999996 25.0,61.174999999999955 L27.420000000000073,63.12800000000004" />
<path d="M28.51000000000022,71.096 C29.140000000000327,71.096 29.670000000000073,71.25800000000004 30.109999999999673,71.58100000000002 C30.5,71.93499999999995 30.699999999999818,72.37800000000004 30.699999999999818,72.90899999999999 C30.699999999999818,73.80499999999995 30.23999999999978,74.64300000000003 29.329999999999927,75.42499999999995 C28.390000000000327,76.20600000000002 27.38000000000011,76.596 26.3100000000004,76.596 C25.68000000000029,76.596 25.159999999999854,76.43499999999995 24.729999999999563,76.11199999999997 C24.329999999999927,75.75800000000004 24.11999999999989,75.31500000000005 24.11999999999989,74.78399999999999 C24.11999999999989,73.88800000000003 24.590000000000146,73.04999999999995 25.529999999999745,72.26800000000003 C26.4399999999996,71.48699999999997 27.4399999999996,71.096 28.51000000000022,71.096" />
<path d="M4.829999999999927,63.12800000000004 L7.239999999999782,61.174999999999955 C7.300000000000182,61.12199999999996 7.359999999999673,61.096000000000004 7.4099999999998545,61.096000000000004 C7.489999999999782,61.096000000000004 7.550000000000182,61.12199999999996 7.619999999999891,61.174999999999955 L8.020000000000437,61.486999999999966 C8.079999999999927,61.549999999999955 8.11999999999989,61.62800000000004 8.11999999999989,61.721000000000004 C8.11999999999989,61.78399999999999 8.079999999999927,61.861999999999966 8.020000000000437,61.95600000000002 L5.6899999999996,63.846000000000004 L8.020000000000437,65.73699999999997 C8.079999999999927,65.80999999999995 8.11999999999989,65.89099999999996 8.11999999999989,65.97900000000004 C8.11999999999989,66.06799999999998 8.079999999999927,66.14300000000003 8.020000000000437,66.20600000000002 L7.619999999999891,66.51800000000003 C7.550000000000182,66.57000000000005 7.489999999999782,66.596 7.4099999999998545,66.596 C7.359999999999673,66.596 7.300000000000182,66.57000000000005 7.239999999999782,66.51800000000003 L4.829999999999927,64.56500000000005 L2.4099999999998545,66.51800000000003 C2.350000000000364,66.57000000000005 2.2899999999999636,66.596 2.2399999999997817,66.596 C2.180000000000291,66.596 2.119999999999891,66.57000000000005 2.050000000000182,66.51800000000003 L1.6300000000001091,66.20600000000002 C1.569999999999709,66.14300000000003 1.5399999999999636,66.06500000000005 1.5399999999999636,65.971 C1.5399999999999636,65.90899999999999 1.569999999999709,65.83100000000002 1.6300000000001091,65.73699999999997 L3.9600000000000364,63.846000000000004 L1.6300000000001091,61.95600000000002 C1.569999999999709,61.88300000000004 1.5399999999999636,61.80200000000002 1.5399999999999636,61.714000000000055 C1.5399999999999636,61.625 1.569999999999709,61.549999999999955 1.6300000000001091,61.486999999999966 L2.050000000000182,61.174999999999955 C2.119999999999891,61.12199999999996 2.180000000000291,61.096000000000004 2.2399999999997817,61.096000000000004 C2.2899999999999636,61.096000000000004 2.350000000000364,61.12199999999996 2.4099999999998545,61.174999999999955 L4.829999999999927,63.12800000000004" />
<path d="M5.930000000000291,81.096 C6.550000000000182,81.096 7.079999999999927,81.25800000000004 7.520000000000437,81.58100000000002 C7.920000000000073,81.93499999999995 8.11999999999989,82.37800000000004 8.11999999999989,82.90899999999999 C8.11999999999989,83.80499999999995 7.6599999999998545,84.64300000000003 6.739999999999782,85.42499999999995 C5.800000000000182,86.20600000000002 4.800000000000182,86.596 3.7299999999995634,86.596 C3.100000000000364,86.596 2.569999999999709,86.43499999999995 2.149999999999636,86.11199999999997 C1.7399999999997817,85.75800000000004 1.5399999999999636,85.31500000000005 1.5399999999999636,84.78399999999999 C1.5399999999999636,83.88800000000003 2.0100000000002183,83.04999999999995 2.9399999999996,82.26800000000003 C3.8599999999996726,81.48699999999997 4.859999999999673,81.096 5.930000000000291,81.096" />
<path d="M5.930000000000291,23.596000000000004 C6.550000000000182,23.596000000000004 7.079999999999927,23.758000000000038 7.520000000000437,24.081000000000017 C7.920000000000073,24.434999999999945 8.11999999999989,24.878000000000043 8.11999999999989,25.408999999999992 C8.11999999999989,26.30499999999995 7.6599999999998545,27.14300000000003 6.739999999999782,27.924999999999955 C5.800000000000182,28.706000000000017 4.800000000000182,29.096000000000004 3.7299999999995634,29.096000000000004 C3.100000000000364,29.096000000000004 2.569999999999709,28.934999999999945 2.149999999999636,28.611999999999966 C1.7399999999997817,28.258000000000038 1.5399999999999636,27.815000000000055 1.5399999999999636,27.283999999999992 C1.5399999999999636,26.388000000000034 2.0100000000002183,25.549999999999955 2.9399999999996,24.76800000000003 C3.8599999999996726,23.986999999999966 4.859999999999673,23.596000000000004 5.930000000000291,23.596000000000004" />
<path d="M141.73999999999978,19.736999999999966 C142.14000000000033,19.736999999999966 142.42000000000007,19.841000000000008 142.59000000000015,20.049999999999955 C142.77000000000044,20.278999999999996 142.8699999999999,20.503000000000043 142.92000000000007,20.721000000000004 C142.9300000000003,20.940000000000055 142.98999999999978,21.158999999999992 143.1199999999999,21.378000000000043 C143.1899999999996,21.586000000000013 143.32999999999993,21.690000000000055 143.53999999999996,21.690000000000055 C143.6800000000003,21.690000000000055 143.8699999999999,21.533999999999992 144.14000000000033,21.221000000000004 C144.4300000000003,20.85699999999997 144.60999999999967,20.596000000000004 144.69999999999982,20.440000000000055 C144.76000000000022,20.315000000000055 144.85000000000036,20.253000000000043 144.96000000000004,20.253000000000043 C144.96000000000004,20.253000000000043 144.97000000000025,20.253000000000043 144.98999999999978,20.253000000000043 C145.10999999999967,20.263000000000034 145.1899999999996,20.326000000000022 145.23999999999978,20.440000000000055 L141.67000000000007,33.846000000000004 C141.53999999999996,33.98199999999997 141.35999999999967,34.049999999999955 141.1300000000001,34.049999999999955 C140.89000000000033,34.049999999999955 140.71000000000004,33.98199999999997 140.5699999999997,33.846000000000004 L142.59000000000015,27.299999999999955 C141.71000000000004,27.611999999999966 141.0,27.76800000000003 140.46000000000004,27.76800000000003 C139.98999999999978,27.76800000000003 139.59000000000015,27.621999999999957 139.23999999999978,27.331000000000017 C138.89000000000033,27.038999999999987 138.71000000000004,26.658999999999992 138.71000000000004,26.190000000000055 C138.71000000000004,25.783999999999992 138.85000000000036,25.44500000000005 139.1199999999999,25.174999999999955 C139.40999999999985,24.89300000000003 139.76000000000022,24.753000000000043 140.17000000000007,24.753000000000043 C140.55000000000018,24.753000000000043 140.82999999999993,24.85699999999997 141.01000000000022,25.065000000000055 C141.19999999999982,25.283999999999992 141.3100000000004,25.503000000000043 141.35000000000036,25.721000000000004 C141.39999999999964,25.98199999999997 141.46000000000004,26.206000000000017 141.5600000000004,26.39300000000003 C141.64000000000033,26.601999999999975 141.77999999999975,26.706000000000017 141.97999999999956,26.706000000000017 C142.14000000000033,26.706000000000017 142.35999999999967,26.524 142.64999999999964,26.158999999999992 C142.9399999999996,25.815000000000055 143.1199999999999,25.543999999999983 143.19999999999982,25.346000000000004 L144.10000000000036,22.315000000000055 C143.27000000000044,22.616999999999962 142.57999999999993,22.76800000000003 142.02999999999975,22.76800000000003 C141.5600000000004,22.76800000000003 141.14999999999964,22.616999999999962 140.8100000000004,22.315000000000055 C140.44999999999982,22.033999999999992 140.27999999999975,21.658999999999992 140.27999999999975,21.190000000000055 C140.27999999999975,20.783999999999992 140.42000000000007,20.44500000000005 140.71000000000004,20.174999999999955 C140.98999999999978,19.883000000000038 141.34000000000015,19.736999999999966 141.73999999999978,19.736999999999966" />
<path d="M26.61999999999989,19.736999999999966 C27.020000000000437,19.736999999999966 27.300000000000182,19.841000000000008 27.470000000000255,20.049999999999955 C27.640000000000327,20.278999999999996 27.75,20.503000000000043 27.789999999999964,20.721000000000004 C27.800000000000182,20.940000000000055 27.86999999999989,21.158999999999992 28.0,21.378000000000043 C28.06999999999971,21.586000000000013 28.210000000000036,21.690000000000055 28.420000000000073,21.690000000000055 C28.550000000000182,21.690000000000055 28.75,21.533999999999992 29.01000000000022,21.221000000000004 C29.300000000000182,20.85699999999997 29.48999999999978,20.596000000000004 29.579999999999927,20.440000000000055 C29.640000000000327,20.315000000000055 29.729999999999563,20.253000000000043 29.840000000000146,20.253000000000043 C29.840000000000146,20.253000000000043 29.850000000000364,20.253000000000043 29.86999999999989,20.253000000000043 C29.98999999999978,20.263000000000034 30.06999999999971,20.326000000000022 30.11999999999989,20.440000000000055 L26.539999999999964,33.846000000000004 C26.420000000000073,33.98199999999997 26.23999999999978,34.049999999999955 26.0,34.049999999999955 C25.770000000000437,34.049999999999955 25.590000000000146,33.98199999999997 25.449999999999818,33.846000000000004 L27.470000000000255,27.299999999999955 C26.590000000000146,27.611999999999966 25.88000000000011,27.76800000000003 25.340000000000146,27.76800000000003 C24.86999999999989,27.76800000000003 24.470000000000255,27.621999999999957 24.11999999999989,27.331000000000017 C23.770000000000437,27.038999999999987 23.590000000000146,26.658999999999992 23.590000000000146,26.190000000000055 C23.590000000000146,25.783999999999992 23.729999999999563,25.44500000000005 24.0,25.174999999999955 C24.289999999999964,24.89300000000003 24.640000000000327,24.753000000000043 25.039999999999964,24.753000000000043 C25.43000000000029,24.753000000000043 25.710000000000036,24.85699999999997 25.890000000000327,25.065000000000055 C26.079999999999927,25.283999999999992 26.1899999999996,25.503000000000043 26.229999999999563,25.721000000000004 C26.270000000000437,25.98199999999997 26.340000000000146,26.206000000000017 26.43000000000029,26.39300000000003 C26.520000000000437,26.601999999999975 26.659999999999854,26.706000000000017 26.859999999999673,26.706000000000017 C27.01000000000022,26.706000000000017 27.23999999999978,26.524 27.529999999999745,26.158999999999992 C27.81999999999971,25.815000000000055 28.0,25.543999999999983 28.079999999999927,25.346000000000004 L28.979999999999563,22.315000000000055 C28.149999999999636,22.616999999999962 27.460000000000036,22.76800000000003 26.899999999999636,22.76800000000003 C26.43000000000029,22.76800000000003 26.029999999999745,22.616999999999962 25.68000000000029,22.315000000000055 C25.329999999999927,22.033999999999992 25.149999999999636,21.658999999999992 25.149999999999636,21.190000000000055 C25.149999999999636,20.783999999999992 25.300000000000182,20.44500000000005 25.590000000000146,20.174999999999955 C25.86999999999989,19.883000000000038 26.220000000000255,19.736999999999966 26.61999999999989,19.736999999999966" />
<path d="M162.44999999999982,17.784999999999968 L180.3699999999999,12.596000000000004 L180.3699999999999,15.096000000000004 L162.44999999999982,20.284999999999968 L162.44999999999982,17.784999999999968" />
<path d="M162.44999999999982,21.534999999999968 L169.05000000000018,19.624000000000024 L169.05000000000018,22.124000000000024 L162.44999999999982,24.034999999999968 L162.44999999999982,21.534999999999968" />
<path d="M139.23999999999978,88.846 L191.71000000000004,88.846 L191.71000000000004,91.346 L139.23999999999978,91.346 L139.23999999999978,88.846" />
<path d="M173.78999999999996,85.096 L191.71000000000004,85.096 L191.71000000000004,87.596 L173.78999999999996,87.596 L173.78999999999996,85.096" />
<path d="M94.07999999999993,97.596 L117.3100000000004,97.596 L117.3100000000004,100.096 L94.07999999999993,100.096 L94.07999999999993,97.596" />
<path d="M100.01000000000022,12.596000000000004 L123.23999999999978,12.596000000000004 L123.23999999999978,15.096000000000004 L100.01000000000022,15.096000000000004 L100.01000000000022,12.596000000000004" />
<path d="M53.100000000000364,12.697000000000003 L78.06999999999971,8.846000000000004 L78.06999999999971,11.346000000000004 L53.100000000000364,15.197000000000003 L53.100000000000364,12.697000000000003" />
<path d="M53.100000000000364,16.447000000000003 L59.69999999999982,15.428999999999974 L59.69999999999982,17.928999999999974 L53.100000000000364,18.947000000000003 L53.100000000000364,16.447000000000003" />
<polyline points="0.0,13.846000000000004 209.1300000000001,13.846000000000004" fill="none" stroke="#000000" stroke-width="0.40" />
<polyline points="0.0,18.846000000000004 209.1300000000001,18.846000000000004" fill="none" stroke="#000000" stroke-width="0.40" />
<polyline points="0.0,23.846000000000004 209.1300000000001,23.846000000000004" fill="none" stroke="#000000" stroke-width="0.40" />
<polyline points="0.0,28.846000000000004 209.1300000000001,28.846000000000004" fill="none" stroke="#000000" stroke-width="0.40" />
<polyline points="0.0,33.846000000000004 209.1300000000001,33.846000000000004" fill="none" stroke="#000000" stroke-width="0.40" />
<polyline points="0.0,66.346 209.1300000000001,66.346" fill="none" stroke="#000000" stroke-width="0.40" />
<polyline points="0.0,71.346 209.1300000000001,71.346" fill="none" stroke="#000000" stroke-width="0.40" />
<polyline points="0.0,76.346 209.1300000000001,76.346" fill="none" stroke="#000000" stroke-width="0.40" />
<polyline points="0.0,81.346 209.1300000000001,81.346" fill="none" stroke="#000000" stroke-width="0.40" />
<polyline points="0.0,86.346 209.1300000000001,86.346" fill="none" stroke="#000000" stroke-width="0.40" />
<polyline points="208.72999999999956,66.346 208.72999999999956,86.346" fill="" stroke="#000000" stroke-width="0.80" />
<polyline points="208.72999999999956,13.846000000000004 208.72999999999956,33.846000000000004" fill="" stroke="#000000" stroke-width="0.80" />
<polyline points="191.39000000000033,74.78599999999994 191.39000000000033,90.096" fill="" stroke="#000000" stroke-width="0.65" />
<polyline points="174.10999999999967,65.90999999999997 174.10999999999967,90.096" fill="" stroke="#000000" stroke-width="0.65" />
<polyline points="180.05000000000018,27.90700000000004 180.05000000000018,13.846000000000004" fill="" stroke="#000000" stroke-width="0.65" />
<polyline points="162.77000000000044,37.90700000000004 162.77000000000044,18.846000000000004" fill="" stroke="#000000" stroke-width="0.65" />
<polyline points="139.5699999999997,65.90999999999997 139.5699999999997,90.096" fill="" stroke="#000000" stroke-width="0.65" />
<polyline points="116.98999999999978,65.90999999999997 116.98999999999978,98.846" fill="" stroke="#000000" stroke-width="0.65" />
<polyline points="122.92000000000007,27.90700000000004 122.92000000000007,13.846000000000004" fill="" stroke="#000000" stroke-width="0.65" />
<polyline points="94.39999999999964,65.90999999999997 94.39999999999964,98.846" fill="" stroke="#000000" stroke-width="0.65" />
<polyline points="100.32999999999993,27.90700000000004 100.32999999999993,13.846000000000004" fill="" stroke="#000000" stroke-width="0.65" />
<polyline points="71.81999999999971,65.90999999999997 71.81999999999971,91.346" fill="" stroke="#000000" stroke-width="0.65" />
<polyline points="77.75,25.40700000000004 77.75,10.096000000000004" fill="" stroke="#000000" stroke-width="0.65" />
<polyline points="53.43000000000029,37.90700000000004 53.43000000000029,13.846000000000004" fill="" stroke="#000000" stroke-width="0.65" />
<polyline points="24.449999999999818,65.90999999999997 24.449999999999818,95.82600000000002" fill="" stroke="#000000" stroke-width="0.65" />
<polyline points="1.8599999999996726,65.90999999999997 1.8599999999996726,97.96100000000001" fill="" stroke="#000000" stroke-width="0.65" />
<polyline points="7.800000000000182,25.40700000000004 7.800000000000182,12.596000000000004" fill="" stroke="#000000" stroke-width="0.65" />
<polyline points="155.02000000000044,38.846000000000004 164.60000000000036,38.846000000000004" fill="" stroke="#000000" stroke-width="0.80" />
<polyline points="45.67000000000007,38.846000000000004 55.25,38.846000000000004" fill="" stroke="#000000" stroke-width="0.80" />
</svg>
