<?xml version="1.0" encoding="UTF-8" standalone="yes"?>
<svg width="256.0px" height="256.0px" xmlns="http://www.w3.org/2000/svg" xmlns:xlink="http://www.w3.org/1999/xlink" version="1.2" baseProfile="tiny">
<path d="M47.600000000000364,30.79200000000003 C47.5,30.69799999999998 47.399999999999636,30.591000000000008 47.20000000000073,30.47199999999998 C47.100000000000364,30.351999999999975 46.899999999999636,30.184999999999945 46.70000000000073,29.97199999999998 C46.5,29.758000000000038 46.29999999999927,29.53200000000004 46.20000000000073,29.29200000000003 C46.100000000000364,29.05200000000002 45.899999999999636,28.760999999999967 45.79999999999927,28.41700000000003 C45.79999999999927,28.07299999999998 45.70000000000073,27.71900000000005 45.70000000000073,27.354000000000042 C45.70000000000073,26.96900000000005 45.79999999999927,26.604000000000042 45.79999999999927,26.260999999999967 C45.899999999999636,25.91700000000003 46.100000000000364,25.633000000000038 46.20000000000073,25.408999999999992 C46.29999999999927,25.184999999999945 46.5,24.966000000000008 46.70000000000073,24.753000000000043 C46.899999999999636,24.538999999999987 47.100000000000364,24.383000000000038 47.20000000000073,24.283999999999992 C47.29999999999927,24.184999999999945 47.5,24.077999999999975 47.70000000000073,23.964000000000055 L47.70000000000073,24.089000000000055 C47.5,24.287000000000035 47.29999999999927,24.461000000000013 47.20000000000073,24.611999999999966 C47.0,24.763000000000034 46.899999999999636,24.964000000000055 46.79999999999927,25.214000000000055 C46.600000000000364,25.464000000000055 46.5,25.760999999999967 46.5,26.104000000000042 C46.399999999999636,26.44799999999998 46.399999999999636,26.860000000000014 46.399999999999636,27.339000000000055 C46.399999999999636,27.827999999999975 46.399999999999636,28.253000000000043 46.5,28.611999999999966 C46.5,28.97199999999998 46.600000000000364,29.275999999999954 46.79999999999927,29.525999999999954 C46.899999999999636,29.775999999999954 47.0,29.98199999999997 47.20000000000073,30.144000000000005 C47.29999999999927,30.30499999999995 47.5,30.474000000000046 47.70000000000073,30.650999999999954 L47.600000000000364,30.79200000000003 M48.20000000000073,27.66700000000003 C48.20000000000073,27.07299999999998 48.29999999999927,26.59699999999998 48.70000000000073,26.236999999999966 C49.0,25.878000000000043 49.5,25.69799999999998 49.899999999999636,25.69799999999998 C50.29999999999927,25.69799999999998 50.5,25.778999999999996 50.79999999999927,25.940000000000055 C51.0,26.101999999999975 51.100000000000364,26.297000000000025 51.100000000000364,26.525999999999954 C51.100000000000364,26.610000000000014 51.100000000000364,26.684999999999945 51.0,26.753000000000043 C50.899999999999636,26.821000000000026 50.899999999999636,26.854000000000042 50.79999999999927,26.854000000000042 C50.600000000000364,26.854000000000042 50.5,26.735000000000014 50.399999999999636,26.495000000000005 L50.29999999999927,26.32299999999998 C50.29999999999927,26.16700000000003 50.29999999999927,26.062999999999988 50.20000000000073,26.010999999999967 C50.100000000000364,25.958999999999946 50.0,25.932999999999993 49.899999999999636,25.932999999999993 C49.600000000000364,25.932999999999993 49.29999999999927,26.059999999999945 49.100000000000364,26.315000000000055 C48.899999999999636,26.571000000000026 48.79999999999927,26.90700000000004 48.79999999999927,27.32299999999998 C48.79999999999927,27.770999999999958 48.899999999999636,28.140999999999963 49.100000000000364,28.432999999999993 C49.399999999999636,28.724000000000046 49.70000000000073,28.870000000000005 50.0,28.870000000000005 C50.29999999999927,28.870000000000005 50.399999999999636,28.812999999999988 50.600000000000364,28.69799999999998 C50.79999999999927,28.583999999999946 50.899999999999636,28.390999999999963 51.100000000000364,28.120000000000005 L51.20000000000073,28.182999999999993 C51.20000000000073,28.297000000000025 51.100000000000364,28.388000000000034 51.100000000000364,28.456000000000017 C51.100000000000364,28.524 51.0,28.628000000000043 50.899999999999636,28.769000000000005 C50.79999999999927,28.908999999999992 50.70000000000073,29.020999999999958 50.600000000000364,29.104000000000042 C50.5,29.187999999999988 50.399999999999636,29.265999999999963 50.20000000000073,29.339000000000055 C50.0,29.412000000000035 49.899999999999636,29.44799999999998 49.70000000000073,29.44799999999998 C49.29999999999927,29.44799999999998 48.899999999999636,29.28200000000004 48.600000000000364,28.94799999999998 C48.29999999999927,28.61500000000001 48.20000000000073,28.187999999999988 48.20000000000073,27.66700000000003 M51.79999999999927,23.964000000000055 C52.0,24.047000000000025 52.100000000000364,24.149 52.29999999999927,24.269000000000005 C52.399999999999636,24.388000000000034 52.600000000000364,24.55499999999995 52.79999999999927,24.769000000000005 C53.0,24.98199999999997 53.100000000000364,25.211000000000013 53.29999999999927,25.456000000000017 C53.399999999999636,25.701000000000022 53.5,25.991999999999962 53.600000000000364,26.331000000000017 C53.70000000000073,26.66999999999996 53.79999999999927,27.025999999999954 53.79999999999927,27.400999999999954 C53.79999999999927,27.775999999999954 53.70000000000073,28.135999999999967 53.600000000000364,28.479000000000042 C53.5,28.82299999999998 53.399999999999636,29.110000000000014 53.29999999999927,29.339000000000055 C53.20000000000073,29.567999999999984 53.0,29.787000000000035 52.79999999999927,29.995000000000005 C52.600000000000364,30.202999999999975 52.399999999999636,30.360000000000014 52.29999999999927,30.464000000000055 C52.20000000000073,30.567999999999984 52.0,30.67700000000002 51.79999999999927,30.79200000000003 L51.79999999999927,30.650999999999954 C52.0,30.464000000000055 52.20000000000073,30.29200000000003 52.29999999999927,30.135999999999967 C52.5,29.979000000000042 52.600000000000364,29.778999999999996 52.70000000000073,29.533999999999992 C52.899999999999636,29.288999999999987 53.0,28.995000000000005 53.0,28.650999999999954 C53.100000000000364,28.307999999999993 53.100000000000364,27.895999999999958 53.100000000000364,27.41700000000003 C53.100000000000364,26.92700000000002 53.100000000000364,26.503000000000043 53.0,26.144000000000005 C53.0,25.783999999999992 52.899999999999636,25.476999999999975 52.70000000000073,25.22199999999998 C52.600000000000364,24.966000000000008 52.5,24.760999999999967 52.29999999999927,24.604000000000042 C52.20000000000073,24.44799999999998 52.0,24.275999999999954 51.79999999999927,24.089000000000055 L51.79999999999927,23.964000000000055 M57.600000000000364,24.635999999999967 C57.5,24.635999999999967 57.29999999999927,24.692999999999984 57.0,24.807999999999993 L57.0,24.69799999999998 L58.5,23.964000000000055 L58.5,23.979000000000042 L58.5,28.775999999999954 C58.5,28.974000000000046 58.600000000000364,29.101999999999975 58.70000000000073,29.158999999999992 C58.79999999999927,29.216000000000008 59.0,29.245000000000005 59.29999999999927,29.245000000000005 L59.29999999999927,29.370000000000005 L57.100000000000364,29.370000000000005 L57.100000000000364,29.245000000000005 C57.399999999999636,29.235000000000014 57.600000000000364,29.190000000000055 57.70000000000073,29.111999999999966 C57.79999999999927,29.033999999999992 57.899999999999636,28.870000000000005 57.899999999999636,28.620000000000005 L57.899999999999636,25.010999999999967 C57.899999999999636,24.760999999999967 57.79999999999927,24.635999999999967 57.600000000000364,24.635999999999967 M60.600000000000364,29.54200000000003 L60.600000000000364,29.385999999999967 C61.20000000000073,29.28200000000004 61.70000000000073,29.024 62.100000000000364,28.611999999999966 C62.600000000000364,28.201000000000022 62.79999999999927,27.66700000000003 63.0,27.010999999999967 C62.600000000000364,27.32299999999998 62.20000000000073,27.479000000000042 61.79999999999927,27.479000000000042 C61.399999999999636,27.479000000000042 61.0,27.327999999999975 60.79999999999927,27.025999999999954 C60.5,26.724000000000046 60.399999999999636,26.333999999999946 60.399999999999636,25.854000000000042 C60.399999999999636,25.312999999999988 60.5,24.860000000000014 60.899999999999636,24.495000000000005 C61.20000000000073,24.129999999999995 61.600000000000364,23.94799999999998 62.0,23.94799999999998 C62.600000000000364,23.94799999999998 63.0,24.158999999999992 63.29999999999927,24.581000000000017 C63.70000000000073,25.003000000000043 63.79999999999927,25.547000000000025 63.79999999999927,26.214000000000055 C63.79999999999927,26.432999999999993 63.79999999999927,26.653999999999996 63.79999999999927,26.878000000000043 C63.79999999999927,27.101999999999975 63.70000000000073,27.366999999999962 63.5,27.674999999999955 C63.399999999999636,27.98199999999997 63.20000000000073,28.254999999999995 63.0,28.495000000000005 C62.79999999999927,28.735000000000014 62.5,28.952999999999975 62.0,29.150999999999954 C61.600000000000364,29.349000000000046 61.20000000000073,29.479000000000042 60.600000000000364,29.54200000000003 M62.100000000000364,27.120000000000005 C62.20000000000073,27.120000000000005 62.29999999999927,27.10699999999997 62.5,27.081000000000017 C62.600000000000364,27.05499999999995 62.70000000000073,26.991999999999962 62.79999999999927,26.894000000000005 C63.0,26.79499999999996 63.0,26.672000000000025 63.0,26.525999999999954 L63.0,26.214000000000055 C63.0,24.860000000000014 62.70000000000073,24.182999999999993 62.0,24.182999999999993 C61.79999999999927,24.182999999999993 61.70000000000073,24.226999999999975 61.600000000000364,24.315000000000055 C61.399999999999636,24.403999999999996 61.29999999999927,24.520999999999958 61.29999999999927,24.66700000000003 C61.20000000000073,24.812999999999988 61.20000000000073,24.958999999999946 61.20000000000073,25.104000000000042 C61.100000000000364,25.25 61.100000000000364,25.40700000000004 61.100000000000364,25.57299999999998 C61.100000000000364,26.05200000000002 61.20000000000073,26.42999999999995 61.399999999999636,26.706000000000017 C61.600000000000364,26.98199999999997 61.79999999999927,27.120000000000005 62.100000000000364,27.120000000000005 M66.20000000000073,29.479000000000042 C65.60000000000036,29.479000000000042 65.20000000000073,29.265999999999963 64.89999999999964,28.839000000000055 C64.60000000000036,28.412000000000035 64.39999999999964,27.84400000000005 64.39999999999964,27.135999999999967 C64.39999999999964,26.91700000000003 64.39999999999964,26.692999999999984 64.5,26.464000000000055 C64.5,26.235000000000014 64.60000000000036,25.97199999999998 64.70000000000073,25.674999999999955 C64.89999999999964,25.378000000000043 65.10000000000036,25.111999999999966 65.29999999999927,24.878000000000043 C65.5,24.644000000000005 65.89999999999964,24.434999999999945 66.29999999999927,24.253000000000043 C66.70000000000073,24.071000000000026 67.20000000000073,23.952999999999975 67.70000000000073,23.900999999999954 L67.70000000000073,24.025999999999954 C67.10000000000036,24.129999999999995 66.60000000000036,24.385999999999967 66.10000000000036,24.79200000000003 C65.70000000000073,25.19799999999998 65.39999999999964,25.702999999999975 65.29999999999927,26.307999999999993 C65.60000000000036,26.162000000000035 65.79999999999927,26.067999999999984 65.89999999999964,26.025999999999954 C66.0,25.985000000000014 66.20000000000073,25.964000000000055 66.39999999999964,25.964000000000055 C66.79999999999927,25.964000000000055 67.20000000000073,26.111999999999966 67.5,26.408999999999992 C67.79999999999927,26.706000000000017 67.89999999999964,27.104000000000042 67.89999999999964,27.604000000000042 C67.89999999999964,28.15700000000004 67.70000000000073,28.60699999999997 67.39999999999964,28.956000000000017 C67.10000000000036,29.30499999999995 66.70000000000073,29.479000000000042 66.20000000000073,29.479000000000042 M66.10000000000036,26.32299999999998 C65.70000000000073,26.32299999999998 65.5,26.400999999999954 65.29999999999927,26.557999999999993 C65.20000000000073,26.714000000000055 65.10000000000036,26.94799999999998 65.10000000000036,27.260999999999967 C65.10000000000036,27.875 65.20000000000073,28.360000000000014 65.39999999999964,28.714000000000055 C65.60000000000036,29.067999999999984 65.89999999999964,29.245000000000005 66.29999999999927,29.245000000000005 C66.60000000000036,29.245000000000005 66.79999999999927,29.128000000000043 66.89999999999964,28.894000000000005 C67.10000000000036,28.658999999999992 67.10000000000036,28.32299999999998 67.10000000000036,27.885999999999967 C67.10000000000036,27.385999999999967 67.0,27.0 66.89999999999964,26.729000000000042 C66.70000000000073,26.458999999999946 66.39999999999964,26.32299999999998 66.10000000000036,26.32299999999998 M70.39999999999964,26.400999999999954 C70.89999999999964,26.754999999999995 71.29999999999927,27.05200000000002 71.39999999999964,27.29200000000003 C71.60000000000036,27.53200000000004 71.70000000000073,27.807999999999993 71.70000000000073,28.120000000000005 C71.70000000000073,28.537000000000035 71.5,28.866999999999962 71.29999999999927,29.111999999999966 C71.0,29.35699999999997 70.60000000000036,29.479000000000042 70.10000000000036,29.479000000000042 C69.70000000000073,29.479000000000042 69.29999999999927,29.35699999999997 69.0,29.111999999999966 C68.70000000000073,28.866999999999962 68.60000000000036,28.547000000000025 68.60000000000036,28.150999999999954 C68.60000000000036,27.879999999999995 68.60000000000036,27.653999999999996 68.79999999999927,27.47199999999998 C68.89999999999964,27.288999999999987 69.20000000000073,27.037000000000035 69.60000000000036,26.714000000000055 C69.20000000000073,26.339000000000055 68.89999999999964,26.062999999999988 68.79999999999927,25.885999999999967 C68.70000000000073,25.708999999999946 68.60000000000036,25.49000000000001 68.60000000000036,25.229000000000042 C68.60000000000036,24.86500000000001 68.79999999999927,24.559999999999945 69.0,24.315000000000055 C69.29999999999927,24.071000000000026 69.70000000000073,23.94799999999998 70.10000000000036,23.94799999999998 C70.5,23.94799999999998 70.89999999999964,24.05499999999995 71.10000000000036,24.269000000000005 C71.39999999999964,24.48199999999997 71.5,24.760999999999967 71.5,25.104000000000042 C71.5,25.375 71.39999999999964,25.604000000000042 71.29999999999927,25.79200000000003 C71.10000000000036,25.979000000000042 70.79999999999927,26.182999999999993 70.39999999999964,26.400999999999954 M69.79999999999927,26.870000000000005 C69.60000000000036,27.057999999999993 69.39999999999964,27.241999999999962 69.29999999999927,27.424999999999955 C69.20000000000073,27.60699999999997 69.20000000000073,27.827999999999975 69.20000000000073,28.089000000000055 C69.20000000000073,28.432999999999993 69.29999999999927,28.711000000000013 69.5,28.924999999999955 C69.60000000000036,29.138000000000034 69.89999999999964,29.245000000000005 70.20000000000073,29.245000000000005 C70.39999999999964,29.245000000000005 70.70000000000073,29.163999999999987 70.79999999999927,29.003000000000043 C71.0,28.841000000000008 71.10000000000036,28.629999999999995 71.10000000000036,28.370000000000005 C71.10000000000036,28.287000000000035 71.10000000000036,28.206000000000017 71.0,28.128000000000043 C71.0,28.049999999999955 71.0,27.985000000000014 71.0,27.932999999999993 C71.0,27.879999999999995 70.89999999999964,27.817999999999984 70.89999999999964,27.745000000000005 C70.79999999999927,27.672000000000025 70.79999999999927,27.616999999999962 70.70000000000073,27.581000000000017 C70.70000000000073,27.54499999999996 70.60000000000036,27.486999999999966 70.60000000000036,27.408999999999992 C70.5,27.331000000000017 70.39999999999964,27.275999999999954 70.39999999999964,27.245000000000005 C70.29999999999927,27.214000000000055 70.20000000000073,27.153999999999996 70.10000000000036,27.065000000000055 C70.0,26.976999999999975 69.89999999999964,26.912000000000035 69.79999999999927,26.870000000000005 M70.20000000000073,26.260999999999967 C70.20000000000073,26.25 70.29999999999927,26.22199999999998 70.29999999999927,26.174999999999955 C70.39999999999964,26.128000000000043 70.39999999999964,26.091000000000008 70.5,26.065000000000055 C70.5,26.038999999999987 70.5,26.0 70.60000000000036,25.94799999999998 C70.70000000000073,25.895999999999958 70.70000000000073,25.84400000000005 70.70000000000073,25.79200000000003 C70.79999999999927,25.74000000000001 70.79999999999927,25.67700000000002 70.79999999999927,25.604000000000042 C70.89999999999964,25.53200000000004 70.89999999999964,25.451000000000022 70.89999999999964,25.361999999999966 C70.89999999999964,25.274 71.0,25.182999999999993 71.0,25.089000000000055 C71.0,24.817999999999984 70.89999999999964,24.599000000000046 70.70000000000073,24.432999999999993 C70.60000000000036,24.265999999999963 70.29999999999927,24.182999999999993 70.10000000000036,24.182999999999993 C69.79999999999927,24.182999999999993 69.60000000000036,24.258000000000038 69.5,24.408999999999992 C69.29999999999927,24.559999999999945 69.20000000000073,24.75 69.20000000000073,24.979000000000042 C69.20000000000073,25.19799999999998 69.29999999999927,25.40700000000004 69.39999999999964,25.604000000000042 C69.60000000000036,25.80200000000002 69.79999999999927,26.020999999999958 70.20000000000073,26.260999999999967 M79.60000000000036,26.69799999999998 C79.60000000000036,26.937999999999988 79.5,27.172000000000025 79.5,27.400999999999954 C79.39999999999964,27.629999999999995 79.29999999999927,27.866999999999962 79.20000000000073,28.111999999999966 C79.0,28.35699999999997 78.89999999999964,28.567999999999984 78.60000000000036,28.745000000000005 C78.39999999999964,28.922000000000025 78.10000000000036,29.071000000000026 77.70000000000073,29.190000000000055 C77.39999999999964,29.309999999999945 76.89999999999964,29.370000000000005 76.5,29.370000000000005 L74.20000000000073,29.370000000000005 L74.20000000000073,29.214000000000055 C74.5,29.192999999999984 74.70000000000073,29.140999999999963 74.79999999999927,29.057999999999993 C74.89999999999964,28.974000000000046 74.89999999999964,28.787000000000035 74.89999999999964,28.495000000000005 L74.89999999999964,24.94799999999998 C74.89999999999964,24.65700000000004 74.89999999999964,24.47199999999998 74.79999999999927,24.394000000000005 C74.70000000000073,24.315000000000055 74.5,24.260999999999967 74.20000000000073,24.229000000000042 L74.20000000000073,24.07299999999998 L76.39999999999964,24.07299999999998 C76.79999999999927,24.07299999999998 77.29999999999927,24.128000000000043 77.70000000000073,24.236999999999966 C78.0,24.34699999999998 78.39999999999964,24.486999999999966 78.60000000000036,24.658999999999992 C78.79999999999927,24.831000000000017 79.0,25.037000000000035 79.20000000000073,25.275999999999954 C79.29999999999927,25.515999999999963 79.39999999999964,25.75 79.5,25.979000000000042 C79.5,26.208999999999946 79.60000000000036,26.44799999999998 79.60000000000036,26.69799999999998 M78.70000000000073,26.760999999999967 C78.70000000000073,26.53200000000004 78.70000000000073,26.309999999999945 78.60000000000036,26.09699999999998 C78.60000000000036,25.883000000000038 78.5,25.66999999999996 78.39999999999964,25.456000000000017 C78.20000000000073,25.241999999999962 78.10000000000036,25.059999999999945 77.89999999999964,24.908999999999992 C77.70000000000073,24.758000000000038 77.5,24.633000000000038 77.20000000000073,24.533999999999992 C76.89999999999964,24.434999999999945 76.5,24.385999999999967 76.10000000000036,24.385999999999967 C76.0,24.385999999999967 75.89999999999964,24.40700000000004 75.79999999999927,24.44799999999998 C75.70000000000073,24.49000000000001 75.70000000000073,24.57299999999998 75.70000000000073,24.69799999999998 L75.70000000000073,28.745000000000005 C75.70000000000073,28.870000000000005 75.70000000000073,28.956000000000017 75.79999999999927,29.003000000000043 C75.89999999999964,29.049999999999955 76.0,29.07299999999998 76.10000000000036,29.07299999999998 C77.79999999999927,29.07299999999998 78.70000000000073,28.30200000000002 78.70000000000073,26.760999999999967 M82.5,26.885999999999967 C82.39999999999964,26.458999999999946 82.29999999999927,26.190000000000055 82.20000000000073,26.081000000000017 C82.10000000000036,25.97199999999998 82.0,25.90700000000004 81.79999999999927,25.885999999999967 L81.79999999999927,25.775999999999954 L83.39999999999964,25.775999999999954 L83.39999999999964,25.885999999999967 C83.20000000000073,25.91700000000003 83.10000000000036,25.951000000000022 83.0,25.986999999999966 C83.0,26.024 83.0,26.089000000000055 83.0,26.182999999999993 C83.0,26.245000000000005 83.0,26.400999999999954 83.10000000000036,26.650999999999954 L83.79999999999927,28.44799999999998 L84.5,26.66700000000003 C84.60000000000036,26.44799999999998 84.60000000000036,26.270999999999958 84.60000000000036,26.135999999999967 C84.60000000000036,26.07299999999998 84.60000000000036,26.024 84.5,25.986999999999966 C84.5,25.951000000000022 84.39999999999964,25.91700000000003 84.29999999999927,25.885999999999967 L84.29999999999927,25.775999999999954 L85.29999999999927,25.775999999999954 L85.29999999999927,25.885999999999967 C85.20000000000073,25.91700000000003 85.10000000000036,25.956000000000017 85.10000000000036,26.003000000000043 C85.0,26.049999999999955 85.0,26.15700000000004 84.89999999999964,26.32299999999998 L83.79999999999927,29.089000000000055 C83.70000000000073,29.349000000000046 83.60000000000036,29.479000000000042 83.60000000000036,29.479000000000042 C83.60000000000036,29.479000000000042 83.5,29.36500000000001 83.39999999999964,29.135999999999967 L82.70000000000073,27.245000000000005 L81.79999999999927,29.16700000000003 C81.70000000000073,29.375 81.60000000000036,29.479000000000042 81.60000000000036,29.479000000000042 C81.5,29.479000000000042 81.5,29.36500000000001 81.39999999999964,29.135999999999967 L80.29999999999927,26.400999999999954 C80.20000000000073,26.192999999999984 80.10000000000036,26.057999999999993 80.10000000000036,25.995000000000005 C80.0,25.932999999999993 80.0,25.895999999999958 79.89999999999964,25.885999999999967 L79.89999999999964,25.775999999999954 L81.29999999999927,25.775999999999954 L81.29999999999927,25.885999999999967 C81.20000000000073,25.90700000000004 81.10000000000036,25.934999999999945 81.0,25.97199999999998 C81.0,26.008000000000038 80.89999999999964,26.067999999999984 80.89999999999964,26.150999999999954 C80.89999999999964,26.235000000000014 81.0,26.317999999999984 81.0,26.400999999999954 L81.79999999999927,28.479000000000042 L82.5,26.885999999999967 M85.5,28.57299999999998 C85.5,28.479000000000042 85.5,28.394000000000005 85.5,28.315000000000055 C85.60000000000036,28.236999999999966 85.60000000000036,28.162000000000035 85.70000000000073,28.089000000000055 C85.70000000000073,28.015999999999963 85.79999999999927,27.951000000000022 85.79999999999927,27.894000000000005 C85.89999999999964,27.836000000000013 85.89999999999964,27.775999999999954 86.0,27.714000000000055 C86.10000000000036,27.650999999999954 86.20000000000073,27.599000000000046 86.29999999999927,27.557999999999993 C86.29999999999927,27.515999999999963 86.39999999999964,27.46900000000005 86.5,27.41700000000003 C86.70000000000073,27.36500000000001 86.79999999999927,27.32299999999998 86.79999999999927,27.29200000000003 C86.89999999999964,27.260999999999967 87.0,27.216000000000008 87.20000000000073,27.158999999999992 C87.29999999999927,27.101999999999975 87.39999999999964,27.057999999999993 87.5,27.025999999999954 L87.5,26.54200000000003 C87.5,26.104000000000042 87.29999999999927,25.885999999999967 86.89999999999964,25.885999999999967 C86.70000000000073,25.885999999999967 86.60000000000036,25.924999999999955 86.5,26.003000000000043 C86.39999999999964,26.081000000000017 86.29999999999927,26.172000000000025 86.29999999999927,26.275999999999954 C86.29999999999927,26.317999999999984 86.29999999999927,26.375 86.29999999999927,26.44799999999998 C86.39999999999964,26.520999999999958 86.39999999999964,26.567999999999984 86.39999999999964,26.589000000000055 C86.39999999999964,26.682999999999993 86.29999999999927,26.763000000000034 86.29999999999927,26.831000000000017 C86.20000000000073,26.899 86.10000000000036,26.932999999999993 86.0,26.932999999999993 C85.89999999999964,26.932999999999993 85.79999999999927,26.899 85.70000000000073,26.831000000000017 C85.70000000000073,26.763000000000034 85.60000000000036,26.682999999999993 85.60000000000036,26.589000000000055 C85.60000000000036,26.339000000000055 85.79999999999927,26.128000000000043 86.0,25.956000000000017 C86.29999999999927,25.783999999999992 86.60000000000036,25.69799999999998 87.0,25.69799999999998 C87.39999999999964,25.69799999999998 87.70000000000073,25.80200000000002 87.89999999999964,26.010999999999967 C88.0,26.21900000000005 88.10000000000036,26.537000000000035 88.10000000000036,26.964000000000055 L88.10000000000036,28.510999999999967 C88.10000000000036,28.687999999999988 88.10000000000036,28.809999999999945 88.20000000000073,28.878000000000043 C88.20000000000073,28.946000000000026 88.29999999999927,28.979000000000042 88.39999999999964,28.979000000000042 C88.5,28.979000000000042 88.60000000000036,28.92700000000002 88.70000000000073,28.82299999999998 L88.70000000000073,29.04200000000003 C88.60000000000036,29.19799999999998 88.39999999999964,29.30499999999995 88.29999999999927,29.361999999999966 C88.20000000000073,29.41999999999996 88.10000000000036,29.44799999999998 88.0,29.44799999999998 C87.79999999999927,29.44799999999998 87.70000000000073,29.400999999999954 87.60000000000036,29.307999999999993 C87.60000000000036,29.214000000000055 87.5,29.062999999999988 87.5,28.854000000000042 C87.0,29.25 86.70000000000073,29.44799999999998 86.29999999999927,29.44799999999998 C86.10000000000036,29.44799999999998 85.89999999999964,29.366999999999962 85.79999999999927,29.206000000000017 C85.60000000000036,29.04499999999996 85.5,28.833999999999946 85.5,28.57299999999998 M87.5,28.370000000000005 L87.5,27.214000000000055 C87.0,27.390999999999963 86.70000000000073,27.562999999999988 86.5,27.729000000000042 C86.29999999999927,27.895999999999958 86.20000000000073,28.09400000000005 86.20000000000073,28.32299999999998 C86.20000000000073,28.54200000000003 86.29999999999927,28.702999999999975 86.39999999999964,28.807999999999993 C86.5,28.912000000000035 86.60000000000036,28.964000000000055 86.70000000000073,28.964000000000055 C86.89999999999964,28.964000000000055 87.10000000000036,28.90700000000004 87.29999999999927,28.79200000000003 C87.39999999999964,28.74000000000001 87.39999999999964,28.687999999999988 87.39999999999964,28.635999999999967 C87.5,28.583999999999946 87.5,28.495000000000005 87.5,28.370000000000005 M91.20000000000073,26.44799999999998 C91.10000000000036,26.44799999999998 91.0,26.400999999999954 90.89999999999964,26.307999999999993 C90.70000000000073,26.214000000000055 90.70000000000073,26.16700000000003 90.60000000000036,26.16700000000003 C90.5,26.16700000000003 90.39999999999964,26.245000000000005 90.29999999999927,26.400999999999954 C90.10000000000036,26.557999999999993 90.10000000000036,26.702999999999975 90.10000000000036,26.839000000000055 L90.10000000000036,28.650999999999954 C90.10000000000036,28.879999999999995 90.10000000000036,29.033999999999992 90.20000000000073,29.111999999999966 C90.29999999999927,29.190000000000055 90.5,29.235000000000014 90.79999999999927,29.245000000000005 L90.79999999999927,29.370000000000005 L88.79999999999927,29.370000000000005 L88.79999999999927,29.245000000000005 C89.10000000000036,29.202999999999975 89.20000000000073,29.150999999999954 89.29999999999927,29.089000000000055 C89.39999999999964,29.025999999999954 89.39999999999964,28.895999999999958 89.39999999999964,28.69799999999998 L89.39999999999964,26.682999999999993 C89.39999999999964,26.504999999999995 89.39999999999964,26.379999999999995 89.29999999999927,26.307999999999993 C89.29999999999927,26.235000000000014 89.20000000000073,26.19799999999998 89.10000000000036,26.19799999999998 C89.0,26.19799999999998 88.89999999999964,26.208999999999946 88.79999999999927,26.229000000000042 L88.79999999999927,26.104000000000042 C89.29999999999927,25.96900000000005 89.70000000000073,25.833999999999946 90.0,25.69799999999998 L90.10000000000036,25.714000000000055 L90.10000000000036,26.41700000000003 C90.29999999999927,26.145999999999958 90.39999999999964,25.958999999999946 90.60000000000036,25.854000000000042 C90.70000000000073,25.75 90.89999999999964,25.69799999999998 91.0,25.69799999999998 C91.20000000000073,25.69799999999998 91.29999999999927,25.73199999999997 91.39999999999964,25.799999999999955 C91.39999999999964,25.866999999999962 91.5,25.96900000000005 91.5,26.104000000000042 C91.5,26.208999999999946 91.39999999999964,26.29200000000003 91.39999999999964,26.354000000000042 C91.29999999999927,26.41700000000003 91.29999999999927,26.44799999999998 91.20000000000073,26.44799999999998 M94.20000000000073,24.729000000000042 C94.10000000000036,24.729000000000042 94.0,24.69799999999998 93.89999999999964,24.635999999999967 C93.89999999999964,24.57299999999998 93.79999999999927,24.504999999999995 93.79999999999927,24.432999999999993 C93.79999999999927,24.360000000000014 93.70000000000073,24.29200000000003 93.60000000000036,24.229000000000042 C93.60000000000036,24.16700000000003 93.5,24.135999999999967 93.39999999999964,24.135999999999967 C93.10000000000036,24.135999999999967 92.89999999999964,24.370000000000005 92.89999999999964,24.839000000000055 L92.89999999999964,25.775999999999954 L93.89999999999964,25.775999999999954 L93.89999999999964,26.010999999999967 L92.89999999999964,26.010999999999967 L92.89999999999964,28.54200000000003 C92.89999999999964,28.833999999999946 93.0,29.020999999999958 93.0,29.104000000000042 C93.10000000000036,29.187999999999988 93.29999999999927,29.235000000000014 93.70000000000073,29.245000000000005 L93.70000000000073,29.370000000000005 L91.60000000000036,29.370000000000005 L91.60000000000036,29.245000000000005 C91.89999999999964,29.235000000000014 92.10000000000036,29.187999999999988 92.10000000000036,29.104000000000042 C92.20000000000073,29.020999999999958 92.29999999999927,28.833999999999946 92.29999999999927,28.54200000000003 L92.29999999999927,26.010999999999967 L91.60000000000036,26.010999999999967 L91.60000000000036,25.775999999999954 L92.29999999999927,25.775999999999954 C92.29999999999927,25.172000000000025 92.39999999999964,24.706000000000017 92.60000000000036,24.378000000000043 C92.79999999999927,24.049999999999955 93.20000000000073,23.885999999999967 93.70000000000073,23.885999999999967 C93.89999999999964,23.885999999999967 94.10000000000036,23.934999999999945 94.29999999999927,24.033999999999992 C94.39999999999964,24.133000000000038 94.5,24.254999999999995 94.5,24.400999999999954 C94.5,24.495000000000005 94.5,24.57299999999998 94.39999999999964,24.635999999999967 C94.29999999999927,24.69799999999998 94.29999999999927,24.729000000000042 94.20000000000073,24.729000000000042 M101.89999999999964,24.79200000000003 L99.79999999999927,29.370000000000005 L99.70000000000073,29.370000000000005 L97.70000000000073,24.979000000000042 L97.70000000000073,28.19799999999998 C97.70000000000073,28.604000000000042 97.79999999999927,28.873000000000047 97.79999999999927,29.003000000000043 C97.89999999999964,29.133000000000038 98.10000000000036,29.202999999999975 98.5,29.214000000000055 L98.5,29.370000000000005 L96.60000000000036,29.370000000000005 L96.60000000000036,29.214000000000055 C96.89999999999964,29.192999999999984 97.10000000000036,29.120000000000005 97.20000000000073,28.995000000000005 C97.29999999999927,28.870000000000005 97.29999999999927,28.604000000000042 97.29999999999927,28.19799999999998 L97.29999999999927,24.94799999999998 C97.29999999999927,24.65700000000004 97.29999999999927,24.46900000000005 97.20000000000073,24.385999999999967 C97.10000000000036,24.30200000000002 96.89999999999964,24.25 96.60000000000036,24.229000000000042 L96.60000000000036,24.07299999999998 L98.20000000000073,24.07299999999998 L100.0,28.120000000000005 L101.79999999999927,24.07299999999998 L103.39999999999964,24.07299999999998 L103.39999999999964,24.229000000000042 C103.10000000000036,24.260999999999967 102.89999999999964,24.317999999999984 102.79999999999927,24.400999999999954 C102.70000000000073,24.485000000000014 102.70000000000073,24.66700000000003 102.70000000000073,24.94799999999998 L102.70000000000073,28.495000000000005 C102.70000000000073,28.775999999999954 102.70000000000073,28.961000000000013 102.79999999999927,29.049999999999955 C102.89999999999964,29.138000000000034 103.10000000000036,29.192999999999984 103.39999999999964,29.214000000000055 L103.39999999999964,29.370000000000005 L101.10000000000036,29.370000000000005 L101.10000000000036,29.214000000000055 C101.5,29.192999999999984 101.70000000000073,29.135999999999967 101.70000000000073,29.04200000000003 C101.79999999999927,28.94799999999998 101.89999999999964,28.74000000000001 101.89999999999964,28.41700000000003 L101.89999999999964,24.79200000000003 M107.29999999999927,28.94799999999998 L107.29999999999927,29.07299999999998 C106.89999999999964,29.187999999999988 106.60000000000036,29.312999999999988 106.29999999999927,29.44799999999998 L106.20000000000073,29.432999999999993 L106.20000000000073,28.745000000000005 C106.20000000000073,28.765999999999963 106.10000000000036,28.815000000000055 106.10000000000036,28.894000000000005 C106.0,28.97199999999998 105.89999999999964,29.025999999999954 105.89999999999964,29.057999999999993 C105.89999999999964,29.089000000000055 105.79999999999927,29.135999999999967 105.70000000000073,29.19799999999998 C105.70000000000073,29.260999999999967 105.60000000000036,29.30499999999995 105.5,29.331000000000017 C105.5,29.35699999999997 105.39999999999964,29.383000000000038 105.29999999999927,29.408999999999992 C105.20000000000073,29.434999999999945 105.10000000000036,29.44799999999998 105.0,29.44799999999998 C104.79999999999927,29.44799999999998 104.5,29.351999999999975 104.29999999999927,29.158999999999992 C104.20000000000073,28.966000000000008 104.10000000000036,28.714000000000055 104.10000000000036,28.400999999999954 L104.10000000000036,26.385999999999967 C104.10000000000036,26.208999999999946 104.0,26.083999999999946 104.0,26.010999999999967 C103.89999999999964,25.937999999999988 103.79999999999927,25.895999999999958 103.60000000000036,25.885999999999967 L103.60000000000036,25.775999999999954 L104.79999999999927,25.775999999999954 L104.79999999999927,28.370000000000005 C104.79999999999927,28.525999999999954 104.79999999999927,28.663999999999987 104.89999999999964,28.783999999999992 C105.0,28.903999999999996 105.20000000000073,28.964000000000055 105.29999999999927,28.964000000000055 C105.39999999999964,28.964000000000055 105.39999999999964,28.956000000000017 105.5,28.940000000000055 C105.60000000000036,28.924999999999955 105.70000000000073,28.895999999999958 105.79999999999927,28.854000000000042 C105.89999999999964,28.812999999999988 106.0,28.741999999999962 106.10000000000036,28.644000000000005 C106.10000000000036,28.54499999999996 106.20000000000073,28.422000000000025 106.20000000000073,28.275999999999954 L106.20000000000073,26.400999999999954 C106.20000000000073,26.214000000000055 106.10000000000036,26.086000000000013 106.10000000000036,26.019000000000005 C106.0,25.951000000000022 105.79999999999927,25.912000000000035 105.60000000000036,25.900999999999954 L105.60000000000036,25.775999999999954 L106.79999999999927,25.775999999999954 L106.79999999999927,28.495000000000005 C106.79999999999927,28.682999999999993 106.89999999999964,28.80499999999995 106.89999999999964,28.861999999999966 C107.0,28.91999999999996 107.10000000000036,28.94799999999998 107.29999999999927,28.94799999999998 L107.29999999999927,28.94799999999998 M109.5,25.854000000000042 C109.60000000000036,25.854000000000042 109.60000000000036,25.827999999999975 109.70000000000073,25.775999999999954 L109.79999999999927,25.775999999999954 L109.79999999999927,26.854000000000042 L109.70000000000073,26.854000000000042 C109.60000000000036,26.5 109.5,26.248000000000047 109.29999999999927,26.09699999999998 C109.20000000000073,25.946000000000026 109.0,25.870000000000005 108.79999999999927,25.870000000000005 C108.60000000000036,25.870000000000005 108.5,25.922000000000025 108.39999999999964,26.025999999999954 C108.20000000000073,26.129999999999995 108.20000000000073,26.260999999999967 108.20000000000073,26.41700000000003 C108.20000000000073,26.645999999999958 108.29999999999927,26.827999999999975 108.5,26.964000000000055 L109.39999999999964,27.479000000000042 C109.60000000000036,27.625 109.79999999999927,27.770999999999958 109.89999999999964,27.91700000000003 C110.0,28.062999999999988 110.10000000000036,28.235000000000014 110.10000000000036,28.432999999999993 C110.10000000000036,28.702999999999975 110.0,28.940000000000055 109.70000000000073,29.144000000000005 C109.5,29.34699999999998 109.20000000000073,29.44799999999998 108.89999999999964,29.44799999999998 C108.79999999999927,29.44799999999998 108.60000000000036,29.424999999999955 108.39999999999964,29.378000000000043 C108.20000000000073,29.331000000000017 108.0,29.307999999999993 108.0,29.307999999999993 C107.89999999999964,29.307999999999993 107.79999999999927,29.339000000000055 107.79999999999927,29.400999999999954 L107.70000000000073,29.400999999999954 L107.70000000000073,28.150999999999954 L107.79999999999927,28.150999999999954 C107.89999999999964,28.525999999999954 108.0,28.79200000000003 108.10000000000036,28.94799999999998 C108.29999999999927,29.16700000000003 108.5,29.275999999999954 108.79999999999927,29.275999999999954 C109.0,29.275999999999954 109.20000000000073,29.224000000000046 109.29999999999927,29.120000000000005 C109.39999999999964,29.015999999999963 109.5,28.875 109.5,28.69799999999998 C109.5,28.458999999999946 109.39999999999964,28.260999999999967 109.10000000000036,28.104000000000042 L108.60000000000036,27.839000000000055 C108.29999999999927,27.640999999999963 108.0,27.456000000000017 107.89999999999964,27.283999999999992 C107.79999999999927,27.111999999999966 107.70000000000073,26.912000000000035 107.70000000000073,26.682999999999993 C107.70000000000073,26.390999999999963 107.79999999999927,26.153999999999996 108.0,25.97199999999998 C108.20000000000073,25.788999999999987 108.5,25.69799999999998 108.79999999999927,25.69799999999998 C108.89999999999964,25.69799999999998 109.10000000000036,25.724000000000046 109.29999999999927,25.775999999999954 C109.39999999999964,25.827999999999975 109.5,25.854000000000042 109.5,25.854000000000042 M110.79999999999927,26.229000000000042 C110.70000000000073,26.229000000000042 110.60000000000036,26.235000000000014 110.5,26.245000000000005 L110.5,26.135999999999967 C110.89999999999964,26.03200000000004 111.29999999999927,25.885999999999967 111.70000000000073,25.69799999999998 L111.79999999999927,25.714000000000055 L111.79999999999927,28.557999999999993 C111.79999999999927,28.839000000000055 111.79999999999927,29.019000000000005 111.89999999999964,29.09699999999998 C111.89999999999964,29.174999999999955 112.10000000000036,29.224000000000046 112.39999999999964,29.245000000000005 L112.39999999999964,29.370000000000005 L110.5,29.370000000000005 L110.5,29.245000000000005 C110.70000000000073,29.235000000000014 110.89999999999964,29.187999999999988 111.0,29.104000000000042 C111.10000000000036,29.020999999999958 111.10000000000036,28.839000000000055 111.10000000000036,28.557999999999993 L111.10000000000036,26.69799999999998 C111.10000000000036,26.520999999999958 111.10000000000036,26.399 111.0,26.331000000000017 C111.0,26.263000000000034 110.89999999999964,26.229000000000042 110.79999999999927,26.229000000000042 M111.39999999999964,23.900999999999954 C111.5,23.900999999999954 111.60000000000036,23.942999999999984 111.70000000000073,24.025999999999954 C111.70000000000073,24.110000000000014 111.79999999999927,24.208999999999946 111.79999999999927,24.32299999999998 C111.79999999999927,24.437999999999988 111.70000000000073,24.533999999999992 111.70000000000073,24.611999999999966 C111.60000000000036,24.690000000000055 111.5,24.729000000000042 111.39999999999964,24.729000000000042 C111.20000000000073,24.729000000000042 111.10000000000036,24.687999999999988 111.10000000000036,24.604000000000042 C111.0,24.520999999999958 111.0,24.424999999999955 111.0,24.315000000000055 C111.0,24.206000000000017 111.0,24.110000000000014 111.10000000000036,24.025999999999954 C111.10000000000036,23.942999999999984 111.20000000000073,23.900999999999954 111.39999999999964,23.900999999999954 M112.79999999999927,27.66700000000003 C112.79999999999927,27.07299999999998 112.89999999999964,26.59699999999998 113.29999999999927,26.236999999999966 C113.60000000000036,25.878000000000043 114.0,25.69799999999998 114.5,25.69799999999998 C114.79999999999927,25.69799999999998 115.10000000000036,25.778999999999996 115.39999999999964,25.940000000000055 C115.60000000000036,26.101999999999975 115.70000000000073,26.297000000000025 115.70000000000073,26.525999999999954 C115.70000000000073,26.610000000000014 115.70000000000073,26.684999999999945 115.60000000000036,26.753000000000043 C115.5,26.821000000000026 115.39999999999964,26.854000000000042 115.29999999999927,26.854000000000042 C115.20000000000073,26.854000000000042 115.0,26.735000000000014 115.0,26.495000000000005 L114.89999999999964,26.32299999999998 C114.89999999999964,26.16700000000003 114.79999999999927,26.062999999999988 114.79999999999927,26.010999999999967 C114.70000000000073,25.958999999999946 114.60000000000036,25.932999999999993 114.5,25.932999999999993 C114.10000000000036,25.932999999999993 113.89999999999964,26.059999999999945 113.70000000000073,26.315000000000055 C113.5,26.571000000000026 113.39999999999964,26.90700000000004 113.39999999999964,27.32299999999998 C113.39999999999964,27.770999999999958 113.5,28.140999999999963 113.70000000000073,28.432999999999993 C113.89999999999964,28.724000000000046 114.20000000000073,28.870000000000005 114.60000000000036,28.870000000000005 C114.79999999999927,28.870000000000005 115.0,28.812999999999988 115.20000000000073,28.69799999999998 C115.29999999999927,28.583999999999946 115.5,28.390999999999963 115.70000000000073,28.120000000000005 L115.79999999999927,28.182999999999993 C115.79999999999927,28.297000000000025 115.70000000000073,28.388000000000034 115.70000000000073,28.456000000000017 C115.60000000000036,28.524 115.60000000000036,28.628000000000043 115.5,28.769000000000005 C115.39999999999964,28.908999999999992 115.29999999999927,29.020999999999958 115.20000000000073,29.104000000000042 C115.10000000000036,29.187999999999988 114.89999999999964,29.265999999999963 114.79999999999927,29.339000000000055 C114.60000000000036,29.412000000000035 114.39999999999964,29.44799999999998 114.29999999999927,29.44799999999998 C113.79999999999927,29.44799999999998 113.5,29.28200000000004 113.20000000000073,28.94799999999998 C112.89999999999964,28.61500000000001 112.79999999999927,28.187999999999988 112.79999999999927,27.66700000000003 M117.10000000000036,28.57299999999998 C117.20000000000073,28.57299999999998 117.29999999999927,28.616999999999962 117.39999999999964,28.706000000000017 C117.5,28.79499999999996 117.5,28.900999999999954 117.5,29.025999999999954 C117.5,29.140999999999963 117.5,29.241999999999962 117.39999999999964,29.331000000000017 C117.29999999999927,29.41999999999996 117.20000000000073,29.464000000000055 117.10000000000036,29.464000000000055 C117.0,29.464000000000055 116.89999999999964,29.41999999999996 116.79999999999927,29.331000000000017 C116.70000000000073,29.241999999999962 116.70000000000073,29.140999999999963 116.70000000000073,29.025999999999954 C116.70000000000073,28.900999999999954 116.70000000000073,28.79499999999996 116.79999999999927,28.706000000000017 C116.89999999999964,28.616999999999962 117.0,28.57299999999998 117.10000000000036,28.57299999999998" />
</svg>
