<?xml version="1.0" encoding="UTF-8" standalone="yes"?>
<svg width="256.0px" height="256.0px" xmlns="http://www.w3.org/2000/svg" xmlns:xlink="http://www.w3.org/1999/xlink" version="1.2" baseProfile="tiny">
<path d="M33.29999999999927,239.581 C33.29999999999927,239.831 33.20000000000073,239.956 32.899999999999636,239.956 C32.70000000000073,239.956 32.5,239.831 32.5,239.581 L32.5,236.69 L30.899999999999636,237.315 L30.899999999999636,240.471 C30.899999999999636,240.721 30.799999999999272,240.846 30.5,240.846 C30.299999999999272,240.846 30.100000000000364,240.721 30.100000000000364,240.471 L30.100000000000364,237.565 L29.5,237.8 C29.5,237.81 29.5,237.815 29.399999999999636,237.815 C29.299999999999272,237.815 29.200000000000728,237.776 29.100000000000364,237.698 C29.0,237.62 29.0,237.529 29.0,237.425 L29.0,236.221 C29.0,236.024 29.100000000000364,235.899 29.200000000000728,235.846 L30.100000000000364,235.534 L30.100000000000364,232.331 L29.5,232.55 C29.5,232.56 29.5,232.565 29.399999999999636,232.565 C29.299999999999272,232.565 29.200000000000728,232.526 29.100000000000364,232.448 C29.0,232.37 29.0,232.279 29.0,232.175 L29.0,230.956 C29.0,230.779 29.100000000000364,230.664 29.200000000000728,230.612 L30.100000000000364,230.253 L30.100000000000364,227.112 C30.100000000000364,226.862 30.299999999999272,226.737 30.5,226.737 C30.799999999999272,226.737 30.899999999999636,226.862 30.899999999999636,227.112 L30.899999999999636,230.003 L32.5,229.378 L32.5,226.221 C32.5,225.971 32.70000000000073,225.846 32.899999999999636,225.846 C33.20000000000073,225.846 33.29999999999927,225.971 33.29999999999927,226.221 L33.29999999999927,229.128 L33.899999999999636,228.893 C33.899999999999636,228.883 34.0,228.878 34.100000000000364,228.878 C34.20000000000073,228.878 34.29999999999927,228.914 34.399999999999636,228.987 C34.399999999999636,229.07 34.5,229.164 34.5,229.268 L34.5,230.471 C34.5,230.659 34.399999999999636,230.784 34.20000000000073,230.846 L33.29999999999927,231.159 L33.29999999999927,234.362 L33.899999999999636,234.143 C33.899999999999636,234.133 34.0,234.128 34.100000000000364,234.128 C34.20000000000073,234.128 34.29999999999927,234.169 34.399999999999636,234.253 C34.399999999999636,234.326 34.5,234.414 34.5,234.518 L34.5,235.737 C34.5,235.904 34.399999999999636,236.018 34.20000000000073,236.081 L33.29999999999927,236.44 L33.29999999999927,239.581 M32.5,231.456 L30.899999999999636,232.034 L30.899999999999636,235.237 L32.5,234.659 L32.5,231.456" />
<path d="M33.29999999999927,189.581 C33.29999999999927,189.831 33.20000000000073,189.956 32.899999999999636,189.956 C32.70000000000073,189.956 32.5,189.831 32.5,189.581 L32.5,186.69 L30.899999999999636,187.315 L30.899999999999636,190.471 C30.899999999999636,190.721 30.799999999999272,190.846 30.5,190.846 C30.299999999999272,190.846 30.100000000000364,190.721 30.100000000000364,190.471 L30.100000000000364,187.565 L29.5,187.8 C29.5,187.81 29.5,187.815 29.399999999999636,187.815 C29.299999999999272,187.815 29.200000000000728,187.776 29.100000000000364,187.698 C29.0,187.62 29.0,187.529 29.0,187.425 L29.0,186.221 C29.0,186.024 29.100000000000364,185.899 29.200000000000728,185.846 L30.100000000000364,185.534 L30.100000000000364,182.331 L29.5,182.55 C29.5,182.56 29.5,182.565 29.399999999999636,182.565 C29.299999999999272,182.565 29.200000000000728,182.526 29.100000000000364,182.448 C29.0,182.37 29.0,182.279 29.0,182.175 L29.0,180.956 C29.0,180.779 29.100000000000364,180.664 29.200000000000728,180.612 L30.100000000000364,180.253 L30.100000000000364,177.112 C30.100000000000364,176.862 30.299999999999272,176.737 30.5,176.737 C30.799999999999272,176.737 30.899999999999636,176.862 30.899999999999636,177.112 L30.899999999999636,180.003 L32.5,179.378 L32.5,176.221 C32.5,175.971 32.70000000000073,175.846 32.899999999999636,175.846 C33.20000000000073,175.846 33.29999999999927,175.971 33.29999999999927,176.221 L33.29999999999927,179.128 L33.899999999999636,178.893 C33.899999999999636,178.883 34.0,178.878 34.100000000000364,178.878 C34.20000000000073,178.878 34.29999999999927,178.914 34.399999999999636,178.987 C34.399999999999636,179.07 34.5,179.164 34.5,179.268 L34.5,180.471 C34.5,180.659 34.399999999999636,180.784 34.20000000000073,180.846 L33.29999999999927,181.159 L33.29999999999927,184.362 L33.899999999999636,184.143 C33.899999999999636,184.133 34.0,184.128 34.100000000000364,184.128 C34.20000000000073,184.128 34.29999999999927,184.169 34.399999999999636,184.253 C34.399999999999636,184.326 34.5,184.414 34.5,184.518 L34.5,185.737 C34.5,185.904 34.399999999999636,186.018 34.20000000000073,186.081 L33.29999999999927,186.44 L33.29999999999927,189.581 M32.5,181.456 L30.899999999999636,182.034 L30.899999999999636,185.237 L32.5,184.659 L32.5,181.456" />
<path d="M24.399999999999636,187.518 L24.399999999999636,189.065 C24.399999999999636,189.617 24.399999999999636,190.055 24.399999999999636,190.378 C24.899999999999636,190.013 25.200000000000728,189.742 25.399999999999636,189.565 C25.600000000000364,189.357 25.799999999999272,189.068 26.0,188.698 C26.200000000000728,188.328 26.299999999999272,187.961 26.299999999999272,187.596 C26.299999999999272,187.232 26.200000000000728,186.919 26.100000000000364,186.659 C25.899999999999636,186.399 25.700000000000728,186.268 25.399999999999636,186.268 C25.100000000000364,186.268 24.899999999999636,186.388 24.700000000000728,186.628 C24.5,186.888 24.399999999999636,187.185 24.399999999999636,187.518 M23.5,191.096 L23.299999999999272,179.206 C23.5,179.102 23.700000000000728,179.05 23.799999999999272,179.05 C24.0,179.05 24.200000000000728,179.102 24.399999999999636,179.206 L24.200000000000728,186.096 C24.700000000000728,185.638 25.399999999999636,185.409 26.100000000000364,185.409 C26.600000000000364,185.409 27.0,185.617 27.299999999999272,186.034 C27.700000000000728,186.451 27.799999999999272,186.93 27.799999999999272,187.471 C27.799999999999272,187.805 27.700000000000728,188.164 27.5,188.55 C27.299999999999272,188.893 27.100000000000364,189.164 26.799999999999272,189.362 C26.700000000000728,189.466 26.399999999999636,189.727 25.799999999999272,190.143 C25.700000000000728,190.258 25.5,190.393 25.299999999999272,190.55 C25.100000000000364,190.706 24.899999999999636,190.805 24.899999999999636,190.846 C24.799999999999272,190.899 24.700000000000728,191.003 24.600000000000364,191.159 C24.5,191.294 24.399999999999636,191.404 24.299999999999272,191.487 C24.200000000000728,191.57 24.100000000000364,191.612 24.0,191.612 C23.899999999999636,191.612 23.799999999999272,191.565 23.700000000000728,191.471 C23.600000000000364,191.378 23.5,191.253 23.5,191.096" />
<path d="M71.29999999999927,232.628 L73.70000000000073,230.675 C73.70000000000073,230.622 73.79999999999927,230.596 73.79999999999927,230.596 C73.89999999999964,230.596 74.0,230.622 74.10000000000036,230.675 L74.5,230.987 C74.5,231.05 74.60000000000036,231.128 74.60000000000036,231.221 C74.60000000000036,231.284 74.5,231.362 74.5,231.456 L72.10000000000036,233.346 L74.5,235.237 C74.5,235.31 74.60000000000036,235.391 74.60000000000036,235.479 C74.60000000000036,235.568 74.5,235.643 74.5,235.706 L74.10000000000036,236.018 C74.0,236.07 73.89999999999964,236.096 73.79999999999927,236.096 C73.79999999999927,236.096 73.70000000000073,236.07 73.70000000000073,236.018 L71.29999999999927,234.065 L68.79999999999927,236.018 C68.79999999999927,236.07 68.70000000000073,236.096 68.70000000000073,236.096 C68.60000000000036,236.096 68.60000000000036,236.07 68.5,236.018 L68.10000000000036,235.706 C68.0,235.643 68.0,235.565 68.0,235.471 C68.0,235.409 68.0,235.331 68.10000000000036,235.237 L70.39999999999964,233.346 L68.10000000000036,231.456 C68.0,231.383 68.0,231.302 68.0,231.214 C68.0,231.125 68.0,231.05 68.10000000000036,230.987 L68.5,230.675 C68.60000000000036,230.622 68.60000000000036,230.596 68.70000000000073,230.596 C68.70000000000073,230.596 68.79999999999927,230.622 68.79999999999927,230.675 L71.29999999999927,232.628" />
<path d="M72.39999999999964,173.096 C73.0,173.096 73.5,173.258 74.0,173.581 C74.39999999999964,173.935 74.60000000000036,174.378 74.60000000000036,174.909 C74.60000000000036,175.805 74.10000000000036,176.643 73.20000000000073,177.425 C72.20000000000073,178.206 71.20000000000073,178.596 70.20000000000073,178.596 C69.5,178.596 69.0,178.435 68.60000000000036,178.112 C68.20000000000073,177.758 68.0,177.315 68.0,176.784 C68.0,175.888 68.39999999999964,175.05 69.39999999999964,174.268 C70.29999999999927,173.487 71.29999999999927,173.096 72.39999999999964,173.096" />
<path d="M72.39999999999964,180.596 C73.0,180.596 73.5,180.758 74.0,181.081 C74.39999999999964,181.435 74.60000000000036,181.878 74.60000000000036,182.409 C74.60000000000036,183.305 74.10000000000036,184.143 73.20000000000073,184.925 C72.20000000000073,185.706 71.20000000000073,186.096 70.20000000000073,186.096 C69.5,186.096 69.0,185.935 68.60000000000036,185.612 C68.20000000000073,185.258 68.0,184.815 68.0,184.284 C68.0,183.388 68.39999999999964,182.55 69.39999999999964,181.768 C70.29999999999927,180.987 71.29999999999927,180.596 72.39999999999964,180.596" />
<path d="M72.39999999999964,185.596 C73.0,185.596 73.5,185.758 74.0,186.081 C74.39999999999964,186.435 74.60000000000036,186.878 74.60000000000036,187.409 C74.60000000000036,188.305 74.10000000000036,189.143 73.20000000000073,189.925 C72.20000000000073,190.706 71.20000000000073,191.096 70.20000000000073,191.096 C69.5,191.096 69.0,190.935 68.60000000000036,190.612 C68.20000000000073,190.258 68.0,189.815 68.0,189.284 C68.0,188.388 68.39999999999964,187.55 69.39999999999964,186.768 C70.29999999999927,185.987 71.29999999999927,185.596 72.39999999999964,185.596" />
<path d="M38.899999999999636,232.628 L41.29999999999927,230.675 C41.29999999999927,230.622 41.399999999999636,230.596 41.5,230.596 C41.5,230.596 41.600000000000364,230.622 41.70000000000073,230.675 L42.100000000000364,230.987 C42.100000000000364,231.05 42.20000000000073,231.128 42.20000000000073,231.221 C42.20000000000073,231.284 42.100000000000364,231.362 42.100000000000364,231.456 L39.70000000000073,233.346 L42.100000000000364,235.237 C42.100000000000364,235.31 42.20000000000073,235.391 42.20000000000073,235.479 C42.20000000000073,235.568 42.100000000000364,235.643 42.100000000000364,235.706 L41.70000000000073,236.018 C41.600000000000364,236.07 41.5,236.096 41.5,236.096 C41.399999999999636,236.096 41.29999999999927,236.07 41.29999999999927,236.018 L38.899999999999636,234.065 L36.5,236.018 C36.399999999999636,236.07 36.29999999999927,236.096 36.29999999999927,236.096 C36.20000000000073,236.096 36.20000000000073,236.07 36.100000000000364,236.018 L35.70000000000073,235.706 C35.600000000000364,235.643 35.600000000000364,235.565 35.600000000000364,235.471 C35.600000000000364,235.409 35.600000000000364,235.331 35.70000000000073,235.237 L38.0,233.346 L35.70000000000073,231.456 C35.600000000000364,231.383 35.600000000000364,231.302 35.600000000000364,231.214 C35.600000000000364,231.125 35.600000000000364,231.05 35.70000000000073,230.987 L36.100000000000364,230.675 C36.20000000000073,230.622 36.20000000000073,230.596 36.29999999999927,230.596 C36.29999999999927,230.596 36.399999999999636,230.622 36.5,230.675 L38.899999999999636,232.628" />
<path d="M40.0,173.096 C40.600000000000364,173.096 41.100000000000364,173.258 41.600000000000364,173.581 C42.0,173.935 42.20000000000073,174.378 42.20000000000073,174.909 C42.20000000000073,175.805 41.70000000000073,176.643 40.79999999999927,177.425 C39.79999999999927,178.206 38.79999999999927,178.596 37.79999999999927,178.596 C37.100000000000364,178.596 36.600000000000364,178.435 36.20000000000073,178.112 C35.79999999999927,177.758 35.600000000000364,177.315 35.600000000000364,176.784 C35.600000000000364,175.888 36.0,175.05 37.0,174.268 C37.899999999999636,173.487 38.899999999999636,173.096 40.0,173.096" />
<path d="M40.0,180.596 C40.600000000000364,180.596 41.100000000000364,180.758 41.600000000000364,181.081 C42.0,181.435 42.20000000000073,181.878 42.20000000000073,182.409 C42.20000000000073,183.305 41.70000000000073,184.143 40.79999999999927,184.925 C39.79999999999927,185.706 38.79999999999927,186.096 37.79999999999927,186.096 C37.100000000000364,186.096 36.600000000000364,185.935 36.20000000000073,185.612 C35.79999999999927,185.258 35.600000000000364,184.815 35.600000000000364,184.284 C35.600000000000364,183.388 36.0,182.55 37.0,181.768 C37.899999999999636,180.987 38.899999999999636,180.596 40.0,180.596" />
<path d="M40.0,185.596 C40.600000000000364,185.596 41.100000000000364,185.758 41.600000000000364,186.081 C42.0,186.435 42.20000000000073,186.878 42.20000000000073,187.409 C42.20000000000073,188.305 41.70000000000073,189.143 40.79999999999927,189.925 C39.79999999999927,190.706 38.79999999999927,191.096 37.79999999999927,191.096 C37.100000000000364,191.096 36.600000000000364,190.935 36.20000000000073,190.612 C35.79999999999927,190.258 35.600000000000364,189.815 35.600000000000364,189.284 C35.600000000000364,188.388 36.0,187.55 37.0,186.768 C37.899999999999636,185.987 38.899999999999636,185.596 40.0,185.596" />
<path d="M40.0,75.5965 C40.600000000000364,75.5965 41.100000000000364,75.7579 41.600000000000364,76.0808 C42.0,76.435 42.20000000000073,76.8777 42.20000000000073,77.409 C42.20000000000073,78.3048 41.70000000000073,79.1433 40.79999999999927,79.9246 C39.79999999999927,80.7058 38.79999999999927,81.0965 37.79999999999927,81.0965 C37.100000000000364,81.0965 36.600000000000364,80.935 36.20000000000073,80.6121 C35.79999999999927,80.2579 35.600000000000364,79.8152 35.600000000000364,79.284 C35.600000000000364,78.3881 36.0,77.5496 37.0,76.7683 C37.899999999999636,75.9871 38.899999999999636,75.5965 40.0,75.5965" />
<path d="M40.0,83.0965 C40.600000000000364,83.0965 41.100000000000364,83.2579 41.600000000000364,83.5808 C42.0,83.935 42.20000000000073,84.3777 42.20000000000073,84.909 C42.20000000000073,85.8048 41.70000000000073,86.6433 40.79999999999927,87.4246 C39.79999999999927,88.2058 38.79999999999927,88.5965 37.79999999999927,88.5965 C37.100000000000364,88.5965 36.600000000000364,88.435 36.20000000000073,88.1121 C35.79999999999927,87.7579 35.600000000000364,87.3152 35.600000000000364,86.784 C35.600000000000364,85.8881 36.0,85.0496 37.0,84.2683 C37.899999999999636,83.4871 38.899999999999636,83.0965 40.0,83.0965" />
<path d="M40.0,53.0965 C40.600000000000364,53.0965 41.100000000000364,53.2579 41.600000000000364,53.5808 C42.0,53.935 42.20000000000073,54.3777 42.20000000000073,54.909 C42.20000000000073,55.8048 41.70000000000073,56.6433 40.79999999999927,57.4246 C39.79999999999927,58.2058 38.79999999999927,58.5965 37.79999999999927,58.5965 C37.100000000000364,58.5965 36.600000000000364,58.435 36.20000000000073,58.1121 C35.79999999999927,57.7579 35.600000000000364,57.3152 35.600000000000364,56.784 C35.600000000000364,55.8881 36.0,55.0496 37.0,54.2683 C37.899999999999636,53.4871 38.899999999999636,53.0965 40.0,53.0965" />
<path d="M40.0,60.5965 C40.600000000000364,60.5965 41.100000000000364,60.7579 41.600000000000364,61.0808 C42.0,61.435 42.20000000000073,61.8777 42.20000000000073,62.409 C42.20000000000073,63.3048 41.70000000000073,64.1433 40.79999999999927,64.9246 C39.79999999999927,65.7058 38.79999999999927,66.0965 37.79999999999927,66.0965 C37.100000000000364,66.0965 36.600000000000364,65.935 36.20000000000073,65.6121 C35.79999999999927,65.2579 35.600000000000364,64.8152 35.600000000000364,64.284 C35.600000000000364,63.3881 36.0,62.5496 37.0,61.7683 C37.899999999999636,60.9871 38.899999999999636,60.5965 40.0,60.5965" />
<path d="M7.600000000000364,75.5965 C8.200000000000728,75.5965 8.700000000000728,75.7579 9.200000000000728,76.0808 C9.600000000000364,76.435 9.799999999999272,76.8777 9.799999999999272,77.409 C9.799999999999272,78.3048 9.299999999999272,79.1433 8.399999999999636,79.9246 C7.5,80.7058 6.399999999999636,81.0965 5.399999999999636,81.0965 C4.700000000000728,81.0965 4.200000000000728,80.935 3.7999999999992724,80.6121 C3.399999999999636,80.2579 3.2000000000007276,79.8152 3.2000000000007276,79.284 C3.2000000000007276,78.3881 3.7000000000007276,77.5496 4.600000000000364,76.7683 C5.5,75.9871 6.5,75.5965 7.600000000000364,75.5965" />
<path d="M7.600000000000364,83.0965 C8.200000000000728,83.0965 8.700000000000728,83.2579 9.200000000000728,83.5808 C9.600000000000364,83.935 9.799999999999272,84.3777 9.799999999999272,84.909 C9.799999999999272,85.8048 9.299999999999272,86.6433 8.399999999999636,87.4246 C7.5,88.2058 6.399999999999636,88.5965 5.399999999999636,88.5965 C4.700000000000728,88.5965 4.200000000000728,88.435 3.7999999999992724,88.1121 C3.399999999999636,87.7579 3.2000000000007276,87.3152 3.2000000000007276,86.784 C3.2000000000007276,85.8881 3.7000000000007276,85.0496 4.600000000000364,84.2683 C5.5,83.4871 6.5,83.0965 7.600000000000364,83.0965" />
<path d="M7.600000000000364,53.0965 C8.200000000000728,53.0965 8.700000000000728,53.2579 9.200000000000728,53.5808 C9.600000000000364,53.935 9.799999999999272,54.3777 9.799999999999272,54.909 C9.799999999999272,55.8048 9.299999999999272,56.6433 8.399999999999636,57.4246 C7.5,58.2058 6.399999999999636,58.5965 5.399999999999636,58.5965 C4.700000000000728,58.5965 4.200000000000728,58.435 3.7999999999992724,58.1121 C3.399999999999636,57.7579 3.2000000000007276,57.3152 3.2000000000007276,56.784 C3.2000000000007276,55.8881 3.7000000000007276,55.0496 4.600000000000364,54.2683 C5.5,53.4871 6.5,53.0965 7.600000000000364,53.0965" />
<path d="M7.600000000000364,60.5965 C8.200000000000728,60.5965 8.700000000000728,60.7579 9.200000000000728,61.0808 C9.600000000000364,61.435 9.799999999999272,61.8777 9.799999999999272,62.409 C9.799999999999272,63.3048 9.299999999999272,64.1433 8.399999999999636,64.9246 C7.5,65.7058 6.399999999999636,66.0965 5.399999999999636,66.0965 C4.700000000000728,66.0965 4.200000000000728,65.935 3.7999999999992724,65.6121 C3.399999999999636,65.2579 3.2000000000007276,64.8152 3.2000000000007276,64.284 C3.2000000000007276,63.3881 3.7000000000007276,62.5496 4.600000000000364,61.7683 C5.5,60.9871 6.5,60.5965 7.600000000000364,60.5965" />
<path d="M35.600000000000364,244.596 L68.60000000000036,244.596 L68.60000000000036,247.096 L35.600000000000364,247.096 L35.600000000000364,244.596" />
<path d="M41.5,161.671 L74.60000000000036,162.096 L74.60000000000036,164.596 L41.5,164.171 L41.5,161.671" />
<path d="M156.20000000000073,48.3777 C156.70000000000073,48.7319 157.0,49.0287 157.20000000000073,49.2683 C157.39999999999964,49.5079 157.5,49.784 157.5,50.0965 C157.5,50.5131 157.29999999999927,50.8439 157.0,51.0886 C156.70000000000073,51.3334 156.39999999999964,51.4558 155.89999999999964,51.4558 C155.39999999999964,51.4558 155.0,51.3334 154.79999999999927,51.0886 C154.5,50.8439 154.29999999999927,50.5235 154.29999999999927,50.1277 C154.29999999999927,49.8569 154.39999999999964,49.6303 154.5,49.448 C154.70000000000073,49.2657 154.89999999999964,49.0131 155.39999999999964,48.6902 C154.89999999999964,48.3152 154.70000000000073,48.0392 154.60000000000036,47.8621 C154.39999999999964,47.685 154.39999999999964,47.4662 154.39999999999964,47.2058 C154.39999999999964,46.8412 154.5,46.5366 154.79999999999927,46.2918 C155.10000000000036,46.047 155.5,45.9246 155.89999999999964,45.9246 C156.29999999999927,45.9246 156.60000000000036,46.0314 156.89999999999964,46.2449 C157.10000000000036,46.4584 157.29999999999927,46.7371 157.29999999999927,47.0808 C157.29999999999927,47.3517 157.20000000000073,47.5808 157.0,47.7683 C156.89999999999964,47.9558 156.60000000000036,48.159 156.20000000000073,48.3777 M155.60000000000036,48.8465 C155.29999999999927,49.034 155.20000000000073,49.2189 155.10000000000036,49.4011 C155.0,49.5834 155.0,49.8048 155.0,50.0652 C155.0,50.409 155.0,50.6876 155.20000000000073,50.9011 C155.39999999999964,51.1147 155.60000000000036,51.2215 156.0,51.2215 C156.20000000000073,51.2215 156.39999999999964,51.1407 156.60000000000036,50.9793 C156.70000000000073,50.8178 156.79999999999927,50.6069 156.79999999999927,50.3465 C156.79999999999927,50.2631 156.79999999999927,50.1824 156.79999999999927,50.1043 C156.79999999999927,50.0261 156.79999999999927,49.961 156.70000000000073,49.909 C156.70000000000073,49.8569 156.70000000000073,49.7944 156.60000000000036,49.7215 C156.60000000000036,49.6485 156.5,49.5939 156.5,49.5574 C156.5,49.5209 156.39999999999964,49.4636 156.29999999999927,49.3855 C156.20000000000073,49.3074 156.20000000000073,49.2527 156.10000000000036,49.2215 C156.10000000000036,49.1902 156.0,49.1303 155.89999999999964,49.0418 C155.70000000000073,48.9532 155.60000000000036,48.8881 155.60000000000036,48.8465 M156.0,48.2371 C156.0,48.2267 156.0,48.198 156.10000000000036,48.1511 C156.20000000000073,48.1043 156.20000000000073,48.0678 156.20000000000073,48.0418 C156.29999999999927,48.0157 156.29999999999927,47.9767 156.39999999999964,47.9246 C156.39999999999964,47.8725 156.5,47.8204 156.5,47.7683 C156.5,47.7162 156.60000000000036,47.6537 156.60000000000036,47.5808 C156.60000000000036,47.5079 156.70000000000073,47.4272 156.70000000000073,47.3386 C156.70000000000073,47.2501 156.70000000000073,47.159 156.70000000000073,47.0652 C156.70000000000073,46.7944 156.60000000000036,46.5756 156.5,46.409 C156.29999999999927,46.2423 156.10000000000036,46.159 155.79999999999927,46.159 C155.60000000000036,46.159 155.39999999999964,46.2345 155.20000000000073,46.3855 C155.10000000000036,46.5366 155.0,46.7267 155.0,46.9558 C155.0,47.1746 155.10000000000036,47.3829 155.20000000000073,47.5808 C155.39999999999964,47.7787 155.60000000000036,47.9975 156.0,48.2371 M161.10000000000036,50.6902 C160.79999999999927,51.2006 160.39999999999964,51.4558 159.79999999999927,51.4558 C159.29999999999927,51.4558 158.89999999999964,51.1954 158.5,50.6746 C158.20000000000073,50.1537 158.0,49.4819 158.0,48.659 C158.0,47.8881 158.20000000000073,47.2423 158.5,46.7215 C158.89999999999964,46.2006 159.29999999999927,45.9402 159.89999999999964,45.9402 C160.39999999999964,45.9402 160.79999999999927,46.1954 161.10000000000036,46.7058 C161.39999999999964,47.2162 161.60000000000036,47.8829 161.60000000000036,48.7058 C161.60000000000036,49.5183 161.39999999999964,50.1798 161.10000000000036,50.6902 M159.79999999999927,46.1433 C159.10000000000036,46.1433 158.79999999999927,47.0079 158.79999999999927,48.7371 C158.79999999999927,50.4142 159.10000000000036,51.2527 159.79999999999927,51.2527 C160.5,51.2527 160.89999999999964,50.409 160.89999999999964,48.7215 C160.89999999999964,47.8881 160.79999999999927,47.2501 160.60000000000036,46.8074 C160.39999999999964,46.3647 160.20000000000073,46.1433 159.79999999999927,46.1433" />
<path d="M191.39999999999964,170.018 L191.39999999999964,171.565 C191.39999999999964,172.117 191.5,172.555 191.5,172.878 C191.89999999999964,172.513 192.29999999999927,172.242 192.39999999999964,172.065 C192.60000000000036,171.857 192.89999999999964,171.568 193.10000000000036,171.198 C193.29999999999927,170.828 193.39999999999964,170.461 193.39999999999964,170.096 C193.39999999999964,169.732 193.29999999999927,169.419 193.10000000000036,169.159 C193.0,168.899 192.79999999999927,168.768 192.5,168.768 C192.20000000000073,168.768 191.89999999999964,168.888 191.70000000000073,169.128 C191.5,169.388 191.39999999999964,169.685 191.39999999999964,170.018 M190.60000000000036,173.596 L190.39999999999964,161.706 C190.5,161.602 190.70000000000073,161.55 190.89999999999964,161.55 C191.10000000000036,161.55 191.29999999999927,161.602 191.5,161.706 L191.29999999999927,168.596 C191.79999999999927,168.138 192.39999999999964,167.909 193.10000000000036,167.909 C193.60000000000036,167.909 194.10000000000036,168.117 194.39999999999964,168.534 C194.70000000000073,168.951 194.89999999999964,169.43 194.89999999999964,169.971 C194.89999999999964,170.305 194.79999999999927,170.664 194.60000000000036,171.05 C194.39999999999964,171.393 194.20000000000073,171.664 193.89999999999964,171.862 C193.79999999999927,171.966 193.5,172.227 192.89999999999964,172.643 C192.79999999999927,172.758 192.60000000000036,172.893 192.39999999999964,173.05 C192.20000000000073,173.206 192.0,173.305 192.0,173.346 C191.89999999999964,173.399 191.79999999999927,173.503 191.70000000000073,173.659 C191.60000000000036,173.794 191.5,173.904 191.39999999999964,173.987 C191.29999999999927,174.07 191.20000000000073,174.112 191.10000000000036,174.112 C190.89999999999964,174.112 190.79999999999927,174.065 190.79999999999927,173.971 C190.70000000000073,173.878 190.60000000000036,173.753 190.60000000000036,173.596" />
<path d="M185.5,77.5183 L185.5,79.0652 C185.5,79.6173 185.5,80.0548 185.60000000000036,80.3777 C186.0,80.0131 186.29999999999927,79.7423 186.5,79.5652 C186.70000000000073,79.3569 186.89999999999964,79.0678 187.10000000000036,78.698 C187.29999999999927,78.3282 187.39999999999964,77.961 187.39999999999964,77.5965 C187.39999999999964,77.2319 187.39999999999964,76.9194 187.20000000000073,76.659 C187.10000000000036,76.3985 186.79999999999927,76.2683 186.60000000000036,76.2683 C186.29999999999927,76.2683 186.0,76.3881 185.79999999999927,76.6277 C185.60000000000036,76.8881 185.5,77.185 185.5,77.5183 M184.70000000000073,81.0965 L184.39999999999964,69.2058 C184.60000000000036,69.1017 184.79999999999927,69.0496 185.0,69.0496 C185.20000000000073,69.0496 185.29999999999927,69.1017 185.5,69.2058 L185.39999999999964,76.0965 C185.89999999999964,75.6381 186.5,75.409 187.20000000000073,75.409 C187.70000000000073,75.409 188.10000000000036,75.6173 188.5,76.034 C188.79999999999927,76.4506 189.0,76.9298 189.0,77.4715 C189.0,77.8048 188.89999999999964,78.1642 188.60000000000036,78.5496 C188.39999999999964,78.8933 188.20000000000073,79.1642 188.0,79.3621 C187.89999999999964,79.4662 187.5,79.7267 187.0,80.1433 C186.79999999999927,80.2579 186.60000000000036,80.3933 186.39999999999964,80.5496 C186.20000000000073,80.7058 186.10000000000036,80.8048 186.0,80.8465 C185.89999999999964,80.8985 185.89999999999964,81.0027 185.79999999999927,81.159 C185.70000000000073,81.2944 185.60000000000036,81.4037 185.5,81.4871 C185.39999999999964,81.5704 185.29999999999927,81.6121 185.10000000000036,81.6121 C185.0,81.6121 184.89999999999964,81.5652 184.79999999999927,81.4715 C184.70000000000073,81.3777 184.70000000000073,81.2527 184.70000000000073,81.0965" />
<path d="M185.5,55.0183 L185.5,56.5652 C185.5,57.1173 185.5,57.5548 185.60000000000036,57.8777 C186.0,57.5131 186.29999999999927,57.2423 186.5,57.0652 C186.70000000000073,56.8569 186.89999999999964,56.5678 187.10000000000036,56.198 C187.29999999999927,55.8282 187.39999999999964,55.461 187.39999999999964,55.0965 C187.39999999999964,54.7319 187.39999999999964,54.4194 187.20000000000073,54.159 C187.10000000000036,53.8985 186.79999999999927,53.7683 186.60000000000036,53.7683 C186.29999999999927,53.7683 186.0,53.8881 185.79999999999927,54.1277 C185.60000000000036,54.3881 185.5,54.685 185.5,55.0183 M184.70000000000073,58.5965 L184.39999999999964,46.7058 C184.60000000000036,46.6017 184.79999999999927,46.5496 185.0,46.5496 C185.20000000000073,46.5496 185.29999999999927,46.6017 185.5,46.7058 L185.39999999999964,53.5965 C185.89999999999964,53.1381 186.5,52.909 187.20000000000073,52.909 C187.70000000000073,52.909 188.10000000000036,53.1173 188.5,53.534 C188.79999999999927,53.9506 189.0,54.4298 189.0,54.9715 C189.0,55.3048 188.89999999999964,55.6642 188.60000000000036,56.0496 C188.39999999999964,56.3933 188.20000000000073,56.6642 188.0,56.8621 C187.89999999999964,56.9662 187.5,57.2267 187.0,57.6433 C186.79999999999927,57.7579 186.60000000000036,57.8933 186.39999999999964,58.0496 C186.20000000000073,58.2058 186.10000000000036,58.3048 186.0,58.3465 C185.89999999999964,58.3985 185.89999999999964,58.5027 185.79999999999927,58.659 C185.70000000000073,58.7944 185.60000000000036,58.9037 185.5,58.9871 C185.39999999999964,59.0704 185.29999999999927,59.1121 185.10000000000036,59.1121 C185.0,59.1121 184.89999999999964,59.0652 184.79999999999927,58.9715 C184.70000000000073,58.8777 184.70000000000073,58.7527 184.70000000000073,58.5965" />
<path d="M231.20000000000073,73.0965 C231.79999999999927,73.0965 232.29999999999927,73.2579 232.79999999999927,73.5808 C233.20000000000073,73.935 233.39999999999964,74.3777 233.39999999999964,74.909 C233.39999999999964,75.8048 232.89999999999964,76.6433 232.0,77.4246 C231.10000000000036,78.2058 230.10000000000036,78.5965 229.0,78.5965 C228.39999999999964,78.5965 227.79999999999927,78.435 227.39999999999964,78.1121 C227.0,77.7579 226.79999999999927,77.3152 226.79999999999927,76.784 C226.79999999999927,75.8881 227.29999999999927,75.0496 228.20000000000073,74.2683 C229.10000000000036,73.4871 230.10000000000036,73.0965 231.20000000000073,73.0965" />
<path d="M231.20000000000073,50.5965 C231.79999999999927,50.5965 232.29999999999927,50.7579 232.79999999999927,51.0808 C233.20000000000073,51.435 233.39999999999964,51.8777 233.39999999999964,52.409 C233.39999999999964,53.3048 232.89999999999964,54.1433 232.0,54.9246 C231.10000000000036,55.7058 230.10000000000036,56.0965 229.0,56.0965 C228.39999999999964,56.0965 227.79999999999927,55.935 227.39999999999964,55.6121 C227.0,55.2579 226.79999999999927,54.8152 226.79999999999927,54.284 C226.79999999999927,53.3881 227.29999999999927,52.5496 228.20000000000073,51.7683 C229.10000000000036,50.9871 230.10000000000036,50.5965 231.20000000000073,50.5965" />
<path d="M200.39999999999964,213.096 C201.10000000000036,213.096 201.60000000000036,213.258 202.0,213.581 C202.39999999999964,213.935 202.60000000000036,214.378 202.60000000000036,214.909 C202.60000000000036,215.805 202.20000000000073,216.643 201.29999999999927,217.425 C200.29999999999927,218.206 199.29999999999927,218.596 198.20000000000073,218.596 C197.60000000000036,218.596 197.10000000000036,218.435 196.70000000000073,218.112 C196.29999999999927,217.758 196.10000000000036,217.315 196.10000000000036,216.784 C196.10000000000036,215.888 196.5,215.05 197.5,214.268 C198.39999999999964,213.487 199.39999999999964,213.096 200.39999999999964,213.096" />
<path d="M206.39999999999964,168.096 C207.0,168.096 207.5,168.258 208.0,168.581 C208.39999999999964,168.935 208.60000000000036,169.378 208.60000000000036,169.909 C208.60000000000036,170.805 208.10000000000036,171.643 207.20000000000073,172.425 C206.29999999999927,173.206 205.20000000000073,173.596 204.20000000000073,173.596 C203.5,173.596 203.0,173.435 202.60000000000036,173.112 C202.20000000000073,172.758 202.0,172.315 202.0,171.784 C202.0,170.888 202.5,170.05 203.39999999999964,169.268 C204.29999999999927,168.487 205.29999999999927,168.096 206.39999999999964,168.096" />
<path d="M200.39999999999964,168.096 C201.10000000000036,168.096 201.60000000000036,168.258 202.0,168.581 C202.39999999999964,168.935 202.60000000000036,169.378 202.60000000000036,169.909 C202.60000000000036,170.805 202.20000000000073,171.643 201.29999999999927,172.425 C200.29999999999927,173.206 199.29999999999927,173.596 198.20000000000073,173.596 C197.60000000000036,173.596 197.10000000000036,173.435 196.70000000000073,173.112 C196.29999999999927,172.758 196.10000000000036,172.315 196.10000000000036,171.784 C196.10000000000036,170.888 196.5,170.05 197.5,169.268 C198.39999999999964,168.487 199.39999999999964,168.096 200.39999999999964,168.096" />
<path d="M200.39999999999964,173.096 C201.10000000000036,173.096 201.60000000000036,173.258 202.0,173.581 C202.39999999999964,173.935 202.60000000000036,174.378 202.60000000000036,174.909 C202.60000000000036,175.805 202.20000000000073,176.643 201.29999999999927,177.425 C200.29999999999927,178.206 199.29999999999927,178.596 198.20000000000073,178.596 C197.60000000000036,178.596 197.10000000000036,178.435 196.70000000000073,178.112 C196.29999999999927,177.758 196.10000000000036,177.315 196.10000000000036,176.784 C196.10000000000036,175.888 196.5,175.05 197.5,174.268 C198.39999999999964,173.487 199.39999999999964,173.096 200.39999999999964,173.096" />
<path d="M200.39999999999964,180.596 C201.10000000000036,180.596 201.60000000000036,180.758 202.0,181.081 C202.39999999999964,181.435 202.60000000000036,181.878 202.60000000000036,182.409 C202.60000000000036,183.305 202.20000000000073,184.143 201.29999999999927,184.925 C200.29999999999927,185.706 199.29999999999927,186.096 198.20000000000073,186.096 C197.60000000000036,186.096 197.10000000000036,185.935 196.70000000000073,185.612 C196.29999999999927,185.258 196.10000000000036,184.815 196.10000000000036,184.284 C196.10000000000036,183.388 196.5,182.55 197.5,181.768 C198.39999999999964,180.987 199.39999999999964,180.596 200.39999999999964,180.596" />
<path d="M200.39999999999964,190.596 C201.10000000000036,190.596 201.60000000000036,190.758 202.0,191.081 C202.39999999999964,191.435 202.60000000000036,191.878 202.60000000000036,192.409 C202.60000000000036,193.305 202.20000000000073,194.143 201.29999999999927,194.925 C200.29999999999927,195.706 199.29999999999927,196.096 198.20000000000073,196.096 C197.60000000000036,196.096 197.10000000000036,195.935 196.70000000000073,195.612 C196.29999999999927,195.258 196.10000000000036,194.815 196.10000000000036,194.284 C196.10000000000036,193.388 196.5,192.55 197.5,191.768 C198.39999999999964,190.987 199.39999999999964,190.596 200.39999999999964,190.596" />
<path d="M200.39999999999964,73.0965 C201.10000000000036,73.0965 201.60000000000036,73.2579 202.0,73.5808 C202.39999999999964,73.935 202.60000000000036,74.3777 202.60000000000036,74.909 C202.60000000000036,75.8048 202.20000000000073,76.6433 201.29999999999927,77.4246 C200.29999999999927,78.2058 199.29999999999927,78.5965 198.20000000000073,78.5965 C197.60000000000036,78.5965 197.10000000000036,78.435 196.70000000000073,78.1121 C196.29999999999927,77.7579 196.10000000000036,77.3152 196.10000000000036,76.784 C196.10000000000036,75.8881 196.5,75.0496 197.5,74.2683 C198.39999999999964,73.4871 199.39999999999964,73.0965 200.39999999999964,73.0965" />
<path d="M194.5,75.5965 C195.10000000000036,75.5965 195.70000000000073,75.7579 196.10000000000036,76.0808 C196.5,76.435 196.70000000000073,76.8777 196.70000000000073,77.409 C196.70000000000073,78.3048 196.20000000000073,79.1433 195.29999999999927,79.9246 C194.39999999999964,80.7058 193.39999999999964,81.0965 192.29999999999927,81.0965 C191.70000000000073,81.0965 191.20000000000073,80.935 190.70000000000073,80.6121 C190.29999999999927,80.2579 190.10000000000036,79.8152 190.10000000000036,79.284 C190.10000000000036,78.3881 190.60000000000036,77.5496 191.5,76.7683 C192.39999999999964,75.9871 193.39999999999964,75.5965 194.5,75.5965" />
<path d="M200.39999999999964,50.5965 C201.10000000000036,50.5965 201.60000000000036,50.7579 202.0,51.0808 C202.39999999999964,51.435 202.60000000000036,51.8777 202.60000000000036,52.409 C202.60000000000036,53.3048 202.20000000000073,54.1433 201.29999999999927,54.9246 C200.29999999999927,55.7058 199.29999999999927,56.0965 198.20000000000073,56.0965 C197.60000000000036,56.0965 197.10000000000036,55.935 196.70000000000073,55.6121 C196.29999999999927,55.2579 196.10000000000036,54.8152 196.10000000000036,54.284 C196.10000000000036,53.3881 196.5,52.5496 197.5,51.7683 C198.39999999999964,50.9871 199.39999999999964,50.5965 200.39999999999964,50.5965" />
<path d="M194.5,53.0965 C195.10000000000036,53.0965 195.70000000000073,53.2579 196.10000000000036,53.5808 C196.5,53.935 196.70000000000073,54.3777 196.70000000000073,54.909 C196.70000000000073,55.8048 196.20000000000073,56.6433 195.29999999999927,57.4246 C194.39999999999964,58.2058 193.39999999999964,58.5965 192.29999999999927,58.5965 C191.70000000000073,58.5965 191.20000000000073,58.435 190.70000000000073,58.1121 C190.29999999999927,57.7579 190.10000000000036,57.3152 190.10000000000036,56.784 C190.10000000000036,55.8881 190.60000000000036,55.0496 191.5,54.2683 C192.39999999999964,53.4871 193.39999999999964,53.0965 194.5,53.0965" />
<path d="M167.20000000000073,244.409 C167.5,244.044 167.70000000000073,243.706 167.70000000000073,243.393 C167.70000000000073,243.102 167.5,242.883 167.29999999999927,242.737 C167.10000000000036,242.581 166.79999999999927,242.503 166.5,242.503 C166.29999999999927,242.503 166.10000000000036,242.576 166.0,242.721 C165.79999999999927,242.857 165.79999999999927,243.018 165.79999999999927,243.206 C165.79999999999927,243.445 165.89999999999964,243.622 166.10000000000036,243.737 L167.20000000000073,244.409 M167.5,244.565 C168.0,244.857 168.29999999999927,245.263 168.29999999999927,245.784 C168.29999999999927,245.784 168.29999999999927,245.805 168.29999999999927,245.846 C168.29999999999927,246.242 168.10000000000036,246.576 167.79999999999927,246.846 C167.5,247.128 167.0,247.268 166.39999999999964,247.268 C165.89999999999964,247.268 165.5,247.138 165.10000000000036,246.878 C164.79999999999927,246.638 164.60000000000036,246.31 164.60000000000036,245.893 C164.60000000000036,245.706 164.60000000000036,245.539 164.70000000000073,245.393 C164.79999999999927,245.227 164.89999999999964,245.112 165.0,245.05 C165.0,245.05 165.10000000000036,244.925 165.39999999999964,244.675 C165.0,244.404 164.70000000000073,244.055 164.70000000000073,243.628 C164.70000000000073,243.263 164.89999999999964,242.94 165.20000000000073,242.659 C165.5,242.399 166.0,242.268 166.5,242.268 C167.0,242.268 167.29999999999927,242.367 167.60000000000036,242.565 C168.0,242.763 168.10000000000036,243.039 168.10000000000036,243.393 C168.10000000000036,243.727 167.89999999999964,244.117 167.5,244.565 M165.70000000000073,244.846 C165.29999999999927,245.19 165.10000000000036,245.539 165.0,245.893 C165.10000000000036,246.227 165.20000000000073,246.497 165.5,246.706 C165.70000000000073,246.925 166.10000000000036,247.034 166.39999999999964,247.034 C166.70000000000073,247.034 166.89999999999964,246.951 167.10000000000036,246.784 C167.20000000000073,246.628 167.29999999999927,246.435 167.29999999999927,246.206 C167.29999999999927,245.925 167.10000000000036,245.721 166.89999999999964,245.596 L165.70000000000073,244.846 M173.29999999999927,224.065 C173.10000000000036,223.867 173.0,223.625 173.0,223.339 C173.0,223.052 173.10000000000036,222.813 173.29999999999927,222.62 C173.5,222.427 173.70000000000073,222.331 174.0,222.331 C174.29999999999927,222.331 174.5,222.427 174.70000000000073,222.62 C174.89999999999964,222.813 175.0,223.052 175.0,223.339 C175.0,223.625 174.89999999999964,223.867 174.70000000000073,224.065 C174.5,224.263 174.29999999999927,224.362 174.0,224.362 C173.70000000000073,224.362 173.5,224.263 173.29999999999927,224.065 M173.29999999999927,229.073 C173.10000000000036,228.88 173.0,228.641 173.0,228.354 C173.0,228.068 173.10000000000036,227.826 173.29999999999927,227.628 C173.5,227.43 173.70000000000073,227.331 174.0,227.331 C174.29999999999927,227.331 174.5,227.43 174.70000000000073,227.628 C174.89999999999964,227.826 175.0,228.068 175.0,228.354 C175.0,228.641 174.89999999999964,228.88 174.70000000000073,229.073 C174.5,229.266 174.29999999999927,229.362 174.0,229.362 C173.70000000000073,229.362 173.5,229.266 173.29999999999927,229.073 M166.5,220.596 C168.20000000000073,220.596 169.70000000000073,221.029 170.79999999999927,221.893 C171.79999999999927,222.81 172.39999999999964,224.05 172.39999999999964,225.612 C172.39999999999964,226.664 172.20000000000073,227.628 171.70000000000073,228.503 C171.39999999999964,229.419 170.79999999999927,230.227 170.20000000000073,230.925 C169.5,231.643 168.79999999999927,232.32 167.79999999999927,232.956 C166.89999999999964,233.581 166.0,234.143 165.10000000000036,234.643 C163.10000000000036,235.612 162.10000000000036,236.096 161.89999999999964,236.096 C161.70000000000073,236.096 161.60000000000036,236.013 161.60000000000036,235.846 C161.60000000000036,235.784 161.60000000000036,235.727 161.70000000000073,235.675 C162.39999999999964,235.279 163.20000000000073,234.779 164.10000000000036,234.175 C164.70000000000073,233.768 165.5,233.206 166.29999999999927,232.487 C167.10000000000036,231.81 167.70000000000073,231.175 168.20000000000073,230.581 C168.60000000000036,229.987 169.10000000000036,229.258 169.39999999999964,228.393 C169.79999999999927,227.518 169.89999999999964,226.654 169.89999999999964,225.8 C169.89999999999964,224.539 169.60000000000036,223.44 169.0,222.503 C168.39999999999964,221.565 167.5,221.096 166.5,221.096 C165.79999999999927,221.096 165.20000000000073,221.331 164.60000000000036,221.8 C164.10000000000036,222.279 163.70000000000073,222.883 163.39999999999964,223.612 C163.70000000000073,223.508 163.89999999999964,223.456 164.10000000000036,223.456 C164.60000000000036,223.456 165.10000000000036,223.654 165.5,224.05 C165.89999999999964,224.466 166.10000000000036,224.94 166.10000000000036,225.471 C166.10000000000036,226.034 165.89999999999964,226.539 165.5,226.987 C165.10000000000036,227.383 164.60000000000036,227.581 164.10000000000036,227.581 C163.5,227.581 163.0,227.383 162.5,226.987 C162.10000000000036,226.539 161.89999999999964,226.034 161.89999999999964,225.471 C161.89999999999964,224.128 162.29999999999927,222.982 163.20000000000073,222.034 C164.10000000000036,221.076 165.20000000000073,220.596 166.5,220.596" />
<path d="M169.20000000000073,178.221 C169.20000000000073,178.221 169.20000000000073,178.221 169.29999999999927,178.221 C169.39999999999964,178.211 169.39999999999964,178.206 169.5,178.206 C170.89999999999964,178.206 172.10000000000036,178.721 173.0,179.753 C174.0,180.763 174.5,181.945 174.5,183.3 C174.5,184.987 173.79999999999927,186.357 172.39999999999964,187.409 C172.0,187.701 171.5,187.935 170.89999999999964,188.112 C171.0,188.956 171.0,189.638 171.0,190.159 C171.0,190.263 171.0,190.643 171.0,191.3 C170.89999999999964,192.508 170.5,193.555 169.70000000000073,194.44 C169.0,195.315 168.10000000000036,195.753 166.89999999999964,195.753 C165.89999999999964,195.753 165.0,195.383 164.20000000000073,194.643 C163.5,193.883 163.10000000000036,192.971 163.10000000000036,191.909 C163.10000000000036,191.346 163.29999999999927,190.867 163.79999999999927,190.471 C164.20000000000073,190.086 164.70000000000073,189.893 165.29999999999927,189.893 C165.79999999999927,189.893 166.29999999999927,190.096 166.60000000000036,190.503 C167.0,190.878 167.20000000000073,191.346 167.20000000000073,191.909 C167.20000000000073,192.409 167.0,192.841 166.60000000000036,193.206 C166.29999999999927,193.57 165.79999999999927,193.753 165.29999999999927,193.753 C165.10000000000036,193.753 164.89999999999964,193.716 164.70000000000073,193.643 C165.29999999999927,194.487 166.10000000000036,194.909 167.0,194.909 C167.89999999999964,194.909 168.60000000000036,194.544 169.20000000000073,193.815 C169.79999999999927,193.065 170.10000000000036,192.185 170.20000000000073,191.175 C170.20000000000073,190.55 170.20000000000073,190.195 170.20000000000073,190.112 C170.20000000000073,189.383 170.20000000000073,188.784 170.10000000000036,188.315 C169.5,188.419 168.89999999999964,188.471 168.39999999999964,188.471 C166.60000000000036,188.471 165.10000000000036,187.753 163.79999999999927,186.315 C162.5,184.867 161.89999999999964,183.149 161.89999999999964,181.159 C161.89999999999964,180.742 161.89999999999964,180.32 162.0,179.893 C162.10000000000036,179.539 162.20000000000073,179.154 162.29999999999927,178.737 C162.39999999999964,178.497 162.60000000000036,178.117 162.79999999999927,177.596 C162.89999999999964,177.44 163.10000000000036,177.245 163.20000000000073,177.011 C163.29999999999927,176.776 163.39999999999964,176.622 163.5,176.55 C163.60000000000036,176.289 163.79999999999927,175.935 164.20000000000073,175.487 C164.29999999999927,175.372 164.39999999999964,175.245 164.5,175.104 C164.70000000000073,174.964 164.79999999999927,174.846 164.79999999999927,174.753 C164.89999999999964,174.659 165.0,174.586 165.0,174.534 C165.0,174.482 165.29999999999927,174.138 165.89999999999964,173.503 C166.0,173.367 166.10000000000036,173.227 166.29999999999927,173.081 C166.39999999999964,172.935 166.5,172.818 166.60000000000036,172.729 C166.60000000000036,172.641 166.70000000000073,172.581 166.70000000000073,172.55 C166.29999999999927,170.997 166.0,169.758 165.89999999999964,168.831 C165.79999999999927,168.091 165.70000000000073,167.076 165.70000000000073,165.784 C165.70000000000073,164.649 166.0,163.586 166.5,162.596 C167.0,161.576 167.70000000000073,160.737 168.60000000000036,160.081 C168.70000000000073,160.039 168.79999999999927,160.018 168.79999999999927,160.018 C168.89999999999964,160.018 169.0,160.039 169.0,160.081 C169.70000000000073,160.925 170.29999999999927,162.024 170.79999999999927,163.378 C171.39999999999964,164.732 171.60000000000036,165.966 171.60000000000036,167.081 C171.60000000000036,168.331 171.29999999999927,169.503 170.70000000000073,170.596 C170.10000000000036,171.753 169.20000000000073,172.951 168.10000000000036,174.19 C168.39999999999964,175.044 168.70000000000073,176.388 169.20000000000073,178.221 M170.89999999999964,187.315 C171.5,187.065 172.10000000000036,186.643 172.5,186.05 C172.89999999999964,185.477 173.10000000000036,184.831 173.10000000000036,184.112 C173.10000000000036,183.185 172.79999999999927,182.362 172.10000000000036,181.643 C171.5,180.904 170.70000000000073,180.487 169.70000000000073,180.393 C170.20000000000073,183.143 170.60000000000036,185.451 170.89999999999964,187.315 M163.29999999999927,182.8 C163.29999999999927,184.091 163.79999999999927,185.227 164.89999999999964,186.206 C165.89999999999964,187.154 167.10000000000036,187.628 168.5,187.628 C169.0,187.628 169.5,187.586 170.10000000000036,187.503 C169.89999999999964,185.524 169.39999999999964,183.154 168.79999999999927,180.393 C168.10000000000036,180.477 167.5,180.737 167.10000000000036,181.175 C166.60000000000036,181.633 166.39999999999964,182.149 166.39999999999964,182.721 C166.39999999999964,183.711 166.89999999999964,184.513 168.0,185.128 C168.10000000000036,185.221 168.10000000000036,185.32 168.10000000000036,185.425 C168.10000000000036,185.529 168.10000000000036,185.622 168.0,185.706 C167.89999999999964,185.8 167.79999999999927,185.846 167.70000000000073,185.846 C167.70000000000073,185.846 167.60000000000036,185.836 167.5,185.815 C166.79999999999927,185.409 166.20000000000073,184.888 165.79999999999927,184.253 C165.39999999999964,183.565 165.20000000000073,182.878 165.20000000000073,182.19 C165.20000000000073,181.294 165.5,180.482 166.10000000000036,179.753 C166.70000000000073,179.024 167.39999999999964,178.555 168.39999999999964,178.346 C168.0,176.888 167.70000000000073,175.747 167.5,174.925 C167.29999999999927,175.164 167.0,175.448 166.70000000000073,175.776 C166.39999999999964,176.104 166.29999999999927,176.305 166.20000000000073,176.378 C165.70000000000073,176.982 165.39999999999964,177.456 165.10000000000036,177.8 C164.70000000000073,178.414 164.29999999999927,178.94 164.10000000000036,179.378 C163.89999999999964,179.878 163.70000000000073,180.419 163.60000000000036,181.003 C163.39999999999964,181.565 163.29999999999927,182.164 163.29999999999927,182.8 M169.79999999999927,162.94 C168.79999999999927,163.419 168.10000000000036,164.107 167.5,165.003 C167.0,165.93 166.70000000000073,166.925 166.70000000000073,167.987 C166.70000000000073,168.925 166.89999999999964,170.19 167.39999999999964,171.784 C168.29999999999927,170.649 169.0,169.602 169.5,168.643 C170.0,167.622 170.20000000000073,166.56 170.20000000000073,165.456 C170.20000000000073,164.622 170.10000000000036,163.784 169.79999999999927,162.94 M167.70000000000073,198.581 C168.0,198.247 168.20000000000073,197.909 168.20000000000073,197.565 C168.20000000000073,197.294 168.10000000000036,197.086 167.79999999999927,196.94 C167.60000000000036,196.784 167.29999999999927,196.706 167.0,196.706 C166.79999999999927,196.706 166.60000000000036,196.779 166.5,196.925 C166.29999999999927,197.05 166.29999999999927,197.211 166.29999999999927,197.409 C166.29999999999927,197.649 166.39999999999964,197.826 166.60000000000036,197.94 L167.70000000000073,198.581 M168.0,198.753 C168.5,199.055 168.79999999999927,199.461 168.79999999999927,199.971 L168.79999999999927,200.034 C168.79999999999927,200.43 168.60000000000036,200.768 168.29999999999927,201.05 C168.0,201.331 167.5,201.471 166.89999999999964,201.471 C166.39999999999964,201.471 166.0,201.341 165.70000000000073,201.081 C165.29999999999927,200.831 165.10000000000036,200.492 165.10000000000036,200.065 C165.10000000000036,199.899 165.10000000000036,199.742 165.20000000000073,199.596 C165.29999999999927,199.43 165.39999999999964,199.315 165.5,199.253 L165.89999999999964,198.878 C165.5,198.607 165.29999999999927,198.247 165.29999999999927,197.8 C165.29999999999927,197.445 165.39999999999964,197.133 165.70000000000073,196.862 C166.10000000000036,196.602 166.5,196.471 167.0,196.471 C167.5,196.471 167.79999999999927,196.57 168.20000000000073,196.768 C168.5,196.966 168.60000000000036,197.232 168.60000000000036,197.565 C168.60000000000036,197.919 168.39999999999964,198.315 168.0,198.753 M166.20000000000073,199.05 C165.79999999999927,199.393 165.60000000000036,199.732 165.5,200.065 C165.60000000000036,200.419 165.70000000000073,200.701 166.0,200.909 C166.20000000000073,201.128 166.60000000000036,201.237 166.89999999999964,201.237 C167.20000000000073,201.237 167.39999999999964,201.154 167.60000000000036,200.987 C167.70000000000073,200.831 167.79999999999927,200.643 167.79999999999927,200.425 C167.79999999999927,200.133 167.70000000000073,199.925 167.5,199.8 L166.20000000000073,199.05" />
<path d="M167.20000000000073,139.409 C167.5,139.044 167.70000000000073,138.706 167.70000000000073,138.393 C167.70000000000073,138.102 167.5,137.883 167.29999999999927,137.737 C167.10000000000036,137.581 166.79999999999927,137.503 166.5,137.503 C166.29999999999927,137.503 166.10000000000036,137.576 166.0,137.721 C165.79999999999927,137.857 165.79999999999927,138.018 165.79999999999927,138.206 C165.79999999999927,138.445 165.89999999999964,138.622 166.10000000000036,138.737 L167.20000000000073,139.409 M167.5,139.565 C168.0,139.857 168.29999999999927,140.263 168.29999999999927,140.784 C168.29999999999927,140.784 168.29999999999927,140.805 168.29999999999927,140.846 C168.29999999999927,141.242 168.10000000000036,141.576 167.79999999999927,141.846 C167.5,142.128 167.0,142.268 166.39999999999964,142.268 C165.89999999999964,142.268 165.5,142.138 165.10000000000036,141.878 C164.79999999999927,141.638 164.60000000000036,141.31 164.60000000000036,140.893 C164.60000000000036,140.706 164.60000000000036,140.539 164.70000000000073,140.393 C164.79999999999927,140.227 164.89999999999964,140.112 165.0,140.05 C165.0,140.05 165.10000000000036,139.925 165.39999999999964,139.675 C165.0,139.404 164.70000000000073,139.055 164.70000000000073,138.628 C164.70000000000073,138.263 164.89999999999964,137.94 165.20000000000073,137.659 C165.5,137.399 166.0,137.268 166.5,137.268 C167.0,137.268 167.29999999999927,137.367 167.60000000000036,137.565 C168.0,137.763 168.10000000000036,138.039 168.10000000000036,138.393 C168.10000000000036,138.727 167.89999999999964,139.117 167.5,139.565 M165.70000000000073,139.846 C165.29999999999927,140.19 165.10000000000036,140.539 165.0,140.893 C165.10000000000036,141.227 165.20000000000073,141.497 165.5,141.706 C165.70000000000073,141.925 166.10000000000036,142.034 166.39999999999964,142.034 C166.70000000000073,142.034 166.89999999999964,141.951 167.10000000000036,141.784 C167.20000000000073,141.628 167.29999999999927,141.435 167.29999999999927,141.206 C167.29999999999927,140.925 167.10000000000036,140.721 166.89999999999964,140.596 L165.70000000000073,139.846 M173.29999999999927,119.065 C173.10000000000036,118.867 173.0,118.625 173.0,118.339 C173.0,118.052 173.10000000000036,117.813 173.29999999999927,117.62 C173.5,117.427 173.70000000000073,117.331 174.0,117.331 C174.29999999999927,117.331 174.5,117.427 174.70000000000073,117.62 C174.89999999999964,117.813 175.0,118.052 175.0,118.339 C175.0,118.625 174.89999999999964,118.867 174.70000000000073,119.065 C174.5,119.263 174.29999999999927,119.362 174.0,119.362 C173.70000000000073,119.362 173.5,119.263 173.29999999999927,119.065 M173.29999999999927,124.073 C173.10000000000036,123.88 173.0,123.641 173.0,123.354 C173.0,123.068 173.10000000000036,122.826 173.29999999999927,122.628 C173.5,122.43 173.70000000000073,122.331 174.0,122.331 C174.29999999999927,122.331 174.5,122.43 174.70000000000073,122.628 C174.89999999999964,122.826 175.0,123.068 175.0,123.354 C175.0,123.641 174.89999999999964,123.88 174.70000000000073,124.073 C174.5,124.266 174.29999999999927,124.362 174.0,124.362 C173.70000000000073,124.362 173.5,124.266 173.29999999999927,124.073 M166.5,115.596 C168.20000000000073,115.596 169.70000000000073,116.029 170.79999999999927,116.893 C171.79999999999927,117.81 172.39999999999964,119.05 172.39999999999964,120.612 C172.39999999999964,121.664 172.20000000000073,122.628 171.70000000000073,123.503 C171.39999999999964,124.419 170.79999999999927,125.227 170.20000000000073,125.925 C169.5,126.643 168.79999999999927,127.32 167.79999999999927,127.956 C166.89999999999964,128.581 166.0,129.143 165.10000000000036,129.643 C163.10000000000036,130.612 162.10000000000036,131.096 161.89999999999964,131.096 C161.70000000000073,131.096 161.60000000000036,131.013 161.60000000000036,130.846 C161.60000000000036,130.784 161.60000000000036,130.727 161.70000000000073,130.675 C162.39999999999964,130.279 163.20000000000073,129.779 164.10000000000036,129.175 C164.70000000000073,128.768 165.5,128.206 166.29999999999927,127.487 C167.10000000000036,126.81 167.70000000000073,126.175 168.20000000000073,125.581 C168.60000000000036,124.987 169.10000000000036,124.258 169.39999999999964,123.393 C169.79999999999927,122.518 169.89999999999964,121.654 169.89999999999964,120.8 C169.89999999999964,119.539 169.60000000000036,118.44 169.0,117.503 C168.39999999999964,116.565 167.5,116.096 166.5,116.096 C165.79999999999927,116.096 165.20000000000073,116.331 164.60000000000036,116.8 C164.10000000000036,117.279 163.70000000000073,117.883 163.39999999999964,118.612 C163.70000000000073,118.508 163.89999999999964,118.456 164.10000000000036,118.456 C164.60000000000036,118.456 165.10000000000036,118.654 165.5,119.05 C165.89999999999964,119.466 166.10000000000036,119.94 166.10000000000036,120.471 C166.10000000000036,121.034 165.89999999999964,121.539 165.5,121.987 C165.10000000000036,122.383 164.60000000000036,122.581 164.10000000000036,122.581 C163.5,122.581 163.0,122.383 162.5,121.987 C162.10000000000036,121.539 161.89999999999964,121.034 161.89999999999964,120.471 C161.89999999999964,119.128 162.29999999999927,117.982 163.20000000000073,117.034 C164.10000000000036,116.076 165.20000000000073,115.596 166.5,115.596" />
<path d="M169.20000000000073,73.2215 C169.20000000000073,73.2215 169.20000000000073,73.2215 169.29999999999927,73.2215 C169.39999999999964,73.211 169.39999999999964,73.2058 169.5,73.2058 C170.89999999999964,73.2058 172.10000000000036,73.7215 173.0,74.7527 C174.0,75.7631 174.5,76.9454 174.5,78.2996 C174.5,79.9871 173.79999999999927,81.3569 172.39999999999964,82.409 C172.0,82.7006 171.5,82.935 170.89999999999964,83.1121 C171.0,83.9558 171.0,84.6381 171.0,85.159 C171.0,85.2631 171.0,85.6433 171.0,86.2996 C170.89999999999964,87.5079 170.5,88.5548 169.70000000000073,89.4402 C169.0,90.3152 168.10000000000036,90.7527 166.89999999999964,90.7527 C165.89999999999964,90.7527 165.0,90.3829 164.20000000000073,89.6433 C163.5,88.8829 163.10000000000036,87.9715 163.10000000000036,86.909 C163.10000000000036,86.3465 163.29999999999927,85.8673 163.79999999999927,85.4715 C164.20000000000073,85.086 164.70000000000073,84.8933 165.29999999999927,84.8933 C165.79999999999927,84.8933 166.29999999999927,85.0965 166.60000000000036,85.5027 C167.0,85.8777 167.20000000000073,86.3465 167.20000000000073,86.909 C167.20000000000073,87.409 167.0,87.8412 166.60000000000036,88.2058 C166.29999999999927,88.5704 165.79999999999927,88.7527 165.29999999999927,88.7527 C165.10000000000036,88.7527 164.89999999999964,88.7162 164.70000000000073,88.6433 C165.29999999999927,89.4871 166.10000000000036,89.909 167.0,89.909 C167.89999999999964,89.909 168.60000000000036,89.5444 169.20000000000073,88.8152 C169.79999999999927,88.0652 170.10000000000036,87.185 170.20000000000073,86.1746 C170.20000000000073,85.5496 170.20000000000073,85.1954 170.20000000000073,85.1121 C170.20000000000073,84.3829 170.20000000000073,83.784 170.10000000000036,83.3152 C169.5,83.4194 168.89999999999964,83.4715 168.39999999999964,83.4715 C166.60000000000036,83.4715 165.10000000000036,82.7527 163.79999999999927,81.3152 C162.5,79.8673 161.89999999999964,78.1485 161.89999999999964,76.159 C161.89999999999964,75.7423 161.89999999999964,75.3204 162.0,74.8933 C162.10000000000036,74.5392 162.20000000000073,74.1537 162.29999999999927,73.7371 C162.39999999999964,73.4975 162.60000000000036,73.1173 162.79999999999927,72.5965 C162.89999999999964,72.4402 163.10000000000036,72.2449 163.20000000000073,72.0105 C163.29999999999927,71.7761 163.39999999999964,71.6225 163.5,71.5496 C163.60000000000036,71.2892 163.79999999999927,70.935 164.20000000000073,70.4871 C164.29999999999927,70.3725 164.39999999999964,70.2449 164.5,70.1043 C164.70000000000073,69.9636 164.79999999999927,69.8465 164.79999999999927,69.7527 C164.89999999999964,69.659 165.0,69.586 165.0,69.534 C165.0,69.4819 165.29999999999927,69.1381 165.89999999999964,68.5027 C166.0,68.3673 166.10000000000036,68.2267 166.29999999999927,68.0808 C166.39999999999964,67.935 166.5,67.8178 166.60000000000036,67.7293 C166.60000000000036,67.6407 166.70000000000073,67.5808 166.70000000000073,67.5496 C166.29999999999927,65.9975 166.0,64.7579 165.89999999999964,63.8308 C165.79999999999927,63.0912 165.70000000000073,62.0756 165.70000000000073,60.784 C165.70000000000073,59.6485 166.0,58.586 166.5,57.5965 C167.0,56.5756 167.70000000000073,55.7371 168.60000000000036,55.0808 C168.70000000000073,55.0392 168.79999999999927,55.0183 168.79999999999927,55.0183 C168.89999999999964,55.0183 169.0,55.0392 169.0,55.0808 C169.70000000000073,55.9246 170.29999999999927,57.0235 170.79999999999927,58.3777 C171.39999999999964,59.7319 171.60000000000036,60.9662 171.60000000000036,62.0808 C171.60000000000036,63.3308 171.29999999999927,64.5027 170.70000000000073,65.5965 C170.10000000000036,66.7527 169.20000000000073,67.9506 168.10000000000036,69.1902 C168.39999999999964,70.0444 168.70000000000073,71.3881 169.20000000000073,73.2215 M170.89999999999964,82.3152 C171.5,82.0652 172.10000000000036,81.6433 172.5,81.0496 C172.89999999999964,80.4767 173.10000000000036,79.8308 173.10000000000036,79.1121 C173.10000000000036,78.185 172.79999999999927,77.3621 172.10000000000036,76.6433 C171.5,75.9037 170.70000000000073,75.4871 169.70000000000073,75.3933 C170.20000000000073,78.1433 170.60000000000036,80.4506 170.89999999999964,82.3152 M163.29999999999927,77.7996 C163.29999999999927,79.0912 163.79999999999927,80.2267 164.89999999999964,81.2058 C165.89999999999964,82.1537 167.10000000000036,82.6277 168.5,82.6277 C169.0,82.6277 169.5,82.586 170.10000000000036,82.5027 C169.89999999999964,80.5235 169.39999999999964,78.1537 168.79999999999927,75.3933 C168.10000000000036,75.4767 167.5,75.7371 167.10000000000036,76.1746 C166.60000000000036,76.6329 166.39999999999964,77.1485 166.39999999999964,77.7215 C166.39999999999964,78.711 166.89999999999964,79.5131 168.0,80.1277 C168.10000000000036,80.2215 168.10000000000036,80.3204 168.10000000000036,80.4246 C168.10000000000036,80.5287 168.10000000000036,80.6225 168.0,80.7058 C167.89999999999964,80.7996 167.79999999999927,80.8465 167.70000000000073,80.8465 C167.70000000000073,80.8465 167.60000000000036,80.836 167.5,80.8152 C166.79999999999927,80.409 166.20000000000073,79.8881 165.79999999999927,79.2527 C165.39999999999964,78.5652 165.20000000000073,77.8777 165.20000000000073,77.1902 C165.20000000000073,76.2944 165.5,75.4819 166.10000000000036,74.7527 C166.70000000000073,74.0235 167.39999999999964,73.5548 168.39999999999964,73.3465 C168.0,71.8881 167.70000000000073,70.7475 167.5,69.9246 C167.29999999999927,70.1642 167.0,70.448 166.70000000000073,70.7761 C166.39999999999964,71.1043 166.29999999999927,71.3048 166.20000000000073,71.3777 C165.70000000000073,71.9819 165.39999999999964,72.4558 165.10000000000036,72.7996 C164.70000000000073,73.4142 164.29999999999927,73.9402 164.10000000000036,74.3777 C163.89999999999964,74.8777 163.70000000000073,75.4194 163.60000000000036,76.0027 C163.39999999999964,76.5652 163.29999999999927,77.1642 163.29999999999927,77.7996 M169.79999999999927,57.9402 C168.79999999999927,58.4194 168.10000000000036,59.1069 167.5,60.0027 C167.0,60.9298 166.70000000000073,61.9246 166.70000000000073,62.9871 C166.70000000000073,63.9246 166.89999999999964,65.1902 167.39999999999964,66.784 C168.29999999999927,65.6485 169.0,64.6017 169.5,63.6433 C170.0,62.6225 170.20000000000073,61.56 170.20000000000073,60.4558 C170.20000000000073,59.6225 170.10000000000036,58.784 169.79999999999927,57.9402 M167.70000000000073,93.5808 C168.0,93.2475 168.20000000000073,92.909 168.20000000000073,92.5652 C168.20000000000073,92.2944 168.10000000000036,92.086 167.79999999999927,91.9402 C167.60000000000036,91.784 167.29999999999927,91.7058 167.0,91.7058 C166.79999999999927,91.7058 166.60000000000036,91.7787 166.5,91.9246 C166.29999999999927,92.0496 166.29999999999927,92.211 166.29999999999927,92.409 C166.29999999999927,92.6485 166.39999999999964,92.8256 166.60000000000036,92.9402 L167.70000000000073,93.5808 M168.0,93.7527 C168.5,94.0548 168.79999999999927,94.461 168.79999999999927,94.9715 L168.79999999999927,95.034 C168.79999999999927,95.4298 168.60000000000036,95.7683 168.29999999999927,96.0496 C168.0,96.3308 167.5,96.4715 166.89999999999964,96.4715 C166.39999999999964,96.4715 166.0,96.3412 165.70000000000073,96.0808 C165.29999999999927,95.8308 165.10000000000036,95.4923 165.10000000000036,95.0652 C165.10000000000036,94.8985 165.10000000000036,94.7423 165.20000000000073,94.5965 C165.29999999999927,94.4298 165.39999999999964,94.3152 165.5,94.2527 L165.89999999999964,93.8777 C165.5,93.6069 165.29999999999927,93.2475 165.29999999999927,92.7996 C165.29999999999927,92.4454 165.39999999999964,92.1329 165.70000000000073,91.8621 C166.10000000000036,91.6017 166.5,91.4715 167.0,91.4715 C167.5,91.4715 167.79999999999927,91.5704 168.20000000000073,91.7683 C168.5,91.9662 168.60000000000036,92.2319 168.60000000000036,92.5652 C168.60000000000036,92.9194 168.39999999999964,93.3152 168.0,93.7527 M166.20000000000073,94.0496 C165.79999999999927,94.3933 165.60000000000036,94.7319 165.5,95.0652 C165.60000000000036,95.4194 165.70000000000073,95.7006 166.0,95.909 C166.20000000000073,96.1277 166.60000000000036,96.2371 166.89999999999964,96.2371 C167.20000000000073,96.2371 167.39999999999964,96.1537 167.60000000000036,95.9871 C167.70000000000073,95.8308 167.79999999999927,95.6433 167.79999999999927,95.4246 C167.79999999999927,95.1329 167.70000000000073,94.9246 167.5,94.7996 L166.20000000000073,94.0496" />
<path d="M196.10000000000036,230.846 L258.2000000000007,235.899 L258.2000000000007,238.399 L196.10000000000036,233.346 L196.10000000000036,230.846" />
<path d="M202.0,154.596 L264.10000000000036,154.596 L264.10000000000036,157.096 L202.0,157.096 L202.0,154.596" />
<path d="M196.10000000000036,124.596 L288.89999999999964,123.338 L288.89999999999964,125.838 L196.10000000000036,127.096 L196.10000000000036,124.596" />
<path d="M196.10000000000036,120.846 L288.89999999999964,119.588 L288.89999999999964,122.088 L196.10000000000036,123.346 L196.10000000000036,120.846" />
<path d="M196.10000000000036,72.0965 L288.89999999999964,70.8376 L288.89999999999964,73.3376 L196.10000000000036,74.5965 L196.10000000000036,72.0965" />
<path d="M196.10000000000036,68.3465 L288.89999999999964,67.0876 L288.89999999999964,69.5876 L196.10000000000036,70.8465 L196.10000000000036,68.3465" />
<path d="M196.70000000000073,74.3465 C198.0,74.3465 199.20000000000073,82.2215 199.20000000000073,105.846" />
<path d="M199.20000000000073,105.846 L200.5,108.346 L198.0,108.346 L199.20000000000073,105.846" />
<path d="M196.39999999999964,99.2058 C196.29999999999927,99.2058 196.20000000000073,99.1746 196.10000000000036,99.1121 C196.10000000000036,99.0496 196.0,98.9819 196.0,98.909 C195.89999999999964,98.836 195.89999999999964,98.7683 195.79999999999927,98.7058 C195.70000000000073,98.6433 195.70000000000073,98.6121 195.60000000000036,98.6121 C195.29999999999927,98.6121 195.10000000000036,98.8465 195.10000000000036,99.3152 L195.10000000000036,100.253 L196.10000000000036,100.253 L196.10000000000036,100.487 L195.10000000000036,100.487 L195.10000000000036,103.018 C195.10000000000036,103.31 195.20000000000073,103.497 195.20000000000073,103.581 C195.29999999999927,103.664 195.5,103.711 195.89999999999964,103.721 L195.89999999999964,103.846 L193.79999999999927,103.846 L193.79999999999927,103.721 C194.10000000000036,103.711 194.29999999999927,103.664 194.29999999999927,103.581 C194.39999999999964,103.497 194.39999999999964,103.31 194.39999999999964,103.018 L194.39999999999964,100.487 L193.79999999999927,100.487 L193.79999999999927,100.253 L194.39999999999964,100.253 C194.5,99.6485 194.60000000000036,99.1824 194.79999999999927,98.8543 C195.0,98.5261 195.39999999999964,98.3621 195.89999999999964,98.3621 C196.10000000000036,98.3621 196.29999999999927,98.4116 196.39999999999964,98.5105 C196.60000000000036,98.6095 196.70000000000073,98.7319 196.70000000000073,98.8777 C196.70000000000073,98.9715 196.70000000000073,99.0496 196.60000000000036,99.1121 C196.5,99.1746 196.39999999999964,99.2058 196.39999999999964,99.2058 M200.5,103.425 L200.5,103.55 C200.10000000000036,103.664 199.70000000000073,103.789 199.39999999999964,103.925 L199.39999999999964,103.909 L199.39999999999964,103.221 C199.39999999999964,103.242 199.29999999999927,103.292 199.20000000000073,103.37 C199.20000000000073,103.448 199.10000000000036,103.503 199.10000000000036,103.534 C199.0,103.565 199.0,103.612 198.89999999999964,103.675 C198.79999999999927,103.737 198.79999999999927,103.781 198.70000000000073,103.807 C198.60000000000036,103.833 198.60000000000036,103.859 198.5,103.886 C198.39999999999964,103.912 198.29999999999927,103.925 198.20000000000073,103.925 C197.89999999999964,103.925 197.70000000000073,103.828 197.5,103.636 C197.29999999999927,103.443 197.20000000000073,103.19 197.20000000000073,102.878 L197.20000000000073,100.862 C197.20000000000073,100.685 197.20000000000073,100.56 197.10000000000036,100.487 C197.10000000000036,100.414 196.89999999999964,100.372 196.70000000000073,100.362 L196.70000000000073,100.253 L197.89999999999964,100.253 L197.89999999999964,102.846 C197.89999999999964,103.003 198.0,103.141 198.10000000000036,103.261 C198.20000000000073,103.38 198.29999999999927,103.44 198.5,103.44 C198.5,103.44 198.60000000000036,103.432 198.70000000000073,103.417 C198.79999999999927,103.401 198.89999999999964,103.372 199.0,103.331 C199.10000000000036,103.289 199.20000000000073,103.219 199.20000000000073,103.12 C199.29999999999927,103.021 199.29999999999927,102.899 199.29999999999927,102.753 L199.29999999999927,100.878 C199.29999999999927,100.69 199.29999999999927,100.563 199.20000000000073,100.495 C199.20000000000073,100.427 199.0,100.388 198.70000000000073,100.378 L198.70000000000073,100.253 L200.0,100.253 L200.0,102.971 C200.0,103.159 200.0,103.281 200.10000000000036,103.339 C200.20000000000073,103.396 200.29999999999927,103.425 200.5,103.425 L200.5,103.425 M200.70000000000073,98.8621 L200.70000000000073,98.7371 C201.20000000000073,98.6121 201.60000000000036,98.4923 201.89999999999964,98.3777 L202.0,98.409 L202.0,103.175 C202.0,103.393 202.0,103.537 202.10000000000036,103.604 C202.10000000000036,103.672 202.29999999999927,103.711 202.60000000000036,103.721 L202.60000000000036,103.846 L200.70000000000073,103.846 L200.70000000000073,103.721 C200.89999999999964,103.701 201.10000000000036,103.654 201.20000000000073,103.581 C201.20000000000073,103.508 201.29999999999927,103.362 201.29999999999927,103.143 L201.29999999999927,99.3308 C201.29999999999927,99.1433 201.29999999999927,99.0157 201.20000000000073,98.948 C201.20000000000073,98.8803 201.10000000000036,98.8465 200.89999999999964,98.8465 C200.79999999999927,98.8465 200.70000000000073,98.8517 200.70000000000073,98.8621 M202.70000000000073,98.8621 L202.70000000000073,98.7371 C203.20000000000073,98.6121 203.70000000000073,98.4923 204.0,98.3777 L204.0,98.409 L204.0,103.175 C204.0,103.393 204.10000000000036,103.537 204.10000000000036,103.604 C204.20000000000073,103.672 204.39999999999964,103.711 204.60000000000036,103.721 L204.60000000000036,103.846 L202.70000000000073,103.846 L202.70000000000073,103.721 C203.0,103.701 203.10000000000036,103.654 203.20000000000073,103.581 C203.29999999999927,103.508 203.39999999999964,103.362 203.39999999999964,103.143 L203.39999999999964,99.3308 C203.39999999999964,99.1433 203.29999999999927,99.0157 203.29999999999927,98.948 C203.20000000000073,98.8803 203.10000000000036,98.8465 203.0,98.8465 C202.89999999999964,98.8465 202.79999999999927,98.8517 202.70000000000073,98.8621" />
<path d="M196.70000000000073,51.8465 C198.0,51.8465 199.20000000000073,52.2215 199.20000000000073,53.3465" />
<path d="M199.20000000000073,53.3465 L200.5,55.8465 L198.0,55.8465 L199.20000000000073,53.3465" />
<path d="M196.39999999999964,46.7058 C196.29999999999927,46.7058 196.20000000000073,46.6746 196.10000000000036,46.6121 C196.10000000000036,46.5496 196.0,46.4819 196.0,46.409 C195.89999999999964,46.336 195.89999999999964,46.2683 195.79999999999927,46.2058 C195.70000000000073,46.1433 195.70000000000073,46.1121 195.60000000000036,46.1121 C195.29999999999927,46.1121 195.10000000000036,46.3465 195.10000000000036,46.8152 L195.10000000000036,47.7527 L196.10000000000036,47.7527 L196.10000000000036,47.9871 L195.10000000000036,47.9871 L195.10000000000036,50.5183 C195.10000000000036,50.81 195.20000000000073,50.9975 195.20000000000073,51.0808 C195.29999999999927,51.1642 195.5,51.211 195.89999999999964,51.2215 L195.89999999999964,51.3465 L193.79999999999927,51.3465 L193.79999999999927,51.2215 C194.10000000000036,51.211 194.29999999999927,51.1642 194.29999999999927,51.0808 C194.39999999999964,50.9975 194.39999999999964,50.81 194.39999999999964,50.5183 L194.39999999999964,47.9871 L193.79999999999927,47.9871 L193.79999999999927,47.7527 L194.39999999999964,47.7527 C194.5,47.1485 194.60000000000036,46.6824 194.79999999999927,46.3543 C195.0,46.0261 195.39999999999964,45.8621 195.89999999999964,45.8621 C196.10000000000036,45.8621 196.29999999999927,45.9116 196.39999999999964,46.0105 C196.60000000000036,46.1095 196.70000000000073,46.2319 196.70000000000073,46.3777 C196.70000000000073,46.4715 196.70000000000073,46.5496 196.60000000000036,46.6121 C196.5,46.6746 196.39999999999964,46.7058 196.39999999999964,46.7058 M200.5,50.9246 L200.5,51.0496 C200.10000000000036,51.1642 199.70000000000073,51.2892 199.39999999999964,51.4246 L199.39999999999964,51.409 L199.39999999999964,50.7215 C199.39999999999964,50.7423 199.29999999999927,50.7918 199.20000000000073,50.8699 C199.20000000000073,50.948 199.10000000000036,51.0027 199.10000000000036,51.034 C199.0,51.0652 199.0,51.1121 198.89999999999964,51.1746 C198.79999999999927,51.2371 198.79999999999927,51.2814 198.70000000000073,51.3074 C198.60000000000036,51.3334 198.60000000000036,51.3595 198.5,51.3855 C198.39999999999964,51.4116 198.29999999999927,51.4246 198.20000000000073,51.4246 C197.89999999999964,51.4246 197.70000000000073,51.3282 197.5,51.1355 C197.29999999999927,50.9428 197.20000000000073,50.6902 197.20000000000073,50.3777 L197.20000000000073,48.3621 C197.20000000000073,48.185 197.20000000000073,48.06 197.10000000000036,47.9871 C197.10000000000036,47.9142 196.89999999999964,47.8725 196.70000000000073,47.8621 L196.70000000000073,47.7527 L197.89999999999964,47.7527 L197.89999999999964,50.3465 C197.89999999999964,50.5027 198.0,50.6407 198.10000000000036,50.7605 C198.20000000000073,50.8803 198.29999999999927,50.9402 198.5,50.9402 C198.5,50.9402 198.60000000000036,50.9324 198.70000000000073,50.9168 C198.79999999999927,50.9011 198.89999999999964,50.8725 199.0,50.8308 C199.10000000000036,50.7892 199.20000000000073,50.7189 199.20000000000073,50.6199 C199.29999999999927,50.5209 199.29999999999927,50.3985 199.29999999999927,50.2527 L199.29999999999927,48.3777 C199.29999999999927,48.1902 199.29999999999927,48.0626 199.20000000000073,47.9949 C199.20000000000073,47.9272 199.0,47.8881 198.70000000000073,47.8777 L198.70000000000073,47.7527 L200.0,47.7527 L200.0,50.4715 C200.0,50.659 200.0,50.7814 200.10000000000036,50.8386 C200.20000000000073,50.8959 200.29999999999927,50.9246 200.5,50.9246 L200.5,50.9246 M200.70000000000073,46.3621 L200.70000000000073,46.2371 C201.20000000000073,46.1121 201.60000000000036,45.9923 201.89999999999964,45.8777 L202.0,45.909 L202.0,50.6746 C202.0,50.8933 202.0,51.0366 202.10000000000036,51.1043 C202.10000000000036,51.172 202.29999999999927,51.211 202.60000000000036,51.2215 L202.60000000000036,51.3465 L200.70000000000073,51.3465 L200.70000000000073,51.2215 C200.89999999999964,51.2006 201.10000000000036,51.1537 201.20000000000073,51.0808 C201.20000000000073,51.0079 201.29999999999927,50.8621 201.29999999999927,50.6433 L201.29999999999927,46.8308 C201.29999999999927,46.6433 201.29999999999927,46.5157 201.20000000000073,46.448 C201.20000000000073,46.3803 201.10000000000036,46.3465 200.89999999999964,46.3465 C200.79999999999927,46.3465 200.70000000000073,46.3517 200.70000000000073,46.3621 M202.70000000000073,46.3621 L202.70000000000073,46.2371 C203.20000000000073,46.1121 203.70000000000073,45.9923 204.0,45.8777 L204.0,45.909 L204.0,50.6746 C204.0,50.8933 204.10000000000036,51.0366 204.10000000000036,51.1043 C204.20000000000073,51.172 204.39999999999964,51.211 204.60000000000036,51.2215 L204.60000000000036,51.3465 L202.70000000000073,51.3465 L202.70000000000073,51.2215 C203.0,51.2006 203.10000000000036,51.1537 203.20000000000073,51.0808 C203.29999999999927,51.0079 203.39999999999964,50.8621 203.39999999999964,50.6433 L203.39999999999964,46.8308 C203.39999999999964,46.6433 203.29999999999927,46.5157 203.29999999999927,46.448 C203.20000000000073,46.3803 203.10000000000036,46.3465 203.0,46.3465 C202.89999999999964,46.3465 202.79999999999927,46.3517 202.70000000000073,46.3621" />
<polyline points="0.0,63.3465 101.20000000000073,63.3465" fill="none" stroke="#000000" stroke-width="0.40" />
<polyline points="0.0,68.3465 101.20000000000073,68.3465" fill="none" stroke="#000000" stroke-width="0.40" />
<polyline points="0.0,73.3465 101.20000000000073,73.3465" fill="none" stroke="#000000" stroke-width="0.40" />
<polyline points="0.0,78.3465 101.20000000000073,78.3465" fill="none" stroke="#000000" stroke-width="0.40" />
<polyline points="0.0,83.3465 101.20000000000073,83.3465" fill="none" stroke="#000000" stroke-width="0.40" />
<polyline points="0.0,115.846 101.20000000000073,115.846" fill="none" stroke="#000000" stroke-width="0.40" />
<polyline points="0.0,120.846 101.20000000000073,120.846" fill="none" stroke="#000000" stroke-width="0.40" />
<polyline points="0.0,125.846 101.20000000000073,125.846" fill="none" stroke="#000000" stroke-width="0.40" />
<polyline points="0.0,130.846 101.20000000000073,130.846" fill="none" stroke="#000000" stroke-width="0.40" />
<polyline points="0.0,135.846 101.20000000000073,135.846" fill="none" stroke="#000000" stroke-width="0.40" />
<polyline points="0.0,168.346 101.20000000000073,168.346" fill="none" stroke="#000000" stroke-width="0.40" />
<polyline points="0.0,173.346 101.20000000000073,173.346" fill="none" stroke="#000000" stroke-width="0.40" />
<polyline points="0.0,178.346 101.20000000000073,178.346" fill="none" stroke="#000000" stroke-width="0.40" />
<polyline points="0.0,183.346 101.20000000000073,183.346" fill="none" stroke="#000000" stroke-width="0.40" />
<polyline points="0.0,188.346 101.20000000000073,188.346" fill="none" stroke="#000000" stroke-width="0.40" />
<polyline points="0.0,220.846 101.20000000000073,220.846" fill="none" stroke="#000000" stroke-width="0.40" />
<polyline points="0.0,225.846 101.20000000000073,225.846" fill="none" stroke="#000000" stroke-width="0.40" />
<polyline points="0.0,230.846 101.20000000000073,230.846" fill="none" stroke="#000000" stroke-width="0.40" />
<polyline points="0.0,235.846 101.20000000000073,235.846" fill="none" stroke="#000000" stroke-width="0.40" />
<polyline points="0.0,240.846 101.20000000000073,240.846" fill="none" stroke="#000000" stroke-width="0.40" />
<polyline points="100.79999999999927,220.846 100.79999999999927,240.846" fill="" stroke="#000000" stroke-width="0.80" />
<polyline points="100.79999999999927,168.346 100.79999999999927,188.346" fill="" stroke="#000000" stroke-width="0.80" />
<polyline points="100.79999999999927,115.846 100.79999999999927,135.846" fill="" stroke="#000000" stroke-width="0.80" />
<polyline points="100.79999999999927,63.3465 100.79999999999927,83.3465" fill="" stroke="#000000" stroke-width="0.80" />
<polyline points="68.29999999999927,235.41 68.29999999999927,249.596" fill="" stroke="#000000" stroke-width="0.65" />
<polyline points="74.20000000000073,187.407 74.20000000000073,159.596" fill="" stroke="#000000" stroke-width="0.65" />
<polyline points="35.899999999999636,235.41 35.899999999999636,249.596" fill="" stroke="#000000" stroke-width="0.65" />
<polyline points="41.79999999999927,187.407 41.79999999999927,159.18" fill="" stroke="#000000" stroke-width="0.65" />
<polyline points="35.899999999999636,79.2855 35.899999999999636,124.596" fill="" stroke="#000000" stroke-width="0.65" />
<polyline points="35.899999999999636,56.7855 35.899999999999636,78.3465" fill="" stroke="#000000" stroke-width="0.65" />
<polyline points="3.5,79.2855 3.5,124.596" fill="" stroke="#000000" stroke-width="0.65" />
<polyline points="3.5,56.7855 3.5,78.3465" fill="" stroke="#000000" stroke-width="0.65" />
<polyline points="34.100000000000364,80.8465 43.70000000000073,80.8465" fill="" stroke="#000000" stroke-width="0.80" />
<polyline points="34.100000000000364,85.8465 43.70000000000073,85.8465" fill="" stroke="#000000" stroke-width="0.80" />
<polyline points="34.100000000000364,90.8465 43.70000000000073,90.8465" fill="" stroke="#000000" stroke-width="0.80" />
<polyline points="34.100000000000364,95.8465 43.70000000000073,95.8465" fill="" stroke="#000000" stroke-width="0.80" />
<polyline points="34.100000000000364,100.846 43.70000000000073,100.846" fill="" stroke="#000000" stroke-width="0.80" />
<polyline points="34.100000000000364,105.846 43.70000000000073,105.846" fill="" stroke="#000000" stroke-width="0.80" />
<polyline points="34.100000000000364,110.846 43.70000000000073,110.846" fill="" stroke="#000000" stroke-width="0.80" />
<polyline points="34.100000000000364,58.3465 43.70000000000073,58.3465" fill="" stroke="#000000" stroke-width="0.80" />
<polyline points="1.7000000000007276,80.8465 11.299999999999272,80.8465" fill="" stroke="#000000" stroke-width="0.80" />
<polyline points="1.7000000000007276,85.8465 11.299999999999272,85.8465" fill="" stroke="#000000" stroke-width="0.80" />
<polyline points="1.7000000000007276,90.8465 11.299999999999272,90.8465" fill="" stroke="#000000" stroke-width="0.80" />
<polyline points="1.7000000000007276,95.8465 11.299999999999272,95.8465" fill="" stroke="#000000" stroke-width="0.80" />
<polyline points="1.7000000000007276,100.846 11.299999999999272,100.846" fill="" stroke="#000000" stroke-width="0.80" />
<polyline points="1.7000000000007276,105.846 11.299999999999272,105.846" fill="" stroke="#000000" stroke-width="0.80" />
<polyline points="1.7000000000007276,110.846 11.299999999999272,110.846" fill="" stroke="#000000" stroke-width="0.80" />
<polyline points="1.7000000000007276,58.3465 11.299999999999272,58.3465" fill="" stroke="#000000" stroke-width="0.80" />
<polyline points="157.89999999999964,63.3465 255.0,63.3465" fill="none" stroke="#000000" stroke-width="0.40" />
<polyline points="157.89999999999964,68.3465 255.0,68.3465" fill="none" stroke="#000000" stroke-width="0.40" />
<polyline points="157.89999999999964,73.3465 255.0,73.3465" fill="none" stroke="#000000" stroke-width="0.40" />
<polyline points="157.89999999999964,78.3465 255.0,78.3465" fill="none" stroke="#000000" stroke-width="0.40" />
<polyline points="157.89999999999964,83.3465 255.0,83.3465" fill="none" stroke="#000000" stroke-width="0.40" />
<polyline points="157.89999999999964,115.846 255.0,115.846" fill="none" stroke="#000000" stroke-width="0.40" />
<polyline points="157.89999999999964,120.846 255.0,120.846" fill="none" stroke="#000000" stroke-width="0.40" />
<polyline points="157.89999999999964,125.846 255.0,125.846" fill="none" stroke="#000000" stroke-width="0.40" />
<polyline points="157.89999999999964,130.846 255.0,130.846" fill="none" stroke="#000000" stroke-width="0.40" />
<polyline points="157.89999999999964,135.846 255.0,135.846" fill="none" stroke="#000000" stroke-width="0.40" />
<polyline points="157.89999999999964,168.346 255.0,168.346" fill="none" stroke="#000000" stroke-width="0.40" />
<polyline points="157.89999999999964,173.346 255.0,173.346" fill="none" stroke="#000000" stroke-width="0.40" />
<polyline points="157.89999999999964,178.346 255.0,178.346" fill="none" stroke="#000000" stroke-width="0.40" />
<polyline points="157.89999999999964,183.346 255.0,183.346" fill="none" stroke="#000000" stroke-width="0.40" />
<polyline points="157.89999999999964,188.346 255.0,188.346" fill="none" stroke="#000000" stroke-width="0.40" />
<polyline points="157.89999999999964,220.846 255.0,220.846" fill="none" stroke="#000000" stroke-width="0.40" />
<polyline points="157.89999999999964,225.846 255.0,225.846" fill="none" stroke="#000000" stroke-width="0.40" />
<polyline points="157.89999999999964,230.846 255.0,230.846" fill="none" stroke="#000000" stroke-width="0.40" />
<polyline points="157.89999999999964,235.846 255.0,235.846" fill="none" stroke="#000000" stroke-width="0.40" />
<polyline points="157.89999999999964,240.846 255.0,240.846" fill="none" stroke="#000000" stroke-width="0.40" />
<polyline points="158.29999999999927,63.3465 158.29999999999927,255.0" fill="" stroke="#000000" stroke-width="0.80" />
<polyline points="227.10000000000036,76.7855 227.10000000000036,125.43" fill="" stroke="#000000" stroke-width="0.65" />
<polyline points="227.10000000000036,54.2855 227.10000000000036,72.9298" fill="" stroke="#000000" stroke-width="0.65" />
<polyline points="196.39999999999964,216.786 196.39999999999964,232.096" fill="" stroke="#000000" stroke-width="0.65" />
<polyline points="202.29999999999927,192.407 202.29999999999927,155.846" fill="" stroke="#000000" stroke-width="0.65" />
<polyline points="196.39999999999964,76.7855 196.39999999999964,125.846" fill="" stroke="#000000" stroke-width="0.65" />
<polyline points="196.39999999999964,54.2855 196.39999999999964,73.3465" fill="" stroke="#000000" stroke-width="0.65" />
<polyline points="225.29999999999927,75.8465 234.89999999999964,75.8465" fill="" stroke="#000000" stroke-width="0.80" />
<polyline points="225.29999999999927,80.8465 234.89999999999964,80.8465" fill="" stroke="#000000" stroke-width="0.80" />
<polyline points="225.29999999999927,85.8465 234.89999999999964,85.8465" fill="" stroke="#000000" stroke-width="0.80" />
<polyline points="225.29999999999927,90.8465 234.89999999999964,90.8465" fill="" stroke="#000000" stroke-width="0.80" />
<polyline points="225.29999999999927,95.8465 234.89999999999964,95.8465" fill="" stroke="#000000" stroke-width="0.80" />
<polyline points="225.29999999999927,100.846 234.89999999999964,100.846" fill="" stroke="#000000" stroke-width="0.80" />
<polyline points="225.29999999999927,105.846 234.89999999999964,105.846" fill="" stroke="#000000" stroke-width="0.80" />
<polyline points="225.29999999999927,110.846 234.89999999999964,110.846" fill="" stroke="#000000" stroke-width="0.80" />
<polyline points="225.29999999999927,53.3465 234.89999999999964,53.3465" fill="" stroke="#000000" stroke-width="0.80" />
<polyline points="225.29999999999927,58.3465 234.89999999999964,58.3465" fill="" stroke="#000000" stroke-width="0.80" />
<polyline points="194.60000000000036,215.846 204.10000000000036,215.846" fill="" stroke="#000000" stroke-width="0.80" />
<polyline points="194.60000000000036,193.346 204.10000000000036,193.346" fill="" stroke="#000000" stroke-width="0.80" />
<polyline points="194.60000000000036,75.8465 204.10000000000036,75.8465" fill="" stroke="#000000" stroke-width="0.80" />
<polyline points="188.60000000000036,80.8465 204.10000000000036,80.8465" fill="" stroke="#000000" stroke-width="0.80" />
<polyline points="188.60000000000036,85.8465 204.10000000000036,85.8465" fill="" stroke="#000000" stroke-width="0.80" />
<polyline points="188.60000000000036,90.8465 204.10000000000036,90.8465" fill="" stroke="#000000" stroke-width="0.80" />
<polyline points="188.60000000000036,95.8465 204.10000000000036,95.8465" fill="" stroke="#000000" stroke-width="0.80" />
<polyline points="188.60000000000036,100.846 204.10000000000036,100.846" fill="" stroke="#000000" stroke-width="0.80" />
<polyline points="188.60000000000036,105.846 204.10000000000036,105.846" fill="" stroke="#000000" stroke-width="0.80" />
<polyline points="188.60000000000036,110.846 204.10000000000036,110.846" fill="" stroke="#000000" stroke-width="0.80" />
<polyline points="194.60000000000036,53.3465 204.10000000000036,53.3465" fill="" stroke="#000000" stroke-width="0.80" />
<polyline points="188.60000000000036,58.3465 204.10000000000036,58.3465" fill="" stroke="#000000" stroke-width="0.80" />
</svg>
