<?xml version="1.0" encoding="UTF-8" standalone="yes"?>
<svg width="256.0px" height="256.0px" xmlns="http://www.w3.org/2000/svg" xmlns:xlink="http://www.w3.org/1999/xlink" version="1.2" baseProfile="tiny">
<path d="M111.86900000000003,25.557999999999993 C111.88999999999999,25.442999999999984 111.91600000000005,25.339000000000055 111.947,25.245000000000005 C111.97900000000004,25.150999999999954 112.03599999999994,25.019000000000005 112.11900000000003,24.84699999999998 C112.20299999999997,24.674999999999955 112.29899999999998,24.53200000000004 112.40800000000002,24.41700000000003 C112.51800000000003,24.30200000000002 112.67100000000005,24.201000000000022 112.86900000000003,24.111999999999966 C113.06700000000001,24.024 113.28599999999994,23.979000000000042 113.52599999999995,23.979000000000042 C113.94200000000001,23.979000000000042 114.29100000000005,24.11500000000001 114.572,24.385999999999967 C114.85400000000004,24.65700000000004 114.99400000000003,24.99000000000001 114.99400000000003,25.385999999999967 C114.99400000000003,25.99000000000001 114.65599999999995,26.650999999999954 113.97900000000004,27.370000000000005 L112.65099999999995,28.79200000000003 L114.54100000000005,28.79200000000003 C114.72900000000004,28.79200000000003 114.86699999999996,28.760999999999967 114.95500000000004,28.69799999999998 C115.04399999999998,28.635999999999967 115.16099999999994,28.49000000000001 115.30700000000002,28.260999999999967 L115.41600000000005,28.29200000000003 L114.96299999999997,29.370000000000005 L111.85400000000004,29.370000000000005 L111.85400000000004,29.275999999999954 L113.27599999999995,27.760999999999967 C113.97400000000005,27.03200000000004 114.322,26.34400000000005 114.322,25.69799999999998 C114.322,25.354000000000042 114.21799999999996,25.077999999999975 114.00999999999999,24.870000000000005 C113.80200000000002,24.662000000000035 113.53099999999995,24.557999999999993 113.197,24.557999999999993 C112.91600000000005,24.557999999999993 112.69200000000001,24.633000000000038 112.52599999999995,24.783999999999992 C112.35900000000004,24.934999999999945 112.197,25.208999999999946 112.04100000000005,25.604000000000042 L111.86900000000003,25.557999999999993" />
</svg>
