<?xml version="1.0" encoding="UTF-8" standalone="yes"?>
<svg width="256.0px" height="256.0px" xmlns="http://www.w3.org/2000/svg" xmlns:xlink="http://www.w3.org/1999/xlink" version="1.2" baseProfile="tiny">
<path d="M232.70999999999913,30.79200000000003 C232.57999999999993,30.69799999999998 232.4300000000003,30.591000000000008 232.28000000000065,30.47199999999998 C232.1299999999992,30.351999999999975 231.95999999999913,30.184999999999945 231.77000000000044,29.97199999999998 C231.59000000000015,29.758000000000038 231.42000000000007,29.53200000000004 231.27000000000044,29.29200000000003 C231.1299999999992,29.05200000000002 231.01000000000022,28.760999999999967 230.92000000000007,28.41700000000003 C230.8199999999997,28.07299999999998 230.77000000000044,27.71900000000005 230.77000000000044,27.354000000000042 C230.77000000000044,26.96900000000005 230.8199999999997,26.604000000000042 230.92000000000007,26.260999999999967 C231.01000000000022,25.91700000000003 231.1200000000008,25.633000000000038 231.26000000000022,25.408999999999992 C231.38999999999942,25.184999999999945 231.5599999999995,24.966000000000008 231.77000000000044,24.753000000000043 C231.96999999999935,24.538999999999987 232.13999999999942,24.383000000000038 232.27000000000044,24.283999999999992 C232.40999999999985,24.184999999999945 232.5599999999995,24.077999999999975 232.72999999999956,23.964000000000055 L232.8099999999995,24.089000000000055 C232.57999999999993,24.287000000000035 232.38999999999942,24.461000000000013 232.23999999999978,24.611999999999966 C232.10000000000036,24.763000000000034 231.95999999999913,24.964000000000055 231.8199999999997,25.214000000000055 C231.6900000000005,25.464000000000055 231.59000000000015,25.760999999999967 231.53000000000065,26.104000000000042 C231.47999999999956,26.44799999999998 231.45000000000073,26.860000000000014 231.45000000000073,27.339000000000055 C231.45000000000073,27.827999999999975 231.47999999999956,28.253000000000043 231.53000000000065,28.611999999999966 C231.59000000000015,28.97199999999998 231.6900000000005,29.275999999999954 231.8199999999997,29.525999999999954 C231.95999999999913,29.775999999999954 232.10000000000036,29.98199999999997 232.23999999999978,30.144000000000005 C232.38999999999942,30.30499999999995 232.57999999999993,30.474000000000046 232.8099999999995,30.650999999999954 L232.70999999999913,30.79200000000003 M233.23999999999978,27.66700000000003 C233.23999999999978,27.07299999999998 233.42000000000007,26.59699999999998 233.77000000000044,26.236999999999966 C234.1200000000008,25.878000000000043 234.52000000000044,25.69799999999998 234.98999999999978,25.69799999999998 C235.32999999999993,25.69799999999998 235.61000000000058,25.778999999999996 235.84000000000015,25.940000000000055 C236.07999999999993,26.101999999999975 236.20000000000073,26.297000000000025 236.20000000000073,26.525999999999954 C236.20000000000073,26.610000000000014 236.15999999999985,26.684999999999945 236.09000000000015,26.753000000000043 C236.01000000000022,26.821000000000026 235.9300000000003,26.854000000000042 235.8199999999997,26.854000000000042 C235.63999999999942,26.854000000000042 235.52000000000044,26.735000000000014 235.45999999999913,26.495000000000005 L235.42000000000007,26.32299999999998 C235.3700000000008,26.16700000000003 235.3199999999997,26.062999999999988 235.26000000000022,26.010999999999967 C235.20000000000073,25.958999999999946 235.09000000000015,25.932999999999993 234.95000000000073,25.932999999999993 C234.6200000000008,25.932999999999993 234.36000000000058,26.059999999999945 234.17000000000007,26.315000000000055 C233.96999999999935,26.571000000000026 233.8700000000008,26.90700000000004 233.8700000000008,27.32299999999998 C233.8700000000008,27.770999999999958 233.97999999999956,28.140999999999963 234.20999999999913,28.432999999999993 C234.4400000000005,28.724000000000046 234.73999999999978,28.870000000000005 235.10000000000036,28.870000000000005 C235.3199999999997,28.870000000000005 235.51000000000022,28.812999999999988 235.67000000000007,28.69799999999998 C235.82999999999993,28.583999999999946 236.01000000000022,28.390999999999963 236.20000000000073,28.120000000000005 L236.3099999999995,28.182999999999993 C236.25,28.297000000000025 236.20999999999913,28.388000000000034 236.17000000000007,28.456000000000017 C236.13999999999942,28.524 236.0699999999997,28.628000000000043 235.95999999999913,28.769000000000005 C235.86000000000058,28.908999999999992 235.76000000000022,29.020999999999958 235.65999999999985,29.104000000000042 C235.5599999999995,29.187999999999988 235.4300000000003,29.265999999999963 235.27000000000044,29.339000000000055 C235.11000000000058,29.412000000000035 234.9400000000005,29.44799999999998 234.76000000000022,29.44799999999998 C234.3199999999997,29.44799999999998 233.95999999999913,29.28200000000004 233.67000000000007,28.94799999999998 C233.38999999999942,28.61500000000001 233.23999999999978,28.187999999999988 233.23999999999978,27.66700000000003 M236.92000000000007,23.964000000000055 C237.0599999999995,24.047000000000025 237.20999999999913,24.149 237.35000000000036,24.269000000000005 C237.5,24.388000000000034 237.67000000000007,24.55499999999995 237.86000000000058,24.769000000000005 C238.04999999999927,24.98199999999997 238.21999999999935,25.211000000000013 238.36000000000058,25.456000000000017 C238.5,25.701000000000022 238.6200000000008,25.991999999999962 238.71999999999935,26.331000000000017 C238.8199999999997,26.66999999999996 238.8700000000008,27.025999999999954 238.8700000000008,27.400999999999954 C238.8700000000008,27.775999999999954 238.8199999999997,28.135999999999967 238.71999999999935,28.479000000000042 C238.6200000000008,28.82299999999998 238.51000000000022,29.110000000000014 238.3799999999992,29.339000000000055 C238.25,29.567999999999984 238.07999999999993,29.787000000000035 237.8700000000008,29.995000000000005 C237.65999999999985,30.202999999999975 237.48999999999978,30.360000000000014 237.36000000000058,30.464000000000055 C237.22999999999956,30.567999999999984 237.07999999999993,30.67700000000002 236.89999999999964,30.79200000000003 L236.8199999999997,30.650999999999954 C237.0599999999995,30.464000000000055 237.25,30.29200000000003 237.39999999999964,30.135999999999967 C237.54999999999927,29.979000000000042 237.6800000000003,29.778999999999996 237.8099999999995,29.533999999999992 C237.9400000000005,29.288999999999987 238.04000000000087,28.995000000000005 238.09000000000015,28.650999999999954 C238.14999999999964,28.307999999999993 238.1800000000003,27.895999999999958 238.1800000000003,27.41700000000003 C238.1800000000003,26.92700000000002 238.14999999999964,26.503000000000043 238.09000000000015,26.144000000000005 C238.04000000000087,25.783999999999992 237.9400000000005,25.476999999999975 237.8099999999995,25.22199999999998 C237.6800000000003,24.966000000000008 237.54999999999927,24.760999999999967 237.39999999999964,24.604000000000042 C237.25,24.44799999999998 237.0599999999995,24.275999999999954 236.8199999999997,24.089000000000055 L236.92000000000007,23.964000000000055 M242.70000000000073,24.635999999999967 C242.59000000000015,24.635999999999967 242.39999999999964,24.692999999999984 242.1200000000008,24.807999999999993 L242.1200000000008,24.69799999999998 L243.54000000000087,23.964000000000055 L243.60000000000036,23.979000000000042 L243.60000000000036,28.775999999999954 C243.60000000000036,28.974000000000046 243.64999999999964,29.101999999999975 243.75,29.158999999999992 C243.85000000000036,29.216000000000008 244.0599999999995,29.245000000000005 244.3700000000008,29.245000000000005 L244.3700000000008,29.370000000000005 L242.17000000000007,29.370000000000005 L242.17000000000007,29.245000000000005 C242.46999999999935,29.235000000000014 242.67000000000007,29.190000000000055 242.77000000000044,29.111999999999966 C242.8799999999992,29.033999999999992 242.9300000000003,28.870000000000005 242.9300000000003,28.620000000000005 L242.9300000000003,25.010999999999967 C242.9300000000003,24.760999999999967 242.85000000000036,24.635999999999967 242.70000000000073,24.635999999999967 M245.6800000000003,29.54200000000003 L245.67000000000007,29.385999999999967 C246.27000000000044,29.28200000000004 246.78000000000065,29.024 247.20000000000073,28.611999999999966 C247.6299999999992,28.201000000000022 247.92000000000007,27.66700000000003 248.09000000000015,27.010999999999967 C247.6900000000005,27.32299999999998 247.29000000000087,27.479000000000042 246.8799999999992,27.479000000000042 C246.45999999999913,27.479000000000042 246.11000000000058,27.327999999999975 245.84000000000015,27.025999999999954 C245.57999999999993,26.724000000000046 245.45000000000073,26.333999999999946 245.45000000000073,25.854000000000042 C245.45000000000073,25.312999999999988 245.61000000000058,24.860000000000014 245.92000000000007,24.495000000000005 C246.23999999999978,24.129999999999995 246.63999999999942,23.94799999999998 247.1200000000008,23.94799999999998 C247.64999999999964,23.94799999999998 248.07999999999993,24.158999999999992 248.42000000000007,24.581000000000017 C248.75,25.003000000000043 248.92000000000007,25.547000000000025 248.92000000000007,26.214000000000055 C248.92000000000007,26.432999999999993 248.89999999999964,26.653999999999996 248.86000000000058,26.878000000000043 C248.8199999999997,27.101999999999975 248.73999999999978,27.366999999999962 248.60000000000036,27.674999999999955 C248.46999999999935,27.98199999999997 248.29000000000087,28.254999999999995 248.0599999999995,28.495000000000005 C247.84000000000015,28.735000000000014 247.52000000000044,28.952999999999975 247.1200000000008,29.150999999999954 C246.70999999999913,29.349000000000046 246.22999999999956,29.479000000000042 245.6800000000003,29.54200000000003 M247.1800000000003,27.120000000000005 C247.28000000000065,27.120000000000005 247.39999999999964,27.10699999999997 247.52000000000044,27.081000000000017 C247.64999999999964,27.05499999999995 247.78000000000065,26.991999999999962 247.90999999999985,26.894000000000005 C248.04000000000087,26.79499999999996 248.10000000000036,26.672000000000025 248.10000000000036,26.525999999999954 L248.10000000000036,26.214000000000055 C248.10000000000036,24.860000000000014 247.75,24.182999999999993 247.0599999999995,24.182999999999993 C246.88999999999942,24.182999999999993 246.75,24.226999999999975 246.6299999999992,24.315000000000055 C246.51000000000022,24.403999999999996 246.42000000000007,24.520999999999958 246.36000000000058,24.66700000000003 C246.29999999999927,24.812999999999988 246.26000000000022,24.958999999999946 246.22999999999956,25.104000000000042 C246.20000000000073,25.25 246.1800000000003,25.40700000000004 246.1800000000003,25.57299999999998 C246.1800000000003,26.05200000000002 246.27000000000044,26.42999999999995 246.45000000000073,26.706000000000017 C246.63999999999942,26.98199999999997 246.8799999999992,27.120000000000005 247.1800000000003,27.120000000000005 M251.26000000000022,29.479000000000042 C250.71999999999935,29.479000000000042 250.28000000000065,29.265999999999963 249.95000000000073,28.839000000000055 C249.6299999999992,28.412000000000035 249.45999999999913,27.84400000000005 249.45999999999913,27.135999999999967 C249.45999999999913,26.91700000000003 249.48999999999978,26.692999999999984 249.53000000000065,26.464000000000055 C249.57999999999993,26.235000000000014 249.67000000000007,25.97199999999998 249.8099999999995,25.674999999999955 C249.95000000000073,25.378000000000043 250.13999999999942,25.111999999999966 250.3799999999992,24.878000000000043 C250.61000000000058,24.644000000000005 250.9300000000003,24.434999999999945 251.34000000000015,24.253000000000043 C251.76000000000022,24.071000000000026 252.22999999999956,23.952999999999975 252.77000000000044,23.900999999999954 L252.79000000000087,24.025999999999954 C252.14999999999964,24.129999999999995 251.6299999999992,24.385999999999967 251.20000000000073,24.79200000000003 C250.78000000000065,25.19799999999998 250.51000000000022,25.702999999999975 250.39999999999964,26.307999999999993 C250.64999999999964,26.162000000000035 250.84000000000015,26.067999999999984 250.96999999999935,26.025999999999954 C251.10000000000036,25.985000000000014 251.25,25.964000000000055 251.4300000000003,25.964000000000055 C251.89999999999964,25.964000000000055 252.27000000000044,26.111999999999966 252.54999999999927,26.408999999999992 C252.8199999999997,26.706000000000017 252.95999999999913,27.104000000000042 252.95999999999913,27.604000000000042 C252.95999999999913,28.15700000000004 252.79999999999927,28.60699999999997 252.48999999999978,28.956000000000017 C252.17000000000007,29.30499999999995 251.76000000000022,29.479000000000042 251.26000000000022,29.479000000000042 M251.1299999999992,26.32299999999998 C250.77000000000044,26.32299999999998 250.52000000000044,26.400999999999954 250.38999999999942,26.557999999999993 C250.26000000000022,26.714000000000055 250.20000000000073,26.94799999999998 250.20000000000073,27.260999999999967 C250.20000000000073,27.875 250.29999999999927,28.360000000000014 250.51000000000022,28.714000000000055 C250.71999999999935,29.067999999999984 250.98999999999978,29.245000000000005 251.34000000000015,29.245000000000005 C251.6299999999992,29.245000000000005 251.85000000000036,29.128000000000043 251.98999999999978,28.894000000000005 C252.13999999999942,28.658999999999992 252.20999999999913,28.32299999999998 252.20999999999913,27.885999999999967 C252.20999999999913,27.385999999999967 252.1200000000008,27.0 251.9300000000003,26.729000000000042 C251.73999999999978,26.458999999999946 251.47999999999956,26.32299999999998 251.1299999999992,26.32299999999998 M255.51000000000022,26.400999999999954 C256.0,26.754999999999995 256.3299999999999,27.05200000000002 256.5,27.29200000000003 C256.6700000000001,27.53200000000004 256.7600000000002,27.807999999999993 256.7600000000002,28.120000000000005 C256.7600000000002,28.537000000000035 256.6200000000008,28.866999999999962 256.3299999999999,29.111999999999966 C256.0400000000009,29.35699999999997 255.65999999999985,29.479000000000042 255.1800000000003,29.479000000000042 C254.71999999999935,29.479000000000042 254.35000000000036,29.35699999999997 254.0599999999995,29.111999999999966 C253.78000000000065,28.866999999999962 253.6299999999992,28.547000000000025 253.6299999999992,28.150999999999954 C253.6299999999992,27.879999999999995 253.70000000000073,27.653999999999996 253.82999999999993,27.47199999999998 C253.95999999999913,27.288999999999987 254.23999999999978,27.037000000000035 254.6800000000003,26.714000000000055 C254.25,26.339000000000055 253.97999999999956,26.062999999999988 253.86000000000058,25.885999999999967 C253.73999999999978,25.708999999999946 253.6800000000003,25.49000000000001 253.6800000000003,25.229000000000042 C253.6800000000003,24.86500000000001 253.8199999999997,24.559999999999945 254.11000000000058,24.315000000000055 C254.39999999999964,24.071000000000026 254.76000000000022,23.94799999999998 255.20999999999913,23.94799999999998 C255.61000000000058,23.94799999999998 255.9300000000003,24.05499999999995 256.1900000000005,24.269000000000005 C256.4400000000005,24.48199999999997 256.5699999999997,24.760999999999967 256.5699999999997,25.104000000000042 C256.5699999999997,25.375 256.4899999999998,25.604000000000042 256.34000000000015,25.79200000000003 C256.1800000000003,25.979000000000042 255.89999999999964,26.182999999999993 255.51000000000022,26.400999999999954 M254.8799999999992,26.870000000000005 C254.64999999999964,27.057999999999993 254.48999999999978,27.241999999999962 254.39999999999964,27.424999999999955 C254.3099999999995,27.60699999999997 254.26000000000022,27.827999999999975 254.26000000000022,28.089000000000055 C254.26000000000022,28.432999999999993 254.35000000000036,28.711000000000013 254.53000000000065,28.924999999999955 C254.70999999999913,29.138000000000034 254.95999999999913,29.245000000000005 255.26000000000022,29.245000000000005 C255.52000000000044,29.245000000000005 255.72999999999956,29.163999999999987 255.88999999999942,29.003000000000043 C256.0499999999993,28.841000000000008 256.1299999999992,28.629999999999995 256.1299999999992,28.370000000000005 C256.1299999999992,28.287000000000035 256.1299999999992,28.206000000000017 256.1100000000006,28.128000000000043 C256.09000000000015,28.049999999999955 256.0799999999999,27.985000000000014 256.0599999999995,27.932999999999993 C256.03000000000065,27.879999999999995 256.0,27.817999999999984 255.9400000000005,27.745000000000005 C255.8799999999992,27.672000000000025 255.84000000000015,27.616999999999962 255.8099999999995,27.581000000000017 C255.77000000000044,27.54499999999996 255.70999999999913,27.486999999999966 255.6299999999992,27.408999999999992 C255.54000000000087,27.331000000000017 255.46999999999935,27.275999999999954 255.42000000000007,27.245000000000005 C255.3799999999992,27.214000000000055 255.29000000000087,27.153999999999996 255.17000000000007,27.065000000000055 C255.04000000000087,26.976999999999975 254.95000000000073,26.912000000000035 254.8799999999992,26.870000000000005 M255.27000000000044,26.260999999999967 C255.28000000000065,26.25 255.3199999999997,26.22199999999998 255.38999999999942,26.174999999999955 C255.45999999999913,26.128000000000043 255.51000000000022,26.091000000000008 255.53000000000065,26.065000000000055 C255.5599999999995,26.038999999999987 255.60000000000036,26.0 255.67000000000007,25.94799999999998 C255.72999999999956,25.895999999999958 255.77000000000044,25.84400000000005 255.8099999999995,25.79200000000003 C255.84000000000015,25.74000000000001 255.8700000000008,25.67700000000002 255.92000000000007,25.604000000000042 C255.95999999999913,25.53200000000004 255.98999999999978,25.451000000000022 256.0,25.361999999999966 C256.02000000000044,25.274 256.02000000000044,25.182999999999993 256.02000000000044,25.089000000000055 C256.02000000000044,24.817999999999984 255.95000000000073,24.599000000000046 255.79000000000087,24.432999999999993 C255.6299999999992,24.265999999999963 255.42000000000007,24.182999999999993 255.14999999999964,24.182999999999993 C254.89999999999964,24.182999999999993 254.6900000000005,24.258000000000038 254.53000000000065,24.408999999999992 C254.3700000000008,24.559999999999945 254.29000000000087,24.75 254.29000000000087,24.979000000000042 C254.29000000000087,25.19799999999998 254.3700000000008,25.40700000000004 254.52000000000044,25.604000000000042 C254.67000000000007,25.80200000000002 254.92000000000007,26.020999999999958 255.27000000000044,26.260999999999967 M264.6299999999992,26.69799999999998 C264.6299999999992,26.937999999999988 264.6100000000006,27.172000000000025 264.5499999999993,27.400999999999954 C264.4899999999998,27.629999999999995 264.3899999999994,27.866999999999962 264.25,28.111999999999966 C264.1100000000006,28.35699999999997 263.9300000000003,28.567999999999984 263.7000000000007,28.745000000000005 C263.47999999999956,28.922000000000025 263.1800000000003,29.071000000000026 262.8099999999995,29.190000000000055 C262.4300000000003,29.309999999999945 262.0100000000002,29.370000000000005 261.5400000000009,29.370000000000005 L259.27000000000044,29.370000000000005 L259.27000000000044,29.214000000000055 C259.5799999999999,29.192999999999984 259.77000000000044,29.140999999999963 259.85000000000036,29.057999999999993 C259.9400000000005,28.974000000000046 259.97999999999956,28.787000000000035 259.97999999999956,28.495000000000005 L259.97999999999956,24.94799999999998 C259.97999999999956,24.65700000000004 259.9400000000005,24.47199999999998 259.8600000000006,24.394000000000005 C259.78000000000065,24.315000000000055 259.59000000000015,24.260999999999967 259.27000000000044,24.229000000000042 L259.27000000000044,24.07299999999998 L261.4300000000003,24.07299999999998 C261.9200000000001,24.07299999999998 262.3600000000006,24.128000000000043 262.7399999999998,24.236999999999966 C263.1200000000008,24.34699999999998 263.4200000000001,24.486999999999966 263.65999999999985,24.658999999999992 C263.8899999999994,24.831000000000017 264.0799999999999,25.037000000000035 264.2399999999998,25.275999999999954 C264.3899999999994,25.515999999999963 264.4899999999998,25.75 264.5499999999993,25.979000000000042 C264.6100000000006,26.208999999999946 264.6299999999992,26.44799999999998 264.6299999999992,26.69799999999998 M263.7399999999998,26.760999999999967 C263.7399999999998,26.53200000000004 263.71999999999935,26.309999999999945 263.6800000000003,26.09699999999998 C263.6399999999994,25.883000000000038 263.5599999999995,25.66999999999996 263.4400000000005,25.456000000000017 C263.3199999999997,25.241999999999962 263.1700000000001,25.059999999999945 262.97999999999956,24.908999999999992 C262.7900000000009,24.758000000000038 262.5499999999993,24.633000000000038 262.2399999999998,24.533999999999992 C261.9400000000005,24.434999999999945 261.60000000000036,24.385999999999967 261.2099999999991,24.385999999999967 C261.0499999999993,24.385999999999967 260.9300000000003,24.40700000000004 260.8799999999992,24.44799999999998 C260.8199999999997,24.49000000000001 260.7900000000009,24.57299999999998 260.7900000000009,24.69799999999998 L260.7900000000009,28.745000000000005 C260.7900000000009,28.870000000000005 260.8199999999997,28.956000000000017 260.8799999999992,29.003000000000043 C260.9300000000003,29.049999999999955 261.0499999999993,29.07299999999998 261.2099999999991,29.07299999999998 C262.89999999999964,29.07299999999998 263.7399999999998,28.30200000000002 263.7399999999998,26.760999999999967 M267.5699999999997,26.885999999999967 C267.4400000000005,26.458999999999946 267.3299999999999,26.190000000000055 267.25,26.081000000000017 C267.1700000000001,25.97199999999998 267.0499999999993,25.90700000000004 266.8700000000008,25.885999999999967 L266.8700000000008,25.775999999999954 L268.4899999999998,25.775999999999954 L268.4899999999998,25.885999999999967 C268.3099999999995,25.91700000000003 268.1800000000003,25.951000000000022 268.1200000000008,25.986999999999966 C268.0599999999995,26.024 268.02000000000044,26.089000000000055 268.02000000000044,26.182999999999993 C268.02000000000044,26.245000000000005 268.0699999999997,26.400999999999954 268.1700000000001,26.650999999999954 L268.84000000000015,28.44799999999998 L269.5599999999995,26.66700000000003 C269.64999999999964,26.44799999999998 269.7000000000007,26.270999999999958 269.7000000000007,26.135999999999967 C269.7000000000007,26.07299999999998 269.6700000000001,26.024 269.6200000000008,25.986999999999966 C269.5699999999997,25.951000000000022 269.46999999999935,25.91700000000003 269.34000000000015,25.885999999999967 L269.34000000000015,25.775999999999954 L270.3199999999997,25.775999999999954 L270.3199999999997,25.885999999999967 C270.2399999999998,25.91700000000003 270.1800000000003,25.956000000000017 270.14999999999964,26.003000000000043 C270.1200000000008,26.049999999999955 270.0699999999997,26.15700000000004 269.9899999999998,26.32299999999998 L268.8799999999992,29.089000000000055 C268.78000000000065,29.349000000000046 268.7099999999991,29.479000000000042 268.6700000000001,29.479000000000042 C268.6200000000008,29.479000000000042 268.5599999999995,29.36500000000001 268.47999999999956,29.135999999999967 L267.7399999999998,27.245000000000005 L266.85000000000036,29.16700000000003 C266.7600000000002,29.375 266.6900000000005,29.479000000000042 266.64999999999964,29.479000000000042 C266.6100000000006,29.479000000000042 266.5400000000009,29.36500000000001 266.4500000000007,29.135999999999967 L265.3700000000008,26.400999999999954 C265.28000000000065,26.192999999999984 265.21999999999935,26.057999999999993 265.1700000000001,25.995000000000005 C265.1100000000006,25.932999999999993 265.0400000000009,25.895999999999958 264.9500000000007,25.885999999999967 L264.9500000000007,25.775999999999954 L266.3799999999992,25.775999999999954 L266.3799999999992,25.885999999999967 C266.2399999999998,25.90700000000004 266.1399999999994,25.934999999999945 266.09000000000015,25.97199999999998 C266.03000000000065,26.008000000000038 266.0100000000002,26.067999999999984 266.0100000000002,26.150999999999954 C266.0100000000002,26.235000000000014 266.02000000000044,26.317999999999984 266.0599999999995,26.400999999999954 L266.85000000000036,28.479000000000042 L267.5699999999997,26.885999999999967 M270.59000000000015,28.57299999999998 C270.59000000000015,28.479000000000042 270.60000000000036,28.394000000000005 270.6200000000008,28.315000000000055 C270.6399999999994,28.236999999999966 270.6800000000003,28.162000000000035 270.72999999999956,28.089000000000055 C270.78000000000065,28.015999999999963 270.8299999999999,27.951000000000022 270.8799999999992,27.894000000000005 C270.9400000000005,27.836000000000013 271.0100000000002,27.775999999999954 271.10000000000036,27.714000000000055 C271.2000000000007,27.650999999999954 271.27000000000044,27.599000000000046 271.34000000000015,27.557999999999993 C271.39999999999964,27.515999999999963 271.4899999999998,27.46900000000005 271.6200000000008,27.41700000000003 C271.7399999999998,27.36500000000001 271.84000000000015,27.32299999999998 271.90999999999985,27.29200000000003 C271.97999999999956,27.260999999999967 272.0799999999999,27.216000000000008 272.2399999999998,27.158999999999992 C272.3899999999994,27.101999999999975 272.4899999999998,27.057999999999993 272.5599999999995,27.025999999999954 L272.5599999999995,26.54200000000003 C272.5599999999995,26.104000000000042 272.3600000000006,25.885999999999967 271.9599999999991,25.885999999999967 C271.7999999999993,25.885999999999967 271.65999999999985,25.924999999999955 271.5499999999993,26.003000000000043 C271.4400000000005,26.081000000000017 271.3799999999992,26.172000000000025 271.3799999999992,26.275999999999954 C271.3799999999992,26.317999999999984 271.3899999999994,26.375 271.40999999999985,26.44799999999998 C271.4200000000001,26.520999999999958 271.4300000000003,26.567999999999984 271.4300000000003,26.589000000000055 C271.4300000000003,26.682999999999993 271.3899999999994,26.763000000000034 271.3199999999997,26.831000000000017 C271.25,26.899 271.15999999999985,26.932999999999993 271.0599999999995,26.932999999999993 C270.9599999999991,26.932999999999993 270.8799999999992,26.899 270.8099999999995,26.831000000000017 C270.75,26.763000000000034 270.7099999999991,26.682999999999993 270.7099999999991,26.589000000000055 C270.7099999999991,26.339000000000055 270.84000000000015,26.128000000000043 271.10000000000036,25.956000000000017 C271.3600000000006,25.783999999999992 271.6800000000003,25.69799999999998 272.0599999999995,25.69799999999998 C272.47999999999956,25.69799999999998 272.78000000000065,25.80200000000002 272.9400000000005,26.010999999999967 C273.10000000000036,26.21900000000005 273.1800000000003,26.537000000000035 273.1800000000003,26.964000000000055 L273.1800000000003,28.510999999999967 C273.1800000000003,28.687999999999988 273.2000000000007,28.809999999999945 273.2399999999998,28.878000000000043 C273.27000000000044,28.946000000000026 273.34000000000015,28.979000000000042 273.4300000000003,28.979000000000042 C273.53000000000065,28.979000000000042 273.64999999999964,28.92700000000002 273.77000000000044,28.82299999999998 L273.77000000000044,29.04200000000003 C273.6399999999994,29.19799999999998 273.52000000000044,29.30499999999995 273.4200000000001,29.361999999999966 C273.3099999999995,29.41999999999996 273.1900000000005,29.44799999999998 273.0599999999995,29.44799999999998 C272.89999999999964,29.44799999999998 272.78000000000065,29.400999999999954 272.7099999999991,29.307999999999993 C272.6399999999994,29.214000000000055 272.59000000000015,29.062999999999988 272.5699999999997,28.854000000000042 C272.1100000000006,29.25 271.72999999999956,29.44799999999998 271.4200000000001,29.44799999999998 C271.1800000000003,29.44799999999998 270.97999999999956,29.366999999999962 270.8199999999997,29.206000000000017 C270.6700000000001,29.04499999999996 270.59000000000015,28.833999999999946 270.59000000000015,28.57299999999998 M272.5599999999995,28.370000000000005 L272.5599999999995,27.214000000000055 C272.0799999999999,27.390999999999963 271.7399999999998,27.562999999999988 271.5599999999995,27.729000000000042 C271.3700000000008,27.895999999999958 271.27000000000044,28.09400000000005 271.27000000000044,28.32299999999998 C271.27000000000044,28.54200000000003 271.3299999999999,28.702999999999975 271.4300000000003,28.807999999999993 C271.53000000000065,28.912000000000035 271.64999999999964,28.964000000000055 271.77000000000044,28.964000000000055 C271.9500000000007,28.964000000000055 272.1399999999994,28.90700000000004 272.35000000000036,28.79200000000003 C272.4400000000005,28.74000000000001 272.4899999999998,28.687999999999988 272.52000000000044,28.635999999999967 C272.5400000000009,28.583999999999946 272.5599999999995,28.495000000000005 272.5599999999995,28.370000000000005 M276.2399999999998,26.44799999999998 C276.15999999999985,26.44799999999998 276.0599999999995,26.400999999999954 275.9400000000005,26.307999999999993 C275.8199999999997,26.214000000000055 275.7399999999998,26.16700000000003 275.7099999999991,26.16700000000003 C275.6100000000006,26.16700000000003 275.4899999999998,26.245000000000005 275.35000000000036,26.400999999999954 C275.21999999999935,26.557999999999993 275.14999999999964,26.702999999999975 275.14999999999964,26.839000000000055 L275.14999999999964,28.650999999999954 C275.14999999999964,28.879999999999995 275.1900000000005,29.033999999999992 275.28000000000065,29.111999999999966 C275.3700000000008,29.190000000000055 275.5499999999993,29.235000000000014 275.8199999999997,29.245000000000005 L275.8199999999997,29.370000000000005 L273.89999999999964,29.370000000000005 L273.89999999999964,29.245000000000005 C274.15999999999985,29.202999999999975 274.3199999999997,29.150999999999954 274.3799999999992,29.089000000000055 C274.4300000000003,29.025999999999954 274.4599999999991,28.895999999999958 274.4599999999991,28.69799999999998 L274.4599999999991,26.682999999999993 C274.4599999999991,26.504999999999995 274.4400000000005,26.379999999999995 274.40999999999985,26.307999999999993 C274.3700000000008,26.235000000000014 274.2999999999993,26.19799999999998 274.2000000000007,26.19799999999998 C274.1100000000006,26.19799999999998 274.02000000000044,26.208999999999946 273.9200000000001,26.229000000000042 L273.9200000000001,26.104000000000042 C274.34000000000015,25.96900000000005 274.7399999999998,25.833999999999946 275.10000000000036,25.69799999999998 L275.14999999999964,25.714000000000055 L275.14999999999964,26.41700000000003 C275.35000000000036,26.145999999999958 275.5100000000002,25.958999999999946 275.64999999999964,25.854000000000042 C275.78000000000065,25.75 275.9400000000005,25.69799999999998 276.10000000000036,25.69799999999998 C276.25,25.69799999999998 276.3600000000006,25.73199999999997 276.4300000000003,25.799999999999955 C276.5,25.866999999999962 276.5400000000009,25.96900000000005 276.5400000000009,26.104000000000042 C276.5400000000009,26.208999999999946 276.5100000000002,26.29200000000003 276.4599999999991,26.354000000000042 C276.40999999999985,26.41700000000003 276.34000000000015,26.44799999999998 276.2399999999998,26.44799999999998 M279.22999999999956,24.729000000000042 C279.1399999999994,24.729000000000042 279.0699999999997,24.69799999999998 279.0100000000002,24.635999999999967 C278.9500000000007,24.57299999999998 278.89999999999964,24.504999999999995 278.8600000000006,24.432999999999993 C278.8199999999997,24.360000000000014 278.77000000000044,24.29200000000003 278.7000000000007,24.229000000000042 C278.6200000000008,24.16700000000003 278.5400000000009,24.135999999999967 278.4500000000007,24.135999999999967 C278.1399999999994,24.135999999999967 277.9899999999998,24.370000000000005 277.9899999999998,24.839000000000055 L277.9899999999998,25.775999999999954 L278.97999999999956,25.775999999999954 L278.97999999999956,26.010999999999967 L277.9899999999998,26.010999999999967 L277.9899999999998,28.54200000000003 C277.9899999999998,28.833999999999946 278.03000000000065,29.020999999999958 278.1200000000008,29.104000000000042 C278.2000000000007,29.187999999999988 278.40999999999985,29.235000000000014 278.7399999999998,29.245000000000005 L278.7399999999998,29.370000000000005 L276.64999999999964,29.370000000000005 L276.64999999999964,29.245000000000005 C276.9400000000005,29.235000000000014 277.1299999999992,29.187999999999988 277.2000000000007,29.104000000000042 C277.28000000000065,29.020999999999958 277.3199999999997,28.833999999999946 277.3199999999997,28.54200000000003 L277.3199999999997,26.010999999999967 L276.6700000000001,26.010999999999967 L276.6700000000001,25.775999999999954 L277.3199999999997,25.775999999999954 C277.3299999999999,25.172000000000025 277.4400000000005,24.706000000000017 277.65999999999985,24.378000000000043 C277.8700000000008,24.049999999999955 278.22999999999956,23.885999999999967 278.72999999999956,23.885999999999967 C278.96999999999935,23.885999999999967 279.1700000000001,23.934999999999945 279.3199999999997,24.033999999999992 C279.47999999999956,24.133000000000038 279.5599999999995,24.254999999999995 279.5599999999995,24.400999999999954 C279.5599999999995,24.495000000000005 279.52000000000044,24.57299999999998 279.4599999999991,24.635999999999967 C279.39999999999964,24.69799999999998 279.3199999999997,24.729000000000042 279.22999999999956,24.729000000000042 M286.9300000000003,24.79200000000003 L284.8799999999992,29.370000000000005 L284.77000000000044,29.370000000000005 L282.77000000000044,24.979000000000042 L282.77000000000044,28.19799999999998 C282.77000000000044,28.604000000000042 282.8199999999997,28.873000000000047 282.9200000000001,29.003000000000043 C283.0100000000002,29.133000000000038 283.2099999999991,29.202999999999975 283.52000000000044,29.214000000000055 L283.52000000000044,29.370000000000005 L281.64999999999964,29.370000000000005 L281.64999999999964,29.214000000000055 C281.96999999999935,29.192999999999984 282.1800000000003,29.120000000000005 282.27000000000044,28.995000000000005 C282.3700000000008,28.870000000000005 282.4200000000001,28.604000000000042 282.4200000000001,28.19799999999998 L282.4200000000001,24.94799999999998 C282.4200000000001,24.65700000000004 282.3700000000008,24.46900000000005 282.28000000000065,24.385999999999967 C282.1900000000005,24.30200000000002 281.9899999999998,24.25 281.6700000000001,24.229000000000042 L281.6700000000001,24.07299999999998 L283.2399999999998,24.07299999999998 L285.09000000000015,28.120000000000005 L286.85000000000036,24.07299999999998 L288.4500000000007,24.07299999999998 L288.4500000000007,24.229000000000042 C288.1399999999994,24.260999999999967 287.9500000000007,24.317999999999984 287.8799999999992,24.400999999999954 C287.7999999999993,24.485000000000014 287.7600000000002,24.66700000000003 287.7600000000002,24.94799999999998 L287.7600000000002,28.495000000000005 C287.7600000000002,28.775999999999954 287.7999999999993,28.961000000000013 287.8799999999992,29.049999999999955 C287.96999999999935,29.138000000000034 288.14999999999964,29.192999999999984 288.4500000000007,29.214000000000055 L288.4500000000007,29.370000000000005 L286.2099999999991,29.370000000000005 L286.2099999999991,29.214000000000055 C286.52000000000044,29.192999999999984 286.71999999999935,29.135999999999967 286.8099999999995,29.04200000000003 C286.8899999999994,28.94799999999998 286.9300000000003,28.74000000000001 286.9300000000003,28.41700000000003 L286.9300000000003,24.79200000000003 M292.4200000000001,28.94799999999998 L292.4200000000001,29.07299999999998 C292.0,29.187999999999988 291.6299999999992,29.312999999999988 291.3199999999997,29.44799999999998 L291.2900000000009,29.432999999999993 L291.27000000000044,28.745000000000005 C291.2600000000002,28.765999999999963 291.21999999999935,28.815000000000055 291.1399999999994,28.894000000000005 C291.0599999999995,28.97199999999998 291.0100000000002,29.025999999999954 290.97999999999956,29.057999999999993 C290.9500000000007,29.089000000000055 290.8899999999994,29.135999999999967 290.8099999999995,29.19799999999998 C290.7399999999998,29.260999999999967 290.6700000000001,29.30499999999995 290.6100000000006,29.331000000000017 C290.5499999999993,29.35699999999997 290.47999999999956,29.383000000000038 290.3899999999994,29.408999999999992 C290.2999999999993,29.434999999999945 290.2099999999991,29.44799999999998 290.1200000000008,29.44799999999998 C289.8299999999999,29.44799999999998 289.59000000000015,29.351999999999975 289.4200000000001,29.158999999999992 C289.2399999999998,28.966000000000008 289.14999999999964,28.714000000000055 289.14999999999964,28.400999999999954 L289.14999999999964,26.385999999999967 C289.14999999999964,26.208999999999946 289.1200000000008,26.083999999999946 289.0499999999993,26.010999999999967 C288.97999999999956,25.937999999999988 288.85000000000036,25.895999999999958 288.64999999999964,25.885999999999967 L288.64999999999964,25.775999999999954 L289.8199999999997,25.775999999999954 L289.8199999999997,28.370000000000005 C289.8199999999997,28.525999999999954 289.8799999999992,28.663999999999987 289.9899999999998,28.783999999999992 C290.1100000000006,28.903999999999996 290.2399999999998,28.964000000000055 290.3799999999992,28.964000000000055 C290.4500000000007,28.964000000000055 290.52000000000044,28.956000000000017 290.59000000000015,28.940000000000055 C290.6700000000001,28.924999999999955 290.7600000000002,28.895999999999958 290.8700000000008,28.854000000000042 C290.96999999999935,28.812999999999988 291.0599999999995,28.741999999999962 291.1299999999992,28.644000000000005 C291.2099999999991,28.54499999999996 291.2399999999998,28.422000000000025 291.2399999999998,28.275999999999954 L291.2399999999998,26.400999999999954 C291.2399999999998,26.214000000000055 291.2099999999991,26.086000000000013 291.1299999999992,26.019000000000005 C291.0599999999995,25.951000000000022 290.89999999999964,25.912000000000035 290.64999999999964,25.900999999999954 L290.64999999999964,25.775999999999954 L291.9200000000001,25.775999999999954 L291.9200000000001,28.495000000000005 C291.9200000000001,28.682999999999993 291.9500000000007,28.80499999999995 292.0100000000002,28.861999999999966 C292.0699999999997,28.91999999999996 292.2000000000007,28.94799999999998 292.3799999999992,28.94799999999998 L292.4200000000001,28.94799999999998 M294.6200000000008,25.854000000000042 C294.6299999999992,25.854000000000042 294.6700000000001,25.827999999999975 294.7399999999998,25.775999999999954 L294.84000000000015,25.775999999999954 L294.8700000000008,26.854000000000042 L294.7399999999998,26.854000000000042 C294.65999999999985,26.5 294.5499999999993,26.248000000000047 294.4200000000001,26.09699999999998 C294.28000000000065,25.946000000000026 294.10000000000036,25.870000000000005 293.8700000000008,25.870000000000005 C293.6900000000005,25.870000000000005 293.5499999999993,25.922000000000025 293.4300000000003,26.025999999999954 C293.3199999999997,26.129999999999995 293.2600000000002,26.260999999999967 293.2600000000002,26.41700000000003 C293.2600000000002,26.645999999999958 293.3700000000008,26.827999999999975 293.60000000000036,26.964000000000055 L294.4599999999991,27.479000000000042 C294.7000000000007,27.625 294.8700000000008,27.770999999999958 294.97999999999956,27.91700000000003 C295.0799999999999,28.062999999999988 295.1299999999992,28.235000000000014 295.1299999999992,28.432999999999993 C295.1299999999992,28.702999999999975 295.02000000000044,28.940000000000055 294.7999999999993,29.144000000000005 C294.5699999999997,29.34699999999998 294.3099999999995,29.44799999999998 294.0100000000002,29.44799999999998 C293.8700000000008,29.44799999999998 293.6900000000005,29.424999999999955 293.46999999999935,29.378000000000043 C293.25,29.331000000000017 293.1100000000006,29.307999999999993 293.0599999999995,29.307999999999993 C292.96999999999935,29.307999999999993 292.90999999999985,29.339000000000055 292.8700000000008,29.400999999999954 L292.7600000000002,29.400999999999954 L292.7600000000002,28.150999999999954 L292.89999999999964,28.150999999999954 C292.97999999999956,28.525999999999954 293.0799999999999,28.79200000000003 293.2000000000007,28.94799999999998 C293.3600000000006,29.16700000000003 293.60000000000036,29.275999999999954 293.9200000000001,29.275999999999954 C294.1100000000006,29.275999999999954 294.27000000000044,29.224000000000046 294.3899999999994,29.120000000000005 C294.5100000000002,29.015999999999963 294.5699999999997,28.875 294.5699999999997,28.69799999999998 C294.5699999999997,28.458999999999946 294.4300000000003,28.260999999999967 294.14999999999964,28.104000000000042 L293.7000000000007,27.839000000000055 C293.35000000000036,27.640999999999963 293.1100000000006,27.456000000000017 292.96999999999935,27.283999999999992 C292.8299999999999,27.111999999999966 292.7600000000002,26.912000000000035 292.7600000000002,26.682999999999993 C292.7600000000002,26.390999999999963 292.8600000000006,26.153999999999996 293.0599999999995,25.97199999999998 C293.27000000000044,25.788999999999987 293.53000000000065,25.69799999999998 293.85000000000036,25.69799999999998 C294.02000000000044,25.69799999999998 294.1800000000003,25.724000000000046 294.34000000000015,25.775999999999954 C294.4899999999998,25.827999999999975 294.59000000000015,25.854000000000042 294.6200000000008,25.854000000000042 M295.89999999999964,26.229000000000042 C295.77000000000044,26.229000000000042 295.65999999999985,26.235000000000014 295.5599999999995,26.245000000000005 L295.5599999999995,26.135999999999967 C295.9300000000003,26.03200000000004 296.35000000000036,25.885999999999967 296.8099999999995,25.69799999999998 L296.84000000000015,25.714000000000055 L296.84000000000015,28.557999999999993 C296.84000000000015,28.839000000000055 296.8700000000008,29.019000000000005 296.9400000000005,29.09699999999998 C297.0100000000002,29.174999999999955 297.1700000000001,29.224000000000046 297.4300000000003,29.245000000000005 L297.4300000000003,29.370000000000005 L295.52000000000044,29.370000000000005 L295.52000000000044,29.245000000000005 C295.8099999999995,29.235000000000014 295.97999999999956,29.187999999999988 296.0599999999995,29.104000000000042 C296.1299999999992,29.020999999999958 296.1700000000001,28.839000000000055 296.1700000000001,28.557999999999993 L296.1700000000001,26.69799999999998 C296.1700000000001,26.520999999999958 296.1399999999994,26.399 296.10000000000036,26.331000000000017 C296.0599999999995,26.263000000000034 295.9899999999998,26.229000000000042 295.89999999999964,26.229000000000042 M296.4300000000003,23.900999999999954 C296.5499999999993,23.900999999999954 296.6399999999994,23.942999999999984 296.72999999999956,24.025999999999954 C296.8099999999995,24.110000000000014 296.85000000000036,24.208999999999946 296.85000000000036,24.32299999999998 C296.85000000000036,24.437999999999988 296.8099999999995,24.533999999999992 296.72999999999956,24.611999999999966 C296.6399999999994,24.690000000000055 296.5499999999993,24.729000000000042 296.4300000000003,24.729000000000042 C296.3199999999997,24.729000000000042 296.21999999999935,24.687999999999988 296.1399999999994,24.604000000000042 C296.0599999999995,24.520999999999958 296.02000000000044,24.424999999999955 296.02000000000044,24.315000000000055 C296.02000000000044,24.206000000000017 296.0599999999995,24.110000000000014 296.1399999999994,24.025999999999954 C296.21999999999935,23.942999999999984 296.3199999999997,23.900999999999954 296.4300000000003,23.900999999999954 M297.8199999999997,27.66700000000003 C297.8199999999997,27.07299999999998 298.0,26.59699999999998 298.34000000000015,26.236999999999966 C298.6900000000005,25.878000000000043 299.10000000000036,25.69799999999998 299.5699999999997,25.69799999999998 C299.89999999999964,25.69799999999998 300.1900000000005,25.778999999999996 300.4200000000001,25.940000000000055 C300.65999999999985,26.101999999999975 300.77000000000044,26.297000000000025 300.77000000000044,26.525999999999954 C300.77000000000044,26.610000000000014 300.7399999999998,26.684999999999945 300.6700000000001,26.753000000000043 C300.59000000000015,26.821000000000026 300.5,26.854000000000042 300.39999999999964,26.854000000000042 C300.21999999999935,26.854000000000042 300.10000000000036,26.735000000000014 300.0400000000009,26.495000000000005 L299.9899999999998,26.32299999999998 C299.9500000000007,26.16700000000003 299.89999999999964,26.062999999999988 299.84000000000015,26.010999999999967 C299.77000000000044,25.958999999999946 299.6700000000001,25.932999999999993 299.52000000000044,25.932999999999993 C299.2000000000007,25.932999999999993 298.9400000000005,26.059999999999945 298.7399999999998,26.315000000000055 C298.5499999999993,26.571000000000026 298.4500000000007,26.90700000000004 298.4500000000007,27.32299999999998 C298.4500000000007,27.770999999999958 298.5599999999995,28.140999999999963 298.7900000000009,28.432999999999993 C299.02000000000044,28.724000000000046 299.3199999999997,28.870000000000005 299.6800000000003,28.870000000000005 C299.89999999999964,28.870000000000005 300.09000000000015,28.812999999999988 300.25,28.69799999999998 C300.40999999999985,28.583999999999946 300.59000000000015,28.390999999999963 300.77000000000044,28.120000000000005 L300.8799999999992,28.182999999999993 C300.8299999999999,28.297000000000025 300.7900000000009,28.388000000000034 300.75,28.456000000000017 C300.7099999999991,28.524 300.6399999999994,28.628000000000043 300.5400000000009,28.769000000000005 C300.4400000000005,28.908999999999992 300.3299999999999,29.020999999999958 300.2399999999998,29.104000000000042 C300.1399999999994,29.187999999999988 300.0100000000002,29.265999999999963 299.84000000000015,29.339000000000055 C299.6800000000003,29.412000000000035 299.5100000000002,29.44799999999998 299.34000000000015,29.44799999999998 C298.89999999999964,29.44799999999998 298.5400000000009,29.28200000000004 298.25,28.94799999999998 C297.9599999999991,28.61500000000001 297.8199999999997,28.187999999999988 297.8199999999997,27.66700000000003 M302.1700000000001,28.57299999999998 C302.28000000000065,28.57299999999998 302.3799999999992,28.616999999999962 302.46999999999935,28.706000000000017 C302.5599999999995,28.79499999999996 302.60000000000036,28.900999999999954 302.60000000000036,29.025999999999954 C302.60000000000036,29.140999999999963 302.5599999999995,29.241999999999962 302.46999999999935,29.331000000000017 C302.3799999999992,29.41999999999996 302.27000000000044,29.464000000000055 302.14999999999964,29.464000000000055 C302.03000000000065,29.464000000000055 301.9400000000005,29.41999999999996 301.85000000000036,29.331000000000017 C301.77000000000044,29.241999999999962 301.72999999999956,29.140999999999963 301.72999999999956,29.025999999999954 C301.72999999999956,28.900999999999954 301.77000000000044,28.79499999999996 301.8600000000006,28.706000000000017 C301.9500000000007,28.616999999999962 302.0499999999993,28.57299999999998 302.1700000000001,28.57299999999998" />
</svg>
