<?xml version="1.0" encoding="UTF-8" standalone="yes"?>
<svg width="256.0px" height="256.0px" xmlns="http://www.w3.org/2000/svg" xmlns:xlink="http://www.w3.org/1999/xlink" version="1.2" baseProfile="tiny">
<path d="M218.90000000000146,13.846000000000004 C219.0,13.753000000000043 219.20000000000073,13.706000000000017 219.40000000000146,13.706000000000017 C219.5,13.706000000000017 219.70000000000073,13.753000000000043 219.90000000000146,13.846000000000004 L219.79999999999927,17.503000000000043 L222.0,17.111999999999966 L222.0,17.111999999999966 C222.29999999999927,17.111999999999966 222.40000000000146,17.221000000000004 222.40000000000146,17.440000000000055 L222.5,28.846000000000004 C222.40000000000146,28.940000000000055 222.20000000000073,28.986999999999966 222.0,28.986999999999966 C221.79999999999927,28.986999999999966 221.70000000000073,28.940000000000055 221.5,28.846000000000004 L221.59999999999854,25.190000000000055 L219.5,25.581000000000017 L219.40000000000146,25.581000000000017 C219.09999999999854,25.581000000000017 219.0,25.471000000000004 219.0,25.253000000000043 L218.90000000000146,13.846000000000004 M221.59999999999854,23.236999999999966 L221.59999999999854,19.096000000000004 L219.79999999999927,19.456000000000017 L219.70000000000073,23.596000000000004 L221.59999999999854,23.236999999999966" />
<path d="M156.59999999999854,20.51800000000003 L156.59999999999854,22.065000000000055 C156.59999999999854,22.616999999999962 156.59999999999854,23.05499999999995 156.70000000000073,23.378000000000043 C157.09999999999854,23.013000000000034 157.40000000000146,22.741999999999962 157.59999999999854,22.565000000000055 C157.79999999999927,22.35699999999997 158.0,22.067999999999984 158.20000000000073,21.69799999999998 C158.40000000000146,21.327999999999975 158.5,20.961000000000013 158.5,20.596000000000004 C158.5,20.23199999999997 158.40000000000146,19.918999999999983 158.29999999999927,19.658999999999992 C158.09999999999854,19.399 157.90000000000146,19.26800000000003 157.70000000000073,19.26800000000003 C157.29999999999927,19.26800000000003 157.09999999999854,19.388000000000034 156.90000000000146,19.628000000000043 C156.70000000000073,19.888000000000034 156.59999999999854,20.184999999999945 156.59999999999854,20.51800000000003 M155.79999999999927,24.096000000000004 L155.5,12.206000000000017 C155.70000000000073,12.101999999999975 155.90000000000146,12.049999999999955 156.09999999999854,12.049999999999955 C156.20000000000073,12.049999999999955 156.40000000000146,12.101999999999975 156.59999999999854,12.206000000000017 L156.40000000000146,19.096000000000004 C157.0,18.638000000000034 157.59999999999854,18.408999999999992 158.29999999999927,18.408999999999992 C158.79999999999927,18.408999999999992 159.20000000000073,18.616999999999962 159.5,19.033999999999992 C159.90000000000146,19.451000000000022 160.09999999999854,19.92999999999995 160.09999999999854,20.471000000000004 C160.09999999999854,20.80499999999995 159.90000000000146,21.163999999999987 159.70000000000073,21.549999999999955 C159.5,21.89300000000003 159.29999999999927,22.163999999999987 159.09999999999854,22.361999999999966 C158.90000000000146,22.466000000000008 158.59999999999854,22.726999999999975 158.09999999999854,23.14300000000003 C157.90000000000146,23.258000000000038 157.70000000000073,23.39300000000003 157.5,23.549999999999955 C157.29999999999927,23.706000000000017 157.20000000000073,23.80499999999995 157.09999999999854,23.846000000000004 C157.0,23.899 156.90000000000146,24.003000000000043 156.79999999999927,24.158999999999992 C156.79999999999927,24.293999999999983 156.70000000000073,24.403999999999996 156.5,24.486999999999966 C156.5,24.57000000000005 156.29999999999927,24.611999999999966 156.20000000000073,24.611999999999966 C156.09999999999854,24.611999999999966 156.0,24.565000000000055 155.90000000000146,24.471000000000004 C155.79999999999927,24.378000000000043 155.79999999999927,24.253000000000043 155.79999999999927,24.096000000000004" />
<path d="M2.900000000001455,22.581000000000017 C2.900000000001455,22.831000000000017 2.7999999999992724,22.956000000000017 2.5,22.956000000000017 C2.2999999999992724,22.956000000000017 2.2000000000007276,22.831000000000017 2.2000000000007276,22.581000000000017 L2.2000000000007276,19.690000000000055 L0.5,20.315000000000055 L0.5,23.471000000000004 C0.5,23.721000000000004 0.4000000000014552,23.846000000000004 0.09999999999854481,23.846000000000004 C-0.09999999999854481,23.846000000000004 -0.2000000000007276,23.721000000000004 -0.2000000000007276,23.471000000000004 L-0.2000000000007276,20.565000000000055 L-0.9000000000014552,20.799999999999955 C-0.9000000000014552,20.809999999999945 -0.9000000000014552,20.815000000000055 -1.0,20.815000000000055 C-1.0999999999985448,20.815000000000055 -1.2000000000007276,20.775999999999954 -1.2999999999992724,20.69799999999998 C-1.4000000000014552,20.620000000000005 -1.4000000000014552,20.528999999999996 -1.4000000000014552,20.424999999999955 L-1.4000000000014552,19.221000000000004 C-1.4000000000014552,19.024 -1.2999999999992724,18.899 -1.2000000000007276,18.846000000000004 L-0.2000000000007276,18.533999999999992 L-0.2000000000007276,15.331000000000017 L-0.9000000000014552,15.549999999999955 C-0.9000000000014552,15.559999999999945 -0.9000000000014552,15.565000000000055 -1.0,15.565000000000055 C-1.0999999999985448,15.565000000000055 -1.2000000000007276,15.525999999999954 -1.2999999999992724,15.447999999999979 C-1.4000000000014552,15.370000000000005 -1.4000000000014552,15.278999999999996 -1.4000000000014552,15.174999999999955 L-1.4000000000014552,13.956000000000017 C-1.4000000000014552,13.778999999999996 -1.2999999999992724,13.663999999999987 -1.2000000000007276,13.611999999999966 L-0.2000000000007276,13.253000000000043 L-0.2000000000007276,10.111999999999966 C-0.2000000000007276,9.861999999999966 -0.09999999999854481,9.736999999999966 0.09999999999854481,9.736999999999966 C0.4000000000014552,9.736999999999966 0.5,9.861999999999966 0.5,10.111999999999966 L0.5,13.003000000000043 L2.2000000000007276,12.378000000000043 L2.2000000000007276,9.221000000000004 C2.2000000000007276,8.971000000000004 2.2999999999992724,8.846000000000004 2.5,8.846000000000004 C2.7999999999992724,8.846000000000004 2.900000000001455,8.971000000000004 2.900000000001455,9.221000000000004 L2.900000000001455,12.128000000000043 L3.599999999998545,11.893000000000029 C3.599999999998545,11.883000000000038 3.599999999998545,11.878000000000043 3.7000000000007276,11.878000000000043 C3.7999999999992724,11.878000000000043 3.900000000001455,11.913999999999987 4.0,11.986999999999966 C4.099999999998545,12.07000000000005 4.099999999998545,12.163999999999987 4.099999999998545,12.268000000000029 L4.099999999998545,13.471000000000004 C4.099999999998545,13.658999999999992 4.0,13.783999999999992 3.7999999999992724,13.846000000000004 L2.900000000001455,14.158999999999992 L2.900000000001455,17.361999999999966 L3.599999999998545,17.14300000000003 C3.599999999998545,17.133000000000038 3.599999999998545,17.128000000000043 3.7000000000007276,17.128000000000043 C3.7999999999992724,17.128000000000043 3.900000000001455,17.168999999999983 4.0,17.253000000000043 C4.099999999998545,17.326000000000022 4.099999999998545,17.413999999999987 4.099999999998545,17.51800000000003 L4.099999999998545,18.736999999999966 C4.099999999998545,18.903999999999996 4.0,19.01800000000003 3.7999999999992724,19.081000000000017 L2.900000000001455,19.440000000000055 L2.900000000001455,22.581000000000017 M2.2000000000007276,14.456000000000017 L0.5,15.033999999999992 L0.5,18.236999999999966 L2.2000000000007276,17.658999999999992 L2.2000000000007276,14.456000000000017" />
<path d="M228.0,71.096 C228.59999999999854,71.096 229.09999999999854,71.25800000000004 229.59999999999854,71.58100000000002 C230.0,71.93499999999995 230.20000000000073,72.37800000000004 230.20000000000073,72.90899999999999 C230.20000000000073,73.80499999999995 229.70000000000073,74.64300000000003 228.79999999999927,75.42499999999995 C227.90000000000146,76.20600000000002 226.90000000000146,76.596 225.79999999999927,76.596 C225.20000000000073,76.596 224.59999999999854,76.43499999999995 224.20000000000073,76.11199999999997 C223.79999999999927,75.75800000000004 223.59999999999854,75.31500000000005 223.59999999999854,74.78399999999999 C223.59999999999854,73.88800000000003 224.09999999999854,73.04999999999995 225.0,72.26800000000003 C225.90000000000146,71.48699999999997 226.90000000000146,71.096 228.0,71.096" />
<path d="M228.0,18.596000000000004 C228.59999999999854,18.596000000000004 229.09999999999854,18.758000000000038 229.59999999999854,19.081000000000017 C230.0,19.434999999999945 230.20000000000073,19.878000000000043 230.20000000000073,20.408999999999992 C230.20000000000073,21.30499999999995 229.70000000000073,22.14300000000003 228.79999999999927,22.924999999999955 C227.90000000000146,23.706000000000017 226.90000000000146,24.096000000000004 225.79999999999927,24.096000000000004 C225.20000000000073,24.096000000000004 224.59999999999854,23.934999999999945 224.20000000000073,23.611999999999966 C223.79999999999927,23.258000000000038 223.59999999999854,22.815000000000055 223.59999999999854,22.283999999999992 C223.59999999999854,21.388000000000034 224.09999999999854,20.549999999999955 225.0,19.76800000000003 C225.90000000000146,18.986999999999966 226.90000000000146,18.596000000000004 228.0,18.596000000000004" />
<path d="M198.59999999999854,61.096000000000004 C198.90000000000146,61.096000000000004 199.09999999999854,61.17999999999995 199.20000000000073,61.346000000000004 C199.29999999999927,61.524 199.40000000000146,61.70100000000002 199.40000000000146,61.87800000000004 C199.40000000000146,62.15899999999999 199.09999999999854,62.513000000000034 198.59999999999854,62.940000000000055 C198.09999999999854,63.399 197.79999999999927,63.721000000000004 197.70000000000073,63.90899999999999 C197.59999999999854,64.05499999999995 197.40000000000146,64.38800000000003 197.20000000000073,64.90899999999999 C197.0,65.44000000000005 196.79999999999927,65.85699999999997 196.5,66.15899999999999 C196.20000000000073,66.44000000000005 195.90000000000146,66.58100000000002 195.59999999999854,66.58100000000002 C195.5,66.58100000000002 195.20000000000073,66.54399999999998 194.90000000000146,66.471 C194.59999999999854,66.38800000000003 194.29999999999927,66.346 194.20000000000073,66.346 C194.0,66.346 193.79999999999927,66.38800000000003 193.40000000000146,66.471 C193.09999999999854,66.55499999999995 192.90000000000146,66.596 192.70000000000073,66.596 C192.5,66.596 192.29999999999927,66.51300000000003 192.20000000000073,66.346 C192.09999999999854,66.149 192.0,65.971 192.0,65.81500000000005 C192.0,65.53399999999999 192.29999999999927,65.17999999999995 192.79999999999927,64.75300000000004 C193.29999999999927,64.29399999999998 193.59999999999854,63.971000000000004 193.70000000000073,63.78399999999999 C193.79999999999927,63.690000000000055 193.90000000000146,63.351999999999975 194.20000000000073,62.76800000000003 C194.40000000000146,62.236999999999966 194.59999999999854,61.82600000000002 194.90000000000146,61.53399999999999 C195.09999999999854,61.25300000000004 195.40000000000146,61.111999999999966 195.79999999999927,61.111999999999966 C195.90000000000146,61.111999999999966 196.09999999999854,61.149 196.5,61.221000000000004 C196.79999999999927,61.30499999999995 197.0,61.346000000000004 197.20000000000073,61.346000000000004 C197.40000000000146,61.346000000000004 197.59999999999854,61.30499999999995 197.90000000000146,61.221000000000004 C198.20000000000073,61.138000000000034 198.5,61.096000000000004 198.59999999999854,61.096000000000004" />
<path d="M196.79999999999927,18.596000000000004 C197.40000000000146,18.596000000000004 197.90000000000146,18.758000000000038 198.40000000000146,19.081000000000017 C198.79999999999927,19.434999999999945 199.0,19.878000000000043 199.0,20.408999999999992 C199.0,21.30499999999995 198.5,22.14300000000003 197.59999999999854,22.924999999999955 C196.70000000000073,23.706000000000017 195.70000000000073,24.096000000000004 194.59999999999854,24.096000000000004 C194.0,24.096000000000004 193.40000000000146,23.934999999999945 193.0,23.611999999999966 C192.59999999999854,23.258000000000038 192.40000000000146,22.815000000000055 192.40000000000146,22.283999999999992 C192.40000000000146,21.388000000000034 192.90000000000146,20.549999999999955 193.79999999999927,19.76800000000003 C194.70000000000073,18.986999999999966 195.70000000000073,18.596000000000004 196.79999999999927,18.596000000000004" />
<path d="M165.59999999999854,18.596000000000004 C166.20000000000073,18.596000000000004 166.70000000000073,18.758000000000038 167.20000000000073,19.081000000000017 C167.59999999999854,19.434999999999945 167.79999999999927,19.878000000000043 167.79999999999927,20.408999999999992 C167.79999999999927,21.30499999999995 167.29999999999927,22.14300000000003 166.40000000000146,22.924999999999955 C165.5,23.706000000000017 164.5,24.096000000000004 163.40000000000146,24.096000000000004 C162.79999999999927,24.096000000000004 162.20000000000073,23.934999999999945 161.79999999999927,23.611999999999966 C161.40000000000146,23.258000000000038 161.20000000000073,22.815000000000055 161.20000000000073,22.283999999999992 C161.20000000000073,21.388000000000034 161.70000000000073,20.549999999999955 162.59999999999854,19.76800000000003 C163.5,18.986999999999966 164.5,18.596000000000004 165.59999999999854,18.596000000000004" />
<path d="M136.20000000000073,61.096000000000004 C136.5,61.096000000000004 136.70000000000073,61.17999999999995 136.79999999999927,61.346000000000004 C136.90000000000146,61.524 137.0,61.70100000000002 137.0,61.87800000000004 C137.0,62.15899999999999 136.70000000000073,62.513000000000034 136.20000000000073,62.940000000000055 C135.70000000000073,63.399 135.40000000000146,63.721000000000004 135.29999999999927,63.90899999999999 C135.20000000000073,64.05499999999995 135.0,64.38800000000003 134.79999999999927,64.90899999999999 C134.59999999999854,65.44000000000005 134.40000000000146,65.85699999999997 134.09999999999854,66.15899999999999 C133.79999999999927,66.44000000000005 133.5,66.58100000000002 133.20000000000073,66.58100000000002 C133.09999999999854,66.58100000000002 132.79999999999927,66.54399999999998 132.5,66.471 C132.20000000000073,66.38800000000003 131.90000000000146,66.346 131.79999999999927,66.346 C131.59999999999854,66.346 131.29999999999927,66.38800000000003 131.0,66.471 C130.70000000000073,66.55499999999995 130.5,66.596 130.29999999999927,66.596 C130.09999999999854,66.596 129.90000000000146,66.51300000000003 129.79999999999927,66.346 C129.70000000000073,66.149 129.59999999999854,65.971 129.59999999999854,65.81500000000005 C129.59999999999854,65.53399999999999 129.90000000000146,65.17999999999995 130.40000000000146,64.75300000000004 C130.90000000000146,64.29399999999998 131.20000000000073,63.971000000000004 131.29999999999927,63.78399999999999 C131.40000000000146,63.690000000000055 131.5,63.351999999999975 131.79999999999927,62.76800000000003 C132.0,62.236999999999966 132.20000000000073,61.82600000000002 132.5,61.53399999999999 C132.70000000000073,61.25300000000004 133.0,61.111999999999966 133.40000000000146,61.111999999999966 C133.5,61.111999999999966 133.70000000000073,61.149 134.09999999999854,61.221000000000004 C134.40000000000146,61.30499999999995 134.59999999999854,61.346000000000004 134.79999999999927,61.346000000000004 C135.0,61.346000000000004 135.20000000000073,61.30499999999995 135.5,61.221000000000004 C135.79999999999927,61.138000000000034 136.09999999999854,61.096000000000004 136.20000000000073,61.096000000000004" />
<path d="M134.0,71.096 C134.59999999999854,71.096 135.09999999999854,71.25800000000004 135.59999999999854,71.58100000000002 C136.0,71.93499999999995 136.20000000000073,72.37800000000004 136.20000000000073,72.90899999999999 C136.20000000000073,73.80499999999995 135.70000000000073,74.64300000000003 134.79999999999927,75.42499999999995 C133.90000000000146,76.20600000000002 132.90000000000146,76.596 131.79999999999927,76.596 C131.20000000000073,76.596 130.59999999999854,76.43499999999995 130.20000000000073,76.11199999999997 C129.79999999999927,75.75800000000004 129.59999999999854,75.31500000000005 129.59999999999854,74.78399999999999 C129.59999999999854,73.88800000000003 130.09999999999854,73.04999999999995 131.0,72.26800000000003 C131.90000000000146,71.48699999999997 132.90000000000146,71.096 134.0,71.096" />
<path d="M73.79999999999927,61.096000000000004 C74.09999999999854,61.096000000000004 74.29999999999927,61.17999999999995 74.40000000000146,61.346000000000004 C74.5,61.524 74.59999999999854,61.70100000000002 74.59999999999854,61.87800000000004 C74.59999999999854,62.15899999999999 74.29999999999927,62.513000000000034 73.79999999999927,62.940000000000055 C73.29999999999927,63.399 73.0,63.721000000000004 72.90000000000146,63.90899999999999 C72.79999999999927,64.05499999999995 72.59999999999854,64.38800000000003 72.40000000000146,64.90899999999999 C72.20000000000073,65.44000000000005 72.0,65.85699999999997 71.70000000000073,66.15899999999999 C71.40000000000146,66.44000000000005 71.09999999999854,66.58100000000002 70.79999999999927,66.58100000000002 C70.70000000000073,66.58100000000002 70.40000000000146,66.54399999999998 70.09999999999854,66.471 C69.79999999999927,66.38800000000003 69.5,66.346 69.40000000000146,66.346 C69.20000000000073,66.346 68.90000000000146,66.38800000000003 68.59999999999854,66.471 C68.29999999999927,66.55499999999995 68.09999999999854,66.596 67.90000000000146,66.596 C67.70000000000073,66.596 67.5,66.51300000000003 67.40000000000146,66.346 C67.29999999999927,66.149 67.20000000000073,65.971 67.20000000000073,65.81500000000005 C67.20000000000073,65.53399999999999 67.5,65.17999999999995 68.0,64.75300000000004 C68.5,64.29399999999998 68.79999999999927,63.971000000000004 68.90000000000146,63.78399999999999 C69.0,63.690000000000055 69.09999999999854,63.351999999999975 69.40000000000146,62.76800000000003 C69.59999999999854,62.236999999999966 69.79999999999927,61.82600000000002 70.09999999999854,61.53399999999999 C70.29999999999927,61.25300000000004 70.59999999999854,61.111999999999966 71.0,61.111999999999966 C71.09999999999854,61.111999999999966 71.29999999999927,61.149 71.70000000000073,61.221000000000004 C72.0,61.30499999999995 72.20000000000073,61.346000000000004 72.40000000000146,61.346000000000004 C72.59999999999854,61.346000000000004 72.79999999999927,61.30499999999995 73.09999999999854,61.221000000000004 C73.40000000000146,61.138000000000034 73.70000000000073,61.096000000000004 73.79999999999927,61.096000000000004" />
<path d="M71.59999999999854,81.096 C72.20000000000073,81.096 72.70000000000073,81.25800000000004 73.20000000000073,81.58100000000002 C73.59999999999854,81.93499999999995 73.79999999999927,82.37800000000004 73.79999999999927,82.90899999999999 C73.79999999999927,83.80499999999995 73.29999999999927,84.64300000000003 72.40000000000146,85.42499999999995 C71.5,86.20600000000002 70.5,86.596 69.40000000000146,86.596 C68.79999999999927,86.596 68.20000000000073,86.43499999999995 67.79999999999927,86.11199999999997 C67.40000000000146,85.75800000000004 67.20000000000073,85.31500000000005 67.20000000000073,84.78399999999999 C67.20000000000073,83.88800000000003 67.70000000000073,83.04999999999995 68.59999999999854,82.26800000000003 C69.5,81.48699999999997 70.5,81.096 71.59999999999854,81.096" />
<path d="M72.0,13.596000000000004 C72.59999999999854,13.596000000000004 73.09999999999854,13.758000000000038 73.59999999999854,14.081000000000017 C74.0,14.434999999999945 74.20000000000073,14.878000000000043 74.20000000000073,15.408999999999992 C74.20000000000073,16.30499999999995 73.70000000000073,17.14300000000003 72.79999999999927,17.924999999999955 C71.90000000000146,18.706000000000017 70.90000000000146,19.096000000000004 69.79999999999927,19.096000000000004 C69.20000000000073,19.096000000000004 68.59999999999854,18.934999999999945 68.20000000000073,18.611999999999966 C67.79999999999927,18.258000000000038 67.59999999999854,17.815000000000055 67.59999999999854,17.283999999999992 C67.59999999999854,16.388000000000034 68.09999999999854,15.549999999999955 69.0,14.768000000000029 C69.90000000000146,13.986999999999966 70.90000000000146,13.596000000000004 72.0,13.596000000000004" />
<path d="M11.400000000001455,61.096000000000004 C11.700000000000728,61.096000000000004 11.900000000001455,61.17999999999995 12.0,61.346000000000004 C12.099999999998545,61.524 12.200000000000728,61.70100000000002 12.200000000000728,61.87800000000004 C12.200000000000728,62.15899999999999 11.900000000001455,62.513000000000034 11.400000000001455,62.940000000000055 C10.900000000001455,63.399 10.599999999998545,63.721000000000004 10.5,63.90899999999999 C10.400000000001455,64.05499999999995 10.200000000000728,64.38800000000003 10.0,64.90899999999999 C9.799999999999272,65.44000000000005 9.599999999998545,65.85699999999997 9.299999999999272,66.15899999999999 C9.0,66.44000000000005 8.700000000000728,66.58100000000002 8.400000000001455,66.58100000000002 C8.299999999999272,66.58100000000002 8.0,66.54399999999998 7.700000000000728,66.471 C7.400000000001455,66.38800000000003 7.099999999998545,66.346 7.0,66.346 C6.799999999999272,66.346 6.5,66.38800000000003 6.200000000000728,66.471 C5.900000000001455,66.55499999999995 5.700000000000728,66.596 5.5,66.596 C5.299999999999272,66.596 5.099999999998545,66.51300000000003 5.0,66.346 C4.900000000001455,66.149 4.799999999999272,65.971 4.799999999999272,65.81500000000005 C4.799999999999272,65.53399999999999 5.099999999998545,65.17999999999995 5.599999999998545,64.75300000000004 C6.099999999998545,64.29399999999998 6.400000000001455,63.971000000000004 6.5,63.78399999999999 C6.599999999998545,63.690000000000055 6.700000000000728,63.351999999999975 7.0,62.76800000000003 C7.200000000000728,62.236999999999966 7.400000000001455,61.82600000000002 7.700000000000728,61.53399999999999 C7.900000000001455,61.25300000000004 8.200000000000728,61.111999999999966 8.599999999998545,61.111999999999966 C8.700000000000728,61.111999999999966 8.900000000001455,61.149 9.299999999999272,61.221000000000004 C9.599999999998545,61.30499999999995 9.799999999999272,61.346000000000004 10.0,61.346000000000004 C10.200000000000728,61.346000000000004 10.400000000001455,61.30499999999995 10.700000000000728,61.221000000000004 C11.0,61.138000000000034 11.299999999999272,61.096000000000004 11.400000000001455,61.096000000000004" />
<path d="M9.200000000000728,81.096 C9.799999999999272,81.096 10.299999999999272,81.25800000000004 10.799999999999272,81.58100000000002 C11.200000000000728,81.93499999999995 11.400000000001455,82.37800000000004 11.400000000001455,82.90899999999999 C11.400000000001455,83.80499999999995 10.900000000001455,84.64300000000003 10.0,85.42499999999995 C9.099999999998545,86.20600000000002 8.099999999998545,86.596 7.0,86.596 C6.400000000001455,86.596 5.799999999999272,86.43499999999995 5.400000000001455,86.11199999999997 C5.0,85.75800000000004 4.799999999999272,85.31500000000005 4.799999999999272,84.78399999999999 C4.799999999999272,83.88800000000003 5.299999999999272,83.04999999999995 6.200000000000728,82.26800000000003 C7.099999999998545,81.48699999999997 8.099999999998545,81.096 9.200000000000728,81.096" />
<path d="M9.599999999998545,13.596000000000004 C10.200000000000728,13.596000000000004 10.700000000000728,13.758000000000038 11.200000000000728,14.081000000000017 C11.599999999998545,14.434999999999945 11.799999999999272,14.878000000000043 11.799999999999272,15.408999999999992 C11.799999999999272,16.30499999999995 11.299999999999272,17.14300000000003 10.400000000001455,17.924999999999955 C9.5,18.706000000000017 8.5,19.096000000000004 7.400000000001455,19.096000000000004 C6.799999999999272,19.096000000000004 6.200000000000728,18.934999999999945 5.799999999999272,18.611999999999966 C5.400000000001455,18.258000000000038 5.200000000000728,17.815000000000055 5.200000000000728,17.283999999999992 C5.200000000000728,16.388000000000034 5.700000000000728,15.549999999999955 6.599999999998545,14.768000000000029 C7.5,13.986999999999966 8.5,13.596000000000004 9.599999999998545,13.596000000000004" />
<path d="M132.5,19.736999999999966 C132.90000000000146,19.736999999999966 133.20000000000073,19.841000000000008 133.29999999999927,20.049999999999955 C133.5,20.278999999999996 133.59999999999854,20.503000000000043 133.70000000000073,20.721000000000004 C133.70000000000073,20.940000000000055 133.70000000000073,21.158999999999992 133.90000000000146,21.378000000000043 C133.90000000000146,21.586000000000013 134.09999999999854,21.690000000000055 134.29999999999927,21.690000000000055 C134.40000000000146,21.690000000000055 134.59999999999854,21.533999999999992 134.90000000000146,21.221000000000004 C135.20000000000073,20.85699999999997 135.40000000000146,20.596000000000004 135.40000000000146,20.440000000000055 C135.5,20.315000000000055 135.59999999999854,20.253000000000043 135.70000000000073,20.253000000000043 C135.70000000000073,20.253000000000043 135.70000000000073,20.253000000000043 135.70000000000073,20.253000000000043 C135.90000000000146,20.263000000000034 135.90000000000146,20.326000000000022 136.0,20.440000000000055 L132.40000000000146,33.846000000000004 C132.29999999999927,33.98199999999997 132.09999999999854,34.049999999999955 131.90000000000146,34.049999999999955 C131.59999999999854,34.049999999999955 131.5,33.98199999999997 131.29999999999927,33.846000000000004 L133.29999999999927,27.299999999999955 C132.5,27.611999999999966 131.79999999999927,27.76800000000003 131.20000000000073,27.76800000000003 C130.70000000000073,27.76800000000003 130.29999999999927,27.621999999999957 130.0,27.331000000000017 C129.59999999999854,27.038999999999987 129.5,26.658999999999992 129.5,26.190000000000055 C129.5,25.783999999999992 129.59999999999854,25.44500000000005 129.90000000000146,25.174999999999955 C130.20000000000073,24.89300000000003 130.5,24.753000000000043 130.90000000000146,24.753000000000043 C131.29999999999927,24.753000000000043 131.59999999999854,24.85699999999997 131.79999999999927,25.065000000000055 C131.90000000000146,25.283999999999992 132.09999999999854,25.503000000000043 132.09999999999854,25.721000000000004 C132.09999999999854,25.98199999999997 132.20000000000073,26.206000000000017 132.29999999999927,26.39300000000003 C132.40000000000146,26.601999999999975 132.5,26.706000000000017 132.70000000000073,26.706000000000017 C132.90000000000146,26.706000000000017 133.09999999999854,26.524 133.40000000000146,26.158999999999992 C133.70000000000073,25.815000000000055 133.90000000000146,25.543999999999983 133.90000000000146,25.346000000000004 L134.90000000000146,22.315000000000055 C134.0,22.616999999999962 133.29999999999927,22.76800000000003 132.79999999999927,22.76800000000003 C132.29999999999927,22.76800000000003 131.90000000000146,22.616999999999962 131.59999999999854,22.315000000000055 C131.20000000000073,22.033999999999992 131.0,21.658999999999992 131.0,21.190000000000055 C131.0,20.783999999999992 131.20000000000073,20.44500000000005 131.5,20.174999999999955 C131.70000000000073,19.883000000000038 132.09999999999854,19.736999999999966 132.5,19.736999999999966" />
<path d="M191.5,101.26800000000003 L190.59999999999854,104.36199999999997 C190.20000000000073,105.47699999999998 189.70000000000073,106.55499999999995 188.90000000000146,107.596 C188.09999999999854,108.63800000000003 187.29999999999927,109.15899999999999 186.5,109.15899999999999 C186.09999999999854,109.15899999999999 185.70000000000073,109.04700000000003 185.29999999999927,108.82299999999998 C185.0,108.59900000000005 184.90000000000146,108.30999999999995 184.90000000000146,107.95600000000002 C184.90000000000146,107.54999999999995 184.90000000000146,107.20600000000002 185.09999999999854,106.92499999999995 C185.29999999999927,106.654 185.5,106.50800000000004 185.79999999999927,106.48699999999997 C186.09999999999854,106.48699999999997 186.29999999999927,106.57000000000005 186.40000000000146,106.73699999999997 C186.59999999999854,106.904 186.70000000000073,107.096 186.70000000000073,107.31500000000005 C186.70000000000073,107.51300000000003 186.5,107.69500000000005 186.29999999999927,107.86199999999997 C186.09999999999854,108.00800000000004 185.90000000000146,108.17499999999995 185.90000000000146,108.36199999999997 C185.90000000000146,108.48699999999997 186.09999999999854,108.54999999999995 186.40000000000146,108.54999999999995 L186.5,108.54999999999995 C186.5,108.54999999999995 186.59999999999854,108.53399999999999 186.79999999999927,108.50300000000004 C186.79999999999927,108.49199999999996 186.90000000000146,108.45100000000002 187.0,108.37800000000004 C187.0,108.37800000000004 187.09999999999854,108.32600000000002 187.20000000000073,108.221 C187.29999999999927,108.10699999999997 187.29999999999927,108.024 187.40000000000146,107.971 C187.40000000000146,107.86699999999996 187.40000000000146,107.78399999999999 187.5,107.721 C187.5,107.67999999999995 187.59999999999854,107.57600000000002 187.59999999999854,107.40899999999999 C187.59999999999854,107.36699999999996 187.59999999999854,107.32000000000005 187.59999999999854,107.26800000000003 C187.59999999999854,107.21600000000001 187.70000000000073,107.17999999999995 187.70000000000073,107.15899999999999 C187.70000000000073,107.13800000000003 187.70000000000073,107.12199999999996 187.70000000000073,107.11199999999997 C187.70000000000073,106.904 187.79999999999927,106.779 187.79999999999927,106.73699999999997 C187.79999999999927,106.529 187.90000000000146,106.42499999999995 187.90000000000146,106.42499999999995 L189.09999999999854,101.26800000000003 L188.20000000000073,101.26800000000003 C188.09999999999854,101.26800000000003 188.0,101.23699999999997 187.90000000000146,101.17499999999995 C187.90000000000146,101.09100000000001 187.90000000000146,101.01800000000003 187.90000000000146,100.95600000000002 C187.90000000000146,100.87199999999996 187.90000000000146,100.79999999999995 187.90000000000146,100.73699999999997 C188.0,100.67499999999995 188.09999999999854,100.64300000000003 188.20000000000073,100.64300000000003 L189.29999999999927,100.64300000000003 C189.59999999999854,99.66399999999999 190.20000000000073,98.82000000000005 190.90000000000146,98.11199999999997 C191.70000000000073,97.38300000000004 192.5,97.01800000000003 193.29999999999927,97.01800000000003 C193.79999999999927,97.01800000000003 194.20000000000073,97.13300000000004 194.5,97.36199999999997 C194.79999999999927,97.58100000000002 195.0,97.86699999999996 195.0,98.221 C195.0,98.60699999999997 194.90000000000146,98.95100000000002 194.70000000000073,99.25300000000004 C194.5,99.524 194.29999999999927,99.66399999999999 194.0,99.67499999999995 C193.70000000000073,99.67499999999995 193.59999999999854,99.59400000000005 193.40000000000146,99.43200000000002 C193.20000000000073,99.27099999999996 193.20000000000073,99.08100000000002 193.20000000000073,98.86199999999997 C193.20000000000073,98.67499999999995 193.29999999999927,98.50300000000004 193.5,98.346 C193.79999999999927,98.19000000000005 193.90000000000146,98.01300000000003 193.90000000000146,97.81500000000005 C193.90000000000146,97.66899999999998 193.70000000000073,97.60199999999998 193.5,97.61199999999997 L193.40000000000146,97.61199999999997 C193.40000000000146,97.63300000000004 193.40000000000146,97.63800000000003 193.29999999999927,97.62800000000004 C193.09999999999854,97.62800000000004 192.90000000000146,97.68499999999995 192.70000000000073,97.79999999999995 C192.59999999999854,97.904 192.40000000000146,98.09100000000001 192.29999999999927,98.36199999999997 C192.29999999999927,98.43499999999995 192.20000000000073,98.50800000000004 192.20000000000073,98.58100000000002 C192.20000000000073,98.654 192.20000000000073,98.73400000000004 192.09999999999854,98.82299999999998 C192.09999999999854,98.91200000000003 192.09999999999854,98.971 192.0,99.00300000000004 C192.0,99.06500000000005 192.0,99.19500000000005 192.0,99.39300000000003 C191.90000000000146,99.58100000000002 191.90000000000146,99.74199999999996 191.90000000000146,99.87800000000004 C191.79999999999927,100.274 191.70000000000073,100.529 191.70000000000073,100.64300000000003 L192.79999999999927,100.64300000000003 C192.90000000000146,100.64300000000003 192.90000000000146,100.67200000000003 193.0,100.72900000000004 C193.09999999999854,100.78700000000003 193.09999999999854,100.85900000000004 193.09999999999854,100.94799999999998 C193.09999999999854,101.03700000000003 193.09999999999854,101.11199999999997 193.0,101.17499999999995 C192.90000000000146,101.23699999999997 192.90000000000146,101.26800000000003 192.79999999999927,101.26800000000003 L191.5,101.26800000000003 M196.79999999999927,101.26800000000003 L195.90000000000146,104.36199999999997 C195.5,105.47699999999998 195.0,106.55499999999995 194.20000000000073,107.596 C193.40000000000146,108.63800000000003 192.59999999999854,109.15899999999999 191.79999999999927,109.15899999999999 C191.29999999999927,109.15899999999999 191.0,109.04700000000003 190.59999999999854,108.82299999999998 C190.29999999999927,108.59900000000005 190.09999999999854,108.30999999999995 190.09999999999854,107.95600000000002 C190.09999999999854,107.54999999999995 190.20000000000073,107.20600000000002 190.40000000000146,106.92499999999995 C190.59999999999854,106.654 190.79999999999927,106.50800000000004 191.09999999999854,106.48699999999997 C191.29999999999927,106.48699999999997 191.5,106.57000000000005 191.70000000000073,106.73699999999997 C191.90000000000146,106.904 191.90000000000146,107.096 191.90000000000146,107.31500000000005 C191.90000000000146,107.51300000000003 191.79999999999927,107.69500000000005 191.59999999999854,107.86199999999997 C191.29999999999927,108.00800000000004 191.20000000000073,108.17499999999995 191.20000000000073,108.36199999999997 C191.20000000000073,108.48699999999997 191.40000000000146,108.54999999999995 191.59999999999854,108.54999999999995 L191.79999999999927,108.54999999999995 C191.79999999999927,108.54999999999995 191.90000000000146,108.53399999999999 192.0,108.50300000000004 C192.09999999999854,108.49199999999996 192.20000000000073,108.45100000000002 192.29999999999927,108.37800000000004 C192.29999999999927,108.37800000000004 192.40000000000146,108.32600000000002 192.5,108.221 C192.59999999999854,108.10699999999997 192.59999999999854,108.024 192.70000000000073,107.971 C192.70000000000073,107.86699999999996 192.70000000000073,107.78399999999999 192.79999999999927,107.721 C192.79999999999927,107.67999999999995 192.79999999999927,107.57600000000002 192.90000000000146,107.40899999999999 C192.90000000000146,107.36699999999996 192.90000000000146,107.32000000000005 192.90000000000146,107.26800000000003 C192.90000000000146,107.21600000000001 192.90000000000146,107.17999999999995 192.90000000000146,107.15899999999999 C193.0,107.13800000000003 193.0,107.12199999999996 193.0,107.11199999999997 C193.0,106.904 193.09999999999854,106.779 193.09999999999854,106.73699999999997 C193.09999999999854,106.529 193.09999999999854,106.42499999999995 193.09999999999854,106.42499999999995 L194.40000000000146,101.26800000000003 L193.40000000000146,101.26800000000003 C193.29999999999927,101.26800000000003 193.29999999999927,101.23699999999997 193.20000000000073,101.17499999999995 C193.20000000000073,101.09100000000001 193.20000000000073,101.01800000000003 193.20000000000073,100.95600000000002 C193.20000000000073,100.87199999999996 193.20000000000073,100.79999999999995 193.20000000000073,100.73699999999997 C193.29999999999927,100.67499999999995 193.40000000000146,100.64300000000003 193.40000000000146,100.64300000000003 L194.59999999999854,100.64300000000003 C194.90000000000146,99.66399999999999 195.5,98.82000000000005 196.20000000000073,98.11199999999997 C197.0,97.38300000000004 197.70000000000073,97.01800000000003 198.59999999999854,97.01800000000003 C199.09999999999854,97.01800000000003 199.40000000000146,97.13300000000004 199.70000000000073,97.36199999999997 C200.09999999999854,97.58100000000002 200.20000000000073,97.86699999999996 200.20000000000073,98.221 C200.20000000000073,98.60699999999997 200.20000000000073,98.95100000000002 200.0,99.25300000000004 C199.79999999999927,99.524 199.59999999999854,99.66399999999999 199.29999999999927,99.67499999999995 C199.0,99.67499999999995 198.79999999999927,99.59400000000005 198.70000000000073,99.43200000000002 C198.5,99.27099999999996 198.40000000000146,99.08100000000002 198.40000000000146,98.86199999999997 C198.40000000000146,98.67499999999995 198.59999999999854,98.50300000000004 198.79999999999927,98.346 C199.0,98.19000000000005 199.20000000000073,98.01300000000003 199.20000000000073,97.81500000000005 C199.20000000000073,97.66899999999998 199.0,97.60199999999998 198.70000000000073,97.61199999999997 L198.70000000000073,97.61199999999997 C198.70000000000073,97.63300000000004 198.59999999999854,97.63800000000003 198.59999999999854,97.62800000000004 C198.40000000000146,97.62800000000004 198.20000000000073,97.68499999999995 198.0,97.79999999999995 C197.90000000000146,97.904 197.70000000000073,98.09100000000001 197.59999999999854,98.36199999999997 C197.5,98.43499999999995 197.5,98.50800000000004 197.5,98.58100000000002 C197.5,98.654 197.40000000000146,98.73400000000004 197.40000000000146,98.82299999999998 C197.40000000000146,98.91200000000003 197.29999999999927,98.971 197.29999999999927,99.00300000000004 C197.29999999999927,99.06500000000005 197.29999999999927,99.19500000000005 197.29999999999927,99.39300000000003 C197.20000000000073,99.58100000000002 197.20000000000073,99.74199999999996 197.20000000000073,99.87800000000004 C197.09999999999854,100.274 197.0,100.529 197.0,100.64300000000003 L198.09999999999854,100.64300000000003 C198.09999999999854,100.64300000000003 198.20000000000073,100.67200000000003 198.29999999999927,100.72900000000004 C198.40000000000146,100.78700000000003 198.40000000000146,100.85900000000004 198.40000000000146,100.94799999999998 C198.40000000000146,101.03700000000003 198.40000000000146,101.11199999999997 198.29999999999927,101.17499999999995 C198.20000000000073,101.23699999999997 198.09999999999854,101.26800000000003 198.09999999999854,101.26800000000003 L196.79999999999927,101.26800000000003" />
<path d="M126.5,101.26800000000003 L125.5,104.36199999999997 C125.20000000000073,105.47699999999998 124.59999999999854,106.55499999999995 123.90000000000146,107.596 C123.09999999999854,108.63800000000003 122.29999999999927,109.15899999999999 121.40000000000146,109.15899999999999 C121.0,109.15899999999999 120.59999999999854,109.04700000000003 120.29999999999927,108.82299999999998 C120.0,108.59900000000005 119.79999999999927,108.30999999999995 119.79999999999927,107.95600000000002 C119.79999999999927,107.54999999999995 119.90000000000146,107.20600000000002 120.09999999999854,106.92499999999995 C120.20000000000073,106.654 120.5,106.50800000000004 120.79999999999927,106.48699999999997 C121.0,106.48699999999997 121.20000000000073,106.57000000000005 121.40000000000146,106.73699999999997 C121.5,106.904 121.59999999999854,107.096 121.59999999999854,107.31500000000005 C121.59999999999854,107.51300000000003 121.5,107.69500000000005 121.29999999999927,107.86199999999997 C121.0,108.00800000000004 120.90000000000146,108.17499999999995 120.90000000000146,108.36199999999997 C120.90000000000146,108.48699999999997 121.0,108.54999999999995 121.29999999999927,108.54999999999995 L121.40000000000146,108.54999999999995 C121.5,108.54999999999995 121.59999999999854,108.53399999999999 121.70000000000073,108.50300000000004 C121.79999999999927,108.49199999999996 121.90000000000146,108.45100000000002 122.0,108.37800000000004 C122.0,108.37800000000004 122.0,108.32600000000002 122.20000000000073,108.221 C122.29999999999927,108.10699999999997 122.29999999999927,108.024 122.29999999999927,107.971 C122.40000000000146,107.86699999999996 122.40000000000146,107.78399999999999 122.40000000000146,107.721 C122.5,107.67999999999995 122.5,107.57600000000002 122.5,107.40899999999999 C122.59999999999854,107.36699999999996 122.59999999999854,107.32000000000005 122.59999999999854,107.26800000000003 C122.59999999999854,107.21600000000001 122.59999999999854,107.17999999999995 122.59999999999854,107.15899999999999 C122.59999999999854,107.13800000000003 122.59999999999854,107.12199999999996 122.59999999999854,107.11199999999997 C122.70000000000073,106.904 122.70000000000073,106.779 122.70000000000073,106.73699999999997 C122.79999999999927,106.529 122.79999999999927,106.42499999999995 122.79999999999927,106.42499999999995 L124.09999999999854,101.26800000000003 L123.09999999999854,101.26800000000003 C123.0,101.26800000000003 122.90000000000146,101.23699999999997 122.90000000000146,101.17499999999995 C122.90000000000146,101.09100000000001 122.79999999999927,101.01800000000003 122.79999999999927,100.95600000000002 C122.79999999999927,100.87199999999996 122.90000000000146,100.79999999999995 122.90000000000146,100.73699999999997 C123.0,100.67499999999995 123.09999999999854,100.64300000000003 123.09999999999854,100.64300000000003 L124.29999999999927,100.64300000000003 C124.59999999999854,99.66399999999999 125.09999999999854,98.82000000000005 125.90000000000146,98.11199999999997 C126.59999999999854,97.38300000000004 127.40000000000146,97.01800000000003 128.29999999999927,97.01800000000003 C128.70000000000073,97.01800000000003 129.09999999999854,97.13300000000004 129.40000000000146,97.36199999999997 C129.70000000000073,97.58100000000002 129.90000000000146,97.86699999999996 129.90000000000146,98.221 C129.90000000000146,98.60699999999997 129.79999999999927,98.95100000000002 129.70000000000073,99.25300000000004 C129.5,99.524 129.20000000000073,99.66399999999999 128.90000000000146,99.67499999999995 C128.70000000000073,99.67499999999995 128.5,99.59400000000005 128.40000000000146,99.43200000000002 C128.20000000000073,99.27099999999996 128.09999999999854,99.08100000000002 128.09999999999854,98.86199999999997 C128.09999999999854,98.67499999999995 128.20000000000073,98.50300000000004 128.5,98.346 C128.70000000000073,98.19000000000005 128.79999999999927,98.01300000000003 128.79999999999927,97.81500000000005 C128.79999999999927,97.66899999999998 128.70000000000073,97.60199999999998 128.40000000000146,97.61199999999997 L128.40000000000146,97.61199999999997 C128.29999999999927,97.63300000000004 128.29999999999927,97.63800000000003 128.29999999999927,97.62800000000004 C128.09999999999854,97.62800000000004 127.90000000000146,97.68499999999995 127.70000000000073,97.79999999999995 C127.5,97.904 127.40000000000146,98.09100000000001 127.29999999999927,98.36199999999997 C127.20000000000073,98.43499999999995 127.20000000000073,98.50800000000004 127.20000000000073,98.58100000000002 C127.09999999999854,98.654 127.09999999999854,98.73400000000004 127.09999999999854,98.82299999999998 C127.0,98.91200000000003 127.0,98.971 127.0,99.00300000000004 C127.0,99.06500000000005 127.0,99.19500000000005 126.90000000000146,99.39300000000003 C126.90000000000146,99.58100000000002 126.90000000000146,99.74199999999996 126.79999999999927,99.87800000000004 C126.70000000000073,100.274 126.70000000000073,100.529 126.70000000000073,100.64300000000003 L127.70000000000073,100.64300000000003 C127.79999999999927,100.64300000000003 127.90000000000146,100.67200000000003 128.0,100.72900000000004 C128.0,100.78700000000003 128.09999999999854,100.85900000000004 128.09999999999854,100.94799999999998 C128.09999999999854,101.03700000000003 128.0,101.11199999999997 128.0,101.17499999999995 C127.90000000000146,101.23699999999997 127.79999999999927,101.26800000000003 127.70000000000073,101.26800000000003 L126.5,101.26800000000003 M131.79999999999927,101.26800000000003 L130.79999999999927,104.36199999999997 C130.5,105.47699999999998 129.90000000000146,106.55499999999995 129.09999999999854,107.596 C128.29999999999927,108.63800000000003 127.5,109.15899999999999 126.70000000000073,109.15899999999999 C126.29999999999927,109.15899999999999 125.90000000000146,109.04700000000003 125.59999999999854,108.82299999999998 C125.29999999999927,108.59900000000005 125.09999999999854,108.30999999999995 125.09999999999854,107.95600000000002 C125.09999999999854,107.54999999999995 125.20000000000073,107.20600000000002 125.29999999999927,106.92499999999995 C125.5,106.654 125.79999999999927,106.50800000000004 126.09999999999854,106.48699999999997 C126.29999999999927,106.48699999999997 126.5,106.57000000000005 126.70000000000073,106.73699999999997 C126.79999999999927,106.904 126.90000000000146,107.096 126.90000000000146,107.31500000000005 C126.90000000000146,107.51300000000003 126.79999999999927,107.69500000000005 126.5,107.86199999999997 C126.29999999999927,108.00800000000004 126.20000000000073,108.17499999999995 126.20000000000073,108.36199999999997 C126.20000000000073,108.48699999999997 126.29999999999927,108.54999999999995 126.59999999999854,108.54999999999995 L126.70000000000073,108.54999999999995 C126.79999999999927,108.54999999999995 126.90000000000146,108.53399999999999 127.0,108.50300000000004 C127.09999999999854,108.49199999999996 127.20000000000073,108.45100000000002 127.29999999999927,108.37800000000004 C127.29999999999927,108.37800000000004 127.29999999999927,108.32600000000002 127.5,108.221 C127.5,108.10699999999997 127.59999999999854,108.024 127.59999999999854,107.971 C127.70000000000073,107.86699999999996 127.70000000000073,107.78399999999999 127.70000000000073,107.721 C127.79999999999927,107.67999999999995 127.79999999999927,107.57600000000002 127.79999999999927,107.40899999999999 C127.79999999999927,107.36699999999996 127.90000000000146,107.32000000000005 127.90000000000146,107.26800000000003 C127.90000000000146,107.21600000000001 127.90000000000146,107.17999999999995 127.90000000000146,107.15899999999999 C127.90000000000146,107.13800000000003 127.90000000000146,107.12199999999996 127.90000000000146,107.11199999999997 C128.0,106.904 128.0,106.779 128.0,106.73699999999997 C128.09999999999854,106.529 128.09999999999854,106.42499999999995 128.09999999999854,106.42499999999995 L129.40000000000146,101.26800000000003 L128.40000000000146,101.26800000000003 C128.29999999999927,101.26800000000003 128.20000000000073,101.23699999999997 128.20000000000073,101.17499999999995 C128.09999999999854,101.09100000000001 128.09999999999854,101.01800000000003 128.09999999999854,100.95600000000002 C128.09999999999854,100.87199999999996 128.09999999999854,100.79999999999995 128.20000000000073,100.73699999999997 C128.29999999999927,100.67499999999995 128.29999999999927,100.64300000000003 128.40000000000146,100.64300000000003 L129.59999999999854,100.64300000000003 C129.90000000000146,99.66399999999999 130.40000000000146,98.82000000000005 131.20000000000073,98.11199999999997 C131.90000000000146,97.38300000000004 132.70000000000073,97.01800000000003 133.59999999999854,97.01800000000003 C134.0,97.01800000000003 134.40000000000146,97.13300000000004 134.70000000000073,97.36199999999997 C135.0,97.58100000000002 135.20000000000073,97.86699999999996 135.20000000000073,98.221 C135.20000000000073,98.60699999999997 135.09999999999854,98.95100000000002 135.0,99.25300000000004 C134.79999999999927,99.524 134.5,99.66399999999999 134.20000000000073,99.67499999999995 C134.0,99.67499999999995 133.79999999999927,99.59400000000005 133.59999999999854,99.43200000000002 C133.5,99.27099999999996 133.40000000000146,99.08100000000002 133.40000000000146,98.86199999999997 C133.40000000000146,98.67499999999995 133.5,98.50300000000004 133.79999999999927,98.346 C134.0,98.19000000000005 134.09999999999854,98.01300000000003 134.09999999999854,97.81500000000005 C134.09999999999854,97.66899999999998 134.0,97.60199999999998 133.70000000000073,97.61199999999997 L133.70000000000073,97.61199999999997 C133.59999999999854,97.63300000000004 133.59999999999854,97.63800000000003 133.59999999999854,97.62800000000004 C133.29999999999927,97.62800000000004 133.09999999999854,97.68499999999995 133.0,97.79999999999995 C132.79999999999927,97.904 132.70000000000073,98.09100000000001 132.5,98.36199999999997 C132.5,98.43499999999995 132.5,98.50800000000004 132.40000000000146,98.58100000000002 C132.40000000000146,98.654 132.40000000000146,98.73400000000004 132.40000000000146,98.82299999999998 C132.29999999999927,98.91200000000003 132.29999999999927,98.971 132.29999999999927,99.00300000000004 C132.29999999999927,99.06500000000005 132.20000000000073,99.19500000000005 132.20000000000073,99.39300000000003 C132.20000000000073,99.58100000000002 132.09999999999854,99.74199999999996 132.09999999999854,99.87800000000004 C132.0,100.274 132.0,100.529 131.90000000000146,100.64300000000003 L133.0,100.64300000000003 C133.09999999999854,100.64300000000003 133.20000000000073,100.67200000000003 133.20000000000073,100.72900000000004 C133.29999999999927,100.78700000000003 133.29999999999927,100.85900000000004 133.29999999999927,100.94799999999998 C133.29999999999927,101.03700000000003 133.29999999999927,101.11199999999997 133.20000000000073,101.17499999999995 C133.20000000000073,101.23699999999997 133.09999999999854,101.26800000000003 133.0,101.26800000000003 L131.79999999999927,101.26800000000003 M137.0,101.26800000000003 L136.09999999999854,104.36199999999997 C135.79999999999927,105.47699999999998 135.20000000000073,106.55499999999995 134.40000000000146,107.596 C133.59999999999854,108.63800000000003 132.79999999999927,109.15899999999999 132.0,109.15899999999999 C131.59999999999854,109.15899999999999 131.20000000000073,109.04700000000003 130.90000000000146,108.82299999999998 C130.5,108.59900000000005 130.40000000000146,108.30999999999995 130.40000000000146,107.95600000000002 C130.40000000000146,107.54999999999995 130.5,107.20600000000002 130.59999999999854,106.92499999999995 C130.79999999999927,106.654 131.0,106.50800000000004 131.40000000000146,106.48699999999997 C131.59999999999854,106.48699999999997 131.79999999999927,106.57000000000005 131.90000000000146,106.73699999999997 C132.09999999999854,106.904 132.20000000000073,107.096 132.20000000000073,107.31500000000005 C132.20000000000073,107.51300000000003 132.09999999999854,107.69500000000005 131.79999999999927,107.86199999999997 C131.59999999999854,108.00800000000004 131.5,108.17499999999995 131.5,108.36199999999997 C131.5,108.48699999999997 131.59999999999854,108.54999999999995 131.90000000000146,108.54999999999995 L132.0,108.54999999999995 C132.09999999999854,108.54999999999995 132.20000000000073,108.53399999999999 132.29999999999927,108.50300000000004 C132.40000000000146,108.49199999999996 132.40000000000146,108.45100000000002 132.5,108.37800000000004 C132.5,108.37800000000004 132.59999999999854,108.32600000000002 132.70000000000073,108.221 C132.79999999999927,108.10699999999997 132.90000000000146,108.024 132.90000000000146,107.971 C132.90000000000146,107.86699999999996 133.0,107.78399999999999 133.0,107.721 C133.0,107.67999999999995 133.09999999999854,107.57600000000002 133.09999999999854,107.40899999999999 C133.09999999999854,107.36699999999996 133.09999999999854,107.32000000000005 133.20000000000073,107.26800000000003 C133.20000000000073,107.21600000000001 133.20000000000073,107.17999999999995 133.20000000000073,107.15899999999999 C133.20000000000073,107.13800000000003 133.20000000000073,107.12199999999996 133.20000000000073,107.11199999999997 C133.29999999999927,106.904 133.29999999999927,106.779 133.29999999999927,106.73699999999997 C133.40000000000146,106.529 133.40000000000146,106.42499999999995 133.40000000000146,106.42499999999995 L134.70000000000073,101.26800000000003 L133.70000000000073,101.26800000000003 C133.59999999999854,101.26800000000003 133.5,101.23699999999997 133.5,101.17499999999995 C133.40000000000146,101.09100000000001 133.40000000000146,101.01800000000003 133.40000000000146,100.95600000000002 C133.40000000000146,100.87199999999996 133.40000000000146,100.79999999999995 133.5,100.73699999999997 C133.59999999999854,100.67499999999995 133.59999999999854,100.64300000000003 133.70000000000073,100.64300000000003 L134.79999999999927,100.64300000000003 C135.20000000000073,99.66399999999999 135.70000000000073,98.82000000000005 136.5,98.11199999999997 C137.20000000000073,97.38300000000004 138.0,97.01800000000003 138.79999999999927,97.01800000000003 C139.29999999999927,97.01800000000003 139.70000000000073,97.13300000000004 140.0,97.36199999999997 C140.29999999999927,97.58100000000002 140.5,97.86699999999996 140.5,98.221 C140.5,98.60699999999997 140.40000000000146,98.95100000000002 140.20000000000073,99.25300000000004 C140.0,99.524 139.79999999999927,99.66399999999999 139.5,99.67499999999995 C139.29999999999927,99.67499999999995 139.09999999999854,99.59400000000005 138.90000000000146,99.43200000000002 C138.79999999999927,99.27099999999996 138.70000000000073,99.08100000000002 138.70000000000073,98.86199999999997 C138.70000000000073,98.67499999999995 138.79999999999927,98.50300000000004 139.0,98.346 C139.29999999999927,98.19000000000005 139.40000000000146,98.01300000000003 139.40000000000146,97.81500000000005 C139.40000000000146,97.66899999999998 139.29999999999927,97.60199999999998 139.0,97.61199999999997 L138.90000000000146,97.61199999999997 C138.90000000000146,97.63300000000004 138.90000000000146,97.63800000000003 138.79999999999927,97.62800000000004 C138.59999999999854,97.62800000000004 138.40000000000146,97.68499999999995 138.29999999999927,97.79999999999995 C138.09999999999854,97.904 138.0,98.09100000000001 137.79999999999927,98.36199999999997 C137.79999999999927,98.43499999999995 137.79999999999927,98.50800000000004 137.70000000000073,98.58100000000002 C137.70000000000073,98.654 137.70000000000073,98.73400000000004 137.59999999999854,98.82299999999998 C137.59999999999854,98.91200000000003 137.59999999999854,98.971 137.59999999999854,99.00300000000004 C137.59999999999854,99.06500000000005 137.5,99.19500000000005 137.5,99.39300000000003 C137.5,99.58100000000002 137.40000000000146,99.74199999999996 137.40000000000146,99.87800000000004 C137.29999999999927,100.274 137.20000000000073,100.529 137.20000000000073,100.64300000000003 L138.29999999999927,100.64300000000003 C138.40000000000146,100.64300000000003 138.5,100.67200000000003 138.5,100.72900000000004 C138.59999999999854,100.78700000000003 138.59999999999854,100.85900000000004 138.59999999999854,100.94799999999998 C138.59999999999854,101.03700000000003 138.59999999999854,101.11199999999997 138.5,101.17499999999995 C138.5,101.23699999999997 138.40000000000146,101.26800000000003 138.29999999999927,101.26800000000003 L137.0,101.26800000000003" />
<path d="M254.40000000000146,97.596 L317.40000000000146,97.596 L317.40000000000146,100.096 L254.40000000000146,100.096 L254.40000000000146,97.596" />
<path d="M254.79999999999927,32.596000000000004 L317.7999999999993,32.596000000000004 L317.7999999999993,35.096000000000004 L254.79999999999927,35.096000000000004 L254.79999999999927,32.596000000000004" />
<path d="M161.20000000000073,36.346000000000004 L224.20000000000073,36.346000000000004 L224.20000000000073,38.846000000000004 L161.20000000000073,38.846000000000004 L161.20000000000073,36.346000000000004" />
<path d="M161.20000000000073,32.596000000000004 L224.20000000000073,32.596000000000004 L224.20000000000073,35.096000000000004 L161.20000000000073,35.096000000000004 L161.20000000000073,32.596000000000004" />
<path d="M129.59999999999854,88.846 L224.20000000000073,88.846 L224.20000000000073,91.346 L129.59999999999854,91.346 L129.59999999999854,88.846" />
<path d="M192.0,85.096 L224.20000000000073,85.096 L224.20000000000073,87.596 L192.0,87.596 L192.0,85.096" />
<path d="M4.799999999999272,97.596 L67.79999999999927,97.596 L67.79999999999927,100.096 L4.799999999999272,100.096 L4.799999999999272,97.596" />
<path d="M5.200000000000728,31.346000000000004 L68.20000000000073,31.346000000000004 L68.20000000000073,33.846000000000004 L5.200000000000728,33.846000000000004 L5.200000000000728,31.346000000000004" />
<polyline points="0.0,13.846000000000004 255.0,13.846000000000004" fill="none" stroke="#000000" stroke-width="0.40" />
<polyline points="0.0,18.846000000000004 255.0,18.846000000000004" fill="none" stroke="#000000" stroke-width="0.40" />
<polyline points="0.0,23.846000000000004 255.0,23.846000000000004" fill="none" stroke="#000000" stroke-width="0.40" />
<polyline points="0.0,28.846000000000004 255.0,28.846000000000004" fill="none" stroke="#000000" stroke-width="0.40" />
<polyline points="0.0,33.846000000000004 255.0,33.846000000000004" fill="none" stroke="#000000" stroke-width="0.40" />
<polyline points="0.0,66.346 255.0,66.346" fill="none" stroke="#000000" stroke-width="0.40" />
<polyline points="0.0,71.346 255.0,71.346" fill="none" stroke="#000000" stroke-width="0.40" />
<polyline points="0.0,76.346 255.0,76.346" fill="none" stroke="#000000" stroke-width="0.40" />
<polyline points="0.0,81.346 255.0,81.346" fill="none" stroke="#000000" stroke-width="0.40" />
<polyline points="0.0,86.346 255.0,86.346" fill="none" stroke="#000000" stroke-width="0.40" />
<polyline points="254.70000000000073,65.90999999999997 254.70000000000073,98.846" fill="none" stroke="#000000" stroke-width="0.65" />
<polyline points="255.09999999999854,19.785999999999945 255.09999999999854,33.846000000000004" fill="none" stroke="#000000" stroke-width="0.65" />
<polyline points="223.90000000000146,74.78599999999994 223.90000000000146,90.096" fill="none" stroke="#000000" stroke-width="0.65" />
<polyline points="223.90000000000146,22.285999999999945 223.90000000000146,37.596000000000004" fill="none" stroke="#000000" stroke-width="0.65" />
<polyline points="192.29999999999927,65.90999999999997 192.29999999999927,90.096" fill="none" stroke="#000000" stroke-width="0.65" />
<polyline points="192.70000000000073,22.285999999999945 192.70000000000073,37.596000000000004" fill="none" stroke="#000000" stroke-width="0.65" />
<polyline points="161.5,22.285999999999945 161.5,37.596000000000004" fill="none" stroke="#000000" stroke-width="0.65" />
<polyline points="129.90000000000146,65.90999999999997 129.90000000000146,90.096" fill="none" stroke="#000000" stroke-width="0.65" />
<polyline points="67.5,65.90999999999997 67.5,98.846" fill="none" stroke="#000000" stroke-width="0.65" />
<polyline points="67.90000000000146,17.285999999999945 67.90000000000146,32.596000000000004" fill="none" stroke="#000000" stroke-width="0.65" />
<polyline points="5.099999999998545,65.90999999999997 5.099999999998545,98.846" fill="none" stroke="#000000" stroke-width="0.65" />
<polyline points="5.5,17.285999999999945 5.5,32.596000000000004" fill="none" stroke="#000000" stroke-width="0.65" />
</svg>
