<?xml version="1.0" encoding="UTF-8" standalone="yes"?>
<svg width="256.0px" height="256.0px" xmlns="http://www.w3.org/2000/svg" xmlns:xlink="http://www.w3.org/1999/xlink" version="1.2" baseProfile="tiny">
<path d="M212.5,3.8460000000000036 C212.59999999999854,3.7530000000000427 212.79999999999927,3.7060000000000173 213.0,3.7060000000000173 C213.09999999999854,3.7060000000000173 213.29999999999927,3.7530000000000427 213.5,3.8460000000000036 L213.40000000000146,7.503000000000043 L215.59999999999854,7.111999999999966 L215.59999999999854,7.111999999999966 C215.90000000000146,7.111999999999966 216.0,7.221000000000004 216.0,7.440000000000055 L216.09999999999854,18.846000000000004 C216.0,18.940000000000055 215.79999999999927,18.986999999999966 215.59999999999854,18.986999999999966 C215.40000000000146,18.986999999999966 215.29999999999927,18.940000000000055 215.09999999999854,18.846000000000004 L215.20000000000073,15.190000000000055 L213.09999999999854,15.581000000000017 L213.0,15.581000000000017 C212.70000000000073,15.581000000000017 212.59999999999854,15.471000000000004 212.59999999999854,15.253000000000043 L212.5,3.8460000000000036 M215.20000000000073,13.236999999999966 L215.20000000000073,9.096000000000004 L213.40000000000146,9.456000000000017 L213.29999999999927,13.596000000000004 L215.20000000000073,13.236999999999966" />
<path d="M181.40000000000146,10.518000000000029 L181.40000000000146,12.065000000000055 C181.40000000000146,12.616999999999962 181.40000000000146,13.05499999999995 181.5,13.378000000000043 C181.90000000000146,13.013000000000034 182.20000000000073,12.741999999999962 182.40000000000146,12.565000000000055 C182.59999999999854,12.356999999999971 182.79999999999927,12.067999999999984 183.0,11.697999999999979 C183.20000000000073,11.327999999999975 183.29999999999927,10.961000000000013 183.29999999999927,10.596000000000004 C183.29999999999927,10.231999999999971 183.20000000000073,9.918999999999983 183.09999999999854,9.658999999999992 C182.90000000000146,9.399000000000001 182.70000000000073,9.268000000000029 182.5,9.268000000000029 C182.09999999999854,9.268000000000029 181.90000000000146,9.388000000000034 181.70000000000073,9.628000000000043 C181.5,9.888000000000034 181.40000000000146,10.184999999999945 181.40000000000146,10.518000000000029 M180.59999999999854,14.096000000000004 L180.29999999999927,2.2060000000000173 C180.5,2.1019999999999754 180.70000000000073,2.0499999999999545 180.90000000000146,2.0499999999999545 C181.0,2.0499999999999545 181.20000000000073,2.1019999999999754 181.40000000000146,2.2060000000000173 L181.20000000000073,9.096000000000004 C181.79999999999927,8.638000000000034 182.40000000000146,8.408999999999992 183.09999999999854,8.408999999999992 C183.59999999999854,8.408999999999992 184.0,8.616999999999962 184.29999999999927,9.033999999999992 C184.70000000000073,9.451000000000022 184.90000000000146,9.92999999999995 184.90000000000146,10.471000000000004 C184.90000000000146,10.80499999999995 184.70000000000073,11.163999999999987 184.5,11.549999999999955 C184.29999999999927,11.893000000000029 184.09999999999854,12.163999999999987 183.90000000000146,12.361999999999966 C183.70000000000073,12.466000000000008 183.40000000000146,12.726999999999975 182.90000000000146,13.143000000000029 C182.70000000000073,13.258000000000038 182.5,13.393000000000029 182.29999999999927,13.549999999999955 C182.09999999999854,13.706000000000017 182.0,13.80499999999995 181.90000000000146,13.846000000000004 C181.79999999999927,13.899000000000001 181.70000000000073,14.003000000000043 181.59999999999854,14.158999999999992 C181.59999999999854,14.293999999999983 181.5,14.403999999999996 181.29999999999927,14.486999999999966 C181.29999999999927,14.57000000000005 181.09999999999854,14.611999999999966 181.0,14.611999999999966 C180.90000000000146,14.611999999999966 180.79999999999927,14.565000000000055 180.70000000000073,14.471000000000004 C180.59999999999854,14.378000000000043 180.59999999999854,14.253000000000043 180.59999999999854,14.096000000000004" />
<path d="M118.90000000000146,8.846000000000004 C119.0,8.753000000000043 119.20000000000073,8.706000000000017 119.40000000000146,8.706000000000017 C119.5,8.706000000000017 119.70000000000073,8.753000000000043 119.90000000000146,8.846000000000004 L119.79999999999927,12.503000000000043 L122.0,12.111999999999966 L122.0,12.111999999999966 C122.29999999999927,12.111999999999966 122.40000000000146,12.221000000000004 122.40000000000146,12.440000000000055 L122.5,23.846000000000004 C122.40000000000146,23.940000000000055 122.20000000000073,23.986999999999966 122.0,23.986999999999966 C121.79999999999927,23.986999999999966 121.70000000000073,23.940000000000055 121.5,23.846000000000004 L121.59999999999854,20.190000000000055 L119.5,20.581000000000017 L119.40000000000146,20.581000000000017 C119.09999999999854,20.581000000000017 119.0,20.471000000000004 119.0,20.253000000000043 L118.90000000000146,8.846000000000004 M121.59999999999854,18.236999999999966 L121.59999999999854,14.096000000000004 L119.79999999999927,14.456000000000017 L119.70000000000073,18.596000000000004 L121.59999999999854,18.236999999999966" />
<path d="M58.900000000001455,25.081000000000017 C58.900000000001455,25.331000000000017 58.79999999999927,25.456000000000017 58.5,25.456000000000017 C58.29999999999927,25.456000000000017 58.20000000000073,25.331000000000017 58.20000000000073,25.081000000000017 L58.20000000000073,22.190000000000055 L56.5,22.815000000000055 L56.5,25.971000000000004 C56.5,26.221000000000004 56.400000000001455,26.346000000000004 56.099999999998545,26.346000000000004 C55.900000000001455,26.346000000000004 55.79999999999927,26.221000000000004 55.79999999999927,25.971000000000004 L55.79999999999927,23.065000000000055 L55.099999999998545,23.299999999999955 C55.099999999998545,23.309999999999945 55.099999999998545,23.315000000000055 55.0,23.315000000000055 C54.900000000001455,23.315000000000055 54.79999999999927,23.275999999999954 54.70000000000073,23.19799999999998 C54.599999999998545,23.120000000000005 54.599999999998545,23.028999999999996 54.599999999998545,22.924999999999955 L54.599999999998545,21.721000000000004 C54.599999999998545,21.524 54.70000000000073,21.399 54.79999999999927,21.346000000000004 L55.79999999999927,21.033999999999992 L55.79999999999927,17.831000000000017 L55.099999999998545,18.049999999999955 C55.099999999998545,18.059999999999945 55.099999999998545,18.065000000000055 55.0,18.065000000000055 C54.900000000001455,18.065000000000055 54.79999999999927,18.025999999999954 54.70000000000073,17.94799999999998 C54.599999999998545,17.870000000000005 54.599999999998545,17.778999999999996 54.599999999998545,17.674999999999955 L54.599999999998545,16.456000000000017 C54.599999999998545,16.278999999999996 54.70000000000073,16.163999999999987 54.79999999999927,16.111999999999966 L55.79999999999927,15.753000000000043 L55.79999999999927,12.611999999999966 C55.79999999999927,12.361999999999966 55.900000000001455,12.236999999999966 56.099999999998545,12.236999999999966 C56.400000000001455,12.236999999999966 56.5,12.361999999999966 56.5,12.611999999999966 L56.5,15.503000000000043 L58.20000000000073,14.878000000000043 L58.20000000000073,11.721000000000004 C58.20000000000073,11.471000000000004 58.29999999999927,11.346000000000004 58.5,11.346000000000004 C58.79999999999927,11.346000000000004 58.900000000001455,11.471000000000004 58.900000000001455,11.721000000000004 L58.900000000001455,14.628000000000043 L59.599999999998545,14.393000000000029 C59.599999999998545,14.383000000000038 59.599999999998545,14.378000000000043 59.70000000000073,14.378000000000043 C59.79999999999927,14.378000000000043 59.900000000001455,14.413999999999987 60.0,14.486999999999966 C60.099999999998545,14.57000000000005 60.099999999998545,14.663999999999987 60.099999999998545,14.768000000000029 L60.099999999998545,15.971000000000004 C60.099999999998545,16.158999999999992 60.0,16.283999999999992 59.79999999999927,16.346000000000004 L58.900000000001455,16.658999999999992 L58.900000000001455,19.861999999999966 L59.599999999998545,19.64300000000003 C59.599999999998545,19.633000000000038 59.599999999998545,19.628000000000043 59.70000000000073,19.628000000000043 C59.79999999999927,19.628000000000043 59.900000000001455,19.668999999999983 60.0,19.753000000000043 C60.099999999998545,19.826000000000022 60.099999999998545,19.913999999999987 60.099999999998545,20.01800000000003 L60.099999999998545,21.236999999999966 C60.099999999998545,21.403999999999996 60.0,21.51800000000003 59.79999999999927,21.581000000000017 L58.900000000001455,21.940000000000055 L58.900000000001455,25.081000000000017 M58.20000000000073,16.956000000000017 L56.5,17.533999999999992 L56.5,20.736999999999966 L58.20000000000073,20.158999999999992 L58.20000000000073,16.956000000000017" />
<path d="M221.59999999999854,8.596000000000004 C222.20000000000073,8.596000000000004 222.70000000000073,8.758000000000038 223.20000000000073,9.081000000000017 C223.59999999999854,9.434999999999945 223.79999999999927,9.878000000000043 223.79999999999927,10.408999999999992 C223.79999999999927,11.30499999999995 223.29999999999927,12.143000000000029 222.40000000000146,12.924999999999955 C221.5,13.706000000000017 220.5,14.096000000000004 219.40000000000146,14.096000000000004 C218.79999999999927,14.096000000000004 218.20000000000073,13.934999999999945 217.79999999999927,13.611999999999966 C217.40000000000146,13.258000000000038 217.20000000000073,12.815000000000055 217.20000000000073,12.283999999999992 C217.20000000000073,11.388000000000034 217.70000000000073,10.549999999999955 218.59999999999854,9.768000000000029 C219.5,8.986999999999966 220.5,8.596000000000004 221.59999999999854,8.596000000000004" />
<path d="M190.40000000000146,71.096 C191.0,71.096 191.5,71.25800000000004 192.0,71.58100000000002 C192.40000000000146,71.93499999999995 192.59999999999854,72.37800000000004 192.59999999999854,72.90899999999999 C192.59999999999854,73.80499999999995 192.09999999999854,74.64300000000003 191.20000000000073,75.42499999999995 C190.29999999999927,76.20600000000002 189.29999999999927,76.596 188.20000000000073,76.596 C187.59999999999854,76.596 187.0,76.43499999999995 186.59999999999854,76.11199999999997 C186.20000000000073,75.75800000000004 186.0,75.31500000000005 186.0,74.78399999999999 C186.0,73.88800000000003 186.5,73.04999999999995 187.40000000000146,72.26800000000003 C188.29999999999927,71.48699999999997 189.29999999999927,71.096 190.40000000000146,71.096" />
<path d="M190.40000000000146,8.596000000000004 C191.0,8.596000000000004 191.5,8.758000000000038 192.0,9.081000000000017 C192.40000000000146,9.434999999999945 192.59999999999854,9.878000000000043 192.59999999999854,10.408999999999992 C192.59999999999854,11.30499999999995 192.09999999999854,12.143000000000029 191.20000000000073,12.924999999999955 C190.29999999999927,13.706000000000017 189.29999999999927,14.096000000000004 188.20000000000073,14.096000000000004 C187.59999999999854,14.096000000000004 187.0,13.934999999999945 186.59999999999854,13.611999999999966 C186.20000000000073,13.258000000000038 186.0,12.815000000000055 186.0,12.283999999999992 C186.0,11.388000000000034 186.5,10.549999999999955 187.40000000000146,9.768000000000029 C188.29999999999927,8.986999999999966 189.29999999999927,8.596000000000004 190.40000000000146,8.596000000000004" />
<path d="M159.20000000000073,71.096 C159.79999999999927,71.096 160.29999999999927,71.25800000000004 160.79999999999927,71.58100000000002 C161.20000000000073,71.93499999999995 161.40000000000146,72.37800000000004 161.40000000000146,72.90899999999999 C161.40000000000146,73.80499999999995 160.90000000000146,74.64300000000003 160.0,75.42499999999995 C159.09999999999854,76.20600000000002 158.09999999999854,76.596 157.0,76.596 C156.40000000000146,76.596 155.79999999999927,76.43499999999995 155.40000000000146,76.11199999999997 C155.0,75.75800000000004 154.79999999999927,75.31500000000005 154.79999999999927,74.78399999999999 C154.79999999999927,73.88800000000003 155.29999999999927,73.04999999999995 156.20000000000073,72.26800000000003 C157.09999999999854,71.48699999999997 158.09999999999854,71.096 159.20000000000073,71.096" />
<path d="M159.20000000000073,13.596000000000004 C159.79999999999927,13.596000000000004 160.29999999999927,13.758000000000038 160.79999999999927,14.081000000000017 C161.20000000000073,14.434999999999945 161.40000000000146,14.878000000000043 161.40000000000146,15.408999999999992 C161.40000000000146,16.30499999999995 160.90000000000146,17.14300000000003 160.0,17.924999999999955 C159.09999999999854,18.706000000000017 158.09999999999854,19.096000000000004 157.0,19.096000000000004 C156.40000000000146,19.096000000000004 155.79999999999927,18.934999999999945 155.40000000000146,18.611999999999966 C155.0,18.258000000000038 154.79999999999927,17.815000000000055 154.79999999999927,17.283999999999992 C154.79999999999927,16.388000000000034 155.29999999999927,15.549999999999955 156.20000000000073,14.768000000000029 C157.09999999999854,13.986999999999966 158.09999999999854,13.596000000000004 159.20000000000073,13.596000000000004" />
<path d="M128.0,71.096 C128.59999999999854,71.096 129.09999999999854,71.25800000000004 129.59999999999854,71.58100000000002 C130.0,71.93499999999995 130.20000000000073,72.37800000000004 130.20000000000073,72.90899999999999 C130.20000000000073,73.80499999999995 129.70000000000073,74.64300000000003 128.79999999999927,75.42499999999995 C127.90000000000146,76.20600000000002 126.90000000000146,76.596 125.79999999999927,76.596 C125.20000000000073,76.596 124.59999999999854,76.43499999999995 124.20000000000073,76.11199999999997 C123.79999999999927,75.75800000000004 123.59999999999854,75.31500000000005 123.59999999999854,74.78399999999999 C123.59999999999854,73.88800000000003 124.09999999999854,73.04999999999995 125.0,72.26800000000003 C125.90000000000146,71.48699999999997 126.90000000000146,71.096 128.0,71.096" />
<path d="M128.0,13.596000000000004 C128.59999999999854,13.596000000000004 129.09999999999854,13.758000000000038 129.59999999999854,14.081000000000017 C130.0,14.434999999999945 130.20000000000073,14.878000000000043 130.20000000000073,15.408999999999992 C130.20000000000073,16.30499999999995 129.70000000000073,17.14300000000003 128.79999999999927,17.924999999999955 C127.90000000000146,18.706000000000017 126.90000000000146,19.096000000000004 125.79999999999927,19.096000000000004 C125.20000000000073,19.096000000000004 124.59999999999854,18.934999999999945 124.20000000000073,18.611999999999966 C123.79999999999927,18.258000000000038 123.59999999999854,17.815000000000055 123.59999999999854,17.283999999999992 C123.59999999999854,16.388000000000034 124.09999999999854,15.549999999999955 125.0,14.768000000000029 C125.90000000000146,13.986999999999966 126.90000000000146,13.596000000000004 128.0,13.596000000000004" />
<path d="M67.40000000000146,61.096000000000004 C67.70000000000073,61.096000000000004 67.90000000000146,61.17999999999995 68.0,61.346000000000004 C68.09999999999854,61.524 68.20000000000073,61.70100000000002 68.20000000000073,61.87800000000004 C68.20000000000073,62.15899999999999 67.90000000000146,62.513000000000034 67.40000000000146,62.940000000000055 C66.90000000000146,63.399 66.59999999999854,63.721000000000004 66.5,63.90899999999999 C66.40000000000146,64.05499999999995 66.20000000000073,64.38800000000003 66.0,64.90899999999999 C65.79999999999927,65.44000000000005 65.59999999999854,65.85699999999997 65.29999999999927,66.15899999999999 C65.0,66.44000000000005 64.70000000000073,66.58100000000002 64.40000000000146,66.58100000000002 C64.29999999999927,66.58100000000002 64.0,66.54399999999998 63.70000000000073,66.471 C63.400000000001455,66.38800000000003 63.099999999998545,66.346 63.0,66.346 C62.79999999999927,66.346 62.599999999998545,66.38800000000003 62.20000000000073,66.471 C61.900000000001455,66.55499999999995 61.70000000000073,66.596 61.5,66.596 C61.29999999999927,66.596 61.099999999998545,66.51300000000003 61.0,66.346 C60.900000000001455,66.149 60.79999999999927,65.971 60.79999999999927,65.81500000000005 C60.79999999999927,65.53399999999999 61.099999999998545,65.17999999999995 61.599999999998545,64.75300000000004 C62.099999999998545,64.29399999999998 62.400000000001455,63.971000000000004 62.5,63.78399999999999 C62.599999999998545,63.690000000000055 62.70000000000073,63.351999999999975 63.0,62.76800000000003 C63.20000000000073,62.236999999999966 63.400000000001455,61.82600000000002 63.70000000000073,61.53399999999999 C63.900000000001455,61.25300000000004 64.20000000000073,61.111999999999966 64.59999999999854,61.111999999999966 C64.70000000000073,61.111999999999966 64.90000000000146,61.149 65.29999999999927,61.221000000000004 C65.59999999999854,61.30499999999995 65.79999999999927,61.346000000000004 66.0,61.346000000000004 C66.20000000000073,61.346000000000004 66.40000000000146,61.30499999999995 66.70000000000073,61.221000000000004 C67.0,61.138000000000034 67.29999999999927,61.096000000000004 67.40000000000146,61.096000000000004" />
<path d="M65.20000000000073,81.096 C65.79999999999927,81.096 66.29999999999927,81.25800000000004 66.79999999999927,81.58100000000002 C67.20000000000073,81.93499999999995 67.40000000000146,82.37800000000004 67.40000000000146,82.90899999999999 C67.40000000000146,83.80499999999995 66.90000000000146,84.64300000000003 66.0,85.42499999999995 C65.09999999999854,86.20600000000002 64.09999999999854,86.596 63.0,86.596 C62.400000000001455,86.596 61.79999999999927,86.43499999999995 61.400000000001455,86.11199999999997 C61.0,85.75800000000004 60.79999999999927,85.31500000000005 60.79999999999927,84.78399999999999 C60.79999999999927,83.88800000000003 61.29999999999927,83.04999999999995 62.20000000000073,82.26800000000003 C63.099999999998545,81.48699999999997 64.09999999999854,81.096 65.20000000000073,81.096" />
<path d="M65.59999999999854,16.096000000000004 C66.20000000000073,16.096000000000004 66.70000000000073,16.258000000000038 67.20000000000073,16.581000000000017 C67.59999999999854,16.934999999999945 67.79999999999927,17.378000000000043 67.79999999999927,17.908999999999992 C67.79999999999927,18.80499999999995 67.29999999999927,19.64300000000003 66.40000000000146,20.424999999999955 C65.5,21.206000000000017 64.5,21.596000000000004 63.400000000001455,21.596000000000004 C62.79999999999927,21.596000000000004 62.20000000000073,21.434999999999945 61.79999999999927,21.111999999999966 C61.400000000001455,20.758000000000038 61.20000000000073,20.315000000000055 61.20000000000073,19.783999999999992 C61.20000000000073,18.888000000000034 61.70000000000073,18.049999999999955 62.599999999998545,17.26800000000003 C63.5,16.486999999999966 64.5,16.096000000000004 65.59999999999854,16.096000000000004" />
<path d="M5.0,61.096000000000004 C5.299999999999272,61.096000000000004 5.5,61.17999999999995 5.599999999998545,61.346000000000004 C5.700000000000728,61.524 5.799999999999272,61.70100000000002 5.799999999999272,61.87800000000004 C5.799999999999272,62.15899999999999 5.5,62.513000000000034 5.0,62.940000000000055 C4.5,63.399 4.200000000000728,63.721000000000004 4.099999999998545,63.90899999999999 C4.0,64.05499999999995 3.7999999999992724,64.38800000000003 3.599999999998545,64.90899999999999 C3.400000000001455,65.44000000000005 3.2000000000007276,65.85699999999997 2.900000000001455,66.15899999999999 C2.599999999998545,66.44000000000005 2.2999999999992724,66.58100000000002 2.0,66.58100000000002 C1.9000000000014552,66.58100000000002 1.5999999999985448,66.54399999999998 1.2999999999992724,66.471 C1.0,66.38800000000003 0.7000000000007276,66.346 0.5999999999985448,66.346 C0.4000000000014552,66.346 0.2000000000007276,66.38800000000003 -0.2000000000007276,66.471 C-0.5,66.55499999999995 -0.7000000000007276,66.596 -0.9000000000014552,66.596 C-1.0999999999985448,66.596 -1.2999999999992724,66.51300000000003 -1.4000000000014552,66.346 C-1.5,66.149 -1.5999999999985448,65.971 -1.5999999999985448,65.81500000000005 C-1.5999999999985448,65.53399999999999 -1.2999999999992724,65.17999999999995 -0.7999999999992724,64.75300000000004 C-0.2999999999992724,64.29399999999998 0.0,63.971000000000004 0.09999999999854481,63.78399999999999 C0.2000000000007276,63.690000000000055 0.2999999999992724,63.351999999999975 0.5999999999985448,62.76800000000003 C0.7999999999992724,62.236999999999966 1.0,61.82600000000002 1.2999999999992724,61.53399999999999 C1.5,61.25300000000004 1.7999999999992724,61.111999999999966 2.2000000000007276,61.111999999999966 C2.2999999999992724,61.111999999999966 2.5,61.149 2.900000000001455,61.221000000000004 C3.2000000000007276,61.30499999999995 3.400000000001455,61.346000000000004 3.599999999998545,61.346000000000004 C3.7999999999992724,61.346000000000004 4.0,61.30499999999995 4.299999999999272,61.221000000000004 C4.599999999998545,61.138000000000034 4.900000000001455,61.096000000000004 5.0,61.096000000000004" />
<path d="M2.7999999999992724,81.096 C3.400000000001455,81.096 3.900000000001455,81.25800000000004 4.400000000001455,81.58100000000002 C4.799999999999272,81.93499999999995 5.0,82.37800000000004 5.0,82.90899999999999 C5.0,83.80499999999995 4.5,84.64300000000003 3.599999999998545,85.42499999999995 C2.7000000000007276,86.20600000000002 1.7000000000007276,86.596 0.5999999999985448,86.596 C0.0,86.596 -0.5999999999985448,86.43499999999995 -1.0,86.11199999999997 C-1.4000000000014552,85.75800000000004 -1.5999999999985448,85.31500000000005 -1.5999999999985448,84.78399999999999 C-1.5999999999985448,83.88800000000003 -1.0999999999985448,83.04999999999995 -0.2000000000007276,82.26800000000003 C0.7000000000007276,81.48699999999997 1.7000000000007276,81.096 2.7999999999992724,81.096" />
<path d="M3.2000000000007276,16.096000000000004 C3.7999999999992724,16.096000000000004 4.299999999999272,16.258000000000038 4.799999999999272,16.581000000000017 C5.200000000000728,16.934999999999945 5.400000000001455,17.378000000000043 5.400000000001455,17.908999999999992 C5.400000000001455,18.80499999999995 4.900000000001455,19.64300000000003 4.0,20.424999999999955 C3.099999999998545,21.206000000000017 2.099999999998545,21.596000000000004 1.0,21.596000000000004 C0.4000000000014552,21.596000000000004 -0.2000000000007276,21.434999999999945 -0.5999999999985448,21.111999999999966 C-1.0,20.758000000000038 -1.2000000000007276,20.315000000000055 -1.2000000000007276,19.783999999999992 C-1.2000000000007276,18.888000000000034 -0.7000000000007276,18.049999999999955 0.2000000000007276,17.26800000000003 C1.0999999999985448,16.486999999999966 2.099999999998545,16.096000000000004 3.2000000000007276,16.096000000000004" />
<path d="M123.59999999999854,88.846 L186.59999999999854,88.846 L186.59999999999854,91.346 L123.59999999999854,91.346 L123.59999999999854,88.846" />
<path d="M123.59999999999854,85.096 L155.40000000000146,85.096 L155.40000000000146,87.596 L123.59999999999854,87.596 L123.59999999999854,85.096" />
<path d="M123.59999999999854,31.346000000000004 L217.79999999999927,27.57000000000005 L217.79999999999927,30.07000000000005 L123.59999999999854,33.846000000000004 L123.59999999999854,31.346000000000004" />
<path d="M123.59999999999854,27.596000000000004 L217.79999999999927,23.82000000000005 L217.79999999999927,26.32000000000005 L123.59999999999854,30.096000000000004 L123.59999999999854,27.596000000000004" />
<polyline points="0.0,13.846000000000004 249.20000000000073,13.846000000000004" fill="none" stroke="#000000" stroke-width="0.40" />
<polyline points="0.0,18.846000000000004 249.20000000000073,18.846000000000004" fill="none" stroke="#000000" stroke-width="0.40" />
<polyline points="0.0,23.846000000000004 249.20000000000073,23.846000000000004" fill="none" stroke="#000000" stroke-width="0.40" />
<polyline points="0.0,28.846000000000004 249.20000000000073,28.846000000000004" fill="none" stroke="#000000" stroke-width="0.40" />
<polyline points="0.0,33.846000000000004 249.20000000000073,33.846000000000004" fill="none" stroke="#000000" stroke-width="0.40" />
<polyline points="0.0,66.346 249.20000000000073,66.346" fill="none" stroke="#000000" stroke-width="0.40" />
<polyline points="0.0,71.346 249.20000000000073,71.346" fill="none" stroke="#000000" stroke-width="0.40" />
<polyline points="0.0,76.346 249.20000000000073,76.346" fill="none" stroke="#000000" stroke-width="0.40" />
<polyline points="0.0,81.346 249.20000000000073,81.346" fill="none" stroke="#000000" stroke-width="0.40" />
<polyline points="0.0,86.346 249.20000000000073,86.346" fill="none" stroke="#000000" stroke-width="0.40" />
<polyline points="248.79999999999927,66.346 248.79999999999927,86.346" fill="none" stroke="#000000" stroke-width="0.80" />
<polyline points="248.79999999999927,13.846000000000004 248.79999999999927,33.846000000000004" fill="none" stroke="#000000" stroke-width="0.80" />
<polyline points="217.5,12.285999999999945 217.5,28.846000000000004" fill="none" stroke="#000000" stroke-width="0.65" />
<polyline points="186.29999999999927,74.78599999999994 186.29999999999927,90.096" fill="none" stroke="#000000" stroke-width="0.65" />
<polyline points="186.29999999999927,12.285999999999945 186.29999999999927,30.096000000000004" fill="none" stroke="#000000" stroke-width="0.65" />
<polyline points="155.09999999999854,74.78599999999994 155.09999999999854,90.096" fill="none" stroke="#000000" stroke-width="0.65" />
<polyline points="155.09999999999854,17.285999999999945 155.09999999999854,31.346000000000004" fill="none" stroke="#000000" stroke-width="0.65" />
<polyline points="123.90000000000146,74.78599999999994 123.90000000000146,90.096" fill="none" stroke="#000000" stroke-width="0.65" />
<polyline points="123.90000000000146,17.285999999999945 123.90000000000146,32.596000000000004" fill="none" stroke="#000000" stroke-width="0.65" />
<polyline points="61.099999999998545,65.90999999999997 61.099999999998545,98.846" fill="none" stroke="#000000" stroke-width="0.65" />
<polyline points="61.5,19.785999999999945 61.5,33.846000000000004" fill="none" stroke="#000000" stroke-width="0.65" />
</svg>
