<?xml version="1.0" encoding="UTF-8" standalone="yes"?>
<svg width="256.0px" height="256.0px" xmlns="http://www.w3.org/2000/svg" xmlns:xlink="http://www.w3.org/1999/xlink" version="1.2" baseProfile="tiny">
<path d="M208.0,83.846 C211.5,86.13900000000001 222.10000000000036,86.13900000000001 225.70000000000073,83.846 C222.10000000000036,86.93899999999996 211.5,86.93899999999996 208.0,83.846" />
<path d="M204.89999999999964,30.096000000000004 C214.79999999999927,36.196000000000026 244.70000000000073,36.196000000000026 254.60000000000036,30.096000000000004 C244.70000000000073,36.99599999999998 214.79999999999927,36.99599999999998 204.89999999999964,30.096000000000004" />
<path d="M255.60000000000036,63.12800000000004 L258.0,61.174999999999955 C258.10000000000036,61.12199999999996 258.2000000000007,61.096000000000004 258.2000000000007,61.096000000000004 C258.2999999999993,61.096000000000004 258.2999999999993,61.12199999999996 258.39999999999964,61.174999999999955 L258.7999999999993,61.486999999999966 C258.89999999999964,61.549999999999955 258.89999999999964,61.62800000000004 258.89999999999964,61.721000000000004 C258.89999999999964,61.78399999999999 258.89999999999964,61.861999999999966 258.7999999999993,61.95600000000002 L256.5,63.846000000000004 L258.7999999999993,65.73699999999997 C258.89999999999964,65.80999999999995 258.89999999999964,65.89099999999996 258.89999999999964,65.97900000000004 C258.89999999999964,66.06799999999998 258.89999999999964,66.14300000000003 258.7999999999993,66.20600000000002 L258.39999999999964,66.51800000000003 C258.2999999999993,66.57000000000005 258.2999999999993,66.596 258.2000000000007,66.596 C258.2000000000007,66.596 258.10000000000036,66.57000000000005 258.0,66.51800000000003 L255.60000000000036,64.56500000000005 L253.20000000000073,66.51800000000003 C253.10000000000036,66.57000000000005 253.10000000000036,66.596 253.0,66.596 C253.0,66.596 252.89999999999964,66.57000000000005 252.79999999999927,66.51800000000003 L252.39999999999964,66.20600000000002 C252.39999999999964,66.14300000000003 252.29999999999927,66.06500000000005 252.29999999999927,65.971 C252.29999999999927,65.90899999999999 252.39999999999964,65.83100000000002 252.39999999999964,65.73699999999997 L254.79999999999927,63.846000000000004 L252.39999999999964,61.95600000000002 C252.39999999999964,61.88300000000004 252.29999999999927,61.80200000000002 252.29999999999927,61.714000000000055 C252.29999999999927,61.625 252.39999999999964,61.549999999999955 252.39999999999964,61.486999999999966 L252.79999999999927,61.174999999999955 C252.89999999999964,61.12199999999996 253.0,61.096000000000004 253.0,61.096000000000004 C253.10000000000036,61.096000000000004 253.10000000000036,61.12199999999996 253.20000000000073,61.174999999999955 L255.60000000000036,63.12800000000004" />
<path d="M229.79999999999927,63.12800000000004 L232.20000000000073,61.174999999999955 C232.20000000000073,61.12199999999996 232.29999999999927,61.096000000000004 232.29999999999927,61.096000000000004 C232.39999999999964,61.096000000000004 232.5,61.12199999999996 232.5,61.174999999999955 L232.89999999999964,61.486999999999966 C233.0,61.549999999999955 233.0,61.62800000000004 233.0,61.721000000000004 C233.0,61.78399999999999 233.0,61.861999999999966 232.89999999999964,61.95600000000002 L230.60000000000036,63.846000000000004 L232.89999999999964,65.73699999999997 C233.0,65.80999999999995 233.0,65.89099999999996 233.0,65.97900000000004 C233.0,66.06799999999998 233.0,66.14300000000003 232.89999999999964,66.20600000000002 L232.5,66.51800000000003 C232.5,66.57000000000005 232.39999999999964,66.596 232.29999999999927,66.596 C232.29999999999927,66.596 232.20000000000073,66.57000000000005 232.20000000000073,66.51800000000003 L229.79999999999927,64.56500000000005 L227.29999999999927,66.51800000000003 C227.29999999999927,66.57000000000005 227.20000000000073,66.596 227.20000000000073,66.596 C227.10000000000036,66.596 227.0,66.57000000000005 227.0,66.51800000000003 L226.60000000000036,66.20600000000002 C226.5,66.14300000000003 226.5,66.06500000000005 226.5,65.971 C226.5,65.90899999999999 226.5,65.83100000000002 226.60000000000036,65.73699999999997 L228.89999999999964,63.846000000000004 L226.60000000000036,61.95600000000002 C226.5,61.88300000000004 226.5,61.80200000000002 226.5,61.714000000000055 C226.5,61.625 226.5,61.549999999999955 226.60000000000036,61.486999999999966 L227.0,61.174999999999955 C227.0,61.12199999999996 227.10000000000036,61.096000000000004 227.20000000000073,61.096000000000004 C227.20000000000073,61.096000000000004 227.29999999999927,61.12199999999996 227.29999999999927,61.174999999999955 L229.79999999999927,63.12800000000004" />
<path d="M230.79999999999927,81.096 C231.5,81.096 232.0,81.25800000000004 232.39999999999964,81.58100000000002 C232.79999999999927,81.93499999999995 233.0,82.37800000000004 233.0,82.90899999999999 C233.0,83.80499999999995 232.60000000000036,84.64300000000003 231.70000000000073,85.42499999999995 C230.70000000000073,86.20600000000002 229.70000000000073,86.596 228.60000000000036,86.596 C228.0,86.596 227.5,86.43499999999995 227.10000000000036,86.11199999999997 C226.70000000000073,85.75800000000004 226.5,85.31500000000005 226.5,84.78399999999999 C226.5,83.88800000000003 226.89999999999964,83.04999999999995 227.89999999999964,82.26800000000003 C228.79999999999927,81.48699999999997 229.79999999999927,81.096 230.79999999999927,81.096" />
<path d="M203.89999999999964,63.12800000000004 L206.29999999999927,61.174999999999955 C206.29999999999927,61.12199999999996 206.39999999999964,61.096000000000004 206.5,61.096000000000004 C206.5,61.096000000000004 206.60000000000036,61.12199999999996 206.70000000000073,61.174999999999955 L207.10000000000036,61.486999999999966 C207.10000000000036,61.549999999999955 207.20000000000073,61.62800000000004 207.20000000000073,61.721000000000004 C207.20000000000073,61.78399999999999 207.10000000000036,61.861999999999966 207.10000000000036,61.95600000000002 L204.70000000000073,63.846000000000004 L207.10000000000036,65.73699999999997 C207.10000000000036,65.80999999999995 207.20000000000073,65.89099999999996 207.20000000000073,65.97900000000004 C207.20000000000073,66.06799999999998 207.10000000000036,66.14300000000003 207.10000000000036,66.20600000000002 L206.70000000000073,66.51800000000003 C206.60000000000036,66.57000000000005 206.5,66.596 206.5,66.596 C206.39999999999964,66.596 206.29999999999927,66.57000000000005 206.29999999999927,66.51800000000003 L203.89999999999964,64.56500000000005 L201.5,66.51800000000003 C201.39999999999964,66.57000000000005 201.29999999999927,66.596 201.29999999999927,66.596 C201.20000000000073,66.596 201.20000000000073,66.57000000000005 201.10000000000036,66.51800000000003 L200.70000000000073,66.20600000000002 C200.60000000000036,66.14300000000003 200.60000000000036,66.06500000000005 200.60000000000036,65.971 C200.60000000000036,65.90899999999999 200.60000000000036,65.83100000000002 200.70000000000073,65.73699999999997 L203.0,63.846000000000004 L200.70000000000073,61.95600000000002 C200.60000000000036,61.88300000000004 200.60000000000036,61.80200000000002 200.60000000000036,61.714000000000055 C200.60000000000036,61.625 200.60000000000036,61.549999999999955 200.70000000000073,61.486999999999966 L201.10000000000036,61.174999999999955 C201.20000000000073,61.12199999999996 201.20000000000073,61.096000000000004 201.29999999999927,61.096000000000004 C201.29999999999927,61.096000000000004 201.39999999999964,61.12199999999996 201.5,61.174999999999955 L203.89999999999964,63.12800000000004" />
<path d="M205.0,71.096 C205.60000000000036,71.096 206.10000000000036,71.25800000000004 206.60000000000036,71.58100000000002 C207.0,71.93499999999995 207.20000000000073,72.37800000000004 207.20000000000073,72.90899999999999 C207.20000000000073,73.80499999999995 206.70000000000073,74.64300000000003 205.79999999999927,75.42499999999995 C204.79999999999927,76.20600000000002 203.79999999999927,76.596 202.79999999999927,76.596 C202.10000000000036,76.596 201.60000000000036,76.43499999999995 201.20000000000073,76.11199999999997 C200.79999999999927,75.75800000000004 200.60000000000036,75.31500000000005 200.60000000000036,74.78399999999999 C200.60000000000036,73.88800000000003 201.0,73.04999999999995 202.0,72.26800000000003 C202.89999999999964,71.48699999999997 203.89999999999964,71.096 205.0,71.096" />
<path d="M205.0,81.096 C205.60000000000036,81.096 206.10000000000036,81.25800000000004 206.60000000000036,81.58100000000002 C207.0,81.93499999999995 207.20000000000073,82.37800000000004 207.20000000000073,82.90899999999999 C207.20000000000073,83.80499999999995 206.70000000000073,84.64300000000003 205.79999999999927,85.42499999999995 C204.79999999999927,86.20600000000002 203.79999999999927,86.596 202.79999999999927,86.596 C202.10000000000036,86.596 201.60000000000036,86.43499999999995 201.20000000000073,86.11199999999997 C200.79999999999927,85.75800000000004 200.60000000000036,85.31500000000005 200.60000000000036,84.78399999999999 C200.60000000000036,83.88800000000003 201.0,83.04999999999995 202.0,82.26800000000003 C202.89999999999964,81.48699999999997 203.89999999999964,81.096 205.0,81.096" />
<path d="M205.0,23.596000000000004 C205.60000000000036,23.596000000000004 206.10000000000036,23.758000000000038 206.60000000000036,24.081000000000017 C207.0,24.434999999999945 207.20000000000073,24.878000000000043 207.20000000000073,25.408999999999992 C207.20000000000073,26.30499999999995 206.70000000000073,27.14300000000003 205.79999999999927,27.924999999999955 C204.79999999999927,28.706000000000017 203.79999999999927,29.096000000000004 202.79999999999927,29.096000000000004 C202.10000000000036,29.096000000000004 201.60000000000036,28.934999999999945 201.20000000000073,28.611999999999966 C200.79999999999927,28.258000000000038 200.60000000000036,27.815000000000055 200.60000000000036,27.283999999999992 C200.60000000000036,26.388000000000034 201.0,25.549999999999955 202.0,24.76800000000003 C202.89999999999964,23.986999999999966 203.89999999999964,23.596000000000004 205.0,23.596000000000004" />
<path d="M160.89999999999964,63.12800000000004 L163.39999999999964,61.174999999999955 C163.39999999999964,61.12199999999996 163.5,61.096000000000004 163.5,61.096000000000004 C163.60000000000036,61.096000000000004 163.70000000000073,61.12199999999996 163.70000000000073,61.174999999999955 L164.10000000000036,61.486999999999966 C164.20000000000073,61.549999999999955 164.20000000000073,61.62800000000004 164.20000000000073,61.721000000000004 C164.20000000000073,61.78399999999999 164.20000000000073,61.861999999999966 164.10000000000036,61.95600000000002 L161.79999999999927,63.846000000000004 L164.10000000000036,65.73699999999997 C164.20000000000073,65.80999999999995 164.20000000000073,65.89099999999996 164.20000000000073,65.97900000000004 C164.20000000000073,66.06799999999998 164.20000000000073,66.14300000000003 164.10000000000036,66.20600000000002 L163.70000000000073,66.51800000000003 C163.70000000000073,66.57000000000005 163.60000000000036,66.596 163.5,66.596 C163.5,66.596 163.39999999999964,66.57000000000005 163.39999999999964,66.51800000000003 L160.89999999999964,64.56500000000005 L158.5,66.51800000000003 C158.5,66.57000000000005 158.39999999999964,66.596 158.39999999999964,66.596 C158.29999999999927,66.596 158.20000000000073,66.57000000000005 158.20000000000073,66.51800000000003 L157.70000000000073,66.20600000000002 C157.70000000000073,66.14300000000003 157.60000000000036,66.06500000000005 157.60000000000036,65.971 C157.60000000000036,65.90899999999999 157.70000000000073,65.83100000000002 157.70000000000073,65.73699999999997 L160.10000000000036,63.846000000000004 L157.70000000000073,61.95600000000002 C157.70000000000073,61.88300000000004 157.60000000000036,61.80200000000002 157.60000000000036,61.714000000000055 C157.60000000000036,61.625 157.70000000000073,61.549999999999955 157.70000000000073,61.486999999999966 L158.20000000000073,61.174999999999955 C158.20000000000073,61.12199999999996 158.29999999999927,61.096000000000004 158.39999999999964,61.096000000000004 C158.39999999999964,61.096000000000004 158.5,61.12199999999996 158.5,61.174999999999955 L160.89999999999964,63.12800000000004" />
<path d="M162.0,81.096 C162.70000000000073,81.096 163.20000000000073,81.25800000000004 163.60000000000036,81.58100000000002 C164.0,81.93499999999995 164.20000000000073,82.37800000000004 164.20000000000073,82.90899999999999 C164.20000000000073,83.80499999999995 163.79999999999927,84.64300000000003 162.89999999999964,85.42499999999995 C161.89999999999964,86.20600000000002 160.89999999999964,86.596 159.79999999999927,86.596 C159.20000000000073,86.596 158.70000000000073,86.43499999999995 158.29999999999927,86.11199999999997 C157.89999999999964,85.75800000000004 157.60000000000036,85.31500000000005 157.60000000000036,84.78399999999999 C157.60000000000036,83.88800000000003 158.10000000000036,83.04999999999995 159.10000000000036,82.26800000000003 C160.0,81.48699999999997 161.0,81.096 162.0,81.096" />
<path d="M162.0,6.096000000000004 C162.70000000000073,6.096000000000004 163.20000000000073,6.258000000000038 163.60000000000036,6.581000000000017 C164.0,6.934999999999945 164.20000000000073,7.378000000000043 164.20000000000073,7.908999999999992 C164.20000000000073,8.80499999999995 163.79999999999927,9.643000000000029 162.89999999999964,10.424999999999955 C161.89999999999964,11.206000000000017 160.89999999999964,11.596000000000004 159.79999999999927,11.596000000000004 C159.20000000000073,11.596000000000004 158.70000000000073,11.434999999999945 158.29999999999927,11.111999999999966 C157.89999999999964,10.758000000000038 157.60000000000036,10.315000000000055 157.60000000000036,9.783999999999992 C157.60000000000036,8.888000000000034 158.10000000000036,8.049999999999955 159.10000000000036,7.268000000000029 C160.0,6.486999999999966 161.0,6.096000000000004 162.0,6.096000000000004" />
<path d="M145.10000000000036,23.596000000000004 C145.79999999999927,23.596000000000004 146.29999999999927,23.758000000000038 146.70000000000073,24.081000000000017 C147.10000000000036,24.434999999999945 147.29999999999927,24.878000000000043 147.29999999999927,25.408999999999992 C147.29999999999927,26.30499999999995 146.89999999999964,27.14300000000003 145.89999999999964,27.924999999999955 C145.0,28.706000000000017 144.0,29.096000000000004 142.89999999999964,29.096000000000004 C142.29999999999927,29.096000000000004 141.79999999999927,28.934999999999945 141.29999999999927,28.611999999999966 C140.89999999999964,28.258000000000038 140.70000000000073,27.815000000000055 140.70000000000073,27.283999999999992 C140.70000000000073,26.388000000000034 141.20000000000073,25.549999999999955 142.10000000000036,24.76800000000003 C143.10000000000036,23.986999999999966 144.10000000000036,23.596000000000004 145.10000000000036,23.596000000000004" />
<path d="M127.10000000000036,63.12800000000004 L129.5,61.174999999999955 C129.60000000000036,61.12199999999996 129.70000000000073,61.096000000000004 129.70000000000073,61.096000000000004 C129.79999999999927,61.096000000000004 129.79999999999927,61.12199999999996 129.89999999999964,61.174999999999955 L130.29999999999927,61.486999999999966 C130.39999999999964,61.549999999999955 130.39999999999964,61.62800000000004 130.39999999999964,61.721000000000004 C130.39999999999964,61.78399999999999 130.39999999999964,61.861999999999966 130.29999999999927,61.95600000000002 L128.0,63.846000000000004 L130.29999999999927,65.73699999999997 C130.39999999999964,65.80999999999995 130.39999999999964,65.89099999999996 130.39999999999964,65.97900000000004 C130.39999999999964,66.06799999999998 130.39999999999964,66.14300000000003 130.29999999999927,66.20600000000002 L129.89999999999964,66.51800000000003 C129.79999999999927,66.57000000000005 129.79999999999927,66.596 129.70000000000073,66.596 C129.70000000000073,66.596 129.60000000000036,66.57000000000005 129.5,66.51800000000003 L127.10000000000036,64.56500000000005 L124.70000000000073,66.51800000000003 C124.60000000000036,66.57000000000005 124.60000000000036,66.596 124.5,66.596 C124.5,66.596 124.39999999999964,66.57000000000005 124.29999999999927,66.51800000000003 L123.89999999999964,66.20600000000002 C123.89999999999964,66.14300000000003 123.79999999999927,66.06500000000005 123.79999999999927,65.971 C123.79999999999927,65.90899999999999 123.89999999999964,65.83100000000002 123.89999999999964,65.73699999999997 L126.29999999999927,63.846000000000004 L123.89999999999964,61.95600000000002 C123.89999999999964,61.88300000000004 123.79999999999927,61.80200000000002 123.79999999999927,61.714000000000055 C123.79999999999927,61.625 123.89999999999964,61.549999999999955 123.89999999999964,61.486999999999966 L124.29999999999927,61.174999999999955 C124.39999999999964,61.12199999999996 124.5,61.096000000000004 124.5,61.096000000000004 C124.60000000000036,61.096000000000004 124.60000000000036,61.12199999999996 124.70000000000073,61.174999999999955 L127.10000000000036,63.12800000000004" />
<path d="M128.20000000000073,71.096 C128.79999999999927,71.096 129.39999999999964,71.25800000000004 129.79999999999927,71.58100000000002 C130.20000000000073,71.93499999999995 130.39999999999964,72.37800000000004 130.39999999999964,72.90899999999999 C130.39999999999964,73.80499999999995 129.89999999999964,74.64300000000003 129.0,75.42499999999995 C128.10000000000036,76.20600000000002 127.10000000000036,76.596 126.0,76.596 C125.39999999999964,76.596 124.89999999999964,76.43499999999995 124.39999999999964,76.11199999999997 C124.0,75.75800000000004 123.79999999999927,75.31500000000005 123.79999999999927,74.78399999999999 C123.79999999999927,73.88800000000003 124.29999999999927,73.04999999999995 125.20000000000073,72.26800000000003 C126.20000000000073,71.48699999999997 127.10000000000036,71.096 128.20000000000073,71.096" />
<path d="M128.20000000000073,6.096000000000004 C128.79999999999927,6.096000000000004 129.39999999999964,6.258000000000038 129.79999999999927,6.581000000000017 C130.20000000000073,6.934999999999945 130.39999999999964,7.378000000000043 130.39999999999964,7.908999999999992 C130.39999999999964,8.80499999999995 129.89999999999964,9.643000000000029 129.0,10.424999999999955 C128.10000000000036,11.206000000000017 127.10000000000036,11.596000000000004 126.0,11.596000000000004 C125.39999999999964,11.596000000000004 124.89999999999964,11.434999999999945 124.39999999999964,11.111999999999966 C124.0,10.758000000000038 123.79999999999927,10.315000000000055 123.79999999999927,9.783999999999992 C123.79999999999927,8.888000000000034 124.29999999999927,8.049999999999955 125.20000000000073,7.268000000000029 C126.20000000000073,6.486999999999966 127.10000000000036,6.096000000000004 128.20000000000073,6.096000000000004" />
<path d="M111.29999999999927,13.596000000000004 C111.89999999999964,13.596000000000004 112.5,13.758000000000038 112.89999999999964,14.081000000000017 C113.29999999999927,14.434999999999945 113.5,14.878000000000043 113.5,15.408999999999992 C113.5,16.30499999999995 113.0,17.14300000000003 112.10000000000036,17.924999999999955 C111.20000000000073,18.706000000000017 110.20000000000073,19.096000000000004 109.10000000000036,19.096000000000004 C108.5,19.096000000000004 108.0,18.934999999999945 107.5,18.611999999999966 C107.10000000000036,18.258000000000038 106.89999999999964,17.815000000000055 106.89999999999964,17.283999999999992 C106.89999999999964,16.388000000000034 107.39999999999964,15.549999999999955 108.29999999999927,14.768000000000029 C109.20000000000073,13.986999999999966 110.20000000000073,13.596000000000004 111.29999999999927,13.596000000000004" />
<path d="M93.29999999999927,63.12800000000004 L95.70000000000073,61.174999999999955 C95.79999999999927,61.12199999999996 95.79999999999927,61.096000000000004 95.89999999999964,61.096000000000004 C96.0,61.096000000000004 96.0,61.12199999999996 96.10000000000036,61.174999999999955 L96.5,61.486999999999966 C96.60000000000036,61.549999999999955 96.60000000000036,61.62800000000004 96.60000000000036,61.721000000000004 C96.60000000000036,61.78399999999999 96.60000000000036,61.861999999999966 96.5,61.95600000000002 L94.20000000000073,63.846000000000004 L96.5,65.73699999999997 C96.60000000000036,65.80999999999995 96.60000000000036,65.89099999999996 96.60000000000036,65.97900000000004 C96.60000000000036,66.06799999999998 96.60000000000036,66.14300000000003 96.5,66.20600000000002 L96.10000000000036,66.51800000000003 C96.0,66.57000000000005 96.0,66.596 95.89999999999964,66.596 C95.79999999999927,66.596 95.79999999999927,66.57000000000005 95.70000000000073,66.51800000000003 L93.29999999999927,64.56500000000005 L90.89999999999964,66.51800000000003 C90.79999999999927,66.57000000000005 90.79999999999927,66.596 90.70000000000073,66.596 C90.70000000000073,66.596 90.60000000000036,66.57000000000005 90.5,66.51800000000003 L90.10000000000036,66.20600000000002 C90.0,66.14300000000003 90.0,66.06500000000005 90.0,65.971 C90.0,65.90899999999999 90.0,65.83100000000002 90.10000000000036,65.73699999999997 L92.39999999999964,63.846000000000004 L90.10000000000036,61.95600000000002 C90.0,61.88300000000004 90.0,61.80200000000002 90.0,61.714000000000055 C90.0,61.625 90.0,61.549999999999955 90.10000000000036,61.486999999999966 L90.5,61.174999999999955 C90.60000000000036,61.12199999999996 90.70000000000073,61.096000000000004 90.70000000000073,61.096000000000004 C90.79999999999927,61.096000000000004 90.79999999999927,61.12199999999996 90.89999999999964,61.174999999999955 L93.29999999999927,63.12800000000004" />
<path d="M94.39999999999964,81.096 C95.0,81.096 95.60000000000036,81.25800000000004 96.0,81.58100000000002 C96.39999999999964,81.93499999999995 96.60000000000036,82.37800000000004 96.60000000000036,82.90899999999999 C96.60000000000036,83.80499999999995 96.10000000000036,84.64300000000003 95.20000000000073,85.42499999999995 C94.29999999999927,86.20600000000002 93.29999999999927,86.596 92.20000000000073,86.596 C91.60000000000036,86.596 91.0,86.43499999999995 90.60000000000036,86.11199999999997 C90.20000000000073,85.75800000000004 90.0,85.31500000000005 90.0,84.78399999999999 C90.0,83.88800000000003 90.5,83.04999999999995 91.39999999999964,82.26800000000003 C92.29999999999927,81.48699999999997 93.29999999999927,81.096 94.39999999999964,81.096" />
<path d="M94.39999999999964,23.596000000000004 C95.0,23.596000000000004 95.60000000000036,23.758000000000038 96.0,24.081000000000017 C96.39999999999964,24.434999999999945 96.60000000000036,24.878000000000043 96.60000000000036,25.408999999999992 C96.60000000000036,26.30499999999995 96.10000000000036,27.14300000000003 95.20000000000073,27.924999999999955 C94.29999999999927,28.706000000000017 93.29999999999927,29.096000000000004 92.20000000000073,29.096000000000004 C91.60000000000036,29.096000000000004 91.0,28.934999999999945 90.60000000000036,28.611999999999966 C90.20000000000073,28.258000000000038 90.0,27.815000000000055 90.0,27.283999999999992 C90.0,26.388000000000034 90.5,25.549999999999955 91.39999999999964,24.76800000000003 C92.29999999999927,23.986999999999966 93.29999999999927,23.596000000000004 94.39999999999964,23.596000000000004" />
<path d="M59.5,63.12800000000004 L61.899999999999636,61.174999999999955 C62.0,61.12199999999996 62.0,61.096000000000004 62.100000000000364,61.096000000000004 C62.100000000000364,61.096000000000004 62.20000000000073,61.12199999999996 62.29999999999927,61.174999999999955 L62.70000000000073,61.486999999999966 C62.70000000000073,61.549999999999955 62.79999999999927,61.62800000000004 62.79999999999927,61.721000000000004 C62.79999999999927,61.78399999999999 62.70000000000073,61.861999999999966 62.70000000000073,61.95600000000002 L60.29999999999927,63.846000000000004 L62.70000000000073,65.73699999999997 C62.70000000000073,65.80999999999995 62.79999999999927,65.89099999999996 62.79999999999927,65.97900000000004 C62.79999999999927,66.06799999999998 62.70000000000073,66.14300000000003 62.70000000000073,66.20600000000002 L62.29999999999927,66.51800000000003 C62.20000000000073,66.57000000000005 62.100000000000364,66.596 62.100000000000364,66.596 C62.0,66.596 62.0,66.57000000000005 61.899999999999636,66.51800000000003 L59.5,64.56500000000005 L57.100000000000364,66.51800000000003 C57.0,66.57000000000005 56.899999999999636,66.596 56.899999999999636,66.596 C56.79999999999927,66.596 56.79999999999927,66.57000000000005 56.70000000000073,66.51800000000003 L56.29999999999927,66.20600000000002 C56.20000000000073,66.14300000000003 56.20000000000073,66.06500000000005 56.20000000000073,65.971 C56.20000000000073,65.90899999999999 56.20000000000073,65.83100000000002 56.29999999999927,65.73699999999997 L58.600000000000364,63.846000000000004 L56.29999999999927,61.95600000000002 C56.20000000000073,61.88300000000004 56.20000000000073,61.80200000000002 56.20000000000073,61.714000000000055 C56.20000000000073,61.625 56.20000000000073,61.549999999999955 56.29999999999927,61.486999999999966 L56.70000000000073,61.174999999999955 C56.79999999999927,61.12199999999996 56.79999999999927,61.096000000000004 56.899999999999636,61.096000000000004 C56.899999999999636,61.096000000000004 57.0,61.12199999999996 57.100000000000364,61.174999999999955 L59.5,63.12800000000004" />
<path d="M60.600000000000364,71.096 C61.20000000000073,71.096 61.70000000000073,71.25800000000004 62.20000000000073,71.58100000000002 C62.600000000000364,71.93499999999995 62.79999999999927,72.37800000000004 62.79999999999927,72.90899999999999 C62.79999999999927,73.80499999999995 62.29999999999927,74.64300000000003 61.399999999999636,75.42499999999995 C60.5,76.20600000000002 59.5,76.596 58.399999999999636,76.596 C57.79999999999927,76.596 57.20000000000073,76.43499999999995 56.79999999999927,76.11199999999997 C56.399999999999636,75.75800000000004 56.20000000000073,75.31500000000005 56.20000000000073,74.78399999999999 C56.20000000000073,73.88800000000003 56.70000000000073,73.04999999999995 57.600000000000364,72.26800000000003 C58.5,71.48699999999997 59.5,71.096 60.600000000000364,71.096" />
<path d="M60.600000000000364,81.096 C61.20000000000073,81.096 61.70000000000073,81.25800000000004 62.20000000000073,81.58100000000002 C62.600000000000364,81.93499999999995 62.79999999999927,82.37800000000004 62.79999999999927,82.90899999999999 C62.79999999999927,83.80499999999995 62.29999999999927,84.64300000000003 61.399999999999636,85.42499999999995 C60.5,86.20600000000002 59.5,86.596 58.399999999999636,86.596 C57.79999999999927,86.596 57.20000000000073,86.43499999999995 56.79999999999927,86.11199999999997 C56.399999999999636,85.75800000000004 56.20000000000073,85.31500000000005 56.20000000000073,84.78399999999999 C56.20000000000073,83.88800000000003 56.70000000000073,83.04999999999995 57.600000000000364,82.26800000000003 C58.5,81.48699999999997 59.5,81.096 60.600000000000364,81.096" />
<path d="M60.600000000000364,6.096000000000004 C61.20000000000073,6.096000000000004 61.70000000000073,6.258000000000038 62.20000000000073,6.581000000000017 C62.600000000000364,6.934999999999945 62.79999999999927,7.378000000000043 62.79999999999927,7.908999999999992 C62.79999999999927,8.80499999999995 62.29999999999927,9.643000000000029 61.399999999999636,10.424999999999955 C60.5,11.206000000000017 59.5,11.596000000000004 58.399999999999636,11.596000000000004 C57.79999999999927,11.596000000000004 57.20000000000073,11.434999999999945 56.79999999999927,11.111999999999966 C56.399999999999636,10.758000000000038 56.20000000000073,10.315000000000055 56.20000000000073,9.783999999999992 C56.20000000000073,8.888000000000034 56.70000000000073,8.049999999999955 57.600000000000364,7.268000000000029 C58.5,6.486999999999966 59.5,6.096000000000004 60.600000000000364,6.096000000000004" />
<path d="M43.70000000000073,6.096000000000004 C44.29999999999927,6.096000000000004 44.79999999999927,6.258000000000038 45.29999999999927,6.581000000000017 C45.70000000000073,6.934999999999945 45.899999999999636,7.378000000000043 45.899999999999636,7.908999999999992 C45.899999999999636,8.80499999999995 45.399999999999636,9.643000000000029 44.5,10.424999999999955 C43.5,11.206000000000017 42.5,11.596000000000004 41.5,11.596000000000004 C40.79999999999927,11.596000000000004 40.29999999999927,11.434999999999945 39.899999999999636,11.111999999999966 C39.5,10.758000000000038 39.29999999999927,10.315000000000055 39.29999999999927,9.783999999999992 C39.29999999999927,8.888000000000034 39.79999999999927,8.049999999999955 40.70000000000073,7.268000000000029 C41.600000000000364,6.486999999999966 42.600000000000364,6.096000000000004 43.70000000000073,6.096000000000004" />
<path d="M25.700000000000728,63.12800000000004 L28.100000000000364,61.174999999999955 C28.100000000000364,61.12199999999996 28.200000000000728,61.096000000000004 28.200000000000728,61.096000000000004 C28.299999999999272,61.096000000000004 28.399999999999636,61.12199999999996 28.5,61.174999999999955 L28.899999999999636,61.486999999999966 C28.899999999999636,61.549999999999955 29.0,61.62800000000004 29.0,61.721000000000004 C29.0,61.78399999999999 28.899999999999636,61.861999999999966 28.899999999999636,61.95600000000002 L26.5,63.846000000000004 L28.899999999999636,65.73699999999997 C28.899999999999636,65.80999999999995 29.0,65.89099999999996 29.0,65.97900000000004 C29.0,66.06799999999998 28.899999999999636,66.14300000000003 28.899999999999636,66.20600000000002 L28.5,66.51800000000003 C28.399999999999636,66.57000000000005 28.299999999999272,66.596 28.200000000000728,66.596 C28.200000000000728,66.596 28.100000000000364,66.57000000000005 28.100000000000364,66.51800000000003 L25.700000000000728,64.56500000000005 L23.200000000000728,66.51800000000003 C23.200000000000728,66.57000000000005 23.100000000000364,66.596 23.100000000000364,66.596 C23.0,66.596 23.0,66.57000000000005 22.899999999999636,66.51800000000003 L22.5,66.20600000000002 C22.399999999999636,66.14300000000003 22.399999999999636,66.06500000000005 22.399999999999636,65.971 C22.399999999999636,65.90899999999999 22.399999999999636,65.83100000000002 22.5,65.73699999999997 L24.799999999999272,63.846000000000004 L22.5,61.95600000000002 C22.399999999999636,61.88300000000004 22.399999999999636,61.80200000000002 22.399999999999636,61.714000000000055 C22.399999999999636,61.625 22.399999999999636,61.549999999999955 22.5,61.486999999999966 L22.899999999999636,61.174999999999955 C23.0,61.12199999999996 23.0,61.096000000000004 23.100000000000364,61.096000000000004 C23.100000000000364,61.096000000000004 23.200000000000728,61.12199999999996 23.200000000000728,61.174999999999955 L25.700000000000728,63.12800000000004" />
<path d="M26.799999999999272,6.096000000000004 C27.399999999999636,6.096000000000004 27.899999999999636,6.258000000000038 28.399999999999636,6.581000000000017 C28.799999999999272,6.934999999999945 29.0,7.378000000000043 29.0,7.908999999999992 C29.0,8.80499999999995 28.5,9.643000000000029 27.600000000000364,10.424999999999955 C26.600000000000364,11.206000000000017 25.600000000000364,11.596000000000004 24.600000000000364,11.596000000000004 C23.899999999999636,11.596000000000004 23.399999999999636,11.434999999999945 23.0,11.111999999999966 C22.600000000000364,10.758000000000038 22.399999999999636,10.315000000000055 22.399999999999636,9.783999999999992 C22.399999999999636,8.888000000000034 22.799999999999272,8.049999999999955 23.799999999999272,7.268000000000029 C24.700000000000728,6.486999999999966 25.700000000000728,6.096000000000004 26.799999999999272,6.096000000000004" />
<path d="M9.899999999999636,23.596000000000004 C10.5,23.596000000000004 11.0,23.758000000000038 11.399999999999636,24.081000000000017 C11.799999999999272,24.434999999999945 12.0,24.878000000000043 12.0,25.408999999999992 C12.0,26.30499999999995 11.600000000000364,27.14300000000003 10.700000000000728,27.924999999999955 C9.700000000000728,28.706000000000017 8.700000000000728,29.096000000000004 7.700000000000728,29.096000000000004 C7.0,29.096000000000004 6.5,28.934999999999945 6.100000000000364,28.611999999999966 C5.700000000000728,28.258000000000038 5.5,27.815000000000055 5.5,27.283999999999992 C5.5,26.388000000000034 5.899999999999636,25.549999999999955 6.899999999999636,24.76800000000003 C7.799999999999272,23.986999999999966 8.799999999999272,23.596000000000004 9.899999999999636,23.596000000000004" />
<path d="M200.60000000000036,98.846 L285.2999999999993,91.28800000000001 L285.2999999999993,93.78800000000001 L200.60000000000036,101.346 L200.60000000000036,98.846" />
<path d="M123.79999999999927,41.346000000000004 L158.29999999999927,41.346000000000004 L158.29999999999927,43.846000000000004 L123.79999999999927,43.846000000000004 L123.79999999999927,41.346000000000004" />
<path d="M123.79999999999927,37.596000000000004 L141.39999999999964,37.596000000000004 L141.39999999999964,40.096000000000004 L123.79999999999927,40.096000000000004 L123.79999999999927,37.596000000000004" />
<path d="M56.20000000000073,96.346 L158.29999999999927,96.346 L158.29999999999927,98.846 L56.20000000000073,98.846 L56.20000000000073,96.346" />
<path d="M56.20000000000073,41.346000000000004 L107.60000000000036,41.346000000000004 L107.60000000000036,43.846000000000004 L56.20000000000073,43.846000000000004 L56.20000000000073,41.346000000000004" />
<path d="M90.0,37.596000000000004 L107.60000000000036,37.596000000000004 L107.60000000000036,40.096000000000004 L90.0,40.096000000000004 L90.0,37.596000000000004" />
<polyline points="0.0,13.846000000000004 255.0,13.846000000000004" fill="none" stroke="#000000" stroke-width="0.40" />
<polyline points="0.0,18.846000000000004 255.0,18.846000000000004" fill="none" stroke="#000000" stroke-width="0.40" />
<polyline points="0.0,23.846000000000004 255.0,23.846000000000004" fill="none" stroke="#000000" stroke-width="0.40" />
<polyline points="0.0,28.846000000000004 255.0,28.846000000000004" fill="none" stroke="#000000" stroke-width="0.40" />
<polyline points="0.0,33.846000000000004 255.0,33.846000000000004" fill="none" stroke="#000000" stroke-width="0.40" />
<polyline points="0.0,66.346 255.0,66.346" fill="none" stroke="#000000" stroke-width="0.40" />
<polyline points="0.0,71.346 255.0,71.346" fill="none" stroke="#000000" stroke-width="0.40" />
<polyline points="0.0,76.346 255.0,76.346" fill="none" stroke="#000000" stroke-width="0.40" />
<polyline points="0.0,81.346 255.0,81.346" fill="none" stroke="#000000" stroke-width="0.40" />
<polyline points="0.0,86.346 255.0,86.346" fill="none" stroke="#000000" stroke-width="0.40" />
<polyline points="191.89999999999964,66.346 191.89999999999964,86.346" fill="" stroke="#000000" stroke-width="0.80" />
<polyline points="191.89999999999964,13.846000000000004 191.89999999999964,33.846000000000004" fill="" stroke="#000000" stroke-width="0.80" />
<polyline points="252.70000000000073,65.90999999999997 252.70000000000073,95.481" fill="" stroke="#000000" stroke-width="0.65" />
<polyline points="226.79999999999927,65.90999999999997 226.79999999999927,97.78899999999999" fill="" stroke="#000000" stroke-width="0.65" />
<polyline points="200.89999999999964,65.90999999999997 200.89999999999964,100.096" fill="" stroke="#000000" stroke-width="0.65" />
<polyline points="206.79999999999927,25.40700000000004 206.79999999999927,10.096000000000004" fill="" stroke="#000000" stroke-width="0.65" />
<polyline points="158.0,65.90999999999997 158.0,97.596" fill="" stroke="#000000" stroke-width="0.65" />
<polyline points="158.0,9.785999999999945 158.0,42.596000000000004" fill="" stroke="#000000" stroke-width="0.65" />
<polyline points="141.10000000000036,27.285999999999945 141.10000000000036,42.596000000000004" fill="" stroke="#000000" stroke-width="0.65" />
<polyline points="124.20000000000073,65.90999999999997 124.20000000000073,97.596" fill="" stroke="#000000" stroke-width="0.65" />
<polyline points="124.20000000000073,9.785999999999945 124.20000000000073,42.596000000000004" fill="" stroke="#000000" stroke-width="0.65" />
<polyline points="107.20000000000073,17.285999999999945 107.20000000000073,42.596000000000004" fill="" stroke="#000000" stroke-width="0.65" />
<polyline points="90.29999999999927,65.90999999999997 90.29999999999927,97.596" fill="" stroke="#000000" stroke-width="0.65" />
<polyline points="90.29999999999927,27.285999999999945 90.29999999999927,42.596000000000004" fill="" stroke="#000000" stroke-width="0.65" />
<polyline points="56.5,65.90999999999997 56.5,97.596" fill="" stroke="#000000" stroke-width="0.65" />
<polyline points="56.5,9.785999999999945 56.5,42.596000000000004" fill="" stroke="#000000" stroke-width="0.65" />
<polyline points="39.600000000000364,9.785999999999945 39.600000000000364,42.596000000000004" fill="" stroke="#000000" stroke-width="0.65" />
<polyline points="22.700000000000728,65.90999999999997 22.700000000000728,92.596" fill="" stroke="#000000" stroke-width="0.65" />
<polyline points="22.700000000000728,9.785999999999945 22.700000000000728,42.596000000000004" fill="" stroke="#000000" stroke-width="0.65" />
<polyline points="5.799999999999272,27.285999999999945 5.799999999999272,42.596000000000004" fill="" stroke="#000000" stroke-width="0.65" />
<polyline points="156.10000000000036,8.846000000000004 165.70000000000073,8.846000000000004" fill="" stroke="#000000" stroke-width="0.80" />
<polyline points="122.29999999999927,8.846000000000004 131.89999999999964,8.846000000000004" fill="" stroke="#000000" stroke-width="0.80" />
<polyline points="54.70000000000073,8.846000000000004 64.29999999999927,8.846000000000004" fill="" stroke="#000000" stroke-width="0.80" />
<polyline points="37.79999999999927,8.846000000000004 47.399999999999636,8.846000000000004" fill="" stroke="#000000" stroke-width="0.80" />
<polyline points="20.899999999999636,8.846000000000004 30.5,8.846000000000004" fill="" stroke="#000000" stroke-width="0.80" />
</svg>
