<?xml version="1.0" encoding="UTF-8" standalone="yes"?>
<svg width="256.0px" height="256.0px" xmlns="http://www.w3.org/2000/svg" xmlns:xlink="http://www.w3.org/1999/xlink" version="1.2" baseProfile="tiny">
<path d="M13.700000000000728,68.596 C14.400000000001455,68.596 14.900000000001455,68.75800000000004 15.299999999999272,69.08100000000002 C15.700000000000728,69.43499999999995 15.900000000001455,69.87800000000004 15.900000000001455,70.40899999999999 C15.900000000001455,71.30499999999995 15.5,72.14300000000003 14.5,72.92499999999995 C13.599999999998545,73.70600000000002 12.599999999998545,74.096 11.5,74.096 C10.900000000001455,74.096 10.400000000001455,73.93499999999995 9.900000000001455,73.61199999999997 C9.5,73.25800000000004 9.299999999999272,72.81500000000005 9.299999999999272,72.28399999999999 C9.299999999999272,71.38800000000003 9.799999999999272,70.54999999999995 10.700000000000728,69.76800000000003 C11.700000000000728,68.98699999999997 12.700000000000728,68.596 13.700000000000728,68.596" />
<path d="M13.700000000000728,6.096000000000004 C14.400000000001455,6.096000000000004 14.900000000001455,6.258000000000038 15.299999999999272,6.581000000000017 C15.700000000000728,6.934999999999945 15.900000000001455,7.378000000000043 15.900000000001455,7.908999999999992 C15.900000000001455,8.80499999999995 15.5,9.643000000000029 14.5,10.424999999999955 C13.599999999998545,11.206000000000017 12.599999999998545,11.596000000000004 11.5,11.596000000000004 C10.900000000001455,11.596000000000004 10.400000000001455,11.434999999999945 9.900000000001455,11.111999999999966 C9.5,10.758000000000038 9.299999999999272,10.315000000000055 9.299999999999272,9.783999999999992 C9.299999999999272,8.888000000000034 9.799999999999272,8.049999999999955 10.700000000000728,7.268000000000029 C11.700000000000728,6.486999999999966 12.700000000000728,6.096000000000004 13.700000000000728,6.096000000000004" />
<polyline points="0.0,13.846000000000004 76.5,13.846000000000004" fill="none" stroke="#000000" stroke-width="0.40" />
<polyline points="0.0,18.846000000000004 76.5,18.846000000000004" fill="none" stroke="#000000" stroke-width="0.40" />
<polyline points="0.0,23.846000000000004 76.5,23.846000000000004" fill="none" stroke="#000000" stroke-width="0.40" />
<polyline points="0.0,28.846000000000004 76.5,28.846000000000004" fill="none" stroke="#000000" stroke-width="0.40" />
<polyline points="0.0,33.846000000000004 76.5,33.846000000000004" fill="none" stroke="#000000" stroke-width="0.40" />
<polyline points="0.0,66.346 76.5,66.346" fill="none" stroke="#000000" stroke-width="0.40" />
<polyline points="0.0,71.346 76.5,71.346" fill="none" stroke="#000000" stroke-width="0.40" />
<polyline points="0.0,76.346 76.5,76.346" fill="none" stroke="#000000" stroke-width="0.40" />
<polyline points="0.0,81.346 76.5,81.346" fill="none" stroke="#000000" stroke-width="0.40" />
<polyline points="0.0,86.346 76.5,86.346" fill="none" stroke="#000000" stroke-width="0.40" />
<polyline points="71.59999999999854,66.346 71.59999999999854,86.346" fill="none" stroke="#000000" stroke-width="0.80" />
<polyline points="75.20000000000073,66.346 75.20000000000073,86.346" fill="none" stroke="#000000" stroke-width="2.50" />
<polyline points="71.59999999999854,13.846000000000004 71.59999999999854,33.846000000000004" fill="none" stroke="#000000" stroke-width="0.80" />
<polyline points="75.20000000000073,13.846000000000004 75.20000000000073,33.846000000000004" fill="none" stroke="#000000" stroke-width="2.50" />
<polyline points="9.700000000000728,72.28599999999994 9.700000000000728,90.096" fill="none" stroke="#000000" stroke-width="0.65" />
<polyline points="9.700000000000728,9.785999999999945 9.700000000000728,27.596000000000004" fill="none" stroke="#000000" stroke-width="0.65" />
<polyline points="7.799999999999272,8.846000000000004 17.400000000001455,8.846000000000004" fill="none" stroke="#000000" stroke-width="0.80" />
</svg>
