<?xml version="1.0" encoding="UTF-8" standalone="yes"?>
<svg width="256.0px" height="256.0px" xmlns="http://www.w3.org/2000/svg" xmlns:xlink="http://www.w3.org/1999/xlink" version="1.2" baseProfile="tiny">
<path d="M19.660000000000082,46.6121 C19.549999999999955,46.6121 19.3599999999999,46.6694 19.079999999999927,46.784 L19.079999999999927,46.6746 L20.5,45.9402 L20.559999999999945,45.9558 L20.559999999999945,50.7527 C20.559999999999945,50.9506 20.6099999999999,51.0782 20.710000000000036,51.1355 C20.809999999999945,51.1928 21.019999999999982,51.2215 21.329999999999927,51.2215 L21.329999999999927,51.3465 L19.13000000000011,51.3465 L19.13000000000011,51.2215 C19.430000000000064,51.211 19.63000000000011,51.1668 19.74000000000001,51.0886 C19.839999999999918,51.0105 19.8900000000001,50.8465 19.8900000000001,50.5965 L19.8900000000001,46.9871 C19.8900000000001,46.7371 19.809999999999945,46.6121 19.660000000000082,46.6121 M25.950000000000045,49.534 L25.950000000000045,50.0183 L25.13000000000011,50.0183 L25.13000000000011,51.3465 L24.519999999999982,51.3465 L24.519999999999982,50.0183 L22.269999999999982,50.0183 L22.269999999999982,49.534 L24.779999999999973,45.9715 L25.13000000000011,45.9715 L25.13000000000011,49.534 L25.950000000000045,49.534 M24.5,49.534 L24.5,46.784 L22.59999999999991,49.534 L24.5,49.534" />
<path d="M199.94000000000005,233.872 C203.1199999999999,231.05 212.68000000000006,231.05 215.8599999999999,233.872 C212.68000000000006,231.85 203.1199999999999,231.85 199.94000000000005,233.872" />
<path d="M90.00999999999999,237.096 C94.06999999999994,239.788 106.27999999999997,239.788 110.33999999999992,237.096 C106.27999999999997,240.588 94.06999999999994,240.588 90.00999999999999,237.096" />
<path d="M162.22000000000003,200.653 C162.0,200.653 161.76,200.502 161.5,200.2 C161.16000000000008,199.814 160.8699999999999,199.517 160.6500000000001,199.309 C160.32999999999993,198.996 159.98000000000002,198.84 159.5999999999999,198.84 C159.23000000000002,198.84 158.92000000000007,198.95 158.66000000000008,199.168 L158.16000000000008,199.793 C158.08999999999992,199.877 158.01,199.918 157.93000000000006,199.918 C157.83999999999992,199.918 157.76999999999998,199.884 157.71000000000004,199.817 C157.6500000000001,199.749 157.6099999999999,199.676 157.6099999999999,199.598 C157.6099999999999,199.52 157.6400000000001,199.455 157.69000000000005,199.403 L159.81999999999994,196.825 C159.92000000000007,196.679 160.05999999999995,196.606 160.22000000000003,196.606 C160.45000000000005,196.606 160.70000000000005,196.757 160.96000000000004,197.059 C161.28999999999996,197.455 161.57999999999993,197.762 161.81999999999994,197.981 C162.1400000000001,198.283 162.48000000000002,198.434 162.8499999999999,198.434 C163.21000000000004,198.434 163.52999999999997,198.319 163.78999999999996,198.09 L164.28999999999996,197.465 C164.3599999999999,197.392 164.44000000000005,197.356 164.51999999999998,197.356 C164.6099999999999,197.356 164.69000000000005,197.382 164.74,197.434 C164.79999999999995,197.496 164.82999999999993,197.575 164.82999999999993,197.668 C164.82999999999993,197.762 164.80999999999995,197.835 164.75,197.887 L162.6300000000001,200.434 C162.51,200.58 162.3800000000001,200.653 162.22000000000003,200.653" />
<path d="M162.22000000000003,195.653 C162.0,195.653 161.76,195.502 161.5,195.2 C161.16000000000008,194.814 160.8699999999999,194.517 160.6500000000001,194.309 C160.32999999999993,193.996 159.98000000000002,193.84 159.5999999999999,193.84 C159.23000000000002,193.84 158.92000000000007,193.95 158.66000000000008,194.168 L158.16000000000008,194.793 C158.08999999999992,194.877 158.01,194.918 157.93000000000006,194.918 C157.83999999999992,194.918 157.76999999999998,194.884 157.71000000000004,194.817 C157.6500000000001,194.749 157.6099999999999,194.676 157.6099999999999,194.598 C157.6099999999999,194.52 157.6400000000001,194.455 157.69000000000005,194.403 L159.81999999999994,191.825 C159.92000000000007,191.679 160.05999999999995,191.606 160.22000000000003,191.606 C160.45000000000005,191.606 160.70000000000005,191.757 160.96000000000004,192.059 C161.28999999999996,192.455 161.57999999999993,192.762 161.81999999999994,192.981 C162.1400000000001,193.283 162.48000000000002,193.434 162.8499999999999,193.434 C163.21000000000004,193.434 163.52999999999997,193.319 163.78999999999996,193.09 L164.28999999999996,192.465 C164.3599999999999,192.392 164.44000000000005,192.356 164.51999999999998,192.356 C164.6099999999999,192.356 164.69000000000005,192.382 164.74,192.434 C164.79999999999995,192.496 164.82999999999993,192.575 164.82999999999993,192.668 C164.82999999999993,192.762 164.80999999999995,192.835 164.75,192.887 L162.6300000000001,195.434 C162.51,195.58 162.3800000000001,195.653 162.22000000000003,195.653" />
<path d="M162.22000000000003,190.653 C162.0,190.653 161.76,190.502 161.5,190.2 C161.16000000000008,189.814 160.8699999999999,189.517 160.6500000000001,189.309 C160.32999999999993,188.996 159.98000000000002,188.84 159.5999999999999,188.84 C159.23000000000002,188.84 158.92000000000007,188.95 158.66000000000008,189.168 L158.16000000000008,189.793 C158.08999999999992,189.877 158.01,189.918 157.93000000000006,189.918 C157.83999999999992,189.918 157.76999999999998,189.884 157.71000000000004,189.817 C157.6500000000001,189.749 157.6099999999999,189.676 157.6099999999999,189.598 C157.6099999999999,189.52 157.6400000000001,189.455 157.69000000000005,189.403 L159.81999999999994,186.825 C159.92000000000007,186.679 160.05999999999995,186.606 160.22000000000003,186.606 C160.45000000000005,186.606 160.70000000000005,186.757 160.96000000000004,187.059 C161.28999999999996,187.455 161.57999999999993,187.762 161.81999999999994,187.981 C162.1400000000001,188.283 162.48000000000002,188.434 162.8499999999999,188.434 C163.21000000000004,188.434 163.52999999999997,188.319 163.78999999999996,188.09 L164.28999999999996,187.465 C164.3599999999999,187.392 164.44000000000005,187.356 164.51999999999998,187.356 C164.6099999999999,187.356 164.69000000000005,187.382 164.74,187.434 C164.79999999999995,187.496 164.82999999999993,187.575 164.82999999999993,187.668 C164.82999999999993,187.762 164.80999999999995,187.835 164.75,187.887 L162.6300000000001,190.434 C162.51,190.58 162.3800000000001,190.653 162.22000000000003,190.653" />
<path d="M162.22000000000003,185.653 C162.0,185.653 161.76,185.502 161.5,185.2 C161.16000000000008,184.814 160.8699999999999,184.517 160.6500000000001,184.309 C160.32999999999993,183.996 159.98000000000002,183.84 159.5999999999999,183.84 C159.23000000000002,183.84 158.92000000000007,183.95 158.66000000000008,184.168 L158.16000000000008,184.793 C158.08999999999992,184.877 158.01,184.918 157.93000000000006,184.918 C157.83999999999992,184.918 157.76999999999998,184.884 157.71000000000004,184.817 C157.6500000000001,184.749 157.6099999999999,184.676 157.6099999999999,184.598 C157.6099999999999,184.52 157.6400000000001,184.455 157.69000000000005,184.403 L159.81999999999994,181.825 C159.92000000000007,181.679 160.05999999999995,181.606 160.22000000000003,181.606 C160.45000000000005,181.606 160.70000000000005,181.757 160.96000000000004,182.059 C161.28999999999996,182.455 161.57999999999993,182.762 161.81999999999994,182.981 C162.1400000000001,183.283 162.48000000000002,183.434 162.8499999999999,183.434 C163.21000000000004,183.434 163.52999999999997,183.319 163.78999999999996,183.09 L164.28999999999996,182.465 C164.3599999999999,182.392 164.44000000000005,182.356 164.51999999999998,182.356 C164.6099999999999,182.356 164.69000000000005,182.382 164.74,182.434 C164.79999999999995,182.496 164.82999999999993,182.575 164.82999999999993,182.668 C164.82999999999993,182.762 164.80999999999995,182.835 164.75,182.887 L162.6300000000001,185.434 C162.51,185.58 162.3800000000001,185.653 162.22000000000003,185.653" />
<path d="M162.22000000000003,180.653 C162.0,180.653 161.76,180.502 161.5,180.2 C161.16000000000008,179.814 160.8699999999999,179.517 160.6500000000001,179.309 C160.32999999999993,178.996 159.98000000000002,178.84 159.5999999999999,178.84 C159.23000000000002,178.84 158.92000000000007,178.95 158.66000000000008,179.168 L158.16000000000008,179.793 C158.08999999999992,179.877 158.01,179.918 157.93000000000006,179.918 C157.83999999999992,179.918 157.76999999999998,179.884 157.71000000000004,179.817 C157.6500000000001,179.749 157.6099999999999,179.676 157.6099999999999,179.598 C157.6099999999999,179.52 157.6400000000001,179.455 157.69000000000005,179.403 L159.81999999999994,176.825 C159.92000000000007,176.679 160.05999999999995,176.606 160.22000000000003,176.606 C160.45000000000005,176.606 160.70000000000005,176.757 160.96000000000004,177.059 C161.28999999999996,177.455 161.57999999999993,177.762 161.81999999999994,177.981 C162.1400000000001,178.283 162.48000000000002,178.434 162.8499999999999,178.434 C163.21000000000004,178.434 163.52999999999997,178.319 163.78999999999996,178.09 L164.28999999999996,177.465 C164.3599999999999,177.392 164.44000000000005,177.356 164.51999999999998,177.356 C164.6099999999999,177.356 164.69000000000005,177.382 164.74,177.434 C164.79999999999995,177.496 164.82999999999993,177.575 164.82999999999993,177.668 C164.82999999999993,177.762 164.80999999999995,177.835 164.75,177.887 L162.6300000000001,180.434 C162.51,180.58 162.3800000000001,180.653 162.22000000000003,180.653" />
<path d="M158.19000000000005,174.809 C158.1199999999999,174.892 158.02999999999997,174.934 157.93000000000006,174.934 C157.82999999999993,174.934 157.75,174.892 157.69000000000005,174.809 C157.6400000000001,174.757 157.6099999999999,174.692 157.6099999999999,174.614 C157.6099999999999,174.536 157.6500000000001,174.46 157.72000000000003,174.387 L159.56999999999994,172.668 C159.76,172.47 160.03999999999996,172.34 160.3800000000001,172.278 L159.6500000000001,170.715 C159.5999999999999,170.653 159.58999999999992,170.601 159.5999999999999,170.559 C159.5999999999999,170.476 159.6500000000001,170.434 159.75,170.434 C159.83999999999992,170.434 160.06999999999994,170.642 160.46000000000004,171.059 C160.8499999999999,171.476 161.3599999999999,171.944 161.99,172.465 C162.5999999999999,173.007 163.18000000000006,173.361 163.71000000000004,173.528 C163.73000000000002,173.528 163.74,173.564 163.74,173.637 C163.74,173.689 163.73000000000002,173.731 163.71000000000004,173.762 C163.18000000000006,173.929 162.5999999999999,174.278 161.99,174.809 C161.3599999999999,175.33 160.8499999999999,175.804 160.46000000000004,176.231 C160.06999999999994,176.647 159.83999999999992,176.856 159.75,176.856 C159.67000000000007,176.856 159.6199999999999,176.83 159.5999999999999,176.778 C159.5999999999999,176.746 159.6099999999999,176.679 159.6500000000001,176.575 L160.5,174.731 C160.49,174.72 160.47000000000003,174.702 160.43000000000006,174.676 C160.3800000000001,174.65 160.3499999999999,174.621 160.30999999999995,174.59 C160.26999999999998,174.559 160.23000000000002,174.528 160.19000000000005,174.496 C160.1500000000001,174.465 160.0999999999999,174.424 160.03999999999996,174.371 C159.99,174.319 159.94000000000005,174.28 159.91000000000008,174.254 C159.8800000000001,174.228 159.8599999999999,174.207 159.83999999999992,174.192 C159.81999999999994,174.176 159.78999999999996,174.145 159.72000000000003,174.098 C159.66000000000008,174.051 159.6099999999999,174.017 159.56999999999994,173.996 C159.47000000000003,173.944 159.3699999999999,173.918 159.25,173.918 C159.04999999999995,173.918 158.8599999999999,174.007 158.71000000000004,174.184 L158.19000000000005,174.809" />
<path d="M56.3900000000001,198.153 C56.17000000000007,198.153 55.930000000000064,198.002 55.67000000000007,197.7 C55.319999999999936,197.314 55.039999999999964,197.017 54.809999999999945,196.809 C54.5,196.496 54.15000000000009,196.34 53.75999999999999,196.34 C53.40000000000009,196.34 53.07999999999993,196.45 52.819999999999936,196.668 L52.319999999999936,197.293 C52.25,197.377 52.17000000000007,197.418 52.08999999999992,197.418 C52.00999999999999,197.418 51.930000000000064,197.384 51.86999999999989,197.317 C51.809999999999945,197.249 51.77999999999997,197.176 51.77999999999997,197.098 C51.77999999999997,197.02 51.799999999999955,196.955 51.8599999999999,196.903 L53.98000000000002,194.325 C54.07999999999993,194.179 54.22000000000003,194.106 54.3900000000001,194.106 C54.61999999999989,194.106 54.8599999999999,194.257 55.11999999999989,194.559 C55.450000000000045,194.955 55.74000000000001,195.262 55.98000000000002,195.481 C56.299999999999955,195.783 56.65000000000009,195.934 57.00999999999999,195.934 C57.38000000000011,195.934 57.690000000000055,195.819 57.950000000000045,195.59 L58.450000000000045,194.965 C58.51999999999998,194.892 58.59999999999991,194.856 58.680000000000064,194.856 C58.77999999999997,194.856 58.84999999999991,194.882 58.90000000000009,194.934 C58.960000000000036,194.996 59.0,195.075 59.0,195.168 C59.0,195.262 58.97000000000003,195.335 58.92000000000007,195.387 L56.789999999999964,197.934 C56.680000000000064,198.08 56.539999999999964,198.153 56.3900000000001,198.153" />
<path d="M56.3900000000001,193.153 C56.17000000000007,193.153 55.930000000000064,193.002 55.67000000000007,192.7 C55.319999999999936,192.314 55.039999999999964,192.017 54.809999999999945,191.809 C54.5,191.496 54.15000000000009,191.34 53.75999999999999,191.34 C53.40000000000009,191.34 53.07999999999993,191.45 52.819999999999936,191.668 L52.319999999999936,192.293 C52.25,192.377 52.17000000000007,192.418 52.08999999999992,192.418 C52.00999999999999,192.418 51.930000000000064,192.384 51.86999999999989,192.317 C51.809999999999945,192.249 51.77999999999997,192.176 51.77999999999997,192.098 C51.77999999999997,192.02 51.799999999999955,191.955 51.8599999999999,191.903 L53.98000000000002,189.325 C54.07999999999993,189.179 54.22000000000003,189.106 54.3900000000001,189.106 C54.61999999999989,189.106 54.8599999999999,189.257 55.11999999999989,189.559 C55.450000000000045,189.955 55.74000000000001,190.262 55.98000000000002,190.481 C56.299999999999955,190.783 56.65000000000009,190.934 57.00999999999999,190.934 C57.38000000000011,190.934 57.690000000000055,190.819 57.950000000000045,190.59 L58.450000000000045,189.965 C58.51999999999998,189.892 58.59999999999991,189.856 58.680000000000064,189.856 C58.77999999999997,189.856 58.84999999999991,189.882 58.90000000000009,189.934 C58.960000000000036,189.996 59.0,190.075 59.0,190.168 C59.0,190.262 58.97000000000003,190.335 58.92000000000007,190.387 L56.789999999999964,192.934 C56.680000000000064,193.08 56.539999999999964,193.153 56.3900000000001,193.153" />
<path d="M56.3900000000001,188.153 C56.17000000000007,188.153 55.930000000000064,188.002 55.67000000000007,187.7 C55.319999999999936,187.314 55.039999999999964,187.017 54.809999999999945,186.809 C54.5,186.496 54.15000000000009,186.34 53.75999999999999,186.34 C53.40000000000009,186.34 53.07999999999993,186.45 52.819999999999936,186.668 L52.319999999999936,187.293 C52.25,187.377 52.17000000000007,187.418 52.08999999999992,187.418 C52.00999999999999,187.418 51.930000000000064,187.384 51.86999999999989,187.317 C51.809999999999945,187.249 51.77999999999997,187.176 51.77999999999997,187.098 C51.77999999999997,187.02 51.799999999999955,186.955 51.8599999999999,186.903 L53.98000000000002,184.325 C54.07999999999993,184.179 54.22000000000003,184.106 54.3900000000001,184.106 C54.61999999999989,184.106 54.8599999999999,184.257 55.11999999999989,184.559 C55.450000000000045,184.955 55.74000000000001,185.262 55.98000000000002,185.481 C56.299999999999955,185.783 56.65000000000009,185.934 57.00999999999999,185.934 C57.38000000000011,185.934 57.690000000000055,185.819 57.950000000000045,185.59 L58.450000000000045,184.965 C58.51999999999998,184.892 58.59999999999991,184.856 58.680000000000064,184.856 C58.77999999999997,184.856 58.84999999999991,184.882 58.90000000000009,184.934 C58.960000000000036,184.996 59.0,185.075 59.0,185.168 C59.0,185.262 58.97000000000003,185.335 58.92000000000007,185.387 L56.789999999999964,187.934 C56.680000000000064,188.08 56.539999999999964,188.153 56.3900000000001,188.153" />
<path d="M56.3900000000001,183.153 C56.17000000000007,183.153 55.930000000000064,183.002 55.67000000000007,182.7 C55.319999999999936,182.314 55.039999999999964,182.017 54.809999999999945,181.809 C54.5,181.496 54.15000000000009,181.34 53.75999999999999,181.34 C53.40000000000009,181.34 53.07999999999993,181.45 52.819999999999936,181.668 L52.319999999999936,182.293 C52.25,182.377 52.17000000000007,182.418 52.08999999999992,182.418 C52.00999999999999,182.418 51.930000000000064,182.384 51.86999999999989,182.317 C51.809999999999945,182.249 51.77999999999997,182.176 51.77999999999997,182.098 C51.77999999999997,182.02 51.799999999999955,181.955 51.8599999999999,181.903 L53.98000000000002,179.325 C54.07999999999993,179.179 54.22000000000003,179.106 54.3900000000001,179.106 C54.61999999999989,179.106 54.8599999999999,179.257 55.11999999999989,179.559 C55.450000000000045,179.955 55.74000000000001,180.262 55.98000000000002,180.481 C56.299999999999955,180.783 56.65000000000009,180.934 57.00999999999999,180.934 C57.38000000000011,180.934 57.690000000000055,180.819 57.950000000000045,180.59 L58.450000000000045,179.965 C58.51999999999998,179.892 58.59999999999991,179.856 58.680000000000064,179.856 C58.77999999999997,179.856 58.84999999999991,179.882 58.90000000000009,179.934 C58.960000000000036,179.996 59.0,180.075 59.0,180.168 C59.0,180.262 58.97000000000003,180.335 58.92000000000007,180.387 L56.789999999999964,182.934 C56.680000000000064,183.08 56.539999999999964,183.153 56.3900000000001,183.153" />
<path d="M56.3900000000001,178.153 C56.17000000000007,178.153 55.930000000000064,178.002 55.67000000000007,177.7 C55.319999999999936,177.314 55.039999999999964,177.017 54.809999999999945,176.809 C54.5,176.496 54.15000000000009,176.34 53.75999999999999,176.34 C53.40000000000009,176.34 53.07999999999993,176.45 52.819999999999936,176.668 L52.319999999999936,177.293 C52.25,177.377 52.17000000000007,177.418 52.08999999999992,177.418 C52.00999999999999,177.418 51.930000000000064,177.384 51.86999999999989,177.317 C51.809999999999945,177.249 51.77999999999997,177.176 51.77999999999997,177.098 C51.77999999999997,177.02 51.799999999999955,176.955 51.8599999999999,176.903 L53.98000000000002,174.325 C54.07999999999993,174.179 54.22000000000003,174.106 54.3900000000001,174.106 C54.61999999999989,174.106 54.8599999999999,174.257 55.11999999999989,174.559 C55.450000000000045,174.955 55.74000000000001,175.262 55.98000000000002,175.481 C56.299999999999955,175.783 56.65000000000009,175.934 57.00999999999999,175.934 C57.38000000000011,175.934 57.690000000000055,175.819 57.950000000000045,175.59 L58.450000000000045,174.965 C58.51999999999998,174.892 58.59999999999991,174.856 58.680000000000064,174.856 C58.77999999999997,174.856 58.84999999999991,174.882 58.90000000000009,174.934 C58.960000000000036,174.996 59.0,175.075 59.0,175.168 C59.0,175.262 58.97000000000003,175.335 58.92000000000007,175.387 L56.789999999999964,177.934 C56.680000000000064,178.08 56.539999999999964,178.153 56.3900000000001,178.153" />
<path d="M52.3599999999999,172.309 C52.27999999999997,172.392 52.190000000000055,172.434 52.08999999999992,172.434 C52.0,172.434 51.92000000000007,172.392 51.8599999999999,172.309 C51.799999999999955,172.257 51.77999999999997,172.192 51.77999999999997,172.114 C51.77999999999997,172.036 51.809999999999945,171.96 51.8900000000001,171.887 L53.73000000000002,170.168 C53.930000000000064,169.97 54.200000000000045,169.84 54.539999999999964,169.778 L53.809999999999945,168.215 C53.76999999999998,168.153 53.75,168.101 53.75999999999999,168.059 C53.75999999999999,167.976 53.809999999999945,167.934 53.92000000000007,167.934 C54.0,167.934 54.24000000000001,168.142 54.61999999999989,168.559 C55.01999999999998,168.976 55.52999999999997,169.444 56.15000000000009,169.965 C56.76999999999998,170.507 57.33999999999992,170.861 57.86999999999989,171.028 C57.8900000000001,171.028 57.90000000000009,171.064 57.90000000000009,171.137 C57.90000000000009,171.189 57.8900000000001,171.231 57.86999999999989,171.262 C57.33999999999992,171.429 56.76999999999998,171.778 56.15000000000009,172.309 C55.52999999999997,172.83 55.01999999999998,173.304 54.61999999999989,173.731 C54.24000000000001,174.147 54.0,174.356 53.92000000000007,174.356 C53.82999999999993,174.356 53.77999999999997,174.33 53.75999999999999,174.278 C53.75999999999999,174.246 53.77999999999997,174.179 53.809999999999945,174.075 L54.67000000000007,172.231 C54.66000000000008,172.22 54.63000000000011,172.202 54.58999999999992,172.176 C54.549999999999955,172.15 54.50999999999999,172.121 54.47000000000003,172.09 C54.440000000000055,172.059 54.40000000000009,172.028 54.3599999999999,171.996 C54.309999999999945,171.965 54.25999999999999,171.924 54.210000000000036,171.871 C54.15000000000009,171.819 54.1099999999999,171.78 54.069999999999936,171.754 C54.039999999999964,171.728 54.01999999999998,171.707 54.0,171.692 C53.99000000000001,171.676 53.950000000000045,171.645 53.8900000000001,171.598 C53.819999999999936,171.551 53.76999999999998,171.517 53.73000000000002,171.496 C53.6400000000001,171.444 53.52999999999997,171.418 53.42000000000007,171.418 C53.210000000000036,171.418 53.02999999999997,171.507 52.86999999999989,171.684 L52.3599999999999,172.309" />
<path d="M165.6400000000001,235.018 L165.6400000000001,236.565 C165.6400000000001,237.117 165.66000000000008,237.555 165.71000000000004,237.878 C166.1400000000001,237.513 166.45000000000005,237.242 166.6400000000001,237.065 C166.83999999999992,236.857 167.04999999999995,236.568 167.26,236.198 C167.47000000000003,235.828 167.56999999999994,235.461 167.56999999999994,235.096 C167.56999999999994,234.732 167.5,234.419 167.33999999999992,234.159 C167.18000000000006,233.899 166.98000000000002,233.768 166.71000000000004,233.768 C166.4000000000001,233.768 166.1400000000001,233.888 165.93000000000006,234.128 C165.74,234.388 165.6400000000001,234.685 165.6400000000001,235.018 M164.80999999999995,238.596 L164.55999999999995,226.706 C164.75,226.602 164.93000000000006,226.55 165.1099999999999,226.55 C165.29999999999995,226.55 165.48000000000002,226.602 165.6500000000001,226.706 L165.5,233.596 C166.02999999999997,233.138 166.6400000000001,232.909 167.33999999999992,232.909 C167.83999999999992,232.909 168.26,233.117 168.5999999999999,233.534 C168.94000000000005,233.951 169.1099999999999,234.43 169.1099999999999,234.971 C169.1099999999999,235.305 169.0,235.664 168.77999999999997,236.05 C168.56999999999994,236.393 168.3499999999999,236.664 168.1199999999999,236.862 C167.99,236.966 167.6500000000001,237.227 167.1199999999999,237.643 C166.96000000000004,237.758 166.77999999999997,237.893 166.56999999999994,238.05 C166.3499999999999,238.206 166.22000000000003,238.305 166.17000000000007,238.346 C166.06999999999994,238.399 165.99,238.503 165.9000000000001,238.659 C165.81999999999994,238.794 165.71000000000004,238.904 165.58999999999992,238.987 C165.51,239.07 165.4000000000001,239.112 165.26999999999998,239.112 C165.1400000000001,239.112 165.02999999999997,239.065 164.95000000000005,238.971 C164.8599999999999,238.878 164.80999999999995,238.753 164.80999999999995,238.596" />
<path d="M164.46000000000004,177.518 L164.46000000000004,179.065 C164.46000000000004,179.617 164.48000000000002,180.055 164.52999999999997,180.378 C164.96000000000004,180.013 165.26999999999998,179.742 165.46000000000004,179.565 C165.66000000000008,179.357 165.8699999999999,179.068 166.07999999999993,178.698 C166.28999999999996,178.328 166.3900000000001,177.961 166.3900000000001,177.596 C166.3900000000001,177.232 166.31999999999994,176.919 166.16000000000008,176.659 C166.0,176.399 165.78999999999996,176.268 165.52999999999997,176.268 C165.22000000000003,176.268 164.96000000000004,176.388 164.75,176.628 C164.55999999999995,176.888 164.46000000000004,177.185 164.46000000000004,177.518 M163.6300000000001,181.096 L163.3800000000001,169.206 C163.56999999999994,169.102 163.75,169.05 163.93000000000006,169.05 C164.1099999999999,169.05 164.28999999999996,169.102 164.47000000000003,169.206 L164.31999999999994,176.096 C164.8499999999999,175.638 165.46000000000004,175.409 166.16000000000008,175.409 C166.66000000000008,175.409 167.07999999999993,175.617 167.42000000000007,176.034 C167.76,176.451 167.92000000000007,176.93 167.92000000000007,177.471 C167.92000000000007,177.805 167.81999999999994,178.164 167.5999999999999,178.55 C167.3900000000001,178.893 167.17000000000007,179.164 166.94000000000005,179.362 C166.80999999999995,179.466 166.47000000000003,179.727 165.94000000000005,180.143 C165.77999999999997,180.258 165.5999999999999,180.393 165.3900000000001,180.55 C165.17000000000007,180.706 165.03999999999996,180.805 164.99,180.846 C164.8900000000001,180.899 164.80999999999995,181.003 164.72000000000003,181.159 C164.6400000000001,181.294 164.52999999999997,181.404 164.41000000000008,181.487 C164.32999999999993,181.57 164.22000000000003,181.612 164.08999999999992,181.612 C163.96000000000004,181.612 163.8499999999999,181.565 163.76999999999998,181.471 C163.67000000000007,181.378 163.6300000000001,181.253 163.6300000000001,181.096" />
<path d="M164.46000000000004,195.018 L164.46000000000004,196.565 C164.46000000000004,197.117 164.48000000000002,197.555 164.52999999999997,197.878 C164.96000000000004,197.513 165.26999999999998,197.242 165.46000000000004,197.065 C165.66000000000008,196.857 165.8699999999999,196.568 166.07999999999993,196.198 C166.28999999999996,195.828 166.3900000000001,195.461 166.3900000000001,195.096 C166.3900000000001,194.732 166.31999999999994,194.419 166.16000000000008,194.159 C166.0,193.899 165.78999999999996,193.768 165.52999999999997,193.768 C165.22000000000003,193.768 164.96000000000004,193.888 164.75,194.128 C164.55999999999995,194.388 164.46000000000004,194.685 164.46000000000004,195.018 M163.6300000000001,198.596 L163.3800000000001,186.706 C163.56999999999994,186.602 163.75,186.55 163.93000000000006,186.55 C164.1099999999999,186.55 164.28999999999996,186.602 164.47000000000003,186.706 L164.31999999999994,193.596 C164.8499999999999,193.138 165.46000000000004,192.909 166.16000000000008,192.909 C166.66000000000008,192.909 167.07999999999993,193.117 167.42000000000007,193.534 C167.76,193.951 167.92000000000007,194.43 167.92000000000007,194.971 C167.92000000000007,195.305 167.81999999999994,195.664 167.5999999999999,196.05 C167.3900000000001,196.393 167.17000000000007,196.664 166.94000000000005,196.862 C166.80999999999995,196.966 166.47000000000003,197.227 165.94000000000005,197.643 C165.77999999999997,197.758 165.5999999999999,197.893 165.3900000000001,198.05 C165.17000000000007,198.206 165.03999999999996,198.305 164.99,198.346 C164.8900000000001,198.399 164.80999999999995,198.503 164.72000000000003,198.659 C164.6400000000001,198.794 164.52999999999997,198.904 164.41000000000008,198.987 C164.32999999999993,199.07 164.22000000000003,199.112 164.08999999999992,199.112 C163.96000000000004,199.112 163.8499999999999,199.065 163.76999999999998,198.971 C163.67000000000007,198.878 163.6300000000001,198.753 163.6300000000001,198.596" />
<path d="M102.43000000000006,87.5183 L102.43000000000006,89.0652 C102.43000000000006,89.6173 102.45000000000005,90.0548 102.50999999999999,90.3777 C102.93000000000006,90.0131 103.24000000000001,89.7423 103.43000000000006,89.5652 C103.6400000000001,89.3569 103.83999999999992,89.0678 104.04999999999995,88.698 C104.25999999999999,88.3282 104.36999999999989,87.961 104.36999999999989,87.5965 C104.36999999999989,87.2319 104.28999999999996,86.9194 104.13000000000011,86.659 C103.98000000000002,86.3985 103.76999999999998,86.2683 103.50999999999999,86.2683 C103.19000000000005,86.2683 102.93000000000006,86.3881 102.73000000000002,86.6277 C102.52999999999997,86.8881 102.43000000000006,87.185 102.43000000000006,87.5183 M101.59999999999991,91.0965 L101.34999999999991,79.2058 C101.53999999999996,79.1017 101.72000000000003,79.0496 101.90000000000009,79.0496 C102.08999999999992,79.0496 102.26999999999998,79.1017 102.44000000000005,79.2058 L102.28999999999996,86.0965 C102.81999999999994,85.6381 103.43000000000006,85.409 104.13000000000011,85.409 C104.63000000000011,85.409 105.04999999999995,85.6173 105.3900000000001,86.034 C105.73000000000002,86.4506 105.90000000000009,86.9298 105.90000000000009,87.4715 C105.90000000000009,87.8048 105.78999999999996,88.1642 105.56999999999994,88.5496 C105.3599999999999,88.8933 105.1400000000001,89.1642 104.91000000000008,89.3621 C104.77999999999997,89.4662 104.44000000000005,89.7267 103.91000000000008,90.1433 C103.75999999999999,90.2579 103.56999999999994,90.3933 103.3599999999999,90.5496 C103.1400000000001,90.7058 103.00999999999999,90.8048 102.96000000000004,90.8465 C102.86999999999989,90.8985 102.77999999999997,91.0027 102.69000000000005,91.159 C102.6099999999999,91.2944 102.50999999999999,91.4037 102.38000000000011,91.4871 C102.29999999999995,91.5704 102.19000000000005,91.6121 102.05999999999995,91.6121 C101.93000000000006,91.6121 101.81999999999994,91.5652 101.74000000000001,91.4715 C101.65000000000009,91.3777 101.59999999999991,91.2527 101.59999999999991,91.0965" />
<path d="M103.43000000000006,65.0183 L103.43000000000006,66.5652 C103.43000000000006,67.1173 103.45000000000005,67.5548 103.50999999999999,67.8777 C103.93000000000006,67.5131 104.24000000000001,67.2423 104.43000000000006,67.0652 C104.6400000000001,66.8569 104.83999999999992,66.5678 105.04999999999995,66.198 C105.25999999999999,65.8282 105.36999999999989,65.461 105.36999999999989,65.0965 C105.36999999999989,64.7319 105.28999999999996,64.4194 105.13000000000011,64.159 C104.98000000000002,63.8985 104.76999999999998,63.7683 104.50999999999999,63.7683 C104.19000000000005,63.7683 103.93000000000006,63.8881 103.73000000000002,64.1277 C103.52999999999997,64.3881 103.43000000000006,64.685 103.43000000000006,65.0183 M102.59999999999991,68.5965 L102.34999999999991,56.7058 C102.53999999999996,56.6017 102.72000000000003,56.5496 102.90000000000009,56.5496 C103.08999999999992,56.5496 103.26999999999998,56.6017 103.44000000000005,56.7058 L103.28999999999996,63.5965 C103.81999999999994,63.1381 104.43000000000006,62.909 105.13000000000011,62.909 C105.63000000000011,62.909 106.04999999999995,63.1173 106.3900000000001,63.534 C106.73000000000002,63.9506 106.90000000000009,64.4298 106.90000000000009,64.9715 C106.90000000000009,65.3048 106.78999999999996,65.6642 106.56999999999994,66.0496 C106.3599999999999,66.3933 106.1400000000001,66.6642 105.91000000000008,66.8621 C105.77999999999997,66.9662 105.44000000000005,67.2267 104.91000000000008,67.6433 C104.75999999999999,67.7579 104.56999999999994,67.8933 104.3599999999999,68.0496 C104.1400000000001,68.2058 104.00999999999999,68.3048 103.96000000000004,68.3465 C103.86999999999989,68.3985 103.77999999999997,68.5027 103.69000000000005,68.659 C103.6099999999999,68.7944 103.50999999999999,68.9037 103.38000000000011,68.9871 C103.29999999999995,69.0704 103.19000000000005,69.1121 103.05999999999995,69.1121 C102.93000000000006,69.1121 102.81999999999994,69.0652 102.74000000000001,68.9715 C102.65000000000009,68.8777 102.59999999999991,68.7527 102.59999999999991,68.5965" />
<path d="M58.61999999999989,170.018 L58.61999999999989,171.565 C58.61999999999989,172.117 58.65000000000009,172.555 58.700000000000045,172.878 C59.11999999999989,172.513 59.430000000000064,172.242 59.61999999999989,172.065 C59.82999999999993,171.857 60.039999999999964,171.568 60.24000000000001,171.198 C60.450000000000045,170.828 60.559999999999945,170.461 60.559999999999945,170.096 C60.559999999999945,169.732 60.48000000000002,169.419 60.319999999999936,169.159 C60.17000000000007,168.899 59.960000000000036,168.768 59.700000000000045,168.768 C59.38000000000011,168.768 59.11999999999989,168.888 58.92000000000007,169.128 C58.72000000000003,169.388 58.61999999999989,169.685 58.61999999999989,170.018 M57.789999999999964,173.596 L57.539999999999964,161.706 C57.73000000000002,161.602 57.91000000000008,161.55 58.09999999999991,161.55 C58.27999999999997,161.55 58.460000000000036,161.602 58.63000000000011,161.706 L58.48000000000002,168.596 C59.00999999999999,168.138 59.61999999999989,167.909 60.319999999999936,167.909 C60.819999999999936,167.909 61.24000000000001,168.117 61.57999999999993,168.534 C61.92000000000007,168.951 62.08999999999992,169.43 62.08999999999992,169.971 C62.08999999999992,170.305 61.98000000000002,170.664 61.75999999999999,171.05 C61.549999999999955,171.393 61.32999999999993,171.664 61.09999999999991,171.862 C60.97000000000003,171.966 60.63000000000011,172.227 60.09999999999991,172.643 C59.950000000000045,172.758 59.75999999999999,172.893 59.549999999999955,173.05 C59.33999999999992,173.206 59.200000000000045,173.305 59.15000000000009,173.346 C59.059999999999945,173.399 58.97000000000003,173.503 58.88000000000011,173.659 C58.799999999999955,173.794 58.700000000000045,173.904 58.569999999999936,173.987 C58.49000000000001,174.07 58.38000000000011,174.112 58.25,174.112 C58.11999999999989,174.112 58.01999999999998,174.065 57.930000000000064,173.971 C57.83999999999992,173.878 57.789999999999964,173.753 57.789999999999964,173.596" />
<path d="M251.73000000000002,233.096 C252.3499999999999,233.096 252.8800000000001,233.258 253.31999999999994,233.581 C253.71000000000004,233.935 253.91000000000008,234.378 253.91000000000008,234.909 C253.91000000000008,235.805 253.45000000000005,236.643 252.53999999999996,237.425 C251.5999999999999,238.206 250.58999999999992,238.596 249.51999999999998,238.596 C248.9000000000001,238.596 248.3699999999999,238.435 247.94000000000005,238.112 C247.53999999999996,237.758 247.32999999999993,237.315 247.32999999999993,236.784 C247.32999999999993,235.888 247.79999999999995,235.05 248.74,234.268 C249.66000000000008,233.487 250.6500000000001,233.096 251.73000000000002,233.096" />
<path d="M235.5,223.096 C236.1199999999999,223.096 236.6500000000001,223.258 237.08999999999992,223.581 C237.49,223.935 237.68000000000006,224.378 237.68000000000006,224.909 C237.68000000000006,225.805 237.23000000000002,226.643 236.30999999999995,227.425 C235.3699999999999,228.206 234.3699999999999,228.596 233.28999999999996,228.596 C232.67000000000007,228.596 232.1400000000001,228.435 231.72000000000003,228.112 C231.30999999999995,227.758 231.1099999999999,227.315 231.1099999999999,226.784 C231.1099999999999,225.888 231.56999999999994,225.05 232.51,224.268 C233.43000000000006,223.487 234.42000000000007,223.096 235.5,223.096" />
<path d="M219.26999999999998,233.096 C219.8900000000001,233.096 220.42000000000007,233.258 220.8599999999999,233.581 C221.26,233.935 221.46000000000004,234.378 221.46000000000004,234.909 C221.46000000000004,235.805 221.0,236.643 220.07999999999993,237.425 C219.1400000000001,238.206 218.1400000000001,238.596 217.05999999999995,238.596 C216.44000000000005,238.596 215.91000000000008,238.435 215.49,238.112 C215.07999999999993,237.758 214.8800000000001,237.315 214.8800000000001,236.784 C214.8800000000001,235.888 215.3499999999999,235.05 216.27999999999997,234.268 C217.20000000000005,233.487 218.20000000000005,233.096 219.26999999999998,233.096" />
<path d="M196.95000000000005,233.096 C197.57999999999993,233.096 198.1099999999999,233.258 198.54999999999995,233.581 C198.94000000000005,233.935 199.1400000000001,234.378 199.1400000000001,234.909 C199.1400000000001,235.805 198.68000000000006,236.643 197.76999999999998,237.425 C196.82999999999993,238.206 195.81999999999994,238.596 194.75,238.596 C194.1300000000001,238.596 193.5999999999999,238.435 193.17000000000007,238.112 C192.76999999999998,237.758 192.55999999999995,237.315 192.55999999999995,236.784 C192.55999999999995,235.888 193.02999999999997,235.05 193.97000000000003,234.268 C194.8900000000001,233.487 195.8800000000001,233.096 196.95000000000005,233.096" />
<path d="M174.6400000000001,233.096 C175.26,233.096 175.79999999999995,233.258 176.23000000000002,233.581 C176.6300000000001,233.935 176.82999999999993,234.378 176.82999999999993,234.909 C176.82999999999993,235.805 176.3699999999999,236.643 175.45000000000005,237.425 C174.51,238.206 173.51,238.596 172.44000000000005,238.596 C171.80999999999995,238.596 171.28999999999996,238.435 170.8599999999999,238.112 C170.45000000000005,237.758 170.25,237.315 170.25,236.784 C170.25,235.888 170.72000000000003,235.05 171.66000000000008,234.268 C172.56999999999994,233.487 173.56999999999994,233.096 174.6400000000001,233.096" />
<path d="M176.3800000000001,172.034 C176.3800000000001,171.815 176.29999999999995,171.628 176.1300000000001,171.471 C175.95000000000005,171.305 175.76,171.221 175.53999999999996,171.221 C175.1500000000001,171.221 174.3699999999999,171.612 173.18000000000006,172.393 C171.95000000000005,173.185 171.20000000000005,173.753 170.93000000000006,174.096 C170.77999999999997,174.274 170.71000000000004,174.461 170.71000000000004,174.659 C170.71000000000004,174.878 170.79999999999995,175.065 170.97000000000003,175.221 C171.1300000000001,175.388 171.31999999999994,175.471 171.54999999999995,175.471 C171.93000000000006,175.471 172.72000000000003,175.081 173.94000000000005,174.3 C175.1400000000001,173.518 175.8800000000001,172.951 176.16000000000008,172.596 C176.30999999999995,172.43 176.3800000000001,172.242 176.3800000000001,172.034 M175.3499999999999,170.596 C176.46000000000004,170.596 177.01999999999998,171.076 177.01999999999998,172.034 C177.01999999999998,172.503 176.8900000000001,173.05 176.6199999999999,173.675 C176.33999999999992,174.289 175.98000000000002,174.758 175.51999999999998,175.081 C174.51999999999998,175.758 173.26999999999998,176.096 171.76,176.096 C170.6300000000001,176.096 170.06999999999994,175.617 170.06999999999994,174.659 C170.06999999999994,174.232 170.20000000000005,173.69 170.47000000000003,173.034 C170.74,172.409 171.0999999999999,171.935 171.56999999999994,171.612 C172.57999999999993,170.935 173.83999999999992,170.596 175.3499999999999,170.596" />
<path d="M176.3800000000001,177.034 C176.3800000000001,176.815 176.29999999999995,176.628 176.1300000000001,176.471 C175.95000000000005,176.305 175.76,176.221 175.53999999999996,176.221 C175.1500000000001,176.221 174.3699999999999,176.612 173.18000000000006,177.393 C171.95000000000005,178.185 171.20000000000005,178.753 170.93000000000006,179.096 C170.77999999999997,179.274 170.71000000000004,179.461 170.71000000000004,179.659 C170.71000000000004,179.878 170.79999999999995,180.065 170.97000000000003,180.221 C171.1300000000001,180.388 171.31999999999994,180.471 171.54999999999995,180.471 C171.93000000000006,180.471 172.72000000000003,180.081 173.94000000000005,179.3 C175.1400000000001,178.518 175.8800000000001,177.951 176.16000000000008,177.596 C176.30999999999995,177.43 176.3800000000001,177.242 176.3800000000001,177.034 M175.3499999999999,175.596 C176.46000000000004,175.596 177.01999999999998,176.076 177.01999999999998,177.034 C177.01999999999998,177.503 176.8900000000001,178.05 176.6199999999999,178.675 C176.33999999999992,179.289 175.98000000000002,179.758 175.51999999999998,180.081 C174.51999999999998,180.758 173.26999999999998,181.096 171.76,181.096 C170.6300000000001,181.096 170.06999999999994,180.617 170.06999999999994,179.659 C170.06999999999994,179.232 170.20000000000005,178.69 170.47000000000003,178.034 C170.74,177.409 171.0999999999999,176.935 171.56999999999994,176.612 C172.57999999999993,175.935 173.83999999999992,175.596 175.3499999999999,175.596" />
<path d="M176.3800000000001,184.534 C176.3800000000001,184.315 176.29999999999995,184.128 176.1300000000001,183.971 C175.95000000000005,183.805 175.76,183.721 175.53999999999996,183.721 C175.1500000000001,183.721 174.3699999999999,184.112 173.18000000000006,184.893 C171.95000000000005,185.685 171.20000000000005,186.253 170.93000000000006,186.596 C170.77999999999997,186.774 170.71000000000004,186.961 170.71000000000004,187.159 C170.71000000000004,187.378 170.79999999999995,187.565 170.97000000000003,187.721 C171.1300000000001,187.888 171.31999999999994,187.971 171.54999999999995,187.971 C171.93000000000006,187.971 172.72000000000003,187.581 173.94000000000005,186.8 C175.1400000000001,186.018 175.8800000000001,185.451 176.16000000000008,185.096 C176.30999999999995,184.93 176.3800000000001,184.742 176.3800000000001,184.534 M175.3499999999999,183.096 C176.46000000000004,183.096 177.01999999999998,183.576 177.01999999999998,184.534 C177.01999999999998,185.003 176.8900000000001,185.55 176.6199999999999,186.175 C176.33999999999992,186.789 175.98000000000002,187.258 175.51999999999998,187.581 C174.51999999999998,188.258 173.26999999999998,188.596 171.76,188.596 C170.6300000000001,188.596 170.06999999999994,188.117 170.06999999999994,187.159 C170.06999999999994,186.732 170.20000000000005,186.19 170.47000000000003,185.534 C170.74,184.909 171.0999999999999,184.435 171.56999999999994,184.112 C172.57999999999993,183.435 173.83999999999992,183.096 175.3499999999999,183.096" />
<path d="M176.3800000000001,194.534 C176.3800000000001,194.315 176.29999999999995,194.128 176.1300000000001,193.971 C175.95000000000005,193.805 175.76,193.721 175.53999999999996,193.721 C175.1500000000001,193.721 174.3699999999999,194.112 173.18000000000006,194.893 C171.95000000000005,195.685 171.20000000000005,196.253 170.93000000000006,196.596 C170.77999999999997,196.774 170.71000000000004,196.961 170.71000000000004,197.159 C170.71000000000004,197.378 170.79999999999995,197.565 170.97000000000003,197.721 C171.1300000000001,197.888 171.31999999999994,197.971 171.54999999999995,197.971 C171.93000000000006,197.971 172.72000000000003,197.581 173.94000000000005,196.8 C175.1400000000001,196.018 175.8800000000001,195.451 176.16000000000008,195.096 C176.30999999999995,194.93 176.3800000000001,194.742 176.3800000000001,194.534 M175.3499999999999,193.096 C176.46000000000004,193.096 177.01999999999998,193.576 177.01999999999998,194.534 C177.01999999999998,195.003 176.8900000000001,195.55 176.6199999999999,196.175 C176.33999999999992,196.789 175.98000000000002,197.258 175.51999999999998,197.581 C174.51999999999998,198.258 173.26999999999998,198.596 171.76,198.596 C170.6300000000001,198.596 170.06999999999994,198.117 170.06999999999994,197.159 C170.06999999999994,196.732 170.20000000000005,196.19 170.47000000000003,195.534 C170.74,194.909 171.0999999999999,194.435 171.56999999999994,194.112 C172.57999999999993,193.435 173.83999999999992,193.096 175.3499999999999,193.096" />
<path d="M152.32999999999993,230.596 C152.95000000000005,230.596 153.48000000000002,230.758 153.92000000000007,231.081 C154.31999999999994,231.435 154.51,231.878 154.51,232.409 C154.51,233.305 154.04999999999995,234.143 153.1400000000001,234.925 C152.20000000000005,235.706 151.20000000000005,236.096 150.1199999999999,236.096 C149.5,236.096 148.97000000000003,235.935 148.53999999999996,235.612 C148.1400000000001,235.258 147.93000000000006,234.815 147.93000000000006,234.284 C147.93000000000006,233.388 148.4000000000001,232.55 149.33999999999992,231.768 C150.26,230.987 151.25,230.596 152.32999999999993,230.596" />
<path d="M136.0999999999999,85.5965 C136.72000000000003,85.5965 137.25,85.7579 137.69000000000005,86.0808 C138.08999999999992,86.435 138.27999999999997,86.8777 138.27999999999997,87.409 C138.27999999999997,88.3048 137.82999999999993,89.1433 136.91000000000008,89.9246 C135.97000000000003,90.7058 134.97000000000003,91.0965 133.8900000000001,91.0965 C133.26999999999998,91.0965 132.74,90.935 132.31999999999994,90.6121 C131.91000000000008,90.2579 131.71000000000004,89.8152 131.71000000000004,89.284 C131.71000000000004,88.3881 132.18000000000006,87.5496 133.1099999999999,86.7683 C134.02999999999997,85.9871 135.01999999999998,85.5965 136.0999999999999,85.5965" />
<path d="M136.0999999999999,63.0965 C136.72000000000003,63.0965 137.25,63.2579 137.69000000000005,63.5808 C138.08999999999992,63.935 138.27999999999997,64.3777 138.27999999999997,64.909 C138.27999999999997,65.8048 137.82999999999993,66.6433 136.91000000000008,67.4246 C135.97000000000003,68.2058 134.97000000000003,68.5965 133.8900000000001,68.5965 C133.26999999999998,68.5965 132.74,68.435 132.31999999999994,68.1121 C131.91000000000008,67.7579 131.71000000000004,67.3152 131.71000000000004,66.784 C131.71000000000004,65.8881 132.18000000000006,65.0496 133.1099999999999,64.2683 C134.02999999999997,63.4871 135.01999999999998,63.0965 136.0999999999999,63.0965" />
<path d="M124.25999999999999,83.0965 C124.8900000000001,83.0965 125.42000000000007,83.2579 125.8599999999999,83.5808 C126.25,83.935 126.45000000000005,84.3777 126.45000000000005,84.909 C126.45000000000005,85.8048 125.99000000000001,86.6433 125.07999999999993,87.4246 C124.1400000000001,88.2058 123.13000000000011,88.5965 122.05999999999995,88.5965 C121.44000000000005,88.5965 120.91000000000008,88.435 120.48000000000002,88.1121 C120.07999999999993,87.7579 119.86999999999989,87.3152 119.86999999999989,86.784 C119.86999999999989,85.8881 120.33999999999992,85.0496 121.27999999999997,84.2683 C122.20000000000005,83.4871 123.19000000000005,83.0965 124.25999999999999,83.0965" />
<path d="M124.25999999999999,60.5965 C124.8900000000001,60.5965 125.42000000000007,60.7579 125.8599999999999,61.0808 C126.25,61.435 126.45000000000005,61.8777 126.45000000000005,62.409 C126.45000000000005,63.3048 125.99000000000001,64.1433 125.07999999999993,64.9246 C124.1400000000001,65.7058 123.13000000000011,66.0965 122.05999999999995,66.0965 C121.44000000000005,66.0965 120.91000000000008,65.935 120.48000000000002,65.6121 C120.07999999999993,65.2579 119.86999999999989,64.8152 119.86999999999989,64.284 C119.86999999999989,63.3881 120.33999999999992,62.5496 121.27999999999997,61.7683 C122.20000000000005,60.9871 123.19000000000005,60.5965 124.25999999999999,60.5965" />
<path d="M112.43000000000006,230.596 C113.05999999999995,230.596 113.58999999999992,230.758 114.02999999999997,231.081 C114.42000000000007,231.435 114.61999999999989,231.878 114.61999999999989,232.409 C114.61999999999989,233.305 114.16000000000008,234.143 113.24000000000001,234.925 C112.30999999999995,235.706 111.29999999999995,236.096 110.23000000000002,236.096 C109.59999999999991,236.096 109.07999999999993,235.935 108.65000000000009,235.612 C108.24000000000001,235.258 108.03999999999996,234.815 108.03999999999996,234.284 C108.03999999999996,233.388 108.50999999999999,232.55 109.45000000000005,231.768 C110.3599999999999,230.987 111.3599999999999,230.596 112.43000000000006,230.596" />
<path d="M112.43000000000006,85.5965 C113.05999999999995,85.5965 113.58999999999992,85.7579 114.02999999999997,86.0808 C114.42000000000007,86.435 114.61999999999989,86.8777 114.61999999999989,87.409 C114.61999999999989,88.3048 114.16000000000008,89.1433 113.24000000000001,89.9246 C112.30999999999995,90.7058 111.29999999999995,91.0965 110.23000000000002,91.0965 C109.59999999999991,91.0965 109.07999999999993,90.935 108.65000000000009,90.6121 C108.24000000000001,90.2579 108.03999999999996,89.8152 108.03999999999996,89.284 C108.03999999999996,88.3881 108.50999999999999,87.5496 109.45000000000005,86.7683 C110.3599999999999,85.9871 111.3599999999999,85.5965 112.43000000000006,85.5965" />
<path d="M112.43000000000006,63.0965 C113.05999999999995,63.0965 113.58999999999992,63.2579 114.02999999999997,63.5808 C114.42000000000007,63.935 114.61999999999989,64.3777 114.61999999999989,64.909 C114.61999999999989,65.8048 114.16000000000008,66.6433 113.24000000000001,67.4246 C112.30999999999995,68.2058 111.29999999999995,68.5965 110.23000000000002,68.5965 C109.59999999999991,68.5965 109.07999999999993,68.435 108.65000000000009,68.1121 C108.24000000000001,67.7579 108.03999999999996,67.3152 108.03999999999996,66.784 C108.03999999999996,65.8881 108.50999999999999,65.0496 109.45000000000005,64.2683 C110.3599999999999,63.4871 111.3599999999999,63.0965 112.43000000000006,63.0965" />
<path d="M90.11999999999989,230.596 C90.74000000000001,230.596 91.26999999999998,230.758 91.71000000000004,231.081 C92.1099999999999,231.435 92.29999999999995,231.878 92.29999999999995,232.409 C92.29999999999995,233.305 91.84999999999991,234.143 90.93000000000006,234.925 C89.99000000000001,235.706 88.99000000000001,236.096 87.91000000000008,236.096 C87.28999999999996,236.096 86.75999999999999,235.935 86.33999999999992,235.612 C85.93000000000006,235.258 85.73000000000002,234.815 85.73000000000002,234.284 C85.73000000000002,233.388 86.20000000000005,232.55 87.13000000000011,231.768 C88.04999999999995,230.987 89.03999999999996,230.596 90.11999999999989,230.596" />
<path d="M90.11999999999989,98.0965 C90.74000000000001,98.0965 91.26999999999998,98.2579 91.71000000000004,98.5808 C92.1099999999999,98.935 92.29999999999995,99.3777 92.29999999999995,99.909 C92.29999999999995,100.805 91.84999999999991,101.643 90.93000000000006,102.425 C89.99000000000001,103.206 88.99000000000001,103.596 87.91000000000008,103.596 C87.28999999999996,103.596 86.75999999999999,103.435 86.33999999999992,103.112 C85.93000000000006,102.758 85.73000000000002,102.315 85.73000000000002,101.784 C85.73000000000002,100.888 86.20000000000005,100.05 87.13000000000011,99.2683 C88.04999999999995,98.4871 89.03999999999996,98.0965 90.11999999999989,98.0965" />
<path d="M90.11999999999989,75.5965 C90.74000000000001,75.5965 91.26999999999998,75.7579 91.71000000000004,76.0808 C92.1099999999999,76.435 92.29999999999995,76.8777 92.29999999999995,77.409 C92.29999999999995,78.3048 91.84999999999991,79.1433 90.93000000000006,79.9246 C89.99000000000001,80.7058 88.99000000000001,81.0965 87.91000000000008,81.0965 C87.28999999999996,81.0965 86.75999999999999,80.935 86.33999999999992,80.6121 C85.93000000000006,80.2579 85.73000000000002,79.8152 85.73000000000002,79.284 C85.73000000000002,78.3881 86.20000000000005,77.5496 87.13000000000011,76.7683 C88.04999999999995,75.9871 89.03999999999996,75.5965 90.11999999999989,75.5965" />
<path d="M67.79999999999995,230.596 C68.43000000000006,230.596 68.96000000000004,230.758 69.40000000000009,231.081 C69.78999999999996,231.435 69.99000000000001,231.878 69.99000000000001,232.409 C69.99000000000001,233.305 69.52999999999997,234.143 68.61999999999989,234.925 C67.68000000000006,235.706 66.67000000000007,236.096 65.59999999999991,236.096 C64.97000000000003,236.096 64.45000000000005,235.935 64.01999999999998,235.612 C63.61999999999989,235.258 63.41000000000008,234.815 63.41000000000008,234.284 C63.41000000000008,233.388 63.88000000000011,232.55 64.81999999999994,231.768 C65.74000000000001,230.987 66.73000000000002,230.596 67.79999999999995,230.596" />
<path d="M75.83999999999992,169.534 C75.83999999999992,169.315 75.75,169.128 75.58999999999992,168.971 C75.41000000000008,168.805 75.21000000000004,168.721 74.99000000000001,168.721 C74.6099999999999,168.721 73.81999999999994,169.112 72.63000000000011,169.893 C71.41000000000008,170.685 70.66000000000008,171.253 70.38000000000011,171.596 C70.24000000000001,171.774 70.17000000000007,171.961 70.17000000000007,172.159 C70.17000000000007,172.378 70.25,172.565 70.43000000000006,172.721 C70.58999999999992,172.888 70.77999999999997,172.971 71.00999999999999,172.971 C71.38000000000011,172.971 72.18000000000006,172.581 73.40000000000009,171.8 C74.59999999999991,171.018 75.33999999999992,170.451 75.61999999999989,170.096 C75.76999999999998,169.93 75.83999999999992,169.742 75.83999999999992,169.534 M74.80999999999995,168.096 C75.92000000000007,168.096 76.48000000000002,168.576 76.48000000000002,169.534 C76.48000000000002,170.003 76.33999999999992,170.55 76.06999999999994,171.175 C75.79999999999995,171.789 75.44000000000005,172.258 74.98000000000002,172.581 C73.98000000000002,173.258 72.72000000000003,173.596 71.21000000000004,173.596 C70.08999999999992,173.596 69.52999999999997,173.117 69.52999999999997,172.159 C69.52999999999997,171.732 69.66000000000008,171.19 69.93000000000006,170.534 C70.19000000000005,169.909 70.55999999999995,169.435 71.02999999999997,169.112 C72.03999999999996,168.435 73.29999999999995,168.096 74.80999999999995,168.096" />
<path d="M69.53999999999996,169.534 C69.53999999999996,169.315 69.46000000000004,169.128 69.28999999999996,168.971 C69.11999999999989,168.805 68.92000000000007,168.721 68.70000000000005,168.721 C68.31999999999994,168.721 67.52999999999997,169.112 66.33999999999992,169.893 C65.1099999999999,170.685 64.3599999999999,171.253 64.08999999999992,171.596 C63.950000000000045,171.774 63.86999999999989,171.961 63.86999999999989,172.159 C63.86999999999989,172.378 63.960000000000036,172.565 64.1400000000001,172.721 C64.28999999999996,172.888 64.49000000000001,172.971 64.72000000000003,172.971 C65.08999999999992,172.971 65.8900000000001,172.581 67.1099999999999,171.8 C68.29999999999995,171.018 69.03999999999996,170.451 69.32999999999993,170.096 C69.47000000000003,169.93 69.53999999999996,169.742 69.53999999999996,169.534 M68.50999999999999,168.096 C69.63000000000011,168.096 70.18000000000006,168.576 70.18000000000006,169.534 C70.18000000000006,170.003 70.04999999999995,170.55 69.77999999999997,171.175 C69.50999999999999,171.789 69.1400000000001,172.258 68.68000000000006,172.581 C67.68000000000006,173.258 66.43000000000006,173.596 64.92000000000007,173.596 C63.789999999999964,173.596 63.23000000000002,173.117 63.23000000000002,172.159 C63.23000000000002,171.732 63.36999999999989,171.19 63.6400000000001,170.534 C63.90000000000009,169.909 64.25999999999999,169.435 64.73000000000002,169.112 C65.74000000000001,168.435 67.0,168.096 68.50999999999999,168.096" />
<path d="M69.53999999999996,174.534 C69.53999999999996,174.315 69.46000000000004,174.128 69.28999999999996,173.971 C69.11999999999989,173.805 68.92000000000007,173.721 68.70000000000005,173.721 C68.31999999999994,173.721 67.52999999999997,174.112 66.33999999999992,174.893 C65.1099999999999,175.685 64.3599999999999,176.253 64.08999999999992,176.596 C63.950000000000045,176.774 63.86999999999989,176.961 63.86999999999989,177.159 C63.86999999999989,177.378 63.960000000000036,177.565 64.1400000000001,177.721 C64.28999999999996,177.888 64.49000000000001,177.971 64.72000000000003,177.971 C65.08999999999992,177.971 65.8900000000001,177.581 67.1099999999999,176.8 C68.29999999999995,176.018 69.03999999999996,175.451 69.32999999999993,175.096 C69.47000000000003,174.93 69.53999999999996,174.742 69.53999999999996,174.534 M68.50999999999999,173.096 C69.63000000000011,173.096 70.18000000000006,173.576 70.18000000000006,174.534 C70.18000000000006,175.003 70.04999999999995,175.55 69.77999999999997,176.175 C69.50999999999999,176.789 69.1400000000001,177.258 68.68000000000006,177.581 C67.68000000000006,178.258 66.43000000000006,178.596 64.92000000000007,178.596 C63.789999999999964,178.596 63.23000000000002,178.117 63.23000000000002,177.159 C63.23000000000002,176.732 63.36999999999989,176.19 63.6400000000001,175.534 C63.90000000000009,174.909 64.25999999999999,174.435 64.73000000000002,174.112 C65.74000000000001,173.435 67.0,173.096 68.50999999999999,173.096" />
<path d="M69.53999999999996,182.034 C69.53999999999996,181.815 69.46000000000004,181.628 69.28999999999996,181.471 C69.11999999999989,181.305 68.92000000000007,181.221 68.70000000000005,181.221 C68.31999999999994,181.221 67.52999999999997,181.612 66.33999999999992,182.393 C65.1099999999999,183.185 64.3599999999999,183.753 64.08999999999992,184.096 C63.950000000000045,184.274 63.86999999999989,184.461 63.86999999999989,184.659 C63.86999999999989,184.878 63.960000000000036,185.065 64.1400000000001,185.221 C64.28999999999996,185.388 64.49000000000001,185.471 64.72000000000003,185.471 C65.08999999999992,185.471 65.8900000000001,185.081 67.1099999999999,184.3 C68.29999999999995,183.518 69.03999999999996,182.951 69.32999999999993,182.596 C69.47000000000003,182.43 69.53999999999996,182.242 69.53999999999996,182.034 M68.50999999999999,180.596 C69.63000000000011,180.596 70.18000000000006,181.076 70.18000000000006,182.034 C70.18000000000006,182.503 70.04999999999995,183.05 69.77999999999997,183.675 C69.50999999999999,184.289 69.1400000000001,184.758 68.68000000000006,185.081 C67.68000000000006,185.758 66.43000000000006,186.096 64.92000000000007,186.096 C63.789999999999964,186.096 63.23000000000002,185.617 63.23000000000002,184.659 C63.23000000000002,184.232 63.36999999999989,183.69 63.6400000000001,183.034 C63.90000000000009,182.409 64.25999999999999,181.935 64.73000000000002,181.612 C65.74000000000001,180.935 67.0,180.596 68.50999999999999,180.596" />
<path d="M69.53999999999996,192.034 C69.53999999999996,191.815 69.46000000000004,191.628 69.28999999999996,191.471 C69.11999999999989,191.305 68.92000000000007,191.221 68.70000000000005,191.221 C68.31999999999994,191.221 67.52999999999997,191.612 66.33999999999992,192.393 C65.1099999999999,193.185 64.3599999999999,193.753 64.08999999999992,194.096 C63.950000000000045,194.274 63.86999999999989,194.461 63.86999999999989,194.659 C63.86999999999989,194.878 63.960000000000036,195.065 64.1400000000001,195.221 C64.28999999999996,195.388 64.49000000000001,195.471 64.72000000000003,195.471 C65.08999999999992,195.471 65.8900000000001,195.081 67.1099999999999,194.3 C68.29999999999995,193.518 69.03999999999996,192.951 69.32999999999993,192.596 C69.47000000000003,192.43 69.53999999999996,192.242 69.53999999999996,192.034 M68.50999999999999,190.596 C69.63000000000011,190.596 70.18000000000006,191.076 70.18000000000006,192.034 C70.18000000000006,192.503 70.04999999999995,193.05 69.77999999999997,193.675 C69.50999999999999,194.289 69.1400000000001,194.758 68.68000000000006,195.081 C67.68000000000006,195.758 66.43000000000006,196.096 64.92000000000007,196.096 C63.789999999999964,196.096 63.23000000000002,195.617 63.23000000000002,194.659 C63.23000000000002,194.232 63.36999999999989,193.69 63.6400000000001,193.034 C63.90000000000009,192.409 64.25999999999999,191.935 64.73000000000002,191.612 C65.74000000000001,190.935 67.0,190.596 68.50999999999999,190.596" />
<path d="M67.79999999999995,108.096 C68.43000000000006,108.096 68.96000000000004,108.258 69.40000000000009,108.581 C69.78999999999996,108.935 69.99000000000001,109.378 69.99000000000001,109.909 C69.99000000000001,110.805 69.52999999999997,111.643 68.61999999999989,112.425 C67.68000000000006,113.206 66.67000000000007,113.596 65.59999999999991,113.596 C64.97000000000003,113.596 64.45000000000005,113.435 64.01999999999998,113.112 C63.61999999999989,112.758 63.41000000000008,112.315 63.41000000000008,111.784 C63.41000000000008,110.888 63.88000000000011,110.05 64.81999999999994,109.268 C65.74000000000001,108.487 66.73000000000002,108.096 67.79999999999995,108.096" />
<path d="M67.79999999999995,85.5965 C68.43000000000006,85.5965 68.96000000000004,85.7579 69.40000000000009,86.0808 C69.78999999999996,86.435 69.99000000000001,86.8777 69.99000000000001,87.409 C69.99000000000001,88.3048 69.52999999999997,89.1433 68.61999999999989,89.9246 C67.68000000000006,90.7058 66.67000000000007,91.0965 65.59999999999991,91.0965 C64.97000000000003,91.0965 64.45000000000005,90.935 64.01999999999998,90.6121 C63.61999999999989,90.2579 63.41000000000008,89.8152 63.41000000000008,89.284 C63.41000000000008,88.3881 63.88000000000011,87.5496 64.81999999999994,86.7683 C65.74000000000001,85.9871 66.73000000000002,85.5965 67.79999999999995,85.5965" />
<path d="M31.49000000000001,244.409 C31.829999999999927,244.044 32.0,243.706 32.0,243.393 C31.970000000000027,243.102 31.84999999999991,242.883 31.6400000000001,242.737 C31.410000000000082,242.581 31.1400000000001,242.503 30.829999999999927,242.503 C30.59999999999991,242.503 30.420000000000073,242.576 30.279999999999973,242.721 C30.15000000000009,242.857 30.079999999999927,243.018 30.079999999999927,243.206 C30.079999999999927,243.445 30.180000000000064,243.622 30.38000000000011,243.737 L31.49000000000001,244.409 M31.799999999999955,244.565 C32.34999999999991,244.857 32.63000000000011,245.263 32.63000000000011,245.784 C32.63000000000011,245.784 32.63000000000011,245.805 32.63000000000011,245.846 C32.63000000000011,246.242 32.460000000000036,246.576 32.13000000000011,246.846 C31.799999999999955,247.128 31.34999999999991,247.268 30.75,247.268 C30.25,247.268 29.819999999999936,247.138 29.450000000000045,246.878 C29.089999999999918,246.638 28.910000000000082,246.31 28.910000000000082,245.893 C28.910000000000082,245.706 28.950000000000045,245.539 29.049999999999955,245.393 C29.15000000000009,245.227 29.24000000000001,245.112 29.299999999999955,245.05 C29.299999999999955,245.05 29.420000000000073,244.925 29.670000000000073,244.675 C29.269999999999982,244.404 29.059999999999945,244.055 29.059999999999945,243.628 C29.059999999999945,243.263 29.220000000000027,242.94 29.529999999999973,242.659 C29.8599999999999,242.399 30.289999999999964,242.268 30.829999999999927,242.268 C31.269999999999982,242.268 31.6400000000001,242.367 31.950000000000045,242.565 C32.26999999999998,242.763 32.42000000000007,243.039 32.42000000000007,243.393 C32.42000000000007,243.727 32.210000000000036,244.117 31.799999999999955,244.565 M29.970000000000027,244.846 C29.569999999999936,245.19 29.36999999999989,245.539 29.34999999999991,245.893 C29.36999999999989,246.227 29.50999999999999,246.497 29.769999999999982,246.706 C30.059999999999945,246.925 30.3900000000001,247.034 30.75,247.034 C31.00999999999999,247.034 31.220000000000027,246.951 31.38000000000011,246.784 C31.529999999999973,246.628 31.6099999999999,246.435 31.6099999999999,246.206 C31.579999999999927,245.925 31.460000000000036,245.721 31.25,245.596 L29.970000000000027,244.846 M37.59999999999991,224.065 C37.41000000000008,223.867 37.309999999999945,223.625 37.309999999999945,223.339 C37.309999999999945,223.052 37.41000000000008,222.813 37.59999999999991,222.62 C37.799999999999955,222.427 38.039999999999964,222.331 38.319999999999936,222.331 C38.6099999999999,222.331 38.84999999999991,222.427 39.049999999999955,222.62 C39.25,222.813 39.34999999999991,223.052 39.34999999999991,223.339 C39.34999999999991,223.625 39.25,223.867 39.049999999999955,224.065 C38.84999999999991,224.263 38.6099999999999,224.362 38.319999999999936,224.362 C38.039999999999964,224.362 37.799999999999955,224.263 37.59999999999991,224.065 M37.59999999999991,229.073 C37.41000000000008,228.88 37.309999999999945,228.641 37.309999999999945,228.354 C37.309999999999945,228.068 37.41000000000008,227.826 37.59999999999991,227.628 C37.799999999999955,227.43 38.039999999999964,227.331 38.319999999999936,227.331 C38.6099999999999,227.331 38.84999999999991,227.43 39.049999999999955,227.628 C39.25,227.826 39.34999999999991,228.068 39.34999999999991,228.354 C39.34999999999991,228.641 39.25,228.88 39.049999999999955,229.073 C38.84999999999991,229.266 38.6099999999999,229.362 38.319999999999936,229.362 C38.039999999999964,229.362 37.799999999999955,229.266 37.59999999999991,229.073 M30.829999999999927,220.596 C32.559999999999945,220.596 33.98000000000002,221.029 35.07999999999993,221.893 C36.15000000000009,222.81 36.690000000000055,224.05 36.690000000000055,225.612 C36.690000000000055,226.664 36.48000000000002,227.628 36.059999999999945,228.503 C35.67000000000007,229.419 35.15000000000009,230.227 34.51999999999998,230.925 C33.8599999999999,231.643 33.069999999999936,232.32 32.16000000000008,232.956 C31.25,233.581 30.319999999999936,234.143 29.38000000000011,234.643 C27.450000000000045,235.612 26.38000000000011,236.096 26.170000000000073,236.096 C26.00999999999999,236.096 25.920000000000073,236.013 25.920000000000073,235.846 C25.920000000000073,235.784 25.950000000000045,235.727 26.0,235.675 C26.670000000000073,235.279 27.480000000000018,234.779 28.440000000000055,234.175 C29.059999999999945,233.768 29.789999999999964,233.206 30.63000000000011,232.487 C31.440000000000055,231.81 32.059999999999945,231.175 32.5,230.581 C32.960000000000036,229.987 33.38000000000011,229.258 33.75,228.393 C34.069999999999936,227.518 34.24000000000001,226.654 34.24000000000001,225.8 C34.24000000000001,224.539 33.92000000000007,223.44 33.299999999999955,222.503 C32.67000000000007,221.565 31.84999999999991,221.096 30.829999999999927,221.096 C30.09999999999991,221.096 29.480000000000018,221.331 28.950000000000045,221.8 C28.3900000000001,222.279 27.99000000000001,222.883 27.74000000000001,223.612 C27.99000000000001,223.508 28.210000000000036,223.456 28.420000000000073,223.456 C28.960000000000036,223.456 29.430000000000064,223.654 29.829999999999927,224.05 C30.210000000000036,224.466 30.410000000000082,224.94 30.410000000000082,225.471 C30.410000000000082,226.034 30.220000000000027,226.539 29.84999999999991,226.987 C29.440000000000055,227.383 28.960000000000036,227.581 28.420000000000073,227.581 C27.839999999999918,227.581 27.309999999999945,227.383 26.84999999999991,226.987 C26.40000000000009,226.539 26.170000000000073,226.034 26.170000000000073,225.471 C26.170000000000073,224.128 26.63000000000011,222.982 27.549999999999955,222.034 C28.440000000000055,221.076 29.539999999999964,220.596 30.829999999999927,220.596" />
<path d="M33.51999999999998,178.221 C33.51999999999998,178.221 33.559999999999945,178.221 33.6400000000001,178.221 C33.690000000000055,178.211 33.74000000000001,178.206 33.76999999999998,178.206 C35.23000000000002,178.206 36.42000000000007,178.721 37.3599999999999,179.753 C38.299999999999955,180.763 38.76999999999998,181.945 38.76999999999998,183.3 C38.76999999999998,184.987 38.069999999999936,186.357 36.690000000000055,187.409 C36.319999999999936,187.701 35.84999999999991,187.935 35.25,188.112 C35.319999999999936,188.956 35.3599999999999,189.638 35.3599999999999,190.159 C35.3599999999999,190.263 35.34999999999991,190.643 35.309999999999945,191.3 C35.25999999999999,192.508 34.84999999999991,193.555 34.059999999999945,194.44 C33.309999999999945,195.315 32.38000000000011,195.753 31.25,195.753 C30.200000000000045,195.753 29.299999999999955,195.383 28.559999999999945,194.643 C27.809999999999945,193.883 27.440000000000055,192.971 27.440000000000055,191.909 C27.440000000000055,191.346 27.660000000000082,190.867 28.09999999999991,190.471 C28.529999999999973,190.086 29.039999999999964,189.893 29.63000000000011,189.893 C30.15000000000009,189.893 30.579999999999927,190.096 30.940000000000055,190.503 C31.299999999999955,190.878 31.49000000000001,191.346 31.49000000000001,191.909 C31.49000000000001,192.409 31.299999999999955,192.841 30.940000000000055,193.206 C30.569999999999936,193.57 30.1400000000001,193.753 29.63000000000011,193.753 C29.420000000000073,193.753 29.220000000000027,193.716 29.029999999999973,193.643 C29.6099999999999,194.487 30.36999999999989,194.909 31.309999999999945,194.909 C32.210000000000036,194.909 32.940000000000055,194.544 33.51999999999998,193.815 C34.11999999999989,193.065 34.450000000000045,192.185 34.5,191.175 C34.51999999999998,190.55 34.52999999999997,190.195 34.52999999999997,190.112 C34.52999999999997,189.383 34.50999999999999,188.784 34.450000000000045,188.315 C33.809999999999945,188.419 33.23000000000002,188.471 32.72000000000003,188.471 C30.910000000000082,188.471 29.36999999999989,187.753 28.09999999999991,186.315 C26.84999999999991,184.867 26.220000000000027,183.149 26.220000000000027,181.159 C26.220000000000027,180.742 26.25999999999999,180.32 26.329999999999927,179.893 C26.410000000000082,179.539 26.50999999999999,179.154 26.63000000000011,178.737 C26.690000000000055,178.497 26.86999999999989,178.117 27.160000000000082,177.596 C27.25999999999999,177.44 27.38000000000011,177.245 27.50999999999999,177.011 C27.6400000000001,176.776 27.730000000000018,176.622 27.779999999999973,176.55 C27.910000000000082,176.289 28.160000000000082,175.935 28.529999999999973,175.487 C28.6400000000001,175.372 28.75,175.245 28.8599999999999,175.104 C28.980000000000018,174.964 29.069999999999936,174.846 29.15000000000009,174.753 C29.230000000000018,174.659 29.289999999999964,174.586 29.319999999999936,174.534 C29.3599999999999,174.482 29.65000000000009,174.138 30.200000000000045,173.503 C30.329999999999927,173.367 30.450000000000045,173.227 30.579999999999927,173.081 C30.700000000000045,172.935 30.809999999999945,172.818 30.88000000000011,172.729 C30.960000000000036,172.641 31.019999999999982,172.581 31.059999999999945,172.55 C30.59999999999991,170.997 30.299999999999955,169.758 30.170000000000073,168.831 C30.089999999999918,168.091 30.049999999999955,167.076 30.049999999999955,165.784 C30.049999999999955,164.649 30.309999999999945,163.586 30.829999999999927,162.596 C31.329999999999927,161.576 32.039999999999964,160.737 32.950000000000045,160.081 C33.01999999999998,160.039 33.07999999999993,160.018 33.1400000000001,160.018 C33.24000000000001,160.018 33.299999999999955,160.039 33.34999999999991,160.081 C34.039999999999964,160.925 34.65000000000009,162.024 35.16000000000008,163.378 C35.680000000000064,164.732 35.940000000000055,165.966 35.940000000000055,167.081 C35.940000000000055,168.331 35.6400000000001,169.503 35.049999999999955,170.596 C34.36999999999989,171.753 33.5,172.951 32.42000000000007,174.19 C32.690000000000055,175.044 33.059999999999945,176.388 33.51999999999998,178.221 M35.17000000000007,187.315 C35.84999999999991,187.065 36.38000000000011,186.643 36.76999999999998,186.05 C37.180000000000064,185.477 37.3900000000001,184.831 37.3900000000001,184.112 C37.3900000000001,183.185 37.07999999999993,182.362 36.450000000000045,181.643 C35.809999999999945,180.904 34.99000000000001,180.487 34.0,180.393 C34.559999999999945,183.143 34.950000000000045,185.451 35.17000000000007,187.315 M27.63000000000011,182.8 C27.63000000000011,184.091 28.15000000000009,185.227 29.190000000000055,186.206 C30.25,187.154 31.450000000000045,187.628 32.77999999999997,187.628 C33.319999999999936,187.628 33.8599999999999,187.586 34.38000000000011,187.503 C34.17000000000007,185.524 33.75999999999999,183.154 33.1400000000001,180.393 C32.40000000000009,180.477 31.809999999999945,180.737 31.38000000000011,181.175 C30.940000000000055,181.633 30.720000000000027,182.149 30.720000000000027,182.721 C30.720000000000027,183.711 31.25,184.513 32.309999999999945,185.128 C32.40000000000009,185.221 32.440000000000055,185.32 32.440000000000055,185.425 C32.440000000000055,185.529 32.40000000000009,185.622 32.309999999999945,185.706 C32.23000000000002,185.8 32.13000000000011,185.846 32.01999999999998,185.846 C32.00999999999999,185.846 31.950000000000045,185.836 31.84999999999991,185.815 C31.09999999999991,185.409 30.519999999999982,184.888 30.13000000000011,184.253 C29.74000000000001,183.565 29.549999999999955,182.878 29.549999999999955,182.19 C29.549999999999955,181.294 29.829999999999927,180.482 30.3900000000001,179.753 C30.980000000000018,179.024 31.74000000000001,178.555 32.67000000000007,178.346 C32.309999999999945,176.888 32.00999999999999,175.747 31.779999999999973,174.925 C31.569999999999936,175.164 31.319999999999936,175.448 31.029999999999973,175.776 C30.74000000000001,176.104 30.569999999999936,176.305 30.519999999999982,176.378 C30.049999999999955,176.982 29.690000000000055,177.456 29.440000000000055,177.8 C28.99000000000001,178.414 28.660000000000082,178.94 28.450000000000045,179.378 C28.24000000000001,179.878 28.039999999999964,180.419 27.88000000000011,181.003 C27.710000000000036,181.565 27.63000000000011,182.164 27.63000000000011,182.8 M34.1400000000001,162.94 C33.16000000000008,163.419 32.40000000000009,164.107 31.84999999999991,165.003 C31.269999999999982,165.93 30.99000000000001,166.925 30.99000000000001,167.987 C30.99000000000001,168.925 31.220000000000027,170.19 31.690000000000055,171.784 C32.63000000000011,170.649 33.32999999999993,169.602 33.799999999999955,168.643 C34.289999999999964,167.622 34.52999999999997,166.56 34.52999999999997,165.456 C34.52999999999997,164.622 34.40000000000009,163.784 34.1400000000001,162.94 M32.0,198.581 C32.32999999999993,198.247 32.5,197.909 32.5,197.565 C32.48000000000002,197.294 32.36999999999989,197.086 32.16000000000008,196.94 C31.920000000000073,196.784 31.6400000000001,196.706 31.329999999999927,196.706 C31.1099999999999,196.706 30.930000000000064,196.779 30.779999999999973,196.925 C30.660000000000082,197.05 30.59999999999991,197.211 30.59999999999991,197.409 C30.59999999999991,197.649 30.690000000000055,197.826 30.88000000000011,197.94 L32.0,198.581 M32.309999999999945,198.753 C32.8599999999999,199.055 33.13000000000011,199.461 33.13000000000011,199.971 L33.13000000000011,200.034 C33.13000000000011,200.43 32.960000000000036,200.768 32.6400000000001,201.05 C32.319999999999936,201.331 31.8599999999999,201.471 31.25,201.471 C30.75999999999999,201.471 30.329999999999927,201.341 29.970000000000027,201.081 C29.6099999999999,200.831 29.420000000000073,200.492 29.420000000000073,200.065 C29.420000000000073,199.899 29.460000000000036,199.742 29.549999999999955,199.596 C29.65000000000009,199.43 29.74000000000001,199.315 29.809999999999945,199.253 L30.170000000000073,198.878 C29.779999999999973,198.607 29.579999999999927,198.247 29.579999999999927,197.8 C29.579999999999927,197.445 29.74000000000001,197.133 30.049999999999955,196.862 C30.36999999999989,196.602 30.799999999999955,196.471 31.329999999999927,196.471 C31.779999999999973,196.471 32.16000000000008,196.57 32.47000000000003,196.768 C32.77999999999997,196.966 32.940000000000055,197.232 32.940000000000055,197.565 C32.940000000000055,197.919 32.73000000000002,198.315 32.309999999999945,198.753 M30.470000000000027,199.05 C30.079999999999927,199.393 29.88000000000011,199.732 29.84999999999991,200.065 C29.88000000000011,200.419 30.019999999999982,200.701 30.279999999999973,200.909 C30.559999999999945,201.128 30.8900000000001,201.237 31.25,201.237 C31.50999999999999,201.237 31.720000000000027,201.154 31.88000000000011,200.987 C32.02999999999997,200.831 32.1099999999999,200.643 32.1099999999999,200.425 C32.09999999999991,200.133 31.99000000000001,199.925 31.769999999999982,199.8 L30.470000000000027,199.05" />
<path d="M31.49000000000001,139.409 C31.829999999999927,139.044 32.0,138.706 32.0,138.393 C31.970000000000027,138.102 31.84999999999991,137.883 31.6400000000001,137.737 C31.410000000000082,137.581 31.1400000000001,137.503 30.829999999999927,137.503 C30.59999999999991,137.503 30.420000000000073,137.576 30.279999999999973,137.721 C30.15000000000009,137.857 30.079999999999927,138.018 30.079999999999927,138.206 C30.079999999999927,138.445 30.180000000000064,138.622 30.38000000000011,138.737 L31.49000000000001,139.409 M31.799999999999955,139.565 C32.34999999999991,139.857 32.63000000000011,140.263 32.63000000000011,140.784 C32.63000000000011,140.784 32.63000000000011,140.805 32.63000000000011,140.846 C32.63000000000011,141.242 32.460000000000036,141.576 32.13000000000011,141.846 C31.799999999999955,142.128 31.34999999999991,142.268 30.75,142.268 C30.25,142.268 29.819999999999936,142.138 29.450000000000045,141.878 C29.089999999999918,141.638 28.910000000000082,141.31 28.910000000000082,140.893 C28.910000000000082,140.706 28.950000000000045,140.539 29.049999999999955,140.393 C29.15000000000009,140.227 29.24000000000001,140.112 29.299999999999955,140.05 C29.299999999999955,140.05 29.420000000000073,139.925 29.670000000000073,139.675 C29.269999999999982,139.404 29.059999999999945,139.055 29.059999999999945,138.628 C29.059999999999945,138.263 29.220000000000027,137.94 29.529999999999973,137.659 C29.8599999999999,137.399 30.289999999999964,137.268 30.829999999999927,137.268 C31.269999999999982,137.268 31.6400000000001,137.367 31.950000000000045,137.565 C32.26999999999998,137.763 32.42000000000007,138.039 32.42000000000007,138.393 C32.42000000000007,138.727 32.210000000000036,139.117 31.799999999999955,139.565 M29.970000000000027,139.846 C29.569999999999936,140.19 29.36999999999989,140.539 29.34999999999991,140.893 C29.36999999999989,141.227 29.50999999999999,141.497 29.769999999999982,141.706 C30.059999999999945,141.925 30.3900000000001,142.034 30.75,142.034 C31.00999999999999,142.034 31.220000000000027,141.951 31.38000000000011,141.784 C31.529999999999973,141.628 31.6099999999999,141.435 31.6099999999999,141.206 C31.579999999999927,140.925 31.460000000000036,140.721 31.25,140.596 L29.970000000000027,139.846 M37.59999999999991,119.065 C37.41000000000008,118.867 37.309999999999945,118.625 37.309999999999945,118.339 C37.309999999999945,118.052 37.41000000000008,117.813 37.59999999999991,117.62 C37.799999999999955,117.427 38.039999999999964,117.331 38.319999999999936,117.331 C38.6099999999999,117.331 38.84999999999991,117.427 39.049999999999955,117.62 C39.25,117.813 39.34999999999991,118.052 39.34999999999991,118.339 C39.34999999999991,118.625 39.25,118.867 39.049999999999955,119.065 C38.84999999999991,119.263 38.6099999999999,119.362 38.319999999999936,119.362 C38.039999999999964,119.362 37.799999999999955,119.263 37.59999999999991,119.065 M37.59999999999991,124.073 C37.41000000000008,123.88 37.309999999999945,123.641 37.309999999999945,123.354 C37.309999999999945,123.068 37.41000000000008,122.826 37.59999999999991,122.628 C37.799999999999955,122.43 38.039999999999964,122.331 38.319999999999936,122.331 C38.6099999999999,122.331 38.84999999999991,122.43 39.049999999999955,122.628 C39.25,122.826 39.34999999999991,123.068 39.34999999999991,123.354 C39.34999999999991,123.641 39.25,123.88 39.049999999999955,124.073 C38.84999999999991,124.266 38.6099999999999,124.362 38.319999999999936,124.362 C38.039999999999964,124.362 37.799999999999955,124.266 37.59999999999991,124.073 M30.829999999999927,115.596 C32.559999999999945,115.596 33.98000000000002,116.029 35.07999999999993,116.893 C36.15000000000009,117.81 36.690000000000055,119.05 36.690000000000055,120.612 C36.690000000000055,121.664 36.48000000000002,122.628 36.059999999999945,123.503 C35.67000000000007,124.419 35.15000000000009,125.227 34.51999999999998,125.925 C33.8599999999999,126.643 33.069999999999936,127.32 32.16000000000008,127.956 C31.25,128.581 30.319999999999936,129.143 29.38000000000011,129.643 C27.450000000000045,130.612 26.38000000000011,131.096 26.170000000000073,131.096 C26.00999999999999,131.096 25.920000000000073,131.013 25.920000000000073,130.846 C25.920000000000073,130.784 25.950000000000045,130.727 26.0,130.675 C26.670000000000073,130.279 27.480000000000018,129.779 28.440000000000055,129.175 C29.059999999999945,128.768 29.789999999999964,128.206 30.63000000000011,127.487 C31.440000000000055,126.81 32.059999999999945,126.175 32.5,125.581 C32.960000000000036,124.987 33.38000000000011,124.258 33.75,123.393 C34.069999999999936,122.518 34.24000000000001,121.654 34.24000000000001,120.8 C34.24000000000001,119.539 33.92000000000007,118.44 33.299999999999955,117.503 C32.67000000000007,116.565 31.84999999999991,116.096 30.829999999999927,116.096 C30.09999999999991,116.096 29.480000000000018,116.331 28.950000000000045,116.8 C28.3900000000001,117.279 27.99000000000001,117.883 27.74000000000001,118.612 C27.99000000000001,118.508 28.210000000000036,118.456 28.420000000000073,118.456 C28.960000000000036,118.456 29.430000000000064,118.654 29.829999999999927,119.05 C30.210000000000036,119.466 30.410000000000082,119.94 30.410000000000082,120.471 C30.410000000000082,121.034 30.220000000000027,121.539 29.84999999999991,121.987 C29.440000000000055,122.383 28.960000000000036,122.581 28.420000000000073,122.581 C27.839999999999918,122.581 27.309999999999945,122.383 26.84999999999991,121.987 C26.40000000000009,121.539 26.170000000000073,121.034 26.170000000000073,120.471 C26.170000000000073,119.128 26.63000000000011,117.982 27.549999999999955,117.034 C28.440000000000055,116.076 29.539999999999964,115.596 30.829999999999927,115.596" />
<path d="M33.51999999999998,73.2215 C33.51999999999998,73.2215 33.559999999999945,73.2215 33.6400000000001,73.2215 C33.690000000000055,73.211 33.74000000000001,73.2058 33.76999999999998,73.2058 C35.23000000000002,73.2058 36.42000000000007,73.7215 37.3599999999999,74.7527 C38.299999999999955,75.7631 38.76999999999998,76.9454 38.76999999999998,78.2996 C38.76999999999998,79.9871 38.069999999999936,81.3569 36.690000000000055,82.409 C36.319999999999936,82.7006 35.84999999999991,82.935 35.25,83.1121 C35.319999999999936,83.9558 35.3599999999999,84.6381 35.3599999999999,85.159 C35.3599999999999,85.2631 35.34999999999991,85.6433 35.309999999999945,86.2996 C35.25999999999999,87.5079 34.84999999999991,88.5548 34.059999999999945,89.4402 C33.309999999999945,90.3152 32.38000000000011,90.7527 31.25,90.7527 C30.200000000000045,90.7527 29.299999999999955,90.3829 28.559999999999945,89.6433 C27.809999999999945,88.8829 27.440000000000055,87.9715 27.440000000000055,86.909 C27.440000000000055,86.3465 27.660000000000082,85.8673 28.09999999999991,85.4715 C28.529999999999973,85.086 29.039999999999964,84.8933 29.63000000000011,84.8933 C30.15000000000009,84.8933 30.579999999999927,85.0965 30.940000000000055,85.5027 C31.299999999999955,85.8777 31.49000000000001,86.3465 31.49000000000001,86.909 C31.49000000000001,87.409 31.299999999999955,87.8412 30.940000000000055,88.2058 C30.569999999999936,88.5704 30.1400000000001,88.7527 29.63000000000011,88.7527 C29.420000000000073,88.7527 29.220000000000027,88.7162 29.029999999999973,88.6433 C29.6099999999999,89.4871 30.36999999999989,89.909 31.309999999999945,89.909 C32.210000000000036,89.909 32.940000000000055,89.5444 33.51999999999998,88.8152 C34.11999999999989,88.0652 34.450000000000045,87.185 34.5,86.1746 C34.51999999999998,85.5496 34.52999999999997,85.1954 34.52999999999997,85.1121 C34.52999999999997,84.3829 34.50999999999999,83.784 34.450000000000045,83.3152 C33.809999999999945,83.4194 33.23000000000002,83.4715 32.72000000000003,83.4715 C30.910000000000082,83.4715 29.36999999999989,82.7527 28.09999999999991,81.3152 C26.84999999999991,79.8673 26.220000000000027,78.1485 26.220000000000027,76.159 C26.220000000000027,75.7423 26.25999999999999,75.3204 26.329999999999927,74.8933 C26.410000000000082,74.5392 26.50999999999999,74.1537 26.63000000000011,73.7371 C26.690000000000055,73.4975 26.86999999999989,73.1173 27.160000000000082,72.5965 C27.25999999999999,72.4402 27.38000000000011,72.2449 27.50999999999999,72.0105 C27.6400000000001,71.7761 27.730000000000018,71.6225 27.779999999999973,71.5496 C27.910000000000082,71.2892 28.160000000000082,70.935 28.529999999999973,70.4871 C28.6400000000001,70.3725 28.75,70.2449 28.8599999999999,70.1043 C28.980000000000018,69.9636 29.069999999999936,69.8465 29.15000000000009,69.7527 C29.230000000000018,69.659 29.289999999999964,69.586 29.319999999999936,69.534 C29.3599999999999,69.4819 29.65000000000009,69.1381 30.200000000000045,68.5027 C30.329999999999927,68.3673 30.450000000000045,68.2267 30.579999999999927,68.0808 C30.700000000000045,67.935 30.809999999999945,67.8178 30.88000000000011,67.7293 C30.960000000000036,67.6407 31.019999999999982,67.5808 31.059999999999945,67.5496 C30.59999999999991,65.9975 30.299999999999955,64.7579 30.170000000000073,63.8308 C30.089999999999918,63.0912 30.049999999999955,62.0756 30.049999999999955,60.784 C30.049999999999955,59.6485 30.309999999999945,58.586 30.829999999999927,57.5965 C31.329999999999927,56.5756 32.039999999999964,55.7371 32.950000000000045,55.0808 C33.01999999999998,55.0392 33.07999999999993,55.0183 33.1400000000001,55.0183 C33.24000000000001,55.0183 33.299999999999955,55.0392 33.34999999999991,55.0808 C34.039999999999964,55.9246 34.65000000000009,57.0235 35.16000000000008,58.3777 C35.680000000000064,59.7319 35.940000000000055,60.9662 35.940000000000055,62.0808 C35.940000000000055,63.3308 35.6400000000001,64.5027 35.049999999999955,65.5965 C34.36999999999989,66.7527 33.5,67.9506 32.42000000000007,69.1902 C32.690000000000055,70.0444 33.059999999999945,71.3881 33.51999999999998,73.2215 M35.17000000000007,82.3152 C35.84999999999991,82.0652 36.38000000000011,81.6433 36.76999999999998,81.0496 C37.180000000000064,80.4767 37.3900000000001,79.8308 37.3900000000001,79.1121 C37.3900000000001,78.185 37.07999999999993,77.3621 36.450000000000045,76.6433 C35.809999999999945,75.9037 34.99000000000001,75.4871 34.0,75.3933 C34.559999999999945,78.1433 34.950000000000045,80.4506 35.17000000000007,82.3152 M27.63000000000011,77.7996 C27.63000000000011,79.0912 28.15000000000009,80.2267 29.190000000000055,81.2058 C30.25,82.1537 31.450000000000045,82.6277 32.77999999999997,82.6277 C33.319999999999936,82.6277 33.8599999999999,82.586 34.38000000000011,82.5027 C34.17000000000007,80.5235 33.75999999999999,78.1537 33.1400000000001,75.3933 C32.40000000000009,75.4767 31.809999999999945,75.7371 31.38000000000011,76.1746 C30.940000000000055,76.6329 30.720000000000027,77.1485 30.720000000000027,77.7215 C30.720000000000027,78.711 31.25,79.5131 32.309999999999945,80.1277 C32.40000000000009,80.2215 32.440000000000055,80.3204 32.440000000000055,80.4246 C32.440000000000055,80.5287 32.40000000000009,80.6225 32.309999999999945,80.7058 C32.23000000000002,80.7996 32.13000000000011,80.8465 32.01999999999998,80.8465 C32.00999999999999,80.8465 31.950000000000045,80.836 31.84999999999991,80.8152 C31.09999999999991,80.409 30.519999999999982,79.8881 30.13000000000011,79.2527 C29.74000000000001,78.5652 29.549999999999955,77.8777 29.549999999999955,77.1902 C29.549999999999955,76.2944 29.829999999999927,75.4819 30.3900000000001,74.7527 C30.980000000000018,74.0235 31.74000000000001,73.5548 32.67000000000007,73.3465 C32.309999999999945,71.8881 32.00999999999999,70.7475 31.779999999999973,69.9246 C31.569999999999936,70.1642 31.319999999999936,70.448 31.029999999999973,70.7761 C30.74000000000001,71.1043 30.569999999999936,71.3048 30.519999999999982,71.3777 C30.049999999999955,71.9819 29.690000000000055,72.4558 29.440000000000055,72.7996 C28.99000000000001,73.4142 28.660000000000082,73.9402 28.450000000000045,74.3777 C28.24000000000001,74.8777 28.039999999999964,75.4194 27.88000000000011,76.0027 C27.710000000000036,76.5652 27.63000000000011,77.1642 27.63000000000011,77.7996 M34.1400000000001,57.9402 C33.16000000000008,58.4194 32.40000000000009,59.1069 31.84999999999991,60.0027 C31.269999999999982,60.9298 30.99000000000001,61.9246 30.99000000000001,62.9871 C30.99000000000001,63.9246 31.220000000000027,65.1902 31.690000000000055,66.784 C32.63000000000011,65.6485 33.32999999999993,64.6017 33.799999999999955,63.6433 C34.289999999999964,62.6225 34.52999999999997,61.56 34.52999999999997,60.4558 C34.52999999999997,59.6225 34.40000000000009,58.784 34.1400000000001,57.9402 M32.0,93.5808 C32.32999999999993,93.2475 32.5,92.909 32.5,92.5652 C32.48000000000002,92.2944 32.36999999999989,92.086 32.16000000000008,91.9402 C31.920000000000073,91.784 31.6400000000001,91.7058 31.329999999999927,91.7058 C31.1099999999999,91.7058 30.930000000000064,91.7787 30.779999999999973,91.9246 C30.660000000000082,92.0496 30.59999999999991,92.211 30.59999999999991,92.409 C30.59999999999991,92.6485 30.690000000000055,92.8256 30.88000000000011,92.9402 L32.0,93.5808 M32.309999999999945,93.7527 C32.8599999999999,94.0548 33.13000000000011,94.461 33.13000000000011,94.9715 L33.13000000000011,95.034 C33.13000000000011,95.4298 32.960000000000036,95.7683 32.6400000000001,96.0496 C32.319999999999936,96.3308 31.8599999999999,96.4715 31.25,96.4715 C30.75999999999999,96.4715 30.329999999999927,96.3412 29.970000000000027,96.0808 C29.6099999999999,95.8308 29.420000000000073,95.4923 29.420000000000073,95.0652 C29.420000000000073,94.8985 29.460000000000036,94.7423 29.549999999999955,94.5965 C29.65000000000009,94.4298 29.74000000000001,94.3152 29.809999999999945,94.2527 L30.170000000000073,93.8777 C29.779999999999973,93.6069 29.579999999999927,93.2475 29.579999999999927,92.7996 C29.579999999999927,92.4454 29.74000000000001,92.1329 30.049999999999955,91.8621 C30.36999999999989,91.6017 30.799999999999955,91.4715 31.329999999999927,91.4715 C31.779999999999973,91.4715 32.16000000000008,91.5704 32.47000000000003,91.7683 C32.77999999999997,91.9662 32.940000000000055,92.2319 32.940000000000055,92.5652 C32.940000000000055,92.9194 32.73000000000002,93.3152 32.309999999999945,93.7527 M30.470000000000027,94.0496 C30.079999999999927,94.3933 29.88000000000011,94.7319 29.84999999999991,95.0652 C29.88000000000011,95.4194 30.019999999999982,95.7006 30.279999999999973,95.909 C30.559999999999945,96.1277 30.8900000000001,96.2371 31.25,96.2371 C31.50999999999999,96.2371 31.720000000000027,96.1537 31.88000000000011,95.9871 C32.02999999999997,95.8308 32.1099999999999,95.6433 32.1099999999999,95.4246 C32.09999999999991,95.1329 31.99000000000001,94.9246 31.769999999999982,94.7996 L30.470000000000027,94.0496" />
<path d="M177.55999999999995,125.846 L170.45000000000005,125.846 C170.31999999999994,125.846 170.25,125.779 170.25,125.643 L170.25,122.909 C170.25,122.784 170.31999999999994,122.721 170.45000000000005,122.721 L177.55999999999995,122.721 C177.69000000000005,122.721 177.75,122.784 177.75,122.909 L177.75,125.643 C177.75,125.779 177.69000000000005,125.846 177.55999999999995,125.846" />
<path d="M177.55999999999995,73.3465 L170.45000000000005,73.3465 C170.31999999999994,73.3465 170.25,73.2787 170.25,73.1433 L170.25,70.409 C170.25,70.284 170.31999999999994,70.2215 170.45000000000005,70.2215 L177.55999999999995,70.2215 C177.69000000000005,70.2215 177.75,70.284 177.75,70.409 L177.75,73.1433 C177.75,73.2787 177.69000000000005,73.3465 177.55999999999995,73.3465" />
<path d="M214.8800000000001,249.596 L247.98000000000002,249.596 L247.98000000000002,252.096 L214.8800000000001,252.096 L214.8800000000001,249.596" />
<path d="M214.8800000000001,245.846 L231.76,245.846 L231.76,248.346 L214.8800000000001,248.346 L214.8800000000001,245.846" />
<path d="M176.18000000000006,219.596 L199.1500000000001,219.596 L199.1500000000001,222.096 L176.18000000000006,222.096 L176.18000000000006,219.596" />
<path d="M108.03999999999996,128.346 L132.3599999999999,128.346 L132.3599999999999,130.846 L108.03999999999996,130.846 L108.03999999999996,128.346" />
<path d="M108.03999999999996,124.596 L120.51999999999998,124.596 L120.51999999999998,127.096 L108.03999999999996,127.096 L108.03999999999996,124.596" />
<path d="M108.03999999999996,120.846 L120.51999999999998,120.846 L120.51999999999998,123.346 L108.03999999999996,123.346 L108.03999999999996,120.846" />
<path d="M108.03999999999996,85.8465 L132.3599999999999,85.8465 L132.3599999999999,88.3465 L108.03999999999996,88.3465 L108.03999999999996,85.8465" />
<path d="M108.03999999999996,82.0965 L120.51999999999998,82.0965 L120.51999999999998,84.5965 L108.03999999999996,84.5965 L108.03999999999996,82.0965" />
<path d="M108.03999999999996,78.3465 L120.51999999999998,78.3465 L120.51999999999998,80.8465 L108.03999999999996,80.8465 L108.03999999999996,78.3465" />
<path d="M69.34999999999991,218.346 L154.51999999999998,218.346 L154.51999999999998,220.846 L69.34999999999991,220.846 L69.34999999999991,218.346" />
<path d="M63.41000000000008,125.846 L86.38000000000011,123.274 L86.38000000000011,125.774 L63.41000000000008,128.346 L63.41000000000008,125.846" />
<path d="M69.34999999999991,67.2421 L92.30999999999995,62.0965 L92.30999999999995,64.5965 L69.34999999999991,69.7421 L69.34999999999991,67.2421" />
<path d="M140.3800000000001,89.1511 C140.1500000000001,88.9272 140.03999999999996,88.659 140.03999999999996,88.3465 C140.03999999999996,88.034 140.1500000000001,87.7657 140.3800000000001,87.5418 C140.5999999999999,87.3178 140.8699999999999,87.2058 141.18000000000006,87.2058 C141.49,87.2058 141.76,87.3178 141.98000000000002,87.5418 C142.20000000000005,87.7657 142.29999999999995,88.034 142.29999999999995,88.3465 C142.29999999999995,88.659 142.20000000000005,88.9272 141.98000000000002,89.1511 C141.76,89.3751 141.49,89.4871 141.18000000000006,89.4871 C140.8699999999999,89.4871 140.5999999999999,89.3751 140.3800000000001,89.1511" />
<path d="M140.3800000000001,66.6511 C140.1500000000001,66.4272 140.03999999999996,66.159 140.03999999999996,65.8465 C140.03999999999996,65.534 140.1500000000001,65.2657 140.3800000000001,65.0418 C140.5999999999999,64.8178 140.8699999999999,64.7058 141.18000000000006,64.7058 C141.49,64.7058 141.76,64.8178 141.98000000000002,65.0418 C142.20000000000005,65.2657 142.29999999999995,65.534 142.29999999999995,65.8465 C142.29999999999995,66.159 142.20000000000005,66.4272 141.98000000000002,66.6511 C141.76,66.8751 141.49,66.9871 141.18000000000006,66.9871 C140.8699999999999,66.9871 140.5999999999999,66.8751 140.3800000000001,66.6511" />
<polyline points="22.170000000000073,63.3465 255.0,63.3465" fill="none" stroke="#000000" stroke-width="0.40" />
<polyline points="22.170000000000073,68.3465 255.0,68.3465" fill="none" stroke="#000000" stroke-width="0.40" />
<polyline points="22.170000000000073,73.3465 255.0,73.3465" fill="none" stroke="#000000" stroke-width="0.40" />
<polyline points="22.170000000000073,78.3465 255.0,78.3465" fill="none" stroke="#000000" stroke-width="0.40" />
<polyline points="22.170000000000073,83.3465 255.0,83.3465" fill="none" stroke="#000000" stroke-width="0.40" />
<polyline points="22.170000000000073,115.846 255.0,115.846" fill="none" stroke="#000000" stroke-width="0.40" />
<polyline points="22.170000000000073,120.846 255.0,120.846" fill="none" stroke="#000000" stroke-width="0.40" />
<polyline points="22.170000000000073,125.846 255.0,125.846" fill="none" stroke="#000000" stroke-width="0.40" />
<polyline points="22.170000000000073,130.846 255.0,130.846" fill="none" stroke="#000000" stroke-width="0.40" />
<polyline points="22.170000000000073,135.846 255.0,135.846" fill="none" stroke="#000000" stroke-width="0.40" />
<polyline points="22.170000000000073,168.346 255.0,168.346" fill="none" stroke="#000000" stroke-width="0.40" />
<polyline points="22.170000000000073,173.346 255.0,173.346" fill="none" stroke="#000000" stroke-width="0.40" />
<polyline points="22.170000000000073,178.346 255.0,178.346" fill="none" stroke="#000000" stroke-width="0.40" />
<polyline points="22.170000000000073,183.346 255.0,183.346" fill="none" stroke="#000000" stroke-width="0.40" />
<polyline points="22.170000000000073,188.346 255.0,188.346" fill="none" stroke="#000000" stroke-width="0.40" />
<polyline points="22.170000000000073,220.846 255.0,220.846" fill="none" stroke="#000000" stroke-width="0.40" />
<polyline points="22.170000000000073,225.846 255.0,225.846" fill="none" stroke="#000000" stroke-width="0.40" />
<polyline points="22.170000000000073,230.846 255.0,230.846" fill="none" stroke="#000000" stroke-width="0.40" />
<polyline points="22.170000000000073,235.846 255.0,235.846" fill="none" stroke="#000000" stroke-width="0.40" />
<polyline points="22.170000000000073,240.846 255.0,240.846" fill="none" stroke="#000000" stroke-width="0.40" />
<polyline points="22.569999999999936,63.3465 22.569999999999936,255.0" fill="" stroke="#000000" stroke-width="0.80" />
<polyline points="247.66000000000008,236.786 247.66000000000008,250.846" fill="" stroke="#000000" stroke-width="0.65" />
<polyline points="231.43000000000006,226.786 231.43000000000006,250.846" fill="" stroke="#000000" stroke-width="0.65" />
<polyline points="215.20000000000005,236.786 215.20000000000005,250.846" fill="" stroke="#000000" stroke-width="0.65" />
<polyline points="198.81999999999994,234.907 198.81999999999994,220.846" fill="" stroke="#000000" stroke-width="0.65" />
<polyline points="176.51,234.907 176.51,220.846" fill="" stroke="#000000" stroke-width="0.65" />
<polyline points="176.69000000000005,195.078 176.69000000000005,158.971" fill="" stroke="#000000" stroke-width="0.65" />
<polyline points="154.19000000000005,232.407 154.19000000000005,219.596" fill="" stroke="#000000" stroke-width="0.65" />
<polyline points="132.02999999999997,89.2855 132.02999999999997,129.596" fill="" stroke="#000000" stroke-width="0.65" />
<polyline points="132.02999999999997,66.7855 132.02999999999997,87.0965" fill="" stroke="#000000" stroke-width="0.65" />
<polyline points="120.20000000000005,86.7855 120.20000000000005,129.596" fill="" stroke="#000000" stroke-width="0.65" />
<polyline points="120.20000000000005,64.2855 120.20000000000005,87.0965" fill="" stroke="#000000" stroke-width="0.65" />
<polyline points="114.29999999999995,232.407 114.29999999999995,219.596" fill="" stroke="#000000" stroke-width="0.65" />
<polyline points="108.36999999999989,89.2855 108.36999999999989,129.596" fill="" stroke="#000000" stroke-width="0.65" />
<polyline points="108.36999999999989,66.7855 108.36999999999989,87.0965" fill="" stroke="#000000" stroke-width="0.65" />
<polyline points="91.98000000000002,232.407 91.98000000000002,219.596" fill="" stroke="#000000" stroke-width="0.65" />
<polyline points="86.04999999999995,101.786 86.04999999999995,124.596" fill="" stroke="#000000" stroke-width="0.65" />
<polyline points="91.98000000000002,77.4074 91.98000000000002,63.3465" fill="" stroke="#000000" stroke-width="0.65" />
<polyline points="69.67000000000007,232.407 69.67000000000007,219.596" fill="" stroke="#000000" stroke-width="0.65" />
<polyline points="69.84999999999991,192.578 69.84999999999991,157.096" fill="" stroke="#000000" stroke-width="0.65" />
<polyline points="63.74000000000001,111.786 63.74000000000001,127.096" fill="" stroke="#000000" stroke-width="0.65" />
<polyline points="69.67000000000007,87.4074 69.67000000000007,68.3465" fill="" stroke="#000000" stroke-width="0.65" />
<polyline points="168.56999999999994,193.346 178.51,193.346" fill="" stroke="#000000" stroke-width="0.80" />
<polyline points="130.21000000000004,90.8465 139.78999999999996,90.8465" fill="" stroke="#000000" stroke-width="0.80" />
<polyline points="130.21000000000004,95.8465 139.78999999999996,95.8465" fill="" stroke="#000000" stroke-width="0.80" />
<polyline points="130.21000000000004,100.846 139.78999999999996,100.846" fill="" stroke="#000000" stroke-width="0.80" />
<polyline points="130.21000000000004,105.846 139.78999999999996,105.846" fill="" stroke="#000000" stroke-width="0.80" />
<polyline points="130.21000000000004,110.846 139.78999999999996,110.846" fill="" stroke="#000000" stroke-width="0.80" />
<polyline points="118.36999999999989,85.8465 127.96000000000004,85.8465" fill="" stroke="#000000" stroke-width="0.80" />
<polyline points="118.36999999999989,90.8465 127.96000000000004,90.8465" fill="" stroke="#000000" stroke-width="0.80" />
<polyline points="118.36999999999989,95.8465 127.96000000000004,95.8465" fill="" stroke="#000000" stroke-width="0.80" />
<polyline points="118.36999999999989,100.846 127.96000000000004,100.846" fill="" stroke="#000000" stroke-width="0.80" />
<polyline points="118.36999999999989,105.846 127.96000000000004,105.846" fill="" stroke="#000000" stroke-width="0.80" />
<polyline points="118.36999999999989,110.846 127.96000000000004,110.846" fill="" stroke="#000000" stroke-width="0.80" />
<polyline points="106.53999999999996,90.8465 116.11999999999989,90.8465" fill="" stroke="#000000" stroke-width="0.80" />
<polyline points="106.53999999999996,95.8465 116.11999999999989,95.8465" fill="" stroke="#000000" stroke-width="0.80" />
<polyline points="106.53999999999996,100.846 116.11999999999989,100.846" fill="" stroke="#000000" stroke-width="0.80" />
<polyline points="106.53999999999996,105.846 116.11999999999989,105.846" fill="" stroke="#000000" stroke-width="0.80" />
<polyline points="106.53999999999996,110.846 116.11999999999989,110.846" fill="" stroke="#000000" stroke-width="0.80" />
<polyline points="84.23000000000002,100.846 93.80999999999995,100.846" fill="" stroke="#000000" stroke-width="0.80" />
<polyline points="84.23000000000002,105.846 93.80999999999995,105.846" fill="" stroke="#000000" stroke-width="0.80" />
<polyline points="84.23000000000002,110.846 93.80999999999995,110.846" fill="" stroke="#000000" stroke-width="0.80" />
<polyline points="61.73000000000002,193.346 71.68000000000006,193.346" fill="" stroke="#000000" stroke-width="0.80" />
<polyline points="61.91000000000008,110.846 71.5,110.846" fill="" stroke="#000000" stroke-width="0.80" />
<polyline points="61.91000000000008,88.3465 71.5,88.3465" fill="" stroke="#000000" stroke-width="0.80" />
</svg>
