<?xml version="1.0" encoding="UTF-8" standalone="yes"?>
<svg width="256.0px" height="256.0px" xmlns="http://www.w3.org/2000/svg" xmlns:xlink="http://www.w3.org/1999/xlink" version="1.2" baseProfile="tiny">
<path d="M251.23000000000002,30.79200000000003 C251.0999999999999,30.69799999999998 250.94999999999982,30.591000000000008 250.80000000000018,30.47199999999998 C250.6500000000001,30.351999999999975 250.48000000000002,30.184999999999945 250.28999999999996,29.97199999999998 C250.11000000000013,29.758000000000038 249.94000000000005,29.53200000000004 249.78999999999996,29.29200000000003 C249.6500000000001,29.05200000000002 249.5300000000002,28.760999999999967 249.42999999999984,28.41700000000003 C249.34000000000015,28.07299999999998 249.28999999999996,27.71900000000005 249.28999999999996,27.354000000000042 C249.28999999999996,26.96900000000005 249.34000000000015,26.604000000000042 249.42999999999984,26.260999999999967 C249.5300000000002,25.91700000000003 249.63999999999987,25.633000000000038 249.7800000000002,25.408999999999992 C249.90999999999985,25.184999999999945 250.07999999999993,24.966000000000008 250.28999999999996,24.753000000000043 C250.48999999999978,24.538999999999987 250.65999999999985,24.383000000000038 250.78999999999996,24.283999999999992 C250.92999999999984,24.184999999999945 251.07999999999993,24.077999999999975 251.25,23.964000000000055 L251.32999999999993,24.089000000000055 C251.0999999999999,24.287000000000035 250.90999999999985,24.461000000000013 250.76000000000022,24.611999999999966 C250.6199999999999,24.763000000000034 250.48000000000002,24.964000000000055 250.34000000000015,25.214000000000055 C250.21000000000004,25.464000000000055 250.11000000000013,25.760999999999967 250.05000000000018,26.104000000000042 C249.98999999999978,26.44799999999998 249.9699999999998,26.860000000000014 249.9699999999998,27.339000000000055 C249.9699999999998,27.827999999999975 249.98999999999978,28.253000000000043 250.05000000000018,28.611999999999966 C250.11000000000013,28.97199999999998 250.21000000000004,29.275999999999954 250.34000000000015,29.525999999999954 C250.48000000000002,29.775999999999954 250.6199999999999,29.98199999999997 250.76000000000022,30.144000000000005 C250.90999999999985,30.30499999999995 251.0999999999999,30.474000000000046 251.32999999999993,30.650999999999954 L251.23000000000002,30.79200000000003 M251.76000000000022,27.66700000000003 C251.76000000000022,27.07299999999998 251.94000000000005,26.59699999999998 252.28999999999996,26.236999999999966 C252.63999999999987,25.878000000000043 253.03999999999996,25.69799999999998 253.51000000000022,25.69799999999998 C253.8499999999999,25.69799999999998 254.1300000000001,25.778999999999996 254.36000000000013,25.940000000000055 C254.5999999999999,26.101999999999975 254.7199999999998,26.297000000000025 254.7199999999998,26.525999999999954 C254.7199999999998,26.610000000000014 254.67999999999984,26.684999999999945 254.61000000000013,26.753000000000043 C254.5300000000002,26.821000000000026 254.44999999999982,26.854000000000042 254.34000000000015,26.854000000000042 C254.15999999999985,26.854000000000042 254.03999999999996,26.735000000000014 253.98000000000002,26.495000000000005 L253.92999999999984,26.32299999999998 C253.88999999999987,26.16700000000003 253.84000000000015,26.062999999999988 253.7800000000002,26.010999999999967 C253.7199999999998,25.958999999999946 253.61000000000013,25.932999999999993 253.4699999999998,25.932999999999993 C253.13999999999987,25.932999999999993 252.8800000000001,26.059999999999945 252.67999999999984,26.315000000000055 C252.48999999999978,26.571000000000026 252.38999999999987,26.90700000000004 252.38999999999987,27.32299999999998 C252.38999999999987,27.770999999999958 252.5,28.140999999999963 252.73000000000002,28.432999999999993 C252.96000000000004,28.724000000000046 253.26000000000022,28.870000000000005 253.6199999999999,28.870000000000005 C253.84000000000015,28.870000000000005 254.0300000000002,28.812999999999988 254.19000000000005,28.69799999999998 C254.3499999999999,28.583999999999946 254.5300000000002,28.390999999999963 254.7199999999998,28.120000000000005 L254.82999999999993,28.182999999999993 C254.76999999999998,28.297000000000025 254.73000000000002,28.388000000000034 254.69000000000005,28.456000000000017 C254.65999999999985,28.524 254.59000000000015,28.628000000000043 254.48000000000002,28.769000000000005 C254.3800000000001,28.908999999999992 254.2800000000002,29.020999999999958 254.17999999999984,29.104000000000042 C254.07999999999993,29.187999999999988 253.94999999999982,29.265999999999963 253.78999999999996,29.339000000000055 C253.6199999999999,29.412000000000035 253.46000000000004,29.44799999999998 253.2800000000002,29.44799999999998 C252.84000000000015,29.44799999999998 252.48000000000002,29.28200000000004 252.19000000000005,28.94799999999998 C251.90999999999985,28.61500000000001 251.76000000000022,28.187999999999988 251.76000000000022,27.66700000000003 M255.42999999999984,23.964000000000055 C255.57999999999993,24.047000000000025 255.73000000000002,24.149 255.8699999999999,24.269000000000005 C256.02,24.388000000000034 256.19000000000005,24.55499999999995 256.3800000000001,24.769000000000005 C256.57000000000016,24.98199999999997 256.7399999999998,25.211000000000013 256.8800000000001,25.456000000000017 C257.02,25.701000000000022 257.1399999999999,25.991999999999962 257.2399999999998,26.331000000000017 C257.34000000000015,26.66999999999996 257.3899999999999,27.025999999999954 257.3899999999999,27.400999999999954 C257.3899999999999,27.775999999999954 257.34000000000015,28.135999999999967 257.2399999999998,28.479000000000042 C257.1399999999999,28.82299999999998 257.0300000000002,29.110000000000014 256.9000000000001,29.339000000000055 C256.77,29.567999999999984 256.5999999999999,29.787000000000035 256.3899999999999,29.995000000000005 C256.17999999999984,30.202999999999975 256.0100000000002,30.360000000000014 255.8800000000001,30.464000000000055 C255.75,30.567999999999984 255.5999999999999,30.67700000000002 255.42000000000007,30.79200000000003 L255.34000000000015,30.650999999999954 C255.57999999999993,30.464000000000055 255.76999999999998,30.29200000000003 255.92000000000007,30.135999999999967 C256.07000000000016,29.979000000000042 256.1999999999998,29.778999999999996 256.3299999999999,29.533999999999992 C256.46000000000004,29.288999999999987 256.55999999999995,28.995000000000005 256.6100000000001,28.650999999999954 C256.6700000000001,28.307999999999993 256.6999999999998,27.895999999999958 256.6999999999998,27.41700000000003 C256.6999999999998,26.92700000000002 256.6700000000001,26.503000000000043 256.6100000000001,26.144000000000005 C256.55999999999995,25.783999999999992 256.46000000000004,25.476999999999975 256.3299999999999,25.22199999999998 C256.1999999999998,24.966000000000008 256.07000000000016,24.760999999999967 255.92000000000007,24.604000000000042 C255.76999999999998,24.44799999999998 255.57999999999993,24.275999999999954 255.34000000000015,24.089000000000055 L255.42999999999984,23.964000000000055 M261.2199999999998,24.635999999999967 C261.1100000000001,24.635999999999967 260.9200000000001,24.692999999999984 260.6399999999999,24.807999999999993 L260.6399999999999,24.69799999999998 L262.05999999999995,23.964000000000055 L262.1199999999999,23.979000000000042 L262.1199999999999,28.775999999999954 C262.1199999999999,28.974000000000046 262.1700000000001,29.101999999999975 262.27,29.158999999999992 C262.3699999999999,29.216000000000008 262.5799999999999,29.245000000000005 262.8899999999999,29.245000000000005 L262.8899999999999,29.370000000000005 L260.67999999999984,29.370000000000005 L260.67999999999984,29.245000000000005 C260.9899999999998,29.235000000000014 261.19000000000005,29.190000000000055 261.28999999999996,29.111999999999966 C261.4000000000001,29.033999999999992 261.4499999999998,28.870000000000005 261.4499999999998,28.620000000000005 L261.4499999999998,25.010999999999967 C261.4499999999998,24.760999999999967 261.3699999999999,24.635999999999967 261.2199999999998,24.635999999999967 M264.1999999999998,29.54200000000003 L264.17999999999984,29.385999999999967 C264.78999999999996,29.28200000000004 265.3000000000002,29.024 265.7199999999998,28.611999999999966 C266.1500000000001,28.201000000000022 266.44000000000005,27.66700000000003 266.6100000000001,27.010999999999967 C266.21000000000004,27.32299999999998 265.80999999999995,27.479000000000042 265.4000000000001,27.479000000000042 C264.98,27.479000000000042 264.6300000000001,27.327999999999975 264.3600000000001,27.025999999999954 C264.0999999999999,26.724000000000046 263.9699999999998,26.333999999999946 263.9699999999998,25.854000000000042 C263.9699999999998,25.312999999999988 264.1199999999999,24.860000000000014 264.44000000000005,24.495000000000005 C264.7600000000002,24.129999999999995 265.15999999999985,23.94799999999998 265.6399999999999,23.94799999999998 C266.1700000000001,23.94799999999998 266.5999999999999,24.158999999999992 266.92999999999984,24.581000000000017 C267.27,25.003000000000043 267.42999999999984,25.547000000000025 267.42999999999984,26.214000000000055 C267.42999999999984,26.432999999999993 267.4200000000001,26.653999999999996 267.3800000000001,26.878000000000043 C267.34000000000015,27.101999999999975 267.2600000000002,27.366999999999962 267.1199999999999,27.674999999999955 C266.9899999999998,27.98199999999997 266.80999999999995,28.254999999999995 266.5799999999999,28.495000000000005 C266.3600000000001,28.735000000000014 266.03999999999996,28.952999999999975 265.6399999999999,29.150999999999954 C265.23,29.349000000000046 264.75,29.479000000000042 264.1999999999998,29.54200000000003 M265.6999999999998,27.120000000000005 C265.8000000000002,27.120000000000005 265.9200000000001,27.10699999999997 266.03999999999996,27.081000000000017 C266.1700000000001,27.05499999999995 266.3000000000002,26.991999999999962 266.42999999999984,26.894000000000005 C266.55999999999995,26.79499999999996 266.6199999999999,26.672000000000025 266.6199999999999,26.525999999999954 L266.6199999999999,26.214000000000055 C266.6199999999999,24.860000000000014 266.27,24.182999999999993 265.5799999999999,24.182999999999993 C265.40999999999985,24.182999999999993 265.27,24.226999999999975 265.1500000000001,24.315000000000055 C265.0300000000002,24.403999999999996 264.94000000000005,24.520999999999958 264.8800000000001,24.66700000000003 C264.82000000000016,24.812999999999988 264.7800000000002,24.958999999999946 264.75,25.104000000000042 C264.7199999999998,25.25 264.6999999999998,25.40700000000004 264.6999999999998,25.57299999999998 C264.6999999999998,26.05200000000002 264.78999999999996,26.42999999999995 264.9699999999998,26.706000000000017 C265.15999999999985,26.98199999999997 265.4000000000001,27.120000000000005 265.6999999999998,27.120000000000005 M269.7800000000002,29.479000000000042 C269.2399999999998,29.479000000000042 268.8000000000002,29.265999999999963 268.4699999999998,28.839000000000055 C268.1500000000001,28.412000000000035 267.98,27.84400000000005 267.98,27.135999999999967 C267.98,26.91700000000003 268.0100000000002,26.692999999999984 268.0500000000002,26.464000000000055 C268.0999999999999,26.235000000000014 268.19000000000005,25.97199999999998 268.3299999999999,25.674999999999955 C268.4699999999998,25.378000000000043 268.65999999999985,25.111999999999966 268.9000000000001,24.878000000000043 C269.1300000000001,24.644000000000005 269.4499999999998,24.434999999999945 269.8600000000001,24.253000000000043 C270.2800000000002,24.071000000000026 270.75,23.952999999999975 271.28999999999996,23.900999999999954 L271.30999999999995,24.025999999999954 C270.6700000000001,24.129999999999995 270.1500000000001,24.385999999999967 269.7199999999998,24.79200000000003 C269.3000000000002,25.19799999999998 269.0300000000002,25.702999999999975 268.9200000000001,26.307999999999993 C269.1700000000001,26.162000000000035 269.3600000000001,26.067999999999984 269.4899999999998,26.025999999999954 C269.6199999999999,25.985000000000014 269.77,25.964000000000055 269.9499999999998,25.964000000000055 C270.4200000000001,25.964000000000055 270.78999999999996,26.111999999999966 271.07000000000016,26.408999999999992 C271.34000000000015,26.706000000000017 271.48,27.104000000000042 271.48,27.604000000000042 C271.48,28.15700000000004 271.32000000000016,28.60699999999997 271.0100000000002,28.956000000000017 C270.69000000000005,29.30499999999995 270.2800000000002,29.479000000000042 269.7800000000002,29.479000000000042 M269.6500000000001,26.32299999999998 C269.28999999999996,26.32299999999998 269.03999999999996,26.400999999999954 268.90999999999985,26.557999999999993 C268.7800000000002,26.714000000000055 268.7199999999998,26.94799999999998 268.7199999999998,27.260999999999967 C268.7199999999998,27.875 268.82000000000016,28.360000000000014 269.0300000000002,28.714000000000055 C269.2399999999998,29.067999999999984 269.5100000000002,29.245000000000005 269.8600000000001,29.245000000000005 C270.1500000000001,29.245000000000005 270.3699999999999,29.128000000000043 270.5100000000002,28.894000000000005 C270.65999999999985,28.658999999999992 270.73,28.32299999999998 270.73,27.885999999999967 C270.73,27.385999999999967 270.6399999999999,27.0 270.4499999999998,26.729000000000042 C270.2600000000002,26.458999999999946 270.0,26.32299999999998 269.6500000000001,26.32299999999998 M274.0300000000002,26.400999999999954 C274.52,26.754999999999995 274.8499999999999,27.05200000000002 275.02,27.29200000000003 C275.19000000000005,27.53200000000004 275.2800000000002,27.807999999999993 275.2800000000002,28.120000000000005 C275.2800000000002,28.537000000000035 275.1399999999999,28.866999999999962 274.8499999999999,29.111999999999966 C274.55999999999995,29.35699999999997 274.17999999999984,29.479000000000042 273.6999999999998,29.479000000000042 C273.2399999999998,29.479000000000042 272.8699999999999,29.35699999999997 272.5799999999999,29.111999999999966 C272.3000000000002,28.866999999999962 272.1500000000001,28.547000000000025 272.1500000000001,28.150999999999954 C272.1500000000001,27.879999999999995 272.2199999999998,27.653999999999996 272.3499999999999,27.47199999999998 C272.48,27.288999999999987 272.7600000000002,27.037000000000035 273.1999999999998,26.714000000000055 C272.77,26.339000000000055 272.5,26.062999999999988 272.3800000000001,25.885999999999967 C272.2600000000002,25.708999999999946 272.1999999999998,25.49000000000001 272.1999999999998,25.229000000000042 C272.1999999999998,24.86500000000001 272.34000000000015,24.559999999999945 272.6300000000001,24.315000000000055 C272.9200000000001,24.071000000000026 273.2800000000002,23.94799999999998 273.73,23.94799999999998 C274.1300000000001,23.94799999999998 274.4499999999998,24.05499999999995 274.71000000000004,24.269000000000005 C274.96000000000004,24.48199999999997 275.09000000000015,24.760999999999967 275.09000000000015,25.104000000000042 C275.09000000000015,25.375 275.0100000000002,25.604000000000042 274.8600000000001,25.79200000000003 C274.6999999999998,25.979000000000042 274.4200000000001,26.182999999999993 274.0300000000002,26.400999999999954 M273.4000000000001,26.870000000000005 C273.1700000000001,27.057999999999993 273.0100000000002,27.241999999999962 272.9200000000001,27.424999999999955 C272.8299999999999,27.60699999999997 272.7800000000002,27.827999999999975 272.7800000000002,28.089000000000055 C272.7800000000002,28.432999999999993 272.8699999999999,28.711000000000013 273.0500000000002,28.924999999999955 C273.23,29.138000000000034 273.48,29.245000000000005 273.7800000000002,29.245000000000005 C274.03999999999996,29.245000000000005 274.25,29.163999999999987 274.40999999999985,29.003000000000043 C274.57000000000016,28.841000000000008 274.6500000000001,28.629999999999995 274.6500000000001,28.370000000000005 C274.6500000000001,28.287000000000035 274.6500000000001,28.206000000000017 274.6300000000001,28.128000000000043 C274.6100000000001,28.049999999999955 274.5999999999999,27.985000000000014 274.5799999999999,27.932999999999993 C274.5500000000002,27.879999999999995 274.52,27.817999999999984 274.46000000000004,27.745000000000005 C274.4000000000001,27.672000000000025 274.3600000000001,27.616999999999962 274.3299999999999,27.581000000000017 C274.28999999999996,27.54499999999996 274.23,27.486999999999966 274.1500000000001,27.408999999999992 C274.05999999999995,27.331000000000017 273.9899999999998,27.275999999999954 273.94000000000005,27.245000000000005 C273.9000000000001,27.214000000000055 273.80999999999995,27.153999999999996 273.67999999999984,27.065000000000055 C273.55999999999995,26.976999999999975 273.4699999999998,26.912000000000035 273.4000000000001,26.870000000000005 M273.78999999999996,26.260999999999967 C273.8000000000002,26.25 273.84000000000015,26.22199999999998 273.90999999999985,26.174999999999955 C273.98,26.128000000000043 274.0300000000002,26.091000000000008 274.0500000000002,26.065000000000055 C274.0799999999999,26.038999999999987 274.1199999999999,26.0 274.17999999999984,25.94799999999998 C274.25,25.895999999999958 274.28999999999996,25.84400000000005 274.3299999999999,25.79200000000003 C274.3600000000001,25.74000000000001 274.3899999999999,25.67700000000002 274.42999999999984,25.604000000000042 C274.48,25.53200000000004 274.5100000000002,25.451000000000022 274.52,25.361999999999966 C274.53999999999996,25.274 274.53999999999996,25.182999999999993 274.53999999999996,25.089000000000055 C274.53999999999996,24.817999999999984 274.4699999999998,24.599000000000046 274.30999999999995,24.432999999999993 C274.1500000000001,24.265999999999963 273.94000000000005,24.182999999999993 273.6700000000001,24.182999999999993 C273.4200000000001,24.182999999999993 273.21000000000004,24.258000000000038 273.0500000000002,24.408999999999992 C272.8899999999999,24.559999999999945 272.80999999999995,24.75 272.80999999999995,24.979000000000042 C272.80999999999995,25.19799999999998 272.8899999999999,25.40700000000004 273.03999999999996,25.604000000000042 C273.19000000000005,25.80200000000002 273.44000000000005,26.020999999999958 273.78999999999996,26.260999999999967 M283.1500000000001,26.69799999999998 C283.1500000000001,26.937999999999988 283.1199999999999,27.172000000000025 283.07000000000016,27.400999999999954 C283.0100000000002,27.629999999999995 282.90999999999985,27.866999999999962 282.77,28.111999999999966 C282.6300000000001,28.35699999999997 282.4499999999998,28.567999999999984 282.2199999999998,28.745000000000005 C282.0,28.922000000000025 281.6999999999998,29.071000000000026 281.3299999999999,29.190000000000055 C280.9499999999998,29.309999999999945 280.5300000000002,29.370000000000005 280.05999999999995,29.370000000000005 L277.78999999999996,29.370000000000005 L277.78999999999996,29.214000000000055 C278.0999999999999,29.192999999999984 278.28999999999996,29.140999999999963 278.3699999999999,29.057999999999993 C278.46000000000004,28.974000000000046 278.5,28.787000000000035 278.5,28.495000000000005 L278.5,24.94799999999998 C278.5,24.65700000000004 278.46000000000004,24.47199999999998 278.3800000000001,24.394000000000005 C278.3000000000002,24.315000000000055 278.1100000000001,24.260999999999967 277.78999999999996,24.229000000000042 L277.78999999999996,24.07299999999998 L279.9499999999998,24.07299999999998 C280.44000000000005,24.07299999999998 280.8699999999999,24.128000000000043 281.2600000000002,24.236999999999966 C281.6399999999999,24.34699999999998 281.94000000000005,24.486999999999966 282.17999999999984,24.658999999999992 C282.40999999999985,24.831000000000017 282.5999999999999,25.037000000000035 282.7600000000002,25.275999999999954 C282.90999999999985,25.515999999999963 283.0100000000002,25.75 283.07000000000016,25.979000000000042 C283.1199999999999,26.208999999999946 283.1500000000001,26.44799999999998 283.1500000000001,26.69799999999998 M282.2600000000002,26.760999999999967 C282.2600000000002,26.53200000000004 282.2399999999998,26.309999999999945 282.1999999999998,26.09699999999998 C282.15999999999985,25.883000000000038 282.0799999999999,25.66999999999996 281.96000000000004,25.456000000000017 C281.84000000000015,25.241999999999962 281.67999999999984,25.059999999999945 281.5,24.908999999999992 C281.30999999999995,24.758000000000038 281.07000000000016,24.633000000000038 280.7600000000002,24.533999999999992 C280.46000000000004,24.434999999999945 280.1199999999999,24.385999999999967 279.73,24.385999999999967 C279.57000000000016,24.385999999999967 279.4499999999998,24.40700000000004 279.4000000000001,24.44799999999998 C279.34000000000015,24.49000000000001 279.30999999999995,24.57299999999998 279.30999999999995,24.69799999999998 L279.30999999999995,28.745000000000005 C279.30999999999995,28.870000000000005 279.34000000000015,28.956000000000017 279.4000000000001,29.003000000000043 C279.4499999999998,29.049999999999955 279.57000000000016,29.07299999999998 279.73,29.07299999999998 C281.4200000000001,29.07299999999998 282.2600000000002,28.30200000000002 282.2600000000002,26.760999999999967 M286.09000000000015,26.885999999999967 C285.96000000000004,26.458999999999946 285.8499999999999,26.190000000000055 285.77,26.081000000000017 C285.69000000000005,25.97199999999998 285.57000000000016,25.90700000000004 285.3899999999999,25.885999999999967 L285.3899999999999,25.775999999999954 L287.0100000000002,25.775999999999954 L287.0100000000002,25.885999999999967 C286.8299999999999,25.91700000000003 286.6999999999998,25.951000000000022 286.6399999999999,25.986999999999966 C286.5799999999999,26.024 286.53999999999996,26.089000000000055 286.53999999999996,26.182999999999993 C286.53999999999996,26.245000000000005 286.59000000000015,26.400999999999954 286.67999999999984,26.650999999999954 L287.3600000000001,28.44799999999998 L288.0799999999999,26.66700000000003 C288.1700000000001,26.44799999999998 288.2199999999998,26.270999999999958 288.2199999999998,26.135999999999967 C288.2199999999998,26.07299999999998 288.19000000000005,26.024 288.1399999999999,25.986999999999966 C288.09000000000015,25.951000000000022 287.9899999999998,25.91700000000003 287.8600000000001,25.885999999999967 L287.8600000000001,25.775999999999954 L288.84000000000015,25.775999999999954 L288.84000000000015,25.885999999999967 C288.7600000000002,25.91700000000003 288.6999999999998,25.956000000000017 288.6700000000001,26.003000000000043 C288.6399999999999,26.049999999999955 288.59000000000015,26.15700000000004 288.5100000000002,26.32299999999998 L287.4000000000001,29.089000000000055 C287.3000000000002,29.349000000000046 287.23,29.479000000000042 287.17999999999984,29.479000000000042 C287.1399999999999,29.479000000000042 287.0799999999999,29.36500000000001 287.0,29.135999999999967 L286.2600000000002,27.245000000000005 L285.3699999999999,29.16700000000003 C285.2800000000002,29.375 285.21000000000004,29.479000000000042 285.1700000000001,29.479000000000042 C285.1300000000001,29.479000000000042 285.05999999999995,29.36500000000001 284.9699999999998,29.135999999999967 L283.8899999999999,26.400999999999954 C283.8000000000002,26.192999999999984 283.7399999999998,26.057999999999993 283.67999999999984,25.995000000000005 C283.6300000000001,25.932999999999993 283.55999999999995,25.895999999999958 283.4699999999998,25.885999999999967 L283.4699999999998,25.775999999999954 L284.9000000000001,25.775999999999954 L284.9000000000001,25.885999999999967 C284.7600000000002,25.90700000000004 284.65999999999985,25.934999999999945 284.6100000000001,25.97199999999998 C284.5500000000002,26.008000000000038 284.5300000000002,26.067999999999984 284.5300000000002,26.150999999999954 C284.5300000000002,26.235000000000014 284.53999999999996,26.317999999999984 284.5799999999999,26.400999999999954 L285.3699999999999,28.479000000000042 L286.09000000000015,26.885999999999967 M289.1100000000001,28.57299999999998 C289.1100000000001,28.479000000000042 289.1199999999999,28.394000000000005 289.1399999999999,28.315000000000055 C289.15999999999985,28.236999999999966 289.1999999999998,28.162000000000035 289.25,28.089000000000055 C289.3000000000002,28.015999999999963 289.3499999999999,27.951000000000022 289.4000000000001,27.894000000000005 C289.46000000000004,27.836000000000013 289.5300000000002,27.775999999999954 289.6199999999999,27.714000000000055 C289.7199999999998,27.650999999999954 289.78999999999996,27.599000000000046 289.8600000000001,27.557999999999993 C289.9200000000001,27.515999999999963 290.0100000000002,27.46900000000005 290.1399999999999,27.41700000000003 C290.2600000000002,27.36500000000001 290.3600000000001,27.32299999999998 290.42999999999984,27.29200000000003 C290.4899999999998,27.260999999999967 290.5999999999999,27.216000000000008 290.7600000000002,27.158999999999992 C290.90999999999985,27.101999999999975 291.0100000000002,27.057999999999993 291.0799999999999,27.025999999999954 L291.0799999999999,26.54200000000003 C291.0799999999999,26.104000000000042 290.8800000000001,25.885999999999967 290.48,25.885999999999967 C290.32000000000016,25.885999999999967 290.17999999999984,25.924999999999955 290.07000000000016,26.003000000000043 C289.96000000000004,26.081000000000017 289.9000000000001,26.172000000000025 289.9000000000001,26.275999999999954 C289.9000000000001,26.317999999999984 289.90999999999985,26.375 289.92999999999984,26.44799999999998 C289.94000000000005,26.520999999999958 289.9499999999998,26.567999999999984 289.9499999999998,26.589000000000055 C289.9499999999998,26.682999999999993 289.90999999999985,26.763000000000034 289.84000000000015,26.831000000000017 C289.77,26.899 289.67999999999984,26.932999999999993 289.5799999999999,26.932999999999993 C289.48,26.932999999999993 289.4000000000001,26.899 289.3299999999999,26.831000000000017 C289.27,26.763000000000034 289.23,26.682999999999993 289.23,26.589000000000055 C289.23,26.339000000000055 289.3600000000001,26.128000000000043 289.6199999999999,25.956000000000017 C289.8800000000001,25.783999999999992 290.1999999999998,25.69799999999998 290.5799999999999,25.69799999999998 C291.0,25.69799999999998 291.3000000000002,25.80200000000002 291.46000000000004,26.010999999999967 C291.6199999999999,26.21900000000005 291.6999999999998,26.537000000000035 291.6999999999998,26.964000000000055 L291.6999999999998,28.510999999999967 C291.6999999999998,28.687999999999988 291.7199999999998,28.809999999999945 291.7600000000002,28.878000000000043 C291.78999999999996,28.946000000000026 291.8600000000001,28.979000000000042 291.9499999999998,28.979000000000042 C292.0500000000002,28.979000000000042 292.1700000000001,28.92700000000002 292.28999999999996,28.82299999999998 L292.28999999999996,29.04200000000003 C292.15999999999985,29.19799999999998 292.03999999999996,29.30499999999995 291.92999999999984,29.361999999999966 C291.8299999999999,29.41999999999996 291.71000000000004,29.44799999999998 291.5799999999999,29.44799999999998 C291.4200000000001,29.44799999999998 291.3000000000002,29.400999999999954 291.23,29.307999999999993 C291.15999999999985,29.214000000000055 291.1100000000001,29.062999999999988 291.09000000000015,28.854000000000042 C290.6300000000001,29.25 290.25,29.44799999999998 289.92999999999984,29.44799999999998 C289.6999999999998,29.44799999999998 289.5,29.366999999999962 289.34000000000015,29.206000000000017 C289.17999999999984,29.04499999999996 289.1100000000001,28.833999999999946 289.1100000000001,28.57299999999998 M291.0799999999999,28.370000000000005 L291.0799999999999,27.214000000000055 C290.5999999999999,27.390999999999963 290.2600000000002,27.562999999999988 290.0799999999999,27.729000000000042 C289.8899999999999,27.895999999999958 289.78999999999996,28.09400000000005 289.78999999999996,28.32299999999998 C289.78999999999996,28.54200000000003 289.8499999999999,28.702999999999975 289.9499999999998,28.807999999999993 C290.0500000000002,28.912000000000035 290.1700000000001,28.964000000000055 290.28999999999996,28.964000000000055 C290.4699999999998,28.964000000000055 290.65999999999985,28.90700000000004 290.8699999999999,28.79200000000003 C290.96000000000004,28.74000000000001 291.0100000000002,28.687999999999988 291.03999999999996,28.635999999999967 C291.05999999999995,28.583999999999946 291.0799999999999,28.495000000000005 291.0799999999999,28.370000000000005 M294.7600000000002,26.44799999999998 C294.67999999999984,26.44799999999998 294.5799999999999,26.400999999999954 294.46000000000004,26.307999999999993 C294.34000000000015,26.214000000000055 294.2600000000002,26.16700000000003 294.23,26.16700000000003 C294.1300000000001,26.16700000000003 294.0100000000002,26.245000000000005 293.8699999999999,26.400999999999954 C293.7399999999998,26.557999999999993 293.6700000000001,26.702999999999975 293.6700000000001,26.839000000000055 L293.6700000000001,28.650999999999954 C293.6700000000001,28.879999999999995 293.71000000000004,29.033999999999992 293.8000000000002,29.111999999999966 C293.8899999999999,29.190000000000055 294.07000000000016,29.235000000000014 294.34000000000015,29.245000000000005 L294.34000000000015,29.370000000000005 L292.4200000000001,29.370000000000005 L292.4200000000001,29.245000000000005 C292.67999999999984,29.202999999999975 292.84000000000015,29.150999999999954 292.9000000000001,29.089000000000055 C292.9499999999998,29.025999999999954 292.98,28.895999999999958 292.98,28.69799999999998 L292.98,26.682999999999993 C292.98,26.504999999999995 292.96000000000004,26.379999999999995 292.92999999999984,26.307999999999993 C292.8899999999999,26.235000000000014 292.82000000000016,26.19799999999998 292.7199999999998,26.19799999999998 C292.6300000000001,26.19799999999998 292.53999999999996,26.208999999999946 292.42999999999984,26.229000000000042 L292.42999999999984,26.104000000000042 C292.8600000000001,25.96900000000005 293.2600000000002,25.833999999999946 293.6199999999999,25.69799999999998 L293.6700000000001,25.714000000000055 L293.6700000000001,26.41700000000003 C293.8699999999999,26.145999999999958 294.0300000000002,25.958999999999946 294.1700000000001,25.854000000000042 C294.3000000000002,25.75 294.46000000000004,25.69799999999998 294.6199999999999,25.69799999999998 C294.77,25.69799999999998 294.8800000000001,25.73199999999997 294.9499999999998,25.799999999999955 C295.02,25.866999999999962 295.05999999999995,25.96900000000005 295.05999999999995,26.104000000000042 C295.05999999999995,26.208999999999946 295.0300000000002,26.29200000000003 294.98,26.354000000000042 C294.92999999999984,26.41700000000003 294.8600000000001,26.44799999999998 294.7600000000002,26.44799999999998 M297.75,24.729000000000042 C297.65999999999985,24.729000000000042 297.59000000000015,24.69799999999998 297.5300000000002,24.635999999999967 C297.4699999999998,24.57299999999998 297.4200000000001,24.504999999999995 297.3800000000001,24.432999999999993 C297.34000000000015,24.360000000000014 297.28999999999996,24.29200000000003 297.2199999999998,24.229000000000042 C297.1399999999999,24.16700000000003 297.05999999999995,24.135999999999967 296.9699999999998,24.135999999999967 C296.65999999999985,24.135999999999967 296.5100000000002,24.370000000000005 296.5100000000002,24.839000000000055 L296.5100000000002,25.775999999999954 L297.5,25.775999999999954 L297.5,26.010999999999967 L296.5100000000002,26.010999999999967 L296.5100000000002,28.54200000000003 C296.5100000000002,28.833999999999946 296.5500000000002,29.020999999999958 296.6399999999999,29.104000000000042 C296.7199999999998,29.187999999999988 296.92999999999984,29.235000000000014 297.2600000000002,29.245000000000005 L297.2600000000002,29.370000000000005 L295.1700000000001,29.370000000000005 L295.1700000000001,29.245000000000005 C295.46000000000004,29.235000000000014 295.6500000000001,29.187999999999988 295.7199999999998,29.104000000000042 C295.8000000000002,29.020999999999958 295.84000000000015,28.833999999999946 295.84000000000015,28.54200000000003 L295.84000000000015,26.010999999999967 L295.17999999999984,26.010999999999967 L295.17999999999984,25.775999999999954 L295.84000000000015,25.775999999999954 C295.8499999999999,25.172000000000025 295.96000000000004,24.706000000000017 296.17999999999984,24.378000000000043 C296.3899999999999,24.049999999999955 296.75,23.885999999999967 297.25,23.885999999999967 C297.4899999999998,23.885999999999967 297.67999999999984,23.934999999999945 297.84000000000015,24.033999999999992 C298.0,24.133000000000038 298.0799999999999,24.254999999999995 298.0799999999999,24.400999999999954 C298.0799999999999,24.495000000000005 298.03999999999996,24.57299999999998 297.98,24.635999999999967 C297.9200000000001,24.69799999999998 297.84000000000015,24.729000000000042 297.75,24.729000000000042 M305.4499999999998,24.79200000000003 L303.4000000000001,29.370000000000005 L303.28999999999996,29.370000000000005 L301.28999999999996,24.979000000000042 L301.28999999999996,28.19799999999998 C301.28999999999996,28.604000000000042 301.34000000000015,28.873000000000047 301.42999999999984,29.003000000000043 C301.5300000000002,29.133000000000038 301.73,29.202999999999975 302.03999999999996,29.214000000000055 L302.03999999999996,29.370000000000005 L300.1700000000001,29.370000000000005 L300.1700000000001,29.214000000000055 C300.4899999999998,29.192999999999984 300.6999999999998,29.120000000000005 300.78999999999996,28.995000000000005 C300.8899999999999,28.870000000000005 300.92999999999984,28.604000000000042 300.92999999999984,28.19799999999998 L300.92999999999984,24.94799999999998 C300.92999999999984,24.65700000000004 300.8899999999999,24.46900000000005 300.8000000000002,24.385999999999967 C300.71000000000004,24.30200000000002 300.5100000000002,24.25 300.17999999999984,24.229000000000042 L300.17999999999984,24.07299999999998 L301.7600000000002,24.07299999999998 L303.6100000000001,28.120000000000005 L305.3699999999999,24.07299999999998 L306.9699999999998,24.07299999999998 L306.9699999999998,24.229000000000042 C306.65999999999985,24.260999999999967 306.4699999999998,24.317999999999984 306.4000000000001,24.400999999999954 C306.32000000000016,24.485000000000014 306.2800000000002,24.66700000000003 306.2800000000002,24.94799999999998 L306.2800000000002,28.495000000000005 C306.2800000000002,28.775999999999954 306.32000000000016,28.961000000000013 306.4000000000001,29.049999999999955 C306.4899999999998,29.138000000000034 306.6700000000001,29.192999999999984 306.9699999999998,29.214000000000055 L306.9699999999998,29.370000000000005 L304.73,29.370000000000005 L304.73,29.214000000000055 C305.03999999999996,29.192999999999984 305.2399999999998,29.135999999999967 305.3299999999999,29.04200000000003 C305.40999999999985,28.94799999999998 305.4499999999998,28.74000000000001 305.4499999999998,28.41700000000003 L305.4499999999998,24.79200000000003 M310.92999999999984,28.94799999999998 L310.92999999999984,29.07299999999998 C310.52,29.187999999999988 310.1500000000001,29.312999999999988 309.84000000000015,29.44799999999998 L309.80999999999995,29.432999999999993 L309.78999999999996,28.745000000000005 C309.7800000000002,28.765999999999963 309.7399999999998,28.815000000000055 309.65999999999985,28.894000000000005 C309.5799999999999,28.97199999999998 309.5300000000002,29.025999999999954 309.5,29.057999999999993 C309.4699999999998,29.089000000000055 309.40999999999985,29.135999999999967 309.3299999999999,29.19799999999998 C309.2600000000002,29.260999999999967 309.19000000000005,29.30499999999995 309.1300000000001,29.331000000000017 C309.07000000000016,29.35699999999997 309.0,29.383000000000038 308.90999999999985,29.408999999999992 C308.82000000000016,29.434999999999945 308.73,29.44799999999998 308.6399999999999,29.44799999999998 C308.3499999999999,29.44799999999998 308.1100000000001,29.351999999999975 307.92999999999984,29.158999999999992 C307.7600000000002,28.966000000000008 307.6700000000001,28.714000000000055 307.6700000000001,28.400999999999954 L307.6700000000001,26.385999999999967 C307.6700000000001,26.208999999999946 307.6399999999999,26.083999999999946 307.57000000000016,26.010999999999967 C307.5,25.937999999999988 307.3699999999999,25.895999999999958 307.1700000000001,25.885999999999967 L307.1700000000001,25.775999999999954 L308.34000000000015,25.775999999999954 L308.34000000000015,28.370000000000005 C308.34000000000015,28.525999999999954 308.4000000000001,28.663999999999987 308.5100000000002,28.783999999999992 C308.6300000000001,28.903999999999996 308.7600000000002,28.964000000000055 308.9000000000001,28.964000000000055 C308.9699999999998,28.964000000000055 309.03999999999996,28.956000000000017 309.1100000000001,28.940000000000055 C309.19000000000005,28.924999999999955 309.2800000000002,28.895999999999958 309.3899999999999,28.854000000000042 C309.4899999999998,28.812999999999988 309.5799999999999,28.741999999999962 309.6500000000001,28.644000000000005 C309.73,28.54499999999996 309.7600000000002,28.422000000000025 309.7600000000002,28.275999999999954 L309.7600000000002,26.400999999999954 C309.7600000000002,26.214000000000055 309.73,26.086000000000013 309.6500000000001,26.019000000000005 C309.5799999999999,25.951000000000022 309.4200000000001,25.912000000000035 309.1700000000001,25.900999999999954 L309.1700000000001,25.775999999999954 L310.42999999999984,25.775999999999954 L310.42999999999984,28.495000000000005 C310.42999999999984,28.682999999999993 310.4699999999998,28.80499999999995 310.5300000000002,28.861999999999966 C310.59000000000015,28.91999999999996 310.7199999999998,28.94799999999998 310.9000000000001,28.94799999999998 L310.92999999999984,28.94799999999998 M313.1399999999999,25.854000000000042 C313.1500000000001,25.854000000000042 313.19000000000005,25.827999999999975 313.2600000000002,25.775999999999954 L313.3600000000001,25.775999999999954 L313.3899999999999,26.854000000000042 L313.2600000000002,26.854000000000042 C313.17999999999984,26.5 313.07000000000016,26.248000000000047 312.92999999999984,26.09699999999998 C312.8000000000002,25.946000000000026 312.6199999999999,25.870000000000005 312.3899999999999,25.870000000000005 C312.21000000000004,25.870000000000005 312.07000000000016,25.922000000000025 311.9499999999998,26.025999999999954 C311.84000000000015,26.129999999999995 311.7800000000002,26.260999999999967 311.7800000000002,26.41700000000003 C311.7800000000002,26.645999999999958 311.8899999999999,26.827999999999975 312.1199999999999,26.964000000000055 L312.98,27.479000000000042 C313.2199999999998,27.625 313.3899999999999,27.770999999999958 313.5,27.91700000000003 C313.5999999999999,28.062999999999988 313.6500000000001,28.235000000000014 313.6500000000001,28.432999999999993 C313.6500000000001,28.702999999999975 313.53999999999996,28.940000000000055 313.32000000000016,29.144000000000005 C313.09000000000015,29.34699999999998 312.8299999999999,29.44799999999998 312.5300000000002,29.44799999999998 C312.3899999999999,29.44799999999998 312.21000000000004,29.424999999999955 311.9899999999998,29.378000000000043 C311.77,29.331000000000017 311.6300000000001,29.307999999999993 311.5799999999999,29.307999999999993 C311.4899999999998,29.307999999999993 311.42999999999984,29.339000000000055 311.3899999999999,29.400999999999954 L311.2800000000002,29.400999999999954 L311.2800000000002,28.150999999999954 L311.4200000000001,28.150999999999954 C311.5,28.525999999999954 311.5999999999999,28.79200000000003 311.7199999999998,28.94799999999998 C311.8800000000001,29.16700000000003 312.1199999999999,29.275999999999954 312.42999999999984,29.275999999999954 C312.6300000000001,29.275999999999954 312.78999999999996,29.224000000000046 312.90999999999985,29.120000000000005 C313.0300000000002,29.015999999999963 313.09000000000015,28.875 313.09000000000015,28.69799999999998 C313.09000000000015,28.458999999999946 312.9499999999998,28.260999999999967 312.6700000000001,28.104000000000042 L312.2199999999998,27.839000000000055 C311.8699999999999,27.640999999999963 311.6300000000001,27.456000000000017 311.4899999999998,27.283999999999992 C311.3499999999999,27.111999999999966 311.2800000000002,26.912000000000035 311.2800000000002,26.682999999999993 C311.2800000000002,26.390999999999963 311.3800000000001,26.153999999999996 311.5799999999999,25.97199999999998 C311.78999999999996,25.788999999999987 312.0500000000002,25.69799999999998 312.3699999999999,25.69799999999998 C312.53999999999996,25.69799999999998 312.6999999999998,25.724000000000046 312.8600000000001,25.775999999999954 C313.0100000000002,25.827999999999975 313.1100000000001,25.854000000000042 313.1399999999999,25.854000000000042 M314.4200000000001,26.229000000000042 C314.28999999999996,26.229000000000042 314.17999999999984,26.235000000000014 314.0799999999999,26.245000000000005 L314.0799999999999,26.135999999999967 C314.4499999999998,26.03200000000004 314.8699999999999,25.885999999999967 315.3299999999999,25.69799999999998 L315.3600000000001,25.714000000000055 L315.3600000000001,28.557999999999993 C315.3600000000001,28.839000000000055 315.3899999999999,29.019000000000005 315.46000000000004,29.09699999999998 C315.5300000000002,29.174999999999955 315.69000000000005,29.224000000000046 315.9499999999998,29.245000000000005 L315.9499999999998,29.370000000000005 L314.03999999999996,29.370000000000005 L314.03999999999996,29.245000000000005 C314.3299999999999,29.235000000000014 314.5,29.187999999999988 314.5799999999999,29.104000000000042 C314.6500000000001,29.020999999999958 314.67999999999984,28.839000000000055 314.67999999999984,28.557999999999993 L314.67999999999984,26.69799999999998 C314.67999999999984,26.520999999999958 314.65999999999985,26.399 314.6199999999999,26.331000000000017 C314.5799999999999,26.263000000000034 314.5100000000002,26.229000000000042 314.4200000000001,26.229000000000042 M314.9499999999998,23.900999999999954 C315.07000000000016,23.900999999999954 315.15999999999985,23.942999999999984 315.25,24.025999999999954 C315.3299999999999,24.110000000000014 315.3699999999999,24.208999999999946 315.3699999999999,24.32299999999998 C315.3699999999999,24.437999999999988 315.3299999999999,24.533999999999992 315.25,24.611999999999966 C315.15999999999985,24.690000000000055 315.07000000000016,24.729000000000042 314.9499999999998,24.729000000000042 C314.84000000000015,24.729000000000042 314.7399999999998,24.687999999999988 314.65999999999985,24.604000000000042 C314.5799999999999,24.520999999999958 314.53999999999996,24.424999999999955 314.53999999999996,24.315000000000055 C314.53999999999996,24.206000000000017 314.5799999999999,24.110000000000014 314.65999999999985,24.025999999999954 C314.7399999999998,23.942999999999984 314.84000000000015,23.900999999999954 314.9499999999998,23.900999999999954 M316.34000000000015,27.66700000000003 C316.34000000000015,27.07299999999998 316.52,26.59699999999998 316.8600000000001,26.236999999999966 C317.21000000000004,25.878000000000043 317.6199999999999,25.69799999999998 318.09000000000015,25.69799999999998 C318.4200000000001,25.69799999999998 318.71000000000004,25.778999999999996 318.94000000000005,25.940000000000055 C319.17999999999984,26.101999999999975 319.28999999999996,26.297000000000025 319.28999999999996,26.525999999999954 C319.28999999999996,26.610000000000014 319.2600000000002,26.684999999999945 319.17999999999984,26.753000000000043 C319.1100000000001,26.821000000000026 319.02,26.854000000000042 318.9200000000001,26.854000000000042 C318.7399999999998,26.854000000000042 318.6199999999999,26.735000000000014 318.55999999999995,26.495000000000005 L318.5100000000002,26.32299999999998 C318.4699999999998,26.16700000000003 318.4200000000001,26.062999999999988 318.3600000000001,26.010999999999967 C318.28999999999996,25.958999999999946 318.19000000000005,25.932999999999993 318.03999999999996,25.932999999999993 C317.7199999999998,25.932999999999993 317.46000000000004,26.059999999999945 317.2600000000002,26.315000000000055 C317.07000000000016,26.571000000000026 316.9699999999998,26.90700000000004 316.9699999999998,27.32299999999998 C316.9699999999998,27.770999999999958 317.0799999999999,28.140999999999963 317.30999999999995,28.432999999999993 C317.53999999999996,28.724000000000046 317.84000000000015,28.870000000000005 318.1999999999998,28.870000000000005 C318.4200000000001,28.870000000000005 318.6100000000001,28.812999999999988 318.77,28.69799999999998 C318.92999999999984,28.583999999999946 319.1100000000001,28.390999999999963 319.28999999999996,28.120000000000005 L319.4000000000001,28.182999999999993 C319.3499999999999,28.297000000000025 319.30999999999995,28.388000000000034 319.27,28.456000000000017 C319.23,28.524 319.15999999999985,28.628000000000043 319.05999999999995,28.769000000000005 C318.96000000000004,28.908999999999992 318.8499999999999,29.020999999999958 318.7600000000002,29.104000000000042 C318.65999999999985,29.187999999999988 318.5300000000002,29.265999999999963 318.3600000000001,29.339000000000055 C318.1999999999998,29.412000000000035 318.0300000000002,29.44799999999998 317.8600000000001,29.44799999999998 C317.4200000000001,29.44799999999998 317.05999999999995,29.28200000000004 316.77,28.94799999999998 C316.48,28.61500000000001 316.34000000000015,28.187999999999988 316.34000000000015,27.66700000000003 M320.67999999999984,28.57299999999998 C320.8000000000002,28.57299999999998 320.9000000000001,28.616999999999962 320.9899999999998,28.706000000000017 C321.0799999999999,28.79499999999996 321.1199999999999,28.900999999999954 321.1199999999999,29.025999999999954 C321.1199999999999,29.140999999999963 321.0799999999999,29.241999999999962 320.9899999999998,29.331000000000017 C320.9000000000001,29.41999999999996 320.78999999999996,29.464000000000055 320.6700000000001,29.464000000000055 C320.5500000000002,29.464000000000055 320.46000000000004,29.41999999999996 320.3699999999999,29.331000000000017 C320.28999999999996,29.241999999999962 320.25,29.140999999999963 320.25,29.025999999999954 C320.25,28.900999999999954 320.28999999999996,28.79499999999996 320.3800000000001,28.706000000000017 C320.4699999999998,28.616999999999962 320.57000000000016,28.57299999999998 320.67999999999984,28.57299999999998" />
</svg>
