<?xml version="1.0" encoding="UTF-8" standalone="yes"?>
<svg width="256.0px" height="256.0px" xmlns="http://www.w3.org/2000/svg" xmlns:xlink="http://www.w3.org/1999/xlink" version="1.2" baseProfile="tiny">
<path d="M50.5,28.729000000000042 C50.70000000000073,28.729000000000042 50.79999999999927,28.80499999999995 51.099999999998545,28.956000000000017 C51.29999999999927,29.10699999999997 51.5,29.182999999999993 51.70000000000073,29.182999999999993 C52.0,29.182999999999993 52.29999999999927,29.067999999999984 52.5,28.839000000000055 C52.70000000000073,28.610000000000014 52.79999999999927,28.327999999999975 52.79999999999927,27.995000000000005 C52.79999999999927,27.787000000000035 52.70000000000073,27.604000000000042 52.70000000000073,27.44799999999998 C52.599999999998545,27.29200000000003 52.5,27.16999999999996 52.400000000001455,27.081000000000017 C52.29999999999927,26.991999999999962 52.20000000000073,26.91999999999996 52.0,26.861999999999966 C51.900000000001455,26.80499999999995 51.70000000000073,26.769000000000005 51.599999999998545,26.753000000000043 C51.5,26.736999999999966 51.29999999999927,26.729000000000042 51.20000000000073,26.729000000000042 L51.20000000000073,26.620000000000005 C51.29999999999927,26.557999999999993 51.5,26.498000000000047 51.599999999998545,26.440000000000055 C51.79999999999927,26.383000000000038 51.900000000001455,26.30200000000002 52.0,26.19799999999998 C52.20000000000073,26.09400000000005 52.29999999999927,25.966000000000008 52.400000000001455,25.815000000000055 C52.5,25.663999999999987 52.5,25.495000000000005 52.5,25.307999999999993 C52.5,25.047000000000025 52.400000000001455,24.839000000000055 52.29999999999927,24.682999999999993 C52.099999999998545,24.525999999999954 51.900000000001455,24.44799999999998 51.599999999998545,24.44799999999998 C51.400000000001455,24.44799999999998 51.099999999998545,24.515999999999963 50.900000000001455,24.650999999999954 C50.79999999999927,24.787000000000035 50.599999999998545,25.0 50.400000000001455,25.29200000000003 L50.29999999999927,25.260999999999967 C50.400000000001455,24.885999999999967 50.599999999998545,24.576000000000022 50.900000000001455,24.331000000000017 C51.099999999998545,24.086000000000013 51.400000000001455,23.964000000000055 51.900000000001455,23.964000000000055 C52.20000000000073,23.964000000000055 52.5,24.065000000000055 52.79999999999927,24.269000000000005 C53.0,24.47199999999998 53.099999999998545,24.735000000000014 53.099999999998545,25.057999999999993 C53.099999999998545,25.275999999999954 53.099999999998545,25.46900000000005 52.900000000001455,25.635999999999967 C52.79999999999927,25.80200000000002 52.599999999998545,25.979000000000042 52.400000000001455,26.16700000000003 C52.70000000000073,26.30200000000002 52.900000000001455,26.476999999999975 53.099999999998545,26.690000000000055 C53.29999999999927,26.903999999999996 53.400000000001455,27.214000000000055 53.400000000001455,27.620000000000005 C53.400000000001455,28.182999999999993 53.20000000000073,28.633000000000038 52.70000000000073,28.97199999999998 C52.29999999999927,29.309999999999945 51.79999999999927,29.479000000000042 51.099999999998545,29.479000000000042 C50.900000000001455,29.479000000000042 50.599999999998545,29.437999999999988 50.5,29.354000000000042 C50.29999999999927,29.270999999999958 50.20000000000073,29.15700000000004 50.20000000000073,29.010999999999967 C50.20000000000073,28.92700000000002 50.29999999999927,28.860000000000014 50.29999999999927,28.807999999999993 C50.400000000001455,28.754999999999995 50.400000000001455,28.729000000000042 50.5,28.729000000000042 M54.099999999998545,25.557999999999993 C54.099999999998545,25.442999999999984 54.20000000000073,25.339000000000055 54.20000000000073,25.245000000000005 C54.20000000000073,25.150999999999954 54.29999999999927,25.019000000000005 54.400000000001455,24.84699999999998 C54.5,24.674999999999955 54.599999999998545,24.53200000000004 54.70000000000073,24.41700000000003 C54.79999999999927,24.30200000000002 54.900000000001455,24.201000000000022 55.099999999998545,24.111999999999966 C55.29999999999927,24.024 55.5,23.979000000000042 55.79999999999927,23.979000000000042 C56.20000000000073,23.979000000000042 56.5,24.11500000000001 56.79999999999927,24.385999999999967 C57.099999999998545,24.65700000000004 57.20000000000073,24.99000000000001 57.20000000000073,25.385999999999967 C57.20000000000073,25.99000000000001 56.900000000001455,26.650999999999954 56.20000000000073,27.370000000000005 L54.900000000001455,28.79200000000003 L56.79999999999927,28.79200000000003 C57.0,28.79200000000003 57.099999999998545,28.760999999999967 57.20000000000073,28.69799999999998 C57.29999999999927,28.635999999999967 57.400000000001455,28.49000000000001 57.599999999998545,28.260999999999967 L57.70000000000073,28.29200000000003 L57.20000000000073,29.370000000000005 L54.099999999998545,29.370000000000005 L54.099999999998545,29.275999999999954 L55.5,27.760999999999967 C56.20000000000073,27.03200000000004 56.599999999998545,26.34400000000005 56.599999999998545,25.69799999999998 C56.599999999998545,25.354000000000042 56.5,25.077999999999975 56.29999999999927,24.870000000000005 C56.099999999998545,24.662000000000035 55.79999999999927,24.557999999999993 55.400000000001455,24.557999999999993 C55.20000000000073,24.557999999999993 54.900000000001455,24.633000000000038 54.79999999999927,24.783999999999992 C54.599999999998545,24.934999999999945 54.400000000001455,25.208999999999946 54.29999999999927,25.604000000000042 L54.099999999998545,25.557999999999993" />
</svg>
