<?xml version="1.0" encoding="UTF-8" standalone="yes"?>
<svg width="256.0px" height="256.0px" xmlns="http://www.w3.org/2000/svg" xmlns:xlink="http://www.w3.org/1999/xlink" version="1.2" baseProfile="tiny">
<path d="M220.39999999999964,30.79200000000003 C220.20000000000073,30.69799999999998 220.10000000000036,30.591000000000008 219.89999999999964,30.47199999999998 C219.79999999999927,30.351999999999975 219.60000000000036,30.184999999999945 219.39999999999964,29.97199999999998 C219.20000000000073,29.758000000000038 219.10000000000036,29.53200000000004 218.89999999999964,29.29200000000003 C218.79999999999927,29.05200000000002 218.70000000000073,28.760999999999967 218.60000000000036,28.41700000000003 C218.5,28.07299999999998 218.39999999999964,27.71900000000005 218.39999999999964,27.354000000000042 C218.39999999999964,26.96900000000005 218.5,26.604000000000042 218.60000000000036,26.260999999999967 C218.70000000000073,25.91700000000003 218.79999999999927,25.633000000000038 218.89999999999964,25.408999999999992 C219.0,25.184999999999945 219.20000000000073,24.966000000000008 219.39999999999964,24.753000000000043 C219.60000000000036,24.538999999999987 219.79999999999927,24.383000000000038 219.89999999999964,24.283999999999992 C220.10000000000036,24.184999999999945 220.20000000000073,24.077999999999975 220.39999999999964,23.964000000000055 L220.5,24.089000000000055 C220.20000000000073,24.287000000000035 220.0,24.461000000000013 219.89999999999964,24.611999999999966 C219.79999999999927,24.763000000000034 219.60000000000036,24.964000000000055 219.5,25.214000000000055 C219.29999999999927,25.464000000000055 219.20000000000073,25.760999999999967 219.20000000000073,26.104000000000042 C219.10000000000036,26.44799999999998 219.10000000000036,26.860000000000014 219.10000000000036,27.339000000000055 C219.10000000000036,27.827999999999975 219.10000000000036,28.253000000000043 219.20000000000073,28.611999999999966 C219.20000000000073,28.97199999999998 219.29999999999927,29.275999999999954 219.5,29.525999999999954 C219.60000000000036,29.775999999999954 219.79999999999927,29.98199999999997 219.89999999999964,30.144000000000005 C220.0,30.30499999999995 220.20000000000073,30.474000000000046 220.5,30.650999999999954 L220.39999999999964,30.79200000000003 M220.89999999999964,27.66700000000003 C220.89999999999964,27.07299999999998 221.10000000000036,26.59699999999998 221.39999999999964,26.236999999999966 C221.79999999999927,25.878000000000043 222.20000000000073,25.69799999999998 222.60000000000036,25.69799999999998 C223.0,25.69799999999998 223.29999999999927,25.778999999999996 223.5,25.940000000000055 C223.70000000000073,26.101999999999975 223.79999999999927,26.297000000000025 223.79999999999927,26.525999999999954 C223.79999999999927,26.610000000000014 223.79999999999927,26.684999999999945 223.70000000000073,26.753000000000043 C223.70000000000073,26.821000000000026 223.60000000000036,26.854000000000042 223.5,26.854000000000042 C223.29999999999927,26.854000000000042 223.20000000000073,26.735000000000014 223.10000000000036,26.495000000000005 L223.10000000000036,26.32299999999998 C223.0,26.16700000000003 223.0,26.062999999999988 222.89999999999964,26.010999999999967 C222.79999999999927,25.958999999999946 222.70000000000073,25.932999999999993 222.60000000000036,25.932999999999993 C222.29999999999927,25.932999999999993 222.0,26.059999999999945 221.79999999999927,26.315000000000055 C221.60000000000036,26.571000000000026 221.5,26.90700000000004 221.5,27.32299999999998 C221.5,27.770999999999958 221.60000000000036,28.140999999999963 221.89999999999964,28.432999999999993 C222.10000000000036,28.724000000000046 222.39999999999964,28.870000000000005 222.79999999999927,28.870000000000005 C223.0,28.870000000000005 223.20000000000073,28.812999999999988 223.29999999999927,28.69799999999998 C223.5,28.583999999999946 223.70000000000073,28.390999999999963 223.79999999999927,28.120000000000005 L224.0,28.182999999999993 C223.89999999999964,28.297000000000025 223.89999999999964,28.388000000000034 223.79999999999927,28.456000000000017 C223.79999999999927,28.524 223.70000000000073,28.628000000000043 223.60000000000036,28.769000000000005 C223.5,28.908999999999992 223.39999999999964,29.020999999999958 223.29999999999927,29.104000000000042 C223.20000000000073,29.187999999999988 223.10000000000036,29.265999999999963 222.89999999999964,29.339000000000055 C222.79999999999927,29.412000000000035 222.60000000000036,29.44799999999998 222.39999999999964,29.44799999999998 C222.0,29.44799999999998 221.60000000000036,29.28200000000004 221.29999999999927,28.94799999999998 C221.0,28.61500000000001 220.89999999999964,28.187999999999988 220.89999999999964,27.66700000000003 M224.60000000000036,23.964000000000055 C224.70000000000073,24.047000000000025 224.89999999999964,24.149 225.0,24.269000000000005 C225.20000000000073,24.388000000000034 225.29999999999927,24.55499999999995 225.5,24.769000000000005 C225.70000000000073,24.98199999999997 225.89999999999964,25.211000000000013 226.0,25.456000000000017 C226.20000000000073,25.701000000000022 226.29999999999927,25.991999999999962 226.39999999999964,26.331000000000017 C226.5,26.66999999999996 226.5,27.025999999999954 226.5,27.400999999999954 C226.5,27.775999999999954 226.5,28.135999999999967 226.39999999999964,28.479000000000042 C226.29999999999927,28.82299999999998 226.20000000000073,29.110000000000014 226.0,29.339000000000055 C225.89999999999964,29.567999999999984 225.70000000000073,29.787000000000035 225.5,29.995000000000005 C225.29999999999927,30.202999999999975 225.10000000000036,30.360000000000014 225.0,30.464000000000055 C224.89999999999964,30.567999999999984 224.70000000000073,30.67700000000002 224.60000000000036,30.79200000000003 L224.5,30.650999999999954 C224.70000000000073,30.464000000000055 224.89999999999964,30.29200000000003 225.10000000000036,30.135999999999967 C225.20000000000073,29.979000000000042 225.29999999999927,29.778999999999996 225.5,29.533999999999992 C225.60000000000036,29.288999999999987 225.70000000000073,28.995000000000005 225.70000000000073,28.650999999999954 C225.79999999999927,28.307999999999993 225.79999999999927,27.895999999999958 225.79999999999927,27.41700000000003 C225.79999999999927,26.92700000000002 225.79999999999927,26.503000000000043 225.70000000000073,26.144000000000005 C225.70000000000073,25.783999999999992 225.60000000000036,25.476999999999975 225.5,25.22199999999998 C225.29999999999927,24.966000000000008 225.20000000000073,24.760999999999967 225.10000000000036,24.604000000000042 C224.89999999999964,24.44799999999998 224.70000000000073,24.275999999999954 224.5,24.089000000000055 L224.60000000000036,23.964000000000055 M230.29999999999927,24.635999999999967 C230.20000000000073,24.635999999999967 230.10000000000036,24.692999999999984 229.79999999999927,24.807999999999993 L229.79999999999927,24.69799999999998 L231.20000000000073,23.964000000000055 L231.29999999999927,23.979000000000042 L231.29999999999927,28.775999999999954 C231.29999999999927,28.974000000000046 231.29999999999927,29.101999999999975 231.39999999999964,29.158999999999992 C231.5,29.216000000000008 231.70000000000073,29.245000000000005 232.0,29.245000000000005 L232.0,29.370000000000005 L229.79999999999927,29.370000000000005 L229.79999999999927,29.245000000000005 C230.10000000000036,29.235000000000014 230.29999999999927,29.190000000000055 230.39999999999964,29.111999999999966 C230.5,29.033999999999992 230.60000000000036,28.870000000000005 230.60000000000036,28.620000000000005 L230.60000000000036,25.010999999999967 C230.60000000000036,24.760999999999967 230.5,24.635999999999967 230.29999999999927,24.635999999999967 M233.29999999999927,29.54200000000003 L233.29999999999927,29.385999999999967 C233.89999999999964,29.28200000000004 234.39999999999964,29.024 234.89999999999964,28.611999999999966 C235.29999999999927,28.201000000000022 235.60000000000036,27.66700000000003 235.70000000000073,27.010999999999967 C235.29999999999927,27.32299999999998 234.89999999999964,27.479000000000042 234.5,27.479000000000042 C234.10000000000036,27.479000000000042 233.79999999999927,27.327999999999975 233.5,27.025999999999954 C233.20000000000073,26.724000000000046 233.10000000000036,26.333999999999946 233.10000000000036,25.854000000000042 C233.10000000000036,25.312999999999988 233.29999999999927,24.860000000000014 233.60000000000036,24.495000000000005 C233.89999999999964,24.129999999999995 234.29999999999927,23.94799999999998 234.79999999999927,23.94799999999998 C235.29999999999927,23.94799999999998 235.70000000000073,24.158999999999992 236.10000000000036,24.581000000000017 C236.39999999999964,25.003000000000043 236.60000000000036,25.547000000000025 236.60000000000036,26.214000000000055 C236.60000000000036,26.432999999999993 236.60000000000036,26.653999999999996 236.5,26.878000000000043 C236.5,27.101999999999975 236.39999999999964,27.366999999999962 236.29999999999927,27.674999999999955 C236.10000000000036,27.98199999999997 235.89999999999964,28.254999999999995 235.70000000000073,28.495000000000005 C235.5,28.735000000000014 235.20000000000073,28.952999999999975 234.79999999999927,29.150999999999954 C234.39999999999964,29.349000000000046 233.89999999999964,29.479000000000042 233.29999999999927,29.54200000000003 M234.79999999999927,27.120000000000005 C234.89999999999964,27.120000000000005 235.10000000000036,27.10699999999997 235.20000000000073,27.081000000000017 C235.29999999999927,27.05499999999995 235.39999999999964,26.991999999999962 235.60000000000036,26.894000000000005 C235.70000000000073,26.79499999999996 235.79999999999927,26.672000000000025 235.79999999999927,26.525999999999954 L235.79999999999927,26.214000000000055 C235.79999999999927,24.860000000000014 235.39999999999964,24.182999999999993 234.70000000000073,24.182999999999993 C234.5,24.182999999999993 234.39999999999964,24.226999999999975 234.29999999999927,24.315000000000055 C234.20000000000073,24.403999999999996 234.10000000000036,24.520999999999958 234.0,24.66700000000003 C234.0,24.812999999999988 233.89999999999964,24.958999999999946 233.89999999999964,25.104000000000042 C233.79999999999927,25.25 233.79999999999927,25.40700000000004 233.79999999999927,25.57299999999998 C233.79999999999927,26.05200000000002 233.89999999999964,26.42999999999995 234.10000000000036,26.706000000000017 C234.29999999999927,26.98199999999997 234.5,27.120000000000005 234.79999999999927,27.120000000000005 M238.89999999999964,29.479000000000042 C238.39999999999964,29.479000000000042 237.89999999999964,29.265999999999963 237.60000000000036,28.839000000000055 C237.29999999999927,28.412000000000035 237.10000000000036,27.84400000000005 237.10000000000036,27.135999999999967 C237.10000000000036,26.91700000000003 237.10000000000036,26.692999999999984 237.20000000000073,26.464000000000055 C237.20000000000073,26.235000000000014 237.29999999999927,25.97199999999998 237.5,25.674999999999955 C237.60000000000036,25.378000000000043 237.79999999999927,25.111999999999966 238.0,24.878000000000043 C238.29999999999927,24.644000000000005 238.60000000000036,24.434999999999945 239.0,24.253000000000043 C239.39999999999964,24.071000000000026 239.89999999999964,23.952999999999975 240.39999999999964,23.900999999999954 L240.39999999999964,24.025999999999954 C239.79999999999927,24.129999999999995 239.29999999999927,24.385999999999967 238.89999999999964,24.79200000000003 C238.39999999999964,25.19799999999998 238.20000000000073,25.702999999999975 238.10000000000036,26.307999999999993 C238.29999999999927,26.162000000000035 238.5,26.067999999999984 238.60000000000036,26.025999999999954 C238.79999999999927,25.985000000000014 238.89999999999964,25.964000000000055 239.10000000000036,25.964000000000055 C239.60000000000036,25.964000000000055 239.89999999999964,26.111999999999966 240.20000000000073,26.408999999999992 C240.5,26.706000000000017 240.60000000000036,27.104000000000042 240.60000000000036,27.604000000000042 C240.60000000000036,28.15700000000004 240.5,28.60699999999997 240.10000000000036,28.956000000000017 C239.79999999999927,29.30499999999995 239.39999999999964,29.479000000000042 238.89999999999964,29.479000000000042 M238.79999999999927,26.32299999999998 C238.39999999999964,26.32299999999998 238.20000000000073,26.400999999999954 238.0,26.557999999999993 C237.89999999999964,26.714000000000055 237.79999999999927,26.94799999999998 237.79999999999927,27.260999999999967 C237.79999999999927,27.875 238.0,28.360000000000014 238.20000000000073,28.714000000000055 C238.39999999999964,29.067999999999984 238.60000000000036,29.245000000000005 239.0,29.245000000000005 C239.29999999999927,29.245000000000005 239.5,29.128000000000043 239.60000000000036,28.894000000000005 C239.79999999999927,28.658999999999992 239.89999999999964,28.32299999999998 239.89999999999964,27.885999999999967 C239.89999999999964,27.385999999999967 239.79999999999927,27.0 239.60000000000036,26.729000000000042 C239.39999999999964,26.458999999999946 239.10000000000036,26.32299999999998 238.79999999999927,26.32299999999998 M243.20000000000073,26.400999999999954 C243.70000000000073,26.754999999999995 244.0,27.05200000000002 244.20000000000073,27.29200000000003 C244.29999999999927,27.53200000000004 244.39999999999964,27.807999999999993 244.39999999999964,28.120000000000005 C244.39999999999964,28.537000000000035 244.29999999999927,28.866999999999962 244.0,29.111999999999966 C243.70000000000073,29.35699999999997 243.29999999999927,29.479000000000042 242.79999999999927,29.479000000000042 C242.39999999999964,29.479000000000042 242.0,29.35699999999997 241.70000000000073,29.111999999999966 C241.39999999999964,28.866999999999962 241.29999999999927,28.547000000000025 241.29999999999927,28.150999999999954 C241.29999999999927,27.879999999999995 241.39999999999964,27.653999999999996 241.5,27.47199999999998 C241.60000000000036,27.288999999999987 241.89999999999964,27.037000000000035 242.29999999999927,26.714000000000055 C241.89999999999964,26.339000000000055 241.60000000000036,26.062999999999988 241.5,25.885999999999967 C241.39999999999964,25.708999999999946 241.29999999999927,25.49000000000001 241.29999999999927,25.229000000000042 C241.29999999999927,24.86500000000001 241.5,24.559999999999945 241.79999999999927,24.315000000000055 C242.10000000000036,24.071000000000026 242.39999999999964,23.94799999999998 242.89999999999964,23.94799999999998 C243.29999999999927,23.94799999999998 243.60000000000036,24.05499999999995 243.79999999999927,24.269000000000005 C244.10000000000036,24.48199999999997 244.20000000000073,24.760999999999967 244.20000000000073,25.104000000000042 C244.20000000000073,25.375 244.10000000000036,25.604000000000042 244.0,25.79200000000003 C243.79999999999927,25.979000000000042 243.60000000000036,26.182999999999993 243.20000000000073,26.400999999999954 M242.5,26.870000000000005 C242.29999999999927,27.057999999999993 242.10000000000036,27.241999999999962 242.10000000000036,27.424999999999955 C242.0,27.60699999999997 241.89999999999964,27.827999999999975 241.89999999999964,28.089000000000055 C241.89999999999964,28.432999999999993 242.0,28.711000000000013 242.20000000000073,28.924999999999955 C242.39999999999964,29.138000000000034 242.60000000000036,29.245000000000005 242.89999999999964,29.245000000000005 C243.20000000000073,29.245000000000005 243.39999999999964,29.163999999999987 243.5,29.003000000000043 C243.70000000000073,28.841000000000008 243.79999999999927,28.629999999999995 243.79999999999927,28.370000000000005 C243.79999999999927,28.287000000000035 243.79999999999927,28.206000000000017 243.79999999999927,28.128000000000043 C243.70000000000073,28.049999999999955 243.70000000000073,27.985000000000014 243.70000000000073,27.932999999999993 C243.70000000000073,27.879999999999995 243.60000000000036,27.817999999999984 243.60000000000036,27.745000000000005 C243.5,27.672000000000025 243.5,27.616999999999962 243.5,27.581000000000017 C243.39999999999964,27.54499999999996 243.39999999999964,27.486999999999966 243.29999999999927,27.408999999999992 C243.20000000000073,27.331000000000017 243.10000000000036,27.275999999999954 243.10000000000036,27.245000000000005 C243.0,27.214000000000055 242.89999999999964,27.153999999999996 242.79999999999927,27.065000000000055 C242.70000000000073,26.976999999999975 242.60000000000036,26.912000000000035 242.5,26.870000000000005 M242.89999999999964,26.260999999999967 C242.89999999999964,26.25 243.0,26.22199999999998 243.0,26.174999999999955 C243.10000000000036,26.128000000000043 243.20000000000073,26.091000000000008 243.20000000000073,26.065000000000055 C243.20000000000073,26.038999999999987 243.29999999999927,26.0 243.29999999999927,25.94799999999998 C243.39999999999964,25.895999999999958 243.39999999999964,25.84400000000005 243.5,25.79200000000003 C243.5,25.74000000000001 243.5,25.67700000000002 243.60000000000036,25.604000000000042 C243.60000000000036,25.53200000000004 243.60000000000036,25.451000000000022 243.70000000000073,25.361999999999966 C243.70000000000073,25.274 243.70000000000073,25.182999999999993 243.70000000000073,25.089000000000055 C243.70000000000073,24.817999999999984 243.60000000000036,24.599000000000046 243.39999999999964,24.432999999999993 C243.29999999999927,24.265999999999963 243.10000000000036,24.182999999999993 242.79999999999927,24.182999999999993 C242.60000000000036,24.182999999999993 242.29999999999927,24.258000000000038 242.20000000000073,24.408999999999992 C242.0,24.559999999999945 241.89999999999964,24.75 241.89999999999964,24.979000000000042 C241.89999999999964,25.19799999999998 242.0,25.40700000000004 242.20000000000073,25.604000000000042 C242.29999999999927,25.80200000000002 242.60000000000036,26.020999999999958 242.89999999999964,26.260999999999967 M252.29999999999927,26.69799999999998 C252.29999999999927,26.937999999999988 252.29999999999927,27.172000000000025 252.20000000000073,27.400999999999954 C252.10000000000036,27.629999999999995 252.0,27.866999999999962 251.89999999999964,28.111999999999966 C251.79999999999927,28.35699999999997 251.60000000000036,28.567999999999984 251.39999999999964,28.745000000000005 C251.10000000000036,28.922000000000025 250.79999999999927,29.071000000000026 250.5,29.190000000000055 C250.10000000000036,29.309999999999945 249.70000000000073,29.370000000000005 249.20000000000073,29.370000000000005 L246.89999999999964,29.370000000000005 L246.89999999999964,29.214000000000055 C247.20000000000073,29.192999999999984 247.39999999999964,29.140999999999963 247.5,29.057999999999993 C247.60000000000036,28.974000000000046 247.60000000000036,28.787000000000035 247.60000000000036,28.495000000000005 L247.60000000000036,24.94799999999998 C247.60000000000036,24.65700000000004 247.60000000000036,24.47199999999998 247.5,24.394000000000005 C247.39999999999964,24.315000000000055 247.20000000000073,24.260999999999967 246.89999999999964,24.229000000000042 L246.89999999999964,24.07299999999998 L249.10000000000036,24.07299999999998 C249.60000000000036,24.07299999999998 250.0,24.128000000000043 250.39999999999964,24.236999999999966 C250.79999999999927,24.34699999999998 251.10000000000036,24.486999999999966 251.29999999999927,24.658999999999992 C251.5,24.831000000000017 251.70000000000073,25.037000000000035 251.89999999999964,25.275999999999954 C252.0,25.515999999999963 252.10000000000036,25.75 252.20000000000073,25.979000000000042 C252.29999999999927,26.208999999999946 252.29999999999927,26.44799999999998 252.29999999999927,26.69799999999998 M251.39999999999964,26.760999999999967 C251.39999999999964,26.53200000000004 251.39999999999964,26.309999999999945 251.29999999999927,26.09699999999998 C251.29999999999927,25.883000000000038 251.20000000000073,25.66999999999996 251.10000000000036,25.456000000000017 C251.0,25.241999999999962 250.79999999999927,25.059999999999945 250.60000000000036,24.908999999999992 C250.39999999999964,24.758000000000038 250.20000000000073,24.633000000000038 249.89999999999964,24.533999999999992 C249.60000000000036,24.434999999999945 249.29999999999927,24.385999999999967 248.89999999999964,24.385999999999967 C248.70000000000073,24.385999999999967 248.60000000000036,24.40700000000004 248.5,24.44799999999998 C248.5,24.49000000000001 248.39999999999964,24.57299999999998 248.39999999999964,24.69799999999998 L248.39999999999964,28.745000000000005 C248.39999999999964,28.870000000000005 248.5,28.956000000000017 248.5,29.003000000000043 C248.60000000000036,29.049999999999955 248.70000000000073,29.07299999999998 248.89999999999964,29.07299999999998 C250.60000000000036,29.07299999999998 251.39999999999964,28.30200000000002 251.39999999999964,26.760999999999967 M255.20000000000073,26.885999999999967 C255.10000000000036,26.458999999999946 255.0,26.190000000000055 254.89999999999964,26.081000000000017 C254.79999999999927,25.97199999999998 254.70000000000073,25.90700000000004 254.5,25.885999999999967 L254.5,25.775999999999954 L256.10000000000036,25.775999999999954 L256.10000000000036,25.885999999999967 C256.0,25.91700000000003 255.79999999999927,25.951000000000022 255.79999999999927,25.986999999999966 C255.70000000000073,26.024 255.70000000000073,26.089000000000055 255.70000000000073,26.182999999999993 C255.70000000000073,26.245000000000005 255.70000000000073,26.400999999999954 255.79999999999927,26.650999999999954 L256.5,28.44799999999998 L257.2000000000007,26.66700000000003 C257.2999999999993,26.44799999999998 257.2999999999993,26.270999999999958 257.2999999999993,26.135999999999967 C257.2999999999993,26.07299999999998 257.2999999999993,26.024 257.2999999999993,25.986999999999966 C257.2000000000007,25.951000000000022 257.10000000000036,25.91700000000003 257.0,25.885999999999967 L257.0,25.775999999999954 L258.0,25.775999999999954 L258.0,25.885999999999967 C257.89999999999964,25.91700000000003 257.7999999999993,25.956000000000017 257.7999999999993,26.003000000000043 C257.7999999999993,26.049999999999955 257.7000000000007,26.15700000000004 257.60000000000036,26.32299999999998 L256.5,29.089000000000055 C256.39999999999964,29.349000000000046 256.39999999999964,29.479000000000042 256.2999999999993,29.479000000000042 C256.2999999999993,29.479000000000042 256.2000000000007,29.36500000000001 256.10000000000036,29.135999999999967 L255.39999999999964,27.245000000000005 L254.5,29.16700000000003 C254.39999999999964,29.375 254.29999999999927,29.479000000000042 254.29999999999927,29.479000000000042 C254.29999999999927,29.479000000000042 254.20000000000073,29.36500000000001 254.10000000000036,29.135999999999967 L253.0,26.400999999999954 C252.89999999999964,26.192999999999984 252.89999999999964,26.057999999999993 252.79999999999927,25.995000000000005 C252.79999999999927,25.932999999999993 252.70000000000073,25.895999999999958 252.60000000000036,25.885999999999967 L252.60000000000036,25.775999999999954 L254.0,25.775999999999954 L254.0,25.885999999999967 C253.89999999999964,25.90700000000004 253.79999999999927,25.934999999999945 253.70000000000073,25.97199999999998 C253.70000000000073,26.008000000000038 253.70000000000073,26.067999999999984 253.70000000000073,26.150999999999954 C253.70000000000073,26.235000000000014 253.70000000000073,26.317999999999984 253.70000000000073,26.400999999999954 L254.5,28.479000000000042 L255.20000000000073,26.885999999999967 M258.2000000000007,28.57299999999998 C258.2000000000007,28.479000000000042 258.2999999999993,28.394000000000005 258.2999999999993,28.315000000000055 C258.2999999999993,28.236999999999966 258.2999999999993,28.162000000000035 258.39999999999964,28.089000000000055 C258.39999999999964,28.015999999999963 258.5,27.951000000000022 258.5,27.894000000000005 C258.60000000000036,27.836000000000013 258.7000000000007,27.775999999999954 258.7999999999993,27.714000000000055 C258.7999999999993,27.650999999999954 258.89999999999964,27.599000000000046 259.0,27.557999999999993 C259.10000000000036,27.515999999999963 259.10000000000036,27.46900000000005 259.2999999999993,27.41700000000003 C259.39999999999964,27.36500000000001 259.5,27.32299999999998 259.60000000000036,27.29200000000003 C259.60000000000036,27.260999999999967 259.7000000000007,27.216000000000008 259.89999999999964,27.158999999999992 C260.0,27.101999999999975 260.10000000000036,27.057999999999993 260.2000000000007,27.025999999999954 L260.2000000000007,26.54200000000003 C260.2000000000007,26.104000000000042 260.0,25.885999999999967 259.60000000000036,25.885999999999967 C259.39999999999964,25.885999999999967 259.2999999999993,25.924999999999955 259.2000000000007,26.003000000000043 C259.10000000000036,26.081000000000017 259.0,26.172000000000025 259.0,26.275999999999954 C259.0,26.317999999999984 259.0,26.375 259.10000000000036,26.44799999999998 C259.10000000000036,26.520999999999958 259.10000000000036,26.567999999999984 259.10000000000036,26.589000000000055 C259.10000000000036,26.682999999999993 259.0,26.763000000000034 259.0,26.831000000000017 C258.89999999999964,26.899 258.7999999999993,26.932999999999993 258.7000000000007,26.932999999999993 C258.60000000000036,26.932999999999993 258.5,26.899 258.5,26.831000000000017 C258.39999999999964,26.763000000000034 258.39999999999964,26.682999999999993 258.39999999999964,26.589000000000055 C258.39999999999964,26.339000000000055 258.5,26.128000000000043 258.7999999999993,25.956000000000017 C259.0,25.783999999999992 259.2999999999993,25.69799999999998 259.7000000000007,25.69799999999998 C260.10000000000036,25.69799999999998 260.39999999999964,25.80200000000002 260.60000000000036,26.010999999999967 C260.7999999999993,26.21900000000005 260.7999999999993,26.537000000000035 260.7999999999993,26.964000000000055 L260.7999999999993,28.510999999999967 C260.7999999999993,28.687999999999988 260.89999999999964,28.809999999999945 260.89999999999964,28.878000000000043 C260.89999999999964,28.946000000000026 261.0,28.979000000000042 261.10000000000036,28.979000000000042 C261.2000000000007,28.979000000000042 261.2999999999993,28.92700000000002 261.39999999999964,28.82299999999998 L261.39999999999964,29.04200000000003 C261.2999999999993,29.19799999999998 261.2000000000007,29.30499999999995 261.10000000000036,29.361999999999966 C261.0,29.41999999999996 260.7999999999993,29.44799999999998 260.7000000000007,29.44799999999998 C260.60000000000036,29.44799999999998 260.39999999999964,29.400999999999954 260.39999999999964,29.307999999999993 C260.2999999999993,29.214000000000055 260.2000000000007,29.062999999999988 260.2000000000007,28.854000000000042 C259.7999999999993,29.25 259.39999999999964,29.44799999999998 259.10000000000036,29.44799999999998 C258.7999999999993,29.44799999999998 258.60000000000036,29.366999999999962 258.5,29.206000000000017 C258.2999999999993,29.04499999999996 258.2000000000007,28.833999999999946 258.2000000000007,28.57299999999998 M260.2000000000007,28.370000000000005 L260.2000000000007,27.214000000000055 C259.7000000000007,27.390999999999963 259.39999999999964,27.562999999999988 259.2000000000007,27.729000000000042 C259.0,27.895999999999958 258.89999999999964,28.09400000000005 258.89999999999964,28.32299999999998 C258.89999999999964,28.54200000000003 259.0,28.702999999999975 259.10000000000036,28.807999999999993 C259.2000000000007,28.912000000000035 259.2999999999993,28.964000000000055 259.39999999999964,28.964000000000055 C259.60000000000036,28.964000000000055 259.7999999999993,28.90700000000004 260.0,28.79200000000003 C260.10000000000036,28.74000000000001 260.10000000000036,28.687999999999988 260.2000000000007,28.635999999999967 C260.2000000000007,28.583999999999946 260.2000000000007,28.495000000000005 260.2000000000007,28.370000000000005 M263.89999999999964,26.44799999999998 C263.7999999999993,26.44799999999998 263.7000000000007,26.400999999999954 263.60000000000036,26.307999999999993 C263.5,26.214000000000055 263.39999999999964,26.16700000000003 263.39999999999964,26.16700000000003 C263.2999999999993,26.16700000000003 263.10000000000036,26.245000000000005 263.0,26.400999999999954 C262.89999999999964,26.557999999999993 262.7999999999993,26.702999999999975 262.7999999999993,26.839000000000055 L262.7999999999993,28.650999999999954 C262.7999999999993,28.879999999999995 262.7999999999993,29.033999999999992 262.89999999999964,29.111999999999966 C263.0,29.190000000000055 263.2000000000007,29.235000000000014 263.5,29.245000000000005 L263.5,29.370000000000005 L261.60000000000036,29.370000000000005 L261.60000000000036,29.245000000000005 C261.7999999999993,29.202999999999975 262.0,29.150999999999954 262.0,29.089000000000055 C262.10000000000036,29.025999999999954 262.10000000000036,28.895999999999958 262.10000000000036,28.69799999999998 L262.10000000000036,26.682999999999993 C262.10000000000036,26.504999999999995 262.10000000000036,26.379999999999995 262.10000000000036,26.307999999999993 C262.0,26.235000000000014 262.0,26.19799999999998 261.7999999999993,26.19799999999998 C261.7999999999993,26.19799999999998 261.7000000000007,26.208999999999946 261.60000000000036,26.229000000000042 L261.60000000000036,26.104000000000042 C262.0,25.96900000000005 262.39999999999964,25.833999999999946 262.7999999999993,25.69799999999998 L262.7999999999993,25.714000000000055 L262.7999999999993,26.41700000000003 C263.0,26.145999999999958 263.2000000000007,25.958999999999946 263.2999999999993,25.854000000000042 C263.39999999999964,25.75 263.60000000000036,25.69799999999998 263.7999999999993,25.69799999999998 C263.89999999999964,25.69799999999998 264.0,25.73199999999997 264.10000000000036,25.799999999999955 C264.2000000000007,25.866999999999962 264.2000000000007,25.96900000000005 264.2000000000007,26.104000000000042 C264.2000000000007,26.208999999999946 264.2000000000007,26.29200000000003 264.10000000000036,26.354000000000042 C264.10000000000036,26.41700000000003 264.0,26.44799999999998 263.89999999999964,26.44799999999998 M266.89999999999964,24.729000000000042 C266.7999999999993,24.729000000000042 266.7000000000007,24.69799999999998 266.7000000000007,24.635999999999967 C266.60000000000036,24.57299999999998 266.60000000000036,24.504999999999995 266.5,24.432999999999993 C266.5,24.360000000000014 266.39999999999964,24.29200000000003 266.2999999999993,24.229000000000042 C266.2999999999993,24.16700000000003 266.2000000000007,24.135999999999967 266.10000000000036,24.135999999999967 C265.7999999999993,24.135999999999967 265.60000000000036,24.370000000000005 265.60000000000036,24.839000000000055 L265.60000000000036,25.775999999999954 L266.60000000000036,25.775999999999954 L266.60000000000036,26.010999999999967 L265.60000000000036,26.010999999999967 L265.60000000000036,28.54200000000003 C265.60000000000036,28.833999999999946 265.7000000000007,29.020999999999958 265.7999999999993,29.104000000000042 C265.89999999999964,29.187999999999988 266.10000000000036,29.235000000000014 266.39999999999964,29.245000000000005 L266.39999999999964,29.370000000000005 L264.2999999999993,29.370000000000005 L264.2999999999993,29.245000000000005 C264.60000000000036,29.235000000000014 264.7999999999993,29.187999999999988 264.89999999999964,29.104000000000042 C264.89999999999964,29.020999999999958 265.0,28.833999999999946 265.0,28.54200000000003 L265.0,26.010999999999967 L264.2999999999993,26.010999999999967 L264.2999999999993,25.775999999999954 L265.0,25.775999999999954 C265.0,25.172000000000025 265.10000000000036,24.706000000000017 265.2999999999993,24.378000000000043 C265.5,24.049999999999955 265.89999999999964,23.885999999999967 266.39999999999964,23.885999999999967 C266.60000000000036,23.885999999999967 266.7999999999993,23.934999999999945 267.0,24.033999999999992 C267.10000000000036,24.133000000000038 267.2000000000007,24.254999999999995 267.2000000000007,24.400999999999954 C267.2000000000007,24.495000000000005 267.2000000000007,24.57299999999998 267.10000000000036,24.635999999999967 C267.10000000000036,24.69799999999998 267.0,24.729000000000042 266.89999999999964,24.729000000000042 M274.60000000000036,24.79200000000003 L272.5,29.370000000000005 L272.39999999999964,29.370000000000005 L270.39999999999964,24.979000000000042 L270.39999999999964,28.19799999999998 C270.39999999999964,28.604000000000042 270.5,28.873000000000047 270.60000000000036,29.003000000000043 C270.7000000000007,29.133000000000038 270.89999999999964,29.202999999999975 271.2000000000007,29.214000000000055 L271.2000000000007,29.370000000000005 L269.2999999999993,29.370000000000005 L269.2999999999993,29.214000000000055 C269.60000000000036,29.192999999999984 269.7999999999993,29.120000000000005 269.89999999999964,28.995000000000005 C270.0,28.870000000000005 270.10000000000036,28.604000000000042 270.10000000000036,28.19799999999998 L270.10000000000036,24.94799999999998 C270.10000000000036,24.65700000000004 270.0,24.46900000000005 269.89999999999964,24.385999999999967 C269.7999999999993,24.30200000000002 269.60000000000036,24.25 269.2999999999993,24.229000000000042 L269.2999999999993,24.07299999999998 L270.89999999999964,24.07299999999998 L272.7000000000007,28.120000000000005 L274.5,24.07299999999998 L276.10000000000036,24.07299999999998 L276.10000000000036,24.229000000000042 C275.7999999999993,24.260999999999967 275.60000000000036,24.317999999999984 275.5,24.400999999999954 C275.5,24.485000000000014 275.39999999999964,24.66700000000003 275.39999999999964,24.94799999999998 L275.39999999999964,28.495000000000005 C275.39999999999964,28.775999999999954 275.5,28.961000000000013 275.5,29.049999999999955 C275.60000000000036,29.138000000000034 275.7999999999993,29.192999999999984 276.10000000000036,29.214000000000055 L276.10000000000036,29.370000000000005 L273.89999999999964,29.370000000000005 L273.89999999999964,29.214000000000055 C274.2000000000007,29.192999999999984 274.39999999999964,29.135999999999967 274.5,29.04200000000003 C274.5,28.94799999999998 274.60000000000036,28.74000000000001 274.60000000000036,28.41700000000003 L274.60000000000036,24.79200000000003 M280.10000000000036,28.94799999999998 L280.10000000000036,29.07299999999998 C279.7000000000007,29.187999999999988 279.2999999999993,29.312999999999988 279.0,29.44799999999998 L278.89999999999964,29.432999999999993 L278.89999999999964,28.745000000000005 C278.89999999999964,28.765999999999963 278.89999999999964,28.815000000000055 278.7999999999993,28.894000000000005 C278.7000000000007,28.97199999999998 278.7000000000007,29.025999999999954 278.60000000000036,29.057999999999993 C278.60000000000036,29.089000000000055 278.5,29.135999999999967 278.5,29.19799999999998 C278.39999999999964,29.260999999999967 278.2999999999993,29.30499999999995 278.2999999999993,29.331000000000017 C278.2000000000007,29.35699999999997 278.10000000000036,29.383000000000038 278.0,29.408999999999992 C278.0,29.434999999999945 277.89999999999964,29.44799999999998 277.7999999999993,29.44799999999998 C277.5,29.44799999999998 277.2000000000007,29.351999999999975 277.10000000000036,29.158999999999992 C276.89999999999964,28.966000000000008 276.7999999999993,28.714000000000055 276.7999999999993,28.400999999999954 L276.7999999999993,26.385999999999967 C276.7999999999993,26.208999999999946 276.7999999999993,26.083999999999946 276.7000000000007,26.010999999999967 C276.60000000000036,25.937999999999988 276.5,25.895999999999958 276.2999999999993,25.885999999999967 L276.2999999999993,25.775999999999954 L277.5,25.775999999999954 L277.5,28.370000000000005 C277.5,28.525999999999954 277.5,28.663999999999987 277.60000000000036,28.783999999999992 C277.7999999999993,28.903999999999996 277.89999999999964,28.964000000000055 278.0,28.964000000000055 C278.10000000000036,28.964000000000055 278.2000000000007,28.956000000000017 278.2000000000007,28.940000000000055 C278.2999999999993,28.924999999999955 278.39999999999964,28.895999999999958 278.5,28.854000000000042 C278.60000000000036,28.812999999999988 278.7000000000007,28.741999999999962 278.7999999999993,28.644000000000005 C278.89999999999964,28.54499999999996 278.89999999999964,28.422000000000025 278.89999999999964,28.275999999999954 L278.89999999999964,26.400999999999954 C278.89999999999964,26.214000000000055 278.89999999999964,26.086000000000013 278.7999999999993,26.019000000000005 C278.7000000000007,25.951000000000022 278.60000000000036,25.912000000000035 278.2999999999993,25.900999999999954 L278.2999999999993,25.775999999999954 L279.60000000000036,25.775999999999954 L279.60000000000036,28.495000000000005 C279.60000000000036,28.682999999999993 279.60000000000036,28.80499999999995 279.7000000000007,28.861999999999966 C279.7000000000007,28.91999999999996 279.7999999999993,28.94799999999998 280.0,28.94799999999998 L280.10000000000036,28.94799999999998 M282.2999999999993,25.854000000000042 C282.2999999999993,25.854000000000042 282.2999999999993,25.827999999999975 282.39999999999964,25.775999999999954 L282.5,25.775999999999954 L282.5,26.854000000000042 L282.39999999999964,26.854000000000042 C282.2999999999993,26.5 282.2000000000007,26.248000000000047 282.10000000000036,26.09699999999998 C281.89999999999964,25.946000000000026 281.7999999999993,25.870000000000005 281.5,25.870000000000005 C281.2999999999993,25.870000000000005 281.2000000000007,25.922000000000025 281.10000000000036,26.025999999999954 C281.0,26.129999999999995 280.89999999999964,26.260999999999967 280.89999999999964,26.41700000000003 C280.89999999999964,26.645999999999958 281.0,26.827999999999975 281.2999999999993,26.964000000000055 L282.10000000000036,27.479000000000042 C282.39999999999964,27.625 282.5,27.770999999999958 282.60000000000036,27.91700000000003 C282.7000000000007,28.062999999999988 282.7999999999993,28.235000000000014 282.7999999999993,28.432999999999993 C282.7999999999993,28.702999999999975 282.7000000000007,28.940000000000055 282.5,29.144000000000005 C282.2000000000007,29.34699999999998 282.0,29.44799999999998 281.7000000000007,29.44799999999998 C281.5,29.44799999999998 281.2999999999993,29.424999999999955 281.10000000000036,29.378000000000043 C280.89999999999964,29.331000000000017 280.7999999999993,29.307999999999993 280.7000000000007,29.307999999999993 C280.60000000000036,29.307999999999993 280.60000000000036,29.339000000000055 280.5,29.400999999999954 L280.39999999999964,29.400999999999954 L280.39999999999964,28.150999999999954 L280.60000000000036,28.150999999999954 C280.60000000000036,28.525999999999954 280.7000000000007,28.79200000000003 280.7999999999993,28.94799999999998 C281.0,29.16700000000003 281.2999999999993,29.275999999999954 281.60000000000036,29.275999999999954 C281.7999999999993,29.275999999999954 281.89999999999964,29.224000000000046 282.0,29.120000000000005 C282.2000000000007,29.015999999999963 282.2000000000007,28.875 282.2000000000007,28.69799999999998 C282.2000000000007,28.458999999999946 282.10000000000036,28.260999999999967 281.7999999999993,28.104000000000042 L281.2999999999993,27.839000000000055 C281.0,27.640999999999963 280.7999999999993,27.456000000000017 280.60000000000036,27.283999999999992 C280.5,27.111999999999966 280.39999999999964,26.912000000000035 280.39999999999964,26.682999999999993 C280.39999999999964,26.390999999999963 280.5,26.153999999999996 280.7000000000007,25.97199999999998 C280.89999999999964,25.788999999999987 281.2000000000007,25.69799999999998 281.5,25.69799999999998 C281.7000000000007,25.69799999999998 281.7999999999993,25.724000000000046 282.0,25.775999999999954 C282.10000000000036,25.827999999999975 282.2000000000007,25.854000000000042 282.2999999999993,25.854000000000042 M283.60000000000036,26.229000000000042 C283.39999999999964,26.229000000000042 283.2999999999993,26.235000000000014 283.2000000000007,26.245000000000005 L283.2000000000007,26.135999999999967 C283.60000000000036,26.03200000000004 284.0,25.885999999999967 284.5,25.69799999999998 L284.5,25.714000000000055 L284.5,28.557999999999993 C284.5,28.839000000000055 284.5,29.019000000000005 284.60000000000036,29.09699999999998 C284.7000000000007,29.174999999999955 284.7999999999993,29.224000000000046 285.10000000000036,29.245000000000005 L285.10000000000036,29.370000000000005 L283.2000000000007,29.370000000000005 L283.2000000000007,29.245000000000005 C283.5,29.235000000000014 283.60000000000036,29.187999999999988 283.7000000000007,29.104000000000042 C283.7999999999993,29.020999999999958 283.7999999999993,28.839000000000055 283.7999999999993,28.557999999999993 L283.7999999999993,26.69799999999998 C283.7999999999993,26.520999999999958 283.7999999999993,26.399 283.7999999999993,26.331000000000017 C283.7000000000007,26.263000000000034 283.60000000000036,26.229000000000042 283.60000000000036,26.229000000000042 M284.10000000000036,23.900999999999954 C284.2000000000007,23.900999999999954 284.2999999999993,23.942999999999984 284.39999999999964,24.025999999999954 C284.5,24.110000000000014 284.5,24.208999999999946 284.5,24.32299999999998 C284.5,24.437999999999988 284.5,24.533999999999992 284.39999999999964,24.611999999999966 C284.2999999999993,24.690000000000055 284.2000000000007,24.729000000000042 284.10000000000036,24.729000000000042 C284.0,24.729000000000042 283.89999999999964,24.687999999999988 283.7999999999993,24.604000000000042 C283.7000000000007,24.520999999999958 283.7000000000007,24.424999999999955 283.7000000000007,24.315000000000055 C283.7000000000007,24.206000000000017 283.7000000000007,24.110000000000014 283.7999999999993,24.025999999999954 C283.89999999999964,23.942999999999984 284.0,23.900999999999954 284.10000000000036,23.900999999999954 M285.5,27.66700000000003 C285.5,27.07299999999998 285.60000000000036,26.59699999999998 286.0,26.236999999999966 C286.2999999999993,25.878000000000043 286.7999999999993,25.69799999999998 287.2000000000007,25.69799999999998 C287.60000000000036,25.69799999999998 287.7999999999993,25.778999999999996 288.10000000000036,25.940000000000055 C288.2999999999993,26.101999999999975 288.39999999999964,26.297000000000025 288.39999999999964,26.525999999999954 C288.39999999999964,26.610000000000014 288.39999999999964,26.684999999999945 288.2999999999993,26.753000000000043 C288.2000000000007,26.821000000000026 288.2000000000007,26.854000000000042 288.10000000000036,26.854000000000042 C287.89999999999964,26.854000000000042 287.7999999999993,26.735000000000014 287.7000000000007,26.495000000000005 L287.60000000000036,26.32299999999998 C287.60000000000036,26.16700000000003 287.60000000000036,26.062999999999988 287.5,26.010999999999967 C287.39999999999964,25.958999999999946 287.2999999999993,25.932999999999993 287.2000000000007,25.932999999999993 C286.89999999999964,25.932999999999993 286.60000000000036,26.059999999999945 286.39999999999964,26.315000000000055 C286.2000000000007,26.571000000000026 286.10000000000036,26.90700000000004 286.10000000000036,27.32299999999998 C286.10000000000036,27.770999999999958 286.2000000000007,28.140999999999963 286.39999999999964,28.432999999999993 C286.7000000000007,28.724000000000046 287.0,28.870000000000005 287.2999999999993,28.870000000000005 C287.60000000000036,28.870000000000005 287.7000000000007,28.812999999999988 287.89999999999964,28.69799999999998 C288.10000000000036,28.583999999999946 288.2000000000007,28.390999999999963 288.39999999999964,28.120000000000005 L288.5,28.182999999999993 C288.5,28.297000000000025 288.39999999999964,28.388000000000034 288.39999999999964,28.456000000000017 C288.39999999999964,28.524 288.2999999999993,28.628000000000043 288.2000000000007,28.769000000000005 C288.10000000000036,28.908999999999992 288.0,29.020999999999958 287.89999999999964,29.104000000000042 C287.7999999999993,29.187999999999988 287.7000000000007,29.265999999999963 287.5,29.339000000000055 C287.2999999999993,29.412000000000035 287.2000000000007,29.44799999999998 287.0,29.44799999999998 C286.60000000000036,29.44799999999998 286.2000000000007,29.28200000000004 285.89999999999964,28.94799999999998 C285.60000000000036,28.61500000000001 285.5,28.187999999999988 285.5,27.66700000000003 M289.7999999999993,28.57299999999998 C289.89999999999964,28.57299999999998 290.0,28.616999999999962 290.10000000000036,28.706000000000017 C290.2000000000007,28.79499999999996 290.2999999999993,28.900999999999954 290.2999999999993,29.025999999999954 C290.2999999999993,29.140999999999963 290.2000000000007,29.241999999999962 290.10000000000036,29.331000000000017 C290.0,29.41999999999996 289.89999999999964,29.464000000000055 289.7999999999993,29.464000000000055 C289.7000000000007,29.464000000000055 289.60000000000036,29.41999999999996 289.5,29.331000000000017 C289.39999999999964,29.241999999999962 289.39999999999964,29.140999999999963 289.39999999999964,29.025999999999954 C289.39999999999964,28.900999999999954 289.39999999999964,28.79499999999996 289.5,28.706000000000017 C289.60000000000036,28.616999999999962 289.7000000000007,28.57299999999998 289.7999999999993,28.57299999999998" />
</svg>
