<?xml version="1.0" encoding="UTF-8" standalone="yes"?>
<svg width="256.0px" height="256.0px" xmlns="http://www.w3.org/2000/svg" xmlns:xlink="http://www.w3.org/1999/xlink" version="1.2" baseProfile="tiny">
<path d="M130.89999999999964,30.79200000000003 C130.79999999999927,30.69799999999998 130.60000000000036,30.591000000000008 130.5,30.47199999999998 C130.29999999999927,30.351999999999975 130.20000000000073,30.184999999999945 130.0,29.97199999999998 C129.79999999999927,29.758000000000038 129.60000000000036,29.53200000000004 129.5,29.29200000000003 C129.29999999999927,29.05200000000002 129.20000000000073,28.760999999999967 129.10000000000036,28.41700000000003 C129.0,28.07299999999998 129.0,27.71900000000005 129.0,27.354000000000042 C129.0,26.96900000000005 129.0,26.604000000000042 129.10000000000036,26.260999999999967 C129.20000000000073,25.91700000000003 129.29999999999927,25.633000000000038 129.5,25.408999999999992 C129.60000000000036,25.184999999999945 129.79999999999927,24.966000000000008 130.0,24.753000000000043 C130.20000000000073,24.538999999999987 130.29999999999927,24.383000000000038 130.5,24.283999999999992 C130.60000000000036,24.184999999999945 130.79999999999927,24.077999999999975 130.89999999999964,23.964000000000055 L131.0,24.089000000000055 C130.79999999999927,24.287000000000035 130.60000000000036,24.461000000000013 130.39999999999964,24.611999999999966 C130.29999999999927,24.763000000000034 130.20000000000073,24.964000000000055 130.0,25.214000000000055 C129.89999999999964,25.464000000000055 129.79999999999927,25.760999999999967 129.70000000000073,26.104000000000042 C129.70000000000073,26.44799999999998 129.70000000000073,26.860000000000014 129.70000000000073,27.339000000000055 C129.70000000000073,27.827999999999975 129.70000000000073,28.253000000000043 129.70000000000073,28.611999999999966 C129.79999999999927,28.97199999999998 129.89999999999964,29.275999999999954 130.0,29.525999999999954 C130.20000000000073,29.775999999999954 130.29999999999927,29.98199999999997 130.39999999999964,30.144000000000005 C130.60000000000036,30.30499999999995 130.79999999999927,30.474000000000046 131.0,30.650999999999954 L130.89999999999964,30.79200000000003 M131.39999999999964,27.66700000000003 C131.39999999999964,27.07299999999998 131.60000000000036,26.59699999999998 132.0,26.236999999999966 C132.29999999999927,25.878000000000043 132.70000000000073,25.69799999999998 133.20000000000073,25.69799999999998 C133.5,25.69799999999998 133.79999999999927,25.778999999999996 134.0,25.940000000000055 C134.29999999999927,26.101999999999975 134.39999999999964,26.297000000000025 134.39999999999964,26.525999999999954 C134.39999999999964,26.610000000000014 134.39999999999964,26.684999999999945 134.29999999999927,26.753000000000043 C134.20000000000073,26.821000000000026 134.10000000000036,26.854000000000042 134.0,26.854000000000042 C133.79999999999927,26.854000000000042 133.70000000000073,26.735000000000014 133.70000000000073,26.495000000000005 L133.60000000000036,26.32299999999998 C133.60000000000036,26.16700000000003 133.5,26.062999999999988 133.5,26.010999999999967 C133.39999999999964,25.958999999999946 133.29999999999927,25.932999999999993 133.20000000000073,25.932999999999993 C132.79999999999927,25.932999999999993 132.60000000000036,26.059999999999945 132.39999999999964,26.315000000000055 C132.20000000000073,26.571000000000026 132.10000000000036,26.90700000000004 132.10000000000036,27.32299999999998 C132.10000000000036,27.770999999999958 132.20000000000073,28.140999999999963 132.39999999999964,28.432999999999993 C132.60000000000036,28.724000000000046 132.89999999999964,28.870000000000005 133.29999999999927,28.870000000000005 C133.5,28.870000000000005 133.70000000000073,28.812999999999988 133.89999999999964,28.69799999999998 C134.0,28.583999999999946 134.20000000000073,28.390999999999963 134.39999999999964,28.120000000000005 L134.5,28.182999999999993 C134.5,28.297000000000025 134.39999999999964,28.388000000000034 134.39999999999964,28.456000000000017 C134.29999999999927,28.524 134.29999999999927,28.628000000000043 134.20000000000073,28.769000000000005 C134.10000000000036,28.908999999999992 134.0,29.020999999999958 133.89999999999964,29.104000000000042 C133.79999999999927,29.187999999999988 133.60000000000036,29.265999999999963 133.5,29.339000000000055 C133.29999999999927,29.412000000000035 133.10000000000036,29.44799999999998 133.0,29.44799999999998 C132.5,29.44799999999998 132.20000000000073,29.28200000000004 131.89999999999964,28.94799999999998 C131.60000000000036,28.61500000000001 131.39999999999964,28.187999999999988 131.39999999999964,27.66700000000003 M135.10000000000036,23.964000000000055 C135.29999999999927,24.047000000000025 135.39999999999964,24.149 135.60000000000036,24.269000000000005 C135.70000000000073,24.388000000000034 135.89999999999964,24.55499999999995 136.10000000000036,24.769000000000005 C136.29999999999927,24.98199999999997 136.39999999999964,25.211000000000013 136.60000000000036,25.456000000000017 C136.70000000000073,25.701000000000022 136.79999999999927,25.991999999999962 136.89999999999964,26.331000000000017 C137.0,26.66999999999996 137.10000000000036,27.025999999999954 137.10000000000036,27.400999999999954 C137.10000000000036,27.775999999999954 137.0,28.135999999999967 136.89999999999964,28.479000000000042 C136.79999999999927,28.82299999999998 136.70000000000073,29.110000000000014 136.60000000000036,29.339000000000055 C136.5,29.567999999999984 136.29999999999927,29.787000000000035 136.10000000000036,29.995000000000005 C135.89999999999964,30.202999999999975 135.70000000000073,30.360000000000014 135.60000000000036,30.464000000000055 C135.39999999999964,30.567999999999984 135.29999999999927,30.67700000000002 135.10000000000036,30.79200000000003 L135.0,30.650999999999954 C135.29999999999927,30.464000000000055 135.5,30.29200000000003 135.60000000000036,30.135999999999967 C135.79999999999927,29.979000000000042 135.89999999999964,29.778999999999996 136.0,29.533999999999992 C136.10000000000036,29.288999999999987 136.20000000000073,28.995000000000005 136.29999999999927,28.650999999999954 C136.39999999999964,28.307999999999993 136.39999999999964,27.895999999999958 136.39999999999964,27.41700000000003 C136.39999999999964,26.92700000000002 136.39999999999964,26.503000000000043 136.29999999999927,26.144000000000005 C136.20000000000073,25.783999999999992 136.10000000000036,25.476999999999975 136.0,25.22199999999998 C135.89999999999964,24.966000000000008 135.79999999999927,24.760999999999967 135.60000000000036,24.604000000000042 C135.5,24.44799999999998 135.29999999999927,24.275999999999954 135.0,24.089000000000055 L135.10000000000036,23.964000000000055 M140.89999999999964,24.635999999999967 C140.79999999999927,24.635999999999967 140.60000000000036,24.692999999999984 140.29999999999927,24.807999999999993 L140.29999999999927,24.69799999999998 L141.70000000000073,23.964000000000055 L141.79999999999927,23.979000000000042 L141.79999999999927,28.775999999999954 C141.79999999999927,28.974000000000046 141.89999999999964,29.101999999999975 142.0,29.158999999999992 C142.10000000000036,29.216000000000008 142.29999999999927,29.245000000000005 142.60000000000036,29.245000000000005 L142.60000000000036,29.370000000000005 L140.39999999999964,29.370000000000005 L140.39999999999964,29.245000000000005 C140.70000000000073,29.235000000000014 140.89999999999964,29.190000000000055 141.0,29.111999999999966 C141.10000000000036,29.033999999999992 141.10000000000036,28.870000000000005 141.10000000000036,28.620000000000005 L141.10000000000036,25.010999999999967 C141.10000000000036,24.760999999999967 141.10000000000036,24.635999999999967 140.89999999999964,24.635999999999967 M143.89999999999964,29.54200000000003 L143.89999999999964,29.385999999999967 C144.5,29.28200000000004 145.0,29.024 145.39999999999964,28.611999999999966 C145.79999999999927,28.201000000000022 146.10000000000036,27.66700000000003 146.29999999999927,27.010999999999967 C145.89999999999964,27.32299999999998 145.5,27.479000000000042 145.10000000000036,27.479000000000042 C144.70000000000073,27.479000000000042 144.29999999999927,27.327999999999975 144.0,27.025999999999954 C143.79999999999927,26.724000000000046 143.70000000000073,26.333999999999946 143.70000000000073,25.854000000000042 C143.70000000000073,25.312999999999988 143.79999999999927,24.860000000000014 144.10000000000036,24.495000000000005 C144.39999999999964,24.129999999999995 144.79999999999927,23.94799999999998 145.29999999999927,23.94799999999998 C145.89999999999964,23.94799999999998 146.29999999999927,24.158999999999992 146.60000000000036,24.581000000000017 C147.0,25.003000000000043 147.10000000000036,25.547000000000025 147.10000000000036,26.214000000000055 C147.10000000000036,26.432999999999993 147.10000000000036,26.653999999999996 147.10000000000036,26.878000000000043 C147.0,27.101999999999975 146.89999999999964,27.366999999999962 146.79999999999927,27.674999999999955 C146.70000000000073,27.98199999999997 146.5,28.254999999999995 146.29999999999927,28.495000000000005 C146.0,28.735000000000014 145.70000000000073,28.952999999999975 145.29999999999927,29.150999999999954 C144.89999999999964,29.349000000000046 144.39999999999964,29.479000000000042 143.89999999999964,29.54200000000003 M145.39999999999964,27.120000000000005 C145.5,27.120000000000005 145.60000000000036,27.10699999999997 145.70000000000073,27.081000000000017 C145.89999999999964,27.05499999999995 146.0,26.991999999999962 146.10000000000036,26.894000000000005 C146.20000000000073,26.79499999999996 146.29999999999927,26.672000000000025 146.29999999999927,26.525999999999954 L146.29999999999927,26.214000000000055 C146.29999999999927,24.860000000000014 146.0,24.182999999999993 145.29999999999927,24.182999999999993 C145.10000000000036,24.182999999999993 145.0,24.226999999999975 144.79999999999927,24.315000000000055 C144.70000000000073,24.403999999999996 144.60000000000036,24.520999999999958 144.60000000000036,24.66700000000003 C144.5,24.812999999999988 144.5,24.958999999999946 144.39999999999964,25.104000000000042 C144.39999999999964,25.25 144.39999999999964,25.40700000000004 144.39999999999964,25.57299999999998 C144.39999999999964,26.05200000000002 144.5,26.42999999999995 144.70000000000073,26.706000000000017 C144.79999999999927,26.98199999999997 145.10000000000036,27.120000000000005 145.39999999999964,27.120000000000005 M149.5,29.479000000000042 C148.89999999999964,29.479000000000042 148.5,29.265999999999963 148.20000000000073,28.839000000000055 C147.79999999999927,28.412000000000035 147.70000000000073,27.84400000000005 147.70000000000073,27.135999999999967 C147.70000000000073,26.91700000000003 147.70000000000073,26.692999999999984 147.70000000000073,26.464000000000055 C147.79999999999927,26.235000000000014 147.89999999999964,25.97199999999998 148.0,25.674999999999955 C148.20000000000073,25.378000000000043 148.29999999999927,25.111999999999966 148.60000000000036,24.878000000000043 C148.79999999999927,24.644000000000005 149.10000000000036,24.434999999999945 149.5,24.253000000000043 C150.0,24.071000000000026 150.39999999999964,23.952999999999975 151.0,23.900999999999954 L151.0,24.025999999999954 C150.39999999999964,24.129999999999995 149.79999999999927,24.385999999999967 149.39999999999964,24.79200000000003 C149.0,25.19799999999998 148.70000000000073,25.702999999999975 148.60000000000036,26.307999999999993 C148.89999999999964,26.162000000000035 149.0,26.067999999999984 149.20000000000073,26.025999999999954 C149.29999999999927,25.985000000000014 149.5,25.964000000000055 149.60000000000036,25.964000000000055 C150.10000000000036,25.964000000000055 150.5,26.111999999999966 150.79999999999927,26.408999999999992 C151.0,26.706000000000017 151.20000000000073,27.104000000000042 151.20000000000073,27.604000000000042 C151.20000000000073,28.15700000000004 151.0,28.60699999999997 150.70000000000073,28.956000000000017 C150.39999999999964,29.30499999999995 150.0,29.479000000000042 149.5,29.479000000000042 M149.29999999999927,26.32299999999998 C149.0,26.32299999999998 148.70000000000073,26.400999999999954 148.60000000000036,26.557999999999993 C148.5,26.714000000000055 148.39999999999964,26.94799999999998 148.39999999999964,27.260999999999967 C148.39999999999964,27.875 148.5,28.360000000000014 148.70000000000073,28.714000000000055 C148.89999999999964,29.067999999999984 149.20000000000073,29.245000000000005 149.5,29.245000000000005 C149.79999999999927,29.245000000000005 150.10000000000036,29.128000000000043 150.20000000000073,28.894000000000005 C150.29999999999927,28.658999999999992 150.39999999999964,28.32299999999998 150.39999999999964,27.885999999999967 C150.39999999999964,27.385999999999967 150.29999999999927,27.0 150.10000000000036,26.729000000000042 C149.89999999999964,26.458999999999946 149.70000000000073,26.32299999999998 149.29999999999927,26.32299999999998 M153.70000000000073,26.400999999999954 C154.20000000000073,26.754999999999995 154.5,27.05200000000002 154.70000000000073,27.29200000000003 C154.89999999999964,27.53200000000004 155.0,27.807999999999993 155.0,28.120000000000005 C155.0,28.537000000000035 154.79999999999927,28.866999999999962 154.5,29.111999999999966 C154.20000000000073,29.35699999999997 153.89999999999964,29.479000000000042 153.39999999999964,29.479000000000042 C152.89999999999964,29.479000000000042 152.60000000000036,29.35699999999997 152.29999999999927,29.111999999999966 C152.0,28.866999999999962 151.79999999999927,28.547000000000025 151.79999999999927,28.150999999999954 C151.79999999999927,27.879999999999995 151.89999999999964,27.653999999999996 152.0,27.47199999999998 C152.20000000000073,27.288999999999987 152.39999999999964,27.037000000000035 152.89999999999964,26.714000000000055 C152.5,26.339000000000055 152.20000000000073,26.062999999999988 152.10000000000036,25.885999999999967 C151.89999999999964,25.708999999999946 151.89999999999964,25.49000000000001 151.89999999999964,25.229000000000042 C151.89999999999964,24.86500000000001 152.0,24.559999999999945 152.29999999999927,24.315000000000055 C152.60000000000036,24.071000000000026 153.0,23.94799999999998 153.39999999999964,23.94799999999998 C153.79999999999927,23.94799999999998 154.10000000000036,24.05499999999995 154.39999999999964,24.269000000000005 C154.60000000000036,24.48199999999997 154.79999999999927,24.760999999999967 154.79999999999927,25.104000000000042 C154.79999999999927,25.375 154.70000000000073,25.604000000000042 154.5,25.79200000000003 C154.39999999999964,25.979000000000042 154.10000000000036,26.182999999999993 153.70000000000073,26.400999999999954 M153.10000000000036,26.870000000000005 C152.89999999999964,27.057999999999993 152.70000000000073,27.241999999999962 152.60000000000036,27.424999999999955 C152.5,27.60699999999997 152.5,27.827999999999975 152.5,28.089000000000055 C152.5,28.432999999999993 152.60000000000036,28.711000000000013 152.70000000000073,28.924999999999955 C152.89999999999964,29.138000000000034 153.20000000000073,29.245000000000005 153.5,29.245000000000005 C153.70000000000073,29.245000000000005 153.89999999999964,29.163999999999987 154.10000000000036,29.003000000000043 C154.29999999999927,28.841000000000008 154.29999999999927,28.629999999999995 154.29999999999927,28.370000000000005 C154.29999999999927,28.287000000000035 154.29999999999927,28.206000000000017 154.29999999999927,28.128000000000043 C154.29999999999927,28.049999999999955 154.29999999999927,27.985000000000014 154.29999999999927,27.932999999999993 C154.20000000000073,27.879999999999995 154.20000000000073,27.817999999999984 154.10000000000036,27.745000000000005 C154.10000000000036,27.672000000000025 154.0,27.616999999999962 154.0,27.581000000000017 C154.0,27.54499999999996 153.89999999999964,27.486999999999966 153.79999999999927,27.408999999999992 C153.70000000000073,27.331000000000017 153.70000000000073,27.275999999999954 153.60000000000036,27.245000000000005 C153.60000000000036,27.214000000000055 153.5,27.153999999999996 153.39999999999964,27.065000000000055 C153.20000000000073,26.976999999999975 153.20000000000073,26.912000000000035 153.10000000000036,26.870000000000005 M153.5,26.260999999999967 C153.5,26.25 153.5,26.22199999999998 153.60000000000036,26.174999999999955 C153.70000000000073,26.128000000000043 153.70000000000073,26.091000000000008 153.70000000000073,26.065000000000055 C153.79999999999927,26.038999999999987 153.79999999999927,26.0 153.89999999999964,25.94799999999998 C153.89999999999964,25.895999999999958 154.0,25.84400000000005 154.0,25.79200000000003 C154.0,25.74000000000001 154.10000000000036,25.67700000000002 154.10000000000036,25.604000000000042 C154.20000000000073,25.53200000000004 154.20000000000073,25.451000000000022 154.20000000000073,25.361999999999966 C154.20000000000073,25.274 154.20000000000073,25.182999999999993 154.20000000000073,25.089000000000055 C154.20000000000073,24.817999999999984 154.20000000000073,24.599000000000046 154.0,24.432999999999993 C153.79999999999927,24.265999999999963 153.60000000000036,24.182999999999993 153.39999999999964,24.182999999999993 C153.10000000000036,24.182999999999993 152.89999999999964,24.258000000000038 152.70000000000073,24.408999999999992 C152.60000000000036,24.559999999999945 152.5,24.75 152.5,24.979000000000042 C152.5,25.19799999999998 152.60000000000036,25.40700000000004 152.70000000000073,25.604000000000042 C152.89999999999964,25.80200000000002 153.10000000000036,26.020999999999958 153.5,26.260999999999967 M162.79999999999927,26.69799999999998 C162.79999999999927,26.937999999999988 162.79999999999927,27.172000000000025 162.79999999999927,27.400999999999954 C162.70000000000073,27.629999999999995 162.60000000000036,27.866999999999962 162.5,28.111999999999966 C162.29999999999927,28.35699999999997 162.10000000000036,28.567999999999984 161.89999999999964,28.745000000000005 C161.70000000000073,28.922000000000025 161.39999999999964,29.071000000000026 161.0,29.190000000000055 C160.60000000000036,29.309999999999945 160.20000000000073,29.370000000000005 159.70000000000073,29.370000000000005 L157.5,29.370000000000005 L157.5,29.214000000000055 C157.79999999999927,29.192999999999984 158.0,29.140999999999963 158.10000000000036,29.057999999999993 C158.10000000000036,28.974000000000046 158.20000000000073,28.787000000000035 158.20000000000073,28.495000000000005 L158.20000000000073,24.94799999999998 C158.20000000000073,24.65700000000004 158.10000000000036,24.47199999999998 158.10000000000036,24.394000000000005 C158.0,24.315000000000055 157.79999999999927,24.260999999999967 157.5,24.229000000000042 L157.5,24.07299999999998 L159.60000000000036,24.07299999999998 C160.10000000000036,24.07299999999998 160.60000000000036,24.128000000000043 160.89999999999964,24.236999999999966 C161.29999999999927,24.34699999999998 161.60000000000036,24.486999999999966 161.89999999999964,24.658999999999992 C162.10000000000036,24.831000000000017 162.29999999999927,25.037000000000035 162.39999999999964,25.275999999999954 C162.60000000000036,25.515999999999963 162.70000000000073,25.75 162.79999999999927,25.979000000000042 C162.79999999999927,26.208999999999946 162.79999999999927,26.44799999999998 162.79999999999927,26.69799999999998 M161.89999999999964,26.760999999999967 C161.89999999999964,26.53200000000004 161.89999999999964,26.309999999999945 161.89999999999964,26.09699999999998 C161.79999999999927,25.883000000000038 161.79999999999927,25.66999999999996 161.60000000000036,25.456000000000017 C161.5,25.241999999999962 161.39999999999964,25.059999999999945 161.20000000000073,24.908999999999992 C161.0,24.758000000000038 160.79999999999927,24.633000000000038 160.39999999999964,24.533999999999992 C160.10000000000036,24.434999999999945 159.79999999999927,24.385999999999967 159.39999999999964,24.385999999999967 C159.29999999999927,24.385999999999967 159.10000000000036,24.40700000000004 159.10000000000036,24.44799999999998 C159.0,24.49000000000001 159.0,24.57299999999998 159.0,24.69799999999998 L159.0,28.745000000000005 C159.0,28.870000000000005 159.0,28.956000000000017 159.10000000000036,29.003000000000043 C159.10000000000036,29.049999999999955 159.29999999999927,29.07299999999998 159.39999999999964,29.07299999999998 C161.10000000000036,29.07299999999998 161.89999999999964,28.30200000000002 161.89999999999964,26.760999999999967 M165.79999999999927,26.885999999999967 C165.60000000000036,26.458999999999946 165.5,26.190000000000055 165.5,26.081000000000017 C165.39999999999964,25.97199999999998 165.29999999999927,25.90700000000004 165.10000000000036,25.885999999999967 L165.10000000000036,25.775999999999954 L166.70000000000073,25.775999999999954 L166.70000000000073,25.885999999999967 C166.5,25.91700000000003 166.39999999999964,25.951000000000022 166.29999999999927,25.986999999999966 C166.29999999999927,26.024 166.20000000000073,26.089000000000055 166.20000000000073,26.182999999999993 C166.20000000000073,26.245000000000005 166.29999999999927,26.400999999999954 166.39999999999964,26.650999999999954 L167.0,28.44799999999998 L167.79999999999927,26.66700000000003 C167.89999999999964,26.44799999999998 167.89999999999964,26.270999999999958 167.89999999999964,26.135999999999967 C167.89999999999964,26.07299999999998 167.89999999999964,26.024 167.79999999999927,25.986999999999966 C167.79999999999927,25.951000000000022 167.70000000000073,25.91700000000003 167.5,25.885999999999967 L167.5,25.775999999999954 L168.5,25.775999999999954 L168.5,25.885999999999967 C168.39999999999964,25.91700000000003 168.39999999999964,25.956000000000017 168.39999999999964,26.003000000000043 C168.29999999999927,26.049999999999955 168.29999999999927,26.15700000000004 168.20000000000073,26.32299999999998 L167.10000000000036,29.089000000000055 C167.0,29.349000000000046 166.89999999999964,29.479000000000042 166.89999999999964,29.479000000000042 C166.79999999999927,29.479000000000042 166.79999999999927,29.36500000000001 166.70000000000073,29.135999999999967 L165.89999999999964,27.245000000000005 L165.10000000000036,29.16700000000003 C165.0,29.375 164.89999999999964,29.479000000000042 164.89999999999964,29.479000000000042 C164.79999999999927,29.479000000000042 164.70000000000073,29.36500000000001 164.70000000000073,29.135999999999967 L163.60000000000036,26.400999999999954 C163.5,26.192999999999984 163.39999999999964,26.057999999999993 163.39999999999964,25.995000000000005 C163.29999999999927,25.932999999999993 163.20000000000073,25.895999999999958 163.20000000000073,25.885999999999967 L163.20000000000073,25.775999999999954 L164.60000000000036,25.775999999999954 L164.60000000000036,25.885999999999967 C164.39999999999964,25.90700000000004 164.29999999999927,25.934999999999945 164.29999999999927,25.97199999999998 C164.20000000000073,26.008000000000038 164.20000000000073,26.067999999999984 164.20000000000073,26.150999999999954 C164.20000000000073,26.235000000000014 164.20000000000073,26.317999999999984 164.29999999999927,26.400999999999954 L165.10000000000036,28.479000000000042 L165.79999999999927,26.885999999999967 M168.79999999999927,28.57299999999998 C168.79999999999927,28.479000000000042 168.79999999999927,28.394000000000005 168.79999999999927,28.315000000000055 C168.79999999999927,28.236999999999966 168.89999999999964,28.162000000000035 168.89999999999964,28.089000000000055 C169.0,28.015999999999963 169.0,27.951000000000022 169.10000000000036,27.894000000000005 C169.10000000000036,27.836000000000013 169.20000000000073,27.775999999999954 169.29999999999927,27.714000000000055 C169.39999999999964,27.650999999999954 169.5,27.599000000000046 169.5,27.557999999999993 C169.60000000000036,27.515999999999963 169.70000000000073,27.46900000000005 169.79999999999927,27.41700000000003 C169.89999999999964,27.36500000000001 170.0,27.32299999999998 170.10000000000036,27.29200000000003 C170.20000000000073,27.260999999999967 170.29999999999927,27.216000000000008 170.39999999999964,27.158999999999992 C170.60000000000036,27.101999999999975 170.70000000000073,27.057999999999993 170.79999999999927,27.025999999999954 L170.79999999999927,26.54200000000003 C170.79999999999927,26.104000000000042 170.60000000000036,25.885999999999967 170.20000000000073,25.885999999999967 C170.0,25.885999999999967 169.89999999999964,25.924999999999955 169.79999999999927,26.003000000000043 C169.60000000000036,26.081000000000017 169.60000000000036,26.172000000000025 169.60000000000036,26.275999999999954 C169.60000000000036,26.317999999999984 169.60000000000036,26.375 169.60000000000036,26.44799999999998 C169.60000000000036,26.520999999999958 169.60000000000036,26.567999999999984 169.60000000000036,26.589000000000055 C169.60000000000036,26.682999999999993 169.60000000000036,26.763000000000034 169.5,26.831000000000017 C169.5,26.899 169.39999999999964,26.932999999999993 169.29999999999927,26.932999999999993 C169.20000000000073,26.932999999999993 169.10000000000036,26.899 169.0,26.831000000000017 C169.0,26.763000000000034 168.89999999999964,26.682999999999993 168.89999999999964,26.589000000000055 C168.89999999999964,26.339000000000055 169.0,26.128000000000043 169.29999999999927,25.956000000000017 C169.60000000000036,25.783999999999992 169.89999999999964,25.69799999999998 170.29999999999927,25.69799999999998 C170.70000000000073,25.69799999999998 171.0,25.80200000000002 171.10000000000036,26.010999999999967 C171.29999999999927,26.21900000000005 171.39999999999964,26.537000000000035 171.39999999999964,26.964000000000055 L171.39999999999964,28.510999999999967 C171.39999999999964,28.687999999999988 171.39999999999964,28.809999999999945 171.39999999999964,28.878000000000043 C171.5,28.946000000000026 171.5,28.979000000000042 171.60000000000036,28.979000000000042 C171.70000000000073,28.979000000000042 171.89999999999964,28.92700000000002 172.0,28.82299999999998 L172.0,29.04200000000003 C171.79999999999927,29.19799999999998 171.70000000000073,29.30499999999995 171.60000000000036,29.361999999999966 C171.5,29.41999999999996 171.39999999999964,29.44799999999998 171.29999999999927,29.44799999999998 C171.10000000000036,29.44799999999998 171.0,29.400999999999954 170.89999999999964,29.307999999999993 C170.79999999999927,29.214000000000055 170.79999999999927,29.062999999999988 170.79999999999927,28.854000000000042 C170.29999999999927,29.25 169.89999999999964,29.44799999999998 169.60000000000036,29.44799999999998 C169.39999999999964,29.44799999999998 169.20000000000073,29.366999999999962 169.0,29.206000000000017 C168.89999999999964,29.04499999999996 168.79999999999927,28.833999999999946 168.79999999999927,28.57299999999998 M170.79999999999927,28.370000000000005 L170.79999999999927,27.214000000000055 C170.29999999999927,27.390999999999963 169.89999999999964,27.562999999999988 169.79999999999927,27.729000000000042 C169.60000000000036,27.895999999999958 169.5,28.09400000000005 169.5,28.32299999999998 C169.5,28.54200000000003 169.5,28.702999999999975 169.60000000000036,28.807999999999993 C169.70000000000073,28.912000000000035 169.89999999999964,28.964000000000055 170.0,28.964000000000055 C170.20000000000073,28.964000000000055 170.29999999999927,28.90700000000004 170.60000000000036,28.79200000000003 C170.60000000000036,28.74000000000001 170.70000000000073,28.687999999999988 170.70000000000073,28.635999999999967 C170.70000000000073,28.583999999999946 170.79999999999927,28.495000000000005 170.79999999999927,28.370000000000005 M174.39999999999964,26.44799999999998 C174.39999999999964,26.44799999999998 174.29999999999927,26.400999999999954 174.10000000000036,26.307999999999993 C174.0,26.214000000000055 173.89999999999964,26.16700000000003 173.89999999999964,26.16700000000003 C173.79999999999927,26.16700000000003 173.70000000000073,26.245000000000005 173.60000000000036,26.400999999999954 C173.39999999999964,26.557999999999993 173.39999999999964,26.702999999999975 173.39999999999964,26.839000000000055 L173.39999999999964,28.650999999999954 C173.39999999999964,28.879999999999995 173.39999999999964,29.033999999999992 173.5,29.111999999999966 C173.60000000000036,29.190000000000055 173.79999999999927,29.235000000000014 174.0,29.245000000000005 L174.0,29.370000000000005 L172.10000000000036,29.370000000000005 L172.10000000000036,29.245000000000005 C172.39999999999964,29.202999999999975 172.5,29.150999999999954 172.60000000000036,29.089000000000055 C172.60000000000036,29.025999999999954 172.70000000000073,28.895999999999958 172.70000000000073,28.69799999999998 L172.70000000000073,26.682999999999993 C172.70000000000073,26.504999999999995 172.60000000000036,26.379999999999995 172.60000000000036,26.307999999999993 C172.60000000000036,26.235000000000014 172.5,26.19799999999998 172.39999999999964,26.19799999999998 C172.29999999999927,26.19799999999998 172.20000000000073,26.208999999999946 172.10000000000036,26.229000000000042 L172.10000000000036,26.104000000000042 C172.5,25.96900000000005 172.89999999999964,25.833999999999946 173.29999999999927,25.69799999999998 L173.39999999999964,25.714000000000055 L173.39999999999964,26.41700000000003 C173.60000000000036,26.145999999999958 173.70000000000073,25.958999999999946 173.89999999999964,25.854000000000042 C174.0,25.75 174.10000000000036,25.69799999999998 174.29999999999927,25.69799999999998 C174.5,25.69799999999998 174.60000000000036,25.73199999999997 174.60000000000036,25.799999999999955 C174.70000000000073,25.866999999999962 174.70000000000073,25.96900000000005 174.70000000000073,26.104000000000042 C174.70000000000073,26.208999999999946 174.70000000000073,26.29200000000003 174.70000000000073,26.354000000000042 C174.60000000000036,26.41700000000003 174.5,26.44799999999998 174.39999999999964,26.44799999999998 M177.39999999999964,24.729000000000042 C177.29999999999927,24.729000000000042 177.29999999999927,24.69799999999998 177.20000000000073,24.635999999999967 C177.20000000000073,24.57299999999998 177.10000000000036,24.504999999999995 177.10000000000036,24.432999999999993 C177.0,24.360000000000014 177.0,24.29200000000003 176.89999999999964,24.229000000000042 C176.79999999999927,24.16700000000003 176.70000000000073,24.135999999999967 176.70000000000073,24.135999999999967 C176.29999999999927,24.135999999999967 176.20000000000073,24.370000000000005 176.20000000000073,24.839000000000055 L176.20000000000073,25.775999999999954 L177.20000000000073,25.775999999999954 L177.20000000000073,26.010999999999967 L176.20000000000073,26.010999999999967 L176.20000000000073,28.54200000000003 C176.20000000000073,28.833999999999946 176.20000000000073,29.020999999999958 176.29999999999927,29.104000000000042 C176.39999999999964,29.187999999999988 176.60000000000036,29.235000000000014 176.89999999999964,29.245000000000005 L176.89999999999964,29.370000000000005 L174.89999999999964,29.370000000000005 L174.89999999999964,29.245000000000005 C175.10000000000036,29.235000000000014 175.29999999999927,29.187999999999988 175.39999999999964,29.104000000000042 C175.5,29.020999999999958 175.5,28.833999999999946 175.5,28.54200000000003 L175.5,26.010999999999967 L174.89999999999964,26.010999999999967 L174.89999999999964,25.775999999999954 L175.5,25.775999999999954 C175.5,25.172000000000025 175.60000000000036,24.706000000000017 175.89999999999964,24.378000000000043 C176.10000000000036,24.049999999999955 176.39999999999964,23.885999999999967 176.89999999999964,23.885999999999967 C177.20000000000073,23.885999999999967 177.39999999999964,23.934999999999945 177.5,24.033999999999992 C177.70000000000073,24.133000000000038 177.79999999999927,24.254999999999995 177.79999999999927,24.400999999999954 C177.79999999999927,24.495000000000005 177.70000000000073,24.57299999999998 177.70000000000073,24.635999999999967 C177.60000000000036,24.69799999999998 177.5,24.729000000000042 177.39999999999964,24.729000000000042 M185.10000000000036,24.79200000000003 L183.10000000000036,29.370000000000005 L183.0,29.370000000000005 L181.0,24.979000000000042 L181.0,28.19799999999998 C181.0,28.604000000000042 181.0,28.873000000000047 181.10000000000036,29.003000000000043 C181.20000000000073,29.133000000000038 181.39999999999964,29.202999999999975 181.70000000000073,29.214000000000055 L181.70000000000073,29.370000000000005 L179.89999999999964,29.370000000000005 L179.89999999999964,29.214000000000055 C180.20000000000073,29.192999999999984 180.39999999999964,29.120000000000005 180.5,28.995000000000005 C180.60000000000036,28.870000000000005 180.60000000000036,28.604000000000042 180.60000000000036,28.19799999999998 L180.60000000000036,24.94799999999998 C180.60000000000036,24.65700000000004 180.60000000000036,24.46900000000005 180.5,24.385999999999967 C180.39999999999964,24.30200000000002 180.20000000000073,24.25 179.89999999999964,24.229000000000042 L179.89999999999964,24.07299999999998 L181.39999999999964,24.07299999999998 L183.29999999999927,28.120000000000005 L185.10000000000036,24.07299999999998 L186.70000000000073,24.07299999999998 L186.70000000000073,24.229000000000042 C186.29999999999927,24.260999999999967 186.20000000000073,24.317999999999984 186.10000000000036,24.400999999999954 C186.0,24.485000000000014 186.0,24.66700000000003 186.0,24.94799999999998 L186.0,28.495000000000005 C186.0,28.775999999999954 186.0,28.961000000000013 186.10000000000036,29.049999999999955 C186.20000000000073,29.138000000000034 186.39999999999964,29.192999999999984 186.70000000000073,29.214000000000055 L186.70000000000073,29.370000000000005 L184.39999999999964,29.370000000000005 L184.39999999999964,29.214000000000055 C184.70000000000073,29.192999999999984 184.89999999999964,29.135999999999967 185.0,29.04200000000003 C185.10000000000036,28.94799999999998 185.10000000000036,28.74000000000001 185.10000000000036,28.41700000000003 L185.10000000000036,24.79200000000003 M190.60000000000036,28.94799999999998 L190.60000000000036,29.07299999999998 C190.20000000000073,29.187999999999988 189.79999999999927,29.312999999999988 189.5,29.44799999999998 L189.5,29.432999999999993 L189.5,28.745000000000005 C189.5,28.765999999999963 189.39999999999964,28.815000000000055 189.29999999999927,28.894000000000005 C189.29999999999927,28.97199999999998 189.20000000000073,29.025999999999954 189.20000000000073,29.057999999999993 C189.20000000000073,29.089000000000055 189.10000000000036,29.135999999999967 189.0,29.19799999999998 C188.89999999999964,29.260999999999967 188.89999999999964,29.30499999999995 188.79999999999927,29.331000000000017 C188.79999999999927,29.35699999999997 188.70000000000073,29.383000000000038 188.60000000000036,29.408999999999992 C188.5,29.434999999999945 188.39999999999964,29.44799999999998 188.29999999999927,29.44799999999998 C188.0,29.44799999999998 187.79999999999927,29.351999999999975 187.60000000000036,29.158999999999992 C187.39999999999964,28.966000000000008 187.39999999999964,28.714000000000055 187.39999999999964,28.400999999999954 L187.39999999999964,26.385999999999967 C187.39999999999964,26.208999999999946 187.29999999999927,26.083999999999946 187.29999999999927,26.010999999999967 C187.20000000000073,25.937999999999988 187.10000000000036,25.895999999999958 186.89999999999964,25.885999999999967 L186.89999999999964,25.775999999999954 L188.0,25.775999999999954 L188.0,28.370000000000005 C188.0,28.525999999999954 188.10000000000036,28.663999999999987 188.20000000000073,28.783999999999992 C188.29999999999927,28.903999999999996 188.39999999999964,28.964000000000055 188.60000000000036,28.964000000000055 C188.70000000000073,28.964000000000055 188.70000000000073,28.956000000000017 188.79999999999927,28.940000000000055 C188.89999999999964,28.924999999999955 189.0,28.895999999999958 189.10000000000036,28.854000000000042 C189.20000000000073,28.812999999999988 189.29999999999927,28.741999999999962 189.29999999999927,28.644000000000005 C189.39999999999964,28.54499999999996 189.39999999999964,28.422000000000025 189.39999999999964,28.275999999999954 L189.39999999999964,26.400999999999954 C189.39999999999964,26.214000000000055 189.39999999999964,26.086000000000013 189.29999999999927,26.019000000000005 C189.29999999999927,25.951000000000022 189.10000000000036,25.912000000000035 188.89999999999964,25.900999999999954 L188.89999999999964,25.775999999999954 L190.10000000000036,25.775999999999954 L190.10000000000036,28.495000000000005 C190.10000000000036,28.682999999999993 190.20000000000073,28.80499999999995 190.20000000000073,28.861999999999966 C190.29999999999927,28.91999999999996 190.39999999999964,28.94799999999998 190.60000000000036,28.94799999999998 L190.60000000000036,28.94799999999998 M192.79999999999927,25.854000000000042 C192.79999999999927,25.854000000000042 192.89999999999964,25.827999999999975 192.89999999999964,25.775999999999954 L193.0,25.775999999999954 L193.10000000000036,26.854000000000042 L192.89999999999964,26.854000000000042 C192.89999999999964,26.5 192.79999999999927,26.248000000000047 192.60000000000036,26.09699999999998 C192.5,25.946000000000026 192.29999999999927,25.870000000000005 192.10000000000036,25.870000000000005 C191.89999999999964,25.870000000000005 191.79999999999927,25.922000000000025 191.60000000000036,26.025999999999954 C191.5,26.129999999999995 191.5,26.260999999999967 191.5,26.41700000000003 C191.5,26.645999999999958 191.60000000000036,26.827999999999975 191.79999999999927,26.964000000000055 L192.70000000000073,27.479000000000042 C192.89999999999964,27.625 193.10000000000036,27.770999999999958 193.20000000000073,27.91700000000003 C193.29999999999927,28.062999999999988 193.29999999999927,28.235000000000014 193.29999999999927,28.432999999999993 C193.29999999999927,28.702999999999975 193.20000000000073,28.940000000000055 193.0,29.144000000000005 C192.79999999999927,29.34699999999998 192.5,29.44799999999998 192.20000000000073,29.44799999999998 C192.10000000000036,29.44799999999998 191.89999999999964,29.424999999999955 191.70000000000073,29.378000000000043 C191.5,29.331000000000017 191.29999999999927,29.307999999999993 191.29999999999927,29.307999999999993 C191.20000000000073,29.307999999999993 191.10000000000036,29.339000000000055 191.10000000000036,29.400999999999954 L191.0,29.400999999999954 L191.0,28.150999999999954 L191.10000000000036,28.150999999999954 C191.20000000000073,28.525999999999954 191.29999999999927,28.79200000000003 191.39999999999964,28.94799999999998 C191.60000000000036,29.16700000000003 191.79999999999927,29.275999999999954 192.10000000000036,29.275999999999954 C192.29999999999927,29.275999999999954 192.5,29.224000000000046 192.60000000000036,29.120000000000005 C192.70000000000073,29.015999999999963 192.79999999999927,28.875 192.79999999999927,28.69799999999998 C192.79999999999927,28.458999999999946 192.60000000000036,28.260999999999967 192.39999999999964,28.104000000000042 L191.89999999999964,27.839000000000055 C191.60000000000036,27.640999999999963 191.29999999999927,27.456000000000017 191.20000000000073,27.283999999999992 C191.0,27.111999999999966 191.0,26.912000000000035 191.0,26.682999999999993 C191.0,26.390999999999963 191.10000000000036,26.153999999999996 191.29999999999927,25.97199999999998 C191.5,25.788999999999987 191.70000000000073,25.69799999999998 192.10000000000036,25.69799999999998 C192.20000000000073,25.69799999999998 192.39999999999964,25.724000000000046 192.5,25.775999999999954 C192.70000000000073,25.827999999999975 192.79999999999927,25.854000000000042 192.79999999999927,25.854000000000042 M194.10000000000036,26.229000000000042 C194.0,26.229000000000042 193.89999999999964,26.235000000000014 193.79999999999927,26.245000000000005 L193.79999999999927,26.135999999999967 C194.10000000000036,26.03200000000004 194.60000000000036,25.885999999999967 195.0,25.69799999999998 L195.0,25.714000000000055 L195.0,28.557999999999993 C195.0,28.839000000000055 195.10000000000036,29.019000000000005 195.10000000000036,29.09699999999998 C195.20000000000073,29.174999999999955 195.39999999999964,29.224000000000046 195.60000000000036,29.245000000000005 L195.60000000000036,29.370000000000005 L193.70000000000073,29.370000000000005 L193.70000000000073,29.245000000000005 C194.0,29.235000000000014 194.20000000000073,29.187999999999988 194.29999999999927,29.104000000000042 C194.29999999999927,29.020999999999958 194.39999999999964,28.839000000000055 194.39999999999964,28.557999999999993 L194.39999999999964,26.69799999999998 C194.39999999999964,26.520999999999958 194.29999999999927,26.399 194.29999999999927,26.331000000000017 C194.29999999999927,26.263000000000034 194.20000000000073,26.229000000000042 194.10000000000036,26.229000000000042 M194.60000000000036,23.900999999999954 C194.79999999999927,23.900999999999954 194.79999999999927,23.942999999999984 194.89999999999964,24.025999999999954 C195.0,24.110000000000014 195.10000000000036,24.208999999999946 195.10000000000036,24.32299999999998 C195.10000000000036,24.437999999999988 195.0,24.533999999999992 194.89999999999964,24.611999999999966 C194.79999999999927,24.690000000000055 194.79999999999927,24.729000000000042 194.60000000000036,24.729000000000042 C194.5,24.729000000000042 194.39999999999964,24.687999999999988 194.29999999999927,24.604000000000042 C194.29999999999927,24.520999999999958 194.20000000000073,24.424999999999955 194.20000000000073,24.315000000000055 C194.20000000000073,24.206000000000017 194.29999999999927,24.110000000000014 194.29999999999927,24.025999999999954 C194.39999999999964,23.942999999999984 194.5,23.900999999999954 194.60000000000036,23.900999999999954 M196.0,27.66700000000003 C196.0,27.07299999999998 196.20000000000073,26.59699999999998 196.5,26.236999999999966 C196.89999999999964,25.878000000000043 197.29999999999927,25.69799999999998 197.79999999999927,25.69799999999998 C198.10000000000036,25.69799999999998 198.39999999999964,25.778999999999996 198.60000000000036,25.940000000000055 C198.89999999999964,26.101999999999975 199.0,26.297000000000025 199.0,26.525999999999954 C199.0,26.610000000000014 198.89999999999964,26.684999999999945 198.89999999999964,26.753000000000043 C198.79999999999927,26.821000000000026 198.70000000000073,26.854000000000042 198.60000000000036,26.854000000000042 C198.39999999999964,26.854000000000042 198.29999999999927,26.735000000000014 198.20000000000073,26.495000000000005 L198.20000000000073,26.32299999999998 C198.20000000000073,26.16700000000003 198.10000000000036,26.062999999999988 198.0,26.010999999999967 C198.0,25.958999999999946 197.89999999999964,25.932999999999993 197.70000000000073,25.932999999999993 C197.39999999999964,25.932999999999993 197.10000000000036,26.059999999999945 196.89999999999964,26.315000000000055 C196.79999999999927,26.571000000000026 196.70000000000073,26.90700000000004 196.70000000000073,27.32299999999998 C196.70000000000073,27.770999999999958 196.79999999999927,28.140999999999963 197.0,28.432999999999993 C197.20000000000073,28.724000000000046 197.5,28.870000000000005 197.89999999999964,28.870000000000005 C198.10000000000036,28.870000000000005 198.29999999999927,28.812999999999988 198.5,28.69799999999998 C198.60000000000036,28.583999999999946 198.79999999999927,28.390999999999963 199.0,28.120000000000005 L199.10000000000036,28.182999999999993 C199.0,28.297000000000025 199.0,28.388000000000034 199.0,28.456000000000017 C198.89999999999964,28.524 198.79999999999927,28.628000000000043 198.70000000000073,28.769000000000005 C198.60000000000036,28.908999999999992 198.5,29.020999999999958 198.39999999999964,29.104000000000042 C198.29999999999927,29.187999999999988 198.20000000000073,29.265999999999963 198.0,29.339000000000055 C197.89999999999964,29.412000000000035 197.70000000000073,29.44799999999998 197.5,29.44799999999998 C197.10000000000036,29.44799999999998 196.70000000000073,29.28200000000004 196.5,28.94799999999998 C196.20000000000073,28.61500000000001 196.0,28.187999999999988 196.0,27.66700000000003 M200.39999999999964,28.57299999999998 C200.5,28.57299999999998 200.60000000000036,28.616999999999962 200.70000000000073,28.706000000000017 C200.79999999999927,28.79499999999996 200.79999999999927,28.900999999999954 200.79999999999927,29.025999999999954 C200.79999999999927,29.140999999999963 200.79999999999927,29.241999999999962 200.70000000000073,29.331000000000017 C200.60000000000036,29.41999999999996 200.5,29.464000000000055 200.39999999999964,29.464000000000055 C200.20000000000073,29.464000000000055 200.10000000000036,29.41999999999996 200.10000000000036,29.331000000000017 C200.0,29.241999999999962 199.89999999999964,29.140999999999963 199.89999999999964,29.025999999999954 C199.89999999999964,28.900999999999954 200.0,28.79499999999996 200.10000000000036,28.706000000000017 C200.20000000000073,28.616999999999962 200.29999999999927,28.57299999999998 200.39999999999964,28.57299999999998" />
</svg>
