<?xml version="1.0" encoding="UTF-8" standalone="yes"?>
<svg width="256.0px" height="256.0px" xmlns="http://www.w3.org/2000/svg" xmlns:xlink="http://www.w3.org/1999/xlink" version="1.2" baseProfile="tiny">
<path d="M41.5,30.79200000000003 C41.29999999999927,30.69799999999998 41.20000000000073,30.591000000000008 41.0,30.47199999999998 C40.899999999999636,30.351999999999975 40.70000000000073,30.184999999999945 40.5,29.97199999999998 C40.29999999999927,29.758000000000038 40.20000000000073,29.53200000000004 40.0,29.29200000000003 C39.899999999999636,29.05200000000002 39.79999999999927,28.760999999999967 39.70000000000073,28.41700000000003 C39.600000000000364,28.07299999999998 39.5,27.71900000000005 39.5,27.354000000000042 C39.5,26.96900000000005 39.600000000000364,26.604000000000042 39.70000000000073,26.260999999999967 C39.79999999999927,25.91700000000003 39.899999999999636,25.633000000000038 40.0,25.408999999999992 C40.20000000000073,25.184999999999945 40.29999999999927,24.966000000000008 40.5,24.753000000000043 C40.70000000000073,24.538999999999987 40.899999999999636,24.383000000000038 41.0,24.283999999999992 C41.20000000000073,24.184999999999945 41.29999999999927,24.077999999999975 41.5,23.964000000000055 L41.600000000000364,24.089000000000055 C41.29999999999927,24.287000000000035 41.100000000000364,24.461000000000013 41.0,24.611999999999966 C40.899999999999636,24.763000000000034 40.70000000000073,24.964000000000055 40.600000000000364,25.214000000000055 C40.399999999999636,25.464000000000055 40.29999999999927,25.760999999999967 40.29999999999927,26.104000000000042 C40.20000000000073,26.44799999999998 40.20000000000073,26.860000000000014 40.20000000000073,27.339000000000055 C40.20000000000073,27.827999999999975 40.20000000000073,28.253000000000043 40.29999999999927,28.611999999999966 C40.29999999999927,28.97199999999998 40.399999999999636,29.275999999999954 40.600000000000364,29.525999999999954 C40.70000000000073,29.775999999999954 40.899999999999636,29.98199999999997 41.0,30.144000000000005 C41.100000000000364,30.30499999999995 41.29999999999927,30.474000000000046 41.600000000000364,30.650999999999954 L41.5,30.79200000000003 M42.0,27.66700000000003 C42.0,27.07299999999998 42.20000000000073,26.59699999999998 42.5,26.236999999999966 C42.899999999999636,25.878000000000043 43.29999999999927,25.69799999999998 43.70000000000073,25.69799999999998 C44.100000000000364,25.69799999999998 44.399999999999636,25.778999999999996 44.600000000000364,25.940000000000055 C44.79999999999927,26.101999999999975 45.0,26.297000000000025 45.0,26.525999999999954 C45.0,26.610000000000014 44.899999999999636,26.684999999999945 44.79999999999927,26.753000000000043 C44.79999999999927,26.821000000000026 44.70000000000073,26.854000000000042 44.600000000000364,26.854000000000042 C44.399999999999636,26.854000000000042 44.29999999999927,26.735000000000014 44.20000000000073,26.495000000000005 L44.20000000000073,26.32299999999998 C44.100000000000364,26.16700000000003 44.100000000000364,26.062999999999988 44.0,26.010999999999967 C44.0,25.958999999999946 43.79999999999927,25.932999999999993 43.70000000000073,25.932999999999993 C43.399999999999636,25.932999999999993 43.100000000000364,26.059999999999945 42.899999999999636,26.315000000000055 C42.70000000000073,26.571000000000026 42.600000000000364,26.90700000000004 42.600000000000364,27.32299999999998 C42.600000000000364,27.770999999999958 42.70000000000073,28.140999999999963 43.0,28.432999999999993 C43.20000000000073,28.724000000000046 43.5,28.870000000000005 43.899999999999636,28.870000000000005 C44.100000000000364,28.870000000000005 44.29999999999927,28.812999999999988 44.399999999999636,28.69799999999998 C44.600000000000364,28.583999999999946 44.79999999999927,28.390999999999963 45.0,28.120000000000005 L45.100000000000364,28.182999999999993 C45.0,28.297000000000025 45.0,28.388000000000034 44.899999999999636,28.456000000000017 C44.899999999999636,28.524 44.79999999999927,28.628000000000043 44.70000000000073,28.769000000000005 C44.600000000000364,28.908999999999992 44.5,29.020999999999958 44.399999999999636,29.104000000000042 C44.29999999999927,29.187999999999988 44.20000000000073,29.265999999999963 44.0,29.339000000000055 C43.899999999999636,29.412000000000035 43.70000000000073,29.44799999999998 43.5,29.44799999999998 C43.100000000000364,29.44799999999998 42.70000000000073,29.28200000000004 42.399999999999636,28.94799999999998 C42.100000000000364,28.61500000000001 42.0,28.187999999999988 42.0,27.66700000000003 M45.70000000000073,23.964000000000055 C45.79999999999927,24.047000000000025 46.0,24.149 46.100000000000364,24.269000000000005 C46.29999999999927,24.388000000000034 46.399999999999636,24.55499999999995 46.600000000000364,24.769000000000005 C46.79999999999927,24.98199999999997 47.0,25.211000000000013 47.100000000000364,25.456000000000017 C47.29999999999927,25.701000000000022 47.399999999999636,25.991999999999962 47.5,26.331000000000017 C47.600000000000364,26.66999999999996 47.600000000000364,27.025999999999954 47.600000000000364,27.400999999999954 C47.600000000000364,27.775999999999954 47.600000000000364,28.135999999999967 47.5,28.479000000000042 C47.399999999999636,28.82299999999998 47.29999999999927,29.110000000000014 47.100000000000364,29.339000000000055 C47.0,29.567999999999984 46.79999999999927,29.787000000000035 46.600000000000364,29.995000000000005 C46.399999999999636,30.202999999999975 46.20000000000073,30.360000000000014 46.100000000000364,30.464000000000055 C46.0,30.567999999999984 45.79999999999927,30.67700000000002 45.70000000000073,30.79200000000003 L45.600000000000364,30.650999999999954 C45.79999999999927,30.464000000000055 46.0,30.29200000000003 46.20000000000073,30.135999999999967 C46.29999999999927,29.979000000000042 46.399999999999636,29.778999999999996 46.600000000000364,29.533999999999992 C46.70000000000073,29.288999999999987 46.79999999999927,28.995000000000005 46.899999999999636,28.650999999999954 C46.899999999999636,28.307999999999993 46.899999999999636,27.895999999999958 46.899999999999636,27.41700000000003 C46.899999999999636,26.92700000000002 46.899999999999636,26.503000000000043 46.899999999999636,26.144000000000005 C46.79999999999927,25.783999999999992 46.70000000000073,25.476999999999975 46.600000000000364,25.22199999999998 C46.399999999999636,24.966000000000008 46.29999999999927,24.760999999999967 46.20000000000073,24.604000000000042 C46.0,24.44799999999998 45.79999999999927,24.275999999999954 45.600000000000364,24.089000000000055 L45.70000000000073,23.964000000000055 M51.5,24.635999999999967 C51.29999999999927,24.635999999999967 51.20000000000073,24.692999999999984 50.899999999999636,24.807999999999993 L50.899999999999636,24.69799999999998 L52.29999999999927,23.964000000000055 L52.399999999999636,23.979000000000042 L52.399999999999636,28.775999999999954 C52.399999999999636,28.974000000000046 52.399999999999636,29.101999999999975 52.5,29.158999999999992 C52.600000000000364,29.216000000000008 52.79999999999927,29.245000000000005 53.100000000000364,29.245000000000005 L53.100000000000364,29.370000000000005 L50.899999999999636,29.370000000000005 L50.899999999999636,29.245000000000005 C51.20000000000073,29.235000000000014 51.399999999999636,29.190000000000055 51.5,29.111999999999966 C51.600000000000364,29.033999999999992 51.70000000000073,28.870000000000005 51.70000000000073,28.620000000000005 L51.70000000000073,25.010999999999967 C51.70000000000073,24.760999999999967 51.600000000000364,24.635999999999967 51.5,24.635999999999967 M54.399999999999636,29.54200000000003 L54.399999999999636,29.385999999999967 C55.0,29.28200000000004 55.5,29.024 56.0,28.611999999999966 C56.399999999999636,28.201000000000022 56.70000000000073,27.66700000000003 56.79999999999927,27.010999999999967 C56.399999999999636,27.32299999999998 56.0,27.479000000000042 55.600000000000364,27.479000000000042 C55.20000000000073,27.479000000000042 54.899999999999636,27.327999999999975 54.600000000000364,27.025999999999954 C54.29999999999927,26.724000000000046 54.20000000000073,26.333999999999946 54.20000000000073,25.854000000000042 C54.20000000000073,25.312999999999988 54.399999999999636,24.860000000000014 54.70000000000073,24.495000000000005 C55.0,24.129999999999995 55.399999999999636,23.94799999999998 55.899999999999636,23.94799999999998 C56.399999999999636,23.94799999999998 56.79999999999927,24.158999999999992 57.20000000000073,24.581000000000017 C57.5,25.003000000000043 57.70000000000073,25.547000000000025 57.70000000000073,26.214000000000055 C57.70000000000073,26.432999999999993 57.70000000000073,26.653999999999996 57.600000000000364,26.878000000000043 C57.600000000000364,27.101999999999975 57.5,27.366999999999962 57.399999999999636,27.674999999999955 C57.20000000000073,27.98199999999997 57.0,28.254999999999995 56.79999999999927,28.495000000000005 C56.600000000000364,28.735000000000014 56.29999999999927,28.952999999999975 55.899999999999636,29.150999999999954 C55.5,29.349000000000046 55.0,29.479000000000042 54.399999999999636,29.54200000000003 M55.899999999999636,27.120000000000005 C56.0,27.120000000000005 56.20000000000073,27.10699999999997 56.29999999999927,27.081000000000017 C56.399999999999636,27.05499999999995 56.5,26.991999999999962 56.70000000000073,26.894000000000005 C56.79999999999927,26.79499999999996 56.899999999999636,26.672000000000025 56.899999999999636,26.525999999999954 L56.899999999999636,26.214000000000055 C56.899999999999636,24.860000000000014 56.5,24.182999999999993 55.79999999999927,24.182999999999993 C55.600000000000364,24.182999999999993 55.5,24.226999999999975 55.399999999999636,24.315000000000055 C55.29999999999927,24.403999999999996 55.20000000000073,24.520999999999958 55.100000000000364,24.66700000000003 C55.100000000000364,24.812999999999988 55.0,24.958999999999946 55.0,25.104000000000042 C55.0,25.25 54.899999999999636,25.40700000000004 54.899999999999636,25.57299999999998 C54.899999999999636,26.05200000000002 55.0,26.42999999999995 55.20000000000073,26.706000000000017 C55.399999999999636,26.98199999999997 55.600000000000364,27.120000000000005 55.899999999999636,27.120000000000005 M60.0,29.479000000000042 C59.5,29.479000000000042 59.0,29.265999999999963 58.70000000000073,28.839000000000055 C58.399999999999636,28.412000000000035 58.20000000000073,27.84400000000005 58.20000000000073,27.135999999999967 C58.20000000000073,26.91700000000003 58.20000000000073,26.692999999999984 58.29999999999927,26.464000000000055 C58.29999999999927,26.235000000000014 58.399999999999636,25.97199999999998 58.600000000000364,25.674999999999955 C58.70000000000073,25.378000000000043 58.899999999999636,25.111999999999966 59.100000000000364,24.878000000000043 C59.399999999999636,24.644000000000005 59.70000000000073,24.434999999999945 60.100000000000364,24.253000000000043 C60.5,24.071000000000026 61.0,23.952999999999975 61.5,23.900999999999954 L61.5,24.025999999999954 C60.899999999999636,24.129999999999995 60.399999999999636,24.385999999999967 60.0,24.79200000000003 C59.5,25.19799999999998 59.29999999999927,25.702999999999975 59.20000000000073,26.307999999999993 C59.399999999999636,26.162000000000035 59.600000000000364,26.067999999999984 59.70000000000073,26.025999999999954 C59.899999999999636,25.985000000000014 60.0,25.964000000000055 60.20000000000073,25.964000000000055 C60.70000000000073,25.964000000000055 61.0,26.111999999999966 61.29999999999927,26.408999999999992 C61.600000000000364,26.706000000000017 61.70000000000073,27.104000000000042 61.70000000000073,27.604000000000042 C61.70000000000073,28.15700000000004 61.600000000000364,28.60699999999997 61.20000000000073,28.956000000000017 C60.899999999999636,29.30499999999995 60.5,29.479000000000042 60.0,29.479000000000042 M59.899999999999636,26.32299999999998 C59.5,26.32299999999998 59.29999999999927,26.400999999999954 59.100000000000364,26.557999999999993 C59.0,26.714000000000055 59.0,26.94799999999998 59.0,27.260999999999967 C59.0,27.875 59.100000000000364,28.360000000000014 59.29999999999927,28.714000000000055 C59.5,29.067999999999984 59.70000000000073,29.245000000000005 60.100000000000364,29.245000000000005 C60.399999999999636,29.245000000000005 60.600000000000364,29.128000000000043 60.70000000000073,28.894000000000005 C60.899999999999636,28.658999999999992 61.0,28.32299999999998 61.0,27.885999999999967 C61.0,27.385999999999967 60.899999999999636,27.0 60.70000000000073,26.729000000000042 C60.5,26.458999999999946 60.20000000000073,26.32299999999998 59.899999999999636,26.32299999999998 M64.29999999999927,26.400999999999954 C64.79999999999927,26.754999999999995 65.10000000000036,27.05200000000002 65.29999999999927,27.29200000000003 C65.39999999999964,27.53200000000004 65.5,27.807999999999993 65.5,28.120000000000005 C65.5,28.537000000000035 65.39999999999964,28.866999999999962 65.10000000000036,29.111999999999966 C64.79999999999927,29.35699999999997 64.39999999999964,29.479000000000042 63.899999999999636,29.479000000000042 C63.5,29.479000000000042 63.100000000000364,29.35699999999997 62.79999999999927,29.111999999999966 C62.5,28.866999999999962 62.399999999999636,28.547000000000025 62.399999999999636,28.150999999999954 C62.399999999999636,27.879999999999995 62.5,27.653999999999996 62.600000000000364,27.47199999999998 C62.70000000000073,27.288999999999987 63.0,27.037000000000035 63.399999999999636,26.714000000000055 C63.0,26.339000000000055 62.70000000000073,26.062999999999988 62.600000000000364,25.885999999999967 C62.5,25.708999999999946 62.399999999999636,25.49000000000001 62.399999999999636,25.229000000000042 C62.399999999999636,24.86500000000001 62.600000000000364,24.559999999999945 62.899999999999636,24.315000000000055 C63.20000000000073,24.071000000000026 63.5,23.94799999999998 64.0,23.94799999999998 C64.39999999999964,23.94799999999998 64.70000000000073,24.05499999999995 64.89999999999964,24.269000000000005 C65.20000000000073,24.48199999999997 65.29999999999927,24.760999999999967 65.29999999999927,25.104000000000042 C65.29999999999927,25.375 65.20000000000073,25.604000000000042 65.10000000000036,25.79200000000003 C64.89999999999964,25.979000000000042 64.70000000000073,26.182999999999993 64.29999999999927,26.400999999999954 M63.600000000000364,26.870000000000005 C63.399999999999636,27.057999999999993 63.20000000000073,27.241999999999962 63.20000000000073,27.424999999999955 C63.100000000000364,27.60699999999997 63.0,27.827999999999975 63.0,28.089000000000055 C63.0,28.432999999999993 63.100000000000364,28.711000000000013 63.29999999999927,28.924999999999955 C63.5,29.138000000000034 63.70000000000073,29.245000000000005 64.0,29.245000000000005 C64.29999999999927,29.245000000000005 64.5,29.163999999999987 64.60000000000036,29.003000000000043 C64.79999999999927,28.841000000000008 64.89999999999964,28.629999999999995 64.89999999999964,28.370000000000005 C64.89999999999964,28.287000000000035 64.89999999999964,28.206000000000017 64.89999999999964,28.128000000000043 C64.89999999999964,28.049999999999955 64.79999999999927,27.985000000000014 64.79999999999927,27.932999999999993 C64.79999999999927,27.879999999999995 64.79999999999927,27.817999999999984 64.70000000000073,27.745000000000005 C64.60000000000036,27.672000000000025 64.60000000000036,27.616999999999962 64.60000000000036,27.581000000000017 C64.5,27.54499999999996 64.5,27.486999999999966 64.39999999999964,27.408999999999992 C64.29999999999927,27.331000000000017 64.20000000000073,27.275999999999954 64.20000000000073,27.245000000000005 C64.10000000000036,27.214000000000055 64.0,27.153999999999996 63.899999999999636,27.065000000000055 C63.79999999999927,26.976999999999975 63.70000000000073,26.912000000000035 63.600000000000364,26.870000000000005 M64.0,26.260999999999967 C64.0,26.25 64.10000000000036,26.22199999999998 64.10000000000036,26.174999999999955 C64.20000000000073,26.128000000000043 64.29999999999927,26.091000000000008 64.29999999999927,26.065000000000055 C64.29999999999927,26.038999999999987 64.39999999999964,26.0 64.39999999999964,25.94799999999998 C64.5,25.895999999999958 64.5,25.84400000000005 64.60000000000036,25.79200000000003 C64.60000000000036,25.74000000000001 64.60000000000036,25.67700000000002 64.70000000000073,25.604000000000042 C64.70000000000073,25.53200000000004 64.70000000000073,25.451000000000022 64.79999999999927,25.361999999999966 C64.79999999999927,25.274 64.79999999999927,25.182999999999993 64.79999999999927,25.089000000000055 C64.79999999999927,24.817999999999984 64.70000000000073,24.599000000000046 64.5,24.432999999999993 C64.39999999999964,24.265999999999963 64.20000000000073,24.182999999999993 63.899999999999636,24.182999999999993 C63.70000000000073,24.182999999999993 63.399999999999636,24.258000000000038 63.29999999999927,24.408999999999992 C63.100000000000364,24.559999999999945 63.0,24.75 63.0,24.979000000000042 C63.0,25.19799999999998 63.100000000000364,25.40700000000004 63.29999999999927,25.604000000000042 C63.399999999999636,25.80200000000002 63.70000000000073,26.020999999999958 64.0,26.260999999999967 M73.39999999999964,26.69799999999998 C73.39999999999964,26.937999999999988 73.39999999999964,27.172000000000025 73.29999999999927,27.400999999999954 C73.20000000000073,27.629999999999995 73.10000000000036,27.866999999999962 73.0,28.111999999999966 C72.89999999999964,28.35699999999997 72.70000000000073,28.567999999999984 72.5,28.745000000000005 C72.20000000000073,28.922000000000025 71.89999999999964,29.071000000000026 71.60000000000036,29.190000000000055 C71.20000000000073,29.309999999999945 70.79999999999927,29.370000000000005 70.29999999999927,29.370000000000005 L68.0,29.370000000000005 L68.0,29.214000000000055 C68.29999999999927,29.192999999999984 68.5,29.140999999999963 68.60000000000036,29.057999999999993 C68.70000000000073,28.974000000000046 68.70000000000073,28.787000000000035 68.70000000000073,28.495000000000005 L68.70000000000073,24.94799999999998 C68.70000000000073,24.65700000000004 68.70000000000073,24.47199999999998 68.60000000000036,24.394000000000005 C68.5,24.315000000000055 68.29999999999927,24.260999999999967 68.0,24.229000000000042 L68.0,24.07299999999998 L70.20000000000073,24.07299999999998 C70.70000000000073,24.07299999999998 71.10000000000036,24.128000000000043 71.5,24.236999999999966 C71.89999999999964,24.34699999999998 72.20000000000073,24.486999999999966 72.39999999999964,24.658999999999992 C72.60000000000036,24.831000000000017 72.79999999999927,25.037000000000035 73.0,25.275999999999954 C73.10000000000036,25.515999999999963 73.20000000000073,25.75 73.29999999999927,25.979000000000042 C73.39999999999964,26.208999999999946 73.39999999999964,26.44799999999998 73.39999999999964,26.69799999999998 M72.5,26.760999999999967 C72.5,26.53200000000004 72.5,26.309999999999945 72.39999999999964,26.09699999999998 C72.39999999999964,25.883000000000038 72.29999999999927,25.66999999999996 72.20000000000073,25.456000000000017 C72.10000000000036,25.241999999999962 71.89999999999964,25.059999999999945 71.70000000000073,24.908999999999992 C71.5,24.758000000000038 71.29999999999927,24.633000000000038 71.0,24.533999999999992 C70.70000000000073,24.434999999999945 70.39999999999964,24.385999999999967 70.0,24.385999999999967 C69.79999999999927,24.385999999999967 69.70000000000073,24.40700000000004 69.60000000000036,24.44799999999998 C69.60000000000036,24.49000000000001 69.5,24.57299999999998 69.5,24.69799999999998 L69.5,28.745000000000005 C69.5,28.870000000000005 69.60000000000036,28.956000000000017 69.60000000000036,29.003000000000043 C69.70000000000073,29.049999999999955 69.79999999999927,29.07299999999998 70.0,29.07299999999998 C71.70000000000073,29.07299999999998 72.5,28.30200000000002 72.5,26.760999999999967 M76.29999999999927,26.885999999999967 C76.20000000000073,26.458999999999946 76.10000000000036,26.190000000000055 76.0,26.081000000000017 C75.89999999999964,25.97199999999998 75.79999999999927,25.90700000000004 75.60000000000036,25.885999999999967 L75.60000000000036,25.775999999999954 L77.20000000000073,25.775999999999954 L77.20000000000073,25.885999999999967 C77.10000000000036,25.91700000000003 76.89999999999964,25.951000000000022 76.89999999999964,25.986999999999966 C76.79999999999927,26.024 76.79999999999927,26.089000000000055 76.79999999999927,26.182999999999993 C76.79999999999927,26.245000000000005 76.79999999999927,26.400999999999954 76.89999999999964,26.650999999999954 L77.60000000000036,28.44799999999998 L78.29999999999927,26.66700000000003 C78.39999999999964,26.44799999999998 78.5,26.270999999999958 78.5,26.135999999999967 C78.5,26.07299999999998 78.39999999999964,26.024 78.39999999999964,25.986999999999966 C78.29999999999927,25.951000000000022 78.20000000000073,25.91700000000003 78.10000000000036,25.885999999999967 L78.10000000000036,25.775999999999954 L79.10000000000036,25.775999999999954 L79.10000000000036,25.885999999999967 C79.0,25.91700000000003 78.89999999999964,25.956000000000017 78.89999999999964,26.003000000000043 C78.89999999999964,26.049999999999955 78.79999999999927,26.15700000000004 78.70000000000073,26.32299999999998 L77.60000000000036,29.089000000000055 C77.5,29.349000000000046 77.5,29.479000000000042 77.39999999999964,29.479000000000042 C77.39999999999964,29.479000000000042 77.29999999999927,29.36500000000001 77.20000000000073,29.135999999999967 L76.5,27.245000000000005 L75.60000000000036,29.16700000000003 C75.5,29.375 75.39999999999964,29.479000000000042 75.39999999999964,29.479000000000042 C75.39999999999964,29.479000000000042 75.29999999999927,29.36500000000001 75.20000000000073,29.135999999999967 L74.10000000000036,26.400999999999954 C74.0,26.192999999999984 74.0,26.057999999999993 73.89999999999964,25.995000000000005 C73.89999999999964,25.932999999999993 73.79999999999927,25.895999999999958 73.70000000000073,25.885999999999967 L73.70000000000073,25.775999999999954 L75.10000000000036,25.775999999999954 L75.10000000000036,25.885999999999967 C75.0,25.90700000000004 74.89999999999964,25.934999999999945 74.79999999999927,25.97199999999998 C74.79999999999927,26.008000000000038 74.79999999999927,26.067999999999984 74.79999999999927,26.150999999999954 C74.79999999999927,26.235000000000014 74.79999999999927,26.317999999999984 74.79999999999927,26.400999999999954 L75.60000000000036,28.479000000000042 L76.29999999999927,26.885999999999967 M79.29999999999927,28.57299999999998 C79.29999999999927,28.479000000000042 79.39999999999964,28.394000000000005 79.39999999999964,28.315000000000055 C79.39999999999964,28.236999999999966 79.39999999999964,28.162000000000035 79.5,28.089000000000055 C79.5,28.015999999999963 79.60000000000036,27.951000000000022 79.60000000000036,27.894000000000005 C79.70000000000073,27.836000000000013 79.79999999999927,27.775999999999954 79.89999999999964,27.714000000000055 C80.0,27.650999999999954 80.0,27.599000000000046 80.10000000000036,27.557999999999993 C80.20000000000073,27.515999999999963 80.20000000000073,27.46900000000005 80.39999999999964,27.41700000000003 C80.5,27.36500000000001 80.60000000000036,27.32299999999998 80.70000000000073,27.29200000000003 C80.70000000000073,27.260999999999967 80.79999999999927,27.216000000000008 81.0,27.158999999999992 C81.10000000000036,27.101999999999975 81.20000000000073,27.057999999999993 81.29999999999927,27.025999999999954 L81.29999999999927,26.54200000000003 C81.29999999999927,26.104000000000042 81.10000000000036,25.885999999999967 80.70000000000073,25.885999999999967 C80.60000000000036,25.885999999999967 80.39999999999964,25.924999999999955 80.29999999999927,26.003000000000043 C80.20000000000073,26.081000000000017 80.10000000000036,26.172000000000025 80.10000000000036,26.275999999999954 C80.10000000000036,26.317999999999984 80.10000000000036,26.375 80.20000000000073,26.44799999999998 C80.20000000000073,26.520999999999958 80.20000000000073,26.567999999999984 80.20000000000073,26.589000000000055 C80.20000000000073,26.682999999999993 80.20000000000073,26.763000000000034 80.10000000000036,26.831000000000017 C80.0,26.899 79.89999999999964,26.932999999999993 79.79999999999927,26.932999999999993 C79.70000000000073,26.932999999999993 79.60000000000036,26.899 79.60000000000036,26.831000000000017 C79.5,26.763000000000034 79.5,26.682999999999993 79.5,26.589000000000055 C79.5,26.339000000000055 79.60000000000036,26.128000000000043 79.89999999999964,25.956000000000017 C80.10000000000036,25.783999999999992 80.39999999999964,25.69799999999998 80.79999999999927,25.69799999999998 C81.20000000000073,25.69799999999998 81.5,25.80200000000002 81.70000000000073,26.010999999999967 C81.89999999999964,26.21900000000005 81.89999999999964,26.537000000000035 81.89999999999964,26.964000000000055 L81.89999999999964,28.510999999999967 C81.89999999999964,28.687999999999988 82.0,28.809999999999945 82.0,28.878000000000043 C82.0,28.946000000000026 82.10000000000036,28.979000000000042 82.20000000000073,28.979000000000042 C82.29999999999927,28.979000000000042 82.39999999999964,28.92700000000002 82.5,28.82299999999998 L82.5,29.04200000000003 C82.39999999999964,29.19799999999998 82.29999999999927,29.30499999999995 82.20000000000073,29.361999999999966 C82.10000000000036,29.41999999999996 81.89999999999964,29.44799999999998 81.79999999999927,29.44799999999998 C81.70000000000073,29.44799999999998 81.5,29.400999999999954 81.5,29.307999999999993 C81.39999999999964,29.214000000000055 81.29999999999927,29.062999999999988 81.29999999999927,28.854000000000042 C80.89999999999964,29.25 80.5,29.44799999999998 80.20000000000073,29.44799999999998 C79.89999999999964,29.44799999999998 79.70000000000073,29.366999999999962 79.60000000000036,29.206000000000017 C79.39999999999964,29.04499999999996 79.29999999999927,28.833999999999946 79.29999999999927,28.57299999999998 M81.29999999999927,28.370000000000005 L81.29999999999927,27.214000000000055 C80.79999999999927,27.390999999999963 80.5,27.562999999999988 80.29999999999927,27.729000000000042 C80.10000000000036,27.895999999999958 80.0,28.09400000000005 80.0,28.32299999999998 C80.0,28.54200000000003 80.10000000000036,28.702999999999975 80.20000000000073,28.807999999999993 C80.29999999999927,28.912000000000035 80.39999999999964,28.964000000000055 80.5,28.964000000000055 C80.70000000000073,28.964000000000055 80.89999999999964,28.90700000000004 81.10000000000036,28.79200000000003 C81.20000000000073,28.74000000000001 81.20000000000073,28.687999999999988 81.29999999999927,28.635999999999967 C81.29999999999927,28.583999999999946 81.29999999999927,28.495000000000005 81.29999999999927,28.370000000000005 M85.0,26.44799999999998 C84.89999999999964,26.44799999999998 84.79999999999927,26.400999999999954 84.70000000000073,26.307999999999993 C84.60000000000036,26.214000000000055 84.5,26.16700000000003 84.5,26.16700000000003 C84.39999999999964,26.16700000000003 84.20000000000073,26.245000000000005 84.10000000000036,26.400999999999954 C84.0,26.557999999999993 83.89999999999964,26.702999999999975 83.89999999999964,26.839000000000055 L83.89999999999964,28.650999999999954 C83.89999999999964,28.879999999999995 83.89999999999964,29.033999999999992 84.0,29.111999999999966 C84.10000000000036,29.190000000000055 84.29999999999927,29.235000000000014 84.60000000000036,29.245000000000005 L84.60000000000036,29.370000000000005 L82.70000000000073,29.370000000000005 L82.70000000000073,29.245000000000005 C82.89999999999964,29.202999999999975 83.10000000000036,29.150999999999954 83.10000000000036,29.089000000000055 C83.20000000000073,29.025999999999954 83.20000000000073,28.895999999999958 83.20000000000073,28.69799999999998 L83.20000000000073,26.682999999999993 C83.20000000000073,26.504999999999995 83.20000000000073,26.379999999999995 83.20000000000073,26.307999999999993 C83.10000000000036,26.235000000000014 83.10000000000036,26.19799999999998 83.0,26.19799999999998 C82.89999999999964,26.19799999999998 82.79999999999927,26.208999999999946 82.70000000000073,26.229000000000042 L82.70000000000073,26.104000000000042 C83.10000000000036,25.96900000000005 83.5,25.833999999999946 83.89999999999964,25.69799999999998 L83.89999999999964,25.714000000000055 L83.89999999999964,26.41700000000003 C84.10000000000036,26.145999999999958 84.29999999999927,25.958999999999946 84.39999999999964,25.854000000000042 C84.5,25.75 84.70000000000073,25.69799999999998 84.89999999999964,25.69799999999998 C85.0,25.69799999999998 85.10000000000036,25.73199999999997 85.20000000000073,25.799999999999955 C85.29999999999927,25.866999999999962 85.29999999999927,25.96900000000005 85.29999999999927,26.104000000000042 C85.29999999999927,26.208999999999946 85.29999999999927,26.29200000000003 85.20000000000073,26.354000000000042 C85.20000000000073,26.41700000000003 85.10000000000036,26.44799999999998 85.0,26.44799999999998 M88.0,24.729000000000042 C87.89999999999964,24.729000000000042 87.79999999999927,24.69799999999998 87.79999999999927,24.635999999999967 C87.70000000000073,24.57299999999998 87.70000000000073,24.504999999999995 87.60000000000036,24.432999999999993 C87.60000000000036,24.360000000000014 87.5,24.29200000000003 87.5,24.229000000000042 C87.39999999999964,24.16700000000003 87.29999999999927,24.135999999999967 87.20000000000073,24.135999999999967 C86.89999999999964,24.135999999999967 86.70000000000073,24.370000000000005 86.70000000000073,24.839000000000055 L86.70000000000073,25.775999999999954 L87.70000000000073,25.775999999999954 L87.70000000000073,26.010999999999967 L86.70000000000073,26.010999999999967 L86.70000000000073,28.54200000000003 C86.70000000000073,28.833999999999946 86.79999999999927,29.020999999999958 86.89999999999964,29.104000000000042 C87.0,29.187999999999988 87.20000000000073,29.235000000000014 87.5,29.245000000000005 L87.5,29.370000000000005 L85.39999999999964,29.370000000000005 L85.39999999999964,29.245000000000005 C85.70000000000073,29.235000000000014 85.89999999999964,29.187999999999988 86.0,29.104000000000042 C86.0,29.020999999999958 86.10000000000036,28.833999999999946 86.10000000000036,28.54200000000003 L86.10000000000036,26.010999999999967 L85.39999999999964,26.010999999999967 L85.39999999999964,25.775999999999954 L86.10000000000036,25.775999999999954 C86.10000000000036,25.172000000000025 86.20000000000073,24.706000000000017 86.39999999999964,24.378000000000043 C86.60000000000036,24.049999999999955 87.0,23.885999999999967 87.5,23.885999999999967 C87.70000000000073,23.885999999999967 87.89999999999964,23.934999999999945 88.10000000000036,24.033999999999992 C88.20000000000073,24.133000000000038 88.29999999999927,24.254999999999995 88.29999999999927,24.400999999999954 C88.29999999999927,24.495000000000005 88.29999999999927,24.57299999999998 88.20000000000073,24.635999999999967 C88.20000000000073,24.69799999999998 88.10000000000036,24.729000000000042 88.0,24.729000000000042 M95.70000000000073,24.79200000000003 L93.60000000000036,29.370000000000005 L93.5,29.370000000000005 L91.5,24.979000000000042 L91.5,28.19799999999998 C91.5,28.604000000000042 91.60000000000036,28.873000000000047 91.70000000000073,29.003000000000043 C91.79999999999927,29.133000000000038 92.0,29.202999999999975 92.29999999999927,29.214000000000055 L92.29999999999927,29.370000000000005 L90.39999999999964,29.370000000000005 L90.39999999999964,29.214000000000055 C90.70000000000073,29.192999999999984 90.89999999999964,29.120000000000005 91.0,28.995000000000005 C91.10000000000036,28.870000000000005 91.20000000000073,28.604000000000042 91.20000000000073,28.19799999999998 L91.20000000000073,24.94799999999998 C91.20000000000073,24.65700000000004 91.10000000000036,24.46900000000005 91.0,24.385999999999967 C90.89999999999964,24.30200000000002 90.70000000000073,24.25 90.39999999999964,24.229000000000042 L90.39999999999964,24.07299999999998 L92.0,24.07299999999998 L93.79999999999927,28.120000000000005 L95.60000000000036,24.07299999999998 L97.20000000000073,24.07299999999998 L97.20000000000073,24.229000000000042 C96.89999999999964,24.260999999999967 96.70000000000073,24.317999999999984 96.60000000000036,24.400999999999954 C96.60000000000036,24.485000000000014 96.5,24.66700000000003 96.5,24.94799999999998 L96.5,28.495000000000005 C96.5,28.775999999999954 96.60000000000036,28.961000000000013 96.60000000000036,29.049999999999955 C96.70000000000073,29.138000000000034 96.89999999999964,29.192999999999984 97.20000000000073,29.214000000000055 L97.20000000000073,29.370000000000005 L95.0,29.370000000000005 L95.0,29.214000000000055 C95.29999999999927,29.192999999999984 95.5,29.135999999999967 95.60000000000036,29.04200000000003 C95.60000000000036,28.94799999999998 95.70000000000073,28.74000000000001 95.70000000000073,28.41700000000003 L95.70000000000073,24.79200000000003 M101.20000000000073,28.94799999999998 L101.20000000000073,29.07299999999998 C100.79999999999927,29.187999999999988 100.39999999999964,29.312999999999988 100.10000000000036,29.44799999999998 L100.0,29.432999999999993 L100.0,28.745000000000005 C100.0,28.765999999999963 100.0,28.815000000000055 99.89999999999964,28.894000000000005 C99.79999999999927,28.97199999999998 99.79999999999927,29.025999999999954 99.70000000000073,29.057999999999993 C99.70000000000073,29.089000000000055 99.60000000000036,29.135999999999967 99.60000000000036,29.19799999999998 C99.5,29.260999999999967 99.39999999999964,29.30499999999995 99.39999999999964,29.331000000000017 C99.29999999999927,29.35699999999997 99.20000000000073,29.383000000000038 99.10000000000036,29.408999999999992 C99.10000000000036,29.434999999999945 99.0,29.44799999999998 98.89999999999964,29.44799999999998 C98.60000000000036,29.44799999999998 98.29999999999927,29.351999999999975 98.20000000000073,29.158999999999992 C98.0,28.966000000000008 97.89999999999964,28.714000000000055 97.89999999999964,28.400999999999954 L97.89999999999964,26.385999999999967 C97.89999999999964,26.208999999999946 97.89999999999964,26.083999999999946 97.79999999999927,26.010999999999967 C97.70000000000073,25.937999999999988 97.60000000000036,25.895999999999958 97.39999999999964,25.885999999999967 L97.39999999999964,25.775999999999954 L98.60000000000036,25.775999999999954 L98.60000000000036,28.370000000000005 C98.60000000000036,28.525999999999954 98.60000000000036,28.663999999999987 98.70000000000073,28.783999999999992 C98.89999999999964,28.903999999999996 99.0,28.964000000000055 99.10000000000036,28.964000000000055 C99.20000000000073,28.964000000000055 99.29999999999927,28.956000000000017 99.39999999999964,28.940000000000055 C99.39999999999964,28.924999999999955 99.5,28.895999999999958 99.60000000000036,28.854000000000042 C99.70000000000073,28.812999999999988 99.79999999999927,28.741999999999962 99.89999999999964,28.644000000000005 C100.0,28.54499999999996 100.0,28.422000000000025 100.0,28.275999999999954 L100.0,26.400999999999954 C100.0,26.214000000000055 100.0,26.086000000000013 99.89999999999964,26.019000000000005 C99.79999999999927,25.951000000000022 99.70000000000073,25.912000000000035 99.39999999999964,25.900999999999954 L99.39999999999964,25.775999999999954 L100.70000000000073,25.775999999999954 L100.70000000000073,28.495000000000005 C100.70000000000073,28.682999999999993 100.70000000000073,28.80499999999995 100.79999999999927,28.861999999999966 C100.79999999999927,28.91999999999996 101.0,28.94799999999998 101.10000000000036,28.94799999999998 L101.20000000000073,28.94799999999998 M103.39999999999964,25.854000000000042 C103.39999999999964,25.854000000000042 103.39999999999964,25.827999999999975 103.5,25.775999999999954 L103.60000000000036,25.775999999999954 L103.60000000000036,26.854000000000042 L103.5,26.854000000000042 C103.39999999999964,26.5 103.29999999999927,26.248000000000047 103.20000000000073,26.09699999999998 C103.0,25.946000000000026 102.89999999999964,25.870000000000005 102.60000000000036,25.870000000000005 C102.39999999999964,25.870000000000005 102.29999999999927,25.922000000000025 102.20000000000073,26.025999999999954 C102.10000000000036,26.129999999999995 102.0,26.260999999999967 102.0,26.41700000000003 C102.0,26.645999999999958 102.10000000000036,26.827999999999975 102.39999999999964,26.964000000000055 L103.20000000000073,27.479000000000042 C103.5,27.625 103.60000000000036,27.770999999999958 103.70000000000073,27.91700000000003 C103.79999999999927,28.062999999999988 103.89999999999964,28.235000000000014 103.89999999999964,28.432999999999993 C103.89999999999964,28.702999999999975 103.79999999999927,28.940000000000055 103.60000000000036,29.144000000000005 C103.29999999999927,29.34699999999998 103.10000000000036,29.44799999999998 102.79999999999927,29.44799999999998 C102.60000000000036,29.44799999999998 102.39999999999964,29.424999999999955 102.20000000000073,29.378000000000043 C102.0,29.331000000000017 101.89999999999964,29.307999999999993 101.79999999999927,29.307999999999993 C101.70000000000073,29.307999999999993 101.70000000000073,29.339000000000055 101.60000000000036,29.400999999999954 L101.5,29.400999999999954 L101.5,28.150999999999954 L101.70000000000073,28.150999999999954 C101.70000000000073,28.525999999999954 101.79999999999927,28.79200000000003 102.0,28.94799999999998 C102.10000000000036,29.16700000000003 102.39999999999964,29.275999999999954 102.70000000000073,29.275999999999954 C102.89999999999964,29.275999999999954 103.0,29.224000000000046 103.10000000000036,29.120000000000005 C103.29999999999927,29.015999999999963 103.29999999999927,28.875 103.29999999999927,28.69799999999998 C103.29999999999927,28.458999999999946 103.20000000000073,28.260999999999967 102.89999999999964,28.104000000000042 L102.5,27.839000000000055 C102.10000000000036,27.640999999999963 101.89999999999964,27.456000000000017 101.70000000000073,27.283999999999992 C101.60000000000036,27.111999999999966 101.5,26.912000000000035 101.5,26.682999999999993 C101.5,26.390999999999963 101.60000000000036,26.153999999999996 101.79999999999927,25.97199999999998 C102.0,25.788999999999987 102.29999999999927,25.69799999999998 102.60000000000036,25.69799999999998 C102.79999999999927,25.69799999999998 102.89999999999964,25.724000000000046 103.10000000000036,25.775999999999954 C103.20000000000073,25.827999999999975 103.29999999999927,25.854000000000042 103.39999999999964,25.854000000000042 M104.70000000000073,26.229000000000042 C104.5,26.229000000000042 104.39999999999964,26.235000000000014 104.29999999999927,26.245000000000005 L104.29999999999927,26.135999999999967 C104.70000000000073,26.03200000000004 105.10000000000036,25.885999999999967 105.60000000000036,25.69799999999998 L105.60000000000036,25.714000000000055 L105.60000000000036,28.557999999999993 C105.60000000000036,28.839000000000055 105.60000000000036,29.019000000000005 105.70000000000073,29.09699999999998 C105.79999999999927,29.174999999999955 105.89999999999964,29.224000000000046 106.20000000000073,29.245000000000005 L106.20000000000073,29.370000000000005 L104.29999999999927,29.370000000000005 L104.29999999999927,29.245000000000005 C104.60000000000036,29.235000000000014 104.70000000000073,29.187999999999988 104.79999999999927,29.104000000000042 C104.89999999999964,29.020999999999958 104.89999999999964,28.839000000000055 104.89999999999964,28.557999999999993 L104.89999999999964,26.69799999999998 C104.89999999999964,26.520999999999958 104.89999999999964,26.399 104.89999999999964,26.331000000000017 C104.79999999999927,26.263000000000034 104.70000000000073,26.229000000000042 104.70000000000073,26.229000000000042 M105.20000000000073,23.900999999999954 C105.29999999999927,23.900999999999954 105.39999999999964,23.942999999999984 105.5,24.025999999999954 C105.60000000000036,24.110000000000014 105.60000000000036,24.208999999999946 105.60000000000036,24.32299999999998 C105.60000000000036,24.437999999999988 105.60000000000036,24.533999999999992 105.5,24.611999999999966 C105.39999999999964,24.690000000000055 105.29999999999927,24.729000000000042 105.20000000000073,24.729000000000042 C105.10000000000036,24.729000000000042 105.0,24.687999999999988 104.89999999999964,24.604000000000042 C104.79999999999927,24.520999999999958 104.79999999999927,24.424999999999955 104.79999999999927,24.315000000000055 C104.79999999999927,24.206000000000017 104.79999999999927,24.110000000000014 104.89999999999964,24.025999999999954 C105.0,23.942999999999984 105.10000000000036,23.900999999999954 105.20000000000073,23.900999999999954 M106.60000000000036,27.66700000000003 C106.60000000000036,27.07299999999998 106.79999999999927,26.59699999999998 107.10000000000036,26.236999999999966 C107.39999999999964,25.878000000000043 107.89999999999964,25.69799999999998 108.29999999999927,25.69799999999998 C108.70000000000073,25.69799999999998 108.89999999999964,25.778999999999996 109.20000000000073,25.940000000000055 C109.39999999999964,26.101999999999975 109.5,26.297000000000025 109.5,26.525999999999954 C109.5,26.610000000000014 109.5,26.684999999999945 109.39999999999964,26.753000000000043 C109.29999999999927,26.821000000000026 109.29999999999927,26.854000000000042 109.20000000000073,26.854000000000042 C109.0,26.854000000000042 108.89999999999964,26.735000000000014 108.79999999999927,26.495000000000005 L108.70000000000073,26.32299999999998 C108.70000000000073,26.16700000000003 108.70000000000073,26.062999999999988 108.60000000000036,26.010999999999967 C108.5,25.958999999999946 108.39999999999964,25.932999999999993 108.29999999999927,25.932999999999993 C108.0,25.932999999999993 107.70000000000073,26.059999999999945 107.5,26.315000000000055 C107.29999999999927,26.571000000000026 107.20000000000073,26.90700000000004 107.20000000000073,27.32299999999998 C107.20000000000073,27.770999999999958 107.29999999999927,28.140999999999963 107.5,28.432999999999993 C107.79999999999927,28.724000000000046 108.10000000000036,28.870000000000005 108.39999999999964,28.870000000000005 C108.70000000000073,28.870000000000005 108.79999999999927,28.812999999999988 109.0,28.69799999999998 C109.20000000000073,28.583999999999946 109.29999999999927,28.390999999999963 109.5,28.120000000000005 L109.60000000000036,28.182999999999993 C109.60000000000036,28.297000000000025 109.5,28.388000000000034 109.5,28.456000000000017 C109.5,28.524 109.39999999999964,28.628000000000043 109.29999999999927,28.769000000000005 C109.20000000000073,28.908999999999992 109.10000000000036,29.020999999999958 109.0,29.104000000000042 C108.89999999999964,29.187999999999988 108.79999999999927,29.265999999999963 108.60000000000036,29.339000000000055 C108.39999999999964,29.412000000000035 108.29999999999927,29.44799999999998 108.10000000000036,29.44799999999998 C107.70000000000073,29.44799999999998 107.29999999999927,29.28200000000004 107.0,28.94799999999998 C106.70000000000073,28.61500000000001 106.60000000000036,28.187999999999988 106.60000000000036,27.66700000000003 M110.89999999999964,28.57299999999998 C111.0,28.57299999999998 111.10000000000036,28.616999999999962 111.20000000000073,28.706000000000017 C111.29999999999927,28.79499999999996 111.39999999999964,28.900999999999954 111.39999999999964,29.025999999999954 C111.39999999999964,29.140999999999963 111.29999999999927,29.241999999999962 111.20000000000073,29.331000000000017 C111.10000000000036,29.41999999999996 111.0,29.464000000000055 110.89999999999964,29.464000000000055 C110.79999999999927,29.464000000000055 110.70000000000073,29.41999999999996 110.60000000000036,29.331000000000017 C110.5,29.241999999999962 110.5,29.140999999999963 110.5,29.025999999999954 C110.5,28.900999999999954 110.5,28.79499999999996 110.60000000000036,28.706000000000017 C110.70000000000073,28.616999999999962 110.79999999999927,28.57299999999998 110.89999999999964,28.57299999999998" />
</svg>
