<?xml version="1.0" encoding="UTF-8" standalone="yes"?>
<svg width="256.0px" height="256.0px" xmlns="http://www.w3.org/2000/svg" xmlns:xlink="http://www.w3.org/1999/xlink" version="1.2" baseProfile="tiny">
<path d="M52.399999999999636,170.018 L52.399999999999636,171.565 C52.399999999999636,172.117 52.399999999999636,172.555 52.399999999999636,172.878 C52.899999999999636,172.513 53.20000000000073,172.242 53.399999999999636,172.065 C53.600000000000364,171.857 53.79999999999927,171.568 54.0,171.198 C54.20000000000073,170.828 54.29999999999927,170.461 54.29999999999927,170.096 C54.29999999999927,169.732 54.20000000000073,169.419 54.100000000000364,169.159 C53.899999999999636,168.899 53.70000000000073,168.768 53.399999999999636,168.768 C53.100000000000364,168.768 52.899999999999636,168.888 52.70000000000073,169.128 C52.5,169.388 52.399999999999636,169.685 52.399999999999636,170.018 M51.5,173.596 L51.29999999999927,161.706 C51.5,161.602 51.70000000000073,161.55 51.79999999999927,161.55 C52.0,161.55 52.20000000000073,161.602 52.399999999999636,161.706 L52.20000000000073,168.596 C52.79999999999927,168.138 53.399999999999636,167.909 54.100000000000364,167.909 C54.600000000000364,167.909 55.0,168.117 55.29999999999927,168.534 C55.70000000000073,168.951 55.79999999999927,169.43 55.79999999999927,169.971 C55.79999999999927,170.305 55.70000000000073,170.664 55.5,171.05 C55.29999999999927,171.393 55.100000000000364,171.664 54.79999999999927,171.862 C54.70000000000073,171.966 54.399999999999636,172.227 53.79999999999927,172.643 C53.70000000000073,172.758 53.5,172.893 53.29999999999927,173.05 C53.100000000000364,173.206 52.899999999999636,173.305 52.899999999999636,173.346 C52.79999999999927,173.399 52.70000000000073,173.503 52.600000000000364,173.659 C52.5,173.794 52.399999999999636,173.904 52.29999999999927,173.987 C52.20000000000073,174.07 52.100000000000364,174.112 52.0,174.112 C51.899999999999636,174.112 51.79999999999927,174.065 51.70000000000073,173.971 C51.600000000000364,173.878 51.5,173.753 51.5,173.596" />
<path d="M47.79999999999927,177.518 L47.79999999999927,179.065 C47.79999999999927,179.617 47.79999999999927,180.055 47.899999999999636,180.378 C48.29999999999927,180.013 48.600000000000364,179.742 48.79999999999927,179.565 C49.0,179.357 49.20000000000073,179.068 49.399999999999636,178.698 C49.600000000000364,178.328 49.70000000000073,177.961 49.70000000000073,177.596 C49.70000000000073,177.232 49.600000000000364,176.919 49.5,176.659 C49.29999999999927,176.399 49.100000000000364,176.268 48.899999999999636,176.268 C48.600000000000364,176.268 48.29999999999927,176.388 48.100000000000364,176.628 C47.899999999999636,176.888 47.79999999999927,177.185 47.79999999999927,177.518 M47.0,181.096 L46.70000000000073,169.206 C46.899999999999636,169.102 47.100000000000364,169.05 47.29999999999927,169.05 C47.399999999999636,169.05 47.600000000000364,169.102 47.79999999999927,169.206 L47.600000000000364,176.096 C48.20000000000073,175.638 48.79999999999927,175.409 49.5,175.409 C50.0,175.409 50.399999999999636,175.617 50.70000000000073,176.034 C51.100000000000364,176.451 51.29999999999927,176.93 51.29999999999927,177.471 C51.29999999999927,177.805 51.100000000000364,178.164 50.899999999999636,178.55 C50.70000000000073,178.893 50.5,179.164 50.29999999999927,179.362 C50.100000000000364,179.466 49.79999999999927,179.727 49.29999999999927,180.143 C49.100000000000364,180.258 48.899999999999636,180.393 48.70000000000073,180.55 C48.5,180.706 48.399999999999636,180.805 48.29999999999927,180.846 C48.20000000000073,180.899 48.100000000000364,181.003 48.100000000000364,181.159 C48.0,181.294 47.899999999999636,181.404 47.70000000000073,181.487 C47.70000000000073,181.57 47.5,181.612 47.399999999999636,181.612 C47.29999999999927,181.612 47.20000000000073,181.565 47.100000000000364,181.471 C47.0,181.378 47.0,181.253 47.0,181.096" />
<path d="M52.20000000000073,175.846 C52.399999999999636,175.753 52.600000000000364,175.706 52.79999999999927,175.706 C52.899999999999636,175.706 53.100000000000364,175.753 53.29999999999927,175.846 L53.20000000000073,179.503 L55.29999999999927,179.112 L55.399999999999636,179.112 C55.600000000000364,179.112 55.79999999999927,179.221 55.79999999999927,179.44 L55.899999999999636,190.846 C55.70000000000073,190.94 55.600000000000364,190.987 55.399999999999636,190.987 C55.20000000000073,190.987 55.100000000000364,190.94 54.899999999999636,190.846 L54.899999999999636,187.19 L52.79999999999927,187.581 L52.79999999999927,187.581 C52.5,187.581 52.399999999999636,187.471 52.399999999999636,187.253 L52.20000000000073,175.846 M55.0,185.237 L55.0,181.096 L53.20000000000073,181.456 L53.100000000000364,185.596 L55.0,185.237" />
<path d="M36.70000000000073,215.846 C36.899999999999636,215.753 37.100000000000364,215.706 37.20000000000073,215.706 C37.399999999999636,215.706 37.600000000000364,215.753 37.70000000000073,215.846 L37.70000000000073,219.503 L39.79999999999927,219.112 L39.899999999999636,219.112 C40.100000000000364,219.112 40.20000000000073,219.221 40.20000000000073,219.44 L40.399999999999636,230.846 C40.20000000000073,230.94 40.0,230.987 39.899999999999636,230.987 C39.70000000000073,230.987 39.5,230.94 39.399999999999636,230.846 L39.399999999999636,227.19 L37.29999999999927,227.581 L37.20000000000073,227.581 C37.0,227.581 36.899999999999636,227.471 36.899999999999636,227.253 L36.70000000000073,215.846 M39.399999999999636,225.237 L39.5,221.096 L37.70000000000073,221.456 L37.600000000000364,225.596 L39.399999999999636,225.237" />
<path d="M76.89999999999964,168.096 C77.5,168.096 78.0,168.258 78.5,168.581 C78.89999999999964,168.935 79.10000000000036,169.378 79.10000000000036,169.909 C79.10000000000036,170.805 78.60000000000036,171.643 77.70000000000073,172.425 C76.79999999999927,173.206 75.79999999999927,173.596 74.70000000000073,173.596 C74.10000000000036,173.596 73.5,173.435 73.10000000000036,173.112 C72.70000000000073,172.758 72.5,172.315 72.5,171.784 C72.5,170.888 73.0,170.05 73.89999999999964,169.268 C74.79999999999927,168.487 75.79999999999927,168.096 76.89999999999964,168.096" />
<path d="M76.89999999999964,175.596 C77.5,175.596 78.0,175.758 78.5,176.081 C78.89999999999964,176.435 79.10000000000036,176.878 79.10000000000036,177.409 C79.10000000000036,178.305 78.60000000000036,179.143 77.70000000000073,179.925 C76.79999999999927,180.706 75.79999999999927,181.096 74.70000000000073,181.096 C74.10000000000036,181.096 73.5,180.935 73.10000000000036,180.612 C72.70000000000073,180.258 72.5,179.815 72.5,179.284 C72.5,178.388 73.0,177.55 73.89999999999964,176.768 C74.79999999999927,175.987 75.79999999999927,175.596 76.89999999999964,175.596" />
<path d="M76.89999999999964,180.596 C77.5,180.596 78.0,180.758 78.5,181.081 C78.89999999999964,181.435 79.10000000000036,181.878 79.10000000000036,182.409 C79.10000000000036,183.305 78.60000000000036,184.143 77.70000000000073,184.925 C76.79999999999927,185.706 75.79999999999927,186.096 74.70000000000073,186.096 C74.10000000000036,186.096 73.5,185.935 73.10000000000036,185.612 C72.70000000000073,185.258 72.5,184.815 72.5,184.284 C72.5,183.388 73.0,182.55 73.89999999999964,181.768 C74.79999999999927,180.987 75.79999999999927,180.596 76.89999999999964,180.596" />
<path d="M76.89999999999964,190.596 C77.5,190.596 78.0,190.758 78.5,191.081 C78.89999999999964,191.435 79.10000000000036,191.878 79.10000000000036,192.409 C79.10000000000036,193.305 78.60000000000036,194.143 77.70000000000073,194.925 C76.79999999999927,195.706 75.79999999999927,196.096 74.70000000000073,196.096 C74.10000000000036,196.096 73.5,195.935 73.10000000000036,195.612 C72.70000000000073,195.258 72.5,194.815 72.5,194.284 C72.5,193.388 73.0,192.55 73.89999999999964,191.768 C74.79999999999927,190.987 75.79999999999927,190.596 76.89999999999964,190.596" />
<path d="M61.399999999999636,220.596 C62.0,220.596 62.5,220.758 63.0,221.081 C63.399999999999636,221.435 63.600000000000364,221.878 63.600000000000364,222.409 C63.600000000000364,223.305 63.100000000000364,224.143 62.20000000000073,224.925 C61.20000000000073,225.706 60.20000000000073,226.096 59.20000000000073,226.096 C58.5,226.096 58.0,225.935 57.600000000000364,225.612 C57.20000000000073,225.258 57.0,224.815 57.0,224.284 C57.0,223.388 57.399999999999636,222.55 58.399999999999636,221.768 C59.29999999999927,220.987 60.29999999999927,220.596 61.399999999999636,220.596" />
<path d="M61.399999999999636,168.096 C62.0,168.096 62.5,168.258 63.0,168.581 C63.399999999999636,168.935 63.600000000000364,169.378 63.600000000000364,169.909 C63.600000000000364,170.805 63.100000000000364,171.643 62.20000000000073,172.425 C61.20000000000073,173.206 60.20000000000073,173.596 59.20000000000073,173.596 C58.5,173.596 58.0,173.435 57.600000000000364,173.112 C57.20000000000073,172.758 57.0,172.315 57.0,171.784 C57.0,170.888 57.399999999999636,170.05 58.399999999999636,169.268 C59.29999999999927,168.487 60.29999999999927,168.096 61.399999999999636,168.096" />
<path d="M61.399999999999636,175.596 C62.0,175.596 62.5,175.758 63.0,176.081 C63.399999999999636,176.435 63.600000000000364,176.878 63.600000000000364,177.409 C63.600000000000364,178.305 63.100000000000364,179.143 62.20000000000073,179.925 C61.20000000000073,180.706 60.20000000000073,181.096 59.20000000000073,181.096 C58.5,181.096 58.0,180.935 57.600000000000364,180.612 C57.20000000000073,180.258 57.0,179.815 57.0,179.284 C57.0,178.388 57.399999999999636,177.55 58.399999999999636,176.768 C59.29999999999927,175.987 60.29999999999927,175.596 61.399999999999636,175.596" />
<path d="M61.399999999999636,180.596 C62.0,180.596 62.5,180.758 63.0,181.081 C63.399999999999636,181.435 63.600000000000364,181.878 63.600000000000364,182.409 C63.600000000000364,183.305 63.100000000000364,184.143 62.20000000000073,184.925 C61.20000000000073,185.706 60.20000000000073,186.096 59.20000000000073,186.096 C58.5,186.096 58.0,185.935 57.600000000000364,185.612 C57.20000000000073,185.258 57.0,184.815 57.0,184.284 C57.0,183.388 57.399999999999636,182.55 58.399999999999636,181.768 C59.29999999999927,180.987 60.29999999999927,180.596 61.399999999999636,180.596" />
<path d="M61.399999999999636,190.596 C62.0,190.596 62.5,190.758 63.0,191.081 C63.399999999999636,191.435 63.600000000000364,191.878 63.600000000000364,192.409 C63.600000000000364,193.305 63.100000000000364,194.143 62.20000000000073,194.925 C61.20000000000073,195.706 60.20000000000073,196.096 59.20000000000073,196.096 C58.5,196.096 58.0,195.935 57.600000000000364,195.612 C57.20000000000073,195.258 57.0,194.815 57.0,194.284 C57.0,193.388 57.399999999999636,192.55 58.399999999999636,191.768 C59.29999999999927,190.987 60.29999999999927,190.596 61.399999999999636,190.596" />
<path d="M45.79999999999927,220.596 C46.5,220.596 47.0,220.758 47.399999999999636,221.081 C47.79999999999927,221.435 48.0,221.878 48.0,222.409 C48.0,223.305 47.600000000000364,224.143 46.70000000000073,224.925 C45.70000000000073,225.706 44.70000000000073,226.096 43.600000000000364,226.096 C43.0,226.096 42.5,225.935 42.100000000000364,225.612 C41.70000000000073,225.258 41.5,224.815 41.5,224.284 C41.5,223.388 41.899999999999636,222.55 42.899999999999636,221.768 C43.79999999999927,220.987 44.79999999999927,220.596 45.79999999999927,220.596" />
<path d="M30.299999999999272,223.096 C31.0,223.096 31.5,223.258 31.899999999999636,223.581 C32.29999999999927,223.935 32.5,224.378 32.5,224.909 C32.5,225.805 32.100000000000364,226.643 31.100000000000364,227.425 C30.200000000000728,228.206 29.200000000000728,228.596 28.100000000000364,228.596 C27.5,228.596 27.0,228.435 26.5,228.112 C26.100000000000364,227.758 25.899999999999636,227.315 25.899999999999636,226.784 C25.899999999999636,225.888 26.399999999999636,225.05 27.299999999999272,224.268 C28.299999999999272,223.487 29.299999999999272,223.096 30.299999999999272,223.096" />
<path d="M30.299999999999272,173.096 C31.0,173.096 31.5,173.258 31.899999999999636,173.581 C32.29999999999927,173.935 32.5,174.378 32.5,174.909 C32.5,175.805 32.100000000000364,176.643 31.100000000000364,177.425 C30.200000000000728,178.206 29.200000000000728,178.596 28.100000000000364,178.596 C27.5,178.596 27.0,178.435 26.5,178.112 C26.100000000000364,177.758 25.899999999999636,177.315 25.899999999999636,176.784 C25.899999999999636,175.888 26.399999999999636,175.05 27.299999999999272,174.268 C28.299999999999272,173.487 29.299999999999272,173.096 30.299999999999272,173.096" />
<path d="M30.299999999999272,180.596 C31.0,180.596 31.5,180.758 31.899999999999636,181.081 C32.29999999999927,181.435 32.5,181.878 32.5,182.409 C32.5,183.305 32.100000000000364,184.143 31.100000000000364,184.925 C30.200000000000728,185.706 29.200000000000728,186.096 28.100000000000364,186.096 C27.5,186.096 27.0,185.935 26.5,185.612 C26.100000000000364,185.258 25.899999999999636,184.815 25.899999999999636,184.284 C25.899999999999636,183.388 26.399999999999636,182.55 27.299999999999272,181.768 C28.299999999999272,180.987 29.299999999999272,180.596 30.299999999999272,180.596" />
<path d="M30.299999999999272,185.596 C31.0,185.596 31.5,185.758 31.899999999999636,186.081 C32.29999999999927,186.435 32.5,186.878 32.5,187.409 C32.5,188.305 32.100000000000364,189.143 31.100000000000364,189.925 C30.200000000000728,190.706 29.200000000000728,191.096 28.100000000000364,191.096 C27.5,191.096 27.0,190.935 26.5,190.612 C26.100000000000364,190.258 25.899999999999636,189.815 25.899999999999636,189.284 C25.899999999999636,188.388 26.399999999999636,187.55 27.299999999999272,186.768 C28.299999999999272,185.987 29.299999999999272,185.596 30.299999999999272,185.596" />
<path d="M30.299999999999272,190.596 C31.0,190.596 31.5,190.758 31.899999999999636,191.081 C32.29999999999927,191.435 32.5,191.878 32.5,192.409 C32.5,193.305 32.100000000000364,194.143 31.100000000000364,194.925 C30.200000000000728,195.706 29.200000000000728,196.096 28.100000000000364,196.096 C27.5,196.096 27.0,195.935 26.5,195.612 C26.100000000000364,195.258 25.899999999999636,194.815 25.899999999999636,194.284 C25.899999999999636,193.388 26.399999999999636,192.55 27.299999999999272,191.768 C28.299999999999272,190.987 29.299999999999272,190.596 30.299999999999272,190.596" />
<path d="M14.799999999999272,213.096 C15.399999999999636,213.096 16.0,213.258 16.399999999999636,213.581 C16.799999999999272,213.935 17.0,214.378 17.0,214.909 C17.0,215.805 16.5,216.643 15.600000000000364,217.425 C14.700000000000728,218.206 13.700000000000728,218.596 12.600000000000364,218.596 C12.0,218.596 11.5,218.435 11.0,218.112 C10.600000000000364,217.758 10.399999999999636,217.315 10.399999999999636,216.784 C10.399999999999636,215.888 10.899999999999636,215.05 11.799999999999272,214.268 C12.700000000000728,213.487 13.700000000000728,213.096 14.799999999999272,213.096" />
<path d="M25.899999999999636,239.596 L57.600000000000364,238.32 L57.600000000000364,240.82 L25.899999999999636,242.096 L25.899999999999636,239.596" />
<path d="M25.899999999999636,235.846 L42.100000000000364,235.195 L42.100000000000364,237.695 L25.899999999999636,238.346 L25.899999999999636,235.846" />
<path d="M31.899999999999636,153.346 L79.10000000000036,153.346 L79.10000000000036,155.846 L31.899999999999636,155.846 L31.899999999999636,153.346" />
<path d="M62.899999999999636,157.096 L79.10000000000036,157.096 L79.10000000000036,159.596 L62.899999999999636,159.596 L62.899999999999636,157.096" />
<path d="M141.0,46.6121 C140.89999999999964,46.6121 140.70000000000073,46.6694 140.39999999999964,46.784 L140.39999999999964,46.6746 L141.89999999999964,45.9402 L141.89999999999964,45.9558 L141.89999999999964,50.7527 C141.89999999999964,50.9506 142.0,51.0782 142.10000000000036,51.1355 C142.20000000000073,51.1928 142.39999999999964,51.2215 142.70000000000073,51.2215 L142.70000000000073,51.3465 L140.5,51.3465 L140.5,51.2215 C140.79999999999927,51.211 141.0,51.1668 141.10000000000036,51.0886 C141.20000000000073,51.0105 141.20000000000073,50.8465 141.20000000000073,50.5965 L141.20000000000073,46.9871 C141.20000000000073,46.7371 141.20000000000073,46.6121 141.0,46.6121 M146.79999999999927,50.6902 C146.5,51.2006 146.10000000000036,51.4558 145.5,51.4558 C145.0,51.4558 144.5,51.1954 144.20000000000073,50.6746 C143.89999999999964,50.1537 143.70000000000073,49.4819 143.70000000000073,48.659 C143.70000000000073,47.8881 143.89999999999964,47.2423 144.20000000000073,46.7215 C144.5,46.2006 145.0,45.9402 145.5,45.9402 C146.0,45.9402 146.5,46.1954 146.79999999999927,46.7058 C147.10000000000036,47.2162 147.29999999999927,47.8829 147.29999999999927,48.7058 C147.29999999999927,49.5183 147.10000000000036,50.1798 146.79999999999927,50.6902 M145.5,46.1433 C144.79999999999927,46.1433 144.39999999999964,47.0079 144.39999999999964,48.7371 C144.39999999999964,50.4142 144.79999999999927,51.2527 145.5,51.2527 C146.20000000000073,51.2527 146.5,50.409 146.5,48.7215 C146.5,47.8881 146.5,47.2501 146.29999999999927,46.8074 C146.10000000000036,46.3647 145.79999999999927,46.1433 145.5,46.1433 M147.79999999999927,47.534 C147.79999999999927,47.4194 147.79999999999927,47.3152 147.79999999999927,47.2215 C147.89999999999964,47.1277 147.89999999999964,46.9949 148.0,46.823 C148.10000000000036,46.6511 148.20000000000073,46.5079 148.29999999999927,46.3933 C148.39999999999964,46.2787 148.60000000000036,46.1772 148.79999999999927,46.0886 C149.0,46.0001 149.20000000000073,45.9558 149.39999999999964,45.9558 C149.79999999999927,45.9558 150.20000000000073,46.0912 150.5,46.3621 C150.70000000000073,46.6329 150.89999999999964,46.9662 150.89999999999964,47.3621 C150.89999999999964,47.9662 150.5,48.6277 149.89999999999964,49.3465 L148.5,50.7683 L150.39999999999964,50.7683 C150.60000000000036,50.7683 150.79999999999927,50.7371 150.79999999999927,50.6746 C150.89999999999964,50.6121 151.10000000000036,50.4662 151.20000000000073,50.2371 L151.29999999999927,50.2683 L150.89999999999964,51.3465 L147.70000000000073,51.3465 L147.70000000000073,51.2527 L149.20000000000073,49.7371 C149.89999999999964,49.0079 150.20000000000073,48.3204 150.20000000000073,47.6746 C150.20000000000073,47.3308 150.10000000000036,47.0548 149.89999999999964,46.8465 C149.70000000000073,46.6381 149.39999999999964,46.534 149.10000000000036,46.534 C148.79999999999927,46.534 148.60000000000036,46.6095 148.39999999999964,46.7605 C148.29999999999927,46.9116 148.10000000000036,47.185 147.89999999999964,47.5808 L147.79999999999927,47.534" />
<path d="M219.79999999999927,170.018 L219.79999999999927,171.565 C219.79999999999927,172.117 219.89999999999964,172.555 219.89999999999964,172.878 C220.29999999999927,172.513 220.60000000000036,172.242 220.79999999999927,172.065 C221.0,171.857 221.20000000000073,171.568 221.39999999999964,171.198 C221.70000000000073,170.828 221.79999999999927,170.461 221.79999999999927,170.096 C221.79999999999927,169.732 221.70000000000073,169.419 221.5,169.159 C221.39999999999964,168.899 221.20000000000073,168.768 220.89999999999964,168.768 C220.60000000000036,168.768 220.29999999999927,168.888 220.10000000000036,169.128 C219.89999999999964,169.388 219.79999999999927,169.685 219.79999999999927,170.018 M219.0,173.596 L218.70000000000073,161.706 C218.89999999999964,161.602 219.10000000000036,161.55 219.29999999999927,161.55 C219.5,161.55 219.70000000000073,161.602 219.79999999999927,161.706 L219.70000000000073,168.596 C220.20000000000073,168.138 220.79999999999927,167.909 221.5,167.909 C222.0,167.909 222.39999999999964,168.117 222.79999999999927,168.534 C223.10000000000036,168.951 223.29999999999927,169.43 223.29999999999927,169.971 C223.29999999999927,170.305 223.20000000000073,170.664 223.0,171.05 C222.79999999999927,171.393 222.5,171.664 222.29999999999927,171.862 C222.20000000000073,171.966 221.79999999999927,172.227 221.29999999999927,172.643 C221.20000000000073,172.758 221.0,172.893 220.79999999999927,173.05 C220.5,173.206 220.39999999999964,173.305 220.39999999999964,173.346 C220.29999999999927,173.399 220.20000000000073,173.503 220.10000000000036,173.659 C220.0,173.794 219.89999999999964,173.904 219.79999999999927,173.987 C219.70000000000073,174.07 219.60000000000036,174.112 219.5,174.112 C219.29999999999927,174.112 219.20000000000073,174.065 219.10000000000036,173.971 C219.0,173.878 219.0,173.753 219.0,173.596" />
<path d="M217.29999999999927,177.518 L217.29999999999927,179.065 C217.29999999999927,179.617 217.29999999999927,180.055 217.39999999999964,180.378 C217.79999999999927,180.013 218.10000000000036,179.742 218.29999999999927,179.565 C218.5,179.357 218.70000000000073,179.068 218.89999999999964,178.698 C219.20000000000073,178.328 219.29999999999927,177.961 219.29999999999927,177.596 C219.29999999999927,177.232 219.20000000000073,176.919 219.0,176.659 C218.89999999999964,176.399 218.70000000000073,176.268 218.39999999999964,176.268 C218.10000000000036,176.268 217.79999999999927,176.388 217.60000000000036,176.628 C217.39999999999964,176.888 217.29999999999927,177.185 217.29999999999927,177.518 M216.5,181.096 L216.20000000000073,169.206 C216.39999999999964,169.102 216.60000000000036,169.05 216.79999999999927,169.05 C217.0,169.05 217.20000000000073,169.102 217.29999999999927,169.206 L217.20000000000073,176.096 C217.70000000000073,175.638 218.29999999999927,175.409 219.0,175.409 C219.5,175.409 219.89999999999964,175.617 220.29999999999927,176.034 C220.60000000000036,176.451 220.79999999999927,176.93 220.79999999999927,177.471 C220.79999999999927,177.805 220.70000000000073,178.164 220.5,178.55 C220.29999999999927,178.893 220.0,179.164 219.79999999999927,179.362 C219.70000000000073,179.466 219.29999999999927,179.727 218.79999999999927,180.143 C218.70000000000073,180.258 218.5,180.393 218.29999999999927,180.55 C218.0,180.706 217.89999999999964,180.805 217.89999999999964,180.846 C217.79999999999927,180.899 217.70000000000073,181.003 217.60000000000036,181.159 C217.5,181.294 217.39999999999964,181.404 217.29999999999927,181.487 C217.20000000000073,181.57 217.10000000000036,181.612 217.0,181.612 C216.79999999999927,181.612 216.70000000000073,181.565 216.60000000000036,181.471 C216.5,181.378 216.5,181.253 216.5,181.096" />
<path d="M213.89999999999964,77.5183 L213.89999999999964,79.0652 C213.89999999999964,79.6173 213.89999999999964,80.0548 214.0,80.3777 C214.39999999999964,80.0131 214.70000000000073,79.7423 214.89999999999964,79.5652 C215.10000000000036,79.3569 215.29999999999927,79.0678 215.5,78.698 C215.70000000000073,78.3282 215.79999999999927,77.961 215.79999999999927,77.5965 C215.79999999999927,77.2319 215.79999999999927,76.9194 215.60000000000036,76.659 C215.39999999999964,76.3985 215.20000000000073,76.2683 215.0,76.2683 C214.70000000000073,76.2683 214.39999999999964,76.3881 214.20000000000073,76.6277 C214.0,76.8881 213.89999999999964,77.185 213.89999999999964,77.5183 M213.10000000000036,81.0965 L212.79999999999927,69.2058 C213.0,69.1017 213.20000000000073,69.0496 213.39999999999964,69.0496 C213.60000000000036,69.0496 213.70000000000073,69.1017 213.89999999999964,69.2058 L213.79999999999927,76.0965 C214.29999999999927,75.6381 214.89999999999964,75.409 215.60000000000036,75.409 C216.10000000000036,75.409 216.5,75.6173 216.89999999999964,76.034 C217.20000000000073,76.4506 217.39999999999964,76.9298 217.39999999999964,77.4715 C217.39999999999964,77.8048 217.29999999999927,78.1642 217.0,78.5496 C216.79999999999927,78.8933 216.60000000000036,79.1642 216.39999999999964,79.3621 C216.20000000000073,79.4662 215.89999999999964,79.7267 215.39999999999964,80.1433 C215.20000000000073,80.2579 215.0,80.3933 214.79999999999927,80.5496 C214.60000000000036,80.7058 214.5,80.8048 214.39999999999964,80.8465 C214.29999999999927,80.8985 214.20000000000073,81.0027 214.20000000000073,81.159 C214.10000000000036,81.2944 214.0,81.4037 213.79999999999927,81.4871 C213.79999999999927,81.5704 213.70000000000073,81.6121 213.5,81.6121 C213.39999999999964,81.6121 213.29999999999927,81.5652 213.20000000000073,81.4715 C213.10000000000036,81.3777 213.10000000000036,81.2527 213.10000000000036,81.0965" />
<path d="M213.89999999999964,55.0183 L213.89999999999964,56.5652 C213.89999999999964,57.1173 213.89999999999964,57.5548 214.0,57.8777 C214.39999999999964,57.5131 214.70000000000073,57.2423 214.89999999999964,57.0652 C215.10000000000036,56.8569 215.29999999999927,56.5678 215.5,56.198 C215.70000000000073,55.8282 215.79999999999927,55.461 215.79999999999927,55.0965 C215.79999999999927,54.7319 215.79999999999927,54.4194 215.60000000000036,54.159 C215.39999999999964,53.8985 215.20000000000073,53.7683 215.0,53.7683 C214.70000000000073,53.7683 214.39999999999964,53.8881 214.20000000000073,54.1277 C214.0,54.3881 213.89999999999964,54.685 213.89999999999964,55.0183 M213.10000000000036,58.5965 L212.79999999999927,46.7058 C213.0,46.6017 213.20000000000073,46.5496 213.39999999999964,46.5496 C213.60000000000036,46.5496 213.70000000000073,46.6017 213.89999999999964,46.7058 L213.79999999999927,53.5965 C214.29999999999927,53.1381 214.89999999999964,52.909 215.60000000000036,52.909 C216.10000000000036,52.909 216.5,53.1173 216.89999999999964,53.534 C217.20000000000073,53.9506 217.39999999999964,54.4298 217.39999999999964,54.9715 C217.39999999999964,55.3048 217.29999999999927,55.6642 217.0,56.0496 C216.79999999999927,56.3933 216.60000000000036,56.6642 216.39999999999964,56.8621 C216.20000000000073,56.9662 215.89999999999964,57.2267 215.39999999999964,57.6433 C215.20000000000073,57.7579 215.0,57.8933 214.79999999999927,58.0496 C214.60000000000036,58.2058 214.5,58.3048 214.39999999999964,58.3465 C214.29999999999927,58.3985 214.20000000000073,58.5027 214.20000000000073,58.659 C214.10000000000036,58.7944 214.0,58.9037 213.79999999999927,58.9871 C213.79999999999927,59.0704 213.70000000000073,59.1121 213.5,59.1121 C213.39999999999964,59.1121 213.29999999999927,59.0652 213.20000000000073,58.9715 C213.10000000000036,58.8777 213.10000000000036,58.7527 213.10000000000036,58.5965" />
<path d="M255.70000000000073,75.5965 C256.2999999999993,75.5965 256.7999999999993,75.7579 257.2999999999993,76.0808 C257.7000000000007,76.435 257.89999999999964,76.8777 257.89999999999964,77.409 C257.89999999999964,78.3048 257.39999999999964,79.1433 256.5,79.9246 C255.5,80.7058 254.5,81.0965 253.5,81.0965 C252.79999999999927,81.0965 252.29999999999927,80.935 251.89999999999964,80.6121 C251.5,80.2579 251.29999999999927,79.8152 251.29999999999927,79.284 C251.29999999999927,78.3881 251.70000000000073,77.5496 252.70000000000073,76.7683 C253.60000000000036,75.9871 254.60000000000036,75.5965 255.70000000000073,75.5965" />
<path d="M255.70000000000073,53.0965 C256.2999999999993,53.0965 256.7999999999993,53.2579 257.2999999999993,53.5808 C257.7000000000007,53.935 257.89999999999964,54.3777 257.89999999999964,54.909 C257.89999999999964,55.8048 257.39999999999964,56.6433 256.5,57.4246 C255.5,58.2058 254.5,58.5965 253.5,58.5965 C252.79999999999927,58.5965 252.29999999999927,58.435 251.89999999999964,58.1121 C251.5,57.7579 251.29999999999927,57.3152 251.29999999999927,56.784 C251.29999999999927,55.8881 251.70000000000073,55.0496 252.70000000000073,54.2683 C253.60000000000036,53.4871 254.60000000000036,53.0965 255.70000000000073,53.0965" />
<path d="M228.79999999999927,168.096 C229.5,168.096 230.0,168.258 230.39999999999964,168.581 C230.79999999999927,168.935 231.0,169.378 231.0,169.909 C231.0,170.805 230.60000000000036,171.643 229.60000000000036,172.425 C228.70000000000073,173.206 227.70000000000073,173.596 226.60000000000036,173.596 C226.0,173.596 225.5,173.435 225.0,173.112 C224.60000000000036,172.758 224.39999999999964,172.315 224.39999999999964,171.784 C224.39999999999964,170.888 224.89999999999964,170.05 225.79999999999927,169.268 C226.79999999999927,168.487 227.79999999999927,168.096 228.79999999999927,168.096" />
<path d="M228.79999999999927,175.596 C229.5,175.596 230.0,175.758 230.39999999999964,176.081 C230.79999999999927,176.435 231.0,176.878 231.0,177.409 C231.0,178.305 230.60000000000036,179.143 229.60000000000036,179.925 C228.70000000000073,180.706 227.70000000000073,181.096 226.60000000000036,181.096 C226.0,181.096 225.5,180.935 225.0,180.612 C224.60000000000036,180.258 224.39999999999964,179.815 224.39999999999964,179.284 C224.39999999999964,178.388 224.89999999999964,177.55 225.79999999999927,176.768 C226.79999999999927,175.987 227.79999999999927,175.596 228.79999999999927,175.596" />
<path d="M228.79999999999927,180.596 C229.5,180.596 230.0,180.758 230.39999999999964,181.081 C230.79999999999927,181.435 231.0,181.878 231.0,182.409 C231.0,183.305 230.60000000000036,184.143 229.60000000000036,184.925 C228.70000000000073,185.706 227.70000000000073,186.096 226.60000000000036,186.096 C226.0,186.096 225.5,185.935 225.0,185.612 C224.60000000000036,185.258 224.39999999999964,184.815 224.39999999999964,184.284 C224.39999999999964,183.388 224.89999999999964,182.55 225.79999999999927,181.768 C226.79999999999927,180.987 227.79999999999927,180.596 228.79999999999927,180.596" />
<path d="M228.79999999999927,190.596 C229.5,190.596 230.0,190.758 230.39999999999964,191.081 C230.79999999999927,191.435 231.0,191.878 231.0,192.409 C231.0,193.305 230.60000000000036,194.143 229.60000000000036,194.925 C228.70000000000073,195.706 227.70000000000073,196.096 226.60000000000036,196.096 C226.0,196.096 225.5,195.935 225.0,195.612 C224.60000000000036,195.258 224.39999999999964,194.815 224.39999999999964,194.284 C224.39999999999964,193.388 224.89999999999964,192.55 225.79999999999927,191.768 C226.79999999999927,190.987 227.79999999999927,190.596 228.79999999999927,190.596" />
<path d="M228.79999999999927,73.0965 C229.5,73.0965 230.0,73.2579 230.39999999999964,73.5808 C230.79999999999927,73.935 231.0,74.3777 231.0,74.909 C231.0,75.8048 230.60000000000036,76.6433 229.60000000000036,77.4246 C228.70000000000073,78.2058 227.70000000000073,78.5965 226.60000000000036,78.5965 C226.0,78.5965 225.5,78.435 225.0,78.1121 C224.60000000000036,77.7579 224.39999999999964,77.3152 224.39999999999964,76.784 C224.39999999999964,75.8881 224.89999999999964,75.0496 225.79999999999927,74.2683 C226.79999999999927,73.4871 227.79999999999927,73.0965 228.79999999999927,73.0965" />
<path d="M222.89999999999964,75.5965 C223.5,75.5965 224.10000000000036,75.7579 224.5,76.0808 C224.89999999999964,76.435 225.10000000000036,76.8777 225.10000000000036,77.409 C225.10000000000036,78.3048 224.60000000000036,79.1433 223.70000000000073,79.9246 C222.79999999999927,80.7058 221.79999999999927,81.0965 220.70000000000073,81.0965 C220.10000000000036,81.0965 219.5,80.935 219.10000000000036,80.6121 C218.70000000000073,80.2579 218.5,79.8152 218.5,79.284 C218.5,78.3881 219.0,77.5496 219.89999999999964,76.7683 C220.79999999999927,75.9871 221.79999999999927,75.5965 222.89999999999964,75.5965" />
<path d="M228.79999999999927,50.5965 C229.5,50.5965 230.0,50.7579 230.39999999999964,51.0808 C230.79999999999927,51.435 231.0,51.8777 231.0,52.409 C231.0,53.3048 230.60000000000036,54.1433 229.60000000000036,54.9246 C228.70000000000073,55.7058 227.70000000000073,56.0965 226.60000000000036,56.0965 C226.0,56.0965 225.5,55.935 225.0,55.6121 C224.60000000000036,55.2579 224.39999999999964,54.8152 224.39999999999964,54.284 C224.39999999999964,53.3881 224.89999999999964,52.5496 225.79999999999927,51.7683 C226.79999999999927,50.9871 227.79999999999927,50.5965 228.79999999999927,50.5965" />
<path d="M222.89999999999964,53.0965 C223.5,53.0965 224.10000000000036,53.2579 224.5,53.5808 C224.89999999999964,53.935 225.10000000000036,54.3777 225.10000000000036,54.909 C225.10000000000036,55.8048 224.60000000000036,56.6433 223.70000000000073,57.4246 C222.79999999999927,58.2058 221.79999999999927,58.5965 220.70000000000073,58.5965 C220.10000000000036,58.5965 219.5,58.435 219.10000000000036,58.1121 C218.70000000000073,57.7579 218.5,57.3152 218.5,56.784 C218.5,55.8881 219.0,55.0496 219.89999999999964,54.2683 C220.79999999999927,53.4871 221.79999999999927,53.0965 222.89999999999964,53.0965" />
<path d="M176.39999999999964,230.596 C177.0,230.596 177.5,230.758 178.0,231.081 C178.39999999999964,231.435 178.60000000000036,231.878 178.60000000000036,232.409 C178.60000000000036,233.305 178.10000000000036,234.143 177.20000000000073,234.925 C176.29999999999927,235.706 175.29999999999927,236.096 174.20000000000073,236.096 C173.60000000000036,236.096 173.0,235.935 172.60000000000036,235.612 C172.20000000000073,235.258 172.0,234.815 172.0,234.284 C172.0,233.388 172.5,232.55 173.39999999999964,231.768 C174.29999999999927,230.987 175.29999999999927,230.596 176.39999999999964,230.596" />
<path d="M154.79999999999927,244.409 C155.20000000000073,244.044 155.29999999999927,243.706 155.29999999999927,243.393 C155.29999999999927,243.102 155.20000000000073,242.883 155.0,242.737 C154.79999999999927,242.581 154.5,242.503 154.20000000000073,242.503 C153.89999999999964,242.503 153.79999999999927,242.576 153.60000000000036,242.721 C153.5,242.857 153.39999999999964,243.018 153.39999999999964,243.206 C153.39999999999964,243.445 153.5,243.622 153.70000000000073,243.737 L154.79999999999927,244.409 M155.10000000000036,244.565 C155.70000000000073,244.857 156.0,245.263 156.0,245.784 C156.0,245.784 156.0,245.805 156.0,245.846 C156.0,246.242 155.79999999999927,246.576 155.5,246.846 C155.10000000000036,247.128 154.70000000000073,247.268 154.10000000000036,247.268 C153.60000000000036,247.268 153.20000000000073,247.138 152.79999999999927,246.878 C152.39999999999964,246.638 152.20000000000073,246.31 152.20000000000073,245.893 C152.20000000000073,245.706 152.29999999999927,245.539 152.39999999999964,245.393 C152.5,245.227 152.60000000000036,245.112 152.60000000000036,245.05 C152.60000000000036,245.05 152.79999999999927,244.925 153.0,244.675 C152.60000000000036,244.404 152.39999999999964,244.055 152.39999999999964,243.628 C152.39999999999964,243.263 152.60000000000036,242.94 152.89999999999964,242.659 C153.20000000000073,242.399 153.60000000000036,242.268 154.20000000000073,242.268 C154.60000000000036,242.268 155.0,242.367 155.29999999999927,242.565 C155.60000000000036,242.763 155.79999999999927,243.039 155.79999999999927,243.393 C155.79999999999927,243.727 155.60000000000036,244.117 155.10000000000036,244.565 M153.29999999999927,244.846 C152.89999999999964,245.19 152.70000000000073,245.539 152.70000000000073,245.893 C152.70000000000073,246.227 152.79999999999927,246.497 153.10000000000036,246.706 C153.39999999999964,246.925 153.70000000000073,247.034 154.10000000000036,247.034 C154.39999999999964,247.034 154.60000000000036,246.951 154.70000000000073,246.784 C154.89999999999964,246.628 154.89999999999964,246.435 154.89999999999964,246.206 C154.89999999999964,245.925 154.79999999999927,245.721 154.60000000000036,245.596 L153.29999999999927,244.846 M160.89999999999964,224.065 C160.70000000000073,223.867 160.70000000000073,223.625 160.70000000000073,223.339 C160.70000000000073,223.052 160.70000000000073,222.813 160.89999999999964,222.62 C161.10000000000036,222.427 161.39999999999964,222.331 161.70000000000073,222.331 C161.89999999999964,222.331 162.20000000000073,222.427 162.39999999999964,222.62 C162.60000000000036,222.813 162.70000000000073,223.052 162.70000000000073,223.339 C162.70000000000073,223.625 162.60000000000036,223.867 162.39999999999964,224.065 C162.20000000000073,224.263 161.89999999999964,224.362 161.70000000000073,224.362 C161.39999999999964,224.362 161.10000000000036,224.263 160.89999999999964,224.065 M160.89999999999964,229.073 C160.70000000000073,228.88 160.70000000000073,228.641 160.70000000000073,228.354 C160.70000000000073,228.068 160.70000000000073,227.826 160.89999999999964,227.628 C161.10000000000036,227.43 161.39999999999964,227.331 161.70000000000073,227.331 C161.89999999999964,227.331 162.20000000000073,227.43 162.39999999999964,227.628 C162.60000000000036,227.826 162.70000000000073,228.068 162.70000000000073,228.354 C162.70000000000073,228.641 162.60000000000036,228.88 162.39999999999964,229.073 C162.20000000000073,229.266 161.89999999999964,229.362 161.70000000000073,229.362 C161.39999999999964,229.362 161.10000000000036,229.266 160.89999999999964,229.073 M154.20000000000073,220.596 C155.89999999999964,220.596 157.29999999999927,221.029 158.39999999999964,221.893 C159.5,222.81 160.0,224.05 160.0,225.612 C160.0,226.664 159.79999999999927,227.628 159.39999999999964,228.503 C159.0,229.419 158.5,230.227 157.89999999999964,230.925 C157.20000000000073,231.643 156.39999999999964,232.32 155.5,232.956 C154.60000000000036,233.581 153.70000000000073,234.143 152.70000000000073,234.643 C150.79999999999927,235.612 149.70000000000073,236.096 149.5,236.096 C149.29999999999927,236.096 149.29999999999927,236.013 149.29999999999927,235.846 C149.29999999999927,235.784 149.29999999999927,235.727 149.29999999999927,235.675 C150.0,235.279 150.79999999999927,234.779 151.79999999999927,234.175 C152.39999999999964,233.768 153.10000000000036,233.206 154.0,232.487 C154.79999999999927,231.81 155.39999999999964,231.175 155.79999999999927,230.581 C156.29999999999927,229.987 156.70000000000073,229.258 157.10000000000036,228.393 C157.39999999999964,227.518 157.60000000000036,226.654 157.60000000000036,225.8 C157.60000000000036,224.539 157.29999999999927,223.44 156.60000000000036,222.503 C156.0,221.565 155.20000000000073,221.096 154.20000000000073,221.096 C153.39999999999964,221.096 152.79999999999927,221.331 152.29999999999927,221.8 C151.70000000000073,222.279 151.29999999999927,222.883 151.10000000000036,223.612 C151.29999999999927,223.508 151.60000000000036,223.456 151.79999999999927,223.456 C152.29999999999927,223.456 152.79999999999927,223.654 153.20000000000073,224.05 C153.60000000000036,224.466 153.70000000000073,224.94 153.70000000000073,225.471 C153.70000000000073,226.034 153.60000000000036,226.539 153.20000000000073,226.987 C152.79999999999927,227.383 152.29999999999927,227.581 151.79999999999927,227.581 C151.20000000000073,227.581 150.70000000000073,227.383 150.20000000000073,226.987 C149.70000000000073,226.539 149.5,226.034 149.5,225.471 C149.5,224.128 150.0,222.982 150.89999999999964,222.034 C151.79999999999927,221.076 152.89999999999964,220.596 154.20000000000073,220.596" />
<path d="M156.89999999999964,178.221 C156.89999999999964,178.221 156.89999999999964,178.221 157.0,178.221 C157.0,178.211 157.10000000000036,178.206 157.10000000000036,178.206 C158.60000000000036,178.206 159.79999999999927,178.721 160.70000000000073,179.753 C161.60000000000036,180.763 162.10000000000036,181.945 162.10000000000036,183.3 C162.10000000000036,184.987 161.39999999999964,186.357 160.0,187.409 C159.70000000000073,187.701 159.20000000000073,187.935 158.60000000000036,188.112 C158.70000000000073,188.956 158.70000000000073,189.638 158.70000000000073,190.159 C158.70000000000073,190.263 158.70000000000073,190.643 158.70000000000073,191.3 C158.60000000000036,192.508 158.20000000000073,193.555 157.39999999999964,194.44 C156.70000000000073,195.315 155.70000000000073,195.753 154.60000000000036,195.753 C153.5,195.753 152.60000000000036,195.383 151.89999999999964,194.643 C151.20000000000073,193.883 150.79999999999927,192.971 150.79999999999927,191.909 C150.79999999999927,191.346 151.0,190.867 151.39999999999964,190.471 C151.89999999999964,190.086 152.39999999999964,189.893 153.0,189.893 C153.5,189.893 153.89999999999964,190.096 154.29999999999927,190.503 C154.60000000000036,190.878 154.79999999999927,191.346 154.79999999999927,191.909 C154.79999999999927,192.409 154.60000000000036,192.841 154.29999999999927,193.206 C153.89999999999964,193.57 153.5,193.753 153.0,193.753 C152.79999999999927,193.753 152.60000000000036,193.716 152.39999999999964,193.643 C152.89999999999964,194.487 153.70000000000073,194.909 154.70000000000073,194.909 C155.5,194.909 156.29999999999927,194.544 156.89999999999964,193.815 C157.5,193.065 157.79999999999927,192.185 157.79999999999927,191.175 C157.89999999999964,190.55 157.89999999999964,190.195 157.89999999999964,190.112 C157.89999999999964,189.383 157.79999999999927,188.784 157.79999999999927,188.315 C157.10000000000036,188.419 156.60000000000036,188.471 156.10000000000036,188.471 C154.20000000000073,188.471 152.70000000000073,187.753 151.39999999999964,186.315 C150.20000000000073,184.867 149.60000000000036,183.149 149.60000000000036,181.159 C149.60000000000036,180.742 149.60000000000036,180.32 149.70000000000073,179.893 C149.79999999999927,179.539 149.89999999999964,179.154 150.0,178.737 C150.0,178.497 150.20000000000073,178.117 150.5,177.596 C150.60000000000036,177.44 150.70000000000073,177.245 150.79999999999927,177.011 C151.0,176.776 151.10000000000036,176.622 151.10000000000036,176.55 C151.20000000000073,176.289 151.5,175.935 151.89999999999964,175.487 C152.0,175.372 152.10000000000036,175.245 152.20000000000073,175.104 C152.29999999999927,174.964 152.39999999999964,174.846 152.5,174.753 C152.60000000000036,174.659 152.60000000000036,174.586 152.70000000000073,174.534 C152.70000000000073,174.482 153.0,174.138 153.5,173.503 C153.70000000000073,173.367 153.79999999999927,173.227 153.89999999999964,173.081 C154.0,172.935 154.10000000000036,172.818 154.20000000000073,172.729 C154.29999999999927,172.641 154.39999999999964,172.581 154.39999999999964,172.55 C153.89999999999964,170.997 153.60000000000036,169.758 153.5,168.831 C153.39999999999964,168.091 153.39999999999964,167.076 153.39999999999964,165.784 C153.39999999999964,164.649 153.60000000000036,163.586 154.20000000000073,162.596 C154.70000000000073,161.576 155.39999999999964,160.737 156.29999999999927,160.081 C156.39999999999964,160.039 156.39999999999964,160.018 156.5,160.018 C156.60000000000036,160.018 156.60000000000036,160.039 156.70000000000073,160.081 C157.39999999999964,160.925 158.0,162.024 158.5,163.378 C159.0,164.732 159.29999999999927,165.966 159.29999999999927,167.081 C159.29999999999927,168.331 159.0,169.503 158.39999999999964,170.596 C157.70000000000073,171.753 156.79999999999927,172.951 155.79999999999927,174.19 C156.0,175.044 156.39999999999964,176.388 156.89999999999964,178.221 M158.5,187.315 C159.20000000000073,187.065 159.70000000000073,186.643 160.10000000000036,186.05 C160.5,185.477 160.70000000000073,184.831 160.70000000000073,184.112 C160.70000000000073,183.185 160.39999999999964,182.362 159.79999999999927,181.643 C159.10000000000036,180.904 158.29999999999927,180.487 157.29999999999927,180.393 C157.89999999999964,183.143 158.29999999999927,185.451 158.5,187.315 M151.0,182.8 C151.0,184.091 151.5,185.227 152.5,186.206 C153.60000000000036,187.154 154.79999999999927,187.628 156.10000000000036,187.628 C156.70000000000073,187.628 157.20000000000073,187.586 157.70000000000073,187.503 C157.5,185.524 157.10000000000036,183.154 156.5,180.393 C155.70000000000073,180.477 155.20000000000073,180.737 154.70000000000073,181.175 C154.29999999999927,181.633 154.10000000000036,182.149 154.10000000000036,182.721 C154.10000000000036,183.711 154.60000000000036,184.513 155.70000000000073,185.128 C155.70000000000073,185.221 155.79999999999927,185.32 155.79999999999927,185.425 C155.79999999999927,185.529 155.70000000000073,185.622 155.70000000000073,185.706 C155.60000000000036,185.8 155.5,185.846 155.39999999999964,185.846 C155.29999999999927,185.846 155.29999999999927,185.836 155.20000000000073,185.815 C154.39999999999964,185.409 153.89999999999964,184.888 153.5,184.253 C153.10000000000036,183.565 152.89999999999964,182.878 152.89999999999964,182.19 C152.89999999999964,181.294 153.20000000000073,180.482 153.70000000000073,179.753 C154.29999999999927,179.024 155.10000000000036,178.555 156.0,178.346 C155.60000000000036,176.888 155.39999999999964,175.747 155.10000000000036,174.925 C154.89999999999964,175.164 154.70000000000073,175.448 154.39999999999964,175.776 C154.10000000000036,176.104 153.89999999999964,176.305 153.89999999999964,176.378 C153.39999999999964,176.982 153.0,177.456 152.79999999999927,177.8 C152.29999999999927,178.414 152.0,178.94 151.79999999999927,179.378 C151.60000000000036,179.878 151.39999999999964,180.419 151.20000000000073,181.003 C151.0,181.565 151.0,182.164 151.0,182.8 M157.5,162.94 C156.5,163.419 155.70000000000073,164.107 155.20000000000073,165.003 C154.60000000000036,165.93 154.29999999999927,166.925 154.29999999999927,167.987 C154.29999999999927,168.925 154.60000000000036,170.19 155.0,171.784 C156.0,170.649 156.70000000000073,169.602 157.10000000000036,168.643 C157.60000000000036,167.622 157.89999999999964,166.56 157.89999999999964,165.456 C157.89999999999964,164.622 157.70000000000073,163.784 157.5,162.94 M155.29999999999927,198.581 C155.70000000000073,198.247 155.79999999999927,197.909 155.79999999999927,197.565 C155.79999999999927,197.294 155.70000000000073,197.086 155.5,196.94 C155.29999999999927,196.784 155.0,196.706 154.70000000000073,196.706 C154.39999999999964,196.706 154.29999999999927,196.779 154.10000000000036,196.925 C154.0,197.05 153.89999999999964,197.211 153.89999999999964,197.409 C153.89999999999964,197.649 154.0,197.826 154.20000000000073,197.94 L155.29999999999927,198.581 M155.70000000000073,198.753 C156.20000000000073,199.055 156.5,199.461 156.5,199.971 L156.5,200.034 C156.5,200.43 156.29999999999927,200.768 156.0,201.05 C155.70000000000073,201.331 155.20000000000073,201.471 154.60000000000036,201.471 C154.10000000000036,201.471 153.70000000000073,201.341 153.29999999999927,201.081 C152.89999999999964,200.831 152.79999999999927,200.492 152.79999999999927,200.065 C152.79999999999927,199.899 152.79999999999927,199.742 152.89999999999964,199.596 C153.0,199.43 153.10000000000036,199.315 153.20000000000073,199.253 L153.5,198.878 C153.10000000000036,198.607 152.89999999999964,198.247 152.89999999999964,197.8 C152.89999999999964,197.445 153.10000000000036,197.133 153.39999999999964,196.862 C153.70000000000073,196.602 154.10000000000036,196.471 154.70000000000073,196.471 C155.10000000000036,196.471 155.5,196.57 155.79999999999927,196.768 C156.10000000000036,196.966 156.29999999999927,197.232 156.29999999999927,197.565 C156.29999999999927,197.919 156.10000000000036,198.315 155.70000000000073,198.753 M153.79999999999927,199.05 C153.39999999999964,199.393 153.20000000000073,199.732 153.20000000000073,200.065 C153.20000000000073,200.419 153.39999999999964,200.701 153.60000000000036,200.909 C153.89999999999964,201.128 154.20000000000073,201.237 154.60000000000036,201.237 C154.89999999999964,201.237 155.10000000000036,201.154 155.20000000000073,200.987 C155.39999999999964,200.831 155.39999999999964,200.643 155.39999999999964,200.425 C155.39999999999964,200.133 155.29999999999927,199.925 155.10000000000036,199.8 L153.79999999999927,199.05" />
<path d="M154.79999999999927,139.409 C155.20000000000073,139.044 155.29999999999927,138.706 155.29999999999927,138.393 C155.29999999999927,138.102 155.20000000000073,137.883 155.0,137.737 C154.79999999999927,137.581 154.5,137.503 154.20000000000073,137.503 C153.89999999999964,137.503 153.79999999999927,137.576 153.60000000000036,137.721 C153.5,137.857 153.39999999999964,138.018 153.39999999999964,138.206 C153.39999999999964,138.445 153.5,138.622 153.70000000000073,138.737 L154.79999999999927,139.409 M155.10000000000036,139.565 C155.70000000000073,139.857 156.0,140.263 156.0,140.784 C156.0,140.784 156.0,140.805 156.0,140.846 C156.0,141.242 155.79999999999927,141.576 155.5,141.846 C155.10000000000036,142.128 154.70000000000073,142.268 154.10000000000036,142.268 C153.60000000000036,142.268 153.20000000000073,142.138 152.79999999999927,141.878 C152.39999999999964,141.638 152.20000000000073,141.31 152.20000000000073,140.893 C152.20000000000073,140.706 152.29999999999927,140.539 152.39999999999964,140.393 C152.5,140.227 152.60000000000036,140.112 152.60000000000036,140.05 C152.60000000000036,140.05 152.79999999999927,139.925 153.0,139.675 C152.60000000000036,139.404 152.39999999999964,139.055 152.39999999999964,138.628 C152.39999999999964,138.263 152.60000000000036,137.94 152.89999999999964,137.659 C153.20000000000073,137.399 153.60000000000036,137.268 154.20000000000073,137.268 C154.60000000000036,137.268 155.0,137.367 155.29999999999927,137.565 C155.60000000000036,137.763 155.79999999999927,138.039 155.79999999999927,138.393 C155.79999999999927,138.727 155.60000000000036,139.117 155.10000000000036,139.565 M153.29999999999927,139.846 C152.89999999999964,140.19 152.70000000000073,140.539 152.70000000000073,140.893 C152.70000000000073,141.227 152.79999999999927,141.497 153.10000000000036,141.706 C153.39999999999964,141.925 153.70000000000073,142.034 154.10000000000036,142.034 C154.39999999999964,142.034 154.60000000000036,141.951 154.70000000000073,141.784 C154.89999999999964,141.628 154.89999999999964,141.435 154.89999999999964,141.206 C154.89999999999964,140.925 154.79999999999927,140.721 154.60000000000036,140.596 L153.29999999999927,139.846 M160.89999999999964,119.065 C160.70000000000073,118.867 160.70000000000073,118.625 160.70000000000073,118.339 C160.70000000000073,118.052 160.70000000000073,117.813 160.89999999999964,117.62 C161.10000000000036,117.427 161.39999999999964,117.331 161.70000000000073,117.331 C161.89999999999964,117.331 162.20000000000073,117.427 162.39999999999964,117.62 C162.60000000000036,117.813 162.70000000000073,118.052 162.70000000000073,118.339 C162.70000000000073,118.625 162.60000000000036,118.867 162.39999999999964,119.065 C162.20000000000073,119.263 161.89999999999964,119.362 161.70000000000073,119.362 C161.39999999999964,119.362 161.10000000000036,119.263 160.89999999999964,119.065 M160.89999999999964,124.073 C160.70000000000073,123.88 160.70000000000073,123.641 160.70000000000073,123.354 C160.70000000000073,123.068 160.70000000000073,122.826 160.89999999999964,122.628 C161.10000000000036,122.43 161.39999999999964,122.331 161.70000000000073,122.331 C161.89999999999964,122.331 162.20000000000073,122.43 162.39999999999964,122.628 C162.60000000000036,122.826 162.70000000000073,123.068 162.70000000000073,123.354 C162.70000000000073,123.641 162.60000000000036,123.88 162.39999999999964,124.073 C162.20000000000073,124.266 161.89999999999964,124.362 161.70000000000073,124.362 C161.39999999999964,124.362 161.10000000000036,124.266 160.89999999999964,124.073 M154.20000000000073,115.596 C155.89999999999964,115.596 157.29999999999927,116.029 158.39999999999964,116.893 C159.5,117.81 160.0,119.05 160.0,120.612 C160.0,121.664 159.79999999999927,122.628 159.39999999999964,123.503 C159.0,124.419 158.5,125.227 157.89999999999964,125.925 C157.20000000000073,126.643 156.39999999999964,127.32 155.5,127.956 C154.60000000000036,128.581 153.70000000000073,129.143 152.70000000000073,129.643 C150.79999999999927,130.612 149.70000000000073,131.096 149.5,131.096 C149.29999999999927,131.096 149.29999999999927,131.013 149.29999999999927,130.846 C149.29999999999927,130.784 149.29999999999927,130.727 149.29999999999927,130.675 C150.0,130.279 150.79999999999927,129.779 151.79999999999927,129.175 C152.39999999999964,128.768 153.10000000000036,128.206 154.0,127.487 C154.79999999999927,126.81 155.39999999999964,126.175 155.79999999999927,125.581 C156.29999999999927,124.987 156.70000000000073,124.258 157.10000000000036,123.393 C157.39999999999964,122.518 157.60000000000036,121.654 157.60000000000036,120.8 C157.60000000000036,119.539 157.29999999999927,118.44 156.60000000000036,117.503 C156.0,116.565 155.20000000000073,116.096 154.20000000000073,116.096 C153.39999999999964,116.096 152.79999999999927,116.331 152.29999999999927,116.8 C151.70000000000073,117.279 151.29999999999927,117.883 151.10000000000036,118.612 C151.29999999999927,118.508 151.60000000000036,118.456 151.79999999999927,118.456 C152.29999999999927,118.456 152.79999999999927,118.654 153.20000000000073,119.05 C153.60000000000036,119.466 153.70000000000073,119.94 153.70000000000073,120.471 C153.70000000000073,121.034 153.60000000000036,121.539 153.20000000000073,121.987 C152.79999999999927,122.383 152.29999999999927,122.581 151.79999999999927,122.581 C151.20000000000073,122.581 150.70000000000073,122.383 150.20000000000073,121.987 C149.70000000000073,121.539 149.5,121.034 149.5,120.471 C149.5,119.128 150.0,117.982 150.89999999999964,117.034 C151.79999999999927,116.076 152.89999999999964,115.596 154.20000000000073,115.596" />
<path d="M156.89999999999964,73.2215 C156.89999999999964,73.2215 156.89999999999964,73.2215 157.0,73.2215 C157.0,73.211 157.10000000000036,73.2058 157.10000000000036,73.2058 C158.60000000000036,73.2058 159.79999999999927,73.7215 160.70000000000073,74.7527 C161.60000000000036,75.7631 162.10000000000036,76.9454 162.10000000000036,78.2996 C162.10000000000036,79.9871 161.39999999999964,81.3569 160.0,82.409 C159.70000000000073,82.7006 159.20000000000073,82.935 158.60000000000036,83.1121 C158.70000000000073,83.9558 158.70000000000073,84.6381 158.70000000000073,85.159 C158.70000000000073,85.2631 158.70000000000073,85.6433 158.70000000000073,86.2996 C158.60000000000036,87.5079 158.20000000000073,88.5548 157.39999999999964,89.4402 C156.70000000000073,90.3152 155.70000000000073,90.7527 154.60000000000036,90.7527 C153.5,90.7527 152.60000000000036,90.3829 151.89999999999964,89.6433 C151.20000000000073,88.8829 150.79999999999927,87.9715 150.79999999999927,86.909 C150.79999999999927,86.3465 151.0,85.8673 151.39999999999964,85.4715 C151.89999999999964,85.086 152.39999999999964,84.8933 153.0,84.8933 C153.5,84.8933 153.89999999999964,85.0965 154.29999999999927,85.5027 C154.60000000000036,85.8777 154.79999999999927,86.3465 154.79999999999927,86.909 C154.79999999999927,87.409 154.60000000000036,87.8412 154.29999999999927,88.2058 C153.89999999999964,88.5704 153.5,88.7527 153.0,88.7527 C152.79999999999927,88.7527 152.60000000000036,88.7162 152.39999999999964,88.6433 C152.89999999999964,89.4871 153.70000000000073,89.909 154.70000000000073,89.909 C155.5,89.909 156.29999999999927,89.5444 156.89999999999964,88.8152 C157.5,88.0652 157.79999999999927,87.185 157.79999999999927,86.1746 C157.89999999999964,85.5496 157.89999999999964,85.1954 157.89999999999964,85.1121 C157.89999999999964,84.3829 157.79999999999927,83.784 157.79999999999927,83.3152 C157.10000000000036,83.4194 156.60000000000036,83.4715 156.10000000000036,83.4715 C154.20000000000073,83.4715 152.70000000000073,82.7527 151.39999999999964,81.3152 C150.20000000000073,79.8673 149.60000000000036,78.1485 149.60000000000036,76.159 C149.60000000000036,75.7423 149.60000000000036,75.3204 149.70000000000073,74.8933 C149.79999999999927,74.5392 149.89999999999964,74.1537 150.0,73.7371 C150.0,73.4975 150.20000000000073,73.1173 150.5,72.5965 C150.60000000000036,72.4402 150.70000000000073,72.2449 150.79999999999927,72.0105 C151.0,71.7761 151.10000000000036,71.6225 151.10000000000036,71.5496 C151.20000000000073,71.2892 151.5,70.935 151.89999999999964,70.4871 C152.0,70.3725 152.10000000000036,70.2449 152.20000000000073,70.1043 C152.29999999999927,69.9636 152.39999999999964,69.8465 152.5,69.7527 C152.60000000000036,69.659 152.60000000000036,69.586 152.70000000000073,69.534 C152.70000000000073,69.4819 153.0,69.1381 153.5,68.5027 C153.70000000000073,68.3673 153.79999999999927,68.2267 153.89999999999964,68.0808 C154.0,67.935 154.10000000000036,67.8178 154.20000000000073,67.7293 C154.29999999999927,67.6407 154.39999999999964,67.5808 154.39999999999964,67.5496 C153.89999999999964,65.9975 153.60000000000036,64.7579 153.5,63.8308 C153.39999999999964,63.0912 153.39999999999964,62.0756 153.39999999999964,60.784 C153.39999999999964,59.6485 153.60000000000036,58.586 154.20000000000073,57.5965 C154.70000000000073,56.5756 155.39999999999964,55.7371 156.29999999999927,55.0808 C156.39999999999964,55.0392 156.39999999999964,55.0183 156.5,55.0183 C156.60000000000036,55.0183 156.60000000000036,55.0392 156.70000000000073,55.0808 C157.39999999999964,55.9246 158.0,57.0235 158.5,58.3777 C159.0,59.7319 159.29999999999927,60.9662 159.29999999999927,62.0808 C159.29999999999927,63.3308 159.0,64.5027 158.39999999999964,65.5965 C157.70000000000073,66.7527 156.79999999999927,67.9506 155.79999999999927,69.1902 C156.0,70.0444 156.39999999999964,71.3881 156.89999999999964,73.2215 M158.5,82.3152 C159.20000000000073,82.0652 159.70000000000073,81.6433 160.10000000000036,81.0496 C160.5,80.4767 160.70000000000073,79.8308 160.70000000000073,79.1121 C160.70000000000073,78.185 160.39999999999964,77.3621 159.79999999999927,76.6433 C159.10000000000036,75.9037 158.29999999999927,75.4871 157.29999999999927,75.3933 C157.89999999999964,78.1433 158.29999999999927,80.4506 158.5,82.3152 M151.0,77.7996 C151.0,79.0912 151.5,80.2267 152.5,81.2058 C153.60000000000036,82.1537 154.79999999999927,82.6277 156.10000000000036,82.6277 C156.70000000000073,82.6277 157.20000000000073,82.586 157.70000000000073,82.5027 C157.5,80.5235 157.10000000000036,78.1537 156.5,75.3933 C155.70000000000073,75.4767 155.20000000000073,75.7371 154.70000000000073,76.1746 C154.29999999999927,76.6329 154.10000000000036,77.1485 154.10000000000036,77.7215 C154.10000000000036,78.711 154.60000000000036,79.5131 155.70000000000073,80.1277 C155.70000000000073,80.2215 155.79999999999927,80.3204 155.79999999999927,80.4246 C155.79999999999927,80.5287 155.70000000000073,80.6225 155.70000000000073,80.7058 C155.60000000000036,80.7996 155.5,80.8465 155.39999999999964,80.8465 C155.29999999999927,80.8465 155.29999999999927,80.836 155.20000000000073,80.8152 C154.39999999999964,80.409 153.89999999999964,79.8881 153.5,79.2527 C153.10000000000036,78.5652 152.89999999999964,77.8777 152.89999999999964,77.1902 C152.89999999999964,76.2944 153.20000000000073,75.4819 153.70000000000073,74.7527 C154.29999999999927,74.0235 155.10000000000036,73.5548 156.0,73.3465 C155.60000000000036,71.8881 155.39999999999964,70.7475 155.10000000000036,69.9246 C154.89999999999964,70.1642 154.70000000000073,70.448 154.39999999999964,70.7761 C154.10000000000036,71.1043 153.89999999999964,71.3048 153.89999999999964,71.3777 C153.39999999999964,71.9819 153.0,72.4558 152.79999999999927,72.7996 C152.29999999999927,73.4142 152.0,73.9402 151.79999999999927,74.3777 C151.60000000000036,74.8777 151.39999999999964,75.4194 151.20000000000073,76.0027 C151.0,76.5652 151.0,77.1642 151.0,77.7996 M157.5,57.9402 C156.5,58.4194 155.70000000000073,59.1069 155.20000000000073,60.0027 C154.60000000000036,60.9298 154.29999999999927,61.9246 154.29999999999927,62.9871 C154.29999999999927,63.9246 154.60000000000036,65.1902 155.0,66.784 C156.0,65.6485 156.70000000000073,64.6017 157.10000000000036,63.6433 C157.60000000000036,62.6225 157.89999999999964,61.56 157.89999999999964,60.4558 C157.89999999999964,59.6225 157.70000000000073,58.784 157.5,57.9402 M155.29999999999927,93.5808 C155.70000000000073,93.2475 155.79999999999927,92.909 155.79999999999927,92.5652 C155.79999999999927,92.2944 155.70000000000073,92.086 155.5,91.9402 C155.29999999999927,91.784 155.0,91.7058 154.70000000000073,91.7058 C154.39999999999964,91.7058 154.29999999999927,91.7787 154.10000000000036,91.9246 C154.0,92.0496 153.89999999999964,92.211 153.89999999999964,92.409 C153.89999999999964,92.6485 154.0,92.8256 154.20000000000073,92.9402 L155.29999999999927,93.5808 M155.70000000000073,93.7527 C156.20000000000073,94.0548 156.5,94.461 156.5,94.9715 L156.5,95.034 C156.5,95.4298 156.29999999999927,95.7683 156.0,96.0496 C155.70000000000073,96.3308 155.20000000000073,96.4715 154.60000000000036,96.4715 C154.10000000000036,96.4715 153.70000000000073,96.3412 153.29999999999927,96.0808 C152.89999999999964,95.8308 152.79999999999927,95.4923 152.79999999999927,95.0652 C152.79999999999927,94.8985 152.79999999999927,94.7423 152.89999999999964,94.5965 C153.0,94.4298 153.10000000000036,94.3152 153.20000000000073,94.2527 L153.5,93.8777 C153.10000000000036,93.6069 152.89999999999964,93.2475 152.89999999999964,92.7996 C152.89999999999964,92.4454 153.10000000000036,92.1329 153.39999999999964,91.8621 C153.70000000000073,91.6017 154.10000000000036,91.4715 154.70000000000073,91.4715 C155.10000000000036,91.4715 155.5,91.5704 155.79999999999927,91.7683 C156.10000000000036,91.9662 156.29999999999927,92.2319 156.29999999999927,92.5652 C156.29999999999927,92.9194 156.10000000000036,93.3152 155.70000000000073,93.7527 M153.79999999999927,94.0496 C153.39999999999964,94.3933 153.20000000000073,94.7319 153.20000000000073,95.0652 C153.20000000000073,95.4194 153.39999999999964,95.7006 153.60000000000036,95.909 C153.89999999999964,96.1277 154.20000000000073,96.2371 154.60000000000036,96.2371 C154.89999999999964,96.2371 155.10000000000036,96.1537 155.20000000000073,95.9871 C155.39999999999964,95.8308 155.39999999999964,95.6433 155.39999999999964,95.4246 C155.39999999999964,95.1329 155.29999999999927,94.9246 155.10000000000036,94.7996 L153.79999999999927,94.0496" />
<path d="M173.39999999999964,174.237 C173.79999999999927,174.237 174.10000000000036,174.341 174.29999999999927,174.55 C174.5,174.789 174.60000000000036,175.013 174.60000000000036,175.221 C174.60000000000036,175.419 174.70000000000073,175.638 174.79999999999927,175.878 C174.89999999999964,176.086 175.0,176.19 175.20000000000073,176.19 C175.39999999999964,176.19 175.60000000000036,176.029 175.89999999999964,175.706 C176.10000000000036,175.425 176.29999999999927,175.169 176.39999999999964,174.94 C176.5,174.815 176.60000000000036,174.753 176.70000000000073,174.753 L176.70000000000073,174.753 C176.89999999999964,174.763 176.89999999999964,174.826 177.0,174.94 L174.5,183.346 C174.39999999999964,183.482 174.20000000000073,183.55 174.0,183.55 C173.79999999999927,183.55 173.60000000000036,183.482 173.39999999999964,183.346 L175.79999999999927,176.815 C175.0,177.117 174.29999999999927,177.268 173.70000000000073,177.268 C173.20000000000073,177.268 172.79999999999927,177.117 172.5,176.815 C172.10000000000036,176.534 171.89999999999964,176.159 171.89999999999964,175.69 C171.89999999999964,175.284 172.10000000000036,174.945 172.39999999999964,174.675 C172.70000000000073,174.383 173.0,174.237 173.39999999999964,174.237" />
<path d="M173.39999999999964,121.737 C173.79999999999927,121.737 174.10000000000036,121.841 174.29999999999927,122.05 C174.5,122.289 174.60000000000036,122.513 174.60000000000036,122.721 C174.60000000000036,122.919 174.70000000000073,123.138 174.79999999999927,123.378 C174.89999999999964,123.586 175.0,123.69 175.20000000000073,123.69 C175.39999999999964,123.69 175.60000000000036,123.529 175.89999999999964,123.206 C176.10000000000036,122.925 176.29999999999927,122.669 176.39999999999964,122.44 C176.5,122.315 176.60000000000036,122.253 176.70000000000073,122.253 L176.70000000000073,122.253 C176.89999999999964,122.263 176.89999999999964,122.326 177.0,122.44 L174.5,130.846 C174.39999999999964,130.982 174.20000000000073,131.05 174.0,131.05 C173.79999999999927,131.05 173.60000000000036,130.982 173.39999999999964,130.846 L175.79999999999927,124.315 C175.0,124.617 174.29999999999927,124.768 173.70000000000073,124.768 C173.20000000000073,124.768 172.79999999999927,124.617 172.5,124.315 C172.10000000000036,124.034 171.89999999999964,123.659 171.89999999999964,123.19 C171.89999999999964,122.784 172.10000000000036,122.445 172.39999999999964,122.175 C172.70000000000073,121.883 173.0,121.737 173.39999999999964,121.737" />
<path d="M173.39999999999964,69.2371 C173.79999999999927,69.2371 174.10000000000036,69.3412 174.29999999999927,69.5496 C174.5,69.7892 174.60000000000036,70.0131 174.60000000000036,70.2215 C174.60000000000036,70.4194 174.70000000000073,70.6381 174.79999999999927,70.8777 C174.89999999999964,71.086 175.0,71.1902 175.20000000000073,71.1902 C175.39999999999964,71.1902 175.60000000000036,71.0287 175.89999999999964,70.7058 C176.10000000000036,70.4246 176.29999999999927,70.1694 176.39999999999964,69.9402 C176.5,69.8152 176.60000000000036,69.7527 176.70000000000073,69.7527 L176.70000000000073,69.7527 C176.89999999999964,69.7631 176.89999999999964,69.8256 177.0,69.9402 L174.5,78.3465 C174.39999999999964,78.4819 174.20000000000073,78.5496 174.0,78.5496 C173.79999999999927,78.5496 173.60000000000036,78.4819 173.39999999999964,78.3465 L175.79999999999927,71.8152 C175.0,72.1173 174.29999999999927,72.2683 173.70000000000073,72.2683 C173.20000000000073,72.2683 172.79999999999927,72.1173 172.5,71.8152 C172.10000000000036,71.534 171.89999999999964,71.159 171.89999999999964,70.6902 C171.89999999999964,70.284 172.10000000000036,69.9454 172.39999999999964,69.6746 C172.70000000000073,69.3829 173.0,69.2371 173.39999999999964,69.2371" />
<path d="M224.39999999999964,123.346 L257.89999999999964,123.346 L257.89999999999964,125.846 L224.39999999999964,125.846 L224.39999999999964,123.346" />
<path d="M224.39999999999964,119.596 L257.89999999999964,119.596 L257.89999999999964,122.096 L224.39999999999964,122.096 L224.39999999999964,119.596" />
<path d="M224.39999999999964,70.8465 L257.89999999999964,70.8465 L257.89999999999964,73.3465 L224.39999999999964,73.3465 L224.39999999999964,70.8465" />
<path d="M224.39999999999964,67.0965 L257.89999999999964,67.0965 L257.89999999999964,69.5965 L224.39999999999964,69.5965 L224.39999999999964,67.0965" />
<path d="M230.39999999999964,162.096 L230.39999999999964,157.096 L231.0,157.096 C231.0,157.836 231.10000000000036,158.581 231.39999999999964,159.331 C231.70000000000073,160.133 232.10000000000036,160.836 232.5,161.44 C232.70000000000073,161.867 233.10000000000036,162.524 233.70000000000073,163.409 C234.10000000000036,164.086 234.5,164.794 234.79999999999927,165.534 C235.0,166.274 235.20000000000073,167.018 235.20000000000073,167.768 C235.20000000000073,169.122 234.89999999999964,170.503 234.29999999999927,171.909 C234.20000000000073,172.065 234.10000000000036,172.143 234.0,172.143 C233.79999999999927,172.143 233.70000000000073,172.091 233.60000000000036,171.987 C233.5,171.904 233.5,171.805 233.5,171.69 L233.5,171.596 C234.10000000000036,170.305 234.29999999999927,169.029 234.29999999999927,167.768 C234.29999999999927,167.112 234.10000000000036,166.409 233.70000000000073,165.659 C233.39999999999964,164.888 233.0,164.274 232.60000000000036,163.815 C232.10000000000036,163.284 231.60000000000036,162.711 231.0,162.096 L230.39999999999964,162.096" />
<path d="M255.0,99.2058 C254.89999999999964,99.2058 254.89999999999964,99.1746 254.79999999999927,99.1121 C254.70000000000073,99.0496 254.70000000000073,98.9819 254.60000000000036,98.909 C254.60000000000036,98.836 254.60000000000036,98.7683 254.5,98.7058 C254.39999999999964,98.6433 254.29999999999927,98.6121 254.20000000000073,98.6121 C253.89999999999964,98.6121 253.79999999999927,98.8465 253.79999999999927,99.3152 L253.79999999999927,100.253 L254.79999999999927,100.253 L254.79999999999927,100.487 L253.79999999999927,100.487 L253.79999999999927,103.018 C253.79999999999927,103.31 253.79999999999927,103.497 253.89999999999964,103.581 C254.0,103.664 254.20000000000073,103.711 254.5,103.721 L254.5,103.846 L252.39999999999964,103.846 L252.39999999999964,103.721 C252.70000000000073,103.711 252.89999999999964,103.664 253.0,103.581 C253.10000000000036,103.497 253.10000000000036,103.31 253.10000000000036,103.018 L253.10000000000036,100.487 L252.5,100.487 L252.5,100.253 L253.10000000000036,100.253 C253.10000000000036,99.6485 253.20000000000073,99.1824 253.39999999999964,98.8543 C253.70000000000073,98.5261 254.0,98.3621 254.5,98.3621 C254.79999999999927,98.3621 255.0,98.4116 255.10000000000036,98.5105 C255.29999999999927,98.6095 255.29999999999927,98.7319 255.29999999999927,98.8777 C255.29999999999927,98.9715 255.29999999999927,99.0496 255.20000000000073,99.1121 C255.20000000000073,99.1746 255.10000000000036,99.2058 255.0,99.2058 M259.2000000000007,103.425 L259.2000000000007,103.55 C258.7999999999993,103.664 258.39999999999964,103.789 258.10000000000036,103.925 L258.0,103.909 L258.0,103.221 C258.0,103.242 258.0,103.292 257.89999999999964,103.37 C257.7999999999993,103.448 257.7999999999993,103.503 257.7000000000007,103.534 C257.7000000000007,103.565 257.60000000000036,103.612 257.60000000000036,103.675 C257.5,103.737 257.39999999999964,103.781 257.39999999999964,103.807 C257.2999999999993,103.833 257.2000000000007,103.859 257.10000000000036,103.886 C257.10000000000036,103.912 257.0,103.925 256.89999999999964,103.925 C256.60000000000036,103.925 256.2999999999993,103.828 256.2000000000007,103.636 C256.0,103.443 255.89999999999964,103.19 255.89999999999964,102.878 L255.89999999999964,100.862 C255.89999999999964,100.685 255.89999999999964,100.56 255.79999999999927,100.487 C255.70000000000073,100.414 255.60000000000036,100.372 255.39999999999964,100.362 L255.39999999999964,100.253 L256.60000000000036,100.253 L256.60000000000036,102.846 C256.60000000000036,103.003 256.60000000000036,103.141 256.7000000000007,103.261 C256.89999999999964,103.38 257.0,103.44 257.10000000000036,103.44 C257.2000000000007,103.44 257.2999999999993,103.432 257.39999999999964,103.417 C257.39999999999964,103.401 257.5,103.372 257.60000000000036,103.331 C257.7000000000007,103.289 257.7999999999993,103.219 257.89999999999964,103.12 C258.0,103.021 258.0,102.899 258.0,102.753 L258.0,100.878 C258.0,100.69 258.0,100.563 257.89999999999964,100.495 C257.7999999999993,100.427 257.7000000000007,100.388 257.39999999999964,100.378 L257.39999999999964,100.253 L258.7000000000007,100.253 L258.7000000000007,102.971 C258.7000000000007,103.159 258.7000000000007,103.281 258.7999999999993,103.339 C258.7999999999993,103.396 259.0,103.425 259.10000000000036,103.425 L259.2000000000007,103.425 M259.2999999999993,98.8621 L259.2999999999993,98.7371 C259.7999999999993,98.6121 260.2999999999993,98.4923 260.60000000000036,98.3777 L260.60000000000036,98.409 L260.60000000000036,103.175 C260.60000000000036,103.393 260.7000000000007,103.537 260.7000000000007,103.604 C260.7999999999993,103.672 261.0,103.711 261.2000000000007,103.721 L261.2000000000007,103.846 L259.2999999999993,103.846 L259.2999999999993,103.721 C259.60000000000036,103.701 259.7000000000007,103.654 259.7999999999993,103.581 C259.89999999999964,103.508 260.0,103.362 260.0,103.143 L260.0,99.3308 C260.0,99.1433 259.89999999999964,99.0157 259.89999999999964,98.948 C259.7999999999993,98.8803 259.7000000000007,98.8465 259.60000000000036,98.8465 C259.5,98.8465 259.39999999999964,98.8517 259.2999999999993,98.8621 M261.39999999999964,98.8621 L261.39999999999964,98.7371 C261.89999999999964,98.6121 262.2999999999993,98.4923 262.7000000000007,98.3777 L262.7000000000007,98.409 L262.7000000000007,103.175 C262.7000000000007,103.393 262.7000000000007,103.537 262.7999999999993,103.604 C262.89999999999964,103.672 263.0,103.711 263.2999999999993,103.721 L263.2999999999993,103.846 L261.39999999999964,103.846 L261.39999999999964,103.721 C261.60000000000036,103.701 261.7999999999993,103.654 261.89999999999964,103.581 C262.0,103.508 262.0,103.362 262.0,103.143 L262.0,99.3308 C262.0,99.1433 262.0,99.0157 261.89999999999964,98.948 C261.89999999999964,98.8803 261.7999999999993,98.8465 261.7000000000007,98.8465 C261.60000000000036,98.8465 261.5,98.8517 261.39999999999964,98.8621" />
<path d="M255.0,46.7058 C254.89999999999964,46.7058 254.89999999999964,46.6746 254.79999999999927,46.6121 C254.70000000000073,46.5496 254.70000000000073,46.4819 254.60000000000036,46.409 C254.60000000000036,46.336 254.60000000000036,46.2683 254.5,46.2058 C254.39999999999964,46.1433 254.29999999999927,46.1121 254.20000000000073,46.1121 C253.89999999999964,46.1121 253.79999999999927,46.3465 253.79999999999927,46.8152 L253.79999999999927,47.7527 L254.79999999999927,47.7527 L254.79999999999927,47.9871 L253.79999999999927,47.9871 L253.79999999999927,50.5183 C253.79999999999927,50.81 253.79999999999927,50.9975 253.89999999999964,51.0808 C254.0,51.1642 254.20000000000073,51.211 254.5,51.2215 L254.5,51.3465 L252.39999999999964,51.3465 L252.39999999999964,51.2215 C252.70000000000073,51.211 252.89999999999964,51.1642 253.0,51.0808 C253.10000000000036,50.9975 253.10000000000036,50.81 253.10000000000036,50.5183 L253.10000000000036,47.9871 L252.5,47.9871 L252.5,47.7527 L253.10000000000036,47.7527 C253.10000000000036,47.1485 253.20000000000073,46.6824 253.39999999999964,46.3543 C253.70000000000073,46.0261 254.0,45.8621 254.5,45.8621 C254.79999999999927,45.8621 255.0,45.9116 255.10000000000036,46.0105 C255.29999999999927,46.1095 255.29999999999927,46.2319 255.29999999999927,46.3777 C255.29999999999927,46.4715 255.29999999999927,46.5496 255.20000000000073,46.6121 C255.20000000000073,46.6746 255.10000000000036,46.7058 255.0,46.7058 M259.2000000000007,50.9246 L259.2000000000007,51.0496 C258.7999999999993,51.1642 258.39999999999964,51.2892 258.10000000000036,51.4246 L258.0,51.409 L258.0,50.7215 C258.0,50.7423 258.0,50.7918 257.89999999999964,50.8699 C257.7999999999993,50.948 257.7999999999993,51.0027 257.7000000000007,51.034 C257.7000000000007,51.0652 257.60000000000036,51.1121 257.60000000000036,51.1746 C257.5,51.2371 257.39999999999964,51.2814 257.39999999999964,51.3074 C257.2999999999993,51.3334 257.2000000000007,51.3595 257.10000000000036,51.3855 C257.10000000000036,51.4116 257.0,51.4246 256.89999999999964,51.4246 C256.60000000000036,51.4246 256.2999999999993,51.3282 256.2000000000007,51.1355 C256.0,50.9428 255.89999999999964,50.6902 255.89999999999964,50.3777 L255.89999999999964,48.3621 C255.89999999999964,48.185 255.89999999999964,48.06 255.79999999999927,47.9871 C255.70000000000073,47.9142 255.60000000000036,47.8725 255.39999999999964,47.8621 L255.39999999999964,47.7527 L256.60000000000036,47.7527 L256.60000000000036,50.3465 C256.60000000000036,50.5027 256.60000000000036,50.6407 256.7000000000007,50.7605 C256.89999999999964,50.8803 257.0,50.9402 257.10000000000036,50.9402 C257.2000000000007,50.9402 257.2999999999993,50.9324 257.39999999999964,50.9168 C257.39999999999964,50.9011 257.5,50.8725 257.60000000000036,50.8308 C257.7000000000007,50.7892 257.7999999999993,50.7189 257.89999999999964,50.6199 C258.0,50.5209 258.0,50.3985 258.0,50.2527 L258.0,48.3777 C258.0,48.1902 258.0,48.0626 257.89999999999964,47.9949 C257.7999999999993,47.9272 257.7000000000007,47.8881 257.39999999999964,47.8777 L257.39999999999964,47.7527 L258.7000000000007,47.7527 L258.7000000000007,50.4715 C258.7000000000007,50.659 258.7000000000007,50.7814 258.7999999999993,50.8386 C258.7999999999993,50.8959 259.0,50.9246 259.10000000000036,50.9246 L259.2000000000007,50.9246 M259.2999999999993,46.3621 L259.2999999999993,46.2371 C259.7999999999993,46.1121 260.2999999999993,45.9923 260.60000000000036,45.8777 L260.60000000000036,45.909 L260.60000000000036,50.6746 C260.60000000000036,50.8933 260.7000000000007,51.0366 260.7000000000007,51.1043 C260.7999999999993,51.172 261.0,51.211 261.2000000000007,51.2215 L261.2000000000007,51.3465 L259.2999999999993,51.3465 L259.2999999999993,51.2215 C259.60000000000036,51.2006 259.7000000000007,51.1537 259.7999999999993,51.0808 C259.89999999999964,51.0079 260.0,50.8621 260.0,50.6433 L260.0,46.8308 C260.0,46.6433 259.89999999999964,46.5157 259.89999999999964,46.448 C259.7999999999993,46.3803 259.7000000000007,46.3465 259.60000000000036,46.3465 C259.5,46.3465 259.39999999999964,46.3517 259.2999999999993,46.3621 M261.39999999999964,46.3621 L261.39999999999964,46.2371 C261.89999999999964,46.1121 262.2999999999993,45.9923 262.7000000000007,45.8777 L262.7000000000007,45.909 L262.7000000000007,50.6746 C262.7000000000007,50.8933 262.7000000000007,51.0366 262.7999999999993,51.1043 C262.89999999999964,51.172 263.0,51.211 263.2999999999993,51.2215 L263.2999999999993,51.3465 L261.39999999999964,51.3465 L261.39999999999964,51.2215 C261.60000000000036,51.2006 261.7999999999993,51.1537 261.89999999999964,51.0808 C262.0,51.0079 262.0,50.8621 262.0,50.6433 L262.0,46.8308 C262.0,46.6433 262.0,46.5157 261.89999999999964,46.448 C261.89999999999964,46.3803 261.7999999999993,46.3465 261.7000000000007,46.3465 C261.60000000000036,46.3465 261.5,46.3517 261.39999999999964,46.3621" />
<path d="M225.10000000000036,74.3465 C226.29999999999927,74.3465 227.60000000000036,82.2215 227.60000000000036,105.846" />
<path d="M227.60000000000036,105.846 L228.79999999999927,108.346 L226.29999999999927,108.346 L227.60000000000036,105.846" />
<path d="M224.70000000000073,99.2058 C224.70000000000073,99.2058 224.60000000000036,99.1746 224.5,99.1121 C224.5,99.0496 224.39999999999964,98.9819 224.39999999999964,98.909 C224.29999999999927,98.836 224.29999999999927,98.7683 224.20000000000073,98.7058 C224.10000000000036,98.6433 224.10000000000036,98.6121 224.0,98.6121 C223.70000000000073,98.6121 223.5,98.8465 223.5,99.3152 L223.5,100.253 L224.5,100.253 L224.5,100.487 L223.5,100.487 L223.5,103.018 C223.5,103.31 223.5,103.497 223.60000000000036,103.581 C223.70000000000073,103.664 223.89999999999964,103.711 224.29999999999927,103.721 L224.29999999999927,103.846 L222.20000000000073,103.846 L222.20000000000073,103.721 C222.5,103.711 222.60000000000036,103.664 222.70000000000073,103.581 C222.79999999999927,103.497 222.79999999999927,103.31 222.79999999999927,103.018 L222.79999999999927,100.487 L222.20000000000073,100.487 L222.20000000000073,100.253 L222.79999999999927,100.253 C222.79999999999927,99.6485 223.0,99.1824 223.20000000000073,98.8543 C223.39999999999964,98.5261 223.70000000000073,98.3621 224.20000000000073,98.3621 C224.5,98.3621 224.70000000000073,98.4116 224.79999999999927,98.5105 C225.0,98.6095 225.10000000000036,98.7319 225.10000000000036,98.8777 C225.10000000000036,98.9715 225.0,99.0496 225.0,99.1121 C224.89999999999964,99.1746 224.79999999999927,99.2058 224.70000000000073,99.2058 M228.89999999999964,103.425 L228.89999999999964,103.55 C228.5,103.664 228.10000000000036,103.789 227.79999999999927,103.925 L227.79999999999927,103.909 L227.79999999999927,103.221 C227.70000000000073,103.242 227.70000000000073,103.292 227.60000000000036,103.37 C227.5,103.448 227.5,103.503 227.5,103.534 C227.39999999999964,103.565 227.39999999999964,103.612 227.29999999999927,103.675 C227.20000000000073,103.737 227.10000000000036,103.781 227.10000000000036,103.807 C227.0,103.833 227.0,103.859 226.89999999999964,103.886 C226.79999999999927,103.912 226.70000000000073,103.925 226.60000000000036,103.925 C226.29999999999927,103.925 226.10000000000036,103.828 225.89999999999964,103.636 C225.70000000000073,103.443 225.60000000000036,103.19 225.60000000000036,102.878 L225.60000000000036,100.862 C225.60000000000036,100.685 225.60000000000036,100.56 225.5,100.487 C225.5,100.414 225.29999999999927,100.372 225.10000000000036,100.362 L225.10000000000036,100.253 L226.29999999999927,100.253 L226.29999999999927,102.846 C226.29999999999927,103.003 226.39999999999964,103.141 226.5,103.261 C226.60000000000036,103.38 226.70000000000073,103.44 226.89999999999964,103.44 C226.89999999999964,103.44 227.0,103.432 227.10000000000036,103.417 C227.20000000000073,103.401 227.20000000000073,103.372 227.29999999999927,103.331 C227.5,103.289 227.5,103.219 227.60000000000036,103.12 C227.70000000000073,103.021 227.70000000000073,102.899 227.70000000000073,102.753 L227.70000000000073,100.878 C227.70000000000073,100.69 227.70000000000073,100.563 227.60000000000036,100.495 C227.5,100.427 227.39999999999964,100.388 227.10000000000036,100.378 L227.10000000000036,100.253 L228.39999999999964,100.253 L228.39999999999964,102.971 C228.39999999999964,103.159 228.39999999999964,103.281 228.5,103.339 C228.60000000000036,103.396 228.70000000000073,103.425 228.89999999999964,103.425 L228.89999999999964,103.425 M229.0,98.8621 L229.0,98.7371 C229.60000000000036,98.6121 230.0,98.4923 230.29999999999927,98.3777 L230.29999999999927,98.409 L230.29999999999927,103.175 C230.29999999999927,103.393 230.39999999999964,103.537 230.5,103.604 C230.5,103.672 230.70000000000073,103.711 230.89999999999964,103.721 L230.89999999999964,103.846 L229.10000000000036,103.846 L229.10000000000036,103.721 C229.29999999999927,103.701 229.5,103.654 229.60000000000036,103.581 C229.60000000000036,103.508 229.70000000000073,103.362 229.70000000000073,103.143 L229.70000000000073,99.3308 C229.70000000000073,99.1433 229.70000000000073,99.0157 229.60000000000036,98.948 C229.5,98.8803 229.5,98.8465 229.29999999999927,98.8465 C229.20000000000073,98.8465 229.10000000000036,98.8517 229.0,98.8621 M231.10000000000036,98.8621 L231.10000000000036,98.7371 C231.60000000000036,98.6121 232.10000000000036,98.4923 232.39999999999964,98.3777 L232.39999999999964,98.409 L232.39999999999964,103.175 C232.39999999999964,103.393 232.39999999999964,103.537 232.5,103.604 C232.60000000000036,103.672 232.79999999999927,103.711 233.0,103.721 L233.0,103.846 L231.10000000000036,103.846 L231.10000000000036,103.721 C231.39999999999964,103.701 231.5,103.654 231.60000000000036,103.581 C231.70000000000073,103.508 231.70000000000073,103.362 231.70000000000073,103.143 L231.70000000000073,99.3308 C231.70000000000073,99.1433 231.70000000000073,99.0157 231.70000000000073,98.948 C231.60000000000036,98.8803 231.5,98.8465 231.39999999999964,98.8465 C231.29999999999927,98.8465 231.20000000000073,98.8517 231.10000000000036,98.8621" />
<path d="M225.10000000000036,51.8465 C226.29999999999927,51.8465 227.60000000000036,52.2215 227.60000000000036,53.3465" />
<path d="M227.60000000000036,53.3465 L228.79999999999927,55.8465 L226.29999999999927,55.8465 L227.60000000000036,53.3465" />
<path d="M224.70000000000073,46.7058 C224.70000000000073,46.7058 224.60000000000036,46.6746 224.5,46.6121 C224.5,46.5496 224.39999999999964,46.4819 224.39999999999964,46.409 C224.29999999999927,46.336 224.29999999999927,46.2683 224.20000000000073,46.2058 C224.10000000000036,46.1433 224.10000000000036,46.1121 224.0,46.1121 C223.70000000000073,46.1121 223.5,46.3465 223.5,46.8152 L223.5,47.7527 L224.5,47.7527 L224.5,47.9871 L223.5,47.9871 L223.5,50.5183 C223.5,50.81 223.5,50.9975 223.60000000000036,51.0808 C223.70000000000073,51.1642 223.89999999999964,51.211 224.29999999999927,51.2215 L224.29999999999927,51.3465 L222.20000000000073,51.3465 L222.20000000000073,51.2215 C222.5,51.211 222.60000000000036,51.1642 222.70000000000073,51.0808 C222.79999999999927,50.9975 222.79999999999927,50.81 222.79999999999927,50.5183 L222.79999999999927,47.9871 L222.20000000000073,47.9871 L222.20000000000073,47.7527 L222.79999999999927,47.7527 C222.79999999999927,47.1485 223.0,46.6824 223.20000000000073,46.3543 C223.39999999999964,46.0261 223.70000000000073,45.8621 224.20000000000073,45.8621 C224.5,45.8621 224.70000000000073,45.9116 224.79999999999927,46.0105 C225.0,46.1095 225.10000000000036,46.2319 225.10000000000036,46.3777 C225.10000000000036,46.4715 225.0,46.5496 225.0,46.6121 C224.89999999999964,46.6746 224.79999999999927,46.7058 224.70000000000073,46.7058 M228.89999999999964,50.9246 L228.89999999999964,51.0496 C228.5,51.1642 228.10000000000036,51.2892 227.79999999999927,51.4246 L227.79999999999927,51.409 L227.79999999999927,50.7215 C227.70000000000073,50.7423 227.70000000000073,50.7918 227.60000000000036,50.8699 C227.5,50.948 227.5,51.0027 227.5,51.034 C227.39999999999964,51.0652 227.39999999999964,51.1121 227.29999999999927,51.1746 C227.20000000000073,51.2371 227.10000000000036,51.2814 227.10000000000036,51.3074 C227.0,51.3334 227.0,51.3595 226.89999999999964,51.3855 C226.79999999999927,51.4116 226.70000000000073,51.4246 226.60000000000036,51.4246 C226.29999999999927,51.4246 226.10000000000036,51.3282 225.89999999999964,51.1355 C225.70000000000073,50.9428 225.60000000000036,50.6902 225.60000000000036,50.3777 L225.60000000000036,48.3621 C225.60000000000036,48.185 225.60000000000036,48.06 225.5,47.9871 C225.5,47.9142 225.29999999999927,47.8725 225.10000000000036,47.8621 L225.10000000000036,47.7527 L226.29999999999927,47.7527 L226.29999999999927,50.3465 C226.29999999999927,50.5027 226.39999999999964,50.6407 226.5,50.7605 C226.60000000000036,50.8803 226.70000000000073,50.9402 226.89999999999964,50.9402 C226.89999999999964,50.9402 227.0,50.9324 227.10000000000036,50.9168 C227.20000000000073,50.9011 227.20000000000073,50.8725 227.29999999999927,50.8308 C227.5,50.7892 227.5,50.7189 227.60000000000036,50.6199 C227.70000000000073,50.5209 227.70000000000073,50.3985 227.70000000000073,50.2527 L227.70000000000073,48.3777 C227.70000000000073,48.1902 227.70000000000073,48.0626 227.60000000000036,47.9949 C227.5,47.9272 227.39999999999964,47.8881 227.10000000000036,47.8777 L227.10000000000036,47.7527 L228.39999999999964,47.7527 L228.39999999999964,50.4715 C228.39999999999964,50.659 228.39999999999964,50.7814 228.5,50.8386 C228.60000000000036,50.8959 228.70000000000073,50.9246 228.89999999999964,50.9246 L228.89999999999964,50.9246 M229.0,46.3621 L229.0,46.2371 C229.60000000000036,46.1121 230.0,45.9923 230.29999999999927,45.8777 L230.29999999999927,45.909 L230.29999999999927,50.6746 C230.29999999999927,50.8933 230.39999999999964,51.0366 230.5,51.1043 C230.5,51.172 230.70000000000073,51.211 230.89999999999964,51.2215 L230.89999999999964,51.3465 L229.10000000000036,51.3465 L229.10000000000036,51.2215 C229.29999999999927,51.2006 229.5,51.1537 229.60000000000036,51.0808 C229.60000000000036,51.0079 229.70000000000073,50.8621 229.70000000000073,50.6433 L229.70000000000073,46.8308 C229.70000000000073,46.6433 229.70000000000073,46.5157 229.60000000000036,46.448 C229.5,46.3803 229.5,46.3465 229.29999999999927,46.3465 C229.20000000000073,46.3465 229.10000000000036,46.3517 229.0,46.3621 M231.10000000000036,46.3621 L231.10000000000036,46.2371 C231.60000000000036,46.1121 232.10000000000036,45.9923 232.39999999999964,45.8777 L232.39999999999964,45.909 L232.39999999999964,50.6746 C232.39999999999964,50.8933 232.39999999999964,51.0366 232.5,51.1043 C232.60000000000036,51.172 232.79999999999927,51.211 233.0,51.2215 L233.0,51.3465 L231.10000000000036,51.3465 L231.10000000000036,51.2215 C231.39999999999964,51.2006 231.5,51.1537 231.60000000000036,51.0808 C231.70000000000073,51.0079 231.70000000000073,50.8621 231.70000000000073,50.6433 L231.70000000000073,46.8308 C231.70000000000073,46.6433 231.70000000000073,46.5157 231.70000000000073,46.448 C231.60000000000036,46.3803 231.5,46.3465 231.39999999999964,46.3465 C231.29999999999927,46.3465 231.20000000000073,46.3517 231.10000000000036,46.3621" />
<polyline points="0.0,63.3465 88.79999999999927,63.3465" fill="none" stroke="#000000" stroke-width="0.40" />
<polyline points="0.0,68.3465 88.79999999999927,68.3465" fill="none" stroke="#000000" stroke-width="0.40" />
<polyline points="0.0,73.3465 88.79999999999927,73.3465" fill="none" stroke="#000000" stroke-width="0.40" />
<polyline points="0.0,78.3465 88.79999999999927,78.3465" fill="none" stroke="#000000" stroke-width="0.40" />
<polyline points="0.0,83.3465 88.79999999999927,83.3465" fill="none" stroke="#000000" stroke-width="0.40" />
<polyline points="0.0,115.846 88.79999999999927,115.846" fill="none" stroke="#000000" stroke-width="0.40" />
<polyline points="0.0,120.846 88.79999999999927,120.846" fill="none" stroke="#000000" stroke-width="0.40" />
<polyline points="0.0,125.846 88.79999999999927,125.846" fill="none" stroke="#000000" stroke-width="0.40" />
<polyline points="0.0,130.846 88.79999999999927,130.846" fill="none" stroke="#000000" stroke-width="0.40" />
<polyline points="0.0,135.846 88.79999999999927,135.846" fill="none" stroke="#000000" stroke-width="0.40" />
<polyline points="0.0,168.346 88.79999999999927,168.346" fill="none" stroke="#000000" stroke-width="0.40" />
<polyline points="0.0,173.346 88.79999999999927,173.346" fill="none" stroke="#000000" stroke-width="0.40" />
<polyline points="0.0,178.346 88.79999999999927,178.346" fill="none" stroke="#000000" stroke-width="0.40" />
<polyline points="0.0,183.346 88.79999999999927,183.346" fill="none" stroke="#000000" stroke-width="0.40" />
<polyline points="0.0,188.346 88.79999999999927,188.346" fill="none" stroke="#000000" stroke-width="0.40" />
<polyline points="0.0,220.846 88.79999999999927,220.846" fill="none" stroke="#000000" stroke-width="0.40" />
<polyline points="0.0,225.846 88.79999999999927,225.846" fill="none" stroke="#000000" stroke-width="0.40" />
<polyline points="0.0,230.846 88.79999999999927,230.846" fill="none" stroke="#000000" stroke-width="0.40" />
<polyline points="0.0,235.846 88.79999999999927,235.846" fill="none" stroke="#000000" stroke-width="0.40" />
<polyline points="0.0,240.846 88.79999999999927,240.846" fill="none" stroke="#000000" stroke-width="0.40" />
<polyline points="88.39999999999964,220.846 88.39999999999964,240.846" fill="" stroke="#000000" stroke-width="0.80" />
<polyline points="88.39999999999964,168.346 88.39999999999964,188.346" fill="" stroke="#000000" stroke-width="0.80" />
<polyline points="88.39999999999964,115.846 88.39999999999964,135.846" fill="" stroke="#000000" stroke-width="0.80" />
<polyline points="88.39999999999964,63.3465 88.39999999999964,83.3465" fill="" stroke="#000000" stroke-width="0.80" />
<polyline points="78.79999999999927,192.407 78.79999999999927,154.596" fill="" stroke="#000000" stroke-width="0.65" />
<polyline points="57.29999999999927,224.286 57.29999999999927,239.596" fill="" stroke="#000000" stroke-width="0.65" />
<polyline points="63.20000000000073,192.407 63.20000000000073,154.596" fill="" stroke="#000000" stroke-width="0.65" />
<polyline points="41.79999999999927,224.286 41.79999999999927,240.221" fill="" stroke="#000000" stroke-width="0.65" />
<polyline points="26.299999999999272,226.786 26.299999999999272,240.846" fill="" stroke="#000000" stroke-width="0.65" />
<polyline points="32.20000000000073,192.407 32.20000000000073,154.596" fill="" stroke="#000000" stroke-width="0.65" />
<polyline points="10.700000000000728,216.786 10.700000000000728,230.846" fill="" stroke="#000000" stroke-width="0.65" />
<polyline points="1.2000000000007276,192.407 1.2000000000007276,162.096" fill="" stroke="#000000" stroke-width="0.65" />
<polyline points="71.0,193.346 80.60000000000036,193.346" fill="" stroke="#000000" stroke-width="0.80" />
<polyline points="55.5,193.346 65.10000000000036,193.346" fill="" stroke="#000000" stroke-width="0.80" />
<polyline points="24.399999999999636,193.346 34.0,193.346" fill="" stroke="#000000" stroke-width="0.80" />
<polyline points="8.899999999999636,215.846 18.5,215.846" fill="" stroke="#000000" stroke-width="0.80" />
<polyline points="0.0,215.846 3.0,215.846" fill="" stroke="#000000" stroke-width="0.80" />
<polyline points="0.0,193.346 3.0,193.346" fill="" stroke="#000000" stroke-width="0.80" />
<polyline points="145.5,63.3465 255.0,63.3465" fill="none" stroke="#000000" stroke-width="0.40" />
<polyline points="145.5,68.3465 255.0,68.3465" fill="none" stroke="#000000" stroke-width="0.40" />
<polyline points="145.5,73.3465 255.0,73.3465" fill="none" stroke="#000000" stroke-width="0.40" />
<polyline points="145.5,78.3465 255.0,78.3465" fill="none" stroke="#000000" stroke-width="0.40" />
<polyline points="145.5,83.3465 255.0,83.3465" fill="none" stroke="#000000" stroke-width="0.40" />
<polyline points="145.5,115.846 255.0,115.846" fill="none" stroke="#000000" stroke-width="0.40" />
<polyline points="145.5,120.846 255.0,120.846" fill="none" stroke="#000000" stroke-width="0.40" />
<polyline points="145.5,125.846 255.0,125.846" fill="none" stroke="#000000" stroke-width="0.40" />
<polyline points="145.5,130.846 255.0,130.846" fill="none" stroke="#000000" stroke-width="0.40" />
<polyline points="145.5,135.846 255.0,135.846" fill="none" stroke="#000000" stroke-width="0.40" />
<polyline points="145.5,168.346 255.0,168.346" fill="none" stroke="#000000" stroke-width="0.40" />
<polyline points="145.5,173.346 255.0,173.346" fill="none" stroke="#000000" stroke-width="0.40" />
<polyline points="145.5,178.346 255.0,178.346" fill="none" stroke="#000000" stroke-width="0.40" />
<polyline points="145.5,183.346 255.0,183.346" fill="none" stroke="#000000" stroke-width="0.40" />
<polyline points="145.5,188.346 255.0,188.346" fill="none" stroke="#000000" stroke-width="0.40" />
<polyline points="145.5,220.846 255.0,220.846" fill="none" stroke="#000000" stroke-width="0.40" />
<polyline points="145.5,225.846 255.0,225.846" fill="none" stroke="#000000" stroke-width="0.40" />
<polyline points="145.5,230.846 255.0,230.846" fill="none" stroke="#000000" stroke-width="0.40" />
<polyline points="145.5,235.846 255.0,235.846" fill="none" stroke="#000000" stroke-width="0.40" />
<polyline points="145.5,240.846 255.0,240.846" fill="none" stroke="#000000" stroke-width="0.40" />
<polyline points="145.89999999999964,63.3465 145.89999999999964,255.0" fill="none" stroke="#000000" stroke-width="0.80" />
<polyline points="230.70000000000073,192.407 230.70000000000073,157.096" fill="none" stroke="#000000" stroke-width="0.65" />
<polyline points="224.79999999999927,76.7855 224.79999999999927,124.596" fill="none" stroke="#000000" stroke-width="0.65" />
<polyline points="224.79999999999927,54.2855 224.79999999999927,72.0965" fill="none" stroke="#000000" stroke-width="0.65" />
<polyline points="178.29999999999927,232.407 178.29999999999927,217.096" fill="none" stroke="#000000" stroke-width="0.65" />
<polyline points="255.70000000000073,75.8465 255.0,75.8465" fill="none" stroke="#000000" stroke-width="0.80" />
<polyline points="249.79999999999927,80.8465 255.0,80.8465" fill="none" stroke="#000000" stroke-width="0.80" />
<polyline points="249.79999999999927,85.8465 255.0,85.8465" fill="none" stroke="#000000" stroke-width="0.80" />
<polyline points="249.79999999999927,90.8465 255.0,90.8465" fill="none" stroke="#000000" stroke-width="0.80" />
<polyline points="249.79999999999927,95.8465 255.0,95.8465" fill="none" stroke="#000000" stroke-width="0.80" />
<polyline points="249.79999999999927,100.846 255.0,100.846" fill="none" stroke="#000000" stroke-width="0.80" />
<polyline points="249.79999999999927,105.846 255.0,105.846" fill="none" stroke="#000000" stroke-width="0.80" />
<polyline points="249.79999999999927,110.846 255.0,110.846" fill="none" stroke="#000000" stroke-width="0.80" />
<polyline points="255.70000000000073,53.3465 255.0,53.3465" fill="none" stroke="#000000" stroke-width="0.80" />
<polyline points="249.79999999999927,58.3465 255.0,58.3465" fill="none" stroke="#000000" stroke-width="0.80" />
<polyline points="222.89999999999964,193.346 232.5,193.346" fill="none" stroke="#000000" stroke-width="0.80" />
<polyline points="222.89999999999964,75.8465 232.5,75.8465" fill="none" stroke="#000000" stroke-width="0.80" />
<polyline points="217.0,80.8465 232.5,80.8465" fill="none" stroke="#000000" stroke-width="0.80" />
<polyline points="217.0,85.8465 232.5,85.8465" fill="none" stroke="#000000" stroke-width="0.80" />
<polyline points="217.0,90.8465 232.5,90.8465" fill="none" stroke="#000000" stroke-width="0.80" />
<polyline points="217.0,95.8465 232.5,95.8465" fill="none" stroke="#000000" stroke-width="0.80" />
<polyline points="217.0,100.846 232.5,100.846" fill="none" stroke="#000000" stroke-width="0.80" />
<polyline points="217.0,105.846 232.5,105.846" fill="none" stroke="#000000" stroke-width="0.80" />
<polyline points="217.0,110.846 232.5,110.846" fill="none" stroke="#000000" stroke-width="0.80" />
<polyline points="222.89999999999964,53.3465 232.5,53.3465" fill="none" stroke="#000000" stroke-width="0.80" />
<polyline points="217.0,58.3465 232.5,58.3465" fill="none" stroke="#000000" stroke-width="0.80" />
</svg>
