<?xml version="1.0" encoding="UTF-8" standalone="yes"?>
<svg width="256.0px" height="256.0px" xmlns="http://www.w3.org/2000/svg" xmlns:xlink="http://www.w3.org/1999/xlink" version="1.2" baseProfile="tiny">
<path d="M58.0,10.518000000000029 L58.0,12.065000000000055 C58.0,12.616999999999962 58.0,13.05499999999995 58.0,13.378000000000043 C58.5,13.013000000000034 58.79999999999927,12.741999999999962 59.0,12.565000000000055 C59.20000000000073,12.356999999999971 59.399999999999636,12.067999999999984 59.600000000000364,11.697999999999979 C59.79999999999927,11.327999999999975 59.899999999999636,10.961000000000013 59.899999999999636,10.596000000000004 C59.899999999999636,10.231999999999971 59.79999999999927,9.918999999999983 59.70000000000073,9.658999999999992 C59.5,9.399000000000001 59.29999999999927,9.268000000000029 59.0,9.268000000000029 C58.70000000000073,9.268000000000029 58.5,9.388000000000034 58.29999999999927,9.628000000000043 C58.100000000000364,9.888000000000034 58.0,10.184999999999945 58.0,10.518000000000029 M57.100000000000364,14.096000000000004 L56.899999999999636,2.2060000000000173 C57.100000000000364,2.1019999999999754 57.20000000000073,2.0499999999999545 57.399999999999636,2.0499999999999545 C57.600000000000364,2.0499999999999545 57.79999999999927,2.1019999999999754 58.0,2.2060000000000173 L57.79999999999927,9.096000000000004 C58.29999999999927,8.638000000000034 59.0,8.408999999999992 59.70000000000073,8.408999999999992 C60.20000000000073,8.408999999999992 60.600000000000364,8.616999999999962 60.899999999999636,9.033999999999992 C61.29999999999927,9.451000000000022 61.399999999999636,9.92999999999995 61.399999999999636,10.471000000000004 C61.399999999999636,10.80499999999995 61.29999999999927,11.163999999999987 61.100000000000364,11.549999999999955 C60.899999999999636,11.893000000000029 60.70000000000073,12.163999999999987 60.399999999999636,12.361999999999966 C60.29999999999927,12.466000000000008 60.0,12.726999999999975 59.399999999999636,13.143000000000029 C59.29999999999927,13.258000000000038 59.100000000000364,13.393000000000029 58.899999999999636,13.549999999999955 C58.70000000000073,13.706000000000017 58.5,13.80499999999995 58.5,13.846000000000004 C58.399999999999636,13.899000000000001 58.29999999999927,14.003000000000043 58.20000000000073,14.158999999999992 C58.100000000000364,14.293999999999983 58.0,14.403999999999996 57.899999999999636,14.486999999999966 C57.79999999999927,14.57000000000005 57.70000000000073,14.611999999999966 57.600000000000364,14.611999999999966 C57.5,14.611999999999966 57.399999999999636,14.565000000000055 57.29999999999927,14.471000000000004 C57.20000000000073,14.378000000000043 57.100000000000364,14.253000000000043 57.100000000000364,14.096000000000004" />
<path d="M23.299999999999272,22.581000000000017 C23.299999999999272,22.831000000000017 23.200000000000728,22.956000000000017 23.0,22.956000000000017 C22.700000000000728,22.956000000000017 22.600000000000364,22.831000000000017 22.600000000000364,22.581000000000017 L22.600000000000364,19.690000000000055 L20.899999999999636,20.315000000000055 L20.899999999999636,23.471000000000004 C20.899999999999636,23.721000000000004 20.799999999999272,23.846000000000004 20.600000000000364,23.846000000000004 C20.299999999999272,23.846000000000004 20.200000000000728,23.721000000000004 20.200000000000728,23.471000000000004 L20.200000000000728,20.565000000000055 L19.600000000000364,20.799999999999955 C19.600000000000364,20.809999999999945 19.5,20.815000000000055 19.399999999999636,20.815000000000055 C19.299999999999272,20.815000000000055 19.200000000000728,20.775999999999954 19.100000000000364,20.69799999999998 C19.100000000000364,20.620000000000005 19.0,20.528999999999996 19.0,20.424999999999955 L19.0,19.221000000000004 C19.0,19.024 19.100000000000364,18.899 19.299999999999272,18.846000000000004 L20.200000000000728,18.533999999999992 L20.200000000000728,15.331000000000017 L19.600000000000364,15.549999999999955 C19.600000000000364,15.559999999999945 19.5,15.565000000000055 19.399999999999636,15.565000000000055 C19.299999999999272,15.565000000000055 19.200000000000728,15.525999999999954 19.100000000000364,15.447999999999979 C19.100000000000364,15.370000000000005 19.0,15.278999999999996 19.0,15.174999999999955 L19.0,13.956000000000017 C19.0,13.778999999999996 19.100000000000364,13.663999999999987 19.299999999999272,13.611999999999966 L20.200000000000728,13.253000000000043 L20.200000000000728,10.111999999999966 C20.200000000000728,9.861999999999966 20.299999999999272,9.736999999999966 20.600000000000364,9.736999999999966 C20.799999999999272,9.736999999999966 20.899999999999636,9.861999999999966 20.899999999999636,10.111999999999966 L20.899999999999636,13.003000000000043 L22.600000000000364,12.378000000000043 L22.600000000000364,9.221000000000004 C22.600000000000364,8.971000000000004 22.700000000000728,8.846000000000004 23.0,8.846000000000004 C23.200000000000728,8.846000000000004 23.299999999999272,8.971000000000004 23.299999999999272,9.221000000000004 L23.299999999999272,12.128000000000043 L24.0,11.893000000000029 C24.0,11.883000000000038 24.0,11.878000000000043 24.100000000000364,11.878000000000043 C24.200000000000728,11.878000000000043 24.299999999999272,11.913999999999987 24.399999999999636,11.986999999999966 C24.5,12.07000000000005 24.5,12.163999999999987 24.5,12.268000000000029 L24.5,13.471000000000004 C24.5,13.658999999999992 24.399999999999636,13.783999999999992 24.299999999999272,13.846000000000004 L23.299999999999272,14.158999999999992 L23.299999999999272,17.361999999999966 L24.0,17.14300000000003 C24.0,17.133000000000038 24.0,17.128000000000043 24.100000000000364,17.128000000000043 C24.200000000000728,17.128000000000043 24.299999999999272,17.168999999999983 24.399999999999636,17.253000000000043 C24.5,17.326000000000022 24.5,17.413999999999987 24.5,17.51800000000003 L24.5,18.736999999999966 C24.5,18.903999999999996 24.399999999999636,19.01800000000003 24.299999999999272,19.081000000000017 L23.299999999999272,19.440000000000055 L23.299999999999272,22.581000000000017 M22.600000000000364,14.456000000000017 L20.899999999999636,15.033999999999992 L20.899999999999636,18.236999999999966 L22.600000000000364,17.658999999999992 L22.600000000000364,14.456000000000017" />
<path d="M178.29999999999927,71.096 C178.89999999999964,71.096 179.5,71.25800000000004 179.89999999999964,71.58100000000002 C180.29999999999927,71.93499999999995 180.5,72.37800000000004 180.5,72.90899999999999 C180.5,73.80499999999995 180.0,74.64300000000003 179.10000000000036,75.42499999999995 C178.20000000000073,76.20600000000002 177.20000000000073,76.596 176.10000000000036,76.596 C175.5,76.596 174.89999999999964,76.43499999999995 174.5,76.11199999999997 C174.10000000000036,75.75800000000004 173.89999999999964,75.31500000000005 173.89999999999964,74.78399999999999 C173.89999999999964,73.88800000000003 174.39999999999964,73.04999999999995 175.29999999999927,72.26800000000003 C176.20000000000073,71.48699999999997 177.20000000000073,71.096 178.29999999999927,71.096" />
<path d="M164.20000000000073,61.096000000000004 C164.5,61.096000000000004 164.70000000000073,61.17999999999995 164.79999999999927,61.346000000000004 C164.89999999999964,61.524 165.0,61.70100000000002 165.0,61.87800000000004 C165.0,62.15899999999999 164.70000000000073,62.513000000000034 164.20000000000073,62.940000000000055 C163.70000000000073,63.399 163.39999999999964,63.721000000000004 163.29999999999927,63.90899999999999 C163.20000000000073,64.05499999999995 163.0,64.38800000000003 162.79999999999927,64.90899999999999 C162.60000000000036,65.44000000000005 162.39999999999964,65.85699999999997 162.10000000000036,66.15899999999999 C161.89999999999964,66.44000000000005 161.60000000000036,66.58100000000002 161.20000000000073,66.58100000000002 C161.10000000000036,66.58100000000002 160.79999999999927,66.54399999999998 160.5,66.471 C160.20000000000073,66.38800000000003 159.89999999999964,66.346 159.79999999999927,66.346 C159.60000000000036,66.346 159.39999999999964,66.38800000000003 159.0,66.471 C158.70000000000073,66.55499999999995 158.5,66.596 158.39999999999964,66.596 C158.10000000000036,66.596 157.89999999999964,66.51300000000003 157.79999999999927,66.346 C157.70000000000073,66.149 157.60000000000036,65.971 157.60000000000036,65.81500000000005 C157.60000000000036,65.53399999999999 157.89999999999964,65.17999999999995 158.39999999999964,64.75300000000004 C158.89999999999964,64.29399999999998 159.20000000000073,63.971000000000004 159.29999999999927,63.78399999999999 C159.39999999999964,63.690000000000055 159.5,63.351999999999975 159.79999999999927,62.76800000000003 C160.0,62.236999999999966 160.20000000000073,61.82600000000002 160.5,61.53399999999999 C160.70000000000073,61.25300000000004 161.0,61.111999999999966 161.39999999999964,61.111999999999966 C161.5,61.111999999999966 161.70000000000073,61.149 162.10000000000036,61.221000000000004 C162.39999999999964,61.30499999999995 162.70000000000073,61.346000000000004 162.79999999999927,61.346000000000004 C163.0,61.346000000000004 163.20000000000073,61.30499999999995 163.5,61.221000000000004 C163.89999999999964,61.138000000000034 164.10000000000036,61.096000000000004 164.20000000000073,61.096000000000004" />
<path d="M162.39999999999964,8.596000000000004 C163.0,8.596000000000004 163.5,8.758000000000038 164.0,9.081000000000017 C164.39999999999964,9.434999999999945 164.60000000000036,9.878000000000043 164.60000000000036,10.408999999999992 C164.60000000000036,11.30499999999995 164.10000000000036,12.143000000000029 163.20000000000073,12.924999999999955 C162.29999999999927,13.706000000000017 161.29999999999927,14.096000000000004 160.20000000000073,14.096000000000004 C159.60000000000036,14.096000000000004 159.0,13.934999999999945 158.60000000000036,13.611999999999966 C158.20000000000073,13.258000000000038 158.0,12.815000000000055 158.0,12.283999999999992 C158.0,11.388000000000034 158.5,10.549999999999955 159.39999999999964,9.768000000000029 C160.29999999999927,8.986999999999966 161.29999999999927,8.596000000000004 162.39999999999964,8.596000000000004" />
<path d="M132.39999999999964,61.096000000000004 C132.70000000000073,61.096000000000004 132.89999999999964,61.17999999999995 133.0,61.346000000000004 C133.10000000000036,61.524 133.20000000000073,61.70100000000002 133.20000000000073,61.87800000000004 C133.20000000000073,62.15899999999999 132.89999999999964,62.513000000000034 132.39999999999964,62.940000000000055 C131.89999999999964,63.399 131.60000000000036,63.721000000000004 131.5,63.90899999999999 C131.39999999999964,64.05499999999995 131.20000000000073,64.38800000000003 131.0,64.90899999999999 C130.79999999999927,65.44000000000005 130.60000000000036,65.85699999999997 130.29999999999927,66.15899999999999 C130.0,66.44000000000005 129.70000000000073,66.58100000000002 129.39999999999964,66.58100000000002 C129.29999999999927,66.58100000000002 129.0,66.54399999999998 128.70000000000073,66.471 C128.29999999999927,66.38800000000003 128.10000000000036,66.346 127.89999999999964,66.346 C127.79999999999927,66.346 127.5,66.38800000000003 127.20000000000073,66.471 C126.89999999999964,66.55499999999995 126.70000000000073,66.596 126.5,66.596 C126.29999999999927,66.596 126.10000000000036,66.51300000000003 126.0,66.346 C125.79999999999927,66.149 125.79999999999927,65.971 125.79999999999927,65.81500000000005 C125.79999999999927,65.53399999999999 126.10000000000036,65.17999999999995 126.60000000000036,64.75300000000004 C127.10000000000036,64.29399999999998 127.39999999999964,63.971000000000004 127.5,63.78399999999999 C127.60000000000036,63.690000000000055 127.70000000000073,63.351999999999975 128.0,62.76800000000003 C128.20000000000073,62.236999999999966 128.39999999999964,61.82600000000002 128.70000000000073,61.53399999999999 C128.89999999999964,61.25300000000004 129.20000000000073,61.111999999999966 129.60000000000036,61.111999999999966 C129.70000000000073,61.111999999999966 129.89999999999964,61.149 130.29999999999927,61.221000000000004 C130.60000000000036,61.30499999999995 130.79999999999927,61.346000000000004 131.0,61.346000000000004 C131.20000000000073,61.346000000000004 131.39999999999964,61.30499999999995 131.70000000000073,61.221000000000004 C132.0,61.138000000000034 132.29999999999927,61.096000000000004 132.39999999999964,61.096000000000004" />
<path d="M130.20000000000073,71.096 C130.79999999999927,71.096 131.29999999999927,71.25800000000004 131.79999999999927,71.58100000000002 C132.20000000000073,71.93499999999995 132.39999999999964,72.37800000000004 132.39999999999964,72.90899999999999 C132.39999999999964,73.80499999999995 131.89999999999964,74.64300000000003 131.0,75.42499999999995 C130.10000000000036,76.20600000000002 129.10000000000036,76.596 128.0,76.596 C127.39999999999964,76.596 126.79999999999927,76.43499999999995 126.39999999999964,76.11199999999997 C126.0,75.75800000000004 125.79999999999927,75.31500000000005 125.79999999999927,74.78399999999999 C125.79999999999927,73.88800000000003 126.29999999999927,73.04999999999995 127.20000000000073,72.26800000000003 C128.10000000000036,71.48699999999997 129.10000000000036,71.096 130.20000000000073,71.096" />
<path d="M100.60000000000036,61.096000000000004 C100.89999999999964,61.096000000000004 101.0,61.17999999999995 101.20000000000073,61.346000000000004 C101.29999999999927,61.524 101.39999999999964,61.70100000000002 101.39999999999964,61.87800000000004 C101.39999999999964,62.15899999999999 101.10000000000036,62.513000000000034 100.60000000000036,62.940000000000055 C100.10000000000036,63.399 99.79999999999927,63.721000000000004 99.70000000000073,63.90899999999999 C99.60000000000036,64.05499999999995 99.39999999999964,64.38800000000003 99.20000000000073,64.90899999999999 C99.0,65.44000000000005 98.70000000000073,65.85699999999997 98.5,66.15899999999999 C98.20000000000073,66.44000000000005 97.89999999999964,66.58100000000002 97.60000000000036,66.58100000000002 C97.39999999999964,66.58100000000002 97.20000000000073,66.54399999999998 96.89999999999964,66.471 C96.5,66.38800000000003 96.29999999999927,66.346 96.10000000000036,66.346 C96.0,66.346 95.70000000000073,66.38800000000003 95.39999999999964,66.471 C95.10000000000036,66.55499999999995 94.89999999999964,66.596 94.70000000000073,66.596 C94.5,66.596 94.29999999999927,66.51300000000003 94.20000000000073,66.346 C94.0,66.149 94.0,65.971 94.0,65.81500000000005 C94.0,65.53399999999999 94.20000000000073,65.17999999999995 94.79999999999927,64.75300000000004 C95.29999999999927,64.29399999999998 95.60000000000036,63.971000000000004 95.70000000000073,63.78399999999999 C95.70000000000073,63.690000000000055 95.89999999999964,63.351999999999975 96.20000000000073,62.76800000000003 C96.39999999999964,62.236999999999966 96.60000000000036,61.82600000000002 96.89999999999964,61.53399999999999 C97.10000000000036,61.25300000000004 97.39999999999964,61.111999999999966 97.70000000000073,61.111999999999966 C97.89999999999964,61.111999999999966 98.10000000000036,61.149 98.39999999999964,61.221000000000004 C98.79999999999927,61.30499999999995 99.0,61.346000000000004 99.20000000000073,61.346000000000004 C99.29999999999927,61.346000000000004 99.60000000000036,61.30499999999995 99.89999999999964,61.221000000000004 C100.20000000000073,61.138000000000034 100.5,61.096000000000004 100.60000000000036,61.096000000000004" />
<path d="M98.39999999999964,81.096 C99.0,81.096 99.5,81.25800000000004 100.0,81.58100000000002 C100.39999999999964,81.93499999999995 100.60000000000036,82.37800000000004 100.60000000000036,82.90899999999999 C100.60000000000036,83.80499999999995 100.10000000000036,84.64300000000003 99.20000000000073,85.42499999999995 C98.20000000000073,86.20600000000002 97.20000000000073,86.596 96.20000000000073,86.596 C95.5,86.596 95.0,86.43499999999995 94.60000000000036,86.11199999999997 C94.20000000000073,85.75800000000004 94.0,85.31500000000005 94.0,84.78399999999999 C94.0,83.88800000000003 94.39999999999964,83.04999999999995 95.39999999999964,82.26800000000003 C96.29999999999927,81.48699999999997 97.29999999999927,81.096 98.39999999999964,81.096" />
<path d="M98.79999999999927,8.596000000000004 C99.39999999999964,8.596000000000004 99.89999999999964,8.758000000000038 100.39999999999964,9.081000000000017 C100.79999999999927,9.434999999999945 101.0,9.878000000000043 101.0,10.408999999999992 C101.0,11.30499999999995 100.5,12.143000000000029 99.60000000000036,12.924999999999955 C98.60000000000036,13.706000000000017 97.60000000000036,14.096000000000004 96.60000000000036,14.096000000000004 C95.89999999999964,14.096000000000004 95.39999999999964,13.934999999999945 95.0,13.611999999999966 C94.60000000000036,13.258000000000038 94.39999999999964,12.815000000000055 94.39999999999964,12.283999999999992 C94.39999999999964,11.388000000000034 94.79999999999927,10.549999999999955 95.79999999999927,9.768000000000029 C96.70000000000073,8.986999999999966 97.70000000000073,8.596000000000004 98.79999999999927,8.596000000000004" />
<path d="M68.79999999999927,61.096000000000004 C69.0,61.096000000000004 69.20000000000073,61.17999999999995 69.39999999999964,61.346000000000004 C69.5,61.524 69.60000000000036,61.70100000000002 69.60000000000036,61.87800000000004 C69.60000000000036,62.15899999999999 69.29999999999927,62.513000000000034 68.79999999999927,62.940000000000055 C68.29999999999927,63.399 67.89999999999964,63.721000000000004 67.79999999999927,63.90899999999999 C67.79999999999927,64.05499999999995 67.60000000000036,64.38800000000003 67.39999999999964,64.90899999999999 C67.20000000000073,65.44000000000005 66.89999999999964,65.85699999999997 66.70000000000073,66.15899999999999 C66.39999999999964,66.44000000000005 66.10000000000036,66.58100000000002 65.79999999999927,66.58100000000002 C65.60000000000036,66.58100000000002 65.39999999999964,66.54399999999998 65.10000000000036,66.471 C64.70000000000073,66.38800000000003 64.5,66.346 64.29999999999927,66.346 C64.20000000000073,66.346 63.899999999999636,66.38800000000003 63.600000000000364,66.471 C63.29999999999927,66.55499999999995 63.100000000000364,66.596 62.899999999999636,66.596 C62.70000000000073,66.596 62.5,66.51300000000003 62.29999999999927,66.346 C62.20000000000073,66.149 62.20000000000073,65.971 62.20000000000073,65.81500000000005 C62.20000000000073,65.53399999999999 62.399999999999636,65.17999999999995 62.899999999999636,64.75300000000004 C63.5,64.29399999999998 63.79999999999927,63.971000000000004 63.899999999999636,63.78399999999999 C63.899999999999636,63.690000000000055 64.10000000000036,63.351999999999975 64.39999999999964,62.76800000000003 C64.60000000000036,62.236999999999966 64.79999999999927,61.82600000000002 65.10000000000036,61.53399999999999 C65.29999999999927,61.25300000000004 65.60000000000036,61.111999999999966 65.89999999999964,61.111999999999966 C66.10000000000036,61.111999999999966 66.29999999999927,61.149 66.60000000000036,61.221000000000004 C67.0,61.30499999999995 67.20000000000073,61.346000000000004 67.39999999999964,61.346000000000004 C67.5,61.346000000000004 67.79999999999927,61.30499999999995 68.10000000000036,61.221000000000004 C68.39999999999964,61.138000000000034 68.60000000000036,61.096000000000004 68.79999999999927,61.096000000000004" />
<path d="M66.60000000000036,81.096 C67.20000000000073,81.096 67.70000000000073,81.25800000000004 68.20000000000073,81.58100000000002 C68.5,81.93499999999995 68.70000000000073,82.37800000000004 68.70000000000073,82.90899999999999 C68.70000000000073,83.80499999999995 68.29999999999927,84.64300000000003 67.39999999999964,85.42499999999995 C66.39999999999964,86.20600000000002 65.39999999999964,86.596 64.39999999999964,86.596 C63.70000000000073,86.596 63.20000000000073,86.43499999999995 62.79999999999927,86.11199999999997 C62.399999999999636,85.75800000000004 62.20000000000073,85.31500000000005 62.20000000000073,84.78399999999999 C62.20000000000073,83.88800000000003 62.600000000000364,83.04999999999995 63.600000000000364,82.26800000000003 C64.5,81.48699999999997 65.5,81.096 66.60000000000036,81.096" />
<path d="M67.0,8.596000000000004 C67.60000000000036,8.596000000000004 68.10000000000036,8.758000000000038 68.60000000000036,9.081000000000017 C68.89999999999964,9.434999999999945 69.10000000000036,9.878000000000043 69.10000000000036,10.408999999999992 C69.10000000000036,11.30499999999995 68.70000000000073,12.143000000000029 67.79999999999927,12.924999999999955 C66.79999999999927,13.706000000000017 65.79999999999927,14.096000000000004 64.79999999999927,14.096000000000004 C64.10000000000036,14.096000000000004 63.600000000000364,13.934999999999945 63.20000000000073,13.611999999999966 C62.79999999999927,13.258000000000038 62.600000000000364,12.815000000000055 62.600000000000364,12.283999999999992 C62.600000000000364,11.388000000000034 63.0,10.549999999999955 64.0,9.768000000000029 C64.89999999999964,8.986999999999966 65.89999999999964,8.596000000000004 67.0,8.596000000000004" />
<path d="M45.899999999999636,71.096 C46.600000000000364,71.096 47.100000000000364,71.25800000000004 47.5,71.58100000000002 C47.899999999999636,71.93499999999995 48.100000000000364,72.37800000000004 48.100000000000364,72.90899999999999 C48.100000000000364,73.80499999999995 47.70000000000073,74.64300000000003 46.70000000000073,75.42499999999995 C45.79999999999927,76.20600000000002 44.79999999999927,76.596 43.70000000000073,76.596 C43.100000000000364,76.596 42.600000000000364,76.43499999999995 42.20000000000073,76.11199999999997 C41.70000000000073,75.75800000000004 41.5,75.31500000000005 41.5,74.78399999999999 C41.5,73.88800000000003 42.0,73.04999999999995 42.899999999999636,72.26800000000003 C43.899999999999636,71.48699999999997 44.899999999999636,71.096 45.899999999999636,71.096" />
<path d="M31.899999999999636,61.096000000000004 C32.100000000000364,61.096000000000004 32.29999999999927,61.17999999999995 32.399999999999636,61.346000000000004 C32.600000000000364,61.524 32.600000000000364,61.70100000000002 32.600000000000364,61.87800000000004 C32.600000000000364,62.15899999999999 32.399999999999636,62.513000000000034 31.799999999999272,62.940000000000055 C31.299999999999272,63.399 31.0,63.721000000000004 30.899999999999636,63.90899999999999 C30.799999999999272,64.05499999999995 30.700000000000728,64.38800000000003 30.399999999999636,64.90899999999999 C30.200000000000728,65.44000000000005 30.0,65.85699999999997 29.700000000000728,66.15899999999999 C29.5,66.44000000000005 29.200000000000728,66.58100000000002 28.799999999999272,66.58100000000002 C28.700000000000728,66.58100000000002 28.5,66.54399999999998 28.100000000000364,66.471 C27.799999999999272,66.38800000000003 27.5,66.346 27.399999999999636,66.346 C27.200000000000728,66.346 27.0,66.38800000000003 26.700000000000728,66.471 C26.299999999999272,66.55499999999995 26.100000000000364,66.596 26.0,66.596 C25.700000000000728,66.596 25.5,66.51300000000003 25.399999999999636,66.346 C25.299999999999272,66.149 25.200000000000728,65.971 25.200000000000728,65.81500000000005 C25.200000000000728,65.53399999999999 25.5,65.17999999999995 26.0,64.75300000000004 C26.5,64.29399999999998 26.799999999999272,63.971000000000004 27.0,63.78399999999999 C27.0,63.690000000000055 27.200000000000728,63.351999999999975 27.399999999999636,62.76800000000003 C27.600000000000364,62.236999999999966 27.899999999999636,61.82600000000002 28.100000000000364,61.53399999999999 C28.399999999999636,61.25300000000004 28.700000000000728,61.111999999999966 29.0,61.111999999999966 C29.100000000000364,61.111999999999966 29.399999999999636,61.149 29.700000000000728,61.221000000000004 C30.0,61.30499999999995 30.299999999999272,61.346000000000004 30.5,61.346000000000004 C30.600000000000364,61.346000000000004 30.799999999999272,61.30499999999995 31.200000000000728,61.221000000000004 C31.5,61.138000000000034 31.700000000000728,61.096000000000004 31.899999999999636,61.096000000000004" />
<path d="M30.0,13.596000000000004 C30.700000000000728,13.596000000000004 31.200000000000728,13.758000000000038 31.600000000000364,14.081000000000017 C32.0,14.434999999999945 32.20000000000073,14.878000000000043 32.20000000000073,15.408999999999992 C32.20000000000073,16.30499999999995 31.799999999999272,17.14300000000003 30.799999999999272,17.924999999999955 C29.899999999999636,18.706000000000017 28.899999999999636,19.096000000000004 27.799999999999272,19.096000000000004 C27.200000000000728,19.096000000000004 26.700000000000728,18.934999999999945 26.200000000000728,18.611999999999966 C25.799999999999272,18.258000000000038 25.600000000000364,17.815000000000055 25.600000000000364,17.283999999999992 C25.600000000000364,16.388000000000034 26.100000000000364,15.549999999999955 27.0,14.768000000000029 C28.0,13.986999999999966 29.0,13.596000000000004 30.0,13.596000000000004" />
<path d="M0.0,61.096000000000004 C0.2999999999992724,61.096000000000004 0.5,61.17999999999995 0.6000000000003638,61.346000000000004 C0.7000000000007276,61.524 0.7999999999992724,61.70100000000002 0.7999999999992724,61.87800000000004 C0.7999999999992724,62.15899999999999 0.6000000000003638,62.513000000000034 0.0,62.940000000000055 C-0.5,63.399 -0.7999999999992724,63.721000000000004 -0.8999999999996362,63.90899999999999 C-1.0,64.05499999999995 -1.1000000000003638,64.38800000000003 -1.3999999999996362,64.90899999999999 C-1.6000000000003638,65.44000000000005 -1.7999999999992724,65.85699999999997 -2.100000000000364,66.15899999999999 C-2.2999999999992724,66.44000000000005 -2.600000000000364,66.58100000000002 -3.0,66.58100000000002 C-3.100000000000364,66.58100000000002 -3.2999999999992724,66.54399999999998 -3.7000000000007276,66.471 C-4.0,66.38800000000003 -4.299999999999272,66.346 -4.399999999999636,66.346 C-4.600000000000364,66.346 -4.799999999999272,66.38800000000003 -5.200000000000728,66.471 C-5.5,66.55499999999995 -5.700000000000728,66.596 -5.799999999999272,66.596 C-6.100000000000364,66.596 -6.299999999999272,66.51300000000003 -6.399999999999636,66.346 C-6.5,66.149 -6.600000000000364,65.971 -6.600000000000364,65.81500000000005 C-6.600000000000364,65.53399999999999 -6.299999999999272,65.17999999999995 -5.799999999999272,64.75300000000004 C-5.299999999999272,64.29399999999998 -5.0,63.971000000000004 -4.899999999999636,63.78399999999999 C-4.799999999999272,63.690000000000055 -4.600000000000364,63.351999999999975 -4.399999999999636,62.76800000000003 C-4.200000000000728,62.236999999999966 -3.899999999999636,61.82600000000002 -3.7000000000007276,61.53399999999999 C-3.399999999999636,61.25300000000004 -3.2000000000007276,61.111999999999966 -2.7999999999992724,61.111999999999966 C-2.7000000000007276,61.111999999999966 -2.399999999999636,61.149 -2.100000000000364,61.221000000000004 C-1.7999999999992724,61.30499999999995 -1.5,61.346000000000004 -1.3999999999996362,61.346000000000004 C-1.2000000000007276,61.346000000000004 -1.0,61.30499999999995 -0.6000000000003638,61.221000000000004 C-0.2999999999992724,61.138000000000034 -0.1000000000003638,61.096000000000004 0.0,61.096000000000004" />
<path d="M127.60000000000036,19.736999999999966 C128.0,19.736999999999966 128.29999999999927,19.841000000000008 128.5,20.049999999999955 C128.70000000000073,20.288999999999987 128.79999999999927,20.513000000000034 128.79999999999927,20.721000000000004 C128.79999999999927,20.918999999999983 128.89999999999964,21.138000000000034 129.0,21.378000000000043 C129.10000000000036,21.586000000000013 129.20000000000073,21.690000000000055 129.39999999999964,21.690000000000055 C129.60000000000036,21.690000000000055 129.79999999999927,21.528999999999996 130.10000000000036,21.206000000000017 C130.29999999999927,20.924999999999955 130.5,20.668999999999983 130.60000000000036,20.440000000000055 C130.70000000000073,20.315000000000055 130.79999999999927,20.253000000000043 130.89999999999964,20.253000000000043 L130.89999999999964,20.253000000000043 C131.0,20.263000000000034 131.10000000000036,20.326000000000022 131.20000000000073,20.440000000000055 L128.70000000000073,28.846000000000004 C128.60000000000036,28.98199999999997 128.39999999999964,29.049999999999955 128.20000000000073,29.049999999999955 C127.89999999999964,29.049999999999955 127.79999999999927,28.98199999999997 127.60000000000036,28.846000000000004 L130.0,22.315000000000055 C129.20000000000073,22.616999999999962 128.5,22.76800000000003 127.89999999999964,22.76800000000003 C127.39999999999964,22.76800000000003 127.0,22.616999999999962 126.70000000000073,22.315000000000055 C126.29999999999927,22.033999999999992 126.10000000000036,21.658999999999992 126.10000000000036,21.190000000000055 C126.10000000000036,20.783999999999992 126.29999999999927,20.44500000000005 126.60000000000036,20.174999999999955 C126.79999999999927,19.883000000000038 127.20000000000073,19.736999999999966 127.60000000000036,19.736999999999966" />
<path d="M157.10000000000036,101.26800000000003 L156.20000000000073,104.36199999999997 C155.79999999999927,105.47699999999998 155.29999999999927,106.55499999999995 154.5,107.596 C153.70000000000073,108.63800000000003 152.89999999999964,109.15899999999999 152.10000000000036,109.15899999999999 C151.70000000000073,109.15899999999999 151.29999999999927,109.04700000000003 151.0,108.82299999999998 C150.60000000000036,108.59900000000005 150.5,108.30999999999995 150.5,107.95600000000002 C150.5,107.54999999999995 150.5,107.20600000000002 150.70000000000073,106.92499999999995 C150.89999999999964,106.654 151.10000000000036,106.50800000000004 151.39999999999964,106.48699999999997 C151.70000000000073,106.48699999999997 151.89999999999964,106.57000000000005 152.0,106.73699999999997 C152.20000000000073,106.904 152.29999999999927,107.096 152.29999999999927,107.31500000000005 C152.29999999999927,107.51300000000003 152.10000000000036,107.69500000000005 151.89999999999964,107.86199999999997 C151.70000000000073,108.00800000000004 151.5,108.17499999999995 151.5,108.36199999999997 C151.5,108.48699999999997 151.70000000000073,108.54999999999995 152.0,108.54999999999995 L152.10000000000036,108.54999999999995 C152.10000000000036,108.54999999999995 152.20000000000073,108.53399999999999 152.39999999999964,108.50300000000004 C152.39999999999964,108.49199999999996 152.5,108.45100000000002 152.60000000000036,108.37800000000004 C152.60000000000036,108.37800000000004 152.70000000000073,108.32600000000002 152.79999999999927,108.221 C152.89999999999964,108.10699999999997 153.0,108.024 153.0,107.971 C153.0,107.86699999999996 153.10000000000036,107.78399999999999 153.10000000000036,107.721 C153.10000000000036,107.67999999999995 153.20000000000073,107.57600000000002 153.20000000000073,107.40899999999999 C153.20000000000073,107.36699999999996 153.20000000000073,107.32000000000005 153.20000000000073,107.26800000000003 C153.29999999999927,107.21600000000001 153.29999999999927,107.17999999999995 153.29999999999927,107.15899999999999 C153.29999999999927,107.13800000000003 153.29999999999927,107.12199999999996 153.29999999999927,107.11199999999997 C153.29999999999927,106.904 153.39999999999964,106.779 153.39999999999964,106.73699999999997 C153.39999999999964,106.529 153.5,106.42499999999995 153.5,106.42499999999995 L154.70000000000073,101.26800000000003 L153.79999999999927,101.26800000000003 C153.70000000000073,101.26800000000003 153.60000000000036,101.23699999999997 153.60000000000036,101.17499999999995 C153.5,101.09100000000001 153.5,101.01800000000003 153.5,100.95600000000002 C153.5,100.87199999999996 153.5,100.79999999999995 153.60000000000036,100.73699999999997 C153.60000000000036,100.67499999999995 153.70000000000073,100.64300000000003 153.79999999999927,100.64300000000003 L154.89999999999964,100.64300000000003 C155.29999999999927,99.66399999999999 155.79999999999927,98.82000000000005 156.5,98.11199999999997 C157.29999999999927,97.38300000000004 158.10000000000036,97.01800000000003 158.89999999999964,97.01800000000003 C159.39999999999964,97.01800000000003 159.79999999999927,97.13300000000004 160.10000000000036,97.36199999999997 C160.39999999999964,97.58100000000002 160.60000000000036,97.86699999999996 160.60000000000036,98.221 C160.60000000000036,98.60699999999997 160.5,98.95100000000002 160.29999999999927,99.25300000000004 C160.10000000000036,99.524 159.89999999999964,99.66399999999999 159.60000000000036,99.67499999999995 C159.39999999999964,99.67499999999995 159.20000000000073,99.59400000000005 159.0,99.43200000000002 C158.89999999999964,99.27099999999996 158.79999999999927,99.08100000000002 158.79999999999927,98.86199999999997 C158.79999999999927,98.67499999999995 158.89999999999964,98.50300000000004 159.10000000000036,98.346 C159.39999999999964,98.19000000000005 159.5,98.01300000000003 159.5,97.81500000000005 C159.5,97.66899999999998 159.29999999999927,97.60199999999998 159.10000000000036,97.61199999999997 L159.0,97.61199999999997 C159.0,97.63300000000004 159.0,97.63800000000003 158.89999999999964,97.62800000000004 C158.70000000000073,97.62800000000004 158.5,97.68499999999995 158.39999999999964,97.79999999999995 C158.20000000000073,97.904 158.0,98.09100000000001 157.89999999999964,98.36199999999997 C157.89999999999964,98.43499999999995 157.79999999999927,98.50800000000004 157.79999999999927,98.58100000000002 C157.79999999999927,98.654 157.79999999999927,98.73400000000004 157.70000000000073,98.82299999999998 C157.70000000000073,98.91200000000003 157.70000000000073,98.971 157.60000000000036,99.00300000000004 C157.60000000000036,99.06500000000005 157.60000000000036,99.19500000000005 157.60000000000036,99.39300000000003 C157.5,99.58100000000002 157.5,99.74199999999996 157.5,99.87800000000004 C157.39999999999964,100.274 157.29999999999927,100.529 157.29999999999927,100.64300000000003 L158.39999999999964,100.64300000000003 C158.5,100.64300000000003 158.5,100.67200000000003 158.60000000000036,100.72900000000004 C158.70000000000073,100.78700000000003 158.70000000000073,100.85900000000004 158.70000000000073,100.94799999999998 C158.70000000000073,101.03700000000003 158.70000000000073,101.11199999999997 158.60000000000036,101.17499999999995 C158.5,101.23699999999997 158.5,101.26800000000003 158.39999999999964,101.26800000000003 L157.10000000000036,101.26800000000003 M162.39999999999964,101.26800000000003 L161.5,104.36199999999997 C161.10000000000036,105.47699999999998 160.60000000000036,106.55499999999995 159.79999999999927,107.596 C159.0,108.63800000000003 158.20000000000073,109.15899999999999 157.39999999999964,109.15899999999999 C156.89999999999964,109.15899999999999 156.60000000000036,109.04700000000003 156.20000000000073,108.82299999999998 C155.89999999999964,108.59900000000005 155.70000000000073,108.30999999999995 155.70000000000073,107.95600000000002 C155.70000000000073,107.54999999999995 155.79999999999927,107.20600000000002 156.0,106.92499999999995 C156.20000000000073,106.654 156.39999999999964,106.50800000000004 156.70000000000073,106.48699999999997 C157.0,106.48699999999997 157.10000000000036,106.57000000000005 157.29999999999927,106.73699999999997 C157.5,106.904 157.5,107.096 157.5,107.31500000000005 C157.5,107.51300000000003 157.39999999999964,107.69500000000005 157.20000000000073,107.86199999999997 C157.0,108.00800000000004 156.79999999999927,108.17499999999995 156.79999999999927,108.36199999999997 C156.79999999999927,108.48699999999997 157.0,108.54999999999995 157.20000000000073,108.54999999999995 L157.39999999999964,108.54999999999995 C157.39999999999964,108.54999999999995 157.5,108.53399999999999 157.60000000000036,108.50300000000004 C157.70000000000073,108.49199999999996 157.79999999999927,108.45100000000002 157.89999999999964,108.37800000000004 C157.89999999999964,108.37800000000004 158.0,108.32600000000002 158.10000000000036,108.221 C158.20000000000073,108.10699999999997 158.20000000000073,108.024 158.29999999999927,107.971 C158.29999999999927,107.86699999999996 158.29999999999927,107.78399999999999 158.39999999999964,107.721 C158.39999999999964,107.67999999999995 158.39999999999964,107.57600000000002 158.5,107.40899999999999 C158.5,107.36699999999996 158.5,107.32000000000005 158.5,107.26800000000003 C158.5,107.21600000000001 158.5,107.17999999999995 158.60000000000036,107.15899999999999 C158.60000000000036,107.13800000000003 158.60000000000036,107.12199999999996 158.60000000000036,107.11199999999997 C158.60000000000036,106.904 158.70000000000073,106.779 158.70000000000073,106.73699999999997 C158.70000000000073,106.529 158.70000000000073,106.42499999999995 158.70000000000073,106.42499999999995 L160.0,101.26800000000003 L159.0,101.26800000000003 C158.89999999999964,101.26800000000003 158.89999999999964,101.23699999999997 158.79999999999927,101.17499999999995 C158.79999999999927,101.09100000000001 158.79999999999927,101.01800000000003 158.79999999999927,100.95600000000002 C158.79999999999927,100.87199999999996 158.79999999999927,100.79999999999995 158.79999999999927,100.73699999999997 C158.89999999999964,100.67499999999995 159.0,100.64300000000003 159.0,100.64300000000003 L160.20000000000073,100.64300000000003 C160.5,99.66399999999999 161.10000000000036,98.82000000000005 161.79999999999927,98.11199999999997 C162.60000000000036,97.38300000000004 163.39999999999964,97.01800000000003 164.20000000000073,97.01800000000003 C164.70000000000073,97.01800000000003 165.0,97.13300000000004 165.39999999999964,97.36199999999997 C165.70000000000073,97.58100000000002 165.79999999999927,97.86699999999996 165.89999999999964,98.221 C165.89999999999964,98.60699999999997 165.79999999999927,98.95100000000002 165.60000000000036,99.25300000000004 C165.39999999999964,99.524 165.20000000000073,99.66399999999999 164.89999999999964,99.67499999999995 C164.60000000000036,99.67499999999995 164.39999999999964,99.59400000000005 164.29999999999927,99.43200000000002 C164.10000000000036,99.27099999999996 164.10000000000036,99.08100000000002 164.10000000000036,98.86199999999997 C164.10000000000036,98.67499999999995 164.20000000000073,98.50300000000004 164.39999999999964,98.346 C164.70000000000073,98.19000000000005 164.79999999999927,98.01300000000003 164.79999999999927,97.81500000000005 C164.79999999999927,97.66899999999998 164.60000000000036,97.60199999999998 164.39999999999964,97.61199999999997 L164.29999999999927,97.61199999999997 C164.29999999999927,97.63300000000004 164.20000000000073,97.63800000000003 164.20000000000073,97.62800000000004 C164.0,97.62800000000004 163.79999999999927,97.68499999999995 163.60000000000036,97.79999999999995 C163.5,97.904 163.29999999999927,98.09100000000001 163.20000000000073,98.36199999999997 C163.20000000000073,98.43499999999995 163.10000000000036,98.50800000000004 163.10000000000036,98.58100000000002 C163.10000000000036,98.654 163.0,98.73400000000004 163.0,98.82299999999998 C163.0,98.91200000000003 163.0,98.971 162.89999999999964,99.00300000000004 C162.89999999999964,99.06500000000005 162.89999999999964,99.19500000000005 162.89999999999964,99.39300000000003 C162.79999999999927,99.58100000000002 162.79999999999927,99.74199999999996 162.79999999999927,99.87800000000004 C162.70000000000073,100.274 162.60000000000036,100.529 162.60000000000036,100.64300000000003 L163.70000000000073,100.64300000000003 C163.70000000000073,100.64300000000003 163.79999999999927,100.67200000000003 163.89999999999964,100.72900000000004 C164.0,100.78700000000003 164.0,100.85900000000004 164.0,100.94799999999998 C164.0,101.03700000000003 164.0,101.11199999999997 163.89999999999964,101.17499999999995 C163.79999999999927,101.23699999999997 163.70000000000073,101.26800000000003 163.70000000000073,101.26800000000003 L162.39999999999964,101.26800000000003" />
<path d="M59.100000000000364,101.26800000000003 L58.100000000000364,104.36199999999997 C57.79999999999927,105.47699999999998 57.20000000000073,106.55499999999995 56.399999999999636,107.596 C55.600000000000364,108.63800000000003 54.79999999999927,109.15899999999999 54.0,109.15899999999999 C53.600000000000364,109.15899999999999 53.20000000000073,109.04700000000003 52.899999999999636,108.82299999999998 C52.5,108.59900000000005 52.399999999999636,108.30999999999995 52.399999999999636,107.95600000000002 C52.399999999999636,107.54999999999995 52.5,107.20600000000002 52.600000000000364,106.92499999999995 C52.79999999999927,106.654 53.100000000000364,106.50800000000004 53.399999999999636,106.48699999999997 C53.600000000000364,106.48699999999997 53.79999999999927,106.57000000000005 53.899999999999636,106.73699999999997 C54.100000000000364,106.904 54.20000000000073,107.096 54.20000000000073,107.31500000000005 C54.20000000000073,107.51300000000003 54.100000000000364,107.69500000000005 53.79999999999927,107.86199999999997 C53.600000000000364,108.00800000000004 53.5,108.17499999999995 53.5,108.36199999999997 C53.5,108.48699999999997 53.600000000000364,108.54999999999995 53.899999999999636,108.54999999999995 L54.0,108.54999999999995 C54.100000000000364,108.54999999999995 54.20000000000073,108.53399999999999 54.29999999999927,108.50300000000004 C54.399999999999636,108.49199999999996 54.5,108.45100000000002 54.600000000000364,108.37800000000004 C54.600000000000364,108.37800000000004 54.600000000000364,108.32600000000002 54.70000000000073,108.221 C54.79999999999927,108.10699999999997 54.899999999999636,108.024 54.899999999999636,107.971 C54.899999999999636,107.86699999999996 55.0,107.78399999999999 55.0,107.721 C55.100000000000364,107.67999999999995 55.100000000000364,107.57600000000002 55.100000000000364,107.40899999999999 C55.100000000000364,107.36699999999996 55.20000000000073,107.32000000000005 55.20000000000073,107.26800000000003 C55.20000000000073,107.21600000000001 55.20000000000073,107.17999999999995 55.20000000000073,107.15899999999999 C55.20000000000073,107.13800000000003 55.20000000000073,107.12199999999996 55.20000000000073,107.11199999999997 C55.29999999999927,106.904 55.29999999999927,106.779 55.29999999999927,106.73699999999997 C55.399999999999636,106.529 55.399999999999636,106.42499999999995 55.399999999999636,106.42499999999995 L56.70000000000073,101.26800000000003 L55.70000000000073,101.26800000000003 C55.600000000000364,101.26800000000003 55.5,101.23699999999997 55.5,101.17499999999995 C55.399999999999636,101.09100000000001 55.399999999999636,101.01800000000003 55.399999999999636,100.95600000000002 C55.399999999999636,100.87199999999996 55.399999999999636,100.79999999999995 55.5,100.73699999999997 C55.600000000000364,100.67499999999995 55.600000000000364,100.64300000000003 55.70000000000073,100.64300000000003 L56.899999999999636,100.64300000000003 C57.20000000000073,99.66399999999999 57.70000000000073,98.82000000000005 58.5,98.11199999999997 C59.20000000000073,97.38300000000004 60.0,97.01800000000003 60.899999999999636,97.01800000000003 C61.29999999999927,97.01800000000003 61.70000000000073,97.13300000000004 62.0,97.36199999999997 C62.29999999999927,97.58100000000002 62.5,97.86699999999996 62.5,98.221 C62.5,98.60699999999997 62.399999999999636,98.95100000000002 62.20000000000073,99.25300000000004 C62.0,99.524 61.79999999999927,99.66399999999999 61.5,99.67499999999995 C61.29999999999927,99.67499999999995 61.100000000000364,99.59400000000005 60.899999999999636,99.43200000000002 C60.79999999999927,99.27099999999996 60.70000000000073,99.08100000000002 60.70000000000073,98.86199999999997 C60.70000000000073,98.67499999999995 60.79999999999927,98.50300000000004 61.100000000000364,98.346 C61.29999999999927,98.19000000000005 61.399999999999636,98.01300000000003 61.399999999999636,97.81500000000005 C61.399999999999636,97.66899999999998 61.29999999999927,97.60199999999998 61.0,97.61199999999997 L60.899999999999636,97.61199999999997 C60.899999999999636,97.63300000000004 60.899999999999636,97.63800000000003 60.899999999999636,97.62800000000004 C60.600000000000364,97.62800000000004 60.399999999999636,97.68499999999995 60.29999999999927,97.79999999999995 C60.100000000000364,97.904 60.0,98.09100000000001 59.79999999999927,98.36199999999997 C59.79999999999927,98.43499999999995 59.79999999999927,98.50800000000004 59.70000000000073,98.58100000000002 C59.70000000000073,98.654 59.70000000000073,98.73400000000004 59.600000000000364,98.82299999999998 C59.600000000000364,98.91200000000003 59.600000000000364,98.971 59.600000000000364,99.00300000000004 C59.600000000000364,99.06500000000005 59.5,99.19500000000005 59.5,99.39300000000003 C59.5,99.58100000000002 59.399999999999636,99.74199999999996 59.399999999999636,99.87800000000004 C59.29999999999927,100.274 59.29999999999927,100.529 59.20000000000073,100.64300000000003 L60.29999999999927,100.64300000000003 C60.399999999999636,100.64300000000003 60.5,100.67200000000003 60.5,100.72900000000004 C60.600000000000364,100.78700000000003 60.600000000000364,100.85900000000004 60.600000000000364,100.94799999999998 C60.600000000000364,101.03700000000003 60.600000000000364,101.11199999999997 60.5,101.17499999999995 C60.5,101.23699999999997 60.399999999999636,101.26800000000003 60.29999999999927,101.26800000000003 L59.100000000000364,101.26800000000003 M64.29999999999927,101.26800000000003 L63.399999999999636,104.36199999999997 C63.100000000000364,105.47699999999998 62.5,106.55499999999995 61.70000000000073,107.596 C60.899999999999636,108.63800000000003 60.100000000000364,109.15899999999999 59.29999999999927,109.15899999999999 C58.899999999999636,109.15899999999999 58.5,109.04700000000003 58.20000000000073,108.82299999999998 C57.79999999999927,108.59900000000005 57.70000000000073,108.30999999999995 57.70000000000073,107.95600000000002 C57.70000000000073,107.54999999999995 57.70000000000073,107.20600000000002 57.899999999999636,106.92499999999995 C58.100000000000364,106.654 58.29999999999927,106.50800000000004 58.600000000000364,106.48699999999997 C58.899999999999636,106.48699999999997 59.100000000000364,106.57000000000005 59.20000000000073,106.73699999999997 C59.399999999999636,106.904 59.5,107.096 59.5,107.31500000000005 C59.5,107.51300000000003 59.29999999999927,107.69500000000005 59.100000000000364,107.86199999999997 C58.899999999999636,108.00800000000004 58.79999999999927,108.17499999999995 58.70000000000073,108.36199999999997 C58.70000000000073,108.48699999999997 58.899999999999636,108.54999999999995 59.20000000000073,108.54999999999995 L59.29999999999927,108.54999999999995 C59.399999999999636,108.54999999999995 59.399999999999636,108.53399999999999 59.600000000000364,108.50300000000004 C59.600000000000364,108.49199999999996 59.70000000000073,108.45100000000002 59.79999999999927,108.37800000000004 C59.79999999999927,108.37800000000004 59.899999999999636,108.32600000000002 60.0,108.221 C60.100000000000364,108.10699999999997 60.20000000000073,108.024 60.20000000000073,107.971 C60.20000000000073,107.86699999999996 60.29999999999927,107.78399999999999 60.29999999999927,107.721 C60.29999999999927,107.67999999999995 60.399999999999636,107.57600000000002 60.399999999999636,107.40899999999999 C60.399999999999636,107.36699999999996 60.399999999999636,107.32000000000005 60.399999999999636,107.26800000000003 C60.5,107.21600000000001 60.5,107.17999999999995 60.5,107.15899999999999 C60.5,107.13800000000003 60.5,107.12199999999996 60.5,107.11199999999997 C60.5,106.904 60.600000000000364,106.779 60.600000000000364,106.73699999999997 C60.600000000000364,106.529 60.70000000000073,106.42499999999995 60.70000000000073,106.42499999999995 L61.899999999999636,101.26800000000003 L61.0,101.26800000000003 C60.899999999999636,101.26800000000003 60.79999999999927,101.23699999999997 60.79999999999927,101.17499999999995 C60.70000000000073,101.09100000000001 60.70000000000073,101.01800000000003 60.70000000000073,100.95600000000002 C60.70000000000073,100.87199999999996 60.70000000000073,100.79999999999995 60.79999999999927,100.73699999999997 C60.79999999999927,100.67499999999995 60.899999999999636,100.64300000000003 61.0,100.64300000000003 L62.100000000000364,100.64300000000003 C62.5,99.66399999999999 63.0,98.82000000000005 63.70000000000073,98.11199999999997 C64.5,97.38300000000004 65.29999999999927,97.01800000000003 66.10000000000036,97.01800000000003 C66.60000000000036,97.01800000000003 67.0,97.13300000000004 67.29999999999927,97.36199999999997 C67.60000000000036,97.58100000000002 67.79999999999927,97.86699999999996 67.79999999999927,98.221 C67.79999999999927,98.60699999999997 67.70000000000073,98.95100000000002 67.5,99.25300000000004 C67.29999999999927,99.524 67.10000000000036,99.66399999999999 66.79999999999927,99.67499999999995 C66.60000000000036,99.67499999999995 66.39999999999964,99.59400000000005 66.20000000000073,99.43200000000002 C66.10000000000036,99.27099999999996 66.0,99.08100000000002 66.0,98.86199999999997 C66.0,98.67499999999995 66.10000000000036,98.50300000000004 66.29999999999927,98.346 C66.60000000000036,98.19000000000005 66.70000000000073,98.01300000000003 66.70000000000073,97.81500000000005 C66.70000000000073,97.66899999999998 66.5,97.60199999999998 66.29999999999927,97.61199999999997 L66.20000000000073,97.61199999999997 C66.20000000000073,97.63300000000004 66.20000000000073,97.63800000000003 66.10000000000036,97.62800000000004 C65.89999999999964,97.62800000000004 65.70000000000073,97.68499999999995 65.60000000000036,97.79999999999995 C65.39999999999964,97.904 65.29999999999927,98.09100000000001 65.10000000000036,98.36199999999997 C65.10000000000036,98.43499999999995 65.0,98.50800000000004 65.0,98.58100000000002 C65.0,98.654 65.0,98.73400000000004 64.89999999999964,98.82299999999998 C64.89999999999964,98.91200000000003 64.89999999999964,98.971 64.89999999999964,99.00300000000004 C64.79999999999927,99.06500000000005 64.79999999999927,99.19500000000005 64.79999999999927,99.39300000000003 C64.70000000000073,99.58100000000002 64.70000000000073,99.74199999999996 64.70000000000073,99.87800000000004 C64.60000000000036,100.274 64.5,100.529 64.5,100.64300000000003 L65.60000000000036,100.64300000000003 C65.70000000000073,100.64300000000003 65.70000000000073,100.67200000000003 65.79999999999927,100.72900000000004 C65.89999999999964,100.78700000000003 65.89999999999964,100.85900000000004 65.89999999999964,100.94799999999998 C65.89999999999964,101.03700000000003 65.89999999999964,101.11199999999997 65.79999999999927,101.17499999999995 C65.70000000000073,101.23699999999997 65.70000000000073,101.26800000000003 65.60000000000036,101.26800000000003 L64.29999999999927,101.26800000000003 M69.60000000000036,101.26800000000003 L68.70000000000073,104.36199999999997 C68.29999999999927,105.47699999999998 67.79999999999927,106.55499999999995 67.0,107.596 C66.20000000000073,108.63800000000003 65.39999999999964,109.15899999999999 64.60000000000036,109.15899999999999 C64.10000000000036,109.15899999999999 63.79999999999927,109.04700000000003 63.399999999999636,108.82299999999998 C63.100000000000364,108.59900000000005 62.899999999999636,108.30999999999995 62.899999999999636,107.95600000000002 C62.899999999999636,107.54999999999995 63.0,107.20600000000002 63.20000000000073,106.92499999999995 C63.399999999999636,106.654 63.600000000000364,106.50800000000004 63.899999999999636,106.48699999999997 C64.20000000000073,106.48699999999997 64.39999999999964,106.57000000000005 64.5,106.73699999999997 C64.70000000000073,106.904 64.70000000000073,107.096 64.70000000000073,107.31500000000005 C64.70000000000073,107.51300000000003 64.60000000000036,107.69500000000005 64.39999999999964,107.86199999999997 C64.20000000000073,108.00800000000004 64.0,108.17499999999995 64.0,108.36199999999997 C64.0,108.48699999999997 64.20000000000073,108.54999999999995 64.39999999999964,108.54999999999995 L64.60000000000036,108.54999999999995 C64.60000000000036,108.54999999999995 64.70000000000073,108.53399999999999 64.89999999999964,108.50300000000004 C64.89999999999964,108.49199999999996 65.0,108.45100000000002 65.10000000000036,108.37800000000004 C65.10000000000036,108.37800000000004 65.20000000000073,108.32600000000002 65.29999999999927,108.221 C65.39999999999964,108.10699999999997 65.39999999999964,108.024 65.5,107.971 C65.5,107.86699999999996 65.5,107.78399999999999 65.60000000000036,107.721 C65.60000000000036,107.67999999999995 65.60000000000036,107.57600000000002 65.70000000000073,107.40899999999999 C65.70000000000073,107.36699999999996 65.70000000000073,107.32000000000005 65.70000000000073,107.26800000000003 C65.70000000000073,107.21600000000001 65.70000000000073,107.17999999999995 65.79999999999927,107.15899999999999 C65.79999999999927,107.13800000000003 65.79999999999927,107.12199999999996 65.79999999999927,107.11199999999997 C65.79999999999927,106.904 65.89999999999964,106.779 65.89999999999964,106.73699999999997 C65.89999999999964,106.529 65.89999999999964,106.42499999999995 65.89999999999964,106.42499999999995 L67.20000000000073,101.26800000000003 L66.20000000000073,101.26800000000003 C66.10000000000036,101.26800000000003 66.10000000000036,101.23699999999997 66.0,101.17499999999995 C66.0,101.09100000000001 66.0,101.01800000000003 66.0,100.95600000000002 C66.0,100.87199999999996 66.0,100.79999999999995 66.0,100.73699999999997 C66.10000000000036,100.67499999999995 66.20000000000073,100.64300000000003 66.20000000000073,100.64300000000003 L67.39999999999964,100.64300000000003 C67.70000000000073,99.66399999999999 68.29999999999927,98.82000000000005 69.0,98.11199999999997 C69.79999999999927,97.38300000000004 70.60000000000036,97.01800000000003 71.39999999999964,97.01800000000003 C71.89999999999964,97.01800000000003 72.29999999999927,97.13300000000004 72.60000000000036,97.36199999999997 C72.89999999999964,97.58100000000002 73.0,97.86699999999996 73.10000000000036,98.221 C73.10000000000036,98.60699999999997 73.0,98.95100000000002 72.79999999999927,99.25300000000004 C72.60000000000036,99.524 72.39999999999964,99.66399999999999 72.10000000000036,99.67499999999995 C71.79999999999927,99.67499999999995 71.60000000000036,99.59400000000005 71.5,99.43200000000002 C71.29999999999927,99.27099999999996 71.29999999999927,99.08100000000002 71.29999999999927,98.86199999999997 C71.29999999999927,98.67499999999995 71.39999999999964,98.50300000000004 71.60000000000036,98.346 C71.89999999999964,98.19000000000005 72.0,98.01300000000003 72.0,97.81500000000005 C72.0,97.66899999999998 71.79999999999927,97.60199999999998 71.60000000000036,97.61199999999997 L71.5,97.61199999999997 C71.5,97.63300000000004 71.39999999999964,97.63800000000003 71.39999999999964,97.62800000000004 C71.20000000000073,97.62800000000004 71.0,97.68499999999995 70.79999999999927,97.79999999999995 C70.70000000000073,97.904 70.5,98.09100000000001 70.39999999999964,98.36199999999997 C70.39999999999964,98.43499999999995 70.29999999999927,98.50800000000004 70.29999999999927,98.58100000000002 C70.29999999999927,98.654 70.20000000000073,98.73400000000004 70.20000000000073,98.82299999999998 C70.20000000000073,98.91200000000003 70.20000000000073,98.971 70.10000000000036,99.00300000000004 C70.10000000000036,99.06500000000005 70.10000000000036,99.19500000000005 70.10000000000036,99.39300000000003 C70.0,99.58100000000002 70.0,99.74199999999996 70.0,99.87800000000004 C69.89999999999964,100.274 69.79999999999927,100.529 69.79999999999927,100.64300000000003 L70.89999999999964,100.64300000000003 C71.0,100.64300000000003 71.0,100.67200000000003 71.10000000000036,100.72900000000004 C71.20000000000073,100.78700000000003 71.20000000000073,100.85900000000004 71.20000000000073,100.94799999999998 C71.20000000000073,101.03700000000003 71.20000000000073,101.11199999999997 71.10000000000036,101.17499999999995 C71.0,101.23699999999997 71.0,101.26800000000003 70.89999999999964,101.26800000000003 L69.60000000000036,101.26800000000003" />
<path d="M24.799999999999272,101.26800000000003 L23.799999999999272,104.36199999999997 C23.5,105.47699999999998 22.899999999999636,106.55499999999995 22.100000000000364,107.596 C21.299999999999272,108.63800000000003 20.5,109.15899999999999 19.700000000000728,109.15899999999999 C19.299999999999272,109.15899999999999 18.899999999999636,109.04700000000003 18.600000000000364,108.82299999999998 C18.299999999999272,108.59900000000005 18.100000000000364,108.30999999999995 18.100000000000364,107.95600000000002 C18.100000000000364,107.54999999999995 18.200000000000728,107.20600000000002 18.299999999999272,106.92499999999995 C18.5,106.654 18.799999999999272,106.50800000000004 19.100000000000364,106.48699999999997 C19.299999999999272,106.48699999999997 19.5,106.57000000000005 19.700000000000728,106.73699999999997 C19.799999999999272,106.904 19.899999999999636,107.096 19.899999999999636,107.31500000000005 C19.899999999999636,107.51300000000003 19.799999999999272,107.69500000000005 19.5,107.86199999999997 C19.299999999999272,108.00800000000004 19.200000000000728,108.17499999999995 19.200000000000728,108.36199999999997 C19.200000000000728,108.48699999999997 19.299999999999272,108.54999999999995 19.600000000000364,108.54999999999995 L19.700000000000728,108.54999999999995 C19.799999999999272,108.54999999999995 19.899999999999636,108.53399999999999 20.0,108.50300000000004 C20.100000000000364,108.49199999999996 20.200000000000728,108.45100000000002 20.299999999999272,108.37800000000004 C20.299999999999272,108.37800000000004 20.299999999999272,108.32600000000002 20.5,108.221 C20.5,108.10699999999997 20.600000000000364,108.024 20.600000000000364,107.971 C20.700000000000728,107.86699999999996 20.700000000000728,107.78399999999999 20.700000000000728,107.721 C20.799999999999272,107.67999999999995 20.799999999999272,107.57600000000002 20.799999999999272,107.40899999999999 C20.799999999999272,107.36699999999996 20.899999999999636,107.32000000000005 20.899999999999636,107.26800000000003 C20.899999999999636,107.21600000000001 20.899999999999636,107.17999999999995 20.899999999999636,107.15899999999999 C20.899999999999636,107.13800000000003 20.899999999999636,107.12199999999996 20.899999999999636,107.11199999999997 C21.0,106.904 21.0,106.779 21.0,106.73699999999997 C21.100000000000364,106.529 21.100000000000364,106.42499999999995 21.100000000000364,106.42499999999995 L22.399999999999636,101.26800000000003 L21.399999999999636,101.26800000000003 C21.299999999999272,101.26800000000003 21.200000000000728,101.23699999999997 21.200000000000728,101.17499999999995 C21.100000000000364,101.09100000000001 21.100000000000364,101.01800000000003 21.100000000000364,100.95600000000002 C21.100000000000364,100.87199999999996 21.100000000000364,100.79999999999995 21.200000000000728,100.73699999999997 C21.299999999999272,100.67499999999995 21.299999999999272,100.64300000000003 21.399999999999636,100.64300000000003 L22.600000000000364,100.64300000000003 C22.899999999999636,99.66399999999999 23.399999999999636,98.82000000000005 24.200000000000728,98.11199999999997 C24.899999999999636,97.38300000000004 25.700000000000728,97.01800000000003 26.600000000000364,97.01800000000003 C27.0,97.01800000000003 27.399999999999636,97.13300000000004 27.700000000000728,97.36199999999997 C28.0,97.58100000000002 28.200000000000728,97.86699999999996 28.200000000000728,98.221 C28.200000000000728,98.60699999999997 28.100000000000364,98.95100000000002 28.0,99.25300000000004 C27.799999999999272,99.524 27.5,99.66399999999999 27.200000000000728,99.67499999999995 C27.0,99.67499999999995 26.799999999999272,99.59400000000005 26.600000000000364,99.43200000000002 C26.5,99.27099999999996 26.399999999999636,99.08100000000002 26.399999999999636,98.86199999999997 C26.399999999999636,98.67499999999995 26.5,98.50300000000004 26.799999999999272,98.346 C27.0,98.19000000000005 27.100000000000364,98.01300000000003 27.100000000000364,97.81500000000005 C27.100000000000364,97.66899999999998 27.0,97.60199999999998 26.700000000000728,97.61199999999997 L26.700000000000728,97.61199999999997 C26.600000000000364,97.63300000000004 26.600000000000364,97.63800000000003 26.600000000000364,97.62800000000004 C26.299999999999272,97.62800000000004 26.100000000000364,97.68499999999995 26.0,97.79999999999995 C25.799999999999272,97.904 25.700000000000728,98.09100000000001 25.5,98.36199999999997 C25.5,98.43499999999995 25.5,98.50800000000004 25.399999999999636,98.58100000000002 C25.399999999999636,98.654 25.399999999999636,98.73400000000004 25.399999999999636,98.82299999999998 C25.299999999999272,98.91200000000003 25.299999999999272,98.971 25.299999999999272,99.00300000000004 C25.299999999999272,99.06500000000005 25.200000000000728,99.19500000000005 25.200000000000728,99.39300000000003 C25.200000000000728,99.58100000000002 25.100000000000364,99.74199999999996 25.100000000000364,99.87800000000004 C25.0,100.274 25.0,100.529 24.899999999999636,100.64300000000003 L26.0,100.64300000000003 C26.100000000000364,100.64300000000003 26.200000000000728,100.67200000000003 26.200000000000728,100.72900000000004 C26.299999999999272,100.78700000000003 26.299999999999272,100.85900000000004 26.299999999999272,100.94799999999998 C26.299999999999272,101.03700000000003 26.299999999999272,101.11199999999997 26.200000000000728,101.17499999999995 C26.200000000000728,101.23699999999997 26.100000000000364,101.26800000000003 26.0,101.26800000000003 L24.799999999999272,101.26800000000003 M30.0,101.26800000000003 L29.100000000000364,104.36199999999997 C28.799999999999272,105.47699999999998 28.200000000000728,106.55499999999995 27.399999999999636,107.596 C26.600000000000364,108.63800000000003 25.799999999999272,109.15899999999999 25.0,109.15899999999999 C24.600000000000364,109.15899999999999 24.200000000000728,109.04700000000003 23.899999999999636,108.82299999999998 C23.5,108.59900000000005 23.399999999999636,108.30999999999995 23.399999999999636,107.95600000000002 C23.399999999999636,107.54999999999995 23.5,107.20600000000002 23.600000000000364,106.92499999999995 C23.799999999999272,106.654 24.0,106.50800000000004 24.399999999999636,106.48699999999997 C24.600000000000364,106.48699999999997 24.799999999999272,106.57000000000005 24.899999999999636,106.73699999999997 C25.100000000000364,106.904 25.200000000000728,107.096 25.200000000000728,107.31500000000005 C25.200000000000728,107.51300000000003 25.100000000000364,107.69500000000005 24.799999999999272,107.86199999999997 C24.600000000000364,108.00800000000004 24.5,108.17499999999995 24.5,108.36199999999997 C24.5,108.48699999999997 24.600000000000364,108.54999999999995 24.899999999999636,108.54999999999995 L25.0,108.54999999999995 C25.100000000000364,108.54999999999995 25.200000000000728,108.53399999999999 25.299999999999272,108.50300000000004 C25.399999999999636,108.49199999999996 25.399999999999636,108.45100000000002 25.5,108.37800000000004 C25.5,108.37800000000004 25.600000000000364,108.32600000000002 25.700000000000728,108.221 C25.799999999999272,108.10699999999997 25.899999999999636,108.024 25.899999999999636,107.971 C25.899999999999636,107.86699999999996 26.0,107.78399999999999 26.0,107.721 C26.0,107.67999999999995 26.100000000000364,107.57600000000002 26.100000000000364,107.40899999999999 C26.100000000000364,107.36699999999996 26.100000000000364,107.32000000000005 26.200000000000728,107.26800000000003 C26.200000000000728,107.21600000000001 26.200000000000728,107.17999999999995 26.200000000000728,107.15899999999999 C26.200000000000728,107.13800000000003 26.200000000000728,107.12199999999996 26.200000000000728,107.11199999999997 C26.299999999999272,106.904 26.299999999999272,106.779 26.299999999999272,106.73699999999997 C26.399999999999636,106.529 26.399999999999636,106.42499999999995 26.399999999999636,106.42499999999995 L27.700000000000728,101.26800000000003 L26.700000000000728,101.26800000000003 C26.600000000000364,101.26800000000003 26.5,101.23699999999997 26.5,101.17499999999995 C26.399999999999636,101.09100000000001 26.399999999999636,101.01800000000003 26.399999999999636,100.95600000000002 C26.399999999999636,100.87199999999996 26.399999999999636,100.79999999999995 26.5,100.73699999999997 C26.600000000000364,100.67499999999995 26.600000000000364,100.64300000000003 26.700000000000728,100.64300000000003 L27.799999999999272,100.64300000000003 C28.200000000000728,99.66399999999999 28.700000000000728,98.82000000000005 29.5,98.11199999999997 C30.200000000000728,97.38300000000004 31.0,97.01800000000003 31.799999999999272,97.01800000000003 C32.29999999999927,97.01800000000003 32.70000000000073,97.13300000000004 33.0,97.36199999999997 C33.29999999999927,97.58100000000002 33.5,97.86699999999996 33.5,98.221 C33.5,98.60699999999997 33.399999999999636,98.95100000000002 33.20000000000073,99.25300000000004 C33.0,99.524 32.79999999999927,99.66399999999999 32.5,99.67499999999995 C32.29999999999927,99.67499999999995 32.100000000000364,99.59400000000005 31.899999999999636,99.43200000000002 C31.799999999999272,99.27099999999996 31.700000000000728,99.08100000000002 31.700000000000728,98.86199999999997 C31.700000000000728,98.67499999999995 31.799999999999272,98.50300000000004 32.0,98.346 C32.29999999999927,98.19000000000005 32.399999999999636,98.01300000000003 32.399999999999636,97.81500000000005 C32.399999999999636,97.66899999999998 32.29999999999927,97.60199999999998 32.0,97.61199999999997 L31.899999999999636,97.61199999999997 C31.899999999999636,97.63300000000004 31.899999999999636,97.63800000000003 31.799999999999272,97.62800000000004 C31.600000000000364,97.62800000000004 31.399999999999636,97.68499999999995 31.299999999999272,97.79999999999995 C31.100000000000364,97.904 31.0,98.09100000000001 30.799999999999272,98.36199999999997 C30.799999999999272,98.43499999999995 30.799999999999272,98.50800000000004 30.700000000000728,98.58100000000002 C30.700000000000728,98.654 30.700000000000728,98.73400000000004 30.600000000000364,98.82299999999998 C30.600000000000364,98.91200000000003 30.600000000000364,98.971 30.600000000000364,99.00300000000004 C30.600000000000364,99.06500000000005 30.5,99.19500000000005 30.5,99.39300000000003 C30.5,99.58100000000002 30.399999999999636,99.74199999999996 30.399999999999636,99.87800000000004 C30.299999999999272,100.274 30.200000000000728,100.529 30.200000000000728,100.64300000000003 L31.299999999999272,100.64300000000003 C31.399999999999636,100.64300000000003 31.5,100.67200000000003 31.5,100.72900000000004 C31.600000000000364,100.78700000000003 31.600000000000364,100.85900000000004 31.600000000000364,100.94799999999998 C31.600000000000364,101.03700000000003 31.600000000000364,101.11199999999997 31.5,101.17499999999995 C31.5,101.23699999999997 31.399999999999636,101.26800000000003 31.299999999999272,101.26800000000003 L30.0,101.26800000000003" />
<path d="M125.79999999999927,88.846 L174.60000000000036,88.846 L174.60000000000036,91.346 L125.79999999999927,91.346 L125.79999999999927,88.846" />
<path d="M157.60000000000036,85.096 L174.60000000000036,85.096 L174.60000000000036,87.596 L157.60000000000036,87.596 L157.60000000000036,85.096" />
<path d="M62.20000000000073,97.596 L94.60000000000036,97.596 L94.60000000000036,100.096 L62.20000000000073,100.096 L62.20000000000073,97.596" />
<path d="M62.600000000000364,26.346000000000004 L95.0,26.346000000000004 L95.0,28.846000000000004 L62.600000000000364,28.846000000000004 L62.600000000000364,26.346000000000004" />
<path d="M25.200000000000728,85.096 L42.20000000000073,85.096 L42.20000000000073,87.596 L25.200000000000728,87.596 L25.200000000000728,85.096" />
<path d="M162.5,14.378000000000043 C162.89999999999964,14.378000000000043 163.20000000000073,14.861999999999966 163.5,15.831000000000017 C163.79999999999927,16.799999999999955 164.0,17.721000000000004 164.0,18.596000000000004 C164.0,19.336000000000013 163.79999999999927,20.07000000000005 163.5,20.799999999999955 C163.10000000000036,21.581000000000017 162.60000000000036,22.258000000000038 162.10000000000036,22.831000000000017 L160.5,24.628000000000043 C160.0,25.201000000000022 159.60000000000036,25.861999999999966 159.20000000000073,26.611999999999966 C158.79999999999927,27.341000000000008 158.60000000000036,28.086000000000013 158.60000000000036,28.846000000000004 L158.0,28.846000000000004 L158.0,23.846000000000004 L158.60000000000036,23.846000000000004 C159.0,23.628000000000043 159.5,23.274 160.20000000000073,22.783999999999992 C160.5,22.55499999999995 161.0,22.163999999999987 161.60000000000036,21.611999999999966 C162.10000000000036,21.14300000000003 162.5,20.663999999999987 162.79999999999927,20.174999999999955 C163.0,19.653999999999996 163.20000000000073,19.128000000000043 163.20000000000073,18.596000000000004 C163.20000000000073,17.35699999999997 162.79999999999927,16.121999999999957 162.10000000000036,14.893000000000029 C162.10000000000036,14.893000000000029 162.10000000000036,14.866999999999962 162.10000000000036,14.815000000000055 C162.10000000000036,14.701000000000022 162.10000000000036,14.606999999999971 162.20000000000073,14.533999999999992 C162.29999999999927,14.42999999999995 162.39999999999964,14.378000000000043 162.5,14.378000000000043" />
<path d="M30.200000000000728,19.378000000000043 C30.5,19.378000000000043 30.799999999999272,19.861999999999966 31.200000000000728,20.831000000000017 C31.5,21.799999999999955 31.600000000000364,22.721000000000004 31.600000000000364,23.596000000000004 C31.600000000000364,24.336000000000013 31.5,25.07000000000005 31.100000000000364,25.799999999999955 C30.700000000000728,26.581000000000017 30.299999999999272,27.258000000000038 29.700000000000728,27.831000000000017 L28.100000000000364,29.628000000000043 C27.600000000000364,30.201000000000022 27.200000000000728,30.861999999999966 26.799999999999272,31.611999999999966 C26.399999999999636,32.34100000000001 26.299999999999272,33.08600000000001 26.299999999999272,33.846000000000004 L25.600000000000364,33.846000000000004 L25.600000000000364,28.846000000000004 L26.299999999999272,28.846000000000004 C26.600000000000364,28.628000000000043 27.100000000000364,28.274 27.799999999999272,27.783999999999992 C28.100000000000364,27.55499999999995 28.600000000000364,27.163999999999987 29.200000000000728,26.611999999999966 C29.700000000000728,26.14300000000003 30.100000000000364,25.663999999999987 30.399999999999636,25.174999999999955 C30.700000000000728,24.653999999999996 30.799999999999272,24.128000000000043 30.799999999999272,23.596000000000004 C30.799999999999272,22.35699999999997 30.399999999999636,21.121999999999957 29.700000000000728,19.89300000000003 C29.700000000000728,19.89300000000003 29.700000000000728,19.866999999999962 29.700000000000728,19.815000000000055 C29.700000000000728,19.701000000000022 29.799999999999272,19.60699999999997 29.799999999999272,19.533999999999992 C29.899999999999636,19.42999999999995 30.100000000000364,19.378000000000043 30.200000000000728,19.378000000000043" />
<polyline points="0.0,13.846000000000004 190.60000000000036,13.846000000000004" fill="none" stroke="#000000" stroke-width="0.40" />
<polyline points="0.0,18.846000000000004 190.60000000000036,18.846000000000004" fill="none" stroke="#000000" stroke-width="0.40" />
<polyline points="0.0,23.846000000000004 190.60000000000036,23.846000000000004" fill="none" stroke="#000000" stroke-width="0.40" />
<polyline points="0.0,28.846000000000004 190.60000000000036,28.846000000000004" fill="none" stroke="#000000" stroke-width="0.40" />
<polyline points="0.0,33.846000000000004 190.60000000000036,33.846000000000004" fill="none" stroke="#000000" stroke-width="0.40" />
<polyline points="0.0,66.346 190.60000000000036,66.346" fill="none" stroke="#000000" stroke-width="0.40" />
<polyline points="0.0,71.346 190.60000000000036,71.346" fill="none" stroke="#000000" stroke-width="0.40" />
<polyline points="0.0,76.346 190.60000000000036,76.346" fill="none" stroke="#000000" stroke-width="0.40" />
<polyline points="0.0,81.346 190.60000000000036,81.346" fill="none" stroke="#000000" stroke-width="0.40" />
<polyline points="0.0,86.346 190.60000000000036,86.346" fill="none" stroke="#000000" stroke-width="0.40" />
<polyline points="190.20000000000073,66.346 190.20000000000073,86.346" fill="" stroke="#000000" stroke-width="0.80" />
<polyline points="190.20000000000073,13.846000000000004 190.20000000000073,33.846000000000004" fill="" stroke="#000000" stroke-width="0.80" />
<polyline points="174.20000000000073,74.78599999999994 174.20000000000073,90.096" fill="" stroke="#000000" stroke-width="0.65" />
<polyline points="157.89999999999964,65.90999999999997 157.89999999999964,90.096" fill="" stroke="#000000" stroke-width="0.65" />
<polyline points="158.29999999999927,12.285999999999945 158.29999999999927,28.846000000000004" fill="" stroke="#000000" stroke-width="0.65" />
<polyline points="126.10000000000036,65.90999999999997 126.10000000000036,90.096" fill="" stroke="#000000" stroke-width="0.65" />
<polyline points="94.29999999999927,65.90999999999997 94.29999999999927,98.846" fill="" stroke="#000000" stroke-width="0.65" />
<polyline points="94.70000000000073,12.285999999999945 94.70000000000073,27.596000000000004" fill="" stroke="#000000" stroke-width="0.65" />
<polyline points="62.5,65.90999999999997 62.5,98.846" fill="" stroke="#000000" stroke-width="0.65" />
<polyline points="62.899999999999636,12.285999999999945 62.899999999999636,27.596000000000004" fill="" stroke="#000000" stroke-width="0.65" />
<polyline points="41.899999999999636,74.78599999999994 41.899999999999636,90.096" fill="" stroke="#000000" stroke-width="0.65" />
<polyline points="25.600000000000364,65.90999999999997 25.600000000000364,90.096" fill="" stroke="#000000" stroke-width="0.65" />
<polyline points="26.0,17.285999999999945 26.0,33.846000000000004" fill="" stroke="#000000" stroke-width="0.65" />
<polyline points="247.29999999999927,13.846000000000004 255.0,13.846000000000004" fill="none" stroke="#000000" stroke-width="0.40" />
<polyline points="247.29999999999927,18.846000000000004 255.0,18.846000000000004" fill="none" stroke="#000000" stroke-width="0.40" />
<polyline points="247.29999999999927,23.846000000000004 255.0,23.846000000000004" fill="none" stroke="#000000" stroke-width="0.40" />
<polyline points="247.29999999999927,28.846000000000004 255.0,28.846000000000004" fill="none" stroke="#000000" stroke-width="0.40" />
<polyline points="247.29999999999927,33.846000000000004 255.0,33.846000000000004" fill="none" stroke="#000000" stroke-width="0.40" />
<polyline points="247.29999999999927,66.346 255.0,66.346" fill="none" stroke="#000000" stroke-width="0.40" />
<polyline points="247.29999999999927,71.346 255.0,71.346" fill="none" stroke="#000000" stroke-width="0.40" />
<polyline points="247.29999999999927,76.346 255.0,76.346" fill="none" stroke="#000000" stroke-width="0.40" />
<polyline points="247.29999999999927,81.346 255.0,81.346" fill="none" stroke="#000000" stroke-width="0.40" />
<polyline points="247.29999999999927,86.346 255.0,86.346" fill="none" stroke="#000000" stroke-width="0.40" />
<polyline points="247.70000000000073,0.0 247.70000000000073,86.346" fill="" stroke="#000000" stroke-width="0.80" />
</svg>
