<?xml version="1.0" encoding="UTF-8" standalone="yes"?>
<svg width="256.0px" height="256.0px" xmlns="http://www.w3.org/2000/svg" xmlns:xlink="http://www.w3.org/1999/xlink" version="1.2" baseProfile="tiny">
<path d="M17.770000000000437,71.096 C18.390000000000327,71.096 18.920000000000073,71.25800000000004 19.359999999999673,71.58100000000002 C19.76000000000022,71.93499999999995 19.949999999999818,72.37800000000004 19.949999999999818,72.90899999999999 C19.949999999999818,73.80499999999995 19.5,74.64300000000003 18.579999999999927,75.42499999999995 C17.640000000000327,76.20600000000002 16.640000000000327,76.596 15.5600000000004,76.596 C14.9399999999996,76.596 14.409999999999854,76.43499999999995 13.979999999999563,76.11199999999997 C13.579999999999927,75.75800000000004 13.38000000000011,75.31500000000005 13.38000000000011,74.78399999999999 C13.38000000000011,73.88800000000003 13.840000000000146,73.04999999999995 14.779999999999745,72.26800000000003 C15.699999999999818,71.48699999999997 16.6899999999996,71.096 17.770000000000437,71.096" />
<path d="M3.5399999999999636,61.096000000000004 C3.7899999999999636,61.096000000000004 3.9799999999995634,61.17999999999995 4.100000000000364,61.346000000000004 C4.239999999999782,61.524 4.3100000000004,61.70100000000002 4.3100000000004,61.87800000000004 C4.3100000000004,62.15899999999999 4.039999999999964,62.513000000000034 3.5200000000004366,62.940000000000055 C3.0,63.399 2.6899999999996,63.721000000000004 2.5900000000001455,63.90899999999999 C2.5,64.05499999999995 2.350000000000364,64.38800000000003 2.119999999999891,64.90899999999999 C1.9099999999998545,65.44000000000005 1.6700000000000728,65.85699999999997 1.4099999999998545,66.15899999999999 C1.1599999999998545,66.44000000000005 0.8599999999996726,66.58100000000002 0.5100000000002183,66.58100000000002 C0.38000000000010914,66.58100000000002 0.1499999999996362,66.54399999999998 -0.18999999999959982,66.471 C-0.5299999999997453,66.38800000000003 -0.7700000000004366,66.346 -0.930000000000291,66.346 C-1.0900000000001455,66.346 -1.3299999999999272,66.38800000000003 -1.6599999999998545,66.471 C-1.9799999999995634,66.55499999999995 -2.199999999999818,66.596 -2.3400000000001455,66.596 C-2.5900000000001455,66.596 -2.7799999999997453,66.51300000000003 -2.9099999999998545,66.346 C-3.0299999999997453,66.149 -3.0900000000001455,65.971 -3.0900000000001455,65.81500000000005 C-3.0900000000001455,65.53399999999999 -2.8299999999999272,65.17999999999995 -2.300000000000182,64.75300000000004 C-1.7799999999997453,64.29399999999998 -1.4700000000002547,63.971000000000004 -1.3699999999998909,63.78399999999999 C-1.3100000000004002,63.690000000000055 -1.1599999999998545,63.351999999999975 -0.8999999999996362,62.76800000000003 C-0.6899999999995998,62.236999999999966 -0.4600000000000364,61.82600000000002 -0.18999999999959982,61.53399999999999 C0.03999999999996362,61.25300000000004 0.3400000000001455,61.111999999999966 0.680000000000291,61.111999999999966 C0.8299999999999272,61.111999999999966 1.0600000000004002,61.149 1.3800000000001091,61.221000000000004 C1.7200000000002547,61.30499999999995 1.9700000000002547,61.346000000000004 2.130000000000109,61.346000000000004 C2.2799999999997453,61.346000000000004 2.5200000000004366,61.30499999999995 2.850000000000364,61.221000000000004 C3.1599999999998545,61.138000000000034 3.3900000000003274,61.096000000000004 3.5399999999999636,61.096000000000004" />
<path d="M1.7100000000000364,16.096000000000004 C2.3299999999999272,16.096000000000004 2.8599999999996726,16.258000000000038 3.300000000000182,16.581000000000017 C3.6899999999996,16.934999999999945 3.8900000000003274,17.378000000000043 3.8900000000003274,17.908999999999992 C3.8900000000003274,18.80499999999995 3.430000000000291,19.64300000000003 2.5200000000004366,20.424999999999955 C1.5799999999999272,21.206000000000017 0.569999999999709,21.596000000000004 -0.5,21.596000000000004 C-1.1199999999998909,21.596000000000004 -1.6499999999996362,21.434999999999945 -2.0799999999999272,21.111999999999966 C-2.4799999999995634,20.758000000000038 -2.6899999999996,20.315000000000055 -2.6899999999996,19.783999999999992 C-2.6899999999996,18.888000000000034 -2.2200000000002547,18.049999999999955 -1.2799999999997453,17.26800000000003 C-0.3599999999996726,16.486999999999966 0.6300000000001091,16.096000000000004 1.7100000000000364,16.096000000000004" />
<path d="M123.21000000000004,40.08100000000002 C123.21000000000004,40.33100000000002 123.09000000000015,40.45600000000002 122.85000000000036,40.45600000000002 C122.60000000000036,40.45600000000002 122.47999999999956,40.33100000000002 122.47999999999956,40.08100000000002 L122.47999999999956,37.190000000000055 L120.81999999999971,37.815000000000055 L120.81999999999971,40.971000000000004 C120.81999999999971,41.221000000000004 120.69999999999982,41.346000000000004 120.44999999999982,41.346000000000004 C120.19999999999982,41.346000000000004 120.06999999999971,41.221000000000004 120.06999999999971,40.971000000000004 L120.06999999999971,38.065000000000055 L119.44999999999982,38.299999999999955 C119.4399999999996,38.309999999999945 119.39000000000033,38.315000000000055 119.28999999999996,38.315000000000055 C119.1899999999996,38.315000000000055 119.10000000000036,38.275999999999954 119.02000000000044,38.19799999999998 C118.9399999999996,38.120000000000005 118.89999999999964,38.028999999999996 118.89999999999964,37.924999999999955 L118.89999999999964,36.721000000000004 C118.89999999999964,36.524 118.97999999999956,36.399 119.14999999999964,36.346000000000004 L120.06999999999971,36.03399999999999 L120.06999999999971,32.83100000000002 L119.44999999999982,33.049999999999955 C119.4399999999996,33.059999999999945 119.39000000000033,33.065000000000055 119.28999999999996,33.065000000000055 C119.1899999999996,33.065000000000055 119.10000000000036,33.025999999999954 119.02000000000044,32.94799999999998 C118.9399999999996,32.870000000000005 118.89999999999964,32.778999999999996 118.89999999999964,32.674999999999955 L118.89999999999964,31.456000000000017 C118.89999999999964,31.278999999999996 118.97999999999956,31.163999999999987 119.14999999999964,31.111999999999966 L120.06999999999971,30.753000000000043 L120.06999999999971,27.611999999999966 C120.06999999999971,27.361999999999966 120.19999999999982,27.236999999999966 120.44999999999982,27.236999999999966 C120.69999999999982,27.236999999999966 120.81999999999971,27.361999999999966 120.81999999999971,27.611999999999966 L120.81999999999971,30.503000000000043 L122.47999999999956,29.878000000000043 L122.47999999999956,26.721000000000004 C122.47999999999956,26.471000000000004 122.60000000000036,26.346000000000004 122.85000000000036,26.346000000000004 C123.09000000000015,26.346000000000004 123.21000000000004,26.471000000000004 123.21000000000004,26.721000000000004 L123.21000000000004,29.628000000000043 L123.86999999999989,29.39300000000003 C123.88000000000011,29.383000000000038 123.92000000000007,29.378000000000043 123.98999999999978,29.378000000000043 C124.09000000000015,29.378000000000043 124.1899999999996,29.413999999999987 124.28999999999996,29.486999999999966 C124.36999999999989,29.57000000000005 124.42000000000007,29.663999999999987 124.42000000000007,29.76800000000003 L124.42000000000007,30.971000000000004 C124.42000000000007,31.158999999999992 124.31999999999971,31.283999999999992 124.14000000000033,31.346000000000004 L123.21000000000004,31.658999999999992 L123.21000000000004,34.861999999999966 L123.86999999999989,34.64300000000003 C123.88000000000011,34.63300000000004 123.92000000000007,34.62800000000004 123.98999999999978,34.62800000000004 C124.09000000000015,34.62800000000004 124.1899999999996,34.66899999999998 124.28999999999996,34.75300000000004 C124.36999999999989,34.82600000000002 124.42000000000007,34.91399999999999 124.42000000000007,35.01800000000003 L124.42000000000007,36.236999999999966 C124.42000000000007,36.403999999999996 124.31999999999971,36.51800000000003 124.14000000000033,36.58100000000002 L123.21000000000004,36.940000000000055 L123.21000000000004,40.08100000000002 M122.47999999999956,31.956000000000017 L120.81999999999971,32.53399999999999 L120.81999999999971,35.736999999999966 L122.47999999999956,35.15899999999999 L122.47999999999956,31.956000000000017" />
<path d="M251.6899999999996,66.096 C252.3199999999997,66.096 252.85000000000036,66.25800000000004 253.28999999999996,66.58100000000002 C253.6800000000003,66.93499999999995 253.8800000000001,67.37800000000004 253.8800000000001,67.90899999999999 C253.8800000000001,68.80499999999995 253.42000000000007,69.64300000000003 252.51000000000022,70.42499999999995 C251.5699999999997,71.20600000000002 250.5600000000004,71.596 249.48999999999978,71.596 C248.8699999999999,71.596 248.34000000000015,71.43499999999995 247.90999999999985,71.11199999999997 C247.51000000000022,70.75800000000004 247.30000000000018,70.31500000000005 247.30000000000018,69.78399999999999 C247.30000000000018,68.88800000000003 247.77000000000044,68.04999999999995 248.71000000000004,67.26800000000003 C249.6300000000001,66.48699999999997 250.6199999999999,66.096 251.6899999999996,66.096" />
<path d="M251.6899999999996,31.096000000000004 C252.3199999999997,31.096000000000004 252.85000000000036,31.258000000000038 253.28999999999996,31.581000000000017 C253.6800000000003,31.934999999999945 253.8800000000001,32.37800000000004 253.8800000000001,32.90899999999999 C253.8800000000001,33.80499999999995 253.42000000000007,34.64300000000003 252.51000000000022,35.424999999999955 C251.5699999999997,36.20600000000002 250.5600000000004,36.596000000000004 249.48999999999978,36.596000000000004 C248.8699999999999,36.596000000000004 248.34000000000015,36.434999999999945 247.90999999999985,36.111999999999966 C247.51000000000022,35.75800000000004 247.30000000000018,35.315000000000055 247.30000000000018,34.78399999999999 C247.30000000000018,33.888000000000034 247.77000000000044,33.049999999999955 248.71000000000004,32.26800000000003 C249.6300000000001,31.486999999999966 250.6199999999999,31.096000000000004 251.6899999999996,31.096000000000004" />
<path d="M234.28999999999996,66.096 C234.92000000000007,66.096 235.44999999999982,66.25800000000004 235.89000000000033,66.58100000000002 C236.27999999999975,66.93499999999995 236.47999999999956,67.37800000000004 236.47999999999956,67.90899999999999 C236.47999999999956,68.80499999999995 236.02000000000044,69.64300000000003 235.10999999999967,70.42499999999995 C234.17000000000007,71.20600000000002 233.15999999999985,71.596 232.09000000000015,71.596 C231.47000000000025,71.596 230.9399999999996,71.43499999999995 230.51000000000022,71.11199999999997 C230.10999999999967,70.75800000000004 229.89999999999964,70.31500000000005 229.89999999999964,69.78399999999999 C229.89999999999964,68.88800000000003 230.3699999999999,68.04999999999995 231.3100000000004,67.26800000000003 C232.22999999999956,66.48699999999997 233.22000000000025,66.096 234.28999999999996,66.096" />
<path d="M234.28999999999996,31.096000000000004 C234.92000000000007,31.096000000000004 235.44999999999982,31.258000000000038 235.89000000000033,31.581000000000017 C236.27999999999975,31.934999999999945 236.47999999999956,32.37800000000004 236.47999999999956,32.90899999999999 C236.47999999999956,33.80499999999995 236.02000000000044,34.64300000000003 235.10999999999967,35.424999999999955 C234.17000000000007,36.20600000000002 233.15999999999985,36.596000000000004 232.09000000000015,36.596000000000004 C231.47000000000025,36.596000000000004 230.9399999999996,36.434999999999945 230.51000000000022,36.111999999999966 C230.10999999999967,35.75800000000004 229.89999999999964,35.315000000000055 229.89999999999964,34.78399999999999 C229.89999999999964,33.888000000000034 230.3699999999999,33.049999999999955 231.3100000000004,32.26800000000003 C232.22999999999956,31.486999999999966 233.22000000000025,31.096000000000004 234.28999999999996,31.096000000000004" />
<path d="M216.89999999999964,71.096 C217.52000000000044,71.096 218.05000000000018,71.25800000000004 218.48999999999978,71.58100000000002 C218.8800000000001,71.93499999999995 219.07999999999993,72.37800000000004 219.07999999999993,72.90899999999999 C219.07999999999993,73.80499999999995 218.6199999999999,74.64300000000003 217.71000000000004,75.42499999999995 C216.77000000000044,76.20600000000002 215.77000000000044,76.596 214.6899999999996,76.596 C214.0699999999997,76.596 213.53999999999996,76.43499999999995 213.10999999999967,76.11199999999997 C212.71000000000004,75.75800000000004 212.5,75.31500000000005 212.5,74.78399999999999 C212.5,73.88800000000003 212.97000000000025,73.04999999999995 213.90999999999985,72.26800000000003 C214.82999999999993,71.48699999999997 215.8199999999997,71.096 216.89999999999964,71.096" />
<path d="M216.89999999999964,31.096000000000004 C217.52000000000044,31.096000000000004 218.05000000000018,31.258000000000038 218.48999999999978,31.581000000000017 C218.8800000000001,31.934999999999945 219.07999999999993,32.37800000000004 219.07999999999993,32.90899999999999 C219.07999999999993,33.80499999999995 218.6199999999999,34.64300000000003 217.71000000000004,35.424999999999955 C216.77000000000044,36.20600000000002 215.77000000000044,36.596000000000004 214.6899999999996,36.596000000000004 C214.0699999999997,36.596000000000004 213.53999999999996,36.434999999999945 213.10999999999967,36.111999999999966 C212.71000000000004,35.75800000000004 212.5,35.315000000000055 212.5,34.78399999999999 C212.5,33.888000000000034 212.97000000000025,33.049999999999955 213.90999999999985,32.26800000000003 C214.82999999999993,31.486999999999966 215.8199999999997,31.096000000000004 216.89999999999964,31.096000000000004" />
<path d="M199.5,71.096 C200.1199999999999,71.096 200.64999999999964,71.25800000000004 201.09000000000015,71.58100000000002 C201.48999999999978,71.93499999999995 201.6800000000003,72.37800000000004 201.6800000000003,72.90899999999999 C201.6800000000003,73.80499999999995 201.22999999999956,74.64300000000003 200.3100000000004,75.42499999999995 C199.3699999999999,76.20600000000002 198.3699999999999,76.596 197.28999999999996,76.596 C196.67000000000007,76.596 196.14000000000033,76.43499999999995 195.71000000000004,76.11199999999997 C195.3100000000004,75.75800000000004 195.10999999999967,75.31500000000005 195.10999999999967,74.78399999999999 C195.10999999999967,73.88800000000003 195.5699999999997,73.04999999999995 196.51000000000022,72.26800000000003 C197.4300000000003,71.48699999999997 198.42000000000007,71.096 199.5,71.096" />
<path d="M199.5,31.096000000000004 C200.1199999999999,31.096000000000004 200.64999999999964,31.258000000000038 201.09000000000015,31.581000000000017 C201.48999999999978,31.934999999999945 201.6800000000003,32.37800000000004 201.6800000000003,32.90899999999999 C201.6800000000003,33.80499999999995 201.22999999999956,34.64300000000003 200.3100000000004,35.424999999999955 C199.3699999999999,36.20600000000002 198.3699999999999,36.596000000000004 197.28999999999996,36.596000000000004 C196.67000000000007,36.596000000000004 196.14000000000033,36.434999999999945 195.71000000000004,36.111999999999966 C195.3100000000004,35.75800000000004 195.10999999999967,35.315000000000055 195.10999999999967,34.78399999999999 C195.10999999999967,33.888000000000034 195.5699999999997,33.049999999999955 196.51000000000022,32.26800000000003 C197.4300000000003,31.486999999999966 198.42000000000007,31.096000000000004 199.5,31.096000000000004" />
<path d="M182.10000000000036,66.096 C182.72000000000025,66.096 183.25,66.25800000000004 183.6899999999996,66.58100000000002 C184.09000000000015,66.93499999999995 184.27999999999975,67.37800000000004 184.27999999999975,67.90899999999999 C184.27999999999975,68.80499999999995 183.82999999999993,69.64300000000003 182.90999999999985,70.42499999999995 C181.97000000000025,71.20600000000002 180.97000000000025,71.596 179.89000000000033,71.596 C179.27000000000044,71.596 178.73999999999978,71.43499999999995 178.3199999999997,71.11199999999997 C177.90999999999985,70.75800000000004 177.71000000000004,70.31500000000005 177.71000000000004,69.78399999999999 C177.71000000000004,68.88800000000003 178.1800000000003,68.04999999999995 179.10999999999967,67.26800000000003 C180.02999999999975,66.48699999999997 181.02000000000044,66.096 182.10000000000036,66.096" />
<path d="M164.69999999999982,66.096 C165.3199999999997,66.096 165.85000000000036,66.25800000000004 166.28999999999996,66.58100000000002 C166.6899999999996,66.93499999999995 166.89000000000033,67.37800000000004 166.89000000000033,67.90899999999999 C166.89000000000033,68.80499999999995 166.4300000000003,69.64300000000003 165.51000000000022,70.42499999999995 C164.5699999999997,71.20600000000002 163.5699999999997,71.596 162.48999999999978,71.596 C161.8699999999999,71.596 161.34000000000015,71.43499999999995 160.92000000000007,71.11199999999997 C160.51000000000022,70.75800000000004 160.3100000000004,70.31500000000005 160.3100000000004,69.78399999999999 C160.3100000000004,68.88800000000003 160.77999999999975,68.04999999999995 161.71000000000004,67.26800000000003 C162.6300000000001,66.48699999999997 163.6199999999999,66.096 164.69999999999982,66.096" />
<path d="M147.30000000000018,66.096 C147.92000000000007,66.096 148.44999999999982,66.25800000000004 148.89000000000033,66.58100000000002 C149.28999999999996,66.93499999999995 149.48999999999978,67.37800000000004 149.48999999999978,67.90899999999999 C149.48999999999978,68.80499999999995 149.02999999999975,69.64300000000003 148.10999999999967,70.42499999999995 C147.17000000000007,71.20600000000002 146.17000000000007,71.596 145.10000000000036,71.596 C144.47000000000025,71.596 143.9399999999996,71.43499999999995 143.52000000000044,71.11199999999997 C143.10999999999967,70.75800000000004 142.90999999999985,70.31500000000005 142.90999999999985,69.78399999999999 C142.90999999999985,68.88800000000003 143.3800000000001,68.04999999999995 144.3100000000004,67.26800000000003 C145.22999999999956,66.48699999999997 146.22999999999956,66.096 147.30000000000018,66.096" />
<path d="M129.89999999999964,66.096 C130.52000000000044,66.096 131.0600000000004,66.25800000000004 131.48999999999978,66.58100000000002 C131.89000000000033,66.93499999999995 132.09000000000015,67.37800000000004 132.09000000000015,67.90899999999999 C132.09000000000015,68.80499999999995 131.6300000000001,69.64300000000003 130.71000000000004,70.42499999999995 C129.77000000000044,71.20600000000002 128.77000000000044,71.596 127.69999999999982,71.596 C127.06999999999971,71.596 126.55000000000018,71.43499999999995 126.11999999999989,71.11199999999997 C125.71000000000004,70.75800000000004 125.51000000000022,70.31500000000005 125.51000000000022,69.78399999999999 C125.51000000000022,68.88800000000003 125.97999999999956,68.04999999999995 126.92000000000007,67.26800000000003 C127.82999999999993,66.48699999999997 128.82999999999993,66.096 129.89999999999964,66.096" />
<path d="M129.89999999999964,31.096000000000004 C130.52000000000044,31.096000000000004 131.0600000000004,31.258000000000038 131.48999999999978,31.581000000000017 C131.89000000000033,31.934999999999945 132.09000000000015,32.37800000000004 132.09000000000015,32.90899999999999 C132.09000000000015,33.80499999999995 131.6300000000001,34.64300000000003 130.71000000000004,35.424999999999955 C129.77000000000044,36.20600000000002 128.77000000000044,36.596000000000004 127.69999999999982,36.596000000000004 C127.06999999999971,36.596000000000004 126.55000000000018,36.434999999999945 126.11999999999989,36.111999999999966 C125.71000000000004,35.75800000000004 125.51000000000022,35.315000000000055 125.51000000000022,34.78399999999999 C125.51000000000022,33.888000000000034 125.97999999999956,33.049999999999955 126.92000000000007,32.26800000000003 C127.82999999999993,31.486999999999966 128.82999999999993,31.096000000000004 129.89999999999964,31.096000000000004" />
<path d="M100.73999999999978,81.346 L98.89999999999964,81.346 C98.75,81.346 98.68000000000029,81.28399999999999 98.68000000000029,81.15899999999999 L98.68000000000029,71.53399999999999 C98.68000000000029,71.40899999999999 98.75,71.346 98.89999999999964,71.346 L100.73999999999978,71.346 C100.86999999999989,71.346 100.93000000000029,71.40899999999999 100.93000000000029,71.53399999999999 L100.93000000000029,81.15899999999999 C100.93000000000029,81.28399999999999 100.86999999999989,81.346 100.73999999999978,81.346 M96.31999999999971,81.346 L94.46000000000004,81.346 C94.34000000000015,81.346 94.27000000000044,81.28399999999999 94.27000000000044,81.15899999999999 L94.27000000000044,71.53399999999999 C94.27000000000044,71.40899999999999 94.34000000000015,71.346 94.46000000000004,71.346 L96.31999999999971,71.346 C96.47000000000025,71.346 96.53999999999996,71.40899999999999 96.53999999999996,71.53399999999999 L96.53999999999996,81.15899999999999 C96.53999999999996,81.28399999999999 96.47000000000025,81.346 96.31999999999971,81.346" />
<path d="M96.23999999999978,37.40899999999999 C96.59000000000015,37.04399999999998 96.76000000000022,36.70600000000002 96.76000000000022,36.39300000000003 C96.72999999999956,36.101999999999975 96.60999999999967,35.88300000000004 96.39999999999964,35.736999999999966 C96.17000000000007,35.58100000000002 95.89999999999964,35.50300000000004 95.59000000000015,35.50300000000004 C95.35999999999967,35.50300000000004 95.17000000000007,35.57600000000002 95.03999999999996,35.721000000000004 C94.89999999999964,35.85699999999997 94.84000000000015,36.01800000000003 94.84000000000015,36.20600000000002 C94.84000000000015,36.44500000000005 94.93000000000029,36.62199999999996 95.13000000000011,36.736999999999966 L96.23999999999978,37.40899999999999 M96.55000000000018,37.565000000000055 C97.10999999999967,37.85699999999997 97.38000000000011,38.263000000000034 97.38000000000011,38.78399999999999 C97.38000000000011,38.78399999999999 97.38000000000011,38.80499999999995 97.38000000000011,38.846000000000004 C97.38000000000011,39.24199999999996 97.22000000000025,39.57600000000002 96.88000000000011,39.846000000000004 C96.5600000000004,40.12800000000004 96.10000000000036,40.26800000000003 95.51000000000022,40.26800000000003 C95.01000000000022,40.26800000000003 94.56999999999971,40.138000000000034 94.21000000000004,39.87800000000004 C93.85000000000036,39.638000000000034 93.65999999999985,39.309999999999945 93.65999999999985,38.89300000000003 C93.65999999999985,38.70600000000002 93.71000000000004,38.53899999999999 93.80000000000018,38.39300000000003 C93.90999999999985,38.226999999999975 93.98999999999978,38.111999999999966 94.05000000000018,38.049999999999955 C94.05000000000018,38.049999999999955 94.18000000000029,37.924999999999955 94.43000000000029,37.674999999999955 C94.02000000000044,37.403999999999996 93.81999999999971,37.05499999999995 93.81999999999971,36.62800000000004 C93.81999999999971,36.263000000000034 93.97999999999956,35.940000000000055 94.28999999999996,35.65899999999999 C94.60999999999967,35.399 95.03999999999996,35.26800000000003 95.59000000000015,35.26800000000003 C96.02000000000044,35.26800000000003 96.39999999999964,35.36699999999996 96.71000000000004,35.565000000000055 C97.02000000000044,35.763000000000034 97.18000000000029,36.03899999999999 97.18000000000029,36.39300000000003 C97.18000000000029,36.726999999999975 96.97000000000025,37.11699999999996 96.55000000000018,37.565000000000055 M94.72999999999956,37.846000000000004 C94.32999999999993,38.190000000000055 94.11999999999989,38.53899999999999 94.10000000000036,38.89300000000003 C94.11999999999989,39.226999999999975 94.26000000000022,39.49699999999996 94.52000000000044,39.70600000000002 C94.8100000000004,39.924999999999955 95.14000000000033,40.03399999999999 95.51000000000022,40.03399999999999 C95.77000000000044,40.03399999999999 95.97999999999956,39.95100000000002 96.13000000000011,39.78399999999999 C96.28999999999996,39.62800000000004 96.36999999999989,39.434999999999945 96.36999999999989,39.20600000000002 C96.34000000000015,38.924999999999955 96.22000000000025,38.721000000000004 96.01000000000022,38.596000000000004 L94.72999999999956,37.846000000000004 M102.35999999999967,17.065000000000055 C102.17000000000007,16.866999999999962 102.06999999999971,16.625 102.06999999999971,16.339000000000055 C102.06999999999971,16.05200000000002 102.17000000000007,15.812999999999988 102.35999999999967,15.620000000000005 C102.55000000000018,15.427000000000021 102.78999999999996,15.331000000000017 103.07999999999993,15.331000000000017 C103.35999999999967,15.331000000000017 103.60999999999967,15.427000000000021 103.80000000000018,15.620000000000005 C104.0,15.812999999999988 104.10000000000036,16.05200000000002 104.10000000000036,16.339000000000055 C104.10000000000036,16.625 104.0,16.866999999999962 103.80000000000018,17.065000000000055 C103.60999999999967,17.263000000000034 103.35999999999967,17.361999999999966 103.07999999999993,17.361999999999966 C102.78999999999996,17.361999999999966 102.55000000000018,17.263000000000034 102.35999999999967,17.065000000000055 M102.35999999999967,22.07299999999998 C102.17000000000007,21.879999999999995 102.06999999999971,21.640999999999963 102.06999999999971,21.354000000000042 C102.06999999999971,21.067999999999984 102.17000000000007,20.826000000000022 102.35999999999967,20.628000000000043 C102.55000000000018,20.42999999999995 102.78999999999996,20.331000000000017 103.07999999999993,20.331000000000017 C103.35999999999967,20.331000000000017 103.60999999999967,20.42999999999995 103.80000000000018,20.628000000000043 C104.0,20.826000000000022 104.10000000000036,21.067999999999984 104.10000000000036,21.354000000000042 C104.10000000000036,21.640999999999963 104.0,21.879999999999995 103.80000000000018,22.07299999999998 C103.60999999999967,22.265999999999963 103.35999999999967,22.361999999999966 103.07999999999993,22.361999999999966 C102.78999999999996,22.361999999999966 102.55000000000018,22.265999999999963 102.35999999999967,22.07299999999998 M95.59000000000015,13.596000000000004 C97.3100000000004,13.596000000000004 98.72999999999956,14.028999999999996 99.84000000000015,14.893000000000029 C100.90999999999985,15.809999999999945 101.4399999999996,17.049999999999955 101.4399999999996,18.611999999999966 C101.4399999999996,19.663999999999987 101.23999999999978,20.628000000000043 100.81999999999971,21.503000000000043 C100.42000000000007,22.418999999999983 99.90999999999985,23.226999999999975 99.27000000000044,23.924999999999955 C98.61999999999989,24.64300000000003 97.82999999999993,25.32000000000005 96.90999999999985,25.956000000000017 C96.01000000000022,26.581000000000017 95.07999999999993,27.14300000000003 94.13000000000011,27.64300000000003 C92.21000000000004,28.611999999999966 91.14000000000033,29.096000000000004 90.93000000000029,29.096000000000004 C90.76000000000022,29.096000000000004 90.68000000000029,29.013000000000034 90.68000000000029,28.846000000000004 C90.68000000000029,28.783999999999992 90.71000000000004,28.726999999999975 90.76000000000022,28.674999999999955 C91.42000000000007,28.278999999999996 92.23999999999978,27.778999999999996 93.1899999999996,27.174999999999955 C93.81999999999971,26.76800000000003 94.55000000000018,26.206000000000017 95.38000000000011,25.486999999999966 C96.1899999999996,24.809999999999945 96.81999999999971,24.174999999999955 97.26000000000022,23.581000000000017 C97.72000000000025,22.986999999999966 98.13000000000011,22.258000000000038 98.51000000000022,21.39300000000003 C98.82999999999993,20.51800000000003 98.98999999999978,19.653999999999996 98.98999999999978,18.799999999999955 C98.98999999999978,17.538999999999987 98.68000000000029,16.440000000000055 98.05000000000018,15.503000000000043 C97.43000000000029,14.565000000000055 96.60999999999967,14.096000000000004 95.59000000000015,14.096000000000004 C94.85999999999967,14.096000000000004 94.22999999999956,14.331000000000017 93.71000000000004,14.799999999999955 C93.14999999999964,15.278999999999996 92.73999999999978,15.883000000000038 92.48999999999978,16.611999999999966 C92.73999999999978,16.508000000000038 92.97000000000025,16.456000000000017 93.18000000000029,16.456000000000017 C93.72000000000025,16.456000000000017 94.1899999999996,16.653999999999996 94.59000000000015,17.049999999999955 C94.97000000000025,17.466000000000008 95.15999999999985,17.940000000000055 95.15999999999985,18.471000000000004 C95.15999999999985,19.033999999999992 94.97999999999956,19.538999999999987 94.60000000000036,19.986999999999966 C94.1899999999996,20.383000000000038 93.72000000000025,20.581000000000017 93.18000000000029,20.581000000000017 C92.60000000000036,20.581000000000017 92.06999999999971,20.383000000000038 91.60000000000036,19.986999999999966 C91.14999999999964,19.538999999999987 90.93000000000029,19.033999999999992 90.93000000000029,18.471000000000004 C90.93000000000029,17.128000000000043 91.39000000000033,15.981999999999971 92.30000000000018,15.033999999999992 C93.19999999999982,14.076000000000022 94.28999999999996,13.596000000000004 95.59000000000015,13.596000000000004" />
<path d="M124.64000000000033,101.26800000000003 L123.6899999999996,104.36199999999997 C123.35000000000036,105.47699999999998 122.80000000000018,106.55499999999995 122.01000000000022,107.596 C121.22000000000025,108.63800000000003 120.40999999999985,109.15899999999999 119.59000000000015,109.15899999999999 C119.15999999999985,109.15899999999999 118.78999999999996,109.04700000000003 118.46000000000004,108.82299999999998 C118.13000000000011,108.59900000000005 117.97000000000025,108.30999999999995 117.97000000000025,107.95600000000002 C117.97000000000025,107.54999999999995 118.05000000000018,107.20600000000002 118.22000000000025,106.92499999999995 C118.39000000000033,106.654 118.64000000000033,106.50800000000004 118.94999999999982,106.48699999999997 C119.18000000000029,106.48699999999997 119.36999999999989,106.57000000000005 119.52999999999975,106.73699999999997 C119.6899999999996,106.904 119.76000000000022,107.096 119.76000000000022,107.31500000000005 C119.76000000000022,107.51300000000003 119.64999999999964,107.69500000000005 119.42000000000007,107.86199999999997 C119.18000000000029,108.00800000000004 119.0600000000004,108.17499999999995 119.05000000000018,108.36199999999997 C119.05000000000018,108.48699999999997 119.1899999999996,108.54999999999995 119.47000000000025,108.54999999999995 L119.59000000000015,108.54999999999995 C119.64999999999964,108.54999999999995 119.75,108.53399999999999 119.86999999999989,108.50300000000004 C119.94999999999982,108.49199999999996 120.02999999999975,108.45100000000002 120.14000000000033,108.37800000000004 C120.14000000000033,108.37800000000004 120.19999999999982,108.32600000000002 120.32999999999993,108.221 C120.40999999999985,108.10699999999997 120.46000000000004,108.024 120.47999999999956,107.971 C120.52000000000044,107.86699999999996 120.5600000000004,107.78399999999999 120.59000000000015,107.721 C120.63000000000011,107.67999999999995 120.67000000000007,107.57600000000002 120.69999999999982,107.40899999999999 C120.72000000000025,107.36699999999996 120.73999999999978,107.32000000000005 120.75,107.26800000000003 C120.76000000000022,107.21600000000001 120.77000000000044,107.17999999999995 120.77999999999975,107.15899999999999 C120.78999999999996,107.13800000000003 120.80000000000018,107.12199999999996 120.80000000000018,107.11199999999997 C120.85000000000036,106.904 120.88000000000011,106.779 120.89999999999964,106.73699999999997 C120.94999999999982,106.529 120.97000000000025,106.42499999999995 120.97000000000025,106.42499999999995 L122.25,101.26800000000003 L121.26000000000022,101.26800000000003 C121.17000000000007,101.26800000000003 121.10000000000036,101.23699999999997 121.0600000000004,101.17499999999995 C121.01000000000022,101.09100000000001 120.97999999999956,101.01800000000003 120.97999999999956,100.95600000000002 C120.97999999999956,100.87199999999996 121.01000000000022,100.79999999999995 121.0600000000004,100.73699999999997 C121.14000000000033,100.67499999999995 121.21000000000004,100.64300000000003 121.26000000000022,100.64300000000003 L122.4399999999996,100.64300000000003 C122.76000000000022,99.66399999999999 123.30000000000018,98.82000000000005 124.05000000000018,98.11199999999997 C124.77999999999975,97.38300000000004 125.57999999999993,97.01800000000003 126.4399999999996,97.01800000000003 C126.89000000000033,97.01800000000003 127.27000000000044,97.13300000000004 127.57999999999993,97.36199999999997 C127.89999999999964,97.58100000000002 128.0699999999997,97.86699999999996 128.07999999999993,98.221 C128.07999999999993,98.60699999999997 127.98999999999978,98.95100000000002 127.82999999999993,99.25300000000004 C127.63000000000011,99.524 127.38000000000011,99.66399999999999 127.09000000000015,99.67499999999995 C126.85999999999967,99.67499999999995 126.67000000000007,99.59400000000005 126.51000000000022,99.43200000000002 C126.35999999999967,99.27099999999996 126.27999999999975,99.08100000000002 126.27999999999975,98.86199999999997 C126.27999999999975,98.67499999999995 126.39999999999964,98.50300000000004 126.64000000000033,98.346 C126.88000000000011,98.19000000000005 126.98999999999978,98.01300000000003 126.97999999999956,97.81500000000005 C126.97999999999956,97.66899999999998 126.85000000000036,97.60199999999998 126.57999999999993,97.61199999999997 L126.52999999999975,97.61199999999997 C126.5,97.63300000000004 126.47000000000025,97.63800000000003 126.4399999999996,97.62800000000004 C126.21000000000004,97.62800000000004 126.01000000000022,97.68499999999995 125.85999999999967,97.79999999999995 C125.69999999999982,97.904 125.5600000000004,98.09100000000001 125.42000000000007,98.36199999999997 C125.38000000000011,98.43499999999995 125.34000000000015,98.50800000000004 125.31999999999971,98.58100000000002 C125.28999999999996,98.654 125.26000000000022,98.73400000000004 125.22999999999956,98.82299999999998 C125.19999999999982,98.91200000000003 125.18000000000029,98.971 125.14999999999964,99.00300000000004 C125.14000000000033,99.06500000000005 125.11999999999989,99.19500000000005 125.09000000000015,99.39300000000003 C125.05000000000018,99.58100000000002 125.01000000000022,99.74199999999996 124.97999999999956,99.87800000000004 C124.89999999999964,100.274 124.84000000000015,100.529 124.8100000000004,100.64300000000003 L125.89000000000033,100.64300000000003 C125.97000000000025,100.64300000000003 126.05000000000018,100.67200000000003 126.11999999999989,100.72900000000004 C126.18000000000029,100.78700000000003 126.22000000000025,100.85900000000004 126.22000000000025,100.94799999999998 C126.22000000000025,101.03700000000003 126.18000000000029,101.11199999999997 126.11999999999989,101.17499999999995 C126.05000000000018,101.23699999999997 125.97000000000025,101.26800000000003 125.89000000000033,101.26800000000003 L124.64000000000033,101.26800000000003 M129.92000000000007,101.26800000000003 L128.97000000000025,104.36199999999997 C128.6300000000001,105.47699999999998 128.07999999999993,106.55499999999995 127.30000000000018,107.596 C126.5,108.63800000000003 125.69999999999982,109.15899999999999 124.86999999999989,109.15899999999999 C124.44999999999982,109.15899999999999 124.06999999999971,109.04700000000003 123.73999999999978,108.82299999999998 C123.40999999999985,108.59900000000005 123.25,108.30999999999995 123.25,107.95600000000002 C123.25,107.54999999999995 123.32999999999993,107.20600000000002 123.5,106.92499999999995 C123.68000000000029,106.654 123.92000000000007,106.50800000000004 124.22999999999956,106.48699999999997 C124.46000000000004,106.48699999999997 124.64999999999964,106.57000000000005 124.8100000000004,106.73699999999997 C124.97000000000025,106.904 125.05000000000018,107.096 125.05000000000018,107.31500000000005 C125.05000000000018,107.51300000000003 124.93000000000029,107.69500000000005 124.69999999999982,107.86199999999997 C124.46000000000004,108.00800000000004 124.34000000000015,108.17499999999995 124.32999999999993,108.36199999999997 C124.32999999999993,108.48699999999997 124.47000000000025,108.54999999999995 124.75,108.54999999999995 L124.86999999999989,108.54999999999995 C124.9399999999996,108.54999999999995 125.02999999999975,108.53399999999999 125.14999999999964,108.50300000000004 C125.22999999999956,108.49199999999996 125.31999999999971,108.45100000000002 125.42000000000007,108.37800000000004 C125.42000000000007,108.37800000000004 125.47999999999956,108.32600000000002 125.60999999999967,108.221 C125.6899999999996,108.10699999999997 125.73999999999978,108.024 125.76000000000022,107.971 C125.8100000000004,107.86699999999996 125.84000000000015,107.78399999999999 125.86999999999989,107.721 C125.90999999999985,107.67999999999995 125.94999999999982,107.57600000000002 125.97999999999956,107.40899999999999 C126.0,107.36699999999996 126.02000000000044,107.32000000000005 126.02999999999975,107.26800000000003 C126.03999999999996,107.21600000000001 126.05000000000018,107.17999999999995 126.0600000000004,107.15899999999999 C126.06999999999971,107.13800000000003 126.07999999999993,107.12199999999996 126.07999999999993,107.11199999999997 C126.13000000000011,106.904 126.15999999999985,106.779 126.1899999999996,106.73699999999997 C126.22999999999956,106.529 126.25,106.42499999999995 126.25,106.42499999999995 L127.52999999999975,101.26800000000003 L126.55000000000018,101.26800000000003 C126.44999999999982,101.26800000000003 126.38000000000011,101.23699999999997 126.34000000000015,101.17499999999995 C126.28999999999996,101.09100000000001 126.26000000000022,101.01800000000003 126.26000000000022,100.95600000000002 C126.26000000000022,100.87199999999996 126.28999999999996,100.79999999999995 126.34000000000015,100.73699999999997 C126.43000000000029,100.67499999999995 126.48999999999978,100.64300000000003 126.55000000000018,100.64300000000003 L127.72000000000025,100.64300000000003 C128.03999999999996,99.66399999999999 128.57999999999993,98.82000000000005 129.32999999999993,98.11199999999997 C130.0699999999997,97.38300000000004 130.85999999999967,97.01800000000003 131.72000000000025,97.01800000000003 C132.1800000000003,97.01800000000003 132.5600000000004,97.13300000000004 132.85999999999967,97.36199999999997 C133.1800000000003,97.58100000000002 133.35000000000036,97.86699999999996 133.35999999999967,98.221 C133.35999999999967,98.60699999999997 133.27000000000044,98.95100000000002 133.10999999999967,99.25300000000004 C132.90999999999985,99.524 132.65999999999985,99.66399999999999 132.3699999999999,99.67499999999995 C132.14000000000033,99.67499999999995 131.94999999999982,99.59400000000005 131.80000000000018,99.43200000000002 C131.64000000000033,99.27099999999996 131.5600000000004,99.08100000000002 131.5600000000004,98.86199999999997 C131.5600000000004,98.67499999999995 131.6800000000003,98.50300000000004 131.92000000000007,98.346 C132.15999999999985,98.19000000000005 132.27000000000044,98.01300000000003 132.26000000000022,97.81500000000005 C132.26000000000022,97.66899999999998 132.1300000000001,97.60199999999998 131.85999999999967,97.61199999999997 L131.8100000000004,97.61199999999997 C131.77999999999975,97.63300000000004 131.75,97.63800000000003 131.72000000000025,97.62800000000004 C131.48999999999978,97.62800000000004 131.30000000000018,97.68499999999995 131.14000000000033,97.79999999999995 C130.97999999999956,97.904 130.84000000000015,98.09100000000001 130.69999999999982,98.36199999999997 C130.65999999999985,98.43499999999995 130.6300000000001,98.50800000000004 130.60000000000036,98.58100000000002 C130.5699999999997,98.654 130.55000000000018,98.73400000000004 130.51000000000022,98.82299999999998 C130.47999999999956,98.91200000000003 130.46000000000004,98.971 130.4399999999996,99.00300000000004 C130.4300000000003,99.06500000000005 130.39999999999964,99.19500000000005 130.3699999999999,99.39300000000003 C130.32999999999993,99.58100000000002 130.30000000000018,99.74199999999996 130.26000000000022,99.87800000000004 C130.1800000000003,100.274 130.1199999999999,100.529 130.09000000000015,100.64300000000003 L131.17000000000007,100.64300000000003 C131.25,100.64300000000003 131.32999999999993,100.67200000000003 131.39999999999964,100.72900000000004 C131.46000000000004,100.78700000000003 131.5,100.85900000000004 131.5,100.94799999999998 C131.5,101.03700000000003 131.46000000000004,101.11199999999997 131.39999999999964,101.17499999999995 C131.32999999999993,101.23699999999997 131.25,101.26800000000003 131.17000000000007,101.26800000000003 L129.92000000000007,101.26800000000003" />
<path d="M195.10999999999967,88.846 L247.94999999999982,85.04999999999995 L247.94999999999982,87.54999999999995 L195.10999999999967,91.346 L195.10999999999967,88.846" />
<path d="M195.10999999999967,85.096 L247.94999999999982,81.29999999999995 L247.94999999999982,83.79999999999995 L195.10999999999967,87.596 L195.10999999999967,85.096" />
<path d="M201.03999999999996,17.596000000000004 L253.89000000000033,17.596000000000004 L253.89000000000033,20.096000000000004 L201.03999999999996,20.096000000000004 L201.03999999999996,17.596000000000004" />
<path d="M201.03999999999996,21.346000000000004 L253.89000000000033,21.346000000000004 L253.89000000000033,23.846000000000004 L201.03999999999996,23.846000000000004 L201.03999999999996,21.346000000000004" />
<path d="M125.51000000000022,83.846 L178.35999999999967,83.846 L178.35999999999967,86.346 L125.51000000000022,86.346 L125.51000000000022,83.846" />
<path d="M125.51000000000022,80.096 L178.35999999999967,80.096 L178.35999999999967,82.596 L125.51000000000022,82.596 L125.51000000000022,80.096" />
<polyline points="0.0,13.846000000000004 30.23999999999978,13.846000000000004" fill="none" stroke="#000000" stroke-width="0.40" />
<polyline points="0.0,18.846000000000004 30.23999999999978,18.846000000000004" fill="none" stroke="#000000" stroke-width="0.40" />
<polyline points="0.0,23.846000000000004 30.23999999999978,23.846000000000004" fill="none" stroke="#000000" stroke-width="0.40" />
<polyline points="0.0,28.846000000000004 30.23999999999978,28.846000000000004" fill="none" stroke="#000000" stroke-width="0.40" />
<polyline points="0.0,33.846000000000004 30.23999999999978,33.846000000000004" fill="none" stroke="#000000" stroke-width="0.40" />
<polyline points="0.0,66.346 30.23999999999978,66.346" fill="none" stroke="#000000" stroke-width="0.40" />
<polyline points="0.0,71.346 30.23999999999978,71.346" fill="none" stroke="#000000" stroke-width="0.40" />
<polyline points="0.0,76.346 30.23999999999978,76.346" fill="none" stroke="#000000" stroke-width="0.40" />
<polyline points="0.0,81.346 30.23999999999978,81.346" fill="none" stroke="#000000" stroke-width="0.40" />
<polyline points="0.0,86.346 30.23999999999978,86.346" fill="none" stroke="#000000" stroke-width="0.40" />
<polyline points="29.840000000000146,66.346 29.840000000000146,86.346" fill="" stroke="#000000" stroke-width="0.80" />
<polyline points="29.840000000000146,13.846000000000004 29.840000000000146,33.846000000000004" fill="" stroke="#000000" stroke-width="0.80" />
<polyline points="13.699999999999818,74.78599999999994 13.699999999999818,90.096" fill="" stroke="#000000" stroke-width="0.65" />
<polyline points="86.93000000000029,13.846000000000004 255.0,13.846000000000004" fill="none" stroke="#000000" stroke-width="0.40" />
<polyline points="86.93000000000029,18.846000000000004 255.0,18.846000000000004" fill="none" stroke="#000000" stroke-width="0.40" />
<polyline points="86.93000000000029,23.846000000000004 255.0,23.846000000000004" fill="none" stroke="#000000" stroke-width="0.40" />
<polyline points="86.93000000000029,28.846000000000004 255.0,28.846000000000004" fill="none" stroke="#000000" stroke-width="0.40" />
<polyline points="86.93000000000029,33.846000000000004 255.0,33.846000000000004" fill="none" stroke="#000000" stroke-width="0.40" />
<polyline points="86.93000000000029,66.346 255.0,66.346" fill="none" stroke="#000000" stroke-width="0.40" />
<polyline points="86.93000000000029,71.346 255.0,71.346" fill="none" stroke="#000000" stroke-width="0.40" />
<polyline points="86.93000000000029,76.346 255.0,76.346" fill="none" stroke="#000000" stroke-width="0.40" />
<polyline points="86.93000000000029,81.346 255.0,81.346" fill="none" stroke="#000000" stroke-width="0.40" />
<polyline points="86.93000000000029,86.346 255.0,86.346" fill="none" stroke="#000000" stroke-width="0.40" />
<polyline points="87.32999999999993,0.0 87.32999999999993,86.346" fill="" stroke="#000000" stroke-width="0.80" />
<polyline points="247.6300000000001,69.78599999999994 247.6300000000001,86.346" fill="" stroke="#000000" stroke-width="0.65" />
<polyline points="253.5600000000004,32.90700000000004 253.5600000000004,18.846000000000004" fill="" stroke="#000000" stroke-width="0.65" />
<polyline points="230.22999999999956,69.78599999999994 230.22999999999956,87.596" fill="" stroke="#000000" stroke-width="0.65" />
<polyline points="236.15999999999985,32.90700000000004 236.15999999999985,18.846000000000004" fill="" stroke="#000000" stroke-width="0.65" />
<polyline points="212.82999999999993,74.78599999999994 212.82999999999993,88.846" fill="" stroke="#000000" stroke-width="0.65" />
<polyline points="218.76000000000022,32.90700000000004 218.76000000000022,18.846000000000004" fill="" stroke="#000000" stroke-width="0.65" />
<polyline points="195.4300000000003,74.78599999999994 195.4300000000003,90.096" fill="" stroke="#000000" stroke-width="0.65" />
<polyline points="201.35999999999967,32.90700000000004 201.35999999999967,18.846000000000004" fill="" stroke="#000000" stroke-width="0.65" />
<polyline points="178.02999999999975,69.78599999999994 178.02999999999975,85.096" fill="" stroke="#000000" stroke-width="0.65" />
<polyline points="160.6300000000001,69.78599999999994 160.6300000000001,85.096" fill="" stroke="#000000" stroke-width="0.65" />
<polyline points="143.22999999999956,69.78599999999994 143.22999999999956,85.096" fill="" stroke="#000000" stroke-width="0.65" />
<polyline points="125.82999999999993,69.78599999999994 125.82999999999993,85.096" fill="" stroke="#000000" stroke-width="0.65" />
<polyline points="131.77000000000044,32.90700000000004 131.77000000000044,16.346000000000004" fill="" stroke="#000000" stroke-width="0.65" />
</svg>
