<?xml version="1.0" encoding="UTF-8" standalone="yes"?>
<svg width="256.0px" height="256.0px" xmlns="http://www.w3.org/2000/svg" xmlns:xlink="http://www.w3.org/1999/xlink" version="1.2" baseProfile="tiny">
<path d="M48.599999999998545,58.0965 C49.20000000000073,58.0965 49.79999999999927,58.2579 50.20000000000073,58.5808 C50.599999999998545,58.935 50.79999999999927,59.3777 50.79999999999927,59.909 C50.79999999999927,60.8048 50.29999999999927,61.6433 49.400000000001455,62.4246 C48.5,63.2058 47.5,63.5965 46.400000000001455,63.5965 C45.79999999999927,63.5965 45.29999999999927,63.435 44.79999999999927,63.1121 C44.400000000001455,62.7579 44.20000000000073,62.3152 44.20000000000073,61.784 C44.20000000000073,60.8881 44.70000000000073,60.0496 45.599999999998545,59.2683 C46.5,58.4871 47.5,58.0965 48.599999999998545,58.0965" />
<path d="M48.599999999998545,35.5965 C49.20000000000073,35.5965 49.79999999999927,35.7579 50.20000000000073,36.0808 C50.599999999998545,36.435 50.79999999999927,36.8777 50.79999999999927,37.409 C50.79999999999927,38.3048 50.29999999999927,39.1433 49.400000000001455,39.9246 C48.5,40.7058 47.5,41.0965 46.400000000001455,41.0965 C45.79999999999927,41.0965 45.29999999999927,40.935 44.79999999999927,40.6121 C44.400000000001455,40.2579 44.20000000000073,39.8152 44.20000000000073,39.284 C44.20000000000073,38.3881 44.70000000000073,37.5496 45.599999999998545,36.7683 C46.5,35.9871 47.5,35.5965 48.599999999998545,35.5965" />
<path d="M17.099999999998545,220.596 C17.799999999999272,220.596 18.299999999999272,220.758 18.700000000000728,221.081 C19.099999999998545,221.435 19.299999999999272,221.878 19.299999999999272,222.409 C19.299999999999272,223.305 18.900000000001455,224.143 18.0,224.925 C17.0,225.706 16.0,226.096 14.900000000001455,226.096 C14.299999999999272,226.096 13.799999999999272,225.935 13.400000000001455,225.612 C13.0,225.258 12.799999999999272,224.815 12.799999999999272,224.284 C12.799999999999272,223.388 13.200000000000728,222.55 14.200000000000728,221.768 C15.099999999998545,220.987 16.099999999998545,220.596 17.099999999998545,220.596" />
<path d="M17.099999999998545,168.096 C17.799999999999272,168.096 18.299999999999272,168.258 18.700000000000728,168.581 C19.099999999998545,168.935 19.299999999999272,169.378 19.299999999999272,169.909 C19.299999999999272,170.805 18.900000000001455,171.643 18.0,172.425 C17.0,173.206 16.0,173.596 14.900000000001455,173.596 C14.299999999999272,173.596 13.799999999999272,173.435 13.400000000001455,173.112 C13.0,172.758 12.799999999999272,172.315 12.799999999999272,171.784 C12.799999999999272,170.888 13.200000000000728,170.05 14.200000000000728,169.268 C15.099999999998545,168.487 16.099999999998545,168.096 17.099999999998545,168.096" />
<path d="M17.099999999998545,175.596 C17.799999999999272,175.596 18.299999999999272,175.758 18.700000000000728,176.081 C19.099999999998545,176.435 19.299999999999272,176.878 19.299999999999272,177.409 C19.299999999999272,178.305 18.900000000001455,179.143 18.0,179.925 C17.0,180.706 16.0,181.096 14.900000000001455,181.096 C14.299999999999272,181.096 13.799999999999272,180.935 13.400000000001455,180.612 C13.0,180.258 12.799999999999272,179.815 12.799999999999272,179.284 C12.799999999999272,178.388 13.200000000000728,177.55 14.200000000000728,176.768 C15.099999999998545,175.987 16.099999999998545,175.596 17.099999999998545,175.596" />
<path d="M17.099999999998545,180.596 C17.799999999999272,180.596 18.299999999999272,180.758 18.700000000000728,181.081 C19.099999999998545,181.435 19.299999999999272,181.878 19.299999999999272,182.409 C19.299999999999272,183.305 18.900000000001455,184.143 18.0,184.925 C17.0,185.706 16.0,186.096 14.900000000001455,186.096 C14.299999999999272,186.096 13.799999999999272,185.935 13.400000000001455,185.612 C13.0,185.258 12.799999999999272,184.815 12.799999999999272,184.284 C12.799999999999272,183.388 13.200000000000728,182.55 14.200000000000728,181.768 C15.099999999998545,180.987 16.099999999998545,180.596 17.099999999998545,180.596" />
<path d="M16.099999999998545,192.628 L18.5,190.675 C18.5,190.622 18.599999999998545,190.596 18.599999999998545,190.596 C18.700000000000728,190.596 18.799999999999272,190.622 18.799999999999272,190.675 L19.200000000000728,190.987 C19.299999999999272,191.05 19.299999999999272,191.128 19.299999999999272,191.221 C19.299999999999272,191.284 19.299999999999272,191.362 19.200000000000728,191.456 L16.900000000001455,193.346 L19.200000000000728,195.237 C19.299999999999272,195.31 19.299999999999272,195.391 19.299999999999272,195.479 C19.299999999999272,195.568 19.299999999999272,195.643 19.200000000000728,195.706 L18.799999999999272,196.018 C18.799999999999272,196.07 18.700000000000728,196.096 18.599999999998545,196.096 C18.599999999998545,196.096 18.5,196.07 18.5,196.018 L16.099999999998545,194.065 L13.599999999998545,196.018 C13.599999999998545,196.07 13.5,196.096 13.5,196.096 C13.400000000001455,196.096 13.299999999999272,196.07 13.299999999999272,196.018 L12.900000000001455,195.706 C12.799999999999272,195.643 12.799999999999272,195.565 12.799999999999272,195.471 C12.799999999999272,195.409 12.799999999999272,195.331 12.900000000001455,195.237 L15.200000000000728,193.346 L12.900000000001455,191.456 C12.799999999999272,191.383 12.799999999999272,191.302 12.799999999999272,191.214 C12.799999999999272,191.125 12.799999999999272,191.05 12.900000000001455,190.987 L13.299999999999272,190.675 C13.299999999999272,190.622 13.400000000001455,190.596 13.5,190.596 C13.5,190.596 13.599999999998545,190.622 13.599999999998545,190.675 L16.099999999998545,192.628" />
<path d="M17.099999999998545,58.0965 C17.799999999999272,58.0965 18.299999999999272,58.2579 18.700000000000728,58.5808 C19.099999999998545,58.935 19.299999999999272,59.3777 19.299999999999272,59.909 C19.299999999999272,60.8048 18.900000000001455,61.6433 18.0,62.4246 C17.0,63.2058 16.0,63.5965 14.900000000001455,63.5965 C14.299999999999272,63.5965 13.799999999999272,63.435 13.400000000001455,63.1121 C13.0,62.7579 12.799999999999272,62.3152 12.799999999999272,61.784 C12.799999999999272,60.8881 13.200000000000728,60.0496 14.200000000000728,59.2683 C15.099999999998545,58.4871 16.099999999998545,58.0965 17.099999999998545,58.0965" />
<path d="M17.099999999998545,35.5965 C17.799999999999272,35.5965 18.299999999999272,35.7579 18.700000000000728,36.0808 C19.099999999998545,36.435 19.299999999999272,36.8777 19.299999999999272,37.409 C19.299999999999272,38.3048 18.900000000001455,39.1433 18.0,39.9246 C17.0,40.7058 16.0,41.0965 14.900000000001455,41.0965 C14.299999999999272,41.0965 13.799999999999272,40.935 13.400000000001455,40.6121 C13.0,40.2579 12.799999999999272,39.8152 12.799999999999272,39.284 C12.799999999999272,38.3881 13.200000000000728,37.5496 14.200000000000728,36.7683 C15.099999999998545,35.9871 16.099999999998545,35.5965 17.099999999998545,35.5965" />
<path d="M50.79999999999927,105.846 L52.0,108.346 L49.5,108.346 L50.79999999999927,105.846" />
<path d="M47.900000000001455,99.2058 C47.900000000001455,99.2058 47.79999999999927,99.1746 47.70000000000073,99.1121 C47.70000000000073,99.0496 47.599999999998545,98.9819 47.599999999998545,98.909 C47.5,98.836 47.5,98.7683 47.400000000001455,98.7058 C47.29999999999927,98.6433 47.29999999999927,98.6121 47.20000000000073,98.6121 C46.900000000001455,98.6121 46.70000000000073,98.8465 46.70000000000073,99.3152 L46.70000000000073,100.253 L47.70000000000073,100.253 L47.70000000000073,100.487 L46.70000000000073,100.487 L46.70000000000073,103.018 C46.70000000000073,103.31 46.79999999999927,103.497 46.79999999999927,103.581 C46.900000000001455,103.664 47.099999999998545,103.711 47.5,103.721 L47.5,103.846 L45.400000000001455,103.846 L45.400000000001455,103.721 C45.70000000000073,103.711 45.79999999999927,103.664 45.900000000001455,103.581 C46.0,103.497 46.0,103.31 46.0,103.018 L46.0,100.487 L45.400000000001455,100.487 L45.400000000001455,100.253 L46.0,100.253 C46.099999999998545,99.6485 46.20000000000073,99.1824 46.400000000001455,98.8543 C46.599999999998545,98.5261 46.900000000001455,98.3621 47.400000000001455,98.3621 C47.70000000000073,98.3621 47.900000000001455,98.4116 48.0,98.5105 C48.20000000000073,98.6095 48.29999999999927,98.7319 48.29999999999927,98.8777 C48.29999999999927,98.9715 48.20000000000073,99.0496 48.20000000000073,99.1121 C48.099999999998545,99.1746 48.0,99.2058 47.900000000001455,99.2058 M52.099999999998545,103.425 L52.099999999998545,103.55 C51.70000000000073,103.664 51.29999999999927,103.789 51.0,103.925 L51.0,103.909 L51.0,103.221 C51.0,103.242 50.900000000001455,103.292 50.79999999999927,103.37 C50.79999999999927,103.448 50.70000000000073,103.503 50.70000000000073,103.534 C50.599999999998545,103.565 50.599999999998545,103.612 50.5,103.675 C50.400000000001455,103.737 50.400000000001455,103.781 50.29999999999927,103.807 C50.20000000000073,103.833 50.20000000000073,103.859 50.099999999998545,103.886 C50.0,103.912 49.900000000001455,103.925 49.79999999999927,103.925 C49.5,103.925 49.29999999999927,103.828 49.099999999998545,103.636 C48.900000000001455,103.443 48.79999999999927,103.19 48.79999999999927,102.878 L48.79999999999927,100.862 C48.79999999999927,100.685 48.79999999999927,100.56 48.70000000000073,100.487 C48.70000000000073,100.414 48.5,100.372 48.29999999999927,100.362 L48.29999999999927,100.253 L49.5,100.253 L49.5,102.846 C49.5,103.003 49.599999999998545,103.141 49.70000000000073,103.261 C49.79999999999927,103.38 49.900000000001455,103.44 50.099999999998545,103.44 C50.099999999998545,103.44 50.20000000000073,103.432 50.29999999999927,103.417 C50.400000000001455,103.401 50.5,103.372 50.599999999998545,103.331 C50.70000000000073,103.289 50.79999999999927,103.219 50.79999999999927,103.12 C50.900000000001455,103.021 50.900000000001455,102.899 50.900000000001455,102.753 L50.900000000001455,100.878 C50.900000000001455,100.69 50.900000000001455,100.563 50.79999999999927,100.495 C50.79999999999927,100.427 50.599999999998545,100.388 50.29999999999927,100.378 L50.29999999999927,100.253 L51.599999999998545,100.253 L51.599999999998545,102.971 C51.599999999998545,103.159 51.599999999998545,103.281 51.70000000000073,103.339 C51.79999999999927,103.396 51.900000000001455,103.425 52.099999999998545,103.425 L52.099999999998545,103.425 M52.20000000000073,98.8621 L52.20000000000073,98.7371 C52.79999999999927,98.6121 53.20000000000073,98.4923 53.5,98.3777 L53.599999999998545,98.409 L53.599999999998545,103.175 C53.599999999998545,103.393 53.599999999998545,103.537 53.70000000000073,103.604 C53.70000000000073,103.672 53.900000000001455,103.711 54.20000000000073,103.721 L54.20000000000073,103.846 L52.29999999999927,103.846 L52.29999999999927,103.721 C52.5,103.701 52.70000000000073,103.654 52.79999999999927,103.581 C52.79999999999927,103.508 52.900000000001455,103.362 52.900000000001455,103.143 L52.900000000001455,99.3308 C52.900000000001455,99.1433 52.900000000001455,99.0157 52.79999999999927,98.948 C52.79999999999927,98.8803 52.70000000000073,98.8465 52.5,98.8465 C52.400000000001455,98.8465 52.29999999999927,98.8517 52.20000000000073,98.8621 M54.29999999999927,98.8621 L54.29999999999927,98.7371 C54.79999999999927,98.6121 55.29999999999927,98.4923 55.599999999998545,98.3777 L55.599999999998545,98.409 L55.599999999998545,103.175 C55.599999999998545,103.393 55.70000000000073,103.537 55.70000000000073,103.604 C55.79999999999927,103.672 56.0,103.711 56.20000000000073,103.721 L56.20000000000073,103.846 L54.29999999999927,103.846 L54.29999999999927,103.721 C54.599999999998545,103.701 54.70000000000073,103.654 54.79999999999927,103.581 C54.900000000001455,103.508 54.900000000001455,103.362 54.900000000001455,103.143 L54.900000000001455,99.3308 C54.900000000001455,99.1433 54.900000000001455,99.0157 54.900000000001455,98.948 C54.79999999999927,98.8803 54.70000000000073,98.8465 54.599999999998545,98.8465 C54.5,98.8465 54.400000000001455,98.8517 54.29999999999927,98.8621" />
<path d="M50.79999999999927,53.3465 L52.0,55.8465 L49.5,55.8465 L50.79999999999927,53.3465" />
<path d="M47.900000000001455,46.7058 C47.900000000001455,46.7058 47.79999999999927,46.6746 47.70000000000073,46.6121 C47.70000000000073,46.5496 47.599999999998545,46.4819 47.599999999998545,46.409 C47.5,46.336 47.5,46.2683 47.400000000001455,46.2058 C47.29999999999927,46.1433 47.29999999999927,46.1121 47.20000000000073,46.1121 C46.900000000001455,46.1121 46.70000000000073,46.3465 46.70000000000073,46.8152 L46.70000000000073,47.7527 L47.70000000000073,47.7527 L47.70000000000073,47.9871 L46.70000000000073,47.9871 L46.70000000000073,50.5183 C46.70000000000073,50.81 46.79999999999927,50.9975 46.79999999999927,51.0808 C46.900000000001455,51.1642 47.099999999998545,51.211 47.5,51.2215 L47.5,51.3465 L45.400000000001455,51.3465 L45.400000000001455,51.2215 C45.70000000000073,51.211 45.79999999999927,51.1642 45.900000000001455,51.0808 C46.0,50.9975 46.0,50.81 46.0,50.5183 L46.0,47.9871 L45.400000000001455,47.9871 L45.400000000001455,47.7527 L46.0,47.7527 C46.099999999998545,47.1485 46.20000000000073,46.6824 46.400000000001455,46.3543 C46.599999999998545,46.0261 46.900000000001455,45.8621 47.400000000001455,45.8621 C47.70000000000073,45.8621 47.900000000001455,45.9116 48.0,46.0105 C48.20000000000073,46.1095 48.29999999999927,46.2319 48.29999999999927,46.3777 C48.29999999999927,46.4715 48.20000000000073,46.5496 48.20000000000073,46.6121 C48.099999999998545,46.6746 48.0,46.7058 47.900000000001455,46.7058 M52.099999999998545,50.9246 L52.099999999998545,51.0496 C51.70000000000073,51.1642 51.29999999999927,51.2892 51.0,51.4246 L51.0,51.409 L51.0,50.7215 C51.0,50.7423 50.900000000001455,50.7918 50.79999999999927,50.8699 C50.79999999999927,50.948 50.70000000000073,51.0027 50.70000000000073,51.034 C50.599999999998545,51.0652 50.599999999998545,51.1121 50.5,51.1746 C50.400000000001455,51.2371 50.400000000001455,51.2814 50.29999999999927,51.3074 C50.20000000000073,51.3334 50.20000000000073,51.3595 50.099999999998545,51.3855 C50.0,51.4116 49.900000000001455,51.4246 49.79999999999927,51.4246 C49.5,51.4246 49.29999999999927,51.3282 49.099999999998545,51.1355 C48.900000000001455,50.9428 48.79999999999927,50.6902 48.79999999999927,50.3777 L48.79999999999927,48.3621 C48.79999999999927,48.185 48.79999999999927,48.06 48.70000000000073,47.9871 C48.70000000000073,47.9142 48.5,47.8725 48.29999999999927,47.8621 L48.29999999999927,47.7527 L49.5,47.7527 L49.5,50.3465 C49.5,50.5027 49.599999999998545,50.6407 49.70000000000073,50.7605 C49.79999999999927,50.8803 49.900000000001455,50.9402 50.099999999998545,50.9402 C50.099999999998545,50.9402 50.20000000000073,50.9324 50.29999999999927,50.9168 C50.400000000001455,50.9011 50.5,50.8725 50.599999999998545,50.8308 C50.70000000000073,50.7892 50.79999999999927,50.7189 50.79999999999927,50.6199 C50.900000000001455,50.5209 50.900000000001455,50.3985 50.900000000001455,50.2527 L50.900000000001455,48.3777 C50.900000000001455,48.1902 50.900000000001455,48.0626 50.79999999999927,47.9949 C50.79999999999927,47.9272 50.599999999998545,47.8881 50.29999999999927,47.8777 L50.29999999999927,47.7527 L51.599999999998545,47.7527 L51.599999999998545,50.4715 C51.599999999998545,50.659 51.599999999998545,50.7814 51.70000000000073,50.8386 C51.79999999999927,50.8959 51.900000000001455,50.9246 52.099999999998545,50.9246 L52.099999999998545,50.9246 M52.20000000000073,46.3621 L52.20000000000073,46.2371 C52.79999999999927,46.1121 53.20000000000073,45.9923 53.5,45.8777 L53.599999999998545,45.909 L53.599999999998545,50.6746 C53.599999999998545,50.8933 53.599999999998545,51.0366 53.70000000000073,51.1043 C53.70000000000073,51.172 53.900000000001455,51.211 54.20000000000073,51.2215 L54.20000000000073,51.3465 L52.29999999999927,51.3465 L52.29999999999927,51.2215 C52.5,51.2006 52.70000000000073,51.1537 52.79999999999927,51.0808 C52.79999999999927,51.0079 52.900000000001455,50.8621 52.900000000001455,50.6433 L52.900000000001455,46.8308 C52.900000000001455,46.6433 52.900000000001455,46.5157 52.79999999999927,46.448 C52.79999999999927,46.3803 52.70000000000073,46.3465 52.5,46.3465 C52.400000000001455,46.3465 52.29999999999927,46.3517 52.20000000000073,46.3621 M54.29999999999927,46.3621 L54.29999999999927,46.2371 C54.79999999999927,46.1121 55.29999999999927,45.9923 55.599999999998545,45.8777 L55.599999999998545,45.909 L55.599999999998545,50.6746 C55.599999999998545,50.8933 55.70000000000073,51.0366 55.70000000000073,51.1043 C55.79999999999927,51.172 56.0,51.211 56.20000000000073,51.2215 L56.20000000000073,51.3465 L54.29999999999927,51.3465 L54.29999999999927,51.2215 C54.599999999998545,51.2006 54.70000000000073,51.1537 54.79999999999927,51.0808 C54.900000000001455,51.0079 54.900000000001455,50.8621 54.900000000001455,50.6433 L54.900000000001455,46.8308 C54.900000000001455,46.6433 54.900000000001455,46.5157 54.900000000001455,46.448 C54.79999999999927,46.3803 54.70000000000073,46.3465 54.599999999998545,46.3465 C54.5,46.3465 54.400000000001455,46.3517 54.29999999999927,46.3621" />
<path d="M19.299999999999272,105.846 L20.599999999998545,108.346 L18.099999999998545,108.346 L19.299999999999272,105.846" />
<path d="M16.5,99.2058 C16.400000000001455,99.2058 16.299999999999272,99.1746 16.299999999999272,99.1121 C16.200000000000728,99.0496 16.200000000000728,98.9819 16.099999999998545,98.909 C16.099999999998545,98.836 16.0,98.7683 16.0,98.7058 C15.900000000001455,98.6433 15.799999999999272,98.6121 15.700000000000728,98.6121 C15.400000000001455,98.6121 15.299999999999272,98.8465 15.299999999999272,99.3152 L15.299999999999272,100.253 L16.200000000000728,100.253 L16.200000000000728,100.487 L15.299999999999272,100.487 L15.299999999999272,103.018 C15.299999999999272,103.31 15.299999999999272,103.497 15.400000000001455,103.581 C15.5,103.664 15.700000000000728,103.711 16.0,103.721 L16.0,103.846 L13.900000000001455,103.846 L13.900000000001455,103.721 C14.200000000000728,103.711 14.400000000001455,103.664 14.5,103.581 C14.5,103.497 14.599999999998545,103.31 14.599999999998545,103.018 L14.599999999998545,100.487 L13.900000000001455,100.487 L13.900000000001455,100.253 L14.599999999998545,100.253 C14.599999999998545,99.6485 14.700000000000728,99.1824 14.900000000001455,98.8543 C15.099999999998545,98.5261 15.5,98.3621 16.0,98.3621 C16.200000000000728,98.3621 16.400000000001455,98.4116 16.599999999998545,98.5105 C16.700000000000728,98.6095 16.799999999999272,98.7319 16.799999999999272,98.8777 C16.799999999999272,98.9715 16.799999999999272,99.0496 16.700000000000728,99.1121 C16.700000000000728,99.1746 16.599999999998545,99.2058 16.5,99.2058 M20.599999999998545,103.425 L20.599999999998545,103.55 C20.200000000000728,103.664 19.900000000001455,103.789 19.599999999998545,103.925 L19.5,103.909 L19.5,103.221 C19.5,103.242 19.5,103.292 19.400000000001455,103.37 C19.299999999999272,103.448 19.200000000000728,103.503 19.200000000000728,103.534 C19.200000000000728,103.565 19.099999999998545,103.612 19.0,103.675 C19.0,103.737 18.900000000001455,103.781 18.799999999999272,103.807 C18.799999999999272,103.833 18.700000000000728,103.859 18.599999999998545,103.886 C18.5,103.912 18.400000000001455,103.925 18.400000000001455,103.925 C18.099999999998545,103.925 17.799999999999272,103.828 17.599999999998545,103.636 C17.5,103.443 17.400000000001455,103.19 17.400000000001455,102.878 L17.400000000001455,100.862 C17.400000000001455,100.685 17.299999999999272,100.56 17.299999999999272,100.487 C17.200000000000728,100.414 17.099999999998545,100.372 16.900000000001455,100.362 L16.900000000001455,100.253 L18.099999999998545,100.253 L18.099999999998545,102.846 C18.099999999998545,103.003 18.099999999998545,103.141 18.200000000000728,103.261 C18.299999999999272,103.38 18.5,103.44 18.599999999998545,103.44 C18.700000000000728,103.44 18.799999999999272,103.432 18.799999999999272,103.417 C18.900000000001455,103.401 19.0,103.372 19.099999999998545,103.331 C19.200000000000728,103.289 19.299999999999272,103.219 19.400000000001455,103.12 C19.400000000001455,103.021 19.5,102.899 19.5,102.753 L19.5,100.878 C19.5,100.69 19.400000000001455,100.563 19.400000000001455,100.495 C19.299999999999272,100.427 19.099999999998545,100.388 18.900000000001455,100.378 L18.900000000001455,100.253 L20.099999999998545,100.253 L20.099999999998545,102.971 C20.099999999998545,103.159 20.200000000000728,103.281 20.200000000000728,103.339 C20.299999999999272,103.396 20.400000000001455,103.425 20.599999999998545,103.425 L20.599999999998545,103.425 M20.799999999999272,98.8621 L20.799999999999272,98.7371 C21.299999999999272,98.6121 21.700000000000728,98.4923 22.099999999998545,98.3777 L22.099999999998545,98.409 L22.099999999998545,103.175 C22.099999999998545,103.393 22.099999999998545,103.537 22.200000000000728,103.604 C22.299999999999272,103.672 22.400000000001455,103.711 22.700000000000728,103.721 L22.700000000000728,103.846 L20.799999999999272,103.846 L20.799999999999272,103.721 C21.099999999998545,103.701 21.200000000000728,103.654 21.299999999999272,103.581 C21.400000000001455,103.508 21.400000000001455,103.362 21.400000000001455,103.143 L21.400000000001455,99.3308 C21.400000000001455,99.1433 21.400000000001455,99.0157 21.400000000001455,98.948 C21.299999999999272,98.8803 21.200000000000728,98.8465 21.099999999998545,98.8465 C21.0,98.8465 20.900000000001455,98.8517 20.799999999999272,98.8621 M22.900000000001455,98.8621 L22.900000000001455,98.7371 C23.400000000001455,98.6121 23.799999999999272,98.4923 24.099999999998545,98.3777 L24.200000000000728,98.409 L24.200000000000728,103.175 C24.200000000000728,103.393 24.200000000000728,103.537 24.299999999999272,103.604 C24.299999999999272,103.672 24.5,103.711 24.799999999999272,103.721 L24.799999999999272,103.846 L22.900000000001455,103.846 L22.900000000001455,103.721 C23.099999999998545,103.701 23.299999999999272,103.654 23.400000000001455,103.581 C23.5,103.508 23.5,103.362 23.5,103.143 L23.5,99.3308 C23.5,99.1433 23.5,99.0157 23.400000000001455,98.948 C23.400000000001455,98.8803 23.299999999999272,98.8465 23.099999999998545,98.8465 C23.0,98.8465 22.900000000001455,98.8517 22.900000000001455,98.8621" />
<path d="M19.299999999999272,53.3465 L20.599999999998545,55.8465 L18.099999999998545,55.8465 L19.299999999999272,53.3465" />
<path d="M16.5,46.7058 C16.400000000001455,46.7058 16.299999999999272,46.6746 16.299999999999272,46.6121 C16.200000000000728,46.5496 16.200000000000728,46.4819 16.099999999998545,46.409 C16.099999999998545,46.336 16.0,46.2683 16.0,46.2058 C15.900000000001455,46.1433 15.799999999999272,46.1121 15.700000000000728,46.1121 C15.400000000001455,46.1121 15.299999999999272,46.3465 15.299999999999272,46.8152 L15.299999999999272,47.7527 L16.200000000000728,47.7527 L16.200000000000728,47.9871 L15.299999999999272,47.9871 L15.299999999999272,50.5183 C15.299999999999272,50.81 15.299999999999272,50.9975 15.400000000001455,51.0808 C15.5,51.1642 15.700000000000728,51.211 16.0,51.2215 L16.0,51.3465 L13.900000000001455,51.3465 L13.900000000001455,51.2215 C14.200000000000728,51.211 14.400000000001455,51.1642 14.5,51.0808 C14.5,50.9975 14.599999999998545,50.81 14.599999999998545,50.5183 L14.599999999998545,47.9871 L13.900000000001455,47.9871 L13.900000000001455,47.7527 L14.599999999998545,47.7527 C14.599999999998545,47.1485 14.700000000000728,46.6824 14.900000000001455,46.3543 C15.099999999998545,46.0261 15.5,45.8621 16.0,45.8621 C16.200000000000728,45.8621 16.400000000001455,45.9116 16.599999999998545,46.0105 C16.700000000000728,46.1095 16.799999999999272,46.2319 16.799999999999272,46.3777 C16.799999999999272,46.4715 16.799999999999272,46.5496 16.700000000000728,46.6121 C16.700000000000728,46.6746 16.599999999998545,46.7058 16.5,46.7058 M20.599999999998545,50.9246 L20.599999999998545,51.0496 C20.200000000000728,51.1642 19.900000000001455,51.2892 19.599999999998545,51.4246 L19.5,51.409 L19.5,50.7215 C19.5,50.7423 19.5,50.7918 19.400000000001455,50.8699 C19.299999999999272,50.948 19.200000000000728,51.0027 19.200000000000728,51.034 C19.200000000000728,51.0652 19.099999999998545,51.1121 19.0,51.1746 C19.0,51.2371 18.900000000001455,51.2814 18.799999999999272,51.3074 C18.799999999999272,51.3334 18.700000000000728,51.3595 18.599999999998545,51.3855 C18.5,51.4116 18.400000000001455,51.4246 18.400000000001455,51.4246 C18.099999999998545,51.4246 17.799999999999272,51.3282 17.599999999998545,51.1355 C17.5,50.9428 17.400000000001455,50.6902 17.400000000001455,50.3777 L17.400000000001455,48.3621 C17.400000000001455,48.185 17.299999999999272,48.06 17.299999999999272,47.9871 C17.200000000000728,47.9142 17.099999999998545,47.8725 16.900000000001455,47.8621 L16.900000000001455,47.7527 L18.099999999998545,47.7527 L18.099999999998545,50.3465 C18.099999999998545,50.5027 18.099999999998545,50.6407 18.200000000000728,50.7605 C18.299999999999272,50.8803 18.5,50.9402 18.599999999998545,50.9402 C18.700000000000728,50.9402 18.799999999999272,50.9324 18.799999999999272,50.9168 C18.900000000001455,50.9011 19.0,50.8725 19.099999999998545,50.8308 C19.200000000000728,50.7892 19.299999999999272,50.7189 19.400000000001455,50.6199 C19.400000000001455,50.5209 19.5,50.3985 19.5,50.2527 L19.5,48.3777 C19.5,48.1902 19.400000000001455,48.0626 19.400000000001455,47.9949 C19.299999999999272,47.9272 19.099999999998545,47.8881 18.900000000001455,47.8777 L18.900000000001455,47.7527 L20.099999999998545,47.7527 L20.099999999998545,50.4715 C20.099999999998545,50.659 20.200000000000728,50.7814 20.200000000000728,50.8386 C20.299999999999272,50.8959 20.400000000001455,50.9246 20.599999999998545,50.9246 L20.599999999998545,50.9246 M20.799999999999272,46.3621 L20.799999999999272,46.2371 C21.299999999999272,46.1121 21.700000000000728,45.9923 22.099999999998545,45.8777 L22.099999999998545,45.909 L22.099999999998545,50.6746 C22.099999999998545,50.8933 22.099999999998545,51.0366 22.200000000000728,51.1043 C22.299999999999272,51.172 22.400000000001455,51.211 22.700000000000728,51.2215 L22.700000000000728,51.3465 L20.799999999999272,51.3465 L20.799999999999272,51.2215 C21.099999999998545,51.2006 21.200000000000728,51.1537 21.299999999999272,51.0808 C21.400000000001455,51.0079 21.400000000001455,50.8621 21.400000000001455,50.6433 L21.400000000001455,46.8308 C21.400000000001455,46.6433 21.400000000001455,46.5157 21.400000000001455,46.448 C21.299999999999272,46.3803 21.200000000000728,46.3465 21.099999999998545,46.3465 C21.0,46.3465 20.900000000001455,46.3517 20.799999999999272,46.3621 M22.900000000001455,46.3621 L22.900000000001455,46.2371 C23.400000000001455,46.1121 23.799999999999272,45.9923 24.099999999998545,45.8777 L24.200000000000728,45.909 L24.200000000000728,50.6746 C24.200000000000728,50.8933 24.200000000000728,51.0366 24.299999999999272,51.1043 C24.299999999999272,51.172 24.5,51.211 24.799999999999272,51.2215 L24.799999999999272,51.3465 L22.900000000001455,51.3465 L22.900000000001455,51.2215 C23.099999999998545,51.2006 23.299999999999272,51.1537 23.400000000001455,51.0808 C23.5,51.0079 23.5,50.8621 23.5,50.6433 L23.5,46.8308 C23.5,46.6433 23.5,46.5157 23.400000000001455,46.448 C23.400000000001455,46.3803 23.299999999999272,46.3465 23.099999999998545,46.3465 C23.0,46.3465 22.900000000001455,46.3517 22.900000000001455,46.3621" />
<polyline points="0.0,63.3465 76.5,63.3465" fill="none" stroke="#000000" stroke-width="0.40" />
<polyline points="0.0,68.3465 76.5,68.3465" fill="none" stroke="#000000" stroke-width="0.40" />
<polyline points="0.0,73.3465 76.5,73.3465" fill="none" stroke="#000000" stroke-width="0.40" />
<polyline points="0.0,78.3465 76.5,78.3465" fill="none" stroke="#000000" stroke-width="0.40" />
<polyline points="0.0,83.3465 76.5,83.3465" fill="none" stroke="#000000" stroke-width="0.40" />
<polyline points="0.0,115.846 76.5,115.846" fill="none" stroke="#000000" stroke-width="0.40" />
<polyline points="0.0,120.846 76.5,120.846" fill="none" stroke="#000000" stroke-width="0.40" />
<polyline points="0.0,125.846 76.5,125.846" fill="none" stroke="#000000" stroke-width="0.40" />
<polyline points="0.0,130.846 76.5,130.846" fill="none" stroke="#000000" stroke-width="0.40" />
<polyline points="0.0,135.846 76.5,135.846" fill="none" stroke="#000000" stroke-width="0.40" />
<polyline points="0.0,168.346 76.5,168.346" fill="none" stroke="#000000" stroke-width="0.40" />
<polyline points="0.0,173.346 76.5,173.346" fill="none" stroke="#000000" stroke-width="0.40" />
<polyline points="0.0,178.346 76.5,178.346" fill="none" stroke="#000000" stroke-width="0.40" />
<polyline points="0.0,183.346 76.5,183.346" fill="none" stroke="#000000" stroke-width="0.40" />
<polyline points="0.0,188.346 76.5,188.346" fill="none" stroke="#000000" stroke-width="0.40" />
<polyline points="0.0,220.846 76.5,220.846" fill="none" stroke="#000000" stroke-width="0.40" />
<polyline points="0.0,225.846 76.5,225.846" fill="none" stroke="#000000" stroke-width="0.40" />
<polyline points="0.0,230.846 76.5,230.846" fill="none" stroke="#000000" stroke-width="0.40" />
<polyline points="0.0,235.846 76.5,235.846" fill="none" stroke="#000000" stroke-width="0.40" />
<polyline points="0.0,240.846 76.5,240.846" fill="none" stroke="#000000" stroke-width="0.40" />
<polyline points="76.09999999999854,220.846 76.09999999999854,240.846" fill="none" stroke="#000000" stroke-width="0.80" />
<polyline points="76.09999999999854,168.346 76.09999999999854,188.346" fill="none" stroke="#000000" stroke-width="0.80" />
<polyline points="76.09999999999854,115.846 76.09999999999854,135.846" fill="none" stroke="#000000" stroke-width="0.80" />
<polyline points="76.09999999999854,63.3465 76.09999999999854,83.3465" fill="none" stroke="#000000" stroke-width="0.80" />
<polyline points="44.5,61.7855 44.5,124.596" fill="none" stroke="#000000" stroke-width="0.65" />
<polyline points="44.5,39.2855 44.5,72.0965" fill="none" stroke="#000000" stroke-width="0.65" />
<polyline points="13.099999999998545,224.286 13.099999999998545,239.596" fill="none" stroke="#000000" stroke-width="0.65" />
<polyline points="19.0,191.362 19.0,154.596" fill="none" stroke="#000000" stroke-width="0.65" />
<polyline points="13.099999999998545,61.7855 13.099999999998545,124.596" fill="none" stroke="#000000" stroke-width="0.65" />
<polyline points="13.099999999998545,39.2855 13.099999999998545,72.0965" fill="none" stroke="#000000" stroke-width="0.65" />
<polyline points="42.70000000000073,60.8465 52.29999999999927,60.8465" fill="none" stroke="#000000" stroke-width="0.80" />
<polyline points="42.70000000000073,65.8465 52.29999999999927,65.8465" fill="none" stroke="#000000" stroke-width="0.80" />
<polyline points="42.70000000000073,70.8465 52.29999999999927,70.8465" fill="none" stroke="#000000" stroke-width="0.80" />
<polyline points="42.70000000000073,75.8465 52.29999999999927,75.8465" fill="none" stroke="#000000" stroke-width="0.80" />
<polyline points="42.70000000000073,80.8465 52.29999999999927,80.8465" fill="none" stroke="#000000" stroke-width="0.80" />
<polyline points="42.70000000000073,85.8465 52.29999999999927,85.8465" fill="none" stroke="#000000" stroke-width="0.80" />
<polyline points="42.70000000000073,90.8465 52.29999999999927,90.8465" fill="none" stroke="#000000" stroke-width="0.80" />
<polyline points="42.70000000000073,95.8465 52.29999999999927,95.8465" fill="none" stroke="#000000" stroke-width="0.80" />
<polyline points="42.70000000000073,100.846 52.29999999999927,100.846" fill="none" stroke="#000000" stroke-width="0.80" />
<polyline points="42.70000000000073,105.846 52.29999999999927,105.846" fill="none" stroke="#000000" stroke-width="0.80" />
<polyline points="42.70000000000073,110.846 52.29999999999927,110.846" fill="none" stroke="#000000" stroke-width="0.80" />
<polyline points="42.70000000000073,38.3465 52.29999999999927,38.3465" fill="none" stroke="#000000" stroke-width="0.80" />
<polyline points="42.70000000000073,43.3465 52.29999999999927,43.3465" fill="none" stroke="#000000" stroke-width="0.80" />
<polyline points="42.70000000000073,48.3465 52.29999999999927,48.3465" fill="none" stroke="#000000" stroke-width="0.80" />
<polyline points="42.70000000000073,53.3465 52.29999999999927,53.3465" fill="none" stroke="#000000" stroke-width="0.80" />
<polyline points="42.70000000000073,58.3465 52.29999999999927,58.3465" fill="none" stroke="#000000" stroke-width="0.80" />
<polyline points="11.299999999999272,193.346 20.799999999999272,193.346" fill="none" stroke="#000000" stroke-width="0.80" />
<polyline points="11.299999999999272,60.8465 20.799999999999272,60.8465" fill="none" stroke="#000000" stroke-width="0.80" />
<polyline points="11.299999999999272,65.8465 20.799999999999272,65.8465" fill="none" stroke="#000000" stroke-width="0.80" />
<polyline points="11.299999999999272,70.8465 20.799999999999272,70.8465" fill="none" stroke="#000000" stroke-width="0.80" />
<polyline points="11.299999999999272,75.8465 20.799999999999272,75.8465" fill="none" stroke="#000000" stroke-width="0.80" />
<polyline points="11.299999999999272,80.8465 20.799999999999272,80.8465" fill="none" stroke="#000000" stroke-width="0.80" />
<polyline points="11.299999999999272,85.8465 20.799999999999272,85.8465" fill="none" stroke="#000000" stroke-width="0.80" />
<polyline points="11.299999999999272,90.8465 20.799999999999272,90.8465" fill="none" stroke="#000000" stroke-width="0.80" />
<polyline points="11.299999999999272,95.8465 20.799999999999272,95.8465" fill="none" stroke="#000000" stroke-width="0.80" />
<polyline points="11.299999999999272,100.846 20.799999999999272,100.846" fill="none" stroke="#000000" stroke-width="0.80" />
<polyline points="11.299999999999272,105.846 20.799999999999272,105.846" fill="none" stroke="#000000" stroke-width="0.80" />
<polyline points="11.299999999999272,110.846 20.799999999999272,110.846" fill="none" stroke="#000000" stroke-width="0.80" />
<polyline points="11.299999999999272,38.3465 20.799999999999272,38.3465" fill="none" stroke="#000000" stroke-width="0.80" />
<polyline points="11.299999999999272,43.3465 20.799999999999272,43.3465" fill="none" stroke="#000000" stroke-width="0.80" />
<polyline points="11.299999999999272,48.3465 20.799999999999272,48.3465" fill="none" stroke="#000000" stroke-width="0.80" />
<polyline points="11.299999999999272,53.3465 20.799999999999272,53.3465" fill="none" stroke="#000000" stroke-width="0.80" />
<polyline points="11.299999999999272,58.3465 20.799999999999272,58.3465" fill="none" stroke="#000000" stroke-width="0.80" />
<polyline points="50.79999999999927,56.8465 50.79999999999927,105.846" fill="" stroke="#000000" stroke-width="0.75" />
<polyline points="50.79999999999927,34.3465 50.79999999999927,53.3465" fill="" stroke="#000000" stroke-width="0.75" />
<polyline points="19.299999999999272,56.8465 19.299999999999272,105.846" fill="" stroke="#000000" stroke-width="0.75" />
<polyline points="19.299999999999272,34.3465 19.299999999999272,53.3465" fill="" stroke="#000000" stroke-width="0.75" />
</svg>
