<?xml version="1.0" encoding="UTF-8" standalone="yes"?>
<svg width="256.0px" height="256.0px" xmlns="http://www.w3.org/2000/svg" xmlns:xlink="http://www.w3.org/1999/xlink" version="1.2" baseProfile="tiny">
<path d="M136.20000000000073,247.081 C136.20000000000073,247.331 136.10000000000036,247.456 135.89999999999964,247.456 C135.60000000000036,247.456 135.5,247.331 135.5,247.081 L135.5,244.19 L133.79999999999927,244.815 L133.79999999999927,247.971 C133.79999999999927,248.221 133.70000000000073,248.346 133.5,248.346 C133.20000000000073,248.346 133.10000000000036,248.221 133.10000000000036,247.971 L133.10000000000036,245.065 L132.5,245.3 C132.39999999999964,245.31 132.39999999999964,245.315 132.29999999999927,245.315 C132.20000000000073,245.315 132.10000000000036,245.276 132.0,245.198 C132.0,245.12 131.89999999999964,245.029 131.89999999999964,244.925 L131.89999999999964,243.721 C131.89999999999964,243.524 132.0,243.399 132.20000000000073,243.346 L133.10000000000036,243.034 L133.10000000000036,239.831 L132.5,240.05 C132.39999999999964,240.06 132.39999999999964,240.065 132.29999999999927,240.065 C132.20000000000073,240.065 132.10000000000036,240.026 132.0,239.948 C132.0,239.87 131.89999999999964,239.779 131.89999999999964,239.675 L131.89999999999964,238.456 C131.89999999999964,238.279 132.0,238.164 132.20000000000073,238.112 L133.10000000000036,237.753 L133.10000000000036,234.612 C133.10000000000036,234.362 133.20000000000073,234.237 133.5,234.237 C133.70000000000073,234.237 133.79999999999927,234.362 133.79999999999927,234.612 L133.79999999999927,237.503 L135.5,236.878 L135.5,233.721 C135.5,233.471 135.60000000000036,233.346 135.89999999999964,233.346 C136.10000000000036,233.346 136.20000000000073,233.471 136.20000000000073,233.721 L136.20000000000073,236.628 L136.89999999999964,236.393 C136.89999999999964,236.383 136.89999999999964,236.378 137.0,236.378 C137.10000000000036,236.378 137.20000000000073,236.414 137.29999999999927,236.487 C137.39999999999964,236.57 137.39999999999964,236.664 137.39999999999964,236.768 L137.39999999999964,237.971 C137.39999999999964,238.159 137.29999999999927,238.284 137.10000000000036,238.346 L136.20000000000073,238.659 L136.20000000000073,241.862 L136.89999999999964,241.643 C136.89999999999964,241.633 136.89999999999964,241.628 137.0,241.628 C137.10000000000036,241.628 137.20000000000073,241.669 137.29999999999927,241.753 C137.39999999999964,241.826 137.39999999999964,241.914 137.39999999999964,242.018 L137.39999999999964,243.237 C137.39999999999964,243.404 137.29999999999927,243.518 137.10000000000036,243.581 L136.20000000000073,243.94 L136.20000000000073,247.081 M135.5,238.956 L133.79999999999927,239.534 L133.79999999999927,242.737 L135.5,242.159 L135.5,238.956" />
<path d="M101.0,218.346 C101.20000000000073,218.253 101.29999999999927,218.206 101.5,218.206 C101.70000000000073,218.206 101.89999999999964,218.253 102.0,218.346 L102.0,222.003 L104.10000000000036,221.612 L104.20000000000073,221.612 C104.39999999999964,221.612 104.5,221.721 104.5,221.94 L104.70000000000073,233.346 C104.5,233.44 104.29999999999927,233.487 104.20000000000073,233.487 C104.0,233.487 103.79999999999927,233.44 103.60000000000036,233.346 L103.70000000000073,229.69 L101.60000000000036,230.081 L101.5,230.081 C101.29999999999927,230.081 101.20000000000073,229.971 101.20000000000073,229.753 L101.0,218.346 M103.70000000000073,227.737 L103.79999999999927,223.596 L101.89999999999964,223.956 L101.89999999999964,228.096 L103.70000000000073,227.737" />
<path d="M68.20000000000073,220.846 C68.39999999999964,220.753 68.60000000000036,220.706 68.70000000000073,220.706 C68.89999999999964,220.706 69.10000000000036,220.753 69.20000000000073,220.846 L69.20000000000073,224.503 L71.29999999999927,224.112 L71.39999999999964,224.112 C71.60000000000036,224.112 71.70000000000073,224.221 71.70000000000073,224.44 L71.89999999999964,235.846 C71.70000000000073,235.94 71.60000000000036,235.987 71.39999999999964,235.987 C71.20000000000073,235.987 71.0,235.94 70.89999999999964,235.846 L70.89999999999964,232.19 L68.79999999999927,232.581 L68.70000000000073,232.581 C68.5,232.581 68.39999999999964,232.471 68.39999999999964,232.253 L68.20000000000073,220.846 M71.0,230.237 L71.0,226.096 L69.20000000000073,226.456 L69.10000000000036,230.596 L71.0,230.237" />
<path d="M35.600000000000364,227.518 L35.600000000000364,229.065 C35.600000000000364,229.617 35.600000000000364,230.055 35.70000000000073,230.378 C36.100000000000364,230.013 36.399999999999636,229.742 36.600000000000364,229.565 C36.79999999999927,229.357 37.0,229.068 37.20000000000073,228.698 C37.399999999999636,228.328 37.5,227.961 37.5,227.596 C37.5,227.232 37.399999999999636,226.919 37.29999999999927,226.659 C37.100000000000364,226.399 36.899999999999636,226.268 36.70000000000073,226.268 C36.29999999999927,226.268 36.100000000000364,226.388 35.899999999999636,226.628 C35.70000000000073,226.888 35.600000000000364,227.185 35.600000000000364,227.518 M34.79999999999927,231.096 L34.5,219.206 C34.70000000000073,219.102 34.899999999999636,219.05 35.100000000000364,219.05 C35.20000000000073,219.05 35.399999999999636,219.102 35.600000000000364,219.206 L35.399999999999636,226.096 C36.0,225.638 36.600000000000364,225.409 37.29999999999927,225.409 C37.79999999999927,225.409 38.20000000000073,225.617 38.5,226.034 C38.899999999999636,226.451 39.0,226.93 39.0,227.471 C39.0,227.805 38.899999999999636,228.164 38.70000000000073,228.55 C38.5,228.893 38.29999999999927,229.164 38.100000000000364,229.362 C37.899999999999636,229.466 37.600000000000364,229.727 37.100000000000364,230.143 C36.899999999999636,230.258 36.70000000000073,230.393 36.5,230.55 C36.29999999999927,230.706 36.20000000000073,230.805 36.100000000000364,230.846 C36.0,230.899 35.899999999999636,231.003 35.79999999999927,231.159 C35.79999999999927,231.294 35.70000000000073,231.404 35.5,231.487 C35.399999999999636,231.57 35.29999999999927,231.612 35.20000000000073,231.612 C35.100000000000364,231.612 35.0,231.565 34.899999999999636,231.471 C34.79999999999927,231.378 34.79999999999927,231.253 34.79999999999927,231.096" />
<path d="M141.79999999999927,240.128 L144.20000000000073,238.175 C144.29999999999927,238.122 144.29999999999927,238.096 144.39999999999964,238.096 C144.5,238.096 144.5,238.122 144.60000000000036,238.175 L145.0,238.487 C145.10000000000036,238.55 145.10000000000036,238.628 145.10000000000036,238.721 C145.10000000000036,238.784 145.10000000000036,238.862 145.0,238.956 L142.70000000000073,240.846 L145.0,242.737 C145.10000000000036,242.81 145.10000000000036,242.891 145.10000000000036,242.979 C145.10000000000036,243.068 145.10000000000036,243.143 145.0,243.206 L144.60000000000036,243.518 C144.5,243.57 144.5,243.596 144.39999999999964,243.596 C144.29999999999927,243.596 144.29999999999927,243.57 144.20000000000073,243.518 L141.79999999999927,241.565 L139.39999999999964,243.518 C139.29999999999927,243.57 139.29999999999927,243.596 139.20000000000073,243.596 C139.20000000000073,243.596 139.10000000000036,243.57 139.0,243.518 L138.60000000000036,243.206 C138.60000000000036,243.143 138.5,243.065 138.5,242.971 C138.5,242.909 138.60000000000036,242.831 138.60000000000036,242.737 L140.89999999999964,240.846 L138.60000000000036,238.956 C138.60000000000036,238.883 138.5,238.802 138.5,238.714 C138.5,238.625 138.60000000000036,238.55 138.60000000000036,238.487 L139.0,238.175 C139.10000000000036,238.122 139.20000000000073,238.096 139.20000000000073,238.096 C139.29999999999927,238.096 139.29999999999927,238.122 139.39999999999964,238.175 L141.79999999999927,240.128" />
<path d="M110.10000000000036,223.096 C110.79999999999927,223.096 111.29999999999927,223.258 111.70000000000073,223.581 C112.10000000000036,223.935 112.29999999999927,224.378 112.29999999999927,224.909 C112.29999999999927,225.805 111.89999999999964,226.643 110.89999999999964,227.425 C110.0,228.206 109.0,228.596 107.89999999999964,228.596 C107.29999999999927,228.596 106.79999999999927,228.435 106.39999999999964,228.112 C105.89999999999964,227.758 105.70000000000073,227.315 105.70000000000073,226.784 C105.70000000000073,225.888 106.20000000000073,225.05 107.10000000000036,224.268 C108.10000000000036,223.487 109.10000000000036,223.096 110.10000000000036,223.096" />
<path d="M110.10000000000036,168.096 C110.79999999999927,168.096 111.29999999999927,168.258 111.70000000000073,168.581 C112.10000000000036,168.935 112.29999999999927,169.378 112.29999999999927,169.909 C112.29999999999927,170.805 111.89999999999964,171.643 110.89999999999964,172.425 C110.0,173.206 109.0,173.596 107.89999999999964,173.596 C107.29999999999927,173.596 106.79999999999927,173.435 106.39999999999964,173.112 C105.89999999999964,172.758 105.70000000000073,172.315 105.70000000000073,171.784 C105.70000000000073,170.888 106.20000000000073,170.05 107.10000000000036,169.268 C108.10000000000036,168.487 109.10000000000036,168.096 110.10000000000036,168.096" />
<path d="M110.10000000000036,175.596 C110.79999999999927,175.596 111.29999999999927,175.758 111.70000000000073,176.081 C112.10000000000036,176.435 112.29999999999927,176.878 112.29999999999927,177.409 C112.29999999999927,178.305 111.89999999999964,179.143 110.89999999999964,179.925 C110.0,180.706 109.0,181.096 107.89999999999964,181.096 C107.29999999999927,181.096 106.79999999999927,180.935 106.39999999999964,180.612 C105.89999999999964,180.258 105.70000000000073,179.815 105.70000000000073,179.284 C105.70000000000073,178.388 106.20000000000073,177.55 107.10000000000036,176.768 C108.10000000000036,175.987 109.10000000000036,175.596 110.10000000000036,175.596" />
<path d="M110.10000000000036,180.596 C110.79999999999927,180.596 111.29999999999927,180.758 111.70000000000073,181.081 C112.10000000000036,181.435 112.29999999999927,181.878 112.29999999999927,182.409 C112.29999999999927,183.305 111.89999999999964,184.143 110.89999999999964,184.925 C110.0,185.706 109.0,186.096 107.89999999999964,186.096 C107.29999999999927,186.096 106.79999999999927,185.935 106.39999999999964,185.612 C105.89999999999964,185.258 105.70000000000073,184.815 105.70000000000073,184.284 C105.70000000000073,183.388 106.20000000000073,182.55 107.10000000000036,181.768 C108.10000000000036,180.987 109.10000000000036,180.596 110.10000000000036,180.596" />
<path d="M109.0,200.128 L111.39999999999964,198.175 C111.5,198.122 111.60000000000036,198.096 111.60000000000036,198.096 C111.70000000000073,198.096 111.79999999999927,198.122 111.79999999999927,198.175 L112.20000000000073,198.487 C112.29999999999927,198.55 112.29999999999927,198.628 112.29999999999927,198.721 C112.29999999999927,198.784 112.29999999999927,198.862 112.20000000000073,198.956 L109.89999999999964,200.846 L112.20000000000073,202.737 C112.29999999999927,202.81 112.29999999999927,202.891 112.29999999999927,202.979 C112.29999999999927,203.068 112.29999999999927,203.143 112.20000000000073,203.206 L111.79999999999927,203.518 C111.79999999999927,203.57 111.70000000000073,203.596 111.60000000000036,203.596 C111.60000000000036,203.596 111.5,203.57 111.39999999999964,203.518 L109.0,201.565 L106.60000000000036,203.518 C106.60000000000036,203.57 106.5,203.596 106.39999999999964,203.596 C106.39999999999964,203.596 106.29999999999927,203.57 106.29999999999927,203.518 L105.79999999999927,203.206 C105.79999999999927,203.143 105.70000000000073,203.065 105.70000000000073,202.971 C105.70000000000073,202.909 105.79999999999927,202.831 105.79999999999927,202.737 L108.20000000000073,200.846 L105.79999999999927,198.956 C105.79999999999927,198.883 105.70000000000073,198.802 105.70000000000073,198.714 C105.70000000000073,198.625 105.79999999999927,198.55 105.79999999999927,198.487 L106.29999999999927,198.175 C106.29999999999927,198.122 106.39999999999964,198.096 106.39999999999964,198.096 C106.5,198.096 106.60000000000036,198.122 106.60000000000036,198.175 L109.0,200.128" />
<path d="M77.39999999999964,225.596 C78.0,225.596 78.5,225.758 79.0,226.081 C79.29999999999927,226.435 79.5,226.878 79.5,227.409 C79.5,228.305 79.10000000000036,229.143 78.20000000000073,229.925 C77.20000000000073,230.706 76.20000000000073,231.096 75.20000000000073,231.096 C74.5,231.096 74.0,230.935 73.60000000000036,230.612 C73.20000000000073,230.258 73.0,229.815 73.0,229.284 C73.0,228.388 73.39999999999964,227.55 74.39999999999964,226.768 C75.29999999999927,225.987 76.29999999999927,225.596 77.39999999999964,225.596" />
<path d="M77.39999999999964,168.096 C78.0,168.096 78.5,168.258 79.0,168.581 C79.29999999999927,168.935 79.5,169.378 79.5,169.909 C79.5,170.805 79.10000000000036,171.643 78.20000000000073,172.425 C77.20000000000073,173.206 76.20000000000073,173.596 75.20000000000073,173.596 C74.5,173.596 74.0,173.435 73.60000000000036,173.112 C73.20000000000073,172.758 73.0,172.315 73.0,171.784 C73.0,170.888 73.39999999999964,170.05 74.39999999999964,169.268 C75.29999999999927,168.487 76.29999999999927,168.096 77.39999999999964,168.096" />
<path d="M77.39999999999964,175.596 C78.0,175.596 78.5,175.758 79.0,176.081 C79.29999999999927,176.435 79.5,176.878 79.5,177.409 C79.5,178.305 79.10000000000036,179.143 78.20000000000073,179.925 C77.20000000000073,180.706 76.20000000000073,181.096 75.20000000000073,181.096 C74.5,181.096 74.0,180.935 73.60000000000036,180.612 C73.20000000000073,180.258 73.0,179.815 73.0,179.284 C73.0,178.388 73.39999999999964,177.55 74.39999999999964,176.768 C75.29999999999927,175.987 76.29999999999927,175.596 77.39999999999964,175.596" />
<path d="M77.39999999999964,180.596 C78.0,180.596 78.5,180.758 79.0,181.081 C79.29999999999927,181.435 79.5,181.878 79.5,182.409 C79.5,183.305 79.10000000000036,184.143 78.20000000000073,184.925 C77.20000000000073,185.706 76.20000000000073,186.096 75.20000000000073,186.096 C74.5,186.096 74.0,185.935 73.60000000000036,185.612 C73.20000000000073,185.258 73.0,184.815 73.0,184.284 C73.0,183.388 73.39999999999964,182.55 74.39999999999964,181.768 C75.29999999999927,180.987 76.29999999999927,180.596 77.39999999999964,180.596" />
<path d="M76.29999999999927,200.128 L78.70000000000073,198.175 C78.70000000000073,198.122 78.79999999999927,198.096 78.79999999999927,198.096 C78.89999999999964,198.096 79.0,198.122 79.0,198.175 L79.5,198.487 C79.5,198.55 79.5,198.628 79.5,198.721 C79.5,198.784 79.5,198.862 79.5,198.956 L77.10000000000036,200.846 L79.5,202.737 C79.5,202.81 79.5,202.891 79.5,202.979 C79.5,203.068 79.5,203.143 79.5,203.206 L79.0,203.518 C79.0,203.57 78.89999999999964,203.596 78.79999999999927,203.596 C78.79999999999927,203.596 78.70000000000073,203.57 78.70000000000073,203.518 L76.29999999999927,201.565 L73.79999999999927,203.518 C73.79999999999927,203.57 73.70000000000073,203.596 73.70000000000073,203.596 C73.60000000000036,203.596 73.5,203.57 73.5,203.518 L73.10000000000036,203.206 C73.0,203.143 73.0,203.065 73.0,202.971 C73.0,202.909 73.0,202.831 73.10000000000036,202.737 L75.39999999999964,200.846 L73.10000000000036,198.956 C73.0,198.883 73.0,198.802 73.0,198.714 C73.0,198.625 73.0,198.55 73.10000000000036,198.487 L73.5,198.175 C73.5,198.122 73.60000000000036,198.096 73.70000000000073,198.096 C73.70000000000073,198.096 73.79999999999927,198.122 73.79999999999927,198.175 L76.29999999999927,200.128" />
<path d="M44.600000000000364,225.596 C45.20000000000073,225.596 45.70000000000073,225.758 46.20000000000073,226.081 C46.600000000000364,226.435 46.79999999999927,226.878 46.79999999999927,227.409 C46.79999999999927,228.305 46.29999999999927,229.143 45.399999999999636,229.925 C44.5,230.706 43.5,231.096 42.399999999999636,231.096 C41.79999999999927,231.096 41.20000000000073,230.935 40.79999999999927,230.612 C40.399999999999636,230.258 40.20000000000073,229.815 40.20000000000073,229.284 C40.20000000000073,228.388 40.70000000000073,227.55 41.600000000000364,226.768 C42.5,225.987 43.5,225.596 44.600000000000364,225.596" />
<path d="M44.600000000000364,168.096 C45.20000000000073,168.096 45.70000000000073,168.258 46.20000000000073,168.581 C46.600000000000364,168.935 46.79999999999927,169.378 46.79999999999927,169.909 C46.79999999999927,170.805 46.29999999999927,171.643 45.399999999999636,172.425 C44.5,173.206 43.5,173.596 42.399999999999636,173.596 C41.79999999999927,173.596 41.20000000000073,173.435 40.79999999999927,173.112 C40.399999999999636,172.758 40.20000000000073,172.315 40.20000000000073,171.784 C40.20000000000073,170.888 40.70000000000073,170.05 41.600000000000364,169.268 C42.5,168.487 43.5,168.096 44.600000000000364,168.096" />
<path d="M44.600000000000364,175.596 C45.20000000000073,175.596 45.70000000000073,175.758 46.20000000000073,176.081 C46.600000000000364,176.435 46.79999999999927,176.878 46.79999999999927,177.409 C46.79999999999927,178.305 46.29999999999927,179.143 45.399999999999636,179.925 C44.5,180.706 43.5,181.096 42.399999999999636,181.096 C41.79999999999927,181.096 41.20000000000073,180.935 40.79999999999927,180.612 C40.399999999999636,180.258 40.20000000000073,179.815 40.20000000000073,179.284 C40.20000000000073,178.388 40.70000000000073,177.55 41.600000000000364,176.768 C42.5,175.987 43.5,175.596 44.600000000000364,175.596" />
<path d="M44.600000000000364,180.596 C45.20000000000073,180.596 45.70000000000073,180.758 46.20000000000073,181.081 C46.600000000000364,181.435 46.79999999999927,181.878 46.79999999999927,182.409 C46.79999999999927,183.305 46.29999999999927,184.143 45.399999999999636,184.925 C44.5,185.706 43.5,186.096 42.399999999999636,186.096 C41.79999999999927,186.096 41.20000000000073,185.935 40.79999999999927,185.612 C40.399999999999636,185.258 40.20000000000073,184.815 40.20000000000073,184.284 C40.20000000000073,183.388 40.70000000000073,182.55 41.600000000000364,181.768 C42.5,180.987 43.5,180.596 44.600000000000364,180.596" />
<path d="M43.5,200.128 L45.899999999999636,198.175 C46.0,198.122 46.0,198.096 46.100000000000364,198.096 C46.100000000000364,198.096 46.20000000000073,198.122 46.29999999999927,198.175 L46.70000000000073,198.487 C46.70000000000073,198.55 46.79999999999927,198.628 46.79999999999927,198.721 C46.79999999999927,198.784 46.70000000000073,198.862 46.70000000000073,198.956 L44.29999999999927,200.846 L46.70000000000073,202.737 C46.70000000000073,202.81 46.79999999999927,202.891 46.79999999999927,202.979 C46.79999999999927,203.068 46.70000000000073,203.143 46.70000000000073,203.206 L46.29999999999927,203.518 C46.20000000000073,203.57 46.100000000000364,203.596 46.100000000000364,203.596 C46.0,203.596 46.0,203.57 45.899999999999636,203.518 L43.5,201.565 L41.100000000000364,203.518 C41.0,203.57 40.899999999999636,203.596 40.899999999999636,203.596 C40.79999999999927,203.596 40.79999999999927,203.57 40.70000000000073,203.518 L40.29999999999927,203.206 C40.20000000000073,203.143 40.20000000000073,203.065 40.20000000000073,202.971 C40.20000000000073,202.909 40.20000000000073,202.831 40.29999999999927,202.737 L42.600000000000364,200.846 L40.29999999999927,198.956 C40.20000000000073,198.883 40.20000000000073,198.802 40.20000000000073,198.714 C40.20000000000073,198.625 40.20000000000073,198.55 40.29999999999927,198.487 L40.70000000000073,198.175 C40.79999999999927,198.122 40.79999999999927,198.096 40.899999999999636,198.096 C40.899999999999636,198.096 41.0,198.122 41.100000000000364,198.175 L43.5,200.128" />
<path d="M10.700000000000728,225.128 L13.100000000000364,223.175 C13.200000000000728,223.122 13.200000000000728,223.096 13.299999999999272,223.096 C13.399999999999636,223.096 13.399999999999636,223.122 13.5,223.175 L13.899999999999636,223.487 C14.0,223.55 14.0,223.628 14.0,223.721 C14.0,223.784 14.0,223.862 13.899999999999636,223.956 L11.600000000000364,225.846 L13.899999999999636,227.737 C14.0,227.81 14.0,227.891 14.0,227.979 C14.0,228.068 14.0,228.143 13.899999999999636,228.206 L13.5,228.518 C13.399999999999636,228.57 13.399999999999636,228.596 13.299999999999272,228.596 C13.200000000000728,228.596 13.200000000000728,228.57 13.100000000000364,228.518 L10.700000000000728,226.565 L8.299999999999272,228.518 C8.200000000000728,228.57 8.200000000000728,228.596 8.100000000000364,228.596 C8.100000000000364,228.596 8.0,228.57 7.899999999999636,228.518 L7.5,228.206 C7.399999999999636,228.143 7.399999999999636,228.065 7.399999999999636,227.971 C7.399999999999636,227.909 7.399999999999636,227.831 7.5,227.737 L9.799999999999272,225.846 L7.5,223.956 C7.399999999999636,223.883 7.399999999999636,223.802 7.399999999999636,223.714 C7.399999999999636,223.625 7.399999999999636,223.55 7.5,223.487 L7.899999999999636,223.175 C8.0,223.122 8.100000000000364,223.096 8.100000000000364,223.096 C8.200000000000728,223.096 8.200000000000728,223.122 8.299999999999272,223.175 L10.700000000000728,225.128" />
<path d="M11.799999999999272,168.096 C12.399999999999636,168.096 13.0,168.258 13.399999999999636,168.581 C13.799999999999272,168.935 14.0,169.378 14.0,169.909 C14.0,170.805 13.5,171.643 12.600000000000364,172.425 C11.700000000000728,173.206 10.700000000000728,173.596 9.600000000000364,173.596 C9.0,173.596 8.5,173.435 8.0,173.112 C7.600000000000364,172.758 7.399999999999636,172.315 7.399999999999636,171.784 C7.399999999999636,170.888 7.899999999999636,170.05 8.799999999999272,169.268 C9.700000000000728,168.487 10.700000000000728,168.096 11.799999999999272,168.096" />
<path d="M11.799999999999272,175.596 C12.399999999999636,175.596 13.0,175.758 13.399999999999636,176.081 C13.799999999999272,176.435 14.0,176.878 14.0,177.409 C14.0,178.305 13.5,179.143 12.600000000000364,179.925 C11.700000000000728,180.706 10.700000000000728,181.096 9.600000000000364,181.096 C9.0,181.096 8.5,180.935 8.0,180.612 C7.600000000000364,180.258 7.399999999999636,179.815 7.399999999999636,179.284 C7.399999999999636,178.388 7.899999999999636,177.55 8.799999999999272,176.768 C9.700000000000728,175.987 10.700000000000728,175.596 11.799999999999272,175.596" />
<path d="M11.799999999999272,180.596 C12.399999999999636,180.596 13.0,180.758 13.399999999999636,181.081 C13.799999999999272,181.435 14.0,181.878 14.0,182.409 C14.0,183.305 13.5,184.143 12.600000000000364,184.925 C11.700000000000728,185.706 10.700000000000728,186.096 9.600000000000364,186.096 C9.0,186.096 8.5,185.935 8.0,185.612 C7.600000000000364,185.258 7.399999999999636,184.815 7.399999999999636,184.284 C7.399999999999636,183.388 7.899999999999636,182.55 8.799999999999272,181.768 C9.700000000000728,180.987 10.700000000000728,180.596 11.799999999999272,180.596" />
<path d="M10.700000000000728,200.128 L13.100000000000364,198.175 C13.200000000000728,198.122 13.200000000000728,198.096 13.299999999999272,198.096 C13.399999999999636,198.096 13.399999999999636,198.122 13.5,198.175 L13.899999999999636,198.487 C14.0,198.55 14.0,198.628 14.0,198.721 C14.0,198.784 14.0,198.862 13.899999999999636,198.956 L11.600000000000364,200.846 L13.899999999999636,202.737 C14.0,202.81 14.0,202.891 14.0,202.979 C14.0,203.068 14.0,203.143 13.899999999999636,203.206 L13.5,203.518 C13.399999999999636,203.57 13.399999999999636,203.596 13.299999999999272,203.596 C13.200000000000728,203.596 13.200000000000728,203.57 13.100000000000364,203.518 L10.700000000000728,201.565 L8.299999999999272,203.518 C8.200000000000728,203.57 8.200000000000728,203.596 8.100000000000364,203.596 C8.100000000000364,203.596 8.0,203.57 7.899999999999636,203.518 L7.5,203.206 C7.399999999999636,203.143 7.399999999999636,203.065 7.399999999999636,202.971 C7.399999999999636,202.909 7.399999999999636,202.831 7.5,202.737 L9.799999999999272,200.846 L7.5,198.956 C7.399999999999636,198.883 7.399999999999636,198.802 7.399999999999636,198.714 C7.399999999999636,198.625 7.399999999999636,198.55 7.5,198.487 L7.899999999999636,198.175 C8.0,198.122 8.100000000000364,198.096 8.100000000000364,198.096 C8.200000000000728,198.096 8.200000000000728,198.122 8.299999999999272,198.175 L10.700000000000728,200.128" />
<path d="M46.100000000000364,209.596 L145.10000000000036,209.596 L145.10000000000036,212.096 L46.100000000000364,212.096 L46.100000000000364,209.596" />
<path d="M46.100000000000364,213.346 L145.10000000000036,213.346 L145.10000000000036,215.846 L46.100000000000364,215.846 L46.100000000000364,213.346" />
<path d="M46.100000000000364,153.346 L112.29999999999927,153.346 L112.29999999999927,155.846 L46.100000000000364,155.846 L46.100000000000364,153.346" />
<path d="M46.100000000000364,157.096 L79.60000000000036,157.096 L79.60000000000036,159.596 L46.100000000000364,159.596 L46.100000000000364,157.096" />
<path d="M224.29999999999927,46.6121 C224.20000000000073,46.6121 224.0,46.6694 223.70000000000073,46.784 L223.70000000000073,46.6746 L225.10000000000036,45.9402 L225.20000000000073,45.9558 L225.20000000000073,50.7527 C225.20000000000073,50.9506 225.20000000000073,51.0782 225.29999999999927,51.1355 C225.39999999999964,51.1928 225.60000000000036,51.2215 226.0,51.2215 L226.0,51.3465 L223.79999999999927,51.3465 L223.79999999999927,51.2215 C224.10000000000036,51.211 224.29999999999927,51.1668 224.39999999999964,51.0886 C224.5,51.0105 224.5,50.8465 224.5,50.5965 L224.5,46.9871 C224.5,46.7371 224.39999999999964,46.6121 224.29999999999927,46.6121 M230.10000000000036,50.6902 C229.79999999999927,51.2006 229.29999999999927,51.4558 228.79999999999927,51.4558 C228.20000000000073,51.4558 227.79999999999927,51.1954 227.5,50.6746 C227.20000000000073,50.1537 227.0,49.4819 227.0,48.659 C227.0,47.8881 227.20000000000073,47.2423 227.5,46.7215 C227.79999999999927,46.2006 228.29999999999927,45.9402 228.79999999999927,45.9402 C229.29999999999927,45.9402 229.70000000000073,46.1954 230.10000000000036,46.7058 C230.39999999999964,47.2162 230.60000000000036,47.8829 230.60000000000036,48.7058 C230.60000000000036,49.5183 230.39999999999964,50.1798 230.10000000000036,50.6902 M228.79999999999927,46.1433 C228.10000000000036,46.1433 227.70000000000073,47.0079 227.70000000000073,48.7371 C227.70000000000073,50.4142 228.10000000000036,51.2527 228.79999999999927,51.2527 C229.5,51.2527 229.79999999999927,50.409 229.79999999999927,48.7215 C229.79999999999927,47.8881 229.70000000000073,47.2501 229.60000000000036,46.8074 C229.39999999999964,46.3647 229.10000000000036,46.1433 228.79999999999927,46.1433 M234.60000000000036,49.534 L234.60000000000036,50.0183 L233.70000000000073,50.0183 L233.70000000000073,51.3465 L233.10000000000036,51.3465 L233.10000000000036,50.0183 L230.89999999999964,50.0183 L230.89999999999964,49.534 L233.39999999999964,45.9715 L233.70000000000073,45.9715 L233.70000000000073,49.534 L234.60000000000036,49.534 M233.10000000000036,49.534 L233.10000000000036,46.784 L231.20000000000073,49.534 L233.10000000000036,49.534" />
<path d="M238.10000000000036,244.409 C238.39999999999964,244.044 238.60000000000036,243.706 238.60000000000036,243.393 C238.60000000000036,243.102 238.5,242.883 238.29999999999927,242.737 C238.0,242.581 237.79999999999927,242.503 237.39999999999964,242.503 C237.20000000000073,242.503 237.0,242.576 236.89999999999964,242.721 C236.79999999999927,242.857 236.70000000000073,243.018 236.70000000000073,243.206 C236.70000000000073,243.445 236.79999999999927,243.622 237.0,243.737 L238.10000000000036,244.409 M238.39999999999964,244.565 C239.0,244.857 239.20000000000073,245.263 239.20000000000073,245.784 C239.20000000000073,245.784 239.20000000000073,245.805 239.20000000000073,245.846 C239.20000000000073,246.242 239.10000000000036,246.576 238.70000000000073,246.846 C238.39999999999964,247.128 238.0,247.268 237.39999999999964,247.268 C236.89999999999964,247.268 236.39999999999964,247.138 236.10000000000036,246.878 C235.70000000000073,246.638 235.5,246.31 235.5,245.893 C235.5,245.706 235.60000000000036,245.539 235.70000000000073,245.393 C235.79999999999927,245.227 235.79999999999927,245.112 235.89999999999964,245.05 C235.89999999999964,245.05 236.0,244.925 236.29999999999927,244.675 C235.89999999999964,244.404 235.70000000000073,244.055 235.70000000000073,243.628 C235.70000000000073,243.263 235.79999999999927,242.94 236.10000000000036,242.659 C236.5,242.399 236.89999999999964,242.268 237.39999999999964,242.268 C237.89999999999964,242.268 238.29999999999927,242.367 238.60000000000036,242.565 C238.89999999999964,242.763 239.0,243.039 239.0,243.393 C239.0,243.727 238.79999999999927,244.117 238.39999999999964,244.565 M236.60000000000036,244.846 C236.20000000000073,245.19 236.0,245.539 236.0,245.893 C236.0,246.227 236.10000000000036,246.497 236.39999999999964,246.706 C236.70000000000073,246.925 237.0,247.034 237.39999999999964,247.034 C237.60000000000036,247.034 237.79999999999927,246.951 238.0,246.784 C238.10000000000036,246.628 238.20000000000073,246.435 238.20000000000073,246.206 C238.20000000000073,245.925 238.10000000000036,245.721 237.89999999999964,245.596 L236.60000000000036,244.846 M244.20000000000073,224.065 C244.0,223.867 243.89999999999964,223.625 243.89999999999964,223.339 C243.89999999999964,223.052 244.0,222.813 244.20000000000073,222.62 C244.39999999999964,222.427 244.60000000000036,222.331 244.89999999999964,222.331 C245.20000000000073,222.331 245.5,222.427 245.70000000000073,222.62 C245.89999999999964,222.813 246.0,223.052 246.0,223.339 C246.0,223.625 245.89999999999964,223.867 245.70000000000073,224.065 C245.5,224.263 245.20000000000073,224.362 244.89999999999964,224.362 C244.60000000000036,224.362 244.39999999999964,224.263 244.20000000000073,224.065 M244.20000000000073,229.073 C244.0,228.88 243.89999999999964,228.641 243.89999999999964,228.354 C243.89999999999964,228.068 244.0,227.826 244.20000000000073,227.628 C244.39999999999964,227.43 244.60000000000036,227.331 244.89999999999964,227.331 C245.20000000000073,227.331 245.5,227.43 245.70000000000073,227.628 C245.89999999999964,227.826 246.0,228.068 246.0,228.354 C246.0,228.641 245.89999999999964,228.88 245.70000000000073,229.073 C245.5,229.266 245.20000000000073,229.362 244.89999999999964,229.362 C244.60000000000036,229.362 244.39999999999964,229.266 244.20000000000073,229.073 M237.39999999999964,220.596 C239.20000000000073,220.596 240.60000000000036,221.029 241.70000000000073,221.893 C242.79999999999927,222.81 243.29999999999927,224.05 243.29999999999927,225.612 C243.29999999999927,226.664 243.10000000000036,227.628 242.70000000000073,228.503 C242.29999999999927,229.419 241.79999999999927,230.227 241.10000000000036,230.925 C240.5,231.643 239.70000000000073,232.32 238.79999999999927,232.956 C237.89999999999964,233.581 236.89999999999964,234.143 236.0,234.643 C234.10000000000036,235.612 233.0,236.096 232.79999999999927,236.096 C232.60000000000036,236.096 232.5,236.013 232.5,235.846 C232.5,235.784 232.60000000000036,235.727 232.60000000000036,235.675 C233.29999999999927,235.279 234.10000000000036,234.779 235.10000000000036,234.175 C235.70000000000073,233.768 236.39999999999964,233.206 237.20000000000073,232.487 C238.10000000000036,231.81 238.70000000000073,231.175 239.10000000000036,230.581 C239.60000000000036,229.987 240.0,229.258 240.39999999999964,228.393 C240.70000000000073,227.518 240.79999999999927,226.654 240.79999999999927,225.8 C240.79999999999927,224.539 240.5,223.44 239.89999999999964,222.503 C239.29999999999927,221.565 238.5,221.096 237.39999999999964,221.096 C236.70000000000073,221.096 236.10000000000036,221.331 235.60000000000036,221.8 C235.0,222.279 234.60000000000036,222.883 234.29999999999927,223.612 C234.60000000000036,223.508 234.79999999999927,223.456 235.0,223.456 C235.60000000000036,223.456 236.0,223.654 236.39999999999964,224.05 C236.79999999999927,224.466 237.0,224.94 237.0,225.471 C237.0,226.034 236.79999999999927,226.539 236.5,226.987 C236.10000000000036,227.383 235.60000000000036,227.581 235.0,227.581 C234.5,227.581 233.89999999999964,227.383 233.5,226.987 C233.0,226.539 232.79999999999927,226.034 232.79999999999927,225.471 C232.79999999999927,224.128 233.20000000000073,222.982 234.20000000000073,222.034 C235.10000000000036,221.076 236.20000000000073,220.596 237.39999999999964,220.596" />
<path d="M240.10000000000036,178.221 C240.10000000000036,178.221 240.20000000000073,178.221 240.29999999999927,178.221 C240.29999999999927,178.211 240.29999999999927,178.206 240.39999999999964,178.206 C241.79999999999927,178.206 243.0,178.721 244.0,179.753 C244.89999999999964,180.763 245.39999999999964,181.945 245.39999999999964,183.3 C245.39999999999964,184.987 244.70000000000073,186.357 243.29999999999927,187.409 C242.89999999999964,187.701 242.5,187.935 241.89999999999964,188.112 C241.89999999999964,188.956 242.0,189.638 242.0,190.159 C242.0,190.263 242.0,190.643 241.89999999999964,191.3 C241.89999999999964,192.508 241.5,193.555 240.70000000000073,194.44 C239.89999999999964,195.315 239.0,195.753 237.89999999999964,195.753 C236.79999999999927,195.753 235.89999999999964,195.383 235.20000000000073,194.643 C234.39999999999964,193.883 234.10000000000036,192.971 234.10000000000036,191.909 C234.10000000000036,191.346 234.29999999999927,190.867 234.70000000000073,190.471 C235.10000000000036,190.086 235.70000000000073,189.893 236.20000000000073,189.893 C236.79999999999927,189.893 237.20000000000073,190.096 237.60000000000036,190.503 C237.89999999999964,190.878 238.10000000000036,191.346 238.10000000000036,191.909 C238.10000000000036,192.409 237.89999999999964,192.841 237.60000000000036,193.206 C237.20000000000073,193.57 236.79999999999927,193.753 236.20000000000073,193.753 C236.0,193.753 235.79999999999927,193.716 235.60000000000036,193.643 C236.20000000000073,194.487 237.0,194.909 237.89999999999964,194.909 C238.79999999999927,194.909 239.60000000000036,194.544 240.10000000000036,193.815 C240.70000000000073,193.065 241.10000000000036,192.185 241.10000000000036,191.175 C241.10000000000036,190.55 241.10000000000036,190.195 241.10000000000036,190.112 C241.10000000000036,189.383 241.10000000000036,188.784 241.10000000000036,188.315 C240.39999999999964,188.419 239.79999999999927,188.471 239.29999999999927,188.471 C237.5,188.471 236.0,187.753 234.70000000000073,186.315 C233.5,184.867 232.79999999999927,183.149 232.79999999999927,181.159 C232.79999999999927,180.742 232.89999999999964,180.32 232.89999999999964,179.893 C233.0,179.539 233.10000000000036,179.154 233.20000000000073,178.737 C233.29999999999927,178.497 233.5,178.117 233.79999999999927,177.596 C233.89999999999964,177.44 234.0,177.245 234.10000000000036,177.011 C234.29999999999927,176.776 234.29999999999927,176.622 234.39999999999964,176.55 C234.5,176.289 234.79999999999927,175.935 235.10000000000036,175.487 C235.29999999999927,175.372 235.39999999999964,175.245 235.5,175.104 C235.60000000000036,174.964 235.70000000000073,174.846 235.79999999999927,174.753 C235.79999999999927,174.659 235.89999999999964,174.586 235.89999999999964,174.534 C236.0,174.482 236.29999999999927,174.138 236.79999999999927,173.503 C236.89999999999964,173.367 237.10000000000036,173.227 237.20000000000073,173.081 C237.29999999999927,172.935 237.39999999999964,172.818 237.5,172.729 C237.60000000000036,172.641 237.60000000000036,172.581 237.70000000000073,172.55 C237.20000000000073,170.997 236.89999999999964,169.758 236.79999999999927,168.831 C236.70000000000073,168.091 236.70000000000073,167.076 236.70000000000073,165.784 C236.70000000000073,164.649 236.89999999999964,163.586 237.39999999999964,162.596 C237.89999999999964,161.576 238.70000000000073,160.737 239.60000000000036,160.081 C239.60000000000036,160.039 239.70000000000073,160.018 239.79999999999927,160.018 C239.79999999999927,160.018 239.89999999999964,160.039 240.0,160.081 C240.70000000000073,160.925 241.29999999999927,162.024 241.79999999999927,163.378 C242.29999999999927,164.732 242.60000000000036,165.966 242.60000000000036,167.081 C242.60000000000036,168.331 242.29999999999927,169.503 241.70000000000073,170.596 C241.0,171.753 240.10000000000036,172.951 239.0,174.19 C239.29999999999927,175.044 239.70000000000073,176.388 240.10000000000036,178.221 M241.79999999999927,187.315 C242.5,187.065 243.0,186.643 243.39999999999964,186.05 C243.79999999999927,185.477 244.0,184.831 244.0,184.112 C244.0,183.185 243.70000000000073,182.362 243.10000000000036,181.643 C242.39999999999964,180.904 241.60000000000036,180.487 240.60000000000036,180.393 C241.20000000000073,183.143 241.60000000000036,185.451 241.79999999999927,187.315 M234.20000000000073,182.8 C234.20000000000073,184.091 234.79999999999927,185.227 235.79999999999927,186.206 C236.89999999999964,187.154 238.10000000000036,187.628 239.39999999999964,187.628 C239.89999999999964,187.628 240.5,187.586 241.0,187.503 C240.79999999999927,185.524 240.39999999999964,183.154 239.79999999999927,180.393 C239.0,180.477 238.39999999999964,180.737 238.0,181.175 C237.60000000000036,181.633 237.29999999999927,182.149 237.29999999999927,182.721 C237.29999999999927,183.711 237.89999999999964,184.513 238.89999999999964,185.128 C239.0,185.221 239.10000000000036,185.32 239.10000000000036,185.425 C239.10000000000036,185.529 239.0,185.622 238.89999999999964,185.706 C238.79999999999927,185.8 238.70000000000073,185.846 238.60000000000036,185.846 C238.60000000000036,185.846 238.60000000000036,185.836 238.5,185.815 C237.70000000000073,185.409 237.10000000000036,184.888 236.70000000000073,184.253 C236.39999999999964,183.565 236.20000000000073,182.878 236.20000000000073,182.19 C236.20000000000073,181.294 236.39999999999964,180.482 237.0,179.753 C237.60000000000036,179.024 238.29999999999927,178.555 239.29999999999927,178.346 C238.89999999999964,176.888 238.60000000000036,175.747 238.39999999999964,174.925 C238.20000000000073,175.164 237.89999999999964,175.448 237.60000000000036,175.776 C237.39999999999964,176.104 237.20000000000073,176.305 237.10000000000036,176.378 C236.70000000000073,176.982 236.29999999999927,177.456 236.10000000000036,177.8 C235.60000000000036,178.414 235.29999999999927,178.94 235.10000000000036,179.378 C234.79999999999927,179.878 234.70000000000073,180.419 234.5,181.003 C234.29999999999927,181.565 234.20000000000073,182.164 234.20000000000073,182.8 M240.79999999999927,162.94 C239.79999999999927,163.419 239.0,164.107 238.5,165.003 C237.89999999999964,165.93 237.60000000000036,166.925 237.60000000000036,167.987 C237.60000000000036,168.925 237.79999999999927,170.19 238.29999999999927,171.784 C239.20000000000073,170.649 239.89999999999964,169.602 240.39999999999964,168.643 C240.89999999999964,167.622 241.10000000000036,166.56 241.10000000000036,165.456 C241.10000000000036,164.622 241.0,163.784 240.79999999999927,162.94 M238.60000000000036,198.581 C238.89999999999964,198.247 239.10000000000036,197.909 239.10000000000036,197.565 C239.10000000000036,197.294 239.0,197.086 238.79999999999927,196.94 C238.5,196.784 238.29999999999927,196.706 237.89999999999964,196.706 C237.70000000000073,196.706 237.5,196.779 237.39999999999964,196.925 C237.29999999999927,197.05 237.20000000000073,197.211 237.20000000000073,197.409 C237.20000000000073,197.649 237.29999999999927,197.826 237.5,197.94 L238.60000000000036,198.581 M238.89999999999964,198.753 C239.5,199.055 239.70000000000073,199.461 239.70000000000073,199.971 L239.70000000000073,200.034 C239.70000000000073,200.43 239.60000000000036,200.768 239.29999999999927,201.05 C238.89999999999964,201.331 238.5,201.471 237.89999999999964,201.471 C237.39999999999964,201.471 236.89999999999964,201.341 236.60000000000036,201.081 C236.20000000000073,200.831 236.0,200.492 236.0,200.065 C236.0,199.899 236.10000000000036,199.742 236.20000000000073,199.596 C236.29999999999927,199.43 236.39999999999964,199.315 236.39999999999964,199.253 L236.79999999999927,198.878 C236.39999999999964,198.607 236.20000000000073,198.247 236.20000000000073,197.8 C236.20000000000073,197.445 236.29999999999927,197.133 236.70000000000073,196.862 C237.0,196.602 237.39999999999964,196.471 237.89999999999964,196.471 C238.39999999999964,196.471 238.79999999999927,196.57 239.10000000000036,196.768 C239.39999999999964,196.966 239.60000000000036,197.232 239.60000000000036,197.565 C239.60000000000036,197.919 239.29999999999927,198.315 238.89999999999964,198.753 M237.10000000000036,199.05 C236.70000000000073,199.393 236.5,199.732 236.5,200.065 C236.5,200.419 236.60000000000036,200.701 236.89999999999964,200.909 C237.20000000000073,201.128 237.5,201.237 237.89999999999964,201.237 C238.10000000000036,201.237 238.29999999999927,201.154 238.5,200.987 C238.60000000000036,200.831 238.70000000000073,200.643 238.70000000000073,200.425 C238.70000000000073,200.133 238.60000000000036,199.925 238.39999999999964,199.8 L237.10000000000036,199.05" />
<path d="M238.10000000000036,139.409 C238.39999999999964,139.044 238.60000000000036,138.706 238.60000000000036,138.393 C238.60000000000036,138.102 238.5,137.883 238.29999999999927,137.737 C238.0,137.581 237.79999999999927,137.503 237.39999999999964,137.503 C237.20000000000073,137.503 237.0,137.576 236.89999999999964,137.721 C236.79999999999927,137.857 236.70000000000073,138.018 236.70000000000073,138.206 C236.70000000000073,138.445 236.79999999999927,138.622 237.0,138.737 L238.10000000000036,139.409 M238.39999999999964,139.565 C239.0,139.857 239.20000000000073,140.263 239.20000000000073,140.784 C239.20000000000073,140.784 239.20000000000073,140.805 239.20000000000073,140.846 C239.20000000000073,141.242 239.10000000000036,141.576 238.70000000000073,141.846 C238.39999999999964,142.128 238.0,142.268 237.39999999999964,142.268 C236.89999999999964,142.268 236.39999999999964,142.138 236.10000000000036,141.878 C235.70000000000073,141.638 235.5,141.31 235.5,140.893 C235.5,140.706 235.60000000000036,140.539 235.70000000000073,140.393 C235.79999999999927,140.227 235.79999999999927,140.112 235.89999999999964,140.05 C235.89999999999964,140.05 236.0,139.925 236.29999999999927,139.675 C235.89999999999964,139.404 235.70000000000073,139.055 235.70000000000073,138.628 C235.70000000000073,138.263 235.79999999999927,137.94 236.10000000000036,137.659 C236.5,137.399 236.89999999999964,137.268 237.39999999999964,137.268 C237.89999999999964,137.268 238.29999999999927,137.367 238.60000000000036,137.565 C238.89999999999964,137.763 239.0,138.039 239.0,138.393 C239.0,138.727 238.79999999999927,139.117 238.39999999999964,139.565 M236.60000000000036,139.846 C236.20000000000073,140.19 236.0,140.539 236.0,140.893 C236.0,141.227 236.10000000000036,141.497 236.39999999999964,141.706 C236.70000000000073,141.925 237.0,142.034 237.39999999999964,142.034 C237.60000000000036,142.034 237.79999999999927,141.951 238.0,141.784 C238.10000000000036,141.628 238.20000000000073,141.435 238.20000000000073,141.206 C238.20000000000073,140.925 238.10000000000036,140.721 237.89999999999964,140.596 L236.60000000000036,139.846 M244.20000000000073,119.065 C244.0,118.867 243.89999999999964,118.625 243.89999999999964,118.339 C243.89999999999964,118.052 244.0,117.813 244.20000000000073,117.62 C244.39999999999964,117.427 244.60000000000036,117.331 244.89999999999964,117.331 C245.20000000000073,117.331 245.5,117.427 245.70000000000073,117.62 C245.89999999999964,117.813 246.0,118.052 246.0,118.339 C246.0,118.625 245.89999999999964,118.867 245.70000000000073,119.065 C245.5,119.263 245.20000000000073,119.362 244.89999999999964,119.362 C244.60000000000036,119.362 244.39999999999964,119.263 244.20000000000073,119.065 M244.20000000000073,124.073 C244.0,123.88 243.89999999999964,123.641 243.89999999999964,123.354 C243.89999999999964,123.068 244.0,122.826 244.20000000000073,122.628 C244.39999999999964,122.43 244.60000000000036,122.331 244.89999999999964,122.331 C245.20000000000073,122.331 245.5,122.43 245.70000000000073,122.628 C245.89999999999964,122.826 246.0,123.068 246.0,123.354 C246.0,123.641 245.89999999999964,123.88 245.70000000000073,124.073 C245.5,124.266 245.20000000000073,124.362 244.89999999999964,124.362 C244.60000000000036,124.362 244.39999999999964,124.266 244.20000000000073,124.073 M237.39999999999964,115.596 C239.20000000000073,115.596 240.60000000000036,116.029 241.70000000000073,116.893 C242.79999999999927,117.81 243.29999999999927,119.05 243.29999999999927,120.612 C243.29999999999927,121.664 243.10000000000036,122.628 242.70000000000073,123.503 C242.29999999999927,124.419 241.79999999999927,125.227 241.10000000000036,125.925 C240.5,126.643 239.70000000000073,127.32 238.79999999999927,127.956 C237.89999999999964,128.581 236.89999999999964,129.143 236.0,129.643 C234.10000000000036,130.612 233.0,131.096 232.79999999999927,131.096 C232.60000000000036,131.096 232.5,131.013 232.5,130.846 C232.5,130.784 232.60000000000036,130.727 232.60000000000036,130.675 C233.29999999999927,130.279 234.10000000000036,129.779 235.10000000000036,129.175 C235.70000000000073,128.768 236.39999999999964,128.206 237.20000000000073,127.487 C238.10000000000036,126.81 238.70000000000073,126.175 239.10000000000036,125.581 C239.60000000000036,124.987 240.0,124.258 240.39999999999964,123.393 C240.70000000000073,122.518 240.79999999999927,121.654 240.79999999999927,120.8 C240.79999999999927,119.539 240.5,118.44 239.89999999999964,117.503 C239.29999999999927,116.565 238.5,116.096 237.39999999999964,116.096 C236.70000000000073,116.096 236.10000000000036,116.331 235.60000000000036,116.8 C235.0,117.279 234.60000000000036,117.883 234.29999999999927,118.612 C234.60000000000036,118.508 234.79999999999927,118.456 235.0,118.456 C235.60000000000036,118.456 236.0,118.654 236.39999999999964,119.05 C236.79999999999927,119.466 237.0,119.94 237.0,120.471 C237.0,121.034 236.79999999999927,121.539 236.5,121.987 C236.10000000000036,122.383 235.60000000000036,122.581 235.0,122.581 C234.5,122.581 233.89999999999964,122.383 233.5,121.987 C233.0,121.539 232.79999999999927,121.034 232.79999999999927,120.471 C232.79999999999927,119.128 233.20000000000073,117.982 234.20000000000073,117.034 C235.10000000000036,116.076 236.20000000000073,115.596 237.39999999999964,115.596" />
<path d="M240.10000000000036,73.2215 C240.10000000000036,73.2215 240.20000000000073,73.2215 240.29999999999927,73.2215 C240.29999999999927,73.211 240.29999999999927,73.2058 240.39999999999964,73.2058 C241.79999999999927,73.2058 243.0,73.7215 244.0,74.7527 C244.89999999999964,75.7631 245.39999999999964,76.9454 245.39999999999964,78.2996 C245.39999999999964,79.9871 244.70000000000073,81.3569 243.29999999999927,82.409 C242.89999999999964,82.7006 242.5,82.935 241.89999999999964,83.1121 C241.89999999999964,83.9558 242.0,84.6381 242.0,85.159 C242.0,85.2631 242.0,85.6433 241.89999999999964,86.2996 C241.89999999999964,87.5079 241.5,88.5548 240.70000000000073,89.4402 C239.89999999999964,90.3152 239.0,90.7527 237.89999999999964,90.7527 C236.79999999999927,90.7527 235.89999999999964,90.3829 235.20000000000073,89.6433 C234.39999999999964,88.8829 234.10000000000036,87.9715 234.10000000000036,86.909 C234.10000000000036,86.3465 234.29999999999927,85.8673 234.70000000000073,85.4715 C235.10000000000036,85.086 235.70000000000073,84.8933 236.20000000000073,84.8933 C236.79999999999927,84.8933 237.20000000000073,85.0965 237.60000000000036,85.5027 C237.89999999999964,85.8777 238.10000000000036,86.3465 238.10000000000036,86.909 C238.10000000000036,87.409 237.89999999999964,87.8412 237.60000000000036,88.2058 C237.20000000000073,88.5704 236.79999999999927,88.7527 236.20000000000073,88.7527 C236.0,88.7527 235.79999999999927,88.7162 235.60000000000036,88.6433 C236.20000000000073,89.4871 237.0,89.909 237.89999999999964,89.909 C238.79999999999927,89.909 239.60000000000036,89.5444 240.10000000000036,88.8152 C240.70000000000073,88.0652 241.10000000000036,87.185 241.10000000000036,86.1746 C241.10000000000036,85.5496 241.10000000000036,85.1954 241.10000000000036,85.1121 C241.10000000000036,84.3829 241.10000000000036,83.784 241.10000000000036,83.3152 C240.39999999999964,83.4194 239.79999999999927,83.4715 239.29999999999927,83.4715 C237.5,83.4715 236.0,82.7527 234.70000000000073,81.3152 C233.5,79.8673 232.79999999999927,78.1485 232.79999999999927,76.159 C232.79999999999927,75.7423 232.89999999999964,75.3204 232.89999999999964,74.8933 C233.0,74.5392 233.10000000000036,74.1537 233.20000000000073,73.7371 C233.29999999999927,73.4975 233.5,73.1173 233.79999999999927,72.5965 C233.89999999999964,72.4402 234.0,72.2449 234.10000000000036,72.0105 C234.29999999999927,71.7761 234.29999999999927,71.6225 234.39999999999964,71.5496 C234.5,71.2892 234.79999999999927,70.935 235.10000000000036,70.4871 C235.29999999999927,70.3725 235.39999999999964,70.2449 235.5,70.1043 C235.60000000000036,69.9636 235.70000000000073,69.8465 235.79999999999927,69.7527 C235.79999999999927,69.659 235.89999999999964,69.586 235.89999999999964,69.534 C236.0,69.4819 236.29999999999927,69.1381 236.79999999999927,68.5027 C236.89999999999964,68.3673 237.10000000000036,68.2267 237.20000000000073,68.0808 C237.29999999999927,67.935 237.39999999999964,67.8178 237.5,67.7293 C237.60000000000036,67.6407 237.60000000000036,67.5808 237.70000000000073,67.5496 C237.20000000000073,65.9975 236.89999999999964,64.7579 236.79999999999927,63.8308 C236.70000000000073,63.0912 236.70000000000073,62.0756 236.70000000000073,60.784 C236.70000000000073,59.6485 236.89999999999964,58.586 237.39999999999964,57.5965 C237.89999999999964,56.5756 238.70000000000073,55.7371 239.60000000000036,55.0808 C239.60000000000036,55.0392 239.70000000000073,55.0183 239.79999999999927,55.0183 C239.79999999999927,55.0183 239.89999999999964,55.0392 240.0,55.0808 C240.70000000000073,55.9246 241.29999999999927,57.0235 241.79999999999927,58.3777 C242.29999999999927,59.7319 242.60000000000036,60.9662 242.60000000000036,62.0808 C242.60000000000036,63.3308 242.29999999999927,64.5027 241.70000000000073,65.5965 C241.0,66.7527 240.10000000000036,67.9506 239.0,69.1902 C239.29999999999927,70.0444 239.70000000000073,71.3881 240.10000000000036,73.2215 M241.79999999999927,82.3152 C242.5,82.0652 243.0,81.6433 243.39999999999964,81.0496 C243.79999999999927,80.4767 244.0,79.8308 244.0,79.1121 C244.0,78.185 243.70000000000073,77.3621 243.10000000000036,76.6433 C242.39999999999964,75.9037 241.60000000000036,75.4871 240.60000000000036,75.3933 C241.20000000000073,78.1433 241.60000000000036,80.4506 241.79999999999927,82.3152 M234.20000000000073,77.7996 C234.20000000000073,79.0912 234.79999999999927,80.2267 235.79999999999927,81.2058 C236.89999999999964,82.1537 238.10000000000036,82.6277 239.39999999999964,82.6277 C239.89999999999964,82.6277 240.5,82.586 241.0,82.5027 C240.79999999999927,80.5235 240.39999999999964,78.1537 239.79999999999927,75.3933 C239.0,75.4767 238.39999999999964,75.7371 238.0,76.1746 C237.60000000000036,76.6329 237.29999999999927,77.1485 237.29999999999927,77.7215 C237.29999999999927,78.711 237.89999999999964,79.5131 238.89999999999964,80.1277 C239.0,80.2215 239.10000000000036,80.3204 239.10000000000036,80.4246 C239.10000000000036,80.5287 239.0,80.6225 238.89999999999964,80.7058 C238.79999999999927,80.7996 238.70000000000073,80.8465 238.60000000000036,80.8465 C238.60000000000036,80.8465 238.60000000000036,80.836 238.5,80.8152 C237.70000000000073,80.409 237.10000000000036,79.8881 236.70000000000073,79.2527 C236.39999999999964,78.5652 236.20000000000073,77.8777 236.20000000000073,77.1902 C236.20000000000073,76.2944 236.39999999999964,75.4819 237.0,74.7527 C237.60000000000036,74.0235 238.29999999999927,73.5548 239.29999999999927,73.3465 C238.89999999999964,71.8881 238.60000000000036,70.7475 238.39999999999964,69.9246 C238.20000000000073,70.1642 237.89999999999964,70.448 237.60000000000036,70.7761 C237.39999999999964,71.1043 237.20000000000073,71.3048 237.10000000000036,71.3777 C236.70000000000073,71.9819 236.29999999999927,72.4558 236.10000000000036,72.7996 C235.60000000000036,73.4142 235.29999999999927,73.9402 235.10000000000036,74.3777 C234.79999999999927,74.8777 234.70000000000073,75.4194 234.5,76.0027 C234.29999999999927,76.5652 234.20000000000073,77.1642 234.20000000000073,77.7996 M240.79999999999927,57.9402 C239.79999999999927,58.4194 239.0,59.1069 238.5,60.0027 C237.89999999999964,60.9298 237.60000000000036,61.9246 237.60000000000036,62.9871 C237.60000000000036,63.9246 237.79999999999927,65.1902 238.29999999999927,66.784 C239.20000000000073,65.6485 239.89999999999964,64.6017 240.39999999999964,63.6433 C240.89999999999964,62.6225 241.10000000000036,61.56 241.10000000000036,60.4558 C241.10000000000036,59.6225 241.0,58.784 240.79999999999927,57.9402 M238.60000000000036,93.5808 C238.89999999999964,93.2475 239.10000000000036,92.909 239.10000000000036,92.5652 C239.10000000000036,92.2944 239.0,92.086 238.79999999999927,91.9402 C238.5,91.784 238.29999999999927,91.7058 237.89999999999964,91.7058 C237.70000000000073,91.7058 237.5,91.7787 237.39999999999964,91.9246 C237.29999999999927,92.0496 237.20000000000073,92.211 237.20000000000073,92.409 C237.20000000000073,92.6485 237.29999999999927,92.8256 237.5,92.9402 L238.60000000000036,93.5808 M238.89999999999964,93.7527 C239.5,94.0548 239.70000000000073,94.461 239.70000000000073,94.9715 L239.70000000000073,95.034 C239.70000000000073,95.4298 239.60000000000036,95.7683 239.29999999999927,96.0496 C238.89999999999964,96.3308 238.5,96.4715 237.89999999999964,96.4715 C237.39999999999964,96.4715 236.89999999999964,96.3412 236.60000000000036,96.0808 C236.20000000000073,95.8308 236.0,95.4923 236.0,95.0652 C236.0,94.8985 236.10000000000036,94.7423 236.20000000000073,94.5965 C236.29999999999927,94.4298 236.39999999999964,94.3152 236.39999999999964,94.2527 L236.79999999999927,93.8777 C236.39999999999964,93.6069 236.20000000000073,93.2475 236.20000000000073,92.7996 C236.20000000000073,92.4454 236.29999999999927,92.1329 236.70000000000073,91.8621 C237.0,91.6017 237.39999999999964,91.4715 237.89999999999964,91.4715 C238.39999999999964,91.4715 238.79999999999927,91.5704 239.10000000000036,91.7683 C239.39999999999964,91.9662 239.60000000000036,92.2319 239.60000000000036,92.5652 C239.60000000000036,92.9194 239.29999999999927,93.3152 238.89999999999964,93.7527 M237.10000000000036,94.0496 C236.70000000000073,94.3933 236.5,94.7319 236.5,95.0652 C236.5,95.4194 236.60000000000036,95.7006 236.89999999999964,95.909 C237.20000000000073,96.1277 237.5,96.2371 237.89999999999964,96.2371 C238.10000000000036,96.2371 238.29999999999927,96.1537 238.5,95.9871 C238.60000000000036,95.8308 238.70000000000073,95.6433 238.70000000000073,95.4246 C238.70000000000073,95.1329 238.60000000000036,94.9246 238.39999999999964,94.7996 L237.10000000000036,94.0496" />
<path d="M255.29999999999927,249.596 L341.10000000000036,243.299 L341.10000000000036,245.799 L255.29999999999927,252.096 L255.29999999999927,249.596" />
<polyline points="0.0,63.3465 172.10000000000036,63.3465" fill="none" stroke="#000000" stroke-width="0.40" />
<polyline points="0.0,68.3465 172.10000000000036,68.3465" fill="none" stroke="#000000" stroke-width="0.40" />
<polyline points="0.0,73.3465 172.10000000000036,73.3465" fill="none" stroke="#000000" stroke-width="0.40" />
<polyline points="0.0,78.3465 172.10000000000036,78.3465" fill="none" stroke="#000000" stroke-width="0.40" />
<polyline points="0.0,83.3465 172.10000000000036,83.3465" fill="none" stroke="#000000" stroke-width="0.40" />
<polyline points="0.0,115.846 172.10000000000036,115.846" fill="none" stroke="#000000" stroke-width="0.40" />
<polyline points="0.0,120.846 172.10000000000036,120.846" fill="none" stroke="#000000" stroke-width="0.40" />
<polyline points="0.0,125.846 172.10000000000036,125.846" fill="none" stroke="#000000" stroke-width="0.40" />
<polyline points="0.0,130.846 172.10000000000036,130.846" fill="none" stroke="#000000" stroke-width="0.40" />
<polyline points="0.0,135.846 172.10000000000036,135.846" fill="none" stroke="#000000" stroke-width="0.40" />
<polyline points="0.0,168.346 172.10000000000036,168.346" fill="none" stroke="#000000" stroke-width="0.40" />
<polyline points="0.0,173.346 172.10000000000036,173.346" fill="none" stroke="#000000" stroke-width="0.40" />
<polyline points="0.0,178.346 172.10000000000036,178.346" fill="none" stroke="#000000" stroke-width="0.40" />
<polyline points="0.0,183.346 172.10000000000036,183.346" fill="none" stroke="#000000" stroke-width="0.40" />
<polyline points="0.0,188.346 172.10000000000036,188.346" fill="none" stroke="#000000" stroke-width="0.40" />
<polyline points="0.0,220.846 172.10000000000036,220.846" fill="none" stroke="#000000" stroke-width="0.40" />
<polyline points="0.0,225.846 172.10000000000036,225.846" fill="none" stroke="#000000" stroke-width="0.40" />
<polyline points="0.0,230.846 172.10000000000036,230.846" fill="none" stroke="#000000" stroke-width="0.40" />
<polyline points="0.0,235.846 172.10000000000036,235.846" fill="none" stroke="#000000" stroke-width="0.40" />
<polyline points="0.0,240.846 172.10000000000036,240.846" fill="none" stroke="#000000" stroke-width="0.40" />
<polyline points="171.70000000000073,220.846 171.70000000000073,240.846" fill="none" stroke="#000000" stroke-width="0.80" />
<polyline points="171.70000000000073,168.346 171.70000000000073,188.346" fill="none" stroke="#000000" stroke-width="0.80" />
<polyline points="171.70000000000073,115.846 171.70000000000073,135.846" fill="none" stroke="#000000" stroke-width="0.80" />
<polyline points="171.70000000000073,63.3465 171.70000000000073,83.3465" fill="none" stroke="#000000" stroke-width="0.80" />
<polyline points="144.79999999999927,238.862 144.79999999999927,210.846" fill="none" stroke="#000000" stroke-width="0.65" />
<polyline points="112.0,224.907 112.0,210.846" fill="none" stroke="#000000" stroke-width="0.65" />
<polyline points="112.0,198.862 112.0,154.596" fill="none" stroke="#000000" stroke-width="0.65" />
<polyline points="79.20000000000073,227.407 79.20000000000073,210.846" fill="none" stroke="#000000" stroke-width="0.65" />
<polyline points="79.20000000000073,198.862 79.20000000000073,154.596" fill="none" stroke="#000000" stroke-width="0.65" />
<polyline points="46.5,227.407 46.5,210.846" fill="none" stroke="#000000" stroke-width="0.65" />
<polyline points="46.5,198.862 46.5,154.596" fill="none" stroke="#000000" stroke-width="0.65" />
<polyline points="7.700000000000728,227.91 7.700000000000728,244.596" fill="none" stroke="#000000" stroke-width="0.65" />
<polyline points="13.700000000000728,198.862 13.700000000000728,154.596" fill="none" stroke="#000000" stroke-width="0.65" />
<polyline points="104.20000000000073,193.346 113.79999999999927,193.346" fill="none" stroke="#000000" stroke-width="0.80" />
<polyline points="104.20000000000073,198.346 113.79999999999927,198.346" fill="none" stroke="#000000" stroke-width="0.80" />
<polyline points="71.5,193.346 81.10000000000036,193.346" fill="none" stroke="#000000" stroke-width="0.80" />
<polyline points="71.5,198.346 81.10000000000036,198.346" fill="none" stroke="#000000" stroke-width="0.80" />
<polyline points="38.70000000000073,193.346 48.29999999999927,193.346" fill="none" stroke="#000000" stroke-width="0.80" />
<polyline points="38.70000000000073,198.346 48.29999999999927,198.346" fill="none" stroke="#000000" stroke-width="0.80" />
<polyline points="5.899999999999636,193.346 15.5,193.346" fill="none" stroke="#000000" stroke-width="0.80" />
<polyline points="5.899999999999636,198.346 15.5,198.346" fill="none" stroke="#000000" stroke-width="0.80" />
<polyline points="228.79999999999927,63.3465 255.0,63.3465" fill="none" stroke="#000000" stroke-width="0.40" />
<polyline points="228.79999999999927,68.3465 255.0,68.3465" fill="none" stroke="#000000" stroke-width="0.40" />
<polyline points="228.79999999999927,73.3465 255.0,73.3465" fill="none" stroke="#000000" stroke-width="0.40" />
<polyline points="228.79999999999927,78.3465 255.0,78.3465" fill="none" stroke="#000000" stroke-width="0.40" />
<polyline points="228.79999999999927,83.3465 255.0,83.3465" fill="none" stroke="#000000" stroke-width="0.40" />
<polyline points="228.79999999999927,115.846 255.0,115.846" fill="none" stroke="#000000" stroke-width="0.40" />
<polyline points="228.79999999999927,120.846 255.0,120.846" fill="none" stroke="#000000" stroke-width="0.40" />
<polyline points="228.79999999999927,125.846 255.0,125.846" fill="none" stroke="#000000" stroke-width="0.40" />
<polyline points="228.79999999999927,130.846 255.0,130.846" fill="none" stroke="#000000" stroke-width="0.40" />
<polyline points="228.79999999999927,135.846 255.0,135.846" fill="none" stroke="#000000" stroke-width="0.40" />
<polyline points="228.79999999999927,168.346 255.0,168.346" fill="none" stroke="#000000" stroke-width="0.40" />
<polyline points="228.79999999999927,173.346 255.0,173.346" fill="none" stroke="#000000" stroke-width="0.40" />
<polyline points="228.79999999999927,178.346 255.0,178.346" fill="none" stroke="#000000" stroke-width="0.40" />
<polyline points="228.79999999999927,183.346 255.0,183.346" fill="none" stroke="#000000" stroke-width="0.40" />
<polyline points="228.79999999999927,188.346 255.0,188.346" fill="none" stroke="#000000" stroke-width="0.40" />
<polyline points="228.79999999999927,220.846 255.0,220.846" fill="none" stroke="#000000" stroke-width="0.40" />
<polyline points="228.79999999999927,225.846 255.0,225.846" fill="none" stroke="#000000" stroke-width="0.40" />
<polyline points="228.79999999999927,230.846 255.0,230.846" fill="none" stroke="#000000" stroke-width="0.40" />
<polyline points="228.79999999999927,235.846 255.0,235.846" fill="none" stroke="#000000" stroke-width="0.40" />
<polyline points="228.79999999999927,240.846 255.0,240.846" fill="none" stroke="#000000" stroke-width="0.40" />
<polyline points="229.20000000000073,63.3465 229.20000000000073,255.0" fill="none" stroke="#000000" stroke-width="0.80" />
<polyline points="255.60000000000036,234.286 255.60000000000036,250.846" fill="none" stroke="#000000" stroke-width="0.65" />
</svg>
