<?xml version="1.0" encoding="UTF-8" standalone="yes"?>
<svg width="256.0px" height="256.0px" xmlns="http://www.w3.org/2000/svg" xmlns:xlink="http://www.w3.org/1999/xlink" version="1.2" baseProfile="tiny">
<path d="M52.48000000000002,0.09600000000000364 C57.63000000000011,-4.211000000000013 73.05000000000018,-4.211000000000013 78.19000000000005,0.09600000000000364 C73.05000000000018,-3.4110000000000014 57.63000000000011,-3.4110000000000014 52.48000000000002,0.09600000000000364" />
<path d="M141.9000000000001,7.581000000000017 C141.9000000000001,7.831000000000017 141.7800000000002,7.956000000000017 141.5300000000002,7.956000000000017 C141.28999999999996,7.956000000000017 141.17000000000007,7.831000000000017 141.17000000000007,7.581000000000017 L141.17000000000007,4.690000000000055 L139.51000000000022,5.315000000000055 L139.51000000000022,8.471000000000004 C139.51000000000022,8.721000000000004 139.38999999999987,8.846000000000004 139.13999999999987,8.846000000000004 C138.88999999999987,8.846000000000004 138.76000000000022,8.721000000000004 138.76000000000022,8.471000000000004 L138.76000000000022,5.565000000000055 L138.13999999999987,5.7999999999999545 C138.1300000000001,5.809999999999945 138.07000000000016,5.815000000000055 137.98000000000002,5.815000000000055 C137.8800000000001,5.815000000000055 137.7800000000002,5.775999999999954 137.71000000000004,5.697999999999979 C137.6300000000001,5.6200000000000045 137.59000000000015,5.528999999999996 137.59000000000015,5.4249999999999545 L137.59000000000015,4.221000000000004 C137.59000000000015,4.024000000000001 137.67000000000007,3.899000000000001 137.84000000000015,3.8460000000000036 L138.76000000000022,3.533999999999992 L138.76000000000022,0.3310000000000173 L138.13999999999987,0.5499999999999545 C138.1300000000001,0.5599999999999454 138.07000000000016,0.5650000000000546 137.98000000000002,0.5650000000000546 C137.8800000000001,0.5650000000000546 137.7800000000002,0.5259999999999536 137.71000000000004,0.4479999999999791 C137.6300000000001,0.37000000000000455 137.59000000000015,0.27899999999999636 137.59000000000015,0.17499999999995453 L137.59000000000015,-1.0439999999999827 C137.59000000000015,-1.2210000000000036 137.67000000000007,-1.3360000000000127 137.84000000000015,-1.3879999999999768 L138.76000000000022,-1.747000000000014 L138.76000000000022,-4.887999999999977 C138.76000000000022,-5.137999999999977 138.88999999999987,-5.262999999999977 139.13999999999987,-5.262999999999977 C139.38999999999987,-5.262999999999977 139.51000000000022,-5.137999999999977 139.51000000000022,-4.887999999999977 L139.51000000000022,-1.997000000000014 L141.17000000000007,-2.622000000000014 L141.17000000000007,-5.778999999999996 C141.17000000000007,-6.028999999999996 141.28999999999996,-6.153999999999996 141.5300000000002,-6.153999999999996 C141.7800000000002,-6.153999999999996 141.9000000000001,-6.028999999999996 141.9000000000001,-5.778999999999996 L141.9000000000001,-2.872000000000014 L142.55999999999995,-3.1070000000000277 C142.57000000000016,-3.1170000000000186 142.61000000000013,-3.122000000000014 142.67999999999984,-3.122000000000014 C142.7800000000002,-3.122000000000014 142.8800000000001,-3.0860000000000127 142.98000000000002,-3.012999999999977 C143.05999999999995,-2.930000000000007 143.11000000000013,-2.8360000000000127 143.11000000000013,-2.7320000000000277 L143.11000000000013,-1.5289999999999964 C143.11000000000013,-1.3410000000000082 143.01000000000022,-1.2160000000000082 142.82000000000016,-1.1539999999999964 L141.9000000000001,-0.8410000000000082 L141.9000000000001,2.3619999999999663 L142.55999999999995,2.143000000000029 C142.57000000000016,2.133000000000038 142.61000000000013,2.1280000000000427 142.67999999999984,2.1280000000000427 C142.7800000000002,2.1280000000000427 142.8800000000001,2.1689999999999827 142.98000000000002,2.2530000000000427 C143.05999999999995,2.326000000000022 143.11000000000013,2.4139999999999873 143.11000000000013,2.518000000000029 L143.11000000000013,3.7369999999999663 C143.11000000000013,3.9039999999999964 143.01000000000022,4.018000000000029 142.82000000000016,4.081000000000017 L141.9000000000001,4.440000000000055 L141.9000000000001,7.581000000000017 M141.17000000000007,-0.5439999999999827 L139.51000000000022,0.033999999999991815 L139.51000000000022,3.2369999999999663 L141.17000000000007,2.658999999999992 L141.17000000000007,-0.5439999999999827" />
<path d="M72.59000000000015,0.08100000000001728 C72.59000000000015,0.3310000000000173 72.4699999999998,0.4560000000000173 72.23000000000002,0.4560000000000173 C71.98000000000002,0.4560000000000173 71.86000000000013,0.3310000000000173 71.86000000000013,0.08100000000001728 L71.86000000000013,-2.8100000000000023 L70.19999999999982,-2.1850000000000023 L70.19999999999982,0.9710000000000036 C70.19999999999982,1.2210000000000036 70.07999999999993,1.3460000000000036 69.82999999999993,1.3460000000000036 C69.57999999999993,1.3460000000000036 69.44999999999982,1.2210000000000036 69.44999999999982,0.9710000000000036 L69.44999999999982,-1.9350000000000023 L68.82999999999993,-1.6999999999999886 C68.82000000000016,-1.6899999999999977 68.76000000000022,-1.6850000000000023 68.67000000000007,-1.6850000000000023 C68.57000000000016,-1.6850000000000023 68.48000000000002,-1.7239999999999895 68.40000000000009,-1.802000000000021 C68.32000000000016,-1.8799999999999955 68.2800000000002,-1.9710000000000036 68.2800000000002,-2.0749999999999886 L68.2800000000002,-3.2789999999999964 C68.2800000000002,-3.475999999999999 68.36000000000013,-3.600999999999999 68.5300000000002,-3.6539999999999964 L69.44999999999982,-3.966000000000008 L69.44999999999982,-7.168999999999983 L68.82999999999993,-6.949999999999989 C68.82000000000016,-6.939999999999998 68.76000000000022,-6.935000000000002 68.67000000000007,-6.935000000000002 C68.57000000000016,-6.935000000000002 68.48000000000002,-6.9739999999999895 68.40000000000009,-7.052000000000021 C68.32000000000016,-7.1299999999999955 68.2800000000002,-7.221000000000004 68.2800000000002,-7.324999999999989 L68.2800000000002,-8.543999999999983 C68.2800000000002,-8.721000000000004 68.36000000000013,-8.836000000000013 68.5300000000002,-8.887999999999977 L69.44999999999982,-9.247000000000014 L69.44999999999982,-12.387999999999977 C69.44999999999982,-12.637999999999977 69.57999999999993,-12.762999999999977 69.82999999999993,-12.762999999999977 C70.07999999999993,-12.762999999999977 70.19999999999982,-12.637999999999977 70.19999999999982,-12.387999999999977 L70.19999999999982,-9.497000000000014 L71.86000000000013,-10.122000000000014 L71.86000000000013,-13.278999999999996 C71.86000000000013,-13.528999999999996 71.98000000000002,-13.653999999999996 72.23000000000002,-13.653999999999996 C72.4699999999998,-13.653999999999996 72.59000000000015,-13.528999999999996 72.59000000000015,-13.278999999999996 L72.59000000000015,-10.372000000000014 L73.25,-10.607000000000028 C73.26000000000022,-10.617000000000019 73.30000000000018,-10.622000000000014 73.36999999999989,-10.622000000000014 C73.4699999999998,-10.622000000000014 73.57000000000016,-10.586000000000013 73.67000000000007,-10.512999999999977 C73.75,-10.430000000000007 73.80000000000018,-10.336000000000013 73.80000000000018,-10.232000000000028 L73.80000000000018,-9.028999999999996 C73.80000000000018,-8.841000000000008 73.69999999999982,-8.716000000000008 73.51000000000022,-8.653999999999996 L72.59000000000015,-8.341000000000008 L72.59000000000015,-5.137999999999977 L73.25,-5.357000000000028 C73.26000000000022,-5.367000000000019 73.30000000000018,-5.372000000000014 73.36999999999989,-5.372000000000014 C73.4699999999998,-5.372000000000014 73.57000000000016,-5.331000000000017 73.67000000000007,-5.247000000000014 C73.75,-5.173999999999978 73.80000000000018,-5.086000000000013 73.80000000000018,-4.982000000000028 L73.80000000000018,-3.762999999999977 C73.80000000000018,-3.5960000000000036 73.69999999999982,-3.4820000000000277 73.51000000000022,-3.4189999999999827 L72.59000000000015,-3.0600000000000023 L72.59000000000015,0.08100000000001728 M71.86000000000013,-8.043999999999983 L70.19999999999982,-7.466000000000008 L70.19999999999982,-4.262999999999977 L71.86000000000013,-4.841000000000008 L71.86000000000013,-8.043999999999983" />
<path d="M42.590000000000146,3.018000000000029 L42.590000000000146,4.565000000000055 C42.590000000000146,5.116999999999962 42.61999999999989,5.55499999999995 42.67000000000007,5.878000000000043 C43.09999999999991,5.513000000000034 43.40000000000009,5.241999999999962 43.590000000000146,5.065000000000055 C43.80000000000018,4.856999999999971 44.01000000000022,4.567999999999984 44.2199999999998,4.197999999999979 C44.429999999999836,3.8279999999999745 44.5300000000002,3.4610000000000127 44.5300000000002,3.0960000000000036 C44.5300000000002,2.731999999999971 44.44999999999982,2.4189999999999827 44.30000000000018,2.158999999999992 C44.13999999999987,1.899000000000001 43.929999999999836,1.768000000000029 43.67000000000007,1.768000000000029 C43.36000000000013,1.768000000000029 43.09999999999991,1.8880000000000337 42.88999999999987,2.1280000000000427 C42.690000000000055,2.3880000000000337 42.590000000000146,2.6849999999999454 42.590000000000146,3.018000000000029 M41.76000000000022,6.596000000000004 L41.51000000000022,-5.293999999999983 C41.69999999999982,-5.398000000000025 41.88999999999987,-5.449999999999989 42.070000000000164,-5.449999999999989 C42.25,-5.449999999999989 42.429999999999836,-5.398000000000025 42.61000000000013,-5.293999999999983 L42.44999999999982,1.5960000000000036 C42.98000000000002,1.1380000000000337 43.59999999999991,0.9089999999999918 44.30000000000018,0.9089999999999918 C44.80000000000018,0.9089999999999918 45.210000000000036,1.1169999999999618 45.55000000000018,1.5339999999999918 C45.88999999999987,1.9510000000000218 46.059999999999945,2.42999999999995 46.059999999999945,2.9710000000000036 C46.059999999999945,3.30499999999995 45.94999999999982,3.6639999999999873 45.73000000000002,4.0499999999999545 C45.51999999999998,4.393000000000029 45.309999999999945,4.663999999999987 45.07999999999993,4.861999999999966 C44.940000000000055,4.966000000000008 44.61000000000013,5.226999999999975 44.07999999999993,5.643000000000029 C43.92000000000007,5.758000000000038 43.73999999999978,5.893000000000029 43.51999999999998,6.0499999999999545 C43.309999999999945,6.206000000000017 43.179999999999836,6.30499999999995 43.11999999999989,6.346000000000004 C43.0300000000002,6.399000000000001 42.940000000000055,6.503000000000043 42.86000000000013,6.658999999999992 C42.76999999999998,6.793999999999983 42.67000000000007,6.903999999999996 42.55000000000018,6.986999999999966 C42.460000000000036,7.07000000000005 42.36000000000013,7.111999999999966 42.23000000000002,7.111999999999966 C42.090000000000146,7.111999999999966 41.98999999999978,7.065000000000055 41.90000000000009,6.971000000000004 C41.809999999999945,6.878000000000043 41.76000000000022,6.753000000000043 41.76000000000022,6.596000000000004" />
<path d="M28.579999999999927,25.081000000000017 C28.579999999999927,25.331000000000017 28.460000000000036,25.456000000000017 28.210000000000036,25.456000000000017 C27.9699999999998,25.456000000000017 27.84999999999991,25.331000000000017 27.84999999999991,25.081000000000017 L27.84999999999991,22.190000000000055 L26.190000000000055,22.815000000000055 L26.190000000000055,25.971000000000004 C26.190000000000055,26.221000000000004 26.070000000000164,26.346000000000004 25.820000000000164,26.346000000000004 C25.570000000000164,26.346000000000004 25.440000000000055,26.221000000000004 25.440000000000055,25.971000000000004 L25.440000000000055,23.065000000000055 L24.820000000000164,23.299999999999955 C24.809999999999945,23.309999999999945 24.75,23.315000000000055 24.659999999999854,23.315000000000055 C24.559999999999945,23.315000000000055 24.460000000000036,23.275999999999954 24.389999999999873,23.19799999999998 C24.309999999999945,23.120000000000005 24.269999999999982,23.028999999999996 24.269999999999982,22.924999999999955 L24.269999999999982,21.721000000000004 C24.269999999999982,21.524 24.34999999999991,21.399 24.519999999999982,21.346000000000004 L25.440000000000055,21.033999999999992 L25.440000000000055,17.831000000000017 L24.820000000000164,18.049999999999955 C24.809999999999945,18.059999999999945 24.75,18.065000000000055 24.659999999999854,18.065000000000055 C24.559999999999945,18.065000000000055 24.460000000000036,18.025999999999954 24.389999999999873,17.94799999999998 C24.309999999999945,17.870000000000005 24.269999999999982,17.778999999999996 24.269999999999982,17.674999999999955 L24.269999999999982,16.456000000000017 C24.269999999999982,16.278999999999996 24.34999999999991,16.163999999999987 24.519999999999982,16.111999999999966 L25.440000000000055,15.753000000000043 L25.440000000000055,12.611999999999966 C25.440000000000055,12.361999999999966 25.570000000000164,12.236999999999966 25.820000000000164,12.236999999999966 C26.070000000000164,12.236999999999966 26.190000000000055,12.361999999999966 26.190000000000055,12.611999999999966 L26.190000000000055,15.503000000000043 L27.84999999999991,14.878000000000043 L27.84999999999991,11.721000000000004 C27.84999999999991,11.471000000000004 27.9699999999998,11.346000000000004 28.210000000000036,11.346000000000004 C28.460000000000036,11.346000000000004 28.579999999999927,11.471000000000004 28.579999999999927,11.721000000000004 L28.579999999999927,14.628000000000043 L29.23999999999978,14.393000000000029 C29.25,14.383000000000038 29.289999999999964,14.378000000000043 29.360000000000127,14.378000000000043 C29.460000000000036,14.378000000000043 29.559999999999945,14.413999999999987 29.659999999999854,14.486999999999966 C29.73999999999978,14.57000000000005 29.789999999999964,14.663999999999987 29.789999999999964,14.768000000000029 L29.789999999999964,15.971000000000004 C29.789999999999964,16.158999999999992 29.690000000000055,16.283999999999992 29.5,16.346000000000004 L28.579999999999927,16.658999999999992 L28.579999999999927,19.861999999999966 L29.23999999999978,19.64300000000003 C29.25,19.633000000000038 29.289999999999964,19.628000000000043 29.360000000000127,19.628000000000043 C29.460000000000036,19.628000000000043 29.559999999999945,19.668999999999983 29.659999999999854,19.753000000000043 C29.73999999999978,19.826000000000022 29.789999999999964,19.913999999999987 29.789999999999964,20.01800000000003 L29.789999999999964,21.236999999999966 C29.789999999999964,21.403999999999996 29.690000000000055,21.51800000000003 29.5,21.581000000000017 L28.579999999999927,21.940000000000055 L28.579999999999927,25.081000000000017 M27.84999999999991,16.956000000000017 L26.190000000000055,17.533999999999992 L26.190000000000055,20.736999999999966 L27.84999999999991,20.158999999999992 L27.84999999999991,16.956000000000017" />
<path d="M184.23999999999978,71.096 C184.8699999999999,71.096 185.4000000000001,71.25800000000004 185.84000000000015,71.58100000000002 C186.23000000000002,71.93499999999995 186.42999999999984,72.37800000000004 186.42999999999984,72.90899999999999 C186.42999999999984,73.80499999999995 185.9699999999998,74.64300000000003 185.05999999999995,75.42499999999995 C184.1199999999999,76.20600000000002 183.11000000000013,76.596 182.03999999999996,76.596 C181.40999999999985,76.596 180.88999999999987,76.43499999999995 180.46000000000004,76.11199999999997 C180.05999999999995,75.75800000000004 179.8499999999999,75.31500000000005 179.8499999999999,74.78399999999999 C179.8499999999999,73.88800000000003 180.32000000000016,73.04999999999995 181.26000000000022,72.26800000000003 C182.17999999999984,71.48699999999997 183.17000000000007,71.096 184.23999999999978,71.096" />
<path d="M166.92000000000007,71.096 C167.53999999999996,71.096 168.07000000000016,71.25800000000004 168.51000000000022,71.58100000000002 C168.90999999999985,71.93499999999995 169.0999999999999,72.37800000000004 169.0999999999999,72.90899999999999 C169.0999999999999,73.80499999999995 168.63999999999987,74.64300000000003 167.73000000000002,75.42499999999995 C166.78999999999996,76.20600000000002 165.78999999999996,76.596 164.71000000000004,76.596 C164.09000000000015,76.596 163.55999999999995,76.43499999999995 163.1300000000001,76.11199999999997 C162.73000000000002,75.75800000000004 162.51999999999998,75.31500000000005 162.51999999999998,74.78399999999999 C162.51999999999998,73.88800000000003 162.98999999999978,73.04999999999995 163.92999999999984,72.26800000000003 C164.8499999999999,71.48699999999997 165.84000000000015,71.096 166.92000000000007,71.096" />
<path d="M132.26000000000022,66.096 C132.88999999999987,66.096 133.42000000000007,66.25800000000004 133.8499999999999,66.58100000000002 C134.25,66.93499999999995 134.44999999999982,67.37800000000004 134.44999999999982,67.90899999999999 C134.44999999999982,68.80499999999995 133.98999999999978,69.64300000000003 133.07000000000016,70.42499999999995 C132.13999999999987,71.20600000000002 131.1300000000001,71.596 130.05999999999995,71.596 C129.42999999999984,71.596 128.90999999999985,71.43499999999995 128.48000000000002,71.11199999999997 C128.07000000000016,70.75800000000004 127.86999999999989,70.31500000000005 127.86999999999989,69.78399999999999 C127.86999999999989,68.88800000000003 128.34000000000015,68.04999999999995 129.2800000000002,67.26800000000003 C130.19000000000005,66.48699999999997 131.19000000000005,66.096 132.26000000000022,66.096" />
<path d="M114.92999999999984,66.096 C115.55999999999995,66.096 116.09000000000015,66.25800000000004 116.5300000000002,66.58100000000002 C116.92000000000007,66.93499999999995 117.11999999999989,67.37800000000004 117.11999999999989,67.90899999999999 C117.11999999999989,68.80499999999995 116.65999999999985,69.64300000000003 115.75,70.42499999999995 C114.80999999999995,71.20600000000002 113.80000000000018,71.596 112.73000000000002,71.596 C112.11000000000013,71.596 111.57999999999993,71.43499999999995 111.15000000000009,71.11199999999997 C110.75,70.75800000000004 110.53999999999996,70.31500000000005 110.53999999999996,69.78399999999999 C110.53999999999996,68.88800000000003 111.01000000000022,68.04999999999995 111.94999999999982,67.26800000000003 C112.86999999999989,66.48699999999997 113.86000000000013,66.096 114.92999999999984,66.096" />
<path d="M114.92999999999984,1.0960000000000036 C115.55999999999995,1.0960000000000036 116.09000000000015,1.2580000000000382 116.5300000000002,1.5810000000000173 C116.92000000000007,1.9349999999999454 117.11999999999989,2.3780000000000427 117.11999999999989,2.908999999999992 C117.11999999999989,3.80499999999995 116.65999999999985,4.643000000000029 115.75,5.4249999999999545 C114.80999999999995,6.206000000000017 113.80000000000018,6.596000000000004 112.73000000000002,6.596000000000004 C112.11000000000013,6.596000000000004 111.57999999999993,6.434999999999945 111.15000000000009,6.111999999999966 C110.75,5.758000000000038 110.53999999999996,5.315000000000055 110.53999999999996,4.783999999999992 C110.53999999999996,3.8880000000000337 111.01000000000022,3.0499999999999545 111.94999999999982,2.268000000000029 C112.86999999999989,1.4869999999999663 113.86000000000013,1.0960000000000036 114.92999999999984,1.0960000000000036" />
<path d="M97.61000000000013,1.0960000000000036 C98.23000000000002,1.0960000000000036 98.76000000000022,1.2580000000000382 99.19999999999982,1.5810000000000173 C99.59999999999991,1.9349999999999454 99.78999999999996,2.3780000000000427 99.78999999999996,2.908999999999992 C99.78999999999996,3.80499999999995 99.32999999999993,4.643000000000029 98.42000000000007,5.4249999999999545 C97.48000000000002,6.206000000000017 96.48000000000002,6.596000000000004 95.40000000000009,6.596000000000004 C94.7800000000002,6.596000000000004 94.25,6.434999999999945 93.82000000000016,6.111999999999966 C93.42000000000007,5.758000000000038 93.2199999999998,5.315000000000055 93.2199999999998,4.783999999999992 C93.2199999999998,3.8880000000000337 93.67999999999984,3.0499999999999545 94.61999999999989,2.268000000000029 C95.53999999999996,1.4869999999999663 96.5300000000002,1.0960000000000036 97.61000000000013,1.0960000000000036" />
<path d="M80.2800000000002,66.096 C80.90000000000009,66.096 81.42999999999984,66.25800000000004 81.86999999999989,66.58100000000002 C82.26999999999998,66.93499999999995 82.4699999999998,67.37800000000004 82.4699999999998,67.90899999999999 C82.4699999999998,68.80499999999995 82.01000000000022,69.64300000000003 81.09000000000015,70.42499999999995 C80.15000000000009,71.20600000000002 79.15000000000009,71.596 78.07999999999993,71.596 C77.44999999999982,71.596 76.92000000000007,71.43499999999995 76.5,71.11199999999997 C76.09000000000015,70.75800000000004 75.88999999999987,70.31500000000005 75.88999999999987,69.78399999999999 C75.88999999999987,68.88800000000003 76.36000000000013,68.04999999999995 77.28999999999996,67.26800000000003 C78.21000000000004,66.48699999999997 79.21000000000004,66.096 80.2800000000002,66.096" />
<path d="M80.2800000000002,1.0960000000000036 C80.90000000000009,1.0960000000000036 81.42999999999984,1.2580000000000382 81.86999999999989,1.5810000000000173 C82.26999999999998,1.9349999999999454 82.4699999999998,2.3780000000000427 82.4699999999998,2.908999999999992 C82.4699999999998,3.80499999999995 82.01000000000022,4.643000000000029 81.09000000000015,5.4249999999999545 C80.15000000000009,6.206000000000017 79.15000000000009,6.596000000000004 78.07999999999993,6.596000000000004 C77.44999999999982,6.596000000000004 76.92000000000007,6.434999999999945 76.5,6.111999999999966 C76.09000000000015,5.758000000000038 75.88999999999987,5.315000000000055 75.88999999999987,4.783999999999992 C75.88999999999987,3.8880000000000337 76.36000000000013,3.0499999999999545 77.28999999999996,2.268000000000029 C78.21000000000004,1.4869999999999663 79.21000000000004,1.0960000000000036 80.2800000000002,1.0960000000000036" />
<path d="M52.59999999999991,66.096 C53.2199999999998,66.096 53.75,66.25800000000004 54.190000000000055,66.58100000000002 C54.590000000000146,66.93499999999995 54.7800000000002,67.37800000000004 54.7800000000002,67.90899999999999 C54.7800000000002,68.80499999999995 54.320000000000164,69.64300000000003 53.409999999999854,70.42499999999995 C52.4699999999998,71.20600000000002 51.4699999999998,71.596 50.38999999999987,71.596 C49.76999999999998,71.596 49.23999999999978,71.43499999999995 48.809999999999945,71.11199999999997 C48.409999999999854,70.75800000000004 48.19999999999982,70.31500000000005 48.19999999999982,69.78399999999999 C48.19999999999982,68.88800000000003 48.67000000000007,68.04999999999995 49.61000000000013,67.26800000000003 C50.5300000000002,66.48699999999997 51.51999999999998,66.096 52.59999999999991,66.096" />
<path d="M52.59999999999991,1.0960000000000036 C53.2199999999998,1.0960000000000036 53.75,1.2580000000000382 54.190000000000055,1.5810000000000173 C54.590000000000146,1.9349999999999454 54.7800000000002,2.3780000000000427 54.7800000000002,2.908999999999992 C54.7800000000002,3.80499999999995 54.320000000000164,4.643000000000029 53.409999999999854,5.4249999999999545 C52.4699999999998,6.206000000000017 51.4699999999998,6.596000000000004 50.38999999999987,6.596000000000004 C49.76999999999998,6.596000000000004 49.23999999999978,6.434999999999945 48.809999999999945,6.111999999999966 C48.409999999999854,5.758000000000038 48.19999999999982,5.315000000000055 48.19999999999982,4.783999999999992 C48.19999999999982,3.8880000000000337 48.67000000000007,3.0499999999999545 49.61000000000013,2.268000000000029 C50.5300000000002,1.4869999999999663 51.51999999999998,1.0960000000000036 52.59999999999991,1.0960000000000036" />
<path d="M35.26999999999998,68.596 C35.88999999999987,68.596 36.42000000000007,68.75800000000004 36.86000000000013,69.08100000000002 C37.26000000000022,69.43499999999995 37.460000000000036,69.87800000000004 37.460000000000036,70.40899999999999 C37.460000000000036,71.30499999999995 37.0,72.14300000000003 36.07999999999993,72.92499999999995 C35.13999999999987,73.70600000000002 34.13999999999987,74.096 33.059999999999945,74.096 C32.440000000000055,74.096 31.909999999999854,73.93499999999995 31.48999999999978,73.61199999999997 C31.079999999999927,73.25800000000004 30.88000000000011,72.81500000000005 30.88000000000011,72.28399999999999 C30.88000000000011,71.38800000000003 31.34999999999991,70.54999999999995 32.2800000000002,69.76800000000003 C33.19999999999982,68.98699999999997 34.19999999999982,68.596 35.26999999999998,68.596" />
<path d="M35.26999999999998,16.096000000000004 C35.88999999999987,16.096000000000004 36.42000000000007,16.258000000000038 36.86000000000013,16.581000000000017 C37.26000000000022,16.934999999999945 37.460000000000036,17.378000000000043 37.460000000000036,17.908999999999992 C37.460000000000036,18.80499999999995 37.0,19.64300000000003 36.07999999999993,20.424999999999955 C35.13999999999987,21.206000000000017 34.13999999999987,21.596000000000004 33.059999999999945,21.596000000000004 C32.440000000000055,21.596000000000004 31.909999999999854,21.434999999999945 31.48999999999978,21.111999999999966 C31.079999999999927,20.758000000000038 30.88000000000011,20.315000000000055 30.88000000000011,19.783999999999992 C30.88000000000011,18.888000000000034 31.34999999999991,18.049999999999955 32.2800000000002,17.26800000000003 C33.19999999999982,16.486999999999966 34.19999999999982,16.096000000000004 35.26999999999998,16.096000000000004" />
<path d="M17.940000000000055,66.096 C18.570000000000164,66.096 19.09999999999991,66.25800000000004 19.5300000000002,66.58100000000002 C19.929999999999836,66.93499999999995 20.13000000000011,67.37800000000004 20.13000000000011,67.90899999999999 C20.13000000000011,68.80499999999995 19.670000000000073,69.64300000000003 18.75,70.42499999999995 C17.820000000000164,71.20600000000002 16.809999999999945,71.596 15.739999999999782,71.596 C15.110000000000127,71.596 14.590000000000146,71.43499999999995 14.159999999999854,71.11199999999997 C13.75,70.75800000000004 13.550000000000182,70.31500000000005 13.550000000000182,69.78399999999999 C13.550000000000182,68.88800000000003 14.019999999999982,68.04999999999995 14.960000000000036,67.26800000000003 C15.86999999999989,66.48699999999997 16.86999999999989,66.096 17.940000000000055,66.096" />
<path d="M17.940000000000055,6.096000000000004 C18.570000000000164,6.096000000000004 19.09999999999991,6.258000000000038 19.5300000000002,6.581000000000017 C19.929999999999836,6.934999999999945 20.13000000000011,7.378000000000043 20.13000000000011,7.908999999999992 C20.13000000000011,8.80499999999995 19.670000000000073,9.643000000000029 18.75,10.424999999999955 C17.820000000000164,11.206000000000017 16.809999999999945,11.596000000000004 15.739999999999782,11.596000000000004 C15.110000000000127,11.596000000000004 14.590000000000146,11.434999999999945 14.159999999999854,11.111999999999966 C13.75,10.758000000000038 13.550000000000182,10.315000000000055 13.550000000000182,9.783999999999992 C13.550000000000182,8.888000000000034 14.019999999999982,8.049999999999955 14.960000000000036,7.268000000000029 C15.86999999999989,6.486999999999966 16.86999999999989,6.096000000000004 17.940000000000055,6.096000000000004" />
<path d="M0.6100000000001273,68.596 C1.2399999999997817,68.596 1.7699999999999818,68.75800000000004 2.2100000000000364,69.08100000000002 C2.599999999999909,69.43499999999995 2.800000000000182,69.87800000000004 2.800000000000182,70.40899999999999 C2.800000000000182,71.30499999999995 2.3400000000001455,72.14300000000003 1.4299999999998363,72.92499999999995 C0.4899999999997817,73.70600000000002 -0.5199999999999818,74.096 -1.5900000000001455,74.096 C-2.2100000000000364,74.096 -2.7399999999997817,73.93499999999995 -3.1700000000000728,73.61199999999997 C-3.5700000000001637,73.25800000000004 -3.7800000000002,72.81500000000005 -3.7800000000002,72.28399999999999 C-3.7800000000002,71.38800000000003 -3.3099999999999454,70.54999999999995 -2.369999999999891,69.76800000000003 C-1.449999999999818,68.98699999999997 -0.4600000000000364,68.596 0.6100000000001273,68.596" />
<path d="M0.6100000000001273,6.096000000000004 C1.2399999999997817,6.096000000000004 1.7699999999999818,6.258000000000038 2.2100000000000364,6.581000000000017 C2.599999999999909,6.934999999999945 2.800000000000182,7.378000000000043 2.800000000000182,7.908999999999992 C2.800000000000182,8.80499999999995 2.3400000000001455,9.643000000000029 1.4299999999998363,10.424999999999955 C0.4899999999997817,11.206000000000017 -0.5199999999999818,11.596000000000004 -1.5900000000001455,11.596000000000004 C-2.2100000000000364,11.596000000000004 -2.7399999999997817,11.434999999999945 -3.1700000000000728,11.111999999999966 C-3.5700000000001637,10.758000000000038 -3.7800000000002,10.315000000000055 -3.7800000000002,9.783999999999992 C-3.7800000000002,8.888000000000034 -3.3099999999999454,8.049999999999955 -2.369999999999891,7.268000000000029 C-1.449999999999818,6.486999999999966 -0.4600000000000364,6.096000000000004 0.6100000000001273,6.096000000000004" />
<path d="M147.69999999999982,72.23699999999997 C148.09000000000015,72.23699999999997 148.3699999999999,72.34100000000001 148.53999999999996,72.54999999999995 C148.7199999999998,72.779 148.82999999999993,73.00300000000004 148.8699999999999,73.221 C148.8800000000001,73.44000000000005 148.94999999999982,73.65899999999999 149.07000000000016,73.87800000000004 C149.1500000000001,74.08600000000001 149.28999999999996,74.19000000000005 149.48999999999978,74.19000000000005 C149.6300000000001,74.19000000000005 149.82999999999993,74.03399999999999 150.09000000000015,73.721 C150.3800000000001,73.35699999999997 150.57000000000016,73.096 150.6500000000001,72.94000000000005 C150.71000000000004,72.81500000000005 150.80000000000018,72.75300000000004 150.92000000000007,72.75300000000004 C150.92000000000007,72.75300000000004 150.92999999999984,72.75300000000004 150.94999999999982,72.75300000000004 C151.05999999999995,72.76300000000003 151.1500000000001,72.82600000000002 151.19999999999982,72.94000000000005 L147.6199999999999,86.346 C147.48999999999978,86.48199999999997 147.30999999999995,86.54999999999995 147.07999999999993,86.54999999999995 C146.8499999999999,86.54999999999995 146.65999999999985,86.48199999999997 146.5300000000002,86.346 L148.53999999999996,79.79999999999995 C147.67000000000007,80.11199999999997 146.96000000000004,80.26800000000003 146.42000000000007,80.26800000000003 C145.94999999999982,80.26800000000003 145.53999999999996,80.12199999999996 145.19999999999982,79.83100000000002 C144.84000000000015,79.53899999999999 144.67000000000007,79.15899999999999 144.67000000000007,78.69000000000005 C144.67000000000007,78.28399999999999 144.80000000000018,77.94500000000005 145.07000000000016,77.67499999999995 C145.36000000000013,77.39300000000003 145.71000000000004,77.25300000000004 146.1199999999999,77.25300000000004 C146.5,77.25300000000004 146.78999999999996,77.35699999999997 146.96000000000004,77.56500000000005 C147.1500000000001,77.78399999999999 147.26999999999998,78.00300000000004 147.30999999999995,78.221 C147.3499999999999,78.48199999999997 147.42000000000007,78.70600000000002 147.51000000000022,78.89300000000003 C147.59000000000015,79.10199999999998 147.73000000000002,79.20600000000002 147.92999999999984,79.20600000000002 C148.09000000000015,79.20600000000002 148.30999999999995,79.024 148.5999999999999,78.65899999999999 C148.9000000000001,78.31500000000005 149.07999999999993,78.04399999999998 149.1500000000001,77.846 L150.05999999999995,74.81500000000005 C149.2199999999998,75.11699999999996 148.5300000000002,75.26800000000003 147.98000000000002,75.26800000000003 C147.51000000000022,75.26800000000003 147.0999999999999,75.11699999999996 146.76000000000022,74.81500000000005 C146.40999999999985,74.53399999999999 146.23000000000002,74.15899999999999 146.23000000000002,73.69000000000005 C146.23000000000002,73.28399999999999 146.3699999999999,72.94500000000005 146.67000000000007,72.67499999999995 C146.94999999999982,72.38300000000004 147.28999999999996,72.23699999999997 147.69999999999982,72.23699999999997" />
<path d="M162.51999999999998,88.846 L180.5,88.846 L180.5,91.346 L162.51999999999998,91.346 L162.51999999999998,88.846" />
<path d="M162.51999999999998,85.096 L169.1199999999999,85.096 L169.1199999999999,87.596 L162.51999999999998,87.596 L162.51999999999998,85.096" />
<path d="M145.19999999999982,22.596000000000004 L197.82999999999993,21.331000000000017 L197.82999999999993,23.831000000000017 L145.19999999999982,25.096000000000004 L145.19999999999982,22.596000000000004" />
<path d="M179.8499999999999,18.013000000000034 L197.82999999999993,17.581000000000017 L197.82999999999993,20.081000000000017 L179.8499999999999,20.513000000000034 L179.8499999999999,18.013000000000034" />
<path d="M75.88999999999987,83.846 L128.51999999999998,83.846 L128.51999999999998,86.346 L75.88999999999987,86.346 L75.88999999999987,83.846" />
<path d="M110.53999999999996,80.096 L128.51999999999998,80.096 L128.51999999999998,82.596 L110.53999999999996,82.596 L110.53999999999996,80.096" />
<path d="M75.88999999999987,21.346000000000004 L111.19000000000005,21.346000000000004 L111.19000000000005,23.846000000000004 L75.88999999999987,23.846000000000004 L75.88999999999987,21.346000000000004" />
<path d="M75.88999999999987,17.596000000000004 L93.86999999999989,17.596000000000004 L93.86999999999989,20.096000000000004 L75.88999999999987,20.096000000000004 L75.88999999999987,17.596000000000004" />
<polyline points="0.0,13.846000000000004 215.30999999999995,13.846000000000004" fill="none" stroke="#000000" stroke-width="0.40" />
<polyline points="0.0,18.846000000000004 215.30999999999995,18.846000000000004" fill="none" stroke="#000000" stroke-width="0.40" />
<polyline points="0.0,23.846000000000004 215.30999999999995,23.846000000000004" fill="none" stroke="#000000" stroke-width="0.40" />
<polyline points="0.0,28.846000000000004 215.30999999999995,28.846000000000004" fill="none" stroke="#000000" stroke-width="0.40" />
<polyline points="0.0,33.846000000000004 215.30999999999995,33.846000000000004" fill="none" stroke="#000000" stroke-width="0.40" />
<polyline points="0.0,66.346 215.30999999999995,66.346" fill="none" stroke="#000000" stroke-width="0.40" />
<polyline points="0.0,71.346 215.30999999999995,71.346" fill="none" stroke="#000000" stroke-width="0.40" />
<polyline points="0.0,76.346 215.30999999999995,76.346" fill="none" stroke="#000000" stroke-width="0.40" />
<polyline points="0.0,81.346 215.30999999999995,81.346" fill="none" stroke="#000000" stroke-width="0.40" />
<polyline points="0.0,86.346 215.30999999999995,86.346" fill="none" stroke="#000000" stroke-width="0.40" />
<polyline points="214.90999999999985,66.346 214.90999999999985,86.346" fill="" stroke="#000000" stroke-width="0.80" />
<polyline points="214.90999999999985,13.846000000000004 214.90999999999985,33.846000000000004" fill="" stroke="#000000" stroke-width="0.80" />
<polyline points="197.5,0.0 197.5,22.596000000000004" fill="" stroke="#000000" stroke-width="0.65" />
<polyline points="180.17999999999984,74.78599999999994 180.17999999999984,90.096" fill="" stroke="#000000" stroke-width="0.65" />
<polyline points="180.17999999999984,0.0 180.17999999999984,23.013000000000034" fill="" stroke="#000000" stroke-width="0.65" />
<polyline points="162.8499999999999,74.78599999999994 162.8499999999999,90.096" fill="" stroke="#000000" stroke-width="0.65" />
<polyline points="145.51999999999998,2.2859999999999445 145.51999999999998,23.846000000000004" fill="" stroke="#000000" stroke-width="0.65" />
<polyline points="128.19000000000005,69.78599999999994 128.19000000000005,85.096" fill="" stroke="#000000" stroke-width="0.65" />
<polyline points="110.86999999999989,69.78599999999994 110.86999999999989,85.096" fill="" stroke="#000000" stroke-width="0.65" />
<polyline points="110.86999999999989,4.7859999999999445 110.86999999999989,22.596000000000004" fill="" stroke="#000000" stroke-width="0.65" />
<polyline points="93.53999999999996,4.7859999999999445 93.53999999999996,22.596000000000004" fill="" stroke="#000000" stroke-width="0.65" />
<polyline points="76.21000000000004,69.78599999999994 76.21000000000004,85.096" fill="" stroke="#000000" stroke-width="0.65" />
<polyline points="76.21000000000004,4.7859999999999445 76.21000000000004,22.596000000000004" fill="" stroke="#000000" stroke-width="0.65" />
<polyline points="48.5300000000002,69.78599999999994 48.5300000000002,86.346" fill="" stroke="#000000" stroke-width="0.65" />
<polyline points="48.5300000000002,4.7859999999999445 48.5300000000002,33.846000000000004" fill="" stroke="#000000" stroke-width="0.65" />
<polyline points="31.199999999999818,72.28599999999994 31.199999999999818,86.346" fill="" stroke="#000000" stroke-width="0.65" />
<polyline points="31.199999999999818,19.785999999999945 31.199999999999818,33.846000000000004" fill="" stroke="#000000" stroke-width="0.65" />
<polyline points="13.88000000000011,69.78599999999994 13.88000000000011,86.346" fill="" stroke="#000000" stroke-width="0.65" />
<polyline points="13.88000000000011,9.785999999999945 13.88000000000011,33.846000000000004" fill="" stroke="#000000" stroke-width="0.65" />
<polyline points="195.67999999999984,3.8460000000000036 205.26000000000022,3.8460000000000036" fill="" stroke="#000000" stroke-width="0.80" />
<polyline points="195.67999999999984,8.846000000000004 205.26000000000022,8.846000000000004" fill="" stroke="#000000" stroke-width="0.80" />
<polyline points="178.3499999999999,3.8460000000000036 187.94000000000005,3.8460000000000036" fill="" stroke="#000000" stroke-width="0.80" />
<polyline points="178.3499999999999,8.846000000000004 187.94000000000005,8.846000000000004" fill="" stroke="#000000" stroke-width="0.80" />
<polyline points="143.69999999999982,3.8460000000000036 153.2800000000002,3.8460000000000036" fill="" stroke="#000000" stroke-width="0.80" />
<polyline points="143.69999999999982,8.846000000000004 153.2800000000002,8.846000000000004" fill="" stroke="#000000" stroke-width="0.80" />
<polyline points="109.03999999999996,3.8460000000000036 118.63000000000011,3.8460000000000036" fill="" stroke="#000000" stroke-width="0.80" />
<polyline points="109.03999999999996,8.846000000000004 118.63000000000011,8.846000000000004" fill="" stroke="#000000" stroke-width="0.80" />
<polyline points="91.7199999999998,3.8460000000000036 101.30000000000018,3.8460000000000036" fill="" stroke="#000000" stroke-width="0.80" />
<polyline points="91.7199999999998,8.846000000000004 101.30000000000018,8.846000000000004" fill="" stroke="#000000" stroke-width="0.80" />
<polyline points="74.38999999999987,3.8460000000000036 83.9699999999998,3.8460000000000036" fill="" stroke="#000000" stroke-width="0.80" />
<polyline points="74.38999999999987,8.846000000000004 83.9699999999998,8.846000000000004" fill="" stroke="#000000" stroke-width="0.80" />
<polyline points="46.69999999999982,3.8460000000000036 56.289999999999964,3.8460000000000036" fill="" stroke="#000000" stroke-width="0.80" />
<polyline points="46.69999999999982,8.846000000000004 56.289999999999964,8.846000000000004" fill="" stroke="#000000" stroke-width="0.80" />
<polyline points="12.050000000000182,8.846000000000004 21.63000000000011,8.846000000000004" fill="" stroke="#000000" stroke-width="0.80" />
<polyline points="0.0,8.846000000000004 4.309999999999945,8.846000000000004" fill="" stroke="#000000" stroke-width="0.80" />
</svg>
