<?xml version="1.0" encoding="UTF-8" standalone="yes"?>
<svg width="256.0px" height="256.0px" xmlns="http://www.w3.org/2000/svg" xmlns:xlink="http://www.w3.org/1999/xlink" version="1.2" baseProfile="tiny">
<path d="M214.20000000000073,30.79200000000003 C214.10000000000036,30.69799999999998 213.89999999999964,30.591000000000008 213.79999999999927,30.47199999999998 C213.60000000000036,30.351999999999975 213.39999999999964,30.184999999999945 213.29999999999927,29.97199999999998 C213.10000000000036,29.758000000000038 212.89999999999964,29.53200000000004 212.79999999999927,29.29200000000003 C212.60000000000036,29.05200000000002 212.5,28.760999999999967 212.39999999999964,28.41700000000003 C212.29999999999927,28.07299999999998 212.29999999999927,27.71900000000005 212.29999999999927,27.354000000000042 C212.29999999999927,26.96900000000005 212.29999999999927,26.604000000000042 212.39999999999964,26.260999999999967 C212.5,25.91700000000003 212.60000000000036,25.633000000000038 212.70000000000073,25.408999999999992 C212.89999999999964,25.184999999999945 213.0,24.966000000000008 213.20000000000073,24.753000000000043 C213.5,24.538999999999987 213.60000000000036,24.383000000000038 213.79999999999927,24.283999999999992 C213.89999999999964,24.184999999999945 214.0,24.077999999999975 214.20000000000073,23.964000000000055 L214.29999999999927,24.089000000000055 C214.10000000000036,24.287000000000035 213.89999999999964,24.461000000000013 213.70000000000073,24.611999999999966 C213.60000000000036,24.763000000000034 213.39999999999964,24.964000000000055 213.29999999999927,25.214000000000055 C213.20000000000073,25.464000000000055 213.10000000000036,25.760999999999967 213.0,26.104000000000042 C213.0,26.44799999999998 212.89999999999964,26.860000000000014 212.89999999999964,27.339000000000055 C212.89999999999964,27.827999999999975 213.0,28.253000000000043 213.0,28.611999999999966 C213.10000000000036,28.97199999999998 213.20000000000073,29.275999999999954 213.29999999999927,29.525999999999954 C213.39999999999964,29.775999999999954 213.60000000000036,29.98199999999997 213.70000000000073,30.144000000000005 C213.89999999999964,30.30499999999995 214.10000000000036,30.474000000000046 214.29999999999927,30.650999999999954 L214.20000000000073,30.79200000000003 M214.70000000000073,27.66700000000003 C214.70000000000073,27.07299999999998 214.89999999999964,26.59699999999998 215.20000000000073,26.236999999999966 C215.60000000000036,25.878000000000043 216.0,25.69799999999998 216.5,25.69799999999998 C216.79999999999927,25.69799999999998 217.10000000000036,25.778999999999996 217.29999999999927,25.940000000000055 C217.60000000000036,26.101999999999975 217.70000000000073,26.297000000000025 217.70000000000073,26.525999999999954 C217.70000000000073,26.610000000000014 217.60000000000036,26.684999999999945 217.60000000000036,26.753000000000043 C217.5,26.821000000000026 217.39999999999964,26.854000000000042 217.29999999999927,26.854000000000042 C217.10000000000036,26.854000000000042 217.0,26.735000000000014 216.89999999999964,26.495000000000005 L216.89999999999964,26.32299999999998 C216.89999999999964,26.16700000000003 216.79999999999927,26.062999999999988 216.70000000000073,26.010999999999967 C216.70000000000073,25.958999999999946 216.60000000000036,25.932999999999993 216.39999999999964,25.932999999999993 C216.10000000000036,25.932999999999993 215.79999999999927,26.059999999999945 215.60000000000036,26.315000000000055 C215.39999999999964,26.571000000000026 215.29999999999927,26.90700000000004 215.29999999999927,27.32299999999998 C215.29999999999927,27.770999999999958 215.5,28.140999999999963 215.70000000000073,28.432999999999993 C215.89999999999964,28.724000000000046 216.20000000000073,28.870000000000005 216.60000000000036,28.870000000000005 C216.79999999999927,28.870000000000005 217.0,28.812999999999988 217.20000000000073,28.69799999999998 C217.29999999999927,28.583999999999946 217.5,28.390999999999963 217.70000000000073,28.120000000000005 L217.79999999999927,28.182999999999993 C217.70000000000073,28.297000000000025 217.70000000000073,28.388000000000034 217.70000000000073,28.456000000000017 C217.60000000000036,28.524 217.5,28.628000000000043 217.39999999999964,28.769000000000005 C217.29999999999927,28.908999999999992 217.20000000000073,29.020999999999958 217.10000000000036,29.104000000000042 C217.0,29.187999999999988 216.89999999999964,29.265999999999963 216.70000000000073,29.339000000000055 C216.60000000000036,29.412000000000035 216.39999999999964,29.44799999999998 216.20000000000073,29.44799999999998 C215.79999999999927,29.44799999999998 215.39999999999964,29.28200000000004 215.20000000000073,28.94799999999998 C214.89999999999964,28.61500000000001 214.70000000000073,28.187999999999988 214.70000000000073,27.66700000000003 M218.39999999999964,23.964000000000055 C218.5,24.047000000000025 218.70000000000073,24.149 218.79999999999927,24.269000000000005 C219.0,24.388000000000034 219.10000000000036,24.55499999999995 219.29999999999927,24.769000000000005 C219.5,24.98199999999997 219.70000000000073,25.211000000000013 219.79999999999927,25.456000000000017 C220.0,25.701000000000022 220.10000000000036,25.991999999999962 220.20000000000073,26.331000000000017 C220.29999999999927,26.66999999999996 220.29999999999927,27.025999999999954 220.29999999999927,27.400999999999954 C220.29999999999927,27.775999999999954 220.29999999999927,28.135999999999967 220.20000000000073,28.479000000000042 C220.10000000000036,28.82299999999998 220.0,29.110000000000014 219.89999999999964,29.339000000000055 C219.70000000000073,29.567999999999984 219.60000000000036,29.787000000000035 219.29999999999927,29.995000000000005 C219.10000000000036,30.202999999999975 219.0,30.360000000000014 218.79999999999927,30.464000000000055 C218.70000000000073,30.567999999999984 218.60000000000036,30.67700000000002 218.39999999999964,30.79200000000003 L218.29999999999927,30.650999999999954 C218.5,30.464000000000055 218.70000000000073,30.29200000000003 218.89999999999964,30.135999999999967 C219.0,29.979000000000042 219.20000000000073,29.778999999999996 219.29999999999927,29.533999999999992 C219.39999999999964,29.288999999999987 219.5,28.995000000000005 219.60000000000036,28.650999999999954 C219.60000000000036,28.307999999999993 219.70000000000073,27.895999999999958 219.70000000000073,27.41700000000003 C219.70000000000073,26.92700000000002 219.60000000000036,26.503000000000043 219.60000000000036,26.144000000000005 C219.5,25.783999999999992 219.39999999999964,25.476999999999975 219.29999999999927,25.22199999999998 C219.20000000000073,24.966000000000008 219.0,24.760999999999967 218.89999999999964,24.604000000000042 C218.70000000000073,24.44799999999998 218.5,24.275999999999954 218.29999999999927,24.089000000000055 L218.39999999999964,23.964000000000055 M224.20000000000073,24.635999999999967 C224.10000000000036,24.635999999999967 223.89999999999964,24.692999999999984 223.60000000000036,24.807999999999993 L223.60000000000036,24.69799999999998 L225.0,23.964000000000055 L225.10000000000036,23.979000000000042 L225.10000000000036,28.775999999999954 C225.10000000000036,28.974000000000046 225.10000000000036,29.101999999999975 225.20000000000073,29.158999999999992 C225.29999999999927,29.216000000000008 225.5,29.245000000000005 225.79999999999927,29.245000000000005 L225.79999999999927,29.370000000000005 L223.60000000000036,29.370000000000005 L223.60000000000036,29.245000000000005 C223.89999999999964,29.235000000000014 224.20000000000073,29.190000000000055 224.29999999999927,29.111999999999966 C224.39999999999964,29.033999999999992 224.39999999999964,28.870000000000005 224.39999999999964,28.620000000000005 L224.39999999999964,25.010999999999967 C224.39999999999964,24.760999999999967 224.29999999999927,24.635999999999967 224.20000000000073,24.635999999999967 M227.20000000000073,29.54200000000003 L227.10000000000036,29.385999999999967 C227.70000000000073,29.28200000000004 228.29999999999927,29.024 228.70000000000073,28.611999999999966 C229.10000000000036,28.201000000000022 229.39999999999964,27.66700000000003 229.60000000000036,27.010999999999967 C229.20000000000073,27.32299999999998 228.79999999999927,27.479000000000042 228.39999999999964,27.479000000000042 C227.89999999999964,27.479000000000042 227.60000000000036,27.327999999999975 227.29999999999927,27.025999999999954 C227.10000000000036,26.724000000000046 226.89999999999964,26.333999999999946 226.89999999999964,25.854000000000042 C226.89999999999964,25.312999999999988 227.10000000000036,24.860000000000014 227.39999999999964,24.495000000000005 C227.70000000000073,24.129999999999995 228.10000000000036,23.94799999999998 228.60000000000036,23.94799999999998 C229.10000000000036,23.94799999999998 229.60000000000036,24.158999999999992 229.89999999999964,24.581000000000017 C230.20000000000073,25.003000000000043 230.39999999999964,25.547000000000025 230.39999999999964,26.214000000000055 C230.39999999999964,26.432999999999993 230.39999999999964,26.653999999999996 230.29999999999927,26.878000000000043 C230.29999999999927,27.101999999999975 230.20000000000073,27.366999999999962 230.10000000000036,27.674999999999955 C229.89999999999964,27.98199999999997 229.79999999999927,28.254999999999995 229.5,28.495000000000005 C229.29999999999927,28.735000000000014 229.0,28.952999999999975 228.60000000000036,29.150999999999954 C228.20000000000073,29.349000000000046 227.70000000000073,29.479000000000042 227.20000000000073,29.54200000000003 M228.70000000000073,27.120000000000005 C228.79999999999927,27.120000000000005 228.89999999999964,27.10699999999997 229.0,27.081000000000017 C229.10000000000036,27.05499999999995 229.29999999999927,26.991999999999962 229.39999999999964,26.894000000000005 C229.5,26.79499999999996 229.60000000000036,26.672000000000025 229.60000000000036,26.525999999999954 L229.60000000000036,26.214000000000055 C229.60000000000036,24.860000000000014 229.20000000000073,24.182999999999993 228.5,24.182999999999993 C228.39999999999964,24.182999999999993 228.20000000000073,24.226999999999975 228.10000000000036,24.315000000000055 C228.0,24.403999999999996 227.89999999999964,24.520999999999958 227.79999999999927,24.66700000000003 C227.79999999999927,24.812999999999988 227.70000000000073,24.958999999999946 227.70000000000073,25.104000000000042 C227.70000000000073,25.25 227.70000000000073,25.40700000000004 227.70000000000073,25.57299999999998 C227.70000000000073,26.05200000000002 227.79999999999927,26.42999999999995 227.89999999999964,26.706000000000017 C228.10000000000036,26.98199999999997 228.39999999999964,27.120000000000005 228.70000000000073,27.120000000000005 M232.70000000000073,29.479000000000042 C232.20000000000073,29.479000000000042 231.79999999999927,29.265999999999963 231.39999999999964,28.839000000000055 C231.10000000000036,28.412000000000035 230.89999999999964,27.84400000000005 230.89999999999964,27.135999999999967 C230.89999999999964,26.91700000000003 231.0,26.692999999999984 231.0,26.464000000000055 C231.10000000000036,26.235000000000014 231.20000000000073,25.97199999999998 231.29999999999927,25.674999999999955 C231.39999999999964,25.378000000000043 231.60000000000036,25.111999999999966 231.89999999999964,24.878000000000043 C232.10000000000036,24.644000000000005 232.39999999999964,24.434999999999945 232.79999999999927,24.253000000000043 C233.20000000000073,24.071000000000026 233.70000000000073,23.952999999999975 234.29999999999927,23.900999999999954 L234.29999999999927,24.025999999999954 C233.60000000000036,24.129999999999995 233.10000000000036,24.385999999999967 232.70000000000073,24.79200000000003 C232.29999999999927,25.19799999999998 232.0,25.702999999999975 231.89999999999964,26.307999999999993 C232.10000000000036,26.162000000000035 232.29999999999927,26.067999999999984 232.5,26.025999999999954 C232.60000000000036,25.985000000000014 232.70000000000073,25.964000000000055 232.89999999999964,25.964000000000055 C233.39999999999964,25.964000000000055 233.79999999999927,26.111999999999966 234.0,26.408999999999992 C234.29999999999927,26.706000000000017 234.39999999999964,27.104000000000042 234.39999999999964,27.604000000000042 C234.39999999999964,28.15700000000004 234.29999999999927,28.60699999999997 234.0,28.956000000000017 C233.60000000000036,29.30499999999995 233.20000000000073,29.479000000000042 232.70000000000073,29.479000000000042 M232.60000000000036,26.32299999999998 C232.20000000000073,26.32299999999998 232.0,26.400999999999954 231.89999999999964,26.557999999999993 C231.70000000000073,26.714000000000055 231.70000000000073,26.94799999999998 231.70000000000073,27.260999999999967 C231.70000000000073,27.875 231.79999999999927,28.360000000000014 232.0,28.714000000000055 C232.20000000000073,29.067999999999984 232.5,29.245000000000005 232.79999999999927,29.245000000000005 C233.10000000000036,29.245000000000005 233.29999999999927,29.128000000000043 233.5,28.894000000000005 C233.60000000000036,28.658999999999992 233.70000000000073,28.32299999999998 233.70000000000073,27.885999999999967 C233.70000000000073,27.385999999999967 233.60000000000036,27.0 233.39999999999964,26.729000000000042 C233.20000000000073,26.458999999999946 233.0,26.32299999999998 232.60000000000036,26.32299999999998 M237.0,26.400999999999954 C237.5,26.754999999999995 237.79999999999927,27.05200000000002 238.0,27.29200000000003 C238.20000000000073,27.53200000000004 238.20000000000073,27.807999999999993 238.20000000000073,28.120000000000005 C238.20000000000073,28.537000000000035 238.10000000000036,28.866999999999962 237.79999999999927,29.111999999999966 C237.5,29.35699999999997 237.10000000000036,29.479000000000042 236.70000000000073,29.479000000000042 C236.20000000000073,29.479000000000042 235.79999999999927,29.35699999999997 235.5,29.111999999999966 C235.29999999999927,28.866999999999962 235.10000000000036,28.547000000000025 235.10000000000036,28.150999999999954 C235.10000000000036,27.879999999999995 235.20000000000073,27.653999999999996 235.29999999999927,27.47199999999998 C235.39999999999964,27.288999999999987 235.70000000000073,27.037000000000035 236.20000000000073,26.714000000000055 C235.70000000000073,26.339000000000055 235.5,26.062999999999988 235.29999999999927,25.885999999999967 C235.20000000000073,25.708999999999946 235.20000000000073,25.49000000000001 235.20000000000073,25.229000000000042 C235.20000000000073,24.86500000000001 235.29999999999927,24.559999999999945 235.60000000000036,24.315000000000055 C235.89999999999964,24.071000000000026 236.20000000000073,23.94799999999998 236.70000000000073,23.94799999999998 C237.10000000000036,23.94799999999998 237.39999999999964,24.05499999999995 237.70000000000073,24.269000000000005 C237.89999999999964,24.48199999999997 238.10000000000036,24.760999999999967 238.10000000000036,25.104000000000042 C238.10000000000036,25.375 238.0,25.604000000000042 237.79999999999927,25.79200000000003 C237.70000000000073,25.979000000000042 237.39999999999964,26.182999999999993 237.0,26.400999999999954 M236.39999999999964,26.870000000000005 C236.10000000000036,27.057999999999993 236.0,27.241999999999962 235.89999999999964,27.424999999999955 C235.79999999999927,27.60699999999997 235.70000000000073,27.827999999999975 235.70000000000073,28.089000000000055 C235.70000000000073,28.432999999999993 235.79999999999927,28.711000000000013 236.0,28.924999999999955 C236.20000000000073,29.138000000000034 236.39999999999964,29.245000000000005 236.70000000000073,29.245000000000005 C237.0,29.245000000000005 237.20000000000073,29.163999999999987 237.39999999999964,29.003000000000043 C237.5,28.841000000000008 237.60000000000036,28.629999999999995 237.60000000000036,28.370000000000005 C237.60000000000036,28.287000000000035 237.60000000000036,28.206000000000017 237.60000000000036,28.128000000000043 C237.60000000000036,28.049999999999955 237.60000000000036,27.985000000000014 237.5,27.932999999999993 C237.5,27.879999999999995 237.5,27.817999999999984 237.39999999999964,27.745000000000005 C237.39999999999964,27.672000000000025 237.29999999999927,27.616999999999962 237.29999999999927,27.581000000000017 C237.29999999999927,27.54499999999996 237.20000000000073,27.486999999999966 237.10000000000036,27.408999999999992 C237.0,27.331000000000017 237.0,27.275999999999954 236.89999999999964,27.245000000000005 C236.89999999999964,27.214000000000055 236.79999999999927,27.153999999999996 236.60000000000036,27.065000000000055 C236.5,26.976999999999975 236.39999999999964,26.912000000000035 236.39999999999964,26.870000000000005 M236.79999999999927,26.260999999999967 C236.79999999999927,26.25 236.79999999999927,26.22199999999998 236.89999999999964,26.174999999999955 C236.89999999999964,26.128000000000043 237.0,26.091000000000008 237.0,26.065000000000055 C237.0,26.038999999999987 237.10000000000036,26.0 237.10000000000036,25.94799999999998 C237.20000000000073,25.895999999999958 237.29999999999927,25.84400000000005 237.29999999999927,25.79200000000003 C237.29999999999927,25.74000000000001 237.39999999999964,25.67700000000002 237.39999999999964,25.604000000000042 C237.39999999999964,25.53200000000004 237.5,25.451000000000022 237.5,25.361999999999966 C237.5,25.274 237.5,25.182999999999993 237.5,25.089000000000055 C237.5,24.817999999999984 237.39999999999964,24.599000000000046 237.29999999999927,24.432999999999993 C237.10000000000036,24.265999999999963 236.89999999999964,24.182999999999993 236.60000000000036,24.182999999999993 C236.39999999999964,24.182999999999993 236.20000000000073,24.258000000000038 236.0,24.408999999999992 C235.89999999999964,24.559999999999945 235.79999999999927,24.75 235.79999999999927,24.979000000000042 C235.79999999999927,25.19799999999998 235.79999999999927,25.40700000000004 236.0,25.604000000000042 C236.10000000000036,25.80200000000002 236.39999999999964,26.020999999999958 236.79999999999927,26.260999999999967 M246.10000000000036,26.69799999999998 C246.10000000000036,26.937999999999988 246.10000000000036,27.172000000000025 246.0,27.400999999999954 C246.0,27.629999999999995 245.89999999999964,27.866999999999962 245.70000000000073,28.111999999999966 C245.60000000000036,28.35699999999997 245.39999999999964,28.567999999999984 245.20000000000073,28.745000000000005 C245.0,28.922000000000025 244.70000000000073,29.071000000000026 244.29999999999927,29.190000000000055 C243.89999999999964,29.309999999999945 243.5,29.370000000000005 243.0,29.370000000000005 L240.79999999999927,29.370000000000005 L240.79999999999927,29.214000000000055 C241.10000000000036,29.192999999999984 241.20000000000073,29.140999999999963 241.29999999999927,29.057999999999993 C241.39999999999964,28.974000000000046 241.5,28.787000000000035 241.5,28.495000000000005 L241.5,24.94799999999998 C241.5,24.65700000000004 241.39999999999964,24.47199999999998 241.29999999999927,24.394000000000005 C241.29999999999927,24.315000000000055 241.10000000000036,24.260999999999967 240.79999999999927,24.229000000000042 L240.79999999999927,24.07299999999998 L242.89999999999964,24.07299999999998 C243.39999999999964,24.07299999999998 243.79999999999927,24.128000000000043 244.20000000000073,24.236999999999966 C244.60000000000036,24.34699999999998 244.89999999999964,24.486999999999966 245.10000000000036,24.658999999999992 C245.39999999999964,24.831000000000017 245.60000000000036,25.037000000000035 245.70000000000073,25.275999999999954 C245.89999999999964,25.515999999999963 246.0,25.75 246.0,25.979000000000042 C246.10000000000036,26.208999999999946 246.10000000000036,26.44799999999998 246.10000000000036,26.69799999999998 M245.20000000000073,26.760999999999967 C245.20000000000073,26.53200000000004 245.20000000000073,26.309999999999945 245.20000000000073,26.09699999999998 C245.10000000000036,25.883000000000038 245.0,25.66999999999996 244.89999999999964,25.456000000000017 C244.79999999999927,25.241999999999962 244.60000000000036,25.059999999999945 244.5,24.908999999999992 C244.29999999999927,24.758000000000038 244.0,24.633000000000038 243.70000000000073,24.533999999999992 C243.39999999999964,24.434999999999945 243.10000000000036,24.385999999999967 242.70000000000073,24.385999999999967 C242.5,24.385999999999967 242.39999999999964,24.40700000000004 242.39999999999964,24.44799999999998 C242.29999999999927,24.49000000000001 242.29999999999927,24.57299999999998 242.29999999999927,24.69799999999998 L242.29999999999927,28.745000000000005 C242.29999999999927,28.870000000000005 242.29999999999927,28.956000000000017 242.39999999999964,29.003000000000043 C242.39999999999964,29.049999999999955 242.5,29.07299999999998 242.70000000000073,29.07299999999998 C244.39999999999964,29.07299999999998 245.20000000000073,28.30200000000002 245.20000000000073,26.760999999999967 M249.10000000000036,26.885999999999967 C248.89999999999964,26.458999999999946 248.79999999999927,26.190000000000055 248.70000000000073,26.081000000000017 C248.70000000000073,25.97199999999998 248.5,25.90700000000004 248.29999999999927,25.885999999999967 L248.29999999999927,25.775999999999954 L250.0,25.775999999999954 L250.0,25.885999999999967 C249.79999999999927,25.91700000000003 249.70000000000073,25.951000000000022 249.60000000000036,25.986999999999966 C249.5,26.024 249.5,26.089000000000055 249.5,26.182999999999993 C249.5,26.245000000000005 249.60000000000036,26.400999999999954 249.60000000000036,26.650999999999954 L250.29999999999927,28.44799999999998 L251.0,26.66700000000003 C251.10000000000036,26.44799999999998 251.20000000000073,26.270999999999958 251.20000000000073,26.135999999999967 C251.20000000000073,26.07299999999998 251.20000000000073,26.024 251.10000000000036,25.986999999999966 C251.0,25.951000000000022 251.0,25.91700000000003 250.79999999999927,25.885999999999967 L250.79999999999927,25.775999999999954 L251.79999999999927,25.775999999999954 L251.79999999999927,25.885999999999967 C251.70000000000073,25.91700000000003 251.70000000000073,25.956000000000017 251.60000000000036,26.003000000000043 C251.60000000000036,26.049999999999955 251.5,26.15700000000004 251.5,26.32299999999998 L250.39999999999964,29.089000000000055 C250.29999999999927,29.349000000000046 250.20000000000073,29.479000000000042 250.10000000000036,29.479000000000042 C250.10000000000036,29.479000000000042 250.0,29.36500000000001 250.0,29.135999999999967 L249.20000000000073,27.245000000000005 L248.29999999999927,29.16700000000003 C248.20000000000073,29.375 248.20000000000073,29.479000000000042 248.10000000000036,29.479000000000042 C248.10000000000036,29.479000000000042 248.0,29.36500000000001 247.89999999999964,29.135999999999967 L246.79999999999927,26.400999999999954 C246.79999999999927,26.192999999999984 246.70000000000073,26.057999999999993 246.60000000000036,25.995000000000005 C246.60000000000036,25.932999999999993 246.5,25.895999999999958 246.39999999999964,25.885999999999967 L246.39999999999964,25.775999999999954 L247.89999999999964,25.775999999999954 L247.89999999999964,25.885999999999967 C247.70000000000073,25.90700000000004 247.60000000000036,25.934999999999945 247.60000000000036,25.97199999999998 C247.5,26.008000000000038 247.5,26.067999999999984 247.5,26.150999999999954 C247.5,26.235000000000014 247.5,26.317999999999984 247.5,26.400999999999954 L248.29999999999927,28.479000000000042 L249.10000000000036,26.885999999999967 M252.10000000000036,28.57299999999998 C252.10000000000036,28.479000000000042 252.10000000000036,28.394000000000005 252.10000000000036,28.315000000000055 C252.10000000000036,28.236999999999966 252.20000000000073,28.162000000000035 252.20000000000073,28.089000000000055 C252.29999999999927,28.015999999999963 252.29999999999927,27.951000000000022 252.39999999999964,27.894000000000005 C252.39999999999964,27.836000000000013 252.5,27.775999999999954 252.60000000000036,27.714000000000055 C252.70000000000073,27.650999999999954 252.79999999999927,27.599000000000046 252.79999999999927,27.557999999999993 C252.89999999999964,27.515999999999963 253.0,27.46900000000005 253.10000000000036,27.41700000000003 C253.20000000000073,27.36500000000001 253.29999999999927,27.32299999999998 253.39999999999964,27.29200000000003 C253.5,27.260999999999967 253.60000000000036,27.216000000000008 253.70000000000073,27.158999999999992 C253.89999999999964,27.101999999999975 254.0,27.057999999999993 254.0,27.025999999999954 L254.0,26.54200000000003 C254.0,26.104000000000042 253.79999999999927,25.885999999999967 253.39999999999964,25.885999999999967 C253.29999999999927,25.885999999999967 253.10000000000036,25.924999999999955 253.0,26.003000000000043 C252.89999999999964,26.081000000000017 252.89999999999964,26.172000000000025 252.89999999999964,26.275999999999954 C252.89999999999964,26.317999999999984 252.89999999999964,26.375 252.89999999999964,26.44799999999998 C252.89999999999964,26.520999999999958 252.89999999999964,26.567999999999984 252.89999999999964,26.589000000000055 C252.89999999999964,26.682999999999993 252.89999999999964,26.763000000000034 252.79999999999927,26.831000000000017 C252.70000000000073,26.899 252.60000000000036,26.932999999999993 252.5,26.932999999999993 C252.39999999999964,26.932999999999993 252.39999999999964,26.899 252.29999999999927,26.831000000000017 C252.20000000000073,26.763000000000034 252.20000000000073,26.682999999999993 252.20000000000073,26.589000000000055 C252.20000000000073,26.339000000000055 252.29999999999927,26.128000000000043 252.60000000000036,25.956000000000017 C252.79999999999927,25.783999999999992 253.20000000000073,25.69799999999998 253.5,25.69799999999998 C254.0,25.69799999999998 254.29999999999927,25.80200000000002 254.39999999999964,26.010999999999967 C254.60000000000036,26.21900000000005 254.70000000000073,26.537000000000035 254.70000000000073,26.964000000000055 L254.70000000000073,28.510999999999967 C254.70000000000073,28.687999999999988 254.70000000000073,28.809999999999945 254.70000000000073,28.878000000000043 C254.79999999999927,28.946000000000026 254.79999999999927,28.979000000000042 254.89999999999964,28.979000000000042 C255.0,28.979000000000042 255.10000000000036,28.92700000000002 255.29999999999927,28.82299999999998 L255.29999999999927,29.04200000000003 C255.10000000000036,29.19799999999998 255.0,29.30499999999995 254.89999999999964,29.361999999999966 C254.79999999999927,29.41999999999996 254.70000000000073,29.44799999999998 254.5,29.44799999999998 C254.39999999999964,29.44799999999998 254.29999999999927,29.400999999999954 254.20000000000073,29.307999999999993 C254.10000000000036,29.214000000000055 254.10000000000036,29.062999999999988 254.10000000000036,28.854000000000042 C253.60000000000036,29.25 253.20000000000073,29.44799999999998 252.89999999999964,29.44799999999998 C252.70000000000073,29.44799999999998 252.5,29.366999999999962 252.29999999999927,29.206000000000017 C252.10000000000036,29.04499999999996 252.10000000000036,28.833999999999946 252.10000000000036,28.57299999999998 M254.0,28.370000000000005 L254.0,27.214000000000055 C253.60000000000036,27.390999999999963 253.20000000000073,27.562999999999988 253.0,27.729000000000042 C252.79999999999927,27.895999999999958 252.79999999999927,28.09400000000005 252.79999999999927,28.32299999999998 C252.79999999999927,28.54200000000003 252.79999999999927,28.702999999999975 252.89999999999964,28.807999999999993 C253.0,28.912000000000035 253.10000000000036,28.964000000000055 253.29999999999927,28.964000000000055 C253.39999999999964,28.964000000000055 253.60000000000036,28.90700000000004 253.79999999999927,28.79200000000003 C253.89999999999964,28.74000000000001 254.0,28.687999999999988 254.0,28.635999999999967 C254.0,28.583999999999946 254.0,28.495000000000005 254.0,28.370000000000005 M257.7000000000007,26.44799999999998 C257.60000000000036,26.44799999999998 257.5,26.400999999999954 257.39999999999964,26.307999999999993 C257.2999999999993,26.214000000000055 257.2000000000007,26.16700000000003 257.2000000000007,26.16700000000003 C257.10000000000036,26.16700000000003 257.0,26.245000000000005 256.7999999999993,26.400999999999954 C256.7000000000007,26.557999999999993 256.60000000000036,26.702999999999975 256.60000000000036,26.839000000000055 L256.60000000000036,28.650999999999954 C256.60000000000036,28.879999999999995 256.7000000000007,29.033999999999992 256.7999999999993,29.111999999999966 C256.89999999999964,29.190000000000055 257.0,29.235000000000014 257.2999999999993,29.245000000000005 L257.2999999999993,29.370000000000005 L255.39999999999964,29.370000000000005 L255.39999999999964,29.245000000000005 C255.60000000000036,29.202999999999975 255.79999999999927,29.150999999999954 255.89999999999964,29.089000000000055 C255.89999999999964,29.025999999999954 255.89999999999964,28.895999999999958 255.89999999999964,28.69799999999998 L255.89999999999964,26.682999999999993 C255.89999999999964,26.504999999999995 255.89999999999964,26.379999999999995 255.89999999999964,26.307999999999993 C255.89999999999964,26.235000000000014 255.79999999999927,26.19799999999998 255.70000000000073,26.19799999999998 C255.60000000000036,26.19799999999998 255.5,26.208999999999946 255.39999999999964,26.229000000000042 L255.39999999999964,26.104000000000042 C255.79999999999927,25.96900000000005 256.2000000000007,25.833999999999946 256.60000000000036,25.69799999999998 L256.60000000000036,25.714000000000055 L256.60000000000036,26.41700000000003 C256.7999999999993,26.145999999999958 257.0,25.958999999999946 257.10000000000036,25.854000000000042 C257.2999999999993,25.75 257.39999999999964,25.69799999999998 257.60000000000036,25.69799999999998 C257.7000000000007,25.69799999999998 257.7999999999993,25.73199999999997 257.89999999999964,25.799999999999955 C258.0,25.866999999999962 258.0,25.96900000000005 258.0,26.104000000000042 C258.0,26.208999999999946 258.0,26.29200000000003 257.89999999999964,26.354000000000042 C257.89999999999964,26.41700000000003 257.7999999999993,26.44799999999998 257.7000000000007,26.44799999999998 M260.7000000000007,24.729000000000042 C260.60000000000036,24.729000000000042 260.60000000000036,24.69799999999998 260.5,24.635999999999967 C260.39999999999964,24.57299999999998 260.39999999999964,24.504999999999995 260.2999999999993,24.432999999999993 C260.2999999999993,24.360000000000014 260.2000000000007,24.29200000000003 260.2000000000007,24.229000000000042 C260.10000000000036,24.16700000000003 260.0,24.135999999999967 259.89999999999964,24.135999999999967 C259.60000000000036,24.135999999999967 259.5,24.370000000000005 259.5,24.839000000000055 L259.5,25.775999999999954 L260.5,25.775999999999954 L260.5,26.010999999999967 L259.5,26.010999999999967 L259.5,28.54200000000003 C259.5,28.833999999999946 259.5,29.020999999999958 259.60000000000036,29.104000000000042 C259.7000000000007,29.187999999999988 259.89999999999964,29.235000000000014 260.2000000000007,29.245000000000005 L260.2000000000007,29.370000000000005 L258.10000000000036,29.370000000000005 L258.10000000000036,29.245000000000005 C258.39999999999964,29.235000000000014 258.60000000000036,29.187999999999988 258.7000000000007,29.104000000000042 C258.7999999999993,29.020999999999958 258.7999999999993,28.833999999999946 258.7999999999993,28.54200000000003 L258.7999999999993,26.010999999999967 L258.10000000000036,26.010999999999967 L258.10000000000036,25.775999999999954 L258.7999999999993,25.775999999999954 C258.7999999999993,25.172000000000025 258.89999999999964,24.706000000000017 259.10000000000036,24.378000000000043 C259.39999999999964,24.049999999999955 259.7000000000007,23.885999999999967 260.2000000000007,23.885999999999967 C260.39999999999964,23.885999999999967 260.60000000000036,23.934999999999945 260.7999999999993,24.033999999999992 C261.0,24.133000000000038 261.0,24.254999999999995 261.0,24.400999999999954 C261.0,24.495000000000005 261.0,24.57299999999998 260.89999999999964,24.635999999999967 C260.89999999999964,24.69799999999998 260.7999999999993,24.729000000000042 260.7000000000007,24.729000000000042 M268.39999999999964,24.79200000000003 L266.39999999999964,29.370000000000005 L266.2999999999993,29.370000000000005 L264.2999999999993,24.979000000000042 L264.2999999999993,28.19799999999998 C264.2999999999993,28.604000000000042 264.2999999999993,28.873000000000047 264.39999999999964,29.003000000000043 C264.5,29.133000000000038 264.7000000000007,29.202999999999975 265.0,29.214000000000055 L265.0,29.370000000000005 L263.10000000000036,29.370000000000005 L263.10000000000036,29.214000000000055 C263.5,29.192999999999984 263.7000000000007,29.120000000000005 263.7999999999993,28.995000000000005 C263.7999999999993,28.870000000000005 263.89999999999964,28.604000000000042 263.89999999999964,28.19799999999998 L263.89999999999964,24.94799999999998 C263.89999999999964,24.65700000000004 263.89999999999964,24.46900000000005 263.7999999999993,24.385999999999967 C263.7000000000007,24.30200000000002 263.5,24.25 263.10000000000036,24.229000000000042 L263.10000000000036,24.07299999999998 L264.7000000000007,24.07299999999998 L266.60000000000036,28.120000000000005 L268.2999999999993,24.07299999999998 L269.89999999999964,24.07299999999998 L269.89999999999964,24.229000000000042 C269.60000000000036,24.260999999999967 269.39999999999964,24.317999999999984 269.39999999999964,24.400999999999954 C269.2999999999993,24.485000000000014 269.2000000000007,24.66700000000003 269.2000000000007,24.94799999999998 L269.2000000000007,28.495000000000005 C269.2000000000007,28.775999999999954 269.2999999999993,28.961000000000013 269.39999999999964,29.049999999999955 C269.39999999999964,29.138000000000034 269.60000000000036,29.192999999999984 269.89999999999964,29.214000000000055 L269.89999999999964,29.370000000000005 L267.7000000000007,29.370000000000005 L267.7000000000007,29.214000000000055 C268.0,29.192999999999984 268.2000000000007,29.135999999999967 268.2999999999993,29.04200000000003 C268.39999999999964,28.94799999999998 268.39999999999964,28.74000000000001 268.39999999999964,28.41700000000003 L268.39999999999964,24.79200000000003 M273.89999999999964,28.94799999999998 L273.89999999999964,29.07299999999998 C273.5,29.187999999999988 273.10000000000036,29.312999999999988 272.7999999999993,29.44799999999998 L272.7999999999993,29.432999999999993 L272.7999999999993,28.745000000000005 C272.7000000000007,28.765999999999963 272.7000000000007,28.815000000000055 272.60000000000036,28.894000000000005 C272.5,28.97199999999998 272.5,29.025999999999954 272.5,29.057999999999993 C272.39999999999964,29.089000000000055 272.39999999999964,29.135999999999967 272.2999999999993,29.19799999999998 C272.2000000000007,29.260999999999967 272.10000000000036,29.30499999999995 272.10000000000036,29.331000000000017 C272.0,29.35699999999997 272.0,29.383000000000038 271.89999999999964,29.408999999999992 C271.7999999999993,29.434999999999945 271.7000000000007,29.44799999999998 271.60000000000036,29.44799999999998 C271.2999999999993,29.44799999999998 271.10000000000036,29.351999999999975 270.89999999999964,29.158999999999992 C270.7000000000007,28.966000000000008 270.60000000000036,28.714000000000055 270.60000000000036,28.400999999999954 L270.60000000000036,26.385999999999967 C270.60000000000036,26.208999999999946 270.60000000000036,26.083999999999946 270.5,26.010999999999967 C270.5,25.937999999999988 270.2999999999993,25.895999999999958 270.10000000000036,25.885999999999967 L270.10000000000036,25.775999999999954 L271.2999999999993,25.775999999999954 L271.2999999999993,28.370000000000005 C271.2999999999993,28.525999999999954 271.39999999999964,28.663999999999987 271.5,28.783999999999992 C271.60000000000036,28.903999999999996 271.7000000000007,28.964000000000055 271.89999999999964,28.964000000000055 C271.89999999999964,28.964000000000055 272.0,28.956000000000017 272.10000000000036,28.940000000000055 C272.2000000000007,28.924999999999955 272.2000000000007,28.895999999999958 272.2999999999993,28.854000000000042 C272.5,28.812999999999988 272.5,28.741999999999962 272.60000000000036,28.644000000000005 C272.7000000000007,28.54499999999996 272.7000000000007,28.422000000000025 272.7000000000007,28.275999999999954 L272.7000000000007,26.400999999999954 C272.7000000000007,26.214000000000055 272.7000000000007,26.086000000000013 272.60000000000036,26.019000000000005 C272.5,25.951000000000022 272.39999999999964,25.912000000000035 272.10000000000036,25.900999999999954 L272.10000000000036,25.775999999999954 L273.39999999999964,25.775999999999954 L273.39999999999964,28.495000000000005 C273.39999999999964,28.682999999999993 273.39999999999964,28.80499999999995 273.5,28.861999999999966 C273.60000000000036,28.91999999999996 273.7000000000007,28.94799999999998 273.89999999999964,28.94799999999998 L273.89999999999964,28.94799999999998 M276.10000000000036,25.854000000000042 C276.10000000000036,25.854000000000042 276.2000000000007,25.827999999999975 276.2000000000007,25.775999999999954 L276.2999999999993,25.775999999999954 L276.2999999999993,26.854000000000042 L276.2000000000007,26.854000000000042 C276.10000000000036,26.5 276.0,26.248000000000047 275.89999999999964,26.09699999999998 C275.7999999999993,25.946000000000026 275.60000000000036,25.870000000000005 275.2999999999993,25.870000000000005 C275.2000000000007,25.870000000000005 275.0,25.922000000000025 274.89999999999964,26.025999999999954 C274.7999999999993,26.129999999999995 274.7000000000007,26.260999999999967 274.7000000000007,26.41700000000003 C274.7000000000007,26.645999999999958 274.89999999999964,26.827999999999975 275.10000000000036,26.964000000000055 L275.89999999999964,27.479000000000042 C276.2000000000007,27.625 276.39999999999964,27.770999999999958 276.5,27.91700000000003 C276.60000000000036,28.062999999999988 276.60000000000036,28.235000000000014 276.60000000000036,28.432999999999993 C276.60000000000036,28.702999999999975 276.5,28.940000000000055 276.2999999999993,29.144000000000005 C276.10000000000036,29.34699999999998 275.7999999999993,29.44799999999998 275.5,29.44799999999998 C275.39999999999964,29.44799999999998 275.2000000000007,29.424999999999955 275.0,29.378000000000043 C274.7000000000007,29.331000000000017 274.60000000000036,29.307999999999993 274.5,29.307999999999993 C274.5,29.307999999999993 274.39999999999964,29.339000000000055 274.2999999999993,29.400999999999954 L274.2000000000007,29.400999999999954 L274.2000000000007,28.150999999999954 L274.39999999999964,28.150999999999954 C274.5,28.525999999999954 274.60000000000036,28.79200000000003 274.7000000000007,28.94799999999998 C274.7999999999993,29.16700000000003 275.10000000000036,29.275999999999954 275.39999999999964,29.275999999999954 C275.60000000000036,29.275999999999954 275.7999999999993,29.224000000000046 275.89999999999964,29.120000000000005 C276.0,29.015999999999963 276.10000000000036,28.875 276.10000000000036,28.69799999999998 C276.10000000000036,28.458999999999946 275.89999999999964,28.260999999999967 275.60000000000036,28.104000000000042 L275.2000000000007,27.839000000000055 C274.7999999999993,27.640999999999963 274.60000000000036,27.456000000000017 274.5,27.283999999999992 C274.2999999999993,27.111999999999966 274.2000000000007,26.912000000000035 274.2000000000007,26.682999999999993 C274.2000000000007,26.390999999999963 274.2999999999993,26.153999999999996 274.5,25.97199999999998 C274.7000000000007,25.788999999999987 275.0,25.69799999999998 275.2999999999993,25.69799999999998 C275.5,25.69799999999998 275.7000000000007,25.724000000000046 275.7999999999993,25.775999999999954 C276.0,25.827999999999975 276.10000000000036,25.854000000000042 276.10000000000036,25.854000000000042 M277.39999999999964,26.229000000000042 C277.2999999999993,26.229000000000042 277.10000000000036,26.235000000000014 277.0,26.245000000000005 L277.0,26.135999999999967 C277.39999999999964,26.03200000000004 277.7999999999993,25.885999999999967 278.2999999999993,25.69799999999998 L278.2999999999993,25.714000000000055 L278.2999999999993,28.557999999999993 C278.2999999999993,28.839000000000055 278.39999999999964,29.019000000000005 278.39999999999964,29.09699999999998 C278.5,29.174999999999955 278.7000000000007,29.224000000000046 278.89999999999964,29.245000000000005 L278.89999999999964,29.370000000000005 L277.0,29.370000000000005 L277.0,29.245000000000005 C277.2999999999993,29.235000000000014 277.5,29.187999999999988 277.5,29.104000000000042 C277.60000000000036,29.020999999999958 277.60000000000036,28.839000000000055 277.60000000000036,28.557999999999993 L277.60000000000036,26.69799999999998 C277.60000000000036,26.520999999999958 277.60000000000036,26.399 277.60000000000036,26.331000000000017 C277.5,26.263000000000034 277.5,26.229000000000042 277.39999999999964,26.229000000000042 M277.89999999999964,23.900999999999954 C278.0,23.900999999999954 278.10000000000036,23.942999999999984 278.2000000000007,24.025999999999954 C278.2999999999993,24.110000000000014 278.2999999999993,24.208999999999946 278.2999999999993,24.32299999999998 C278.2999999999993,24.437999999999988 278.2999999999993,24.533999999999992 278.2000000000007,24.611999999999966 C278.10000000000036,24.690000000000055 278.0,24.729000000000042 277.89999999999964,24.729000000000042 C277.7999999999993,24.729000000000042 277.7000000000007,24.687999999999988 277.60000000000036,24.604000000000042 C277.5,24.520999999999958 277.5,24.424999999999955 277.5,24.315000000000055 C277.5,24.206000000000017 277.5,24.110000000000014 277.60000000000036,24.025999999999954 C277.7000000000007,23.942999999999984 277.7999999999993,23.900999999999954 277.89999999999964,23.900999999999954 M279.2999999999993,27.66700000000003 C279.2999999999993,27.07299999999998 279.5,26.59699999999998 279.7999999999993,26.236999999999966 C280.2000000000007,25.878000000000043 280.60000000000036,25.69799999999998 281.10000000000036,25.69799999999998 C281.39999999999964,25.69799999999998 281.7000000000007,25.778999999999996 281.89999999999964,25.940000000000055 C282.10000000000036,26.101999999999975 282.2999999999993,26.297000000000025 282.2999999999993,26.525999999999954 C282.2999999999993,26.610000000000014 282.2000000000007,26.684999999999945 282.10000000000036,26.753000000000043 C282.10000000000036,26.821000000000026 282.0,26.854000000000042 281.89999999999964,26.854000000000042 C281.7000000000007,26.854000000000042 281.60000000000036,26.735000000000014 281.5,26.495000000000005 L281.5,26.32299999999998 C281.39999999999964,26.16700000000003 281.39999999999964,26.062999999999988 281.2999999999993,26.010999999999967 C281.2999999999993,25.958999999999946 281.2000000000007,25.932999999999993 281.0,25.932999999999993 C280.7000000000007,25.932999999999993 280.39999999999964,26.059999999999945 280.2000000000007,26.315000000000055 C280.0,26.571000000000026 279.89999999999964,26.90700000000004 279.89999999999964,27.32299999999998 C279.89999999999964,27.770999999999958 280.0,28.140999999999963 280.2999999999993,28.432999999999993 C280.5,28.724000000000046 280.7999999999993,28.870000000000005 281.2000000000007,28.870000000000005 C281.39999999999964,28.870000000000005 281.60000000000036,28.812999999999988 281.7000000000007,28.69799999999998 C281.89999999999964,28.583999999999946 282.10000000000036,28.390999999999963 282.2999999999993,28.120000000000005 L282.39999999999964,28.182999999999993 C282.2999999999993,28.297000000000025 282.2999999999993,28.388000000000034 282.2000000000007,28.456000000000017 C282.2000000000007,28.524 282.10000000000036,28.628000000000043 282.0,28.769000000000005 C281.89999999999964,28.908999999999992 281.7999999999993,29.020999999999958 281.7000000000007,29.104000000000042 C281.60000000000036,29.187999999999988 281.5,29.265999999999963 281.2999999999993,29.339000000000055 C281.2000000000007,29.412000000000035 281.0,29.44799999999998 280.7999999999993,29.44799999999998 C280.39999999999964,29.44799999999998 280.0,29.28200000000004 279.7000000000007,28.94799999999998 C279.39999999999964,28.61500000000001 279.2999999999993,28.187999999999988 279.2999999999993,27.66700000000003 M283.60000000000036,28.57299999999998 C283.7999999999993,28.57299999999998 283.89999999999964,28.616999999999962 284.0,28.706000000000017 C284.0,28.79499999999996 284.10000000000036,28.900999999999954 284.10000000000036,29.025999999999954 C284.10000000000036,29.140999999999963 284.0,29.241999999999962 284.0,29.331000000000017 C283.89999999999964,29.41999999999996 283.7999999999993,29.464000000000055 283.60000000000036,29.464000000000055 C283.5,29.464000000000055 283.39999999999964,29.41999999999996 283.2999999999993,29.331000000000017 C283.2000000000007,29.241999999999962 283.2000000000007,29.140999999999963 283.2000000000007,29.025999999999954 C283.2000000000007,28.900999999999954 283.2999999999993,28.79499999999996 283.2999999999993,28.706000000000017 C283.39999999999964,28.616999999999962 283.5,28.57299999999998 283.60000000000036,28.57299999999998" />
</svg>
