<?xml version="1.0" encoding="UTF-8" standalone="yes"?>
<svg width="256.0px" height="256.0px" xmlns="http://www.w3.org/2000/svg" xmlns:xlink="http://www.w3.org/1999/xlink" version="1.2" baseProfile="tiny">
<path d="M118.59999999999854,30.79200000000003 C118.40000000000146,30.69799999999998 118.29999999999927,30.591000000000008 118.09999999999854,30.47199999999998 C118.0,30.351999999999975 117.79999999999927,30.184999999999945 117.59999999999854,29.97199999999998 C117.40000000000146,29.758000000000038 117.29999999999927,29.53200000000004 117.09999999999854,29.29200000000003 C117.0,29.05200000000002 116.90000000000146,28.760999999999967 116.79999999999927,28.41700000000003 C116.70000000000073,28.07299999999998 116.59999999999854,27.71900000000005 116.59999999999854,27.354000000000042 C116.59999999999854,26.96900000000005 116.70000000000073,26.604000000000042 116.79999999999927,26.260999999999967 C116.90000000000146,25.91700000000003 117.0,25.633000000000038 117.09999999999854,25.408999999999992 C117.29999999999927,25.184999999999945 117.40000000000146,24.966000000000008 117.59999999999854,24.753000000000043 C117.79999999999927,24.538999999999987 118.0,24.383000000000038 118.09999999999854,24.283999999999992 C118.29999999999927,24.184999999999945 118.40000000000146,24.077999999999975 118.59999999999854,23.964000000000055 L118.70000000000073,24.089000000000055 C118.40000000000146,24.287000000000035 118.20000000000073,24.461000000000013 118.09999999999854,24.611999999999966 C118.0,24.763000000000034 117.79999999999927,24.964000000000055 117.70000000000073,25.214000000000055 C117.5,25.464000000000055 117.40000000000146,25.760999999999967 117.40000000000146,26.104000000000042 C117.29999999999927,26.44799999999998 117.29999999999927,26.860000000000014 117.29999999999927,27.339000000000055 C117.29999999999927,27.827999999999975 117.29999999999927,28.253000000000043 117.40000000000146,28.611999999999966 C117.40000000000146,28.97199999999998 117.5,29.275999999999954 117.70000000000073,29.525999999999954 C117.79999999999927,29.775999999999954 118.0,29.98199999999997 118.09999999999854,30.144000000000005 C118.20000000000073,30.30499999999995 118.40000000000146,30.474000000000046 118.70000000000073,30.650999999999954 L118.59999999999854,30.79200000000003 M119.09999999999854,27.66700000000003 C119.09999999999854,27.07299999999998 119.29999999999927,26.59699999999998 119.59999999999854,26.236999999999966 C120.0,25.878000000000043 120.40000000000146,25.69799999999998 120.90000000000146,25.69799999999998 C121.20000000000073,25.69799999999998 121.5,25.778999999999996 121.70000000000073,25.940000000000055 C121.90000000000146,26.101999999999975 122.09999999999854,26.297000000000025 122.09999999999854,26.525999999999954 C122.09999999999854,26.610000000000014 122.0,26.684999999999945 121.90000000000146,26.753000000000043 C121.90000000000146,26.821000000000026 121.79999999999927,26.854000000000042 121.70000000000073,26.854000000000042 C121.5,26.854000000000042 121.40000000000146,26.735000000000014 121.29999999999927,26.495000000000005 L121.29999999999927,26.32299999999998 C121.20000000000073,26.16700000000003 121.20000000000073,26.062999999999988 121.09999999999854,26.010999999999967 C121.09999999999854,25.958999999999946 121.0,25.932999999999993 120.79999999999927,25.932999999999993 C120.5,25.932999999999993 120.20000000000073,26.059999999999945 120.0,26.315000000000055 C119.79999999999927,26.571000000000026 119.70000000000073,26.90700000000004 119.70000000000073,27.32299999999998 C119.70000000000073,27.770999999999958 119.79999999999927,28.140999999999963 120.09999999999854,28.432999999999993 C120.29999999999927,28.724000000000046 120.59999999999854,28.870000000000005 121.0,28.870000000000005 C121.20000000000073,28.870000000000005 121.40000000000146,28.812999999999988 121.5,28.69799999999998 C121.70000000000073,28.583999999999946 121.90000000000146,28.390999999999963 122.09999999999854,28.120000000000005 L122.20000000000073,28.182999999999993 C122.09999999999854,28.297000000000025 122.09999999999854,28.388000000000034 122.0,28.456000000000017 C122.0,28.524 121.90000000000146,28.628000000000043 121.79999999999927,28.769000000000005 C121.70000000000073,28.908999999999992 121.59999999999854,29.020999999999958 121.5,29.104000000000042 C121.40000000000146,29.187999999999988 121.29999999999927,29.265999999999963 121.09999999999854,29.339000000000055 C121.0,29.412000000000035 120.79999999999927,29.44799999999998 120.59999999999854,29.44799999999998 C120.20000000000073,29.44799999999998 119.79999999999927,29.28200000000004 119.5,28.94799999999998 C119.20000000000073,28.61500000000001 119.09999999999854,28.187999999999988 119.09999999999854,27.66700000000003 M122.79999999999927,23.964000000000055 C122.90000000000146,24.047000000000025 123.09999999999854,24.149 123.20000000000073,24.269000000000005 C123.40000000000146,24.388000000000034 123.5,24.55499999999995 123.70000000000073,24.769000000000005 C123.90000000000146,24.98199999999997 124.09999999999854,25.211000000000013 124.20000000000073,25.456000000000017 C124.40000000000146,25.701000000000022 124.5,25.991999999999962 124.59999999999854,26.331000000000017 C124.70000000000073,26.66999999999996 124.70000000000073,27.025999999999954 124.70000000000073,27.400999999999954 C124.70000000000073,27.775999999999954 124.70000000000073,28.135999999999967 124.59999999999854,28.479000000000042 C124.5,28.82299999999998 124.40000000000146,29.110000000000014 124.20000000000073,29.339000000000055 C124.09999999999854,29.567999999999984 123.90000000000146,29.787000000000035 123.70000000000073,29.995000000000005 C123.5,30.202999999999975 123.29999999999927,30.360000000000014 123.20000000000073,30.464000000000055 C123.09999999999854,30.567999999999984 122.90000000000146,30.67700000000002 122.79999999999927,30.79200000000003 L122.70000000000073,30.650999999999954 C122.90000000000146,30.464000000000055 123.09999999999854,30.29200000000003 123.29999999999927,30.135999999999967 C123.40000000000146,29.979000000000042 123.5,29.778999999999996 123.70000000000073,29.533999999999992 C123.79999999999927,29.288999999999987 123.90000000000146,28.995000000000005 124.0,28.650999999999954 C124.0,28.307999999999993 124.0,27.895999999999958 124.0,27.41700000000003 C124.0,26.92700000000002 124.0,26.503000000000043 124.0,26.144000000000005 C123.90000000000146,25.783999999999992 123.79999999999927,25.476999999999975 123.70000000000073,25.22199999999998 C123.5,24.966000000000008 123.40000000000146,24.760999999999967 123.29999999999927,24.604000000000042 C123.09999999999854,24.44799999999998 122.90000000000146,24.275999999999954 122.70000000000073,24.089000000000055 L122.79999999999927,23.964000000000055 M128.59999999999854,24.635999999999967 C128.5,24.635999999999967 128.29999999999927,24.692999999999984 128.0,24.807999999999993 L128.0,24.69799999999998 L129.40000000000146,23.964000000000055 L129.5,23.979000000000042 L129.5,28.775999999999954 C129.5,28.974000000000046 129.5,29.101999999999975 129.59999999999854,29.158999999999992 C129.70000000000073,29.216000000000008 129.90000000000146,29.245000000000005 130.20000000000073,29.245000000000005 L130.20000000000073,29.370000000000005 L128.0,29.370000000000005 L128.0,29.245000000000005 C128.29999999999927,29.235000000000014 128.5,29.190000000000055 128.59999999999854,29.111999999999966 C128.70000000000073,29.033999999999992 128.79999999999927,28.870000000000005 128.79999999999927,28.620000000000005 L128.79999999999927,25.010999999999967 C128.79999999999927,24.760999999999967 128.70000000000073,24.635999999999967 128.59999999999854,24.635999999999967 M131.5,29.54200000000003 L131.5,29.385999999999967 C132.09999999999854,29.28200000000004 132.59999999999854,29.024 133.09999999999854,28.611999999999966 C133.5,28.201000000000022 133.79999999999927,27.66700000000003 133.90000000000146,27.010999999999967 C133.5,27.32299999999998 133.09999999999854,27.479000000000042 132.70000000000073,27.479000000000042 C132.29999999999927,27.479000000000042 132.0,27.327999999999975 131.70000000000073,27.025999999999954 C131.40000000000146,26.724000000000046 131.29999999999927,26.333999999999946 131.29999999999927,25.854000000000042 C131.29999999999927,25.312999999999988 131.5,24.860000000000014 131.79999999999927,24.495000000000005 C132.09999999999854,24.129999999999995 132.5,23.94799999999998 133.0,23.94799999999998 C133.5,23.94799999999998 133.90000000000146,24.158999999999992 134.29999999999927,24.581000000000017 C134.59999999999854,25.003000000000043 134.79999999999927,25.547000000000025 134.79999999999927,26.214000000000055 C134.79999999999927,26.432999999999993 134.79999999999927,26.653999999999996 134.70000000000073,26.878000000000043 C134.70000000000073,27.101999999999975 134.59999999999854,27.366999999999962 134.5,27.674999999999955 C134.29999999999927,27.98199999999997 134.09999999999854,28.254999999999995 133.90000000000146,28.495000000000005 C133.70000000000073,28.735000000000014 133.40000000000146,28.952999999999975 133.0,29.150999999999954 C132.59999999999854,29.349000000000046 132.09999999999854,29.479000000000042 131.5,29.54200000000003 M133.0,27.120000000000005 C133.09999999999854,27.120000000000005 133.29999999999927,27.10699999999997 133.40000000000146,27.081000000000017 C133.5,27.05499999999995 133.59999999999854,26.991999999999962 133.79999999999927,26.894000000000005 C133.90000000000146,26.79499999999996 134.0,26.672000000000025 134.0,26.525999999999954 L134.0,26.214000000000055 C134.0,24.860000000000014 133.59999999999854,24.182999999999993 132.90000000000146,24.182999999999993 C132.70000000000073,24.182999999999993 132.59999999999854,24.226999999999975 132.5,24.315000000000055 C132.40000000000146,24.403999999999996 132.29999999999927,24.520999999999958 132.20000000000073,24.66700000000003 C132.20000000000073,24.812999999999988 132.09999999999854,24.958999999999946 132.09999999999854,25.104000000000042 C132.09999999999854,25.25 132.0,25.40700000000004 132.0,25.57299999999998 C132.0,26.05200000000002 132.09999999999854,26.42999999999995 132.29999999999927,26.706000000000017 C132.5,26.98199999999997 132.70000000000073,27.120000000000005 133.0,27.120000000000005 M137.09999999999854,29.479000000000042 C136.59999999999854,29.479000000000042 136.09999999999854,29.265999999999963 135.79999999999927,28.839000000000055 C135.5,28.412000000000035 135.29999999999927,27.84400000000005 135.29999999999927,27.135999999999967 C135.29999999999927,26.91700000000003 135.29999999999927,26.692999999999984 135.40000000000146,26.464000000000055 C135.40000000000146,26.235000000000014 135.5,25.97199999999998 135.70000000000073,25.674999999999955 C135.79999999999927,25.378000000000043 136.0,25.111999999999966 136.20000000000073,24.878000000000043 C136.5,24.644000000000005 136.79999999999927,24.434999999999945 137.20000000000073,24.253000000000043 C137.59999999999854,24.071000000000026 138.09999999999854,23.952999999999975 138.59999999999854,23.900999999999954 L138.59999999999854,24.025999999999954 C138.0,24.129999999999995 137.5,24.385999999999967 137.09999999999854,24.79200000000003 C136.59999999999854,25.19799999999998 136.40000000000146,25.702999999999975 136.29999999999927,26.307999999999993 C136.5,26.162000000000035 136.70000000000073,26.067999999999984 136.79999999999927,26.025999999999954 C137.0,25.985000000000014 137.09999999999854,25.964000000000055 137.29999999999927,25.964000000000055 C137.79999999999927,25.964000000000055 138.09999999999854,26.111999999999966 138.40000000000146,26.408999999999992 C138.70000000000073,26.706000000000017 138.79999999999927,27.104000000000042 138.79999999999927,27.604000000000042 C138.79999999999927,28.15700000000004 138.70000000000073,28.60699999999997 138.29999999999927,28.956000000000017 C138.0,29.30499999999995 137.59999999999854,29.479000000000042 137.09999999999854,29.479000000000042 M137.0,26.32299999999998 C136.59999999999854,26.32299999999998 136.40000000000146,26.400999999999954 136.20000000000073,26.557999999999993 C136.09999999999854,26.714000000000055 136.09999999999854,26.94799999999998 136.09999999999854,27.260999999999967 C136.09999999999854,27.875 136.20000000000073,28.360000000000014 136.40000000000146,28.714000000000055 C136.59999999999854,29.067999999999984 136.90000000000146,29.245000000000005 137.20000000000073,29.245000000000005 C137.5,29.245000000000005 137.70000000000073,29.128000000000043 137.90000000000146,28.894000000000005 C138.0,28.658999999999992 138.09999999999854,28.32299999999998 138.09999999999854,27.885999999999967 C138.09999999999854,27.385999999999967 138.0,27.0 137.79999999999927,26.729000000000042 C137.59999999999854,26.458999999999946 137.29999999999927,26.32299999999998 137.0,26.32299999999998 M141.40000000000146,26.400999999999954 C141.90000000000146,26.754999999999995 142.20000000000073,27.05200000000002 142.40000000000146,27.29200000000003 C142.5,27.53200000000004 142.59999999999854,27.807999999999993 142.59999999999854,28.120000000000005 C142.59999999999854,28.537000000000035 142.5,28.866999999999962 142.20000000000073,29.111999999999966 C141.90000000000146,29.35699999999997 141.5,29.479000000000042 141.0,29.479000000000042 C140.59999999999854,29.479000000000042 140.20000000000073,29.35699999999997 139.90000000000146,29.111999999999966 C139.59999999999854,28.866999999999962 139.5,28.547000000000025 139.5,28.150999999999954 C139.5,27.879999999999995 139.59999999999854,27.653999999999996 139.70000000000073,27.47199999999998 C139.79999999999927,27.288999999999987 140.09999999999854,27.037000000000035 140.5,26.714000000000055 C140.09999999999854,26.339000000000055 139.79999999999927,26.062999999999988 139.70000000000073,25.885999999999967 C139.59999999999854,25.708999999999946 139.5,25.49000000000001 139.5,25.229000000000042 C139.5,24.86500000000001 139.70000000000073,24.559999999999945 140.0,24.315000000000055 C140.29999999999927,24.071000000000026 140.59999999999854,23.94799999999998 141.09999999999854,23.94799999999998 C141.5,23.94799999999998 141.79999999999927,24.05499999999995 142.0,24.269000000000005 C142.29999999999927,24.48199999999997 142.40000000000146,24.760999999999967 142.40000000000146,25.104000000000042 C142.40000000000146,25.375 142.40000000000146,25.604000000000042 142.20000000000073,25.79200000000003 C142.0,25.979000000000042 141.79999999999927,26.182999999999993 141.40000000000146,26.400999999999954 M140.70000000000073,26.870000000000005 C140.5,27.057999999999993 140.40000000000146,27.241999999999962 140.29999999999927,27.424999999999955 C140.20000000000073,27.60699999999997 140.09999999999854,27.827999999999975 140.09999999999854,28.089000000000055 C140.09999999999854,28.432999999999993 140.20000000000073,28.711000000000013 140.40000000000146,28.924999999999955 C140.59999999999854,29.138000000000034 140.79999999999927,29.245000000000005 141.09999999999854,29.245000000000005 C141.40000000000146,29.245000000000005 141.59999999999854,29.163999999999987 141.70000000000073,29.003000000000043 C141.90000000000146,28.841000000000008 142.0,28.629999999999995 142.0,28.370000000000005 C142.0,28.287000000000035 142.0,28.206000000000017 142.0,28.128000000000043 C142.0,28.049999999999955 141.90000000000146,27.985000000000014 141.90000000000146,27.932999999999993 C141.90000000000146,27.879999999999995 141.90000000000146,27.817999999999984 141.79999999999927,27.745000000000005 C141.70000000000073,27.672000000000025 141.70000000000073,27.616999999999962 141.70000000000073,27.581000000000017 C141.59999999999854,27.54499999999996 141.59999999999854,27.486999999999966 141.5,27.408999999999992 C141.40000000000146,27.331000000000017 141.29999999999927,27.275999999999954 141.29999999999927,27.245000000000005 C141.20000000000073,27.214000000000055 141.09999999999854,27.153999999999996 141.0,27.065000000000055 C140.90000000000146,26.976999999999975 140.79999999999927,26.912000000000035 140.70000000000073,26.870000000000005 M141.09999999999854,26.260999999999967 C141.09999999999854,26.25 141.20000000000073,26.22199999999998 141.20000000000073,26.174999999999955 C141.29999999999927,26.128000000000043 141.40000000000146,26.091000000000008 141.40000000000146,26.065000000000055 C141.40000000000146,26.038999999999987 141.5,26.0 141.5,25.94799999999998 C141.59999999999854,25.895999999999958 141.59999999999854,25.84400000000005 141.70000000000073,25.79200000000003 C141.70000000000073,25.74000000000001 141.70000000000073,25.67700000000002 141.79999999999927,25.604000000000042 C141.79999999999927,25.53200000000004 141.79999999999927,25.451000000000022 141.90000000000146,25.361999999999966 C141.90000000000146,25.274 141.90000000000146,25.182999999999993 141.90000000000146,25.089000000000055 C141.90000000000146,24.817999999999984 141.79999999999927,24.599000000000046 141.59999999999854,24.432999999999993 C141.5,24.265999999999963 141.29999999999927,24.182999999999993 141.0,24.182999999999993 C140.79999999999927,24.182999999999993 140.59999999999854,24.258000000000038 140.40000000000146,24.408999999999992 C140.20000000000073,24.559999999999945 140.09999999999854,24.75 140.09999999999854,24.979000000000042 C140.09999999999854,25.19799999999998 140.20000000000073,25.40700000000004 140.40000000000146,25.604000000000042 C140.5,25.80200000000002 140.79999999999927,26.020999999999958 141.09999999999854,26.260999999999967 M150.5,26.69799999999998 C150.5,26.937999999999988 150.5,27.172000000000025 150.40000000000146,27.400999999999954 C150.29999999999927,27.629999999999995 150.20000000000073,27.866999999999962 150.09999999999854,28.111999999999966 C150.0,28.35699999999997 149.79999999999927,28.567999999999984 149.59999999999854,28.745000000000005 C149.29999999999927,28.922000000000025 149.0,29.071000000000026 148.70000000000073,29.190000000000055 C148.29999999999927,29.309999999999945 147.90000000000146,29.370000000000005 147.40000000000146,29.370000000000005 L145.09999999999854,29.370000000000005 L145.09999999999854,29.214000000000055 C145.40000000000146,29.192999999999984 145.59999999999854,29.140999999999963 145.70000000000073,29.057999999999993 C145.79999999999927,28.974000000000046 145.79999999999927,28.787000000000035 145.79999999999927,28.495000000000005 L145.79999999999927,24.94799999999998 C145.79999999999927,24.65700000000004 145.79999999999927,24.47199999999998 145.70000000000073,24.394000000000005 C145.59999999999854,24.315000000000055 145.40000000000146,24.260999999999967 145.09999999999854,24.229000000000042 L145.09999999999854,24.07299999999998 L147.29999999999927,24.07299999999998 C147.79999999999927,24.07299999999998 148.20000000000073,24.128000000000043 148.59999999999854,24.236999999999966 C149.0,24.34699999999998 149.29999999999927,24.486999999999966 149.5,24.658999999999992 C149.70000000000073,24.831000000000017 149.90000000000146,25.037000000000035 150.09999999999854,25.275999999999954 C150.20000000000073,25.515999999999963 150.29999999999927,25.75 150.40000000000146,25.979000000000042 C150.5,26.208999999999946 150.5,26.44799999999998 150.5,26.69799999999998 M149.59999999999854,26.760999999999967 C149.59999999999854,26.53200000000004 149.59999999999854,26.309999999999945 149.5,26.09699999999998 C149.5,25.883000000000038 149.40000000000146,25.66999999999996 149.29999999999927,25.456000000000017 C149.20000000000073,25.241999999999962 149.0,25.059999999999945 148.79999999999927,24.908999999999992 C148.59999999999854,24.758000000000038 148.40000000000146,24.633000000000038 148.09999999999854,24.533999999999992 C147.79999999999927,24.434999999999945 147.5,24.385999999999967 147.09999999999854,24.385999999999967 C146.90000000000146,24.385999999999967 146.79999999999927,24.40700000000004 146.70000000000073,24.44799999999998 C146.70000000000073,24.49000000000001 146.59999999999854,24.57299999999998 146.59999999999854,24.69799999999998 L146.59999999999854,28.745000000000005 C146.59999999999854,28.870000000000005 146.70000000000073,28.956000000000017 146.70000000000073,29.003000000000043 C146.79999999999927,29.049999999999955 146.90000000000146,29.07299999999998 147.09999999999854,29.07299999999998 C148.79999999999927,29.07299999999998 149.59999999999854,28.30200000000002 149.59999999999854,26.760999999999967 M153.40000000000146,26.885999999999967 C153.29999999999927,26.458999999999946 153.20000000000073,26.190000000000055 153.09999999999854,26.081000000000017 C153.0,25.97199999999998 152.90000000000146,25.90700000000004 152.70000000000073,25.885999999999967 L152.70000000000073,25.775999999999954 L154.40000000000146,25.775999999999954 L154.40000000000146,25.885999999999967 C154.20000000000073,25.91700000000003 154.0,25.951000000000022 154.0,25.986999999999966 C153.90000000000146,26.024 153.90000000000146,26.089000000000055 153.90000000000146,26.182999999999993 C153.90000000000146,26.245000000000005 153.90000000000146,26.400999999999954 154.0,26.650999999999954 L154.70000000000073,28.44799999999998 L155.40000000000146,26.66700000000003 C155.5,26.44799999999998 155.59999999999854,26.270999999999958 155.59999999999854,26.135999999999967 C155.59999999999854,26.07299999999998 155.5,26.024 155.5,25.986999999999966 C155.40000000000146,25.951000000000022 155.29999999999927,25.91700000000003 155.20000000000073,25.885999999999967 L155.20000000000073,25.775999999999954 L156.20000000000073,25.775999999999954 L156.20000000000073,25.885999999999967 C156.09999999999854,25.91700000000003 156.0,25.956000000000017 156.0,26.003000000000043 C156.0,26.049999999999955 155.90000000000146,26.15700000000004 155.90000000000146,26.32299999999998 L154.70000000000073,29.089000000000055 C154.59999999999854,29.349000000000046 154.59999999999854,29.479000000000042 154.5,29.479000000000042 C154.5,29.479000000000042 154.40000000000146,29.36500000000001 154.29999999999927,29.135999999999967 L153.59999999999854,27.245000000000005 L152.70000000000073,29.16700000000003 C152.59999999999854,29.375 152.5,29.479000000000042 152.5,29.479000000000042 C152.5,29.479000000000042 152.40000000000146,29.36500000000001 152.29999999999927,29.135999999999967 L151.20000000000073,26.400999999999954 C151.09999999999854,26.192999999999984 151.09999999999854,26.057999999999993 151.0,25.995000000000005 C151.0,25.932999999999993 150.90000000000146,25.895999999999958 150.79999999999927,25.885999999999967 L150.79999999999927,25.775999999999954 L152.20000000000073,25.775999999999954 L152.20000000000073,25.885999999999967 C152.09999999999854,25.90700000000004 152.0,25.934999999999945 151.90000000000146,25.97199999999998 C151.90000000000146,26.008000000000038 151.90000000000146,26.067999999999984 151.90000000000146,26.150999999999954 C151.90000000000146,26.235000000000014 151.90000000000146,26.317999999999984 151.90000000000146,26.400999999999954 L152.70000000000073,28.479000000000042 L153.40000000000146,26.885999999999967 M156.40000000000146,28.57299999999998 C156.40000000000146,28.479000000000042 156.5,28.394000000000005 156.5,28.315000000000055 C156.5,28.236999999999966 156.5,28.162000000000035 156.59999999999854,28.089000000000055 C156.59999999999854,28.015999999999963 156.70000000000073,27.951000000000022 156.70000000000073,27.894000000000005 C156.79999999999927,27.836000000000013 156.90000000000146,27.775999999999954 157.0,27.714000000000055 C157.09999999999854,27.650999999999954 157.09999999999854,27.599000000000046 157.20000000000073,27.557999999999993 C157.29999999999927,27.515999999999963 157.40000000000146,27.46900000000005 157.5,27.41700000000003 C157.59999999999854,27.36500000000001 157.70000000000073,27.32299999999998 157.79999999999927,27.29200000000003 C157.79999999999927,27.260999999999967 157.90000000000146,27.216000000000008 158.09999999999854,27.158999999999992 C158.20000000000073,27.101999999999975 158.40000000000146,27.057999999999993 158.40000000000146,27.025999999999954 L158.40000000000146,26.54200000000003 C158.40000000000146,26.104000000000042 158.20000000000073,25.885999999999967 157.79999999999927,25.885999999999967 C157.70000000000073,25.885999999999967 157.5,25.924999999999955 157.40000000000146,26.003000000000043 C157.29999999999927,26.081000000000017 157.20000000000073,26.172000000000025 157.20000000000073,26.275999999999954 C157.20000000000073,26.317999999999984 157.20000000000073,26.375 157.29999999999927,26.44799999999998 C157.29999999999927,26.520999999999958 157.29999999999927,26.567999999999984 157.29999999999927,26.589000000000055 C157.29999999999927,26.682999999999993 157.29999999999927,26.763000000000034 157.20000000000073,26.831000000000017 C157.09999999999854,26.899 157.0,26.932999999999993 156.90000000000146,26.932999999999993 C156.79999999999927,26.932999999999993 156.70000000000073,26.899 156.70000000000073,26.831000000000017 C156.59999999999854,26.763000000000034 156.59999999999854,26.682999999999993 156.59999999999854,26.589000000000055 C156.59999999999854,26.339000000000055 156.70000000000073,26.128000000000043 157.0,25.956000000000017 C157.20000000000073,25.783999999999992 157.5,25.69799999999998 157.90000000000146,25.69799999999998 C158.29999999999927,25.69799999999998 158.59999999999854,25.80200000000002 158.79999999999927,26.010999999999967 C159.0,26.21900000000005 159.0,26.537000000000035 159.0,26.964000000000055 L159.0,28.510999999999967 C159.0,28.687999999999988 159.09999999999854,28.809999999999945 159.09999999999854,28.878000000000043 C159.09999999999854,28.946000000000026 159.20000000000073,28.979000000000042 159.29999999999927,28.979000000000042 C159.40000000000146,28.979000000000042 159.5,28.92700000000002 159.59999999999854,28.82299999999998 L159.59999999999854,29.04200000000003 C159.5,29.19799999999998 159.40000000000146,29.30499999999995 159.29999999999927,29.361999999999966 C159.20000000000073,29.41999999999996 159.0,29.44799999999998 158.90000000000146,29.44799999999998 C158.79999999999927,29.44799999999998 158.59999999999854,29.400999999999954 158.59999999999854,29.307999999999993 C158.5,29.214000000000055 158.5,29.062999999999988 158.40000000000146,28.854000000000042 C158.0,29.25 157.59999999999854,29.44799999999998 157.29999999999927,29.44799999999998 C157.0,29.44799999999998 156.79999999999927,29.366999999999962 156.70000000000073,29.206000000000017 C156.5,29.04499999999996 156.40000000000146,28.833999999999946 156.40000000000146,28.57299999999998 M158.40000000000146,28.370000000000005 L158.40000000000146,27.214000000000055 C157.90000000000146,27.390999999999963 157.59999999999854,27.562999999999988 157.40000000000146,27.729000000000042 C157.20000000000073,27.895999999999958 157.09999999999854,28.09400000000005 157.09999999999854,28.32299999999998 C157.09999999999854,28.54200000000003 157.20000000000073,28.702999999999975 157.29999999999927,28.807999999999993 C157.40000000000146,28.912000000000035 157.5,28.964000000000055 157.59999999999854,28.964000000000055 C157.79999999999927,28.964000000000055 158.0,28.90700000000004 158.20000000000073,28.79200000000003 C158.29999999999927,28.74000000000001 158.29999999999927,28.687999999999988 158.40000000000146,28.635999999999967 C158.40000000000146,28.583999999999946 158.40000000000146,28.495000000000005 158.40000000000146,28.370000000000005 M162.09999999999854,26.44799999999998 C162.0,26.44799999999998 161.90000000000146,26.400999999999954 161.79999999999927,26.307999999999993 C161.70000000000073,26.214000000000055 161.59999999999854,26.16700000000003 161.59999999999854,26.16700000000003 C161.5,26.16700000000003 161.29999999999927,26.245000000000005 161.20000000000073,26.400999999999954 C161.09999999999854,26.557999999999993 161.0,26.702999999999975 161.0,26.839000000000055 L161.0,28.650999999999954 C161.0,28.879999999999995 161.09999999999854,29.033999999999992 161.09999999999854,29.111999999999966 C161.20000000000073,29.190000000000055 161.40000000000146,29.235000000000014 161.70000000000073,29.245000000000005 L161.70000000000073,29.370000000000005 L159.79999999999927,29.370000000000005 L159.79999999999927,29.245000000000005 C160.0,29.202999999999975 160.20000000000073,29.150999999999954 160.20000000000073,29.089000000000055 C160.29999999999927,29.025999999999954 160.29999999999927,28.895999999999958 160.29999999999927,28.69799999999998 L160.29999999999927,26.682999999999993 C160.29999999999927,26.504999999999995 160.29999999999927,26.379999999999995 160.29999999999927,26.307999999999993 C160.20000000000073,26.235000000000014 160.20000000000073,26.19799999999998 160.09999999999854,26.19799999999998 C160.0,26.19799999999998 159.90000000000146,26.208999999999946 159.79999999999927,26.229000000000042 L159.79999999999927,26.104000000000042 C160.20000000000073,25.96900000000005 160.59999999999854,25.833999999999946 161.0,25.69799999999998 L161.0,25.714000000000055 L161.0,26.41700000000003 C161.20000000000073,26.145999999999958 161.40000000000146,25.958999999999946 161.5,25.854000000000042 C161.59999999999854,25.75 161.79999999999927,25.69799999999998 162.0,25.69799999999998 C162.09999999999854,25.69799999999998 162.20000000000073,25.73199999999997 162.29999999999927,25.799999999999955 C162.40000000000146,25.866999999999962 162.40000000000146,25.96900000000005 162.40000000000146,26.104000000000042 C162.40000000000146,26.208999999999946 162.40000000000146,26.29200000000003 162.29999999999927,26.354000000000042 C162.29999999999927,26.41700000000003 162.20000000000073,26.44799999999998 162.09999999999854,26.44799999999998 M165.09999999999854,24.729000000000042 C165.0,24.729000000000042 164.90000000000146,24.69799999999998 164.90000000000146,24.635999999999967 C164.79999999999927,24.57299999999998 164.79999999999927,24.504999999999995 164.70000000000073,24.432999999999993 C164.70000000000073,24.360000000000014 164.59999999999854,24.29200000000003 164.59999999999854,24.229000000000042 C164.5,24.16700000000003 164.40000000000146,24.135999999999967 164.29999999999927,24.135999999999967 C164.0,24.135999999999967 163.90000000000146,24.370000000000005 163.90000000000146,24.839000000000055 L163.90000000000146,25.775999999999954 L164.79999999999927,25.775999999999954 L164.79999999999927,26.010999999999967 L163.90000000000146,26.010999999999967 L163.90000000000146,28.54200000000003 C163.90000000000146,28.833999999999946 163.90000000000146,29.020999999999958 164.0,29.104000000000042 C164.09999999999854,29.187999999999988 164.29999999999927,29.235000000000014 164.59999999999854,29.245000000000005 L164.59999999999854,29.370000000000005 L162.5,29.370000000000005 L162.5,29.245000000000005 C162.79999999999927,29.235000000000014 163.0,29.187999999999988 163.09999999999854,29.104000000000042 C163.09999999999854,29.020999999999958 163.20000000000073,28.833999999999946 163.20000000000073,28.54200000000003 L163.20000000000073,26.010999999999967 L162.5,26.010999999999967 L162.5,25.775999999999954 L163.20000000000073,25.775999999999954 C163.20000000000073,25.172000000000025 163.29999999999927,24.706000000000017 163.5,24.378000000000043 C163.70000000000073,24.049999999999955 164.09999999999854,23.885999999999967 164.59999999999854,23.885999999999967 C164.79999999999927,23.885999999999967 165.0,23.934999999999945 165.20000000000073,24.033999999999992 C165.29999999999927,24.133000000000038 165.40000000000146,24.254999999999995 165.40000000000146,24.400999999999954 C165.40000000000146,24.495000000000005 165.40000000000146,24.57299999999998 165.29999999999927,24.635999999999967 C165.29999999999927,24.69799999999998 165.20000000000073,24.729000000000042 165.09999999999854,24.729000000000042 M172.79999999999927,24.79200000000003 L170.70000000000073,29.370000000000005 L170.59999999999854,29.370000000000005 L168.59999999999854,24.979000000000042 L168.59999999999854,28.19799999999998 C168.59999999999854,28.604000000000042 168.70000000000073,28.873000000000047 168.79999999999927,29.003000000000043 C168.90000000000146,29.133000000000038 169.09999999999854,29.202999999999975 169.40000000000146,29.214000000000055 L169.40000000000146,29.370000000000005 L167.5,29.370000000000005 L167.5,29.214000000000055 C167.79999999999927,29.192999999999984 168.0,29.120000000000005 168.09999999999854,28.995000000000005 C168.20000000000073,28.870000000000005 168.29999999999927,28.604000000000042 168.29999999999927,28.19799999999998 L168.29999999999927,24.94799999999998 C168.29999999999927,24.65700000000004 168.20000000000073,24.46900000000005 168.09999999999854,24.385999999999967 C168.09999999999854,24.30200000000002 167.79999999999927,24.25 167.5,24.229000000000042 L167.5,24.07299999999998 L169.09999999999854,24.07299999999998 L170.90000000000146,28.120000000000005 L172.70000000000073,24.07299999999998 L174.29999999999927,24.07299999999998 L174.29999999999927,24.229000000000042 C174.0,24.260999999999967 173.79999999999927,24.317999999999984 173.70000000000073,24.400999999999954 C173.70000000000073,24.485000000000014 173.59999999999854,24.66700000000003 173.59999999999854,24.94799999999998 L173.59999999999854,28.495000000000005 C173.59999999999854,28.775999999999954 173.70000000000073,28.961000000000013 173.70000000000073,29.049999999999955 C173.79999999999927,29.138000000000034 174.0,29.192999999999984 174.29999999999927,29.214000000000055 L174.29999999999927,29.370000000000005 L172.09999999999854,29.370000000000005 L172.09999999999854,29.214000000000055 C172.40000000000146,29.192999999999984 172.59999999999854,29.135999999999967 172.70000000000073,29.04200000000003 C172.70000000000073,28.94799999999998 172.79999999999927,28.74000000000001 172.79999999999927,28.41700000000003 L172.79999999999927,24.79200000000003 M178.29999999999927,28.94799999999998 L178.29999999999927,29.07299999999998 C177.90000000000146,29.187999999999988 177.5,29.312999999999988 177.20000000000073,29.44799999999998 L177.09999999999854,29.432999999999993 L177.09999999999854,28.745000000000005 C177.09999999999854,28.765999999999963 177.09999999999854,28.815000000000055 177.0,28.894000000000005 C176.90000000000146,28.97199999999998 176.90000000000146,29.025999999999954 176.79999999999927,29.057999999999993 C176.79999999999927,29.089000000000055 176.70000000000073,29.135999999999967 176.70000000000073,29.19799999999998 C176.59999999999854,29.260999999999967 176.5,29.30499999999995 176.5,29.331000000000017 C176.40000000000146,29.35699999999997 176.29999999999927,29.383000000000038 176.20000000000073,29.408999999999992 C176.20000000000073,29.434999999999945 176.09999999999854,29.44799999999998 176.0,29.44799999999998 C175.70000000000073,29.44799999999998 175.5,29.351999999999975 175.29999999999927,29.158999999999992 C175.09999999999854,28.966000000000008 175.0,28.714000000000055 175.0,28.400999999999954 L175.0,26.385999999999967 C175.0,26.208999999999946 175.0,26.083999999999946 174.90000000000146,26.010999999999967 C174.79999999999927,25.937999999999988 174.70000000000073,25.895999999999958 174.5,25.885999999999967 L174.5,25.775999999999954 L175.70000000000073,25.775999999999954 L175.70000000000073,28.370000000000005 C175.70000000000073,28.525999999999954 175.70000000000073,28.663999999999987 175.90000000000146,28.783999999999992 C176.0,28.903999999999996 176.09999999999854,28.964000000000055 176.20000000000073,28.964000000000055 C176.29999999999927,28.964000000000055 176.40000000000146,28.956000000000017 176.5,28.940000000000055 C176.5,28.924999999999955 176.59999999999854,28.895999999999958 176.70000000000073,28.854000000000042 C176.79999999999927,28.812999999999988 176.90000000000146,28.741999999999962 177.0,28.644000000000005 C177.09999999999854,28.54499999999996 177.09999999999854,28.422000000000025 177.09999999999854,28.275999999999954 L177.09999999999854,26.400999999999954 C177.09999999999854,26.214000000000055 177.09999999999854,26.086000000000013 177.0,26.019000000000005 C176.90000000000146,25.951000000000022 176.79999999999927,25.912000000000035 176.5,25.900999999999954 L176.5,25.775999999999954 L177.79999999999927,25.775999999999954 L177.79999999999927,28.495000000000005 C177.79999999999927,28.682999999999993 177.79999999999927,28.80499999999995 177.90000000000146,28.861999999999966 C177.90000000000146,28.91999999999996 178.09999999999854,28.94799999999998 178.20000000000073,28.94799999999998 L178.29999999999927,28.94799999999998 M180.5,25.854000000000042 C180.5,25.854000000000042 180.5,25.827999999999975 180.59999999999854,25.775999999999954 L180.70000000000073,25.775999999999954 L180.70000000000073,26.854000000000042 L180.59999999999854,26.854000000000042 C180.5,26.5 180.40000000000146,26.248000000000047 180.29999999999927,26.09699999999998 C180.09999999999854,25.946000000000026 180.0,25.870000000000005 179.70000000000073,25.870000000000005 C179.5,25.870000000000005 179.40000000000146,25.922000000000025 179.29999999999927,26.025999999999954 C179.20000000000073,26.129999999999995 179.09999999999854,26.260999999999967 179.09999999999854,26.41700000000003 C179.09999999999854,26.645999999999958 179.20000000000073,26.827999999999975 179.5,26.964000000000055 L180.29999999999927,27.479000000000042 C180.59999999999854,27.625 180.70000000000073,27.770999999999958 180.79999999999927,27.91700000000003 C180.90000000000146,28.062999999999988 181.0,28.235000000000014 181.0,28.432999999999993 C181.0,28.702999999999975 180.90000000000146,28.940000000000055 180.70000000000073,29.144000000000005 C180.40000000000146,29.34699999999998 180.20000000000073,29.44799999999998 179.90000000000146,29.44799999999998 C179.70000000000073,29.44799999999998 179.59999999999854,29.424999999999955 179.29999999999927,29.378000000000043 C179.09999999999854,29.331000000000017 179.0,29.307999999999993 178.90000000000146,29.307999999999993 C178.79999999999927,29.307999999999993 178.79999999999927,29.339000000000055 178.70000000000073,29.400999999999954 L178.59999999999854,29.400999999999954 L178.59999999999854,28.150999999999954 L178.79999999999927,28.150999999999954 C178.79999999999927,28.525999999999954 178.90000000000146,28.79200000000003 179.09999999999854,28.94799999999998 C179.20000000000073,29.16700000000003 179.5,29.275999999999954 179.79999999999927,29.275999999999954 C180.0,29.275999999999954 180.09999999999854,29.224000000000046 180.20000000000073,29.120000000000005 C180.40000000000146,29.015999999999963 180.40000000000146,28.875 180.40000000000146,28.69799999999998 C180.40000000000146,28.458999999999946 180.29999999999927,28.260999999999967 180.0,28.104000000000042 L179.59999999999854,27.839000000000055 C179.20000000000073,27.640999999999963 179.0,27.456000000000017 178.79999999999927,27.283999999999992 C178.70000000000073,27.111999999999966 178.59999999999854,26.912000000000035 178.59999999999854,26.682999999999993 C178.59999999999854,26.390999999999963 178.70000000000073,26.153999999999996 178.90000000000146,25.97199999999998 C179.09999999999854,25.788999999999987 179.40000000000146,25.69799999999998 179.70000000000073,25.69799999999998 C179.90000000000146,25.69799999999998 180.0,25.724000000000046 180.20000000000073,25.775999999999954 C180.40000000000146,25.827999999999975 180.40000000000146,25.854000000000042 180.5,25.854000000000042 M181.79999999999927,26.229000000000042 C181.59999999999854,26.229000000000042 181.5,26.235000000000014 181.40000000000146,26.245000000000005 L181.40000000000146,26.135999999999967 C181.79999999999927,26.03200000000004 182.20000000000073,25.885999999999967 182.70000000000073,25.69799999999998 L182.70000000000073,25.714000000000055 L182.70000000000073,28.557999999999993 C182.70000000000073,28.839000000000055 182.70000000000073,29.019000000000005 182.79999999999927,29.09699999999998 C182.90000000000146,29.174999999999955 183.0,29.224000000000046 183.29999999999927,29.245000000000005 L183.29999999999927,29.370000000000005 L181.40000000000146,29.370000000000005 L181.40000000000146,29.245000000000005 C181.70000000000073,29.235000000000014 181.79999999999927,29.187999999999988 181.90000000000146,29.104000000000042 C182.0,29.020999999999958 182.0,28.839000000000055 182.0,28.557999999999993 L182.0,26.69799999999998 C182.0,26.520999999999958 182.0,26.399 182.0,26.331000000000017 C181.90000000000146,26.263000000000034 181.90000000000146,26.229000000000042 181.79999999999927,26.229000000000042 M182.29999999999927,23.900999999999954 C182.40000000000146,23.900999999999954 182.5,23.942999999999984 182.59999999999854,24.025999999999954 C182.70000000000073,24.110000000000014 182.70000000000073,24.208999999999946 182.70000000000073,24.32299999999998 C182.70000000000073,24.437999999999988 182.70000000000073,24.533999999999992 182.59999999999854,24.611999999999966 C182.5,24.690000000000055 182.40000000000146,24.729000000000042 182.29999999999927,24.729000000000042 C182.20000000000073,24.729000000000042 182.09999999999854,24.687999999999988 182.0,24.604000000000042 C181.90000000000146,24.520999999999958 181.90000000000146,24.424999999999955 181.90000000000146,24.315000000000055 C181.90000000000146,24.206000000000017 181.90000000000146,24.110000000000014 182.0,24.025999999999954 C182.09999999999854,23.942999999999984 182.20000000000073,23.900999999999954 182.29999999999927,23.900999999999954 M183.70000000000073,27.66700000000003 C183.70000000000073,27.07299999999998 183.90000000000146,26.59699999999998 184.20000000000073,26.236999999999966 C184.59999999999854,25.878000000000043 185.0,25.69799999999998 185.40000000000146,25.69799999999998 C185.79999999999927,25.69799999999998 186.0,25.778999999999996 186.29999999999927,25.940000000000055 C186.5,26.101999999999975 186.59999999999854,26.297000000000025 186.59999999999854,26.525999999999954 C186.59999999999854,26.610000000000014 186.59999999999854,26.684999999999945 186.5,26.753000000000043 C186.5,26.821000000000026 186.40000000000146,26.854000000000042 186.29999999999927,26.854000000000042 C186.09999999999854,26.854000000000042 186.0,26.735000000000014 185.90000000000146,26.495000000000005 L185.90000000000146,26.32299999999998 C185.79999999999927,26.16700000000003 185.79999999999927,26.062999999999988 185.70000000000073,26.010999999999967 C185.59999999999854,25.958999999999946 185.5,25.932999999999993 185.40000000000146,25.932999999999993 C185.09999999999854,25.932999999999993 184.79999999999927,26.059999999999945 184.59999999999854,26.315000000000055 C184.40000000000146,26.571000000000026 184.29999999999927,26.90700000000004 184.29999999999927,27.32299999999998 C184.29999999999927,27.770999999999958 184.40000000000146,28.140999999999963 184.59999999999854,28.432999999999993 C184.90000000000146,28.724000000000046 185.20000000000073,28.870000000000005 185.5,28.870000000000005 C185.79999999999927,28.870000000000005 185.90000000000146,28.812999999999988 186.09999999999854,28.69799999999998 C186.29999999999927,28.583999999999946 186.40000000000146,28.390999999999963 186.59999999999854,28.120000000000005 L186.70000000000073,28.182999999999993 C186.70000000000073,28.297000000000025 186.59999999999854,28.388000000000034 186.59999999999854,28.456000000000017 C186.59999999999854,28.524 186.5,28.628000000000043 186.40000000000146,28.769000000000005 C186.29999999999927,28.908999999999992 186.20000000000073,29.020999999999958 186.09999999999854,29.104000000000042 C186.0,29.187999999999988 185.90000000000146,29.265999999999963 185.70000000000073,29.339000000000055 C185.5,29.412000000000035 185.40000000000146,29.44799999999998 185.20000000000073,29.44799999999998 C184.79999999999927,29.44799999999998 184.40000000000146,29.28200000000004 184.09999999999854,28.94799999999998 C183.79999999999927,28.61500000000001 183.70000000000073,28.187999999999988 183.70000000000073,27.66700000000003 M188.0,28.57299999999998 C188.09999999999854,28.57299999999998 188.20000000000073,28.616999999999962 188.29999999999927,28.706000000000017 C188.40000000000146,28.79499999999996 188.5,28.900999999999954 188.5,29.025999999999954 C188.5,29.140999999999963 188.40000000000146,29.241999999999962 188.29999999999927,29.331000000000017 C188.20000000000073,29.41999999999996 188.09999999999854,29.464000000000055 188.0,29.464000000000055 C187.90000000000146,29.464000000000055 187.79999999999927,29.41999999999996 187.70000000000073,29.331000000000017 C187.59999999999854,29.241999999999962 187.59999999999854,29.140999999999963 187.59999999999854,29.025999999999954 C187.59999999999854,28.900999999999954 187.59999999999854,28.79499999999996 187.70000000000073,28.706000000000017 C187.79999999999927,28.616999999999962 187.90000000000146,28.57299999999998 188.0,28.57299999999998" />
</svg>
