<?xml version="1.0" encoding="UTF-8" standalone="yes"?>
<svg width="256.0px" height="256.0px" xmlns="http://www.w3.org/2000/svg" xmlns:xlink="http://www.w3.org/1999/xlink" version="1.2" baseProfile="tiny">
<path d="M23.170000000000073,26.096000000000004 C23.789999999999964,26.096000000000004 24.31999999999971,26.258000000000038 24.76000000000022,26.581000000000017 C25.159999999999854,26.934999999999945 25.359999999999673,27.378000000000043 25.359999999999673,27.908999999999992 C25.359999999999673,28.80499999999995 24.899999999999636,29.64300000000003 23.979999999999563,30.424999999999955 C23.039999999999964,31.206000000000017 22.039999999999964,31.596000000000004 20.970000000000255,31.596000000000004 C20.340000000000146,31.596000000000004 19.8100000000004,31.434999999999945 19.390000000000327,31.111999999999966 C18.979999999999563,30.758000000000038 18.779999999999745,30.315000000000055 18.779999999999745,29.783999999999992 C18.779999999999745,28.888000000000034 19.25,28.049999999999955 20.18000000000029,27.26800000000003 C21.100000000000364,26.486999999999966 22.100000000000364,26.096000000000004 23.170000000000073,26.096000000000004" />
<path d="M5.239999999999782,63.12800000000004 L7.649999999999636,61.174999999999955 C7.710000000000036,61.12199999999996 7.770000000000437,61.096000000000004 7.819999999999709,61.096000000000004 C7.890000000000327,61.096000000000004 7.960000000000036,61.12199999999996 8.020000000000437,61.174999999999955 L8.430000000000291,61.486999999999966 C8.489999999999782,61.549999999999955 8.520000000000437,61.62800000000004 8.520000000000437,61.721000000000004 C8.520000000000437,61.78399999999999 8.489999999999782,61.861999999999966 8.430000000000291,61.95600000000002 L6.100000000000364,63.846000000000004 L8.430000000000291,65.73699999999997 C8.489999999999782,65.80999999999995 8.520000000000437,65.89099999999996 8.520000000000437,65.97900000000004 C8.520000000000437,66.06799999999998 8.489999999999782,66.14300000000003 8.430000000000291,66.20600000000002 L8.020000000000437,66.51800000000003 C7.960000000000036,66.57000000000005 7.890000000000327,66.596 7.819999999999709,66.596 C7.770000000000437,66.596 7.710000000000036,66.57000000000005 7.649999999999636,66.51800000000003 L5.239999999999782,64.56500000000005 L2.819999999999709,66.51800000000003 C2.7600000000002183,66.57000000000005 2.699999999999818,66.596 2.649999999999636,66.596 C2.5900000000001455,66.596 2.5200000000004366,66.57000000000005 2.4600000000000364,66.51800000000003 L2.0399999999999636,66.20600000000002 C1.9799999999995634,66.14300000000003 1.949999999999818,66.06500000000005 1.949999999999818,65.971 C1.949999999999818,65.90899999999999 1.9799999999995634,65.83100000000002 2.0399999999999636,65.73699999999997 L4.369999999999891,63.846000000000004 L2.0399999999999636,61.95600000000002 C1.9799999999995634,61.88300000000004 1.949999999999818,61.80200000000002 1.949999999999818,61.714000000000055 C1.949999999999818,61.625 1.9799999999995634,61.549999999999955 2.0399999999999636,61.486999999999966 L2.4600000000000364,61.174999999999955 C2.5200000000004366,61.12199999999996 2.5900000000001455,61.096000000000004 2.649999999999636,61.096000000000004 C2.699999999999818,61.096000000000004 2.7600000000002183,61.12199999999996 2.819999999999709,61.174999999999955 L5.239999999999782,63.12800000000004" />
<path d="M6.3400000000001455,81.096 C6.960000000000036,81.096 7.489999999999782,81.25800000000004 7.930000000000291,81.58100000000002 C8.329999999999927,81.93499999999995 8.520000000000437,82.37800000000004 8.520000000000437,82.90899999999999 C8.520000000000437,83.80499999999995 8.069999999999709,84.64300000000003 7.149999999999636,85.42499999999995 C6.210000000000036,86.20600000000002 5.210000000000036,86.596 4.130000000000109,86.596 C3.5100000000002183,86.596 2.9799999999995634,86.43499999999995 2.5600000000004,86.11199999999997 C2.149999999999636,85.75800000000004 1.949999999999818,85.31500000000005 1.949999999999818,84.78399999999999 C1.949999999999818,83.88800000000003 2.4099999999998545,83.04999999999995 3.350000000000364,82.26800000000003 C4.270000000000437,81.48699999999997 5.260000000000218,81.096 6.3400000000001455,81.096" />
<path d="M6.3400000000001455,8.596000000000004 C6.960000000000036,8.596000000000004 7.489999999999782,8.758000000000038 7.930000000000291,9.081000000000017 C8.329999999999927,9.434999999999945 8.520000000000437,9.878000000000043 8.520000000000437,10.408999999999992 C8.520000000000437,11.30499999999995 8.069999999999709,12.143000000000029 7.149999999999636,12.924999999999955 C6.210000000000036,13.706000000000017 5.210000000000036,14.096000000000004 4.130000000000109,14.096000000000004 C3.5100000000002183,14.096000000000004 2.9799999999995634,13.934999999999945 2.5600000000004,13.611999999999966 C2.149999999999636,13.258000000000038 1.949999999999818,12.815000000000055 1.949999999999818,12.283999999999992 C1.949999999999818,11.388000000000034 2.4099999999998545,10.549999999999955 3.350000000000364,9.768000000000029 C4.270000000000437,8.986999999999966 5.260000000000218,8.596000000000004 6.3400000000001455,8.596000000000004" />
<path d="M1.949999999999818,38.846000000000004 L19.43000000000029,38.846000000000004 L19.43000000000029,41.346000000000004 L1.949999999999818,41.346000000000004 L1.949999999999818,38.846000000000004" />
<path d="M137.25,37.596000000000004 C150.0699999999997,43.696000000000026 188.53999999999996,43.696000000000026 201.35999999999967,37.596000000000004 C188.53999999999996,44.49599999999998 150.0699999999997,44.49599999999998 137.25,37.596000000000004" />
<path d="M243.82999999999993,38.01800000000003 L243.82999999999993,39.565000000000055 C243.82999999999993,40.11699999999996 243.85000000000036,40.55499999999995 243.90999999999985,40.87800000000004 C244.32999999999993,40.513000000000034 244.64000000000033,40.24199999999996 244.82999999999993,40.065000000000055 C245.03999999999996,39.85699999999997 245.23999999999978,39.567999999999984 245.44999999999982,39.19799999999998 C245.65999999999985,38.827999999999975 245.77000000000044,38.46100000000001 245.77000000000044,38.096000000000004 C245.77000000000044,37.73199999999997 245.6899999999996,37.41899999999998 245.52999999999975,37.15899999999999 C245.3800000000001,36.899 245.17000000000007,36.76800000000003 244.90999999999985,36.76800000000003 C244.59000000000015,36.76800000000003 244.32999999999993,36.888000000000034 244.1300000000001,37.12800000000004 C243.9300000000003,37.388000000000034 243.82999999999993,37.684999999999945 243.82999999999993,38.01800000000003 M243.0,41.596000000000004 L242.75,29.706000000000017 C242.9399999999996,29.601999999999975 243.1199999999999,29.549999999999955 243.30000000000018,29.549999999999955 C243.48999999999978,29.549999999999955 243.67000000000007,29.601999999999975 243.84000000000015,29.706000000000017 L243.6899999999996,36.596000000000004 C244.22000000000025,36.138000000000034 244.82999999999993,35.90899999999999 245.52999999999975,35.90899999999999 C246.02999999999975,35.90899999999999 246.44999999999982,36.11699999999996 246.78999999999996,36.53399999999999 C247.1300000000001,36.95100000000002 247.30000000000018,37.42999999999995 247.30000000000018,37.971000000000004 C247.30000000000018,38.30499999999995 247.1899999999996,38.66399999999999 246.97000000000025,39.049999999999955 C246.76000000000022,39.39300000000003 246.53999999999996,39.66399999999999 246.3100000000004,39.861999999999966 C246.1800000000003,39.96600000000001 245.84000000000015,40.226999999999975 245.3100000000004,40.64300000000003 C245.15999999999985,40.75800000000004 244.97000000000025,40.89300000000003 244.76000000000022,41.049999999999955 C244.53999999999996,41.20600000000002 244.40999999999985,41.30499999999995 244.35999999999967,41.346000000000004 C244.27000000000044,41.399 244.1800000000003,41.50300000000004 244.09000000000015,41.65899999999999 C244.01000000000022,41.79399999999998 243.90999999999985,41.903999999999996 243.77999999999975,41.986999999999966 C243.69999999999982,42.07000000000005 243.59000000000015,42.111999999999966 243.46000000000004,42.111999999999966 C243.32999999999993,42.111999999999966 243.22000000000025,42.065000000000055 243.14000000000033,41.971000000000004 C243.05000000000018,41.87800000000004 243.0,41.75300000000004 243.0,41.596000000000004" />
<path d="M130.6800000000003,40.08100000000002 C130.6800000000003,40.33100000000002 130.55000000000018,40.45600000000002 130.3100000000004,40.45600000000002 C130.0600000000004,40.45600000000002 129.9399999999996,40.33100000000002 129.9399999999996,40.08100000000002 L129.9399999999996,37.190000000000055 L128.28999999999996,37.815000000000055 L128.28999999999996,40.971000000000004 C128.28999999999996,41.221000000000004 128.15999999999985,41.346000000000004 127.90999999999985,41.346000000000004 C127.65999999999985,41.346000000000004 127.53999999999996,41.221000000000004 127.53999999999996,40.971000000000004 L127.53999999999996,38.065000000000055 L126.90999999999985,38.299999999999955 C126.89999999999964,38.309999999999945 126.85000000000036,38.315000000000055 126.75,38.315000000000055 C126.64999999999964,38.315000000000055 126.5600000000004,38.275999999999954 126.47999999999956,38.19799999999998 C126.39999999999964,38.120000000000005 126.35999999999967,38.028999999999996 126.35999999999967,37.924999999999955 L126.35999999999967,36.721000000000004 C126.35999999999967,36.524 126.44999999999982,36.399 126.60999999999967,36.346000000000004 L127.53999999999996,36.03399999999999 L127.53999999999996,32.83100000000002 L126.90999999999985,33.049999999999955 C126.89999999999964,33.059999999999945 126.85000000000036,33.065000000000055 126.75,33.065000000000055 C126.64999999999964,33.065000000000055 126.5600000000004,33.025999999999954 126.47999999999956,32.94799999999998 C126.39999999999964,32.870000000000005 126.35999999999967,32.778999999999996 126.35999999999967,32.674999999999955 L126.35999999999967,31.456000000000017 C126.35999999999967,31.278999999999996 126.44999999999982,31.163999999999987 126.60999999999967,31.111999999999966 L127.53999999999996,30.753000000000043 L127.53999999999996,27.611999999999966 C127.53999999999996,27.361999999999966 127.65999999999985,27.236999999999966 127.90999999999985,27.236999999999966 C128.15999999999985,27.236999999999966 128.28999999999996,27.361999999999966 128.28999999999996,27.611999999999966 L128.28999999999996,30.503000000000043 L129.9399999999996,29.878000000000043 L129.9399999999996,26.721000000000004 C129.9399999999996,26.471000000000004 130.0600000000004,26.346000000000004 130.3100000000004,26.346000000000004 C130.55000000000018,26.346000000000004 130.6800000000003,26.471000000000004 130.6800000000003,26.721000000000004 L130.6800000000003,29.628000000000043 L131.32999999999993,29.39300000000003 C131.34000000000015,29.383000000000038 131.3800000000001,29.378000000000043 131.46000000000004,29.378000000000043 C131.55000000000018,29.378000000000043 131.64999999999964,29.413999999999987 131.75,29.486999999999966 C131.84000000000015,29.57000000000005 131.8800000000001,29.663999999999987 131.8800000000001,29.76800000000003 L131.8800000000001,30.971000000000004 C131.8800000000001,31.158999999999992 131.78999999999996,31.283999999999992 131.60000000000036,31.346000000000004 L130.6800000000003,31.658999999999992 L130.6800000000003,34.861999999999966 L131.32999999999993,34.64300000000003 C131.34000000000015,34.63300000000004 131.3800000000001,34.62800000000004 131.46000000000004,34.62800000000004 C131.55000000000018,34.62800000000004 131.64999999999964,34.66899999999998 131.75,34.75300000000004 C131.84000000000015,34.82600000000002 131.8800000000001,34.91399999999999 131.8800000000001,35.01800000000003 L131.8800000000001,36.236999999999966 C131.8800000000001,36.403999999999996 131.78999999999996,36.51800000000003 131.60000000000036,36.58100000000002 L130.6800000000003,36.940000000000055 L130.6800000000003,40.08100000000002 M129.9399999999996,31.956000000000017 L128.28999999999996,32.53399999999999 L128.28999999999996,35.736999999999966 L129.9399999999996,35.15899999999999 L129.9399999999996,31.956000000000017" />
<path d="M253.82999999999993,71.096 C254.46000000000004,71.096 254.98999999999978,71.25800000000004 255.4300000000003,71.58100000000002 C255.8199999999997,71.93499999999995 256.02000000000044,72.37800000000004 256.02000000000044,72.90899999999999 C256.02000000000044,73.80499999999995 255.5600000000004,74.64300000000003 254.64000000000033,75.42499999999995 C253.71000000000004,76.20600000000002 252.69999999999982,76.596 251.6300000000001,76.596 C251.0,76.596 250.47999999999956,76.43499999999995 250.05000000000018,76.11199999999997 C249.64000000000033,75.75800000000004 249.4399999999996,75.31500000000005 249.4399999999996,74.78399999999999 C249.4399999999996,73.88800000000003 249.90999999999985,73.04999999999995 250.85000000000036,72.26800000000003 C251.76000000000022,71.48699999999997 252.76000000000022,71.096 253.82999999999993,71.096" />
<path d="M252.73999999999978,38.12800000000004 L255.14000000000033,36.174999999999955 C255.21000000000004,36.12199999999996 255.26000000000022,36.096000000000004 255.3199999999997,36.096000000000004 C255.39000000000033,36.096000000000004 255.46000000000004,36.12199999999996 255.52000000000044,36.174999999999955 L255.9300000000003,36.486999999999966 C255.98999999999978,36.549999999999955 256.02000000000044,36.62800000000004 256.02000000000044,36.721000000000004 C256.02000000000044,36.78399999999999 255.98999999999978,36.861999999999966 255.9300000000003,36.95600000000002 L253.60000000000036,38.846000000000004 L255.9300000000003,40.736999999999966 C255.98999999999978,40.809999999999945 256.02000000000044,40.89099999999996 256.02000000000044,40.97900000000004 C256.02000000000044,41.067999999999984 255.98999999999978,41.14300000000003 255.9300000000003,41.20600000000002 L255.52000000000044,41.51800000000003 C255.46000000000004,41.57000000000005 255.39000000000033,41.596000000000004 255.3199999999997,41.596000000000004 C255.26000000000022,41.596000000000004 255.21000000000004,41.57000000000005 255.14000000000033,41.51800000000003 L252.73999999999978,39.565000000000055 L250.3199999999997,41.51800000000003 C250.25,41.57000000000005 250.19999999999982,41.596000000000004 250.14000000000033,41.596000000000004 C250.07999999999993,41.596000000000004 250.02000000000044,41.57000000000005 249.96000000000004,41.51800000000003 L249.52999999999975,41.20600000000002 C249.47000000000025,41.14300000000003 249.4399999999996,41.065000000000055 249.4399999999996,40.971000000000004 C249.4399999999996,40.90899999999999 249.47000000000025,40.83100000000002 249.52999999999975,40.736999999999966 L251.85999999999967,38.846000000000004 L249.52999999999975,36.95600000000002 C249.47000000000025,36.88300000000004 249.4399999999996,36.80200000000002 249.4399999999996,36.714000000000055 C249.4399999999996,36.625 249.47000000000025,36.549999999999955 249.52999999999975,36.486999999999966 L249.96000000000004,36.174999999999955 C250.02000000000044,36.12199999999996 250.07999999999993,36.096000000000004 250.14000000000033,36.096000000000004 C250.19999999999982,36.096000000000004 250.25,36.12199999999996 250.3199999999997,36.174999999999955 L252.73999999999978,38.12800000000004" />
<path d="M231.72999999999956,63.12800000000004 L234.1300000000001,61.174999999999955 C234.19999999999982,61.12199999999996 234.25,61.096000000000004 234.30000000000018,61.096000000000004 C234.3800000000001,61.096000000000004 234.44999999999982,61.12199999999996 234.51000000000022,61.174999999999955 L234.90999999999985,61.486999999999966 C234.97999999999956,61.549999999999955 235.01000000000022,61.62800000000004 235.01000000000022,61.721000000000004 C235.01000000000022,61.78399999999999 234.97999999999956,61.861999999999966 234.90999999999985,61.95600000000002 L232.59000000000015,63.846000000000004 L234.90999999999985,65.73699999999997 C234.97999999999956,65.80999999999995 235.01000000000022,65.89099999999996 235.01000000000022,65.97900000000004 C235.01000000000022,66.06799999999998 234.97999999999956,66.14300000000003 234.90999999999985,66.20600000000002 L234.51000000000022,66.51800000000003 C234.44999999999982,66.57000000000005 234.3800000000001,66.596 234.30000000000018,66.596 C234.25,66.596 234.19999999999982,66.57000000000005 234.1300000000001,66.51800000000003 L231.72999999999956,64.56500000000005 L229.30000000000018,66.51800000000003 C229.23999999999978,66.57000000000005 229.1899999999996,66.596 229.1300000000001,66.596 C229.0699999999997,66.596 229.01000000000022,66.57000000000005 228.94999999999982,66.51800000000003 L228.52000000000044,66.20600000000002 C228.46000000000004,66.14300000000003 228.4300000000003,66.06500000000005 228.4300000000003,65.971 C228.4300000000003,65.90899999999999 228.46000000000004,65.83100000000002 228.52000000000044,65.73699999999997 L230.85000000000036,63.846000000000004 L228.52000000000044,61.95600000000002 C228.46000000000004,61.88300000000004 228.4300000000003,61.80200000000002 228.4300000000003,61.714000000000055 C228.4300000000003,61.625 228.46000000000004,61.549999999999955 228.52000000000044,61.486999999999966 L228.94999999999982,61.174999999999955 C229.01000000000022,61.12199999999996 229.0699999999997,61.096000000000004 229.1300000000001,61.096000000000004 C229.1899999999996,61.096000000000004 229.23999999999978,61.12199999999996 229.30000000000018,61.174999999999955 L231.72999999999956,63.12800000000004" />
<path d="M202.35000000000036,63.12800000000004 L204.76000000000022,61.174999999999955 C204.8199999999997,61.12199999999996 204.8800000000001,61.096000000000004 204.9300000000003,61.096000000000004 C205.01000000000022,61.096000000000004 205.0699999999997,61.12199999999996 205.14000000000033,61.174999999999955 L205.53999999999996,61.486999999999966 C205.60000000000036,61.549999999999955 205.64000000000033,61.62800000000004 205.64000000000033,61.721000000000004 C205.64000000000033,61.78399999999999 205.60000000000036,61.861999999999966 205.53999999999996,61.95600000000002 L203.21000000000004,63.846000000000004 L205.53999999999996,65.73699999999997 C205.60000000000036,65.80999999999995 205.64000000000033,65.89099999999996 205.64000000000033,65.97900000000004 C205.64000000000033,66.06799999999998 205.60000000000036,66.14300000000003 205.53999999999996,66.20600000000002 L205.14000000000033,66.51800000000003 C205.0699999999997,66.57000000000005 205.01000000000022,66.596 204.9300000000003,66.596 C204.8800000000001,66.596 204.8199999999997,66.57000000000005 204.76000000000022,66.51800000000003 L202.35000000000036,64.56500000000005 L199.9300000000003,66.51800000000003 C199.8699999999999,66.57000000000005 199.8100000000004,66.596 199.76000000000022,66.596 C199.69999999999982,66.596 199.64000000000033,66.57000000000005 199.5699999999997,66.51800000000003 L199.14999999999964,66.20600000000002 C199.09000000000015,66.14300000000003 199.0600000000004,66.06500000000005 199.0600000000004,65.971 C199.0600000000004,65.90899999999999 199.09000000000015,65.83100000000002 199.14999999999964,65.73699999999997 L201.47999999999956,63.846000000000004 L199.14999999999964,61.95600000000002 C199.09000000000015,61.88300000000004 199.0600000000004,61.80200000000002 199.0600000000004,61.714000000000055 C199.0600000000004,61.625 199.09000000000015,61.549999999999955 199.14999999999964,61.486999999999966 L199.5699999999997,61.174999999999955 C199.64000000000033,61.12199999999996 199.69999999999982,61.096000000000004 199.76000000000022,61.096000000000004 C199.8100000000004,61.096000000000004 199.8699999999999,61.12199999999996 199.9300000000003,61.174999999999955 L202.35000000000036,63.12800000000004" />
<path d="M203.44999999999982,71.096 C204.0699999999997,71.096 204.60000000000036,71.25800000000004 205.03999999999996,71.58100000000002 C205.4399999999996,71.93499999999995 205.64000000000033,72.37800000000004 205.64000000000033,72.90899999999999 C205.64000000000033,73.80499999999995 205.1800000000003,74.64300000000003 204.26000000000022,75.42499999999995 C203.3199999999997,76.20600000000002 202.3199999999997,76.596 201.25,76.596 C200.6199999999999,76.596 200.09000000000015,76.43499999999995 199.67000000000007,76.11199999999997 C199.26000000000022,75.75800000000004 199.0600000000004,75.31500000000005 199.0600000000004,74.78399999999999 C199.0600000000004,73.88800000000003 199.52999999999975,73.04999999999995 200.46000000000004,72.26800000000003 C201.3800000000001,71.48699999999997 202.3800000000001,71.096 203.44999999999982,71.096" />
<path d="M203.44999999999982,31.096000000000004 C204.0699999999997,31.096000000000004 204.60000000000036,31.258000000000038 205.03999999999996,31.581000000000017 C205.4399999999996,31.934999999999945 205.64000000000033,32.37800000000004 205.64000000000033,32.90899999999999 C205.64000000000033,33.80499999999995 205.1800000000003,34.64300000000003 204.26000000000022,35.424999999999955 C203.3199999999997,36.20600000000002 202.3199999999997,36.596000000000004 201.25,36.596000000000004 C200.6199999999999,36.596000000000004 200.09000000000015,36.434999999999945 199.67000000000007,36.111999999999966 C199.26000000000022,35.75800000000004 199.0600000000004,35.315000000000055 199.0600000000004,34.78399999999999 C199.0600000000004,33.888000000000034 199.52999999999975,33.049999999999955 200.46000000000004,32.26800000000003 C201.3800000000001,31.486999999999966 202.3800000000001,31.096000000000004 203.44999999999982,31.096000000000004" />
<path d="M165.64000000000033,63.12800000000004 L168.05000000000018,61.174999999999955 C168.10999999999967,61.12199999999996 168.17000000000007,61.096000000000004 168.22000000000025,61.096000000000004 C168.28999999999996,61.096000000000004 168.35999999999967,61.12199999999996 168.42000000000007,61.174999999999955 L168.82999999999993,61.486999999999966 C168.89000000000033,61.549999999999955 168.92000000000007,61.62800000000004 168.92000000000007,61.721000000000004 C168.92000000000007,61.78399999999999 168.89000000000033,61.861999999999966 168.82999999999993,61.95600000000002 L166.5,63.846000000000004 L168.82999999999993,65.73699999999997 C168.89000000000033,65.80999999999995 168.92000000000007,65.89099999999996 168.92000000000007,65.97900000000004 C168.92000000000007,66.06799999999998 168.89000000000033,66.14300000000003 168.82999999999993,66.20600000000002 L168.42000000000007,66.51800000000003 C168.35999999999967,66.57000000000005 168.28999999999996,66.596 168.22000000000025,66.596 C168.17000000000007,66.596 168.10999999999967,66.57000000000005 168.05000000000018,66.51800000000003 L165.64000000000033,64.56500000000005 L163.22000000000025,66.51800000000003 C163.15999999999985,66.57000000000005 163.10000000000036,66.596 163.05000000000018,66.596 C162.97999999999956,66.596 162.92000000000007,66.57000000000005 162.85999999999967,66.51800000000003 L162.4399999999996,66.20600000000002 C162.3699999999999,66.14300000000003 162.34000000000015,66.06500000000005 162.34000000000015,65.971 C162.34000000000015,65.90899999999999 162.3699999999999,65.83100000000002 162.4399999999996,65.73699999999997 L164.76000000000022,63.846000000000004 L162.4399999999996,61.95600000000002 C162.3699999999999,61.88300000000004 162.34000000000015,61.80200000000002 162.34000000000015,61.714000000000055 C162.34000000000015,61.625 162.3699999999999,61.549999999999955 162.4399999999996,61.486999999999966 L162.85999999999967,61.174999999999955 C162.92000000000007,61.12199999999996 162.97999999999956,61.096000000000004 163.05000000000018,61.096000000000004 C163.10000000000036,61.096000000000004 163.15999999999985,61.12199999999996 163.22000000000025,61.174999999999955 L165.64000000000033,63.12800000000004" />
<path d="M166.72999999999956,81.096 C167.35999999999967,81.096 167.89000000000033,81.25800000000004 168.32999999999993,81.58100000000002 C168.72000000000025,81.93499999999995 168.92000000000007,82.37800000000004 168.92000000000007,82.90899999999999 C168.92000000000007,83.80499999999995 168.46000000000004,84.64300000000003 167.55000000000018,85.42499999999995 C166.60999999999967,86.20600000000002 165.60000000000036,86.596 164.52999999999975,86.596 C163.90999999999985,86.596 163.3800000000001,86.43499999999995 162.94999999999982,86.11199999999997 C162.55000000000018,85.75800000000004 162.34000000000015,85.31500000000005 162.34000000000015,84.78399999999999 C162.34000000000015,83.88800000000003 162.8100000000004,83.04999999999995 163.75,82.26800000000003 C164.67000000000007,81.48699999999997 165.65999999999985,81.096 166.72999999999956,81.096" />
<path d="M136.27000000000044,63.12800000000004 L138.67000000000007,61.174999999999955 C138.73999999999978,61.12199999999996 138.78999999999996,61.096000000000004 138.85000000000036,61.096000000000004 C138.92000000000007,61.096000000000004 138.98999999999978,61.12199999999996 139.05000000000018,61.174999999999955 L139.46000000000004,61.486999999999966 C139.52000000000044,61.549999999999955 139.55000000000018,61.62800000000004 139.55000000000018,61.721000000000004 C139.55000000000018,61.78399999999999 139.52000000000044,61.861999999999966 139.46000000000004,61.95600000000002 L137.1300000000001,63.846000000000004 L139.46000000000004,65.73699999999997 C139.52000000000044,65.80999999999995 139.55000000000018,65.89099999999996 139.55000000000018,65.97900000000004 C139.55000000000018,66.06799999999998 139.52000000000044,66.14300000000003 139.46000000000004,66.20600000000002 L139.05000000000018,66.51800000000003 C138.98999999999978,66.57000000000005 138.92000000000007,66.596 138.85000000000036,66.596 C138.78999999999996,66.596 138.73999999999978,66.57000000000005 138.67000000000007,66.51800000000003 L136.27000000000044,64.56500000000005 L133.85000000000036,66.51800000000003 C133.77999999999975,66.57000000000005 133.72999999999956,66.596 133.67000000000007,66.596 C133.60999999999967,66.596 133.55000000000018,66.57000000000005 133.48999999999978,66.51800000000003 L133.0600000000004,66.20600000000002 C133.0,66.14300000000003 132.97000000000025,66.06500000000005 132.97000000000025,65.971 C132.97000000000025,65.90899999999999 133.0,65.83100000000002 133.0600000000004,65.73699999999997 L135.39000000000033,63.846000000000004 L133.0600000000004,61.95600000000002 C133.0,61.88300000000004 132.97000000000025,61.80200000000002 132.97000000000025,61.714000000000055 C132.97000000000025,61.625 133.0,61.549999999999955 133.0600000000004,61.486999999999966 L133.48999999999978,61.174999999999955 C133.55000000000018,61.12199999999996 133.60999999999967,61.096000000000004 133.67000000000007,61.096000000000004 C133.72999999999956,61.096000000000004 133.77999999999975,61.12199999999996 133.85000000000036,61.174999999999955 L136.27000000000044,63.12800000000004" />
<path d="M137.35999999999967,81.096 C137.98999999999978,81.096 138.52000000000044,81.25800000000004 138.96000000000004,81.58100000000002 C139.35000000000036,81.93499999999995 139.55000000000018,82.37800000000004 139.55000000000018,82.90899999999999 C139.55000000000018,83.80499999999995 139.09000000000015,84.64300000000003 138.17000000000007,85.42499999999995 C137.23999999999978,86.20600000000002 136.22999999999956,86.596 135.15999999999985,86.596 C134.52999999999975,86.596 134.01000000000022,86.43499999999995 133.57999999999993,86.11199999999997 C133.17000000000007,85.75800000000004 132.97000000000025,85.31500000000005 132.97000000000025,84.78399999999999 C132.97000000000025,83.88800000000003 133.4399999999996,83.04999999999995 134.3800000000001,82.26800000000003 C135.28999999999996,81.48699999999997 136.28999999999996,81.096 137.35999999999967,81.096" />
<path d="M137.35999999999967,31.096000000000004 C137.98999999999978,31.096000000000004 138.52000000000044,31.258000000000038 138.96000000000004,31.581000000000017 C139.35000000000036,31.934999999999945 139.55000000000018,32.37800000000004 139.55000000000018,32.90899999999999 C139.55000000000018,33.80499999999995 139.09000000000015,34.64300000000003 138.17000000000007,35.424999999999955 C137.23999999999978,36.20600000000002 136.22999999999956,36.596000000000004 135.15999999999985,36.596000000000004 C134.52999999999975,36.596000000000004 134.01000000000022,36.434999999999945 133.57999999999993,36.111999999999966 C133.17000000000007,35.75800000000004 132.97000000000025,35.315000000000055 132.97000000000025,34.78399999999999 C132.97000000000025,33.888000000000034 133.4399999999996,33.049999999999955 134.3800000000001,32.26800000000003 C135.28999999999996,31.486999999999966 136.28999999999996,31.096000000000004 137.35999999999967,31.096000000000004" />
<path d="M106.90999999999985,81.346 L105.06999999999971,81.346 C104.93000000000029,81.346 104.85000000000036,81.28399999999999 104.85000000000036,81.15899999999999 L104.85000000000036,71.53399999999999 C104.85000000000036,71.40899999999999 104.93000000000029,71.346 105.06999999999971,71.346 L106.90999999999985,71.346 C107.03999999999996,71.346 107.10000000000036,71.40899999999999 107.10000000000036,71.53399999999999 L107.10000000000036,81.15899999999999 C107.10000000000036,81.28399999999999 107.03999999999996,81.346 106.90999999999985,81.346 M102.48999999999978,81.346 L100.63000000000011,81.346 C100.51000000000022,81.346 100.44999999999982,81.28399999999999 100.44999999999982,81.15899999999999 L100.44999999999982,71.53399999999999 C100.44999999999982,71.40899999999999 100.51000000000022,71.346 100.63000000000011,71.346 L102.48999999999978,71.346 C102.64000000000033,71.346 102.71000000000004,71.40899999999999 102.71000000000004,71.53399999999999 L102.71000000000004,81.15899999999999 C102.71000000000004,81.28399999999999 102.64000000000033,81.346 102.48999999999978,81.346" />
<path d="M102.40999999999985,37.40899999999999 C102.76000000000022,37.04399999999998 102.93000000000029,36.70600000000002 102.93000000000029,36.39300000000003 C102.89999999999964,36.101999999999975 102.77999999999975,35.88300000000004 102.56999999999971,35.736999999999966 C102.34000000000015,35.58100000000002 102.06999999999971,35.50300000000004 101.76000000000022,35.50300000000004 C101.52999999999975,35.50300000000004 101.35000000000036,35.57600000000002 101.21000000000004,35.721000000000004 C101.07999999999993,35.85699999999997 101.01000000000022,36.01800000000003 101.01000000000022,36.20600000000002 C101.01000000000022,36.44500000000005 101.10999999999967,36.62199999999996 101.3100000000004,36.736999999999966 L102.40999999999985,37.40899999999999 M102.72999999999956,37.565000000000055 C103.27999999999975,37.85699999999997 103.5600000000004,38.263000000000034 103.5600000000004,38.78399999999999 C103.5600000000004,38.78399999999999 103.5600000000004,38.80499999999995 103.5600000000004,38.846000000000004 C103.5600000000004,39.24199999999996 103.39000000000033,39.57600000000002 103.0600000000004,39.846000000000004 C102.72999999999956,40.12800000000004 102.27000000000044,40.26800000000003 101.68000000000029,40.26800000000003 C101.18000000000029,40.26800000000003 100.75,40.138000000000034 100.38000000000011,39.87800000000004 C100.02000000000044,39.638000000000034 99.84000000000015,39.309999999999945 99.84000000000015,38.89300000000003 C99.84000000000015,38.70600000000002 99.88000000000011,38.53899999999999 99.97999999999956,38.39300000000003 C100.07999999999993,38.226999999999975 100.15999999999985,38.111999999999966 100.22999999999956,38.049999999999955 C100.22999999999956,38.049999999999955 100.35000000000036,37.924999999999955 100.60000000000036,37.674999999999955 C100.19999999999982,37.403999999999996 99.98999999999978,37.05499999999995 99.98999999999978,36.62800000000004 C99.98999999999978,36.263000000000034 100.14999999999964,35.940000000000055 100.46000000000004,35.65899999999999 C100.77999999999975,35.399 101.22000000000025,35.26800000000003 101.76000000000022,35.26800000000003 C102.19999999999982,35.26800000000003 102.56999999999971,35.36699999999996 102.88000000000011,35.565000000000055 C103.19999999999982,35.763000000000034 103.35000000000036,36.03899999999999 103.35000000000036,36.39300000000003 C103.35000000000036,36.726999999999975 103.14000000000033,37.11699999999996 102.72999999999956,37.565000000000055 M100.89999999999964,37.846000000000004 C100.5,38.190000000000055 100.30000000000018,38.53899999999999 100.27000000000044,38.89300000000003 C100.30000000000018,39.226999999999975 100.4399999999996,39.49699999999996 100.69999999999982,39.70600000000002 C100.98999999999978,39.924999999999955 101.31999999999971,40.03399999999999 101.68000000000029,40.03399999999999 C101.9399999999996,40.03399999999999 102.14999999999964,39.95100000000002 102.3100000000004,39.78399999999999 C102.46000000000004,39.62800000000004 102.53999999999996,39.434999999999945 102.53999999999996,39.20600000000002 C102.51000000000022,38.924999999999955 102.39000000000033,38.721000000000004 102.18000000000029,38.596000000000004 L100.89999999999964,37.846000000000004 M108.52999999999975,17.065000000000055 C108.34000000000015,16.866999999999962 108.23999999999978,16.625 108.23999999999978,16.339000000000055 C108.23999999999978,16.05200000000002 108.34000000000015,15.812999999999988 108.52999999999975,15.620000000000005 C108.72000000000025,15.427000000000021 108.96000000000004,15.331000000000017 109.25,15.331000000000017 C109.53999999999996,15.331000000000017 109.77999999999975,15.427000000000021 109.97999999999956,15.620000000000005 C110.18000000000029,15.812999999999988 110.27000000000044,16.05200000000002 110.27000000000044,16.339000000000055 C110.27000000000044,16.625 110.18000000000029,16.866999999999962 109.97999999999956,17.065000000000055 C109.77999999999975,17.263000000000034 109.53999999999996,17.361999999999966 109.25,17.361999999999966 C108.96000000000004,17.361999999999966 108.72000000000025,17.263000000000034 108.52999999999975,17.065000000000055 M108.52999999999975,22.07299999999998 C108.34000000000015,21.879999999999995 108.23999999999978,21.640999999999963 108.23999999999978,21.354000000000042 C108.23999999999978,21.067999999999984 108.34000000000015,20.826000000000022 108.52999999999975,20.628000000000043 C108.72000000000025,20.42999999999995 108.96000000000004,20.331000000000017 109.25,20.331000000000017 C109.53999999999996,20.331000000000017 109.77999999999975,20.42999999999995 109.97999999999956,20.628000000000043 C110.18000000000029,20.826000000000022 110.27000000000044,21.067999999999984 110.27000000000044,21.354000000000042 C110.27000000000044,21.640999999999963 110.18000000000029,21.879999999999995 109.97999999999956,22.07299999999998 C109.77999999999975,22.265999999999963 109.53999999999996,22.361999999999966 109.25,22.361999999999966 C108.96000000000004,22.361999999999966 108.72000000000025,22.265999999999963 108.52999999999975,22.07299999999998 M101.76000000000022,13.596000000000004 C103.48999999999978,13.596000000000004 104.89999999999964,14.028999999999996 106.01000000000022,14.893000000000029 C107.07999999999993,15.809999999999945 107.61999999999989,17.049999999999955 107.61999999999989,18.611999999999966 C107.61999999999989,19.663999999999987 107.40999999999985,20.628000000000043 106.98999999999978,21.503000000000043 C106.60000000000036,22.418999999999983 106.07999999999993,23.226999999999975 105.44999999999982,23.924999999999955 C104.78999999999996,24.64300000000003 104.0,25.32000000000005 103.09000000000015,25.956000000000017 C102.18000000000029,26.581000000000017 101.25,27.14300000000003 100.3100000000004,27.64300000000003 C98.38000000000011,28.611999999999966 97.3100000000004,29.096000000000004 97.10000000000036,29.096000000000004 C96.9399999999996,29.096000000000004 96.85000000000036,29.013000000000034 96.85000000000036,28.846000000000004 C96.85000000000036,28.783999999999992 96.88000000000011,28.726999999999975 96.93000000000029,28.674999999999955 C97.60000000000036,28.278999999999996 98.40999999999985,27.778999999999996 99.36999999999989,27.174999999999955 C99.98999999999978,26.76800000000003 100.72000000000025,26.206000000000017 101.5600000000004,25.486999999999966 C102.36999999999989,24.809999999999945 102.98999999999978,24.174999999999955 103.43000000000029,23.581000000000017 C103.89000000000033,22.986999999999966 104.3100000000004,22.258000000000038 104.68000000000029,21.39300000000003 C105.0,20.51800000000003 105.15999999999985,19.653999999999996 105.15999999999985,18.799999999999955 C105.15999999999985,17.538999999999987 104.85000000000036,16.440000000000055 104.22999999999956,15.503000000000043 C103.60000000000036,14.565000000000055 102.77999999999975,14.096000000000004 101.76000000000022,14.096000000000004 C101.02999999999975,14.096000000000004 100.39999999999964,14.331000000000017 99.88000000000011,14.799999999999955 C99.31999999999971,15.278999999999996 98.90999999999985,15.883000000000038 98.65999999999985,16.611999999999966 C98.90999999999985,16.508000000000038 99.14000000000033,16.456000000000017 99.35000000000036,16.456000000000017 C99.89000000000033,16.456000000000017 100.35999999999967,16.653999999999996 100.76000000000022,17.049999999999955 C101.14000000000033,17.466000000000008 101.34000000000015,17.940000000000055 101.34000000000015,18.471000000000004 C101.34000000000015,19.033999999999992 101.14999999999964,19.538999999999987 100.77000000000044,19.986999999999966 C100.36999999999989,20.383000000000038 99.89000000000033,20.581000000000017 99.35000000000036,20.581000000000017 C98.77000000000044,20.581000000000017 98.23999999999978,20.383000000000038 97.77000000000044,19.986999999999966 C97.32999999999993,19.538999999999987 97.10000000000036,19.033999999999992 97.10000000000036,18.471000000000004 C97.10000000000036,17.128000000000043 97.5600000000004,15.981999999999971 98.47999999999956,15.033999999999992 C99.36999999999989,14.076000000000022 100.47000000000025,13.596000000000004 101.76000000000022,13.596000000000004" />
<path d="M244.6899999999996,51.25300000000004 L244.6899999999996,51.221000000000004 C244.71000000000004,51.20100000000002 244.72000000000025,51.16399999999999 244.73999999999978,51.111999999999966 C244.76000000000022,51.059999999999945 244.77000000000044,51.00300000000004 244.77999999999975,50.940000000000055 C244.96000000000004,50.42999999999995 245.22999999999956,49.92999999999995 245.59000000000015,49.440000000000055 C246.03999999999996,48.78399999999999 246.55000000000018,48.46100000000001 247.1199999999999,48.471000000000004 C247.35999999999967,48.471000000000004 247.55000000000018,48.57000000000005 247.6899999999996,48.76800000000003 C247.8100000000004,48.934999999999945 247.8800000000001,49.15899999999999 247.89999999999964,49.440000000000055 C248.32999999999993,48.78399999999999 248.8199999999997,48.46100000000001 249.35999999999967,48.471000000000004 C249.5699999999997,48.471000000000004 249.75,48.57000000000005 249.92000000000007,48.76800000000003 C250.07999999999993,48.976999999999975 250.15999999999985,49.21600000000001 250.1899999999996,49.486999999999966 C250.59000000000015,48.799999999999955 251.0600000000004,48.46100000000001 251.59000000000015,48.471000000000004 C251.8699999999999,48.471000000000004 252.1300000000001,48.59400000000005 252.35999999999967,48.839000000000055 C252.60000000000036,49.08299999999997 252.71000000000004,49.36699999999996 252.6899999999996,49.690000000000055 C252.6899999999996,49.73199999999997 252.67000000000007,49.82000000000005 252.64999999999964,49.95600000000002 L252.01000000000022,52.65899999999999 C251.98999999999978,52.67999999999995 251.98999999999978,52.70600000000002 252.0,52.736999999999966 C252.0,52.84100000000001 252.02999999999975,52.89300000000003 252.10999999999967,52.89300000000003 C252.22999999999956,52.89300000000003 252.4399999999996,52.78899999999999 252.72000000000025,52.58100000000002 L253.1199999999999,52.25300000000004 C253.21000000000004,52.25300000000004 253.25,52.28399999999999 253.25,52.346000000000004 C253.25,52.399 253.22999999999956,52.440000000000055 253.1899999999996,52.471000000000004 C252.59000000000015,53.03399999999999 252.19999999999982,53.38300000000004 252.0,53.51800000000003 C251.6300000000001,53.78899999999999 251.27999999999975,53.924999999999955 250.94999999999982,53.924999999999955 C250.73999999999978,53.924999999999955 250.60000000000036,53.86699999999996 250.52999999999975,53.75300000000004 C250.40999999999985,53.65899999999999 250.35000000000036,53.528999999999996 250.34000000000015,53.361999999999966 C250.34000000000015,53.299999999999955 250.35000000000036,53.236999999999966 250.3699999999999,53.174999999999955 L251.0600000000004,50.20600000000002 C251.07999999999993,50.12199999999996 251.10000000000036,50.03899999999999 251.10999999999967,49.95600000000002 C251.10999999999967,49.71600000000001 251.03999999999996,49.596000000000004 250.89999999999964,49.596000000000004 C250.73999999999978,49.596000000000004 250.57999999999993,49.66399999999999 250.4399999999996,49.799999999999955 C250.27000000000044,49.924999999999955 250.17000000000007,50.059999999999945 250.14999999999964,50.20600000000002 L249.14999999999964,53.65899999999999 C249.10999999999967,53.78399999999999 249.03999999999996,53.846000000000004 248.9399999999996,53.846000000000004 L247.89000000000033,53.846000000000004 C247.76000000000022,53.846000000000004 247.72000000000025,53.78399999999999 247.76000000000022,53.65899999999999 L248.72999999999956,50.20600000000002 C248.77000000000044,50.09100000000001 248.78999999999996,49.99199999999996 248.78999999999996,49.90899999999999 C248.78999999999996,49.70100000000002 248.72000000000025,49.596000000000004 248.5600000000004,49.596000000000004 C248.39000000000033,49.596000000000004 248.25,49.66399999999999 248.1199999999999,49.799999999999955 C247.97999999999956,49.903999999999996 247.8699999999999,50.03899999999999 247.8100000000004,50.20600000000002 L246.64000000000033,53.65899999999999 C246.60000000000036,53.78399999999999 246.52000000000044,53.846000000000004 246.39999999999964,53.846000000000004 L245.35999999999967,53.846000000000004 C245.23999999999978,53.846000000000004 245.21000000000004,53.78399999999999 245.26000000000022,53.65899999999999 L246.4399999999996,50.20600000000002 C246.47999999999956,50.059999999999945 246.5,49.96600000000001 246.5,49.924999999999955 C246.5,49.70600000000002 246.39999999999964,49.596000000000004 246.22000000000025,49.596000000000004 C245.97000000000025,49.596000000000004 245.73999999999978,49.76800000000003 245.53999999999996,50.111999999999966 C245.34000000000015,50.434999999999945 245.17000000000007,50.79399999999998 245.0600000000004,51.190000000000055 C245.02000000000044,51.30499999999995 244.9399999999996,51.361999999999966 244.8100000000004,51.361999999999966 C244.72999999999956,51.34100000000001 244.6899999999996,51.30499999999995 244.6899999999996,51.25300000000004 M258.53999999999996,49.315000000000055 C258.1899999999996,49.315000000000055 257.8699999999999,49.50300000000004 257.59000000000015,49.87800000000004 C257.28999999999996,50.274 257.0600000000004,50.71100000000001 256.89999999999964,51.190000000000055 C256.75,51.649 256.6700000000001,52.049999999999955 256.6899999999996,52.39300000000003 C256.6899999999996,52.88300000000004 256.8699999999999,53.12800000000004 257.22999999999956,53.12800000000004 C257.5600000000004,53.12800000000004 257.8299999999999,53.00300000000004 258.0600000000004,52.75300000000004 C258.3199999999997,52.48199999999997 258.53999999999996,52.013000000000034 258.72000000000025,51.346000000000004 C258.89999999999964,50.65899999999999 259.0,50.17999999999995 259.0,49.90899999999999 C258.9899999999998,49.513000000000034 258.84000000000015,49.315000000000055 258.53999999999996,49.315000000000055 M255.6199999999999,48.39300000000003 C255.94999999999982,48.39300000000003 256.22999999999956,48.47900000000004 256.47000000000025,48.650999999999954 C256.72000000000025,48.82299999999998 256.8699999999999,49.05499999999995 256.9399999999996,49.346000000000004 C257.1999999999998,49.065000000000055 257.5,48.83600000000001 257.8599999999997,48.65899999999999 C258.21000000000004,48.48199999999997 258.53999999999996,48.39300000000003 258.84000000000015,48.39300000000003 C259.47000000000025,48.39300000000003 259.9499999999998,48.58600000000001 260.28999999999996,48.971000000000004 C260.6300000000001,49.37800000000004 260.78999999999996,49.888000000000034 260.78999999999996,50.50300000000004 C260.78999999999996,51.524 260.4399999999996,52.35699999999997 259.72000000000025,53.00300000000004 C259.0600000000004,53.55499999999995 258.47000000000025,53.83100000000002 257.9399999999996,53.83100000000002 C257.6099999999997,53.83100000000002 257.35000000000036,53.799999999999955 257.14999999999964,53.736999999999966 C256.89999999999964,53.674999999999955 256.7399999999998,53.61699999999996 256.64999999999964,53.565000000000055 C256.53999999999996,53.49199999999996 256.4499999999998,53.45600000000002 256.3699999999999,53.45600000000002 C256.21000000000004,53.45600000000002 256.10000000000036,53.524 256.03999999999996,53.65899999999999 L255.34000000000015,55.78399999999999 L255.34000000000015,55.87800000000004 C255.34000000000015,56.00300000000004 255.4399999999996,56.07600000000002 255.6199999999999,56.096000000000004 C255.6899999999996,56.10699999999997 255.77999999999975,56.11699999999996 255.90999999999985,56.12800000000004 C256.03999999999996,56.138000000000034 256.1400000000003,56.14300000000003 256.22000000000025,56.14300000000003 C256.39999999999964,56.174999999999955 256.5,56.226999999999975 256.5,56.299999999999955 C256.5,56.403999999999996 256.4499999999998,56.45600000000002 256.3599999999997,56.45600000000002 C255.22000000000025,56.38300000000004 254.48999999999978,56.346000000000004 254.14999999999964,56.346000000000004 C253.78999999999996,56.346000000000004 253.03999999999996,56.38300000000004 251.89999999999964,56.45600000000002 C251.80000000000018,56.45600000000002 251.76000000000022,56.403999999999996 251.77999999999975,56.299999999999955 C251.77999999999975,56.226999999999975 251.85999999999967,56.174999999999955 252.02999999999975,56.14300000000003 C252.10000000000036,56.12199999999996 252.4399999999996,56.111999999999966 253.02999999999975,56.111999999999966 C253.30000000000018,56.111999999999966 253.46000000000004,56.028999999999996 253.51000000000022,55.861999999999966 L255.5600000000004,49.940000000000055 C255.59000000000015,49.82600000000002 255.60999999999967,49.726999999999975 255.6199999999999,49.64300000000003 C255.6199999999999,49.41399999999999 255.52000000000044,49.30499999999995 255.3100000000004,49.315000000000055 C255.02000000000044,49.315000000000055 254.71000000000004,49.50300000000004 254.39000000000033,49.87800000000004 C254.07999999999993,50.23199999999997 253.82999999999993,50.63300000000004 253.64000000000033,51.08100000000002 C253.59000000000015,51.184999999999945 253.5,51.24199999999996 253.39000000000033,51.25300000000004 C253.28999999999996,51.25300000000004 253.25,51.21600000000001 253.25,51.14300000000003 C253.25,51.03899999999999 253.27999999999975,50.940000000000055 253.34000000000015,50.846000000000004 C253.60000000000036,50.29399999999998 253.8699999999999,49.79399999999998 254.14999999999964,49.346000000000004 C254.3199999999997,49.096000000000004 254.53999999999996,48.87800000000004 254.8100000000004,48.690000000000055 C255.0600000000004,48.49199999999996 255.32999999999993,48.39300000000003 255.6199999999999,48.39300000000003" />
<path d="M126.80000000000018,103.75300000000004 L126.80000000000018,103.721 C126.82999999999993,103.70100000000002 126.84000000000015,103.66399999999999 126.85999999999967,103.61199999999997 C126.86999999999989,103.55999999999995 126.89000000000033,103.50300000000004 126.89999999999964,103.44000000000005 C127.07999999999993,102.92999999999995 127.35000000000036,102.42999999999995 127.71000000000004,101.94000000000005 C128.15999999999985,101.28399999999999 128.67000000000007,100.96100000000001 129.23999999999978,100.971 C129.47999999999956,100.971 129.67000000000007,101.07000000000005 129.80000000000018,101.26800000000003 C129.9300000000003,101.43499999999995 130.0,101.65899999999999 130.02000000000044,101.94000000000005 C130.44999999999982,101.28399999999999 130.9300000000003,100.96100000000001 131.47999999999956,100.971 C131.6800000000003,100.971 131.8699999999999,101.07000000000005 132.03999999999996,101.26800000000003 C132.1899999999996,101.47699999999998 132.27999999999975,101.71600000000001 132.30000000000018,101.98699999999997 C132.71000000000004,101.29999999999995 133.1800000000003,100.96100000000001 133.71000000000004,100.971 C133.98999999999978,100.971 134.25,101.09400000000005 134.47999999999956,101.33900000000006 C134.72000000000025,101.58299999999997 134.82999999999993,101.86699999999996 134.80000000000018,102.19000000000005 C134.80000000000018,102.23199999999997 134.78999999999996,102.32000000000005 134.77000000000044,102.45600000000002 L134.1300000000001,105.15899999999999 C134.10999999999967,105.17999999999995 134.10999999999967,105.20600000000002 134.1199999999999,105.23699999999997 C134.1199999999999,105.34100000000001 134.14999999999964,105.39300000000003 134.22999999999956,105.39300000000003 C134.35000000000036,105.39300000000003 134.55000000000018,105.28899999999999 134.84000000000015,105.08100000000002 L135.23999999999978,104.75300000000004 C135.32999999999993,104.75300000000004 135.3699999999999,104.78399999999999 135.3699999999999,104.846 C135.3699999999999,104.899 135.35000000000036,104.94000000000005 135.30000000000018,104.971 C134.71000000000004,105.53399999999999 134.3100000000004,105.88300000000004 134.1199999999999,106.01800000000003 C133.75,106.28899999999999 133.39999999999964,106.42499999999995 133.0699999999997,106.42499999999995 C132.85999999999967,106.42499999999995 132.72000000000025,106.36699999999996 132.64999999999964,106.25300000000004 C132.52999999999975,106.15899999999999 132.47000000000025,106.029 132.46000000000004,105.86199999999997 C132.46000000000004,105.79999999999995 132.47000000000025,105.73699999999997 132.48999999999978,105.67499999999995 L133.1800000000003,102.70600000000002 C133.19999999999982,102.62199999999996 133.22000000000025,102.53899999999999 133.22999999999956,102.45600000000002 C133.22999999999956,102.21600000000001 133.15999999999985,102.096 133.02000000000044,102.096 C132.85999999999967,102.096 132.69999999999982,102.16399999999999 132.55000000000018,102.29999999999995 C132.39000000000033,102.42499999999995 132.28999999999996,102.55999999999995 132.27000000000044,102.70600000000002 L131.27000000000044,106.15899999999999 C131.22999999999956,106.28399999999999 131.15999999999985,106.346 131.05000000000018,106.346 L130.01000000000022,106.346 C129.8800000000001,106.346 129.84000000000015,106.28399999999999 129.8800000000001,106.15899999999999 L130.85000000000036,102.70600000000002 C130.89000000000033,102.59100000000001 130.90999999999985,102.49199999999996 130.90999999999985,102.40899999999999 C130.90999999999985,102.20100000000002 130.84000000000015,102.096 130.6800000000003,102.096 C130.51000000000022,102.096 130.3699999999999,102.16399999999999 130.23999999999978,102.29999999999995 C130.10000000000036,102.404 129.98999999999978,102.53899999999999 129.9300000000003,102.70600000000002 L128.76000000000022,106.15899999999999 C128.72000000000025,106.28399999999999 128.64000000000033,106.346 128.52000000000044,106.346 L127.47999999999956,106.346 C127.35999999999967,106.346 127.32999999999993,106.28399999999999 127.38000000000011,106.15899999999999 L128.55000000000018,102.70600000000002 C128.60000000000036,102.55999999999995 128.6199999999999,102.46600000000001 128.6199999999999,102.42499999999995 C128.6199999999999,102.20600000000002 128.52000000000044,102.096 128.34000000000015,102.096 C128.09000000000015,102.096 127.85999999999967,102.26800000000003 127.65999999999985,102.61199999999997 C127.46000000000004,102.93499999999995 127.28999999999996,103.29399999999998 127.18000000000029,103.69000000000005 C127.14000000000033,103.80499999999995 127.05000000000018,103.86199999999997 126.93000000000029,103.86199999999997 C126.85000000000036,103.84100000000001 126.80000000000018,103.80499999999995 126.80000000000018,103.75300000000004 M139.02000000000044,101.26800000000003 L138.0699999999997,104.36199999999997 C137.73999999999978,105.47699999999998 137.1800000000003,106.55499999999995 136.39999999999964,107.596 C135.60999999999967,108.63800000000003 134.80000000000018,109.15899999999999 133.97999999999956,109.15899999999999 C133.55000000000018,109.15899999999999 133.17000000000007,109.04700000000003 132.84000000000015,108.82299999999998 C132.52000000000044,108.59900000000005 132.35000000000036,108.30999999999995 132.35000000000036,107.95600000000002 C132.35000000000036,107.54999999999995 132.4300000000003,107.20600000000002 132.60000000000036,106.92499999999995 C132.77999999999975,106.654 133.02000000000044,106.50800000000004 133.34000000000015,106.48699999999997 C133.5600000000004,106.48699999999997 133.76000000000022,106.57000000000005 133.90999999999985,106.73699999999997 C134.0699999999997,106.904 134.14999999999964,107.096 134.14999999999964,107.31500000000005 C134.14999999999964,107.51300000000003 134.02999999999975,107.69500000000005 133.80000000000018,107.86199999999997 C133.5600000000004,108.00800000000004 133.4399999999996,108.17499999999995 133.4300000000003,108.36199999999997 C133.4300000000003,108.48699999999997 133.5699999999997,108.54999999999995 133.85000000000036,108.54999999999995 L133.97999999999956,108.54999999999995 C134.03999999999996,108.54999999999995 134.1300000000001,108.53399999999999 134.26000000000022,108.50300000000004 C134.32999999999993,108.49199999999996 134.42000000000007,108.45100000000002 134.52000000000044,108.37800000000004 C134.52000000000044,108.37800000000004 134.59000000000015,108.32600000000002 134.71000000000004,108.221 C134.78999999999996,108.10699999999997 134.85000000000036,108.024 134.8699999999999,107.971 C134.90999999999985,107.86699999999996 134.9399999999996,107.78399999999999 134.97999999999956,107.721 C135.02000000000044,107.67999999999995 135.05000000000018,107.57600000000002 135.09000000000015,107.40899999999999 C135.10999999999967,107.36699999999996 135.1199999999999,107.32000000000005 135.1300000000001,107.26800000000003 C135.14000000000033,107.21600000000001 135.14999999999964,107.17999999999995 135.15999999999985,107.15899999999999 C135.17000000000007,107.13800000000003 135.1800000000003,107.12199999999996 135.1800000000003,107.11199999999997 C135.22999999999956,106.904 135.27000000000044,106.779 135.28999999999996,106.73699999999997 C135.32999999999993,106.529 135.35000000000036,106.42499999999995 135.35000000000036,106.42499999999995 L136.6300000000001,101.26800000000003 L135.64999999999964,101.26800000000003 C135.55000000000018,101.26800000000003 135.48999999999978,101.23699999999997 135.4399999999996,101.17499999999995 C135.39000000000033,101.09100000000001 135.3699999999999,101.01800000000003 135.3699999999999,100.95600000000002 C135.3699999999999,100.87199999999996 135.39000000000033,100.79999999999995 135.4399999999996,100.73699999999997 C135.52999999999975,100.67499999999995 135.60000000000036,100.64300000000003 135.64999999999964,100.64300000000003 L136.8199999999997,100.64300000000003 C137.14000000000033,99.66399999999999 137.6800000000003,98.82000000000005 138.4300000000003,98.11199999999997 C139.17000000000007,97.38300000000004 139.97000000000025,97.01800000000003 140.8199999999997,97.01800000000003 C141.27999999999975,97.01800000000003 141.65999999999985,97.13300000000004 141.96000000000004,97.36199999999997 C142.27999999999975,97.58100000000002 142.44999999999982,97.86699999999996 142.46000000000004,98.221 C142.46000000000004,98.60699999999997 142.3800000000001,98.95100000000002 142.21000000000004,99.25300000000004 C142.01000000000022,99.524 141.77000000000044,99.66399999999999 141.47999999999956,99.67499999999995 C141.25,99.67499999999995 141.05000000000018,99.59400000000005 140.89999999999964,99.43200000000002 C140.73999999999978,99.27099999999996 140.65999999999985,99.08100000000002 140.65999999999985,98.86199999999997 C140.65999999999985,98.67499999999995 140.77999999999975,98.50300000000004 141.02000000000044,98.346 C141.26000000000022,98.19000000000005 141.3800000000001,98.01300000000003 141.3699999999999,97.81500000000005 C141.3699999999999,97.66899999999998 141.22999999999956,97.60199999999998 140.96000000000004,97.61199999999997 L140.90999999999985,97.61199999999997 C140.8800000000001,97.63300000000004 140.85000000000036,97.63800000000003 140.8199999999997,97.62800000000004 C140.59000000000015,97.62800000000004 140.39999999999964,97.68499999999995 140.23999999999978,97.79999999999995 C140.09000000000015,97.904 139.9399999999996,98.09100000000001 139.80000000000018,98.36199999999997 C139.76000000000022,98.43499999999995 139.72999999999956,98.50800000000004 139.69999999999982,98.58100000000002 C139.6800000000003,98.654 139.64999999999964,98.73400000000004 139.6199999999999,98.82299999999998 C139.59000000000015,98.91200000000003 139.5600000000004,98.971 139.53999999999996,99.00300000000004 C139.52999999999975,99.06500000000005 139.51000000000022,99.19500000000005 139.47999999999956,99.39300000000003 C139.4300000000003,99.58100000000002 139.39999999999964,99.74199999999996 139.3699999999999,99.87800000000004 C139.27999999999975,100.274 139.22999999999956,100.529 139.1899999999996,100.64300000000003 L140.27000000000044,100.64300000000003 C140.35999999999967,100.64300000000003 140.4300000000003,100.67200000000003 140.5,100.72900000000004 C140.5699999999997,100.78700000000003 140.60000000000036,100.85900000000004 140.60000000000036,100.94799999999998 C140.60000000000036,101.03700000000003 140.5699999999997,101.11199999999997 140.5,101.17499999999995 C140.4300000000003,101.23699999999997 140.35999999999967,101.26800000000003 140.27000000000044,101.26800000000003 L139.02000000000044,101.26800000000003" />
<path d="M199.0600000000004,88.846 L250.09000000000015,88.846 L250.09000000000015,91.346 L199.0600000000004,91.346 L199.0600000000004,88.846" />
<path d="M228.4300000000003,85.096 L250.09000000000015,85.096 L250.09000000000015,87.596 L228.4300000000003,87.596 L228.4300000000003,85.096" />
<path d="M204.98999999999978,17.53200000000004 L256.02000000000044,22.596000000000004 L256.02000000000044,25.096000000000004 L204.98999999999978,20.03200000000004 L204.98999999999978,17.53200000000004" />
<path d="M132.97000000000025,97.596 L162.98999999999978,97.596 L162.98999999999978,100.096 L132.97000000000025,100.096 L132.97000000000025,97.596" />
<path d="M207.72999999999956,32.150999999999954 C207.5,31.92700000000002 207.39000000000033,31.658999999999992 207.39000000000033,31.346000000000004 C207.39000000000033,31.033999999999992 207.5,30.765999999999963 207.72999999999956,30.54200000000003 C207.94999999999982,30.317999999999984 208.22000000000025,30.206000000000017 208.52999999999975,30.206000000000017 C208.84000000000015,30.206000000000017 209.10999999999967,30.317999999999984 209.32999999999993,30.54200000000003 C209.55000000000018,30.765999999999963 209.65999999999985,31.033999999999992 209.65999999999985,31.346000000000004 C209.65999999999985,31.658999999999992 209.55000000000018,31.92700000000002 209.32999999999993,32.150999999999954 C209.10999999999967,32.375 208.84000000000015,32.486999999999966 208.52999999999975,32.486999999999966 C208.22000000000025,32.486999999999966 207.94999999999982,32.375 207.72999999999956,32.150999999999954" />
<polyline points="0.0,13.846000000000004 36.409999999999854,13.846000000000004" fill="none" stroke="#000000" stroke-width="0.40" />
<polyline points="0.0,18.846000000000004 36.409999999999854,18.846000000000004" fill="none" stroke="#000000" stroke-width="0.40" />
<polyline points="0.0,23.846000000000004 36.409999999999854,23.846000000000004" fill="none" stroke="#000000" stroke-width="0.40" />
<polyline points="0.0,28.846000000000004 36.409999999999854,28.846000000000004" fill="none" stroke="#000000" stroke-width="0.40" />
<polyline points="0.0,33.846000000000004 36.409999999999854,33.846000000000004" fill="none" stroke="#000000" stroke-width="0.40" />
<polyline points="0.0,66.346 36.409999999999854,66.346" fill="none" stroke="#000000" stroke-width="0.40" />
<polyline points="0.0,71.346 36.409999999999854,71.346" fill="none" stroke="#000000" stroke-width="0.40" />
<polyline points="0.0,76.346 36.409999999999854,76.346" fill="none" stroke="#000000" stroke-width="0.40" />
<polyline points="0.0,81.346 36.409999999999854,81.346" fill="none" stroke="#000000" stroke-width="0.40" />
<polyline points="0.0,86.346 36.409999999999854,86.346" fill="none" stroke="#000000" stroke-width="0.40" />
<polyline points="36.01000000000022,66.346 36.01000000000022,86.346" fill="" stroke="#000000" stroke-width="0.80" />
<polyline points="36.01000000000022,13.846000000000004 36.01000000000022,33.846000000000004" fill="" stroke="#000000" stroke-width="0.80" />
<polyline points="19.100000000000364,29.785999999999945 19.100000000000364,43.846000000000004" fill="" stroke="#000000" stroke-width="0.65" />
<polyline points="2.2700000000004366,65.90999999999997 2.2700000000004366,97.596" fill="" stroke="#000000" stroke-width="0.65" />
<polyline points="2.2700000000004366,12.285999999999945 2.2700000000004366,43.846000000000004" fill="" stroke="#000000" stroke-width="0.65" />
<polyline points="93.10000000000036,13.846000000000004 255.0,13.846000000000004" fill="none" stroke="#000000" stroke-width="0.40" />
<polyline points="93.10000000000036,18.846000000000004 255.0,18.846000000000004" fill="none" stroke="#000000" stroke-width="0.40" />
<polyline points="93.10000000000036,23.846000000000004 255.0,23.846000000000004" fill="none" stroke="#000000" stroke-width="0.40" />
<polyline points="93.10000000000036,28.846000000000004 255.0,28.846000000000004" fill="none" stroke="#000000" stroke-width="0.40" />
<polyline points="93.10000000000036,33.846000000000004 255.0,33.846000000000004" fill="none" stroke="#000000" stroke-width="0.40" />
<polyline points="93.10000000000036,66.346 255.0,66.346" fill="none" stroke="#000000" stroke-width="0.40" />
<polyline points="93.10000000000036,71.346 255.0,71.346" fill="none" stroke="#000000" stroke-width="0.40" />
<polyline points="93.10000000000036,76.346 255.0,76.346" fill="none" stroke="#000000" stroke-width="0.40" />
<polyline points="93.10000000000036,81.346 255.0,81.346" fill="none" stroke="#000000" stroke-width="0.40" />
<polyline points="93.10000000000036,86.346 255.0,86.346" fill="none" stroke="#000000" stroke-width="0.40" />
<polyline points="93.5,0.0 93.5,86.346" fill="" stroke="#000000" stroke-width="0.80" />
<polyline points="249.77000000000044,74.78599999999994 249.77000000000044,90.096" fill="" stroke="#000000" stroke-width="0.65" />
<polyline points="255.69999999999982,36.861999999999966 255.69999999999982,23.846000000000004" fill="" stroke="#000000" stroke-width="0.65" />
<polyline points="228.75,65.90999999999997 228.75,90.096" fill="" stroke="#000000" stroke-width="0.65" />
<polyline points="199.3800000000001,65.90999999999997 199.3800000000001,90.096" fill="" stroke="#000000" stroke-width="0.65" />
<polyline points="205.3199999999997,32.90700000000004 205.3199999999997,18.846000000000004" fill="" stroke="#000000" stroke-width="0.65" />
<polyline points="162.67000000000007,65.90999999999997 162.67000000000007,98.846" fill="" stroke="#000000" stroke-width="0.65" />
<polyline points="133.30000000000018,65.90999999999997 133.30000000000018,98.846" fill="" stroke="#000000" stroke-width="0.65" />
<polyline points="139.22999999999956,32.90700000000004 139.22999999999956,16.346000000000004" fill="" stroke="#000000" stroke-width="0.65" />
<polyline points="247.9399999999996,38.846000000000004 255.0,38.846000000000004" fill="" stroke="#000000" stroke-width="0.80" />
</svg>
