<?xml version="1.0" encoding="UTF-8" standalone="yes"?>
<svg width="256.0px" height="256.0px" xmlns="http://www.w3.org/2000/svg" xmlns:xlink="http://www.w3.org/1999/xlink" version="1.2" baseProfile="tiny">
<path d="M105.39999999999964,240.594 C109.70000000000073,243.464 122.60000000000036,243.464 126.89999999999964,240.594 C122.60000000000036,244.264 109.70000000000073,244.264 105.39999999999964,240.594" />
<path d="M73.0,235.018 L73.0,236.565 C73.0,237.117 73.10000000000036,237.555 73.10000000000036,237.878 C73.5,237.513 73.79999999999927,237.242 74.0,237.065 C74.20000000000073,236.857 74.39999999999964,236.568 74.70000000000073,236.198 C74.89999999999964,235.828 75.0,235.461 75.0,235.096 C75.0,234.732 74.89999999999964,234.419 74.70000000000073,234.159 C74.60000000000036,233.899 74.39999999999964,233.768 74.10000000000036,233.768 C73.79999999999927,233.768 73.5,233.888 73.29999999999927,234.128 C73.10000000000036,234.388 73.0,234.685 73.0,235.018 M72.20000000000073,238.596 L71.89999999999964,226.706 C72.10000000000036,226.602 72.29999999999927,226.55 72.5,226.55 C72.70000000000073,226.55 72.89999999999964,226.602 73.0,226.706 L72.89999999999964,233.596 C73.39999999999964,233.138 74.0,232.909 74.70000000000073,232.909 C75.20000000000073,232.909 75.60000000000036,233.117 76.0,233.534 C76.29999999999927,233.951 76.5,234.43 76.5,234.971 C76.5,235.305 76.39999999999964,235.664 76.20000000000073,236.05 C76.0,236.393 75.70000000000073,236.664 75.5,236.862 C75.39999999999964,236.966 75.0,237.227 74.5,237.643 C74.39999999999964,237.758 74.20000000000073,237.893 74.0,238.05 C73.70000000000073,238.206 73.60000000000036,238.305 73.60000000000036,238.346 C73.5,238.399 73.39999999999964,238.503 73.29999999999927,238.659 C73.20000000000073,238.794 73.10000000000036,238.904 73.0,238.987 C72.89999999999964,239.07 72.79999999999927,239.112 72.70000000000073,239.112 C72.5,239.112 72.39999999999964,239.065 72.29999999999927,238.971 C72.20000000000073,238.878 72.20000000000073,238.753 72.20000000000073,238.596" />
<path d="M71.79999999999927,177.518 L71.79999999999927,179.065 C71.79999999999927,179.617 71.89999999999964,180.055 71.89999999999964,180.378 C72.39999999999964,180.013 72.70000000000073,179.742 72.79999999999927,179.565 C73.10000000000036,179.357 73.29999999999927,179.068 73.5,178.698 C73.70000000000073,178.328 73.79999999999927,177.961 73.79999999999927,177.596 C73.79999999999927,177.232 73.70000000000073,176.919 73.60000000000036,176.659 C73.39999999999964,176.399 73.20000000000073,176.268 72.89999999999964,176.268 C72.60000000000036,176.268 72.39999999999964,176.388 72.10000000000036,176.628 C71.89999999999964,176.888 71.79999999999927,177.185 71.79999999999927,177.518 M71.0,181.096 L70.79999999999927,169.206 C71.0,169.102 71.10000000000036,169.05 71.29999999999927,169.05 C71.5,169.05 71.70000000000073,169.102 71.89999999999964,169.206 L71.70000000000073,176.096 C72.20000000000073,175.638 72.89999999999964,175.409 73.60000000000036,175.409 C74.10000000000036,175.409 74.5,175.617 74.79999999999927,176.034 C75.10000000000036,176.451 75.29999999999927,176.93 75.29999999999927,177.471 C75.29999999999927,177.805 75.20000000000073,178.164 75.0,178.55 C74.79999999999927,178.893 74.60000000000036,179.164 74.29999999999927,179.362 C74.20000000000073,179.466 73.89999999999964,179.727 73.29999999999927,180.143 C73.20000000000073,180.258 73.0,180.393 72.79999999999927,180.55 C72.60000000000036,180.706 72.39999999999964,180.805 72.39999999999964,180.846 C72.29999999999927,180.899 72.20000000000073,181.003 72.10000000000036,181.159 C72.0,181.294 71.89999999999964,181.404 71.79999999999927,181.487 C71.70000000000073,181.57 71.60000000000036,181.612 71.5,181.612 C71.29999999999927,181.612 71.20000000000073,181.565 71.20000000000073,181.471 C71.10000000000036,181.378 71.0,181.253 71.0,181.096" />
<path d="M71.79999999999927,195.018 L71.79999999999927,196.565 C71.79999999999927,197.117 71.89999999999964,197.555 71.89999999999964,197.878 C72.39999999999964,197.513 72.70000000000073,197.242 72.79999999999927,197.065 C73.10000000000036,196.857 73.29999999999927,196.568 73.5,196.198 C73.70000000000073,195.828 73.79999999999927,195.461 73.79999999999927,195.096 C73.79999999999927,194.732 73.70000000000073,194.419 73.60000000000036,194.159 C73.39999999999964,193.899 73.20000000000073,193.768 72.89999999999964,193.768 C72.60000000000036,193.768 72.39999999999964,193.888 72.10000000000036,194.128 C71.89999999999964,194.388 71.79999999999927,194.685 71.79999999999927,195.018 M71.0,198.596 L70.79999999999927,186.706 C71.0,186.602 71.10000000000036,186.55 71.29999999999927,186.55 C71.5,186.55 71.70000000000073,186.602 71.89999999999964,186.706 L71.70000000000073,193.596 C72.20000000000073,193.138 72.89999999999964,192.909 73.60000000000036,192.909 C74.10000000000036,192.909 74.5,193.117 74.79999999999927,193.534 C75.10000000000036,193.951 75.29999999999927,194.43 75.29999999999927,194.971 C75.29999999999927,195.305 75.20000000000073,195.664 75.0,196.05 C74.79999999999927,196.393 74.60000000000036,196.664 74.29999999999927,196.862 C74.20000000000073,196.966 73.89999999999964,197.227 73.29999999999927,197.643 C73.20000000000073,197.758 73.0,197.893 72.79999999999927,198.05 C72.60000000000036,198.206 72.39999999999964,198.305 72.39999999999964,198.346 C72.29999999999927,198.399 72.20000000000073,198.503 72.10000000000036,198.659 C72.0,198.794 71.89999999999964,198.904 71.79999999999927,198.987 C71.70000000000073,199.07 71.60000000000036,199.112 71.5,199.112 C71.29999999999927,199.112 71.20000000000073,199.065 71.20000000000073,198.971 C71.10000000000036,198.878 71.0,198.753 71.0,198.596" />
<path d="M72.0,95.0183 L72.0,96.5652 C72.0,97.1173 72.10000000000036,97.5548 72.10000000000036,97.8777 C72.5,97.5131 72.79999999999927,97.2423 73.0,97.0652 C73.20000000000073,96.8569 73.39999999999964,96.5678 73.70000000000073,96.198 C73.89999999999964,95.8282 74.0,95.461 74.0,95.0965 C74.0,94.7319 73.89999999999964,94.4194 73.70000000000073,94.159 C73.60000000000036,93.8985 73.39999999999964,93.7683 73.10000000000036,93.7683 C72.79999999999927,93.7683 72.5,93.8881 72.29999999999927,94.1277 C72.10000000000036,94.3881 72.0,94.685 72.0,95.0183 M71.20000000000073,98.5965 L70.89999999999964,86.7058 C71.10000000000036,86.6017 71.29999999999927,86.5496 71.5,86.5496 C71.70000000000073,86.5496 71.89999999999964,86.6017 72.0,86.7058 L71.89999999999964,93.5965 C72.39999999999964,93.1381 73.0,92.909 73.70000000000073,92.909 C74.20000000000073,92.909 74.60000000000036,93.1173 75.0,93.534 C75.29999999999927,93.9506 75.5,94.4298 75.5,94.9715 C75.5,95.3048 75.39999999999964,95.6642 75.20000000000073,96.0496 C75.0,96.3933 74.70000000000073,96.6642 74.5,96.8621 C74.39999999999964,96.9662 74.0,97.2267 73.5,97.6433 C73.39999999999964,97.7579 73.20000000000073,97.8933 73.0,98.0496 C72.70000000000073,98.2058 72.60000000000036,98.3048 72.60000000000036,98.3465 C72.5,98.3985 72.39999999999964,98.5027 72.29999999999927,98.659 C72.20000000000073,98.7944 72.10000000000036,98.9037 72.0,98.9871 C71.89999999999964,99.0704 71.79999999999927,99.1121 71.70000000000073,99.1121 C71.5,99.1121 71.39999999999964,99.0652 71.29999999999927,98.9715 C71.20000000000073,98.8777 71.20000000000073,98.7527 71.20000000000073,98.5965" />
<path d="M73.0,72.5183 L73.0,74.0652 C73.0,74.6173 73.10000000000036,75.0548 73.10000000000036,75.3777 C73.5,75.0131 73.79999999999927,74.7423 74.0,74.5652 C74.20000000000073,74.3569 74.39999999999964,74.0678 74.70000000000073,73.698 C74.89999999999964,73.3282 75.0,72.961 75.0,72.5965 C75.0,72.2319 74.89999999999964,71.9194 74.70000000000073,71.659 C74.60000000000036,71.3985 74.39999999999964,71.2683 74.10000000000036,71.2683 C73.79999999999927,71.2683 73.5,71.3881 73.29999999999927,71.6277 C73.10000000000036,71.8881 73.0,72.185 73.0,72.5183 M72.20000000000073,76.0965 L71.89999999999964,64.2058 C72.10000000000036,64.1017 72.29999999999927,64.0496 72.5,64.0496 C72.70000000000073,64.0496 72.89999999999964,64.1017 73.0,64.2058 L72.89999999999964,71.0965 C73.39999999999964,70.6381 74.0,70.409 74.70000000000073,70.409 C75.20000000000073,70.409 75.60000000000036,70.6173 76.0,71.034 C76.29999999999927,71.4506 76.5,71.9298 76.5,72.4715 C76.5,72.8048 76.39999999999964,73.1642 76.20000000000073,73.5496 C76.0,73.8933 75.70000000000073,74.1642 75.5,74.3621 C75.39999999999964,74.4662 75.0,74.7267 74.5,75.1433 C74.39999999999964,75.2579 74.20000000000073,75.3933 74.0,75.5496 C73.70000000000073,75.7058 73.60000000000036,75.8048 73.60000000000036,75.8465 C73.5,75.8985 73.39999999999964,76.0027 73.29999999999927,76.159 C73.20000000000073,76.2944 73.10000000000036,76.4037 73.0,76.4871 C72.89999999999964,76.5704 72.79999999999927,76.6121 72.70000000000073,76.6121 C72.5,76.6121 72.39999999999964,76.5652 72.29999999999927,76.4715 C72.20000000000073,76.3777 72.20000000000073,76.2527 72.20000000000073,76.0965" />
<path d="M60.70000000000073,247.081 C60.70000000000073,247.331 60.5,247.456 60.29999999999927,247.456 C60.100000000000364,247.456 59.899999999999636,247.331 59.899999999999636,247.081 L59.899999999999636,244.19 L58.29999999999927,244.815 L58.29999999999927,247.971 C58.29999999999927,248.221 58.100000000000364,248.346 57.899999999999636,248.346 C57.600000000000364,248.346 57.5,248.221 57.5,247.971 L57.5,245.065 L56.899999999999636,245.3 C56.899999999999636,245.31 56.79999999999927,245.315 56.70000000000073,245.315 C56.600000000000364,245.315 56.5,245.276 56.5,245.198 C56.399999999999636,245.12 56.399999999999636,245.029 56.399999999999636,244.925 L56.399999999999636,243.721 C56.399999999999636,243.524 56.399999999999636,243.399 56.600000000000364,243.346 L57.5,243.034 L57.5,239.831 L56.899999999999636,240.05 C56.899999999999636,240.06 56.79999999999927,240.065 56.70000000000073,240.065 C56.600000000000364,240.065 56.5,240.026 56.5,239.948 C56.399999999999636,239.87 56.399999999999636,239.779 56.399999999999636,239.675 L56.399999999999636,238.456 C56.399999999999636,238.279 56.399999999999636,238.164 56.600000000000364,238.112 L57.5,237.753 L57.5,234.612 C57.5,234.362 57.600000000000364,234.237 57.899999999999636,234.237 C58.100000000000364,234.237 58.29999999999927,234.362 58.29999999999927,234.612 L58.29999999999927,237.503 L59.899999999999636,236.878 L59.899999999999636,233.721 C59.899999999999636,233.471 60.100000000000364,233.346 60.29999999999927,233.346 C60.5,233.346 60.70000000000073,233.471 60.70000000000073,233.721 L60.70000000000073,236.628 L61.29999999999927,236.393 C61.29999999999927,236.383 61.399999999999636,236.378 61.399999999999636,236.378 C61.5,236.378 61.600000000000364,236.414 61.70000000000073,236.487 C61.79999999999927,236.57 61.899999999999636,236.664 61.899999999999636,236.768 L61.899999999999636,237.971 C61.899999999999636,238.159 61.79999999999927,238.284 61.600000000000364,238.346 L60.70000000000073,238.659 L60.70000000000073,241.862 L61.29999999999927,241.643 C61.29999999999927,241.633 61.399999999999636,241.628 61.399999999999636,241.628 C61.5,241.628 61.600000000000364,241.669 61.70000000000073,241.753 C61.79999999999927,241.826 61.899999999999636,241.914 61.899999999999636,242.018 L61.899999999999636,243.237 C61.899999999999636,243.404 61.79999999999927,243.518 61.600000000000364,243.581 L60.70000000000073,243.94 L60.70000000000073,247.081 M59.899999999999636,238.956 L58.29999999999927,239.534 L58.29999999999927,242.737 L59.899999999999636,242.159 L59.899999999999636,238.956" />
<path d="M17.0,87.5183 L17.0,89.0652 C17.0,89.6173 17.100000000000364,90.0548 17.100000000000364,90.3777 C17.5,90.0131 17.799999999999272,89.7423 18.0,89.5652 C18.200000000000728,89.3569 18.399999999999636,89.0678 18.700000000000728,88.698 C18.899999999999636,88.3282 19.0,87.961 19.0,87.5965 C19.0,87.2319 18.899999999999636,86.9194 18.700000000000728,86.659 C18.600000000000364,86.3985 18.399999999999636,86.2683 18.100000000000364,86.2683 C17.799999999999272,86.2683 17.5,86.3881 17.299999999999272,86.6277 C17.100000000000364,86.8881 17.0,87.185 17.0,87.5183 M16.200000000000728,91.0965 L16.0,79.2058 C16.100000000000364,79.1017 16.299999999999272,79.0496 16.5,79.0496 C16.700000000000728,79.0496 16.899999999999636,79.1017 17.0,79.2058 L16.899999999999636,86.0965 C17.399999999999636,85.6381 18.0,85.409 18.700000000000728,85.409 C19.200000000000728,85.409 19.700000000000728,85.6173 20.0,86.034 C20.299999999999272,86.4506 20.5,86.9298 20.5,87.4715 C20.5,87.8048 20.399999999999636,88.1642 20.200000000000728,88.5496 C20.0,88.8933 19.700000000000728,89.1642 19.5,89.3621 C19.399999999999636,89.4662 19.0,89.7267 18.5,90.1433 C18.399999999999636,90.2579 18.200000000000728,90.3933 18.0,90.5496 C17.700000000000728,90.7058 17.600000000000364,90.8048 17.600000000000364,90.8465 C17.5,90.8985 17.399999999999636,91.0027 17.299999999999272,91.159 C17.200000000000728,91.2944 17.100000000000364,91.4037 17.0,91.4871 C16.899999999999636,91.5704 16.799999999999272,91.6121 16.700000000000728,91.6121 C16.5,91.6121 16.399999999999636,91.5652 16.299999999999272,91.4715 C16.299999999999272,91.3777 16.200000000000728,91.2527 16.200000000000728,91.0965" />
<path d="M18.0,65.0183 L18.0,66.5652 C18.0,67.1173 18.100000000000364,67.5548 18.100000000000364,67.8777 C18.5,67.5131 18.799999999999272,67.2423 19.0,67.0652 C19.200000000000728,66.8569 19.399999999999636,66.5678 19.700000000000728,66.198 C19.899999999999636,65.8282 20.0,65.461 20.0,65.0965 C20.0,64.7319 19.899999999999636,64.4194 19.700000000000728,64.159 C19.600000000000364,63.8985 19.399999999999636,63.7683 19.100000000000364,63.7683 C18.799999999999272,63.7683 18.5,63.8881 18.299999999999272,64.1277 C18.100000000000364,64.3881 18.0,64.685 18.0,65.0183 M17.200000000000728,68.5965 L17.0,56.7058 C17.100000000000364,56.6017 17.299999999999272,56.5496 17.5,56.5496 C17.700000000000728,56.5496 17.899999999999636,56.6017 18.0,56.7058 L17.899999999999636,63.5965 C18.399999999999636,63.1381 19.0,62.909 19.700000000000728,62.909 C20.200000000000728,62.909 20.700000000000728,63.1173 21.0,63.534 C21.299999999999272,63.9506 21.5,64.4298 21.5,64.9715 C21.5,65.3048 21.399999999999636,65.6642 21.200000000000728,66.0496 C21.0,66.3933 20.700000000000728,66.6642 20.5,66.8621 C20.399999999999636,66.9662 20.0,67.2267 19.5,67.6433 C19.399999999999636,67.7579 19.200000000000728,67.8933 19.0,68.0496 C18.700000000000728,68.2058 18.600000000000364,68.3048 18.600000000000364,68.3465 C18.5,68.3985 18.399999999999636,68.5027 18.299999999999272,68.659 C18.200000000000728,68.7944 18.100000000000364,68.9037 18.0,68.9871 C17.899999999999636,69.0704 17.799999999999272,69.1121 17.700000000000728,69.1121 C17.5,69.1121 17.399999999999636,69.0652 17.299999999999272,68.9715 C17.299999999999272,68.8777 17.200000000000728,68.7527 17.200000000000728,68.5965" />
<path d="M158.39999999999964,233.096 C159.0,233.096 159.5,233.258 160.0,233.581 C160.39999999999964,233.935 160.60000000000036,234.378 160.60000000000036,234.909 C160.60000000000036,235.805 160.10000000000036,236.643 159.20000000000073,237.425 C158.20000000000073,238.206 157.20000000000073,238.596 156.20000000000073,238.596 C155.5,238.596 155.0,238.435 154.60000000000036,238.112 C154.20000000000073,237.758 154.0,237.315 154.0,236.784 C154.0,235.888 154.39999999999964,235.05 155.39999999999964,234.268 C156.29999999999927,233.487 157.29999999999927,233.096 158.39999999999964,233.096" />
<path d="M158.39999999999964,100.596 C159.0,100.596 159.5,100.758 160.0,101.081 C160.39999999999964,101.435 160.60000000000036,101.878 160.60000000000036,102.409 C160.60000000000036,103.305 160.10000000000036,104.143 159.20000000000073,104.925 C158.20000000000073,105.706 157.20000000000073,106.096 156.20000000000073,106.096 C155.5,106.096 155.0,105.935 154.60000000000036,105.612 C154.20000000000073,105.258 154.0,104.815 154.0,104.284 C154.0,103.388 154.39999999999964,102.55 155.39999999999964,101.768 C156.29999999999927,100.987 157.29999999999927,100.596 158.39999999999964,100.596" />
<path d="M158.39999999999964,78.0965 C159.0,78.0965 159.5,78.2579 160.0,78.5808 C160.39999999999964,78.935 160.60000000000036,79.3777 160.60000000000036,79.909 C160.60000000000036,80.8048 160.10000000000036,81.6433 159.20000000000073,82.4246 C158.20000000000073,83.2058 157.20000000000073,83.5965 156.20000000000073,83.5965 C155.5,83.5965 155.0,83.435 154.60000000000036,83.1121 C154.20000000000073,82.7579 154.0,82.3152 154.0,81.784 C154.0,80.8881 154.39999999999964,80.0496 155.39999999999964,79.2683 C156.29999999999927,78.4871 157.29999999999927,78.0965 158.39999999999964,78.0965" />
<path d="M143.70000000000073,238.096 C144.29999999999927,238.096 144.79999999999927,238.258 145.29999999999927,238.581 C145.70000000000073,238.935 145.89999999999964,239.378 145.89999999999964,239.909 C145.89999999999964,240.805 145.39999999999964,241.643 144.5,242.425 C143.60000000000036,243.206 142.60000000000036,243.596 141.5,243.596 C140.89999999999964,243.596 140.29999999999927,243.435 139.89999999999964,243.112 C139.5,242.758 139.29999999999927,242.315 139.29999999999927,241.784 C139.29999999999927,240.888 139.79999999999927,240.05 140.70000000000073,239.268 C141.60000000000036,238.487 142.60000000000036,238.096 143.70000000000073,238.096" />
<path d="M129.0,233.096 C129.60000000000036,233.096 130.20000000000073,233.258 130.60000000000036,233.581 C131.0,233.935 131.20000000000073,234.378 131.20000000000073,234.909 C131.20000000000073,235.805 130.70000000000073,236.643 129.79999999999927,237.425 C128.89999999999964,238.206 127.89999999999964,238.596 126.79999999999927,238.596 C126.20000000000073,238.596 125.70000000000073,238.435 125.20000000000073,238.112 C124.79999999999927,237.758 124.60000000000036,237.315 124.60000000000036,236.784 C124.60000000000036,235.888 125.10000000000036,235.05 126.0,234.268 C126.89999999999964,233.487 127.89999999999964,233.096 129.0,233.096" />
<path d="M129.0,93.0965 C129.60000000000036,93.0965 130.20000000000073,93.2579 130.60000000000036,93.5808 C131.0,93.935 131.20000000000073,94.3777 131.20000000000073,94.909 C131.20000000000073,95.8048 130.70000000000073,96.6433 129.79999999999927,97.4246 C128.89999999999964,98.2058 127.89999999999964,98.5965 126.79999999999927,98.5965 C126.20000000000073,98.5965 125.70000000000073,98.435 125.20000000000073,98.1121 C124.79999999999927,97.7579 124.60000000000036,97.3152 124.60000000000036,96.784 C124.60000000000036,95.8881 125.10000000000036,95.0496 126.0,94.2683 C126.89999999999964,93.4871 127.89999999999964,93.0965 129.0,93.0965" />
<path d="M129.0,70.5965 C129.60000000000036,70.5965 130.20000000000073,70.7579 130.60000000000036,71.0808 C131.0,71.435 131.20000000000073,71.8777 131.20000000000073,72.409 C131.20000000000073,73.3048 130.70000000000073,74.1433 129.79999999999927,74.9246 C128.89999999999964,75.7058 127.89999999999964,76.0965 126.79999999999927,76.0965 C126.20000000000073,76.0965 125.70000000000073,75.935 125.20000000000073,75.6121 C124.79999999999927,75.2579 124.60000000000036,74.8152 124.60000000000036,74.284 C124.60000000000036,73.3881 125.10000000000036,72.5496 126.0,71.7683 C126.89999999999964,70.9871 127.89999999999964,70.5965 129.0,70.5965" />
<path d="M105.5,233.096 C106.10000000000036,233.096 106.70000000000073,233.258 107.10000000000036,233.581 C107.5,233.935 107.70000000000073,234.378 107.70000000000073,234.909 C107.70000000000073,235.805 107.20000000000073,236.643 106.29999999999927,237.425 C105.39999999999964,238.206 104.39999999999964,238.596 103.29999999999927,238.596 C102.70000000000073,238.596 102.20000000000073,238.435 101.70000000000073,238.112 C101.29999999999927,237.758 101.10000000000036,237.315 101.10000000000036,236.784 C101.10000000000036,235.888 101.60000000000036,235.05 102.5,234.268 C103.5,233.487 104.39999999999964,233.096 105.5,233.096" />
<path d="M82.0,233.096 C82.70000000000073,233.096 83.20000000000073,233.258 83.60000000000036,233.581 C84.0,233.935 84.20000000000073,234.378 84.20000000000073,234.909 C84.20000000000073,235.805 83.79999999999927,236.643 82.79999999999927,237.425 C81.89999999999964,238.206 80.89999999999964,238.596 79.79999999999927,238.596 C79.20000000000073,238.596 78.70000000000073,238.435 78.20000000000073,238.112 C77.79999999999927,237.758 77.60000000000036,237.315 77.60000000000036,236.784 C77.60000000000036,235.888 78.10000000000036,235.05 79.0,234.268 C80.0,233.487 81.0,233.096 82.0,233.096" />
<path d="M83.79999999999927,172.034 C83.79999999999927,171.815 83.70000000000073,171.628 83.5,171.471 C83.29999999999927,171.305 83.10000000000036,171.221 82.89999999999964,171.221 C82.5,171.221 81.79999999999927,171.612 80.60000000000036,172.393 C79.29999999999927,173.185 78.60000000000036,173.753 78.29999999999927,174.096 C78.20000000000073,174.274 78.10000000000036,174.461 78.10000000000036,174.659 C78.10000000000036,174.878 78.20000000000073,175.065 78.39999999999964,175.221 C78.5,175.388 78.70000000000073,175.471 78.89999999999964,175.471 C79.29999999999927,175.471 80.10000000000036,175.081 81.29999999999927,174.3 C82.5,173.518 83.29999999999927,172.951 83.60000000000036,172.596 C83.70000000000073,172.43 83.79999999999927,172.242 83.79999999999927,172.034 M82.70000000000073,170.596 C83.89999999999964,170.596 84.39999999999964,171.076 84.39999999999964,172.034 C84.39999999999964,172.503 84.29999999999927,173.05 84.0,173.675 C83.70000000000073,174.289 83.39999999999964,174.758 82.89999999999964,175.081 C81.89999999999964,175.758 80.70000000000073,176.096 79.10000000000036,176.096 C78.0,176.096 77.5,175.617 77.5,174.659 C77.5,174.232 77.60000000000036,173.69 77.89999999999964,173.034 C78.10000000000036,172.409 78.5,171.935 79.0,171.612 C80.0,170.935 81.20000000000073,170.596 82.70000000000073,170.596" />
<path d="M83.79999999999927,177.034 C83.79999999999927,176.815 83.70000000000073,176.628 83.5,176.471 C83.29999999999927,176.305 83.10000000000036,176.221 82.89999999999964,176.221 C82.5,176.221 81.79999999999927,176.612 80.60000000000036,177.393 C79.29999999999927,178.185 78.60000000000036,178.753 78.29999999999927,179.096 C78.20000000000073,179.274 78.10000000000036,179.461 78.10000000000036,179.659 C78.10000000000036,179.878 78.20000000000073,180.065 78.39999999999964,180.221 C78.5,180.388 78.70000000000073,180.471 78.89999999999964,180.471 C79.29999999999927,180.471 80.10000000000036,180.081 81.29999999999927,179.3 C82.5,178.518 83.29999999999927,177.951 83.60000000000036,177.596 C83.70000000000073,177.43 83.79999999999927,177.242 83.79999999999927,177.034 M82.70000000000073,175.596 C83.89999999999964,175.596 84.39999999999964,176.076 84.39999999999964,177.034 C84.39999999999964,177.503 84.29999999999927,178.05 84.0,178.675 C83.70000000000073,179.289 83.39999999999964,179.758 82.89999999999964,180.081 C81.89999999999964,180.758 80.70000000000073,181.096 79.10000000000036,181.096 C78.0,181.096 77.5,180.617 77.5,179.659 C77.5,179.232 77.60000000000036,178.69 77.89999999999964,178.034 C78.10000000000036,177.409 78.5,176.935 79.0,176.612 C80.0,175.935 81.20000000000073,175.596 82.70000000000073,175.596" />
<path d="M83.79999999999927,184.534 C83.79999999999927,184.315 83.70000000000073,184.128 83.5,183.971 C83.29999999999927,183.805 83.10000000000036,183.721 82.89999999999964,183.721 C82.5,183.721 81.79999999999927,184.112 80.60000000000036,184.893 C79.29999999999927,185.685 78.60000000000036,186.253 78.29999999999927,186.596 C78.20000000000073,186.774 78.10000000000036,186.961 78.10000000000036,187.159 C78.10000000000036,187.378 78.20000000000073,187.565 78.39999999999964,187.721 C78.5,187.888 78.70000000000073,187.971 78.89999999999964,187.971 C79.29999999999927,187.971 80.10000000000036,187.581 81.29999999999927,186.8 C82.5,186.018 83.29999999999927,185.451 83.60000000000036,185.096 C83.70000000000073,184.93 83.79999999999927,184.742 83.79999999999927,184.534 M82.70000000000073,183.096 C83.89999999999964,183.096 84.39999999999964,183.576 84.39999999999964,184.534 C84.39999999999964,185.003 84.29999999999927,185.55 84.0,186.175 C83.70000000000073,186.789 83.39999999999964,187.258 82.89999999999964,187.581 C81.89999999999964,188.258 80.70000000000073,188.596 79.10000000000036,188.596 C78.0,188.596 77.5,188.117 77.5,187.159 C77.5,186.732 77.60000000000036,186.19 77.89999999999964,185.534 C78.10000000000036,184.909 78.5,184.435 79.0,184.112 C80.0,183.435 81.20000000000073,183.096 82.70000000000073,183.096" />
<path d="M83.79999999999927,194.534 C83.79999999999927,194.315 83.70000000000073,194.128 83.5,193.971 C83.29999999999927,193.805 83.10000000000036,193.721 82.89999999999964,193.721 C82.5,193.721 81.79999999999927,194.112 80.60000000000036,194.893 C79.29999999999927,195.685 78.60000000000036,196.253 78.29999999999927,196.596 C78.20000000000073,196.774 78.10000000000036,196.961 78.10000000000036,197.159 C78.10000000000036,197.378 78.20000000000073,197.565 78.39999999999964,197.721 C78.5,197.888 78.70000000000073,197.971 78.89999999999964,197.971 C79.29999999999927,197.971 80.10000000000036,197.581 81.29999999999927,196.8 C82.5,196.018 83.29999999999927,195.451 83.60000000000036,195.096 C83.70000000000073,194.93 83.79999999999927,194.742 83.79999999999927,194.534 M82.70000000000073,193.096 C83.89999999999964,193.096 84.39999999999964,193.576 84.39999999999964,194.534 C84.39999999999964,195.003 84.29999999999927,195.55 84.0,196.175 C83.70000000000073,196.789 83.39999999999964,197.258 82.89999999999964,197.581 C81.89999999999964,198.258 80.70000000000073,198.596 79.10000000000036,198.596 C78.0,198.596 77.5,198.117 77.5,197.159 C77.5,196.732 77.60000000000036,196.19 77.89999999999964,195.534 C78.10000000000036,194.909 78.5,194.435 79.0,194.112 C80.0,193.435 81.20000000000073,193.096 82.70000000000073,193.096" />
<path d="M82.0,93.0965 C82.70000000000073,93.0965 83.20000000000073,93.2579 83.60000000000036,93.5808 C84.0,93.935 84.20000000000073,94.3777 84.20000000000073,94.909 C84.20000000000073,95.8048 83.79999999999927,96.6433 82.79999999999927,97.4246 C81.89999999999964,98.2058 80.89999999999964,98.5965 79.79999999999927,98.5965 C79.20000000000073,98.5965 78.70000000000073,98.435 78.20000000000073,98.1121 C77.79999999999927,97.7579 77.60000000000036,97.3152 77.60000000000036,96.784 C77.60000000000036,95.8881 78.10000000000036,95.0496 79.0,94.2683 C80.0,93.4871 81.0,93.0965 82.0,93.0965" />
<path d="M82.0,70.5965 C82.70000000000073,70.5965 83.20000000000073,70.7579 83.60000000000036,71.0808 C84.0,71.435 84.20000000000073,71.8777 84.20000000000073,72.409 C84.20000000000073,73.3048 83.79999999999927,74.1433 82.79999999999927,74.9246 C81.89999999999964,75.7058 80.89999999999964,76.0965 79.79999999999927,76.0965 C79.20000000000073,76.0965 78.70000000000073,75.935 78.20000000000073,75.6121 C77.79999999999927,75.2579 77.60000000000036,74.8152 77.60000000000036,74.284 C77.60000000000036,73.3881 78.10000000000036,72.5496 79.0,71.7683 C80.0,70.9871 81.0,70.5965 82.0,70.5965" />
<path d="M67.29999999999927,238.096 C68.0,238.096 68.5,238.258 68.89999999999964,238.581 C69.29999999999927,238.935 69.5,239.378 69.5,239.909 C69.5,240.805 69.10000000000036,241.643 68.20000000000073,242.425 C67.20000000000073,243.206 66.20000000000073,243.596 65.10000000000036,243.596 C64.5,243.596 64.0,243.435 63.600000000000364,243.112 C63.20000000000073,242.758 63.0,242.315 63.0,241.784 C63.0,240.888 63.399999999999636,240.05 64.39999999999964,239.268 C65.29999999999927,238.487 66.29999999999927,238.096 67.29999999999927,238.096" />
<path d="M39.70000000000073,100.596 C40.399999999999636,100.596 40.899999999999636,100.758 41.29999999999927,101.081 C41.70000000000073,101.435 41.899999999999636,101.878 41.899999999999636,102.409 C41.899999999999636,103.305 41.5,104.143 40.600000000000364,104.925 C39.600000000000364,105.706 38.600000000000364,106.096 37.5,106.096 C36.899999999999636,106.096 36.399999999999636,105.935 36.0,105.612 C35.600000000000364,105.258 35.399999999999636,104.815 35.399999999999636,104.284 C35.399999999999636,103.388 35.79999999999927,102.55 36.79999999999927,101.768 C37.70000000000073,100.987 38.70000000000073,100.596 39.70000000000073,100.596" />
<path d="M52.70000000000073,98.0965 C53.29999999999927,98.0965 53.79999999999927,98.2579 54.29999999999927,98.5808 C54.70000000000073,98.935 54.899999999999636,99.3777 54.899999999999636,99.909 C54.899999999999636,100.805 54.399999999999636,101.643 53.5,102.425 C52.5,103.206 51.5,103.596 50.5,103.596 C49.79999999999927,103.596 49.29999999999927,103.435 48.899999999999636,103.112 C48.5,102.758 48.29999999999927,102.315 48.29999999999927,101.784 C48.29999999999927,100.888 48.70000000000073,100.05 49.70000000000073,99.2683 C50.600000000000364,98.4871 51.600000000000364,98.0965 52.70000000000073,98.0965" />
<path d="M43.399999999999636,78.0965 C44.100000000000364,78.0965 44.600000000000364,78.2579 45.0,78.5808 C45.399999999999636,78.935 45.600000000000364,79.3777 45.600000000000364,79.909 C45.600000000000364,80.8048 45.20000000000073,81.6433 44.29999999999927,82.4246 C43.29999999999927,83.2058 42.29999999999927,83.5965 41.20000000000073,83.5965 C40.600000000000364,83.5965 40.100000000000364,83.435 39.70000000000073,83.1121 C39.29999999999927,82.7579 39.100000000000364,82.3152 39.100000000000364,81.784 C39.100000000000364,80.8881 39.5,80.0496 40.5,79.2683 C41.399999999999636,78.4871 42.399999999999636,78.0965 43.399999999999636,78.0965" />
<path d="M52.70000000000073,75.5965 C53.29999999999927,75.5965 53.79999999999927,75.7579 54.29999999999927,76.0808 C54.70000000000073,76.435 54.899999999999636,76.8777 54.899999999999636,77.409 C54.899999999999636,78.3048 54.399999999999636,79.1433 53.5,79.9246 C52.5,80.7058 51.5,81.0965 50.5,81.0965 C49.79999999999927,81.0965 49.29999999999927,80.935 48.899999999999636,80.6121 C48.5,80.2579 48.29999999999927,79.8152 48.29999999999927,79.284 C48.29999999999927,78.3881 48.70000000000073,77.5496 49.70000000000073,76.7683 C50.600000000000364,75.9871 51.600000000000364,75.5965 52.70000000000073,75.5965" />
<path d="M27.0,85.5965 C27.700000000000728,85.5965 28.200000000000728,85.7579 28.600000000000364,86.0808 C29.0,86.435 29.200000000000728,86.8777 29.200000000000728,87.409 C29.200000000000728,88.3048 28.799999999999272,89.1433 27.799999999999272,89.9246 C26.899999999999636,90.7058 25.899999999999636,91.0965 24.799999999999272,91.0965 C24.200000000000728,91.0965 23.700000000000728,90.935 23.299999999999272,90.6121 C22.799999999999272,90.2579 22.600000000000364,89.8152 22.600000000000364,89.284 C22.600000000000364,88.3881 23.100000000000364,87.5496 24.100000000000364,86.7683 C25.0,85.9871 26.0,85.5965 27.0,85.5965" />
<path d="M27.0,63.0965 C27.700000000000728,63.0965 28.200000000000728,63.2579 28.600000000000364,63.5808 C29.0,63.935 29.200000000000728,64.3777 29.200000000000728,64.909 C29.200000000000728,65.8048 28.799999999999272,66.6433 27.799999999999272,67.4246 C26.899999999999636,68.2058 25.899999999999636,68.5965 24.799999999999272,68.5965 C24.200000000000728,68.5965 23.700000000000728,68.435 23.299999999999272,68.1121 C22.799999999999272,67.7579 22.600000000000364,67.3152 22.600000000000364,66.784 C22.600000000000364,65.8881 23.100000000000364,65.0496 24.100000000000364,64.2683 C25.0,63.4871 26.0,63.0965 27.0,63.0965" />
<path d="M11.600000000000364,230.596 C12.200000000000728,230.596 12.700000000000728,230.758 13.200000000000728,231.081 C13.600000000000364,231.435 13.799999999999272,231.878 13.799999999999272,232.409 C13.799999999999272,233.305 13.299999999999272,234.143 12.399999999999636,234.925 C11.399999999999636,235.706 10.399999999999636,236.096 9.399999999999636,236.096 C8.700000000000728,236.096 8.200000000000728,235.935 7.799999999999272,235.612 C7.399999999999636,235.258 7.200000000000728,234.815 7.200000000000728,234.284 C7.200000000000728,233.388 7.600000000000364,232.55 8.600000000000364,231.768 C9.5,230.987 10.5,230.596 11.600000000000364,230.596" />
<path d="M11.600000000000364,83.0965 C12.200000000000728,83.0965 12.700000000000728,83.2579 13.200000000000728,83.5808 C13.600000000000364,83.935 13.799999999999272,84.3777 13.799999999999272,84.909 C13.799999999999272,85.8048 13.299999999999272,86.6433 12.399999999999636,87.4246 C11.399999999999636,88.2058 10.399999999999636,88.5965 9.399999999999636,88.5965 C8.700000000000728,88.5965 8.200000000000728,88.435 7.799999999999272,88.1121 C7.399999999999636,87.7579 7.200000000000728,87.3152 7.200000000000728,86.784 C7.200000000000728,85.8881 7.600000000000364,85.0496 8.600000000000364,84.2683 C9.5,83.4871 10.5,83.0965 11.600000000000364,83.0965" />
<path d="M11.600000000000364,60.5965 C12.200000000000728,60.5965 12.700000000000728,60.7579 13.200000000000728,61.0808 C13.600000000000364,61.435 13.799999999999272,61.8777 13.799999999999272,62.409 C13.799999999999272,63.3048 13.299999999999272,64.1433 12.399999999999636,64.9246 C11.399999999999636,65.7058 10.399999999999636,66.0965 9.399999999999636,66.0965 C8.700000000000728,66.0965 8.200000000000728,65.935 7.799999999999272,65.6121 C7.399999999999636,65.2579 7.200000000000728,64.8152 7.200000000000728,64.284 C7.200000000000728,63.3881 7.600000000000364,62.5496 8.600000000000364,61.7683 C9.5,60.9871 10.5,60.5965 11.600000000000364,60.5965" />
<path d="M42.100000000000364,153.253 L42.100000000000364,153.221 C42.100000000000364,153.201 42.20000000000073,153.164 42.20000000000073,153.112 C42.20000000000073,153.06 42.20000000000073,153.003 42.20000000000073,152.94 C42.399999999999636,152.43 42.70000000000073,151.93 43.0,151.44 C43.5,150.784 44.0,150.461 44.5,150.471 C44.79999999999927,150.471 45.0,150.57 45.100000000000364,150.768 C45.20000000000073,150.935 45.29999999999927,151.159 45.29999999999927,151.44 C45.79999999999927,150.784 46.20000000000073,150.461 46.79999999999927,150.471 C47.0,150.471 47.20000000000073,150.57 47.29999999999927,150.768 C47.5,150.977 47.600000000000364,151.216 47.600000000000364,151.487 C48.0,150.8 48.5,150.461 49.0,150.471 C49.29999999999927,150.471 49.600000000000364,150.594 49.79999999999927,150.839 C50.0,151.083 50.100000000000364,151.367 50.100000000000364,151.69 C50.100000000000364,151.732 50.100000000000364,151.82 50.100000000000364,151.956 L49.399999999999636,154.659 C49.399999999999636,154.68 49.399999999999636,154.706 49.399999999999636,154.737 C49.399999999999636,154.841 49.5,154.893 49.5,154.893 C49.70000000000073,154.893 49.899999999999636,154.789 50.100000000000364,154.581 L50.5,154.253 C50.600000000000364,154.253 50.70000000000073,154.284 50.70000000000073,154.346 C50.70000000000073,154.399 50.70000000000073,154.44 50.600000000000364,154.471 C50.0,155.034 49.600000000000364,155.383 49.399999999999636,155.518 C49.100000000000364,155.789 48.70000000000073,155.925 48.399999999999636,155.925 C48.20000000000073,155.925 48.0,155.867 48.0,155.753 C47.79999999999927,155.659 47.79999999999927,155.529 47.79999999999927,155.362 C47.79999999999927,155.3 47.79999999999927,155.237 47.79999999999927,155.175 L48.5,152.206 C48.5,152.122 48.5,152.039 48.5,151.956 C48.5,151.716 48.5,151.596 48.29999999999927,151.596 C48.20000000000073,151.596 48.0,151.664 47.899999999999636,151.8 C47.70000000000073,151.925 47.600000000000364,152.06 47.600000000000364,152.206 L46.600000000000364,155.659 C46.5,155.784 46.5,155.846 46.399999999999636,155.846 L45.29999999999927,155.846 C45.20000000000073,155.846 45.100000000000364,155.784 45.20000000000073,155.659 L46.20000000000073,152.206 C46.20000000000073,152.091 46.20000000000073,151.992 46.20000000000073,151.909 C46.20000000000073,151.701 46.100000000000364,151.596 46.0,151.596 C45.79999999999927,151.596 45.70000000000073,151.664 45.5,151.8 C45.399999999999636,151.904 45.29999999999927,152.039 45.20000000000073,152.206 L44.100000000000364,155.659 C44.0,155.784 43.899999999999636,155.846 43.79999999999927,155.846 L42.79999999999927,155.846 C42.70000000000073,155.846 42.600000000000364,155.784 42.70000000000073,155.659 L43.899999999999636,152.206 C43.899999999999636,152.06 43.899999999999636,151.966 43.899999999999636,151.925 C43.899999999999636,151.706 43.79999999999927,151.596 43.600000000000364,151.596 C43.399999999999636,151.596 43.20000000000073,151.768 43.0,152.112 C42.79999999999927,152.435 42.600000000000364,152.794 42.5,153.19 C42.399999999999636,153.305 42.399999999999636,153.362 42.20000000000073,153.362 C42.20000000000073,153.341 42.100000000000364,153.305 42.100000000000364,153.253 M54.29999999999927,150.768 L53.399999999999636,153.862 C53.0,154.977 52.5,156.055 51.70000000000073,157.096 C50.899999999999636,158.138 50.100000000000364,158.659 49.29999999999927,158.659 C48.899999999999636,158.659 48.5,158.547 48.20000000000073,158.323 C47.79999999999927,158.099 47.70000000000073,157.81 47.70000000000073,157.456 C47.70000000000073,157.05 47.70000000000073,156.706 47.899999999999636,156.425 C48.100000000000364,156.154 48.29999999999927,156.008 48.600000000000364,155.987 C48.899999999999636,155.987 49.100000000000364,156.07 49.20000000000073,156.237 C49.399999999999636,156.404 49.5,156.596 49.5,156.815 C49.5,157.013 49.29999999999927,157.195 49.100000000000364,157.362 C48.899999999999636,157.508 48.70000000000073,157.675 48.70000000000073,157.862 C48.70000000000073,157.987 48.899999999999636,158.05 49.20000000000073,158.05 L49.29999999999927,158.05 C49.29999999999927,158.05 49.399999999999636,158.034 49.600000000000364,158.003 C49.600000000000364,157.992 49.70000000000073,157.951 49.79999999999927,157.878 C49.79999999999927,157.878 49.899999999999636,157.826 50.0,157.721 C50.100000000000364,157.607 50.20000000000073,157.524 50.20000000000073,157.471 C50.20000000000073,157.367 50.29999999999927,157.284 50.29999999999927,157.221 C50.29999999999927,157.18 50.399999999999636,157.076 50.399999999999636,156.909 C50.399999999999636,156.867 50.399999999999636,156.82 50.399999999999636,156.768 C50.5,156.716 50.5,156.68 50.5,156.659 C50.5,156.638 50.5,156.622 50.5,156.612 C50.5,156.404 50.600000000000364,156.279 50.600000000000364,156.237 C50.600000000000364,156.029 50.70000000000073,155.925 50.70000000000073,155.925 L51.899999999999636,150.768 L51.0,150.768 C50.899999999999636,150.768 50.79999999999927,150.737 50.79999999999927,150.675 C50.70000000000073,150.591 50.70000000000073,150.518 50.70000000000073,150.456 C50.70000000000073,150.372 50.70000000000073,150.3 50.79999999999927,150.237 C50.79999999999927,150.175 50.899999999999636,150.143 51.0,150.143 L52.100000000000364,150.143 C52.5,149.164 53.0,148.32 53.70000000000073,147.612 C54.5,146.883 55.29999999999927,146.518 56.100000000000364,146.518 C56.600000000000364,146.518 57.0,146.633 57.29999999999927,146.862 C57.600000000000364,147.081 57.79999999999927,147.367 57.79999999999927,147.721 C57.79999999999927,148.107 57.70000000000073,148.451 57.5,148.753 C57.29999999999927,149.024 57.100000000000364,149.164 56.79999999999927,149.175 C56.600000000000364,149.175 56.399999999999636,149.094 56.20000000000073,148.932 C56.0,148.771 56.0,148.581 56.0,148.362 C56.0,148.175 56.100000000000364,148.003 56.29999999999927,147.846 C56.600000000000364,147.69 56.70000000000073,147.513 56.70000000000073,147.315 C56.70000000000073,147.169 56.5,147.102 56.29999999999927,147.112 L56.20000000000073,147.112 C56.20000000000073,147.133 56.20000000000073,147.138 56.100000000000364,147.128 C55.899999999999636,147.128 55.70000000000073,147.185 55.5,147.3 C55.399999999999636,147.404 55.20000000000073,147.591 55.100000000000364,147.862 C55.100000000000364,147.935 55.0,148.008 55.0,148.081 C55.0,148.154 55.0,148.234 54.899999999999636,148.323 C54.899999999999636,148.412 54.899999999999636,148.471 54.79999999999927,148.503 C54.79999999999927,148.565 54.79999999999927,148.695 54.79999999999927,148.893 C54.70000000000073,149.081 54.70000000000073,149.242 54.70000000000073,149.378 C54.600000000000364,149.774 54.5,150.029 54.5,150.143 L55.600000000000364,150.143 C55.70000000000073,150.143 55.70000000000073,150.172 55.79999999999927,150.229 C55.899999999999636,150.287 55.899999999999636,150.359 55.899999999999636,150.448 C55.899999999999636,150.537 55.899999999999636,150.612 55.79999999999927,150.675 C55.70000000000073,150.737 55.70000000000073,150.768 55.600000000000364,150.768 L54.29999999999927,150.768" />
<path d="M42.100000000000364,100.753 L42.100000000000364,100.721 C42.100000000000364,100.701 42.20000000000073,100.664 42.20000000000073,100.612 C42.20000000000073,100.56 42.20000000000073,100.503 42.20000000000073,100.44 C42.399999999999636,99.9298 42.70000000000073,99.4298 43.0,98.9402 C43.5,98.284 44.0,97.961 44.5,97.9715 C44.79999999999927,97.9715 45.0,98.0704 45.100000000000364,98.2683 C45.20000000000073,98.435 45.29999999999927,98.659 45.29999999999927,98.9402 C45.79999999999927,98.284 46.20000000000073,97.961 46.79999999999927,97.9715 C47.0,97.9715 47.20000000000073,98.0704 47.29999999999927,98.2683 C47.5,98.4767 47.600000000000364,98.7162 47.600000000000364,98.9871 C48.0,98.2996 48.5,97.961 49.0,97.9715 C49.29999999999927,97.9715 49.600000000000364,98.0939 49.79999999999927,98.3386 C50.0,98.5834 50.100000000000364,98.8673 50.100000000000364,99.1902 C50.100000000000364,99.2319 50.100000000000364,99.3204 50.100000000000364,99.4558 L49.399999999999636,102.159 C49.399999999999636,102.18 49.399999999999636,102.206 49.399999999999636,102.237 C49.399999999999636,102.341 49.5,102.393 49.5,102.393 C49.70000000000073,102.393 49.899999999999636,102.289 50.100000000000364,102.081 L50.5,101.753 C50.600000000000364,101.753 50.70000000000073,101.784 50.70000000000073,101.846 C50.70000000000073,101.899 50.70000000000073,101.94 50.600000000000364,101.971 C50.0,102.534 49.600000000000364,102.883 49.399999999999636,103.018 C49.100000000000364,103.289 48.70000000000073,103.425 48.399999999999636,103.425 C48.20000000000073,103.425 48.0,103.367 48.0,103.253 C47.79999999999927,103.159 47.79999999999927,103.029 47.79999999999927,102.862 C47.79999999999927,102.8 47.79999999999927,102.737 47.79999999999927,102.675 L48.5,99.7058 C48.5,99.6225 48.5,99.5392 48.5,99.4558 C48.5,99.2162 48.5,99.0965 48.29999999999927,99.0965 C48.20000000000073,99.0965 48.0,99.1642 47.899999999999636,99.2996 C47.70000000000073,99.4246 47.600000000000364,99.56 47.600000000000364,99.7058 L46.600000000000364,103.159 C46.5,103.284 46.5,103.346 46.399999999999636,103.346 L45.29999999999927,103.346 C45.20000000000073,103.346 45.100000000000364,103.284 45.20000000000073,103.159 L46.20000000000073,99.7058 C46.20000000000073,99.5912 46.20000000000073,99.4923 46.20000000000073,99.409 C46.20000000000073,99.2006 46.100000000000364,99.0965 46.0,99.0965 C45.79999999999927,99.0965 45.70000000000073,99.1642 45.5,99.2996 C45.399999999999636,99.4037 45.29999999999927,99.5392 45.20000000000073,99.7058 L44.100000000000364,103.159 C44.0,103.284 43.899999999999636,103.346 43.79999999999927,103.346 L42.79999999999927,103.346 C42.70000000000073,103.346 42.600000000000364,103.284 42.70000000000073,103.159 L43.899999999999636,99.7058 C43.899999999999636,99.56 43.899999999999636,99.4662 43.899999999999636,99.4246 C43.899999999999636,99.2058 43.79999999999927,99.0965 43.600000000000364,99.0965 C43.399999999999636,99.0965 43.20000000000073,99.2683 43.0,99.6121 C42.79999999999927,99.935 42.600000000000364,100.294 42.5,100.69 C42.399999999999636,100.805 42.399999999999636,100.862 42.20000000000073,100.862 C42.20000000000073,100.841 42.100000000000364,100.805 42.100000000000364,100.753 M54.29999999999927,98.2683 L53.399999999999636,101.362 C53.0,102.477 52.5,103.555 51.70000000000073,104.596 C50.899999999999636,105.638 50.100000000000364,106.159 49.29999999999927,106.159 C48.899999999999636,106.159 48.5,106.047 48.20000000000073,105.823 C47.79999999999927,105.599 47.70000000000073,105.31 47.70000000000073,104.956 C47.70000000000073,104.55 47.70000000000073,104.206 47.899999999999636,103.925 C48.100000000000364,103.654 48.29999999999927,103.508 48.600000000000364,103.487 C48.899999999999636,103.487 49.100000000000364,103.57 49.20000000000073,103.737 C49.399999999999636,103.904 49.5,104.096 49.5,104.315 C49.5,104.513 49.29999999999927,104.695 49.100000000000364,104.862 C48.899999999999636,105.008 48.70000000000073,105.175 48.70000000000073,105.362 C48.70000000000073,105.487 48.899999999999636,105.55 49.20000000000073,105.55 L49.29999999999927,105.55 C49.29999999999927,105.55 49.399999999999636,105.534 49.600000000000364,105.503 C49.600000000000364,105.492 49.70000000000073,105.451 49.79999999999927,105.378 C49.79999999999927,105.378 49.899999999999636,105.326 50.0,105.221 C50.100000000000364,105.107 50.20000000000073,105.024 50.20000000000073,104.971 C50.20000000000073,104.867 50.29999999999927,104.784 50.29999999999927,104.721 C50.29999999999927,104.68 50.399999999999636,104.576 50.399999999999636,104.409 C50.399999999999636,104.367 50.399999999999636,104.32 50.399999999999636,104.268 C50.5,104.216 50.5,104.18 50.5,104.159 C50.5,104.138 50.5,104.122 50.5,104.112 C50.5,103.904 50.600000000000364,103.779 50.600000000000364,103.737 C50.600000000000364,103.529 50.70000000000073,103.425 50.70000000000073,103.425 L51.899999999999636,98.2683 L51.0,98.2683 C50.899999999999636,98.2683 50.79999999999927,98.2371 50.79999999999927,98.1746 C50.70000000000073,98.0912 50.70000000000073,98.0183 50.70000000000073,97.9558 C50.70000000000073,97.8725 50.70000000000073,97.7996 50.79999999999927,97.7371 C50.79999999999927,97.6746 50.899999999999636,97.6433 51.0,97.6433 L52.100000000000364,97.6433 C52.5,96.6642 53.0,95.8204 53.70000000000073,95.1121 C54.5,94.3829 55.29999999999927,94.0183 56.100000000000364,94.0183 C56.600000000000364,94.0183 57.0,94.1329 57.29999999999927,94.3621 C57.600000000000364,94.5808 57.79999999999927,94.8673 57.79999999999927,95.2215 C57.79999999999927,95.6069 57.70000000000073,95.9506 57.5,96.2527 C57.29999999999927,96.5235 57.100000000000364,96.6642 56.79999999999927,96.6746 C56.600000000000364,96.6746 56.399999999999636,96.5939 56.20000000000073,96.4324 C56.0,96.2709 56.0,96.0808 56.0,95.8621 C56.0,95.6746 56.100000000000364,95.5027 56.29999999999927,95.3465 C56.600000000000364,95.1902 56.70000000000073,95.0131 56.70000000000073,94.8152 C56.70000000000073,94.6694 56.5,94.6017 56.29999999999927,94.6121 L56.20000000000073,94.6121 C56.20000000000073,94.6329 56.20000000000073,94.6381 56.100000000000364,94.6277 C55.899999999999636,94.6277 55.70000000000073,94.685 55.5,94.7996 C55.399999999999636,94.9037 55.20000000000073,95.0912 55.100000000000364,95.3621 C55.100000000000364,95.435 55.0,95.5079 55.0,95.5808 C55.0,95.6537 55.0,95.7345 54.899999999999636,95.823 C54.899999999999636,95.9116 54.899999999999636,95.9715 54.79999999999927,96.0027 C54.79999999999927,96.0652 54.79999999999927,96.1954 54.79999999999927,96.3933 C54.70000000000073,96.5808 54.70000000000073,96.7423 54.70000000000073,96.8777 C54.600000000000364,97.2735 54.5,97.5287 54.5,97.6433 L55.600000000000364,97.6433 C55.70000000000073,97.6433 55.70000000000073,97.672 55.79999999999927,97.7293 C55.899999999999636,97.7866 55.899999999999636,97.8595 55.899999999999636,97.948 C55.899999999999636,98.0366 55.899999999999636,98.1121 55.79999999999927,98.1746 C55.70000000000073,98.2371 55.70000000000073,98.2683 55.600000000000364,98.2683 L54.29999999999927,98.2683" />
<path d="M130.60000000000036,219.596 L160.60000000000036,219.596 L160.60000000000036,222.096 L130.60000000000036,222.096 L130.60000000000036,219.596" />
<path d="M130.60000000000036,223.346 L145.89999999999964,223.346 L145.89999999999964,225.846 L130.60000000000036,225.846 L130.60000000000036,223.346" />
<path d="M124.60000000000036,123.346 L154.60000000000036,124.624 L154.60000000000036,127.124 L124.60000000000036,125.846 L124.60000000000036,123.346" />
<path d="M130.60000000000036,56.9858 L160.60000000000036,62.0965 L160.60000000000036,64.5965 L130.60000000000036,59.4858 L130.60000000000036,56.9858" />
<path d="M83.60000000000036,219.596 L107.70000000000073,219.596 L107.70000000000073,222.096 L83.60000000000036,222.096 L83.60000000000036,219.596" />
<path d="M13.100000000000364,215.803 L69.5,219.596 L69.5,222.096 L13.100000000000364,218.303 L13.100000000000364,215.803" />
<path d="M69.5,223.346 L62.899999999999636,222.903 L62.899999999999636,225.403 L69.5,225.846 L69.5,223.346" />
<path d="M7.200000000000728,123.346 L48.899999999999636,124.616 L48.899999999999636,127.116 L7.200000000000728,125.846 L7.200000000000728,123.346" />
<path d="M7.200000000000728,119.596 L23.299999999999272,120.087 L23.299999999999272,122.587 L7.200000000000728,122.096 L7.200000000000728,119.596" />
<path d="M7.200000000000728,85.8465 L48.899999999999636,92.1953 L48.899999999999636,94.6953 L7.200000000000728,88.3465 L7.200000000000728,85.8465" />
<path d="M7.200000000000728,82.0965 L23.299999999999272,84.5473 L23.299999999999272,87.0473 L7.200000000000728,84.5965 L7.200000000000728,82.0965" />
<path d="M39.899999999999636,92.7058 L39.899999999999636,92.8152 C39.899999999999636,93.3881 40.0,93.9246 40.20000000000073,94.4246 C40.5,95.0704 40.70000000000073,95.534 40.899999999999636,95.8152 C41.29999999999927,96.3256 41.600000000000364,96.81 41.899999999999636,97.2683 C42.399999999999636,97.8933 42.70000000000073,98.3412 42.899999999999636,98.6121 C42.899999999999636,98.4454 43.0,98.2215 43.0,97.9402 C43.0,97.3673 42.79999999999927,96.7267 42.399999999999636,96.0183 C42.0,95.2683 41.70000000000073,94.6954 41.29999999999927,94.2996 C40.899999999999636,93.7267 40.399999999999636,93.1954 39.899999999999636,92.7058 M39.899999999999636,88.4715 C39.899999999999636,89.1381 40.100000000000364,89.8048 40.29999999999927,90.4715 C40.600000000000364,91.0965 40.899999999999636,91.7215 41.29999999999927,92.3465 L42.399999999999636,94.0965 C42.79999999999927,94.6798 43.20000000000073,95.3048 43.399999999999636,95.9715 C43.70000000000073,96.6485 43.79999999999927,97.3048 43.79999999999927,97.9402 C43.79999999999927,98.4819 43.70000000000073,99.0287 43.399999999999636,99.5808 C43.79999999999927,100.383 44.0,101.138 44.0,101.846 C44.0,102.544 43.79999999999927,103.242 43.5,103.94 C43.899999999999636,104.701 44.100000000000364,105.456 44.100000000000364,106.206 C44.100000000000364,107.362 43.79999999999927,108.529 43.29999999999927,109.706 C43.20000000000073,109.872 43.100000000000364,109.956 42.899999999999636,109.956 C42.79999999999927,109.956 42.70000000000073,109.904 42.600000000000364,109.8 C42.5,109.695 42.399999999999636,109.591 42.399999999999636,109.487 C42.399999999999636,109.487 42.399999999999636,109.461 42.399999999999636,109.409 C43.0,108.346 43.29999999999927,107.279 43.29999999999927,106.206 C43.29999999999927,105.383 43.0,104.581 42.29999999999927,103.8 C41.70000000000073,103.008 40.899999999999636,102.216 39.899999999999636,101.425 L39.899999999999636,103.471 L39.29999999999927,103.471 L39.29999999999927,88.4715 L39.899999999999636,88.4715 M39.899999999999636,97.0652 L39.899999999999636,97.159 C39.899999999999636,97.6694 40.0,98.2162 40.29999999999927,98.7996 C40.5,99.4037 40.70000000000073,99.8673 41.0,100.19 C41.100000000000364,100.399 41.5,100.883 42.0,101.643 C42.5,102.279 42.79999999999927,102.721 43.0,102.971 C43.100000000000364,102.607 43.100000000000364,102.232 43.100000000000364,101.846 C43.100000000000364,101.294 43.0,100.69 42.600000000000364,100.034 C42.20000000000073,99.4402 41.79999999999927,98.9194 41.399999999999636,98.4715 C41.0,98.034 40.5,97.5652 39.899999999999636,97.0652" />
<path d="M43.600000000000364,70.2058 L43.600000000000364,70.3152 C43.600000000000364,70.8881 43.70000000000073,71.4246 43.899999999999636,71.9246 C44.20000000000073,72.5704 44.399999999999636,73.034 44.600000000000364,73.3152 C45.0,73.8256 45.29999999999927,74.31 45.600000000000364,74.7683 C46.100000000000364,75.3933 46.399999999999636,75.8412 46.600000000000364,76.1121 C46.600000000000364,75.9454 46.70000000000073,75.7215 46.70000000000073,75.4402 C46.70000000000073,74.8673 46.5,74.2267 46.100000000000364,73.5183 C45.70000000000073,72.7683 45.399999999999636,72.1954 45.0,71.7996 C44.600000000000364,71.2267 44.100000000000364,70.6954 43.600000000000364,70.2058 M43.600000000000364,65.9715 C43.600000000000364,66.6381 43.79999999999927,67.3048 44.0,67.9715 C44.29999999999927,68.5965 44.600000000000364,69.2215 45.0,69.8465 L46.100000000000364,71.5965 C46.5,72.1798 46.899999999999636,72.8048 47.100000000000364,73.4715 C47.399999999999636,74.1485 47.5,74.8048 47.5,75.4402 C47.5,75.9819 47.399999999999636,76.5287 47.100000000000364,77.0808 C47.5,77.8829 47.70000000000073,78.6381 47.70000000000073,79.3465 C47.70000000000073,80.0444 47.5,80.7423 47.20000000000073,81.4402 C47.600000000000364,82.2006 47.79999999999927,82.9558 47.79999999999927,83.7058 C47.79999999999927,84.8621 47.5,86.0287 47.0,87.2058 C46.899999999999636,87.3725 46.79999999999927,87.4558 46.600000000000364,87.4558 C46.5,87.4558 46.399999999999636,87.4037 46.29999999999927,87.2996 C46.20000000000073,87.1954 46.100000000000364,87.0912 46.100000000000364,86.9871 C46.100000000000364,86.9871 46.100000000000364,86.961 46.100000000000364,86.909 C46.70000000000073,85.8465 47.0,84.7787 47.0,83.7058 C47.0,82.8829 46.70000000000073,82.0808 46.0,81.2996 C45.399999999999636,80.5079 44.600000000000364,79.7162 43.600000000000364,78.9246 L43.600000000000364,80.9715 L43.0,80.9715 L43.0,65.9715 L43.600000000000364,65.9715 M43.600000000000364,74.5652 L43.600000000000364,74.659 C43.600000000000364,75.1694 43.70000000000073,75.7162 44.0,76.2996 C44.20000000000073,76.9037 44.399999999999636,77.3673 44.70000000000073,77.6902 C44.79999999999927,77.8985 45.20000000000073,78.3829 45.70000000000073,79.1433 C46.20000000000073,79.7787 46.5,80.2215 46.70000000000073,80.4715 C46.79999999999927,80.1069 46.79999999999927,79.7319 46.79999999999927,79.3465 C46.79999999999927,78.7944 46.70000000000073,78.1902 46.29999999999927,77.534 C45.899999999999636,76.9402 45.5,76.4194 45.100000000000364,75.9715 C44.70000000000073,75.534 44.20000000000073,75.0652 43.600000000000364,74.5652" />
<path d="M49.79999999999927,104.151 C49.600000000000364,103.927 49.5,103.659 49.5,103.346 C49.5,103.034 49.600000000000364,102.766 49.79999999999927,102.542 C50.100000000000364,102.318 50.29999999999927,102.206 50.600000000000364,102.206 C51.0,102.206 51.20000000000073,102.318 51.399999999999636,102.542 C51.70000000000073,102.766 51.79999999999927,103.034 51.79999999999927,103.346 C51.79999999999927,103.659 51.70000000000073,103.927 51.399999999999636,104.151 C51.20000000000073,104.375 51.0,104.487 50.600000000000364,104.487 C50.29999999999927,104.487 50.100000000000364,104.375 49.79999999999927,104.151" />
<path d="M49.79999999999927,81.6511 C49.600000000000364,81.4272 49.5,81.159 49.5,80.8465 C49.5,80.534 49.600000000000364,80.2657 49.79999999999927,80.0418 C50.100000000000364,79.8178 50.29999999999927,79.7058 50.600000000000364,79.7058 C51.0,79.7058 51.20000000000073,79.8178 51.399999999999636,80.0418 C51.70000000000073,80.2657 51.79999999999927,80.534 51.79999999999927,80.8465 C51.79999999999927,81.159 51.70000000000073,81.4272 51.399999999999636,81.6511 C51.20000000000073,81.8751 51.0,81.9871 50.600000000000364,81.9871 C50.29999999999927,81.9871 50.100000000000364,81.8751 49.79999999999927,81.6511" />
<path d="M15.799999999999272,234.151 C15.600000000000364,233.927 15.5,233.659 15.5,233.346 C15.5,233.034 15.600000000000364,232.766 15.799999999999272,232.542 C16.100000000000364,232.318 16.299999999999272,232.206 16.700000000000728,232.206 C17.0,232.206 17.200000000000728,232.318 17.399999999999636,232.542 C17.700000000000728,232.766 17.799999999999272,233.034 17.799999999999272,233.346 C17.799999999999272,233.659 17.700000000000728,233.927 17.399999999999636,234.151 C17.200000000000728,234.375 17.0,234.487 16.700000000000728,234.487 C16.299999999999272,234.487 16.100000000000364,234.375 15.799999999999272,234.151" />
<path d="M231.39999999999964,51.5183 L231.39999999999964,51.3621 C232.0,51.2579 232.5,51.0001 233.0,50.5886 C233.39999999999964,50.1772 233.70000000000073,49.6433 233.89999999999964,48.9871 C233.5,49.2996 233.10000000000036,49.4558 232.60000000000036,49.4558 C232.20000000000073,49.4558 231.89999999999964,49.3048 231.60000000000036,49.0027 C231.29999999999927,48.7006 231.20000000000073,48.31 231.20000000000073,47.8308 C231.20000000000073,47.2892 231.39999999999964,46.836 231.70000000000073,46.4715 C232.0,46.1069 232.39999999999964,45.9246 232.89999999999964,45.9246 C233.39999999999964,45.9246 233.79999999999927,46.1355 234.20000000000073,46.5574 C234.5,46.9793 234.70000000000073,47.5235 234.70000000000073,48.1902 C234.70000000000073,48.409 234.70000000000073,48.6303 234.60000000000036,48.8543 C234.60000000000036,49.0782 234.5,49.3439 234.39999999999964,49.6511 C234.20000000000073,49.9584 234.10000000000036,50.2319 233.79999999999927,50.4715 C233.60000000000036,50.711 233.29999999999927,50.9298 232.89999999999964,51.1277 C232.5,51.3256 232.0,51.4558 231.39999999999964,51.5183 M232.89999999999964,49.0965 C233.0,49.0965 233.20000000000073,49.0834 233.29999999999927,49.0574 C233.39999999999964,49.0314 233.5,48.9689 233.70000000000073,48.8699 C233.79999999999927,48.7709 233.89999999999964,48.6485 233.89999999999964,48.5027 L233.89999999999964,48.1902 C233.89999999999964,46.836 233.5,46.159 232.79999999999927,46.159 C232.70000000000073,46.159 232.5,46.2032 232.39999999999964,46.2918 C232.29999999999927,46.3803 232.20000000000073,46.4975 232.10000000000036,46.6433 C232.10000000000036,46.7892 232.0,46.935 232.0,47.0808 C232.0,47.2267 231.89999999999964,47.3829 231.89999999999964,47.5496 C231.89999999999964,48.0287 232.0,48.4064 232.20000000000073,48.6824 C232.39999999999964,48.9584 232.60000000000036,49.0965 232.89999999999964,49.0965 M237.79999999999927,49.7683 C237.79999999999927,49.4871 237.79999999999927,49.2371 237.60000000000036,49.0183 C237.5,48.7996 237.39999999999964,48.6277 237.20000000000073,48.5027 C237.0,48.3777 236.79999999999927,48.2787 236.60000000000036,48.2058 C236.39999999999964,48.1329 236.20000000000073,48.0834 236.0,48.0574 C235.79999999999927,48.0314 235.70000000000073,48.0183 235.60000000000036,48.0183 C235.5,48.0183 235.5,47.9975 235.5,47.9558 C235.5,47.935 235.5,47.9194 235.5,47.909 L236.39999999999964,46.0496 L238.0,46.0496 C238.10000000000036,46.0496 238.20000000000073,46.0366 238.20000000000073,46.0105 C238.29999999999927,45.9845 238.29999999999927,45.9298 238.39999999999964,45.8465 L238.5,45.909 L238.20000000000073,46.5652 C238.10000000000036,46.6173 238.10000000000036,46.6433 238.0,46.6433 L236.39999999999964,46.6433 L236.10000000000036,47.3152 C236.89999999999964,47.461 237.39999999999964,47.6902 237.79999999999927,48.0027 C238.20000000000073,48.3152 238.39999999999964,48.7787 238.39999999999964,49.3933 C238.39999999999964,49.7058 238.29999999999927,49.9871 238.20000000000073,50.2371 C238.10000000000036,50.4871 238.0,50.6876 237.89999999999964,50.8386 C237.70000000000073,50.9897 237.5,51.1121 237.29999999999927,51.2058 C237.10000000000036,51.2996 236.89999999999964,51.3647 236.70000000000073,51.4011 C236.60000000000036,51.4376 236.39999999999964,51.4558 236.20000000000073,51.4558 C235.89999999999964,51.4558 235.70000000000073,51.4116 235.5,51.323 C235.29999999999927,51.2345 235.20000000000073,51.1121 235.20000000000073,50.9558 C235.20000000000073,50.7579 235.29999999999927,50.659 235.60000000000036,50.659 C235.70000000000073,50.659 235.89999999999964,50.7423 236.10000000000036,50.909 C236.39999999999964,51.0756 236.60000000000036,51.159 236.70000000000073,51.159 C237.0,51.159 237.29999999999927,51.0261 237.5,50.7605 C237.70000000000073,50.4949 237.79999999999927,50.1642 237.79999999999927,49.7683" />
<path d="M244.29999999999927,244.409 C244.60000000000036,244.044 244.79999999999927,243.706 244.79999999999927,243.393 C244.79999999999927,243.102 244.60000000000036,242.883 244.39999999999964,242.737 C244.20000000000073,242.581 243.89999999999964,242.503 243.60000000000036,242.503 C243.39999999999964,242.503 243.20000000000073,242.576 243.10000000000036,242.721 C242.89999999999964,242.857 242.89999999999964,243.018 242.89999999999964,243.206 C242.89999999999964,243.445 243.0,243.622 243.20000000000073,243.737 L244.29999999999927,244.409 M244.60000000000036,244.565 C245.10000000000036,244.857 245.39999999999964,245.263 245.39999999999964,245.784 C245.39999999999964,245.784 245.39999999999964,245.805 245.39999999999964,245.846 C245.39999999999964,246.242 245.20000000000073,246.576 244.89999999999964,246.846 C244.60000000000036,247.128 244.10000000000036,247.268 243.5,247.268 C243.0,247.268 242.60000000000036,247.138 242.20000000000073,246.878 C241.89999999999964,246.638 241.70000000000073,246.31 241.70000000000073,245.893 C241.70000000000073,245.706 241.70000000000073,245.539 241.79999999999927,245.393 C241.89999999999964,245.227 242.0,245.112 242.10000000000036,245.05 C242.10000000000036,245.05 242.20000000000073,244.925 242.5,244.675 C242.10000000000036,244.404 241.89999999999964,244.055 241.89999999999964,243.628 C241.89999999999964,243.263 242.0,242.94 242.29999999999927,242.659 C242.60000000000036,242.399 243.10000000000036,242.268 243.60000000000036,242.268 C244.10000000000036,242.268 244.39999999999964,242.367 244.70000000000073,242.565 C245.10000000000036,242.763 245.20000000000073,243.039 245.20000000000073,243.393 C245.20000000000073,243.727 245.0,244.117 244.60000000000036,244.565 M242.79999999999927,244.846 C242.39999999999964,245.19 242.20000000000073,245.539 242.10000000000036,245.893 C242.20000000000073,246.227 242.29999999999927,246.497 242.60000000000036,246.706 C242.79999999999927,246.925 243.20000000000073,247.034 243.5,247.034 C243.79999999999927,247.034 244.0,246.951 244.20000000000073,246.784 C244.29999999999927,246.628 244.39999999999964,246.435 244.39999999999964,246.206 C244.39999999999964,245.925 244.20000000000073,245.721 244.0,245.596 L242.79999999999927,244.846 M250.39999999999964,224.065 C250.20000000000073,223.867 250.10000000000036,223.625 250.10000000000036,223.339 C250.10000000000036,223.052 250.20000000000073,222.813 250.39999999999964,222.62 C250.60000000000036,222.427 250.79999999999927,222.331 251.10000000000036,222.331 C251.39999999999964,222.331 251.60000000000036,222.427 251.79999999999927,222.62 C252.0,222.813 252.10000000000036,223.052 252.10000000000036,223.339 C252.10000000000036,223.625 252.0,223.867 251.79999999999927,224.065 C251.60000000000036,224.263 251.39999999999964,224.362 251.10000000000036,224.362 C250.79999999999927,224.362 250.60000000000036,224.263 250.39999999999964,224.065 M250.39999999999964,229.073 C250.20000000000073,228.88 250.10000000000036,228.641 250.10000000000036,228.354 C250.10000000000036,228.068 250.20000000000073,227.826 250.39999999999964,227.628 C250.60000000000036,227.43 250.79999999999927,227.331 251.10000000000036,227.331 C251.39999999999964,227.331 251.60000000000036,227.43 251.79999999999927,227.628 C252.0,227.826 252.10000000000036,228.068 252.10000000000036,228.354 C252.10000000000036,228.641 252.0,228.88 251.79999999999927,229.073 C251.60000000000036,229.266 251.39999999999964,229.362 251.10000000000036,229.362 C250.79999999999927,229.362 250.60000000000036,229.266 250.39999999999964,229.073 M243.60000000000036,220.596 C245.29999999999927,220.596 246.79999999999927,221.029 247.89999999999964,221.893 C248.89999999999964,222.81 249.5,224.05 249.5,225.612 C249.5,226.664 249.29999999999927,227.628 248.89999999999964,228.503 C248.5,229.419 247.89999999999964,230.227 247.29999999999927,230.925 C246.60000000000036,231.643 245.89999999999964,232.32 244.89999999999964,232.956 C244.0,233.581 243.10000000000036,234.143 242.20000000000073,234.643 C240.20000000000073,235.612 239.20000000000073,236.096 239.0,236.096 C238.79999999999927,236.096 238.70000000000073,236.013 238.70000000000073,235.846 C238.70000000000073,235.784 238.70000000000073,235.727 238.79999999999927,235.675 C239.5,235.279 240.29999999999927,234.779 241.20000000000073,234.175 C241.89999999999964,233.768 242.60000000000036,233.206 243.39999999999964,232.487 C244.20000000000073,231.81 244.89999999999964,231.175 245.29999999999927,230.581 C245.70000000000073,229.987 246.20000000000073,229.258 246.5,228.393 C246.89999999999964,227.518 247.0,226.654 247.0,225.8 C247.0,224.539 246.70000000000073,223.44 246.10000000000036,222.503 C245.5,221.565 244.60000000000036,221.096 243.60000000000036,221.096 C242.89999999999964,221.096 242.29999999999927,221.331 241.70000000000073,221.8 C241.20000000000073,222.279 240.79999999999927,222.883 240.5,223.612 C240.79999999999927,223.508 241.0,223.456 241.20000000000073,223.456 C241.79999999999927,223.456 242.20000000000073,223.654 242.60000000000036,224.05 C243.0,224.466 243.20000000000073,224.94 243.20000000000073,225.471 C243.20000000000073,226.034 243.0,226.539 242.60000000000036,226.987 C242.20000000000073,227.383 241.79999999999927,227.581 241.20000000000073,227.581 C240.60000000000036,227.581 240.10000000000036,227.383 239.60000000000036,226.987 C239.20000000000073,226.539 239.0,226.034 239.0,225.471 C239.0,224.128 239.39999999999964,222.982 240.29999999999927,222.034 C241.20000000000073,221.076 242.29999999999927,220.596 243.60000000000036,220.596" />
<path d="M246.29999999999927,178.221 C246.29999999999927,178.221 246.29999999999927,178.221 246.39999999999964,178.221 C246.5,178.211 246.5,178.206 246.60000000000036,178.206 C248.0,178.206 249.20000000000073,178.721 250.10000000000036,179.753 C251.10000000000036,180.763 251.60000000000036,181.945 251.60000000000036,183.3 C251.60000000000036,184.987 250.89999999999964,186.357 249.5,187.409 C249.10000000000036,187.701 248.60000000000036,187.935 248.0,188.112 C248.10000000000036,188.956 248.10000000000036,189.638 248.10000000000036,190.159 C248.10000000000036,190.263 248.10000000000036,190.643 248.10000000000036,191.3 C248.0,192.508 247.60000000000036,193.555 246.89999999999964,194.44 C246.10000000000036,195.315 245.20000000000073,195.753 244.0,195.753 C243.0,195.753 242.10000000000036,195.383 241.39999999999964,194.643 C240.60000000000036,193.883 240.20000000000073,192.971 240.20000000000073,191.909 C240.20000000000073,191.346 240.39999999999964,190.867 240.89999999999964,190.471 C241.29999999999927,190.086 241.79999999999927,189.893 242.39999999999964,189.893 C242.89999999999964,189.893 243.39999999999964,190.096 243.70000000000073,190.503 C244.10000000000036,190.878 244.29999999999927,191.346 244.29999999999927,191.909 C244.29999999999927,192.409 244.10000000000036,192.841 243.70000000000073,193.206 C243.39999999999964,193.57 242.89999999999964,193.753 242.39999999999964,193.753 C242.20000000000073,193.753 242.0,193.716 241.79999999999927,193.643 C242.39999999999964,194.487 243.20000000000073,194.909 244.10000000000036,194.909 C245.0,194.909 245.70000000000073,194.544 246.29999999999927,193.815 C246.89999999999964,193.065 247.20000000000073,192.185 247.29999999999927,191.175 C247.29999999999927,190.55 247.29999999999927,190.195 247.29999999999927,190.112 C247.29999999999927,189.383 247.29999999999927,188.784 247.20000000000073,188.315 C246.60000000000036,188.419 246.0,188.471 245.5,188.471 C243.70000000000073,188.471 242.20000000000073,187.753 240.89999999999964,186.315 C239.60000000000036,184.867 239.0,183.149 239.0,181.159 C239.0,180.742 239.0,180.32 239.10000000000036,179.893 C239.20000000000073,179.539 239.29999999999927,179.154 239.39999999999964,178.737 C239.5,178.497 239.70000000000073,178.117 239.89999999999964,177.596 C240.0,177.44 240.20000000000073,177.245 240.29999999999927,177.011 C240.39999999999964,176.776 240.5,176.622 240.60000000000036,176.55 C240.70000000000073,176.289 240.89999999999964,175.935 241.29999999999927,175.487 C241.39999999999964,175.372 241.5,175.245 241.60000000000036,175.104 C241.79999999999927,174.964 241.89999999999964,174.846 241.89999999999964,174.753 C242.0,174.659 242.10000000000036,174.586 242.10000000000036,174.534 C242.10000000000036,174.482 242.39999999999964,174.138 243.0,173.503 C243.10000000000036,173.367 243.20000000000073,173.227 243.39999999999964,173.081 C243.5,172.935 243.60000000000036,172.818 243.70000000000073,172.729 C243.70000000000073,172.641 243.79999999999927,172.581 243.89999999999964,172.55 C243.39999999999964,170.997 243.10000000000036,169.758 243.0,168.831 C242.89999999999964,168.091 242.79999999999927,167.076 242.79999999999927,165.784 C242.79999999999927,164.649 243.10000000000036,163.586 243.60000000000036,162.596 C244.10000000000036,161.576 244.79999999999927,160.737 245.70000000000073,160.081 C245.79999999999927,160.039 245.89999999999964,160.018 245.89999999999964,160.018 C246.0,160.018 246.10000000000036,160.039 246.10000000000036,160.081 C246.79999999999927,160.925 247.39999999999964,162.024 247.89999999999964,163.378 C248.5,164.732 248.70000000000073,165.966 248.70000000000073,167.081 C248.70000000000073,168.331 248.39999999999964,169.503 247.79999999999927,170.596 C247.20000000000073,171.753 246.29999999999927,172.951 245.20000000000073,174.19 C245.5,175.044 245.79999999999927,176.388 246.29999999999927,178.221 M248.0,187.315 C248.60000000000036,187.065 249.20000000000073,186.643 249.60000000000036,186.05 C250.0,185.477 250.20000000000073,184.831 250.20000000000073,184.112 C250.20000000000073,183.185 249.89999999999964,182.362 249.20000000000073,181.643 C248.60000000000036,180.904 247.79999999999927,180.487 246.79999999999927,180.393 C247.39999999999964,183.143 247.70000000000073,185.451 248.0,187.315 M240.39999999999964,182.8 C240.39999999999964,184.091 240.89999999999964,185.227 242.0,186.206 C243.0,187.154 244.20000000000073,187.628 245.60000000000036,187.628 C246.10000000000036,187.628 246.60000000000036,187.586 247.20000000000073,187.503 C247.0,185.524 246.5,183.154 245.89999999999964,180.393 C245.20000000000073,180.477 244.60000000000036,180.737 244.20000000000073,181.175 C243.70000000000073,181.633 243.5,182.149 243.5,182.721 C243.5,183.711 244.0,184.513 245.10000000000036,185.128 C245.20000000000073,185.221 245.20000000000073,185.32 245.20000000000073,185.425 C245.20000000000073,185.529 245.20000000000073,185.622 245.10000000000036,185.706 C245.0,185.8 244.89999999999964,185.846 244.79999999999927,185.846 C244.79999999999927,185.846 244.70000000000073,185.836 244.60000000000036,185.815 C243.89999999999964,185.409 243.29999999999927,184.888 242.89999999999964,184.253 C242.5,183.565 242.29999999999927,182.878 242.29999999999927,182.19 C242.29999999999927,181.294 242.60000000000036,180.482 243.20000000000073,179.753 C243.79999999999927,179.024 244.5,178.555 245.5,178.346 C245.10000000000036,176.888 244.79999999999927,175.747 244.60000000000036,174.925 C244.39999999999964,175.164 244.10000000000036,175.448 243.79999999999927,175.776 C243.5,176.104 243.39999999999964,176.305 243.29999999999927,176.378 C242.79999999999927,176.982 242.5,177.456 242.20000000000073,177.8 C241.79999999999927,178.414 241.5,178.94 241.20000000000073,179.378 C241.0,179.878 240.79999999999927,180.419 240.70000000000073,181.003 C240.5,181.565 240.39999999999964,182.164 240.39999999999964,182.8 M246.89999999999964,162.94 C246.0,163.419 245.20000000000073,164.107 244.60000000000036,165.003 C244.10000000000036,165.93 243.79999999999927,166.925 243.79999999999927,167.987 C243.79999999999927,168.925 244.0,170.19 244.5,171.784 C245.39999999999964,170.649 246.10000000000036,169.602 246.60000000000036,168.643 C247.10000000000036,167.622 247.29999999999927,166.56 247.29999999999927,165.456 C247.29999999999927,164.622 247.20000000000073,163.784 246.89999999999964,162.94 M244.79999999999927,198.581 C245.10000000000036,198.247 245.29999999999927,197.909 245.29999999999927,197.565 C245.29999999999927,197.294 245.20000000000073,197.086 244.89999999999964,196.94 C244.70000000000073,196.784 244.39999999999964,196.706 244.10000000000036,196.706 C243.89999999999964,196.706 243.70000000000073,196.779 243.60000000000036,196.925 C243.39999999999964,197.05 243.39999999999964,197.211 243.39999999999964,197.409 C243.39999999999964,197.649 243.5,197.826 243.70000000000073,197.94 L244.79999999999927,198.581 M245.10000000000036,198.753 C245.60000000000036,199.055 245.89999999999964,199.461 245.89999999999964,199.971 L245.89999999999964,200.034 C245.89999999999964,200.43 245.79999999999927,200.768 245.39999999999964,201.05 C245.10000000000036,201.331 244.60000000000036,201.471 244.0,201.471 C243.5,201.471 243.10000000000036,201.341 242.79999999999927,201.081 C242.39999999999964,200.831 242.20000000000073,200.492 242.20000000000073,200.065 C242.20000000000073,199.899 242.29999999999927,199.742 242.29999999999927,199.596 C242.39999999999964,199.43 242.5,199.315 242.60000000000036,199.253 L243.0,198.878 C242.60000000000036,198.607 242.39999999999964,198.247 242.39999999999964,197.8 C242.39999999999964,197.445 242.5,197.133 242.79999999999927,196.862 C243.20000000000073,196.602 243.60000000000036,196.471 244.10000000000036,196.471 C244.60000000000036,196.471 244.89999999999964,196.57 245.29999999999927,196.768 C245.60000000000036,196.966 245.70000000000073,197.232 245.70000000000073,197.565 C245.70000000000073,197.919 245.5,198.315 245.10000000000036,198.753 M243.29999999999927,199.05 C242.89999999999964,199.393 242.70000000000073,199.732 242.60000000000036,200.065 C242.70000000000073,200.419 242.79999999999927,200.701 243.10000000000036,200.909 C243.39999999999964,201.128 243.70000000000073,201.237 244.0,201.237 C244.29999999999927,201.237 244.5,201.154 244.70000000000073,200.987 C244.79999999999927,200.831 244.89999999999964,200.643 244.89999999999964,200.425 C244.89999999999964,200.133 244.79999999999927,199.925 244.60000000000036,199.8 L243.29999999999927,199.05" />
<path d="M244.29999999999927,139.409 C244.60000000000036,139.044 244.79999999999927,138.706 244.79999999999927,138.393 C244.79999999999927,138.102 244.60000000000036,137.883 244.39999999999964,137.737 C244.20000000000073,137.581 243.89999999999964,137.503 243.60000000000036,137.503 C243.39999999999964,137.503 243.20000000000073,137.576 243.10000000000036,137.721 C242.89999999999964,137.857 242.89999999999964,138.018 242.89999999999964,138.206 C242.89999999999964,138.445 243.0,138.622 243.20000000000073,138.737 L244.29999999999927,139.409 M244.60000000000036,139.565 C245.10000000000036,139.857 245.39999999999964,140.263 245.39999999999964,140.784 C245.39999999999964,140.784 245.39999999999964,140.805 245.39999999999964,140.846 C245.39999999999964,141.242 245.20000000000073,141.576 244.89999999999964,141.846 C244.60000000000036,142.128 244.10000000000036,142.268 243.5,142.268 C243.0,142.268 242.60000000000036,142.138 242.20000000000073,141.878 C241.89999999999964,141.638 241.70000000000073,141.31 241.70000000000073,140.893 C241.70000000000073,140.706 241.70000000000073,140.539 241.79999999999927,140.393 C241.89999999999964,140.227 242.0,140.112 242.10000000000036,140.05 C242.10000000000036,140.05 242.20000000000073,139.925 242.5,139.675 C242.10000000000036,139.404 241.89999999999964,139.055 241.89999999999964,138.628 C241.89999999999964,138.263 242.0,137.94 242.29999999999927,137.659 C242.60000000000036,137.399 243.10000000000036,137.268 243.60000000000036,137.268 C244.10000000000036,137.268 244.39999999999964,137.367 244.70000000000073,137.565 C245.10000000000036,137.763 245.20000000000073,138.039 245.20000000000073,138.393 C245.20000000000073,138.727 245.0,139.117 244.60000000000036,139.565 M242.79999999999927,139.846 C242.39999999999964,140.19 242.20000000000073,140.539 242.10000000000036,140.893 C242.20000000000073,141.227 242.29999999999927,141.497 242.60000000000036,141.706 C242.79999999999927,141.925 243.20000000000073,142.034 243.5,142.034 C243.79999999999927,142.034 244.0,141.951 244.20000000000073,141.784 C244.29999999999927,141.628 244.39999999999964,141.435 244.39999999999964,141.206 C244.39999999999964,140.925 244.20000000000073,140.721 244.0,140.596 L242.79999999999927,139.846 M250.39999999999964,119.065 C250.20000000000073,118.867 250.10000000000036,118.625 250.10000000000036,118.339 C250.10000000000036,118.052 250.20000000000073,117.813 250.39999999999964,117.62 C250.60000000000036,117.427 250.79999999999927,117.331 251.10000000000036,117.331 C251.39999999999964,117.331 251.60000000000036,117.427 251.79999999999927,117.62 C252.0,117.813 252.10000000000036,118.052 252.10000000000036,118.339 C252.10000000000036,118.625 252.0,118.867 251.79999999999927,119.065 C251.60000000000036,119.263 251.39999999999964,119.362 251.10000000000036,119.362 C250.79999999999927,119.362 250.60000000000036,119.263 250.39999999999964,119.065 M250.39999999999964,124.073 C250.20000000000073,123.88 250.10000000000036,123.641 250.10000000000036,123.354 C250.10000000000036,123.068 250.20000000000073,122.826 250.39999999999964,122.628 C250.60000000000036,122.43 250.79999999999927,122.331 251.10000000000036,122.331 C251.39999999999964,122.331 251.60000000000036,122.43 251.79999999999927,122.628 C252.0,122.826 252.10000000000036,123.068 252.10000000000036,123.354 C252.10000000000036,123.641 252.0,123.88 251.79999999999927,124.073 C251.60000000000036,124.266 251.39999999999964,124.362 251.10000000000036,124.362 C250.79999999999927,124.362 250.60000000000036,124.266 250.39999999999964,124.073 M243.60000000000036,115.596 C245.29999999999927,115.596 246.79999999999927,116.029 247.89999999999964,116.893 C248.89999999999964,117.81 249.5,119.05 249.5,120.612 C249.5,121.664 249.29999999999927,122.628 248.89999999999964,123.503 C248.5,124.419 247.89999999999964,125.227 247.29999999999927,125.925 C246.60000000000036,126.643 245.89999999999964,127.32 244.89999999999964,127.956 C244.0,128.581 243.10000000000036,129.143 242.20000000000073,129.643 C240.20000000000073,130.612 239.20000000000073,131.096 239.0,131.096 C238.79999999999927,131.096 238.70000000000073,131.013 238.70000000000073,130.846 C238.70000000000073,130.784 238.70000000000073,130.727 238.79999999999927,130.675 C239.5,130.279 240.29999999999927,129.779 241.20000000000073,129.175 C241.89999999999964,128.768 242.60000000000036,128.206 243.39999999999964,127.487 C244.20000000000073,126.81 244.89999999999964,126.175 245.29999999999927,125.581 C245.70000000000073,124.987 246.20000000000073,124.258 246.5,123.393 C246.89999999999964,122.518 247.0,121.654 247.0,120.8 C247.0,119.539 246.70000000000073,118.44 246.10000000000036,117.503 C245.5,116.565 244.60000000000036,116.096 243.60000000000036,116.096 C242.89999999999964,116.096 242.29999999999927,116.331 241.70000000000073,116.8 C241.20000000000073,117.279 240.79999999999927,117.883 240.5,118.612 C240.79999999999927,118.508 241.0,118.456 241.20000000000073,118.456 C241.79999999999927,118.456 242.20000000000073,118.654 242.60000000000036,119.05 C243.0,119.466 243.20000000000073,119.94 243.20000000000073,120.471 C243.20000000000073,121.034 243.0,121.539 242.60000000000036,121.987 C242.20000000000073,122.383 241.79999999999927,122.581 241.20000000000073,122.581 C240.60000000000036,122.581 240.10000000000036,122.383 239.60000000000036,121.987 C239.20000000000073,121.539 239.0,121.034 239.0,120.471 C239.0,119.128 239.39999999999964,117.982 240.29999999999927,117.034 C241.20000000000073,116.076 242.29999999999927,115.596 243.60000000000036,115.596" />
<path d="M246.29999999999927,73.2215 C246.29999999999927,73.2215 246.29999999999927,73.2215 246.39999999999964,73.2215 C246.5,73.211 246.5,73.2058 246.60000000000036,73.2058 C248.0,73.2058 249.20000000000073,73.7215 250.10000000000036,74.7527 C251.10000000000036,75.7631 251.60000000000036,76.9454 251.60000000000036,78.2996 C251.60000000000036,79.9871 250.89999999999964,81.3569 249.5,82.409 C249.10000000000036,82.7006 248.60000000000036,82.935 248.0,83.1121 C248.10000000000036,83.9558 248.10000000000036,84.6381 248.10000000000036,85.159 C248.10000000000036,85.2631 248.10000000000036,85.6433 248.10000000000036,86.2996 C248.0,87.5079 247.60000000000036,88.5548 246.89999999999964,89.4402 C246.10000000000036,90.3152 245.20000000000073,90.7527 244.0,90.7527 C243.0,90.7527 242.10000000000036,90.3829 241.39999999999964,89.6433 C240.60000000000036,88.8829 240.20000000000073,87.9715 240.20000000000073,86.909 C240.20000000000073,86.3465 240.39999999999964,85.8673 240.89999999999964,85.4715 C241.29999999999927,85.086 241.79999999999927,84.8933 242.39999999999964,84.8933 C242.89999999999964,84.8933 243.39999999999964,85.0965 243.70000000000073,85.5027 C244.10000000000036,85.8777 244.29999999999927,86.3465 244.29999999999927,86.909 C244.29999999999927,87.409 244.10000000000036,87.8412 243.70000000000073,88.2058 C243.39999999999964,88.5704 242.89999999999964,88.7527 242.39999999999964,88.7527 C242.20000000000073,88.7527 242.0,88.7162 241.79999999999927,88.6433 C242.39999999999964,89.4871 243.20000000000073,89.909 244.10000000000036,89.909 C245.0,89.909 245.70000000000073,89.5444 246.29999999999927,88.8152 C246.89999999999964,88.0652 247.20000000000073,87.185 247.29999999999927,86.1746 C247.29999999999927,85.5496 247.29999999999927,85.1954 247.29999999999927,85.1121 C247.29999999999927,84.3829 247.29999999999927,83.784 247.20000000000073,83.3152 C246.60000000000036,83.4194 246.0,83.4715 245.5,83.4715 C243.70000000000073,83.4715 242.20000000000073,82.7527 240.89999999999964,81.3152 C239.60000000000036,79.8673 239.0,78.1485 239.0,76.159 C239.0,75.7423 239.0,75.3204 239.10000000000036,74.8933 C239.20000000000073,74.5392 239.29999999999927,74.1537 239.39999999999964,73.7371 C239.5,73.4975 239.70000000000073,73.1173 239.89999999999964,72.5965 C240.0,72.4402 240.20000000000073,72.2449 240.29999999999927,72.0105 C240.39999999999964,71.7761 240.5,71.6225 240.60000000000036,71.5496 C240.70000000000073,71.2892 240.89999999999964,70.935 241.29999999999927,70.4871 C241.39999999999964,70.3725 241.5,70.2449 241.60000000000036,70.1043 C241.79999999999927,69.9636 241.89999999999964,69.8465 241.89999999999964,69.7527 C242.0,69.659 242.10000000000036,69.586 242.10000000000036,69.534 C242.10000000000036,69.4819 242.39999999999964,69.1381 243.0,68.5027 C243.10000000000036,68.3673 243.20000000000073,68.2267 243.39999999999964,68.0808 C243.5,67.935 243.60000000000036,67.8178 243.70000000000073,67.7293 C243.70000000000073,67.6407 243.79999999999927,67.5808 243.89999999999964,67.5496 C243.39999999999964,65.9975 243.10000000000036,64.7579 243.0,63.8308 C242.89999999999964,63.0912 242.79999999999927,62.0756 242.79999999999927,60.784 C242.79999999999927,59.6485 243.10000000000036,58.586 243.60000000000036,57.5965 C244.10000000000036,56.5756 244.79999999999927,55.7371 245.70000000000073,55.0808 C245.79999999999927,55.0392 245.89999999999964,55.0183 245.89999999999964,55.0183 C246.0,55.0183 246.10000000000036,55.0392 246.10000000000036,55.0808 C246.79999999999927,55.9246 247.39999999999964,57.0235 247.89999999999964,58.3777 C248.5,59.7319 248.70000000000073,60.9662 248.70000000000073,62.0808 C248.70000000000073,63.3308 248.39999999999964,64.5027 247.79999999999927,65.5965 C247.20000000000073,66.7527 246.29999999999927,67.9506 245.20000000000073,69.1902 C245.5,70.0444 245.79999999999927,71.3881 246.29999999999927,73.2215 M248.0,82.3152 C248.60000000000036,82.0652 249.20000000000073,81.6433 249.60000000000036,81.0496 C250.0,80.4767 250.20000000000073,79.8308 250.20000000000073,79.1121 C250.20000000000073,78.185 249.89999999999964,77.3621 249.20000000000073,76.6433 C248.60000000000036,75.9037 247.79999999999927,75.4871 246.79999999999927,75.3933 C247.39999999999964,78.1433 247.70000000000073,80.4506 248.0,82.3152 M240.39999999999964,77.7996 C240.39999999999964,79.0912 240.89999999999964,80.2267 242.0,81.2058 C243.0,82.1537 244.20000000000073,82.6277 245.60000000000036,82.6277 C246.10000000000036,82.6277 246.60000000000036,82.586 247.20000000000073,82.5027 C247.0,80.5235 246.5,78.1537 245.89999999999964,75.3933 C245.20000000000073,75.4767 244.60000000000036,75.7371 244.20000000000073,76.1746 C243.70000000000073,76.6329 243.5,77.1485 243.5,77.7215 C243.5,78.711 244.0,79.5131 245.10000000000036,80.1277 C245.20000000000073,80.2215 245.20000000000073,80.3204 245.20000000000073,80.4246 C245.20000000000073,80.5287 245.20000000000073,80.6225 245.10000000000036,80.7058 C245.0,80.7996 244.89999999999964,80.8465 244.79999999999927,80.8465 C244.79999999999927,80.8465 244.70000000000073,80.836 244.60000000000036,80.8152 C243.89999999999964,80.409 243.29999999999927,79.8881 242.89999999999964,79.2527 C242.5,78.5652 242.29999999999927,77.8777 242.29999999999927,77.1902 C242.29999999999927,76.2944 242.60000000000036,75.4819 243.20000000000073,74.7527 C243.79999999999927,74.0235 244.5,73.5548 245.5,73.3465 C245.10000000000036,71.8881 244.79999999999927,70.7475 244.60000000000036,69.9246 C244.39999999999964,70.1642 244.10000000000036,70.448 243.79999999999927,70.7761 C243.5,71.1043 243.39999999999964,71.3048 243.29999999999927,71.3777 C242.79999999999927,71.9819 242.5,72.4558 242.20000000000073,72.7996 C241.79999999999927,73.4142 241.5,73.9402 241.20000000000073,74.3777 C241.0,74.8777 240.79999999999927,75.4194 240.70000000000073,76.0027 C240.5,76.5652 240.39999999999964,77.1642 240.39999999999964,77.7996 M246.89999999999964,57.9402 C246.0,58.4194 245.20000000000073,59.1069 244.60000000000036,60.0027 C244.10000000000036,60.9298 243.79999999999927,61.9246 243.79999999999927,62.9871 C243.79999999999927,63.9246 244.0,65.1902 244.5,66.784 C245.39999999999964,65.6485 246.10000000000036,64.6017 246.60000000000036,63.6433 C247.10000000000036,62.6225 247.29999999999927,61.56 247.29999999999927,60.4558 C247.29999999999927,59.6225 247.20000000000073,58.784 246.89999999999964,57.9402 M244.79999999999927,93.5808 C245.10000000000036,93.2475 245.29999999999927,92.909 245.29999999999927,92.5652 C245.29999999999927,92.2944 245.20000000000073,92.086 244.89999999999964,91.9402 C244.70000000000073,91.784 244.39999999999964,91.7058 244.10000000000036,91.7058 C243.89999999999964,91.7058 243.70000000000073,91.7787 243.60000000000036,91.9246 C243.39999999999964,92.0496 243.39999999999964,92.211 243.39999999999964,92.409 C243.39999999999964,92.6485 243.5,92.8256 243.70000000000073,92.9402 L244.79999999999927,93.5808 M245.10000000000036,93.7527 C245.60000000000036,94.0548 245.89999999999964,94.461 245.89999999999964,94.9715 L245.89999999999964,95.034 C245.89999999999964,95.4298 245.79999999999927,95.7683 245.39999999999964,96.0496 C245.10000000000036,96.3308 244.60000000000036,96.4715 244.0,96.4715 C243.5,96.4715 243.10000000000036,96.3412 242.79999999999927,96.0808 C242.39999999999964,95.8308 242.20000000000073,95.4923 242.20000000000073,95.0652 C242.20000000000073,94.8985 242.29999999999927,94.7423 242.29999999999927,94.5965 C242.39999999999964,94.4298 242.5,94.3152 242.60000000000036,94.2527 L243.0,93.8777 C242.60000000000036,93.6069 242.39999999999964,93.2475 242.39999999999964,92.7996 C242.39999999999964,92.4454 242.5,92.1329 242.79999999999927,91.8621 C243.20000000000073,91.6017 243.60000000000036,91.4715 244.10000000000036,91.4715 C244.60000000000036,91.4715 244.89999999999964,91.5704 245.29999999999927,91.7683 C245.60000000000036,91.9662 245.70000000000073,92.2319 245.70000000000073,92.5652 C245.70000000000073,92.9194 245.5,93.3152 245.10000000000036,93.7527 M243.29999999999927,94.0496 C242.89999999999964,94.3933 242.70000000000073,94.7319 242.60000000000036,95.0652 C242.70000000000073,95.4194 242.79999999999927,95.7006 243.10000000000036,95.909 C243.39999999999964,96.1277 243.70000000000073,96.2371 244.0,96.2371 C244.29999999999927,96.2371 244.5,96.1537 244.70000000000073,95.9871 C244.79999999999927,95.8308 244.89999999999964,95.6433 244.89999999999964,95.4246 C244.89999999999964,95.1329 244.79999999999927,94.9246 244.60000000000036,94.7996 L243.29999999999927,94.0496" />
<polyline points="0.0,63.3465 178.29999999999927,63.3465" fill="none" stroke="#000000" stroke-width="0.40" />
<polyline points="0.0,68.3465 178.29999999999927,68.3465" fill="none" stroke="#000000" stroke-width="0.40" />
<polyline points="0.0,73.3465 178.29999999999927,73.3465" fill="none" stroke="#000000" stroke-width="0.40" />
<polyline points="0.0,78.3465 178.29999999999927,78.3465" fill="none" stroke="#000000" stroke-width="0.40" />
<polyline points="0.0,83.3465 178.29999999999927,83.3465" fill="none" stroke="#000000" stroke-width="0.40" />
<polyline points="0.0,115.846 178.29999999999927,115.846" fill="none" stroke="#000000" stroke-width="0.40" />
<polyline points="0.0,120.846 178.29999999999927,120.846" fill="none" stroke="#000000" stroke-width="0.40" />
<polyline points="0.0,125.846 178.29999999999927,125.846" fill="none" stroke="#000000" stroke-width="0.40" />
<polyline points="0.0,130.846 178.29999999999927,130.846" fill="none" stroke="#000000" stroke-width="0.40" />
<polyline points="0.0,135.846 178.29999999999927,135.846" fill="none" stroke="#000000" stroke-width="0.40" />
<polyline points="0.0,168.346 178.29999999999927,168.346" fill="none" stroke="#000000" stroke-width="0.40" />
<polyline points="0.0,173.346 178.29999999999927,173.346" fill="none" stroke="#000000" stroke-width="0.40" />
<polyline points="0.0,178.346 178.29999999999927,178.346" fill="none" stroke="#000000" stroke-width="0.40" />
<polyline points="0.0,183.346 178.29999999999927,183.346" fill="none" stroke="#000000" stroke-width="0.40" />
<polyline points="0.0,188.346 178.29999999999927,188.346" fill="none" stroke="#000000" stroke-width="0.40" />
<polyline points="0.0,220.846 178.29999999999927,220.846" fill="none" stroke="#000000" stroke-width="0.40" />
<polyline points="0.0,225.846 178.29999999999927,225.846" fill="none" stroke="#000000" stroke-width="0.40" />
<polyline points="0.0,230.846 178.29999999999927,230.846" fill="none" stroke="#000000" stroke-width="0.40" />
<polyline points="0.0,235.846 178.29999999999927,235.846" fill="none" stroke="#000000" stroke-width="0.40" />
<polyline points="0.0,240.846 178.29999999999927,240.846" fill="none" stroke="#000000" stroke-width="0.40" />
<polyline points="177.89999999999964,220.846 177.89999999999964,240.846" fill="" stroke="#000000" stroke-width="0.80" />
<polyline points="177.89999999999964,168.346 177.89999999999964,188.346" fill="" stroke="#000000" stroke-width="0.80" />
<polyline points="177.89999999999964,115.846 177.89999999999964,135.846" fill="" stroke="#000000" stroke-width="0.80" />
<polyline points="177.89999999999964,63.3465 177.89999999999964,83.3465" fill="" stroke="#000000" stroke-width="0.80" />
<polyline points="43.70000000000073,92.4715 37.20000000000073,96.4715" fill="" stroke="#000000" stroke-width="0.65" />
<polyline points="47.399999999999636,69.9715 40.899999999999636,73.9715" fill="" stroke="#000000" stroke-width="0.65" />
<polyline points="160.20000000000073,234.907 160.20000000000073,220.846" fill="" stroke="#000000" stroke-width="0.65" />
<polyline points="154.29999999999927,104.286 154.29999999999927,125.846" fill="" stroke="#000000" stroke-width="0.65" />
<polyline points="160.20000000000073,79.9074 160.20000000000073,63.3465" fill="" stroke="#000000" stroke-width="0.65" />
<polyline points="145.60000000000036,239.907 145.60000000000036,220.846" fill="" stroke="#000000" stroke-width="0.65" />
<polyline points="130.89999999999964,234.907 130.89999999999964,220.846" fill="" stroke="#000000" stroke-width="0.65" />
<polyline points="124.89999999999964,96.7855 124.89999999999964,124.596" fill="" stroke="#000000" stroke-width="0.65" />
<polyline points="130.89999999999964,72.4074 130.89999999999964,58.3465" fill="" stroke="#000000" stroke-width="0.65" />
<polyline points="107.39999999999964,234.907 107.39999999999964,220.846" fill="" stroke="#000000" stroke-width="0.65" />
<polyline points="83.89999999999964,234.907 83.89999999999964,220.846" fill="" stroke="#000000" stroke-width="0.65" />
<polyline points="84.10000000000036,195.078 84.10000000000036,158.971" fill="" stroke="#000000" stroke-width="0.65" />
<polyline points="78.0,96.7855 78.0,125.846" fill="" stroke="#000000" stroke-width="0.65" />
<polyline points="78.0,74.2855 78.0,88.9715" fill="" stroke="#000000" stroke-width="0.65" />
<polyline points="69.20000000000073,239.907 69.20000000000073,220.846" fill="" stroke="#000000" stroke-width="0.65" />
<polyline points="39.600000000000364,102.689 39.600000000000364,88.4715" fill="" stroke="#000000" stroke-width="0.65" />
<polyline points="48.600000000000364,101.786 48.600000000000364,125.846" fill="" stroke="#000000" stroke-width="0.65" />
<polyline points="43.29999999999927,80.1891 43.29999999999927,65.9715" fill="" stroke="#000000" stroke-width="0.65" />
<polyline points="48.600000000000364,79.2855 48.600000000000364,93.3465" fill="" stroke="#000000" stroke-width="0.65" />
<polyline points="23.0,89.2855 23.0,125.067" fill="" stroke="#000000" stroke-width="0.65" />
<polyline points="23.0,66.7855 23.0,89.4484" fill="" stroke="#000000" stroke-width="0.65" />
<polyline points="13.399999999999636,232.407 13.399999999999636,217.096" fill="" stroke="#000000" stroke-width="0.65" />
<polyline points="7.5,86.7855 7.5,124.596" fill="" stroke="#000000" stroke-width="0.65" />
<polyline points="7.5,64.2855 7.5,87.0965" fill="" stroke="#000000" stroke-width="0.65" />
<polyline points="152.5,105.846 162.10000000000036,105.846" fill="" stroke="#000000" stroke-width="0.80" />
<polyline points="152.5,110.846 162.10000000000036,110.846" fill="" stroke="#000000" stroke-width="0.80" />
<polyline points="123.10000000000036,95.8465 132.70000000000073,95.8465" fill="" stroke="#000000" stroke-width="0.80" />
<polyline points="123.10000000000036,100.846 132.70000000000073,100.846" fill="" stroke="#000000" stroke-width="0.80" />
<polyline points="123.10000000000036,105.846 132.70000000000073,105.846" fill="" stroke="#000000" stroke-width="0.80" />
<polyline points="123.10000000000036,110.846 132.70000000000073,110.846" fill="" stroke="#000000" stroke-width="0.80" />
<polyline points="76.0,193.346 85.89999999999964,193.346" fill="" stroke="#000000" stroke-width="0.80" />
<polyline points="76.10000000000036,95.8465 85.70000000000073,95.8465" fill="" stroke="#000000" stroke-width="0.80" />
<polyline points="76.10000000000036,100.846 85.70000000000073,100.846" fill="" stroke="#000000" stroke-width="0.80" />
<polyline points="76.10000000000036,105.846 85.70000000000073,105.846" fill="" stroke="#000000" stroke-width="0.80" />
<polyline points="76.10000000000036,110.846 85.70000000000073,110.846" fill="" stroke="#000000" stroke-width="0.80" />
<polyline points="33.899999999999636,105.846 41.5,105.846" fill="" stroke="#000000" stroke-width="0.56" />
<polyline points="33.899999999999636,110.846 41.5,110.846" fill="" stroke="#000000" stroke-width="0.56" />
<polyline points="46.79999999999927,100.846 56.399999999999636,100.846" fill="" stroke="#000000" stroke-width="0.80" />
<polyline points="46.79999999999927,105.846 56.399999999999636,105.846" fill="" stroke="#000000" stroke-width="0.80" />
<polyline points="46.79999999999927,110.846 56.399999999999636,110.846" fill="" stroke="#000000" stroke-width="0.80" />
<polyline points="21.100000000000364,90.8465 30.700000000000728,90.8465" fill="" stroke="#000000" stroke-width="0.80" />
<polyline points="21.100000000000364,95.8465 30.700000000000728,95.8465" fill="" stroke="#000000" stroke-width="0.80" />
<polyline points="21.100000000000364,100.846 30.700000000000728,100.846" fill="" stroke="#000000" stroke-width="0.80" />
<polyline points="21.100000000000364,105.846 30.700000000000728,105.846" fill="" stroke="#000000" stroke-width="0.80" />
<polyline points="21.100000000000364,110.846 30.700000000000728,110.846" fill="" stroke="#000000" stroke-width="0.80" />
<polyline points="5.700000000000728,85.8465 15.299999999999272,85.8465" fill="" stroke="#000000" stroke-width="0.80" />
<polyline points="5.700000000000728,90.8465 15.299999999999272,90.8465" fill="" stroke="#000000" stroke-width="0.80" />
<polyline points="5.700000000000728,95.8465 15.299999999999272,95.8465" fill="" stroke="#000000" stroke-width="0.80" />
<polyline points="5.700000000000728,100.846 15.299999999999272,100.846" fill="" stroke="#000000" stroke-width="0.80" />
<polyline points="5.700000000000728,105.846 15.299999999999272,105.846" fill="" stroke="#000000" stroke-width="0.80" />
<polyline points="5.700000000000728,110.846 15.299999999999272,110.846" fill="" stroke="#000000" stroke-width="0.80" />
<polyline points="235.0,63.3465 255.0,63.3465" fill="none" stroke="#000000" stroke-width="0.40" />
<polyline points="235.0,68.3465 255.0,68.3465" fill="none" stroke="#000000" stroke-width="0.40" />
<polyline points="235.0,73.3465 255.0,73.3465" fill="none" stroke="#000000" stroke-width="0.40" />
<polyline points="235.0,78.3465 255.0,78.3465" fill="none" stroke="#000000" stroke-width="0.40" />
<polyline points="235.0,83.3465 255.0,83.3465" fill="none" stroke="#000000" stroke-width="0.40" />
<polyline points="235.0,115.846 255.0,115.846" fill="none" stroke="#000000" stroke-width="0.40" />
<polyline points="235.0,120.846 255.0,120.846" fill="none" stroke="#000000" stroke-width="0.40" />
<polyline points="235.0,125.846 255.0,125.846" fill="none" stroke="#000000" stroke-width="0.40" />
<polyline points="235.0,130.846 255.0,130.846" fill="none" stroke="#000000" stroke-width="0.40" />
<polyline points="235.0,135.846 255.0,135.846" fill="none" stroke="#000000" stroke-width="0.40" />
<polyline points="235.0,168.346 255.0,168.346" fill="none" stroke="#000000" stroke-width="0.40" />
<polyline points="235.0,173.346 255.0,173.346" fill="none" stroke="#000000" stroke-width="0.40" />
<polyline points="235.0,178.346 255.0,178.346" fill="none" stroke="#000000" stroke-width="0.40" />
<polyline points="235.0,183.346 255.0,183.346" fill="none" stroke="#000000" stroke-width="0.40" />
<polyline points="235.0,188.346 255.0,188.346" fill="none" stroke="#000000" stroke-width="0.40" />
<polyline points="235.0,220.846 255.0,220.846" fill="none" stroke="#000000" stroke-width="0.40" />
<polyline points="235.0,225.846 255.0,225.846" fill="none" stroke="#000000" stroke-width="0.40" />
<polyline points="235.0,230.846 255.0,230.846" fill="none" stroke="#000000" stroke-width="0.40" />
<polyline points="235.0,235.846 255.0,235.846" fill="none" stroke="#000000" stroke-width="0.40" />
<polyline points="235.0,240.846 255.0,240.846" fill="none" stroke="#000000" stroke-width="0.40" />
<polyline points="235.39999999999964,63.3465 235.39999999999964,255.0" fill="" stroke="#000000" stroke-width="0.80" />
</svg>
