<?xml version="1.0" encoding="UTF-8" standalone="yes"?>
<svg width="256.0px" height="256.0px" xmlns="http://www.w3.org/2000/svg" xmlns:xlink="http://www.w3.org/1999/xlink" version="1.2" baseProfile="tiny">
<path d="M248.527,210.018 L248.527,211.565 C248.527,212.117 248.553,212.555 248.60500000000002,212.878 C249.03199999999998,212.513 249.339,212.242 249.527,212.065 C249.735,211.857 249.94299999999998,211.568 250.152,211.198 C250.36,210.828 250.464,210.461 250.464,210.096 C250.464,209.732 250.38600000000002,209.419 250.23000000000002,209.159 C250.074,208.899 249.865,208.768 249.60500000000002,208.768 C249.29199999999997,208.768 249.03199999999998,208.888 248.824,209.128 C248.62599999999998,209.388 248.527,209.685 248.527,210.018 M247.699,213.596 L247.449,201.706 C247.63600000000002,201.602 247.82100000000003,201.55 248.003,201.55 C248.18599999999998,201.55 248.365,201.602 248.54199999999997,201.706 L248.38600000000002,208.596 C248.91699999999997,208.138 249.53199999999998,207.909 250.23000000000002,207.909 C250.73000000000002,207.909 251.149,208.117 251.488,208.534 C251.82600000000002,208.951 251.99599999999998,209.43 251.99599999999998,209.971 C251.99599999999998,210.305 251.88600000000002,210.664 251.66699999999997,211.05 C251.459,211.393 251.24,211.664 251.01100000000002,211.862 C250.87599999999998,211.966 250.54199999999997,212.227 250.01100000000002,212.643 C249.85500000000002,212.758 249.67000000000002,212.893 249.45600000000002,213.05 C249.243,213.206 249.11,213.305 249.058,213.346 C248.964,213.399 248.87599999999998,213.503 248.79199999999997,213.659 C248.709,213.794 248.60500000000002,213.904 248.48000000000002,213.987 C248.397,214.07 248.29000000000002,214.112 248.16000000000003,214.112 C248.029,214.112 247.923,214.065 247.839,213.971 C247.74599999999998,213.878 247.699,213.753 247.699,213.596" />
<path d="M248.527,227.518 L248.527,229.065 C248.527,229.617 248.553,230.055 248.60500000000002,230.378 C249.03199999999998,230.013 249.339,229.742 249.527,229.565 C249.735,229.357 249.94299999999998,229.068 250.152,228.698 C250.36,228.328 250.464,227.961 250.464,227.596 C250.464,227.232 250.38600000000002,226.919 250.23000000000002,226.659 C250.074,226.399 249.865,226.268 249.60500000000002,226.268 C249.29199999999997,226.268 249.03199999999998,226.388 248.824,226.628 C248.62599999999998,226.888 248.527,227.185 248.527,227.518 M247.699,231.096 L247.449,219.206 C247.63600000000002,219.102 247.82100000000003,219.05 248.003,219.05 C248.18599999999998,219.05 248.365,219.102 248.54199999999997,219.206 L248.38600000000002,226.096 C248.91699999999997,225.638 249.53199999999998,225.409 250.23000000000002,225.409 C250.73000000000002,225.409 251.149,225.617 251.488,226.034 C251.82600000000002,226.451 251.99599999999998,226.93 251.99599999999998,227.471 C251.99599999999998,227.805 251.88600000000002,228.164 251.66699999999997,228.55 C251.459,228.893 251.24,229.164 251.01100000000002,229.362 C250.87599999999998,229.466 250.54199999999997,229.727 250.01100000000002,230.143 C249.85500000000002,230.258 249.67000000000002,230.393 249.45600000000002,230.55 C249.243,230.706 249.11,230.805 249.058,230.846 C248.964,230.899 248.87599999999998,231.003 248.79199999999997,231.159 C248.709,231.294 248.60500000000002,231.404 248.48000000000002,231.487 C248.397,231.57 248.29000000000002,231.612 248.16000000000003,231.612 C248.029,231.612 247.923,231.565 247.839,231.471 C247.74599999999998,231.378 247.699,231.253 247.699,231.096" />
<path d="M248.527,245.018 L248.527,246.565 C248.527,247.117 248.553,247.555 248.60500000000002,247.878 C249.03199999999998,247.513 249.339,247.242 249.527,247.065 C249.735,246.857 249.94299999999998,246.568 250.152,246.198 C250.36,245.828 250.464,245.461 250.464,245.096 C250.464,244.732 250.38600000000002,244.419 250.23000000000002,244.159 C250.074,243.899 249.865,243.768 249.60500000000002,243.768 C249.29199999999997,243.768 249.03199999999998,243.888 248.824,244.128 C248.62599999999998,244.388 248.527,244.685 248.527,245.018 M247.699,248.596 L247.449,236.706 C247.63600000000002,236.602 247.82100000000003,236.55 248.003,236.55 C248.18599999999998,236.55 248.365,236.602 248.54199999999997,236.706 L248.38600000000002,243.596 C248.91699999999997,243.138 249.53199999999998,242.909 250.23000000000002,242.909 C250.73000000000002,242.909 251.149,243.117 251.488,243.534 C251.82600000000002,243.951 251.99599999999998,244.43 251.99599999999998,244.971 C251.99599999999998,245.305 251.88600000000002,245.664 251.66699999999997,246.05 C251.459,246.393 251.24,246.664 251.01100000000002,246.862 C250.87599999999998,246.966 250.54199999999997,247.227 250.01100000000002,247.643 C249.85500000000002,247.758 249.67000000000002,247.893 249.45600000000002,248.05 C249.243,248.206 249.11,248.305 249.058,248.346 C248.964,248.399 248.87599999999998,248.503 248.79199999999997,248.659 C248.709,248.794 248.60500000000002,248.904 248.48000000000002,248.987 C248.397,249.07 248.29000000000002,249.112 248.16000000000003,249.112 C248.029,249.112 247.923,249.065 247.839,248.971 C247.74599999999998,248.878 247.699,248.753 247.699,248.596" />
<path d="M148.19600000000003,222.081 C148.19600000000003,222.331 148.07299999999998,222.456 147.829,222.456 C147.584,222.456 147.461,222.331 147.461,222.081 L147.461,219.19 L145.805,219.815 L145.805,222.971 C145.805,223.221 145.68,223.346 145.43,223.346 C145.18,223.346 145.055,223.221 145.055,222.971 L145.055,220.065 L144.43,220.3 C144.42000000000002,220.31 144.368,220.315 144.274,220.315 C144.17000000000002,220.315 144.079,220.276 144.00099999999998,220.198 C143.92200000000003,220.12 143.88299999999998,220.029 143.88299999999998,219.925 L143.88299999999998,218.721 C143.88299999999998,218.524 143.96699999999998,218.399 144.13299999999998,218.346 L145.055,218.034 L145.055,214.831 L144.43,215.05 C144.42000000000002,215.06 144.368,215.065 144.274,215.065 C144.17000000000002,215.065 144.079,215.026 144.00099999999998,214.948 C143.92200000000003,214.87 143.88299999999998,214.779 143.88299999999998,214.675 L143.88299999999998,213.456 C143.88299999999998,213.279 143.96699999999998,213.164 144.13299999999998,213.112 L145.055,212.753 L145.055,209.612 C145.055,209.362 145.18,209.237 145.43,209.237 C145.68,209.237 145.805,209.362 145.805,209.612 L145.805,212.503 L147.461,211.878 L147.461,208.721 C147.461,208.471 147.584,208.346 147.829,208.346 C148.07299999999998,208.346 148.19600000000003,208.471 148.19600000000003,208.721 L148.19600000000003,211.628 L148.85199999999998,211.393 C148.863,211.383 148.904,211.378 148.97699999999998,211.378 C149.07100000000003,211.378 149.17000000000002,211.414 149.274,211.487 C149.35700000000003,211.57 149.399,211.664 149.399,211.768 L149.399,212.971 C149.399,213.159 149.305,213.284 149.118,213.346 L148.19600000000003,213.659 L148.19600000000003,216.862 L148.85199999999998,216.643 C148.863,216.633 148.904,216.628 148.97699999999998,216.628 C149.07100000000003,216.628 149.17000000000002,216.669 149.274,216.753 C149.35700000000003,216.826 149.399,216.914 149.399,217.018 L149.399,218.237 C149.399,218.404 149.305,218.518 149.118,218.581 L148.19600000000003,218.94 L148.19600000000003,222.081 M147.461,213.956 L145.805,214.534 L145.805,217.737 L147.461,217.159 L147.461,213.956" />
<path d="M139.27100000000002,220.018 L139.27100000000002,221.565 C139.27100000000002,222.117 139.29700000000003,222.555 139.349,222.878 C139.776,222.513 140.08300000000003,222.242 140.27100000000002,222.065 C140.47899999999998,221.857 140.688,221.568 140.89600000000002,221.198 C141.10399999999998,220.828 141.20800000000003,220.461 141.20800000000003,220.096 C141.20800000000003,219.732 141.13,219.419 140.974,219.159 C140.81799999999998,218.899 140.60899999999998,218.768 140.349,218.768 C140.036,218.768 139.776,218.888 139.56799999999998,219.128 C139.37,219.388 139.27100000000002,219.685 139.27100000000002,220.018 M138.44299999999998,223.596 L138.19299999999998,211.706 C138.38,211.602 138.565,211.55 138.747,211.55 C138.93,211.55 139.10899999999998,211.602 139.286,211.706 L139.13,218.596 C139.661,218.138 140.276,217.909 140.974,217.909 C141.474,217.909 141.89299999999997,218.117 142.23200000000003,218.534 C142.57,218.951 142.74,219.43 142.74,219.971 C142.74,220.305 142.63,220.664 142.411,221.05 C142.20299999999997,221.393 141.98399999999998,221.664 141.755,221.862 C141.62,221.966 141.286,222.227 140.755,222.643 C140.599,222.758 140.414,222.893 140.20100000000002,223.05 C139.98700000000002,223.206 139.85399999999998,223.305 139.80200000000002,223.346 C139.70800000000003,223.399 139.62,223.503 139.536,223.659 C139.45299999999997,223.794 139.349,223.904 139.224,223.987 C139.14100000000002,224.07 139.034,224.112 138.904,224.112 C138.77300000000002,224.112 138.66699999999997,224.065 138.58300000000003,223.971 C138.49,223.878 138.44299999999998,223.753 138.44299999999998,223.596" />
<path d="M148.19600000000003,239.581 C148.19600000000003,239.831 148.07299999999998,239.956 147.829,239.956 C147.584,239.956 147.461,239.831 147.461,239.581 L147.461,236.69 L145.805,237.315 L145.805,240.471 C145.805,240.721 145.68,240.846 145.43,240.846 C145.18,240.846 145.055,240.721 145.055,240.471 L145.055,237.565 L144.43,237.8 C144.42000000000002,237.81 144.368,237.815 144.274,237.815 C144.17000000000002,237.815 144.079,237.776 144.00099999999998,237.698 C143.92200000000003,237.62 143.88299999999998,237.529 143.88299999999998,237.425 L143.88299999999998,236.221 C143.88299999999998,236.024 143.96699999999998,235.899 144.13299999999998,235.846 L145.055,235.534 L145.055,232.331 L144.43,232.55 C144.42000000000002,232.56 144.368,232.565 144.274,232.565 C144.17000000000002,232.565 144.079,232.526 144.00099999999998,232.448 C143.92200000000003,232.37 143.88299999999998,232.279 143.88299999999998,232.175 L143.88299999999998,230.956 C143.88299999999998,230.779 143.96699999999998,230.664 144.13299999999998,230.612 L145.055,230.253 L145.055,227.112 C145.055,226.862 145.18,226.737 145.43,226.737 C145.68,226.737 145.805,226.862 145.805,227.112 L145.805,230.003 L147.461,229.378 L147.461,226.221 C147.461,225.971 147.584,225.846 147.829,225.846 C148.07299999999998,225.846 148.19600000000003,225.971 148.19600000000003,226.221 L148.19600000000003,229.128 L148.85199999999998,228.893 C148.863,228.883 148.904,228.878 148.97699999999998,228.878 C149.07100000000003,228.878 149.17000000000002,228.914 149.274,228.987 C149.35700000000003,229.07 149.399,229.164 149.399,229.268 L149.399,230.471 C149.399,230.659 149.305,230.784 149.118,230.846 L148.19600000000003,231.159 L148.19600000000003,234.362 L148.85199999999998,234.143 C148.863,234.133 148.904,234.128 148.97699999999998,234.128 C149.07100000000003,234.128 149.17000000000002,234.169 149.274,234.253 C149.35700000000003,234.326 149.399,234.414 149.399,234.518 L149.399,235.737 C149.399,235.904 149.305,236.018 149.118,236.081 L148.19600000000003,236.44 L148.19600000000003,239.581 M147.461,231.456 L145.805,232.034 L145.805,235.237 L147.461,234.659 L147.461,231.456" />
<path d="M139.27100000000002,237.518 L139.27100000000002,239.065 C139.27100000000002,239.617 139.29700000000003,240.055 139.349,240.378 C139.776,240.013 140.08300000000003,239.742 140.27100000000002,239.565 C140.47899999999998,239.357 140.688,239.068 140.89600000000002,238.698 C141.10399999999998,238.328 141.20800000000003,237.961 141.20800000000003,237.596 C141.20800000000003,237.232 141.13,236.919 140.974,236.659 C140.81799999999998,236.399 140.60899999999998,236.268 140.349,236.268 C140.036,236.268 139.776,236.388 139.56799999999998,236.628 C139.37,236.888 139.27100000000002,237.185 139.27100000000002,237.518 M138.44299999999998,241.096 L138.19299999999998,229.206 C138.38,229.102 138.565,229.05 138.747,229.05 C138.93,229.05 139.10899999999998,229.102 139.286,229.206 L139.13,236.096 C139.661,235.638 140.276,235.409 140.974,235.409 C141.474,235.409 141.89299999999997,235.617 142.23200000000003,236.034 C142.57,236.451 142.74,236.93 142.74,237.471 C142.74,237.805 142.63,238.164 142.411,238.55 C142.20299999999997,238.893 141.98399999999998,239.164 141.755,239.362 C141.62,239.466 141.286,239.727 140.755,240.143 C140.599,240.258 140.414,240.393 140.20100000000002,240.55 C139.98700000000002,240.706 139.85399999999998,240.805 139.80200000000002,240.846 C139.70800000000003,240.899 139.62,241.003 139.536,241.159 C139.45299999999997,241.294 139.349,241.404 139.224,241.487 C139.14100000000002,241.57 139.034,241.612 138.904,241.612 C138.77300000000002,241.612 138.66699999999997,241.565 138.58300000000003,241.471 C138.49,241.378 138.44299999999998,241.253 138.44299999999998,241.096" />
<path d="M112.06,222.081 C112.06,222.331 111.93799999999999,222.456 111.69299999999998,222.456 C111.44799999999998,222.456 111.32600000000002,222.331 111.32600000000002,222.081 L111.32600000000002,219.19 L109.66899999999998,219.815 L109.66899999999998,222.971 C109.66899999999998,223.221 109.54399999999998,223.346 109.29399999999998,223.346 C109.04399999999998,223.346 108.91899999999998,223.221 108.91899999999998,222.971 L108.91899999999998,220.065 L108.29399999999998,220.3 C108.28399999999999,220.31 108.23200000000003,220.315 108.13799999999998,220.315 C108.03399999999999,220.315 107.94299999999998,220.276 107.86500000000001,220.198 C107.78699999999998,220.12 107.74799999999999,220.029 107.74799999999999,219.925 L107.74799999999999,218.721 C107.74799999999999,218.524 107.83100000000002,218.399 107.99799999999999,218.346 L108.91899999999998,218.034 L108.91899999999998,214.831 L108.29399999999998,215.05 C108.28399999999999,215.06 108.23200000000003,215.065 108.13799999999998,215.065 C108.03399999999999,215.065 107.94299999999998,215.026 107.86500000000001,214.948 C107.78699999999998,214.87 107.74799999999999,214.779 107.74799999999999,214.675 L107.74799999999999,213.456 C107.74799999999999,213.279 107.83100000000002,213.164 107.99799999999999,213.112 L108.91899999999998,212.753 L108.91899999999998,209.612 C108.91899999999998,209.362 109.04399999999998,209.237 109.29399999999998,209.237 C109.54399999999998,209.237 109.66899999999998,209.362 109.66899999999998,209.612 L109.66899999999998,212.503 L111.32600000000002,211.878 L111.32600000000002,208.721 C111.32600000000002,208.471 111.44799999999998,208.346 111.69299999999998,208.346 C111.93799999999999,208.346 112.06,208.471 112.06,208.721 L112.06,211.628 L112.71600000000001,211.393 C112.72699999999998,211.383 112.76799999999997,211.378 112.84100000000001,211.378 C112.935,211.378 113.03399999999999,211.414 113.13799999999998,211.487 C113.22199999999998,211.57 113.26299999999998,211.664 113.26299999999998,211.768 L113.26299999999998,212.971 C113.26299999999998,213.159 113.16899999999998,213.284 112.98200000000003,213.346 L112.06,213.659 L112.06,216.862 L112.71600000000001,216.643 C112.72699999999998,216.633 112.76799999999997,216.628 112.84100000000001,216.628 C112.935,216.628 113.03399999999999,216.669 113.13799999999998,216.753 C113.22199999999998,216.826 113.26299999999998,216.914 113.26299999999998,217.018 L113.26299999999998,218.237 C113.26299999999998,218.404 113.16899999999998,218.518 112.98200000000003,218.581 L112.06,218.94 L112.06,222.081 M111.32600000000002,213.956 L109.66899999999998,214.534 L109.66899999999998,217.737 L111.32600000000002,217.159 L111.32600000000002,213.956" />
<path d="M112.06,239.581 C112.06,239.831 111.93799999999999,239.956 111.69299999999998,239.956 C111.44799999999998,239.956 111.32600000000002,239.831 111.32600000000002,239.581 L111.32600000000002,236.69 L109.66899999999998,237.315 L109.66899999999998,240.471 C109.66899999999998,240.721 109.54399999999998,240.846 109.29399999999998,240.846 C109.04399999999998,240.846 108.91899999999998,240.721 108.91899999999998,240.471 L108.91899999999998,237.565 L108.29399999999998,237.8 C108.28399999999999,237.81 108.23200000000003,237.815 108.13799999999998,237.815 C108.03399999999999,237.815 107.94299999999998,237.776 107.86500000000001,237.698 C107.78699999999998,237.62 107.74799999999999,237.529 107.74799999999999,237.425 L107.74799999999999,236.221 C107.74799999999999,236.024 107.83100000000002,235.899 107.99799999999999,235.846 L108.91899999999998,235.534 L108.91899999999998,232.331 L108.29399999999998,232.55 C108.28399999999999,232.56 108.23200000000003,232.565 108.13799999999998,232.565 C108.03399999999999,232.565 107.94299999999998,232.526 107.86500000000001,232.448 C107.78699999999998,232.37 107.74799999999999,232.279 107.74799999999999,232.175 L107.74799999999999,230.956 C107.74799999999999,230.779 107.83100000000002,230.664 107.99799999999999,230.612 L108.91899999999998,230.253 L108.91899999999998,227.112 C108.91899999999998,226.862 109.04399999999998,226.737 109.29399999999998,226.737 C109.54399999999998,226.737 109.66899999999998,226.862 109.66899999999998,227.112 L109.66899999999998,230.003 L111.32600000000002,229.378 L111.32600000000002,226.221 C111.32600000000002,225.971 111.44799999999998,225.846 111.69299999999998,225.846 C111.93799999999999,225.846 112.06,225.971 112.06,226.221 L112.06,229.128 L112.71600000000001,228.893 C112.72699999999998,228.883 112.76799999999997,228.878 112.84100000000001,228.878 C112.935,228.878 113.03399999999999,228.914 113.13799999999998,228.987 C113.22199999999998,229.07 113.26299999999998,229.164 113.26299999999998,229.268 L113.26299999999998,230.471 C113.26299999999998,230.659 113.16899999999998,230.784 112.98200000000003,230.846 L112.06,231.159 L112.06,234.362 L112.71600000000001,234.143 C112.72699999999998,234.133 112.76799999999997,234.128 112.84100000000001,234.128 C112.935,234.128 113.03399999999999,234.169 113.13799999999998,234.253 C113.22199999999998,234.326 113.26299999999998,234.414 113.26299999999998,234.518 L113.26299999999998,235.737 C113.26299999999998,235.904 113.16899999999998,236.018 112.98200000000003,236.081 L112.06,236.44 L112.06,239.581 M111.32600000000002,231.456 L109.66899999999998,232.034 L109.66899999999998,235.237 L111.32600000000002,234.659 L111.32600000000002,231.456" />
<path d="M103.13499999999999,237.518 L103.13499999999999,239.065 C103.13499999999999,239.617 103.161,240.055 103.21300000000002,240.378 C103.63999999999999,240.013 103.94799999999998,239.742 104.13499999999999,239.565 C104.34300000000002,239.357 104.55200000000002,239.068 104.75999999999999,238.698 C104.96800000000002,238.328 105.07299999999998,237.961 105.07299999999998,237.596 C105.07299999999998,237.232 104.99400000000003,236.919 104.83800000000002,236.659 C104.68200000000002,236.399 104.47399999999999,236.268 104.21300000000002,236.268 C103.90100000000001,236.268 103.63999999999999,236.388 103.43200000000002,236.628 C103.23399999999998,236.888 103.13499999999999,237.185 103.13499999999999,237.518 M102.30700000000002,241.096 L102.05700000000002,229.206 C102.24400000000003,229.102 102.42899999999997,229.05 102.61200000000002,229.05 C102.79399999999998,229.05 102.97399999999999,229.102 103.15100000000001,229.206 L102.99400000000003,236.096 C103.52600000000001,235.638 104.13999999999999,235.409 104.83800000000002,235.409 C105.33800000000002,235.409 105.757,235.617 106.096,236.034 C106.435,236.451 106.60399999999998,236.93 106.60399999999998,237.471 C106.60399999999998,237.805 106.49400000000003,238.164 106.27600000000001,238.55 C106.06700000000001,238.893 105.84899999999999,239.164 105.61900000000003,239.362 C105.48399999999998,239.466 105.15100000000001,239.727 104.61900000000003,240.143 C104.46300000000002,240.258 104.27800000000002,240.393 104.065,240.55 C103.851,240.706 103.71800000000002,240.805 103.666,240.846 C103.57299999999998,240.899 103.48399999999998,241.003 103.40100000000001,241.159 C103.31700000000001,241.294 103.21300000000002,241.404 103.08800000000002,241.487 C103.005,241.57 102.89800000000002,241.612 102.76799999999997,241.612 C102.63799999999998,241.612 102.531,241.565 102.44799999999998,241.471 C102.35399999999998,241.378 102.30700000000002,241.253 102.30700000000002,241.096" />
<path d="M68.07400000000001,210.018 L68.07400000000001,211.565 C68.07400000000001,212.117 68.10000000000002,212.555 68.15199999999999,212.878 C68.57999999999998,212.513 68.887,212.242 69.07400000000001,212.065 C69.28300000000002,211.857 69.49099999999999,211.568 69.69900000000001,211.198 C69.90800000000002,210.828 70.012,210.461 70.012,210.096 C70.012,209.732 69.93400000000003,209.419 69.77699999999999,209.159 C69.62099999999998,208.899 69.41300000000001,208.768 69.15199999999999,208.768 C68.83999999999997,208.768 68.57999999999998,208.888 68.37099999999998,209.128 C68.173,209.388 68.07400000000001,209.685 68.07400000000001,210.018 M67.24599999999998,213.596 L66.99599999999998,201.706 C67.18400000000003,201.602 67.36900000000003,201.55 67.55099999999999,201.55 C67.733,201.55 67.91300000000001,201.602 68.08999999999997,201.706 L67.93400000000003,208.596 C68.46499999999997,208.138 69.07999999999998,207.909 69.77699999999999,207.909 C70.27699999999999,207.909 70.697,208.117 71.03500000000003,208.534 C71.37400000000002,208.951 71.543,209.43 71.543,209.971 C71.543,210.305 71.43400000000003,210.664 71.21499999999997,211.05 C71.007,211.393 70.78800000000001,211.664 70.55900000000003,211.862 C70.423,211.966 70.08999999999997,212.227 69.55900000000003,212.643 C69.40199999999999,212.758 69.21800000000002,212.893 69.00400000000002,213.05 C68.79000000000002,213.206 68.65800000000002,213.305 68.606,213.346 C68.512,213.399 68.423,213.503 68.33999999999997,213.659 C68.257,213.794 68.15199999999999,213.904 68.02699999999999,213.987 C67.94400000000002,214.07 67.83699999999999,214.112 67.707,214.112 C67.577,214.112 67.47000000000003,214.065 67.387,213.971 C67.293,213.878 67.24599999999998,213.753 67.24599999999998,213.596" />
<path d="M68.07400000000001,227.518 L68.07400000000001,229.065 C68.07400000000001,229.617 68.10000000000002,230.055 68.15199999999999,230.378 C68.57999999999998,230.013 68.887,229.742 69.07400000000001,229.565 C69.28300000000002,229.357 69.49099999999999,229.068 69.69900000000001,228.698 C69.90800000000002,228.328 70.012,227.961 70.012,227.596 C70.012,227.232 69.93400000000003,226.919 69.77699999999999,226.659 C69.62099999999998,226.399 69.41300000000001,226.268 69.15199999999999,226.268 C68.83999999999997,226.268 68.57999999999998,226.388 68.37099999999998,226.628 C68.173,226.888 68.07400000000001,227.185 68.07400000000001,227.518 M67.24599999999998,231.096 L66.99599999999998,219.206 C67.18400000000003,219.102 67.36900000000003,219.05 67.55099999999999,219.05 C67.733,219.05 67.91300000000001,219.102 68.08999999999997,219.206 L67.93400000000003,226.096 C68.46499999999997,225.638 69.07999999999998,225.409 69.77699999999999,225.409 C70.27699999999999,225.409 70.697,225.617 71.03500000000003,226.034 C71.37400000000002,226.451 71.543,226.93 71.543,227.471 C71.543,227.805 71.43400000000003,228.164 71.21499999999997,228.55 C71.007,228.893 70.78800000000001,229.164 70.55900000000003,229.362 C70.423,229.466 70.08999999999997,229.727 69.55900000000003,230.143 C69.40199999999999,230.258 69.21800000000002,230.393 69.00400000000002,230.55 C68.79000000000002,230.706 68.65800000000002,230.805 68.606,230.846 C68.512,230.899 68.423,231.003 68.33999999999997,231.159 C68.257,231.294 68.15199999999999,231.404 68.02699999999999,231.487 C67.94400000000002,231.57 67.83699999999999,231.612 67.707,231.612 C67.577,231.612 67.47000000000003,231.565 67.387,231.471 C67.293,231.378 67.24599999999998,231.253 67.24599999999998,231.096" />
<path d="M68.07400000000001,245.018 L68.07400000000001,246.565 C68.07400000000001,247.117 68.10000000000002,247.555 68.15199999999999,247.878 C68.57999999999998,247.513 68.887,247.242 69.07400000000001,247.065 C69.28300000000002,246.857 69.49099999999999,246.568 69.69900000000001,246.198 C69.90800000000002,245.828 70.012,245.461 70.012,245.096 C70.012,244.732 69.93400000000003,244.419 69.77699999999999,244.159 C69.62099999999998,243.899 69.41300000000001,243.768 69.15199999999999,243.768 C68.83999999999997,243.768 68.57999999999998,243.888 68.37099999999998,244.128 C68.173,244.388 68.07400000000001,244.685 68.07400000000001,245.018 M67.24599999999998,248.596 L66.99599999999998,236.706 C67.18400000000003,236.602 67.36900000000003,236.55 67.55099999999999,236.55 C67.733,236.55 67.91300000000001,236.602 68.08999999999997,236.706 L67.93400000000003,243.596 C68.46499999999997,243.138 69.07999999999998,242.909 69.77699999999999,242.909 C70.27699999999999,242.909 70.697,243.117 71.03500000000003,243.534 C71.37400000000002,243.951 71.543,244.43 71.543,244.971 C71.543,245.305 71.43400000000003,245.664 71.21499999999997,246.05 C71.007,246.393 70.78800000000001,246.664 70.55900000000003,246.862 C70.423,246.966 70.08999999999997,247.227 69.55900000000003,247.643 C69.40199999999999,247.758 69.21800000000002,247.893 69.00400000000002,248.05 C68.79000000000002,248.206 68.65800000000002,248.305 68.606,248.346 C68.512,248.399 68.423,248.503 68.33999999999997,248.659 C68.257,248.794 68.15199999999999,248.904 68.02699999999999,248.987 C67.94400000000002,249.07 67.83699999999999,249.112 67.707,249.112 C67.577,249.112 67.47000000000003,249.065 67.387,248.971 C67.293,248.878 67.24599999999998,248.753 67.24599999999998,248.596" />
<path d="M197.87400000000002,213.096 C198.49900000000002,213.096 199.02999999999997,213.258 199.46800000000002,213.581 C199.86399999999998,213.935 200.062,214.378 200.062,214.909 C200.062,215.805 199.603,216.643 198.687,217.425 C197.74900000000002,218.206 196.74400000000003,218.596 195.671,218.596 C195.046,218.596 194.51999999999998,218.435 194.09300000000002,218.112 C193.687,217.758 193.48399999999998,217.315 193.48399999999998,216.784 C193.48399999999998,215.888 193.952,215.05 194.89,214.268 C195.80599999999998,213.487 196.801,213.096 197.87400000000002,213.096" />
<path d="M197.87400000000002,218.096 C198.49900000000002,218.096 199.02999999999997,218.258 199.46800000000002,218.581 C199.86399999999998,218.935 200.062,219.378 200.062,219.909 C200.062,220.805 199.603,221.643 198.687,222.425 C197.74900000000002,223.206 196.74400000000003,223.596 195.671,223.596 C195.046,223.596 194.51999999999998,223.435 194.09300000000002,223.112 C193.687,222.758 193.48399999999998,222.315 193.48399999999998,221.784 C193.48399999999998,220.888 193.952,220.05 194.89,219.268 C195.80599999999998,218.487 196.801,218.096 197.87400000000002,218.096" />
<path d="M197.87400000000002,223.096 C198.49900000000002,223.096 199.02999999999997,223.258 199.46800000000002,223.581 C199.86399999999998,223.935 200.062,224.378 200.062,224.909 C200.062,225.805 199.603,226.643 198.687,227.425 C197.74900000000002,228.206 196.74400000000003,228.596 195.671,228.596 C195.046,228.596 194.51999999999998,228.435 194.09300000000002,228.112 C193.687,227.758 193.48399999999998,227.315 193.48399999999998,226.784 C193.48399999999998,225.888 193.952,225.05 194.89,224.268 C195.80599999999998,223.487 196.801,223.096 197.87400000000002,223.096" />
<path d="M197.87400000000002,230.596 C198.49900000000002,230.596 199.02999999999997,230.758 199.46800000000002,231.081 C199.86399999999998,231.435 200.062,231.878 200.062,232.409 C200.062,233.305 199.603,234.143 198.687,234.925 C197.74900000000002,235.706 196.74400000000003,236.096 195.671,236.096 C195.046,236.096 194.51999999999998,235.935 194.09300000000002,235.612 C193.687,235.258 193.48399999999998,234.815 193.48399999999998,234.284 C193.48399999999998,233.388 193.952,232.55 194.89,231.768 C195.80599999999998,230.987 196.801,230.596 197.87400000000002,230.596" />
<path d="M197.87400000000002,235.596 C198.49900000000002,235.596 199.02999999999997,235.758 199.46800000000002,236.081 C199.86399999999998,236.435 200.062,236.878 200.062,237.409 C200.062,238.305 199.603,239.143 198.687,239.925 C197.74900000000002,240.706 196.74400000000003,241.096 195.671,241.096 C195.046,241.096 194.51999999999998,240.935 194.09300000000002,240.612 C193.687,240.258 193.48399999999998,239.815 193.48399999999998,239.284 C193.48399999999998,238.388 193.952,237.55 194.89,236.768 C195.80599999999998,235.987 196.801,235.596 197.87400000000002,235.596" />
<path d="M197.87400000000002,248.096 C198.49900000000002,248.096 199.02999999999997,248.258 199.46800000000002,248.581 C199.86399999999998,248.935 200.062,249.378 200.062,249.909 C200.062,250.805 199.603,251.643 198.687,252.425 C197.74900000000002,253.206 196.74400000000003,253.596 195.671,253.596 C195.046,253.596 194.51999999999998,253.435 194.09300000000002,253.112 C193.687,252.758 193.48399999999998,252.315 193.48399999999998,251.784 C193.48399999999998,250.888 193.952,250.05 194.89,249.268 C195.80599999999998,248.487 196.801,248.096 197.87400000000002,248.096" />
<path d="M174.54500000000002,213.096 C175.17000000000002,213.096 175.70100000000002,213.258 176.139,213.581 C176.53500000000003,213.935 176.733,214.378 176.733,214.909 C176.733,215.805 176.274,216.643 175.358,217.425 C174.42000000000002,218.206 173.41500000000002,218.596 172.34199999999998,218.596 C171.71699999999998,218.596 171.19099999999997,218.435 170.764,218.112 C170.358,217.758 170.154,217.315 170.154,216.784 C170.154,215.888 170.623,215.05 171.56099999999998,214.268 C172.47699999999998,213.487 173.47199999999998,213.096 174.54500000000002,213.096" />
<path d="M174.54500000000002,218.096 C175.17000000000002,218.096 175.70100000000002,218.258 176.139,218.581 C176.53500000000003,218.935 176.733,219.378 176.733,219.909 C176.733,220.805 176.274,221.643 175.358,222.425 C174.42000000000002,223.206 173.41500000000002,223.596 172.34199999999998,223.596 C171.71699999999998,223.596 171.19099999999997,223.435 170.764,223.112 C170.358,222.758 170.154,222.315 170.154,221.784 C170.154,220.888 170.623,220.05 171.56099999999998,219.268 C172.47699999999998,218.487 173.47199999999998,218.096 174.54500000000002,218.096" />
<path d="M174.54500000000002,223.096 C175.17000000000002,223.096 175.70100000000002,223.258 176.139,223.581 C176.53500000000003,223.935 176.733,224.378 176.733,224.909 C176.733,225.805 176.274,226.643 175.358,227.425 C174.42000000000002,228.206 173.41500000000002,228.596 172.34199999999998,228.596 C171.71699999999998,228.596 171.19099999999997,228.435 170.764,228.112 C170.358,227.758 170.154,227.315 170.154,226.784 C170.154,225.888 170.623,225.05 171.56099999999998,224.268 C172.47699999999998,223.487 173.47199999999998,223.096 174.54500000000002,223.096" />
<path d="M174.54500000000002,230.596 C175.17000000000002,230.596 175.70100000000002,230.758 176.139,231.081 C176.53500000000003,231.435 176.733,231.878 176.733,232.409 C176.733,233.305 176.274,234.143 175.358,234.925 C174.42000000000002,235.706 173.41500000000002,236.096 172.34199999999998,236.096 C171.71699999999998,236.096 171.19099999999997,235.935 170.764,235.612 C170.358,235.258 170.154,234.815 170.154,234.284 C170.154,233.388 170.623,232.55 171.56099999999998,231.768 C172.47699999999998,230.987 173.47199999999998,230.596 174.54500000000002,230.596" />
<path d="M174.54500000000002,235.596 C175.17000000000002,235.596 175.70100000000002,235.758 176.139,236.081 C176.53500000000003,236.435 176.733,236.878 176.733,237.409 C176.733,238.305 176.274,239.143 175.358,239.925 C174.42000000000002,240.706 173.41500000000002,241.096 172.34199999999998,241.096 C171.71699999999998,241.096 171.19099999999997,240.935 170.764,240.612 C170.358,240.258 170.154,239.815 170.154,239.284 C170.154,238.388 170.623,237.55 171.56099999999998,236.768 C172.47699999999998,235.987 173.47199999999998,235.596 174.54500000000002,235.596" />
<path d="M174.54500000000002,248.096 C175.17000000000002,248.096 175.70100000000002,248.258 176.139,248.581 C176.53500000000003,248.935 176.733,249.378 176.733,249.909 C176.733,250.805 176.274,251.643 175.358,252.425 C174.42000000000002,253.206 173.41500000000002,253.596 172.34199999999998,253.596 C171.71699999999998,253.596 171.19099999999997,253.435 170.764,253.112 C170.358,252.758 170.154,252.315 170.154,251.784 C170.154,250.888 170.623,250.05 171.56099999999998,249.268 C172.47699999999998,248.487 173.47199999999998,248.096 174.54500000000002,248.096" />
<path d="M155.882,213.096 C156.507,213.096 157.038,213.258 157.476,213.581 C157.87099999999998,213.935 158.06900000000002,214.378 158.06900000000002,214.909 C158.06900000000002,215.805 157.611,216.643 156.69400000000002,217.425 C155.757,218.206 154.752,218.596 153.67899999999997,218.596 C153.05399999999997,218.596 152.52800000000002,218.435 152.101,218.112 C151.69400000000002,217.758 151.49099999999999,217.315 151.49099999999999,216.784 C151.49099999999999,215.888 151.95999999999998,215.05 152.897,214.268 C153.81400000000002,213.487 154.80900000000003,213.096 155.882,213.096" />
<path d="M155.882,218.096 C156.507,218.096 157.038,218.258 157.476,218.581 C157.87099999999998,218.935 158.06900000000002,219.378 158.06900000000002,219.909 C158.06900000000002,220.805 157.611,221.643 156.69400000000002,222.425 C155.757,223.206 154.752,223.596 153.67899999999997,223.596 C153.05399999999997,223.596 152.52800000000002,223.435 152.101,223.112 C151.69400000000002,222.758 151.49099999999999,222.315 151.49099999999999,221.784 C151.49099999999999,220.888 151.95999999999998,220.05 152.897,219.268 C153.81400000000002,218.487 154.80900000000003,218.096 155.882,218.096" />
<path d="M155.882,223.096 C156.507,223.096 157.038,223.258 157.476,223.581 C157.87099999999998,223.935 158.06900000000002,224.378 158.06900000000002,224.909 C158.06900000000002,225.805 157.611,226.643 156.69400000000002,227.425 C155.757,228.206 154.752,228.596 153.67899999999997,228.596 C153.05399999999997,228.596 152.52800000000002,228.435 152.101,228.112 C151.69400000000002,227.758 151.49099999999999,227.315 151.49099999999999,226.784 C151.49099999999999,225.888 151.95999999999998,225.05 152.897,224.268 C153.81400000000002,223.487 154.80900000000003,223.096 155.882,223.096" />
<path d="M155.882,230.596 C156.507,230.596 157.038,230.758 157.476,231.081 C157.87099999999998,231.435 158.06900000000002,231.878 158.06900000000002,232.409 C158.06900000000002,233.305 157.611,234.143 156.69400000000002,234.925 C155.757,235.706 154.752,236.096 153.67899999999997,236.096 C153.05399999999997,236.096 152.52800000000002,235.935 152.101,235.612 C151.69400000000002,235.258 151.49099999999999,234.815 151.49099999999999,234.284 C151.49099999999999,233.388 151.95999999999998,232.55 152.897,231.768 C153.81400000000002,230.987 154.80900000000003,230.596 155.882,230.596" />
<path d="M155.882,235.596 C156.507,235.596 157.038,235.758 157.476,236.081 C157.87099999999998,236.435 158.06900000000002,236.878 158.06900000000002,237.409 C158.06900000000002,238.305 157.611,239.143 156.69400000000002,239.925 C155.757,240.706 154.752,241.096 153.67899999999997,241.096 C153.05399999999997,241.096 152.52800000000002,240.935 152.101,240.612 C151.69400000000002,240.258 151.49099999999999,239.815 151.49099999999999,239.284 C151.49099999999999,238.388 151.95999999999998,237.55 152.897,236.768 C153.81400000000002,235.987 154.80900000000003,235.596 155.882,235.596" />
<path d="M155.882,248.096 C156.507,248.096 157.038,248.258 157.476,248.581 C157.87099999999998,248.935 158.06900000000002,249.378 158.06900000000002,249.909 C158.06900000000002,250.805 157.611,251.643 156.69400000000002,252.425 C155.757,253.206 154.752,253.596 153.67899999999997,253.596 C153.05399999999997,253.596 152.52800000000002,253.435 152.101,253.112 C151.69400000000002,252.758 151.49099999999999,252.315 151.49099999999999,251.784 C151.49099999999999,250.888 151.95999999999998,250.05 152.897,249.268 C153.81400000000002,248.487 154.80900000000003,248.096 155.882,248.096" />
<path d="M119.74599999999998,213.096 C120.37099999999998,213.096 120.90199999999999,213.258 121.33999999999997,213.581 C121.73599999999999,213.935 121.93400000000003,214.378 121.93400000000003,214.909 C121.93400000000003,215.805 121.47500000000002,216.643 120.55900000000003,217.425 C119.62099999999998,218.206 118.61599999999999,218.596 117.543,218.596 C116.918,218.596 116.392,218.435 115.96499999999997,218.112 C115.55900000000003,217.758 115.35500000000002,217.315 115.35500000000002,216.784 C115.35500000000002,215.888 115.82400000000001,215.05 116.762,214.268 C117.678,213.487 118.673,213.096 119.74599999999998,213.096" />
<path d="M119.74599999999998,218.096 C120.37099999999998,218.096 120.90199999999999,218.258 121.33999999999997,218.581 C121.73599999999999,218.935 121.93400000000003,219.378 121.93400000000003,219.909 C121.93400000000003,220.805 121.47500000000002,221.643 120.55900000000003,222.425 C119.62099999999998,223.206 118.61599999999999,223.596 117.543,223.596 C116.918,223.596 116.392,223.435 115.96499999999997,223.112 C115.55900000000003,222.758 115.35500000000002,222.315 115.35500000000002,221.784 C115.35500000000002,220.888 115.82400000000001,220.05 116.762,219.268 C117.678,218.487 118.673,218.096 119.74599999999998,218.096" />
<path d="M119.74599999999998,223.096 C120.37099999999998,223.096 120.90199999999999,223.258 121.33999999999997,223.581 C121.73599999999999,223.935 121.93400000000003,224.378 121.93400000000003,224.909 C121.93400000000003,225.805 121.47500000000002,226.643 120.55900000000003,227.425 C119.62099999999998,228.206 118.61599999999999,228.596 117.543,228.596 C116.918,228.596 116.392,228.435 115.96499999999997,228.112 C115.55900000000003,227.758 115.35500000000002,227.315 115.35500000000002,226.784 C115.35500000000002,225.888 115.82400000000001,225.05 116.762,224.268 C117.678,223.487 118.673,223.096 119.74599999999998,223.096" />
<path d="M119.74599999999998,230.596 C120.37099999999998,230.596 120.90199999999999,230.758 121.33999999999997,231.081 C121.73599999999999,231.435 121.93400000000003,231.878 121.93400000000003,232.409 C121.93400000000003,233.305 121.47500000000002,234.143 120.55900000000003,234.925 C119.62099999999998,235.706 118.61599999999999,236.096 117.543,236.096 C116.918,236.096 116.392,235.935 115.96499999999997,235.612 C115.55900000000003,235.258 115.35500000000002,234.815 115.35500000000002,234.284 C115.35500000000002,233.388 115.82400000000001,232.55 116.762,231.768 C117.678,230.987 118.673,230.596 119.74599999999998,230.596" />
<path d="M119.74599999999998,235.596 C120.37099999999998,235.596 120.90199999999999,235.758 121.33999999999997,236.081 C121.73599999999999,236.435 121.93400000000003,236.878 121.93400000000003,237.409 C121.93400000000003,238.305 121.47500000000002,239.143 120.55900000000003,239.925 C119.62099999999998,240.706 118.61599999999999,241.096 117.543,241.096 C116.918,241.096 116.392,240.935 115.96499999999997,240.612 C115.55900000000003,240.258 115.35500000000002,239.815 115.35500000000002,239.284 C115.35500000000002,238.388 115.82400000000001,237.55 116.762,236.768 C117.678,235.987 118.673,235.596 119.74599999999998,235.596" />
<path d="M119.74599999999998,248.096 C120.37099999999998,248.096 120.90199999999999,248.258 121.33999999999997,248.581 C121.73599999999999,248.935 121.93400000000003,249.378 121.93400000000003,249.909 C121.93400000000003,250.805 121.47500000000002,251.643 120.55900000000003,252.425 C119.62099999999998,253.206 118.61599999999999,253.596 117.543,253.596 C116.918,253.596 116.392,253.435 115.96499999999997,253.112 C115.55900000000003,252.758 115.35500000000002,252.315 115.35500000000002,251.784 C115.35500000000002,250.888 115.82400000000001,250.05 116.762,249.268 C117.678,248.487 118.673,248.096 119.74599999999998,248.096" />
<path d="M97.67099999999999,208.096 C98.29599999999999,208.096 98.827,208.258 99.26499999999999,208.581 C99.661,208.935 99.85899999999998,209.378 99.85899999999998,209.909 C99.85899999999998,210.805 99.39999999999998,211.643 98.48399999999998,212.425 C97.54599999999999,213.206 96.541,213.596 95.46800000000002,213.596 C94.84300000000002,213.596 94.31700000000001,213.435 93.88999999999999,213.112 C93.48399999999998,212.758 93.27999999999997,212.315 93.27999999999997,211.784 C93.27999999999997,210.888 93.74900000000002,210.05 94.68700000000001,209.268 C95.60300000000001,208.487 96.59800000000001,208.096 97.67099999999999,208.096" />
<path d="M97.67099999999999,215.596 C98.29599999999999,215.596 98.827,215.758 99.26499999999999,216.081 C99.661,216.435 99.85899999999998,216.878 99.85899999999998,217.409 C99.85899999999998,218.305 99.39999999999998,219.143 98.48399999999998,219.925 C97.54599999999999,220.706 96.541,221.096 95.46800000000002,221.096 C94.84300000000002,221.096 94.31700000000001,220.935 93.88999999999999,220.612 C93.48399999999998,220.258 93.27999999999997,219.815 93.27999999999997,219.284 C93.27999999999997,218.388 93.74900000000002,217.55 94.68700000000001,216.768 C95.60300000000001,215.987 96.59800000000001,215.596 97.67099999999999,215.596" />
<path d="M97.67099999999999,220.596 C98.29599999999999,220.596 98.827,220.758 99.26499999999999,221.081 C99.661,221.435 99.85899999999998,221.878 99.85899999999998,222.409 C99.85899999999998,223.305 99.39999999999998,224.143 98.48399999999998,224.925 C97.54599999999999,225.706 96.541,226.096 95.46800000000002,226.096 C94.84300000000002,226.096 94.31700000000001,225.935 93.88999999999999,225.612 C93.48399999999998,225.258 93.27999999999997,224.815 93.27999999999997,224.284 C93.27999999999997,223.388 93.74900000000002,222.55 94.68700000000001,221.768 C95.60300000000001,220.987 96.59800000000001,220.596 97.67099999999999,220.596" />
<path d="M97.67099999999999,225.596 C98.29599999999999,225.596 98.827,225.758 99.26499999999999,226.081 C99.661,226.435 99.85899999999998,226.878 99.85899999999998,227.409 C99.85899999999998,228.305 99.39999999999998,229.143 98.48399999999998,229.925 C97.54599999999999,230.706 96.541,231.096 95.46800000000002,231.096 C94.84300000000002,231.096 94.31700000000001,230.935 93.88999999999999,230.612 C93.48399999999998,230.258 93.27999999999997,229.815 93.27999999999997,229.284 C93.27999999999997,228.388 93.74900000000002,227.55 94.68700000000001,226.768 C95.60300000000001,225.987 96.59800000000001,225.596 97.67099999999999,225.596" />
<path d="M97.67099999999999,233.096 C98.29599999999999,233.096 98.827,233.258 99.26499999999999,233.581 C99.661,233.935 99.85899999999998,234.378 99.85899999999998,234.909 C99.85899999999998,235.805 99.39999999999998,236.643 98.48399999999998,237.425 C97.54599999999999,238.206 96.541,238.596 95.46800000000002,238.596 C94.84300000000002,238.596 94.31700000000001,238.435 93.88999999999999,238.112 C93.48399999999998,237.758 93.27999999999997,237.315 93.27999999999997,236.784 C93.27999999999997,235.888 93.74900000000002,235.05 94.68700000000001,234.268 C95.60300000000001,233.487 96.59800000000001,233.096 97.67099999999999,233.096" />
<path d="M97.67099999999999,243.096 C98.29599999999999,243.096 98.827,243.258 99.26499999999999,243.581 C99.661,243.935 99.85899999999998,244.378 99.85899999999998,244.909 C99.85899999999998,245.805 99.39999999999998,246.643 98.48399999999998,247.425 C97.54599999999999,248.206 96.541,248.596 95.46800000000002,248.596 C94.84300000000002,248.596 94.31700000000001,248.435 93.88999999999999,248.112 C93.48399999999998,247.758 93.27999999999997,247.315 93.27999999999997,246.784 C93.27999999999997,245.888 93.74900000000002,245.05 94.68700000000001,244.268 C95.60300000000001,243.487 96.59800000000001,243.096 97.67099999999999,243.096" />
<path d="M78.077,208.096 C78.702,208.096 79.23399999999998,208.258 79.67099999999999,208.581 C80.06700000000001,208.935 80.26499999999999,209.378 80.26499999999999,209.909 C80.26499999999999,210.805 79.80700000000002,211.643 78.88999999999999,212.425 C77.952,213.206 76.947,213.596 75.87400000000002,213.596 C75.24900000000002,213.596 74.72300000000001,213.435 74.29599999999999,213.112 C73.88999999999999,212.758 73.68700000000001,212.315 73.68700000000001,211.784 C73.68700000000001,210.888 74.156,210.05 75.09300000000002,209.268 C76.00999999999999,208.487 77.005,208.096 78.077,208.096" />
<path d="M78.077,215.596 C78.702,215.596 79.23399999999998,215.758 79.67099999999999,216.081 C80.06700000000001,216.435 80.26499999999999,216.878 80.26499999999999,217.409 C80.26499999999999,218.305 79.80700000000002,219.143 78.88999999999999,219.925 C77.952,220.706 76.947,221.096 75.87400000000002,221.096 C75.24900000000002,221.096 74.72300000000001,220.935 74.29599999999999,220.612 C73.88999999999999,220.258 73.68700000000001,219.815 73.68700000000001,219.284 C73.68700000000001,218.388 74.156,217.55 75.09300000000002,216.768 C76.00999999999999,215.987 77.005,215.596 78.077,215.596" />
<path d="M78.077,220.596 C78.702,220.596 79.23399999999998,220.758 79.67099999999999,221.081 C80.06700000000001,221.435 80.26499999999999,221.878 80.26499999999999,222.409 C80.26499999999999,223.305 79.80700000000002,224.143 78.88999999999999,224.925 C77.952,225.706 76.947,226.096 75.87400000000002,226.096 C75.24900000000002,226.096 74.72300000000001,225.935 74.29599999999999,225.612 C73.88999999999999,225.258 73.68700000000001,224.815 73.68700000000001,224.284 C73.68700000000001,223.388 74.156,222.55 75.09300000000002,221.768 C76.00999999999999,220.987 77.005,220.596 78.077,220.596" />
<path d="M78.077,225.596 C78.702,225.596 79.23399999999998,225.758 79.67099999999999,226.081 C80.06700000000001,226.435 80.26499999999999,226.878 80.26499999999999,227.409 C80.26499999999999,228.305 79.80700000000002,229.143 78.88999999999999,229.925 C77.952,230.706 76.947,231.096 75.87400000000002,231.096 C75.24900000000002,231.096 74.72300000000001,230.935 74.29599999999999,230.612 C73.88999999999999,230.258 73.68700000000001,229.815 73.68700000000001,229.284 C73.68700000000001,228.388 74.156,227.55 75.09300000000002,226.768 C76.00999999999999,225.987 77.005,225.596 78.077,225.596" />
<path d="M78.077,233.096 C78.702,233.096 79.23399999999998,233.258 79.67099999999999,233.581 C80.06700000000001,233.935 80.26499999999999,234.378 80.26499999999999,234.909 C80.26499999999999,235.805 79.80700000000002,236.643 78.88999999999999,237.425 C77.952,238.206 76.947,238.596 75.87400000000002,238.596 C75.24900000000002,238.596 74.72300000000001,238.435 74.29599999999999,238.112 C73.88999999999999,237.758 73.68700000000001,237.315 73.68700000000001,236.784 C73.68700000000001,235.888 74.156,235.05 75.09300000000002,234.268 C76.00999999999999,233.487 77.005,233.096 78.077,233.096" />
<path d="M78.077,243.096 C78.702,243.096 79.23399999999998,243.258 79.67099999999999,243.581 C80.06700000000001,243.935 80.26499999999999,244.378 80.26499999999999,244.909 C80.26499999999999,245.805 79.80700000000002,246.643 78.88999999999999,247.425 C77.952,248.206 76.947,248.596 75.87400000000002,248.596 C75.24900000000002,248.596 74.72300000000001,248.435 74.29599999999999,248.112 C73.88999999999999,247.758 73.68700000000001,247.315 73.68700000000001,246.784 C73.68700000000001,245.888 74.156,245.05 75.09300000000002,244.268 C76.00999999999999,243.487 77.005,243.096 78.077,243.096" />
<path d="M27.134000000000015,205.596 C27.759000000000015,205.596 28.29000000000002,205.758 28.72800000000001,206.081 C29.124000000000024,206.435 29.322000000000003,206.878 29.322000000000003,207.409 C29.322000000000003,208.305 28.863,209.143 27.947000000000003,209.925 C27.009000000000015,210.706 26.00400000000002,211.096 24.930999999999983,211.096 C24.305999999999983,211.096 23.779999999999973,210.935 23.35300000000001,210.612 C22.947000000000003,210.258 22.742999999999995,209.815 22.742999999999995,209.284 C22.742999999999995,208.388 23.21199999999999,207.55 24.149999999999977,206.768 C25.065999999999974,205.987 26.06099999999998,205.596 27.134000000000015,205.596" />
<path d="M27.134000000000015,213.096 C27.759000000000015,213.096 28.29000000000002,213.258 28.72800000000001,213.581 C29.124000000000024,213.935 29.322000000000003,214.378 29.322000000000003,214.909 C29.322000000000003,215.805 28.863,216.643 27.947000000000003,217.425 C27.009000000000015,218.206 26.00400000000002,218.596 24.930999999999983,218.596 C24.305999999999983,218.596 23.779999999999973,218.435 23.35300000000001,218.112 C22.947000000000003,217.758 22.742999999999995,217.315 22.742999999999995,216.784 C22.742999999999995,215.888 23.21199999999999,215.05 24.149999999999977,214.268 C25.065999999999974,213.487 26.06099999999998,213.096 27.134000000000015,213.096" />
<path d="M27.134000000000015,218.096 C27.759000000000015,218.096 28.29000000000002,218.258 28.72800000000001,218.581 C29.124000000000024,218.935 29.322000000000003,219.378 29.322000000000003,219.909 C29.322000000000003,220.805 28.863,221.643 27.947000000000003,222.425 C27.009000000000015,223.206 26.00400000000002,223.596 24.930999999999983,223.596 C24.305999999999983,223.596 23.779999999999973,223.435 23.35300000000001,223.112 C22.947000000000003,222.758 22.742999999999995,222.315 22.742999999999995,221.784 C22.742999999999995,220.888 23.21199999999999,220.05 24.149999999999977,219.268 C25.065999999999974,218.487 26.06099999999998,218.096 27.134000000000015,218.096" />
<path d="M27.134000000000015,223.096 C27.759000000000015,223.096 28.29000000000002,223.258 28.72800000000001,223.581 C29.124000000000024,223.935 29.322000000000003,224.378 29.322000000000003,224.909 C29.322000000000003,225.805 28.863,226.643 27.947000000000003,227.425 C27.009000000000015,228.206 26.00400000000002,228.596 24.930999999999983,228.596 C24.305999999999983,228.596 23.779999999999973,228.435 23.35300000000001,228.112 C22.947000000000003,227.758 22.742999999999995,227.315 22.742999999999995,226.784 C22.742999999999995,225.888 23.21199999999999,225.05 24.149999999999977,224.268 C25.065999999999974,223.487 26.06099999999998,223.096 27.134000000000015,223.096" />
<path d="M27.134000000000015,230.596 C27.759000000000015,230.596 28.29000000000002,230.758 28.72800000000001,231.081 C29.124000000000024,231.435 29.322000000000003,231.878 29.322000000000003,232.409 C29.322000000000003,233.305 28.863,234.143 27.947000000000003,234.925 C27.009000000000015,235.706 26.00400000000002,236.096 24.930999999999983,236.096 C24.305999999999983,236.096 23.779999999999973,235.935 23.35300000000001,235.612 C22.947000000000003,235.258 22.742999999999995,234.815 22.742999999999995,234.284 C22.742999999999995,233.388 23.21199999999999,232.55 24.149999999999977,231.768 C25.065999999999974,230.987 26.06099999999998,230.596 27.134000000000015,230.596" />
<path d="M27.134000000000015,240.596 C27.759000000000015,240.596 28.29000000000002,240.758 28.72800000000001,241.081 C29.124000000000024,241.435 29.322000000000003,241.878 29.322000000000003,242.409 C29.322000000000003,243.305 28.863,244.143 27.947000000000003,244.925 C27.009000000000015,245.706 26.00400000000002,246.096 24.930999999999983,246.096 C24.305999999999983,246.096 23.779999999999973,245.935 23.35300000000001,245.612 C22.947000000000003,245.258 22.742999999999995,244.815 22.742999999999995,244.284 C22.742999999999995,243.388 23.21199999999999,242.55 24.149999999999977,241.768 C25.065999999999974,240.987 26.06099999999998,240.596 27.134000000000015,240.596" />
<path d="M7.540999999999997,205.596 C8.165999999999997,205.596 8.697000000000003,205.758 9.134000000000015,206.081 C9.529999999999973,206.435 9.728000000000009,206.878 9.728000000000009,207.409 C9.728000000000009,208.305 9.269999999999982,209.143 8.353000000000009,209.925 C7.415999999999997,210.706 6.410000000000025,211.096 5.336999999999989,211.096 C4.711999999999989,211.096 4.185999999999979,210.935 3.7590000000000146,210.612 C3.3530000000000086,210.258 3.1499999999999773,209.815 3.1499999999999773,209.284 C3.1499999999999773,208.388 3.619000000000028,207.55 4.555999999999983,206.768 C5.473000000000013,205.987 6.468000000000018,205.596 7.540999999999997,205.596" />
<path d="M7.540999999999997,213.096 C8.165999999999997,213.096 8.697000000000003,213.258 9.134000000000015,213.581 C9.529999999999973,213.935 9.728000000000009,214.378 9.728000000000009,214.909 C9.728000000000009,215.805 9.269999999999982,216.643 8.353000000000009,217.425 C7.415999999999997,218.206 6.410000000000025,218.596 5.336999999999989,218.596 C4.711999999999989,218.596 4.185999999999979,218.435 3.7590000000000146,218.112 C3.3530000000000086,217.758 3.1499999999999773,217.315 3.1499999999999773,216.784 C3.1499999999999773,215.888 3.619000000000028,215.05 4.555999999999983,214.268 C5.473000000000013,213.487 6.468000000000018,213.096 7.540999999999997,213.096" />
<path d="M7.540999999999997,218.096 C8.165999999999997,218.096 8.697000000000003,218.258 9.134000000000015,218.581 C9.529999999999973,218.935 9.728000000000009,219.378 9.728000000000009,219.909 C9.728000000000009,220.805 9.269999999999982,221.643 8.353000000000009,222.425 C7.415999999999997,223.206 6.410000000000025,223.596 5.336999999999989,223.596 C4.711999999999989,223.596 4.185999999999979,223.435 3.7590000000000146,223.112 C3.3530000000000086,222.758 3.1499999999999773,222.315 3.1499999999999773,221.784 C3.1499999999999773,220.888 3.619000000000028,220.05 4.555999999999983,219.268 C5.473000000000013,218.487 6.468000000000018,218.096 7.540999999999997,218.096" />
<path d="M7.540999999999997,223.096 C8.165999999999997,223.096 8.697000000000003,223.258 9.134000000000015,223.581 C9.529999999999973,223.935 9.728000000000009,224.378 9.728000000000009,224.909 C9.728000000000009,225.805 9.269999999999982,226.643 8.353000000000009,227.425 C7.415999999999997,228.206 6.410000000000025,228.596 5.336999999999989,228.596 C4.711999999999989,228.596 4.185999999999979,228.435 3.7590000000000146,228.112 C3.3530000000000086,227.758 3.1499999999999773,227.315 3.1499999999999773,226.784 C3.1499999999999773,225.888 3.619000000000028,225.05 4.555999999999983,224.268 C5.473000000000013,223.487 6.468000000000018,223.096 7.540999999999997,223.096" />
<path d="M7.540999999999997,230.596 C8.165999999999997,230.596 8.697000000000003,230.758 9.134000000000015,231.081 C9.529999999999973,231.435 9.728000000000009,231.878 9.728000000000009,232.409 C9.728000000000009,233.305 9.269999999999982,234.143 8.353000000000009,234.925 C7.415999999999997,235.706 6.410000000000025,236.096 5.336999999999989,236.096 C4.711999999999989,236.096 4.185999999999979,235.935 3.7590000000000146,235.612 C3.3530000000000086,235.258 3.1499999999999773,234.815 3.1499999999999773,234.284 C3.1499999999999773,233.388 3.619000000000028,232.55 4.555999999999983,231.768 C5.473000000000013,230.987 6.468000000000018,230.596 7.540999999999997,230.596" />
<path d="M7.540999999999997,240.596 C8.165999999999997,240.596 8.697000000000003,240.758 9.134000000000015,241.081 C9.529999999999973,241.435 9.728000000000009,241.878 9.728000000000009,242.409 C9.728000000000009,243.305 9.269999999999982,244.143 8.353000000000009,244.925 C7.415999999999997,245.706 6.410000000000025,246.096 5.336999999999989,246.096 C4.711999999999989,246.096 4.185999999999979,245.935 3.7590000000000146,245.612 C3.3530000000000086,245.258 3.1499999999999773,244.815 3.1499999999999773,244.284 C3.1499999999999773,243.388 3.619000000000028,242.55 4.555999999999983,241.768 C5.473000000000013,240.987 6.468000000000018,240.596 7.540999999999997,240.596" />
<path d="M236.882,224.237 C237.257,224.237 237.54399999999998,224.341 237.74200000000002,224.55 C237.94,224.789 238.04399999999998,225.013 238.05399999999997,225.221 C238.08499999999998,225.419 238.15300000000002,225.638 238.257,225.878 C238.372,226.086 238.51799999999997,226.19 238.695,226.19 C238.841,226.19 239.05900000000003,226.029 239.351,225.706 C239.611,225.425 239.79899999999998,225.169 239.913,224.94 C239.976,224.815 240.065,224.753 240.17899999999997,224.753 L240.20999999999998,224.753 C240.33499999999998,224.763 240.42399999999998,224.826 240.476,224.94 L238.02300000000002,233.346 C237.887,233.482 237.70299999999997,233.55 237.46800000000002,233.55 C237.23399999999998,233.55 237.05399999999997,233.482 236.92899999999997,233.346 L239.27300000000002,226.815 C238.44,227.117 237.736,227.268 237.163,227.268 C236.695,227.268 236.288,227.117 235.945,226.815 C235.591,226.534 235.413,226.159 235.413,225.69 C235.413,225.284 235.55900000000003,224.945 235.851,224.675 C236.132,224.383 236.476,224.237 236.882,224.237" />
<path d="M226.502,173.971 L219.392,173.971 C219.257,173.971 219.18900000000002,173.909 219.18900000000002,173.784 L219.18900000000002,171.05 C219.18900000000002,170.914 219.257,170.846 219.392,170.846 L226.502,170.846 C226.627,170.846 226.68900000000002,170.914 226.68900000000002,171.05 L226.68900000000002,173.784 C226.68900000000002,173.909 226.627,173.971 226.502,173.971" />
<path d="M226.502,121.471 L219.392,121.471 C219.257,121.471 219.18900000000002,121.409 219.18900000000002,121.284 L219.18900000000002,118.55 C219.18900000000002,118.414 219.257,118.346 219.392,118.346 L226.502,118.346 C226.627,118.346 226.68900000000002,118.414 226.68900000000002,118.55 L226.68900000000002,121.284 C226.68900000000002,121.409 226.627,121.471 226.502,121.471" />
<path d="M55.499000000000024,224.237 C55.874000000000024,224.237 56.161,224.341 56.35899999999998,224.55 C56.557000000000016,224.789 56.661,225.013 56.67099999999999,225.221 C56.702999999999975,225.419 56.76999999999998,225.638 56.874000000000024,225.878 C56.988999999999976,226.086 57.13499999999999,226.19 57.31200000000001,226.19 C57.45800000000003,226.19 57.67700000000002,226.029 57.96800000000002,225.706 C58.228999999999985,225.425 58.416,225.169 58.531000000000006,224.94 C58.59300000000002,224.815 58.682000000000016,224.753 58.79599999999999,224.753 L58.827999999999975,224.753 C58.952999999999975,224.763 59.041,224.826 59.09300000000002,224.94 L56.639999999999986,233.346 C56.504999999999995,233.482 56.31999999999999,233.55 56.08499999999998,233.55 C55.851,233.55 55.67099999999999,233.482 55.54599999999999,233.346 L57.889999999999986,226.815 C57.057000000000016,227.117 56.353999999999985,227.268 55.781000000000006,227.268 C55.31200000000001,227.268 54.906000000000006,227.117 54.56200000000001,226.815 C54.20800000000003,226.534 54.031000000000006,226.159 54.031000000000006,225.69 C54.031000000000006,225.284 54.17700000000002,224.945 54.46800000000002,224.675 C54.749000000000024,224.383 55.09300000000002,224.237 55.499000000000024,224.237" />
<path d="M58.74799999999999,173.971 L51.63900000000001,173.971 C51.502999999999986,173.971 51.435,173.909 51.435,173.784 L51.435,171.05 C51.435,170.914 51.502999999999986,170.846 51.63900000000001,170.846 L58.74799999999999,170.846 C58.87299999999999,170.846 58.935,170.914 58.935,171.05 L58.935,173.784 C58.935,173.909 58.87299999999999,173.971 58.74799999999999,173.971" />
<path d="M58.74799999999999,121.471 L51.63900000000001,121.471 C51.502999999999986,121.471 51.435,121.409 51.435,121.284 L51.435,118.55 C51.435,118.414 51.502999999999986,118.346 51.63900000000001,118.346 L58.74799999999999,118.346 C58.87299999999999,118.346 58.935,118.414 58.935,118.55 L58.935,121.284 C58.935,121.409 58.87299999999999,121.471 58.74799999999999,121.471" />
<path d="M157.42399999999998,200.846 L176.73700000000002,200.846 L176.73700000000002,203.346 L157.42399999999998,203.346 L157.42399999999998,200.846" />
<path d="M79.62,195.846 L121.93799999999999,195.846 L121.93799999999999,198.346 L79.62,198.346 L79.62,195.846" />
<polyline points="0.0,113.346 255.0,113.346" fill="none" stroke="#000000" stroke-width="0.40" />
<polyline points="0.0,118.346 255.0,118.346" fill="none" stroke="#000000" stroke-width="0.40" />
<polyline points="0.0,123.346 255.0,123.346" fill="none" stroke="#000000" stroke-width="0.40" />
<polyline points="0.0,128.346 255.0,128.346" fill="none" stroke="#000000" stroke-width="0.40" />
<polyline points="0.0,133.346 255.0,133.346" fill="none" stroke="#000000" stroke-width="0.40" />
<polyline points="0.0,165.846 255.0,165.846" fill="none" stroke="#000000" stroke-width="0.40" />
<polyline points="0.0,170.846 255.0,170.846" fill="none" stroke="#000000" stroke-width="0.40" />
<polyline points="0.0,175.846 255.0,175.846" fill="none" stroke="#000000" stroke-width="0.40" />
<polyline points="0.0,180.846 255.0,180.846" fill="none" stroke="#000000" stroke-width="0.40" />
<polyline points="0.0,185.846 255.0,185.846" fill="none" stroke="#000000" stroke-width="0.40" />
<polyline points="0.0,218.346 255.0,218.346" fill="none" stroke="#000000" stroke-width="0.40" />
<polyline points="0.0,223.346 255.0,223.346" fill="none" stroke="#000000" stroke-width="0.40" />
<polyline points="0.0,228.346 255.0,228.346" fill="none" stroke="#000000" stroke-width="0.40" />
<polyline points="0.0,233.346 255.0,233.346" fill="none" stroke="#000000" stroke-width="0.40" />
<polyline points="0.0,238.346 255.0,238.346" fill="none" stroke="#000000" stroke-width="0.40" />
<polyline points="135.349,218.346 135.349,238.346" fill="" stroke="#000000" stroke-width="0.80" />
<polyline points="135.349,165.846 135.349,185.846" fill="" stroke="#000000" stroke-width="0.80" />
<polyline points="135.349,113.346 135.349,133.346" fill="" stroke="#000000" stroke-width="0.80" />
<polyline points="254.464,211.786 254.464,255.0" fill="" stroke="#000000" stroke-width="0.65" />
<polyline points="199.74099999999999,249.907 199.74099999999999,203.346" fill="" stroke="#000000" stroke-width="0.65" />
<polyline points="176.41199999999998,249.907 176.41199999999998,202.096" fill="" stroke="#000000" stroke-width="0.65" />
<polyline points="157.74900000000002,249.907 157.74900000000002,202.096" fill="" stroke="#000000" stroke-width="0.65" />
<polyline points="121.613,249.907 121.613,197.096" fill="" stroke="#000000" stroke-width="0.65" />
<polyline points="99.53800000000001,244.907 99.53800000000001,197.096" fill="" stroke="#000000" stroke-width="0.65" />
<polyline points="79.945,244.907 79.945,197.096" fill="" stroke="#000000" stroke-width="0.65" />
<polyline points="23.067999999999984,209.286 23.067999999999984,255.221" fill="" stroke="#000000" stroke-width="0.65" />
<polyline points="3.4750000000000227,209.286 3.4750000000000227,255.0" fill="" stroke="#000000" stroke-width="0.65" />
<polyline points="252.639,243.346 255.0,243.346" fill="" stroke="#000000" stroke-width="0.80" />
<polyline points="252.639,213.346 255.0,213.346" fill="" stroke="#000000" stroke-width="0.80" />
<polyline points="191.98399999999998,243.346 201.56599999999997,243.346" fill="" stroke="#000000" stroke-width="0.80" />
<polyline points="191.98399999999998,248.346 201.56599999999997,248.346" fill="" stroke="#000000" stroke-width="0.80" />
<polyline points="168.654,243.346 178.23700000000002,243.346" fill="" stroke="#000000" stroke-width="0.80" />
<polyline points="168.654,248.346 178.23700000000002,248.346" fill="" stroke="#000000" stroke-width="0.80" />
<polyline points="149.99099999999999,243.346 159.574,243.346" fill="" stroke="#000000" stroke-width="0.80" />
<polyline points="149.99099999999999,248.346 159.574,248.346" fill="" stroke="#000000" stroke-width="0.80" />
<polyline points="113.85500000000002,243.346 123.43799999999999,243.346" fill="" stroke="#000000" stroke-width="0.80" />
<polyline points="113.85500000000002,248.346 123.43799999999999,248.346" fill="" stroke="#000000" stroke-width="0.80" />
<polyline points="91.77999999999997,243.346 101.363,243.346" fill="" stroke="#000000" stroke-width="0.80" />
<polyline points="91.77999999999997,213.346 101.363,213.346" fill="" stroke="#000000" stroke-width="0.80" />
<polyline points="72.18700000000001,243.346 81.76999999999998,243.346" fill="" stroke="#000000" stroke-width="0.80" />
<polyline points="72.18700000000001,213.346 81.76999999999998,213.346" fill="" stroke="#000000" stroke-width="0.80" />
<polyline points="21.242999999999995,243.346 30.826000000000022,243.346" fill="" stroke="#000000" stroke-width="0.80" />
<polyline points="21.242999999999995,208.346 30.826000000000022,208.346" fill="" stroke="#000000" stroke-width="0.80" />
<polyline points="21.242999999999995,213.346 30.826000000000022,213.346" fill="" stroke="#000000" stroke-width="0.80" />
<polyline points="1.6499999999999773,243.346 11.233000000000004,243.346" fill="" stroke="#000000" stroke-width="0.80" />
<polyline points="1.6499999999999773,208.346 11.233000000000004,208.346" fill="" stroke="#000000" stroke-width="0.80" />
<polyline points="1.6499999999999773,213.346 11.233000000000004,213.346" fill="" stroke="#000000" stroke-width="0.80" />
</svg>
