<?xml version="1.0" encoding="UTF-8" standalone="yes"?>
<svg width="256.0px" height="256.0px" xmlns="http://www.w3.org/2000/svg" xmlns:xlink="http://www.w3.org/1999/xlink" version="1.2" baseProfile="tiny">
<path d="M11.399999999999636,24.635999999999967 C11.299999999999272,24.635999999999967 11.100000000000364,24.692999999999984 10.799999999999272,24.807999999999993 L10.799999999999272,24.69799999999998 L12.200000000000728,23.964000000000055 L12.299999999999272,23.979000000000042 L12.299999999999272,28.775999999999954 C12.299999999999272,28.974000000000046 12.299999999999272,29.101999999999975 12.399999999999636,29.158999999999992 C12.5,29.216000000000008 12.700000000000728,29.245000000000005 13.100000000000364,29.245000000000005 L13.100000000000364,29.370000000000005 L10.899999999999636,29.370000000000005 L10.899999999999636,29.245000000000005 C11.200000000000728,29.235000000000014 11.399999999999636,29.190000000000055 11.5,29.111999999999966 C11.600000000000364,29.033999999999992 11.600000000000364,28.870000000000005 11.600000000000364,28.620000000000005 L11.600000000000364,25.010999999999967 C11.600000000000364,24.760999999999967 11.5,24.635999999999967 11.399999999999636,24.635999999999967 M14.399999999999636,29.54200000000003 L14.399999999999636,29.385999999999967 C15.0,29.28200000000004 15.5,29.024 15.899999999999636,28.611999999999966 C16.299999999999272,28.201000000000022 16.600000000000364,27.66700000000003 16.799999999999272,27.010999999999967 C16.399999999999636,27.32299999999998 16.0,27.479000000000042 15.600000000000364,27.479000000000042 C15.100000000000364,27.479000000000042 14.799999999999272,27.327999999999975 14.5,27.025999999999954 C14.299999999999272,26.724000000000046 14.100000000000364,26.333999999999946 14.100000000000364,25.854000000000042 C14.100000000000364,25.312999999999988 14.299999999999272,24.860000000000014 14.600000000000364,24.495000000000005 C14.899999999999636,24.129999999999995 15.299999999999272,23.94799999999998 15.799999999999272,23.94799999999998 C16.299999999999272,23.94799999999998 16.799999999999272,24.158999999999992 17.100000000000364,24.581000000000017 C17.399999999999636,25.003000000000043 17.600000000000364,25.547000000000025 17.600000000000364,26.214000000000055 C17.600000000000364,26.432999999999993 17.600000000000364,26.653999999999996 17.5,26.878000000000043 C17.5,27.101999999999975 17.399999999999636,27.366999999999962 17.299999999999272,27.674999999999955 C17.200000000000728,27.98199999999997 17.0,28.254999999999995 16.700000000000728,28.495000000000005 C16.5,28.735000000000014 16.200000000000728,28.952999999999975 15.799999999999272,29.150999999999954 C15.399999999999636,29.349000000000046 14.899999999999636,29.479000000000042 14.399999999999636,29.54200000000003 M15.899999999999636,27.120000000000005 C16.0,27.120000000000005 16.100000000000364,27.10699999999997 16.200000000000728,27.081000000000017 C16.299999999999272,27.05499999999995 16.5,26.991999999999962 16.600000000000364,26.894000000000005 C16.700000000000728,26.79499999999996 16.799999999999272,26.672000000000025 16.799999999999272,26.525999999999954 L16.799999999999272,26.214000000000055 C16.799999999999272,24.860000000000014 16.399999999999636,24.182999999999993 15.700000000000728,24.182999999999993 C15.600000000000364,24.182999999999993 15.399999999999636,24.226999999999975 15.299999999999272,24.315000000000055 C15.200000000000728,24.403999999999996 15.100000000000364,24.520999999999958 15.0,24.66700000000003 C15.0,24.812999999999988 14.899999999999636,24.958999999999946 14.899999999999636,25.104000000000042 C14.899999999999636,25.25 14.899999999999636,25.40700000000004 14.899999999999636,25.57299999999998 C14.899999999999636,26.05200000000002 15.0,26.42999999999995 15.100000000000364,26.706000000000017 C15.299999999999272,26.98199999999997 15.600000000000364,27.120000000000005 15.899999999999636,27.120000000000005" />
<path d="M74.79999999999927,25.557999999999993 C74.89999999999964,25.442999999999984 74.89999999999964,25.339000000000055 74.89999999999964,25.245000000000005 C74.89999999999964,25.150999999999954 75.0,25.019000000000005 75.10000000000036,24.84699999999998 C75.20000000000073,24.674999999999955 75.29999999999927,24.53200000000004 75.39999999999964,24.41700000000003 C75.5,24.30200000000002 75.60000000000036,24.201000000000022 75.79999999999927,24.111999999999966 C76.0,24.024 76.20000000000073,23.979000000000042 76.5,23.979000000000042 C76.89999999999964,23.979000000000042 77.29999999999927,24.11500000000001 77.5,24.385999999999967 C77.79999999999927,24.65700000000004 78.0,24.99000000000001 78.0,25.385999999999967 C78.0,25.99000000000001 77.60000000000036,26.650999999999954 76.89999999999964,27.370000000000005 L75.60000000000036,28.79200000000003 L77.5,28.79200000000003 C77.70000000000073,28.79200000000003 77.79999999999927,28.760999999999967 77.89999999999964,28.69799999999998 C78.0,28.635999999999967 78.10000000000036,28.49000000000001 78.29999999999927,28.260999999999967 L78.39999999999964,28.29200000000003 L77.89999999999964,29.370000000000005 L74.79999999999927,29.370000000000005 L74.79999999999927,29.275999999999954 L76.20000000000073,27.760999999999967 C76.89999999999964,27.03200000000004 77.29999999999927,26.34400000000005 77.29999999999927,25.69799999999998 C77.29999999999927,25.354000000000042 77.20000000000073,25.077999999999975 77.0,24.870000000000005 C76.79999999999927,24.662000000000035 76.5,24.557999999999993 76.20000000000073,24.557999999999993 C75.89999999999964,24.557999999999993 75.70000000000073,24.633000000000038 75.5,24.783999999999992 C75.29999999999927,24.934999999999945 75.20000000000073,25.208999999999946 75.0,25.604000000000042 L74.79999999999927,25.557999999999993 M81.79999999999927,28.714000000000055 C81.5,29.224000000000046 81.10000000000036,29.479000000000042 80.5,29.479000000000042 C80.0,29.479000000000042 79.60000000000036,29.21900000000005 79.20000000000073,28.69799999999998 C78.89999999999964,28.17700000000002 78.79999999999927,27.504999999999995 78.79999999999927,26.682999999999993 C78.79999999999927,25.912000000000035 78.89999999999964,25.265999999999963 79.20000000000073,24.745000000000005 C79.60000000000036,24.224000000000046 80.0,23.964000000000055 80.60000000000036,23.964000000000055 C81.10000000000036,23.964000000000055 81.5,24.21900000000005 81.79999999999927,24.729000000000042 C82.20000000000073,25.24000000000001 82.29999999999927,25.90700000000004 82.29999999999927,26.729000000000042 C82.29999999999927,27.54200000000003 82.20000000000073,28.202999999999975 81.79999999999927,28.714000000000055 M80.5,24.16700000000003 C79.79999999999927,24.16700000000003 79.5,25.03200000000004 79.5,26.760999999999967 C79.5,28.437999999999988 79.79999999999927,29.275999999999954 80.5,29.275999999999954 C81.20000000000073,29.275999999999954 81.60000000000036,28.432999999999993 81.60000000000036,26.745000000000005 C81.60000000000036,25.912000000000035 81.5,25.274 81.29999999999927,24.831000000000017 C81.10000000000036,24.388000000000034 80.89999999999964,24.16700000000003 80.5,24.16700000000003" />
</svg>
