<?xml version="1.0" encoding="UTF-8" standalone="yes"?>
<svg width="256.0px" height="256.0px" xmlns="http://www.w3.org/2000/svg" xmlns:xlink="http://www.w3.org/1999/xlink" version="1.2" baseProfile="tiny">
<path d="M65.20000000000073,76.69600000000003 C68.45000000000073,78.76300000000003 78.19000000000051,78.76300000000003 81.43000000000029,76.69600000000003 C78.19000000000051,79.56299999999999 68.45000000000073,79.56299999999999 65.20000000000073,76.69600000000003" />
<path d="M16.420000000000073,73.846 C19.670000000000073,70.98000000000002 29.409999999999854,70.98000000000002 32.649999999999636,73.846 C29.409999999999854,71.77999999999997 19.670000000000073,71.77999999999997 16.420000000000073,73.846" />
<path d="M53.219999999999345,10.518000000000029 L53.219999999999345,12.065000000000055 C53.219999999999345,12.616999999999962 53.25,13.05499999999995 53.29999999999927,13.378000000000043 C53.719999999999345,13.013000000000034 54.030000000000655,12.741999999999962 54.219999999999345,12.565000000000055 C54.43000000000029,12.356999999999971 54.63999999999942,12.067999999999984 54.840000000000146,11.697999999999979 C55.04999999999927,11.327999999999975 55.159999999999854,10.961000000000013 55.159999999999854,10.596000000000004 C55.159999999999854,10.231999999999971 55.07999999999993,9.918999999999983 54.92000000000007,9.658999999999992 C54.77000000000044,9.399000000000001 54.55999999999949,9.268000000000029 54.29999999999927,9.268000000000029 C53.98999999999978,9.268000000000029 53.719999999999345,9.388000000000034 53.52000000000044,9.628000000000043 C53.31999999999971,9.888000000000034 53.219999999999345,10.184999999999945 53.219999999999345,10.518000000000029 M52.38999999999942,14.096000000000004 L52.13999999999942,2.2060000000000173 C52.32999999999993,2.1019999999999754 52.51000000000022,2.0499999999999545 52.70000000000073,2.0499999999999545 C52.8799999999992,2.0499999999999545 53.05999999999949,2.1019999999999754 53.23999999999978,2.2060000000000173 L53.07999999999993,9.096000000000004 C53.61000000000058,8.638000000000034 54.219999999999345,8.408999999999992 54.92000000000007,8.408999999999992 C55.42000000000007,8.408999999999992 55.840000000000146,8.616999999999962 56.18000000000029,9.033999999999992 C56.52000000000044,9.451000000000022 56.69000000000051,9.92999999999995 56.69000000000051,10.471000000000004 C56.69000000000051,10.80499999999995 56.57999999999993,11.163999999999987 56.36000000000058,11.549999999999955 C56.149999999999636,11.893000000000029 55.93000000000029,12.163999999999987 55.70000000000073,12.361999999999966 C55.56999999999971,12.466000000000008 55.23999999999978,12.726999999999975 54.70000000000073,13.143000000000029 C54.54999999999927,13.258000000000038 54.36000000000058,13.393000000000029 54.149999999999636,13.549999999999955 C53.94000000000051,13.706000000000017 53.79999999999927,13.80499999999995 53.75,13.846000000000004 C53.659999999999854,13.899000000000001 53.56999999999971,14.003000000000043 53.48999999999978,14.158999999999992 C53.399999999999636,14.293999999999983 53.29999999999927,14.403999999999996 53.17000000000007,14.486999999999966 C53.090000000000146,14.57000000000005 52.97999999999956,14.611999999999966 52.850000000000364,14.611999999999966 C52.719999999999345,14.611999999999966 52.6200000000008,14.565000000000055 52.530000000000655,14.471000000000004 C52.44000000000051,14.378000000000043 52.38999999999942,14.253000000000043 52.38999999999942,14.096000000000004" />
<path d="M4.440000000000509,28.01800000000003 L4.440000000000509,29.565000000000055 C4.440000000000509,30.116999999999962 4.459999999999127,30.55499999999995 4.520000000000437,30.878000000000043 C4.940000000000509,30.513000000000034 5.25,30.241999999999962 5.440000000000509,30.065000000000055 C5.649999999999636,29.85699999999997 5.850000000000364,29.567999999999984 6.059999999999491,29.19799999999998 C6.270000000000437,28.827999999999975 6.3799999999992,28.461000000000013 6.3799999999992,28.096000000000004 C6.3799999999992,27.73199999999997 6.299999999999272,27.418999999999983 6.139999999999418,27.158999999999992 C5.979999999999563,26.899 5.780000000000655,26.76800000000003 5.520000000000437,26.76800000000003 C5.200000000000728,26.76800000000003 4.940000000000509,26.888000000000034 4.729999999999563,27.128000000000043 C4.540000000000873,27.388000000000034 4.440000000000509,27.684999999999945 4.440000000000509,28.01800000000003 M3.610000000000582,31.596000000000004 L3.360000000000582,19.706000000000017 C3.5499999999992724,19.601999999999975 3.7299999999995634,19.549999999999955 3.9099999999998545,19.549999999999955 C4.100000000000364,19.549999999999955 4.280000000000655,19.601999999999975 4.450000000000728,19.706000000000017 L4.299999999999272,26.596000000000004 C4.829999999999927,26.138000000000034 5.440000000000509,25.908999999999992 6.139999999999418,25.908999999999992 C6.639999999999418,25.908999999999992 7.059999999999491,26.116999999999962 7.399999999999636,26.533999999999992 C7.739999999999782,26.951000000000022 7.9099999999998545,27.42999999999995 7.9099999999998545,27.971000000000004 C7.9099999999998545,28.30499999999995 7.799999999999272,28.663999999999987 7.579999999999927,29.049999999999955 C7.3700000000008,29.39300000000003 7.149999999999636,29.663999999999987 6.920000000000073,29.861999999999966 C6.790000000000873,29.966000000000008 6.450000000000728,30.226999999999975 5.920000000000073,30.64300000000003 C5.770000000000437,30.758000000000038 5.579999999999927,30.89300000000003 5.3700000000008,31.049999999999955 C5.149999999999636,31.206000000000017 5.020000000000437,31.30499999999995 4.969999999999345,31.346000000000004 C4.8799999999992,31.399 4.790000000000873,31.503000000000043 4.700000000000728,31.658999999999992 C4.6200000000008,31.793999999999983 4.520000000000437,31.903999999999996 4.389999999999418,31.986999999999966 C4.309999999999491,32.07000000000005 4.200000000000728,32.111999999999966 4.069999999999709,32.111999999999966 C3.9400000000005093,32.111999999999966 3.8299999999999272,32.065000000000055 3.75,31.971000000000004 C3.6599999999998545,31.878000000000043 3.610000000000582,31.753000000000043 3.610000000000582,31.596000000000004" />
<path d="M85.52000000000044,63.12800000000004 L87.93000000000029,61.174999999999955 C87.98999999999978,61.12199999999996 88.04999999999927,61.096000000000004 88.10000000000036,61.096000000000004 C88.17000000000007,61.096000000000004 88.23999999999978,61.12199999999996 88.29999999999927,61.174999999999955 L88.70999999999913,61.486999999999966 C88.77000000000044,61.549999999999955 88.79999999999927,61.62800000000004 88.79999999999927,61.721000000000004 C88.79999999999927,61.78399999999999 88.77000000000044,61.861999999999966 88.70999999999913,61.95600000000002 L86.3799999999992,63.846000000000004 L88.70999999999913,65.73699999999997 C88.77000000000044,65.80999999999995 88.79999999999927,65.89099999999996 88.79999999999927,65.97900000000004 C88.79999999999927,66.06799999999998 88.77000000000044,66.14300000000003 88.70999999999913,66.20600000000002 L88.29999999999927,66.51800000000003 C88.23999999999978,66.57000000000005 88.17000000000007,66.596 88.10000000000036,66.596 C88.04999999999927,66.596 87.98999999999978,66.57000000000005 87.93000000000029,66.51800000000003 L85.52000000000044,64.56500000000005 L83.10000000000036,66.51800000000003 C83.04000000000087,66.57000000000005 82.97999999999956,66.596 82.93000000000029,66.596 C82.86000000000058,66.596 82.79999999999927,66.57000000000005 82.73999999999978,66.51800000000003 L82.31999999999971,66.20600000000002 C82.25,66.14300000000003 82.21999999999935,66.06500000000005 82.21999999999935,65.971 C82.21999999999935,65.90899999999999 82.25,65.83100000000002 82.31999999999971,65.73699999999997 L84.63999999999942,63.846000000000004 L82.31999999999971,61.95600000000002 C82.25,61.88300000000004 82.21999999999935,61.80200000000002 82.21999999999935,61.714000000000055 C82.21999999999935,61.625 82.25,61.549999999999955 82.31999999999971,61.486999999999966 L82.73999999999978,61.174999999999955 C82.79999999999927,61.12199999999996 82.86000000000058,61.096000000000004 82.93000000000029,61.096000000000004 C82.97999999999956,61.096000000000004 83.04000000000087,61.12199999999996 83.10000000000036,61.174999999999955 L85.52000000000044,63.12800000000004" />
<path d="M86.61000000000058,71.096 C87.23999999999978,71.096 87.77000000000044,71.25800000000004 88.20999999999913,71.58100000000002 C88.60000000000036,71.93499999999995 88.79999999999927,72.37800000000004 88.79999999999927,72.90899999999999 C88.79999999999927,73.80499999999995 88.34000000000015,74.64300000000003 87.43000000000029,75.42499999999995 C86.48999999999978,76.20600000000002 85.47999999999956,76.596 84.40999999999985,76.596 C83.79000000000087,76.596 83.26000000000022,76.43499999999995 82.82999999999993,76.11199999999997 C82.43000000000029,75.75800000000004 82.21999999999935,75.31500000000005 82.21999999999935,74.78399999999999 C82.21999999999935,73.88800000000003 82.69000000000051,73.04999999999995 83.6299999999992,72.26800000000003 C84.54999999999927,71.48699999999997 85.54000000000087,71.096 86.61000000000058,71.096" />
<path d="M86.61000000000058,81.096 C87.23999999999978,81.096 87.77000000000044,81.25800000000004 88.20999999999913,81.58100000000002 C88.60000000000036,81.93499999999995 88.79999999999927,82.37800000000004 88.79999999999927,82.90899999999999 C88.79999999999927,83.80499999999995 88.34000000000015,84.64300000000003 87.43000000000029,85.42499999999995 C86.48999999999978,86.20600000000002 85.47999999999956,86.596 84.40999999999985,86.596 C83.79000000000087,86.596 83.26000000000022,86.43499999999995 82.82999999999993,86.11199999999997 C82.43000000000029,85.75800000000004 82.21999999999935,85.31500000000005 82.21999999999935,84.78399999999999 C82.21999999999935,83.88800000000003 82.69000000000051,83.04999999999995 83.6299999999992,82.26800000000003 C84.54999999999927,81.48699999999997 85.54000000000087,81.096 86.61000000000058,81.096" />
<path d="M61.1299999999992,63.12800000000004 L63.54000000000087,61.174999999999955 C63.600000000000364,61.12199999999996 63.659999999999854,61.096000000000004 63.70999999999913,61.096000000000004 C63.780000000000655,61.096000000000004 63.850000000000364,61.12199999999996 63.909999999999854,61.174999999999955 L64.31999999999971,61.486999999999966 C64.3799999999992,61.549999999999955 64.40999999999985,61.62800000000004 64.40999999999985,61.721000000000004 C64.40999999999985,61.78399999999999 64.3799999999992,61.861999999999966 64.31999999999971,61.95600000000002 L61.98999999999978,63.846000000000004 L64.31999999999971,65.73699999999997 C64.3799999999992,65.80999999999995 64.40999999999985,65.89099999999996 64.40999999999985,65.97900000000004 C64.40999999999985,66.06799999999998 64.3799999999992,66.14300000000003 64.31999999999971,66.20600000000002 L63.909999999999854,66.51800000000003 C63.850000000000364,66.57000000000005 63.780000000000655,66.596 63.70999999999913,66.596 C63.659999999999854,66.596 63.600000000000364,66.57000000000005 63.54000000000087,66.51800000000003 L61.1299999999992,64.56500000000005 L58.70999999999913,66.51800000000003 C58.63999999999942,66.57000000000005 58.590000000000146,66.596 58.54000000000087,66.596 C58.469999999999345,66.596 58.409999999999854,66.57000000000005 58.350000000000364,66.51800000000003 L57.93000000000029,66.20600000000002 C57.86000000000058,66.14300000000003 57.82999999999993,66.06500000000005 57.82999999999993,65.971 C57.82999999999993,65.90899999999999 57.86000000000058,65.83100000000002 57.93000000000029,65.73699999999997 L60.25,63.846000000000004 L57.93000000000029,61.95600000000002 C57.86000000000058,61.88300000000004 57.82999999999993,61.80200000000002 57.82999999999993,61.714000000000055 C57.82999999999993,61.625 57.86000000000058,61.549999999999955 57.93000000000029,61.486999999999966 L58.350000000000364,61.174999999999955 C58.409999999999854,61.12199999999996 58.469999999999345,61.096000000000004 58.54000000000087,61.096000000000004 C58.590000000000146,61.096000000000004 58.63999999999942,61.12199999999996 58.70999999999913,61.174999999999955 L61.1299999999992,63.12800000000004" />
<path d="M62.219999999999345,71.096 C62.850000000000364,71.096 63.3799999999992,71.25800000000004 63.81999999999971,71.58100000000002 C64.20999999999913,71.93499999999995 64.40999999999985,72.37800000000004 64.40999999999985,72.90899999999999 C64.40999999999985,73.80499999999995 63.95000000000073,74.64300000000003 63.04000000000087,75.42499999999995 C62.100000000000364,76.20600000000002 61.090000000000146,76.596 60.02000000000044,76.596 C59.38999999999942,76.596 58.8700000000008,76.43499999999995 58.44000000000051,76.11199999999997 C58.04000000000087,75.75800000000004 57.82999999999993,75.31500000000005 57.82999999999993,74.78399999999999 C57.82999999999993,73.88800000000003 58.29999999999927,73.04999999999995 59.23999999999978,72.26800000000003 C60.159999999999854,71.48699999999997 61.149999999999636,71.096 62.219999999999345,71.096" />
<path d="M62.219999999999345,8.596000000000004 C62.850000000000364,8.596000000000004 63.3799999999992,8.758000000000038 63.81999999999971,9.081000000000017 C64.20999999999913,9.434999999999945 64.40999999999985,9.878000000000043 64.40999999999985,10.408999999999992 C64.40999999999985,11.30499999999995 63.95000000000073,12.143000000000029 63.04000000000087,12.924999999999955 C62.100000000000364,13.706000000000017 61.090000000000146,14.096000000000004 60.02000000000044,14.096000000000004 C59.38999999999942,14.096000000000004 58.8700000000008,13.934999999999945 58.44000000000051,13.611999999999966 C58.04000000000087,13.258000000000038 57.82999999999993,12.815000000000055 57.82999999999993,12.283999999999992 C57.82999999999993,11.388000000000034 58.29999999999927,10.549999999999955 59.23999999999978,9.768000000000029 C60.159999999999854,8.986999999999966 61.149999999999636,8.596000000000004 62.219999999999345,8.596000000000004" />
<path d="M36.73999999999978,63.12800000000004 L39.13999999999942,61.174999999999955 C39.20999999999913,61.12199999999996 39.26000000000022,61.096000000000004 39.31999999999971,61.096000000000004 C39.38999999999942,61.096000000000004 39.45999999999913,61.12199999999996 39.52000000000044,61.174999999999955 L39.93000000000029,61.486999999999966 C39.98999999999978,61.549999999999955 40.02000000000044,61.62800000000004 40.02000000000044,61.721000000000004 C40.02000000000044,61.78399999999999 39.98999999999978,61.861999999999966 39.93000000000029,61.95600000000002 L37.600000000000364,63.846000000000004 L39.93000000000029,65.73699999999997 C39.98999999999978,65.80999999999995 40.02000000000044,65.89099999999996 40.02000000000044,65.97900000000004 C40.02000000000044,66.06799999999998 39.98999999999978,66.14300000000003 39.93000000000029,66.20600000000002 L39.52000000000044,66.51800000000003 C39.45999999999913,66.57000000000005 39.38999999999942,66.596 39.31999999999971,66.596 C39.26000000000022,66.596 39.20999999999913,66.57000000000005 39.13999999999942,66.51800000000003 L36.73999999999978,64.56500000000005 L34.31999999999971,66.51800000000003 C34.25,66.57000000000005 34.20000000000073,66.596 34.13999999999942,66.596 C34.07999999999993,66.596 34.02000000000044,66.57000000000005 33.95999999999913,66.51800000000003 L33.530000000000655,66.20600000000002 C33.469999999999345,66.14300000000003 33.44000000000051,66.06500000000005 33.44000000000051,65.971 C33.44000000000051,65.90899999999999 33.469999999999345,65.83100000000002 33.530000000000655,65.73699999999997 L35.86000000000058,63.846000000000004 L33.530000000000655,61.95600000000002 C33.469999999999345,61.88300000000004 33.44000000000051,61.80200000000002 33.44000000000051,61.714000000000055 C33.44000000000051,61.625 33.469999999999345,61.549999999999955 33.530000000000655,61.486999999999966 L33.95999999999913,61.174999999999955 C34.02000000000044,61.12199999999996 34.07999999999993,61.096000000000004 34.13999999999942,61.096000000000004 C34.20000000000073,61.096000000000004 34.25,61.12199999999996 34.31999999999971,61.174999999999955 L36.73999999999978,63.12800000000004" />
<path d="M37.82999999999993,71.096 C38.45999999999913,71.096 38.98999999999978,71.25800000000004 39.43000000000029,71.58100000000002 C39.81999999999971,71.93499999999995 40.02000000000044,72.37800000000004 40.02000000000044,72.90899999999999 C40.02000000000044,73.80499999999995 39.55999999999949,74.64300000000003 38.63999999999942,75.42499999999995 C37.70999999999913,76.20600000000002 36.70000000000073,76.596 35.6299999999992,76.596 C35.0,76.596 34.47999999999956,76.43499999999995 34.04999999999927,76.11199999999997 C33.63999999999942,75.75800000000004 33.44000000000051,75.31500000000005 33.44000000000051,74.78399999999999 C33.44000000000051,73.88800000000003 33.909999999999854,73.04999999999995 34.850000000000364,72.26800000000003 C35.76000000000022,71.48699999999997 36.76000000000022,71.096 37.82999999999993,71.096" />
<path d="M37.82999999999993,81.096 C38.45999999999913,81.096 38.98999999999978,81.25800000000004 39.43000000000029,81.58100000000002 C39.81999999999971,81.93499999999995 40.02000000000044,82.37800000000004 40.02000000000044,82.90899999999999 C40.02000000000044,83.80499999999995 39.55999999999949,84.64300000000003 38.63999999999942,85.42499999999995 C37.70999999999913,86.20600000000002 36.70000000000073,86.596 35.6299999999992,86.596 C35.0,86.596 34.47999999999956,86.43499999999995 34.04999999999927,86.11199999999997 C33.63999999999942,85.75800000000004 33.44000000000051,85.31500000000005 33.44000000000051,84.78399999999999 C33.44000000000051,83.88800000000003 33.909999999999854,83.04999999999995 34.850000000000364,82.26800000000003 C35.76000000000022,81.48699999999997 36.76000000000022,81.096 37.82999999999993,81.096" />
<path d="M37.82999999999993,16.096000000000004 C38.45999999999913,16.096000000000004 38.98999999999978,16.258000000000038 39.43000000000029,16.581000000000017 C39.81999999999971,16.934999999999945 40.02000000000044,17.378000000000043 40.02000000000044,17.908999999999992 C40.02000000000044,18.80499999999995 39.55999999999949,19.64300000000003 38.63999999999942,20.424999999999955 C37.70999999999913,21.206000000000017 36.70000000000073,21.596000000000004 35.6299999999992,21.596000000000004 C35.0,21.596000000000004 34.47999999999956,21.434999999999945 34.04999999999927,21.111999999999966 C33.63999999999942,20.758000000000038 33.44000000000051,20.315000000000055 33.44000000000051,19.783999999999992 C33.44000000000051,18.888000000000034 33.909999999999854,18.049999999999955 34.850000000000364,17.26800000000003 C35.76000000000022,16.486999999999966 36.76000000000022,16.096000000000004 37.82999999999993,16.096000000000004" />
<path d="M12.350000000000364,63.12800000000004 L14.75,61.174999999999955 C14.819999999999709,61.12199999999996 14.8700000000008,61.096000000000004 14.930000000000291,61.096000000000004 C15.0,61.096000000000004 15.069999999999709,61.12199999999996 15.1299999999992,61.174999999999955 L15.530000000000655,61.486999999999966 C15.600000000000364,61.549999999999955 15.6299999999992,61.62800000000004 15.6299999999992,61.721000000000004 C15.6299999999992,61.78399999999999 15.600000000000364,61.861999999999966 15.530000000000655,61.95600000000002 L13.209999999999127,63.846000000000004 L15.530000000000655,65.73699999999997 C15.600000000000364,65.80999999999995 15.6299999999992,65.89099999999996 15.6299999999992,65.97900000000004 C15.6299999999992,66.06799999999998 15.600000000000364,66.14300000000003 15.530000000000655,66.20600000000002 L15.1299999999992,66.51800000000003 C15.069999999999709,66.57000000000005 15.0,66.596 14.930000000000291,66.596 C14.8700000000008,66.596 14.819999999999709,66.57000000000005 14.75,66.51800000000003 L12.350000000000364,64.56500000000005 L9.930000000000291,66.51800000000003 C9.860000000000582,66.57000000000005 9.80999999999949,66.596 9.75,66.596 C9.69000000000051,66.596 9.6299999999992,66.57000000000005 9.569999999999709,66.51800000000003 L9.139999999999418,66.20600000000002 C9.079999999999927,66.14300000000003 9.049999999999272,66.06500000000005 9.049999999999272,65.971 C9.049999999999272,65.90899999999999 9.079999999999927,65.83100000000002 9.139999999999418,65.73699999999997 L11.469999999999345,63.846000000000004 L9.139999999999418,61.95600000000002 C9.079999999999927,61.88300000000004 9.049999999999272,61.80200000000002 9.049999999999272,61.714000000000055 C9.049999999999272,61.625 9.079999999999927,61.549999999999955 9.139999999999418,61.486999999999966 L9.569999999999709,61.174999999999955 C9.6299999999992,61.12199999999996 9.69000000000051,61.096000000000004 9.75,61.096000000000004 C9.80999999999949,61.096000000000004 9.860000000000582,61.12199999999996 9.930000000000291,61.174999999999955 L12.350000000000364,63.12800000000004" />
<path d="M13.44000000000051,71.096 C14.069999999999709,71.096 14.600000000000364,71.25800000000004 15.030000000000655,71.58100000000002 C15.430000000000291,71.93499999999995 15.6299999999992,72.37800000000004 15.6299999999992,72.90899999999999 C15.6299999999992,73.80499999999995 15.170000000000073,74.64300000000003 14.25,75.42499999999995 C13.319999999999709,76.20600000000002 12.30999999999949,76.596 11.239999999999782,76.596 C10.610000000000582,76.596 10.090000000000146,76.43499999999995 9.659999999999854,76.11199999999997 C9.25,75.75800000000004 9.049999999999272,75.31500000000005 9.049999999999272,74.78399999999999 C9.049999999999272,73.88800000000003 9.520000000000437,73.04999999999995 10.459999999999127,72.26800000000003 C11.3700000000008,71.48699999999997 12.3700000000008,71.096 13.44000000000051,71.096" />
<path d="M13.44000000000051,81.096 C14.069999999999709,81.096 14.600000000000364,81.25800000000004 15.030000000000655,81.58100000000002 C15.430000000000291,81.93499999999995 15.6299999999992,82.37800000000004 15.6299999999992,82.90899999999999 C15.6299999999992,83.80499999999995 15.170000000000073,84.64300000000003 14.25,85.42499999999995 C13.319999999999709,86.20600000000002 12.30999999999949,86.596 11.239999999999782,86.596 C10.610000000000582,86.596 10.090000000000146,86.43499999999995 9.659999999999854,86.11199999999997 C9.25,85.75800000000004 9.049999999999272,85.31500000000005 9.049999999999272,84.78399999999999 C9.049999999999272,83.88800000000003 9.520000000000437,83.04999999999995 10.459999999999127,82.26800000000003 C11.3700000000008,81.48699999999997 12.3700000000008,81.096 13.44000000000051,81.096" />
<path d="M13.44000000000051,26.096000000000004 C14.069999999999709,26.096000000000004 14.600000000000364,26.258000000000038 15.030000000000655,26.581000000000017 C15.430000000000291,26.934999999999945 15.6299999999992,27.378000000000043 15.6299999999992,27.908999999999992 C15.6299999999992,28.80499999999995 15.170000000000073,29.64300000000003 14.25,30.424999999999955 C13.319999999999709,31.206000000000017 12.30999999999949,31.596000000000004 11.239999999999782,31.596000000000004 C10.610000000000582,31.596000000000004 10.090000000000146,31.434999999999945 9.659999999999854,31.111999999999966 C9.25,30.758000000000038 9.049999999999272,30.315000000000055 9.049999999999272,29.783999999999992 C9.049999999999272,28.888000000000034 9.520000000000437,28.049999999999955 10.459999999999127,27.26800000000003 C11.3700000000008,26.486999999999966 12.3700000000008,26.096000000000004 13.44000000000051,26.096000000000004" />
<path d="M99.96999999999935,19.736999999999966 C100.36000000000058,19.736999999999966 100.63999999999942,19.841000000000008 100.80999999999949,20.049999999999955 C100.98999999999978,20.278999999999996 101.10000000000036,20.503000000000043 101.13999999999942,20.721000000000004 C101.14999999999964,20.940000000000055 101.21999999999935,21.158999999999992 101.34000000000015,21.378000000000043 C101.42000000000007,21.586000000000013 101.55999999999949,21.690000000000055 101.76000000000022,21.690000000000055 C101.89999999999964,21.690000000000055 102.10000000000036,21.533999999999992 102.36000000000058,21.221000000000004 C102.64999999999964,20.85699999999997 102.84000000000015,20.596000000000004 102.92000000000007,20.440000000000055 C102.97999999999956,20.315000000000055 103.06999999999971,20.253000000000043 103.19000000000051,20.253000000000043 C103.19000000000051,20.253000000000043 103.20000000000073,20.253000000000043 103.21999999999935,20.253000000000043 C103.32999999999993,20.263000000000034 103.42000000000007,20.326000000000022 103.46999999999935,20.440000000000055 L99.88999999999942,33.846000000000004 C99.76000000000022,33.98199999999997 99.57999999999993,34.049999999999955 99.35000000000036,34.049999999999955 C99.1200000000008,34.049999999999955 98.93000000000029,33.98199999999997 98.79999999999927,33.846000000000004 L100.80999999999949,27.299999999999955 C99.94000000000051,27.611999999999966 99.22999999999956,27.76800000000003 98.69000000000051,27.76800000000003 C98.21999999999935,27.76800000000003 97.80999999999949,27.621999999999957 97.46999999999935,27.331000000000017 C97.11000000000058,27.038999999999987 96.94000000000051,26.658999999999992 96.94000000000051,26.190000000000055 C96.94000000000051,25.783999999999992 97.06999999999971,25.44500000000005 97.34000000000015,25.174999999999955 C97.6299999999992,24.89300000000003 97.97999999999956,24.753000000000043 98.38999999999942,24.753000000000043 C98.77000000000044,24.753000000000043 99.05999999999949,24.85699999999997 99.22999999999956,25.065000000000055 C99.42000000000007,25.283999999999992 99.54000000000087,25.503000000000043 99.57999999999993,25.721000000000004 C99.6200000000008,25.98199999999997 99.69000000000051,26.206000000000017 99.78000000000065,26.39300000000003 C99.86000000000058,26.601999999999975 100.0,26.706000000000017 100.20000000000073,26.706000000000017 C100.36000000000058,26.706000000000017 100.57999999999993,26.524 100.8700000000008,26.158999999999992 C101.17000000000007,25.815000000000055 101.35000000000036,25.543999999999983 101.42000000000007,25.346000000000004 L102.32999999999993,22.315000000000055 C101.48999999999978,22.616999999999962 100.79999999999927,22.76800000000003 100.25,22.76800000000003 C99.78000000000065,22.76800000000003 99.3700000000008,22.616999999999962 99.03000000000065,22.315000000000055 C98.68000000000029,22.033999999999992 98.5,21.658999999999992 98.5,21.190000000000055 C98.5,20.783999999999992 98.63999999999942,20.44500000000005 98.94000000000051,20.174999999999955 C99.21999999999935,19.883000000000038 99.55999999999949,19.736999999999966 99.96999999999935,19.736999999999966" />
<path d="M9.049999999999272,96.346 L82.8700000000008,96.346 L82.8700000000008,98.846 L9.049999999999272,98.846 L9.049999999999272,96.346" />
<path d="M9.049999999999272,42.596000000000004 L34.090000000000146,37.462999999999965 L34.090000000000146,39.962999999999965 L9.049999999999272,45.096000000000004 L9.049999999999272,42.596000000000004" />
<path d="M62.3799999999992,14.378000000000043 C62.68000000000029,14.378000000000043 63.0,14.861999999999966 63.350000000000364,15.831000000000017 C63.67000000000007,16.799999999999955 63.82999999999993,17.721000000000004 63.82999999999993,18.596000000000004 C63.82999999999993,19.336000000000013 63.649999999999636,20.07000000000005 63.29000000000087,20.799999999999955 C62.909999999999854,21.581000000000017 62.45999999999913,22.258000000000038 61.94000000000051,22.831000000000017 L60.32999999999993,24.628000000000043 C59.840000000000146,25.201000000000022 59.399999999999636,25.861999999999966 59.0,26.611999999999966 C58.63999999999942,27.341000000000008 58.45999999999913,28.086000000000013 58.45999999999913,28.846000000000004 L57.82999999999993,28.846000000000004 L57.82999999999993,23.846000000000004 L58.45999999999913,23.846000000000004 C58.80999999999949,23.628000000000043 59.32999999999993,23.274 60.02000000000044,22.783999999999992 C60.32999999999993,22.55499999999995 60.79999999999927,22.163999999999987 61.43000000000029,21.611999999999966 C61.94000000000051,21.14300000000003 62.31999999999971,20.663999999999987 62.57999999999993,20.174999999999955 C62.850000000000364,19.653999999999996 62.98999999999978,19.128000000000043 62.98999999999978,18.596000000000004 C62.98999999999978,17.35699999999997 62.6299999999992,16.121999999999957 61.909999999999854,14.893000000000029 C61.909999999999854,14.893000000000029 61.909999999999854,14.866999999999962 61.909999999999854,14.815000000000055 C61.909999999999854,14.701000000000022 61.95000000000073,14.606999999999971 62.04000000000087,14.533999999999992 C62.13999999999942,14.42999999999995 62.25,14.378000000000043 62.3799999999992,14.378000000000043" />
<path d="M66.5,12.150999999999954 C66.28000000000065,11.927000000000021 66.15999999999985,11.658999999999992 66.15999999999985,11.346000000000004 C66.15999999999985,11.033999999999992 66.28000000000065,10.765999999999963 66.5,10.54200000000003 C66.71999999999935,10.317999999999984 66.98999999999978,10.206000000000017 67.30999999999949,10.206000000000017 C67.6200000000008,10.206000000000017 67.8799999999992,10.317999999999984 68.10000000000036,10.54200000000003 C68.31999999999971,10.765999999999963 68.43000000000029,11.033999999999992 68.43000000000029,11.346000000000004 C68.43000000000029,11.658999999999992 68.31999999999971,11.927000000000021 68.10000000000036,12.150999999999954 C67.8799999999992,12.375 67.6200000000008,12.486999999999966 67.30999999999949,12.486999999999966 C66.98999999999978,12.486999999999966 66.71999999999935,12.375 66.5,12.150999999999954" />
<path d="M216.34000000000015,73.846 C220.4400000000005,70.32799999999997 232.75,70.32799999999997 236.85000000000036,73.846 C232.75,71.12800000000004 220.4400000000005,71.12800000000004 216.34000000000015,73.846" />
<path d="M233.03000000000065,20.51800000000003 L233.03000000000065,22.065000000000055 C233.03000000000065,22.616999999999962 233.0599999999995,23.05499999999995 233.11000000000058,23.378000000000043 C233.54000000000087,23.013000000000034 233.84000000000015,22.741999999999962 234.03000000000065,22.565000000000055 C234.23999999999978,22.35699999999997 234.45000000000073,22.067999999999984 234.65999999999985,21.69799999999998 C234.86000000000058,21.327999999999975 234.96999999999935,20.961000000000013 234.96999999999935,20.596000000000004 C234.96999999999935,20.23199999999997 234.88999999999942,19.918999999999983 234.72999999999956,19.658999999999992 C234.57999999999993,19.399 234.3700000000008,19.26800000000003 234.11000000000058,19.26800000000003 C233.79999999999927,19.26800000000003 233.54000000000087,19.388000000000034 233.32999999999993,19.628000000000043 C233.1299999999992,19.888000000000034 233.03000000000065,20.184999999999945 233.03000000000065,20.51800000000003 M232.20000000000073,24.096000000000004 L231.95000000000073,12.206000000000017 C232.13999999999942,12.101999999999975 232.3199999999997,12.049999999999955 232.51000000000022,12.049999999999955 C232.6900000000005,12.049999999999955 232.8700000000008,12.101999999999975 233.04999999999927,12.206000000000017 L232.88999999999942,19.096000000000004 C233.42000000000007,18.638000000000034 234.04000000000087,18.408999999999992 234.72999999999956,18.408999999999992 C235.22999999999956,18.408999999999992 235.64999999999964,18.616999999999962 235.98999999999978,19.033999999999992 C236.32999999999993,19.451000000000022 236.5,19.92999999999995 236.5,20.471000000000004 C236.5,20.80499999999995 236.38999999999942,21.163999999999987 236.17000000000007,21.549999999999955 C235.95999999999913,21.89300000000003 235.73999999999978,22.163999999999987 235.51000000000022,22.361999999999966 C235.3799999999992,22.466000000000008 235.04999999999927,22.726999999999975 234.51000000000022,23.14300000000003 C234.36000000000058,23.258000000000038 234.17000000000007,23.39300000000003 233.95999999999913,23.549999999999955 C233.75,23.706000000000017 233.61000000000058,23.80499999999995 233.5599999999995,23.846000000000004 C233.46999999999935,23.899 233.3799999999992,24.003000000000043 233.29999999999927,24.158999999999992 C233.20999999999913,24.293999999999983 233.11000000000058,24.403999999999996 232.97999999999956,24.486999999999966 C232.89999999999964,24.57000000000005 232.79000000000087,24.611999999999966 232.65999999999985,24.611999999999966 C232.53000000000065,24.611999999999966 232.4300000000003,24.565000000000055 232.34000000000015,24.471000000000004 C232.25,24.378000000000043 232.20000000000073,24.253000000000043 232.20000000000073,24.096000000000004" />
<path d="M206.67000000000007,40.08100000000002 C206.67000000000007,40.33100000000002 206.54999999999927,40.45600000000002 206.29999999999927,40.45600000000002 C206.0599999999995,40.45600000000002 205.9400000000005,40.33100000000002 205.9400000000005,40.08100000000002 L205.9400000000005,37.190000000000055 L204.28000000000065,37.815000000000055 L204.28000000000065,40.971000000000004 C204.28000000000065,41.221000000000004 204.14999999999964,41.346000000000004 203.89999999999964,41.346000000000004 C203.64999999999964,41.346000000000004 203.53000000000065,41.221000000000004 203.53000000000065,40.971000000000004 L203.53000000000065,38.065000000000055 L202.89999999999964,38.299999999999955 C202.88999999999942,38.309999999999945 202.84000000000015,38.315000000000055 202.75,38.315000000000055 C202.63999999999942,38.315000000000055 202.54999999999927,38.275999999999954 202.46999999999935,38.19799999999998 C202.39999999999964,38.120000000000005 202.36000000000058,38.028999999999996 202.36000000000058,37.924999999999955 L202.36000000000058,36.721000000000004 C202.36000000000058,36.524 202.4400000000005,36.399 202.61000000000058,36.346000000000004 L203.53000000000065,36.03399999999999 L203.53000000000065,32.83100000000002 L202.89999999999964,33.049999999999955 C202.88999999999942,33.059999999999945 202.84000000000015,33.065000000000055 202.75,33.065000000000055 C202.63999999999942,33.065000000000055 202.54999999999927,33.025999999999954 202.46999999999935,32.94799999999998 C202.39999999999964,32.870000000000005 202.36000000000058,32.778999999999996 202.36000000000058,32.674999999999955 L202.36000000000058,31.456000000000017 C202.36000000000058,31.278999999999996 202.4400000000005,31.163999999999987 202.61000000000058,31.111999999999966 L203.53000000000065,30.753000000000043 L203.53000000000065,27.611999999999966 C203.53000000000065,27.361999999999966 203.64999999999964,27.236999999999966 203.89999999999964,27.236999999999966 C204.14999999999964,27.236999999999966 204.28000000000065,27.361999999999966 204.28000000000065,27.611999999999966 L204.28000000000065,30.503000000000043 L205.9400000000005,29.878000000000043 L205.9400000000005,26.721000000000004 C205.9400000000005,26.471000000000004 206.0599999999995,26.346000000000004 206.29999999999927,26.346000000000004 C206.54999999999927,26.346000000000004 206.67000000000007,26.471000000000004 206.67000000000007,26.721000000000004 L206.67000000000007,29.628000000000043 L207.32999999999993,29.39300000000003 C207.34000000000015,29.383000000000038 207.3799999999992,29.378000000000043 207.45000000000073,29.378000000000043 C207.54000000000087,29.378000000000043 207.63999999999942,29.413999999999987 207.75,29.486999999999966 C207.82999999999993,29.57000000000005 207.8700000000008,29.663999999999987 207.8700000000008,29.76800000000003 L207.8700000000008,30.971000000000004 C207.8700000000008,31.158999999999992 207.78000000000065,31.283999999999992 207.59000000000015,31.346000000000004 L206.67000000000007,31.658999999999992 L206.67000000000007,34.861999999999966 L207.32999999999993,34.64300000000003 C207.34000000000015,34.63300000000004 207.3799999999992,34.62800000000004 207.45000000000073,34.62800000000004 C207.54000000000087,34.62800000000004 207.63999999999942,34.66899999999998 207.75,34.75300000000004 C207.82999999999993,34.82600000000002 207.8700000000008,34.91399999999999 207.8700000000008,35.01800000000003 L207.8700000000008,36.236999999999966 C207.8700000000008,36.403999999999996 207.78000000000065,36.51800000000003 207.59000000000015,36.58100000000002 L206.67000000000007,36.940000000000055 L206.67000000000007,40.08100000000002 M205.9400000000005,31.956000000000017 L204.28000000000065,32.53399999999999 L204.28000000000065,35.736999999999966 L205.9400000000005,35.15899999999999 L205.9400000000005,31.956000000000017" />
<path d="M240.9400000000005,63.12800000000004 L243.35000000000036,61.174999999999955 C243.40999999999985,61.12199999999996 243.46999999999935,61.096000000000004 243.52000000000044,61.096000000000004 C243.59000000000015,61.096000000000004 243.65999999999985,61.12199999999996 243.71999999999935,61.174999999999955 L244.1299999999992,61.486999999999966 C244.1900000000005,61.549999999999955 244.21999999999935,61.62800000000004 244.21999999999935,61.721000000000004 C244.21999999999935,61.78399999999999 244.1900000000005,61.861999999999966 244.1299999999992,61.95600000000002 L241.79999999999927,63.846000000000004 L244.1299999999992,65.73699999999997 C244.1900000000005,65.80999999999995 244.21999999999935,65.89099999999996 244.21999999999935,65.97900000000004 C244.21999999999935,66.06799999999998 244.1900000000005,66.14300000000003 244.1299999999992,66.20600000000002 L243.71999999999935,66.51800000000003 C243.65999999999985,66.57000000000005 243.59000000000015,66.596 243.52000000000044,66.596 C243.46999999999935,66.596 243.40999999999985,66.57000000000005 243.35000000000036,66.51800000000003 L240.9400000000005,64.56500000000005 L238.52000000000044,66.51800000000003 C238.45999999999913,66.57000000000005 238.39999999999964,66.596 238.35000000000036,66.596 C238.28000000000065,66.596 238.21999999999935,66.57000000000005 238.15999999999985,66.51800000000003 L237.73999999999978,66.20600000000002 C237.67000000000007,66.14300000000003 237.63999999999942,66.06500000000005 237.63999999999942,65.971 C237.63999999999942,65.90899999999999 237.67000000000007,65.83100000000002 237.73999999999978,65.73699999999997 L240.0599999999995,63.846000000000004 L237.73999999999978,61.95600000000002 C237.67000000000007,61.88300000000004 237.63999999999942,61.80200000000002 237.63999999999942,61.714000000000055 C237.63999999999942,61.625 237.67000000000007,61.549999999999955 237.73999999999978,61.486999999999966 L238.15999999999985,61.174999999999955 C238.21999999999935,61.12199999999996 238.28000000000065,61.096000000000004 238.35000000000036,61.096000000000004 C238.39999999999964,61.096000000000004 238.45999999999913,61.12199999999996 238.52000000000044,61.174999999999955 L240.9400000000005,63.12800000000004" />
<path d="M242.03000000000065,71.096 C242.65999999999985,71.096 243.1900000000005,71.25800000000004 243.6299999999992,71.58100000000002 C244.02000000000044,71.93499999999995 244.21999999999935,72.37800000000004 244.21999999999935,72.90899999999999 C244.21999999999935,73.80499999999995 243.76000000000022,74.64300000000003 242.85000000000036,75.42499999999995 C241.90999999999985,76.20600000000002 240.89999999999964,76.596 239.82999999999993,76.596 C239.20999999999913,76.596 238.6800000000003,76.43499999999995 238.25,76.11199999999997 C237.85000000000036,75.75800000000004 237.63999999999942,75.31500000000005 237.63999999999942,74.78399999999999 C237.63999999999942,73.88800000000003 238.11000000000058,73.04999999999995 239.04999999999927,72.26800000000003 C239.96999999999935,71.48699999999997 240.95999999999913,71.096 242.03000000000065,71.096" />
<path d="M242.03000000000065,81.096 C242.65999999999985,81.096 243.1900000000005,81.25800000000004 243.6299999999992,81.58100000000002 C244.02000000000044,81.93499999999995 244.21999999999935,82.37800000000004 244.21999999999935,82.90899999999999 C244.21999999999935,83.80499999999995 243.76000000000022,84.64300000000003 242.85000000000036,85.42499999999995 C241.90999999999985,86.20600000000002 240.89999999999964,86.596 239.82999999999993,86.596 C239.20999999999913,86.596 238.6800000000003,86.43499999999995 238.25,86.11199999999997 C237.85000000000036,85.75800000000004 237.63999999999942,85.31500000000005 237.63999999999942,84.78399999999999 C237.63999999999942,83.88800000000003 238.11000000000058,83.04999999999995 239.04999999999927,82.26800000000003 C239.96999999999935,81.48699999999997 240.95999999999913,81.096 242.03000000000065,81.096" />
<path d="M242.03000000000065,18.596000000000004 C242.65999999999985,18.596000000000004 243.1900000000005,18.758000000000038 243.6299999999992,19.081000000000017 C244.02000000000044,19.434999999999945 244.21999999999935,19.878000000000043 244.21999999999935,20.408999999999992 C244.21999999999935,21.30499999999995 243.76000000000022,22.14300000000003 242.85000000000036,22.924999999999955 C241.90999999999985,23.706000000000017 240.89999999999964,24.096000000000004 239.82999999999993,24.096000000000004 C239.20999999999913,24.096000000000004 238.6800000000003,23.934999999999945 238.25,23.611999999999966 C237.85000000000036,23.258000000000038 237.63999999999942,22.815000000000055 237.63999999999942,22.283999999999992 C237.63999999999942,21.388000000000034 238.11000000000058,20.549999999999955 239.04999999999927,19.76800000000003 C239.96999999999935,18.986999999999966 240.95999999999913,18.596000000000004 242.03000000000065,18.596000000000004" />
<path d="M212.26000000000022,63.12800000000004 L214.67000000000007,61.174999999999955 C214.72999999999956,61.12199999999996 214.79000000000087,61.096000000000004 214.84000000000015,61.096000000000004 C214.90999999999985,61.096000000000004 214.97999999999956,61.12199999999996 215.04000000000087,61.174999999999955 L215.45000000000073,61.486999999999966 C215.51000000000022,61.549999999999955 215.54000000000087,61.62800000000004 215.54000000000087,61.721000000000004 C215.54000000000087,61.78399999999999 215.51000000000022,61.861999999999966 215.45000000000073,61.95600000000002 L213.1200000000008,63.846000000000004 L215.45000000000073,65.73699999999997 C215.51000000000022,65.80999999999995 215.54000000000087,65.89099999999996 215.54000000000087,65.97900000000004 C215.54000000000087,66.06799999999998 215.51000000000022,66.14300000000003 215.45000000000073,66.20600000000002 L215.04000000000087,66.51800000000003 C214.97999999999956,66.57000000000005 214.90999999999985,66.596 214.84000000000015,66.596 C214.79000000000087,66.596 214.72999999999956,66.57000000000005 214.67000000000007,66.51800000000003 L212.26000000000022,64.56500000000005 L209.84000000000015,66.51800000000003 C209.78000000000065,66.57000000000005 209.71999999999935,66.596 209.67000000000007,66.596 C209.61000000000058,66.596 209.54000000000087,66.57000000000005 209.47999999999956,66.51800000000003 L209.0599999999995,66.20600000000002 C209.0,66.14300000000003 208.95999999999913,66.06500000000005 208.95999999999913,65.971 C208.95999999999913,65.90899999999999 209.0,65.83100000000002 209.0599999999995,65.73699999999997 L211.38999999999942,63.846000000000004 L209.0599999999995,61.95600000000002 C209.0,61.88300000000004 208.95999999999913,61.80200000000002 208.95999999999913,61.714000000000055 C208.95999999999913,61.625 209.0,61.549999999999955 209.0599999999995,61.486999999999966 L209.47999999999956,61.174999999999955 C209.54000000000087,61.12199999999996 209.61000000000058,61.096000000000004 209.67000000000007,61.096000000000004 C209.71999999999935,61.096000000000004 209.78000000000065,61.12199999999996 209.84000000000015,61.174999999999955 L212.26000000000022,63.12800000000004" />
<path d="M213.36000000000058,71.096 C213.97999999999956,71.096 214.51000000000022,71.25800000000004 214.95000000000073,71.58100000000002 C215.35000000000036,71.93499999999995 215.54000000000087,72.37800000000004 215.54000000000087,72.90899999999999 C215.54000000000087,73.80499999999995 215.07999999999993,74.64300000000003 214.17000000000007,75.42499999999995 C213.22999999999956,76.20600000000002 212.22999999999956,76.596 211.14999999999964,76.596 C210.53000000000065,76.596 210.0,76.43499999999995 209.5699999999997,76.11199999999997 C209.17000000000007,75.75800000000004 208.95999999999913,75.31500000000005 208.95999999999913,74.78399999999999 C208.95999999999913,73.88800000000003 209.4300000000003,73.04999999999995 210.3700000000008,72.26800000000003 C211.29000000000087,71.48699999999997 212.28000000000065,71.096 213.36000000000058,71.096" />
<path d="M213.36000000000058,81.096 C213.97999999999956,81.096 214.51000000000022,81.25800000000004 214.95000000000073,81.58100000000002 C215.35000000000036,81.93499999999995 215.54000000000087,82.37800000000004 215.54000000000087,82.90899999999999 C215.54000000000087,83.80499999999995 215.07999999999993,84.64300000000003 214.17000000000007,85.42499999999995 C213.22999999999956,86.20600000000002 212.22999999999956,86.596 211.14999999999964,86.596 C210.53000000000065,86.596 210.0,86.43499999999995 209.5699999999997,86.11199999999997 C209.17000000000007,85.75800000000004 208.95999999999913,85.31500000000005 208.95999999999913,84.78399999999999 C208.95999999999913,83.88800000000003 209.4300000000003,83.04999999999995 210.3700000000008,82.26800000000003 C211.29000000000087,81.48699999999997 212.28000000000065,81.096 213.36000000000058,81.096" />
<path d="M213.36000000000058,31.096000000000004 C213.97999999999956,31.096000000000004 214.51000000000022,31.258000000000038 214.95000000000073,31.581000000000017 C215.35000000000036,31.934999999999945 215.54000000000087,32.37800000000004 215.54000000000087,32.90899999999999 C215.54000000000087,33.80499999999995 215.07999999999993,34.64300000000003 214.17000000000007,35.424999999999955 C213.22999999999956,36.20600000000002 212.22999999999956,36.596000000000004 211.14999999999964,36.596000000000004 C210.53000000000065,36.596000000000004 210.0,36.434999999999945 209.5699999999997,36.111999999999966 C209.17000000000007,35.75800000000004 208.95999999999913,35.315000000000055 208.95999999999913,34.78399999999999 C208.95999999999913,33.888000000000034 209.4300000000003,33.049999999999955 210.3700000000008,32.26800000000003 C211.29000000000087,31.486999999999966 212.28000000000065,31.096000000000004 213.36000000000058,31.096000000000004" />
<path d="M184.02000000000044,81.346 L182.17000000000007,81.346 C182.03000000000065,81.346 181.95000000000073,81.28399999999999 181.95000000000073,81.15899999999999 L181.95000000000073,71.53399999999999 C181.95000000000073,71.40899999999999 182.03000000000065,71.346 182.17000000000007,71.346 L184.02000000000044,71.346 C184.13999999999942,71.346 184.20000000000073,71.40899999999999 184.20000000000073,71.53399999999999 L184.20000000000073,81.15899999999999 C184.20000000000073,81.28399999999999 184.13999999999942,81.346 184.02000000000044,81.346 M179.60000000000036,81.346 L177.73999999999978,81.346 C177.61000000000058,81.346 177.54999999999927,81.28399999999999 177.54999999999927,81.15899999999999 L177.54999999999927,71.53399999999999 C177.54999999999927,71.40899999999999 177.61000000000058,71.346 177.73999999999978,71.346 L179.60000000000036,71.346 C179.73999999999978,71.346 179.8099999999995,71.40899999999999 179.8099999999995,71.53399999999999 L179.8099999999995,81.15899999999999 C179.8099999999995,81.28399999999999 179.73999999999978,81.346 179.60000000000036,81.346" />
<path d="M179.52000000000044,37.40899999999999 C179.86000000000058,37.04399999999998 180.03000000000065,36.70600000000002 180.03000000000065,36.39300000000003 C180.0,36.101999999999975 179.8799999999992,35.88300000000004 179.67000000000007,35.736999999999966 C179.4400000000005,35.58100000000002 179.17000000000007,35.50300000000004 178.86000000000058,35.50300000000004 C178.6299999999992,35.50300000000004 178.45000000000073,35.57600000000002 178.3099999999995,35.721000000000004 C178.1800000000003,35.85699999999997 178.11000000000058,36.01800000000003 178.11000000000058,36.20600000000002 C178.11000000000058,36.44500000000005 178.20999999999913,36.62199999999996 178.40999999999985,36.736999999999966 L179.52000000000044,37.40899999999999 M179.82999999999993,37.565000000000055 C180.3799999999992,37.85699999999997 180.65999999999985,38.263000000000034 180.65999999999985,38.78399999999999 C180.65999999999985,38.78399999999999 180.65999999999985,38.80499999999995 180.65999999999985,38.846000000000004 C180.65999999999985,39.24199999999996 180.48999999999978,39.57600000000002 180.15999999999985,39.846000000000004 C179.82999999999993,40.12800000000004 179.3799999999992,40.26800000000003 178.78000000000065,40.26800000000003 C178.28000000000065,40.26800000000003 177.85000000000036,40.138000000000034 177.48999999999978,39.87800000000004 C177.1200000000008,39.638000000000034 176.9400000000005,39.309999999999945 176.9400000000005,38.89300000000003 C176.9400000000005,38.70600000000002 176.98999999999978,38.53899999999999 177.07999999999993,38.39300000000003 C177.1800000000003,38.226999999999975 177.27000000000044,38.111999999999966 177.32999999999993,38.049999999999955 C177.32999999999993,38.049999999999955 177.45000000000073,37.924999999999955 177.70000000000073,37.674999999999955 C177.29999999999927,37.403999999999996 177.10000000000036,37.05499999999995 177.10000000000036,36.62800000000004 C177.10000000000036,36.263000000000034 177.25,35.940000000000055 177.5599999999995,35.65899999999999 C177.88999999999942,35.399 178.3199999999997,35.26800000000003 178.86000000000058,35.26800000000003 C179.29999999999927,35.26800000000003 179.67000000000007,35.36699999999996 179.98999999999978,35.565000000000055 C180.29999999999927,35.763000000000034 180.45000000000073,36.03899999999999 180.45000000000073,36.39300000000003 C180.45000000000073,36.726999999999975 180.25,37.11699999999996 179.82999999999993,37.565000000000055 M178.0,37.846000000000004 C177.61000000000058,38.190000000000055 177.39999999999964,38.53899999999999 177.3799999999992,38.89300000000003 C177.39999999999964,39.226999999999975 177.54000000000087,39.49699999999996 177.79999999999927,39.70600000000002 C178.09000000000015,39.924999999999955 178.42000000000007,40.03399999999999 178.78000000000065,40.03399999999999 C179.04000000000087,40.03399999999999 179.25,39.95100000000002 179.40999999999985,39.78399999999999 C179.5599999999995,39.62800000000004 179.63999999999942,39.434999999999945 179.63999999999942,39.20600000000002 C179.61000000000058,38.924999999999955 179.48999999999978,38.721000000000004 179.28000000000065,38.596000000000004 L178.0,37.846000000000004 M185.6299999999992,17.065000000000055 C185.4400000000005,16.866999999999962 185.35000000000036,16.625 185.35000000000036,16.339000000000055 C185.35000000000036,16.05200000000002 185.4400000000005,15.812999999999988 185.6299999999992,15.620000000000005 C185.82999999999993,15.427000000000021 186.0699999999997,15.331000000000017 186.35000000000036,15.331000000000017 C186.63999999999942,15.331000000000017 186.8799999999992,15.427000000000021 187.07999999999993,15.620000000000005 C187.28000000000065,15.812999999999988 187.3799999999992,16.05200000000002 187.3799999999992,16.339000000000055 C187.3799999999992,16.625 187.28000000000065,16.866999999999962 187.07999999999993,17.065000000000055 C186.8799999999992,17.263000000000034 186.63999999999942,17.361999999999966 186.35000000000036,17.361999999999966 C186.0699999999997,17.361999999999966 185.82999999999993,17.263000000000034 185.6299999999992,17.065000000000055 M185.6299999999992,22.07299999999998 C185.4400000000005,21.879999999999995 185.35000000000036,21.640999999999963 185.35000000000036,21.354000000000042 C185.35000000000036,21.067999999999984 185.4400000000005,20.826000000000022 185.6299999999992,20.628000000000043 C185.82999999999993,20.42999999999995 186.0699999999997,20.331000000000017 186.35000000000036,20.331000000000017 C186.63999999999942,20.331000000000017 186.8799999999992,20.42999999999995 187.07999999999993,20.628000000000043 C187.28000000000065,20.826000000000022 187.3799999999992,21.067999999999984 187.3799999999992,21.354000000000042 C187.3799999999992,21.640999999999963 187.28000000000065,21.879999999999995 187.07999999999993,22.07299999999998 C186.8799999999992,22.265999999999963 186.63999999999942,22.361999999999966 186.35000000000036,22.361999999999966 C186.0699999999997,22.361999999999966 185.82999999999993,22.265999999999963 185.6299999999992,22.07299999999998 M178.86000000000058,13.596000000000004 C180.59000000000015,13.596000000000004 182.01000000000022,14.028999999999996 183.11000000000058,14.893000000000029 C184.1800000000003,15.809999999999945 184.71999999999935,17.049999999999955 184.71999999999935,18.611999999999966 C184.71999999999935,19.663999999999987 184.51000000000022,20.628000000000043 184.10000000000036,21.503000000000043 C183.70000000000073,22.418999999999983 183.1800000000003,23.226999999999975 182.54999999999927,23.924999999999955 C181.88999999999942,24.64300000000003 181.11000000000058,25.32000000000005 180.1900000000005,25.956000000000017 C179.28000000000065,26.581000000000017 178.36000000000058,27.14300000000003 177.40999999999985,27.64300000000003 C175.47999999999956,28.611999999999966 174.40999999999985,29.096000000000004 174.20000000000073,29.096000000000004 C174.04000000000087,29.096000000000004 173.95000000000073,29.013000000000034 173.95000000000073,28.846000000000004 C173.95000000000073,28.783999999999992 173.97999999999956,28.726999999999975 174.03000000000065,28.674999999999955 C174.70000000000073,28.278999999999996 175.51000000000022,27.778999999999996 176.46999999999935,27.174999999999955 C177.10000000000036,26.76800000000003 177.8199999999997,26.206000000000017 178.65999999999985,25.486999999999966 C179.46999999999935,24.809999999999945 180.10000000000036,24.174999999999955 180.53000000000065,23.581000000000017 C180.98999999999978,22.986999999999966 181.40999999999985,22.258000000000038 181.78000000000065,21.39300000000003 C182.11000000000058,20.51800000000003 182.27000000000044,19.653999999999996 182.27000000000044,18.799999999999955 C182.27000000000044,17.538999999999987 181.95000000000073,16.440000000000055 181.32999999999993,15.503000000000043 C180.70000000000073,14.565000000000055 179.8799999999992,14.096000000000004 178.86000000000058,14.096000000000004 C178.1299999999992,14.096000000000004 177.51000000000022,14.331000000000017 176.98999999999978,14.799999999999955 C176.42000000000007,15.278999999999996 176.02000000000044,15.883000000000038 175.77000000000044,16.611999999999966 C176.02000000000044,16.508000000000038 176.25,16.456000000000017 176.45000000000073,16.456000000000017 C177.0,16.456000000000017 177.46999999999935,16.653999999999996 177.86000000000058,17.049999999999955 C178.25,17.466000000000008 178.4400000000005,17.940000000000055 178.4400000000005,18.471000000000004 C178.4400000000005,19.033999999999992 178.25,19.538999999999987 177.8799999999992,19.986999999999966 C177.46999999999935,20.383000000000038 177.0,20.581000000000017 176.45000000000073,20.581000000000017 C175.8700000000008,20.581000000000017 175.35000000000036,20.383000000000038 174.8799999999992,19.986999999999966 C174.4300000000003,19.538999999999987 174.20000000000073,19.033999999999992 174.20000000000073,18.471000000000004 C174.20000000000073,17.128000000000043 174.65999999999985,15.981999999999971 175.57999999999993,15.033999999999992 C176.47999999999956,14.076000000000022 177.5699999999997,13.596000000000004 178.86000000000058,13.596000000000004" />
<path d="M208.95999999999913,100.096 L295.64999999999964,93.79899999999998 L295.64999999999964,96.29899999999998 L208.95999999999913,102.596 L208.95999999999913,100.096" />
<path d="M214.89999999999964,11.460000000000036 L244.22999999999956,6.346000000000004 L244.22999999999956,8.846000000000004 L214.89999999999964,13.960000000000036 L214.89999999999964,11.460000000000036" />
<polyline points="0.0,13.846000000000004 113.51000000000022,13.846000000000004" fill="none" stroke="#000000" stroke-width="0.40" />
<polyline points="0.0,18.846000000000004 113.51000000000022,18.846000000000004" fill="none" stroke="#000000" stroke-width="0.40" />
<polyline points="0.0,23.846000000000004 113.51000000000022,23.846000000000004" fill="none" stroke="#000000" stroke-width="0.40" />
<polyline points="0.0,28.846000000000004 113.51000000000022,28.846000000000004" fill="none" stroke="#000000" stroke-width="0.40" />
<polyline points="0.0,33.846000000000004 113.51000000000022,33.846000000000004" fill="none" stroke="#000000" stroke-width="0.40" />
<polyline points="0.0,66.346 113.51000000000022,66.346" fill="none" stroke="#000000" stroke-width="0.40" />
<polyline points="0.0,71.346 113.51000000000022,71.346" fill="none" stroke="#000000" stroke-width="0.40" />
<polyline points="0.0,76.346 113.51000000000022,76.346" fill="none" stroke="#000000" stroke-width="0.40" />
<polyline points="0.0,81.346 113.51000000000022,81.346" fill="none" stroke="#000000" stroke-width="0.40" />
<polyline points="0.0,86.346 113.51000000000022,86.346" fill="none" stroke="#000000" stroke-width="0.40" />
<polyline points="113.11000000000058,66.346 113.11000000000058,86.346" fill="" stroke="#000000" stroke-width="0.80" />
<polyline points="113.11000000000058,13.846000000000004 113.11000000000058,33.846000000000004" fill="" stroke="#000000" stroke-width="0.80" />
<polyline points="82.54999999999927,65.90999999999997 82.54999999999927,97.596" fill="" stroke="#000000" stroke-width="0.65" />
<polyline points="58.159999999999854,65.90999999999997 58.159999999999854,97.596" fill="" stroke="#000000" stroke-width="0.65" />
<polyline points="58.159999999999854,12.285999999999945 58.159999999999854,28.846000000000004" fill="" stroke="#000000" stroke-width="0.65" />
<polyline points="33.77000000000044,65.90999999999997 33.77000000000044,97.596" fill="" stroke="#000000" stroke-width="0.65" />
<polyline points="33.77000000000044,19.785999999999945 33.77000000000044,38.846000000000004" fill="" stroke="#000000" stroke-width="0.65" />
<polyline points="9.3799999999992,65.90999999999997 9.3799999999992,97.596" fill="" stroke="#000000" stroke-width="0.65" />
<polyline points="9.3799999999992,29.785999999999945 9.3799999999992,43.846000000000004" fill="" stroke="#000000" stroke-width="0.65" />
<polyline points="170.20000000000073,13.846000000000004 255.0,13.846000000000004" fill="none" stroke="#000000" stroke-width="0.40" />
<polyline points="170.20000000000073,18.846000000000004 255.0,18.846000000000004" fill="none" stroke="#000000" stroke-width="0.40" />
<polyline points="170.20000000000073,23.846000000000004 255.0,23.846000000000004" fill="none" stroke="#000000" stroke-width="0.40" />
<polyline points="170.20000000000073,28.846000000000004 255.0,28.846000000000004" fill="none" stroke="#000000" stroke-width="0.40" />
<polyline points="170.20000000000073,33.846000000000004 255.0,33.846000000000004" fill="none" stroke="#000000" stroke-width="0.40" />
<polyline points="170.20000000000073,66.346 255.0,66.346" fill="none" stroke="#000000" stroke-width="0.40" />
<polyline points="170.20000000000073,71.346 255.0,71.346" fill="none" stroke="#000000" stroke-width="0.40" />
<polyline points="170.20000000000073,76.346 255.0,76.346" fill="none" stroke="#000000" stroke-width="0.40" />
<polyline points="170.20000000000073,81.346 255.0,81.346" fill="none" stroke="#000000" stroke-width="0.40" />
<polyline points="170.20000000000073,86.346 255.0,86.346" fill="none" stroke="#000000" stroke-width="0.40" />
<polyline points="170.60000000000036,0.0 170.60000000000036,86.346" fill="" stroke="#000000" stroke-width="0.80" />
<polyline points="237.96999999999935,65.90999999999997 237.96999999999935,99.26300000000003" fill="" stroke="#000000" stroke-width="0.65" />
<polyline points="243.89999999999964,20.40700000000004 243.89999999999964,7.596000000000004" fill="" stroke="#000000" stroke-width="0.65" />
<polyline points="209.29000000000087,65.90999999999997 209.29000000000087,101.346" fill="" stroke="#000000" stroke-width="0.65" />
<polyline points="215.21999999999935,32.90700000000004 215.21999999999935,12.596000000000004" fill="" stroke="#000000" stroke-width="0.65" />
</svg>
