<?xml version="1.0" encoding="UTF-8" standalone="yes"?>
<svg width="256.0px" height="256.0px" xmlns="http://www.w3.org/2000/svg" xmlns:xlink="http://www.w3.org/1999/xlink" version="1.2" baseProfile="tiny">
<path d="M174.23999999999978,126.51799999999997 L174.23999999999978,128.065 C174.23999999999978,128.61700000000002 174.26999999999998,129.055 174.32000000000016,129.378 C174.73999999999978,129.01299999999998 175.05000000000018,128.74200000000002 175.23999999999978,128.565 C175.44999999999982,128.35700000000003 175.65999999999985,128.06799999999998 175.86000000000013,127.69799999999998 C176.07000000000016,127.32799999999997 176.17999999999984,126.96100000000001 176.17999999999984,126.596 C176.17999999999984,126.23200000000003 176.0999999999999,125.91899999999998 175.94000000000005,125.65899999999999 C175.78999999999996,125.399 175.57999999999993,125.26799999999997 175.32000000000016,125.26799999999997 C175.01000000000022,125.26799999999997 174.73999999999978,125.38799999999998 174.53999999999996,125.62799999999999 C174.34000000000015,125.88799999999998 174.23999999999978,126.185 174.23999999999978,126.51799999999997 M173.40999999999985,130.096 L173.15999999999985,118.20600000000002 C173.3499999999999,118.10199999999998 173.5300000000002,118.05000000000001 173.7199999999998,118.05000000000001 C173.9000000000001,118.05000000000001 174.07999999999993,118.10199999999998 174.26000000000022,118.20600000000002 L174.0999999999999,125.096 C174.6300000000001,124.63799999999998 175.23999999999978,124.40899999999999 175.94000000000005,124.40899999999999 C176.44000000000005,124.40899999999999 176.86000000000013,124.61700000000002 177.19999999999982,125.03399999999999 C177.53999999999996,125.45100000000002 177.71000000000004,125.93 177.71000000000004,126.471 C177.71000000000004,126.805 177.5999999999999,127.16399999999999 177.3800000000001,127.55000000000001 C177.17000000000007,127.89299999999997 176.94999999999982,128.164 176.7199999999998,128.36200000000002 C176.59000000000015,128.466 176.26000000000022,128.72699999999998 175.7199999999998,129.14299999999997 C175.57000000000016,129.25799999999998 175.3800000000001,129.39299999999997 175.17000000000007,129.55 C174.96000000000004,129.70600000000002 174.82000000000016,129.805 174.76999999999998,129.846 C174.67999999999984,129.899 174.59000000000015,130.003 174.51000000000022,130.159 C174.42000000000007,130.29399999999998 174.32000000000016,130.404 174.19000000000005,130.48700000000002 C174.11000000000013,130.57 174.0,130.61200000000002 173.8699999999999,130.61200000000002 C173.73999999999978,130.61200000000002 173.63999999999987,130.565 173.55000000000018,130.471 C173.46000000000004,130.378 173.40999999999985,130.253 173.40999999999985,130.096" />
<path d="M174.23999999999978,104.01799999999997 L174.23999999999978,105.565 C174.23999999999978,106.11700000000002 174.26999999999998,106.555 174.32000000000016,106.87799999999999 C174.73999999999978,106.51299999999998 175.05000000000018,106.24200000000002 175.23999999999978,106.065 C175.44999999999982,105.85700000000003 175.65999999999985,105.56799999999998 175.86000000000013,105.19799999999998 C176.07000000000016,104.82799999999997 176.17999999999984,104.46100000000001 176.17999999999984,104.096 C176.17999999999984,103.73200000000003 176.0999999999999,103.41899999999998 175.94000000000005,103.15899999999999 C175.78999999999996,102.899 175.57999999999993,102.76799999999997 175.32000000000016,102.76799999999997 C175.01000000000022,102.76799999999997 174.73999999999978,102.88799999999998 174.53999999999996,103.12799999999999 C174.34000000000015,103.38799999999998 174.23999999999978,103.685 174.23999999999978,104.01799999999997 M173.40999999999985,107.596 L173.15999999999985,95.70600000000002 C173.3499999999999,95.60199999999998 173.5300000000002,95.55000000000001 173.7199999999998,95.55000000000001 C173.9000000000001,95.55000000000001 174.07999999999993,95.60199999999998 174.26000000000022,95.70600000000002 L174.0999999999999,102.596 C174.6300000000001,102.13799999999998 175.23999999999978,101.90899999999999 175.94000000000005,101.90899999999999 C176.44000000000005,101.90899999999999 176.86000000000013,102.11700000000002 177.19999999999982,102.53399999999999 C177.53999999999996,102.95100000000002 177.71000000000004,103.43 177.71000000000004,103.971 C177.71000000000004,104.305 177.5999999999999,104.66399999999999 177.3800000000001,105.05000000000001 C177.17000000000007,105.39299999999997 176.94999999999982,105.66399999999999 176.7199999999998,105.86200000000002 C176.59000000000015,105.96600000000001 176.26000000000022,106.22699999999998 175.7199999999998,106.64299999999997 C175.57000000000016,106.75799999999998 175.3800000000001,106.89299999999997 175.17000000000007,107.05000000000001 C174.96000000000004,107.20600000000002 174.82000000000016,107.305 174.76999999999998,107.346 C174.67999999999984,107.399 174.59000000000015,107.50299999999999 174.51000000000022,107.65899999999999 C174.42000000000007,107.79399999999998 174.32000000000016,107.904 174.19000000000005,107.98700000000002 C174.11000000000013,108.07 174.0,108.11200000000002 173.8699999999999,108.11200000000002 C173.73999999999978,108.11200000000002 173.63999999999987,108.065 173.55000000000018,107.971 C173.46000000000004,107.87799999999999 173.40999999999985,107.75299999999999 173.40999999999985,107.596" />
<path d="M104.80999999999995,234.846 C104.9699999999998,234.753 105.13999999999987,234.70600000000002 105.32000000000016,234.70600000000002 C105.48999999999978,234.70600000000002 105.65999999999985,234.753 105.82000000000016,234.846 L105.76000000000022,238.503 L107.90000000000009,238.11200000000002 L107.98000000000002,238.11200000000002 C108.21000000000004,238.11200000000002 108.32000000000016,238.221 108.32000000000016,238.44 L108.46000000000004,249.846 C108.30000000000018,249.94 108.13000000000011,249.98700000000002 107.96000000000004,249.98700000000002 C107.7800000000002,249.98700000000002 107.61999999999989,249.94 107.44999999999982,249.846 L107.51000000000022,246.19 L105.40000000000009,246.58100000000002 L105.32000000000016,246.58100000000002 C105.07999999999993,246.58100000000002 104.96000000000004,246.471 104.96000000000004,246.253 L104.80999999999995,234.846 M107.5300000000002,244.23700000000002 L107.59000000000015,240.096 L105.75,240.45600000000002 L105.67999999999984,244.596 L107.5300000000002,244.23700000000002" />
<path d="M71.2800000000002,226.51799999999997 L71.2800000000002,228.065 C71.2800000000002,228.61700000000002 71.30000000000018,229.055 71.34999999999991,229.378 C71.7800000000002,229.01299999999998 72.09000000000015,228.74200000000002 72.2800000000002,228.565 C72.48000000000002,228.35700000000003 72.69000000000005,228.06799999999998 72.90000000000009,227.69799999999998 C73.11000000000013,227.32799999999997 73.21000000000004,226.961 73.21000000000004,226.596 C73.21000000000004,226.23200000000003 73.13000000000011,225.91899999999998 72.98000000000002,225.659 C72.82000000000016,225.399 72.61000000000013,225.26799999999997 72.34999999999991,225.26799999999997 C72.03999999999996,225.26799999999997 71.7800000000002,225.38799999999998 71.57000000000016,225.628 C71.36999999999989,225.88799999999998 71.2800000000002,226.185 71.2800000000002,226.51799999999997 M70.44999999999982,230.096 L70.19999999999982,218.20600000000002 C70.38000000000011,218.10199999999998 70.57000000000016,218.05 70.75,218.05 C70.92999999999984,218.05 71.11000000000013,218.10199999999998 71.28999999999996,218.20600000000002 L71.13000000000011,225.096 C71.67000000000007,224.63799999999998 72.2800000000002,224.409 72.98000000000002,224.409 C73.48000000000002,224.409 73.90000000000009,224.61700000000002 74.23999999999978,225.034 C74.57000000000016,225.45100000000002 74.73999999999978,225.93 74.73999999999978,226.471 C74.73999999999978,226.805 74.63000000000011,227.164 74.42000000000007,227.55 C74.21000000000004,227.89299999999997 73.98999999999978,228.164 73.76000000000022,228.36200000000002 C73.61999999999989,228.466 73.28999999999996,228.72699999999998 72.76000000000022,229.14299999999997 C72.59999999999991,229.25799999999998 72.42000000000007,229.39299999999997 72.19999999999982,229.55 C71.98999999999978,229.70600000000002 71.86000000000013,229.805 71.80999999999995,229.846 C71.71000000000004,229.899 71.61999999999989,230.003 71.53999999999996,230.159 C71.46000000000004,230.29399999999998 71.34999999999991,230.404 71.23000000000002,230.48700000000002 C71.13999999999987,230.57 71.03999999999996,230.61200000000002 70.90999999999985,230.61200000000002 C70.7800000000002,230.61200000000002 70.67000000000007,230.565 70.59000000000015,230.471 C70.48999999999978,230.378 70.44999999999982,230.253 70.44999999999982,230.096" />
<path d="M68.05999999999995,241.08100000000002 C68.05999999999995,241.33100000000002 67.94000000000005,241.45600000000002 67.69000000000005,241.45600000000002 C67.44999999999982,241.45600000000002 67.32000000000016,241.33100000000002 67.32000000000016,241.08100000000002 L67.32000000000016,238.19 L65.67000000000007,238.815 L65.67000000000007,241.971 C65.67000000000007,242.221 65.53999999999996,242.346 65.28999999999996,242.346 C65.03999999999996,242.346 64.92000000000007,242.221 64.92000000000007,241.971 L64.92000000000007,239.065 L64.28999999999996,239.3 C64.2800000000002,239.31 64.23000000000002,239.315 64.13999999999987,239.315 C64.0300000000002,239.315 63.940000000000055,239.276 63.86000000000013,239.19799999999998 C63.7800000000002,239.12 63.75,239.029 63.75,238.925 L63.75,237.721 C63.75,237.524 63.82999999999993,237.399 64.0,237.346 L64.92000000000007,237.034 L64.92000000000007,233.83100000000002 L64.28999999999996,234.05 C64.2800000000002,234.06 64.23000000000002,234.065 64.13999999999987,234.065 C64.0300000000002,234.065 63.940000000000055,234.026 63.86000000000013,233.94799999999998 C63.7800000000002,233.87 63.75,233.779 63.75,233.675 L63.75,232.45600000000002 C63.75,232.279 63.82999999999993,232.164 64.0,232.11200000000002 L64.92000000000007,231.753 L64.92000000000007,228.61200000000002 C64.92000000000007,228.36200000000002 65.03999999999996,228.23700000000002 65.28999999999996,228.23700000000002 C65.53999999999996,228.23700000000002 65.67000000000007,228.36200000000002 65.67000000000007,228.61200000000002 L65.67000000000007,231.503 L67.32000000000016,230.878 L67.32000000000016,227.721 C67.32000000000016,227.471 67.44999999999982,227.346 67.69000000000005,227.346 C67.94000000000005,227.346 68.05999999999995,227.471 68.05999999999995,227.721 L68.05999999999995,230.628 L68.71000000000004,230.39299999999997 C68.7199999999998,230.38299999999998 68.76999999999998,230.378 68.84000000000015,230.378 C68.92999999999984,230.378 69.0300000000002,230.414 69.13999999999987,230.48700000000002 C69.2199999999998,230.57 69.26000000000022,230.664 69.26000000000022,230.76799999999997 L69.26000000000022,231.971 C69.26000000000022,232.159 69.17000000000007,232.284 68.98000000000002,232.346 L68.05999999999995,232.659 L68.05999999999995,235.86200000000002 L68.71000000000004,235.64299999999997 C68.7199999999998,235.63299999999998 68.76999999999998,235.628 68.84000000000015,235.628 C68.92999999999984,235.628 69.0300000000002,235.66899999999998 69.13999999999987,235.753 C69.2199999999998,235.82600000000002 69.26000000000022,235.914 69.26000000000022,236.01799999999997 L69.26000000000022,237.23700000000002 C69.26000000000022,237.404 69.17000000000007,237.51799999999997 68.98000000000002,237.58100000000002 L68.05999999999995,237.94 L68.05999999999995,241.08100000000002 M67.32000000000016,232.95600000000002 L65.67000000000007,233.534 L65.67000000000007,236.73700000000002 L67.32000000000016,236.159 L67.32000000000016,232.95600000000002" />
<path d="M61.44999999999982,248.58100000000002 C61.44999999999982,248.83100000000002 61.32999999999993,248.95600000000002 61.07999999999993,248.95600000000002 C60.840000000000146,248.95600000000002 60.7199999999998,248.83100000000002 60.7199999999998,248.58100000000002 L60.7199999999998,245.69 L59.059999999999945,246.315 L59.059999999999945,249.471 C59.059999999999945,249.721 58.929999999999836,249.846 58.679999999999836,249.846 C58.429999999999836,249.846 58.309999999999945,249.721 58.309999999999945,249.471 L58.309999999999945,246.565 L57.679999999999836,246.8 C57.67000000000007,246.81 57.61999999999989,246.815 57.5300000000002,246.815 C57.42000000000007,246.815 57.32999999999993,246.776 57.25,246.69799999999998 C57.179999999999836,246.62 57.13999999999987,246.529 57.13999999999987,246.425 L57.13999999999987,245.221 C57.13999999999987,245.024 57.2199999999998,244.899 57.38999999999987,244.846 L58.309999999999945,244.534 L58.309999999999945,241.33100000000002 L57.679999999999836,241.55 C57.67000000000007,241.56 57.61999999999989,241.565 57.5300000000002,241.565 C57.42000000000007,241.565 57.32999999999993,241.526 57.25,241.44799999999998 C57.179999999999836,241.37 57.13999999999987,241.279 57.13999999999987,241.175 L57.13999999999987,239.95600000000002 C57.13999999999987,239.779 57.2199999999998,239.664 57.38999999999987,239.61200000000002 L58.309999999999945,239.253 L58.309999999999945,236.11200000000002 C58.309999999999945,235.86200000000002 58.429999999999836,235.73700000000002 58.679999999999836,235.73700000000002 C58.929999999999836,235.73700000000002 59.059999999999945,235.86200000000002 59.059999999999945,236.11200000000002 L59.059999999999945,239.003 L60.7199999999998,238.378 L60.7199999999998,235.221 C60.7199999999998,234.971 60.840000000000146,234.846 61.07999999999993,234.846 C61.32999999999993,234.846 61.44999999999982,234.971 61.44999999999982,235.221 L61.44999999999982,238.128 L62.11000000000013,237.89299999999997 C62.11999999999989,237.88299999999998 62.159999999999854,237.878 62.23000000000002,237.878 C62.32999999999993,237.878 62.42000000000007,237.914 62.5300000000002,237.98700000000002 C62.61000000000013,238.07 62.65000000000009,238.164 62.65000000000009,238.26799999999997 L62.65000000000009,239.471 C62.65000000000009,239.659 62.559999999999945,239.784 62.36999999999989,239.846 L61.44999999999982,240.159 L61.44999999999982,243.36200000000002 L62.11000000000013,243.14299999999997 C62.11999999999989,243.13299999999998 62.159999999999854,243.128 62.23000000000002,243.128 C62.32999999999993,243.128 62.42000000000007,243.16899999999998 62.5300000000002,243.253 C62.61000000000013,243.32600000000002 62.65000000000009,243.414 62.65000000000009,243.51799999999997 L62.65000000000009,244.73700000000002 C62.65000000000009,244.904 62.559999999999945,245.01799999999997 62.36999999999989,245.08100000000002 L61.44999999999982,245.44 L61.44999999999982,248.58100000000002 M60.7199999999998,240.45600000000002 L59.059999999999945,241.034 L59.059999999999945,244.23700000000002 L60.7199999999998,243.659 L60.7199999999998,240.45600000000002" />
<path d="M45.909999999999854,238.58100000000002 C45.909999999999854,238.83100000000002 45.789999999999964,238.95600000000002 45.539999999999964,238.95600000000002 C45.30000000000018,238.95600000000002 45.179999999999836,238.83100000000002 45.179999999999836,238.58100000000002 L45.179999999999836,235.69 L43.51999999999998,236.315 L43.51999999999998,239.471 C43.51999999999998,239.721 43.38999999999987,239.846 43.13999999999987,239.846 C42.88999999999987,239.846 42.76999999999998,239.721 42.76999999999998,239.471 L42.76999999999998,236.565 L42.13999999999987,236.8 C42.13000000000011,236.81 42.07999999999993,236.815 41.98999999999978,236.815 C41.88000000000011,236.815 41.789999999999964,236.776 41.710000000000036,236.69799999999998 C41.63999999999987,236.62 41.59999999999991,236.529 41.59999999999991,236.425 L41.59999999999991,235.221 C41.59999999999991,235.024 41.679999999999836,234.899 41.84999999999991,234.846 L42.76999999999998,234.534 L42.76999999999998,231.33100000000002 L42.13999999999987,231.55 C42.13000000000011,231.56 42.07999999999993,231.565 41.98999999999978,231.565 C41.88000000000011,231.565 41.789999999999964,231.526 41.710000000000036,231.44799999999998 C41.63999999999987,231.37 41.59999999999991,231.279 41.59999999999991,231.175 L41.59999999999991,229.95600000000002 C41.59999999999991,229.779 41.679999999999836,229.664 41.84999999999991,229.61200000000002 L42.76999999999998,229.253 L42.76999999999998,226.11200000000002 C42.76999999999998,225.86200000000002 42.88999999999987,225.73700000000002 43.13999999999987,225.73700000000002 C43.38999999999987,225.73700000000002 43.51999999999998,225.86200000000002 43.51999999999998,226.11200000000002 L43.51999999999998,229.003 L45.179999999999836,228.378 L45.179999999999836,225.221 C45.179999999999836,224.971 45.30000000000018,224.846 45.539999999999964,224.846 C45.789999999999964,224.846 45.909999999999854,224.971 45.909999999999854,225.221 L45.909999999999854,228.128 L46.570000000000164,227.89299999999997 C46.57999999999993,227.88299999999998 46.61999999999989,227.878 46.690000000000055,227.878 C46.7800000000002,227.878 46.88000000000011,227.914 46.98999999999978,227.98700000000002 C47.070000000000164,228.07 47.11000000000013,228.164 47.11000000000013,228.26799999999997 L47.11000000000013,229.471 C47.11000000000013,229.659 47.01999999999998,229.784 46.82999999999993,229.846 L45.909999999999854,230.159 L45.909999999999854,233.36200000000002 L46.570000000000164,233.14299999999997 C46.57999999999993,233.13299999999998 46.61999999999989,233.128 46.690000000000055,233.128 C46.7800000000002,233.128 46.88000000000011,233.16899999999998 46.98999999999978,233.253 C47.070000000000164,233.32600000000002 47.11000000000013,233.414 47.11000000000013,233.51799999999997 L47.11000000000013,234.73700000000002 C47.11000000000013,234.904 47.01999999999998,235.01799999999997 46.82999999999993,235.08100000000002 L45.909999999999854,235.44 L45.909999999999854,238.58100000000002 M45.179999999999836,230.45600000000002 L43.51999999999998,231.034 L43.51999999999998,234.23700000000002 L45.179999999999836,233.659 L45.179999999999836,230.45600000000002" />
<path d="M8.820000000000164,224.846 C8.980000000000018,224.753 9.150000000000091,224.70600000000002 9.320000000000164,224.70600000000002 C9.5,224.70600000000002 9.659999999999854,224.753 9.829999999999927,224.846 L9.769999999999982,228.503 L11.909999999999854,228.11200000000002 L11.989999999999782,228.11200000000002 C12.2199999999998,228.11200000000002 12.329999999999927,228.221 12.329999999999927,228.44 L12.4699999999998,239.846 C12.309999999999945,239.94 12.139999999999873,239.98700000000002 11.960000000000036,239.98700000000002 C11.789999999999964,239.98700000000002 11.61999999999989,239.94 11.460000000000036,239.846 L11.519999999999982,236.19 L9.409999999999854,236.58100000000002 L9.329999999999927,236.58100000000002 C9.090000000000146,236.58100000000002 8.9699999999998,236.471 8.9699999999998,236.253 L8.820000000000164,224.846 M11.5300000000002,234.23700000000002 L11.599999999999909,230.096 L9.75,230.45600000000002 L9.690000000000055,234.596 L11.5300000000002,234.23700000000002" />
<path d="M201.57000000000016,252.096 C202.19999999999982,252.096 202.73000000000002,252.25799999999998 203.15999999999985,252.58100000000002 C203.55999999999995,252.935 203.76000000000022,253.378 203.76000000000022,253.909 C203.76000000000022,254.805 203.30000000000018,255.64299999999997 202.3800000000001,256.42499999999995 C201.44999999999982,257.206 200.44000000000005,257.596 199.3699999999999,257.596 C198.73999999999978,257.596 198.2199999999998,257.43499999999995 197.78999999999996,257.11199999999997 C197.3800000000001,256.75800000000004 197.17999999999984,256.31500000000005 197.17999999999984,255.784 C197.17999999999984,254.88799999999998 197.6500000000001,254.05 198.59000000000015,253.26799999999997 C199.5,252.48700000000002 200.5,252.096 201.57000000000016,252.096" />
<path d="M184.23999999999978,252.096 C184.8699999999999,252.096 185.4000000000001,252.25799999999998 185.84000000000015,252.58100000000002 C186.23000000000002,252.935 186.42999999999984,253.378 186.42999999999984,253.909 C186.42999999999984,254.805 185.9699999999998,255.64299999999997 185.05999999999995,256.42499999999995 C184.1199999999999,257.206 183.11000000000013,257.596 182.03999999999996,257.596 C181.40999999999985,257.596 180.88999999999987,257.43499999999995 180.46000000000004,257.11199999999997 C180.05999999999995,256.75800000000004 179.8499999999999,256.31500000000005 179.8499999999999,255.784 C179.8499999999999,254.88799999999998 180.32000000000016,254.05 181.26000000000022,253.26799999999997 C182.17999999999984,252.48700000000002 183.17000000000007,252.096 184.23999999999978,252.096" />
<path d="M184.23999999999978,222.096 C184.8699999999999,222.096 185.4000000000001,222.25799999999998 185.84000000000015,222.58100000000002 C186.23000000000002,222.935 186.42999999999984,223.378 186.42999999999984,223.909 C186.42999999999984,224.805 185.9699999999998,225.64299999999997 185.05999999999995,226.425 C184.1199999999999,227.20600000000002 183.11000000000013,227.596 182.03999999999996,227.596 C181.40999999999985,227.596 180.88999999999987,227.435 180.46000000000004,227.11200000000002 C180.05999999999995,226.75799999999998 179.8499999999999,226.315 179.8499999999999,225.784 C179.8499999999999,224.88799999999998 180.32000000000016,224.05 181.26000000000022,223.26799999999997 C182.17999999999984,222.48700000000002 183.17000000000007,222.096 184.23999999999978,222.096" />
<path d="M184.23999999999978,229.596 C184.8699999999999,229.596 185.4000000000001,229.75799999999998 185.84000000000015,230.08100000000002 C186.23000000000002,230.435 186.42999999999984,230.878 186.42999999999984,231.409 C186.42999999999984,232.305 185.9699999999998,233.14299999999997 185.05999999999995,233.925 C184.1199999999999,234.70600000000002 183.11000000000013,235.096 182.03999999999996,235.096 C181.40999999999985,235.096 180.88999999999987,234.935 180.46000000000004,234.61200000000002 C180.05999999999995,234.25799999999998 179.8499999999999,233.815 179.8499999999999,233.284 C179.8499999999999,232.38799999999998 180.32000000000016,231.55 181.26000000000022,230.76799999999997 C182.17999999999984,229.98700000000002 183.17000000000007,229.596 184.23999999999978,229.596" />
<path d="M184.23999999999978,234.596 C184.8699999999999,234.596 185.4000000000001,234.75799999999998 185.84000000000015,235.08100000000002 C186.23000000000002,235.435 186.42999999999984,235.878 186.42999999999984,236.409 C186.42999999999984,237.305 185.9699999999998,238.14299999999997 185.05999999999995,238.925 C184.1199999999999,239.70600000000002 183.11000000000013,240.096 182.03999999999996,240.096 C181.40999999999985,240.096 180.88999999999987,239.935 180.46000000000004,239.61200000000002 C180.05999999999995,239.25799999999998 179.8499999999999,238.815 179.8499999999999,238.284 C179.8499999999999,237.38799999999998 180.32000000000016,236.55 181.26000000000022,235.76799999999997 C182.17999999999984,234.98700000000002 183.17000000000007,234.596 184.23999999999978,234.596" />
<path d="M184.23999999999978,239.596 C184.8699999999999,239.596 185.4000000000001,239.75799999999998 185.84000000000015,240.08100000000002 C186.23000000000002,240.435 186.42999999999984,240.878 186.42999999999984,241.409 C186.42999999999984,242.305 185.9699999999998,243.14299999999997 185.05999999999995,243.925 C184.1199999999999,244.70600000000002 183.11000000000013,245.096 182.03999999999996,245.096 C181.40999999999985,245.096 180.88999999999987,244.935 180.46000000000004,244.61200000000002 C180.05999999999995,244.25799999999998 179.8499999999999,243.815 179.8499999999999,243.284 C179.8499999999999,242.38799999999998 180.32000000000016,241.55 181.26000000000022,240.76799999999997 C182.17999999999984,239.98700000000002 183.17000000000007,239.596 184.23999999999978,239.596" />
<path d="M184.23999999999978,124.596 C184.8699999999999,124.596 185.4000000000001,124.75799999999998 185.84000000000015,125.08100000000002 C186.23000000000002,125.435 186.42999999999984,125.87799999999999 186.42999999999984,126.40899999999999 C186.42999999999984,127.305 185.9699999999998,128.14299999999997 185.05999999999995,128.925 C184.1199999999999,129.70600000000002 183.11000000000013,130.096 182.03999999999996,130.096 C181.40999999999985,130.096 180.88999999999987,129.935 180.46000000000004,129.61200000000002 C180.05999999999995,129.25799999999998 179.8499999999999,128.815 179.8499999999999,128.284 C179.8499999999999,127.38799999999998 180.32000000000016,126.55000000000001 181.26000000000022,125.76799999999997 C182.17999999999984,124.98700000000002 183.17000000000007,124.596 184.23999999999978,124.596" />
<path d="M184.23999999999978,102.096 C184.8699999999999,102.096 185.4000000000001,102.25799999999998 185.84000000000015,102.58100000000002 C186.23000000000002,102.935 186.42999999999984,103.37799999999999 186.42999999999984,103.90899999999999 C186.42999999999984,104.805 185.9699999999998,105.64299999999997 185.05999999999995,106.42500000000001 C184.1199999999999,107.20600000000002 183.11000000000013,107.596 182.03999999999996,107.596 C181.40999999999985,107.596 180.88999999999987,107.435 180.46000000000004,107.11200000000002 C180.05999999999995,106.75799999999998 179.8499999999999,106.315 179.8499999999999,105.78399999999999 C179.8499999999999,104.88799999999998 180.32000000000016,104.05000000000001 181.26000000000022,103.26799999999997 C182.17999999999984,102.48700000000002 183.17000000000007,102.096 184.23999999999978,102.096" />
<path d="M166.92000000000007,222.096 C167.53999999999996,222.096 168.07000000000016,222.25799999999998 168.51000000000022,222.58100000000002 C168.90999999999985,222.935 169.0999999999999,223.378 169.0999999999999,223.909 C169.0999999999999,224.805 168.63999999999987,225.64299999999997 167.73000000000002,226.425 C166.78999999999996,227.20600000000002 165.78999999999996,227.596 164.71000000000004,227.596 C164.09000000000015,227.596 163.55999999999995,227.435 163.1300000000001,227.11200000000002 C162.73000000000002,226.75799999999998 162.51999999999998,226.315 162.51999999999998,225.784 C162.51999999999998,224.88799999999998 162.98999999999978,224.05 163.92999999999984,223.26799999999997 C164.8499999999999,222.48700000000002 165.84000000000015,222.096 166.92000000000007,222.096" />
<path d="M166.92000000000007,229.596 C167.53999999999996,229.596 168.07000000000016,229.75799999999998 168.51000000000022,230.08100000000002 C168.90999999999985,230.435 169.0999999999999,230.878 169.0999999999999,231.409 C169.0999999999999,232.305 168.63999999999987,233.14299999999997 167.73000000000002,233.925 C166.78999999999996,234.70600000000002 165.78999999999996,235.096 164.71000000000004,235.096 C164.09000000000015,235.096 163.55999999999995,234.935 163.1300000000001,234.61200000000002 C162.73000000000002,234.25799999999998 162.51999999999998,233.815 162.51999999999998,233.284 C162.51999999999998,232.38799999999998 162.98999999999978,231.55 163.92999999999984,230.76799999999997 C164.8499999999999,229.98700000000002 165.84000000000015,229.596 166.92000000000007,229.596" />
<path d="M166.92000000000007,234.596 C167.53999999999996,234.596 168.07000000000016,234.75799999999998 168.51000000000022,235.08100000000002 C168.90999999999985,235.435 169.0999999999999,235.878 169.0999999999999,236.409 C169.0999999999999,237.305 168.63999999999987,238.14299999999997 167.73000000000002,238.925 C166.78999999999996,239.70600000000002 165.78999999999996,240.096 164.71000000000004,240.096 C164.09000000000015,240.096 163.55999999999995,239.935 163.1300000000001,239.61200000000002 C162.73000000000002,239.25799999999998 162.51999999999998,238.815 162.51999999999998,238.284 C162.51999999999998,237.38799999999998 162.98999999999978,236.55 163.92999999999984,235.76799999999997 C164.8499999999999,234.98700000000002 165.84000000000015,234.596 166.92000000000007,234.596" />
<path d="M166.92000000000007,239.596 C167.53999999999996,239.596 168.07000000000016,239.75799999999998 168.51000000000022,240.08100000000002 C168.90999999999985,240.435 169.0999999999999,240.878 169.0999999999999,241.409 C169.0999999999999,242.305 168.63999999999987,243.14299999999997 167.73000000000002,243.925 C166.78999999999996,244.70600000000002 165.78999999999996,245.096 164.71000000000004,245.096 C164.09000000000015,245.096 163.55999999999995,244.935 163.1300000000001,244.61200000000002 C162.73000000000002,244.25799999999998 162.51999999999998,243.815 162.51999999999998,243.284 C162.51999999999998,242.38799999999998 162.98999999999978,241.55 163.92999999999984,240.76799999999997 C164.8499999999999,239.98700000000002 165.84000000000015,239.596 166.92000000000007,239.596" />
<path d="M149.59000000000015,254.596 C150.21000000000004,254.596 150.73999999999978,254.75799999999998 151.17999999999984,255.08100000000002 C151.57999999999993,255.435 151.7800000000002,255.878 151.7800000000002,256.409 C151.7800000000002,257.30499999999995 151.32000000000016,258.14300000000003 150.4000000000001,258.92499999999995 C149.46000000000004,259.706 148.46000000000004,260.096 147.3800000000001,260.096 C146.76000000000022,260.096 146.23000000000002,259.93499999999995 145.80999999999995,259.61199999999997 C145.4000000000001,259.25800000000004 145.19999999999982,258.81500000000005 145.19999999999982,258.284 C145.19999999999982,257.38800000000003 145.67000000000007,256.54999999999995 146.5999999999999,255.76799999999997 C147.51999999999998,254.98700000000002 148.51999999999998,254.596 149.59000000000015,254.596" />
<path d="M149.59000000000015,222.096 C150.21000000000004,222.096 150.73999999999978,222.25799999999998 151.17999999999984,222.58100000000002 C151.57999999999993,222.935 151.7800000000002,223.378 151.7800000000002,223.909 C151.7800000000002,224.805 151.32000000000016,225.64299999999997 150.4000000000001,226.425 C149.46000000000004,227.20600000000002 148.46000000000004,227.596 147.3800000000001,227.596 C146.76000000000022,227.596 146.23000000000002,227.435 145.80999999999995,227.11200000000002 C145.4000000000001,226.75799999999998 145.19999999999982,226.315 145.19999999999982,225.784 C145.19999999999982,224.88799999999998 145.67000000000007,224.05 146.5999999999999,223.26799999999997 C147.51999999999998,222.48700000000002 148.51999999999998,222.096 149.59000000000015,222.096" />
<path d="M149.59000000000015,229.596 C150.21000000000004,229.596 150.73999999999978,229.75799999999998 151.17999999999984,230.08100000000002 C151.57999999999993,230.435 151.7800000000002,230.878 151.7800000000002,231.409 C151.7800000000002,232.305 151.32000000000016,233.14299999999997 150.4000000000001,233.925 C149.46000000000004,234.70600000000002 148.46000000000004,235.096 147.3800000000001,235.096 C146.76000000000022,235.096 146.23000000000002,234.935 145.80999999999995,234.61200000000002 C145.4000000000001,234.25799999999998 145.19999999999982,233.815 145.19999999999982,233.284 C145.19999999999982,232.38799999999998 145.67000000000007,231.55 146.5999999999999,230.76799999999997 C147.51999999999998,229.98700000000002 148.51999999999998,229.596 149.59000000000015,229.596" />
<path d="M149.59000000000015,234.596 C150.21000000000004,234.596 150.73999999999978,234.75799999999998 151.17999999999984,235.08100000000002 C151.57999999999993,235.435 151.7800000000002,235.878 151.7800000000002,236.409 C151.7800000000002,237.305 151.32000000000016,238.14299999999997 150.4000000000001,238.925 C149.46000000000004,239.70600000000002 148.46000000000004,240.096 147.3800000000001,240.096 C146.76000000000022,240.096 146.23000000000002,239.935 145.80999999999995,239.61200000000002 C145.4000000000001,239.25799999999998 145.19999999999982,238.815 145.19999999999982,238.284 C145.19999999999982,237.38799999999998 145.67000000000007,236.55 146.5999999999999,235.76799999999997 C147.51999999999998,234.98700000000002 148.51999999999998,234.596 149.59000000000015,234.596" />
<path d="M149.59000000000015,239.596 C150.21000000000004,239.596 150.73999999999978,239.75799999999998 151.17999999999984,240.08100000000002 C151.57999999999993,240.435 151.7800000000002,240.878 151.7800000000002,241.409 C151.7800000000002,242.305 151.32000000000016,243.14299999999997 150.4000000000001,243.925 C149.46000000000004,244.70600000000002 148.46000000000004,245.096 147.3800000000001,245.096 C146.76000000000022,245.096 146.23000000000002,244.935 145.80999999999995,244.61200000000002 C145.4000000000001,244.25799999999998 145.19999999999982,243.815 145.19999999999982,243.284 C145.19999999999982,242.38799999999998 145.67000000000007,241.55 146.5999999999999,240.76799999999997 C147.51999999999998,239.98700000000002 148.51999999999998,239.596 149.59000000000015,239.596" />
<path d="M149.59000000000015,122.096 C150.21000000000004,122.096 150.73999999999978,122.25799999999998 151.17999999999984,122.58100000000002 C151.57999999999993,122.935 151.7800000000002,123.37799999999999 151.7800000000002,123.90899999999999 C151.7800000000002,124.805 151.32000000000016,125.64299999999997 150.4000000000001,126.42500000000001 C149.46000000000004,127.20600000000002 148.46000000000004,127.596 147.3800000000001,127.596 C146.76000000000022,127.596 146.23000000000002,127.435 145.80999999999995,127.11200000000002 C145.4000000000001,126.75799999999998 145.19999999999982,126.315 145.19999999999982,125.78399999999999 C145.19999999999982,124.88799999999998 145.67000000000007,124.05000000000001 146.5999999999999,123.26799999999997 C147.51999999999998,122.48700000000002 148.51999999999998,122.096 149.59000000000015,122.096" />
<path d="M149.59000000000015,99.596 C150.21000000000004,99.596 150.73999999999978,99.75799999999998 151.17999999999984,100.08100000000002 C151.57999999999993,100.435 151.7800000000002,100.87799999999999 151.7800000000002,101.40899999999999 C151.7800000000002,102.305 151.32000000000016,103.14299999999997 150.4000000000001,103.92500000000001 C149.46000000000004,104.70600000000002 148.46000000000004,105.096 147.3800000000001,105.096 C146.76000000000022,105.096 146.23000000000002,104.935 145.80999999999995,104.61200000000002 C145.4000000000001,104.25799999999998 145.19999999999982,103.815 145.19999999999982,103.28399999999999 C145.19999999999982,102.38799999999998 145.67000000000007,101.55000000000001 146.5999999999999,100.76799999999997 C147.51999999999998,99.98700000000002 148.51999999999998,99.596 149.59000000000015,99.596" />
<path d="M132.26000000000022,222.096 C132.88999999999987,222.096 133.42000000000007,222.25799999999998 133.8499999999999,222.58100000000002 C134.25,222.935 134.44999999999982,223.378 134.44999999999982,223.909 C134.44999999999982,224.805 133.98999999999978,225.64299999999997 133.07000000000016,226.425 C132.13999999999987,227.20600000000002 131.1300000000001,227.596 130.05999999999995,227.596 C129.42999999999984,227.596 128.90999999999985,227.435 128.48000000000002,227.11200000000002 C128.07000000000016,226.75799999999998 127.86999999999989,226.315 127.86999999999989,225.784 C127.86999999999989,224.88799999999998 128.34000000000015,224.05 129.2800000000002,223.26799999999997 C130.19000000000005,222.48700000000002 131.19000000000005,222.096 132.26000000000022,222.096" />
<path d="M132.26000000000022,229.596 C132.88999999999987,229.596 133.42000000000007,229.75799999999998 133.8499999999999,230.08100000000002 C134.25,230.435 134.44999999999982,230.878 134.44999999999982,231.409 C134.44999999999982,232.305 133.98999999999978,233.14299999999997 133.07000000000016,233.925 C132.13999999999987,234.70600000000002 131.1300000000001,235.096 130.05999999999995,235.096 C129.42999999999984,235.096 128.90999999999985,234.935 128.48000000000002,234.61200000000002 C128.07000000000016,234.25799999999998 127.86999999999989,233.815 127.86999999999989,233.284 C127.86999999999989,232.38799999999998 128.34000000000015,231.55 129.2800000000002,230.76799999999997 C130.19000000000005,229.98700000000002 131.19000000000005,229.596 132.26000000000022,229.596" />
<path d="M132.26000000000022,234.596 C132.88999999999987,234.596 133.42000000000007,234.75799999999998 133.8499999999999,235.08100000000002 C134.25,235.435 134.44999999999982,235.878 134.44999999999982,236.409 C134.44999999999982,237.305 133.98999999999978,238.14299999999997 133.07000000000016,238.925 C132.13999999999987,239.70600000000002 131.1300000000001,240.096 130.05999999999995,240.096 C129.42999999999984,240.096 128.90999999999985,239.935 128.48000000000002,239.61200000000002 C128.07000000000016,239.25799999999998 127.86999999999989,238.815 127.86999999999989,238.284 C127.86999999999989,237.38799999999998 128.34000000000015,236.55 129.2800000000002,235.76799999999997 C130.19000000000005,234.98700000000002 131.19000000000005,234.596 132.26000000000022,234.596" />
<path d="M132.26000000000022,239.596 C132.88999999999987,239.596 133.42000000000007,239.75799999999998 133.8499999999999,240.08100000000002 C134.25,240.435 134.44999999999982,240.878 134.44999999999982,241.409 C134.44999999999982,242.305 133.98999999999978,243.14299999999997 133.07000000000016,243.925 C132.13999999999987,244.70600000000002 131.1300000000001,245.096 130.05999999999995,245.096 C129.42999999999984,245.096 128.90999999999985,244.935 128.48000000000002,244.61200000000002 C128.07000000000016,244.25799999999998 127.86999999999989,243.815 127.86999999999989,243.284 C127.86999999999989,242.38799999999998 128.34000000000015,241.55 129.2800000000002,240.76799999999997 C130.19000000000005,239.98700000000002 131.19000000000005,239.596 132.26000000000022,239.596" />
<path d="M114.92999999999984,222.096 C115.55999999999995,222.096 116.09000000000015,222.25799999999998 116.5300000000002,222.58100000000002 C116.92000000000007,222.935 117.11999999999989,223.378 117.11999999999989,223.909 C117.11999999999989,224.805 116.65999999999985,225.64299999999997 115.75,226.425 C114.80999999999995,227.20600000000002 113.80000000000018,227.596 112.73000000000002,227.596 C112.11000000000013,227.596 111.57999999999993,227.435 111.15000000000009,227.11200000000002 C110.75,226.75799999999998 110.53999999999996,226.315 110.53999999999996,225.784 C110.53999999999996,224.88799999999998 111.01000000000022,224.05 111.94999999999982,223.26799999999997 C112.86999999999989,222.48700000000002 113.86000000000013,222.096 114.92999999999984,222.096" />
<path d="M114.92999999999984,229.596 C115.55999999999995,229.596 116.09000000000015,229.75799999999998 116.5300000000002,230.08100000000002 C116.92000000000007,230.435 117.11999999999989,230.878 117.11999999999989,231.409 C117.11999999999989,232.305 116.65999999999985,233.14299999999997 115.75,233.925 C114.80999999999995,234.70600000000002 113.80000000000018,235.096 112.73000000000002,235.096 C112.11000000000013,235.096 111.57999999999993,234.935 111.15000000000009,234.61200000000002 C110.75,234.25799999999998 110.53999999999996,233.815 110.53999999999996,233.284 C110.53999999999996,232.38799999999998 111.01000000000022,231.55 111.94999999999982,230.76799999999997 C112.86999999999989,229.98700000000002 113.86000000000013,229.596 114.92999999999984,229.596" />
<path d="M114.92999999999984,234.596 C115.55999999999995,234.596 116.09000000000015,234.75799999999998 116.5300000000002,235.08100000000002 C116.92000000000007,235.435 117.11999999999989,235.878 117.11999999999989,236.409 C117.11999999999989,237.305 116.65999999999985,238.14299999999997 115.75,238.925 C114.80999999999995,239.70600000000002 113.80000000000018,240.096 112.73000000000002,240.096 C112.11000000000013,240.096 111.57999999999993,239.935 111.15000000000009,239.61200000000002 C110.75,239.25799999999998 110.53999999999996,238.815 110.53999999999996,238.284 C110.53999999999996,237.38799999999998 111.01000000000022,236.55 111.94999999999982,235.76799999999997 C112.86999999999989,234.98700000000002 113.86000000000013,234.596 114.92999999999984,234.596" />
<path d="M114.92999999999984,239.596 C115.55999999999995,239.596 116.09000000000015,239.75799999999998 116.5300000000002,240.08100000000002 C116.92000000000007,240.435 117.11999999999989,240.878 117.11999999999989,241.409 C117.11999999999989,242.305 116.65999999999985,243.14299999999997 115.75,243.925 C114.80999999999995,244.70600000000002 113.80000000000018,245.096 112.73000000000002,245.096 C112.11000000000013,245.096 111.57999999999993,244.935 111.15000000000009,244.61200000000002 C110.75,244.25799999999998 110.53999999999996,243.815 110.53999999999996,243.284 C110.53999999999996,242.38799999999998 111.01000000000022,241.55 111.94999999999982,240.76799999999997 C112.86999999999989,239.98700000000002 113.86000000000013,239.596 114.92999999999984,239.596" />
<path d="M79.17999999999984,226.628 L81.59000000000015,224.675 C81.65000000000009,224.622 81.71000000000004,224.596 81.76000000000022,224.596 C81.84000000000015,224.596 81.90000000000009,224.622 81.9699999999998,224.675 L82.36999999999989,224.98700000000002 C82.42999999999984,225.05 82.4699999999998,225.128 82.4699999999998,225.221 C82.4699999999998,225.284 82.42999999999984,225.36200000000002 82.36999999999989,225.45600000000002 L80.03999999999996,227.346 L82.36999999999989,229.23700000000002 C82.42999999999984,229.31 82.4699999999998,229.39100000000002 82.4699999999998,229.47899999999998 C82.4699999999998,229.56799999999998 82.42999999999984,229.64299999999997 82.36999999999989,229.70600000000002 L81.9699999999998,230.01799999999997 C81.90000000000009,230.07 81.84000000000015,230.096 81.76000000000022,230.096 C81.71000000000004,230.096 81.65000000000009,230.07 81.59000000000015,230.01799999999997 L79.17999999999984,228.065 L76.76000000000022,230.01799999999997 C76.69999999999982,230.07 76.63999999999987,230.096 76.59000000000015,230.096 C76.5300000000002,230.096 76.4699999999998,230.07 76.40000000000009,230.01799999999997 L75.98000000000002,229.70600000000002 C75.92000000000007,229.64299999999997 75.88999999999987,229.565 75.88999999999987,229.471 C75.88999999999987,229.409 75.92000000000007,229.33100000000002 75.98000000000002,229.23700000000002 L78.30999999999995,227.346 L75.98000000000002,225.45600000000002 C75.92000000000007,225.38299999999998 75.88999999999987,225.30200000000002 75.88999999999987,225.214 C75.88999999999987,225.125 75.92000000000007,225.05 75.98000000000002,224.98700000000002 L76.40000000000009,224.675 C76.4699999999998,224.622 76.5300000000002,224.596 76.59000000000015,224.596 C76.63999999999987,224.596 76.69999999999982,224.622 76.76000000000022,224.675 L79.17999999999984,226.628" />
<path d="M79.17999999999984,234.128 L81.59000000000015,232.175 C81.65000000000009,232.122 81.71000000000004,232.096 81.76000000000022,232.096 C81.84000000000015,232.096 81.90000000000009,232.122 81.9699999999998,232.175 L82.36999999999989,232.48700000000002 C82.42999999999984,232.55 82.4699999999998,232.628 82.4699999999998,232.721 C82.4699999999998,232.784 82.42999999999984,232.86200000000002 82.36999999999989,232.95600000000002 L80.03999999999996,234.846 L82.36999999999989,236.73700000000002 C82.42999999999984,236.81 82.4699999999998,236.89100000000002 82.4699999999998,236.97899999999998 C82.4699999999998,237.06799999999998 82.42999999999984,237.14299999999997 82.36999999999989,237.20600000000002 L81.9699999999998,237.51799999999997 C81.90000000000009,237.57 81.84000000000015,237.596 81.76000000000022,237.596 C81.71000000000004,237.596 81.65000000000009,237.57 81.59000000000015,237.51799999999997 L79.17999999999984,235.565 L76.76000000000022,237.51799999999997 C76.69999999999982,237.57 76.63999999999987,237.596 76.59000000000015,237.596 C76.5300000000002,237.596 76.4699999999998,237.57 76.40000000000009,237.51799999999997 L75.98000000000002,237.20600000000002 C75.92000000000007,237.14299999999997 75.88999999999987,237.065 75.88999999999987,236.971 C75.88999999999987,236.909 75.92000000000007,236.83100000000002 75.98000000000002,236.73700000000002 L78.30999999999995,234.846 L75.98000000000002,232.95600000000002 C75.92000000000007,232.88299999999998 75.88999999999987,232.80200000000002 75.88999999999987,232.714 C75.88999999999987,232.625 75.92000000000007,232.55 75.98000000000002,232.48700000000002 L76.40000000000009,232.175 C76.4699999999998,232.122 76.5300000000002,232.096 76.59000000000015,232.096 C76.63999999999987,232.096 76.69999999999982,232.122 76.76000000000022,232.175 L79.17999999999984,234.128" />
<path d="M79.17999999999984,241.628 L81.59000000000015,239.675 C81.65000000000009,239.622 81.71000000000004,239.596 81.76000000000022,239.596 C81.84000000000015,239.596 81.90000000000009,239.622 81.9699999999998,239.675 L82.36999999999989,239.98700000000002 C82.42999999999984,240.05 82.4699999999998,240.128 82.4699999999998,240.221 C82.4699999999998,240.284 82.42999999999984,240.36200000000002 82.36999999999989,240.45600000000002 L80.03999999999996,242.346 L82.36999999999989,244.23700000000002 C82.42999999999984,244.31 82.4699999999998,244.39100000000002 82.4699999999998,244.47899999999998 C82.4699999999998,244.56799999999998 82.42999999999984,244.64299999999997 82.36999999999989,244.70600000000002 L81.9699999999998,245.01799999999997 C81.90000000000009,245.07 81.84000000000015,245.096 81.76000000000022,245.096 C81.71000000000004,245.096 81.65000000000009,245.07 81.59000000000015,245.01799999999997 L79.17999999999984,243.065 L76.76000000000022,245.01799999999997 C76.69999999999982,245.07 76.63999999999987,245.096 76.59000000000015,245.096 C76.5300000000002,245.096 76.4699999999998,245.07 76.40000000000009,245.01799999999997 L75.98000000000002,244.70600000000002 C75.92000000000007,244.64299999999997 75.88999999999987,244.565 75.88999999999987,244.471 C75.88999999999987,244.409 75.92000000000007,244.33100000000002 75.98000000000002,244.23700000000002 L78.30999999999995,242.346 L75.98000000000002,240.45600000000002 C75.92000000000007,240.38299999999998 75.88999999999987,240.30200000000002 75.88999999999987,240.214 C75.88999999999987,240.125 75.92000000000007,240.05 75.98000000000002,239.98700000000002 L76.40000000000009,239.675 C76.4699999999998,239.622 76.5300000000002,239.596 76.59000000000015,239.596 C76.63999999999987,239.596 76.69999999999982,239.622 76.76000000000022,239.675 L79.17999999999984,241.628" />
<path d="M79.17999999999984,249.128 L81.59000000000015,247.175 C81.65000000000009,247.122 81.71000000000004,247.096 81.76000000000022,247.096 C81.84000000000015,247.096 81.90000000000009,247.122 81.9699999999998,247.175 L82.36999999999989,247.48700000000002 C82.42999999999984,247.55 82.4699999999998,247.628 82.4699999999998,247.721 C82.4699999999998,247.784 82.42999999999984,247.86200000000002 82.36999999999989,247.95600000000002 L80.03999999999996,249.846 L82.36999999999989,251.73700000000002 C82.42999999999984,251.81 82.4699999999998,251.89100000000002 82.4699999999998,251.97899999999998 C82.4699999999998,252.06799999999998 82.42999999999984,252.14299999999997 82.36999999999989,252.20600000000002 L81.9699999999998,252.51799999999997 C81.90000000000009,252.57 81.84000000000015,252.596 81.76000000000022,252.596 C81.71000000000004,252.596 81.65000000000009,252.57 81.59000000000015,252.51799999999997 L79.17999999999984,250.565 L76.76000000000022,252.51799999999997 C76.69999999999982,252.57 76.63999999999987,252.596 76.59000000000015,252.596 C76.5300000000002,252.596 76.4699999999998,252.57 76.40000000000009,252.51799999999997 L75.98000000000002,252.20600000000002 C75.92000000000007,252.14299999999997 75.88999999999987,252.065 75.88999999999987,251.971 C75.88999999999987,251.909 75.92000000000007,251.83100000000002 75.98000000000002,251.73700000000002 L78.30999999999995,249.846 L75.98000000000002,247.95600000000002 C75.92000000000007,247.88299999999998 75.88999999999987,247.80200000000002 75.88999999999987,247.714 C75.88999999999987,247.625 75.92000000000007,247.55 75.98000000000002,247.48700000000002 L76.40000000000009,247.175 C76.4699999999998,247.122 76.5300000000002,247.096 76.59000000000015,247.096 C76.63999999999987,247.096 76.69999999999982,247.122 76.76000000000022,247.175 L79.17999999999984,249.128" />
<path d="M52.59999999999991,222.096 C53.2199999999998,222.096 53.75,222.25799999999998 54.190000000000055,222.58100000000002 C54.590000000000146,222.935 54.7800000000002,223.378 54.7800000000002,223.909 C54.7800000000002,224.805 54.320000000000164,225.64299999999997 53.409999999999854,226.425 C52.4699999999998,227.20600000000002 51.4699999999998,227.596 50.38999999999987,227.596 C49.76999999999998,227.596 49.23999999999978,227.435 48.809999999999945,227.11200000000002 C48.409999999999854,226.75799999999998 48.19999999999982,226.315 48.19999999999982,225.784 C48.19999999999982,224.88799999999998 48.67000000000007,224.05 49.61000000000013,223.26799999999997 C50.5300000000002,222.48700000000002 51.51999999999998,222.096 52.59999999999991,222.096" />
<path d="M52.59999999999991,229.596 C53.2199999999998,229.596 53.75,229.75799999999998 54.190000000000055,230.08100000000002 C54.590000000000146,230.435 54.7800000000002,230.878 54.7800000000002,231.409 C54.7800000000002,232.305 54.320000000000164,233.14299999999997 53.409999999999854,233.925 C52.4699999999998,234.70600000000002 51.4699999999998,235.096 50.38999999999987,235.096 C49.76999999999998,235.096 49.23999999999978,234.935 48.809999999999945,234.61200000000002 C48.409999999999854,234.25799999999998 48.19999999999982,233.815 48.19999999999982,233.284 C48.19999999999982,232.38799999999998 48.67000000000007,231.55 49.61000000000013,230.76799999999997 C50.5300000000002,229.98700000000002 51.51999999999998,229.596 52.59999999999991,229.596" />
<path d="M52.59999999999991,234.596 C53.2199999999998,234.596 53.75,234.75799999999998 54.190000000000055,235.08100000000002 C54.590000000000146,235.435 54.7800000000002,235.878 54.7800000000002,236.409 C54.7800000000002,237.305 54.320000000000164,238.14299999999997 53.409999999999854,238.925 C52.4699999999998,239.70600000000002 51.4699999999998,240.096 50.38999999999987,240.096 C49.76999999999998,240.096 49.23999999999978,239.935 48.809999999999945,239.61200000000002 C48.409999999999854,239.25799999999998 48.19999999999982,238.815 48.19999999999982,238.284 C48.19999999999982,237.38799999999998 48.67000000000007,236.55 49.61000000000013,235.76799999999997 C50.5300000000002,234.98700000000002 51.51999999999998,234.596 52.59999999999991,234.596" />
<path d="M52.59999999999991,239.596 C53.2199999999998,239.596 53.75,239.75799999999998 54.190000000000055,240.08100000000002 C54.590000000000146,240.435 54.7800000000002,240.878 54.7800000000002,241.409 C54.7800000000002,242.305 54.320000000000164,243.14299999999997 53.409999999999854,243.925 C52.4699999999998,244.70600000000002 51.4699999999998,245.096 50.38999999999987,245.096 C49.76999999999998,245.096 49.23999999999978,244.935 48.809999999999945,244.61200000000002 C48.409999999999854,244.25799999999998 48.19999999999982,243.815 48.19999999999982,243.284 C48.19999999999982,242.38799999999998 48.67000000000007,241.55 49.61000000000013,240.76799999999997 C50.5300000000002,239.98700000000002 51.51999999999998,239.596 52.59999999999991,239.596" />
<path d="M35.26999999999998,229.596 C35.88999999999987,229.596 36.42000000000007,229.75799999999998 36.86000000000013,230.08100000000002 C37.26000000000022,230.435 37.460000000000036,230.878 37.460000000000036,231.409 C37.460000000000036,232.305 37.0,233.14299999999997 36.07999999999993,233.925 C35.13999999999987,234.70600000000002 34.13999999999987,235.096 33.059999999999945,235.096 C32.440000000000055,235.096 31.909999999999854,234.935 31.48999999999978,234.61200000000002 C31.079999999999927,234.25799999999998 30.88000000000011,233.815 30.88000000000011,233.284 C30.88000000000011,232.38799999999998 31.34999999999991,231.55 32.2800000000002,230.76799999999997 C33.19999999999982,229.98700000000002 34.19999999999982,229.596 35.26999999999998,229.596" />
<path d="M35.26999999999998,239.596 C35.88999999999987,239.596 36.42000000000007,239.75799999999998 36.86000000000013,240.08100000000002 C37.26000000000022,240.435 37.460000000000036,240.878 37.460000000000036,241.409 C37.460000000000036,242.305 37.0,243.14299999999997 36.07999999999993,243.925 C35.13999999999987,244.70600000000002 34.13999999999987,245.096 33.059999999999945,245.096 C32.440000000000055,245.096 31.909999999999854,244.935 31.48999999999978,244.61200000000002 C31.079999999999927,244.25799999999998 30.88000000000011,243.815 30.88000000000011,243.284 C30.88000000000011,242.38799999999998 31.34999999999991,241.55 32.2800000000002,240.76799999999997 C33.19999999999982,239.98700000000002 34.19999999999982,239.596 35.26999999999998,239.596" />
<path d="M17.940000000000055,229.596 C18.570000000000164,229.596 19.09999999999991,229.75799999999998 19.5300000000002,230.08100000000002 C19.929999999999836,230.435 20.13000000000011,230.878 20.13000000000011,231.409 C20.13000000000011,232.305 19.670000000000073,233.14299999999997 18.75,233.925 C17.820000000000164,234.70600000000002 16.809999999999945,235.096 15.739999999999782,235.096 C15.110000000000127,235.096 14.590000000000146,234.935 14.159999999999854,234.61200000000002 C13.75,234.25799999999998 13.550000000000182,233.815 13.550000000000182,233.284 C13.550000000000182,232.38799999999998 14.019999999999982,231.55 14.960000000000036,230.76799999999997 C15.86999999999989,229.98700000000002 16.86999999999989,229.596 17.940000000000055,229.596" />
<path d="M17.940000000000055,239.596 C18.570000000000164,239.596 19.09999999999991,239.75799999999998 19.5300000000002,240.08100000000002 C19.929999999999836,240.435 20.13000000000011,240.878 20.13000000000011,241.409 C20.13000000000011,242.305 19.670000000000073,243.14299999999997 18.75,243.925 C17.820000000000164,244.70600000000002 16.809999999999945,245.096 15.739999999999782,245.096 C15.110000000000127,245.096 14.590000000000146,244.935 14.159999999999854,244.61200000000002 C13.75,244.25799999999998 13.550000000000182,243.815 13.550000000000182,243.284 C13.550000000000182,242.38799999999998 14.019999999999982,241.55 14.960000000000036,240.76799999999997 C15.86999999999989,239.98700000000002 16.86999999999989,239.596 17.940000000000055,239.596" />
<path d="M0.6100000000001273,222.096 C1.2399999999997817,222.096 1.7699999999999818,222.25799999999998 2.2100000000000364,222.58100000000002 C2.599999999999909,222.935 2.800000000000182,223.378 2.800000000000182,223.909 C2.800000000000182,224.805 2.3400000000001455,225.64299999999997 1.4299999999998363,226.425 C0.4899999999997817,227.20600000000002 -0.5199999999999818,227.596 -1.5900000000001455,227.596 C-2.2100000000000364,227.596 -2.7399999999997817,227.435 -3.1700000000000728,227.11200000000002 C-3.5700000000001637,226.75799999999998 -3.7800000000002,226.315 -3.7800000000002,225.784 C-3.7800000000002,224.88799999999998 -3.3099999999999454,224.05 -2.369999999999891,223.26799999999997 C-1.449999999999818,222.48700000000002 -0.4600000000000364,222.096 0.6100000000001273,222.096" />
<path d="M0.6100000000001273,229.596 C1.2399999999997817,229.596 1.7699999999999818,229.75799999999998 2.2100000000000364,230.08100000000002 C2.599999999999909,230.435 2.800000000000182,230.878 2.800000000000182,231.409 C2.800000000000182,232.305 2.3400000000001455,233.14299999999997 1.4299999999998363,233.925 C0.4899999999997817,234.70600000000002 -0.5199999999999818,235.096 -1.5900000000001455,235.096 C-2.2100000000000364,235.096 -2.7399999999997817,234.935 -3.1700000000000728,234.61200000000002 C-3.5700000000001637,234.25799999999998 -3.7800000000002,233.815 -3.7800000000002,233.284 C-3.7800000000002,232.38799999999998 -3.3099999999999454,231.55 -2.369999999999891,230.76799999999997 C-1.449999999999818,229.98700000000002 -0.4600000000000364,229.596 0.6100000000001273,229.596" />
<path d="M0.6100000000001273,234.596 C1.2399999999997817,234.596 1.7699999999999818,234.75799999999998 2.2100000000000364,235.08100000000002 C2.599999999999909,235.435 2.800000000000182,235.878 2.800000000000182,236.409 C2.800000000000182,237.305 2.3400000000001455,238.14299999999997 1.4299999999998363,238.925 C0.4899999999997817,239.70600000000002 -0.5199999999999818,240.096 -1.5900000000001455,240.096 C-2.2100000000000364,240.096 -2.7399999999997817,239.935 -3.1700000000000728,239.61200000000002 C-3.5700000000001637,239.25799999999998 -3.7800000000002,238.815 -3.7800000000002,238.284 C-3.7800000000002,237.38799999999998 -3.3099999999999454,236.55 -2.369999999999891,235.76799999999997 C-1.449999999999818,234.98700000000002 -0.4600000000000364,234.596 0.6100000000001273,234.596" />
<path d="M0.6100000000001273,239.596 C1.2399999999997817,239.596 1.7699999999999818,239.75799999999998 2.2100000000000364,240.08100000000002 C2.599999999999909,240.435 2.800000000000182,240.878 2.800000000000182,241.409 C2.800000000000182,242.305 2.3400000000001455,243.14299999999997 1.4299999999998363,243.925 C0.4899999999997817,244.70600000000002 -0.5199999999999818,245.096 -1.5900000000001455,245.096 C-2.2100000000000364,245.096 -2.7399999999997817,244.935 -3.1700000000000728,244.61200000000002 C-3.5700000000001637,244.25799999999998 -3.7800000000002,243.815 -3.7800000000002,243.284 C-3.7800000000002,242.38799999999998 -3.3099999999999454,241.55 -2.369999999999891,240.76799999999997 C-1.449999999999818,239.98700000000002 -0.4600000000000364,239.596 0.6100000000001273,239.596" />
<path d="M0.6100000000001273,147.096 C1.2399999999997817,147.096 1.7699999999999818,147.25799999999998 2.2100000000000364,147.58100000000002 C2.599999999999909,147.935 2.800000000000182,148.378 2.800000000000182,148.909 C2.800000000000182,149.805 2.3400000000001455,150.64299999999997 1.4299999999998363,151.425 C0.4899999999997817,152.20600000000002 -0.5199999999999818,152.596 -1.5900000000001455,152.596 C-2.2100000000000364,152.596 -2.7399999999997817,152.435 -3.1700000000000728,152.11200000000002 C-3.5700000000001637,151.75799999999998 -3.7800000000002,151.315 -3.7800000000002,150.784 C-3.7800000000002,149.88799999999998 -3.3099999999999454,149.05 -2.369999999999891,148.26799999999997 C-1.449999999999818,147.48700000000002 -0.4600000000000364,147.096 0.6100000000001273,147.096" />
<path d="M0.6100000000001273,152.096 C1.2399999999997817,152.096 1.7699999999999818,152.25799999999998 2.2100000000000364,152.58100000000002 C2.599999999999909,152.935 2.800000000000182,153.378 2.800000000000182,153.909 C2.800000000000182,154.805 2.3400000000001455,155.64299999999997 1.4299999999998363,156.425 C0.4899999999997817,157.20600000000002 -0.5199999999999818,157.596 -1.5900000000001455,157.596 C-2.2100000000000364,157.596 -2.7399999999997817,157.435 -3.1700000000000728,157.11200000000002 C-3.5700000000001637,156.75799999999998 -3.7800000000002,156.315 -3.7800000000002,155.784 C-3.7800000000002,154.88799999999998 -3.3099999999999454,154.05 -2.369999999999891,153.26799999999997 C-1.449999999999818,152.48700000000002 -0.4600000000000364,152.096 0.6100000000001273,152.096" />
<path d="M0.6100000000001273,164.596 C1.2399999999997817,164.596 1.7699999999999818,164.75799999999998 2.2100000000000364,165.08100000000002 C2.599999999999909,165.435 2.800000000000182,165.878 2.800000000000182,166.409 C2.800000000000182,167.305 2.3400000000001455,168.14299999999997 1.4299999999998363,168.925 C0.4899999999997817,169.70600000000002 -0.5199999999999818,170.096 -1.5900000000001455,170.096 C-2.2100000000000364,170.096 -2.7399999999997817,169.935 -3.1700000000000728,169.61200000000002 C-3.5700000000001637,169.25799999999998 -3.7800000000002,168.815 -3.7800000000002,168.284 C-3.7800000000002,167.38799999999998 -3.3099999999999454,166.55 -2.369999999999891,165.76799999999997 C-1.449999999999818,164.98700000000002 -0.4600000000000364,164.596 0.6100000000001273,164.596" />
<path d="M0.6100000000001273,124.596 C1.2399999999997817,124.596 1.7699999999999818,124.75799999999998 2.2100000000000364,125.08100000000002 C2.599999999999909,125.435 2.800000000000182,125.87799999999999 2.800000000000182,126.40899999999999 C2.800000000000182,127.305 2.3400000000001455,128.14299999999997 1.4299999999998363,128.925 C0.4899999999997817,129.70600000000002 -0.5199999999999818,130.096 -1.5900000000001455,130.096 C-2.2100000000000364,130.096 -2.7399999999997817,129.935 -3.1700000000000728,129.61200000000002 C-3.5700000000001637,129.25799999999998 -3.7800000000002,128.815 -3.7800000000002,128.284 C-3.7800000000002,127.38799999999998 -3.3099999999999454,126.55000000000001 -2.369999999999891,125.76799999999997 C-1.449999999999818,124.98700000000002 -0.4600000000000364,124.596 0.6100000000001273,124.596" />
<path d="M0.6100000000001273,129.596 C1.2399999999997817,129.596 1.7699999999999818,129.75799999999998 2.2100000000000364,130.08100000000002 C2.599999999999909,130.435 2.800000000000182,130.878 2.800000000000182,131.409 C2.800000000000182,132.305 2.3400000000001455,133.14299999999997 1.4299999999998363,133.925 C0.4899999999997817,134.70600000000002 -0.5199999999999818,135.096 -1.5900000000001455,135.096 C-2.2100000000000364,135.096 -2.7399999999997817,134.935 -3.1700000000000728,134.61200000000002 C-3.5700000000001637,134.25799999999998 -3.7800000000002,133.815 -3.7800000000002,133.284 C-3.7800000000002,132.38799999999998 -3.3099999999999454,131.55 -2.369999999999891,130.76799999999997 C-1.449999999999818,129.98700000000002 -0.4600000000000364,129.596 0.6100000000001273,129.596" />
<path d="M0.6100000000001273,142.096 C1.2399999999997817,142.096 1.7699999999999818,142.25799999999998 2.2100000000000364,142.58100000000002 C2.599999999999909,142.935 2.800000000000182,143.378 2.800000000000182,143.909 C2.800000000000182,144.805 2.3400000000001455,145.64299999999997 1.4299999999998363,146.425 C0.4899999999997817,147.20600000000002 -0.5199999999999818,147.596 -1.5900000000001455,147.596 C-2.2100000000000364,147.596 -2.7399999999997817,147.435 -3.1700000000000728,147.11200000000002 C-3.5700000000001637,146.75799999999998 -3.7800000000002,146.315 -3.7800000000002,145.784 C-3.7800000000002,144.88799999999998 -3.3099999999999454,144.05 -2.369999999999891,143.26799999999997 C-1.449999999999818,142.48700000000002 -0.4600000000000364,142.096 0.6100000000001273,142.096" />
<path d="M180.0999999999999,14.127999999999986 L182.51000000000022,12.175000000000011 C182.57000000000016,12.122000000000014 182.6300000000001,12.096000000000004 182.67999999999984,12.096000000000004 C182.75,12.096000000000004 182.82000000000016,12.122000000000014 182.8800000000001,12.175000000000011 L183.28999999999996,12.487000000000023 C183.3499999999999,12.550000000000011 183.3800000000001,12.627999999999986 183.3800000000001,12.721000000000004 C183.3800000000001,12.783999999999992 183.3499999999999,12.862000000000023 183.28999999999996,12.956000000000017 L180.96000000000004,14.846000000000004 L183.28999999999996,16.737000000000023 C183.3499999999999,16.810000000000002 183.3800000000001,16.89100000000002 183.3800000000001,16.978999999999985 C183.3800000000001,17.067999999999984 183.3499999999999,17.142999999999972 183.28999999999996,17.206000000000017 L182.8800000000001,17.517999999999972 C182.82000000000016,17.569999999999993 182.75,17.596000000000004 182.67999999999984,17.596000000000004 C182.6300000000001,17.596000000000004 182.57000000000016,17.569999999999993 182.51000000000022,17.517999999999972 L180.0999999999999,15.564999999999998 L177.67999999999984,17.517999999999972 C177.6199999999999,17.569999999999993 177.55999999999995,17.596000000000004 177.51000000000022,17.596000000000004 C177.44000000000005,17.596000000000004 177.3800000000001,17.569999999999993 177.32000000000016,17.517999999999972 L176.9000000000001,17.206000000000017 C176.82999999999993,17.142999999999972 176.80000000000018,17.064999999999998 176.80000000000018,16.971000000000004 C176.80000000000018,16.908999999999992 176.82999999999993,16.831000000000017 176.9000000000001,16.737000000000023 L179.2199999999998,14.846000000000004 L176.9000000000001,12.956000000000017 C176.82999999999993,12.882999999999981 176.80000000000018,12.802000000000021 176.80000000000018,12.713999999999999 C176.80000000000018,12.625 176.82999999999993,12.550000000000011 176.9000000000001,12.487000000000023 L177.32000000000016,12.175000000000011 C177.3800000000001,12.122000000000014 177.44000000000005,12.096000000000004 177.51000000000022,12.096000000000004 C177.55999999999995,12.096000000000004 177.6199999999999,12.122000000000014 177.67999999999984,12.175000000000011 L180.0999999999999,14.127999999999986" />
<path d="M181.19000000000005,32.096000000000004 C181.82000000000016,32.096000000000004 182.3499999999999,32.25799999999998 182.78999999999996,32.58100000000002 C183.17999999999984,32.935 183.3800000000001,33.377999999999986 183.3800000000001,33.90899999999999 C183.3800000000001,34.80500000000001 182.92000000000007,35.64299999999997 182.01000000000022,36.42500000000001 C181.07000000000016,37.20600000000002 180.05999999999995,37.596000000000004 178.98999999999978,37.596000000000004 C178.3699999999999,37.596000000000004 177.84000000000015,37.435 177.40999999999985,37.11200000000002 C177.01000000000022,36.75799999999998 176.80000000000018,36.315 176.80000000000018,35.78399999999999 C176.80000000000018,34.88799999999998 177.26999999999998,34.05000000000001 178.21000000000004,33.26799999999997 C179.1300000000001,32.48700000000002 180.1199999999999,32.096000000000004 181.19000000000005,32.096000000000004" />
<path d="M142.38999999999987,14.127999999999986 L144.80000000000018,12.175000000000011 C144.86000000000013,12.122000000000014 144.92000000000007,12.096000000000004 144.9699999999998,12.096000000000004 C145.05000000000018,12.096000000000004 145.11000000000013,12.122000000000014 145.17999999999984,12.175000000000011 L145.57999999999993,12.487000000000023 C145.63999999999987,12.550000000000011 145.67999999999984,12.627999999999986 145.67999999999984,12.721000000000004 C145.67999999999984,12.783999999999992 145.63999999999987,12.862000000000023 145.57999999999993,12.956000000000017 L143.25,14.846000000000004 L145.57999999999993,16.737000000000023 C145.63999999999987,16.810000000000002 145.67999999999984,16.89100000000002 145.67999999999984,16.978999999999985 C145.67999999999984,17.067999999999984 145.63999999999987,17.142999999999972 145.57999999999993,17.206000000000017 L145.17999999999984,17.517999999999972 C145.11000000000013,17.569999999999993 145.05000000000018,17.596000000000004 144.9699999999998,17.596000000000004 C144.92000000000007,17.596000000000004 144.86000000000013,17.569999999999993 144.80000000000018,17.517999999999972 L142.38999999999987,15.564999999999998 L139.9699999999998,17.517999999999972 C139.90999999999985,17.569999999999993 139.8499999999999,17.596000000000004 139.80000000000018,17.596000000000004 C139.73999999999978,17.596000000000004 139.67999999999984,17.569999999999993 139.61000000000013,17.517999999999972 L139.19000000000005,17.206000000000017 C139.1300000000001,17.142999999999972 139.0999999999999,17.064999999999998 139.0999999999999,16.971000000000004 C139.0999999999999,16.908999999999992 139.1300000000001,16.831000000000017 139.19000000000005,16.737000000000023 L141.51999999999998,14.846000000000004 L139.19000000000005,12.956000000000017 C139.1300000000001,12.882999999999981 139.0999999999999,12.802000000000021 139.0999999999999,12.713999999999999 C139.0999999999999,12.625 139.1300000000001,12.550000000000011 139.19000000000005,12.487000000000023 L139.61000000000013,12.175000000000011 C139.67999999999984,12.122000000000014 139.73999999999978,12.096000000000004 139.80000000000018,12.096000000000004 C139.8499999999999,12.096000000000004 139.90999999999985,12.122000000000014 139.9699999999998,12.175000000000011 L142.38999999999987,14.127999999999986" />
<path d="M143.48999999999978,22.096000000000004 C144.11000000000013,22.096000000000004 144.63999999999987,22.25799999999998 145.07999999999993,22.581000000000017 C145.48000000000002,22.935000000000002 145.67999999999984,23.377999999999986 145.67999999999984,23.908999999999992 C145.67999999999984,24.805000000000007 145.2199999999998,25.642999999999972 144.30000000000018,26.42500000000001 C143.36000000000013,27.206000000000017 142.36000000000013,27.596000000000004 141.28999999999996,27.596000000000004 C140.65999999999985,27.596000000000004 140.1300000000001,27.435000000000002 139.71000000000004,27.112000000000023 C139.30000000000018,26.75799999999998 139.0999999999999,26.314999999999998 139.0999999999999,25.783999999999992 C139.0999999999999,24.887999999999977 139.57000000000016,24.05000000000001 140.5,23.267999999999972 C141.42000000000007,22.487000000000023 142.42000000000007,22.096000000000004 143.48999999999978,22.096000000000004" />
<path d="M104.69000000000005,14.127999999999986 L107.09999999999991,12.175000000000011 C107.15999999999985,12.122000000000014 107.2199999999998,12.096000000000004 107.26999999999998,12.096000000000004 C107.34000000000015,12.096000000000004 107.40999999999985,12.122000000000014 107.4699999999998,12.175000000000011 L107.88000000000011,12.487000000000023 C107.94000000000005,12.550000000000011 107.9699999999998,12.627999999999986 107.9699999999998,12.721000000000004 C107.9699999999998,12.783999999999992 107.94000000000005,12.862000000000023 107.88000000000011,12.956000000000017 L105.55000000000018,14.846000000000004 L107.88000000000011,16.737000000000023 C107.94000000000005,16.810000000000002 107.9699999999998,16.89100000000002 107.9699999999998,16.978999999999985 C107.9699999999998,17.067999999999984 107.94000000000005,17.142999999999972 107.88000000000011,17.206000000000017 L107.4699999999998,17.517999999999972 C107.40999999999985,17.569999999999993 107.34000000000015,17.596000000000004 107.26999999999998,17.596000000000004 C107.2199999999998,17.596000000000004 107.15999999999985,17.569999999999993 107.09999999999991,17.517999999999972 L104.69000000000005,15.564999999999998 L102.26999999999998,17.517999999999972 C102.21000000000004,17.569999999999993 102.15000000000009,17.596000000000004 102.09999999999991,17.596000000000004 C102.0300000000002,17.596000000000004 101.9699999999998,17.569999999999993 101.90999999999985,17.517999999999972 L101.48999999999978,17.206000000000017 C101.42000000000007,17.142999999999972 101.38999999999987,17.064999999999998 101.38999999999987,16.971000000000004 C101.38999999999987,16.908999999999992 101.42000000000007,16.831000000000017 101.48999999999978,16.737000000000023 L103.82000000000016,14.846000000000004 L101.48999999999978,12.956000000000017 C101.42000000000007,12.882999999999981 101.38999999999987,12.802000000000021 101.38999999999987,12.713999999999999 C101.38999999999987,12.625 101.42000000000007,12.550000000000011 101.48999999999978,12.487000000000023 L101.90999999999985,12.175000000000011 C101.9699999999998,12.122000000000014 102.0300000000002,12.096000000000004 102.09999999999991,12.096000000000004 C102.15000000000009,12.096000000000004 102.21000000000004,12.122000000000014 102.26999999999998,12.175000000000011 L104.69000000000005,14.127999999999986" />
<path d="M105.7800000000002,32.096000000000004 C106.40999999999985,32.096000000000004 106.94000000000005,32.25799999999998 107.38000000000011,32.58100000000002 C107.76999999999998,32.935 107.9699999999998,33.377999999999986 107.9699999999998,33.90899999999999 C107.9699999999998,34.80500000000001 107.51000000000022,35.64299999999997 106.59999999999991,36.42500000000001 C105.65999999999985,37.20600000000002 104.65000000000009,37.596000000000004 103.57999999999993,37.596000000000004 C102.96000000000004,37.596000000000004 102.42999999999984,37.435 102.0,37.11200000000002 C101.59999999999991,36.75799999999998 101.38999999999987,36.315 101.38999999999987,35.78399999999999 C101.38999999999987,34.88799999999998 101.86000000000013,34.05000000000001 102.80000000000018,33.26799999999997 C103.7199999999998,32.48700000000002 104.71000000000004,32.096000000000004 105.7800000000002,32.096000000000004" />
<path d="M76.07999999999993,14.127999999999986 L78.48000000000002,12.175000000000011 C78.55000000000018,12.122000000000014 78.59999999999991,12.096000000000004 78.65999999999985,12.096000000000004 C78.73000000000002,12.096000000000004 78.80000000000018,12.122000000000014 78.86000000000013,12.175000000000011 L79.26999999999998,12.487000000000023 C79.32999999999993,12.550000000000011 79.36000000000013,12.627999999999986 79.36000000000013,12.721000000000004 C79.36000000000013,12.783999999999992 79.32999999999993,12.862000000000023 79.26999999999998,12.956000000000017 L76.94000000000005,14.846000000000004 L79.26999999999998,16.737000000000023 C79.32999999999993,16.810000000000002 79.36000000000013,16.89100000000002 79.36000000000013,16.978999999999985 C79.36000000000013,17.067999999999984 79.32999999999993,17.142999999999972 79.26999999999998,17.206000000000017 L78.86000000000013,17.517999999999972 C78.80000000000018,17.569999999999993 78.73000000000002,17.596000000000004 78.65999999999985,17.596000000000004 C78.59999999999991,17.596000000000004 78.55000000000018,17.569999999999993 78.48000000000002,17.517999999999972 L76.07999999999993,15.564999999999998 L73.65999999999985,17.517999999999972 C73.59000000000015,17.569999999999993 73.53999999999996,17.596000000000004 73.48000000000002,17.596000000000004 C73.42000000000007,17.596000000000004 73.36000000000013,17.569999999999993 73.30000000000018,17.517999999999972 L72.86999999999989,17.206000000000017 C72.80999999999995,17.142999999999972 72.7800000000002,17.064999999999998 72.7800000000002,16.971000000000004 C72.7800000000002,16.908999999999992 72.80999999999995,16.831000000000017 72.86999999999989,16.737000000000023 L75.19999999999982,14.846000000000004 L72.86999999999989,12.956000000000017 C72.80999999999995,12.882999999999981 72.7800000000002,12.802000000000021 72.7800000000002,12.713999999999999 C72.7800000000002,12.625 72.80999999999995,12.550000000000011 72.86999999999989,12.487000000000023 L73.30000000000018,12.175000000000011 C73.36000000000013,12.122000000000014 73.42000000000007,12.096000000000004 73.48000000000002,12.096000000000004 C73.53999999999996,12.096000000000004 73.59000000000015,12.122000000000014 73.65999999999985,12.175000000000011 L76.07999999999993,14.127999999999986" />
<path d="M77.17000000000007,22.096000000000004 C77.80000000000018,22.096000000000004 78.32999999999993,22.25799999999998 78.76999999999998,22.581000000000017 C79.15999999999985,22.935000000000002 79.36000000000013,23.377999999999986 79.36000000000013,23.908999999999992 C79.36000000000013,24.805000000000007 78.90000000000009,25.642999999999972 77.98000000000002,26.42500000000001 C77.05000000000018,27.206000000000017 76.03999999999996,27.596000000000004 74.9699999999998,27.596000000000004 C74.34000000000015,27.596000000000004 73.82000000000016,27.435000000000002 73.38999999999987,27.112000000000023 C72.98000000000002,26.75799999999998 72.7800000000002,26.314999999999998 72.7800000000002,25.783999999999992 C72.7800000000002,24.887999999999977 73.25,24.05000000000001 74.19000000000005,23.267999999999972 C75.09999999999991,22.487000000000023 76.09999999999991,22.096000000000004 77.17000000000007,22.096000000000004" />
<path d="M77.17000000000007,32.096000000000004 C77.80000000000018,32.096000000000004 78.32999999999993,32.25799999999998 78.76999999999998,32.58100000000002 C79.15999999999985,32.935 79.36000000000013,33.377999999999986 79.36000000000013,33.90899999999999 C79.36000000000013,34.80500000000001 78.90000000000009,35.64299999999997 77.98000000000002,36.42500000000001 C77.05000000000018,37.20600000000002 76.03999999999996,37.596000000000004 74.9699999999998,37.596000000000004 C74.34000000000015,37.596000000000004 73.82000000000016,37.435 73.38999999999987,37.11200000000002 C72.98000000000002,36.75799999999998 72.7800000000002,36.315 72.7800000000002,35.78399999999999 C72.7800000000002,34.88799999999998 73.25,34.05000000000001 74.19000000000005,33.26799999999997 C75.09999999999991,32.48700000000002 76.09999999999991,32.096000000000004 77.17000000000007,32.096000000000004" />
<path d="M30.11999999999989,14.127999999999986 L32.51999999999998,12.175000000000011 C32.57999999999993,12.122000000000014 32.63999999999987,12.096000000000004 32.690000000000055,12.096000000000004 C32.76999999999998,12.096000000000004 32.82999999999993,12.122000000000014 32.90000000000009,12.175000000000011 L33.30000000000018,12.487000000000023 C33.36999999999989,12.550000000000011 33.40000000000009,12.627999999999986 33.40000000000009,12.721000000000004 C33.40000000000009,12.783999999999992 33.36999999999989,12.862000000000023 33.30000000000018,12.956000000000017 L30.9699999999998,14.846000000000004 L33.30000000000018,16.737000000000023 C33.36999999999989,16.810000000000002 33.40000000000009,16.89100000000002 33.40000000000009,16.978999999999985 C33.40000000000009,17.067999999999984 33.36999999999989,17.142999999999972 33.30000000000018,17.206000000000017 L32.90000000000009,17.517999999999972 C32.82999999999993,17.569999999999993 32.76999999999998,17.596000000000004 32.690000000000055,17.596000000000004 C32.63999999999987,17.596000000000004 32.57999999999993,17.569999999999993 32.51999999999998,17.517999999999972 L30.11999999999989,15.564999999999998 L27.690000000000055,17.517999999999972 C27.63000000000011,17.569999999999993 27.570000000000164,17.596000000000004 27.519999999999982,17.596000000000004 C27.460000000000036,17.596000000000004 27.40000000000009,17.569999999999993 27.329999999999927,17.517999999999972 L26.909999999999854,17.206000000000017 C26.84999999999991,17.142999999999972 26.820000000000164,17.064999999999998 26.820000000000164,16.971000000000004 C26.820000000000164,16.908999999999992 26.84999999999991,16.831000000000017 26.909999999999854,16.737000000000023 L29.23999999999978,14.846000000000004 L26.909999999999854,12.956000000000017 C26.84999999999991,12.882999999999981 26.820000000000164,12.802000000000021 26.820000000000164,12.713999999999999 C26.820000000000164,12.625 26.84999999999991,12.550000000000011 26.909999999999854,12.487000000000023 L27.329999999999927,12.175000000000011 C27.40000000000009,12.122000000000014 27.460000000000036,12.096000000000004 27.519999999999982,12.096000000000004 C27.570000000000164,12.096000000000004 27.63000000000011,12.122000000000014 27.690000000000055,12.175000000000011 L30.11999999999989,14.127999999999986" />
<path d="M75.76000000000022,173.284 C75.76000000000022,173.04399999999998 75.90000000000009,172.784 76.17000000000007,172.503 C76.36000000000013,172.29399999999998 76.63999999999987,172.04399999999998 77.0300000000002,171.753 C77.30999999999995,171.565 77.59000000000015,171.274 77.86000000000013,170.878 C78.11999999999989,170.503 78.25,170.091 78.25,169.64299999999997 C78.25,169.122 78.07999999999993,168.664 77.75,168.26799999999997 L77.03999999999996,167.425 C76.98999999999978,167.372 76.9699999999998,167.30700000000002 76.9699999999998,167.22899999999998 C76.9699999999998,167.151 77.0,167.08100000000002 77.07999999999993,167.01799999999997 C77.17000000000007,166.945 77.25,166.909 77.30999999999995,166.909 C77.40000000000009,166.909 77.48000000000002,166.95100000000002 77.5300000000002,167.034 L80.55999999999995,170.628 C80.67999999999984,170.79399999999998 80.75,170.961 80.75,171.128 C80.75,171.36700000000002 80.61999999999989,171.628 80.36000000000013,171.909 C80.19000000000005,172.096 79.90999999999985,172.346 79.5300000000002,172.659 C79.23000000000002,172.836 78.94000000000005,173.128 78.67000000000007,173.534 C78.40999999999985,173.909 78.2800000000002,174.32 78.2800000000002,174.76799999999997 C78.2800000000002,175.32 78.42999999999984,175.784 78.75,176.159 L80.42000000000007,178.128 C80.46000000000004,178.16899999999998 80.48999999999978,178.23700000000002 80.51000000000022,178.33100000000002 C80.51000000000022,178.414 80.48000000000002,178.49200000000002 80.42000000000007,178.565 C80.32999999999993,178.628 80.25,178.659 80.17999999999984,178.659 C80.15999999999985,178.659 80.05999999999995,178.586 79.86999999999989,178.44 C79.67000000000007,178.284 79.40999999999985,178.13299999999998 79.09000000000015,177.98700000000002 C78.73000000000002,177.85199999999998 78.36999999999989,177.784 78.01000000000022,177.784 C77.69000000000005,177.784 77.42000000000007,177.872 77.2199999999998,178.05 C77.03999999999996,178.23700000000002 76.94999999999982,178.591 76.94999999999982,179.11200000000002 C76.94999999999982,179.904 77.13999999999987,180.529 77.51000000000022,180.98700000000002 C77.55000000000018,181.039 77.55999999999995,181.10199999999998 77.5300000000002,181.175 C77.51000000000022,181.22699999999998 77.46000000000004,181.253 77.38999999999987,181.253 C77.30000000000018,181.253 77.11000000000013,181.01799999999997 76.78999999999996,180.55 C76.46000000000004,180.06 76.15000000000009,179.49200000000002 75.86999999999989,178.846 C75.57000000000016,178.16899999999998 75.42000000000007,177.61200000000002 75.42000000000007,177.175 C75.42000000000007,176.61200000000002 75.67999999999984,176.33100000000002 76.2199999999998,176.33100000000002 C76.82999999999993,176.33100000000002 77.63000000000011,176.539 78.61000000000013,176.95600000000002 L75.9699999999998,173.784 C75.82999999999993,173.61700000000002 75.76000000000022,173.45100000000002 75.76000000000022,173.284" />
<path d="M75.76000000000022,120.78399999999999 C75.76000000000022,120.54399999999998 75.90000000000009,120.28399999999999 76.17000000000007,120.00299999999999 C76.36000000000013,119.79399999999998 76.63999999999987,119.54399999999998 77.0300000000002,119.25299999999999 C77.30999999999995,119.065 77.59000000000015,118.774 77.86000000000013,118.37799999999999 C78.11999999999989,118.00299999999999 78.25,117.59100000000001 78.25,117.14299999999997 C78.25,116.62200000000001 78.07999999999993,116.16399999999999 77.75,115.76799999999997 L77.03999999999996,114.92500000000001 C76.98999999999978,114.87200000000001 76.9699999999998,114.80700000000002 76.9699999999998,114.72899999999998 C76.9699999999998,114.65100000000001 77.0,114.58100000000002 77.07999999999993,114.51799999999997 C77.17000000000007,114.445 77.25,114.40899999999999 77.30999999999995,114.40899999999999 C77.40000000000009,114.40899999999999 77.48000000000002,114.45100000000002 77.5300000000002,114.53399999999999 L80.55999999999995,118.12799999999999 C80.67999999999984,118.29399999999998 80.75,118.46100000000001 80.75,118.62799999999999 C80.75,118.86700000000002 80.61999999999989,119.12799999999999 80.36000000000013,119.40899999999999 C80.19000000000005,119.596 79.90999999999985,119.846 79.5300000000002,120.15899999999999 C79.23000000000002,120.33600000000001 78.94000000000005,120.62799999999999 78.67000000000007,121.03399999999999 C78.40999999999985,121.40899999999999 78.2800000000002,121.82 78.2800000000002,122.26799999999997 C78.2800000000002,122.82 78.42999999999984,123.28399999999999 78.75,123.65899999999999 L80.42000000000007,125.62799999999999 C80.46000000000004,125.66899999999998 80.48999999999978,125.73700000000002 80.51000000000022,125.83100000000002 C80.51000000000022,125.91399999999999 80.48000000000002,125.99200000000002 80.42000000000007,126.065 C80.32999999999993,126.12799999999999 80.25,126.15899999999999 80.17999999999984,126.15899999999999 C80.15999999999985,126.15899999999999 80.05999999999995,126.08600000000001 79.86999999999989,125.94 C79.67000000000007,125.78399999999999 79.40999999999985,125.63299999999998 79.09000000000015,125.48700000000002 C78.73000000000002,125.35199999999998 78.36999999999989,125.28399999999999 78.01000000000022,125.28399999999999 C77.69000000000005,125.28399999999999 77.42000000000007,125.37200000000001 77.2199999999998,125.55000000000001 C77.03999999999996,125.73700000000002 76.94999999999982,126.09100000000001 76.94999999999982,126.61200000000002 C76.94999999999982,127.404 77.13999999999987,128.029 77.51000000000022,128.48700000000002 C77.55000000000018,128.539 77.55999999999995,128.60199999999998 77.5300000000002,128.675 C77.51000000000022,128.72699999999998 77.46000000000004,128.753 77.38999999999987,128.753 C77.30000000000018,128.753 77.11000000000013,128.51799999999997 76.78999999999996,128.05 C76.46000000000004,127.56 76.15000000000009,126.99200000000002 75.86999999999989,126.346 C75.57000000000016,125.66899999999998 75.42000000000007,125.11200000000002 75.42000000000007,124.67500000000001 C75.42000000000007,124.11200000000002 75.67999999999984,123.83100000000002 76.2199999999998,123.83100000000002 C76.82999999999993,123.83100000000002 77.63000000000011,124.03899999999999 78.61000000000013,124.45600000000002 L75.9699999999998,121.28399999999999 C75.82999999999993,121.11700000000002 75.76000000000022,120.95100000000002 75.76000000000022,120.78399999999999" />
<path d="M151.1300000000001,207.346 L186.44000000000005,207.346 L186.44000000000005,209.846 L151.1300000000001,209.846 L151.1300000000001,207.346" />
<path d="M151.1300000000001,211.096 L169.11000000000013,211.096 L169.11000000000013,213.596 L151.1300000000001,213.596 L151.1300000000001,211.096" />
<path d="M145.19999999999982,172.346 L180.5,173.62 L180.5,176.12 L145.19999999999982,174.846 L145.19999999999982,172.346" />
<path d="M145.19999999999982,119.846 L180.5,121.12 L180.5,123.62 L145.19999999999982,122.346 L145.19999999999982,119.846" />
<path d="M81.82000000000016,207.346 L134.44999999999982,207.346 L134.44999999999982,209.846 L81.82000000000016,209.846 L81.82000000000016,207.346" />
<path d="M116.48000000000002,211.096 L134.44999999999982,211.096 L134.44999999999982,213.596 L116.48000000000002,213.596 L116.48000000000002,211.096" />
<path d="M2.1599999999998545,207.346 L54.789999999999964,207.346 L54.789999999999964,209.846 L2.1599999999998545,209.846 L2.1599999999998545,207.346" />
<path d="M2.1599999999998545,211.096 L54.789999999999964,211.096 L54.789999999999964,213.596 L2.1599999999998545,213.596 L2.1599999999998545,211.096" />
<path d="M72.7800000000002,47.346000000000004 L177.44999999999982,47.346000000000004 L177.44999999999982,49.846000000000004 L72.7800000000002,49.846000000000004 L72.7800000000002,47.346000000000004" />
<polyline points="0.0,17.346000000000004 215.30999999999995,17.346000000000004" fill="none" stroke="#000000" stroke-width="0.40" />
<polyline points="0.0,22.346000000000004 215.30999999999995,22.346000000000004" fill="none" stroke="#000000" stroke-width="0.40" />
<polyline points="0.0,27.346000000000004 215.30999999999995,27.346000000000004" fill="none" stroke="#000000" stroke-width="0.40" />
<polyline points="0.0,32.346000000000004 215.30999999999995,32.346000000000004" fill="none" stroke="#000000" stroke-width="0.40" />
<polyline points="0.0,37.346000000000004 215.30999999999995,37.346000000000004" fill="none" stroke="#000000" stroke-width="0.40" />
<polyline points="0.0,112.346 215.30999999999995,112.346" fill="none" stroke="#000000" stroke-width="0.40" />
<polyline points="0.0,117.346 215.30999999999995,117.346" fill="none" stroke="#000000" stroke-width="0.40" />
<polyline points="0.0,122.346 215.30999999999995,122.346" fill="none" stroke="#000000" stroke-width="0.40" />
<polyline points="0.0,127.346 215.30999999999995,127.346" fill="none" stroke="#000000" stroke-width="0.40" />
<polyline points="0.0,132.346 215.30999999999995,132.346" fill="none" stroke="#000000" stroke-width="0.40" />
<polyline points="0.0,164.846 215.30999999999995,164.846" fill="none" stroke="#000000" stroke-width="0.40" />
<polyline points="0.0,169.846 215.30999999999995,169.846" fill="none" stroke="#000000" stroke-width="0.40" />
<polyline points="0.0,174.846 215.30999999999995,174.846" fill="none" stroke="#000000" stroke-width="0.40" />
<polyline points="0.0,179.846 215.30999999999995,179.846" fill="none" stroke="#000000" stroke-width="0.40" />
<polyline points="0.0,184.846 215.30999999999995,184.846" fill="none" stroke="#000000" stroke-width="0.40" />
<polyline points="0.0,217.346 215.30999999999995,217.346" fill="none" stroke="#000000" stroke-width="0.40" />
<polyline points="0.0,222.346 215.30999999999995,222.346" fill="none" stroke="#000000" stroke-width="0.40" />
<polyline points="0.0,227.346 215.30999999999995,227.346" fill="none" stroke="#000000" stroke-width="0.40" />
<polyline points="0.0,232.346 215.30999999999995,232.346" fill="none" stroke="#000000" stroke-width="0.40" />
<polyline points="0.0,237.346 215.30999999999995,237.346" fill="none" stroke="#000000" stroke-width="0.40" />
<polyline points="214.90999999999985,217.346 214.90999999999985,237.346" fill="" stroke="#000000" stroke-width="0.80" />
<polyline points="214.90999999999985,164.846 214.90999999999985,184.846" fill="" stroke="#000000" stroke-width="0.80" />
<polyline points="214.90999999999985,112.346 214.90999999999985,132.346" fill="" stroke="#000000" stroke-width="0.80" />
<polyline points="214.90999999999985,17.346000000000004 214.90999999999985,37.346000000000004" fill="" stroke="#000000" stroke-width="0.80" />
<polyline points="197.5,255.786 197.5,255.0" fill="" stroke="#000000" stroke-width="0.65" />
<polyline points="180.17999999999984,255.786 180.17999999999984,255.0" fill="" stroke="#000000" stroke-width="0.65" />
<polyline points="186.11000000000013,241.40699999999998 186.11000000000013,208.596" fill="" stroke="#000000" stroke-width="0.65" />
<polyline points="180.17999999999984,128.286 180.17999999999984,174.846" fill="" stroke="#000000" stroke-width="0.65" />
<polyline points="180.17999999999984,105.786 180.17999999999984,122.346" fill="" stroke="#000000" stroke-width="0.65" />
<polyline points="168.7800000000002,241.40699999999998 168.7800000000002,208.596" fill="" stroke="#000000" stroke-width="0.65" />
<polyline points="151.46000000000004,241.40699999999998 151.46000000000004,208.596" fill="" stroke="#000000" stroke-width="0.65" />
<polyline points="145.51999999999998,125.786 145.51999999999998,173.596" fill="" stroke="#000000" stroke-width="0.65" />
<polyline points="145.51999999999998,103.286 145.51999999999998,121.096" fill="" stroke="#000000" stroke-width="0.65" />
<polyline points="134.1300000000001,241.40699999999998 134.1300000000001,208.596" fill="" stroke="#000000" stroke-width="0.65" />
<polyline points="116.80000000000018,241.40699999999998 116.80000000000018,208.596" fill="" stroke="#000000" stroke-width="0.65" />
<polyline points="82.15000000000009,247.86200000000002 82.15000000000009,208.596" fill="" stroke="#000000" stroke-width="0.65" />
<polyline points="54.460000000000036,241.40699999999998 54.460000000000036,208.596" fill="" stroke="#000000" stroke-width="0.65" />
<polyline points="37.13999999999987,241.40699999999998 37.13999999999987,208.596" fill="" stroke="#000000" stroke-width="0.65" />
<polyline points="19.809999999999945,241.40699999999998 19.809999999999945,208.596" fill="" stroke="#000000" stroke-width="0.65" />
<polyline points="2.480000000000018,241.40699999999998 2.480000000000018,208.596" fill="" stroke="#000000" stroke-width="0.65" />
<polyline points="2.480000000000018,143.90699999999998 2.480000000000018,110.471" fill="" stroke="#000000" stroke-width="0.65" />
<polyline points="177.1300000000001,16.910000000000025 177.1300000000001,48.596000000000004" fill="" stroke="#000000" stroke-width="0.65" />
<polyline points="139.42000000000007,16.910000000000025 139.42000000000007,48.596000000000004" fill="" stroke="#000000" stroke-width="0.65" />
<polyline points="101.7199999999998,16.910000000000025 101.7199999999998,48.596000000000004" fill="" stroke="#000000" stroke-width="0.65" />
<polyline points="73.11000000000013,16.910000000000025 73.11000000000013,48.596000000000004" fill="" stroke="#000000" stroke-width="0.65" />
<polyline points="27.139999999999873,16.910000000000025 27.139999999999873,43.596000000000004" fill="" stroke="#000000" stroke-width="0.65" />
<polyline points="195.67999999999984,254.846 205.26000000000022,254.846" fill="" stroke="#000000" stroke-width="0.80" />
<polyline points="178.3499999999999,254.846 187.94000000000005,254.846" fill="" stroke="#000000" stroke-width="0.80" />
<polyline points="178.3499999999999,242.346 187.94000000000005,242.346" fill="" stroke="#000000" stroke-width="0.80" />
<polyline points="178.3499999999999,129.846 187.94000000000005,129.846" fill="" stroke="#000000" stroke-width="0.80" />
<polyline points="178.3499999999999,134.846 187.94000000000005,134.846" fill="" stroke="#000000" stroke-width="0.80" />
<polyline points="178.3499999999999,139.846 187.94000000000005,139.846" fill="" stroke="#000000" stroke-width="0.80" />
<polyline points="178.3499999999999,144.846 187.94000000000005,144.846" fill="" stroke="#000000" stroke-width="0.80" />
<polyline points="178.3499999999999,149.846 187.94000000000005,149.846" fill="" stroke="#000000" stroke-width="0.80" />
<polyline points="178.3499999999999,154.846 187.94000000000005,154.846" fill="" stroke="#000000" stroke-width="0.80" />
<polyline points="178.3499999999999,159.846 187.94000000000005,159.846" fill="" stroke="#000000" stroke-width="0.80" />
<polyline points="178.3499999999999,107.346 187.94000000000005,107.346" fill="" stroke="#000000" stroke-width="0.80" />
<polyline points="161.01999999999998,242.346 170.61000000000013,242.346" fill="" stroke="#000000" stroke-width="0.80" />
<polyline points="143.69999999999982,242.346 153.2800000000002,242.346" fill="" stroke="#000000" stroke-width="0.80" />
<polyline points="143.69999999999982,124.846 153.2800000000002,124.846" fill="" stroke="#000000" stroke-width="0.80" />
<polyline points="143.69999999999982,129.846 153.2800000000002,129.846" fill="" stroke="#000000" stroke-width="0.80" />
<polyline points="143.69999999999982,134.846 153.2800000000002,134.846" fill="" stroke="#000000" stroke-width="0.80" />
<polyline points="143.69999999999982,139.846 153.2800000000002,139.846" fill="" stroke="#000000" stroke-width="0.80" />
<polyline points="143.69999999999982,144.846 153.2800000000002,144.846" fill="" stroke="#000000" stroke-width="0.80" />
<polyline points="143.69999999999982,149.846 153.2800000000002,149.846" fill="" stroke="#000000" stroke-width="0.80" />
<polyline points="143.69999999999982,154.846 153.2800000000002,154.846" fill="" stroke="#000000" stroke-width="0.80" />
<polyline points="143.69999999999982,159.846 153.2800000000002,159.846" fill="" stroke="#000000" stroke-width="0.80" />
<polyline points="143.69999999999982,102.346 153.2800000000002,102.346" fill="" stroke="#000000" stroke-width="0.80" />
<polyline points="143.69999999999982,107.346 153.2800000000002,107.346" fill="" stroke="#000000" stroke-width="0.80" />
<polyline points="126.36999999999989,242.346 135.94999999999982,242.346" fill="" stroke="#000000" stroke-width="0.80" />
<polyline points="109.03999999999996,242.346 118.63000000000011,242.346" fill="" stroke="#000000" stroke-width="0.80" />
<polyline points="74.38999999999987,242.346 83.9699999999998,242.346" fill="" stroke="#000000" stroke-width="0.80" />
<polyline points="74.38999999999987,247.346 83.9699999999998,247.346" fill="" stroke="#000000" stroke-width="0.80" />
<polyline points="46.69999999999982,242.346 56.289999999999964,242.346" fill="" stroke="#000000" stroke-width="0.80" />
<polyline points="29.38000000000011,242.346 38.960000000000036,242.346" fill="" stroke="#000000" stroke-width="0.80" />
<polyline points="12.050000000000182,242.346 21.63000000000011,242.346" fill="" stroke="#000000" stroke-width="0.80" />
<polyline points="0.0,242.346 4.309999999999945,242.346" fill="" stroke="#000000" stroke-width="0.80" />
<polyline points="0.0,149.846 4.309999999999945,149.846" fill="" stroke="#000000" stroke-width="0.80" />
<polyline points="0.0,154.846 4.309999999999945,154.846" fill="" stroke="#000000" stroke-width="0.80" />
<polyline points="0.0,159.846 4.309999999999945,159.846" fill="" stroke="#000000" stroke-width="0.80" />
<polyline points="0.0,137.346 4.309999999999945,137.346" fill="" stroke="#000000" stroke-width="0.80" />
<polyline points="0.0,142.346 4.309999999999945,142.346" fill="" stroke="#000000" stroke-width="0.80" />
</svg>
