<?xml version="1.0" encoding="UTF-8" standalone="yes"?>
<svg width="256.0px" height="256.0px" xmlns="http://www.w3.org/2000/svg" xmlns:xlink="http://www.w3.org/1999/xlink" version="1.2" baseProfile="tiny">
<path d="M253.79999999999927,25.557999999999993 C253.79999999999927,25.442999999999984 253.89999999999964,25.339000000000055 253.89999999999964,25.245000000000005 C253.89999999999964,25.150999999999954 254.0,25.019000000000005 254.10000000000036,24.84699999999998 C254.20000000000073,24.674999999999955 254.20000000000073,24.53200000000004 254.39999999999964,24.41700000000003 C254.5,24.30200000000002 254.60000000000036,24.201000000000022 254.79999999999927,24.111999999999966 C255.0,24.024 255.20000000000073,23.979000000000042 255.5,23.979000000000042 C255.89999999999964,23.979000000000042 256.2000000000007,24.11500000000001 256.5,24.385999999999967 C256.7999999999993,24.65700000000004 256.89999999999964,24.99000000000001 256.89999999999964,25.385999999999967 C256.89999999999964,25.99000000000001 256.60000000000036,26.650999999999954 255.89999999999964,27.370000000000005 L254.60000000000036,28.79200000000003 L256.5,28.79200000000003 C256.7000000000007,28.79200000000003 256.7999999999993,28.760999999999967 256.89999999999964,28.69799999999998 C257.0,28.635999999999967 257.10000000000036,28.49000000000001 257.2999999999993,28.260999999999967 L257.39999999999964,28.29200000000003 L256.89999999999964,29.370000000000005 L253.79999999999927,29.370000000000005 L253.79999999999927,29.275999999999954 L255.20000000000073,27.760999999999967 C255.89999999999964,27.03200000000004 256.2999999999993,26.34400000000005 256.2999999999993,25.69799999999998 C256.2999999999993,25.354000000000042 256.2000000000007,25.077999999999975 256.0,24.870000000000005 C255.70000000000073,24.662000000000035 255.5,24.557999999999993 255.10000000000036,24.557999999999993 C254.89999999999964,24.557999999999993 254.60000000000036,24.633000000000038 254.5,24.783999999999992 C254.29999999999927,24.934999999999945 254.10000000000036,25.208999999999946 254.0,25.604000000000042 L253.79999999999927,25.557999999999993 M260.39999999999964,27.79200000000003 C260.39999999999964,27.510999999999967 260.2999999999993,27.260999999999967 260.2000000000007,27.04200000000003 C260.10000000000036,26.82299999999998 259.89999999999964,26.650999999999954 259.7999999999993,26.525999999999954 C259.60000000000036,26.400999999999954 259.39999999999964,26.30200000000002 259.2000000000007,26.229000000000042 C258.89999999999964,26.15700000000004 258.7999999999993,26.10699999999997 258.60000000000036,26.081000000000017 C258.39999999999964,26.05499999999995 258.2999999999993,26.04200000000003 258.2000000000007,26.04200000000003 C258.10000000000036,26.04200000000003 258.10000000000036,26.020999999999958 258.10000000000036,25.979000000000042 C258.10000000000036,25.958999999999946 258.10000000000036,25.942999999999984 258.10000000000036,25.932999999999993 L258.89999999999964,24.07299999999998 L260.60000000000036,24.07299999999998 C260.7000000000007,24.07299999999998 260.7999999999993,24.059999999999945 260.7999999999993,24.033999999999992 C260.89999999999964,24.008000000000038 260.89999999999964,23.952999999999975 261.0,23.870000000000005 L261.10000000000036,23.932999999999993 L260.7999999999993,24.589000000000055 C260.7000000000007,24.640999999999963 260.7000000000007,24.66700000000003 260.60000000000036,24.66700000000003 L259.0,24.66700000000003 L258.7000000000007,25.339000000000055 C259.39999999999964,25.485000000000014 260.0,25.714000000000055 260.39999999999964,26.025999999999954 C260.7999999999993,26.339000000000055 261.0,26.80200000000002 261.0,27.41700000000003 C261.0,27.729000000000042 260.89999999999964,28.010999999999967 260.7999999999993,28.260999999999967 C260.7000000000007,28.510999999999967 260.60000000000036,28.711000000000013 260.39999999999964,28.861999999999966 C260.2999999999993,29.013000000000034 260.10000000000036,29.135999999999967 259.89999999999964,29.229000000000042 C259.7000000000007,29.32299999999998 259.5,29.388000000000034 259.2999999999993,29.424999999999955 C259.2000000000007,29.461000000000013 259.0,29.479000000000042 258.7999999999993,29.479000000000042 C258.5,29.479000000000042 258.2000000000007,29.434999999999945 258.10000000000036,29.34699999999998 C257.89999999999964,29.258000000000038 257.7999999999993,29.135999999999967 257.7999999999993,28.979000000000042 C257.7999999999993,28.78200000000004 257.89999999999964,28.682999999999993 258.10000000000036,28.682999999999993 C258.2999999999993,28.682999999999993 258.5,28.765999999999963 258.7000000000007,28.932999999999993 C259.0,29.099000000000046 259.2000000000007,29.182999999999993 259.2999999999993,29.182999999999993 C259.60000000000036,29.182999999999993 259.89999999999964,29.049999999999955 260.10000000000036,28.783999999999992 C260.2999999999993,28.519000000000005 260.39999999999964,28.187999999999988 260.39999999999964,27.79200000000003" />
</svg>
