<?xml version="1.0" encoding="UTF-8" standalone="yes"?>
<svg width="256.0px" height="256.0px" xmlns="http://www.w3.org/2000/svg" xmlns:xlink="http://www.w3.org/1999/xlink" version="1.2" baseProfile="tiny">
<path d="M143.29999999999927,30.79200000000003 C143.10000000000036,30.69799999999998 143.0,30.591000000000008 142.79999999999927,30.47199999999998 C142.70000000000073,30.351999999999975 142.5,30.184999999999945 142.29999999999927,29.97199999999998 C142.10000000000036,29.758000000000038 142.0,29.53200000000004 141.79999999999927,29.29200000000003 C141.70000000000073,29.05200000000002 141.60000000000036,28.760999999999967 141.5,28.41700000000003 C141.39999999999964,28.07299999999998 141.29999999999927,27.71900000000005 141.29999999999927,27.354000000000042 C141.29999999999927,26.96900000000005 141.39999999999964,26.604000000000042 141.5,26.260999999999967 C141.60000000000036,25.91700000000003 141.70000000000073,25.633000000000038 141.79999999999927,25.408999999999992 C141.89999999999964,25.184999999999945 142.10000000000036,24.966000000000008 142.29999999999927,24.753000000000043 C142.5,24.538999999999987 142.70000000000073,24.383000000000038 142.79999999999927,24.283999999999992 C143.0,24.184999999999945 143.10000000000036,24.077999999999975 143.29999999999927,23.964000000000055 L143.39999999999964,24.089000000000055 C143.10000000000036,24.287000000000035 142.89999999999964,24.461000000000013 142.79999999999927,24.611999999999966 C142.60000000000036,24.763000000000034 142.5,24.964000000000055 142.39999999999964,25.214000000000055 C142.20000000000073,25.464000000000055 142.10000000000036,25.760999999999967 142.10000000000036,26.104000000000042 C142.0,26.44799999999998 142.0,26.860000000000014 142.0,27.339000000000055 C142.0,27.827999999999975 142.0,28.253000000000043 142.10000000000036,28.611999999999966 C142.10000000000036,28.97199999999998 142.20000000000073,29.275999999999954 142.39999999999964,29.525999999999954 C142.5,29.775999999999954 142.60000000000036,29.98199999999997 142.79999999999927,30.144000000000005 C142.89999999999964,30.30499999999995 143.10000000000036,30.474000000000046 143.39999999999964,30.650999999999954 L143.29999999999927,30.79200000000003 M143.79999999999927,27.66700000000003 C143.79999999999927,27.07299999999998 144.0,26.59699999999998 144.29999999999927,26.236999999999966 C144.70000000000073,25.878000000000043 145.10000000000036,25.69799999999998 145.5,25.69799999999998 C145.89999999999964,25.69799999999998 146.20000000000073,25.778999999999996 146.39999999999964,25.940000000000055 C146.60000000000036,26.101999999999975 146.70000000000073,26.297000000000025 146.70000000000073,26.525999999999954 C146.70000000000073,26.610000000000014 146.70000000000073,26.684999999999945 146.60000000000036,26.753000000000043 C146.60000000000036,26.821000000000026 146.5,26.854000000000042 146.39999999999964,26.854000000000042 C146.20000000000073,26.854000000000042 146.10000000000036,26.735000000000014 146.0,26.495000000000005 L146.0,26.32299999999998 C145.89999999999964,26.16700000000003 145.89999999999964,26.062999999999988 145.79999999999927,26.010999999999967 C145.70000000000073,25.958999999999946 145.60000000000036,25.932999999999993 145.5,25.932999999999993 C145.20000000000073,25.932999999999993 144.89999999999964,26.059999999999945 144.70000000000073,26.315000000000055 C144.5,26.571000000000026 144.39999999999964,26.90700000000004 144.39999999999964,27.32299999999998 C144.39999999999964,27.770999999999958 144.5,28.140999999999963 144.79999999999927,28.432999999999993 C145.0,28.724000000000046 145.29999999999927,28.870000000000005 145.70000000000073,28.870000000000005 C145.89999999999964,28.870000000000005 146.10000000000036,28.812999999999988 146.20000000000073,28.69799999999998 C146.39999999999964,28.583999999999946 146.60000000000036,28.390999999999963 146.70000000000073,28.120000000000005 L146.89999999999964,28.182999999999993 C146.79999999999927,28.297000000000025 146.79999999999927,28.388000000000034 146.70000000000073,28.456000000000017 C146.70000000000073,28.524 146.60000000000036,28.628000000000043 146.5,28.769000000000005 C146.39999999999964,28.908999999999992 146.29999999999927,29.020999999999958 146.20000000000073,29.104000000000042 C146.10000000000036,29.187999999999988 146.0,29.265999999999963 145.79999999999927,29.339000000000055 C145.70000000000073,29.412000000000035 145.5,29.44799999999998 145.29999999999927,29.44799999999998 C144.89999999999964,29.44799999999998 144.5,29.28200000000004 144.20000000000073,28.94799999999998 C143.89999999999964,28.61500000000001 143.79999999999927,28.187999999999988 143.79999999999927,27.66700000000003 M147.5,23.964000000000055 C147.60000000000036,24.047000000000025 147.79999999999927,24.149 147.89999999999964,24.269000000000005 C148.0,24.388000000000034 148.20000000000073,24.55499999999995 148.39999999999964,24.769000000000005 C148.60000000000036,24.98199999999997 148.79999999999927,25.211000000000013 148.89999999999964,25.456000000000017 C149.10000000000036,25.701000000000022 149.20000000000073,25.991999999999962 149.29999999999927,26.331000000000017 C149.39999999999964,26.66999999999996 149.39999999999964,27.025999999999954 149.39999999999964,27.400999999999954 C149.39999999999964,27.775999999999954 149.39999999999964,28.135999999999967 149.29999999999927,28.479000000000042 C149.20000000000073,28.82299999999998 149.10000000000036,29.110000000000014 148.89999999999964,29.339000000000055 C148.79999999999927,29.567999999999984 148.60000000000036,29.787000000000035 148.39999999999964,29.995000000000005 C148.20000000000073,30.202999999999975 148.0,30.360000000000014 147.89999999999964,30.464000000000055 C147.79999999999927,30.567999999999984 147.60000000000036,30.67700000000002 147.5,30.79200000000003 L147.39999999999964,30.650999999999954 C147.60000000000036,30.464000000000055 147.79999999999927,30.29200000000003 148.0,30.135999999999967 C148.10000000000036,29.979000000000042 148.20000000000073,29.778999999999996 148.39999999999964,29.533999999999992 C148.5,29.288999999999987 148.60000000000036,28.995000000000005 148.60000000000036,28.650999999999954 C148.70000000000073,28.307999999999993 148.70000000000073,27.895999999999958 148.70000000000073,27.41700000000003 C148.70000000000073,26.92700000000002 148.70000000000073,26.503000000000043 148.60000000000036,26.144000000000005 C148.60000000000036,25.783999999999992 148.5,25.476999999999975 148.39999999999964,25.22199999999998 C148.20000000000073,24.966000000000008 148.10000000000036,24.760999999999967 148.0,24.604000000000042 C147.79999999999927,24.44799999999998 147.60000000000036,24.275999999999954 147.39999999999964,24.089000000000055 L147.5,23.964000000000055 M153.20000000000073,24.635999999999967 C153.10000000000036,24.635999999999967 153.0,24.692999999999984 152.70000000000073,24.807999999999993 L152.70000000000073,24.69799999999998 L154.10000000000036,23.964000000000055 L154.20000000000073,23.979000000000042 L154.20000000000073,28.775999999999954 C154.20000000000073,28.974000000000046 154.20000000000073,29.101999999999975 154.29999999999927,29.158999999999992 C154.39999999999964,29.216000000000008 154.60000000000036,29.245000000000005 154.89999999999964,29.245000000000005 L154.89999999999964,29.370000000000005 L152.70000000000073,29.370000000000005 L152.70000000000073,29.245000000000005 C153.0,29.235000000000014 153.20000000000073,29.190000000000055 153.29999999999927,29.111999999999966 C153.39999999999964,29.033999999999992 153.5,28.870000000000005 153.5,28.620000000000005 L153.5,25.010999999999967 C153.5,24.760999999999967 153.39999999999964,24.635999999999967 153.20000000000073,24.635999999999967 M156.20000000000073,29.54200000000003 L156.20000000000073,29.385999999999967 C156.79999999999927,29.28200000000004 157.29999999999927,29.024 157.79999999999927,28.611999999999966 C158.20000000000073,28.201000000000022 158.5,27.66700000000003 158.60000000000036,27.010999999999967 C158.20000000000073,27.32299999999998 157.79999999999927,27.479000000000042 157.39999999999964,27.479000000000042 C157.0,27.479000000000042 156.70000000000073,27.327999999999975 156.39999999999964,27.025999999999954 C156.10000000000036,26.724000000000046 156.0,26.333999999999946 156.0,25.854000000000042 C156.0,25.312999999999988 156.20000000000073,24.860000000000014 156.5,24.495000000000005 C156.79999999999927,24.129999999999995 157.20000000000073,23.94799999999998 157.70000000000073,23.94799999999998 C158.20000000000073,23.94799999999998 158.60000000000036,24.158999999999992 159.0,24.581000000000017 C159.29999999999927,25.003000000000043 159.5,25.547000000000025 159.5,26.214000000000055 C159.5,26.432999999999993 159.39999999999964,26.653999999999996 159.39999999999964,26.878000000000043 C159.39999999999964,27.101999999999975 159.29999999999927,27.366999999999962 159.20000000000073,27.674999999999955 C159.0,27.98199999999997 158.79999999999927,28.254999999999995 158.60000000000036,28.495000000000005 C158.39999999999964,28.735000000000014 158.10000000000036,28.952999999999975 157.70000000000073,29.150999999999954 C157.29999999999927,29.349000000000046 156.79999999999927,29.479000000000042 156.20000000000073,29.54200000000003 M157.70000000000073,27.120000000000005 C157.79999999999927,27.120000000000005 158.0,27.10699999999997 158.10000000000036,27.081000000000017 C158.20000000000073,27.05499999999995 158.29999999999927,26.991999999999962 158.5,26.894000000000005 C158.60000000000036,26.79499999999996 158.70000000000073,26.672000000000025 158.70000000000073,26.525999999999954 L158.70000000000073,26.214000000000055 C158.70000000000073,24.860000000000014 158.29999999999927,24.182999999999993 157.60000000000036,24.182999999999993 C157.39999999999964,24.182999999999993 157.29999999999927,24.226999999999975 157.20000000000073,24.315000000000055 C157.10000000000036,24.403999999999996 157.0,24.520999999999958 156.89999999999964,24.66700000000003 C156.89999999999964,24.812999999999988 156.79999999999927,24.958999999999946 156.79999999999927,25.104000000000042 C156.70000000000073,25.25 156.70000000000073,25.40700000000004 156.70000000000073,25.57299999999998 C156.70000000000073,26.05200000000002 156.79999999999927,26.42999999999995 157.0,26.706000000000017 C157.20000000000073,26.98199999999997 157.39999999999964,27.120000000000005 157.70000000000073,27.120000000000005 M161.79999999999927,29.479000000000042 C161.29999999999927,29.479000000000042 160.79999999999927,29.265999999999963 160.5,28.839000000000055 C160.20000000000073,28.412000000000035 160.0,27.84400000000005 160.0,27.135999999999967 C160.0,26.91700000000003 160.0,26.692999999999984 160.10000000000036,26.464000000000055 C160.10000000000036,26.235000000000014 160.20000000000073,25.97199999999998 160.39999999999964,25.674999999999955 C160.5,25.378000000000043 160.70000000000073,25.111999999999966 160.89999999999964,24.878000000000043 C161.20000000000073,24.644000000000005 161.5,24.434999999999945 161.89999999999964,24.253000000000043 C162.29999999999927,24.071000000000026 162.79999999999927,23.952999999999975 163.29999999999927,23.900999999999954 L163.29999999999927,24.025999999999954 C162.70000000000073,24.129999999999995 162.20000000000073,24.385999999999967 161.79999999999927,24.79200000000003 C161.29999999999927,25.19799999999998 161.10000000000036,25.702999999999975 161.0,26.307999999999993 C161.20000000000073,26.162000000000035 161.39999999999964,26.067999999999984 161.5,26.025999999999954 C161.70000000000073,25.985000000000014 161.79999999999927,25.964000000000055 162.0,25.964000000000055 C162.5,25.964000000000055 162.79999999999927,26.111999999999966 163.10000000000036,26.408999999999992 C163.39999999999964,26.706000000000017 163.5,27.104000000000042 163.5,27.604000000000042 C163.5,28.15700000000004 163.39999999999964,28.60699999999997 163.0,28.956000000000017 C162.70000000000073,29.30499999999995 162.29999999999927,29.479000000000042 161.79999999999927,29.479000000000042 M161.70000000000073,26.32299999999998 C161.29999999999927,26.32299999999998 161.10000000000036,26.400999999999954 160.89999999999964,26.557999999999993 C160.79999999999927,26.714000000000055 160.70000000000073,26.94799999999998 160.70000000000073,27.260999999999967 C160.70000000000073,27.875 160.89999999999964,28.360000000000014 161.10000000000036,28.714000000000055 C161.29999999999927,29.067999999999984 161.5,29.245000000000005 161.89999999999964,29.245000000000005 C162.20000000000073,29.245000000000005 162.39999999999964,29.128000000000043 162.5,28.894000000000005 C162.70000000000073,28.658999999999992 162.79999999999927,28.32299999999998 162.79999999999927,27.885999999999967 C162.79999999999927,27.385999999999967 162.70000000000073,27.0 162.5,26.729000000000042 C162.29999999999927,26.458999999999946 162.0,26.32299999999998 161.70000000000073,26.32299999999998 M166.10000000000036,26.400999999999954 C166.5,26.754999999999995 166.89999999999964,27.05200000000002 167.10000000000036,27.29200000000003 C167.20000000000073,27.53200000000004 167.29999999999927,27.807999999999993 167.29999999999927,28.120000000000005 C167.29999999999927,28.537000000000035 167.20000000000073,28.866999999999962 166.89999999999964,29.111999999999966 C166.60000000000036,29.35699999999997 166.20000000000073,29.479000000000042 165.70000000000073,29.479000000000042 C165.29999999999927,29.479000000000042 164.89999999999964,29.35699999999997 164.60000000000036,29.111999999999966 C164.29999999999927,28.866999999999962 164.20000000000073,28.547000000000025 164.20000000000073,28.150999999999954 C164.20000000000073,27.879999999999995 164.29999999999927,27.653999999999996 164.39999999999964,27.47199999999998 C164.5,27.288999999999987 164.79999999999927,27.037000000000035 165.20000000000073,26.714000000000055 C164.79999999999927,26.339000000000055 164.5,26.062999999999988 164.39999999999964,25.885999999999967 C164.29999999999927,25.708999999999946 164.20000000000073,25.49000000000001 164.20000000000073,25.229000000000042 C164.20000000000073,24.86500000000001 164.39999999999964,24.559999999999945 164.70000000000073,24.315000000000055 C164.89999999999964,24.071000000000026 165.29999999999927,23.94799999999998 165.79999999999927,23.94799999999998 C166.20000000000073,23.94799999999998 166.5,24.05499999999995 166.70000000000073,24.269000000000005 C167.0,24.48199999999997 167.10000000000036,24.760999999999967 167.10000000000036,25.104000000000042 C167.10000000000036,25.375 167.0,25.604000000000042 166.89999999999964,25.79200000000003 C166.70000000000073,25.979000000000042 166.5,26.182999999999993 166.10000000000036,26.400999999999954 M165.39999999999964,26.870000000000005 C165.20000000000073,27.057999999999993 165.0,27.241999999999962 165.0,27.424999999999955 C164.89999999999964,27.60699999999997 164.79999999999927,27.827999999999975 164.79999999999927,28.089000000000055 C164.79999999999927,28.432999999999993 164.89999999999964,28.711000000000013 165.10000000000036,28.924999999999955 C165.29999999999927,29.138000000000034 165.5,29.245000000000005 165.79999999999927,29.245000000000005 C166.10000000000036,29.245000000000005 166.29999999999927,29.163999999999987 166.39999999999964,29.003000000000043 C166.60000000000036,28.841000000000008 166.70000000000073,28.629999999999995 166.70000000000073,28.370000000000005 C166.70000000000073,28.287000000000035 166.70000000000073,28.206000000000017 166.70000000000073,28.128000000000043 C166.60000000000036,28.049999999999955 166.60000000000036,27.985000000000014 166.60000000000036,27.932999999999993 C166.60000000000036,27.879999999999995 166.5,27.817999999999984 166.5,27.745000000000005 C166.39999999999964,27.672000000000025 166.39999999999964,27.616999999999962 166.39999999999964,27.581000000000017 C166.29999999999927,27.54499999999996 166.29999999999927,27.486999999999966 166.20000000000073,27.408999999999992 C166.10000000000036,27.331000000000017 166.0,27.275999999999954 166.0,27.245000000000005 C165.89999999999964,27.214000000000055 165.79999999999927,27.153999999999996 165.70000000000073,27.065000000000055 C165.60000000000036,26.976999999999975 165.5,26.912000000000035 165.39999999999964,26.870000000000005 M165.79999999999927,26.260999999999967 C165.79999999999927,26.25 165.89999999999964,26.22199999999998 165.89999999999964,26.174999999999955 C166.0,26.128000000000043 166.10000000000036,26.091000000000008 166.10000000000036,26.065000000000055 C166.10000000000036,26.038999999999987 166.20000000000073,26.0 166.20000000000073,25.94799999999998 C166.29999999999927,25.895999999999958 166.29999999999927,25.84400000000005 166.39999999999964,25.79200000000003 C166.39999999999964,25.74000000000001 166.39999999999964,25.67700000000002 166.5,25.604000000000042 C166.5,25.53200000000004 166.5,25.451000000000022 166.60000000000036,25.361999999999966 C166.60000000000036,25.274 166.60000000000036,25.182999999999993 166.60000000000036,25.089000000000055 C166.60000000000036,24.817999999999984 166.5,24.599000000000046 166.29999999999927,24.432999999999993 C166.20000000000073,24.265999999999963 166.0,24.182999999999993 165.70000000000073,24.182999999999993 C165.5,24.182999999999993 165.20000000000073,24.258000000000038 165.10000000000036,24.408999999999992 C164.89999999999964,24.559999999999945 164.79999999999927,24.75 164.79999999999927,24.979000000000042 C164.79999999999927,25.19799999999998 164.89999999999964,25.40700000000004 165.10000000000036,25.604000000000042 C165.20000000000073,25.80200000000002 165.5,26.020999999999958 165.79999999999927,26.260999999999967 M175.20000000000073,26.69799999999998 C175.20000000000073,26.937999999999988 175.20000000000073,27.172000000000025 175.10000000000036,27.400999999999954 C175.0,27.629999999999995 174.89999999999964,27.866999999999962 174.79999999999927,28.111999999999966 C174.70000000000073,28.35699999999997 174.5,28.567999999999984 174.29999999999927,28.745000000000005 C174.0,28.922000000000025 173.70000000000073,29.071000000000026 173.39999999999964,29.190000000000055 C173.0,29.309999999999945 172.60000000000036,29.370000000000005 172.10000000000036,29.370000000000005 L169.79999999999927,29.370000000000005 L169.79999999999927,29.214000000000055 C170.10000000000036,29.192999999999984 170.29999999999927,29.140999999999963 170.39999999999964,29.057999999999993 C170.5,28.974000000000046 170.5,28.787000000000035 170.5,28.495000000000005 L170.5,24.94799999999998 C170.5,24.65700000000004 170.5,24.47199999999998 170.39999999999964,24.394000000000005 C170.29999999999927,24.315000000000055 170.10000000000036,24.260999999999967 169.79999999999927,24.229000000000042 L169.79999999999927,24.07299999999998 L172.0,24.07299999999998 C172.5,24.07299999999998 172.89999999999964,24.128000000000043 173.29999999999927,24.236999999999966 C173.70000000000073,24.34699999999998 174.0,24.486999999999966 174.20000000000073,24.658999999999992 C174.39999999999964,24.831000000000017 174.60000000000036,25.037000000000035 174.79999999999927,25.275999999999954 C174.89999999999964,25.515999999999963 175.0,25.75 175.10000000000036,25.979000000000042 C175.20000000000073,26.208999999999946 175.20000000000073,26.44799999999998 175.20000000000073,26.69799999999998 M174.29999999999927,26.760999999999967 C174.29999999999927,26.53200000000004 174.29999999999927,26.309999999999945 174.20000000000073,26.09699999999998 C174.20000000000073,25.883000000000038 174.10000000000036,25.66999999999996 174.0,25.456000000000017 C173.89999999999964,25.241999999999962 173.70000000000073,25.059999999999945 173.5,24.908999999999992 C173.29999999999927,24.758000000000038 173.10000000000036,24.633000000000038 172.79999999999927,24.533999999999992 C172.5,24.434999999999945 172.10000000000036,24.385999999999967 171.79999999999927,24.385999999999967 C171.60000000000036,24.385999999999967 171.5,24.40700000000004 171.39999999999964,24.44799999999998 C171.39999999999964,24.49000000000001 171.29999999999927,24.57299999999998 171.29999999999927,24.69799999999998 L171.29999999999927,28.745000000000005 C171.29999999999927,28.870000000000005 171.39999999999964,28.956000000000017 171.39999999999964,29.003000000000043 C171.5,29.049999999999955 171.60000000000036,29.07299999999998 171.79999999999927,29.07299999999998 C173.5,29.07299999999998 174.29999999999927,28.30200000000002 174.29999999999927,26.760999999999967 M178.10000000000036,26.885999999999967 C178.0,26.458999999999946 177.89999999999964,26.190000000000055 177.79999999999927,26.081000000000017 C177.70000000000073,25.97199999999998 177.60000000000036,25.90700000000004 177.39999999999964,25.885999999999967 L177.39999999999964,25.775999999999954 L179.0,25.775999999999954 L179.0,25.885999999999967 C178.89999999999964,25.91700000000003 178.70000000000073,25.951000000000022 178.70000000000073,25.986999999999966 C178.60000000000036,26.024 178.60000000000036,26.089000000000055 178.60000000000036,26.182999999999993 C178.60000000000036,26.245000000000005 178.60000000000036,26.400999999999954 178.70000000000073,26.650999999999954 L179.39999999999964,28.44799999999998 L180.10000000000036,26.66700000000003 C180.20000000000073,26.44799999999998 180.20000000000073,26.270999999999958 180.20000000000073,26.135999999999967 C180.20000000000073,26.07299999999998 180.20000000000073,26.024 180.20000000000073,25.986999999999966 C180.10000000000036,25.951000000000022 180.0,25.91700000000003 179.89999999999964,25.885999999999967 L179.89999999999964,25.775999999999954 L180.89999999999964,25.775999999999954 L180.89999999999964,25.885999999999967 C180.79999999999927,25.91700000000003 180.70000000000073,25.956000000000017 180.70000000000073,26.003000000000043 C180.70000000000073,26.049999999999955 180.60000000000036,26.15700000000004 180.5,26.32299999999998 L179.39999999999964,29.089000000000055 C179.29999999999927,29.349000000000046 179.29999999999927,29.479000000000042 179.20000000000073,29.479000000000042 C179.20000000000073,29.479000000000042 179.10000000000036,29.36500000000001 179.0,29.135999999999967 L178.29999999999927,27.245000000000005 L177.39999999999964,29.16700000000003 C177.29999999999927,29.375 177.20000000000073,29.479000000000042 177.20000000000073,29.479000000000042 C177.20000000000073,29.479000000000042 177.10000000000036,29.36500000000001 177.0,29.135999999999967 L175.89999999999964,26.400999999999954 C175.79999999999927,26.192999999999984 175.79999999999927,26.057999999999993 175.70000000000073,25.995000000000005 C175.70000000000073,25.932999999999993 175.60000000000036,25.895999999999958 175.5,25.885999999999967 L175.5,25.775999999999954 L176.89999999999964,25.775999999999954 L176.89999999999964,25.885999999999967 C176.79999999999927,25.90700000000004 176.70000000000073,25.934999999999945 176.60000000000036,25.97199999999998 C176.60000000000036,26.008000000000038 176.60000000000036,26.067999999999984 176.60000000000036,26.150999999999954 C176.60000000000036,26.235000000000014 176.60000000000036,26.317999999999984 176.60000000000036,26.400999999999954 L177.39999999999964,28.479000000000042 L178.10000000000036,26.885999999999967 M181.10000000000036,28.57299999999998 C181.10000000000036,28.479000000000042 181.10000000000036,28.394000000000005 181.20000000000073,28.315000000000055 C181.20000000000073,28.236999999999966 181.20000000000073,28.162000000000035 181.29999999999927,28.089000000000055 C181.29999999999927,28.015999999999963 181.39999999999964,27.951000000000022 181.39999999999964,27.894000000000005 C181.5,27.836000000000013 181.60000000000036,27.775999999999954 181.70000000000073,27.714000000000055 C181.70000000000073,27.650999999999954 181.79999999999927,27.599000000000046 181.89999999999964,27.557999999999993 C182.0,27.515999999999963 182.0,27.46900000000005 182.20000000000073,27.41700000000003 C182.29999999999927,27.36500000000001 182.39999999999964,27.32299999999998 182.5,27.29200000000003 C182.5,27.260999999999967 182.60000000000036,27.216000000000008 182.79999999999927,27.158999999999992 C182.89999999999964,27.101999999999975 183.0,27.057999999999993 183.10000000000036,27.025999999999954 L183.10000000000036,26.54200000000003 C183.10000000000036,26.104000000000042 182.89999999999964,25.885999999999967 182.5,25.885999999999967 C182.29999999999927,25.885999999999967 182.20000000000073,25.924999999999955 182.10000000000036,26.003000000000043 C182.0,26.081000000000017 181.89999999999964,26.172000000000025 181.89999999999964,26.275999999999954 C181.89999999999964,26.317999999999984 181.89999999999964,26.375 182.0,26.44799999999998 C182.0,26.520999999999958 182.0,26.567999999999984 182.0,26.589000000000055 C182.0,26.682999999999993 181.89999999999964,26.763000000000034 181.89999999999964,26.831000000000017 C181.79999999999927,26.899 181.70000000000073,26.932999999999993 181.60000000000036,26.932999999999993 C181.5,26.932999999999993 181.39999999999964,26.899 181.39999999999964,26.831000000000017 C181.29999999999927,26.763000000000034 181.29999999999927,26.682999999999993 181.29999999999927,26.589000000000055 C181.29999999999927,26.339000000000055 181.39999999999964,26.128000000000043 181.70000000000073,25.956000000000017 C181.89999999999964,25.783999999999992 182.20000000000073,25.69799999999998 182.60000000000036,25.69799999999998 C183.0,25.69799999999998 183.29999999999927,25.80200000000002 183.5,26.010999999999967 C183.70000000000073,26.21900000000005 183.70000000000073,26.537000000000035 183.70000000000073,26.964000000000055 L183.70000000000073,28.510999999999967 C183.70000000000073,28.687999999999988 183.79999999999927,28.809999999999945 183.79999999999927,28.878000000000043 C183.79999999999927,28.946000000000026 183.89999999999964,28.979000000000042 184.0,28.979000000000042 C184.10000000000036,28.979000000000042 184.20000000000073,28.92700000000002 184.29999999999927,28.82299999999998 L184.29999999999927,29.04200000000003 C184.20000000000073,29.19799999999998 184.10000000000036,29.30499999999995 184.0,29.361999999999966 C183.89999999999964,29.41999999999996 183.70000000000073,29.44799999999998 183.60000000000036,29.44799999999998 C183.5,29.44799999999998 183.29999999999927,29.400999999999954 183.29999999999927,29.307999999999993 C183.20000000000073,29.214000000000055 183.10000000000036,29.062999999999988 183.10000000000036,28.854000000000042 C182.70000000000073,29.25 182.29999999999927,29.44799999999998 182.0,29.44799999999998 C181.70000000000073,29.44799999999998 181.5,29.366999999999962 181.39999999999964,29.206000000000017 C181.20000000000073,29.04499999999996 181.10000000000036,28.833999999999946 181.10000000000036,28.57299999999998 M183.10000000000036,28.370000000000005 L183.10000000000036,27.214000000000055 C182.60000000000036,27.390999999999963 182.29999999999927,27.562999999999988 182.10000000000036,27.729000000000042 C181.89999999999964,27.895999999999958 181.79999999999927,28.09400000000005 181.79999999999927,28.32299999999998 C181.79999999999927,28.54200000000003 181.89999999999964,28.702999999999975 182.0,28.807999999999993 C182.10000000000036,28.912000000000035 182.20000000000073,28.964000000000055 182.29999999999927,28.964000000000055 C182.5,28.964000000000055 182.70000000000073,28.90700000000004 182.89999999999964,28.79200000000003 C183.0,28.74000000000001 183.0,28.687999999999988 183.10000000000036,28.635999999999967 C183.10000000000036,28.583999999999946 183.10000000000036,28.495000000000005 183.10000000000036,28.370000000000005 M186.79999999999927,26.44799999999998 C186.70000000000073,26.44799999999998 186.60000000000036,26.400999999999954 186.5,26.307999999999993 C186.39999999999964,26.214000000000055 186.29999999999927,26.16700000000003 186.29999999999927,26.16700000000003 C186.20000000000073,26.16700000000003 186.0,26.245000000000005 185.89999999999964,26.400999999999954 C185.79999999999927,26.557999999999993 185.70000000000073,26.702999999999975 185.70000000000073,26.839000000000055 L185.70000000000073,28.650999999999954 C185.70000000000073,28.879999999999995 185.70000000000073,29.033999999999992 185.79999999999927,29.111999999999966 C185.89999999999964,29.190000000000055 186.10000000000036,29.235000000000014 186.39999999999964,29.245000000000005 L186.39999999999964,29.370000000000005 L184.5,29.370000000000005 L184.5,29.245000000000005 C184.70000000000073,29.202999999999975 184.89999999999964,29.150999999999954 184.89999999999964,29.089000000000055 C185.0,29.025999999999954 185.0,28.895999999999958 185.0,28.69799999999998 L185.0,26.682999999999993 C185.0,26.504999999999995 185.0,26.379999999999995 185.0,26.307999999999993 C184.89999999999964,26.235000000000014 184.89999999999964,26.19799999999998 184.70000000000073,26.19799999999998 C184.70000000000073,26.19799999999998 184.60000000000036,26.208999999999946 184.5,26.229000000000042 L184.5,26.104000000000042 C184.89999999999964,25.96900000000005 185.29999999999927,25.833999999999946 185.70000000000073,25.69799999999998 L185.70000000000073,25.714000000000055 L185.70000000000073,26.41700000000003 C185.89999999999964,26.145999999999958 186.10000000000036,25.958999999999946 186.20000000000073,25.854000000000042 C186.29999999999927,25.75 186.5,25.69799999999998 186.70000000000073,25.69799999999998 C186.79999999999927,25.69799999999998 186.89999999999964,25.73199999999997 187.0,25.799999999999955 C187.10000000000036,25.866999999999962 187.10000000000036,25.96900000000005 187.10000000000036,26.104000000000042 C187.10000000000036,26.208999999999946 187.10000000000036,26.29200000000003 187.0,26.354000000000042 C187.0,26.41700000000003 186.89999999999964,26.44799999999998 186.79999999999927,26.44799999999998 M189.79999999999927,24.729000000000042 C189.70000000000073,24.729000000000042 189.60000000000036,24.69799999999998 189.60000000000036,24.635999999999967 C189.5,24.57299999999998 189.39999999999964,24.504999999999995 189.39999999999964,24.432999999999993 C189.39999999999964,24.360000000000014 189.29999999999927,24.29200000000003 189.20000000000073,24.229000000000042 C189.20000000000073,24.16700000000003 189.10000000000036,24.135999999999967 189.0,24.135999999999967 C188.70000000000073,24.135999999999967 188.5,24.370000000000005 188.5,24.839000000000055 L188.5,25.775999999999954 L189.5,25.775999999999954 L189.5,26.010999999999967 L188.5,26.010999999999967 L188.5,28.54200000000003 C188.5,28.833999999999946 188.60000000000036,29.020999999999958 188.70000000000073,29.104000000000042 C188.79999999999927,29.187999999999988 189.0,29.235000000000014 189.29999999999927,29.245000000000005 L189.29999999999927,29.370000000000005 L187.20000000000073,29.370000000000005 L187.20000000000073,29.245000000000005 C187.5,29.235000000000014 187.70000000000073,29.187999999999988 187.79999999999927,29.104000000000042 C187.79999999999927,29.020999999999958 187.89999999999964,28.833999999999946 187.89999999999964,28.54200000000003 L187.89999999999964,26.010999999999967 L187.20000000000073,26.010999999999967 L187.20000000000073,25.775999999999954 L187.89999999999964,25.775999999999954 C187.89999999999964,25.172000000000025 188.0,24.706000000000017 188.20000000000073,24.378000000000043 C188.39999999999964,24.049999999999955 188.79999999999927,23.885999999999967 189.29999999999927,23.885999999999967 C189.5,23.885999999999967 189.70000000000073,23.934999999999945 189.89999999999964,24.033999999999992 C190.0,24.133000000000038 190.10000000000036,24.254999999999995 190.10000000000036,24.400999999999954 C190.10000000000036,24.495000000000005 190.10000000000036,24.57299999999998 190.0,24.635999999999967 C190.0,24.69799999999998 189.89999999999964,24.729000000000042 189.79999999999927,24.729000000000042 M197.5,24.79200000000003 L195.39999999999964,29.370000000000005 L195.29999999999927,29.370000000000005 L193.29999999999927,24.979000000000042 L193.29999999999927,28.19799999999998 C193.29999999999927,28.604000000000042 193.39999999999964,28.873000000000047 193.5,29.003000000000043 C193.60000000000036,29.133000000000038 193.79999999999927,29.202999999999975 194.10000000000036,29.214000000000055 L194.10000000000036,29.370000000000005 L192.20000000000073,29.370000000000005 L192.20000000000073,29.214000000000055 C192.5,29.192999999999984 192.70000000000073,29.120000000000005 192.79999999999927,28.995000000000005 C192.89999999999964,28.870000000000005 193.0,28.604000000000042 193.0,28.19799999999998 L193.0,24.94799999999998 C193.0,24.65700000000004 192.89999999999964,24.46900000000005 192.79999999999927,24.385999999999967 C192.70000000000073,24.30200000000002 192.5,24.25 192.20000000000073,24.229000000000042 L192.20000000000073,24.07299999999998 L193.79999999999927,24.07299999999998 L195.60000000000036,28.120000000000005 L197.39999999999964,24.07299999999998 L199.0,24.07299999999998 L199.0,24.229000000000042 C198.70000000000073,24.260999999999967 198.5,24.317999999999984 198.39999999999964,24.400999999999954 C198.29999999999927,24.485000000000014 198.29999999999927,24.66700000000003 198.29999999999927,24.94799999999998 L198.29999999999927,28.495000000000005 C198.29999999999927,28.775999999999954 198.39999999999964,28.961000000000013 198.39999999999964,29.049999999999955 C198.5,29.138000000000034 198.70000000000073,29.192999999999984 199.0,29.214000000000055 L199.0,29.370000000000005 L196.79999999999927,29.370000000000005 L196.79999999999927,29.214000000000055 C197.10000000000036,29.192999999999984 197.29999999999927,29.135999999999967 197.39999999999964,29.04200000000003 C197.39999999999964,28.94799999999998 197.5,28.74000000000001 197.5,28.41700000000003 L197.5,24.79200000000003 M203.0,28.94799999999998 L203.0,29.07299999999998 C202.5,29.187999999999988 202.20000000000073,29.312999999999988 201.89999999999964,29.44799999999998 L201.79999999999927,29.432999999999993 L201.79999999999927,28.745000000000005 C201.79999999999927,28.765999999999963 201.79999999999927,28.815000000000055 201.70000000000073,28.894000000000005 C201.60000000000036,28.97199999999998 201.60000000000036,29.025999999999954 201.5,29.057999999999993 C201.5,29.089000000000055 201.39999999999964,29.135999999999967 201.39999999999964,29.19799999999998 C201.29999999999927,29.260999999999967 201.20000000000073,29.30499999999995 201.20000000000073,29.331000000000017 C201.10000000000036,29.35699999999997 201.0,29.383000000000038 200.89999999999964,29.408999999999992 C200.89999999999964,29.434999999999945 200.79999999999927,29.44799999999998 200.70000000000073,29.44799999999998 C200.39999999999964,29.44799999999998 200.10000000000036,29.351999999999975 200.0,29.158999999999992 C199.79999999999927,28.966000000000008 199.70000000000073,28.714000000000055 199.70000000000073,28.400999999999954 L199.70000000000073,26.385999999999967 C199.70000000000073,26.208999999999946 199.70000000000073,26.083999999999946 199.60000000000036,26.010999999999967 C199.5,25.937999999999988 199.39999999999964,25.895999999999958 199.20000000000073,25.885999999999967 L199.20000000000073,25.775999999999954 L200.39999999999964,25.775999999999954 L200.39999999999964,28.370000000000005 C200.39999999999964,28.525999999999954 200.39999999999964,28.663999999999987 200.5,28.783999999999992 C200.70000000000073,28.903999999999996 200.79999999999927,28.964000000000055 200.89999999999964,28.964000000000055 C201.0,28.964000000000055 201.10000000000036,28.956000000000017 201.10000000000036,28.940000000000055 C201.20000000000073,28.924999999999955 201.29999999999927,28.895999999999958 201.39999999999964,28.854000000000042 C201.5,28.812999999999988 201.60000000000036,28.741999999999962 201.70000000000073,28.644000000000005 C201.79999999999927,28.54499999999996 201.79999999999927,28.422000000000025 201.79999999999927,28.275999999999954 L201.79999999999927,26.400999999999954 C201.79999999999927,26.214000000000055 201.79999999999927,26.086000000000013 201.70000000000073,26.019000000000005 C201.60000000000036,25.951000000000022 201.5,25.912000000000035 201.20000000000073,25.900999999999954 L201.20000000000073,25.775999999999954 L202.5,25.775999999999954 L202.5,28.495000000000005 C202.5,28.682999999999993 202.5,28.80499999999995 202.60000000000036,28.861999999999966 C202.60000000000036,28.91999999999996 202.70000000000073,28.94799999999998 202.89999999999964,28.94799999999998 L203.0,28.94799999999998 M205.20000000000073,25.854000000000042 C205.20000000000073,25.854000000000042 205.20000000000073,25.827999999999975 205.29999999999927,25.775999999999954 L205.39999999999964,25.775999999999954 L205.39999999999964,26.854000000000042 L205.29999999999927,26.854000000000042 C205.20000000000073,26.5 205.10000000000036,26.248000000000047 205.0,26.09699999999998 C204.79999999999927,25.946000000000026 204.60000000000036,25.870000000000005 204.39999999999964,25.870000000000005 C204.20000000000073,25.870000000000005 204.10000000000036,25.922000000000025 204.0,26.025999999999954 C203.89999999999964,26.129999999999995 203.79999999999927,26.260999999999967 203.79999999999927,26.41700000000003 C203.79999999999927,26.645999999999958 203.89999999999964,26.827999999999975 204.20000000000073,26.964000000000055 L205.0,27.479000000000042 C205.29999999999927,27.625 205.39999999999964,27.770999999999958 205.5,27.91700000000003 C205.60000000000036,28.062999999999988 205.70000000000073,28.235000000000014 205.70000000000073,28.432999999999993 C205.70000000000073,28.702999999999975 205.60000000000036,28.940000000000055 205.29999999999927,29.144000000000005 C205.10000000000036,29.34699999999998 204.89999999999964,29.44799999999998 204.60000000000036,29.44799999999998 C204.39999999999964,29.44799999999998 204.20000000000073,29.424999999999955 204.0,29.378000000000043 C203.79999999999927,29.331000000000017 203.70000000000073,29.307999999999993 203.60000000000036,29.307999999999993 C203.5,29.307999999999993 203.5,29.339000000000055 203.39999999999964,29.400999999999954 L203.29999999999927,29.400999999999954 L203.29999999999927,28.150999999999954 L203.5,28.150999999999954 C203.5,28.525999999999954 203.60000000000036,28.79200000000003 203.70000000000073,28.94799999999998 C203.89999999999964,29.16700000000003 204.20000000000073,29.275999999999954 204.5,29.275999999999954 C204.70000000000073,29.275999999999954 204.79999999999927,29.224000000000046 204.89999999999964,29.120000000000005 C205.10000000000036,29.015999999999963 205.10000000000036,28.875 205.10000000000036,28.69799999999998 C205.10000000000036,28.458999999999946 205.0,28.260999999999967 204.70000000000073,28.104000000000042 L204.20000000000073,27.839000000000055 C203.89999999999964,27.640999999999963 203.70000000000073,27.456000000000017 203.5,27.283999999999992 C203.39999999999964,27.111999999999966 203.29999999999927,26.912000000000035 203.29999999999927,26.682999999999993 C203.29999999999927,26.390999999999963 203.39999999999964,26.153999999999996 203.60000000000036,25.97199999999998 C203.79999999999927,25.788999999999987 204.10000000000036,25.69799999999998 204.39999999999964,25.69799999999998 C204.60000000000036,25.69799999999998 204.70000000000073,25.724000000000046 204.89999999999964,25.775999999999954 C205.0,25.827999999999975 205.10000000000036,25.854000000000042 205.20000000000073,25.854000000000042 M206.5,26.229000000000042 C206.29999999999927,26.229000000000042 206.20000000000073,26.235000000000014 206.10000000000036,26.245000000000005 L206.10000000000036,26.135999999999967 C206.5,26.03200000000004 206.89999999999964,25.885999999999967 207.39999999999964,25.69799999999998 L207.39999999999964,25.714000000000055 L207.39999999999964,28.557999999999993 C207.39999999999964,28.839000000000055 207.39999999999964,29.019000000000005 207.5,29.09699999999998 C207.60000000000036,29.174999999999955 207.70000000000073,29.224000000000046 208.0,29.245000000000005 L208.0,29.370000000000005 L206.10000000000036,29.370000000000005 L206.10000000000036,29.245000000000005 C206.39999999999964,29.235000000000014 206.5,29.187999999999988 206.60000000000036,29.104000000000042 C206.70000000000073,29.020999999999958 206.70000000000073,28.839000000000055 206.70000000000073,28.557999999999993 L206.70000000000073,26.69799999999998 C206.70000000000073,26.520999999999958 206.70000000000073,26.399 206.70000000000073,26.331000000000017 C206.60000000000036,26.263000000000034 206.5,26.229000000000042 206.5,26.229000000000042 M207.0,23.900999999999954 C207.10000000000036,23.900999999999954 207.20000000000073,23.942999999999984 207.29999999999927,24.025999999999954 C207.39999999999964,24.110000000000014 207.39999999999964,24.208999999999946 207.39999999999964,24.32299999999998 C207.39999999999964,24.437999999999988 207.39999999999964,24.533999999999992 207.29999999999927,24.611999999999966 C207.20000000000073,24.690000000000055 207.10000000000036,24.729000000000042 207.0,24.729000000000042 C206.89999999999964,24.729000000000042 206.79999999999927,24.687999999999988 206.70000000000073,24.604000000000042 C206.60000000000036,24.520999999999958 206.60000000000036,24.424999999999955 206.60000000000036,24.315000000000055 C206.60000000000036,24.206000000000017 206.60000000000036,24.110000000000014 206.70000000000073,24.025999999999954 C206.79999999999927,23.942999999999984 206.89999999999964,23.900999999999954 207.0,23.900999999999954 M208.39999999999964,27.66700000000003 C208.39999999999964,27.07299999999998 208.5,26.59699999999998 208.89999999999964,26.236999999999966 C209.20000000000073,25.878000000000043 209.70000000000073,25.69799999999998 210.10000000000036,25.69799999999998 C210.5,25.69799999999998 210.70000000000073,25.778999999999996 211.0,25.940000000000055 C211.20000000000073,26.101999999999975 211.29999999999927,26.297000000000025 211.29999999999927,26.525999999999954 C211.29999999999927,26.610000000000014 211.29999999999927,26.684999999999945 211.20000000000073,26.753000000000043 C211.10000000000036,26.821000000000026 211.10000000000036,26.854000000000042 211.0,26.854000000000042 C210.79999999999927,26.854000000000042 210.70000000000073,26.735000000000014 210.60000000000036,26.495000000000005 L210.5,26.32299999999998 C210.5,26.16700000000003 210.5,26.062999999999988 210.39999999999964,26.010999999999967 C210.29999999999927,25.958999999999946 210.20000000000073,25.932999999999993 210.10000000000036,25.932999999999993 C209.79999999999927,25.932999999999993 209.5,26.059999999999945 209.29999999999927,26.315000000000055 C209.10000000000036,26.571000000000026 209.0,26.90700000000004 209.0,27.32299999999998 C209.0,27.770999999999958 209.10000000000036,28.140999999999963 209.29999999999927,28.432999999999993 C209.60000000000036,28.724000000000046 209.89999999999964,28.870000000000005 210.20000000000073,28.870000000000005 C210.5,28.870000000000005 210.60000000000036,28.812999999999988 210.79999999999927,28.69799999999998 C211.0,28.583999999999946 211.10000000000036,28.390999999999963 211.29999999999927,28.120000000000005 L211.39999999999964,28.182999999999993 C211.39999999999964,28.297000000000025 211.29999999999927,28.388000000000034 211.29999999999927,28.456000000000017 C211.29999999999927,28.524 211.20000000000073,28.628000000000043 211.10000000000036,28.769000000000005 C211.0,28.908999999999992 210.89999999999964,29.020999999999958 210.79999999999927,29.104000000000042 C210.70000000000073,29.187999999999988 210.60000000000036,29.265999999999963 210.39999999999964,29.339000000000055 C210.20000000000073,29.412000000000035 210.10000000000036,29.44799999999998 209.89999999999964,29.44799999999998 C209.5,29.44799999999998 209.10000000000036,29.28200000000004 208.79999999999927,28.94799999999998 C208.5,28.61500000000001 208.39999999999964,28.187999999999988 208.39999999999964,27.66700000000003 M212.70000000000073,28.57299999999998 C212.79999999999927,28.57299999999998 212.89999999999964,28.616999999999962 213.0,28.706000000000017 C213.10000000000036,28.79499999999996 213.20000000000073,28.900999999999954 213.20000000000073,29.025999999999954 C213.20000000000073,29.140999999999963 213.10000000000036,29.241999999999962 213.0,29.331000000000017 C212.89999999999964,29.41999999999996 212.79999999999927,29.464000000000055 212.70000000000073,29.464000000000055 C212.60000000000036,29.464000000000055 212.5,29.41999999999996 212.39999999999964,29.331000000000017 C212.29999999999927,29.241999999999962 212.29999999999927,29.140999999999963 212.29999999999927,29.025999999999954 C212.29999999999927,28.900999999999954 212.29999999999927,28.79499999999996 212.39999999999964,28.706000000000017 C212.5,28.616999999999962 212.60000000000036,28.57299999999998 212.70000000000073,28.57299999999998" />
</svg>
