<?xml version="1.0" encoding="UTF-8" standalone="yes"?>
<svg width="256.0px" height="256.0px" xmlns="http://www.w3.org/2000/svg" xmlns:xlink="http://www.w3.org/1999/xlink" version="1.2" baseProfile="tiny">
<path d="M137.10000000000036,30.79200000000003 C137.0,30.69799999999998 136.79999999999927,30.591000000000008 136.70000000000073,30.47199999999998 C136.5,30.351999999999975 136.29999999999927,30.184999999999945 136.20000000000073,29.97199999999998 C136.0,29.758000000000038 135.79999999999927,29.53200000000004 135.70000000000073,29.29200000000003 C135.5,29.05200000000002 135.39999999999964,28.760999999999967 135.29999999999927,28.41700000000003 C135.20000000000073,28.07299999999998 135.20000000000073,27.71900000000005 135.20000000000073,27.354000000000042 C135.20000000000073,26.96900000000005 135.20000000000073,26.604000000000042 135.29999999999927,26.260999999999967 C135.39999999999964,25.91700000000003 135.5,25.633000000000038 135.60000000000036,25.408999999999992 C135.79999999999927,25.184999999999945 135.89999999999964,24.966000000000008 136.10000000000036,24.753000000000043 C136.29999999999927,24.538999999999987 136.5,24.383000000000038 136.70000000000073,24.283999999999992 C136.79999999999927,24.184999999999945 136.89999999999964,24.077999999999975 137.10000000000036,23.964000000000055 L137.20000000000073,24.089000000000055 C137.0,24.287000000000035 136.79999999999927,24.461000000000013 136.60000000000036,24.611999999999966 C136.5,24.763000000000034 136.29999999999927,24.964000000000055 136.20000000000073,25.214000000000055 C136.10000000000036,25.464000000000055 136.0,25.760999999999967 135.89999999999964,26.104000000000042 C135.89999999999964,26.44799999999998 135.79999999999927,26.860000000000014 135.79999999999927,27.339000000000055 C135.79999999999927,27.827999999999975 135.89999999999964,28.253000000000043 135.89999999999964,28.611999999999966 C136.0,28.97199999999998 136.10000000000036,29.275999999999954 136.20000000000073,29.525999999999954 C136.29999999999927,29.775999999999954 136.5,29.98199999999997 136.60000000000036,30.144000000000005 C136.79999999999927,30.30499999999995 137.0,30.474000000000046 137.20000000000073,30.650999999999954 L137.10000000000036,30.79200000000003 M137.60000000000036,27.66700000000003 C137.60000000000036,27.07299999999998 137.79999999999927,26.59699999999998 138.10000000000036,26.236999999999966 C138.5,25.878000000000043 138.89999999999964,25.69799999999998 139.39999999999964,25.69799999999998 C139.70000000000073,25.69799999999998 140.0,25.778999999999996 140.20000000000073,25.940000000000055 C140.5,26.101999999999975 140.60000000000036,26.297000000000025 140.60000000000036,26.525999999999954 C140.60000000000036,26.610000000000014 140.5,26.684999999999945 140.5,26.753000000000043 C140.39999999999964,26.821000000000026 140.29999999999927,26.854000000000042 140.20000000000073,26.854000000000042 C140.0,26.854000000000042 139.89999999999964,26.735000000000014 139.79999999999927,26.495000000000005 L139.79999999999927,26.32299999999998 C139.79999999999927,26.16700000000003 139.70000000000073,26.062999999999988 139.60000000000036,26.010999999999967 C139.60000000000036,25.958999999999946 139.5,25.932999999999993 139.29999999999927,25.932999999999993 C139.0,25.932999999999993 138.70000000000073,26.059999999999945 138.5,26.315000000000055 C138.29999999999927,26.571000000000026 138.20000000000073,26.90700000000004 138.20000000000073,27.32299999999998 C138.20000000000073,27.770999999999958 138.39999999999964,28.140999999999963 138.60000000000036,28.432999999999993 C138.79999999999927,28.724000000000046 139.10000000000036,28.870000000000005 139.5,28.870000000000005 C139.70000000000073,28.870000000000005 139.89999999999964,28.812999999999988 140.10000000000036,28.69799999999998 C140.20000000000073,28.583999999999946 140.39999999999964,28.390999999999963 140.60000000000036,28.120000000000005 L140.70000000000073,28.182999999999993 C140.60000000000036,28.297000000000025 140.60000000000036,28.388000000000034 140.60000000000036,28.456000000000017 C140.5,28.524 140.39999999999964,28.628000000000043 140.29999999999927,28.769000000000005 C140.20000000000073,28.908999999999992 140.10000000000036,29.020999999999958 140.0,29.104000000000042 C139.89999999999964,29.187999999999988 139.79999999999927,29.265999999999963 139.60000000000036,29.339000000000055 C139.5,29.412000000000035 139.29999999999927,29.44799999999998 139.10000000000036,29.44799999999998 C138.70000000000073,29.44799999999998 138.29999999999927,29.28200000000004 138.10000000000036,28.94799999999998 C137.79999999999927,28.61500000000001 137.60000000000036,28.187999999999988 137.60000000000036,27.66700000000003 M141.29999999999927,23.964000000000055 C141.39999999999964,24.047000000000025 141.60000000000036,24.149 141.70000000000073,24.269000000000005 C141.89999999999964,24.388000000000034 142.0,24.55499999999995 142.20000000000073,24.769000000000005 C142.39999999999964,24.98199999999997 142.60000000000036,25.211000000000013 142.70000000000073,25.456000000000017 C142.89999999999964,25.701000000000022 143.0,25.991999999999962 143.10000000000036,26.331000000000017 C143.20000000000073,26.66999999999996 143.20000000000073,27.025999999999954 143.20000000000073,27.400999999999954 C143.20000000000073,27.775999999999954 143.20000000000073,28.135999999999967 143.10000000000036,28.479000000000042 C143.0,28.82299999999998 142.89999999999964,29.110000000000014 142.79999999999927,29.339000000000055 C142.60000000000036,29.567999999999984 142.5,29.787000000000035 142.20000000000073,29.995000000000005 C142.0,30.202999999999975 141.89999999999964,30.360000000000014 141.70000000000073,30.464000000000055 C141.60000000000036,30.567999999999984 141.5,30.67700000000002 141.29999999999927,30.79200000000003 L141.20000000000073,30.650999999999954 C141.39999999999964,30.464000000000055 141.60000000000036,30.29200000000003 141.79999999999927,30.135999999999967 C141.89999999999964,29.979000000000042 142.10000000000036,29.778999999999996 142.20000000000073,29.533999999999992 C142.29999999999927,29.288999999999987 142.39999999999964,28.995000000000005 142.5,28.650999999999954 C142.5,28.307999999999993 142.60000000000036,27.895999999999958 142.60000000000036,27.41700000000003 C142.60000000000036,26.92700000000002 142.5,26.503000000000043 142.5,26.144000000000005 C142.39999999999964,25.783999999999992 142.29999999999927,25.476999999999975 142.20000000000073,25.22199999999998 C142.10000000000036,24.966000000000008 141.89999999999964,24.760999999999967 141.79999999999927,24.604000000000042 C141.60000000000036,24.44799999999998 141.39999999999964,24.275999999999954 141.20000000000073,24.089000000000055 L141.29999999999927,23.964000000000055 M147.10000000000036,24.635999999999967 C147.0,24.635999999999967 146.79999999999927,24.692999999999984 146.5,24.807999999999993 L146.5,24.69799999999998 L147.89999999999964,23.964000000000055 L148.0,23.979000000000042 L148.0,28.775999999999954 C148.0,28.974000000000046 148.0,29.101999999999975 148.10000000000036,29.158999999999992 C148.20000000000073,29.216000000000008 148.39999999999964,29.245000000000005 148.70000000000073,29.245000000000005 L148.70000000000073,29.370000000000005 L146.5,29.370000000000005 L146.5,29.245000000000005 C146.79999999999927,29.235000000000014 147.0,29.190000000000055 147.20000000000073,29.111999999999966 C147.29999999999927,29.033999999999992 147.29999999999927,28.870000000000005 147.29999999999927,28.620000000000005 L147.29999999999927,25.010999999999967 C147.29999999999927,24.760999999999967 147.20000000000073,24.635999999999967 147.10000000000036,24.635999999999967 M150.10000000000036,29.54200000000003 L150.0,29.385999999999967 C150.60000000000036,29.28200000000004 151.20000000000073,29.024 151.60000000000036,28.611999999999966 C152.0,28.201000000000022 152.29999999999927,27.66700000000003 152.5,27.010999999999967 C152.10000000000036,27.32299999999998 151.70000000000073,27.479000000000042 151.29999999999927,27.479000000000042 C150.79999999999927,27.479000000000042 150.5,27.327999999999975 150.20000000000073,27.025999999999954 C150.0,26.724000000000046 149.79999999999927,26.333999999999946 149.79999999999927,25.854000000000042 C149.79999999999927,25.312999999999988 150.0,24.860000000000014 150.29999999999927,24.495000000000005 C150.60000000000036,24.129999999999995 151.0,23.94799999999998 151.5,23.94799999999998 C152.0,23.94799999999998 152.5,24.158999999999992 152.79999999999927,24.581000000000017 C153.10000000000036,25.003000000000043 153.29999999999927,25.547000000000025 153.29999999999927,26.214000000000055 C153.29999999999927,26.432999999999993 153.29999999999927,26.653999999999996 153.20000000000073,26.878000000000043 C153.20000000000073,27.101999999999975 153.10000000000036,27.366999999999962 153.0,27.674999999999955 C152.79999999999927,27.98199999999997 152.70000000000073,28.254999999999995 152.39999999999964,28.495000000000005 C152.20000000000073,28.735000000000014 151.89999999999964,28.952999999999975 151.5,29.150999999999954 C151.10000000000036,29.349000000000046 150.60000000000036,29.479000000000042 150.10000000000036,29.54200000000003 M151.60000000000036,27.120000000000005 C151.70000000000073,27.120000000000005 151.79999999999927,27.10699999999997 151.89999999999964,27.081000000000017 C152.0,27.05499999999995 152.20000000000073,26.991999999999962 152.29999999999927,26.894000000000005 C152.39999999999964,26.79499999999996 152.5,26.672000000000025 152.5,26.525999999999954 L152.5,26.214000000000055 C152.5,24.860000000000014 152.10000000000036,24.182999999999993 151.39999999999964,24.182999999999993 C151.29999999999927,24.182999999999993 151.10000000000036,24.226999999999975 151.0,24.315000000000055 C150.89999999999964,24.403999999999996 150.79999999999927,24.520999999999958 150.70000000000073,24.66700000000003 C150.70000000000073,24.812999999999988 150.60000000000036,24.958999999999946 150.60000000000036,25.104000000000042 C150.60000000000036,25.25 150.60000000000036,25.40700000000004 150.60000000000036,25.57299999999998 C150.60000000000036,26.05200000000002 150.60000000000036,26.42999999999995 150.79999999999927,26.706000000000017 C151.0,26.98199999999997 151.29999999999927,27.120000000000005 151.60000000000036,27.120000000000005 M155.60000000000036,29.479000000000042 C155.10000000000036,29.479000000000042 154.70000000000073,29.265999999999963 154.29999999999927,28.839000000000055 C154.0,28.412000000000035 153.79999999999927,27.84400000000005 153.79999999999927,27.135999999999967 C153.79999999999927,26.91700000000003 153.89999999999964,26.692999999999984 153.89999999999964,26.464000000000055 C154.0,26.235000000000014 154.10000000000036,25.97199999999998 154.20000000000073,25.674999999999955 C154.29999999999927,25.378000000000043 154.5,25.111999999999966 154.79999999999927,24.878000000000043 C155.0,24.644000000000005 155.29999999999927,24.434999999999945 155.70000000000073,24.253000000000043 C156.10000000000036,24.071000000000026 156.60000000000036,23.952999999999975 157.20000000000073,23.900999999999954 L157.20000000000073,24.025999999999954 C156.5,24.129999999999995 156.0,24.385999999999967 155.60000000000036,24.79200000000003 C155.20000000000073,25.19799999999998 154.89999999999964,25.702999999999975 154.79999999999927,26.307999999999993 C155.0,26.162000000000035 155.20000000000073,26.067999999999984 155.29999999999927,26.025999999999954 C155.5,25.985000000000014 155.60000000000036,25.964000000000055 155.79999999999927,25.964000000000055 C156.29999999999927,25.964000000000055 156.60000000000036,26.111999999999966 156.89999999999964,26.408999999999992 C157.20000000000073,26.706000000000017 157.29999999999927,27.104000000000042 157.29999999999927,27.604000000000042 C157.29999999999927,28.15700000000004 157.20000000000073,28.60699999999997 156.89999999999964,28.956000000000017 C156.5,29.30499999999995 156.10000000000036,29.479000000000042 155.60000000000036,29.479000000000042 M155.5,26.32299999999998 C155.10000000000036,26.32299999999998 154.89999999999964,26.400999999999954 154.79999999999927,26.557999999999993 C154.60000000000036,26.714000000000055 154.60000000000036,26.94799999999998 154.60000000000036,27.260999999999967 C154.60000000000036,27.875 154.70000000000073,28.360000000000014 154.89999999999964,28.714000000000055 C155.10000000000036,29.067999999999984 155.39999999999964,29.245000000000005 155.70000000000073,29.245000000000005 C156.0,29.245000000000005 156.20000000000073,29.128000000000043 156.39999999999964,28.894000000000005 C156.5,28.658999999999992 156.60000000000036,28.32299999999998 156.60000000000036,27.885999999999967 C156.60000000000036,27.385999999999967 156.5,27.0 156.29999999999927,26.729000000000042 C156.10000000000036,26.458999999999946 155.89999999999964,26.32299999999998 155.5,26.32299999999998 M159.89999999999964,26.400999999999954 C160.39999999999964,26.754999999999995 160.70000000000073,27.05200000000002 160.89999999999964,27.29200000000003 C161.10000000000036,27.53200000000004 161.10000000000036,27.807999999999993 161.10000000000036,28.120000000000005 C161.10000000000036,28.537000000000035 161.0,28.866999999999962 160.70000000000073,29.111999999999966 C160.39999999999964,29.35699999999997 160.0,29.479000000000042 159.60000000000036,29.479000000000042 C159.10000000000036,29.479000000000042 158.70000000000073,29.35699999999997 158.39999999999964,29.111999999999966 C158.20000000000073,28.866999999999962 158.0,28.547000000000025 158.0,28.150999999999954 C158.0,27.879999999999995 158.10000000000036,27.653999999999996 158.20000000000073,27.47199999999998 C158.29999999999927,27.288999999999987 158.60000000000036,27.037000000000035 159.10000000000036,26.714000000000055 C158.60000000000036,26.339000000000055 158.39999999999964,26.062999999999988 158.20000000000073,25.885999999999967 C158.10000000000036,25.708999999999946 158.10000000000036,25.49000000000001 158.10000000000036,25.229000000000042 C158.10000000000036,24.86500000000001 158.20000000000073,24.559999999999945 158.5,24.315000000000055 C158.79999999999927,24.071000000000026 159.10000000000036,23.94799999999998 159.60000000000036,23.94799999999998 C160.0,23.94799999999998 160.29999999999927,24.05499999999995 160.60000000000036,24.269000000000005 C160.79999999999927,24.48199999999997 160.89999999999964,24.760999999999967 160.89999999999964,25.104000000000042 C160.89999999999964,25.375 160.89999999999964,25.604000000000042 160.70000000000073,25.79200000000003 C160.60000000000036,25.979000000000042 160.29999999999927,26.182999999999993 159.89999999999964,26.400999999999954 M159.29999999999927,26.870000000000005 C159.0,27.057999999999993 158.89999999999964,27.241999999999962 158.79999999999927,27.424999999999955 C158.70000000000073,27.60699999999997 158.60000000000036,27.827999999999975 158.60000000000036,28.089000000000055 C158.60000000000036,28.432999999999993 158.70000000000073,28.711000000000013 158.89999999999964,28.924999999999955 C159.10000000000036,29.138000000000034 159.29999999999927,29.245000000000005 159.60000000000036,29.245000000000005 C159.89999999999964,29.245000000000005 160.10000000000036,29.163999999999987 160.29999999999927,29.003000000000043 C160.39999999999964,28.841000000000008 160.5,28.629999999999995 160.5,28.370000000000005 C160.5,28.287000000000035 160.5,28.206000000000017 160.5,28.128000000000043 C160.5,28.049999999999955 160.5,27.985000000000014 160.39999999999964,27.932999999999993 C160.39999999999964,27.879999999999995 160.39999999999964,27.817999999999984 160.29999999999927,27.745000000000005 C160.29999999999927,27.672000000000025 160.20000000000073,27.616999999999962 160.20000000000073,27.581000000000017 C160.20000000000073,27.54499999999996 160.10000000000036,27.486999999999966 160.0,27.408999999999992 C159.89999999999964,27.331000000000017 159.79999999999927,27.275999999999954 159.79999999999927,27.245000000000005 C159.79999999999927,27.214000000000055 159.70000000000073,27.153999999999996 159.5,27.065000000000055 C159.39999999999964,26.976999999999975 159.29999999999927,26.912000000000035 159.29999999999927,26.870000000000005 M159.70000000000073,26.260999999999967 C159.70000000000073,26.25 159.70000000000073,26.22199999999998 159.79999999999927,26.174999999999955 C159.79999999999927,26.128000000000043 159.89999999999964,26.091000000000008 159.89999999999964,26.065000000000055 C159.89999999999964,26.038999999999987 160.0,26.0 160.0,25.94799999999998 C160.10000000000036,25.895999999999958 160.20000000000073,25.84400000000005 160.20000000000073,25.79200000000003 C160.20000000000073,25.74000000000001 160.29999999999927,25.67700000000002 160.29999999999927,25.604000000000042 C160.29999999999927,25.53200000000004 160.39999999999964,25.451000000000022 160.39999999999964,25.361999999999966 C160.39999999999964,25.274 160.39999999999964,25.182999999999993 160.39999999999964,25.089000000000055 C160.39999999999964,24.817999999999984 160.29999999999927,24.599000000000046 160.20000000000073,24.432999999999993 C160.0,24.265999999999963 159.79999999999927,24.182999999999993 159.5,24.182999999999993 C159.29999999999927,24.182999999999993 159.10000000000036,24.258000000000038 158.89999999999964,24.408999999999992 C158.70000000000073,24.559999999999945 158.70000000000073,24.75 158.70000000000073,24.979000000000042 C158.70000000000073,25.19799999999998 158.70000000000073,25.40700000000004 158.89999999999964,25.604000000000042 C159.0,25.80200000000002 159.29999999999927,26.020999999999958 159.70000000000073,26.260999999999967 M169.0,26.69799999999998 C169.0,26.937999999999988 169.0,27.172000000000025 168.89999999999964,27.400999999999954 C168.89999999999964,27.629999999999995 168.79999999999927,27.866999999999962 168.60000000000036,28.111999999999966 C168.5,28.35699999999997 168.29999999999927,28.567999999999984 168.10000000000036,28.745000000000005 C167.89999999999964,28.922000000000025 167.60000000000036,29.071000000000026 167.20000000000073,29.190000000000055 C166.79999999999927,29.309999999999945 166.39999999999964,29.370000000000005 165.89999999999964,29.370000000000005 L163.70000000000073,29.370000000000005 L163.70000000000073,29.214000000000055 C164.0,29.192999999999984 164.10000000000036,29.140999999999963 164.20000000000073,29.057999999999993 C164.29999999999927,28.974000000000046 164.39999999999964,28.787000000000035 164.39999999999964,28.495000000000005 L164.39999999999964,24.94799999999998 C164.39999999999964,24.65700000000004 164.29999999999927,24.47199999999998 164.20000000000073,24.394000000000005 C164.20000000000073,24.315000000000055 164.0,24.260999999999967 163.70000000000073,24.229000000000042 L163.70000000000073,24.07299999999998 L165.79999999999927,24.07299999999998 C166.29999999999927,24.07299999999998 166.70000000000073,24.128000000000043 167.10000000000036,24.236999999999966 C167.5,24.34699999999998 167.79999999999927,24.486999999999966 168.0,24.658999999999992 C168.29999999999927,24.831000000000017 168.5,25.037000000000035 168.60000000000036,25.275999999999954 C168.79999999999927,25.515999999999963 168.89999999999964,25.75 168.89999999999964,25.979000000000042 C169.0,26.208999999999946 169.0,26.44799999999998 169.0,26.69799999999998 M168.10000000000036,26.760999999999967 C168.10000000000036,26.53200000000004 168.10000000000036,26.309999999999945 168.10000000000036,26.09699999999998 C168.0,25.883000000000038 167.89999999999964,25.66999999999996 167.79999999999927,25.456000000000017 C167.70000000000073,25.241999999999962 167.5,25.059999999999945 167.39999999999964,24.908999999999992 C167.20000000000073,24.758000000000038 166.89999999999964,24.633000000000038 166.60000000000036,24.533999999999992 C166.29999999999927,24.434999999999945 166.0,24.385999999999967 165.60000000000036,24.385999999999967 C165.39999999999964,24.385999999999967 165.29999999999927,24.40700000000004 165.29999999999927,24.44799999999998 C165.20000000000073,24.49000000000001 165.20000000000073,24.57299999999998 165.20000000000073,24.69799999999998 L165.20000000000073,28.745000000000005 C165.20000000000073,28.870000000000005 165.20000000000073,28.956000000000017 165.29999999999927,29.003000000000043 C165.29999999999927,29.049999999999955 165.39999999999964,29.07299999999998 165.60000000000036,29.07299999999998 C167.29999999999927,29.07299999999998 168.10000000000036,28.30200000000002 168.10000000000036,26.760999999999967 M171.89999999999964,26.885999999999967 C171.79999999999927,26.458999999999946 171.70000000000073,26.190000000000055 171.60000000000036,26.081000000000017 C171.60000000000036,25.97199999999998 171.39999999999964,25.90700000000004 171.20000000000073,25.885999999999967 L171.20000000000073,25.775999999999954 L172.89999999999964,25.775999999999954 L172.89999999999964,25.885999999999967 C172.70000000000073,25.91700000000003 172.60000000000036,25.951000000000022 172.5,25.986999999999966 C172.39999999999964,26.024 172.39999999999964,26.089000000000055 172.39999999999964,26.182999999999993 C172.39999999999964,26.245000000000005 172.39999999999964,26.400999999999954 172.5,26.650999999999954 L173.20000000000073,28.44799999999998 L173.89999999999964,26.66700000000003 C174.0,26.44799999999998 174.10000000000036,26.270999999999958 174.10000000000036,26.135999999999967 C174.10000000000036,26.07299999999998 174.0,26.024 174.0,25.986999999999966 C173.89999999999964,25.951000000000022 173.89999999999964,25.91700000000003 173.70000000000073,25.885999999999967 L173.70000000000073,25.775999999999954 L174.70000000000073,25.775999999999954 L174.70000000000073,25.885999999999967 C174.60000000000036,25.91700000000003 174.60000000000036,25.956000000000017 174.5,26.003000000000043 C174.5,26.049999999999955 174.39999999999964,26.15700000000004 174.39999999999964,26.32299999999998 L173.29999999999927,29.089000000000055 C173.20000000000073,29.349000000000046 173.10000000000036,29.479000000000042 173.0,29.479000000000042 C173.0,29.479000000000042 172.89999999999964,29.36500000000001 172.89999999999964,29.135999999999967 L172.10000000000036,27.245000000000005 L171.20000000000073,29.16700000000003 C171.10000000000036,29.375 171.10000000000036,29.479000000000042 171.0,29.479000000000042 C171.0,29.479000000000042 170.89999999999964,29.36500000000001 170.79999999999927,29.135999999999967 L169.70000000000073,26.400999999999954 C169.70000000000073,26.192999999999984 169.60000000000036,26.057999999999993 169.5,25.995000000000005 C169.5,25.932999999999993 169.39999999999964,25.895999999999958 169.29999999999927,25.885999999999967 L169.29999999999927,25.775999999999954 L170.79999999999927,25.775999999999954 L170.79999999999927,25.885999999999967 C170.60000000000036,25.90700000000004 170.5,25.934999999999945 170.5,25.97199999999998 C170.39999999999964,26.008000000000038 170.39999999999964,26.067999999999984 170.39999999999964,26.150999999999954 C170.39999999999964,26.235000000000014 170.39999999999964,26.317999999999984 170.39999999999964,26.400999999999954 L171.20000000000073,28.479000000000042 L171.89999999999964,26.885999999999967 M175.0,28.57299999999998 C175.0,28.479000000000042 175.0,28.394000000000005 175.0,28.315000000000055 C175.0,28.236999999999966 175.10000000000036,28.162000000000035 175.10000000000036,28.089000000000055 C175.20000000000073,28.015999999999963 175.20000000000073,27.951000000000022 175.29999999999927,27.894000000000005 C175.29999999999927,27.836000000000013 175.39999999999964,27.775999999999954 175.5,27.714000000000055 C175.60000000000036,27.650999999999954 175.70000000000073,27.599000000000046 175.70000000000073,27.557999999999993 C175.79999999999927,27.515999999999963 175.89999999999964,27.46900000000005 176.0,27.41700000000003 C176.10000000000036,27.36500000000001 176.20000000000073,27.32299999999998 176.29999999999927,27.29200000000003 C176.39999999999964,27.260999999999967 176.5,27.216000000000008 176.60000000000036,27.158999999999992 C176.79999999999927,27.101999999999975 176.89999999999964,27.057999999999993 176.89999999999964,27.025999999999954 L176.89999999999964,26.54200000000003 C176.89999999999964,26.104000000000042 176.70000000000073,25.885999999999967 176.29999999999927,25.885999999999967 C176.20000000000073,25.885999999999967 176.0,25.924999999999955 175.89999999999964,26.003000000000043 C175.79999999999927,26.081000000000017 175.79999999999927,26.172000000000025 175.79999999999927,26.275999999999954 C175.79999999999927,26.317999999999984 175.79999999999927,26.375 175.79999999999927,26.44799999999998 C175.79999999999927,26.520999999999958 175.79999999999927,26.567999999999984 175.79999999999927,26.589000000000055 C175.79999999999927,26.682999999999993 175.79999999999927,26.763000000000034 175.70000000000073,26.831000000000017 C175.60000000000036,26.899 175.5,26.932999999999993 175.39999999999964,26.932999999999993 C175.29999999999927,26.932999999999993 175.29999999999927,26.899 175.20000000000073,26.831000000000017 C175.10000000000036,26.763000000000034 175.10000000000036,26.682999999999993 175.10000000000036,26.589000000000055 C175.10000000000036,26.339000000000055 175.20000000000073,26.128000000000043 175.5,25.956000000000017 C175.70000000000073,25.783999999999992 176.10000000000036,25.69799999999998 176.39999999999964,25.69799999999998 C176.89999999999964,25.69799999999998 177.20000000000073,25.80200000000002 177.29999999999927,26.010999999999967 C177.5,26.21900000000005 177.60000000000036,26.537000000000035 177.60000000000036,26.964000000000055 L177.60000000000036,28.510999999999967 C177.60000000000036,28.687999999999988 177.60000000000036,28.809999999999945 177.60000000000036,28.878000000000043 C177.60000000000036,28.946000000000026 177.70000000000073,28.979000000000042 177.79999999999927,28.979000000000042 C177.89999999999964,28.979000000000042 178.0,28.92700000000002 178.20000000000073,28.82299999999998 L178.20000000000073,29.04200000000003 C178.0,29.19799999999998 177.89999999999964,29.30499999999995 177.79999999999927,29.361999999999966 C177.70000000000073,29.41999999999996 177.60000000000036,29.44799999999998 177.39999999999964,29.44799999999998 C177.29999999999927,29.44799999999998 177.20000000000073,29.400999999999954 177.10000000000036,29.307999999999993 C177.0,29.214000000000055 177.0,29.062999999999988 176.89999999999964,28.854000000000042 C176.5,29.25 176.10000000000036,29.44799999999998 175.79999999999927,29.44799999999998 C175.60000000000036,29.44799999999998 175.39999999999964,29.366999999999962 175.20000000000073,29.206000000000017 C175.0,29.04499999999996 175.0,28.833999999999946 175.0,28.57299999999998 M176.89999999999964,28.370000000000005 L176.89999999999964,27.214000000000055 C176.5,27.390999999999963 176.10000000000036,27.562999999999988 175.89999999999964,27.729000000000042 C175.70000000000073,27.895999999999958 175.70000000000073,28.09400000000005 175.70000000000073,28.32299999999998 C175.70000000000073,28.54200000000003 175.70000000000073,28.702999999999975 175.79999999999927,28.807999999999993 C175.89999999999964,28.912000000000035 176.0,28.964000000000055 176.20000000000073,28.964000000000055 C176.29999999999927,28.964000000000055 176.5,28.90700000000004 176.70000000000073,28.79200000000003 C176.79999999999927,28.74000000000001 176.89999999999964,28.687999999999988 176.89999999999964,28.635999999999967 C176.89999999999964,28.583999999999946 176.89999999999964,28.495000000000005 176.89999999999964,28.370000000000005 M180.60000000000036,26.44799999999998 C180.5,26.44799999999998 180.39999999999964,26.400999999999954 180.29999999999927,26.307999999999993 C180.20000000000073,26.214000000000055 180.10000000000036,26.16700000000003 180.10000000000036,26.16700000000003 C180.0,26.16700000000003 179.89999999999964,26.245000000000005 179.70000000000073,26.400999999999954 C179.60000000000036,26.557999999999993 179.5,26.702999999999975 179.5,26.839000000000055 L179.5,28.650999999999954 C179.5,28.879999999999995 179.60000000000036,29.033999999999992 179.70000000000073,29.111999999999966 C179.70000000000073,29.190000000000055 179.89999999999964,29.235000000000014 180.20000000000073,29.245000000000005 L180.20000000000073,29.370000000000005 L178.29999999999927,29.370000000000005 L178.29999999999927,29.245000000000005 C178.5,29.202999999999975 178.70000000000073,29.150999999999954 178.79999999999927,29.089000000000055 C178.79999999999927,29.025999999999954 178.79999999999927,28.895999999999958 178.79999999999927,28.69799999999998 L178.79999999999927,26.682999999999993 C178.79999999999927,26.504999999999995 178.79999999999927,26.379999999999995 178.79999999999927,26.307999999999993 C178.70000000000073,26.235000000000014 178.70000000000073,26.19799999999998 178.60000000000036,26.19799999999998 C178.5,26.19799999999998 178.39999999999964,26.208999999999946 178.29999999999927,26.229000000000042 L178.29999999999927,26.104000000000042 C178.70000000000073,25.96900000000005 179.10000000000036,25.833999999999946 179.5,25.69799999999998 L179.5,25.714000000000055 L179.5,26.41700000000003 C179.70000000000073,26.145999999999958 179.89999999999964,25.958999999999946 180.0,25.854000000000042 C180.20000000000073,25.75 180.29999999999927,25.69799999999998 180.5,25.69799999999998 C180.60000000000036,25.69799999999998 180.70000000000073,25.73199999999997 180.79999999999927,25.799999999999955 C180.89999999999964,25.866999999999962 180.89999999999964,25.96900000000005 180.89999999999964,26.104000000000042 C180.89999999999964,26.208999999999946 180.89999999999964,26.29200000000003 180.79999999999927,26.354000000000042 C180.79999999999927,26.41700000000003 180.70000000000073,26.44799999999998 180.60000000000036,26.44799999999998 M183.60000000000036,24.729000000000042 C183.5,24.729000000000042 183.39999999999964,24.69799999999998 183.39999999999964,24.635999999999967 C183.29999999999927,24.57299999999998 183.29999999999927,24.504999999999995 183.20000000000073,24.432999999999993 C183.20000000000073,24.360000000000014 183.10000000000036,24.29200000000003 183.10000000000036,24.229000000000042 C183.0,24.16700000000003 182.89999999999964,24.135999999999967 182.79999999999927,24.135999999999967 C182.5,24.135999999999967 182.39999999999964,24.370000000000005 182.39999999999964,24.839000000000055 L182.39999999999964,25.775999999999954 L183.39999999999964,25.775999999999954 L183.39999999999964,26.010999999999967 L182.39999999999964,26.010999999999967 L182.39999999999964,28.54200000000003 C182.39999999999964,28.833999999999946 182.39999999999964,29.020999999999958 182.5,29.104000000000042 C182.60000000000036,29.187999999999988 182.79999999999927,29.235000000000014 183.10000000000036,29.245000000000005 L183.10000000000036,29.370000000000005 L181.0,29.370000000000005 L181.0,29.245000000000005 C181.29999999999927,29.235000000000014 181.5,29.187999999999988 181.60000000000036,29.104000000000042 C181.70000000000073,29.020999999999958 181.70000000000073,28.833999999999946 181.70000000000073,28.54200000000003 L181.70000000000073,26.010999999999967 L181.0,26.010999999999967 L181.0,25.775999999999954 L181.70000000000073,25.775999999999954 C181.70000000000073,25.172000000000025 181.79999999999927,24.706000000000017 182.0,24.378000000000043 C182.20000000000073,24.049999999999955 182.60000000000036,23.885999999999967 183.10000000000036,23.885999999999967 C183.29999999999927,23.885999999999967 183.5,23.934999999999945 183.70000000000073,24.033999999999992 C183.89999999999964,24.133000000000038 183.89999999999964,24.254999999999995 183.89999999999964,24.400999999999954 C183.89999999999964,24.495000000000005 183.89999999999964,24.57299999999998 183.79999999999927,24.635999999999967 C183.79999999999927,24.69799999999998 183.70000000000073,24.729000000000042 183.60000000000036,24.729000000000042 M191.29999999999927,24.79200000000003 L189.29999999999927,29.370000000000005 L189.20000000000073,29.370000000000005 L187.20000000000073,24.979000000000042 L187.20000000000073,28.19799999999998 C187.20000000000073,28.604000000000042 187.20000000000073,28.873000000000047 187.29999999999927,29.003000000000043 C187.39999999999964,29.133000000000038 187.60000000000036,29.202999999999975 187.89999999999964,29.214000000000055 L187.89999999999964,29.370000000000005 L186.0,29.370000000000005 L186.0,29.214000000000055 C186.39999999999964,29.192999999999984 186.60000000000036,29.120000000000005 186.70000000000073,28.995000000000005 C186.70000000000073,28.870000000000005 186.79999999999927,28.604000000000042 186.79999999999927,28.19799999999998 L186.79999999999927,24.94799999999998 C186.79999999999927,24.65700000000004 186.70000000000073,24.46900000000005 186.70000000000073,24.385999999999967 C186.60000000000036,24.30200000000002 186.39999999999964,24.25 186.0,24.229000000000042 L186.0,24.07299999999998 L187.60000000000036,24.07299999999998 L189.5,28.120000000000005 L191.20000000000073,24.07299999999998 L192.79999999999927,24.07299999999998 L192.79999999999927,24.229000000000042 C192.5,24.260999999999967 192.29999999999927,24.317999999999984 192.29999999999927,24.400999999999954 C192.20000000000073,24.485000000000014 192.10000000000036,24.66700000000003 192.10000000000036,24.94799999999998 L192.10000000000036,28.495000000000005 C192.10000000000036,28.775999999999954 192.20000000000073,28.961000000000013 192.29999999999927,29.049999999999955 C192.29999999999927,29.138000000000034 192.5,29.192999999999984 192.79999999999927,29.214000000000055 L192.79999999999927,29.370000000000005 L190.60000000000036,29.370000000000005 L190.60000000000036,29.214000000000055 C190.89999999999964,29.192999999999984 191.10000000000036,29.135999999999967 191.20000000000073,29.04200000000003 C191.29999999999927,28.94799999999998 191.29999999999927,28.74000000000001 191.29999999999927,28.41700000000003 L191.29999999999927,24.79200000000003 M196.79999999999927,28.94799999999998 L196.79999999999927,29.07299999999998 C196.39999999999964,29.187999999999988 196.0,29.312999999999988 195.70000000000073,29.44799999999998 L195.70000000000073,29.432999999999993 L195.70000000000073,28.745000000000005 C195.60000000000036,28.765999999999963 195.60000000000036,28.815000000000055 195.5,28.894000000000005 C195.39999999999964,28.97199999999998 195.39999999999964,29.025999999999954 195.39999999999964,29.057999999999993 C195.29999999999927,29.089000000000055 195.29999999999927,29.135999999999967 195.20000000000073,29.19799999999998 C195.10000000000036,29.260999999999967 195.0,29.30499999999995 195.0,29.331000000000017 C194.89999999999964,29.35699999999997 194.89999999999964,29.383000000000038 194.79999999999927,29.408999999999992 C194.70000000000073,29.434999999999945 194.60000000000036,29.44799999999998 194.5,29.44799999999998 C194.20000000000073,29.44799999999998 194.0,29.351999999999975 193.79999999999927,29.158999999999992 C193.60000000000036,28.966000000000008 193.5,28.714000000000055 193.5,28.400999999999954 L193.5,26.385999999999967 C193.5,26.208999999999946 193.5,26.083999999999946 193.39999999999964,26.010999999999967 C193.39999999999964,25.937999999999988 193.20000000000073,25.895999999999958 193.0,25.885999999999967 L193.0,25.775999999999954 L194.20000000000073,25.775999999999954 L194.20000000000073,28.370000000000005 C194.20000000000073,28.525999999999954 194.29999999999927,28.663999999999987 194.39999999999964,28.783999999999992 C194.5,28.903999999999996 194.60000000000036,28.964000000000055 194.79999999999927,28.964000000000055 C194.79999999999927,28.964000000000055 194.89999999999964,28.956000000000017 195.0,28.940000000000055 C195.10000000000036,28.924999999999955 195.10000000000036,28.895999999999958 195.20000000000073,28.854000000000042 C195.39999999999964,28.812999999999988 195.39999999999964,28.741999999999962 195.5,28.644000000000005 C195.60000000000036,28.54499999999996 195.60000000000036,28.422000000000025 195.60000000000036,28.275999999999954 L195.60000000000036,26.400999999999954 C195.60000000000036,26.214000000000055 195.60000000000036,26.086000000000013 195.5,26.019000000000005 C195.39999999999964,25.951000000000022 195.29999999999927,25.912000000000035 195.0,25.900999999999954 L195.0,25.775999999999954 L196.29999999999927,25.775999999999954 L196.29999999999927,28.495000000000005 C196.29999999999927,28.682999999999993 196.29999999999927,28.80499999999995 196.39999999999964,28.861999999999966 C196.39999999999964,28.91999999999996 196.60000000000036,28.94799999999998 196.79999999999927,28.94799999999998 L196.79999999999927,28.94799999999998 M199.0,25.854000000000042 C199.0,25.854000000000042 199.0,25.827999999999975 199.10000000000036,25.775999999999954 L199.20000000000073,25.775999999999954 L199.20000000000073,26.854000000000042 L199.10000000000036,26.854000000000042 C199.0,26.5 198.89999999999964,26.248000000000047 198.79999999999927,26.09699999999998 C198.70000000000073,25.946000000000026 198.5,25.870000000000005 198.20000000000073,25.870000000000005 C198.10000000000036,25.870000000000005 197.89999999999964,25.922000000000025 197.79999999999927,26.025999999999954 C197.70000000000073,26.129999999999995 197.60000000000036,26.260999999999967 197.60000000000036,26.41700000000003 C197.60000000000036,26.645999999999958 197.79999999999927,26.827999999999975 198.0,26.964000000000055 L198.79999999999927,27.479000000000042 C199.10000000000036,27.625 199.29999999999927,27.770999999999958 199.39999999999964,27.91700000000003 C199.5,28.062999999999988 199.5,28.235000000000014 199.5,28.432999999999993 C199.5,28.702999999999975 199.39999999999964,28.940000000000055 199.20000000000073,29.144000000000005 C199.0,29.34699999999998 198.70000000000073,29.44799999999998 198.39999999999964,29.44799999999998 C198.29999999999927,29.44799999999998 198.10000000000036,29.424999999999955 197.79999999999927,29.378000000000043 C197.60000000000036,29.331000000000017 197.5,29.307999999999993 197.39999999999964,29.307999999999993 C197.39999999999964,29.307999999999993 197.29999999999927,29.339000000000055 197.20000000000073,29.400999999999954 L197.10000000000036,29.400999999999954 L197.10000000000036,28.150999999999954 L197.29999999999927,28.150999999999954 C197.39999999999964,28.525999999999954 197.5,28.79200000000003 197.60000000000036,28.94799999999998 C197.70000000000073,29.16700000000003 198.0,29.275999999999954 198.29999999999927,29.275999999999954 C198.5,29.275999999999954 198.60000000000036,29.224000000000046 198.79999999999927,29.120000000000005 C198.89999999999964,29.015999999999963 198.89999999999964,28.875 198.89999999999964,28.69799999999998 C198.89999999999964,28.458999999999946 198.79999999999927,28.260999999999967 198.5,28.104000000000042 L198.10000000000036,27.839000000000055 C197.70000000000073,27.640999999999963 197.5,27.456000000000017 197.29999999999927,27.283999999999992 C197.20000000000073,27.111999999999966 197.10000000000036,26.912000000000035 197.10000000000036,26.682999999999993 C197.10000000000036,26.390999999999963 197.20000000000073,26.153999999999996 197.39999999999964,25.97199999999998 C197.60000000000036,25.788999999999987 197.89999999999964,25.69799999999998 198.20000000000073,25.69799999999998 C198.39999999999964,25.69799999999998 198.60000000000036,25.724000000000046 198.70000000000073,25.775999999999954 C198.89999999999964,25.827999999999975 199.0,25.854000000000042 199.0,25.854000000000042 M200.29999999999927,26.229000000000042 C200.20000000000073,26.229000000000042 200.0,26.235000000000014 199.89999999999964,26.245000000000005 L199.89999999999964,26.135999999999967 C200.29999999999927,26.03200000000004 200.70000000000073,25.885999999999967 201.20000000000073,25.69799999999998 L201.20000000000073,25.714000000000055 L201.20000000000073,28.557999999999993 C201.20000000000073,28.839000000000055 201.20000000000073,29.019000000000005 201.29999999999927,29.09699999999998 C201.39999999999964,29.174999999999955 201.5,29.224000000000046 201.79999999999927,29.245000000000005 L201.79999999999927,29.370000000000005 L199.89999999999964,29.370000000000005 L199.89999999999964,29.245000000000005 C200.20000000000073,29.235000000000014 200.39999999999964,29.187999999999988 200.39999999999964,29.104000000000042 C200.5,29.020999999999958 200.5,28.839000000000055 200.5,28.557999999999993 L200.5,26.69799999999998 C200.5,26.520999999999958 200.5,26.399 200.5,26.331000000000017 C200.39999999999964,26.263000000000034 200.39999999999964,26.229000000000042 200.29999999999927,26.229000000000042 M200.79999999999927,23.900999999999954 C200.89999999999964,23.900999999999954 201.0,23.942999999999984 201.10000000000036,24.025999999999954 C201.20000000000073,24.110000000000014 201.20000000000073,24.208999999999946 201.20000000000073,24.32299999999998 C201.20000000000073,24.437999999999988 201.20000000000073,24.533999999999992 201.10000000000036,24.611999999999966 C201.0,24.690000000000055 200.89999999999964,24.729000000000042 200.79999999999927,24.729000000000042 C200.70000000000073,24.729000000000042 200.60000000000036,24.687999999999988 200.5,24.604000000000042 C200.39999999999964,24.520999999999958 200.39999999999964,24.424999999999955 200.39999999999964,24.315000000000055 C200.39999999999964,24.206000000000017 200.39999999999964,24.110000000000014 200.5,24.025999999999954 C200.60000000000036,23.942999999999984 200.70000000000073,23.900999999999954 200.79999999999927,23.900999999999954 M202.20000000000073,27.66700000000003 C202.20000000000073,27.07299999999998 202.39999999999964,26.59699999999998 202.70000000000073,26.236999999999966 C203.10000000000036,25.878000000000043 203.5,25.69799999999998 203.89999999999964,25.69799999999998 C204.29999999999927,25.69799999999998 204.60000000000036,25.778999999999996 204.79999999999927,25.940000000000055 C205.0,26.101999999999975 205.20000000000073,26.297000000000025 205.20000000000073,26.525999999999954 C205.20000000000073,26.610000000000014 205.10000000000036,26.684999999999945 205.0,26.753000000000043 C205.0,26.821000000000026 204.89999999999964,26.854000000000042 204.79999999999927,26.854000000000042 C204.60000000000036,26.854000000000042 204.5,26.735000000000014 204.39999999999964,26.495000000000005 L204.39999999999964,26.32299999999998 C204.29999999999927,26.16700000000003 204.29999999999927,26.062999999999988 204.20000000000073,26.010999999999967 C204.20000000000073,25.958999999999946 204.0,25.932999999999993 203.89999999999964,25.932999999999993 C203.60000000000036,25.932999999999993 203.29999999999927,26.059999999999945 203.10000000000036,26.315000000000055 C202.89999999999964,26.571000000000026 202.79999999999927,26.90700000000004 202.79999999999927,27.32299999999998 C202.79999999999927,27.770999999999958 202.89999999999964,28.140999999999963 203.20000000000073,28.432999999999993 C203.39999999999964,28.724000000000046 203.70000000000073,28.870000000000005 204.10000000000036,28.870000000000005 C204.29999999999927,28.870000000000005 204.5,28.812999999999988 204.60000000000036,28.69799999999998 C204.79999999999927,28.583999999999946 205.0,28.390999999999963 205.20000000000073,28.120000000000005 L205.29999999999927,28.182999999999993 C205.20000000000073,28.297000000000025 205.20000000000073,28.388000000000034 205.10000000000036,28.456000000000017 C205.10000000000036,28.524 205.0,28.628000000000043 204.89999999999964,28.769000000000005 C204.79999999999927,28.908999999999992 204.70000000000073,29.020999999999958 204.60000000000036,29.104000000000042 C204.5,29.187999999999988 204.39999999999964,29.265999999999963 204.20000000000073,29.339000000000055 C204.10000000000036,29.412000000000035 203.89999999999964,29.44799999999998 203.70000000000073,29.44799999999998 C203.29999999999927,29.44799999999998 202.89999999999964,29.28200000000004 202.60000000000036,28.94799999999998 C202.29999999999927,28.61500000000001 202.20000000000073,28.187999999999988 202.20000000000073,27.66700000000003 M206.5,28.57299999999998 C206.70000000000073,28.57299999999998 206.79999999999927,28.616999999999962 206.79999999999927,28.706000000000017 C206.89999999999964,28.79499999999996 207.0,28.900999999999954 207.0,29.025999999999954 C207.0,29.140999999999963 206.89999999999964,29.241999999999962 206.79999999999927,29.331000000000017 C206.79999999999927,29.41999999999996 206.70000000000073,29.464000000000055 206.5,29.464000000000055 C206.39999999999964,29.464000000000055 206.29999999999927,29.41999999999996 206.20000000000073,29.331000000000017 C206.10000000000036,29.241999999999962 206.10000000000036,29.140999999999963 206.10000000000036,29.025999999999954 C206.10000000000036,28.900999999999954 206.10000000000036,28.79499999999996 206.20000000000073,28.706000000000017 C206.29999999999927,28.616999999999962 206.39999999999964,28.57299999999998 206.5,28.57299999999998" />
</svg>
