<?xml version="1.0" encoding="UTF-8" standalone="yes"?>
<svg width="256.0px" height="256.0px" xmlns="http://www.w3.org/2000/svg" xmlns:xlink="http://www.w3.org/1999/xlink" version="1.2" baseProfile="tiny">
<path d="M238.89000000000033,30.79200000000003 C238.75,30.69799999999998 238.60999999999967,30.591000000000008 238.46000000000004,30.47199999999998 C238.30000000000018,30.351999999999975 238.14000000000033,30.184999999999945 237.94999999999982,29.97199999999998 C237.76000000000022,29.758000000000038 237.59000000000015,29.53200000000004 237.44999999999982,29.29200000000003 C237.30000000000018,29.05200000000002 237.1800000000003,28.760999999999967 237.09000000000015,28.41700000000003 C236.98999999999978,28.07299999999998 236.94999999999982,27.71900000000005 236.94999999999982,27.354000000000042 C236.94999999999982,26.96900000000005 236.98999999999978,26.604000000000042 237.09000000000015,26.260999999999967 C237.1800000000003,25.91700000000003 237.30000000000018,25.633000000000038 237.4300000000003,25.408999999999992 C237.5699999999997,25.184999999999945 237.73999999999978,24.966000000000008 237.9399999999996,24.753000000000043 C238.14000000000033,24.538999999999987 238.3100000000004,24.383000000000038 238.44999999999982,24.283999999999992 C238.57999999999993,24.184999999999945 238.72999999999956,24.077999999999975 238.89999999999964,23.964000000000055 L238.97999999999956,24.089000000000055 C238.75,24.287000000000035 238.5600000000004,24.461000000000013 238.42000000000007,24.611999999999966 C238.27000000000044,24.763000000000034 238.1300000000001,24.964000000000055 237.98999999999978,25.214000000000055 C237.85999999999967,25.464000000000055 237.76000000000022,25.760999999999967 237.71000000000004,26.104000000000042 C237.64999999999964,26.44799999999998 237.6199999999999,26.860000000000014 237.6199999999999,27.339000000000055 C237.6199999999999,27.827999999999975 237.64999999999964,28.253000000000043 237.71000000000004,28.611999999999966 C237.76000000000022,28.97199999999998 237.85999999999967,29.275999999999954 237.98999999999978,29.525999999999954 C238.1300000000001,29.775999999999954 238.27000000000044,29.98199999999997 238.42000000000007,30.144000000000005 C238.5600000000004,30.30499999999995 238.75,30.474000000000046 238.97999999999956,30.650999999999954 L238.89000000000033,30.79200000000003 M239.42000000000007,27.66700000000003 C239.42000000000007,27.07299999999998 239.59000000000015,26.59699999999998 239.9399999999996,26.236999999999966 C240.28999999999996,25.878000000000043 240.69999999999982,25.69799999999998 241.17000000000007,25.69799999999998 C241.5,25.69799999999998 241.77999999999975,25.778999999999996 242.02000000000044,25.940000000000055 C242.25,26.101999999999975 242.3699999999999,26.297000000000025 242.3699999999999,26.525999999999954 C242.3699999999999,26.610000000000014 242.32999999999993,26.684999999999945 242.26000000000022,26.753000000000043 C242.1899999999996,26.821000000000026 242.10000000000036,26.854000000000042 241.98999999999978,26.854000000000042 C241.8199999999997,26.854000000000042 241.69999999999982,26.735000000000014 241.64000000000033,26.495000000000005 L241.59000000000015,26.32299999999998 C241.55000000000018,26.16700000000003 241.48999999999978,26.062999999999988 241.4300000000003,26.010999999999967 C241.3699999999999,25.958999999999946 241.27000000000044,25.932999999999993 241.1199999999999,25.932999999999993 C240.80000000000018,25.932999999999993 240.53999999999996,26.059999999999945 240.34000000000015,26.315000000000055 C240.14000000000033,26.571000000000026 240.03999999999996,26.90700000000004 240.03999999999996,27.32299999999998 C240.03999999999996,27.770999999999958 240.15999999999985,28.140999999999963 240.39000000000033,28.432999999999993 C240.60999999999967,28.724000000000046 240.90999999999985,28.870000000000005 241.27999999999975,28.870000000000005 C241.48999999999978,28.870000000000005 241.6800000000003,28.812999999999988 241.85000000000036,28.69799999999998 C242.01000000000022,28.583999999999946 242.1800000000003,28.390999999999963 242.3699999999999,28.120000000000005 L242.47999999999956,28.182999999999993 C242.4300000000003,28.297000000000025 242.3800000000001,28.388000000000034 242.35000000000036,28.456000000000017 C242.3100000000004,28.524 242.23999999999978,28.628000000000043 242.14000000000033,28.769000000000005 C242.02999999999975,28.908999999999992 241.9300000000003,29.020999999999958 241.82999999999993,29.104000000000042 C241.72999999999956,29.187999999999988 241.60000000000036,29.265999999999963 241.4399999999996,29.339000000000055 C241.27999999999975,29.412000000000035 241.10999999999967,29.44799999999998 240.9300000000003,29.44799999999998 C240.48999999999978,29.44799999999998 240.1300000000001,29.28200000000004 239.85000000000036,28.94799999999998 C239.5600000000004,28.61500000000001 239.42000000000007,28.187999999999988 239.42000000000007,27.66700000000003 M243.09000000000015,23.964000000000055 C243.22999999999956,24.047000000000025 243.3800000000001,24.149 243.52999999999975,24.269000000000005 C243.67000000000007,24.388000000000034 243.84000000000015,24.55499999999995 244.02999999999975,24.769000000000005 C244.22999999999956,24.98199999999997 244.39000000000033,25.211000000000013 244.52999999999975,25.456000000000017 C244.67000000000007,25.701000000000022 244.78999999999996,25.991999999999962 244.89000000000033,26.331000000000017 C244.98999999999978,26.66999999999996 245.03999999999996,27.025999999999954 245.03999999999996,27.400999999999954 C245.03999999999996,27.775999999999954 244.98999999999978,28.135999999999967 244.89000000000033,28.479000000000042 C244.78999999999996,28.82299999999998 244.6800000000003,29.110000000000014 244.55000000000018,29.339000000000055 C244.42000000000007,29.567999999999984 244.25,29.787000000000035 244.03999999999996,29.995000000000005 C243.82999999999993,30.202999999999975 243.65999999999985,30.360000000000014 243.52999999999975,30.464000000000055 C243.39999999999964,30.567999999999984 243.25,30.67700000000002 243.0699999999997,30.79200000000003 L242.98999999999978,30.650999999999954 C243.22999999999956,30.464000000000055 243.4300000000003,30.29200000000003 243.5699999999997,30.135999999999967 C243.72000000000025,29.979000000000042 243.85999999999967,29.778999999999996 243.98999999999978,29.533999999999992 C244.1199999999999,29.288999999999987 244.21000000000004,28.995000000000005 244.27000000000044,28.650999999999954 C244.32999999999993,28.307999999999993 244.35000000000036,27.895999999999958 244.35000000000036,27.41700000000003 C244.35000000000036,26.92700000000002 244.32999999999993,26.503000000000043 244.27000000000044,26.144000000000005 C244.21000000000004,25.783999999999992 244.1199999999999,25.476999999999975 243.98999999999978,25.22199999999998 C243.85999999999967,24.966000000000008 243.72000000000025,24.760999999999967 243.5699999999997,24.604000000000042 C243.4300000000003,24.44799999999998 243.22999999999956,24.275999999999954 242.98999999999978,24.089000000000055 L243.09000000000015,23.964000000000055 M248.8699999999999,24.635999999999967 C248.77000000000044,24.635999999999967 248.5699999999997,24.692999999999984 248.28999999999996,24.807999999999993 L248.28999999999996,24.69799999999998 L249.71000000000004,23.964000000000055 L249.77999999999975,23.979000000000042 L249.77999999999975,28.775999999999954 C249.77999999999975,28.974000000000046 249.82999999999993,29.101999999999975 249.92000000000007,29.158999999999992 C250.02000000000044,29.216000000000008 250.22999999999956,29.245000000000005 250.53999999999996,29.245000000000005 L250.53999999999996,29.370000000000005 L248.34000000000015,29.370000000000005 L248.34000000000015,29.245000000000005 C248.64000000000033,29.235000000000014 248.84000000000015,29.190000000000055 248.94999999999982,29.111999999999966 C249.05000000000018,29.033999999999992 249.10000000000036,28.870000000000005 249.10000000000036,28.620000000000005 L249.10000000000036,25.010999999999967 C249.10000000000036,24.760999999999967 249.02999999999975,24.635999999999967 248.8699999999999,24.635999999999967 M251.85000000000036,29.54200000000003 L251.84000000000015,29.385999999999967 C252.4399999999996,29.28200000000004 252.96000000000004,29.024 253.3800000000001,28.611999999999966 C253.80000000000018,28.201000000000022 254.09000000000015,27.66700000000003 254.26000000000022,27.010999999999967 C253.85999999999967,27.32299999999998 253.46000000000004,27.479000000000042 253.0600000000004,27.479000000000042 C252.6300000000001,27.479000000000042 252.27999999999975,27.327999999999975 252.02000000000044,27.025999999999954 C251.75,26.724000000000046 251.6199999999999,26.333999999999946 251.6199999999999,25.854000000000042 C251.6199999999999,25.312999999999988 251.77999999999975,24.860000000000014 252.10000000000036,24.495000000000005 C252.40999999999985,24.129999999999995 252.8100000000004,23.94799999999998 253.28999999999996,23.94799999999998 C253.8199999999997,23.94799999999998 254.26000000000022,24.158999999999992 254.59000000000015,24.581000000000017 C254.92000000000007,25.003000000000043 255.09000000000015,25.547000000000025 255.09000000000015,26.214000000000055 C255.09000000000015,26.432999999999993 255.0699999999997,26.653999999999996 255.02999999999975,26.878000000000043 C255.0,27.101999999999975 254.90999999999985,27.366999999999962 254.77999999999975,27.674999999999955 C254.64000000000033,27.98199999999997 254.46000000000004,28.254999999999995 254.23999999999978,28.495000000000005 C254.01000000000022,28.735000000000014 253.69999999999982,28.952999999999975 253.28999999999996,29.150999999999954 C252.89000000000033,29.349000000000046 252.40999999999985,29.479000000000042 251.85000000000036,29.54200000000003 M253.35000000000036,27.120000000000005 C253.46000000000004,27.120000000000005 253.5699999999997,27.10699999999997 253.69999999999982,27.081000000000017 C253.8199999999997,27.05499999999995 253.94999999999982,26.991999999999962 254.07999999999993,26.894000000000005 C254.21000000000004,26.79499999999996 254.27999999999975,26.672000000000025 254.27999999999975,26.525999999999954 L254.27999999999975,26.214000000000055 C254.27999999999975,24.860000000000014 253.9300000000003,24.182999999999993 253.22999999999956,24.182999999999993 C253.0600000000004,24.182999999999993 252.92000000000007,24.226999999999975 252.80000000000018,24.315000000000055 C252.6800000000003,24.403999999999996 252.59000000000015,24.520999999999958 252.52999999999975,24.66700000000003 C252.47999999999956,24.812999999999988 252.4300000000003,24.958999999999946 252.39999999999964,25.104000000000042 C252.3699999999999,25.25 252.35000000000036,25.40700000000004 252.35000000000036,25.57299999999998 C252.35000000000036,26.05200000000002 252.44999999999982,26.42999999999995 252.6300000000001,26.706000000000017 C252.8100000000004,26.98199999999997 253.05000000000018,27.120000000000005 253.35000000000036,27.120000000000005 M257.4300000000003,29.479000000000042 C256.8900000000003,29.479000000000042 256.46000000000004,29.265999999999963 256.1300000000001,28.839000000000055 C255.80000000000018,28.412000000000035 255.64000000000033,27.84400000000005 255.64000000000033,27.135999999999967 C255.64000000000033,26.91700000000003 255.65999999999985,26.692999999999984 255.71000000000004,26.464000000000055 C255.75,26.235000000000014 255.85000000000036,25.97199999999998 255.98999999999978,25.674999999999955 C256.1300000000001,25.378000000000043 256.3100000000004,25.111999999999966 256.5500000000002,24.878000000000043 C256.77999999999975,24.644000000000005 257.1099999999997,24.434999999999945 257.52000000000044,24.253000000000043 C257.9300000000003,24.071000000000026 258.40999999999985,23.952999999999975 258.9499999999998,23.900999999999954 L258.96000000000004,24.025999999999954 C258.3299999999999,24.129999999999995 257.8000000000002,24.385999999999967 257.3800000000001,24.79200000000003 C256.96000000000004,25.19799999999998 256.6899999999996,25.702999999999975 256.5699999999997,26.307999999999993 C256.8199999999997,26.162000000000035 257.0100000000002,26.067999999999984 257.1400000000003,26.025999999999954 C257.27000000000044,25.985000000000014 257.4300000000003,25.964000000000055 257.60000000000036,25.964000000000055 C258.0699999999997,25.964000000000055 258.4499999999998,26.111999999999966 258.72000000000025,26.408999999999992 C259.0,26.706000000000017 259.1400000000003,27.104000000000042 259.1400000000003,27.604000000000042 C259.1400000000003,28.15700000000004 258.97999999999956,28.60699999999997 258.65999999999985,28.956000000000017 C258.34000000000015,29.30499999999995 257.9300000000003,29.479000000000042 257.4300000000003,29.479000000000042 M257.3100000000004,26.32299999999998 C256.9399999999996,26.32299999999998 256.6999999999998,26.400999999999954 256.5600000000004,26.557999999999993 C256.4300000000003,26.714000000000055 256.3699999999999,26.94799999999998 256.3699999999999,27.260999999999967 C256.3699999999999,27.875 256.47000000000025,28.360000000000014 256.6800000000003,28.714000000000055 C256.8900000000003,29.067999999999984 257.1700000000001,29.245000000000005 257.5100000000002,29.245000000000005 C257.8000000000002,29.245000000000005 258.02000000000044,29.128000000000043 258.1700000000001,28.894000000000005 C258.3100000000004,28.658999999999992 258.3900000000003,28.32299999999998 258.3900000000003,27.885999999999967 C258.3900000000003,27.385999999999967 258.28999999999996,27.0 258.10000000000036,26.729000000000042 C257.9200000000001,26.458999999999946 257.64999999999964,26.32299999999998 257.3100000000004,26.32299999999998 M261.6800000000003,26.400999999999954 C262.1700000000001,26.754999999999995 262.5,27.05200000000002 262.6700000000001,27.29200000000003 C262.85000000000036,27.53200000000004 262.9300000000003,27.807999999999993 262.9300000000003,28.120000000000005 C262.9300000000003,28.537000000000035 262.78999999999996,28.866999999999962 262.5,29.111999999999966 C262.22000000000025,29.35699999999997 261.8299999999999,29.479000000000042 261.35000000000036,29.479000000000042 C260.89999999999964,29.479000000000042 260.52000000000044,29.35699999999997 260.2399999999998,29.111999999999966 C259.9499999999998,28.866999999999962 259.8100000000004,28.547000000000025 259.8100000000004,28.150999999999954 C259.8100000000004,27.879999999999995 259.8699999999999,27.653999999999996 260.0,27.47199999999998 C260.1300000000001,27.288999999999987 260.4200000000001,27.037000000000035 260.85000000000036,26.714000000000055 C260.4300000000003,26.339000000000055 260.14999999999964,26.062999999999988 260.02999999999975,25.885999999999967 C259.90999999999985,25.708999999999946 259.85000000000036,25.49000000000001 259.85000000000036,25.229000000000042 C259.85000000000036,24.86500000000001 260.0,24.559999999999945 260.27999999999975,24.315000000000055 C260.5699999999997,24.071000000000026 260.9399999999996,23.94799999999998 261.3900000000003,23.94799999999998 C261.77999999999975,23.94799999999998 262.1099999999997,24.05499999999995 262.3599999999997,24.269000000000005 C262.6199999999999,24.48199999999997 262.7399999999998,24.760999999999967 262.7399999999998,25.104000000000042 C262.7399999999998,25.375 262.6700000000001,25.604000000000042 262.5100000000002,25.79200000000003 C262.35000000000036,25.979000000000042 262.0799999999999,26.182999999999993 261.6800000000003,26.400999999999954 M261.0600000000004,26.870000000000005 C260.8299999999999,27.057999999999993 260.6700000000001,27.241999999999962 260.5699999999997,27.424999999999955 C260.47999999999956,27.60699999999997 260.4300000000003,27.827999999999975 260.4300000000003,28.089000000000055 C260.4300000000003,28.432999999999993 260.52000000000044,28.711000000000013 260.71000000000004,28.924999999999955 C260.8900000000003,29.138000000000034 261.1300000000001,29.245000000000005 261.4300000000003,29.245000000000005 C261.6899999999996,29.245000000000005 261.89999999999964,29.163999999999987 262.0600000000004,29.003000000000043 C262.22999999999956,28.841000000000008 262.3100000000004,28.629999999999995 262.3100000000004,28.370000000000005 C262.3100000000004,28.287000000000035 262.3000000000002,28.206000000000017 262.27999999999975,28.128000000000043 C262.27000000000044,28.049999999999955 262.25,27.985000000000014 262.22999999999956,27.932999999999993 C262.21000000000004,27.879999999999995 262.1700000000001,27.817999999999984 262.1099999999997,27.745000000000005 C262.0500000000002,27.672000000000025 262.0100000000002,27.616999999999962 261.97999999999956,27.581000000000017 C261.9499999999998,27.54499999999996 261.8900000000003,27.486999999999966 261.8000000000002,27.408999999999992 C261.71000000000004,27.331000000000017 261.6400000000003,27.275999999999954 261.60000000000036,27.245000000000005 C261.5500000000002,27.214000000000055 261.46000000000004,27.153999999999996 261.34000000000015,27.065000000000055 C261.21000000000004,26.976999999999975 261.1199999999999,26.912000000000035 261.0600000000004,26.870000000000005 M261.4499999999998,26.260999999999967 C261.46000000000004,26.25 261.5,26.22199999999998 261.5600000000004,26.174999999999955 C261.6300000000001,26.128000000000043 261.6800000000003,26.091000000000008 261.71000000000004,26.065000000000055 C261.72999999999956,26.038999999999987 261.77999999999975,26.0 261.84000000000015,25.94799999999998 C261.89999999999964,25.895999999999958 261.9499999999998,25.84400000000005 261.97999999999956,25.79200000000003 C262.0100000000002,25.74000000000001 262.0500000000002,25.67700000000002 262.09000000000015,25.604000000000042 C262.1300000000001,25.53200000000004 262.15999999999985,25.451000000000022 262.1700000000001,25.361999999999966 C262.1899999999996,25.274 262.1999999999998,25.182999999999993 262.1999999999998,25.089000000000055 C262.1999999999998,24.817999999999984 262.1199999999999,24.599000000000046 261.96000000000004,24.432999999999993 C261.8100000000004,24.265999999999963 261.59000000000015,24.182999999999993 261.3199999999997,24.182999999999993 C261.0699999999997,24.182999999999993 260.8699999999999,24.258000000000038 260.71000000000004,24.408999999999992 C260.53999999999996,24.559999999999945 260.46000000000004,24.75 260.46000000000004,24.979000000000042 C260.46000000000004,25.19799999999998 260.53999999999996,25.40700000000004 260.6899999999996,25.604000000000042 C260.84000000000015,25.80200000000002 261.09000000000015,26.020999999999958 261.4499999999998,26.260999999999967 M270.8100000000004,26.69799999999998 C270.8100000000004,26.937999999999988 270.77999999999975,27.172000000000025 270.72000000000025,27.400999999999954 C270.65999999999985,27.629999999999995 270.5600000000004,27.866999999999962 270.4200000000001,28.111999999999966 C270.27999999999975,28.35699999999997 270.10000000000036,28.567999999999984 269.8800000000001,28.745000000000005 C269.64999999999964,28.922000000000025 269.35000000000036,29.071000000000026 268.97999999999956,29.190000000000055 C268.60000000000036,29.309999999999945 268.1800000000003,29.370000000000005 267.71000000000004,29.370000000000005 L265.4499999999998,29.370000000000005 L265.4499999999998,29.214000000000055 C265.75,29.192999999999984 265.9399999999996,29.140999999999963 266.02999999999975,29.057999999999993 C266.1099999999997,28.974000000000046 266.14999999999964,28.787000000000035 266.14999999999964,28.495000000000005 L266.14999999999964,24.94799999999998 C266.14999999999964,24.65700000000004 266.1099999999997,24.47199999999998 266.02999999999975,24.394000000000005 C265.96000000000004,24.315000000000055 265.7600000000002,24.260999999999967 265.4499999999998,24.229000000000042 L265.4499999999998,24.07299999999998 L267.60000000000036,24.07299999999998 C268.09000000000015,24.07299999999998 268.52999999999975,24.128000000000043 268.90999999999985,24.236999999999966 C269.28999999999996,24.34699999999998 269.60000000000036,24.486999999999966 269.8299999999999,24.658999999999992 C270.0600000000004,24.831000000000017 270.2600000000002,25.037000000000035 270.40999999999985,25.275999999999954 C270.5600000000004,25.515999999999963 270.65999999999985,25.75 270.72000000000025,25.979000000000042 C270.77999999999975,26.208999999999946 270.8100000000004,26.44799999999998 270.8100000000004,26.69799999999998 M269.9200000000001,26.760999999999967 C269.9200000000001,26.53200000000004 269.89999999999964,26.309999999999945 269.85000000000036,26.09699999999998 C269.8100000000004,25.883000000000038 269.72999999999956,25.66999999999996 269.6099999999997,25.456000000000017 C269.4899999999998,25.241999999999962 269.34000000000015,25.059999999999945 269.14999999999964,24.908999999999992 C268.96000000000004,24.758000000000038 268.72000000000025,24.633000000000038 268.4200000000001,24.533999999999992 C268.1099999999997,24.434999999999945 267.77000000000044,24.385999999999967 267.3900000000003,24.385999999999967 C267.22000000000025,24.385999999999967 267.1099999999997,24.40700000000004 267.0500000000002,24.44799999999998 C266.9899999999998,24.49000000000001 266.96000000000004,24.57299999999998 266.96000000000004,24.69799999999998 L266.96000000000004,28.745000000000005 C266.96000000000004,28.870000000000005 266.9899999999998,28.956000000000017 267.0500000000002,29.003000000000043 C267.1099999999997,29.049999999999955 267.22000000000025,29.07299999999998 267.3900000000003,29.07299999999998 C269.0699999999997,29.07299999999998 269.9200000000001,28.30200000000002 269.9200000000001,26.760999999999967 M273.7399999999998,26.885999999999967 C273.6099999999997,26.458999999999946 273.5,26.190000000000055 273.4200000000001,26.081000000000017 C273.35000000000036,25.97199999999998 273.22000000000025,25.90700000000004 273.03999999999996,25.885999999999967 L273.03999999999996,25.775999999999954 L274.6700000000001,25.775999999999954 L274.6700000000001,25.885999999999967 C274.47999999999956,25.91700000000003 274.35000000000036,25.951000000000022 274.28999999999996,25.986999999999966 C274.22999999999956,26.024 274.1999999999998,26.089000000000055 274.1999999999998,26.182999999999993 C274.1999999999998,26.245000000000005 274.2399999999998,26.400999999999954 274.34000000000015,26.650999999999954 L275.0100000000002,28.44799999999998 L275.72999999999956,26.66700000000003 C275.8199999999997,26.44799999999998 275.8699999999999,26.270999999999958 275.8699999999999,26.135999999999967 C275.8699999999999,26.07299999999998 275.84000000000015,26.024 275.78999999999996,25.986999999999966 C275.7399999999998,25.951000000000022 275.64999999999964,25.91700000000003 275.5100000000002,25.885999999999967 L275.5100000000002,25.775999999999954 L276.4899999999998,25.775999999999954 L276.4899999999998,25.885999999999967 C276.40999999999985,25.91700000000003 276.35000000000036,25.956000000000017 276.3199999999997,26.003000000000043 C276.28999999999996,26.049999999999955 276.2399999999998,26.15700000000004 276.1700000000001,26.32299999999998 L275.0600000000004,29.089000000000055 C274.9499999999998,29.349000000000046 274.8800000000001,29.479000000000042 274.84000000000015,29.479000000000042 C274.8000000000002,29.479000000000042 274.72999999999956,29.36500000000001 274.64999999999964,29.135999999999967 L273.9200000000001,27.245000000000005 L273.02999999999975,29.16700000000003 C272.9300000000003,29.375 272.8599999999997,29.479000000000042 272.8199999999997,29.479000000000042 C272.77999999999975,29.479000000000042 272.71000000000004,29.36500000000001 272.6199999999999,29.135999999999967 L271.53999999999996,26.400999999999954 C271.46000000000004,26.192999999999984 271.3900000000003,26.057999999999993 271.34000000000015,25.995000000000005 C271.28999999999996,25.932999999999993 271.21000000000004,25.895999999999958 271.1199999999999,25.885999999999967 L271.1199999999999,25.775999999999954 L272.5600000000004,25.775999999999954 L272.5600000000004,25.885999999999967 C272.40999999999985,25.90700000000004 272.3100000000004,25.934999999999945 272.2600000000002,25.97199999999998 C272.21000000000004,26.008000000000038 272.1800000000003,26.067999999999984 272.1800000000003,26.150999999999954 C272.1800000000003,26.235000000000014 272.1999999999998,26.317999999999984 272.22999999999956,26.400999999999954 L273.02999999999975,28.479000000000042 L273.7399999999998,26.885999999999967 M276.7600000000002,28.57299999999998 C276.7600000000002,28.479000000000042 276.77000000000044,28.394000000000005 276.78999999999996,28.315000000000055 C276.8100000000004,28.236999999999966 276.85000000000036,28.162000000000035 276.89999999999964,28.089000000000055 C276.9499999999998,28.015999999999963 277.0100000000002,27.951000000000022 277.0600000000004,27.894000000000005 C277.1099999999997,27.836000000000013 277.1800000000003,27.775999999999954 277.27999999999975,27.714000000000055 C277.3699999999999,27.650999999999954 277.4499999999998,27.599000000000046 277.5100000000002,27.557999999999993 C277.5699999999997,27.515999999999963 277.6700000000001,27.46900000000005 277.78999999999996,27.41700000000003 C277.9200000000001,27.36500000000001 278.0100000000002,27.32299999999998 278.0799999999999,27.29200000000003 C278.14999999999964,27.260999999999967 278.2600000000002,27.216000000000008 278.40999999999985,27.158999999999992 C278.5600000000004,27.101999999999975 278.6700000000001,27.057999999999993 278.72999999999956,27.025999999999954 L278.72999999999956,26.54200000000003 C278.72999999999956,26.104000000000042 278.52999999999975,25.885999999999967 278.1400000000003,25.885999999999967 C277.97000000000025,25.885999999999967 277.8299999999999,25.924999999999955 277.72000000000025,26.003000000000043 C277.6099999999997,26.081000000000017 277.5600000000004,26.172000000000025 277.5600000000004,26.275999999999954 C277.5600000000004,26.317999999999984 277.5600000000004,26.375 277.5799999999999,26.44799999999998 C277.60000000000036,26.520999999999958 277.60000000000036,26.567999999999984 277.60000000000036,26.589000000000055 C277.60000000000036,26.682999999999993 277.5699999999997,26.763000000000034 277.4899999999998,26.831000000000017 C277.4200000000001,26.899 277.3299999999999,26.932999999999993 277.22999999999956,26.932999999999993 C277.1400000000003,26.932999999999993 277.0500000000002,26.899 276.9899999999998,26.831000000000017 C276.9200000000001,26.763000000000034 276.8900000000003,26.682999999999993 276.8900000000003,26.589000000000055 C276.8900000000003,26.339000000000055 277.02000000000044,26.128000000000043 277.27999999999975,25.956000000000017 C277.53999999999996,25.783999999999992 277.85000000000036,25.69799999999998 278.22999999999956,25.69799999999998 C278.65999999999985,25.69799999999998 278.9499999999998,25.80200000000002 279.1099999999997,26.010999999999967 C279.27000000000044,26.21900000000005 279.35000000000036,26.537000000000035 279.35000000000036,26.964000000000055 L279.35000000000036,28.510999999999967 C279.35000000000036,28.687999999999988 279.3699999999999,28.809999999999945 279.40999999999985,28.878000000000043 C279.4499999999998,28.946000000000026 279.5100000000002,28.979000000000042 279.60000000000036,28.979000000000042 C279.71000000000004,28.979000000000042 279.8199999999997,28.92700000000002 279.9499999999998,28.82299999999998 L279.9499999999998,29.04200000000003 C279.8100000000004,29.19799999999998 279.6899999999996,29.30499999999995 279.59000000000015,29.361999999999966 C279.47999999999956,29.41999999999996 279.3599999999997,29.44799999999998 279.22999999999956,29.44799999999998 C279.0699999999997,29.44799999999998 278.96000000000004,29.400999999999954 278.8900000000003,29.307999999999993 C278.8100000000004,29.214000000000055 278.77000000000044,29.062999999999988 278.7399999999998,28.854000000000042 C278.28999999999996,29.25 277.89999999999964,29.44799999999998 277.59000000000015,29.44799999999998 C277.35000000000036,29.44799999999998 277.14999999999964,29.366999999999962 276.9899999999998,29.206000000000017 C276.84000000000015,29.04499999999996 276.7600000000002,28.833999999999946 276.7600000000002,28.57299999999998 M278.72999999999956,28.370000000000005 L278.72999999999956,27.214000000000055 C278.25,27.390999999999963 277.9200000000001,27.562999999999988 277.72999999999956,27.729000000000042 C277.53999999999996,27.895999999999958 277.4499999999998,28.09400000000005 277.4499999999998,28.32299999999998 C277.4499999999998,28.54200000000003 277.5,28.702999999999975 277.60000000000036,28.807999999999993 C277.71000000000004,28.912000000000035 277.8199999999997,28.964000000000055 277.9499999999998,28.964000000000055 C278.1199999999999,28.964000000000055 278.3199999999997,28.90700000000004 278.52999999999975,28.79200000000003 C278.6099999999997,28.74000000000001 278.65999999999985,28.687999999999988 278.6899999999996,28.635999999999967 C278.72000000000025,28.583999999999946 278.72999999999956,28.495000000000005 278.72999999999956,28.370000000000005 M282.4200000000001,26.44799999999998 C282.3299999999999,26.44799999999998 282.22999999999956,26.400999999999954 282.1099999999997,26.307999999999993 C281.9899999999998,26.214000000000055 281.9200000000001,26.16700000000003 281.8900000000003,26.16700000000003 C281.77999999999975,26.16700000000003 281.65999999999985,26.245000000000005 281.52999999999975,26.400999999999954 C281.3900000000003,26.557999999999993 281.3199999999997,26.702999999999975 281.3199999999997,26.839000000000055 L281.3199999999997,28.650999999999954 C281.3199999999997,28.879999999999995 281.3699999999999,29.033999999999992 281.46000000000004,29.111999999999966 C281.53999999999996,29.190000000000055 281.72000000000025,29.235000000000014 281.9899999999998,29.245000000000005 L281.9899999999998,29.370000000000005 L280.0699999999997,29.370000000000005 L280.0699999999997,29.245000000000005 C280.3299999999999,29.202999999999975 280.4899999999998,29.150999999999954 280.5500000000002,29.089000000000055 C280.6099999999997,29.025999999999954 280.6400000000003,28.895999999999958 280.6400000000003,28.69799999999998 L280.6400000000003,26.682999999999993 C280.6400000000003,26.504999999999995 280.6199999999999,26.379999999999995 280.5799999999999,26.307999999999993 C280.53999999999996,26.235000000000014 280.47000000000025,26.19799999999998 280.3699999999999,26.19799999999998 C280.28999999999996,26.19799999999998 280.1899999999996,26.208999999999946 280.09000000000015,26.229000000000042 L280.09000000000015,26.104000000000042 C280.52000000000044,25.96900000000005 280.90999999999985,25.833999999999946 281.27999999999975,25.69799999999998 L281.3199999999997,25.714000000000055 L281.3199999999997,26.41700000000003 C281.52000000000044,26.145999999999958 281.6899999999996,25.958999999999946 281.8199999999997,25.854000000000042 C281.96000000000004,25.75 282.1099999999997,25.69799999999998 282.27999999999975,25.69799999999998 C282.4200000000001,25.69799999999998 282.52999999999975,25.73199999999997 282.60000000000036,25.799999999999955 C282.6800000000003,25.866999999999962 282.71000000000004,25.96900000000005 282.71000000000004,26.104000000000042 C282.71000000000004,26.208999999999946 282.6899999999996,26.29200000000003 282.6400000000003,26.354000000000042 C282.5799999999999,26.41700000000003 282.5100000000002,26.44799999999998 282.4200000000001,26.44799999999998 M285.39999999999964,24.729000000000042 C285.3199999999997,24.729000000000042 285.2399999999998,24.69799999999998 285.1800000000003,24.635999999999967 C285.1199999999999,24.57299999999998 285.0699999999997,24.504999999999995 285.02999999999975,24.432999999999993 C285.0,24.360000000000014 284.9399999999996,24.29200000000003 284.8699999999999,24.229000000000042 C284.8000000000002,24.16700000000003 284.71000000000004,24.135999999999967 284.6199999999999,24.135999999999967 C284.3199999999997,24.135999999999967 284.1700000000001,24.370000000000005 284.1700000000001,24.839000000000055 L284.1700000000001,25.775999999999954 L285.14999999999964,25.775999999999954 L285.14999999999964,26.010999999999967 L284.1700000000001,26.010999999999967 L284.1700000000001,28.54200000000003 C284.1700000000001,28.833999999999946 284.21000000000004,29.020999999999958 284.28999999999996,29.104000000000042 C284.3699999999999,29.187999999999988 284.5799999999999,29.235000000000014 284.9200000000001,29.245000000000005 L284.9200000000001,29.370000000000005 L282.8199999999997,29.370000000000005 L282.8199999999997,29.245000000000005 C283.1099999999997,29.235000000000014 283.3000000000002,29.187999999999988 283.3800000000001,29.104000000000042 C283.46000000000004,29.020999999999958 283.4899999999998,28.833999999999946 283.4899999999998,28.54200000000003 L283.4899999999998,26.010999999999967 L282.84000000000015,26.010999999999967 L282.84000000000015,25.775999999999954 L283.4899999999998,25.775999999999954 C283.5100000000002,25.172000000000025 283.6199999999999,24.706000000000017 283.8299999999999,24.378000000000043 C284.03999999999996,24.049999999999955 284.39999999999964,23.885999999999967 284.89999999999964,23.885999999999967 C285.1400000000003,23.885999999999967 285.34000000000015,23.934999999999945 285.4899999999998,24.033999999999992 C285.64999999999964,24.133000000000038 285.72999999999956,24.254999999999995 285.72999999999956,24.400999999999954 C285.72999999999956,24.495000000000005 285.6999999999998,24.57299999999998 285.6400000000003,24.635999999999967 C285.5699999999997,24.69799999999998 285.4899999999998,24.729000000000042 285.39999999999964,24.729000000000042 M293.10000000000036,24.79200000000003 L291.0600000000004,29.370000000000005 L290.9499999999998,29.370000000000005 L288.9499999999998,24.979000000000042 L288.9499999999998,28.19799999999998 C288.9499999999998,28.604000000000042 288.9899999999998,28.873000000000047 289.09000000000015,29.003000000000043 C289.1800000000003,29.133000000000038 289.3900000000003,29.202999999999975 289.6999999999998,29.214000000000055 L289.6999999999998,29.370000000000005 L287.8199999999997,29.370000000000005 L287.8199999999997,29.214000000000055 C288.14999999999964,29.192999999999984 288.35000000000036,29.120000000000005 288.4499999999998,28.995000000000005 C288.53999999999996,28.870000000000005 288.59000000000015,28.604000000000042 288.59000000000015,28.19799999999998 L288.59000000000015,24.94799999999998 C288.59000000000015,24.65700000000004 288.53999999999996,24.46900000000005 288.46000000000004,24.385999999999967 C288.3699999999999,24.30200000000002 288.15999999999985,24.25 287.84000000000015,24.229000000000042 L287.84000000000015,24.07299999999998 L289.4200000000001,24.07299999999998 L291.2600000000002,28.120000000000005 L293.02999999999975,24.07299999999998 L294.6199999999999,24.07299999999998 L294.6199999999999,24.229000000000042 C294.3199999999997,24.260999999999967 294.1300000000001,24.317999999999984 294.0500000000002,24.400999999999954 C293.97000000000025,24.485000000000014 293.9300000000003,24.66700000000003 293.9300000000003,24.94799999999998 L293.9300000000003,28.495000000000005 C293.9300000000003,28.775999999999954 293.97000000000025,28.961000000000013 294.0600000000004,29.049999999999955 C294.1400000000003,29.138000000000034 294.3299999999999,29.192999999999984 294.6199999999999,29.214000000000055 L294.6199999999999,29.370000000000005 L292.3900000000003,29.370000000000005 L292.3900000000003,29.214000000000055 C292.6999999999998,29.192999999999984 292.89999999999964,29.135999999999967 292.97999999999956,29.04200000000003 C293.0600000000004,28.94799999999998 293.10000000000036,28.74000000000001 293.10000000000036,28.41700000000003 L293.10000000000036,24.79200000000003 M298.59000000000015,28.94799999999998 L298.59000000000015,29.07299999999998 C298.1700000000001,29.187999999999988 297.8100000000004,29.312999999999988 297.4899999999998,29.44799999999998 L297.46000000000004,29.432999999999993 L297.4499999999998,28.745000000000005 C297.4399999999996,28.765999999999963 297.3900000000003,28.815000000000055 297.3100000000004,28.894000000000005 C297.2399999999998,28.97199999999998 297.1800000000003,29.025999999999954 297.14999999999964,29.057999999999993 C297.1199999999999,29.089000000000055 297.0600000000004,29.135999999999967 296.9899999999998,29.19799999999998 C296.90999999999985,29.260999999999967 296.84000000000015,29.30499999999995 296.77999999999975,29.331000000000017 C296.72999999999956,29.35699999999997 296.64999999999964,29.383000000000038 296.5600000000004,29.408999999999992 C296.47999999999956,29.434999999999945 296.3900000000003,29.44799999999998 296.28999999999996,29.44799999999998 C296.0,29.44799999999998 295.77000000000044,29.351999999999975 295.59000000000015,29.158999999999992 C295.40999999999985,28.966000000000008 295.3199999999997,28.714000000000055 295.3199999999997,28.400999999999954 L295.3199999999997,26.385999999999967 C295.3199999999997,26.208999999999946 295.28999999999996,26.083999999999946 295.22000000000025,26.010999999999967 C295.14999999999964,25.937999999999988 295.02000000000044,25.895999999999958 294.8199999999997,25.885999999999967 L294.8199999999997,25.775999999999954 L295.9899999999998,25.775999999999954 L295.9899999999998,28.370000000000005 C295.9899999999998,28.525999999999954 296.0500000000002,28.663999999999987 296.1700000000001,28.783999999999992 C296.27999999999975,28.903999999999996 296.40999999999985,28.964000000000055 296.5600000000004,28.964000000000055 C296.6199999999999,28.964000000000055 296.6899999999996,28.956000000000017 296.77000000000044,28.940000000000055 C296.85000000000036,28.924999999999955 296.9399999999996,28.895999999999958 297.03999999999996,28.854000000000042 C297.14999999999964,28.812999999999988 297.22999999999956,28.741999999999962 297.3100000000004,28.644000000000005 C297.3800000000001,28.54499999999996 297.4200000000001,28.422000000000025 297.4200000000001,28.275999999999954 L297.4200000000001,26.400999999999954 C297.4200000000001,26.214000000000055 297.3800000000001,26.086000000000013 297.3100000000004,26.019000000000005 C297.22999999999956,25.951000000000022 297.0699999999997,25.912000000000035 296.8199999999997,25.900999999999954 L296.8199999999997,25.775999999999954 L298.09000000000015,25.775999999999954 L298.09000000000015,28.495000000000005 C298.09000000000015,28.682999999999993 298.1199999999999,28.80499999999995 298.1800000000003,28.861999999999966 C298.2399999999998,28.91999999999996 298.3699999999999,28.94799999999998 298.5600000000004,28.94799999999998 L298.59000000000015,28.94799999999998 M300.78999999999996,25.854000000000042 C300.8000000000002,25.854000000000042 300.84000000000015,25.827999999999975 300.9200000000001,25.775999999999954 L301.0100000000002,25.775999999999954 L301.03999999999996,26.854000000000042 L300.9200000000001,26.854000000000042 C300.8299999999999,26.5 300.72000000000025,26.248000000000047 300.59000000000015,26.09699999999998 C300.4499999999998,25.946000000000026 300.27000000000044,25.870000000000005 300.03999999999996,25.870000000000005 C299.8599999999997,25.870000000000005 299.72000000000025,25.922000000000025 299.60000000000036,26.025999999999954 C299.4899999999998,26.129999999999995 299.4300000000003,26.260999999999967 299.4300000000003,26.41700000000003 C299.4300000000003,26.645999999999958 299.5500000000002,26.827999999999975 299.77999999999975,26.964000000000055 L300.6400000000003,27.479000000000042 C300.8699999999999,27.625 301.0500000000002,27.770999999999958 301.14999999999964,27.91700000000003 C301.2600000000002,28.062999999999988 301.3100000000004,28.235000000000014 301.3100000000004,28.432999999999993 C301.3100000000004,28.702999999999975 301.1999999999998,28.940000000000055 300.97000000000025,29.144000000000005 C300.75,29.34699999999998 300.47999999999956,29.44799999999998 300.1800000000003,29.44799999999998 C300.0500000000002,29.44799999999998 299.8699999999999,29.424999999999955 299.6400000000003,29.378000000000043 C299.4200000000001,29.331000000000017 299.27999999999975,29.307999999999993 299.22999999999956,29.307999999999993 C299.14999999999964,29.307999999999993 299.0799999999999,29.339000000000055 299.03999999999996,29.400999999999954 L298.9300000000003,29.400999999999954 L298.9300000000003,28.150999999999954 L299.0699999999997,28.150999999999954 C299.15999999999985,28.525999999999954 299.2600000000002,28.79200000000003 299.3699999999999,28.94799999999998 C299.53999999999996,29.16700000000003 299.77999999999975,29.275999999999954 300.09000000000015,29.275999999999954 C300.28999999999996,29.275999999999954 300.4499999999998,29.224000000000046 300.5600000000004,29.120000000000005 C300.6800000000003,29.015999999999963 300.7399999999998,28.875 300.7399999999998,28.69799999999998 C300.7399999999998,28.458999999999946 300.60000000000036,28.260999999999967 300.3199999999997,28.104000000000042 L299.8699999999999,27.839000000000055 C299.52999999999975,27.640999999999963 299.27999999999975,27.456000000000017 299.1400000000003,27.283999999999992 C299.0,27.111999999999966 298.9300000000003,26.912000000000035 298.9300000000003,26.682999999999993 C298.9300000000003,26.390999999999963 299.02999999999975,26.153999999999996 299.2399999999998,25.97199999999998 C299.4399999999996,25.788999999999987 299.6999999999998,25.69799999999998 300.02999999999975,25.69799999999998 C300.1899999999996,25.69799999999998 300.35000000000036,25.724000000000046 300.5100000000002,25.775999999999954 C300.6700000000001,25.827999999999975 300.7600000000002,25.854000000000042 300.78999999999996,25.854000000000042 M302.0699999999997,26.229000000000042 C301.9499999999998,26.229000000000042 301.8299999999999,26.235000000000014 301.72999999999956,26.245000000000005 L301.72999999999956,26.135999999999967 C302.10000000000036,26.03200000000004 302.52000000000044,25.885999999999967 302.97999999999956,25.69799999999998 L303.0100000000002,25.714000000000055 L303.0100000000002,28.557999999999993 C303.0100000000002,28.839000000000055 303.03999999999996,29.019000000000005 303.1099999999997,29.09699999999998 C303.1800000000003,29.174999999999955 303.34000000000015,29.224000000000046 303.60000000000036,29.245000000000005 L303.60000000000036,29.370000000000005 L301.6999999999998,29.370000000000005 L301.6999999999998,29.245000000000005 C301.97999999999956,29.235000000000014 302.15999999999985,29.187999999999988 302.22999999999956,29.104000000000042 C302.3000000000002,29.020999999999958 302.34000000000015,28.839000000000055 302.34000000000015,28.557999999999993 L302.34000000000015,26.69799999999998 C302.34000000000015,26.520999999999958 302.3199999999997,26.399 302.27999999999975,26.331000000000017 C302.22999999999956,26.263000000000034 302.1700000000001,26.229000000000042 302.0699999999997,26.229000000000042 M302.60000000000036,23.900999999999954 C302.72000000000025,23.900999999999954 302.8199999999997,23.942999999999984 302.89999999999964,24.025999999999954 C302.97999999999956,24.110000000000014 303.02999999999975,24.208999999999946 303.02999999999975,24.32299999999998 C303.02999999999975,24.437999999999988 302.97999999999956,24.533999999999992 302.89999999999964,24.611999999999966 C302.8199999999997,24.690000000000055 302.72000000000025,24.729000000000042 302.60000000000036,24.729000000000042 C302.4899999999998,24.729000000000042 302.3900000000003,24.687999999999988 302.3100000000004,24.604000000000042 C302.2399999999998,24.520999999999958 302.1999999999998,24.424999999999955 302.1999999999998,24.315000000000055 C302.1999999999998,24.206000000000017 302.2399999999998,24.110000000000014 302.3100000000004,24.025999999999954 C302.3900000000003,23.942999999999984 302.4899999999998,23.900999999999954 302.60000000000036,23.900999999999954 M303.9899999999998,27.66700000000003 C303.9899999999998,27.07299999999998 304.1700000000001,26.59699999999998 304.52000000000044,26.236999999999966 C304.8699999999999,25.878000000000043 305.27999999999975,25.69799999999998 305.7399999999998,25.69799999999998 C306.0799999999999,25.69799999999998 306.3599999999997,25.778999999999996 306.60000000000036,25.940000000000055 C306.8299999999999,26.101999999999975 306.9499999999998,26.297000000000025 306.9499999999998,26.525999999999954 C306.9499999999998,26.610000000000014 306.90999999999985,26.684999999999945 306.84000000000015,26.753000000000043 C306.77000000000044,26.821000000000026 306.6800000000003,26.854000000000042 306.5699999999997,26.854000000000042 C306.39999999999964,26.854000000000042 306.27999999999975,26.735000000000014 306.21000000000004,26.495000000000005 L306.1700000000001,26.32299999999998 C306.1199999999999,26.16700000000003 306.0699999999997,26.062999999999988 306.0100000000002,26.010999999999967 C305.9499999999998,25.958999999999946 305.84000000000015,25.932999999999993 305.6999999999998,25.932999999999993 C305.3699999999999,25.932999999999993 305.1099999999997,26.059999999999945 304.9200000000001,26.315000000000055 C304.72000000000025,26.571000000000026 304.6199999999999,26.90700000000004 304.6199999999999,27.32299999999998 C304.6199999999999,27.770999999999958 304.72999999999956,28.140999999999963 304.96000000000004,28.432999999999993 C305.1899999999996,28.724000000000046 305.4899999999998,28.870000000000005 305.85000000000036,28.870000000000005 C306.0699999999997,28.870000000000005 306.2600000000002,28.812999999999988 306.4200000000001,28.69799999999998 C306.59000000000015,28.583999999999946 306.7600000000002,28.390999999999963 306.9499999999998,28.120000000000005 L307.0600000000004,28.182999999999993 C307.0100000000002,28.297000000000025 306.96000000000004,28.388000000000034 306.9200000000001,28.456000000000017 C306.8900000000003,28.524 306.8199999999997,28.628000000000043 306.71000000000004,28.769000000000005 C306.6099999999997,28.908999999999992 306.5100000000002,29.020999999999958 306.40999999999985,29.104000000000042 C306.3100000000004,29.187999999999988 306.1800000000003,29.265999999999963 306.02000000000044,29.339000000000055 C305.8599999999997,29.412000000000035 305.6899999999996,29.44799999999998 305.5100000000002,29.44799999999998 C305.0699999999997,29.44799999999998 304.71000000000004,29.28200000000004 304.4200000000001,28.94799999999998 C304.1400000000003,28.61500000000001 303.9899999999998,28.187999999999988 303.9899999999998,27.66700000000003 M308.34000000000015,28.57299999999998 C308.4499999999998,28.57299999999998 308.5500000000002,28.616999999999962 308.6400000000003,28.706000000000017 C308.72999999999956,28.79499999999996 308.77999999999975,28.900999999999954 308.77999999999975,29.025999999999954 C308.77999999999975,29.140999999999963 308.72999999999956,29.241999999999962 308.6400000000003,29.331000000000017 C308.5500000000002,29.41999999999996 308.4499999999998,29.464000000000055 308.3199999999997,29.464000000000055 C308.21000000000004,29.464000000000055 308.1099999999997,29.41999999999996 308.02999999999975,29.331000000000017 C307.9399999999996,29.241999999999962 307.89999999999964,29.140999999999963 307.89999999999964,29.025999999999954 C307.89999999999964,28.900999999999954 307.9499999999998,28.79499999999996 308.02999999999975,28.706000000000017 C308.1199999999999,28.616999999999962 308.22000000000025,28.57299999999998 308.34000000000015,28.57299999999998" />
</svg>
