<?xml version="1.0" encoding="UTF-8" standalone="yes"?>
<svg width="256.0px" height="256.0px" xmlns="http://www.w3.org/2000/svg" xmlns:xlink="http://www.w3.org/1999/xlink" version="1.2" baseProfile="tiny">
<path d="M53.79999999999927,30.79200000000003 C53.70000000000073,30.69799999999998 53.5,30.591000000000008 53.399999999999636,30.47199999999998 C53.20000000000073,30.351999999999975 53.100000000000364,30.184999999999945 52.899999999999636,29.97199999999998 C52.70000000000073,29.758000000000038 52.5,29.53200000000004 52.399999999999636,29.29200000000003 C52.20000000000073,29.05200000000002 52.100000000000364,28.760999999999967 52.0,28.41700000000003 C51.899999999999636,28.07299999999998 51.899999999999636,27.71900000000005 51.899999999999636,27.354000000000042 C51.899999999999636,26.96900000000005 51.899999999999636,26.604000000000042 52.0,26.260999999999967 C52.100000000000364,25.91700000000003 52.20000000000073,25.633000000000038 52.399999999999636,25.408999999999992 C52.5,25.184999999999945 52.70000000000073,24.966000000000008 52.899999999999636,24.753000000000043 C53.100000000000364,24.538999999999987 53.20000000000073,24.383000000000038 53.399999999999636,24.283999999999992 C53.5,24.184999999999945 53.70000000000073,24.077999999999975 53.79999999999927,23.964000000000055 L53.899999999999636,24.089000000000055 C53.70000000000073,24.287000000000035 53.5,24.461000000000013 53.29999999999927,24.611999999999966 C53.20000000000073,24.763000000000034 53.100000000000364,24.964000000000055 52.899999999999636,25.214000000000055 C52.79999999999927,25.464000000000055 52.70000000000073,25.760999999999967 52.600000000000364,26.104000000000042 C52.600000000000364,26.44799999999998 52.5,26.860000000000014 52.5,27.339000000000055 C52.5,27.827999999999975 52.600000000000364,28.253000000000043 52.600000000000364,28.611999999999966 C52.70000000000073,28.97199999999998 52.79999999999927,29.275999999999954 52.899999999999636,29.525999999999954 C53.100000000000364,29.775999999999954 53.20000000000073,29.98199999999997 53.29999999999927,30.144000000000005 C53.5,30.30499999999995 53.70000000000073,30.474000000000046 53.899999999999636,30.650999999999954 L53.79999999999927,30.79200000000003 M54.29999999999927,27.66700000000003 C54.29999999999927,27.07299999999998 54.5,26.59699999999998 54.899999999999636,26.236999999999966 C55.20000000000073,25.878000000000043 55.600000000000364,25.69799999999998 56.100000000000364,25.69799999999998 C56.399999999999636,25.69799999999998 56.70000000000073,25.778999999999996 56.899999999999636,25.940000000000055 C57.20000000000073,26.101999999999975 57.29999999999927,26.297000000000025 57.29999999999927,26.525999999999954 C57.29999999999927,26.610000000000014 57.29999999999927,26.684999999999945 57.20000000000073,26.753000000000043 C57.100000000000364,26.821000000000026 57.0,26.854000000000042 56.899999999999636,26.854000000000042 C56.70000000000073,26.854000000000042 56.600000000000364,26.735000000000014 56.600000000000364,26.495000000000005 L56.5,26.32299999999998 C56.5,26.16700000000003 56.399999999999636,26.062999999999988 56.399999999999636,26.010999999999967 C56.29999999999927,25.958999999999946 56.20000000000073,25.932999999999993 56.0,25.932999999999993 C55.70000000000073,25.932999999999993 55.5,26.059999999999945 55.29999999999927,26.315000000000055 C55.100000000000364,26.571000000000026 55.0,26.90700000000004 55.0,27.32299999999998 C55.0,27.770999999999958 55.100000000000364,28.140999999999963 55.29999999999927,28.432999999999993 C55.5,28.724000000000046 55.79999999999927,28.870000000000005 56.20000000000073,28.870000000000005 C56.399999999999636,28.870000000000005 56.600000000000364,28.812999999999988 56.79999999999927,28.69799999999998 C56.899999999999636,28.583999999999946 57.100000000000364,28.390999999999963 57.29999999999927,28.120000000000005 L57.399999999999636,28.182999999999993 C57.399999999999636,28.297000000000025 57.29999999999927,28.388000000000034 57.29999999999927,28.456000000000017 C57.20000000000073,28.524 57.20000000000073,28.628000000000043 57.100000000000364,28.769000000000005 C57.0,28.908999999999992 56.899999999999636,29.020999999999958 56.79999999999927,29.104000000000042 C56.70000000000073,29.187999999999988 56.5,29.265999999999963 56.399999999999636,29.339000000000055 C56.20000000000073,29.412000000000035 56.0,29.44799999999998 55.899999999999636,29.44799999999998 C55.399999999999636,29.44799999999998 55.100000000000364,29.28200000000004 54.79999999999927,28.94799999999998 C54.5,28.61500000000001 54.29999999999927,28.187999999999988 54.29999999999927,27.66700000000003 M58.0,23.964000000000055 C58.20000000000073,24.047000000000025 58.29999999999927,24.149 58.5,24.269000000000005 C58.600000000000364,24.388000000000034 58.79999999999927,24.55499999999995 59.0,24.769000000000005 C59.20000000000073,24.98199999999997 59.29999999999927,25.211000000000013 59.5,25.456000000000017 C59.600000000000364,25.701000000000022 59.70000000000073,25.991999999999962 59.79999999999927,26.331000000000017 C59.899999999999636,26.66999999999996 60.0,27.025999999999954 60.0,27.400999999999954 C60.0,27.775999999999954 59.899999999999636,28.135999999999967 59.79999999999927,28.479000000000042 C59.70000000000073,28.82299999999998 59.600000000000364,29.110000000000014 59.5,29.339000000000055 C59.29999999999927,29.567999999999984 59.20000000000073,29.787000000000035 59.0,29.995000000000005 C58.79999999999927,30.202999999999975 58.600000000000364,30.360000000000014 58.5,30.464000000000055 C58.29999999999927,30.567999999999984 58.20000000000073,30.67700000000002 58.0,30.79200000000003 L57.899999999999636,30.650999999999954 C58.20000000000073,30.464000000000055 58.399999999999636,30.29200000000003 58.5,30.135999999999967 C58.600000000000364,29.979000000000042 58.79999999999927,29.778999999999996 58.899999999999636,29.533999999999992 C59.0,29.288999999999987 59.100000000000364,28.995000000000005 59.20000000000073,28.650999999999954 C59.29999999999927,28.307999999999993 59.29999999999927,27.895999999999958 59.29999999999927,27.41700000000003 C59.29999999999927,26.92700000000002 59.29999999999927,26.503000000000043 59.20000000000073,26.144000000000005 C59.100000000000364,25.783999999999992 59.0,25.476999999999975 58.899999999999636,25.22199999999998 C58.79999999999927,24.966000000000008 58.600000000000364,24.760999999999967 58.5,24.604000000000042 C58.399999999999636,24.44799999999998 58.20000000000073,24.275999999999954 57.899999999999636,24.089000000000055 L58.0,23.964000000000055 M63.79999999999927,24.635999999999967 C63.70000000000073,24.635999999999967 63.5,24.692999999999984 63.20000000000073,24.807999999999993 L63.20000000000073,24.69799999999998 L64.60000000000036,23.964000000000055 L64.70000000000073,23.979000000000042 L64.70000000000073,28.775999999999954 C64.70000000000073,28.974000000000046 64.79999999999927,29.101999999999975 64.89999999999964,29.158999999999992 C65.0,29.216000000000008 65.20000000000073,29.245000000000005 65.5,29.245000000000005 L65.5,29.370000000000005 L63.29999999999927,29.370000000000005 L63.29999999999927,29.245000000000005 C63.600000000000364,29.235000000000014 63.79999999999927,29.190000000000055 63.899999999999636,29.111999999999966 C64.0,29.033999999999992 64.0,28.870000000000005 64.0,28.620000000000005 L64.0,25.010999999999967 C64.0,24.760999999999967 64.0,24.635999999999967 63.79999999999927,24.635999999999967 M66.79999999999927,29.54200000000003 L66.79999999999927,29.385999999999967 C67.39999999999964,29.28200000000004 67.89999999999964,29.024 68.29999999999927,28.611999999999966 C68.70000000000073,28.201000000000022 69.0,27.66700000000003 69.20000000000073,27.010999999999967 C68.79999999999927,27.32299999999998 68.39999999999964,27.479000000000042 68.0,27.479000000000042 C67.60000000000036,27.479000000000042 67.20000000000073,27.327999999999975 66.89999999999964,27.025999999999954 C66.70000000000073,26.724000000000046 66.5,26.333999999999946 66.5,25.854000000000042 C66.5,25.312999999999988 66.70000000000073,24.860000000000014 67.0,24.495000000000005 C67.29999999999927,24.129999999999995 67.70000000000073,23.94799999999998 68.20000000000073,23.94799999999998 C68.79999999999927,23.94799999999998 69.20000000000073,24.158999999999992 69.5,24.581000000000017 C69.89999999999964,25.003000000000043 70.0,25.547000000000025 70.0,26.214000000000055 C70.0,26.432999999999993 70.0,26.653999999999996 70.0,26.878000000000043 C69.89999999999964,27.101999999999975 69.79999999999927,27.366999999999962 69.70000000000073,27.674999999999955 C69.60000000000036,27.98199999999997 69.39999999999964,28.254999999999995 69.20000000000073,28.495000000000005 C68.89999999999964,28.735000000000014 68.60000000000036,28.952999999999975 68.20000000000073,29.150999999999954 C67.79999999999927,29.349000000000046 67.29999999999927,29.479000000000042 66.79999999999927,29.54200000000003 M68.29999999999927,27.120000000000005 C68.39999999999964,27.120000000000005 68.5,27.10699999999997 68.60000000000036,27.081000000000017 C68.79999999999927,27.05499999999995 68.89999999999964,26.991999999999962 69.0,26.894000000000005 C69.10000000000036,26.79499999999996 69.20000000000073,26.672000000000025 69.20000000000073,26.525999999999954 L69.20000000000073,26.214000000000055 C69.20000000000073,24.860000000000014 68.89999999999964,24.182999999999993 68.20000000000073,24.182999999999993 C68.0,24.182999999999993 67.79999999999927,24.226999999999975 67.70000000000073,24.315000000000055 C67.60000000000036,24.403999999999996 67.5,24.520999999999958 67.5,24.66700000000003 C67.39999999999964,24.812999999999988 67.39999999999964,24.958999999999946 67.29999999999927,25.104000000000042 C67.29999999999927,25.25 67.29999999999927,25.40700000000004 67.29999999999927,25.57299999999998 C67.29999999999927,26.05200000000002 67.39999999999964,26.42999999999995 67.60000000000036,26.706000000000017 C67.70000000000073,26.98199999999997 68.0,27.120000000000005 68.29999999999927,27.120000000000005 M72.39999999999964,29.479000000000042 C71.79999999999927,29.479000000000042 71.39999999999964,29.265999999999963 71.10000000000036,28.839000000000055 C70.70000000000073,28.412000000000035 70.60000000000036,27.84400000000005 70.60000000000036,27.135999999999967 C70.60000000000036,26.91700000000003 70.60000000000036,26.692999999999984 70.60000000000036,26.464000000000055 C70.70000000000073,26.235000000000014 70.79999999999927,25.97199999999998 70.89999999999964,25.674999999999955 C71.10000000000036,25.378000000000043 71.20000000000073,25.111999999999966 71.5,24.878000000000043 C71.70000000000073,24.644000000000005 72.0,24.434999999999945 72.39999999999964,24.253000000000043 C72.89999999999964,24.071000000000026 73.29999999999927,23.952999999999975 73.89999999999964,23.900999999999954 L73.89999999999964,24.025999999999954 C73.29999999999927,24.129999999999995 72.70000000000073,24.385999999999967 72.29999999999927,24.79200000000003 C71.89999999999964,25.19799999999998 71.60000000000036,25.702999999999975 71.5,26.307999999999993 C71.79999999999927,26.162000000000035 71.89999999999964,26.067999999999984 72.10000000000036,26.025999999999954 C72.20000000000073,25.985000000000014 72.39999999999964,25.964000000000055 72.5,25.964000000000055 C73.0,25.964000000000055 73.39999999999964,26.111999999999966 73.70000000000073,26.408999999999992 C73.89999999999964,26.706000000000017 74.10000000000036,27.104000000000042 74.10000000000036,27.604000000000042 C74.10000000000036,28.15700000000004 73.89999999999964,28.60699999999997 73.60000000000036,28.956000000000017 C73.29999999999927,29.30499999999995 72.89999999999964,29.479000000000042 72.39999999999964,29.479000000000042 M72.20000000000073,26.32299999999998 C71.89999999999964,26.32299999999998 71.60000000000036,26.400999999999954 71.5,26.557999999999993 C71.39999999999964,26.714000000000055 71.29999999999927,26.94799999999998 71.29999999999927,27.260999999999967 C71.29999999999927,27.875 71.39999999999964,28.360000000000014 71.60000000000036,28.714000000000055 C71.79999999999927,29.067999999999984 72.10000000000036,29.245000000000005 72.39999999999964,29.245000000000005 C72.70000000000073,29.245000000000005 72.89999999999964,29.128000000000043 73.10000000000036,28.894000000000005 C73.20000000000073,28.658999999999992 73.29999999999927,28.32299999999998 73.29999999999927,27.885999999999967 C73.29999999999927,27.385999999999967 73.20000000000073,27.0 73.0,26.729000000000042 C72.79999999999927,26.458999999999946 72.60000000000036,26.32299999999998 72.20000000000073,26.32299999999998 M76.60000000000036,26.400999999999954 C77.10000000000036,26.754999999999995 77.39999999999964,27.05200000000002 77.60000000000036,27.29200000000003 C77.79999999999927,27.53200000000004 77.89999999999964,27.807999999999993 77.89999999999964,28.120000000000005 C77.89999999999964,28.537000000000035 77.70000000000073,28.866999999999962 77.39999999999964,29.111999999999966 C77.10000000000036,29.35699999999997 76.79999999999927,29.479000000000042 76.29999999999927,29.479000000000042 C75.79999999999927,29.479000000000042 75.5,29.35699999999997 75.20000000000073,29.111999999999966 C74.89999999999964,28.866999999999962 74.70000000000073,28.547000000000025 74.70000000000073,28.150999999999954 C74.70000000000073,27.879999999999995 74.79999999999927,27.653999999999996 74.89999999999964,27.47199999999998 C75.10000000000036,27.288999999999987 75.29999999999927,27.037000000000035 75.79999999999927,26.714000000000055 C75.39999999999964,26.339000000000055 75.10000000000036,26.062999999999988 75.0,25.885999999999967 C74.79999999999927,25.708999999999946 74.79999999999927,25.49000000000001 74.79999999999927,25.229000000000042 C74.79999999999927,24.86500000000001 74.89999999999964,24.559999999999945 75.20000000000073,24.315000000000055 C75.5,24.071000000000026 75.89999999999964,23.94799999999998 76.29999999999927,23.94799999999998 C76.70000000000073,23.94799999999998 77.0,24.05499999999995 77.29999999999927,24.269000000000005 C77.5,24.48199999999997 77.70000000000073,24.760999999999967 77.70000000000073,25.104000000000042 C77.70000000000073,25.375 77.60000000000036,25.604000000000042 77.39999999999964,25.79200000000003 C77.29999999999927,25.979000000000042 77.0,26.182999999999993 76.60000000000036,26.400999999999954 M76.0,26.870000000000005 C75.79999999999927,27.057999999999993 75.60000000000036,27.241999999999962 75.5,27.424999999999955 C75.39999999999964,27.60699999999997 75.39999999999964,27.827999999999975 75.39999999999964,28.089000000000055 C75.39999999999964,28.432999999999993 75.5,28.711000000000013 75.60000000000036,28.924999999999955 C75.79999999999927,29.138000000000034 76.10000000000036,29.245000000000005 76.39999999999964,29.245000000000005 C76.60000000000036,29.245000000000005 76.79999999999927,29.163999999999987 77.0,29.003000000000043 C77.20000000000073,28.841000000000008 77.20000000000073,28.629999999999995 77.20000000000073,28.370000000000005 C77.20000000000073,28.287000000000035 77.20000000000073,28.206000000000017 77.20000000000073,28.128000000000043 C77.20000000000073,28.049999999999955 77.20000000000073,27.985000000000014 77.20000000000073,27.932999999999993 C77.10000000000036,27.879999999999995 77.10000000000036,27.817999999999984 77.0,27.745000000000005 C77.0,27.672000000000025 76.89999999999964,27.616999999999962 76.89999999999964,27.581000000000017 C76.89999999999964,27.54499999999996 76.79999999999927,27.486999999999966 76.70000000000073,27.408999999999992 C76.60000000000036,27.331000000000017 76.60000000000036,27.275999999999954 76.5,27.245000000000005 C76.5,27.214000000000055 76.39999999999964,27.153999999999996 76.29999999999927,27.065000000000055 C76.10000000000036,26.976999999999975 76.0,26.912000000000035 76.0,26.870000000000005 M76.39999999999964,26.260999999999967 C76.39999999999964,26.25 76.39999999999964,26.22199999999998 76.5,26.174999999999955 C76.60000000000036,26.128000000000043 76.60000000000036,26.091000000000008 76.60000000000036,26.065000000000055 C76.70000000000073,26.038999999999987 76.70000000000073,26.0 76.79999999999927,25.94799999999998 C76.79999999999927,25.895999999999958 76.89999999999964,25.84400000000005 76.89999999999964,25.79200000000003 C76.89999999999964,25.74000000000001 77.0,25.67700000000002 77.0,25.604000000000042 C77.10000000000036,25.53200000000004 77.10000000000036,25.451000000000022 77.10000000000036,25.361999999999966 C77.10000000000036,25.274 77.10000000000036,25.182999999999993 77.10000000000036,25.089000000000055 C77.10000000000036,24.817999999999984 77.0,24.599000000000046 76.89999999999964,24.432999999999993 C76.70000000000073,24.265999999999963 76.5,24.182999999999993 76.29999999999927,24.182999999999993 C76.0,24.182999999999993 75.79999999999927,24.258000000000038 75.60000000000036,24.408999999999992 C75.5,24.559999999999945 75.39999999999964,24.75 75.39999999999964,24.979000000000042 C75.39999999999964,25.19799999999998 75.5,25.40700000000004 75.60000000000036,25.604000000000042 C75.79999999999927,25.80200000000002 76.0,26.020999999999958 76.39999999999964,26.260999999999967 M85.70000000000073,26.69799999999998 C85.70000000000073,26.937999999999988 85.70000000000073,27.172000000000025 85.70000000000073,27.400999999999954 C85.60000000000036,27.629999999999995 85.5,27.866999999999962 85.39999999999964,28.111999999999966 C85.20000000000073,28.35699999999997 85.0,28.567999999999984 84.79999999999927,28.745000000000005 C84.60000000000036,28.922000000000025 84.29999999999927,29.071000000000026 83.89999999999964,29.190000000000055 C83.5,29.309999999999945 83.10000000000036,29.370000000000005 82.60000000000036,29.370000000000005 L80.39999999999964,29.370000000000005 L80.39999999999964,29.214000000000055 C80.70000000000073,29.192999999999984 80.89999999999964,29.140999999999963 81.0,29.057999999999993 C81.0,28.974000000000046 81.10000000000036,28.787000000000035 81.10000000000036,28.495000000000005 L81.10000000000036,24.94799999999998 C81.10000000000036,24.65700000000004 81.0,24.47199999999998 81.0,24.394000000000005 C80.89999999999964,24.315000000000055 80.70000000000073,24.260999999999967 80.39999999999964,24.229000000000042 L80.39999999999964,24.07299999999998 L82.5,24.07299999999998 C83.0,24.07299999999998 83.5,24.128000000000043 83.79999999999927,24.236999999999966 C84.20000000000073,24.34699999999998 84.5,24.486999999999966 84.79999999999927,24.658999999999992 C85.0,24.831000000000017 85.20000000000073,25.037000000000035 85.29999999999927,25.275999999999954 C85.5,25.515999999999963 85.60000000000036,25.75 85.70000000000073,25.979000000000042 C85.70000000000073,26.208999999999946 85.70000000000073,26.44799999999998 85.70000000000073,26.69799999999998 M84.79999999999927,26.760999999999967 C84.79999999999927,26.53200000000004 84.79999999999927,26.309999999999945 84.79999999999927,26.09699999999998 C84.70000000000073,25.883000000000038 84.70000000000073,25.66999999999996 84.5,25.456000000000017 C84.39999999999964,25.241999999999962 84.29999999999927,25.059999999999945 84.10000000000036,24.908999999999992 C83.89999999999964,24.758000000000038 83.60000000000036,24.633000000000038 83.29999999999927,24.533999999999992 C83.0,24.434999999999945 82.70000000000073,24.385999999999967 82.29999999999927,24.385999999999967 C82.10000000000036,24.385999999999967 82.0,24.40700000000004 82.0,24.44799999999998 C81.89999999999964,24.49000000000001 81.89999999999964,24.57299999999998 81.89999999999964,24.69799999999998 L81.89999999999964,28.745000000000005 C81.89999999999964,28.870000000000005 81.89999999999964,28.956000000000017 82.0,29.003000000000043 C82.0,29.049999999999955 82.10000000000036,29.07299999999998 82.29999999999927,29.07299999999998 C84.0,29.07299999999998 84.79999999999927,28.30200000000002 84.79999999999927,26.760999999999967 M88.70000000000073,26.885999999999967 C88.5,26.458999999999946 88.39999999999964,26.190000000000055 88.39999999999964,26.081000000000017 C88.29999999999927,25.97199999999998 88.10000000000036,25.90700000000004 88.0,25.885999999999967 L88.0,25.775999999999954 L89.60000000000036,25.775999999999954 L89.60000000000036,25.885999999999967 C89.39999999999964,25.91700000000003 89.29999999999927,25.951000000000022 89.20000000000073,25.986999999999966 C89.20000000000073,26.024 89.10000000000036,26.089000000000055 89.10000000000036,26.182999999999993 C89.10000000000036,26.245000000000005 89.20000000000073,26.400999999999954 89.29999999999927,26.650999999999954 L89.89999999999964,28.44799999999998 L90.70000000000073,26.66700000000003 C90.79999999999927,26.44799999999998 90.79999999999927,26.270999999999958 90.79999999999927,26.135999999999967 C90.79999999999927,26.07299999999998 90.79999999999927,26.024 90.70000000000073,25.986999999999966 C90.70000000000073,25.951000000000022 90.60000000000036,25.91700000000003 90.39999999999964,25.885999999999967 L90.39999999999964,25.775999999999954 L91.39999999999964,25.775999999999954 L91.39999999999964,25.885999999999967 C91.29999999999927,25.91700000000003 91.29999999999927,25.956000000000017 91.29999999999927,26.003000000000043 C91.20000000000073,26.049999999999955 91.20000000000073,26.15700000000004 91.10000000000036,26.32299999999998 L90.0,29.089000000000055 C89.89999999999964,29.349000000000046 89.79999999999927,29.479000000000042 89.79999999999927,29.479000000000042 C89.70000000000073,29.479000000000042 89.70000000000073,29.36500000000001 89.60000000000036,29.135999999999967 L88.79999999999927,27.245000000000005 L88.0,29.16700000000003 C87.89999999999964,29.375 87.79999999999927,29.479000000000042 87.79999999999927,29.479000000000042 C87.70000000000073,29.479000000000042 87.60000000000036,29.36500000000001 87.5,29.135999999999967 L86.5,26.400999999999954 C86.39999999999964,26.192999999999984 86.29999999999927,26.057999999999993 86.29999999999927,25.995000000000005 C86.20000000000073,25.932999999999993 86.10000000000036,25.895999999999958 86.0,25.885999999999967 L86.0,25.775999999999954 L87.5,25.775999999999954 L87.5,25.885999999999967 C87.29999999999927,25.90700000000004 87.20000000000073,25.934999999999945 87.20000000000073,25.97199999999998 C87.10000000000036,26.008000000000038 87.10000000000036,26.067999999999984 87.10000000000036,26.150999999999954 C87.10000000000036,26.235000000000014 87.10000000000036,26.317999999999984 87.20000000000073,26.400999999999954 L88.0,28.479000000000042 L88.70000000000073,26.885999999999967 M91.70000000000073,28.57299999999998 C91.70000000000073,28.479000000000042 91.70000000000073,28.394000000000005 91.70000000000073,28.315000000000055 C91.70000000000073,28.236999999999966 91.79999999999927,28.162000000000035 91.79999999999927,28.089000000000055 C91.89999999999964,28.015999999999963 91.89999999999964,27.951000000000022 92.0,27.894000000000005 C92.0,27.836000000000013 92.10000000000036,27.775999999999954 92.20000000000073,27.714000000000055 C92.29999999999927,27.650999999999954 92.39999999999964,27.599000000000046 92.39999999999964,27.557999999999993 C92.5,27.515999999999963 92.60000000000036,27.46900000000005 92.70000000000073,27.41700000000003 C92.79999999999927,27.36500000000001 92.89999999999964,27.32299999999998 93.0,27.29200000000003 C93.10000000000036,27.260999999999967 93.20000000000073,27.216000000000008 93.29999999999927,27.158999999999992 C93.5,27.101999999999975 93.60000000000036,27.057999999999993 93.70000000000073,27.025999999999954 L93.70000000000073,26.54200000000003 C93.70000000000073,26.104000000000042 93.5,25.885999999999967 93.10000000000036,25.885999999999967 C92.89999999999964,25.885999999999967 92.79999999999927,25.924999999999955 92.70000000000073,26.003000000000043 C92.5,26.081000000000017 92.5,26.172000000000025 92.5,26.275999999999954 C92.5,26.317999999999984 92.5,26.375 92.5,26.44799999999998 C92.5,26.520999999999958 92.5,26.567999999999984 92.5,26.589000000000055 C92.5,26.682999999999993 92.5,26.763000000000034 92.39999999999964,26.831000000000017 C92.39999999999964,26.899 92.29999999999927,26.932999999999993 92.20000000000073,26.932999999999993 C92.10000000000036,26.932999999999993 92.0,26.899 91.89999999999964,26.831000000000017 C91.79999999999927,26.763000000000034 91.79999999999927,26.682999999999993 91.79999999999927,26.589000000000055 C91.79999999999927,26.339000000000055 91.89999999999964,26.128000000000043 92.20000000000073,25.956000000000017 C92.5,25.783999999999992 92.79999999999927,25.69799999999998 93.20000000000073,25.69799999999998 C93.60000000000036,25.69799999999998 93.89999999999964,25.80200000000002 94.0,26.010999999999967 C94.20000000000073,26.21900000000005 94.29999999999927,26.537000000000035 94.29999999999927,26.964000000000055 L94.29999999999927,28.510999999999967 C94.29999999999927,28.687999999999988 94.29999999999927,28.809999999999945 94.29999999999927,28.878000000000043 C94.39999999999964,28.946000000000026 94.39999999999964,28.979000000000042 94.5,28.979000000000042 C94.60000000000036,28.979000000000042 94.79999999999927,28.92700000000002 94.89999999999964,28.82299999999998 L94.89999999999964,29.04200000000003 C94.70000000000073,29.19799999999998 94.60000000000036,29.30499999999995 94.5,29.361999999999966 C94.39999999999964,29.41999999999996 94.29999999999927,29.44799999999998 94.20000000000073,29.44799999999998 C94.0,29.44799999999998 93.89999999999964,29.400999999999954 93.79999999999927,29.307999999999993 C93.70000000000073,29.214000000000055 93.70000000000073,29.062999999999988 93.70000000000073,28.854000000000042 C93.20000000000073,29.25 92.79999999999927,29.44799999999998 92.5,29.44799999999998 C92.29999999999927,29.44799999999998 92.10000000000036,29.366999999999962 91.89999999999964,29.206000000000017 C91.79999999999927,29.04499999999996 91.70000000000073,28.833999999999946 91.70000000000073,28.57299999999998 M93.70000000000073,28.370000000000005 L93.70000000000073,27.214000000000055 C93.20000000000073,27.390999999999963 92.79999999999927,27.562999999999988 92.70000000000073,27.729000000000042 C92.5,27.895999999999958 92.39999999999964,28.09400000000005 92.39999999999964,28.32299999999998 C92.39999999999964,28.54200000000003 92.39999999999964,28.702999999999975 92.5,28.807999999999993 C92.60000000000036,28.912000000000035 92.79999999999927,28.964000000000055 92.89999999999964,28.964000000000055 C93.10000000000036,28.964000000000055 93.20000000000073,28.90700000000004 93.5,28.79200000000003 C93.5,28.74000000000001 93.60000000000036,28.687999999999988 93.60000000000036,28.635999999999967 C93.60000000000036,28.583999999999946 93.70000000000073,28.495000000000005 93.70000000000073,28.370000000000005 M97.29999999999927,26.44799999999998 C97.29999999999927,26.44799999999998 97.20000000000073,26.400999999999954 97.0,26.307999999999993 C96.89999999999964,26.214000000000055 96.79999999999927,26.16700000000003 96.79999999999927,26.16700000000003 C96.70000000000073,26.16700000000003 96.60000000000036,26.245000000000005 96.5,26.400999999999954 C96.29999999999927,26.557999999999993 96.29999999999927,26.702999999999975 96.29999999999927,26.839000000000055 L96.29999999999927,28.650999999999954 C96.29999999999927,28.879999999999995 96.29999999999927,29.033999999999992 96.39999999999964,29.111999999999966 C96.5,29.190000000000055 96.70000000000073,29.235000000000014 96.89999999999964,29.245000000000005 L96.89999999999964,29.370000000000005 L95.0,29.370000000000005 L95.0,29.245000000000005 C95.29999999999927,29.202999999999975 95.39999999999964,29.150999999999954 95.5,29.089000000000055 C95.5,29.025999999999954 95.60000000000036,28.895999999999958 95.60000000000036,28.69799999999998 L95.60000000000036,26.682999999999993 C95.60000000000036,26.504999999999995 95.5,26.379999999999995 95.5,26.307999999999993 C95.5,26.235000000000014 95.39999999999964,26.19799999999998 95.29999999999927,26.19799999999998 C95.20000000000073,26.19799999999998 95.10000000000036,26.208999999999946 95.0,26.229000000000042 L95.0,26.104000000000042 C95.39999999999964,25.96900000000005 95.79999999999927,25.833999999999946 96.20000000000073,25.69799999999998 L96.29999999999927,25.714000000000055 L96.29999999999927,26.41700000000003 C96.39999999999964,26.145999999999958 96.60000000000036,25.958999999999946 96.79999999999927,25.854000000000042 C96.89999999999964,25.75 97.0,25.69799999999998 97.20000000000073,25.69799999999998 C97.39999999999964,25.69799999999998 97.5,25.73199999999997 97.5,25.799999999999955 C97.60000000000036,25.866999999999962 97.60000000000036,25.96900000000005 97.60000000000036,26.104000000000042 C97.60000000000036,26.208999999999946 97.60000000000036,26.29200000000003 97.60000000000036,26.354000000000042 C97.5,26.41700000000003 97.39999999999964,26.44799999999998 97.29999999999927,26.44799999999998 M100.29999999999927,24.729000000000042 C100.20000000000073,24.729000000000042 100.20000000000073,24.69799999999998 100.10000000000036,24.635999999999967 C100.0,24.57299999999998 100.0,24.504999999999995 100.0,24.432999999999993 C99.89999999999964,24.360000000000014 99.89999999999964,24.29200000000003 99.79999999999927,24.229000000000042 C99.70000000000073,24.16700000000003 99.60000000000036,24.135999999999967 99.5,24.135999999999967 C99.20000000000073,24.135999999999967 99.10000000000036,24.370000000000005 99.10000000000036,24.839000000000055 L99.10000000000036,25.775999999999954 L100.10000000000036,25.775999999999954 L100.10000000000036,26.010999999999967 L99.10000000000036,26.010999999999967 L99.10000000000036,28.54200000000003 C99.10000000000036,28.833999999999946 99.10000000000036,29.020999999999958 99.20000000000073,29.104000000000042 C99.29999999999927,29.187999999999988 99.5,29.235000000000014 99.79999999999927,29.245000000000005 L99.79999999999927,29.370000000000005 L97.79999999999927,29.370000000000005 L97.79999999999927,29.245000000000005 C98.0,29.235000000000014 98.20000000000073,29.187999999999988 98.29999999999927,29.104000000000042 C98.39999999999964,29.020999999999958 98.39999999999964,28.833999999999946 98.39999999999964,28.54200000000003 L98.39999999999964,26.010999999999967 L97.79999999999927,26.010999999999967 L97.79999999999927,25.775999999999954 L98.39999999999964,25.775999999999954 C98.39999999999964,25.172000000000025 98.5,24.706000000000017 98.79999999999927,24.378000000000043 C99.0,24.049999999999955 99.29999999999927,23.885999999999967 99.79999999999927,23.885999999999967 C100.10000000000036,23.885999999999967 100.29999999999927,23.934999999999945 100.39999999999964,24.033999999999992 C100.60000000000036,24.133000000000038 100.70000000000073,24.254999999999995 100.70000000000073,24.400999999999954 C100.70000000000073,24.495000000000005 100.60000000000036,24.57299999999998 100.60000000000036,24.635999999999967 C100.5,24.69799999999998 100.39999999999964,24.729000000000042 100.29999999999927,24.729000000000042 M108.0,24.79200000000003 L106.0,29.370000000000005 L105.89999999999964,29.370000000000005 L103.89999999999964,24.979000000000042 L103.89999999999964,28.19799999999998 C103.89999999999964,28.604000000000042 103.89999999999964,28.873000000000047 104.0,29.003000000000043 C104.10000000000036,29.133000000000038 104.29999999999927,29.202999999999975 104.60000000000036,29.214000000000055 L104.60000000000036,29.370000000000005 L102.79999999999927,29.370000000000005 L102.79999999999927,29.214000000000055 C103.10000000000036,29.192999999999984 103.29999999999927,29.120000000000005 103.39999999999964,28.995000000000005 C103.5,28.870000000000005 103.5,28.604000000000042 103.5,28.19799999999998 L103.5,24.94799999999998 C103.5,24.65700000000004 103.5,24.46900000000005 103.39999999999964,24.385999999999967 C103.29999999999927,24.30200000000002 103.10000000000036,24.25 102.79999999999927,24.229000000000042 L102.79999999999927,24.07299999999998 L104.29999999999927,24.07299999999998 L106.20000000000073,28.120000000000005 L108.0,24.07299999999998 L109.5,24.07299999999998 L109.5,24.229000000000042 C109.20000000000073,24.260999999999967 109.10000000000036,24.317999999999984 109.0,24.400999999999954 C108.89999999999964,24.485000000000014 108.89999999999964,24.66700000000003 108.89999999999964,24.94799999999998 L108.89999999999964,28.495000000000005 C108.89999999999964,28.775999999999954 108.89999999999964,28.961000000000013 109.0,29.049999999999955 C109.10000000000036,29.138000000000034 109.29999999999927,29.192999999999984 109.5,29.214000000000055 L109.5,29.370000000000005 L107.29999999999927,29.370000000000005 L107.29999999999927,29.214000000000055 C107.60000000000036,29.192999999999984 107.79999999999927,29.135999999999967 107.89999999999964,29.04200000000003 C108.0,28.94799999999998 108.0,28.74000000000001 108.0,28.41700000000003 L108.0,24.79200000000003 M113.5,28.94799999999998 L113.5,29.07299999999998 C113.10000000000036,29.187999999999988 112.70000000000073,29.312999999999988 112.39999999999964,29.44799999999998 L112.39999999999964,29.432999999999993 L112.39999999999964,28.745000000000005 C112.39999999999964,28.765999999999963 112.29999999999927,28.815000000000055 112.20000000000073,28.894000000000005 C112.20000000000073,28.97199999999998 112.10000000000036,29.025999999999954 112.10000000000036,29.057999999999993 C112.0,29.089000000000055 112.0,29.135999999999967 111.89999999999964,29.19799999999998 C111.79999999999927,29.260999999999967 111.79999999999927,29.30499999999995 111.70000000000073,29.331000000000017 C111.70000000000073,29.35699999999997 111.60000000000036,29.383000000000038 111.5,29.408999999999992 C111.39999999999964,29.434999999999945 111.29999999999927,29.44799999999998 111.20000000000073,29.44799999999998 C110.89999999999964,29.44799999999998 110.70000000000073,29.351999999999975 110.5,29.158999999999992 C110.29999999999927,28.966000000000008 110.29999999999927,28.714000000000055 110.29999999999927,28.400999999999954 L110.29999999999927,26.385999999999967 C110.29999999999927,26.208999999999946 110.20000000000073,26.083999999999946 110.20000000000073,26.010999999999967 C110.10000000000036,25.937999999999988 109.89999999999964,25.895999999999958 109.79999999999927,25.885999999999967 L109.79999999999927,25.775999999999954 L110.89999999999964,25.775999999999954 L110.89999999999964,28.370000000000005 C110.89999999999964,28.525999999999954 111.0,28.663999999999987 111.10000000000036,28.783999999999992 C111.20000000000073,28.903999999999996 111.29999999999927,28.964000000000055 111.5,28.964000000000055 C111.5,28.964000000000055 111.60000000000036,28.956000000000017 111.70000000000073,28.940000000000055 C111.79999999999927,28.924999999999955 111.89999999999964,28.895999999999958 112.0,28.854000000000042 C112.10000000000036,28.812999999999988 112.20000000000073,28.741999999999962 112.20000000000073,28.644000000000005 C112.29999999999927,28.54499999999996 112.29999999999927,28.422000000000025 112.29999999999927,28.275999999999954 L112.29999999999927,26.400999999999954 C112.29999999999927,26.214000000000055 112.29999999999927,26.086000000000013 112.20000000000073,26.019000000000005 C112.20000000000073,25.951000000000022 112.0,25.912000000000035 111.79999999999927,25.900999999999954 L111.79999999999927,25.775999999999954 L113.0,25.775999999999954 L113.0,28.495000000000005 C113.0,28.682999999999993 113.0,28.80499999999995 113.10000000000036,28.861999999999966 C113.20000000000073,28.91999999999996 113.29999999999927,28.94799999999998 113.5,28.94799999999998 L113.5,28.94799999999998 M115.70000000000073,25.854000000000042 C115.70000000000073,25.854000000000042 115.79999999999927,25.827999999999975 115.79999999999927,25.775999999999954 L115.89999999999964,25.775999999999954 L116.0,26.854000000000042 L115.79999999999927,26.854000000000042 C115.79999999999927,26.5 115.70000000000073,26.248000000000047 115.5,26.09699999999998 C115.39999999999964,25.946000000000026 115.20000000000073,25.870000000000005 115.0,25.870000000000005 C114.79999999999927,25.870000000000005 114.60000000000036,25.922000000000025 114.5,26.025999999999954 C114.39999999999964,26.129999999999995 114.39999999999964,26.260999999999967 114.39999999999964,26.41700000000003 C114.39999999999964,26.645999999999958 114.5,26.827999999999975 114.70000000000073,26.964000000000055 L115.60000000000036,27.479000000000042 C115.79999999999927,27.625 116.0,27.770999999999958 116.10000000000036,27.91700000000003 C116.20000000000073,28.062999999999988 116.20000000000073,28.235000000000014 116.20000000000073,28.432999999999993 C116.20000000000073,28.702999999999975 116.10000000000036,28.940000000000055 115.89999999999964,29.144000000000005 C115.70000000000073,29.34699999999998 115.39999999999964,29.44799999999998 115.10000000000036,29.44799999999998 C115.0,29.44799999999998 114.79999999999927,29.424999999999955 114.60000000000036,29.378000000000043 C114.29999999999927,29.331000000000017 114.20000000000073,29.307999999999993 114.20000000000073,29.307999999999993 C114.10000000000036,29.307999999999993 114.0,29.339000000000055 114.0,29.400999999999954 L113.89999999999964,29.400999999999954 L113.89999999999964,28.150999999999954 L114.0,28.150999999999954 C114.10000000000036,28.525999999999954 114.20000000000073,28.79200000000003 114.29999999999927,28.94799999999998 C114.5,29.16700000000003 114.70000000000073,29.275999999999954 115.0,29.275999999999954 C115.20000000000073,29.275999999999954 115.39999999999964,29.224000000000046 115.5,29.120000000000005 C115.60000000000036,29.015999999999963 115.70000000000073,28.875 115.70000000000073,28.69799999999998 C115.70000000000073,28.458999999999946 115.5,28.260999999999967 115.29999999999927,28.104000000000042 L114.79999999999927,27.839000000000055 C114.5,27.640999999999963 114.20000000000073,27.456000000000017 114.10000000000036,27.283999999999992 C113.89999999999964,27.111999999999966 113.89999999999964,26.912000000000035 113.89999999999964,26.682999999999993 C113.89999999999964,26.390999999999963 114.0,26.153999999999996 114.20000000000073,25.97199999999998 C114.39999999999964,25.788999999999987 114.60000000000036,25.69799999999998 115.0,25.69799999999998 C115.10000000000036,25.69799999999998 115.29999999999927,25.724000000000046 115.39999999999964,25.775999999999954 C115.60000000000036,25.827999999999975 115.70000000000073,25.854000000000042 115.70000000000073,25.854000000000042 M117.0,26.229000000000042 C116.89999999999964,26.229000000000042 116.79999999999927,26.235000000000014 116.70000000000073,26.245000000000005 L116.70000000000073,26.135999999999967 C117.0,26.03200000000004 117.39999999999964,25.885999999999967 117.89999999999964,25.69799999999998 L117.89999999999964,25.714000000000055 L117.89999999999964,28.557999999999993 C117.89999999999964,28.839000000000055 118.0,29.019000000000005 118.0,29.09699999999998 C118.10000000000036,29.174999999999955 118.29999999999927,29.224000000000046 118.5,29.245000000000005 L118.5,29.370000000000005 L116.60000000000036,29.370000000000005 L116.60000000000036,29.245000000000005 C116.89999999999964,29.235000000000014 117.10000000000036,29.187999999999988 117.20000000000073,29.104000000000042 C117.20000000000073,29.020999999999958 117.29999999999927,28.839000000000055 117.29999999999927,28.557999999999993 L117.29999999999927,26.69799999999998 C117.29999999999927,26.520999999999958 117.20000000000073,26.399 117.20000000000073,26.331000000000017 C117.20000000000073,26.263000000000034 117.10000000000036,26.229000000000042 117.0,26.229000000000042 M117.5,23.900999999999954 C117.60000000000036,23.900999999999954 117.70000000000073,23.942999999999984 117.79999999999927,24.025999999999954 C117.89999999999964,24.110000000000014 118.0,24.208999999999946 118.0,24.32299999999998 C118.0,24.437999999999988 117.89999999999964,24.533999999999992 117.79999999999927,24.611999999999966 C117.70000000000073,24.690000000000055 117.60000000000036,24.729000000000042 117.5,24.729000000000042 C117.39999999999964,24.729000000000042 117.29999999999927,24.687999999999988 117.20000000000073,24.604000000000042 C117.20000000000073,24.520999999999958 117.10000000000036,24.424999999999955 117.10000000000036,24.315000000000055 C117.10000000000036,24.206000000000017 117.20000000000073,24.110000000000014 117.20000000000073,24.025999999999954 C117.29999999999927,23.942999999999984 117.39999999999964,23.900999999999954 117.5,23.900999999999954 M118.89999999999964,27.66700000000003 C118.89999999999964,27.07299999999998 119.10000000000036,26.59699999999998 119.39999999999964,26.236999999999966 C119.79999999999927,25.878000000000043 120.20000000000073,25.69799999999998 120.70000000000073,25.69799999999998 C121.0,25.69799999999998 121.29999999999927,25.778999999999996 121.5,25.940000000000055 C121.79999999999927,26.101999999999975 121.89999999999964,26.297000000000025 121.89999999999964,26.525999999999954 C121.89999999999964,26.610000000000014 121.79999999999927,26.684999999999945 121.79999999999927,26.753000000000043 C121.70000000000073,26.821000000000026 121.60000000000036,26.854000000000042 121.5,26.854000000000042 C121.29999999999927,26.854000000000042 121.20000000000073,26.735000000000014 121.10000000000036,26.495000000000005 L121.10000000000036,26.32299999999998 C121.10000000000036,26.16700000000003 121.0,26.062999999999988 120.89999999999964,26.010999999999967 C120.89999999999964,25.958999999999946 120.79999999999927,25.932999999999993 120.60000000000036,25.932999999999993 C120.29999999999927,25.932999999999993 120.0,26.059999999999945 119.79999999999927,26.315000000000055 C119.60000000000036,26.571000000000026 119.5,26.90700000000004 119.5,27.32299999999998 C119.5,27.770999999999958 119.70000000000073,28.140999999999963 119.89999999999964,28.432999999999993 C120.10000000000036,28.724000000000046 120.39999999999964,28.870000000000005 120.79999999999927,28.870000000000005 C121.0,28.870000000000005 121.20000000000073,28.812999999999988 121.39999999999964,28.69799999999998 C121.5,28.583999999999946 121.70000000000073,28.390999999999963 121.89999999999964,28.120000000000005 L122.0,28.182999999999993 C121.89999999999964,28.297000000000025 121.89999999999964,28.388000000000034 121.89999999999964,28.456000000000017 C121.79999999999927,28.524 121.70000000000073,28.628000000000043 121.60000000000036,28.769000000000005 C121.5,28.908999999999992 121.39999999999964,29.020999999999958 121.29999999999927,29.104000000000042 C121.20000000000073,29.187999999999988 121.10000000000036,29.265999999999963 120.89999999999964,29.339000000000055 C120.79999999999927,29.412000000000035 120.60000000000036,29.44799999999998 120.39999999999964,29.44799999999998 C120.0,29.44799999999998 119.60000000000036,29.28200000000004 119.39999999999964,28.94799999999998 C119.10000000000036,28.61500000000001 118.89999999999964,28.187999999999988 118.89999999999964,27.66700000000003 M123.29999999999927,28.57299999999998 C123.39999999999964,28.57299999999998 123.5,28.616999999999962 123.60000000000036,28.706000000000017 C123.70000000000073,28.79499999999996 123.70000000000073,28.900999999999954 123.70000000000073,29.025999999999954 C123.70000000000073,29.140999999999963 123.70000000000073,29.241999999999962 123.60000000000036,29.331000000000017 C123.5,29.41999999999996 123.39999999999964,29.464000000000055 123.29999999999927,29.464000000000055 C123.10000000000036,29.464000000000055 123.0,29.41999999999996 123.0,29.331000000000017 C122.89999999999964,29.241999999999962 122.79999999999927,29.140999999999963 122.79999999999927,29.025999999999954 C122.79999999999927,28.900999999999954 122.89999999999964,28.79499999999996 123.0,28.706000000000017 C123.10000000000036,28.616999999999962 123.20000000000073,28.57299999999998 123.29999999999927,28.57299999999998" />
</svg>
