<?xml version="1.0" encoding="UTF-8" standalone="yes"?>
<svg width="256.0px" height="256.0px" xmlns="http://www.w3.org/2000/svg" xmlns:xlink="http://www.w3.org/1999/xlink" version="1.2" baseProfile="tiny">
<path d="M121.0,85.82100000000003 C138.10000000000036,91.92100000000005 189.5,91.92100000000005 206.70000000000073,85.82100000000003 C189.5,92.721 138.10000000000036,92.721 121.0,85.82100000000003" />
<path d="M236.29999999999927,32.58100000000002 C236.29999999999927,32.83100000000002 236.20000000000073,32.95600000000002 235.89999999999964,32.95600000000002 C235.70000000000073,32.95600000000002 235.60000000000036,32.83100000000002 235.60000000000036,32.58100000000002 L235.60000000000036,29.690000000000055 L233.89999999999964,30.315000000000055 L233.89999999999964,33.471000000000004 C233.89999999999964,33.721000000000004 233.79999999999927,33.846000000000004 233.5,33.846000000000004 C233.29999999999927,33.846000000000004 233.20000000000073,33.721000000000004 233.20000000000073,33.471000000000004 L233.20000000000073,30.565000000000055 L232.5,30.799999999999955 C232.5,30.809999999999945 232.5,30.815000000000055 232.39999999999964,30.815000000000055 C232.29999999999927,30.815000000000055 232.20000000000073,30.775999999999954 232.10000000000036,30.69799999999998 C232.0,30.620000000000005 232.0,30.528999999999996 232.0,30.424999999999955 L232.0,29.221000000000004 C232.0,29.024 232.10000000000036,28.899 232.20000000000073,28.846000000000004 L233.20000000000073,28.533999999999992 L233.20000000000073,25.331000000000017 L232.5,25.549999999999955 C232.5,25.559999999999945 232.5,25.565000000000055 232.39999999999964,25.565000000000055 C232.29999999999927,25.565000000000055 232.20000000000073,25.525999999999954 232.10000000000036,25.44799999999998 C232.0,25.370000000000005 232.0,25.278999999999996 232.0,25.174999999999955 L232.0,23.956000000000017 C232.0,23.778999999999996 232.10000000000036,23.663999999999987 232.20000000000073,23.611999999999966 L233.20000000000073,23.253000000000043 L233.20000000000073,20.111999999999966 C233.20000000000073,19.861999999999966 233.29999999999927,19.736999999999966 233.5,19.736999999999966 C233.79999999999927,19.736999999999966 233.89999999999964,19.861999999999966 233.89999999999964,20.111999999999966 L233.89999999999964,23.003000000000043 L235.60000000000036,22.378000000000043 L235.60000000000036,19.221000000000004 C235.60000000000036,18.971000000000004 235.70000000000073,18.846000000000004 235.89999999999964,18.846000000000004 C236.20000000000073,18.846000000000004 236.29999999999927,18.971000000000004 236.29999999999927,19.221000000000004 L236.29999999999927,22.128000000000043 L237.0,21.89300000000003 C237.0,21.883000000000038 237.0,21.878000000000043 237.10000000000036,21.878000000000043 C237.20000000000073,21.878000000000043 237.29999999999927,21.913999999999987 237.39999999999964,21.986999999999966 C237.5,22.07000000000005 237.5,22.163999999999987 237.5,22.26800000000003 L237.5,23.471000000000004 C237.5,23.658999999999992 237.39999999999964,23.783999999999992 237.20000000000073,23.846000000000004 L236.29999999999927,24.158999999999992 L236.29999999999927,27.361999999999966 L237.0,27.14300000000003 C237.0,27.133000000000038 237.0,27.128000000000043 237.10000000000036,27.128000000000043 C237.20000000000073,27.128000000000043 237.29999999999927,27.168999999999983 237.39999999999964,27.253000000000043 C237.5,27.326000000000022 237.5,27.413999999999987 237.5,27.51800000000003 L237.5,28.736999999999966 C237.5,28.903999999999996 237.39999999999964,29.01800000000003 237.20000000000073,29.081000000000017 L236.29999999999927,29.440000000000055 L236.29999999999927,32.58100000000002 M235.60000000000036,24.456000000000017 L233.89999999999964,25.033999999999992 L233.89999999999964,28.236999999999966 L235.60000000000036,27.658999999999992 L235.60000000000036,24.456000000000017" />
<path d="M111.70000000000073,40.08100000000002 C111.70000000000073,40.33100000000002 111.60000000000036,40.45600000000002 111.29999999999927,40.45600000000002 C111.10000000000036,40.45600000000002 111.0,40.33100000000002 111.0,40.08100000000002 L111.0,37.190000000000055 L109.29999999999927,37.815000000000055 L109.29999999999927,40.971000000000004 C109.29999999999927,41.221000000000004 109.20000000000073,41.346000000000004 109.0,41.346000000000004 C108.70000000000073,41.346000000000004 108.60000000000036,41.221000000000004 108.60000000000036,40.971000000000004 L108.60000000000036,38.065000000000055 L108.0,38.299999999999955 C107.89999999999964,38.309999999999945 107.89999999999964,38.315000000000055 107.79999999999927,38.315000000000055 C107.70000000000073,38.315000000000055 107.60000000000036,38.275999999999954 107.5,38.19799999999998 C107.39999999999964,38.120000000000005 107.39999999999964,38.028999999999996 107.39999999999964,37.924999999999955 L107.39999999999964,36.721000000000004 C107.39999999999964,36.524 107.5,36.399 107.70000000000073,36.346000000000004 L108.60000000000036,36.03399999999999 L108.60000000000036,32.83100000000002 L108.0,33.049999999999955 C107.89999999999964,33.059999999999945 107.89999999999964,33.065000000000055 107.79999999999927,33.065000000000055 C107.70000000000073,33.065000000000055 107.60000000000036,33.025999999999954 107.5,32.94799999999998 C107.39999999999964,32.870000000000005 107.39999999999964,32.778999999999996 107.39999999999964,32.674999999999955 L107.39999999999964,31.456000000000017 C107.39999999999964,31.278999999999996 107.5,31.163999999999987 107.70000000000073,31.111999999999966 L108.60000000000036,30.753000000000043 L108.60000000000036,27.611999999999966 C108.60000000000036,27.361999999999966 108.70000000000073,27.236999999999966 109.0,27.236999999999966 C109.20000000000073,27.236999999999966 109.29999999999927,27.361999999999966 109.29999999999927,27.611999999999966 L109.29999999999927,30.503000000000043 L111.0,29.878000000000043 L111.0,26.721000000000004 C111.0,26.471000000000004 111.10000000000036,26.346000000000004 111.29999999999927,26.346000000000004 C111.60000000000036,26.346000000000004 111.70000000000073,26.471000000000004 111.70000000000073,26.721000000000004 L111.70000000000073,29.628000000000043 L112.39999999999964,29.39300000000003 C112.39999999999964,29.383000000000038 112.39999999999964,29.378000000000043 112.5,29.378000000000043 C112.60000000000036,29.378000000000043 112.70000000000073,29.413999999999987 112.79999999999927,29.486999999999966 C112.89999999999964,29.57000000000005 112.89999999999964,29.663999999999987 112.89999999999964,29.76800000000003 L112.89999999999964,30.971000000000004 C112.89999999999964,31.158999999999992 112.79999999999927,31.283999999999992 112.60000000000036,31.346000000000004 L111.70000000000073,31.658999999999992 L111.70000000000073,34.861999999999966 L112.39999999999964,34.64300000000003 C112.39999999999964,34.63300000000004 112.39999999999964,34.62800000000004 112.5,34.62800000000004 C112.60000000000036,34.62800000000004 112.70000000000073,34.66899999999998 112.79999999999927,34.75300000000004 C112.89999999999964,34.82600000000002 112.89999999999964,34.91399999999999 112.89999999999964,35.01800000000003 L112.89999999999964,36.236999999999966 C112.89999999999964,36.403999999999996 112.79999999999927,36.51800000000003 112.60000000000036,36.58100000000002 L111.70000000000073,36.940000000000055 L111.70000000000073,40.08100000000002 M111.0,31.956000000000017 L109.29999999999927,32.53399999999999 L109.29999999999927,35.736999999999966 L111.0,35.15899999999999 L111.0,31.956000000000017" />
<path d="M243.0,71.096 C243.60000000000036,71.096 244.10000000000036,71.25800000000004 244.60000000000036,71.58100000000002 C245.0,71.93499999999995 245.20000000000073,72.37800000000004 245.20000000000073,72.90899999999999 C245.20000000000073,73.80499999999995 244.70000000000073,74.64300000000003 243.79999999999927,75.42499999999995 C242.89999999999964,76.20600000000002 241.89999999999964,76.596 240.79999999999927,76.596 C240.20000000000073,76.596 239.60000000000036,76.43499999999995 239.20000000000073,76.11199999999997 C238.79999999999927,75.75800000000004 238.60000000000036,75.31500000000005 238.60000000000036,74.78399999999999 C238.60000000000036,73.88800000000003 239.10000000000036,73.04999999999995 240.0,72.26800000000003 C240.89999999999964,71.48699999999997 241.89999999999964,71.096 243.0,71.096" />
<path d="M243.0,23.596000000000004 C243.60000000000036,23.596000000000004 244.10000000000036,23.758000000000038 244.60000000000036,24.081000000000017 C245.0,24.434999999999945 245.20000000000073,24.878000000000043 245.20000000000073,25.408999999999992 C245.20000000000073,26.30499999999995 244.70000000000073,27.14300000000003 243.79999999999927,27.924999999999955 C242.89999999999964,28.706000000000017 241.89999999999964,29.096000000000004 240.79999999999927,29.096000000000004 C240.20000000000073,29.096000000000004 239.60000000000036,28.934999999999945 239.20000000000073,28.611999999999966 C238.79999999999927,28.258000000000038 238.60000000000036,27.815000000000055 238.60000000000036,27.283999999999992 C238.60000000000036,26.388000000000034 239.10000000000036,25.549999999999955 240.0,24.76800000000003 C240.89999999999964,23.986999999999966 241.89999999999964,23.596000000000004 243.0,23.596000000000004" />
<path d="M211.79999999999927,71.096 C212.5,71.096 213.0,71.25800000000004 213.39999999999964,71.58100000000002 C213.79999999999927,71.93499999999995 214.0,72.37800000000004 214.0,72.90899999999999 C214.0,73.80499999999995 213.60000000000036,74.64300000000003 212.70000000000073,75.42499999999995 C211.70000000000073,76.20600000000002 210.70000000000073,76.596 209.60000000000036,76.596 C209.0,76.596 208.5,76.43499999999995 208.10000000000036,76.11199999999997 C207.70000000000073,75.75800000000004 207.5,75.31500000000005 207.5,74.78399999999999 C207.5,73.88800000000003 207.89999999999964,73.04999999999995 208.89999999999964,72.26800000000003 C209.79999999999927,71.48699999999997 210.79999999999927,71.096 211.79999999999927,71.096" />
<path d="M211.79999999999927,81.096 C212.5,81.096 213.0,81.25800000000004 213.39999999999964,81.58100000000002 C213.79999999999927,81.93499999999995 214.0,82.37800000000004 214.0,82.90899999999999 C214.0,83.80499999999995 213.60000000000036,84.64300000000003 212.70000000000073,85.42499999999995 C211.70000000000073,86.20600000000002 210.70000000000073,86.596 209.60000000000036,86.596 C209.0,86.596 208.5,86.43499999999995 208.10000000000036,86.11199999999997 C207.70000000000073,85.75800000000004 207.5,85.31500000000005 207.5,84.78399999999999 C207.5,83.88800000000003 207.89999999999964,83.04999999999995 208.89999999999964,82.26800000000003 C209.79999999999927,81.48699999999997 210.79999999999927,81.096 211.79999999999927,81.096" />
<path d="M180.70000000000073,71.096 C181.29999999999927,71.096 181.89999999999964,71.25800000000004 182.29999999999927,71.58100000000002 C182.70000000000073,71.93499999999995 182.89999999999964,72.37800000000004 182.89999999999964,72.90899999999999 C182.89999999999964,73.80499999999995 182.39999999999964,74.64300000000003 181.5,75.42499999999995 C180.60000000000036,76.20600000000002 179.60000000000036,76.596 178.5,76.596 C177.89999999999964,76.596 177.29999999999927,76.43499999999995 176.89999999999964,76.11199999999997 C176.5,75.75800000000004 176.29999999999927,75.31500000000005 176.29999999999927,74.78399999999999 C176.29999999999927,73.88800000000003 176.79999999999927,73.04999999999995 177.70000000000073,72.26800000000003 C178.60000000000036,71.48699999999997 179.60000000000036,71.096 180.70000000000073,71.096" />
<path d="M180.70000000000073,23.596000000000004 C181.29999999999927,23.596000000000004 181.89999999999964,23.758000000000038 182.29999999999927,24.081000000000017 C182.70000000000073,24.434999999999945 182.89999999999964,24.878000000000043 182.89999999999964,25.408999999999992 C182.89999999999964,26.30499999999995 182.39999999999964,27.14300000000003 181.5,27.924999999999955 C180.60000000000036,28.706000000000017 179.60000000000036,29.096000000000004 178.5,29.096000000000004 C177.89999999999964,29.096000000000004 177.29999999999927,28.934999999999945 176.89999999999964,28.611999999999966 C176.5,28.258000000000038 176.29999999999927,27.815000000000055 176.29999999999927,27.283999999999992 C176.29999999999927,26.388000000000034 176.79999999999927,25.549999999999955 177.70000000000073,24.76800000000003 C178.60000000000036,23.986999999999966 179.60000000000036,23.596000000000004 180.70000000000073,23.596000000000004" />
<path d="M149.5,71.096 C150.20000000000073,71.096 150.70000000000073,71.25800000000004 151.10000000000036,71.58100000000002 C151.5,71.93499999999995 151.70000000000073,72.37800000000004 151.70000000000073,72.90899999999999 C151.70000000000073,73.80499999999995 151.29999999999927,74.64300000000003 150.39999999999964,75.42499999999995 C149.39999999999964,76.20600000000002 148.39999999999964,76.596 147.29999999999927,76.596 C146.70000000000073,76.596 146.20000000000073,76.43499999999995 145.79999999999927,76.11199999999997 C145.39999999999964,75.75800000000004 145.20000000000073,75.31500000000005 145.20000000000073,74.78399999999999 C145.20000000000073,73.88800000000003 145.60000000000036,73.04999999999995 146.60000000000036,72.26800000000003 C147.5,71.48699999999997 148.5,71.096 149.5,71.096" />
<path d="M120.20000000000073,61.096000000000004 C120.5,61.096000000000004 120.70000000000073,61.17999999999995 120.79999999999927,61.346000000000004 C120.89999999999964,61.524 121.0,61.70100000000002 121.0,61.87800000000004 C121.0,62.15899999999999 120.70000000000073,62.513000000000034 120.20000000000073,62.940000000000055 C119.70000000000073,63.399 119.39999999999964,63.721000000000004 119.29999999999927,63.90899999999999 C119.20000000000073,64.05499999999995 119.0,64.38800000000003 118.79999999999927,64.90899999999999 C118.60000000000036,65.44000000000005 118.39999999999964,65.85699999999997 118.10000000000036,66.15899999999999 C117.89999999999964,66.44000000000005 117.60000000000036,66.58100000000002 117.20000000000073,66.58100000000002 C117.10000000000036,66.58100000000002 116.79999999999927,66.54399999999998 116.5,66.471 C116.20000000000073,66.38800000000003 115.89999999999964,66.346 115.79999999999927,66.346 C115.60000000000036,66.346 115.39999999999964,66.38800000000003 115.0,66.471 C114.70000000000073,66.55499999999995 114.5,66.596 114.39999999999964,66.596 C114.10000000000036,66.596 113.89999999999964,66.51300000000003 113.79999999999927,66.346 C113.70000000000073,66.149 113.60000000000036,65.971 113.60000000000036,65.81500000000005 C113.60000000000036,65.53399999999999 113.89999999999964,65.17999999999995 114.39999999999964,64.75300000000004 C114.89999999999964,64.29399999999998 115.20000000000073,63.971000000000004 115.29999999999927,63.78399999999999 C115.39999999999964,63.690000000000055 115.5,63.351999999999975 115.79999999999927,62.76800000000003 C116.0,62.236999999999966 116.20000000000073,61.82600000000002 116.5,61.53399999999999 C116.70000000000073,61.25300000000004 117.0,61.111999999999966 117.39999999999964,61.111999999999966 C117.5,61.111999999999966 117.79999999999927,61.149 118.10000000000036,61.221000000000004 C118.39999999999964,61.30499999999995 118.70000000000073,61.346000000000004 118.79999999999927,61.346000000000004 C119.0,61.346000000000004 119.20000000000073,61.30499999999995 119.5,61.221000000000004 C119.89999999999964,61.138000000000034 120.10000000000036,61.096000000000004 120.20000000000073,61.096000000000004" />
<path d="M118.0,81.096 C118.60000000000036,81.096 119.20000000000073,81.25800000000004 119.60000000000036,81.58100000000002 C120.0,81.93499999999995 120.20000000000073,82.37800000000004 120.20000000000073,82.90899999999999 C120.20000000000073,83.80499999999995 119.70000000000073,84.64300000000003 118.79999999999927,85.42499999999995 C117.89999999999964,86.20600000000002 116.89999999999964,86.596 115.79999999999927,86.596 C115.20000000000073,86.596 114.60000000000036,86.43499999999995 114.20000000000073,86.11199999999997 C113.79999999999927,85.75800000000004 113.60000000000036,85.31500000000005 113.60000000000036,84.78399999999999 C113.60000000000036,83.88800000000003 114.10000000000036,83.04999999999995 115.0,82.26800000000003 C115.89999999999964,81.48699999999997 116.89999999999964,81.096 118.0,81.096" />
<path d="M118.39999999999964,31.096000000000004 C119.0,31.096000000000004 119.60000000000036,31.258000000000038 120.0,31.581000000000017 C120.39999999999964,31.934999999999945 120.60000000000036,32.37800000000004 120.60000000000036,32.90899999999999 C120.60000000000036,33.80499999999995 120.10000000000036,34.64300000000003 119.20000000000073,35.424999999999955 C118.29999999999927,36.20600000000002 117.29999999999927,36.596000000000004 116.20000000000073,36.596000000000004 C115.60000000000036,36.596000000000004 115.0,36.434999999999945 114.60000000000036,36.111999999999966 C114.20000000000073,35.75800000000004 114.0,35.315000000000055 114.0,34.78399999999999 C114.0,33.888000000000034 114.5,33.049999999999955 115.39999999999964,32.26800000000003 C116.29999999999927,31.486999999999966 117.29999999999927,31.096000000000004 118.39999999999964,31.096000000000004" />
<path d="M88.39999999999964,81.346 L86.60000000000036,81.346 C86.39999999999964,81.346 86.29999999999927,81.28399999999999 86.29999999999927,81.15899999999999 L86.29999999999927,71.53399999999999 C86.29999999999927,71.40899999999999 86.39999999999964,71.346 86.60000000000036,71.346 L88.39999999999964,71.346 C88.5,71.346 88.60000000000036,71.40899999999999 88.60000000000036,71.53399999999999 L88.60000000000036,81.15899999999999 C88.60000000000036,81.28399999999999 88.5,81.346 88.39999999999964,81.346 M84.0,81.346 L82.10000000000036,81.346 C82.0,81.346 81.89999999999964,81.28399999999999 81.89999999999964,81.15899999999999 L81.89999999999964,71.53399999999999 C81.89999999999964,71.40899999999999 82.0,71.346 82.10000000000036,71.346 L84.0,71.346 C84.10000000000036,71.346 84.20000000000073,71.40899999999999 84.20000000000073,71.53399999999999 L84.20000000000073,81.15899999999999 C84.20000000000073,81.28399999999999 84.10000000000036,81.346 84.0,81.346" />
<path d="M83.89999999999964,37.40899999999999 C84.20000000000073,37.04399999999998 84.39999999999964,36.70600000000002 84.39999999999964,36.39300000000003 C84.39999999999964,36.101999999999975 84.29999999999927,35.88300000000004 84.10000000000036,35.736999999999966 C83.79999999999927,35.58100000000002 83.60000000000036,35.50300000000004 83.20000000000073,35.50300000000004 C83.0,35.50300000000004 82.79999999999927,35.57600000000002 82.70000000000073,35.721000000000004 C82.60000000000036,35.85699999999997 82.5,36.01800000000003 82.5,36.20600000000002 C82.5,36.44500000000005 82.60000000000036,36.62199999999996 82.79999999999927,36.736999999999966 L83.89999999999964,37.40899999999999 M84.20000000000073,37.565000000000055 C84.79999999999927,37.85699999999997 85.0,38.263000000000034 85.0,38.78399999999999 C85.0,38.78399999999999 85.0,38.80499999999995 85.0,38.846000000000004 C85.0,39.24199999999996 84.89999999999964,39.57600000000002 84.5,39.846000000000004 C84.20000000000073,40.12800000000004 83.79999999999927,40.26800000000003 83.20000000000073,40.26800000000003 C82.70000000000073,40.26800000000003 82.20000000000073,40.138000000000034 81.89999999999964,39.87800000000004 C81.5,39.638000000000034 81.29999999999927,39.309999999999945 81.29999999999927,38.89300000000003 C81.29999999999927,38.70600000000002 81.39999999999964,38.53899999999999 81.5,38.39300000000003 C81.60000000000036,38.226999999999975 81.60000000000036,38.111999999999966 81.70000000000073,38.049999999999955 C81.70000000000073,38.049999999999955 81.79999999999927,37.924999999999955 82.10000000000036,37.674999999999955 C81.70000000000073,37.403999999999996 81.5,37.05499999999995 81.5,36.62800000000004 C81.5,36.263000000000034 81.60000000000036,35.940000000000055 81.89999999999964,35.65899999999999 C82.29999999999927,35.399 82.70000000000073,35.26800000000003 83.20000000000073,35.26800000000003 C83.70000000000073,35.26800000000003 84.10000000000036,35.36699999999996 84.39999999999964,35.565000000000055 C84.70000000000073,35.763000000000034 84.79999999999927,36.03899999999999 84.79999999999927,36.39300000000003 C84.79999999999927,36.726999999999975 84.60000000000036,37.11699999999996 84.20000000000073,37.565000000000055 M82.39999999999964,37.846000000000004 C82.0,38.190000000000055 81.79999999999927,38.53899999999999 81.79999999999927,38.89300000000003 C81.79999999999927,39.226999999999975 81.89999999999964,39.49699999999996 82.20000000000073,39.70600000000002 C82.5,39.924999999999955 82.79999999999927,40.03399999999999 83.20000000000073,40.03399999999999 C83.39999999999964,40.03399999999999 83.60000000000036,39.95100000000002 83.79999999999927,39.78399999999999 C83.89999999999964,39.62800000000004 84.0,39.434999999999945 84.0,39.20600000000002 C84.0,38.924999999999955 83.89999999999964,38.721000000000004 83.70000000000073,38.596000000000004 L82.39999999999964,37.846000000000004 M90.0,17.065000000000055 C89.79999999999927,16.866999999999962 89.70000000000073,16.625 89.70000000000073,16.339000000000055 C89.70000000000073,16.05200000000002 89.79999999999927,15.812999999999988 90.0,15.620000000000005 C90.20000000000073,15.427000000000021 90.39999999999964,15.331000000000017 90.70000000000073,15.331000000000017 C91.0,15.331000000000017 91.29999999999927,15.427000000000021 91.5,15.620000000000005 C91.70000000000073,15.812999999999988 91.79999999999927,16.05200000000002 91.79999999999927,16.339000000000055 C91.79999999999927,16.625 91.70000000000073,16.866999999999962 91.5,17.065000000000055 C91.29999999999927,17.263000000000034 91.0,17.361999999999966 90.70000000000073,17.361999999999966 C90.39999999999964,17.361999999999966 90.20000000000073,17.263000000000034 90.0,17.065000000000055 M90.0,22.07299999999998 C89.79999999999927,21.879999999999995 89.70000000000073,21.640999999999963 89.70000000000073,21.354000000000042 C89.70000000000073,21.067999999999984 89.79999999999927,20.826000000000022 90.0,20.628000000000043 C90.20000000000073,20.42999999999995 90.39999999999964,20.331000000000017 90.70000000000073,20.331000000000017 C91.0,20.331000000000017 91.29999999999927,20.42999999999995 91.5,20.628000000000043 C91.70000000000073,20.826000000000022 91.79999999999927,21.067999999999984 91.79999999999927,21.354000000000042 C91.79999999999927,21.640999999999963 91.70000000000073,21.879999999999995 91.5,22.07299999999998 C91.29999999999927,22.265999999999963 91.0,22.361999999999966 90.70000000000073,22.361999999999966 C90.39999999999964,22.361999999999966 90.20000000000073,22.265999999999963 90.0,22.07299999999998 M83.20000000000073,13.596000000000004 C85.0,13.596000000000004 86.39999999999964,14.028999999999996 87.5,14.893000000000029 C88.60000000000036,15.809999999999945 89.10000000000036,17.049999999999955 89.10000000000036,18.611999999999966 C89.10000000000036,19.663999999999987 88.89999999999964,20.628000000000043 88.5,21.503000000000043 C88.10000000000036,22.418999999999983 87.60000000000036,23.226999999999975 86.89999999999964,23.924999999999955 C86.29999999999927,24.64300000000003 85.5,25.32000000000005 84.60000000000036,25.956000000000017 C83.70000000000073,26.581000000000017 82.70000000000073,27.14300000000003 81.79999999999927,27.64300000000003 C79.89999999999964,28.611999999999966 78.79999999999927,29.096000000000004 78.60000000000036,29.096000000000004 C78.39999999999964,29.096000000000004 78.29999999999927,29.013000000000034 78.29999999999927,28.846000000000004 C78.29999999999927,28.783999999999992 78.39999999999964,28.726999999999975 78.39999999999964,28.674999999999955 C79.10000000000036,28.278999999999996 79.89999999999964,27.778999999999996 80.79999999999927,27.174999999999955 C81.5,26.76800000000003 82.20000000000073,26.206000000000017 83.0,25.486999999999966 C83.79999999999927,24.809999999999945 84.5,24.174999999999955 84.89999999999964,23.581000000000017 C85.39999999999964,22.986999999999966 85.79999999999927,22.258000000000038 86.20000000000073,21.39300000000003 C86.5,20.51800000000003 86.60000000000036,19.653999999999996 86.60000000000036,18.799999999999955 C86.60000000000036,17.538999999999987 86.29999999999927,16.440000000000055 85.70000000000073,15.503000000000043 C85.10000000000036,14.565000000000055 84.29999999999927,14.096000000000004 83.20000000000073,14.096000000000004 C82.5,14.096000000000004 81.89999999999964,14.331000000000017 81.39999999999964,14.799999999999955 C80.79999999999927,15.278999999999996 80.39999999999964,15.883000000000038 80.10000000000036,16.611999999999966 C80.39999999999964,16.508000000000038 80.60000000000036,16.456000000000017 80.79999999999927,16.456000000000017 C81.39999999999964,16.456000000000017 81.79999999999927,16.653999999999996 82.20000000000073,17.049999999999955 C82.60000000000036,17.466000000000008 82.79999999999927,17.940000000000055 82.79999999999927,18.471000000000004 C82.79999999999927,19.033999999999992 82.60000000000036,19.538999999999987 82.29999999999927,19.986999999999966 C81.79999999999927,20.383000000000038 81.39999999999964,20.581000000000017 80.79999999999927,20.581000000000017 C80.20000000000073,20.581000000000017 79.70000000000073,20.383000000000038 79.29999999999927,19.986999999999966 C78.79999999999927,19.538999999999987 78.60000000000036,19.033999999999992 78.60000000000036,18.471000000000004 C78.60000000000036,17.128000000000043 79.0,15.981999999999971 80.0,15.033999999999992 C80.89999999999964,14.076000000000022 81.89999999999964,13.596000000000004 83.20000000000073,13.596000000000004" />
<path d="M206.60000000000036,101.26800000000003 L205.60000000000036,104.36199999999997 C205.29999999999927,105.47699999999998 204.70000000000073,106.55499999999995 204.0,107.596 C203.20000000000073,108.63800000000003 202.39999999999964,109.15899999999999 201.5,109.15899999999999 C201.10000000000036,109.15899999999999 200.70000000000073,109.04700000000003 200.39999999999964,108.82299999999998 C200.10000000000036,108.59900000000005 199.89999999999964,108.30999999999995 199.89999999999964,107.95600000000002 C199.89999999999964,107.54999999999995 200.0,107.20600000000002 200.20000000000073,106.92499999999995 C200.29999999999927,106.654 200.60000000000036,106.50800000000004 200.89999999999964,106.48699999999997 C201.10000000000036,106.48699999999997 201.29999999999927,106.57000000000005 201.5,106.73699999999997 C201.60000000000036,106.904 201.70000000000073,107.096 201.70000000000073,107.31500000000005 C201.70000000000073,107.51300000000003 201.60000000000036,107.69500000000005 201.39999999999964,107.86199999999997 C201.10000000000036,108.00800000000004 201.0,108.17499999999995 201.0,108.36199999999997 C201.0,108.48699999999997 201.10000000000036,108.54999999999995 201.39999999999964,108.54999999999995 L201.5,108.54999999999995 C201.60000000000036,108.54999999999995 201.70000000000073,108.53399999999999 201.79999999999927,108.50300000000004 C201.89999999999964,108.49199999999996 202.0,108.45100000000002 202.10000000000036,108.37800000000004 C202.10000000000036,108.37800000000004 202.10000000000036,108.32600000000002 202.29999999999927,108.221 C202.39999999999964,108.10699999999997 202.39999999999964,108.024 202.39999999999964,107.971 C202.5,107.86699999999996 202.5,107.78399999999999 202.5,107.721 C202.60000000000036,107.67999999999995 202.60000000000036,107.57600000000002 202.60000000000036,107.40899999999999 C202.70000000000073,107.36699999999996 202.70000000000073,107.32000000000005 202.70000000000073,107.26800000000003 C202.70000000000073,107.21600000000001 202.70000000000073,107.17999999999995 202.70000000000073,107.15899999999999 C202.70000000000073,107.13800000000003 202.70000000000073,107.12199999999996 202.70000000000073,107.11199999999997 C202.79999999999927,106.904 202.79999999999927,106.779 202.79999999999927,106.73699999999997 C202.89999999999964,106.529 202.89999999999964,106.42499999999995 202.89999999999964,106.42499999999995 L204.20000000000073,101.26800000000003 L203.20000000000073,101.26800000000003 C203.10000000000036,101.26800000000003 203.0,101.23699999999997 203.0,101.17499999999995 C203.0,101.09100000000001 202.89999999999964,101.01800000000003 202.89999999999964,100.95600000000002 C202.89999999999964,100.87199999999996 203.0,100.79999999999995 203.0,100.73699999999997 C203.10000000000036,100.67499999999995 203.20000000000073,100.64300000000003 203.20000000000073,100.64300000000003 L204.39999999999964,100.64300000000003 C204.70000000000073,99.66399999999999 205.20000000000073,98.82000000000005 206.0,98.11199999999997 C206.70000000000073,97.38300000000004 207.5,97.01800000000003 208.39999999999964,97.01800000000003 C208.79999999999927,97.01800000000003 209.20000000000073,97.13300000000004 209.5,97.36199999999997 C209.79999999999927,97.58100000000002 210.0,97.86699999999996 210.0,98.221 C210.0,98.60699999999997 209.89999999999964,98.95100000000002 209.79999999999927,99.25300000000004 C209.60000000000036,99.524 209.29999999999927,99.66399999999999 209.0,99.67499999999995 C208.79999999999927,99.67499999999995 208.60000000000036,99.59400000000005 208.5,99.43200000000002 C208.29999999999927,99.27099999999996 208.20000000000073,99.08100000000002 208.20000000000073,98.86199999999997 C208.20000000000073,98.67499999999995 208.29999999999927,98.50300000000004 208.60000000000036,98.346 C208.79999999999927,98.19000000000005 208.89999999999964,98.01300000000003 208.89999999999964,97.81500000000005 C208.89999999999964,97.66899999999998 208.79999999999927,97.60199999999998 208.5,97.61199999999997 L208.5,97.61199999999997 C208.39999999999964,97.63300000000004 208.39999999999964,97.63800000000003 208.39999999999964,97.62800000000004 C208.20000000000073,97.62800000000004 208.0,97.68499999999995 207.79999999999927,97.79999999999995 C207.60000000000036,97.904 207.5,98.09100000000001 207.39999999999964,98.36199999999997 C207.29999999999927,98.43499999999995 207.29999999999927,98.50800000000004 207.29999999999927,98.58100000000002 C207.20000000000073,98.654 207.20000000000073,98.73400000000004 207.20000000000073,98.82299999999998 C207.10000000000036,98.91200000000003 207.10000000000036,98.971 207.10000000000036,99.00300000000004 C207.10000000000036,99.06500000000005 207.10000000000036,99.19500000000005 207.0,99.39300000000003 C207.0,99.58100000000002 207.0,99.74199999999996 206.89999999999964,99.87800000000004 C206.79999999999927,100.274 206.79999999999927,100.529 206.79999999999927,100.64300000000003 L207.79999999999927,100.64300000000003 C207.89999999999964,100.64300000000003 208.0,100.67200000000003 208.10000000000036,100.72900000000004 C208.10000000000036,100.78700000000003 208.20000000000073,100.85900000000004 208.20000000000073,100.94799999999998 C208.20000000000073,101.03700000000003 208.10000000000036,101.11199999999997 208.10000000000036,101.17499999999995 C208.0,101.23699999999997 207.89999999999964,101.26800000000003 207.79999999999927,101.26800000000003 L206.60000000000036,101.26800000000003 M211.89999999999964,101.26800000000003 L210.89999999999964,104.36199999999997 C210.60000000000036,105.47699999999998 210.0,106.55499999999995 209.20000000000073,107.596 C208.39999999999964,108.63800000000003 207.60000000000036,109.15899999999999 206.79999999999927,109.15899999999999 C206.39999999999964,109.15899999999999 206.0,109.04700000000003 205.70000000000073,108.82299999999998 C205.39999999999964,108.59900000000005 205.20000000000073,108.30999999999995 205.20000000000073,107.95600000000002 C205.20000000000073,107.54999999999995 205.29999999999927,107.20600000000002 205.39999999999964,106.92499999999995 C205.60000000000036,106.654 205.89999999999964,106.50800000000004 206.20000000000073,106.48699999999997 C206.39999999999964,106.48699999999997 206.60000000000036,106.57000000000005 206.79999999999927,106.73699999999997 C206.89999999999964,106.904 207.0,107.096 207.0,107.31500000000005 C207.0,107.51300000000003 206.89999999999964,107.69500000000005 206.60000000000036,107.86199999999997 C206.39999999999964,108.00800000000004 206.29999999999927,108.17499999999995 206.29999999999927,108.36199999999997 C206.29999999999927,108.48699999999997 206.39999999999964,108.54999999999995 206.70000000000073,108.54999999999995 L206.79999999999927,108.54999999999995 C206.89999999999964,108.54999999999995 207.0,108.53399999999999 207.10000000000036,108.50300000000004 C207.20000000000073,108.49199999999996 207.29999999999927,108.45100000000002 207.39999999999964,108.37800000000004 C207.39999999999964,108.37800000000004 207.39999999999964,108.32600000000002 207.60000000000036,108.221 C207.60000000000036,108.10699999999997 207.70000000000073,108.024 207.70000000000073,107.971 C207.70000000000073,107.86699999999996 207.79999999999927,107.78399999999999 207.79999999999927,107.721 C207.89999999999964,107.67999999999995 207.89999999999964,107.57600000000002 207.89999999999964,107.40899999999999 C207.89999999999964,107.36699999999996 208.0,107.32000000000005 208.0,107.26800000000003 C208.0,107.21600000000001 208.0,107.17999999999995 208.0,107.15899999999999 C208.0,107.13800000000003 208.0,107.12199999999996 208.0,107.11199999999997 C208.10000000000036,106.904 208.10000000000036,106.779 208.10000000000036,106.73699999999997 C208.20000000000073,106.529 208.20000000000073,106.42499999999995 208.20000000000073,106.42499999999995 L209.5,101.26800000000003 L208.5,101.26800000000003 C208.39999999999964,101.26800000000003 208.29999999999927,101.23699999999997 208.29999999999927,101.17499999999995 C208.20000000000073,101.09100000000001 208.20000000000073,101.01800000000003 208.20000000000073,100.95600000000002 C208.20000000000073,100.87199999999996 208.20000000000073,100.79999999999995 208.29999999999927,100.73699999999997 C208.39999999999964,100.67499999999995 208.39999999999964,100.64300000000003 208.5,100.64300000000003 L209.70000000000073,100.64300000000003 C210.0,99.66399999999999 210.5,98.82000000000005 211.29999999999927,98.11199999999997 C212.0,97.38300000000004 212.79999999999927,97.01800000000003 213.70000000000073,97.01800000000003 C214.10000000000036,97.01800000000003 214.5,97.13300000000004 214.79999999999927,97.36199999999997 C215.10000000000036,97.58100000000002 215.29999999999927,97.86699999999996 215.29999999999927,98.221 C215.29999999999927,98.60699999999997 215.20000000000073,98.95100000000002 215.10000000000036,99.25300000000004 C214.89999999999964,99.524 214.60000000000036,99.66399999999999 214.29999999999927,99.67499999999995 C214.10000000000036,99.67499999999995 213.89999999999964,99.59400000000005 213.70000000000073,99.43200000000002 C213.60000000000036,99.27099999999996 213.5,99.08100000000002 213.5,98.86199999999997 C213.5,98.67499999999995 213.60000000000036,98.50300000000004 213.89999999999964,98.346 C214.10000000000036,98.19000000000005 214.20000000000073,98.01300000000003 214.20000000000073,97.81500000000005 C214.20000000000073,97.66899999999998 214.10000000000036,97.60199999999998 213.79999999999927,97.61199999999997 L213.79999999999927,97.61199999999997 C213.70000000000073,97.63300000000004 213.70000000000073,97.63800000000003 213.70000000000073,97.62800000000004 C213.39999999999964,97.62800000000004 213.20000000000073,97.68499999999995 213.10000000000036,97.79999999999995 C212.89999999999964,97.904 212.79999999999927,98.09100000000001 212.60000000000036,98.36199999999997 C212.60000000000036,98.43499999999995 212.60000000000036,98.50800000000004 212.5,98.58100000000002 C212.5,98.654 212.5,98.73400000000004 212.5,98.82299999999998 C212.39999999999964,98.91200000000003 212.39999999999964,98.971 212.39999999999964,99.00300000000004 C212.39999999999964,99.06500000000005 212.29999999999927,99.19500000000005 212.29999999999927,99.39300000000003 C212.29999999999927,99.58100000000002 212.20000000000073,99.74199999999996 212.20000000000073,99.87800000000004 C212.10000000000036,100.274 212.10000000000036,100.529 212.0,100.64300000000003 L213.10000000000036,100.64300000000003 C213.20000000000073,100.64300000000003 213.29999999999927,100.67200000000003 213.29999999999927,100.72900000000004 C213.39999999999964,100.78700000000003 213.39999999999964,100.85900000000004 213.39999999999964,100.94799999999998 C213.39999999999964,101.03700000000003 213.39999999999964,101.11199999999997 213.29999999999927,101.17499999999995 C213.29999999999927,101.23699999999997 213.20000000000073,101.26800000000003 213.10000000000036,101.26800000000003 L211.89999999999964,101.26800000000003" />
<path d="M110.5,101.26800000000003 L109.5,104.36199999999997 C109.20000000000073,105.47699999999998 108.70000000000073,106.55499999999995 107.89999999999964,107.596 C107.10000000000036,108.63800000000003 106.29999999999927,109.15899999999999 105.5,109.15899999999999 C105.0,109.15899999999999 104.60000000000036,109.04700000000003 104.29999999999927,108.82299999999998 C104.0,108.59900000000005 103.79999999999927,108.30999999999995 103.79999999999927,107.95600000000002 C103.79999999999927,107.54999999999995 103.89999999999964,107.20600000000002 104.10000000000036,106.92499999999995 C104.29999999999927,106.654 104.5,106.50800000000004 104.79999999999927,106.48699999999997 C105.0,106.48699999999997 105.20000000000073,106.57000000000005 105.39999999999964,106.73699999999997 C105.5,106.904 105.60000000000036,107.096 105.60000000000036,107.31500000000005 C105.60000000000036,107.51300000000003 105.5,107.69500000000005 105.29999999999927,107.86199999999997 C105.0,108.00800000000004 104.89999999999964,108.17499999999995 104.89999999999964,108.36199999999997 C104.89999999999964,108.48699999999997 105.0,108.54999999999995 105.29999999999927,108.54999999999995 L105.5,108.54999999999995 C105.5,108.54999999999995 105.60000000000036,108.53399999999999 105.70000000000073,108.50300000000004 C105.79999999999927,108.49199999999996 105.89999999999964,108.45100000000002 106.0,108.37800000000004 C106.0,108.37800000000004 106.10000000000036,108.32600000000002 106.20000000000073,108.221 C106.29999999999927,108.10699999999997 106.29999999999927,108.024 106.29999999999927,107.971 C106.39999999999964,107.86699999999996 106.39999999999964,107.78399999999999 106.5,107.721 C106.5,107.67999999999995 106.5,107.57600000000002 106.60000000000036,107.40899999999999 C106.60000000000036,107.36699999999996 106.60000000000036,107.32000000000005 106.60000000000036,107.26800000000003 C106.60000000000036,107.21600000000001 106.60000000000036,107.17999999999995 106.60000000000036,107.15899999999999 C106.70000000000073,107.13800000000003 106.70000000000073,107.12199999999996 106.70000000000073,107.11199999999997 C106.70000000000073,106.904 106.70000000000073,106.779 106.79999999999927,106.73699999999997 C106.79999999999927,106.529 106.79999999999927,106.42499999999995 106.79999999999927,106.42499999999995 L108.10000000000036,101.26800000000003 L107.10000000000036,101.26800000000003 C107.0,101.26800000000003 107.0,101.23699999999997 106.89999999999964,101.17499999999995 C106.89999999999964,101.09100000000001 106.79999999999927,101.01800000000003 106.79999999999927,100.95600000000002 C106.79999999999927,100.87199999999996 106.89999999999964,100.79999999999995 106.89999999999964,100.73699999999997 C107.0,100.67499999999995 107.10000000000036,100.64300000000003 107.10000000000036,100.64300000000003 L108.29999999999927,100.64300000000003 C108.60000000000036,99.66399999999999 109.20000000000073,98.82000000000005 109.89999999999964,98.11199999999997 C110.60000000000036,97.38300000000004 111.39999999999964,97.01800000000003 112.29999999999927,97.01800000000003 C112.79999999999927,97.01800000000003 113.10000000000036,97.13300000000004 113.39999999999964,97.36199999999997 C113.79999999999927,97.58100000000002 113.89999999999964,97.86699999999996 113.89999999999964,98.221 C113.89999999999964,98.60699999999997 113.89999999999964,98.95100000000002 113.70000000000073,99.25300000000004 C113.5,99.524 113.20000000000073,99.66399999999999 113.0,99.67499999999995 C112.70000000000073,99.67499999999995 112.5,99.59400000000005 112.39999999999964,99.43200000000002 C112.20000000000073,99.27099999999996 112.10000000000036,99.08100000000002 112.10000000000036,98.86199999999997 C112.10000000000036,98.67499999999995 112.29999999999927,98.50300000000004 112.5,98.346 C112.70000000000073,98.19000000000005 112.89999999999964,98.01300000000003 112.79999999999927,97.81500000000005 C112.79999999999927,97.66899999999998 112.70000000000073,97.60199999999998 112.39999999999964,97.61199999999997 L112.39999999999964,97.61199999999997 C112.39999999999964,97.63300000000004 112.29999999999927,97.63800000000003 112.29999999999927,97.62800000000004 C112.10000000000036,97.62800000000004 111.89999999999964,97.68499999999995 111.70000000000073,97.79999999999995 C111.60000000000036,97.904 111.39999999999964,98.09100000000001 111.29999999999927,98.36199999999997 C111.20000000000073,98.43499999999995 111.20000000000073,98.50800000000004 111.20000000000073,98.58100000000002 C111.20000000000073,98.654 111.10000000000036,98.73400000000004 111.10000000000036,98.82299999999998 C111.10000000000036,98.91200000000003 111.0,98.971 111.0,99.00300000000004 C111.0,99.06500000000005 111.0,99.19500000000005 111.0,99.39300000000003 C110.89999999999964,99.58100000000002 110.89999999999964,99.74199999999996 110.79999999999927,99.87800000000004 C110.79999999999927,100.274 110.70000000000073,100.529 110.70000000000073,100.64300000000003 L111.79999999999927,100.64300000000003 C111.79999999999927,100.64300000000003 111.89999999999964,100.67200000000003 112.0,100.72900000000004 C112.0,100.78700000000003 112.10000000000036,100.85900000000004 112.10000000000036,100.94799999999998 C112.10000000000036,101.03700000000003 112.0,101.11199999999997 112.0,101.17499999999995 C111.89999999999964,101.23699999999997 111.79999999999927,101.26800000000003 111.79999999999927,101.26800000000003 L110.5,101.26800000000003 M115.79999999999927,101.26800000000003 L114.79999999999927,104.36199999999997 C114.5,105.47699999999998 113.89999999999964,106.55499999999995 113.20000000000073,107.596 C112.39999999999964,108.63800000000003 111.60000000000036,109.15899999999999 110.70000000000073,109.15899999999999 C110.29999999999927,109.15899999999999 109.89999999999964,109.04700000000003 109.60000000000036,108.82299999999998 C109.29999999999927,108.59900000000005 109.10000000000036,108.30999999999995 109.10000000000036,107.95600000000002 C109.10000000000036,107.54999999999995 109.20000000000073,107.20600000000002 109.39999999999964,106.92499999999995 C109.5,106.654 109.79999999999927,106.50800000000004 110.10000000000036,106.48699999999997 C110.29999999999927,106.48699999999997 110.5,106.57000000000005 110.70000000000073,106.73699999999997 C110.79999999999927,106.904 110.89999999999964,107.096 110.89999999999964,107.31500000000005 C110.89999999999964,107.51300000000003 110.79999999999927,107.69500000000005 110.60000000000036,107.86199999999997 C110.29999999999927,108.00800000000004 110.20000000000073,108.17499999999995 110.20000000000073,108.36199999999997 C110.20000000000073,108.48699999999997 110.29999999999927,108.54999999999995 110.60000000000036,108.54999999999995 L110.70000000000073,108.54999999999995 C110.79999999999927,108.54999999999995 110.89999999999964,108.53399999999999 111.0,108.50300000000004 C111.10000000000036,108.49199999999996 111.20000000000073,108.45100000000002 111.29999999999927,108.37800000000004 C111.29999999999927,108.37800000000004 111.29999999999927,108.32600000000002 111.5,108.221 C111.60000000000036,108.10699999999997 111.60000000000036,108.024 111.60000000000036,107.971 C111.70000000000073,107.86699999999996 111.70000000000073,107.78399999999999 111.70000000000073,107.721 C111.79999999999927,107.67999999999995 111.79999999999927,107.57600000000002 111.79999999999927,107.40899999999999 C111.89999999999964,107.36699999999996 111.89999999999964,107.32000000000005 111.89999999999964,107.26800000000003 C111.89999999999964,107.21600000000001 111.89999999999964,107.17999999999995 111.89999999999964,107.15899999999999 C111.89999999999964,107.13800000000003 111.89999999999964,107.12199999999996 111.89999999999964,107.11199999999997 C112.0,106.904 112.0,106.779 112.0,106.73699999999997 C112.10000000000036,106.529 112.10000000000036,106.42499999999995 112.10000000000036,106.42499999999995 L113.39999999999964,101.26800000000003 L112.39999999999964,101.26800000000003 C112.29999999999927,101.26800000000003 112.20000000000073,101.23699999999997 112.20000000000073,101.17499999999995 C112.20000000000073,101.09100000000001 112.10000000000036,101.01800000000003 112.10000000000036,100.95600000000002 C112.10000000000036,100.87199999999996 112.20000000000073,100.79999999999995 112.20000000000073,100.73699999999997 C112.29999999999927,100.67499999999995 112.39999999999964,100.64300000000003 112.39999999999964,100.64300000000003 L113.60000000000036,100.64300000000003 C113.89999999999964,99.66399999999999 114.39999999999964,98.82000000000005 115.20000000000073,98.11199999999997 C115.89999999999964,97.38300000000004 116.70000000000073,97.01800000000003 117.60000000000036,97.01800000000003 C118.0,97.01800000000003 118.39999999999964,97.13300000000004 118.70000000000073,97.36199999999997 C119.0,97.58100000000002 119.20000000000073,97.86699999999996 119.20000000000073,98.221 C119.20000000000073,98.60699999999997 119.10000000000036,98.95100000000002 119.0,99.25300000000004 C118.79999999999927,99.524 118.5,99.66399999999999 118.20000000000073,99.67499999999995 C118.0,99.67499999999995 117.79999999999927,99.59400000000005 117.70000000000073,99.43200000000002 C117.5,99.27099999999996 117.39999999999964,99.08100000000002 117.39999999999964,98.86199999999997 C117.39999999999964,98.67499999999995 117.5,98.50300000000004 117.79999999999927,98.346 C118.0,98.19000000000005 118.10000000000036,98.01300000000003 118.10000000000036,97.81500000000005 C118.10000000000036,97.66899999999998 118.0,97.60199999999998 117.70000000000073,97.61199999999997 L117.70000000000073,97.61199999999997 C117.60000000000036,97.63300000000004 117.60000000000036,97.63800000000003 117.60000000000036,97.62800000000004 C117.29999999999927,97.62800000000004 117.20000000000073,97.68499999999995 117.0,97.79999999999995 C116.79999999999927,97.904 116.70000000000073,98.09100000000001 116.60000000000036,98.36199999999997 C116.5,98.43499999999995 116.5,98.50800000000004 116.5,98.58100000000002 C116.39999999999964,98.654 116.39999999999964,98.73400000000004 116.39999999999964,98.82299999999998 C116.29999999999927,98.91200000000003 116.29999999999927,98.971 116.29999999999927,99.00300000000004 C116.29999999999927,99.06500000000005 116.29999999999927,99.19500000000005 116.20000000000073,99.39300000000003 C116.20000000000073,99.58100000000002 116.20000000000073,99.74199999999996 116.10000000000036,99.87800000000004 C116.0,100.274 116.0,100.529 116.0,100.64300000000003 L117.0,100.64300000000003 C117.10000000000036,100.64300000000003 117.20000000000073,100.67200000000003 117.29999999999927,100.72900000000004 C117.29999999999927,100.78700000000003 117.39999999999964,100.85900000000004 117.39999999999964,100.94799999999998 C117.39999999999964,101.03700000000003 117.29999999999927,101.11199999999997 117.29999999999927,101.17499999999995 C117.20000000000073,101.23699999999997 117.10000000000036,101.26800000000003 117.0,101.26800000000003 L115.79999999999927,101.26800000000003 M121.10000000000036,101.26800000000003 L120.10000000000036,104.36199999999997 C119.79999999999927,105.47699999999998 119.20000000000073,106.55499999999995 118.39999999999964,107.596 C117.60000000000036,108.63800000000003 116.79999999999927,109.15899999999999 116.0,109.15899999999999 C115.60000000000036,109.15899999999999 115.20000000000073,109.04700000000003 114.89999999999964,108.82299999999998 C114.60000000000036,108.59900000000005 114.39999999999964,108.30999999999995 114.39999999999964,107.95600000000002 C114.39999999999964,107.54999999999995 114.5,107.20600000000002 114.60000000000036,106.92499999999995 C114.79999999999927,106.654 115.10000000000036,106.50800000000004 115.39999999999964,106.48699999999997 C115.60000000000036,106.48699999999997 115.79999999999927,106.57000000000005 116.0,106.73699999999997 C116.10000000000036,106.904 116.20000000000073,107.096 116.20000000000073,107.31500000000005 C116.20000000000073,107.51300000000003 116.10000000000036,107.69500000000005 115.79999999999927,107.86199999999997 C115.60000000000036,108.00800000000004 115.5,108.17499999999995 115.5,108.36199999999997 C115.5,108.48699999999997 115.60000000000036,108.54999999999995 115.89999999999964,108.54999999999995 L116.0,108.54999999999995 C116.10000000000036,108.54999999999995 116.20000000000073,108.53399999999999 116.29999999999927,108.50300000000004 C116.39999999999964,108.49199999999996 116.5,108.45100000000002 116.60000000000036,108.37800000000004 C116.60000000000036,108.37800000000004 116.60000000000036,108.32600000000002 116.79999999999927,108.221 C116.79999999999927,108.10699999999997 116.89999999999964,108.024 116.89999999999964,107.971 C116.89999999999964,107.86699999999996 117.0,107.78399999999999 117.0,107.721 C117.10000000000036,107.67999999999995 117.10000000000036,107.57600000000002 117.10000000000036,107.40899999999999 C117.10000000000036,107.36699999999996 117.20000000000073,107.32000000000005 117.20000000000073,107.26800000000003 C117.20000000000073,107.21600000000001 117.20000000000073,107.17999999999995 117.20000000000073,107.15899999999999 C117.20000000000073,107.13800000000003 117.20000000000073,107.12199999999996 117.20000000000073,107.11199999999997 C117.29999999999927,106.904 117.29999999999927,106.779 117.29999999999927,106.73699999999997 C117.39999999999964,106.529 117.39999999999964,106.42499999999995 117.39999999999964,106.42499999999995 L118.70000000000073,101.26800000000003 L117.70000000000073,101.26800000000003 C117.60000000000036,101.26800000000003 117.5,101.23699999999997 117.5,101.17499999999995 C117.39999999999964,101.09100000000001 117.39999999999964,101.01800000000003 117.39999999999964,100.95600000000002 C117.39999999999964,100.87199999999996 117.39999999999964,100.79999999999995 117.5,100.73699999999997 C117.60000000000036,100.67499999999995 117.60000000000036,100.64300000000003 117.70000000000073,100.64300000000003 L118.89999999999964,100.64300000000003 C119.20000000000073,99.66399999999999 119.70000000000073,98.82000000000005 120.5,98.11199999999997 C121.20000000000073,97.38300000000004 122.0,97.01800000000003 122.89999999999964,97.01800000000003 C123.29999999999927,97.01800000000003 123.70000000000073,97.13300000000004 124.0,97.36199999999997 C124.29999999999927,97.58100000000002 124.5,97.86699999999996 124.5,98.221 C124.5,98.60699999999997 124.39999999999964,98.95100000000002 124.29999999999927,99.25300000000004 C124.10000000000036,99.524 123.79999999999927,99.66399999999999 123.5,99.67499999999995 C123.29999999999927,99.67499999999995 123.10000000000036,99.59400000000005 122.89999999999964,99.43200000000002 C122.79999999999927,99.27099999999996 122.70000000000073,99.08100000000002 122.70000000000073,98.86199999999997 C122.70000000000073,98.67499999999995 122.79999999999927,98.50300000000004 123.10000000000036,98.346 C123.29999999999927,98.19000000000005 123.39999999999964,98.01300000000003 123.39999999999964,97.81500000000005 C123.39999999999964,97.66899999999998 123.29999999999927,97.60199999999998 123.0,97.61199999999997 L123.0,97.61199999999997 C122.89999999999964,97.63300000000004 122.89999999999964,97.63800000000003 122.89999999999964,97.62800000000004 C122.60000000000036,97.62800000000004 122.39999999999964,97.68499999999995 122.29999999999927,97.79999999999995 C122.10000000000036,97.904 122.0,98.09100000000001 121.79999999999927,98.36199999999997 C121.79999999999927,98.43499999999995 121.79999999999927,98.50800000000004 121.70000000000073,98.58100000000002 C121.70000000000073,98.654 121.70000000000073,98.73400000000004 121.70000000000073,98.82299999999998 C121.60000000000036,98.91200000000003 121.60000000000036,98.971 121.60000000000036,99.00300000000004 C121.60000000000036,99.06500000000005 121.5,99.19500000000005 121.5,99.39300000000003 C121.5,99.58100000000002 121.39999999999964,99.74199999999996 121.39999999999964,99.87800000000004 C121.29999999999927,100.274 121.29999999999927,100.529 121.20000000000073,100.64300000000003 L122.29999999999927,100.64300000000003 C122.39999999999964,100.64300000000003 122.5,100.67200000000003 122.5,100.72900000000004 C122.60000000000036,100.78700000000003 122.60000000000036,100.85900000000004 122.60000000000036,100.94799999999998 C122.60000000000036,101.03700000000003 122.60000000000036,101.11199999999997 122.5,101.17499999999995 C122.5,101.23699999999997 122.39999999999964,101.26800000000003 122.29999999999927,101.26800000000003 L121.10000000000036,101.26800000000003" />
<path d="M238.60000000000036,93.846 L332.7000000000007,100.13999999999999 L332.7000000000007,102.63999999999999 L238.60000000000036,96.346 L238.60000000000036,93.846" />
<path d="M238.60000000000036,90.096 L332.7000000000007,96.38999999999999 L332.7000000000007,98.88999999999999 L238.60000000000036,92.596 L238.60000000000036,90.096" />
<path d="M238.60000000000036,41.346000000000004 L332.7000000000007,36.31200000000001 L332.7000000000007,38.81200000000001 L238.60000000000036,43.846000000000004 L238.60000000000036,41.346000000000004" />
<path d="M113.60000000000036,98.846 L208.10000000000036,98.846 L208.10000000000036,101.346 L113.60000000000036,101.346 L113.60000000000036,98.846" />
<path d="M113.60000000000036,95.096 L208.10000000000036,95.096 L208.10000000000036,97.596 L113.60000000000036,97.596 L113.60000000000036,95.096" />
<path d="M119.89999999999964,16.399 L182.89999999999964,11.346000000000004 L182.89999999999964,13.846000000000004 L119.89999999999964,18.899 L119.89999999999964,16.399" />
<polyline points="0.0,13.846000000000004 17.899999999999636,13.846000000000004" fill="none" stroke="#000000" stroke-width="0.40" />
<polyline points="0.0,18.846000000000004 17.899999999999636,18.846000000000004" fill="none" stroke="#000000" stroke-width="0.40" />
<polyline points="0.0,23.846000000000004 17.899999999999636,23.846000000000004" fill="none" stroke="#000000" stroke-width="0.40" />
<polyline points="0.0,28.846000000000004 17.899999999999636,28.846000000000004" fill="none" stroke="#000000" stroke-width="0.40" />
<polyline points="0.0,33.846000000000004 17.899999999999636,33.846000000000004" fill="none" stroke="#000000" stroke-width="0.40" />
<polyline points="0.0,66.346 17.899999999999636,66.346" fill="none" stroke="#000000" stroke-width="0.40" />
<polyline points="0.0,71.346 17.899999999999636,71.346" fill="none" stroke="#000000" stroke-width="0.40" />
<polyline points="0.0,76.346 17.899999999999636,76.346" fill="none" stroke="#000000" stroke-width="0.40" />
<polyline points="0.0,81.346 17.899999999999636,81.346" fill="none" stroke="#000000" stroke-width="0.40" />
<polyline points="0.0,86.346 17.899999999999636,86.346" fill="none" stroke="#000000" stroke-width="0.40" />
<polyline points="17.5,66.346 17.5,86.346" fill="" stroke="#000000" stroke-width="0.80" />
<polyline points="17.5,13.846000000000004 17.5,33.846000000000004" fill="" stroke="#000000" stroke-width="0.80" />
<polyline points="74.60000000000036,13.846000000000004 255.0,13.846000000000004" fill="none" stroke="#000000" stroke-width="0.40" />
<polyline points="74.60000000000036,18.846000000000004 255.0,18.846000000000004" fill="none" stroke="#000000" stroke-width="0.40" />
<polyline points="74.60000000000036,23.846000000000004 255.0,23.846000000000004" fill="none" stroke="#000000" stroke-width="0.40" />
<polyline points="74.60000000000036,28.846000000000004 255.0,28.846000000000004" fill="none" stroke="#000000" stroke-width="0.40" />
<polyline points="74.60000000000036,33.846000000000004 255.0,33.846000000000004" fill="none" stroke="#000000" stroke-width="0.40" />
<polyline points="74.60000000000036,66.346 255.0,66.346" fill="none" stroke="#000000" stroke-width="0.40" />
<polyline points="74.60000000000036,71.346 255.0,71.346" fill="none" stroke="#000000" stroke-width="0.40" />
<polyline points="74.60000000000036,76.346 255.0,76.346" fill="none" stroke="#000000" stroke-width="0.40" />
<polyline points="74.60000000000036,81.346 255.0,81.346" fill="none" stroke="#000000" stroke-width="0.40" />
<polyline points="74.60000000000036,86.346 255.0,86.346" fill="none" stroke="#000000" stroke-width="0.40" />
<polyline points="75.0,0.0 75.0,86.346" fill="" stroke="#000000" stroke-width="0.80" />
<polyline points="238.89999999999964,74.78599999999994 238.89999999999964,95.096" fill="" stroke="#000000" stroke-width="0.65" />
<polyline points="238.89999999999964,27.285999999999945 238.89999999999964,42.596000000000004" fill="" stroke="#000000" stroke-width="0.65" />
<polyline points="207.79999999999927,74.78599999999994 207.79999999999927,100.096" fill="" stroke="#000000" stroke-width="0.65" />
<polyline points="176.60000000000036,74.78599999999994 176.60000000000036,100.096" fill="" stroke="#000000" stroke-width="0.65" />
<polyline points="182.60000000000036,25.40700000000004 182.60000000000036,12.596000000000004" fill="" stroke="#000000" stroke-width="0.65" />
<polyline points="145.5,74.78599999999994 145.5,100.096" fill="" stroke="#000000" stroke-width="0.65" />
<polyline points="113.89999999999964,65.90999999999997 113.89999999999964,100.096" fill="" stroke="#000000" stroke-width="0.65" />
<polyline points="120.29999999999927,32.90700000000004 120.29999999999927,17.596000000000004" fill="" stroke="#000000" stroke-width="0.65" />
</svg>
