<?xml version="1.0" encoding="UTF-8" standalone="yes"?>
<svg width="256.0px" height="256.0px" xmlns="http://www.w3.org/2000/svg" xmlns:xlink="http://www.w3.org/1999/xlink" version="1.2" baseProfile="tiny">
<path d="M28.200000000000728,244.596 C38.5,250.696 69.29999999999927,250.696 79.60000000000036,244.596 C69.29999999999927,251.496 38.5,251.496 28.200000000000728,244.596" />
<path d="M232.79999999999927,175.846 C233.0,175.753 233.20000000000073,175.706 233.39999999999964,175.706 C233.5,175.706 233.70000000000073,175.753 233.89999999999964,175.846 L233.79999999999927,179.503 L235.89999999999964,179.112 L236.0,179.112 C236.20000000000073,179.112 236.39999999999964,179.221 236.39999999999964,179.44 L236.5,190.846 C236.29999999999927,190.94 236.20000000000073,190.987 236.0,190.987 C235.79999999999927,190.987 235.60000000000036,190.94 235.5,190.846 L235.5,187.19 L233.39999999999964,187.581 L233.39999999999964,187.581 C233.10000000000036,187.581 233.0,187.471 233.0,187.253 L232.79999999999927,175.846 M235.60000000000036,185.237 L235.60000000000036,181.096 L233.79999999999927,181.456 L233.70000000000073,185.596 L235.60000000000036,185.237" />
<path d="M218.60000000000036,232.081 C218.60000000000036,232.331 218.5,232.456 218.20000000000073,232.456 C218.0,232.456 217.89999999999964,232.331 217.89999999999964,232.081 L217.89999999999964,229.19 L216.20000000000073,229.815 L216.20000000000073,232.971 C216.20000000000073,233.221 216.10000000000036,233.346 215.79999999999927,233.346 C215.60000000000036,233.346 215.39999999999964,233.221 215.39999999999964,232.971 L215.39999999999964,230.065 L214.79999999999927,230.3 C214.79999999999927,230.31 214.79999999999927,230.315 214.70000000000073,230.315 C214.60000000000036,230.315 214.5,230.276 214.39999999999964,230.198 C214.29999999999927,230.12 214.29999999999927,230.029 214.29999999999927,229.925 L214.29999999999927,228.721 C214.29999999999927,228.524 214.39999999999964,228.399 214.5,228.346 L215.39999999999964,228.034 L215.39999999999964,224.831 L214.79999999999927,225.05 C214.79999999999927,225.06 214.79999999999927,225.065 214.70000000000073,225.065 C214.60000000000036,225.065 214.5,225.026 214.39999999999964,224.948 C214.29999999999927,224.87 214.29999999999927,224.779 214.29999999999927,224.675 L214.29999999999927,223.456 C214.29999999999927,223.279 214.39999999999964,223.164 214.5,223.112 L215.39999999999964,222.753 L215.39999999999964,219.612 C215.39999999999964,219.362 215.60000000000036,219.237 215.79999999999927,219.237 C216.10000000000036,219.237 216.20000000000073,219.362 216.20000000000073,219.612 L216.20000000000073,222.503 L217.89999999999964,221.878 L217.89999999999964,218.721 C217.89999999999964,218.471 218.0,218.346 218.20000000000073,218.346 C218.5,218.346 218.60000000000036,218.471 218.60000000000036,218.721 L218.60000000000036,221.628 L219.20000000000073,221.393 C219.29999999999927,221.383 219.29999999999927,221.378 219.39999999999964,221.378 C219.5,221.378 219.60000000000036,221.414 219.70000000000073,221.487 C219.70000000000073,221.57 219.79999999999927,221.664 219.79999999999927,221.768 L219.79999999999927,222.971 C219.79999999999927,223.159 219.70000000000073,223.284 219.5,223.346 L218.60000000000036,223.659 L218.60000000000036,226.862 L219.20000000000073,226.643 C219.29999999999927,226.633 219.29999999999927,226.628 219.39999999999964,226.628 C219.5,226.628 219.60000000000036,226.669 219.70000000000073,226.753 C219.70000000000073,226.826 219.79999999999927,226.914 219.79999999999927,227.018 L219.79999999999927,228.237 C219.79999999999927,228.404 219.70000000000073,228.518 219.5,228.581 L218.60000000000036,228.94 L218.60000000000036,232.081 M217.89999999999964,223.956 L216.20000000000073,224.534 L216.20000000000073,227.737 L217.89999999999964,227.159 L217.89999999999964,223.956" />
<path d="M165.20000000000073,177.518 L165.20000000000073,179.065 C165.20000000000073,179.617 165.20000000000073,180.055 165.29999999999927,180.378 C165.70000000000073,180.013 166.0,179.742 166.20000000000073,179.565 C166.39999999999964,179.357 166.60000000000036,179.068 166.79999999999927,178.698 C167.0,178.328 167.10000000000036,177.961 167.10000000000036,177.596 C167.10000000000036,177.232 167.0,176.919 166.89999999999964,176.659 C166.70000000000073,176.399 166.5,176.268 166.29999999999927,176.268 C166.0,176.268 165.70000000000073,176.388 165.5,176.628 C165.29999999999927,176.888 165.20000000000073,177.185 165.20000000000073,177.518 M164.39999999999964,181.096 L164.10000000000036,169.206 C164.29999999999927,169.102 164.5,169.05 164.70000000000073,169.05 C164.79999999999927,169.05 165.0,169.102 165.20000000000073,169.206 L165.0,176.096 C165.60000000000036,175.638 166.20000000000073,175.409 166.89999999999964,175.409 C167.39999999999964,175.409 167.79999999999927,175.617 168.10000000000036,176.034 C168.5,176.451 168.70000000000073,176.93 168.70000000000073,177.471 C168.70000000000073,177.805 168.5,178.164 168.29999999999927,178.55 C168.10000000000036,178.893 167.89999999999964,179.164 167.70000000000073,179.362 C167.5,179.466 167.20000000000073,179.727 166.70000000000073,180.143 C166.5,180.258 166.29999999999927,180.393 166.10000000000036,180.55 C165.89999999999964,180.706 165.79999999999927,180.805 165.70000000000073,180.846 C165.60000000000036,180.899 165.5,181.003 165.5,181.159 C165.39999999999964,181.294 165.29999999999927,181.404 165.10000000000036,181.487 C165.10000000000036,181.57 165.0,181.612 164.79999999999927,181.612 C164.70000000000073,181.612 164.60000000000036,181.565 164.5,181.471 C164.39999999999964,181.378 164.39999999999964,181.253 164.39999999999964,181.096" />
<path d="M165.20000000000073,195.018 L165.20000000000073,196.565 C165.20000000000073,197.117 165.20000000000073,197.555 165.29999999999927,197.878 C165.70000000000073,197.513 166.0,197.242 166.20000000000073,197.065 C166.39999999999964,196.857 166.60000000000036,196.568 166.79999999999927,196.198 C167.0,195.828 167.10000000000036,195.461 167.10000000000036,195.096 C167.10000000000036,194.732 167.0,194.419 166.89999999999964,194.159 C166.70000000000073,193.899 166.5,193.768 166.29999999999927,193.768 C166.0,193.768 165.70000000000073,193.888 165.5,194.128 C165.29999999999927,194.388 165.20000000000073,194.685 165.20000000000073,195.018 M164.39999999999964,198.596 L164.10000000000036,186.706 C164.29999999999927,186.602 164.5,186.55 164.70000000000073,186.55 C164.79999999999927,186.55 165.0,186.602 165.20000000000073,186.706 L165.0,193.596 C165.60000000000036,193.138 166.20000000000073,192.909 166.89999999999964,192.909 C167.39999999999964,192.909 167.79999999999927,193.117 168.10000000000036,193.534 C168.5,193.951 168.70000000000073,194.43 168.70000000000073,194.971 C168.70000000000073,195.305 168.5,195.664 168.29999999999927,196.05 C168.10000000000036,196.393 167.89999999999964,196.664 167.70000000000073,196.862 C167.5,196.966 167.20000000000073,197.227 166.70000000000073,197.643 C166.5,197.758 166.29999999999927,197.893 166.10000000000036,198.05 C165.89999999999964,198.206 165.79999999999927,198.305 165.70000000000073,198.346 C165.60000000000036,198.399 165.5,198.503 165.5,198.659 C165.39999999999964,198.794 165.29999999999927,198.904 165.10000000000036,198.987 C165.10000000000036,199.07 165.0,199.112 164.79999999999927,199.112 C164.70000000000073,199.112 164.60000000000036,199.065 164.5,198.971 C164.39999999999964,198.878 164.39999999999964,198.753 164.39999999999964,198.596" />
<path d="M21.600000000000364,247.081 C21.600000000000364,247.331 21.5,247.456 21.200000000000728,247.456 C21.0,247.456 20.899999999999636,247.331 20.899999999999636,247.081 L20.899999999999636,244.19 L19.200000000000728,244.815 L19.200000000000728,247.971 C19.200000000000728,248.221 19.100000000000364,248.346 18.799999999999272,248.346 C18.600000000000364,248.346 18.5,248.221 18.5,247.971 L18.5,245.065 L17.799999999999272,245.3 C17.799999999999272,245.31 17.799999999999272,245.315 17.700000000000728,245.315 C17.600000000000364,245.315 17.5,245.276 17.399999999999636,245.198 C17.299999999999272,245.12 17.299999999999272,245.029 17.299999999999272,244.925 L17.299999999999272,243.721 C17.299999999999272,243.524 17.399999999999636,243.399 17.5,243.346 L18.5,243.034 L18.5,239.831 L17.799999999999272,240.05 C17.799999999999272,240.06 17.799999999999272,240.065 17.700000000000728,240.065 C17.600000000000364,240.065 17.5,240.026 17.399999999999636,239.948 C17.299999999999272,239.87 17.299999999999272,239.779 17.299999999999272,239.675 L17.299999999999272,238.456 C17.299999999999272,238.279 17.399999999999636,238.164 17.5,238.112 L18.5,237.753 L18.5,234.612 C18.5,234.362 18.600000000000364,234.237 18.799999999999272,234.237 C19.100000000000364,234.237 19.200000000000728,234.362 19.200000000000728,234.612 L19.200000000000728,237.503 L20.899999999999636,236.878 L20.899999999999636,233.721 C20.899999999999636,233.471 21.0,233.346 21.200000000000728,233.346 C21.5,233.346 21.600000000000364,233.471 21.600000000000364,233.721 L21.600000000000364,236.628 L22.299999999999272,236.393 C22.299999999999272,236.383 22.299999999999272,236.378 22.399999999999636,236.378 C22.5,236.378 22.600000000000364,236.414 22.700000000000728,236.487 C22.799999999999272,236.57 22.799999999999272,236.664 22.799999999999272,236.768 L22.799999999999272,237.971 C22.799999999999272,238.159 22.700000000000728,238.284 22.5,238.346 L21.600000000000364,238.659 L21.600000000000364,241.862 L22.299999999999272,241.643 C22.299999999999272,241.633 22.299999999999272,241.628 22.399999999999636,241.628 C22.5,241.628 22.600000000000364,241.669 22.700000000000728,241.753 C22.799999999999272,241.826 22.799999999999272,241.914 22.799999999999272,242.018 L22.799999999999272,243.237 C22.799999999999272,243.404 22.700000000000728,243.518 22.5,243.581 L21.600000000000364,243.94 L21.600000000000364,247.081 M20.899999999999636,238.956 L19.200000000000728,239.534 L19.200000000000728,242.737 L20.899999999999636,242.159 L20.899999999999636,238.956" />
<path d="M21.399999999999636,189.581 C21.399999999999636,189.831 21.299999999999272,189.956 21.100000000000364,189.956 C20.799999999999272,189.956 20.700000000000728,189.831 20.700000000000728,189.581 L20.700000000000728,186.69 L19.0,187.315 L19.0,190.471 C19.0,190.721 18.899999999999636,190.846 18.700000000000728,190.846 C18.399999999999636,190.846 18.299999999999272,190.721 18.299999999999272,190.471 L18.299999999999272,187.565 L17.700000000000728,187.8 C17.600000000000364,187.81 17.600000000000364,187.815 17.5,187.815 C17.399999999999636,187.815 17.299999999999272,187.776 17.200000000000728,187.698 C17.100000000000364,187.62 17.100000000000364,187.529 17.100000000000364,187.425 L17.100000000000364,186.221 C17.100000000000364,186.024 17.200000000000728,185.899 17.399999999999636,185.846 L18.299999999999272,185.534 L18.299999999999272,182.331 L17.700000000000728,182.55 C17.600000000000364,182.56 17.600000000000364,182.565 17.5,182.565 C17.399999999999636,182.565 17.299999999999272,182.526 17.200000000000728,182.448 C17.100000000000364,182.37 17.100000000000364,182.279 17.100000000000364,182.175 L17.100000000000364,180.956 C17.100000000000364,180.779 17.200000000000728,180.664 17.399999999999636,180.612 L18.299999999999272,180.253 L18.299999999999272,177.112 C18.299999999999272,176.862 18.399999999999636,176.737 18.700000000000728,176.737 C18.899999999999636,176.737 19.0,176.862 19.0,177.112 L19.0,180.003 L20.700000000000728,179.378 L20.700000000000728,176.221 C20.700000000000728,175.971 20.799999999999272,175.846 21.100000000000364,175.846 C21.299999999999272,175.846 21.399999999999636,175.971 21.399999999999636,176.221 L21.399999999999636,179.128 L22.100000000000364,178.893 C22.100000000000364,178.883 22.100000000000364,178.878 22.200000000000728,178.878 C22.299999999999272,178.878 22.399999999999636,178.914 22.5,178.987 C22.600000000000364,179.07 22.600000000000364,179.164 22.600000000000364,179.268 L22.600000000000364,180.471 C22.600000000000364,180.659 22.5,180.784 22.299999999999272,180.846 L21.399999999999636,181.159 L21.399999999999636,184.362 L22.100000000000364,184.143 C22.100000000000364,184.133 22.100000000000364,184.128 22.200000000000728,184.128 C22.299999999999272,184.128 22.399999999999636,184.169 22.5,184.253 C22.600000000000364,184.326 22.600000000000364,184.414 22.600000000000364,184.518 L22.600000000000364,185.737 C22.600000000000364,185.904 22.5,186.018 22.299999999999272,186.081 L21.399999999999636,186.44 L21.399999999999636,189.581 M20.700000000000728,181.456 L19.0,182.034 L19.0,185.237 L20.700000000000728,184.659 L20.700000000000728,181.456" />
<path d="M12.5,187.518 L12.5,189.065 C12.5,189.617 12.5,190.055 12.600000000000364,190.378 C13.0,190.013 13.299999999999272,189.742 13.5,189.565 C13.700000000000728,189.357 13.899999999999636,189.068 14.100000000000364,188.698 C14.299999999999272,188.328 14.399999999999636,187.961 14.399999999999636,187.596 C14.399999999999636,187.232 14.399999999999636,186.919 14.200000000000728,186.659 C14.0,186.399 13.799999999999272,186.268 13.600000000000364,186.268 C13.299999999999272,186.268 13.0,186.388 12.799999999999272,186.628 C12.600000000000364,186.888 12.5,187.185 12.5,187.518 M11.700000000000728,191.096 L11.399999999999636,179.206 C11.600000000000364,179.102 11.799999999999272,179.05 12.0,179.05 C12.200000000000728,179.05 12.299999999999272,179.102 12.5,179.206 L12.399999999999636,186.096 C12.899999999999636,185.638 13.5,185.409 14.200000000000728,185.409 C14.700000000000728,185.409 15.100000000000364,185.617 15.5,186.034 C15.799999999999272,186.451 16.0,186.93 16.0,187.471 C16.0,187.805 15.899999999999636,188.164 15.600000000000364,188.55 C15.399999999999636,188.893 15.200000000000728,189.164 15.0,189.362 C14.799999999999272,189.466 14.5,189.727 14.0,190.143 C13.799999999999272,190.258 13.600000000000364,190.393 13.399999999999636,190.55 C13.200000000000728,190.706 13.100000000000364,190.805 13.0,190.846 C12.899999999999636,190.899 12.799999999999272,191.003 12.799999999999272,191.159 C12.700000000000728,191.294 12.600000000000364,191.404 12.399999999999636,191.487 C12.399999999999636,191.57 12.299999999999272,191.612 12.100000000000364,191.612 C12.0,191.612 11.899999999999636,191.565 11.799999999999272,191.471 C11.700000000000728,191.378 11.700000000000728,191.253 11.700000000000728,191.096" />
<path d="M242.0,220.596 C242.60000000000036,220.596 243.10000000000036,220.758 243.60000000000036,221.081 C244.0,221.435 244.20000000000073,221.878 244.20000000000073,222.409 C244.20000000000073,223.305 243.70000000000073,224.143 242.79999999999927,224.925 C241.79999999999927,225.706 240.79999999999927,226.096 239.79999999999927,226.096 C239.10000000000036,226.096 238.60000000000036,225.935 238.20000000000073,225.612 C237.79999999999927,225.258 237.60000000000036,224.815 237.60000000000036,224.284 C237.60000000000036,223.388 238.0,222.55 239.0,221.768 C239.89999999999964,220.987 240.89999999999964,220.596 242.0,220.596" />
<path d="M240.89999999999964,175.128 L243.29999999999927,173.175 C243.29999999999927,173.122 243.39999999999964,173.096 243.5,173.096 C243.5,173.096 243.60000000000036,173.122 243.70000000000073,173.175 L244.10000000000036,173.487 C244.10000000000036,173.55 244.20000000000073,173.628 244.20000000000073,173.721 C244.20000000000073,173.784 244.10000000000036,173.862 244.10000000000036,173.956 L241.70000000000073,175.846 L244.10000000000036,177.737 C244.10000000000036,177.81 244.20000000000073,177.891 244.20000000000073,177.979 C244.20000000000073,178.068 244.10000000000036,178.143 244.10000000000036,178.206 L243.70000000000073,178.518 C243.60000000000036,178.57 243.5,178.596 243.5,178.596 C243.39999999999964,178.596 243.29999999999927,178.57 243.29999999999927,178.518 L240.89999999999964,176.565 L238.5,178.518 C238.39999999999964,178.57 238.29999999999927,178.596 238.29999999999927,178.596 C238.20000000000073,178.596 238.20000000000073,178.57 238.10000000000036,178.518 L237.70000000000073,178.206 C237.60000000000036,178.143 237.60000000000036,178.065 237.60000000000036,177.971 C237.60000000000036,177.909 237.60000000000036,177.831 237.70000000000073,177.737 L240.0,175.846 L237.70000000000073,173.956 C237.60000000000036,173.883 237.60000000000036,173.802 237.60000000000036,173.714 C237.60000000000036,173.625 237.60000000000036,173.55 237.70000000000073,173.487 L238.10000000000036,173.175 C238.20000000000073,173.122 238.20000000000073,173.096 238.29999999999927,173.096 C238.29999999999927,173.096 238.39999999999964,173.122 238.5,173.175 L240.89999999999964,175.128" />
<path d="M242.0,180.596 C242.60000000000036,180.596 243.10000000000036,180.758 243.60000000000036,181.081 C244.0,181.435 244.20000000000073,181.878 244.20000000000073,182.409 C244.20000000000073,183.305 243.70000000000073,184.143 242.79999999999927,184.925 C241.79999999999927,185.706 240.79999999999927,186.096 239.79999999999927,186.096 C239.10000000000036,186.096 238.60000000000036,185.935 238.20000000000073,185.612 C237.79999999999927,185.258 237.60000000000036,184.815 237.60000000000036,184.284 C237.60000000000036,183.388 238.0,182.55 239.0,181.768 C239.89999999999964,180.987 240.89999999999964,180.596 242.0,180.596" />
<path d="M242.0,190.596 C242.60000000000036,190.596 243.10000000000036,190.758 243.60000000000036,191.081 C244.0,191.435 244.20000000000073,191.878 244.20000000000073,192.409 C244.20000000000073,193.305 243.70000000000073,194.143 242.79999999999927,194.925 C241.79999999999927,195.706 240.79999999999927,196.096 239.79999999999927,196.096 C239.10000000000036,196.096 238.60000000000036,195.935 238.20000000000073,195.612 C237.79999999999927,195.258 237.60000000000036,194.815 237.60000000000036,194.284 C237.60000000000036,193.388 238.0,192.55 239.0,191.768 C239.89999999999964,190.987 240.89999999999964,190.596 242.0,190.596" />
<path d="M225.29999999999927,223.096 C225.89999999999964,223.096 226.39999999999964,223.258 226.89999999999964,223.581 C227.29999999999927,223.935 227.5,224.378 227.5,224.909 C227.5,225.805 227.0,226.643 226.10000000000036,227.425 C225.10000000000036,228.206 224.10000000000036,228.596 223.10000000000036,228.596 C222.39999999999964,228.596 221.89999999999964,228.435 221.5,228.112 C221.10000000000036,227.758 220.89999999999964,227.315 220.89999999999964,226.784 C220.89999999999964,225.888 221.39999999999964,225.05 222.29999999999927,224.268 C223.20000000000073,223.487 224.20000000000073,223.096 225.29999999999927,223.096" />
<path d="M208.60000000000036,223.096 C209.20000000000073,223.096 209.70000000000073,223.258 210.20000000000073,223.581 C210.60000000000036,223.935 210.79999999999927,224.378 210.79999999999927,224.909 C210.79999999999927,225.805 210.29999999999927,226.643 209.39999999999964,227.425 C208.5,228.206 207.39999999999964,228.596 206.39999999999964,228.596 C205.79999999999927,228.596 205.20000000000073,228.435 204.79999999999927,228.112 C204.39999999999964,227.758 204.20000000000073,227.315 204.20000000000073,226.784 C204.20000000000073,225.888 204.70000000000073,225.05 205.60000000000036,224.268 C206.5,223.487 207.5,223.096 208.60000000000036,223.096" />
<path d="M208.60000000000036,170.596 C209.20000000000073,170.596 209.70000000000073,170.758 210.20000000000073,171.081 C210.60000000000036,171.435 210.79999999999927,171.878 210.79999999999927,172.409 C210.79999999999927,173.305 210.29999999999927,174.143 209.39999999999964,174.925 C208.5,175.706 207.39999999999964,176.096 206.39999999999964,176.096 C205.79999999999927,176.096 205.20000000000073,175.935 204.79999999999927,175.612 C204.39999999999964,175.258 204.20000000000073,174.815 204.20000000000073,174.284 C204.20000000000073,173.388 204.70000000000073,172.55 205.60000000000036,171.768 C206.5,170.987 207.5,170.596 208.60000000000036,170.596" />
<path d="M208.60000000000036,175.596 C209.20000000000073,175.596 209.70000000000073,175.758 210.20000000000073,176.081 C210.60000000000036,176.435 210.79999999999927,176.878 210.79999999999927,177.409 C210.79999999999927,178.305 210.29999999999927,179.143 209.39999999999964,179.925 C208.5,180.706 207.39999999999964,181.096 206.39999999999964,181.096 C205.79999999999927,181.096 205.20000000000073,180.935 204.79999999999927,180.612 C204.39999999999964,180.258 204.20000000000073,179.815 204.20000000000073,179.284 C204.20000000000073,178.388 204.70000000000073,177.55 205.60000000000036,176.768 C206.5,175.987 207.5,175.596 208.60000000000036,175.596" />
<path d="M208.60000000000036,183.096 C209.20000000000073,183.096 209.70000000000073,183.258 210.20000000000073,183.581 C210.60000000000036,183.935 210.79999999999927,184.378 210.79999999999927,184.909 C210.79999999999927,185.805 210.29999999999927,186.643 209.39999999999964,187.425 C208.5,188.206 207.39999999999964,188.596 206.39999999999964,188.596 C205.79999999999927,188.596 205.20000000000073,188.435 204.79999999999927,188.112 C204.39999999999964,187.758 204.20000000000073,187.315 204.20000000000073,186.784 C204.20000000000073,185.888 204.70000000000073,185.05 205.60000000000036,184.268 C206.5,183.487 207.5,183.096 208.60000000000036,183.096" />
<path d="M208.60000000000036,193.096 C209.20000000000073,193.096 209.70000000000073,193.258 210.20000000000073,193.581 C210.60000000000036,193.935 210.79999999999927,194.378 210.79999999999927,194.909 C210.79999999999927,195.805 210.29999999999927,196.643 209.39999999999964,197.425 C208.5,198.206 207.39999999999964,198.596 206.39999999999964,198.596 C205.79999999999927,198.596 205.20000000000073,198.435 204.79999999999927,198.112 C204.39999999999964,197.758 204.20000000000073,197.315 204.20000000000073,196.784 C204.20000000000073,195.888 204.70000000000073,195.05 205.60000000000036,194.268 C206.5,193.487 207.5,193.096 208.60000000000036,193.096" />
<path d="M191.89999999999964,220.596 C192.5,220.596 193.0,220.758 193.5,221.081 C193.89999999999964,221.435 194.10000000000036,221.878 194.10000000000036,222.409 C194.10000000000036,223.305 193.60000000000036,224.143 192.70000000000073,224.925 C191.79999999999927,225.706 190.79999999999927,226.096 189.70000000000073,226.096 C189.10000000000036,226.096 188.5,225.935 188.10000000000036,225.612 C187.70000000000073,225.258 187.5,224.815 187.5,224.284 C187.5,223.388 188.0,222.55 188.89999999999964,221.768 C189.79999999999927,220.987 190.79999999999927,220.596 191.89999999999964,220.596" />
<path d="M191.89999999999964,170.596 C192.5,170.596 193.0,170.758 193.5,171.081 C193.89999999999964,171.435 194.10000000000036,171.878 194.10000000000036,172.409 C194.10000000000036,173.305 193.60000000000036,174.143 192.70000000000073,174.925 C191.79999999999927,175.706 190.79999999999927,176.096 189.70000000000073,176.096 C189.10000000000036,176.096 188.5,175.935 188.10000000000036,175.612 C187.70000000000073,175.258 187.5,174.815 187.5,174.284 C187.5,173.388 188.0,172.55 188.89999999999964,171.768 C189.79999999999927,170.987 190.79999999999927,170.596 191.89999999999964,170.596" />
<path d="M191.89999999999964,175.596 C192.5,175.596 193.0,175.758 193.5,176.081 C193.89999999999964,176.435 194.10000000000036,176.878 194.10000000000036,177.409 C194.10000000000036,178.305 193.60000000000036,179.143 192.70000000000073,179.925 C191.79999999999927,180.706 190.79999999999927,181.096 189.70000000000073,181.096 C189.10000000000036,181.096 188.5,180.935 188.10000000000036,180.612 C187.70000000000073,180.258 187.5,179.815 187.5,179.284 C187.5,178.388 188.0,177.55 188.89999999999964,176.768 C189.79999999999927,175.987 190.79999999999927,175.596 191.89999999999964,175.596" />
<path d="M191.89999999999964,183.096 C192.5,183.096 193.0,183.258 193.5,183.581 C193.89999999999964,183.935 194.10000000000036,184.378 194.10000000000036,184.909 C194.10000000000036,185.805 193.60000000000036,186.643 192.70000000000073,187.425 C191.79999999999927,188.206 190.79999999999927,188.596 189.70000000000073,188.596 C189.10000000000036,188.596 188.5,188.435 188.10000000000036,188.112 C187.70000000000073,187.758 187.5,187.315 187.5,186.784 C187.5,185.888 188.0,185.05 188.89999999999964,184.268 C189.79999999999927,183.487 190.79999999999927,183.096 191.89999999999964,183.096" />
<path d="M191.89999999999964,193.096 C192.5,193.096 193.0,193.258 193.5,193.581 C193.89999999999964,193.935 194.10000000000036,194.378 194.10000000000036,194.909 C194.10000000000036,195.805 193.60000000000036,196.643 192.70000000000073,197.425 C191.79999999999927,198.206 190.79999999999927,198.596 189.70000000000073,198.596 C189.10000000000036,198.596 188.5,198.435 188.10000000000036,198.112 C187.70000000000073,197.758 187.5,197.315 187.5,196.784 C187.5,195.888 188.0,195.05 188.89999999999964,194.268 C189.79999999999927,193.487 190.79999999999927,193.096 191.89999999999964,193.096" />
<path d="M175.20000000000073,220.596 C175.79999999999927,220.596 176.29999999999927,220.758 176.79999999999927,221.081 C177.20000000000073,221.435 177.39999999999964,221.878 177.39999999999964,222.409 C177.39999999999964,223.305 176.89999999999964,224.143 176.0,224.925 C175.10000000000036,225.706 174.10000000000036,226.096 173.0,226.096 C172.39999999999964,226.096 171.79999999999927,225.935 171.39999999999964,225.612 C171.0,225.258 170.79999999999927,224.815 170.79999999999927,224.284 C170.79999999999927,223.388 171.29999999999927,222.55 172.20000000000073,221.768 C173.10000000000036,220.987 174.10000000000036,220.596 175.20000000000073,220.596" />
<path d="M175.20000000000073,170.596 C175.79999999999927,170.596 176.29999999999927,170.758 176.79999999999927,171.081 C177.20000000000073,171.435 177.39999999999964,171.878 177.39999999999964,172.409 C177.39999999999964,173.305 176.89999999999964,174.143 176.0,174.925 C175.10000000000036,175.706 174.10000000000036,176.096 173.0,176.096 C172.39999999999964,176.096 171.79999999999927,175.935 171.39999999999964,175.612 C171.0,175.258 170.79999999999927,174.815 170.79999999999927,174.284 C170.79999999999927,173.388 171.29999999999927,172.55 172.20000000000073,171.768 C173.10000000000036,170.987 174.10000000000036,170.596 175.20000000000073,170.596" />
<path d="M175.20000000000073,175.596 C175.79999999999927,175.596 176.29999999999927,175.758 176.79999999999927,176.081 C177.20000000000073,176.435 177.39999999999964,176.878 177.39999999999964,177.409 C177.39999999999964,178.305 176.89999999999964,179.143 176.0,179.925 C175.10000000000036,180.706 174.10000000000036,181.096 173.0,181.096 C172.39999999999964,181.096 171.79999999999927,180.935 171.39999999999964,180.612 C171.0,180.258 170.79999999999927,179.815 170.79999999999927,179.284 C170.79999999999927,178.388 171.29999999999927,177.55 172.20000000000073,176.768 C173.10000000000036,175.987 174.10000000000036,175.596 175.20000000000073,175.596" />
<path d="M175.20000000000073,183.096 C175.79999999999927,183.096 176.29999999999927,183.258 176.79999999999927,183.581 C177.20000000000073,183.935 177.39999999999964,184.378 177.39999999999964,184.909 C177.39999999999964,185.805 176.89999999999964,186.643 176.0,187.425 C175.10000000000036,188.206 174.10000000000036,188.596 173.0,188.596 C172.39999999999964,188.596 171.79999999999927,188.435 171.39999999999964,188.112 C171.0,187.758 170.79999999999927,187.315 170.79999999999927,186.784 C170.79999999999927,185.888 171.29999999999927,185.05 172.20000000000073,184.268 C173.10000000000036,183.487 174.10000000000036,183.096 175.20000000000073,183.096" />
<path d="M175.20000000000073,193.096 C175.79999999999927,193.096 176.29999999999927,193.258 176.79999999999927,193.581 C177.20000000000073,193.935 177.39999999999964,194.378 177.39999999999964,194.909 C177.39999999999964,195.805 176.89999999999964,196.643 176.0,197.425 C175.10000000000036,198.206 174.10000000000036,198.596 173.0,198.596 C172.39999999999964,198.596 171.79999999999927,198.435 171.39999999999964,198.112 C171.0,197.758 170.79999999999927,197.315 170.79999999999927,196.784 C170.79999999999927,195.888 171.29999999999927,195.05 172.20000000000073,194.268 C173.10000000000036,193.487 174.10000000000036,193.096 175.20000000000073,193.096" />
<path d="M158.5,220.596 C159.10000000000036,220.596 159.70000000000073,220.758 160.10000000000036,221.081 C160.5,221.435 160.70000000000073,221.878 160.70000000000073,222.409 C160.70000000000073,223.305 160.20000000000073,224.143 159.29999999999927,224.925 C158.39999999999964,225.706 157.39999999999964,226.096 156.29999999999927,226.096 C155.70000000000073,226.096 155.10000000000036,225.935 154.70000000000073,225.612 C154.29999999999927,225.258 154.10000000000036,224.815 154.10000000000036,224.284 C154.10000000000036,223.388 154.60000000000036,222.55 155.5,221.768 C156.39999999999964,220.987 157.39999999999964,220.596 158.5,220.596" />
<path d="M141.79999999999927,220.596 C142.39999999999964,220.596 143.0,220.758 143.39999999999964,221.081 C143.79999999999927,221.435 144.0,221.878 144.0,222.409 C144.0,223.305 143.5,224.143 142.60000000000036,224.925 C141.70000000000073,225.706 140.70000000000073,226.096 139.60000000000036,226.096 C139.0,226.096 138.39999999999964,225.935 138.0,225.612 C137.60000000000036,225.258 137.39999999999964,224.815 137.39999999999964,224.284 C137.39999999999964,223.388 137.89999999999964,222.55 138.79999999999927,221.768 C139.70000000000073,220.987 140.70000000000073,220.596 141.79999999999927,220.596" />
<path d="M125.10000000000036,220.596 C125.70000000000073,220.596 126.29999999999927,220.758 126.70000000000073,221.081 C127.10000000000036,221.435 127.29999999999927,221.878 127.29999999999927,222.409 C127.29999999999927,223.305 126.79999999999927,224.143 125.89999999999964,224.925 C125.0,225.706 124.0,226.096 122.89999999999964,226.096 C122.29999999999927,226.096 121.79999999999927,225.935 121.29999999999927,225.612 C120.89999999999964,225.258 120.70000000000073,224.815 120.70000000000073,224.284 C120.70000000000073,223.388 121.20000000000073,222.55 122.10000000000036,221.768 C123.0,220.987 124.0,220.596 125.10000000000036,220.596" />
<path d="M108.39999999999964,223.096 C109.0,223.096 109.60000000000036,223.258 110.0,223.581 C110.39999999999964,223.935 110.60000000000036,224.378 110.60000000000036,224.909 C110.60000000000036,225.805 110.10000000000036,226.643 109.20000000000073,227.425 C108.29999999999927,228.206 107.29999999999927,228.596 106.20000000000073,228.596 C105.60000000000036,228.596 105.10000000000036,228.435 104.60000000000036,228.112 C104.20000000000073,227.758 104.0,227.315 104.0,226.784 C104.0,225.888 104.5,225.05 105.39999999999964,224.268 C106.29999999999927,223.487 107.29999999999927,223.096 108.39999999999964,223.096" />
<path d="M81.70000000000073,238.096 C82.29999999999927,238.096 82.89999999999964,238.258 83.29999999999927,238.581 C83.70000000000073,238.935 83.89999999999964,239.378 83.89999999999964,239.909 C83.89999999999964,240.805 83.39999999999964,241.643 82.5,242.425 C81.60000000000036,243.206 80.60000000000036,243.596 79.5,243.596 C78.89999999999964,243.596 78.39999999999964,243.435 77.89999999999964,243.112 C77.5,242.758 77.29999999999927,242.315 77.29999999999927,241.784 C77.29999999999927,240.888 77.79999999999927,240.05 78.70000000000073,239.268 C79.60000000000036,238.487 80.60000000000036,238.096 81.70000000000073,238.096" />
<path d="M28.299999999999272,238.096 C28.899999999999636,238.096 29.399999999999636,238.258 29.899999999999636,238.581 C30.299999999999272,238.935 30.5,239.378 30.5,239.909 C30.5,240.805 30.0,241.643 29.100000000000364,242.425 C28.200000000000728,243.206 27.200000000000728,243.596 26.100000000000364,243.596 C25.5,243.596 24.899999999999636,243.435 24.5,243.112 C24.100000000000364,242.758 23.899999999999636,242.315 23.899999999999636,241.784 C23.899999999999636,240.888 24.399999999999636,240.05 25.299999999999272,239.268 C26.200000000000728,238.487 27.200000000000728,238.096 28.299999999999272,238.096" />
<path d="M30.0,174.534 C30.0,174.315 29.899999999999636,174.128 29.799999999999272,173.971 C29.600000000000364,173.805 29.399999999999636,173.721 29.200000000000728,173.721 C28.799999999999272,173.721 28.0,174.112 26.799999999999272,174.893 C25.600000000000364,175.685 24.799999999999272,176.253 24.600000000000364,176.596 C24.399999999999636,176.774 24.399999999999636,176.961 24.399999999999636,177.159 C24.399999999999636,177.378 24.399999999999636,177.565 24.600000000000364,177.721 C24.799999999999272,177.888 25.0,177.971 25.200000000000728,177.971 C25.600000000000364,177.971 26.399999999999636,177.581 27.600000000000364,176.8 C28.799999999999272,176.018 29.5,175.451 29.799999999999272,175.096 C30.0,174.93 30.0,174.742 30.0,174.534 M29.0,173.096 C30.100000000000364,173.096 30.700000000000728,173.576 30.700000000000728,174.534 C30.700000000000728,175.003 30.5,175.55 30.299999999999272,176.175 C30.0,176.789 29.600000000000364,177.258 29.200000000000728,177.581 C28.200000000000728,178.258 26.899999999999636,178.596 25.399999999999636,178.596 C24.299999999999272,178.596 23.700000000000728,178.117 23.700000000000728,177.159 C23.700000000000728,176.732 23.799999999999272,176.19 24.100000000000364,175.534 C24.399999999999636,174.909 24.700000000000728,174.435 25.200000000000728,174.112 C26.200000000000728,173.435 27.5,173.096 29.0,173.096" />
<path d="M30.0,182.034 C30.0,181.815 29.899999999999636,181.628 29.799999999999272,181.471 C29.600000000000364,181.305 29.399999999999636,181.221 29.200000000000728,181.221 C28.799999999999272,181.221 28.0,181.612 26.799999999999272,182.393 C25.600000000000364,183.185 24.799999999999272,183.753 24.600000000000364,184.096 C24.399999999999636,184.274 24.399999999999636,184.461 24.399999999999636,184.659 C24.399999999999636,184.878 24.399999999999636,185.065 24.600000000000364,185.221 C24.799999999999272,185.388 25.0,185.471 25.200000000000728,185.471 C25.600000000000364,185.471 26.399999999999636,185.081 27.600000000000364,184.3 C28.799999999999272,183.518 29.5,182.951 29.799999999999272,182.596 C30.0,182.43 30.0,182.242 30.0,182.034 M29.0,180.596 C30.100000000000364,180.596 30.700000000000728,181.076 30.700000000000728,182.034 C30.700000000000728,182.503 30.5,183.05 30.299999999999272,183.675 C30.0,184.289 29.600000000000364,184.758 29.200000000000728,185.081 C28.200000000000728,185.758 26.899999999999636,186.096 25.399999999999636,186.096 C24.299999999999272,186.096 23.700000000000728,185.617 23.700000000000728,184.659 C23.700000000000728,184.232 23.799999999999272,183.69 24.100000000000364,183.034 C24.399999999999636,182.409 24.700000000000728,181.935 25.200000000000728,181.612 C26.200000000000728,180.935 27.5,180.596 29.0,180.596" />
<path d="M30.0,187.034 C30.0,186.815 29.899999999999636,186.628 29.799999999999272,186.471 C29.600000000000364,186.305 29.399999999999636,186.221 29.200000000000728,186.221 C28.799999999999272,186.221 28.0,186.612 26.799999999999272,187.393 C25.600000000000364,188.185 24.799999999999272,188.753 24.600000000000364,189.096 C24.399999999999636,189.274 24.399999999999636,189.461 24.399999999999636,189.659 C24.399999999999636,189.878 24.399999999999636,190.065 24.600000000000364,190.221 C24.799999999999272,190.388 25.0,190.471 25.200000000000728,190.471 C25.600000000000364,190.471 26.399999999999636,190.081 27.600000000000364,189.3 C28.799999999999272,188.518 29.5,187.951 29.799999999999272,187.596 C30.0,187.43 30.0,187.242 30.0,187.034 M29.0,185.596 C30.100000000000364,185.596 30.700000000000728,186.076 30.700000000000728,187.034 C30.700000000000728,187.503 30.5,188.05 30.299999999999272,188.675 C30.0,189.289 29.600000000000364,189.758 29.200000000000728,190.081 C28.200000000000728,190.758 26.899999999999636,191.096 25.399999999999636,191.096 C24.299999999999272,191.096 23.700000000000728,190.617 23.700000000000728,189.659 C23.700000000000728,189.232 23.799999999999272,188.69 24.100000000000364,188.034 C24.399999999999636,187.409 24.700000000000728,186.935 25.200000000000728,186.612 C26.200000000000728,185.935 27.5,185.596 29.0,185.596" />
<path d="M30.0,192.034 C30.0,191.815 29.899999999999636,191.628 29.799999999999272,191.471 C29.600000000000364,191.305 29.399999999999636,191.221 29.200000000000728,191.221 C28.799999999999272,191.221 28.0,191.612 26.799999999999272,192.393 C25.600000000000364,193.185 24.799999999999272,193.753 24.600000000000364,194.096 C24.399999999999636,194.274 24.399999999999636,194.461 24.399999999999636,194.659 C24.399999999999636,194.878 24.399999999999636,195.065 24.600000000000364,195.221 C24.799999999999272,195.388 25.0,195.471 25.200000000000728,195.471 C25.600000000000364,195.471 26.399999999999636,195.081 27.600000000000364,194.3 C28.799999999999272,193.518 29.5,192.951 29.799999999999272,192.596 C30.0,192.43 30.0,192.242 30.0,192.034 M29.0,190.596 C30.100000000000364,190.596 30.700000000000728,191.076 30.700000000000728,192.034 C30.700000000000728,192.503 30.5,193.05 30.299999999999272,193.675 C30.0,194.289 29.600000000000364,194.758 29.200000000000728,195.081 C28.200000000000728,195.758 26.899999999999636,196.096 25.399999999999636,196.096 C24.299999999999272,196.096 23.700000000000728,195.617 23.700000000000728,194.659 C23.700000000000728,194.232 23.799999999999272,193.69 24.100000000000364,193.034 C24.399999999999636,192.409 24.700000000000728,191.935 25.200000000000728,191.612 C26.200000000000728,190.935 27.5,190.596 29.0,190.596" />
<path d="M138.79999999999927,174.237 C139.20000000000073,174.237 139.5,174.341 139.70000000000073,174.55 C139.89999999999964,174.789 140.0,175.013 140.0,175.221 C140.0,175.419 140.10000000000036,175.638 140.20000000000073,175.878 C140.29999999999927,176.086 140.5,176.19 140.60000000000036,176.19 C140.79999999999927,176.19 141.0,176.029 141.29999999999927,175.706 C141.5,175.425 141.70000000000073,175.169 141.89999999999964,174.94 C141.89999999999964,174.815 142.0,174.753 142.10000000000036,174.753 L142.10000000000036,174.753 C142.29999999999927,174.763 142.39999999999964,174.826 142.39999999999964,174.94 L140.0,183.346 C139.79999999999927,183.482 139.60000000000036,183.55 139.39999999999964,183.55 C139.20000000000073,183.55 139.0,183.482 138.89999999999964,183.346 L141.20000000000073,176.815 C140.39999999999964,177.117 139.70000000000073,177.268 139.10000000000036,177.268 C138.60000000000036,177.268 138.20000000000073,177.117 137.89999999999964,176.815 C137.5,176.534 137.39999999999964,176.159 137.39999999999964,175.69 C137.39999999999964,175.284 137.5,174.945 137.79999999999927,174.675 C138.10000000000036,174.383 138.39999999999964,174.237 138.79999999999927,174.237" />
<path d="M137.0,123.971 L129.89999999999964,123.971 C129.70000000000073,123.971 129.70000000000073,123.909 129.70000000000073,123.784 L129.70000000000073,121.05 C129.70000000000073,120.914 129.70000000000073,120.846 129.89999999999964,120.846 L137.0,120.846 C137.10000000000036,120.846 137.20000000000073,120.914 137.20000000000073,121.05 L137.20000000000073,123.784 C137.20000000000073,123.909 137.10000000000036,123.971 137.0,123.971" />
<path d="M137.0,71.4715 L129.89999999999964,71.4715 C129.70000000000073,71.4715 129.70000000000073,71.409 129.70000000000073,71.284 L129.70000000000073,68.5496 C129.70000000000073,68.4142 129.70000000000073,68.3465 129.89999999999964,68.3465 L137.0,68.3465 C137.10000000000036,68.3465 137.20000000000073,68.4142 137.20000000000073,68.5496 L137.20000000000073,71.284 C137.20000000000073,71.409 137.10000000000036,71.4715 137.0,71.4715" />
<path d="M204.20000000000073,239.596 L238.20000000000073,239.596 L238.20000000000073,242.096 L204.20000000000073,242.096 L204.20000000000073,239.596" />
<path d="M204.20000000000073,235.846 L221.5,235.846 L221.5,238.346 L204.20000000000073,238.346 L204.20000000000073,235.846" />
<path d="M210.10000000000036,157.072 L244.20000000000073,158.346 L244.20000000000073,160.846 L210.10000000000036,159.572 L210.10000000000036,157.072" />
<path d="M176.70000000000073,157.096 L194.10000000000036,157.096 L194.10000000000036,159.596 L176.70000000000073,159.596 L176.70000000000073,157.096" />
<path d="M176.70000000000073,160.846 L194.10000000000036,160.846 L194.10000000000036,163.346 L176.70000000000073,163.346 L176.70000000000073,160.846" />
<path d="M137.39999999999964,238.346 L188.10000000000036,238.346 L188.10000000000036,240.846 L137.39999999999964,240.846 L137.39999999999964,238.346" />
<path d="M137.39999999999964,234.596 L188.10000000000036,234.596 L188.10000000000036,237.096 L137.39999999999964,237.096 L137.39999999999964,234.596" />
<path d="M83.20000000000073,214.727 L127.29999999999927,205.846 L127.29999999999927,208.346 L83.20000000000073,217.227 L83.20000000000073,214.727" />
<path d="M110.0,213.093 L127.29999999999927,209.596 L127.29999999999927,212.096 L110.0,215.593 L110.0,213.093" />
<polyline points="0.0,63.3465 255.0,63.3465" fill="none" stroke="#000000" stroke-width="0.40" />
<polyline points="0.0,68.3465 255.0,68.3465" fill="none" stroke="#000000" stroke-width="0.40" />
<polyline points="0.0,73.3465 255.0,73.3465" fill="none" stroke="#000000" stroke-width="0.40" />
<polyline points="0.0,78.3465 255.0,78.3465" fill="none" stroke="#000000" stroke-width="0.40" />
<polyline points="0.0,83.3465 255.0,83.3465" fill="none" stroke="#000000" stroke-width="0.40" />
<polyline points="0.0,115.846 255.0,115.846" fill="none" stroke="#000000" stroke-width="0.40" />
<polyline points="0.0,120.846 255.0,120.846" fill="none" stroke="#000000" stroke-width="0.40" />
<polyline points="0.0,125.846 255.0,125.846" fill="none" stroke="#000000" stroke-width="0.40" />
<polyline points="0.0,130.846 255.0,130.846" fill="none" stroke="#000000" stroke-width="0.40" />
<polyline points="0.0,135.846 255.0,135.846" fill="none" stroke="#000000" stroke-width="0.40" />
<polyline points="0.0,168.346 255.0,168.346" fill="none" stroke="#000000" stroke-width="0.40" />
<polyline points="0.0,173.346 255.0,173.346" fill="none" stroke="#000000" stroke-width="0.40" />
<polyline points="0.0,178.346 255.0,178.346" fill="none" stroke="#000000" stroke-width="0.40" />
<polyline points="0.0,183.346 255.0,183.346" fill="none" stroke="#000000" stroke-width="0.40" />
<polyline points="0.0,188.346 255.0,188.346" fill="none" stroke="#000000" stroke-width="0.40" />
<polyline points="0.0,220.846 255.0,220.846" fill="none" stroke="#000000" stroke-width="0.40" />
<polyline points="0.0,225.846 255.0,225.846" fill="none" stroke="#000000" stroke-width="0.40" />
<polyline points="0.0,230.846 255.0,230.846" fill="none" stroke="#000000" stroke-width="0.40" />
<polyline points="0.0,235.846 255.0,235.846" fill="none" stroke="#000000" stroke-width="0.40" />
<polyline points="0.0,240.846 255.0,240.846" fill="none" stroke="#000000" stroke-width="0.40" />
<polyline points="237.89999999999964,224.286 237.89999999999964,240.846" fill="" stroke="#000000" stroke-width="0.65" />
<polyline points="243.79999999999927,192.407 243.79999999999927,159.596" fill="" stroke="#000000" stroke-width="0.65" />
<polyline points="221.20000000000073,226.786 221.20000000000073,240.846" fill="" stroke="#000000" stroke-width="0.65" />
<polyline points="204.5,226.786 204.5,240.846" fill="" stroke="#000000" stroke-width="0.65" />
<polyline points="210.39999999999964,194.907 210.39999999999964,158.346" fill="" stroke="#000000" stroke-width="0.65" />
<polyline points="187.79999999999927,224.286 187.79999999999927,239.596" fill="" stroke="#000000" stroke-width="0.65" />
<polyline points="193.79999999999927,194.907 193.79999999999927,158.346" fill="" stroke="#000000" stroke-width="0.65" />
<polyline points="171.10000000000036,224.286 171.10000000000036,239.596" fill="" stroke="#000000" stroke-width="0.65" />
<polyline points="177.10000000000036,194.907 177.10000000000036,158.346" fill="" stroke="#000000" stroke-width="0.65" />
<polyline points="154.39999999999964,224.286 154.39999999999964,239.596" fill="" stroke="#000000" stroke-width="0.65" />
<polyline points="137.70000000000073,224.286 137.70000000000073,239.596" fill="" stroke="#000000" stroke-width="0.65" />
<polyline points="127.0,222.407 127.0,207.096" fill="" stroke="#000000" stroke-width="0.65" />
<polyline points="110.29999999999927,224.907 110.29999999999927,210.462" fill="" stroke="#000000" stroke-width="0.65" />
<polyline points="83.60000000000036,239.907 83.60000000000036,215.846" fill="" stroke="#000000" stroke-width="0.65" />
<polyline points="30.200000000000728,239.907 30.200000000000728,223.346" fill="" stroke="#000000" stroke-width="0.65" />
<polyline points="30.299999999999272,192.578 30.299999999999272,160.846" fill="" stroke="#000000" stroke-width="0.65" />
<polyline points="236.10000000000036,193.346 245.70000000000073,193.346" fill="" stroke="#000000" stroke-width="0.80" />
<polyline points="202.70000000000073,193.346 212.29999999999927,193.346" fill="" stroke="#000000" stroke-width="0.80" />
<polyline points="186.0,193.346 195.60000000000036,193.346" fill="" stroke="#000000" stroke-width="0.80" />
<polyline points="169.29999999999927,193.346 178.89999999999964,193.346" fill="" stroke="#000000" stroke-width="0.80" />
<polyline points="22.200000000000728,193.346 32.20000000000073,193.346" fill="" stroke="#000000" stroke-width="0.80" />
</svg>
