<?xml version="1.0" encoding="UTF-8" standalone="yes"?>
<svg width="256.0px" height="256.0px" xmlns="http://www.w3.org/2000/svg" xmlns:xlink="http://www.w3.org/1999/xlink" version="1.2" baseProfile="tiny">
<path d="M29.099999999998545,30.79200000000003 C29.0,30.69799999999998 28.799999999999272,30.591000000000008 28.700000000000728,30.47199999999998 C28.5,30.351999999999975 28.400000000001455,30.184999999999945 28.200000000000728,29.97199999999998 C28.0,29.758000000000038 27.799999999999272,29.53200000000004 27.700000000000728,29.29200000000003 C27.5,29.05200000000002 27.400000000001455,28.760999999999967 27.299999999999272,28.41700000000003 C27.200000000000728,28.07299999999998 27.200000000000728,27.71900000000005 27.200000000000728,27.354000000000042 C27.200000000000728,26.96900000000005 27.200000000000728,26.604000000000042 27.299999999999272,26.260999999999967 C27.400000000001455,25.91700000000003 27.5,25.633000000000038 27.700000000000728,25.408999999999992 C27.799999999999272,25.184999999999945 28.0,24.966000000000008 28.200000000000728,24.753000000000043 C28.400000000001455,24.538999999999987 28.5,24.383000000000038 28.700000000000728,24.283999999999992 C28.799999999999272,24.184999999999945 29.0,24.077999999999975 29.099999999998545,23.964000000000055 L29.200000000000728,24.089000000000055 C29.0,24.287000000000035 28.799999999999272,24.461000000000013 28.700000000000728,24.611999999999966 C28.5,24.763000000000034 28.400000000001455,24.964000000000055 28.200000000000728,25.214000000000055 C28.099999999998545,25.464000000000055 28.0,25.760999999999967 27.900000000001455,26.104000000000042 C27.900000000001455,26.44799999999998 27.900000000001455,26.860000000000014 27.900000000001455,27.339000000000055 C27.900000000001455,27.827999999999975 27.900000000001455,28.253000000000043 27.900000000001455,28.611999999999966 C28.0,28.97199999999998 28.099999999998545,29.275999999999954 28.200000000000728,29.525999999999954 C28.400000000001455,29.775999999999954 28.5,29.98199999999997 28.700000000000728,30.144000000000005 C28.799999999999272,30.30499999999995 29.0,30.474000000000046 29.200000000000728,30.650999999999954 L29.099999999998545,30.79200000000003 M29.700000000000728,27.66700000000003 C29.700000000000728,27.07299999999998 29.799999999999272,26.59699999999998 30.200000000000728,26.236999999999966 C30.5,25.878000000000043 30.900000000001455,25.69799999999998 31.400000000001455,25.69799999999998 C31.700000000000728,25.69799999999998 32.0,25.778999999999996 32.29999999999927,25.940000000000055 C32.5,26.101999999999975 32.599999999998545,26.297000000000025 32.599999999998545,26.525999999999954 C32.599999999998545,26.610000000000014 32.599999999998545,26.684999999999945 32.5,26.753000000000043 C32.400000000001455,26.821000000000026 32.29999999999927,26.854000000000042 32.20000000000073,26.854000000000042 C32.099999999998545,26.854000000000042 31.900000000001455,26.735000000000014 31.900000000001455,26.495000000000005 L31.799999999999272,26.32299999999998 C31.799999999999272,26.16700000000003 31.700000000000728,26.062999999999988 31.700000000000728,26.010999999999967 C31.599999999998545,25.958999999999946 31.5,25.932999999999993 31.400000000001455,25.932999999999993 C31.0,25.932999999999993 30.799999999999272,26.059999999999945 30.599999999998545,26.315000000000055 C30.400000000001455,26.571000000000026 30.299999999999272,26.90700000000004 30.299999999999272,27.32299999999998 C30.299999999999272,27.770999999999958 30.400000000001455,28.140999999999963 30.599999999998545,28.432999999999993 C30.900000000001455,28.724000000000046 31.099999999998545,28.870000000000005 31.5,28.870000000000005 C31.700000000000728,28.870000000000005 31.900000000001455,28.812999999999988 32.099999999998545,28.69799999999998 C32.20000000000073,28.583999999999946 32.400000000001455,28.390999999999963 32.599999999998545,28.120000000000005 L32.70000000000073,28.182999999999993 C32.70000000000073,28.297000000000025 32.599999999998545,28.388000000000034 32.599999999998545,28.456000000000017 C32.5,28.524 32.5,28.628000000000043 32.400000000001455,28.769000000000005 C32.29999999999927,28.908999999999992 32.20000000000073,29.020999999999958 32.099999999998545,29.104000000000042 C32.0,29.187999999999988 31.799999999999272,29.265999999999963 31.700000000000728,29.339000000000055 C31.5,29.412000000000035 31.299999999999272,29.44799999999998 31.200000000000728,29.44799999999998 C30.700000000000728,29.44799999999998 30.400000000001455,29.28200000000004 30.099999999998545,28.94799999999998 C29.799999999999272,28.61500000000001 29.700000000000728,28.187999999999988 29.700000000000728,27.66700000000003 M33.29999999999927,23.964000000000055 C33.5,24.047000000000025 33.599999999998545,24.149 33.79999999999927,24.269000000000005 C33.900000000001455,24.388000000000034 34.099999999998545,24.55499999999995 34.29999999999927,24.769000000000005 C34.5,24.98199999999997 34.599999999998545,25.211000000000013 34.79999999999927,25.456000000000017 C34.900000000001455,25.701000000000022 35.0,25.991999999999962 35.099999999998545,26.331000000000017 C35.20000000000073,26.66999999999996 35.29999999999927,27.025999999999954 35.29999999999927,27.400999999999954 C35.29999999999927,27.775999999999954 35.20000000000073,28.135999999999967 35.099999999998545,28.479000000000042 C35.0,28.82299999999998 34.900000000001455,29.110000000000014 34.79999999999927,29.339000000000055 C34.70000000000073,29.567999999999984 34.5,29.787000000000035 34.29999999999927,29.995000000000005 C34.099999999998545,30.202999999999975 33.900000000001455,30.360000000000014 33.79999999999927,30.464000000000055 C33.599999999998545,30.567999999999984 33.5,30.67700000000002 33.29999999999927,30.79200000000003 L33.20000000000073,30.650999999999954 C33.5,30.464000000000055 33.70000000000073,30.29200000000003 33.79999999999927,30.135999999999967 C34.0,29.979000000000042 34.099999999998545,29.778999999999996 34.20000000000073,29.533999999999992 C34.400000000001455,29.288999999999987 34.400000000001455,28.995000000000005 34.5,28.650999999999954 C34.599999999998545,28.307999999999993 34.599999999998545,27.895999999999958 34.599999999998545,27.41700000000003 C34.599999999998545,26.92700000000002 34.599999999998545,26.503000000000043 34.5,26.144000000000005 C34.400000000001455,25.783999999999992 34.400000000001455,25.476999999999975 34.20000000000073,25.22199999999998 C34.099999999998545,24.966000000000008 34.0,24.760999999999967 33.79999999999927,24.604000000000042 C33.70000000000073,24.44799999999998 33.5,24.275999999999954 33.20000000000073,24.089000000000055 L33.29999999999927,23.964000000000055 M39.099999999998545,24.635999999999967 C39.0,24.635999999999967 38.79999999999927,24.692999999999984 38.5,24.807999999999993 L38.5,24.69799999999998 L39.900000000001455,23.964000000000055 L40.0,23.979000000000042 L40.0,28.775999999999954 C40.0,28.974000000000046 40.099999999998545,29.101999999999975 40.20000000000073,29.158999999999992 C40.29999999999927,29.216000000000008 40.5,29.245000000000005 40.79999999999927,29.245000000000005 L40.79999999999927,29.370000000000005 L38.599999999998545,29.370000000000005 L38.599999999998545,29.245000000000005 C38.900000000001455,29.235000000000014 39.099999999998545,29.190000000000055 39.20000000000073,29.111999999999966 C39.29999999999927,29.033999999999992 39.29999999999927,28.870000000000005 39.29999999999927,28.620000000000005 L39.29999999999927,25.010999999999967 C39.29999999999927,24.760999999999967 39.29999999999927,24.635999999999967 39.099999999998545,24.635999999999967 M42.099999999998545,29.54200000000003 L42.099999999998545,29.385999999999967 C42.70000000000073,29.28200000000004 43.20000000000073,29.024 43.599999999998545,28.611999999999966 C44.0,28.201000000000022 44.29999999999927,27.66700000000003 44.5,27.010999999999967 C44.099999999998545,27.32299999999998 43.70000000000073,27.479000000000042 43.29999999999927,27.479000000000042 C42.900000000001455,27.479000000000042 42.5,27.327999999999975 42.29999999999927,27.025999999999954 C42.0,26.724000000000046 41.900000000001455,26.333999999999946 41.900000000001455,25.854000000000042 C41.900000000001455,25.312999999999988 42.0,24.860000000000014 42.29999999999927,24.495000000000005 C42.70000000000073,24.129999999999995 43.0,23.94799999999998 43.5,23.94799999999998 C44.099999999998545,23.94799999999998 44.5,24.158999999999992 44.79999999999927,24.581000000000017 C45.20000000000073,25.003000000000043 45.29999999999927,25.547000000000025 45.29999999999927,26.214000000000055 C45.29999999999927,26.432999999999993 45.29999999999927,26.653999999999996 45.29999999999927,26.878000000000043 C45.20000000000073,27.101999999999975 45.099999999998545,27.366999999999962 45.0,27.674999999999955 C44.900000000001455,27.98199999999997 44.70000000000073,28.254999999999995 44.5,28.495000000000005 C44.20000000000073,28.735000000000014 43.900000000001455,28.952999999999975 43.5,29.150999999999954 C43.099999999998545,29.349000000000046 42.599999999998545,29.479000000000042 42.099999999998545,29.54200000000003 M43.599999999998545,27.120000000000005 C43.70000000000073,27.120000000000005 43.79999999999927,27.10699999999997 43.900000000001455,27.081000000000017 C44.099999999998545,27.05499999999995 44.20000000000073,26.991999999999962 44.29999999999927,26.894000000000005 C44.400000000001455,26.79499999999996 44.5,26.672000000000025 44.5,26.525999999999954 L44.5,26.214000000000055 C44.5,24.860000000000014 44.20000000000073,24.182999999999993 43.5,24.182999999999993 C43.29999999999927,24.182999999999993 43.20000000000073,24.226999999999975 43.0,24.315000000000055 C42.900000000001455,24.403999999999996 42.79999999999927,24.520999999999958 42.79999999999927,24.66700000000003 C42.70000000000073,24.812999999999988 42.70000000000073,24.958999999999946 42.599999999998545,25.104000000000042 C42.599999999998545,25.25 42.599999999998545,25.40700000000004 42.599999999998545,25.57299999999998 C42.599999999998545,26.05200000000002 42.70000000000073,26.42999999999995 42.900000000001455,26.706000000000017 C43.0,26.98199999999997 43.29999999999927,27.120000000000005 43.599999999998545,27.120000000000005 M47.70000000000073,29.479000000000042 C47.099999999998545,29.479000000000042 46.70000000000073,29.265999999999963 46.400000000001455,28.839000000000055 C46.0,28.412000000000035 45.900000000001455,27.84400000000005 45.900000000001455,27.135999999999967 C45.900000000001455,26.91700000000003 45.900000000001455,26.692999999999984 45.900000000001455,26.464000000000055 C46.0,26.235000000000014 46.099999999998545,25.97199999999998 46.20000000000073,25.674999999999955 C46.400000000001455,25.378000000000043 46.599999999998545,25.111999999999966 46.79999999999927,24.878000000000043 C47.0,24.644000000000005 47.29999999999927,24.434999999999945 47.79999999999927,24.253000000000043 C48.20000000000073,24.071000000000026 48.599999999998545,23.952999999999975 49.20000000000073,23.900999999999954 L49.20000000000073,24.025999999999954 C48.599999999998545,24.129999999999995 48.0,24.385999999999967 47.599999999998545,24.79200000000003 C47.20000000000073,25.19799999999998 46.900000000001455,25.702999999999975 46.79999999999927,26.307999999999993 C47.099999999998545,26.162000000000035 47.20000000000073,26.067999999999984 47.400000000001455,26.025999999999954 C47.5,25.985000000000014 47.70000000000073,25.964000000000055 47.79999999999927,25.964000000000055 C48.29999999999927,25.964000000000055 48.70000000000073,26.111999999999966 49.0,26.408999999999992 C49.20000000000073,26.706000000000017 49.400000000001455,27.104000000000042 49.400000000001455,27.604000000000042 C49.400000000001455,28.15700000000004 49.20000000000073,28.60699999999997 48.900000000001455,28.956000000000017 C48.599999999998545,29.30499999999995 48.20000000000073,29.479000000000042 47.70000000000073,29.479000000000042 M47.5,26.32299999999998 C47.20000000000073,26.32299999999998 46.900000000001455,26.400999999999954 46.79999999999927,26.557999999999993 C46.70000000000073,26.714000000000055 46.599999999998545,26.94799999999998 46.599999999998545,27.260999999999967 C46.599999999998545,27.875 46.70000000000073,28.360000000000014 46.900000000001455,28.714000000000055 C47.099999999998545,29.067999999999984 47.400000000001455,29.245000000000005 47.70000000000073,29.245000000000005 C48.0,29.245000000000005 48.29999999999927,29.128000000000043 48.400000000001455,28.894000000000005 C48.5,28.658999999999992 48.599999999998545,28.32299999999998 48.599999999998545,27.885999999999967 C48.599999999998545,27.385999999999967 48.5,27.0 48.29999999999927,26.729000000000042 C48.20000000000073,26.458999999999946 47.900000000001455,26.32299999999998 47.5,26.32299999999998 M51.900000000001455,26.400999999999954 C52.400000000001455,26.754999999999995 52.70000000000073,27.05200000000002 52.900000000001455,27.29200000000003 C53.099999999998545,27.53200000000004 53.20000000000073,27.807999999999993 53.20000000000073,28.120000000000005 C53.20000000000073,28.537000000000035 53.0,28.866999999999962 52.70000000000073,29.111999999999966 C52.5,29.35699999999997 52.099999999998545,29.479000000000042 51.599999999998545,29.479000000000042 C51.099999999998545,29.479000000000042 50.79999999999927,29.35699999999997 50.5,29.111999999999966 C50.20000000000073,28.866999999999962 50.0,28.547000000000025 50.0,28.150999999999954 C50.0,27.879999999999995 50.099999999998545,27.653999999999996 50.20000000000073,27.47199999999998 C50.400000000001455,27.288999999999987 50.70000000000073,27.037000000000035 51.099999999998545,26.714000000000055 C50.70000000000073,26.339000000000055 50.400000000001455,26.062999999999988 50.29999999999927,25.885999999999967 C50.20000000000073,25.708999999999946 50.099999999998545,25.49000000000001 50.099999999998545,25.229000000000042 C50.099999999998545,24.86500000000001 50.20000000000073,24.559999999999945 50.5,24.315000000000055 C50.79999999999927,24.071000000000026 51.20000000000073,23.94799999999998 51.599999999998545,23.94799999999998 C52.0,23.94799999999998 52.29999999999927,24.05499999999995 52.599999999998545,24.269000000000005 C52.900000000001455,24.48199999999997 53.0,24.760999999999967 53.0,25.104000000000042 C53.0,25.375 52.900000000001455,25.604000000000042 52.70000000000073,25.79200000000003 C52.599999999998545,25.979000000000042 52.29999999999927,26.182999999999993 51.900000000001455,26.400999999999954 M51.29999999999927,26.870000000000005 C51.099999999998545,27.057999999999993 50.900000000001455,27.241999999999962 50.79999999999927,27.424999999999955 C50.70000000000073,27.60699999999997 50.70000000000073,27.827999999999975 50.70000000000073,28.089000000000055 C50.70000000000073,28.432999999999993 50.79999999999927,28.711000000000013 50.900000000001455,28.924999999999955 C51.099999999998545,29.138000000000034 51.400000000001455,29.245000000000005 51.70000000000073,29.245000000000005 C51.900000000001455,29.245000000000005 52.099999999998545,29.163999999999987 52.29999999999927,29.003000000000043 C52.5,28.841000000000008 52.5,28.629999999999995 52.5,28.370000000000005 C52.5,28.287000000000035 52.5,28.206000000000017 52.5,28.128000000000043 C52.5,28.049999999999955 52.5,27.985000000000014 52.5,27.932999999999993 C52.400000000001455,27.879999999999995 52.400000000001455,27.817999999999984 52.29999999999927,27.745000000000005 C52.29999999999927,27.672000000000025 52.20000000000073,27.616999999999962 52.20000000000073,27.581000000000017 C52.20000000000073,27.54499999999996 52.099999999998545,27.486999999999966 52.0,27.408999999999992 C51.900000000001455,27.331000000000017 51.900000000001455,27.275999999999954 51.79999999999927,27.245000000000005 C51.79999999999927,27.214000000000055 51.70000000000073,27.153999999999996 51.599999999998545,27.065000000000055 C51.400000000001455,26.976999999999975 51.400000000001455,26.912000000000035 51.29999999999927,26.870000000000005 M51.70000000000073,26.260999999999967 C51.70000000000073,26.25 51.70000000000073,26.22199999999998 51.79999999999927,26.174999999999955 C51.900000000001455,26.128000000000043 51.900000000001455,26.091000000000008 51.900000000001455,26.065000000000055 C52.0,26.038999999999987 52.0,26.0 52.099999999998545,25.94799999999998 C52.099999999998545,25.895999999999958 52.20000000000073,25.84400000000005 52.20000000000073,25.79200000000003 C52.20000000000073,25.74000000000001 52.29999999999927,25.67700000000002 52.29999999999927,25.604000000000042 C52.400000000001455,25.53200000000004 52.400000000001455,25.451000000000022 52.400000000001455,25.361999999999966 C52.400000000001455,25.274 52.400000000001455,25.182999999999993 52.400000000001455,25.089000000000055 C52.400000000001455,24.817999999999984 52.400000000001455,24.599000000000046 52.20000000000073,24.432999999999993 C52.0,24.265999999999963 51.79999999999927,24.182999999999993 51.599999999998545,24.182999999999993 C51.29999999999927,24.182999999999993 51.099999999998545,24.258000000000038 50.900000000001455,24.408999999999992 C50.79999999999927,24.559999999999945 50.70000000000073,24.75 50.70000000000073,24.979000000000042 C50.70000000000073,25.19799999999998 50.79999999999927,25.40700000000004 50.900000000001455,25.604000000000042 C51.099999999998545,25.80200000000002 51.29999999999927,26.020999999999958 51.70000000000073,26.260999999999967 M61.0,26.69799999999998 C61.0,26.937999999999988 61.0,27.172000000000025 61.0,27.400999999999954 C60.900000000001455,27.629999999999995 60.79999999999927,27.866999999999962 60.70000000000073,28.111999999999966 C60.5,28.35699999999997 60.29999999999927,28.567999999999984 60.099999999998545,28.745000000000005 C59.900000000001455,28.922000000000025 59.599999999998545,29.071000000000026 59.20000000000073,29.190000000000055 C58.79999999999927,29.309999999999945 58.400000000001455,29.370000000000005 57.900000000001455,29.370000000000005 L55.70000000000073,29.370000000000005 L55.70000000000073,29.214000000000055 C56.0,29.192999999999984 56.20000000000073,29.140999999999963 56.29999999999927,29.057999999999993 C56.29999999999927,28.974000000000046 56.400000000001455,28.787000000000035 56.400000000001455,28.495000000000005 L56.400000000001455,24.94799999999998 C56.400000000001455,24.65700000000004 56.29999999999927,24.47199999999998 56.29999999999927,24.394000000000005 C56.20000000000073,24.315000000000055 56.0,24.260999999999967 55.70000000000073,24.229000000000042 L55.70000000000073,24.07299999999998 L57.79999999999927,24.07299999999998 C58.29999999999927,24.07299999999998 58.79999999999927,24.128000000000043 59.099999999998545,24.236999999999966 C59.5,24.34699999999998 59.79999999999927,24.486999999999966 60.099999999998545,24.658999999999992 C60.29999999999927,24.831000000000017 60.5,25.037000000000035 60.599999999998545,25.275999999999954 C60.79999999999927,25.515999999999963 60.900000000001455,25.75 61.0,25.979000000000042 C61.0,26.208999999999946 61.0,26.44799999999998 61.0,26.69799999999998 M60.20000000000073,26.760999999999967 C60.20000000000073,26.53200000000004 60.099999999998545,26.309999999999945 60.099999999998545,26.09699999999998 C60.0,25.883000000000038 60.0,25.66999999999996 59.79999999999927,25.456000000000017 C59.70000000000073,25.241999999999962 59.599999999998545,25.059999999999945 59.400000000001455,24.908999999999992 C59.20000000000073,24.758000000000038 59.0,24.633000000000038 58.70000000000073,24.533999999999992 C58.400000000001455,24.434999999999945 58.0,24.385999999999967 57.599999999998545,24.385999999999967 C57.5,24.385999999999967 57.29999999999927,24.40700000000004 57.29999999999927,24.44799999999998 C57.20000000000073,24.49000000000001 57.20000000000073,24.57299999999998 57.20000000000073,24.69799999999998 L57.20000000000073,28.745000000000005 C57.20000000000073,28.870000000000005 57.20000000000073,28.956000000000017 57.29999999999927,29.003000000000043 C57.29999999999927,29.049999999999955 57.5,29.07299999999998 57.599999999998545,29.07299999999998 C59.29999999999927,29.07299999999998 60.20000000000073,28.30200000000002 60.20000000000073,26.760999999999967 M64.0,26.885999999999967 C63.79999999999927,26.458999999999946 63.70000000000073,26.190000000000055 63.70000000000073,26.081000000000017 C63.599999999998545,25.97199999999998 63.5,25.90700000000004 63.29999999999927,25.885999999999967 L63.29999999999927,25.775999999999954 L64.90000000000146,25.775999999999954 L64.90000000000146,25.885999999999967 C64.70000000000073,25.91700000000003 64.59999999999854,25.951000000000022 64.5,25.986999999999966 C64.5,26.024 64.40000000000146,26.089000000000055 64.40000000000146,26.182999999999993 C64.40000000000146,26.245000000000005 64.5,26.400999999999954 64.59999999999854,26.650999999999954 L65.20000000000073,28.44799999999998 L66.0,26.66700000000003 C66.09999999999854,26.44799999999998 66.09999999999854,26.270999999999958 66.09999999999854,26.135999999999967 C66.09999999999854,26.07299999999998 66.09999999999854,26.024 66.0,25.986999999999966 C66.0,25.951000000000022 65.90000000000146,25.91700000000003 65.70000000000073,25.885999999999967 L65.70000000000073,25.775999999999954 L66.70000000000073,25.775999999999954 L66.70000000000073,25.885999999999967 C66.59999999999854,25.91700000000003 66.59999999999854,25.956000000000017 66.59999999999854,26.003000000000043 C66.5,26.049999999999955 66.5,26.15700000000004 66.40000000000146,26.32299999999998 L65.29999999999927,29.089000000000055 C65.20000000000073,29.349000000000046 65.09999999999854,29.479000000000042 65.09999999999854,29.479000000000042 C65.0,29.479000000000042 65.0,29.36500000000001 64.90000000000146,29.135999999999967 L64.20000000000073,27.245000000000005 L63.29999999999927,29.16700000000003 C63.20000000000073,29.375 63.099999999998545,29.479000000000042 63.099999999998545,29.479000000000042 C63.0,29.479000000000042 62.900000000001455,29.36500000000001 62.900000000001455,29.135999999999967 L61.79999999999927,26.400999999999954 C61.70000000000073,26.192999999999984 61.599999999998545,26.057999999999993 61.599999999998545,25.995000000000005 C61.5,25.932999999999993 61.400000000001455,25.895999999999958 61.400000000001455,25.885999999999967 L61.400000000001455,25.775999999999954 L62.79999999999927,25.775999999999954 L62.79999999999927,25.885999999999967 C62.599999999998545,25.90700000000004 62.5,25.934999999999945 62.5,25.97199999999998 C62.400000000001455,26.008000000000038 62.400000000001455,26.067999999999984 62.400000000001455,26.150999999999954 C62.400000000001455,26.235000000000014 62.400000000001455,26.317999999999984 62.5,26.400999999999954 L63.29999999999927,28.479000000000042 L64.0,26.885999999999967 M67.0,28.57299999999998 C67.0,28.479000000000042 67.0,28.394000000000005 67.0,28.315000000000055 C67.0,28.236999999999966 67.09999999999854,28.162000000000035 67.09999999999854,28.089000000000055 C67.20000000000073,28.015999999999963 67.20000000000073,27.951000000000022 67.29999999999927,27.894000000000005 C67.29999999999927,27.836000000000013 67.40000000000146,27.775999999999954 67.5,27.714000000000055 C67.59999999999854,27.650999999999954 67.70000000000073,27.599000000000046 67.70000000000073,27.557999999999993 C67.79999999999927,27.515999999999963 67.90000000000146,27.46900000000005 68.0,27.41700000000003 C68.20000000000073,27.36500000000001 68.20000000000073,27.32299999999998 68.29999999999927,27.29200000000003 C68.40000000000146,27.260999999999967 68.5,27.216000000000008 68.59999999999854,27.158999999999992 C68.79999999999927,27.101999999999975 68.90000000000146,27.057999999999993 69.0,27.025999999999954 L69.0,26.54200000000003 C69.0,26.104000000000042 68.79999999999927,25.885999999999967 68.40000000000146,25.885999999999967 C68.20000000000073,25.885999999999967 68.09999999999854,25.924999999999955 68.0,26.003000000000043 C67.79999999999927,26.081000000000017 67.79999999999927,26.172000000000025 67.79999999999927,26.275999999999954 C67.79999999999927,26.317999999999984 67.79999999999927,26.375 67.79999999999927,26.44799999999998 C67.79999999999927,26.520999999999958 67.79999999999927,26.567999999999984 67.79999999999927,26.589000000000055 C67.79999999999927,26.682999999999993 67.79999999999927,26.763000000000034 67.70000000000073,26.831000000000017 C67.70000000000073,26.899 67.59999999999854,26.932999999999993 67.5,26.932999999999993 C67.40000000000146,26.932999999999993 67.29999999999927,26.899 67.20000000000073,26.831000000000017 C67.20000000000073,26.763000000000034 67.09999999999854,26.682999999999993 67.09999999999854,26.589000000000055 C67.09999999999854,26.339000000000055 67.29999999999927,26.128000000000043 67.5,25.956000000000017 C67.79999999999927,25.783999999999992 68.09999999999854,25.69799999999998 68.5,25.69799999999998 C68.90000000000146,25.69799999999998 69.20000000000073,25.80200000000002 69.29999999999927,26.010999999999967 C69.5,26.21900000000005 69.59999999999854,26.537000000000035 69.59999999999854,26.964000000000055 L69.59999999999854,28.510999999999967 C69.59999999999854,28.687999999999988 69.59999999999854,28.809999999999945 69.59999999999854,28.878000000000043 C69.70000000000073,28.946000000000026 69.70000000000073,28.979000000000042 69.79999999999927,28.979000000000042 C69.90000000000146,28.979000000000042 70.09999999999854,28.92700000000002 70.20000000000073,28.82299999999998 L70.20000000000073,29.04200000000003 C70.0,29.19799999999998 69.90000000000146,29.30499999999995 69.79999999999927,29.361999999999966 C69.70000000000073,29.41999999999996 69.59999999999854,29.44799999999998 69.5,29.44799999999998 C69.29999999999927,29.44799999999998 69.20000000000073,29.400999999999954 69.09999999999854,29.307999999999993 C69.0,29.214000000000055 69.0,29.062999999999988 69.0,28.854000000000042 C68.5,29.25 68.09999999999854,29.44799999999998 67.79999999999927,29.44799999999998 C67.59999999999854,29.44799999999998 67.40000000000146,29.366999999999962 67.20000000000073,29.206000000000017 C67.09999999999854,29.04499999999996 67.0,28.833999999999946 67.0,28.57299999999998 M69.0,28.370000000000005 L69.0,27.214000000000055 C68.5,27.390999999999963 68.20000000000073,27.562999999999988 68.0,27.729000000000042 C67.79999999999927,27.895999999999958 67.70000000000073,28.09400000000005 67.70000000000073,28.32299999999998 C67.70000000000073,28.54200000000003 67.70000000000073,28.702999999999975 67.79999999999927,28.807999999999993 C67.90000000000146,28.912000000000035 68.09999999999854,28.964000000000055 68.20000000000073,28.964000000000055 C68.40000000000146,28.964000000000055 68.59999999999854,28.90700000000004 68.79999999999927,28.79200000000003 C68.79999999999927,28.74000000000001 68.90000000000146,28.687999999999988 68.90000000000146,28.635999999999967 C69.0,28.583999999999946 69.0,28.495000000000005 69.0,28.370000000000005 M72.70000000000073,26.44799999999998 C72.59999999999854,26.44799999999998 72.5,26.400999999999954 72.29999999999927,26.307999999999993 C72.20000000000073,26.214000000000055 72.20000000000073,26.16700000000003 72.09999999999854,26.16700000000003 C72.0,26.16700000000003 71.90000000000146,26.245000000000005 71.79999999999927,26.400999999999954 C71.59999999999854,26.557999999999993 71.59999999999854,26.702999999999975 71.59999999999854,26.839000000000055 L71.59999999999854,28.650999999999954 C71.59999999999854,28.879999999999995 71.59999999999854,29.033999999999992 71.70000000000073,29.111999999999966 C71.79999999999927,29.190000000000055 72.0,29.235000000000014 72.20000000000073,29.245000000000005 L72.20000000000073,29.370000000000005 L70.29999999999927,29.370000000000005 L70.29999999999927,29.245000000000005 C70.59999999999854,29.202999999999975 70.70000000000073,29.150999999999954 70.79999999999927,29.089000000000055 C70.79999999999927,29.025999999999954 70.90000000000146,28.895999999999958 70.90000000000146,28.69799999999998 L70.90000000000146,26.682999999999993 C70.90000000000146,26.504999999999995 70.90000000000146,26.379999999999995 70.79999999999927,26.307999999999993 C70.79999999999927,26.235000000000014 70.70000000000073,26.19799999999998 70.59999999999854,26.19799999999998 C70.5,26.19799999999998 70.40000000000146,26.208999999999946 70.29999999999927,26.229000000000042 L70.29999999999927,26.104000000000042 C70.79999999999927,25.96900000000005 71.09999999999854,25.833999999999946 71.5,25.69799999999998 L71.59999999999854,25.714000000000055 L71.59999999999854,26.41700000000003 C71.79999999999927,26.145999999999958 71.90000000000146,25.958999999999946 72.09999999999854,25.854000000000042 C72.20000000000073,25.75 72.29999999999927,25.69799999999998 72.5,25.69799999999998 C72.70000000000073,25.69799999999998 72.79999999999927,25.73199999999997 72.79999999999927,25.799999999999955 C72.90000000000146,25.866999999999962 72.90000000000146,25.96900000000005 72.90000000000146,26.104000000000042 C72.90000000000146,26.208999999999946 72.90000000000146,26.29200000000003 72.90000000000146,26.354000000000042 C72.79999999999927,26.41700000000003 72.70000000000073,26.44799999999998 72.70000000000073,26.44799999999998 M75.59999999999854,24.729000000000042 C75.59999999999854,24.729000000000042 75.5,24.69799999999998 75.40000000000146,24.635999999999967 C75.40000000000146,24.57299999999998 75.29999999999927,24.504999999999995 75.29999999999927,24.432999999999993 C75.20000000000073,24.360000000000014 75.20000000000073,24.29200000000003 75.09999999999854,24.229000000000042 C75.0,24.16700000000003 74.90000000000146,24.135999999999967 74.90000000000146,24.135999999999967 C74.59999999999854,24.135999999999967 74.40000000000146,24.370000000000005 74.40000000000146,24.839000000000055 L74.40000000000146,25.775999999999954 L75.40000000000146,25.775999999999954 L75.40000000000146,26.010999999999967 L74.40000000000146,26.010999999999967 L74.40000000000146,28.54200000000003 C74.40000000000146,28.833999999999946 74.40000000000146,29.020999999999958 74.5,29.104000000000042 C74.59999999999854,29.187999999999988 74.79999999999927,29.235000000000014 75.20000000000073,29.245000000000005 L75.20000000000073,29.370000000000005 L73.09999999999854,29.370000000000005 L73.09999999999854,29.245000000000005 C73.40000000000146,29.235000000000014 73.5,29.187999999999988 73.59999999999854,29.104000000000042 C73.70000000000073,29.020999999999958 73.70000000000073,28.833999999999946 73.70000000000073,28.54200000000003 L73.70000000000073,26.010999999999967 L73.09999999999854,26.010999999999967 L73.09999999999854,25.775999999999954 L73.70000000000073,25.775999999999954 C73.70000000000073,25.172000000000025 73.90000000000146,24.706000000000017 74.09999999999854,24.378000000000043 C74.29999999999927,24.049999999999955 74.59999999999854,23.885999999999967 75.09999999999854,23.885999999999967 C75.40000000000146,23.885999999999967 75.59999999999854,23.934999999999945 75.70000000000073,24.033999999999992 C75.90000000000146,24.133000000000038 76.0,24.254999999999995 76.0,24.400999999999954 C76.0,24.495000000000005 75.90000000000146,24.57299999999998 75.90000000000146,24.635999999999967 C75.79999999999927,24.69799999999998 75.70000000000073,24.729000000000042 75.59999999999854,24.729000000000042 M83.29999999999927,24.79200000000003 L81.29999999999927,29.370000000000005 L81.20000000000073,29.370000000000005 L79.20000000000073,24.979000000000042 L79.20000000000073,28.19799999999998 C79.20000000000073,28.604000000000042 79.20000000000073,28.873000000000047 79.29999999999927,29.003000000000043 C79.40000000000146,29.133000000000038 79.59999999999854,29.202999999999975 79.90000000000146,29.214000000000055 L79.90000000000146,29.370000000000005 L78.09999999999854,29.370000000000005 L78.09999999999854,29.214000000000055 C78.40000000000146,29.192999999999984 78.59999999999854,29.120000000000005 78.70000000000073,28.995000000000005 C78.79999999999927,28.870000000000005 78.79999999999927,28.604000000000042 78.79999999999927,28.19799999999998 L78.79999999999927,24.94799999999998 C78.79999999999927,24.65700000000004 78.79999999999927,24.46900000000005 78.70000000000073,24.385999999999967 C78.59999999999854,24.30200000000002 78.40000000000146,24.25 78.09999999999854,24.229000000000042 L78.09999999999854,24.07299999999998 L79.70000000000073,24.07299999999998 L81.5,28.120000000000005 L83.29999999999927,24.07299999999998 L84.90000000000146,24.07299999999998 L84.90000000000146,24.229000000000042 C84.59999999999854,24.260999999999967 84.40000000000146,24.317999999999984 84.29999999999927,24.400999999999954 C84.20000000000073,24.485000000000014 84.20000000000073,24.66700000000003 84.20000000000073,24.94799999999998 L84.20000000000073,28.495000000000005 C84.20000000000073,28.775999999999954 84.20000000000073,28.961000000000013 84.29999999999927,29.049999999999955 C84.40000000000146,29.138000000000034 84.59999999999854,29.192999999999984 84.90000000000146,29.214000000000055 L84.90000000000146,29.370000000000005 L82.59999999999854,29.370000000000005 L82.59999999999854,29.214000000000055 C82.90000000000146,29.192999999999984 83.09999999999854,29.135999999999967 83.20000000000073,29.04200000000003 C83.29999999999927,28.94799999999998 83.29999999999927,28.74000000000001 83.29999999999927,28.41700000000003 L83.29999999999927,24.79200000000003 M88.79999999999927,28.94799999999998 L88.79999999999927,29.07299999999998 C88.40000000000146,29.187999999999988 88.0,29.312999999999988 87.70000000000073,29.44799999999998 L87.70000000000073,29.432999999999993 L87.70000000000073,28.745000000000005 C87.70000000000073,28.765999999999963 87.59999999999854,28.815000000000055 87.59999999999854,28.894000000000005 C87.5,28.97199999999998 87.40000000000146,29.025999999999954 87.40000000000146,29.057999999999993 C87.40000000000146,29.089000000000055 87.29999999999927,29.135999999999967 87.20000000000073,29.19799999999998 C87.09999999999854,29.260999999999967 87.09999999999854,29.30499999999995 87.0,29.331000000000017 C87.0,29.35699999999997 86.90000000000146,29.383000000000038 86.79999999999927,29.408999999999992 C86.70000000000073,29.434999999999945 86.59999999999854,29.44799999999998 86.5,29.44799999999998 C86.20000000000073,29.44799999999998 86.0,29.351999999999975 85.79999999999927,29.158999999999992 C85.59999999999854,28.966000000000008 85.59999999999854,28.714000000000055 85.59999999999854,28.400999999999954 L85.59999999999854,26.385999999999967 C85.59999999999854,26.208999999999946 85.5,26.083999999999946 85.5,26.010999999999967 C85.40000000000146,25.937999999999988 85.29999999999927,25.895999999999958 85.09999999999854,25.885999999999967 L85.09999999999854,25.775999999999954 L86.20000000000073,25.775999999999954 L86.20000000000073,28.370000000000005 C86.20000000000073,28.525999999999954 86.29999999999927,28.663999999999987 86.40000000000146,28.783999999999992 C86.5,28.903999999999996 86.59999999999854,28.964000000000055 86.79999999999927,28.964000000000055 C86.90000000000146,28.964000000000055 86.90000000000146,28.956000000000017 87.0,28.940000000000055 C87.09999999999854,28.924999999999955 87.20000000000073,28.895999999999958 87.29999999999927,28.854000000000042 C87.40000000000146,28.812999999999988 87.5,28.741999999999962 87.5,28.644000000000005 C87.59999999999854,28.54499999999996 87.70000000000073,28.422000000000025 87.70000000000073,28.275999999999954 L87.70000000000073,26.400999999999954 C87.70000000000073,26.214000000000055 87.59999999999854,26.086000000000013 87.5,26.019000000000005 C87.5,25.951000000000022 87.29999999999927,25.912000000000035 87.09999999999854,25.900999999999954 L87.09999999999854,25.775999999999954 L88.29999999999927,25.775999999999954 L88.29999999999927,28.495000000000005 C88.29999999999927,28.682999999999993 88.40000000000146,28.80499999999995 88.40000000000146,28.861999999999966 C88.5,28.91999999999996 88.59999999999854,28.94799999999998 88.79999999999927,28.94799999999998 L88.79999999999927,28.94799999999998 M91.0,25.854000000000042 C91.0,25.854000000000042 91.09999999999854,25.827999999999975 91.20000000000073,25.775999999999954 L91.20000000000073,25.775999999999954 L91.29999999999927,26.854000000000042 L91.20000000000073,26.854000000000042 C91.09999999999854,26.5 91.0,26.248000000000047 90.79999999999927,26.09699999999998 C90.70000000000073,25.946000000000026 90.5,25.870000000000005 90.29999999999927,25.870000000000005 C90.09999999999854,25.870000000000005 90.0,25.922000000000025 89.79999999999927,26.025999999999954 C89.70000000000073,26.129999999999995 89.70000000000073,26.260999999999967 89.70000000000073,26.41700000000003 C89.70000000000073,26.645999999999958 89.79999999999927,26.827999999999975 90.0,26.964000000000055 L90.90000000000146,27.479000000000042 C91.09999999999854,27.625 91.29999999999927,27.770999999999958 91.40000000000146,27.91700000000003 C91.5,28.062999999999988 91.5,28.235000000000014 91.5,28.432999999999993 C91.5,28.702999999999975 91.40000000000146,28.940000000000055 91.20000000000073,29.144000000000005 C91.0,29.34699999999998 90.70000000000073,29.44799999999998 90.40000000000146,29.44799999999998 C90.29999999999927,29.44799999999998 90.09999999999854,29.424999999999955 89.90000000000146,29.378000000000043 C89.70000000000073,29.331000000000017 89.5,29.307999999999993 89.5,29.307999999999993 C89.40000000000146,29.307999999999993 89.29999999999927,29.339000000000055 89.29999999999927,29.400999999999954 L89.20000000000073,29.400999999999954 L89.20000000000073,28.150999999999954 L89.29999999999927,28.150999999999954 C89.40000000000146,28.525999999999954 89.5,28.79200000000003 89.59999999999854,28.94799999999998 C89.79999999999927,29.16700000000003 90.0,29.275999999999954 90.29999999999927,29.275999999999954 C90.5,29.275999999999954 90.70000000000073,29.224000000000046 90.79999999999927,29.120000000000005 C90.90000000000146,29.015999999999963 91.0,28.875 91.0,28.69799999999998 C91.0,28.458999999999946 90.79999999999927,28.260999999999967 90.59999999999854,28.104000000000042 L90.09999999999854,27.839000000000055 C89.79999999999927,27.640999999999963 89.5,27.456000000000017 89.40000000000146,27.283999999999992 C89.20000000000073,27.111999999999966 89.20000000000073,26.912000000000035 89.20000000000073,26.682999999999993 C89.20000000000073,26.390999999999963 89.29999999999927,26.153999999999996 89.5,25.97199999999998 C89.70000000000073,25.788999999999987 89.90000000000146,25.69799999999998 90.29999999999927,25.69799999999998 C90.40000000000146,25.69799999999998 90.59999999999854,25.724000000000046 90.70000000000073,25.775999999999954 C90.90000000000146,25.827999999999975 91.0,25.854000000000042 91.0,25.854000000000042 M92.29999999999927,26.229000000000042 C92.20000000000073,26.229000000000042 92.09999999999854,26.235000000000014 92.0,26.245000000000005 L92.0,26.135999999999967 C92.29999999999927,26.03200000000004 92.79999999999927,25.885999999999967 93.20000000000073,25.69799999999998 L93.20000000000073,25.714000000000055 L93.20000000000073,28.557999999999993 C93.20000000000073,28.839000000000055 93.29999999999927,29.019000000000005 93.29999999999927,29.09699999999998 C93.40000000000146,29.174999999999955 93.59999999999854,29.224000000000046 93.79999999999927,29.245000000000005 L93.79999999999927,29.370000000000005 L91.90000000000146,29.370000000000005 L91.90000000000146,29.245000000000005 C92.20000000000073,29.235000000000014 92.40000000000146,29.187999999999988 92.5,29.104000000000042 C92.5,29.020999999999958 92.59999999999854,28.839000000000055 92.59999999999854,28.557999999999993 L92.59999999999854,26.69799999999998 C92.59999999999854,26.520999999999958 92.59999999999854,26.399 92.5,26.331000000000017 C92.5,26.263000000000034 92.40000000000146,26.229000000000042 92.29999999999927,26.229000000000042 M92.79999999999927,23.900999999999954 C93.0,23.900999999999954 93.09999999999854,23.942999999999984 93.09999999999854,24.025999999999954 C93.20000000000073,24.110000000000014 93.29999999999927,24.208999999999946 93.29999999999927,24.32299999999998 C93.29999999999927,24.437999999999988 93.20000000000073,24.533999999999992 93.09999999999854,24.611999999999966 C93.09999999999854,24.690000000000055 93.0,24.729000000000042 92.79999999999927,24.729000000000042 C92.70000000000073,24.729000000000042 92.59999999999854,24.687999999999988 92.59999999999854,24.604000000000042 C92.5,24.520999999999958 92.40000000000146,24.424999999999955 92.40000000000146,24.315000000000055 C92.40000000000146,24.206000000000017 92.5,24.110000000000014 92.59999999999854,24.025999999999954 C92.59999999999854,23.942999999999984 92.70000000000073,23.900999999999954 92.79999999999927,23.900999999999954 M94.20000000000073,27.66700000000003 C94.20000000000073,27.07299999999998 94.40000000000146,26.59699999999998 94.79999999999927,26.236999999999966 C95.09999999999854,25.878000000000043 95.5,25.69799999999998 96.0,25.69799999999998 C96.29999999999927,25.69799999999998 96.59999999999854,25.778999999999996 96.79999999999927,25.940000000000055 C97.09999999999854,26.101999999999975 97.20000000000073,26.297000000000025 97.20000000000073,26.525999999999954 C97.20000000000073,26.610000000000014 97.09999999999854,26.684999999999945 97.09999999999854,26.753000000000043 C97.0,26.821000000000026 96.90000000000146,26.854000000000042 96.79999999999927,26.854000000000042 C96.59999999999854,26.854000000000042 96.5,26.735000000000014 96.40000000000146,26.495000000000005 L96.40000000000146,26.32299999999998 C96.40000000000146,26.16700000000003 96.29999999999927,26.062999999999988 96.20000000000073,26.010999999999967 C96.20000000000073,25.958999999999946 96.09999999999854,25.932999999999993 95.90000000000146,25.932999999999993 C95.59999999999854,25.932999999999993 95.40000000000146,26.059999999999945 95.20000000000073,26.315000000000055 C95.0,26.571000000000026 94.90000000000146,26.90700000000004 94.90000000000146,27.32299999999998 C94.90000000000146,27.770999999999958 95.0,28.140999999999963 95.20000000000073,28.432999999999993 C95.40000000000146,28.724000000000046 95.70000000000073,28.870000000000005 96.09999999999854,28.870000000000005 C96.29999999999927,28.870000000000005 96.5,28.812999999999988 96.70000000000073,28.69799999999998 C96.79999999999927,28.583999999999946 97.0,28.390999999999963 97.20000000000073,28.120000000000005 L97.29999999999927,28.182999999999993 C97.20000000000073,28.297000000000025 97.20000000000073,28.388000000000034 97.20000000000073,28.456000000000017 C97.09999999999854,28.524 97.09999999999854,28.628000000000043 96.90000000000146,28.769000000000005 C96.79999999999927,28.908999999999992 96.70000000000073,29.020999999999958 96.59999999999854,29.104000000000042 C96.5,29.187999999999988 96.40000000000146,29.265999999999963 96.29999999999927,29.339000000000055 C96.09999999999854,29.412000000000035 95.90000000000146,29.44799999999998 95.70000000000073,29.44799999999998 C95.29999999999927,29.44799999999998 94.90000000000146,29.28200000000004 94.70000000000073,28.94799999999998 C94.40000000000146,28.61500000000001 94.20000000000073,28.187999999999988 94.20000000000073,27.66700000000003 M98.59999999999854,28.57299999999998 C98.70000000000073,28.57299999999998 98.79999999999927,28.616999999999962 98.90000000000146,28.706000000000017 C99.0,28.79499999999996 99.0,28.900999999999954 99.0,29.025999999999954 C99.0,29.140999999999963 99.0,29.241999999999962 98.90000000000146,29.331000000000017 C98.79999999999927,29.41999999999996 98.70000000000073,29.464000000000055 98.59999999999854,29.464000000000055 C98.40000000000146,29.464000000000055 98.29999999999927,29.41999999999996 98.29999999999927,29.331000000000017 C98.20000000000073,29.241999999999962 98.09999999999854,29.140999999999963 98.09999999999854,29.025999999999954 C98.09999999999854,28.900999999999954 98.20000000000073,28.79499999999996 98.29999999999927,28.706000000000017 C98.40000000000146,28.616999999999962 98.5,28.57299999999998 98.59999999999854,28.57299999999998" />
</svg>
