<?xml version="1.0" encoding="UTF-8" standalone="yes"?>
<svg width="256.0px" height="256.0px" xmlns="http://www.w3.org/2000/svg" xmlns:xlink="http://www.w3.org/1999/xlink" version="1.2" baseProfile="tiny">
<path d="M44.61999999999989,26.871999999999957 C48.23999999999978,23.715000000000032 59.11999999999989,23.715000000000032 62.75,26.871999999999957 C59.11999999999989,24.514999999999986 48.23999999999978,24.514999999999986 44.61999999999989,26.871999999999957" />
<path d="M209.05000000000018,22.581000000000017 C209.05000000000018,22.831000000000017 208.92999999999984,22.956000000000017 208.67999999999984,22.956000000000017 C208.44000000000005,22.956000000000017 208.30999999999995,22.831000000000017 208.30999999999995,22.581000000000017 L208.30999999999995,19.690000000000055 L206.65999999999985,20.315000000000055 L206.65999999999985,23.471000000000004 C206.65999999999985,23.721000000000004 206.5300000000002,23.846000000000004 206.2800000000002,23.846000000000004 C206.0300000000002,23.846000000000004 205.90999999999985,23.721000000000004 205.90999999999985,23.471000000000004 L205.90999999999985,20.565000000000055 L205.2800000000002,20.799999999999955 C205.26999999999998,20.809999999999945 205.2199999999998,20.815000000000055 205.1300000000001,20.815000000000055 C205.01999999999998,20.815000000000055 204.92999999999984,20.775999999999954 204.8499999999999,20.69799999999998 C204.76999999999998,20.620000000000005 204.73999999999978,20.528999999999996 204.73999999999978,20.424999999999955 L204.73999999999978,19.221000000000004 C204.73999999999978,19.024 204.82000000000016,18.899 204.98999999999978,18.846000000000004 L205.90999999999985,18.533999999999992 L205.90999999999985,15.331000000000017 L205.2800000000002,15.549999999999955 C205.26999999999998,15.559999999999945 205.2199999999998,15.565000000000055 205.1300000000001,15.565000000000055 C205.01999999999998,15.565000000000055 204.92999999999984,15.525999999999954 204.8499999999999,15.447999999999979 C204.76999999999998,15.370000000000005 204.73999999999978,15.278999999999996 204.73999999999978,15.174999999999955 L204.73999999999978,13.956000000000017 C204.73999999999978,13.778999999999996 204.82000000000016,13.663999999999987 204.98999999999978,13.611999999999966 L205.90999999999985,13.253000000000043 L205.90999999999985,10.111999999999966 C205.90999999999985,9.861999999999966 206.0300000000002,9.736999999999966 206.2800000000002,9.736999999999966 C206.5300000000002,9.736999999999966 206.65999999999985,9.861999999999966 206.65999999999985,10.111999999999966 L206.65999999999985,13.003000000000043 L208.30999999999995,12.378000000000043 L208.30999999999995,9.221000000000004 C208.30999999999995,8.971000000000004 208.44000000000005,8.846000000000004 208.67999999999984,8.846000000000004 C208.92999999999984,8.846000000000004 209.05000000000018,8.971000000000004 209.05000000000018,9.221000000000004 L209.05000000000018,12.128000000000043 L209.69999999999982,11.893000000000029 C209.71000000000004,11.883000000000038 209.76000000000022,11.878000000000043 209.82999999999993,11.878000000000043 C209.92000000000007,11.878000000000043 210.01999999999998,11.913999999999987 210.1300000000001,11.986999999999966 C210.21000000000004,12.07000000000005 210.25,12.163999999999987 210.25,12.268000000000029 L210.25,13.471000000000004 C210.25,13.658999999999992 210.15999999999985,13.783999999999992 209.9699999999998,13.846000000000004 L209.05000000000018,14.158999999999992 L209.05000000000018,17.361999999999966 L209.69999999999982,17.14300000000003 C209.71000000000004,17.133000000000038 209.76000000000022,17.128000000000043 209.82999999999993,17.128000000000043 C209.92000000000007,17.128000000000043 210.01999999999998,17.168999999999983 210.1300000000001,17.253000000000043 C210.21000000000004,17.326000000000022 210.25,17.413999999999987 210.25,17.51800000000003 L210.25,18.736999999999966 C210.25,18.903999999999996 210.15999999999985,19.01800000000003 209.9699999999998,19.081000000000017 L209.05000000000018,19.440000000000055 L209.05000000000018,22.581000000000017 M208.30999999999995,14.456000000000017 L206.65999999999985,15.033999999999992 L206.65999999999985,18.236999999999966 L208.30999999999995,17.658999999999992 L208.30999999999995,14.456000000000017" />
<path d="M188.7800000000002,20.51800000000003 L188.7800000000002,22.065000000000055 C188.7800000000002,22.616999999999962 188.80999999999995,23.05499999999995 188.86000000000013,23.378000000000043 C189.28999999999996,23.013000000000034 189.5999999999999,22.741999999999962 189.7800000000002,22.565000000000055 C189.98999999999978,22.35699999999997 190.19999999999982,22.067999999999984 190.40999999999985,21.69799999999998 C190.6199999999999,21.327999999999975 190.7199999999998,20.961000000000013 190.7199999999998,20.596000000000004 C190.7199999999998,20.23199999999997 190.63999999999987,19.918999999999983 190.48999999999978,19.658999999999992 C190.32999999999993,19.399 190.1199999999999,19.26800000000003 189.86000000000013,19.26800000000003 C189.55000000000018,19.26800000000003 189.28999999999996,19.388000000000034 189.07999999999993,19.628000000000043 C188.8800000000001,19.888000000000034 188.7800000000002,20.184999999999945 188.7800000000002,20.51800000000003 M187.94999999999982,24.096000000000004 L187.69999999999982,12.206000000000017 C187.88999999999987,12.101999999999975 188.07999999999993,12.049999999999955 188.26000000000022,12.049999999999955 C188.44000000000005,12.049999999999955 188.6199999999999,12.101999999999975 188.80000000000018,12.206000000000017 L188.63999999999987,19.096000000000004 C189.17000000000007,18.638000000000034 189.78999999999996,18.408999999999992 190.48999999999978,18.408999999999992 C190.98999999999978,18.408999999999992 191.40999999999985,18.616999999999962 191.73999999999978,19.033999999999992 C192.07999999999993,19.451000000000022 192.25,19.92999999999995 192.25,20.471000000000004 C192.25,20.80499999999995 192.13999999999987,21.163999999999987 191.92000000000007,21.549999999999955 C191.7199999999998,21.89300000000003 191.5,22.163999999999987 191.26999999999998,22.361999999999966 C191.1300000000001,22.466000000000008 190.80000000000018,22.726999999999975 190.26999999999998,23.14300000000003 C190.11000000000013,23.258000000000038 189.92999999999984,23.39300000000003 189.71000000000004,23.549999999999955 C189.5,23.706000000000017 189.3699999999999,23.80499999999995 189.30999999999995,23.846000000000004 C189.2199999999998,23.899 189.1300000000001,24.003000000000043 189.05000000000018,24.158999999999992 C188.9699999999998,24.293999999999983 188.86000000000013,24.403999999999996 188.73999999999978,24.486999999999966 C188.6500000000001,24.57000000000005 188.55000000000018,24.611999999999966 188.42000000000007,24.611999999999966 C188.28999999999996,24.611999999999966 188.17999999999984,24.565000000000055 188.0999999999999,24.471000000000004 C188.0,24.378000000000043 187.94999999999982,24.253000000000043 187.94999999999982,24.096000000000004" />
<path d="M133.67000000000007,40.08100000000002 C133.67000000000007,40.33100000000002 133.53999999999996,40.45600000000002 133.30000000000018,40.45600000000002 C133.05999999999995,40.45600000000002 132.92999999999984,40.33100000000002 132.92999999999984,40.08100000000002 L132.92999999999984,37.190000000000055 L131.2800000000002,37.815000000000055 L131.2800000000002,40.971000000000004 C131.2800000000002,41.221000000000004 131.1500000000001,41.346000000000004 130.9000000000001,41.346000000000004 C130.6500000000001,41.346000000000004 130.5300000000002,41.221000000000004 130.5300000000002,40.971000000000004 L130.5300000000002,38.065000000000055 L129.9000000000001,38.299999999999955 C129.88999999999987,38.309999999999945 129.84000000000015,38.315000000000055 129.75,38.315000000000055 C129.63999999999987,38.315000000000055 129.55000000000018,38.275999999999954 129.4699999999998,38.19799999999998 C129.38999999999987,38.120000000000005 129.3499999999999,38.028999999999996 129.3499999999999,37.924999999999955 L129.3499999999999,36.721000000000004 C129.3499999999999,36.524 129.44000000000005,36.399 129.5999999999999,36.346000000000004 L130.5300000000002,36.03399999999999 L130.5300000000002,32.83100000000002 L129.9000000000001,33.049999999999955 C129.88999999999987,33.059999999999945 129.84000000000015,33.065000000000055 129.75,33.065000000000055 C129.63999999999987,33.065000000000055 129.55000000000018,33.025999999999954 129.4699999999998,32.94799999999998 C129.38999999999987,32.870000000000005 129.3499999999999,32.778999999999996 129.3499999999999,32.674999999999955 L129.3499999999999,31.456000000000017 C129.3499999999999,31.278999999999996 129.44000000000005,31.163999999999987 129.5999999999999,31.111999999999966 L130.5300000000002,30.753000000000043 L130.5300000000002,27.611999999999966 C130.5300000000002,27.361999999999966 130.6500000000001,27.236999999999966 130.9000000000001,27.236999999999966 C131.1500000000001,27.236999999999966 131.2800000000002,27.361999999999966 131.2800000000002,27.611999999999966 L131.2800000000002,30.503000000000043 L132.92999999999984,29.878000000000043 L132.92999999999984,26.721000000000004 C132.92999999999984,26.471000000000004 133.05999999999995,26.346000000000004 133.30000000000018,26.346000000000004 C133.53999999999996,26.346000000000004 133.67000000000007,26.471000000000004 133.67000000000007,26.721000000000004 L133.67000000000007,29.628000000000043 L134.32000000000016,29.39300000000003 C134.32999999999993,29.383000000000038 134.3800000000001,29.378000000000043 134.44999999999982,29.378000000000043 C134.53999999999996,29.378000000000043 134.63999999999987,29.413999999999987 134.75,29.486999999999966 C134.82999999999993,29.57000000000005 134.8699999999999,29.663999999999987 134.8699999999999,29.76800000000003 L134.8699999999999,30.971000000000004 C134.8699999999999,31.158999999999992 134.7800000000002,31.283999999999992 134.59000000000015,31.346000000000004 L133.67000000000007,31.658999999999992 L133.67000000000007,34.861999999999966 L134.32000000000016,34.64300000000003 C134.32999999999993,34.63300000000004 134.3800000000001,34.62800000000004 134.44999999999982,34.62800000000004 C134.53999999999996,34.62800000000004 134.63999999999987,34.66899999999998 134.75,34.75300000000004 C134.82999999999993,34.82600000000002 134.8699999999999,34.91399999999999 134.8699999999999,35.01800000000003 L134.8699999999999,36.236999999999966 C134.8699999999999,36.403999999999996 134.7800000000002,36.51800000000003 134.59000000000015,36.58100000000002 L133.67000000000007,36.940000000000055 L133.67000000000007,40.08100000000002 M132.92999999999984,31.956000000000017 L131.2800000000002,32.53399999999999 L131.2800000000002,35.736999999999966 L132.92999999999984,35.15899999999999 L132.92999999999984,31.956000000000017" />
<path d="M8.110000000000127,28.01800000000003 L8.110000000000127,29.565000000000055 C8.110000000000127,30.116999999999962 8.139999999999873,30.55499999999995 8.190000000000055,30.878000000000043 C8.61999999999989,30.513000000000034 8.929999999999836,30.241999999999962 9.110000000000127,30.065000000000055 C9.320000000000164,29.85699999999997 9.5300000000002,29.567999999999984 9.739999999999782,29.19799999999998 C9.949999999999818,28.827999999999975 10.050000000000182,28.461000000000013 10.050000000000182,28.096000000000004 C10.050000000000182,27.73199999999997 9.9699999999998,27.418999999999983 9.820000000000164,27.158999999999992 C9.659999999999854,26.899 9.449999999999818,26.76800000000003 9.190000000000055,26.76800000000003 C8.88000000000011,26.76800000000003 8.61999999999989,26.888000000000034 8.409999999999854,27.128000000000043 C8.210000000000036,27.388000000000034 8.110000000000127,27.684999999999945 8.110000000000127,28.01800000000003 M7.289999999999964,31.596000000000004 L7.039999999999964,19.706000000000017 C7.2199999999998,19.601999999999975 7.4099999999998545,19.549999999999955 7.5900000000001455,19.549999999999955 C7.769999999999982,19.549999999999955 7.949999999999818,19.601999999999975 8.13000000000011,19.706000000000017 L7.9699999999998,26.596000000000004 C8.5,26.138000000000034 9.11999999999989,25.908999999999992 9.820000000000164,25.908999999999992 C10.320000000000164,25.908999999999992 10.739999999999782,26.116999999999962 11.070000000000164,26.533999999999992 C11.409999999999854,26.951000000000022 11.579999999999927,27.42999999999995 11.579999999999927,27.971000000000004 C11.579999999999927,28.30499999999995 11.4699999999998,28.663999999999987 11.25,29.049999999999955 C11.050000000000182,29.39300000000003 10.829999999999927,29.663999999999987 10.599999999999909,29.861999999999966 C10.460000000000036,29.966000000000008 10.13000000000011,30.226999999999975 9.599999999999909,30.64300000000003 C9.440000000000055,30.758000000000038 9.260000000000218,30.89300000000003 9.039999999999964,31.049999999999955 C8.829999999999927,31.206000000000017 8.699999999999818,31.30499999999995 8.639999999999873,31.346000000000004 C8.550000000000182,31.399 8.460000000000036,31.503000000000043 8.38000000000011,31.658999999999992 C8.300000000000182,31.793999999999983 8.190000000000055,31.903999999999996 8.070000000000164,31.986999999999966 C7.980000000000018,32.07000000000005 7.880000000000109,32.111999999999966 7.75,32.111999999999966 C7.619999999999891,32.111999999999966 7.510000000000218,32.065000000000055 7.429999999999836,31.971000000000004 C7.329999999999927,31.878000000000043 7.289999999999964,31.753000000000043 7.289999999999964,31.596000000000004" />
<path d="M251.6300000000001,18.596000000000004 C252.25,18.596000000000004 252.78999999999996,18.758000000000038 253.2199999999998,19.081000000000017 C253.6199999999999,19.434999999999945 253.82000000000016,19.878000000000043 253.82000000000016,20.408999999999992 C253.82000000000016,21.30499999999995 253.36000000000013,22.14300000000003 252.44000000000005,22.924999999999955 C251.5,23.706000000000017 250.5,24.096000000000004 249.42999999999984,24.096000000000004 C248.80000000000018,24.096000000000004 248.2800000000002,23.934999999999945 247.8499999999999,23.611999999999966 C247.44000000000005,23.258000000000038 247.23999999999978,22.815000000000055 247.23999999999978,22.283999999999992 C247.23999999999978,21.388000000000034 247.71000000000004,20.549999999999955 248.6500000000001,19.76800000000003 C249.55999999999995,18.986999999999966 250.55999999999995,18.596000000000004 251.6300000000001,18.596000000000004" />
<path d="M232.59000000000015,63.12800000000004 L234.98999999999978,61.174999999999955 C235.05999999999995,61.12199999999996 235.11000000000013,61.096000000000004 235.17000000000007,61.096000000000004 C235.23999999999978,61.096000000000004 235.30999999999995,61.12199999999996 235.3699999999999,61.174999999999955 L235.7800000000002,61.486999999999966 C235.84000000000015,61.549999999999955 235.8699999999999,61.62800000000004 235.8699999999999,61.721000000000004 C235.8699999999999,61.78399999999999 235.84000000000015,61.861999999999966 235.7800000000002,61.95600000000002 L233.44999999999982,63.846000000000004 L235.7800000000002,65.73699999999997 C235.84000000000015,65.80999999999995 235.8699999999999,65.89099999999996 235.8699999999999,65.97900000000004 C235.8699999999999,66.06799999999998 235.84000000000015,66.14300000000003 235.7800000000002,66.20600000000002 L235.3699999999999,66.51800000000003 C235.30999999999995,66.57000000000005 235.23999999999978,66.596 235.17000000000007,66.596 C235.11000000000013,66.596 235.05999999999995,66.57000000000005 234.98999999999978,66.51800000000003 L232.59000000000015,64.56500000000005 L230.17000000000007,66.51800000000003 C230.0999999999999,66.57000000000005 230.05000000000018,66.596 229.98999999999978,66.596 C229.92999999999984,66.596 229.8699999999999,66.57000000000005 229.80999999999995,66.51800000000003 L229.3800000000001,66.20600000000002 C229.32000000000016,66.14300000000003 229.28999999999996,66.06500000000005 229.28999999999996,65.971 C229.28999999999996,65.90899999999999 229.32000000000016,65.83100000000002 229.3800000000001,65.73699999999997 L231.71000000000004,63.846000000000004 L229.3800000000001,61.95600000000002 C229.32000000000016,61.88300000000004 229.28999999999996,61.80200000000002 229.28999999999996,61.714000000000055 C229.28999999999996,61.625 229.32000000000016,61.549999999999955 229.3800000000001,61.486999999999966 L229.80999999999995,61.174999999999955 C229.8699999999999,61.12199999999996 229.92999999999984,61.096000000000004 229.98999999999978,61.096000000000004 C230.05000000000018,61.096000000000004 230.0999999999999,61.12199999999996 230.17000000000007,61.174999999999955 L232.59000000000015,63.12800000000004" />
<path d="M233.67999999999984,18.596000000000004 C234.30999999999995,18.596000000000004 234.84000000000015,18.758000000000038 235.2800000000002,19.081000000000017 C235.67000000000007,19.434999999999945 235.8699999999999,19.878000000000043 235.8699999999999,20.408999999999992 C235.8699999999999,21.30499999999995 235.40999999999985,22.14300000000003 234.48999999999978,22.924999999999955 C233.55999999999995,23.706000000000017 232.55000000000018,24.096000000000004 231.48000000000002,24.096000000000004 C230.8499999999999,24.096000000000004 230.32999999999993,23.934999999999945 229.9000000000001,23.611999999999966 C229.48999999999978,23.258000000000038 229.28999999999996,22.815000000000055 229.28999999999996,22.283999999999992 C229.28999999999996,21.388000000000034 229.76000000000022,20.549999999999955 230.69999999999982,19.76800000000003 C231.61000000000013,18.986999999999966 232.61000000000013,18.596000000000004 233.67999999999984,18.596000000000004" />
<path d="M215.73000000000002,13.596000000000004 C216.36000000000013,13.596000000000004 216.88999999999987,13.758000000000038 217.32999999999993,14.081000000000017 C217.7199999999998,14.434999999999945 217.92000000000007,14.878000000000043 217.92000000000007,15.408999999999992 C217.92000000000007,16.30499999999995 217.46000000000004,17.14300000000003 216.55000000000018,17.924999999999955 C215.61000000000013,18.706000000000017 214.5999999999999,19.096000000000004 213.5300000000002,19.096000000000004 C212.90999999999985,19.096000000000004 212.3800000000001,18.934999999999945 211.94999999999982,18.611999999999966 C211.55000000000018,18.258000000000038 211.34000000000015,17.815000000000055 211.34000000000015,17.283999999999992 C211.34000000000015,16.388000000000034 211.80999999999995,15.549999999999955 212.75,14.768000000000029 C213.67000000000007,13.986999999999966 214.65999999999985,13.596000000000004 215.73000000000002,13.596000000000004" />
<path d="M196.69000000000005,63.12800000000004 L199.0999999999999,61.174999999999955 C199.15999999999985,61.12199999999996 199.2199999999998,61.096000000000004 199.26999999999998,61.096000000000004 C199.34000000000015,61.096000000000004 199.40999999999985,61.12199999999996 199.4699999999998,61.174999999999955 L199.8800000000001,61.486999999999966 C199.94000000000005,61.549999999999955 199.9699999999998,61.62800000000004 199.9699999999998,61.721000000000004 C199.9699999999998,61.78399999999999 199.94000000000005,61.861999999999966 199.8800000000001,61.95600000000002 L197.55000000000018,63.846000000000004 L199.8800000000001,65.73699999999997 C199.94000000000005,65.80999999999995 199.9699999999998,65.89099999999996 199.9699999999998,65.97900000000004 C199.9699999999998,66.06799999999998 199.94000000000005,66.14300000000003 199.8800000000001,66.20600000000002 L199.4699999999998,66.51800000000003 C199.40999999999985,66.57000000000005 199.34000000000015,66.596 199.26999999999998,66.596 C199.2199999999998,66.596 199.15999999999985,66.57000000000005 199.0999999999999,66.51800000000003 L196.69000000000005,64.56500000000005 L194.26999999999998,66.51800000000003 C194.21000000000004,66.57000000000005 194.1500000000001,66.596 194.0999999999999,66.596 C194.03999999999996,66.596 193.9699999999998,66.57000000000005 193.90999999999985,66.51800000000003 L193.48999999999978,66.20600000000002 C193.42999999999984,66.14300000000003 193.4000000000001,66.06500000000005 193.4000000000001,65.971 C193.4000000000001,65.90899999999999 193.42999999999984,65.83100000000002 193.48999999999978,65.73699999999997 L195.82000000000016,63.846000000000004 L193.48999999999978,61.95600000000002 C193.42999999999984,61.88300000000004 193.4000000000001,61.80200000000002 193.4000000000001,61.714000000000055 C193.4000000000001,61.625 193.42999999999984,61.549999999999955 193.48999999999978,61.486999999999966 L193.90999999999985,61.174999999999955 C193.9699999999998,61.12199999999996 194.03999999999996,61.096000000000004 194.0999999999999,61.096000000000004 C194.1500000000001,61.096000000000004 194.21000000000004,61.12199999999996 194.26999999999998,61.174999999999955 L196.69000000000005,63.12800000000004" />
<path d="M197.78999999999996,71.096 C198.40999999999985,71.096 198.94000000000005,71.25800000000004 199.3800000000001,71.58100000000002 C199.7800000000002,71.93499999999995 199.9699999999998,72.37800000000004 199.9699999999998,72.90899999999999 C199.9699999999998,73.80499999999995 199.51999999999998,74.64300000000003 198.5999999999999,75.42499999999995 C197.65999999999985,76.20600000000002 196.65999999999985,76.596 195.57999999999993,76.596 C194.96000000000004,76.596 194.42999999999984,76.43499999999995 194.0,76.11199999999997 C193.5999999999999,75.75800000000004 193.4000000000001,75.31500000000005 193.4000000000001,74.78399999999999 C193.4000000000001,73.88800000000003 193.86000000000013,73.04999999999995 194.80000000000018,72.26800000000003 C195.7199999999998,71.48699999999997 196.71000000000004,71.096 197.78999999999996,71.096" />
<path d="M197.78999999999996,18.596000000000004 C198.40999999999985,18.596000000000004 198.94000000000005,18.758000000000038 199.3800000000001,19.081000000000017 C199.7800000000002,19.434999999999945 199.9699999999998,19.878000000000043 199.9699999999998,20.408999999999992 C199.9699999999998,21.30499999999995 199.51999999999998,22.14300000000003 198.5999999999999,22.924999999999955 C197.65999999999985,23.706000000000017 196.65999999999985,24.096000000000004 195.57999999999993,24.096000000000004 C194.96000000000004,24.096000000000004 194.42999999999984,23.934999999999945 194.0,23.611999999999966 C193.5999999999999,23.258000000000038 193.4000000000001,22.815000000000055 193.4000000000001,22.283999999999992 C193.4000000000001,21.388000000000034 193.86000000000013,20.549999999999955 194.80000000000018,19.76800000000003 C195.7199999999998,18.986999999999966 196.71000000000004,18.596000000000004 197.78999999999996,18.596000000000004" />
<path d="M167.98000000000002,63.12800000000004 L170.3800000000001,61.174999999999955 C170.44000000000005,61.12199999999996 170.5,61.096000000000004 170.55000000000018,61.096000000000004 C170.6300000000001,61.096000000000004 170.69000000000005,61.12199999999996 170.76000000000022,61.174999999999955 L171.15999999999985,61.486999999999966 C171.23000000000002,61.549999999999955 171.26000000000022,61.62800000000004 171.26000000000022,61.721000000000004 C171.26000000000022,61.78399999999999 171.23000000000002,61.861999999999966 171.15999999999985,61.95600000000002 L168.84000000000015,63.846000000000004 L171.15999999999985,65.73699999999997 C171.23000000000002,65.80999999999995 171.26000000000022,65.89099999999996 171.26000000000022,65.97900000000004 C171.26000000000022,66.06799999999998 171.23000000000002,66.14300000000003 171.15999999999985,66.20600000000002 L170.76000000000022,66.51800000000003 C170.69000000000005,66.57000000000005 170.6300000000001,66.596 170.55000000000018,66.596 C170.5,66.596 170.44000000000005,66.57000000000005 170.3800000000001,66.51800000000003 L167.98000000000002,64.56500000000005 L165.55000000000018,66.51800000000003 C165.48999999999978,66.57000000000005 165.42999999999984,66.596 165.3800000000001,66.596 C165.32000000000016,66.596 165.26000000000022,66.57000000000005 165.19000000000005,66.51800000000003 L164.76999999999998,66.20600000000002 C164.71000000000004,66.14300000000003 164.67999999999984,66.06500000000005 164.67999999999984,65.971 C164.67999999999984,65.90899999999999 164.71000000000004,65.83100000000002 164.76999999999998,65.73699999999997 L167.0999999999999,63.846000000000004 L164.76999999999998,61.95600000000002 C164.71000000000004,61.88300000000004 164.67999999999984,61.80200000000002 164.67999999999984,61.714000000000055 C164.67999999999984,61.625 164.71000000000004,61.549999999999955 164.76999999999998,61.486999999999966 L165.19000000000005,61.174999999999955 C165.26000000000022,61.12199999999996 165.32000000000016,61.096000000000004 165.3800000000001,61.096000000000004 C165.42999999999984,61.096000000000004 165.48999999999978,61.12199999999996 165.55000000000018,61.174999999999955 L167.98000000000002,63.12800000000004" />
<path d="M169.07000000000016,81.096 C169.69000000000005,81.096 170.23000000000002,81.25800000000004 170.65999999999985,81.58100000000002 C171.05999999999995,81.93499999999995 171.26000000000022,82.37800000000004 171.26000000000022,82.90899999999999 C171.26000000000022,83.80499999999995 170.80000000000018,84.64300000000003 169.8800000000001,85.42499999999995 C168.94000000000005,86.20600000000002 167.94000000000005,86.596 166.8699999999999,86.596 C166.23999999999978,86.596 165.7199999999998,86.43499999999995 165.28999999999996,86.11199999999997 C164.8800000000001,85.75800000000004 164.67999999999984,85.31500000000005 164.67999999999984,84.78399999999999 C164.67999999999984,83.88800000000003 165.1500000000001,83.04999999999995 166.09000000000015,82.26800000000003 C167.0,81.48699999999997 168.0,81.096 169.07000000000016,81.096" />
<path d="M139.26000000000022,63.12800000000004 L141.67000000000007,61.174999999999955 C141.73000000000002,61.12199999999996 141.78999999999996,61.096000000000004 141.84000000000015,61.096000000000004 C141.90999999999985,61.096000000000004 141.98000000000002,61.12199999999996 142.03999999999996,61.174999999999955 L142.44999999999982,61.486999999999966 C142.51000000000022,61.549999999999955 142.53999999999996,61.62800000000004 142.53999999999996,61.721000000000004 C142.53999999999996,61.78399999999999 142.51000000000022,61.861999999999966 142.44999999999982,61.95600000000002 L140.1199999999999,63.846000000000004 L142.44999999999982,65.73699999999997 C142.51000000000022,65.80999999999995 142.53999999999996,65.89099999999996 142.53999999999996,65.97900000000004 C142.53999999999996,66.06799999999998 142.51000000000022,66.14300000000003 142.44999999999982,66.20600000000002 L142.03999999999996,66.51800000000003 C141.98000000000002,66.57000000000005 141.90999999999985,66.596 141.84000000000015,66.596 C141.78999999999996,66.596 141.73000000000002,66.57000000000005 141.67000000000007,66.51800000000003 L139.26000000000022,64.56500000000005 L136.84000000000015,66.51800000000003 C136.7800000000002,66.57000000000005 136.7199999999998,66.596 136.67000000000007,66.596 C136.5999999999999,66.596 136.53999999999996,66.57000000000005 136.48000000000002,66.51800000000003 L136.05999999999995,66.20600000000002 C135.98999999999978,66.14300000000003 135.96000000000004,66.06500000000005 135.96000000000004,65.971 C135.96000000000004,65.90899999999999 135.98999999999978,65.83100000000002 136.05999999999995,65.73699999999997 L138.3800000000001,63.846000000000004 L136.05999999999995,61.95600000000002 C135.98999999999978,61.88300000000004 135.96000000000004,61.80200000000002 135.96000000000004,61.714000000000055 C135.96000000000004,61.625 135.98999999999978,61.549999999999955 136.05999999999995,61.486999999999966 L136.48000000000002,61.174999999999955 C136.53999999999996,61.12199999999996 136.5999999999999,61.096000000000004 136.67000000000007,61.096000000000004 C136.7199999999998,61.096000000000004 136.7800000000002,61.12199999999996 136.84000000000015,61.174999999999955 L139.26000000000022,63.12800000000004" />
<path d="M140.3499999999999,71.096 C140.98000000000002,71.096 141.51000000000022,71.25800000000004 141.94999999999982,71.58100000000002 C142.34000000000015,71.93499999999995 142.53999999999996,72.37800000000004 142.53999999999996,72.90899999999999 C142.53999999999996,73.80499999999995 142.07999999999993,74.64300000000003 141.17000000000007,75.42499999999995 C140.23000000000002,76.20600000000002 139.2199999999998,76.596 138.1500000000001,76.596 C137.5300000000002,76.596 137.0,76.43499999999995 136.57000000000016,76.11199999999997 C136.17000000000007,75.75800000000004 135.96000000000004,75.31500000000005 135.96000000000004,74.78399999999999 C135.96000000000004,73.88800000000003 136.42999999999984,73.04999999999995 137.3699999999999,72.26800000000003 C138.28999999999996,71.48699999999997 139.2800000000002,71.096 140.3499999999999,71.096" />
<path d="M140.3499999999999,81.096 C140.98000000000002,81.096 141.51000000000022,81.25800000000004 141.94999999999982,81.58100000000002 C142.34000000000015,81.93499999999995 142.53999999999996,82.37800000000004 142.53999999999996,82.90899999999999 C142.53999999999996,83.80499999999995 142.07999999999993,84.64300000000003 141.17000000000007,85.42499999999995 C140.23000000000002,86.20600000000002 139.2199999999998,86.596 138.1500000000001,86.596 C137.5300000000002,86.596 137.0,86.43499999999995 136.57000000000016,86.11199999999997 C136.17000000000007,85.75800000000004 135.96000000000004,85.31500000000005 135.96000000000004,84.78399999999999 C135.96000000000004,83.88800000000003 136.42999999999984,83.04999999999995 137.3699999999999,82.26800000000003 C138.28999999999996,81.48699999999997 139.2800000000002,81.096 140.3499999999999,81.096" />
<path d="M140.3499999999999,31.096000000000004 C140.98000000000002,31.096000000000004 141.51000000000022,31.258000000000038 141.94999999999982,31.581000000000017 C142.34000000000015,31.934999999999945 142.53999999999996,32.37800000000004 142.53999999999996,32.90899999999999 C142.53999999999996,33.80499999999995 142.07999999999993,34.64300000000003 141.17000000000007,35.424999999999955 C140.23000000000002,36.20600000000002 139.2199999999998,36.596000000000004 138.1500000000001,36.596000000000004 C137.5300000000002,36.596000000000004 137.0,36.434999999999945 136.57000000000016,36.111999999999966 C136.17000000000007,35.75800000000004 135.96000000000004,35.315000000000055 135.96000000000004,34.78399999999999 C135.96000000000004,33.888000000000034 136.42999999999984,33.049999999999955 137.3699999999999,32.26800000000003 C138.28999999999996,31.486999999999966 139.2800000000002,31.096000000000004 140.3499999999999,31.096000000000004" />
<path d="M99.01999999999998,63.12800000000004 L101.42000000000007,61.174999999999955 C101.48999999999978,61.12199999999996 101.53999999999996,61.096000000000004 101.59999999999991,61.096000000000004 C101.67000000000007,61.096000000000004 101.73999999999978,61.12199999999996 101.80000000000018,61.174999999999955 L102.21000000000004,61.486999999999966 C102.26999999999998,61.549999999999955 102.30000000000018,61.62800000000004 102.30000000000018,61.721000000000004 C102.30000000000018,61.78399999999999 102.26999999999998,61.861999999999966 102.21000000000004,61.95600000000002 L99.88000000000011,63.846000000000004 L102.21000000000004,65.73699999999997 C102.26999999999998,65.80999999999995 102.30000000000018,65.89099999999996 102.30000000000018,65.97900000000004 C102.30000000000018,66.06799999999998 102.26999999999998,66.14300000000003 102.21000000000004,66.20600000000002 L101.80000000000018,66.51800000000003 C101.73999999999978,66.57000000000005 101.67000000000007,66.596 101.59999999999991,66.596 C101.53999999999996,66.596 101.48999999999978,66.57000000000005 101.42000000000007,66.51800000000003 L99.01999999999998,64.56500000000005 L96.59999999999991,66.51800000000003 C96.5300000000002,66.57000000000005 96.48000000000002,66.596 96.42000000000007,66.596 C96.36000000000013,66.596 96.30000000000018,66.57000000000005 96.23999999999978,66.51800000000003 L95.80999999999995,66.20600000000002 C95.75,66.14300000000003 95.7199999999998,66.06500000000005 95.7199999999998,65.971 C95.7199999999998,65.90899999999999 95.75,65.83100000000002 95.80999999999995,65.73699999999997 L98.13999999999987,63.846000000000004 L95.80999999999995,61.95600000000002 C95.75,61.88300000000004 95.7199999999998,61.80200000000002 95.7199999999998,61.714000000000055 C95.7199999999998,61.625 95.75,61.549999999999955 95.80999999999995,61.486999999999966 L96.23999999999978,61.174999999999955 C96.30000000000018,61.12199999999996 96.36000000000013,61.096000000000004 96.42000000000007,61.096000000000004 C96.48000000000002,61.096000000000004 96.5300000000002,61.12199999999996 96.59999999999991,61.174999999999955 L99.01999999999998,63.12800000000004" />
<path d="M100.11000000000013,81.096 C100.73999999999978,81.096 101.26999999999998,81.25800000000004 101.71000000000004,81.58100000000002 C102.09999999999991,81.93499999999995 102.30000000000018,82.37800000000004 102.30000000000018,82.90899999999999 C102.30000000000018,83.80499999999995 101.84000000000015,84.64300000000003 100.92000000000007,85.42499999999995 C99.98999999999978,86.20600000000002 98.98000000000002,86.596 97.90999999999985,86.596 C97.2800000000002,86.596 96.76000000000022,86.43499999999995 96.32999999999993,86.11199999999997 C95.92000000000007,85.75800000000004 95.7199999999998,85.31500000000005 95.7199999999998,84.78399999999999 C95.7199999999998,83.88800000000003 96.19000000000005,83.04999999999995 97.13000000000011,82.26800000000003 C98.03999999999996,81.48699999999997 99.03999999999996,81.096 100.11000000000013,81.096" />
<path d="M100.11000000000013,26.096000000000004 C100.73999999999978,26.096000000000004 101.26999999999998,26.258000000000038 101.71000000000004,26.581000000000017 C102.09999999999991,26.934999999999945 102.30000000000018,27.378000000000043 102.30000000000018,27.908999999999992 C102.30000000000018,28.80499999999995 101.84000000000015,29.64300000000003 100.92000000000007,30.424999999999955 C99.98999999999978,31.206000000000017 98.98000000000002,31.596000000000004 97.90999999999985,31.596000000000004 C97.2800000000002,31.596000000000004 96.76000000000022,31.434999999999945 96.32999999999993,31.111999999999966 C95.92000000000007,30.758000000000038 95.7199999999998,30.315000000000055 95.7199999999998,29.783999999999992 C95.7199999999998,28.888000000000034 96.19000000000005,28.049999999999955 97.13000000000011,27.26800000000003 C98.03999999999996,26.486999999999966 99.03999999999996,26.096000000000004 100.11000000000013,26.096000000000004" />
<path d="M83.13000000000011,16.096000000000004 C83.76000000000022,16.096000000000004 84.28999999999996,16.258000000000038 84.73000000000002,16.581000000000017 C85.11999999999989,16.934999999999945 85.32000000000016,17.378000000000043 85.32000000000016,17.908999999999992 C85.32000000000016,18.80499999999995 84.86000000000013,19.64300000000003 83.94999999999982,20.424999999999955 C83.01000000000022,21.206000000000017 82.0,21.596000000000004 80.92999999999984,21.596000000000004 C80.30999999999995,21.596000000000004 79.7800000000002,21.434999999999945 79.34999999999991,21.111999999999966 C78.94999999999982,20.758000000000038 78.73999999999978,20.315000000000055 78.73999999999978,19.783999999999992 C78.73999999999978,18.888000000000034 79.21000000000004,18.049999999999955 80.15000000000009,17.26800000000003 C81.07000000000016,16.486999999999966 82.05999999999995,16.096000000000004 83.13000000000011,16.096000000000004" />
<path d="M65.05999999999995,63.12800000000004 L67.4699999999998,61.174999999999955 C67.5300000000002,61.12199999999996 67.59000000000015,61.096000000000004 67.63999999999987,61.096000000000004 C67.71000000000004,61.096000000000004 67.7800000000002,61.12199999999996 67.84000000000015,61.174999999999955 L68.25,61.486999999999966 C68.30999999999995,61.549999999999955 68.34000000000015,61.62800000000004 68.34000000000015,61.721000000000004 C68.34000000000015,61.78399999999999 68.30999999999995,61.861999999999966 68.25,61.95600000000002 L65.92000000000007,63.846000000000004 L68.25,65.73699999999997 C68.30999999999995,65.80999999999995 68.34000000000015,65.89099999999996 68.34000000000015,65.97900000000004 C68.34000000000015,66.06799999999998 68.30999999999995,66.14300000000003 68.25,66.20600000000002 L67.84000000000015,66.51800000000003 C67.7800000000002,66.57000000000005 67.71000000000004,66.596 67.63999999999987,66.596 C67.59000000000015,66.596 67.5300000000002,66.57000000000005 67.4699999999998,66.51800000000003 L65.05999999999995,64.56500000000005 L62.63999999999987,66.51800000000003 C62.57999999999993,66.57000000000005 62.51999999999998,66.596 62.4699999999998,66.596 C62.40000000000009,66.596 62.340000000000146,66.57000000000005 62.2800000000002,66.51800000000003 L61.86000000000013,66.20600000000002 C61.80000000000018,66.14300000000003 61.76000000000022,66.06500000000005 61.76000000000022,65.971 C61.76000000000022,65.90899999999999 61.80000000000018,65.83100000000002 61.86000000000013,65.73699999999997 L64.19000000000005,63.846000000000004 L61.86000000000013,61.95600000000002 C61.80000000000018,61.88300000000004 61.76000000000022,61.80200000000002 61.76000000000022,61.714000000000055 C61.76000000000022,61.625 61.80000000000018,61.549999999999955 61.86000000000013,61.486999999999966 L62.2800000000002,61.174999999999955 C62.340000000000146,61.12199999999996 62.40000000000009,61.096000000000004 62.4699999999998,61.096000000000004 C62.51999999999998,61.096000000000004 62.57999999999993,61.12199999999996 62.63999999999987,61.174999999999955 L65.05999999999995,63.12800000000004" />
<path d="M66.15000000000009,71.096 C66.7800000000002,71.096 67.30999999999995,71.25800000000004 67.75,71.58100000000002 C68.13999999999987,71.93499999999995 68.34000000000015,72.37800000000004 68.34000000000015,72.90899999999999 C68.34000000000015,73.80499999999995 67.88000000000011,74.64300000000003 66.9699999999998,75.42499999999995 C66.0300000000002,76.20600000000002 65.01999999999998,76.596 63.94999999999982,76.596 C63.32999999999993,76.596 62.80000000000018,76.43499999999995 62.36999999999989,76.11199999999997 C61.9699999999998,75.75800000000004 61.76000000000022,75.31500000000005 61.76000000000022,74.78399999999999 C61.76000000000022,73.88800000000003 62.23000000000002,73.04999999999995 63.17000000000007,72.26800000000003 C64.09000000000015,71.48699999999997 65.07999999999993,71.096 66.15000000000009,71.096" />
<path d="M66.15000000000009,26.096000000000004 C66.7800000000002,26.096000000000004 67.30999999999995,26.258000000000038 67.75,26.581000000000017 C68.13999999999987,26.934999999999945 68.34000000000015,27.378000000000043 68.34000000000015,27.908999999999992 C68.34000000000015,28.80499999999995 67.88000000000011,29.64300000000003 66.9699999999998,30.424999999999955 C66.0300000000002,31.206000000000017 65.01999999999998,31.596000000000004 63.94999999999982,31.596000000000004 C63.32999999999993,31.596000000000004 62.80000000000018,31.434999999999945 62.36999999999989,31.111999999999966 C61.9699999999998,30.758000000000038 61.76000000000022,30.315000000000055 61.76000000000022,29.783999999999992 C61.76000000000022,28.888000000000034 62.23000000000002,28.049999999999955 63.17000000000007,27.26800000000003 C64.09000000000015,26.486999999999966 65.07999999999993,26.096000000000004 66.15000000000009,26.096000000000004" />
<path d="M40.539999999999964,63.12800000000004 L42.94999999999982,61.174999999999955 C43.01000000000022,61.12199999999996 43.070000000000164,61.096000000000004 43.11999999999989,61.096000000000004 C43.190000000000055,61.096000000000004 43.26000000000022,61.12199999999996 43.320000000000164,61.174999999999955 L43.73000000000002,61.486999999999966 C43.789999999999964,61.549999999999955 43.820000000000164,61.62800000000004 43.820000000000164,61.721000000000004 C43.820000000000164,61.78399999999999 43.789999999999964,61.861999999999966 43.73000000000002,61.95600000000002 L41.40000000000009,63.846000000000004 L43.73000000000002,65.73699999999997 C43.789999999999964,65.80999999999995 43.820000000000164,65.89099999999996 43.820000000000164,65.97900000000004 C43.820000000000164,66.06799999999998 43.789999999999964,66.14300000000003 43.73000000000002,66.20600000000002 L43.320000000000164,66.51800000000003 C43.26000000000022,66.57000000000005 43.190000000000055,66.596 43.11999999999989,66.596 C43.070000000000164,66.596 43.01000000000022,66.57000000000005 42.94999999999982,66.51800000000003 L40.539999999999964,64.56500000000005 L38.11999999999989,66.51800000000003 C38.059999999999945,66.57000000000005 38.0,66.596 37.94999999999982,66.596 C37.88999999999987,66.596 37.820000000000164,66.57000000000005 37.76000000000022,66.51800000000003 L37.340000000000146,66.20600000000002 C37.2800000000002,66.14300000000003 37.25,66.06500000000005 37.25,65.971 C37.25,65.90899999999999 37.2800000000002,65.83100000000002 37.340000000000146,65.73699999999997 L39.67000000000007,63.846000000000004 L37.340000000000146,61.95600000000002 C37.2800000000002,61.88300000000004 37.25,61.80200000000002 37.25,61.714000000000055 C37.25,61.625 37.2800000000002,61.549999999999955 37.340000000000146,61.486999999999966 L37.76000000000022,61.174999999999955 C37.820000000000164,61.12199999999996 37.88999999999987,61.096000000000004 37.94999999999982,61.096000000000004 C38.0,61.096000000000004 38.059999999999945,61.12199999999996 38.11999999999989,61.174999999999955 L40.539999999999964,63.12800000000004" />
<path d="M41.63999999999987,81.096 C42.26000000000022,81.096 42.789999999999964,81.25800000000004 43.23000000000002,81.58100000000002 C43.63000000000011,81.93499999999995 43.820000000000164,82.37800000000004 43.820000000000164,82.90899999999999 C43.820000000000164,83.80499999999995 43.36000000000013,84.64300000000003 42.44999999999982,85.42499999999995 C41.51000000000022,86.20600000000002 40.51000000000022,86.596 39.429999999999836,86.596 C38.809999999999945,86.596 38.2800000000002,86.43499999999995 37.84999999999991,86.11199999999997 C37.44999999999982,85.75800000000004 37.25,85.31500000000005 37.25,84.78399999999999 C37.25,83.88800000000003 37.710000000000036,83.04999999999995 38.65000000000009,82.26800000000003 C39.570000000000164,81.48699999999997 40.559999999999945,81.096 41.63999999999987,81.096" />
<path d="M41.63999999999987,26.096000000000004 C42.26000000000022,26.096000000000004 42.789999999999964,26.258000000000038 43.23000000000002,26.581000000000017 C43.63000000000011,26.934999999999945 43.820000000000164,27.378000000000043 43.820000000000164,27.908999999999992 C43.820000000000164,28.80499999999995 43.36000000000013,29.64300000000003 42.44999999999982,30.424999999999955 C41.51000000000022,31.206000000000017 40.51000000000022,31.596000000000004 39.429999999999836,31.596000000000004 C38.809999999999945,31.596000000000004 38.2800000000002,31.434999999999945 37.84999999999991,31.111999999999966 C37.44999999999982,30.758000000000038 37.25,30.315000000000055 37.25,29.783999999999992 C37.25,28.888000000000034 37.710000000000036,28.049999999999955 38.65000000000009,27.26800000000003 C39.570000000000164,26.486999999999966 40.559999999999945,26.096000000000004 41.63999999999987,26.096000000000004" />
<path d="M16.019999999999982,63.12800000000004 L18.429999999999836,61.174999999999955 C18.48999999999978,61.12199999999996 18.550000000000182,61.096000000000004 18.59999999999991,61.096000000000004 C18.670000000000073,61.096000000000004 18.73999999999978,61.12199999999996 18.800000000000182,61.174999999999955 L19.210000000000036,61.486999999999966 C19.269999999999982,61.549999999999955 19.300000000000182,61.62800000000004 19.300000000000182,61.721000000000004 C19.300000000000182,61.78399999999999 19.269999999999982,61.861999999999966 19.210000000000036,61.95600000000002 L16.88000000000011,63.846000000000004 L19.210000000000036,65.73699999999997 C19.269999999999982,65.80999999999995 19.300000000000182,65.89099999999996 19.300000000000182,65.97900000000004 C19.300000000000182,66.06799999999998 19.269999999999982,66.14300000000003 19.210000000000036,66.20600000000002 L18.800000000000182,66.51800000000003 C18.73999999999978,66.57000000000005 18.670000000000073,66.596 18.59999999999991,66.596 C18.550000000000182,66.596 18.48999999999978,66.57000000000005 18.429999999999836,66.51800000000003 L16.019999999999982,64.56500000000005 L13.599999999999909,66.51800000000003 C13.539999999999964,66.57000000000005 13.480000000000018,66.596 13.429999999999836,66.596 C13.36999999999989,66.596 13.300000000000182,66.57000000000005 13.239999999999782,66.51800000000003 L12.820000000000164,66.20600000000002 C12.760000000000218,66.14300000000003 12.730000000000018,66.06500000000005 12.730000000000018,65.971 C12.730000000000018,65.90899999999999 12.760000000000218,65.83100000000002 12.820000000000164,65.73699999999997 L15.150000000000091,63.846000000000004 L12.820000000000164,61.95600000000002 C12.760000000000218,61.88300000000004 12.730000000000018,61.80200000000002 12.730000000000018,61.714000000000055 C12.730000000000018,61.625 12.760000000000218,61.549999999999955 12.820000000000164,61.486999999999966 L13.239999999999782,61.174999999999955 C13.300000000000182,61.12199999999996 13.36999999999989,61.096000000000004 13.429999999999836,61.096000000000004 C13.480000000000018,61.096000000000004 13.539999999999964,61.12199999999996 13.599999999999909,61.174999999999955 L16.019999999999982,63.12800000000004" />
<path d="M17.11999999999989,71.096 C17.73999999999978,71.096 18.269999999999982,71.25800000000004 18.710000000000036,71.58100000000002 C19.110000000000127,71.93499999999995 19.300000000000182,72.37800000000004 19.300000000000182,72.90899999999999 C19.300000000000182,73.80499999999995 18.84999999999991,74.64300000000003 17.929999999999836,75.42499999999995 C16.98999999999978,76.20600000000002 15.989999999999782,76.596 14.909999999999854,76.596 C14.289999999999964,76.596 13.760000000000218,76.43499999999995 13.340000000000146,76.11199999999997 C12.929999999999836,75.75800000000004 12.730000000000018,75.31500000000005 12.730000000000018,74.78399999999999 C12.730000000000018,73.88800000000003 13.190000000000055,73.04999999999995 14.13000000000011,72.26800000000003 C15.050000000000182,71.48699999999997 16.039999999999964,71.096 17.11999999999989,71.096" />
<path d="M17.11999999999989,81.096 C17.73999999999978,81.096 18.269999999999982,81.25800000000004 18.710000000000036,81.58100000000002 C19.110000000000127,81.93499999999995 19.300000000000182,82.37800000000004 19.300000000000182,82.90899999999999 C19.300000000000182,83.80499999999995 18.84999999999991,84.64300000000003 17.929999999999836,85.42499999999995 C16.98999999999978,86.20600000000002 15.989999999999782,86.596 14.909999999999854,86.596 C14.289999999999964,86.596 13.760000000000218,86.43499999999995 13.340000000000146,86.11199999999997 C12.929999999999836,85.75800000000004 12.730000000000018,85.31500000000005 12.730000000000018,84.78399999999999 C12.730000000000018,83.88800000000003 13.190000000000055,83.04999999999995 14.13000000000011,82.26800000000003 C15.050000000000182,81.48699999999997 16.039999999999964,81.096 17.11999999999989,81.096" />
<path d="M17.11999999999989,26.096000000000004 C17.73999999999978,26.096000000000004 18.269999999999982,26.258000000000038 18.710000000000036,26.581000000000017 C19.110000000000127,26.934999999999945 19.300000000000182,27.378000000000043 19.300000000000182,27.908999999999992 C19.300000000000182,28.80499999999995 18.84999999999991,29.64300000000003 17.929999999999836,30.424999999999955 C16.98999999999978,31.206000000000017 15.989999999999782,31.596000000000004 14.909999999999854,31.596000000000004 C14.289999999999964,31.596000000000004 13.760000000000218,31.434999999999945 13.340000000000146,31.111999999999966 C12.929999999999836,30.758000000000038 12.730000000000018,30.315000000000055 12.730000000000018,29.783999999999992 C12.730000000000018,28.888000000000034 13.190000000000055,28.049999999999955 14.13000000000011,27.26800000000003 C15.050000000000182,26.486999999999966 16.039999999999964,26.096000000000004 17.11999999999989,26.096000000000004" />
<path d="M0.13999999999987267,36.096000000000004 C0.7600000000002183,36.096000000000004 1.2899999999999636,36.25800000000004 1.7300000000000182,36.58100000000002 C2.130000000000109,36.934999999999945 2.3299999999999272,37.37800000000004 2.3299999999999272,37.90899999999999 C2.3299999999999272,38.80499999999995 1.8699999999998909,39.64300000000003 0.9499999999998181,40.424999999999955 C0.010000000000218279,41.20600000000002 -0.9899999999997817,41.596000000000004 -2.0599999999999454,41.596000000000004 C-2.6900000000000546,41.596000000000004 -3.2199999999998,41.434999999999945 -3.6399999999998727,41.111999999999966 C-4.050000000000182,40.75800000000004 -4.25,40.315000000000055 -4.25,39.78399999999999 C-4.25,38.888000000000034 -3.7800000000002,38.049999999999955 -2.849999999999909,37.26800000000003 C-1.9299999999998363,36.486999999999966 -0.9299999999998363,36.096000000000004 0.13999999999987267,36.096000000000004" />
<path d="M193.4000000000001,36.346000000000004 L247.88999999999987,36.346000000000004 L247.88999999999987,38.846000000000004 L193.4000000000001,38.846000000000004 L193.4000000000001,36.346000000000004" />
<path d="M193.4000000000001,32.596000000000004 L247.88999999999987,32.596000000000004 L247.88999999999987,35.096000000000004 L193.4000000000001,35.096000000000004 L193.4000000000001,32.596000000000004" />
<path d="M135.96000000000004,98.846 L229.94000000000005,91.29399999999998 L229.94000000000005,93.79399999999998 L135.96000000000004,101.346 L135.96000000000004,98.846" />
<path d="M61.76000000000022,42.596000000000004 L96.36999999999989,42.596000000000004 L96.36999999999989,45.096000000000004 L61.76000000000022,45.096000000000004 L61.76000000000022,42.596000000000004" />
<path d="M61.76000000000022,38.846000000000004 L79.38999999999987,38.846000000000004 L79.38999999999987,41.346000000000004 L61.76000000000022,41.346000000000004 L61.76000000000022,38.846000000000004" />
<path d="M12.730000000000018,96.346 L96.36999999999989,96.346 L96.36999999999989,98.846 L12.730000000000018,98.846 L12.730000000000018,96.346" />
<path d="M18.659999999999854,12.596000000000004 L43.82999999999993,12.596000000000004 L43.82999999999993,15.096000000000004 L18.659999999999854,15.096000000000004 L18.659999999999854,12.596000000000004" />
<path d="M2.3299999999999272,16.346000000000004 L-4.269999999999982,15.75 L-4.269999999999982,18.25 L2.3299999999999272,18.846000000000004 L2.3299999999999272,16.346000000000004" />
<polyline points="0.0,13.846000000000004 255.0,13.846000000000004" fill="none" stroke="#000000" stroke-width="0.40" />
<polyline points="0.0,18.846000000000004 255.0,18.846000000000004" fill="none" stroke="#000000" stroke-width="0.40" />
<polyline points="0.0,23.846000000000004 255.0,23.846000000000004" fill="none" stroke="#000000" stroke-width="0.40" />
<polyline points="0.0,28.846000000000004 255.0,28.846000000000004" fill="none" stroke="#000000" stroke-width="0.40" />
<polyline points="0.0,33.846000000000004 255.0,33.846000000000004" fill="none" stroke="#000000" stroke-width="0.40" />
<polyline points="0.0,66.346 255.0,66.346" fill="none" stroke="#000000" stroke-width="0.40" />
<polyline points="0.0,71.346 255.0,71.346" fill="none" stroke="#000000" stroke-width="0.40" />
<polyline points="0.0,76.346 255.0,76.346" fill="none" stroke="#000000" stroke-width="0.40" />
<polyline points="0.0,81.346 255.0,81.346" fill="none" stroke="#000000" stroke-width="0.40" />
<polyline points="0.0,86.346 255.0,86.346" fill="none" stroke="#000000" stroke-width="0.40" />
<polyline points="120.63999999999987,66.346 120.63999999999987,86.346" fill="" stroke="#000000" stroke-width="0.80" />
<polyline points="120.63999999999987,13.846000000000004 120.63999999999987,33.846000000000004" fill="" stroke="#000000" stroke-width="0.80" />
<polyline points="247.55999999999995,22.285999999999945 247.55999999999995,37.596000000000004" fill="" stroke="#000000" stroke-width="0.65" />
<polyline points="229.6199999999999,65.90999999999997 229.6199999999999,92.596" fill="" stroke="#000000" stroke-width="0.65" />
<polyline points="229.6199999999999,22.285999999999945 229.6199999999999,37.596000000000004" fill="" stroke="#000000" stroke-width="0.65" />
<polyline points="211.67000000000007,17.285999999999945 211.67000000000007,37.596000000000004" fill="" stroke="#000000" stroke-width="0.65" />
<polyline points="193.7199999999998,65.90999999999997 193.7199999999998,95.481" fill="" stroke="#000000" stroke-width="0.65" />
<polyline points="193.7199999999998,22.285999999999945 193.7199999999998,37.596000000000004" fill="" stroke="#000000" stroke-width="0.65" />
<polyline points="165.0,65.90999999999997 165.0,97.78899999999999" fill="" stroke="#000000" stroke-width="0.65" />
<polyline points="136.28999999999996,65.90999999999997 136.28999999999996,100.096" fill="" stroke="#000000" stroke-width="0.65" />
<polyline points="142.2199999999998,32.90700000000004 142.2199999999998,16.346000000000004" fill="" stroke="#000000" stroke-width="0.65" />
<polyline points="96.05000000000018,65.90999999999997 96.05000000000018,97.596" fill="" stroke="#000000" stroke-width="0.65" />
<polyline points="96.05000000000018,29.785999999999945 96.05000000000018,43.846000000000004" fill="" stroke="#000000" stroke-width="0.65" />
<polyline points="79.07000000000016,19.785999999999945 79.07000000000016,43.846000000000004" fill="" stroke="#000000" stroke-width="0.65" />
<polyline points="62.090000000000146,65.90999999999997 62.090000000000146,97.596" fill="" stroke="#000000" stroke-width="0.65" />
<polyline points="62.090000000000146,29.785999999999945 62.090000000000146,43.846000000000004" fill="" stroke="#000000" stroke-width="0.65" />
<polyline points="37.570000000000164,65.90999999999997 37.570000000000164,97.596" fill="" stroke="#000000" stroke-width="0.65" />
<polyline points="43.5,27.90700000000004 43.5,13.846000000000004" fill="" stroke="#000000" stroke-width="0.65" />
<polyline points="13.050000000000182,65.90999999999997 13.050000000000182,97.596" fill="" stroke="#000000" stroke-width="0.65" />
<polyline points="18.980000000000018,27.90700000000004 18.980000000000018,13.846000000000004" fill="" stroke="#000000" stroke-width="0.65" />
<polyline points="2.0100000000002183,37.90700000000004 2.0100000000002183,13.846000000000004" fill="" stroke="#000000" stroke-width="0.65" />
<polyline points="0.0,38.846000000000004 3.8299999999999272,38.846000000000004" fill="" stroke="#000000" stroke-width="0.80" />
</svg>
