<?xml version="1.0" encoding="UTF-8" standalone="yes"?>
<svg width="256.0px" height="256.0px" xmlns="http://www.w3.org/2000/svg" xmlns:xlink="http://www.w3.org/1999/xlink" version="1.2" baseProfile="tiny">
<path d="M176.70000000000073,25.557999999999993 C176.70000000000073,25.442999999999984 176.79999999999927,25.339000000000055 176.79999999999927,25.245000000000005 C176.79999999999927,25.150999999999954 176.89999999999964,25.019000000000005 177.0,24.84699999999998 C177.0,24.674999999999955 177.10000000000036,24.53200000000004 177.29999999999927,24.41700000000003 C177.39999999999964,24.30200000000002 177.5,24.201000000000022 177.70000000000073,24.111999999999966 C177.89999999999964,24.024 178.10000000000036,23.979000000000042 178.39999999999964,23.979000000000042 C178.79999999999927,23.979000000000042 179.10000000000036,24.11500000000001 179.39999999999964,24.385999999999967 C179.70000000000073,24.65700000000004 179.79999999999927,24.99000000000001 179.79999999999927,25.385999999999967 C179.79999999999927,25.99000000000001 179.5,26.650999999999954 178.79999999999927,27.370000000000005 L177.5,28.79200000000003 L179.39999999999964,28.79200000000003 C179.60000000000036,28.79200000000003 179.70000000000073,28.760999999999967 179.79999999999927,28.69799999999998 C179.89999999999964,28.635999999999967 180.0,28.49000000000001 180.20000000000073,28.260999999999967 L180.29999999999927,28.29200000000003 L179.79999999999927,29.370000000000005 L176.70000000000073,29.370000000000005 L176.70000000000073,29.275999999999954 L178.10000000000036,27.760999999999967 C178.79999999999927,27.03200000000004 179.20000000000073,26.34400000000005 179.20000000000073,25.69799999999998 C179.20000000000073,25.354000000000042 179.10000000000036,25.077999999999975 178.89999999999964,24.870000000000005 C178.60000000000036,24.662000000000035 178.39999999999964,24.557999999999993 178.0,24.557999999999993 C177.79999999999927,24.557999999999993 177.5,24.633000000000038 177.39999999999964,24.783999999999992 C177.20000000000073,24.934999999999945 177.0,25.208999999999946 176.89999999999964,25.604000000000042 L176.70000000000073,25.557999999999993 M181.89999999999964,24.635999999999967 C181.79999999999927,24.635999999999967 181.60000000000036,24.692999999999984 181.29999999999927,24.807999999999993 L181.29999999999927,24.69799999999998 L182.79999999999927,23.964000000000055 L182.79999999999927,23.979000000000042 L182.79999999999927,28.775999999999954 C182.79999999999927,28.974000000000046 182.89999999999964,29.101999999999975 183.0,29.158999999999992 C183.10000000000036,29.216000000000008 183.29999999999927,29.245000000000005 183.60000000000036,29.245000000000005 L183.60000000000036,29.370000000000005 L181.39999999999964,29.370000000000005 L181.39999999999964,29.245000000000005 C181.70000000000073,29.235000000000014 181.89999999999964,29.190000000000055 182.0,29.111999999999966 C182.10000000000036,29.033999999999992 182.20000000000073,28.870000000000005 182.20000000000073,28.620000000000005 L182.20000000000073,25.010999999999967 C182.20000000000073,24.760999999999967 182.10000000000036,24.635999999999967 181.89999999999964,24.635999999999967" />
<path d="M241.39999999999964,25.557999999999993 C241.39999999999964,25.442999999999984 241.39999999999964,25.339000000000055 241.5,25.245000000000005 C241.5,25.150999999999954 241.5,25.019000000000005 241.60000000000036,24.84699999999998 C241.70000000000073,24.674999999999955 241.79999999999927,24.53200000000004 241.89999999999964,24.41700000000003 C242.0,24.30200000000002 242.20000000000073,24.201000000000022 242.39999999999964,24.111999999999966 C242.60000000000036,24.024 242.79999999999927,23.979000000000042 243.0,23.979000000000042 C243.5,23.979000000000042 243.79999999999927,24.11500000000001 244.10000000000036,24.385999999999967 C244.39999999999964,24.65700000000004 244.5,24.99000000000001 244.5,25.385999999999967 C244.5,25.99000000000001 244.20000000000073,26.650999999999954 243.5,27.370000000000005 L242.20000000000073,28.79200000000003 L244.10000000000036,28.79200000000003 C244.20000000000073,28.79200000000003 244.39999999999964,28.760999999999967 244.5,28.69799999999998 C244.60000000000036,28.635999999999967 244.70000000000073,28.49000000000001 244.79999999999927,28.260999999999967 L244.89999999999964,28.29200000000003 L244.5,29.370000000000005 L241.39999999999964,29.370000000000005 L241.39999999999964,29.275999999999954 L242.79999999999927,27.760999999999967 C243.5,27.03200000000004 243.79999999999927,26.34400000000005 243.79999999999927,25.69799999999998 C243.79999999999927,25.354000000000042 243.70000000000073,25.077999999999975 243.5,24.870000000000005 C243.29999999999927,24.662000000000035 243.0,24.557999999999993 242.70000000000073,24.557999999999993 C242.39999999999964,24.557999999999993 242.20000000000073,24.633000000000038 242.0,24.783999999999992 C241.89999999999964,24.934999999999945 241.70000000000073,25.208999999999946 241.60000000000036,25.604000000000042 L241.39999999999964,25.557999999999993 M245.39999999999964,25.557999999999993 C245.39999999999964,25.442999999999984 245.39999999999964,25.339000000000055 245.39999999999964,25.245000000000005 C245.5,25.150999999999954 245.5,25.019000000000005 245.60000000000036,24.84699999999998 C245.70000000000073,24.674999999999955 245.79999999999927,24.53200000000004 245.89999999999964,24.41700000000003 C246.0,24.30200000000002 246.20000000000073,24.201000000000022 246.39999999999964,24.111999999999966 C246.60000000000036,24.024 246.79999999999927,23.979000000000042 247.0,23.979000000000042 C247.39999999999964,23.979000000000042 247.79999999999927,24.11500000000001 248.10000000000036,24.385999999999967 C248.29999999999927,24.65700000000004 248.5,24.99000000000001 248.5,25.385999999999967 C248.5,25.99000000000001 248.20000000000073,26.650999999999954 247.5,27.370000000000005 L246.10000000000036,28.79200000000003 L248.0,28.79200000000003 C248.20000000000073,28.79200000000003 248.39999999999964,28.760999999999967 248.5,28.69799999999998 C248.5,28.635999999999967 248.70000000000073,28.49000000000001 248.79999999999927,28.260999999999967 L248.89999999999964,28.29200000000003 L248.5,29.370000000000005 L245.29999999999927,29.370000000000005 L245.29999999999927,29.275999999999954 L246.79999999999927,27.760999999999967 C247.5,27.03200000000004 247.79999999999927,26.34400000000005 247.79999999999927,25.69799999999998 C247.79999999999927,25.354000000000042 247.70000000000073,25.077999999999975 247.5,24.870000000000005 C247.29999999999927,24.662000000000035 247.0,24.557999999999993 246.70000000000073,24.557999999999993 C246.39999999999964,24.557999999999993 246.20000000000073,24.633000000000038 246.0,24.783999999999992 C245.89999999999964,24.934999999999945 245.70000000000073,25.208999999999946 245.5,25.604000000000042 L245.39999999999964,25.557999999999993" />
</svg>
