<?xml version="1.0" encoding="UTF-8" standalone="yes"?>
<svg width="256.0px" height="256.0px" xmlns="http://www.w3.org/2000/svg" xmlns:xlink="http://www.w3.org/1999/xlink" version="1.2" baseProfile="tiny">
<path d="M100.52000000000044,80.096 C103.18000000000029,77.67700000000002 111.14999999999964,77.67700000000002 113.8100000000004,80.096 C111.14999999999964,78.47699999999998 103.18000000000029,78.47699999999998 100.52000000000044,80.096" />
<path d="M45.44999999999982,15.096000000000004 C52.399999999999636,9.416000000000054 73.23999999999978,9.416000000000054 80.1899999999996,15.096000000000004 C73.23999999999978,10.216000000000008 52.399999999999636,10.216000000000008 45.44999999999982,15.096000000000004" />
<path d="M247.97000000000025,40.08100000000002 C247.97000000000025,40.33100000000002 247.85000000000036,40.45600000000002 247.60999999999967,40.45600000000002 C247.35999999999967,40.45600000000002 247.23999999999978,40.33100000000002 247.23999999999978,40.08100000000002 L247.23999999999978,37.190000000000055 L245.57999999999993,37.815000000000055 L245.57999999999993,40.971000000000004 C245.57999999999993,41.221000000000004 245.46000000000004,41.346000000000004 245.21000000000004,41.346000000000004 C244.96000000000004,41.346000000000004 244.82999999999993,41.221000000000004 244.82999999999993,40.971000000000004 L244.82999999999993,38.065000000000055 L244.21000000000004,38.299999999999955 C244.19999999999982,38.309999999999945 244.14999999999964,38.315000000000055 244.05000000000018,38.315000000000055 C243.94999999999982,38.315000000000055 243.85999999999967,38.275999999999954 243.77999999999975,38.19799999999998 C243.69999999999982,38.120000000000005 243.65999999999985,38.028999999999996 243.65999999999985,37.924999999999955 L243.65999999999985,36.721000000000004 C243.65999999999985,36.524 243.75,36.399 243.90999999999985,36.346000000000004 L244.82999999999993,36.03399999999999 L244.82999999999993,32.83100000000002 L244.21000000000004,33.049999999999955 C244.19999999999982,33.059999999999945 244.14999999999964,33.065000000000055 244.05000000000018,33.065000000000055 C243.94999999999982,33.065000000000055 243.85999999999967,33.025999999999954 243.77999999999975,32.94799999999998 C243.69999999999982,32.870000000000005 243.65999999999985,32.778999999999996 243.65999999999985,32.674999999999955 L243.65999999999985,31.456000000000017 C243.65999999999985,31.278999999999996 243.75,31.163999999999987 243.90999999999985,31.111999999999966 L244.82999999999993,30.753000000000043 L244.82999999999993,27.611999999999966 C244.82999999999993,27.361999999999966 244.96000000000004,27.236999999999966 245.21000000000004,27.236999999999966 C245.46000000000004,27.236999999999966 245.57999999999993,27.361999999999966 245.57999999999993,27.611999999999966 L245.57999999999993,30.503000000000043 L247.23999999999978,29.878000000000043 L247.23999999999978,26.721000000000004 C247.23999999999978,26.471000000000004 247.35999999999967,26.346000000000004 247.60999999999967,26.346000000000004 C247.85000000000036,26.346000000000004 247.97000000000025,26.471000000000004 247.97000000000025,26.721000000000004 L247.97000000000025,29.628000000000043 L248.6300000000001,29.39300000000003 C248.64000000000033,29.383000000000038 248.6800000000003,29.378000000000043 248.76000000000022,29.378000000000043 C248.85000000000036,29.378000000000043 248.94999999999982,29.413999999999987 249.05000000000018,29.486999999999966 C249.14000000000033,29.57000000000005 249.1800000000003,29.663999999999987 249.1800000000003,29.76800000000003 L249.1800000000003,30.971000000000004 C249.1800000000003,31.158999999999992 249.07999999999993,31.283999999999992 248.89999999999964,31.346000000000004 L247.97000000000025,31.658999999999992 L247.97000000000025,34.861999999999966 L248.6300000000001,34.64300000000003 C248.64000000000033,34.63300000000004 248.6800000000003,34.62800000000004 248.76000000000022,34.62800000000004 C248.85000000000036,34.62800000000004 248.94999999999982,34.66899999999998 249.05000000000018,34.75300000000004 C249.14000000000033,34.82600000000002 249.1800000000003,34.91399999999999 249.1800000000003,35.01800000000003 L249.1800000000003,36.236999999999966 C249.1800000000003,36.403999999999996 249.07999999999993,36.51800000000003 248.89999999999964,36.58100000000002 L247.97000000000025,36.940000000000055 L247.97000000000025,40.08100000000002 M247.23999999999978,31.956000000000017 L245.57999999999993,32.53399999999999 L245.57999999999993,35.736999999999966 L247.23999999999978,35.15899999999999 L247.23999999999978,31.956000000000017" />
<path d="M111.19999999999982,0.08100000000001728 C111.19999999999982,0.3310000000000173 111.07999999999993,0.4560000000000173 110.84000000000015,0.4560000000000173 C110.59000000000015,0.4560000000000173 110.47000000000025,0.3310000000000173 110.47000000000025,0.08100000000001728 L110.47000000000025,-2.8100000000000023 L108.8100000000004,-2.1850000000000023 L108.8100000000004,0.9710000000000036 C108.8100000000004,1.2210000000000036 108.6899999999996,1.3460000000000036 108.4399999999996,1.3460000000000036 C108.1899999999996,1.3460000000000036 108.0600000000004,1.2210000000000036 108.0600000000004,0.9710000000000036 L108.0600000000004,-1.9350000000000023 L107.4399999999996,-1.6999999999999886 C107.43000000000029,-1.6899999999999977 107.38000000000011,-1.6850000000000023 107.27999999999975,-1.6850000000000023 C107.18000000000029,-1.6850000000000023 107.09000000000015,-1.7239999999999895 107.01000000000022,-1.802000000000021 C106.93000000000029,-1.8799999999999955 106.89000000000033,-1.9710000000000036 106.89000000000033,-2.0749999999999886 L106.89000000000033,-3.2789999999999964 C106.89000000000033,-3.475999999999999 106.97999999999956,-3.600999999999999 107.14000000000033,-3.6539999999999964 L108.0600000000004,-3.966000000000008 L108.0600000000004,-7.168999999999983 L107.4399999999996,-6.949999999999989 C107.43000000000029,-6.939999999999998 107.38000000000011,-6.935000000000002 107.27999999999975,-6.935000000000002 C107.18000000000029,-6.935000000000002 107.09000000000015,-6.9739999999999895 107.01000000000022,-7.052000000000021 C106.93000000000029,-7.1299999999999955 106.89000000000033,-7.221000000000004 106.89000000000033,-7.324999999999989 L106.89000000000033,-8.543999999999983 C106.89000000000033,-8.721000000000004 106.97999999999956,-8.836000000000013 107.14000000000033,-8.887999999999977 L108.0600000000004,-9.247000000000014 L108.0600000000004,-12.387999999999977 C108.0600000000004,-12.637999999999977 108.1899999999996,-12.762999999999977 108.4399999999996,-12.762999999999977 C108.6899999999996,-12.762999999999977 108.8100000000004,-12.637999999999977 108.8100000000004,-12.387999999999977 L108.8100000000004,-9.497000000000014 L110.47000000000025,-10.122000000000014 L110.47000000000025,-13.278999999999996 C110.47000000000025,-13.528999999999996 110.59000000000015,-13.653999999999996 110.84000000000015,-13.653999999999996 C111.07999999999993,-13.653999999999996 111.19999999999982,-13.528999999999996 111.19999999999982,-13.278999999999996 L111.19999999999982,-10.372000000000014 L111.85999999999967,-10.607000000000028 C111.86999999999989,-10.617000000000019 111.90999999999985,-10.622000000000014 111.98999999999978,-10.622000000000014 C112.07999999999993,-10.622000000000014 112.18000000000029,-10.586000000000013 112.27999999999975,-10.512999999999977 C112.36999999999989,-10.430000000000007 112.40999999999985,-10.336000000000013 112.40999999999985,-10.232000000000028 L112.40999999999985,-9.028999999999996 C112.40999999999985,-8.841000000000008 112.3100000000004,-8.716000000000008 112.13000000000011,-8.653999999999996 L111.19999999999982,-8.341000000000008 L111.19999999999982,-5.137999999999977 L111.85999999999967,-5.357000000000028 C111.86999999999989,-5.367000000000019 111.90999999999985,-5.372000000000014 111.98999999999978,-5.372000000000014 C112.07999999999993,-5.372000000000014 112.18000000000029,-5.331000000000017 112.27999999999975,-5.247000000000014 C112.36999999999989,-5.173999999999978 112.40999999999985,-5.086000000000013 112.40999999999985,-4.982000000000028 L112.40999999999985,-3.762999999999977 C112.40999999999985,-3.5960000000000036 112.3100000000004,-3.4820000000000277 112.13000000000011,-3.4189999999999827 L111.19999999999982,-3.0600000000000023 L111.19999999999982,0.08100000000001728 M110.47000000000025,-8.043999999999983 L108.8100000000004,-7.466000000000008 L108.8100000000004,-4.262999999999977 L110.47000000000025,-4.841000000000008 L110.47000000000025,-8.043999999999983" />
<path d="M91.63000000000011,28.01800000000003 L91.63000000000011,29.565000000000055 C91.63000000000011,30.116999999999962 91.65999999999985,30.55499999999995 91.71000000000004,30.878000000000043 C92.14000000000033,30.513000000000034 92.4399999999996,30.241999999999962 92.63000000000011,30.065000000000055 C92.84000000000015,29.85699999999997 93.05000000000018,29.567999999999984 93.25,29.19799999999998 C93.46000000000004,28.827999999999975 93.56999999999971,28.461000000000013 93.56999999999971,28.096000000000004 C93.56999999999971,27.73199999999997 93.48999999999978,27.418999999999983 93.32999999999993,27.158999999999992 C93.18000000000029,26.899 92.97000000000025,26.76800000000003 92.71000000000004,26.76800000000003 C92.39999999999964,26.76800000000003 92.14000000000033,26.888000000000034 91.93000000000029,27.128000000000043 C91.72999999999956,27.388000000000034 91.63000000000011,27.684999999999945 91.63000000000011,28.01800000000003 M90.80000000000018,31.596000000000004 L90.55000000000018,19.706000000000017 C90.73999999999978,19.601999999999975 90.92000000000007,19.549999999999955 91.10999999999967,19.549999999999955 C91.28999999999996,19.549999999999955 91.47000000000025,19.601999999999975 91.64999999999964,19.706000000000017 L91.48999999999978,26.596000000000004 C92.02000000000044,26.138000000000034 92.64000000000033,25.908999999999992 93.32999999999993,25.908999999999992 C93.82999999999993,25.908999999999992 94.25,26.116999999999962 94.59000000000015,26.533999999999992 C94.93000000000029,26.951000000000022 95.10000000000036,27.42999999999995 95.10000000000036,27.971000000000004 C95.10000000000036,28.30499999999995 94.98999999999978,28.663999999999987 94.77000000000044,29.049999999999955 C94.5600000000004,29.39300000000003 94.34000000000015,29.663999999999987 94.10999999999967,29.861999999999966 C93.97999999999956,29.966000000000008 93.64999999999964,30.226999999999975 93.10999999999967,30.64300000000003 C92.96000000000004,30.758000000000038 92.77000000000044,30.89300000000003 92.5600000000004,31.049999999999955 C92.35000000000036,31.206000000000017 92.21000000000004,31.30499999999995 92.15999999999985,31.346000000000004 C92.06999999999971,31.399 91.97999999999956,31.503000000000043 91.89999999999964,31.658999999999992 C91.8100000000004,31.793999999999983 91.71000000000004,31.903999999999996 91.57999999999993,31.986999999999966 C91.5,32.07000000000005 91.39000000000033,32.111999999999966 91.26000000000022,32.111999999999966 C91.13000000000011,32.111999999999966 91.02999999999975,32.065000000000055 90.9399999999996,31.971000000000004 C90.85000000000036,31.878000000000043 90.80000000000018,31.753000000000043 90.80000000000018,31.596000000000004" />
<path d="M254.65999999999985,31.096000000000004 C255.28999999999996,31.096000000000004 255.8199999999997,31.258000000000038 256.25,31.581000000000017 C256.64999999999964,31.934999999999945 256.85000000000036,32.37800000000004 256.85000000000036,32.90899999999999 C256.85000000000036,33.80499999999995 256.3900000000003,34.64300000000003 255.47000000000025,35.424999999999955 C254.53999999999996,36.20600000000002 253.52999999999975,36.596000000000004 252.46000000000004,36.596000000000004 C251.82999999999993,36.596000000000004 251.3100000000004,36.434999999999945 250.8800000000001,36.111999999999966 C250.47000000000025,35.75800000000004 250.27000000000044,35.315000000000055 250.27000000000044,34.78399999999999 C250.27000000000044,33.888000000000034 250.73999999999978,33.049999999999955 251.6800000000003,32.26800000000003 C252.59000000000015,31.486999999999966 253.59000000000015,31.096000000000004 254.65999999999985,31.096000000000004" />
<path d="M238.07999999999993,63.12800000000004 L240.47999999999956,61.174999999999955 C240.55000000000018,61.12199999999996 240.60000000000036,61.096000000000004 240.65999999999985,61.096000000000004 C240.72999999999956,61.096000000000004 240.80000000000018,61.12199999999996 240.85999999999967,61.174999999999955 L241.26000000000022,61.486999999999966 C241.32999999999993,61.549999999999955 241.35999999999967,61.62800000000004 241.35999999999967,61.721000000000004 C241.35999999999967,61.78399999999999 241.32999999999993,61.861999999999966 241.26000000000022,61.95600000000002 L238.9399999999996,63.846000000000004 L241.26000000000022,65.73699999999997 C241.32999999999993,65.80999999999995 241.35999999999967,65.89099999999996 241.35999999999967,65.97900000000004 C241.35999999999967,66.06799999999998 241.32999999999993,66.14300000000003 241.26000000000022,66.20600000000002 L240.85999999999967,66.51800000000003 C240.80000000000018,66.57000000000005 240.72999999999956,66.596 240.65999999999985,66.596 C240.60000000000036,66.596 240.55000000000018,66.57000000000005 240.47999999999956,66.51800000000003 L238.07999999999993,64.56500000000005 L235.65999999999985,66.51800000000003 C235.59000000000015,66.57000000000005 235.53999999999996,66.596 235.47999999999956,66.596 C235.42000000000007,66.596 235.35999999999967,66.57000000000005 235.30000000000018,66.51800000000003 L234.8699999999999,66.20600000000002 C234.8100000000004,66.14300000000003 234.77999999999975,66.06500000000005 234.77999999999975,65.971 C234.77999999999975,65.90899999999999 234.8100000000004,65.83100000000002 234.8699999999999,65.73699999999997 L237.19999999999982,63.846000000000004 L234.8699999999999,61.95600000000002 C234.8100000000004,61.88300000000004 234.77999999999975,61.80200000000002 234.77999999999975,61.714000000000055 C234.77999999999975,61.625 234.8100000000004,61.549999999999955 234.8699999999999,61.486999999999966 L235.30000000000018,61.174999999999955 C235.35999999999967,61.12199999999996 235.42000000000007,61.096000000000004 235.47999999999956,61.096000000000004 C235.53999999999996,61.096000000000004 235.59000000000015,61.12199999999996 235.65999999999985,61.174999999999955 L238.07999999999993,63.12800000000004" />
<path d="M213.28999999999996,63.12800000000004 L215.69999999999982,61.174999999999955 C215.76000000000022,61.12199999999996 215.8199999999997,61.096000000000004 215.8699999999999,61.096000000000004 C215.9399999999996,61.096000000000004 216.01000000000022,61.12199999999996 216.07999999999993,61.174999999999955 L216.47999999999956,61.486999999999966 C216.53999999999996,61.549999999999955 216.57999999999993,61.62800000000004 216.57999999999993,61.721000000000004 C216.57999999999993,61.78399999999999 216.53999999999996,61.861999999999966 216.47999999999956,61.95600000000002 L214.14999999999964,63.846000000000004 L216.47999999999956,65.73699999999997 C216.53999999999996,65.80999999999995 216.57999999999993,65.89099999999996 216.57999999999993,65.97900000000004 C216.57999999999993,66.06799999999998 216.53999999999996,66.14300000000003 216.47999999999956,66.20600000000002 L216.07999999999993,66.51800000000003 C216.01000000000022,66.57000000000005 215.9399999999996,66.596 215.8699999999999,66.596 C215.8199999999997,66.596 215.76000000000022,66.57000000000005 215.69999999999982,66.51800000000003 L213.28999999999996,64.56500000000005 L210.8699999999999,66.51800000000003 C210.8100000000004,66.57000000000005 210.75,66.596 210.69999999999982,66.596 C210.64000000000033,66.596 210.57999999999993,66.57000000000005 210.51000000000022,66.51800000000003 L210.09000000000015,66.20600000000002 C210.02999999999975,66.14300000000003 210.0,66.06500000000005 210.0,65.971 C210.0,65.90899999999999 210.02999999999975,65.83100000000002 210.09000000000015,65.73699999999997 L212.42000000000007,63.846000000000004 L210.09000000000015,61.95600000000002 C210.02999999999975,61.88300000000004 210.0,61.80200000000002 210.0,61.714000000000055 C210.0,61.625 210.02999999999975,61.549999999999955 210.09000000000015,61.486999999999966 L210.51000000000022,61.174999999999955 C210.57999999999993,61.12199999999996 210.64000000000033,61.096000000000004 210.69999999999982,61.096000000000004 C210.75,61.096000000000004 210.8100000000004,61.12199999999996 210.8699999999999,61.174999999999955 L213.28999999999996,63.12800000000004" />
<path d="M214.39000000000033,71.096 C215.01000000000022,71.096 215.53999999999996,71.25800000000004 215.97999999999956,71.58100000000002 C216.3800000000001,71.93499999999995 216.57999999999993,72.37800000000004 216.57999999999993,72.90899999999999 C216.57999999999993,73.80499999999995 216.1199999999999,74.64300000000003 215.19999999999982,75.42499999999995 C214.26000000000022,76.20600000000002 213.26000000000022,76.596 212.1800000000003,76.596 C211.5600000000004,76.596 211.02999999999975,76.43499999999995 210.60999999999967,76.11199999999997 C210.19999999999982,75.75800000000004 210.0,75.31500000000005 210.0,74.78399999999999 C210.0,73.88800000000003 210.47000000000025,73.04999999999995 211.39999999999964,72.26800000000003 C212.3199999999997,71.48699999999997 213.3100000000004,71.096 214.39000000000033,71.096" />
<path d="M214.39000000000033,6.096000000000004 C215.01000000000022,6.096000000000004 215.53999999999996,6.258000000000038 215.97999999999956,6.581000000000017 C216.3800000000001,6.934999999999945 216.57999999999993,7.378000000000043 216.57999999999993,7.908999999999992 C216.57999999999993,8.80499999999995 216.1199999999999,9.643000000000029 215.19999999999982,10.424999999999955 C214.26000000000022,11.206000000000017 213.26000000000022,11.596000000000004 212.1800000000003,11.596000000000004 C211.5600000000004,11.596000000000004 211.02999999999975,11.434999999999945 210.60999999999967,11.111999999999966 C210.19999999999982,10.758000000000038 210.0,10.315000000000055 210.0,9.783999999999992 C210.0,8.888000000000034 210.47000000000025,8.049999999999955 211.39999999999964,7.268000000000029 C212.3199999999997,6.486999999999966 213.3100000000004,6.096000000000004 214.39000000000033,6.096000000000004" />
<path d="M188.51000000000022,63.12800000000004 L190.92000000000007,61.174999999999955 C190.97999999999956,61.12199999999996 191.03999999999996,61.096000000000004 191.09000000000015,61.096000000000004 C191.15999999999985,61.096000000000004 191.22999999999956,61.12199999999996 191.28999999999996,61.174999999999955 L191.69999999999982,61.486999999999966 C191.76000000000022,61.549999999999955 191.78999999999996,61.62800000000004 191.78999999999996,61.721000000000004 C191.78999999999996,61.78399999999999 191.76000000000022,61.861999999999966 191.69999999999982,61.95600000000002 L189.3699999999999,63.846000000000004 L191.69999999999982,65.73699999999997 C191.76000000000022,65.80999999999995 191.78999999999996,65.89099999999996 191.78999999999996,65.97900000000004 C191.78999999999996,66.06799999999998 191.76000000000022,66.14300000000003 191.69999999999982,66.20600000000002 L191.28999999999996,66.51800000000003 C191.22999999999956,66.57000000000005 191.15999999999985,66.596 191.09000000000015,66.596 C191.03999999999996,66.596 190.97999999999956,66.57000000000005 190.92000000000007,66.51800000000003 L188.51000000000022,64.56500000000005 L186.09000000000015,66.51800000000003 C186.02999999999975,66.57000000000005 185.97000000000025,66.596 185.92000000000007,66.596 C185.85000000000036,66.596 185.78999999999996,66.57000000000005 185.72999999999956,66.51800000000003 L185.3100000000004,66.20600000000002 C185.23999999999978,66.14300000000003 185.21000000000004,66.06500000000005 185.21000000000004,65.971 C185.21000000000004,65.90899999999999 185.23999999999978,65.83100000000002 185.3100000000004,65.73699999999997 L187.64000000000033,63.846000000000004 L185.3100000000004,61.95600000000002 C185.23999999999978,61.88300000000004 185.21000000000004,61.80200000000002 185.21000000000004,61.714000000000055 C185.21000000000004,61.625 185.23999999999978,61.549999999999955 185.3100000000004,61.486999999999966 L185.72999999999956,61.174999999999955 C185.78999999999996,61.12199999999996 185.85000000000036,61.096000000000004 185.92000000000007,61.096000000000004 C185.97000000000025,61.096000000000004 186.02999999999975,61.12199999999996 186.09000000000015,61.174999999999955 L188.51000000000022,63.12800000000004" />
<path d="M189.60000000000036,81.096 C190.22999999999956,81.096 190.76000000000022,81.25800000000004 191.19999999999982,81.58100000000002 C191.59000000000015,81.93499999999995 191.78999999999996,82.37800000000004 191.78999999999996,82.90899999999999 C191.78999999999996,83.80499999999995 191.32999999999993,84.64300000000003 190.42000000000007,85.42499999999995 C189.47999999999956,86.20600000000002 188.47000000000025,86.596 187.39999999999964,86.596 C186.77999999999975,86.596 186.25,86.43499999999995 185.8199999999997,86.11199999999997 C185.42000000000007,85.75800000000004 185.21000000000004,85.31500000000005 185.21000000000004,84.78399999999999 C185.21000000000004,83.88800000000003 185.6800000000003,83.04999999999995 186.6199999999999,82.26800000000003 C187.53999999999996,81.48699999999997 188.52999999999975,81.096 189.60000000000036,81.096" />
<path d="M189.60000000000036,23.596000000000004 C190.22999999999956,23.596000000000004 190.76000000000022,23.758000000000038 191.19999999999982,24.081000000000017 C191.59000000000015,24.434999999999945 191.78999999999996,24.878000000000043 191.78999999999996,25.408999999999992 C191.78999999999996,26.30499999999995 191.32999999999993,27.14300000000003 190.42000000000007,27.924999999999955 C189.47999999999956,28.706000000000017 188.47000000000025,29.096000000000004 187.39999999999964,29.096000000000004 C186.77999999999975,29.096000000000004 186.25,28.934999999999945 185.8199999999997,28.611999999999966 C185.42000000000007,28.258000000000038 185.21000000000004,27.815000000000055 185.21000000000004,27.283999999999992 C185.21000000000004,26.388000000000034 185.6800000000003,25.549999999999955 186.6199999999999,24.76800000000003 C187.53999999999996,23.986999999999966 188.52999999999975,23.596000000000004 189.60000000000036,23.596000000000004" />
<path d="M163.72999999999956,63.12800000000004 L166.1300000000001,61.174999999999955 C166.19999999999982,61.12199999999996 166.25,61.096000000000004 166.30000000000018,61.096000000000004 C166.3800000000001,61.096000000000004 166.44999999999982,61.12199999999996 166.51000000000022,61.174999999999955 L166.90999999999985,61.486999999999966 C166.97999999999956,61.549999999999955 167.01000000000022,61.62800000000004 167.01000000000022,61.721000000000004 C167.01000000000022,61.78399999999999 166.97999999999956,61.861999999999966 166.90999999999985,61.95600000000002 L164.59000000000015,63.846000000000004 L166.90999999999985,65.73699999999997 C166.97999999999956,65.80999999999995 167.01000000000022,65.89099999999996 167.01000000000022,65.97900000000004 C167.01000000000022,66.06799999999998 166.97999999999956,66.14300000000003 166.90999999999985,66.20600000000002 L166.51000000000022,66.51800000000003 C166.44999999999982,66.57000000000005 166.3800000000001,66.596 166.30000000000018,66.596 C166.25,66.596 166.19999999999982,66.57000000000005 166.1300000000001,66.51800000000003 L163.72999999999956,64.56500000000005 L161.30000000000018,66.51800000000003 C161.23999999999978,66.57000000000005 161.1800000000003,66.596 161.1300000000001,66.596 C161.0699999999997,66.596 161.01000000000022,66.57000000000005 160.94999999999982,66.51800000000003 L160.52000000000044,66.20600000000002 C160.46000000000004,66.14300000000003 160.4300000000003,66.06500000000005 160.4300000000003,65.971 C160.4300000000003,65.90899999999999 160.46000000000004,65.83100000000002 160.52000000000044,65.73699999999997 L162.85000000000036,63.846000000000004 L160.52000000000044,61.95600000000002 C160.46000000000004,61.88300000000004 160.4300000000003,61.80200000000002 160.4300000000003,61.714000000000055 C160.4300000000003,61.625 160.46000000000004,61.549999999999955 160.52000000000044,61.486999999999966 L160.94999999999982,61.174999999999955 C161.01000000000022,61.12199999999996 161.0699999999997,61.096000000000004 161.1300000000001,61.096000000000004 C161.1800000000003,61.096000000000004 161.23999999999978,61.12199999999996 161.30000000000018,61.174999999999955 L163.72999999999956,63.12800000000004" />
<path d="M164.8199999999997,81.096 C165.44999999999982,81.096 165.97999999999956,81.25800000000004 166.40999999999985,81.58100000000002 C166.8100000000004,81.93499999999995 167.01000000000022,82.37800000000004 167.01000000000022,82.90899999999999 C167.01000000000022,83.80499999999995 166.55000000000018,84.64300000000003 165.6300000000001,85.42499999999995 C164.69999999999982,86.20600000000002 163.6899999999996,86.596 162.6199999999999,86.596 C161.98999999999978,86.596 161.47000000000025,86.43499999999995 161.03999999999996,86.11199999999997 C160.6300000000001,85.75800000000004 160.4300000000003,85.31500000000005 160.4300000000003,84.78399999999999 C160.4300000000003,83.88800000000003 160.89999999999964,83.04999999999995 161.84000000000015,82.26800000000003 C162.75,81.48699999999997 163.75,81.096 164.8199999999997,81.096" />
<path d="M164.8199999999997,23.596000000000004 C165.44999999999982,23.596000000000004 165.97999999999956,23.758000000000038 166.40999999999985,24.081000000000017 C166.8100000000004,24.434999999999945 167.01000000000022,24.878000000000043 167.01000000000022,25.408999999999992 C167.01000000000022,26.30499999999995 166.55000000000018,27.14300000000003 165.6300000000001,27.924999999999955 C164.69999999999982,28.706000000000017 163.6899999999996,29.096000000000004 162.6199999999999,29.096000000000004 C161.98999999999978,29.096000000000004 161.47000000000025,28.934999999999945 161.03999999999996,28.611999999999966 C160.6300000000001,28.258000000000038 160.4300000000003,27.815000000000055 160.4300000000003,27.283999999999992 C160.4300000000003,26.388000000000034 160.89999999999964,25.549999999999955 161.84000000000015,24.76800000000003 C162.75,23.986999999999966 163.75,23.596000000000004 164.8199999999997,23.596000000000004" />
<path d="M137.35000000000036,26.096000000000004 C137.97000000000025,26.096000000000004 138.5,26.258000000000038 138.9399999999996,26.581000000000017 C139.34000000000015,26.934999999999945 139.53999999999996,27.378000000000043 139.53999999999996,27.908999999999992 C139.53999999999996,28.80499999999995 139.07999999999993,29.64300000000003 138.15999999999985,30.424999999999955 C137.22000000000025,31.206000000000017 136.22000000000025,31.596000000000004 135.14000000000033,31.596000000000004 C134.52000000000044,31.596000000000004 133.98999999999978,31.434999999999945 133.5699999999997,31.111999999999966 C133.15999999999985,30.758000000000038 132.96000000000004,30.315000000000055 132.96000000000004,29.783999999999992 C132.96000000000004,28.888000000000034 133.4300000000003,28.049999999999955 134.35999999999967,27.26800000000003 C135.27999999999975,26.486999999999966 136.27999999999975,26.096000000000004 137.35000000000036,26.096000000000004" />
<path d="M117.89999999999964,63.12800000000004 L120.30000000000018,61.174999999999955 C120.36999999999989,61.12199999999996 120.42000000000007,61.096000000000004 120.47000000000025,61.096000000000004 C120.55000000000018,61.096000000000004 120.61999999999989,61.12199999999996 120.68000000000029,61.174999999999955 L121.07999999999993,61.486999999999966 C121.14999999999964,61.549999999999955 121.18000000000029,61.62800000000004 121.18000000000029,61.721000000000004 C121.18000000000029,61.78399999999999 121.14999999999964,61.861999999999966 121.07999999999993,61.95600000000002 L118.76000000000022,63.846000000000004 L121.07999999999993,65.73699999999997 C121.14999999999964,65.80999999999995 121.18000000000029,65.89099999999996 121.18000000000029,65.97900000000004 C121.18000000000029,66.06799999999998 121.14999999999964,66.14300000000003 121.07999999999993,66.20600000000002 L120.68000000000029,66.51800000000003 C120.61999999999989,66.57000000000005 120.55000000000018,66.596 120.47000000000025,66.596 C120.42000000000007,66.596 120.36999999999989,66.57000000000005 120.30000000000018,66.51800000000003 L117.89999999999964,64.56500000000005 L115.47000000000025,66.51800000000003 C115.40999999999985,66.57000000000005 115.35999999999967,66.596 115.30000000000018,66.596 C115.23999999999978,66.596 115.18000000000029,66.57000000000005 115.11999999999989,66.51800000000003 L114.6899999999996,66.20600000000002 C114.63000000000011,66.14300000000003 114.60000000000036,66.06500000000005 114.60000000000036,65.971 C114.60000000000036,65.90899999999999 114.63000000000011,65.83100000000002 114.6899999999996,65.73699999999997 L117.02000000000044,63.846000000000004 L114.6899999999996,61.95600000000002 C114.63000000000011,61.88300000000004 114.60000000000036,61.80200000000002 114.60000000000036,61.714000000000055 C114.60000000000036,61.625 114.63000000000011,61.549999999999955 114.6899999999996,61.486999999999966 L115.11999999999989,61.174999999999955 C115.18000000000029,61.12199999999996 115.23999999999978,61.096000000000004 115.30000000000018,61.096000000000004 C115.35999999999967,61.096000000000004 115.40999999999985,61.12199999999996 115.47000000000025,61.174999999999955 L117.89999999999964,63.12800000000004" />
<path d="M118.98999999999978,71.096 C119.61999999999989,71.096 120.14999999999964,71.25800000000004 120.57999999999993,71.58100000000002 C120.97999999999956,71.93499999999995 121.18000000000029,72.37800000000004 121.18000000000029,72.90899999999999 C121.18000000000029,73.80499999999995 120.72000000000025,74.64300000000003 119.80000000000018,75.42499999999995 C118.86999999999989,76.20600000000002 117.85999999999967,76.596 116.78999999999996,76.596 C116.15999999999985,76.596 115.64000000000033,76.43499999999995 115.21000000000004,76.11199999999997 C114.80000000000018,75.75800000000004 114.60000000000036,75.31500000000005 114.60000000000036,74.78399999999999 C114.60000000000036,73.88800000000003 115.06999999999971,73.04999999999995 116.01000000000022,72.26800000000003 C116.92000000000007,71.48699999999997 117.92000000000007,71.096 118.98999999999978,71.096" />
<path d="M118.98999999999978,81.096 C119.61999999999989,81.096 120.14999999999964,81.25800000000004 120.57999999999993,81.58100000000002 C120.97999999999956,81.93499999999995 121.18000000000029,82.37800000000004 121.18000000000029,82.90899999999999 C121.18000000000029,83.80499999999995 120.72000000000025,84.64300000000003 119.80000000000018,85.42499999999995 C118.86999999999989,86.20600000000002 117.85999999999967,86.596 116.78999999999996,86.596 C116.15999999999985,86.596 115.64000000000033,86.43499999999995 115.21000000000004,86.11199999999997 C114.80000000000018,85.75800000000004 114.60000000000036,85.31500000000005 114.60000000000036,84.78399999999999 C114.60000000000036,83.88800000000003 115.06999999999971,83.04999999999995 116.01000000000022,82.26800000000003 C116.92000000000007,81.48699999999997 117.92000000000007,81.096 118.98999999999978,81.096" />
<path d="M118.98999999999978,23.596000000000004 C119.61999999999989,23.596000000000004 120.14999999999964,23.758000000000038 120.57999999999993,24.081000000000017 C120.97999999999956,24.434999999999945 121.18000000000029,24.878000000000043 121.18000000000029,25.408999999999992 C121.18000000000029,26.30499999999995 120.72000000000025,27.14300000000003 119.80000000000018,27.924999999999955 C118.86999999999989,28.706000000000017 117.85999999999967,29.096000000000004 116.78999999999996,29.096000000000004 C116.15999999999985,29.096000000000004 115.64000000000033,28.934999999999945 115.21000000000004,28.611999999999966 C114.80000000000018,28.258000000000038 114.60000000000036,27.815000000000055 114.60000000000036,27.283999999999992 C114.60000000000036,26.388000000000034 115.06999999999971,25.549999999999955 116.01000000000022,24.76800000000003 C116.92000000000007,23.986999999999966 117.92000000000007,23.596000000000004 118.98999999999978,23.596000000000004" />
<path d="M100.63000000000011,81.096 C101.26000000000022,81.096 101.78999999999996,81.25800000000004 102.22999999999956,81.58100000000002 C102.61999999999989,81.93499999999995 102.81999999999971,82.37800000000004 102.81999999999971,82.90899999999999 C102.81999999999971,83.80499999999995 102.35999999999967,84.64300000000003 101.44999999999982,85.42499999999995 C100.51000000000022,86.20600000000002 99.5,86.596 98.43000000000029,86.596 C97.80000000000018,86.596 97.27999999999975,86.43499999999995 96.85000000000036,86.11199999999997 C96.44999999999982,85.75800000000004 96.23999999999978,85.31500000000005 96.23999999999978,84.78399999999999 C96.23999999999978,83.88800000000003 96.71000000000004,83.04999999999995 97.64999999999964,82.26800000000003 C98.56999999999971,81.48699999999997 99.5600000000004,81.096 100.63000000000011,81.096" />
<path d="M100.63000000000011,26.096000000000004 C101.26000000000022,26.096000000000004 101.78999999999996,26.258000000000038 102.22999999999956,26.581000000000017 C102.61999999999989,26.934999999999945 102.81999999999971,27.378000000000043 102.81999999999971,27.908999999999992 C102.81999999999971,28.80499999999995 102.35999999999967,29.64300000000003 101.44999999999982,30.424999999999955 C100.51000000000022,31.206000000000017 99.5,31.596000000000004 98.43000000000029,31.596000000000004 C97.80000000000018,31.596000000000004 97.27999999999975,31.434999999999945 96.85000000000036,31.111999999999966 C96.44999999999982,30.758000000000038 96.23999999999978,30.315000000000055 96.23999999999978,29.783999999999992 C96.23999999999978,28.888000000000034 96.71000000000004,28.049999999999955 97.64999999999964,27.26800000000003 C98.56999999999971,26.486999999999966 99.5600000000004,26.096000000000004 100.63000000000011,26.096000000000004" />
<path d="M81.18000000000029,63.12800000000004 L83.59000000000015,61.174999999999955 C83.64999999999964,61.12199999999996 83.71000000000004,61.096000000000004 83.76000000000022,61.096000000000004 C83.82999999999993,61.096000000000004 83.89999999999964,61.12199999999996 83.96000000000004,61.174999999999955 L84.36999999999989,61.486999999999966 C84.43000000000029,61.549999999999955 84.46000000000004,61.62800000000004 84.46000000000004,61.721000000000004 C84.46000000000004,61.78399999999999 84.43000000000029,61.861999999999966 84.36999999999989,61.95600000000002 L82.03999999999996,63.846000000000004 L84.36999999999989,65.73699999999997 C84.43000000000029,65.80999999999995 84.46000000000004,65.89099999999996 84.46000000000004,65.97900000000004 C84.46000000000004,66.06799999999998 84.43000000000029,66.14300000000003 84.36999999999989,66.20600000000002 L83.96000000000004,66.51800000000003 C83.89999999999964,66.57000000000005 83.82999999999993,66.596 83.76000000000022,66.596 C83.71000000000004,66.596 83.64999999999964,66.57000000000005 83.59000000000015,66.51800000000003 L81.18000000000029,64.56500000000005 L78.76000000000022,66.51800000000003 C78.69999999999982,66.57000000000005 78.64000000000033,66.596 78.59000000000015,66.596 C78.52999999999975,66.596 78.46000000000004,66.57000000000005 78.39999999999964,66.51800000000003 L77.97999999999956,66.20600000000002 C77.92000000000007,66.14300000000003 77.89000000000033,66.06500000000005 77.89000000000033,65.971 C77.89000000000033,65.90899999999999 77.92000000000007,65.83100000000002 77.97999999999956,65.73699999999997 L80.3100000000004,63.846000000000004 L77.97999999999956,61.95600000000002 C77.92000000000007,61.88300000000004 77.89000000000033,61.80200000000002 77.89000000000033,61.714000000000055 C77.89000000000033,61.625 77.92000000000007,61.549999999999955 77.97999999999956,61.486999999999966 L78.39999999999964,61.174999999999955 C78.46000000000004,61.12199999999996 78.52999999999975,61.096000000000004 78.59000000000015,61.096000000000004 C78.64000000000033,61.096000000000004 78.69999999999982,61.12199999999996 78.76000000000022,61.174999999999955 L81.18000000000029,63.12800000000004" />
<path d="M82.27999999999975,16.096000000000004 C82.89999999999964,16.096000000000004 83.43000000000029,16.258000000000038 83.86999999999989,16.581000000000017 C84.27000000000044,16.934999999999945 84.46000000000004,17.378000000000043 84.46000000000004,17.908999999999992 C84.46000000000004,18.80499999999995 84.0,19.64300000000003 83.09000000000015,20.424999999999955 C82.14999999999964,21.206000000000017 81.14999999999964,21.596000000000004 80.06999999999971,21.596000000000004 C79.44999999999982,21.596000000000004 78.92000000000007,21.434999999999945 78.48999999999978,21.111999999999966 C78.09000000000015,20.758000000000038 77.89000000000033,20.315000000000055 77.89000000000033,19.783999999999992 C77.89000000000033,18.888000000000034 78.35000000000036,18.049999999999955 79.28999999999996,17.26800000000003 C80.21000000000004,16.486999999999966 81.19999999999982,16.096000000000004 82.27999999999975,16.096000000000004" />
<path d="M44.470000000000255,63.12800000000004 L46.86999999999989,61.174999999999955 C46.9399999999996,61.12199999999996 46.98999999999978,61.096000000000004 47.05000000000018,61.096000000000004 C47.11999999999989,61.096000000000004 47.1899999999996,61.12199999999996 47.25,61.174999999999955 L47.649999999999636,61.486999999999966 C47.720000000000255,61.549999999999955 47.75,61.62800000000004 47.75,61.721000000000004 C47.75,61.78399999999999 47.720000000000255,61.861999999999966 47.649999999999636,61.95600000000002 L45.32999999999993,63.846000000000004 L47.649999999999636,65.73699999999997 C47.720000000000255,65.80999999999995 47.75,65.89099999999996 47.75,65.97900000000004 C47.75,66.06799999999998 47.720000000000255,66.14300000000003 47.649999999999636,66.20600000000002 L47.25,66.51800000000003 C47.1899999999996,66.57000000000005 47.11999999999989,66.596 47.05000000000018,66.596 C46.98999999999978,66.596 46.9399999999996,66.57000000000005 46.86999999999989,66.51800000000003 L44.470000000000255,64.56500000000005 L42.05000000000018,66.51800000000003 C41.97999999999956,66.57000000000005 41.93000000000029,66.596 41.86999999999989,66.596 C41.8100000000004,66.596 41.75,66.57000000000005 41.6899999999996,66.51800000000003 L41.26000000000022,66.20600000000002 C41.19999999999982,66.14300000000003 41.17000000000007,66.06500000000005 41.17000000000007,65.971 C41.17000000000007,65.90899999999999 41.19999999999982,65.83100000000002 41.26000000000022,65.73699999999997 L43.590000000000146,63.846000000000004 L41.26000000000022,61.95600000000002 C41.19999999999982,61.88300000000004 41.17000000000007,61.80200000000002 41.17000000000007,61.714000000000055 C41.17000000000007,61.625 41.19999999999982,61.549999999999955 41.26000000000022,61.486999999999966 L41.6899999999996,61.174999999999955 C41.75,61.12199999999996 41.8100000000004,61.096000000000004 41.86999999999989,61.096000000000004 C41.93000000000029,61.096000000000004 41.97999999999956,61.12199999999996 42.05000000000018,61.174999999999955 L44.470000000000255,63.12800000000004" />
<path d="M45.5600000000004,81.096 C46.1899999999996,81.096 46.720000000000255,81.25800000000004 47.149999999999636,81.58100000000002 C47.55000000000018,81.93499999999995 47.75,82.37800000000004 47.75,82.90899999999999 C47.75,83.80499999999995 47.289999999999964,84.64300000000003 46.36999999999989,85.42499999999995 C45.4399999999996,86.20600000000002 44.43000000000029,86.596 43.35999999999967,86.596 C42.72999999999956,86.596 42.210000000000036,86.43499999999995 41.779999999999745,86.11199999999997 C41.36999999999989,85.75800000000004 41.17000000000007,85.31500000000005 41.17000000000007,84.78399999999999 C41.17000000000007,83.88800000000003 41.64000000000033,83.04999999999995 42.57999999999993,82.26800000000003 C43.48999999999978,81.48699999999997 44.48999999999978,81.096 45.5600000000004,81.096" />
<path d="M45.5600000000004,16.096000000000004 C46.1899999999996,16.096000000000004 46.720000000000255,16.258000000000038 47.149999999999636,16.581000000000017 C47.55000000000018,16.934999999999945 47.75,17.378000000000043 47.75,17.908999999999992 C47.75,18.80499999999995 47.289999999999964,19.64300000000003 46.36999999999989,20.424999999999955 C45.4399999999996,21.206000000000017 44.43000000000029,21.596000000000004 43.35999999999967,21.596000000000004 C42.72999999999956,21.596000000000004 42.210000000000036,21.434999999999945 41.779999999999745,21.111999999999966 C41.36999999999989,20.758000000000038 41.17000000000007,20.315000000000055 41.17000000000007,19.783999999999992 C41.17000000000007,18.888000000000034 41.64000000000033,18.049999999999955 42.57999999999993,17.26800000000003 C43.48999999999978,16.486999999999966 44.48999999999978,16.096000000000004 45.5600000000004,16.096000000000004" />
<path d="M15.100000000000364,63.12800000000004 L17.5,61.174999999999955 C17.5600000000004,61.12199999999996 17.61999999999989,61.096000000000004 17.670000000000073,61.096000000000004 C17.75,61.096000000000004 17.8100000000004,61.12199999999996 17.88000000000011,61.174999999999955 L18.279999999999745,61.486999999999966 C18.350000000000364,61.549999999999955 18.38000000000011,61.62800000000004 18.38000000000011,61.721000000000004 C18.38000000000011,61.78399999999999 18.350000000000364,61.861999999999966 18.279999999999745,61.95600000000002 L15.949999999999818,63.846000000000004 L18.279999999999745,65.73699999999997 C18.350000000000364,65.80999999999995 18.38000000000011,65.89099999999996 18.38000000000011,65.97900000000004 C18.38000000000011,66.06799999999998 18.350000000000364,66.14300000000003 18.279999999999745,66.20600000000002 L17.88000000000011,66.51800000000003 C17.8100000000004,66.57000000000005 17.75,66.596 17.670000000000073,66.596 C17.61999999999989,66.596 17.5600000000004,66.57000000000005 17.5,66.51800000000003 L15.100000000000364,64.56500000000005 L12.670000000000073,66.51800000000003 C12.609999999999673,66.57000000000005 12.550000000000182,66.596 12.5,66.596 C12.4399999999996,66.596 12.38000000000011,66.57000000000005 12.3100000000004,66.51800000000003 L11.890000000000327,66.20600000000002 C11.829999999999927,66.14300000000003 11.800000000000182,66.06500000000005 11.800000000000182,65.971 C11.800000000000182,65.90899999999999 11.829999999999927,65.83100000000002 11.890000000000327,65.73699999999997 L14.220000000000255,63.846000000000004 L11.890000000000327,61.95600000000002 C11.829999999999927,61.88300000000004 11.800000000000182,61.80200000000002 11.800000000000182,61.714000000000055 C11.800000000000182,61.625 11.829999999999927,61.549999999999955 11.890000000000327,61.486999999999966 L12.3100000000004,61.174999999999955 C12.38000000000011,61.12199999999996 12.4399999999996,61.096000000000004 12.5,61.096000000000004 C12.550000000000182,61.096000000000004 12.609999999999673,61.12199999999996 12.670000000000073,61.174999999999955 L15.100000000000364,63.12800000000004" />
<path d="M16.1899999999996,81.096 C16.8100000000004,81.096 17.350000000000364,81.25800000000004 17.779999999999745,81.58100000000002 C18.18000000000029,81.93499999999995 18.38000000000011,82.37800000000004 18.38000000000011,82.90899999999999 C18.38000000000011,83.80499999999995 17.920000000000073,84.64300000000003 17.0,85.42499999999995 C16.0600000000004,86.20600000000002 15.0600000000004,86.596 13.989999999999782,86.596 C13.359999999999673,86.596 12.829999999999927,86.43499999999995 12.409999999999854,86.11199999999997 C12.0,85.75800000000004 11.800000000000182,85.31500000000005 11.800000000000182,84.78399999999999 C11.800000000000182,83.88800000000003 12.270000000000437,83.04999999999995 13.199999999999818,82.26800000000003 C14.11999999999989,81.48699999999997 15.11999999999989,81.096 16.1899999999996,81.096" />
<path d="M16.1899999999996,16.096000000000004 C16.8100000000004,16.096000000000004 17.350000000000364,16.258000000000038 17.779999999999745,16.581000000000017 C18.18000000000029,16.934999999999945 18.38000000000011,17.378000000000043 18.38000000000011,17.908999999999992 C18.38000000000011,18.80499999999995 17.920000000000073,19.64300000000003 17.0,20.424999999999955 C16.0600000000004,21.206000000000017 15.0600000000004,21.596000000000004 13.989999999999782,21.596000000000004 C13.359999999999673,21.596000000000004 12.829999999999927,21.434999999999945 12.409999999999854,21.111999999999966 C12.0,20.758000000000038 11.800000000000182,20.315000000000055 11.800000000000182,19.783999999999992 C11.800000000000182,18.888000000000034 12.270000000000437,18.049999999999955 13.199999999999818,17.26800000000003 C14.11999999999989,16.486999999999966 15.11999999999989,16.096000000000004 16.1899999999996,16.096000000000004" />
<path d="M237.27999999999975,19.736999999999966 C237.6800000000003,19.736999999999966 237.96000000000004,19.841000000000008 238.1199999999999,20.049999999999955 C238.30000000000018,20.278999999999996 238.40999999999985,20.503000000000043 238.44999999999982,20.721000000000004 C238.46000000000004,20.940000000000055 238.52999999999975,21.158999999999992 238.65999999999985,21.378000000000043 C238.72999999999956,21.586000000000013 238.8699999999999,21.690000000000055 239.07999999999993,21.690000000000055 C239.21000000000004,21.690000000000055 239.40999999999985,21.533999999999992 239.67000000000007,21.221000000000004 C239.96000000000004,20.85699999999997 240.14999999999964,20.596000000000004 240.22999999999956,20.440000000000055 C240.30000000000018,20.315000000000055 240.3800000000001,20.253000000000043 240.5,20.253000000000043 C240.5,20.253000000000043 240.51000000000022,20.253000000000043 240.52999999999975,20.253000000000043 C240.64999999999964,20.263000000000034 240.72999999999956,20.326000000000022 240.77999999999975,20.440000000000055 L237.19999999999982,33.846000000000004 C237.07999999999993,33.98199999999997 236.89999999999964,34.049999999999955 236.65999999999985,34.049999999999955 C236.4300000000003,34.049999999999955 236.23999999999978,33.98199999999997 236.10999999999967,33.846000000000004 L238.1199999999999,27.299999999999955 C237.25,27.611999999999966 236.53999999999996,27.76800000000003 236.0,27.76800000000003 C235.52999999999975,27.76800000000003 235.1199999999999,27.621999999999957 234.77999999999975,27.331000000000017 C234.4300000000003,27.038999999999987 234.25,26.658999999999992 234.25,26.190000000000055 C234.25,25.783999999999992 234.3800000000001,25.44500000000005 234.65999999999985,25.174999999999955 C234.94999999999982,24.89300000000003 235.30000000000018,24.753000000000043 235.69999999999982,24.753000000000043 C236.09000000000015,24.753000000000043 236.3699999999999,24.85699999999997 236.55000000000018,25.065000000000055 C236.72999999999956,25.283999999999992 236.85000000000036,25.503000000000043 236.89000000000033,25.721000000000004 C236.9300000000003,25.98199999999997 237.0,26.206000000000017 237.09000000000015,26.39300000000003 C237.1800000000003,26.601999999999975 237.3199999999997,26.706000000000017 237.51000000000022,26.706000000000017 C237.67000000000007,26.706000000000017 237.89999999999964,26.524 238.1899999999996,26.158999999999992 C238.47999999999956,25.815000000000055 238.65999999999985,25.543999999999983 238.72999999999956,25.346000000000004 L239.64000000000033,22.315000000000055 C238.8100000000004,22.616999999999962 238.10999999999967,22.76800000000003 237.5600000000004,22.76800000000003 C237.09000000000015,22.76800000000003 236.6899999999996,22.616999999999962 236.34000000000015,22.315000000000055 C235.98999999999978,22.033999999999992 235.8100000000004,21.658999999999992 235.8100000000004,21.190000000000055 C235.8100000000004,20.783999999999992 235.96000000000004,20.44500000000005 236.25,20.174999999999955 C236.52999999999975,19.883000000000038 236.8699999999999,19.736999999999966 237.27999999999975,19.736999999999966" />
<path d="M160.4300000000003,98.846 L235.4300000000003,91.28099999999995 L235.4300000000003,93.78099999999995 L160.4300000000003,101.346 L160.4300000000003,98.846" />
<path d="M166.35999999999967,11.346000000000004 L191.80000000000018,11.346000000000004 L191.80000000000018,13.846000000000004 L166.35999999999967,13.846000000000004 L166.35999999999967,11.346000000000004" />
<path d="M77.89000000000033,98.846 L115.25,98.846 L115.25,101.346 L77.89000000000033,101.346 L77.89000000000033,98.846" />
<path d="M77.89000000000033,95.096 L96.89000000000033,95.096 L96.89000000000033,97.596 L77.89000000000033,97.596 L77.89000000000033,95.096" />
<path d="M77.89000000000033,41.346000000000004 L133.60999999999967,47.66999999999996 L133.60999999999967,50.16999999999996 L77.89000000000033,43.846000000000004 L77.89000000000033,41.346000000000004" />
<path d="M77.89000000000033,37.596000000000004 L133.60999999999967,43.91999999999996 L133.60999999999967,46.41999999999996 L77.89000000000033,40.096000000000004 L77.89000000000033,37.596000000000004" />
<path d="M11.800000000000182,97.596 L41.81999999999971,97.596 L41.81999999999971,100.096 L11.800000000000182,100.096 L11.800000000000182,97.596" />
<path d="M11.800000000000182,32.596000000000004 L41.81999999999971,32.596000000000004 L41.81999999999971,35.096000000000004 L11.800000000000182,35.096000000000004 L11.800000000000182,32.596000000000004" />
<path d="M0.020000000000436557,26.346000000000004 L-6.579999999999927,25.69100000000003 L-6.579999999999927,28.19100000000003 L0.020000000000436557,28.846000000000004 L0.020000000000436557,26.346000000000004" />
<path d="M214.53999999999996,11.878000000000043 C214.85000000000036,11.878000000000043 215.17000000000007,12.361999999999966 215.51000000000022,13.331000000000017 C215.84000000000015,14.299999999999955 216.0,15.221000000000004 216.0,16.096000000000004 C216.0,16.836000000000013 215.8100000000004,17.57000000000005 215.44999999999982,18.299999999999955 C215.07999999999993,19.081000000000017 214.6300000000001,19.758000000000038 214.10999999999967,20.331000000000017 L212.5,22.128000000000043 C212.01000000000022,22.701000000000022 211.5600000000004,23.361999999999966 211.17000000000007,24.111999999999966 C210.80000000000018,24.841000000000008 210.6199999999999,25.586000000000013 210.6199999999999,26.346000000000004 L210.0,26.346000000000004 L210.0,21.346000000000004 L210.6199999999999,21.346000000000004 C210.97999999999956,21.128000000000043 211.5,20.774 212.1800000000003,20.283999999999992 C212.5,20.05499999999995 212.97000000000025,19.663999999999987 213.59000000000015,19.111999999999966 C214.10000000000036,18.64300000000003 214.48999999999978,18.163999999999987 214.75,17.674999999999955 C215.02000000000044,17.153999999999996 215.14999999999964,16.628000000000043 215.14999999999964,16.096000000000004 C215.14999999999964,14.856999999999971 214.78999999999996,13.621999999999957 214.07999999999993,12.393000000000029 C214.07999999999993,12.393000000000029 214.07999999999993,12.366999999999962 214.07999999999993,12.315000000000055 C214.07999999999993,12.201000000000022 214.1199999999999,12.106999999999971 214.19999999999982,12.033999999999992 C214.30000000000018,11.92999999999995 214.42000000000007,11.878000000000043 214.53999999999996,11.878000000000043" />
<polyline points="0.0,13.846000000000004 255.0,13.846000000000004" fill="none" stroke="#000000" stroke-width="0.40" />
<polyline points="0.0,18.846000000000004 255.0,18.846000000000004" fill="none" stroke="#000000" stroke-width="0.40" />
<polyline points="0.0,23.846000000000004 255.0,23.846000000000004" fill="none" stroke="#000000" stroke-width="0.40" />
<polyline points="0.0,28.846000000000004 255.0,28.846000000000004" fill="none" stroke="#000000" stroke-width="0.40" />
<polyline points="0.0,33.846000000000004 255.0,33.846000000000004" fill="none" stroke="#000000" stroke-width="0.40" />
<polyline points="0.0,66.346 255.0,66.346" fill="none" stroke="#000000" stroke-width="0.40" />
<polyline points="0.0,71.346 255.0,71.346" fill="none" stroke="#000000" stroke-width="0.40" />
<polyline points="0.0,76.346 255.0,76.346" fill="none" stroke="#000000" stroke-width="0.40" />
<polyline points="0.0,81.346 255.0,81.346" fill="none" stroke="#000000" stroke-width="0.40" />
<polyline points="0.0,86.346 255.0,86.346" fill="none" stroke="#000000" stroke-width="0.40" />
<polyline points="151.71000000000004,66.346 151.71000000000004,86.346" fill="" stroke="#000000" stroke-width="0.80" />
<polyline points="151.71000000000004,13.846000000000004 151.71000000000004,33.846000000000004" fill="" stroke="#000000" stroke-width="0.80" />
<polyline points="235.10999999999967,65.90999999999997 235.10999999999967,92.596" fill="" stroke="#000000" stroke-width="0.65" />
<polyline points="210.3199999999997,65.90999999999997 210.3199999999997,95.096" fill="" stroke="#000000" stroke-width="0.65" />
<polyline points="210.3199999999997,9.785999999999945 210.3199999999997,26.346000000000004" fill="" stroke="#000000" stroke-width="0.65" />
<polyline points="185.53999999999996,65.90999999999997 185.53999999999996,97.596" fill="" stroke="#000000" stroke-width="0.65" />
<polyline points="191.47000000000025,25.40700000000004 191.47000000000025,12.596000000000004" fill="" stroke="#000000" stroke-width="0.65" />
<polyline points="160.75,65.90999999999997 160.75,100.096" fill="" stroke="#000000" stroke-width="0.65" />
<polyline points="166.6899999999996,25.40700000000004 166.6899999999996,12.596000000000004" fill="" stroke="#000000" stroke-width="0.65" />
<polyline points="133.27999999999975,29.785999999999945 133.27999999999975,48.846000000000004" fill="" stroke="#000000" stroke-width="0.65" />
<polyline points="114.92000000000007,65.90999999999997 114.92000000000007,100.096" fill="" stroke="#000000" stroke-width="0.65" />
<polyline points="114.92000000000007,27.285999999999945 114.92000000000007,46.763000000000034" fill="" stroke="#000000" stroke-width="0.65" />
<polyline points="96.56999999999971,84.78599999999994 96.56999999999971,100.096" fill="" stroke="#000000" stroke-width="0.65" />
<polyline points="96.56999999999971,29.785999999999945 96.56999999999971,44.67999999999995" fill="" stroke="#000000" stroke-width="0.65" />
<polyline points="78.21000000000004,65.90999999999997 78.21000000000004,100.096" fill="" stroke="#000000" stroke-width="0.65" />
<polyline points="78.21000000000004,19.785999999999945 78.21000000000004,42.596000000000004" fill="" stroke="#000000" stroke-width="0.65" />
<polyline points="41.5,65.90999999999997 41.5,98.846" fill="" stroke="#000000" stroke-width="0.65" />
<polyline points="41.5,19.785999999999945 41.5,33.846000000000004" fill="" stroke="#000000" stroke-width="0.65" />
<polyline points="12.11999999999989,65.90999999999997 12.11999999999989,98.846" fill="" stroke="#000000" stroke-width="0.65" />
<polyline points="12.11999999999989,19.785999999999945 12.11999999999989,33.846000000000004" fill="" stroke="#000000" stroke-width="0.65" />
<polyline points="208.5,8.846000000000004 218.07999999999993,8.846000000000004" fill="" stroke="#000000" stroke-width="0.80" />
<polyline points="0.0,38.846000000000004 1.5200000000004366,38.846000000000004" fill="" stroke="#000000" stroke-width="0.80" />
</svg>
