<?xml version="1.0" encoding="UTF-8" standalone="yes"?>
<svg width="256.0px" height="256.0px" xmlns="http://www.w3.org/2000/svg" xmlns:xlink="http://www.w3.org/1999/xlink" version="1.2" baseProfile="tiny">
<path d="M164.39999999999964,25.557999999999993 C164.39999999999964,25.442999999999984 164.39999999999964,25.339000000000055 164.39999999999964,25.245000000000005 C164.5,25.150999999999954 164.5,25.019000000000005 164.60000000000036,24.84699999999998 C164.70000000000073,24.674999999999955 164.79999999999927,24.53200000000004 164.89999999999964,24.41700000000003 C165.0,24.30200000000002 165.20000000000073,24.201000000000022 165.39999999999964,24.111999999999966 C165.60000000000036,24.024 165.79999999999927,23.979000000000042 166.0,23.979000000000042 C166.39999999999964,23.979000000000042 166.79999999999927,24.11500000000001 167.10000000000036,24.385999999999967 C167.39999999999964,24.65700000000004 167.5,24.99000000000001 167.5,25.385999999999967 C167.5,25.99000000000001 167.20000000000073,26.650999999999954 166.5,27.370000000000005 L165.10000000000036,28.79200000000003 L167.0,28.79200000000003 C167.20000000000073,28.79200000000003 167.39999999999964,28.760999999999967 167.5,28.69799999999998 C167.5,28.635999999999967 167.70000000000073,28.49000000000001 167.79999999999927,28.260999999999967 L167.89999999999964,28.29200000000003 L167.5,29.370000000000005 L164.39999999999964,29.370000000000005 L164.39999999999964,29.275999999999954 L165.79999999999927,27.760999999999967 C166.5,27.03200000000004 166.79999999999927,26.34400000000005 166.79999999999927,25.69799999999998 C166.79999999999927,25.354000000000042 166.70000000000073,25.077999999999975 166.5,24.870000000000005 C166.29999999999927,24.662000000000035 166.0,24.557999999999993 165.70000000000073,24.557999999999993 C165.39999999999964,24.557999999999993 165.20000000000073,24.633000000000038 165.0,24.783999999999992 C164.89999999999964,24.934999999999945 164.70000000000073,25.208999999999946 164.5,25.604000000000042 L164.39999999999964,25.557999999999993 M171.70000000000073,24.07299999999998 L171.70000000000073,24.19799999999998 L170.0,29.432999999999993 L169.5,29.432999999999993 L171.10000000000036,24.66700000000003 L169.29999999999927,24.66700000000003 C169.10000000000036,24.66700000000003 168.89999999999964,24.706000000000017 168.79999999999927,24.783999999999992 C168.70000000000073,24.861999999999966 168.60000000000036,25.037000000000035 168.39999999999964,25.307999999999993 L168.29999999999927,25.245000000000005 L168.70000000000073,24.07299999999998 L171.70000000000073,24.07299999999998" />
<path d="M229.0,25.557999999999993 C229.10000000000036,25.442999999999984 229.10000000000036,25.339000000000055 229.10000000000036,25.245000000000005 C229.10000000000036,25.150999999999954 229.20000000000073,25.019000000000005 229.29999999999927,24.84699999999998 C229.39999999999964,24.674999999999955 229.5,24.53200000000004 229.60000000000036,24.41700000000003 C229.70000000000073,24.30200000000002 229.79999999999927,24.201000000000022 230.0,24.111999999999966 C230.20000000000073,24.024 230.5,23.979000000000042 230.70000000000073,23.979000000000042 C231.10000000000036,23.979000000000042 231.5,24.11500000000001 231.70000000000073,24.385999999999967 C232.0,24.65700000000004 232.20000000000073,24.99000000000001 232.20000000000073,25.385999999999967 C232.20000000000073,25.99000000000001 231.79999999999927,26.650999999999954 231.10000000000036,27.370000000000005 L229.79999999999927,28.79200000000003 L231.70000000000073,28.79200000000003 C231.89999999999964,28.79200000000003 232.0,28.760999999999967 232.10000000000036,28.69799999999998 C232.20000000000073,28.635999999999967 232.29999999999927,28.49000000000001 232.5,28.260999999999967 L232.60000000000036,28.29200000000003 L232.10000000000036,29.370000000000005 L229.0,29.370000000000005 L229.0,29.275999999999954 L230.39999999999964,27.760999999999967 C231.10000000000036,27.03200000000004 231.5,26.34400000000005 231.5,25.69799999999998 C231.5,25.354000000000042 231.39999999999964,25.077999999999975 231.20000000000073,24.870000000000005 C231.0,24.662000000000035 230.70000000000073,24.557999999999993 230.39999999999964,24.557999999999993 C230.10000000000036,24.557999999999993 229.89999999999964,24.633000000000038 229.70000000000073,24.783999999999992 C229.5,24.934999999999945 229.39999999999964,25.208999999999946 229.20000000000073,25.604000000000042 L229.0,25.557999999999993 M235.10000000000036,26.400999999999954 C235.60000000000036,26.754999999999995 235.89999999999964,27.05200000000002 236.10000000000036,27.29200000000003 C236.29999999999927,27.53200000000004 236.29999999999927,27.807999999999993 236.29999999999927,28.120000000000005 C236.29999999999927,28.537000000000035 236.20000000000073,28.866999999999962 235.89999999999964,29.111999999999966 C235.60000000000036,29.35699999999997 235.20000000000073,29.479000000000042 234.79999999999927,29.479000000000042 C234.29999999999927,29.479000000000042 233.89999999999964,29.35699999999997 233.70000000000073,29.111999999999966 C233.39999999999964,28.866999999999962 233.20000000000073,28.547000000000025 233.20000000000073,28.150999999999954 C233.20000000000073,27.879999999999995 233.29999999999927,27.653999999999996 233.39999999999964,27.47199999999998 C233.5,27.288999999999987 233.79999999999927,27.037000000000035 234.29999999999927,26.714000000000055 C233.79999999999927,26.339000000000055 233.60000000000036,26.062999999999988 233.39999999999964,25.885999999999967 C233.29999999999927,25.708999999999946 233.29999999999927,25.49000000000001 233.29999999999927,25.229000000000042 C233.29999999999927,24.86500000000001 233.39999999999964,24.559999999999945 233.70000000000073,24.315000000000055 C234.0,24.071000000000026 234.39999999999964,23.94799999999998 234.79999999999927,23.94799999999998 C235.20000000000073,23.94799999999998 235.5,24.05499999999995 235.79999999999927,24.269000000000005 C236.0,24.48199999999997 236.20000000000073,24.760999999999967 236.20000000000073,25.104000000000042 C236.20000000000073,25.375 236.10000000000036,25.604000000000042 235.89999999999964,25.79200000000003 C235.79999999999927,25.979000000000042 235.5,26.182999999999993 235.10000000000036,26.400999999999954 M234.5,26.870000000000005 C234.20000000000073,27.057999999999993 234.10000000000036,27.241999999999962 234.0,27.424999999999955 C233.89999999999964,27.60699999999997 233.79999999999927,27.827999999999975 233.79999999999927,28.089000000000055 C233.79999999999927,28.432999999999993 233.89999999999964,28.711000000000013 234.10000000000036,28.924999999999955 C234.29999999999927,29.138000000000034 234.5,29.245000000000005 234.79999999999927,29.245000000000005 C235.10000000000036,29.245000000000005 235.29999999999927,29.163999999999987 235.5,29.003000000000043 C235.60000000000036,28.841000000000008 235.70000000000073,28.629999999999995 235.70000000000073,28.370000000000005 C235.70000000000073,28.287000000000035 235.70000000000073,28.206000000000017 235.70000000000073,28.128000000000043 C235.70000000000073,28.049999999999955 235.70000000000073,27.985000000000014 235.60000000000036,27.932999999999993 C235.60000000000036,27.879999999999995 235.60000000000036,27.817999999999984 235.5,27.745000000000005 C235.5,27.672000000000025 235.39999999999964,27.616999999999962 235.39999999999964,27.581000000000017 C235.39999999999964,27.54499999999996 235.29999999999927,27.486999999999966 235.20000000000073,27.408999999999992 C235.10000000000036,27.331000000000017 235.10000000000036,27.275999999999954 235.0,27.245000000000005 C235.0,27.214000000000055 234.89999999999964,27.153999999999996 234.79999999999927,27.065000000000055 C234.60000000000036,26.976999999999975 234.5,26.912000000000035 234.5,26.870000000000005 M234.89999999999964,26.260999999999967 C234.89999999999964,26.25 234.89999999999964,26.22199999999998 235.0,26.174999999999955 C235.0,26.128000000000043 235.10000000000036,26.091000000000008 235.10000000000036,26.065000000000055 C235.10000000000036,26.038999999999987 235.20000000000073,26.0 235.29999999999927,25.94799999999998 C235.29999999999927,25.895999999999958 235.39999999999964,25.84400000000005 235.39999999999964,25.79200000000003 C235.39999999999964,25.74000000000001 235.5,25.67700000000002 235.5,25.604000000000042 C235.5,25.53200000000004 235.60000000000036,25.451000000000022 235.60000000000036,25.361999999999966 C235.60000000000036,25.274 235.60000000000036,25.182999999999993 235.60000000000036,25.089000000000055 C235.60000000000036,24.817999999999984 235.5,24.599000000000046 235.39999999999964,24.432999999999993 C235.20000000000073,24.265999999999963 235.0,24.182999999999993 234.70000000000073,24.182999999999993 C234.5,24.182999999999993 234.29999999999927,24.258000000000038 234.10000000000036,24.408999999999992 C234.0,24.559999999999945 233.89999999999964,24.75 233.89999999999964,24.979000000000042 C233.89999999999964,25.19799999999998 234.0,25.40700000000004 234.10000000000036,25.604000000000042 C234.29999999999927,25.80200000000002 234.5,26.020999999999958 234.89999999999964,26.260999999999967" />
</svg>
