<?xml version="1.0" encoding="UTF-8" standalone="yes"?>
<svg width="256.0px" height="256.0px" xmlns="http://www.w3.org/2000/svg" xmlns:xlink="http://www.w3.org/1999/xlink" version="1.2" baseProfile="tiny">
<path d="M84.67999999999984,30.79200000000003 C84.55000000000018,30.69799999999998 84.40000000000009,30.591000000000008 84.25,30.47199999999998 C84.09999999999991,30.351999999999975 83.92999999999984,30.184999999999945 83.73999999999978,29.97199999999998 C83.55999999999995,29.758000000000038 83.38999999999987,29.53200000000004 83.23999999999978,29.29200000000003 C83.09999999999991,29.05200000000002 82.98000000000002,28.760999999999967 82.88000000000011,28.41700000000003 C82.78999999999996,28.07299999999998 82.73999999999978,27.71900000000005 82.73999999999978,27.354000000000042 C82.73999999999978,26.96900000000005 82.78999999999996,26.604000000000042 82.88000000000011,26.260999999999967 C82.98000000000002,25.91700000000003 83.09000000000015,25.633000000000038 83.23000000000002,25.408999999999992 C83.36000000000013,25.184999999999945 83.5300000000002,24.966000000000008 83.73999999999978,24.753000000000043 C83.94000000000005,24.538999999999987 84.11000000000013,24.383000000000038 84.23999999999978,24.283999999999992 C84.38000000000011,24.184999999999945 84.5300000000002,24.077999999999975 84.69999999999982,23.964000000000055 L84.76999999999998,24.089000000000055 C84.55000000000018,24.287000000000035 84.36000000000013,24.461000000000013 84.21000000000004,24.611999999999966 C84.07000000000016,24.763000000000034 83.92999999999984,24.964000000000055 83.78999999999996,25.214000000000055 C83.65000000000009,25.464000000000055 83.55999999999995,25.760999999999967 83.5,26.104000000000042 C83.44000000000005,26.44799999999998 83.40999999999985,26.860000000000014 83.40999999999985,27.339000000000055 C83.40999999999985,27.827999999999975 83.44000000000005,28.253000000000043 83.5,28.611999999999966 C83.55999999999995,28.97199999999998 83.65000000000009,29.275999999999954 83.78999999999996,29.525999999999954 C83.92999999999984,29.775999999999954 84.07000000000016,29.98199999999997 84.21000000000004,30.144000000000005 C84.36000000000013,30.30499999999995 84.55000000000018,30.474000000000046 84.76999999999998,30.650999999999954 L84.67999999999984,30.79200000000003 M85.21000000000004,27.66700000000003 C85.21000000000004,27.07299999999998 85.38999999999987,26.59699999999998 85.73999999999978,26.236999999999966 C86.07999999999993,25.878000000000043 86.48999999999978,25.69799999999998 86.96000000000004,25.69799999999998 C87.30000000000018,25.69799999999998 87.57999999999993,25.778999999999996 87.80999999999995,25.940000000000055 C88.05000000000018,26.101999999999975 88.15999999999985,26.297000000000025 88.15999999999985,26.525999999999954 C88.15999999999985,26.610000000000014 88.13000000000011,26.684999999999945 88.05999999999995,26.753000000000043 C87.98000000000002,26.821000000000026 87.88999999999987,26.854000000000042 87.78999999999996,26.854000000000042 C87.61000000000013,26.854000000000042 87.48999999999978,26.735000000000014 87.42999999999984,26.495000000000005 L87.38000000000011,26.32299999999998 C87.34000000000015,26.16700000000003 87.28999999999996,26.062999999999988 87.23000000000002,26.010999999999967 C87.15999999999985,25.958999999999946 87.05999999999995,25.932999999999993 86.90999999999985,25.932999999999993 C86.59000000000015,25.932999999999993 86.32999999999993,26.059999999999945 86.13000000000011,26.315000000000055 C85.94000000000005,26.571000000000026 85.84000000000015,26.90700000000004 85.84000000000015,27.32299999999998 C85.84000000000015,27.770999999999958 85.94999999999982,28.140999999999963 86.17999999999984,28.432999999999993 C86.40999999999985,28.724000000000046 86.71000000000004,28.870000000000005 87.07000000000016,28.870000000000005 C87.28999999999996,28.870000000000005 87.48000000000002,28.812999999999988 87.63999999999987,28.69799999999998 C87.80000000000018,28.583999999999946 87.98000000000002,28.390999999999963 88.15999999999985,28.120000000000005 L88.26999999999998,28.182999999999993 C88.2199999999998,28.297000000000025 88.17999999999984,28.388000000000034 88.13999999999987,28.456000000000017 C88.09999999999991,28.524 88.0300000000002,28.628000000000043 87.92999999999984,28.769000000000005 C87.82999999999993,28.908999999999992 87.7199999999998,29.020999999999958 87.63000000000011,29.104000000000042 C87.5300000000002,29.187999999999988 87.40000000000009,29.265999999999963 87.23999999999978,29.339000000000055 C87.07000000000016,29.412000000000035 86.90000000000009,29.44799999999998 86.73000000000002,29.44799999999998 C86.28999999999996,29.44799999999998 85.92999999999984,29.28200000000004 85.63999999999987,28.94799999999998 C85.34999999999991,28.61500000000001 85.21000000000004,28.187999999999988 85.21000000000004,27.66700000000003 M88.88000000000011,23.964000000000055 C89.0300000000002,24.047000000000025 89.17999999999984,24.149 89.32000000000016,24.269000000000005 C89.4699999999998,24.388000000000034 89.63999999999987,24.55499999999995 89.82999999999993,24.769000000000005 C90.01999999999998,24.98199999999997 90.19000000000005,25.211000000000013 90.32999999999993,25.456000000000017 C90.4699999999998,25.701000000000022 90.59000000000015,25.991999999999962 90.69000000000005,26.331000000000017 C90.78999999999996,26.66999999999996 90.84000000000015,27.025999999999954 90.84000000000015,27.400999999999954 C90.84000000000015,27.775999999999954 90.78999999999996,28.135999999999967 90.69000000000005,28.479000000000042 C90.59000000000015,28.82299999999998 90.4699999999998,29.110000000000014 90.34000000000015,29.339000000000055 C90.21000000000004,29.567999999999984 90.05000000000018,29.787000000000035 89.84000000000015,29.995000000000005 C89.63000000000011,30.202999999999975 89.46000000000004,30.360000000000014 89.32999999999993,30.464000000000055 C89.19999999999982,30.567999999999984 89.05000000000018,30.67700000000002 88.86999999999989,30.79200000000003 L88.78999999999996,30.650999999999954 C89.0300000000002,30.464000000000055 89.2199999999998,30.29200000000003 89.36999999999989,30.135999999999967 C89.51000000000022,29.979000000000042 89.65000000000009,29.778999999999996 89.7800000000002,29.533999999999992 C89.90999999999985,29.288999999999987 90.01000000000022,28.995000000000005 90.05999999999995,28.650999999999954 C90.11999999999989,28.307999999999993 90.15000000000009,27.895999999999958 90.15000000000009,27.41700000000003 C90.15000000000009,26.92700000000002 90.11999999999989,26.503000000000043 90.05999999999995,26.144000000000005 C90.01000000000022,25.783999999999992 89.90999999999985,25.476999999999975 89.7800000000002,25.22199999999998 C89.65000000000009,24.966000000000008 89.51000000000022,24.760999999999967 89.36999999999989,24.604000000000042 C89.2199999999998,24.44799999999998 89.0300000000002,24.275999999999954 88.78999999999996,24.089000000000055 L88.88000000000011,23.964000000000055 M94.65999999999985,24.635999999999967 C94.55999999999995,24.635999999999967 94.36999999999989,24.692999999999984 94.09000000000015,24.807999999999993 L94.09000000000015,24.69799999999998 L95.51000000000022,23.964000000000055 L95.57000000000016,23.979000000000042 L95.57000000000016,28.775999999999954 C95.57000000000016,28.974000000000046 95.61999999999989,29.101999999999975 95.7199999999998,29.158999999999992 C95.82000000000016,29.216000000000008 96.01999999999998,29.245000000000005 96.34000000000015,29.245000000000005 L96.34000000000015,29.370000000000005 L94.13000000000011,29.370000000000005 L94.13000000000011,29.245000000000005 C94.44000000000005,29.235000000000014 94.63999999999987,29.190000000000055 94.73999999999978,29.111999999999966 C94.84999999999991,29.033999999999992 94.90000000000009,28.870000000000005 94.90000000000009,28.620000000000005 L94.90000000000009,25.010999999999967 C94.90000000000009,24.760999999999967 94.82000000000016,24.635999999999967 94.65999999999985,24.635999999999967 M97.65000000000009,29.54200000000003 L97.63000000000011,29.385999999999967 C98.23999999999978,29.28200000000004 98.75,29.024 99.17000000000007,28.611999999999966 C99.59000000000015,28.201000000000022 99.88999999999987,27.66700000000003 100.05999999999995,27.010999999999967 C99.65999999999985,27.32299999999998 99.26000000000022,27.479000000000042 98.84999999999991,27.479000000000042 C98.42999999999984,27.479000000000042 98.07999999999993,27.327999999999975 97.80999999999995,27.025999999999954 C97.55000000000018,26.724000000000046 97.40999999999985,26.333999999999946 97.40999999999985,25.854000000000042 C97.40999999999985,25.312999999999988 97.57000000000016,24.860000000000014 97.88999999999987,24.495000000000005 C98.21000000000004,24.129999999999995 98.61000000000013,23.94799999999998 99.09000000000015,23.94799999999998 C99.61999999999989,23.94799999999998 100.05000000000018,24.158999999999992 100.38000000000011,24.581000000000017 C100.7199999999998,25.003000000000043 100.88000000000011,25.547000000000025 100.88000000000011,26.214000000000055 C100.88000000000011,26.432999999999993 100.86999999999989,26.653999999999996 100.82999999999993,26.878000000000043 C100.78999999999996,27.101999999999975 100.71000000000004,27.366999999999962 100.57000000000016,27.674999999999955 C100.44000000000005,27.98199999999997 100.26000000000022,28.254999999999995 100.0300000000002,28.495000000000005 C99.80999999999995,28.735000000000014 99.48999999999978,28.952999999999975 99.09000000000015,29.150999999999954 C98.67999999999984,29.349000000000046 98.19999999999982,29.479000000000042 97.65000000000009,29.54200000000003 M99.15000000000009,27.120000000000005 C99.25,27.120000000000005 99.36999999999989,27.10699999999997 99.48999999999978,27.081000000000017 C99.61999999999989,27.05499999999995 99.75,26.991999999999962 99.88000000000011,26.894000000000005 C100.01000000000022,26.79499999999996 100.07000000000016,26.672000000000025 100.07000000000016,26.525999999999954 L100.07000000000016,26.214000000000055 C100.07000000000016,24.860000000000014 99.7199999999998,24.182999999999993 99.01999999999998,24.182999999999993 C98.86000000000013,24.182999999999993 98.71000000000004,24.226999999999975 98.59000000000015,24.315000000000055 C98.4699999999998,24.403999999999996 98.38999999999987,24.520999999999958 98.32999999999993,24.66700000000003 C98.26999999999998,24.812999999999988 98.23000000000002,24.958999999999946 98.19999999999982,25.104000000000042 C98.15999999999985,25.25 98.15000000000009,25.40700000000004 98.15000000000009,25.57299999999998 C98.15000000000009,26.05200000000002 98.23999999999978,26.42999999999995 98.42000000000007,26.706000000000017 C98.59999999999991,26.98199999999997 98.84999999999991,27.120000000000005 99.15000000000009,27.120000000000005 M103.23000000000002,29.479000000000042 C102.69000000000005,29.479000000000042 102.25,29.265999999999963 101.92000000000007,28.839000000000055 C101.59000000000015,28.412000000000035 101.42999999999984,27.84400000000005 101.42999999999984,27.135999999999967 C101.42999999999984,26.91700000000003 101.44999999999982,26.692999999999984 101.5,26.464000000000055 C101.55000000000018,26.235000000000014 101.63999999999987,25.97199999999998 101.7800000000002,25.674999999999955 C101.92000000000007,25.378000000000043 102.11000000000013,25.111999999999966 102.34000000000015,24.878000000000043 C102.57999999999993,24.644000000000005 102.90000000000009,24.434999999999945 103.30999999999995,24.253000000000043 C103.7199999999998,24.071000000000026 104.19999999999982,23.952999999999975 104.73999999999978,23.900999999999954 L104.76000000000022,24.025999999999954 C104.11999999999989,24.129999999999995 103.59000000000015,24.385999999999967 103.17000000000007,24.79200000000003 C102.75,25.19799999999998 102.48000000000002,25.702999999999975 102.36999999999989,26.307999999999993 C102.61999999999989,26.162000000000035 102.80999999999995,26.067999999999984 102.94000000000005,26.025999999999954 C103.07000000000016,25.985000000000014 103.2199999999998,25.964000000000055 103.40000000000009,25.964000000000055 C103.86999999999989,25.964000000000055 104.23999999999978,26.111999999999966 104.51999999999998,26.408999999999992 C104.78999999999996,26.706000000000017 104.92999999999984,27.104000000000042 104.92999999999984,27.604000000000042 C104.92999999999984,28.15700000000004 104.76999999999998,28.60699999999997 104.44999999999982,28.956000000000017 C104.13999999999987,29.30499999999995 103.73000000000002,29.479000000000042 103.23000000000002,29.479000000000042 M103.09999999999991,26.32299999999998 C102.73999999999978,26.32299999999998 102.48999999999978,26.400999999999954 102.36000000000013,26.557999999999993 C102.23000000000002,26.714000000000055 102.15999999999985,26.94799999999998 102.15999999999985,27.260999999999967 C102.15999999999985,27.875 102.26999999999998,28.360000000000014 102.48000000000002,28.714000000000055 C102.69000000000005,29.067999999999984 102.96000000000004,29.245000000000005 103.30999999999995,29.245000000000005 C103.59999999999991,29.245000000000005 103.82000000000016,29.128000000000043 103.96000000000004,28.894000000000005 C104.11000000000013,28.658999999999992 104.17999999999984,28.32299999999998 104.17999999999984,27.885999999999967 C104.17999999999984,27.385999999999967 104.09000000000015,27.0 103.90000000000009,26.729000000000042 C103.71000000000004,26.458999999999946 103.44999999999982,26.32299999999998 103.09999999999991,26.32299999999998 M107.48000000000002,26.400999999999954 C107.9699999999998,26.754999999999995 108.30000000000018,27.05200000000002 108.4699999999998,27.29200000000003 C108.63999999999987,27.53200000000004 108.73000000000002,27.807999999999993 108.73000000000002,28.120000000000005 C108.73000000000002,28.537000000000035 108.57999999999993,28.866999999999962 108.30000000000018,29.111999999999966 C108.01000000000022,29.35699999999997 107.63000000000011,29.479000000000042 107.15000000000009,29.479000000000042 C106.69000000000005,29.479000000000042 106.32000000000016,29.35699999999997 106.0300000000002,29.111999999999966 C105.75,28.866999999999962 105.59999999999991,28.547000000000025 105.59999999999991,28.150999999999954 C105.59999999999991,27.879999999999995 105.67000000000007,27.653999999999996 105.80000000000018,27.47199999999998 C105.92999999999984,27.288999999999987 106.21000000000004,27.037000000000035 106.65000000000009,26.714000000000055 C106.2199999999998,26.339000000000055 105.94999999999982,26.062999999999988 105.82999999999993,25.885999999999967 C105.71000000000004,25.708999999999946 105.65000000000009,25.49000000000001 105.65000000000009,25.229000000000042 C105.65000000000009,24.86500000000001 105.78999999999996,24.559999999999945 106.07999999999993,24.315000000000055 C106.36999999999989,24.071000000000026 106.73000000000002,23.94799999999998 107.17999999999984,23.94799999999998 C107.57999999999993,23.94799999999998 107.90000000000009,24.05499999999995 108.15999999999985,24.269000000000005 C108.40999999999985,24.48199999999997 108.53999999999996,24.760999999999967 108.53999999999996,25.104000000000042 C108.53999999999996,25.375 108.46000000000004,25.604000000000042 108.30999999999995,25.79200000000003 C108.15000000000009,25.979000000000042 107.86999999999989,26.182999999999993 107.48000000000002,26.400999999999954 M106.84999999999991,26.870000000000005 C106.61999999999989,27.057999999999993 106.46000000000004,27.241999999999962 106.36999999999989,27.424999999999955 C106.26999999999998,27.60699999999997 106.23000000000002,27.827999999999975 106.23000000000002,28.089000000000055 C106.23000000000002,28.432999999999993 106.32000000000016,28.711000000000013 106.5,28.924999999999955 C106.67999999999984,29.138000000000034 106.92999999999984,29.245000000000005 107.23000000000002,29.245000000000005 C107.48999999999978,29.245000000000005 107.69999999999982,29.163999999999987 107.86000000000013,29.003000000000043 C108.01999999999998,28.841000000000008 108.09999999999991,28.629999999999995 108.09999999999991,28.370000000000005 C108.09999999999991,28.287000000000035 108.09000000000015,28.206000000000017 108.07999999999993,28.128000000000043 C108.05999999999995,28.049999999999955 108.05000000000018,27.985000000000014 108.01999999999998,27.932999999999993 C108.0,27.879999999999995 107.96000000000004,27.817999999999984 107.90999999999985,27.745000000000005 C107.84999999999991,27.672000000000025 107.80999999999995,27.616999999999962 107.76999999999998,27.581000000000017 C107.73999999999978,27.54499999999996 107.67999999999984,27.486999999999966 107.59000000000015,27.408999999999992 C107.51000000000022,27.331000000000017 107.44000000000005,27.275999999999954 107.38999999999987,27.245000000000005 C107.34000000000015,27.214000000000055 107.26000000000022,27.153999999999996 107.13000000000011,27.065000000000055 C107.01000000000022,26.976999999999975 106.90999999999985,26.912000000000035 106.84999999999991,26.870000000000005 M107.23999999999978,26.260999999999967 C107.25,26.25 107.28999999999996,26.22199999999998 107.36000000000013,26.174999999999955 C107.42999999999984,26.128000000000043 107.4699999999998,26.091000000000008 107.5,26.065000000000055 C107.5300000000002,26.038999999999987 107.57000000000016,26.0 107.63000000000011,25.94799999999998 C107.69999999999982,25.895999999999958 107.73999999999978,25.84400000000005 107.76999999999998,25.79200000000003 C107.80999999999995,25.74000000000001 107.84000000000015,25.67700000000002 107.88000000000011,25.604000000000042 C107.92999999999984,25.53200000000004 107.94999999999982,25.451000000000022 107.9699999999998,25.361999999999966 C107.98999999999978,25.274 107.98999999999978,25.182999999999993 107.98999999999978,25.089000000000055 C107.98999999999978,24.817999999999984 107.90999999999985,24.599000000000046 107.76000000000022,24.432999999999993 C107.59999999999991,24.265999999999963 107.38999999999987,24.182999999999993 107.11999999999989,24.182999999999993 C106.86999999999989,24.182999999999993 106.65999999999985,24.258000000000038 106.5,24.408999999999992 C106.34000000000015,24.559999999999945 106.26000000000022,24.75 106.26000000000022,24.979000000000042 C106.26000000000022,25.19799999999998 106.32999999999993,25.40700000000004 106.48999999999978,25.604000000000042 C106.63999999999987,25.80200000000002 106.88999999999987,26.020999999999958 107.23999999999978,26.260999999999967 M116.59999999999991,26.69799999999998 C116.59999999999991,26.937999999999988 116.57000000000016,27.172000000000025 116.51999999999998,27.400999999999954 C116.46000000000004,27.629999999999995 116.36000000000013,27.866999999999962 116.2199999999998,28.111999999999966 C116.07999999999993,28.35699999999997 115.90000000000009,28.567999999999984 115.67000000000007,28.745000000000005 C115.44999999999982,28.922000000000025 115.15000000000009,29.071000000000026 114.76999999999998,29.190000000000055 C114.40000000000009,29.309999999999945 113.98000000000002,29.370000000000005 113.51000000000022,29.370000000000005 L111.23999999999978,29.370000000000005 L111.23999999999978,29.214000000000055 C111.55000000000018,29.192999999999984 111.73999999999978,29.140999999999963 111.82000000000016,29.057999999999993 C111.90000000000009,28.974000000000046 111.94999999999982,28.787000000000035 111.94999999999982,28.495000000000005 L111.94999999999982,24.94799999999998 C111.94999999999982,24.65700000000004 111.90999999999985,24.47199999999998 111.82999999999993,24.394000000000005 C111.75,24.315000000000055 111.55999999999995,24.260999999999967 111.23999999999978,24.229000000000042 L111.23999999999978,24.07299999999998 L113.40000000000009,24.07299999999998 C113.88999999999987,24.07299999999998 114.32000000000016,24.128000000000043 114.69999999999982,24.236999999999966 C115.07999999999993,24.34699999999998 115.38999999999987,24.486999999999966 115.63000000000011,24.658999999999992 C115.86000000000013,24.831000000000017 116.05000000000018,25.037000000000035 116.19999999999982,25.275999999999954 C116.34999999999991,25.515999999999963 116.46000000000004,25.75 116.51999999999998,25.979000000000042 C116.57000000000016,26.208999999999946 116.59999999999991,26.44799999999998 116.59999999999991,26.69799999999998 M115.71000000000004,26.760999999999967 C115.71000000000004,26.53200000000004 115.69000000000005,26.309999999999945 115.65000000000009,26.09699999999998 C115.61000000000013,25.883000000000038 115.5300000000002,25.66999999999996 115.40999999999985,25.456000000000017 C115.28999999999996,25.241999999999962 115.13000000000011,25.059999999999945 114.94999999999982,24.908999999999992 C114.76000000000022,24.758000000000038 114.51000000000022,24.633000000000038 114.21000000000004,24.533999999999992 C113.90999999999985,24.434999999999945 113.57000000000016,24.385999999999967 113.17999999999984,24.385999999999967 C113.01000000000022,24.385999999999967 112.90000000000009,24.40700000000004 112.84000000000015,24.44799999999998 C112.78999999999996,24.49000000000001 112.76000000000022,24.57299999999998 112.76000000000022,24.69799999999998 L112.76000000000022,28.745000000000005 C112.76000000000022,28.870000000000005 112.78999999999996,28.956000000000017 112.84000000000015,29.003000000000043 C112.90000000000009,29.049999999999955 113.01000000000022,29.07299999999998 113.17999999999984,29.07299999999998 C114.86999999999989,29.07299999999998 115.71000000000004,28.30200000000002 115.71000000000004,26.760999999999967 M119.53999999999996,26.885999999999967 C119.40000000000009,26.458999999999946 119.30000000000018,26.190000000000055 119.2199999999998,26.081000000000017 C119.13999999999987,25.97199999999998 119.01000000000022,25.90700000000004 118.84000000000015,25.885999999999967 L118.84000000000015,25.775999999999954 L120.46000000000004,25.775999999999954 L120.46000000000004,25.885999999999967 C120.26999999999998,25.91700000000003 120.15000000000009,25.951000000000022 120.09000000000015,25.986999999999966 C120.01999999999998,26.024 119.98999999999978,26.089000000000055 119.98999999999978,26.182999999999993 C119.98999999999978,26.245000000000005 120.03999999999996,26.400999999999954 120.13000000000011,26.650999999999954 L120.80999999999995,28.44799999999998 L121.51999999999998,26.66700000000003 C121.61999999999989,26.44799999999998 121.65999999999985,26.270999999999958 121.65999999999985,26.135999999999967 C121.65999999999985,26.07299999999998 121.63999999999987,26.024 121.59000000000015,25.986999999999966 C121.5300000000002,25.951000000000022 121.44000000000005,25.91700000000003 121.30999999999995,25.885999999999967 L121.30999999999995,25.775999999999954 L122.28999999999996,25.775999999999954 L122.28999999999996,25.885999999999967 C122.21000000000004,25.91700000000003 122.15000000000009,25.956000000000017 122.11999999999989,26.003000000000043 C122.09000000000015,26.049999999999955 122.0300000000002,26.15700000000004 121.96000000000004,26.32299999999998 L120.84999999999991,29.089000000000055 C120.75,29.349000000000046 120.67999999999984,29.479000000000042 120.63000000000011,29.479000000000042 C120.59000000000015,29.479000000000042 120.5300000000002,29.36500000000001 120.44999999999982,29.135999999999967 L119.71000000000004,27.245000000000005 L118.82000000000016,29.16700000000003 C118.73000000000002,29.375 118.65999999999985,29.479000000000042 118.61999999999989,29.479000000000042 C118.57999999999993,29.479000000000042 118.51000000000022,29.36500000000001 118.40999999999985,29.135999999999967 L117.34000000000015,26.400999999999954 C117.25,26.192999999999984 117.19000000000005,26.057999999999993 117.13000000000011,25.995000000000005 C117.07999999999993,25.932999999999993 117.01000000000022,25.895999999999958 116.90999999999985,25.885999999999967 L116.90999999999985,25.775999999999954 L118.34999999999991,25.775999999999954 L118.34999999999991,25.885999999999967 C118.21000000000004,25.90700000000004 118.11000000000013,25.934999999999945 118.05999999999995,25.97199999999998 C118.0,26.008000000000038 117.98000000000002,26.067999999999984 117.98000000000002,26.150999999999954 C117.98000000000002,26.235000000000014 117.98999999999978,26.317999999999984 118.01999999999998,26.400999999999954 L118.82000000000016,28.479000000000042 L119.53999999999996,26.885999999999967 M122.55999999999995,28.57299999999998 C122.55999999999995,28.479000000000042 122.57000000000016,28.394000000000005 122.59000000000015,28.315000000000055 C122.61000000000013,28.236999999999966 122.63999999999987,28.162000000000035 122.69999999999982,28.089000000000055 C122.75,28.015999999999963 122.80000000000018,27.951000000000022 122.84999999999991,27.894000000000005 C122.90000000000009,27.836000000000013 122.98000000000002,27.775999999999954 123.07000000000016,27.714000000000055 C123.15999999999985,27.650999999999954 123.23999999999978,27.599000000000046 123.30999999999995,27.557999999999993 C123.36999999999989,27.515999999999963 123.46000000000004,27.46900000000005 123.59000000000015,27.41700000000003 C123.71000000000004,27.36500000000001 123.80999999999995,27.32299999999998 123.88000000000011,27.29200000000003 C123.94000000000005,27.260999999999967 124.05000000000018,27.216000000000008 124.19999999999982,27.158999999999992 C124.34999999999991,27.101999999999975 124.46000000000004,27.057999999999993 124.51999999999998,27.025999999999954 L124.51999999999998,26.54200000000003 C124.51999999999998,26.104000000000042 124.32999999999993,25.885999999999967 123.92999999999984,25.885999999999967 C123.76000000000022,25.885999999999967 123.63000000000011,25.924999999999955 123.51999999999998,26.003000000000043 C123.40999999999985,26.081000000000017 123.34999999999991,26.172000000000025 123.34999999999991,26.275999999999954 C123.34999999999991,26.317999999999984 123.36000000000013,26.375 123.38000000000011,26.44799999999998 C123.38999999999987,26.520999999999958 123.40000000000009,26.567999999999984 123.40000000000009,26.589000000000055 C123.40000000000009,26.682999999999993 123.36000000000013,26.763000000000034 123.28999999999996,26.831000000000017 C123.2199999999998,26.899 123.13000000000011,26.932999999999993 123.01999999999998,26.932999999999993 C122.92999999999984,26.932999999999993 122.84999999999991,26.899 122.7800000000002,26.831000000000017 C122.71000000000004,26.763000000000034 122.67999999999984,26.682999999999993 122.67999999999984,26.589000000000055 C122.67999999999984,26.339000000000055 122.80999999999995,26.128000000000043 123.07000000000016,25.956000000000017 C123.32999999999993,25.783999999999992 123.65000000000009,25.69799999999998 124.01999999999998,25.69799999999998 C124.44999999999982,25.69799999999998 124.75,25.80200000000002 124.90999999999985,26.010999999999967 C125.07000000000016,26.21900000000005 125.15000000000009,26.537000000000035 125.15000000000009,26.964000000000055 L125.15000000000009,28.510999999999967 C125.15000000000009,28.687999999999988 125.17000000000007,28.809999999999945 125.19999999999982,28.878000000000043 C125.23999999999978,28.946000000000026 125.30999999999995,28.979000000000042 125.40000000000009,28.979000000000042 C125.5,28.979000000000042 125.61999999999989,28.92700000000002 125.73999999999978,28.82299999999998 L125.73999999999978,29.04200000000003 C125.61000000000013,29.19799999999998 125.48999999999978,29.30499999999995 125.38000000000011,29.361999999999966 C125.2800000000002,29.41999999999996 125.15999999999985,29.44799999999998 125.01999999999998,29.44799999999998 C124.86999999999989,29.44799999999998 124.75,29.400999999999954 124.67999999999984,29.307999999999993 C124.61000000000013,29.214000000000055 124.55999999999995,29.062999999999988 124.53999999999996,28.854000000000042 C124.07999999999993,29.25 123.69999999999982,29.44799999999998 123.38000000000011,29.44799999999998 C123.13999999999987,29.44799999999998 122.94999999999982,29.366999999999962 122.78999999999996,29.206000000000017 C122.63000000000011,29.04499999999996 122.55999999999995,28.833999999999946 122.55999999999995,28.57299999999998 M124.51999999999998,28.370000000000005 L124.51999999999998,27.214000000000055 C124.05000000000018,27.390999999999963 123.71000000000004,27.562999999999988 123.51999999999998,27.729000000000042 C123.34000000000015,27.895999999999958 123.23999999999978,28.09400000000005 123.23999999999978,28.32299999999998 C123.23999999999978,28.54200000000003 123.30000000000018,28.702999999999975 123.40000000000009,28.807999999999993 C123.5,28.912000000000035 123.61999999999989,28.964000000000055 123.73999999999978,28.964000000000055 C123.92000000000007,28.964000000000055 124.11000000000013,28.90700000000004 124.32000000000016,28.79200000000003 C124.40000000000009,28.74000000000001 124.46000000000004,28.687999999999988 124.48999999999978,28.635999999999967 C124.51000000000022,28.583999999999946 124.51999999999998,28.495000000000005 124.51999999999998,28.370000000000005 M128.21000000000004,26.44799999999998 C128.1300000000001,26.44799999999998 128.0300000000002,26.400999999999954 127.90999999999985,26.307999999999993 C127.78999999999996,26.214000000000055 127.71000000000004,26.16700000000003 127.67999999999984,26.16700000000003 C127.57999999999993,26.16700000000003 127.46000000000004,26.245000000000005 127.32000000000016,26.400999999999954 C127.19000000000005,26.557999999999993 127.11999999999989,26.702999999999975 127.11999999999989,26.839000000000055 L127.11999999999989,28.650999999999954 C127.11999999999989,28.879999999999995 127.15999999999985,29.033999999999992 127.25,29.111999999999966 C127.34000000000015,29.190000000000055 127.51999999999998,29.235000000000014 127.78999999999996,29.245000000000005 L127.78999999999996,29.370000000000005 L125.86999999999989,29.370000000000005 L125.86999999999989,29.245000000000005 C126.13000000000011,29.202999999999975 126.28999999999996,29.150999999999954 126.34000000000015,29.089000000000055 C126.40000000000009,29.025999999999954 126.42999999999984,28.895999999999958 126.42999999999984,28.69799999999998 L126.42999999999984,26.682999999999993 C126.42999999999984,26.504999999999995 126.40999999999985,26.379999999999995 126.38000000000011,26.307999999999993 C126.34000000000015,26.235000000000014 126.26999999999998,26.19799999999998 126.15999999999985,26.19799999999998 C126.07999999999993,26.19799999999998 125.98999999999978,26.208999999999946 125.88000000000011,26.229000000000042 L125.88000000000011,26.104000000000042 C126.30999999999995,25.96900000000005 126.71000000000004,25.833999999999946 127.07000000000016,25.69799999999998 L127.11999999999989,25.714000000000055 L127.11999999999989,26.41700000000003 C127.32000000000016,26.145999999999958 127.48000000000002,25.958999999999946 127.61999999999989,25.854000000000042 C127.75,25.75 127.90000000000009,25.69799999999998 128.07000000000016,25.69799999999998 C128.2199999999998,25.69799999999998 128.32999999999993,25.73199999999997 128.4000000000001,25.799999999999955 C128.4699999999998,25.866999999999962 128.51000000000022,25.96900000000005 128.51000000000022,26.104000000000042 C128.51000000000022,26.208999999999946 128.48000000000002,26.29200000000003 128.42999999999984,26.354000000000042 C128.3800000000001,26.41700000000003 128.30999999999995,26.44799999999998 128.21000000000004,26.44799999999998 M131.19999999999982,24.729000000000042 C131.11000000000013,24.729000000000042 131.03999999999996,24.69799999999998 130.98000000000002,24.635999999999967 C130.90999999999985,24.57299999999998 130.8699999999999,24.504999999999995 130.82999999999993,24.432999999999993 C130.78999999999996,24.360000000000014 130.73999999999978,24.29200000000003 130.65999999999985,24.229000000000042 C130.59000000000015,24.16700000000003 130.51000000000022,24.135999999999967 130.40999999999985,24.135999999999967 C130.11000000000013,24.135999999999967 129.96000000000004,24.370000000000005 129.96000000000004,24.839000000000055 L129.96000000000004,25.775999999999954 L130.94999999999982,25.775999999999954 L130.94999999999982,26.010999999999967 L129.96000000000004,26.010999999999967 L129.96000000000004,28.54200000000003 C129.96000000000004,28.833999999999946 130.0,29.020999999999958 130.09000000000015,29.104000000000042 C130.17000000000007,29.187999999999988 130.3800000000001,29.235000000000014 130.71000000000004,29.245000000000005 L130.71000000000004,29.370000000000005 L128.6199999999999,29.370000000000005 L128.6199999999999,29.245000000000005 C128.90999999999985,29.235000000000014 129.09000000000015,29.187999999999988 129.17000000000007,29.104000000000042 C129.25,29.020999999999958 129.28999999999996,28.833999999999946 129.28999999999996,28.54200000000003 L129.28999999999996,26.010999999999967 L128.6300000000001,26.010999999999967 L128.6300000000001,25.775999999999954 L129.28999999999996,25.775999999999954 C129.30000000000018,25.172000000000025 129.40999999999985,24.706000000000017 129.6300000000001,24.378000000000043 C129.84000000000015,24.049999999999955 130.19999999999982,23.885999999999967 130.69999999999982,23.885999999999967 C130.94000000000005,23.885999999999967 131.1300000000001,23.934999999999945 131.28999999999996,24.033999999999992 C131.44999999999982,24.133000000000038 131.51999999999998,24.254999999999995 131.51999999999998,24.400999999999954 C131.51999999999998,24.495000000000005 131.48999999999978,24.57299999999998 131.42999999999984,24.635999999999967 C131.3699999999999,24.69799999999998 131.28999999999996,24.729000000000042 131.19999999999982,24.729000000000042 M138.9000000000001,24.79200000000003 L136.8499999999999,29.370000000000005 L136.73999999999978,29.370000000000005 L134.73999999999978,24.979000000000042 L134.73999999999978,28.19799999999998 C134.73999999999978,28.604000000000042 134.78999999999996,28.873000000000047 134.8800000000001,29.003000000000043 C134.98000000000002,29.133000000000038 135.17999999999984,29.202999999999975 135.48999999999978,29.214000000000055 L135.48999999999978,29.370000000000005 L133.6199999999999,29.370000000000005 L133.6199999999999,29.214000000000055 C133.94000000000005,29.192999999999984 134.1500000000001,29.120000000000005 134.23999999999978,28.995000000000005 C134.34000000000015,28.870000000000005 134.3800000000001,28.604000000000042 134.3800000000001,28.19799999999998 L134.3800000000001,24.94799999999998 C134.3800000000001,24.65700000000004 134.34000000000015,24.46900000000005 134.25,24.385999999999967 C134.15999999999985,24.30200000000002 133.96000000000004,24.25 133.6300000000001,24.229000000000042 L133.6300000000001,24.07299999999998 L135.21000000000004,24.07299999999998 L137.05999999999995,28.120000000000005 L138.82000000000016,24.07299999999998 L140.40999999999985,24.07299999999998 L140.40999999999985,24.229000000000042 C140.11000000000013,24.260999999999967 139.92000000000007,24.317999999999984 139.84000000000015,24.400999999999954 C139.76999999999998,24.485000000000014 139.73000000000002,24.66700000000003 139.73000000000002,24.94799999999998 L139.73000000000002,28.495000000000005 C139.73000000000002,28.775999999999954 139.76999999999998,28.961000000000013 139.8499999999999,29.049999999999955 C139.94000000000005,29.138000000000034 140.1199999999999,29.192999999999984 140.40999999999985,29.214000000000055 L140.40999999999985,29.370000000000005 L138.17999999999984,29.370000000000005 L138.17999999999984,29.214000000000055 C138.48999999999978,29.192999999999984 138.69000000000005,29.135999999999967 138.76999999999998,29.04200000000003 C138.86000000000013,28.94799999999998 138.9000000000001,28.74000000000001 138.9000000000001,28.41700000000003 L138.9000000000001,24.79200000000003 M144.3800000000001,28.94799999999998 L144.3800000000001,29.07299999999998 C143.9699999999998,29.187999999999988 143.5999999999999,29.312999999999988 143.28999999999996,29.44799999999998 L143.26000000000022,29.432999999999993 L143.23999999999978,28.745000000000005 C143.23000000000002,28.765999999999963 143.19000000000005,28.815000000000055 143.11000000000013,28.894000000000005 C143.0300000000002,28.97199999999998 142.98000000000002,29.025999999999954 142.94999999999982,29.057999999999993 C142.90999999999985,29.089000000000055 142.86000000000013,29.135999999999967 142.7800000000002,29.19799999999998 C142.69999999999982,29.260999999999967 142.63999999999987,29.30499999999995 142.57999999999993,29.331000000000017 C142.51999999999998,29.35699999999997 142.44999999999982,29.383000000000038 142.36000000000013,29.408999999999992 C142.26999999999998,29.434999999999945 142.17999999999984,29.44799999999998 142.09000000000015,29.44799999999998 C141.80000000000018,29.44799999999998 141.55999999999995,29.351999999999975 141.3800000000001,29.158999999999992 C141.21000000000004,28.966000000000008 141.1199999999999,28.714000000000055 141.1199999999999,28.400999999999954 L141.1199999999999,26.385999999999967 C141.1199999999999,26.208999999999946 141.07999999999993,26.083999999999946 141.01999999999998,26.010999999999967 C140.94999999999982,25.937999999999988 140.82000000000016,25.895999999999958 140.6199999999999,25.885999999999967 L140.6199999999999,25.775999999999954 L141.78999999999996,25.775999999999954 L141.78999999999996,28.370000000000005 C141.78999999999996,28.525999999999954 141.8499999999999,28.663999999999987 141.96000000000004,28.783999999999992 C142.07999999999993,28.903999999999996 142.21000000000004,28.964000000000055 142.3499999999999,28.964000000000055 C142.40999999999985,28.964000000000055 142.48999999999978,28.956000000000017 142.55999999999995,28.940000000000055 C142.63999999999987,28.924999999999955 142.73000000000002,28.895999999999958 142.84000000000015,28.854000000000042 C142.94000000000005,28.812999999999988 143.0300000000002,28.741999999999962 143.0999999999999,28.644000000000005 C143.17999999999984,28.54499999999996 143.21000000000004,28.422000000000025 143.21000000000004,28.275999999999954 L143.21000000000004,26.400999999999954 C143.21000000000004,26.214000000000055 143.17999999999984,26.086000000000013 143.0999999999999,26.019000000000005 C143.0300000000002,25.951000000000022 142.8699999999999,25.912000000000035 142.6199999999999,25.900999999999954 L142.6199999999999,25.775999999999954 L143.8800000000001,25.775999999999954 L143.8800000000001,28.495000000000005 C143.8800000000001,28.682999999999993 143.90999999999985,28.80499999999995 143.98000000000002,28.861999999999966 C144.03999999999996,28.91999999999996 144.15999999999985,28.94799999999998 144.3499999999999,28.94799999999998 L144.3800000000001,28.94799999999998 M146.59000000000015,25.854000000000042 C146.5999999999999,25.854000000000042 146.63999999999987,25.827999999999975 146.71000000000004,25.775999999999954 L146.80999999999995,25.775999999999954 L146.84000000000015,26.854000000000042 L146.71000000000004,26.854000000000042 C146.6300000000001,26.5 146.51999999999998,26.248000000000047 146.3800000000001,26.09699999999998 C146.25,25.946000000000026 146.07000000000016,25.870000000000005 145.84000000000015,25.870000000000005 C145.65999999999985,25.870000000000005 145.51000000000022,25.922000000000025 145.4000000000001,26.025999999999954 C145.2800000000002,26.129999999999995 145.23000000000002,26.260999999999967 145.23000000000002,26.41700000000003 C145.23000000000002,26.645999999999958 145.34000000000015,26.827999999999975 145.57000000000016,26.964000000000055 L146.42999999999984,27.479000000000042 C146.67000000000007,27.625 146.84000000000015,27.770999999999958 146.94999999999982,27.91700000000003 C147.05000000000018,28.062999999999988 147.0999999999999,28.235000000000014 147.0999999999999,28.432999999999993 C147.0999999999999,28.702999999999975 146.98999999999978,28.940000000000055 146.76999999999998,29.144000000000005 C146.53999999999996,29.34699999999998 146.2800000000002,29.44799999999998 145.98000000000002,29.44799999999998 C145.84000000000015,29.44799999999998 145.65999999999985,29.424999999999955 145.44000000000005,29.378000000000043 C145.21000000000004,29.331000000000017 145.07999999999993,29.307999999999993 145.01999999999998,29.307999999999993 C144.94000000000005,29.307999999999993 144.8800000000001,29.339000000000055 144.84000000000015,29.400999999999954 L144.73000000000002,29.400999999999954 L144.73000000000002,28.150999999999954 L144.8699999999999,28.150999999999954 C144.94999999999982,28.525999999999954 145.05000000000018,28.79200000000003 145.15999999999985,28.94799999999998 C145.32999999999993,29.16700000000003 145.57000000000016,29.275999999999954 145.8800000000001,29.275999999999954 C146.07999999999993,29.275999999999954 146.23999999999978,29.224000000000046 146.36000000000013,29.120000000000005 C146.48000000000002,29.015999999999963 146.53999999999996,28.875 146.53999999999996,28.69799999999998 C146.53999999999996,28.458999999999946 146.4000000000001,28.260999999999967 146.1199999999999,28.104000000000042 L145.65999999999985,27.839000000000055 C145.32000000000016,27.640999999999963 145.07999999999993,27.456000000000017 144.94000000000005,27.283999999999992 C144.80000000000018,27.111999999999966 144.73000000000002,26.912000000000035 144.73000000000002,26.682999999999993 C144.73000000000002,26.390999999999963 144.82999999999993,26.153999999999996 145.0300000000002,25.97199999999998 C145.23999999999978,25.788999999999987 145.5,25.69799999999998 145.82000000000016,25.69799999999998 C145.98999999999978,25.69799999999998 146.1500000000001,25.724000000000046 146.30999999999995,25.775999999999954 C146.46000000000004,25.827999999999975 146.55999999999995,25.854000000000042 146.59000000000015,25.854000000000042 M147.8699999999999,26.229000000000042 C147.73999999999978,26.229000000000042 147.6300000000001,26.235000000000014 147.51999999999998,26.245000000000005 L147.51999999999998,26.135999999999967 C147.9000000000001,26.03200000000004 148.32000000000016,25.885999999999967 148.76999999999998,25.69799999999998 L148.80999999999995,25.714000000000055 L148.80999999999995,28.557999999999993 C148.80999999999995,28.839000000000055 148.84000000000015,29.019000000000005 148.90999999999985,29.09699999999998 C148.9699999999998,29.174999999999955 149.13999999999987,29.224000000000046 149.4000000000001,29.245000000000005 L149.4000000000001,29.370000000000005 L147.48999999999978,29.370000000000005 L147.48999999999978,29.245000000000005 C147.76999999999998,29.235000000000014 147.94999999999982,29.187999999999988 148.01999999999998,29.104000000000042 C148.0999999999999,29.020999999999958 148.1300000000001,28.839000000000055 148.1300000000001,28.557999999999993 L148.1300000000001,26.69799999999998 C148.1300000000001,26.520999999999958 148.11000000000013,26.399 148.07000000000016,26.331000000000017 C148.0300000000002,26.263000000000034 147.96000000000004,26.229000000000042 147.8699999999999,26.229000000000042 M148.4000000000001,23.900999999999954 C148.51000000000022,23.900999999999954 148.61000000000013,23.942999999999984 148.69999999999982,24.025999999999954 C148.7800000000002,24.110000000000014 148.82000000000016,24.208999999999946 148.82000000000016,24.32299999999998 C148.82000000000016,24.437999999999988 148.7800000000002,24.533999999999992 148.69999999999982,24.611999999999966 C148.61000000000013,24.690000000000055 148.51000000000022,24.729000000000042 148.4000000000001,24.729000000000042 C148.2800000000002,24.729000000000042 148.19000000000005,24.687999999999988 148.11000000000013,24.604000000000042 C148.0300000000002,24.520999999999958 147.98999999999978,24.424999999999955 147.98999999999978,24.315000000000055 C147.98999999999978,24.206000000000017 148.0300000000002,24.110000000000014 148.11000000000013,24.025999999999954 C148.19000000000005,23.942999999999984 148.2800000000002,23.900999999999954 148.4000000000001,23.900999999999954 M149.78999999999996,27.66700000000003 C149.78999999999996,27.07299999999998 149.96000000000004,26.59699999999998 150.30999999999995,26.236999999999966 C150.65999999999985,25.878000000000043 151.07000000000016,25.69799999999998 151.53999999999996,25.69799999999998 C151.8699999999999,25.69799999999998 152.15999999999985,25.778999999999996 152.38999999999987,25.940000000000055 C152.6300000000001,26.101999999999975 152.73999999999978,26.297000000000025 152.73999999999978,26.525999999999954 C152.73999999999978,26.610000000000014 152.71000000000004,26.684999999999945 152.6300000000001,26.753000000000043 C152.55999999999995,26.821000000000026 152.4699999999998,26.854000000000042 152.3699999999999,26.854000000000042 C152.19000000000005,26.854000000000042 152.07000000000016,26.735000000000014 152.01000000000022,26.495000000000005 L151.96000000000004,26.32299999999998 C151.92000000000007,26.16700000000003 151.8699999999999,26.062999999999988 151.80999999999995,26.010999999999967 C151.73999999999978,25.958999999999946 151.63999999999987,25.932999999999993 151.48999999999978,25.932999999999993 C151.17000000000007,25.932999999999993 150.90999999999985,26.059999999999945 150.71000000000004,26.315000000000055 C150.51000000000022,26.571000000000026 150.40999999999985,26.90700000000004 150.40999999999985,27.32299999999998 C150.40999999999985,27.770999999999958 150.5300000000002,28.140999999999963 150.76000000000022,28.432999999999993 C150.98999999999978,28.724000000000046 151.2800000000002,28.870000000000005 151.6500000000001,28.870000000000005 C151.8699999999999,28.870000000000005 152.05999999999995,28.812999999999988 152.2199999999998,28.69799999999998 C152.3800000000001,28.583999999999946 152.55999999999995,28.390999999999963 152.73999999999978,28.120000000000005 L152.8499999999999,28.182999999999993 C152.80000000000018,28.297000000000025 152.76000000000022,28.388000000000034 152.7199999999998,28.456000000000017 C152.67999999999984,28.524 152.61000000000013,28.628000000000043 152.51000000000022,28.769000000000005 C152.4000000000001,28.908999999999992 152.30000000000018,29.020999999999958 152.19999999999982,29.104000000000042 C152.0999999999999,29.187999999999988 151.9699999999998,29.265999999999963 151.80999999999995,29.339000000000055 C151.6500000000001,29.412000000000035 151.48000000000002,29.44799999999998 151.30999999999995,29.44799999999998 C150.8699999999999,29.44799999999998 150.51000000000022,29.28200000000004 150.2199999999998,28.94799999999998 C149.92999999999984,28.61500000000001 149.78999999999996,28.187999999999988 149.78999999999996,27.66700000000003 M154.1300000000001,28.57299999999998 C154.25,28.57299999999998 154.3499999999999,28.616999999999962 154.44000000000005,28.706000000000017 C154.5300000000002,28.79499999999996 154.57000000000016,28.900999999999954 154.57000000000016,29.025999999999954 C154.57000000000016,29.140999999999963 154.5300000000002,29.241999999999962 154.44000000000005,29.331000000000017 C154.3499999999999,29.41999999999996 154.23999999999978,29.464000000000055 154.1199999999999,29.464000000000055 C154.0,29.464000000000055 153.9000000000001,29.41999999999996 153.82000000000016,29.331000000000017 C153.73999999999978,29.241999999999962 153.69999999999982,29.140999999999963 153.69999999999982,29.025999999999954 C153.69999999999982,28.900999999999954 153.73999999999978,28.79499999999996 153.82999999999993,28.706000000000017 C153.92000000000007,28.616999999999962 154.01999999999998,28.57299999999998 154.1300000000001,28.57299999999998" />
</svg>
