<?xml version="1.0" encoding="UTF-8" standalone="yes"?>
<svg width="256.0px" height="256.0px" xmlns="http://www.w3.org/2000/svg" xmlns:xlink="http://www.w3.org/1999/xlink" version="1.2" baseProfile="tiny">
<path d="M251.5,28.01800000000003 L251.5,29.565000000000055 C251.5,30.116999999999962 251.5,30.55499999999995 251.5,30.878000000000043 C252.0,30.513000000000034 252.29999999999927,30.241999999999962 252.5,30.065000000000055 C252.70000000000073,29.85699999999997 252.89999999999964,29.567999999999984 253.10000000000036,29.19799999999998 C253.29999999999927,28.827999999999975 253.39999999999964,28.461000000000013 253.39999999999964,28.096000000000004 C253.39999999999964,27.73199999999997 253.29999999999927,27.418999999999983 253.20000000000073,27.158999999999992 C253.0,26.899 252.79999999999927,26.76800000000003 252.5,26.76800000000003 C252.20000000000073,26.76800000000003 252.0,26.888000000000034 251.79999999999927,27.128000000000043 C251.60000000000036,27.388000000000034 251.5,27.684999999999945 251.5,28.01800000000003 M250.60000000000036,31.596000000000004 L250.39999999999964,19.706000000000017 C250.60000000000036,19.601999999999975 250.79999999999927,19.549999999999955 250.89999999999964,19.549999999999955 C251.10000000000036,19.549999999999955 251.29999999999927,19.601999999999975 251.5,19.706000000000017 L251.29999999999927,26.596000000000004 C251.89999999999964,26.138000000000034 252.5,25.908999999999992 253.20000000000073,25.908999999999992 C253.70000000000073,25.908999999999992 254.10000000000036,26.116999999999962 254.39999999999964,26.533999999999992 C254.79999999999927,26.951000000000022 254.89999999999964,27.42999999999995 254.89999999999964,27.971000000000004 C254.89999999999964,28.30499999999995 254.79999999999927,28.663999999999987 254.60000000000036,29.049999999999955 C254.39999999999964,29.39300000000003 254.20000000000073,29.663999999999987 253.89999999999964,29.861999999999966 C253.79999999999927,29.966000000000008 253.5,30.226999999999975 252.89999999999964,30.64300000000003 C252.79999999999927,30.758000000000038 252.60000000000036,30.89300000000003 252.39999999999964,31.049999999999955 C252.20000000000073,31.206000000000017 252.0,31.30499999999995 252.0,31.346000000000004 C251.89999999999964,31.399 251.79999999999927,31.503000000000043 251.70000000000073,31.658999999999992 C251.60000000000036,31.793999999999983 251.5,31.903999999999996 251.39999999999964,31.986999999999966 C251.29999999999927,32.07000000000005 251.20000000000073,32.111999999999966 251.10000000000036,32.111999999999966 C251.0,32.111999999999966 250.89999999999964,32.065000000000055 250.79999999999927,31.971000000000004 C250.70000000000073,31.878000000000043 250.60000000000036,31.753000000000043 250.60000000000036,31.596000000000004" />
<path d="M128.0,22.581000000000017 C128.0,22.831000000000017 127.89999999999964,22.956000000000017 127.60000000000036,22.956000000000017 C127.39999999999964,22.956000000000017 127.29999999999927,22.831000000000017 127.29999999999927,22.581000000000017 L127.29999999999927,19.690000000000055 L125.60000000000036,20.315000000000055 L125.60000000000036,23.471000000000004 C125.60000000000036,23.721000000000004 125.5,23.846000000000004 125.20000000000073,23.846000000000004 C125.0,23.846000000000004 124.89999999999964,23.721000000000004 124.89999999999964,23.471000000000004 L124.89999999999964,20.565000000000055 L124.20000000000073,20.799999999999955 C124.20000000000073,20.809999999999945 124.20000000000073,20.815000000000055 124.10000000000036,20.815000000000055 C124.0,20.815000000000055 123.89999999999964,20.775999999999954 123.79999999999927,20.69799999999998 C123.70000000000073,20.620000000000005 123.70000000000073,20.528999999999996 123.70000000000073,20.424999999999955 L123.70000000000073,19.221000000000004 C123.70000000000073,19.024 123.79999999999927,18.899 123.89999999999964,18.846000000000004 L124.89999999999964,18.533999999999992 L124.89999999999964,15.331000000000017 L124.20000000000073,15.549999999999955 C124.20000000000073,15.559999999999945 124.20000000000073,15.565000000000055 124.10000000000036,15.565000000000055 C124.0,15.565000000000055 123.89999999999964,15.525999999999954 123.79999999999927,15.447999999999979 C123.70000000000073,15.370000000000005 123.70000000000073,15.278999999999996 123.70000000000073,15.174999999999955 L123.70000000000073,13.956000000000017 C123.70000000000073,13.778999999999996 123.79999999999927,13.663999999999987 123.89999999999964,13.611999999999966 L124.89999999999964,13.253000000000043 L124.89999999999964,10.111999999999966 C124.89999999999964,9.861999999999966 125.0,9.736999999999966 125.20000000000073,9.736999999999966 C125.5,9.736999999999966 125.60000000000036,9.861999999999966 125.60000000000036,10.111999999999966 L125.60000000000036,13.003000000000043 L127.29999999999927,12.378000000000043 L127.29999999999927,9.221000000000004 C127.29999999999927,8.971000000000004 127.39999999999964,8.846000000000004 127.60000000000036,8.846000000000004 C127.89999999999964,8.846000000000004 128.0,8.971000000000004 128.0,9.221000000000004 L128.0,12.128000000000043 L128.70000000000073,11.893000000000029 C128.70000000000073,11.883000000000038 128.70000000000073,11.878000000000043 128.79999999999927,11.878000000000043 C128.89999999999964,11.878000000000043 129.0,11.913999999999987 129.10000000000036,11.986999999999966 C129.20000000000073,12.07000000000005 129.20000000000073,12.163999999999987 129.20000000000073,12.268000000000029 L129.20000000000073,13.471000000000004 C129.20000000000073,13.658999999999992 129.10000000000036,13.783999999999992 128.89999999999964,13.846000000000004 L128.0,14.158999999999992 L128.0,17.361999999999966 L128.70000000000073,17.14300000000003 C128.70000000000073,17.133000000000038 128.70000000000073,17.128000000000043 128.79999999999927,17.128000000000043 C128.89999999999964,17.128000000000043 129.0,17.168999999999983 129.10000000000036,17.253000000000043 C129.20000000000073,17.326000000000022 129.20000000000073,17.413999999999987 129.20000000000073,17.51800000000003 L129.20000000000073,18.736999999999966 C129.20000000000073,18.903999999999996 129.10000000000036,19.01800000000003 128.89999999999964,19.081000000000017 L128.0,19.440000000000055 L128.0,22.581000000000017 M127.29999999999927,14.456000000000017 L125.60000000000036,15.033999999999992 L125.60000000000036,18.236999999999966 L127.29999999999927,17.658999999999992 L127.29999999999927,14.456000000000017" />
<path d="M100.0,20.51800000000003 L100.0,22.065000000000055 C100.0,22.616999999999962 100.10000000000036,23.05499999999995 100.10000000000036,23.378000000000043 C100.60000000000036,23.013000000000034 100.89999999999964,22.741999999999962 101.0,22.565000000000055 C101.29999999999927,22.35699999999997 101.5,22.067999999999984 101.70000000000073,21.69799999999998 C101.89999999999964,21.327999999999975 102.0,20.961000000000013 102.0,20.596000000000004 C102.0,20.23199999999997 101.89999999999964,19.918999999999983 101.70000000000073,19.658999999999992 C101.60000000000036,19.399 101.39999999999964,19.26800000000003 101.10000000000036,19.26800000000003 C100.79999999999927,19.26800000000003 100.60000000000036,19.388000000000034 100.29999999999927,19.628000000000043 C100.10000000000036,19.888000000000034 100.0,20.184999999999945 100.0,20.51800000000003 M99.20000000000073,24.096000000000004 L99.0,12.206000000000017 C99.20000000000073,12.101999999999975 99.29999999999927,12.049999999999955 99.5,12.049999999999955 C99.70000000000073,12.049999999999955 99.89999999999964,12.101999999999975 100.10000000000036,12.206000000000017 L99.89999999999964,19.096000000000004 C100.39999999999964,18.638000000000034 101.10000000000036,18.408999999999992 101.70000000000073,18.408999999999992 C102.20000000000073,18.408999999999992 102.70000000000073,18.616999999999962 103.0,19.033999999999992 C103.29999999999927,19.451000000000022 103.5,19.92999999999995 103.5,20.471000000000004 C103.5,20.80499999999995 103.39999999999964,21.163999999999987 103.20000000000073,21.549999999999955 C103.0,21.89300000000003 102.79999999999927,22.163999999999987 102.5,22.361999999999966 C102.39999999999964,22.466000000000008 102.10000000000036,22.726999999999975 101.5,23.14300000000003 C101.39999999999964,23.258000000000038 101.20000000000073,23.39300000000003 101.0,23.549999999999955 C100.79999999999927,23.706000000000017 100.60000000000036,23.80499999999995 100.60000000000036,23.846000000000004 C100.5,23.899 100.39999999999964,24.003000000000043 100.29999999999927,24.158999999999992 C100.20000000000073,24.293999999999983 100.10000000000036,24.403999999999996 100.0,24.486999999999966 C99.89999999999964,24.57000000000005 99.79999999999927,24.611999999999966 99.70000000000073,24.611999999999966 C99.5,24.611999999999966 99.39999999999964,24.565000000000055 99.39999999999964,24.471000000000004 C99.29999999999927,24.378000000000043 99.20000000000073,24.253000000000043 99.20000000000073,24.096000000000004" />
<path d="M76.70000000000073,40.08100000000002 C76.70000000000073,40.33100000000002 76.60000000000036,40.45600000000002 76.29999999999927,40.45600000000002 C76.10000000000036,40.45600000000002 76.0,40.33100000000002 76.0,40.08100000000002 L76.0,37.190000000000055 L74.29999999999927,37.815000000000055 L74.29999999999927,40.971000000000004 C74.29999999999927,41.221000000000004 74.20000000000073,41.346000000000004 73.89999999999964,41.346000000000004 C73.70000000000073,41.346000000000004 73.60000000000036,41.221000000000004 73.60000000000036,40.971000000000004 L73.60000000000036,38.065000000000055 L72.89999999999964,38.299999999999955 C72.89999999999964,38.309999999999945 72.89999999999964,38.315000000000055 72.79999999999927,38.315000000000055 C72.70000000000073,38.315000000000055 72.60000000000036,38.275999999999954 72.5,38.19799999999998 C72.39999999999964,38.120000000000005 72.39999999999964,38.028999999999996 72.39999999999964,37.924999999999955 L72.39999999999964,36.721000000000004 C72.39999999999964,36.524 72.5,36.399 72.60000000000036,36.346000000000004 L73.60000000000036,36.03399999999999 L73.60000000000036,32.83100000000002 L72.89999999999964,33.049999999999955 C72.89999999999964,33.059999999999945 72.89999999999964,33.065000000000055 72.79999999999927,33.065000000000055 C72.70000000000073,33.065000000000055 72.60000000000036,33.025999999999954 72.5,32.94799999999998 C72.39999999999964,32.870000000000005 72.39999999999964,32.778999999999996 72.39999999999964,32.674999999999955 L72.39999999999964,31.456000000000017 C72.39999999999964,31.278999999999996 72.5,31.163999999999987 72.60000000000036,31.111999999999966 L73.60000000000036,30.753000000000043 L73.60000000000036,27.611999999999966 C73.60000000000036,27.361999999999966 73.70000000000073,27.236999999999966 73.89999999999964,27.236999999999966 C74.20000000000073,27.236999999999966 74.29999999999927,27.361999999999966 74.29999999999927,27.611999999999966 L74.29999999999927,30.503000000000043 L76.0,29.878000000000043 L76.0,26.721000000000004 C76.0,26.471000000000004 76.10000000000036,26.346000000000004 76.29999999999927,26.346000000000004 C76.60000000000036,26.346000000000004 76.70000000000073,26.471000000000004 76.70000000000073,26.721000000000004 L76.70000000000073,29.628000000000043 L77.39999999999964,29.39300000000003 C77.39999999999964,29.383000000000038 77.39999999999964,29.378000000000043 77.5,29.378000000000043 C77.60000000000036,29.378000000000043 77.70000000000073,29.413999999999987 77.79999999999927,29.486999999999966 C77.89999999999964,29.57000000000005 77.89999999999964,29.663999999999987 77.89999999999964,29.76800000000003 L77.89999999999964,30.971000000000004 C77.89999999999964,31.158999999999992 77.79999999999927,31.283999999999992 77.60000000000036,31.346000000000004 L76.70000000000073,31.658999999999992 L76.70000000000073,34.861999999999966 L77.39999999999964,34.64300000000003 C77.39999999999964,34.63300000000004 77.39999999999964,34.62800000000004 77.5,34.62800000000004 C77.60000000000036,34.62800000000004 77.70000000000073,34.66899999999998 77.79999999999927,34.75300000000004 C77.89999999999964,34.82600000000002 77.89999999999964,34.91399999999999 77.89999999999964,35.01800000000003 L77.89999999999964,36.236999999999966 C77.89999999999964,36.403999999999996 77.79999999999927,36.51800000000003 77.60000000000036,36.58100000000002 L76.70000000000073,36.940000000000055 L76.70000000000073,40.08100000000002 M76.0,31.956000000000017 L74.29999999999927,32.53399999999999 L74.29999999999927,35.736999999999966 L76.0,35.15899999999999 L76.0,31.956000000000017" />
<path d="M75.70000000000073,0.08100000000001728 C75.70000000000073,0.3310000000000173 75.60000000000036,0.4560000000000173 75.29999999999927,0.4560000000000173 C75.10000000000036,0.4560000000000173 75.0,0.3310000000000173 75.0,0.08100000000001728 L75.0,-2.8100000000000023 L73.29999999999927,-2.1850000000000023 L73.29999999999927,0.9710000000000036 C73.29999999999927,1.2210000000000036 73.20000000000073,1.3460000000000036 72.89999999999964,1.3460000000000036 C72.70000000000073,1.3460000000000036 72.60000000000036,1.2210000000000036 72.60000000000036,0.9710000000000036 L72.60000000000036,-1.9350000000000023 L71.89999999999964,-1.6999999999999886 C71.89999999999964,-1.6899999999999977 71.89999999999964,-1.6850000000000023 71.79999999999927,-1.6850000000000023 C71.70000000000073,-1.6850000000000023 71.60000000000036,-1.7239999999999895 71.5,-1.802000000000021 C71.39999999999964,-1.8799999999999955 71.39999999999964,-1.9710000000000036 71.39999999999964,-2.0749999999999886 L71.39999999999964,-3.2789999999999964 C71.39999999999964,-3.475999999999999 71.5,-3.600999999999999 71.60000000000036,-3.6539999999999964 L72.60000000000036,-3.966000000000008 L72.60000000000036,-7.168999999999983 L71.89999999999964,-6.949999999999989 C71.89999999999964,-6.939999999999998 71.89999999999964,-6.935000000000002 71.79999999999927,-6.935000000000002 C71.70000000000073,-6.935000000000002 71.60000000000036,-6.9739999999999895 71.5,-7.052000000000021 C71.39999999999964,-7.1299999999999955 71.39999999999964,-7.221000000000004 71.39999999999964,-7.324999999999989 L71.39999999999964,-8.543999999999983 C71.39999999999964,-8.721000000000004 71.5,-8.836000000000013 71.60000000000036,-8.887999999999977 L72.60000000000036,-9.247000000000014 L72.60000000000036,-12.387999999999977 C72.60000000000036,-12.637999999999977 72.70000000000073,-12.762999999999977 72.89999999999964,-12.762999999999977 C73.20000000000073,-12.762999999999977 73.29999999999927,-12.637999999999977 73.29999999999927,-12.387999999999977 L73.29999999999927,-9.497000000000014 L75.0,-10.122000000000014 L75.0,-13.278999999999996 C75.0,-13.528999999999996 75.10000000000036,-13.653999999999996 75.29999999999927,-13.653999999999996 C75.60000000000036,-13.653999999999996 75.70000000000073,-13.528999999999996 75.70000000000073,-13.278999999999996 L75.70000000000073,-10.372000000000014 L76.39999999999964,-10.607000000000028 C76.39999999999964,-10.617000000000019 76.39999999999964,-10.622000000000014 76.5,-10.622000000000014 C76.60000000000036,-10.622000000000014 76.70000000000073,-10.586000000000013 76.79999999999927,-10.512999999999977 C76.89999999999964,-10.430000000000007 76.89999999999964,-10.336000000000013 76.89999999999964,-10.232000000000028 L76.89999999999964,-9.028999999999996 C76.89999999999964,-8.841000000000008 76.79999999999927,-8.716000000000008 76.60000000000036,-8.653999999999996 L75.70000000000073,-8.341000000000008 L75.70000000000073,-5.137999999999977 L76.39999999999964,-5.357000000000028 C76.39999999999964,-5.367000000000019 76.39999999999964,-5.372000000000014 76.5,-5.372000000000014 C76.60000000000036,-5.372000000000014 76.70000000000073,-5.331000000000017 76.79999999999927,-5.247000000000014 C76.89999999999964,-5.173999999999978 76.89999999999964,-5.086000000000013 76.89999999999964,-4.982000000000028 L76.89999999999964,-3.762999999999977 C76.89999999999964,-3.5960000000000036 76.79999999999927,-3.4820000000000277 76.60000000000036,-3.4189999999999827 L75.70000000000073,-3.0600000000000023 L75.70000000000073,0.08100000000001728 M75.0,-8.043999999999983 L73.29999999999927,-7.466000000000008 L73.29999999999927,-4.262999999999977 L75.0,-4.841000000000008 L75.0,-8.043999999999983" />
<path d="M1.0,10.518000000000029 L1.0,12.065000000000055 C1.0,12.616999999999962 1.1000000000003638,13.05499999999995 1.1000000000003638,13.378000000000043 C1.6000000000003638,13.013000000000034 1.8999999999996362,12.741999999999962 2.0,12.565000000000055 C2.2999999999992724,12.356999999999971 2.5,12.067999999999984 2.7000000000007276,11.697999999999979 C2.899999999999636,11.327999999999975 3.0,10.961000000000013 3.0,10.596000000000004 C3.0,10.231999999999971 2.899999999999636,9.918999999999983 2.7999999999992724,9.658999999999992 C2.600000000000364,9.399000000000001 2.399999999999636,9.268000000000029 2.100000000000364,9.268000000000029 C1.7999999999992724,9.268000000000029 1.6000000000003638,9.388000000000034 1.2999999999992724,9.628000000000043 C1.1000000000003638,9.888000000000034 1.0,10.184999999999945 1.0,10.518000000000029 M0.2000000000007276,14.096000000000004 L0.0,2.2060000000000173 C0.2000000000007276,2.1019999999999754 0.2999999999992724,2.0499999999999545 0.5,2.0499999999999545 C0.7000000000007276,2.0499999999999545 0.8999999999996362,2.1019999999999754 1.1000000000003638,2.2060000000000173 L0.8999999999996362,9.096000000000004 C1.3999999999996362,8.638000000000034 2.100000000000364,8.408999999999992 2.7999999999992724,8.408999999999992 C3.2999999999992724,8.408999999999992 3.7000000000007276,8.616999999999962 4.0,9.033999999999992 C4.299999999999272,9.451000000000022 4.5,9.92999999999995 4.5,10.471000000000004 C4.5,10.80499999999995 4.399999999999636,11.163999999999987 4.200000000000728,11.549999999999955 C4.0,11.893000000000029 3.7999999999992724,12.163999999999987 3.5,12.361999999999966 C3.399999999999636,12.466000000000008 3.100000000000364,12.726999999999975 2.5,13.143000000000029 C2.399999999999636,13.258000000000038 2.2000000000007276,13.393000000000029 2.0,13.549999999999955 C1.7999999999992724,13.706000000000017 1.6000000000003638,13.80499999999995 1.6000000000003638,13.846000000000004 C1.5,13.899000000000001 1.3999999999996362,14.003000000000043 1.2999999999992724,14.158999999999992 C1.2000000000007276,14.293999999999983 1.1000000000003638,14.403999999999996 1.0,14.486999999999966 C0.8999999999996362,14.57000000000005 0.7999999999992724,14.611999999999966 0.7000000000007276,14.611999999999966 C0.6000000000003638,14.611999999999966 0.3999999999996362,14.565000000000055 0.3999999999996362,14.471000000000004 C0.2999999999992724,14.378000000000043 0.2000000000007276,14.253000000000043 0.2000000000007276,14.096000000000004" />
<path d="M252.39999999999964,71.096 C253.0,71.096 253.60000000000036,71.25800000000004 254.0,71.58100000000002 C254.39999999999964,71.93499999999995 254.60000000000036,72.37800000000004 254.60000000000036,72.90899999999999 C254.60000000000036,73.80499999999995 254.10000000000036,74.64300000000003 253.20000000000073,75.42499999999995 C252.29999999999927,76.20600000000002 251.29999999999927,76.596 250.20000000000073,76.596 C249.60000000000036,76.596 249.10000000000036,76.43499999999995 248.60000000000036,76.11199999999997 C248.20000000000073,75.75800000000004 248.0,75.31500000000005 248.0,74.78399999999999 C248.0,73.88800000000003 248.5,73.04999999999995 249.39999999999964,72.26800000000003 C250.29999999999927,71.48699999999997 251.29999999999927,71.096 252.39999999999964,71.096" />
<path d="M239.5,71.096 C240.10000000000036,71.096 240.70000000000073,71.25800000000004 241.10000000000036,71.58100000000002 C241.5,71.93499999999995 241.70000000000073,72.37800000000004 241.70000000000073,72.90899999999999 C241.70000000000073,73.80499999999995 241.20000000000073,74.64300000000003 240.29999999999927,75.42499999999995 C239.39999999999964,76.20600000000002 238.39999999999964,76.596 237.29999999999927,76.596 C236.70000000000073,76.596 236.20000000000073,76.43499999999995 235.70000000000073,76.11199999999997 C235.29999999999927,75.75800000000004 235.10000000000036,75.31500000000005 235.10000000000036,74.78399999999999 C235.10000000000036,73.88800000000003 235.60000000000036,73.04999999999995 236.5,72.26800000000003 C237.39999999999964,71.48699999999997 238.39999999999964,71.096 239.5,71.096" />
<path d="M239.5,23.596000000000004 C240.10000000000036,23.596000000000004 240.70000000000073,23.758000000000038 241.10000000000036,24.081000000000017 C241.5,24.434999999999945 241.70000000000073,24.878000000000043 241.70000000000073,25.408999999999992 C241.70000000000073,26.30499999999995 241.20000000000073,27.14300000000003 240.29999999999927,27.924999999999955 C239.39999999999964,28.706000000000017 238.39999999999964,29.096000000000004 237.29999999999927,29.096000000000004 C236.70000000000073,29.096000000000004 236.20000000000073,28.934999999999945 235.70000000000073,28.611999999999966 C235.29999999999927,28.258000000000038 235.10000000000036,27.815000000000055 235.10000000000036,27.283999999999992 C235.10000000000036,26.388000000000034 235.60000000000036,25.549999999999955 236.5,24.76800000000003 C237.39999999999964,23.986999999999966 238.39999999999964,23.596000000000004 239.5,23.596000000000004" />
<path d="M226.60000000000036,71.096 C227.20000000000073,71.096 227.79999999999927,71.25800000000004 228.20000000000073,71.58100000000002 C228.60000000000036,71.93499999999995 228.79999999999927,72.37800000000004 228.79999999999927,72.90899999999999 C228.79999999999927,73.80499999999995 228.29999999999927,74.64300000000003 227.39999999999964,75.42499999999995 C226.5,76.20600000000002 225.5,76.596 224.39999999999964,76.596 C223.79999999999927,76.596 223.29999999999927,76.43499999999995 222.79999999999927,76.11199999999997 C222.39999999999964,75.75800000000004 222.20000000000073,75.31500000000005 222.20000000000073,74.78399999999999 C222.20000000000073,73.88800000000003 222.70000000000073,73.04999999999995 223.60000000000036,72.26800000000003 C224.5,71.48699999999997 225.5,71.096 226.60000000000036,71.096" />
<path d="M218.60000000000036,23.596000000000004 C219.20000000000073,23.596000000000004 219.70000000000073,23.758000000000038 220.10000000000036,24.081000000000017 C220.5,24.434999999999945 220.70000000000073,24.878000000000043 220.70000000000073,25.408999999999992 C220.70000000000073,26.30499999999995 220.29999999999927,27.14300000000003 219.39999999999964,27.924999999999955 C218.39999999999964,28.706000000000017 217.39999999999964,29.096000000000004 216.29999999999927,29.096000000000004 C215.70000000000073,29.096000000000004 215.20000000000073,28.934999999999945 214.79999999999927,28.611999999999966 C214.39999999999964,28.258000000000038 214.20000000000073,27.815000000000055 214.20000000000073,27.283999999999992 C214.20000000000073,26.388000000000034 214.60000000000036,25.549999999999955 215.60000000000036,24.76800000000003 C216.5,23.986999999999966 217.5,23.596000000000004 218.60000000000036,23.596000000000004" />
<path d="M210.5,71.096 C211.10000000000036,71.096 211.60000000000036,71.25800000000004 212.10000000000036,71.58100000000002 C212.5,71.93499999999995 212.70000000000073,72.37800000000004 212.70000000000073,72.90899999999999 C212.70000000000073,73.80499999999995 212.20000000000073,74.64300000000003 211.29999999999927,75.42499999999995 C210.39999999999964,76.20600000000002 209.39999999999964,76.596 208.29999999999927,76.596 C207.70000000000073,76.596 207.10000000000036,76.43499999999995 206.70000000000073,76.11199999999997 C206.29999999999927,75.75800000000004 206.10000000000036,75.31500000000005 206.10000000000036,74.78399999999999 C206.10000000000036,73.88800000000003 206.60000000000036,73.04999999999995 207.5,72.26800000000003 C208.39999999999964,71.48699999999997 209.39999999999964,71.096 210.5,71.096" />
<path d="M197.60000000000036,68.596 C198.20000000000073,68.596 198.79999999999927,68.75800000000004 199.20000000000073,69.08100000000002 C199.60000000000036,69.43499999999995 199.79999999999927,69.87800000000004 199.79999999999927,70.40899999999999 C199.79999999999927,71.30499999999995 199.29999999999927,72.14300000000003 198.39999999999964,72.92499999999995 C197.5,73.70600000000002 196.5,74.096 195.39999999999964,74.096 C194.79999999999927,74.096 194.20000000000073,73.93499999999995 193.79999999999927,73.61199999999997 C193.39999999999964,73.25800000000004 193.20000000000073,72.81500000000005 193.20000000000073,72.28399999999999 C193.20000000000073,71.38800000000003 193.70000000000073,70.54999999999995 194.60000000000036,69.76800000000003 C195.5,68.98699999999997 196.5,68.596 197.60000000000036,68.596" />
<path d="M197.60000000000036,26.096000000000004 C198.20000000000073,26.096000000000004 198.79999999999927,26.258000000000038 199.20000000000073,26.581000000000017 C199.60000000000036,26.934999999999945 199.79999999999927,27.378000000000043 199.79999999999927,27.908999999999992 C199.79999999999927,28.80499999999995 199.29999999999927,29.64300000000003 198.39999999999964,30.424999999999955 C197.5,31.206000000000017 196.5,31.596000000000004 195.39999999999964,31.596000000000004 C194.79999999999927,31.596000000000004 194.20000000000073,31.434999999999945 193.79999999999927,31.111999999999966 C193.39999999999964,30.758000000000038 193.20000000000073,30.315000000000055 193.20000000000073,29.783999999999992 C193.20000000000073,28.888000000000034 193.70000000000073,28.049999999999955 194.60000000000036,27.26800000000003 C195.5,26.486999999999966 196.5,26.096000000000004 197.60000000000036,26.096000000000004" />
<path d="M181.89999999999964,71.096 C182.5,71.096 183.0,71.25800000000004 183.5,71.58100000000002 C183.89999999999964,71.93499999999995 184.10000000000036,72.37800000000004 184.10000000000036,72.90899999999999 C184.10000000000036,73.80499999999995 183.60000000000036,74.64300000000003 182.70000000000073,75.42499999999995 C181.70000000000073,76.20600000000002 180.70000000000073,76.596 179.70000000000073,76.596 C179.0,76.596 178.5,76.43499999999995 178.10000000000036,76.11199999999997 C177.70000000000073,75.75800000000004 177.5,75.31500000000005 177.5,74.78399999999999 C177.5,73.88800000000003 177.89999999999964,73.04999999999995 178.89999999999964,72.26800000000003 C179.79999999999927,71.48699999999997 180.79999999999927,71.096 181.89999999999964,71.096" />
<path d="M166.10000000000036,71.096 C166.79999999999927,71.096 167.29999999999927,71.25800000000004 167.70000000000073,71.58100000000002 C168.10000000000036,71.93499999999995 168.29999999999927,72.37800000000004 168.29999999999927,72.90899999999999 C168.29999999999927,73.80499999999995 167.89999999999964,74.64300000000003 167.0,75.42499999999995 C166.0,76.20600000000002 165.0,76.596 163.89999999999964,76.596 C163.29999999999927,76.596 162.79999999999927,76.43499999999995 162.39999999999964,76.11199999999997 C162.0,75.75800000000004 161.79999999999927,75.31500000000005 161.79999999999927,74.78399999999999 C161.79999999999927,73.88800000000003 162.20000000000073,73.04999999999995 163.20000000000073,72.26800000000003 C164.10000000000036,71.48699999999997 165.10000000000036,71.096 166.10000000000036,71.096" />
<path d="M166.10000000000036,13.596000000000004 C166.79999999999927,13.596000000000004 167.29999999999927,13.758000000000038 167.70000000000073,14.081000000000017 C168.10000000000036,14.434999999999945 168.29999999999927,14.878000000000043 168.29999999999927,15.408999999999992 C168.29999999999927,16.30499999999995 167.89999999999964,17.14300000000003 167.0,17.924999999999955 C166.0,18.706000000000017 165.0,19.096000000000004 163.89999999999964,19.096000000000004 C163.29999999999927,19.096000000000004 162.79999999999927,18.934999999999945 162.39999999999964,18.611999999999966 C162.0,18.258000000000038 161.79999999999927,17.815000000000055 161.79999999999927,17.283999999999992 C161.79999999999927,16.388000000000034 162.20000000000073,15.549999999999955 163.20000000000073,14.768000000000029 C164.10000000000036,13.986999999999966 165.10000000000036,13.596000000000004 166.10000000000036,13.596000000000004" />
<path d="M150.39999999999964,71.096 C151.0,71.096 151.60000000000036,71.25800000000004 152.0,71.58100000000002 C152.39999999999964,71.93499999999995 152.60000000000036,72.37800000000004 152.60000000000036,72.90899999999999 C152.60000000000036,73.80499999999995 152.10000000000036,74.64300000000003 151.20000000000073,75.42499999999995 C150.29999999999927,76.20600000000002 149.29999999999927,76.596 148.20000000000073,76.596 C147.60000000000036,76.596 147.10000000000036,76.43499999999995 146.60000000000036,76.11199999999997 C146.20000000000073,75.75800000000004 146.0,75.31500000000005 146.0,74.78399999999999 C146.0,73.88800000000003 146.5,73.04999999999995 147.39999999999964,72.26800000000003 C148.29999999999927,71.48699999999997 149.29999999999927,71.096 150.39999999999964,71.096" />
<path d="M150.39999999999964,13.596000000000004 C151.0,13.596000000000004 151.60000000000036,13.758000000000038 152.0,14.081000000000017 C152.39999999999964,14.434999999999945 152.60000000000036,14.878000000000043 152.60000000000036,15.408999999999992 C152.60000000000036,16.30499999999995 152.10000000000036,17.14300000000003 151.20000000000073,17.924999999999955 C150.29999999999927,18.706000000000017 149.29999999999927,19.096000000000004 148.20000000000073,19.096000000000004 C147.60000000000036,19.096000000000004 147.10000000000036,18.934999999999945 146.60000000000036,18.611999999999966 C146.20000000000073,18.258000000000038 146.0,17.815000000000055 146.0,17.283999999999992 C146.0,16.388000000000034 146.5,15.549999999999955 147.39999999999964,14.768000000000029 C148.29999999999927,13.986999999999966 149.29999999999927,13.596000000000004 150.39999999999964,13.596000000000004" />
<path d="M117.79999999999927,13.596000000000004 C118.39999999999964,13.596000000000004 118.89999999999964,13.758000000000038 119.29999999999927,14.081000000000017 C119.70000000000073,14.434999999999945 119.89999999999964,14.878000000000043 119.89999999999964,15.408999999999992 C119.89999999999964,16.30499999999995 119.5,17.14300000000003 118.60000000000036,17.924999999999955 C117.60000000000036,18.706000000000017 116.60000000000036,19.096000000000004 115.60000000000036,19.096000000000004 C114.89999999999964,19.096000000000004 114.39999999999964,18.934999999999945 114.0,18.611999999999966 C113.60000000000036,18.258000000000038 113.39999999999964,17.815000000000055 113.39999999999964,17.283999999999992 C113.39999999999964,16.388000000000034 113.79999999999927,15.549999999999955 114.79999999999927,14.768000000000029 C115.70000000000073,13.986999999999966 116.70000000000073,13.596000000000004 117.79999999999927,13.596000000000004" />
<path d="M134.70000000000073,13.596000000000004 C135.29999999999927,13.596000000000004 135.79999999999927,13.758000000000038 136.29999999999927,14.081000000000017 C136.70000000000073,14.434999999999945 136.89999999999964,14.878000000000043 136.89999999999964,15.408999999999992 C136.89999999999964,16.30499999999995 136.39999999999964,17.14300000000003 135.5,17.924999999999955 C134.60000000000036,18.706000000000017 133.60000000000036,19.096000000000004 132.5,19.096000000000004 C131.89999999999964,19.096000000000004 131.29999999999927,18.934999999999945 130.89999999999964,18.611999999999966 C130.5,18.258000000000038 130.29999999999927,17.815000000000055 130.29999999999927,17.283999999999992 C130.29999999999927,16.388000000000034 130.79999999999927,15.549999999999955 131.70000000000073,14.768000000000029 C132.60000000000036,13.986999999999966 133.60000000000036,13.596000000000004 134.70000000000073,13.596000000000004" />
<path d="M109.0,68.596 C109.70000000000073,68.596 110.20000000000073,68.75800000000004 110.60000000000036,69.08100000000002 C111.0,69.43499999999995 111.20000000000073,69.87800000000004 111.20000000000073,70.40899999999999 C111.20000000000073,71.30499999999995 110.79999999999927,72.14300000000003 109.89999999999964,72.92499999999995 C108.89999999999964,73.70600000000002 107.89999999999964,74.096 106.79999999999927,74.096 C106.20000000000073,74.096 105.70000000000073,73.93499999999995 105.29999999999927,73.61199999999997 C104.89999999999964,73.25800000000004 104.70000000000073,72.81500000000005 104.70000000000073,72.28399999999999 C104.70000000000073,71.38800000000003 105.10000000000036,70.54999999999995 106.10000000000036,69.76800000000003 C107.0,68.98699999999997 108.0,68.596 109.0,68.596" />
<path d="M109.0,18.596000000000004 C109.70000000000073,18.596000000000004 110.20000000000073,18.758000000000038 110.60000000000036,19.081000000000017 C111.0,19.434999999999945 111.20000000000073,19.878000000000043 111.20000000000073,20.408999999999992 C111.20000000000073,21.30499999999995 110.79999999999927,22.14300000000003 109.89999999999964,22.924999999999955 C108.89999999999964,23.706000000000017 107.89999999999964,24.096000000000004 106.79999999999927,24.096000000000004 C106.20000000000073,24.096000000000004 105.70000000000073,23.934999999999945 105.29999999999927,23.611999999999966 C104.89999999999964,23.258000000000038 104.70000000000073,22.815000000000055 104.70000000000073,22.283999999999992 C104.70000000000073,21.388000000000034 105.10000000000036,20.549999999999955 106.10000000000036,19.76800000000003 C107.0,18.986999999999966 108.0,18.596000000000004 109.0,18.596000000000004" />
<path d="M83.39999999999964,68.596 C84.0,68.596 84.60000000000036,68.75800000000004 85.0,69.08100000000002 C85.39999999999964,69.43499999999995 85.60000000000036,69.87800000000004 85.60000000000036,70.40899999999999 C85.60000000000036,71.30499999999995 85.10000000000036,72.14300000000003 84.20000000000073,72.92499999999995 C83.29999999999927,73.70600000000002 82.29999999999927,74.096 81.20000000000073,74.096 C80.60000000000036,74.096 80.0,73.93499999999995 79.60000000000036,73.61199999999997 C79.20000000000073,73.25800000000004 79.0,72.81500000000005 79.0,72.28399999999999 C79.0,71.38800000000003 79.5,70.54999999999995 80.39999999999964,69.76800000000003 C81.29999999999927,68.98699999999997 82.29999999999927,68.596 83.39999999999964,68.596" />
<path d="M83.39999999999964,31.096000000000004 C84.0,31.096000000000004 84.60000000000036,31.258000000000038 85.0,31.581000000000017 C85.39999999999964,31.934999999999945 85.60000000000036,32.37800000000004 85.60000000000036,32.90899999999999 C85.60000000000036,33.80499999999995 85.10000000000036,34.64300000000003 84.20000000000073,35.424999999999955 C83.29999999999927,36.20600000000002 82.29999999999927,36.596000000000004 81.20000000000073,36.596000000000004 C80.60000000000036,36.596000000000004 80.0,36.434999999999945 79.60000000000036,36.111999999999966 C79.20000000000073,35.75800000000004 79.0,35.315000000000055 79.0,34.78399999999999 C79.0,33.888000000000034 79.5,33.049999999999955 80.39999999999964,32.26800000000003 C81.29999999999927,31.486999999999966 82.29999999999927,31.096000000000004 83.39999999999964,31.096000000000004" />
<path d="M47.0,71.096 C47.70000000000073,71.096 48.20000000000073,71.25800000000004 48.600000000000364,71.58100000000002 C49.0,71.93499999999995 49.20000000000073,72.37800000000004 49.20000000000073,72.90899999999999 C49.20000000000073,73.80499999999995 48.79999999999927,74.64300000000003 47.79999999999927,75.42499999999995 C46.899999999999636,76.20600000000002 45.899999999999636,76.596 44.79999999999927,76.596 C44.20000000000073,76.596 43.70000000000073,76.43499999999995 43.20000000000073,76.11199999999997 C42.79999999999927,75.75800000000004 42.600000000000364,75.31500000000005 42.600000000000364,74.78399999999999 C42.600000000000364,73.88800000000003 43.100000000000364,73.04999999999995 44.0,72.26800000000003 C45.0,71.48699999999997 46.0,71.096 47.0,71.096" />
<path d="M34.600000000000364,61.096000000000004 C34.899999999999636,61.096000000000004 35.100000000000364,61.17999999999995 35.20000000000073,61.346000000000004 C35.29999999999927,61.524 35.399999999999636,61.70100000000002 35.399999999999636,61.87800000000004 C35.399999999999636,62.15899999999999 35.100000000000364,62.513000000000034 34.600000000000364,62.940000000000055 C34.100000000000364,63.399 33.79999999999927,63.721000000000004 33.70000000000073,63.90899999999999 C33.600000000000364,64.05499999999995 33.399999999999636,64.38800000000003 33.20000000000073,64.90899999999999 C33.0,65.44000000000005 32.79999999999927,65.85699999999997 32.5,66.15899999999999 C32.29999999999927,66.44000000000005 32.0,66.58100000000002 31.600000000000364,66.58100000000002 C31.5,66.58100000000002 31.200000000000728,66.54399999999998 30.899999999999636,66.471 C30.600000000000364,66.38800000000003 30.299999999999272,66.346 30.200000000000728,66.346 C30.0,66.346 29.799999999999272,66.38800000000003 29.399999999999636,66.471 C29.100000000000364,66.55499999999995 28.899999999999636,66.596 28.799999999999272,66.596 C28.5,66.596 28.299999999999272,66.51300000000003 28.200000000000728,66.346 C28.100000000000364,66.149 28.0,65.971 28.0,65.81500000000005 C28.0,65.53399999999999 28.299999999999272,65.17999999999995 28.799999999999272,64.75300000000004 C29.299999999999272,64.29399999999998 29.600000000000364,63.971000000000004 29.700000000000728,63.78399999999999 C29.799999999999272,63.690000000000055 29.899999999999636,63.351999999999975 30.200000000000728,62.76800000000003 C30.399999999999636,62.236999999999966 30.600000000000364,61.82600000000002 30.899999999999636,61.53399999999999 C31.100000000000364,61.25300000000004 31.399999999999636,61.111999999999966 31.799999999999272,61.111999999999966 C31.899999999999636,61.111999999999966 32.20000000000073,61.149 32.5,61.221000000000004 C32.79999999999927,61.30499999999995 33.100000000000364,61.346000000000004 33.20000000000073,61.346000000000004 C33.399999999999636,61.346000000000004 33.600000000000364,61.30499999999995 34.0,61.221000000000004 C34.29999999999927,61.138000000000034 34.5,61.096000000000004 34.600000000000364,61.096000000000004" />
<path d="M32.79999999999927,16.096000000000004 C33.399999999999636,16.096000000000004 34.0,16.258000000000038 34.399999999999636,16.581000000000017 C34.79999999999927,16.934999999999945 35.0,17.378000000000043 35.0,17.908999999999992 C35.0,18.80499999999995 34.5,19.64300000000003 33.600000000000364,20.424999999999955 C32.70000000000073,21.206000000000017 31.700000000000728,21.596000000000004 30.600000000000364,21.596000000000004 C30.0,21.596000000000004 29.5,21.434999999999945 29.0,21.111999999999966 C28.600000000000364,20.758000000000038 28.399999999999636,20.315000000000055 28.399999999999636,19.783999999999992 C28.399999999999636,18.888000000000034 28.899999999999636,18.049999999999955 29.799999999999272,17.26800000000003 C30.700000000000728,16.486999999999966 31.700000000000728,16.096000000000004 32.79999999999927,16.096000000000004" />
<path d="M11.899999999999636,61.096000000000004 C12.100000000000364,61.096000000000004 12.299999999999272,61.17999999999995 12.399999999999636,61.346000000000004 C12.600000000000364,61.524 12.700000000000728,61.70100000000002 12.700000000000728,61.87800000000004 C12.700000000000728,62.15899999999999 12.399999999999636,62.513000000000034 11.899999999999636,62.940000000000055 C11.399999999999636,63.399 11.0,63.721000000000004 10.899999999999636,63.90899999999999 C10.899999999999636,64.05499999999995 10.700000000000728,64.38800000000003 10.5,64.90899999999999 C10.299999999999272,65.44000000000005 10.0,65.85699999999997 9.799999999999272,66.15899999999999 C9.5,66.44000000000005 9.200000000000728,66.58100000000002 8.899999999999636,66.58100000000002 C8.700000000000728,66.58100000000002 8.5,66.54399999999998 8.200000000000728,66.471 C7.799999999999272,66.38800000000003 7.600000000000364,66.346 7.399999999999636,66.346 C7.299999999999272,66.346 7.0,66.38800000000003 6.700000000000728,66.471 C6.399999999999636,66.55499999999995 6.100000000000364,66.596 6.0,66.596 C5.799999999999272,66.596 5.600000000000364,66.51300000000003 5.399999999999636,66.346 C5.299999999999272,66.149 5.299999999999272,65.971 5.299999999999272,65.81500000000005 C5.299999999999272,65.53399999999999 5.5,65.17999999999995 6.0,64.75300000000004 C6.600000000000364,64.29399999999998 6.899999999999636,63.971000000000004 7.0,63.78399999999999 C7.0,63.690000000000055 7.200000000000728,63.351999999999975 7.399999999999636,62.76800000000003 C7.700000000000728,62.236999999999966 7.899999999999636,61.82600000000002 8.200000000000728,61.53399999999999 C8.399999999999636,61.25300000000004 8.700000000000728,61.111999999999966 9.0,61.111999999999966 C9.200000000000728,61.111999999999966 9.399999999999636,61.149 9.700000000000728,61.221000000000004 C10.100000000000364,61.30499999999995 10.299999999999272,61.346000000000004 10.5,61.346000000000004 C10.600000000000364,61.346000000000004 10.899999999999636,61.30499999999995 11.200000000000728,61.221000000000004 C11.5,61.138000000000034 11.700000000000728,61.096000000000004 11.899999999999636,61.096000000000004" />
<path d="M10.100000000000364,8.596000000000004 C10.700000000000728,8.596000000000004 11.200000000000728,8.758000000000038 11.600000000000364,9.081000000000017 C12.0,9.434999999999945 12.200000000000728,9.878000000000043 12.200000000000728,10.408999999999992 C12.200000000000728,11.30499999999995 11.799999999999272,12.143000000000029 10.899999999999636,12.924999999999955 C9.899999999999636,13.706000000000017 8.899999999999636,14.096000000000004 7.799999999999272,14.096000000000004 C7.200000000000728,14.096000000000004 6.700000000000728,13.934999999999945 6.299999999999272,13.611999999999966 C5.899999999999636,13.258000000000038 5.700000000000728,12.815000000000055 5.700000000000728,12.283999999999992 C5.700000000000728,11.388000000000034 6.100000000000364,10.549999999999955 7.100000000000364,9.768000000000029 C8.0,8.986999999999966 9.0,8.596000000000004 10.100000000000364,8.596000000000004" />
<path d="M132.79999999999927,72.23699999999997 C133.20000000000073,72.23699999999997 133.5,72.34100000000001 133.60000000000036,72.54999999999995 C133.79999999999927,72.779 133.89999999999964,73.00300000000004 134.0,73.221 C134.0,73.44000000000005 134.10000000000036,73.65899999999999 134.20000000000073,73.87800000000004 C134.20000000000073,74.08600000000001 134.39999999999964,74.19000000000005 134.60000000000036,74.19000000000005 C134.70000000000073,74.19000000000005 134.89999999999964,74.03399999999999 135.20000000000073,73.721 C135.5,73.35699999999997 135.70000000000073,73.096 135.79999999999927,72.94000000000005 C135.79999999999927,72.81500000000005 135.89999999999964,72.75300000000004 136.0,72.75300000000004 C136.0,72.75300000000004 136.0,72.75300000000004 136.10000000000036,72.75300000000004 C136.20000000000073,72.76300000000003 136.20000000000073,72.82600000000002 136.29999999999927,72.94000000000005 L132.70000000000073,86.346 C132.60000000000036,86.48199999999997 132.39999999999964,86.54999999999995 132.20000000000073,86.54999999999995 C131.89999999999964,86.54999999999995 131.79999999999927,86.48199999999997 131.60000000000036,86.346 L133.60000000000036,79.79999999999995 C132.79999999999927,80.11199999999997 132.10000000000036,80.26800000000003 131.5,80.26800000000003 C131.10000000000036,80.26800000000003 130.60000000000036,80.12199999999996 130.29999999999927,79.83100000000002 C129.89999999999964,79.53899999999999 129.79999999999927,79.15899999999999 129.79999999999927,78.69000000000005 C129.79999999999927,78.28399999999999 129.89999999999964,77.94500000000005 130.20000000000073,77.67499999999995 C130.5,77.39300000000003 130.79999999999927,77.25300000000004 131.20000000000073,77.25300000000004 C131.60000000000036,77.25300000000004 131.89999999999964,77.35699999999997 132.10000000000036,77.56500000000005 C132.29999999999927,77.78399999999999 132.39999999999964,78.00300000000004 132.39999999999964,78.221 C132.5,78.48199999999997 132.5,78.70600000000002 132.60000000000036,78.89300000000003 C132.70000000000073,79.10199999999998 132.79999999999927,79.20600000000002 133.0,79.20600000000002 C133.20000000000073,79.20600000000002 133.39999999999964,79.024 133.70000000000073,78.65899999999999 C134.0,78.31500000000005 134.20000000000073,78.04399999999998 134.29999999999927,77.846 L135.20000000000073,74.81500000000005 C134.29999999999927,75.11699999999996 133.60000000000036,75.26800000000003 133.10000000000036,75.26800000000003 C132.60000000000036,75.26800000000003 132.20000000000073,75.11699999999996 131.89999999999964,74.81500000000005 C131.5,74.53399999999999 131.29999999999927,74.15899999999999 131.29999999999927,73.69000000000005 C131.29999999999927,73.28399999999999 131.5,72.94500000000005 131.79999999999927,72.67499999999995 C132.10000000000036,72.38300000000004 132.39999999999964,72.23699999999997 132.79999999999927,72.23699999999997" />
<path d="M124.10000000000036,51.25300000000004 L124.10000000000036,51.221000000000004 C124.20000000000073,51.20100000000002 124.20000000000073,51.16399999999999 124.20000000000073,51.111999999999966 C124.20000000000073,51.059999999999945 124.20000000000073,51.00300000000004 124.20000000000073,50.940000000000055 C124.39999999999964,50.42999999999995 124.70000000000073,49.92999999999995 125.0,49.440000000000055 C125.5,48.78399999999999 126.0,48.46100000000001 126.60000000000036,48.471000000000004 C126.79999999999927,48.471000000000004 127.0,48.57000000000005 127.10000000000036,48.76800000000003 C127.29999999999927,48.934999999999945 127.29999999999927,49.15899999999999 127.39999999999964,49.440000000000055 C127.79999999999927,48.78399999999999 128.29999999999927,48.46100000000001 128.79999999999927,48.471000000000004 C129.0,48.471000000000004 129.20000000000073,48.57000000000005 129.39999999999964,48.76800000000003 C129.5,48.976999999999975 129.60000000000036,49.21600000000001 129.60000000000036,49.486999999999966 C130.0,48.799999999999955 130.5,48.46100000000001 131.0,48.471000000000004 C131.29999999999927,48.471000000000004 131.60000000000036,48.59400000000005 131.79999999999927,48.839000000000055 C132.0,49.08299999999997 132.20000000000073,49.36699999999996 132.10000000000036,49.690000000000055 C132.10000000000036,49.73199999999997 132.10000000000036,49.82000000000005 132.10000000000036,49.95600000000002 L131.5,52.65899999999999 C131.39999999999964,52.67999999999995 131.39999999999964,52.70600000000002 131.39999999999964,52.736999999999966 C131.39999999999964,52.84100000000001 131.5,52.89300000000003 131.60000000000036,52.89300000000003 C131.70000000000073,52.89300000000003 131.89999999999964,52.78899999999999 132.20000000000073,52.58100000000002 L132.60000000000036,52.25300000000004 C132.70000000000073,52.25300000000004 132.70000000000073,52.28399999999999 132.70000000000073,52.346000000000004 C132.70000000000073,52.399 132.70000000000073,52.440000000000055 132.60000000000036,52.471000000000004 C132.0,53.03399999999999 131.60000000000036,53.38300000000004 131.39999999999964,53.51800000000003 C131.10000000000036,53.78899999999999 130.70000000000073,53.924999999999955 130.39999999999964,53.924999999999955 C130.20000000000073,53.924999999999955 130.0,53.86699999999996 130.0,53.75300000000004 C129.89999999999964,53.65899999999999 129.79999999999927,53.528999999999996 129.79999999999927,53.361999999999966 C129.79999999999927,53.299999999999955 129.79999999999927,53.236999999999966 129.79999999999927,53.174999999999955 L130.5,50.20600000000002 C130.5,50.12199999999996 130.5,50.03899999999999 130.60000000000036,49.95600000000002 C130.60000000000036,49.71600000000001 130.5,49.596000000000004 130.39999999999964,49.596000000000004 C130.20000000000073,49.596000000000004 130.0,49.66399999999999 129.89999999999964,49.799999999999955 C129.70000000000073,49.924999999999955 129.60000000000036,50.059999999999945 129.60000000000036,50.20600000000002 L128.60000000000036,53.65899999999999 C128.60000000000036,53.78399999999999 128.5,53.846000000000004 128.39999999999964,53.846000000000004 L127.29999999999927,53.846000000000004 C127.20000000000073,53.846000000000004 127.20000000000073,53.78399999999999 127.20000000000073,53.65899999999999 L128.20000000000073,50.20600000000002 C128.20000000000073,50.09100000000001 128.20000000000073,49.99199999999996 128.20000000000073,49.90899999999999 C128.20000000000073,49.70100000000002 128.20000000000073,49.596000000000004 128.0,49.596000000000004 C127.79999999999927,49.596000000000004 127.70000000000073,49.66399999999999 127.60000000000036,49.799999999999955 C127.39999999999964,49.903999999999996 127.29999999999927,50.03899999999999 127.29999999999927,50.20600000000002 L126.10000000000036,53.65899999999999 C126.0,53.78399999999999 126.0,53.846000000000004 125.89999999999964,53.846000000000004 L124.79999999999927,53.846000000000004 C124.70000000000073,53.846000000000004 124.70000000000073,53.78399999999999 124.70000000000073,53.65899999999999 L125.89999999999964,50.20600000000002 C125.89999999999964,50.059999999999945 125.89999999999964,49.96600000000001 125.89999999999964,49.924999999999955 C125.89999999999964,49.70600000000002 125.89999999999964,49.596000000000004 125.70000000000073,49.596000000000004 C125.39999999999964,49.596000000000004 125.20000000000073,49.76800000000003 125.0,50.111999999999966 C124.79999999999927,50.434999999999945 124.60000000000036,50.79399999999998 124.5,51.190000000000055 C124.5,51.30499999999995 124.39999999999964,51.361999999999966 124.29999999999927,51.361999999999966 C124.20000000000073,51.34100000000001 124.10000000000036,51.30499999999995 124.10000000000036,51.25300000000004 M136.39999999999964,48.76800000000003 L135.39999999999964,51.861999999999966 C135.10000000000036,52.976999999999975 134.5,54.05499999999995 133.70000000000073,55.096000000000004 C132.89999999999964,56.138000000000034 132.10000000000036,56.65899999999999 131.29999999999927,56.65899999999999 C130.89999999999964,56.65899999999999 130.5,56.547000000000025 130.20000000000073,56.32299999999998 C129.79999999999927,56.099000000000046 129.70000000000073,55.809999999999945 129.70000000000073,55.45600000000002 C129.70000000000073,55.049999999999955 129.79999999999927,54.70600000000002 129.89999999999964,54.424999999999955 C130.10000000000036,54.153999999999996 130.39999999999964,54.00800000000004 130.70000000000073,53.986999999999966 C130.89999999999964,53.986999999999966 131.10000000000036,54.07000000000005 131.20000000000073,54.236999999999966 C131.39999999999964,54.403999999999996 131.5,54.596000000000004 131.5,54.815000000000055 C131.5,55.013000000000034 131.39999999999964,55.19500000000005 131.10000000000036,55.361999999999966 C130.89999999999964,55.50800000000004 130.79999999999927,55.674999999999955 130.79999999999927,55.861999999999966 C130.79999999999927,55.986999999999966 130.89999999999964,56.049999999999955 131.20000000000073,56.049999999999955 L131.29999999999927,56.049999999999955 C131.39999999999964,56.049999999999955 131.5,56.03399999999999 131.60000000000036,56.00300000000004 C131.70000000000073,55.99199999999996 131.70000000000073,55.95100000000002 131.89999999999964,55.87800000000004 C131.89999999999964,55.87800000000004 131.89999999999964,55.82600000000002 132.0,55.721000000000004 C132.10000000000036,55.60699999999997 132.20000000000073,55.524 132.20000000000073,55.471000000000004 C132.20000000000073,55.36699999999996 132.29999999999927,55.28399999999999 132.29999999999927,55.221000000000004 C132.29999999999927,55.17999999999995 132.39999999999964,55.07600000000002 132.39999999999964,54.90899999999999 C132.39999999999964,54.86699999999996 132.5,54.82000000000005 132.5,54.76800000000003 C132.5,54.71600000000001 132.5,54.67999999999995 132.5,54.65899999999999 C132.5,54.638000000000034 132.5,54.62199999999996 132.5,54.611999999999966 C132.60000000000036,54.403999999999996 132.60000000000036,54.278999999999996 132.60000000000036,54.236999999999966 C132.70000000000073,54.028999999999996 132.70000000000073,53.924999999999955 132.70000000000073,53.924999999999955 L134.0,48.76800000000003 L133.0,48.76800000000003 C132.89999999999964,48.76800000000003 132.79999999999927,48.736999999999966 132.79999999999927,48.674999999999955 C132.70000000000073,48.59100000000001 132.70000000000073,48.51800000000003 132.70000000000073,48.45600000000002 C132.70000000000073,48.37199999999996 132.70000000000073,48.299999999999955 132.79999999999927,48.236999999999966 C132.89999999999964,48.174999999999955 132.89999999999964,48.14300000000003 133.0,48.14300000000003 L134.10000000000036,48.14300000000003 C134.5,47.16399999999999 135.0,46.32000000000005 135.79999999999927,45.611999999999966 C136.5,44.88300000000004 137.29999999999927,44.51800000000003 138.10000000000036,44.51800000000003 C138.60000000000036,44.51800000000003 139.0,44.63300000000004 139.29999999999927,44.861999999999966 C139.60000000000036,45.08100000000002 139.79999999999927,45.36699999999996 139.79999999999927,45.721000000000004 C139.79999999999927,46.10699999999997 139.70000000000073,46.45100000000002 139.5,46.75300000000004 C139.29999999999927,47.024 139.10000000000036,47.16399999999999 138.79999999999927,47.174999999999955 C138.60000000000036,47.174999999999955 138.39999999999964,47.09400000000005 138.20000000000073,46.932000000000016 C138.10000000000036,46.77099999999996 138.0,46.58100000000002 138.0,46.361999999999966 C138.0,46.174999999999955 138.10000000000036,46.00300000000004 138.39999999999964,45.846000000000004 C138.60000000000036,45.690000000000055 138.70000000000073,45.513000000000034 138.70000000000073,45.315000000000055 C138.70000000000073,45.16899999999998 138.60000000000036,45.101999999999975 138.29999999999927,45.111999999999966 L138.20000000000073,45.111999999999966 C138.20000000000073,45.13300000000004 138.20000000000073,45.138000000000034 138.10000000000036,45.12800000000004 C137.89999999999964,45.12800000000004 137.70000000000073,45.184999999999945 137.60000000000036,45.299999999999955 C137.39999999999964,45.403999999999996 137.29999999999927,45.59100000000001 137.10000000000036,45.861999999999966 C137.10000000000036,45.934999999999945 137.10000000000036,46.00800000000004 137.0,46.08100000000002 C137.0,46.153999999999996 137.0,46.23400000000004 136.89999999999964,46.32299999999998 C136.89999999999964,46.412000000000035 136.89999999999964,46.471000000000004 136.89999999999964,46.50300000000004 C136.89999999999964,46.565000000000055 136.79999999999927,46.69500000000005 136.79999999999927,46.89300000000003 C136.79999999999927,47.08100000000002 136.70000000000073,47.24199999999996 136.70000000000073,47.37800000000004 C136.60000000000036,47.774 136.60000000000036,48.028999999999996 136.5,48.14300000000003 L137.60000000000036,48.14300000000003 C137.70000000000073,48.14300000000003 137.79999999999927,48.172000000000025 137.79999999999927,48.22900000000004 C137.89999999999964,48.287000000000035 137.89999999999964,48.35900000000004 137.89999999999964,48.44799999999998 C137.89999999999964,48.537000000000035 137.89999999999964,48.611999999999966 137.79999999999927,48.674999999999955 C137.79999999999927,48.736999999999966 137.70000000000073,48.76800000000003 137.60000000000036,48.76800000000003 L136.39999999999964,48.76800000000003" />
<path d="M193.20000000000073,88.846 L264.7999999999993,88.846 L264.7999999999993,91.346 L193.20000000000073,91.346 L193.20000000000073,88.846" />
<path d="M193.20000000000073,85.096 L264.7999999999993,85.096 L264.7999999999993,87.596 L193.20000000000073,87.596 L193.20000000000073,85.096" />
<path d="M199.10000000000036,8.846000000000004 L262.7000000000007,8.846000000000004 L262.7000000000007,11.346000000000004 L199.10000000000036,11.346000000000004 L199.10000000000036,8.846000000000004" />
<path d="M199.10000000000036,12.596000000000004 L262.7000000000007,12.596000000000004 L262.7000000000007,15.096000000000004 L199.10000000000036,15.096000000000004 L199.10000000000036,12.596000000000004" />
<path d="M146.0,88.846 L178.10000000000036,88.846 L178.10000000000036,91.346 L146.0,91.346 L146.0,88.846" />
<path d="M146.0,85.096 L178.10000000000036,85.096 L178.10000000000036,87.596 L146.0,87.596 L146.0,85.096" />
<path d="M130.29999999999927,31.346000000000004 L162.39999999999964,31.346000000000004 L162.39999999999964,33.846000000000004 L130.29999999999927,33.846000000000004 L130.29999999999927,31.346000000000004" />
<path d="M130.29999999999927,27.596000000000004 L146.70000000000073,27.596000000000004 L146.70000000000073,30.096000000000004 L130.29999999999927,30.096000000000004 L130.29999999999927,27.596000000000004" />
<path d="M79.0,85.096 L105.29999999999927,85.096 L105.29999999999927,87.596 L79.0,87.596 L79.0,85.096" />
<path d="M84.89999999999964,11.472999999999956 L111.20000000000073,6.346000000000004 L111.20000000000073,8.846000000000004 L84.89999999999964,13.972999999999956 L84.89999999999964,11.472999999999956" />
<path d="M5.299999999999272,83.846 L43.29999999999927,90.20500000000004 L43.29999999999927,92.70500000000004 L5.299999999999272,86.346 L5.299999999999272,83.846" />
<path d="M28.0,83.90099999999995 L43.29999999999927,86.45500000000004 L43.29999999999927,88.95500000000004 L28.0,86.40099999999995 L28.0,83.90099999999995" />
<path d="M117.89999999999964,5.706000000000017 L117.89999999999964,5.815000000000055 C117.89999999999964,6.388000000000034 118.10000000000036,6.9249999999999545 118.29999999999927,7.4249999999999545 C118.5,8.07000000000005 118.70000000000073,8.533999999999992 118.89999999999964,8.815000000000055 C119.29999999999927,9.326000000000022 119.60000000000036,9.809999999999945 119.89999999999964,10.268000000000029 C120.39999999999964,10.893000000000029 120.70000000000073,11.341000000000008 120.89999999999964,11.611999999999966 C120.89999999999964,11.44500000000005 121.0,11.221000000000004 121.0,10.940000000000055 C121.0,10.366999999999962 120.79999999999927,9.726999999999975 120.39999999999964,9.018000000000029 C120.0,8.268000000000029 119.70000000000073,7.69500000000005 119.29999999999927,7.2999999999999545 C118.89999999999964,6.726999999999975 118.39999999999964,6.19500000000005 117.89999999999964,5.706000000000017 M117.89999999999964,1.4710000000000036 C117.89999999999964,2.1380000000000337 118.10000000000036,2.80499999999995 118.29999999999927,3.4710000000000036 C118.60000000000036,4.096000000000004 118.89999999999964,4.721000000000004 119.29999999999927,5.346000000000004 L120.39999999999964,7.096000000000004 C120.79999999999927,7.67999999999995 121.20000000000073,8.30499999999995 121.39999999999964,8.971000000000004 C121.70000000000073,9.649000000000001 121.79999999999927,10.30499999999995 121.79999999999927,10.940000000000055 C121.79999999999927,11.481999999999971 121.70000000000073,12.028999999999996 121.39999999999964,12.581000000000017 C121.79999999999927,13.383000000000038 122.0,14.138000000000034 122.0,14.846000000000004 C122.0,15.543999999999983 121.79999999999927,16.241999999999962 121.5,16.940000000000055 C121.89999999999964,17.701000000000022 122.10000000000036,18.456000000000017 122.10000000000036,19.206000000000017 C122.10000000000036,20.361999999999966 121.89999999999964,21.528999999999996 121.29999999999927,22.706000000000017 C121.20000000000073,22.871999999999957 121.10000000000036,22.956000000000017 120.89999999999964,22.956000000000017 C120.79999999999927,22.956000000000017 120.70000000000073,22.903999999999996 120.60000000000036,22.799999999999955 C120.5,22.69500000000005 120.39999999999964,22.591000000000008 120.39999999999964,22.486999999999966 C120.39999999999964,22.486999999999966 120.39999999999964,22.461000000000013 120.39999999999964,22.408999999999992 C121.0,21.346000000000004 121.29999999999927,20.278999999999996 121.29999999999927,19.206000000000017 C121.29999999999927,18.383000000000038 121.0,17.581000000000017 120.39999999999964,16.799999999999955 C119.70000000000073,16.008000000000038 118.89999999999964,15.216000000000008 117.89999999999964,14.424999999999955 L117.89999999999964,16.471000000000004 L117.29999999999927,16.471000000000004 L117.29999999999927,1.4710000000000036 L117.89999999999964,1.4710000000000036 M117.89999999999964,10.065000000000055 L117.89999999999964,10.158999999999992 C117.89999999999964,10.668999999999983 118.10000000000036,11.216000000000008 118.29999999999927,11.799999999999955 C118.5,12.403999999999996 118.70000000000073,12.866999999999962 119.0,13.190000000000055 C119.10000000000036,13.399000000000001 119.5,13.883000000000038 120.0,14.643000000000029 C120.5,15.278999999999996 120.79999999999927,15.721000000000004 121.0,15.971000000000004 C121.10000000000036,15.606999999999971 121.20000000000073,15.231999999999971 121.20000000000073,14.846000000000004 C121.20000000000073,14.293999999999983 121.0,13.690000000000055 120.60000000000036,13.033999999999992 C120.20000000000073,12.440000000000055 119.89999999999964,11.918999999999983 119.39999999999964,11.471000000000004 C119.0,11.033999999999992 118.5,10.565000000000055 117.89999999999964,10.065000000000055" />
<path d="M231.39999999999964,94.39999999999998 L231.39999999999964,94.55600000000004 C230.79999999999927,94.62900000000002 230.20000000000073,94.89200000000005 229.60000000000036,95.34500000000003 C229.0,95.798 228.5,96.34199999999998 228.20000000000073,96.97799999999995 L228.20000000000073,96.99300000000005 C228.5,96.84699999999998 228.79999999999927,96.77499999999998 229.10000000000036,96.77499999999998 C229.60000000000036,96.77499999999998 230.0,96.94100000000003 230.29999999999927,97.27499999999998 C230.60000000000036,97.60799999999995 230.79999999999927,98.03499999999997 230.79999999999927,98.55600000000004 C230.79999999999927,99.30600000000004 230.5,99.95399999999995 230.10000000000036,100.50099999999998 C229.60000000000036,101.048 229.0,101.32100000000003 228.29999999999927,101.32100000000003 C227.70000000000073,101.32100000000003 227.29999999999927,101.13099999999997 227.0,100.75099999999998 C226.60000000000036,100.37099999999998 226.5,99.86300000000006 226.5,99.22799999999995 C226.5,98.50900000000001 226.70000000000073,97.81399999999996 227.0,97.14200000000005 C227.39999999999964,96.47000000000003 227.89999999999964,95.89999999999998 228.5,95.43100000000004 C228.89999999999964,95.10799999999995 229.39999999999964,94.87400000000002 229.79999999999927,94.72799999999995 C230.20000000000073,94.582 230.70000000000073,94.47199999999998 231.39999999999964,94.39999999999998 M228.20000000000073,101.07100000000003 C228.5,101.07100000000003 228.79999999999927,100.96199999999999 229.0,100.74300000000005 C229.29999999999927,100.52499999999998 229.39999999999964,100.25900000000001 229.60000000000036,99.94600000000003 C229.70000000000073,99.63400000000001 229.79999999999927,99.34699999999998 229.79999999999927,99.08699999999999 C229.89999999999964,98.827 229.89999999999964,98.60299999999995 229.89999999999964,98.41499999999996 C229.89999999999964,98.02999999999997 229.79999999999927,97.72199999999998 229.60000000000036,97.49300000000005 C229.39999999999964,97.26400000000001 229.10000000000036,97.14999999999998 228.79999999999927,97.14999999999998 C228.29999999999927,97.14999999999998 228.0,97.36800000000005 227.70000000000073,97.80600000000004 C227.60000000000036,98.02499999999998 227.39999999999964,98.32100000000003 227.39999999999964,98.69600000000003 C227.29999999999927,99.07100000000003 227.20000000000073,99.42600000000004 227.20000000000073,99.75900000000001 C227.20000000000073,100.17600000000004 227.29999999999927,100.49900000000002 227.5,100.72799999999995 C227.70000000000073,100.957 227.89999999999964,101.07100000000003 228.20000000000073,101.07100000000003" />
<path d="M131.89999999999964,17.150999999999954 C131.60000000000036,16.92700000000002 131.5,16.658999999999992 131.5,16.346000000000004 C131.5,16.033999999999992 131.60000000000036,15.765999999999963 131.89999999999964,15.54200000000003 C132.10000000000036,15.317999999999984 132.39999999999964,15.206000000000017 132.70000000000073,15.206000000000017 C133.0,15.206000000000017 133.20000000000073,15.317999999999984 133.5,15.54200000000003 C133.70000000000073,15.765999999999963 133.79999999999927,16.033999999999992 133.79999999999927,16.346000000000004 C133.79999999999927,16.658999999999992 133.70000000000073,16.92700000000002 133.5,17.150999999999954 C133.20000000000073,17.375 133.0,17.486999999999966 132.70000000000073,17.486999999999966 C132.39999999999964,17.486999999999966 132.10000000000036,17.375 131.89999999999964,17.150999999999954" />
<polyline points="0.0,13.846000000000004 255.0,13.846000000000004" fill="none" stroke="#000000" stroke-width="0.40" />
<polyline points="0.0,18.846000000000004 255.0,18.846000000000004" fill="none" stroke="#000000" stroke-width="0.40" />
<polyline points="0.0,23.846000000000004 255.0,23.846000000000004" fill="none" stroke="#000000" stroke-width="0.40" />
<polyline points="0.0,28.846000000000004 255.0,28.846000000000004" fill="none" stroke="#000000" stroke-width="0.40" />
<polyline points="0.0,33.846000000000004 255.0,33.846000000000004" fill="none" stroke="#000000" stroke-width="0.40" />
<polyline points="0.0,66.346 255.0,66.346" fill="none" stroke="#000000" stroke-width="0.40" />
<polyline points="0.0,71.346 255.0,71.346" fill="none" stroke="#000000" stroke-width="0.40" />
<polyline points="0.0,76.346 255.0,76.346" fill="none" stroke="#000000" stroke-width="0.40" />
<polyline points="0.0,81.346 255.0,81.346" fill="none" stroke="#000000" stroke-width="0.40" />
<polyline points="0.0,86.346 255.0,86.346" fill="none" stroke="#000000" stroke-width="0.40" />
<polyline points="57.29999999999927,66.346 57.29999999999927,86.346" fill="" stroke="#000000" stroke-width="0.80" />
<polyline points="57.29999999999927,13.846000000000004 57.29999999999927,33.846000000000004" fill="" stroke="#000000" stroke-width="0.80" />
<polyline points="121.70000000000073,5.471000000000004 115.20000000000073,9.471000000000004" fill="" stroke="#000000" stroke-width="0.65" />
<polyline points="248.29999999999927,74.78599999999994 248.29999999999927,90.096" fill="" stroke="#000000" stroke-width="0.65" />
<polyline points="235.39999999999964,74.78599999999994 235.39999999999964,90.096" fill="" stroke="#000000" stroke-width="0.65" />
<polyline points="241.39999999999964,25.40700000000004 241.39999999999964,10.096000000000004" fill="" stroke="#000000" stroke-width="0.65" />
<polyline points="222.5,74.78599999999994 222.5,90.096" fill="" stroke="#000000" stroke-width="0.65" />
<polyline points="220.39999999999964,25.40700000000004 220.39999999999964,10.096000000000004" fill="" stroke="#000000" stroke-width="0.65" />
<polyline points="206.39999999999964,74.78599999999994 206.39999999999964,90.096" fill="" stroke="#000000" stroke-width="0.65" />
<polyline points="193.5,72.28599999999994 193.5,90.096" fill="" stroke="#000000" stroke-width="0.65" />
<polyline points="199.5,27.90700000000004 199.5,10.096000000000004" fill="" stroke="#000000" stroke-width="0.65" />
<polyline points="177.79999999999927,74.78599999999994 177.79999999999927,90.096" fill="" stroke="#000000" stroke-width="0.65" />
<polyline points="162.10000000000036,74.78599999999994 162.10000000000036,90.096" fill="" stroke="#000000" stroke-width="0.65" />
<polyline points="162.10000000000036,17.285999999999945 162.10000000000036,32.596000000000004" fill="" stroke="#000000" stroke-width="0.65" />
<polyline points="146.39999999999964,74.78599999999994 146.39999999999964,90.096" fill="" stroke="#000000" stroke-width="0.65" />
<polyline points="146.39999999999964,17.285999999999945 146.39999999999964,32.596000000000004" fill="" stroke="#000000" stroke-width="0.65" />
<polyline points="117.60000000000036,15.688999999999965 117.60000000000036,1.4710000000000036" fill="" stroke="#000000" stroke-width="0.65" />
<polyline points="130.60000000000036,17.285999999999945 130.60000000000036,32.596000000000004" fill="" stroke="#000000" stroke-width="0.65" />
<polyline points="105.0,72.28599999999994 105.0,86.346" fill="" stroke="#000000" stroke-width="0.65" />
<polyline points="110.89999999999964,20.40700000000004 110.89999999999964,7.596000000000004" fill="" stroke="#000000" stroke-width="0.65" />
<polyline points="79.29999999999927,72.28599999999994 79.29999999999927,86.346" fill="" stroke="#000000" stroke-width="0.65" />
<polyline points="85.29999999999927,32.90700000000004 85.29999999999927,12.596000000000004" fill="" stroke="#000000" stroke-width="0.65" />
<polyline points="43.0,74.78599999999994 43.0,91.346" fill="" stroke="#000000" stroke-width="0.65" />
<polyline points="28.299999999999272,65.90999999999997 28.299999999999272,88.90099999999995" fill="" stroke="#000000" stroke-width="0.65" />
<polyline points="28.700000000000728,19.785999999999945 28.700000000000728,35.096000000000004" fill="" stroke="#000000" stroke-width="0.65" />
<polyline points="5.600000000000364,65.90999999999997 5.600000000000364,85.096" fill="" stroke="#000000" stroke-width="0.65" />
<polyline points="6.0,12.285999999999945 6.0,37.23900000000003" fill="" stroke="#000000" stroke-width="0.65" />
</svg>
