<?xml version="1.0" encoding="UTF-8" standalone="yes"?>
<svg width="256.0px" height="256.0px" xmlns="http://www.w3.org/2000/svg" xmlns:xlink="http://www.w3.org/1999/xlink" version="1.2" baseProfile="tiny">
<path d="M241.90000000000146,28.729000000000042 C242.0,28.729000000000042 242.20000000000073,28.80499999999995 242.40000000000146,28.956000000000017 C242.70000000000073,29.10699999999997 242.90000000000146,29.182999999999993 243.0,29.182999999999993 C243.29999999999927,29.182999999999993 243.59999999999854,29.067999999999984 243.79999999999927,28.839000000000055 C244.0,28.610000000000014 244.09999999999854,28.327999999999975 244.09999999999854,27.995000000000005 C244.09999999999854,27.787000000000035 244.09999999999854,27.604000000000042 244.0,27.44799999999998 C244.0,27.29200000000003 243.90000000000146,27.16999999999996 243.79999999999927,27.081000000000017 C243.70000000000073,26.991999999999962 243.5,26.91999999999996 243.40000000000146,26.861999999999966 C243.20000000000073,26.80499999999995 243.09999999999854,26.769000000000005 242.90000000000146,26.753000000000043 C242.79999999999927,26.736999999999966 242.70000000000073,26.729000000000042 242.5,26.729000000000042 L242.5,26.620000000000005 C242.70000000000073,26.557999999999993 242.79999999999927,26.498000000000047 243.0,26.440000000000055 C243.09999999999854,26.383000000000038 243.20000000000073,26.30200000000002 243.40000000000146,26.19799999999998 C243.5,26.09400000000005 243.59999999999854,25.966000000000008 243.70000000000073,25.815000000000055 C243.79999999999927,25.663999999999987 243.79999999999927,25.495000000000005 243.79999999999927,25.307999999999993 C243.79999999999927,25.047000000000025 243.70000000000073,24.839000000000055 243.59999999999854,24.682999999999993 C243.40000000000146,24.525999999999954 243.20000000000073,24.44799999999998 243.0,24.44799999999998 C242.70000000000073,24.44799999999998 242.5,24.515999999999963 242.29999999999927,24.650999999999954 C242.09999999999854,24.787000000000035 241.90000000000146,25.0 241.79999999999927,25.29200000000003 L241.59999999999854,25.260999999999967 C241.79999999999927,24.885999999999967 242.0,24.576000000000022 242.20000000000073,24.331000000000017 C242.40000000000146,24.086000000000013 242.79999999999927,23.964000000000055 243.20000000000073,23.964000000000055 C243.59999999999854,23.964000000000055 243.90000000000146,24.065000000000055 244.09999999999854,24.269000000000005 C244.29999999999927,24.47199999999998 244.5,24.735000000000014 244.5,25.057999999999993 C244.5,25.275999999999954 244.40000000000146,25.46900000000005 244.29999999999927,25.635999999999967 C244.20000000000073,25.80200000000002 244.0,25.979000000000042 243.70000000000073,26.16700000000003 C244.0,26.30200000000002 244.29999999999927,26.476999999999975 244.40000000000146,26.690000000000055 C244.59999999999854,26.903999999999996 244.70000000000073,27.214000000000055 244.70000000000073,27.620000000000005 C244.70000000000073,28.182999999999993 244.5,28.633000000000038 244.09999999999854,28.97199999999998 C243.59999999999854,29.309999999999945 243.09999999999854,29.479000000000042 242.5,29.479000000000042 C242.20000000000073,29.479000000000042 242.0,29.437999999999988 241.79999999999927,29.354000000000042 C241.59999999999854,29.270999999999958 241.59999999999854,29.15700000000004 241.59999999999854,29.010999999999967 C241.59999999999854,28.92700000000002 241.59999999999854,28.860000000000014 241.70000000000073,28.807999999999993 C241.70000000000073,28.754999999999995 241.79999999999927,28.729000000000042 241.90000000000146,28.729000000000042 M246.70000000000073,24.635999999999967 C246.59999999999854,24.635999999999967 246.40000000000146,24.692999999999984 246.09999999999854,24.807999999999993 L246.09999999999854,24.69799999999998 L247.5,23.964000000000055 L247.59999999999854,23.979000000000042 L247.59999999999854,28.775999999999954 C247.59999999999854,28.974000000000046 247.59999999999854,29.101999999999975 247.70000000000073,29.158999999999992 C247.79999999999927,29.216000000000008 248.0,29.245000000000005 248.29999999999927,29.245000000000005 L248.29999999999927,29.370000000000005 L246.09999999999854,29.370000000000005 L246.09999999999854,29.245000000000005 C246.40000000000146,29.235000000000014 246.59999999999854,29.190000000000055 246.79999999999927,29.111999999999966 C246.90000000000146,29.033999999999992 246.90000000000146,28.870000000000005 246.90000000000146,28.620000000000005 L246.90000000000146,25.010999999999967 C246.90000000000146,24.760999999999967 246.79999999999927,24.635999999999967 246.70000000000073,24.635999999999967" />
</svg>
