<?xml version="1.0" encoding="UTF-8" standalone="yes"?>
<svg width="256.0px" height="256.0px" xmlns="http://www.w3.org/2000/svg" xmlns:xlink="http://www.w3.org/1999/xlink" version="1.2" baseProfile="tiny">
<path d="M208.0,30.79200000000003 C207.89999999999964,30.69799999999998 207.70000000000073,30.591000000000008 207.60000000000036,30.47199999999998 C207.39999999999964,30.351999999999975 207.29999999999927,30.184999999999945 207.10000000000036,29.97199999999998 C206.89999999999964,29.758000000000038 206.70000000000073,29.53200000000004 206.60000000000036,29.29200000000003 C206.39999999999964,29.05200000000002 206.29999999999927,28.760999999999967 206.20000000000073,28.41700000000003 C206.10000000000036,28.07299999999998 206.10000000000036,27.71900000000005 206.10000000000036,27.354000000000042 C206.10000000000036,26.96900000000005 206.10000000000036,26.604000000000042 206.20000000000073,26.260999999999967 C206.29999999999927,25.91700000000003 206.39999999999964,25.633000000000038 206.60000000000036,25.408999999999992 C206.70000000000073,25.184999999999945 206.89999999999964,24.966000000000008 207.10000000000036,24.753000000000043 C207.29999999999927,24.538999999999987 207.39999999999964,24.383000000000038 207.60000000000036,24.283999999999992 C207.70000000000073,24.184999999999945 207.89999999999964,24.077999999999975 208.0,23.964000000000055 L208.10000000000036,24.089000000000055 C207.89999999999964,24.287000000000035 207.70000000000073,24.461000000000013 207.60000000000036,24.611999999999966 C207.39999999999964,24.763000000000034 207.29999999999927,24.964000000000055 207.10000000000036,25.214000000000055 C207.0,25.464000000000055 206.89999999999964,25.760999999999967 206.79999999999927,26.104000000000042 C206.79999999999927,26.44799999999998 206.79999999999927,26.860000000000014 206.79999999999927,27.339000000000055 C206.79999999999927,27.827999999999975 206.79999999999927,28.253000000000043 206.79999999999927,28.611999999999966 C206.89999999999964,28.97199999999998 207.0,29.275999999999954 207.10000000000036,29.525999999999954 C207.29999999999927,29.775999999999954 207.39999999999964,29.98199999999997 207.60000000000036,30.144000000000005 C207.70000000000073,30.30499999999995 207.89999999999964,30.474000000000046 208.10000000000036,30.650999999999954 L208.0,30.79200000000003 M208.60000000000036,27.66700000000003 C208.60000000000036,27.07299999999998 208.70000000000073,26.59699999999998 209.10000000000036,26.236999999999966 C209.39999999999964,25.878000000000043 209.79999999999927,25.69799999999998 210.29999999999927,25.69799999999998 C210.60000000000036,25.69799999999998 210.89999999999964,25.778999999999996 211.20000000000073,25.940000000000055 C211.39999999999964,26.101999999999975 211.5,26.297000000000025 211.5,26.525999999999954 C211.5,26.610000000000014 211.5,26.684999999999945 211.39999999999964,26.753000000000043 C211.29999999999927,26.821000000000026 211.20000000000073,26.854000000000042 211.10000000000036,26.854000000000042 C211.0,26.854000000000042 210.79999999999927,26.735000000000014 210.79999999999927,26.495000000000005 L210.70000000000073,26.32299999999998 C210.70000000000073,26.16700000000003 210.60000000000036,26.062999999999988 210.60000000000036,26.010999999999967 C210.5,25.958999999999946 210.39999999999964,25.932999999999993 210.29999999999927,25.932999999999993 C209.89999999999964,25.932999999999993 209.70000000000073,26.059999999999945 209.5,26.315000000000055 C209.29999999999927,26.571000000000026 209.20000000000073,26.90700000000004 209.20000000000073,27.32299999999998 C209.20000000000073,27.770999999999958 209.29999999999927,28.140999999999963 209.5,28.432999999999993 C209.70000000000073,28.724000000000046 210.0,28.870000000000005 210.39999999999964,28.870000000000005 C210.60000000000036,28.870000000000005 210.79999999999927,28.812999999999988 211.0,28.69799999999998 C211.10000000000036,28.583999999999946 211.29999999999927,28.390999999999963 211.5,28.120000000000005 L211.60000000000036,28.182999999999993 C211.60000000000036,28.297000000000025 211.5,28.388000000000034 211.5,28.456000000000017 C211.39999999999964,28.524 211.39999999999964,28.628000000000043 211.29999999999927,28.769000000000005 C211.20000000000073,28.908999999999992 211.10000000000036,29.020999999999958 211.0,29.104000000000042 C210.89999999999964,29.187999999999988 210.70000000000073,29.265999999999963 210.60000000000036,29.339000000000055 C210.39999999999964,29.412000000000035 210.20000000000073,29.44799999999998 210.10000000000036,29.44799999999998 C209.60000000000036,29.44799999999998 209.29999999999927,29.28200000000004 209.0,28.94799999999998 C208.70000000000073,28.61500000000001 208.60000000000036,28.187999999999988 208.60000000000036,27.66700000000003 M212.20000000000073,23.964000000000055 C212.39999999999964,24.047000000000025 212.5,24.149 212.70000000000073,24.269000000000005 C212.79999999999927,24.388000000000034 213.0,24.55499999999995 213.20000000000073,24.769000000000005 C213.39999999999964,24.98199999999997 213.5,25.211000000000013 213.70000000000073,25.456000000000017 C213.79999999999927,25.701000000000022 213.89999999999964,25.991999999999962 214.0,26.331000000000017 C214.10000000000036,26.66999999999996 214.20000000000073,27.025999999999954 214.20000000000073,27.400999999999954 C214.20000000000073,27.775999999999954 214.10000000000036,28.135999999999967 214.0,28.479000000000042 C213.89999999999964,28.82299999999998 213.79999999999927,29.110000000000014 213.70000000000073,29.339000000000055 C213.60000000000036,29.567999999999984 213.39999999999964,29.787000000000035 213.20000000000073,29.995000000000005 C213.0,30.202999999999975 212.79999999999927,30.360000000000014 212.70000000000073,30.464000000000055 C212.5,30.567999999999984 212.39999999999964,30.67700000000002 212.20000000000073,30.79200000000003 L212.10000000000036,30.650999999999954 C212.39999999999964,30.464000000000055 212.60000000000036,30.29200000000003 212.70000000000073,30.135999999999967 C212.89999999999964,29.979000000000042 213.0,29.778999999999996 213.10000000000036,29.533999999999992 C213.29999999999927,29.288999999999987 213.29999999999927,28.995000000000005 213.39999999999964,28.650999999999954 C213.5,28.307999999999993 213.5,27.895999999999958 213.5,27.41700000000003 C213.5,26.92700000000002 213.5,26.503000000000043 213.39999999999964,26.144000000000005 C213.29999999999927,25.783999999999992 213.29999999999927,25.476999999999975 213.10000000000036,25.22199999999998 C213.0,24.966000000000008 212.89999999999964,24.760999999999967 212.70000000000073,24.604000000000042 C212.60000000000036,24.44799999999998 212.39999999999964,24.275999999999954 212.10000000000036,24.089000000000055 L212.20000000000073,23.964000000000055 M218.0,24.635999999999967 C217.89999999999964,24.635999999999967 217.70000000000073,24.692999999999984 217.39999999999964,24.807999999999993 L217.39999999999964,24.69799999999998 L218.79999999999927,23.964000000000055 L218.89999999999964,23.979000000000042 L218.89999999999964,28.775999999999954 C218.89999999999964,28.974000000000046 219.0,29.101999999999975 219.10000000000036,29.158999999999992 C219.20000000000073,29.216000000000008 219.39999999999964,29.245000000000005 219.70000000000073,29.245000000000005 L219.70000000000073,29.370000000000005 L217.5,29.370000000000005 L217.5,29.245000000000005 C217.79999999999927,29.235000000000014 218.0,29.190000000000055 218.10000000000036,29.111999999999966 C218.20000000000073,29.033999999999992 218.20000000000073,28.870000000000005 218.20000000000073,28.620000000000005 L218.20000000000073,25.010999999999967 C218.20000000000073,24.760999999999967 218.20000000000073,24.635999999999967 218.0,24.635999999999967 M221.0,29.54200000000003 L221.0,29.385999999999967 C221.60000000000036,29.28200000000004 222.10000000000036,29.024 222.5,28.611999999999966 C222.89999999999964,28.201000000000022 223.20000000000073,27.66700000000003 223.39999999999964,27.010999999999967 C223.0,27.32299999999998 222.60000000000036,27.479000000000042 222.20000000000073,27.479000000000042 C221.79999999999927,27.479000000000042 221.39999999999964,27.327999999999975 221.20000000000073,27.025999999999954 C220.89999999999964,26.724000000000046 220.79999999999927,26.333999999999946 220.79999999999927,25.854000000000042 C220.79999999999927,25.312999999999988 220.89999999999964,24.860000000000014 221.20000000000073,24.495000000000005 C221.5,24.129999999999995 221.89999999999964,23.94799999999998 222.39999999999964,23.94799999999998 C223.0,23.94799999999998 223.39999999999964,24.158999999999992 223.70000000000073,24.581000000000017 C224.10000000000036,25.003000000000043 224.20000000000073,25.547000000000025 224.20000000000073,26.214000000000055 C224.20000000000073,26.432999999999993 224.20000000000073,26.653999999999996 224.20000000000073,26.878000000000043 C224.10000000000036,27.101999999999975 224.0,27.366999999999962 223.89999999999964,27.674999999999955 C223.79999999999927,27.98199999999997 223.60000000000036,28.254999999999995 223.39999999999964,28.495000000000005 C223.10000000000036,28.735000000000014 222.79999999999927,28.952999999999975 222.39999999999964,29.150999999999954 C222.0,29.349000000000046 221.5,29.479000000000042 221.0,29.54200000000003 M222.5,27.120000000000005 C222.60000000000036,27.120000000000005 222.70000000000073,27.10699999999997 222.79999999999927,27.081000000000017 C223.0,27.05499999999995 223.10000000000036,26.991999999999962 223.20000000000073,26.894000000000005 C223.29999999999927,26.79499999999996 223.39999999999964,26.672000000000025 223.39999999999964,26.525999999999954 L223.39999999999964,26.214000000000055 C223.39999999999964,24.860000000000014 223.10000000000036,24.182999999999993 222.39999999999964,24.182999999999993 C222.20000000000073,24.182999999999993 222.10000000000036,24.226999999999975 221.89999999999964,24.315000000000055 C221.79999999999927,24.403999999999996 221.70000000000073,24.520999999999958 221.70000000000073,24.66700000000003 C221.60000000000036,24.812999999999988 221.60000000000036,24.958999999999946 221.5,25.104000000000042 C221.5,25.25 221.5,25.40700000000004 221.5,25.57299999999998 C221.5,26.05200000000002 221.60000000000036,26.42999999999995 221.79999999999927,26.706000000000017 C221.89999999999964,26.98199999999997 222.20000000000073,27.120000000000005 222.5,27.120000000000005 M226.60000000000036,29.479000000000042 C226.0,29.479000000000042 225.60000000000036,29.265999999999963 225.29999999999927,28.839000000000055 C224.89999999999964,28.412000000000035 224.79999999999927,27.84400000000005 224.79999999999927,27.135999999999967 C224.79999999999927,26.91700000000003 224.79999999999927,26.692999999999984 224.79999999999927,26.464000000000055 C224.89999999999964,26.235000000000014 225.0,25.97199999999998 225.10000000000036,25.674999999999955 C225.29999999999927,25.378000000000043 225.39999999999964,25.111999999999966 225.70000000000073,24.878000000000043 C225.89999999999964,24.644000000000005 226.20000000000073,24.434999999999945 226.70000000000073,24.253000000000043 C227.10000000000036,24.071000000000026 227.5,23.952999999999975 228.10000000000036,23.900999999999954 L228.10000000000036,24.025999999999954 C227.5,24.129999999999995 226.89999999999964,24.385999999999967 226.5,24.79200000000003 C226.10000000000036,25.19799999999998 225.79999999999927,25.702999999999975 225.70000000000073,26.307999999999993 C226.0,26.162000000000035 226.10000000000036,26.067999999999984 226.29999999999927,26.025999999999954 C226.39999999999964,25.985000000000014 226.60000000000036,25.964000000000055 226.70000000000073,25.964000000000055 C227.20000000000073,25.964000000000055 227.60000000000036,26.111999999999966 227.89999999999964,26.408999999999992 C228.10000000000036,26.706000000000017 228.29999999999927,27.104000000000042 228.29999999999927,27.604000000000042 C228.29999999999927,28.15700000000004 228.10000000000036,28.60699999999997 227.79999999999927,28.956000000000017 C227.5,29.30499999999995 227.10000000000036,29.479000000000042 226.60000000000036,29.479000000000042 M226.39999999999964,26.32299999999998 C226.10000000000036,26.32299999999998 225.79999999999927,26.400999999999954 225.70000000000073,26.557999999999993 C225.60000000000036,26.714000000000055 225.5,26.94799999999998 225.5,27.260999999999967 C225.5,27.875 225.60000000000036,28.360000000000014 225.79999999999927,28.714000000000055 C226.0,29.067999999999984 226.29999999999927,29.245000000000005 226.60000000000036,29.245000000000005 C226.89999999999964,29.245000000000005 227.20000000000073,29.128000000000043 227.29999999999927,28.894000000000005 C227.39999999999964,28.658999999999992 227.5,28.32299999999998 227.5,27.885999999999967 C227.5,27.385999999999967 227.39999999999964,27.0 227.20000000000073,26.729000000000042 C227.10000000000036,26.458999999999946 226.79999999999927,26.32299999999998 226.39999999999964,26.32299999999998 M230.79999999999927,26.400999999999954 C231.29999999999927,26.754999999999995 231.60000000000036,27.05200000000002 231.79999999999927,27.29200000000003 C232.0,27.53200000000004 232.10000000000036,27.807999999999993 232.10000000000036,28.120000000000005 C232.10000000000036,28.537000000000035 231.89999999999964,28.866999999999962 231.60000000000036,29.111999999999966 C231.29999999999927,29.35699999999997 231.0,29.479000000000042 230.5,29.479000000000042 C230.0,29.479000000000042 229.70000000000073,29.35699999999997 229.39999999999964,29.111999999999966 C229.10000000000036,28.866999999999962 228.89999999999964,28.547000000000025 228.89999999999964,28.150999999999954 C228.89999999999964,27.879999999999995 229.0,27.653999999999996 229.10000000000036,27.47199999999998 C229.29999999999927,27.288999999999987 229.60000000000036,27.037000000000035 230.0,26.714000000000055 C229.60000000000036,26.339000000000055 229.29999999999927,26.062999999999988 229.20000000000073,25.885999999999967 C229.0,25.708999999999946 229.0,25.49000000000001 229.0,25.229000000000042 C229.0,24.86500000000001 229.10000000000036,24.559999999999945 229.39999999999964,24.315000000000055 C229.70000000000073,24.071000000000026 230.10000000000036,23.94799999999998 230.5,23.94799999999998 C230.89999999999964,23.94799999999998 231.20000000000073,24.05499999999995 231.5,24.269000000000005 C231.79999999999927,24.48199999999997 231.89999999999964,24.760999999999967 231.89999999999964,25.104000000000042 C231.89999999999964,25.375 231.79999999999927,25.604000000000042 231.60000000000036,25.79200000000003 C231.5,25.979000000000042 231.20000000000073,26.182999999999993 230.79999999999927,26.400999999999954 M230.20000000000073,26.870000000000005 C230.0,27.057999999999993 229.79999999999927,27.241999999999962 229.70000000000073,27.424999999999955 C229.60000000000036,27.60699999999997 229.60000000000036,27.827999999999975 229.60000000000036,28.089000000000055 C229.60000000000036,28.432999999999993 229.70000000000073,28.711000000000013 229.79999999999927,28.924999999999955 C230.0,29.138000000000034 230.29999999999927,29.245000000000005 230.60000000000036,29.245000000000005 C230.79999999999927,29.245000000000005 231.0,29.163999999999987 231.20000000000073,29.003000000000043 C231.39999999999964,28.841000000000008 231.39999999999964,28.629999999999995 231.39999999999964,28.370000000000005 C231.39999999999964,28.287000000000035 231.39999999999964,28.206000000000017 231.39999999999964,28.128000000000043 C231.39999999999964,28.049999999999955 231.39999999999964,27.985000000000014 231.39999999999964,27.932999999999993 C231.29999999999927,27.879999999999995 231.29999999999927,27.817999999999984 231.20000000000073,27.745000000000005 C231.20000000000073,27.672000000000025 231.10000000000036,27.616999999999962 231.10000000000036,27.581000000000017 C231.10000000000036,27.54499999999996 231.0,27.486999999999966 230.89999999999964,27.408999999999992 C230.79999999999927,27.331000000000017 230.79999999999927,27.275999999999954 230.70000000000073,27.245000000000005 C230.70000000000073,27.214000000000055 230.60000000000036,27.153999999999996 230.5,27.065000000000055 C230.29999999999927,26.976999999999975 230.29999999999927,26.912000000000035 230.20000000000073,26.870000000000005 M230.60000000000036,26.260999999999967 C230.60000000000036,26.25 230.60000000000036,26.22199999999998 230.70000000000073,26.174999999999955 C230.79999999999927,26.128000000000043 230.79999999999927,26.091000000000008 230.79999999999927,26.065000000000055 C230.89999999999964,26.038999999999987 230.89999999999964,26.0 231.0,25.94799999999998 C231.0,25.895999999999958 231.10000000000036,25.84400000000005 231.10000000000036,25.79200000000003 C231.10000000000036,25.74000000000001 231.20000000000073,25.67700000000002 231.20000000000073,25.604000000000042 C231.29999999999927,25.53200000000004 231.29999999999927,25.451000000000022 231.29999999999927,25.361999999999966 C231.29999999999927,25.274 231.29999999999927,25.182999999999993 231.29999999999927,25.089000000000055 C231.29999999999927,24.817999999999984 231.29999999999927,24.599000000000046 231.10000000000036,24.432999999999993 C230.89999999999964,24.265999999999963 230.70000000000073,24.182999999999993 230.5,24.182999999999993 C230.20000000000073,24.182999999999993 230.0,24.258000000000038 229.79999999999927,24.408999999999992 C229.70000000000073,24.559999999999945 229.60000000000036,24.75 229.60000000000036,24.979000000000042 C229.60000000000036,25.19799999999998 229.70000000000073,25.40700000000004 229.79999999999927,25.604000000000042 C230.0,25.80200000000002 230.20000000000073,26.020999999999958 230.60000000000036,26.260999999999967 M239.89999999999964,26.69799999999998 C239.89999999999964,26.937999999999988 239.89999999999964,27.172000000000025 239.89999999999964,27.400999999999954 C239.79999999999927,27.629999999999995 239.70000000000073,27.866999999999962 239.60000000000036,28.111999999999966 C239.39999999999964,28.35699999999997 239.20000000000073,28.567999999999984 239.0,28.745000000000005 C238.79999999999927,28.922000000000025 238.5,29.071000000000026 238.10000000000036,29.190000000000055 C237.70000000000073,29.309999999999945 237.29999999999927,29.370000000000005 236.79999999999927,29.370000000000005 L234.60000000000036,29.370000000000005 L234.60000000000036,29.214000000000055 C234.89999999999964,29.192999999999984 235.10000000000036,29.140999999999963 235.20000000000073,29.057999999999993 C235.20000000000073,28.974000000000046 235.29999999999927,28.787000000000035 235.29999999999927,28.495000000000005 L235.29999999999927,24.94799999999998 C235.29999999999927,24.65700000000004 235.20000000000073,24.47199999999998 235.20000000000073,24.394000000000005 C235.10000000000036,24.315000000000055 234.89999999999964,24.260999999999967 234.60000000000036,24.229000000000042 L234.60000000000036,24.07299999999998 L236.70000000000073,24.07299999999998 C237.20000000000073,24.07299999999998 237.70000000000073,24.128000000000043 238.0,24.236999999999966 C238.39999999999964,24.34699999999998 238.70000000000073,24.486999999999966 239.0,24.658999999999992 C239.20000000000073,24.831000000000017 239.39999999999964,25.037000000000035 239.5,25.275999999999954 C239.70000000000073,25.515999999999963 239.79999999999927,25.75 239.89999999999964,25.979000000000042 C239.89999999999964,26.208999999999946 239.89999999999964,26.44799999999998 239.89999999999964,26.69799999999998 M239.10000000000036,26.760999999999967 C239.10000000000036,26.53200000000004 239.0,26.309999999999945 239.0,26.09699999999998 C238.89999999999964,25.883000000000038 238.89999999999964,25.66999999999996 238.70000000000073,25.456000000000017 C238.60000000000036,25.241999999999962 238.5,25.059999999999945 238.29999999999927,24.908999999999992 C238.10000000000036,24.758000000000038 237.89999999999964,24.633000000000038 237.60000000000036,24.533999999999992 C237.20000000000073,24.434999999999945 236.89999999999964,24.385999999999967 236.5,24.385999999999967 C236.39999999999964,24.385999999999967 236.20000000000073,24.40700000000004 236.20000000000073,24.44799999999998 C236.10000000000036,24.49000000000001 236.10000000000036,24.57299999999998 236.10000000000036,24.69799999999998 L236.10000000000036,28.745000000000005 C236.10000000000036,28.870000000000005 236.10000000000036,28.956000000000017 236.20000000000073,29.003000000000043 C236.20000000000073,29.049999999999955 236.39999999999964,29.07299999999998 236.5,29.07299999999998 C238.20000000000073,29.07299999999998 239.10000000000036,28.30200000000002 239.10000000000036,26.760999999999967 M242.89999999999964,26.885999999999967 C242.70000000000073,26.458999999999946 242.60000000000036,26.190000000000055 242.60000000000036,26.081000000000017 C242.5,25.97199999999998 242.39999999999964,25.90700000000004 242.20000000000073,25.885999999999967 L242.20000000000073,25.775999999999954 L243.79999999999927,25.775999999999954 L243.79999999999927,25.885999999999967 C243.60000000000036,25.91700000000003 243.5,25.951000000000022 243.39999999999964,25.986999999999966 C243.39999999999964,26.024 243.29999999999927,26.089000000000055 243.29999999999927,26.182999999999993 C243.29999999999927,26.245000000000005 243.39999999999964,26.400999999999954 243.5,26.650999999999954 L244.10000000000036,28.44799999999998 L244.89999999999964,26.66700000000003 C245.0,26.44799999999998 245.0,26.270999999999958 245.0,26.135999999999967 C245.0,26.07299999999998 245.0,26.024 244.89999999999964,25.986999999999966 C244.89999999999964,25.951000000000022 244.79999999999927,25.91700000000003 244.60000000000036,25.885999999999967 L244.60000000000036,25.775999999999954 L245.60000000000036,25.775999999999954 L245.60000000000036,25.885999999999967 C245.5,25.91700000000003 245.5,25.956000000000017 245.5,26.003000000000043 C245.39999999999964,26.049999999999955 245.39999999999964,26.15700000000004 245.29999999999927,26.32299999999998 L244.20000000000073,29.089000000000055 C244.10000000000036,29.349000000000046 244.0,29.479000000000042 244.0,29.479000000000042 C243.89999999999964,29.479000000000042 243.89999999999964,29.36500000000001 243.79999999999927,29.135999999999967 L243.10000000000036,27.245000000000005 L242.20000000000073,29.16700000000003 C242.10000000000036,29.375 242.0,29.479000000000042 242.0,29.479000000000042 C241.89999999999964,29.479000000000042 241.79999999999927,29.36500000000001 241.79999999999927,29.135999999999967 L240.70000000000073,26.400999999999954 C240.60000000000036,26.192999999999984 240.5,26.057999999999993 240.5,25.995000000000005 C240.39999999999964,25.932999999999993 240.29999999999927,25.895999999999958 240.29999999999927,25.885999999999967 L240.29999999999927,25.775999999999954 L241.70000000000073,25.775999999999954 L241.70000000000073,25.885999999999967 C241.5,25.90700000000004 241.39999999999964,25.934999999999945 241.39999999999964,25.97199999999998 C241.29999999999927,26.008000000000038 241.29999999999927,26.067999999999984 241.29999999999927,26.150999999999954 C241.29999999999927,26.235000000000014 241.29999999999927,26.317999999999984 241.39999999999964,26.400999999999954 L242.20000000000073,28.479000000000042 L242.89999999999964,26.885999999999967 M245.89999999999964,28.57299999999998 C245.89999999999964,28.479000000000042 245.89999999999964,28.394000000000005 245.89999999999964,28.315000000000055 C245.89999999999964,28.236999999999966 246.0,28.162000000000035 246.0,28.089000000000055 C246.10000000000036,28.015999999999963 246.10000000000036,27.951000000000022 246.20000000000073,27.894000000000005 C246.20000000000073,27.836000000000013 246.29999999999927,27.775999999999954 246.39999999999964,27.714000000000055 C246.5,27.650999999999954 246.60000000000036,27.599000000000046 246.60000000000036,27.557999999999993 C246.70000000000073,27.515999999999963 246.79999999999927,27.46900000000005 246.89999999999964,27.41700000000003 C247.10000000000036,27.36500000000001 247.10000000000036,27.32299999999998 247.20000000000073,27.29200000000003 C247.29999999999927,27.260999999999967 247.39999999999964,27.216000000000008 247.5,27.158999999999992 C247.70000000000073,27.101999999999975 247.79999999999927,27.057999999999993 247.89999999999964,27.025999999999954 L247.89999999999964,26.54200000000003 C247.89999999999964,26.104000000000042 247.70000000000073,25.885999999999967 247.29999999999927,25.885999999999967 C247.10000000000036,25.885999999999967 247.0,25.924999999999955 246.89999999999964,26.003000000000043 C246.70000000000073,26.081000000000017 246.70000000000073,26.172000000000025 246.70000000000073,26.275999999999954 C246.70000000000073,26.317999999999984 246.70000000000073,26.375 246.70000000000073,26.44799999999998 C246.70000000000073,26.520999999999958 246.70000000000073,26.567999999999984 246.70000000000073,26.589000000000055 C246.70000000000073,26.682999999999993 246.70000000000073,26.763000000000034 246.60000000000036,26.831000000000017 C246.60000000000036,26.899 246.5,26.932999999999993 246.39999999999964,26.932999999999993 C246.29999999999927,26.932999999999993 246.20000000000073,26.899 246.10000000000036,26.831000000000017 C246.10000000000036,26.763000000000034 246.0,26.682999999999993 246.0,26.589000000000055 C246.0,26.339000000000055 246.10000000000036,26.128000000000043 246.39999999999964,25.956000000000017 C246.70000000000073,25.783999999999992 247.0,25.69799999999998 247.39999999999964,25.69799999999998 C247.79999999999927,25.69799999999998 248.10000000000036,25.80200000000002 248.20000000000073,26.010999999999967 C248.39999999999964,26.21900000000005 248.5,26.537000000000035 248.5,26.964000000000055 L248.5,28.510999999999967 C248.5,28.687999999999988 248.5,28.809999999999945 248.5,28.878000000000043 C248.60000000000036,28.946000000000026 248.60000000000036,28.979000000000042 248.70000000000073,28.979000000000042 C248.79999999999927,28.979000000000042 249.0,28.92700000000002 249.10000000000036,28.82299999999998 L249.10000000000036,29.04200000000003 C248.89999999999964,29.19799999999998 248.79999999999927,29.30499999999995 248.70000000000073,29.361999999999966 C248.60000000000036,29.41999999999996 248.5,29.44799999999998 248.39999999999964,29.44799999999998 C248.20000000000073,29.44799999999998 248.10000000000036,29.400999999999954 248.0,29.307999999999993 C247.89999999999964,29.214000000000055 247.89999999999964,29.062999999999988 247.89999999999964,28.854000000000042 C247.39999999999964,29.25 247.0,29.44799999999998 246.70000000000073,29.44799999999998 C246.5,29.44799999999998 246.29999999999927,29.366999999999962 246.10000000000036,29.206000000000017 C246.0,29.04499999999996 245.89999999999964,28.833999999999946 245.89999999999964,28.57299999999998 M247.89999999999964,28.370000000000005 L247.89999999999964,27.214000000000055 C247.39999999999964,27.390999999999963 247.10000000000036,27.562999999999988 246.89999999999964,27.729000000000042 C246.70000000000073,27.895999999999958 246.60000000000036,28.09400000000005 246.60000000000036,28.32299999999998 C246.60000000000036,28.54200000000003 246.60000000000036,28.702999999999975 246.70000000000073,28.807999999999993 C246.79999999999927,28.912000000000035 247.0,28.964000000000055 247.10000000000036,28.964000000000055 C247.29999999999927,28.964000000000055 247.5,28.90700000000004 247.70000000000073,28.79200000000003 C247.70000000000073,28.74000000000001 247.79999999999927,28.687999999999988 247.79999999999927,28.635999999999967 C247.79999999999927,28.583999999999946 247.89999999999964,28.495000000000005 247.89999999999964,28.370000000000005 M251.60000000000036,26.44799999999998 C251.5,26.44799999999998 251.39999999999964,26.400999999999954 251.20000000000073,26.307999999999993 C251.10000000000036,26.214000000000055 251.10000000000036,26.16700000000003 251.0,26.16700000000003 C250.89999999999964,26.16700000000003 250.79999999999927,26.245000000000005 250.70000000000073,26.400999999999954 C250.5,26.557999999999993 250.5,26.702999999999975 250.5,26.839000000000055 L250.5,28.650999999999954 C250.5,28.879999999999995 250.5,29.033999999999992 250.60000000000036,29.111999999999966 C250.70000000000073,29.190000000000055 250.89999999999964,29.235000000000014 251.10000000000036,29.245000000000005 L251.10000000000036,29.370000000000005 L249.20000000000073,29.370000000000005 L249.20000000000073,29.245000000000005 C249.5,29.202999999999975 249.60000000000036,29.150999999999954 249.70000000000073,29.089000000000055 C249.70000000000073,29.025999999999954 249.79999999999927,28.895999999999958 249.79999999999927,28.69799999999998 L249.79999999999927,26.682999999999993 C249.79999999999927,26.504999999999995 249.79999999999927,26.379999999999995 249.70000000000073,26.307999999999993 C249.70000000000073,26.235000000000014 249.60000000000036,26.19799999999998 249.5,26.19799999999998 C249.39999999999964,26.19799999999998 249.29999999999927,26.208999999999946 249.20000000000073,26.229000000000042 L249.20000000000073,26.104000000000042 C249.60000000000036,25.96900000000005 250.0,25.833999999999946 250.39999999999964,25.69799999999998 L250.5,25.714000000000055 L250.5,26.41700000000003 C250.70000000000073,26.145999999999958 250.79999999999927,25.958999999999946 251.0,25.854000000000042 C251.10000000000036,25.75 251.20000000000073,25.69799999999998 251.39999999999964,25.69799999999998 C251.60000000000036,25.69799999999998 251.70000000000073,25.73199999999997 251.70000000000073,25.799999999999955 C251.79999999999927,25.866999999999962 251.79999999999927,25.96900000000005 251.79999999999927,26.104000000000042 C251.79999999999927,26.208999999999946 251.79999999999927,26.29200000000003 251.79999999999927,26.354000000000042 C251.70000000000073,26.41700000000003 251.60000000000036,26.44799999999998 251.60000000000036,26.44799999999998 M254.5,24.729000000000042 C254.5,24.729000000000042 254.39999999999964,24.69799999999998 254.29999999999927,24.635999999999967 C254.29999999999927,24.57299999999998 254.20000000000073,24.504999999999995 254.20000000000073,24.432999999999993 C254.10000000000036,24.360000000000014 254.10000000000036,24.29200000000003 254.0,24.229000000000042 C253.89999999999964,24.16700000000003 253.79999999999927,24.135999999999967 253.79999999999927,24.135999999999967 C253.5,24.135999999999967 253.29999999999927,24.370000000000005 253.29999999999927,24.839000000000055 L253.29999999999927,25.775999999999954 L254.29999999999927,25.775999999999954 L254.29999999999927,26.010999999999967 L253.29999999999927,26.010999999999967 L253.29999999999927,28.54200000000003 C253.29999999999927,28.833999999999946 253.29999999999927,29.020999999999958 253.39999999999964,29.104000000000042 C253.5,29.187999999999988 253.70000000000073,29.235000000000014 254.10000000000036,29.245000000000005 L254.10000000000036,29.370000000000005 L252.0,29.370000000000005 L252.0,29.245000000000005 C252.20000000000073,29.235000000000014 252.39999999999964,29.187999999999988 252.5,29.104000000000042 C252.60000000000036,29.020999999999958 252.60000000000036,28.833999999999946 252.60000000000036,28.54200000000003 L252.60000000000036,26.010999999999967 L252.0,26.010999999999967 L252.0,25.775999999999954 L252.60000000000036,25.775999999999954 C252.60000000000036,25.172000000000025 252.79999999999927,24.706000000000017 253.0,24.378000000000043 C253.20000000000073,24.049999999999955 253.5,23.885999999999967 254.0,23.885999999999967 C254.29999999999927,23.885999999999967 254.5,23.934999999999945 254.60000000000036,24.033999999999992 C254.79999999999927,24.133000000000038 254.89999999999964,24.254999999999995 254.89999999999964,24.400999999999954 C254.89999999999964,24.495000000000005 254.79999999999927,24.57299999999998 254.79999999999927,24.635999999999967 C254.70000000000073,24.69799999999998 254.60000000000036,24.729000000000042 254.5,24.729000000000042 M262.2000000000007,24.79200000000003 L260.2000000000007,29.370000000000005 L260.09999999999854,29.370000000000005 L258.09999999999854,24.979000000000042 L258.09999999999854,28.19799999999998 C258.09999999999854,28.604000000000042 258.09999999999854,28.873000000000047 258.2000000000007,29.003000000000043 C258.2999999999993,29.133000000000038 258.5,29.202999999999975 258.7999999999993,29.214000000000055 L258.7999999999993,29.370000000000005 L257.0,29.370000000000005 L257.0,29.214000000000055 C257.2999999999993,29.192999999999984 257.5,29.120000000000005 257.59999999999854,28.995000000000005 C257.7000000000007,28.870000000000005 257.7000000000007,28.604000000000042 257.7000000000007,28.19799999999998 L257.7000000000007,24.94799999999998 C257.7000000000007,24.65700000000004 257.7000000000007,24.46900000000005 257.59999999999854,24.385999999999967 C257.5,24.30200000000002 257.2999999999993,24.25 257.0,24.229000000000042 L257.0,24.07299999999998 L258.59999999999854,24.07299999999998 L260.40000000000146,28.120000000000005 L262.2000000000007,24.07299999999998 L263.7999999999993,24.07299999999998 L263.7999999999993,24.229000000000042 C263.5,24.260999999999967 263.2999999999993,24.317999999999984 263.2000000000007,24.400999999999954 C263.09999999999854,24.485000000000014 263.09999999999854,24.66700000000003 263.09999999999854,24.94799999999998 L263.09999999999854,28.495000000000005 C263.09999999999854,28.775999999999954 263.09999999999854,28.961000000000013 263.2000000000007,29.049999999999955 C263.2999999999993,29.138000000000034 263.5,29.192999999999984 263.7999999999993,29.214000000000055 L263.7999999999993,29.370000000000005 L261.5,29.370000000000005 L261.5,29.214000000000055 C261.7999999999993,29.192999999999984 262.0,29.135999999999967 262.09999999999854,29.04200000000003 C262.2000000000007,28.94799999999998 262.2000000000007,28.74000000000001 262.2000000000007,28.41700000000003 L262.2000000000007,24.79200000000003 M267.7000000000007,28.94799999999998 L267.7000000000007,29.07299999999998 C267.2999999999993,29.187999999999988 266.90000000000146,29.312999999999988 266.59999999999854,29.44799999999998 L266.59999999999854,29.432999999999993 L266.59999999999854,28.745000000000005 C266.59999999999854,28.765999999999963 266.5,28.815000000000055 266.40000000000146,28.894000000000005 C266.40000000000146,28.97199999999998 266.2999999999993,29.025999999999954 266.2999999999993,29.057999999999993 C266.2999999999993,29.089000000000055 266.2000000000007,29.135999999999967 266.09999999999854,29.19799999999998 C266.0,29.260999999999967 266.0,29.30499999999995 265.90000000000146,29.331000000000017 C265.90000000000146,29.35699999999997 265.7999999999993,29.383000000000038 265.7000000000007,29.408999999999992 C265.59999999999854,29.434999999999945 265.5,29.44799999999998 265.40000000000146,29.44799999999998 C265.09999999999854,29.44799999999998 264.90000000000146,29.351999999999975 264.7000000000007,29.158999999999992 C264.5,28.966000000000008 264.5,28.714000000000055 264.5,28.400999999999954 L264.5,26.385999999999967 C264.5,26.208999999999946 264.40000000000146,26.083999999999946 264.40000000000146,26.010999999999967 C264.2999999999993,25.937999999999988 264.2000000000007,25.895999999999958 264.0,25.885999999999967 L264.0,25.775999999999954 L265.09999999999854,25.775999999999954 L265.09999999999854,28.370000000000005 C265.09999999999854,28.525999999999954 265.2000000000007,28.663999999999987 265.2999999999993,28.783999999999992 C265.40000000000146,28.903999999999996 265.5,28.964000000000055 265.7000000000007,28.964000000000055 C265.7999999999993,28.964000000000055 265.7999999999993,28.956000000000017 265.90000000000146,28.940000000000055 C266.0,28.924999999999955 266.09999999999854,28.895999999999958 266.2000000000007,28.854000000000042 C266.2999999999993,28.812999999999988 266.40000000000146,28.741999999999962 266.40000000000146,28.644000000000005 C266.5,28.54499999999996 266.59999999999854,28.422000000000025 266.59999999999854,28.275999999999954 L266.59999999999854,26.400999999999954 C266.59999999999854,26.214000000000055 266.5,26.086000000000013 266.40000000000146,26.019000000000005 C266.40000000000146,25.951000000000022 266.2000000000007,25.912000000000035 266.0,25.900999999999954 L266.0,25.775999999999954 L267.2000000000007,25.775999999999954 L267.2000000000007,28.495000000000005 C267.2000000000007,28.682999999999993 267.2999999999993,28.80499999999995 267.2999999999993,28.861999999999966 C267.40000000000146,28.91999999999996 267.5,28.94799999999998 267.7000000000007,28.94799999999998 L267.7000000000007,28.94799999999998 M269.90000000000146,25.854000000000042 C269.90000000000146,25.854000000000042 270.0,25.827999999999975 270.09999999999854,25.775999999999954 L270.09999999999854,25.775999999999954 L270.2000000000007,26.854000000000042 L270.09999999999854,26.854000000000042 C270.0,26.5 269.90000000000146,26.248000000000047 269.7000000000007,26.09699999999998 C269.59999999999854,25.946000000000026 269.40000000000146,25.870000000000005 269.2000000000007,25.870000000000005 C269.0,25.870000000000005 268.90000000000146,25.922000000000025 268.7000000000007,26.025999999999954 C268.59999999999854,26.129999999999995 268.59999999999854,26.260999999999967 268.59999999999854,26.41700000000003 C268.59999999999854,26.645999999999958 268.7000000000007,26.827999999999975 268.90000000000146,26.964000000000055 L269.7999999999993,27.479000000000042 C270.0,27.625 270.2000000000007,27.770999999999958 270.2999999999993,27.91700000000003 C270.40000000000146,28.062999999999988 270.40000000000146,28.235000000000014 270.40000000000146,28.432999999999993 C270.40000000000146,28.702999999999975 270.2999999999993,28.940000000000055 270.09999999999854,29.144000000000005 C269.90000000000146,29.34699999999998 269.59999999999854,29.44799999999998 269.2999999999993,29.44799999999998 C269.2000000000007,29.44799999999998 269.0,29.424999999999955 268.7999999999993,29.378000000000043 C268.59999999999854,29.331000000000017 268.40000000000146,29.307999999999993 268.40000000000146,29.307999999999993 C268.2999999999993,29.307999999999993 268.2000000000007,29.339000000000055 268.2000000000007,29.400999999999954 L268.09999999999854,29.400999999999954 L268.09999999999854,28.150999999999954 L268.2000000000007,28.150999999999954 C268.2999999999993,28.525999999999954 268.40000000000146,28.79200000000003 268.5,28.94799999999998 C268.7000000000007,29.16700000000003 268.90000000000146,29.275999999999954 269.2000000000007,29.275999999999954 C269.40000000000146,29.275999999999954 269.59999999999854,29.224000000000046 269.7000000000007,29.120000000000005 C269.7999999999993,29.015999999999963 269.90000000000146,28.875 269.90000000000146,28.69799999999998 C269.90000000000146,28.458999999999946 269.7000000000007,28.260999999999967 269.5,28.104000000000042 L269.0,27.839000000000055 C268.7000000000007,27.640999999999963 268.40000000000146,27.456000000000017 268.2999999999993,27.283999999999992 C268.09999999999854,27.111999999999966 268.09999999999854,26.912000000000035 268.09999999999854,26.682999999999993 C268.09999999999854,26.390999999999963 268.2000000000007,26.153999999999996 268.40000000000146,25.97199999999998 C268.59999999999854,25.788999999999987 268.7999999999993,25.69799999999998 269.2000000000007,25.69799999999998 C269.2999999999993,25.69799999999998 269.5,25.724000000000046 269.59999999999854,25.775999999999954 C269.7999999999993,25.827999999999975 269.90000000000146,25.854000000000042 269.90000000000146,25.854000000000042 M271.2000000000007,26.229000000000042 C271.09999999999854,26.229000000000042 271.0,26.235000000000014 270.90000000000146,26.245000000000005 L270.90000000000146,26.135999999999967 C271.2000000000007,26.03200000000004 271.7000000000007,25.885999999999967 272.09999999999854,25.69799999999998 L272.09999999999854,25.714000000000055 L272.09999999999854,28.557999999999993 C272.09999999999854,28.839000000000055 272.2000000000007,29.019000000000005 272.2000000000007,29.09699999999998 C272.2999999999993,29.174999999999955 272.5,29.224000000000046 272.7000000000007,29.245000000000005 L272.7000000000007,29.370000000000005 L270.7999999999993,29.370000000000005 L270.7999999999993,29.245000000000005 C271.09999999999854,29.235000000000014 271.2999999999993,29.187999999999988 271.40000000000146,29.104000000000042 C271.40000000000146,29.020999999999958 271.5,28.839000000000055 271.5,28.557999999999993 L271.5,26.69799999999998 C271.5,26.520999999999958 271.5,26.399 271.40000000000146,26.331000000000017 C271.40000000000146,26.263000000000034 271.2999999999993,26.229000000000042 271.2000000000007,26.229000000000042 M271.7000000000007,23.900999999999954 C271.90000000000146,23.900999999999954 272.0,23.942999999999984 272.0,24.025999999999954 C272.09999999999854,24.110000000000014 272.2000000000007,24.208999999999946 272.2000000000007,24.32299999999998 C272.2000000000007,24.437999999999988 272.09999999999854,24.533999999999992 272.0,24.611999999999966 C272.0,24.690000000000055 271.90000000000146,24.729000000000042 271.7000000000007,24.729000000000042 C271.59999999999854,24.729000000000042 271.5,24.687999999999988 271.40000000000146,24.604000000000042 C271.40000000000146,24.520999999999958 271.2999999999993,24.424999999999955 271.2999999999993,24.315000000000055 C271.2999999999993,24.206000000000017 271.40000000000146,24.110000000000014 271.40000000000146,24.025999999999954 C271.5,23.942999999999984 271.59999999999854,23.900999999999954 271.7000000000007,23.900999999999954 M273.09999999999854,27.66700000000003 C273.09999999999854,27.07299999999998 273.2999999999993,26.59699999999998 273.7000000000007,26.236999999999966 C274.0,25.878000000000043 274.40000000000146,25.69799999999998 274.90000000000146,25.69799999999998 C275.2000000000007,25.69799999999998 275.5,25.778999999999996 275.7000000000007,25.940000000000055 C276.0,26.101999999999975 276.09999999999854,26.297000000000025 276.09999999999854,26.525999999999954 C276.09999999999854,26.610000000000014 276.0,26.684999999999945 276.0,26.753000000000043 C275.90000000000146,26.821000000000026 275.7999999999993,26.854000000000042 275.7000000000007,26.854000000000042 C275.5,26.854000000000042 275.40000000000146,26.735000000000014 275.2999999999993,26.495000000000005 L275.2999999999993,26.32299999999998 C275.2999999999993,26.16700000000003 275.2000000000007,26.062999999999988 275.09999999999854,26.010999999999967 C275.09999999999854,25.958999999999946 275.0,25.932999999999993 274.7999999999993,25.932999999999993 C274.5,25.932999999999993 274.2000000000007,26.059999999999945 274.09999999999854,26.315000000000055 C273.90000000000146,26.571000000000026 273.7999999999993,26.90700000000004 273.7999999999993,27.32299999999998 C273.7999999999993,27.770999999999958 273.90000000000146,28.140999999999963 274.09999999999854,28.432999999999993 C274.2999999999993,28.724000000000046 274.59999999999854,28.870000000000005 275.0,28.870000000000005 C275.2000000000007,28.870000000000005 275.40000000000146,28.812999999999988 275.59999999999854,28.69799999999998 C275.7000000000007,28.583999999999946 275.90000000000146,28.390999999999963 276.09999999999854,28.120000000000005 L276.2000000000007,28.182999999999993 C276.09999999999854,28.297000000000025 276.09999999999854,28.388000000000034 276.09999999999854,28.456000000000017 C276.0,28.524 276.0,28.628000000000043 275.7999999999993,28.769000000000005 C275.7000000000007,28.908999999999992 275.59999999999854,29.020999999999958 275.5,29.104000000000042 C275.40000000000146,29.187999999999988 275.2999999999993,29.265999999999963 275.2000000000007,29.339000000000055 C275.0,29.412000000000035 274.7999999999993,29.44799999999998 274.59999999999854,29.44799999999998 C274.2000000000007,29.44799999999998 273.7999999999993,29.28200000000004 273.59999999999854,28.94799999999998 C273.2999999999993,28.61500000000001 273.09999999999854,28.187999999999988 273.09999999999854,27.66700000000003 M277.5,28.57299999999998 C277.59999999999854,28.57299999999998 277.7000000000007,28.616999999999962 277.7999999999993,28.706000000000017 C277.90000000000146,28.79499999999996 277.90000000000146,28.900999999999954 277.90000000000146,29.025999999999954 C277.90000000000146,29.140999999999963 277.90000000000146,29.241999999999962 277.7999999999993,29.331000000000017 C277.7000000000007,29.41999999999996 277.59999999999854,29.464000000000055 277.5,29.464000000000055 C277.2999999999993,29.464000000000055 277.2000000000007,29.41999999999996 277.2000000000007,29.331000000000017 C277.09999999999854,29.241999999999962 277.0,29.140999999999963 277.0,29.025999999999954 C277.0,28.900999999999954 277.09999999999854,28.79499999999996 277.2000000000007,28.706000000000017 C277.2999999999993,28.616999999999962 277.40000000000146,28.57299999999998 277.5,28.57299999999998" />
</svg>
