<?xml version="1.0" encoding="UTF-8" standalone="yes"?>
<svg width="256.0px" height="256.0px" xmlns="http://www.w3.org/2000/svg" xmlns:xlink="http://www.w3.org/1999/xlink" version="1.2" baseProfile="tiny">
<path d="M41.79999999999927,7.581000000000017 C41.79999999999927,7.831000000000017 41.600000000000364,7.956000000000017 41.399999999999636,7.956000000000017 C41.20000000000073,7.956000000000017 41.0,7.831000000000017 41.0,7.581000000000017 L41.0,4.690000000000055 L39.399999999999636,5.315000000000055 L39.399999999999636,8.471000000000004 C39.399999999999636,8.721000000000004 39.29999999999927,8.846000000000004 39.0,8.846000000000004 C38.79999999999927,8.846000000000004 38.600000000000364,8.721000000000004 38.600000000000364,8.471000000000004 L38.600000000000364,5.565000000000055 L38.0,5.7999999999999545 C38.0,5.809999999999945 37.899999999999636,5.815000000000055 37.79999999999927,5.815000000000055 C37.70000000000073,5.815000000000055 37.70000000000073,5.775999999999954 37.600000000000364,5.697999999999979 C37.5,5.6200000000000045 37.5,5.528999999999996 37.5,5.4249999999999545 L37.5,4.221000000000004 C37.5,4.024000000000001 37.5,3.899000000000001 37.70000000000073,3.8460000000000036 L38.600000000000364,3.533999999999992 L38.600000000000364,0.3310000000000173 L38.0,0.5499999999999545 C38.0,0.5599999999999454 37.899999999999636,0.5650000000000546 37.79999999999927,0.5650000000000546 C37.70000000000073,0.5650000000000546 37.70000000000073,0.5259999999999536 37.600000000000364,0.4479999999999791 C37.5,0.37000000000000455 37.5,0.27899999999999636 37.5,0.17499999999995453 L37.5,-1.0439999999999827 C37.5,-1.2210000000000036 37.5,-1.3360000000000127 37.70000000000073,-1.3879999999999768 L38.600000000000364,-1.747000000000014 L38.600000000000364,-4.887999999999977 C38.600000000000364,-5.137999999999977 38.79999999999927,-5.262999999999977 39.0,-5.262999999999977 C39.29999999999927,-5.262999999999977 39.399999999999636,-5.137999999999977 39.399999999999636,-4.887999999999977 L39.399999999999636,-1.997000000000014 L41.0,-2.622000000000014 L41.0,-5.778999999999996 C41.0,-6.028999999999996 41.20000000000073,-6.153999999999996 41.399999999999636,-6.153999999999996 C41.600000000000364,-6.153999999999996 41.79999999999927,-6.028999999999996 41.79999999999927,-5.778999999999996 L41.79999999999927,-2.872000000000014 L42.399999999999636,-3.1070000000000277 C42.399999999999636,-3.1170000000000186 42.5,-3.122000000000014 42.600000000000364,-3.122000000000014 C42.600000000000364,-3.122000000000014 42.70000000000073,-3.0860000000000127 42.79999999999927,-3.012999999999977 C42.899999999999636,-2.930000000000007 43.0,-2.8360000000000127 43.0,-2.7320000000000277 L43.0,-1.5289999999999964 C43.0,-1.3410000000000082 42.899999999999636,-1.2160000000000082 42.70000000000073,-1.1539999999999964 L41.79999999999927,-0.8410000000000082 L41.79999999999927,2.3619999999999663 L42.399999999999636,2.143000000000029 C42.399999999999636,2.133000000000038 42.5,2.1280000000000427 42.600000000000364,2.1280000000000427 C42.600000000000364,2.1280000000000427 42.70000000000073,2.1689999999999827 42.79999999999927,2.2530000000000427 C42.899999999999636,2.326000000000022 43.0,2.4139999999999873 43.0,2.518000000000029 L43.0,3.7369999999999663 C43.0,3.9039999999999964 42.899999999999636,4.018000000000029 42.70000000000073,4.081000000000017 L41.79999999999927,4.440000000000055 L41.79999999999927,7.581000000000017 M41.0,-0.5439999999999827 L39.399999999999636,0.033999999999991815 L39.399999999999636,3.2369999999999663 L41.0,2.658999999999992 L41.0,-0.5439999999999827" />
<path d="M11.0,0.08100000000001728 C11.0,0.3310000000000173 10.799999999999272,0.4560000000000173 10.600000000000364,0.4560000000000173 C10.299999999999272,0.4560000000000173 10.200000000000728,0.3310000000000173 10.200000000000728,0.08100000000001728 L10.200000000000728,-2.8100000000000023 L8.600000000000364,-2.1850000000000023 L8.600000000000364,0.9710000000000036 C8.600000000000364,1.2210000000000036 8.399999999999636,1.3460000000000036 8.200000000000728,1.3460000000000036 C7.899999999999636,1.3460000000000036 7.799999999999272,1.2210000000000036 7.799999999999272,0.9710000000000036 L7.799999999999272,-1.9350000000000023 L7.200000000000728,-1.6999999999999886 C7.200000000000728,-1.6899999999999977 7.100000000000364,-1.6850000000000023 7.0,-1.6850000000000023 C6.899999999999636,-1.6850000000000023 6.799999999999272,-1.7239999999999895 6.799999999999272,-1.802000000000021 C6.700000000000728,-1.8799999999999955 6.600000000000364,-1.9710000000000036 6.600000000000364,-2.0749999999999886 L6.600000000000364,-3.2789999999999964 C6.600000000000364,-3.475999999999999 6.700000000000728,-3.600999999999999 6.899999999999636,-3.6539999999999964 L7.799999999999272,-3.966000000000008 L7.799999999999272,-7.168999999999983 L7.200000000000728,-6.949999999999989 C7.200000000000728,-6.939999999999998 7.100000000000364,-6.935000000000002 7.0,-6.935000000000002 C6.899999999999636,-6.935000000000002 6.799999999999272,-6.9739999999999895 6.799999999999272,-7.052000000000021 C6.700000000000728,-7.1299999999999955 6.600000000000364,-7.221000000000004 6.600000000000364,-7.324999999999989 L6.600000000000364,-8.543999999999983 C6.600000000000364,-8.721000000000004 6.700000000000728,-8.836000000000013 6.899999999999636,-8.887999999999977 L7.799999999999272,-9.247000000000014 L7.799999999999272,-12.387999999999977 C7.799999999999272,-12.637999999999977 7.899999999999636,-12.762999999999977 8.200000000000728,-12.762999999999977 C8.399999999999636,-12.762999999999977 8.600000000000364,-12.637999999999977 8.600000000000364,-12.387999999999977 L8.600000000000364,-9.497000000000014 L10.200000000000728,-10.122000000000014 L10.200000000000728,-13.278999999999996 C10.200000000000728,-13.528999999999996 10.299999999999272,-13.653999999999996 10.600000000000364,-13.653999999999996 C10.799999999999272,-13.653999999999996 11.0,-13.528999999999996 11.0,-13.278999999999996 L11.0,-10.372000000000014 L11.600000000000364,-10.607000000000028 C11.600000000000364,-10.617000000000019 11.700000000000728,-10.622000000000014 11.700000000000728,-10.622000000000014 C11.799999999999272,-10.622000000000014 11.899999999999636,-10.586000000000013 12.0,-10.512999999999977 C12.100000000000364,-10.430000000000007 12.200000000000728,-10.336000000000013 12.200000000000728,-10.232000000000028 L12.200000000000728,-9.028999999999996 C12.200000000000728,-8.841000000000008 12.100000000000364,-8.716000000000008 11.899999999999636,-8.653999999999996 L11.0,-8.341000000000008 L11.0,-5.137999999999977 L11.600000000000364,-5.357000000000028 C11.600000000000364,-5.367000000000019 11.700000000000728,-5.372000000000014 11.700000000000728,-5.372000000000014 C11.799999999999272,-5.372000000000014 11.899999999999636,-5.331000000000017 12.0,-5.247000000000014 C12.100000000000364,-5.173999999999978 12.200000000000728,-5.086000000000013 12.200000000000728,-4.982000000000028 L12.200000000000728,-3.762999999999977 C12.200000000000728,-3.5960000000000036 12.100000000000364,-3.4820000000000277 11.899999999999636,-3.4189999999999827 L11.0,-3.0600000000000023 L11.0,0.08100000000001728 M10.200000000000728,-8.043999999999983 L8.600000000000364,-7.466000000000008 L8.600000000000364,-4.262999999999977 L10.200000000000728,-4.841000000000008 L10.200000000000728,-8.043999999999983" />
<path d="M234.29999999999927,68.596 C234.89999999999964,68.596 235.5,68.75800000000004 235.89999999999964,69.08100000000002 C236.29999999999927,69.43499999999995 236.5,69.87800000000004 236.5,70.40899999999999 C236.5,71.30499999999995 236.10000000000036,72.14300000000003 235.10000000000036,72.92499999999995 C234.20000000000073,73.70600000000002 233.20000000000073,74.096 232.10000000000036,74.096 C231.5,74.096 231.0,73.93499999999995 230.5,73.61199999999997 C230.10000000000036,73.25800000000004 229.89999999999964,72.81500000000005 229.89999999999964,72.28399999999999 C229.89999999999964,71.38800000000003 230.39999999999964,70.54999999999995 231.29999999999927,69.76800000000003 C232.29999999999927,68.98699999999997 233.20000000000073,68.596 234.29999999999927,68.596" />
<path d="M203.5,68.596 C204.10000000000036,68.596 204.70000000000073,68.75800000000004 205.10000000000036,69.08100000000002 C205.5,69.43499999999995 205.70000000000073,69.87800000000004 205.70000000000073,70.40899999999999 C205.70000000000073,71.30499999999995 205.20000000000073,72.14300000000003 204.29999999999927,72.92499999999995 C203.39999999999964,73.70600000000002 202.39999999999964,74.096 201.29999999999927,74.096 C200.70000000000073,74.096 200.20000000000073,73.93499999999995 199.70000000000073,73.61199999999997 C199.29999999999927,73.25800000000004 199.10000000000036,72.81500000000005 199.10000000000036,72.28399999999999 C199.10000000000036,71.38800000000003 199.60000000000036,70.54999999999995 200.5,69.76800000000003 C201.39999999999964,68.98699999999997 202.39999999999964,68.596 203.5,68.596" />
<path d="M172.70000000000073,71.096 C173.29999999999927,71.096 173.89999999999964,71.25800000000004 174.29999999999927,71.58100000000002 C174.70000000000073,71.93499999999995 174.89999999999964,72.37800000000004 174.89999999999964,72.90899999999999 C174.89999999999964,73.80499999999995 174.39999999999964,74.64300000000003 173.5,75.42499999999995 C172.60000000000036,76.20600000000002 171.60000000000036,76.596 170.5,76.596 C169.89999999999964,76.596 169.29999999999927,76.43499999999995 168.89999999999964,76.11199999999997 C168.5,75.75800000000004 168.29999999999927,75.31500000000005 168.29999999999927,74.78399999999999 C168.29999999999927,73.88800000000003 168.79999999999927,73.04999999999995 169.70000000000073,72.26800000000003 C170.60000000000036,71.48699999999997 171.60000000000036,71.096 172.70000000000073,71.096" />
<path d="M141.89999999999964,71.096 C142.5,71.096 143.0,71.25800000000004 143.5,71.58100000000002 C143.89999999999964,71.93499999999995 144.10000000000036,72.37800000000004 144.10000000000036,72.90899999999999 C144.10000000000036,73.80499999999995 143.60000000000036,74.64300000000003 142.70000000000073,75.42499999999995 C141.79999999999927,76.20600000000002 140.79999999999927,76.596 139.70000000000073,76.596 C139.10000000000036,76.596 138.5,76.43499999999995 138.10000000000036,76.11199999999997 C137.70000000000073,75.75800000000004 137.5,75.31500000000005 137.5,74.78399999999999 C137.5,73.88800000000003 138.0,73.04999999999995 138.89999999999964,72.26800000000003 C139.79999999999927,71.48699999999997 140.79999999999927,71.096 141.89999999999964,71.096" />
<path d="M111.10000000000036,71.096 C111.70000000000073,71.096 112.20000000000073,71.25800000000004 112.70000000000073,71.58100000000002 C113.10000000000036,71.93499999999995 113.29999999999927,72.37800000000004 113.29999999999927,72.90899999999999 C113.29999999999927,73.80499999999995 112.79999999999927,74.64300000000003 111.89999999999964,75.42499999999995 C111.0,76.20600000000002 109.89999999999964,76.596 108.89999999999964,76.596 C108.20000000000073,76.596 107.70000000000073,76.43499999999995 107.29999999999927,76.11199999999997 C106.89999999999964,75.75800000000004 106.70000000000073,75.31500000000005 106.70000000000073,74.78399999999999 C106.70000000000073,73.88800000000003 107.20000000000073,73.04999999999995 108.10000000000036,72.26800000000003 C109.0,71.48699999999997 110.0,71.096 111.10000000000036,71.096" />
<path d="M80.29999999999927,68.596 C80.89999999999964,68.596 81.39999999999964,68.75800000000004 81.89999999999964,69.08100000000002 C82.29999999999927,69.43499999999995 82.5,69.87800000000004 82.5,70.40899999999999 C82.5,71.30499999999995 82.0,72.14300000000003 81.10000000000036,72.92499999999995 C80.10000000000036,73.70600000000002 79.10000000000036,74.096 78.10000000000036,74.096 C77.39999999999964,74.096 76.89999999999964,73.93499999999995 76.5,73.61199999999997 C76.10000000000036,73.25800000000004 75.89999999999964,72.81500000000005 75.89999999999964,72.28399999999999 C75.89999999999964,71.38800000000003 76.29999999999927,70.54999999999995 77.29999999999927,69.76800000000003 C78.20000000000073,68.98699999999997 79.20000000000073,68.596 80.29999999999927,68.596" />
<path d="M49.5,71.096 C50.100000000000364,71.096 50.600000000000364,71.25800000000004 51.0,71.58100000000002 C51.399999999999636,71.93499999999995 51.600000000000364,72.37800000000004 51.600000000000364,72.90899999999999 C51.600000000000364,73.80499999999995 51.20000000000073,74.64300000000003 50.29999999999927,75.42499999999995 C49.29999999999927,76.20600000000002 48.29999999999927,76.596 47.29999999999927,76.596 C46.600000000000364,76.596 46.100000000000364,76.43499999999995 45.70000000000073,76.11199999999997 C45.29999999999927,75.75800000000004 45.100000000000364,75.31500000000005 45.100000000000364,74.78399999999999 C45.100000000000364,73.88800000000003 45.5,73.04999999999995 46.5,72.26800000000003 C47.399999999999636,71.48699999999997 48.399999999999636,71.096 49.5,71.096" />
<path d="M18.600000000000364,71.096 C19.299999999999272,71.096 19.799999999999272,71.25800000000004 20.200000000000728,71.58100000000002 C20.600000000000364,71.93499999999995 20.799999999999272,72.37800000000004 20.799999999999272,72.90899999999999 C20.799999999999272,73.80499999999995 20.399999999999636,74.64300000000003 19.5,75.42499999999995 C18.5,76.20600000000002 17.5,76.596 16.399999999999636,76.596 C15.799999999999272,76.596 15.299999999999272,76.43499999999995 14.899999999999636,76.11199999999997 C14.5,75.75800000000004 14.299999999999272,75.31500000000005 14.299999999999272,74.78399999999999 C14.299999999999272,73.88800000000003 14.700000000000728,73.04999999999995 15.700000000000728,72.26800000000003 C16.600000000000364,71.48699999999997 17.600000000000364,71.096 18.600000000000364,71.096" />
<path d="M137.5,90.096 L230.60000000000036,88.83799999999997 L230.60000000000036,91.33799999999997 L137.5,92.596 L137.5,90.096" />
<path d="M137.5,86.346 L230.60000000000036,85.08799999999997 L230.60000000000036,87.58799999999997 L137.5,88.846 L137.5,86.346" />
<path d="M137.5,21.346000000000004 L199.79999999999927,21.346000000000004 L199.79999999999927,23.846000000000004 L137.5,23.846000000000004 L137.5,21.346000000000004" />
<path d="M137.5,17.596000000000004 L169.0,17.596000000000004 L169.0,20.096000000000004 L137.5,20.096000000000004 L137.5,17.596000000000004" />
<path d="M14.299999999999272,88.846 L107.29999999999927,88.846 L107.29999999999927,91.346 L14.299999999999272,91.346 L14.299999999999272,88.846" />
<path d="M14.299999999999272,85.096 L107.29999999999927,85.096 L107.29999999999927,87.596 L14.299999999999272,87.596 L14.299999999999272,85.096" />
<path d="M14.299999999999272,21.346000000000004 L107.29999999999927,21.346000000000004 L107.29999999999927,23.846000000000004 L14.299999999999272,23.846000000000004 L14.299999999999272,21.346000000000004" />
<path d="M14.299999999999272,17.596000000000004 L107.29999999999927,17.596000000000004 L107.29999999999927,20.096000000000004 L14.299999999999272,20.096000000000004 L14.299999999999272,17.596000000000004" />
<polyline points="0.0,13.846000000000004 255.0,13.846000000000004" fill="none" stroke="#000000" stroke-width="0.40" />
<polyline points="0.0,18.846000000000004 255.0,18.846000000000004" fill="none" stroke="#000000" stroke-width="0.40" />
<polyline points="0.0,23.846000000000004 255.0,23.846000000000004" fill="none" stroke="#000000" stroke-width="0.40" />
<polyline points="0.0,28.846000000000004 255.0,28.846000000000004" fill="none" stroke="#000000" stroke-width="0.40" />
<polyline points="0.0,33.846000000000004 255.0,33.846000000000004" fill="none" stroke="#000000" stroke-width="0.40" />
<polyline points="0.0,66.346 255.0,66.346" fill="none" stroke="#000000" stroke-width="0.40" />
<polyline points="0.0,71.346 255.0,71.346" fill="none" stroke="#000000" stroke-width="0.40" />
<polyline points="0.0,76.346 255.0,76.346" fill="none" stroke="#000000" stroke-width="0.40" />
<polyline points="0.0,81.346 255.0,81.346" fill="none" stroke="#000000" stroke-width="0.40" />
<polyline points="0.0,86.346 255.0,86.346" fill="none" stroke="#000000" stroke-width="0.40" />
<polyline points="230.29999999999927,72.28599999999994 230.29999999999927,90.096" fill="" stroke="#000000" stroke-width="0.65" />
<polyline points="199.39999999999964,72.28599999999994 199.39999999999964,90.51300000000003" fill="" stroke="#000000" stroke-width="0.65" />
<polyline points="199.39999999999964,0.0 199.39999999999964,22.596000000000004" fill="" stroke="#000000" stroke-width="0.65" />
<polyline points="168.60000000000036,74.78599999999994 168.60000000000036,90.92999999999995" fill="" stroke="#000000" stroke-width="0.65" />
<polyline points="168.60000000000036,0.0 168.60000000000036,22.596000000000004" fill="" stroke="#000000" stroke-width="0.65" />
<polyline points="137.79999999999927,74.78599999999994 137.79999999999927,91.346" fill="" stroke="#000000" stroke-width="0.65" />
<polyline points="137.79999999999927,0.0 137.79999999999927,22.596000000000004" fill="" stroke="#000000" stroke-width="0.65" />
<polyline points="107.0,74.78599999999994 107.0,90.096" fill="" stroke="#000000" stroke-width="0.65" />
<polyline points="107.0,2.2859999999999445 107.0,22.596000000000004" fill="" stroke="#000000" stroke-width="0.65" />
<polyline points="76.20000000000073,72.28599999999994 76.20000000000073,90.096" fill="" stroke="#000000" stroke-width="0.65" />
<polyline points="76.20000000000073,2.2859999999999445 76.20000000000073,22.596000000000004" fill="" stroke="#000000" stroke-width="0.65" />
<polyline points="45.399999999999636,74.78599999999994 45.399999999999636,90.096" fill="" stroke="#000000" stroke-width="0.65" />
<polyline points="45.399999999999636,2.2859999999999445 45.399999999999636,22.596000000000004" fill="" stroke="#000000" stroke-width="0.65" />
<polyline points="14.600000000000364,74.78599999999994 14.600000000000364,90.096" fill="" stroke="#000000" stroke-width="0.65" />
<polyline points="14.600000000000364,2.2859999999999445 14.600000000000364,22.596000000000004" fill="" stroke="#000000" stroke-width="0.65" />
<polyline points="197.60000000000036,3.8460000000000036 207.20000000000073,3.8460000000000036" fill="" stroke="#000000" stroke-width="0.80" />
<polyline points="197.60000000000036,8.846000000000004 207.20000000000073,8.846000000000004" fill="" stroke="#000000" stroke-width="0.80" />
<polyline points="166.79999999999927,3.8460000000000036 176.39999999999964,3.8460000000000036" fill="" stroke="#000000" stroke-width="0.80" />
<polyline points="166.79999999999927,8.846000000000004 176.39999999999964,8.846000000000004" fill="" stroke="#000000" stroke-width="0.80" />
<polyline points="136.0,3.8460000000000036 145.60000000000036,3.8460000000000036" fill="" stroke="#000000" stroke-width="0.80" />
<polyline points="136.0,8.846000000000004 145.60000000000036,8.846000000000004" fill="" stroke="#000000" stroke-width="0.80" />
<polyline points="105.20000000000073,3.8460000000000036 114.79999999999927,3.8460000000000036" fill="" stroke="#000000" stroke-width="0.80" />
<polyline points="105.20000000000073,8.846000000000004 114.79999999999927,8.846000000000004" fill="" stroke="#000000" stroke-width="0.80" />
<polyline points="74.39999999999964,3.8460000000000036 84.0,3.8460000000000036" fill="" stroke="#000000" stroke-width="0.80" />
<polyline points="74.39999999999964,8.846000000000004 84.0,8.846000000000004" fill="" stroke="#000000" stroke-width="0.80" />
<polyline points="43.600000000000364,3.8460000000000036 53.100000000000364,3.8460000000000036" fill="" stroke="#000000" stroke-width="0.80" />
<polyline points="43.600000000000364,8.846000000000004 53.100000000000364,8.846000000000004" fill="" stroke="#000000" stroke-width="0.80" />
<polyline points="12.799999999999272,3.8460000000000036 22.299999999999272,3.8460000000000036" fill="" stroke="#000000" stroke-width="0.80" />
<polyline points="12.799999999999272,8.846000000000004 22.299999999999272,8.846000000000004" fill="" stroke="#000000" stroke-width="0.80" />
</svg>
