<?xml version="1.0" encoding="UTF-8" standalone="yes"?>
<svg width="256.0px" height="256.0px" xmlns="http://www.w3.org/2000/svg" xmlns:xlink="http://www.w3.org/1999/xlink" version="1.2" baseProfile="tiny">
<path d="M145.90000000000146,3.8460000000000036 C146.09999999999854,3.7530000000000427 146.20000000000073,3.7060000000000173 146.40000000000146,3.7060000000000173 C146.59999999999854,3.7060000000000173 146.79999999999927,3.7530000000000427 146.90000000000146,3.8460000000000036 L146.90000000000146,7.503000000000043 L149.0,7.111999999999966 L149.09999999999854,7.111999999999966 C149.29999999999927,7.111999999999966 149.40000000000146,7.221000000000004 149.40000000000146,7.440000000000055 L149.59999999999854,18.846000000000004 C149.40000000000146,18.940000000000055 149.20000000000073,18.986999999999966 149.09999999999854,18.986999999999966 C148.90000000000146,18.986999999999966 148.70000000000073,18.940000000000055 148.59999999999854,18.846000000000004 L148.59999999999854,15.190000000000055 L146.5,15.581000000000017 L146.40000000000146,15.581000000000017 C146.20000000000073,15.581000000000017 146.09999999999854,15.471000000000004 146.09999999999854,15.253000000000043 L145.90000000000146,3.8460000000000036 M148.59999999999854,13.236999999999966 L148.70000000000073,9.096000000000004 L146.79999999999927,9.456000000000017 L146.79999999999927,13.596000000000004 L148.59999999999854,13.236999999999966" />
<path d="M147.29999999999927,0.08100000000001728 C147.29999999999927,0.3310000000000173 147.20000000000073,0.4560000000000173 147.0,0.4560000000000173 C146.70000000000073,0.4560000000000173 146.59999999999854,0.3310000000000173 146.59999999999854,0.08100000000001728 L146.59999999999854,-2.8100000000000023 L145.0,-2.1850000000000023 L145.0,0.9710000000000036 C145.0,1.2210000000000036 144.79999999999927,1.3460000000000036 144.59999999999854,1.3460000000000036 C144.29999999999927,1.3460000000000036 144.20000000000073,1.2210000000000036 144.20000000000073,0.9710000000000036 L144.20000000000073,-1.9350000000000023 L143.59999999999854,-1.6999999999999886 C143.59999999999854,-1.6899999999999977 143.5,-1.6850000000000023 143.40000000000146,-1.6850000000000023 C143.29999999999927,-1.6850000000000023 143.20000000000073,-1.7239999999999895 143.20000000000073,-1.802000000000021 C143.09999999999854,-1.8799999999999955 143.0,-1.9710000000000036 143.0,-2.0749999999999886 L143.0,-3.2789999999999964 C143.0,-3.475999999999999 143.09999999999854,-3.600999999999999 143.29999999999927,-3.6539999999999964 L144.20000000000073,-3.966000000000008 L144.20000000000073,-7.168999999999983 L143.59999999999854,-6.949999999999989 C143.59999999999854,-6.939999999999998 143.5,-6.935000000000002 143.40000000000146,-6.935000000000002 C143.29999999999927,-6.935000000000002 143.20000000000073,-6.9739999999999895 143.20000000000073,-7.052000000000021 C143.09999999999854,-7.1299999999999955 143.0,-7.221000000000004 143.0,-7.324999999999989 L143.0,-8.543999999999983 C143.0,-8.721000000000004 143.09999999999854,-8.836000000000013 143.29999999999927,-8.887999999999977 L144.20000000000073,-9.247000000000014 L144.20000000000073,-12.387999999999977 C144.20000000000073,-12.637999999999977 144.29999999999927,-12.762999999999977 144.59999999999854,-12.762999999999977 C144.79999999999927,-12.762999999999977 145.0,-12.637999999999977 145.0,-12.387999999999977 L145.0,-9.497000000000014 L146.59999999999854,-10.122000000000014 L146.59999999999854,-13.278999999999996 C146.59999999999854,-13.528999999999996 146.70000000000073,-13.653999999999996 147.0,-13.653999999999996 C147.20000000000073,-13.653999999999996 147.29999999999927,-13.528999999999996 147.29999999999927,-13.278999999999996 L147.29999999999927,-10.372000000000014 L148.0,-10.607000000000028 C148.0,-10.617000000000019 148.09999999999854,-10.622000000000014 148.09999999999854,-10.622000000000014 C148.20000000000073,-10.622000000000014 148.29999999999927,-10.586000000000013 148.40000000000146,-10.512999999999977 C148.5,-10.430000000000007 148.59999999999854,-10.336000000000013 148.59999999999854,-10.232000000000028 L148.59999999999854,-9.028999999999996 C148.59999999999854,-8.841000000000008 148.5,-8.716000000000008 148.29999999999927,-8.653999999999996 L147.29999999999927,-8.341000000000008 L147.29999999999927,-5.137999999999977 L148.0,-5.357000000000028 C148.0,-5.367000000000019 148.09999999999854,-5.372000000000014 148.09999999999854,-5.372000000000014 C148.20000000000073,-5.372000000000014 148.29999999999927,-5.331000000000017 148.40000000000146,-5.247000000000014 C148.5,-5.173999999999978 148.59999999999854,-5.086000000000013 148.59999999999854,-4.982000000000028 L148.59999999999854,-3.762999999999977 C148.59999999999854,-3.5960000000000036 148.5,-3.4820000000000277 148.29999999999927,-3.4189999999999827 L147.29999999999927,-3.0600000000000023 L147.29999999999927,0.08100000000001728 M146.59999999999854,-8.043999999999983 L145.0,-7.466000000000008 L145.0,-4.262999999999977 L146.59999999999854,-4.841000000000008 L146.59999999999854,-8.043999999999983" />
<path d="M52.400000000001455,10.518000000000029 L52.400000000001455,12.065000000000055 C52.400000000001455,12.616999999999962 52.5,13.05499999999995 52.5,13.378000000000043 C52.900000000001455,13.013000000000034 53.20000000000073,12.741999999999962 53.400000000001455,12.565000000000055 C53.599999999998545,12.356999999999971 53.79999999999927,12.067999999999984 54.099999999998545,11.697999999999979 C54.29999999999927,11.327999999999975 54.400000000001455,10.961000000000013 54.400000000001455,10.596000000000004 C54.400000000001455,10.231999999999971 54.29999999999927,9.918999999999983 54.099999999998545,9.658999999999992 C54.0,9.399000000000001 53.79999999999927,9.268000000000029 53.5,9.268000000000029 C53.20000000000073,9.268000000000029 52.900000000001455,9.388000000000034 52.70000000000073,9.628000000000043 C52.5,9.888000000000034 52.400000000001455,10.184999999999945 52.400000000001455,10.518000000000029 M51.599999999998545,14.096000000000004 L51.400000000001455,2.2060000000000173 C51.5,2.1019999999999754 51.70000000000073,2.0499999999999545 51.900000000001455,2.0499999999999545 C52.099999999998545,2.0499999999999545 52.29999999999927,2.1019999999999754 52.400000000001455,2.2060000000000173 L52.29999999999927,9.096000000000004 C52.79999999999927,8.638000000000034 53.400000000001455,8.408999999999992 54.099999999998545,8.408999999999992 C54.599999999998545,8.408999999999992 55.099999999998545,8.616999999999962 55.400000000001455,9.033999999999992 C55.70000000000073,9.451000000000022 55.900000000001455,9.92999999999995 55.900000000001455,10.471000000000004 C55.900000000001455,10.80499999999995 55.79999999999927,11.163999999999987 55.599999999998545,11.549999999999955 C55.400000000001455,11.893000000000029 55.099999999998545,12.163999999999987 54.900000000001455,12.361999999999966 C54.79999999999927,12.466000000000008 54.400000000001455,12.726999999999975 53.900000000001455,13.143000000000029 C53.79999999999927,13.258000000000038 53.599999999998545,13.393000000000029 53.400000000001455,13.549999999999955 C53.099999999998545,13.706000000000017 53.0,13.80499999999995 53.0,13.846000000000004 C52.900000000001455,13.899000000000001 52.79999999999927,14.003000000000043 52.70000000000073,14.158999999999992 C52.599999999998545,14.293999999999983 52.5,14.403999999999996 52.400000000001455,14.486999999999966 C52.29999999999927,14.57000000000005 52.20000000000073,14.611999999999966 52.099999999998545,14.611999999999966 C51.900000000001455,14.611999999999966 51.79999999999927,14.565000000000055 51.70000000000073,14.471000000000004 C51.70000000000073,14.378000000000043 51.599999999998545,14.253000000000043 51.599999999998545,14.096000000000004" />
<path d="M248.59999999999854,71.096 C249.29999999999927,71.096 249.79999999999927,71.25800000000004 250.20000000000073,71.58100000000002 C250.59999999999854,71.93499999999995 250.79999999999927,72.37800000000004 250.79999999999927,72.90899999999999 C250.79999999999927,73.80499999999995 250.40000000000146,74.64300000000003 249.40000000000146,75.42499999999995 C248.5,76.20600000000002 247.5,76.596 246.40000000000146,76.596 C245.79999999999927,76.596 245.29999999999927,76.43499999999995 244.90000000000146,76.11199999999997 C244.40000000000146,75.75800000000004 244.20000000000073,75.31500000000005 244.20000000000073,74.78399999999999 C244.20000000000073,73.88800000000003 244.70000000000073,73.04999999999995 245.70000000000073,72.26800000000003 C246.59999999999854,71.48699999999997 247.59999999999854,71.096 248.59999999999854,71.096" />
<path d="M248.59999999999854,6.096000000000004 C249.29999999999927,6.096000000000004 249.79999999999927,6.258000000000038 250.20000000000073,6.581000000000017 C250.59999999999854,6.934999999999945 250.79999999999927,7.378000000000043 250.79999999999927,7.908999999999992 C250.79999999999927,8.80499999999995 250.40000000000146,9.643000000000029 249.40000000000146,10.424999999999955 C248.5,11.206000000000017 247.5,11.596000000000004 246.40000000000146,11.596000000000004 C245.79999999999927,11.596000000000004 245.29999999999927,11.434999999999945 244.90000000000146,11.111999999999966 C244.40000000000146,10.758000000000038 244.20000000000073,10.315000000000055 244.20000000000073,9.783999999999992 C244.20000000000073,8.888000000000034 244.70000000000073,8.049999999999955 245.70000000000073,7.268000000000029 C246.59999999999854,6.486999999999966 247.59999999999854,6.096000000000004 248.59999999999854,6.096000000000004" />
<path d="M217.40000000000146,71.096 C218.09999999999854,71.096 218.59999999999854,71.25800000000004 219.0,71.58100000000002 C219.40000000000146,71.93499999999995 219.59999999999854,72.37800000000004 219.59999999999854,72.90899999999999 C219.59999999999854,73.80499999999995 219.20000000000073,74.64300000000003 218.20000000000073,75.42499999999995 C217.29999999999927,76.20600000000002 216.29999999999927,76.596 215.20000000000073,76.596 C214.59999999999854,76.596 214.09999999999854,76.43499999999995 213.70000000000073,76.11199999999997 C213.20000000000073,75.75800000000004 213.0,75.31500000000005 213.0,74.78399999999999 C213.0,73.88800000000003 213.5,73.04999999999995 214.5,72.26800000000003 C215.40000000000146,71.48699999999997 216.40000000000146,71.096 217.40000000000146,71.096" />
<path d="M217.40000000000146,6.096000000000004 C218.09999999999854,6.096000000000004 218.59999999999854,6.258000000000038 219.0,6.581000000000017 C219.40000000000146,6.934999999999945 219.59999999999854,7.378000000000043 219.59999999999854,7.908999999999992 C219.59999999999854,8.80499999999995 219.20000000000073,9.643000000000029 218.20000000000073,10.424999999999955 C217.29999999999927,11.206000000000017 216.29999999999927,11.596000000000004 215.20000000000073,11.596000000000004 C214.59999999999854,11.596000000000004 214.09999999999854,11.434999999999945 213.70000000000073,11.111999999999966 C213.20000000000073,10.758000000000038 213.0,10.315000000000055 213.0,9.783999999999992 C213.0,8.888000000000034 213.5,8.049999999999955 214.5,7.268000000000029 C215.40000000000146,6.486999999999966 216.40000000000146,6.096000000000004 217.40000000000146,6.096000000000004" />
<path d="M186.20000000000073,71.096 C186.90000000000146,71.096 187.40000000000146,71.25800000000004 187.79999999999927,71.58100000000002 C188.20000000000073,71.93499999999995 188.40000000000146,72.37800000000004 188.40000000000146,72.90899999999999 C188.40000000000146,73.80499999999995 188.0,74.64300000000003 187.0,75.42499999999995 C186.09999999999854,76.20600000000002 185.09999999999854,76.596 184.0,76.596 C183.40000000000146,76.596 182.90000000000146,76.43499999999995 182.5,76.11199999999997 C182.0,75.75800000000004 181.79999999999927,75.31500000000005 181.79999999999927,74.78399999999999 C181.79999999999927,73.88800000000003 182.29999999999927,73.04999999999995 183.29999999999927,72.26800000000003 C184.20000000000073,71.48699999999997 185.20000000000073,71.096 186.20000000000073,71.096" />
<path d="M155.0,68.596 C155.70000000000073,68.596 156.20000000000073,68.75800000000004 156.59999999999854,69.08100000000002 C157.0,69.43499999999995 157.20000000000073,69.87800000000004 157.20000000000073,70.40899999999999 C157.20000000000073,71.30499999999995 156.79999999999927,72.14300000000003 155.79999999999927,72.92499999999995 C154.90000000000146,73.70600000000002 153.90000000000146,74.096 152.79999999999927,74.096 C152.20000000000073,74.096 151.70000000000073,73.93499999999995 151.29999999999927,73.61199999999997 C150.79999999999927,73.25800000000004 150.59999999999854,72.81500000000005 150.59999999999854,72.28399999999999 C150.59999999999854,71.38800000000003 151.09999999999854,70.54999999999995 152.09999999999854,69.76800000000003 C153.0,68.98699999999997 154.0,68.596 155.0,68.596" />
<path d="M155.0,8.596000000000004 C155.70000000000073,8.596000000000004 156.20000000000073,8.758000000000038 156.59999999999854,9.081000000000017 C157.0,9.434999999999945 157.20000000000073,9.878000000000043 157.20000000000073,10.408999999999992 C157.20000000000073,11.30499999999995 156.79999999999927,12.143000000000029 155.79999999999927,12.924999999999955 C154.90000000000146,13.706000000000017 153.90000000000146,14.096000000000004 152.79999999999927,14.096000000000004 C152.20000000000073,14.096000000000004 151.70000000000073,13.934999999999945 151.29999999999927,13.611999999999966 C150.79999999999927,13.258000000000038 150.59999999999854,12.815000000000055 150.59999999999854,12.283999999999992 C150.59999999999854,11.388000000000034 151.09999999999854,10.549999999999955 152.09999999999854,9.768000000000029 C153.0,8.986999999999966 154.0,8.596000000000004 155.0,8.596000000000004" />
<path d="M123.79999999999927,71.096 C124.5,71.096 125.0,71.25800000000004 125.40000000000146,71.58100000000002 C125.79999999999927,71.93499999999995 126.0,72.37800000000004 126.0,72.90899999999999 C126.0,73.80499999999995 125.59999999999854,74.64300000000003 124.59999999999854,75.42499999999995 C123.70000000000073,76.20600000000002 122.70000000000073,76.596 121.59999999999854,76.596 C121.0,76.596 120.5,76.43499999999995 120.09999999999854,76.11199999999997 C119.59999999999854,75.75800000000004 119.40000000000146,75.31500000000005 119.40000000000146,74.78399999999999 C119.40000000000146,73.88800000000003 119.90000000000146,73.04999999999995 120.90000000000146,72.26800000000003 C121.79999999999927,71.48699999999997 122.79999999999927,71.096 123.79999999999927,71.096" />
<path d="M94.5,61.096000000000004 C94.70000000000073,61.096000000000004 94.90000000000146,61.17999999999995 95.0,61.346000000000004 C95.20000000000073,61.524 95.20000000000073,61.70100000000002 95.20000000000073,61.87800000000004 C95.20000000000073,62.15899999999999 95.0,62.513000000000034 94.5,62.940000000000055 C93.90000000000146,63.399 93.59999999999854,63.721000000000004 93.5,63.90899999999999 C93.40000000000146,64.05499999999995 93.29999999999927,64.38800000000003 93.0,64.90899999999999 C92.79999999999927,65.44000000000005 92.59999999999854,65.85699999999997 92.29999999999927,66.15899999999999 C92.09999999999854,66.44000000000005 91.79999999999927,66.58100000000002 91.40000000000146,66.58100000000002 C91.29999999999927,66.58100000000002 91.09999999999854,66.54399999999998 90.70000000000073,66.471 C90.40000000000146,66.38800000000003 90.20000000000073,66.346 90.0,66.346 C89.79999999999927,66.346 89.59999999999854,66.38800000000003 89.29999999999927,66.471 C89.0,66.55499999999995 88.70000000000073,66.596 88.59999999999854,66.596 C88.29999999999927,66.596 88.20000000000073,66.51300000000003 88.0,66.346 C87.90000000000146,66.149 87.79999999999927,65.971 87.79999999999927,65.81500000000005 C87.79999999999927,65.53399999999999 88.09999999999854,65.17999999999995 88.59999999999854,64.75300000000004 C89.09999999999854,64.29399999999998 89.5,63.971000000000004 89.59999999999854,63.78399999999999 C89.59999999999854,63.690000000000055 89.79999999999927,63.351999999999975 90.0,62.76800000000003 C90.20000000000073,62.236999999999966 90.5,61.82600000000002 90.70000000000073,61.53399999999999 C91.0,61.25300000000004 91.29999999999927,61.111999999999966 91.59999999999854,61.111999999999966 C91.79999999999927,61.111999999999966 92.0,61.149 92.29999999999927,61.221000000000004 C92.59999999999854,61.30499999999995 92.90000000000146,61.346000000000004 93.09999999999854,61.346000000000004 C93.20000000000073,61.346000000000004 93.40000000000146,61.30499999999995 93.79999999999927,61.221000000000004 C94.09999999999854,61.138000000000034 94.29999999999927,61.096000000000004 94.5,61.096000000000004" />
<path d="M92.59999999999854,8.596000000000004 C93.29999999999927,8.596000000000004 93.79999999999927,8.758000000000038 94.20000000000073,9.081000000000017 C94.59999999999854,9.434999999999945 94.79999999999927,9.878000000000043 94.79999999999927,10.408999999999992 C94.79999999999927,11.30499999999995 94.40000000000146,12.143000000000029 93.40000000000146,12.924999999999955 C92.5,13.706000000000017 91.5,14.096000000000004 90.40000000000146,14.096000000000004 C89.79999999999927,14.096000000000004 89.29999999999927,13.934999999999945 88.90000000000146,13.611999999999966 C88.40000000000146,13.258000000000038 88.20000000000073,12.815000000000055 88.20000000000073,12.283999999999992 C88.20000000000073,11.388000000000034 88.70000000000073,10.549999999999955 89.70000000000073,9.768000000000029 C90.59999999999854,8.986999999999966 91.59999999999854,8.596000000000004 92.59999999999854,8.596000000000004" />
<path d="M61.400000000001455,71.096 C62.099999999998545,71.096 62.599999999998545,71.25800000000004 63.0,71.58100000000002 C63.400000000001455,71.93499999999995 63.599999999998545,72.37800000000004 63.599999999998545,72.90899999999999 C63.599999999998545,73.80499999999995 63.20000000000073,74.64300000000003 62.20000000000073,75.42499999999995 C61.29999999999927,76.20600000000002 60.29999999999927,76.596 59.20000000000073,76.596 C58.599999999998545,76.596 58.099999999998545,76.43499999999995 57.70000000000073,76.11199999999997 C57.20000000000073,75.75800000000004 57.0,75.31500000000005 57.0,74.78399999999999 C57.0,73.88800000000003 57.5,73.04999999999995 58.5,72.26800000000003 C59.400000000001455,71.48699999999997 60.400000000001455,71.096 61.400000000001455,71.096" />
<path d="M61.400000000001455,8.596000000000004 C62.099999999998545,8.596000000000004 62.599999999998545,8.758000000000038 63.0,9.081000000000017 C63.400000000001455,9.434999999999945 63.599999999998545,9.878000000000043 63.599999999998545,10.408999999999992 C63.599999999998545,11.30499999999995 63.20000000000073,12.143000000000029 62.20000000000073,12.924999999999955 C61.29999999999927,13.706000000000017 60.29999999999927,14.096000000000004 59.20000000000073,14.096000000000004 C58.599999999998545,14.096000000000004 58.099999999998545,13.934999999999945 57.70000000000073,13.611999999999966 C57.20000000000073,13.258000000000038 57.0,12.815000000000055 57.0,12.283999999999992 C57.0,11.388000000000034 57.5,10.549999999999955 58.5,9.768000000000029 C59.400000000001455,8.986999999999966 60.400000000001455,8.596000000000004 61.400000000001455,8.596000000000004" />
<path d="M32.099999999998545,61.096000000000004 C32.29999999999927,61.096000000000004 32.5,61.17999999999995 32.599999999998545,61.346000000000004 C32.79999999999927,61.524 32.79999999999927,61.70100000000002 32.79999999999927,61.87800000000004 C32.79999999999927,62.15899999999999 32.599999999998545,62.513000000000034 32.099999999998545,62.940000000000055 C31.5,63.399 31.200000000000728,63.721000000000004 31.099999999998545,63.90899999999999 C31.0,64.05499999999995 30.900000000001455,64.38800000000003 30.599999999998545,64.90899999999999 C30.400000000001455,65.44000000000005 30.200000000000728,65.85699999999997 29.900000000001455,66.15899999999999 C29.700000000000728,66.44000000000005 29.400000000001455,66.58100000000002 29.0,66.58100000000002 C28.900000000001455,66.58100000000002 28.700000000000728,66.54399999999998 28.299999999999272,66.471 C28.0,66.38800000000003 27.799999999999272,66.346 27.599999999998545,66.346 C27.400000000001455,66.346 27.200000000000728,66.38800000000003 26.900000000001455,66.471 C26.599999999998545,66.55499999999995 26.299999999999272,66.596 26.200000000000728,66.596 C25.900000000001455,66.596 25.799999999999272,66.51300000000003 25.599999999998545,66.346 C25.5,66.149 25.400000000001455,65.971 25.400000000001455,65.81500000000005 C25.400000000001455,65.53399999999999 25.700000000000728,65.17999999999995 26.200000000000728,64.75300000000004 C26.700000000000728,64.29399999999998 27.099999999998545,63.971000000000004 27.200000000000728,63.78399999999999 C27.200000000000728,63.690000000000055 27.400000000001455,63.351999999999975 27.599999999998545,62.76800000000003 C27.799999999999272,62.236999999999966 28.099999999998545,61.82600000000002 28.299999999999272,61.53399999999999 C28.599999999998545,61.25300000000004 28.900000000001455,61.111999999999966 29.200000000000728,61.111999999999966 C29.400000000001455,61.111999999999966 29.599999999998545,61.149 29.900000000001455,61.221000000000004 C30.200000000000728,61.30499999999995 30.5,61.346000000000004 30.700000000000728,61.346000000000004 C30.799999999999272,61.346000000000004 31.0,61.30499999999995 31.400000000001455,61.221000000000004 C31.700000000000728,61.138000000000034 31.900000000001455,61.096000000000004 32.099999999998545,61.096000000000004" />
<path d="M30.200000000000728,13.596000000000004 C30.900000000001455,13.596000000000004 31.400000000001455,13.758000000000038 31.799999999999272,14.081000000000017 C32.20000000000073,14.434999999999945 32.400000000001455,14.878000000000043 32.400000000001455,15.408999999999992 C32.400000000001455,16.30499999999995 32.0,17.14300000000003 31.0,17.924999999999955 C30.099999999998545,18.706000000000017 29.099999999998545,19.096000000000004 28.0,19.096000000000004 C27.400000000001455,19.096000000000004 26.900000000001455,18.934999999999945 26.5,18.611999999999966 C26.0,18.258000000000038 25.799999999999272,17.815000000000055 25.799999999999272,17.283999999999992 C25.799999999999272,16.388000000000034 26.299999999999272,15.549999999999955 27.299999999999272,14.768000000000029 C28.200000000000728,13.986999999999966 29.200000000000728,13.596000000000004 30.200000000000728,13.596000000000004" />
<path d="M25.0,101.26800000000003 L24.0,104.36199999999997 C23.700000000000728,105.47699999999998 23.099999999998545,106.55499999999995 22.299999999999272,107.596 C21.599999999998545,108.63800000000003 20.700000000000728,109.15899999999999 19.900000000001455,109.15899999999999 C19.5,109.15899999999999 19.099999999998545,109.04700000000003 18.799999999999272,108.82299999999998 C18.5,108.59900000000005 18.299999999999272,108.30999999999995 18.299999999999272,107.95600000000002 C18.299999999999272,107.54999999999995 18.400000000001455,107.20600000000002 18.599999999998545,106.92499999999995 C18.700000000000728,106.654 19.0,106.50800000000004 19.299999999999272,106.48699999999997 C19.5,106.48699999999997 19.700000000000728,106.57000000000005 19.900000000001455,106.73699999999997 C20.0,106.904 20.099999999998545,107.096 20.099999999998545,107.31500000000005 C20.099999999998545,107.51300000000003 20.0,107.69500000000005 19.799999999999272,107.86199999999997 C19.5,108.00800000000004 19.400000000001455,108.17499999999995 19.400000000001455,108.36199999999997 C19.400000000001455,108.48699999999997 19.5,108.54999999999995 19.799999999999272,108.54999999999995 L19.900000000001455,108.54999999999995 C20.0,108.54999999999995 20.099999999998545,108.53399999999999 20.200000000000728,108.50300000000004 C20.299999999999272,108.49199999999996 20.400000000001455,108.45100000000002 20.5,108.37800000000004 C20.5,108.37800000000004 20.5,108.32600000000002 20.700000000000728,108.221 C20.700000000000728,108.10699999999997 20.799999999999272,108.024 20.799999999999272,107.971 C20.900000000001455,107.86699999999996 20.900000000001455,107.78399999999999 20.900000000001455,107.721 C21.0,107.67999999999995 21.0,107.57600000000002 21.0,107.40899999999999 C21.099999999998545,107.36699999999996 21.099999999998545,107.32000000000005 21.099999999998545,107.26800000000003 C21.099999999998545,107.21600000000001 21.099999999998545,107.17999999999995 21.099999999998545,107.15899999999999 C21.099999999998545,107.13800000000003 21.099999999998545,107.12199999999996 21.099999999998545,107.11199999999997 C21.200000000000728,106.904 21.200000000000728,106.779 21.200000000000728,106.73699999999997 C21.299999999999272,106.529 21.299999999999272,106.42499999999995 21.299999999999272,106.42499999999995 L22.599999999998545,101.26800000000003 L21.599999999998545,101.26800000000003 C21.5,101.26800000000003 21.400000000001455,101.23699999999997 21.400000000001455,101.17499999999995 C21.299999999999272,101.09100000000001 21.299999999999272,101.01800000000003 21.299999999999272,100.95600000000002 C21.299999999999272,100.87199999999996 21.299999999999272,100.79999999999995 21.400000000001455,100.73699999999997 C21.5,100.67499999999995 21.5,100.64300000000003 21.599999999998545,100.64300000000003 L22.799999999999272,100.64300000000003 C23.099999999998545,99.66399999999999 23.599999999998545,98.82000000000005 24.400000000001455,98.11199999999997 C25.099999999998545,97.38300000000004 25.900000000001455,97.01800000000003 26.799999999999272,97.01800000000003 C27.200000000000728,97.01800000000003 27.599999999998545,97.13300000000004 27.900000000001455,97.36199999999997 C28.200000000000728,97.58100000000002 28.400000000001455,97.86699999999996 28.400000000001455,98.221 C28.400000000001455,98.60699999999997 28.299999999999272,98.95100000000002 28.200000000000728,99.25300000000004 C28.0,99.524 27.700000000000728,99.66399999999999 27.400000000001455,99.67499999999995 C27.200000000000728,99.67499999999995 27.0,99.59400000000005 26.799999999999272,99.43200000000002 C26.700000000000728,99.27099999999996 26.599999999998545,99.08100000000002 26.599999999998545,98.86199999999997 C26.599999999998545,98.67499999999995 26.700000000000728,98.50300000000004 27.0,98.346 C27.200000000000728,98.19000000000005 27.299999999999272,98.01300000000003 27.299999999999272,97.81500000000005 C27.299999999999272,97.66899999999998 27.200000000000728,97.60199999999998 26.900000000001455,97.61199999999997 L26.900000000001455,97.61199999999997 C26.799999999999272,97.63300000000004 26.799999999999272,97.63800000000003 26.799999999999272,97.62800000000004 C26.5,97.62800000000004 26.299999999999272,97.68499999999995 26.200000000000728,97.79999999999995 C26.0,97.904 25.900000000001455,98.09100000000001 25.799999999999272,98.36199999999997 C25.700000000000728,98.43499999999995 25.700000000000728,98.50800000000004 25.700000000000728,98.58100000000002 C25.599999999998545,98.654 25.599999999998545,98.73400000000004 25.599999999998545,98.82299999999998 C25.5,98.91200000000003 25.5,98.971 25.5,99.00300000000004 C25.5,99.06500000000005 25.5,99.19500000000005 25.400000000001455,99.39300000000003 C25.400000000001455,99.58100000000002 25.299999999999272,99.74199999999996 25.299999999999272,99.87800000000004 C25.200000000000728,100.274 25.200000000000728,100.529 25.099999999998545,100.64300000000003 L26.200000000000728,100.64300000000003 C26.299999999999272,100.64300000000003 26.400000000001455,100.67200000000003 26.5,100.72900000000004 C26.5,100.78700000000003 26.599999999998545,100.85900000000004 26.599999999998545,100.94799999999998 C26.599999999998545,101.03700000000003 26.5,101.11199999999997 26.5,101.17499999999995 C26.400000000001455,101.23699999999997 26.299999999999272,101.26800000000003 26.200000000000728,101.26800000000003 L25.0,101.26800000000003 M30.299999999999272,101.26800000000003 L29.299999999999272,104.36199999999997 C29.0,105.47699999999998 28.400000000001455,106.55499999999995 27.599999999998545,107.596 C26.799999999999272,108.63800000000003 26.0,109.15899999999999 25.200000000000728,109.15899999999999 C24.799999999999272,109.15899999999999 24.400000000001455,109.04700000000003 24.099999999998545,108.82299999999998 C23.700000000000728,108.59900000000005 23.599999999998545,108.30999999999995 23.599999999998545,107.95600000000002 C23.599999999998545,107.54999999999995 23.700000000000728,107.20600000000002 23.799999999999272,106.92499999999995 C24.0,106.654 24.299999999999272,106.50800000000004 24.599999999998545,106.48699999999997 C24.799999999999272,106.48699999999997 25.0,106.57000000000005 25.099999999998545,106.73699999999997 C25.299999999999272,106.904 25.400000000001455,107.096 25.400000000001455,107.31500000000005 C25.400000000001455,107.51300000000003 25.299999999999272,107.69500000000005 25.0,107.86199999999997 C24.799999999999272,108.00800000000004 24.700000000000728,108.17499999999995 24.700000000000728,108.36199999999997 C24.700000000000728,108.48699999999997 24.799999999999272,108.54999999999995 25.099999999998545,108.54999999999995 L25.200000000000728,108.54999999999995 C25.299999999999272,108.54999999999995 25.400000000001455,108.53399999999999 25.5,108.50300000000004 C25.599999999998545,108.49199999999996 25.700000000000728,108.45100000000002 25.799999999999272,108.37800000000004 C25.799999999999272,108.37800000000004 25.799999999999272,108.32600000000002 25.900000000001455,108.221 C26.0,108.10699999999997 26.099999999998545,108.024 26.099999999998545,107.971 C26.099999999998545,107.86699999999996 26.200000000000728,107.78399999999999 26.200000000000728,107.721 C26.200000000000728,107.67999999999995 26.299999999999272,107.57600000000002 26.299999999999272,107.40899999999999 C26.299999999999272,107.36699999999996 26.400000000001455,107.32000000000005 26.400000000001455,107.26800000000003 C26.400000000001455,107.21600000000001 26.400000000001455,107.17999999999995 26.400000000001455,107.15899999999999 C26.400000000001455,107.13800000000003 26.400000000001455,107.12199999999996 26.400000000001455,107.11199999999997 C26.5,106.904 26.5,106.779 26.5,106.73699999999997 C26.599999999998545,106.529 26.599999999998545,106.42499999999995 26.599999999998545,106.42499999999995 L27.900000000001455,101.26800000000003 L26.900000000001455,101.26800000000003 C26.799999999999272,101.26800000000003 26.700000000000728,101.23699999999997 26.700000000000728,101.17499999999995 C26.599999999998545,101.09100000000001 26.599999999998545,101.01800000000003 26.599999999998545,100.95600000000002 C26.599999999998545,100.87199999999996 26.599999999998545,100.79999999999995 26.700000000000728,100.73699999999997 C26.799999999999272,100.67499999999995 26.799999999999272,100.64300000000003 26.900000000001455,100.64300000000003 L28.099999999998545,100.64300000000003 C28.400000000001455,99.66399999999999 28.900000000001455,98.82000000000005 29.700000000000728,98.11199999999997 C30.400000000001455,97.38300000000004 31.200000000000728,97.01800000000003 32.099999999998545,97.01800000000003 C32.5,97.01800000000003 32.900000000001455,97.13300000000004 33.20000000000073,97.36199999999997 C33.5,97.58100000000002 33.70000000000073,97.86699999999996 33.70000000000073,98.221 C33.70000000000073,98.60699999999997 33.599999999998545,98.95100000000002 33.400000000001455,99.25300000000004 C33.20000000000073,99.524 33.0,99.66399999999999 32.70000000000073,99.67499999999995 C32.5,99.67499999999995 32.29999999999927,99.59400000000005 32.099999999998545,99.43200000000002 C32.0,99.27099999999996 31.900000000001455,99.08100000000002 31.900000000001455,98.86199999999997 C31.900000000001455,98.67499999999995 32.0,98.50300000000004 32.29999999999927,98.346 C32.5,98.19000000000005 32.599999999998545,98.01300000000003 32.599999999998545,97.81500000000005 C32.599999999998545,97.66899999999998 32.5,97.60199999999998 32.20000000000073,97.61199999999997 L32.099999999998545,97.61199999999997 C32.099999999998545,97.63300000000004 32.099999999998545,97.63800000000003 32.099999999998545,97.62800000000004 C31.799999999999272,97.62800000000004 31.599999999998545,97.68499999999995 31.5,97.79999999999995 C31.299999999999272,97.904 31.200000000000728,98.09100000000001 31.0,98.36199999999997 C31.0,98.43499999999995 31.0,98.50800000000004 30.900000000001455,98.58100000000002 C30.900000000001455,98.654 30.900000000001455,98.73400000000004 30.799999999999272,98.82299999999998 C30.799999999999272,98.91200000000003 30.799999999999272,98.971 30.799999999999272,99.00300000000004 C30.799999999999272,99.06500000000005 30.700000000000728,99.19500000000005 30.700000000000728,99.39300000000003 C30.700000000000728,99.58100000000002 30.599999999998545,99.74199999999996 30.599999999998545,99.87800000000004 C30.5,100.274 30.5,100.529 30.400000000001455,100.64300000000003 L31.5,100.64300000000003 C31.599999999998545,100.64300000000003 31.700000000000728,100.67200000000003 31.700000000000728,100.72900000000004 C31.799999999999272,100.78700000000003 31.799999999999272,100.85900000000004 31.799999999999272,100.94799999999998 C31.799999999999272,101.03700000000003 31.799999999999272,101.11199999999997 31.700000000000728,101.17499999999995 C31.700000000000728,101.23699999999997 31.599999999998545,101.26800000000003 31.5,101.26800000000003 L30.299999999999272,101.26800000000003" />
<path d="M213.0,88.846 L307.2999999999993,88.846 L307.2999999999993,91.346 L213.0,91.346 L213.0,88.846" />
<path d="M213.0,85.096 L307.2999999999993,85.096 L307.2999999999993,87.596 L213.0,87.596 L213.0,85.096" />
<path d="M213.0,22.596000000000004 L307.2999999999993,22.596000000000004 L307.2999999999993,25.096000000000004 L213.0,25.096000000000004 L213.0,22.596000000000004" />
<path d="M213.0,18.846000000000004 L307.2999999999993,18.846000000000004 L307.2999999999993,21.346000000000004 L213.0,21.346000000000004 L213.0,18.846000000000004" />
<path d="M87.79999999999927,88.846 L182.5,95.13999999999999 L182.5,97.63999999999999 L87.79999999999927,91.346 L87.79999999999927,88.846" />
<path d="M87.79999999999927,85.096 L182.5,91.38999999999999 L182.5,93.88999999999999 L87.79999999999927,87.596 L87.79999999999927,85.096" />
<path d="M88.20000000000073,26.346000000000004 L151.29999999999927,26.346000000000004 L151.29999999999927,28.846000000000004 L88.20000000000073,28.846000000000004 L88.20000000000073,26.346000000000004" />
<path d="M25.400000000001455,85.096 L57.70000000000073,85.096 L57.70000000000073,87.596 L25.400000000001455,87.596 L25.400000000001455,85.096" />
<polyline points="0.0,13.846000000000004 255.0,13.846000000000004" fill="none" stroke="#000000" stroke-width="0.40" />
<polyline points="0.0,18.846000000000004 255.0,18.846000000000004" fill="none" stroke="#000000" stroke-width="0.40" />
<polyline points="0.0,23.846000000000004 255.0,23.846000000000004" fill="none" stroke="#000000" stroke-width="0.40" />
<polyline points="0.0,28.846000000000004 255.0,28.846000000000004" fill="none" stroke="#000000" stroke-width="0.40" />
<polyline points="0.0,33.846000000000004 255.0,33.846000000000004" fill="none" stroke="#000000" stroke-width="0.40" />
<polyline points="0.0,66.346 255.0,66.346" fill="none" stroke="#000000" stroke-width="0.40" />
<polyline points="0.0,71.346 255.0,71.346" fill="none" stroke="#000000" stroke-width="0.40" />
<polyline points="0.0,76.346 255.0,76.346" fill="none" stroke="#000000" stroke-width="0.40" />
<polyline points="0.0,81.346 255.0,81.346" fill="none" stroke="#000000" stroke-width="0.40" />
<polyline points="0.0,86.346 255.0,86.346" fill="none" stroke="#000000" stroke-width="0.40" />
<polyline points="244.59999999999854,74.78599999999994 244.59999999999854,90.096" fill="" stroke="#000000" stroke-width="0.65" />
<polyline points="244.59999999999854,9.785999999999945 244.59999999999854,23.846000000000004" fill="" stroke="#000000" stroke-width="0.65" />
<polyline points="213.40000000000146,74.78599999999994 213.40000000000146,90.096" fill="" stroke="#000000" stroke-width="0.65" />
<polyline points="213.40000000000146,9.785999999999945 213.40000000000146,23.846000000000004" fill="" stroke="#000000" stroke-width="0.65" />
<polyline points="182.20000000000073,74.78599999999994 182.20000000000073,96.346" fill="" stroke="#000000" stroke-width="0.65" />
<polyline points="151.0,72.28599999999994 151.0,94.27200000000005" fill="" stroke="#000000" stroke-width="0.65" />
<polyline points="151.0,12.285999999999945 151.0,27.596000000000004" fill="" stroke="#000000" stroke-width="0.65" />
<polyline points="119.79999999999927,74.78599999999994 119.79999999999927,92.19799999999998" fill="" stroke="#000000" stroke-width="0.65" />
<polyline points="88.20000000000073,65.90999999999997 88.20000000000073,90.096" fill="" stroke="#000000" stroke-width="0.65" />
<polyline points="88.59999999999854,12.285999999999945 88.59999999999854,27.596000000000004" fill="" stroke="#000000" stroke-width="0.65" />
<polyline points="57.400000000001455,74.78599999999994 57.400000000001455,90.096" fill="" stroke="#000000" stroke-width="0.65" />
<polyline points="57.400000000001455,12.285999999999945 57.400000000001455,33.846000000000004" fill="" stroke="#000000" stroke-width="0.65" />
<polyline points="25.799999999999272,65.90999999999997 25.799999999999272,90.096" fill="" stroke="#000000" stroke-width="0.65" />
<polyline points="26.200000000000728,17.285999999999945 26.200000000000728,33.846000000000004" fill="" stroke="#000000" stroke-width="0.65" />
<polyline points="242.70000000000073,8.846000000000004 252.29999999999927,8.846000000000004" fill="" stroke="#000000" stroke-width="0.80" />
<polyline points="211.5,8.846000000000004 221.09999999999854,8.846000000000004" fill="" stroke="#000000" stroke-width="0.80" />
</svg>
