<?xml version="1.0" encoding="UTF-8" standalone="yes"?>
<svg width="256.0px" height="256.0px" xmlns="http://www.w3.org/2000/svg" xmlns:xlink="http://www.w3.org/1999/xlink" version="1.2" baseProfile="tiny">
<path d="M203.75,21.346000000000004 C203.92000000000007,21.253000000000043 204.07999999999993,21.206000000000017 204.26000000000022,21.206000000000017 C204.4300000000003,21.206000000000017 204.60000000000036,21.253000000000043 204.76000000000022,21.346000000000004 L204.69999999999982,25.003000000000043 L206.84000000000015,24.611999999999966 L206.92000000000007,24.611999999999966 C207.14999999999964,24.611999999999966 207.26000000000022,24.721000000000004 207.26000000000022,24.940000000000055 L207.40999999999985,36.346000000000004 C207.23999999999978,36.440000000000055 207.0699999999997,36.486999999999966 206.89999999999964,36.486999999999966 C206.72999999999956,36.486999999999966 206.5600000000004,36.440000000000055 206.39000000000033,36.346000000000004 L206.44999999999982,32.690000000000055 L204.34000000000015,33.08100000000002 L204.26000000000022,33.08100000000002 C204.02999999999975,33.08100000000002 203.90999999999985,32.971000000000004 203.90999999999985,32.75300000000004 L203.75,21.346000000000004 M206.47000000000025,30.736999999999966 L206.52999999999975,26.596000000000004 L204.6899999999996,26.956000000000017 L204.6199999999999,31.096000000000004 L206.47000000000025,30.736999999999966" />
<path d="M186.52000000000044,28.01800000000003 L186.52000000000044,29.565000000000055 C186.52000000000044,30.116999999999962 186.53999999999996,30.55499999999995 186.59000000000015,30.878000000000043 C187.02000000000044,30.513000000000034 187.32999999999993,30.241999999999962 187.52000000000044,30.065000000000055 C187.72000000000025,29.85699999999997 187.9300000000003,29.567999999999984 188.14000000000033,29.19799999999998 C188.35000000000036,28.827999999999975 188.44999999999982,28.461000000000013 188.44999999999982,28.096000000000004 C188.44999999999982,27.73199999999997 188.3800000000001,27.418999999999983 188.22000000000025,27.158999999999992 C188.0600000000004,26.899 187.85000000000036,26.76800000000003 187.59000000000015,26.76800000000003 C187.27999999999975,26.76800000000003 187.02000000000044,26.888000000000034 186.8100000000004,27.128000000000043 C186.60999999999967,27.388000000000034 186.52000000000044,27.684999999999945 186.52000000000044,28.01800000000003 M185.6899999999996,31.596000000000004 L185.4399999999996,19.706000000000017 C185.6300000000001,19.601999999999975 185.8100000000004,19.549999999999955 185.98999999999978,19.549999999999955 C186.17000000000007,19.549999999999955 186.35000000000036,19.601999999999975 186.52999999999975,19.706000000000017 L186.3800000000001,26.596000000000004 C186.90999999999985,26.138000000000034 187.52000000000044,25.908999999999992 188.22000000000025,25.908999999999992 C188.72000000000025,25.908999999999992 189.14000000000033,26.116999999999962 189.47999999999956,26.533999999999992 C189.8199999999997,26.951000000000022 189.97999999999956,27.42999999999995 189.97999999999956,27.971000000000004 C189.97999999999956,28.30499999999995 189.8800000000001,28.663999999999987 189.65999999999985,29.049999999999955 C189.44999999999982,29.39300000000003 189.22999999999956,29.663999999999987 189.0,29.861999999999966 C188.85999999999967,29.966000000000008 188.52999999999975,30.226999999999975 188.0,30.64300000000003 C187.84000000000015,30.758000000000038 187.65999999999985,30.89300000000003 187.44999999999982,31.049999999999955 C187.22999999999956,31.206000000000017 187.10000000000036,31.30499999999995 187.05000000000018,31.346000000000004 C186.94999999999982,31.399 186.85999999999967,31.503000000000043 186.77999999999975,31.658999999999992 C186.69999999999982,31.793999999999983 186.59000000000015,31.903999999999996 186.47000000000025,31.986999999999966 C186.39000000000033,32.07000000000005 186.27999999999975,32.111999999999966 186.14999999999964,32.111999999999966 C186.02000000000044,32.111999999999966 185.90999999999985,32.065000000000055 185.82999999999993,31.971000000000004 C185.72999999999956,31.878000000000043 185.6899999999996,31.753000000000043 185.6899999999996,31.596000000000004" />
<path d="M134.44999999999982,20.51800000000003 L134.44999999999982,22.065000000000055 C134.44999999999982,22.616999999999962 134.47999999999956,23.05499999999995 134.52999999999975,23.378000000000043 C134.96000000000004,23.013000000000034 135.26000000000022,22.741999999999962 135.44999999999982,22.565000000000055 C135.65999999999985,22.35699999999997 135.8699999999999,22.067999999999984 136.07999999999993,21.69799999999998 C136.27999999999975,21.327999999999975 136.39000000000033,20.961000000000013 136.39000000000033,20.596000000000004 C136.39000000000033,20.23199999999997 136.3100000000004,19.918999999999983 136.14999999999964,19.658999999999992 C136.0,19.399 135.78999999999996,19.26800000000003 135.52999999999975,19.26800000000003 C135.22000000000025,19.26800000000003 134.96000000000004,19.388000000000034 134.75,19.628000000000043 C134.55000000000018,19.888000000000034 134.44999999999982,20.184999999999945 134.44999999999982,20.51800000000003 M133.6199999999999,24.096000000000004 L133.3699999999999,12.206000000000017 C133.5600000000004,12.101999999999975 133.73999999999978,12.049999999999955 133.9300000000003,12.049999999999955 C134.10999999999967,12.049999999999955 134.28999999999996,12.101999999999975 134.47000000000025,12.206000000000017 L134.3100000000004,19.096000000000004 C134.84000000000015,18.638000000000034 135.46000000000004,18.408999999999992 136.14999999999964,18.408999999999992 C136.64999999999964,18.408999999999992 137.0699999999997,18.616999999999962 137.40999999999985,19.033999999999992 C137.75,19.451000000000022 137.92000000000007,19.92999999999995 137.92000000000007,20.471000000000004 C137.92000000000007,20.80499999999995 137.8100000000004,21.163999999999987 137.59000000000015,21.549999999999955 C137.3800000000001,21.89300000000003 137.15999999999985,22.163999999999987 136.9300000000003,22.361999999999966 C136.80000000000018,22.466000000000008 136.47000000000025,22.726999999999975 135.9300000000003,23.14300000000003 C135.77999999999975,23.258000000000038 135.59000000000015,23.39300000000003 135.3800000000001,23.549999999999955 C135.17000000000007,23.706000000000017 135.02999999999975,23.80499999999995 134.97999999999956,23.846000000000004 C134.89000000000033,23.899 134.80000000000018,24.003000000000043 134.72000000000025,24.158999999999992 C134.6300000000001,24.293999999999983 134.52999999999975,24.403999999999996 134.39999999999964,24.486999999999966 C134.3199999999997,24.57000000000005 134.21000000000004,24.611999999999966 134.07999999999993,24.611999999999966 C133.94999999999982,24.611999999999966 133.85000000000036,24.565000000000055 133.76000000000022,24.471000000000004 C133.67000000000007,24.378000000000043 133.6199999999999,24.253000000000043 133.6199999999999,24.096000000000004" />
<path d="M96.06999999999971,10.518000000000029 L96.06999999999971,12.065000000000055 C96.06999999999971,12.616999999999962 96.10000000000036,13.05499999999995 96.14999999999964,13.378000000000043 C96.56999999999971,13.013000000000034 96.88000000000011,12.741999999999962 97.06999999999971,12.565000000000055 C97.27999999999975,12.356999999999971 97.48999999999978,12.067999999999984 97.6899999999996,11.697999999999979 C97.89999999999964,11.327999999999975 98.01000000000022,10.961000000000013 98.01000000000022,10.596000000000004 C98.01000000000022,10.231999999999971 97.93000000000029,9.918999999999983 97.77000000000044,9.658999999999992 C97.61999999999989,9.399000000000001 97.40999999999985,9.268000000000029 97.14999999999964,9.268000000000029 C96.82999999999993,9.268000000000029 96.56999999999971,9.388000000000034 96.36999999999989,9.628000000000043 C96.17000000000007,9.888000000000034 96.06999999999971,10.184999999999945 96.06999999999971,10.518000000000029 M95.23999999999978,14.096000000000004 L94.98999999999978,2.2060000000000173 C95.18000000000029,2.1019999999999754 95.35999999999967,2.0499999999999545 95.55000000000018,2.0499999999999545 C95.72999999999956,2.0499999999999545 95.90999999999985,2.1019999999999754 96.07999999999993,2.2060000000000173 L95.93000000000029,9.096000000000004 C96.46000000000004,8.638000000000034 97.06999999999971,8.408999999999992 97.77000000000044,8.408999999999992 C98.27000000000044,8.408999999999992 98.6899999999996,8.616999999999962 99.02999999999975,9.033999999999992 C99.36999999999989,9.451000000000022 99.53999999999996,9.92999999999995 99.53999999999996,10.471000000000004 C99.53999999999996,10.80499999999995 99.43000000000029,11.163999999999987 99.21000000000004,11.549999999999955 C99.0,11.893000000000029 98.77999999999975,12.163999999999987 98.55000000000018,12.361999999999966 C98.42000000000007,12.466000000000008 98.07999999999993,12.726999999999975 97.55000000000018,13.143000000000029 C97.39999999999964,13.258000000000038 97.21000000000004,13.393000000000029 97.0,13.549999999999955 C96.78999999999996,13.706000000000017 96.64999999999964,13.80499999999995 96.60000000000036,13.846000000000004 C96.51000000000022,13.899000000000001 96.42000000000007,14.003000000000043 96.32999999999993,14.158999999999992 C96.25,14.293999999999983 96.14999999999964,14.403999999999996 96.02000000000044,14.486999999999966 C95.9399999999996,14.57000000000005 95.82999999999993,14.611999999999966 95.69999999999982,14.611999999999966 C95.56999999999971,14.611999999999966 95.47000000000025,14.565000000000055 95.38000000000011,14.471000000000004 C95.28999999999996,14.378000000000043 95.23999999999978,14.253000000000043 95.23999999999978,14.096000000000004" />
<path d="M46.31999999999971,22.581000000000017 C46.31999999999971,22.831000000000017 46.19999999999982,22.956000000000017 45.94999999999982,22.956000000000017 C45.710000000000036,22.956000000000017 45.590000000000146,22.831000000000017 45.590000000000146,22.581000000000017 L45.590000000000146,19.690000000000055 L43.93000000000029,20.315000000000055 L43.93000000000029,23.471000000000004 C43.93000000000029,23.721000000000004 43.8100000000004,23.846000000000004 43.5600000000004,23.846000000000004 C43.3100000000004,23.846000000000004 43.18000000000029,23.721000000000004 43.18000000000029,23.471000000000004 L43.18000000000029,20.565000000000055 L42.5600000000004,20.799999999999955 C42.539999999999964,20.809999999999945 42.48999999999978,20.815000000000055 42.399999999999636,20.815000000000055 C42.289999999999964,20.815000000000055 42.19999999999982,20.775999999999954 42.13000000000011,20.69799999999998 C42.05000000000018,20.620000000000005 42.01000000000022,20.528999999999996 42.01000000000022,20.424999999999955 L42.01000000000022,19.221000000000004 C42.01000000000022,19.024 42.090000000000146,18.899 42.26000000000022,18.846000000000004 L43.18000000000029,18.533999999999992 L43.18000000000029,15.331000000000017 L42.5600000000004,15.549999999999955 C42.539999999999964,15.559999999999945 42.48999999999978,15.565000000000055 42.399999999999636,15.565000000000055 C42.289999999999964,15.565000000000055 42.19999999999982,15.525999999999954 42.13000000000011,15.447999999999979 C42.05000000000018,15.370000000000005 42.01000000000022,15.278999999999996 42.01000000000022,15.174999999999955 L42.01000000000022,13.956000000000017 C42.01000000000022,13.778999999999996 42.090000000000146,13.663999999999987 42.26000000000022,13.611999999999966 L43.18000000000029,13.253000000000043 L43.18000000000029,10.111999999999966 C43.18000000000029,9.861999999999966 43.3100000000004,9.736999999999966 43.5600000000004,9.736999999999966 C43.8100000000004,9.736999999999966 43.93000000000029,9.861999999999966 43.93000000000029,10.111999999999966 L43.93000000000029,13.003000000000043 L45.590000000000146,12.378000000000043 L45.590000000000146,9.221000000000004 C45.590000000000146,8.971000000000004 45.710000000000036,8.846000000000004 45.94999999999982,8.846000000000004 C46.19999999999982,8.846000000000004 46.31999999999971,8.971000000000004 46.31999999999971,9.221000000000004 L46.31999999999971,12.128000000000043 L46.97999999999956,11.893000000000029 C46.98999999999978,11.883000000000038 47.029999999999745,11.878000000000043 47.100000000000364,11.878000000000043 C47.19999999999982,11.878000000000043 47.289999999999964,11.913999999999987 47.399999999999636,11.986999999999966 C47.47999999999956,12.07000000000005 47.52000000000044,12.163999999999987 47.52000000000044,12.268000000000029 L47.52000000000044,13.471000000000004 C47.52000000000044,13.658999999999992 47.43000000000029,13.783999999999992 47.23999999999978,13.846000000000004 L46.31999999999971,14.158999999999992 L46.31999999999971,17.361999999999966 L46.97999999999956,17.14300000000003 C46.98999999999978,17.133000000000038 47.029999999999745,17.128000000000043 47.100000000000364,17.128000000000043 C47.19999999999982,17.128000000000043 47.289999999999964,17.168999999999983 47.399999999999636,17.253000000000043 C47.47999999999956,17.326000000000022 47.52000000000044,17.413999999999987 47.52000000000044,17.51800000000003 L47.52000000000044,18.736999999999966 C47.52000000000044,18.903999999999996 47.43000000000029,19.01800000000003 47.23999999999978,19.081000000000017 L46.31999999999971,19.440000000000055 L46.31999999999971,22.581000000000017 M45.590000000000146,14.456000000000017 L43.93000000000029,15.033999999999992 L43.93000000000029,18.236999999999966 L45.590000000000146,17.658999999999992 L45.590000000000146,14.456000000000017" />
<path d="M238.25,63.12800000000004 L240.65999999999985,61.174999999999955 C240.72000000000025,61.12199999999996 240.77999999999975,61.096000000000004 240.82999999999993,61.096000000000004 C240.89999999999964,61.096000000000004 240.97000000000025,61.12199999999996 241.02999999999975,61.174999999999955 L241.4399999999996,61.486999999999966 C241.5,61.549999999999955 241.52999999999975,61.62800000000004 241.52999999999975,61.721000000000004 C241.52999999999975,61.78399999999999 241.5,61.861999999999966 241.4399999999996,61.95600000000002 L239.10999999999967,63.846000000000004 L241.4399999999996,65.73699999999997 C241.5,65.80999999999995 241.52999999999975,65.89099999999996 241.52999999999975,65.97900000000004 C241.52999999999975,66.06799999999998 241.5,66.14300000000003 241.4399999999996,66.20600000000002 L241.02999999999975,66.51800000000003 C240.97000000000025,66.57000000000005 240.89999999999964,66.596 240.82999999999993,66.596 C240.77999999999975,66.596 240.72000000000025,66.57000000000005 240.65999999999985,66.51800000000003 L238.25,64.56500000000005 L235.82999999999993,66.51800000000003 C235.77000000000044,66.57000000000005 235.71000000000004,66.596 235.65999999999985,66.596 C235.59000000000015,66.596 235.52999999999975,66.57000000000005 235.47000000000025,66.51800000000003 L235.05000000000018,66.20600000000002 C234.97999999999956,66.14300000000003 234.94999999999982,66.06500000000005 234.94999999999982,65.971 C234.94999999999982,65.90899999999999 234.97999999999956,65.83100000000002 235.05000000000018,65.73699999999997 L237.3800000000001,63.846000000000004 L235.05000000000018,61.95600000000002 C234.97999999999956,61.88300000000004 234.94999999999982,61.80200000000002 234.94999999999982,61.714000000000055 C234.94999999999982,61.625 234.97999999999956,61.549999999999955 235.05000000000018,61.486999999999966 L235.47000000000025,61.174999999999955 C235.52999999999975,61.12199999999996 235.59000000000015,61.096000000000004 235.65999999999985,61.096000000000004 C235.71000000000004,61.096000000000004 235.77000000000044,61.12199999999996 235.82999999999993,61.174999999999955 L238.25,63.12800000000004" />
<path d="M239.34000000000015,81.096 C239.97000000000025,81.096 240.5,81.25800000000004 240.9399999999996,81.58100000000002 C241.32999999999993,81.93499999999995 241.52999999999975,82.37800000000004 241.52999999999975,82.90899999999999 C241.52999999999975,83.80499999999995 241.0699999999997,84.64300000000003 240.15999999999985,85.42499999999995 C239.22000000000025,86.20600000000002 238.21000000000004,86.596 237.14000000000033,86.596 C236.52000000000044,86.596 235.98999999999978,86.43499999999995 235.5600000000004,86.11199999999997 C235.15999999999985,85.75800000000004 234.94999999999982,85.31500000000005 234.94999999999982,84.78399999999999 C234.94999999999982,83.88800000000003 235.42000000000007,83.04999999999995 236.35999999999967,82.26800000000003 C237.27999999999975,81.48699999999997 238.27000000000044,81.096 239.34000000000015,81.096" />
<path d="M239.34000000000015,23.596000000000004 C239.97000000000025,23.596000000000004 240.5,23.758000000000038 240.9399999999996,24.081000000000017 C241.32999999999993,24.434999999999945 241.52999999999975,24.878000000000043 241.52999999999975,25.408999999999992 C241.52999999999975,26.30499999999995 241.0699999999997,27.14300000000003 240.15999999999985,27.924999999999955 C239.22000000000025,28.706000000000017 238.21000000000004,29.096000000000004 237.14000000000033,29.096000000000004 C236.52000000000044,29.096000000000004 235.98999999999978,28.934999999999945 235.5600000000004,28.611999999999966 C235.15999999999985,28.258000000000038 234.94999999999982,27.815000000000055 234.94999999999982,27.283999999999992 C234.94999999999982,26.388000000000034 235.42000000000007,25.549999999999955 236.35999999999967,24.76800000000003 C237.27999999999975,23.986999999999966 238.27000000000044,23.596000000000004 239.34000000000015,23.596000000000004" />
<path d="M212.8699999999999,26.096000000000004 C213.5,26.096000000000004 214.02999999999975,26.258000000000038 214.47000000000025,26.581000000000017 C214.85999999999967,26.934999999999945 215.0600000000004,27.378000000000043 215.0600000000004,27.908999999999992 C215.0600000000004,28.80499999999995 214.60000000000036,29.64300000000003 213.6899999999996,30.424999999999955 C212.75,31.206000000000017 211.73999999999978,31.596000000000004 210.67000000000007,31.596000000000004 C210.05000000000018,31.596000000000004 209.52000000000044,31.434999999999945 209.09000000000015,31.111999999999966 C208.6899999999996,30.758000000000038 208.47999999999956,30.315000000000055 208.47999999999956,29.783999999999992 C208.47999999999956,28.888000000000034 208.94999999999982,28.049999999999955 209.89000000000033,27.26800000000003 C210.8100000000004,26.486999999999966 211.80000000000018,26.096000000000004 212.8699999999999,26.096000000000004" />
<path d="M194.4300000000003,63.12800000000004 L196.82999999999993,61.174999999999955 C196.89000000000033,61.12199999999996 196.94999999999982,61.096000000000004 197.0,61.096000000000004 C197.07999999999993,61.096000000000004 197.14000000000033,61.12199999999996 197.21000000000004,61.174999999999955 L197.60999999999967,61.486999999999966 C197.6800000000003,61.549999999999955 197.71000000000004,61.62800000000004 197.71000000000004,61.721000000000004 C197.71000000000004,61.78399999999999 197.6800000000003,61.861999999999966 197.60999999999967,61.95600000000002 L195.27999999999975,63.846000000000004 L197.60999999999967,65.73699999999997 C197.6800000000003,65.80999999999995 197.71000000000004,65.89099999999996 197.71000000000004,65.97900000000004 C197.71000000000004,66.06799999999998 197.6800000000003,66.14300000000003 197.60999999999967,66.20600000000002 L197.21000000000004,66.51800000000003 C197.14000000000033,66.57000000000005 197.07999999999993,66.596 197.0,66.596 C196.94999999999982,66.596 196.89000000000033,66.57000000000005 196.82999999999993,66.51800000000003 L194.4300000000003,64.56500000000005 L192.0,66.51800000000003 C191.9399999999996,66.57000000000005 191.8800000000001,66.596 191.82999999999993,66.596 C191.77000000000044,66.596 191.71000000000004,66.57000000000005 191.64000000000033,66.51800000000003 L191.22000000000025,66.20600000000002 C191.15999999999985,66.14300000000003 191.1300000000001,66.06500000000005 191.1300000000001,65.971 C191.1300000000001,65.90899999999999 191.15999999999985,65.83100000000002 191.22000000000025,65.73699999999997 L193.55000000000018,63.846000000000004 L191.22000000000025,61.95600000000002 C191.15999999999985,61.88300000000004 191.1300000000001,61.80200000000002 191.1300000000001,61.714000000000055 C191.1300000000001,61.625 191.15999999999985,61.549999999999955 191.22000000000025,61.486999999999966 L191.64000000000033,61.174999999999955 C191.71000000000004,61.12199999999996 191.77000000000044,61.096000000000004 191.82999999999993,61.096000000000004 C191.8800000000001,61.096000000000004 191.9399999999996,61.12199999999996 192.0,61.174999999999955 L194.4300000000003,63.12800000000004" />
<path d="M195.52000000000044,71.096 C196.14000000000033,71.096 196.6800000000003,71.25800000000004 197.10999999999967,71.58100000000002 C197.51000000000022,71.93499999999995 197.71000000000004,72.37800000000004 197.71000000000004,72.90899999999999 C197.71000000000004,73.80499999999995 197.25,74.64300000000003 196.32999999999993,75.42499999999995 C195.39000000000033,76.20600000000002 194.39000000000033,76.596 193.3199999999997,76.596 C192.6899999999996,76.596 192.15999999999985,76.43499999999995 191.73999999999978,76.11199999999997 C191.32999999999993,75.75800000000004 191.1300000000001,75.31500000000005 191.1300000000001,74.78399999999999 C191.1300000000001,73.88800000000003 191.60000000000036,73.04999999999995 192.52999999999975,72.26800000000003 C193.44999999999982,71.48699999999997 194.44999999999982,71.096 195.52000000000044,71.096" />
<path d="M195.52000000000044,26.096000000000004 C196.14000000000033,26.096000000000004 196.6800000000003,26.258000000000038 197.10999999999967,26.581000000000017 C197.51000000000022,26.934999999999945 197.71000000000004,27.378000000000043 197.71000000000004,27.908999999999992 C197.71000000000004,28.80499999999995 197.25,29.64300000000003 196.32999999999993,30.424999999999955 C195.39000000000033,31.206000000000017 194.39000000000033,31.596000000000004 193.3199999999997,31.596000000000004 C192.6899999999996,31.596000000000004 192.15999999999985,31.434999999999945 191.73999999999978,31.111999999999966 C191.32999999999993,30.758000000000038 191.1300000000001,30.315000000000055 191.1300000000001,29.783999999999992 C191.1300000000001,28.888000000000034 191.60000000000036,28.049999999999955 192.52999999999975,27.26800000000003 C193.44999999999982,26.486999999999966 194.44999999999982,26.096000000000004 195.52000000000044,26.096000000000004" />
<path d="M178.15999999999985,16.096000000000004 C178.78999999999996,16.096000000000004 179.3199999999997,16.258000000000038 179.76000000000022,16.581000000000017 C180.14999999999964,16.934999999999945 180.35000000000036,17.378000000000043 180.35000000000036,17.908999999999992 C180.35000000000036,18.80499999999995 179.89000000000033,19.64300000000003 178.97999999999956,20.424999999999955 C178.03999999999996,21.206000000000017 177.02999999999975,21.596000000000004 175.96000000000004,21.596000000000004 C175.34000000000015,21.596000000000004 174.8100000000004,21.434999999999945 174.3800000000001,21.111999999999966 C173.97999999999956,20.758000000000038 173.77000000000044,20.315000000000055 173.77000000000044,19.783999999999992 C173.77000000000044,18.888000000000034 174.23999999999978,18.049999999999955 175.1800000000003,17.26800000000003 C176.10000000000036,16.486999999999966 177.09000000000015,16.096000000000004 178.15999999999985,16.096000000000004" />
<path d="M159.71000000000004,63.12800000000004 L162.1199999999999,61.174999999999955 C162.1800000000003,61.12199999999996 162.23999999999978,61.096000000000004 162.28999999999996,61.096000000000004 C162.3699999999999,61.096000000000004 162.4300000000003,61.12199999999996 162.5,61.174999999999955 L162.89999999999964,61.486999999999966 C162.96000000000004,61.549999999999955 163.0,61.62800000000004 163.0,61.721000000000004 C163.0,61.78399999999999 162.96000000000004,61.861999999999966 162.89999999999964,61.95600000000002 L160.5699999999997,63.846000000000004 L162.89999999999964,65.73699999999997 C162.96000000000004,65.80999999999995 163.0,65.89099999999996 163.0,65.97900000000004 C163.0,66.06799999999998 162.96000000000004,66.14300000000003 162.89999999999964,66.20600000000002 L162.5,66.51800000000003 C162.4300000000003,66.57000000000005 162.3699999999999,66.596 162.28999999999996,66.596 C162.23999999999978,66.596 162.1800000000003,66.57000000000005 162.1199999999999,66.51800000000003 L159.71000000000004,64.56500000000005 L157.28999999999996,66.51800000000003 C157.22999999999956,66.57000000000005 157.17000000000007,66.596 157.1199999999999,66.596 C157.0600000000004,66.596 157.0,66.57000000000005 156.9300000000003,66.51800000000003 L156.51000000000022,66.20600000000002 C156.44999999999982,66.14300000000003 156.42000000000007,66.06500000000005 156.42000000000007,65.971 C156.42000000000007,65.90899999999999 156.44999999999982,65.83100000000002 156.51000000000022,65.73699999999997 L158.84000000000015,63.846000000000004 L156.51000000000022,61.95600000000002 C156.44999999999982,61.88300000000004 156.42000000000007,61.80200000000002 156.42000000000007,61.714000000000055 C156.42000000000007,61.625 156.44999999999982,61.549999999999955 156.51000000000022,61.486999999999966 L156.9300000000003,61.174999999999955 C157.0,61.12199999999996 157.0600000000004,61.096000000000004 157.1199999999999,61.096000000000004 C157.17000000000007,61.096000000000004 157.22999999999956,61.12199999999996 157.28999999999996,61.174999999999955 L159.71000000000004,63.12800000000004" />
<path d="M160.8100000000004,16.096000000000004 C161.4300000000003,16.096000000000004 161.96000000000004,16.258000000000038 162.39999999999964,16.581000000000017 C162.80000000000018,16.934999999999945 163.0,17.378000000000043 163.0,17.908999999999992 C163.0,18.80499999999995 162.53999999999996,19.64300000000003 161.6199999999999,20.424999999999955 C160.6800000000003,21.206000000000017 159.6800000000003,21.596000000000004 158.60999999999967,21.596000000000004 C157.97999999999956,21.596000000000004 157.44999999999982,21.434999999999945 157.02999999999975,21.111999999999966 C156.6199999999999,20.758000000000038 156.42000000000007,20.315000000000055 156.42000000000007,19.783999999999992 C156.42000000000007,18.888000000000034 156.89000000000033,18.049999999999955 157.8199999999997,17.26800000000003 C158.73999999999978,16.486999999999966 159.73999999999978,16.096000000000004 160.8100000000004,16.096000000000004" />
<path d="M143.44999999999982,18.596000000000004 C144.07999999999993,18.596000000000004 144.60999999999967,18.758000000000038 145.05000000000018,19.081000000000017 C145.4399999999996,19.434999999999945 145.64000000000033,19.878000000000043 145.64000000000033,20.408999999999992 C145.64000000000033,21.30499999999995 145.1800000000003,22.14300000000003 144.27000000000044,22.924999999999955 C143.32999999999993,23.706000000000017 142.3199999999997,24.096000000000004 141.25,24.096000000000004 C140.6300000000001,24.096000000000004 140.10000000000036,23.934999999999945 139.67000000000007,23.611999999999966 C139.27000000000044,23.258000000000038 139.0600000000004,22.815000000000055 139.0600000000004,22.283999999999992 C139.0600000000004,21.388000000000034 139.52999999999975,20.549999999999955 140.47000000000025,19.76800000000003 C141.39000000000033,18.986999999999966 142.3800000000001,18.596000000000004 143.44999999999982,18.596000000000004" />
<path d="M125.0,63.12800000000004 L127.40999999999985,61.174999999999955 C127.47000000000025,61.12199999999996 127.52999999999975,61.096000000000004 127.57999999999993,61.096000000000004 C127.65999999999985,61.096000000000004 127.72000000000025,61.12199999999996 127.78999999999996,61.174999999999955 L128.1899999999996,61.486999999999966 C128.25,61.549999999999955 128.28999999999996,61.62800000000004 128.28999999999996,61.721000000000004 C128.28999999999996,61.78399999999999 128.25,61.861999999999966 128.1899999999996,61.95600000000002 L125.85999999999967,63.846000000000004 L128.1899999999996,65.73699999999997 C128.25,65.80999999999995 128.28999999999996,65.89099999999996 128.28999999999996,65.97900000000004 C128.28999999999996,66.06799999999998 128.25,66.14300000000003 128.1899999999996,66.20600000000002 L127.78999999999996,66.51800000000003 C127.72000000000025,66.57000000000005 127.65999999999985,66.596 127.57999999999993,66.596 C127.52999999999975,66.596 127.47000000000025,66.57000000000005 127.40999999999985,66.51800000000003 L125.0,64.56500000000005 L122.57999999999993,66.51800000000003 C122.52000000000044,66.57000000000005 122.46000000000004,66.596 122.40999999999985,66.596 C122.35000000000036,66.596 122.28999999999996,66.57000000000005 122.22000000000025,66.51800000000003 L121.80000000000018,66.20600000000002 C121.73999999999978,66.14300000000003 121.71000000000004,66.06500000000005 121.71000000000004,65.971 C121.71000000000004,65.90899999999999 121.73999999999978,65.83100000000002 121.80000000000018,65.73699999999997 L124.13000000000011,63.846000000000004 L121.80000000000018,61.95600000000002 C121.73999999999978,61.88300000000004 121.71000000000004,61.80200000000002 121.71000000000004,61.714000000000055 C121.71000000000004,61.625 121.73999999999978,61.549999999999955 121.80000000000018,61.486999999999966 L122.22000000000025,61.174999999999955 C122.28999999999996,61.12199999999996 122.35000000000036,61.096000000000004 122.40999999999985,61.096000000000004 C122.46000000000004,61.096000000000004 122.52000000000044,61.12199999999996 122.57999999999993,61.174999999999955 L125.0,63.12800000000004" />
<path d="M126.10000000000036,81.096 C126.72000000000025,81.096 127.25,81.25800000000004 127.6899999999996,81.58100000000002 C128.09000000000015,81.93499999999995 128.28999999999996,82.37800000000004 128.28999999999996,82.90899999999999 C128.28999999999996,83.80499999999995 127.82999999999993,84.64300000000003 126.90999999999985,85.42499999999995 C125.97000000000025,86.20600000000002 124.97000000000025,86.596 123.89000000000033,86.596 C123.27000000000044,86.596 122.73999999999978,86.43499999999995 122.31999999999971,86.11199999999997 C121.90999999999985,85.75800000000004 121.71000000000004,85.31500000000005 121.71000000000004,84.78399999999999 C121.71000000000004,83.88800000000003 122.18000000000029,83.04999999999995 123.10999999999967,82.26800000000003 C124.02999999999975,81.48699999999997 125.02999999999975,81.096 126.10000000000036,81.096" />
<path d="M105.06999999999971,8.596000000000004 C105.69999999999982,8.596000000000004 106.22999999999956,8.758000000000038 106.67000000000007,9.081000000000017 C107.0600000000004,9.434999999999945 107.26000000000022,9.878000000000043 107.26000000000022,10.408999999999992 C107.26000000000022,11.30499999999995 106.80000000000018,12.143000000000029 105.88000000000011,12.924999999999955 C104.94999999999982,13.706000000000017 103.9399999999996,14.096000000000004 102.86999999999989,14.096000000000004 C102.23999999999978,14.096000000000004 101.72000000000025,13.934999999999945 101.28999999999996,13.611999999999966 C100.88000000000011,13.258000000000038 100.68000000000029,12.815000000000055 100.68000000000029,12.283999999999992 C100.68000000000029,11.388000000000034 101.14999999999964,10.549999999999955 102.09000000000015,9.768000000000029 C103.0,8.986999999999966 104.0,8.596000000000004 105.06999999999971,8.596000000000004" />
<path d="M86.61999999999989,63.12800000000004 L89.02999999999975,61.174999999999955 C89.09000000000015,61.12199999999996 89.14999999999964,61.096000000000004 89.19999999999982,61.096000000000004 C89.27000000000044,61.096000000000004 89.34000000000015,61.12199999999996 89.39999999999964,61.174999999999955 L89.8100000000004,61.486999999999966 C89.86999999999989,61.549999999999955 89.89999999999964,61.62800000000004 89.89999999999964,61.721000000000004 C89.89999999999964,61.78399999999999 89.86999999999989,61.861999999999966 89.8100000000004,61.95600000000002 L87.47999999999956,63.846000000000004 L89.8100000000004,65.73699999999997 C89.86999999999989,65.80999999999995 89.89999999999964,65.89099999999996 89.89999999999964,65.97900000000004 C89.89999999999964,66.06799999999998 89.86999999999989,66.14300000000003 89.8100000000004,66.20600000000002 L89.39999999999964,66.51800000000003 C89.34000000000015,66.57000000000005 89.27000000000044,66.596 89.19999999999982,66.596 C89.14999999999964,66.596 89.09000000000015,66.57000000000005 89.02999999999975,66.51800000000003 L86.61999999999989,64.56500000000005 L84.19999999999982,66.51800000000003 C84.14000000000033,66.57000000000005 84.07999999999993,66.596 84.02999999999975,66.596 C83.97000000000025,66.596 83.89999999999964,66.57000000000005 83.84000000000015,66.51800000000003 L83.42000000000007,66.20600000000002 C83.35999999999967,66.14300000000003 83.32999999999993,66.06500000000005 83.32999999999993,65.971 C83.32999999999993,65.90899999999999 83.35999999999967,65.83100000000002 83.42000000000007,65.73699999999997 L85.75,63.846000000000004 L83.42000000000007,61.95600000000002 C83.35999999999967,61.88300000000004 83.32999999999993,61.80200000000002 83.32999999999993,61.714000000000055 C83.32999999999993,61.625 83.35999999999967,61.549999999999955 83.42000000000007,61.486999999999966 L83.84000000000015,61.174999999999955 C83.89999999999964,61.12199999999996 83.97000000000025,61.096000000000004 84.02999999999975,61.096000000000004 C84.07999999999993,61.096000000000004 84.14000000000033,61.12199999999996 84.19999999999982,61.174999999999955 L86.61999999999989,63.12800000000004" />
<path d="M87.72000000000025,81.096 C88.34000000000015,81.096 88.86999999999989,81.25800000000004 89.3100000000004,81.58100000000002 C89.71000000000004,81.93499999999995 89.89999999999964,82.37800000000004 89.89999999999964,82.90899999999999 C89.89999999999964,83.80499999999995 89.44999999999982,84.64300000000003 88.52999999999975,85.42499999999995 C87.59000000000015,86.20600000000002 86.59000000000015,86.596 85.51000000000022,86.596 C84.89000000000033,86.596 84.35999999999967,86.43499999999995 83.9399999999996,86.11199999999997 C83.52999999999975,85.75800000000004 83.32999999999993,85.31500000000005 83.32999999999993,84.78399999999999 C83.32999999999993,83.88800000000003 83.80000000000018,83.04999999999995 84.72999999999956,82.26800000000003 C85.64999999999964,81.48699999999997 86.64000000000033,81.096 87.72000000000025,81.096" />
<path d="M87.72000000000025,13.596000000000004 C88.34000000000015,13.596000000000004 88.86999999999989,13.758000000000038 89.3100000000004,14.081000000000017 C89.71000000000004,14.434999999999945 89.89999999999964,14.878000000000043 89.89999999999964,15.408999999999992 C89.89999999999964,16.30499999999995 89.44999999999982,17.14300000000003 88.52999999999975,17.924999999999955 C87.59000000000015,18.706000000000017 86.59000000000015,19.096000000000004 85.51000000000022,19.096000000000004 C84.89000000000033,19.096000000000004 84.35999999999967,18.934999999999945 83.9399999999996,18.611999999999966 C83.52999999999975,18.258000000000038 83.32999999999993,17.815000000000055 83.32999999999993,17.283999999999992 C83.32999999999993,16.388000000000034 83.80000000000018,15.549999999999955 84.72999999999956,14.768000000000029 C85.64999999999964,13.986999999999966 86.64000000000033,13.596000000000004 87.72000000000025,13.596000000000004" />
<path d="M70.35999999999967,71.096 C70.98999999999978,71.096 71.52000000000044,71.25800000000004 71.96000000000004,71.58100000000002 C72.35000000000036,71.93499999999995 72.55000000000018,72.37800000000004 72.55000000000018,72.90899999999999 C72.55000000000018,73.80499999999995 72.09000000000015,74.64300000000003 71.17000000000007,75.42499999999995 C70.23999999999978,76.20600000000002 69.22999999999956,76.596 68.15999999999985,76.596 C67.52999999999975,76.596 67.01000000000022,76.43499999999995 66.57999999999993,76.11199999999997 C66.17000000000007,75.75800000000004 65.97000000000025,75.31500000000005 65.97000000000025,74.78399999999999 C65.97000000000025,73.88800000000003 66.4399999999996,73.04999999999995 67.38000000000011,72.26800000000003 C68.28999999999996,71.48699999999997 69.28999999999996,71.096 70.35999999999967,71.096" />
<path d="M51.909999999999854,63.12800000000004 L54.31999999999971,61.174999999999955 C54.38000000000011,61.12199999999996 54.4399999999996,61.096000000000004 54.48999999999978,61.096000000000004 C54.5600000000004,61.096000000000004 54.63000000000011,61.12199999999996 54.6899999999996,61.174999999999955 L55.100000000000364,61.486999999999966 C55.159999999999854,61.549999999999955 55.1899999999996,61.62800000000004 55.1899999999996,61.721000000000004 C55.1899999999996,61.78399999999999 55.159999999999854,61.861999999999966 55.100000000000364,61.95600000000002 L52.77000000000044,63.846000000000004 L55.100000000000364,65.73699999999997 C55.159999999999854,65.80999999999995 55.1899999999996,65.89099999999996 55.1899999999996,65.97900000000004 C55.1899999999996,66.06799999999998 55.159999999999854,66.14300000000003 55.100000000000364,66.20600000000002 L54.6899999999996,66.51800000000003 C54.63000000000011,66.57000000000005 54.5600000000004,66.596 54.48999999999978,66.596 C54.4399999999996,66.596 54.38000000000011,66.57000000000005 54.31999999999971,66.51800000000003 L51.909999999999854,64.56500000000005 L49.48999999999978,66.51800000000003 C49.43000000000029,66.57000000000005 49.36999999999989,66.596 49.31999999999971,66.596 C49.26000000000022,66.596 49.1899999999996,66.57000000000005 49.13000000000011,66.51800000000003 L48.710000000000036,66.20600000000002 C48.649999999999636,66.14300000000003 48.61999999999989,66.06500000000005 48.61999999999989,65.971 C48.61999999999989,65.90899999999999 48.649999999999636,65.83100000000002 48.710000000000036,65.73699999999997 L51.039999999999964,63.846000000000004 L48.710000000000036,61.95600000000002 C48.649999999999636,61.88300000000004 48.61999999999989,61.80200000000002 48.61999999999989,61.714000000000055 C48.61999999999989,61.625 48.649999999999636,61.549999999999955 48.710000000000036,61.486999999999966 L49.13000000000011,61.174999999999955 C49.1899999999996,61.12199999999996 49.26000000000022,61.096000000000004 49.31999999999971,61.096000000000004 C49.36999999999989,61.096000000000004 49.43000000000029,61.12199999999996 49.48999999999978,61.174999999999955 L51.909999999999854,63.12800000000004" />
<path d="M53.01000000000022,13.596000000000004 C53.63000000000011,13.596000000000004 54.159999999999854,13.758000000000038 54.600000000000364,14.081000000000017 C55.0,14.434999999999945 55.1899999999996,14.878000000000043 55.1899999999996,15.408999999999992 C55.1899999999996,16.30499999999995 54.73999999999978,17.14300000000003 53.81999999999971,17.924999999999955 C52.88000000000011,18.706000000000017 51.88000000000011,19.096000000000004 50.80000000000018,19.096000000000004 C50.18000000000029,19.096000000000004 49.649999999999636,18.934999999999945 49.22999999999956,18.611999999999966 C48.81999999999971,18.258000000000038 48.61999999999989,17.815000000000055 48.61999999999989,17.283999999999992 C48.61999999999989,16.388000000000034 49.07999999999993,15.549999999999955 50.02000000000044,14.768000000000029 C50.9399999999996,13.986999999999966 51.93000000000029,13.596000000000004 53.01000000000022,13.596000000000004" />
<path d="M24.140000000000327,63.12800000000004 L26.550000000000182,61.174999999999955 C26.609999999999673,61.12199999999996 26.670000000000073,61.096000000000004 26.720000000000255,61.096000000000004 C26.800000000000182,61.096000000000004 26.859999999999673,61.12199999999996 26.93000000000029,61.174999999999955 L27.329999999999927,61.486999999999966 C27.390000000000327,61.549999999999955 27.43000000000029,61.62800000000004 27.43000000000029,61.721000000000004 C27.43000000000029,61.78399999999999 27.390000000000327,61.861999999999966 27.329999999999927,61.95600000000002 L25.0,63.846000000000004 L27.329999999999927,65.73699999999997 C27.390000000000327,65.80999999999995 27.43000000000029,65.89099999999996 27.43000000000029,65.97900000000004 C27.43000000000029,66.06799999999998 27.390000000000327,66.14300000000003 27.329999999999927,66.20600000000002 L26.93000000000029,66.51800000000003 C26.859999999999673,66.57000000000005 26.800000000000182,66.596 26.720000000000255,66.596 C26.670000000000073,66.596 26.609999999999673,66.57000000000005 26.550000000000182,66.51800000000003 L24.140000000000327,64.56500000000005 L21.720000000000255,66.51800000000003 C21.659999999999854,66.57000000000005 21.600000000000364,66.596 21.550000000000182,66.596 C21.48999999999978,66.596 21.43000000000029,66.57000000000005 21.359999999999673,66.51800000000003 L20.9399999999996,66.20600000000002 C20.88000000000011,66.14300000000003 20.850000000000364,66.06500000000005 20.850000000000364,65.971 C20.850000000000364,65.90899999999999 20.88000000000011,65.83100000000002 20.9399999999996,65.73699999999997 L23.270000000000437,63.846000000000004 L20.9399999999996,61.95600000000002 C20.88000000000011,61.88300000000004 20.850000000000364,61.80200000000002 20.850000000000364,61.714000000000055 C20.850000000000364,61.625 20.88000000000011,61.549999999999955 20.9399999999996,61.486999999999966 L21.359999999999673,61.174999999999955 C21.43000000000029,61.12199999999996 21.48999999999978,61.096000000000004 21.550000000000182,61.096000000000004 C21.600000000000364,61.096000000000004 21.659999999999854,61.12199999999996 21.720000000000255,61.174999999999955 L24.140000000000327,63.12800000000004" />
<path d="M25.23999999999978,71.096 C25.859999999999673,71.096 26.390000000000327,71.25800000000004 26.829999999999927,71.58100000000002 C27.229999999999563,71.93499999999995 27.43000000000029,72.37800000000004 27.43000000000029,72.90899999999999 C27.43000000000029,73.80499999999995 26.970000000000255,74.64300000000003 26.050000000000182,75.42499999999995 C25.109999999999673,76.20600000000002 24.109999999999673,76.596 23.039999999999964,76.596 C22.409999999999854,76.596 21.88000000000011,76.43499999999995 21.460000000000036,76.11199999999997 C21.050000000000182,75.75800000000004 20.850000000000364,75.31500000000005 20.850000000000364,74.78399999999999 C20.850000000000364,73.88800000000003 21.31999999999971,73.04999999999995 22.25,72.26800000000003 C23.170000000000073,71.48699999999997 24.170000000000073,71.096 25.23999999999978,71.096" />
<path d="M25.23999999999978,31.096000000000004 C25.859999999999673,31.096000000000004 26.390000000000327,31.258000000000038 26.829999999999927,31.581000000000017 C27.229999999999563,31.934999999999945 27.43000000000029,32.37800000000004 27.43000000000029,32.90899999999999 C27.43000000000029,33.80499999999995 26.970000000000255,34.64300000000003 26.050000000000182,35.424999999999955 C25.109999999999673,36.20600000000002 24.109999999999673,36.596000000000004 23.039999999999964,36.596000000000004 C22.409999999999854,36.596000000000004 21.88000000000011,36.434999999999945 21.460000000000036,36.111999999999966 C21.050000000000182,35.75800000000004 20.850000000000364,35.315000000000055 20.850000000000364,34.78399999999999 C20.850000000000364,33.888000000000034 21.31999999999971,33.049999999999955 22.25,32.26800000000003 C23.170000000000073,31.486999999999966 24.170000000000073,31.096000000000004 25.23999999999978,31.096000000000004" />
<path d="M124.21000000000004,19.736999999999966 C124.60000000000036,19.736999999999966 124.88000000000011,19.841000000000008 125.05000000000018,20.049999999999955 C125.22999999999956,20.278999999999996 125.34000000000015,20.503000000000043 125.38000000000011,20.721000000000004 C125.39000000000033,20.940000000000055 125.46000000000004,21.158999999999992 125.57999999999993,21.378000000000043 C125.65999999999985,21.586000000000013 125.80000000000018,21.690000000000055 126.0,21.690000000000055 C126.14000000000033,21.690000000000055 126.34000000000015,21.533999999999992 126.60000000000036,21.221000000000004 C126.89000000000033,20.85699999999997 127.07999999999993,20.596000000000004 127.15999999999985,20.440000000000055 C127.22000000000025,20.315000000000055 127.3100000000004,20.253000000000043 127.43000000000029,20.253000000000043 C127.43000000000029,20.253000000000043 127.4399999999996,20.253000000000043 127.46000000000004,20.253000000000043 C127.56999999999971,20.263000000000034 127.65999999999985,20.326000000000022 127.71000000000004,20.440000000000055 L124.13000000000011,33.846000000000004 C124.0,33.98199999999997 123.81999999999971,34.049999999999955 123.59000000000015,34.049999999999955 C123.35999999999967,34.049999999999955 123.17000000000007,33.98199999999997 123.03999999999996,33.846000000000004 L125.05000000000018,27.299999999999955 C124.18000000000029,27.611999999999966 123.47000000000025,27.76800000000003 122.93000000000029,27.76800000000003 C122.46000000000004,27.76800000000003 122.05000000000018,27.621999999999957 121.71000000000004,27.331000000000017 C121.35000000000036,27.038999999999987 121.18000000000029,26.658999999999992 121.18000000000029,26.190000000000055 C121.18000000000029,25.783999999999992 121.3100000000004,25.44500000000005 121.57999999999993,25.174999999999955 C121.86999999999989,24.89300000000003 122.22000000000025,24.753000000000043 122.63000000000011,24.753000000000043 C123.01000000000022,24.753000000000043 123.30000000000018,24.85699999999997 123.47000000000025,25.065000000000055 C123.65999999999985,25.283999999999992 123.77999999999975,25.503000000000043 123.81999999999971,25.721000000000004 C123.85999999999967,25.98199999999997 123.93000000000029,26.206000000000017 124.02000000000044,26.39300000000003 C124.10000000000036,26.601999999999975 124.23999999999978,26.706000000000017 124.4399999999996,26.706000000000017 C124.60000000000036,26.706000000000017 124.81999999999971,26.524 125.10999999999967,26.158999999999992 C125.40999999999985,25.815000000000055 125.59000000000015,25.543999999999983 125.65999999999985,25.346000000000004 L126.56999999999971,22.315000000000055 C125.72999999999956,22.616999999999962 125.03999999999996,22.76800000000003 124.48999999999978,22.76800000000003 C124.02000000000044,22.76800000000003 123.60999999999967,22.616999999999962 123.27000000000044,22.315000000000055 C122.92000000000007,22.033999999999992 122.73999999999978,21.658999999999992 122.73999999999978,21.190000000000055 C122.73999999999978,20.783999999999992 122.88000000000011,20.44500000000005 123.18000000000029,20.174999999999955 C123.46000000000004,19.883000000000038 123.80000000000018,19.736999999999966 124.21000000000004,19.736999999999966" />
<path d="M234.94999999999982,98.846 L328.1400000000003,90.03499999999997 L328.1400000000003,92.53499999999997 L234.94999999999982,101.346 L234.94999999999982,98.846" />
<path d="M240.89000000000033,11.346000000000004 L264.1199999999999,11.346000000000004 L264.1199999999999,13.846000000000004 L240.89000000000033,13.846000000000004 L240.89000000000033,11.346000000000004" />
<path d="M156.42000000000007,41.346000000000004 L209.1300000000001,47.67399999999998 L209.1300000000001,50.17399999999998 L156.42000000000007,43.846000000000004 L156.42000000000007,41.346000000000004" />
<path d="M156.42000000000007,37.596000000000004 L209.1300000000001,43.92399999999998 L209.1300000000001,46.42399999999998 L156.42000000000007,40.096000000000004 L156.42000000000007,37.596000000000004" />
<path d="M83.32999999999993,100.096 L191.77999999999975,93.80899999999997 L191.77999999999975,96.30899999999997 L83.32999999999993,102.596 L83.32999999999993,100.096" />
<path d="M83.32999999999993,31.346000000000004 L101.32999999999993,27.456000000000017 L101.32999999999993,29.956000000000017 L83.32999999999993,33.846000000000004 L83.32999999999993,31.346000000000004" />
<path d="M83.32999999999993,27.596000000000004 L101.32999999999993,23.706000000000017 L101.32999999999993,26.206000000000017 L83.32999999999993,30.096000000000004 L83.32999999999993,27.596000000000004" />
<path d="M20.850000000000364,88.846 L66.61999999999989,88.846 L66.61999999999989,91.346 L20.850000000000364,91.346 L20.850000000000364,88.846" />
<path d="M48.61999999999989,85.096 L66.61999999999989,85.096 L66.61999999999989,87.596 L48.61999999999989,87.596 L48.61999999999989,85.096" />
<path d="M139.6899999999996,34.846000000000004 C140.21000000000004,34.54399999999998 140.69999999999982,34.236999999999966 141.17000000000007,33.924999999999955 C141.67000000000007,33.57000000000005 142.10999999999967,33.21600000000001 142.5,32.861999999999966 C142.97000000000025,32.434999999999945 143.32999999999993,31.991999999999962 143.57999999999993,31.533999999999992 C143.84000000000015,31.043999999999983 143.97000000000025,30.559999999999945 143.97000000000025,30.081000000000017 C143.97000000000025,29.621999999999957 143.8800000000001,29.158999999999992 143.6899999999996,28.690000000000055 C143.55000000000018,28.866999999999962 143.1300000000001,29.283999999999992 142.42000000000007,29.940000000000055 C141.89000000000033,30.42999999999995 141.4399999999996,30.878000000000043 141.0600000000004,31.283999999999992 C140.72000000000025,31.649 140.40999999999985,32.10699999999997 140.1300000000001,32.65899999999999 C139.82999999999993,33.21100000000001 139.6899999999996,33.774 139.6899999999996,34.346000000000004 L139.6899999999996,34.846000000000004 M145.0600000000004,25.581000000000017 C145.0600000000004,26.361999999999966 144.8100000000004,27.138000000000034 144.3100000000004,27.908999999999992 C144.64999999999964,28.596000000000004 144.8100000000004,29.32000000000005 144.8100000000004,30.081000000000017 C144.8100000000004,30.716000000000008 144.64000000000033,31.35699999999997 144.27999999999975,32.00300000000004 C143.90999999999985,32.71100000000001 143.47999999999956,33.28399999999999 143.02000000000044,33.721000000000004 L141.47999999999956,35.20600000000002 C140.97000000000025,35.726999999999975 140.55000000000018,36.29399999999998 140.22000000000025,36.90899999999999 C139.85999999999967,37.53399999999999 139.6899999999996,38.17999999999995 139.6899999999996,38.846000000000004 L139.0600000000004,38.846000000000004 L139.0600000000004,28.846000000000004 L139.6899999999996,28.846000000000004 L139.6899999999996,30.346000000000004 C142.71000000000004,28.774 144.22000000000025,27.184999999999945 144.22000000000025,25.581000000000017 C144.22000000000025,25.226999999999975 144.1300000000001,24.815000000000055 143.94999999999982,24.346000000000004 C143.94999999999982,24.346000000000004 143.94999999999982,24.32000000000005 143.94999999999982,24.26800000000003 C143.94999999999982,24.163999999999987 143.98999999999978,24.059999999999945 144.0600000000004,23.956000000000017 C144.17000000000007,23.851999999999975 144.28999999999996,23.799999999999955 144.42000000000007,23.799999999999955 C144.55000000000018,23.799999999999955 144.65999999999985,23.878000000000043 144.77000000000044,24.033999999999992 C144.8800000000001,24.241999999999962 144.94999999999982,24.44500000000005 144.97000000000025,24.64300000000003 C144.97999999999956,24.736999999999966 144.98999999999978,24.85699999999997 145.0,25.003000000000043 L145.05000000000018,25.206000000000017 C145.0600000000004,25.299999999999955 145.0600000000004,25.424999999999955 145.0600000000004,25.581000000000017" />
<polyline points="0.0,13.846000000000004 255.0,13.846000000000004" fill="none" stroke="#000000" stroke-width="0.40" />
<polyline points="0.0,18.846000000000004 255.0,18.846000000000004" fill="none" stroke="#000000" stroke-width="0.40" />
<polyline points="0.0,23.846000000000004 255.0,23.846000000000004" fill="none" stroke="#000000" stroke-width="0.40" />
<polyline points="0.0,28.846000000000004 255.0,28.846000000000004" fill="none" stroke="#000000" stroke-width="0.40" />
<polyline points="0.0,33.846000000000004 255.0,33.846000000000004" fill="none" stroke="#000000" stroke-width="0.40" />
<polyline points="0.0,66.346 255.0,66.346" fill="none" stroke="#000000" stroke-width="0.40" />
<polyline points="0.0,71.346 255.0,71.346" fill="none" stroke="#000000" stroke-width="0.40" />
<polyline points="0.0,76.346 255.0,76.346" fill="none" stroke="#000000" stroke-width="0.40" />
<polyline points="0.0,81.346 255.0,81.346" fill="none" stroke="#000000" stroke-width="0.40" />
<polyline points="0.0,86.346 255.0,86.346" fill="none" stroke="#000000" stroke-width="0.40" />
<polyline points="226.23999999999978,66.346 226.23999999999978,86.346" fill="" stroke="#000000" stroke-width="0.80" />
<polyline points="226.23999999999978,13.846000000000004 226.23999999999978,33.846000000000004" fill="" stroke="#000000" stroke-width="0.80" />
<polyline points="235.27999999999975,65.90999999999997 235.27999999999975,100.096" fill="" stroke="#000000" stroke-width="0.65" />
<polyline points="241.21000000000004,25.40700000000004 241.21000000000004,12.596000000000004" fill="" stroke="#000000" stroke-width="0.65" />
<polyline points="208.8100000000004,29.785999999999945 208.8100000000004,48.846000000000004" fill="" stroke="#000000" stroke-width="0.65" />
<polyline points="191.44999999999982,65.90999999999997 191.44999999999982,95.096" fill="" stroke="#000000" stroke-width="0.65" />
<polyline points="191.44999999999982,29.785999999999945 191.44999999999982,46.763000000000034" fill="" stroke="#000000" stroke-width="0.65" />
<polyline points="174.10000000000036,19.785999999999945 174.10000000000036,44.67999999999995" fill="" stroke="#000000" stroke-width="0.65" />
<polyline points="156.73999999999978,65.90999999999997 156.73999999999978,97.10900000000004" fill="" stroke="#000000" stroke-width="0.65" />
<polyline points="156.73999999999978,19.785999999999945 156.73999999999978,42.596000000000004" fill="" stroke="#000000" stroke-width="0.65" />
<polyline points="139.39000000000033,22.285999999999945 139.39000000000033,38.846000000000004" fill="" stroke="#000000" stroke-width="0.65" />
<polyline points="122.02999999999975,65.90999999999997 122.02999999999975,99.12099999999998" fill="" stroke="#000000" stroke-width="0.65" />
<polyline points="101.01000000000022,12.285999999999945 101.01000000000022,28.846000000000004" fill="" stroke="#000000" stroke-width="0.65" />
<polyline points="83.64999999999964,65.90999999999997 83.64999999999964,101.346" fill="" stroke="#000000" stroke-width="0.65" />
<polyline points="83.64999999999964,17.285999999999945 83.64999999999964,32.596000000000004" fill="" stroke="#000000" stroke-width="0.65" />
<polyline points="66.30000000000018,74.78599999999994 66.30000000000018,90.096" fill="" stroke="#000000" stroke-width="0.65" />
<polyline points="48.9399999999996,65.90999999999997 48.9399999999996,90.096" fill="" stroke="#000000" stroke-width="0.65" />
<polyline points="54.86999999999989,15.407000000000039 54.86999999999989,0.09600000000000364" fill="" stroke="#000000" stroke-width="0.65" />
<polyline points="21.170000000000073,65.90999999999997 21.170000000000073,90.096" fill="" stroke="#000000" stroke-width="0.65" />
<polyline points="27.109999999999673,32.90700000000004 27.109999999999673,2.5960000000000036" fill="" stroke="#000000" stroke-width="0.65" />
</svg>
