<?xml version="1.0" encoding="UTF-8" standalone="yes"?>
<svg width="256.0px" height="256.0px" xmlns="http://www.w3.org/2000/svg" xmlns:xlink="http://www.w3.org/1999/xlink" version="1.2" baseProfile="tiny">
<path d="M161.77999999999975,30.79200000000003 C161.64999999999964,30.69799999999998 161.5,30.591000000000008 161.35000000000036,30.47199999999998 C161.19999999999982,30.351999999999975 161.02999999999975,30.184999999999945 160.85000000000036,29.97199999999998 C160.65999999999985,29.758000000000038 160.48999999999978,29.53200000000004 160.35000000000036,29.29200000000003 C160.19999999999982,29.05200000000002 160.07999999999993,28.760999999999967 159.98999999999978,28.41700000000003 C159.89000000000033,28.07299999999998 159.85000000000036,27.71900000000005 159.85000000000036,27.354000000000042 C159.85000000000036,26.96900000000005 159.89000000000033,26.604000000000042 159.98999999999978,26.260999999999967 C160.07999999999993,25.91700000000003 160.1899999999996,25.633000000000038 160.32999999999993,25.408999999999992 C160.47000000000025,25.184999999999945 160.6300000000001,24.966000000000008 160.84000000000015,24.753000000000043 C161.03999999999996,24.538999999999987 161.21000000000004,24.383000000000038 161.35000000000036,24.283999999999992 C161.47999999999956,24.184999999999945 161.6300000000001,24.077999999999975 161.80000000000018,23.964000000000055 L161.8800000000001,24.089000000000055 C161.64999999999964,24.287000000000035 161.46000000000004,24.461000000000013 161.3100000000004,24.611999999999966 C161.17000000000007,24.763000000000034 161.02999999999975,24.964000000000055 160.89000000000033,25.214000000000055 C160.76000000000022,25.464000000000055 160.65999999999985,25.760999999999967 160.60000000000036,26.104000000000042 C160.55000000000018,26.44799999999998 160.52000000000044,26.860000000000014 160.52000000000044,27.339000000000055 C160.52000000000044,27.827999999999975 160.55000000000018,28.253000000000043 160.60000000000036,28.611999999999966 C160.65999999999985,28.97199999999998 160.76000000000022,29.275999999999954 160.89000000000033,29.525999999999954 C161.02999999999975,29.775999999999954 161.17000000000007,29.98199999999997 161.3100000000004,30.144000000000005 C161.46000000000004,30.30499999999995 161.64999999999964,30.474000000000046 161.8800000000001,30.650999999999954 L161.77999999999975,30.79200000000003 M162.3100000000004,27.66700000000003 C162.3100000000004,27.07299999999998 162.48999999999978,26.59699999999998 162.84000000000015,26.236999999999966 C163.1899999999996,25.878000000000043 163.60000000000036,25.69799999999998 164.0600000000004,25.69799999999998 C164.39999999999964,25.69799999999998 164.6800000000003,25.778999999999996 164.92000000000007,25.940000000000055 C165.14999999999964,26.101999999999975 165.27000000000044,26.297000000000025 165.27000000000044,26.525999999999954 C165.27000000000044,26.610000000000014 165.22999999999956,26.684999999999945 165.15999999999985,26.753000000000043 C165.07999999999993,26.821000000000026 165.0,26.854000000000042 164.89000000000033,26.854000000000042 C164.72000000000025,26.854000000000042 164.60000000000036,26.735000000000014 164.52999999999975,26.495000000000005 L164.48999999999978,26.32299999999998 C164.4399999999996,26.16700000000003 164.39000000000033,26.062999999999988 164.32999999999993,26.010999999999967 C164.27000000000044,25.958999999999946 164.15999999999985,25.932999999999993 164.02000000000044,25.932999999999993 C163.6899999999996,25.932999999999993 163.4300000000003,26.059999999999945 163.23999999999978,26.315000000000055 C163.03999999999996,26.571000000000026 162.9399999999996,26.90700000000004 162.9399999999996,27.32299999999998 C162.9399999999996,27.770999999999958 163.05000000000018,28.140999999999963 163.27999999999975,28.432999999999993 C163.51000000000022,28.724000000000046 163.8100000000004,28.870000000000005 164.17000000000007,28.870000000000005 C164.39000000000033,28.870000000000005 164.57999999999993,28.812999999999988 164.73999999999978,28.69799999999998 C164.90999999999985,28.583999999999946 165.07999999999993,28.390999999999963 165.27000000000044,28.120000000000005 L165.3800000000001,28.182999999999993 C165.3199999999997,28.297000000000025 165.27999999999975,28.388000000000034 165.23999999999978,28.456000000000017 C165.21000000000004,28.524 165.14000000000033,28.628000000000043 165.02999999999975,28.769000000000005 C164.9300000000003,28.908999999999992 164.82999999999993,29.020999999999958 164.72999999999956,29.104000000000042 C164.6300000000001,29.187999999999988 164.5,29.265999999999963 164.34000000000015,29.339000000000055 C164.1800000000003,29.412000000000035 164.01000000000022,29.44799999999998 163.82999999999993,29.44799999999998 C163.39000000000033,29.44799999999998 163.02999999999975,29.28200000000004 162.73999999999978,28.94799999999998 C162.46000000000004,28.61500000000001 162.3100000000004,28.187999999999988 162.3100000000004,27.66700000000003 M165.98999999999978,23.964000000000055 C166.1300000000001,24.047000000000025 166.27999999999975,24.149 166.42000000000007,24.269000000000005 C166.5699999999997,24.388000000000034 166.73999999999978,24.55499999999995 166.9300000000003,24.769000000000005 C167.1199999999999,24.98199999999997 167.28999999999996,25.211000000000013 167.4300000000003,25.456000000000017 C167.5699999999997,25.701000000000022 167.6899999999996,25.991999999999962 167.78999999999996,26.331000000000017 C167.89000000000033,26.66999999999996 167.9399999999996,27.025999999999954 167.9399999999996,27.400999999999954 C167.9399999999996,27.775999999999954 167.89000000000033,28.135999999999967 167.78999999999996,28.479000000000042 C167.6899999999996,28.82299999999998 167.57999999999993,29.110000000000014 167.44999999999982,29.339000000000055 C167.3199999999997,29.567999999999984 167.14999999999964,29.787000000000035 166.9399999999996,29.995000000000005 C166.72999999999956,30.202999999999975 166.5600000000004,30.360000000000014 166.4300000000003,30.464000000000055 C166.30000000000018,30.567999999999984 166.14999999999964,30.67700000000002 165.97000000000025,30.79200000000003 L165.89000000000033,30.650999999999954 C166.1300000000001,30.464000000000055 166.3199999999997,30.29200000000003 166.47000000000025,30.135999999999967 C166.6199999999999,29.979000000000042 166.75,29.778999999999996 166.8800000000001,29.533999999999992 C167.01000000000022,29.288999999999987 167.10999999999967,28.995000000000005 167.17000000000007,28.650999999999954 C167.22000000000025,28.307999999999993 167.25,27.895999999999958 167.25,27.41700000000003 C167.25,26.92700000000002 167.22000000000025,26.503000000000043 167.17000000000007,26.144000000000005 C167.10999999999967,25.783999999999992 167.01000000000022,25.476999999999975 166.8800000000001,25.22199999999998 C166.75,24.966000000000008 166.6199999999999,24.760999999999967 166.47000000000025,24.604000000000042 C166.3199999999997,24.44799999999998 166.1300000000001,24.275999999999954 165.89000000000033,24.089000000000055 L165.98999999999978,23.964000000000055 M171.77000000000044,24.635999999999967 C171.65999999999985,24.635999999999967 171.47000000000025,24.692999999999984 171.1899999999996,24.807999999999993 L171.1899999999996,24.69799999999998 L172.60999999999967,23.964000000000055 L172.67000000000007,23.979000000000042 L172.67000000000007,28.775999999999954 C172.67000000000007,28.974000000000046 172.72000000000025,29.101999999999975 172.8199999999997,29.158999999999992 C172.92000000000007,29.216000000000008 173.1300000000001,29.245000000000005 173.4399999999996,29.245000000000005 L173.4399999999996,29.370000000000005 L171.23999999999978,29.370000000000005 L171.23999999999978,29.245000000000005 C171.53999999999996,29.235000000000014 171.73999999999978,29.190000000000055 171.85000000000036,29.111999999999966 C171.94999999999982,29.033999999999992 172.0,28.870000000000005 172.0,28.620000000000005 L172.0,25.010999999999967 C172.0,24.760999999999967 171.92000000000007,24.635999999999967 171.77000000000044,24.635999999999967 M174.75,29.54200000000003 L174.73999999999978,29.385999999999967 C175.34000000000015,29.28200000000004 175.85000000000036,29.024 176.27999999999975,28.611999999999966 C176.69999999999982,28.201000000000022 176.98999999999978,27.66700000000003 177.15999999999985,27.010999999999967 C176.76000000000022,27.32299999999998 176.35999999999967,27.479000000000042 175.94999999999982,27.479000000000042 C175.52999999999975,27.479000000000042 175.1800000000003,27.327999999999975 174.92000000000007,27.025999999999954 C174.64999999999964,26.724000000000046 174.52000000000044,26.333999999999946 174.52000000000044,25.854000000000042 C174.52000000000044,25.312999999999988 174.6800000000003,24.860000000000014 174.98999999999978,24.495000000000005 C175.3100000000004,24.129999999999995 175.71000000000004,23.94799999999998 176.1899999999996,23.94799999999998 C176.72000000000025,23.94799999999998 177.14999999999964,24.158999999999992 177.48999999999978,24.581000000000017 C177.8199999999997,25.003000000000043 177.98999999999978,25.547000000000025 177.98999999999978,26.214000000000055 C177.98999999999978,26.432999999999993 177.97000000000025,26.653999999999996 177.9300000000003,26.878000000000043 C177.89000000000033,27.101999999999975 177.8100000000004,27.366999999999962 177.67000000000007,27.674999999999955 C177.53999999999996,27.98199999999997 177.35999999999967,28.254999999999995 177.1300000000001,28.495000000000005 C176.90999999999985,28.735000000000014 176.60000000000036,28.952999999999975 176.1899999999996,29.150999999999954 C175.77999999999975,29.349000000000046 175.30000000000018,29.479000000000042 174.75,29.54200000000003 M176.25,27.120000000000005 C176.35999999999967,27.120000000000005 176.47000000000025,27.10699999999997 176.60000000000036,27.081000000000017 C176.72000000000025,27.05499999999995 176.85000000000036,26.991999999999962 176.97999999999956,26.894000000000005 C177.10999999999967,26.79499999999996 177.17000000000007,26.672000000000025 177.17000000000007,26.525999999999954 L177.17000000000007,26.214000000000055 C177.17000000000007,24.860000000000014 176.8199999999997,24.182999999999993 176.1300000000001,24.182999999999993 C175.96000000000004,24.182999999999993 175.8199999999997,24.226999999999975 175.69999999999982,24.315000000000055 C175.57999999999993,24.403999999999996 175.48999999999978,24.520999999999958 175.4300000000003,24.66700000000003 C175.3699999999999,24.812999999999988 175.32999999999993,24.958999999999946 175.30000000000018,25.104000000000042 C175.27000000000044,25.25 175.25,25.40700000000004 175.25,25.57299999999998 C175.25,26.05200000000002 175.34000000000015,26.42999999999995 175.52999999999975,26.706000000000017 C175.71000000000004,26.98199999999997 175.94999999999982,27.120000000000005 176.25,27.120000000000005 M180.32999999999993,29.479000000000042 C179.78999999999996,29.479000000000042 179.35000000000036,29.265999999999963 179.02999999999975,28.839000000000055 C178.69999999999982,28.412000000000035 178.52999999999975,27.84400000000005 178.52999999999975,27.135999999999967 C178.52999999999975,26.91700000000003 178.5600000000004,26.692999999999984 178.60000000000036,26.464000000000055 C178.64999999999964,26.235000000000014 178.73999999999978,25.97199999999998 178.8800000000001,25.674999999999955 C179.02999999999975,25.378000000000043 179.21000000000004,25.111999999999966 179.44999999999982,24.878000000000043 C179.6800000000003,24.644000000000005 180.0,24.434999999999945 180.42000000000007,24.253000000000043 C180.82999999999993,24.071000000000026 181.30000000000018,23.952999999999975 181.85000000000036,23.900999999999954 L181.85999999999967,24.025999999999954 C181.22999999999956,24.129999999999995 180.69999999999982,24.385999999999967 180.27999999999975,24.79200000000003 C179.85000000000036,25.19799999999998 179.57999999999993,25.702999999999975 179.47000000000025,26.307999999999993 C179.72000000000025,26.162000000000035 179.90999999999985,26.067999999999984 180.03999999999996,26.025999999999954 C180.17000000000007,25.985000000000014 180.3199999999997,25.964000000000055 180.5,25.964000000000055 C180.97000000000025,25.964000000000055 181.34000000000015,26.111999999999966 181.6199999999999,26.408999999999992 C181.89000000000033,26.706000000000017 182.02999999999975,27.104000000000042 182.02999999999975,27.604000000000042 C182.02999999999975,28.15700000000004 181.8699999999999,28.60699999999997 181.5600000000004,28.956000000000017 C181.23999999999978,29.30499999999995 180.82999999999993,29.479000000000042 180.32999999999993,29.479000000000042 M180.19999999999982,26.32299999999998 C179.84000000000015,26.32299999999998 179.59000000000015,26.400999999999954 179.46000000000004,26.557999999999993 C179.32999999999993,26.714000000000055 179.27000000000044,26.94799999999998 179.27000000000044,27.260999999999967 C179.27000000000044,27.875 179.3699999999999,28.360000000000014 179.57999999999993,28.714000000000055 C179.78999999999996,29.067999999999984 180.0600000000004,29.245000000000005 180.40999999999985,29.245000000000005 C180.69999999999982,29.245000000000005 180.92000000000007,29.128000000000043 181.0600000000004,28.894000000000005 C181.21000000000004,28.658999999999992 181.27999999999975,28.32299999999998 181.27999999999975,27.885999999999967 C181.27999999999975,27.385999999999967 181.1899999999996,27.0 181.0,26.729000000000042 C180.8100000000004,26.458999999999946 180.55000000000018,26.32299999999998 180.19999999999982,26.32299999999998 M184.57999999999993,26.400999999999954 C185.0699999999997,26.754999999999995 185.39999999999964,27.05200000000002 185.5699999999997,27.29200000000003 C185.73999999999978,27.53200000000004 185.82999999999993,27.807999999999993 185.82999999999993,28.120000000000005 C185.82999999999993,28.537000000000035 185.6899999999996,28.866999999999962 185.39999999999964,29.111999999999966 C185.10999999999967,29.35699999999997 184.72999999999956,29.479000000000042 184.25,29.479000000000042 C183.78999999999996,29.479000000000042 183.42000000000007,29.35699999999997 183.1300000000001,29.111999999999966 C182.85000000000036,28.866999999999962 182.69999999999982,28.547000000000025 182.69999999999982,28.150999999999954 C182.69999999999982,27.879999999999995 182.77000000000044,27.653999999999996 182.89999999999964,27.47199999999998 C183.02999999999975,27.288999999999987 183.3100000000004,27.037000000000035 183.75,26.714000000000055 C183.3199999999997,26.339000000000055 183.05000000000018,26.062999999999988 182.9300000000003,25.885999999999967 C182.8100000000004,25.708999999999946 182.75,25.49000000000001 182.75,25.229000000000042 C182.75,24.86500000000001 182.89000000000033,24.559999999999945 183.1800000000003,24.315000000000055 C183.47000000000025,24.071000000000026 183.82999999999993,23.94799999999998 184.27999999999975,23.94799999999998 C184.6800000000003,23.94799999999998 185.0,24.05499999999995 185.26000000000022,24.269000000000005 C185.51000000000022,24.48199999999997 185.64000000000033,24.760999999999967 185.64000000000033,25.104000000000042 C185.64000000000033,25.375 185.5600000000004,25.604000000000042 185.40999999999985,25.79200000000003 C185.25,25.979000000000042 184.97999999999956,26.182999999999993 184.57999999999993,26.400999999999954 M183.94999999999982,26.870000000000005 C183.72999999999956,27.057999999999993 183.5600000000004,27.241999999999962 183.47000000000025,27.424999999999955 C183.3800000000001,27.60699999999997 183.32999999999993,27.827999999999975 183.32999999999993,28.089000000000055 C183.32999999999993,28.432999999999993 183.42000000000007,28.711000000000013 183.60000000000036,28.924999999999955 C183.78999999999996,29.138000000000034 184.02999999999975,29.245000000000005 184.32999999999993,29.245000000000005 C184.59000000000015,29.245000000000005 184.80000000000018,29.163999999999987 184.96000000000004,29.003000000000043 C185.1199999999999,28.841000000000008 185.19999999999982,28.629999999999995 185.19999999999982,28.370000000000005 C185.19999999999982,28.287000000000035 185.19999999999982,28.206000000000017 185.1800000000003,28.128000000000043 C185.17000000000007,28.049999999999955 185.14999999999964,27.985000000000014 185.1300000000001,27.932999999999993 C185.10999999999967,27.879999999999995 185.0699999999997,27.817999999999984 185.01000000000022,27.745000000000005 C184.94999999999982,27.672000000000025 184.90999999999985,27.616999999999962 184.8800000000001,27.581000000000017 C184.85000000000036,27.54499999999996 184.78999999999996,27.486999999999966 184.69999999999982,27.408999999999992 C184.60999999999967,27.331000000000017 184.53999999999996,27.275999999999954 184.48999999999978,27.245000000000005 C184.44999999999982,27.214000000000055 184.35999999999967,27.153999999999996 184.23999999999978,27.065000000000055 C184.10999999999967,26.976999999999975 184.02000000000044,26.912000000000035 183.94999999999982,26.870000000000005 M184.35000000000036,26.260999999999967 C184.35999999999967,26.25 184.39000000000033,26.22199999999998 184.46000000000004,26.174999999999955 C184.52999999999975,26.128000000000043 184.57999999999993,26.091000000000008 184.60000000000036,26.065000000000055 C184.6300000000001,26.038999999999987 184.67000000000007,26.0 184.73999999999978,25.94799999999998 C184.80000000000018,25.895999999999958 184.85000000000036,25.84400000000005 184.8800000000001,25.79200000000003 C184.90999999999985,25.74000000000001 184.9399999999996,25.67700000000002 184.98999999999978,25.604000000000042 C185.02999999999975,25.53200000000004 185.0600000000004,25.451000000000022 185.0699999999997,25.361999999999966 C185.09000000000015,25.274 185.10000000000036,25.182999999999993 185.10000000000036,25.089000000000055 C185.10000000000036,24.817999999999984 185.02000000000044,24.599000000000046 184.85999999999967,24.432999999999993 C184.69999999999982,24.265999999999963 184.48999999999978,24.182999999999993 184.22000000000025,24.182999999999993 C183.97000000000025,24.182999999999993 183.76000000000022,24.258000000000038 183.60000000000036,24.408999999999992 C183.4399999999996,24.559999999999945 183.35999999999967,24.75 183.35999999999967,24.979000000000042 C183.35999999999967,25.19799999999998 183.4399999999996,25.40700000000004 183.59000000000015,25.604000000000042 C183.73999999999978,25.80200000000002 183.98999999999978,26.020999999999958 184.35000000000036,26.260999999999967 M193.69999999999982,26.69799999999998 C193.69999999999982,26.937999999999988 193.6800000000003,27.172000000000025 193.6199999999999,27.400999999999954 C193.5600000000004,27.629999999999995 193.46000000000004,27.866999999999962 193.3199999999997,28.111999999999966 C193.1800000000003,28.35699999999997 193.0,28.567999999999984 192.77999999999975,28.745000000000005 C192.55000000000018,28.922000000000025 192.25,29.071000000000026 191.8800000000001,29.190000000000055 C191.5,29.309999999999945 191.07999999999993,29.370000000000005 190.60999999999967,29.370000000000005 L188.35000000000036,29.370000000000005 L188.35000000000036,29.214000000000055 C188.64999999999964,29.192999999999984 188.84000000000015,29.140999999999963 188.92000000000007,29.057999999999993 C189.01000000000022,28.974000000000046 189.05000000000018,28.787000000000035 189.05000000000018,28.495000000000005 L189.05000000000018,24.94799999999998 C189.05000000000018,24.65700000000004 189.01000000000022,24.47199999999998 188.9300000000003,24.394000000000005 C188.85000000000036,24.315000000000055 188.65999999999985,24.260999999999967 188.35000000000036,24.229000000000042 L188.35000000000036,24.07299999999998 L190.5,24.07299999999998 C190.98999999999978,24.07299999999998 191.4300000000003,24.128000000000043 191.8100000000004,24.236999999999966 C192.1899999999996,24.34699999999998 192.48999999999978,24.486999999999966 192.72999999999956,24.658999999999992 C192.96000000000004,24.831000000000017 193.15999999999985,25.037000000000035 193.3100000000004,25.275999999999954 C193.46000000000004,25.515999999999963 193.5600000000004,25.75 193.6199999999999,25.979000000000042 C193.6800000000003,26.208999999999946 193.69999999999982,26.44799999999998 193.69999999999982,26.69799999999998 M192.8100000000004,26.760999999999967 C192.8100000000004,26.53200000000004 192.78999999999996,26.309999999999945 192.75,26.09699999999998 C192.71000000000004,25.883000000000038 192.6300000000001,25.66999999999996 192.51000000000022,25.456000000000017 C192.39000000000033,25.241999999999962 192.23999999999978,25.059999999999945 192.05000000000018,24.908999999999992 C191.85999999999967,24.758000000000038 191.6199999999999,24.633000000000038 191.3100000000004,24.533999999999992 C191.01000000000022,24.434999999999945 190.67000000000007,24.385999999999967 190.27999999999975,24.385999999999967 C190.1199999999999,24.385999999999967 190.0,24.40700000000004 189.94999999999982,24.44799999999998 C189.89000000000033,24.49000000000001 189.85999999999967,24.57299999999998 189.85999999999967,24.69799999999998 L189.85999999999967,28.745000000000005 C189.85999999999967,28.870000000000005 189.89000000000033,28.956000000000017 189.94999999999982,29.003000000000043 C190.0,29.049999999999955 190.1199999999999,29.07299999999998 190.27999999999975,29.07299999999998 C191.97000000000025,29.07299999999998 192.8100000000004,28.30200000000002 192.8100000000004,26.760999999999967 M196.64000000000033,26.885999999999967 C196.51000000000022,26.458999999999946 196.39999999999964,26.190000000000055 196.3199999999997,26.081000000000017 C196.23999999999978,25.97199999999998 196.1199999999999,25.90700000000004 195.9399999999996,25.885999999999967 L195.9399999999996,25.775999999999954 L197.5600000000004,25.775999999999954 L197.5600000000004,25.885999999999967 C197.3800000000001,25.91700000000003 197.25,25.951000000000022 197.1899999999996,25.986999999999966 C197.1300000000001,26.024 197.10000000000036,26.089000000000055 197.10000000000036,26.182999999999993 C197.10000000000036,26.245000000000005 197.14000000000033,26.400999999999954 197.23999999999978,26.650999999999954 L197.90999999999985,28.44799999999998 L198.6300000000001,26.66700000000003 C198.72000000000025,26.44799999999998 198.77000000000044,26.270999999999958 198.77000000000044,26.135999999999967 C198.77000000000044,26.07299999999998 198.73999999999978,26.024 198.6899999999996,25.986999999999966 C198.64000000000033,25.951000000000022 198.53999999999996,25.91700000000003 198.40999999999985,25.885999999999967 L198.40999999999985,25.775999999999954 L199.39000000000033,25.775999999999954 L199.39000000000033,25.885999999999967 C199.3100000000004,25.91700000000003 199.25,25.956000000000017 199.22000000000025,26.003000000000043 C199.1899999999996,26.049999999999955 199.14000000000033,26.15700000000004 199.0600000000004,26.32299999999998 L197.94999999999982,29.089000000000055 C197.85000000000036,29.349000000000046 197.77999999999975,29.479000000000042 197.73999999999978,29.479000000000042 C197.6899999999996,29.479000000000042 197.6300000000001,29.36500000000001 197.55000000000018,29.135999999999967 L196.8100000000004,27.245000000000005 L195.92000000000007,29.16700000000003 C195.82999999999993,29.375 195.76000000000022,29.479000000000042 195.72000000000025,29.479000000000042 C195.6800000000003,29.479000000000042 195.60999999999967,29.36500000000001 195.52000000000044,29.135999999999967 L194.4399999999996,26.400999999999954 C194.35999999999967,26.192999999999984 194.28999999999996,26.057999999999993 194.23999999999978,25.995000000000005 C194.1800000000003,25.932999999999993 194.10999999999967,25.895999999999958 194.02000000000044,25.885999999999967 L194.02000000000044,25.775999999999954 L195.44999999999982,25.775999999999954 L195.44999999999982,25.885999999999967 C195.3100000000004,25.90700000000004 195.21000000000004,25.934999999999945 195.15999999999985,25.97199999999998 C195.10999999999967,26.008000000000038 195.07999999999993,26.067999999999984 195.07999999999993,26.150999999999954 C195.07999999999993,26.235000000000014 195.10000000000036,26.317999999999984 195.1300000000001,26.400999999999954 L195.92000000000007,28.479000000000042 L196.64000000000033,26.885999999999967 M199.65999999999985,28.57299999999998 C199.65999999999985,28.479000000000042 199.67000000000007,28.394000000000005 199.6899999999996,28.315000000000055 C199.71000000000004,28.236999999999966 199.75,28.162000000000035 199.80000000000018,28.089000000000055 C199.85000000000036,28.015999999999963 199.89999999999964,27.951000000000022 199.94999999999982,27.894000000000005 C200.01000000000022,27.836000000000013 200.07999999999993,27.775999999999954 200.17000000000007,27.714000000000055 C200.27000000000044,27.650999999999954 200.35000000000036,27.599000000000046 200.40999999999985,27.557999999999993 C200.47000000000025,27.515999999999963 200.5600000000004,27.46900000000005 200.6899999999996,27.41700000000003 C200.8100000000004,27.36500000000001 200.90999999999985,27.32299999999998 200.97999999999956,27.29200000000003 C201.05000000000018,27.260999999999967 201.15999999999985,27.216000000000008 201.3100000000004,27.158999999999992 C201.46000000000004,27.101999999999975 201.5600000000004,27.057999999999993 201.6300000000001,27.025999999999954 L201.6300000000001,26.54200000000003 C201.6300000000001,26.104000000000042 201.4300000000003,25.885999999999967 201.02999999999975,25.885999999999967 C200.8699999999999,25.885999999999967 200.72999999999956,25.924999999999955 200.6199999999999,26.003000000000043 C200.51000000000022,26.081000000000017 200.44999999999982,26.172000000000025 200.44999999999982,26.275999999999954 C200.44999999999982,26.317999999999984 200.46000000000004,26.375 200.47999999999956,26.44799999999998 C200.48999999999978,26.520999999999958 200.5,26.567999999999984 200.5,26.589000000000055 C200.5,26.682999999999993 200.47000000000025,26.763000000000034 200.39000000000033,26.831000000000017 C200.3199999999997,26.899 200.22999999999956,26.932999999999993 200.1300000000001,26.932999999999993 C200.02999999999975,26.932999999999993 199.94999999999982,26.899 199.8800000000001,26.831000000000017 C199.8199999999997,26.763000000000034 199.77999999999975,26.682999999999993 199.77999999999975,26.589000000000055 C199.77999999999975,26.339000000000055 199.90999999999985,26.128000000000043 200.17000000000007,25.956000000000017 C200.4300000000003,25.783999999999992 200.75,25.69799999999998 201.1300000000001,25.69799999999998 C201.55000000000018,25.69799999999998 201.85000000000036,25.80200000000002 202.01000000000022,26.010999999999967 C202.17000000000007,26.21900000000005 202.25,26.537000000000035 202.25,26.964000000000055 L202.25,28.510999999999967 C202.25,28.687999999999988 202.27000000000044,28.809999999999945 202.3100000000004,28.878000000000043 C202.34000000000015,28.946000000000026 202.40999999999985,28.979000000000042 202.5,28.979000000000042 C202.60999999999967,28.979000000000042 202.72000000000025,28.92700000000002 202.85000000000036,28.82299999999998 L202.85000000000036,29.04200000000003 C202.71000000000004,29.19799999999998 202.59000000000015,29.30499999999995 202.48999999999978,29.361999999999966 C202.3800000000001,29.41999999999996 202.26000000000022,29.44799999999998 202.1300000000001,29.44799999999998 C201.97000000000025,29.44799999999998 201.85999999999967,29.400999999999954 201.77999999999975,29.307999999999993 C201.71000000000004,29.214000000000055 201.65999999999985,29.062999999999988 201.64000000000033,28.854000000000042 C201.1800000000003,29.25 200.80000000000018,29.44799999999998 200.48999999999978,29.44799999999998 C200.25,29.44799999999998 200.05000000000018,29.366999999999962 199.89000000000033,29.206000000000017 C199.73999999999978,29.04499999999996 199.65999999999985,28.833999999999946 199.65999999999985,28.57299999999998 M201.6300000000001,28.370000000000005 L201.6300000000001,27.214000000000055 C201.14999999999964,27.390999999999963 200.8100000000004,27.562999999999988 200.6300000000001,27.729000000000042 C200.4399999999996,27.895999999999958 200.35000000000036,28.09400000000005 200.35000000000036,28.32299999999998 C200.35000000000036,28.54200000000003 200.39999999999964,28.702999999999975 200.5,28.807999999999993 C200.60999999999967,28.912000000000035 200.72000000000025,28.964000000000055 200.85000000000036,28.964000000000055 C201.02000000000044,28.964000000000055 201.22000000000025,28.90700000000004 201.42000000000007,28.79200000000003 C201.51000000000022,28.74000000000001 201.5600000000004,28.687999999999988 201.59000000000015,28.635999999999967 C201.60999999999967,28.583999999999946 201.6300000000001,28.495000000000005 201.6300000000001,28.370000000000005 M205.3100000000004,26.44799999999998 C205.22999999999956,26.44799999999998 205.1300000000001,26.400999999999954 205.01000000000022,26.307999999999993 C204.89000000000033,26.214000000000055 204.8100000000004,26.16700000000003 204.77999999999975,26.16700000000003 C204.6800000000003,26.16700000000003 204.5600000000004,26.245000000000005 204.42000000000007,26.400999999999954 C204.28999999999996,26.557999999999993 204.22000000000025,26.702999999999975 204.22000000000025,26.839000000000055 L204.22000000000025,28.650999999999954 C204.22000000000025,28.879999999999995 204.26000000000022,29.033999999999992 204.35000000000036,29.111999999999966 C204.4399999999996,29.190000000000055 204.6199999999999,29.235000000000014 204.89000000000033,29.245000000000005 L204.89000000000033,29.370000000000005 L202.97000000000025,29.370000000000005 L202.97000000000025,29.245000000000005 C203.22999999999956,29.202999999999975 203.39000000000033,29.150999999999954 203.44999999999982,29.089000000000055 C203.5,29.025999999999954 203.52999999999975,28.895999999999958 203.52999999999975,28.69799999999998 L203.52999999999975,26.682999999999993 C203.52999999999975,26.504999999999995 203.51000000000022,26.379999999999995 203.47999999999956,26.307999999999993 C203.4399999999996,26.235000000000014 203.3699999999999,26.19799999999998 203.27000000000044,26.19799999999998 C203.1800000000003,26.19799999999998 203.09000000000015,26.208999999999946 202.98999999999978,26.229000000000042 L202.98999999999978,26.104000000000042 C203.40999999999985,25.96900000000005 203.8100000000004,25.833999999999946 204.17000000000007,25.69799999999998 L204.22000000000025,25.714000000000055 L204.22000000000025,26.41700000000003 C204.42000000000007,26.145999999999958 204.57999999999993,25.958999999999946 204.72000000000025,25.854000000000042 C204.85999999999967,25.75 205.01000000000022,25.69799999999998 205.17000000000007,25.69799999999998 C205.3199999999997,25.69799999999998 205.4300000000003,25.73199999999997 205.5,25.799999999999955 C205.5699999999997,25.866999999999962 205.60999999999967,25.96900000000005 205.60999999999967,26.104000000000042 C205.60999999999967,26.208999999999946 205.57999999999993,26.29200000000003 205.52999999999975,26.354000000000042 C205.47999999999956,26.41700000000003 205.40999999999985,26.44799999999998 205.3100000000004,26.44799999999998 M208.30000000000018,24.729000000000042 C208.22000000000025,24.729000000000042 208.14000000000033,24.69799999999998 208.07999999999993,24.635999999999967 C208.02000000000044,24.57299999999998 207.97000000000025,24.504999999999995 207.9300000000003,24.432999999999993 C207.89000000000033,24.360000000000014 207.84000000000015,24.29200000000003 207.77000000000044,24.229000000000042 C207.6899999999996,24.16700000000003 207.60999999999967,24.135999999999967 207.52000000000044,24.135999999999967 C207.22000000000025,24.135999999999967 207.0600000000004,24.370000000000005 207.0600000000004,24.839000000000055 L207.0600000000004,25.775999999999954 L208.05000000000018,25.775999999999954 L208.05000000000018,26.010999999999967 L207.0600000000004,26.010999999999967 L207.0600000000004,28.54200000000003 C207.0600000000004,28.833999999999946 207.10999999999967,29.020999999999958 207.1899999999996,29.104000000000042 C207.27000000000044,29.187999999999988 207.47999999999956,29.235000000000014 207.8100000000004,29.245000000000005 L207.8100000000004,29.370000000000005 L205.72000000000025,29.370000000000005 L205.72000000000025,29.245000000000005 C206.01000000000022,29.235000000000014 206.19999999999982,29.187999999999988 206.27999999999975,29.104000000000042 C206.35000000000036,29.020999999999958 206.39000000000033,28.833999999999946 206.39000000000033,28.54200000000003 L206.39000000000033,26.010999999999967 L205.73999999999978,26.010999999999967 L205.73999999999978,25.775999999999954 L206.39000000000033,25.775999999999954 C206.39999999999964,25.172000000000025 206.51000000000022,24.706000000000017 206.72999999999956,24.378000000000043 C206.9399999999996,24.049999999999955 207.30000000000018,23.885999999999967 207.80000000000018,23.885999999999967 C208.03999999999996,23.885999999999967 208.23999999999978,23.934999999999945 208.39000000000033,24.033999999999992 C208.55000000000018,24.133000000000038 208.6300000000001,24.254999999999995 208.6300000000001,24.400999999999954 C208.6300000000001,24.495000000000005 208.60000000000036,24.57299999999998 208.52999999999975,24.635999999999967 C208.47000000000025,24.69799999999998 208.39000000000033,24.729000000000042 208.30000000000018,24.729000000000042 M216.0,24.79200000000003 L213.94999999999982,29.370000000000005 L213.85000000000036,29.370000000000005 L211.85000000000036,24.979000000000042 L211.85000000000036,28.19799999999998 C211.85000000000036,28.604000000000042 211.89000000000033,28.873000000000047 211.98999999999978,29.003000000000043 C212.07999999999993,29.133000000000038 212.27999999999975,29.202999999999975 212.60000000000036,29.214000000000055 L212.60000000000036,29.370000000000005 L210.72000000000025,29.370000000000005 L210.72000000000025,29.214000000000055 C211.03999999999996,29.192999999999984 211.25,29.120000000000005 211.35000000000036,28.995000000000005 C211.4399999999996,28.870000000000005 211.48999999999978,28.604000000000042 211.48999999999978,28.19799999999998 L211.48999999999978,24.94799999999998 C211.48999999999978,24.65700000000004 211.4399999999996,24.46900000000005 211.35000000000036,24.385999999999967 C211.26000000000022,24.30200000000002 211.0600000000004,24.25 210.73999999999978,24.229000000000042 L210.73999999999978,24.07299999999998 L212.3100000000004,24.07299999999998 L214.15999999999985,28.120000000000005 L215.92000000000007,24.07299999999998 L217.52000000000044,24.07299999999998 L217.52000000000044,24.229000000000042 C217.22000000000025,24.260999999999967 217.02999999999975,24.317999999999984 216.94999999999982,24.400999999999954 C216.8699999999999,24.485000000000014 216.82999999999993,24.66700000000003 216.82999999999993,24.94799999999998 L216.82999999999993,28.495000000000005 C216.82999999999993,28.775999999999954 216.8699999999999,28.961000000000013 216.94999999999982,29.049999999999955 C217.03999999999996,29.138000000000034 217.22999999999956,29.192999999999984 217.52000000000044,29.214000000000055 L217.52000000000044,29.370000000000005 L215.27999999999975,29.370000000000005 L215.27999999999975,29.214000000000055 C215.60000000000036,29.192999999999984 215.78999999999996,29.135999999999967 215.8800000000001,29.04200000000003 C215.96000000000004,28.94799999999998 216.0,28.74000000000001 216.0,28.41700000000003 L216.0,24.79200000000003 M221.48999999999978,28.94799999999998 L221.48999999999978,29.07299999999998 C221.0699999999997,29.187999999999988 220.69999999999982,29.312999999999988 220.39000000000033,29.44799999999998 L220.35999999999967,29.432999999999993 L220.35000000000036,28.745000000000005 C220.32999999999993,28.765999999999963 220.28999999999996,28.815000000000055 220.21000000000004,28.894000000000005 C220.1300000000001,28.97199999999998 220.07999999999993,29.025999999999954 220.05000000000018,29.057999999999993 C220.02000000000044,29.089000000000055 219.96000000000004,29.135999999999967 219.8800000000001,29.19799999999998 C219.8100000000004,29.260999999999967 219.73999999999978,29.30499999999995 219.6800000000003,29.331000000000017 C219.6199999999999,29.35699999999997 219.55000000000018,29.383000000000038 219.46000000000004,29.408999999999992 C219.3699999999999,29.434999999999945 219.27999999999975,29.44799999999998 219.1899999999996,29.44799999999998 C218.89999999999964,29.44799999999998 218.65999999999985,29.351999999999975 218.48999999999978,29.158999999999992 C218.3100000000004,28.966000000000008 218.22000000000025,28.714000000000055 218.22000000000025,28.400999999999954 L218.22000000000025,26.385999999999967 C218.22000000000025,26.208999999999946 218.1899999999996,26.083999999999946 218.1199999999999,26.010999999999967 C218.05000000000018,25.937999999999988 217.92000000000007,25.895999999999958 217.72000000000025,25.885999999999967 L217.72000000000025,25.775999999999954 L218.89000000000033,25.775999999999954 L218.89000000000033,28.370000000000005 C218.89000000000033,28.525999999999954 218.94999999999982,28.663999999999987 219.0600000000004,28.783999999999992 C219.1800000000003,28.903999999999996 219.3100000000004,28.964000000000055 219.44999999999982,28.964000000000055 C219.52000000000044,28.964000000000055 219.59000000000015,28.956000000000017 219.67000000000007,28.940000000000055 C219.73999999999978,28.924999999999955 219.82999999999993,28.895999999999958 219.9399999999996,28.854000000000042 C220.03999999999996,28.812999999999988 220.1300000000001,28.741999999999962 220.19999999999982,28.644000000000005 C220.27999999999975,28.54499999999996 220.3100000000004,28.422000000000025 220.3100000000004,28.275999999999954 L220.3100000000004,26.400999999999954 C220.3100000000004,26.214000000000055 220.27999999999975,26.086000000000013 220.19999999999982,26.019000000000005 C220.1300000000001,25.951000000000022 219.97000000000025,25.912000000000035 219.72000000000025,25.900999999999954 L219.72000000000025,25.775999999999954 L220.98999999999978,25.775999999999954 L220.98999999999978,28.495000000000005 C220.98999999999978,28.682999999999993 221.02000000000044,28.80499999999995 221.07999999999993,28.861999999999966 C221.14000000000033,28.91999999999996 221.27000000000044,28.94799999999998 221.44999999999982,28.94799999999998 L221.48999999999978,28.94799999999998 M223.6899999999996,25.854000000000042 C223.69999999999982,25.854000000000042 223.73999999999978,25.827999999999975 223.8100000000004,25.775999999999954 L223.90999999999985,25.775999999999954 L223.9399999999996,26.854000000000042 L223.8100000000004,26.854000000000042 C223.72999999999956,26.5 223.6199999999999,26.248000000000047 223.48999999999978,26.09699999999998 C223.35000000000036,25.946000000000026 223.17000000000007,25.870000000000005 222.9399999999996,25.870000000000005 C222.76000000000022,25.870000000000005 222.6199999999999,25.922000000000025 222.5,26.025999999999954 C222.39000000000033,26.129999999999995 222.32999999999993,26.260999999999967 222.32999999999993,26.41700000000003 C222.32999999999993,26.645999999999958 222.4399999999996,26.827999999999975 222.67000000000007,26.964000000000055 L223.52999999999975,27.479000000000042 C223.77000000000044,27.625 223.9399999999996,27.770999999999958 224.05000000000018,27.91700000000003 C224.14999999999964,28.062999999999988 224.19999999999982,28.235000000000014 224.19999999999982,28.432999999999993 C224.19999999999982,28.702999999999975 224.09000000000015,28.940000000000055 223.8699999999999,29.144000000000005 C223.64000000000033,29.34699999999998 223.3800000000001,29.44799999999998 223.07999999999993,29.44799999999998 C222.9399999999996,29.44799999999998 222.76000000000022,29.424999999999955 222.53999999999996,29.378000000000043 C222.3199999999997,29.331000000000017 222.1800000000003,29.307999999999993 222.1300000000001,29.307999999999993 C222.03999999999996,29.307999999999993 221.97999999999956,29.339000000000055 221.9399999999996,29.400999999999954 L221.82999999999993,29.400999999999954 L221.82999999999993,28.150999999999954 L221.97000000000025,28.150999999999954 C222.05000000000018,28.525999999999954 222.14999999999964,28.79200000000003 222.27000000000044,28.94799999999998 C222.4300000000003,29.16700000000003 222.67000000000007,29.275999999999954 222.98999999999978,29.275999999999954 C223.1800000000003,29.275999999999954 223.34000000000015,29.224000000000046 223.46000000000004,29.120000000000005 C223.57999999999993,29.015999999999963 223.64000000000033,28.875 223.64000000000033,28.69799999999998 C223.64000000000033,28.458999999999946 223.5,28.260999999999967 223.22000000000025,28.104000000000042 L222.77000000000044,27.839000000000055 C222.42000000000007,27.640999999999963 222.1800000000003,27.456000000000017 222.03999999999996,27.283999999999992 C221.89999999999964,27.111999999999966 221.82999999999993,26.912000000000035 221.82999999999993,26.682999999999993 C221.82999999999993,26.390999999999963 221.9300000000003,26.153999999999996 222.1300000000001,25.97199999999998 C222.34000000000015,25.788999999999987 222.60000000000036,25.69799999999998 222.92000000000007,25.69799999999998 C223.09000000000015,25.69799999999998 223.25,25.724000000000046 223.40999999999985,25.775999999999954 C223.5600000000004,25.827999999999975 223.65999999999985,25.854000000000042 223.6899999999996,25.854000000000042 M224.97000000000025,26.229000000000042 C224.85000000000036,26.229000000000042 224.72999999999956,26.235000000000014 224.6300000000001,26.245000000000005 L224.6300000000001,26.135999999999967 C225.0,26.03200000000004 225.42000000000007,25.885999999999967 225.8800000000001,25.69799999999998 L225.90999999999985,25.714000000000055 L225.90999999999985,28.557999999999993 C225.90999999999985,28.839000000000055 225.9399999999996,29.019000000000005 226.01000000000022,29.09699999999998 C226.07999999999993,29.174999999999955 226.23999999999978,29.224000000000046 226.5,29.245000000000005 L226.5,29.370000000000005 L224.60000000000036,29.370000000000005 L224.60000000000036,29.245000000000005 C224.8800000000001,29.235000000000014 225.05000000000018,29.187999999999988 225.1300000000001,29.104000000000042 C225.19999999999982,29.020999999999958 225.23999999999978,28.839000000000055 225.23999999999978,28.557999999999993 L225.23999999999978,26.69799999999998 C225.23999999999978,26.520999999999958 225.22000000000025,26.399 225.17000000000007,26.331000000000017 C225.1300000000001,26.263000000000034 225.0600000000004,26.229000000000042 224.97000000000025,26.229000000000042 M225.5,23.900999999999954 C225.6199999999999,23.900999999999954 225.72000000000025,23.942999999999984 225.80000000000018,24.025999999999954 C225.8800000000001,24.110000000000014 225.92000000000007,24.208999999999946 225.92000000000007,24.32299999999998 C225.92000000000007,24.437999999999988 225.8800000000001,24.533999999999992 225.80000000000018,24.611999999999966 C225.72000000000025,24.690000000000055 225.6199999999999,24.729000000000042 225.5,24.729000000000042 C225.39000000000033,24.729000000000042 225.28999999999996,24.687999999999988 225.21000000000004,24.604000000000042 C225.1300000000001,24.520999999999958 225.10000000000036,24.424999999999955 225.10000000000036,24.315000000000055 C225.10000000000036,24.206000000000017 225.1300000000001,24.110000000000014 225.21000000000004,24.025999999999954 C225.28999999999996,23.942999999999984 225.39000000000033,23.900999999999954 225.5,23.900999999999954 M226.89000000000033,27.66700000000003 C226.89000000000033,27.07299999999998 227.0699999999997,26.59699999999998 227.42000000000007,26.236999999999966 C227.76000000000022,25.878000000000043 228.17000000000007,25.69799999999998 228.64000000000033,25.69799999999998 C228.97999999999956,25.69799999999998 229.26000000000022,25.778999999999996 229.48999999999978,25.940000000000055 C229.72999999999956,26.101999999999975 229.85000000000036,26.297000000000025 229.85000000000036,26.525999999999954 C229.85000000000036,26.610000000000014 229.8100000000004,26.684999999999945 229.73999999999978,26.753000000000043 C229.65999999999985,26.821000000000026 229.5699999999997,26.854000000000042 229.47000000000025,26.854000000000042 C229.28999999999996,26.854000000000042 229.17000000000007,26.735000000000014 229.10999999999967,26.495000000000005 L229.0600000000004,26.32299999999998 C229.02000000000044,26.16700000000003 228.97000000000025,26.062999999999988 228.90999999999985,26.010999999999967 C228.85000000000036,25.958999999999946 228.73999999999978,25.932999999999993 228.60000000000036,25.932999999999993 C228.27000000000044,25.932999999999993 228.01000000000022,26.059999999999945 227.8100000000004,26.315000000000055 C227.6199999999999,26.571000000000026 227.52000000000044,26.90700000000004 227.52000000000044,27.32299999999998 C227.52000000000044,27.770999999999958 227.6300000000001,28.140999999999963 227.85999999999967,28.432999999999993 C228.09000000000015,28.724000000000046 228.39000000000033,28.870000000000005 228.75,28.870000000000005 C228.97000000000025,28.870000000000005 229.15999999999985,28.812999999999988 229.3199999999997,28.69799999999998 C229.47999999999956,28.583999999999946 229.65999999999985,28.390999999999963 229.85000000000036,28.120000000000005 L229.94999999999982,28.182999999999993 C229.89999999999964,28.297000000000025 229.85999999999967,28.388000000000034 229.8199999999997,28.456000000000017 C229.78999999999996,28.524 229.72000000000025,28.628000000000043 229.60999999999967,28.769000000000005 C229.51000000000022,28.908999999999992 229.40999999999985,29.020999999999958 229.3100000000004,29.104000000000042 C229.21000000000004,29.187999999999988 229.07999999999993,29.265999999999963 228.92000000000007,29.339000000000055 C228.75,29.412000000000035 228.57999999999993,29.44799999999998 228.40999999999985,29.44799999999998 C227.97000000000025,29.44799999999998 227.60999999999967,29.28200000000004 227.3199999999997,28.94799999999998 C227.03999999999996,28.61500000000001 226.89000000000033,28.187999999999988 226.89000000000033,27.66700000000003 M231.23999999999978,28.57299999999998 C231.35000000000036,28.57299999999998 231.44999999999982,28.616999999999962 231.53999999999996,28.706000000000017 C231.6300000000001,28.79499999999996 231.67000000000007,28.900999999999954 231.67000000000007,29.025999999999954 C231.67000000000007,29.140999999999963 231.6300000000001,29.241999999999962 231.53999999999996,29.331000000000017 C231.44999999999982,29.41999999999996 231.35000000000036,29.464000000000055 231.22000000000025,29.464000000000055 C231.10999999999967,29.464000000000055 231.01000000000022,29.41999999999996 230.92000000000007,29.331000000000017 C230.84000000000015,29.241999999999962 230.80000000000018,29.140999999999963 230.80000000000018,29.025999999999954 C230.80000000000018,28.900999999999954 230.84000000000015,28.79499999999996 230.9300000000003,28.706000000000017 C231.02000000000044,28.616999999999962 231.1199999999999,28.57299999999998 231.23999999999978,28.57299999999998" />
</svg>
