<?xml version="1.0" encoding="UTF-8" standalone="yes"?>
<svg width="256.0px" height="256.0px" xmlns="http://www.w3.org/2000/svg" xmlns:xlink="http://www.w3.org/1999/xlink" version="1.2" baseProfile="tiny">
<path d="M174.1300000000001,30.79200000000003 C173.99,30.69799999999998 173.8499999999999,30.591000000000008 173.70000000000005,30.47199999999998 C173.54999999999995,30.351999999999975 173.3800000000001,30.184999999999945 173.19000000000005,29.97199999999998 C173.0,29.758000000000038 172.83999999999992,29.53200000000004 172.69000000000005,29.29200000000003 C172.54999999999995,29.05200000000002 172.43000000000006,28.760999999999967 172.32999999999993,28.41700000000003 C172.24,28.07299999999998 172.19000000000005,27.71900000000005 172.19000000000005,27.354000000000042 C172.19000000000005,26.96900000000005 172.24,26.604000000000042 172.32999999999993,26.260999999999967 C172.43000000000006,25.91700000000003 172.53999999999996,25.633000000000038 172.68000000000006,25.408999999999992 C172.80999999999995,25.184999999999945 172.98000000000002,24.966000000000008 173.18000000000006,24.753000000000043 C173.3900000000001,24.538999999999987 173.55999999999995,24.383000000000038 173.69000000000005,24.283999999999992 C173.82999999999993,24.184999999999945 173.98000000000002,24.077999999999975 174.1400000000001,23.964000000000055 L174.22000000000003,24.089000000000055 C173.99,24.287000000000035 173.80999999999995,24.461000000000013 173.66000000000008,24.611999999999966 C173.51,24.763000000000034 173.3699999999999,24.964000000000055 173.24,25.214000000000055 C173.0999999999999,25.464000000000055 173.01,25.760999999999967 172.95000000000005,26.104000000000042 C172.8900000000001,26.44799999999998 172.8599999999999,26.860000000000014 172.8599999999999,27.339000000000055 C172.8599999999999,27.827999999999975 172.8900000000001,28.253000000000043 172.95000000000005,28.611999999999966 C173.01,28.97199999999998 173.0999999999999,29.275999999999954 173.24,29.525999999999954 C173.3699999999999,29.775999999999954 173.51,29.98199999999997 173.66000000000008,30.144000000000005 C173.80999999999995,30.30499999999995 173.99,30.474000000000046 174.22000000000003,30.650999999999954 L174.1300000000001,30.79200000000003 M174.66000000000008,27.66700000000003 C174.66000000000008,27.07299999999998 174.83999999999992,26.59699999999998 175.18000000000006,26.236999999999966 C175.52999999999997,25.878000000000043 175.94000000000005,25.69799999999998 176.41000000000008,25.69799999999998 C176.74,25.69799999999998 177.02999999999997,25.778999999999996 177.26,25.940000000000055 C177.5,26.101999999999975 177.6099999999999,26.297000000000025 177.6099999999999,26.525999999999954 C177.6099999999999,26.610000000000014 177.57999999999993,26.684999999999945 177.5,26.753000000000043 C177.43000000000006,26.821000000000026 177.33999999999992,26.854000000000042 177.24,26.854000000000042 C177.05999999999995,26.854000000000042 176.94000000000005,26.735000000000014 176.8800000000001,26.495000000000005 L176.82999999999993,26.32299999999998 C176.78999999999996,26.16700000000003 176.74,26.062999999999988 176.68000000000006,26.010999999999967 C176.6099999999999,25.958999999999946 176.51,25.932999999999993 176.3599999999999,25.932999999999993 C176.03999999999996,25.932999999999993 175.77999999999997,26.059999999999945 175.57999999999993,26.315000000000055 C175.3800000000001,26.571000000000026 175.28999999999996,26.90700000000004 175.28999999999996,27.32299999999998 C175.28999999999996,27.770999999999958 175.4000000000001,28.140999999999963 175.6300000000001,28.432999999999993 C175.8599999999999,28.724000000000046 176.16000000000008,28.870000000000005 176.51999999999998,28.870000000000005 C176.74,28.870000000000005 176.93000000000006,28.812999999999988 177.08999999999992,28.69799999999998 C177.25,28.583999999999946 177.43000000000006,28.390999999999963 177.6099999999999,28.120000000000005 L177.72000000000003,28.182999999999993 C177.67000000000007,28.297000000000025 177.6300000000001,28.388000000000034 177.58999999999992,28.456000000000017 C177.54999999999995,28.524 177.48000000000002,28.628000000000043 177.3800000000001,28.769000000000005 C177.27999999999997,28.908999999999992 177.17000000000007,29.020999999999958 177.06999999999994,29.104000000000042 C176.98000000000002,29.187999999999988 176.8499999999999,29.265999999999963 176.68000000000006,29.339000000000055 C176.51999999999998,29.412000000000035 176.3499999999999,29.44799999999998 176.18000000000006,29.44799999999998 C175.74,29.44799999999998 175.3800000000001,29.28200000000004 175.08999999999992,28.94799999999998 C174.79999999999995,28.61500000000001 174.66000000000008,28.187999999999988 174.66000000000008,27.66700000000003 M178.32999999999993,23.964000000000055 C178.48000000000002,24.047000000000025 178.6199999999999,24.149 178.76999999999998,24.269000000000005 C178.92000000000007,24.388000000000034 179.08999999999992,24.55499999999995 179.27999999999997,24.769000000000005 C179.47000000000003,24.98199999999997 179.6400000000001,25.211000000000013 179.77999999999997,25.456000000000017 C179.92000000000007,25.701000000000022 180.03999999999996,25.991999999999962 180.1400000000001,26.331000000000017 C180.24,26.66999999999996 180.28999999999996,27.025999999999954 180.28999999999996,27.400999999999954 C180.28999999999996,27.775999999999954 180.24,28.135999999999967 180.1400000000001,28.479000000000042 C180.03999999999996,28.82299999999998 179.92000000000007,29.110000000000014 179.78999999999996,29.339000000000055 C179.66000000000008,29.567999999999984 179.49,29.787000000000035 179.28999999999996,29.995000000000005 C179.07999999999993,30.202999999999975 178.91000000000008,30.360000000000014 178.77999999999997,30.464000000000055 C178.6500000000001,30.567999999999984 178.49,30.67700000000002 178.31999999999994,30.79200000000003 L178.24,30.650999999999954 C178.48000000000002,30.464000000000055 178.67000000000007,30.29200000000003 178.81999999999994,30.135999999999967 C178.96000000000004,29.979000000000042 179.0999999999999,29.778999999999996 179.23000000000002,29.533999999999992 C179.3599999999999,29.288999999999987 179.45000000000005,28.995000000000005 179.51,28.650999999999954 C179.56999999999994,28.307999999999993 179.5999999999999,27.895999999999958 179.5999999999999,27.41700000000003 C179.5999999999999,26.92700000000002 179.56999999999994,26.503000000000043 179.51,26.144000000000005 C179.45000000000005,25.783999999999992 179.3599999999999,25.476999999999975 179.23000000000002,25.22199999999998 C179.0999999999999,24.966000000000008 178.96000000000004,24.760999999999967 178.81999999999994,24.604000000000042 C178.67000000000007,24.44799999999998 178.48000000000002,24.275999999999954 178.24,24.089000000000055 L178.32999999999993,23.964000000000055 M184.1099999999999,24.635999999999967 C184.01,24.635999999999967 183.81999999999994,24.692999999999984 183.53999999999996,24.807999999999993 L183.53999999999996,24.69799999999998 L184.96000000000004,23.964000000000055 L185.01999999999998,23.979000000000042 L185.01999999999998,28.775999999999954 C185.01999999999998,28.974000000000046 185.06999999999994,29.101999999999975 185.17000000000007,29.158999999999992 C185.26999999999998,29.216000000000008 185.47000000000003,29.245000000000005 185.78999999999996,29.245000000000005 L185.78999999999996,29.370000000000005 L183.57999999999993,29.370000000000005 L183.57999999999993,29.245000000000005 C183.8800000000001,29.235000000000014 184.08999999999992,29.190000000000055 184.19000000000005,29.111999999999966 C184.29999999999995,29.033999999999992 184.3499999999999,28.870000000000005 184.3499999999999,28.620000000000005 L184.3499999999999,25.010999999999967 C184.3499999999999,24.760999999999967 184.26999999999998,24.635999999999967 184.1099999999999,24.635999999999967 M187.0999999999999,29.54200000000003 L187.07999999999993,29.385999999999967 C187.69000000000005,29.28200000000004 188.20000000000005,29.024 188.6199999999999,28.611999999999966 C189.03999999999996,28.201000000000022 189.33999999999992,27.66700000000003 189.5,27.010999999999967 C189.1099999999999,27.32299999999998 188.71000000000004,27.479000000000042 188.29999999999995,27.479000000000042 C187.8699999999999,27.479000000000042 187.52999999999997,27.327999999999975 187.26,27.025999999999954 C187.0,26.724000000000046 186.8599999999999,26.333999999999946 186.8599999999999,25.854000000000042 C186.8599999999999,25.312999999999988 187.01999999999998,24.860000000000014 187.33999999999992,24.495000000000005 C187.66000000000008,24.129999999999995 188.05999999999995,23.94799999999998 188.53999999999996,23.94799999999998 C189.06999999999994,23.94799999999998 189.5,24.158999999999992 189.82999999999993,24.581000000000017 C190.17000000000007,25.003000000000043 190.32999999999993,25.547000000000025 190.32999999999993,26.214000000000055 C190.32999999999993,26.432999999999993 190.30999999999995,26.653999999999996 190.27999999999997,26.878000000000043 C190.24,27.101999999999975 190.16000000000008,27.366999999999962 190.01999999999998,27.674999999999955 C189.8800000000001,27.98199999999997 189.70000000000005,28.254999999999995 189.48000000000002,28.495000000000005 C189.26,28.735000000000014 188.94000000000005,28.952999999999975 188.53999999999996,29.150999999999954 C188.1300000000001,29.349000000000046 187.6500000000001,29.479000000000042 187.0999999999999,29.54200000000003 M188.5999999999999,27.120000000000005 C188.70000000000005,27.120000000000005 188.81999999999994,27.10699999999997 188.94000000000005,27.081000000000017 C189.06999999999994,27.05499999999995 189.19000000000005,26.991999999999962 189.31999999999994,26.894000000000005 C189.45000000000005,26.79499999999996 189.51999999999998,26.672000000000025 189.51999999999998,26.525999999999954 L189.51999999999998,26.214000000000055 C189.51999999999998,24.860000000000014 189.17000000000007,24.182999999999993 188.47000000000003,24.182999999999993 C188.30999999999995,24.182999999999993 188.16000000000008,24.226999999999975 188.03999999999996,24.315000000000055 C187.92000000000007,24.403999999999996 187.83999999999992,24.520999999999958 187.77999999999997,24.66700000000003 C187.72000000000003,24.812999999999988 187.68000000000006,24.958999999999946 187.6400000000001,25.104000000000042 C187.6099999999999,25.25 187.5999999999999,25.40700000000004 187.5999999999999,25.57299999999998 C187.5999999999999,26.05200000000002 187.69000000000005,26.42999999999995 187.8699999999999,26.706000000000017 C188.04999999999995,26.98199999999997 188.29999999999995,27.120000000000005 188.5999999999999,27.120000000000005 M192.68000000000006,29.479000000000042 C192.1300000000001,29.479000000000042 191.70000000000005,29.265999999999963 191.3699999999999,28.839000000000055 C191.03999999999996,28.412000000000035 190.8800000000001,27.84400000000005 190.8800000000001,27.135999999999967 C190.8800000000001,26.91700000000003 190.9000000000001,26.692999999999984 190.95000000000005,26.464000000000055 C191.0,26.235000000000014 191.08999999999992,25.97199999999998 191.23000000000002,25.674999999999955 C191.3699999999999,25.378000000000043 191.55999999999995,25.111999999999966 191.78999999999996,24.878000000000043 C192.02999999999997,24.644000000000005 192.3499999999999,24.434999999999945 192.76,24.253000000000043 C193.17000000000007,24.071000000000026 193.6500000000001,23.952999999999975 194.19000000000005,23.900999999999954 L194.21000000000004,24.025999999999954 C193.56999999999994,24.129999999999995 193.03999999999996,24.385999999999967 192.6199999999999,24.79200000000003 C192.20000000000005,25.19799999999998 191.93000000000006,25.702999999999975 191.81999999999994,26.307999999999993 C192.06999999999994,26.162000000000035 192.26,26.067999999999984 192.3900000000001,26.025999999999954 C192.51999999999998,25.985000000000014 192.67000000000007,25.964000000000055 192.8499999999999,25.964000000000055 C193.31999999999994,25.964000000000055 193.69000000000005,26.111999999999966 193.97000000000003,26.408999999999992 C194.24,26.706000000000017 194.3800000000001,27.104000000000042 194.3800000000001,27.604000000000042 C194.3800000000001,28.15700000000004 194.22000000000003,28.60699999999997 193.9000000000001,28.956000000000017 C193.58999999999992,29.30499999999995 193.18000000000006,29.479000000000042 192.68000000000006,29.479000000000042 M192.54999999999995,26.32299999999998 C192.19000000000005,26.32299999999998 191.94000000000005,26.400999999999954 191.80999999999995,26.557999999999993 C191.68000000000006,26.714000000000055 191.6099999999999,26.94799999999998 191.6099999999999,27.260999999999967 C191.6099999999999,27.875 191.72000000000003,28.360000000000014 191.93000000000006,28.714000000000055 C192.1300000000001,29.067999999999984 192.41000000000008,29.245000000000005 192.75,29.245000000000005 C193.04999999999995,29.245000000000005 193.26,29.128000000000043 193.41000000000008,28.894000000000005 C193.55999999999995,28.658999999999992 193.6300000000001,28.32299999999998 193.6300000000001,27.885999999999967 C193.6300000000001,27.385999999999967 193.53999999999996,27.0 193.3499999999999,26.729000000000042 C193.16000000000008,26.458999999999946 192.8900000000001,26.32299999999998 192.54999999999995,26.32299999999998 M196.93000000000006,26.400999999999954 C197.42000000000007,26.754999999999995 197.75,27.05200000000002 197.92000000000007,27.29200000000003 C198.08999999999992,27.53200000000004 198.18000000000006,27.807999999999993 198.18000000000006,28.120000000000005 C198.18000000000006,28.537000000000035 198.02999999999997,28.866999999999962 197.75,29.111999999999966 C197.46000000000004,29.35699999999997 197.07999999999993,29.479000000000042 196.5999999999999,29.479000000000042 C196.1400000000001,29.479000000000042 195.76999999999998,29.35699999999997 195.48000000000002,29.111999999999966 C195.19000000000005,28.866999999999962 195.04999999999995,28.547000000000025 195.04999999999995,28.150999999999954 C195.04999999999995,27.879999999999995 195.1199999999999,27.653999999999996 195.25,27.47199999999998 C195.3800000000001,27.288999999999987 195.66000000000008,27.037000000000035 196.0999999999999,26.714000000000055 C195.67000000000007,26.339000000000055 195.4000000000001,26.062999999999988 195.27999999999997,25.885999999999967 C195.16000000000008,25.708999999999946 195.0999999999999,25.49000000000001 195.0999999999999,25.229000000000042 C195.0999999999999,24.86500000000001 195.24,24.559999999999945 195.52999999999997,24.315000000000055 C195.80999999999995,24.071000000000026 196.18000000000006,23.94799999999998 196.6300000000001,23.94799999999998 C197.02999999999997,23.94799999999998 197.3499999999999,24.05499999999995 197.6099999999999,24.269000000000005 C197.8599999999999,24.48199999999997 197.99,24.760999999999967 197.99,25.104000000000042 C197.99,25.375 197.91000000000008,25.604000000000042 197.75,25.79200000000003 C197.5999999999999,25.979000000000042 197.31999999999994,26.182999999999993 196.93000000000006,26.400999999999954 M196.29999999999995,26.870000000000005 C196.06999999999994,27.057999999999993 195.91000000000008,27.241999999999962 195.81999999999994,27.424999999999955 C195.72000000000003,27.60699999999997 195.68000000000006,27.827999999999975 195.68000000000006,28.089000000000055 C195.68000000000006,28.432999999999993 195.76999999999998,28.711000000000013 195.95000000000005,28.924999999999955 C196.1300000000001,29.138000000000034 196.3699999999999,29.245000000000005 196.68000000000006,29.245000000000005 C196.94000000000005,29.245000000000005 197.1500000000001,29.163999999999987 197.30999999999995,29.003000000000043 C197.47000000000003,28.841000000000008 197.54999999999995,28.629999999999995 197.54999999999995,28.370000000000005 C197.54999999999995,28.287000000000035 197.53999999999996,28.206000000000017 197.52999999999997,28.128000000000043 C197.51,28.049999999999955 197.49,27.985000000000014 197.47000000000003,27.932999999999993 C197.45000000000005,27.879999999999995 197.41000000000008,27.817999999999984 197.3599999999999,27.745000000000005 C197.29999999999995,27.672000000000025 197.25,27.616999999999962 197.22000000000003,27.581000000000017 C197.19000000000005,27.54499999999996 197.1300000000001,27.486999999999966 197.03999999999996,27.408999999999992 C196.95000000000005,27.331000000000017 196.8900000000001,27.275999999999954 196.83999999999992,27.245000000000005 C196.78999999999996,27.214000000000055 196.71000000000004,27.153999999999996 196.57999999999993,27.065000000000055 C196.46000000000004,26.976999999999975 196.3599999999999,26.912000000000035 196.29999999999995,26.870000000000005 M196.69000000000005,26.260999999999967 C196.70000000000005,26.25 196.74,26.22199999999998 196.80999999999995,26.174999999999955 C196.8800000000001,26.128000000000043 196.92000000000007,26.091000000000008 196.95000000000005,26.065000000000055 C196.98000000000002,26.038999999999987 197.01999999999998,26.0 197.07999999999993,25.94799999999998 C197.1400000000001,25.895999999999958 197.19000000000005,25.84400000000005 197.22000000000003,25.79200000000003 C197.25,25.74000000000001 197.28999999999996,25.67700000000002 197.32999999999993,25.604000000000042 C197.3699999999999,25.53200000000004 197.4000000000001,25.451000000000022 197.42000000000007,25.361999999999966 C197.43000000000006,25.274 197.44000000000005,25.182999999999993 197.44000000000005,25.089000000000055 C197.44000000000005,24.817999999999984 197.3599999999999,24.599000000000046 197.21000000000004,24.432999999999993 C197.04999999999995,24.265999999999963 196.83999999999992,24.182999999999993 196.56999999999994,24.182999999999993 C196.31999999999994,24.182999999999993 196.1099999999999,24.258000000000038 195.95000000000005,24.408999999999992 C195.78999999999996,24.559999999999945 195.71000000000004,24.75 195.71000000000004,24.979000000000042 C195.71000000000004,25.19799999999998 195.77999999999997,25.40700000000004 195.93000000000006,25.604000000000042 C196.08999999999992,25.80200000000002 196.33999999999992,26.020999999999958 196.69000000000005,26.260999999999967 M206.04999999999995,26.69799999999998 C206.04999999999995,26.937999999999988 206.01999999999998,27.172000000000025 205.97000000000003,27.400999999999954 C205.91000000000008,27.629999999999995 205.80999999999995,27.866999999999962 205.67000000000007,28.111999999999966 C205.52999999999997,28.35699999999997 205.3499999999999,28.567999999999984 205.1199999999999,28.745000000000005 C204.9000000000001,28.922000000000025 204.5999999999999,29.071000000000026 204.22000000000003,29.190000000000055 C203.8499999999999,29.309999999999945 203.43000000000006,29.370000000000005 202.96000000000004,29.370000000000005 L200.69000000000005,29.370000000000005 L200.69000000000005,29.214000000000055 C200.99,29.192999999999984 201.19000000000005,29.140999999999963 201.26999999999998,29.057999999999993 C201.3499999999999,28.974000000000046 201.3900000000001,28.787000000000035 201.3900000000001,28.495000000000005 L201.3900000000001,24.94799999999998 C201.3900000000001,24.65700000000004 201.3599999999999,24.47199999999998 201.27999999999997,24.394000000000005 C201.20000000000005,24.315000000000055 201.0,24.260999999999967 200.69000000000005,24.229000000000042 L200.69000000000005,24.07299999999998 L202.8499999999999,24.07299999999998 C203.33999999999992,24.07299999999998 203.76999999999998,24.128000000000043 204.1500000000001,24.236999999999966 C204.52999999999997,24.34699999999998 204.83999999999992,24.486999999999966 205.06999999999994,24.658999999999992 C205.30999999999995,24.831000000000017 205.5,25.037000000000035 205.6500000000001,25.275999999999954 C205.79999999999995,25.515999999999963 205.91000000000008,25.75 205.97000000000003,25.979000000000042 C206.01999999999998,26.208999999999946 206.04999999999995,26.44799999999998 206.04999999999995,26.69799999999998 M205.16000000000008,26.760999999999967 C205.16000000000008,26.53200000000004 205.1400000000001,26.309999999999945 205.0999999999999,26.09699999999998 C205.05999999999995,25.883000000000038 204.98000000000002,25.66999999999996 204.8599999999999,25.456000000000017 C204.74,25.241999999999962 204.57999999999993,25.059999999999945 204.3900000000001,24.908999999999992 C204.21000000000004,24.758000000000038 203.96000000000004,24.633000000000038 203.66000000000008,24.533999999999992 C203.3599999999999,24.434999999999945 203.01,24.385999999999967 202.6300000000001,24.385999999999967 C202.46000000000004,24.385999999999967 202.3499999999999,24.40700000000004 202.28999999999996,24.44799999999998 C202.24,24.49000000000001 202.21000000000004,24.57299999999998 202.21000000000004,24.69799999999998 L202.21000000000004,28.745000000000005 C202.21000000000004,28.870000000000005 202.24,28.956000000000017 202.28999999999996,29.003000000000043 C202.3499999999999,29.049999999999955 202.46000000000004,29.07299999999998 202.6300000000001,29.07299999999998 C204.31999999999994,29.07299999999998 205.16000000000008,28.30200000000002 205.16000000000008,26.760999999999967 M208.99,26.885999999999967 C208.8499999999999,26.458999999999946 208.75,26.190000000000055 208.67000000000007,26.081000000000017 C208.58999999999992,25.97199999999998 208.46000000000004,25.90700000000004 208.28999999999996,25.885999999999967 L208.28999999999996,25.775999999999954 L209.91000000000008,25.775999999999954 L209.91000000000008,25.885999999999967 C209.72000000000003,25.91700000000003 209.5999999999999,25.951000000000022 209.53999999999996,25.986999999999966 C209.47000000000003,26.024 209.44000000000005,26.089000000000055 209.44000000000005,26.182999999999993 C209.44000000000005,26.245000000000005 209.49,26.400999999999954 209.57999999999993,26.650999999999954 L210.25,28.44799999999998 L210.97000000000003,26.66700000000003 C211.06999999999994,26.44799999999998 211.1099999999999,26.270999999999958 211.1099999999999,26.135999999999967 C211.1099999999999,26.07299999999998 211.08999999999992,26.024 211.03999999999996,25.986999999999966 C210.98000000000002,25.951000000000022 210.8900000000001,25.91700000000003 210.75,25.885999999999967 L210.75,25.775999999999954 L211.74,25.775999999999954 L211.74,25.885999999999967 C211.66000000000008,25.91700000000003 211.5999999999999,25.956000000000017 211.56999999999994,26.003000000000043 C211.53999999999996,26.049999999999955 211.48000000000002,26.15700000000004 211.41000000000008,26.32299999999998 L210.29999999999995,29.089000000000055 C210.20000000000005,29.349000000000046 210.1199999999999,29.479000000000042 210.07999999999993,29.479000000000042 C210.03999999999996,29.479000000000042 209.98000000000002,29.36500000000001 209.8900000000001,29.135999999999967 L209.16000000000008,27.245000000000005 L208.26999999999998,29.16700000000003 C208.18000000000006,29.375 208.1099999999999,29.479000000000042 208.06999999999994,29.479000000000042 C208.02999999999997,29.479000000000042 207.96000000000004,29.36500000000001 207.8599999999999,29.135999999999967 L206.78999999999996,26.400999999999954 C206.70000000000005,26.192999999999984 206.6300000000001,26.057999999999993 206.57999999999993,25.995000000000005 C206.52999999999997,25.932999999999993 206.46000000000004,25.895999999999958 206.3599999999999,25.885999999999967 L206.3599999999999,25.775999999999954 L207.79999999999995,25.775999999999954 L207.79999999999995,25.885999999999967 C207.66000000000008,25.90700000000004 207.55999999999995,25.934999999999945 207.5,25.97199999999998 C207.45000000000005,26.008000000000038 207.43000000000006,26.067999999999984 207.43000000000006,26.150999999999954 C207.43000000000006,26.235000000000014 207.44000000000005,26.317999999999984 207.47000000000003,26.400999999999954 L208.26999999999998,28.479000000000042 L208.99,26.885999999999967 M212.0,28.57299999999998 C212.0,28.479000000000042 212.01,28.394000000000005 212.03999999999996,28.315000000000055 C212.05999999999995,28.236999999999966 212.08999999999992,28.162000000000035 212.1400000000001,28.089000000000055 C212.20000000000005,28.015999999999963 212.25,27.951000000000022 212.29999999999995,27.894000000000005 C212.3499999999999,27.836000000000013 212.43000000000006,27.775999999999954 212.51999999999998,27.714000000000055 C212.6099999999999,27.650999999999954 212.69000000000005,27.599000000000046 212.75,27.557999999999993 C212.81999999999994,27.515999999999963 212.91000000000008,27.46900000000005 213.03999999999996,27.41700000000003 C213.16000000000008,27.36500000000001 213.26,27.32299999999998 213.31999999999994,27.29200000000003 C213.3900000000001,27.260999999999967 213.5,27.216000000000008 213.6500000000001,27.158999999999992 C213.79999999999995,27.101999999999975 213.91000000000008,27.057999999999993 213.97000000000003,27.025999999999954 L213.97000000000003,26.54200000000003 C213.97000000000003,26.104000000000042 213.77999999999997,25.885999999999967 213.3800000000001,25.885999999999967 C213.21000000000004,25.885999999999967 213.06999999999994,25.924999999999955 212.97000000000003,26.003000000000043 C212.8599999999999,26.081000000000017 212.79999999999995,26.172000000000025 212.79999999999995,26.275999999999954 C212.79999999999995,26.317999999999984 212.80999999999995,26.375 212.81999999999994,26.44799999999998 C212.83999999999992,26.520999999999958 212.8499999999999,26.567999999999984 212.8499999999999,26.589000000000055 C212.8499999999999,26.682999999999993 212.80999999999995,26.763000000000034 212.74,26.831000000000017 C212.67000000000007,26.899 212.57999999999993,26.932999999999993 212.47000000000003,26.932999999999993 C212.3800000000001,26.932999999999993 212.29999999999995,26.899 212.23000000000002,26.831000000000017 C212.16000000000008,26.763000000000034 212.1300000000001,26.682999999999993 212.1300000000001,26.589000000000055 C212.1300000000001,26.339000000000055 212.26,26.128000000000043 212.51999999999998,25.956000000000017 C212.77999999999997,25.783999999999992 213.0999999999999,25.69799999999998 213.47000000000003,25.69799999999998 C213.9000000000001,25.69799999999998 214.19000000000005,25.80200000000002 214.3599999999999,26.010999999999967 C214.51999999999998,26.21900000000005 214.5999999999999,26.537000000000035 214.5999999999999,26.964000000000055 L214.5999999999999,28.510999999999967 C214.5999999999999,28.687999999999988 214.6199999999999,28.809999999999945 214.6500000000001,28.878000000000043 C214.69000000000005,28.946000000000026 214.75,28.979000000000042 214.8499999999999,28.979000000000042 C214.95000000000005,28.979000000000042 215.06999999999994,28.92700000000002 215.19000000000005,28.82299999999998 L215.19000000000005,29.04200000000003 C215.05999999999995,29.19799999999998 214.94000000000005,29.30499999999995 214.82999999999993,29.361999999999966 C214.73000000000002,29.41999999999996 214.6099999999999,29.44799999999998 214.47000000000003,29.44799999999998 C214.31999999999994,29.44799999999998 214.20000000000005,29.400999999999954 214.1300000000001,29.307999999999993 C214.05999999999995,29.214000000000055 214.01,29.062999999999988 213.99,28.854000000000042 C213.52999999999997,29.25 213.1400000000001,29.44799999999998 212.82999999999993,29.44799999999998 C212.58999999999992,29.44799999999998 212.3900000000001,29.366999999999962 212.24,29.206000000000017 C212.07999999999993,29.04499999999996 212.0,28.833999999999946 212.0,28.57299999999998 M213.97000000000003,28.370000000000005 L213.97000000000003,27.214000000000055 C213.49,27.390999999999963 213.16000000000008,27.562999999999988 212.97000000000003,27.729000000000042 C212.78999999999996,27.895999999999958 212.69000000000005,28.09400000000005 212.69000000000005,28.32299999999998 C212.69000000000005,28.54200000000003 212.74,28.702999999999975 212.8499999999999,28.807999999999993 C212.95000000000005,28.912000000000035 213.06999999999994,28.964000000000055 213.19000000000005,28.964000000000055 C213.3699999999999,28.964000000000055 213.55999999999995,28.90700000000004 213.76999999999998,28.79200000000003 C213.8499999999999,28.74000000000001 213.91000000000008,28.687999999999988 213.93000000000006,28.635999999999967 C213.96000000000004,28.583999999999946 213.97000000000003,28.495000000000005 213.97000000000003,28.370000000000005 M217.66000000000008,26.44799999999998 C217.57999999999993,26.44799999999998 217.48000000000002,26.400999999999954 217.3599999999999,26.307999999999993 C217.24,26.214000000000055 217.16000000000008,26.16700000000003 217.1300000000001,26.16700000000003 C217.02999999999997,26.16700000000003 216.91000000000008,26.245000000000005 216.76999999999998,26.400999999999954 C216.6300000000001,26.557999999999993 216.56999999999994,26.702999999999975 216.56999999999994,26.839000000000055 L216.56999999999994,28.650999999999954 C216.56999999999994,28.879999999999995 216.6099999999999,29.033999999999992 216.70000000000005,29.111999999999966 C216.78999999999996,29.190000000000055 216.97000000000003,29.235000000000014 217.24,29.245000000000005 L217.24,29.370000000000005 L215.31999999999994,29.370000000000005 L215.31999999999994,29.245000000000005 C215.57999999999993,29.202999999999975 215.74,29.150999999999954 215.78999999999996,29.089000000000055 C215.8499999999999,29.025999999999954 215.8800000000001,28.895999999999958 215.8800000000001,28.69799999999998 L215.8800000000001,26.682999999999993 C215.8800000000001,26.504999999999995 215.8599999999999,26.379999999999995 215.81999999999994,26.307999999999993 C215.78999999999996,26.235000000000014 215.72000000000003,26.19799999999998 215.6099999999999,26.19799999999998 C215.52999999999997,26.19799999999998 215.44000000000005,26.208999999999946 215.32999999999993,26.229000000000042 L215.32999999999993,26.104000000000042 C215.76,25.96900000000005 216.16000000000008,25.833999999999946 216.51999999999998,25.69799999999998 L216.56999999999994,25.714000000000055 L216.56999999999994,26.41700000000003 C216.76,26.145999999999958 216.93000000000006,25.958999999999946 217.06999999999994,25.854000000000042 C217.20000000000005,25.75 217.3499999999999,25.69799999999998 217.51999999999998,25.69799999999998 C217.67000000000007,25.69799999999998 217.77999999999997,25.73199999999997 217.8499999999999,25.799999999999955 C217.92000000000007,25.866999999999962 217.96000000000004,25.96900000000005 217.96000000000004,26.104000000000042 C217.96000000000004,26.208999999999946 217.93000000000006,26.29200000000003 217.8800000000001,26.354000000000042 C217.82999999999993,26.41700000000003 217.75,26.44799999999998 217.66000000000008,26.44799999999998 M220.6400000000001,24.729000000000042 C220.55999999999995,24.729000000000042 220.49,24.69799999999998 220.43000000000006,24.635999999999967 C220.3599999999999,24.57299999999998 220.30999999999995,24.504999999999995 220.27999999999997,24.432999999999993 C220.24,24.360000000000014 220.19000000000005,24.29200000000003 220.1099999999999,24.229000000000042 C220.03999999999996,24.16700000000003 219.96000000000004,24.135999999999967 219.8599999999999,24.135999999999967 C219.55999999999995,24.135999999999967 219.41000000000008,24.370000000000005 219.41000000000008,24.839000000000055 L219.41000000000008,25.775999999999954 L220.3900000000001,25.775999999999954 L220.3900000000001,26.010999999999967 L219.41000000000008,26.010999999999967 L219.41000000000008,28.54200000000003 C219.41000000000008,28.833999999999946 219.45000000000005,29.020999999999958 219.53999999999996,29.104000000000042 C219.6199999999999,29.187999999999988 219.82999999999993,29.235000000000014 220.16000000000008,29.245000000000005 L220.16000000000008,29.370000000000005 L218.06999999999994,29.370000000000005 L218.06999999999994,29.245000000000005 C218.3599999999999,29.235000000000014 218.53999999999996,29.187999999999988 218.6199999999999,29.104000000000042 C218.70000000000005,29.020999999999958 218.74,28.833999999999946 218.74,28.54200000000003 L218.74,26.010999999999967 L218.07999999999993,26.010999999999967 L218.07999999999993,25.775999999999954 L218.74,25.775999999999954 C218.75,25.172000000000025 218.8599999999999,24.706000000000017 219.06999999999994,24.378000000000043 C219.28999999999996,24.049999999999955 219.6400000000001,23.885999999999967 220.1400000000001,23.885999999999967 C220.3800000000001,23.885999999999967 220.57999999999993,23.934999999999945 220.74,24.033999999999992 C220.8900000000001,24.133000000000038 220.97000000000003,24.254999999999995 220.97000000000003,24.400999999999954 C220.97000000000003,24.495000000000005 220.94000000000005,24.57299999999998 220.8800000000001,24.635999999999967 C220.81999999999994,24.69799999999998 220.74,24.729000000000042 220.6400000000001,24.729000000000042 M228.3499999999999,24.79200000000003 L226.29999999999995,29.370000000000005 L226.19000000000005,29.370000000000005 L224.19000000000005,24.979000000000042 L224.19000000000005,28.19799999999998 C224.19000000000005,28.604000000000042 224.24,28.873000000000047 224.32999999999993,29.003000000000043 C224.43000000000006,29.133000000000038 224.6300000000001,29.202999999999975 224.94000000000005,29.214000000000055 L224.94000000000005,29.370000000000005 L223.06999999999994,29.370000000000005 L223.06999999999994,29.214000000000055 C223.3900000000001,29.192999999999984 223.5999999999999,29.120000000000005 223.69000000000005,28.995000000000005 C223.78999999999996,28.870000000000005 223.82999999999993,28.604000000000042 223.82999999999993,28.19799999999998 L223.82999999999993,24.94799999999998 C223.82999999999993,24.65700000000004 223.78999999999996,24.46900000000005 223.70000000000005,24.385999999999967 C223.6099999999999,24.30200000000002 223.41000000000008,24.25 223.07999999999993,24.229000000000042 L223.07999999999993,24.07299999999998 L224.66000000000008,24.07299999999998 L226.5,28.120000000000005 L228.26999999999998,24.07299999999998 L229.8599999999999,24.07299999999998 L229.8599999999999,24.229000000000042 C229.55999999999995,24.260999999999967 229.3699999999999,24.317999999999984 229.28999999999996,24.400999999999954 C229.22000000000003,24.485000000000014 229.18000000000006,24.66700000000003 229.18000000000006,24.94799999999998 L229.18000000000006,28.495000000000005 C229.18000000000006,28.775999999999954 229.22000000000003,28.961000000000013 229.29999999999995,29.049999999999955 C229.3800000000001,29.138000000000034 229.56999999999994,29.192999999999984 229.8599999999999,29.214000000000055 L229.8599999999999,29.370000000000005 L227.6300000000001,29.370000000000005 L227.6300000000001,29.214000000000055 C227.94000000000005,29.192999999999984 228.1400000000001,29.135999999999967 228.22000000000003,29.04200000000003 C228.30999999999995,28.94799999999998 228.3499999999999,28.74000000000001 228.3499999999999,28.41700000000003 L228.3499999999999,24.79200000000003 M233.82999999999993,28.94799999999998 L233.82999999999993,29.07299999999998 C233.42000000000007,29.187999999999988 233.04999999999995,29.312999999999988 232.74,29.44799999999998 L232.71000000000004,29.432999999999993 L232.69000000000005,28.745000000000005 C232.68000000000006,28.765999999999963 232.6400000000001,28.815000000000055 232.55999999999995,28.894000000000005 C232.48000000000002,28.97199999999998 232.43000000000006,29.025999999999954 232.3900000000001,29.057999999999993 C232.3599999999999,29.089000000000055 232.30999999999995,29.135999999999967 232.23000000000002,29.19799999999998 C232.1500000000001,29.260999999999967 232.08999999999992,29.30499999999995 232.02999999999997,29.331000000000017 C231.97000000000003,29.35699999999997 231.9000000000001,29.383000000000038 231.80999999999995,29.408999999999992 C231.72000000000003,29.434999999999945 231.6300000000001,29.44799999999998 231.53999999999996,29.44799999999998 C231.24,29.44799999999998 231.01,29.351999999999975 230.82999999999993,29.158999999999992 C230.66000000000008,28.966000000000008 230.56999999999994,28.714000000000055 230.56999999999994,28.400999999999954 L230.56999999999994,26.385999999999967 C230.56999999999994,26.208999999999946 230.52999999999997,26.083999999999946 230.47000000000003,26.010999999999967 C230.4000000000001,25.937999999999988 230.26,25.895999999999958 230.06999999999994,25.885999999999967 L230.06999999999994,25.775999999999954 L231.24,25.775999999999954 L231.24,28.370000000000005 C231.24,28.525999999999954 231.29999999999995,28.663999999999987 231.41000000000008,28.783999999999992 C231.52999999999997,28.903999999999996 231.66000000000008,28.964000000000055 231.79999999999995,28.964000000000055 C231.8599999999999,28.964000000000055 231.93000000000006,28.956000000000017 232.01,28.940000000000055 C232.08999999999992,28.924999999999955 232.18000000000006,28.895999999999958 232.28999999999996,28.854000000000042 C232.3900000000001,28.812999999999988 232.48000000000002,28.741999999999962 232.54999999999995,28.644000000000005 C232.6199999999999,28.54499999999996 232.66000000000008,28.422000000000025 232.66000000000008,28.275999999999954 L232.66000000000008,26.400999999999954 C232.66000000000008,26.214000000000055 232.6199999999999,26.086000000000013 232.54999999999995,26.019000000000005 C232.48000000000002,25.951000000000022 232.31999999999994,25.912000000000035 232.06999999999994,25.900999999999954 L232.06999999999994,25.775999999999954 L233.32999999999993,25.775999999999954 L233.32999999999993,28.495000000000005 C233.32999999999993,28.682999999999993 233.3599999999999,28.80499999999995 233.43000000000006,28.861999999999966 C233.49,28.91999999999996 233.6099999999999,28.94799999999998 233.79999999999995,28.94799999999998 L233.82999999999993,28.94799999999998 M236.03999999999996,25.854000000000042 C236.04999999999995,25.854000000000042 236.08999999999992,25.827999999999975 236.16000000000008,25.775999999999954 L236.25,25.775999999999954 L236.28999999999996,26.854000000000042 L236.16000000000008,26.854000000000042 C236.07999999999993,26.5 235.97000000000003,26.248000000000047 235.82999999999993,26.09699999999998 C235.70000000000005,25.946000000000026 235.51,25.870000000000005 235.28999999999996,25.870000000000005 C235.1099999999999,25.870000000000005 234.96000000000004,25.922000000000025 234.8499999999999,26.025999999999954 C234.73000000000002,26.129999999999995 234.68000000000006,26.260999999999967 234.68000000000006,26.41700000000003 C234.68000000000006,26.645999999999958 234.78999999999996,26.827999999999975 235.01999999999998,26.964000000000055 L235.8800000000001,27.479000000000042 C236.1199999999999,27.625 236.28999999999996,27.770999999999958 236.3900000000001,27.91700000000003 C236.5,28.062999999999988 236.54999999999995,28.235000000000014 236.54999999999995,28.432999999999993 C236.54999999999995,28.702999999999975 236.44000000000005,28.940000000000055 236.22000000000003,29.144000000000005 C235.99,29.34699999999998 235.73000000000002,29.44799999999998 235.43000000000006,29.44799999999998 C235.28999999999996,29.44799999999998 235.1099999999999,29.424999999999955 234.8900000000001,29.378000000000043 C234.66000000000008,29.331000000000017 234.52999999999997,29.307999999999993 234.47000000000003,29.307999999999993 C234.3900000000001,29.307999999999993 234.32999999999993,29.339000000000055 234.28999999999996,29.400999999999954 L234.18000000000006,29.400999999999954 L234.18000000000006,28.150999999999954 L234.31999999999994,28.150999999999954 C234.4000000000001,28.525999999999954 234.5,28.79200000000003 234.6099999999999,28.94799999999998 C234.77999999999997,29.16700000000003 235.01999999999998,29.275999999999954 235.32999999999993,29.275999999999954 C235.52999999999997,29.275999999999954 235.69000000000005,29.224000000000046 235.80999999999995,29.120000000000005 C235.93000000000006,29.015999999999963 235.99,28.875 235.99,28.69799999999998 C235.99,28.458999999999946 235.8499999999999,28.260999999999967 235.56999999999994,28.104000000000042 L235.1099999999999,27.839000000000055 C234.76999999999998,27.640999999999963 234.52999999999997,27.456000000000017 234.3900000000001,27.283999999999992 C234.25,27.111999999999966 234.18000000000006,26.912000000000035 234.18000000000006,26.682999999999993 C234.18000000000006,26.390999999999963 234.27999999999997,26.153999999999996 234.48000000000002,25.97199999999998 C234.68000000000006,25.788999999999987 234.95000000000005,25.69799999999998 235.26999999999998,25.69799999999998 C235.44000000000005,25.69799999999998 235.5999999999999,25.724000000000046 235.75,25.775999999999954 C235.91000000000008,25.827999999999975 236.0,25.854000000000042 236.03999999999996,25.854000000000042 M237.31999999999994,26.229000000000042 C237.19000000000005,26.229000000000042 237.07999999999993,26.235000000000014 236.97000000000003,26.245000000000005 L236.97000000000003,26.135999999999967 C237.3499999999999,26.03200000000004 237.76,25.885999999999967 238.22000000000003,25.69799999999998 L238.25,25.714000000000055 L238.25,28.557999999999993 C238.25,28.839000000000055 238.28999999999996,29.019000000000005 238.3599999999999,29.09699999999998 C238.42000000000007,29.174999999999955 238.58999999999992,29.224000000000046 238.8499999999999,29.245000000000005 L238.8499999999999,29.370000000000005 L236.94000000000005,29.370000000000005 L236.94000000000005,29.245000000000005 C237.22000000000003,29.235000000000014 237.4000000000001,29.187999999999988 237.47000000000003,29.104000000000042 C237.54999999999995,29.020999999999958 237.57999999999993,28.839000000000055 237.57999999999993,28.557999999999993 L237.57999999999993,26.69799999999998 C237.57999999999993,26.520999999999958 237.55999999999995,26.399 237.51999999999998,26.331000000000017 C237.48000000000002,26.263000000000034 237.41000000000008,26.229000000000042 237.31999999999994,26.229000000000042 M237.8499999999999,23.900999999999954 C237.96000000000004,23.900999999999954 238.05999999999995,23.942999999999984 238.1400000000001,24.025999999999954 C238.23000000000002,24.110000000000014 238.26999999999998,24.208999999999946 238.26999999999998,24.32299999999998 C238.26999999999998,24.437999999999988 238.23000000000002,24.533999999999992 238.1400000000001,24.611999999999966 C238.05999999999995,24.690000000000055 237.96000000000004,24.729000000000042 237.8499999999999,24.729000000000042 C237.73000000000002,24.729000000000042 237.6400000000001,24.687999999999988 237.55999999999995,24.604000000000042 C237.48000000000002,24.520999999999958 237.44000000000005,24.424999999999955 237.44000000000005,24.315000000000055 C237.44000000000005,24.206000000000017 237.48000000000002,24.110000000000014 237.55999999999995,24.025999999999954 C237.6400000000001,23.942999999999984 237.73000000000002,23.900999999999954 237.8499999999999,23.900999999999954 M239.24,27.66700000000003 C239.24,27.07299999999998 239.41000000000008,26.59699999999998 239.76,26.236999999999966 C240.1099999999999,25.878000000000043 240.51999999999998,25.69799999999998 240.99,25.69799999999998 C241.31999999999994,25.69799999999998 241.6099999999999,25.778999999999996 241.83999999999992,25.940000000000055 C242.06999999999994,26.101999999999975 242.19000000000005,26.297000000000025 242.19000000000005,26.525999999999954 C242.19000000000005,26.610000000000014 242.16000000000008,26.684999999999945 242.07999999999993,26.753000000000043 C242.01,26.821000000000026 241.92000000000007,26.854000000000042 241.81999999999994,26.854000000000042 C241.6400000000001,26.854000000000042 241.51999999999998,26.735000000000014 241.46000000000004,26.495000000000005 L241.41000000000008,26.32299999999998 C241.3699999999999,26.16700000000003 241.31999999999994,26.062999999999988 241.25,26.010999999999967 C241.19000000000005,25.958999999999946 241.08999999999992,25.932999999999993 240.94000000000005,25.932999999999993 C240.6199999999999,25.932999999999993 240.3599999999999,26.059999999999945 240.16000000000008,26.315000000000055 C239.96000000000004,26.571000000000026 239.8599999999999,26.90700000000004 239.8599999999999,27.32299999999998 C239.8599999999999,27.770999999999958 239.98000000000002,28.140999999999963 240.21000000000004,28.432999999999993 C240.44000000000005,28.724000000000046 240.73000000000002,28.870000000000005 241.0999999999999,28.870000000000005 C241.31999999999994,28.870000000000005 241.51,28.812999999999988 241.67000000000007,28.69799999999998 C241.82999999999993,28.583999999999946 242.0,28.390999999999963 242.19000000000005,28.120000000000005 L242.29999999999995,28.182999999999993 C242.25,28.297000000000025 242.20000000000005,28.388000000000034 242.17000000000007,28.456000000000017 C242.1300000000001,28.524 242.05999999999995,28.628000000000043 241.96000000000004,28.769000000000005 C241.8499999999999,28.908999999999992 241.75,29.020999999999958 241.6500000000001,29.104000000000042 C241.54999999999995,29.187999999999988 241.42000000000007,29.265999999999963 241.26,29.339000000000055 C241.0999999999999,29.412000000000035 240.93000000000006,29.44799999999998 240.75,29.44799999999998 C240.31999999999994,29.44799999999998 239.95000000000005,29.28200000000004 239.67000000000007,28.94799999999998 C239.3800000000001,28.61500000000001 239.24,28.187999999999988 239.24,27.66700000000003 M243.57999999999993,28.57299999999998 C243.70000000000005,28.57299999999998 243.79999999999995,28.616999999999962 243.8900000000001,28.706000000000017 C243.98000000000002,28.79499999999996 244.01999999999998,28.900999999999954 244.01999999999998,29.025999999999954 C244.01999999999998,29.140999999999963 243.98000000000002,29.241999999999962 243.8900000000001,29.331000000000017 C243.79999999999995,29.41999999999996 243.69000000000005,29.464000000000055 243.56999999999994,29.464000000000055 C243.45000000000005,29.464000000000055 243.3499999999999,29.41999999999996 243.26999999999998,29.331000000000017 C243.19000000000005,29.241999999999962 243.1400000000001,29.140999999999963 243.1400000000001,29.025999999999954 C243.1400000000001,28.900999999999954 243.19000000000005,28.79499999999996 243.27999999999997,28.706000000000017 C243.3699999999999,28.616999999999962 243.47000000000003,28.57299999999998 243.57999999999993,28.57299999999998" />
</svg>
