<?xml version="1.0" encoding="UTF-8" standalone="yes"?>
<svg width="256.0px" height="256.0px" xmlns="http://www.w3.org/2000/svg" xmlns:xlink="http://www.w3.org/1999/xlink" version="1.2" baseProfile="tiny">
<path d="M178.5,240.021 C183.79999999999927,243.655 199.79999999999927,243.655 205.10000000000036,240.021 C199.79999999999927,244.455 183.79999999999927,244.455 178.5,240.021" />
<path d="M21.700000000000728,237.096 C32.70000000000073,243.196 65.70000000000073,243.196 76.70000000000073,237.096 C65.70000000000073,243.996 32.70000000000073,243.996 21.700000000000728,237.096" />
<path d="M141.10000000000036,235.018 L141.10000000000036,236.565 C141.10000000000036,237.117 141.10000000000036,237.555 141.20000000000073,237.878 C141.60000000000036,237.513 141.89999999999964,237.242 142.10000000000036,237.065 C142.29999999999927,236.857 142.5,236.568 142.70000000000073,236.198 C142.89999999999964,235.828 143.0,235.461 143.0,235.096 C143.0,234.732 143.0,234.419 142.79999999999927,234.159 C142.70000000000073,233.899 142.39999999999964,233.768 142.20000000000073,233.768 C141.89999999999964,233.768 141.60000000000036,233.888 141.39999999999964,234.128 C141.20000000000073,234.388 141.10000000000036,234.685 141.10000000000036,235.018 M140.29999999999927,238.596 L140.0,226.706 C140.20000000000073,226.602 140.39999999999964,226.55 140.60000000000036,226.55 C140.79999999999927,226.55 140.89999999999964,226.602 141.10000000000036,226.706 L141.0,233.596 C141.5,233.138 142.10000000000036,232.909 142.79999999999927,232.909 C143.29999999999927,232.909 143.70000000000073,233.117 144.10000000000036,233.534 C144.39999999999964,233.951 144.60000000000036,234.43 144.60000000000036,234.971 C144.60000000000036,235.305 144.5,235.664 144.29999999999927,236.05 C144.0,236.393 143.79999999999927,236.664 143.60000000000036,236.862 C143.5,236.966 143.10000000000036,237.227 142.60000000000036,237.643 C142.39999999999964,237.758 142.29999999999927,237.893 142.0,238.05 C141.79999999999927,238.206 141.70000000000073,238.305 141.60000000000036,238.346 C141.5,238.399 141.5,238.503 141.39999999999964,238.659 C141.29999999999927,238.794 141.20000000000073,238.904 141.10000000000036,238.987 C141.0,239.07 140.89999999999964,239.112 140.70000000000073,239.112 C140.60000000000036,239.112 140.5,239.065 140.39999999999964,238.971 C140.29999999999927,238.878 140.29999999999927,238.753 140.29999999999927,238.596" />
<path d="M139.89999999999964,177.518 L139.89999999999964,179.065 C139.89999999999964,179.617 140.0,180.055 140.0,180.378 C140.39999999999964,180.013 140.70000000000073,179.742 140.89999999999964,179.565 C141.10000000000036,179.357 141.29999999999927,179.068 141.60000000000036,178.698 C141.79999999999927,178.328 141.89999999999964,177.961 141.89999999999964,177.596 C141.89999999999964,177.232 141.79999999999927,176.919 141.60000000000036,176.659 C141.5,176.399 141.29999999999927,176.268 141.0,176.268 C140.70000000000073,176.268 140.39999999999964,176.388 140.20000000000073,176.628 C140.0,176.888 139.89999999999964,177.185 139.89999999999964,177.518 M139.10000000000036,181.096 L138.89999999999964,169.206 C139.0,169.102 139.20000000000073,169.05 139.39999999999964,169.05 C139.60000000000036,169.05 139.79999999999927,169.102 139.89999999999964,169.206 L139.79999999999927,176.096 C140.29999999999927,175.638 140.89999999999964,175.409 141.60000000000036,175.409 C142.10000000000036,175.409 142.60000000000036,175.617 142.89999999999964,176.034 C143.20000000000073,176.451 143.39999999999964,176.93 143.39999999999964,177.471 C143.39999999999964,177.805 143.29999999999927,178.164 143.10000000000036,178.55 C142.89999999999964,178.893 142.60000000000036,179.164 142.39999999999964,179.362 C142.29999999999927,179.466 141.89999999999964,179.727 141.39999999999964,180.143 C141.29999999999927,180.258 141.10000000000036,180.393 140.89999999999964,180.55 C140.60000000000036,180.706 140.5,180.805 140.5,180.846 C140.39999999999964,180.899 140.29999999999927,181.003 140.20000000000073,181.159 C140.10000000000036,181.294 140.0,181.404 139.89999999999964,181.487 C139.79999999999927,181.57 139.70000000000073,181.612 139.60000000000036,181.612 C139.39999999999964,181.612 139.29999999999927,181.565 139.20000000000073,181.471 C139.10000000000036,181.378 139.10000000000036,181.253 139.10000000000036,181.096" />
<path d="M139.89999999999964,195.018 L139.89999999999964,196.565 C139.89999999999964,197.117 140.0,197.555 140.0,197.878 C140.39999999999964,197.513 140.70000000000073,197.242 140.89999999999964,197.065 C141.10000000000036,196.857 141.29999999999927,196.568 141.60000000000036,196.198 C141.79999999999927,195.828 141.89999999999964,195.461 141.89999999999964,195.096 C141.89999999999964,194.732 141.79999999999927,194.419 141.60000000000036,194.159 C141.5,193.899 141.29999999999927,193.768 141.0,193.768 C140.70000000000073,193.768 140.39999999999964,193.888 140.20000000000073,194.128 C140.0,194.388 139.89999999999964,194.685 139.89999999999964,195.018 M139.10000000000036,198.596 L138.89999999999964,186.706 C139.0,186.602 139.20000000000073,186.55 139.39999999999964,186.55 C139.60000000000036,186.55 139.79999999999927,186.602 139.89999999999964,186.706 L139.79999999999927,193.596 C140.29999999999927,193.138 140.89999999999964,192.909 141.60000000000036,192.909 C142.10000000000036,192.909 142.60000000000036,193.117 142.89999999999964,193.534 C143.20000000000073,193.951 143.39999999999964,194.43 143.39999999999964,194.971 C143.39999999999964,195.305 143.29999999999927,195.664 143.10000000000036,196.05 C142.89999999999964,196.393 142.60000000000036,196.664 142.39999999999964,196.862 C142.29999999999927,196.966 141.89999999999964,197.227 141.39999999999964,197.643 C141.29999999999927,197.758 141.10000000000036,197.893 140.89999999999964,198.05 C140.60000000000036,198.206 140.5,198.305 140.5,198.346 C140.39999999999964,198.399 140.29999999999927,198.503 140.20000000000073,198.659 C140.10000000000036,198.794 140.0,198.904 139.89999999999964,198.987 C139.79999999999927,199.07 139.70000000000073,199.112 139.60000000000036,199.112 C139.39999999999964,199.112 139.29999999999927,199.065 139.20000000000073,198.971 C139.10000000000036,198.878 139.10000000000036,198.753 139.10000000000036,198.596" />
<path d="M125.60000000000036,247.081 C125.60000000000036,247.331 125.5,247.456 125.20000000000073,247.456 C125.0,247.456 124.89999999999964,247.331 124.89999999999964,247.081 L124.89999999999964,244.19 L123.20000000000073,244.815 L123.20000000000073,247.971 C123.20000000000073,248.221 123.10000000000036,248.346 122.79999999999927,248.346 C122.60000000000036,248.346 122.5,248.221 122.5,247.971 L122.5,245.065 L121.79999999999927,245.3 C121.79999999999927,245.31 121.79999999999927,245.315 121.70000000000073,245.315 C121.60000000000036,245.315 121.5,245.276 121.39999999999964,245.198 C121.29999999999927,245.12 121.29999999999927,245.029 121.29999999999927,244.925 L121.29999999999927,243.721 C121.29999999999927,243.524 121.39999999999964,243.399 121.5,243.346 L122.5,243.034 L122.5,239.831 L121.79999999999927,240.05 C121.79999999999927,240.06 121.79999999999927,240.065 121.70000000000073,240.065 C121.60000000000036,240.065 121.5,240.026 121.39999999999964,239.948 C121.29999999999927,239.87 121.29999999999927,239.779 121.29999999999927,239.675 L121.29999999999927,238.456 C121.29999999999927,238.279 121.39999999999964,238.164 121.5,238.112 L122.5,237.753 L122.5,234.612 C122.5,234.362 122.60000000000036,234.237 122.79999999999927,234.237 C123.10000000000036,234.237 123.20000000000073,234.362 123.20000000000073,234.612 L123.20000000000073,237.503 L124.89999999999964,236.878 L124.89999999999964,233.721 C124.89999999999964,233.471 125.0,233.346 125.20000000000073,233.346 C125.5,233.346 125.60000000000036,233.471 125.60000000000036,233.721 L125.60000000000036,236.628 L126.29999999999927,236.393 C126.29999999999927,236.383 126.29999999999927,236.378 126.39999999999964,236.378 C126.5,236.378 126.60000000000036,236.414 126.70000000000073,236.487 C126.79999999999927,236.57 126.79999999999927,236.664 126.79999999999927,236.768 L126.79999999999927,237.971 C126.79999999999927,238.159 126.70000000000073,238.284 126.5,238.346 L125.60000000000036,238.659 L125.60000000000036,241.862 L126.29999999999927,241.643 C126.29999999999927,241.633 126.29999999999927,241.628 126.39999999999964,241.628 C126.5,241.628 126.60000000000036,241.669 126.70000000000073,241.753 C126.79999999999927,241.826 126.79999999999927,241.914 126.79999999999927,242.018 L126.79999999999927,243.237 C126.79999999999927,243.404 126.70000000000073,243.518 126.5,243.581 L125.60000000000036,243.94 L125.60000000000036,247.081 M124.89999999999964,238.956 L123.20000000000073,239.534 L123.20000000000073,242.737 L124.89999999999964,242.159 L124.89999999999964,238.956" />
<path d="M104.5,95.0183 L104.5,96.5652 C104.5,97.1173 104.5,97.5548 104.5,97.8777 C105.0,97.5131 105.29999999999927,97.2423 105.5,97.0652 C105.70000000000073,96.8569 105.89999999999964,96.5678 106.10000000000036,96.198 C106.29999999999927,95.8282 106.39999999999964,95.461 106.39999999999964,95.0965 C106.39999999999964,94.7319 106.29999999999927,94.4194 106.20000000000073,94.159 C106.0,93.8985 105.79999999999927,93.7683 105.5,93.7683 C105.20000000000073,93.7683 105.0,93.8881 104.79999999999927,94.1277 C104.60000000000036,94.3881 104.5,94.685 104.5,95.0183 M103.60000000000036,98.5965 L103.39999999999964,86.7058 C103.60000000000036,86.6017 103.79999999999927,86.5496 103.89999999999964,86.5496 C104.10000000000036,86.5496 104.29999999999927,86.6017 104.5,86.7058 L104.29999999999927,93.5965 C104.89999999999964,93.1381 105.5,92.909 106.20000000000073,92.909 C106.70000000000073,92.909 107.10000000000036,93.1173 107.39999999999964,93.534 C107.79999999999927,93.9506 107.89999999999964,94.4298 107.89999999999964,94.9715 C107.89999999999964,95.3048 107.79999999999927,95.6642 107.60000000000036,96.0496 C107.39999999999964,96.3933 107.20000000000073,96.6642 107.0,96.8621 C106.79999999999927,96.9662 106.5,97.2267 106.0,97.6433 C105.79999999999927,97.7579 105.60000000000036,97.8933 105.39999999999964,98.0496 C105.20000000000073,98.2058 105.0,98.3048 105.0,98.3465 C104.89999999999964,98.3985 104.79999999999927,98.5027 104.70000000000073,98.659 C104.60000000000036,98.7944 104.5,98.9037 104.39999999999964,98.9871 C104.29999999999927,99.0704 104.20000000000073,99.1121 104.10000000000036,99.1121 C104.0,99.1121 103.89999999999964,99.0652 103.79999999999927,98.9715 C103.70000000000073,98.8777 103.60000000000036,98.7527 103.60000000000036,98.5965" />
<path d="M105.5,72.5183 L105.5,74.0652 C105.5,74.6173 105.5,75.0548 105.5,75.3777 C106.0,75.0131 106.29999999999927,74.7423 106.5,74.5652 C106.70000000000073,74.3569 106.89999999999964,74.0678 107.10000000000036,73.698 C107.29999999999927,73.3282 107.39999999999964,72.961 107.39999999999964,72.5965 C107.39999999999964,72.2319 107.29999999999927,71.9194 107.20000000000073,71.659 C107.0,71.3985 106.79999999999927,71.2683 106.5,71.2683 C106.20000000000073,71.2683 106.0,71.3881 105.79999999999927,71.6277 C105.60000000000036,71.8881 105.5,72.185 105.5,72.5183 M104.60000000000036,76.0965 L104.39999999999964,64.2058 C104.60000000000036,64.1017 104.79999999999927,64.0496 104.89999999999964,64.0496 C105.10000000000036,64.0496 105.29999999999927,64.1017 105.5,64.2058 L105.29999999999927,71.0965 C105.89999999999964,70.6381 106.5,70.409 107.20000000000073,70.409 C107.70000000000073,70.409 108.10000000000036,70.6173 108.39999999999964,71.034 C108.79999999999927,71.4506 108.89999999999964,71.9298 108.89999999999964,72.4715 C108.89999999999964,72.8048 108.79999999999927,73.1642 108.60000000000036,73.5496 C108.39999999999964,73.8933 108.20000000000073,74.1642 108.0,74.3621 C107.79999999999927,74.4662 107.5,74.7267 107.0,75.1433 C106.79999999999927,75.2579 106.60000000000036,75.3933 106.39999999999964,75.5496 C106.20000000000073,75.7058 106.0,75.8048 106.0,75.8465 C105.89999999999964,75.8985 105.79999999999927,76.0027 105.70000000000073,76.159 C105.60000000000036,76.2944 105.5,76.4037 105.39999999999964,76.4871 C105.29999999999927,76.5704 105.20000000000073,76.6121 105.10000000000036,76.6121 C105.0,76.6121 104.89999999999964,76.5652 104.79999999999927,76.4715 C104.70000000000073,76.3777 104.60000000000036,76.2527 104.60000000000036,76.0965" />
<path d="M86.60000000000036,87.5183 L86.60000000000036,89.0652 C86.60000000000036,89.6173 86.70000000000073,90.0548 86.70000000000073,90.3777 C87.10000000000036,90.0131 87.5,89.7423 87.60000000000036,89.5652 C87.89999999999964,89.3569 88.10000000000036,89.0678 88.29999999999927,88.698 C88.5,88.3282 88.60000000000036,87.961 88.60000000000036,87.5965 C88.60000000000036,87.2319 88.5,86.9194 88.29999999999927,86.659 C88.20000000000073,86.3985 88.0,86.2683 87.70000000000073,86.2683 C87.39999999999964,86.2683 87.10000000000036,86.3881 86.89999999999964,86.6277 C86.70000000000073,86.8881 86.60000000000036,87.185 86.60000000000036,87.5183 M85.79999999999927,91.0965 L85.60000000000036,79.2058 C85.79999999999927,79.1017 85.89999999999964,79.0496 86.10000000000036,79.0496 C86.29999999999927,79.0496 86.5,79.1017 86.70000000000073,79.2058 L86.5,86.0965 C87.0,85.6381 87.60000000000036,85.409 88.29999999999927,85.409 C88.79999999999927,85.409 89.29999999999927,85.6173 89.60000000000036,86.034 C89.89999999999964,86.4506 90.10000000000036,86.9298 90.10000000000036,87.4715 C90.10000000000036,87.8048 90.0,88.1642 89.79999999999927,88.5496 C89.60000000000036,88.8933 89.39999999999964,89.1642 89.10000000000036,89.3621 C89.0,89.4662 88.70000000000073,89.7267 88.10000000000036,90.1433 C88.0,90.2579 87.79999999999927,90.3933 87.60000000000036,90.5496 C87.39999999999964,90.7058 87.20000000000073,90.8048 87.20000000000073,90.8465 C87.10000000000036,90.8985 87.0,91.0027 86.89999999999964,91.159 C86.79999999999927,91.2944 86.70000000000073,91.4037 86.60000000000036,91.4871 C86.5,91.5704 86.39999999999964,91.6121 86.29999999999927,91.6121 C86.10000000000036,91.6121 86.0,91.5652 86.0,91.4715 C85.89999999999964,91.3777 85.79999999999927,91.2527 85.79999999999927,91.0965" />
<path d="M87.60000000000036,65.0183 L87.60000000000036,66.5652 C87.60000000000036,67.1173 87.70000000000073,67.5548 87.70000000000073,67.8777 C88.10000000000036,67.5131 88.5,67.2423 88.60000000000036,67.0652 C88.89999999999964,66.8569 89.10000000000036,66.5678 89.29999999999927,66.198 C89.5,65.8282 89.60000000000036,65.461 89.60000000000036,65.0965 C89.60000000000036,64.7319 89.5,64.4194 89.29999999999927,64.159 C89.20000000000073,63.8985 89.0,63.7683 88.70000000000073,63.7683 C88.39999999999964,63.7683 88.10000000000036,63.8881 87.89999999999964,64.1277 C87.70000000000073,64.3881 87.60000000000036,64.685 87.60000000000036,65.0183 M86.79999999999927,68.5965 L86.60000000000036,56.7058 C86.79999999999927,56.6017 86.89999999999964,56.5496 87.10000000000036,56.5496 C87.29999999999927,56.5496 87.5,56.6017 87.70000000000073,56.7058 L87.5,63.5965 C88.0,63.1381 88.60000000000036,62.909 89.29999999999927,62.909 C89.79999999999927,62.909 90.29999999999927,63.1173 90.60000000000036,63.534 C90.89999999999964,63.9506 91.10000000000036,64.4298 91.10000000000036,64.9715 C91.10000000000036,65.3048 91.0,65.6642 90.79999999999927,66.0496 C90.60000000000036,66.3933 90.39999999999964,66.6642 90.10000000000036,66.8621 C90.0,66.9662 89.70000000000073,67.2267 89.10000000000036,67.6433 C89.0,67.7579 88.79999999999927,67.8933 88.60000000000036,68.0496 C88.39999999999964,68.2058 88.20000000000073,68.3048 88.20000000000073,68.3465 C88.10000000000036,68.3985 88.0,68.5027 87.89999999999964,68.659 C87.79999999999927,68.7944 87.70000000000073,68.9037 87.60000000000036,68.9871 C87.5,69.0704 87.39999999999964,69.1121 87.29999999999927,69.1121 C87.10000000000036,69.1121 87.0,69.0652 87.0,68.9715 C86.89999999999964,68.8777 86.79999999999927,68.7527 86.79999999999927,68.5965" />
<path d="M12.600000000000364,170.018 L12.600000000000364,171.565 C12.600000000000364,172.117 12.600000000000364,172.555 12.700000000000728,172.878 C13.100000000000364,172.513 13.399999999999636,172.242 13.600000000000364,172.065 C13.799999999999272,171.857 14.0,171.568 14.200000000000728,171.198 C14.399999999999636,170.828 14.5,170.461 14.5,170.096 C14.5,169.732 14.5,169.419 14.299999999999272,169.159 C14.200000000000728,168.899 13.899999999999636,168.768 13.700000000000728,168.768 C13.399999999999636,168.768 13.100000000000364,168.888 12.899999999999636,169.128 C12.700000000000728,169.388 12.600000000000364,169.685 12.600000000000364,170.018 M11.799999999999272,173.596 L11.5,161.706 C11.700000000000728,161.602 11.899999999999636,161.55 12.100000000000364,161.55 C12.299999999999272,161.55 12.399999999999636,161.602 12.600000000000364,161.706 L12.5,168.596 C13.0,168.138 13.600000000000364,167.909 14.299999999999272,167.909 C14.799999999999272,167.909 15.200000000000728,168.117 15.600000000000364,168.534 C15.899999999999636,168.951 16.100000000000364,169.43 16.100000000000364,169.971 C16.100000000000364,170.305 16.0,170.664 15.700000000000728,171.05 C15.5,171.393 15.299999999999272,171.664 15.100000000000364,171.862 C15.0,171.966 14.600000000000364,172.227 14.100000000000364,172.643 C13.899999999999636,172.758 13.799999999999272,172.893 13.5,173.05 C13.299999999999272,173.206 13.200000000000728,173.305 13.100000000000364,173.346 C13.0,173.399 13.0,173.503 12.899999999999636,173.659 C12.799999999999272,173.794 12.700000000000728,173.904 12.600000000000364,173.987 C12.5,174.07 12.399999999999636,174.112 12.200000000000728,174.112 C12.100000000000364,174.112 12.0,174.065 11.899999999999636,173.971 C11.799999999999272,173.878 11.799999999999272,173.753 11.799999999999272,173.596" />
<path d="M242.79999999999927,233.096 C243.39999999999964,233.096 243.89999999999964,233.258 244.39999999999964,233.581 C244.79999999999927,233.935 245.0,234.378 245.0,234.909 C245.0,235.805 244.5,236.643 243.60000000000036,237.425 C242.70000000000073,238.206 241.70000000000073,238.596 240.60000000000036,238.596 C240.0,238.596 239.39999999999964,238.435 239.0,238.112 C238.60000000000036,237.758 238.39999999999964,237.315 238.39999999999964,236.784 C238.39999999999964,235.888 238.89999999999964,235.05 239.79999999999927,234.268 C240.70000000000073,233.487 241.70000000000073,233.096 242.79999999999927,233.096" />
<path d="M242.79999999999927,93.0965 C243.39999999999964,93.0965 243.89999999999964,93.2579 244.39999999999964,93.5808 C244.79999999999927,93.935 245.0,94.3777 245.0,94.909 C245.0,95.8048 244.5,96.6433 243.60000000000036,97.4246 C242.70000000000073,98.2058 241.70000000000073,98.5965 240.60000000000036,98.5965 C240.0,98.5965 239.39999999999964,98.435 239.0,98.1121 C238.60000000000036,97.7579 238.39999999999964,97.3152 238.39999999999964,96.784 C238.39999999999964,95.8881 238.89999999999964,95.0496 239.79999999999927,94.2683 C240.70000000000073,93.4871 241.70000000000073,93.0965 242.79999999999927,93.0965" />
<path d="M242.79999999999927,70.5965 C243.39999999999964,70.5965 243.89999999999964,70.7579 244.39999999999964,71.0808 C244.79999999999927,71.435 245.0,71.8777 245.0,72.409 C245.0,73.3048 244.5,74.1433 243.60000000000036,74.9246 C242.70000000000073,75.7058 241.70000000000073,76.0965 240.60000000000036,76.0965 C240.0,76.0965 239.39999999999964,75.935 239.0,75.6121 C238.60000000000036,75.2579 238.39999999999964,74.8152 238.39999999999964,74.284 C238.39999999999964,73.3881 238.89999999999964,72.5496 239.79999999999927,71.7683 C240.70000000000073,70.9871 241.70000000000073,70.5965 242.79999999999927,70.5965" />
<path d="M225.0,238.096 C225.60000000000036,238.096 226.10000000000036,238.258 226.60000000000036,238.581 C227.0,238.935 227.20000000000073,239.378 227.20000000000073,239.909 C227.20000000000073,240.805 226.70000000000073,241.643 225.79999999999927,242.425 C224.79999999999927,243.206 223.79999999999927,243.596 222.79999999999927,243.596 C222.10000000000036,243.596 221.60000000000036,243.435 221.20000000000073,243.112 C220.79999999999927,242.758 220.60000000000036,242.315 220.60000000000036,241.784 C220.60000000000036,240.888 221.0,240.05 222.0,239.268 C222.89999999999964,238.487 223.89999999999964,238.096 225.0,238.096" />
<path d="M207.10000000000036,233.096 C207.79999999999927,233.096 208.29999999999927,233.258 208.70000000000073,233.581 C209.10000000000036,233.935 209.29999999999927,234.378 209.29999999999927,234.909 C209.29999999999927,235.805 208.89999999999964,236.643 208.0,237.425 C207.0,238.206 206.0,238.596 204.89999999999964,238.596 C204.29999999999927,238.596 203.79999999999927,238.435 203.39999999999964,238.112 C203.0,237.758 202.79999999999927,237.315 202.79999999999927,236.784 C202.79999999999927,235.888 203.20000000000073,235.05 204.20000000000073,234.268 C205.10000000000036,233.487 206.10000000000036,233.096 207.10000000000036,233.096" />
<path d="M207.10000000000036,88.0965 C207.79999999999927,88.0965 208.29999999999927,88.2579 208.70000000000073,88.5808 C209.10000000000036,88.935 209.29999999999927,89.3777 209.29999999999927,89.909 C209.29999999999927,90.8048 208.89999999999964,91.6433 208.0,92.4246 C207.0,93.2058 206.0,93.5965 204.89999999999964,93.5965 C204.29999999999927,93.5965 203.79999999999927,93.435 203.39999999999964,93.1121 C203.0,92.7579 202.79999999999927,92.3152 202.79999999999927,91.784 C202.79999999999927,90.8881 203.20000000000073,90.0496 204.20000000000073,89.2683 C205.10000000000036,88.4871 206.10000000000036,88.0965 207.10000000000036,88.0965" />
<path d="M207.10000000000036,65.5965 C207.79999999999927,65.5965 208.29999999999927,65.7579 208.70000000000073,66.0808 C209.10000000000036,66.435 209.29999999999927,66.8777 209.29999999999927,67.409 C209.29999999999927,68.3048 208.89999999999964,69.1433 208.0,69.9246 C207.0,70.7058 206.0,71.0965 204.89999999999964,71.0965 C204.29999999999927,71.0965 203.79999999999927,70.935 203.39999999999964,70.6121 C203.0,70.2579 202.79999999999927,69.8152 202.79999999999927,69.284 C202.79999999999927,68.3881 203.20000000000073,67.5496 204.20000000000073,66.7683 C205.10000000000036,65.9871 206.10000000000036,65.5965 207.10000000000036,65.5965" />
<path d="M178.60000000000036,233.096 C179.29999999999927,233.096 179.79999999999927,233.258 180.20000000000073,233.581 C180.60000000000036,233.935 180.79999999999927,234.378 180.79999999999927,234.909 C180.79999999999927,235.805 180.39999999999964,236.643 179.39999999999964,237.425 C178.5,238.206 177.5,238.596 176.39999999999964,238.596 C175.79999999999927,238.596 175.29999999999927,238.435 174.79999999999927,238.112 C174.39999999999964,237.758 174.20000000000073,237.315 174.20000000000073,236.784 C174.20000000000073,235.888 174.70000000000073,235.05 175.60000000000036,234.268 C176.60000000000036,233.487 177.60000000000036,233.096 178.60000000000036,233.096" />
<path d="M178.60000000000036,93.0965 C179.29999999999927,93.0965 179.79999999999927,93.2579 180.20000000000073,93.5808 C180.60000000000036,93.935 180.79999999999927,94.3777 180.79999999999927,94.909 C180.79999999999927,95.8048 180.39999999999964,96.6433 179.39999999999964,97.4246 C178.5,98.2058 177.5,98.5965 176.39999999999964,98.5965 C175.79999999999927,98.5965 175.29999999999927,98.435 174.79999999999927,98.1121 C174.39999999999964,97.7579 174.20000000000073,97.3152 174.20000000000073,96.784 C174.20000000000073,95.8881 174.70000000000073,95.0496 175.60000000000036,94.2683 C176.60000000000036,93.4871 177.60000000000036,93.0965 178.60000000000036,93.0965" />
<path d="M178.60000000000036,70.5965 C179.29999999999927,70.5965 179.79999999999927,70.7579 180.20000000000073,71.0808 C180.60000000000036,71.435 180.79999999999927,71.8777 180.79999999999927,72.409 C180.79999999999927,73.3048 180.39999999999964,74.1433 179.39999999999964,74.9246 C178.5,75.7058 177.5,76.0965 176.39999999999964,76.0965 C175.79999999999927,76.0965 175.29999999999927,75.935 174.79999999999927,75.6121 C174.39999999999964,75.2579 174.20000000000073,74.8152 174.20000000000073,74.284 C174.20000000000073,73.3881 174.70000000000073,72.5496 175.60000000000036,71.7683 C176.60000000000036,70.9871 177.60000000000036,70.5965 178.60000000000036,70.5965" />
<path d="M150.10000000000036,233.096 C150.70000000000073,233.096 151.29999999999927,233.258 151.70000000000073,233.581 C152.10000000000036,233.935 152.29999999999927,234.378 152.29999999999927,234.909 C152.29999999999927,235.805 151.79999999999927,236.643 150.89999999999964,237.425 C150.0,238.206 149.0,238.596 147.89999999999964,238.596 C147.29999999999927,238.596 146.79999999999927,238.435 146.29999999999927,238.112 C145.89999999999964,237.758 145.70000000000073,237.315 145.70000000000073,236.784 C145.70000000000073,235.888 146.20000000000073,235.05 147.10000000000036,234.268 C148.0,233.487 149.0,233.096 150.10000000000036,233.096" />
<path d="M151.89999999999964,172.034 C151.89999999999964,171.815 151.79999999999927,171.628 151.60000000000036,171.471 C151.39999999999964,171.305 151.20000000000073,171.221 151.0,171.221 C150.60000000000036,171.221 149.79999999999927,171.612 148.70000000000073,172.393 C147.39999999999964,173.185 146.70000000000073,173.753 146.39999999999964,174.096 C146.29999999999927,174.274 146.20000000000073,174.461 146.20000000000073,174.659 C146.20000000000073,174.878 146.29999999999927,175.065 146.39999999999964,175.221 C146.60000000000036,175.388 146.79999999999927,175.471 147.0,175.471 C147.39999999999964,175.471 148.20000000000073,175.081 149.39999999999964,174.3 C150.60000000000036,173.518 151.39999999999964,172.951 151.60000000000036,172.596 C151.79999999999927,172.43 151.89999999999964,172.242 151.89999999999964,172.034 M150.79999999999927,170.596 C151.89999999999964,170.596 152.5,171.076 152.5,172.034 C152.5,172.503 152.39999999999964,173.05 152.10000000000036,173.675 C151.79999999999927,174.289 151.5,174.758 151.0,175.081 C150.0,175.758 148.70000000000073,176.096 147.20000000000073,176.096 C146.10000000000036,176.096 145.5,175.617 145.5,174.659 C145.5,174.232 145.70000000000073,173.69 145.89999999999964,173.034 C146.20000000000073,172.409 146.60000000000036,171.935 147.0,171.612 C148.10000000000036,170.935 149.29999999999927,170.596 150.79999999999927,170.596" />
<path d="M151.89999999999964,177.034 C151.89999999999964,176.815 151.79999999999927,176.628 151.60000000000036,176.471 C151.39999999999964,176.305 151.20000000000073,176.221 151.0,176.221 C150.60000000000036,176.221 149.79999999999927,176.612 148.70000000000073,177.393 C147.39999999999964,178.185 146.70000000000073,178.753 146.39999999999964,179.096 C146.29999999999927,179.274 146.20000000000073,179.461 146.20000000000073,179.659 C146.20000000000073,179.878 146.29999999999927,180.065 146.39999999999964,180.221 C146.60000000000036,180.388 146.79999999999927,180.471 147.0,180.471 C147.39999999999964,180.471 148.20000000000073,180.081 149.39999999999964,179.3 C150.60000000000036,178.518 151.39999999999964,177.951 151.60000000000036,177.596 C151.79999999999927,177.43 151.89999999999964,177.242 151.89999999999964,177.034 M150.79999999999927,175.596 C151.89999999999964,175.596 152.5,176.076 152.5,177.034 C152.5,177.503 152.39999999999964,178.05 152.10000000000036,178.675 C151.79999999999927,179.289 151.5,179.758 151.0,180.081 C150.0,180.758 148.70000000000073,181.096 147.20000000000073,181.096 C146.10000000000036,181.096 145.5,180.617 145.5,179.659 C145.5,179.232 145.70000000000073,178.69 145.89999999999964,178.034 C146.20000000000073,177.409 146.60000000000036,176.935 147.0,176.612 C148.10000000000036,175.935 149.29999999999927,175.596 150.79999999999927,175.596" />
<path d="M151.89999999999964,184.534 C151.89999999999964,184.315 151.79999999999927,184.128 151.60000000000036,183.971 C151.39999999999964,183.805 151.20000000000073,183.721 151.0,183.721 C150.60000000000036,183.721 149.79999999999927,184.112 148.70000000000073,184.893 C147.39999999999964,185.685 146.70000000000073,186.253 146.39999999999964,186.596 C146.29999999999927,186.774 146.20000000000073,186.961 146.20000000000073,187.159 C146.20000000000073,187.378 146.29999999999927,187.565 146.39999999999964,187.721 C146.60000000000036,187.888 146.79999999999927,187.971 147.0,187.971 C147.39999999999964,187.971 148.20000000000073,187.581 149.39999999999964,186.8 C150.60000000000036,186.018 151.39999999999964,185.451 151.60000000000036,185.096 C151.79999999999927,184.93 151.89999999999964,184.742 151.89999999999964,184.534 M150.79999999999927,183.096 C151.89999999999964,183.096 152.5,183.576 152.5,184.534 C152.5,185.003 152.39999999999964,185.55 152.10000000000036,186.175 C151.79999999999927,186.789 151.5,187.258 151.0,187.581 C150.0,188.258 148.70000000000073,188.596 147.20000000000073,188.596 C146.10000000000036,188.596 145.5,188.117 145.5,187.159 C145.5,186.732 145.70000000000073,186.19 145.89999999999964,185.534 C146.20000000000073,184.909 146.60000000000036,184.435 147.0,184.112 C148.10000000000036,183.435 149.29999999999927,183.096 150.79999999999927,183.096" />
<path d="M151.89999999999964,194.534 C151.89999999999964,194.315 151.79999999999927,194.128 151.60000000000036,193.971 C151.39999999999964,193.805 151.20000000000073,193.721 151.0,193.721 C150.60000000000036,193.721 149.79999999999927,194.112 148.70000000000073,194.893 C147.39999999999964,195.685 146.70000000000073,196.253 146.39999999999964,196.596 C146.29999999999927,196.774 146.20000000000073,196.961 146.20000000000073,197.159 C146.20000000000073,197.378 146.29999999999927,197.565 146.39999999999964,197.721 C146.60000000000036,197.888 146.79999999999927,197.971 147.0,197.971 C147.39999999999964,197.971 148.20000000000073,197.581 149.39999999999964,196.8 C150.60000000000036,196.018 151.39999999999964,195.451 151.60000000000036,195.096 C151.79999999999927,194.93 151.89999999999964,194.742 151.89999999999964,194.534 M150.79999999999927,193.096 C151.89999999999964,193.096 152.5,193.576 152.5,194.534 C152.5,195.003 152.39999999999964,195.55 152.10000000000036,196.175 C151.79999999999927,196.789 151.5,197.258 151.0,197.581 C150.0,198.258 148.70000000000073,198.596 147.20000000000073,198.596 C146.10000000000036,198.596 145.5,198.117 145.5,197.159 C145.5,196.732 145.70000000000073,196.19 145.89999999999964,195.534 C146.20000000000073,194.909 146.60000000000036,194.435 147.0,194.112 C148.10000000000036,193.435 149.29999999999927,193.096 150.79999999999927,193.096" />
<path d="M150.10000000000036,100.596 C150.70000000000073,100.596 151.29999999999927,100.758 151.70000000000073,101.081 C152.10000000000036,101.435 152.29999999999927,101.878 152.29999999999927,102.409 C152.29999999999927,103.305 151.79999999999927,104.143 150.89999999999964,104.925 C150.0,105.706 149.0,106.096 147.89999999999964,106.096 C147.29999999999927,106.096 146.79999999999927,105.935 146.29999999999927,105.612 C145.89999999999964,105.258 145.70000000000073,104.815 145.70000000000073,104.284 C145.70000000000073,103.388 146.20000000000073,102.55 147.10000000000036,101.768 C148.0,100.987 149.0,100.596 150.10000000000036,100.596" />
<path d="M150.10000000000036,78.0965 C150.70000000000073,78.0965 151.29999999999927,78.2579 151.70000000000073,78.5808 C152.10000000000036,78.935 152.29999999999927,79.3777 152.29999999999927,79.909 C152.29999999999927,80.8048 151.79999999999927,81.6433 150.89999999999964,82.4246 C150.0,83.2058 149.0,83.5965 147.89999999999964,83.5965 C147.29999999999927,83.5965 146.79999999999927,83.435 146.29999999999927,83.1121 C145.89999999999964,82.7579 145.70000000000073,82.3152 145.70000000000073,81.784 C145.70000000000073,80.8881 146.20000000000073,80.0496 147.10000000000036,79.2683 C148.0,78.4871 149.0,78.0965 150.10000000000036,78.0965" />
<path d="M132.29999999999927,238.096 C132.89999999999964,238.096 133.39999999999964,238.258 133.89999999999964,238.581 C134.29999999999927,238.935 134.5,239.378 134.5,239.909 C134.5,240.805 134.0,241.643 133.10000000000036,242.425 C132.20000000000073,243.206 131.20000000000073,243.596 130.10000000000036,243.596 C129.5,243.596 128.89999999999964,243.435 128.5,243.112 C128.10000000000036,242.758 127.89999999999964,242.315 127.89999999999964,241.784 C127.89999999999964,240.888 128.39999999999964,240.05 129.29999999999927,239.268 C130.20000000000073,238.487 131.20000000000073,238.096 132.29999999999927,238.096" />
<path d="M114.5,93.0965 C115.10000000000036,93.0965 115.60000000000036,93.2579 116.10000000000036,93.5808 C116.5,93.935 116.70000000000073,94.3777 116.70000000000073,94.909 C116.70000000000073,95.8048 116.20000000000073,96.6433 115.29999999999927,97.4246 C114.29999999999927,98.2058 113.29999999999927,98.5965 112.29999999999927,98.5965 C111.60000000000036,98.5965 111.10000000000036,98.435 110.70000000000073,98.1121 C110.29999999999927,97.7579 110.10000000000036,97.3152 110.10000000000036,96.784 C110.10000000000036,95.8881 110.5,95.0496 111.5,94.2683 C112.39999999999964,93.4871 113.39999999999964,93.0965 114.5,93.0965" />
<path d="M114.5,70.5965 C115.10000000000036,70.5965 115.60000000000036,70.7579 116.10000000000036,71.0808 C116.5,71.435 116.70000000000073,71.8777 116.70000000000073,72.409 C116.70000000000073,73.3048 116.20000000000073,74.1433 115.29999999999927,74.9246 C114.29999999999927,75.7058 113.29999999999927,76.0965 112.29999999999927,76.0965 C111.60000000000036,76.0965 111.10000000000036,75.935 110.70000000000073,75.6121 C110.29999999999927,75.2579 110.10000000000036,74.8152 110.10000000000036,74.284 C110.10000000000036,73.3881 110.5,72.5496 111.5,71.7683 C112.39999999999964,70.9871 113.39999999999964,70.5965 114.5,70.5965" />
<path d="M96.60000000000036,85.5965 C97.29999999999927,85.5965 97.79999999999927,85.7579 98.20000000000073,86.0808 C98.60000000000036,86.435 98.79999999999927,86.8777 98.79999999999927,87.409 C98.79999999999927,88.3048 98.39999999999964,89.1433 97.5,89.9246 C96.5,90.7058 95.5,91.0965 94.39999999999964,91.0965 C93.79999999999927,91.0965 93.29999999999927,90.935 92.89999999999964,90.6121 C92.5,90.2579 92.29999999999927,89.8152 92.29999999999927,89.284 C92.29999999999927,88.3881 92.70000000000073,87.5496 93.70000000000073,86.7683 C94.60000000000036,85.9871 95.60000000000036,85.5965 96.60000000000036,85.5965" />
<path d="M96.60000000000036,63.0965 C97.29999999999927,63.0965 97.79999999999927,63.2579 98.20000000000073,63.5808 C98.60000000000036,63.935 98.79999999999927,64.3777 98.79999999999927,64.909 C98.79999999999927,65.8048 98.39999999999964,66.6433 97.5,67.4246 C96.5,68.2058 95.5,68.5965 94.39999999999964,68.5965 C93.79999999999927,68.5965 93.29999999999927,68.435 92.89999999999964,68.1121 C92.5,67.7579 92.29999999999927,67.3152 92.29999999999927,66.784 C92.29999999999927,65.8881 92.70000000000073,65.0496 93.70000000000073,64.2683 C94.60000000000036,63.4871 95.60000000000036,63.0965 96.60000000000036,63.0965" />
<path d="M78.79999999999927,230.596 C79.39999999999964,230.596 80.0,230.758 80.39999999999964,231.081 C80.79999999999927,231.435 81.0,231.878 81.0,232.409 C81.0,233.305 80.60000000000036,234.143 79.60000000000036,234.925 C78.70000000000073,235.706 77.70000000000073,236.096 76.60000000000036,236.096 C76.0,236.096 75.5,235.935 75.0,235.612 C74.60000000000036,235.258 74.39999999999964,234.815 74.39999999999964,234.284 C74.39999999999964,233.388 74.89999999999964,232.55 75.79999999999927,231.768 C76.79999999999927,230.987 77.79999999999927,230.596 78.79999999999927,230.596" />
<path d="M78.79999999999927,83.0965 C79.39999999999964,83.0965 80.0,83.2579 80.39999999999964,83.5808 C80.79999999999927,83.935 81.0,84.3777 81.0,84.909 C81.0,85.8048 80.60000000000036,86.6433 79.60000000000036,87.4246 C78.70000000000073,88.2058 77.70000000000073,88.5965 76.60000000000036,88.5965 C76.0,88.5965 75.5,88.435 75.0,88.1121 C74.60000000000036,87.7579 74.39999999999964,87.3152 74.39999999999964,86.784 C74.39999999999964,85.8881 74.89999999999964,85.0496 75.79999999999927,84.2683 C76.79999999999927,83.4871 77.79999999999927,83.0965 78.79999999999927,83.0965" />
<path d="M78.79999999999927,60.5965 C79.39999999999964,60.5965 80.0,60.7579 80.39999999999964,61.0808 C80.79999999999927,61.435 81.0,61.8777 81.0,62.409 C81.0,63.3048 80.60000000000036,64.1433 79.60000000000036,64.9246 C78.70000000000073,65.7058 77.70000000000073,66.0965 76.60000000000036,66.0965 C76.0,66.0965 75.5,65.935 75.0,65.6121 C74.60000000000036,65.2579 74.39999999999964,64.8152 74.39999999999964,64.284 C74.39999999999964,63.3881 74.89999999999964,62.5496 75.79999999999927,61.7683 C76.79999999999927,60.9871 77.79999999999927,60.5965 78.79999999999927,60.5965" />
<path d="M21.799999999999272,230.596 C22.399999999999636,230.596 22.899999999999636,230.758 23.399999999999636,231.081 C23.799999999999272,231.435 24.0,231.878 24.0,232.409 C24.0,233.305 23.5,234.143 22.600000000000364,234.925 C21.700000000000728,235.706 20.700000000000728,236.096 19.600000000000364,236.096 C19.0,236.096 18.399999999999636,235.935 18.0,235.612 C17.600000000000364,235.258 17.399999999999636,234.815 17.399999999999636,234.284 C17.399999999999636,233.388 17.899999999999636,232.55 18.799999999999272,231.768 C19.700000000000728,230.987 20.700000000000728,230.596 21.799999999999272,230.596" />
<path d="M29.799999999999272,169.534 C29.799999999999272,169.315 29.700000000000728,169.128 29.600000000000364,168.971 C29.399999999999636,168.805 29.200000000000728,168.721 29.0,168.721 C28.600000000000364,168.721 27.799999999999272,169.112 26.600000000000364,169.893 C25.399999999999636,170.685 24.600000000000364,171.253 24.399999999999636,171.596 C24.200000000000728,171.774 24.200000000000728,171.961 24.200000000000728,172.159 C24.200000000000728,172.378 24.200000000000728,172.565 24.399999999999636,172.721 C24.600000000000364,172.888 24.799999999999272,172.971 25.0,172.971 C25.399999999999636,172.971 26.200000000000728,172.581 27.399999999999636,171.8 C28.600000000000364,171.018 29.299999999999272,170.451 29.600000000000364,170.096 C29.799999999999272,169.93 29.799999999999272,169.742 29.799999999999272,169.534 M28.799999999999272,168.096 C29.899999999999636,168.096 30.5,168.576 30.5,169.534 C30.5,170.003 30.299999999999272,170.55 30.100000000000364,171.175 C29.799999999999272,171.789 29.399999999999636,172.258 29.0,172.581 C28.0,173.258 26.700000000000728,173.596 25.200000000000728,173.596 C24.100000000000364,173.596 23.5,173.117 23.5,172.159 C23.5,171.732 23.700000000000728,171.19 23.899999999999636,170.534 C24.200000000000728,169.909 24.5,169.435 25.0,169.112 C26.0,168.435 27.299999999999272,168.096 28.799999999999272,168.096" />
<path d="M23.5,169.534 C23.5,169.315 23.5,169.128 23.299999999999272,168.971 C23.100000000000364,168.805 22.899999999999636,168.721 22.700000000000728,168.721 C22.299999999999272,168.721 21.5,169.112 20.299999999999272,169.893 C19.100000000000364,170.685 18.399999999999636,171.253 18.100000000000364,171.596 C17.899999999999636,171.774 17.899999999999636,171.961 17.899999999999636,172.159 C17.899999999999636,172.378 18.0,172.565 18.100000000000364,172.721 C18.299999999999272,172.888 18.5,172.971 18.700000000000728,172.971 C19.100000000000364,172.971 19.899999999999636,172.581 21.100000000000364,171.8 C22.299999999999272,171.018 23.0,170.451 23.299999999999272,170.096 C23.5,169.93 23.5,169.742 23.5,169.534 M22.5,168.096 C23.600000000000364,168.096 24.200000000000728,168.576 24.200000000000728,169.534 C24.200000000000728,170.003 24.0,170.55 23.799999999999272,171.175 C23.5,171.789 23.100000000000364,172.258 22.700000000000728,172.581 C21.700000000000728,173.258 20.399999999999636,173.596 18.899999999999636,173.596 C17.799999999999272,173.596 17.200000000000728,173.117 17.200000000000728,172.159 C17.200000000000728,171.732 17.399999999999636,171.19 17.600000000000364,170.534 C17.899999999999636,169.909 18.299999999999272,169.435 18.700000000000728,169.112 C19.700000000000728,168.435 21.0,168.096 22.5,168.096" />
<path d="M23.5,174.534 C23.5,174.315 23.5,174.128 23.299999999999272,173.971 C23.100000000000364,173.805 22.899999999999636,173.721 22.700000000000728,173.721 C22.299999999999272,173.721 21.5,174.112 20.299999999999272,174.893 C19.100000000000364,175.685 18.399999999999636,176.253 18.100000000000364,176.596 C17.899999999999636,176.774 17.899999999999636,176.961 17.899999999999636,177.159 C17.899999999999636,177.378 18.0,177.565 18.100000000000364,177.721 C18.299999999999272,177.888 18.5,177.971 18.700000000000728,177.971 C19.100000000000364,177.971 19.899999999999636,177.581 21.100000000000364,176.8 C22.299999999999272,176.018 23.0,175.451 23.299999999999272,175.096 C23.5,174.93 23.5,174.742 23.5,174.534 M22.5,173.096 C23.600000000000364,173.096 24.200000000000728,173.576 24.200000000000728,174.534 C24.200000000000728,175.003 24.0,175.55 23.799999999999272,176.175 C23.5,176.789 23.100000000000364,177.258 22.700000000000728,177.581 C21.700000000000728,178.258 20.399999999999636,178.596 18.899999999999636,178.596 C17.799999999999272,178.596 17.200000000000728,178.117 17.200000000000728,177.159 C17.200000000000728,176.732 17.399999999999636,176.19 17.600000000000364,175.534 C17.899999999999636,174.909 18.299999999999272,174.435 18.700000000000728,174.112 C19.700000000000728,173.435 21.0,173.096 22.5,173.096" />
<path d="M23.5,182.034 C23.5,181.815 23.5,181.628 23.299999999999272,181.471 C23.100000000000364,181.305 22.899999999999636,181.221 22.700000000000728,181.221 C22.299999999999272,181.221 21.5,181.612 20.299999999999272,182.393 C19.100000000000364,183.185 18.399999999999636,183.753 18.100000000000364,184.096 C17.899999999999636,184.274 17.899999999999636,184.461 17.899999999999636,184.659 C17.899999999999636,184.878 18.0,185.065 18.100000000000364,185.221 C18.299999999999272,185.388 18.5,185.471 18.700000000000728,185.471 C19.100000000000364,185.471 19.899999999999636,185.081 21.100000000000364,184.3 C22.299999999999272,183.518 23.0,182.951 23.299999999999272,182.596 C23.5,182.43 23.5,182.242 23.5,182.034 M22.5,180.596 C23.600000000000364,180.596 24.200000000000728,181.076 24.200000000000728,182.034 C24.200000000000728,182.503 24.0,183.05 23.799999999999272,183.675 C23.5,184.289 23.100000000000364,184.758 22.700000000000728,185.081 C21.700000000000728,185.758 20.399999999999636,186.096 18.899999999999636,186.096 C17.799999999999272,186.096 17.200000000000728,185.617 17.200000000000728,184.659 C17.200000000000728,184.232 17.399999999999636,183.69 17.600000000000364,183.034 C17.899999999999636,182.409 18.299999999999272,181.935 18.700000000000728,181.612 C19.700000000000728,180.935 21.0,180.596 22.5,180.596" />
<path d="M23.5,192.034 C23.5,191.815 23.5,191.628 23.299999999999272,191.471 C23.100000000000364,191.305 22.899999999999636,191.221 22.700000000000728,191.221 C22.299999999999272,191.221 21.5,191.612 20.299999999999272,192.393 C19.100000000000364,193.185 18.399999999999636,193.753 18.100000000000364,194.096 C17.899999999999636,194.274 17.899999999999636,194.461 17.899999999999636,194.659 C17.899999999999636,194.878 18.0,195.065 18.100000000000364,195.221 C18.299999999999272,195.388 18.5,195.471 18.700000000000728,195.471 C19.100000000000364,195.471 19.899999999999636,195.081 21.100000000000364,194.3 C22.299999999999272,193.518 23.0,192.951 23.299999999999272,192.596 C23.5,192.43 23.5,192.242 23.5,192.034 M22.5,190.596 C23.600000000000364,190.596 24.200000000000728,191.076 24.200000000000728,192.034 C24.200000000000728,192.503 24.0,193.05 23.799999999999272,193.675 C23.5,194.289 23.100000000000364,194.758 22.700000000000728,195.081 C21.700000000000728,195.758 20.399999999999636,196.096 18.899999999999636,196.096 C17.799999999999272,196.096 17.200000000000728,195.617 17.200000000000728,194.659 C17.200000000000728,194.232 17.399999999999636,193.69 17.600000000000364,193.034 C17.899999999999636,192.409 18.299999999999272,191.935 18.700000000000728,191.612 C19.700000000000728,190.935 21.0,190.596 22.5,190.596" />
<path d="M17.299999999999272,124.284 C17.299999999999272,124.044 17.399999999999636,123.784 17.700000000000728,123.503 C17.899999999999636,123.294 18.200000000000728,123.044 18.5,122.753 C18.799999999999272,122.565 19.100000000000364,122.274 19.399999999999636,121.878 C19.600000000000364,121.503 19.799999999999272,121.091 19.799999999999272,120.643 C19.799999999999272,120.122 19.600000000000364,119.664 19.299999999999272,119.268 L18.600000000000364,118.425 C18.5,118.372 18.5,118.307 18.5,118.229 C18.5,118.151 18.5,118.081 18.600000000000364,118.018 C18.700000000000728,117.945 18.799999999999272,117.909 18.799999999999272,117.909 C18.899999999999636,117.909 19.0,117.951 19.0,118.034 L22.100000000000364,121.628 C22.200000000000728,121.794 22.299999999999272,121.961 22.299999999999272,122.128 C22.299999999999272,122.367 22.100000000000364,122.628 21.899999999999636,122.909 C21.700000000000728,123.096 21.399999999999636,123.346 21.0,123.659 C20.700000000000728,123.836 20.5,124.128 20.200000000000728,124.534 C19.899999999999636,124.909 19.799999999999272,125.32 19.799999999999272,125.768 C19.799999999999272,126.32 19.899999999999636,126.784 20.299999999999272,127.159 L21.899999999999636,129.128 C22.0,129.169 22.0,129.237 22.0,129.331 C22.0,129.414 22.0,129.492 21.899999999999636,129.565 C21.799999999999272,129.628 21.799999999999272,129.659 21.700000000000728,129.659 C21.700000000000728,129.659 21.600000000000364,129.586 21.399999999999636,129.44 C21.200000000000728,129.284 20.899999999999636,129.133 20.600000000000364,128.987 C20.200000000000728,128.852 19.899999999999636,128.784 19.5,128.784 C19.200000000000728,128.784 18.899999999999636,128.872 18.700000000000728,129.05 C18.600000000000364,129.237 18.5,129.591 18.5,130.112 C18.5,130.904 18.700000000000728,131.529 19.0,131.987 C19.100000000000364,132.039 19.100000000000364,132.102 19.0,132.175 C19.0,132.227 19.0,132.253 18.899999999999636,132.253 C18.799999999999272,132.253 18.600000000000364,132.018 18.299999999999272,131.55 C18.0,131.06 17.700000000000728,130.492 17.399999999999636,129.846 C17.100000000000364,129.169 16.899999999999636,128.612 16.899999999999636,128.175 C16.899999999999636,127.612 17.200000000000728,127.331 17.700000000000728,127.331 C18.299999999999272,127.331 19.100000000000364,127.539 20.100000000000364,127.956 L17.5,124.784 C17.299999999999272,124.617 17.299999999999272,124.451 17.299999999999272,124.284" />
<path d="M17.299999999999272,71.784 C17.299999999999272,71.5444 17.399999999999636,71.284 17.700000000000728,71.0027 C17.899999999999636,70.7944 18.200000000000728,70.5444 18.5,70.2527 C18.799999999999272,70.0652 19.100000000000364,69.7735 19.399999999999636,69.3777 C19.600000000000364,69.0027 19.799999999999272,68.5912 19.799999999999272,68.1433 C19.799999999999272,67.6225 19.600000000000364,67.1642 19.299999999999272,66.7683 L18.600000000000364,65.9246 C18.5,65.8725 18.5,65.8074 18.5,65.7293 C18.5,65.6511 18.5,65.5808 18.600000000000364,65.5183 C18.700000000000728,65.4454 18.799999999999272,65.409 18.799999999999272,65.409 C18.899999999999636,65.409 19.0,65.4506 19.0,65.534 L22.100000000000364,69.1277 C22.200000000000728,69.2944 22.299999999999272,69.461 22.299999999999272,69.6277 C22.299999999999272,69.8673 22.100000000000364,70.1277 21.899999999999636,70.409 C21.700000000000728,70.5965 21.399999999999636,70.8465 21.0,71.159 C20.700000000000728,71.336 20.5,71.6277 20.200000000000728,72.034 C19.899999999999636,72.409 19.799999999999272,72.8204 19.799999999999272,73.2683 C19.799999999999272,73.8204 19.899999999999636,74.284 20.299999999999272,74.659 L21.899999999999636,76.6277 C22.0,76.6694 22.0,76.7371 22.0,76.8308 C22.0,76.9142 22.0,76.9923 21.899999999999636,77.0652 C21.799999999999272,77.1277 21.799999999999272,77.159 21.700000000000728,77.159 C21.700000000000728,77.159 21.600000000000364,77.086 21.399999999999636,76.9402 C21.200000000000728,76.784 20.899999999999636,76.6329 20.600000000000364,76.4871 C20.200000000000728,76.3517 19.899999999999636,76.284 19.5,76.284 C19.200000000000728,76.284 18.899999999999636,76.3725 18.700000000000728,76.5496 C18.600000000000364,76.7371 18.5,77.0912 18.5,77.6121 C18.5,78.4037 18.700000000000728,79.0287 19.0,79.4871 C19.100000000000364,79.5392 19.100000000000364,79.6017 19.0,79.6746 C19.0,79.7267 19.0,79.7527 18.899999999999636,79.7527 C18.799999999999272,79.7527 18.600000000000364,79.5183 18.299999999999272,79.0496 C18.0,78.56 17.700000000000728,77.9923 17.399999999999636,77.3465 C17.100000000000364,76.6694 16.899999999999636,76.1121 16.899999999999636,75.6746 C16.899999999999636,75.1121 17.200000000000728,74.8308 17.700000000000728,74.8308 C18.299999999999272,74.8308 19.100000000000364,75.0392 20.100000000000364,75.4558 L17.5,72.284 C17.299999999999272,72.1173 17.299999999999272,71.9506 17.299999999999272,71.784" />
<path d="M208.70000000000073,219.596 L245.0,219.596 L245.0,222.096 L208.70000000000073,222.096 L208.70000000000073,219.596" />
<path d="M208.70000000000073,223.346 L227.20000000000073,223.346 L227.20000000000073,225.846 L208.70000000000073,225.846 L208.70000000000073,223.346" />
<path d="M151.70000000000073,219.596 L180.79999999999927,219.596 L180.79999999999927,222.096 L151.70000000000073,222.096 L151.70000000000073,219.596" />
<path d="M145.70000000000073,124.596 L239.10000000000036,123.338 L239.10000000000036,125.838 L145.70000000000073,127.096 L145.70000000000073,124.596" />
<path d="M151.70000000000073,53.3465 L245.0,53.3465 L245.0,55.8465 L151.70000000000073,55.8465 L151.70000000000073,53.3465" />
<path d="M80.39999999999964,215.801 L134.5,219.596 L134.5,222.096 L80.39999999999964,218.301 L80.39999999999964,215.801" />
<path d="M134.5,223.346 L127.89999999999964,222.884 L127.89999999999964,225.384 L134.5,225.846 L134.5,223.346" />
<path d="M74.39999999999964,123.346 L110.70000000000073,124.619 L110.70000000000073,127.119 L74.39999999999964,125.846 L74.39999999999964,123.346" />
<path d="M74.39999999999964,119.596 L92.89999999999964,120.244 L92.89999999999964,122.744 L74.39999999999964,122.096 L74.39999999999964,119.596" />
<path d="M74.39999999999964,80.8465 L110.70000000000073,87.2104 L110.70000000000073,89.7104 L74.39999999999964,83.3465 L74.39999999999964,80.8465" />
<path d="M74.39999999999964,77.0965 L92.89999999999964,80.3354 L92.89999999999964,82.8354 L74.39999999999964,79.5965 L74.39999999999964,77.0965" />
<path d="M83.10000000000036,234.151 C82.89999999999964,233.927 82.79999999999927,233.659 82.79999999999927,233.346 C82.79999999999927,233.034 82.89999999999964,232.766 83.10000000000036,232.542 C83.29999999999927,232.318 83.60000000000036,232.206 83.89999999999964,232.206 C84.20000000000073,232.206 84.5,232.318 84.70000000000073,232.542 C84.89999999999964,232.766 85.0,233.034 85.0,233.346 C85.0,233.659 84.89999999999964,233.927 84.70000000000073,234.151 C84.5,234.375 84.20000000000073,234.487 83.89999999999964,234.487 C83.60000000000036,234.487 83.29999999999927,234.375 83.10000000000036,234.151" />
<polyline points="0.0,63.3465 255.0,63.3465" fill="none" stroke="#000000" stroke-width="0.40" />
<polyline points="0.0,68.3465 255.0,68.3465" fill="none" stroke="#000000" stroke-width="0.40" />
<polyline points="0.0,73.3465 255.0,73.3465" fill="none" stroke="#000000" stroke-width="0.40" />
<polyline points="0.0,78.3465 255.0,78.3465" fill="none" stroke="#000000" stroke-width="0.40" />
<polyline points="0.0,83.3465 255.0,83.3465" fill="none" stroke="#000000" stroke-width="0.40" />
<polyline points="0.0,115.846 255.0,115.846" fill="none" stroke="#000000" stroke-width="0.40" />
<polyline points="0.0,120.846 255.0,120.846" fill="none" stroke="#000000" stroke-width="0.40" />
<polyline points="0.0,125.846 255.0,125.846" fill="none" stroke="#000000" stroke-width="0.40" />
<polyline points="0.0,130.846 255.0,130.846" fill="none" stroke="#000000" stroke-width="0.40" />
<polyline points="0.0,135.846 255.0,135.846" fill="none" stroke="#000000" stroke-width="0.40" />
<polyline points="0.0,168.346 255.0,168.346" fill="none" stroke="#000000" stroke-width="0.40" />
<polyline points="0.0,173.346 255.0,173.346" fill="none" stroke="#000000" stroke-width="0.40" />
<polyline points="0.0,178.346 255.0,178.346" fill="none" stroke="#000000" stroke-width="0.40" />
<polyline points="0.0,183.346 255.0,183.346" fill="none" stroke="#000000" stroke-width="0.40" />
<polyline points="0.0,188.346 255.0,188.346" fill="none" stroke="#000000" stroke-width="0.40" />
<polyline points="0.0,220.846 255.0,220.846" fill="none" stroke="#000000" stroke-width="0.40" />
<polyline points="0.0,225.846 255.0,225.846" fill="none" stroke="#000000" stroke-width="0.40" />
<polyline points="0.0,230.846 255.0,230.846" fill="none" stroke="#000000" stroke-width="0.40" />
<polyline points="0.0,235.846 255.0,235.846" fill="none" stroke="#000000" stroke-width="0.40" />
<polyline points="0.0,240.846 255.0,240.846" fill="none" stroke="#000000" stroke-width="0.40" />
<polyline points="8.700000000000728,220.846 8.700000000000728,240.846" fill="" stroke="#000000" stroke-width="0.80" />
<polyline points="8.700000000000728,168.346 8.700000000000728,188.346" fill="" stroke="#000000" stroke-width="0.80" />
<polyline points="8.700000000000728,115.846 8.700000000000728,135.846" fill="" stroke="#000000" stroke-width="0.80" />
<polyline points="8.700000000000728,63.3465 8.700000000000728,83.3465" fill="" stroke="#000000" stroke-width="0.80" />
<polyline points="244.70000000000073,234.907 244.70000000000073,220.846" fill="" stroke="#000000" stroke-width="0.65" />
<polyline points="238.70000000000073,96.7855 238.70000000000073,124.596" fill="" stroke="#000000" stroke-width="0.65" />
<polyline points="244.70000000000073,72.4074 244.70000000000073,54.5965" fill="" stroke="#000000" stroke-width="0.65" />
<polyline points="226.79999999999927,239.907 226.79999999999927,220.846" fill="" stroke="#000000" stroke-width="0.65" />
<polyline points="209.0,234.907 209.0,220.846" fill="" stroke="#000000" stroke-width="0.65" />
<polyline points="203.10000000000036,91.7855 203.10000000000036,125.077" fill="" stroke="#000000" stroke-width="0.65" />
<polyline points="209.0,67.4074 209.0,54.5965" fill="" stroke="#000000" stroke-width="0.65" />
<polyline points="180.5,234.907 180.5,220.846" fill="" stroke="#000000" stroke-width="0.65" />
<polyline points="174.60000000000036,96.7855 174.60000000000036,125.462" fill="" stroke="#000000" stroke-width="0.65" />
<polyline points="180.5,72.4074 180.5,54.5965" fill="" stroke="#000000" stroke-width="0.65" />
<polyline points="152.0,234.907 152.0,220.846" fill="" stroke="#000000" stroke-width="0.65" />
<polyline points="152.20000000000073,195.078 152.20000000000073,158.971" fill="" stroke="#000000" stroke-width="0.65" />
<polyline points="146.0,104.286 146.0,125.846" fill="" stroke="#000000" stroke-width="0.65" />
<polyline points="152.0,79.9074 152.0,54.5965" fill="" stroke="#000000" stroke-width="0.65" />
<polyline points="134.20000000000073,239.907 134.20000000000073,220.846" fill="" stroke="#000000" stroke-width="0.65" />
<polyline points="110.39999999999964,96.7855 110.39999999999964,125.846" fill="" stroke="#000000" stroke-width="0.65" />
<polyline points="110.39999999999964,74.2855 110.39999999999964,88.3465" fill="" stroke="#000000" stroke-width="0.65" />
<polyline points="92.60000000000036,89.2855 92.60000000000036,125.221" fill="" stroke="#000000" stroke-width="0.65" />
<polyline points="92.60000000000036,66.7855 92.60000000000036,85.2215" fill="" stroke="#000000" stroke-width="0.65" />
<polyline points="80.70000000000073,232.407 80.70000000000073,217.096" fill="" stroke="#000000" stroke-width="0.65" />
<polyline points="74.79999999999927,86.7855 74.79999999999927,124.596" fill="" stroke="#000000" stroke-width="0.65" />
<polyline points="74.79999999999927,64.2855 74.79999999999927,82.0965" fill="" stroke="#000000" stroke-width="0.65" />
<polyline points="23.700000000000728,232.407 23.700000000000728,217.096" fill="" stroke="#000000" stroke-width="0.65" />
<polyline points="23.799999999999272,192.578 23.799999999999272,157.096" fill="" stroke="#000000" stroke-width="0.65" />
<polyline points="236.89999999999964,95.8465 246.5,95.8465" fill="" stroke="#000000" stroke-width="0.80" />
<polyline points="236.89999999999964,100.846 246.5,100.846" fill="" stroke="#000000" stroke-width="0.80" />
<polyline points="236.89999999999964,105.846 246.5,105.846" fill="" stroke="#000000" stroke-width="0.80" />
<polyline points="236.89999999999964,110.846 246.5,110.846" fill="" stroke="#000000" stroke-width="0.80" />
<polyline points="201.29999999999927,90.8465 210.79999999999927,90.8465" fill="" stroke="#000000" stroke-width="0.80" />
<polyline points="201.29999999999927,95.8465 210.79999999999927,95.8465" fill="" stroke="#000000" stroke-width="0.80" />
<polyline points="201.29999999999927,100.846 210.79999999999927,100.846" fill="" stroke="#000000" stroke-width="0.80" />
<polyline points="201.29999999999927,105.846 210.79999999999927,105.846" fill="" stroke="#000000" stroke-width="0.80" />
<polyline points="201.29999999999927,110.846 210.79999999999927,110.846" fill="" stroke="#000000" stroke-width="0.80" />
<polyline points="172.70000000000073,95.8465 182.29999999999927,95.8465" fill="" stroke="#000000" stroke-width="0.80" />
<polyline points="172.70000000000073,100.846 182.29999999999927,100.846" fill="" stroke="#000000" stroke-width="0.80" />
<polyline points="172.70000000000073,105.846 182.29999999999927,105.846" fill="" stroke="#000000" stroke-width="0.80" />
<polyline points="172.70000000000073,110.846 182.29999999999927,110.846" fill="" stroke="#000000" stroke-width="0.80" />
<polyline points="144.0,193.346 154.0,193.346" fill="" stroke="#000000" stroke-width="0.80" />
<polyline points="144.20000000000073,105.846 153.79999999999927,105.846" fill="" stroke="#000000" stroke-width="0.80" />
<polyline points="144.20000000000073,110.846 153.79999999999927,110.846" fill="" stroke="#000000" stroke-width="0.80" />
<polyline points="108.60000000000036,95.8465 118.20000000000073,95.8465" fill="" stroke="#000000" stroke-width="0.80" />
<polyline points="108.60000000000036,100.846 118.20000000000073,100.846" fill="" stroke="#000000" stroke-width="0.80" />
<polyline points="108.60000000000036,105.846 118.20000000000073,105.846" fill="" stroke="#000000" stroke-width="0.80" />
<polyline points="108.60000000000036,110.846 118.20000000000073,110.846" fill="" stroke="#000000" stroke-width="0.80" />
<polyline points="90.79999999999927,90.8465 100.29999999999927,90.8465" fill="" stroke="#000000" stroke-width="0.80" />
<polyline points="90.79999999999927,95.8465 100.29999999999927,95.8465" fill="" stroke="#000000" stroke-width="0.80" />
<polyline points="90.79999999999927,100.846 100.29999999999927,100.846" fill="" stroke="#000000" stroke-width="0.80" />
<polyline points="90.79999999999927,105.846 100.29999999999927,105.846" fill="" stroke="#000000" stroke-width="0.80" />
<polyline points="90.79999999999927,110.846 100.29999999999927,110.846" fill="" stroke="#000000" stroke-width="0.80" />
<polyline points="72.89999999999964,85.8465 82.5,85.8465" fill="" stroke="#000000" stroke-width="0.80" />
<polyline points="72.89999999999964,90.8465 82.5,90.8465" fill="" stroke="#000000" stroke-width="0.80" />
<polyline points="72.89999999999964,95.8465 82.5,95.8465" fill="" stroke="#000000" stroke-width="0.80" />
<polyline points="72.89999999999964,100.846 82.5,100.846" fill="" stroke="#000000" stroke-width="0.80" />
<polyline points="72.89999999999964,105.846 82.5,105.846" fill="" stroke="#000000" stroke-width="0.80" />
<polyline points="72.89999999999964,110.846 82.5,110.846" fill="" stroke="#000000" stroke-width="0.80" />
<polyline points="15.700000000000728,193.346 25.700000000000728,193.346" fill="" stroke="#000000" stroke-width="0.80" />
</svg>
