<?xml version="1.0" encoding="UTF-8" standalone="yes"?>
<svg width="256.0px" height="256.0px" xmlns="http://www.w3.org/2000/svg" xmlns:xlink="http://www.w3.org/1999/xlink" version="1.2" baseProfile="tiny">
<path d="M145.1800000000003,138.596 C156.73999999999978,131.69600000000003 191.39999999999964,131.69600000000003 202.96000000000004,138.596 C191.39999999999964,132.49599999999998 156.73999999999978,132.49599999999998 145.1800000000003,138.596" />
<path d="M145.1800000000003,116.096 C156.73999999999978,109.19600000000003 191.39999999999964,109.19600000000003 202.96000000000004,116.096 C191.39999999999964,109.99599999999998 156.73999999999978,109.99599999999998 145.1800000000003,116.096" />
<path d="M104.65999999999985,226.51799999999997 L104.65999999999985,228.065 C104.65999999999985,228.61700000000002 104.6899999999996,229.055 104.73999999999978,229.378 C105.17000000000007,229.01299999999998 105.47000000000025,228.74200000000002 105.65999999999985,228.565 C105.86999999999989,228.35700000000003 106.07999999999993,228.06799999999998 106.28999999999996,227.69799999999998 C106.48999999999978,227.32799999999997 106.60000000000036,226.961 106.60000000000036,226.596 C106.60000000000036,226.23200000000003 106.52000000000044,225.91899999999998 106.35999999999967,225.659 C106.21000000000004,225.399 106.0,225.26799999999997 105.73999999999978,225.26799999999997 C105.43000000000029,225.26799999999997 105.17000000000007,225.38799999999998 104.96000000000004,225.628 C104.76000000000022,225.88799999999998 104.65999999999985,226.185 104.65999999999985,226.51799999999997 M103.82999999999993,230.096 L103.57999999999993,218.20600000000002 C103.77000000000044,218.10199999999998 103.96000000000004,218.05 104.14000000000033,218.05 C104.31999999999971,218.05 104.5,218.10199999999998 104.68000000000029,218.20600000000002 L104.52000000000044,225.096 C105.05000000000018,224.63799999999998 105.67000000000007,224.409 106.35999999999967,224.409 C106.85999999999967,224.409 107.27999999999975,224.61700000000002 107.61999999999989,225.034 C107.96000000000004,225.45100000000002 108.13000000000011,225.93 108.13000000000011,226.471 C108.13000000000011,226.805 108.02000000000044,227.164 107.80000000000018,227.55 C107.59000000000015,227.89299999999997 107.36999999999989,228.164 107.14999999999964,228.36200000000002 C107.01000000000022,228.466 106.68000000000029,228.72699999999998 106.14999999999964,229.14299999999997 C105.98999999999978,229.25799999999998 105.80000000000018,229.39299999999997 105.59000000000015,229.55 C105.38000000000011,229.70600000000002 105.23999999999978,229.805 105.1899999999996,229.846 C105.10000000000036,229.899 105.01000000000022,230.003 104.93000000000029,230.159 C104.84000000000015,230.29399999999998 104.73999999999978,230.404 104.60999999999967,230.48700000000002 C104.52999999999975,230.57 104.42000000000007,230.61200000000002 104.28999999999996,230.61200000000002 C104.15999999999985,230.61200000000002 104.0600000000004,230.565 103.97000000000025,230.471 C103.88000000000011,230.378 103.82999999999993,230.253 103.82999999999993,230.096" />
<path d="M104.65999999999985,244.01799999999997 L104.65999999999985,245.565 C104.65999999999985,246.11700000000002 104.6899999999996,246.555 104.73999999999978,246.878 C105.17000000000007,246.51299999999998 105.47000000000025,246.24200000000002 105.65999999999985,246.065 C105.86999999999989,245.85700000000003 106.07999999999993,245.56799999999998 106.28999999999996,245.19799999999998 C106.48999999999978,244.82799999999997 106.60000000000036,244.461 106.60000000000036,244.096 C106.60000000000036,243.73200000000003 106.52000000000044,243.41899999999998 106.35999999999967,243.159 C106.21000000000004,242.899 106.0,242.76799999999997 105.73999999999978,242.76799999999997 C105.43000000000029,242.76799999999997 105.17000000000007,242.88799999999998 104.96000000000004,243.128 C104.76000000000022,243.38799999999998 104.65999999999985,243.685 104.65999999999985,244.01799999999997 M103.82999999999993,247.596 L103.57999999999993,235.70600000000002 C103.77000000000044,235.60199999999998 103.96000000000004,235.55 104.14000000000033,235.55 C104.31999999999971,235.55 104.5,235.60199999999998 104.68000000000029,235.70600000000002 L104.52000000000044,242.596 C105.05000000000018,242.13799999999998 105.67000000000007,241.909 106.35999999999967,241.909 C106.85999999999967,241.909 107.27999999999975,242.11700000000002 107.61999999999989,242.534 C107.96000000000004,242.95100000000002 108.13000000000011,243.43 108.13000000000011,243.971 C108.13000000000011,244.305 108.02000000000044,244.664 107.80000000000018,245.05 C107.59000000000015,245.39299999999997 107.36999999999989,245.664 107.14999999999964,245.86200000000002 C107.01000000000022,245.966 106.68000000000029,246.22699999999998 106.14999999999964,246.64299999999997 C105.98999999999978,246.75799999999998 105.80000000000018,246.89299999999997 105.59000000000015,247.05 C105.38000000000011,247.20600000000002 105.23999999999978,247.305 105.1899999999996,247.346 C105.10000000000036,247.399 105.01000000000022,247.503 104.93000000000029,247.659 C104.84000000000015,247.79399999999998 104.73999999999978,247.904 104.60999999999967,247.98700000000002 C104.52999999999975,248.07 104.42000000000007,248.11200000000002 104.28999999999996,248.11200000000002 C104.15999999999985,248.11200000000002 104.0600000000004,248.065 103.97000000000025,247.971 C103.88000000000011,247.878 103.82999999999993,247.753 103.82999999999993,247.596" />
<path d="M191.23999999999978,219.596 C191.85999999999967,219.596 192.39000000000033,219.75799999999998 192.82999999999993,220.08100000000002 C193.22999999999956,220.435 193.42000000000007,220.878 193.42000000000007,221.409 C193.42000000000007,222.305 192.97000000000025,223.14299999999997 192.05000000000018,223.925 C191.10999999999967,224.70600000000002 190.10999999999967,225.096 189.02999999999975,225.096 C188.40999999999985,225.096 187.8800000000001,224.935 187.46000000000004,224.61200000000002 C187.05000000000018,224.25799999999998 186.85000000000036,223.815 186.85000000000036,223.284 C186.85000000000036,222.38799999999998 187.3100000000004,221.55 188.25,220.76799999999997 C189.17000000000007,219.98700000000002 190.15999999999985,219.596 191.23999999999978,219.596" />
<path d="M191.23999999999978,224.596 C191.85999999999967,224.596 192.39000000000033,224.75799999999998 192.82999999999993,225.08100000000002 C193.22999999999956,225.435 193.42000000000007,225.878 193.42000000000007,226.409 C193.42000000000007,227.305 192.97000000000025,228.14299999999997 192.05000000000018,228.925 C191.10999999999967,229.70600000000002 190.10999999999967,230.096 189.02999999999975,230.096 C188.40999999999985,230.096 187.8800000000001,229.935 187.46000000000004,229.61200000000002 C187.05000000000018,229.25799999999998 186.85000000000036,228.815 186.85000000000036,228.284 C186.85000000000036,227.38799999999998 187.3100000000004,226.55 188.25,225.76799999999997 C189.17000000000007,224.98700000000002 190.15999999999985,224.596 191.23999999999978,224.596" />
<path d="M191.23999999999978,232.096 C191.85999999999967,232.096 192.39000000000033,232.25799999999998 192.82999999999993,232.58100000000002 C193.22999999999956,232.935 193.42000000000007,233.378 193.42000000000007,233.909 C193.42000000000007,234.805 192.97000000000025,235.64299999999997 192.05000000000018,236.425 C191.10999999999967,237.20600000000002 190.10999999999967,237.596 189.02999999999975,237.596 C188.40999999999985,237.596 187.8800000000001,237.435 187.46000000000004,237.11200000000002 C187.05000000000018,236.75799999999998 186.85000000000036,236.315 186.85000000000036,235.784 C186.85000000000036,234.88799999999998 187.3100000000004,234.05 188.25,233.26799999999997 C189.17000000000007,232.48700000000002 190.15999999999985,232.096 191.23999999999978,232.096" />
<path d="M191.23999999999978,242.096 C191.85999999999967,242.096 192.39000000000033,242.25799999999998 192.82999999999993,242.58100000000002 C193.22999999999956,242.935 193.42000000000007,243.378 193.42000000000007,243.909 C193.42000000000007,244.805 192.97000000000025,245.64299999999997 192.05000000000018,246.425 C191.10999999999967,247.20600000000002 190.10999999999967,247.596 189.02999999999975,247.596 C188.40999999999985,247.596 187.8800000000001,247.435 187.46000000000004,247.11200000000002 C187.05000000000018,246.75799999999998 186.85000000000036,246.315 186.85000000000036,245.784 C186.85000000000036,244.88799999999998 187.3100000000004,244.05 188.25,243.26799999999997 C189.17000000000007,242.48700000000002 190.15999999999985,242.096 191.23999999999978,242.096" />
<path d="M175.92000000000007,219.596 C176.55000000000018,219.596 177.07999999999993,219.75799999999998 177.52000000000044,220.08100000000002 C177.90999999999985,220.435 178.10999999999967,220.878 178.10999999999967,221.409 C178.10999999999967,222.305 177.64999999999964,223.14299999999997 176.72999999999956,223.925 C175.80000000000018,224.70600000000002 174.78999999999996,225.096 173.72000000000025,225.096 C173.09000000000015,225.096 172.5699999999997,224.935 172.14000000000033,224.61200000000002 C171.72999999999956,224.25799999999998 171.52999999999975,223.815 171.52999999999975,223.284 C171.52999999999975,222.38799999999998 172.0,221.55 172.9399999999996,220.76799999999997 C173.85000000000036,219.98700000000002 174.85000000000036,219.596 175.92000000000007,219.596" />
<path d="M175.92000000000007,224.596 C176.55000000000018,224.596 177.07999999999993,224.75799999999998 177.52000000000044,225.08100000000002 C177.90999999999985,225.435 178.10999999999967,225.878 178.10999999999967,226.409 C178.10999999999967,227.305 177.64999999999964,228.14299999999997 176.72999999999956,228.925 C175.80000000000018,229.70600000000002 174.78999999999996,230.096 173.72000000000025,230.096 C173.09000000000015,230.096 172.5699999999997,229.935 172.14000000000033,229.61200000000002 C171.72999999999956,229.25799999999998 171.52999999999975,228.815 171.52999999999975,228.284 C171.52999999999975,227.38799999999998 172.0,226.55 172.9399999999996,225.76799999999997 C173.85000000000036,224.98700000000002 174.85000000000036,224.596 175.92000000000007,224.596" />
<path d="M175.92000000000007,232.096 C176.55000000000018,232.096 177.07999999999993,232.25799999999998 177.52000000000044,232.58100000000002 C177.90999999999985,232.935 178.10999999999967,233.378 178.10999999999967,233.909 C178.10999999999967,234.805 177.64999999999964,235.64299999999997 176.72999999999956,236.425 C175.80000000000018,237.20600000000002 174.78999999999996,237.596 173.72000000000025,237.596 C173.09000000000015,237.596 172.5699999999997,237.435 172.14000000000033,237.11200000000002 C171.72999999999956,236.75799999999998 171.52999999999975,236.315 171.52999999999975,235.784 C171.52999999999975,234.88799999999998 172.0,234.05 172.9399999999996,233.26799999999997 C173.85000000000036,232.48700000000002 174.85000000000036,232.096 175.92000000000007,232.096" />
<path d="M175.92000000000007,242.096 C176.55000000000018,242.096 177.07999999999993,242.25799999999998 177.52000000000044,242.58100000000002 C177.90999999999985,242.935 178.10999999999967,243.378 178.10999999999967,243.909 C178.10999999999967,244.805 177.64999999999964,245.64299999999997 176.72999999999956,246.425 C175.80000000000018,247.20600000000002 174.78999999999996,247.596 173.72000000000025,247.596 C173.09000000000015,247.596 172.5699999999997,247.435 172.14000000000033,247.11200000000002 C171.72999999999956,246.75799999999998 171.52999999999975,246.315 171.52999999999975,245.784 C171.52999999999975,244.88799999999998 172.0,244.05 172.9399999999996,243.26799999999997 C173.85000000000036,242.48700000000002 174.85000000000036,242.096 175.92000000000007,242.096" />
<path d="M145.28999999999996,219.596 C145.92000000000007,219.596 146.44999999999982,219.75799999999998 146.89000000000033,220.08100000000002 C147.27999999999975,220.435 147.47999999999956,220.878 147.47999999999956,221.409 C147.47999999999956,222.305 147.02000000000044,223.14299999999997 146.10999999999967,223.925 C145.17000000000007,224.70600000000002 144.15999999999985,225.096 143.09000000000015,225.096 C142.47000000000025,225.096 141.9399999999996,224.935 141.51000000000022,224.61200000000002 C141.10999999999967,224.25799999999998 140.89999999999964,223.815 140.89999999999964,223.284 C140.89999999999964,222.38799999999998 141.3699999999999,221.55 142.3100000000004,220.76799999999997 C143.22999999999956,219.98700000000002 144.22000000000025,219.596 145.28999999999996,219.596" />
<path d="M145.28999999999996,224.596 C145.92000000000007,224.596 146.44999999999982,224.75799999999998 146.89000000000033,225.08100000000002 C147.27999999999975,225.435 147.47999999999956,225.878 147.47999999999956,226.409 C147.47999999999956,227.305 147.02000000000044,228.14299999999997 146.10999999999967,228.925 C145.17000000000007,229.70600000000002 144.15999999999985,230.096 143.09000000000015,230.096 C142.47000000000025,230.096 141.9399999999996,229.935 141.51000000000022,229.61200000000002 C141.10999999999967,229.25799999999998 140.89999999999964,228.815 140.89999999999964,228.284 C140.89999999999964,227.38799999999998 141.3699999999999,226.55 142.3100000000004,225.76799999999997 C143.22999999999956,224.98700000000002 144.22000000000025,224.596 145.28999999999996,224.596" />
<path d="M145.28999999999996,232.096 C145.92000000000007,232.096 146.44999999999982,232.25799999999998 146.89000000000033,232.58100000000002 C147.27999999999975,232.935 147.47999999999956,233.378 147.47999999999956,233.909 C147.47999999999956,234.805 147.02000000000044,235.64299999999997 146.10999999999967,236.425 C145.17000000000007,237.20600000000002 144.15999999999985,237.596 143.09000000000015,237.596 C142.47000000000025,237.596 141.9399999999996,237.435 141.51000000000022,237.11200000000002 C141.10999999999967,236.75799999999998 140.89999999999964,236.315 140.89999999999964,235.784 C140.89999999999964,234.88799999999998 141.3699999999999,234.05 142.3100000000004,233.26799999999997 C143.22999999999956,232.48700000000002 144.22000000000025,232.096 145.28999999999996,232.096" />
<path d="M145.28999999999996,242.096 C145.92000000000007,242.096 146.44999999999982,242.25799999999998 146.89000000000033,242.58100000000002 C147.27999999999975,242.935 147.47999999999956,243.378 147.47999999999956,243.909 C147.47999999999956,244.805 147.02000000000044,245.64299999999997 146.10999999999967,246.425 C145.17000000000007,247.20600000000002 144.15999999999985,247.596 143.09000000000015,247.596 C142.47000000000025,247.596 141.9399999999996,247.435 141.51000000000022,247.11200000000002 C141.10999999999967,246.75799999999998 140.89999999999964,246.315 140.89999999999964,245.784 C140.89999999999964,244.88799999999998 141.3699999999999,244.05 142.3100000000004,243.26799999999997 C143.22999999999956,242.48700000000002 144.22000000000025,242.096 145.28999999999996,242.096" />
<path d="M145.28999999999996,139.596 C145.92000000000007,139.596 146.44999999999982,139.75799999999998 146.89000000000033,140.08100000000002 C147.27999999999975,140.435 147.47999999999956,140.878 147.47999999999956,141.409 C147.47999999999956,142.305 147.02000000000044,143.14299999999997 146.10999999999967,143.925 C145.17000000000007,144.70600000000002 144.15999999999985,145.096 143.09000000000015,145.096 C142.47000000000025,145.096 141.9399999999996,144.935 141.51000000000022,144.61200000000002 C141.10999999999967,144.25799999999998 140.89999999999964,143.815 140.89999999999964,143.284 C140.89999999999964,142.38799999999998 141.3699999999999,141.55 142.3100000000004,140.76799999999997 C143.22999999999956,139.98700000000002 144.22000000000025,139.596 145.28999999999996,139.596" />
<path d="M145.28999999999996,117.096 C145.92000000000007,117.096 146.44999999999982,117.25799999999998 146.89000000000033,117.58100000000002 C147.27999999999975,117.935 147.47999999999956,118.37799999999999 147.47999999999956,118.90899999999999 C147.47999999999956,119.805 147.02000000000044,120.64299999999997 146.10999999999967,121.42500000000001 C145.17000000000007,122.20600000000002 144.15999999999985,122.596 143.09000000000015,122.596 C142.47000000000025,122.596 141.9399999999996,122.435 141.51000000000022,122.11200000000002 C141.10999999999967,121.75799999999998 140.89999999999964,121.315 140.89999999999964,120.78399999999999 C140.89999999999964,119.88799999999998 141.3699999999999,119.05000000000001 142.3100000000004,118.26799999999997 C143.22999999999956,117.48700000000002 144.22000000000025,117.096 145.28999999999996,117.096" />
<path d="M114.65999999999985,219.596 C115.28999999999996,219.596 115.81999999999971,219.75799999999998 116.26000000000022,220.08100000000002 C116.64999999999964,220.435 116.85000000000036,220.878 116.85000000000036,221.409 C116.85000000000036,222.305 116.39000000000033,223.14299999999997 115.47999999999956,223.925 C114.53999999999996,224.70600000000002 113.52999999999975,225.096 112.46000000000004,225.096 C111.84000000000015,225.096 111.3100000000004,224.935 110.88000000000011,224.61200000000002 C110.47999999999956,224.25799999999998 110.27000000000044,223.815 110.27000000000044,223.284 C110.27000000000044,222.38799999999998 110.73999999999978,221.55 111.68000000000029,220.76799999999997 C112.60000000000036,219.98700000000002 113.59000000000015,219.596 114.65999999999985,219.596" />
<path d="M114.65999999999985,224.596 C115.28999999999996,224.596 115.81999999999971,224.75799999999998 116.26000000000022,225.08100000000002 C116.64999999999964,225.435 116.85000000000036,225.878 116.85000000000036,226.409 C116.85000000000036,227.305 116.39000000000033,228.14299999999997 115.47999999999956,228.925 C114.53999999999996,229.70600000000002 113.52999999999975,230.096 112.46000000000004,230.096 C111.84000000000015,230.096 111.3100000000004,229.935 110.88000000000011,229.61200000000002 C110.47999999999956,229.25799999999998 110.27000000000044,228.815 110.27000000000044,228.284 C110.27000000000044,227.38799999999998 110.73999999999978,226.55 111.68000000000029,225.76799999999997 C112.60000000000036,224.98700000000002 113.59000000000015,224.596 114.65999999999985,224.596" />
<path d="M114.65999999999985,232.096 C115.28999999999996,232.096 115.81999999999971,232.25799999999998 116.26000000000022,232.58100000000002 C116.64999999999964,232.935 116.85000000000036,233.378 116.85000000000036,233.909 C116.85000000000036,234.805 116.39000000000033,235.64299999999997 115.47999999999956,236.425 C114.53999999999996,237.20600000000002 113.52999999999975,237.596 112.46000000000004,237.596 C111.84000000000015,237.596 111.3100000000004,237.435 110.88000000000011,237.11200000000002 C110.47999999999956,236.75799999999998 110.27000000000044,236.315 110.27000000000044,235.784 C110.27000000000044,234.88799999999998 110.73999999999978,234.05 111.68000000000029,233.26799999999997 C112.60000000000036,232.48700000000002 113.59000000000015,232.096 114.65999999999985,232.096" />
<path d="M114.65999999999985,242.096 C115.28999999999996,242.096 115.81999999999971,242.25799999999998 116.26000000000022,242.58100000000002 C116.64999999999964,242.935 116.85000000000036,243.378 116.85000000000036,243.909 C116.85000000000036,244.805 116.39000000000033,245.64299999999997 115.47999999999956,246.425 C114.53999999999996,247.20600000000002 113.52999999999975,247.596 112.46000000000004,247.596 C111.84000000000015,247.596 111.3100000000004,247.435 110.88000000000011,247.11200000000002 C110.47999999999956,246.75799999999998 110.27000000000044,246.315 110.27000000000044,245.784 C110.27000000000044,244.88799999999998 110.73999999999978,244.05 111.68000000000029,243.26799999999997 C112.60000000000036,242.48700000000002 113.59000000000015,242.096 114.65999999999985,242.096" />
<path d="M114.65999999999985,129.596 C115.28999999999996,129.596 115.81999999999971,129.75799999999998 116.26000000000022,130.08100000000002 C116.64999999999964,130.435 116.85000000000036,130.878 116.85000000000036,131.409 C116.85000000000036,132.305 116.39000000000033,133.14299999999997 115.47999999999956,133.925 C114.53999999999996,134.70600000000002 113.52999999999975,135.096 112.46000000000004,135.096 C111.84000000000015,135.096 111.3100000000004,134.935 110.88000000000011,134.61200000000002 C110.47999999999956,134.25799999999998 110.27000000000044,133.815 110.27000000000044,133.284 C110.27000000000044,132.38799999999998 110.73999999999978,131.55 111.68000000000029,130.76799999999997 C112.60000000000036,129.98700000000002 113.59000000000015,129.596 114.65999999999985,129.596" />
<path d="M114.65999999999985,107.096 C115.28999999999996,107.096 115.81999999999971,107.25799999999998 116.26000000000022,107.58100000000002 C116.64999999999964,107.935 116.85000000000036,108.37799999999999 116.85000000000036,108.90899999999999 C116.85000000000036,109.805 116.39000000000033,110.64299999999997 115.47999999999956,111.42500000000001 C114.53999999999996,112.20600000000002 113.52999999999975,112.596 112.46000000000004,112.596 C111.84000000000015,112.596 111.3100000000004,112.435 110.88000000000011,112.11200000000002 C110.47999999999956,111.75799999999998 110.27000000000044,111.315 110.27000000000044,110.78399999999999 C110.27000000000044,109.88799999999998 110.73999999999978,109.05000000000001 111.68000000000029,108.26799999999997 C112.60000000000036,107.48700000000002 113.59000000000015,107.096 114.65999999999985,107.096" />
<path d="M99.32999999999993,132.096 C99.96000000000004,132.096 100.48999999999978,132.25799999999998 100.93000000000029,132.58100000000002 C101.31999999999971,132.935 101.52000000000044,133.378 101.52000000000044,133.909 C101.52000000000044,134.805 101.0600000000004,135.64299999999997 100.14000000000033,136.425 C99.21000000000004,137.20600000000002 98.19999999999982,137.596 97.13000000000011,137.596 C96.5,137.596 95.97999999999956,137.435 95.55000000000018,137.11200000000002 C95.14000000000033,136.75799999999998 94.9399999999996,136.315 94.9399999999996,135.784 C94.9399999999996,134.88799999999998 95.40999999999985,134.05 96.35000000000036,133.26799999999997 C97.26000000000022,132.48700000000002 98.26000000000022,132.096 99.32999999999993,132.096" />
<path d="M99.32999999999993,109.596 C99.96000000000004,109.596 100.48999999999978,109.75799999999998 100.93000000000029,110.08100000000002 C101.31999999999971,110.435 101.52000000000044,110.87799999999999 101.52000000000044,111.40899999999999 C101.52000000000044,112.305 101.0600000000004,113.14299999999997 100.14000000000033,113.92500000000001 C99.21000000000004,114.70600000000002 98.19999999999982,115.096 97.13000000000011,115.096 C96.5,115.096 95.97999999999956,114.935 95.55000000000018,114.61200000000002 C95.14000000000033,114.25799999999998 94.9399999999996,113.815 94.9399999999996,113.28399999999999 C94.9399999999996,112.38799999999998 95.40999999999985,111.55000000000001 96.35000000000036,110.76799999999997 C97.26000000000022,109.98700000000002 98.26000000000022,109.596 99.32999999999993,109.596" />
<path d="M80.65999999999985,132.096 C81.27999999999975,132.096 81.8100000000004,132.25799999999998 82.25,132.58100000000002 C82.64999999999964,132.935 82.85000000000036,133.378 82.85000000000036,133.909 C82.85000000000036,134.805 82.39000000000033,135.64299999999997 81.47000000000025,136.425 C80.52999999999975,137.20600000000002 79.52999999999975,137.596 78.44999999999982,137.596 C77.82999999999993,137.596 77.30000000000018,137.435 76.88000000000011,137.11200000000002 C76.47000000000025,136.75799999999998 76.27000000000044,136.315 76.27000000000044,135.784 C76.27000000000044,134.88799999999998 76.73999999999978,134.05 77.67000000000007,133.26799999999997 C78.59000000000015,132.48700000000002 79.57999999999993,132.096 80.65999999999985,132.096" />
<path d="M80.65999999999985,109.596 C81.27999999999975,109.596 81.8100000000004,109.75799999999998 82.25,110.08100000000002 C82.64999999999964,110.435 82.85000000000036,110.87799999999999 82.85000000000036,111.40899999999999 C82.85000000000036,112.305 82.39000000000033,113.14299999999997 81.47000000000025,113.92500000000001 C80.52999999999975,114.70600000000002 79.52999999999975,115.096 78.44999999999982,115.096 C77.82999999999993,115.096 77.30000000000018,114.935 76.88000000000011,114.61200000000002 C76.47000000000025,114.25799999999998 76.27000000000044,113.815 76.27000000000044,113.28399999999999 C76.27000000000044,112.38799999999998 76.73999999999978,111.55000000000001 77.67000000000007,110.76799999999997 C78.59000000000015,109.98700000000002 79.57999999999993,109.596 80.65999999999985,109.596" />
<path d="M64.22999999999956,219.128 L66.64000000000033,217.175 C66.69999999999982,217.122 66.76000000000022,217.096 66.8100000000004,217.096 C66.88000000000011,217.096 66.94999999999982,217.122 67.01000000000022,217.175 L67.42000000000007,217.48700000000002 C67.47999999999956,217.55 67.51000000000022,217.628 67.51000000000022,217.721 C67.51000000000022,217.784 67.47999999999956,217.86200000000002 67.42000000000007,217.95600000000002 L65.09000000000015,219.846 L67.42000000000007,221.73700000000002 C67.47999999999956,221.81 67.51000000000022,221.89100000000002 67.51000000000022,221.97899999999998 C67.51000000000022,222.06799999999998 67.47999999999956,222.14299999999997 67.42000000000007,222.20600000000002 L67.01000000000022,222.51799999999997 C66.94999999999982,222.57 66.88000000000011,222.596 66.8100000000004,222.596 C66.76000000000022,222.596 66.69999999999982,222.57 66.64000000000033,222.51799999999997 L64.22999999999956,220.565 L61.8100000000004,222.51799999999997 C61.75,222.57 61.6899999999996,222.596 61.64000000000033,222.596 C61.56999999999971,222.596 61.51000000000022,222.57 61.44999999999982,222.51799999999997 L61.029999999999745,222.20600000000002 C60.970000000000255,222.14299999999997 60.93000000000029,222.065 60.93000000000029,221.971 C60.93000000000029,221.909 60.970000000000255,221.83100000000002 61.029999999999745,221.73700000000002 L63.35999999999967,219.846 L61.029999999999745,217.95600000000002 C60.970000000000255,217.88299999999998 60.93000000000029,217.80200000000002 60.93000000000029,217.714 C60.93000000000029,217.625 60.970000000000255,217.55 61.029999999999745,217.48700000000002 L61.44999999999982,217.175 C61.51000000000022,217.122 61.56999999999971,217.096 61.64000000000033,217.096 C61.6899999999996,217.096 61.75,217.122 61.8100000000004,217.175 L64.22999999999956,219.128" />
<path d="M64.22999999999956,224.128 L66.64000000000033,222.175 C66.69999999999982,222.122 66.76000000000022,222.096 66.8100000000004,222.096 C66.88000000000011,222.096 66.94999999999982,222.122 67.01000000000022,222.175 L67.42000000000007,222.48700000000002 C67.47999999999956,222.55 67.51000000000022,222.628 67.51000000000022,222.721 C67.51000000000022,222.784 67.47999999999956,222.86200000000002 67.42000000000007,222.95600000000002 L65.09000000000015,224.846 L67.42000000000007,226.73700000000002 C67.47999999999956,226.81 67.51000000000022,226.89100000000002 67.51000000000022,226.97899999999998 C67.51000000000022,227.06799999999998 67.47999999999956,227.14299999999997 67.42000000000007,227.20600000000002 L67.01000000000022,227.51799999999997 C66.94999999999982,227.57 66.88000000000011,227.596 66.8100000000004,227.596 C66.76000000000022,227.596 66.69999999999982,227.57 66.64000000000033,227.51799999999997 L64.22999999999956,225.565 L61.8100000000004,227.51799999999997 C61.75,227.57 61.6899999999996,227.596 61.64000000000033,227.596 C61.56999999999971,227.596 61.51000000000022,227.57 61.44999999999982,227.51799999999997 L61.029999999999745,227.20600000000002 C60.970000000000255,227.14299999999997 60.93000000000029,227.065 60.93000000000029,226.971 C60.93000000000029,226.909 60.970000000000255,226.83100000000002 61.029999999999745,226.73700000000002 L63.35999999999967,224.846 L61.029999999999745,222.95600000000002 C60.970000000000255,222.88299999999998 60.93000000000029,222.80200000000002 60.93000000000029,222.714 C60.93000000000029,222.625 60.970000000000255,222.55 61.029999999999745,222.48700000000002 L61.44999999999982,222.175 C61.51000000000022,222.122 61.56999999999971,222.096 61.64000000000033,222.096 C61.6899999999996,222.096 61.75,222.122 61.8100000000004,222.175 L64.22999999999956,224.128" />
<path d="M64.22999999999956,231.628 L66.64000000000033,229.675 C66.69999999999982,229.622 66.76000000000022,229.596 66.8100000000004,229.596 C66.88000000000011,229.596 66.94999999999982,229.622 67.01000000000022,229.675 L67.42000000000007,229.98700000000002 C67.47999999999956,230.05 67.51000000000022,230.128 67.51000000000022,230.221 C67.51000000000022,230.284 67.47999999999956,230.36200000000002 67.42000000000007,230.45600000000002 L65.09000000000015,232.346 L67.42000000000007,234.23700000000002 C67.47999999999956,234.31 67.51000000000022,234.39100000000002 67.51000000000022,234.47899999999998 C67.51000000000022,234.56799999999998 67.47999999999956,234.64299999999997 67.42000000000007,234.70600000000002 L67.01000000000022,235.01799999999997 C66.94999999999982,235.07 66.88000000000011,235.096 66.8100000000004,235.096 C66.76000000000022,235.096 66.69999999999982,235.07 66.64000000000033,235.01799999999997 L64.22999999999956,233.065 L61.8100000000004,235.01799999999997 C61.75,235.07 61.6899999999996,235.096 61.64000000000033,235.096 C61.56999999999971,235.096 61.51000000000022,235.07 61.44999999999982,235.01799999999997 L61.029999999999745,234.70600000000002 C60.970000000000255,234.64299999999997 60.93000000000029,234.565 60.93000000000029,234.471 C60.93000000000029,234.409 60.970000000000255,234.33100000000002 61.029999999999745,234.23700000000002 L63.35999999999967,232.346 L61.029999999999745,230.45600000000002 C60.970000000000255,230.38299999999998 60.93000000000029,230.30200000000002 60.93000000000029,230.214 C60.93000000000029,230.125 60.970000000000255,230.05 61.029999999999745,229.98700000000002 L61.44999999999982,229.675 C61.51000000000022,229.622 61.56999999999971,229.596 61.64000000000033,229.596 C61.6899999999996,229.596 61.75,229.622 61.8100000000004,229.675 L64.22999999999956,231.628" />
<path d="M64.22999999999956,241.628 L66.64000000000033,239.675 C66.69999999999982,239.622 66.76000000000022,239.596 66.8100000000004,239.596 C66.88000000000011,239.596 66.94999999999982,239.622 67.01000000000022,239.675 L67.42000000000007,239.98700000000002 C67.47999999999956,240.05 67.51000000000022,240.128 67.51000000000022,240.221 C67.51000000000022,240.284 67.47999999999956,240.36200000000002 67.42000000000007,240.45600000000002 L65.09000000000015,242.346 L67.42000000000007,244.23700000000002 C67.47999999999956,244.31 67.51000000000022,244.39100000000002 67.51000000000022,244.47899999999998 C67.51000000000022,244.56799999999998 67.47999999999956,244.64299999999997 67.42000000000007,244.70600000000002 L67.01000000000022,245.01799999999997 C66.94999999999982,245.07 66.88000000000011,245.096 66.8100000000004,245.096 C66.76000000000022,245.096 66.69999999999982,245.07 66.64000000000033,245.01799999999997 L64.22999999999956,243.065 L61.8100000000004,245.01799999999997 C61.75,245.07 61.6899999999996,245.096 61.64000000000033,245.096 C61.56999999999971,245.096 61.51000000000022,245.07 61.44999999999982,245.01799999999997 L61.029999999999745,244.70600000000002 C60.970000000000255,244.64299999999997 60.93000000000029,244.565 60.93000000000029,244.471 C60.93000000000029,244.409 60.970000000000255,244.33100000000002 61.029999999999745,244.23700000000002 L63.35999999999967,242.346 L61.029999999999745,240.45600000000002 C60.970000000000255,240.38299999999998 60.93000000000029,240.30200000000002 60.93000000000029,240.214 C60.93000000000029,240.125 60.970000000000255,240.05 61.029999999999745,239.98700000000002 L61.44999999999982,239.675 C61.51000000000022,239.622 61.56999999999971,239.596 61.64000000000033,239.596 C61.6899999999996,239.596 61.75,239.622 61.8100000000004,239.675 L64.22999999999956,241.628" />
<path d="M65.31999999999971,134.596 C65.94999999999982,134.596 66.47999999999956,134.75799999999998 66.92000000000007,135.08100000000002 C67.3100000000004,135.435 67.51000000000022,135.878 67.51000000000022,136.409 C67.51000000000022,137.305 67.05000000000018,138.14299999999997 66.14000000000033,138.925 C65.19999999999982,139.70600000000002 64.1899999999996,140.096 63.11999999999989,140.096 C62.5,140.096 61.970000000000255,139.935 61.539999999999964,139.61200000000002 C61.14000000000033,139.25799999999998 60.93000000000029,138.815 60.93000000000029,138.284 C60.93000000000029,137.38799999999998 61.399999999999636,136.55 62.340000000000146,135.76799999999997 C63.26000000000022,134.98700000000002 64.25,134.596 65.31999999999971,134.596" />
<path d="M65.31999999999971,112.096 C65.94999999999982,112.096 66.47999999999956,112.25799999999998 66.92000000000007,112.58100000000002 C67.3100000000004,112.935 67.51000000000022,113.37799999999999 67.51000000000022,113.90899999999999 C67.51000000000022,114.805 67.05000000000018,115.64299999999997 66.14000000000033,116.42500000000001 C65.19999999999982,117.20600000000002 64.1899999999996,117.596 63.11999999999989,117.596 C62.5,117.596 61.970000000000255,117.435 61.539999999999964,117.11200000000002 C61.14000000000033,116.75799999999998 60.93000000000029,116.315 60.93000000000029,115.78399999999999 C60.93000000000029,114.88799999999998 61.399999999999636,114.05000000000001 62.340000000000146,113.26799999999997 C63.26000000000022,112.48700000000002 64.25,112.096 65.31999999999971,112.096" />
<path d="M48.92000000000007,219.128 L51.31999999999971,217.175 C51.39000000000033,217.122 51.4399999999996,217.096 51.48999999999978,217.096 C51.56999999999971,217.096 51.64000000000033,217.122 51.69999999999982,217.175 L52.100000000000364,217.48700000000002 C52.17000000000007,217.55 52.19999999999982,217.628 52.19999999999982,217.721 C52.19999999999982,217.784 52.17000000000007,217.86200000000002 52.100000000000364,217.95600000000002 L49.779999999999745,219.846 L52.100000000000364,221.73700000000002 C52.17000000000007,221.81 52.19999999999982,221.89100000000002 52.19999999999982,221.97899999999998 C52.19999999999982,222.06799999999998 52.17000000000007,222.14299999999997 52.100000000000364,222.20600000000002 L51.69999999999982,222.51799999999997 C51.64000000000033,222.57 51.56999999999971,222.596 51.48999999999978,222.596 C51.4399999999996,222.596 51.39000000000033,222.57 51.31999999999971,222.51799999999997 L48.92000000000007,220.565 L46.48999999999978,222.51799999999997 C46.43000000000029,222.57 46.36999999999989,222.596 46.31999999999971,222.596 C46.26000000000022,222.596 46.19999999999982,222.57 46.14000000000033,222.51799999999997 L45.710000000000036,222.20600000000002 C45.649999999999636,222.14299999999997 45.61999999999989,222.065 45.61999999999989,221.971 C45.61999999999989,221.909 45.649999999999636,221.83100000000002 45.710000000000036,221.73700000000002 L48.039999999999964,219.846 L45.710000000000036,217.95600000000002 C45.649999999999636,217.88299999999998 45.61999999999989,217.80200000000002 45.61999999999989,217.714 C45.61999999999989,217.625 45.649999999999636,217.55 45.710000000000036,217.48700000000002 L46.14000000000033,217.175 C46.19999999999982,217.122 46.26000000000022,217.096 46.31999999999971,217.096 C46.36999999999989,217.096 46.43000000000029,217.122 46.48999999999978,217.175 L48.92000000000007,219.128" />
<path d="M48.92000000000007,224.128 L51.31999999999971,222.175 C51.39000000000033,222.122 51.4399999999996,222.096 51.48999999999978,222.096 C51.56999999999971,222.096 51.64000000000033,222.122 51.69999999999982,222.175 L52.100000000000364,222.48700000000002 C52.17000000000007,222.55 52.19999999999982,222.628 52.19999999999982,222.721 C52.19999999999982,222.784 52.17000000000007,222.86200000000002 52.100000000000364,222.95600000000002 L49.779999999999745,224.846 L52.100000000000364,226.73700000000002 C52.17000000000007,226.81 52.19999999999982,226.89100000000002 52.19999999999982,226.97899999999998 C52.19999999999982,227.06799999999998 52.17000000000007,227.14299999999997 52.100000000000364,227.20600000000002 L51.69999999999982,227.51799999999997 C51.64000000000033,227.57 51.56999999999971,227.596 51.48999999999978,227.596 C51.4399999999996,227.596 51.39000000000033,227.57 51.31999999999971,227.51799999999997 L48.92000000000007,225.565 L46.48999999999978,227.51799999999997 C46.43000000000029,227.57 46.36999999999989,227.596 46.31999999999971,227.596 C46.26000000000022,227.596 46.19999999999982,227.57 46.14000000000033,227.51799999999997 L45.710000000000036,227.20600000000002 C45.649999999999636,227.14299999999997 45.61999999999989,227.065 45.61999999999989,226.971 C45.61999999999989,226.909 45.649999999999636,226.83100000000002 45.710000000000036,226.73700000000002 L48.039999999999964,224.846 L45.710000000000036,222.95600000000002 C45.649999999999636,222.88299999999998 45.61999999999989,222.80200000000002 45.61999999999989,222.714 C45.61999999999989,222.625 45.649999999999636,222.55 45.710000000000036,222.48700000000002 L46.14000000000033,222.175 C46.19999999999982,222.122 46.26000000000022,222.096 46.31999999999971,222.096 C46.36999999999989,222.096 46.43000000000029,222.122 46.48999999999978,222.175 L48.92000000000007,224.128" />
<path d="M48.92000000000007,231.628 L51.31999999999971,229.675 C51.39000000000033,229.622 51.4399999999996,229.596 51.48999999999978,229.596 C51.56999999999971,229.596 51.64000000000033,229.622 51.69999999999982,229.675 L52.100000000000364,229.98700000000002 C52.17000000000007,230.05 52.19999999999982,230.128 52.19999999999982,230.221 C52.19999999999982,230.284 52.17000000000007,230.36200000000002 52.100000000000364,230.45600000000002 L49.779999999999745,232.346 L52.100000000000364,234.23700000000002 C52.17000000000007,234.31 52.19999999999982,234.39100000000002 52.19999999999982,234.47899999999998 C52.19999999999982,234.56799999999998 52.17000000000007,234.64299999999997 52.100000000000364,234.70600000000002 L51.69999999999982,235.01799999999997 C51.64000000000033,235.07 51.56999999999971,235.096 51.48999999999978,235.096 C51.4399999999996,235.096 51.39000000000033,235.07 51.31999999999971,235.01799999999997 L48.92000000000007,233.065 L46.48999999999978,235.01799999999997 C46.43000000000029,235.07 46.36999999999989,235.096 46.31999999999971,235.096 C46.26000000000022,235.096 46.19999999999982,235.07 46.14000000000033,235.01799999999997 L45.710000000000036,234.70600000000002 C45.649999999999636,234.64299999999997 45.61999999999989,234.565 45.61999999999989,234.471 C45.61999999999989,234.409 45.649999999999636,234.33100000000002 45.710000000000036,234.23700000000002 L48.039999999999964,232.346 L45.710000000000036,230.45600000000002 C45.649999999999636,230.38299999999998 45.61999999999989,230.30200000000002 45.61999999999989,230.214 C45.61999999999989,230.125 45.649999999999636,230.05 45.710000000000036,229.98700000000002 L46.14000000000033,229.675 C46.19999999999982,229.622 46.26000000000022,229.596 46.31999999999971,229.596 C46.36999999999989,229.596 46.43000000000029,229.622 46.48999999999978,229.675 L48.92000000000007,231.628" />
<path d="M48.92000000000007,241.628 L51.31999999999971,239.675 C51.39000000000033,239.622 51.4399999999996,239.596 51.48999999999978,239.596 C51.56999999999971,239.596 51.64000000000033,239.622 51.69999999999982,239.675 L52.100000000000364,239.98700000000002 C52.17000000000007,240.05 52.19999999999982,240.128 52.19999999999982,240.221 C52.19999999999982,240.284 52.17000000000007,240.36200000000002 52.100000000000364,240.45600000000002 L49.779999999999745,242.346 L52.100000000000364,244.23700000000002 C52.17000000000007,244.31 52.19999999999982,244.39100000000002 52.19999999999982,244.47899999999998 C52.19999999999982,244.56799999999998 52.17000000000007,244.64299999999997 52.100000000000364,244.70600000000002 L51.69999999999982,245.01799999999997 C51.64000000000033,245.07 51.56999999999971,245.096 51.48999999999978,245.096 C51.4399999999996,245.096 51.39000000000033,245.07 51.31999999999971,245.01799999999997 L48.92000000000007,243.065 L46.48999999999978,245.01799999999997 C46.43000000000029,245.07 46.36999999999989,245.096 46.31999999999971,245.096 C46.26000000000022,245.096 46.19999999999982,245.07 46.14000000000033,245.01799999999997 L45.710000000000036,244.70600000000002 C45.649999999999636,244.64299999999997 45.61999999999989,244.565 45.61999999999989,244.471 C45.61999999999989,244.409 45.649999999999636,244.33100000000002 45.710000000000036,244.23700000000002 L48.039999999999964,242.346 L45.710000000000036,240.45600000000002 C45.649999999999636,240.38299999999998 45.61999999999989,240.30200000000002 45.61999999999989,240.214 C45.61999999999989,240.125 45.649999999999636,240.05 45.710000000000036,239.98700000000002 L46.14000000000033,239.675 C46.19999999999982,239.622 46.26000000000022,239.596 46.31999999999971,239.596 C46.36999999999989,239.596 46.43000000000029,239.622 46.48999999999978,239.675 L48.92000000000007,241.628" />
<path d="M34.89000000000033,217.096 C35.51000000000022,217.096 36.039999999999964,217.25799999999998 36.47999999999956,217.58100000000002 C36.88000000000011,217.935 37.06999999999971,218.378 37.06999999999971,218.909 C37.06999999999971,219.805 36.60999999999967,220.64299999999997 35.69999999999982,221.425 C34.76000000000022,222.20600000000002 33.76000000000022,222.596 32.68000000000029,222.596 C32.0600000000004,222.596 31.529999999999745,222.435 31.100000000000364,222.11200000000002 C30.699999999999818,221.75799999999998 30.5,221.315 30.5,220.784 C30.5,219.88799999999998 30.960000000000036,219.05 31.899999999999636,218.26799999999997 C32.81999999999971,217.48700000000002 33.8100000000004,217.096 34.89000000000033,217.096" />
<path d="M28.949999999999818,217.096 C29.579999999999927,217.096 30.109999999999673,217.25799999999998 30.550000000000182,217.58100000000002 C30.9399999999996,217.935 31.140000000000327,218.378 31.140000000000327,218.909 C31.140000000000327,219.805 30.68000000000029,220.64299999999997 29.770000000000437,221.425 C28.829999999999927,222.20600000000002 27.81999999999971,222.596 26.75,222.596 C26.11999999999989,222.596 25.600000000000364,222.435 25.170000000000073,222.11200000000002 C24.770000000000437,221.75799999999998 24.5600000000004,221.315 24.5600000000004,220.784 C24.5600000000004,219.88799999999998 25.029999999999745,219.05 25.970000000000255,218.26799999999997 C26.890000000000327,217.48700000000002 27.88000000000011,217.096 28.949999999999818,217.096" />
<path d="M28.949999999999818,222.096 C29.579999999999927,222.096 30.109999999999673,222.25799999999998 30.550000000000182,222.58100000000002 C30.9399999999996,222.935 31.140000000000327,223.378 31.140000000000327,223.909 C31.140000000000327,224.805 30.68000000000029,225.64299999999997 29.770000000000437,226.425 C28.829999999999927,227.20600000000002 27.81999999999971,227.596 26.75,227.596 C26.11999999999989,227.596 25.600000000000364,227.435 25.170000000000073,227.11200000000002 C24.770000000000437,226.75799999999998 24.5600000000004,226.315 24.5600000000004,225.784 C24.5600000000004,224.88799999999998 25.029999999999745,224.05 25.970000000000255,223.26799999999997 C26.890000000000327,222.48700000000002 27.88000000000011,222.096 28.949999999999818,222.096" />
<path d="M28.949999999999818,229.596 C29.579999999999927,229.596 30.109999999999673,229.75799999999998 30.550000000000182,230.08100000000002 C30.9399999999996,230.435 31.140000000000327,230.878 31.140000000000327,231.409 C31.140000000000327,232.305 30.68000000000029,233.14299999999997 29.770000000000437,233.925 C28.829999999999927,234.70600000000002 27.81999999999971,235.096 26.75,235.096 C26.11999999999989,235.096 25.600000000000364,234.935 25.170000000000073,234.61200000000002 C24.770000000000437,234.25799999999998 24.5600000000004,233.815 24.5600000000004,233.284 C24.5600000000004,232.38799999999998 25.029999999999745,231.55 25.970000000000255,230.76799999999997 C26.890000000000327,229.98700000000002 27.88000000000011,229.596 28.949999999999818,229.596" />
<path d="M28.949999999999818,239.596 C29.579999999999927,239.596 30.109999999999673,239.75799999999998 30.550000000000182,240.08100000000002 C30.9399999999996,240.435 31.140000000000327,240.878 31.140000000000327,241.409 C31.140000000000327,242.305 30.68000000000029,243.14299999999997 29.770000000000437,243.925 C28.829999999999927,244.70600000000002 27.81999999999971,245.096 26.75,245.096 C26.11999999999989,245.096 25.600000000000364,244.935 25.170000000000073,244.61200000000002 C24.770000000000437,244.25799999999998 24.5600000000004,243.815 24.5600000000004,243.284 C24.5600000000004,242.38799999999998 25.029999999999745,241.55 25.970000000000255,240.76799999999997 C26.890000000000327,239.98700000000002 27.88000000000011,239.596 28.949999999999818,239.596" />
<path d="M28.949999999999818,134.596 C29.579999999999927,134.596 30.109999999999673,134.75799999999998 30.550000000000182,135.08100000000002 C30.9399999999996,135.435 31.140000000000327,135.878 31.140000000000327,136.409 C31.140000000000327,137.305 30.68000000000029,138.14299999999997 29.770000000000437,138.925 C28.829999999999927,139.70600000000002 27.81999999999971,140.096 26.75,140.096 C26.11999999999989,140.096 25.600000000000364,139.935 25.170000000000073,139.61200000000002 C24.770000000000437,139.25799999999998 24.5600000000004,138.815 24.5600000000004,138.284 C24.5600000000004,137.38799999999998 25.029999999999745,136.55 25.970000000000255,135.76799999999997 C26.890000000000327,134.98700000000002 27.88000000000011,134.596 28.949999999999818,134.596" />
<path d="M28.949999999999818,112.096 C29.579999999999927,112.096 30.109999999999673,112.25799999999998 30.550000000000182,112.58100000000002 C30.9399999999996,112.935 31.140000000000327,113.37799999999999 31.140000000000327,113.90899999999999 C31.140000000000327,114.805 30.68000000000029,115.64299999999997 29.770000000000437,116.42500000000001 C28.829999999999927,117.20600000000002 27.81999999999971,117.596 26.75,117.596 C26.11999999999989,117.596 25.600000000000364,117.435 25.170000000000073,117.11200000000002 C24.770000000000437,116.75799999999998 24.5600000000004,116.315 24.5600000000004,115.78399999999999 C24.5600000000004,114.88799999999998 25.029999999999745,114.05000000000001 25.970000000000255,113.26799999999997 C26.890000000000327,112.48700000000002 27.88000000000011,112.096 28.949999999999818,112.096" />
<path d="M7.899999999999636,134.596 C8.520000000000437,134.596 9.050000000000182,134.75799999999998 9.489999999999782,135.08100000000002 C9.890000000000327,135.435 10.079999999999927,135.878 10.079999999999927,136.409 C10.079999999999927,137.305 9.61999999999989,138.14299999999997 8.710000000000036,138.925 C7.770000000000437,139.70600000000002 6.770000000000437,140.096 5.6899999999996,140.096 C5.069999999999709,140.096 4.539999999999964,139.935 4.109999999999673,139.61200000000002 C3.7100000000000364,139.25799999999998 3.5,138.815 3.5,138.284 C3.5,137.38799999999998 3.9700000000002547,136.55 4.9099999999998545,135.76799999999997 C5.829999999999927,134.98700000000002 6.819999999999709,134.596 7.899999999999636,134.596" />
<path d="M7.899999999999636,112.096 C8.520000000000437,112.096 9.050000000000182,112.25799999999998 9.489999999999782,112.58100000000002 C9.890000000000327,112.935 10.079999999999927,113.37799999999999 10.079999999999927,113.90899999999999 C10.079999999999927,114.805 9.61999999999989,115.64299999999997 8.710000000000036,116.42500000000001 C7.770000000000437,117.20600000000002 6.770000000000437,117.596 5.6899999999996,117.596 C5.069999999999709,117.596 4.539999999999964,117.435 4.109999999999673,117.11200000000002 C3.7100000000000364,116.75799999999998 3.5,116.315 3.5,115.78399999999999 C3.5,114.88799999999998 3.9700000000002547,114.05000000000001 4.9099999999998545,113.26799999999997 C5.829999999999927,112.48700000000002 6.819999999999709,112.096 7.899999999999636,112.096" />
<path d="M190.85000000000036,22.096000000000004 C191.47999999999956,22.096000000000004 192.01000000000022,22.25799999999998 192.44999999999982,22.581000000000017 C192.84000000000015,22.935000000000002 193.03999999999996,23.377999999999986 193.03999999999996,23.908999999999992 C193.03999999999996,24.805000000000007 192.57999999999993,25.642999999999972 191.67000000000007,26.42500000000001 C190.72999999999956,27.206000000000017 189.72000000000025,27.596000000000004 188.64999999999964,27.596000000000004 C188.02000000000044,27.596000000000004 187.5,27.435000000000002 187.0699999999997,27.112000000000023 C186.67000000000007,26.75799999999998 186.46000000000004,26.314999999999998 186.46000000000004,25.783999999999992 C186.46000000000004,24.887999999999977 186.9300000000003,24.05000000000001 187.8699999999999,23.267999999999972 C188.77999999999975,22.487000000000023 189.77999999999975,22.096000000000004 190.85000000000036,22.096000000000004" />
<path d="M174.0600000000004,14.127999999999986 L176.47000000000025,12.175000000000011 C176.52999999999975,12.122000000000014 176.59000000000015,12.096000000000004 176.64000000000033,12.096000000000004 C176.71000000000004,12.096000000000004 176.77999999999975,12.122000000000014 176.84000000000015,12.175000000000011 L177.25,12.487000000000023 C177.3100000000004,12.550000000000011 177.34000000000015,12.627999999999986 177.34000000000015,12.721000000000004 C177.34000000000015,12.783999999999992 177.3100000000004,12.862000000000023 177.25,12.956000000000017 L174.92000000000007,14.846000000000004 L177.25,16.737000000000023 C177.3100000000004,16.810000000000002 177.34000000000015,16.89100000000002 177.34000000000015,16.978999999999985 C177.34000000000015,17.067999999999984 177.3100000000004,17.142999999999972 177.25,17.206000000000017 L176.84000000000015,17.517999999999972 C176.77999999999975,17.569999999999993 176.71000000000004,17.596000000000004 176.64000000000033,17.596000000000004 C176.59000000000015,17.596000000000004 176.52999999999975,17.569999999999993 176.47000000000025,17.517999999999972 L174.0600000000004,15.564999999999998 L171.64000000000033,17.517999999999972 C171.57999999999993,17.569999999999993 171.52000000000044,17.596000000000004 171.47000000000025,17.596000000000004 C171.39999999999964,17.596000000000004 171.34000000000015,17.569999999999993 171.27999999999975,17.517999999999972 L170.85999999999967,17.206000000000017 C170.78999999999996,17.142999999999972 170.76000000000022,17.064999999999998 170.76000000000022,16.971000000000004 C170.76000000000022,16.908999999999992 170.78999999999996,16.831000000000017 170.85999999999967,16.737000000000023 L173.1899999999996,14.846000000000004 L170.85999999999967,12.956000000000017 C170.78999999999996,12.882999999999981 170.76000000000022,12.802000000000021 170.76000000000022,12.713999999999999 C170.76000000000022,12.625 170.78999999999996,12.550000000000011 170.85999999999967,12.487000000000023 L171.27999999999975,12.175000000000011 C171.34000000000015,12.122000000000014 171.39999999999964,12.096000000000004 171.47000000000025,12.096000000000004 C171.52000000000044,12.096000000000004 171.57999999999993,12.122000000000014 171.64000000000033,12.175000000000011 L174.0600000000004,14.127999999999986" />
<path d="M152.47000000000025,14.127999999999986 L154.8800000000001,12.175000000000011 C154.9399999999996,12.122000000000014 155.0,12.096000000000004 155.05000000000018,12.096000000000004 C155.1300000000001,12.096000000000004 155.1899999999996,12.122000000000014 155.26000000000022,12.175000000000011 L155.65999999999985,12.487000000000023 C155.72000000000025,12.550000000000011 155.76000000000022,12.627999999999986 155.76000000000022,12.721000000000004 C155.76000000000022,12.783999999999992 155.72000000000025,12.862000000000023 155.65999999999985,12.956000000000017 L153.32999999999993,14.846000000000004 L155.65999999999985,16.737000000000023 C155.72000000000025,16.810000000000002 155.76000000000022,16.89100000000002 155.76000000000022,16.978999999999985 C155.76000000000022,17.067999999999984 155.72000000000025,17.142999999999972 155.65999999999985,17.206000000000017 L155.26000000000022,17.517999999999972 C155.1899999999996,17.569999999999993 155.1300000000001,17.596000000000004 155.05000000000018,17.596000000000004 C155.0,17.596000000000004 154.9399999999996,17.569999999999993 154.8800000000001,17.517999999999972 L152.47000000000025,15.564999999999998 L150.05000000000018,17.517999999999972 C149.98999999999978,17.569999999999993 149.9300000000003,17.596000000000004 149.8800000000001,17.596000000000004 C149.8199999999997,17.596000000000004 149.76000000000022,17.569999999999993 149.6899999999996,17.517999999999972 L149.27000000000044,17.206000000000017 C149.21000000000004,17.142999999999972 149.1800000000003,17.064999999999998 149.1800000000003,16.971000000000004 C149.1800000000003,16.908999999999992 149.21000000000004,16.831000000000017 149.27000000000044,16.737000000000023 L151.60000000000036,14.846000000000004 L149.27000000000044,12.956000000000017 C149.21000000000004,12.882999999999981 149.1800000000003,12.802000000000021 149.1800000000003,12.713999999999999 C149.1800000000003,12.625 149.21000000000004,12.550000000000011 149.27000000000044,12.487000000000023 L149.6899999999996,12.175000000000011 C149.76000000000022,12.122000000000014 149.8199999999997,12.096000000000004 149.8800000000001,12.096000000000004 C149.9300000000003,12.096000000000004 149.98999999999978,12.122000000000014 150.05000000000018,12.175000000000011 L152.47000000000025,14.127999999999986" />
<path d="M153.5699999999997,22.096000000000004 C154.1899999999996,22.096000000000004 154.72000000000025,22.25799999999998 155.15999999999985,22.581000000000017 C155.5600000000004,22.935000000000002 155.76000000000022,23.377999999999986 155.76000000000022,23.908999999999992 C155.76000000000022,24.805000000000007 155.30000000000018,25.642999999999972 154.3800000000001,26.42500000000001 C153.4399999999996,27.206000000000017 152.4399999999996,27.596000000000004 151.3699999999999,27.596000000000004 C150.73999999999978,27.596000000000004 150.21000000000004,27.435000000000002 149.78999999999996,27.112000000000023 C149.3800000000001,26.75799999999998 149.1800000000003,26.314999999999998 149.1800000000003,25.783999999999992 C149.1800000000003,24.887999999999977 149.64999999999964,24.05000000000001 150.57999999999993,23.267999999999972 C151.5,22.487000000000023 152.5,22.096000000000004 153.5699999999997,22.096000000000004" />
<path d="M130.89000000000033,14.127999999999986 L133.30000000000018,12.175000000000011 C133.35999999999967,12.122000000000014 133.42000000000007,12.096000000000004 133.47000000000025,12.096000000000004 C133.53999999999996,12.096000000000004 133.60999999999967,12.122000000000014 133.67000000000007,12.175000000000011 L134.07999999999993,12.487000000000023 C134.14000000000033,12.550000000000011 134.17000000000007,12.627999999999986 134.17000000000007,12.721000000000004 C134.17000000000007,12.783999999999992 134.14000000000033,12.862000000000023 134.07999999999993,12.956000000000017 L131.75,14.846000000000004 L134.07999999999993,16.737000000000023 C134.14000000000033,16.810000000000002 134.17000000000007,16.89100000000002 134.17000000000007,16.978999999999985 C134.17000000000007,17.067999999999984 134.14000000000033,17.142999999999972 134.07999999999993,17.206000000000017 L133.67000000000007,17.517999999999972 C133.60999999999967,17.569999999999993 133.53999999999996,17.596000000000004 133.47000000000025,17.596000000000004 C133.42000000000007,17.596000000000004 133.35999999999967,17.569999999999993 133.30000000000018,17.517999999999972 L130.89000000000033,15.564999999999998 L128.47000000000025,17.517999999999972 C128.39999999999964,17.569999999999993 128.35000000000036,17.596000000000004 128.30000000000018,17.596000000000004 C128.22999999999956,17.596000000000004 128.17000000000007,17.569999999999993 128.10999999999967,17.517999999999972 L127.6899999999996,17.206000000000017 C127.61999999999989,17.142999999999972 127.59000000000015,17.064999999999998 127.59000000000015,16.971000000000004 C127.59000000000015,16.908999999999992 127.61999999999989,16.831000000000017 127.6899999999996,16.737000000000023 L130.01000000000022,14.846000000000004 L127.6899999999996,12.956000000000017 C127.61999999999989,12.882999999999981 127.59000000000015,12.802000000000021 127.59000000000015,12.713999999999999 C127.59000000000015,12.625 127.61999999999989,12.550000000000011 127.6899999999996,12.487000000000023 L128.10999999999967,12.175000000000011 C128.17000000000007,12.122000000000014 128.22999999999956,12.096000000000004 128.30000000000018,12.096000000000004 C128.35000000000036,12.096000000000004 128.39999999999964,12.122000000000014 128.47000000000025,12.175000000000011 L130.89000000000033,14.127999999999986" />
<path d="M131.97999999999956,32.096000000000004 C132.60999999999967,32.096000000000004 133.14000000000033,32.25799999999998 133.57999999999993,32.58100000000002 C133.97000000000025,32.935 134.17000000000007,33.377999999999986 134.17000000000007,33.90899999999999 C134.17000000000007,34.80500000000001 133.71000000000004,35.64299999999997 132.80000000000018,36.42500000000001 C131.85999999999967,37.20600000000002 130.85000000000036,37.596000000000004 129.77999999999975,37.596000000000004 C129.14999999999964,37.596000000000004 128.6300000000001,37.435 128.19999999999982,37.11200000000002 C127.80000000000018,36.75799999999998 127.59000000000015,36.315 127.59000000000015,35.78399999999999 C127.59000000000015,34.88799999999998 128.0600000000004,34.05000000000001 129.0,33.26799999999997 C129.92000000000007,32.48700000000002 130.90999999999985,32.096000000000004 131.97999999999956,32.096000000000004" />
<path d="M109.30000000000018,14.127999999999986 L111.71000000000004,12.175000000000011 C111.77000000000044,12.122000000000014 111.82999999999993,12.096000000000004 111.88000000000011,12.096000000000004 C111.94999999999982,12.096000000000004 112.02000000000044,12.122000000000014 112.07999999999993,12.175000000000011 L112.48999999999978,12.487000000000023 C112.55000000000018,12.550000000000011 112.57999999999993,12.627999999999986 112.57999999999993,12.721000000000004 C112.57999999999993,12.783999999999992 112.55000000000018,12.862000000000023 112.48999999999978,12.956000000000017 L110.15999999999985,14.846000000000004 L112.48999999999978,16.737000000000023 C112.55000000000018,16.810000000000002 112.57999999999993,16.89100000000002 112.57999999999993,16.978999999999985 C112.57999999999993,17.067999999999984 112.55000000000018,17.142999999999972 112.48999999999978,17.206000000000017 L112.07999999999993,17.517999999999972 C112.02000000000044,17.569999999999993 111.94999999999982,17.596000000000004 111.88000000000011,17.596000000000004 C111.82999999999993,17.596000000000004 111.77000000000044,17.569999999999993 111.71000000000004,17.517999999999972 L109.30000000000018,15.564999999999998 L106.88000000000011,17.517999999999972 C106.81999999999971,17.569999999999993 106.76000000000022,17.596000000000004 106.71000000000004,17.596000000000004 C106.64999999999964,17.596000000000004 106.57999999999993,17.569999999999993 106.52000000000044,17.517999999999972 L106.10000000000036,17.206000000000017 C106.03999999999996,17.142999999999972 106.01000000000022,17.064999999999998 106.01000000000022,16.971000000000004 C106.01000000000022,16.908999999999992 106.03999999999996,16.831000000000017 106.10000000000036,16.737000000000023 L108.43000000000029,14.846000000000004 L106.10000000000036,12.956000000000017 C106.03999999999996,12.882999999999981 106.01000000000022,12.802000000000021 106.01000000000022,12.713999999999999 C106.01000000000022,12.625 106.03999999999996,12.550000000000011 106.10000000000036,12.487000000000023 L106.52000000000044,12.175000000000011 C106.57999999999993,12.122000000000014 106.64999999999964,12.096000000000004 106.71000000000004,12.096000000000004 C106.76000000000022,12.096000000000004 106.81999999999971,12.122000000000014 106.88000000000011,12.175000000000011 L109.30000000000018,14.127999999999986" />
<path d="M110.39999999999964,32.096000000000004 C111.02000000000044,32.096000000000004 111.55000000000018,32.25799999999998 111.98999999999978,32.58100000000002 C112.39000000000033,32.935 112.57999999999993,33.377999999999986 112.57999999999993,33.90899999999999 C112.57999999999993,34.80500000000001 112.13000000000011,35.64299999999997 111.21000000000004,36.42500000000001 C110.27000000000044,37.20600000000002 109.27000000000044,37.596000000000004 108.1899999999996,37.596000000000004 C107.56999999999971,37.596000000000004 107.03999999999996,37.435 106.61999999999989,37.11200000000002 C106.21000000000004,36.75799999999998 106.01000000000022,36.315 106.01000000000022,35.78399999999999 C106.01000000000022,34.88799999999998 106.47999999999956,34.05000000000001 107.40999999999985,33.26799999999997 C108.32999999999993,32.48700000000002 109.31999999999971,32.096000000000004 110.39999999999964,32.096000000000004" />
<path d="M94.69999999999982,22.096000000000004 C95.31999999999971,22.096000000000004 95.85000000000036,22.25799999999998 96.28999999999996,22.581000000000017 C96.6899999999996,22.935000000000002 96.89000000000033,23.377999999999986 96.89000000000033,23.908999999999992 C96.89000000000033,24.805000000000007 96.43000000000029,25.642999999999972 95.51000000000022,26.42500000000001 C94.56999999999971,27.206000000000017 93.56999999999971,27.596000000000004 92.5,27.596000000000004 C91.86999999999989,27.596000000000004 91.34000000000015,27.435000000000002 90.92000000000007,27.112000000000023 C90.51000000000022,26.75799999999998 90.3100000000004,26.314999999999998 90.3100000000004,25.783999999999992 C90.3100000000004,24.887999999999977 90.77999999999975,24.05000000000001 91.71000000000004,23.267999999999972 C92.63000000000011,22.487000000000023 93.63000000000011,22.096000000000004 94.69999999999982,22.096000000000004" />
<path d="M77.90999999999985,14.127999999999986 L80.3100000000004,12.175000000000011 C80.36999999999989,12.122000000000014 80.43000000000029,12.096000000000004 80.47999999999956,12.096000000000004 C80.5600000000004,12.096000000000004 80.61999999999989,12.122000000000014 80.6899999999996,12.175000000000011 L81.09000000000015,12.487000000000023 C81.15999999999985,12.550000000000011 81.1899999999996,12.627999999999986 81.1899999999996,12.721000000000004 C81.1899999999996,12.783999999999992 81.15999999999985,12.862000000000023 81.09000000000015,12.956000000000017 L78.77000000000044,14.846000000000004 L81.09000000000015,16.737000000000023 C81.15999999999985,16.810000000000002 81.1899999999996,16.89100000000002 81.1899999999996,16.978999999999985 C81.1899999999996,17.067999999999984 81.15999999999985,17.142999999999972 81.09000000000015,17.206000000000017 L80.6899999999996,17.517999999999972 C80.61999999999989,17.569999999999993 80.5600000000004,17.596000000000004 80.47999999999956,17.596000000000004 C80.43000000000029,17.596000000000004 80.36999999999989,17.569999999999993 80.3100000000004,17.517999999999972 L77.90999999999985,15.564999999999998 L75.47999999999956,17.517999999999972 C75.42000000000007,17.569999999999993 75.35999999999967,17.596000000000004 75.3100000000004,17.596000000000004 C75.25,17.596000000000004 75.1899999999996,17.569999999999993 75.11999999999989,17.517999999999972 L74.69999999999982,17.206000000000017 C74.64000000000033,17.142999999999972 74.60999999999967,17.064999999999998 74.60999999999967,16.971000000000004 C74.60999999999967,16.908999999999992 74.64000000000033,16.831000000000017 74.69999999999982,16.737000000000023 L77.02999999999975,14.846000000000004 L74.69999999999982,12.956000000000017 C74.64000000000033,12.882999999999981 74.60999999999967,12.802000000000021 74.60999999999967,12.713999999999999 C74.60999999999967,12.625 74.64000000000033,12.550000000000011 74.69999999999982,12.487000000000023 L75.11999999999989,12.175000000000011 C75.1899999999996,12.122000000000014 75.25,12.096000000000004 75.3100000000004,12.096000000000004 C75.35999999999967,12.096000000000004 75.42000000000007,12.122000000000014 75.47999999999956,12.175000000000011 L77.90999999999985,14.127999999999986" />
<path d="M38.539999999999964,14.127999999999986 L40.94999999999982,12.175000000000011 C41.01000000000022,12.122000000000014 41.06999999999971,12.096000000000004 41.11999999999989,12.096000000000004 C41.1899999999996,12.096000000000004 41.26000000000022,12.122000000000014 41.31999999999971,12.175000000000011 L41.72999999999956,12.487000000000023 C41.789999999999964,12.550000000000011 41.81999999999971,12.627999999999986 41.81999999999971,12.721000000000004 C41.81999999999971,12.783999999999992 41.789999999999964,12.862000000000023 41.72999999999956,12.956000000000017 L39.399999999999636,14.846000000000004 L41.72999999999956,16.737000000000023 C41.789999999999964,16.810000000000002 41.81999999999971,16.89100000000002 41.81999999999971,16.978999999999985 C41.81999999999971,17.067999999999984 41.789999999999964,17.142999999999972 41.72999999999956,17.206000000000017 L41.31999999999971,17.517999999999972 C41.26000000000022,17.569999999999993 41.1899999999996,17.596000000000004 41.11999999999989,17.596000000000004 C41.06999999999971,17.596000000000004 41.01000000000022,17.569999999999993 40.94999999999982,17.517999999999972 L38.539999999999964,15.564999999999998 L36.11999999999989,17.517999999999972 C36.0600000000004,17.569999999999993 36.0,17.596000000000004 35.94999999999982,17.596000000000004 C35.89000000000033,17.596000000000004 35.81999999999971,17.569999999999993 35.76000000000022,17.517999999999972 L35.340000000000146,17.206000000000017 C35.279999999999745,17.142999999999972 35.23999999999978,17.064999999999998 35.23999999999978,16.971000000000004 C35.23999999999978,16.908999999999992 35.279999999999745,16.831000000000017 35.340000000000146,16.737000000000023 L37.67000000000007,14.846000000000004 L35.340000000000146,12.956000000000017 C35.279999999999745,12.882999999999981 35.23999999999978,12.802000000000021 35.23999999999978,12.713999999999999 C35.23999999999978,12.625 35.279999999999745,12.550000000000011 35.340000000000146,12.487000000000023 L35.76000000000022,12.175000000000011 C35.81999999999971,12.122000000000014 35.89000000000033,12.096000000000004 35.94999999999982,12.096000000000004 C36.0,12.096000000000004 36.0600000000004,12.122000000000014 36.11999999999989,12.175000000000011 L38.539999999999964,14.127999999999986" />
<path d="M39.64000000000033,22.096000000000004 C40.26000000000022,22.096000000000004 40.789999999999964,22.25799999999998 41.22999999999956,22.581000000000017 C41.63000000000011,22.935000000000002 41.81999999999971,23.377999999999986 41.81999999999971,23.908999999999992 C41.81999999999971,24.805000000000007 41.35999999999967,25.642999999999972 40.44999999999982,26.42500000000001 C39.51000000000022,27.206000000000017 38.51000000000022,27.596000000000004 37.43000000000029,27.596000000000004 C36.8100000000004,27.596000000000004 36.279999999999745,27.435000000000002 35.850000000000364,27.112000000000023 C35.44999999999982,26.75799999999998 35.23999999999978,26.314999999999998 35.23999999999978,25.783999999999992 C35.23999999999978,24.887999999999977 35.710000000000036,24.05000000000001 36.649999999999636,23.267999999999972 C37.56999999999971,22.487000000000023 38.5600000000004,22.096000000000004 39.64000000000033,22.096000000000004" />
<path d="M16.960000000000036,14.127999999999986 L19.359999999999673,12.175000000000011 C19.420000000000073,12.122000000000014 19.479999999999563,12.096000000000004 19.529999999999745,12.096000000000004 C19.609999999999673,12.096000000000004 19.670000000000073,12.122000000000014 19.73999999999978,12.175000000000011 L20.140000000000327,12.487000000000023 C20.210000000000036,12.550000000000011 20.23999999999978,12.627999999999986 20.23999999999978,12.721000000000004 C20.23999999999978,12.783999999999992 20.210000000000036,12.862000000000023 20.140000000000327,12.956000000000017 L17.81999999999971,14.846000000000004 L20.140000000000327,16.737000000000023 C20.210000000000036,16.810000000000002 20.23999999999978,16.89100000000002 20.23999999999978,16.978999999999985 C20.23999999999978,17.067999999999984 20.210000000000036,17.142999999999972 20.140000000000327,17.206000000000017 L19.73999999999978,17.517999999999972 C19.670000000000073,17.569999999999993 19.609999999999673,17.596000000000004 19.529999999999745,17.596000000000004 C19.479999999999563,17.596000000000004 19.420000000000073,17.569999999999993 19.359999999999673,17.517999999999972 L16.960000000000036,15.564999999999998 L14.529999999999745,17.517999999999972 C14.470000000000255,17.569999999999993 14.409999999999854,17.596000000000004 14.359999999999673,17.596000000000004 C14.300000000000182,17.596000000000004 14.239999999999782,17.569999999999993 14.170000000000073,17.517999999999972 L13.75,17.206000000000017 C13.6899999999996,17.142999999999972 13.659999999999854,17.064999999999998 13.659999999999854,16.971000000000004 C13.659999999999854,16.908999999999992 13.6899999999996,16.831000000000017 13.75,16.737000000000023 L16.079999999999927,14.846000000000004 L13.75,12.956000000000017 C13.6899999999996,12.882999999999981 13.659999999999854,12.802000000000021 13.659999999999854,12.713999999999999 C13.659999999999854,12.625 13.6899999999996,12.550000000000011 13.75,12.487000000000023 L14.170000000000073,12.175000000000011 C14.239999999999782,12.122000000000014 14.300000000000182,12.096000000000004 14.359999999999673,12.096000000000004 C14.409999999999854,12.096000000000004 14.470000000000255,12.122000000000014 14.529999999999745,12.175000000000011 L16.960000000000036,14.127999999999986" />
<path d="M18.050000000000182,32.096000000000004 C18.670000000000073,32.096000000000004 19.210000000000036,32.25799999999998 19.640000000000327,32.58100000000002 C20.039999999999964,32.935 20.23999999999978,33.377999999999986 20.23999999999978,33.90899999999999 C20.23999999999978,34.80500000000001 19.779999999999745,35.64299999999997 18.859999999999673,36.42500000000001 C17.920000000000073,37.20600000000002 16.920000000000073,37.596000000000004 15.850000000000364,37.596000000000004 C15.220000000000255,37.596000000000004 14.699999999999818,37.435 14.270000000000437,37.11200000000002 C13.859999999999673,36.75799999999998 13.659999999999854,36.315 13.659999999999854,35.78399999999999 C13.659999999999854,34.88799999999998 14.13000000000011,34.05000000000001 15.069999999999709,33.26799999999997 C15.979999999999563,32.48700000000002 16.979999999999563,32.096000000000004 18.050000000000182,32.096000000000004" />
<path d="M77.67000000000007,223.23700000000002 C78.05000000000018,223.23700000000002 78.32999999999993,223.341 78.52999999999975,223.55 C78.72999999999956,223.789 78.82999999999993,224.01299999999998 78.85000000000036,224.221 C78.88000000000011,224.41899999999998 78.9399999999996,224.63799999999998 79.05000000000018,224.878 C79.15999999999985,225.086 79.3100000000004,225.19 79.48999999999978,225.19 C79.63000000000011,225.19 79.85000000000036,225.029 80.14000000000033,224.70600000000002 C80.39999999999964,224.425 80.59000000000015,224.16899999999998 80.69999999999982,223.94 C80.77000000000044,223.815 80.85999999999967,223.753 80.97000000000025,223.753 L81.0,223.753 C81.13000000000011,223.76299999999998 81.21000000000004,223.82600000000002 81.27000000000044,223.94 L78.8100000000004,232.346 C78.68000000000029,232.48200000000003 78.48999999999978,232.55 78.26000000000022,232.55 C78.02000000000044,232.55 77.85000000000036,232.48200000000003 77.72000000000025,232.346 L80.0600000000004,225.815 C79.22999999999956,226.11700000000002 78.52999999999975,226.26799999999997 77.94999999999982,226.26799999999997 C77.48999999999978,226.26799999999997 77.07999999999993,226.11700000000002 76.73999999999978,225.815 C76.38000000000011,225.534 76.19999999999982,225.159 76.19999999999982,224.69 C76.19999999999982,224.284 76.35000000000036,223.945 76.64000000000033,223.675 C76.92000000000007,223.38299999999998 77.27000000000044,223.23700000000002 77.67000000000007,223.23700000000002" />
<path d="M146.84000000000015,206.096 L193.4300000000003,206.096 L193.4300000000003,208.596 L146.84000000000015,208.596 L146.84000000000015,206.096" />
<path d="M177.46000000000004,209.846 L193.4300000000003,209.846 L193.4300000000003,212.346 L177.46000000000004,212.346 L177.46000000000004,209.846" />
<path d="M76.27000000000044,177.346 L110.92000000000007,177.346 L110.92000000000007,179.846 L76.27000000000044,179.846 L76.27000000000044,177.346" />
<path d="M76.27000000000044,173.596 L95.59000000000015,173.596 L95.59000000000015,176.096 L76.27000000000044,176.096 L76.27000000000044,173.596" />
<path d="M95.59000000000015,169.846 L88.98999999999978,169.846 L88.98999999999978,172.346 L95.59000000000015,172.346 L95.59000000000015,169.846" />
<path d="M76.27000000000044,129.846 L110.92000000000007,129.846 L110.92000000000007,132.346 L76.27000000000044,132.346 L76.27000000000044,129.846" />
<path d="M76.27000000000044,126.096 L95.59000000000015,126.096 L95.59000000000015,128.596 L76.27000000000044,128.596 L76.27000000000044,126.096" />
<path d="M95.59000000000015,122.346 L88.98999999999978,122.346 L88.98999999999978,124.846 L95.59000000000015,124.846 L95.59000000000015,122.346" />
<path d="M30.5,202.346 L67.52000000000044,202.346 L67.52000000000044,204.846 L30.5,204.846 L30.5,202.346" />
<path d="M51.55000000000018,206.096 L67.52000000000044,206.096 L67.52000000000044,208.596 L51.55000000000018,208.596 L51.55000000000018,206.096" />
<path d="M24.5600000000004,172.346 L61.57999999999993,172.346 L61.57999999999993,174.846 L24.5600000000004,174.846 L24.5600000000004,172.346" />
<path d="M61.57999999999993,168.596 L54.97999999999956,168.596 L54.97999999999956,171.096 L61.57999999999993,171.096 L61.57999999999993,168.596" />
<path d="M24.5600000000004,129.846 L61.57999999999993,129.846 L61.57999999999993,132.346 L24.5600000000004,132.346 L24.5600000000004,129.846" />
<path d="M61.57999999999993,126.096 L54.97999999999956,126.096 L54.97999999999956,128.596 L61.57999999999993,128.596 L61.57999999999993,126.096" />
<path d="M149.1800000000003,39.846000000000004 L187.10999999999967,39.846000000000004 L187.10999999999967,42.346000000000004 L149.1800000000003,42.346000000000004 L149.1800000000003,39.846000000000004" />
<path d="M170.76000000000022,36.096000000000004 L187.10999999999967,36.096000000000004 L187.10999999999967,38.596000000000004 L170.76000000000022,38.596000000000004 L170.76000000000022,36.096000000000004" />
<path d="M106.01000000000022,48.596000000000004 L128.23999999999978,48.596000000000004 L128.23999999999978,51.096000000000004 L106.01000000000022,51.096000000000004 L106.01000000000022,48.596000000000004" />
<path d="M35.23999999999978,39.846000000000004 L90.96000000000004,39.846000000000004 L90.96000000000004,42.346000000000004 L35.23999999999978,42.346000000000004 L35.23999999999978,39.846000000000004" />
<path d="M74.60999999999967,36.096000000000004 L90.96000000000004,36.096000000000004 L90.96000000000004,38.596000000000004 L74.60999999999967,38.596000000000004 L74.60999999999967,36.096000000000004" />
<path d="M116.21000000000004,212.971 L116.21000000000004,207.971 L116.82999999999993,207.971 C116.82999999999993,208.711 116.97999999999956,209.45600000000002 117.27000000000044,210.20600000000002 C117.57999999999993,211.00799999999998 117.93000000000029,211.711 118.30000000000018,212.315 C118.56999999999971,212.74200000000002 118.97999999999956,213.399 119.52999999999975,214.284 C119.94999999999982,214.961 120.30000000000018,215.66899999999998 120.59000000000015,216.409 C120.88000000000011,217.149 121.02000000000044,217.89299999999997 121.02000000000044,218.64299999999997 C121.02000000000044,219.997 120.73999999999978,221.378 120.18000000000029,222.784 C120.07999999999993,222.94 119.96000000000004,223.01799999999997 119.80000000000018,223.01799999999997 C119.68000000000029,223.01799999999997 119.5600000000004,222.966 119.46000000000004,222.86200000000002 C119.36999999999989,222.779 119.32999999999993,222.68 119.32999999999993,222.565 L119.32999999999993,222.471 C119.89000000000033,221.18 120.18000000000029,219.904 120.18000000000029,218.64299999999997 C120.18000000000029,217.98700000000002 119.97999999999956,217.284 119.57999999999993,216.534 C119.19999999999982,215.76299999999998 118.80000000000018,215.149 118.39000000000033,214.69 C117.9399999999996,214.159 117.40999999999985,213.586 116.82999999999993,212.971 L116.21000000000004,212.971" />
<path d="M84.9399999999996,133.151 C84.71000000000004,132.92700000000002 84.60000000000036,132.659 84.60000000000036,132.346 C84.60000000000036,132.034 84.71000000000004,131.76600000000002 84.9399999999996,131.54199999999997 C85.15999999999985,131.31799999999998 85.43000000000029,131.20600000000002 85.73999999999978,131.20600000000002 C86.05000000000018,131.20600000000002 86.31999999999971,131.31799999999998 86.53999999999996,131.54199999999997 C86.76000000000022,131.76600000000002 86.86999999999989,132.034 86.86999999999989,132.346 C86.86999999999989,132.659 86.76000000000022,132.92700000000002 86.53999999999996,133.151 C86.31999999999971,133.375 86.05000000000018,133.48700000000002 85.73999999999978,133.48700000000002 C85.43000000000029,133.48700000000002 85.15999999999985,133.375 84.9399999999996,133.151" />
<path d="M84.9399999999996,110.65100000000001 C84.71000000000004,110.42700000000002 84.60000000000036,110.15899999999999 84.60000000000036,109.846 C84.60000000000036,109.53399999999999 84.71000000000004,109.26600000000002 84.9399999999996,109.04199999999997 C85.15999999999985,108.81799999999998 85.43000000000029,108.70600000000002 85.73999999999978,108.70600000000002 C86.05000000000018,108.70600000000002 86.31999999999971,108.81799999999998 86.53999999999996,109.04199999999997 C86.76000000000022,109.26600000000002 86.86999999999989,109.53399999999999 86.86999999999989,109.846 C86.86999999999989,110.15899999999999 86.76000000000022,110.42700000000002 86.53999999999996,110.65100000000001 C86.31999999999971,110.875 86.05000000000018,110.98700000000002 85.73999999999978,110.98700000000002 C85.43000000000029,110.98700000000002 85.15999999999985,110.875 84.9399999999996,110.65100000000001" />
<path d="M33.22999999999956,138.151 C33.01000000000022,137.92700000000002 32.899999999999636,137.659 32.899999999999636,137.346 C32.899999999999636,137.034 33.01000000000022,136.76600000000002 33.22999999999956,136.54199999999997 C33.460000000000036,136.31799999999998 33.720000000000255,136.20600000000002 34.039999999999964,136.20600000000002 C34.350000000000364,136.20600000000002 34.60999999999967,136.31799999999998 34.82999999999993,136.54199999999997 C35.05000000000018,136.76600000000002 35.159999999999854,137.034 35.159999999999854,137.346 C35.159999999999854,137.659 35.05000000000018,137.92700000000002 34.82999999999993,138.151 C34.60999999999967,138.375 34.350000000000364,138.48700000000002 34.039999999999964,138.48700000000002 C33.720000000000255,138.48700000000002 33.460000000000036,138.375 33.22999999999956,138.151" />
<path d="M33.22999999999956,115.65100000000001 C33.01000000000022,115.42700000000002 32.899999999999636,115.15899999999999 32.899999999999636,114.846 C32.899999999999636,114.53399999999999 33.01000000000022,114.26600000000002 33.22999999999956,114.04199999999997 C33.460000000000036,113.81799999999998 33.720000000000255,113.70600000000002 34.039999999999964,113.70600000000002 C34.350000000000364,113.70600000000002 34.60999999999967,113.81799999999998 34.82999999999993,114.04199999999997 C35.05000000000018,114.26600000000002 35.159999999999854,114.53399999999999 35.159999999999854,114.846 C35.159999999999854,115.15899999999999 35.05000000000018,115.42700000000002 34.82999999999993,115.65100000000001 C34.60999999999967,115.875 34.350000000000364,115.98700000000002 34.039999999999964,115.98700000000002 C33.720000000000255,115.98700000000002 33.460000000000036,115.875 33.22999999999956,115.65100000000001" />
<polyline points="0.0,17.346000000000004 202.96000000000004,17.346000000000004" fill="none" stroke="#000000" stroke-width="0.40" />
<polyline points="0.0,22.346000000000004 202.96000000000004,22.346000000000004" fill="none" stroke="#000000" stroke-width="0.40" />
<polyline points="0.0,27.346000000000004 202.96000000000004,27.346000000000004" fill="none" stroke="#000000" stroke-width="0.40" />
<polyline points="0.0,32.346000000000004 202.96000000000004,32.346000000000004" fill="none" stroke="#000000" stroke-width="0.40" />
<polyline points="0.0,37.346000000000004 202.96000000000004,37.346000000000004" fill="none" stroke="#000000" stroke-width="0.40" />
<polyline points="0.0,112.346 202.96000000000004,112.346" fill="none" stroke="#000000" stroke-width="0.40" />
<polyline points="0.0,117.346 202.96000000000004,117.346" fill="none" stroke="#000000" stroke-width="0.40" />
<polyline points="0.0,122.346 202.96000000000004,122.346" fill="none" stroke="#000000" stroke-width="0.40" />
<polyline points="0.0,127.346 202.96000000000004,127.346" fill="none" stroke="#000000" stroke-width="0.40" />
<polyline points="0.0,132.346 202.96000000000004,132.346" fill="none" stroke="#000000" stroke-width="0.40" />
<polyline points="0.0,164.846 202.96000000000004,164.846" fill="none" stroke="#000000" stroke-width="0.40" />
<polyline points="0.0,169.846 202.96000000000004,169.846" fill="none" stroke="#000000" stroke-width="0.40" />
<polyline points="0.0,174.846 202.96000000000004,174.846" fill="none" stroke="#000000" stroke-width="0.40" />
<polyline points="0.0,179.846 202.96000000000004,179.846" fill="none" stroke="#000000" stroke-width="0.40" />
<polyline points="0.0,184.846 202.96000000000004,184.846" fill="none" stroke="#000000" stroke-width="0.40" />
<polyline points="0.0,217.346 202.96000000000004,217.346" fill="none" stroke="#000000" stroke-width="0.40" />
<polyline points="0.0,222.346 202.96000000000004,222.346" fill="none" stroke="#000000" stroke-width="0.40" />
<polyline points="0.0,227.346 202.96000000000004,227.346" fill="none" stroke="#000000" stroke-width="0.40" />
<polyline points="0.0,232.346 202.96000000000004,232.346" fill="none" stroke="#000000" stroke-width="0.40" />
<polyline points="0.0,237.346 202.96000000000004,237.346" fill="none" stroke="#000000" stroke-width="0.40" />
<polyline points="202.5600000000004,217.346 202.5600000000004,237.346" fill="" stroke="#000000" stroke-width="0.80" />
<polyline points="202.5600000000004,164.846 202.5600000000004,184.846" fill="" stroke="#000000" stroke-width="0.80" />
<polyline points="202.5600000000004,112.346 202.5600000000004,132.346" fill="" stroke="#000000" stroke-width="0.80" />
<polyline points="202.5600000000004,17.346000000000004 202.5600000000004,37.346000000000004" fill="" stroke="#000000" stroke-width="0.80" />
<polyline points="193.10000000000036,243.90699999999998 193.10000000000036,207.346" fill="" stroke="#000000" stroke-width="0.65" />
<polyline points="177.78999999999996,243.90699999999998 177.78999999999996,207.346" fill="" stroke="#000000" stroke-width="0.65" />
<polyline points="147.15999999999985,243.90699999999998 147.15999999999985,207.346" fill="" stroke="#000000" stroke-width="0.65" />
<polyline points="141.22999999999956,143.286 141.22999999999956,174.846" fill="" stroke="#000000" stroke-width="0.65" />
<polyline points="141.22999999999956,120.786 141.22999999999956,136.096" fill="" stroke="#000000" stroke-width="0.65" />
<polyline points="116.52999999999975,243.90699999999998 116.52999999999975,207.971" fill="" stroke="#000000" stroke-width="0.65" />
<polyline points="110.60000000000036,133.286 110.60000000000036,178.596" fill="" stroke="#000000" stroke-width="0.65" />
<polyline points="110.60000000000036,110.786 110.60000000000036,131.096" fill="" stroke="#000000" stroke-width="0.65" />
<polyline points="95.27000000000044,135.786 95.27000000000044,178.596" fill="" stroke="#000000" stroke-width="0.65" />
<polyline points="95.27000000000044,113.286 95.27000000000044,131.096" fill="" stroke="#000000" stroke-width="0.65" />
<polyline points="76.59000000000015,135.786 76.59000000000015,178.596" fill="" stroke="#000000" stroke-width="0.65" />
<polyline points="76.59000000000015,113.286 76.59000000000015,131.096" fill="" stroke="#000000" stroke-width="0.65" />
<polyline points="67.1899999999996,240.36200000000002 67.1899999999996,203.596" fill="" stroke="#000000" stroke-width="0.65" />
<polyline points="61.26000000000022,138.286 61.26000000000022,173.596" fill="" stroke="#000000" stroke-width="0.65" />
<polyline points="61.26000000000022,115.786 61.26000000000022,131.096" fill="" stroke="#000000" stroke-width="0.65" />
<polyline points="51.88000000000011,240.36200000000002 51.88000000000011,203.596" fill="" stroke="#000000" stroke-width="0.65" />
<polyline points="30.81999999999971,241.40699999999998 30.81999999999971,203.596" fill="" stroke="#000000" stroke-width="0.65" />
<polyline points="24.890000000000327,138.286 24.890000000000327,173.596" fill="" stroke="#000000" stroke-width="0.65" />
<polyline points="24.890000000000327,115.786 24.890000000000327,131.096" fill="" stroke="#000000" stroke-width="0.65" />
<polyline points="3.8299999999999272,138.286 3.8299999999999272,173.596" fill="" stroke="#000000" stroke-width="0.65" />
<polyline points="3.8299999999999272,115.786 3.8299999999999272,131.096" fill="" stroke="#000000" stroke-width="0.65" />
<polyline points="186.78999999999996,25.786 186.78999999999996,41.096000000000004" fill="" stroke="#000000" stroke-width="0.65" />
<polyline points="171.09000000000015,16.910000000000025 171.09000000000015,41.096000000000004" fill="" stroke="#000000" stroke-width="0.65" />
<polyline points="149.5,16.910000000000025 149.5,41.096000000000004" fill="" stroke="#000000" stroke-width="0.65" />
<polyline points="127.92000000000007,16.910000000000025 127.92000000000007,49.846000000000004" fill="" stroke="#000000" stroke-width="0.65" />
<polyline points="106.32999999999993,16.910000000000025 106.32999999999993,49.846000000000004" fill="" stroke="#000000" stroke-width="0.65" />
<polyline points="90.63000000000011,25.786 90.63000000000011,41.096000000000004" fill="" stroke="#000000" stroke-width="0.65" />
<polyline points="74.93000000000029,16.910000000000025 74.93000000000029,41.096000000000004" fill="" stroke="#000000" stroke-width="0.65" />
<polyline points="35.56999999999971,16.910000000000025 35.56999999999971,41.096000000000004" fill="" stroke="#000000" stroke-width="0.65" />
<polyline points="13.979999999999563,16.910000000000025 13.979999999999563,49.846000000000004" fill="" stroke="#000000" stroke-width="0.65" />
<polyline points="185.35000000000036,242.346 194.9300000000003,242.346" fill="" stroke="#000000" stroke-width="0.80" />
<polyline points="170.02999999999975,242.346 179.60999999999967,242.346" fill="" stroke="#000000" stroke-width="0.80" />
<polyline points="139.39999999999964,242.346 148.98999999999978,242.346" fill="" stroke="#000000" stroke-width="0.80" />
<polyline points="139.39999999999964,144.846 148.98999999999978,144.846" fill="" stroke="#000000" stroke-width="0.80" />
<polyline points="139.39999999999964,149.846 148.98999999999978,149.846" fill="" stroke="#000000" stroke-width="0.80" />
<polyline points="139.39999999999964,154.846 148.98999999999978,154.846" fill="" stroke="#000000" stroke-width="0.80" />
<polyline points="139.39999999999964,159.846 148.98999999999978,159.846" fill="" stroke="#000000" stroke-width="0.80" />
<polyline points="108.77000000000044,242.346 118.35999999999967,242.346" fill="" stroke="#000000" stroke-width="0.80" />
<polyline points="108.77000000000044,134.846 118.35999999999967,134.846" fill="" stroke="#000000" stroke-width="0.80" />
<polyline points="108.77000000000044,139.846 118.35999999999967,139.846" fill="" stroke="#000000" stroke-width="0.80" />
<polyline points="108.77000000000044,144.846 118.35999999999967,144.846" fill="" stroke="#000000" stroke-width="0.80" />
<polyline points="108.77000000000044,149.846 118.35999999999967,149.846" fill="" stroke="#000000" stroke-width="0.80" />
<polyline points="108.77000000000044,154.846 118.35999999999967,154.846" fill="" stroke="#000000" stroke-width="0.80" />
<polyline points="108.77000000000044,159.846 118.35999999999967,159.846" fill="" stroke="#000000" stroke-width="0.80" />
<polyline points="93.4399999999996,134.846 103.02000000000044,134.846" fill="" stroke="#000000" stroke-width="0.80" />
<polyline points="93.4399999999996,139.846 103.02000000000044,139.846" fill="" stroke="#000000" stroke-width="0.80" />
<polyline points="93.4399999999996,144.846 103.02000000000044,144.846" fill="" stroke="#000000" stroke-width="0.80" />
<polyline points="93.4399999999996,149.846 103.02000000000044,149.846" fill="" stroke="#000000" stroke-width="0.80" />
<polyline points="93.4399999999996,154.846 103.02000000000044,154.846" fill="" stroke="#000000" stroke-width="0.80" />
<polyline points="93.4399999999996,159.846 103.02000000000044,159.846" fill="" stroke="#000000" stroke-width="0.80" />
<polyline points="74.77000000000044,134.846 84.35000000000036,134.846" fill="" stroke="#000000" stroke-width="0.80" />
<polyline points="74.77000000000044,139.846 84.35000000000036,139.846" fill="" stroke="#000000" stroke-width="0.80" />
<polyline points="74.77000000000044,144.846 84.35000000000036,144.846" fill="" stroke="#000000" stroke-width="0.80" />
<polyline points="74.77000000000044,149.846 84.35000000000036,149.846" fill="" stroke="#000000" stroke-width="0.80" />
<polyline points="74.77000000000044,154.846 84.35000000000036,154.846" fill="" stroke="#000000" stroke-width="0.80" />
<polyline points="74.77000000000044,159.846 84.35000000000036,159.846" fill="" stroke="#000000" stroke-width="0.80" />
<polyline points="59.43000000000029,242.346 69.02000000000044,242.346" fill="" stroke="#000000" stroke-width="0.80" />
<polyline points="59.43000000000029,139.846 69.02000000000044,139.846" fill="" stroke="#000000" stroke-width="0.80" />
<polyline points="59.43000000000029,144.846 69.02000000000044,144.846" fill="" stroke="#000000" stroke-width="0.80" />
<polyline points="59.43000000000029,149.846 69.02000000000044,149.846" fill="" stroke="#000000" stroke-width="0.80" />
<polyline points="59.43000000000029,154.846 69.02000000000044,154.846" fill="" stroke="#000000" stroke-width="0.80" />
<polyline points="59.43000000000029,159.846 69.02000000000044,159.846" fill="" stroke="#000000" stroke-width="0.80" />
<polyline points="44.11999999999989,242.346 53.69999999999982,242.346" fill="" stroke="#000000" stroke-width="0.80" />
<polyline points="23.0600000000004,242.346 32.649999999999636,242.346" fill="" stroke="#000000" stroke-width="0.80" />
<polyline points="23.0600000000004,139.846 32.649999999999636,139.846" fill="" stroke="#000000" stroke-width="0.80" />
<polyline points="23.0600000000004,144.846 32.649999999999636,144.846" fill="" stroke="#000000" stroke-width="0.80" />
<polyline points="23.0600000000004,149.846 32.649999999999636,149.846" fill="" stroke="#000000" stroke-width="0.80" />
<polyline points="23.0600000000004,154.846 32.649999999999636,154.846" fill="" stroke="#000000" stroke-width="0.80" />
<polyline points="23.0600000000004,159.846 32.649999999999636,159.846" fill="" stroke="#000000" stroke-width="0.80" />
<polyline points="2.0,139.846 11.590000000000146,139.846" fill="" stroke="#000000" stroke-width="0.80" />
<polyline points="2.0,144.846 11.590000000000146,144.846" fill="" stroke="#000000" stroke-width="0.80" />
<polyline points="2.0,149.846 11.590000000000146,149.846" fill="" stroke="#000000" stroke-width="0.80" />
<polyline points="2.0,154.846 11.590000000000146,154.846" fill="" stroke="#000000" stroke-width="0.80" />
<polyline points="2.0,159.846 11.590000000000146,159.846" fill="" stroke="#000000" stroke-width="0.80" />
<polyline points="102.77000000000044,111.606 109.10999999999967,111.606" fill="none" stroke="#000000" stroke-width="0.75" />
<polyline points="68.77000000000044,114.106 75.10000000000036,114.106" fill="none" stroke="#000000" stroke-width="0.75" />
</svg>
