<?xml version="1.0" encoding="UTF-8" standalone="yes"?>
<svg width="256.0px" height="256.0px" xmlns="http://www.w3.org/2000/svg" xmlns:xlink="http://www.w3.org/1999/xlink" version="1.2" baseProfile="tiny">
<path d="M78.51000000000022,30.79200000000003 C78.36999999999989,30.69799999999998 78.22999999999956,30.591000000000008 78.07999999999993,30.47199999999998 C77.93000000000029,30.351999999999975 77.76000000000022,30.184999999999945 77.56999999999971,29.97199999999998 C77.38000000000011,29.758000000000038 77.22000000000025,29.53200000000004 77.06999999999971,29.29200000000003 C76.92000000000007,29.05200000000002 76.80000000000018,28.760999999999967 76.71000000000004,28.41700000000003 C76.61999999999989,28.07299999999998 76.56999999999971,27.71900000000005 76.56999999999971,27.354000000000042 C76.56999999999971,26.96900000000005 76.61999999999989,26.604000000000042 76.71000000000004,26.260999999999967 C76.80000000000018,25.91700000000003 76.92000000000007,25.633000000000038 77.05000000000018,25.408999999999992 C77.1899999999996,25.184999999999945 77.35999999999967,24.966000000000008 77.5600000000004,24.753000000000043 C77.77000000000044,24.538999999999987 77.93000000000029,24.383000000000038 78.06999999999971,24.283999999999992 C78.21000000000004,24.184999999999945 78.35999999999967,24.077999999999975 78.52000000000044,23.964000000000055 L78.60000000000036,24.089000000000055 C78.36999999999989,24.287000000000035 78.18000000000029,24.461000000000013 78.03999999999996,24.611999999999966 C77.89000000000033,24.763000000000034 77.75,24.964000000000055 77.61999999999989,25.214000000000055 C77.47999999999956,25.464000000000055 77.38000000000011,25.760999999999967 77.32999999999993,26.104000000000042 C77.27000000000044,26.44799999999998 77.23999999999978,26.860000000000014 77.23999999999978,27.339000000000055 C77.23999999999978,27.827999999999975 77.27000000000044,28.253000000000043 77.32999999999993,28.611999999999966 C77.38000000000011,28.97199999999998 77.47999999999956,29.275999999999954 77.61999999999989,29.525999999999954 C77.75,29.775999999999954 77.89000000000033,29.98199999999997 78.03999999999996,30.144000000000005 C78.18000000000029,30.30499999999995 78.36999999999989,30.474000000000046 78.60000000000036,30.650999999999954 L78.51000000000022,30.79200000000003 M79.03999999999996,27.66700000000003 C79.03999999999996,27.07299999999998 79.21000000000004,26.59699999999998 79.5600000000004,26.236999999999966 C79.90999999999985,25.878000000000043 80.31999999999971,25.69799999999998 80.78999999999996,25.69799999999998 C81.11999999999989,25.69799999999998 81.40999999999985,25.778999999999996 81.64000000000033,25.940000000000055 C81.86999999999989,26.101999999999975 81.98999999999978,26.297000000000025 81.98999999999978,26.525999999999954 C81.98999999999978,26.610000000000014 81.96000000000004,26.684999999999945 81.88000000000011,26.753000000000043 C81.8100000000004,26.821000000000026 81.72000000000025,26.854000000000042 81.61999999999989,26.854000000000042 C81.4399999999996,26.854000000000042 81.31999999999971,26.735000000000014 81.26000000000022,26.495000000000005 L81.21000000000004,26.32299999999998 C81.17000000000007,26.16700000000003 81.11999999999989,26.062999999999988 81.05000000000018,26.010999999999967 C80.98999999999978,25.958999999999946 80.89000000000033,25.932999999999993 80.73999999999978,25.932999999999993 C80.42000000000007,25.932999999999993 80.15999999999985,26.059999999999945 79.96000000000004,26.315000000000055 C79.76000000000022,26.571000000000026 79.65999999999985,26.90700000000004 79.65999999999985,27.32299999999998 C79.65999999999985,27.770999999999958 79.77999999999975,28.140999999999963 80.01000000000022,28.432999999999993 C80.23999999999978,28.724000000000046 80.52999999999975,28.870000000000005 80.89999999999964,28.870000000000005 C81.11999999999989,28.870000000000005 81.3100000000004,28.812999999999988 81.47000000000025,28.69799999999998 C81.63000000000011,28.583999999999946 81.80000000000018,28.390999999999963 81.98999999999978,28.120000000000005 L82.10000000000036,28.182999999999993 C82.05000000000018,28.297000000000025 82.0,28.388000000000034 81.97000000000025,28.456000000000017 C81.93000000000029,28.524 81.85999999999967,28.628000000000043 81.76000000000022,28.769000000000005 C81.64999999999964,28.908999999999992 81.55000000000018,29.020999999999958 81.44999999999982,29.104000000000042 C81.35000000000036,29.187999999999988 81.22000000000025,29.265999999999963 81.0600000000004,29.339000000000055 C80.89999999999964,29.412000000000035 80.72999999999956,29.44799999999998 80.55000000000018,29.44799999999998 C80.11999999999989,29.44799999999998 79.75,29.28200000000004 79.47000000000025,28.94799999999998 C79.18000000000029,28.61500000000001 79.03999999999996,28.187999999999988 79.03999999999996,27.66700000000003 M82.71000000000004,23.964000000000055 C82.85999999999967,24.047000000000025 83.0,24.149 83.14999999999964,24.269000000000005 C83.28999999999996,24.388000000000034 83.46000000000004,24.55499999999995 83.65999999999985,24.769000000000005 C83.85000000000036,24.98199999999997 84.02000000000044,25.211000000000013 84.15999999999985,25.456000000000017 C84.30000000000018,25.701000000000022 84.42000000000007,25.991999999999962 84.52000000000044,26.331000000000017 C84.60999999999967,26.66999999999996 84.65999999999985,27.025999999999954 84.65999999999985,27.400999999999954 C84.65999999999985,27.775999999999954 84.60999999999967,28.135999999999967 84.52000000000044,28.479000000000042 C84.42000000000007,28.82299999999998 84.30000000000018,29.110000000000014 84.17000000000007,29.339000000000055 C84.03999999999996,29.567999999999984 83.86999999999989,29.787000000000035 83.65999999999985,29.995000000000005 C83.46000000000004,30.202999999999975 83.28999999999996,30.360000000000014 83.15999999999985,30.464000000000055 C83.02999999999975,30.567999999999984 82.86999999999989,30.67700000000002 82.6899999999996,30.79200000000003 L82.61999999999989,30.650999999999954 C82.85999999999967,30.464000000000055 83.05000000000018,30.29200000000003 83.1899999999996,30.135999999999967 C83.34000000000015,29.979000000000042 83.47999999999956,29.778999999999996 83.60999999999967,29.533999999999992 C83.73999999999978,29.288999999999987 83.82999999999993,28.995000000000005 83.89000000000033,28.650999999999954 C83.94999999999982,28.307999999999993 83.97999999999956,27.895999999999958 83.97999999999956,27.41700000000003 C83.97999999999956,26.92700000000002 83.94999999999982,26.503000000000043 83.89000000000033,26.144000000000005 C83.82999999999993,25.783999999999992 83.73999999999978,25.476999999999975 83.60999999999967,25.22199999999998 C83.47999999999956,24.966000000000008 83.34000000000015,24.760999999999967 83.1899999999996,24.604000000000042 C83.05000000000018,24.44799999999998 82.85999999999967,24.275999999999954 82.61999999999989,24.089000000000055 L82.71000000000004,23.964000000000055 M88.48999999999978,24.635999999999967 C88.39000000000033,24.635999999999967 88.1899999999996,24.692999999999984 87.90999999999985,24.807999999999993 L87.90999999999985,24.69799999999998 L89.34000000000015,23.964000000000055 L89.39999999999964,23.979000000000042 L89.39999999999964,28.775999999999954 C89.39999999999964,28.974000000000046 89.44999999999982,29.101999999999975 89.55000000000018,29.158999999999992 C89.64999999999964,29.216000000000008 89.85000000000036,29.245000000000005 90.15999999999985,29.245000000000005 L90.15999999999985,29.370000000000005 L87.96000000000004,29.370000000000005 L87.96000000000004,29.245000000000005 C88.26000000000022,29.235000000000014 88.47000000000025,29.190000000000055 88.56999999999971,29.111999999999966 C88.67000000000007,29.033999999999992 88.72999999999956,28.870000000000005 88.72999999999956,28.620000000000005 L88.72999999999956,25.010999999999967 C88.72999999999956,24.760999999999967 88.64999999999964,24.635999999999967 88.48999999999978,24.635999999999967 M91.47999999999956,29.54200000000003 L91.46000000000004,29.385999999999967 C92.0600000000004,29.28200000000004 92.57999999999993,29.024 93.0,28.611999999999966 C93.42000000000007,28.201000000000022 93.72000000000025,27.66700000000003 93.88000000000011,27.010999999999967 C93.48999999999978,27.32299999999998 93.09000000000015,27.479000000000042 92.68000000000029,27.479000000000042 C92.25,27.479000000000042 91.90999999999985,27.327999999999975 91.64000000000033,27.025999999999954 C91.36999999999989,26.724000000000046 91.23999999999978,26.333999999999946 91.23999999999978,25.854000000000042 C91.23999999999978,25.312999999999988 91.39999999999964,24.860000000000014 91.72000000000025,24.495000000000005 C92.03999999999996,24.129999999999995 92.43000000000029,23.94799999999998 92.90999999999985,23.94799999999998 C93.4399999999996,23.94799999999998 93.88000000000011,24.158999999999992 94.21000000000004,24.581000000000017 C94.53999999999996,25.003000000000043 94.71000000000004,25.547000000000025 94.71000000000004,26.214000000000055 C94.71000000000004,26.432999999999993 94.6899999999996,26.653999999999996 94.65999999999985,26.878000000000043 C94.61999999999989,27.101999999999975 94.52999999999975,27.366999999999962 94.39999999999964,27.674999999999955 C94.26000000000022,27.98199999999997 94.07999999999993,28.254999999999995 93.85999999999967,28.495000000000005 C93.63000000000011,28.735000000000014 93.31999999999971,28.952999999999975 92.90999999999985,29.150999999999954 C92.51000000000022,29.349000000000046 92.02999999999975,29.479000000000042 91.47999999999956,29.54200000000003 M92.97999999999956,27.120000000000005 C93.07999999999993,27.120000000000005 93.1899999999996,27.10699999999997 93.31999999999971,27.081000000000017 C93.4399999999996,27.05499999999995 93.56999999999971,26.991999999999962 93.69999999999982,26.894000000000005 C93.82999999999993,26.79499999999996 93.89999999999964,26.672000000000025 93.89999999999964,26.525999999999954 L93.89999999999964,26.214000000000055 C93.89999999999964,24.860000000000014 93.55000000000018,24.182999999999993 92.85000000000036,24.182999999999993 C92.68000000000029,24.182999999999993 92.53999999999996,24.226999999999975 92.42000000000007,24.315000000000055 C92.30000000000018,24.403999999999996 92.21000000000004,24.520999999999958 92.15999999999985,24.66700000000003 C92.10000000000036,24.812999999999988 92.05000000000018,24.958999999999946 92.02000000000044,25.104000000000042 C91.98999999999978,25.25 91.97999999999956,25.40700000000004 91.97999999999956,25.57299999999998 C91.97999999999956,26.05200000000002 92.06999999999971,26.42999999999995 92.25,26.706000000000017 C92.43000000000029,26.98199999999997 92.67000000000007,27.120000000000005 92.97999999999956,27.120000000000005 M97.05000000000018,29.479000000000042 C96.51000000000022,29.479000000000042 96.07999999999993,29.265999999999963 95.75,28.839000000000055 C95.42000000000007,28.412000000000035 95.26000000000022,27.84400000000005 95.26000000000022,27.135999999999967 C95.26000000000022,26.91700000000003 95.27999999999975,26.692999999999984 95.32999999999993,26.464000000000055 C95.36999999999989,26.235000000000014 95.47000000000025,25.97199999999998 95.60999999999967,25.674999999999955 C95.75,25.378000000000043 95.9399999999996,25.111999999999966 96.17000000000007,24.878000000000043 C96.40999999999985,24.644000000000005 96.72999999999956,24.434999999999945 97.14000000000033,24.253000000000043 C97.55000000000018,24.071000000000026 98.02999999999975,23.952999999999975 98.56999999999971,23.900999999999954 L98.59000000000015,24.025999999999954 C97.94999999999982,24.129999999999995 97.42000000000007,24.385999999999967 97.0,24.79200000000003 C96.57999999999993,25.19799999999998 96.3100000000004,25.702999999999975 96.1899999999996,26.307999999999993 C96.4399999999996,26.162000000000035 96.63000000000011,26.067999999999984 96.77000000000044,26.025999999999954 C96.89999999999964,25.985000000000014 97.05000000000018,25.964000000000055 97.22999999999956,25.964000000000055 C97.6899999999996,25.964000000000055 98.06999999999971,26.111999999999966 98.34000000000015,26.408999999999992 C98.61999999999989,26.706000000000017 98.76000000000022,27.104000000000042 98.76000000000022,27.604000000000042 C98.76000000000022,28.15700000000004 98.60000000000036,28.60699999999997 98.27999999999975,28.956000000000017 C97.96000000000004,29.30499999999995 97.55000000000018,29.479000000000042 97.05000000000018,29.479000000000042 M96.93000000000029,26.32299999999998 C96.5600000000004,26.32299999999998 96.31999999999971,26.400999999999954 96.1899999999996,26.557999999999993 C96.0600000000004,26.714000000000055 95.98999999999978,26.94799999999998 95.98999999999978,27.260999999999967 C95.98999999999978,27.875 96.10000000000036,28.360000000000014 96.30000000000018,28.714000000000055 C96.51000000000022,29.067999999999984 96.78999999999996,29.245000000000005 97.13000000000011,29.245000000000005 C97.42000000000007,29.245000000000005 97.64000000000033,29.128000000000043 97.78999999999996,28.894000000000005 C97.93000000000029,28.658999999999992 98.01000000000022,28.32299999999998 98.01000000000022,27.885999999999967 C98.01000000000022,27.385999999999967 97.90999999999985,27.0 97.72999999999956,26.729000000000042 C97.53999999999996,26.458999999999946 97.27000000000044,26.32299999999998 96.93000000000029,26.32299999999998 M101.30000000000018,26.400999999999954 C101.78999999999996,26.754999999999995 102.11999999999989,27.05200000000002 102.30000000000018,27.29200000000003 C102.47000000000025,27.53200000000004 102.55000000000018,27.807999999999993 102.55000000000018,28.120000000000005 C102.55000000000018,28.537000000000035 102.40999999999985,28.866999999999962 102.11999999999989,29.111999999999966 C101.84000000000015,29.35699999999997 101.46000000000004,29.479000000000042 100.97999999999956,29.479000000000042 C100.52000000000044,29.479000000000042 100.14999999999964,29.35699999999997 99.85999999999967,29.111999999999966 C99.56999999999971,28.866999999999962 99.43000000000029,28.547000000000025 99.43000000000029,28.150999999999954 C99.43000000000029,27.879999999999995 99.48999999999978,27.653999999999996 99.61999999999989,27.47199999999998 C99.75,27.288999999999987 100.03999999999996,27.037000000000035 100.47999999999956,26.714000000000055 C100.05000000000018,26.339000000000055 99.77999999999975,26.062999999999988 99.65999999999985,25.885999999999967 C99.53999999999996,25.708999999999946 99.47999999999956,25.49000000000001 99.47999999999956,25.229000000000042 C99.47999999999956,24.86500000000001 99.61999999999989,24.559999999999945 99.90999999999985,24.315000000000055 C100.1899999999996,24.071000000000026 100.5600000000004,23.94799999999998 101.01000000000022,23.94799999999998 C101.39999999999964,23.94799999999998 101.72999999999956,24.05499999999995 101.97999999999956,24.269000000000005 C102.23999999999978,24.48199999999997 102.36999999999989,24.760999999999967 102.36999999999989,25.104000000000042 C102.36999999999989,25.375 102.28999999999996,25.604000000000042 102.13000000000011,25.79200000000003 C101.97999999999956,25.979000000000042 101.69999999999982,26.182999999999993 101.30000000000018,26.400999999999954 M100.68000000000029,26.870000000000005 C100.44999999999982,27.057999999999993 100.28999999999996,27.241999999999962 100.1899999999996,27.424999999999955 C100.10000000000036,27.60699999999997 100.05000000000018,27.827999999999975 100.05000000000018,28.089000000000055 C100.05000000000018,28.432999999999993 100.14999999999964,28.711000000000013 100.32999999999993,28.924999999999955 C100.51000000000022,29.138000000000034 100.75,29.245000000000005 101.05000000000018,29.245000000000005 C101.3100000000004,29.245000000000005 101.52999999999975,29.163999999999987 101.6899999999996,29.003000000000043 C101.85000000000036,28.841000000000008 101.93000000000029,28.629999999999995 101.93000000000029,28.370000000000005 C101.93000000000029,28.287000000000035 101.92000000000007,28.206000000000017 101.90999999999985,28.128000000000043 C101.89000000000033,28.049999999999955 101.86999999999989,27.985000000000014 101.85000000000036,27.932999999999993 C101.82999999999993,27.879999999999995 101.78999999999996,27.817999999999984 101.72999999999956,27.745000000000005 C101.68000000000029,27.672000000000025 101.63000000000011,27.616999999999962 101.60000000000036,27.581000000000017 C101.56999999999971,27.54499999999996 101.51000000000022,27.486999999999966 101.42000000000007,27.408999999999992 C101.32999999999993,27.331000000000017 101.27000000000044,27.275999999999954 101.22000000000025,27.245000000000005 C101.17000000000007,27.214000000000055 101.09000000000015,27.153999999999996 100.96000000000004,27.065000000000055 C100.84000000000015,26.976999999999975 100.73999999999978,26.912000000000035 100.68000000000029,26.870000000000005 M101.06999999999971,26.260999999999967 C101.07999999999993,26.25 101.11999999999989,26.22199999999998 101.1899999999996,26.174999999999955 C101.25,26.128000000000043 101.30000000000018,26.091000000000008 101.32999999999993,26.065000000000055 C101.35000000000036,26.038999999999987 101.39999999999964,26.0 101.46000000000004,25.94799999999998 C101.52000000000044,25.895999999999958 101.56999999999971,25.84400000000005 101.60000000000036,25.79200000000003 C101.63000000000011,25.74000000000001 101.67000000000007,25.67700000000002 101.71000000000004,25.604000000000042 C101.75,25.53200000000004 101.77999999999975,25.451000000000022 101.80000000000018,25.361999999999966 C101.8100000000004,25.274 101.81999999999971,25.182999999999993 101.81999999999971,25.089000000000055 C101.81999999999971,24.817999999999984 101.73999999999978,24.599000000000046 101.59000000000015,24.432999999999993 C101.43000000000029,24.265999999999963 101.22000000000025,24.182999999999993 100.9399999999996,24.182999999999993 C100.6899999999996,24.182999999999993 100.48999999999978,24.258000000000038 100.32999999999993,24.408999999999992 C100.17000000000007,24.559999999999945 100.09000000000015,24.75 100.09000000000015,24.979000000000042 C100.09000000000015,25.19799999999998 100.15999999999985,25.40700000000004 100.3100000000004,25.604000000000042 C100.46000000000004,25.80200000000002 100.72000000000025,26.020999999999958 101.06999999999971,26.260999999999967 M110.43000000000029,26.69799999999998 C110.43000000000029,26.937999999999988 110.39999999999964,27.172000000000025 110.34000000000015,27.400999999999954 C110.28999999999996,27.629999999999995 110.1899999999996,27.866999999999962 110.05000000000018,28.111999999999966 C109.90999999999985,28.35699999999997 109.72000000000025,28.567999999999984 109.5,28.745000000000005 C109.27999999999975,28.922000000000025 108.97999999999956,29.071000000000026 108.60000000000036,29.190000000000055 C108.22999999999956,29.309999999999945 107.80000000000018,29.370000000000005 107.34000000000015,29.370000000000005 L105.06999999999971,29.370000000000005 L105.06999999999971,29.214000000000055 C105.36999999999989,29.192999999999984 105.5600000000004,29.140999999999963 105.64999999999964,29.057999999999993 C105.72999999999956,28.974000000000046 105.77000000000044,28.787000000000035 105.77000000000044,28.495000000000005 L105.77000000000044,24.94799999999998 C105.77000000000044,24.65700000000004 105.72999999999956,24.47199999999998 105.65999999999985,24.394000000000005 C105.57999999999993,24.315000000000055 105.38000000000011,24.260999999999967 105.06999999999971,24.229000000000042 L105.06999999999971,24.07299999999998 L107.22999999999956,24.07299999999998 C107.72000000000025,24.07299999999998 108.14999999999964,24.128000000000043 108.52999999999975,24.236999999999966 C108.90999999999985,24.34699999999998 109.22000000000025,24.486999999999966 109.44999999999982,24.658999999999992 C109.6899999999996,24.831000000000017 109.88000000000011,25.037000000000035 110.02999999999975,25.275999999999954 C110.18000000000029,25.515999999999963 110.28999999999996,25.75 110.34000000000015,25.979000000000042 C110.39999999999964,26.208999999999946 110.43000000000029,26.44799999999998 110.43000000000029,26.69799999999998 M109.53999999999996,26.760999999999967 C109.53999999999996,26.53200000000004 109.52000000000044,26.309999999999945 109.47999999999956,26.09699999999998 C109.43000000000029,25.883000000000038 109.35000000000036,25.66999999999996 109.22999999999956,25.456000000000017 C109.10999999999967,25.241999999999962 108.96000000000004,25.059999999999945 108.77000000000044,24.908999999999992 C108.59000000000015,24.758000000000038 108.34000000000015,24.633000000000038 108.03999999999996,24.533999999999992 C107.73999999999978,24.434999999999945 107.39000000000033,24.385999999999967 107.01000000000022,24.385999999999967 C106.84000000000015,24.385999999999967 106.72999999999956,24.40700000000004 106.67000000000007,24.44799999999998 C106.60999999999967,24.49000000000001 106.59000000000015,24.57299999999998 106.59000000000015,24.69799999999998 L106.59000000000015,28.745000000000005 C106.59000000000015,28.870000000000005 106.60999999999967,28.956000000000017 106.67000000000007,29.003000000000043 C106.72999999999956,29.049999999999955 106.84000000000015,29.07299999999998 107.01000000000022,29.07299999999998 C108.6899999999996,29.07299999999998 109.53999999999996,28.30200000000002 109.53999999999996,26.760999999999967 M113.36999999999989,26.885999999999967 C113.22999999999956,26.458999999999946 113.11999999999989,26.190000000000055 113.05000000000018,26.081000000000017 C112.97000000000025,25.97199999999998 112.84000000000015,25.90700000000004 112.65999999999985,25.885999999999967 L112.65999999999985,25.775999999999954 L114.28999999999996,25.775999999999954 L114.28999999999996,25.885999999999967 C114.10000000000036,25.91700000000003 113.97999999999956,25.951000000000022 113.90999999999985,25.986999999999966 C113.85000000000036,26.024 113.81999999999971,26.089000000000055 113.81999999999971,26.182999999999993 C113.81999999999971,26.245000000000005 113.86999999999989,26.400999999999954 113.96000000000004,26.650999999999954 L114.63000000000011,28.44799999999998 L115.35000000000036,26.66700000000003 C115.4399999999996,26.44799999999998 115.48999999999978,26.270999999999958 115.48999999999978,26.135999999999967 C115.48999999999978,26.07299999999998 115.47000000000025,26.024 115.40999999999985,25.986999999999966 C115.35999999999967,25.951000000000022 115.27000000000044,25.91700000000003 115.13000000000011,25.885999999999967 L115.13000000000011,25.775999999999954 L116.11999999999989,25.775999999999954 L116.11999999999989,25.885999999999967 C116.02999999999975,25.91700000000003 115.97999999999956,25.956000000000017 115.9399999999996,26.003000000000043 C115.90999999999985,26.049999999999955 115.85999999999967,26.15700000000004 115.78999999999996,26.32299999999998 L114.68000000000029,29.089000000000055 C114.56999999999971,29.349000000000046 114.5,29.479000000000042 114.46000000000004,29.479000000000042 C114.42000000000007,29.479000000000042 114.35999999999967,29.36500000000001 114.27000000000044,29.135999999999967 L113.53999999999996,27.245000000000005 L112.64999999999964,29.16700000000003 C112.55000000000018,29.375 112.48999999999978,29.479000000000042 112.4399999999996,29.479000000000042 C112.39999999999964,29.479000000000042 112.34000000000015,29.36500000000001 112.23999999999978,29.135999999999967 L111.15999999999985,26.400999999999954 C111.07999999999993,26.192999999999984 111.01000000000022,26.057999999999993 110.96000000000004,25.995000000000005 C110.90999999999985,25.932999999999993 110.84000000000015,25.895999999999958 110.73999999999978,25.885999999999967 L110.73999999999978,25.775999999999954 L112.18000000000029,25.775999999999954 L112.18000000000029,25.885999999999967 C112.02999999999975,25.90700000000004 111.93000000000029,25.934999999999945 111.88000000000011,25.97199999999998 C111.82999999999993,26.008000000000038 111.80000000000018,26.067999999999984 111.80000000000018,26.150999999999954 C111.80000000000018,26.235000000000014 111.81999999999971,26.317999999999984 111.85000000000036,26.400999999999954 L112.64999999999964,28.479000000000042 L113.36999999999989,26.885999999999967 M116.38000000000011,28.57299999999998 C116.38000000000011,28.479000000000042 116.39000000000033,28.394000000000005 116.40999999999985,28.315000000000055 C116.43000000000029,28.236999999999966 116.47000000000025,28.162000000000035 116.52000000000044,28.089000000000055 C116.56999999999971,28.015999999999963 116.63000000000011,27.951000000000022 116.68000000000029,27.894000000000005 C116.72999999999956,27.836000000000013 116.80000000000018,27.775999999999954 116.89999999999964,27.714000000000055 C116.98999999999978,27.650999999999954 117.06999999999971,27.599000000000046 117.13000000000011,27.557999999999993 C117.1899999999996,27.515999999999963 117.28999999999996,27.46900000000005 117.40999999999985,27.41700000000003 C117.53999999999996,27.36500000000001 117.63000000000011,27.32299999999998 117.69999999999982,27.29200000000003 C117.77000000000044,27.260999999999967 117.88000000000011,27.216000000000008 118.02999999999975,27.158999999999992 C118.18000000000029,27.101999999999975 118.28999999999996,27.057999999999993 118.35000000000036,27.025999999999954 L118.35000000000036,26.54200000000003 C118.35000000000036,26.104000000000042 118.14999999999964,25.885999999999967 117.76000000000022,25.885999999999967 C117.59000000000015,25.885999999999967 117.44999999999982,25.924999999999955 117.34000000000015,26.003000000000043 C117.22999999999956,26.081000000000017 117.18000000000029,26.172000000000025 117.18000000000029,26.275999999999954 C117.18000000000029,26.317999999999984 117.1899999999996,26.375 117.19999999999982,26.44799999999998 C117.22000000000025,26.520999999999958 117.22999999999956,26.567999999999984 117.22999999999956,26.589000000000055 C117.22999999999956,26.682999999999993 117.1899999999996,26.763000000000034 117.11999999999989,26.831000000000017 C117.03999999999996,26.899 116.96000000000004,26.932999999999993 116.85000000000036,26.932999999999993 C116.76000000000022,26.932999999999993 116.68000000000029,26.899 116.60999999999967,26.831000000000017 C116.53999999999996,26.763000000000034 116.51000000000022,26.682999999999993 116.51000000000022,26.589000000000055 C116.51000000000022,26.339000000000055 116.64000000000033,26.128000000000043 116.89999999999964,25.956000000000017 C117.15999999999985,25.783999999999992 117.47999999999956,25.69799999999998 117.85000000000036,25.69799999999998 C118.27999999999975,25.69799999999998 118.56999999999971,25.80200000000002 118.72999999999956,26.010999999999967 C118.89999999999964,26.21900000000005 118.97999999999956,26.537000000000035 118.97999999999956,26.964000000000055 L118.97999999999956,28.510999999999967 C118.97999999999956,28.687999999999988 118.98999999999978,28.809999999999945 119.02999999999975,28.878000000000043 C119.06999999999971,28.946000000000026 119.13000000000011,28.979000000000042 119.22999999999956,28.979000000000042 C119.32999999999993,28.979000000000042 119.4399999999996,28.92700000000002 119.56999999999971,28.82299999999998 L119.56999999999971,29.04200000000003 C119.43000000000029,29.19799999999998 119.3100000000004,29.30499999999995 119.21000000000004,29.361999999999966 C119.10999999999967,29.41999999999996 118.98999999999978,29.44799999999998 118.85000000000036,29.44799999999998 C118.6899999999996,29.44799999999998 118.57999999999993,29.400999999999954 118.51000000000022,29.307999999999993 C118.43000000000029,29.214000000000055 118.39000000000033,29.062999999999988 118.36999999999989,28.854000000000042 C117.90999999999985,29.25 117.52000000000044,29.44799999999998 117.21000000000004,29.44799999999998 C116.97000000000025,29.44799999999998 116.77000000000044,29.366999999999962 116.61999999999989,29.206000000000017 C116.46000000000004,29.04499999999996 116.38000000000011,28.833999999999946 116.38000000000011,28.57299999999998 M118.35000000000036,28.370000000000005 L118.35000000000036,27.214000000000055 C117.86999999999989,27.390999999999963 117.53999999999996,27.562999999999988 117.35000000000036,27.729000000000042 C117.15999999999985,27.895999999999958 117.06999999999971,28.09400000000005 117.06999999999971,28.32299999999998 C117.06999999999971,28.54200000000003 117.11999999999989,28.702999999999975 117.22999999999956,28.807999999999993 C117.32999999999993,28.912000000000035 117.4399999999996,28.964000000000055 117.56999999999971,28.964000000000055 C117.75,28.964000000000055 117.9399999999996,28.90700000000004 118.14999999999964,28.79200000000003 C118.22999999999956,28.74000000000001 118.28999999999996,28.687999999999988 118.3100000000004,28.635999999999967 C118.34000000000015,28.583999999999946 118.35000000000036,28.495000000000005 118.35000000000036,28.370000000000005 M122.03999999999996,26.44799999999998 C121.96000000000004,26.44799999999998 121.85000000000036,26.400999999999954 121.72999999999956,26.307999999999993 C121.60999999999967,26.214000000000055 121.53999999999996,26.16700000000003 121.51000000000022,26.16700000000003 C121.39999999999964,26.16700000000003 121.27999999999975,26.245000000000005 121.14999999999964,26.400999999999954 C121.01000000000022,26.557999999999993 120.9399999999996,26.702999999999975 120.9399999999996,26.839000000000055 L120.9399999999996,28.650999999999954 C120.9399999999996,28.879999999999995 120.98999999999978,29.033999999999992 121.07999999999993,29.111999999999966 C121.17000000000007,29.190000000000055 121.35000000000036,29.235000000000014 121.61999999999989,29.245000000000005 L121.61999999999989,29.370000000000005 L119.6899999999996,29.370000000000005 L119.6899999999996,29.245000000000005 C119.96000000000004,29.202999999999975 120.10999999999967,29.150999999999954 120.17000000000007,29.089000000000055 C120.22999999999956,29.025999999999954 120.26000000000022,28.895999999999958 120.26000000000022,28.69799999999998 L120.26000000000022,26.682999999999993 C120.26000000000022,26.504999999999995 120.23999999999978,26.379999999999995 120.19999999999982,26.307999999999993 C120.17000000000007,26.235000000000014 120.10000000000036,26.19799999999998 119.98999999999978,26.19799999999998 C119.90999999999985,26.19799999999998 119.8100000000004,26.208999999999946 119.71000000000004,26.229000000000042 L119.71000000000004,26.104000000000042 C120.14000000000033,25.96900000000005 120.52999999999975,25.833999999999946 120.89999999999964,25.69799999999998 L120.9399999999996,25.714000000000055 L120.9399999999996,26.41700000000003 C121.14000000000033,26.145999999999958 121.3100000000004,25.958999999999946 121.4399999999996,25.854000000000042 C121.57999999999993,25.75 121.72999999999956,25.69799999999998 121.89999999999964,25.69799999999998 C122.03999999999996,25.69799999999998 122.14999999999964,25.73199999999997 122.22999999999956,25.799999999999955 C122.30000000000018,25.866999999999962 122.34000000000015,25.96900000000005 122.34000000000015,26.104000000000042 C122.34000000000015,26.208999999999946 122.3100000000004,26.29200000000003 122.26000000000022,26.354000000000042 C122.21000000000004,26.41700000000003 122.13000000000011,26.44799999999998 122.03999999999996,26.44799999999998 M125.02000000000044,24.729000000000042 C124.9399999999996,24.729000000000042 124.86999999999989,24.69799999999998 124.80000000000018,24.635999999999967 C124.73999999999978,24.57299999999998 124.6899999999996,24.504999999999995 124.65999999999985,24.432999999999993 C124.61999999999989,24.360000000000014 124.5600000000004,24.29200000000003 124.48999999999978,24.229000000000042 C124.42000000000007,24.16700000000003 124.34000000000015,24.135999999999967 124.23999999999978,24.135999999999967 C123.9399999999996,24.135999999999967 123.78999999999996,24.370000000000005 123.78999999999996,24.839000000000055 L123.78999999999996,25.775999999999954 L124.77000000000044,25.775999999999954 L124.77000000000044,26.010999999999967 L123.78999999999996,26.010999999999967 L123.78999999999996,28.54200000000003 C123.78999999999996,28.833999999999946 123.82999999999993,29.020999999999958 123.90999999999985,29.104000000000042 C124.0,29.187999999999988 124.21000000000004,29.235000000000014 124.53999999999996,29.245000000000005 L124.53999999999996,29.370000000000005 L122.4399999999996,29.370000000000005 L122.4399999999996,29.245000000000005 C122.73999999999978,29.235000000000014 122.92000000000007,29.187999999999988 123.0,29.104000000000042 C123.07999999999993,29.020999999999958 123.11999999999989,28.833999999999946 123.11999999999989,28.54200000000003 L123.11999999999989,26.010999999999967 L122.46000000000004,26.010999999999967 L122.46000000000004,25.775999999999954 L123.11999999999989,25.775999999999954 C123.13000000000011,25.172000000000025 123.23999999999978,24.706000000000017 123.44999999999982,24.378000000000043 C123.67000000000007,24.049999999999955 124.02000000000044,23.885999999999967 124.52000000000044,23.885999999999967 C124.76000000000022,23.885999999999967 124.96000000000004,23.934999999999945 125.11999999999989,24.033999999999992 C125.27000000000044,24.133000000000038 125.35000000000036,24.254999999999995 125.35000000000036,24.400999999999954 C125.35000000000036,24.495000000000005 125.31999999999971,24.57299999999998 125.26000000000022,24.635999999999967 C125.1899999999996,24.69799999999998 125.11999999999989,24.729000000000042 125.02000000000044,24.729000000000042 M132.72999999999956,24.79200000000003 L130.6800000000003,29.370000000000005 L130.5699999999997,29.370000000000005 L128.5699999999997,24.979000000000042 L128.5699999999997,28.19799999999998 C128.5699999999997,28.604000000000042 128.6199999999999,28.873000000000047 128.71000000000004,29.003000000000043 C128.80000000000018,29.133000000000038 129.01000000000022,29.202999999999975 129.3199999999997,29.214000000000055 L129.3199999999997,29.370000000000005 L127.4399999999996,29.370000000000005 L127.4399999999996,29.214000000000055 C127.77000000000044,29.192999999999984 127.97999999999956,29.120000000000005 128.0699999999997,28.995000000000005 C128.15999999999985,28.870000000000005 128.21000000000004,28.604000000000042 128.21000000000004,28.19799999999998 L128.21000000000004,24.94799999999998 C128.21000000000004,24.65700000000004 128.17000000000007,24.46900000000005 128.07999999999993,24.385999999999967 C127.98999999999978,24.30200000000002 127.77999999999975,24.25 127.46000000000004,24.229000000000042 L127.46000000000004,24.07299999999998 L129.03999999999996,24.07299999999998 L130.8800000000001,28.120000000000005 L132.64999999999964,24.07299999999998 L134.23999999999978,24.07299999999998 L134.23999999999978,24.229000000000042 C133.9399999999996,24.260999999999967 133.75,24.317999999999984 133.67000000000007,24.400999999999954 C133.59000000000015,24.485000000000014 133.55000000000018,24.66700000000003 133.55000000000018,24.94799999999998 L133.55000000000018,28.495000000000005 C133.55000000000018,28.775999999999954 133.60000000000036,28.961000000000013 133.6800000000003,29.049999999999955 C133.76000000000022,29.138000000000034 133.94999999999982,29.192999999999984 134.23999999999978,29.214000000000055 L134.23999999999978,29.370000000000005 L132.01000000000022,29.370000000000005 L132.01000000000022,29.214000000000055 C132.3199999999997,29.192999999999984 132.52000000000044,29.135999999999967 132.60000000000036,29.04200000000003 C132.6800000000003,28.94799999999998 132.72999999999956,28.74000000000001 132.72999999999956,28.41700000000003 L132.72999999999956,24.79200000000003 M138.21000000000004,28.94799999999998 L138.21000000000004,29.07299999999998 C137.78999999999996,29.187999999999988 137.4300000000003,29.312999999999988 137.1199999999999,29.44799999999998 L137.09000000000015,29.432999999999993 L137.0699999999997,28.745000000000005 C137.0600000000004,28.765999999999963 137.02000000000044,28.815000000000055 136.9399999999996,28.894000000000005 C136.85999999999967,28.97199999999998 136.80000000000018,29.025999999999954 136.77000000000044,29.057999999999993 C136.73999999999978,29.089000000000055 136.6899999999996,29.135999999999967 136.60999999999967,29.19799999999998 C136.52999999999975,29.260999999999967 136.46000000000004,29.30499999999995 136.40999999999985,29.331000000000017 C136.35000000000036,29.35699999999997 136.27999999999975,29.383000000000038 136.1899999999996,29.408999999999992 C136.10000000000036,29.434999999999945 136.01000000000022,29.44799999999998 135.90999999999985,29.44799999999998 C135.6199999999999,29.44799999999998 135.39000000000033,29.351999999999975 135.21000000000004,29.158999999999992 C135.02999999999975,28.966000000000008 134.9399999999996,28.714000000000055 134.9399999999996,28.400999999999954 L134.9399999999996,26.385999999999967 C134.9399999999996,26.208999999999946 134.90999999999985,26.083999999999946 134.84000000000015,26.010999999999967 C134.77999999999975,25.937999999999988 134.64000000000033,25.895999999999958 134.4399999999996,25.885999999999967 L134.4399999999996,25.775999999999954 L135.6199999999999,25.775999999999954 L135.6199999999999,28.370000000000005 C135.6199999999999,28.525999999999954 135.67000000000007,28.663999999999987 135.78999999999996,28.783999999999992 C135.89999999999964,28.903999999999996 136.02999999999975,28.964000000000055 136.1800000000003,28.964000000000055 C136.23999999999978,28.964000000000055 136.3100000000004,28.956000000000017 136.39000000000033,28.940000000000055 C136.47000000000025,28.924999999999955 136.5600000000004,28.895999999999958 136.65999999999985,28.854000000000042 C136.77000000000044,28.812999999999988 136.85999999999967,28.741999999999962 136.9300000000003,28.644000000000005 C137.0,28.54499999999996 137.03999999999996,28.422000000000025 137.03999999999996,28.275999999999954 L137.03999999999996,26.400999999999954 C137.03999999999996,26.214000000000055 137.0,26.086000000000013 136.9300000000003,26.019000000000005 C136.85999999999967,25.951000000000022 136.6899999999996,25.912000000000035 136.4399999999996,25.900999999999954 L136.4399999999996,25.775999999999954 L137.71000000000004,25.775999999999954 L137.71000000000004,28.495000000000005 C137.71000000000004,28.682999999999993 137.73999999999978,28.80499999999995 137.80000000000018,28.861999999999966 C137.8699999999999,28.91999999999996 137.98999999999978,28.94799999999998 138.1800000000003,28.94799999999998 L138.21000000000004,28.94799999999998 M140.40999999999985,25.854000000000042 C140.42000000000007,25.854000000000042 140.47000000000025,25.827999999999975 140.53999999999996,25.775999999999954 L140.6300000000001,25.775999999999954 L140.65999999999985,26.854000000000042 L140.53999999999996,26.854000000000042 C140.46000000000004,26.5 140.35000000000036,26.248000000000047 140.21000000000004,26.09699999999998 C140.0699999999997,25.946000000000026 139.89000000000033,25.870000000000005 139.65999999999985,25.870000000000005 C139.48999999999978,25.870000000000005 139.34000000000015,25.922000000000025 139.22999999999956,26.025999999999954 C139.10999999999967,26.129999999999995 139.05000000000018,26.260999999999967 139.05000000000018,26.41700000000003 C139.05000000000018,26.645999999999958 139.17000000000007,26.827999999999975 139.39999999999964,26.964000000000055 L140.26000000000022,27.479000000000042 C140.5,27.625 140.67000000000007,27.770999999999958 140.77000000000044,27.91700000000003 C140.8800000000001,28.062999999999988 140.9300000000003,28.235000000000014 140.9300000000003,28.432999999999993 C140.9300000000003,28.702999999999975 140.8199999999997,28.940000000000055 140.59000000000015,29.144000000000005 C140.3699999999999,29.34699999999998 140.10999999999967,29.44799999999998 139.80000000000018,29.44799999999998 C139.67000000000007,29.44799999999998 139.48999999999978,29.424999999999955 139.27000000000044,29.378000000000043 C139.03999999999996,29.331000000000017 138.89999999999964,29.307999999999993 138.85000000000036,29.307999999999993 C138.77000000000044,29.307999999999993 138.71000000000004,29.339000000000055 138.65999999999985,29.400999999999954 L138.55000000000018,29.400999999999954 L138.55000000000018,28.150999999999954 L138.6899999999996,28.150999999999954 C138.77999999999975,28.525999999999954 138.8800000000001,28.79200000000003 138.98999999999978,28.94799999999998 C139.15999999999985,29.16700000000003 139.39999999999964,29.275999999999954 139.71000000000004,29.275999999999954 C139.90999999999985,29.275999999999954 140.0699999999997,29.224000000000046 140.1899999999996,29.120000000000005 C140.3100000000004,29.015999999999963 140.3699999999999,28.875 140.3699999999999,28.69799999999998 C140.3699999999999,28.458999999999946 140.22999999999956,28.260999999999967 139.9399999999996,28.104000000000042 L139.48999999999978,27.839000000000055 C139.14999999999964,27.640999999999963 138.90999999999985,27.456000000000017 138.77000000000044,27.283999999999992 C138.6199999999999,27.111999999999966 138.55000000000018,26.912000000000035 138.55000000000018,26.682999999999993 C138.55000000000018,26.390999999999963 138.65999999999985,26.153999999999996 138.85999999999967,25.97199999999998 C139.0600000000004,25.788999999999987 139.3199999999997,25.69799999999998 139.64999999999964,25.69799999999998 C139.8100000000004,25.69799999999998 139.97999999999956,25.724000000000046 140.1300000000001,25.775999999999954 C140.28999999999996,25.827999999999975 140.3800000000001,25.854000000000042 140.40999999999985,25.854000000000042 M141.6899999999996,26.229000000000042 C141.5699999999997,26.229000000000042 141.46000000000004,26.235000000000014 141.35000000000036,26.245000000000005 L141.35000000000036,26.135999999999967 C141.72999999999956,26.03200000000004 142.14000000000033,25.885999999999967 142.60000000000036,25.69799999999998 L142.6300000000001,25.714000000000055 L142.6300000000001,28.557999999999993 C142.6300000000001,28.839000000000055 142.67000000000007,29.019000000000005 142.72999999999956,29.09699999999998 C142.80000000000018,29.174999999999955 142.97000000000025,29.224000000000046 143.22999999999956,29.245000000000005 L143.22999999999956,29.370000000000005 L141.3199999999997,29.370000000000005 L141.3199999999997,29.245000000000005 C141.60000000000036,29.235000000000014 141.77999999999975,29.187999999999988 141.85000000000036,29.104000000000042 C141.92000000000007,29.020999999999958 141.96000000000004,28.839000000000055 141.96000000000004,28.557999999999993 L141.96000000000004,26.69799999999998 C141.96000000000004,26.520999999999958 141.9399999999996,26.399 141.89999999999964,26.331000000000017 C141.85999999999967,26.263000000000034 141.78999999999996,26.229000000000042 141.6899999999996,26.229000000000042 M142.22999999999956,23.900999999999954 C142.34000000000015,23.900999999999954 142.4399999999996,23.942999999999984 142.52000000000044,24.025999999999954 C142.60999999999967,24.110000000000014 142.64999999999964,24.208999999999946 142.64999999999964,24.32299999999998 C142.64999999999964,24.437999999999988 142.60999999999967,24.533999999999992 142.52000000000044,24.611999999999966 C142.4399999999996,24.690000000000055 142.34000000000015,24.729000000000042 142.22999999999956,24.729000000000042 C142.10999999999967,24.729000000000042 142.02000000000044,24.687999999999988 141.9399999999996,24.604000000000042 C141.85999999999967,24.520999999999958 141.8199999999997,24.424999999999955 141.8199999999997,24.315000000000055 C141.8199999999997,24.206000000000017 141.85999999999967,24.110000000000014 141.9399999999996,24.025999999999954 C142.02000000000044,23.942999999999984 142.10999999999967,23.900999999999954 142.22999999999956,23.900999999999954 M143.6199999999999,27.66700000000003 C143.6199999999999,27.07299999999998 143.78999999999996,26.59699999999998 144.14000000000033,26.236999999999966 C144.48999999999978,25.878000000000043 144.89999999999964,25.69799999999998 145.3699999999999,25.69799999999998 C145.69999999999982,25.69799999999998 145.97999999999956,25.778999999999996 146.22000000000025,25.940000000000055 C146.44999999999982,26.101999999999975 146.5699999999997,26.297000000000025 146.5699999999997,26.525999999999954 C146.5699999999997,26.610000000000014 146.52999999999975,26.684999999999945 146.46000000000004,26.753000000000043 C146.39000000000033,26.821000000000026 146.30000000000018,26.854000000000042 146.1899999999996,26.854000000000042 C146.02000000000044,26.854000000000042 145.89999999999964,26.735000000000014 145.84000000000015,26.495000000000005 L145.78999999999996,26.32299999999998 C145.75,26.16700000000003 145.6899999999996,26.062999999999988 145.6300000000001,26.010999999999967 C145.5699999999997,25.958999999999946 145.47000000000025,25.932999999999993 145.3199999999997,25.932999999999993 C145.0,25.932999999999993 144.73999999999978,26.059999999999945 144.53999999999996,26.315000000000055 C144.34000000000015,26.571000000000026 144.23999999999978,26.90700000000004 144.23999999999978,27.32299999999998 C144.23999999999978,27.770999999999958 144.35999999999967,28.140999999999963 144.59000000000015,28.432999999999993 C144.8100000000004,28.724000000000046 145.10999999999967,28.870000000000005 145.47999999999956,28.870000000000005 C145.6899999999996,28.870000000000005 145.8800000000001,28.812999999999988 146.05000000000018,28.69799999999998 C146.21000000000004,28.583999999999946 146.3800000000001,28.390999999999963 146.5699999999997,28.120000000000005 L146.6800000000003,28.182999999999993 C146.6300000000001,28.297000000000025 146.57999999999993,28.388000000000034 146.55000000000018,28.456000000000017 C146.51000000000022,28.524 146.4399999999996,28.628000000000043 146.34000000000015,28.769000000000005 C146.22999999999956,28.908999999999992 146.1300000000001,29.020999999999958 146.02999999999975,29.104000000000042 C145.9300000000003,29.187999999999988 145.80000000000018,29.265999999999963 145.64000000000033,29.339000000000055 C145.47999999999956,29.412000000000035 145.3100000000004,29.44799999999998 145.1300000000001,29.44799999999998 C144.6899999999996,29.44799999999998 144.32999999999993,29.28200000000004 144.05000000000018,28.94799999999998 C143.76000000000022,28.61500000000001 143.6199999999999,28.187999999999988 143.6199999999999,27.66700000000003 M147.96000000000004,28.57299999999998 C148.0699999999997,28.57299999999998 148.1800000000003,28.616999999999962 148.27000000000044,28.706000000000017 C148.35000000000036,28.79499999999996 148.39999999999964,28.900999999999954 148.39999999999964,29.025999999999954 C148.39999999999964,29.140999999999963 148.35000000000036,29.241999999999962 148.27000000000044,29.331000000000017 C148.1800000000003,29.41999999999996 148.0699999999997,29.464000000000055 147.9399999999996,29.464000000000055 C147.82999999999993,29.464000000000055 147.72999999999956,29.41999999999996 147.64999999999964,29.331000000000017 C147.5600000000004,29.241999999999962 147.52000000000044,29.140999999999963 147.52000000000044,29.025999999999954 C147.52000000000044,28.900999999999954 147.5699999999997,28.79499999999996 147.65999999999985,28.706000000000017 C147.73999999999978,28.616999999999962 147.85000000000036,28.57299999999998 147.96000000000004,28.57299999999998" />
</svg>
