<?xml version="1.0" encoding="UTF-8" standalone="yes"?>
<svg width="256.0px" height="256.0px" xmlns="http://www.w3.org/2000/svg" xmlns:xlink="http://www.w3.org/1999/xlink" version="1.2" baseProfile="tiny">
<path d="M131.8699999999999,240.811 C135.78999999999996,243.392 147.5600000000004,243.392 151.47999999999956,240.811 C147.5600000000004,244.192 135.78999999999996,244.192 131.8699999999999,240.811" />
<path d="M101.39000000000033,235.018 L101.39000000000033,236.565 C101.39000000000033,237.117 101.42000000000007,237.555 101.47000000000025,237.878 C101.89999999999964,237.513 102.21000000000004,237.242 102.39000000000033,237.065 C102.60000000000036,236.857 102.8100000000004,236.568 103.02000000000044,236.198 C103.22999999999956,235.828 103.32999999999993,235.461 103.32999999999993,235.096 C103.32999999999993,234.732 103.25,234.419 103.10000000000036,234.159 C102.9399999999996,233.899 102.72999999999956,233.768 102.47000000000025,233.768 C102.15999999999985,233.768 101.89999999999964,233.888 101.6899999999996,234.128 C101.48999999999978,234.388 101.39000000000033,234.685 101.39000000000033,235.018 M100.56999999999971,238.596 L100.31999999999971,226.706 C100.5,226.602 100.6899999999996,226.55 100.86999999999989,226.55 C101.05000000000018,226.55 101.22999999999956,226.602 101.40999999999985,226.706 L101.25,233.596 C101.77999999999975,233.138 102.39999999999964,232.909 103.10000000000036,232.909 C103.60000000000036,232.909 104.02000000000044,233.117 104.35000000000036,233.534 C104.6899999999996,233.951 104.85999999999967,234.43 104.85999999999967,234.971 C104.85999999999967,235.305 104.75,235.664 104.52999999999975,236.05 C104.32999999999993,236.393 104.10999999999967,236.664 103.88000000000011,236.862 C103.73999999999978,236.966 103.40999999999985,237.227 102.88000000000011,237.643 C102.72000000000025,237.758 102.53999999999996,237.893 102.31999999999971,238.05 C102.10999999999967,238.206 101.97999999999956,238.305 101.93000000000029,238.346 C101.82999999999993,238.399 101.73999999999978,238.503 101.65999999999985,238.659 C101.57999999999993,238.794 101.47000000000025,238.904 101.35000000000036,238.987 C101.26000000000022,239.07 101.15999999999985,239.112 101.02999999999975,239.112 C100.89999999999964,239.112 100.78999999999996,239.065 100.71000000000004,238.971 C100.60999999999967,238.878 100.56999999999971,238.753 100.56999999999971,238.596" />
<path d="M100.21000000000004,177.518 L100.21000000000004,179.065 C100.21000000000004,179.617 100.23999999999978,180.055 100.28999999999996,180.378 C100.72000000000025,180.013 101.02999999999975,179.742 101.21000000000004,179.565 C101.42000000000007,179.357 101.63000000000011,179.068 101.84000000000015,178.698 C102.05000000000018,178.328 102.14999999999964,177.961 102.14999999999964,177.596 C102.14999999999964,177.232 102.06999999999971,176.919 101.92000000000007,176.659 C101.76000000000022,176.399 101.55000000000018,176.268 101.28999999999996,176.268 C100.97999999999956,176.268 100.72000000000025,176.388 100.51000000000022,176.628 C100.3100000000004,176.888 100.21000000000004,177.185 100.21000000000004,177.518 M99.39000000000033,181.096 L99.14000000000033,169.206 C99.31999999999971,169.102 99.51000000000022,169.05 99.6899999999996,169.05 C99.86999999999989,169.05 100.05000000000018,169.102 100.22999999999956,169.206 L100.06999999999971,176.096 C100.60000000000036,175.638 101.22000000000025,175.409 101.92000000000007,175.409 C102.42000000000007,175.409 102.84000000000015,175.617 103.17000000000007,176.034 C103.51000000000022,176.451 103.68000000000029,176.93 103.68000000000029,177.471 C103.68000000000029,177.805 103.56999999999971,178.164 103.35000000000036,178.55 C103.14999999999964,178.893 102.93000000000029,179.164 102.69999999999982,179.362 C102.5600000000004,179.466 102.22999999999956,179.727 101.69999999999982,180.143 C101.53999999999996,180.258 101.35999999999967,180.393 101.14000000000033,180.55 C100.93000000000029,180.706 100.80000000000018,180.805 100.73999999999978,180.846 C100.64999999999964,180.899 100.5600000000004,181.003 100.47999999999956,181.159 C100.39999999999964,181.294 100.28999999999996,181.404 100.17000000000007,181.487 C100.07999999999993,181.57 99.97999999999956,181.612 99.85000000000036,181.612 C99.72000000000025,181.612 99.60999999999967,181.565 99.52999999999975,181.471 C99.43000000000029,181.378 99.39000000000033,181.253 99.39000000000033,181.096" />
<path d="M100.21000000000004,195.018 L100.21000000000004,196.565 C100.21000000000004,197.117 100.23999999999978,197.555 100.28999999999996,197.878 C100.72000000000025,197.513 101.02999999999975,197.242 101.21000000000004,197.065 C101.42000000000007,196.857 101.63000000000011,196.568 101.84000000000015,196.198 C102.05000000000018,195.828 102.14999999999964,195.461 102.14999999999964,195.096 C102.14999999999964,194.732 102.06999999999971,194.419 101.92000000000007,194.159 C101.76000000000022,193.899 101.55000000000018,193.768 101.28999999999996,193.768 C100.97999999999956,193.768 100.72000000000025,193.888 100.51000000000022,194.128 C100.3100000000004,194.388 100.21000000000004,194.685 100.21000000000004,195.018 M99.39000000000033,198.596 L99.14000000000033,186.706 C99.31999999999971,186.602 99.51000000000022,186.55 99.6899999999996,186.55 C99.86999999999989,186.55 100.05000000000018,186.602 100.22999999999956,186.706 L100.06999999999971,193.596 C100.60000000000036,193.138 101.22000000000025,192.909 101.92000000000007,192.909 C102.42000000000007,192.909 102.84000000000015,193.117 103.17000000000007,193.534 C103.51000000000022,193.951 103.68000000000029,194.43 103.68000000000029,194.971 C103.68000000000029,195.305 103.56999999999971,195.664 103.35000000000036,196.05 C103.14999999999964,196.393 102.93000000000029,196.664 102.69999999999982,196.862 C102.5600000000004,196.966 102.22999999999956,197.227 101.69999999999982,197.643 C101.53999999999996,197.758 101.35999999999967,197.893 101.14000000000033,198.05 C100.93000000000029,198.206 100.80000000000018,198.305 100.73999999999978,198.346 C100.64999999999964,198.399 100.5600000000004,198.503 100.47999999999956,198.659 C100.39999999999964,198.794 100.28999999999996,198.904 100.17000000000007,198.987 C100.07999999999993,199.07 99.97999999999956,199.112 99.85000000000036,199.112 C99.72000000000025,199.112 99.60999999999967,199.065 99.52999999999975,198.971 C99.43000000000029,198.878 99.39000000000033,198.753 99.39000000000033,198.596" />
<path d="M69.0,95.0183 L69.0,96.5652 C69.0,97.1173 69.02000000000044,97.5548 69.06999999999971,97.8777 C69.5,97.5131 69.8100000000004,97.2423 70.0,97.0652 C70.21000000000004,96.8569 70.40999999999985,96.5678 70.61999999999989,96.198 C70.82999999999993,95.8282 70.93000000000029,95.461 70.93000000000029,95.0965 C70.93000000000029,94.7319 70.85999999999967,94.4194 70.69999999999982,94.159 C70.53999999999996,93.8985 70.34000000000015,93.7683 70.06999999999971,93.7683 C69.76000000000022,93.7683 69.5,93.8881 69.28999999999996,94.1277 C69.10000000000036,94.3881 69.0,94.685 69.0,95.0183 M68.17000000000007,98.5965 L67.92000000000007,86.7058 C68.10999999999967,86.6017 68.28999999999996,86.5496 68.47000000000025,86.5496 C68.65999999999985,86.5496 68.84000000000015,86.6017 69.01000000000022,86.7058 L68.85999999999967,93.5965 C69.39000000000033,93.1381 70.0,92.909 70.69999999999982,92.909 C71.19999999999982,92.909 71.61999999999989,93.1173 71.96000000000004,93.534 C72.30000000000018,93.9506 72.47000000000025,94.4298 72.47000000000025,94.9715 C72.47000000000025,95.3048 72.35999999999967,95.6642 72.14000000000033,96.0496 C71.93000000000029,96.3933 71.71000000000004,96.6642 71.47999999999956,96.8621 C71.35000000000036,96.9662 71.01000000000022,97.2267 70.47999999999956,97.6433 C70.31999999999971,97.7579 70.14000000000033,97.8933 69.93000000000029,98.0496 C69.71000000000004,98.2058 69.57999999999993,98.3048 69.52999999999975,98.3465 C69.43000000000029,98.3985 69.35000000000036,98.5027 69.26000000000022,98.659 C69.18000000000029,98.7944 69.06999999999971,98.9037 68.94999999999982,98.9871 C68.86999999999989,99.0704 68.76000000000022,99.1121 68.63000000000011,99.1121 C68.5,99.1121 68.39000000000033,99.0652 68.3100000000004,98.9715 C68.22000000000025,98.8777 68.17000000000007,98.7527 68.17000000000007,98.5965" />
<path d="M70.0,72.5183 L70.0,74.0652 C70.0,74.6173 70.02000000000044,75.0548 70.06999999999971,75.3777 C70.5,75.0131 70.8100000000004,74.7423 71.0,74.5652 C71.21000000000004,74.3569 71.40999999999985,74.0678 71.61999999999989,73.698 C71.82999999999993,73.3282 71.93000000000029,72.961 71.93000000000029,72.5965 C71.93000000000029,72.2319 71.85999999999967,71.9194 71.69999999999982,71.659 C71.53999999999996,71.3985 71.34000000000015,71.2683 71.06999999999971,71.2683 C70.76000000000022,71.2683 70.5,71.3881 70.28999999999996,71.6277 C70.10000000000036,71.8881 70.0,72.185 70.0,72.5183 M69.17000000000007,76.0965 L68.92000000000007,64.2058 C69.10999999999967,64.1017 69.28999999999996,64.0496 69.47000000000025,64.0496 C69.65999999999985,64.0496 69.84000000000015,64.1017 70.01000000000022,64.2058 L69.85999999999967,71.0965 C70.39000000000033,70.6381 71.0,70.409 71.69999999999982,70.409 C72.19999999999982,70.409 72.61999999999989,70.6173 72.96000000000004,71.034 C73.30000000000018,71.4506 73.47000000000025,71.9298 73.47000000000025,72.4715 C73.47000000000025,72.8048 73.35999999999967,73.1642 73.14000000000033,73.5496 C72.93000000000029,73.8933 72.71000000000004,74.1642 72.47999999999956,74.3621 C72.35000000000036,74.4662 72.01000000000022,74.7267 71.47999999999956,75.1433 C71.31999999999971,75.2579 71.14000000000033,75.3933 70.93000000000029,75.5496 C70.71000000000004,75.7058 70.57999999999993,75.8048 70.52999999999975,75.8465 C70.43000000000029,75.8985 70.35000000000036,76.0027 70.26000000000022,76.159 C70.18000000000029,76.2944 70.06999999999971,76.4037 69.94999999999982,76.4871 C69.86999999999989,76.5704 69.76000000000022,76.6121 69.63000000000011,76.6121 C69.5,76.6121 69.39000000000033,76.5652 69.3100000000004,76.4715 C69.22000000000025,76.3777 69.17000000000007,76.2527 69.17000000000007,76.0965" />
<path d="M29.63000000000011,87.5183 L29.63000000000011,89.0652 C29.63000000000011,89.6173 29.659999999999854,90.0548 29.710000000000036,90.3777 C30.140000000000327,90.0131 30.4399999999996,89.7423 30.63000000000011,89.5652 C30.840000000000146,89.3569 31.050000000000182,89.0678 31.26000000000022,88.698 C31.470000000000255,88.3282 31.56999999999971,87.961 31.56999999999971,87.5965 C31.56999999999971,87.2319 31.48999999999978,86.9194 31.340000000000146,86.659 C31.18000000000029,86.3985 30.970000000000255,86.2683 30.710000000000036,86.2683 C30.399999999999636,86.2683 30.140000000000327,86.3881 29.93000000000029,86.6277 C29.729999999999563,86.8881 29.63000000000011,87.185 29.63000000000011,87.5183 M28.800000000000182,91.0965 L28.550000000000182,79.2058 C28.73999999999978,79.1017 28.93000000000029,79.0496 29.109999999999673,79.0496 C29.289999999999964,79.0496 29.470000000000255,79.1017 29.649999999999636,79.2058 L29.48999999999978,86.0965 C30.020000000000437,85.6381 30.640000000000327,85.409 31.340000000000146,85.409 C31.840000000000146,85.409 32.25,85.6173 32.590000000000146,86.034 C32.93000000000029,86.4506 33.100000000000364,86.9298 33.100000000000364,87.4715 C33.100000000000364,87.8048 32.98999999999978,88.1642 32.77000000000044,88.5496 C32.5600000000004,88.8933 32.350000000000364,89.1642 32.11999999999989,89.3621 C31.979999999999563,89.4662 31.649999999999636,89.7267 31.11999999999989,90.1433 C30.960000000000036,90.2579 30.779999999999745,90.3933 30.5600000000004,90.5496 C30.350000000000364,90.7058 30.220000000000255,90.8048 30.159999999999854,90.8465 C30.06999999999971,90.8985 29.979999999999563,91.0027 29.899999999999636,91.159 C29.8100000000004,91.2944 29.710000000000036,91.4037 29.590000000000146,91.4871 C29.5,91.5704 29.399999999999636,91.6121 29.270000000000437,91.6121 C29.140000000000327,91.6121 29.029999999999745,91.5652 28.9399999999996,91.4715 C28.850000000000364,91.3777 28.800000000000182,91.2527 28.800000000000182,91.0965" />
<path d="M30.63000000000011,65.0183 L30.63000000000011,66.5652 C30.63000000000011,67.1173 30.659999999999854,67.5548 30.710000000000036,67.8777 C31.140000000000327,67.5131 31.4399999999996,67.2423 31.63000000000011,67.0652 C31.840000000000146,66.8569 32.05000000000018,66.5678 32.26000000000022,66.198 C32.470000000000255,65.8282 32.56999999999971,65.461 32.56999999999971,65.0965 C32.56999999999971,64.7319 32.48999999999978,64.4194 32.340000000000146,64.159 C32.18000000000029,63.8985 31.970000000000255,63.7683 31.710000000000036,63.7683 C31.399999999999636,63.7683 31.140000000000327,63.8881 30.93000000000029,64.1277 C30.729999999999563,64.3881 30.63000000000011,64.685 30.63000000000011,65.0183 M29.800000000000182,68.5965 L29.550000000000182,56.7058 C29.73999999999978,56.6017 29.93000000000029,56.5496 30.109999999999673,56.5496 C30.289999999999964,56.5496 30.470000000000255,56.6017 30.649999999999636,56.7058 L30.48999999999978,63.5965 C31.020000000000437,63.1381 31.640000000000327,62.909 32.340000000000146,62.909 C32.840000000000146,62.909 33.25,63.1173 33.590000000000146,63.534 C33.93000000000029,63.9506 34.100000000000364,64.4298 34.100000000000364,64.9715 C34.100000000000364,65.3048 33.98999999999978,65.6642 33.77000000000044,66.0496 C33.5600000000004,66.3933 33.350000000000364,66.6642 33.11999999999989,66.8621 C32.97999999999956,66.9662 32.649999999999636,67.2267 32.11999999999989,67.6433 C31.960000000000036,67.7579 31.779999999999745,67.8933 31.5600000000004,68.0496 C31.350000000000364,68.2058 31.220000000000255,68.3048 31.159999999999854,68.3465 C31.06999999999971,68.3985 30.979999999999563,68.5027 30.899999999999636,68.659 C30.8100000000004,68.7944 30.710000000000036,68.9037 30.590000000000146,68.9871 C30.5,69.0704 30.399999999999636,69.1121 30.270000000000437,69.1121 C30.140000000000327,69.1121 30.029999999999745,69.0652 29.9399999999996,68.9715 C29.850000000000364,68.8777 29.800000000000182,68.7527 29.800000000000182,68.5965" />
<path d="M153.5699999999997,233.096 C154.1899999999996,233.096 154.72000000000025,233.258 155.15999999999985,233.581 C155.5600000000004,233.935 155.76000000000022,234.378 155.76000000000022,234.909 C155.76000000000022,235.805 155.30000000000018,236.643 154.3800000000001,237.425 C153.4399999999996,238.206 152.4399999999996,238.596 151.3699999999999,238.596 C150.73999999999978,238.596 150.21000000000004,238.435 149.78999999999996,238.112 C149.3800000000001,237.758 149.1800000000003,237.315 149.1800000000003,236.784 C149.1800000000003,235.888 149.64999999999964,235.05 150.57999999999993,234.268 C151.5,233.487 152.5,233.096 153.5699999999997,233.096" />
<path d="M131.97999999999956,233.096 C132.60999999999967,233.096 133.14000000000033,233.258 133.57999999999993,233.581 C133.97000000000025,233.935 134.17000000000007,234.378 134.17000000000007,234.909 C134.17000000000007,235.805 133.71000000000004,236.643 132.80000000000018,237.425 C131.85999999999967,238.206 130.85000000000036,238.596 129.77999999999975,238.596 C129.14999999999964,238.596 128.6300000000001,238.435 128.19999999999982,238.112 C127.80000000000018,237.758 127.59000000000015,237.315 127.59000000000015,236.784 C127.59000000000015,235.888 128.0600000000004,235.05 129.0,234.268 C129.92000000000007,233.487 130.90999999999985,233.096 131.97999999999956,233.096" />
<path d="M110.39999999999964,233.096 C111.02000000000044,233.096 111.55000000000018,233.258 111.98999999999978,233.581 C112.39000000000033,233.935 112.57999999999993,234.378 112.57999999999993,234.909 C112.57999999999993,235.805 112.13000000000011,236.643 111.21000000000004,237.425 C110.27000000000044,238.206 109.27000000000044,238.596 108.1899999999996,238.596 C107.56999999999971,238.596 107.03999999999996,238.435 106.61999999999989,238.112 C106.21000000000004,237.758 106.01000000000022,237.315 106.01000000000022,236.784 C106.01000000000022,235.888 106.47999999999956,235.05 107.40999999999985,234.268 C108.32999999999993,233.487 109.31999999999971,233.096 110.39999999999964,233.096" />
<path d="M112.14000000000033,172.034 C112.14000000000033,171.815 112.0600000000004,171.628 111.89000000000033,171.471 C111.71000000000004,171.305 111.51000000000022,171.221 111.28999999999996,171.221 C110.90999999999985,171.221 110.11999999999989,171.612 108.9399999999996,172.393 C107.71000000000004,173.185 106.96000000000004,173.753 106.6899999999996,174.096 C106.53999999999996,174.274 106.47000000000025,174.461 106.47000000000025,174.659 C106.47000000000025,174.878 106.5600000000004,175.065 106.72999999999956,175.221 C106.89000000000033,175.388 107.07999999999993,175.471 107.3100000000004,175.471 C107.6899999999996,175.471 108.47999999999956,175.081 109.69999999999982,174.3 C110.89999999999964,173.518 111.64000000000033,172.951 111.92000000000007,172.596 C112.06999999999971,172.43 112.14000000000033,172.242 112.14000000000033,172.034 M111.10999999999967,170.596 C112.22000000000025,170.596 112.77999999999975,171.076 112.77999999999975,172.034 C112.77999999999975,172.503 112.64000000000033,173.05 112.36999999999989,173.675 C112.10000000000036,174.289 111.73999999999978,174.758 111.27999999999975,175.081 C110.27999999999975,175.758 109.02000000000044,176.096 107.51000000000022,176.096 C106.39000000000033,176.096 105.82999999999993,175.617 105.82999999999993,174.659 C105.82999999999993,174.232 105.96000000000004,173.69 106.22999999999956,173.034 C106.48999999999978,172.409 106.85999999999967,171.935 107.32999999999993,171.612 C108.34000000000015,170.935 109.60000000000036,170.596 111.10999999999967,170.596" />
<path d="M112.14000000000033,177.034 C112.14000000000033,176.815 112.0600000000004,176.628 111.89000000000033,176.471 C111.71000000000004,176.305 111.51000000000022,176.221 111.28999999999996,176.221 C110.90999999999985,176.221 110.11999999999989,176.612 108.9399999999996,177.393 C107.71000000000004,178.185 106.96000000000004,178.753 106.6899999999996,179.096 C106.53999999999996,179.274 106.47000000000025,179.461 106.47000000000025,179.659 C106.47000000000025,179.878 106.5600000000004,180.065 106.72999999999956,180.221 C106.89000000000033,180.388 107.07999999999993,180.471 107.3100000000004,180.471 C107.6899999999996,180.471 108.47999999999956,180.081 109.69999999999982,179.3 C110.89999999999964,178.518 111.64000000000033,177.951 111.92000000000007,177.596 C112.06999999999971,177.43 112.14000000000033,177.242 112.14000000000033,177.034 M111.10999999999967,175.596 C112.22000000000025,175.596 112.77999999999975,176.076 112.77999999999975,177.034 C112.77999999999975,177.503 112.64000000000033,178.05 112.36999999999989,178.675 C112.10000000000036,179.289 111.73999999999978,179.758 111.27999999999975,180.081 C110.27999999999975,180.758 109.02000000000044,181.096 107.51000000000022,181.096 C106.39000000000033,181.096 105.82999999999993,180.617 105.82999999999993,179.659 C105.82999999999993,179.232 105.96000000000004,178.69 106.22999999999956,178.034 C106.48999999999978,177.409 106.85999999999967,176.935 107.32999999999993,176.612 C108.34000000000015,175.935 109.60000000000036,175.596 111.10999999999967,175.596" />
<path d="M112.14000000000033,184.534 C112.14000000000033,184.315 112.0600000000004,184.128 111.89000000000033,183.971 C111.71000000000004,183.805 111.51000000000022,183.721 111.28999999999996,183.721 C110.90999999999985,183.721 110.11999999999989,184.112 108.9399999999996,184.893 C107.71000000000004,185.685 106.96000000000004,186.253 106.6899999999996,186.596 C106.53999999999996,186.774 106.47000000000025,186.961 106.47000000000025,187.159 C106.47000000000025,187.378 106.5600000000004,187.565 106.72999999999956,187.721 C106.89000000000033,187.888 107.07999999999993,187.971 107.3100000000004,187.971 C107.6899999999996,187.971 108.47999999999956,187.581 109.69999999999982,186.8 C110.89999999999964,186.018 111.64000000000033,185.451 111.92000000000007,185.096 C112.06999999999971,184.93 112.14000000000033,184.742 112.14000000000033,184.534 M111.10999999999967,183.096 C112.22000000000025,183.096 112.77999999999975,183.576 112.77999999999975,184.534 C112.77999999999975,185.003 112.64000000000033,185.55 112.36999999999989,186.175 C112.10000000000036,186.789 111.73999999999978,187.258 111.27999999999975,187.581 C110.27999999999975,188.258 109.02000000000044,188.596 107.51000000000022,188.596 C106.39000000000033,188.596 105.82999999999993,188.117 105.82999999999993,187.159 C105.82999999999993,186.732 105.96000000000004,186.19 106.22999999999956,185.534 C106.48999999999978,184.909 106.85999999999967,184.435 107.32999999999993,184.112 C108.34000000000015,183.435 109.60000000000036,183.096 111.10999999999967,183.096" />
<path d="M112.14000000000033,194.534 C112.14000000000033,194.315 112.0600000000004,194.128 111.89000000000033,193.971 C111.71000000000004,193.805 111.51000000000022,193.721 111.28999999999996,193.721 C110.90999999999985,193.721 110.11999999999989,194.112 108.9399999999996,194.893 C107.71000000000004,195.685 106.96000000000004,196.253 106.6899999999996,196.596 C106.53999999999996,196.774 106.47000000000025,196.961 106.47000000000025,197.159 C106.47000000000025,197.378 106.5600000000004,197.565 106.72999999999956,197.721 C106.89000000000033,197.888 107.07999999999993,197.971 107.3100000000004,197.971 C107.6899999999996,197.971 108.47999999999956,197.581 109.69999999999982,196.8 C110.89999999999964,196.018 111.64000000000033,195.451 111.92000000000007,195.096 C112.06999999999971,194.93 112.14000000000033,194.742 112.14000000000033,194.534 M111.10999999999967,193.096 C112.22000000000025,193.096 112.77999999999975,193.576 112.77999999999975,194.534 C112.77999999999975,195.003 112.64000000000033,195.55 112.36999999999989,196.175 C112.10000000000036,196.789 111.73999999999978,197.258 111.27999999999975,197.581 C110.27999999999975,198.258 109.02000000000044,198.596 107.51000000000022,198.596 C106.39000000000033,198.596 105.82999999999993,198.117 105.82999999999993,197.159 C105.82999999999993,196.732 105.96000000000004,196.19 106.22999999999956,195.534 C106.48999999999978,194.909 106.85999999999967,194.435 107.32999999999993,194.112 C108.34000000000015,193.435 109.60000000000036,193.096 111.10999999999967,193.096" />
<path d="M79.0,93.0965 C79.61999999999989,93.0965 80.15999999999985,93.2579 80.59000000000015,93.5808 C80.98999999999978,93.935 81.1899999999996,94.3777 81.1899999999996,94.909 C81.1899999999996,95.8048 80.72999999999956,96.6433 79.8100000000004,97.4246 C78.86999999999989,98.2058 77.86999999999989,98.5965 76.80000000000018,98.5965 C76.17000000000007,98.5965 75.64999999999964,98.435 75.22000000000025,98.1121 C74.8100000000004,97.7579 74.60999999999967,97.3152 74.60999999999967,96.784 C74.60999999999967,95.8881 75.07999999999993,95.0496 76.02000000000044,94.2683 C76.93000000000029,93.4871 77.93000000000029,93.0965 79.0,93.0965" />
<path d="M79.0,70.5965 C79.61999999999989,70.5965 80.15999999999985,70.7579 80.59000000000015,71.0808 C80.98999999999978,71.435 81.1899999999996,71.8777 81.1899999999996,72.409 C81.1899999999996,73.3048 80.72999999999956,74.1433 79.8100000000004,74.9246 C78.86999999999989,75.7058 77.86999999999989,76.0965 76.80000000000018,76.0965 C76.17000000000007,76.0965 75.64999999999964,75.935 75.22000000000025,75.6121 C74.8100000000004,75.2579 74.60999999999967,74.8152 74.60999999999967,74.284 C74.60999999999967,73.3881 75.07999999999993,72.5496 76.02000000000044,71.7683 C76.93000000000029,70.9871 77.93000000000029,70.5965 79.0,70.5965" />
<path d="M63.30000000000018,85.5965 C63.93000000000029,85.5965 64.46000000000004,85.7579 64.89000000000033,86.0808 C65.28999999999996,86.435 65.48999999999978,86.8777 65.48999999999978,87.409 C65.48999999999978,88.3048 65.02999999999975,89.1433 64.10999999999967,89.9246 C63.18000000000029,90.7058 62.17000000000007,91.0965 61.100000000000364,91.0965 C60.470000000000255,91.0965 59.94999999999982,90.935 59.52000000000044,90.6121 C59.10999999999967,90.2579 58.909999999999854,89.8152 58.909999999999854,89.284 C58.909999999999854,88.3881 59.38000000000011,87.5496 60.31999999999971,86.7683 C61.22999999999956,85.9871 62.22999999999956,85.5965 63.30000000000018,85.5965" />
<path d="M63.30000000000018,63.0965 C63.93000000000029,63.0965 64.46000000000004,63.2579 64.89000000000033,63.5808 C65.28999999999996,63.935 65.48999999999978,64.3777 65.48999999999978,64.909 C65.48999999999978,65.8048 65.02999999999975,66.6433 64.10999999999967,67.4246 C63.18000000000029,68.2058 62.17000000000007,68.5965 61.100000000000364,68.5965 C60.470000000000255,68.5965 59.94999999999982,68.435 59.52000000000044,68.1121 C59.10999999999967,67.7579 58.909999999999854,67.3152 58.909999999999854,66.784 C58.909999999999854,65.8881 59.38000000000011,65.0496 60.31999999999971,64.2683 C61.22999999999956,63.4871 62.22999999999956,63.0965 63.30000000000018,63.0965" />
<path d="M51.470000000000255,83.0965 C52.090000000000146,83.0965 52.61999999999989,83.2579 53.0600000000004,83.5808 C53.460000000000036,83.935 53.659999999999854,84.3777 53.659999999999854,84.909 C53.659999999999854,85.8048 53.19999999999982,86.6433 52.279999999999745,87.4246 C51.340000000000146,88.2058 50.340000000000146,88.5965 49.27000000000044,88.5965 C48.64000000000033,88.5965 48.10999999999967,88.435 47.6899999999996,88.1121 C47.279999999999745,87.7579 47.07999999999993,87.3152 47.07999999999993,86.784 C47.07999999999993,85.8881 47.55000000000018,85.0496 48.47999999999956,84.2683 C49.399999999999636,83.4871 50.399999999999636,83.0965 51.470000000000255,83.0965" />
<path d="M51.470000000000255,60.5965 C52.090000000000146,60.5965 52.61999999999989,60.7579 53.0600000000004,61.0808 C53.460000000000036,61.435 53.659999999999854,61.8777 53.659999999999854,62.409 C53.659999999999854,63.3048 53.19999999999982,64.1433 52.279999999999745,64.9246 C51.340000000000146,65.7058 50.340000000000146,66.0965 49.27000000000044,66.0965 C48.64000000000033,66.0965 48.10999999999967,65.935 47.6899999999996,65.6121 C47.279999999999745,65.2579 47.07999999999993,64.8152 47.07999999999993,64.284 C47.07999999999993,63.3881 47.55000000000018,62.5496 48.47999999999956,61.7683 C49.399999999999636,60.9871 50.399999999999636,60.5965 51.470000000000255,60.5965" />
<path d="M39.64000000000033,85.5965 C40.26000000000022,85.5965 40.789999999999964,85.7579 41.22999999999956,86.0808 C41.63000000000011,86.435 41.81999999999971,86.8777 41.81999999999971,87.409 C41.81999999999971,88.3048 41.35999999999967,89.1433 40.44999999999982,89.9246 C39.51000000000022,90.7058 38.51000000000022,91.0965 37.43000000000029,91.0965 C36.8100000000004,91.0965 36.279999999999745,90.935 35.850000000000364,90.6121 C35.44999999999982,90.2579 35.23999999999978,89.8152 35.23999999999978,89.284 C35.23999999999978,88.3881 35.710000000000036,87.5496 36.649999999999636,86.7683 C37.56999999999971,85.9871 38.5600000000004,85.5965 39.64000000000033,85.5965" />
<path d="M39.64000000000033,63.0965 C40.26000000000022,63.0965 40.789999999999964,63.2579 41.22999999999956,63.5808 C41.63000000000011,63.935 41.81999999999971,64.3777 41.81999999999971,64.909 C41.81999999999971,65.8048 41.35999999999967,66.6433 40.44999999999982,67.4246 C39.51000000000022,68.2058 38.51000000000022,68.5965 37.43000000000029,68.5965 C36.8100000000004,68.5965 36.279999999999745,68.435 35.850000000000364,68.1121 C35.44999999999982,67.7579 35.23999999999978,67.3152 35.23999999999978,66.784 C35.23999999999978,65.8881 35.710000000000036,65.0496 36.649999999999636,64.2683 C37.56999999999971,63.4871 38.5600000000004,63.0965 39.64000000000033,63.0965" />
<path d="M4.5,169.534 C4.5,169.315 4.420000000000073,169.128 4.25,168.971 C4.069999999999709,168.805 3.869999999999891,168.721 3.6599999999998545,168.721 C3.2700000000004366,168.721 2.4799999999995634,169.112 1.300000000000182,169.893 C0.06999999999970896,170.685 -0.680000000000291,171.253 -0.9499999999998181,171.596 C-1.1000000000003638,171.774 -1.1700000000000728,171.961 -1.1700000000000728,172.159 C-1.1700000000000728,172.378 -1.0799999999999272,172.565 -0.9099999999998545,172.721 C-0.75,172.888 -0.5600000000004002,172.971 -0.32999999999992724,172.971 C0.0500000000001819,172.971 0.8400000000001455,172.581 2.0600000000004,171.8 C3.2600000000002183,171.018 4.0,170.451 4.279999999999745,170.096 C4.430000000000291,169.93 4.5,169.742 4.5,169.534 M3.4700000000002547,168.096 C4.579999999999927,168.096 5.140000000000327,168.576 5.140000000000327,169.534 C5.140000000000327,170.003 5.0,170.55 4.729999999999563,171.175 C4.460000000000036,171.789 4.100000000000364,172.258 3.6400000000003274,172.581 C2.6400000000003274,173.258 1.3800000000001091,173.596 -0.13000000000010914,173.596 C-1.25,173.596 -1.8100000000004002,173.117 -1.8100000000004002,172.159 C-1.8100000000004002,171.732 -1.680000000000291,171.19 -1.4099999999998545,170.534 C-1.1499999999996362,169.909 -0.7799999999997453,169.435 -0.3100000000004002,169.112 C0.6999999999998181,168.435 1.9600000000000364,168.096 3.4700000000002547,168.096" />
<path d="M113.31999999999971,125.846 L106.21000000000004,125.846 C106.06999999999971,125.846 106.01000000000022,125.779 106.01000000000022,125.643 L106.01000000000022,122.909 C106.01000000000022,122.784 106.06999999999971,122.721 106.21000000000004,122.721 L113.31999999999971,122.721 C113.4399999999996,122.721 113.51000000000022,122.784 113.51000000000022,122.909 L113.51000000000022,125.643 C113.51000000000022,125.779 113.4399999999996,125.846 113.31999999999971,125.846" />
<path d="M113.31999999999971,73.3465 L106.21000000000004,73.3465 C106.06999999999971,73.3465 106.01000000000022,73.2787 106.01000000000022,73.1433 L106.01000000000022,70.409 C106.01000000000022,70.284 106.06999999999971,70.2215 106.21000000000004,70.2215 L113.31999999999971,70.2215 C113.4399999999996,70.2215 113.51000000000022,70.284 113.51000000000022,70.409 L113.51000000000022,73.1433 C113.51000000000022,73.2787 113.4399999999996,73.3465 113.31999999999971,73.3465" />
<path d="M111.9399999999996,219.596 L134.17000000000007,219.596 L134.17000000000007,222.096 L111.9399999999996,222.096 L111.9399999999996,219.596" />
<path d="M35.23999999999978,128.346 L75.26000000000022,133.429 L75.26000000000022,135.929 L35.23999999999978,130.846 L35.23999999999978,128.346" />
<path d="M35.23999999999978,124.596 L59.5600000000004,127.685 L59.5600000000004,130.185 L35.23999999999978,127.096 L35.23999999999978,124.596" />
<path d="M35.23999999999978,120.846 L47.72999999999956,122.432 L47.72999999999956,124.932 L35.23999999999978,123.346 L35.23999999999978,120.846" />
<path d="M35.23999999999978,85.8465 L75.26000000000022,90.929 L75.26000000000022,93.429 L35.23999999999978,88.3465 L35.23999999999978,85.8465" />
<path d="M35.23999999999978,82.0965 L59.5600000000004,85.185 L59.5600000000004,87.685 L35.23999999999978,84.5965 L35.23999999999978,82.0965" />
<path d="M35.23999999999978,78.3465 L47.72999999999956,79.932 L47.72999999999956,82.432 L35.23999999999978,80.8465 L35.23999999999978,78.3465" />
<polyline points="0.0,63.3465 202.96000000000004,63.3465" fill="none" stroke="#000000" stroke-width="0.40" />
<polyline points="0.0,68.3465 202.96000000000004,68.3465" fill="none" stroke="#000000" stroke-width="0.40" />
<polyline points="0.0,73.3465 202.96000000000004,73.3465" fill="none" stroke="#000000" stroke-width="0.40" />
<polyline points="0.0,78.3465 202.96000000000004,78.3465" fill="none" stroke="#000000" stroke-width="0.40" />
<polyline points="0.0,83.3465 202.96000000000004,83.3465" fill="none" stroke="#000000" stroke-width="0.40" />
<polyline points="0.0,115.846 202.96000000000004,115.846" fill="none" stroke="#000000" stroke-width="0.40" />
<polyline points="0.0,120.846 202.96000000000004,120.846" fill="none" stroke="#000000" stroke-width="0.40" />
<polyline points="0.0,125.846 202.96000000000004,125.846" fill="none" stroke="#000000" stroke-width="0.40" />
<polyline points="0.0,130.846 202.96000000000004,130.846" fill="none" stroke="#000000" stroke-width="0.40" />
<polyline points="0.0,135.846 202.96000000000004,135.846" fill="none" stroke="#000000" stroke-width="0.40" />
<polyline points="0.0,168.346 202.96000000000004,168.346" fill="none" stroke="#000000" stroke-width="0.40" />
<polyline points="0.0,173.346 202.96000000000004,173.346" fill="none" stroke="#000000" stroke-width="0.40" />
<polyline points="0.0,178.346 202.96000000000004,178.346" fill="none" stroke="#000000" stroke-width="0.40" />
<polyline points="0.0,183.346 202.96000000000004,183.346" fill="none" stroke="#000000" stroke-width="0.40" />
<polyline points="0.0,188.346 202.96000000000004,188.346" fill="none" stroke="#000000" stroke-width="0.40" />
<polyline points="0.0,220.846 202.96000000000004,220.846" fill="none" stroke="#000000" stroke-width="0.40" />
<polyline points="0.0,225.846 202.96000000000004,225.846" fill="none" stroke="#000000" stroke-width="0.40" />
<polyline points="0.0,230.846 202.96000000000004,230.846" fill="none" stroke="#000000" stroke-width="0.40" />
<polyline points="0.0,235.846 202.96000000000004,235.846" fill="none" stroke="#000000" stroke-width="0.40" />
<polyline points="0.0,240.846 202.96000000000004,240.846" fill="none" stroke="#000000" stroke-width="0.40" />
<polyline points="202.5600000000004,220.846 202.5600000000004,240.846" fill="" stroke="#000000" stroke-width="0.80" />
<polyline points="202.5600000000004,168.346 202.5600000000004,188.346" fill="" stroke="#000000" stroke-width="0.80" />
<polyline points="202.5600000000004,115.846 202.5600000000004,135.846" fill="" stroke="#000000" stroke-width="0.80" />
<polyline points="202.5600000000004,63.3465 202.5600000000004,83.3465" fill="" stroke="#000000" stroke-width="0.80" />
<polyline points="155.4399999999996,234.907 155.4399999999996,218.971" fill="" stroke="#000000" stroke-width="0.65" />
<polyline points="133.85000000000036,234.907 133.85000000000036,220.846" fill="" stroke="#000000" stroke-width="0.65" />
<polyline points="112.26000000000022,234.907 112.26000000000022,220.846" fill="" stroke="#000000" stroke-width="0.65" />
<polyline points="112.4399999999996,195.078 112.4399999999996,158.971" fill="" stroke="#000000" stroke-width="0.65" />
<polyline points="74.93000000000029,96.7855 74.93000000000029,134.596" fill="" stroke="#000000" stroke-width="0.65" />
<polyline points="74.93000000000029,74.2855 74.93000000000029,92.0965" fill="" stroke="#000000" stroke-width="0.65" />
<polyline points="59.23999999999978,89.2855 59.23999999999978,132.602" fill="" stroke="#000000" stroke-width="0.65" />
<polyline points="59.23999999999978,66.7855 59.23999999999978,90.1024" fill="" stroke="#000000" stroke-width="0.65" />
<polyline points="47.399999999999636,86.7855 47.399999999999636,131.099" fill="" stroke="#000000" stroke-width="0.65" />
<polyline points="47.399999999999636,64.2855 47.399999999999636,88.5994" fill="" stroke="#000000" stroke-width="0.65" />
<polyline points="35.56999999999971,89.2855 35.56999999999971,129.596" fill="" stroke="#000000" stroke-width="0.65" />
<polyline points="35.56999999999971,66.7855 35.56999999999971,87.0965" fill="" stroke="#000000" stroke-width="0.65" />
<polyline points="104.32999999999993,193.346 114.27000000000044,193.346" fill="" stroke="#000000" stroke-width="0.80" />
<polyline points="73.10999999999967,95.8465 82.6899999999996,95.8465" fill="" stroke="#000000" stroke-width="0.80" />
<polyline points="73.10999999999967,100.846 82.6899999999996,100.846" fill="" stroke="#000000" stroke-width="0.80" />
<polyline points="73.10999999999967,105.846 82.6899999999996,105.846" fill="" stroke="#000000" stroke-width="0.80" />
<polyline points="73.10999999999967,110.846 82.6899999999996,110.846" fill="" stroke="#000000" stroke-width="0.80" />
<polyline points="57.409999999999854,90.8465 66.98999999999978,90.8465" fill="" stroke="#000000" stroke-width="0.80" />
<polyline points="57.409999999999854,95.8465 66.98999999999978,95.8465" fill="" stroke="#000000" stroke-width="0.80" />
<polyline points="57.409999999999854,100.846 66.98999999999978,100.846" fill="" stroke="#000000" stroke-width="0.80" />
<polyline points="57.409999999999854,105.846 66.98999999999978,105.846" fill="" stroke="#000000" stroke-width="0.80" />
<polyline points="57.409999999999854,110.846 66.98999999999978,110.846" fill="" stroke="#000000" stroke-width="0.80" />
<polyline points="45.57999999999993,85.8465 55.159999999999854,85.8465" fill="" stroke="#000000" stroke-width="0.80" />
<polyline points="45.57999999999993,90.8465 55.159999999999854,90.8465" fill="" stroke="#000000" stroke-width="0.80" />
<polyline points="45.57999999999993,95.8465 55.159999999999854,95.8465" fill="" stroke="#000000" stroke-width="0.80" />
<polyline points="45.57999999999993,100.846 55.159999999999854,100.846" fill="" stroke="#000000" stroke-width="0.80" />
<polyline points="45.57999999999993,105.846 55.159999999999854,105.846" fill="" stroke="#000000" stroke-width="0.80" />
<polyline points="45.57999999999993,110.846 55.159999999999854,110.846" fill="" stroke="#000000" stroke-width="0.80" />
<polyline points="33.73999999999978,90.8465 43.32999999999993,90.8465" fill="" stroke="#000000" stroke-width="0.80" />
<polyline points="33.73999999999978,95.8465 43.32999999999993,95.8465" fill="" stroke="#000000" stroke-width="0.80" />
<polyline points="33.73999999999978,100.846 43.32999999999993,100.846" fill="" stroke="#000000" stroke-width="0.80" />
<polyline points="33.73999999999978,105.846 43.32999999999993,105.846" fill="" stroke="#000000" stroke-width="0.80" />
<polyline points="33.73999999999978,110.846 43.32999999999993,110.846" fill="" stroke="#000000" stroke-width="0.80" />
<polyline points="0.0,193.346 0.3400000000001455,193.346" fill="" stroke="#000000" stroke-width="0.80" />
</svg>
