<?xml version="1.0" encoding="UTF-8" standalone="yes"?>
<svg width="256.0px" height="256.0px" xmlns="http://www.w3.org/2000/svg" xmlns:xlink="http://www.w3.org/1999/xlink" version="1.2" baseProfile="tiny">
<path d="M157.07999999999993,237.096 C167.14000000000033,243.196 197.3100000000004,243.196 207.35999999999967,237.096 C197.3100000000004,243.996 167.14000000000033,243.996 157.07999999999993,237.096" />
<path d="M241.89999999999964,245.018 L241.89999999999964,246.565 C241.89999999999964,247.117 241.9300000000003,247.555 241.97999999999956,247.878 C242.40999999999985,247.513 242.71000000000004,247.242 242.89999999999964,247.065 C243.10999999999967,246.857 243.3199999999997,246.568 243.52999999999975,246.198 C243.73999999999978,245.828 243.84000000000015,245.461 243.84000000000015,245.096 C243.84000000000015,244.732 243.76000000000022,244.419 243.60999999999967,244.159 C243.44999999999982,243.899 243.23999999999978,243.768 242.97999999999956,243.768 C242.67000000000007,243.768 242.40999999999985,243.888 242.19999999999982,244.128 C242.0,244.388 241.89999999999964,244.685 241.89999999999964,245.018 M241.0699999999997,248.596 L240.8199999999997,236.706 C241.01000000000022,236.602 241.19999999999982,236.55 241.3800000000001,236.55 C241.5600000000004,236.55 241.73999999999978,236.602 241.92000000000007,236.706 L241.76000000000022,243.596 C242.28999999999996,243.138 242.90999999999985,242.909 243.60999999999967,242.909 C244.10999999999967,242.909 244.52000000000044,243.117 244.85999999999967,243.534 C245.19999999999982,243.951 245.3699999999999,244.43 245.3699999999999,244.971 C245.3699999999999,245.305 245.26000000000022,245.664 245.03999999999996,246.05 C244.82999999999993,246.393 244.6199999999999,246.664 244.39000000000033,246.862 C244.25,246.966 243.92000000000007,247.227 243.39000000000033,247.643 C243.22999999999956,247.758 243.05000000000018,247.893 242.82999999999993,248.05 C242.6199999999999,248.206 242.48999999999978,248.305 242.4300000000003,248.346 C242.34000000000015,248.399 242.25,248.503 242.17000000000007,248.659 C242.07999999999993,248.794 241.97999999999956,248.904 241.85999999999967,248.987 C241.77000000000044,249.07 241.67000000000007,249.112 241.52999999999975,249.112 C241.39999999999964,249.112 241.30000000000018,249.065 241.21000000000004,248.971 C241.1199999999999,248.878 241.0699999999997,248.753 241.0699999999997,248.596" />
<path d="M199.44999999999982,87.5183 L199.44999999999982,89.0652 C199.44999999999982,89.6173 199.47000000000025,90.0548 199.52000000000044,90.3777 C199.94999999999982,90.0131 200.26000000000022,89.7423 200.44999999999982,89.5652 C200.64999999999964,89.3569 200.85999999999967,89.0678 201.0699999999997,88.698 C201.27999999999975,88.3282 201.3800000000001,87.961 201.3800000000001,87.5965 C201.3800000000001,87.2319 201.30000000000018,86.9194 201.14999999999964,86.659 C200.98999999999978,86.3985 200.77999999999975,86.2683 200.52000000000044,86.2683 C200.21000000000004,86.2683 199.94999999999982,86.3881 199.73999999999978,86.6277 C199.53999999999996,86.8881 199.44999999999982,87.185 199.44999999999982,87.5183 M198.6199999999999,91.0965 L198.3699999999999,79.2058 C198.55000000000018,79.1017 198.73999999999978,79.0496 198.92000000000007,79.0496 C199.10000000000036,79.0496 199.27999999999975,79.1017 199.46000000000004,79.2058 L199.30000000000018,86.0965 C199.84000000000015,85.6381 200.44999999999982,85.409 201.14999999999964,85.409 C201.64999999999964,85.409 202.0699999999997,85.6173 202.40999999999985,86.034 C202.73999999999978,86.4506 202.90999999999985,86.9298 202.90999999999985,87.4715 C202.90999999999985,87.8048 202.80000000000018,88.1642 202.59000000000015,88.5496 C202.3800000000001,88.8933 202.15999999999985,89.1642 201.9300000000003,89.3621 C201.78999999999996,89.4662 201.46000000000004,89.7267 200.9300000000003,90.1433 C200.77000000000044,90.2579 200.59000000000015,90.3933 200.3699999999999,90.5496 C200.15999999999985,90.7058 200.02999999999975,90.8048 199.97999999999956,90.8465 C199.8800000000001,90.8985 199.78999999999996,91.0027 199.71000000000004,91.159 C199.6300000000001,91.2944 199.52000000000044,91.4037 199.39999999999964,91.4871 C199.3100000000004,91.5704 199.21000000000004,91.6121 199.07999999999993,91.6121 C198.94999999999982,91.6121 198.84000000000015,91.5652 198.76000000000022,91.4715 C198.65999999999985,91.3777 198.6199999999999,91.2527 198.6199999999999,91.0965" />
<path d="M200.44999999999982,65.0183 L200.44999999999982,66.5652 C200.44999999999982,67.1173 200.47000000000025,67.5548 200.52000000000044,67.8777 C200.94999999999982,67.5131 201.26000000000022,67.2423 201.44999999999982,67.0652 C201.64999999999964,66.8569 201.85999999999967,66.5678 202.0699999999997,66.198 C202.27999999999975,65.8282 202.3800000000001,65.461 202.3800000000001,65.0965 C202.3800000000001,64.7319 202.30000000000018,64.4194 202.14999999999964,64.159 C201.98999999999978,63.8985 201.77999999999975,63.7683 201.52000000000044,63.7683 C201.21000000000004,63.7683 200.94999999999982,63.8881 200.73999999999978,64.1277 C200.53999999999996,64.3881 200.44999999999982,64.685 200.44999999999982,65.0183 M199.6199999999999,68.5965 L199.3699999999999,56.7058 C199.55000000000018,56.6017 199.73999999999978,56.5496 199.92000000000007,56.5496 C200.10000000000036,56.5496 200.27999999999975,56.6017 200.46000000000004,56.7058 L200.30000000000018,63.5965 C200.84000000000015,63.1381 201.44999999999982,62.909 202.14999999999964,62.909 C202.64999999999964,62.909 203.0699999999997,63.1173 203.40999999999985,63.534 C203.73999999999978,63.9506 203.90999999999985,64.4298 203.90999999999985,64.9715 C203.90999999999985,65.3048 203.80000000000018,65.6642 203.59000000000015,66.0496 C203.3800000000001,66.3933 203.15999999999985,66.6642 202.9300000000003,66.8621 C202.78999999999996,66.9662 202.46000000000004,67.2267 201.9300000000003,67.6433 C201.77000000000044,67.7579 201.59000000000015,67.8933 201.3699999999999,68.0496 C201.15999999999985,68.2058 201.02999999999975,68.3048 200.97999999999956,68.3465 C200.8800000000001,68.3985 200.78999999999996,68.5027 200.71000000000004,68.659 C200.6300000000001,68.7944 200.52000000000044,68.9037 200.39999999999964,68.9871 C200.3100000000004,69.0704 200.21000000000004,69.1121 200.07999999999993,69.1121 C199.94999999999982,69.1121 199.84000000000015,69.0652 199.76000000000022,68.9715 C199.65999999999985,68.8777 199.6199999999999,68.7527 199.6199999999999,68.5965" />
<path d="M148.01000000000022,170.018 L148.01000000000022,171.565 C148.01000000000022,172.117 148.03999999999996,172.555 148.09000000000015,172.878 C148.52000000000044,172.513 148.8199999999997,172.242 149.01000000000022,172.065 C149.22000000000025,171.857 149.4300000000003,171.568 149.64000000000033,171.198 C149.84000000000015,170.828 149.94999999999982,170.461 149.94999999999982,170.096 C149.94999999999982,169.732 149.8699999999999,169.419 149.71000000000004,169.159 C149.5600000000004,168.899 149.35000000000036,168.768 149.09000000000015,168.768 C148.77999999999975,168.768 148.52000000000044,168.888 148.3100000000004,169.128 C148.10999999999967,169.388 148.01000000000022,169.685 148.01000000000022,170.018 M147.1800000000003,173.596 L146.9300000000003,161.706 C147.1199999999999,161.602 147.30000000000018,161.55 147.48999999999978,161.55 C147.67000000000007,161.55 147.85000000000036,161.602 148.02999999999975,161.706 L147.8699999999999,168.596 C148.39999999999964,168.138 149.02000000000044,167.909 149.71000000000004,167.909 C150.21000000000004,167.909 150.6300000000001,168.117 150.97000000000025,168.534 C151.3100000000004,168.951 151.47999999999956,169.43 151.47999999999956,169.971 C151.47999999999956,170.305 151.3699999999999,170.664 151.14999999999964,171.05 C150.9399999999996,171.393 150.72000000000025,171.664 150.48999999999978,171.862 C150.35999999999967,171.966 150.02999999999975,172.227 149.48999999999978,172.643 C149.34000000000015,172.758 149.14999999999964,172.893 148.9399999999996,173.05 C148.72999999999956,173.206 148.59000000000015,173.305 148.53999999999996,173.346 C148.44999999999982,173.399 148.35999999999967,173.503 148.27999999999975,173.659 C148.1899999999996,173.794 148.09000000000015,173.904 147.96000000000004,173.987 C147.8800000000001,174.07 147.77000000000044,174.112 147.64000000000033,174.112 C147.51000000000022,174.112 147.40999999999985,174.065 147.3199999999997,173.971 C147.22999999999956,173.878 147.1800000000003,173.753 147.1800000000003,173.596" />
<path d="M95.05000000000018,192.081 C95.05000000000018,192.331 94.93000000000029,192.456 94.68000000000029,192.456 C94.4399999999996,192.456 94.3100000000004,192.331 94.3100000000004,192.081 L94.3100000000004,189.19 L92.65999999999985,189.815 L92.65999999999985,192.971 C92.65999999999985,193.221 92.52999999999975,193.346 92.27999999999975,193.346 C92.02999999999975,193.346 91.90999999999985,193.221 91.90999999999985,192.971 L91.90999999999985,190.065 L91.27999999999975,190.3 C91.27000000000044,190.31 91.22000000000025,190.315 91.13000000000011,190.315 C91.02000000000044,190.315 90.93000000000029,190.276 90.85000000000036,190.198 C90.77999999999975,190.12 90.73999999999978,190.029 90.73999999999978,189.925 L90.73999999999978,188.721 C90.73999999999978,188.524 90.81999999999971,188.399 90.98999999999978,188.346 L91.90999999999985,188.034 L91.90999999999985,184.831 L91.27999999999975,185.05 C91.27000000000044,185.06 91.22000000000025,185.065 91.13000000000011,185.065 C91.02000000000044,185.065 90.93000000000029,185.026 90.85000000000036,184.948 C90.77999999999975,184.87 90.73999999999978,184.779 90.73999999999978,184.675 L90.73999999999978,183.456 C90.73999999999978,183.279 90.81999999999971,183.164 90.98999999999978,183.112 L91.90999999999985,182.753 L91.90999999999985,179.612 C91.90999999999985,179.362 92.02999999999975,179.237 92.27999999999975,179.237 C92.52999999999975,179.237 92.65999999999985,179.362 92.65999999999985,179.612 L92.65999999999985,182.503 L94.3100000000004,181.878 L94.3100000000004,178.721 C94.3100000000004,178.471 94.4399999999996,178.346 94.68000000000029,178.346 C94.93000000000029,178.346 95.05000000000018,178.471 95.05000000000018,178.721 L95.05000000000018,181.628 L95.69999999999982,181.393 C95.72000000000025,181.383 95.76000000000022,181.378 95.82999999999993,181.378 C95.92000000000007,181.378 96.02000000000044,181.414 96.13000000000011,181.487 C96.21000000000004,181.57 96.25,181.664 96.25,181.768 L96.25,182.971 C96.25,183.159 96.15999999999985,183.284 95.97000000000025,183.346 L95.05000000000018,183.659 L95.05000000000018,186.862 L95.69999999999982,186.643 C95.72000000000025,186.633 95.76000000000022,186.628 95.82999999999993,186.628 C95.92000000000007,186.628 96.02000000000044,186.669 96.13000000000011,186.753 C96.21000000000004,186.826 96.25,186.914 96.25,187.018 L96.25,188.237 C96.25,188.404 96.15999999999985,188.518 95.97000000000025,188.581 L95.05000000000018,188.94 L95.05000000000018,192.081 M94.3100000000004,183.956 L92.65999999999985,184.534 L92.65999999999985,187.737 L94.3100000000004,187.159 L94.3100000000004,183.956" />
<path d="M53.5600000000004,95.0183 L53.5600000000004,96.5652 C53.5600000000004,97.1173 53.590000000000146,97.5548 53.64000000000033,97.8777 C54.06999999999971,97.5131 54.38000000000011,97.2423 54.5600000000004,97.0652 C54.77000000000044,96.8569 54.97999999999956,96.5678 55.1899999999996,96.198 C55.399999999999636,95.8282 55.5,95.461 55.5,95.0965 C55.5,94.7319 55.42000000000007,94.4194 55.27000000000044,94.159 C55.10999999999967,93.8985 54.899999999999636,93.7683 54.64000000000033,93.7683 C54.32999999999993,93.7683 54.06999999999971,93.8881 53.85999999999967,94.1277 C53.659999999999854,94.3881 53.5600000000004,94.685 53.5600000000004,95.0183 M52.73999999999978,98.5965 L52.48999999999978,86.7058 C52.67000000000007,86.6017 52.85999999999967,86.5496 53.039999999999964,86.5496 C53.220000000000255,86.5496 53.399999999999636,86.6017 53.57999999999993,86.7058 L53.42000000000007,93.5965 C53.94999999999982,93.1381 54.56999999999971,92.909 55.27000000000044,92.909 C55.77000000000044,92.909 56.1899999999996,93.1173 56.52000000000044,93.534 C56.85999999999967,93.9506 57.029999999999745,94.4298 57.029999999999745,94.9715 C57.029999999999745,95.3048 56.92000000000007,95.6642 56.69999999999982,96.0496 C56.5,96.3933 56.279999999999745,96.6642 56.05000000000018,96.8621 C55.909999999999854,96.9662 55.57999999999993,97.2267 55.05000000000018,97.6433 C54.89000000000033,97.7579 54.710000000000036,97.8933 54.48999999999978,98.0496 C54.279999999999745,98.2058 54.149999999999636,98.3048 54.090000000000146,98.3465 C54.0,98.3985 53.909999999999854,98.5027 53.82999999999993,98.659 C53.75,98.7944 53.64000000000033,98.9037 53.52000000000044,98.9871 C53.43000000000029,99.0704 53.32999999999993,99.1121 53.19999999999982,99.1121 C53.06999999999971,99.1121 52.960000000000036,99.0652 52.88000000000011,98.9715 C52.779999999999745,98.8777 52.73999999999978,98.7527 52.73999999999978,98.5965" />
<path d="M54.5600000000004,72.5183 L54.5600000000004,74.0652 C54.5600000000004,74.6173 54.590000000000146,75.0548 54.64000000000033,75.3777 C55.06999999999971,75.0131 55.38000000000011,74.7423 55.5600000000004,74.5652 C55.77000000000044,74.3569 55.97999999999956,74.0678 56.1899999999996,73.698 C56.399999999999636,73.3282 56.5,72.961 56.5,72.5965 C56.5,72.2319 56.42000000000007,71.9194 56.27000000000044,71.659 C56.10999999999967,71.3985 55.899999999999636,71.2683 55.64000000000033,71.2683 C55.32999999999993,71.2683 55.06999999999971,71.3881 54.85999999999967,71.6277 C54.659999999999854,71.8881 54.5600000000004,72.185 54.5600000000004,72.5183 M53.73999999999978,76.0965 L53.48999999999978,64.2058 C53.67000000000007,64.1017 53.85999999999967,64.0496 54.039999999999964,64.0496 C54.220000000000255,64.0496 54.399999999999636,64.1017 54.57999999999993,64.2058 L54.42000000000007,71.0965 C54.94999999999982,70.6381 55.56999999999971,70.409 56.27000000000044,70.409 C56.77000000000044,70.409 57.1899999999996,70.6173 57.52000000000044,71.034 C57.85999999999967,71.4506 58.029999999999745,71.9298 58.029999999999745,72.4715 C58.029999999999745,72.8048 57.92000000000007,73.1642 57.69999999999982,73.5496 C57.5,73.8933 57.279999999999745,74.1642 57.05000000000018,74.3621 C56.909999999999854,74.4662 56.57999999999993,74.7267 56.05000000000018,75.1433 C55.89000000000033,75.2579 55.710000000000036,75.3933 55.48999999999978,75.5496 C55.279999999999745,75.7058 55.149999999999636,75.8048 55.090000000000146,75.8465 C55.0,75.8985 54.909999999999854,76.0027 54.82999999999993,76.159 C54.75,76.2944 54.64000000000033,76.4037 54.52000000000044,76.4871 C54.43000000000029,76.5704 54.32999999999993,76.6121 54.19999999999982,76.6121 C54.06999999999971,76.6121 53.960000000000036,76.5652 53.88000000000011,76.4715 C53.779999999999745,76.3777 53.73999999999978,76.2527 53.73999999999978,76.0965" />
<path d="M35.47999999999956,217.518 L35.47999999999956,219.065 C35.47999999999956,219.617 35.51000000000022,220.055 35.5600000000004,220.378 C35.97999999999956,220.013 36.289999999999964,219.742 36.47999999999956,219.565 C36.6899999999996,219.357 36.899999999999636,219.068 37.100000000000364,218.698 C37.3100000000004,218.328 37.42000000000007,217.961 37.42000000000007,217.596 C37.42000000000007,217.232 37.340000000000146,216.919 37.18000000000029,216.659 C37.029999999999745,216.399 36.81999999999971,216.268 36.5600000000004,216.268 C36.25,216.268 35.97999999999956,216.388 35.779999999999745,216.628 C35.57999999999993,216.888 35.47999999999956,217.185 35.47999999999956,217.518 M34.649999999999636,221.096 L34.399999999999636,209.206 C34.590000000000146,209.102 34.77000000000044,209.05 34.960000000000036,209.05 C35.14000000000033,209.05 35.31999999999971,209.102 35.5,209.206 L35.340000000000146,216.096 C35.86999999999989,215.638 36.47999999999956,215.409 37.18000000000029,215.409 C37.68000000000029,215.409 38.100000000000364,215.617 38.4399999999996,216.034 C38.779999999999745,216.451 38.94999999999982,216.93 38.94999999999982,217.471 C38.94999999999982,217.805 38.840000000000146,218.164 38.61999999999989,218.55 C38.409999999999854,218.893 38.1899999999996,219.164 37.960000000000036,219.362 C37.82999999999993,219.466 37.5,219.727 36.960000000000036,220.143 C36.8100000000004,220.258 36.61999999999989,220.393 36.409999999999854,220.55 C36.19999999999982,220.706 36.0600000000004,220.805 36.01000000000022,220.846 C35.92000000000007,220.899 35.82999999999993,221.003 35.75,221.159 C35.659999999999854,221.294 35.5600000000004,221.404 35.43000000000029,221.487 C35.350000000000364,221.57 35.23999999999978,221.612 35.10999999999967,221.612 C34.97999999999956,221.612 34.88000000000011,221.565 34.789999999999964,221.471 C34.69999999999982,221.378 34.649999999999636,221.253 34.649999999999636,221.096" />
<path d="M16.270000000000437,178.346 C16.4399999999996,178.253 16.609999999999673,178.206 16.779999999999745,178.206 C16.949999999999818,178.206 17.11999999999989,178.253 17.289999999999964,178.346 L17.229999999999563,182.003 L19.36999999999989,181.612 L19.449999999999818,181.612 C19.670000000000073,181.612 19.789999999999964,181.721 19.789999999999964,181.94 L19.93000000000029,193.346 C19.76000000000022,193.44 19.590000000000146,193.487 19.420000000000073,193.487 C19.25,193.487 19.079999999999927,193.44 18.909999999999854,193.346 L18.979999999999563,189.69 L16.86999999999989,190.081 L16.789999999999964,190.081 C16.550000000000182,190.081 16.43000000000029,189.971 16.43000000000029,189.753 L16.270000000000437,178.346 M18.98999999999978,187.737 L19.0600000000004,183.596 L17.210000000000036,183.956 L17.149999999999636,188.096 L18.98999999999978,187.737" />
<path d="M13.989999999999782,195.018 L13.989999999999782,196.565 C13.989999999999782,197.117 14.020000000000437,197.555 14.069999999999709,197.878 C14.5,197.513 14.8100000000004,197.242 14.989999999999782,197.065 C15.199999999999818,196.857 15.409999999999854,196.568 15.61999999999989,196.198 C15.829999999999927,195.828 15.930000000000291,195.461 15.930000000000291,195.096 C15.930000000000291,194.732 15.850000000000364,194.419 15.699999999999818,194.159 C15.539999999999964,193.899 15.329999999999927,193.768 15.069999999999709,193.768 C14.760000000000218,193.768 14.5,193.888 14.289999999999964,194.128 C14.090000000000146,194.388 13.989999999999782,194.685 13.989999999999782,195.018 M13.170000000000073,198.596 L12.920000000000073,186.706 C13.100000000000364,186.602 13.289999999999964,186.55 13.470000000000255,186.55 C13.649999999999636,186.55 13.829999999999927,186.602 14.010000000000218,186.706 L13.850000000000364,193.596 C14.390000000000327,193.138 15.0,192.909 15.699999999999818,192.909 C16.199999999999818,192.909 16.61999999999989,193.117 16.960000000000036,193.534 C17.289999999999964,193.951 17.460000000000036,194.43 17.460000000000036,194.971 C17.460000000000036,195.305 17.350000000000364,195.664 17.140000000000327,196.05 C16.93000000000029,196.393 16.710000000000036,196.664 16.479999999999563,196.862 C16.340000000000146,196.966 16.01000000000022,197.227 15.479999999999563,197.643 C15.319999999999709,197.758 15.140000000000327,197.893 14.920000000000073,198.05 C14.710000000000036,198.206 14.579999999999927,198.305 14.529999999999745,198.346 C14.430000000000291,198.399 14.340000000000146,198.503 14.260000000000218,198.659 C14.180000000000291,198.794 14.069999999999709,198.904 13.949999999999818,198.987 C13.859999999999673,199.07 13.760000000000218,199.112 13.63000000000011,199.112 C13.5,199.112 13.390000000000327,199.065 13.3100000000004,198.971 C13.210000000000036,198.878 13.170000000000073,198.753 13.170000000000073,198.596" />
<path d="M251.90999999999985,243.096 C252.52999999999975,243.096 253.0600000000004,243.258 253.5,243.581 C253.89000000000033,243.935 254.09000000000015,244.378 254.09000000000015,244.909 C254.09000000000015,245.805 253.6300000000001,246.643 252.72000000000025,247.425 C251.77999999999975,248.206 250.77000000000044,248.596 249.69999999999982,248.596 C249.07999999999993,248.596 248.55000000000018,248.435 248.1199999999999,248.112 C247.72000000000025,247.758 247.51000000000022,247.315 247.51000000000022,246.784 C247.51000000000022,245.888 247.97999999999956,245.05 248.92000000000007,244.268 C249.84000000000015,243.487 250.82999999999993,243.096 251.90999999999985,243.096" />
<path d="M209.44999999999982,230.596 C210.0699999999997,230.596 210.60000000000036,230.758 211.03999999999996,231.081 C211.4399999999996,231.435 211.64000000000033,231.878 211.64000000000033,232.409 C211.64000000000033,233.305 211.1800000000003,234.143 210.26000000000022,234.925 C209.3199999999997,235.706 208.3199999999997,236.096 207.25,236.096 C206.6199999999999,236.096 206.09000000000015,235.935 205.67000000000007,235.612 C205.26000000000022,235.258 205.0600000000004,234.815 205.0600000000004,234.284 C205.0600000000004,233.388 205.52999999999975,232.55 206.46000000000004,231.768 C207.3800000000001,230.987 208.3800000000001,230.596 209.44999999999982,230.596" />
<path d="M209.44999999999982,85.5965 C210.0699999999997,85.5965 210.60000000000036,85.7579 211.03999999999996,86.0808 C211.4399999999996,86.435 211.64000000000033,86.8777 211.64000000000033,87.409 C211.64000000000033,88.3048 211.1800000000003,89.1433 210.26000000000022,89.9246 C209.3199999999997,90.7058 208.3199999999997,91.0965 207.25,91.0965 C206.6199999999999,91.0965 206.09000000000015,90.935 205.67000000000007,90.6121 C205.26000000000022,90.2579 205.0600000000004,89.8152 205.0600000000004,89.284 C205.0600000000004,88.3881 205.52999999999975,87.5496 206.46000000000004,86.7683 C207.3800000000001,85.9871 208.3800000000001,85.5965 209.44999999999982,85.5965" />
<path d="M209.44999999999982,98.0965 C210.0699999999997,98.0965 210.60000000000036,98.2579 211.03999999999996,98.5808 C211.4399999999996,98.935 211.64000000000033,99.3777 211.64000000000033,99.909 C211.64000000000033,100.805 211.1800000000003,101.643 210.26000000000022,102.425 C209.3199999999997,103.206 208.3199999999997,103.596 207.25,103.596 C206.6199999999999,103.596 206.09000000000015,103.435 205.67000000000007,103.112 C205.26000000000022,102.758 205.0600000000004,102.315 205.0600000000004,101.784 C205.0600000000004,100.888 205.52999999999975,100.05 206.46000000000004,99.2683 C207.3800000000001,98.4871 208.3800000000001,98.0965 209.44999999999982,98.0965" />
<path d="M209.44999999999982,63.0965 C210.0699999999997,63.0965 210.60000000000036,63.2579 211.03999999999996,63.5808 C211.4399999999996,63.935 211.64000000000033,64.3777 211.64000000000033,64.909 C211.64000000000033,65.8048 211.1800000000003,66.6433 210.26000000000022,67.4246 C209.3199999999997,68.2058 208.3199999999997,68.5965 207.25,68.5965 C206.6199999999999,68.5965 206.09000000000015,68.435 205.67000000000007,68.1121 C205.26000000000022,67.7579 205.0600000000004,67.3152 205.0600000000004,66.784 C205.0600000000004,65.8881 205.52999999999975,65.0496 206.46000000000004,64.2683 C207.3800000000001,63.4871 208.3800000000001,63.0965 209.44999999999982,63.0965" />
<path d="M209.44999999999982,75.5965 C210.0699999999997,75.5965 210.60000000000036,75.7579 211.03999999999996,76.0808 C211.4399999999996,76.435 211.64000000000033,76.8777 211.64000000000033,77.409 C211.64000000000033,78.3048 211.1800000000003,79.1433 210.26000000000022,79.9246 C209.3199999999997,80.7058 208.3199999999997,81.0965 207.25,81.0965 C206.6199999999999,81.0965 206.09000000000015,80.935 205.67000000000007,80.6121 C205.26000000000022,80.2579 205.0600000000004,79.8152 205.0600000000004,79.284 C205.0600000000004,78.3881 205.52999999999975,77.5496 206.46000000000004,76.7683 C207.3800000000001,75.9871 208.3800000000001,75.5965 209.44999999999982,75.5965" />
<path d="M157.1899999999996,230.596 C157.8199999999997,230.596 158.35000000000036,230.758 158.78999999999996,231.081 C159.1800000000003,231.435 159.3800000000001,231.878 159.3800000000001,232.409 C159.3800000000001,233.305 158.92000000000007,234.143 158.01000000000022,234.925 C157.0699999999997,235.706 156.0600000000004,236.096 154.98999999999978,236.096 C154.3699999999999,236.096 153.84000000000015,235.935 153.40999999999985,235.612 C153.01000000000022,235.258 152.80000000000018,234.815 152.80000000000018,234.284 C152.80000000000018,233.388 153.27000000000044,232.55 154.21000000000004,231.768 C155.1300000000001,230.987 156.1199999999999,230.596 157.1899999999996,230.596" />
<path d="M165.22999999999956,169.534 C165.22999999999956,169.315 165.14999999999964,169.128 164.97999999999956,168.971 C164.80000000000018,168.805 164.60000000000036,168.721 164.39000000000033,168.721 C164.0,168.721 163.21000000000004,169.112 162.02999999999975,169.893 C160.80000000000018,170.685 160.05000000000018,171.253 159.77999999999975,171.596 C159.6300000000001,171.774 159.5600000000004,171.961 159.5600000000004,172.159 C159.5600000000004,172.378 159.64999999999964,172.565 159.8199999999997,172.721 C159.97999999999956,172.888 160.17000000000007,172.971 160.39999999999964,172.971 C160.77999999999975,172.971 161.5699999999997,172.581 162.78999999999996,171.8 C163.98999999999978,171.018 164.72999999999956,170.451 165.01000000000022,170.096 C165.15999999999985,169.93 165.22999999999956,169.742 165.22999999999956,169.534 M164.19999999999982,168.096 C165.3100000000004,168.096 165.8699999999999,168.576 165.8699999999999,169.534 C165.8699999999999,170.003 165.72999999999956,170.55 165.46000000000004,171.175 C165.1899999999996,171.789 164.82999999999993,172.258 164.3699999999999,172.581 C163.3699999999999,173.258 162.10999999999967,173.596 160.60000000000036,173.596 C159.47999999999956,173.596 158.92000000000007,173.117 158.92000000000007,172.159 C158.92000000000007,171.732 159.05000000000018,171.19 159.3199999999997,170.534 C159.57999999999993,169.909 159.94999999999982,169.435 160.42000000000007,169.112 C161.4300000000003,168.435 162.6899999999996,168.096 164.19999999999982,168.096" />
<path d="M158.9399999999996,169.534 C158.9399999999996,169.315 158.85000000000036,169.128 158.6899999999996,168.971 C158.51000000000022,168.805 158.3100000000004,168.721 158.09000000000015,168.721 C157.71000000000004,168.721 156.92000000000007,169.112 155.72999999999956,169.893 C154.5,170.685 153.75,171.253 153.47999999999956,171.596 C153.34000000000015,171.774 153.26000000000022,171.961 153.26000000000022,172.159 C153.26000000000022,172.378 153.35000000000036,172.565 153.52999999999975,172.721 C153.6899999999996,172.888 153.8800000000001,172.971 154.10999999999967,172.971 C154.47999999999956,172.971 155.27999999999975,172.581 156.5,171.8 C157.69999999999982,171.018 158.4399999999996,170.451 158.72000000000025,170.096 C158.85999999999967,169.93 158.9399999999996,169.742 158.9399999999996,169.534 M157.89999999999964,168.096 C159.02000000000044,168.096 159.57999999999993,168.576 159.57999999999993,169.534 C159.57999999999993,170.003 159.4399999999996,170.55 159.17000000000007,171.175 C158.89999999999964,171.789 158.52999999999975,172.258 158.07999999999993,172.581 C157.07999999999993,173.258 155.8199999999997,173.596 154.3100000000004,173.596 C153.1899999999996,173.596 152.6199999999999,173.117 152.6199999999999,172.159 C152.6199999999999,171.732 152.76000000000022,171.19 153.02999999999975,170.534 C153.28999999999996,169.909 153.64999999999964,169.435 154.1199999999999,169.112 C155.1300000000001,168.435 156.39000000000033,168.096 157.89999999999964,168.096" />
<path d="M158.9399999999996,174.534 C158.9399999999996,174.315 158.85000000000036,174.128 158.6899999999996,173.971 C158.51000000000022,173.805 158.3100000000004,173.721 158.09000000000015,173.721 C157.71000000000004,173.721 156.92000000000007,174.112 155.72999999999956,174.893 C154.5,175.685 153.75,176.253 153.47999999999956,176.596 C153.34000000000015,176.774 153.26000000000022,176.961 153.26000000000022,177.159 C153.26000000000022,177.378 153.35000000000036,177.565 153.52999999999975,177.721 C153.6899999999996,177.888 153.8800000000001,177.971 154.10999999999967,177.971 C154.47999999999956,177.971 155.27999999999975,177.581 156.5,176.8 C157.69999999999982,176.018 158.4399999999996,175.451 158.72000000000025,175.096 C158.85999999999967,174.93 158.9399999999996,174.742 158.9399999999996,174.534 M157.89999999999964,173.096 C159.02000000000044,173.096 159.57999999999993,173.576 159.57999999999993,174.534 C159.57999999999993,175.003 159.4399999999996,175.55 159.17000000000007,176.175 C158.89999999999964,176.789 158.52999999999975,177.258 158.07999999999993,177.581 C157.07999999999993,178.258 155.8199999999997,178.596 154.3100000000004,178.596 C153.1899999999996,178.596 152.6199999999999,178.117 152.6199999999999,177.159 C152.6199999999999,176.732 152.76000000000022,176.19 153.02999999999975,175.534 C153.28999999999996,174.909 153.64999999999964,174.435 154.1199999999999,174.112 C155.1300000000001,173.435 156.39000000000033,173.096 157.89999999999964,173.096" />
<path d="M158.9399999999996,182.034 C158.9399999999996,181.815 158.85000000000036,181.628 158.6899999999996,181.471 C158.51000000000022,181.305 158.3100000000004,181.221 158.09000000000015,181.221 C157.71000000000004,181.221 156.92000000000007,181.612 155.72999999999956,182.393 C154.5,183.185 153.75,183.753 153.47999999999956,184.096 C153.34000000000015,184.274 153.26000000000022,184.461 153.26000000000022,184.659 C153.26000000000022,184.878 153.35000000000036,185.065 153.52999999999975,185.221 C153.6899999999996,185.388 153.8800000000001,185.471 154.10999999999967,185.471 C154.47999999999956,185.471 155.27999999999975,185.081 156.5,184.3 C157.69999999999982,183.518 158.4399999999996,182.951 158.72000000000025,182.596 C158.85999999999967,182.43 158.9399999999996,182.242 158.9399999999996,182.034 M157.89999999999964,180.596 C159.02000000000044,180.596 159.57999999999993,181.076 159.57999999999993,182.034 C159.57999999999993,182.503 159.4399999999996,183.05 159.17000000000007,183.675 C158.89999999999964,184.289 158.52999999999975,184.758 158.07999999999993,185.081 C157.07999999999993,185.758 155.8199999999997,186.096 154.3100000000004,186.096 C153.1899999999996,186.096 152.6199999999999,185.617 152.6199999999999,184.659 C152.6199999999999,184.232 152.76000000000022,183.69 153.02999999999975,183.034 C153.28999999999996,182.409 153.64999999999964,181.935 154.1199999999999,181.612 C155.1300000000001,180.935 156.39000000000033,180.596 157.89999999999964,180.596" />
<path d="M158.9399999999996,192.034 C158.9399999999996,191.815 158.85000000000036,191.628 158.6899999999996,191.471 C158.51000000000022,191.305 158.3100000000004,191.221 158.09000000000015,191.221 C157.71000000000004,191.221 156.92000000000007,191.612 155.72999999999956,192.393 C154.5,193.185 153.75,193.753 153.47999999999956,194.096 C153.34000000000015,194.274 153.26000000000022,194.461 153.26000000000022,194.659 C153.26000000000022,194.878 153.35000000000036,195.065 153.52999999999975,195.221 C153.6899999999996,195.388 153.8800000000001,195.471 154.10999999999967,195.471 C154.47999999999956,195.471 155.27999999999975,195.081 156.5,194.3 C157.69999999999982,193.518 158.4399999999996,192.951 158.72000000000025,192.596 C158.85999999999967,192.43 158.9399999999996,192.242 158.9399999999996,192.034 M157.89999999999964,190.596 C159.02000000000044,190.596 159.57999999999993,191.076 159.57999999999993,192.034 C159.57999999999993,192.503 159.4399999999996,193.05 159.17000000000007,193.675 C158.89999999999964,194.289 158.52999999999975,194.758 158.07999999999993,195.081 C157.07999999999993,195.758 155.8199999999997,196.096 154.3100000000004,196.096 C153.1899999999996,196.096 152.6199999999999,195.617 152.6199999999999,194.659 C152.6199999999999,194.232 152.76000000000022,193.69 153.02999999999975,193.034 C153.28999999999996,192.409 153.64999999999964,191.935 154.1199999999999,191.612 C155.1300000000001,190.935 156.39000000000033,190.596 157.89999999999964,190.596" />
<path d="M157.1899999999996,108.096 C157.8199999999997,108.096 158.35000000000036,108.258 158.78999999999996,108.581 C159.1800000000003,108.935 159.3800000000001,109.378 159.3800000000001,109.909 C159.3800000000001,110.805 158.92000000000007,111.643 158.01000000000022,112.425 C157.0699999999997,113.206 156.0600000000004,113.596 154.98999999999978,113.596 C154.3699999999999,113.596 153.84000000000015,113.435 153.40999999999985,113.112 C153.01000000000022,112.758 152.80000000000018,112.315 152.80000000000018,111.784 C152.80000000000018,110.888 153.27000000000044,110.05 154.21000000000004,109.268 C155.1300000000001,108.487 156.1199999999999,108.096 157.1899999999996,108.096" />
<path d="M157.1899999999996,85.5965 C157.8199999999997,85.5965 158.35000000000036,85.7579 158.78999999999996,86.0808 C159.1800000000003,86.435 159.3800000000001,86.8777 159.3800000000001,87.409 C159.3800000000001,88.3048 158.92000000000007,89.1433 158.01000000000022,89.9246 C157.0699999999997,90.7058 156.0600000000004,91.0965 154.98999999999978,91.0965 C154.3699999999999,91.0965 153.84000000000015,90.935 153.40999999999985,90.6121 C153.01000000000022,90.2579 152.80000000000018,89.8152 152.80000000000018,89.284 C152.80000000000018,88.3881 153.27000000000044,87.5496 154.21000000000004,86.7683 C155.1300000000001,85.9871 156.1199999999999,85.5965 157.1899999999996,85.5965" />
<path d="M117.06999999999971,100.596 C117.6899999999996,100.596 118.22000000000025,100.758 118.65999999999985,101.081 C119.0600000000004,101.435 119.25,101.878 119.25,102.409 C119.25,103.305 118.80000000000018,104.143 117.88000000000011,104.925 C116.9399999999996,105.706 115.9399999999996,106.096 114.85999999999967,106.096 C114.23999999999978,106.096 113.71000000000004,105.935 113.28999999999996,105.612 C112.88000000000011,105.258 112.68000000000029,104.815 112.68000000000029,104.284 C112.68000000000029,103.388 113.14999999999964,102.55 114.07999999999993,101.768 C115.0,100.987 115.98999999999978,100.596 117.06999999999971,100.596" />
<path d="M117.06999999999971,78.0965 C117.6899999999996,78.0965 118.22000000000025,78.2579 118.65999999999985,78.5808 C119.0600000000004,78.935 119.25,79.3777 119.25,79.909 C119.25,80.8048 118.80000000000018,81.6433 117.88000000000011,82.4246 C116.9399999999996,83.2058 115.9399999999996,83.5965 114.85999999999967,83.5965 C114.23999999999978,83.5965 113.71000000000004,83.435 113.28999999999996,83.1121 C112.88000000000011,82.7579 112.68000000000029,82.3152 112.68000000000029,81.784 C112.68000000000029,80.8881 113.14999999999964,80.0496 114.07999999999993,79.2683 C115.0,78.4871 115.98999999999978,78.0965 117.06999999999971,78.0965" />
<path d="M101.72999999999956,220.596 C102.35999999999967,220.596 102.89000000000033,220.758 103.32999999999993,221.081 C103.72000000000025,221.435 103.92000000000007,221.878 103.92000000000007,222.409 C103.92000000000007,223.305 103.46000000000004,224.143 102.55000000000018,224.925 C101.60999999999967,225.706 100.60000000000036,226.096 99.52999999999975,226.096 C98.90999999999985,226.096 98.38000000000011,225.935 97.94999999999982,225.612 C97.55000000000018,225.258 97.34000000000015,224.815 97.34000000000015,224.284 C97.34000000000015,223.388 97.8100000000004,222.55 98.75,221.768 C99.67000000000007,220.987 100.65999999999985,220.596 101.72999999999956,220.596" />
<path d="M100.64000000000033,177.628 L103.05000000000018,175.675 C103.10999999999967,175.622 103.17000000000007,175.596 103.22000000000025,175.596 C103.28999999999996,175.596 103.35999999999967,175.622 103.42000000000007,175.675 L103.82999999999993,175.987 C103.89000000000033,176.05 103.92000000000007,176.128 103.92000000000007,176.221 C103.92000000000007,176.284 103.89000000000033,176.362 103.82999999999993,176.456 L101.5,178.346 L103.82999999999993,180.237 C103.89000000000033,180.31 103.92000000000007,180.391 103.92000000000007,180.479 C103.92000000000007,180.568 103.89000000000033,180.643 103.82999999999993,180.706 L103.42000000000007,181.018 C103.35999999999967,181.07 103.28999999999996,181.096 103.22000000000025,181.096 C103.17000000000007,181.096 103.10999999999967,181.07 103.05000000000018,181.018 L100.64000000000033,179.065 L98.22000000000025,181.018 C98.15999999999985,181.07 98.10000000000036,181.096 98.05000000000018,181.096 C97.97999999999956,181.096 97.92000000000007,181.07 97.85999999999967,181.018 L97.4399999999996,180.706 C97.38000000000011,180.643 97.34000000000015,180.565 97.34000000000015,180.471 C97.34000000000015,180.409 97.38000000000011,180.331 97.4399999999996,180.237 L99.77000000000044,178.346 L97.4399999999996,176.456 C97.38000000000011,176.383 97.34000000000015,176.302 97.34000000000015,176.214 C97.34000000000015,176.125 97.38000000000011,176.05 97.4399999999996,175.987 L97.85999999999967,175.675 C97.92000000000007,175.622 97.97999999999956,175.596 98.05000000000018,175.596 C98.10000000000036,175.596 98.15999999999985,175.622 98.22000000000025,175.675 L100.64000000000033,177.628" />
<path d="M100.64000000000033,185.128 L103.05000000000018,183.175 C103.10999999999967,183.122 103.17000000000007,183.096 103.22000000000025,183.096 C103.28999999999996,183.096 103.35999999999967,183.122 103.42000000000007,183.175 L103.82999999999993,183.487 C103.89000000000033,183.55 103.92000000000007,183.628 103.92000000000007,183.721 C103.92000000000007,183.784 103.89000000000033,183.862 103.82999999999993,183.956 L101.5,185.846 L103.82999999999993,187.737 C103.89000000000033,187.81 103.92000000000007,187.891 103.92000000000007,187.979 C103.92000000000007,188.068 103.89000000000033,188.143 103.82999999999993,188.206 L103.42000000000007,188.518 C103.35999999999967,188.57 103.28999999999996,188.596 103.22000000000025,188.596 C103.17000000000007,188.596 103.10999999999967,188.57 103.05000000000018,188.518 L100.64000000000033,186.565 L98.22000000000025,188.518 C98.15999999999985,188.57 98.10000000000036,188.596 98.05000000000018,188.596 C97.97999999999956,188.596 97.92000000000007,188.57 97.85999999999967,188.518 L97.4399999999996,188.206 C97.38000000000011,188.143 97.34000000000015,188.065 97.34000000000015,187.971 C97.34000000000015,187.909 97.38000000000011,187.831 97.4399999999996,187.737 L99.77000000000044,185.846 L97.4399999999996,183.956 C97.38000000000011,183.883 97.34000000000015,183.802 97.34000000000015,183.714 C97.34000000000015,183.625 97.38000000000011,183.55 97.4399999999996,183.487 L97.85999999999967,183.175 C97.92000000000007,183.122 97.97999999999956,183.096 98.05000000000018,183.096 C98.10000000000036,183.096 98.15999999999985,183.122 98.22000000000025,183.175 L100.64000000000033,185.128" />
<path d="M100.64000000000033,192.628 L103.05000000000018,190.675 C103.10999999999967,190.622 103.17000000000007,190.596 103.22000000000025,190.596 C103.28999999999996,190.596 103.35999999999967,190.622 103.42000000000007,190.675 L103.82999999999993,190.987 C103.89000000000033,191.05 103.92000000000007,191.128 103.92000000000007,191.221 C103.92000000000007,191.284 103.89000000000033,191.362 103.82999999999993,191.456 L101.5,193.346 L103.82999999999993,195.237 C103.89000000000033,195.31 103.92000000000007,195.391 103.92000000000007,195.479 C103.92000000000007,195.568 103.89000000000033,195.643 103.82999999999993,195.706 L103.42000000000007,196.018 C103.35999999999967,196.07 103.28999999999996,196.096 103.22000000000025,196.096 C103.17000000000007,196.096 103.10999999999967,196.07 103.05000000000018,196.018 L100.64000000000033,194.065 L98.22000000000025,196.018 C98.15999999999985,196.07 98.10000000000036,196.096 98.05000000000018,196.096 C97.97999999999956,196.096 97.92000000000007,196.07 97.85999999999967,196.018 L97.4399999999996,195.706 C97.38000000000011,195.643 97.34000000000015,195.565 97.34000000000015,195.471 C97.34000000000015,195.409 97.38000000000011,195.331 97.4399999999996,195.237 L99.77000000000044,193.346 L97.4399999999996,191.456 C97.38000000000011,191.383 97.34000000000015,191.302 97.34000000000015,191.214 C97.34000000000015,191.125 97.38000000000011,191.05 97.4399999999996,190.987 L97.85999999999967,190.675 C97.92000000000007,190.622 97.97999999999956,190.596 98.05000000000018,190.596 C98.10000000000036,190.596 98.15999999999985,190.622 98.22000000000025,190.675 L100.64000000000033,192.628" />
<path d="M100.64000000000033,200.128 L103.05000000000018,198.175 C103.10999999999967,198.122 103.17000000000007,198.096 103.22000000000025,198.096 C103.28999999999996,198.096 103.35999999999967,198.122 103.42000000000007,198.175 L103.82999999999993,198.487 C103.89000000000033,198.55 103.92000000000007,198.628 103.92000000000007,198.721 C103.92000000000007,198.784 103.89000000000033,198.862 103.82999999999993,198.956 L101.5,200.846 L103.82999999999993,202.737 C103.89000000000033,202.81 103.92000000000007,202.891 103.92000000000007,202.979 C103.92000000000007,203.068 103.89000000000033,203.143 103.82999999999993,203.206 L103.42000000000007,203.518 C103.35999999999967,203.57 103.28999999999996,203.596 103.22000000000025,203.596 C103.17000000000007,203.596 103.10999999999967,203.57 103.05000000000018,203.518 L100.64000000000033,201.565 L98.22000000000025,203.518 C98.15999999999985,203.57 98.10000000000036,203.596 98.05000000000018,203.596 C97.97999999999956,203.596 97.92000000000007,203.57 97.85999999999967,203.518 L97.4399999999996,203.206 C97.38000000000011,203.143 97.34000000000015,203.065 97.34000000000015,202.971 C97.34000000000015,202.909 97.38000000000011,202.831 97.4399999999996,202.737 L99.77000000000044,200.846 L97.4399999999996,198.956 C97.38000000000011,198.883 97.34000000000015,198.802 97.34000000000015,198.714 C97.34000000000015,198.625 97.38000000000011,198.55 97.4399999999996,198.487 L97.85999999999967,198.175 C97.92000000000007,198.122 97.97999999999956,198.096 98.05000000000018,198.096 C98.10000000000036,198.096 98.15999999999985,198.122 98.22000000000025,198.175 L100.64000000000033,200.128" />
<path d="M101.72999999999956,98.0965 C102.35999999999967,98.0965 102.89000000000033,98.2579 103.32999999999993,98.5808 C103.72000000000025,98.935 103.92000000000007,99.3777 103.92000000000007,99.909 C103.92000000000007,100.805 103.46000000000004,101.643 102.55000000000018,102.425 C101.60999999999967,103.206 100.60000000000036,103.596 99.52999999999975,103.596 C98.90999999999985,103.596 98.38000000000011,103.435 97.94999999999982,103.112 C97.55000000000018,102.758 97.34000000000015,102.315 97.34000000000015,101.784 C97.34000000000015,100.888 97.8100000000004,100.05 98.75,99.2683 C99.67000000000007,98.4871 100.65999999999985,98.0965 101.72999999999956,98.0965" />
<path d="M101.72999999999956,75.5965 C102.35999999999967,75.5965 102.89000000000033,75.7579 103.32999999999993,76.0808 C103.72000000000025,76.435 103.92000000000007,76.8777 103.92000000000007,77.409 C103.92000000000007,78.3048 103.46000000000004,79.1433 102.55000000000018,79.9246 C101.60999999999967,80.7058 100.60000000000036,81.0965 99.52999999999975,81.0965 C98.90999999999985,81.0965 98.38000000000011,80.935 97.94999999999982,80.6121 C97.55000000000018,80.2579 97.34000000000015,79.8152 97.34000000000015,79.284 C97.34000000000015,78.3881 97.8100000000004,77.5496 98.75,76.7683 C99.67000000000007,75.9871 100.65999999999985,75.5965 101.72999999999956,75.5965" />
<path d="M82.64999999999964,215.596 C83.27999999999975,215.596 83.8100000000004,215.758 84.23999999999978,216.081 C84.64000000000033,216.435 84.84000000000015,216.878 84.84000000000015,217.409 C84.84000000000015,218.305 84.38000000000011,219.143 83.46000000000004,219.925 C82.52999999999975,220.706 81.52000000000044,221.096 80.44999999999982,221.096 C79.81999999999971,221.096 79.30000000000018,220.935 78.86999999999989,220.612 C78.46000000000004,220.258 78.26000000000022,219.815 78.26000000000022,219.284 C78.26000000000022,218.388 78.72999999999956,217.55 79.67000000000007,216.768 C80.57999999999993,215.987 81.57999999999993,215.596 82.64999999999964,215.596" />
<path d="M63.56999999999971,213.096 C64.1899999999996,213.096 64.72000000000025,213.258 65.15999999999985,213.581 C65.5600000000004,213.935 65.75,214.378 65.75,214.909 C65.75,215.805 65.30000000000018,216.643 64.38000000000011,217.425 C63.4399999999996,218.206 62.4399999999996,218.596 61.35999999999967,218.596 C60.73999999999978,218.596 60.210000000000036,218.435 59.789999999999964,218.112 C59.38000000000011,217.758 59.18000000000029,217.315 59.18000000000029,216.784 C59.18000000000029,215.888 59.64000000000033,215.05 60.57999999999993,214.268 C61.5,213.487 62.48999999999978,213.096 63.56999999999971,213.096" />
<path d="M63.56999999999971,170.596 C64.1899999999996,170.596 64.72000000000025,170.758 65.15999999999985,171.081 C65.5600000000004,171.435 65.75,171.878 65.75,172.409 C65.75,173.305 65.30000000000018,174.143 64.38000000000011,174.925 C63.4399999999996,175.706 62.4399999999996,176.096 61.35999999999967,176.096 C60.73999999999978,176.096 60.210000000000036,175.935 59.789999999999964,175.612 C59.38000000000011,175.258 59.18000000000029,174.815 59.18000000000029,174.284 C59.18000000000029,173.388 59.64000000000033,172.55 60.57999999999993,171.768 C61.5,170.987 62.48999999999978,170.596 63.56999999999971,170.596" />
<path d="M63.56999999999971,175.596 C64.1899999999996,175.596 64.72000000000025,175.758 65.15999999999985,176.081 C65.5600000000004,176.435 65.75,176.878 65.75,177.409 C65.75,178.305 65.30000000000018,179.143 64.38000000000011,179.925 C63.4399999999996,180.706 62.4399999999996,181.096 61.35999999999967,181.096 C60.73999999999978,181.096 60.210000000000036,180.935 59.789999999999964,180.612 C59.38000000000011,180.258 59.18000000000029,179.815 59.18000000000029,179.284 C59.18000000000029,178.388 59.64000000000033,177.55 60.57999999999993,176.768 C61.5,175.987 62.48999999999978,175.596 63.56999999999971,175.596" />
<path d="M63.56999999999971,183.096 C64.1899999999996,183.096 64.72000000000025,183.258 65.15999999999985,183.581 C65.5600000000004,183.935 65.75,184.378 65.75,184.909 C65.75,185.805 65.30000000000018,186.643 64.38000000000011,187.425 C63.4399999999996,188.206 62.4399999999996,188.596 61.35999999999967,188.596 C60.73999999999978,188.596 60.210000000000036,188.435 59.789999999999964,188.112 C59.38000000000011,187.758 59.18000000000029,187.315 59.18000000000029,186.784 C59.18000000000029,185.888 59.64000000000033,185.05 60.57999999999993,184.268 C61.5,183.487 62.48999999999978,183.096 63.56999999999971,183.096" />
<path d="M63.56999999999971,193.096 C64.1899999999996,193.096 64.72000000000025,193.258 65.15999999999985,193.581 C65.5600000000004,193.935 65.75,194.378 65.75,194.909 C65.75,195.805 65.30000000000018,196.643 64.38000000000011,197.425 C63.4399999999996,198.206 62.4399999999996,198.596 61.35999999999967,198.596 C60.73999999999978,198.596 60.210000000000036,198.435 59.789999999999964,198.112 C59.38000000000011,197.758 59.18000000000029,197.315 59.18000000000029,196.784 C59.18000000000029,195.888 59.64000000000033,195.05 60.57999999999993,194.268 C61.5,193.487 62.48999999999978,193.096 63.56999999999971,193.096" />
<path d="M63.56999999999971,85.5965 C64.1899999999996,85.5965 64.72000000000025,85.7579 65.15999999999985,86.0808 C65.5600000000004,86.435 65.75,86.8777 65.75,87.409 C65.75,88.3048 65.30000000000018,89.1433 64.38000000000011,89.9246 C63.4399999999996,90.7058 62.4399999999996,91.0965 61.35999999999967,91.0965 C60.73999999999978,91.0965 60.210000000000036,90.935 59.789999999999964,90.6121 C59.38000000000011,90.2579 59.18000000000029,89.8152 59.18000000000029,89.284 C59.18000000000029,88.3881 59.64000000000033,87.5496 60.57999999999993,86.7683 C61.5,85.9871 62.48999999999978,85.5965 63.56999999999971,85.5965" />
<path d="M63.56999999999971,93.0965 C64.1899999999996,93.0965 64.72000000000025,93.2579 65.15999999999985,93.5808 C65.5600000000004,93.935 65.75,94.3777 65.75,94.909 C65.75,95.8048 65.30000000000018,96.6433 64.38000000000011,97.4246 C63.4399999999996,98.2058 62.4399999999996,98.5965 61.35999999999967,98.5965 C60.73999999999978,98.5965 60.210000000000036,98.435 59.789999999999964,98.1121 C59.38000000000011,97.7579 59.18000000000029,97.3152 59.18000000000029,96.784 C59.18000000000029,95.8881 59.64000000000033,95.0496 60.57999999999993,94.2683 C61.5,93.4871 62.48999999999978,93.0965 63.56999999999971,93.0965" />
<path d="M63.56999999999971,63.0965 C64.1899999999996,63.0965 64.72000000000025,63.2579 65.15999999999985,63.5808 C65.5600000000004,63.935 65.75,64.3777 65.75,64.909 C65.75,65.8048 65.30000000000018,66.6433 64.38000000000011,67.4246 C63.4399999999996,68.2058 62.4399999999996,68.5965 61.35999999999967,68.5965 C60.73999999999978,68.5965 60.210000000000036,68.435 59.789999999999964,68.1121 C59.38000000000011,67.7579 59.18000000000029,67.3152 59.18000000000029,66.784 C59.18000000000029,65.8881 59.64000000000033,65.0496 60.57999999999993,64.2683 C61.5,63.4871 62.48999999999978,63.0965 63.56999999999971,63.0965" />
<path d="M63.56999999999971,70.5965 C64.1899999999996,70.5965 64.72000000000025,70.7579 65.15999999999985,71.0808 C65.5600000000004,71.435 65.75,71.8777 65.75,72.409 C65.75,73.3048 65.30000000000018,74.1433 64.38000000000011,74.9246 C63.4399999999996,75.7058 62.4399999999996,76.0965 61.35999999999967,76.0965 C60.73999999999978,76.0965 60.210000000000036,75.935 59.789999999999964,75.6121 C59.38000000000011,75.2579 59.18000000000029,74.8152 59.18000000000029,74.284 C59.18000000000029,73.3881 59.64000000000033,72.5496 60.57999999999993,71.7683 C61.5,70.9871 62.48999999999978,70.5965 63.56999999999971,70.5965" />
<path d="M44.47999999999956,215.596 C45.10999999999967,215.596 45.64000000000033,215.758 46.07999999999993,216.081 C46.470000000000255,216.435 46.67000000000007,216.878 46.67000000000007,217.409 C46.67000000000007,218.305 46.210000000000036,219.143 45.30000000000018,219.925 C44.35999999999967,220.706 43.350000000000364,221.096 42.279999999999745,221.096 C41.649999999999636,221.096 41.13000000000011,220.935 40.69999999999982,220.612 C40.30000000000018,220.258 40.090000000000146,219.815 40.090000000000146,219.284 C40.090000000000146,218.388 40.5600000000004,217.55 41.5,216.768 C42.42000000000007,215.987 43.409999999999854,215.596 44.47999999999956,215.596" />
<path d="M44.47999999999956,170.596 C45.10999999999967,170.596 45.64000000000033,170.758 46.07999999999993,171.081 C46.470000000000255,171.435 46.67000000000007,171.878 46.67000000000007,172.409 C46.67000000000007,173.305 46.210000000000036,174.143 45.30000000000018,174.925 C44.35999999999967,175.706 43.350000000000364,176.096 42.279999999999745,176.096 C41.649999999999636,176.096 41.13000000000011,175.935 40.69999999999982,175.612 C40.30000000000018,175.258 40.090000000000146,174.815 40.090000000000146,174.284 C40.090000000000146,173.388 40.5600000000004,172.55 41.5,171.768 C42.42000000000007,170.987 43.409999999999854,170.596 44.47999999999956,170.596" />
<path d="M44.47999999999956,175.596 C45.10999999999967,175.596 45.64000000000033,175.758 46.07999999999993,176.081 C46.470000000000255,176.435 46.67000000000007,176.878 46.67000000000007,177.409 C46.67000000000007,178.305 46.210000000000036,179.143 45.30000000000018,179.925 C44.35999999999967,180.706 43.350000000000364,181.096 42.279999999999745,181.096 C41.649999999999636,181.096 41.13000000000011,180.935 40.69999999999982,180.612 C40.30000000000018,180.258 40.090000000000146,179.815 40.090000000000146,179.284 C40.090000000000146,178.388 40.5600000000004,177.55 41.5,176.768 C42.42000000000007,175.987 43.409999999999854,175.596 44.47999999999956,175.596" />
<path d="M44.47999999999956,183.096 C45.10999999999967,183.096 45.64000000000033,183.258 46.07999999999993,183.581 C46.470000000000255,183.935 46.67000000000007,184.378 46.67000000000007,184.909 C46.67000000000007,185.805 46.210000000000036,186.643 45.30000000000018,187.425 C44.35999999999967,188.206 43.350000000000364,188.596 42.279999999999745,188.596 C41.649999999999636,188.596 41.13000000000011,188.435 40.69999999999982,188.112 C40.30000000000018,187.758 40.090000000000146,187.315 40.090000000000146,186.784 C40.090000000000146,185.888 40.5600000000004,185.05 41.5,184.268 C42.42000000000007,183.487 43.409999999999854,183.096 44.47999999999956,183.096" />
<path d="M44.47999999999956,193.096 C45.10999999999967,193.096 45.64000000000033,193.258 46.07999999999993,193.581 C46.470000000000255,193.935 46.67000000000007,194.378 46.67000000000007,194.909 C46.67000000000007,195.805 46.210000000000036,196.643 45.30000000000018,197.425 C44.35999999999967,198.206 43.350000000000364,198.596 42.279999999999745,198.596 C41.649999999999636,198.596 41.13000000000011,198.435 40.69999999999982,198.112 C40.30000000000018,197.758 40.090000000000146,197.315 40.090000000000146,196.784 C40.090000000000146,195.888 40.5600000000004,195.05 41.5,194.268 C42.42000000000007,193.487 43.409999999999854,193.096 44.47999999999956,193.096" />
<path d="M44.47999999999956,98.0965 C45.10999999999967,98.0965 45.64000000000033,98.2579 46.07999999999993,98.5808 C46.470000000000255,98.935 46.67000000000007,99.3777 46.67000000000007,99.909 C46.67000000000007,100.805 46.210000000000036,101.643 45.30000000000018,102.425 C44.35999999999967,103.206 43.350000000000364,103.596 42.279999999999745,103.596 C41.649999999999636,103.596 41.13000000000011,103.435 40.69999999999982,103.112 C40.30000000000018,102.758 40.090000000000146,102.315 40.090000000000146,101.784 C40.090000000000146,100.888 40.5600000000004,100.05 41.5,99.2683 C42.42000000000007,98.4871 43.409999999999854,98.0965 44.47999999999956,98.0965" />
<path d="M44.47999999999956,75.5965 C45.10999999999967,75.5965 45.64000000000033,75.7579 46.07999999999993,76.0808 C46.470000000000255,76.435 46.67000000000007,76.8777 46.67000000000007,77.409 C46.67000000000007,78.3048 46.210000000000036,79.1433 45.30000000000018,79.9246 C44.35999999999967,80.7058 43.350000000000364,81.0965 42.279999999999745,81.0965 C41.649999999999636,81.0965 41.13000000000011,80.935 40.69999999999982,80.6121 C40.30000000000018,80.2579 40.090000000000146,79.8152 40.090000000000146,79.284 C40.090000000000146,78.3881 40.5600000000004,77.5496 41.5,76.7683 C42.42000000000007,75.9871 43.409999999999854,75.5965 44.47999999999956,75.5965" />
<path d="M25.399999999999636,213.096 C26.020000000000437,213.096 26.5600000000004,213.258 26.98999999999978,213.581 C27.390000000000327,213.935 27.590000000000146,214.378 27.590000000000146,214.909 C27.590000000000146,215.805 27.13000000000011,216.643 26.210000000000036,217.425 C25.270000000000437,218.206 24.270000000000437,218.596 23.199999999999818,218.596 C22.56999999999971,218.596 22.039999999999964,218.435 21.61999999999989,218.112 C21.210000000000036,217.758 21.01000000000022,217.315 21.01000000000022,216.784 C21.01000000000022,215.888 21.479999999999563,215.05 22.409999999999854,214.268 C23.329999999999927,213.487 24.329999999999927,213.096 25.399999999999636,213.096" />
<path d="M25.399999999999636,170.596 C26.020000000000437,170.596 26.5600000000004,170.758 26.98999999999978,171.081 C27.390000000000327,171.435 27.590000000000146,171.878 27.590000000000146,172.409 C27.590000000000146,173.305 27.13000000000011,174.143 26.210000000000036,174.925 C25.270000000000437,175.706 24.270000000000437,176.096 23.199999999999818,176.096 C22.56999999999971,176.096 22.039999999999964,175.935 21.61999999999989,175.612 C21.210000000000036,175.258 21.01000000000022,174.815 21.01000000000022,174.284 C21.01000000000022,173.388 21.479999999999563,172.55 22.409999999999854,171.768 C23.329999999999927,170.987 24.329999999999927,170.596 25.399999999999636,170.596" />
<path d="M25.399999999999636,175.596 C26.020000000000437,175.596 26.5600000000004,175.758 26.98999999999978,176.081 C27.390000000000327,176.435 27.590000000000146,176.878 27.590000000000146,177.409 C27.590000000000146,178.305 27.13000000000011,179.143 26.210000000000036,179.925 C25.270000000000437,180.706 24.270000000000437,181.096 23.199999999999818,181.096 C22.56999999999971,181.096 22.039999999999964,180.935 21.61999999999989,180.612 C21.210000000000036,180.258 21.01000000000022,179.815 21.01000000000022,179.284 C21.01000000000022,178.388 21.479999999999563,177.55 22.409999999999854,176.768 C23.329999999999927,175.987 24.329999999999927,175.596 25.399999999999636,175.596" />
<path d="M25.399999999999636,183.096 C26.020000000000437,183.096 26.5600000000004,183.258 26.98999999999978,183.581 C27.390000000000327,183.935 27.590000000000146,184.378 27.590000000000146,184.909 C27.590000000000146,185.805 27.13000000000011,186.643 26.210000000000036,187.425 C25.270000000000437,188.206 24.270000000000437,188.596 23.199999999999818,188.596 C22.56999999999971,188.596 22.039999999999964,188.435 21.61999999999989,188.112 C21.210000000000036,187.758 21.01000000000022,187.315 21.01000000000022,186.784 C21.01000000000022,185.888 21.479999999999563,185.05 22.409999999999854,184.268 C23.329999999999927,183.487 24.329999999999927,183.096 25.399999999999636,183.096" />
<path d="M25.399999999999636,193.096 C26.020000000000437,193.096 26.5600000000004,193.258 26.98999999999978,193.581 C27.390000000000327,193.935 27.590000000000146,194.378 27.590000000000146,194.909 C27.590000000000146,195.805 27.13000000000011,196.643 26.210000000000036,197.425 C25.270000000000437,198.206 24.270000000000437,198.596 23.199999999999818,198.596 C22.56999999999971,198.596 22.039999999999964,198.435 21.61999999999989,198.112 C21.210000000000036,197.758 21.01000000000022,197.315 21.01000000000022,196.784 C21.01000000000022,195.888 21.479999999999563,195.05 22.409999999999854,194.268 C23.329999999999927,193.487 24.329999999999927,193.096 25.399999999999636,193.096" />
<path d="M25.399999999999636,100.596 C26.020000000000437,100.596 26.5600000000004,100.758 26.98999999999978,101.081 C27.390000000000327,101.435 27.590000000000146,101.878 27.590000000000146,102.409 C27.590000000000146,103.305 27.13000000000011,104.143 26.210000000000036,104.925 C25.270000000000437,105.706 24.270000000000437,106.096 23.199999999999818,106.096 C22.56999999999971,106.096 22.039999999999964,105.935 21.61999999999989,105.612 C21.210000000000036,105.258 21.01000000000022,104.815 21.01000000000022,104.284 C21.01000000000022,103.388 21.479999999999563,102.55 22.409999999999854,101.768 C23.329999999999927,100.987 24.329999999999927,100.596 25.399999999999636,100.596" />
<path d="M25.399999999999636,78.0965 C26.020000000000437,78.0965 26.5600000000004,78.2579 26.98999999999978,78.5808 C27.390000000000327,78.935 27.590000000000146,79.3777 27.590000000000146,79.909 C27.590000000000146,80.8048 27.13000000000011,81.6433 26.210000000000036,82.4246 C25.270000000000437,83.2058 24.270000000000437,83.5965 23.199999999999818,83.5965 C22.56999999999971,83.5965 22.039999999999964,83.435 21.61999999999989,83.1121 C21.210000000000036,82.7579 21.01000000000022,82.3152 21.01000000000022,81.784 C21.01000000000022,80.8881 21.479999999999563,80.0496 22.409999999999854,79.2683 C23.329999999999927,78.4871 24.329999999999927,78.0965 25.399999999999636,78.0965" />
<path d="M127.10000000000036,121.737 C127.5,121.737 127.77999999999975,121.841 127.94999999999982,122.05 C128.1300000000001,122.279 128.22999999999956,122.503 128.27999999999975,122.721 C128.28999999999996,122.94 128.35000000000036,123.159 128.47999999999956,123.378 C128.55000000000018,123.586 128.6899999999996,123.69 128.89999999999964,123.69 C129.03999999999996,123.69 129.22999999999956,123.534 129.48999999999978,123.221 C129.78999999999996,122.857 129.97000000000025,122.596 130.0600000000004,122.44 C130.1199999999999,122.315 130.21000000000004,122.253 130.3199999999997,122.253 C130.3199999999997,122.253 130.32999999999993,122.253 130.35000000000036,122.253 C130.47000000000025,122.263 130.55000000000018,122.326 130.60000000000036,122.44 L127.02999999999975,135.846 C126.89999999999964,135.982 126.72000000000025,136.05 126.48999999999978,136.05 C126.25,136.05 126.06999999999971,135.982 125.93000000000029,135.846 L127.94999999999982,129.3 C127.06999999999971,129.612 126.35999999999967,129.768 125.81999999999971,129.768 C125.35000000000036,129.768 124.94999999999982,129.622 124.60000000000036,129.331 C124.25,129.039 124.06999999999971,128.659 124.06999999999971,128.19 C124.06999999999971,127.784 124.21000000000004,127.445 124.47999999999956,127.175 C124.77000000000044,126.893 125.11999999999989,126.753 125.52999999999975,126.753 C125.90999999999985,126.753 126.1899999999996,126.857 126.36999999999989,127.065 C126.5600000000004,127.284 126.67000000000007,127.503 126.71000000000004,127.721 C126.76000000000022,127.982 126.81999999999971,128.206 126.92000000000007,128.393 C127.0,128.602 127.14000000000033,128.706 127.34000000000015,128.706 C127.48999999999978,128.706 127.72000000000025,128.524 128.01000000000022,128.159 C128.30000000000018,127.815 128.47999999999956,127.544 128.5600000000004,127.346 L129.46000000000004,124.315 C128.6300000000001,124.617 127.9399999999996,124.768 127.39000000000033,124.768 C126.92000000000007,124.768 126.51000000000022,124.617 126.17000000000007,124.315 C125.8100000000004,124.034 125.64000000000033,123.659 125.64000000000033,123.19 C125.64000000000033,122.784 125.77999999999975,122.445 126.06999999999971,122.175 C126.35000000000036,121.883 126.69999999999982,121.737 127.10000000000036,121.737" />
<path d="M127.10000000000036,69.2371 C127.5,69.2371 127.77999999999975,69.3412 127.94999999999982,69.5496 C128.1300000000001,69.7787 128.22999999999956,70.0027 128.27999999999975,70.2215 C128.28999999999996,70.4402 128.35000000000036,70.659 128.47999999999956,70.8777 C128.55000000000018,71.086 128.6899999999996,71.1902 128.89999999999964,71.1902 C129.03999999999996,71.1902 129.22999999999956,71.034 129.48999999999978,70.7215 C129.78999999999996,70.3569 129.97000000000025,70.0965 130.0600000000004,69.9402 C130.1199999999999,69.8152 130.21000000000004,69.7527 130.3199999999997,69.7527 C130.3199999999997,69.7527 130.32999999999993,69.7527 130.35000000000036,69.7527 C130.47000000000025,69.7631 130.55000000000018,69.8256 130.60000000000036,69.9402 L127.02999999999975,83.3465 C126.89999999999964,83.4819 126.72000000000025,83.5496 126.48999999999978,83.5496 C126.25,83.5496 126.06999999999971,83.4819 125.93000000000029,83.3465 L127.94999999999982,76.7996 C127.06999999999971,77.1121 126.35999999999967,77.2683 125.81999999999971,77.2683 C125.35000000000036,77.2683 124.94999999999982,77.1225 124.60000000000036,76.8308 C124.25,76.5392 124.06999999999971,76.159 124.06999999999971,75.6902 C124.06999999999971,75.284 124.21000000000004,74.9454 124.47999999999956,74.6746 C124.77000000000044,74.3933 125.11999999999989,74.2527 125.52999999999975,74.2527 C125.90999999999985,74.2527 126.1899999999996,74.3569 126.36999999999989,74.5652 C126.5600000000004,74.784 126.67000000000007,75.0027 126.71000000000004,75.2215 C126.76000000000022,75.4819 126.81999999999971,75.7058 126.92000000000007,75.8933 C127.0,76.1017 127.14000000000033,76.2058 127.34000000000015,76.2058 C127.48999999999978,76.2058 127.72000000000025,76.0235 128.01000000000022,75.659 C128.30000000000018,75.3152 128.47999999999956,75.0444 128.5600000000004,74.8465 L129.46000000000004,71.8152 C128.6300000000001,72.1173 127.9399999999996,72.2683 127.39000000000033,72.2683 C126.92000000000007,72.2683 126.51000000000022,72.1173 126.17000000000007,71.8152 C125.8100000000004,71.534 125.64000000000033,71.159 125.64000000000033,70.6902 C125.64000000000033,70.284 125.77999999999975,69.9454 126.06999999999971,69.6746 C126.35000000000036,69.3829 126.69999999999982,69.2371 127.10000000000036,69.2371" />
<path d="M115.85000000000036,98.8152 C115.5,98.8152 115.18000000000029,99.0027 114.89999999999964,99.3777 C114.60000000000036,99.7735 114.36999999999989,100.211 114.21000000000004,100.69 C114.0600000000004,101.149 113.97999999999956,101.55 113.98999999999978,101.893 C113.98999999999978,102.383 114.18000000000029,102.628 114.53999999999996,102.628 C114.85999999999967,102.628 115.14000000000033,102.503 115.36999999999989,102.253 C115.63000000000011,101.982 115.85000000000036,101.513 116.02999999999975,100.846 C116.21000000000004,100.159 116.3100000000004,99.6798 116.3100000000004,99.409 C116.30000000000018,99.0131 116.14999999999964,98.8152 115.85000000000036,98.8152 M112.93000000000029,97.8933 C113.25,97.8933 113.53999999999996,97.9793 113.77999999999975,98.1511 C114.02999999999975,98.323 114.18000000000029,98.5548 114.23999999999978,98.8465 C114.5,98.5652 114.8100000000004,98.336 115.17000000000007,98.159 C115.52000000000044,97.9819 115.85000000000036,97.8933 116.14999999999964,97.8933 C116.77999999999975,97.8933 117.26000000000022,98.086 117.60000000000036,98.4715 C117.9399999999996,98.8777 118.10000000000036,99.3881 118.10000000000036,100.003 C118.10000000000036,101.024 117.73999999999978,101.857 117.02999999999975,102.503 C116.36999999999989,103.055 115.77999999999975,103.331 115.23999999999978,103.331 C114.92000000000007,103.331 114.65999999999985,103.3 114.46000000000004,103.237 C114.21000000000004,103.175 114.05000000000018,103.117 113.96000000000004,103.065 C113.85000000000036,102.992 113.75,102.956 113.68000000000029,102.956 C113.52000000000044,102.956 113.40999999999985,103.024 113.35000000000036,103.159 L112.64999999999964,105.284 L112.64999999999964,105.378 C112.64999999999964,105.503 112.73999999999978,105.576 112.93000000000029,105.596 C112.98999999999978,105.607 113.09000000000015,105.617 113.22000000000025,105.628 C113.35000000000036,105.638 113.44999999999982,105.643 113.52999999999975,105.643 C113.71000000000004,105.675 113.8100000000004,105.727 113.8100000000004,105.8 C113.8100000000004,105.904 113.76000000000022,105.956 113.67000000000007,105.956 C112.52999999999975,105.883 111.80000000000018,105.846 111.46000000000004,105.846 C111.10000000000036,105.846 110.35000000000036,105.883 109.21000000000004,105.956 C109.10999999999967,105.956 109.06999999999971,105.904 109.09000000000015,105.8 C109.09000000000015,105.727 109.17000000000007,105.675 109.34000000000015,105.643 C109.40999999999985,105.622 109.73999999999978,105.612 110.34000000000015,105.612 C110.60999999999967,105.612 110.77000000000044,105.529 110.81999999999971,105.362 L112.86999999999989,99.4402 C112.89999999999964,99.3256 112.92000000000007,99.2267 112.93000000000029,99.1433 C112.93000000000029,98.9142 112.82999999999993,98.8048 112.61999999999989,98.8152 C112.32999999999993,98.8152 112.02000000000044,99.0027 111.69999999999982,99.3777 C111.39000000000033,99.7319 111.14000000000033,100.133 110.94999999999982,100.581 C110.89999999999964,100.685 110.8100000000004,100.742 110.69999999999982,100.753 C110.60000000000036,100.753 110.5600000000004,100.716 110.5600000000004,100.643 C110.5600000000004,100.539 110.59000000000015,100.44 110.64999999999964,100.346 C110.90999999999985,99.7944 111.18000000000029,99.2944 111.46000000000004,98.8465 C111.63000000000011,98.5965 111.85000000000036,98.3777 112.11999999999989,98.1902 C112.36999999999989,97.9923 112.64000000000033,97.8933 112.93000000000029,97.8933" />
<path d="M210.98999999999978,215.789 L254.10000000000036,219.596 L254.10000000000036,222.096 L210.98999999999978,218.289 L210.98999999999978,215.789" />
<path d="M254.10000000000036,223.346 L247.5,222.764 L247.5,225.264 L254.10000000000036,225.846 L254.10000000000036,223.346" />
<path d="M59.18000000000029,233.346 L97.98999999999978,238.432 L97.98999999999978,240.932 L59.18000000000029,235.846 L59.18000000000029,233.346" />
<path d="M59.18000000000029,229.596 L78.90999999999985,232.182 L78.90999999999985,234.682 L59.18000000000029,232.096 L59.18000000000029,229.596" />
<path d="M65.10999999999967,157.054 L103.93000000000029,159.596 L103.93000000000029,162.096 L65.10999999999967,159.554 L65.10999999999967,157.054" />
<path d="M59.18000000000029,128.346 L113.32999999999993,133.407 L113.32999999999993,135.907 L59.18000000000029,130.846 L59.18000000000029,128.346" />
<path d="M97.34000000000015,128.164 L113.32999999999993,129.657 L113.32999999999993,132.157 L97.34000000000015,130.664 L97.34000000000015,128.164" />
<path d="M97.34000000000015,124.414 L113.32999999999993,125.907 L113.32999999999993,128.407 L97.34000000000015,126.914 L97.34000000000015,124.414" />
<path d="M59.18000000000029,93.3465 L113.32999999999993,98.4072 L113.32999999999993,100.907 L59.18000000000029,95.8465 L59.18000000000029,93.3465" />
<path d="M97.34000000000015,93.1635 L113.32999999999993,94.6572 L113.32999999999993,97.1572 L97.34000000000015,95.6635 L97.34000000000015,93.1635" />
<path d="M97.34000000000015,89.4135 L113.32999999999993,90.9072 L113.32999999999993,93.4072 L97.34000000000015,91.9135 L97.34000000000015,89.4135" />
<path d="M21.01000000000022,227.491 L40.73999999999978,229.668 L40.73999999999978,232.168 L21.01000000000022,229.991 L21.01000000000022,227.491" />
<path d="M0.6999999999998181,157.096 L46.67000000000007,157.096 L46.67000000000007,159.596 L0.6999999999998181,159.596 L0.6999999999998181,157.096" />
<path d="M26.9399999999996,160.846 L46.67000000000007,160.846 L46.67000000000007,163.346 L26.9399999999996,163.346 L26.9399999999996,160.846" />
<path d="M21.01000000000022,119.596 L40.73999999999978,119.596 L40.73999999999978,122.096 L21.01000000000022,122.096 L21.01000000000022,119.596" />
<path d="M0.6999999999998181,53.2748 L46.67000000000007,58.3465 L46.67000000000007,60.8465 L0.6999999999998181,55.7748 L0.6999999999998181,53.2748" />
<path d="M26.9399999999996,59.9195 L46.67000000000007,62.0965 L46.67000000000007,64.5965 L26.9399999999996,62.4195 L26.9399999999996,59.9195" />
<path d="M213.72999999999956,234.151 C213.5,233.927 213.39000000000033,233.659 213.39000000000033,233.346 C213.39000000000033,233.034 213.5,232.766 213.72999999999956,232.542 C213.94999999999982,232.318 214.22000000000025,232.206 214.52999999999975,232.206 C214.84000000000015,232.206 215.10999999999967,232.318 215.32999999999993,232.542 C215.55000000000018,232.766 215.65999999999985,233.034 215.65999999999985,233.346 C215.65999999999985,233.659 215.55000000000018,233.927 215.32999999999993,234.151 C215.10999999999967,234.375 214.84000000000015,234.487 214.52999999999975,234.487 C214.22000000000025,234.487 213.94999999999982,234.375 213.72999999999956,234.151" />
<polyline points="0.0,63.3465 255.0,63.3465" fill="none" stroke="#000000" stroke-width="0.40" />
<polyline points="0.0,68.3465 255.0,68.3465" fill="none" stroke="#000000" stroke-width="0.40" />
<polyline points="0.0,73.3465 255.0,73.3465" fill="none" stroke="#000000" stroke-width="0.40" />
<polyline points="0.0,78.3465 255.0,78.3465" fill="none" stroke="#000000" stroke-width="0.40" />
<polyline points="0.0,83.3465 255.0,83.3465" fill="none" stroke="#000000" stroke-width="0.40" />
<polyline points="0.0,115.846 255.0,115.846" fill="none" stroke="#000000" stroke-width="0.40" />
<polyline points="0.0,120.846 255.0,120.846" fill="none" stroke="#000000" stroke-width="0.40" />
<polyline points="0.0,125.846 255.0,125.846" fill="none" stroke="#000000" stroke-width="0.40" />
<polyline points="0.0,130.846 255.0,130.846" fill="none" stroke="#000000" stroke-width="0.40" />
<polyline points="0.0,135.846 255.0,135.846" fill="none" stroke="#000000" stroke-width="0.40" />
<polyline points="0.0,168.346 255.0,168.346" fill="none" stroke="#000000" stroke-width="0.40" />
<polyline points="0.0,173.346 255.0,173.346" fill="none" stroke="#000000" stroke-width="0.40" />
<polyline points="0.0,178.346 255.0,178.346" fill="none" stroke="#000000" stroke-width="0.40" />
<polyline points="0.0,183.346 255.0,183.346" fill="none" stroke="#000000" stroke-width="0.40" />
<polyline points="0.0,188.346 255.0,188.346" fill="none" stroke="#000000" stroke-width="0.40" />
<polyline points="0.0,220.846 255.0,220.846" fill="none" stroke="#000000" stroke-width="0.40" />
<polyline points="0.0,225.846 255.0,225.846" fill="none" stroke="#000000" stroke-width="0.40" />
<polyline points="0.0,230.846 255.0,230.846" fill="none" stroke="#000000" stroke-width="0.40" />
<polyline points="0.0,235.846 255.0,235.846" fill="none" stroke="#000000" stroke-width="0.40" />
<polyline points="0.0,240.846 255.0,240.846" fill="none" stroke="#000000" stroke-width="0.40" />
<polyline points="144.09000000000015,220.846 144.09000000000015,240.846" fill="" stroke="#000000" stroke-width="0.80" />
<polyline points="144.09000000000015,168.346 144.09000000000015,188.346" fill="" stroke="#000000" stroke-width="0.80" />
<polyline points="144.09000000000015,115.846 144.09000000000015,135.846" fill="" stroke="#000000" stroke-width="0.80" />
<polyline points="144.09000000000015,63.3465 144.09000000000015,83.3465" fill="" stroke="#000000" stroke-width="0.80" />
<polyline points="253.77000000000044,244.907 253.77000000000044,220.846" fill="" stroke="#000000" stroke-width="0.65" />
<polyline points="211.3199999999997,232.407 211.3199999999997,217.096" fill="" stroke="#000000" stroke-width="0.65" />
<polyline points="205.3800000000001,89.2855 205.3800000000001,125.846" fill="" stroke="#000000" stroke-width="0.65" />
<polyline points="205.3800000000001,66.7855 205.3800000000001,92.7215" fill="" stroke="#000000" stroke-width="0.65" />
<polyline points="159.0600000000004,232.407 159.0600000000004,217.096" fill="" stroke="#000000" stroke-width="0.65" />
<polyline points="159.23999999999978,192.578 159.23999999999978,157.096" fill="" stroke="#000000" stroke-width="0.65" />
<polyline points="153.1300000000001,111.786 153.1300000000001,128.346" fill="" stroke="#000000" stroke-width="0.65" />
<polyline points="159.0600000000004,87.4074 159.0600000000004,70.8465" fill="" stroke="#000000" stroke-width="0.65" />
<polyline points="113.0,104.286 113.0,134.596" fill="" stroke="#000000" stroke-width="0.65" />
<polyline points="113.0,81.7855 113.0,99.5965" fill="" stroke="#000000" stroke-width="0.65" />
<polyline points="97.67000000000007,224.286 97.67000000000007,239.596" fill="" stroke="#000000" stroke-width="0.65" />
<polyline points="103.60000000000036,198.862 103.60000000000036,160.846" fill="" stroke="#000000" stroke-width="0.65" />
<polyline points="97.67000000000007,101.786 97.67000000000007,133.164" fill="" stroke="#000000" stroke-width="0.65" />
<polyline points="97.67000000000007,79.2855 97.67000000000007,98.1635" fill="" stroke="#000000" stroke-width="0.65" />
<polyline points="78.59000000000015,219.286 78.59000000000015,237.096" fill="" stroke="#000000" stroke-width="0.65" />
<polyline points="59.5,216.786 59.5,234.596" fill="" stroke="#000000" stroke-width="0.65" />
<polyline points="65.43000000000029,194.907 65.43000000000029,158.346" fill="" stroke="#000000" stroke-width="0.65" />
<polyline points="59.5,89.2855 59.5,129.596" fill="" stroke="#000000" stroke-width="0.65" />
<polyline points="59.5,66.7855 59.5,94.5965" fill="" stroke="#000000" stroke-width="0.65" />
<polyline points="40.42000000000007,219.286 40.42000000000007,234.596" fill="" stroke="#000000" stroke-width="0.65" />
<polyline points="46.350000000000364,194.907 46.350000000000364,158.346" fill="" stroke="#000000" stroke-width="0.65" />
<polyline points="40.42000000000007,101.786 40.42000000000007,124.596" fill="" stroke="#000000" stroke-width="0.65" />
<polyline points="46.350000000000364,77.4074 46.350000000000364,59.5965" fill="" stroke="#000000" stroke-width="0.65" />
<polyline points="21.329999999999927,216.786 21.329999999999927,232.491" fill="" stroke="#000000" stroke-width="0.65" />
<polyline points="27.270000000000437,194.907 27.270000000000437,158.346" fill="" stroke="#000000" stroke-width="0.65" />
<polyline points="21.329999999999927,104.286 21.329999999999927,124.596" fill="" stroke="#000000" stroke-width="0.65" />
<polyline points="27.270000000000437,79.9074 27.270000000000437,57.4912" fill="" stroke="#000000" stroke-width="0.65" />
<polyline points="1.0299999999997453,198.862 1.0299999999997453,158.346" fill="" stroke="#000000" stroke-width="0.65" />
<polyline points="1.0299999999997453,69.9074 1.0299999999997453,54.5965" fill="" stroke="#000000" stroke-width="0.65" />
<polyline points="246.01000000000022,245.846 255.60000000000036,245.846" fill="" stroke="#000000" stroke-width="0.80" />
<polyline points="203.5600000000004,90.8465 213.14000000000033,90.8465" fill="" stroke="#000000" stroke-width="0.80" />
<polyline points="203.5600000000004,95.8465 213.14000000000033,95.8465" fill="" stroke="#000000" stroke-width="0.80" />
<polyline points="203.5600000000004,100.846 213.14000000000033,100.846" fill="" stroke="#000000" stroke-width="0.80" />
<polyline points="203.5600000000004,105.846 213.14000000000033,105.846" fill="" stroke="#000000" stroke-width="0.80" />
<polyline points="203.5600000000004,110.846 213.14000000000033,110.846" fill="" stroke="#000000" stroke-width="0.80" />
<polyline points="151.1199999999999,193.346 161.0699999999997,193.346" fill="" stroke="#000000" stroke-width="0.80" />
<polyline points="151.30000000000018,110.846 160.89000000000033,110.846" fill="" stroke="#000000" stroke-width="0.80" />
<polyline points="151.30000000000018,88.3465 160.89000000000033,88.3465" fill="" stroke="#000000" stroke-width="0.80" />
<polyline points="111.18000000000029,105.846 120.76000000000022,105.846" fill="" stroke="#000000" stroke-width="0.80" />
<polyline points="111.18000000000029,110.846 120.76000000000022,110.846" fill="" stroke="#000000" stroke-width="0.80" />
<polyline points="95.84000000000015,193.346 105.43000000000029,193.346" fill="" stroke="#000000" stroke-width="0.80" />
<polyline points="95.84000000000015,198.346 105.43000000000029,198.346" fill="" stroke="#000000" stroke-width="0.80" />
<polyline points="95.84000000000015,100.846 105.43000000000029,100.846" fill="" stroke="#000000" stroke-width="0.80" />
<polyline points="95.84000000000015,105.846 105.43000000000029,105.846" fill="" stroke="#000000" stroke-width="0.80" />
<polyline points="95.84000000000015,110.846 105.43000000000029,110.846" fill="" stroke="#000000" stroke-width="0.80" />
<polyline points="57.68000000000029,215.846 67.26000000000022,215.846" fill="" stroke="#000000" stroke-width="0.80" />
<polyline points="57.68000000000029,193.346 67.26000000000022,193.346" fill="" stroke="#000000" stroke-width="0.80" />
<polyline points="57.68000000000029,90.8465 67.26000000000022,90.8465" fill="" stroke="#000000" stroke-width="0.80" />
<polyline points="57.68000000000029,95.8465 67.26000000000022,95.8465" fill="" stroke="#000000" stroke-width="0.80" />
<polyline points="57.68000000000029,100.846 67.26000000000022,100.846" fill="" stroke="#000000" stroke-width="0.80" />
<polyline points="57.68000000000029,105.846 67.26000000000022,105.846" fill="" stroke="#000000" stroke-width="0.80" />
<polyline points="57.68000000000029,110.846 67.26000000000022,110.846" fill="" stroke="#000000" stroke-width="0.80" />
<polyline points="38.590000000000146,193.346 48.17000000000007,193.346" fill="" stroke="#000000" stroke-width="0.80" />
<polyline points="38.590000000000146,100.846 48.17000000000007,100.846" fill="" stroke="#000000" stroke-width="0.80" />
<polyline points="38.590000000000146,105.846 48.17000000000007,105.846" fill="" stroke="#000000" stroke-width="0.80" />
<polyline points="38.590000000000146,110.846 48.17000000000007,110.846" fill="" stroke="#000000" stroke-width="0.80" />
<polyline points="19.51000000000022,215.846 29.090000000000146,215.846" fill="" stroke="#000000" stroke-width="0.80" />
<polyline points="19.51000000000022,193.346 29.090000000000146,193.346" fill="" stroke="#000000" stroke-width="0.80" />
<polyline points="19.51000000000022,105.846 29.090000000000146,105.846" fill="" stroke="#000000" stroke-width="0.80" />
<polyline points="19.51000000000022,110.846 29.090000000000146,110.846" fill="" stroke="#000000" stroke-width="0.80" />
<polyline points="0.0,210.846 2.850000000000364,210.846" fill="" stroke="#000000" stroke-width="0.80" />
<polyline points="0.0,215.846 2.850000000000364,215.846" fill="" stroke="#000000" stroke-width="0.80" />
<polyline points="0.0,193.346 2.850000000000364,193.346" fill="" stroke="#000000" stroke-width="0.80" />
<polyline points="0.0,198.346 2.850000000000364,198.346" fill="" stroke="#000000" stroke-width="0.80" />
<polyline points="0.0,95.8465 2.850000000000364,95.8465" fill="" stroke="#000000" stroke-width="0.80" />
<polyline points="0.0,100.846 2.850000000000364,100.846" fill="" stroke="#000000" stroke-width="0.80" />
<polyline points="0.0,105.846 2.850000000000364,105.846" fill="" stroke="#000000" stroke-width="0.80" />
<polyline points="0.0,110.846 2.850000000000364,110.846" fill="" stroke="#000000" stroke-width="0.80" />
<polyline points="105.18000000000029,79.0869 111.51000000000022,79.0869" fill="" stroke="#000000" stroke-width="0.75" />
</svg>
