<?xml version="1.0" encoding="UTF-8" standalone="yes"?>
<svg width="256.0px" height="256.0px" xmlns="http://www.w3.org/2000/svg" xmlns:xlink="http://www.w3.org/1999/xlink" version="1.2" baseProfile="tiny">
<path d="M11.289999999999964,24.635999999999967 C11.1899999999996,24.635999999999967 11.0,24.692999999999984 10.710000000000036,24.807999999999993 L10.710000000000036,24.69799999999998 L12.140000000000327,23.964000000000055 L12.199999999999818,23.979000000000042 L12.199999999999818,28.775999999999954 C12.199999999999818,28.974000000000046 12.25,29.101999999999975 12.350000000000364,29.158999999999992 C12.449999999999818,29.216000000000008 12.649999999999636,29.245000000000005 12.960000000000036,29.245000000000005 L12.960000000000036,29.370000000000005 L10.760000000000218,29.370000000000005 L10.760000000000218,29.245000000000005 C11.0600000000004,29.235000000000014 11.270000000000437,29.190000000000055 11.36999999999989,29.111999999999966 C11.479999999999563,29.033999999999992 11.529999999999745,28.870000000000005 11.529999999999745,28.620000000000005 L11.529999999999745,25.010999999999967 C11.529999999999745,24.760999999999967 11.449999999999818,24.635999999999967 11.289999999999964,24.635999999999967 M17.079999999999927,28.714000000000055 C16.76000000000022,29.224000000000046 16.329999999999927,29.479000000000042 15.789999999999964,29.479000000000042 C15.239999999999782,29.479000000000042 14.800000000000182,29.21900000000005 14.479999999999563,28.69799999999998 C14.159999999999854,28.17700000000002 14.0,27.504999999999995 14.0,26.682999999999993 C14.0,25.912000000000035 14.159999999999854,25.265999999999963 14.489999999999782,24.745000000000005 C14.819999999999709,24.224000000000046 15.260000000000218,23.964000000000055 15.8100000000004,23.964000000000055 C16.329999999999927,23.964000000000055 16.75,24.21900000000005 17.06999999999971,24.729000000000042 C17.399999999999636,25.24000000000001 17.5600000000004,25.90700000000004 17.5600000000004,26.729000000000042 C17.5600000000004,27.54200000000003 17.399999999999636,28.202999999999975 17.079999999999927,28.714000000000055 M15.789999999999964,24.16700000000003 C15.079999999999927,24.16700000000003 14.729999999999563,25.03200000000004 14.729999999999563,26.760999999999967 C14.729999999999563,28.437999999999988 15.079999999999927,29.275999999999954 15.779999999999745,29.275999999999954 C16.479999999999563,29.275999999999954 16.81999999999971,28.432999999999993 16.81999999999971,26.745000000000005 C16.81999999999971,25.912000000000035 16.73999999999978,25.274 16.5600000000004,24.831000000000017 C16.38000000000011,24.388000000000034 16.13000000000011,24.16700000000003 15.789999999999964,24.16700000000003" />
<path d="M245.0600000000004,30.79200000000003 C244.92000000000007,30.69799999999998 244.77999999999975,30.591000000000008 244.6300000000001,30.47199999999998 C244.47999999999956,30.351999999999975 244.3100000000004,30.184999999999945 244.1199999999999,29.97199999999998 C243.9300000000003,29.758000000000038 243.77000000000044,29.53200000000004 243.6199999999999,29.29200000000003 C243.47999999999956,29.05200000000002 243.35999999999967,28.760999999999967 243.26000000000022,28.41700000000003 C243.17000000000007,28.07299999999998 243.1199999999999,27.71900000000005 243.1199999999999,27.354000000000042 C243.1199999999999,26.96900000000005 243.17000000000007,26.604000000000042 243.26000000000022,26.260999999999967 C243.35999999999967,25.91700000000003 243.47000000000025,25.633000000000038 243.60999999999967,25.408999999999992 C243.73999999999978,25.184999999999945 243.90999999999985,24.966000000000008 244.10999999999967,24.753000000000043 C244.3199999999997,24.538999999999987 244.48999999999978,24.383000000000038 244.6199999999999,24.283999999999992 C244.76000000000022,24.184999999999945 244.90999999999985,24.077999999999975 245.0699999999997,23.964000000000055 L245.14999999999964,24.089000000000055 C244.92000000000007,24.287000000000035 244.73999999999978,24.461000000000013 244.59000000000015,24.611999999999966 C244.4399999999996,24.763000000000034 244.30000000000018,24.964000000000055 244.17000000000007,25.214000000000055 C244.02999999999975,25.464000000000055 243.9399999999996,25.760999999999967 243.8800000000001,26.104000000000042 C243.8199999999997,26.44799999999998 243.78999999999996,26.860000000000014 243.78999999999996,27.339000000000055 C243.78999999999996,27.827999999999975 243.8199999999997,28.253000000000043 243.8800000000001,28.611999999999966 C243.9399999999996,28.97199999999998 244.02999999999975,29.275999999999954 244.17000000000007,29.525999999999954 C244.30000000000018,29.775999999999954 244.4399999999996,29.98199999999997 244.59000000000015,30.144000000000005 C244.73999999999978,30.30499999999995 244.92000000000007,30.474000000000046 245.14999999999964,30.650999999999954 L245.0600000000004,30.79200000000003 M245.59000000000015,27.66700000000003 C245.59000000000015,27.07299999999998 245.76000000000022,26.59699999999998 246.10999999999967,26.236999999999966 C246.46000000000004,25.878000000000043 246.8699999999999,25.69799999999998 247.34000000000015,25.69799999999998 C247.67000000000007,25.69799999999998 247.96000000000004,25.778999999999996 248.1899999999996,25.940000000000055 C248.4300000000003,26.101999999999975 248.53999999999996,26.297000000000025 248.53999999999996,26.525999999999954 C248.53999999999996,26.610000000000014 248.51000000000022,26.684999999999945 248.4300000000003,26.753000000000043 C248.35999999999967,26.821000000000026 248.27000000000044,26.854000000000042 248.17000000000007,26.854000000000042 C247.98999999999978,26.854000000000042 247.8699999999999,26.735000000000014 247.8100000000004,26.495000000000005 L247.76000000000022,26.32299999999998 C247.72000000000025,26.16700000000003 247.67000000000007,26.062999999999988 247.60999999999967,26.010999999999967 C247.53999999999996,25.958999999999946 247.4399999999996,25.932999999999993 247.28999999999996,25.932999999999993 C246.97000000000025,25.932999999999993 246.71000000000004,26.059999999999945 246.51000000000022,26.315000000000055 C246.3100000000004,26.571000000000026 246.21000000000004,26.90700000000004 246.21000000000004,27.32299999999998 C246.21000000000004,27.770999999999958 246.32999999999993,28.140999999999963 246.5600000000004,28.432999999999993 C246.78999999999996,28.724000000000046 247.07999999999993,28.870000000000005 247.44999999999982,28.870000000000005 C247.67000000000007,28.870000000000005 247.85999999999967,28.812999999999988 248.02000000000044,28.69799999999998 C248.1800000000003,28.583999999999946 248.35999999999967,28.390999999999963 248.53999999999996,28.120000000000005 L248.64999999999964,28.182999999999993 C248.60000000000036,28.297000000000025 248.5600000000004,28.388000000000034 248.52000000000044,28.456000000000017 C248.47999999999956,28.524 248.40999999999985,28.628000000000043 248.3100000000004,28.769000000000005 C248.19999999999982,28.908999999999992 248.10000000000036,29.020999999999958 248.0,29.104000000000042 C247.89999999999964,29.187999999999988 247.77000000000044,29.265999999999963 247.60999999999967,29.339000000000055 C247.44999999999982,29.412000000000035 247.27999999999975,29.44799999999998 247.10999999999967,29.44799999999998 C246.67000000000007,29.44799999999998 246.3100000000004,29.28200000000004 246.02000000000044,28.94799999999998 C245.72999999999956,28.61500000000001 245.59000000000015,28.187999999999988 245.59000000000015,27.66700000000003 M249.26000000000022,23.964000000000055 C249.40999999999985,24.047000000000025 249.55000000000018,24.149 249.69999999999982,24.269000000000005 C249.84000000000015,24.388000000000034 250.01000000000022,24.55499999999995 250.21000000000004,24.769000000000005 C250.39999999999964,24.98199999999997 250.5699999999997,25.211000000000013 250.71000000000004,25.456000000000017 C250.85000000000036,25.701000000000022 250.97000000000025,25.991999999999962 251.0699999999997,26.331000000000017 C251.17000000000007,26.66999999999996 251.21000000000004,27.025999999999954 251.21000000000004,27.400999999999954 C251.21000000000004,27.775999999999954 251.17000000000007,28.135999999999967 251.0699999999997,28.479000000000042 C250.97000000000025,28.82299999999998 250.85000000000036,29.110000000000014 250.72000000000025,29.339000000000055 C250.59000000000015,29.567999999999984 250.42000000000007,29.787000000000035 250.21000000000004,29.995000000000005 C250.01000000000022,30.202999999999975 249.84000000000015,30.360000000000014 249.71000000000004,30.464000000000055 C249.57999999999993,30.567999999999984 249.42000000000007,30.67700000000002 249.25,30.79200000000003 L249.17000000000007,30.650999999999954 C249.40999999999985,30.464000000000055 249.60000000000036,30.29200000000003 249.75,30.135999999999967 C249.89000000000033,29.979000000000042 250.02999999999975,29.778999999999996 250.15999999999985,29.533999999999992 C250.28999999999996,29.288999999999987 250.3800000000001,28.995000000000005 250.4399999999996,28.650999999999954 C250.5,28.307999999999993 250.52999999999975,27.895999999999958 250.52999999999975,27.41700000000003 C250.52999999999975,26.92700000000002 250.5,26.503000000000043 250.4399999999996,26.144000000000005 C250.3800000000001,25.783999999999992 250.28999999999996,25.476999999999975 250.15999999999985,25.22199999999998 C250.02999999999975,24.966000000000008 249.89000000000033,24.760999999999967 249.75,24.604000000000042 C249.60000000000036,24.44799999999998 249.40999999999985,24.275999999999954 249.17000000000007,24.089000000000055 L249.26000000000022,23.964000000000055 M255.03999999999996,24.635999999999967 C254.9399999999996,24.635999999999967 254.75,24.692999999999984 254.46000000000004,24.807999999999993 L254.46000000000004,24.69799999999998 L255.89000000000033,23.964000000000055 L255.94999999999982,23.979000000000042 L255.94999999999982,28.775999999999954 C255.94999999999982,28.974000000000046 256.0,29.101999999999975 256.10000000000036,29.158999999999992 C256.1999999999998,29.216000000000008 256.39999999999964,29.245000000000005 256.71000000000004,29.245000000000005 L256.71000000000004,29.370000000000005 L254.51000000000022,29.370000000000005 L254.51000000000022,29.245000000000005 C254.8100000000004,29.235000000000014 255.02000000000044,29.190000000000055 255.1199999999999,29.111999999999966 C255.22999999999956,29.033999999999992 255.27999999999975,28.870000000000005 255.27999999999975,28.620000000000005 L255.27999999999975,25.010999999999967 C255.27999999999975,24.760999999999967 255.19999999999982,24.635999999999967 255.03999999999996,24.635999999999967 M258.02999999999975,29.54200000000003 L258.0100000000002,29.385999999999967 C258.6199999999999,29.28200000000004 259.1300000000001,29.024 259.5500000000002,28.611999999999966 C259.97000000000025,28.201000000000022 260.27000000000044,27.66700000000003 260.4300000000003,27.010999999999967 C260.03999999999996,27.32299999999998 259.6400000000003,27.479000000000042 259.22999999999956,27.479000000000042 C258.8000000000002,27.479000000000042 258.46000000000004,27.327999999999975 258.1899999999996,27.025999999999954 C257.9300000000003,26.724000000000046 257.78999999999996,26.333999999999946 257.78999999999996,25.854000000000042 C257.78999999999996,25.312999999999988 257.9499999999998,24.860000000000014 258.27000000000044,24.495000000000005 C258.59000000000015,24.129999999999995 258.9899999999998,23.94799999999998 259.46000000000004,23.94799999999998 C260.0,23.94799999999998 260.4300000000003,24.158999999999992 260.7600000000002,24.581000000000017 C261.09000000000015,25.003000000000043 261.2600000000002,25.547000000000025 261.2600000000002,26.214000000000055 C261.2600000000002,26.432999999999993 261.2399999999998,26.653999999999996 261.21000000000004,26.878000000000043 C261.1700000000001,27.101999999999975 261.0799999999999,27.366999999999962 260.9499999999998,27.674999999999955 C260.8100000000004,27.98199999999997 260.6300000000001,28.254999999999995 260.40999999999985,28.495000000000005 C260.1899999999996,28.735000000000014 259.8699999999999,28.952999999999975 259.46000000000004,29.150999999999954 C259.0600000000004,29.349000000000046 258.5799999999999,29.479000000000042 258.02999999999975,29.54200000000003 M259.52999999999975,27.120000000000005 C259.6300000000001,27.120000000000005 259.75,27.10699999999997 259.8699999999999,27.081000000000017 C260.0,27.05499999999995 260.1199999999999,26.991999999999962 260.25,26.894000000000005 C260.3800000000001,26.79499999999996 260.4499999999998,26.672000000000025 260.4499999999998,26.525999999999954 L260.4499999999998,26.214000000000055 C260.4499999999998,24.860000000000014 260.10000000000036,24.182999999999993 259.39999999999964,24.182999999999993 C259.2399999999998,24.182999999999993 259.09000000000015,24.226999999999975 258.97000000000025,24.315000000000055 C258.85000000000036,24.403999999999996 258.7600000000002,24.520999999999958 258.71000000000004,24.66700000000003 C258.64999999999964,24.812999999999988 258.6099999999997,24.958999999999946 258.5699999999997,25.104000000000042 C258.53999999999996,25.25 258.52999999999975,25.40700000000004 258.52999999999975,25.57299999999998 C258.52999999999975,26.05200000000002 258.6199999999999,26.42999999999995 258.8000000000002,26.706000000000017 C258.97999999999956,26.98199999999997 259.22999999999956,27.120000000000005 259.52999999999975,27.120000000000005 M263.6099999999997,29.479000000000042 C263.0600000000004,29.479000000000042 262.6300000000001,29.265999999999963 262.3000000000002,28.839000000000055 C261.97000000000025,28.412000000000035 261.8100000000004,27.84400000000005 261.8100000000004,27.135999999999967 C261.8100000000004,26.91700000000003 261.8299999999999,26.692999999999984 261.8800000000001,26.464000000000055 C261.9300000000003,26.235000000000014 262.02000000000044,25.97199999999998 262.15999999999985,25.674999999999955 C262.3000000000002,25.378000000000043 262.4899999999998,25.111999999999966 262.72000000000025,24.878000000000043 C262.96000000000004,24.644000000000005 263.27999999999975,24.434999999999945 263.6899999999996,24.253000000000043 C264.10000000000036,24.071000000000026 264.5799999999999,23.952999999999975 265.1199999999999,23.900999999999954 L265.1400000000003,24.025999999999954 C264.5,24.129999999999995 263.97000000000025,24.385999999999967 263.5500000000002,24.79200000000003 C263.1300000000001,25.19799999999998 262.8599999999997,25.702999999999975 262.75,26.307999999999993 C263.0,26.162000000000035 263.1899999999996,26.067999999999984 263.3199999999997,26.025999999999954 C263.4499999999998,25.985000000000014 263.60000000000036,25.964000000000055 263.77999999999975,25.964000000000055 C264.25,25.964000000000055 264.6199999999999,26.111999999999966 264.8900000000003,26.408999999999992 C265.1700000000001,26.706000000000017 265.3100000000004,27.104000000000042 265.3100000000004,27.604000000000042 C265.3100000000004,28.15700000000004 265.14999999999964,28.60699999999997 264.8299999999999,28.956000000000017 C264.5100000000002,29.30499999999995 264.1099999999997,29.479000000000042 263.6099999999997,29.479000000000042 M263.47999999999956,26.32299999999998 C263.1199999999999,26.32299999999998 262.8699999999999,26.400999999999954 262.7399999999998,26.557999999999993 C262.6099999999997,26.714000000000055 262.53999999999996,26.94799999999998 262.53999999999996,27.260999999999967 C262.53999999999996,27.875 262.64999999999964,28.360000000000014 262.8599999999997,28.714000000000055 C263.0600000000004,29.067999999999984 263.34000000000015,29.245000000000005 263.6800000000003,29.245000000000005 C263.97999999999956,29.245000000000005 264.1899999999996,29.128000000000043 264.34000000000015,28.894000000000005 C264.4899999999998,28.658999999999992 264.5600000000004,28.32299999999998 264.5600000000004,27.885999999999967 C264.5600000000004,27.385999999999967 264.46000000000004,27.0 264.27999999999975,26.729000000000042 C264.09000000000015,26.458999999999946 263.8199999999997,26.32299999999998 263.47999999999956,26.32299999999998 M267.8599999999997,26.400999999999954 C268.34000000000015,26.754999999999995 268.6800000000003,27.05200000000002 268.85000000000036,27.29200000000003 C269.02000000000044,27.53200000000004 269.1099999999997,27.807999999999993 269.1099999999997,28.120000000000005 C269.1099999999997,28.537000000000035 268.96000000000004,28.866999999999962 268.6800000000003,29.111999999999966 C268.3900000000003,29.35699999999997 268.0100000000002,29.479000000000042 267.52999999999975,29.479000000000042 C267.0699999999997,29.479000000000042 266.6999999999998,29.35699999999997 266.40999999999985,29.111999999999966 C266.1199999999999,28.866999999999962 265.97999999999956,28.547000000000025 265.97999999999956,28.150999999999954 C265.97999999999956,27.879999999999995 266.0500000000002,27.653999999999996 266.1800000000003,27.47199999999998 C266.3100000000004,27.288999999999987 266.59000000000015,27.037000000000035 267.02999999999975,26.714000000000055 C266.60000000000036,26.339000000000055 266.3299999999999,26.062999999999988 266.21000000000004,25.885999999999967 C266.09000000000015,25.708999999999946 266.02999999999975,25.49000000000001 266.02999999999975,25.229000000000042 C266.02999999999975,24.86500000000001 266.1700000000001,24.559999999999945 266.46000000000004,24.315000000000055 C266.7399999999998,24.071000000000026 267.1099999999997,23.94799999999998 267.5600000000004,23.94799999999998 C267.9499999999998,23.94799999999998 268.27999999999975,24.05499999999995 268.53999999999996,24.269000000000005 C268.78999999999996,24.48199999999997 268.9200000000001,24.760999999999967 268.9200000000001,25.104000000000042 C268.9200000000001,25.375 268.84000000000015,25.604000000000042 268.6800000000003,25.79200000000003 C268.52999999999975,25.979000000000042 268.25,26.182999999999993 267.8599999999997,26.400999999999954 M267.22999999999956,26.870000000000005 C267.0,27.057999999999993 266.84000000000015,27.241999999999962 266.75,27.424999999999955 C266.64999999999964,27.60699999999997 266.6099999999997,27.827999999999975 266.6099999999997,28.089000000000055 C266.6099999999997,28.432999999999993 266.6999999999998,28.711000000000013 266.8800000000001,28.924999999999955 C267.0600000000004,29.138000000000034 267.3000000000002,29.245000000000005 267.6099999999997,29.245000000000005 C267.8699999999999,29.245000000000005 268.0799999999999,29.163999999999987 268.2399999999998,29.003000000000043 C268.39999999999964,28.841000000000008 268.47999999999956,28.629999999999995 268.47999999999956,28.370000000000005 C268.47999999999956,28.287000000000035 268.47000000000025,28.206000000000017 268.46000000000004,28.128000000000043 C268.4399999999996,28.049999999999955 268.4200000000001,27.985000000000014 268.39999999999964,27.932999999999993 C268.3800000000001,27.879999999999995 268.34000000000015,27.817999999999984 268.28999999999996,27.745000000000005 C268.22999999999956,27.672000000000025 268.1800000000003,27.616999999999962 268.14999999999964,27.581000000000017 C268.1199999999999,27.54499999999996 268.0600000000004,27.486999999999966 267.97000000000025,27.408999999999992 C267.8800000000001,27.331000000000017 267.8199999999997,27.275999999999954 267.77000000000044,27.245000000000005 C267.72000000000025,27.214000000000055 267.6400000000003,27.153999999999996 267.5100000000002,27.065000000000055 C267.3900000000003,26.976999999999975 267.28999999999996,26.912000000000035 267.22999999999956,26.870000000000005 M267.6199999999999,26.260999999999967 C267.6300000000001,26.25 267.6700000000001,26.22199999999998 267.7399999999998,26.174999999999955 C267.8100000000004,26.128000000000043 267.85000000000036,26.091000000000008 267.8800000000001,26.065000000000055 C267.89999999999964,26.038999999999987 267.9499999999998,26.0 268.0100000000002,25.94799999999998 C268.0699999999997,25.895999999999958 268.1199999999999,25.84400000000005 268.14999999999964,25.79200000000003 C268.1800000000003,25.74000000000001 268.22000000000025,25.67700000000002 268.2600000000002,25.604000000000042 C268.3000000000002,25.53200000000004 268.3299999999999,25.451000000000022 268.35000000000036,25.361999999999966 C268.3599999999997,25.274 268.3699999999999,25.182999999999993 268.3699999999999,25.089000000000055 C268.3699999999999,24.817999999999984 268.28999999999996,24.599000000000046 268.1400000000003,24.432999999999993 C267.97999999999956,24.265999999999963 267.77000000000044,24.182999999999993 267.5,24.182999999999993 C267.25,24.182999999999993 267.03999999999996,24.258000000000038 266.8800000000001,24.408999999999992 C266.72000000000025,24.559999999999945 266.6400000000003,24.75 266.6400000000003,24.979000000000042 C266.6400000000003,25.19799999999998 266.71000000000004,25.40700000000004 266.8599999999997,25.604000000000042 C267.0100000000002,25.80200000000002 267.27000000000044,26.020999999999958 267.6199999999999,26.260999999999967 M276.97999999999956,26.69799999999998 C276.97999999999956,26.937999999999988 276.9499999999998,27.172000000000025 276.8900000000003,27.400999999999954 C276.84000000000015,27.629999999999995 276.7399999999998,27.866999999999962 276.60000000000036,28.111999999999966 C276.46000000000004,28.35699999999997 276.27000000000044,28.567999999999984 276.0500000000002,28.745000000000005 C275.8299999999999,28.922000000000025 275.52999999999975,29.071000000000026 275.14999999999964,29.190000000000055 C274.77999999999975,29.309999999999945 274.3599999999997,29.370000000000005 273.8900000000003,29.370000000000005 L271.6199999999999,29.370000000000005 L271.6199999999999,29.214000000000055 C271.9200000000001,29.192999999999984 272.1199999999999,29.140999999999963 272.1999999999998,29.057999999999993 C272.27999999999975,28.974000000000046 272.3199999999997,28.787000000000035 272.3199999999997,28.495000000000005 L272.3199999999997,24.94799999999998 C272.3199999999997,24.65700000000004 272.28999999999996,24.47199999999998 272.21000000000004,24.394000000000005 C272.1300000000001,24.315000000000055 271.9300000000003,24.260999999999967 271.6199999999999,24.229000000000042 L271.6199999999999,24.07299999999998 L273.77999999999975,24.07299999999998 C274.27000000000044,24.07299999999998 274.6999999999998,24.128000000000043 275.0799999999999,24.236999999999966 C275.46000000000004,24.34699999999998 275.77000000000044,24.486999999999966 276.0,24.658999999999992 C276.2399999999998,24.831000000000017 276.4300000000003,25.037000000000035 276.5799999999999,25.275999999999954 C276.72999999999956,25.515999999999963 276.84000000000015,25.75 276.8900000000003,25.979000000000042 C276.9499999999998,26.208999999999946 276.97999999999956,26.44799999999998 276.97999999999956,26.69799999999998 M276.09000000000015,26.760999999999967 C276.09000000000015,26.53200000000004 276.0699999999997,26.309999999999945 276.02999999999975,26.09699999999998 C275.9899999999998,25.883000000000038 275.89999999999964,25.66999999999996 275.78999999999996,25.456000000000017 C275.6700000000001,25.241999999999962 275.5100000000002,25.059999999999945 275.3199999999997,24.908999999999992 C275.1400000000003,24.758000000000038 274.8900000000003,24.633000000000038 274.59000000000015,24.533999999999992 C274.28999999999996,24.434999999999945 273.9399999999996,24.385999999999967 273.5600000000004,24.385999999999967 C273.3900000000003,24.385999999999967 273.27999999999975,24.40700000000004 273.22000000000025,24.44799999999998 C273.1700000000001,24.49000000000001 273.1400000000003,24.57299999999998 273.1400000000003,24.69799999999998 L273.1400000000003,28.745000000000005 C273.1400000000003,28.870000000000005 273.1700000000001,28.956000000000017 273.22000000000025,29.003000000000043 C273.27999999999975,29.049999999999955 273.3900000000003,29.07299999999998 273.5600000000004,29.07299999999998 C275.25,29.07299999999998 276.09000000000015,28.30200000000002 276.09000000000015,26.760999999999967 M279.9200000000001,26.885999999999967 C279.77999999999975,26.458999999999946 279.6800000000003,26.190000000000055 279.60000000000036,26.081000000000017 C279.52000000000044,25.97199999999998 279.3900000000003,25.90700000000004 279.21000000000004,25.885999999999967 L279.21000000000004,25.775999999999954 L280.84000000000015,25.775999999999954 L280.84000000000015,25.885999999999967 C280.64999999999964,25.91700000000003 280.52999999999975,25.951000000000022 280.46000000000004,25.986999999999966 C280.39999999999964,26.024 280.3699999999999,26.089000000000055 280.3699999999999,26.182999999999993 C280.3699999999999,26.245000000000005 280.4200000000001,26.400999999999954 280.5100000000002,26.650999999999954 L281.1800000000003,28.44799999999998 L281.89999999999964,26.66700000000003 C282.0,26.44799999999998 282.03999999999996,26.270999999999958 282.03999999999996,26.135999999999967 C282.03999999999996,26.07299999999998 282.02000000000044,26.024 281.96000000000004,25.986999999999966 C281.90999999999985,25.951000000000022 281.8199999999997,25.91700000000003 281.6800000000003,25.885999999999967 L281.6800000000003,25.775999999999954 L282.6700000000001,25.775999999999954 L282.6700000000001,25.885999999999967 C282.5799999999999,25.91700000000003 282.52999999999975,25.956000000000017 282.5,26.003000000000043 C282.46000000000004,26.049999999999955 282.40999999999985,26.15700000000004 282.34000000000015,26.32299999999998 L281.22999999999956,29.089000000000055 C281.1300000000001,29.349000000000046 281.0500000000002,29.479000000000042 281.0100000000002,29.479000000000042 C280.97000000000025,29.479000000000042 280.90999999999985,29.36500000000001 280.8199999999997,29.135999999999967 L280.09000000000015,27.245000000000005 L279.1999999999998,29.16700000000003 C279.1099999999997,29.375 279.03999999999996,29.479000000000042 279.0,29.479000000000042 C278.9499999999998,29.479000000000042 278.8900000000003,29.36500000000001 278.78999999999996,29.135999999999967 L277.71000000000004,26.400999999999954 C277.6300000000001,26.192999999999984 277.5600000000004,26.057999999999993 277.5100000000002,25.995000000000005 C277.46000000000004,25.932999999999993 277.3900000000003,25.895999999999958 277.28999999999996,25.885999999999967 L277.28999999999996,25.775999999999954 L278.72999999999956,25.775999999999954 L278.72999999999956,25.885999999999967 C278.5799999999999,25.90700000000004 278.4899999999998,25.934999999999945 278.4300000000003,25.97199999999998 C278.3800000000001,26.008000000000038 278.3599999999997,26.067999999999984 278.3599999999997,26.150999999999954 C278.3599999999997,26.235000000000014 278.3699999999999,26.317999999999984 278.39999999999964,26.400999999999954 L279.1999999999998,28.479000000000042 L279.9200000000001,26.885999999999967 M282.9300000000003,28.57299999999998 C282.9300000000003,28.479000000000042 282.9399999999996,28.394000000000005 282.96000000000004,28.315000000000055 C282.9899999999998,28.236999999999966 283.02000000000044,28.162000000000035 283.0699999999997,28.089000000000055 C283.1300000000001,28.015999999999963 283.1800000000003,27.951000000000022 283.22999999999956,27.894000000000005 C283.27999999999975,27.836000000000013 283.3599999999997,27.775999999999954 283.4499999999998,27.714000000000055 C283.53999999999996,27.650999999999954 283.6199999999999,27.599000000000046 283.6800000000003,27.557999999999993 C283.75,27.515999999999963 283.84000000000015,27.46900000000005 283.96000000000004,27.41700000000003 C284.09000000000015,27.36500000000001 284.1899999999996,27.32299999999998 284.25,27.29200000000003 C284.3199999999997,27.260999999999967 284.4300000000003,27.216000000000008 284.5799999999999,27.158999999999992 C284.72999999999956,27.101999999999975 284.84000000000015,27.057999999999993 284.89999999999964,27.025999999999954 L284.89999999999964,26.54200000000003 C284.89999999999964,26.104000000000042 284.6999999999998,25.885999999999967 284.3100000000004,25.885999999999967 C284.1400000000003,25.885999999999967 284.0,25.924999999999955 283.8900000000003,26.003000000000043 C283.78999999999996,26.081000000000017 283.72999999999956,26.172000000000025 283.72999999999956,26.275999999999954 C283.72999999999956,26.317999999999984 283.7399999999998,26.375 283.75,26.44799999999998 C283.77000000000044,26.520999999999958 283.77999999999975,26.567999999999984 283.77999999999975,26.589000000000055 C283.77999999999975,26.682999999999993 283.7399999999998,26.763000000000034 283.6700000000001,26.831000000000017 C283.59000000000015,26.899 283.5100000000002,26.932999999999993 283.39999999999964,26.932999999999993 C283.3100000000004,26.932999999999993 283.22999999999956,26.899 283.15999999999985,26.831000000000017 C283.09000000000015,26.763000000000034 283.0600000000004,26.682999999999993 283.0600000000004,26.589000000000055 C283.0600000000004,26.339000000000055 283.1899999999996,26.128000000000043 283.4499999999998,25.956000000000017 C283.71000000000004,25.783999999999992 284.02999999999975,25.69799999999998 284.39999999999964,25.69799999999998 C284.8299999999999,25.69799999999998 285.1199999999999,25.80200000000002 285.28999999999996,26.010999999999967 C285.4499999999998,26.21900000000005 285.52999999999975,26.537000000000035 285.52999999999975,26.964000000000055 L285.52999999999975,28.510999999999967 C285.52999999999975,28.687999999999988 285.5500000000002,28.809999999999945 285.5799999999999,28.878000000000043 C285.6199999999999,28.946000000000026 285.6800000000003,28.979000000000042 285.77999999999975,28.979000000000042 C285.8800000000001,28.979000000000042 286.0,28.92700000000002 286.1199999999999,28.82299999999998 L286.1199999999999,29.04200000000003 C285.9899999999998,29.19799999999998 285.8699999999999,29.30499999999995 285.7600000000002,29.361999999999966 C285.65999999999985,29.41999999999996 285.53999999999996,29.44799999999998 285.39999999999964,29.44799999999998 C285.25,29.44799999999998 285.1300000000001,29.400999999999954 285.0600000000004,29.307999999999993 C284.9899999999998,29.214000000000055 284.9399999999996,29.062999999999988 284.9200000000001,28.854000000000042 C284.46000000000004,29.25 284.0699999999997,29.44799999999998 283.7600000000002,29.44799999999998 C283.52000000000044,29.44799999999998 283.3199999999997,29.366999999999962 283.1700000000001,29.206000000000017 C283.0100000000002,29.04499999999996 282.9300000000003,28.833999999999946 282.9300000000003,28.57299999999998 M284.89999999999964,28.370000000000005 L284.89999999999964,27.214000000000055 C284.4200000000001,27.390999999999963 284.09000000000015,27.562999999999988 283.89999999999964,27.729000000000042 C283.71000000000004,27.895999999999958 283.6199999999999,28.09400000000005 283.6199999999999,28.32299999999998 C283.6199999999999,28.54200000000003 283.6700000000001,28.702999999999975 283.77999999999975,28.807999999999993 C283.8800000000001,28.912000000000035 284.0,28.964000000000055 284.1199999999999,28.964000000000055 C284.3000000000002,28.964000000000055 284.4899999999998,28.90700000000004 284.6999999999998,28.79200000000003 C284.77999999999975,28.74000000000001 284.84000000000015,28.687999999999988 284.8599999999997,28.635999999999967 C284.8900000000003,28.583999999999946 284.89999999999964,28.495000000000005 284.89999999999964,28.370000000000005 M288.59000000000015,26.44799999999998 C288.5100000000002,26.44799999999998 288.39999999999964,26.400999999999954 288.28999999999996,26.307999999999993 C288.1700000000001,26.214000000000055 288.09000000000015,26.16700000000003 288.0600000000004,26.16700000000003 C287.9499999999998,26.16700000000003 287.8299999999999,26.245000000000005 287.6999999999998,26.400999999999954 C287.5600000000004,26.557999999999993 287.5,26.702999999999975 287.5,26.839000000000055 L287.5,28.650999999999954 C287.5,28.879999999999995 287.53999999999996,29.033999999999992 287.6300000000001,29.111999999999966 C287.72000000000025,29.190000000000055 287.89999999999964,29.235000000000014 288.1700000000001,29.245000000000005 L288.1700000000001,29.370000000000005 L286.25,29.370000000000005 L286.25,29.245000000000005 C286.5100000000002,29.202999999999975 286.6700000000001,29.150999999999954 286.72000000000025,29.089000000000055 C286.77999999999975,29.025999999999954 286.8100000000004,28.895999999999958 286.8100000000004,28.69799999999998 L286.8100000000004,26.682999999999993 C286.8100000000004,26.504999999999995 286.78999999999996,26.379999999999995 286.75,26.307999999999993 C286.72000000000025,26.235000000000014 286.64999999999964,26.19799999999998 286.53999999999996,26.19799999999998 C286.46000000000004,26.19799999999998 286.3699999999999,26.208999999999946 286.2600000000002,26.229000000000042 L286.2600000000002,26.104000000000042 C286.6899999999996,25.96900000000005 287.0799999999999,25.833999999999946 287.4499999999998,25.69799999999998 L287.5,25.714000000000055 L287.5,26.41700000000003 C287.6899999999996,26.145999999999958 287.8599999999997,25.958999999999946 288.0,25.854000000000042 C288.1300000000001,25.75 288.27999999999975,25.69799999999998 288.4499999999998,25.69799999999998 C288.59000000000015,25.69799999999998 288.6999999999998,25.73199999999997 288.77999999999975,25.799999999999955 C288.85000000000036,25.866999999999962 288.8900000000003,25.96900000000005 288.8900000000003,26.104000000000042 C288.8900000000003,26.208999999999946 288.8599999999997,26.29200000000003 288.8100000000004,26.354000000000042 C288.7600000000002,26.41700000000003 288.6800000000003,26.44799999999998 288.59000000000015,26.44799999999998 M291.5699999999997,24.729000000000042 C291.4899999999998,24.729000000000042 291.4200000000001,24.69799999999998 291.3599999999997,24.635999999999967 C291.28999999999996,24.57299999999998 291.2399999999998,24.504999999999995 291.21000000000004,24.432999999999993 C291.1700000000001,24.360000000000014 291.1199999999999,24.29200000000003 291.03999999999996,24.229000000000042 C290.97000000000025,24.16700000000003 290.8900000000003,24.135999999999967 290.78999999999996,24.135999999999967 C290.4899999999998,24.135999999999967 290.34000000000015,24.370000000000005 290.34000000000015,24.839000000000055 L290.34000000000015,25.775999999999954 L291.3199999999997,25.775999999999954 L291.3199999999997,26.010999999999967 L290.34000000000015,26.010999999999967 L290.34000000000015,28.54200000000003 C290.34000000000015,28.833999999999946 290.3800000000001,29.020999999999958 290.46000000000004,29.104000000000042 C290.5500000000002,29.187999999999988 290.7600000000002,29.235000000000014 291.09000000000015,29.245000000000005 L291.09000000000015,29.370000000000005 L289.0,29.370000000000005 L289.0,29.245000000000005 C289.28999999999996,29.235000000000014 289.47000000000025,29.187999999999988 289.5500000000002,29.104000000000042 C289.6300000000001,29.020999999999958 289.6700000000001,28.833999999999946 289.6700000000001,28.54200000000003 L289.6700000000001,26.010999999999967 L289.0100000000002,26.010999999999967 L289.0100000000002,25.775999999999954 L289.6700000000001,25.775999999999954 C289.6800000000003,25.172000000000025 289.78999999999996,24.706000000000017 290.0,24.378000000000043 C290.22000000000025,24.049999999999955 290.5699999999997,23.885999999999967 291.0699999999997,23.885999999999967 C291.3100000000004,23.885999999999967 291.5100000000002,23.934999999999945 291.6700000000001,24.033999999999992 C291.8199999999997,24.133000000000038 291.89999999999964,24.254999999999995 291.89999999999964,24.400999999999954 C291.89999999999964,24.495000000000005 291.8699999999999,24.57299999999998 291.8100000000004,24.635999999999967 C291.75,24.69799999999998 291.6700000000001,24.729000000000042 291.5699999999997,24.729000000000042 M299.27999999999975,24.79200000000003 L297.22999999999956,29.370000000000005 L297.1199999999999,29.370000000000005 L295.1199999999999,24.979000000000042 L295.1199999999999,28.19799999999998 C295.1199999999999,28.604000000000042 295.1700000000001,28.873000000000047 295.2600000000002,29.003000000000043 C295.3599999999997,29.133000000000038 295.5600000000004,29.202999999999975 295.8699999999999,29.214000000000055 L295.8699999999999,29.370000000000005 L294.0,29.370000000000005 L294.0,29.214000000000055 C294.3199999999997,29.192999999999984 294.52999999999975,29.120000000000005 294.6199999999999,28.995000000000005 C294.71000000000004,28.870000000000005 294.7600000000002,28.604000000000042 294.7600000000002,28.19799999999998 L294.7600000000002,24.94799999999998 C294.7600000000002,24.65700000000004 294.72000000000025,24.46900000000005 294.6300000000001,24.385999999999967 C294.53999999999996,24.30200000000002 294.3299999999999,24.25 294.0100000000002,24.229000000000042 L294.0100000000002,24.07299999999998 L295.59000000000015,24.07299999999998 L297.4300000000003,28.120000000000005 L299.1999999999998,24.07299999999998 L300.78999999999996,24.07299999999998 L300.78999999999996,24.229000000000042 C300.4899999999998,24.260999999999967 300.3000000000002,24.317999999999984 300.22000000000025,24.400999999999954 C300.1400000000003,24.485000000000014 300.1099999999997,24.66700000000003 300.1099999999997,24.94799999999998 L300.1099999999997,28.495000000000005 C300.1099999999997,28.775999999999954 300.14999999999964,28.961000000000013 300.22999999999956,29.049999999999955 C300.3100000000004,29.138000000000034 300.5,29.192999999999984 300.78999999999996,29.214000000000055 L300.78999999999996,29.370000000000005 L298.5600000000004,29.370000000000005 L298.5600000000004,29.214000000000055 C298.8699999999999,29.192999999999984 299.0699999999997,29.135999999999967 299.14999999999964,29.04200000000003 C299.2399999999998,28.94799999999998 299.27999999999975,28.74000000000001 299.27999999999975,28.41700000000003 L299.27999999999975,24.79200000000003 M304.7600000000002,28.94799999999998 L304.7600000000002,29.07299999999998 C304.34000000000015,29.187999999999988 303.97999999999956,29.312999999999988 303.6700000000001,29.44799999999998 L303.6400000000003,29.432999999999993 L303.6199999999999,28.745000000000005 C303.6099999999997,28.765999999999963 303.5699999999997,28.815000000000055 303.4899999999998,28.894000000000005 C303.40999999999985,28.97199999999998 303.3599999999997,29.025999999999954 303.3199999999997,29.057999999999993 C303.28999999999996,29.089000000000055 303.2399999999998,29.135999999999967 303.15999999999985,29.19799999999998 C303.0799999999999,29.260999999999967 303.0100000000002,29.30499999999995 302.96000000000004,29.331000000000017 C302.89999999999964,29.35699999999997 302.8299999999999,29.383000000000038 302.7399999999998,29.408999999999992 C302.64999999999964,29.434999999999945 302.5600000000004,29.44799999999998 302.46000000000004,29.44799999999998 C302.1700000000001,29.44799999999998 301.9399999999996,29.351999999999975 301.7600000000002,29.158999999999992 C301.5799999999999,28.966000000000008 301.5,28.714000000000055 301.5,28.400999999999954 L301.5,26.385999999999967 C301.5,26.208999999999946 301.46000000000004,26.083999999999946 301.3900000000003,26.010999999999967 C301.3299999999999,25.937999999999988 301.1899999999996,25.895999999999958 301.0,25.885999999999967 L301.0,25.775999999999954 L302.1700000000001,25.775999999999954 L302.1700000000001,28.370000000000005 C302.1700000000001,28.525999999999954 302.22999999999956,28.663999999999987 302.34000000000015,28.783999999999992 C302.4499999999998,28.903999999999996 302.5799999999999,28.964000000000055 302.72999999999956,28.964000000000055 C302.78999999999996,28.964000000000055 302.8599999999997,28.956000000000017 302.9399999999996,28.940000000000055 C303.02000000000044,28.924999999999955 303.1099999999997,28.895999999999958 303.21000000000004,28.854000000000042 C303.3199999999997,28.812999999999988 303.40999999999985,28.741999999999962 303.47999999999956,28.644000000000005 C303.5500000000002,28.54499999999996 303.59000000000015,28.422000000000025 303.59000000000015,28.275999999999954 L303.59000000000015,26.400999999999954 C303.59000000000015,26.214000000000055 303.5500000000002,26.086000000000013 303.47999999999956,26.019000000000005 C303.40999999999985,25.951000000000022 303.25,25.912000000000035 303.0,25.900999999999954 L303.0,25.775999999999954 L304.2600000000002,25.775999999999954 L304.2600000000002,28.495000000000005 C304.2600000000002,28.682999999999993 304.28999999999996,28.80499999999995 304.3599999999997,28.861999999999966 C304.4200000000001,28.91999999999996 304.53999999999996,28.94799999999998 304.72999999999956,28.94799999999998 L304.7600000000002,28.94799999999998 M306.96000000000004,25.854000000000042 C306.97999999999956,25.854000000000042 307.02000000000044,25.827999999999975 307.09000000000015,25.775999999999954 L307.1800000000003,25.775999999999954 L307.21000000000004,26.854000000000042 L307.09000000000015,26.854000000000042 C307.0100000000002,26.5 306.89999999999964,26.248000000000047 306.7600000000002,26.09699999999998 C306.6300000000001,25.946000000000026 306.4399999999996,25.870000000000005 306.21000000000004,25.870000000000005 C306.03999999999996,25.870000000000005 305.8900000000003,25.922000000000025 305.77999999999975,26.025999999999954 C305.65999999999985,26.129999999999995 305.6099999999997,26.260999999999967 305.6099999999997,26.41700000000003 C305.6099999999997,26.645999999999958 305.72000000000025,26.827999999999975 305.9499999999998,26.964000000000055 L306.8100000000004,27.479000000000042 C307.0500000000002,27.625 307.22000000000025,27.770999999999958 307.3199999999997,27.91700000000003 C307.4300000000003,28.062999999999988 307.47999999999956,28.235000000000014 307.47999999999956,28.432999999999993 C307.47999999999956,28.702999999999975 307.3699999999999,28.940000000000055 307.1400000000003,29.144000000000005 C306.9200000000001,29.34699999999998 306.65999999999985,29.44799999999998 306.3599999999997,29.44799999999998 C306.22000000000025,29.44799999999998 306.03999999999996,29.424999999999955 305.8199999999997,29.378000000000043 C305.59000000000015,29.331000000000017 305.4499999999998,29.307999999999993 305.39999999999964,29.307999999999993 C305.3199999999997,29.307999999999993 305.2600000000002,29.339000000000055 305.21000000000004,29.400999999999954 L305.1099999999997,29.400999999999954 L305.1099999999997,28.150999999999954 L305.25,28.150999999999954 C305.3299999999999,28.525999999999954 305.4300000000003,28.79200000000003 305.53999999999996,28.94799999999998 C305.71000000000004,29.16700000000003 305.9499999999998,29.275999999999954 306.2600000000002,29.275999999999954 C306.46000000000004,29.275999999999954 306.6199999999999,29.224000000000046 306.7399999999998,29.120000000000005 C306.8599999999997,29.015999999999963 306.9200000000001,28.875 306.9200000000001,28.69799999999998 C306.9200000000001,28.458999999999946 306.77999999999975,28.260999999999967 306.5,28.104000000000042 L306.03999999999996,27.839000000000055 C305.6999999999998,27.640999999999963 305.46000000000004,27.456000000000017 305.3199999999997,27.283999999999992 C305.1800000000003,27.111999999999966 305.1099999999997,26.912000000000035 305.1099999999997,26.682999999999993 C305.1099999999997,26.390999999999963 305.21000000000004,26.153999999999996 305.40999999999985,25.97199999999998 C305.6099999999997,25.788999999999987 305.8800000000001,25.69799999999998 306.1999999999998,25.69799999999998 C306.3699999999999,25.69799999999998 306.52999999999975,25.724000000000046 306.6800000000003,25.775999999999954 C306.84000000000015,25.827999999999975 306.9300000000003,25.854000000000042 306.96000000000004,25.854000000000042 M308.25,26.229000000000042 C308.1199999999999,26.229000000000042 308.0100000000002,26.235000000000014 307.89999999999964,26.245000000000005 L307.89999999999964,26.135999999999967 C308.27999999999975,26.03200000000004 308.6899999999996,25.885999999999967 309.14999999999964,25.69799999999998 L309.1800000000003,25.714000000000055 L309.1800000000003,28.557999999999993 C309.1800000000003,28.839000000000055 309.22000000000025,29.019000000000005 309.28999999999996,29.09699999999998 C309.35000000000036,29.174999999999955 309.52000000000044,29.224000000000046 309.77999999999975,29.245000000000005 L309.77999999999975,29.370000000000005 L307.8699999999999,29.370000000000005 L307.8699999999999,29.245000000000005 C308.14999999999964,29.235000000000014 308.3299999999999,29.187999999999988 308.39999999999964,29.104000000000042 C308.47999999999956,29.020999999999958 308.5100000000002,28.839000000000055 308.5100000000002,28.557999999999993 L308.5100000000002,26.69799999999998 C308.5100000000002,26.520999999999958 308.4899999999998,26.399 308.4499999999998,26.331000000000017 C308.40999999999985,26.263000000000034 308.34000000000015,26.229000000000042 308.25,26.229000000000042 M308.77999999999975,23.900999999999954 C308.8900000000003,23.900999999999954 308.9899999999998,23.942999999999984 309.0699999999997,24.025999999999954 C309.15999999999985,24.110000000000014 309.1999999999998,24.208999999999946 309.1999999999998,24.32299999999998 C309.1999999999998,24.437999999999988 309.15999999999985,24.533999999999992 309.0699999999997,24.611999999999966 C308.9899999999998,24.690000000000055 308.8900000000003,24.729000000000042 308.77999999999975,24.729000000000042 C308.65999999999985,24.729000000000042 308.5699999999997,24.687999999999988 308.4899999999998,24.604000000000042 C308.40999999999985,24.520999999999958 308.3699999999999,24.424999999999955 308.3699999999999,24.315000000000055 C308.3699999999999,24.206000000000017 308.40999999999985,24.110000000000014 308.4899999999998,24.025999999999954 C308.5699999999997,23.942999999999984 308.65999999999985,23.900999999999954 308.77999999999975,23.900999999999954 M310.1700000000001,27.66700000000003 C310.1700000000001,27.07299999999998 310.34000000000015,26.59699999999998 310.6899999999996,26.236999999999966 C311.03999999999996,25.878000000000043 311.4499999999998,25.69799999999998 311.9200000000001,25.69799999999998 C312.25,25.69799999999998 312.53999999999996,25.778999999999996 312.77000000000044,25.940000000000055 C313.0,26.101999999999975 313.1199999999999,26.297000000000025 313.1199999999999,26.525999999999954 C313.1199999999999,26.610000000000014 313.0799999999999,26.684999999999945 313.0100000000002,26.753000000000043 C312.9399999999996,26.821000000000026 312.85000000000036,26.854000000000042 312.75,26.854000000000042 C312.5699999999997,26.854000000000042 312.4499999999998,26.735000000000014 312.3900000000003,26.495000000000005 L312.34000000000015,26.32299999999998 C312.3000000000002,26.16700000000003 312.25,26.062999999999988 312.1800000000003,26.010999999999967 C312.1199999999999,25.958999999999946 312.02000000000044,25.932999999999993 311.8699999999999,25.932999999999993 C311.5500000000002,25.932999999999993 311.28999999999996,26.059999999999945 311.09000000000015,26.315000000000055 C310.8900000000003,26.571000000000026 310.78999999999996,26.90700000000004 310.78999999999996,27.32299999999998 C310.78999999999996,27.770999999999958 310.90999999999985,28.140999999999963 311.1400000000003,28.432999999999993 C311.3699999999999,28.724000000000046 311.65999999999985,28.870000000000005 312.02999999999975,28.870000000000005 C312.25,28.870000000000005 312.4399999999996,28.812999999999988 312.60000000000036,28.69799999999998 C312.7600000000002,28.583999999999946 312.9300000000003,28.390999999999963 313.1199999999999,28.120000000000005 L313.22999999999956,28.182999999999993 C313.1800000000003,28.297000000000025 313.1300000000001,28.388000000000034 313.10000000000036,28.456000000000017 C313.0600000000004,28.524 312.9899999999998,28.628000000000043 312.8900000000003,28.769000000000005 C312.77999999999975,28.908999999999992 312.6800000000003,29.020999999999958 312.5799999999999,29.104000000000042 C312.47999999999956,29.187999999999988 312.35000000000036,29.265999999999963 312.1899999999996,29.339000000000055 C312.02999999999975,29.412000000000035 311.8599999999997,29.44799999999998 311.6800000000003,29.44799999999998 C311.25,29.44799999999998 310.8800000000001,29.28200000000004 310.60000000000036,28.94799999999998 C310.3100000000004,28.61500000000001 310.1700000000001,28.187999999999988 310.1700000000001,27.66700000000003 M314.5100000000002,28.57299999999998 C314.6300000000001,28.57299999999998 314.72999999999956,28.616999999999962 314.8199999999997,28.706000000000017 C314.89999999999964,28.79499999999996 314.9499999999998,28.900999999999954 314.9499999999998,29.025999999999954 C314.9499999999998,29.140999999999963 314.89999999999964,29.241999999999962 314.8199999999997,29.331000000000017 C314.72999999999956,29.41999999999996 314.6199999999999,29.464000000000055 314.5,29.464000000000055 C314.3800000000001,29.464000000000055 314.27999999999975,29.41999999999996 314.1999999999998,29.331000000000017 C314.1199999999999,29.241999999999962 314.0699999999997,29.140999999999963 314.0699999999997,29.025999999999954 C314.0699999999997,28.900999999999954 314.1199999999999,28.79499999999996 314.21000000000004,28.706000000000017 C314.3000000000002,28.616999999999962 314.39999999999964,28.57299999999998 314.5100000000002,28.57299999999998" />
</svg>
