<?xml version="1.0" encoding="UTF-8" standalone="yes"?>
<svg width="256.0px" height="256.0px" xmlns="http://www.w3.org/2000/svg" xmlns:xlink="http://www.w3.org/1999/xlink" version="1.2" baseProfile="tiny">
<path d="M7.5779999999999745,30.79200000000003 C7.442999999999984,30.69799999999998 7.298999999999978,30.591000000000008 7.148000000000025,30.47199999999998 C6.997000000000014,30.351999999999975 6.8279999999999745,30.184999999999945 6.6410000000000196,29.97199999999998 C6.4529999999999745,29.758000000000038 6.286000000000001,29.53200000000004 6.1410000000000196,29.29200000000003 C5.9950000000000045,29.05200000000002 5.875,28.760999999999967 5.781000000000006,28.41700000000003 C5.687999999999988,28.07299999999998 5.6410000000000196,27.71900000000005 5.6410000000000196,27.354000000000042 C5.6410000000000196,26.96900000000005 5.687999999999988,26.604000000000042 5.781000000000006,26.260999999999967 C5.875,25.91700000000003 5.990000000000009,25.633000000000038 6.125,25.408999999999992 C6.259999999999991,25.184999999999945 6.430000000000007,24.966000000000008 6.632999999999981,24.753000000000043 C6.836000000000013,24.538999999999987 7.0049999999999955,24.383000000000038 7.1410000000000196,24.283999999999992 C7.2760000000000105,24.184999999999945 7.427000000000021,24.077999999999975 7.593999999999994,23.964000000000055 L7.6720000000000255,24.089000000000055 C7.442999999999984,24.287000000000035 7.2549999999999955,24.461000000000013 7.1089999999999804,24.611999999999966 C6.963999999999999,24.763000000000034 6.822999999999979,24.964000000000055 6.687999999999988,25.214000000000055 C6.552000000000021,25.464000000000055 6.456000000000017,25.760999999999967 6.398000000000025,26.104000000000042 C6.341000000000008,26.44799999999998 6.312000000000012,26.860000000000014 6.312000000000012,27.339000000000055 C6.312000000000012,27.827999999999975 6.341000000000008,28.253000000000043 6.398000000000025,28.611999999999966 C6.456000000000017,28.97199999999998 6.552000000000021,29.275999999999954 6.687999999999988,29.525999999999954 C6.822999999999979,29.775999999999954 6.963999999999999,29.98199999999997 7.1089999999999804,30.144000000000005 C7.2549999999999955,30.30499999999995 7.442999999999984,30.474000000000046 7.6720000000000255,30.650999999999954 L7.5779999999999745,30.79200000000003 M8.10899999999998,27.66700000000003 C8.10899999999998,27.07299999999998 8.283999999999992,26.59699999999998 8.632999999999981,26.236999999999966 C8.982000000000028,25.878000000000043 9.39100000000002,25.69799999999998 9.85899999999998,25.69799999999998 C10.192999999999984,25.69799999999998 10.476999999999975,25.778999999999996 10.711000000000013,25.940000000000055 C10.944999999999993,26.101999999999975 11.062000000000012,26.297000000000025 11.062000000000012,26.525999999999954 C11.062000000000012,26.610000000000014 11.02600000000001,26.684999999999945 10.952999999999975,26.753000000000043 C10.879999999999995,26.821000000000026 10.791999999999973,26.854000000000042 10.687999999999988,26.854000000000042 C10.509999999999991,26.854000000000042 10.39100000000002,26.735000000000014 10.327999999999975,26.495000000000005 L10.281000000000006,26.32299999999998 C10.240000000000009,26.16700000000003 10.187999999999988,26.062999999999988 10.125,26.010999999999967 C10.062000000000012,25.958999999999946 9.958000000000027,25.932999999999993 9.812000000000012,25.932999999999993 C9.490000000000009,25.932999999999993 9.228999999999985,26.059999999999945 9.031000000000006,26.315000000000055 C8.833000000000027,26.571000000000026 8.73399999999998,26.90700000000004 8.73399999999998,27.32299999999998 C8.73399999999998,27.770999999999958 8.84899999999999,28.140999999999963 9.077999999999975,28.432999999999993 C9.307000000000016,28.724000000000046 9.603999999999985,28.870000000000005 9.968999999999994,28.870000000000005 C10.187999999999988,28.870000000000005 10.377999999999986,28.812999999999988 10.538999999999987,28.69799999999998 C10.701000000000022,28.583999999999946 10.875,28.390999999999963 11.062000000000012,28.120000000000005 L11.172000000000025,28.182999999999993 C11.120000000000005,28.297000000000025 11.076000000000022,28.388000000000034 11.038999999999987,28.456000000000017 C11.002999999999986,28.524 10.932000000000016,28.628000000000043 10.827999999999975,28.769000000000005 C10.72399999999999,28.908999999999992 10.622000000000014,29.020999999999958 10.523000000000025,29.104000000000042 C10.423999999999978,29.187999999999988 10.293999999999983,29.265999999999963 10.132999999999981,29.339000000000055 C9.971000000000004,29.412000000000035 9.802000000000021,29.44799999999998 9.625,29.44799999999998 C9.187999999999988,29.44799999999998 8.826000000000022,29.28200000000004 8.538999999999987,28.94799999999998 C8.252999999999986,28.61500000000001 8.10899999999998,28.187999999999988 8.10899999999998,27.66700000000003 M11.781000000000006,23.964000000000055 C11.927000000000021,24.047000000000025 12.072999999999979,24.149 12.218999999999994,24.269000000000005 C12.365000000000009,24.388000000000034 12.533999999999992,24.55499999999995 12.726999999999975,24.769000000000005 C12.918999999999983,24.98199999999997 13.086000000000013,25.211000000000013 13.226999999999975,25.456000000000017 C13.367000000000019,25.701000000000022 13.487000000000023,25.991999999999962 13.586000000000013,26.331000000000017 C13.685000000000002,26.66999999999996 13.73399999999998,27.025999999999954 13.73399999999998,27.400999999999954 C13.73399999999998,27.775999999999954 13.685000000000002,28.135999999999967 13.586000000000013,28.479000000000042 C13.487000000000023,28.82299999999998 13.372000000000014,29.110000000000014 13.242000000000019,29.339000000000055 C13.112000000000023,29.567999999999984 12.942999999999984,29.787000000000035 12.73399999999998,29.995000000000005 C12.52600000000001,30.202999999999975 12.357000000000028,30.360000000000014 12.226999999999975,30.464000000000055 C12.096000000000004,30.567999999999984 11.942999999999984,30.67700000000002 11.76600000000002,30.79200000000003 L11.687999999999988,30.650999999999954 C11.927000000000021,30.464000000000055 12.120000000000005,30.29200000000003 12.26600000000002,30.135999999999967 C12.411000000000001,29.979000000000042 12.548999999999978,29.778999999999996 12.680000000000007,29.533999999999992 C12.810000000000002,29.288999999999987 12.903999999999996,28.995000000000005 12.961000000000013,28.650999999999954 C13.017999999999972,28.307999999999993 13.047000000000025,27.895999999999958 13.047000000000025,27.41700000000003 C13.047000000000025,26.92700000000002 13.017999999999972,26.503000000000043 12.961000000000013,26.144000000000005 C12.903999999999996,25.783999999999992 12.810000000000002,25.476999999999975 12.680000000000007,25.22199999999998 C12.548999999999978,24.966000000000008 12.411000000000001,24.760999999999967 12.26600000000002,24.604000000000042 C12.120000000000005,24.44799999999998 11.927000000000021,24.275999999999954 11.687999999999988,24.089000000000055 L11.781000000000006,23.964000000000055 M17.562000000000012,24.635999999999967 C17.458000000000027,24.635999999999967 17.26600000000002,24.692999999999984 16.98399999999998,24.807999999999993 L16.98399999999998,24.69799999999998 L18.406000000000006,23.964000000000055 L18.468999999999994,23.979000000000042 L18.468999999999994,28.775999999999954 C18.468999999999994,28.974000000000046 18.517999999999972,29.101999999999975 18.61700000000002,29.158999999999992 C18.716000000000008,29.216000000000008 18.922000000000025,29.245000000000005 19.23399999999998,29.245000000000005 L19.23399999999998,29.370000000000005 L17.031000000000006,29.370000000000005 L17.031000000000006,29.245000000000005 C17.333000000000027,29.235000000000014 17.536,29.190000000000055 17.64100000000002,29.111999999999966 C17.745000000000005,29.033999999999992 17.797000000000025,28.870000000000005 17.797000000000025,28.620000000000005 L17.797000000000025,25.010999999999967 C17.797000000000025,24.760999999999967 17.718999999999994,24.635999999999967 17.562000000000012,24.635999999999967 M20.547000000000025,29.54200000000003 L20.531000000000006,29.385999999999967 C21.13499999999999,29.28200000000004 21.648000000000025,29.024 22.069999999999993,28.611999999999966 C22.49200000000002,28.201000000000022 22.786,27.66700000000003 22.952999999999975,27.010999999999967 C22.557000000000016,27.32299999999998 22.156000000000006,27.479000000000042 21.75,27.479000000000042 C21.32299999999998,27.479000000000042 20.976999999999975,27.327999999999975 20.711000000000013,27.025999999999954 C20.444999999999993,26.724000000000046 20.312000000000012,26.333999999999946 20.312000000000012,25.854000000000042 C20.312000000000012,25.312999999999988 20.471000000000004,24.860000000000014 20.788999999999987,24.495000000000005 C21.107000000000028,24.129999999999995 21.504999999999995,23.94799999999998 21.98399999999998,23.94799999999998 C22.51600000000002,23.94799999999998 22.94799999999998,24.158999999999992 23.281000000000006,24.581000000000017 C23.61500000000001,25.003000000000043 23.781000000000006,25.547000000000025 23.781000000000006,26.214000000000055 C23.781000000000006,26.432999999999993 23.762999999999977,26.653999999999996 23.726999999999975,26.878000000000043 C23.689999999999998,27.101999999999975 23.603999999999985,27.366999999999962 23.468999999999994,27.674999999999955 C23.333000000000027,27.98199999999997 23.153999999999996,28.254999999999995 22.930000000000007,28.495000000000005 C22.706000000000017,28.735000000000014 22.39100000000002,28.952999999999975 21.98399999999998,29.150999999999954 C21.577999999999975,29.349000000000046 21.09899999999999,29.479000000000042 20.547000000000025,29.54200000000003 M22.047000000000025,27.120000000000005 C22.15100000000001,27.120000000000005 22.26600000000002,27.10699999999997 22.39100000000002,27.081000000000017 C22.51600000000002,27.05499999999995 22.642999999999972,26.991999999999962 22.773000000000025,26.894000000000005 C22.903999999999996,26.79499999999996 22.968999999999994,26.672000000000025 22.968999999999994,26.525999999999954 L22.968999999999994,26.214000000000055 C22.968999999999994,24.860000000000014 22.620000000000005,24.182999999999993 21.922000000000025,24.182999999999993 C21.754999999999995,24.182999999999993 21.612000000000023,24.226999999999975 21.49200000000002,24.315000000000055 C21.372000000000014,24.403999999999996 21.283999999999992,24.520999999999958 21.226999999999975,24.66700000000003 C21.168999999999983,24.812999999999988 21.125,24.958999999999946 21.093999999999994,25.104000000000042 C21.062000000000012,25.25 21.047000000000025,25.40700000000004 21.047000000000025,25.57299999999998 C21.047000000000025,26.05200000000002 21.137999999999977,26.42999999999995 21.319999999999993,26.706000000000017 C21.502999999999986,26.98199999999997 21.745000000000005,27.120000000000005 22.047000000000025,27.120000000000005 M26.125,29.479000000000042 C25.583000000000027,29.479000000000042 25.148000000000025,29.265999999999963 24.819999999999993,28.839000000000055 C24.49200000000002,28.412000000000035 24.327999999999975,27.84400000000005 24.327999999999975,27.135999999999967 C24.327999999999975,26.91700000000003 24.351999999999975,26.692999999999984 24.398000000000025,26.464000000000055 C24.444999999999993,26.235000000000014 24.538999999999987,25.97199999999998 24.680000000000007,25.674999999999955 C24.819999999999993,25.378000000000043 25.00799999999998,25.111999999999966 25.24200000000002,24.878000000000043 C25.476999999999975,24.644000000000005 25.798999999999978,24.434999999999945 26.211000000000013,24.253000000000043 C26.622000000000014,24.071000000000026 27.09899999999999,23.952999999999975 27.64100000000002,23.900999999999954 L27.656000000000006,24.025999999999954 C27.021000000000015,24.129999999999995 26.49200000000002,24.385999999999967 26.069999999999993,24.79200000000003 C25.648000000000025,25.19799999999998 25.379999999999995,25.702999999999975 25.26600000000002,26.307999999999993 C25.51600000000002,26.162000000000035 25.706000000000017,26.067999999999984 25.836000000000013,26.025999999999954 C25.966000000000008,25.985000000000014 26.120000000000005,25.964000000000055 26.297000000000025,25.964000000000055 C26.76600000000002,25.964000000000055 27.137999999999977,26.111999999999966 27.413999999999987,26.408999999999992 C27.689999999999998,26.706000000000017 27.827999999999975,27.104000000000042 27.827999999999975,27.604000000000042 C27.827999999999975,28.15700000000004 27.668999999999983,28.60699999999997 27.351999999999975,28.956000000000017 C27.033999999999992,29.30499999999995 26.625,29.479000000000042 26.125,29.479000000000042 M26.0,26.32299999999998 C25.63499999999999,26.32299999999998 25.387999999999977,26.400999999999954 25.25799999999998,26.557999999999993 C25.127999999999986,26.714000000000055 25.062000000000012,26.94799999999998 25.062000000000012,27.260999999999967 C25.062000000000012,27.875 25.166999999999973,28.360000000000014 25.375,28.714000000000055 C25.583000000000027,29.067999999999984 25.85899999999998,29.245000000000005 26.202999999999975,29.245000000000005 C26.495000000000005,29.245000000000005 26.714,29.128000000000043 26.85899999999998,28.894000000000005 C27.004999999999995,28.658999999999992 27.077999999999975,28.32299999999998 27.077999999999975,27.885999999999967 C27.077999999999975,27.385999999999967 26.98399999999998,27.0 26.797000000000025,26.729000000000042 C26.60899999999998,26.458999999999946 26.343999999999994,26.32299999999998 26.0,26.32299999999998 M30.375,26.400999999999954 C30.86500000000001,26.754999999999995 31.194999999999993,27.05200000000002 31.36700000000002,27.29200000000003 C31.538999999999987,27.53200000000004 31.625,27.807999999999993 31.625,28.120000000000005 C31.625,28.537000000000035 31.482000000000028,28.866999999999962 31.194999999999993,29.111999999999966 C30.908999999999992,29.35699999999997 30.52600000000001,29.479000000000042 30.047000000000025,29.479000000000042 C29.589,29.479000000000042 29.216000000000008,29.35699999999997 28.930000000000007,29.111999999999966 C28.642999999999972,28.866999999999962 28.5,28.547000000000025 28.5,28.150999999999954 C28.5,27.879999999999995 28.564999999999998,27.653999999999996 28.694999999999993,27.47199999999998 C28.826000000000022,27.288999999999987 29.10899999999998,27.037000000000035 29.547000000000025,26.714000000000055 C29.120000000000005,26.339000000000055 28.846000000000004,26.062999999999988 28.726999999999975,25.885999999999967 C28.607000000000028,25.708999999999946 28.547000000000025,25.49000000000001 28.547000000000025,25.229000000000042 C28.547000000000025,24.86500000000001 28.689999999999998,24.559999999999945 28.976999999999975,24.315000000000055 C29.262999999999977,24.071000000000026 29.629999999999995,23.94799999999998 30.077999999999975,23.94799999999998 C30.47399999999999,23.94799999999998 30.798999999999978,24.05499999999995 31.055000000000007,24.269000000000005 C31.310000000000002,24.48199999999997 31.437999999999988,24.760999999999967 31.437999999999988,25.104000000000042 C31.437999999999988,25.375 31.35899999999998,25.604000000000042 31.202999999999975,25.79200000000003 C31.047000000000025,25.979000000000042 30.771000000000015,26.182999999999993 30.375,26.400999999999954 M29.75,26.870000000000005 C29.521000000000015,27.057999999999993 29.35899999999998,27.241999999999962 29.26600000000002,27.424999999999955 C29.172000000000025,27.60699999999997 29.125,27.827999999999975 29.125,28.089000000000055 C29.125,28.432999999999993 29.216000000000008,28.711000000000013 29.398000000000025,28.924999999999955 C29.581000000000017,29.138000000000034 29.82299999999998,29.245000000000005 30.125,29.245000000000005 C30.38499999999999,29.245000000000005 30.596000000000004,29.163999999999987 30.75799999999998,29.003000000000043 C30.918999999999983,28.841000000000008 31.0,28.629999999999995 31.0,28.370000000000005 C31.0,28.287000000000035 30.99200000000002,28.206000000000017 30.976999999999975,28.128000000000043 C30.961000000000013,28.049999999999955 30.942999999999984,27.985000000000014 30.922000000000025,27.932999999999993 C30.90100000000001,27.879999999999995 30.862000000000023,27.817999999999984 30.805000000000007,27.745000000000005 C30.747000000000014,27.672000000000025 30.702999999999975,27.616999999999962 30.672000000000025,27.581000000000017 C30.64100000000002,27.54499999999996 30.581000000000017,27.486999999999966 30.49200000000002,27.408999999999992 C30.403999999999996,27.331000000000017 30.336000000000013,27.275999999999954 30.288999999999987,27.245000000000005 C30.24200000000002,27.214000000000055 30.156000000000006,27.153999999999996 30.031000000000006,27.065000000000055 C29.906000000000006,26.976999999999975 29.812000000000012,26.912000000000035 29.75,26.870000000000005 M30.14100000000002,26.260999999999967 C30.15100000000001,26.25 30.189999999999998,26.22199999999998 30.25799999999998,26.174999999999955 C30.326000000000022,26.128000000000043 30.372000000000014,26.091000000000008 30.398000000000025,26.065000000000055 C30.423999999999978,26.038999999999987 30.468999999999994,26.0 30.531000000000006,25.94799999999998 C30.593999999999994,25.895999999999958 30.64100000000002,25.84400000000005 30.672000000000025,25.79200000000003 C30.702999999999975,25.74000000000001 30.74000000000001,25.67700000000002 30.781000000000006,25.604000000000042 C30.82299999999998,25.53200000000004 30.851999999999975,25.451000000000022 30.86700000000002,25.361999999999966 C30.88299999999998,25.274 30.89100000000002,25.182999999999993 30.89100000000002,25.089000000000055 C30.89100000000002,24.817999999999984 30.812000000000012,24.599000000000046 30.656000000000006,24.432999999999993 C30.5,24.265999999999963 30.286,24.182999999999993 30.01600000000002,24.182999999999993 C29.76600000000002,24.182999999999993 29.560000000000002,24.258000000000038 29.398000000000025,24.408999999999992 C29.237000000000023,24.559999999999945 29.156000000000006,24.75 29.156000000000006,24.979000000000042 C29.156000000000006,25.19799999999998 29.232000000000028,25.40700000000004 29.38299999999998,25.604000000000042 C29.533999999999992,25.80200000000002 29.786,26.020999999999958 30.14100000000002,26.260999999999967 M39.5,26.69799999999998 C39.5,26.937999999999988 39.471000000000004,27.172000000000025 39.41399999999999,27.400999999999954 C39.35700000000003,27.629999999999995 39.25799999999998,27.866999999999962 39.11700000000002,28.111999999999966 C38.976999999999975,28.35699999999997 38.79399999999998,28.567999999999984 38.56999999999999,28.745000000000005 C38.346000000000004,28.922000000000025 38.047000000000025,29.071000000000026 37.672000000000025,29.190000000000055 C37.297000000000025,29.309999999999945 36.875,29.370000000000005 36.406000000000006,29.370000000000005 L34.14100000000002,29.370000000000005 L34.14100000000002,29.214000000000055 C34.442999999999984,29.192999999999984 34.63499999999999,29.140999999999963 34.718999999999994,29.057999999999993 C34.80200000000002,28.974000000000046 34.843999999999994,28.787000000000035 34.843999999999994,28.495000000000005 L34.843999999999994,24.94799999999998 C34.843999999999994,24.65700000000004 34.80500000000001,24.47199999999998 34.726999999999975,24.394000000000005 C34.648000000000025,24.315000000000055 34.452999999999975,24.260999999999967 34.14100000000002,24.229000000000042 L34.14100000000002,24.07299999999998 L36.297000000000025,24.07299999999998 C36.786,24.07299999999998 37.221000000000004,24.128000000000043 37.601999999999975,24.236999999999966 C37.98200000000003,24.34699999999998 38.28899999999999,24.486999999999966 38.523000000000025,24.658999999999992 C38.75799999999998,24.831000000000017 38.95100000000002,25.037000000000035 39.101999999999975,25.275999999999954 C39.252999999999986,25.515999999999963 39.35700000000003,25.75 39.41399999999999,25.979000000000042 C39.471000000000004,26.208999999999946 39.5,26.44799999999998 39.5,26.69799999999998 M38.60899999999998,26.760999999999967 C38.60899999999998,26.53200000000004 38.589,26.309999999999945 38.547000000000025,26.09699999999998 C38.504999999999995,25.883000000000038 38.42399999999998,25.66999999999996 38.30500000000001,25.456000000000017 C38.185,25.241999999999962 38.031000000000006,25.059999999999945 37.843999999999994,24.908999999999992 C37.656000000000006,24.758000000000038 37.411,24.633000000000038 37.10899999999998,24.533999999999992 C36.807000000000016,24.434999999999945 36.464,24.385999999999967 36.077999999999975,24.385999999999967 C35.911,24.385999999999967 35.79899999999998,24.40700000000004 35.74200000000002,24.44799999999998 C35.685,24.49000000000001 35.656000000000006,24.57299999999998 35.656000000000006,24.69799999999998 L35.656000000000006,28.745000000000005 C35.656000000000006,28.870000000000005 35.685,28.956000000000017 35.74200000000002,29.003000000000043 C35.79899999999998,29.049999999999955 35.911,29.07299999999998 36.077999999999975,29.07299999999998 C37.76600000000002,29.07299999999998 38.60899999999998,28.30200000000002 38.60899999999998,26.760999999999967 M42.43799999999999,26.885999999999967 C42.30200000000002,26.458999999999946 42.19499999999999,26.190000000000055 42.11700000000002,26.081000000000017 C42.03899999999999,25.97199999999998 41.911,25.90700000000004 41.73399999999998,25.885999999999967 L41.73399999999998,25.775999999999954 L43.35899999999998,25.775999999999954 L43.35899999999998,25.885999999999967 C43.172000000000025,25.91700000000003 43.047000000000025,25.951000000000022 42.98399999999998,25.986999999999966 C42.922000000000025,26.024 42.89100000000002,26.089000000000055 42.89100000000002,26.182999999999993 C42.89100000000002,26.245000000000005 42.93799999999999,26.400999999999954 43.031000000000006,26.650999999999954 L43.702999999999975,28.44799999999998 L44.422000000000025,26.66700000000003 C44.51600000000002,26.44799999999998 44.56200000000001,26.270999999999958 44.56200000000001,26.135999999999967 C44.56200000000001,26.07299999999998 44.536,26.024 44.48399999999998,25.986999999999966 C44.432000000000016,25.951000000000022 44.339,25.91700000000003 44.202999999999975,25.885999999999967 L44.202999999999975,25.775999999999954 L45.18799999999999,25.775999999999954 L45.18799999999999,25.885999999999967 C45.103999999999985,25.91700000000003 45.047000000000025,25.956000000000017 45.01600000000002,26.003000000000043 C44.98399999999998,26.049999999999955 44.932000000000016,26.15700000000004 44.85899999999998,26.32299999999998 L43.75,29.089000000000055 C43.646000000000015,29.349000000000046 43.57299999999998,29.479000000000042 43.531000000000006,29.479000000000042 C43.49000000000001,29.479000000000042 43.42700000000002,29.36500000000001 43.343999999999994,29.135999999999967 L42.60899999999998,27.245000000000005 L41.718999999999994,29.16700000000003 C41.625,29.375 41.557000000000016,29.479000000000042 41.51600000000002,29.479000000000042 C41.47399999999999,29.479000000000042 41.406000000000006,29.36500000000001 41.31200000000001,29.135999999999967 L40.23399999999998,26.400999999999954 C40.15100000000001,26.192999999999984 40.08300000000003,26.057999999999993 40.031000000000006,25.995000000000005 C39.978999999999985,25.932999999999993 39.906000000000006,25.895999999999958 39.81200000000001,25.885999999999967 L39.81200000000001,25.775999999999954 L41.25,25.775999999999954 L41.25,25.885999999999967 C41.103999999999985,25.90700000000004 41.004999999999995,25.934999999999945 40.952999999999975,25.97199999999998 C40.90100000000001,26.008000000000038 40.875,26.067999999999984 40.875,26.150999999999954 C40.875,26.235000000000014 40.89100000000002,26.317999999999984 40.922000000000025,26.400999999999954 L41.718999999999994,28.479000000000042 L42.43799999999999,26.885999999999967 M45.452999999999975,28.57299999999998 C45.452999999999975,28.479000000000042 45.464,28.394000000000005 45.48399999999998,28.315000000000055 C45.504999999999995,28.236999999999966 45.54199999999997,28.162000000000035 45.593999999999994,28.089000000000055 C45.646000000000015,28.015999999999963 45.69799999999998,27.951000000000022 45.75,27.894000000000005 C45.80200000000002,27.836000000000013 45.875,27.775999999999954 45.968999999999994,27.714000000000055 C46.06200000000001,27.650999999999954 46.14100000000002,27.599000000000046 46.202999999999975,27.557999999999993 C46.26600000000002,27.515999999999963 46.35899999999998,27.46900000000005 46.48399999999998,27.41700000000003 C46.60899999999998,27.36500000000001 46.70600000000002,27.32299999999998 46.773000000000025,27.29200000000003 C46.84100000000001,27.260999999999967 46.95100000000002,27.216000000000008 47.101999999999975,27.158999999999992 C47.252999999999986,27.101999999999975 47.35899999999998,27.057999999999993 47.422000000000025,27.025999999999954 L47.422000000000025,26.54200000000003 C47.422000000000025,26.104000000000042 47.22399999999999,25.885999999999967 46.827999999999975,25.885999999999967 C46.661,25.885999999999967 46.523000000000025,25.924999999999955 46.41399999999999,26.003000000000043 C46.30500000000001,26.081000000000017 46.25,26.172000000000025 46.25,26.275999999999954 C46.25,26.317999999999984 46.25799999999998,26.375 46.273000000000025,26.44799999999998 C46.28899999999999,26.520999999999958 46.297000000000025,26.567999999999984 46.297000000000025,26.589000000000055 C46.297000000000025,26.682999999999993 46.25999999999999,26.763000000000034 46.18799999999999,26.831000000000017 C46.11500000000001,26.899 46.02600000000001,26.932999999999993 45.922000000000025,26.932999999999993 C45.827999999999975,26.932999999999993 45.747000000000014,26.899 45.68000000000001,26.831000000000017 C45.61200000000002,26.763000000000034 45.577999999999975,26.682999999999993 45.577999999999975,26.589000000000055 C45.577999999999975,26.339000000000055 45.70800000000003,26.128000000000043 45.968999999999994,25.956000000000017 C46.228999999999985,25.783999999999992 46.547000000000025,25.69799999999998 46.922000000000025,25.69799999999998 C47.34899999999999,25.69799999999998 47.64299999999997,25.80200000000002 47.80500000000001,26.010999999999967 C47.96600000000001,26.21900000000005 48.047000000000025,26.537000000000035 48.047000000000025,26.964000000000055 L48.047000000000025,28.510999999999967 C48.047000000000025,28.687999999999988 48.065,28.809999999999945 48.101999999999975,28.878000000000043 C48.13799999999998,28.946000000000026 48.202999999999975,28.979000000000042 48.297000000000025,28.979000000000042 C48.40100000000001,28.979000000000042 48.51600000000002,28.92700000000002 48.64100000000002,28.82299999999998 L48.64100000000002,29.04200000000003 C48.504999999999995,29.19799999999998 48.38499999999999,29.30499999999995 48.281000000000006,29.361999999999966 C48.17700000000002,29.41999999999996 48.057000000000016,29.44799999999998 47.922000000000025,29.44799999999998 C47.76600000000002,29.44799999999998 47.65100000000001,29.400999999999954 47.577999999999975,29.307999999999993 C47.504999999999995,29.214000000000055 47.45800000000003,29.062999999999988 47.43799999999999,28.854000000000042 C46.978999999999985,29.25 46.593999999999994,29.44799999999998 46.281000000000006,29.44799999999998 C46.04199999999997,29.44799999999998 45.843999999999994,29.366999999999962 45.68799999999999,29.206000000000017 C45.531000000000006,29.04499999999996 45.452999999999975,28.833999999999946 45.452999999999975,28.57299999999998 M47.422000000000025,28.370000000000005 L47.422000000000025,27.214000000000055 C46.942999999999984,27.390999999999963 46.60899999999998,27.562999999999988 46.422000000000025,27.729000000000042 C46.23399999999998,27.895999999999958 46.14100000000002,28.09400000000005 46.14100000000002,28.32299999999998 C46.14100000000002,28.54200000000003 46.192999999999984,28.702999999999975 46.297000000000025,28.807999999999993 C46.40100000000001,28.912000000000035 46.51600000000002,28.964000000000055 46.64100000000002,28.964000000000055 C46.817999999999984,28.964000000000055 47.00999999999999,28.90700000000004 47.218999999999994,28.79200000000003 C47.30200000000002,28.74000000000001 47.35700000000003,28.687999999999988 47.38299999999998,28.635999999999967 C47.40899999999999,28.583999999999946 47.422000000000025,28.495000000000005 47.422000000000025,28.370000000000005 M51.10899999999998,26.44799999999998 C51.02600000000001,26.44799999999998 50.92399999999998,26.400999999999954 50.80500000000001,26.307999999999993 C50.685,26.214000000000055 50.60899999999998,26.16700000000003 50.577999999999975,26.16700000000003 C50.47399999999999,26.16700000000003 50.353999999999985,26.245000000000005 50.218999999999994,26.400999999999954 C50.08300000000003,26.557999999999993 50.01600000000002,26.702999999999975 50.01600000000002,26.839000000000055 L50.01600000000002,28.650999999999954 C50.01600000000002,28.879999999999995 50.06,29.033999999999992 50.148000000000025,29.111999999999966 C50.23700000000002,29.190000000000055 50.41699999999997,29.235000000000014 50.68799999999999,29.245000000000005 L50.68799999999999,29.370000000000005 L48.76600000000002,29.370000000000005 L48.76600000000002,29.245000000000005 C49.02600000000001,29.202999999999975 49.185,29.150999999999954 49.24200000000002,29.089000000000055 C49.29899999999998,29.025999999999954 49.327999999999975,28.895999999999958 49.327999999999975,28.69799999999998 L49.327999999999975,26.682999999999993 C49.327999999999975,26.504999999999995 49.31,26.379999999999995 49.273000000000025,26.307999999999993 C49.23700000000002,26.235000000000014 49.16699999999997,26.19799999999998 49.06200000000001,26.19799999999998 C48.978999999999985,26.19799999999998 48.88499999999999,26.208999999999946 48.781000000000006,26.229000000000042 L48.781000000000006,26.104000000000042 C49.20800000000003,25.96900000000005 49.603999999999985,25.833999999999946 49.968999999999994,25.69799999999998 L50.01600000000002,25.714000000000055 L50.01600000000002,26.41700000000003 C50.214,26.145999999999958 50.379999999999995,25.958999999999946 50.51600000000002,25.854000000000042 C50.65100000000001,25.75 50.80200000000002,25.69799999999998 50.968999999999994,25.69799999999998 C51.11500000000001,25.69799999999998 51.22399999999999,25.73199999999997 51.297000000000025,25.799999999999955 C51.370000000000005,25.866999999999962 51.406000000000006,25.96900000000005 51.406000000000006,26.104000000000042 C51.406000000000006,26.208999999999946 51.379999999999995,26.29200000000003 51.327999999999975,26.354000000000042 C51.27600000000001,26.41700000000003 51.202999999999975,26.44799999999998 51.10899999999998,26.44799999999998 M54.093999999999994,24.729000000000042 C54.00999999999999,24.729000000000042 53.93799999999999,24.69799999999998 53.875,24.635999999999967 C53.81200000000001,24.57299999999998 53.76299999999998,24.504999999999995 53.726999999999975,24.432999999999993 C53.69,24.360000000000014 53.63499999999999,24.29200000000003 53.56200000000001,24.229000000000042 C53.49000000000001,24.16700000000003 53.406000000000006,24.135999999999967 53.31200000000001,24.135999999999967 C53.00999999999999,24.135999999999967 52.85899999999998,24.370000000000005 52.85899999999998,24.839000000000055 L52.85899999999998,25.775999999999954 L53.843999999999994,25.775999999999954 L53.843999999999994,26.010999999999967 L52.85899999999998,26.010999999999967 L52.85899999999998,28.54200000000003 C52.85899999999998,28.833999999999946 52.90100000000001,29.020999999999958 52.98399999999998,29.104000000000042 C53.067999999999984,29.187999999999988 53.27600000000001,29.235000000000014 53.60899999999998,29.245000000000005 L53.60899999999998,29.370000000000005 L51.51600000000002,29.370000000000005 L51.51600000000002,29.245000000000005 C51.807000000000016,29.235000000000014 51.99200000000002,29.187999999999988 52.06999999999999,29.104000000000042 C52.148000000000025,29.020999999999958 52.18799999999999,28.833999999999946 52.18799999999999,28.54200000000003 L52.18799999999999,26.010999999999967 L51.531000000000006,26.010999999999967 L51.531000000000006,25.775999999999954 L52.18799999999999,25.775999999999954 C52.19799999999998,25.172000000000025 52.31,24.706000000000017 52.523000000000025,24.378000000000043 C52.73700000000002,24.049999999999955 53.093999999999994,23.885999999999967 53.593999999999994,23.885999999999967 C53.83300000000003,23.885999999999967 54.031000000000006,23.934999999999945 54.18799999999999,24.033999999999992 C54.343999999999994,24.133000000000038 54.422000000000025,24.254999999999995 54.422000000000025,24.400999999999954 C54.422000000000025,24.495000000000005 54.39100000000002,24.57299999999998 54.327999999999975,24.635999999999967 C54.26600000000002,24.69799999999998 54.18799999999999,24.729000000000042 54.093999999999994,24.729000000000042 M61.797000000000025,24.79200000000003 L59.75,29.370000000000005 L59.64100000000002,29.370000000000005 L57.64100000000002,24.979000000000042 L57.64100000000002,28.19799999999998 C57.64100000000002,28.604000000000042 57.68799999999999,28.873000000000047 57.781000000000006,29.003000000000043 C57.875,29.133000000000038 58.077999999999975,29.202999999999975 58.39100000000002,29.214000000000055 L58.39100000000002,29.370000000000005 L56.51600000000002,29.370000000000005 L56.51600000000002,29.214000000000055 C56.839,29.192999999999984 57.047000000000025,29.120000000000005 57.14100000000002,28.995000000000005 C57.23399999999998,28.870000000000005 57.281000000000006,28.604000000000042 57.281000000000006,28.19799999999998 L57.281000000000006,24.94799999999998 C57.281000000000006,24.65700000000004 57.23700000000002,24.46900000000005 57.148000000000025,24.385999999999967 C57.06,24.30200000000002 56.853999999999985,24.25 56.531000000000006,24.229000000000042 L56.531000000000006,24.07299999999998 L58.10899999999998,24.07299999999998 L59.952999999999975,28.120000000000005 L61.718999999999994,24.07299999999998 L63.31200000000001,24.07299999999998 L63.31200000000001,24.229000000000042 C63.00999999999999,24.260999999999967 62.81999999999999,24.317999999999984 62.74200000000002,24.400999999999954 C62.66399999999999,24.485000000000014 62.625,24.66700000000003 62.625,24.94799999999998 L62.625,28.495000000000005 C62.625,28.775999999999954 62.66699999999997,28.961000000000013 62.75,29.049999999999955 C62.83300000000003,29.138000000000034 63.021000000000015,29.192999999999984 63.31200000000001,29.214000000000055 L63.31200000000001,29.370000000000005 L61.077999999999975,29.370000000000005 L61.077999999999975,29.214000000000055 C61.39100000000002,29.192999999999984 61.589,29.135999999999967 61.672000000000025,29.04200000000003 C61.754999999999995,28.94799999999998 61.797000000000025,28.74000000000001 61.797000000000025,28.41700000000003 L61.797000000000025,24.79200000000003 M67.281,28.94799999999998 L67.281,29.07299999999998 C66.86500000000001,29.187999999999988 66.5,29.312999999999988 66.18799999999999,29.44799999999998 L66.156,29.432999999999993 L66.14100000000002,28.745000000000005 C66.13,28.765999999999963 66.08600000000001,28.815000000000055 66.00799999999998,28.894000000000005 C65.93,28.97199999999998 65.875,29.025999999999954 65.844,29.057999999999993 C65.81200000000001,29.089000000000055 65.75799999999998,29.135999999999967 65.68,29.19799999999998 C65.60199999999998,29.260999999999967 65.53399999999999,29.30499999999995 65.47699999999998,29.331000000000017 C65.41899999999998,29.35699999999997 65.346,29.383000000000038 65.25799999999998,29.408999999999992 C65.16899999999998,29.434999999999945 65.07799999999997,29.44799999999998 64.98399999999998,29.44799999999998 C64.69299999999998,29.44799999999998 64.45800000000003,29.351999999999975 64.281,29.158999999999992 C64.10399999999998,28.966000000000008 64.01600000000002,28.714000000000055 64.01600000000002,28.400999999999954 L64.01600000000002,26.385999999999967 C64.01600000000002,26.208999999999946 63.98200000000003,26.083999999999946 63.91399999999999,26.010999999999967 C63.846000000000004,25.937999999999988 63.714,25.895999999999958 63.51600000000002,25.885999999999967 L63.51600000000002,25.775999999999954 L64.68799999999999,25.775999999999954 L64.68799999999999,28.370000000000005 C64.68799999999999,28.525999999999954 64.745,28.663999999999987 64.85899999999998,28.783999999999992 C64.97399999999999,28.903999999999996 65.10399999999998,28.964000000000055 65.25,28.964000000000055 C65.31200000000001,28.964000000000055 65.38299999999998,28.956000000000017 65.46100000000001,28.940000000000055 C65.53899999999999,28.924999999999955 65.63,28.895999999999958 65.73399999999998,28.854000000000042 C65.839,28.812999999999988 65.92700000000002,28.741999999999962 66.0,28.644000000000005 C66.07299999999998,28.54499999999996 66.10899999999998,28.422000000000025 66.10899999999998,28.275999999999954 L66.10899999999998,26.400999999999954 C66.10899999999998,26.214000000000055 66.07299999999998,26.086000000000013 66.0,26.019000000000005 C65.92700000000002,25.951000000000022 65.76600000000002,25.912000000000035 65.51600000000002,25.900999999999954 L65.51600000000002,25.775999999999954 L66.781,25.775999999999954 L66.781,28.495000000000005 C66.781,28.682999999999993 66.81200000000001,28.80499999999995 66.875,28.861999999999966 C66.93799999999999,28.91999999999996 67.06200000000001,28.94799999999998 67.25,28.94799999999998 L67.281,28.94799999999998 M69.48399999999998,25.854000000000042 C69.495,25.854000000000042 69.536,25.827999999999975 69.60899999999998,25.775999999999954 L69.70299999999997,25.775999999999954 L69.73399999999998,26.854000000000042 L69.60899999999998,26.854000000000042 C69.52600000000001,26.5 69.41699999999997,26.248000000000047 69.281,26.09699999999998 C69.14600000000002,25.946000000000026 68.964,25.870000000000005 68.73399999999998,25.870000000000005 C68.55700000000002,25.870000000000005 68.411,25.922000000000025 68.29700000000003,26.025999999999954 C68.18200000000002,26.129999999999995 68.125,26.260999999999967 68.125,26.41700000000003 C68.125,26.645999999999958 68.24000000000001,26.827999999999975 68.469,26.964000000000055 L69.32799999999997,27.479000000000042 C69.56799999999998,27.625 69.74000000000001,27.770999999999958 69.844,27.91700000000003 C69.94799999999998,28.062999999999988 70.0,28.235000000000014 70.0,28.432999999999993 C70.0,28.702999999999975 69.88799999999998,28.940000000000055 69.66399999999999,29.144000000000005 C69.44,29.34699999999998 69.17700000000002,29.44799999999998 68.875,29.44799999999998 C68.74000000000001,29.44799999999998 68.56,29.424999999999955 68.33600000000001,29.378000000000043 C68.11200000000002,29.331000000000017 67.97399999999999,29.307999999999993 67.92200000000003,29.307999999999993 C67.839,29.307999999999993 67.77600000000001,29.339000000000055 67.73399999999998,29.400999999999954 L67.625,29.400999999999954 L67.625,28.150999999999954 L67.76600000000002,28.150999999999954 C67.84899999999999,28.525999999999954 67.94799999999998,28.79200000000003 68.06200000000001,28.94799999999998 C68.22899999999998,29.16700000000003 68.469,29.275999999999954 68.781,29.275999999999954 C68.97899999999998,29.275999999999954 69.13799999999998,29.224000000000046 69.25799999999998,29.120000000000005 C69.37799999999999,29.015999999999963 69.43799999999999,28.875 69.43799999999999,28.69799999999998 C69.43799999999999,28.458999999999946 69.29700000000003,28.260999999999967 69.01600000000002,28.104000000000042 L68.56200000000001,27.839000000000055 C68.219,27.640999999999963 67.97699999999998,27.456000000000017 67.83600000000001,27.283999999999992 C67.695,27.111999999999966 67.625,26.912000000000035 67.625,26.682999999999993 C67.625,26.390999999999963 67.72699999999998,26.153999999999996 67.93,25.97199999999998 C68.13299999999998,25.788999999999987 68.39600000000002,25.69799999999998 68.719,25.69799999999998 C68.88499999999999,25.69799999999998 69.04700000000003,25.724000000000046 69.20299999999997,25.775999999999954 C69.35899999999998,25.827999999999975 69.45299999999997,25.854000000000042 69.48399999999998,25.854000000000042 M70.76600000000002,26.229000000000042 C70.64100000000002,26.229000000000042 70.52600000000001,26.235000000000014 70.42200000000003,26.245000000000005 L70.42200000000003,26.135999999999967 C70.79700000000003,26.03200000000004 71.214,25.885999999999967 71.67200000000003,25.69799999999998 L71.70299999999997,25.714000000000055 L71.70299999999997,28.557999999999993 C71.70299999999997,28.839000000000055 71.73700000000002,29.019000000000005 71.805,29.09699999999998 C71.87200000000001,29.174999999999955 72.036,29.224000000000046 72.29700000000003,29.245000000000005 L72.29700000000003,29.370000000000005 L70.39100000000002,29.370000000000005 L70.39100000000002,29.245000000000005 C70.67200000000003,29.235000000000014 70.84899999999999,29.187999999999988 70.92200000000003,29.104000000000042 C70.995,29.020999999999958 71.031,28.839000000000055 71.031,28.557999999999993 L71.031,26.69799999999998 C71.031,26.520999999999958 71.00999999999999,26.399 70.969,26.331000000000017 C70.92700000000002,26.263000000000034 70.85899999999998,26.229000000000042 70.76600000000002,26.229000000000042 M71.29700000000003,23.900999999999954 C71.411,23.900999999999954 71.50999999999999,23.942999999999984 71.594,24.025999999999954 C71.67700000000002,24.110000000000014 71.719,24.208999999999946 71.719,24.32299999999998 C71.719,24.437999999999988 71.67700000000002,24.533999999999992 71.594,24.611999999999966 C71.50999999999999,24.690000000000055 71.411,24.729000000000042 71.29700000000003,24.729000000000042 C71.18200000000002,24.729000000000042 71.08600000000001,24.687999999999988 71.00799999999998,24.604000000000042 C70.93,24.520999999999958 70.89100000000002,24.424999999999955 70.89100000000002,24.315000000000055 C70.89100000000002,24.206000000000017 70.93,24.110000000000014 71.00799999999998,24.025999999999954 C71.08600000000001,23.942999999999984 71.18200000000002,23.900999999999954 71.29700000000003,23.900999999999954 M72.68799999999999,27.66700000000003 C72.68799999999999,27.07299999999998 72.86200000000002,26.59699999999998 73.21100000000001,26.236999999999966 C73.56,25.878000000000043 73.969,25.69799999999998 74.43799999999999,25.69799999999998 C74.77100000000002,25.69799999999998 75.055,25.778999999999996 75.28899999999999,25.940000000000055 C75.52300000000002,26.101999999999975 75.64100000000002,26.297000000000025 75.64100000000002,26.525999999999954 C75.64100000000002,26.610000000000014 75.60399999999998,26.684999999999945 75.531,26.753000000000043 C75.45800000000003,26.821000000000026 75.37,26.854000000000042 75.26600000000002,26.854000000000042 C75.089,26.854000000000042 74.969,26.735000000000014 74.906,26.495000000000005 L74.85899999999998,26.32299999999998 C74.81799999999998,26.16700000000003 74.76600000000002,26.062999999999988 74.70299999999997,26.010999999999967 C74.64100000000002,25.958999999999946 74.536,25.932999999999993 74.39100000000002,25.932999999999993 C74.06799999999998,25.932999999999993 73.80700000000002,26.059999999999945 73.60899999999998,26.315000000000055 C73.411,26.571000000000026 73.31200000000001,26.90700000000004 73.31200000000001,27.32299999999998 C73.31200000000001,27.770999999999958 73.42700000000002,28.140999999999963 73.656,28.432999999999993 C73.88499999999999,28.724000000000046 74.18200000000002,28.870000000000005 74.54700000000003,28.870000000000005 C74.76600000000002,28.870000000000005 74.95600000000002,28.812999999999988 75.11700000000002,28.69799999999998 C75.279,28.583999999999946 75.45299999999997,28.390999999999963 75.64100000000002,28.120000000000005 L75.75,28.182999999999993 C75.69799999999998,28.297000000000025 75.654,28.388000000000034 75.61700000000002,28.456000000000017 C75.58100000000002,28.524 75.50999999999999,28.628000000000043 75.406,28.769000000000005 C75.30200000000002,28.908999999999992 75.20100000000002,29.020999999999958 75.10199999999998,29.104000000000042 C75.00299999999999,29.187999999999988 74.87200000000001,29.265999999999963 74.71100000000001,29.339000000000055 C74.54899999999998,29.412000000000035 74.38,29.44799999999998 74.20299999999997,29.44799999999998 C73.76600000000002,29.44799999999998 73.404,29.28200000000004 73.11700000000002,28.94799999999998 C72.83100000000002,28.61500000000001 72.68799999999999,28.187999999999988 72.68799999999999,27.66700000000003 M77.031,28.57299999999998 C77.14600000000002,28.57299999999998 77.24700000000001,28.616999999999962 77.33600000000001,28.706000000000017 C77.42399999999998,28.79499999999996 77.469,28.900999999999954 77.469,29.025999999999954 C77.469,29.140999999999963 77.42399999999998,29.241999999999962 77.33600000000001,29.331000000000017 C77.24700000000001,29.41999999999996 77.14100000000002,29.464000000000055 77.01600000000002,29.464000000000055 C76.90100000000001,29.464000000000055 76.80200000000002,29.41999999999996 76.719,29.331000000000017 C76.63499999999999,29.241999999999962 76.594,29.140999999999963 76.594,29.025999999999954 C76.594,28.900999999999954 76.63799999999998,28.79499999999996 76.72699999999998,28.706000000000017 C76.815,28.616999999999962 76.91699999999997,28.57299999999998 77.031,28.57299999999998" />
</svg>
