<?xml version="1.0" encoding="UTF-8" standalone="yes"?>
<svg width="256.0px" height="256.0px" xmlns="http://www.w3.org/2000/svg" xmlns:xlink="http://www.w3.org/1999/xlink" version="1.2" baseProfile="tiny">
<path d="M1.400000000000091,30.79200000000003 C1.2699999999999818,30.69799999999998 1.1300000000001091,30.591000000000008 0.9800000000000182,30.47199999999998 C0.8200000000001637,30.351999999999975 0.650000000000091,30.184999999999945 0.4699999999997999,29.97199999999998 C0.2800000000002001,29.758000000000038 0.11000000000012733,29.53200000000004 -0.029999999999972715,29.29200000000003 C-0.18000000000006366,29.05200000000002 -0.2999999999999545,28.760999999999967 -0.39000000000010004,28.41700000000003 C-0.4900000000000091,28.07299999999998 -0.5299999999999727,27.71900000000005 -0.5299999999999727,27.354000000000042 C-0.5299999999999727,26.96900000000005 -0.4900000000000091,26.604000000000042 -0.39000000000010004,26.260999999999967 C-0.2999999999999545,25.91700000000003 -0.18000000000006366,25.633000000000038 -0.049999999999954525,25.408999999999992 C0.09000000000014552,25.184999999999945 0.2600000000002183,24.966000000000008 0.4600000000000364,24.753000000000043 C0.6599999999998545,24.538999999999987 0.8299999999999272,24.383000000000038 0.9699999999997999,24.283999999999992 C1.099999999999909,24.184999999999945 1.25,24.077999999999975 1.4200000000000728,23.964000000000055 L1.5,24.089000000000055 C1.2699999999999818,24.287000000000035 1.0799999999999272,24.461000000000013 0.9400000000000546,24.611999999999966 C0.7899999999999636,24.763000000000034 0.650000000000091,24.964000000000055 0.5100000000002183,25.214000000000055 C0.38000000000010914,25.464000000000055 0.2800000000002001,25.760999999999967 0.2300000000000182,26.104000000000042 C0.17000000000007276,26.44799999999998 0.13999999999987267,26.860000000000014 0.13999999999987267,27.339000000000055 C0.13999999999987267,27.827999999999975 0.17000000000007276,28.253000000000043 0.2300000000000182,28.611999999999966 C0.2800000000002001,28.97199999999998 0.38000000000010914,29.275999999999954 0.5100000000002183,29.525999999999954 C0.650000000000091,29.775999999999954 0.7899999999999636,29.98199999999997 0.9400000000000546,30.144000000000005 C1.0799999999999272,30.30499999999995 1.2699999999999818,30.474000000000046 1.5,30.650999999999954 L1.400000000000091,30.79200000000003 M1.9400000000000546,27.66700000000003 C1.9400000000000546,27.07299999999998 2.1100000000001273,26.59699999999998 2.4600000000000364,26.236999999999966 C2.8099999999999454,25.878000000000043 3.2199999999998,25.69799999999998 3.6900000000000546,25.69799999999998 C4.019999999999982,25.69799999999998 4.300000000000182,25.778999999999996 4.539999999999964,25.940000000000055 C4.769999999999982,26.101999999999975 4.889999999999873,26.297000000000025 4.889999999999873,26.525999999999954 C4.889999999999873,26.610000000000014 4.849999999999909,26.684999999999945 4.7800000000002,26.753000000000043 C4.710000000000036,26.821000000000026 4.619999999999891,26.854000000000042 4.510000000000218,26.854000000000042 C4.3400000000001455,26.854000000000042 4.2199999999998,26.735000000000014 4.150000000000091,26.495000000000005 L4.110000000000127,26.32299999999998 C4.070000000000164,26.16700000000003 4.010000000000218,26.062999999999988 3.949999999999818,26.010999999999967 C3.8899999999998727,25.958999999999946 3.7899999999999636,25.932999999999993 3.6399999999998727,25.932999999999993 C3.3200000000001637,25.932999999999993 3.0599999999999454,26.059999999999945 2.8600000000001273,26.315000000000055 C2.6599999999998545,26.571000000000026 2.5599999999999454,26.90700000000004 2.5599999999999454,27.32299999999998 C2.5599999999999454,27.770999999999958 2.6799999999998363,28.140999999999963 2.900000000000091,28.432999999999993 C3.130000000000109,28.724000000000046 3.4299999999998363,28.870000000000005 3.800000000000182,28.870000000000005 C4.010000000000218,28.870000000000005 4.199999999999818,28.812999999999988 4.369999999999891,28.69799999999998 C4.5300000000002,28.583999999999946 4.699999999999818,28.390999999999963 4.889999999999873,28.120000000000005 L5.0,28.182999999999993 C4.949999999999818,28.297000000000025 4.900000000000091,28.388000000000034 4.869999999999891,28.456000000000017 C4.829999999999927,28.524 4.760000000000218,28.628000000000043 4.650000000000091,28.769000000000005 C4.550000000000182,28.908999999999992 4.449999999999818,29.020999999999958 4.349999999999909,29.104000000000042 C4.25,29.187999999999988 4.119999999999891,29.265999999999963 3.9600000000000364,29.339000000000055 C3.800000000000182,29.412000000000035 3.630000000000109,29.44799999999998 3.449999999999818,29.44799999999998 C3.0100000000002183,29.44799999999998 2.650000000000091,29.28200000000004 2.369999999999891,28.94799999999998 C2.0799999999999272,28.61500000000001 1.9400000000000546,28.187999999999988 1.9400000000000546,27.66700000000003 M5.610000000000127,23.964000000000055 C5.75,24.047000000000025 5.900000000000091,24.149 6.050000000000182,24.269000000000005 C6.190000000000055,24.388000000000034 6.360000000000127,24.55499999999995 6.550000000000182,24.769000000000005 C6.75,24.98199999999997 6.9099999999998545,25.211000000000013 7.050000000000182,25.456000000000017 C7.190000000000055,25.701000000000022 7.309999999999945,25.991999999999962 7.4099999999998545,26.331000000000017 C7.510000000000218,26.66999999999996 7.559999999999945,27.025999999999954 7.559999999999945,27.400999999999954 C7.559999999999945,27.775999999999954 7.510000000000218,28.135999999999967 7.4099999999998545,28.479000000000042 C7.309999999999945,28.82299999999998 7.199999999999818,29.110000000000014 7.070000000000164,29.339000000000055 C6.940000000000055,29.567999999999984 6.769999999999982,29.787000000000035 6.559999999999945,29.995000000000005 C6.349999999999909,30.202999999999975 6.179999999999836,30.360000000000014 6.050000000000182,30.464000000000055 C5.920000000000073,30.567999999999984 5.769999999999982,30.67700000000002 5.5900000000001455,30.79200000000003 L5.510000000000218,30.650999999999954 C5.75,30.464000000000055 5.949999999999818,30.29200000000003 6.0900000000001455,30.135999999999967 C6.239999999999782,29.979000000000042 6.380000000000109,29.778999999999996 6.510000000000218,29.533999999999992 C6.639999999999873,29.288999999999987 6.730000000000018,28.995000000000005 6.789999999999964,28.650999999999954 C6.849999999999909,28.307999999999993 6.869999999999891,27.895999999999958 6.869999999999891,27.41700000000003 C6.869999999999891,26.92700000000002 6.849999999999909,26.503000000000043 6.789999999999964,26.144000000000005 C6.730000000000018,25.783999999999992 6.639999999999873,25.476999999999975 6.510000000000218,25.22199999999998 C6.380000000000109,24.966000000000008 6.239999999999782,24.760999999999967 6.0900000000001455,24.604000000000042 C5.949999999999818,24.44799999999998 5.75,24.275999999999954 5.510000000000218,24.089000000000055 L5.610000000000127,23.964000000000055 M11.389999999999873,24.635999999999967 C11.289999999999964,24.635999999999967 11.090000000000146,24.692999999999984 10.809999999999945,24.807999999999993 L10.809999999999945,24.69799999999998 L12.230000000000018,23.964000000000055 L12.300000000000182,23.979000000000042 L12.300000000000182,28.775999999999954 C12.300000000000182,28.974000000000046 12.349999999999909,29.101999999999975 12.440000000000055,29.158999999999992 C12.539999999999964,29.216000000000008 12.75,29.245000000000005 13.059999999999945,29.245000000000005 L13.059999999999945,29.370000000000005 L10.860000000000127,29.370000000000005 L10.860000000000127,29.245000000000005 C11.159999999999854,29.235000000000014 11.360000000000127,29.190000000000055 11.4699999999998,29.111999999999966 C11.570000000000164,29.033999999999992 11.61999999999989,28.870000000000005 11.61999999999989,28.620000000000005 L11.61999999999989,25.010999999999967 C11.61999999999989,24.760999999999967 11.550000000000182,24.635999999999967 11.389999999999873,24.635999999999967 M14.36999999999989,29.54200000000003 L14.360000000000127,29.385999999999967 C14.960000000000036,29.28200000000004 15.480000000000018,29.024 15.900000000000091,28.611999999999966 C16.320000000000164,28.201000000000022 16.610000000000127,27.66700000000003 16.7800000000002,27.010999999999967 C16.38000000000011,27.32299999999998 15.980000000000018,27.479000000000042 15.579999999999927,27.479000000000042 C15.150000000000091,27.479000000000042 14.800000000000182,27.327999999999975 14.539999999999964,27.025999999999954 C14.269999999999982,26.724000000000046 14.139999999999873,26.333999999999946 14.139999999999873,25.854000000000042 C14.139999999999873,25.312999999999988 14.300000000000182,24.860000000000014 14.61999999999989,24.495000000000005 C14.929999999999836,24.129999999999995 15.329999999999927,23.94799999999998 15.809999999999945,23.94799999999998 C16.340000000000146,23.94799999999998 16.769999999999982,24.158999999999992 17.110000000000127,24.581000000000017 C17.440000000000055,25.003000000000043 17.610000000000127,25.547000000000025 17.610000000000127,26.214000000000055 C17.610000000000127,26.432999999999993 17.590000000000146,26.653999999999996 17.550000000000182,26.878000000000043 C17.519999999999982,27.101999999999975 17.429999999999836,27.366999999999962 17.300000000000182,27.674999999999955 C17.159999999999854,27.98199999999997 16.980000000000018,28.254999999999995 16.76000000000022,28.495000000000005 C16.5300000000002,28.735000000000014 16.2199999999998,28.952999999999975 15.809999999999945,29.150999999999954 C15.400000000000091,29.349000000000046 14.929999999999836,29.479000000000042 14.36999999999989,29.54200000000003 M15.86999999999989,27.120000000000005 C15.980000000000018,27.120000000000005 16.090000000000146,27.10699999999997 16.2199999999998,27.081000000000017 C16.340000000000146,27.05499999999995 16.4699999999998,26.991999999999962 16.59999999999991,26.894000000000005 C16.730000000000018,26.79499999999996 16.800000000000182,26.672000000000025 16.800000000000182,26.525999999999954 L16.800000000000182,26.214000000000055 C16.800000000000182,24.860000000000014 16.449999999999818,24.182999999999993 15.75,24.182999999999993 C15.579999999999927,24.182999999999993 15.440000000000055,24.226999999999975 15.320000000000164,24.315000000000055 C15.199999999999818,24.403999999999996 15.110000000000127,24.520999999999958 15.050000000000182,24.66700000000003 C15.0,24.812999999999988 14.949999999999818,24.958999999999946 14.920000000000073,25.104000000000042 C14.889999999999873,25.25 14.86999999999989,25.40700000000004 14.86999999999989,25.57299999999998 C14.86999999999989,26.05200000000002 14.960000000000036,26.42999999999995 15.150000000000091,26.706000000000017 C15.329999999999927,26.98199999999997 15.570000000000164,27.120000000000005 15.86999999999989,27.120000000000005 M19.949999999999818,29.479000000000042 C19.409999999999854,29.479000000000042 18.980000000000018,29.265999999999963 18.65000000000009,28.839000000000055 C18.320000000000164,28.412000000000035 18.15000000000009,27.84400000000005 18.15000000000009,27.135999999999967 C18.15000000000009,26.91700000000003 18.179999999999836,26.692999999999984 18.230000000000018,26.464000000000055 C18.269999999999982,26.235000000000014 18.36999999999989,25.97199999999998 18.51000000000022,25.674999999999955 C18.65000000000009,25.378000000000043 18.829999999999927,25.111999999999966 19.070000000000164,24.878000000000043 C19.300000000000182,24.644000000000005 19.63000000000011,24.434999999999945 20.039999999999964,24.253000000000043 C20.449999999999818,24.071000000000026 20.929999999999836,23.952999999999975 21.4699999999998,23.900999999999954 L21.480000000000018,24.025999999999954 C20.84999999999991,24.129999999999995 20.320000000000164,24.385999999999967 19.90000000000009,24.79200000000003 C19.480000000000018,25.19799999999998 19.210000000000036,25.702999999999975 19.090000000000146,26.307999999999993 C19.340000000000146,26.162000000000035 19.5300000000002,26.067999999999984 19.659999999999854,26.025999999999954 C19.789999999999964,25.985000000000014 19.949999999999818,25.964000000000055 20.11999999999989,25.964000000000055 C20.590000000000146,25.964000000000055 20.960000000000036,26.111999999999966 21.23999999999978,26.408999999999992 C21.519999999999982,26.706000000000017 21.65000000000009,27.104000000000042 21.65000000000009,27.604000000000042 C21.65000000000009,28.15700000000004 21.5,28.60699999999997 21.179999999999836,28.956000000000017 C20.860000000000127,29.30499999999995 20.449999999999818,29.479000000000042 19.949999999999818,29.479000000000042 M19.829999999999927,26.32299999999998 C19.460000000000036,26.32299999999998 19.210000000000036,26.400999999999954 19.079999999999927,26.557999999999993 C18.949999999999818,26.714000000000055 18.889999999999873,26.94799999999998 18.889999999999873,27.260999999999967 C18.889999999999873,27.875 18.98999999999978,28.360000000000014 19.199999999999818,28.714000000000055 C19.409999999999854,29.067999999999984 19.690000000000055,29.245000000000005 20.0300000000002,29.245000000000005 C20.320000000000164,29.245000000000005 20.539999999999964,29.128000000000043 20.690000000000055,28.894000000000005 C20.829999999999927,28.658999999999992 20.90000000000009,28.32299999999998 20.90000000000009,27.885999999999967 C20.90000000000009,27.385999999999967 20.809999999999945,27.0 20.61999999999989,26.729000000000042 C20.440000000000055,26.458999999999946 20.170000000000073,26.32299999999998 19.829999999999927,26.32299999999998 M24.199999999999818,26.400999999999954 C24.690000000000055,26.754999999999995 25.019999999999982,27.05200000000002 25.190000000000055,27.29200000000003 C25.36999999999989,27.53200000000004 25.449999999999818,27.807999999999993 25.449999999999818,28.120000000000005 C25.449999999999818,28.537000000000035 25.309999999999945,28.866999999999962 25.019999999999982,29.111999999999966 C24.73999999999978,29.35699999999997 24.34999999999991,29.479000000000042 23.86999999999989,29.479000000000042 C23.420000000000073,29.479000000000042 23.039999999999964,29.35699999999997 22.76000000000022,29.111999999999966 C22.4699999999998,28.866999999999962 22.329999999999927,28.547000000000025 22.329999999999927,28.150999999999954 C22.329999999999927,27.879999999999995 22.389999999999873,27.653999999999996 22.519999999999982,27.47199999999998 C22.65000000000009,27.288999999999987 22.940000000000055,27.037000000000035 23.36999999999989,26.714000000000055 C22.949999999999818,26.339000000000055 22.670000000000073,26.062999999999988 22.550000000000182,25.885999999999967 C22.429999999999836,25.708999999999946 22.36999999999989,25.49000000000001 22.36999999999989,25.229000000000042 C22.36999999999989,24.86500000000001 22.519999999999982,24.559999999999945 22.800000000000182,24.315000000000055 C23.090000000000146,24.071000000000026 23.460000000000036,23.94799999999998 23.90000000000009,23.94799999999998 C24.300000000000182,23.94799999999998 24.63000000000011,24.05499999999995 24.88000000000011,24.269000000000005 C25.139999999999873,24.48199999999997 25.26000000000022,24.760999999999967 25.26000000000022,25.104000000000042 C25.26000000000022,25.375 25.190000000000055,25.604000000000042 25.0300000000002,25.79200000000003 C24.86999999999989,25.979000000000042 24.59999999999991,26.182999999999993 24.199999999999818,26.400999999999954 M23.579999999999927,26.870000000000005 C23.34999999999991,27.057999999999993 23.190000000000055,27.241999999999962 23.090000000000146,27.424999999999955 C23.0,27.60699999999997 22.949999999999818,27.827999999999975 22.949999999999818,28.089000000000055 C22.949999999999818,28.432999999999993 23.039999999999964,28.711000000000013 23.230000000000018,28.924999999999955 C23.409999999999854,29.138000000000034 23.65000000000009,29.245000000000005 23.949999999999818,29.245000000000005 C24.210000000000036,29.245000000000005 24.420000000000073,29.163999999999987 24.579999999999927,29.003000000000043 C24.75,28.841000000000008 24.829999999999927,28.629999999999995 24.829999999999927,28.370000000000005 C24.829999999999927,28.287000000000035 24.820000000000164,28.206000000000017 24.800000000000182,28.128000000000043 C24.789999999999964,28.049999999999955 24.769999999999982,27.985000000000014 24.75,27.932999999999993 C24.730000000000018,27.879999999999995 24.690000000000055,27.817999999999984 24.63000000000011,27.745000000000005 C24.570000000000164,27.672000000000025 24.5300000000002,27.616999999999962 24.5,27.581000000000017 C24.4699999999998,27.54499999999996 24.409999999999854,27.486999999999966 24.320000000000164,27.408999999999992 C24.230000000000018,27.331000000000017 24.159999999999854,27.275999999999954 24.11999999999989,27.245000000000005 C24.070000000000164,27.214000000000055 23.980000000000018,27.153999999999996 23.860000000000127,27.065000000000055 C23.730000000000018,26.976999999999975 23.639999999999873,26.912000000000035 23.579999999999927,26.870000000000005 M23.9699999999998,26.260999999999967 C23.980000000000018,26.25 24.019999999999982,26.22199999999998 24.079999999999927,26.174999999999955 C24.15000000000009,26.128000000000043 24.199999999999818,26.091000000000008 24.230000000000018,26.065000000000055 C24.25,26.038999999999987 24.300000000000182,26.0 24.360000000000127,25.94799999999998 C24.420000000000073,25.895999999999958 24.4699999999998,25.84400000000005 24.5,25.79200000000003 C24.5300000000002,25.74000000000001 24.570000000000164,25.67700000000002 24.610000000000127,25.604000000000042 C24.65000000000009,25.53200000000004 24.679999999999836,25.451000000000022 24.690000000000055,25.361999999999966 C24.710000000000036,25.274 24.7199999999998,25.182999999999993 24.7199999999998,25.089000000000055 C24.7199999999998,24.817999999999984 24.639999999999873,24.599000000000046 24.480000000000018,24.432999999999993 C24.329999999999927,24.265999999999963 24.110000000000127,24.182999999999993 23.840000000000146,24.182999999999993 C23.590000000000146,24.182999999999993 23.389999999999873,24.258000000000038 23.230000000000018,24.408999999999992 C23.059999999999945,24.559999999999945 22.980000000000018,24.75 22.980000000000018,24.979000000000042 C22.980000000000018,25.19799999999998 23.059999999999945,25.40700000000004 23.210000000000036,25.604000000000042 C23.360000000000127,25.80200000000002 23.610000000000127,26.020999999999958 23.9699999999998,26.260999999999967 M33.32999999999993,26.69799999999998 C33.32999999999993,26.937999999999988 33.30000000000018,27.172000000000025 33.23999999999978,27.400999999999954 C33.179999999999836,27.629999999999995 33.07999999999993,27.866999999999962 32.940000000000055,28.111999999999966 C32.80000000000018,28.35699999999997 32.61999999999989,28.567999999999984 32.40000000000009,28.745000000000005 C32.17000000000007,28.922000000000025 31.86999999999989,29.071000000000026 31.5,29.190000000000055 C31.11999999999989,29.309999999999945 30.699999999999818,29.370000000000005 30.230000000000018,29.370000000000005 L27.9699999999998,29.370000000000005 L27.9699999999998,29.214000000000055 C28.269999999999982,29.192999999999984 28.460000000000036,29.140999999999963 28.550000000000182,29.057999999999993 C28.63000000000011,28.974000000000046 28.670000000000073,28.787000000000035 28.670000000000073,28.495000000000005 L28.670000000000073,24.94799999999998 C28.670000000000073,24.65700000000004 28.63000000000011,24.47199999999998 28.550000000000182,24.394000000000005 C28.480000000000018,24.315000000000055 28.2800000000002,24.260999999999967 27.9699999999998,24.229000000000042 L27.9699999999998,24.07299999999998 L30.11999999999989,24.07299999999998 C30.610000000000127,24.07299999999998 31.050000000000182,24.128000000000043 31.429999999999836,24.236999999999966 C31.809999999999945,24.34699999999998 32.11999999999989,24.486999999999966 32.34999999999991,24.658999999999992 C32.57999999999993,24.831000000000017 32.7800000000002,25.037000000000035 32.929999999999836,25.275999999999954 C33.07999999999993,25.515999999999963 33.179999999999836,25.75 33.23999999999978,25.979000000000042 C33.30000000000018,26.208999999999946 33.32999999999993,26.44799999999998 33.32999999999993,26.69799999999998 M32.440000000000055,26.760999999999967 C32.440000000000055,26.53200000000004 32.42000000000007,26.309999999999945 32.36999999999989,26.09699999999998 C32.32999999999993,25.883000000000038 32.25,25.66999999999996 32.13000000000011,25.456000000000017 C32.01000000000022,25.241999999999962 31.860000000000127,25.059999999999945 31.670000000000073,24.908999999999992 C31.480000000000018,24.758000000000038 31.23999999999978,24.633000000000038 30.940000000000055,24.533999999999992 C30.63000000000011,24.434999999999945 30.289999999999964,24.385999999999967 29.90000000000009,24.385999999999967 C29.73999999999978,24.385999999999967 29.63000000000011,24.40700000000004 29.570000000000164,24.44799999999998 C29.51000000000022,24.49000000000001 29.480000000000018,24.57299999999998 29.480000000000018,24.69799999999998 L29.480000000000018,28.745000000000005 C29.480000000000018,28.870000000000005 29.51000000000022,28.956000000000017 29.570000000000164,29.003000000000043 C29.63000000000011,29.049999999999955 29.73999999999978,29.07299999999998 29.90000000000009,29.07299999999998 C31.590000000000146,29.07299999999998 32.440000000000055,28.30200000000002 32.440000000000055,26.760999999999967 M36.26000000000022,26.885999999999967 C36.13000000000011,26.458999999999946 36.01999999999998,26.190000000000055 35.940000000000055,26.081000000000017 C35.86999999999989,25.97199999999998 35.73999999999978,25.90700000000004 35.559999999999945,25.885999999999967 L35.559999999999945,25.775999999999954 L37.190000000000055,25.775999999999954 L37.190000000000055,25.885999999999967 C37.0,25.91700000000003 36.86999999999989,25.951000000000022 36.809999999999945,25.986999999999966 C36.75,26.024 36.7199999999998,26.089000000000055 36.7199999999998,26.182999999999993 C36.7199999999998,26.245000000000005 36.76000000000022,26.400999999999954 36.86000000000013,26.650999999999954 L37.5300000000002,28.44799999999998 L38.25,26.66700000000003 C38.340000000000146,26.44799999999998 38.38999999999987,26.270999999999958 38.38999999999987,26.135999999999967 C38.38999999999987,26.07299999999998 38.36000000000013,26.024 38.309999999999945,25.986999999999966 C38.26000000000022,25.951000000000022 38.17000000000007,25.91700000000003 38.0300000000002,25.885999999999967 L38.0300000000002,25.775999999999954 L39.01000000000022,25.775999999999954 L39.01000000000022,25.885999999999967 C38.929999999999836,25.91700000000003 38.86999999999989,25.956000000000017 38.840000000000146,26.003000000000043 C38.809999999999945,26.049999999999955 38.76000000000022,26.15700000000004 38.690000000000055,26.32299999999998 L37.57999999999993,29.089000000000055 C37.4699999999998,29.349000000000046 37.40000000000009,29.479000000000042 37.36000000000013,29.479000000000042 C37.320000000000164,29.479000000000042 37.25,29.36500000000001 37.17000000000007,29.135999999999967 L36.440000000000055,27.245000000000005 L35.55000000000018,29.16700000000003 C35.44999999999982,29.375 35.38000000000011,29.479000000000042 35.340000000000146,29.479000000000042 C35.30000000000018,29.479000000000042 35.23000000000002,29.36500000000001 35.13999999999987,29.135999999999967 L34.059999999999945,26.400999999999954 C33.98000000000002,26.192999999999984 33.909999999999854,26.057999999999993 33.86000000000013,25.995000000000005 C33.809999999999945,25.932999999999993 33.73000000000002,25.895999999999958 33.63999999999987,25.885999999999967 L33.63999999999987,25.775999999999954 L35.07999999999993,25.775999999999954 L35.07999999999993,25.885999999999967 C34.929999999999836,25.90700000000004 34.82999999999993,25.934999999999945 34.7800000000002,25.97199999999998 C34.73000000000002,26.008000000000038 34.69999999999982,26.067999999999984 34.69999999999982,26.150999999999954 C34.69999999999982,26.235000000000014 34.7199999999998,26.317999999999984 34.75,26.400999999999954 L35.55000000000018,28.479000000000042 L36.26000000000022,26.885999999999967 M39.2800000000002,28.57299999999998 C39.2800000000002,28.479000000000042 39.289999999999964,28.394000000000005 39.309999999999945,28.315000000000055 C39.32999999999993,28.236999999999966 39.36999999999989,28.162000000000035 39.42000000000007,28.089000000000055 C39.4699999999998,28.015999999999963 39.51999999999998,27.951000000000022 39.57999999999993,27.894000000000005 C39.63000000000011,27.836000000000013 39.69999999999982,27.775999999999954 39.80000000000018,27.714000000000055 C39.88999999999987,27.650999999999954 39.9699999999998,27.599000000000046 40.0300000000002,27.557999999999993 C40.090000000000146,27.515999999999963 40.190000000000055,27.46900000000005 40.309999999999945,27.41700000000003 C40.440000000000055,27.36500000000001 40.5300000000002,27.32299999999998 40.59999999999991,27.29200000000003 C40.67000000000007,27.260999999999967 40.7800000000002,27.216000000000008 40.929999999999836,27.158999999999992 C41.07999999999993,27.101999999999975 41.190000000000055,27.057999999999993 41.25,27.025999999999954 L41.25,26.54200000000003 C41.25,26.104000000000042 41.05000000000018,25.885999999999967 40.65000000000009,25.885999999999967 C40.48999999999978,25.885999999999967 40.34999999999991,25.924999999999955 40.23999999999978,26.003000000000043 C40.13000000000011,26.081000000000017 40.07999999999993,26.172000000000025 40.07999999999993,26.275999999999954 C40.07999999999993,26.317999999999984 40.07999999999993,26.375 40.09999999999991,26.44799999999998 C40.11999999999989,26.520999999999958 40.11999999999989,26.567999999999984 40.11999999999989,26.589000000000055 C40.11999999999989,26.682999999999993 40.090000000000146,26.763000000000034 40.01000000000022,26.831000000000017 C39.940000000000055,26.899 39.84999999999991,26.932999999999993 39.75,26.932999999999993 C39.65000000000009,26.932999999999993 39.570000000000164,26.899 39.51000000000022,26.831000000000017 C39.440000000000055,26.763000000000034 39.40000000000009,26.682999999999993 39.40000000000009,26.589000000000055 C39.40000000000009,26.339000000000055 39.539999999999964,26.128000000000043 39.80000000000018,25.956000000000017 C40.059999999999945,25.783999999999992 40.36999999999989,25.69799999999998 40.75,25.69799999999998 C41.179999999999836,25.69799999999998 41.4699999999998,25.80200000000002 41.63000000000011,26.010999999999967 C41.789999999999964,26.21900000000005 41.86999999999989,26.537000000000035 41.86999999999989,26.964000000000055 L41.86999999999989,28.510999999999967 C41.86999999999989,28.687999999999988 41.88999999999987,28.809999999999945 41.929999999999836,28.878000000000043 C41.960000000000036,28.946000000000026 42.0300000000002,28.979000000000042 42.11999999999989,28.979000000000042 C42.23000000000002,28.979000000000042 42.340000000000146,28.92700000000002 42.4699999999998,28.82299999999998 L42.4699999999998,29.04200000000003 C42.32999999999993,29.19799999999998 42.210000000000036,29.30499999999995 42.11000000000013,29.361999999999966 C42.0,29.41999999999996 41.88000000000011,29.44799999999998 41.75,29.44799999999998 C41.590000000000146,29.44799999999998 41.48000000000002,29.400999999999954 41.40000000000009,29.307999999999993 C41.32999999999993,29.214000000000055 41.289999999999964,29.062999999999988 41.26000000000022,28.854000000000042 C40.809999999999945,29.25 40.42000000000007,29.44799999999998 40.11000000000013,29.44799999999998 C39.86999999999989,29.44799999999998 39.67000000000007,29.366999999999962 39.51000000000022,29.206000000000017 C39.36000000000013,29.04499999999996 39.2800000000002,28.833999999999946 39.2800000000002,28.57299999999998 M41.25,28.370000000000005 L41.25,27.214000000000055 C40.76999999999998,27.390999999999963 40.440000000000055,27.562999999999988 40.25,27.729000000000042 C40.059999999999945,27.895999999999958 39.9699999999998,28.09400000000005 39.9699999999998,28.32299999999998 C39.9699999999998,28.54200000000003 40.01999999999998,28.702999999999975 40.11999999999989,28.807999999999993 C40.23000000000002,28.912000000000035 40.340000000000146,28.964000000000055 40.4699999999998,28.964000000000055 C40.63999999999987,28.964000000000055 40.840000000000146,28.90700000000004 41.05000000000018,28.79200000000003 C41.13000000000011,28.74000000000001 41.179999999999836,28.687999999999988 41.210000000000036,28.635999999999967 C41.23999999999978,28.583999999999946 41.25,28.495000000000005 41.25,28.370000000000005 M44.940000000000055,26.44799999999998 C44.84999999999991,26.44799999999998 44.75,26.400999999999954 44.63000000000011,26.307999999999993 C44.51000000000022,26.214000000000055 44.440000000000055,26.16700000000003 44.40000000000009,26.16700000000003 C44.30000000000018,26.16700000000003 44.179999999999836,26.245000000000005 44.05000000000018,26.400999999999954 C43.909999999999854,26.557999999999993 43.840000000000146,26.702999999999975 43.840000000000146,26.839000000000055 L43.840000000000146,28.650999999999954 C43.840000000000146,28.879999999999995 43.88999999999987,29.033999999999992 43.98000000000002,29.111999999999966 C44.059999999999945,29.190000000000055 44.23999999999978,29.235000000000014 44.51000000000022,29.245000000000005 L44.51000000000022,29.370000000000005 L42.590000000000146,29.370000000000005 L42.590000000000146,29.245000000000005 C42.84999999999991,29.202999999999975 43.01000000000022,29.150999999999954 43.070000000000164,29.089000000000055 C43.13000000000011,29.025999999999954 43.15000000000009,28.895999999999958 43.15000000000009,28.69799999999998 L43.15000000000009,26.682999999999993 C43.15000000000009,26.504999999999995 43.13999999999987,26.379999999999995 43.09999999999991,26.307999999999993 C43.059999999999945,26.235000000000014 42.98999999999978,26.19799999999998 42.88999999999987,26.19799999999998 C42.809999999999945,26.19799999999998 42.710000000000036,26.208999999999946 42.61000000000013,26.229000000000042 L42.61000000000013,26.104000000000042 C43.039999999999964,25.96900000000005 43.429999999999836,25.833999999999946 43.80000000000018,25.69799999999998 L43.840000000000146,25.714000000000055 L43.840000000000146,26.41700000000003 C44.039999999999964,26.145999999999958 44.210000000000036,25.958999999999946 44.340000000000146,25.854000000000042 C44.48000000000002,25.75 44.63000000000011,25.69799999999998 44.80000000000018,25.69799999999998 C44.940000000000055,25.69799999999998 45.05000000000018,25.73199999999997 45.11999999999989,25.799999999999955 C45.19999999999982,25.866999999999962 45.23000000000002,25.96900000000005 45.23000000000002,26.104000000000042 C45.23000000000002,26.208999999999946 45.210000000000036,26.29200000000003 45.15000000000009,26.354000000000042 C45.09999999999991,26.41700000000003 45.0300000000002,26.44799999999998 44.940000000000055,26.44799999999998 M47.92000000000007,24.729000000000042 C47.840000000000146,24.729000000000042 47.76000000000022,24.69799999999998 47.69999999999982,24.635999999999967 C47.63999999999987,24.57299999999998 47.590000000000146,24.504999999999995 47.55000000000018,24.432999999999993 C47.51999999999998,24.360000000000014 47.460000000000036,24.29200000000003 47.38999999999987,24.229000000000042 C47.320000000000164,24.16700000000003 47.23000000000002,24.135999999999967 47.13999999999987,24.135999999999967 C46.840000000000146,24.135999999999967 46.690000000000055,24.370000000000005 46.690000000000055,24.839000000000055 L46.690000000000055,25.775999999999954 L47.67000000000007,25.775999999999954 L47.67000000000007,26.010999999999967 L46.690000000000055,26.010999999999967 L46.690000000000055,28.54200000000003 C46.690000000000055,28.833999999999946 46.73000000000002,29.020999999999958 46.809999999999945,29.104000000000042 C46.88999999999987,29.187999999999988 47.09999999999991,29.235000000000014 47.440000000000055,29.245000000000005 L47.440000000000055,29.370000000000005 L45.340000000000146,29.370000000000005 L45.340000000000146,29.245000000000005 C45.63000000000011,29.235000000000014 45.820000000000164,29.187999999999988 45.90000000000009,29.104000000000042 C45.98000000000002,29.020999999999958 46.01000000000022,28.833999999999946 46.01000000000022,28.54200000000003 L46.01000000000022,26.010999999999967 L45.36000000000013,26.010999999999967 L45.36000000000013,25.775999999999954 L46.01000000000022,25.775999999999954 C46.01999999999998,25.172000000000025 46.13999999999987,24.706000000000017 46.34999999999991,24.378000000000043 C46.559999999999945,24.049999999999955 46.92000000000007,23.885999999999967 47.42000000000007,23.885999999999967 C47.659999999999854,23.885999999999967 47.86000000000013,23.934999999999945 48.01000000000022,24.033999999999992 C48.17000000000007,24.133000000000038 48.25,24.254999999999995 48.25,24.400999999999954 C48.25,24.495000000000005 48.2199999999998,24.57299999999998 48.15000000000009,24.635999999999967 C48.090000000000146,24.69799999999998 48.01000000000022,24.729000000000042 47.92000000000007,24.729000000000042 M55.61999999999989,24.79200000000003 L53.57999999999993,29.370000000000005 L53.4699999999998,29.370000000000005 L51.4699999999998,24.979000000000042 L51.4699999999998,28.19799999999998 C51.4699999999998,28.604000000000042 51.51000000000022,28.873000000000047 51.61000000000013,29.003000000000043 C51.69999999999982,29.133000000000038 51.90000000000009,29.202999999999975 52.2199999999998,29.214000000000055 L52.2199999999998,29.370000000000005 L50.340000000000146,29.370000000000005 L50.340000000000146,29.214000000000055 C50.67000000000007,29.192999999999984 50.86999999999989,29.120000000000005 50.9699999999998,28.995000000000005 C51.059999999999945,28.870000000000005 51.11000000000013,28.604000000000042 51.11000000000013,28.19799999999998 L51.11000000000013,24.94799999999998 C51.11000000000013,24.65700000000004 51.059999999999945,24.46900000000005 50.98000000000002,24.385999999999967 C50.88999999999987,24.30200000000002 50.679999999999836,24.25 50.36000000000013,24.229000000000042 L50.36000000000013,24.07299999999998 L51.940000000000055,24.07299999999998 L53.7800000000002,28.120000000000005 L55.55000000000018,24.07299999999998 L57.13999999999987,24.07299999999998 L57.13999999999987,24.229000000000042 C56.840000000000146,24.260999999999967 56.65000000000009,24.317999999999984 56.570000000000164,24.400999999999954 C56.48999999999978,24.485000000000014 56.44999999999982,24.66700000000003 56.44999999999982,24.94799999999998 L56.44999999999982,28.495000000000005 C56.44999999999982,28.775999999999954 56.48999999999978,28.961000000000013 56.57999999999993,29.049999999999955 C56.659999999999854,29.138000000000034 56.84999999999991,29.192999999999984 57.13999999999987,29.214000000000055 L57.13999999999987,29.370000000000005 L54.90000000000009,29.370000000000005 L54.90000000000009,29.214000000000055 C55.2199999999998,29.192999999999984 55.42000000000007,29.135999999999967 55.5,29.04200000000003 C55.57999999999993,28.94799999999998 55.61999999999989,28.74000000000001 55.61999999999989,28.41700000000003 L55.61999999999989,24.79200000000003 M61.11000000000013,28.94799999999998 L61.11000000000013,29.07299999999998 C60.690000000000055,29.187999999999988 60.32999999999993,29.312999999999988 60.01000000000022,29.44799999999998 L59.98000000000002,29.432999999999993 L59.9699999999998,28.745000000000005 C59.960000000000036,28.765999999999963 59.909999999999854,28.815000000000055 59.82999999999993,28.894000000000005 C59.76000000000022,28.97199999999998 59.69999999999982,29.025999999999954 59.67000000000007,29.057999999999993 C59.63999999999987,29.089000000000055 59.57999999999993,29.135999999999967 59.51000000000022,29.19799999999998 C59.429999999999836,29.260999999999967 59.36000000000013,29.30499999999995 59.30000000000018,29.331000000000017 C59.25,29.35699999999997 59.17000000000007,29.383000000000038 59.07999999999993,29.408999999999992 C59.0,29.434999999999945 58.90000000000009,29.44799999999998 58.809999999999945,29.44799999999998 C58.51999999999998,29.44799999999998 58.289999999999964,29.351999999999975 58.11000000000013,29.158999999999992 C57.929999999999836,28.966000000000008 57.840000000000146,28.714000000000055 57.840000000000146,28.400999999999954 L57.840000000000146,26.385999999999967 C57.840000000000146,26.208999999999946 57.809999999999945,26.083999999999946 57.73999999999978,26.010999999999967 C57.67000000000007,25.937999999999988 57.539999999999964,25.895999999999958 57.340000000000146,25.885999999999967 L57.340000000000146,25.775999999999954 L58.51000000000022,25.775999999999954 L58.51000000000022,28.370000000000005 C58.51000000000022,28.525999999999954 58.570000000000164,28.663999999999987 58.690000000000055,28.783999999999992 C58.80000000000018,28.903999999999996 58.929999999999836,28.964000000000055 59.07999999999993,28.964000000000055 C59.13999999999987,28.964000000000055 59.210000000000036,28.956000000000017 59.289999999999964,28.940000000000055 C59.36999999999989,28.924999999999955 59.460000000000036,28.895999999999958 59.559999999999945,28.854000000000042 C59.67000000000007,28.812999999999988 59.75,28.741999999999962 59.82999999999993,28.644000000000005 C59.90000000000009,28.54499999999996 59.940000000000055,28.422000000000025 59.940000000000055,28.275999999999954 L59.940000000000055,26.400999999999954 C59.940000000000055,26.214000000000055 59.90000000000009,26.086000000000013 59.82999999999993,26.019000000000005 C59.75,25.951000000000022 59.590000000000146,25.912000000000035 59.340000000000146,25.900999999999954 L59.340000000000146,25.775999999999954 L60.61000000000013,25.775999999999954 L60.61000000000013,28.495000000000005 C60.61000000000013,28.682999999999993 60.63999999999987,28.80499999999995 60.69999999999982,28.861999999999966 C60.76000000000022,28.91999999999996 60.88999999999987,28.94799999999998 61.07999999999993,28.94799999999998 L61.11000000000013,28.94799999999998 M63.309999999999945,25.854000000000042 C63.320000000000164,25.854000000000042 63.36000000000013,25.827999999999975 63.440000000000055,25.775999999999954 L63.5300000000002,25.775999999999954 L63.559999999999945,26.854000000000042 L63.440000000000055,26.854000000000042 C63.34999999999991,26.5 63.23999999999978,26.248000000000047 63.11000000000013,26.09699999999998 C62.9699999999998,25.946000000000026 62.789999999999964,25.870000000000005 62.559999999999945,25.870000000000005 C62.38000000000011,25.870000000000005 62.23999999999978,25.922000000000025 62.11999999999989,26.025999999999954 C62.01000000000022,26.129999999999995 61.94999999999982,26.260999999999967 61.94999999999982,26.41700000000003 C61.94999999999982,26.645999999999958 62.070000000000164,26.827999999999975 62.30000000000018,26.964000000000055 L63.15000000000009,27.479000000000042 C63.38999999999987,27.625 63.570000000000164,27.770999999999958 63.67000000000007,27.91700000000003 C63.76999999999998,28.062999999999988 63.82999999999993,28.235000000000014 63.82999999999993,28.432999999999993 C63.82999999999993,28.702999999999975 63.710000000000036,28.940000000000055 63.48999999999978,29.144000000000005 C63.26999999999998,29.34699999999998 63.0,29.44799999999998 62.69999999999982,29.44799999999998 C62.570000000000164,29.44799999999998 62.38999999999987,29.424999999999955 62.159999999999854,29.378000000000043 C61.940000000000055,29.331000000000017 61.80000000000018,29.307999999999993 61.75,29.307999999999993 C61.67000000000007,29.307999999999993 61.59999999999991,29.339000000000055 61.559999999999945,29.400999999999954 L61.44999999999982,29.400999999999954 L61.44999999999982,28.150999999999954 L61.590000000000146,28.150999999999954 C61.679999999999836,28.525999999999954 61.76999999999998,28.79200000000003 61.88999999999987,28.94799999999998 C62.059999999999945,29.16700000000003 62.30000000000018,29.275999999999954 62.61000000000013,29.275999999999954 C62.809999999999945,29.275999999999954 62.960000000000036,29.224000000000046 63.07999999999993,29.120000000000005 C63.19999999999982,29.015999999999963 63.26000000000022,28.875 63.26000000000022,28.69799999999998 C63.26000000000022,28.458999999999946 63.11999999999989,28.260999999999967 62.840000000000146,28.104000000000042 L62.38999999999987,27.839000000000055 C62.05000000000018,27.640999999999963 61.80000000000018,27.456000000000017 61.659999999999854,27.283999999999992 C61.51999999999998,27.111999999999966 61.44999999999982,26.912000000000035 61.44999999999982,26.682999999999993 C61.44999999999982,26.390999999999963 61.55000000000018,26.153999999999996 61.76000000000022,25.97199999999998 C61.960000000000036,25.788999999999987 62.2199999999998,25.69799999999998 62.55000000000018,25.69799999999998 C62.710000000000036,25.69799999999998 62.86999999999989,25.724000000000046 63.0300000000002,25.775999999999954 C63.190000000000055,25.827999999999975 63.2800000000002,25.854000000000042 63.309999999999945,25.854000000000042 M64.59000000000015,26.229000000000042 C64.4699999999998,26.229000000000042 64.34999999999991,26.235000000000014 64.25,26.245000000000005 L64.25,26.135999999999967 C64.61999999999989,26.03200000000004 65.03999999999996,25.885999999999967 65.5,25.69799999999998 L65.5300000000002,25.714000000000055 L65.5300000000002,28.557999999999993 C65.5300000000002,28.839000000000055 65.55999999999995,29.019000000000005 65.63000000000011,29.09699999999998 C65.69999999999982,29.174999999999955 65.86000000000013,29.224000000000046 66.11999999999989,29.245000000000005 L66.11999999999989,29.370000000000005 L64.2199999999998,29.370000000000005 L64.2199999999998,29.245000000000005 C64.5,29.235000000000014 64.67999999999984,29.187999999999988 64.75,29.104000000000042 C64.82000000000016,29.020999999999958 64.86000000000013,28.839000000000055 64.86000000000013,28.557999999999993 L64.86000000000013,26.69799999999998 C64.86000000000013,26.520999999999958 64.84000000000015,26.399 64.80000000000018,26.331000000000017 C64.75,26.263000000000034 64.69000000000005,26.229000000000042 64.59000000000015,26.229000000000042 M65.11999999999989,23.900999999999954 C65.23999999999978,23.900999999999954 65.34000000000015,23.942999999999984 65.42000000000007,24.025999999999954 C65.5,24.110000000000014 65.55000000000018,24.208999999999946 65.55000000000018,24.32299999999998 C65.55000000000018,24.437999999999988 65.5,24.533999999999992 65.42000000000007,24.611999999999966 C65.34000000000015,24.690000000000055 65.23999999999978,24.729000000000042 65.11999999999989,24.729000000000042 C65.01000000000022,24.729000000000042 64.90999999999985,24.687999999999988 64.82999999999993,24.604000000000042 C64.76000000000022,24.520999999999958 64.7199999999998,24.424999999999955 64.7199999999998,24.315000000000055 C64.7199999999998,24.206000000000017 64.76000000000022,24.110000000000014 64.82999999999993,24.025999999999954 C64.90999999999985,23.942999999999984 65.01000000000022,23.900999999999954 65.11999999999989,23.900999999999954 M66.51000000000022,27.66700000000003 C66.51000000000022,27.07299999999998 66.69000000000005,26.59699999999998 67.03999999999996,26.236999999999966 C67.38999999999987,25.878000000000043 67.80000000000018,25.69799999999998 68.26000000000022,25.69799999999998 C68.59999999999991,25.69799999999998 68.88000000000011,25.778999999999996 69.11999999999989,25.940000000000055 C69.34999999999991,26.101999999999975 69.4699999999998,26.297000000000025 69.4699999999998,26.525999999999954 C69.4699999999998,26.610000000000014 69.42999999999984,26.684999999999945 69.36000000000013,26.753000000000043 C69.28999999999996,26.821000000000026 69.19999999999982,26.854000000000042 69.09000000000015,26.854000000000042 C68.92000000000007,26.854000000000042 68.80000000000018,26.735000000000014 68.73000000000002,26.495000000000005 L68.69000000000005,26.32299999999998 C68.63999999999987,26.16700000000003 68.59000000000015,26.062999999999988 68.5300000000002,26.010999999999967 C68.4699999999998,25.958999999999946 68.36000000000013,25.932999999999993 68.2199999999998,25.932999999999993 C67.88999999999987,25.932999999999993 67.63000000000011,26.059999999999945 67.44000000000005,26.315000000000055 C67.23999999999978,26.571000000000026 67.13999999999987,26.90700000000004 67.13999999999987,27.32299999999998 C67.13999999999987,27.770999999999958 67.25,28.140999999999963 67.48000000000002,28.432999999999993 C67.71000000000004,28.724000000000046 68.01000000000022,28.870000000000005 68.36999999999989,28.870000000000005 C68.59000000000015,28.870000000000005 68.7800000000002,28.812999999999988 68.94000000000005,28.69799999999998 C69.11000000000013,28.583999999999946 69.2800000000002,28.390999999999963 69.4699999999998,28.120000000000005 L69.57999999999993,28.182999999999993 C69.51999999999998,28.297000000000025 69.48000000000002,28.388000000000034 69.44000000000005,28.456000000000017 C69.40999999999985,28.524 69.34000000000015,28.628000000000043 69.23000000000002,28.769000000000005 C69.13000000000011,28.908999999999992 69.0300000000002,29.020999999999958 68.92999999999984,29.104000000000042 C68.82999999999993,29.187999999999988 68.69999999999982,29.265999999999963 68.53999999999996,29.339000000000055 C68.38000000000011,29.412000000000035 68.21000000000004,29.44799999999998 68.0300000000002,29.44799999999998 C67.59000000000015,29.44799999999998 67.23000000000002,29.28200000000004 66.94000000000005,28.94799999999998 C66.65999999999985,28.61500000000001 66.51000000000022,28.187999999999988 66.51000000000022,27.66700000000003 M70.86000000000013,28.57299999999998 C70.9699999999998,28.57299999999998 71.07000000000016,28.616999999999962 71.15999999999985,28.706000000000017 C71.25,28.79499999999996 71.30000000000018,28.900999999999954 71.30000000000018,29.025999999999954 C71.30000000000018,29.140999999999963 71.25,29.241999999999962 71.15999999999985,29.331000000000017 C71.07000000000016,29.41999999999996 70.9699999999998,29.464000000000055 70.84000000000015,29.464000000000055 C70.73000000000002,29.464000000000055 70.63000000000011,29.41999999999996 70.55000000000018,29.331000000000017 C70.46000000000004,29.241999999999962 70.42000000000007,29.140999999999963 70.42000000000007,29.025999999999954 C70.42000000000007,28.900999999999954 70.46000000000004,28.79499999999996 70.55000000000018,28.706000000000017 C70.63999999999987,28.616999999999962 70.73999999999978,28.57299999999998 70.86000000000013,28.57299999999998" />
</svg>
