<?xml version="1.0" encoding="UTF-8" standalone="yes"?>
<svg width="256.0px" height="256.0px" xmlns="http://www.w3.org/2000/svg" xmlns:xlink="http://www.w3.org/1999/xlink" version="1.2" baseProfile="tiny">
<path d="M155.60999999999967,30.79200000000003 C155.47000000000025,30.69799999999998 155.32999999999993,30.591000000000008 155.1800000000003,30.47199999999998 C155.02999999999975,30.351999999999975 154.85999999999967,30.184999999999945 154.67000000000007,29.97199999999998 C154.47999999999956,29.758000000000038 154.3199999999997,29.53200000000004 154.17000000000007,29.29200000000003 C154.02999999999975,29.05200000000002 153.90999999999985,28.760999999999967 153.8100000000004,28.41700000000003 C153.72000000000025,28.07299999999998 153.67000000000007,27.71900000000005 153.67000000000007,27.354000000000042 C153.67000000000007,26.96900000000005 153.72000000000025,26.604000000000042 153.8100000000004,26.260999999999967 C153.90999999999985,25.91700000000003 154.02000000000044,25.633000000000038 154.15999999999985,25.408999999999992 C154.28999999999996,25.184999999999945 154.46000000000004,24.966000000000008 154.65999999999985,24.753000000000043 C154.8699999999999,24.538999999999987 155.03999999999996,24.383000000000038 155.17000000000007,24.283999999999992 C155.3100000000004,24.184999999999945 155.46000000000004,24.077999999999975 155.6300000000001,23.964000000000055 L155.69999999999982,24.089000000000055 C155.47000000000025,24.287000000000035 155.28999999999996,24.461000000000013 155.14000000000033,24.611999999999966 C155.0,24.763000000000034 154.85000000000036,24.964000000000055 154.72000000000025,25.214000000000055 C154.57999999999993,25.464000000000055 154.48999999999978,25.760999999999967 154.4300000000003,26.104000000000042 C154.3699999999999,26.44799999999998 154.34000000000015,26.860000000000014 154.34000000000015,27.339000000000055 C154.34000000000015,27.827999999999975 154.3699999999999,28.253000000000043 154.4300000000003,28.611999999999966 C154.48999999999978,28.97199999999998 154.57999999999993,29.275999999999954 154.72000000000025,29.525999999999954 C154.85000000000036,29.775999999999954 155.0,29.98199999999997 155.14000000000033,30.144000000000005 C155.28999999999996,30.30499999999995 155.47000000000025,30.474000000000046 155.69999999999982,30.650999999999954 L155.60999999999967,30.79200000000003 M156.14000000000033,27.66700000000003 C156.14000000000033,27.07299999999998 156.3199999999997,26.59699999999998 156.65999999999985,26.236999999999966 C157.01000000000022,25.878000000000043 157.42000000000007,25.69799999999998 157.89000000000033,25.69799999999998 C158.22000000000025,25.69799999999998 158.51000000000022,25.778999999999996 158.73999999999978,25.940000000000055 C158.97999999999956,26.101999999999975 159.09000000000015,26.297000000000025 159.09000000000015,26.525999999999954 C159.09000000000015,26.610000000000014 159.0600000000004,26.684999999999945 158.97999999999956,26.753000000000043 C158.90999999999985,26.821000000000026 158.8199999999997,26.854000000000042 158.72000000000025,26.854000000000042 C158.53999999999996,26.854000000000042 158.42000000000007,26.735000000000014 158.35999999999967,26.495000000000005 L158.3100000000004,26.32299999999998 C158.27000000000044,26.16700000000003 158.22000000000025,26.062999999999988 158.15999999999985,26.010999999999967 C158.09000000000015,25.958999999999946 157.98999999999978,25.932999999999993 157.84000000000015,25.932999999999993 C157.52000000000044,25.932999999999993 157.26000000000022,26.059999999999945 157.0600000000004,26.315000000000055 C156.85999999999967,26.571000000000026 156.77000000000044,26.90700000000004 156.77000000000044,27.32299999999998 C156.77000000000044,27.770999999999958 156.8800000000001,28.140999999999963 157.10999999999967,28.432999999999993 C157.34000000000015,28.724000000000046 157.64000000000033,28.870000000000005 158.0,28.870000000000005 C158.22000000000025,28.870000000000005 158.40999999999985,28.812999999999988 158.5699999999997,28.69799999999998 C158.72999999999956,28.583999999999946 158.90999999999985,28.390999999999963 159.09000000000015,28.120000000000005 L159.19999999999982,28.182999999999993 C159.14999999999964,28.297000000000025 159.10999999999967,28.388000000000034 159.0699999999997,28.456000000000017 C159.02999999999975,28.524 158.96000000000004,28.628000000000043 158.85999999999967,28.769000000000005 C158.76000000000022,28.908999999999992 158.64999999999964,29.020999999999958 158.55000000000018,29.104000000000042 C158.46000000000004,29.187999999999988 158.32999999999993,29.265999999999963 158.15999999999985,29.339000000000055 C158.0,29.412000000000035 157.82999999999993,29.44799999999998 157.65999999999985,29.44799999999998 C157.22000000000025,29.44799999999998 156.85999999999967,29.28200000000004 156.5699999999997,28.94799999999998 C156.27999999999975,28.61500000000001 156.14000000000033,28.187999999999988 156.14000000000033,27.66700000000003 M159.8100000000004,23.964000000000055 C159.96000000000004,24.047000000000025 160.10000000000036,24.149 160.25,24.269000000000005 C160.39999999999964,24.388000000000034 160.5699999999997,24.55499999999995 160.76000000000022,24.769000000000005 C160.94999999999982,24.98199999999997 161.1199999999999,25.211000000000013 161.26000000000022,25.456000000000017 C161.39999999999964,25.701000000000022 161.52000000000044,25.991999999999962 161.6199999999999,26.331000000000017 C161.72000000000025,26.66999999999996 161.77000000000044,27.025999999999954 161.77000000000044,27.400999999999954 C161.77000000000044,27.775999999999954 161.72000000000025,28.135999999999967 161.6199999999999,28.479000000000042 C161.52000000000044,28.82299999999998 161.39999999999964,29.110000000000014 161.27000000000044,29.339000000000055 C161.14000000000033,29.567999999999984 160.97000000000025,29.787000000000035 160.77000000000044,29.995000000000005 C160.5600000000004,30.202999999999975 160.39000000000033,30.360000000000014 160.26000000000022,30.464000000000055 C160.1300000000001,30.567999999999984 159.97000000000025,30.67700000000002 159.80000000000018,30.79200000000003 L159.72000000000025,30.650999999999954 C159.96000000000004,30.464000000000055 160.14999999999964,30.29200000000003 160.30000000000018,30.135999999999967 C160.4399999999996,29.979000000000042 160.57999999999993,29.778999999999996 160.71000000000004,29.533999999999992 C160.84000000000015,29.288999999999987 160.9399999999996,28.995000000000005 160.98999999999978,28.650999999999954 C161.05000000000018,28.307999999999993 161.07999999999993,27.895999999999958 161.07999999999993,27.41700000000003 C161.07999999999993,26.92700000000002 161.05000000000018,26.503000000000043 160.98999999999978,26.144000000000005 C160.9399999999996,25.783999999999992 160.84000000000015,25.476999999999975 160.71000000000004,25.22199999999998 C160.57999999999993,24.966000000000008 160.4399999999996,24.760999999999967 160.30000000000018,24.604000000000042 C160.14999999999964,24.44799999999998 159.96000000000004,24.275999999999954 159.72000000000025,24.089000000000055 L159.8100000000004,23.964000000000055 M165.59000000000015,24.635999999999967 C165.48999999999978,24.635999999999967 165.30000000000018,24.692999999999984 165.02000000000044,24.807999999999993 L165.02000000000044,24.69799999999998 L166.4399999999996,23.964000000000055 L166.5,23.979000000000042 L166.5,28.775999999999954 C166.5,28.974000000000046 166.55000000000018,29.101999999999975 166.64999999999964,29.158999999999992 C166.75,29.216000000000008 166.94999999999982,29.245000000000005 167.27000000000044,29.245000000000005 L167.27000000000044,29.370000000000005 L165.0600000000004,29.370000000000005 L165.0600000000004,29.245000000000005 C165.35999999999967,29.235000000000014 165.5699999999997,29.190000000000055 165.67000000000007,29.111999999999966 C165.77999999999975,29.033999999999992 165.82999999999993,28.870000000000005 165.82999999999993,28.620000000000005 L165.82999999999993,25.010999999999967 C165.82999999999993,24.760999999999967 165.75,24.635999999999967 165.59000000000015,24.635999999999967 M168.57999999999993,29.54200000000003 L168.5600000000004,29.385999999999967 C169.17000000000007,29.28200000000004 169.6800000000003,29.024 170.10000000000036,28.611999999999966 C170.52000000000044,28.201000000000022 170.8199999999997,27.66700000000003 170.97999999999956,27.010999999999967 C170.59000000000015,27.32299999999998 170.1899999999996,27.479000000000042 169.77999999999975,27.479000000000042 C169.35000000000036,27.479000000000042 169.01000000000022,27.327999999999975 168.73999999999978,27.025999999999954 C168.47999999999956,26.724000000000046 168.34000000000015,26.333999999999946 168.34000000000015,25.854000000000042 C168.34000000000015,25.312999999999988 168.5,24.860000000000014 168.8199999999997,24.495000000000005 C169.14000000000033,24.129999999999995 169.53999999999996,23.94799999999998 170.02000000000044,23.94799999999998 C170.55000000000018,23.94799999999998 170.97999999999956,24.158999999999992 171.3100000000004,24.581000000000017 C171.64999999999964,25.003000000000043 171.8100000000004,25.547000000000025 171.8100000000004,26.214000000000055 C171.8100000000004,26.432999999999993 171.78999999999996,26.653999999999996 171.76000000000022,26.878000000000043 C171.72000000000025,27.101999999999975 171.64000000000033,27.366999999999962 171.5,27.674999999999955 C171.35999999999967,27.98199999999997 171.1899999999996,28.254999999999995 170.96000000000004,28.495000000000005 C170.73999999999978,28.735000000000014 170.42000000000007,28.952999999999975 170.02000000000044,29.150999999999954 C169.60999999999967,29.349000000000046 169.1300000000001,29.479000000000042 168.57999999999993,29.54200000000003 M170.07999999999993,27.120000000000005 C170.1800000000003,27.120000000000005 170.30000000000018,27.10699999999997 170.42000000000007,27.081000000000017 C170.55000000000018,27.05499999999995 170.67000000000007,26.991999999999962 170.80000000000018,26.894000000000005 C170.9399999999996,26.79499999999996 171.0,26.672000000000025 171.0,26.525999999999954 L171.0,26.214000000000055 C171.0,24.860000000000014 170.64999999999964,24.182999999999993 169.94999999999982,24.182999999999993 C169.78999999999996,24.182999999999993 169.64000000000033,24.226999999999975 169.52000000000044,24.315000000000055 C169.39999999999964,24.403999999999996 169.3199999999997,24.520999999999958 169.26000000000022,24.66700000000003 C169.19999999999982,24.812999999999988 169.15999999999985,24.958999999999946 169.1300000000001,25.104000000000042 C169.09000000000015,25.25 169.07999999999993,25.40700000000004 169.07999999999993,25.57299999999998 C169.07999999999993,26.05200000000002 169.17000000000007,26.42999999999995 169.35000000000036,26.706000000000017 C169.52999999999975,26.98199999999997 169.77999999999975,27.120000000000005 170.07999999999993,27.120000000000005 M174.15999999999985,29.479000000000042 C173.60999999999967,29.479000000000042 173.1800000000003,29.265999999999963 172.85000000000036,28.839000000000055 C172.52000000000044,28.412000000000035 172.35999999999967,27.84400000000005 172.35999999999967,27.135999999999967 C172.35999999999967,26.91700000000003 172.3800000000001,26.692999999999984 172.4300000000003,26.464000000000055 C172.47999999999956,26.235000000000014 172.5699999999997,25.97199999999998 172.71000000000004,25.674999999999955 C172.85000000000036,25.378000000000043 173.03999999999996,25.111999999999966 173.27000000000044,24.878000000000043 C173.51000000000022,24.644000000000005 173.82999999999993,24.434999999999945 174.23999999999978,24.253000000000043 C174.64999999999964,24.071000000000026 175.1300000000001,23.952999999999975 175.67000000000007,23.900999999999954 L175.6899999999996,24.025999999999954 C175.05000000000018,24.129999999999995 174.52000000000044,24.385999999999967 174.10000000000036,24.79200000000003 C173.6800000000003,25.19799999999998 173.40999999999985,25.702999999999975 173.30000000000018,26.307999999999993 C173.55000000000018,26.162000000000035 173.73999999999978,26.067999999999984 173.8699999999999,26.025999999999954 C174.0,25.985000000000014 174.14999999999964,25.964000000000055 174.32999999999993,25.964000000000055 C174.80000000000018,25.964000000000055 175.17000000000007,26.111999999999966 175.44999999999982,26.408999999999992 C175.72000000000025,26.706000000000017 175.85999999999967,27.104000000000042 175.85999999999967,27.604000000000042 C175.85999999999967,28.15700000000004 175.69999999999982,28.60699999999997 175.3800000000001,28.956000000000017 C175.0699999999997,29.30499999999995 174.65999999999985,29.479000000000042 174.15999999999985,29.479000000000042 M174.02999999999975,26.32299999999998 C173.67000000000007,26.32299999999998 173.42000000000007,26.400999999999954 173.28999999999996,26.557999999999993 C173.15999999999985,26.714000000000055 173.09000000000015,26.94799999999998 173.09000000000015,27.260999999999967 C173.09000000000015,27.875 173.19999999999982,28.360000000000014 173.40999999999985,28.714000000000055 C173.60999999999967,29.067999999999984 173.89000000000033,29.245000000000005 174.22999999999956,29.245000000000005 C174.52999999999975,29.245000000000005 174.75,29.128000000000043 174.89000000000033,28.894000000000005 C175.03999999999996,28.658999999999992 175.10999999999967,28.32299999999998 175.10999999999967,27.885999999999967 C175.10999999999967,27.385999999999967 175.02000000000044,27.0 174.82999999999993,26.729000000000042 C174.64000000000033,26.458999999999946 174.3800000000001,26.32299999999998 174.02999999999975,26.32299999999998 M178.40999999999985,26.400999999999954 C178.89999999999964,26.754999999999995 179.22999999999956,27.05200000000002 179.39999999999964,27.29200000000003 C179.5699999999997,27.53200000000004 179.65999999999985,27.807999999999993 179.65999999999985,28.120000000000005 C179.65999999999985,28.537000000000035 179.51000000000022,28.866999999999962 179.22999999999956,29.111999999999966 C178.9399999999996,29.35699999999997 178.5600000000004,29.479000000000042 178.07999999999993,29.479000000000042 C177.6199999999999,29.479000000000042 177.25,29.35699999999997 176.96000000000004,29.111999999999966 C176.67000000000007,28.866999999999962 176.52999999999975,28.547000000000025 176.52999999999975,28.150999999999954 C176.52999999999975,27.879999999999995 176.60000000000036,27.653999999999996 176.72999999999956,27.47199999999998 C176.85999999999967,27.288999999999987 177.14000000000033,27.037000000000035 177.57999999999993,26.714000000000055 C177.14999999999964,26.339000000000055 176.8800000000001,26.062999999999988 176.76000000000022,25.885999999999967 C176.64000000000033,25.708999999999946 176.57999999999993,25.49000000000001 176.57999999999993,25.229000000000042 C176.57999999999993,24.86500000000001 176.72000000000025,24.559999999999945 177.01000000000022,24.315000000000055 C177.28999999999996,24.071000000000026 177.65999999999985,23.94799999999998 178.10999999999967,23.94799999999998 C178.51000000000022,23.94799999999998 178.82999999999993,24.05499999999995 179.09000000000015,24.269000000000005 C179.34000000000015,24.48199999999997 179.47000000000025,24.760999999999967 179.47000000000025,25.104000000000042 C179.47000000000025,25.375 179.39000000000033,25.604000000000042 179.22999999999956,25.79200000000003 C179.07999999999993,25.979000000000042 178.80000000000018,26.182999999999993 178.40999999999985,26.400999999999954 M177.77999999999975,26.870000000000005 C177.55000000000018,27.057999999999993 177.39000000000033,27.241999999999962 177.30000000000018,27.424999999999955 C177.19999999999982,27.60699999999997 177.15999999999985,27.827999999999975 177.15999999999985,28.089000000000055 C177.15999999999985,28.432999999999993 177.25,28.711000000000013 177.4300000000003,28.924999999999955 C177.60999999999967,29.138000000000034 177.85000000000036,29.245000000000005 178.15999999999985,29.245000000000005 C178.42000000000007,29.245000000000005 178.6300000000001,29.163999999999987 178.78999999999996,29.003000000000043 C178.94999999999982,28.841000000000008 179.02999999999975,28.629999999999995 179.02999999999975,28.370000000000005 C179.02999999999975,28.287000000000035 179.02000000000044,28.206000000000017 179.01000000000022,28.128000000000043 C178.98999999999978,28.049999999999955 178.97000000000025,27.985000000000014 178.94999999999982,27.932999999999993 C178.9300000000003,27.879999999999995 178.89000000000033,27.817999999999984 178.84000000000015,27.745000000000005 C178.77999999999975,27.672000000000025 178.72999999999956,27.616999999999962 178.69999999999982,27.581000000000017 C178.67000000000007,27.54499999999996 178.60999999999967,27.486999999999966 178.52000000000044,27.408999999999992 C178.4399999999996,27.331000000000017 178.3699999999999,27.275999999999954 178.3199999999997,27.245000000000005 C178.27000000000044,27.214000000000055 178.1899999999996,27.153999999999996 178.0600000000004,27.065000000000055 C177.9399999999996,26.976999999999975 177.84000000000015,26.912000000000035 177.77999999999975,26.870000000000005 M178.17000000000007,26.260999999999967 C178.1800000000003,26.25 178.22000000000025,26.22199999999998 178.28999999999996,26.174999999999955 C178.35999999999967,26.128000000000043 178.39999999999964,26.091000000000008 178.4300000000003,26.065000000000055 C178.46000000000004,26.038999999999987 178.5,26.0 178.5600000000004,25.94799999999998 C178.6300000000001,25.895999999999958 178.67000000000007,25.84400000000005 178.69999999999982,25.79200000000003 C178.72999999999956,25.74000000000001 178.77000000000044,25.67700000000002 178.8100000000004,25.604000000000042 C178.85000000000036,25.53200000000004 178.8800000000001,25.451000000000022 178.89999999999964,25.361999999999966 C178.90999999999985,25.274 178.92000000000007,25.182999999999993 178.92000000000007,25.089000000000055 C178.92000000000007,24.817999999999984 178.84000000000015,24.599000000000046 178.6899999999996,24.432999999999993 C178.52999999999975,24.265999999999963 178.3199999999997,24.182999999999993 178.05000000000018,24.182999999999993 C177.80000000000018,24.182999999999993 177.59000000000015,24.258000000000038 177.4300000000003,24.408999999999992 C177.27000000000044,24.559999999999945 177.1899999999996,24.75 177.1899999999996,24.979000000000042 C177.1899999999996,25.19799999999998 177.26000000000022,25.40700000000004 177.40999999999985,25.604000000000042 C177.5699999999997,25.80200000000002 177.8199999999997,26.020999999999958 178.17000000000007,26.260999999999967 M187.52999999999975,26.69799999999998 C187.52999999999975,26.937999999999988 187.5,27.172000000000025 187.44999999999982,27.400999999999954 C187.39000000000033,27.629999999999995 187.28999999999996,27.866999999999962 187.14999999999964,28.111999999999966 C187.01000000000022,28.35699999999997 186.82999999999993,28.567999999999984 186.60000000000036,28.745000000000005 C186.3800000000001,28.922000000000025 186.07999999999993,29.071000000000026 185.69999999999982,29.190000000000055 C185.32999999999993,29.309999999999945 184.90999999999985,29.370000000000005 184.4399999999996,29.370000000000005 L182.17000000000007,29.370000000000005 L182.17000000000007,29.214000000000055 C182.47000000000025,29.192999999999984 182.67000000000007,29.140999999999963 182.75,29.057999999999993 C182.82999999999993,28.974000000000046 182.8800000000001,28.787000000000035 182.8800000000001,28.495000000000005 L182.8800000000001,24.94799999999998 C182.8800000000001,24.65700000000004 182.84000000000015,24.47199999999998 182.76000000000022,24.394000000000005 C182.6800000000003,24.315000000000055 182.47999999999956,24.260999999999967 182.17000000000007,24.229000000000042 L182.17000000000007,24.07299999999998 L184.32999999999993,24.07299999999998 C184.8199999999997,24.07299999999998 185.25,24.128000000000043 185.6300000000001,24.236999999999966 C186.01000000000022,24.34699999999998 186.3199999999997,24.486999999999966 186.55000000000018,24.658999999999992 C186.78999999999996,24.831000000000017 186.97999999999956,25.037000000000035 187.1300000000001,25.275999999999954 C187.27999999999975,25.515999999999963 187.39000000000033,25.75 187.44999999999982,25.979000000000042 C187.5,26.208999999999946 187.52999999999975,26.44799999999998 187.52999999999975,26.69799999999998 M186.64000000000033,26.760999999999967 C186.64000000000033,26.53200000000004 186.6199999999999,26.309999999999945 186.57999999999993,26.09699999999998 C186.53999999999996,25.883000000000038 186.46000000000004,25.66999999999996 186.34000000000015,25.456000000000017 C186.22000000000025,25.241999999999962 186.0600000000004,25.059999999999945 185.8800000000001,24.908999999999992 C185.6899999999996,24.758000000000038 185.4399999999996,24.633000000000038 185.14000000000033,24.533999999999992 C184.84000000000015,24.434999999999945 184.5,24.385999999999967 184.10999999999967,24.385999999999967 C183.9399999999996,24.385999999999967 183.82999999999993,24.40700000000004 183.77000000000044,24.44799999999998 C183.72000000000025,24.49000000000001 183.6899999999996,24.57299999999998 183.6899999999996,24.69799999999998 L183.6899999999996,28.745000000000005 C183.6899999999996,28.870000000000005 183.72000000000025,28.956000000000017 183.77000000000044,29.003000000000043 C183.82999999999993,29.049999999999955 183.9399999999996,29.07299999999998 184.10999999999967,29.07299999999998 C185.80000000000018,29.07299999999998 186.64000000000033,28.30200000000002 186.64000000000033,26.760999999999967 M190.47000000000025,26.885999999999967 C190.32999999999993,26.458999999999946 190.22999999999956,26.190000000000055 190.14999999999964,26.081000000000017 C190.0699999999997,25.97199999999998 189.9399999999996,25.90700000000004 189.77000000000044,25.885999999999967 L189.77000000000044,25.775999999999954 L191.39000000000033,25.775999999999954 L191.39000000000033,25.885999999999967 C191.19999999999982,25.91700000000003 191.07999999999993,25.951000000000022 191.02000000000044,25.986999999999966 C190.94999999999982,26.024 190.92000000000007,26.089000000000055 190.92000000000007,26.182999999999993 C190.92000000000007,26.245000000000005 190.97000000000025,26.400999999999954 191.0600000000004,26.650999999999954 L191.72999999999956,28.44799999999998 L192.44999999999982,26.66700000000003 C192.55000000000018,26.44799999999998 192.59000000000015,26.270999999999958 192.59000000000015,26.135999999999967 C192.59000000000015,26.07299999999998 192.5699999999997,26.024 192.52000000000044,25.986999999999966 C192.46000000000004,25.951000000000022 192.3699999999999,25.91700000000003 192.22999999999956,25.885999999999967 L192.22999999999956,25.775999999999954 L193.22000000000025,25.775999999999954 L193.22000000000025,25.885999999999967 C193.14000000000033,25.91700000000003 193.07999999999993,25.956000000000017 193.05000000000018,26.003000000000043 C193.02000000000044,26.049999999999955 192.96000000000004,26.15700000000004 192.89000000000033,26.32299999999998 L191.77999999999975,29.089000000000055 C191.6800000000003,29.349000000000046 191.60000000000036,29.479000000000042 191.5600000000004,29.479000000000042 C191.52000000000044,29.479000000000042 191.46000000000004,29.36500000000001 191.3800000000001,29.135999999999967 L190.64000000000033,27.245000000000005 L189.75,29.16700000000003 C189.65999999999985,29.375 189.59000000000015,29.479000000000042 189.55000000000018,29.479000000000042 C189.51000000000022,29.479000000000042 189.4399999999996,29.36500000000001 189.34000000000015,29.135999999999967 L188.27000000000044,26.400999999999954 C188.1800000000003,26.192999999999984 188.10999999999967,26.057999999999993 188.0600000000004,25.995000000000005 C188.01000000000022,25.932999999999993 187.9399999999996,25.895999999999958 187.84000000000015,25.885999999999967 L187.84000000000015,25.775999999999954 L189.27999999999975,25.775999999999954 L189.27999999999975,25.885999999999967 C189.14000000000033,25.90700000000004 189.03999999999996,25.934999999999945 188.97999999999956,25.97199999999998 C188.9300000000003,26.008000000000038 188.90999999999985,26.067999999999984 188.90999999999985,26.150999999999954 C188.90999999999985,26.235000000000014 188.92000000000007,26.317999999999984 188.94999999999982,26.400999999999954 L189.75,28.479000000000042 L190.47000000000025,26.885999999999967 M193.47999999999956,28.57299999999998 C193.47999999999956,28.479000000000042 193.5,28.394000000000005 193.52000000000044,28.315000000000055 C193.53999999999996,28.236999999999966 193.5699999999997,28.162000000000035 193.6300000000001,28.089000000000055 C193.6800000000003,28.015999999999963 193.72999999999956,27.951000000000022 193.77999999999975,27.894000000000005 C193.82999999999993,27.836000000000013 193.90999999999985,27.775999999999954 194.0,27.714000000000055 C194.09000000000015,27.650999999999954 194.17000000000007,27.599000000000046 194.22999999999956,27.557999999999993 C194.30000000000018,27.515999999999963 194.39000000000033,27.46900000000005 194.52000000000044,27.41700000000003 C194.64000000000033,27.36500000000001 194.73999999999978,27.32299999999998 194.80000000000018,27.29200000000003 C194.8699999999999,27.260999999999967 194.97999999999956,27.216000000000008 195.1300000000001,27.158999999999992 C195.27999999999975,27.101999999999975 195.39000000000033,27.057999999999993 195.44999999999982,27.025999999999954 L195.44999999999982,26.54200000000003 C195.44999999999982,26.104000000000042 195.26000000000022,25.885999999999967 194.85999999999967,25.885999999999967 C194.6899999999996,25.885999999999967 194.55000000000018,25.924999999999955 194.44999999999982,26.003000000000043 C194.34000000000015,26.081000000000017 194.27999999999975,26.172000000000025 194.27999999999975,26.275999999999954 C194.27999999999975,26.317999999999984 194.28999999999996,26.375 194.30000000000018,26.44799999999998 C194.3199999999997,26.520999999999958 194.32999999999993,26.567999999999984 194.32999999999993,26.589000000000055 C194.32999999999993,26.682999999999993 194.28999999999996,26.763000000000034 194.22000000000025,26.831000000000017 C194.14999999999964,26.899 194.0600000000004,26.932999999999993 193.94999999999982,26.932999999999993 C193.85999999999967,26.932999999999993 193.77999999999975,26.899 193.71000000000004,26.831000000000017 C193.64000000000033,26.763000000000034 193.60999999999967,26.682999999999993 193.60999999999967,26.589000000000055 C193.60999999999967,26.339000000000055 193.73999999999978,26.128000000000043 194.0,25.956000000000017 C194.26000000000022,25.783999999999992 194.57999999999993,25.69799999999998 194.94999999999982,25.69799999999998 C195.3800000000001,25.69799999999998 195.67000000000007,25.80200000000002 195.84000000000015,26.010999999999967 C196.0,26.21900000000005 196.07999999999993,26.537000000000035 196.07999999999993,26.964000000000055 L196.07999999999993,28.510999999999967 C196.07999999999993,28.687999999999988 196.10000000000036,28.809999999999945 196.1300000000001,28.878000000000043 C196.17000000000007,28.946000000000026 196.22999999999956,28.979000000000042 196.32999999999993,28.979000000000042 C196.4300000000003,28.979000000000042 196.55000000000018,28.92700000000002 196.67000000000007,28.82299999999998 L196.67000000000007,29.04200000000003 C196.53999999999996,29.19799999999998 196.42000000000007,29.30499999999995 196.3100000000004,29.361999999999966 C196.21000000000004,29.41999999999996 196.09000000000015,29.44799999999998 195.94999999999982,29.44799999999998 C195.80000000000018,29.44799999999998 195.6800000000003,29.400999999999954 195.60999999999967,29.307999999999993 C195.53999999999996,29.214000000000055 195.48999999999978,29.062999999999988 195.47000000000025,28.854000000000042 C195.01000000000022,29.25 194.6300000000001,29.44799999999998 194.3100000000004,29.44799999999998 C194.0699999999997,29.44799999999998 193.8800000000001,29.366999999999962 193.72000000000025,29.206000000000017 C193.5600000000004,29.04499999999996 193.47999999999956,28.833999999999946 193.47999999999956,28.57299999999998 M195.44999999999982,28.370000000000005 L195.44999999999982,27.214000000000055 C194.97000000000025,27.390999999999963 194.64000000000033,27.562999999999988 194.44999999999982,27.729000000000042 C194.27000000000044,27.895999999999958 194.17000000000007,28.09400000000005 194.17000000000007,28.32299999999998 C194.17000000000007,28.54200000000003 194.22000000000025,28.702999999999975 194.32999999999993,28.807999999999993 C194.4300000000003,28.912000000000035 194.55000000000018,28.964000000000055 194.67000000000007,28.964000000000055 C194.85000000000036,28.964000000000055 195.03999999999996,28.90700000000004 195.25,28.79200000000003 C195.32999999999993,28.74000000000001 195.39000000000033,28.687999999999988 195.40999999999985,28.635999999999967 C195.4399999999996,28.583999999999946 195.44999999999982,28.495000000000005 195.44999999999982,28.370000000000005 M199.14000000000033,26.44799999999998 C199.0600000000004,26.44799999999998 198.96000000000004,26.400999999999954 198.84000000000015,26.307999999999993 C198.72000000000025,26.214000000000055 198.64000000000033,26.16700000000003 198.60999999999967,26.16700000000003 C198.51000000000022,26.16700000000003 198.39000000000033,26.245000000000005 198.25,26.400999999999954 C198.10999999999967,26.557999999999993 198.05000000000018,26.702999999999975 198.05000000000018,26.839000000000055 L198.05000000000018,28.650999999999954 C198.05000000000018,28.879999999999995 198.09000000000015,29.033999999999992 198.1800000000003,29.111999999999966 C198.27000000000044,29.190000000000055 198.44999999999982,29.235000000000014 198.72000000000025,29.245000000000005 L198.72000000000025,29.370000000000005 L196.80000000000018,29.370000000000005 L196.80000000000018,29.245000000000005 C197.0600000000004,29.202999999999975 197.22000000000025,29.150999999999954 197.27000000000044,29.089000000000055 C197.32999999999993,29.025999999999954 197.35999999999967,28.895999999999958 197.35999999999967,28.69799999999998 L197.35999999999967,26.682999999999993 C197.35999999999967,26.504999999999995 197.34000000000015,26.379999999999995 197.30000000000018,26.307999999999993 C197.27000000000044,26.235000000000014 197.19999999999982,26.19799999999998 197.09000000000015,26.19799999999998 C197.01000000000022,26.19799999999998 196.92000000000007,26.208999999999946 196.8100000000004,26.229000000000042 L196.8100000000004,26.104000000000042 C197.23999999999978,25.96900000000005 197.64000000000033,25.833999999999946 198.0,25.69799999999998 L198.05000000000018,25.714000000000055 L198.05000000000018,26.41700000000003 C198.25,26.145999999999958 198.40999999999985,25.958999999999946 198.55000000000018,25.854000000000042 C198.6800000000003,25.75 198.82999999999993,25.69799999999998 199.0,25.69799999999998 C199.14999999999964,25.69799999999998 199.26000000000022,25.73199999999997 199.32999999999993,25.799999999999955 C199.39999999999964,25.866999999999962 199.4399999999996,25.96900000000005 199.4399999999996,26.104000000000042 C199.4399999999996,26.208999999999946 199.40999999999985,26.29200000000003 199.35999999999967,26.354000000000042 C199.3100000000004,26.41700000000003 199.22999999999956,26.44799999999998 199.14000000000033,26.44799999999998 M202.1300000000001,24.729000000000042 C202.03999999999996,24.729000000000042 201.97000000000025,24.69799999999998 201.90999999999985,24.635999999999967 C201.84000000000015,24.57299999999998 201.78999999999996,24.504999999999995 201.76000000000022,24.432999999999993 C201.72000000000025,24.360000000000014 201.67000000000007,24.29200000000003 201.59000000000015,24.229000000000042 C201.52000000000044,24.16700000000003 201.4399999999996,24.135999999999967 201.34000000000015,24.135999999999967 C201.03999999999996,24.135999999999967 200.89000000000033,24.370000000000005 200.89000000000033,24.839000000000055 L200.89000000000033,25.775999999999954 L201.8800000000001,25.775999999999954 L201.8800000000001,26.010999999999967 L200.89000000000033,26.010999999999967 L200.89000000000033,28.54200000000003 C200.89000000000033,28.833999999999946 200.9300000000003,29.020999999999958 201.02000000000044,29.104000000000042 C201.10000000000036,29.187999999999988 201.3100000000004,29.235000000000014 201.64000000000033,29.245000000000005 L201.64000000000033,29.370000000000005 L199.55000000000018,29.370000000000005 L199.55000000000018,29.245000000000005 C199.84000000000015,29.235000000000014 200.02000000000044,29.187999999999988 200.10000000000036,29.104000000000042 C200.1800000000003,29.020999999999958 200.22000000000025,28.833999999999946 200.22000000000025,28.54200000000003 L200.22000000000025,26.010999999999967 L199.5600000000004,26.010999999999967 L199.5600000000004,25.775999999999954 L200.22000000000025,25.775999999999954 C200.22999999999956,25.172000000000025 200.34000000000015,24.706000000000017 200.55000000000018,24.378000000000043 C200.77000000000044,24.049999999999955 201.1300000000001,23.885999999999967 201.6300000000001,23.885999999999967 C201.85999999999967,23.885999999999967 202.0600000000004,23.934999999999945 202.22000000000025,24.033999999999992 C202.3800000000001,24.133000000000038 202.44999999999982,24.254999999999995 202.44999999999982,24.400999999999954 C202.44999999999982,24.495000000000005 202.42000000000007,24.57299999999998 202.35999999999967,24.635999999999967 C202.30000000000018,24.69799999999998 202.22000000000025,24.729000000000042 202.1300000000001,24.729000000000042 M209.82999999999993,24.79200000000003 L207.77999999999975,29.370000000000005 L207.67000000000007,29.370000000000005 L205.67000000000007,24.979000000000042 L205.67000000000007,28.19799999999998 C205.67000000000007,28.604000000000042 205.72000000000025,28.873000000000047 205.8100000000004,29.003000000000043 C205.90999999999985,29.133000000000038 206.10999999999967,29.202999999999975 206.42000000000007,29.214000000000055 L206.42000000000007,29.370000000000005 L204.55000000000018,29.370000000000005 L204.55000000000018,29.214000000000055 C204.8699999999999,29.192999999999984 205.07999999999993,29.120000000000005 205.17000000000007,28.995000000000005 C205.27000000000044,28.870000000000005 205.3100000000004,28.604000000000042 205.3100000000004,28.19799999999998 L205.3100000000004,24.94799999999998 C205.3100000000004,24.65700000000004 205.27000000000044,24.46900000000005 205.1800000000003,24.385999999999967 C205.09000000000015,24.30200000000002 204.89000000000033,24.25 204.5600000000004,24.229000000000042 L204.5600000000004,24.07299999999998 L206.14000000000033,24.07299999999998 L207.97999999999956,28.120000000000005 L209.75,24.07299999999998 L211.34000000000015,24.07299999999998 L211.34000000000015,24.229000000000042 C211.03999999999996,24.260999999999967 210.85000000000036,24.317999999999984 210.77000000000044,24.400999999999954 C210.69999999999982,24.485000000000014 210.65999999999985,24.66700000000003 210.65999999999985,24.94799999999998 L210.65999999999985,28.495000000000005 C210.65999999999985,28.775999999999954 210.69999999999982,28.961000000000013 210.77999999999975,29.049999999999955 C210.85999999999967,29.138000000000034 211.05000000000018,29.192999999999984 211.34000000000015,29.214000000000055 L211.34000000000015,29.370000000000005 L209.10999999999967,29.370000000000005 L209.10999999999967,29.214000000000055 C209.42000000000007,29.192999999999984 209.6199999999999,29.135999999999967 209.69999999999982,29.04200000000003 C209.78999999999996,28.94799999999998 209.82999999999993,28.74000000000001 209.82999999999993,28.41700000000003 L209.82999999999993,24.79200000000003 M215.3100000000004,28.94799999999998 L215.3100000000004,29.07299999999998 C214.89999999999964,29.187999999999988 214.52999999999975,29.312999999999988 214.22000000000025,29.44799999999998 L214.1899999999996,29.432999999999993 L214.17000000000007,28.745000000000005 C214.15999999999985,28.765999999999963 214.1199999999999,28.815000000000055 214.03999999999996,28.894000000000005 C213.96000000000004,28.97199999999998 213.90999999999985,29.025999999999954 213.8800000000001,29.057999999999993 C213.84000000000015,29.089000000000055 213.78999999999996,29.135999999999967 213.71000000000004,29.19799999999998 C213.6300000000001,29.260999999999967 213.5699999999997,29.30499999999995 213.51000000000022,29.331000000000017 C213.44999999999982,29.35699999999997 213.3800000000001,29.383000000000038 213.28999999999996,29.408999999999992 C213.19999999999982,29.434999999999945 213.10999999999967,29.44799999999998 213.02000000000044,29.44799999999998 C212.72000000000025,29.44799999999998 212.48999999999978,29.351999999999975 212.3100000000004,29.158999999999992 C212.14000000000033,28.966000000000008 212.05000000000018,28.714000000000055 212.05000000000018,28.400999999999954 L212.05000000000018,26.385999999999967 C212.05000000000018,26.208999999999946 212.01000000000022,26.083999999999946 211.94999999999982,26.010999999999967 C211.8800000000001,25.937999999999988 211.75,25.895999999999958 211.55000000000018,25.885999999999967 L211.55000000000018,25.775999999999954 L212.72000000000025,25.775999999999954 L212.72000000000025,28.370000000000005 C212.72000000000025,28.525999999999954 212.77999999999975,28.663999999999987 212.89000000000033,28.783999999999992 C213.01000000000022,28.903999999999996 213.14000000000033,28.964000000000055 213.27999999999975,28.964000000000055 C213.34000000000015,28.964000000000055 213.40999999999985,28.956000000000017 213.48999999999978,28.940000000000055 C213.5699999999997,28.924999999999955 213.65999999999985,28.895999999999958 213.77000000000044,28.854000000000042 C213.8699999999999,28.812999999999988 213.96000000000004,28.741999999999962 214.02999999999975,28.644000000000005 C214.10000000000036,28.54499999999996 214.14000000000033,28.422000000000025 214.14000000000033,28.275999999999954 L214.14000000000033,26.400999999999954 C214.14000000000033,26.214000000000055 214.10000000000036,26.086000000000013 214.02999999999975,26.019000000000005 C213.96000000000004,25.951000000000022 213.80000000000018,25.912000000000035 213.55000000000018,25.900999999999954 L213.55000000000018,25.775999999999954 L214.8100000000004,25.775999999999954 L214.8100000000004,28.495000000000005 C214.8100000000004,28.682999999999993 214.84000000000015,28.80499999999995 214.90999999999985,28.861999999999966 C214.97000000000025,28.91999999999996 215.09000000000015,28.94799999999998 215.27999999999975,28.94799999999998 L215.3100000000004,28.94799999999998 M217.52000000000044,25.854000000000042 C217.52999999999975,25.854000000000042 217.5699999999997,25.827999999999975 217.64000000000033,25.775999999999954 L217.72999999999956,25.775999999999954 L217.77000000000044,26.854000000000042 L217.64000000000033,26.854000000000042 C217.5600000000004,26.5 217.44999999999982,26.248000000000047 217.3100000000004,26.09699999999998 C217.1800000000003,25.946000000000026 217.0,25.870000000000005 216.77000000000044,25.870000000000005 C216.59000000000015,25.870000000000005 216.4399999999996,25.922000000000025 216.32999999999993,26.025999999999954 C216.21000000000004,26.129999999999995 216.15999999999985,26.260999999999967 216.15999999999985,26.41700000000003 C216.15999999999985,26.645999999999958 216.27000000000044,26.827999999999975 216.5,26.964000000000055 L217.35999999999967,27.479000000000042 C217.60000000000036,27.625 217.77000000000044,27.770999999999958 217.8800000000001,27.91700000000003 C217.97999999999956,28.062999999999988 218.02999999999975,28.235000000000014 218.02999999999975,28.432999999999993 C218.02999999999975,28.702999999999975 217.92000000000007,28.940000000000055 217.69999999999982,29.144000000000005 C217.47000000000025,29.34699999999998 217.21000000000004,29.44799999999998 216.90999999999985,29.44799999999998 C216.77000000000044,29.44799999999998 216.59000000000015,29.424999999999955 216.3699999999999,29.378000000000043 C216.14000000000033,29.331000000000017 216.01000000000022,29.307999999999993 215.94999999999982,29.307999999999993 C215.8699999999999,29.307999999999993 215.8100000000004,29.339000000000055 215.77000000000044,29.400999999999954 L215.65999999999985,29.400999999999954 L215.65999999999985,28.150999999999954 L215.80000000000018,28.150999999999954 C215.8800000000001,28.525999999999954 215.97999999999956,28.79200000000003 216.09000000000015,28.94799999999998 C216.26000000000022,29.16700000000003 216.5,29.275999999999954 216.8100000000004,29.275999999999954 C217.01000000000022,29.275999999999954 217.17000000000007,29.224000000000046 217.28999999999996,29.120000000000005 C217.40999999999985,29.015999999999963 217.47000000000025,28.875 217.47000000000025,28.69799999999998 C217.47000000000025,28.458999999999946 217.32999999999993,28.260999999999967 217.05000000000018,28.104000000000042 L216.59000000000015,27.839000000000055 C216.25,27.640999999999963 216.01000000000022,27.456000000000017 215.8699999999999,27.283999999999992 C215.72999999999956,27.111999999999966 215.65999999999985,26.912000000000035 215.65999999999985,26.682999999999993 C215.65999999999985,26.390999999999963 215.76000000000022,26.153999999999996 215.96000000000004,25.97199999999998 C216.15999999999985,25.788999999999987 216.4300000000003,25.69799999999998 216.75,25.69799999999998 C216.92000000000007,25.69799999999998 217.07999999999993,25.724000000000046 217.22999999999956,25.775999999999954 C217.39000000000033,25.827999999999975 217.47999999999956,25.854000000000042 217.52000000000044,25.854000000000042 M218.80000000000018,26.229000000000042 C218.67000000000007,26.229000000000042 218.5600000000004,26.235000000000014 218.44999999999982,26.245000000000005 L218.44999999999982,26.135999999999967 C218.82999999999993,26.03200000000004 219.25,25.885999999999967 219.69999999999982,25.69799999999998 L219.72999999999956,25.714000000000055 L219.72999999999956,28.557999999999993 C219.72999999999956,28.839000000000055 219.77000000000044,29.019000000000005 219.84000000000015,29.09699999999998 C219.89999999999964,29.174999999999955 220.0699999999997,29.224000000000046 220.32999999999993,29.245000000000005 L220.32999999999993,29.370000000000005 L218.42000000000007,29.370000000000005 L218.42000000000007,29.245000000000005 C218.69999999999982,29.235000000000014 218.8800000000001,29.187999999999988 218.94999999999982,29.104000000000042 C219.02999999999975,29.020999999999958 219.0600000000004,28.839000000000055 219.0600000000004,28.557999999999993 L219.0600000000004,26.69799999999998 C219.0600000000004,26.520999999999958 219.03999999999996,26.399 219.0,26.331000000000017 C218.96000000000004,26.263000000000034 218.89000000000033,26.229000000000042 218.80000000000018,26.229000000000042 M219.32999999999993,23.900999999999954 C219.4399999999996,23.900999999999954 219.53999999999996,23.942999999999984 219.6300000000001,24.025999999999954 C219.71000000000004,24.110000000000014 219.75,24.208999999999946 219.75,24.32299999999998 C219.75,24.437999999999988 219.71000000000004,24.533999999999992 219.6300000000001,24.611999999999966 C219.53999999999996,24.690000000000055 219.4399999999996,24.729000000000042 219.32999999999993,24.729000000000042 C219.21000000000004,24.729000000000042 219.1199999999999,24.687999999999988 219.03999999999996,24.604000000000042 C218.96000000000004,24.520999999999958 218.92000000000007,24.424999999999955 218.92000000000007,24.315000000000055 C218.92000000000007,24.206000000000017 218.96000000000004,24.110000000000014 219.03999999999996,24.025999999999954 C219.1199999999999,23.942999999999984 219.21000000000004,23.900999999999954 219.32999999999993,23.900999999999954 M220.72000000000025,27.66700000000003 C220.72000000000025,27.07299999999998 220.89000000000033,26.59699999999998 221.23999999999978,26.236999999999966 C221.59000000000015,25.878000000000043 222.0,25.69799999999998 222.47000000000025,25.69799999999998 C222.80000000000018,25.69799999999998 223.09000000000015,25.778999999999996 223.3199999999997,25.940000000000055 C223.55000000000018,26.101999999999975 223.67000000000007,26.297000000000025 223.67000000000007,26.525999999999954 C223.67000000000007,26.610000000000014 223.64000000000033,26.684999999999945 223.5600000000004,26.753000000000043 C223.48999999999978,26.821000000000026 223.39999999999964,26.854000000000042 223.30000000000018,26.854000000000042 C223.1199999999999,26.854000000000042 223.0,26.735000000000014 222.9399999999996,26.495000000000005 L222.89000000000033,26.32299999999998 C222.85000000000036,26.16700000000003 222.80000000000018,26.062999999999988 222.72999999999956,26.010999999999967 C222.67000000000007,25.958999999999946 222.5699999999997,25.932999999999993 222.42000000000007,25.932999999999993 C222.10000000000036,25.932999999999993 221.84000000000015,26.059999999999945 221.64000000000033,26.315000000000055 C221.4399999999996,26.571000000000026 221.34000000000015,26.90700000000004 221.34000000000015,27.32299999999998 C221.34000000000015,27.770999999999958 221.46000000000004,28.140999999999963 221.6899999999996,28.432999999999993 C221.92000000000007,28.724000000000046 222.21000000000004,28.870000000000005 222.57999999999993,28.870000000000005 C222.80000000000018,28.870000000000005 222.98999999999978,28.812999999999988 223.14999999999964,28.69799999999998 C223.3100000000004,28.583999999999946 223.47999999999956,28.390999999999963 223.67000000000007,28.120000000000005 L223.77999999999975,28.182999999999993 C223.72999999999956,28.297000000000025 223.6899999999996,28.388000000000034 223.64999999999964,28.456000000000017 C223.60999999999967,28.524 223.53999999999996,28.628000000000043 223.4399999999996,28.769000000000005 C223.32999999999993,28.908999999999992 223.22999999999956,29.020999999999958 223.1300000000001,29.104000000000042 C223.02999999999975,29.187999999999988 222.89999999999964,29.265999999999963 222.73999999999978,29.339000000000055 C222.57999999999993,29.412000000000035 222.40999999999985,29.44799999999998 222.22999999999956,29.44799999999998 C221.80000000000018,29.44799999999998 221.4399999999996,29.28200000000004 221.14999999999964,28.94799999999998 C220.85999999999967,28.61500000000001 220.72000000000025,28.187999999999988 220.72000000000025,27.66700000000003 M225.0600000000004,28.57299999999998 C225.1800000000003,28.57299999999998 225.27999999999975,28.616999999999962 225.3699999999999,28.706000000000017 C225.46000000000004,28.79499999999996 225.5,28.900999999999954 225.5,29.025999999999954 C225.5,29.140999999999963 225.46000000000004,29.241999999999962 225.3699999999999,29.331000000000017 C225.27999999999975,29.41999999999996 225.17000000000007,29.464000000000055 225.05000000000018,29.464000000000055 C224.9300000000003,29.464000000000055 224.82999999999993,29.41999999999996 224.75,29.331000000000017 C224.67000000000007,29.241999999999962 224.6300000000001,29.140999999999963 224.6300000000001,29.025999999999954 C224.6300000000001,28.900999999999954 224.67000000000007,28.79499999999996 224.76000000000022,28.706000000000017 C224.85000000000036,28.616999999999962 224.94999999999982,28.57299999999998 225.0600000000004,28.57299999999998" />
</svg>
