<?xml version="1.0" encoding="UTF-8" standalone="yes"?>
<svg width="256.0px" height="256.0px" xmlns="http://www.w3.org/2000/svg" xmlns:xlink="http://www.w3.org/1999/xlink" version="1.2" baseProfile="tiny">
<path d="M167.96000000000004,30.79200000000003 C167.82000000000016,30.69799999999998 167.67999999999984,30.591000000000008 167.5300000000002,30.47199999999998 C167.3800000000001,30.351999999999975 167.21000000000004,30.184999999999945 167.01999999999998,29.97199999999998 C166.82999999999993,29.758000000000038 166.65999999999985,29.53200000000004 166.51999999999998,29.29200000000003 C166.3699999999999,29.05200000000002 166.25,28.760999999999967 166.15999999999985,28.41700000000003 C166.07000000000016,28.07299999999998 166.01999999999998,27.71900000000005 166.01999999999998,27.354000000000042 C166.01999999999998,26.96900000000005 166.07000000000016,26.604000000000042 166.15999999999985,26.260999999999967 C166.25,25.91700000000003 166.3699999999999,25.633000000000038 166.5,25.408999999999992 C166.63999999999987,25.184999999999945 166.80999999999995,24.966000000000008 167.01000000000022,24.753000000000043 C167.21000000000004,24.538999999999987 167.3800000000001,24.383000000000038 167.51999999999998,24.283999999999992 C167.6500000000001,24.184999999999945 167.80999999999995,24.077999999999975 167.9699999999998,23.964000000000055 L168.05000000000018,24.089000000000055 C167.82000000000016,24.287000000000035 167.6300000000001,24.461000000000013 167.48999999999978,24.611999999999966 C167.34000000000015,24.763000000000034 167.19999999999982,24.964000000000055 167.07000000000016,25.214000000000055 C166.92999999999984,25.464000000000055 166.82999999999993,25.760999999999967 166.7800000000002,26.104000000000042 C166.7199999999998,26.44799999999998 166.69000000000005,26.860000000000014 166.69000000000005,27.339000000000055 C166.69000000000005,27.827999999999975 166.7199999999998,28.253000000000043 166.7800000000002,28.611999999999966 C166.82999999999993,28.97199999999998 166.92999999999984,29.275999999999954 167.07000000000016,29.525999999999954 C167.19999999999982,29.775999999999954 167.34000000000015,29.98199999999997 167.48999999999978,30.144000000000005 C167.6300000000001,30.30499999999995 167.82000000000016,30.474000000000046 168.05000000000018,30.650999999999954 L167.96000000000004,30.79200000000003 M168.48999999999978,27.66700000000003 C168.48999999999978,27.07299999999998 168.65999999999985,26.59699999999998 169.01000000000022,26.236999999999966 C169.36000000000013,25.878000000000043 169.76999999999998,25.69799999999998 170.23999999999978,25.69799999999998 C170.57000000000016,25.69799999999998 170.8499999999999,25.778999999999996 171.09000000000015,25.940000000000055 C171.32000000000016,26.101999999999975 171.44000000000005,26.297000000000025 171.44000000000005,26.525999999999954 C171.44000000000005,26.610000000000014 171.4000000000001,26.684999999999945 171.32999999999993,26.753000000000043 C171.26000000000022,26.821000000000026 171.17000000000007,26.854000000000042 171.07000000000016,26.854000000000042 C170.88999999999987,26.854000000000042 170.76999999999998,26.735000000000014 170.71000000000004,26.495000000000005 L170.65999999999985,26.32299999999998 C170.6199999999999,26.16700000000003 170.57000000000016,26.062999999999988 170.5,26.010999999999967 C170.44000000000005,25.958999999999946 170.34000000000015,25.932999999999993 170.19000000000005,25.932999999999993 C169.8699999999999,25.932999999999993 169.61000000000013,26.059999999999945 169.40999999999985,26.315000000000055 C169.21000000000004,26.571000000000026 169.11000000000013,26.90700000000004 169.11000000000013,27.32299999999998 C169.11000000000013,27.770999999999958 169.23000000000002,28.140999999999963 169.46000000000004,28.432999999999993 C169.69000000000005,28.724000000000046 169.98000000000002,28.870000000000005 170.3499999999999,28.870000000000005 C170.57000000000016,28.870000000000005 170.76000000000022,28.812999999999988 170.92000000000007,28.69799999999998 C171.07999999999993,28.583999999999946 171.25,28.390999999999963 171.44000000000005,28.120000000000005 L171.55000000000018,28.182999999999993 C171.5,28.297000000000025 171.44999999999982,28.388000000000034 171.42000000000007,28.456000000000017 C171.3800000000001,28.524 171.30999999999995,28.628000000000043 171.21000000000004,28.769000000000005 C171.0999999999999,28.908999999999992 171.0,29.020999999999958 170.9000000000001,29.104000000000042 C170.80000000000018,29.187999999999988 170.67000000000007,29.265999999999963 170.51000000000022,29.339000000000055 C170.3499999999999,29.412000000000035 170.17999999999984,29.44799999999998 170.0,29.44799999999998 C169.57000000000016,29.44799999999998 169.19999999999982,29.28200000000004 168.92000000000007,28.94799999999998 C168.6300000000001,28.61500000000001 168.48999999999978,28.187999999999988 168.48999999999978,27.66700000000003 M172.15999999999985,23.964000000000055 C172.30999999999995,24.047000000000025 172.44999999999982,24.149 172.5999999999999,24.269000000000005 C172.73999999999978,24.388000000000034 172.90999999999985,24.55499999999995 173.0999999999999,24.769000000000005 C173.30000000000018,24.98199999999997 173.46000000000004,25.211000000000013 173.5999999999999,25.456000000000017 C173.75,25.701000000000022 173.86000000000013,25.991999999999962 173.96000000000004,26.331000000000017 C174.05999999999995,26.66999999999996 174.11000000000013,27.025999999999954 174.11000000000013,27.400999999999954 C174.11000000000013,27.775999999999954 174.05999999999995,28.135999999999967 173.96000000000004,28.479000000000042 C173.86000000000013,28.82299999999998 173.75,29.110000000000014 173.6199999999999,29.339000000000055 C173.48999999999978,29.567999999999984 173.32000000000016,29.787000000000035 173.11000000000013,29.995000000000005 C172.9000000000001,30.202999999999975 172.73000000000002,30.360000000000014 172.5999999999999,30.464000000000055 C172.4699999999998,30.567999999999984 172.32000000000016,30.67700000000002 172.13999999999987,30.79200000000003 L172.07000000000016,30.650999999999954 C172.30999999999995,30.464000000000055 172.5,30.29200000000003 172.63999999999987,30.135999999999967 C172.78999999999996,29.979000000000042 172.92999999999984,29.778999999999996 173.05999999999995,29.533999999999992 C173.19000000000005,29.288999999999987 173.2800000000002,28.995000000000005 173.34000000000015,28.650999999999954 C173.4000000000001,28.307999999999993 173.42000000000007,27.895999999999958 173.42000000000007,27.41700000000003 C173.42000000000007,26.92700000000002 173.4000000000001,26.503000000000043 173.34000000000015,26.144000000000005 C173.2800000000002,25.783999999999992 173.19000000000005,25.476999999999975 173.05999999999995,25.22199999999998 C172.92999999999984,24.966000000000008 172.78999999999996,24.760999999999967 172.63999999999987,24.604000000000042 C172.5,24.44799999999998 172.30999999999995,24.275999999999954 172.07000000000016,24.089000000000055 L172.15999999999985,23.964000000000055 M177.94000000000005,24.635999999999967 C177.84000000000015,24.635999999999967 177.63999999999987,24.692999999999984 177.36000000000013,24.807999999999993 L177.36000000000013,24.69799999999998 L178.7800000000002,23.964000000000055 L178.8499999999999,23.979000000000042 L178.8499999999999,28.775999999999954 C178.8499999999999,28.974000000000046 178.9000000000001,29.101999999999975 179.0,29.158999999999992 C179.09000000000015,29.216000000000008 179.30000000000018,29.245000000000005 179.61000000000013,29.245000000000005 L179.61000000000013,29.370000000000005 L177.40999999999985,29.370000000000005 L177.40999999999985,29.245000000000005 C177.71000000000004,29.235000000000014 177.90999999999985,29.190000000000055 178.01999999999998,29.111999999999966 C178.1199999999999,29.033999999999992 178.17000000000007,28.870000000000005 178.17000000000007,28.620000000000005 L178.17000000000007,25.010999999999967 C178.17000000000007,24.760999999999967 178.0999999999999,24.635999999999967 177.94000000000005,24.635999999999967 M180.92000000000007,29.54200000000003 L180.90999999999985,29.385999999999967 C181.51000000000022,29.28200000000004 182.0300000000002,29.024 182.44999999999982,28.611999999999966 C182.8699999999999,28.201000000000022 183.15999999999985,27.66700000000003 183.32999999999993,27.010999999999967 C182.94000000000005,27.32299999999998 182.5300000000002,27.479000000000042 182.1300000000001,27.479000000000042 C181.69999999999982,27.479000000000042 181.3499999999999,27.327999999999975 181.09000000000015,27.025999999999954 C180.82000000000016,26.724000000000046 180.69000000000005,26.333999999999946 180.69000000000005,25.854000000000042 C180.69000000000005,25.312999999999988 180.8499999999999,24.860000000000014 181.17000000000007,24.495000000000005 C181.48000000000002,24.129999999999995 181.8800000000001,23.94799999999998 182.36000000000013,23.94799999999998 C182.88999999999987,23.94799999999998 183.32999999999993,24.158999999999992 183.65999999999985,24.581000000000017 C183.98999999999978,25.003000000000043 184.15999999999985,25.547000000000025 184.15999999999985,26.214000000000055 C184.15999999999985,26.432999999999993 184.13999999999987,26.653999999999996 184.0999999999999,26.878000000000043 C184.07000000000016,27.101999999999975 183.98000000000002,27.366999999999962 183.8499999999999,27.674999999999955 C183.71000000000004,27.98199999999997 183.5300000000002,28.254999999999995 183.30999999999995,28.495000000000005 C183.07999999999993,28.735000000000014 182.76999999999998,28.952999999999975 182.36000000000013,29.150999999999954 C181.96000000000004,29.349000000000046 181.48000000000002,29.479000000000042 180.92000000000007,29.54200000000003 M182.42000000000007,27.120000000000005 C182.5300000000002,27.120000000000005 182.63999999999987,27.10699999999997 182.76999999999998,27.081000000000017 C182.88999999999987,27.05499999999995 183.01999999999998,26.991999999999962 183.1500000000001,26.894000000000005 C183.2800000000002,26.79499999999996 183.3499999999999,26.672000000000025 183.3499999999999,26.525999999999954 L183.3499999999999,26.214000000000055 C183.3499999999999,24.860000000000014 183.0,24.182999999999993 182.30000000000018,24.182999999999993 C182.1300000000001,24.182999999999993 181.98999999999978,24.226999999999975 181.8699999999999,24.315000000000055 C181.75,24.403999999999996 181.65999999999985,24.520999999999958 181.5999999999999,24.66700000000003 C181.55000000000018,24.812999999999988 181.5,24.958999999999946 181.4699999999998,25.104000000000042 C181.44000000000005,25.25 181.42000000000007,25.40700000000004 181.42000000000007,25.57299999999998 C181.42000000000007,26.05200000000002 181.51999999999998,26.42999999999995 181.69999999999982,26.706000000000017 C181.8800000000001,26.98199999999997 182.1199999999999,27.120000000000005 182.42000000000007,27.120000000000005 M186.5,29.479000000000042 C185.96000000000004,29.479000000000042 185.5300000000002,29.265999999999963 185.19999999999982,28.839000000000055 C184.8699999999999,28.412000000000035 184.71000000000004,27.84400000000005 184.71000000000004,27.135999999999967 C184.71000000000004,26.91700000000003 184.73000000000002,26.692999999999984 184.7800000000002,26.464000000000055 C184.82000000000016,26.235000000000014 184.92000000000007,25.97199999999998 185.05999999999995,25.674999999999955 C185.19999999999982,25.378000000000043 185.38999999999987,25.111999999999966 185.6199999999999,24.878000000000043 C185.8499999999999,24.644000000000005 186.17999999999984,24.434999999999945 186.59000000000015,24.253000000000043 C187.0,24.071000000000026 187.48000000000002,23.952999999999975 188.01999999999998,23.900999999999954 L188.0300000000002,24.025999999999954 C187.4000000000001,24.129999999999995 186.8699999999999,24.385999999999967 186.44999999999982,24.79200000000003 C186.0300000000002,25.19799999999998 185.76000000000022,25.702999999999975 185.63999999999987,26.307999999999993 C185.88999999999987,26.162000000000035 186.07999999999993,26.067999999999984 186.21000000000004,26.025999999999954 C186.34000000000015,25.985000000000014 186.5,25.964000000000055 186.67000000000007,25.964000000000055 C187.13999999999987,25.964000000000055 187.51999999999998,26.111999999999966 187.78999999999996,26.408999999999992 C188.07000000000016,26.706000000000017 188.21000000000004,27.104000000000042 188.21000000000004,27.604000000000042 C188.21000000000004,28.15700000000004 188.05000000000018,28.60699999999997 187.73000000000002,28.956000000000017 C187.40999999999985,29.30499999999995 187.0,29.479000000000042 186.5,29.479000000000042 M186.3800000000001,26.32299999999998 C186.01000000000022,26.32299999999998 185.76999999999998,26.400999999999954 185.63999999999987,26.557999999999993 C185.51000000000022,26.714000000000055 185.44000000000005,26.94799999999998 185.44000000000005,27.260999999999967 C185.44000000000005,27.875 185.53999999999996,28.360000000000014 185.75,28.714000000000055 C185.96000000000004,29.067999999999984 186.23999999999978,29.245000000000005 186.57999999999993,29.245000000000005 C186.8699999999999,29.245000000000005 187.09000000000015,29.128000000000043 187.23999999999978,28.894000000000005 C187.3800000000001,28.658999999999992 187.46000000000004,28.32299999999998 187.46000000000004,27.885999999999967 C187.46000000000004,27.385999999999967 187.36000000000013,27.0 187.17000000000007,26.729000000000042 C186.98999999999978,26.458999999999946 186.7199999999998,26.32299999999998 186.3800000000001,26.32299999999998 M190.75,26.400999999999954 C191.23999999999978,26.754999999999995 191.57000000000016,27.05200000000002 191.75,27.29200000000003 C191.92000000000007,27.53200000000004 192.0,27.807999999999993 192.0,28.120000000000005 C192.0,28.537000000000035 191.86000000000013,28.866999999999962 191.57000000000016,29.111999999999966 C191.28999999999996,29.35699999999997 190.9000000000001,29.479000000000042 190.42000000000007,29.479000000000042 C189.9699999999998,29.479000000000042 189.59000000000015,29.35699999999997 189.30999999999995,29.111999999999966 C189.01999999999998,28.866999999999962 188.8800000000001,28.547000000000025 188.8800000000001,28.150999999999954 C188.8800000000001,27.879999999999995 188.94000000000005,27.653999999999996 189.07000000000016,27.47199999999998 C189.19999999999982,27.288999999999987 189.48999999999978,27.037000000000035 189.92000000000007,26.714000000000055 C189.5,26.339000000000055 189.2199999999998,26.062999999999988 189.0999999999999,25.885999999999967 C188.98000000000002,25.708999999999946 188.92000000000007,25.49000000000001 188.92000000000007,25.229000000000042 C188.92000000000007,24.86500000000001 189.07000000000016,24.559999999999945 189.3499999999999,24.315000000000055 C189.63999999999987,24.071000000000026 190.01000000000022,23.94799999999998 190.46000000000004,23.94799999999998 C190.8499999999999,23.94799999999998 191.17999999999984,24.05499999999995 191.42999999999984,24.269000000000005 C191.69000000000005,24.48199999999997 191.82000000000016,24.760999999999967 191.82000000000016,25.104000000000042 C191.82000000000016,25.375 191.73999999999978,25.604000000000042 191.57999999999993,25.79200000000003 C191.42000000000007,25.979000000000042 191.1500000000001,26.182999999999993 190.75,26.400999999999954 M190.1300000000001,26.870000000000005 C189.9000000000001,27.057999999999993 189.73999999999978,27.241999999999962 189.63999999999987,27.424999999999955 C189.55000000000018,27.60699999999997 189.5,27.827999999999975 189.5,28.089000000000055 C189.5,28.432999999999993 189.59000000000015,28.711000000000013 189.7800000000002,28.924999999999955 C189.96000000000004,29.138000000000034 190.19999999999982,29.245000000000005 190.5,29.245000000000005 C190.76000000000022,29.245000000000005 190.9699999999998,29.163999999999987 191.13999999999987,29.003000000000043 C191.30000000000018,28.841000000000008 191.3800000000001,28.629999999999995 191.3800000000001,28.370000000000005 C191.3800000000001,28.287000000000035 191.3699999999999,28.206000000000017 191.3499999999999,28.128000000000043 C191.34000000000015,28.049999999999955 191.32000000000016,27.985000000000014 191.30000000000018,27.932999999999993 C191.2800000000002,27.879999999999995 191.23999999999978,27.817999999999984 191.17999999999984,27.745000000000005 C191.1300000000001,27.672000000000025 191.07999999999993,27.616999999999962 191.05000000000018,27.581000000000017 C191.01999999999998,27.54499999999996 190.96000000000004,27.486999999999966 190.8699999999999,27.408999999999992 C190.7800000000002,27.331000000000017 190.71000000000004,27.275999999999954 190.67000000000007,27.245000000000005 C190.6199999999999,27.214000000000055 190.5300000000002,27.153999999999996 190.40999999999985,27.065000000000055 C190.2800000000002,26.976999999999975 190.19000000000005,26.912000000000035 190.1300000000001,26.870000000000005 M190.51999999999998,26.260999999999967 C190.5300000000002,26.25 190.57000000000016,26.22199999999998 190.63999999999987,26.174999999999955 C190.69999999999982,26.128000000000043 190.75,26.091000000000008 190.7800000000002,26.065000000000055 C190.80000000000018,26.038999999999987 190.8499999999999,26.0 190.90999999999985,25.94799999999998 C190.9699999999998,25.895999999999958 191.01999999999998,25.84400000000005 191.05000000000018,25.79200000000003 C191.07999999999993,25.74000000000001 191.1199999999999,25.67700000000002 191.15999999999985,25.604000000000042 C191.19999999999982,25.53200000000004 191.23000000000002,25.451000000000022 191.25,25.361999999999966 C191.26000000000022,25.274 191.26999999999998,25.182999999999993 191.26999999999998,25.089000000000055 C191.26999999999998,24.817999999999984 191.19000000000005,24.599000000000046 191.0300000000002,24.432999999999993 C190.8800000000001,24.265999999999963 190.65999999999985,24.182999999999993 190.38999999999987,24.182999999999993 C190.13999999999987,24.182999999999993 189.94000000000005,24.258000000000038 189.7800000000002,24.408999999999992 C189.61000000000013,24.559999999999945 189.5300000000002,24.75 189.5300000000002,24.979000000000042 C189.5300000000002,25.19799999999998 189.61000000000013,25.40700000000004 189.76000000000022,25.604000000000042 C189.90999999999985,25.80200000000002 190.15999999999985,26.020999999999958 190.51999999999998,26.260999999999967 M199.8800000000001,26.69799999999998 C199.8800000000001,26.937999999999988 199.8499999999999,27.172000000000025 199.78999999999996,27.400999999999954 C199.73000000000002,27.629999999999995 199.63999999999987,27.866999999999962 199.5,28.111999999999966 C199.3499999999999,28.35699999999997 199.17000000000007,28.567999999999984 198.94999999999982,28.745000000000005 C198.7199999999998,28.922000000000025 198.42000000000007,29.071000000000026 198.05000000000018,29.190000000000055 C197.67000000000007,29.309999999999945 197.25,29.370000000000005 196.7800000000002,29.370000000000005 L194.51999999999998,29.370000000000005 L194.51999999999998,29.214000000000055 C194.82000000000016,29.192999999999984 195.01000000000022,29.140999999999963 195.0999999999999,29.057999999999993 C195.17999999999984,28.974000000000046 195.2199999999998,28.787000000000035 195.2199999999998,28.495000000000005 L195.2199999999998,24.94799999999998 C195.2199999999998,24.65700000000004 195.17999999999984,24.47199999999998 195.0999999999999,24.394000000000005 C195.0300000000002,24.315000000000055 194.82999999999993,24.260999999999967 194.51999999999998,24.229000000000042 L194.51999999999998,24.07299999999998 L196.67000000000007,24.07299999999998 C197.15999999999985,24.07299999999998 197.5999999999999,24.128000000000043 197.98000000000002,24.236999999999966 C198.36000000000013,24.34699999999998 198.67000000000007,24.486999999999966 198.9000000000001,24.658999999999992 C199.13999999999987,24.831000000000017 199.32999999999993,25.037000000000035 199.48000000000002,25.275999999999954 C199.6300000000001,25.515999999999963 199.73000000000002,25.75 199.78999999999996,25.979000000000042 C199.8499999999999,26.208999999999946 199.8800000000001,26.44799999999998 199.8800000000001,26.69799999999998 M198.98999999999978,26.760999999999967 C198.98999999999978,26.53200000000004 198.9699999999998,26.309999999999945 198.92000000000007,26.09699999999998 C198.8800000000001,25.883000000000038 198.80000000000018,25.66999999999996 198.67999999999984,25.456000000000017 C198.55999999999995,25.241999999999962 198.40999999999985,25.059999999999945 198.2199999999998,24.908999999999992 C198.0300000000002,24.758000000000038 197.78999999999996,24.633000000000038 197.48999999999978,24.533999999999992 C197.19000000000005,24.434999999999945 196.84000000000015,24.385999999999967 196.46000000000004,24.385999999999967 C196.28999999999996,24.385999999999967 196.17999999999984,24.40700000000004 196.1199999999999,24.44799999999998 C196.05999999999995,24.49000000000001 196.0300000000002,24.57299999999998 196.0300000000002,24.69799999999998 L196.0300000000002,28.745000000000005 C196.0300000000002,28.870000000000005 196.05999999999995,28.956000000000017 196.1199999999999,29.003000000000043 C196.17999999999984,29.049999999999955 196.28999999999996,29.07299999999998 196.46000000000004,29.07299999999998 C198.13999999999987,29.07299999999998 198.98999999999978,28.30200000000002 198.98999999999978,26.760999999999967 M202.82000000000016,26.885999999999967 C202.67999999999984,26.458999999999946 202.57000000000016,26.190000000000055 202.5,26.081000000000017 C202.42000000000007,25.97199999999998 202.28999999999996,25.90700000000004 202.11000000000013,25.885999999999967 L202.11000000000013,25.775999999999954 L203.73999999999978,25.775999999999954 L203.73999999999978,25.885999999999967 C203.55000000000018,25.91700000000003 203.42000000000007,25.951000000000022 203.36000000000013,25.986999999999966 C203.30000000000018,26.024 203.26999999999998,26.089000000000055 203.26999999999998,26.182999999999993 C203.26999999999998,26.245000000000005 203.32000000000016,26.400999999999954 203.40999999999985,26.650999999999954 L204.07999999999993,28.44799999999998 L204.80000000000018,26.66700000000003 C204.88999999999987,26.44799999999998 204.94000000000005,26.270999999999958 204.94000000000005,26.135999999999967 C204.94000000000005,26.07299999999998 204.90999999999985,26.024 204.86000000000013,25.986999999999966 C204.80999999999995,25.951000000000022 204.7199999999998,25.91700000000003 204.57999999999993,25.885999999999967 L204.57999999999993,25.775999999999954 L205.57000000000016,25.775999999999954 L205.57000000000016,25.885999999999967 C205.48000000000002,25.91700000000003 205.42000000000007,25.956000000000017 205.38999999999987,26.003000000000043 C205.36000000000013,26.049999999999955 205.30999999999995,26.15700000000004 205.23999999999978,26.32299999999998 L204.1300000000001,29.089000000000055 C204.01999999999998,29.349000000000046 203.94999999999982,29.479000000000042 203.90999999999985,29.479000000000042 C203.8699999999999,29.479000000000042 203.80999999999995,29.36500000000001 203.7199999999998,29.135999999999967 L202.98999999999978,27.245000000000005 L202.0999999999999,29.16700000000003 C202.0,29.375 201.94000000000005,29.479000000000042 201.88999999999987,29.479000000000042 C201.8499999999999,29.479000000000042 201.7800000000002,29.36500000000001 201.69000000000005,29.135999999999967 L200.61000000000013,26.400999999999954 C200.5300000000002,26.192999999999984 200.46000000000004,26.057999999999993 200.40999999999985,25.995000000000005 C200.36000000000013,25.932999999999993 200.2800000000002,25.895999999999958 200.19000000000005,25.885999999999967 L200.19000000000005,25.775999999999954 L201.6300000000001,25.775999999999954 L201.6300000000001,25.885999999999967 C201.48000000000002,25.90700000000004 201.3800000000001,25.934999999999945 201.32999999999993,25.97199999999998 C201.2800000000002,26.008000000000038 201.25,26.067999999999984 201.25,26.150999999999954 C201.25,26.235000000000014 201.26999999999998,26.317999999999984 201.30000000000018,26.400999999999954 L202.0999999999999,28.479000000000042 L202.82000000000016,26.885999999999967 M205.82999999999993,28.57299999999998 C205.82999999999993,28.479000000000042 205.84000000000015,28.394000000000005 205.86000000000013,28.315000000000055 C205.8800000000001,28.236999999999966 205.92000000000007,28.162000000000035 205.9699999999998,28.089000000000055 C206.01999999999998,28.015999999999963 206.07999999999993,27.951000000000022 206.1300000000001,27.894000000000005 C206.17999999999984,27.836000000000013 206.25,27.775999999999954 206.3499999999999,27.714000000000055 C206.44000000000005,27.650999999999954 206.51999999999998,27.599000000000046 206.57999999999993,27.557999999999993 C206.63999999999987,27.515999999999963 206.73999999999978,27.46900000000005 206.86000000000013,27.41700000000003 C206.98999999999978,27.36500000000001 207.07999999999993,27.32299999999998 207.1500000000001,27.29200000000003 C207.2199999999998,27.260999999999967 207.32999999999993,27.216000000000008 207.48000000000002,27.158999999999992 C207.6300000000001,27.101999999999975 207.73999999999978,27.057999999999993 207.80000000000018,27.025999999999954 L207.80000000000018,26.54200000000003 C207.80000000000018,26.104000000000042 207.5999999999999,25.885999999999967 207.21000000000004,25.885999999999967 C207.03999999999996,25.885999999999967 206.9000000000001,25.924999999999955 206.78999999999996,26.003000000000043 C206.67999999999984,26.081000000000017 206.6300000000001,26.172000000000025 206.6300000000001,26.275999999999954 C206.6300000000001,26.317999999999984 206.63999999999987,26.375 206.6500000000001,26.44799999999998 C206.67000000000007,26.520999999999958 206.67000000000007,26.567999999999984 206.67000000000007,26.589000000000055 C206.67000000000007,26.682999999999993 206.63999999999987,26.763000000000034 206.57000000000016,26.831000000000017 C206.48999999999978,26.899 206.4000000000001,26.932999999999993 206.30000000000018,26.932999999999993 C206.21000000000004,26.932999999999993 206.1300000000001,26.899 206.05999999999995,26.831000000000017 C205.98999999999978,26.763000000000034 205.96000000000004,26.682999999999993 205.96000000000004,26.589000000000055 C205.96000000000004,26.339000000000055 206.09000000000015,26.128000000000043 206.3499999999999,25.956000000000017 C206.61000000000013,25.783999999999992 206.92000000000007,25.69799999999998 207.30000000000018,25.69799999999998 C207.73000000000002,25.69799999999998 208.01999999999998,25.80200000000002 208.17999999999984,26.010999999999967 C208.34000000000015,26.21900000000005 208.42000000000007,26.537000000000035 208.42000000000007,26.964000000000055 L208.42000000000007,28.510999999999967 C208.42000000000007,28.687999999999988 208.44000000000005,28.809999999999945 208.48000000000002,28.878000000000043 C208.51999999999998,28.946000000000026 208.57999999999993,28.979000000000042 208.67000000000007,28.979000000000042 C208.7800000000002,28.979000000000042 208.88999999999987,28.92700000000002 209.01999999999998,28.82299999999998 L209.01999999999998,29.04200000000003 C208.8800000000001,29.19799999999998 208.76000000000022,29.30499999999995 208.65999999999985,29.361999999999966 C208.55999999999995,29.41999999999996 208.44000000000005,29.44799999999998 208.30000000000018,29.44799999999998 C208.13999999999987,29.44799999999998 208.0300000000002,29.400999999999954 207.96000000000004,29.307999999999993 C207.8800000000001,29.214000000000055 207.84000000000015,29.062999999999988 207.82000000000016,28.854000000000042 C207.36000000000013,29.25 206.9699999999998,29.44799999999998 206.65999999999985,29.44799999999998 C206.42000000000007,29.44799999999998 206.2199999999998,29.366999999999962 206.07000000000016,29.206000000000017 C205.90999999999985,29.04499999999996 205.82999999999993,28.833999999999946 205.82999999999993,28.57299999999998 M207.80000000000018,28.370000000000005 L207.80000000000018,27.214000000000055 C207.32000000000016,27.390999999999963 206.98999999999978,27.562999999999988 206.80000000000018,27.729000000000042 C206.61000000000013,27.895999999999958 206.51999999999998,28.09400000000005 206.51999999999998,28.32299999999998 C206.51999999999998,28.54200000000003 206.57000000000016,28.702999999999975 206.67000000000007,28.807999999999993 C206.7800000000002,28.912000000000035 206.88999999999987,28.964000000000055 207.01999999999998,28.964000000000055 C207.19999999999982,28.964000000000055 207.38999999999987,28.90700000000004 207.5999999999999,28.79200000000003 C207.67999999999984,28.74000000000001 207.73000000000002,28.687999999999988 207.76000000000022,28.635999999999967 C207.78999999999996,28.583999999999946 207.80000000000018,28.495000000000005 207.80000000000018,28.370000000000005 M211.48999999999978,26.44799999999998 C211.4000000000001,26.44799999999998 211.30000000000018,26.400999999999954 211.17999999999984,26.307999999999993 C211.05999999999995,26.214000000000055 210.98999999999978,26.16700000000003 210.96000000000004,26.16700000000003 C210.8499999999999,26.16700000000003 210.73000000000002,26.245000000000005 210.5999999999999,26.400999999999954 C210.46000000000004,26.557999999999993 210.38999999999987,26.702999999999975 210.38999999999987,26.839000000000055 L210.38999999999987,28.650999999999954 C210.38999999999987,28.879999999999995 210.44000000000005,29.033999999999992 210.5300000000002,29.111999999999966 C210.61000000000013,29.190000000000055 210.78999999999996,29.235000000000014 211.07000000000016,29.245000000000005 L211.07000000000016,29.370000000000005 L209.13999999999987,29.370000000000005 L209.13999999999987,29.245000000000005 C209.4000000000001,29.202999999999975 209.55999999999995,29.150999999999954 209.6199999999999,29.089000000000055 C209.67999999999984,29.025999999999954 209.71000000000004,28.895999999999958 209.71000000000004,28.69799999999998 L209.71000000000004,26.682999999999993 C209.71000000000004,26.504999999999995 209.69000000000005,26.379999999999995 209.6500000000001,26.307999999999993 C209.61000000000013,26.235000000000014 209.53999999999996,26.19799999999998 209.44000000000005,26.19799999999998 C209.36000000000013,26.19799999999998 209.26000000000022,26.208999999999946 209.15999999999985,26.229000000000042 L209.15999999999985,26.104000000000042 C209.59000000000015,25.96900000000005 209.98000000000002,25.833999999999946 210.3499999999999,25.69799999999998 L210.38999999999987,25.714000000000055 L210.38999999999987,26.41700000000003 C210.59000000000015,26.145999999999958 210.76000000000022,25.958999999999946 210.88999999999987,25.854000000000042 C211.0300000000002,25.75 211.17999999999984,25.69799999999998 211.3499999999999,25.69799999999998 C211.48999999999978,25.69799999999998 211.5999999999999,25.73199999999997 211.67000000000007,25.799999999999955 C211.75,25.866999999999962 211.7800000000002,25.96900000000005 211.7800000000002,26.104000000000042 C211.7800000000002,26.208999999999946 211.76000000000022,26.29200000000003 211.71000000000004,26.354000000000042 C211.6500000000001,26.41700000000003 211.57999999999993,26.44799999999998 211.48999999999978,26.44799999999998 M214.4699999999998,24.729000000000042 C214.38999999999987,24.729000000000042 214.32000000000016,24.69799999999998 214.25,24.635999999999967 C214.19000000000005,24.57299999999998 214.13999999999987,24.504999999999995 214.0999999999999,24.432999999999993 C214.07000000000016,24.360000000000014 214.01000000000022,24.29200000000003 213.94000000000005,24.229000000000042 C213.8699999999999,24.16700000000003 213.7800000000002,24.135999999999967 213.69000000000005,24.135999999999967 C213.38999999999987,24.135999999999967 213.23999999999978,24.370000000000005 213.23999999999978,24.839000000000055 L213.23999999999978,25.775999999999954 L214.2199999999998,25.775999999999954 L214.2199999999998,26.010999999999967 L213.23999999999978,26.010999999999967 L213.23999999999978,28.54200000000003 C213.23999999999978,28.833999999999946 213.2800000000002,29.020999999999958 213.36000000000013,29.104000000000042 C213.44999999999982,29.187999999999988 213.6500000000001,29.235000000000014 213.98999999999978,29.245000000000005 L213.98999999999978,29.370000000000005 L211.88999999999987,29.370000000000005 L211.88999999999987,29.245000000000005 C212.19000000000005,29.235000000000014 212.3699999999999,29.187999999999988 212.44999999999982,29.104000000000042 C212.5300000000002,29.020999999999958 212.57000000000016,28.833999999999946 212.57000000000016,28.54200000000003 L212.57000000000016,26.010999999999967 L211.90999999999985,26.010999999999967 L211.90999999999985,25.775999999999954 L212.57000000000016,25.775999999999954 C212.57999999999993,25.172000000000025 212.69000000000005,24.706000000000017 212.9000000000001,24.378000000000043 C213.11000000000013,24.049999999999955 213.4699999999998,23.885999999999967 213.9699999999998,23.885999999999967 C214.21000000000004,23.885999999999967 214.40999999999985,23.934999999999945 214.57000000000016,24.033999999999992 C214.7199999999998,24.133000000000038 214.80000000000018,24.254999999999995 214.80000000000018,24.400999999999954 C214.80000000000018,24.495000000000005 214.76999999999998,24.57299999999998 214.71000000000004,24.635999999999967 C214.63999999999987,24.69799999999998 214.57000000000016,24.729000000000042 214.4699999999998,24.729000000000042 M222.17000000000007,24.79200000000003 L220.1300000000001,29.370000000000005 L220.01999999999998,29.370000000000005 L218.01999999999998,24.979000000000042 L218.01999999999998,28.19799999999998 C218.01999999999998,28.604000000000042 218.07000000000016,28.873000000000047 218.15999999999985,29.003000000000043 C218.25,29.133000000000038 218.46000000000004,29.202999999999975 218.76999999999998,29.214000000000055 L218.76999999999998,29.370000000000005 L216.88999999999987,29.370000000000005 L216.88999999999987,29.214000000000055 C217.2199999999998,29.192999999999984 217.42000000000007,29.120000000000005 217.51999999999998,28.995000000000005 C217.61000000000013,28.870000000000005 217.65999999999985,28.604000000000042 217.65999999999985,28.19799999999998 L217.65999999999985,24.94799999999998 C217.65999999999985,24.65700000000004 217.61000000000013,24.46900000000005 217.5300000000002,24.385999999999967 C217.44000000000005,24.30200000000002 217.23000000000002,24.25 216.90999999999985,24.229000000000042 L216.90999999999985,24.07299999999998 L218.48999999999978,24.07299999999998 L220.32999999999993,28.120000000000005 L222.0999999999999,24.07299999999998 L223.69000000000005,24.07299999999998 L223.69000000000005,24.229000000000042 C223.38999999999987,24.260999999999967 223.19999999999982,24.317999999999984 223.1199999999999,24.400999999999954 C223.03999999999996,24.485000000000014 223.0,24.66700000000003 223.0,24.94799999999998 L223.0,28.495000000000005 C223.0,28.775999999999954 223.03999999999996,28.961000000000013 223.1300000000001,29.049999999999955 C223.21000000000004,29.138000000000034 223.4000000000001,29.192999999999984 223.69000000000005,29.214000000000055 L223.69000000000005,29.370000000000005 L221.46000000000004,29.370000000000005 L221.46000000000004,29.214000000000055 C221.76999999999998,29.192999999999984 221.9699999999998,29.135999999999967 222.05000000000018,29.04200000000003 C222.1300000000001,28.94799999999998 222.17000000000007,28.74000000000001 222.17000000000007,28.41700000000003 L222.17000000000007,24.79200000000003 M227.65999999999985,28.94799999999998 L227.65999999999985,29.07299999999998 C227.23999999999978,29.187999999999988 226.8800000000001,29.312999999999988 226.57000000000016,29.44799999999998 L226.5300000000002,29.432999999999993 L226.51999999999998,28.745000000000005 C226.51000000000022,28.765999999999963 226.46000000000004,28.815000000000055 226.38999999999987,28.894000000000005 C226.30999999999995,28.97199999999998 226.25,29.025999999999954 226.2199999999998,29.057999999999993 C226.19000000000005,29.089000000000055 226.13999999999987,29.135999999999967 226.05999999999995,29.19799999999998 C225.98000000000002,29.260999999999967 225.90999999999985,29.30499999999995 225.8499999999999,29.331000000000017 C225.80000000000018,29.35699999999997 225.7199999999998,29.383000000000038 225.63999999999987,29.408999999999992 C225.55000000000018,29.434999999999945 225.46000000000004,29.44799999999998 225.36000000000013,29.44799999999998 C225.07000000000016,29.44799999999998 224.84000000000015,29.351999999999975 224.65999999999985,29.158999999999992 C224.48000000000002,28.966000000000008 224.38999999999987,28.714000000000055 224.38999999999987,28.400999999999954 L224.38999999999987,26.385999999999967 C224.38999999999987,26.208999999999946 224.36000000000013,26.083999999999946 224.28999999999996,26.010999999999967 C224.2199999999998,25.937999999999988 224.09000000000015,25.895999999999958 223.88999999999987,25.885999999999967 L223.88999999999987,25.775999999999954 L225.07000000000016,25.775999999999954 L225.07000000000016,28.370000000000005 C225.07000000000016,28.525999999999954 225.1199999999999,28.663999999999987 225.23999999999978,28.783999999999992 C225.3499999999999,28.903999999999996 225.48000000000002,28.964000000000055 225.6300000000001,28.964000000000055 C225.69000000000005,28.964000000000055 225.76000000000022,28.956000000000017 225.84000000000015,28.940000000000055 C225.92000000000007,28.924999999999955 226.01000000000022,28.895999999999958 226.11000000000013,28.854000000000042 C226.2199999999998,28.812999999999988 226.30999999999995,28.741999999999962 226.3800000000001,28.644000000000005 C226.44999999999982,28.54499999999996 226.48999999999978,28.422000000000025 226.48999999999978,28.275999999999954 L226.48999999999978,26.400999999999954 C226.48999999999978,26.214000000000055 226.44999999999982,26.086000000000013 226.3800000000001,26.019000000000005 C226.30999999999995,25.951000000000022 226.13999999999987,25.912000000000035 225.88999999999987,25.900999999999954 L225.88999999999987,25.775999999999954 L227.15999999999985,25.775999999999954 L227.15999999999985,28.495000000000005 C227.15999999999985,28.682999999999993 227.19000000000005,28.80499999999995 227.25,28.861999999999966 C227.32000000000016,28.91999999999996 227.44000000000005,28.94799999999998 227.6300000000001,28.94799999999998 L227.65999999999985,28.94799999999998 M229.86000000000013,25.854000000000042 C229.8699999999999,25.854000000000042 229.90999999999985,25.827999999999975 229.98999999999978,25.775999999999954 L230.07999999999993,25.775999999999954 L230.11000000000013,26.854000000000042 L229.98999999999978,26.854000000000042 C229.9000000000001,26.5 229.78999999999996,26.248000000000047 229.65999999999985,26.09699999999998 C229.51999999999998,25.946000000000026 229.34000000000015,25.870000000000005 229.11000000000013,25.870000000000005 C228.94000000000005,25.870000000000005 228.78999999999996,25.922000000000025 228.67000000000007,26.025999999999954 C228.55999999999995,26.129999999999995 228.5,26.260999999999967 228.5,26.41700000000003 C228.5,26.645999999999958 228.6199999999999,26.827999999999975 228.8499999999999,26.964000000000055 L229.71000000000004,27.479000000000042 C229.94999999999982,27.625 230.1199999999999,27.770999999999958 230.2199999999998,27.91700000000003 C230.32999999999993,28.062999999999988 230.3800000000001,28.235000000000014 230.3800000000001,28.432999999999993 C230.3800000000001,28.702999999999975 230.26999999999998,28.940000000000055 230.03999999999996,29.144000000000005 C229.82000000000016,29.34699999999998 229.55999999999995,29.44799999999998 229.25,29.44799999999998 C229.1199999999999,29.44799999999998 228.94000000000005,29.424999999999955 228.71000000000004,29.378000000000043 C228.48999999999978,29.331000000000017 228.3499999999999,29.307999999999993 228.30000000000018,29.307999999999993 C228.2199999999998,29.307999999999993 228.1500000000001,29.339000000000055 228.11000000000013,29.400999999999954 L228.0,29.400999999999954 L228.0,28.150999999999954 L228.13999999999987,28.150999999999954 C228.23000000000002,28.525999999999954 228.32999999999993,28.79200000000003 228.44000000000005,28.94799999999998 C228.61000000000013,29.16700000000003 228.8499999999999,29.275999999999954 229.15999999999985,29.275999999999954 C229.36000000000013,29.275999999999954 229.51999999999998,29.224000000000046 229.63999999999987,29.120000000000005 C229.76000000000022,29.015999999999963 229.82000000000016,28.875 229.82000000000016,28.69799999999998 C229.82000000000016,28.458999999999946 229.67000000000007,28.260999999999967 229.38999999999987,28.104000000000042 L228.94000000000005,27.839000000000055 C228.5999999999999,27.640999999999963 228.3499999999999,27.456000000000017 228.21000000000004,27.283999999999992 C228.07000000000016,27.111999999999966 228.0,26.912000000000035 228.0,26.682999999999993 C228.0,26.390999999999963 228.0999999999999,26.153999999999996 228.30999999999995,25.97199999999998 C228.51000000000022,25.788999999999987 228.76999999999998,25.69799999999998 229.0999999999999,25.69799999999998 C229.26000000000022,25.69799999999998 229.42000000000007,25.724000000000046 229.57999999999993,25.775999999999954 C229.73999999999978,25.827999999999975 229.82999999999993,25.854000000000042 229.86000000000013,25.854000000000042 M231.13999999999987,26.229000000000042 C231.01999999999998,26.229000000000042 230.9000000000001,26.235000000000014 230.80000000000018,26.245000000000005 L230.80000000000018,26.135999999999967 C231.17000000000007,26.03200000000004 231.59000000000015,25.885999999999967 232.05000000000018,25.69799999999998 L232.07999999999993,25.714000000000055 L232.07999999999993,28.557999999999993 C232.07999999999993,28.839000000000055 232.11000000000013,29.019000000000005 232.17999999999984,29.09699999999998 C232.25,29.174999999999955 232.40999999999985,29.224000000000046 232.67000000000007,29.245000000000005 L232.67000000000007,29.370000000000005 L230.76999999999998,29.370000000000005 L230.76999999999998,29.245000000000005 C231.05000000000018,29.235000000000014 231.23000000000002,29.187999999999988 231.30000000000018,29.104000000000042 C231.3699999999999,29.020999999999958 231.40999999999985,28.839000000000055 231.40999999999985,28.557999999999993 L231.40999999999985,26.69799999999998 C231.40999999999985,26.520999999999958 231.38999999999987,26.399 231.3499999999999,26.331000000000017 C231.30999999999995,26.263000000000034 231.23999999999978,26.229000000000042 231.13999999999987,26.229000000000042 M231.67000000000007,23.900999999999954 C231.78999999999996,23.900999999999954 231.88999999999987,23.942999999999984 231.9699999999998,24.025999999999954 C232.05999999999995,24.110000000000014 232.0999999999999,24.208999999999946 232.0999999999999,24.32299999999998 C232.0999999999999,24.437999999999988 232.05999999999995,24.533999999999992 231.9699999999998,24.611999999999966 C231.88999999999987,24.690000000000055 231.78999999999996,24.729000000000042 231.67000000000007,24.729000000000042 C231.55999999999995,24.729000000000042 231.46000000000004,24.687999999999988 231.38999999999987,24.604000000000042 C231.30999999999995,24.520999999999958 231.26999999999998,24.424999999999955 231.26999999999998,24.315000000000055 C231.26999999999998,24.206000000000017 231.30999999999995,24.110000000000014 231.38999999999987,24.025999999999954 C231.46000000000004,23.942999999999984 231.55999999999995,23.900999999999954 231.67000000000007,23.900999999999954 M233.07000000000016,27.66700000000003 C233.07000000000016,27.07299999999998 233.23999999999978,26.59699999999998 233.59000000000015,26.236999999999966 C233.94000000000005,25.878000000000043 234.3499999999999,25.69799999999998 234.82000000000016,25.69799999999998 C235.1500000000001,25.69799999999998 235.42999999999984,25.778999999999996 235.67000000000007,25.940000000000055 C235.9000000000001,26.101999999999975 236.01999999999998,26.297000000000025 236.01999999999998,26.525999999999954 C236.01999999999998,26.610000000000014 235.98000000000002,26.684999999999945 235.90999999999985,26.753000000000043 C235.84000000000015,26.821000000000026 235.75,26.854000000000042 235.63999999999987,26.854000000000042 C235.4699999999998,26.854000000000042 235.3499999999999,26.735000000000014 235.2800000000002,26.495000000000005 L235.23999999999978,26.32299999999998 C235.19999999999982,26.16700000000003 235.13999999999987,26.062999999999988 235.07999999999993,26.010999999999967 C235.01999999999998,25.958999999999946 234.90999999999985,25.932999999999993 234.76999999999998,25.932999999999993 C234.44999999999982,25.932999999999993 234.19000000000005,26.059999999999945 233.98999999999978,26.315000000000055 C233.78999999999996,26.571000000000026 233.69000000000005,26.90700000000004 233.69000000000005,27.32299999999998 C233.69000000000005,27.770999999999958 233.80999999999995,28.140999999999963 234.0300000000002,28.432999999999993 C234.26000000000022,28.724000000000046 234.55999999999995,28.870000000000005 234.92000000000007,28.870000000000005 C235.13999999999987,28.870000000000005 235.32999999999993,28.812999999999988 235.5,28.69799999999998 C235.65999999999985,28.583999999999946 235.82999999999993,28.390999999999963 236.01999999999998,28.120000000000005 L236.1300000000001,28.182999999999993 C236.07999999999993,28.297000000000025 236.0300000000002,28.388000000000034 236.0,28.456000000000017 C235.96000000000004,28.524 235.88999999999987,28.628000000000043 235.7800000000002,28.769000000000005 C235.67999999999984,28.908999999999992 235.57999999999993,29.020999999999958 235.48000000000002,29.104000000000042 C235.3800000000001,29.187999999999988 235.25,29.265999999999963 235.09000000000015,29.339000000000055 C234.92999999999984,29.412000000000035 234.76000000000022,29.44799999999998 234.57999999999993,29.44799999999998 C234.13999999999987,29.44799999999998 233.7800000000002,29.28200000000004 233.5,28.94799999999998 C233.21000000000004,28.61500000000001 233.07000000000016,28.187999999999988 233.07000000000016,27.66700000000003 M237.40999999999985,28.57299999999998 C237.51999999999998,28.57299999999998 237.6300000000001,28.616999999999962 237.71000000000004,28.706000000000017 C237.80000000000018,28.79499999999996 237.8499999999999,28.900999999999954 237.8499999999999,29.025999999999954 C237.8499999999999,29.140999999999963 237.80000000000018,29.241999999999962 237.71000000000004,29.331000000000017 C237.6300000000001,29.41999999999996 237.51999999999998,29.464000000000055 237.38999999999987,29.464000000000055 C237.2800000000002,29.464000000000055 237.17999999999984,29.41999999999996 237.0999999999999,29.331000000000017 C237.01000000000022,29.241999999999962 236.9699999999998,29.140999999999963 236.9699999999998,29.025999999999954 C236.9699999999998,28.900999999999954 237.01999999999998,28.79499999999996 237.0999999999999,28.706000000000017 C237.19000000000005,28.616999999999962 237.28999999999996,28.57299999999998 237.40999999999985,28.57299999999998" />
</svg>
