<?xml version="1.0" encoding="UTF-8" standalone="yes"?>
<svg width="256.0px" height="256.0px" xmlns="http://www.w3.org/2000/svg" xmlns:xlink="http://www.w3.org/1999/xlink" version="1.2" baseProfile="tiny">
<path d="M113.18000000000029,24.635999999999967 C113.06999999999971,24.635999999999967 112.88000000000011,24.692999999999984 112.60000000000036,24.807999999999993 L112.60000000000036,24.69799999999998 L114.02000000000044,23.964000000000055 L114.07999999999993,23.979000000000042 L114.07999999999993,28.775999999999954 C114.07999999999993,28.974000000000046 114.13000000000011,29.101999999999975 114.22999999999956,29.158999999999992 C114.32999999999993,29.216000000000008 114.53999999999996,29.245000000000005 114.85000000000036,29.245000000000005 L114.85000000000036,29.370000000000005 L112.64999999999964,29.370000000000005 L112.64999999999964,29.245000000000005 C112.94999999999982,29.235000000000014 113.14999999999964,29.190000000000055 113.26000000000022,29.111999999999966 C113.35999999999967,29.033999999999992 113.40999999999985,28.870000000000005 113.40999999999985,28.620000000000005 L113.40999999999985,25.010999999999967 C113.40999999999985,24.760999999999967 113.32999999999993,24.635999999999967 113.18000000000029,24.635999999999967 M117.15999999999985,24.635999999999967 C117.0600000000004,24.635999999999967 116.86999999999989,24.692999999999984 116.57999999999993,24.807999999999993 L116.57999999999993,24.69799999999998 L118.01000000000022,23.964000000000055 L118.06999999999971,23.979000000000042 L118.06999999999971,28.775999999999954 C118.06999999999971,28.974000000000046 118.11999999999989,29.101999999999975 118.22000000000025,29.158999999999992 C118.31999999999971,29.216000000000008 118.52000000000044,29.245000000000005 118.82999999999993,29.245000000000005 L118.82999999999993,29.370000000000005 L116.63000000000011,29.370000000000005 L116.63000000000011,29.245000000000005 C116.93000000000029,29.235000000000014 117.14000000000033,29.190000000000055 117.23999999999978,29.111999999999966 C117.34000000000015,29.033999999999992 117.39999999999964,28.870000000000005 117.39999999999964,28.620000000000005 L117.39999999999964,25.010999999999967 C117.39999999999964,24.760999999999967 117.31999999999971,24.635999999999967 117.15999999999985,24.635999999999967" />
<path d="M177.84000000000015,24.635999999999967 C177.73999999999978,24.635999999999967 177.55000000000018,24.692999999999984 177.27000000000044,24.807999999999993 L177.27000000000044,24.69799999999998 L178.6899999999996,23.964000000000055 L178.75,23.979000000000042 L178.75,28.775999999999954 C178.75,28.974000000000046 178.80000000000018,29.101999999999975 178.89999999999964,29.158999999999992 C179.0,29.216000000000008 179.19999999999982,29.245000000000005 179.52000000000044,29.245000000000005 L179.52000000000044,29.370000000000005 L177.3100000000004,29.370000000000005 L177.3100000000004,29.245000000000005 C177.60999999999967,29.235000000000014 177.8199999999997,29.190000000000055 177.92000000000007,29.111999999999966 C178.02999999999975,29.033999999999992 178.07999999999993,28.870000000000005 178.07999999999993,28.620000000000005 L178.07999999999993,25.010999999999967 C178.07999999999993,24.760999999999967 178.0,24.635999999999967 177.84000000000015,24.635999999999967 M180.60999999999967,25.557999999999993 C180.6300000000001,25.442999999999984 180.65999999999985,25.339000000000055 180.6899999999996,25.245000000000005 C180.72000000000025,25.150999999999954 180.77999999999975,25.019000000000005 180.85999999999967,24.84699999999998 C180.9399999999996,24.674999999999955 181.03999999999996,24.53200000000004 181.14999999999964,24.41700000000003 C181.26000000000022,24.30200000000002 181.40999999999985,24.201000000000022 181.60999999999967,24.111999999999966 C181.8100000000004,24.024 182.02999999999975,23.979000000000042 182.27000000000044,23.979000000000042 C182.6800000000003,23.979000000000042 183.02999999999975,24.11500000000001 183.3100000000004,24.385999999999967 C183.59000000000015,24.65700000000004 183.72999999999956,24.99000000000001 183.72999999999956,25.385999999999967 C183.72999999999956,25.99000000000001 183.39999999999964,26.650999999999954 182.72000000000025,27.370000000000005 L181.39000000000033,28.79200000000003 L183.27999999999975,28.79200000000003 C183.47000000000025,28.79200000000003 183.60999999999967,28.760999999999967 183.69999999999982,28.69799999999998 C183.77999999999975,28.635999999999967 183.89999999999964,28.49000000000001 184.05000000000018,28.260999999999967 L184.15999999999985,28.29200000000003 L183.69999999999982,29.370000000000005 L180.59000000000015,29.370000000000005 L180.59000000000015,29.275999999999954 L182.02000000000044,27.760999999999967 C182.71000000000004,27.03200000000004 183.0600000000004,26.34400000000005 183.0600000000004,25.69799999999998 C183.0600000000004,25.354000000000042 182.96000000000004,25.077999999999975 182.75,24.870000000000005 C182.53999999999996,24.662000000000035 182.27000000000044,24.557999999999993 181.9399999999996,24.557999999999993 C181.65999999999985,24.557999999999993 181.4300000000003,24.633000000000038 181.27000000000044,24.783999999999992 C181.10000000000036,24.934999999999945 180.9399999999996,25.208999999999946 180.77999999999975,25.604000000000042 L180.60999999999967,25.557999999999993" />
</svg>
