<?xml version="1.0" encoding="UTF-8" standalone="yes"?>
<svg width="256.0px" height="256.0px" xmlns="http://www.w3.org/2000/svg" xmlns:xlink="http://www.w3.org/1999/xlink" version="1.2" baseProfile="tiny">
<path d="M43.17000000000007,25.846000000000004 C44.51999999999998,26.756999999999948 47.76999999999998,26.006999999999948 48.590000000000146,24.596000000000004 C47.86000000000013,26.397000000000048 44.61000000000013,27.147000000000048 43.17000000000007,25.846000000000004" />
<path d="M246.71000000000004,60.096000000000004 C249.1199999999999,57.696000000000026 256.3299999999999,57.696000000000026 258.73,60.096000000000004 C256.3299999999999,58.49599999999998 249.1199999999999,58.49599999999998 246.71000000000004,60.096000000000004" />
<path d="M57.460000000000036,85.82100000000003 C68.13999999999987,91.92100000000005 100.15000000000009,91.92100000000005 110.82000000000016,85.82100000000003 C100.15000000000009,92.721 68.13999999999987,92.721 57.460000000000036,85.82100000000003" />
<path d="M37.909999999999854,20.51800000000003 L37.909999999999854,22.065000000000055 C37.909999999999854,22.616999999999962 37.940000000000055,23.05499999999995 37.98999999999978,23.378000000000043 C38.42000000000007,23.013000000000034 38.7199999999998,22.741999999999962 38.909999999999854,22.565000000000055 C39.11999999999989,22.35699999999997 39.32999999999993,22.067999999999984 39.539999999999964,21.69799999999998 C39.75,21.327999999999975 39.84999999999991,20.961000000000013 39.84999999999991,20.596000000000004 C39.84999999999991,20.23199999999997 39.76999999999998,19.918999999999983 39.61000000000013,19.658999999999992 C39.460000000000036,19.399 39.25,19.26800000000003 38.98999999999978,19.26800000000003 C38.679999999999836,19.26800000000003 38.42000000000007,19.388000000000034 38.210000000000036,19.628000000000043 C38.01000000000022,19.888000000000034 37.909999999999854,20.184999999999945 37.909999999999854,20.51800000000003 M37.07999999999993,24.096000000000004 L36.82999999999993,12.206000000000017 C37.01999999999998,12.101999999999975 37.210000000000036,12.049999999999955 37.38999999999987,12.049999999999955 C37.570000000000164,12.049999999999955 37.75,12.101999999999975 37.929999999999836,12.206000000000017 L37.76999999999998,19.096000000000004 C38.30000000000018,18.638000000000034 38.92000000000007,18.408999999999992 39.61000000000013,18.408999999999992 C40.11000000000013,18.408999999999992 40.5300000000002,18.616999999999962 40.86999999999989,19.033999999999992 C41.210000000000036,19.451000000000022 41.38000000000011,19.92999999999995 41.38000000000011,20.471000000000004 C41.38000000000011,20.80499999999995 41.26999999999998,21.163999999999987 41.05000000000018,21.549999999999955 C40.840000000000146,21.89300000000003 40.63000000000011,22.163999999999987 40.40000000000009,22.361999999999966 C40.26000000000022,22.466000000000008 39.929999999999836,22.726999999999975 39.40000000000009,23.14300000000003 C39.23999999999978,23.258000000000038 39.05000000000018,23.39300000000003 38.840000000000146,23.549999999999955 C38.63000000000011,23.706000000000017 38.5,23.80499999999995 38.440000000000055,23.846000000000004 C38.34999999999991,23.899 38.26000000000022,24.003000000000043 38.179999999999836,24.158999999999992 C38.090000000000146,24.293999999999983 37.98999999999978,24.403999999999996 37.86000000000013,24.486999999999966 C37.7800000000002,24.57000000000005 37.67000000000007,24.611999999999966 37.539999999999964,24.611999999999966 C37.409999999999854,24.611999999999966 37.309999999999945,24.565000000000055 37.2199999999998,24.471000000000004 C37.13000000000011,24.378000000000043 37.07999999999993,24.253000000000043 37.07999999999993,24.096000000000004" />
<path d="M245.73000000000002,63.12800000000004 L248.13999999999987,61.174999999999955 C248.19999999999982,61.12199999999996 248.26000000000022,61.096000000000004 248.30999999999995,61.096000000000004 C248.3800000000001,61.096000000000004 248.44999999999982,61.12199999999996 248.51000000000022,61.174999999999955 L248.92000000000007,61.486999999999966 C248.98000000000002,61.549999999999955 249.01000000000022,61.62800000000004 249.01000000000022,61.721000000000004 C249.01000000000022,61.78399999999999 248.98000000000002,61.861999999999966 248.92000000000007,61.95600000000002 L246.59000000000015,63.846000000000004 L248.92000000000007,65.73699999999997 C248.98000000000002,65.80999999999995 249.01000000000022,65.89099999999996 249.01000000000022,65.97900000000004 C249.01000000000022,66.06799999999998 248.98000000000002,66.14300000000003 248.92000000000007,66.20600000000002 L248.51000000000022,66.51800000000003 C248.44999999999982,66.57000000000005 248.3800000000001,66.596 248.30999999999995,66.596 C248.26000000000022,66.596 248.19999999999982,66.57000000000005 248.13999999999987,66.51800000000003 L245.73000000000002,64.56500000000005 L243.30999999999995,66.51800000000003 C243.25,66.57000000000005 243.19000000000005,66.596 243.13999999999987,66.596 C243.07000000000016,66.596 243.01000000000022,66.57000000000005 242.94999999999982,66.51800000000003 L242.5300000000002,66.20600000000002 C242.46000000000004,66.14300000000003 242.42999999999984,66.06500000000005 242.42999999999984,65.971 C242.42999999999984,65.90899999999999 242.46000000000004,65.83100000000002 242.5300000000002,65.73699999999997 L244.86000000000013,63.846000000000004 L242.5300000000002,61.95600000000002 C242.46000000000004,61.88300000000004 242.42999999999984,61.80200000000002 242.42999999999984,61.714000000000055 C242.42999999999984,61.625 242.46000000000004,61.549999999999955 242.5300000000002,61.486999999999966 L242.94999999999982,61.174999999999955 C243.01000000000022,61.12199999999996 243.07000000000016,61.096000000000004 243.13999999999987,61.096000000000004 C243.19000000000005,61.096000000000004 243.25,61.12199999999996 243.30999999999995,61.174999999999955 L245.73000000000002,63.12800000000004" />
<path d="M211.55000000000018,63.12800000000004 L213.96000000000004,61.174999999999955 C214.01999999999998,61.12199999999996 214.07999999999993,61.096000000000004 214.1300000000001,61.096000000000004 C214.19999999999982,61.096000000000004 214.26999999999998,61.12199999999996 214.32999999999993,61.174999999999955 L214.73999999999978,61.486999999999966 C214.80000000000018,61.549999999999955 214.82999999999993,61.62800000000004 214.82999999999993,61.721000000000004 C214.82999999999993,61.78399999999999 214.80000000000018,61.861999999999966 214.73999999999978,61.95600000000002 L212.40999999999985,63.846000000000004 L214.73999999999978,65.73699999999997 C214.80000000000018,65.80999999999995 214.82999999999993,65.89099999999996 214.82999999999993,65.97900000000004 C214.82999999999993,66.06799999999998 214.80000000000018,66.14300000000003 214.73999999999978,66.20600000000002 L214.32999999999993,66.51800000000003 C214.26999999999998,66.57000000000005 214.19999999999982,66.596 214.1300000000001,66.596 C214.07999999999993,66.596 214.01999999999998,66.57000000000005 213.96000000000004,66.51800000000003 L211.55000000000018,64.56500000000005 L209.1300000000001,66.51800000000003 C209.07000000000016,66.57000000000005 209.01000000000022,66.596 208.96000000000004,66.596 C208.9000000000001,66.596 208.82999999999993,66.57000000000005 208.76999999999998,66.51800000000003 L208.3499999999999,66.20600000000002 C208.28999999999996,66.14300000000003 208.25,66.06500000000005 208.25,65.971 C208.25,65.90899999999999 208.28999999999996,65.83100000000002 208.3499999999999,65.73699999999997 L210.67999999999984,63.846000000000004 L208.3499999999999,61.95600000000002 C208.28999999999996,61.88300000000004 208.25,61.80200000000002 208.25,61.714000000000055 C208.25,61.625 208.28999999999996,61.549999999999955 208.3499999999999,61.486999999999966 L208.76999999999998,61.174999999999955 C208.82999999999993,61.12199999999996 208.9000000000001,61.096000000000004 208.96000000000004,61.096000000000004 C209.01000000000022,61.096000000000004 209.07000000000016,61.12199999999996 209.1300000000001,61.174999999999955 L211.55000000000018,63.12800000000004" />
<path d="M212.6500000000001,81.096 C213.26999999999998,81.096 213.80000000000018,81.25800000000004 214.23999999999978,81.58100000000002 C214.6300000000001,81.93499999999995 214.82999999999993,82.37800000000004 214.82999999999993,82.90899999999999 C214.82999999999993,83.80499999999995 214.3699999999999,84.64300000000003 213.46000000000004,85.42499999999995 C212.51999999999998,86.20600000000002 211.51000000000022,86.596 210.44000000000005,86.596 C209.82000000000016,86.596 209.28999999999996,86.43499999999995 208.86000000000013,86.11199999999997 C208.46000000000004,85.75800000000004 208.25,85.31500000000005 208.25,84.78399999999999 C208.25,83.88800000000003 208.7199999999998,83.04999999999995 209.65999999999985,82.26800000000003 C210.57999999999993,81.48699999999997 211.57000000000016,81.096 212.6500000000001,81.096" />
<path d="M212.6500000000001,18.596000000000004 C213.26999999999998,18.596000000000004 213.80000000000018,18.758000000000038 214.23999999999978,19.081000000000017 C214.6300000000001,19.434999999999945 214.82999999999993,19.878000000000043 214.82999999999993,20.408999999999992 C214.82999999999993,21.30499999999995 214.3699999999999,22.14300000000003 213.46000000000004,22.924999999999955 C212.51999999999998,23.706000000000017 211.51000000000022,24.096000000000004 210.44000000000005,24.096000000000004 C209.82000000000016,24.096000000000004 209.28999999999996,23.934999999999945 208.86000000000013,23.611999999999966 C208.46000000000004,23.258000000000038 208.25,22.815000000000055 208.25,22.283999999999992 C208.25,21.388000000000034 208.7199999999998,20.549999999999955 209.65999999999985,19.76800000000003 C210.57999999999993,18.986999999999966 211.57000000000016,18.596000000000004 212.6500000000001,18.596000000000004" />
<path d="M184.21000000000004,63.12800000000004 L186.61000000000013,61.174999999999955 C186.67999999999984,61.12199999999996 186.73000000000002,61.096000000000004 186.78999999999996,61.096000000000004 C186.86000000000013,61.096000000000004 186.92999999999984,61.12199999999996 186.98999999999978,61.174999999999955 L187.4000000000001,61.486999999999966 C187.46000000000004,61.549999999999955 187.48999999999978,61.62800000000004 187.48999999999978,61.721000000000004 C187.48999999999978,61.78399999999999 187.46000000000004,61.861999999999966 187.4000000000001,61.95600000000002 L185.07000000000016,63.846000000000004 L187.4000000000001,65.73699999999997 C187.46000000000004,65.80999999999995 187.48999999999978,65.89099999999996 187.48999999999978,65.97900000000004 C187.48999999999978,66.06799999999998 187.46000000000004,66.14300000000003 187.4000000000001,66.20600000000002 L186.98999999999978,66.51800000000003 C186.92999999999984,66.57000000000005 186.86000000000013,66.596 186.78999999999996,66.596 C186.73000000000002,66.596 186.67999999999984,66.57000000000005 186.61000000000013,66.51800000000003 L184.21000000000004,64.56500000000005 L181.78999999999996,66.51800000000003 C181.7199999999998,66.57000000000005 181.67000000000007,66.596 181.61000000000013,66.596 C181.55000000000018,66.596 181.48999999999978,66.57000000000005 181.42999999999984,66.51800000000003 L181.01000000000022,66.20600000000002 C180.94000000000005,66.14300000000003 180.90999999999985,66.06500000000005 180.90999999999985,65.971 C180.90999999999985,65.90899999999999 180.94000000000005,65.83100000000002 181.01000000000022,65.73699999999997 L183.32999999999993,63.846000000000004 L181.01000000000022,61.95600000000002 C180.94000000000005,61.88300000000004 180.90999999999985,61.80200000000002 180.90999999999985,61.714000000000055 C180.90999999999985,61.625 180.94000000000005,61.549999999999955 181.01000000000022,61.486999999999966 L181.42999999999984,61.174999999999955 C181.48999999999978,61.12199999999996 181.55000000000018,61.096000000000004 181.61000000000013,61.096000000000004 C181.67000000000007,61.096000000000004 181.7199999999998,61.12199999999996 181.78999999999996,61.174999999999955 L184.21000000000004,63.12800000000004" />
<path d="M185.30000000000018,71.096 C185.92999999999984,71.096 186.46000000000004,71.25800000000004 186.9000000000001,71.58100000000002 C187.28999999999996,71.93499999999995 187.48999999999978,72.37800000000004 187.48999999999978,72.90899999999999 C187.48999999999978,73.80499999999995 187.0300000000002,74.64300000000003 186.11000000000013,75.42499999999995 C185.17999999999984,76.20600000000002 184.17000000000007,76.596 183.0999999999999,76.596 C182.4699999999998,76.596 181.94999999999982,76.43499999999995 181.51999999999998,76.11199999999997 C181.11000000000013,75.75800000000004 180.90999999999985,75.31500000000005 180.90999999999985,74.78399999999999 C180.90999999999985,73.88800000000003 181.3800000000001,73.04999999999995 182.32000000000016,72.26800000000003 C183.23000000000002,71.48699999999997 184.23000000000002,71.096 185.30000000000018,71.096" />
<path d="M185.30000000000018,81.096 C185.92999999999984,81.096 186.46000000000004,81.25800000000004 186.9000000000001,81.58100000000002 C187.28999999999996,81.93499999999995 187.48999999999978,82.37800000000004 187.48999999999978,82.90899999999999 C187.48999999999978,83.80499999999995 187.0300000000002,84.64300000000003 186.11000000000013,85.42499999999995 C185.17999999999984,86.20600000000002 184.17000000000007,86.596 183.0999999999999,86.596 C182.4699999999998,86.596 181.94999999999982,86.43499999999995 181.51999999999998,86.11199999999997 C181.11000000000013,85.75800000000004 180.90999999999985,85.31500000000005 180.90999999999985,84.78399999999999 C180.90999999999985,83.88800000000003 181.3800000000001,83.04999999999995 182.32000000000016,82.26800000000003 C183.23000000000002,81.48699999999997 184.23000000000002,81.096 185.30000000000018,81.096" />
<path d="M185.30000000000018,18.596000000000004 C185.92999999999984,18.596000000000004 186.46000000000004,18.758000000000038 186.9000000000001,19.081000000000017 C187.28999999999996,19.434999999999945 187.48999999999978,19.878000000000043 187.48999999999978,20.408999999999992 C187.48999999999978,21.30499999999995 187.0300000000002,22.14300000000003 186.11000000000013,22.924999999999955 C185.17999999999984,23.706000000000017 184.17000000000007,24.096000000000004 183.0999999999999,24.096000000000004 C182.4699999999998,24.096000000000004 181.94999999999982,23.934999999999945 181.51999999999998,23.611999999999966 C181.11000000000013,23.258000000000038 180.90999999999985,22.815000000000055 180.90999999999985,22.283999999999992 C180.90999999999985,21.388000000000034 181.3800000000001,20.549999999999955 182.32000000000016,19.76800000000003 C183.23000000000002,18.986999999999966 184.23000000000002,18.596000000000004 185.30000000000018,18.596000000000004" />
<path d="M167.26999999999998,16.096000000000004 C167.9000000000001,16.096000000000004 168.42999999999984,16.258000000000038 168.8699999999999,16.581000000000017 C169.26000000000022,16.934999999999945 169.46000000000004,17.378000000000043 169.46000000000004,17.908999999999992 C169.46000000000004,18.80499999999995 169.0,19.64300000000003 168.07999999999993,20.424999999999955 C167.1500000000001,21.206000000000017 166.13999999999987,21.596000000000004 165.07000000000016,21.596000000000004 C164.44000000000005,21.596000000000004 163.92000000000007,21.434999999999945 163.48999999999978,21.111999999999966 C163.07999999999993,20.758000000000038 162.8800000000001,20.315000000000055 162.8800000000001,19.783999999999992 C162.8800000000001,18.888000000000034 163.3499999999999,18.049999999999955 164.28999999999996,17.26800000000003 C165.19999999999982,16.486999999999966 166.19999999999982,16.096000000000004 167.26999999999998,16.096000000000004" />
<path d="M149.09000000000015,63.12800000000004 L151.5,61.174999999999955 C151.55999999999995,61.12199999999996 151.61000000000013,61.096000000000004 151.67000000000007,61.096000000000004 C151.73999999999978,61.096000000000004 151.80999999999995,61.12199999999996 151.8699999999999,61.174999999999955 L152.2800000000002,61.486999999999966 C152.34000000000015,61.549999999999955 152.3699999999999,61.62800000000004 152.3699999999999,61.721000000000004 C152.3699999999999,61.78399999999999 152.34000000000015,61.861999999999966 152.2800000000002,61.95600000000002 L149.94999999999982,63.846000000000004 L152.2800000000002,65.73699999999997 C152.34000000000015,65.80999999999995 152.3699999999999,65.89099999999996 152.3699999999999,65.97900000000004 C152.3699999999999,66.06799999999998 152.34000000000015,66.14300000000003 152.2800000000002,66.20600000000002 L151.8699999999999,66.51800000000003 C151.80999999999995,66.57000000000005 151.73999999999978,66.596 151.67000000000007,66.596 C151.61000000000013,66.596 151.55999999999995,66.57000000000005 151.5,66.51800000000003 L149.09000000000015,64.56500000000005 L146.67000000000007,66.51800000000003 C146.5999999999999,66.57000000000005 146.55000000000018,66.596 146.5,66.596 C146.42999999999984,66.596 146.3699999999999,66.57000000000005 146.30999999999995,66.51800000000003 L145.88999999999987,66.20600000000002 C145.82000000000016,66.14300000000003 145.78999999999996,66.06500000000005 145.78999999999996,65.971 C145.78999999999996,65.90899999999999 145.82000000000016,65.83100000000002 145.88999999999987,65.73699999999997 L148.21000000000004,63.846000000000004 L145.88999999999987,61.95600000000002 C145.82000000000016,61.88300000000004 145.78999999999996,61.80200000000002 145.78999999999996,61.714000000000055 C145.78999999999996,61.625 145.82000000000016,61.549999999999955 145.88999999999987,61.486999999999966 L146.30999999999995,61.174999999999955 C146.3699999999999,61.12199999999996 146.42999999999984,61.096000000000004 146.5,61.096000000000004 C146.55000000000018,61.096000000000004 146.5999999999999,61.12199999999996 146.67000000000007,61.174999999999955 L149.09000000000015,63.12800000000004" />
<path d="M150.17999999999984,81.096 C150.80999999999995,81.096 151.34000000000015,81.25800000000004 151.7800000000002,81.58100000000002 C152.17000000000007,81.93499999999995 152.3699999999999,82.37800000000004 152.3699999999999,82.90899999999999 C152.3699999999999,83.80499999999995 151.90999999999985,84.64300000000003 151.0,85.42499999999995 C150.05999999999995,86.20600000000002 149.05000000000018,86.596 147.98000000000002,86.596 C147.3499999999999,86.596 146.82999999999993,86.43499999999995 146.4000000000001,86.11199999999997 C146.0,85.75800000000004 145.78999999999996,85.31500000000005 145.78999999999996,84.78399999999999 C145.78999999999996,83.88800000000003 146.26000000000022,83.04999999999995 147.19999999999982,82.26800000000003 C148.11000000000013,81.48699999999997 149.11000000000013,81.096 150.17999999999984,81.096" />
<path d="M150.17999999999984,16.096000000000004 C150.80999999999995,16.096000000000004 151.34000000000015,16.258000000000038 151.7800000000002,16.581000000000017 C152.17000000000007,16.934999999999945 152.3699999999999,17.378000000000043 152.3699999999999,17.908999999999992 C152.3699999999999,18.80499999999995 151.90999999999985,19.64300000000003 151.0,20.424999999999955 C150.05999999999995,21.206000000000017 149.05000000000018,21.596000000000004 147.98000000000002,21.596000000000004 C147.3499999999999,21.596000000000004 146.82999999999993,21.434999999999945 146.4000000000001,21.111999999999966 C146.0,20.758000000000038 145.78999999999996,20.315000000000055 145.78999999999996,19.783999999999992 C145.78999999999996,18.888000000000034 146.26000000000022,18.049999999999955 147.19999999999982,17.26800000000003 C148.11000000000013,16.486999999999966 149.11000000000013,16.096000000000004 150.17999999999984,16.096000000000004" />
<path d="M133.09000000000015,16.096000000000004 C133.7199999999998,16.096000000000004 134.25,16.258000000000038 134.69000000000005,16.581000000000017 C135.07999999999993,16.934999999999945 135.2800000000002,17.378000000000043 135.2800000000002,17.908999999999992 C135.2800000000002,18.80499999999995 134.82000000000016,19.64300000000003 133.90999999999985,20.424999999999955 C132.9699999999998,21.206000000000017 131.96000000000004,21.596000000000004 130.88999999999987,21.596000000000004 C130.26000000000022,21.596000000000004 129.73999999999978,21.434999999999945 129.30999999999995,21.111999999999966 C128.90999999999985,20.758000000000038 128.69999999999982,20.315000000000055 128.69999999999982,19.783999999999992 C128.69999999999982,18.888000000000034 129.17000000000007,18.049999999999955 130.11000000000013,17.26800000000003 C131.0300000000002,16.486999999999966 132.01999999999998,16.096000000000004 133.09000000000015,16.096000000000004" />
<path d="M114.90999999999985,63.12800000000004 L117.32000000000016,61.174999999999955 C117.38000000000011,61.12199999999996 117.44000000000005,61.096000000000004 117.48999999999978,61.096000000000004 C117.55999999999995,61.096000000000004 117.63000000000011,61.12199999999996 117.69000000000005,61.174999999999955 L118.09999999999991,61.486999999999966 C118.15999999999985,61.549999999999955 118.19000000000005,61.62800000000004 118.19000000000005,61.721000000000004 C118.19000000000005,61.78399999999999 118.15999999999985,61.861999999999966 118.09999999999991,61.95600000000002 L115.76999999999998,63.846000000000004 L118.09999999999991,65.73699999999997 C118.15999999999985,65.80999999999995 118.19000000000005,65.89099999999996 118.19000000000005,65.97900000000004 C118.19000000000005,66.06799999999998 118.15999999999985,66.14300000000003 118.09999999999991,66.20600000000002 L117.69000000000005,66.51800000000003 C117.63000000000011,66.57000000000005 117.55999999999995,66.596 117.48999999999978,66.596 C117.44000000000005,66.596 117.38000000000011,66.57000000000005 117.32000000000016,66.51800000000003 L114.90999999999985,64.56500000000005 L112.48999999999978,66.51800000000003 C112.42999999999984,66.57000000000005 112.36999999999989,66.596 112.32000000000016,66.596 C112.25,66.596 112.19000000000005,66.57000000000005 112.13000000000011,66.51800000000003 L111.71000000000004,66.20600000000002 C111.63999999999987,66.14300000000003 111.61000000000013,66.06500000000005 111.61000000000013,65.971 C111.61000000000013,65.90899999999999 111.63999999999987,65.83100000000002 111.71000000000004,65.73699999999997 L114.0300000000002,63.846000000000004 L111.71000000000004,61.95600000000002 C111.63999999999987,61.88300000000004 111.61000000000013,61.80200000000002 111.61000000000013,61.714000000000055 C111.61000000000013,61.625 111.63999999999987,61.549999999999955 111.71000000000004,61.486999999999966 L112.13000000000011,61.174999999999955 C112.19000000000005,61.12199999999996 112.25,61.096000000000004 112.32000000000016,61.096000000000004 C112.36999999999989,61.096000000000004 112.42999999999984,61.12199999999996 112.48999999999978,61.174999999999955 L114.90999999999985,63.12800000000004" />
<path d="M116.0,71.096 C116.63000000000011,71.096 117.15999999999985,71.25800000000004 117.59999999999991,71.58100000000002 C117.98999999999978,71.93499999999995 118.19000000000005,72.37800000000004 118.19000000000005,72.90899999999999 C118.19000000000005,73.80499999999995 117.73000000000002,74.64300000000003 116.82000000000016,75.42499999999995 C115.88000000000011,76.20600000000002 114.86999999999989,76.596 113.80000000000018,76.596 C113.17999999999984,76.596 112.65000000000009,76.43499999999995 112.2199999999998,76.11199999999997 C111.82000000000016,75.75800000000004 111.61000000000013,75.31500000000005 111.61000000000013,74.78399999999999 C111.61000000000013,73.88800000000003 112.07999999999993,73.04999999999995 113.01999999999998,72.26800000000003 C113.94000000000005,71.48699999999997 114.92999999999984,71.096 116.0,71.096" />
<path d="M116.0,81.096 C116.63000000000011,81.096 117.15999999999985,81.25800000000004 117.59999999999991,81.58100000000002 C117.98999999999978,81.93499999999995 118.19000000000005,82.37800000000004 118.19000000000005,82.90899999999999 C118.19000000000005,83.80499999999995 117.73000000000002,84.64300000000003 116.82000000000016,85.42499999999995 C115.88000000000011,86.20600000000002 114.86999999999989,86.596 113.80000000000018,86.596 C113.17999999999984,86.596 112.65000000000009,86.43499999999995 112.2199999999998,86.11199999999997 C111.82000000000016,85.75800000000004 111.61000000000013,85.31500000000005 111.61000000000013,84.78399999999999 C111.61000000000013,83.88800000000003 112.07999999999993,83.04999999999995 113.01999999999998,82.26800000000003 C113.94000000000005,81.48699999999997 114.92999999999984,81.096 116.0,81.096" />
<path d="M116.0,16.096000000000004 C116.63000000000011,16.096000000000004 117.15999999999985,16.258000000000038 117.59999999999991,16.581000000000017 C117.98999999999978,16.934999999999945 118.19000000000005,17.378000000000043 118.19000000000005,17.908999999999992 C118.19000000000005,18.80499999999995 117.73000000000002,19.64300000000003 116.82000000000016,20.424999999999955 C115.88000000000011,21.206000000000017 114.86999999999989,21.596000000000004 113.80000000000018,21.596000000000004 C113.17999999999984,21.596000000000004 112.65000000000009,21.434999999999945 112.2199999999998,21.111999999999966 C111.82000000000016,20.758000000000038 111.61000000000013,20.315000000000055 111.61000000000013,19.783999999999992 C111.61000000000013,18.888000000000034 112.07999999999993,18.049999999999955 113.01999999999998,17.26800000000003 C113.94000000000005,16.486999999999966 114.92999999999984,16.096000000000004 116.0,16.096000000000004" />
<path d="M98.90999999999985,16.096000000000004 C99.53999999999996,16.096000000000004 100.07000000000016,16.258000000000038 100.51000000000022,16.581000000000017 C100.90000000000009,16.934999999999945 101.09999999999991,17.378000000000043 101.09999999999991,17.908999999999992 C101.09999999999991,18.80499999999995 100.63999999999987,19.64300000000003 99.73000000000002,20.424999999999955 C98.78999999999996,21.206000000000017 97.7800000000002,21.596000000000004 96.71000000000004,21.596000000000004 C96.09000000000015,21.596000000000004 95.55999999999995,21.434999999999945 95.13000000000011,21.111999999999966 C94.73000000000002,20.758000000000038 94.51999999999998,20.315000000000055 94.51999999999998,19.783999999999992 C94.51999999999998,18.888000000000034 94.98999999999978,18.049999999999955 95.92999999999984,17.26800000000003 C96.84999999999991,16.486999999999966 97.84000000000015,16.096000000000004 98.90999999999985,16.096000000000004" />
<path d="M80.73000000000002,63.12800000000004 L83.13999999999987,61.174999999999955 C83.19999999999982,61.12199999999996 83.26000000000022,61.096000000000004 83.30999999999995,61.096000000000004 C83.38000000000011,61.096000000000004 83.44999999999982,61.12199999999996 83.51000000000022,61.174999999999955 L83.92000000000007,61.486999999999966 C83.98000000000002,61.549999999999955 84.01000000000022,61.62800000000004 84.01000000000022,61.721000000000004 C84.01000000000022,61.78399999999999 83.98000000000002,61.861999999999966 83.92000000000007,61.95600000000002 L81.59000000000015,63.846000000000004 L83.92000000000007,65.73699999999997 C83.98000000000002,65.80999999999995 84.01000000000022,65.89099999999996 84.01000000000022,65.97900000000004 C84.01000000000022,66.06799999999998 83.98000000000002,66.14300000000003 83.92000000000007,66.20600000000002 L83.51000000000022,66.51800000000003 C83.44999999999982,66.57000000000005 83.38000000000011,66.596 83.30999999999995,66.596 C83.26000000000022,66.596 83.19999999999982,66.57000000000005 83.13999999999987,66.51800000000003 L80.73000000000002,64.56500000000005 L78.30999999999995,66.51800000000003 C78.25,66.57000000000005 78.19000000000005,66.596 78.13999999999987,66.596 C78.07000000000016,66.596 78.01000000000022,66.57000000000005 77.94999999999982,66.51800000000003 L77.5300000000002,66.20600000000002 C77.4699999999998,66.14300000000003 77.42999999999984,66.06500000000005 77.42999999999984,65.971 C77.42999999999984,65.90899999999999 77.4699999999998,65.83100000000002 77.5300000000002,65.73699999999997 L79.86000000000013,63.846000000000004 L77.5300000000002,61.95600000000002 C77.4699999999998,61.88300000000004 77.42999999999984,61.80200000000002 77.42999999999984,61.714000000000055 C77.42999999999984,61.625 77.4699999999998,61.549999999999955 77.5300000000002,61.486999999999966 L77.94999999999982,61.174999999999955 C78.01000000000022,61.12199999999996 78.07000000000016,61.096000000000004 78.13999999999987,61.096000000000004 C78.19000000000005,61.096000000000004 78.25,61.12199999999996 78.30999999999995,61.174999999999955 L80.73000000000002,63.12800000000004" />
<path d="M81.82000000000016,16.096000000000004 C82.44999999999982,16.096000000000004 82.98000000000002,16.258000000000038 83.42000000000007,16.581000000000017 C83.80999999999995,16.934999999999945 84.01000000000022,17.378000000000043 84.01000000000022,17.908999999999992 C84.01000000000022,18.80499999999995 83.55000000000018,19.64300000000003 82.63999999999987,20.424999999999955 C81.69999999999982,21.206000000000017 80.69000000000005,21.596000000000004 79.61999999999989,21.596000000000004 C79.0,21.596000000000004 78.4699999999998,21.434999999999945 78.03999999999996,21.111999999999966 C77.63999999999987,20.758000000000038 77.42999999999984,20.315000000000055 77.42999999999984,19.783999999999992 C77.42999999999984,18.888000000000034 77.90000000000009,18.049999999999955 78.84000000000015,17.26800000000003 C79.76000000000022,16.486999999999966 80.75,16.096000000000004 81.82000000000016,16.096000000000004" />
<path d="M53.38999999999987,63.12800000000004 L55.789999999999964,61.174999999999955 C55.86000000000013,61.12199999999996 55.909999999999854,61.096000000000004 55.9699999999998,61.096000000000004 C56.039999999999964,61.096000000000004 56.11000000000013,61.12199999999996 56.17000000000007,61.174999999999955 L56.57999999999993,61.486999999999966 C56.63999999999987,61.549999999999955 56.67000000000007,61.62800000000004 56.67000000000007,61.721000000000004 C56.67000000000007,61.78399999999999 56.63999999999987,61.861999999999966 56.57999999999993,61.95600000000002 L54.25,63.846000000000004 L56.57999999999993,65.73699999999997 C56.63999999999987,65.80999999999995 56.67000000000007,65.89099999999996 56.67000000000007,65.97900000000004 C56.67000000000007,66.06799999999998 56.63999999999987,66.14300000000003 56.57999999999993,66.20600000000002 L56.17000000000007,66.51800000000003 C56.11000000000013,66.57000000000005 56.039999999999964,66.596 55.9699999999998,66.596 C55.909999999999854,66.596 55.86000000000013,66.57000000000005 55.789999999999964,66.51800000000003 L53.38999999999987,64.56500000000005 L50.9699999999998,66.51800000000003 C50.90000000000009,66.57000000000005 50.84999999999991,66.596 50.789999999999964,66.596 C50.73000000000002,66.596 50.67000000000007,66.57000000000005 50.61000000000013,66.51800000000003 L50.179999999999836,66.20600000000002 C50.11999999999989,66.14300000000003 50.090000000000146,66.06500000000005 50.090000000000146,65.971 C50.090000000000146,65.90899999999999 50.11999999999989,65.83100000000002 50.179999999999836,65.73699999999997 L52.51000000000022,63.846000000000004 L50.179999999999836,61.95600000000002 C50.11999999999989,61.88300000000004 50.090000000000146,61.80200000000002 50.090000000000146,61.714000000000055 C50.090000000000146,61.625 50.11999999999989,61.549999999999955 50.179999999999836,61.486999999999966 L50.61000000000013,61.174999999999955 C50.67000000000007,61.12199999999996 50.73000000000002,61.096000000000004 50.789999999999964,61.096000000000004 C50.84999999999991,61.096000000000004 50.90000000000009,61.12199999999996 50.9699999999998,61.174999999999955 L53.38999999999987,63.12800000000004" />
<path d="M54.48000000000002,71.096 C55.11000000000013,71.096 55.63999999999987,71.25800000000004 56.07999999999993,71.58100000000002 C56.4699999999998,71.93499999999995 56.67000000000007,72.37800000000004 56.67000000000007,72.90899999999999 C56.67000000000007,73.80499999999995 56.210000000000036,74.64300000000003 55.289999999999964,75.42499999999995 C54.36000000000013,76.20600000000002 53.34999999999991,76.596 52.2800000000002,76.596 C51.65000000000009,76.596 51.13000000000011,76.43499999999995 50.69999999999982,76.11199999999997 C50.289999999999964,75.75800000000004 50.090000000000146,75.31500000000005 50.090000000000146,74.78399999999999 C50.090000000000146,73.88800000000003 50.559999999999945,73.04999999999995 51.5,72.26800000000003 C52.409999999999854,71.48699999999997 53.409999999999854,71.096 54.48000000000002,71.096" />
<path d="M54.48000000000002,81.096 C55.11000000000013,81.096 55.63999999999987,81.25800000000004 56.07999999999993,81.58100000000002 C56.4699999999998,81.93499999999995 56.67000000000007,82.37800000000004 56.67000000000007,82.90899999999999 C56.67000000000007,83.80499999999995 56.210000000000036,84.64300000000003 55.289999999999964,85.42499999999995 C54.36000000000013,86.20600000000002 53.34999999999991,86.596 52.2800000000002,86.596 C51.65000000000009,86.596 51.13000000000011,86.43499999999995 50.69999999999982,86.11199999999997 C50.289999999999964,85.75800000000004 50.090000000000146,85.31500000000005 50.090000000000146,84.78399999999999 C50.090000000000146,83.88800000000003 50.559999999999945,83.04999999999995 51.5,82.26800000000003 C52.409999999999854,81.48699999999997 53.409999999999854,81.096 54.48000000000002,81.096" />
<path d="M45.25,18.596000000000004 C45.88000000000011,18.596000000000004 46.409999999999854,18.758000000000038 46.84999999999991,19.081000000000017 C47.23999999999978,19.434999999999945 47.440000000000055,19.878000000000043 47.440000000000055,20.408999999999992 C47.440000000000055,21.30499999999995 46.98000000000002,22.14300000000003 46.070000000000164,22.924999999999955 C45.13000000000011,23.706000000000017 44.11999999999989,24.096000000000004 43.05000000000018,24.096000000000004 C42.429999999999836,24.096000000000004 41.90000000000009,23.934999999999945 41.4699999999998,23.611999999999966 C41.070000000000164,23.258000000000038 40.86000000000013,22.815000000000055 40.86000000000013,22.283999999999992 C40.86000000000013,21.388000000000034 41.32999999999993,20.549999999999955 42.26999999999998,19.76800000000003 C43.190000000000055,18.986999999999966 44.179999999999836,18.596000000000004 45.25,18.596000000000004" />
<path d="M54.48000000000002,16.096000000000004 C55.11000000000013,16.096000000000004 55.63999999999987,16.258000000000038 56.07999999999993,16.581000000000017 C56.4699999999998,16.934999999999945 56.67000000000007,17.378000000000043 56.67000000000007,17.908999999999992 C56.67000000000007,18.80499999999995 56.210000000000036,19.64300000000003 55.289999999999964,20.424999999999955 C54.36000000000013,21.206000000000017 53.34999999999991,21.596000000000004 52.2800000000002,21.596000000000004 C51.65000000000009,21.596000000000004 51.13000000000011,21.434999999999945 50.69999999999982,21.111999999999966 C50.289999999999964,20.758000000000038 50.090000000000146,20.315000000000055 50.090000000000146,19.783999999999992 C50.090000000000146,18.888000000000034 50.559999999999945,18.049999999999955 51.5,17.26800000000003 C52.409999999999854,16.486999999999966 53.409999999999854,16.096000000000004 54.48000000000002,16.096000000000004" />
<path d="M17.88000000000011,38.12800000000004 L20.2800000000002,36.174999999999955 C20.34999999999991,36.12199999999996 20.40000000000009,36.096000000000004 20.449999999999818,36.096000000000004 C20.5300000000002,36.096000000000004 20.59999999999991,36.12199999999996 20.659999999999854,36.174999999999955 L21.059999999999945,36.486999999999966 C21.13000000000011,36.549999999999955 21.159999999999854,36.62800000000004 21.159999999999854,36.721000000000004 C21.159999999999854,36.78399999999999 21.13000000000011,36.861999999999966 21.059999999999945,36.95600000000002 L18.73999999999978,38.846000000000004 L21.059999999999945,40.736999999999966 C21.13000000000011,40.809999999999945 21.159999999999854,40.89099999999996 21.159999999999854,40.97900000000004 C21.159999999999854,41.067999999999984 21.13000000000011,41.14300000000003 21.059999999999945,41.20600000000002 L20.659999999999854,41.51800000000003 C20.59999999999991,41.57000000000005 20.5300000000002,41.596000000000004 20.449999999999818,41.596000000000004 C20.40000000000009,41.596000000000004 20.34999999999991,41.57000000000005 20.2800000000002,41.51800000000003 L17.88000000000011,39.565000000000055 L15.449999999999818,41.51800000000003 C15.389999999999873,41.57000000000005 15.340000000000146,41.596000000000004 15.2800000000002,41.596000000000004 C15.2199999999998,41.596000000000004 15.159999999999854,41.57000000000005 15.099999999999909,41.51800000000003 L14.670000000000073,41.20600000000002 C14.610000000000127,41.14300000000003 14.579999999999927,41.065000000000055 14.579999999999927,40.971000000000004 C14.579999999999927,40.90899999999999 14.610000000000127,40.83100000000002 14.670000000000073,40.736999999999966 L17.0,38.846000000000004 L14.670000000000073,36.95600000000002 C14.610000000000127,36.88300000000004 14.579999999999927,36.80200000000002 14.579999999999927,36.714000000000055 C14.579999999999927,36.625 14.610000000000127,36.549999999999955 14.670000000000073,36.486999999999966 L15.099999999999909,36.174999999999955 C15.159999999999854,36.12199999999996 15.2199999999998,36.096000000000004 15.2800000000002,36.096000000000004 C15.340000000000146,36.096000000000004 15.389999999999873,36.12199999999996 15.449999999999818,36.174999999999955 L17.88000000000011,38.12800000000004" />
<path d="M1.2399999999997817,63.12800000000004 L3.650000000000091,61.174999999999955 C3.7100000000000364,61.12199999999996 3.769999999999982,61.096000000000004 3.8200000000001637,61.096000000000004 C3.8899999999998727,61.096000000000004 3.9600000000000364,61.12199999999996 4.019999999999982,61.174999999999955 L4.429999999999836,61.486999999999966 C4.489999999999782,61.549999999999955 4.519999999999982,61.62800000000004 4.519999999999982,61.721000000000004 C4.519999999999982,61.78399999999999 4.489999999999782,61.861999999999966 4.429999999999836,61.95600000000002 L2.099999999999909,63.846000000000004 L4.429999999999836,65.73699999999997 C4.489999999999782,65.80999999999995 4.519999999999982,65.89099999999996 4.519999999999982,65.97900000000004 C4.519999999999982,66.06799999999998 4.489999999999782,66.14300000000003 4.429999999999836,66.20600000000002 L4.019999999999982,66.51800000000003 C3.9600000000000364,66.57000000000005 3.8899999999998727,66.596 3.8200000000001637,66.596 C3.769999999999982,66.596 3.7100000000000364,66.57000000000005 3.650000000000091,66.51800000000003 L1.2399999999997817,64.56500000000005 L-1.1800000000000637,66.51800000000003 C-1.240000000000009,66.57000000000005 -1.2999999999999545,66.596 -1.349999999999909,66.596 C-1.4100000000000819,66.596 -1.4800000000000182,66.57000000000005 -1.5399999999999636,66.51800000000003 L-1.9600000000000364,66.20600000000002 C-2.019999999999982,66.14300000000003 -2.0599999999999454,66.06500000000005 -2.0599999999999454,65.971 C-2.0599999999999454,65.90899999999999 -2.019999999999982,65.83100000000002 -1.9600000000000364,65.73699999999997 L0.36999999999989086,63.846000000000004 L-1.9600000000000364,61.95600000000002 C-2.019999999999982,61.88300000000004 -2.0599999999999454,61.80200000000002 -2.0599999999999454,61.714000000000055 C-2.0599999999999454,61.625 -2.019999999999982,61.549999999999955 -1.9600000000000364,61.486999999999966 L-1.5399999999999636,61.174999999999955 C-1.4800000000000182,61.12199999999996 -1.4100000000000819,61.096000000000004 -1.349999999999909,61.096000000000004 C-1.2999999999999545,61.096000000000004 -1.240000000000009,61.12199999999996 -1.1800000000000637,61.174999999999955 L1.2399999999997817,63.12800000000004" />
<path d="M2.3400000000001455,81.096 C2.9600000000000364,81.096 3.4899999999997817,81.25800000000004 3.9299999999998363,81.58100000000002 C4.329999999999927,81.93499999999995 4.519999999999982,82.37800000000004 4.519999999999982,82.90899999999999 C4.519999999999982,83.80499999999995 4.059999999999945,84.64300000000003 3.150000000000091,85.42499999999995 C2.2100000000000364,86.20600000000002 1.2100000000000364,86.596 0.13000000000010914,86.596 C-0.4900000000000091,86.596 -1.0199999999999818,86.43499999999995 -1.4500000000000455,86.11199999999997 C-1.849999999999909,85.75800000000004 -2.0599999999999454,85.31500000000005 -2.0599999999999454,84.78399999999999 C-2.0599999999999454,83.88800000000003 -1.5899999999999181,83.04999999999995 -0.650000000000091,82.26800000000003 C0.2699999999999818,81.48699999999997 1.2600000000002183,81.096 2.3400000000001455,81.096" />
<path d="M1.2399999999997817,33.12800000000004 L3.650000000000091,31.174999999999955 C3.7100000000000364,31.121999999999957 3.769999999999982,31.096000000000004 3.8200000000001637,31.096000000000004 C3.8899999999998727,31.096000000000004 3.9600000000000364,31.121999999999957 4.019999999999982,31.174999999999955 L4.429999999999836,31.486999999999966 C4.489999999999782,31.549999999999955 4.519999999999982,31.628000000000043 4.519999999999982,31.721000000000004 C4.519999999999982,31.783999999999992 4.489999999999782,31.861999999999966 4.429999999999836,31.956000000000017 L2.099999999999909,33.846000000000004 L4.429999999999836,35.736999999999966 C4.489999999999782,35.809999999999945 4.519999999999982,35.89099999999996 4.519999999999982,35.97900000000004 C4.519999999999982,36.067999999999984 4.489999999999782,36.14300000000003 4.429999999999836,36.20600000000002 L4.019999999999982,36.51800000000003 C3.9600000000000364,36.57000000000005 3.8899999999998727,36.596000000000004 3.8200000000001637,36.596000000000004 C3.769999999999982,36.596000000000004 3.7100000000000364,36.57000000000005 3.650000000000091,36.51800000000003 L1.2399999999997817,34.565000000000055 L-1.1800000000000637,36.51800000000003 C-1.240000000000009,36.57000000000005 -1.2999999999999545,36.596000000000004 -1.349999999999909,36.596000000000004 C-1.4100000000000819,36.596000000000004 -1.4800000000000182,36.57000000000005 -1.5399999999999636,36.51800000000003 L-1.9600000000000364,36.20600000000002 C-2.019999999999982,36.14300000000003 -2.0599999999999454,36.065000000000055 -2.0599999999999454,35.971000000000004 C-2.0599999999999454,35.90899999999999 -2.019999999999982,35.83100000000002 -1.9600000000000364,35.736999999999966 L0.36999999999989086,33.846000000000004 L-1.9600000000000364,31.956000000000017 C-2.019999999999982,31.883000000000038 -2.0599999999999454,31.80200000000002 -2.0599999999999454,31.714000000000055 C-2.0599999999999454,31.625 -2.019999999999982,31.549999999999955 -1.9600000000000364,31.486999999999966 L-1.5399999999999636,31.174999999999955 C-1.4800000000000182,31.121999999999957 -1.4100000000000819,31.096000000000004 -1.349999999999909,31.096000000000004 C-1.2999999999999545,31.096000000000004 -1.240000000000009,31.121999999999957 -1.1800000000000637,31.174999999999955 L1.2399999999997817,33.12800000000004" />
<path d="M244.92999999999984,19.736999999999966 C245.32999999999993,19.736999999999966 245.61000000000013,19.841000000000008 245.7800000000002,20.049999999999955 C245.94999999999982,20.278999999999996 246.05999999999995,20.503000000000043 246.11000000000013,20.721000000000004 C246.1199999999999,20.940000000000055 246.17999999999984,21.158999999999992 246.30999999999995,21.378000000000043 C246.3800000000001,21.586000000000013 246.51999999999998,21.690000000000055 246.73000000000002,21.690000000000055 C246.8699999999999,21.690000000000055 247.05999999999995,21.533999999999992 247.32000000000016,21.221000000000004 C247.6199999999999,20.85699999999997 247.80000000000018,20.596000000000004 247.88999999999987,20.440000000000055 C247.94999999999982,20.315000000000055 248.03999999999996,20.253000000000043 248.1500000000001,20.253000000000043 C248.1500000000001,20.253000000000043 248.15999999999985,20.253000000000043 248.17999999999984,20.253000000000043 C248.30000000000018,20.263000000000034 248.3800000000001,20.326000000000022 248.42999999999984,20.440000000000055 L244.86000000000013,33.846000000000004 C244.73000000000002,33.98199999999997 244.55000000000018,34.049999999999955 244.32000000000016,34.049999999999955 C244.07999999999993,34.049999999999955 243.9000000000001,33.98199999999997 243.76000000000022,33.846000000000004 L245.7800000000002,27.299999999999955 C244.9000000000001,27.611999999999966 244.19000000000005,27.76800000000003 243.6500000000001,27.76800000000003 C243.17999999999984,27.76800000000003 242.7800000000002,27.621999999999957 242.42999999999984,27.331000000000017 C242.07999999999993,27.038999999999987 241.9000000000001,26.658999999999992 241.9000000000001,26.190000000000055 C241.9000000000001,25.783999999999992 242.03999999999996,25.44500000000005 242.30999999999995,25.174999999999955 C242.5999999999999,24.89300000000003 242.94999999999982,24.753000000000043 243.36000000000013,24.753000000000043 C243.73999999999978,24.753000000000043 244.01999999999998,24.85699999999997 244.19999999999982,25.065000000000055 C244.38999999999987,25.283999999999992 244.5,25.503000000000043 244.53999999999996,25.721000000000004 C244.57999999999993,25.98199999999997 244.6500000000001,26.206000000000017 244.75,26.39300000000003 C244.82999999999993,26.601999999999975 244.9699999999998,26.706000000000017 245.17000000000007,26.706000000000017 C245.32000000000016,26.706000000000017 245.55000000000018,26.524 245.84000000000015,26.158999999999992 C246.1300000000001,25.815000000000055 246.30999999999995,25.543999999999983 246.38999999999987,25.346000000000004 L247.28999999999996,22.315000000000055 C246.46000000000004,22.616999999999962 245.76999999999998,22.76800000000003 245.21000000000004,22.76800000000003 C244.75,22.76800000000003 244.34000000000015,22.616999999999962 244.0,22.315000000000055 C243.63999999999987,22.033999999999992 243.46000000000004,21.658999999999992 243.46000000000004,21.190000000000055 C243.46000000000004,20.783999999999992 243.61000000000013,20.44500000000005 243.9000000000001,20.174999999999955 C244.17999999999984,19.883000000000038 244.5300000000002,19.736999999999966 244.92999999999984,19.736999999999966" />
<path d="M43.92000000000007,103.75300000000004 L43.92000000000007,103.721 C43.940000000000055,103.70100000000002 43.960000000000036,103.66399999999999 43.98000000000002,103.61199999999997 C43.98999999999978,103.55999999999995 44.01000000000022,103.50300000000004 44.01999999999998,103.44000000000005 C44.190000000000055,102.92999999999995 44.4699999999998,102.42999999999995 44.82999999999993,101.94000000000005 C45.2800000000002,101.28399999999999 45.789999999999964,100.96100000000001 46.36000000000013,100.971 C46.59999999999991,100.971 46.789999999999964,101.07000000000005 46.92000000000007,101.26800000000003 C47.05000000000018,101.43499999999995 47.11999999999989,101.65899999999999 47.13999999999987,101.94000000000005 C47.570000000000164,101.28399999999999 48.05000000000018,100.96100000000001 48.59999999999991,100.971 C48.80000000000018,100.971 48.98999999999978,101.07000000000005 49.159999999999854,101.26800000000003 C49.309999999999945,101.47699999999998 49.40000000000009,101.71600000000001 49.42000000000007,101.98699999999997 C49.82999999999993,101.29999999999995 50.30000000000018,100.96100000000001 50.82999999999993,100.971 C51.11000000000013,100.971 51.36999999999989,101.09400000000005 51.59999999999991,101.33900000000006 C51.840000000000146,101.58299999999997 51.940000000000055,101.86699999999996 51.92000000000007,102.19000000000005 C51.92000000000007,102.23199999999997 51.909999999999854,102.32000000000005 51.88999999999987,102.45600000000002 L51.25,105.15899999999999 C51.23000000000002,105.17999999999995 51.23000000000002,105.20600000000002 51.23999999999978,105.23699999999997 C51.23999999999978,105.34100000000001 51.26999999999998,105.39300000000003 51.34999999999991,105.39300000000003 C51.4699999999998,105.39300000000003 51.67000000000007,105.28899999999999 51.960000000000036,105.08100000000002 L52.36000000000013,104.75300000000004 C52.440000000000055,104.75300000000004 52.48999999999978,104.78399999999999 52.48999999999978,104.846 C52.48999999999978,104.899 52.4699999999998,104.94000000000005 52.42000000000007,104.971 C51.82999999999993,105.53399999999999 51.429999999999836,105.88300000000004 51.23999999999978,106.01800000000003 C50.86999999999989,106.28899999999999 50.51999999999998,106.42499999999995 50.190000000000055,106.42499999999995 C49.98000000000002,106.42499999999995 49.840000000000146,106.36699999999996 49.76999999999998,106.25300000000004 C49.65000000000009,106.15899999999999 49.590000000000146,106.029 49.57999999999993,105.86199999999997 C49.57999999999993,105.79999999999995 49.590000000000146,105.73699999999997 49.61000000000013,105.67499999999995 L50.30000000000018,102.70600000000002 C50.320000000000164,102.62199999999996 50.340000000000146,102.53899999999999 50.34999999999991,102.45600000000002 C50.34999999999991,102.21600000000001 50.2800000000002,102.096 50.13999999999987,102.096 C49.98000000000002,102.096 49.820000000000164,102.16399999999999 49.67000000000007,102.29999999999995 C49.51000000000022,102.42499999999995 49.409999999999854,102.55999999999995 49.38999999999987,102.70600000000002 L48.38999999999987,106.15899999999999 C48.34999999999991,106.28399999999999 48.2800000000002,106.346 48.17000000000007,106.346 L47.13000000000011,106.346 C47.0,106.346 46.960000000000036,106.28399999999999 47.0,106.15899999999999 L47.9699999999998,102.70600000000002 C48.01000000000022,102.59100000000001 48.0300000000002,102.49199999999996 48.0300000000002,102.40899999999999 C48.0300000000002,102.20100000000002 47.960000000000036,102.096 47.80000000000018,102.096 C47.63000000000011,102.096 47.48999999999978,102.16399999999999 47.36000000000013,102.29999999999995 C47.2199999999998,102.404 47.11000000000013,102.53899999999999 47.05000000000018,102.70600000000002 L45.88000000000011,106.15899999999999 C45.840000000000146,106.28399999999999 45.76000000000022,106.346 45.63999999999987,106.346 L44.59999999999991,106.346 C44.48000000000002,106.346 44.44999999999982,106.28399999999999 44.5,106.15899999999999 L45.67000000000007,102.70600000000002 C45.7199999999998,102.55999999999995 45.73999999999978,102.46600000000001 45.73999999999978,102.42499999999995 C45.73999999999978,102.20600000000002 45.63999999999987,102.096 45.460000000000036,102.096 C45.210000000000036,102.096 44.98000000000002,102.26800000000003 44.7800000000002,102.61199999999997 C44.570000000000164,102.93499999999995 44.409999999999854,103.29399999999998 44.30000000000018,103.69000000000005 C44.26000000000022,103.80499999999995 44.17000000000007,103.86199999999997 44.05000000000018,103.86199999999997 C43.9699999999998,103.84100000000001 43.92000000000007,103.80499999999995 43.92000000000007,103.75300000000004 M56.13999999999987,101.26800000000003 L55.190000000000055,104.36199999999997 C54.86000000000013,105.47699999999998 54.30000000000018,106.55499999999995 53.51999999999998,107.596 C52.73000000000002,108.63800000000003 51.92000000000007,109.15899999999999 51.09999999999991,109.15899999999999 C50.67000000000007,109.15899999999999 50.289999999999964,109.04700000000003 49.960000000000036,108.82299999999998 C49.63000000000011,108.59900000000005 49.4699999999998,108.30999999999995 49.4699999999998,107.95600000000002 C49.4699999999998,107.54999999999995 49.55000000000018,107.20600000000002 49.7199999999998,106.92499999999995 C49.90000000000009,106.654 50.13999999999987,106.50800000000004 50.460000000000036,106.48699999999997 C50.679999999999836,106.48699999999997 50.88000000000011,106.57000000000005 51.0300000000002,106.73699999999997 C51.190000000000055,106.904 51.26999999999998,107.096 51.26999999999998,107.31500000000005 C51.26999999999998,107.51300000000003 51.15000000000009,107.69500000000005 50.92000000000007,107.86199999999997 C50.679999999999836,108.00800000000004 50.559999999999945,108.17499999999995 50.55000000000018,108.36199999999997 C50.55000000000018,108.48699999999997 50.690000000000055,108.54999999999995 50.9699999999998,108.54999999999995 L51.09999999999991,108.54999999999995 C51.159999999999854,108.54999999999995 51.25,108.53399999999999 51.38000000000011,108.50300000000004 C51.44999999999982,108.49199999999996 51.539999999999964,108.45100000000002 51.63999999999987,108.37800000000004 C51.63999999999987,108.37800000000004 51.710000000000036,108.32600000000002 51.82999999999993,108.221 C51.909999999999854,108.10699999999997 51.9699999999998,108.024 51.98999999999978,107.971 C52.0300000000002,107.86699999999996 52.059999999999945,107.78399999999999 52.09999999999991,107.721 C52.13999999999987,107.67999999999995 52.17000000000007,107.57600000000002 52.210000000000036,107.40899999999999 C52.23000000000002,107.36699999999996 52.23999999999978,107.32000000000005 52.25,107.26800000000003 C52.26000000000022,107.21600000000001 52.26999999999998,107.17999999999995 52.2800000000002,107.15899999999999 C52.289999999999964,107.13800000000003 52.30000000000018,107.12199999999996 52.30000000000018,107.11199999999997 C52.34999999999991,106.904 52.38999999999987,106.779 52.409999999999854,106.73699999999997 C52.44999999999982,106.529 52.4699999999998,106.42499999999995 52.4699999999998,106.42499999999995 L53.75,101.26800000000003 L52.76999999999998,101.26800000000003 C52.67000000000007,101.26800000000003 52.61000000000013,101.23699999999997 52.559999999999945,101.17499999999995 C52.51000000000022,101.09100000000001 52.48999999999978,101.01800000000003 52.48999999999978,100.95600000000002 C52.48999999999978,100.87199999999996 52.51000000000022,100.79999999999995 52.559999999999945,100.73699999999997 C52.65000000000009,100.67499999999995 52.7199999999998,100.64300000000003 52.76999999999998,100.64300000000003 L53.940000000000055,100.64300000000003 C54.26000000000022,99.66399999999999 54.80000000000018,98.82000000000005 55.55000000000018,98.11199999999997 C56.289999999999964,97.38300000000004 57.090000000000146,97.01800000000003 57.940000000000055,97.01800000000003 C58.40000000000009,97.01800000000003 58.7800000000002,97.13300000000004 59.07999999999993,97.36199999999997 C59.40000000000009,97.58100000000002 59.570000000000164,97.86699999999996 59.57999999999993,98.221 C59.57999999999993,98.60699999999997 59.5,98.95100000000002 59.32999999999993,99.25300000000004 C59.13000000000011,99.524 58.88999999999987,99.66399999999999 58.59999999999991,99.67499999999995 C58.36999999999989,99.67499999999995 58.17000000000007,99.59400000000005 58.01999999999998,99.43200000000002 C57.86000000000013,99.27099999999996 57.7800000000002,99.08100000000002 57.7800000000002,98.86199999999997 C57.7800000000002,98.67499999999995 57.90000000000009,98.50300000000004 58.13999999999987,98.346 C58.38000000000011,98.19000000000005 58.5,98.01300000000003 58.48999999999978,97.81500000000005 C58.48999999999978,97.66899999999998 58.34999999999991,97.60199999999998 58.07999999999993,97.61199999999997 L58.0300000000002,97.61199999999997 C58.0,97.63300000000004 57.9699999999998,97.63800000000003 57.940000000000055,97.62800000000004 C57.710000000000036,97.62800000000004 57.51999999999998,97.68499999999995 57.36000000000013,97.79999999999995 C57.210000000000036,97.904 57.059999999999945,98.09100000000001 56.92000000000007,98.36199999999997 C56.88000000000011,98.43499999999995 56.84999999999991,98.50800000000004 56.820000000000164,98.58100000000002 C56.80000000000018,98.654 56.76999999999998,98.73400000000004 56.73999999999978,98.82299999999998 C56.710000000000036,98.91200000000003 56.679999999999836,98.971 56.659999999999854,99.00300000000004 C56.65000000000009,99.06500000000005 56.63000000000011,99.19500000000005 56.59999999999991,99.39300000000003 C56.55000000000018,99.58100000000002 56.51999999999998,99.74199999999996 56.48999999999978,99.87800000000004 C56.40000000000009,100.274 56.34999999999991,100.529 56.309999999999945,100.64300000000003 L57.38999999999987,100.64300000000003 C57.48000000000002,100.64300000000003 57.55000000000018,100.67200000000003 57.61999999999989,100.72900000000004 C57.690000000000055,100.78700000000003 57.7199999999998,100.85900000000004 57.7199999999998,100.94799999999998 C57.7199999999998,101.03700000000003 57.690000000000055,101.11199999999997 57.61999999999989,101.17499999999995 C57.55000000000018,101.23699999999997 57.48000000000002,101.26800000000003 57.38999999999987,101.26800000000003 L56.13999999999987,101.26800000000003" />
<path d="M43.92000000000007,51.25300000000004 L43.92000000000007,51.221000000000004 C43.940000000000055,51.20100000000002 43.960000000000036,51.16399999999999 43.98000000000002,51.111999999999966 C43.98999999999978,51.059999999999945 44.01000000000022,51.00300000000004 44.01999999999998,50.940000000000055 C44.190000000000055,50.42999999999995 44.4699999999998,49.92999999999995 44.82999999999993,49.440000000000055 C45.2800000000002,48.78399999999999 45.789999999999964,48.46100000000001 46.36000000000013,48.471000000000004 C46.59999999999991,48.471000000000004 46.789999999999964,48.57000000000005 46.92000000000007,48.76800000000003 C47.05000000000018,48.934999999999945 47.11999999999989,49.15899999999999 47.13999999999987,49.440000000000055 C47.570000000000164,48.78399999999999 48.05000000000018,48.46100000000001 48.59999999999991,48.471000000000004 C48.80000000000018,48.471000000000004 48.98999999999978,48.57000000000005 49.159999999999854,48.76800000000003 C49.309999999999945,48.976999999999975 49.40000000000009,49.21600000000001 49.42000000000007,49.486999999999966 C49.82999999999993,48.799999999999955 50.30000000000018,48.46100000000001 50.82999999999993,48.471000000000004 C51.11000000000013,48.471000000000004 51.36999999999989,48.59400000000005 51.59999999999991,48.839000000000055 C51.840000000000146,49.08299999999997 51.940000000000055,49.36699999999996 51.92000000000007,49.690000000000055 C51.92000000000007,49.73199999999997 51.909999999999854,49.82000000000005 51.88999999999987,49.95600000000002 L51.25,52.65899999999999 C51.23000000000002,52.67999999999995 51.23000000000002,52.70600000000002 51.23999999999978,52.736999999999966 C51.23999999999978,52.84100000000001 51.26999999999998,52.89300000000003 51.34999999999991,52.89300000000003 C51.4699999999998,52.89300000000003 51.67000000000007,52.78899999999999 51.960000000000036,52.58100000000002 L52.36000000000013,52.25300000000004 C52.440000000000055,52.25300000000004 52.48999999999978,52.28399999999999 52.48999999999978,52.346000000000004 C52.48999999999978,52.399 52.4699999999998,52.440000000000055 52.42000000000007,52.471000000000004 C51.82999999999993,53.03399999999999 51.429999999999836,53.38300000000004 51.23999999999978,53.51800000000003 C50.86999999999989,53.78899999999999 50.51999999999998,53.924999999999955 50.190000000000055,53.924999999999955 C49.98000000000002,53.924999999999955 49.840000000000146,53.86699999999996 49.76999999999998,53.75300000000004 C49.65000000000009,53.65899999999999 49.590000000000146,53.528999999999996 49.57999999999993,53.361999999999966 C49.57999999999993,53.299999999999955 49.590000000000146,53.236999999999966 49.61000000000013,53.174999999999955 L50.30000000000018,50.20600000000002 C50.320000000000164,50.12199999999996 50.340000000000146,50.03899999999999 50.34999999999991,49.95600000000002 C50.34999999999991,49.71600000000001 50.2800000000002,49.596000000000004 50.13999999999987,49.596000000000004 C49.98000000000002,49.596000000000004 49.820000000000164,49.66399999999999 49.67000000000007,49.799999999999955 C49.51000000000022,49.924999999999955 49.409999999999854,50.059999999999945 49.38999999999987,50.20600000000002 L48.38999999999987,53.65899999999999 C48.34999999999991,53.78399999999999 48.2800000000002,53.846000000000004 48.17000000000007,53.846000000000004 L47.13000000000011,53.846000000000004 C47.0,53.846000000000004 46.960000000000036,53.78399999999999 47.0,53.65899999999999 L47.9699999999998,50.20600000000002 C48.01000000000022,50.09100000000001 48.0300000000002,49.99199999999996 48.0300000000002,49.90899999999999 C48.0300000000002,49.70100000000002 47.960000000000036,49.596000000000004 47.80000000000018,49.596000000000004 C47.63000000000011,49.596000000000004 47.48999999999978,49.66399999999999 47.36000000000013,49.799999999999955 C47.2199999999998,49.903999999999996 47.11000000000013,50.03899999999999 47.05000000000018,50.20600000000002 L45.88000000000011,53.65899999999999 C45.840000000000146,53.78399999999999 45.76000000000022,53.846000000000004 45.63999999999987,53.846000000000004 L44.59999999999991,53.846000000000004 C44.48000000000002,53.846000000000004 44.44999999999982,53.78399999999999 44.5,53.65899999999999 L45.67000000000007,50.20600000000002 C45.7199999999998,50.059999999999945 45.73999999999978,49.96600000000001 45.73999999999978,49.924999999999955 C45.73999999999978,49.70600000000002 45.63999999999987,49.596000000000004 45.460000000000036,49.596000000000004 C45.210000000000036,49.596000000000004 44.98000000000002,49.76800000000003 44.7800000000002,50.111999999999966 C44.570000000000164,50.434999999999945 44.409999999999854,50.79399999999998 44.30000000000018,51.190000000000055 C44.26000000000022,51.30499999999995 44.17000000000007,51.361999999999966 44.05000000000018,51.361999999999966 C43.9699999999998,51.34100000000001 43.92000000000007,51.30499999999995 43.92000000000007,51.25300000000004 M56.13999999999987,48.76800000000003 L55.190000000000055,51.861999999999966 C54.86000000000013,52.976999999999975 54.30000000000018,54.05499999999995 53.51999999999998,55.096000000000004 C52.73000000000002,56.138000000000034 51.92000000000007,56.65899999999999 51.09999999999991,56.65899999999999 C50.67000000000007,56.65899999999999 50.289999999999964,56.547000000000025 49.960000000000036,56.32299999999998 C49.63000000000011,56.099000000000046 49.4699999999998,55.809999999999945 49.4699999999998,55.45600000000002 C49.4699999999998,55.049999999999955 49.55000000000018,54.70600000000002 49.7199999999998,54.424999999999955 C49.90000000000009,54.153999999999996 50.13999999999987,54.00800000000004 50.460000000000036,53.986999999999966 C50.679999999999836,53.986999999999966 50.88000000000011,54.07000000000005 51.0300000000002,54.236999999999966 C51.190000000000055,54.403999999999996 51.26999999999998,54.596000000000004 51.26999999999998,54.815000000000055 C51.26999999999998,55.013000000000034 51.15000000000009,55.19500000000005 50.92000000000007,55.361999999999966 C50.679999999999836,55.50800000000004 50.559999999999945,55.674999999999955 50.55000000000018,55.861999999999966 C50.55000000000018,55.986999999999966 50.690000000000055,56.049999999999955 50.9699999999998,56.049999999999955 L51.09999999999991,56.049999999999955 C51.159999999999854,56.049999999999955 51.25,56.03399999999999 51.38000000000011,56.00300000000004 C51.44999999999982,55.99199999999996 51.539999999999964,55.95100000000002 51.63999999999987,55.87800000000004 C51.63999999999987,55.87800000000004 51.710000000000036,55.82600000000002 51.82999999999993,55.721000000000004 C51.909999999999854,55.60699999999997 51.9699999999998,55.524 51.98999999999978,55.471000000000004 C52.0300000000002,55.36699999999996 52.059999999999945,55.28399999999999 52.09999999999991,55.221000000000004 C52.13999999999987,55.17999999999995 52.17000000000007,55.07600000000002 52.210000000000036,54.90899999999999 C52.23000000000002,54.86699999999996 52.23999999999978,54.82000000000005 52.25,54.76800000000003 C52.26000000000022,54.71600000000001 52.26999999999998,54.67999999999995 52.2800000000002,54.65899999999999 C52.289999999999964,54.638000000000034 52.30000000000018,54.62199999999996 52.30000000000018,54.611999999999966 C52.34999999999991,54.403999999999996 52.38999999999987,54.278999999999996 52.409999999999854,54.236999999999966 C52.44999999999982,54.028999999999996 52.4699999999998,53.924999999999955 52.4699999999998,53.924999999999955 L53.75,48.76800000000003 L52.76999999999998,48.76800000000003 C52.67000000000007,48.76800000000003 52.61000000000013,48.736999999999966 52.559999999999945,48.674999999999955 C52.51000000000022,48.59100000000001 52.48999999999978,48.51800000000003 52.48999999999978,48.45600000000002 C52.48999999999978,48.37199999999996 52.51000000000022,48.299999999999955 52.559999999999945,48.236999999999966 C52.65000000000009,48.174999999999955 52.7199999999998,48.14300000000003 52.76999999999998,48.14300000000003 L53.940000000000055,48.14300000000003 C54.26000000000022,47.16399999999999 54.80000000000018,46.32000000000005 55.55000000000018,45.611999999999966 C56.289999999999964,44.88300000000004 57.090000000000146,44.51800000000003 57.940000000000055,44.51800000000003 C58.40000000000009,44.51800000000003 58.7800000000002,44.63300000000004 59.07999999999993,44.861999999999966 C59.40000000000009,45.08100000000002 59.570000000000164,45.36699999999996 59.57999999999993,45.721000000000004 C59.57999999999993,46.10699999999997 59.5,46.45100000000002 59.32999999999993,46.75300000000004 C59.13000000000011,47.024 58.88999999999987,47.16399999999999 58.59999999999991,47.174999999999955 C58.36999999999989,47.174999999999955 58.17000000000007,47.09400000000005 58.01999999999998,46.932000000000016 C57.86000000000013,46.77099999999996 57.7800000000002,46.58100000000002 57.7800000000002,46.361999999999966 C57.7800000000002,46.174999999999955 57.90000000000009,46.00300000000004 58.13999999999987,45.846000000000004 C58.38000000000011,45.690000000000055 58.5,45.513000000000034 58.48999999999978,45.315000000000055 C58.48999999999978,45.16899999999998 58.34999999999991,45.101999999999975 58.07999999999993,45.111999999999966 L58.0300000000002,45.111999999999966 C58.0,45.13300000000004 57.9699999999998,45.138000000000034 57.940000000000055,45.12800000000004 C57.710000000000036,45.12800000000004 57.51999999999998,45.184999999999945 57.36000000000013,45.299999999999955 C57.210000000000036,45.403999999999996 57.059999999999945,45.59100000000001 56.92000000000007,45.861999999999966 C56.88000000000011,45.934999999999945 56.84999999999991,46.00800000000004 56.820000000000164,46.08100000000002 C56.80000000000018,46.153999999999996 56.76999999999998,46.23400000000004 56.73999999999978,46.32299999999998 C56.710000000000036,46.412000000000035 56.679999999999836,46.471000000000004 56.659999999999854,46.50300000000004 C56.65000000000009,46.565000000000055 56.63000000000011,46.69500000000005 56.59999999999991,46.89300000000003 C56.55000000000018,47.08100000000002 56.51999999999998,47.24199999999996 56.48999999999978,47.37800000000004 C56.40000000000009,47.774 56.34999999999991,48.028999999999996 56.309999999999945,48.14300000000003 L57.38999999999987,48.14300000000003 C57.48000000000002,48.14300000000003 57.55000000000018,48.172000000000025 57.61999999999989,48.22900000000004 C57.690000000000055,48.287000000000035 57.7199999999998,48.35900000000004 57.7199999999998,48.44799999999998 C57.7199999999998,48.537000000000035 57.690000000000055,48.611999999999966 57.61999999999989,48.674999999999955 C57.55000000000018,48.736999999999966 57.48000000000002,48.76800000000003 57.38999999999987,48.76800000000003 L56.13999999999987,48.76800000000003" />
<path d="M242.42999999999984,98.846 L277.2600000000002,98.846 L277.2600000000002,101.346 L242.42999999999984,101.346 L242.42999999999984,98.846" />
<path d="M242.42999999999984,95.096 L260.1700000000001,95.096 L260.1700000000001,97.596 L242.42999999999984,97.596 L242.42999999999984,95.096" />
<path d="M180.90999999999985,97.596 L208.9000000000001,97.596 L208.9000000000001,100.096 L180.90999999999985,100.096 L180.90999999999985,97.596" />
<path d="M180.90999999999985,33.846000000000004 L208.9000000000001,33.846000000000004 L208.9000000000001,36.346000000000004 L180.90999999999985,36.346000000000004 L180.90999999999985,33.846000000000004" />
<path d="M111.61000000000013,32.596000000000004 L163.5300000000002,32.596000000000004 L163.5300000000002,35.096000000000004 L111.61000000000013,35.096000000000004 L111.61000000000013,32.596000000000004" />
<path d="M111.61000000000013,28.846000000000004 L163.5300000000002,28.846000000000004 L163.5300000000002,31.346000000000004 L111.61000000000013,31.346000000000004 L111.61000000000013,28.846000000000004" />
<path d="M50.090000000000146,96.346 L146.44000000000005,96.346 L146.44000000000005,98.846 L50.090000000000146,98.846 L50.090000000000146,96.346" />
<path d="M50.090000000000146,32.596000000000004 L95.17000000000007,32.596000000000004 L95.17000000000007,35.096000000000004 L50.090000000000146,35.096000000000004 L50.090000000000146,32.596000000000004" />
<path d="M77.42999999999984,28.846000000000004 L95.17000000000007,28.846000000000004 L95.17000000000007,31.346000000000004 L77.42999999999984,31.346000000000004 L77.42999999999984,28.846000000000004" />
<path d="M45.44999999999982,10.706000000000017 L45.44999999999982,10.815000000000055 C45.44999999999982,11.388000000000034 45.55000000000018,11.924999999999955 45.76000000000022,12.424999999999955 C46.01000000000022,13.07000000000005 46.23000000000002,13.533999999999992 46.429999999999836,13.815000000000055 C46.76000000000022,14.326000000000022 47.09999999999991,14.809999999999945 47.44999999999982,15.268000000000029 C47.86999999999989,15.893000000000029 48.190000000000055,16.341000000000008 48.38000000000011,16.611999999999966 C48.440000000000055,16.44500000000005 48.460000000000036,16.221000000000004 48.460000000000036,15.940000000000055 C48.460000000000036,15.366999999999962 48.2800000000002,14.726999999999975 47.92000000000007,14.018000000000029 C47.5300000000002,13.268000000000029 47.17000000000007,12.69500000000005 46.840000000000146,12.299999999999955 C46.36999999999989,11.726999999999975 45.909999999999854,11.19500000000005 45.44999999999982,10.706000000000017 M45.44999999999982,6.471000000000004 C45.44999999999982,7.138000000000034 45.57999999999993,7.80499999999995 45.840000000000146,8.471000000000004 C46.090000000000146,9.096000000000004 46.42000000000007,9.721000000000004 46.820000000000164,10.346000000000004 L47.94999999999982,12.096000000000004 C48.340000000000146,12.67999999999995 48.67000000000007,13.30499999999995 48.929999999999836,13.971000000000004 C49.190000000000055,14.649000000000001 49.320000000000164,15.30499999999995 49.320000000000164,15.940000000000055 C49.320000000000164,16.48199999999997 49.190000000000055,17.028999999999996 48.929999999999836,17.581000000000017 C49.320000000000164,18.383000000000038 49.51000000000022,19.138000000000034 49.51000000000022,19.846000000000004 C49.51000000000022,20.543999999999983 49.34999999999991,21.241999999999962 49.0300000000002,21.940000000000055 C49.429999999999836,22.701000000000022 49.63000000000011,23.456000000000017 49.63000000000011,24.206000000000017 C49.63000000000011,25.361999999999966 49.34999999999991,26.528999999999996 48.789999999999964,27.706000000000017 C48.69999999999982,27.871999999999957 48.570000000000164,27.956000000000017 48.42000000000007,27.956000000000017 C48.289999999999964,27.956000000000017 48.179999999999836,27.903999999999996 48.070000000000164,27.799999999999955 C47.98999999999978,27.69500000000005 47.94999999999982,27.591000000000008 47.94999999999982,27.486999999999966 C47.94999999999982,27.486999999999966 47.94999999999982,27.461000000000013 47.94999999999982,27.408999999999992 C48.51000000000022,26.346000000000004 48.789999999999964,25.278999999999996 48.789999999999964,24.206000000000017 C48.789999999999964,23.383000000000038 48.48000000000002,22.581000000000017 47.84999999999991,21.799999999999955 C47.2199999999998,21.008000000000038 46.42000000000007,20.216000000000008 45.44999999999982,19.424999999999955 L45.44999999999982,21.471000000000004 L44.820000000000164,21.471000000000004 L44.820000000000164,6.471000000000004 L45.44999999999982,6.471000000000004 M45.44999999999982,15.065000000000055 L45.44999999999982,15.158999999999992 C45.44999999999982,15.668999999999983 45.559999999999945,16.216000000000008 45.7800000000002,16.799999999999955 C46.01000000000022,17.403999999999996 46.23999999999978,17.866999999999962 46.460000000000036,18.190000000000055 C46.61000000000013,18.399 46.960000000000036,18.883000000000038 47.5300000000002,19.64300000000003 C47.98999999999978,20.278999999999996 48.309999999999945,20.721000000000004 48.48000000000002,20.971000000000004 C48.590000000000146,20.60699999999997 48.65000000000009,20.23199999999997 48.65000000000009,19.846000000000004 C48.65000000000009,19.293999999999983 48.460000000000036,18.690000000000055 48.090000000000146,18.033999999999992 C47.73999999999978,17.440000000000055 47.36000000000013,16.918999999999983 46.929999999999836,16.471000000000004 C46.51000000000022,16.033999999999992 46.01999999999998,15.565000000000055 45.44999999999982,15.065000000000055" />
<path d="M51.65000000000009,22.150999999999954 C51.429999999999836,21.92700000000002 51.320000000000164,21.658999999999992 51.320000000000164,21.346000000000004 C51.320000000000164,21.033999999999992 51.429999999999836,20.765999999999963 51.65000000000009,20.54200000000003 C51.88000000000011,20.317999999999984 52.13999999999987,20.206000000000017 52.460000000000036,20.206000000000017 C52.76999999999998,20.206000000000017 53.0300000000002,20.317999999999984 53.25,20.54200000000003 C53.4699999999998,20.765999999999963 53.57999999999993,21.033999999999992 53.57999999999993,21.346000000000004 C53.57999999999993,21.658999999999992 53.4699999999998,21.92700000000002 53.25,22.150999999999954 C53.0300000000002,22.375 52.76999999999998,22.486999999999966 52.460000000000036,22.486999999999966 C52.13999999999987,22.486999999999966 51.88000000000011,22.375 51.65000000000009,22.150999999999954" />
<polyline points="0.0,13.846000000000004 255.0,13.846000000000004" fill="none" stroke="#000000" stroke-width="0.40" />
<polyline points="0.0,18.846000000000004 255.0,18.846000000000004" fill="none" stroke="#000000" stroke-width="0.40" />
<polyline points="0.0,23.846000000000004 255.0,23.846000000000004" fill="none" stroke="#000000" stroke-width="0.40" />
<polyline points="0.0,28.846000000000004 255.0,28.846000000000004" fill="none" stroke="#000000" stroke-width="0.40" />
<polyline points="0.0,33.846000000000004 255.0,33.846000000000004" fill="none" stroke="#000000" stroke-width="0.40" />
<polyline points="0.0,66.346 255.0,66.346" fill="none" stroke="#000000" stroke-width="0.40" />
<polyline points="0.0,71.346 255.0,71.346" fill="none" stroke="#000000" stroke-width="0.40" />
<polyline points="0.0,76.346 255.0,76.346" fill="none" stroke="#000000" stroke-width="0.40" />
<polyline points="0.0,81.346 255.0,81.346" fill="none" stroke="#000000" stroke-width="0.40" />
<polyline points="0.0,86.346 255.0,86.346" fill="none" stroke="#000000" stroke-width="0.40" />
<polyline points="31.610000000000127,66.346 31.610000000000127,86.346" fill="" stroke="#000000" stroke-width="0.80" />
<polyline points="31.610000000000127,13.846000000000004 31.610000000000127,33.846000000000004" fill="" stroke="#000000" stroke-width="0.80" />
<polyline points="49.19999999999982,10.471000000000004 42.75,14.471000000000004" fill="" stroke="#000000" stroke-width="0.65" />
<polyline points="242.76000000000022,65.90999999999997 242.76000000000022,100.096" fill="" stroke="#000000" stroke-width="0.65" />
<polyline points="208.57999999999993,65.90999999999997 208.57999999999993,98.846" fill="" stroke="#000000" stroke-width="0.65" />
<polyline points="208.57999999999993,22.285999999999945 208.57999999999993,35.096000000000004" fill="" stroke="#000000" stroke-width="0.65" />
<polyline points="181.23999999999978,65.90999999999997 181.23999999999978,98.846" fill="" stroke="#000000" stroke-width="0.65" />
<polyline points="181.23999999999978,22.285999999999945 181.23999999999978,35.096000000000004" fill="" stroke="#000000" stroke-width="0.65" />
<polyline points="163.21000000000004,19.785999999999945 163.21000000000004,33.846000000000004" fill="" stroke="#000000" stroke-width="0.65" />
<polyline points="146.1199999999999,65.90999999999997 146.1199999999999,97.596" fill="" stroke="#000000" stroke-width="0.65" />
<polyline points="146.1199999999999,19.785999999999945 146.1199999999999,33.846000000000004" fill="" stroke="#000000" stroke-width="0.65" />
<polyline points="129.0300000000002,19.785999999999945 129.0300000000002,33.846000000000004" fill="" stroke="#000000" stroke-width="0.65" />
<polyline points="111.94000000000005,65.90999999999997 111.94000000000005,97.596" fill="" stroke="#000000" stroke-width="0.65" />
<polyline points="111.94000000000005,19.785999999999945 111.94000000000005,33.846000000000004" fill="" stroke="#000000" stroke-width="0.65" />
<polyline points="94.84999999999991,19.785999999999945 94.84999999999991,33.846000000000004" fill="" stroke="#000000" stroke-width="0.65" />
<polyline points="77.76000000000022,65.90999999999997 77.76000000000022,97.596" fill="" stroke="#000000" stroke-width="0.65" />
<polyline points="77.76000000000022,19.785999999999945 77.76000000000022,33.846000000000004" fill="" stroke="#000000" stroke-width="0.65" />
<polyline points="50.42000000000007,65.90999999999997 50.42000000000007,97.596" fill="" stroke="#000000" stroke-width="0.65" />
<polyline points="45.15000000000009,20.688999999999965 45.15000000000009,6.471000000000004" fill="" stroke="#000000" stroke-width="0.65" />
<polyline points="50.42000000000007,19.785999999999945 50.42000000000007,33.846000000000004" fill="" stroke="#000000" stroke-width="0.65" />
<polyline points="20.840000000000146,36.861999999999966 20.840000000000146,20.096000000000004" fill="" stroke="#000000" stroke-width="0.65" />
<polyline points="4.199999999999818,31.861999999999966 4.199999999999818,18.013000000000034" fill="" stroke="#000000" stroke-width="0.65" />
<polyline points="13.079999999999927,38.846000000000004 22.659999999999854,38.846000000000004" fill="" stroke="#000000" stroke-width="0.80" />
</svg>
