<?xml version="1.0" encoding="UTF-8" standalone="yes"?>
<svg width="256.0px" height="256.0px" xmlns="http://www.w3.org/2000/svg" xmlns:xlink="http://www.w3.org/1999/xlink" version="1.2" baseProfile="tiny">
<path d="M100.79999999999927,24.635999999999967 C100.70000000000073,24.635999999999967 100.5,24.692999999999984 100.29999999999927,24.807999999999993 L100.29999999999927,24.69799999999998 L101.70000000000073,23.964000000000055 L101.70000000000073,23.979000000000042 L101.70000000000073,28.775999999999954 C101.70000000000073,28.974000000000046 101.79999999999927,29.101999999999975 101.89999999999964,29.158999999999992 C102.0,29.216000000000008 102.20000000000073,29.245000000000005 102.5,29.245000000000005 L102.5,29.370000000000005 L100.29999999999927,29.370000000000005 L100.29999999999927,29.245000000000005 C100.60000000000036,29.235000000000014 100.79999999999927,29.190000000000055 100.89999999999964,29.111999999999966 C101.0,29.033999999999992 101.10000000000036,28.870000000000005 101.10000000000036,28.620000000000005 L101.10000000000036,25.010999999999967 C101.10000000000036,24.760999999999967 101.0,24.635999999999967 100.79999999999927,24.635999999999967 M106.89999999999964,24.07299999999998 L106.89999999999964,24.19799999999998 L105.20000000000073,29.432999999999993 L104.70000000000073,29.432999999999993 L106.29999999999927,24.66700000000003 L104.60000000000036,24.66700000000003 C104.29999999999927,24.66700000000003 104.20000000000073,24.706000000000017 104.10000000000036,24.783999999999992 C104.0,24.861999999999966 103.79999999999927,25.037000000000035 103.60000000000036,25.307999999999993 L103.5,25.245000000000005 L104.0,24.07299999999998 L106.89999999999964,24.07299999999998" />
<path d="M165.5,24.635999999999967 C165.39999999999964,24.635999999999967 165.20000000000073,24.692999999999984 164.89999999999964,24.807999999999993 L164.89999999999964,24.69799999999998 L166.29999999999927,23.964000000000055 L166.39999999999964,23.979000000000042 L166.39999999999964,28.775999999999954 C166.39999999999964,28.974000000000046 166.5,29.101999999999975 166.60000000000036,29.158999999999992 C166.70000000000073,29.216000000000008 166.89999999999964,29.245000000000005 167.20000000000073,29.245000000000005 L167.20000000000073,29.370000000000005 L165.0,29.370000000000005 L165.0,29.245000000000005 C165.29999999999927,29.235000000000014 165.5,29.190000000000055 165.60000000000036,29.111999999999966 C165.70000000000073,29.033999999999992 165.70000000000073,28.870000000000005 165.70000000000073,28.620000000000005 L165.70000000000073,25.010999999999967 C165.70000000000073,24.760999999999967 165.70000000000073,24.635999999999967 165.5,24.635999999999967 M170.29999999999927,26.400999999999954 C170.79999999999927,26.754999999999995 171.20000000000073,27.05200000000002 171.29999999999927,27.29200000000003 C171.5,27.53200000000004 171.60000000000036,27.807999999999993 171.60000000000036,28.120000000000005 C171.60000000000036,28.537000000000035 171.39999999999964,28.866999999999962 171.20000000000073,29.111999999999966 C170.89999999999964,29.35699999999997 170.5,29.479000000000042 170.0,29.479000000000042 C169.60000000000036,29.479000000000042 169.20000000000073,29.35699999999997 168.89999999999964,29.111999999999966 C168.60000000000036,28.866999999999962 168.5,28.547000000000025 168.5,28.150999999999954 C168.5,27.879999999999995 168.5,27.653999999999996 168.70000000000073,27.47199999999998 C168.79999999999927,27.288999999999987 169.10000000000036,27.037000000000035 169.5,26.714000000000055 C169.10000000000036,26.339000000000055 168.79999999999927,26.062999999999988 168.70000000000073,25.885999999999967 C168.60000000000036,25.708999999999946 168.5,25.49000000000001 168.5,25.229000000000042 C168.5,24.86500000000001 168.70000000000073,24.559999999999945 168.89999999999964,24.315000000000055 C169.20000000000073,24.071000000000026 169.60000000000036,23.94799999999998 170.0,23.94799999999998 C170.39999999999964,23.94799999999998 170.79999999999927,24.05499999999995 171.0,24.269000000000005 C171.29999999999927,24.48199999999997 171.39999999999964,24.760999999999967 171.39999999999964,25.104000000000042 C171.39999999999964,25.375 171.29999999999927,25.604000000000042 171.20000000000073,25.79200000000003 C171.0,25.979000000000042 170.70000000000073,26.182999999999993 170.29999999999927,26.400999999999954 M169.70000000000073,26.870000000000005 C169.5,27.057999999999993 169.29999999999927,27.241999999999962 169.20000000000073,27.424999999999955 C169.10000000000036,27.60699999999997 169.10000000000036,27.827999999999975 169.10000000000036,28.089000000000055 C169.10000000000036,28.432999999999993 169.20000000000073,28.711000000000013 169.39999999999964,28.924999999999955 C169.5,29.138000000000034 169.79999999999927,29.245000000000005 170.10000000000036,29.245000000000005 C170.39999999999964,29.245000000000005 170.60000000000036,29.163999999999987 170.70000000000073,29.003000000000043 C170.89999999999964,28.841000000000008 171.0,28.629999999999995 171.0,28.370000000000005 C171.0,28.287000000000035 171.0,28.206000000000017 170.89999999999964,28.128000000000043 C170.89999999999964,28.049999999999955 170.89999999999964,27.985000000000014 170.89999999999964,27.932999999999993 C170.89999999999964,27.879999999999995 170.79999999999927,27.817999999999984 170.79999999999927,27.745000000000005 C170.70000000000073,27.672000000000025 170.70000000000073,27.616999999999962 170.60000000000036,27.581000000000017 C170.60000000000036,27.54499999999996 170.5,27.486999999999966 170.5,27.408999999999992 C170.39999999999964,27.331000000000017 170.29999999999927,27.275999999999954 170.29999999999927,27.245000000000005 C170.20000000000073,27.214000000000055 170.10000000000036,27.153999999999996 170.0,27.065000000000055 C169.89999999999964,26.976999999999975 169.79999999999927,26.912000000000035 169.70000000000073,26.870000000000005 M170.10000000000036,26.260999999999967 C170.10000000000036,26.25 170.20000000000073,26.22199999999998 170.20000000000073,26.174999999999955 C170.29999999999927,26.128000000000043 170.29999999999927,26.091000000000008 170.39999999999964,26.065000000000055 C170.39999999999964,26.038999999999987 170.39999999999964,26.0 170.5,25.94799999999998 C170.60000000000036,25.895999999999958 170.60000000000036,25.84400000000005 170.60000000000036,25.79200000000003 C170.70000000000073,25.74000000000001 170.70000000000073,25.67700000000002 170.70000000000073,25.604000000000042 C170.79999999999927,25.53200000000004 170.79999999999927,25.451000000000022 170.79999999999927,25.361999999999966 C170.79999999999927,25.274 170.89999999999964,25.182999999999993 170.89999999999964,25.089000000000055 C170.89999999999964,24.817999999999984 170.79999999999927,24.599000000000046 170.60000000000036,24.432999999999993 C170.5,24.265999999999963 170.29999999999927,24.182999999999993 170.0,24.182999999999993 C169.70000000000073,24.182999999999993 169.5,24.258000000000038 169.39999999999964,24.408999999999992 C169.20000000000073,24.559999999999945 169.10000000000036,24.75 169.10000000000036,24.979000000000042 C169.10000000000036,25.19799999999998 169.20000000000073,25.40700000000004 169.29999999999927,25.604000000000042 C169.5,25.80200000000002 169.79999999999927,26.020999999999958 170.10000000000036,26.260999999999967" />
</svg>
