<?xml version="1.0" encoding="UTF-8" standalone="yes"?>
<svg width="256.0px" height="256.0px" xmlns="http://www.w3.org/2000/svg" xmlns:xlink="http://www.w3.org/1999/xlink" version="1.2" baseProfile="tiny">
<path d="M62.5,25.557999999999993 C62.5,25.442999999999984 62.5,25.339000000000055 62.600000000000364,25.245000000000005 C62.600000000000364,25.150999999999954 62.70000000000073,25.019000000000005 62.70000000000073,24.84699999999998 C62.79999999999927,24.674999999999955 62.899999999999636,24.53200000000004 63.0,24.41700000000003 C63.100000000000364,24.30200000000002 63.29999999999927,24.201000000000022 63.5,24.111999999999966 C63.70000000000073,24.024 63.899999999999636,23.979000000000042 64.10000000000036,23.979000000000042 C64.60000000000036,23.979000000000042 64.89999999999964,24.11500000000001 65.20000000000073,24.385999999999967 C65.5,24.65700000000004 65.60000000000036,24.99000000000001 65.60000000000036,25.385999999999967 C65.60000000000036,25.99000000000001 65.29999999999927,26.650999999999954 64.60000000000036,27.370000000000005 L63.29999999999927,28.79200000000003 L65.20000000000073,28.79200000000003 C65.29999999999927,28.79200000000003 65.5,28.760999999999967 65.60000000000036,28.69799999999998 C65.70000000000073,28.635999999999967 65.79999999999927,28.49000000000001 65.89999999999964,28.260999999999967 L66.0,28.29200000000003 L65.60000000000036,29.370000000000005 L62.5,29.370000000000005 L62.5,29.275999999999954 L63.899999999999636,27.760999999999967 C64.60000000000036,27.03200000000004 64.89999999999964,26.34400000000005 64.89999999999964,25.69799999999998 C64.89999999999964,25.354000000000042 64.79999999999927,25.077999999999975 64.60000000000036,24.870000000000005 C64.39999999999964,24.662000000000035 64.10000000000036,24.557999999999993 63.79999999999927,24.557999999999993 C63.5,24.557999999999993 63.29999999999927,24.633000000000038 63.100000000000364,24.783999999999992 C63.0,24.934999999999945 62.79999999999927,25.208999999999946 62.70000000000073,25.604000000000042 L62.5,25.557999999999993 M68.29999999999927,29.479000000000042 C67.70000000000073,29.479000000000042 67.29999999999927,29.265999999999963 67.0,28.839000000000055 C66.60000000000036,28.412000000000035 66.5,27.84400000000005 66.5,27.135999999999967 C66.5,26.91700000000003 66.5,26.692999999999984 66.60000000000036,26.464000000000055 C66.60000000000036,26.235000000000014 66.70000000000073,25.97199999999998 66.79999999999927,25.674999999999955 C67.0,25.378000000000043 67.20000000000073,25.111999999999966 67.39999999999964,24.878000000000043 C67.60000000000036,24.644000000000005 68.0,24.434999999999945 68.39999999999964,24.253000000000043 C68.79999999999927,24.071000000000026 69.29999999999927,23.952999999999975 69.79999999999927,23.900999999999954 L69.79999999999927,24.025999999999954 C69.20000000000073,24.129999999999995 68.60000000000036,24.385999999999967 68.20000000000073,24.79200000000003 C67.79999999999927,25.19799999999998 67.5,25.702999999999975 67.39999999999964,26.307999999999993 C67.70000000000073,26.162000000000035 67.89999999999964,26.067999999999984 68.0,26.025999999999954 C68.10000000000036,25.985000000000014 68.29999999999927,25.964000000000055 68.5,25.964000000000055 C68.89999999999964,25.964000000000055 69.29999999999927,26.111999999999966 69.60000000000036,26.408999999999992 C69.79999999999927,26.706000000000017 70.0,27.104000000000042 70.0,27.604000000000042 C70.0,28.15700000000004 69.79999999999927,28.60699999999997 69.5,28.956000000000017 C69.20000000000073,29.30499999999995 68.79999999999927,29.479000000000042 68.29999999999927,29.479000000000042 M68.20000000000073,26.32299999999998 C67.79999999999927,26.32299999999998 67.5,26.400999999999954 67.39999999999964,26.557999999999993 C67.29999999999927,26.714000000000055 67.20000000000073,26.94799999999998 67.20000000000073,27.260999999999967 C67.20000000000073,27.875 67.29999999999927,28.360000000000014 67.5,28.714000000000055 C67.70000000000073,29.067999999999984 68.0,29.245000000000005 68.39999999999964,29.245000000000005 C68.70000000000073,29.245000000000005 68.89999999999964,29.128000000000043 69.0,28.894000000000005 C69.20000000000073,28.658999999999992 69.20000000000073,28.32299999999998 69.20000000000073,27.885999999999967 C69.20000000000073,27.385999999999967 69.10000000000036,27.0 69.0,26.729000000000042 C68.79999999999927,26.458999999999946 68.5,26.32299999999998 68.20000000000073,26.32299999999998" />
</svg>
