<?xml version="1.0" encoding="UTF-8" standalone="yes"?>
<svg width="256.0px" height="256.0px" xmlns="http://www.w3.org/2000/svg" xmlns:xlink="http://www.w3.org/1999/xlink" version="1.2" baseProfile="tiny">
<path d="M22.84299999999996,17.581000000000017 C22.84299999999996,17.831000000000017 22.721000000000004,17.956000000000017 22.476,17.956000000000017 C22.230999999999995,17.956000000000017 22.109000000000037,17.831000000000017 22.109000000000037,17.581000000000017 L22.109000000000037,14.690000000000055 L20.451999999999998,15.315000000000055 L20.451999999999998,18.471000000000004 C20.451999999999998,18.721000000000004 20.326999999999998,18.846000000000004 20.076999999999998,18.846000000000004 C19.826999999999998,18.846000000000004 19.701999999999998,18.721000000000004 19.701999999999998,18.471000000000004 L19.701999999999998,15.565000000000055 L19.076999999999998,15.799999999999955 C19.067000000000007,15.809999999999945 19.014999999999986,15.815000000000055 18.92100000000005,15.815000000000055 C18.817000000000007,15.815000000000055 18.726,15.775999999999954 18.648000000000025,15.697999999999979 C18.57000000000005,15.620000000000005 18.529999999999973,15.528999999999996 18.529999999999973,15.424999999999955 L18.529999999999973,14.221000000000004 C18.529999999999973,14.024000000000001 18.614000000000033,13.899000000000001 18.779999999999973,13.846000000000004 L19.701999999999998,13.533999999999992 L19.701999999999998,10.331000000000017 L19.076999999999998,10.549999999999955 C19.067000000000007,10.559999999999945 19.014999999999986,10.565000000000055 18.92100000000005,10.565000000000055 C18.817000000000007,10.565000000000055 18.726,10.525999999999954 18.648000000000025,10.447999999999979 C18.57000000000005,10.370000000000005 18.529999999999973,10.278999999999996 18.529999999999973,10.174999999999955 L18.529999999999973,8.956000000000017 C18.529999999999973,8.778999999999996 18.614000000000033,8.663999999999987 18.779999999999973,8.611999999999966 L19.701999999999998,8.253000000000043 L19.701999999999998,5.111999999999966 C19.701999999999998,4.861999999999966 19.826999999999998,4.736999999999966 20.076999999999998,4.736999999999966 C20.326999999999998,4.736999999999966 20.451999999999998,4.861999999999966 20.451999999999998,5.111999999999966 L20.451999999999998,8.003000000000043 L22.109000000000037,7.378000000000043 L22.109000000000037,4.221000000000004 C22.109000000000037,3.9710000000000036 22.230999999999995,3.8460000000000036 22.476,3.8460000000000036 C22.721000000000004,3.8460000000000036 22.84299999999996,3.9710000000000036 22.84299999999996,4.221000000000004 L22.84299999999996,7.128000000000043 L23.499000000000024,6.893000000000029 C23.50999999999999,6.883000000000038 23.551000000000045,6.878000000000043 23.624000000000024,6.878000000000043 C23.71799999999996,6.878000000000043 23.817000000000007,6.913999999999987 23.92100000000005,6.986999999999966 C24.00400000000002,7.07000000000005 24.04600000000005,7.163999999999987 24.04600000000005,7.268000000000029 L24.04600000000005,8.471000000000004 C24.04600000000005,8.658999999999992 23.951999999999998,8.783999999999992 23.764999999999986,8.846000000000004 L22.84299999999996,9.158999999999992 L22.84299999999996,12.361999999999966 L23.499000000000024,12.143000000000029 C23.50999999999999,12.133000000000038 23.551000000000045,12.128000000000043 23.624000000000024,12.128000000000043 C23.71799999999996,12.128000000000043 23.817000000000007,12.168999999999983 23.92100000000005,12.253000000000043 C24.00400000000002,12.326000000000022 24.04600000000005,12.413999999999987 24.04600000000005,12.518000000000029 L24.04600000000005,13.736999999999966 C24.04600000000005,13.903999999999996 23.951999999999998,14.018000000000029 23.764999999999986,14.081000000000017 L22.84299999999996,14.440000000000055 L22.84299999999996,17.581000000000017 M22.109000000000037,9.456000000000017 L20.451999999999998,10.033999999999992 L20.451999999999998,13.236999999999966 L22.109000000000037,12.658999999999992 L22.109000000000037,9.456000000000017" />
<path d="M24.98199999999997,13.846000000000004 C25.149,13.753000000000043 25.317999999999984,13.706000000000017 25.49000000000001,13.706000000000017 C25.662000000000035,13.706000000000017 25.831000000000017,13.753000000000043 25.998000000000047,13.846000000000004 L25.934999999999945,17.503000000000043 L28.076000000000022,17.111999999999966 L28.153999999999996,17.111999999999966 C28.383000000000038,17.111999999999966 28.498000000000047,17.221000000000004 28.498000000000047,17.440000000000055 L28.638000000000034,28.846000000000004 C28.47199999999998,28.940000000000055 28.30200000000002,28.986999999999966 28.129999999999995,28.986999999999966 C27.958999999999946,28.986999999999966 27.788999999999987,28.940000000000055 27.623000000000047,28.846000000000004 L27.684999999999945,25.190000000000055 L25.576000000000022,25.581000000000017 L25.498000000000047,25.581000000000017 C25.258000000000038,25.581000000000017 25.138000000000034,25.471000000000004 25.138000000000034,25.253000000000043 L24.98199999999997,13.846000000000004 M27.701000000000022,23.236999999999966 L27.763000000000034,19.096000000000004 L25.91999999999996,19.456000000000017 L25.85699999999997,23.596000000000004 L27.701000000000022,23.236999999999966" />
<path d="M22.84299999999996,35.08100000000002 C22.84299999999996,35.33100000000002 22.721000000000004,35.45600000000002 22.476,35.45600000000002 C22.230999999999995,35.45600000000002 22.109000000000037,35.33100000000002 22.109000000000037,35.08100000000002 L22.109000000000037,32.190000000000055 L20.451999999999998,32.815000000000055 L20.451999999999998,35.971000000000004 C20.451999999999998,36.221000000000004 20.326999999999998,36.346000000000004 20.076999999999998,36.346000000000004 C19.826999999999998,36.346000000000004 19.701999999999998,36.221000000000004 19.701999999999998,35.971000000000004 L19.701999999999998,33.065000000000055 L19.076999999999998,33.299999999999955 C19.067000000000007,33.309999999999945 19.014999999999986,33.315000000000055 18.92100000000005,33.315000000000055 C18.817000000000007,33.315000000000055 18.726,33.275999999999954 18.648000000000025,33.19799999999998 C18.57000000000005,33.120000000000005 18.529999999999973,33.028999999999996 18.529999999999973,32.924999999999955 L18.529999999999973,31.721000000000004 C18.529999999999973,31.524 18.614000000000033,31.399 18.779999999999973,31.346000000000004 L19.701999999999998,31.033999999999992 L19.701999999999998,27.831000000000017 L19.076999999999998,28.049999999999955 C19.067000000000007,28.059999999999945 19.014999999999986,28.065000000000055 18.92100000000005,28.065000000000055 C18.817000000000007,28.065000000000055 18.726,28.025999999999954 18.648000000000025,27.94799999999998 C18.57000000000005,27.870000000000005 18.529999999999973,27.778999999999996 18.529999999999973,27.674999999999955 L18.529999999999973,26.456000000000017 C18.529999999999973,26.278999999999996 18.614000000000033,26.163999999999987 18.779999999999973,26.111999999999966 L19.701999999999998,25.753000000000043 L19.701999999999998,22.611999999999966 C19.701999999999998,22.361999999999966 19.826999999999998,22.236999999999966 20.076999999999998,22.236999999999966 C20.326999999999998,22.236999999999966 20.451999999999998,22.361999999999966 20.451999999999998,22.611999999999966 L20.451999999999998,25.503000000000043 L22.109000000000037,24.878000000000043 L22.109000000000037,21.721000000000004 C22.109000000000037,21.471000000000004 22.230999999999995,21.346000000000004 22.476,21.346000000000004 C22.721000000000004,21.346000000000004 22.84299999999996,21.471000000000004 22.84299999999996,21.721000000000004 L22.84299999999996,24.628000000000043 L23.499000000000024,24.39300000000003 C23.50999999999999,24.383000000000038 23.551000000000045,24.378000000000043 23.624000000000024,24.378000000000043 C23.71799999999996,24.378000000000043 23.817000000000007,24.413999999999987 23.92100000000005,24.486999999999966 C24.00400000000002,24.57000000000005 24.04600000000005,24.663999999999987 24.04600000000005,24.76800000000003 L24.04600000000005,25.971000000000004 C24.04600000000005,26.158999999999992 23.951999999999998,26.283999999999992 23.764999999999986,26.346000000000004 L22.84299999999996,26.658999999999992 L22.84299999999996,29.861999999999966 L23.499000000000024,29.64300000000003 C23.50999999999999,29.633000000000038 23.551000000000045,29.628000000000043 23.624000000000024,29.628000000000043 C23.71799999999996,29.628000000000043 23.817000000000007,29.668999999999983 23.92100000000005,29.753000000000043 C24.00400000000002,29.826000000000022 24.04600000000005,29.913999999999987 24.04600000000005,30.01800000000003 L24.04600000000005,31.236999999999966 C24.04600000000005,31.403999999999996 23.951999999999998,31.51800000000003 23.764999999999986,31.581000000000017 L22.84299999999996,31.940000000000055 L22.84299999999996,35.08100000000002 M22.109000000000037,26.956000000000017 L20.451999999999998,27.533999999999992 L20.451999999999998,30.736999999999966 L22.109000000000037,30.158999999999992 L22.109000000000037,26.956000000000017" />
<path d="M24.98199999999997,31.346000000000004 C25.149,31.253000000000043 25.317999999999984,31.206000000000017 25.49000000000001,31.206000000000017 C25.662000000000035,31.206000000000017 25.831000000000017,31.253000000000043 25.998000000000047,31.346000000000004 L25.934999999999945,35.00300000000004 L28.076000000000022,34.611999999999966 L28.153999999999996,34.611999999999966 C28.383000000000038,34.611999999999966 28.498000000000047,34.721000000000004 28.498000000000047,34.940000000000055 L28.638000000000034,46.346000000000004 C28.47199999999998,46.440000000000055 28.30200000000002,46.486999999999966 28.129999999999995,46.486999999999966 C27.958999999999946,46.486999999999966 27.788999999999987,46.440000000000055 27.623000000000047,46.346000000000004 L27.684999999999945,42.690000000000055 L25.576000000000022,43.08100000000002 L25.498000000000047,43.08100000000002 C25.258000000000038,43.08100000000002 25.138000000000034,42.971000000000004 25.138000000000034,42.75300000000004 L24.98199999999997,31.346000000000004 M27.701000000000022,40.736999999999966 L27.763000000000034,36.596000000000004 L25.91999999999996,36.95600000000002 L25.85699999999997,41.096000000000004 L27.701000000000022,40.736999999999966" />
<path d="M4.863000000000056,71.346 C5.029999999999973,71.25300000000004 5.198999999999955,71.20600000000002 5.370999999999981,71.20600000000002 C5.543000000000006,71.20600000000002 5.711999999999989,71.25300000000004 5.879000000000019,71.346 L5.816000000000031,75.00300000000004 L7.956999999999994,74.61199999999997 L8.034999999999968,74.61199999999997 C8.26400000000001,74.61199999999997 8.379000000000019,74.721 8.379000000000019,74.94000000000005 L8.519999999999982,86.346 C8.352999999999952,86.44000000000005 8.183999999999969,86.48699999999997 8.011999999999944,86.48699999999997 C7.840000000000032,86.48699999999997 7.671000000000049,86.44000000000005 7.504000000000019,86.346 L7.566000000000031,82.69000000000005 L5.456999999999994,83.08100000000002 L5.379000000000019,83.08100000000002 C5.13900000000001,83.08100000000002 5.019999999999982,82.971 5.019999999999982,82.75300000000004 L4.863000000000056,71.346 M7.581999999999994,80.73699999999997 L7.644999999999982,76.596 L5.801000000000045,76.95600000000002 L5.738000000000056,81.096 L7.581999999999994,80.73699999999997" />
<path d="M40.039999999999964,1.0960000000000036 C40.664999999999964,1.0960000000000036 41.196000000000026,1.2580000000000382 41.634000000000015,1.5810000000000173 C42.028999999999996,1.9349999999999454 42.226999999999975,2.3780000000000427 42.226999999999975,2.908999999999992 C42.226999999999975,3.80499999999995 41.769000000000005,4.643000000000029 40.851999999999975,5.4249999999999545 C39.914999999999964,6.206000000000017 38.90999999999997,6.596000000000004 37.83699999999999,6.596000000000004 C37.21199999999999,6.596000000000004 36.686000000000035,6.434999999999945 36.259000000000015,6.111999999999966 C35.851999999999975,5.758000000000038 35.649,5.315000000000055 35.649,4.783999999999992 C35.649,3.8880000000000337 36.11800000000005,3.0499999999999545 37.05499999999995,2.268000000000029 C37.97199999999998,1.4869999999999663 38.966999999999985,1.0960000000000036 40.039999999999964,1.0960000000000036" />
<path d="M40.039999999999964,8.596000000000004 C40.664999999999964,8.596000000000004 41.196000000000026,8.758000000000038 41.634000000000015,9.081000000000017 C42.028999999999996,9.434999999999945 42.226999999999975,9.878000000000043 42.226999999999975,10.408999999999992 C42.226999999999975,11.30499999999995 41.769000000000005,12.143000000000029 40.851999999999975,12.924999999999955 C39.914999999999964,13.706000000000017 38.90999999999997,14.096000000000004 37.83699999999999,14.096000000000004 C37.21199999999999,14.096000000000004 36.686000000000035,13.934999999999945 36.259000000000015,13.611999999999966 C35.851999999999975,13.258000000000038 35.649,12.815000000000055 35.649,12.283999999999992 C35.649,11.388000000000034 36.11800000000005,10.549999999999955 37.05499999999995,9.768000000000029 C37.97199999999998,8.986999999999966 38.966999999999985,8.596000000000004 40.039999999999964,8.596000000000004" />
<path d="M34.10699999999997,11.096000000000004 C34.73199999999997,11.096000000000004 35.263000000000034,11.258000000000038 35.70100000000002,11.581000000000017 C36.09699999999998,11.934999999999945 36.29499999999996,12.378000000000043 36.29499999999996,12.908999999999992 C36.29499999999996,13.80499999999995 35.83600000000001,14.643000000000029 34.91999999999996,15.424999999999955 C33.98199999999997,16.206000000000017 32.976999999999975,16.596000000000004 31.903999999999996,16.596000000000004 C31.278999999999996,16.596000000000004 30.753000000000043,16.434999999999945 30.326000000000022,16.111999999999966 C29.91999999999996,15.758000000000038 29.716000000000008,15.315000000000055 29.716000000000008,14.783999999999992 C29.716000000000008,13.888000000000034 30.184999999999945,13.049999999999955 31.123000000000047,12.268000000000029 C32.03899999999999,11.486999999999966 33.03399999999999,11.096000000000004 34.10699999999997,11.096000000000004" />
<path d="M40.039999999999964,18.596000000000004 C40.664999999999964,18.596000000000004 41.196000000000026,18.758000000000038 41.634000000000015,19.081000000000017 C42.028999999999996,19.434999999999945 42.226999999999975,19.878000000000043 42.226999999999975,20.408999999999992 C42.226999999999975,21.30499999999995 41.769000000000005,22.14300000000003 40.851999999999975,22.924999999999955 C39.914999999999964,23.706000000000017 38.90999999999997,24.096000000000004 37.83699999999999,24.096000000000004 C37.21199999999999,24.096000000000004 36.686000000000035,23.934999999999945 36.259000000000015,23.611999999999966 C35.851999999999975,23.258000000000038 35.649,22.815000000000055 35.649,22.283999999999992 C35.649,21.388000000000034 36.11800000000005,20.549999999999955 37.05499999999995,19.76800000000003 C37.97199999999998,18.986999999999966 38.966999999999985,18.596000000000004 40.039999999999964,18.596000000000004" />
<path d="M40.039999999999964,26.096000000000004 C40.664999999999964,26.096000000000004 41.196000000000026,26.258000000000038 41.634000000000015,26.581000000000017 C42.028999999999996,26.934999999999945 42.226999999999975,27.378000000000043 42.226999999999975,27.908999999999992 C42.226999999999975,28.80499999999995 41.769000000000005,29.64300000000003 40.851999999999975,30.424999999999955 C39.914999999999964,31.206000000000017 38.90999999999997,31.596000000000004 37.83699999999999,31.596000000000004 C37.21199999999999,31.596000000000004 36.686000000000035,31.434999999999945 36.259000000000015,31.111999999999966 C35.851999999999975,30.758000000000038 35.649,30.315000000000055 35.649,29.783999999999992 C35.649,28.888000000000034 36.11800000000005,28.049999999999955 37.05499999999995,27.26800000000003 C37.97199999999998,26.486999999999966 38.966999999999985,26.096000000000004 40.039999999999964,26.096000000000004" />
<path d="M40.039999999999964,36.096000000000004 C40.664999999999964,36.096000000000004 41.196000000000026,36.25800000000004 41.634000000000015,36.58100000000002 C42.028999999999996,36.934999999999945 42.226999999999975,37.37800000000004 42.226999999999975,37.90899999999999 C42.226999999999975,38.80499999999995 41.769000000000005,39.64300000000003 40.851999999999975,40.424999999999955 C39.914999999999964,41.20600000000002 38.90999999999997,41.596000000000004 37.83699999999999,41.596000000000004 C37.21199999999999,41.596000000000004 36.686000000000035,41.434999999999945 36.259000000000015,41.111999999999966 C35.851999999999975,40.75800000000004 35.649,40.315000000000055 35.649,39.78399999999999 C35.649,38.888000000000034 36.11800000000005,38.049999999999955 37.05499999999995,37.26800000000003 C37.97199999999998,36.486999999999966 38.966999999999985,36.096000000000004 40.039999999999964,36.096000000000004" />
<path d="M15.822999999999979,111.096 C16.07299999999998,111.096 16.25999999999999,111.17999999999995 16.38499999999999,111.346 C16.520999999999958,111.524 16.587999999999965,111.70100000000002 16.587999999999965,111.87800000000004 C16.587999999999965,112.15899999999999 16.327999999999975,112.51300000000003 15.807000000000016,112.94000000000005 C15.285999999999945,113.399 14.974000000000046,113.721 14.870000000000005,113.90899999999999 C14.785999999999945,114.05499999999995 14.629999999999995,114.38800000000003 14.400999999999954,114.90899999999999 C14.192000000000007,115.44000000000005 13.95799999999997,115.85699999999997 13.697999999999979,116.15899999999999 C13.447999999999979,116.44000000000005 13.145999999999958,116.58100000000002 12.791000000000054,116.58100000000002 C12.666000000000054,116.58100000000002 12.432000000000016,116.54399999999998 12.087999999999965,116.471 C11.754999999999995,116.38800000000003 11.509999999999991,116.346 11.354000000000042,116.346 C11.197999999999979,116.346 10.952999999999975,116.38800000000003 10.620000000000005,116.471 C10.307000000000016,116.55499999999995 10.08299999999997,116.596 9.947999999999979,116.596 C9.697999999999979,116.596 9.504999999999995,116.51300000000003 9.370000000000005,116.346 C9.254999999999995,116.149 9.197999999999979,115.971 9.197999999999979,115.81500000000005 C9.197999999999979,115.53399999999999 9.45799999999997,115.17999999999995 9.979000000000042,114.75300000000004 C10.5,114.29399999999998 10.812000000000012,113.971 10.916000000000054,113.78399999999999 C10.967999999999961,113.69000000000005 11.125,113.35199999999998 11.384999999999991,112.76800000000003 C11.592999999999961,112.23699999999997 11.827999999999975,111.82600000000002 12.087999999999965,111.53399999999999 C12.327999999999975,111.25300000000004 12.620000000000005,111.11199999999997 12.962999999999965,111.11199999999997 C13.109000000000037,111.11199999999997 13.342999999999961,111.149 13.666000000000054,111.221 C14.0,111.30499999999995 14.25,111.346 14.416000000000054,111.346 C14.562000000000012,111.346 14.802000000000021,111.30499999999995 15.134999999999991,111.221 C15.447999999999979,111.13800000000003 15.677000000000021,111.096 15.822999999999979,111.096" />
<path d="M13.587999999999965,131.096 C14.212999999999965,131.096 14.745000000000005,131.25800000000004 15.182000000000016,131.58100000000002 C15.577999999999975,131.93499999999995 15.775999999999954,132.37800000000004 15.775999999999954,132.909 C15.775999999999954,133.80499999999995 15.317000000000007,134.64300000000003 14.400999999999954,135.42499999999995 C13.462999999999965,136.20600000000002 12.45799999999997,136.596 11.384999999999991,136.596 C10.759999999999991,136.596 10.234000000000037,136.43499999999995 9.807000000000016,136.11199999999997 C9.400999999999954,135.75800000000004 9.197999999999979,135.31500000000005 9.197999999999979,134.784 C9.197999999999979,133.88800000000003 9.666000000000054,133.04999999999995 10.604000000000042,132.26800000000003 C11.520999999999958,131.48699999999997 12.514999999999986,131.096 13.587999999999965,131.096" />
<path d="M13.988000000000056,76.096 C14.613000000000056,76.096 15.144999999999982,76.25800000000004 15.581999999999994,76.58100000000002 C15.977999999999952,76.93499999999995 16.176000000000045,77.37800000000004 16.176000000000045,77.90899999999999 C16.176000000000045,78.80499999999995 15.716999999999985,79.64300000000003 14.801000000000045,80.42499999999995 C13.863000000000056,81.20600000000002 12.857999999999947,81.596 11.784999999999968,81.596 C11.159999999999968,81.596 10.634000000000015,81.43499999999995 10.206999999999994,81.11199999999997 C9.801000000000045,80.75800000000004 9.597999999999956,80.31500000000005 9.597999999999956,79.78399999999999 C9.597999999999956,78.88800000000003 10.066000000000031,78.04999999999995 11.004000000000019,77.26800000000003 C11.92100000000005,76.48699999999997 12.914999999999964,76.096 13.988000000000056,76.096" />
<path d="M13.988000000000056,1.0960000000000036 C14.613000000000056,1.0960000000000036 15.144999999999982,1.2580000000000382 15.581999999999994,1.5810000000000173 C15.977999999999952,1.9349999999999454 16.176000000000045,2.3780000000000427 16.176000000000045,2.908999999999992 C16.176000000000045,3.80499999999995 15.716999999999985,4.643000000000029 14.801000000000045,5.4249999999999545 C13.863000000000056,6.206000000000017 12.857999999999947,6.596000000000004 11.784999999999968,6.596000000000004 C11.159999999999968,6.596000000000004 10.634000000000015,6.434999999999945 10.206999999999994,6.111999999999966 C9.801000000000045,5.758000000000038 9.597999999999956,5.315000000000055 9.597999999999956,4.783999999999992 C9.597999999999956,3.8880000000000337 10.066000000000031,3.0499999999999545 11.004000000000019,2.268000000000029 C11.92100000000005,1.4869999999999663 12.914999999999964,1.0960000000000036 13.988000000000056,1.0960000000000036" />
<path d="M13.988000000000056,8.596000000000004 C14.613000000000056,8.596000000000004 15.144999999999982,8.758000000000038 15.581999999999994,9.081000000000017 C15.977999999999952,9.434999999999945 16.176000000000045,9.878000000000043 16.176000000000045,10.408999999999992 C16.176000000000045,11.30499999999995 15.716999999999985,12.143000000000029 14.801000000000045,12.924999999999955 C13.863000000000056,13.706000000000017 12.857999999999947,14.096000000000004 11.784999999999968,14.096000000000004 C11.159999999999968,14.096000000000004 10.634000000000015,13.934999999999945 10.206999999999994,13.611999999999966 C9.801000000000045,13.258000000000038 9.597999999999956,12.815000000000055 9.597999999999956,12.283999999999992 C9.597999999999956,11.388000000000034 10.066000000000031,10.549999999999955 11.004000000000019,9.768000000000029 C11.92100000000005,8.986999999999966 12.914999999999964,8.596000000000004 13.988000000000056,8.596000000000004" />
<path d="M13.988000000000056,13.596000000000004 C14.613000000000056,13.596000000000004 15.144999999999982,13.758000000000038 15.581999999999994,14.081000000000017 C15.977999999999952,14.434999999999945 16.176000000000045,14.878000000000043 16.176000000000045,15.408999999999992 C16.176000000000045,16.30499999999995 15.716999999999985,17.14300000000003 14.801000000000045,17.924999999999955 C13.863000000000056,18.706000000000017 12.857999999999947,19.096000000000004 11.784999999999968,19.096000000000004 C11.159999999999968,19.096000000000004 10.634000000000015,18.934999999999945 10.206999999999994,18.611999999999966 C9.801000000000045,18.258000000000038 9.597999999999956,17.815000000000055 9.597999999999956,17.283999999999992 C9.597999999999956,16.388000000000034 10.066000000000031,15.549999999999955 11.004000000000019,14.768000000000029 C11.92100000000005,13.986999999999966 12.914999999999964,13.596000000000004 13.988000000000056,13.596000000000004" />
<path d="M13.988000000000056,18.596000000000004 C14.613000000000056,18.596000000000004 15.144999999999982,18.758000000000038 15.581999999999994,19.081000000000017 C15.977999999999952,19.434999999999945 16.176000000000045,19.878000000000043 16.176000000000045,20.408999999999992 C16.176000000000045,21.30499999999995 15.716999999999985,22.14300000000003 14.801000000000045,22.924999999999955 C13.863000000000056,23.706000000000017 12.857999999999947,24.096000000000004 11.784999999999968,24.096000000000004 C11.159999999999968,24.096000000000004 10.634000000000015,23.934999999999945 10.206999999999994,23.611999999999966 C9.801000000000045,23.258000000000038 9.597999999999956,22.815000000000055 9.597999999999956,22.283999999999992 C9.597999999999956,21.388000000000034 10.066000000000031,20.549999999999955 11.004000000000019,19.76800000000003 C11.92100000000005,18.986999999999966 12.914999999999964,18.596000000000004 13.988000000000056,18.596000000000004" />
<path d="M13.988000000000056,26.096000000000004 C14.613000000000056,26.096000000000004 15.144999999999982,26.258000000000038 15.581999999999994,26.581000000000017 C15.977999999999952,26.934999999999945 16.176000000000045,27.378000000000043 16.176000000000045,27.908999999999992 C16.176000000000045,28.80499999999995 15.716999999999985,29.64300000000003 14.801000000000045,30.424999999999955 C13.863000000000056,31.206000000000017 12.857999999999947,31.596000000000004 11.784999999999968,31.596000000000004 C11.159999999999968,31.596000000000004 10.634000000000015,31.434999999999945 10.206999999999994,31.111999999999966 C9.801000000000045,30.758000000000038 9.597999999999956,30.315000000000055 9.597999999999956,29.783999999999992 C9.597999999999956,28.888000000000034 10.066000000000031,28.049999999999955 11.004000000000019,27.26800000000003 C11.92100000000005,26.486999999999966 12.914999999999964,26.096000000000004 13.988000000000056,26.096000000000004" />
<path d="M13.988000000000056,36.096000000000004 C14.613000000000056,36.096000000000004 15.144999999999982,36.25800000000004 15.581999999999994,36.58100000000002 C15.977999999999952,36.934999999999945 16.176000000000045,37.37800000000004 16.176000000000045,37.90899999999999 C16.176000000000045,38.80499999999995 15.716999999999985,39.64300000000003 14.801000000000045,40.424999999999955 C13.863000000000056,41.20600000000002 12.857999999999947,41.596000000000004 11.784999999999968,41.596000000000004 C11.159999999999968,41.596000000000004 10.634000000000015,41.434999999999945 10.206999999999994,41.111999999999966 C9.801000000000045,40.75800000000004 9.597999999999956,40.315000000000055 9.597999999999956,39.78399999999999 C9.597999999999956,38.888000000000034 10.066000000000031,38.049999999999955 11.004000000000019,37.26800000000003 C11.92100000000005,36.486999999999966 12.914999999999964,36.096000000000004 13.988000000000056,36.096000000000004" />
<path d="M9.597999999999956,50.096000000000004 L36.29899999999998,50.096000000000004 L36.29899999999998,52.596000000000004 L9.597999999999956,52.596000000000004 L9.597999999999956,50.096000000000004" />
<path d="M253.159,28.01800000000003 L253.159,29.565000000000055 C253.159,30.116999999999962 253.18499999999995,30.55499999999995 253.23699999999997,30.878000000000043 C253.664,30.513000000000034 253.971,30.241999999999962 254.159,30.065000000000055 C254.36699999999996,29.85699999999997 254.57600000000002,29.567999999999984 254.784,29.19799999999998 C254.99199999999996,28.827999999999975 255.096,28.461000000000013 255.096,28.096000000000004 C255.096,27.73199999999997 255.01800000000003,27.418999999999983 254.86199999999997,27.158999999999992 C254.70600000000002,26.899 254.49800000000005,26.76800000000003 254.23699999999997,26.76800000000003 C253.92499999999995,26.76800000000003 253.664,26.888000000000034 253.45600000000002,27.128000000000043 C253.25800000000004,27.388000000000034 253.159,27.684999999999945 253.159,28.01800000000003 M252.33100000000002,31.596000000000004 L252.08100000000002,19.706000000000017 C252.26800000000003,19.601999999999975 252.45299999999997,19.549999999999955 252.63599999999997,19.549999999999955 C252.81799999999998,19.549999999999955 252.99800000000005,19.601999999999975 253.17499999999995,19.706000000000017 L253.01800000000003,26.596000000000004 C253.54999999999995,26.138000000000034 254.164,25.908999999999992 254.86199999999997,25.908999999999992 C255.36199999999997,25.908999999999992 255.78099999999995,26.116999999999962 256.12,26.533999999999992 C256.45799999999997,26.951000000000022 256.62800000000004,27.42999999999995 256.62800000000004,27.971000000000004 C256.62800000000004,28.30499999999995 256.51800000000003,28.663999999999987 256.29999999999995,29.049999999999955 C256.091,29.39300000000003 255.87300000000005,29.663999999999987 255.64300000000003,29.861999999999966 C255.50800000000004,29.966000000000008 255.17499999999995,30.226999999999975 254.64300000000003,30.64300000000003 C254.48699999999997,30.758000000000038 254.30200000000002,30.89300000000003 254.08900000000006,31.049999999999955 C253.875,31.206000000000017 253.74199999999996,31.30499999999995 253.69000000000005,31.346000000000004 C253.596,31.399 253.50800000000004,31.503000000000043 253.42499999999995,31.658999999999992 C253.341,31.793999999999983 253.23699999999997,31.903999999999996 253.11199999999997,31.986999999999966 C253.029,32.07000000000005 252.92200000000003,32.111999999999966 252.79200000000003,32.111999999999966 C252.66200000000003,32.111999999999966 252.55499999999995,32.065000000000055 252.471,31.971000000000004 C252.37800000000004,31.878000000000043 252.33100000000002,31.753000000000043 252.33100000000002,31.596000000000004" />
<path d="M238.68499999999995,40.08100000000002 C238.68499999999995,40.33100000000002 238.563,40.45600000000002 238.31799999999998,40.45600000000002 C238.07299999999998,40.45600000000002 237.95100000000002,40.33100000000002 237.95100000000002,40.08100000000002 L237.95100000000002,37.190000000000055 L236.29499999999996,37.815000000000055 L236.29499999999996,40.971000000000004 C236.29499999999996,41.221000000000004 236.16999999999996,41.346000000000004 235.91999999999996,41.346000000000004 C235.66999999999996,41.346000000000004 235.54499999999996,41.221000000000004 235.54499999999996,40.971000000000004 L235.54499999999996,38.065000000000055 L234.91999999999996,38.299999999999955 C234.909,38.309999999999945 234.85699999999997,38.315000000000055 234.76300000000003,38.315000000000055 C234.659,38.315000000000055 234.56799999999998,38.275999999999954 234.49,38.19799999999998 C234.41200000000003,38.120000000000005 234.37300000000005,38.028999999999996 234.37300000000005,37.924999999999955 L234.37300000000005,36.721000000000004 C234.37300000000005,36.524 234.45600000000002,36.399 234.62300000000005,36.346000000000004 L235.54499999999996,36.03399999999999 L235.54499999999996,32.83100000000002 L234.91999999999996,33.049999999999955 C234.909,33.059999999999945 234.85699999999997,33.065000000000055 234.76300000000003,33.065000000000055 C234.659,33.065000000000055 234.56799999999998,33.025999999999954 234.49,32.94799999999998 C234.41200000000003,32.870000000000005 234.37300000000005,32.778999999999996 234.37300000000005,32.674999999999955 L234.37300000000005,31.456000000000017 C234.37300000000005,31.278999999999996 234.45600000000002,31.163999999999987 234.62300000000005,31.111999999999966 L235.54499999999996,30.753000000000043 L235.54499999999996,27.611999999999966 C235.54499999999996,27.361999999999966 235.66999999999996,27.236999999999966 235.91999999999996,27.236999999999966 C236.16999999999996,27.236999999999966 236.29499999999996,27.361999999999966 236.29499999999996,27.611999999999966 L236.29499999999996,30.503000000000043 L237.95100000000002,29.878000000000043 L237.95100000000002,26.721000000000004 C237.95100000000002,26.471000000000004 238.07299999999998,26.346000000000004 238.31799999999998,26.346000000000004 C238.563,26.346000000000004 238.68499999999995,26.471000000000004 238.68499999999995,26.721000000000004 L238.68499999999995,29.628000000000043 L239.34199999999998,29.39300000000003 C239.35199999999998,29.383000000000038 239.394,29.378000000000043 239.46699999999998,29.378000000000043 C239.55999999999995,29.378000000000043 239.659,29.413999999999987 239.76300000000003,29.486999999999966 C239.84699999999998,29.57000000000005 239.88800000000003,29.663999999999987 239.88800000000003,29.76800000000003 L239.88800000000003,30.971000000000004 C239.88800000000003,31.158999999999992 239.79499999999996,31.283999999999992 239.60699999999997,31.346000000000004 L238.68499999999995,31.658999999999992 L238.68499999999995,34.861999999999966 L239.34199999999998,34.64300000000003 C239.35199999999998,34.63300000000004 239.394,34.62800000000004 239.46699999999998,34.62800000000004 C239.55999999999995,34.62800000000004 239.659,34.66899999999998 239.76300000000003,34.75300000000004 C239.84699999999998,34.82600000000002 239.88800000000003,34.91399999999999 239.88800000000003,35.01800000000003 L239.88800000000003,36.236999999999966 C239.88800000000003,36.403999999999996 239.79499999999996,36.51800000000003 239.60699999999997,36.58100000000002 L238.68499999999995,36.940000000000055 L238.68499999999995,40.08100000000002 M237.95100000000002,31.956000000000017 L236.29499999999996,32.53399999999999 L236.29499999999996,35.736999999999966 L237.95100000000002,35.15899999999999 L237.95100000000002,31.956000000000017" />
<path d="M245.37099999999998,31.096000000000004 C245.99599999999998,31.096000000000004 246.52800000000002,31.258000000000038 246.96500000000003,31.581000000000017 C247.361,31.934999999999945 247.55899999999997,32.37800000000004 247.55899999999997,32.90899999999999 C247.55899999999997,33.80499999999995 247.10000000000002,34.64300000000003 246.18399999999997,35.424999999999955 C245.24599999999998,36.20600000000002 244.24099999999999,36.596000000000004 243.168,36.596000000000004 C242.543,36.596000000000004 242.01700000000005,36.434999999999945 241.59000000000003,36.111999999999966 C241.18399999999997,35.75800000000004 240.981,35.315000000000055 240.981,34.78399999999999 C240.981,33.888000000000034 241.44899999999996,33.049999999999955 242.38699999999994,32.26800000000003 C243.30399999999997,31.486999999999966 244.298,31.096000000000004 245.37099999999998,31.096000000000004" />
<path d="M227.48699999999997,63.12800000000004 L229.89300000000003,61.174999999999955 C229.95500000000004,61.12199999999996 230.01300000000003,61.096000000000004 230.06500000000005,61.096000000000004 C230.13800000000003,61.096000000000004 230.20500000000004,61.12199999999996 230.26800000000003,61.174999999999955 L230.67399999999998,61.486999999999966 C230.73699999999997,61.549999999999955 230.76800000000003,61.62800000000004 230.76800000000003,61.721000000000004 C230.76800000000003,61.78399999999999 230.73699999999997,61.861999999999966 230.67399999999998,61.95600000000002 L228.346,63.846000000000004 L230.67399999999998,65.73699999999997 C230.73699999999997,65.80999999999995 230.76800000000003,65.89099999999996 230.76800000000003,65.97900000000004 C230.76800000000003,66.06799999999998 230.73699999999997,66.14300000000003 230.67399999999998,66.20600000000002 L230.26800000000003,66.51800000000003 C230.20500000000004,66.57000000000005 230.13800000000003,66.596 230.06500000000005,66.596 C230.01300000000003,66.596 229.95500000000004,66.57000000000005 229.89300000000003,66.51800000000003 L227.48699999999997,64.56500000000005 L225.06500000000005,66.51800000000003 C225.00199999999995,66.57000000000005 224.94500000000005,66.596 224.89300000000003,66.596 C224.83000000000004,66.596 224.76800000000003,66.57000000000005 224.70500000000004,66.51800000000003 L224.284,66.20600000000002 C224.221,66.14300000000003 224.19000000000005,66.06500000000005 224.19000000000005,65.971 C224.19000000000005,65.90899999999999 224.221,65.83100000000002 224.284,65.73699999999997 L226.61199999999997,63.846000000000004 L224.284,61.95600000000002 C224.221,61.88300000000004 224.19000000000005,61.80200000000002 224.19000000000005,61.714000000000055 C224.19000000000005,61.625 224.221,61.549999999999955 224.284,61.486999999999966 L224.70500000000004,61.174999999999955 C224.76800000000003,61.12199999999996 224.83000000000004,61.096000000000004 224.89300000000003,61.096000000000004 C224.94500000000005,61.096000000000004 225.00199999999995,61.12199999999996 225.06500000000005,61.174999999999955 L227.48699999999997,63.12800000000004" />
<path d="M200.62099999999998,63.12800000000004 L203.02800000000002,61.174999999999955 C203.09000000000003,61.12199999999996 203.14700000000005,61.096000000000004 203.20000000000005,61.096000000000004 C203.27200000000005,61.096000000000004 203.34000000000003,61.12199999999996 203.40300000000002,61.174999999999955 L203.80899999999997,61.486999999999966 C203.87099999999998,61.549999999999955 203.90300000000002,61.62800000000004 203.90300000000002,61.721000000000004 C203.90300000000002,61.78399999999999 203.87099999999998,61.861999999999966 203.80899999999997,61.95600000000002 L201.481,63.846000000000004 L203.80899999999997,65.73699999999997 C203.87099999999998,65.80999999999995 203.90300000000002,65.89099999999996 203.90300000000002,65.97900000000004 C203.90300000000002,66.06799999999998 203.87099999999998,66.14300000000003 203.80899999999997,66.20600000000002 L203.40300000000002,66.51800000000003 C203.34000000000003,66.57000000000005 203.27200000000005,66.596 203.20000000000005,66.596 C203.14700000000005,66.596 203.09000000000003,66.57000000000005 203.02800000000002,66.51800000000003 L200.62099999999998,64.56500000000005 L198.20000000000005,66.51800000000003 C198.13699999999994,66.57000000000005 198.08000000000004,66.596 198.02800000000002,66.596 C197.96500000000003,66.596 197.90300000000002,66.57000000000005 197.84000000000003,66.51800000000003 L197.418,66.20600000000002 C197.356,66.14300000000003 197.32500000000005,66.06500000000005 197.32500000000005,65.971 C197.32500000000005,65.90899999999999 197.356,65.83100000000002 197.418,65.73699999999997 L199.74599999999998,63.846000000000004 L197.418,61.95600000000002 C197.356,61.88300000000004 197.32500000000005,61.80200000000002 197.32500000000005,61.714000000000055 C197.32500000000005,61.625 197.356,61.549999999999955 197.418,61.486999999999966 L197.84000000000003,61.174999999999955 C197.90300000000002,61.12199999999996 197.96500000000003,61.096000000000004 198.02800000000002,61.096000000000004 C198.08000000000004,61.096000000000004 198.13699999999994,61.12199999999996 198.20000000000005,61.174999999999955 L200.62099999999998,63.12800000000004" />
<path d="M201.71500000000003,71.096 C202.34000000000003,71.096 202.87099999999998,71.25800000000004 203.30899999999997,71.58100000000002 C203.70500000000004,71.93499999999995 203.90300000000002,72.37800000000004 203.90300000000002,72.90899999999999 C203.90300000000002,73.80499999999995 203.44399999999996,74.64300000000003 202.52800000000002,75.42499999999995 C201.59000000000003,76.20600000000002 200.58500000000004,76.596 199.51199999999994,76.596 C198.88699999999994,76.596 198.361,76.43499999999995 197.93399999999997,76.11199999999997 C197.52800000000002,75.75800000000004 197.32500000000005,75.31500000000005 197.32500000000005,74.78399999999999 C197.32500000000005,73.88800000000003 197.793,73.04999999999995 198.731,72.26800000000003 C199.64700000000005,71.48699999999997 200.64200000000005,71.096 201.71500000000003,71.096" />
<path d="M201.71500000000003,23.596000000000004 C202.34000000000003,23.596000000000004 202.87099999999998,23.758000000000038 203.30899999999997,24.081000000000017 C203.70500000000004,24.434999999999945 203.90300000000002,24.878000000000043 203.90300000000002,25.408999999999992 C203.90300000000002,26.30499999999995 203.44399999999996,27.14300000000003 202.52800000000002,27.924999999999955 C201.59000000000003,28.706000000000017 200.58500000000004,29.096000000000004 199.51199999999994,29.096000000000004 C198.88699999999994,29.096000000000004 198.361,28.934999999999945 197.93399999999997,28.611999999999966 C197.52800000000002,28.258000000000038 197.32500000000005,27.815000000000055 197.32500000000005,27.283999999999992 C197.32500000000005,26.388000000000034 197.793,25.549999999999955 198.731,24.76800000000003 C199.64700000000005,23.986999999999966 200.64200000000005,23.596000000000004 201.71500000000003,23.596000000000004" />
<path d="M173.75599999999997,63.12800000000004 L176.16200000000003,61.174999999999955 C176.22500000000002,61.12199999999996 176.28200000000004,61.096000000000004 176.33399999999995,61.096000000000004 C176.40700000000004,61.096000000000004 176.47500000000002,61.12199999999996 176.53700000000003,61.174999999999955 L176.94399999999996,61.486999999999966 C177.00599999999997,61.549999999999955 177.03700000000003,61.62800000000004 177.03700000000003,61.721000000000004 C177.03700000000003,61.78399999999999 177.00599999999997,61.861999999999966 176.94399999999996,61.95600000000002 L174.615,63.846000000000004 L176.94399999999996,65.73699999999997 C177.00599999999997,65.80999999999995 177.03700000000003,65.89099999999996 177.03700000000003,65.97900000000004 C177.03700000000003,66.06799999999998 177.00599999999997,66.14300000000003 176.94399999999996,66.20600000000002 L176.53700000000003,66.51800000000003 C176.47500000000002,66.57000000000005 176.40700000000004,66.596 176.33399999999995,66.596 C176.28200000000004,66.596 176.22500000000002,66.57000000000005 176.16200000000003,66.51800000000003 L173.75599999999997,64.56500000000005 L171.33399999999995,66.51800000000003 C171.27200000000005,66.57000000000005 171.21400000000006,66.596 171.16200000000003,66.596 C171.10000000000002,66.596 171.03700000000003,66.57000000000005 170.97500000000002,66.51800000000003 L170.553,66.20600000000002 C170.49,66.14300000000003 170.45899999999995,66.06500000000005 170.45899999999995,65.971 C170.45899999999995,65.90899999999999 170.49,65.83100000000002 170.553,65.73699999999997 L172.88099999999997,63.846000000000004 L170.553,61.95600000000002 C170.49,61.88300000000004 170.45899999999995,61.80200000000002 170.45899999999995,61.714000000000055 C170.45899999999995,61.625 170.49,61.549999999999955 170.553,61.486999999999966 L170.97500000000002,61.174999999999955 C171.03700000000003,61.12199999999996 171.10000000000002,61.096000000000004 171.16200000000003,61.096000000000004 C171.21400000000006,61.096000000000004 171.27200000000005,61.12199999999996 171.33399999999995,61.174999999999955 L173.75599999999997,63.12800000000004" />
<path d="M174.85000000000002,81.096 C175.47500000000002,81.096 176.00599999999997,81.25800000000004 176.44399999999996,81.58100000000002 C176.83900000000006,81.93499999999995 177.03700000000003,82.37800000000004 177.03700000000003,82.90899999999999 C177.03700000000003,83.80499999999995 176.57899999999995,84.64300000000003 175.66200000000003,85.42499999999995 C174.72500000000002,86.20600000000002 173.72000000000003,86.596 172.64700000000005,86.596 C172.02200000000005,86.596 171.49599999999998,86.43499999999995 171.06899999999996,86.11199999999997 C170.66200000000003,85.75800000000004 170.45899999999995,85.31500000000005 170.45899999999995,84.78399999999999 C170.45899999999995,83.88800000000003 170.928,83.04999999999995 171.865,82.26800000000003 C172.78200000000004,81.48699999999997 173.77700000000004,81.096 174.85000000000002,81.096" />
<path d="M174.85000000000002,23.596000000000004 C175.47500000000002,23.596000000000004 176.00599999999997,23.758000000000038 176.44399999999996,24.081000000000017 C176.83900000000006,24.434999999999945 177.03700000000003,24.878000000000043 177.03700000000003,25.408999999999992 C177.03700000000003,26.30499999999995 176.57899999999995,27.14300000000003 175.66200000000003,27.924999999999955 C174.72500000000002,28.706000000000017 173.72000000000003,29.096000000000004 172.64700000000005,29.096000000000004 C172.02200000000005,29.096000000000004 171.49599999999998,28.934999999999945 171.06899999999996,28.611999999999966 C170.66200000000003,28.258000000000038 170.45899999999995,27.815000000000055 170.45899999999995,27.283999999999992 C170.45899999999995,26.388000000000034 170.928,25.549999999999955 171.865,24.76800000000003 C172.78200000000004,23.986999999999966 173.77700000000004,23.596000000000004 174.85000000000002,23.596000000000004" />
<path d="M146.89099999999996,63.12800000000004 L149.29700000000003,61.174999999999955 C149.36,61.12199999999996 149.41700000000003,61.096000000000004 149.46900000000005,61.096000000000004 C149.54200000000003,61.096000000000004 149.61,61.12199999999996 149.67200000000003,61.174999999999955 L150.07799999999997,61.486999999999966 C150.14099999999996,61.549999999999955 150.17200000000003,61.62800000000004 150.17200000000003,61.721000000000004 C150.17200000000003,61.78399999999999 150.14099999999996,61.861999999999966 150.07799999999997,61.95600000000002 L147.75,63.846000000000004 L150.07799999999997,65.73699999999997 C150.14099999999996,65.80999999999995 150.17200000000003,65.89099999999996 150.17200000000003,65.97900000000004 C150.17200000000003,66.06799999999998 150.14099999999996,66.14300000000003 150.07799999999997,66.20600000000002 L149.67200000000003,66.51800000000003 C149.61,66.57000000000005 149.54200000000003,66.596 149.46900000000005,66.596 C149.41700000000003,66.596 149.36,66.57000000000005 149.29700000000003,66.51800000000003 L146.89099999999996,64.56500000000005 L144.46900000000005,66.51800000000003 C144.40599999999995,66.57000000000005 144.34900000000005,66.596 144.29700000000003,66.596 C144.235,66.596 144.17200000000003,66.57000000000005 144.11,66.51800000000003 L143.688,66.20600000000002 C143.625,66.14300000000003 143.59400000000005,66.06500000000005 143.59400000000005,65.971 C143.59400000000005,65.90899999999999 143.625,65.83100000000002 143.688,65.73699999999997 L146.01599999999996,63.846000000000004 L143.688,61.95600000000002 C143.625,61.88300000000004 143.59400000000005,61.80200000000002 143.59400000000005,61.714000000000055 C143.59400000000005,61.625 143.625,61.549999999999955 143.688,61.486999999999966 L144.11,61.174999999999955 C144.17200000000003,61.12199999999996 144.235,61.096000000000004 144.29700000000003,61.096000000000004 C144.34900000000005,61.096000000000004 144.40599999999995,61.12199999999996 144.46900000000005,61.174999999999955 L146.89099999999996,63.12800000000004" />
<path d="M147.985,71.096 C148.61,71.096 149.14099999999996,71.25800000000004 149.57799999999997,71.58100000000002 C149.97400000000005,71.93499999999995 150.17200000000003,72.37800000000004 150.17200000000003,72.90899999999999 C150.17200000000003,73.80499999999995 149.71400000000006,74.64300000000003 148.79700000000003,75.42499999999995 C147.86,76.20600000000002 146.85400000000004,76.596 145.78099999999995,76.596 C145.15599999999995,76.596 144.63,76.43499999999995 144.20299999999997,76.11199999999997 C143.79700000000003,75.75800000000004 143.59400000000005,75.31500000000005 143.59400000000005,74.78399999999999 C143.59400000000005,73.88800000000003 144.063,73.04999999999995 145.0,72.26800000000003 C145.91700000000003,71.48699999999997 146.91200000000003,71.096 147.985,71.096" />
<path d="M147.985,81.096 C148.61,81.096 149.14099999999996,81.25800000000004 149.57799999999997,81.58100000000002 C149.97400000000005,81.93499999999995 150.17200000000003,82.37800000000004 150.17200000000003,82.90899999999999 C150.17200000000003,83.80499999999995 149.71400000000006,84.64300000000003 148.79700000000003,85.42499999999995 C147.86,86.20600000000002 146.85400000000004,86.596 145.78099999999995,86.596 C145.15599999999995,86.596 144.63,86.43499999999995 144.20299999999997,86.11199999999997 C143.79700000000003,85.75800000000004 143.59400000000005,85.31500000000005 143.59400000000005,84.78399999999999 C143.59400000000005,83.88800000000003 144.063,83.04999999999995 145.0,82.26800000000003 C145.91700000000003,81.48699999999997 146.91200000000003,81.096 147.985,81.096" />
<path d="M147.985,23.596000000000004 C148.61,23.596000000000004 149.14099999999996,23.758000000000038 149.57799999999997,24.081000000000017 C149.97400000000005,24.434999999999945 150.17200000000003,24.878000000000043 150.17200000000003,25.408999999999992 C150.17200000000003,26.30499999999995 149.71400000000006,27.14300000000003 148.79700000000003,27.924999999999955 C147.86,28.706000000000017 146.85400000000004,29.096000000000004 145.78099999999995,29.096000000000004 C145.15599999999995,29.096000000000004 144.63,28.934999999999945 144.20299999999997,28.611999999999966 C143.79700000000003,28.258000000000038 143.59400000000005,27.815000000000055 143.59400000000005,27.283999999999992 C143.59400000000005,26.388000000000034 144.063,25.549999999999955 145.0,24.76800000000003 C145.91700000000003,23.986999999999966 146.91200000000003,23.596000000000004 147.985,23.596000000000004" />
<path d="M125.43499999999995,81.346 L123.59100000000001,81.346 C123.44500000000005,81.346 123.37199999999996,81.28399999999999 123.37199999999996,81.15899999999999 L123.37199999999996,71.53399999999999 C123.37199999999996,71.40899999999999 123.44500000000005,71.346 123.59100000000001,71.346 L125.43499999999995,71.346 C125.55999999999995,71.346 125.62199999999996,71.40899999999999 125.62199999999996,71.53399999999999 L125.62199999999996,81.15899999999999 C125.62199999999996,81.28399999999999 125.55999999999995,81.346 125.43499999999995,81.346 M121.01300000000003,81.346 L119.15300000000002,81.346 C119.02800000000002,81.346 118.96600000000001,81.28399999999999 118.96600000000001,81.15899999999999 L118.96600000000001,71.53399999999999 C118.96600000000001,71.40899999999999 119.02800000000002,71.346 119.15300000000002,71.346 L121.01300000000003,71.346 C121.15899999999999,71.346 121.231,71.40899999999999 121.231,71.53399999999999 L121.231,81.15899999999999 C121.231,81.28399999999999 121.15899999999999,81.346 121.01300000000003,81.346" />
<path d="M120.93499999999995,37.40899999999999 C121.27800000000002,37.04399999999998 121.45000000000005,36.70600000000002 121.45000000000005,36.39300000000003 C121.41899999999998,36.101999999999975 121.29899999999998,35.88300000000004 121.09100000000001,35.736999999999966 C120.86199999999997,35.58100000000002 120.59100000000001,35.50300000000004 120.27800000000002,35.50300000000004 C120.04899999999998,35.50300000000004 119.86699999999996,35.57600000000002 119.731,35.721000000000004 C119.596,35.85699999999997 119.52800000000002,36.01800000000003 119.52800000000002,36.20600000000002 C119.52800000000002,36.44500000000005 119.62699999999995,36.62199999999996 119.82500000000005,36.736999999999966 L120.93499999999995,37.40899999999999 M121.24699999999996,37.565000000000055 C121.79899999999998,37.85699999999997 122.07500000000005,38.263000000000034 122.07500000000005,38.78399999999999 C122.07500000000005,38.78399999999999 122.07500000000005,38.80499999999995 122.07500000000005,38.846000000000004 C122.07500000000005,39.24199999999996 121.90899999999999,39.57600000000002 121.57500000000005,39.846000000000004 C121.25199999999995,40.12800000000004 120.79399999999998,40.26800000000003 120.20000000000005,40.26800000000003 C119.70000000000005,40.26800000000003 119.26800000000003,40.138000000000034 118.90300000000002,39.87800000000004 C118.53899999999999,39.638000000000034 118.356,39.309999999999945 118.356,38.89300000000003 C118.356,38.70600000000002 118.40300000000002,38.53899999999999 118.49699999999996,38.39300000000003 C118.601,38.226999999999975 118.68499999999995,38.111999999999966 118.74699999999996,38.049999999999955 C118.74699999999996,38.049999999999955 118.87199999999996,37.924999999999955 119.12199999999996,37.674999999999955 C118.71600000000001,37.403999999999996 118.51300000000003,37.05499999999995 118.51300000000003,36.62800000000004 C118.51300000000003,36.263000000000034 118.66899999999998,35.940000000000055 118.981,35.65899999999999 C119.30399999999997,35.399 119.73699999999997,35.26800000000003 120.27800000000002,35.26800000000003 C120.71600000000001,35.26800000000003 121.09100000000001,35.36699999999996 121.40300000000002,35.565000000000055 C121.71600000000001,35.763000000000034 121.87199999999996,36.03899999999999 121.87199999999996,36.39300000000003 C121.87199999999996,36.726999999999975 121.66399999999999,37.11699999999996 121.24699999999996,37.565000000000055 M119.41899999999998,37.846000000000004 C119.02300000000002,38.190000000000055 118.81500000000005,38.53899999999999 118.79399999999998,38.89300000000003 C118.81500000000005,39.226999999999975 118.95500000000004,39.49699999999996 119.21600000000001,39.70600000000002 C119.50699999999995,39.924999999999955 119.83600000000001,40.03399999999999 120.20000000000005,40.03399999999999 C120.46100000000001,40.03399999999999 120.66899999999998,39.95100000000002 120.82500000000005,39.78399999999999 C120.981,39.62800000000004 121.05999999999995,39.434999999999945 121.05999999999995,39.20600000000002 C121.02800000000002,38.924999999999955 120.90899999999999,38.721000000000004 120.70000000000005,38.596000000000004 L119.41899999999998,37.846000000000004 M127.05200000000002,17.065000000000055 C126.85900000000004,16.866999999999962 126.76300000000003,16.625 126.76300000000003,16.339000000000055 C126.76300000000003,16.05200000000002 126.85900000000004,15.812999999999988 127.05200000000002,15.620000000000005 C127.24400000000003,15.427000000000021 127.48400000000004,15.331000000000017 127.76999999999998,15.331000000000017 C128.05700000000002,15.331000000000017 128.29899999999998,15.427000000000021 128.49699999999996,15.620000000000005 C128.69500000000005,15.812999999999988 128.79399999999998,16.05200000000002 128.79399999999998,16.339000000000055 C128.79399999999998,16.625 128.69500000000005,16.866999999999962 128.49699999999996,17.065000000000055 C128.29899999999998,17.263000000000034 128.05700000000002,17.361999999999966 127.76999999999998,17.361999999999966 C127.48400000000004,17.361999999999966 127.24400000000003,17.263000000000034 127.05200000000002,17.065000000000055 M127.05200000000002,22.07299999999998 C126.85900000000004,21.879999999999995 126.76300000000003,21.640999999999963 126.76300000000003,21.354000000000042 C126.76300000000003,21.067999999999984 126.85900000000004,20.826000000000022 127.05200000000002,20.628000000000043 C127.24400000000003,20.42999999999995 127.48400000000004,20.331000000000017 127.76999999999998,20.331000000000017 C128.05700000000002,20.331000000000017 128.29899999999998,20.42999999999995 128.49699999999996,20.628000000000043 C128.69500000000005,20.826000000000022 128.79399999999998,21.067999999999984 128.79399999999998,21.354000000000042 C128.79399999999998,21.640999999999963 128.69500000000005,21.879999999999995 128.49699999999996,22.07299999999998 C128.29899999999998,22.265999999999963 128.05700000000002,22.361999999999966 127.76999999999998,22.361999999999966 C127.48400000000004,22.361999999999966 127.24400000000003,22.265999999999963 127.05200000000002,22.07299999999998 M120.27800000000002,13.596000000000004 C122.00699999999995,13.596000000000004 123.42399999999998,14.028999999999996 124.52800000000002,14.893000000000029 C125.601,15.809999999999945 126.13800000000003,17.049999999999955 126.13800000000003,18.611999999999966 C126.13800000000003,19.663999999999987 125.92899999999997,20.628000000000043 125.51300000000003,21.503000000000043 C125.11699999999996,22.418999999999983 124.601,23.226999999999975 123.96600000000001,23.924999999999955 C123.30999999999995,24.64300000000003 122.52300000000002,25.32000000000005 121.606,25.956000000000017 C120.70000000000005,26.581000000000017 119.77300000000002,27.14300000000003 118.82500000000005,27.64300000000003 C116.89800000000002,28.611999999999966 115.83000000000004,29.096000000000004 115.62199999999996,29.096000000000004 C115.45500000000004,29.096000000000004 115.37199999999996,29.013000000000034 115.37199999999996,28.846000000000004 C115.37199999999996,28.783999999999992 115.39800000000002,28.726999999999975 115.45000000000005,28.674999999999955 C116.11699999999996,28.278999999999996 116.92899999999997,27.778999999999996 117.88800000000003,27.174999999999955 C118.51300000000003,26.76800000000003 119.24199999999996,26.206000000000017 120.07500000000005,25.486999999999966 C120.88800000000003,24.809999999999945 121.51300000000003,24.174999999999955 121.95000000000005,23.581000000000017 C122.40899999999999,22.986999999999966 122.82500000000005,22.258000000000038 123.20000000000005,21.39300000000003 C123.52300000000002,20.51800000000003 123.68499999999995,19.653999999999996 123.68499999999995,18.799999999999955 C123.68499999999995,17.538999999999987 123.37199999999996,16.440000000000055 122.74699999999996,15.503000000000043 C122.12199999999996,14.565000000000055 121.29899999999998,14.096000000000004 120.27800000000002,14.096000000000004 C119.54899999999998,14.096000000000004 118.92399999999998,14.331000000000017 118.40300000000002,14.799999999999955 C117.84100000000001,15.278999999999996 117.43499999999995,15.883000000000038 117.18499999999995,16.611999999999966 C117.43499999999995,16.508000000000038 117.66399999999999,16.456000000000017 117.87199999999996,16.456000000000017 C118.41399999999999,16.456000000000017 118.88199999999995,16.653999999999996 119.27800000000002,17.049999999999955 C119.66399999999999,17.466000000000008 119.856,17.940000000000055 119.856,18.471000000000004 C119.856,19.033999999999992 119.66899999999998,19.538999999999987 119.29399999999998,19.986999999999966 C118.88800000000003,20.383000000000038 118.41399999999999,20.581000000000017 117.87199999999996,20.581000000000017 C117.28899999999999,20.581000000000017 116.76300000000003,20.383000000000038 116.29399999999998,19.986999999999966 C115.846,19.538999999999987 115.62199999999996,19.033999999999992 115.62199999999996,18.471000000000004 C115.62199999999996,17.128000000000043 116.08000000000004,15.981999999999971 116.99699999999996,15.033999999999992 C117.89300000000003,14.076000000000022 118.98699999999997,13.596000000000004 120.27800000000002,13.596000000000004" />
<path d="M203.25699999999995,8.791000000000054 L247.563,12.596000000000004 L247.563,15.096000000000004 L203.25699999999995,11.291000000000054 L203.25699999999995,8.791000000000054" />
<path d="M247.563,16.346000000000004 L240.96299999999997,15.779999999999973 L240.96299999999997,18.279999999999973 L247.563,18.846000000000004 L247.563,16.346000000000004" />
<path d="M197.32500000000005,3.8460000000000036 L241.63099999999997,5.115000000000009 L241.63099999999997,7.615000000000009 L197.32500000000005,6.346000000000004 L197.32500000000005,3.8460000000000036" />
<path d="M224.19000000000005,0.8659999999999854 L241.63099999999997,1.365000000000009 L241.63099999999997,3.865000000000009 L224.19000000000005,3.3659999999999854 L224.19000000000005,0.8659999999999854" />
<path d="M143.59400000000005,98.846 L224.84000000000003,91.28599999999994 L224.84000000000003,93.78599999999994 L143.59400000000005,101.346 L143.59400000000005,98.846" />
<path d="M149.52700000000004,11.346000000000004 L177.04200000000003,11.346000000000004 L177.04200000000003,13.846000000000004 L149.52700000000004,13.846000000000004 L149.52700000000004,11.346000000000004" />
<path d="M143.59400000000005,0.09600000000000364 L171.10900000000004,0.09600000000000364 L171.10900000000004,2.5960000000000036 L143.59400000000005,2.5960000000000036 L143.59400000000005,0.09600000000000364" />
<path d="M205.99300000000005,27.150999999999954 C205.769,26.92700000000002 205.65700000000004,26.658999999999992 205.65700000000004,26.346000000000004 C205.65700000000004,26.033999999999992 205.769,25.765999999999963 205.99300000000005,25.54200000000003 C206.21699999999998,25.317999999999984 206.485,25.206000000000017 206.798,25.206000000000017 C207.11,25.206000000000017 207.37599999999998,25.317999999999984 207.59500000000003,25.54200000000003 C207.81399999999996,25.765999999999963 207.923,26.033999999999992 207.923,26.346000000000004 C207.923,26.658999999999992 207.81399999999996,26.92700000000002 207.59500000000003,27.150999999999954 C207.37599999999998,27.375 207.11,27.486999999999966 206.798,27.486999999999966 C206.485,27.486999999999966 206.21699999999998,27.375 205.99300000000005,27.150999999999954" />
<polyline points="0.0,11.346000000000004 54.928999999999974,11.346000000000004" fill="none" stroke="#000000" stroke-width="0.40" />
<polyline points="0.0,16.346000000000004 54.928999999999974,16.346000000000004" fill="none" stroke="#000000" stroke-width="0.40" />
<polyline points="0.0,21.346000000000004 54.928999999999974,21.346000000000004" fill="none" stroke="#000000" stroke-width="0.40" />
<polyline points="0.0,26.346000000000004 54.928999999999974,26.346000000000004" fill="none" stroke="#000000" stroke-width="0.40" />
<polyline points="0.0,31.346000000000004 54.928999999999974,31.346000000000004" fill="none" stroke="#000000" stroke-width="0.40" />
<polyline points="0.0,63.846000000000004 54.928999999999974,63.846000000000004" fill="none" stroke="#000000" stroke-width="0.40" />
<polyline points="0.0,68.846 54.928999999999974,68.846" fill="none" stroke="#000000" stroke-width="0.40" />
<polyline points="0.0,73.846 54.928999999999974,73.846" fill="none" stroke="#000000" stroke-width="0.40" />
<polyline points="0.0,78.846 54.928999999999974,78.846" fill="none" stroke="#000000" stroke-width="0.40" />
<polyline points="0.0,83.846 54.928999999999974,83.846" fill="none" stroke="#000000" stroke-width="0.40" />
<polyline points="0.0,116.346 54.928999999999974,116.346" fill="none" stroke="#000000" stroke-width="0.40" />
<polyline points="0.0,121.346 54.928999999999974,121.346" fill="none" stroke="#000000" stroke-width="0.40" />
<polyline points="0.0,126.346 54.928999999999974,126.346" fill="none" stroke="#000000" stroke-width="0.40" />
<polyline points="0.0,131.346 54.928999999999974,131.346" fill="none" stroke="#000000" stroke-width="0.40" />
<polyline points="0.0,136.346 54.928999999999974,136.346" fill="none" stroke="#000000" stroke-width="0.40" />
<polyline points="54.528999999999996,116.346 54.528999999999996,136.346" fill="" stroke="#000000" stroke-width="0.80" />
<polyline points="54.528999999999996,63.846000000000004 54.528999999999996,83.846" fill="" stroke="#000000" stroke-width="0.80" />
<polyline points="54.528999999999996,11.346000000000004 54.528999999999996,31.346000000000004" fill="" stroke="#000000" stroke-width="0.80" />
<polyline points="35.974000000000046,4.7859999999999445 35.974000000000046,55.096000000000004" fill="" stroke="#000000" stroke-width="0.65" />
<polyline points="9.523000000000025,115.90999999999997 9.523000000000025,151.346" fill="" stroke="#000000" stroke-width="0.65" />
<polyline points="15.855000000000018,77.90700000000004 15.855000000000018,62.596000000000004" fill="" stroke="#000000" stroke-width="0.65" />
<polyline points="9.923000000000002,4.7859999999999445 9.923000000000002,55.096000000000004" fill="" stroke="#000000" stroke-width="0.65" />
<polyline points="34.149,36.346000000000004 43.73199999999997,36.346000000000004" fill="" stroke="#000000" stroke-width="0.80" />
<polyline points="34.149,6.346000000000004 43.73199999999997,6.346000000000004" fill="" stroke="#000000" stroke-width="0.80" />
<polyline points="8.097999999999956,36.346000000000004 17.67999999999995,36.346000000000004" fill="" stroke="#000000" stroke-width="0.80" />
<polyline points="8.097999999999956,6.346000000000004 17.67999999999995,6.346000000000004" fill="" stroke="#000000" stroke-width="0.80" />
<polyline points="111.62199999999996,13.846000000000004 255.0,13.846000000000004" fill="none" stroke="#000000" stroke-width="0.40" />
<polyline points="111.62199999999996,18.846000000000004 255.0,18.846000000000004" fill="none" stroke="#000000" stroke-width="0.40" />
<polyline points="111.62199999999996,23.846000000000004 255.0,23.846000000000004" fill="none" stroke="#000000" stroke-width="0.40" />
<polyline points="111.62199999999996,28.846000000000004 255.0,28.846000000000004" fill="none" stroke="#000000" stroke-width="0.40" />
<polyline points="111.62199999999996,33.846000000000004 255.0,33.846000000000004" fill="none" stroke="#000000" stroke-width="0.40" />
<polyline points="111.62199999999996,66.346 255.0,66.346" fill="none" stroke="#000000" stroke-width="0.40" />
<polyline points="111.62199999999996,71.346 255.0,71.346" fill="none" stroke="#000000" stroke-width="0.40" />
<polyline points="111.62199999999996,76.346 255.0,76.346" fill="none" stroke="#000000" stroke-width="0.40" />
<polyline points="111.62199999999996,81.346 255.0,81.346" fill="none" stroke="#000000" stroke-width="0.40" />
<polyline points="111.62199999999996,86.346 255.0,86.346" fill="none" stroke="#000000" stroke-width="0.40" />
<polyline points="112.02200000000005,0.0 112.02200000000005,86.346" fill="" stroke="#000000" stroke-width="0.80" />
<polyline points="247.23800000000006,32.90700000000004 247.23800000000006,13.846000000000004" fill="" stroke="#000000" stroke-width="0.65" />
<polyline points="241.30600000000004,0.0 241.30600000000004,6.346000000000004" fill="" stroke="#000000" stroke-width="0.65" />
<polyline points="224.515,65.90999999999997 224.515,92.596" fill="" stroke="#000000" stroke-width="0.65" />
<polyline points="224.515,0.0 224.515,5.8659999999999854" fill="" stroke="#000000" stroke-width="0.65" />
<polyline points="197.64999999999998,65.90999999999997 197.64999999999998,95.096" fill="" stroke="#000000" stroke-width="0.65" />
<polyline points="203.582,25.40700000000004 203.582,10.096000000000004" fill="" stroke="#000000" stroke-width="0.65" />
<polyline points="197.64999999999998,0.0 197.64999999999998,5.096000000000004" fill="" stroke="#000000" stroke-width="0.65" />
<polyline points="170.784,65.90999999999997 170.784,97.596" fill="" stroke="#000000" stroke-width="0.65" />
<polyline points="176.71699999999998,25.40700000000004 176.71699999999998,12.596000000000004" fill="" stroke="#000000" stroke-width="0.65" />
<polyline points="170.784,0.0 170.784,1.3460000000000036" fill="" stroke="#000000" stroke-width="0.65" />
<polyline points="143.91899999999998,65.90999999999997 143.91899999999998,100.096" fill="" stroke="#000000" stroke-width="0.65" />
<polyline points="149.85199999999998,25.40700000000004 149.85199999999998,12.596000000000004" fill="" stroke="#000000" stroke-width="0.65" />
<polyline points="143.91899999999998,0.0 143.91899999999998,1.3460000000000036" fill="" stroke="#000000" stroke-width="0.65" />
</svg>
