<?xml version="1.0" encoding="UTF-8" standalone="yes"?>
<svg width="256.0px" height="256.0px" xmlns="http://www.w3.org/2000/svg" xmlns:xlink="http://www.w3.org/1999/xlink" version="1.2" baseProfile="tiny">
<path d="M94.29999999999927,26.871999999999957 C98.20000000000073,23.509000000000015 109.89999999999964,23.509000000000015 113.79999999999927,26.871999999999957 C109.89999999999964,24.30899999999997 98.20000000000073,24.30899999999997 94.29999999999927,26.871999999999957" />
<path d="M124.29999999999927,10.518000000000029 L124.29999999999927,12.065000000000055 C124.29999999999927,12.616999999999962 124.39999999999964,13.05499999999995 124.39999999999964,13.378000000000043 C124.79999999999927,13.013000000000034 125.10000000000036,12.741999999999962 125.29999999999927,12.565000000000055 C125.5,12.356999999999971 125.79999999999927,12.067999999999984 126.0,11.697999999999979 C126.20000000000073,11.327999999999975 126.29999999999927,10.961000000000013 126.29999999999927,10.596000000000004 C126.29999999999927,10.231999999999971 126.20000000000073,9.918999999999983 126.0,9.658999999999992 C125.89999999999964,9.399000000000001 125.70000000000073,9.268000000000029 125.39999999999964,9.268000000000029 C125.10000000000036,9.268000000000029 124.79999999999927,9.388000000000034 124.60000000000036,9.628000000000043 C124.39999999999964,9.888000000000034 124.29999999999927,10.184999999999945 124.29999999999927,10.518000000000029 M123.5,14.096000000000004 L123.29999999999927,2.2060000000000173 C123.39999999999964,2.1019999999999754 123.60000000000036,2.0499999999999545 123.79999999999927,2.0499999999999545 C124.0,2.0499999999999545 124.20000000000073,2.1019999999999754 124.39999999999964,2.2060000000000173 L124.20000000000073,9.096000000000004 C124.70000000000073,8.638000000000034 125.29999999999927,8.408999999999992 126.0,8.408999999999992 C126.5,8.408999999999992 127.0,8.616999999999962 127.29999999999927,9.033999999999992 C127.60000000000036,9.451000000000022 127.79999999999927,9.92999999999995 127.79999999999927,10.471000000000004 C127.79999999999927,10.80499999999995 127.70000000000073,11.163999999999987 127.5,11.549999999999955 C127.29999999999927,11.893000000000029 127.10000000000036,12.163999999999987 126.79999999999927,12.361999999999966 C126.70000000000073,12.466000000000008 126.39999999999964,12.726999999999975 125.79999999999927,13.143000000000029 C125.70000000000073,13.258000000000038 125.5,13.393000000000029 125.29999999999927,13.549999999999955 C125.10000000000036,13.706000000000017 124.89999999999964,13.80499999999995 124.89999999999964,13.846000000000004 C124.79999999999927,13.899000000000001 124.70000000000073,14.003000000000043 124.60000000000036,14.158999999999992 C124.5,14.293999999999983 124.39999999999964,14.403999999999996 124.29999999999927,14.486999999999966 C124.20000000000073,14.57000000000005 124.10000000000036,14.611999999999966 124.0,14.611999999999966 C123.79999999999927,14.611999999999966 123.70000000000073,14.565000000000055 123.60000000000036,14.471000000000004 C123.60000000000036,14.378000000000043 123.5,14.253000000000043 123.5,14.096000000000004" />
<path d="M56.399999999999636,28.01800000000003 L56.399999999999636,29.565000000000055 C56.399999999999636,30.116999999999962 56.399999999999636,30.55499999999995 56.5,30.878000000000043 C56.899999999999636,30.513000000000034 57.20000000000073,30.241999999999962 57.399999999999636,30.065000000000055 C57.600000000000364,29.85699999999997 57.79999999999927,29.567999999999984 58.0,29.19799999999998 C58.20000000000073,28.827999999999975 58.29999999999927,28.461000000000013 58.29999999999927,28.096000000000004 C58.29999999999927,27.73199999999997 58.29999999999927,27.418999999999983 58.100000000000364,27.158999999999992 C58.0,26.899 57.79999999999927,26.76800000000003 57.5,26.76800000000003 C57.20000000000073,26.76800000000003 56.899999999999636,26.888000000000034 56.70000000000073,27.128000000000043 C56.5,27.388000000000034 56.399999999999636,27.684999999999945 56.399999999999636,28.01800000000003 M55.600000000000364,31.596000000000004 L55.29999999999927,19.706000000000017 C55.5,19.601999999999975 55.70000000000073,19.549999999999955 55.899999999999636,19.549999999999955 C56.100000000000364,19.549999999999955 56.29999999999927,19.601999999999975 56.399999999999636,19.706000000000017 L56.29999999999927,26.596000000000004 C56.79999999999927,26.138000000000034 57.399999999999636,25.908999999999992 58.100000000000364,25.908999999999992 C58.600000000000364,25.908999999999992 59.0,26.116999999999962 59.399999999999636,26.533999999999992 C59.70000000000073,26.951000000000022 59.899999999999636,27.42999999999995 59.899999999999636,27.971000000000004 C59.899999999999636,28.30499999999995 59.79999999999927,28.663999999999987 59.600000000000364,29.049999999999955 C59.29999999999927,29.39300000000003 59.100000000000364,29.663999999999987 58.899999999999636,29.861999999999966 C58.79999999999927,29.966000000000008 58.399999999999636,30.226999999999975 57.899999999999636,30.64300000000003 C57.70000000000073,30.758000000000038 57.600000000000364,30.89300000000003 57.29999999999927,31.049999999999955 C57.100000000000364,31.206000000000017 57.0,31.30499999999995 56.899999999999636,31.346000000000004 C56.79999999999927,31.399 56.79999999999927,31.503000000000043 56.70000000000073,31.658999999999992 C56.600000000000364,31.793999999999983 56.5,31.903999999999996 56.399999999999636,31.986999999999966 C56.29999999999927,32.07000000000005 56.20000000000073,32.111999999999966 56.0,32.111999999999966 C55.899999999999636,32.111999999999966 55.79999999999927,32.065000000000055 55.70000000000073,31.971000000000004 C55.600000000000364,31.878000000000043 55.600000000000364,31.753000000000043 55.600000000000364,31.596000000000004" />
<path d="M42.600000000000364,40.08100000000002 C42.600000000000364,40.33100000000002 42.399999999999636,40.45600000000002 42.20000000000073,40.45600000000002 C41.899999999999636,40.45600000000002 41.79999999999927,40.33100000000002 41.79999999999927,40.08100000000002 L41.79999999999927,37.190000000000055 L40.20000000000073,37.815000000000055 L40.20000000000073,40.971000000000004 C40.20000000000073,41.221000000000004 40.0,41.346000000000004 39.79999999999927,41.346000000000004 C39.5,41.346000000000004 39.399999999999636,41.221000000000004 39.399999999999636,40.971000000000004 L39.399999999999636,38.065000000000055 L38.79999999999927,38.299999999999955 C38.79999999999927,38.309999999999945 38.70000000000073,38.315000000000055 38.600000000000364,38.315000000000055 C38.5,38.315000000000055 38.399999999999636,38.275999999999954 38.399999999999636,38.19799999999998 C38.29999999999927,38.120000000000005 38.20000000000073,38.028999999999996 38.20000000000073,37.924999999999955 L38.20000000000073,36.721000000000004 C38.20000000000073,36.524 38.29999999999927,36.399 38.5,36.346000000000004 L39.399999999999636,36.03399999999999 L39.399999999999636,32.83100000000002 L38.79999999999927,33.049999999999955 C38.79999999999927,33.059999999999945 38.70000000000073,33.065000000000055 38.600000000000364,33.065000000000055 C38.5,33.065000000000055 38.399999999999636,33.025999999999954 38.399999999999636,32.94799999999998 C38.29999999999927,32.870000000000005 38.20000000000073,32.778999999999996 38.20000000000073,32.674999999999955 L38.20000000000073,31.456000000000017 C38.20000000000073,31.278999999999996 38.29999999999927,31.163999999999987 38.5,31.111999999999966 L39.399999999999636,30.753000000000043 L39.399999999999636,27.611999999999966 C39.399999999999636,27.361999999999966 39.5,27.236999999999966 39.79999999999927,27.236999999999966 C40.0,27.236999999999966 40.20000000000073,27.361999999999966 40.20000000000073,27.611999999999966 L40.20000000000073,30.503000000000043 L41.79999999999927,29.878000000000043 L41.79999999999927,26.721000000000004 C41.79999999999927,26.471000000000004 41.899999999999636,26.346000000000004 42.20000000000073,26.346000000000004 C42.399999999999636,26.346000000000004 42.600000000000364,26.471000000000004 42.600000000000364,26.721000000000004 L42.600000000000364,29.628000000000043 L43.20000000000073,29.39300000000003 C43.20000000000073,29.383000000000038 43.29999999999927,29.378000000000043 43.29999999999927,29.378000000000043 C43.399999999999636,29.378000000000043 43.5,29.413999999999987 43.600000000000364,29.486999999999966 C43.70000000000073,29.57000000000005 43.79999999999927,29.663999999999987 43.79999999999927,29.76800000000003 L43.79999999999927,30.971000000000004 C43.79999999999927,31.158999999999992 43.70000000000073,31.283999999999992 43.5,31.346000000000004 L42.600000000000364,31.658999999999992 L42.600000000000364,34.861999999999966 L43.20000000000073,34.64300000000003 C43.20000000000073,34.63300000000004 43.29999999999927,34.62800000000004 43.29999999999927,34.62800000000004 C43.399999999999636,34.62800000000004 43.5,34.66899999999998 43.600000000000364,34.75300000000004 C43.70000000000073,34.82600000000002 43.79999999999927,34.91399999999999 43.79999999999927,35.01800000000003 L43.79999999999927,36.236999999999966 C43.79999999999927,36.403999999999996 43.70000000000073,36.51800000000003 43.5,36.58100000000002 L42.600000000000364,36.940000000000055 L42.600000000000364,40.08100000000002 M41.79999999999927,31.956000000000017 L40.20000000000073,32.53399999999999 L40.20000000000073,35.736999999999966 L41.79999999999927,35.15899999999999 L41.79999999999927,31.956000000000017" />
<path d="M148.39999999999964,63.12800000000004 L150.79999999999927,61.174999999999955 C150.89999999999964,61.12199999999996 150.89999999999964,61.096000000000004 151.0,61.096000000000004 C151.10000000000036,61.096000000000004 151.10000000000036,61.12199999999996 151.20000000000073,61.174999999999955 L151.60000000000036,61.486999999999966 C151.70000000000073,61.549999999999955 151.70000000000073,61.62800000000004 151.70000000000073,61.721000000000004 C151.70000000000073,61.78399999999999 151.70000000000073,61.861999999999966 151.60000000000036,61.95600000000002 L149.29999999999927,63.846000000000004 L151.60000000000036,65.73699999999997 C151.70000000000073,65.80999999999995 151.70000000000073,65.89099999999996 151.70000000000073,65.97900000000004 C151.70000000000073,66.06799999999998 151.70000000000073,66.14300000000003 151.60000000000036,66.20600000000002 L151.20000000000073,66.51800000000003 C151.10000000000036,66.57000000000005 151.10000000000036,66.596 151.0,66.596 C150.89999999999964,66.596 150.89999999999964,66.57000000000005 150.79999999999927,66.51800000000003 L148.39999999999964,64.56500000000005 L146.0,66.51800000000003 C145.89999999999964,66.57000000000005 145.89999999999964,66.596 145.79999999999927,66.596 C145.79999999999927,66.596 145.70000000000073,66.57000000000005 145.60000000000036,66.51800000000003 L145.20000000000073,66.20600000000002 C145.20000000000073,66.14300000000003 145.10000000000036,66.06500000000005 145.10000000000036,65.971 C145.10000000000036,65.90899999999999 145.20000000000073,65.83100000000002 145.20000000000073,65.73699999999997 L147.5,63.846000000000004 L145.20000000000073,61.95600000000002 C145.20000000000073,61.88300000000004 145.10000000000036,61.80200000000002 145.10000000000036,61.714000000000055 C145.10000000000036,61.625 145.20000000000073,61.549999999999955 145.20000000000073,61.486999999999966 L145.60000000000036,61.174999999999955 C145.70000000000073,61.12199999999996 145.79999999999927,61.096000000000004 145.79999999999927,61.096000000000004 C145.89999999999964,61.096000000000004 145.89999999999964,61.12199999999996 146.0,61.174999999999955 L148.39999999999964,63.12800000000004" />
<path d="M149.5,81.096 C150.10000000000036,81.096 150.70000000000073,81.25800000000004 151.10000000000036,81.58100000000002 C151.5,81.93499999999995 151.70000000000073,82.37800000000004 151.70000000000073,82.90899999999999 C151.70000000000073,83.80499999999995 151.20000000000073,84.64300000000003 150.29999999999927,85.42499999999995 C149.39999999999964,86.20600000000002 148.39999999999964,86.596 147.29999999999927,86.596 C146.70000000000073,86.596 146.20000000000073,86.43499999999995 145.70000000000073,86.11199999999997 C145.29999999999927,85.75800000000004 145.10000000000036,85.31500000000005 145.10000000000036,84.78399999999999 C145.10000000000036,83.88800000000003 145.60000000000036,83.04999999999995 146.5,82.26800000000003 C147.39999999999964,81.48699999999997 148.39999999999964,81.096 149.5,81.096" />
<path d="M149.5,26.096000000000004 C150.10000000000036,26.096000000000004 150.70000000000073,26.258000000000038 151.10000000000036,26.581000000000017 C151.5,26.934999999999945 151.70000000000073,27.378000000000043 151.70000000000073,27.908999999999992 C151.70000000000073,28.80499999999995 151.20000000000073,29.64300000000003 150.29999999999927,30.424999999999955 C149.39999999999964,31.206000000000017 148.39999999999964,31.596000000000004 147.29999999999927,31.596000000000004 C146.70000000000073,31.596000000000004 146.20000000000073,31.434999999999945 145.70000000000073,31.111999999999966 C145.29999999999927,30.758000000000038 145.10000000000036,30.315000000000055 145.10000000000036,29.783999999999992 C145.10000000000036,28.888000000000034 145.60000000000036,28.049999999999955 146.5,27.26800000000003 C147.39999999999964,26.486999999999966 148.39999999999964,26.096000000000004 149.5,26.096000000000004" />
<path d="M133.29999999999927,8.596000000000004 C134.0,8.596000000000004 134.5,8.758000000000038 134.89999999999964,9.081000000000017 C135.29999999999927,9.434999999999945 135.5,9.878000000000043 135.5,10.408999999999992 C135.5,11.30499999999995 135.10000000000036,12.143000000000029 134.20000000000073,12.924999999999955 C133.20000000000073,13.706000000000017 132.20000000000073,14.096000000000004 131.10000000000036,14.096000000000004 C130.5,14.096000000000004 130.0,13.934999999999945 129.60000000000036,13.611999999999966 C129.20000000000073,13.258000000000038 128.89999999999964,12.815000000000055 128.89999999999964,12.283999999999992 C128.89999999999964,11.388000000000034 129.39999999999964,10.549999999999955 130.39999999999964,9.768000000000029 C131.29999999999927,8.986999999999966 132.29999999999927,8.596000000000004 133.29999999999927,8.596000000000004" />
<path d="M116.10000000000036,63.12800000000004 L118.5,61.174999999999955 C118.5,61.12199999999996 118.60000000000036,61.096000000000004 118.70000000000073,61.096000000000004 C118.70000000000073,61.096000000000004 118.79999999999927,61.12199999999996 118.89999999999964,61.174999999999955 L119.29999999999927,61.486999999999966 C119.29999999999927,61.549999999999955 119.39999999999964,61.62800000000004 119.39999999999964,61.721000000000004 C119.39999999999964,61.78399999999999 119.29999999999927,61.861999999999966 119.29999999999927,61.95600000000002 L116.89999999999964,63.846000000000004 L119.29999999999927,65.73699999999997 C119.29999999999927,65.80999999999995 119.39999999999964,65.89099999999996 119.39999999999964,65.97900000000004 C119.39999999999964,66.06799999999998 119.29999999999927,66.14300000000003 119.29999999999927,66.20600000000002 L118.89999999999964,66.51800000000003 C118.79999999999927,66.57000000000005 118.70000000000073,66.596 118.70000000000073,66.596 C118.60000000000036,66.596 118.5,66.57000000000005 118.5,66.51800000000003 L116.10000000000036,64.56500000000005 L113.70000000000073,66.51800000000003 C113.60000000000036,66.57000000000005 113.5,66.596 113.5,66.596 C113.39999999999964,66.596 113.39999999999964,66.57000000000005 113.29999999999927,66.51800000000003 L112.89999999999964,66.20600000000002 C112.79999999999927,66.14300000000003 112.79999999999927,66.06500000000005 112.79999999999927,65.971 C112.79999999999927,65.90899999999999 112.79999999999927,65.83100000000002 112.89999999999964,65.73699999999997 L115.20000000000073,63.846000000000004 L112.89999999999964,61.95600000000002 C112.79999999999927,61.88300000000004 112.79999999999927,61.80200000000002 112.79999999999927,61.714000000000055 C112.79999999999927,61.625 112.79999999999927,61.549999999999955 112.89999999999964,61.486999999999966 L113.29999999999927,61.174999999999955 C113.39999999999964,61.12199999999996 113.39999999999964,61.096000000000004 113.5,61.096000000000004 C113.5,61.096000000000004 113.60000000000036,61.12199999999996 113.70000000000073,61.174999999999955 L116.10000000000036,63.12800000000004" />
<path d="M117.20000000000073,71.096 C117.79999999999927,71.096 118.29999999999927,71.25800000000004 118.79999999999927,71.58100000000002 C119.20000000000073,71.93499999999995 119.39999999999964,72.37800000000004 119.39999999999964,72.90899999999999 C119.39999999999964,73.80499999999995 118.89999999999964,74.64300000000003 118.0,75.42499999999995 C117.0,76.20600000000002 116.0,76.596 115.0,76.596 C114.29999999999927,76.596 113.79999999999927,76.43499999999995 113.39999999999964,76.11199999999997 C113.0,75.75800000000004 112.79999999999927,75.31500000000005 112.79999999999927,74.78399999999999 C112.79999999999927,73.88800000000003 113.20000000000073,73.04999999999995 114.20000000000073,72.26800000000003 C115.10000000000036,71.48699999999997 116.10000000000036,71.096 117.20000000000073,71.096" />
<path d="M117.20000000000073,26.096000000000004 C117.79999999999927,26.096000000000004 118.29999999999927,26.258000000000038 118.79999999999927,26.581000000000017 C119.20000000000073,26.934999999999945 119.39999999999964,27.378000000000043 119.39999999999964,27.908999999999992 C119.39999999999964,28.80499999999995 118.89999999999964,29.64300000000003 118.0,30.424999999999955 C117.0,31.206000000000017 116.0,31.596000000000004 115.0,31.596000000000004 C114.29999999999927,31.596000000000004 113.79999999999927,31.434999999999945 113.39999999999964,31.111999999999966 C113.0,30.758000000000038 112.79999999999927,30.315000000000055 112.79999999999927,29.783999999999992 C112.79999999999927,28.888000000000034 113.20000000000073,28.049999999999955 114.20000000000073,27.26800000000003 C115.10000000000036,26.486999999999966 116.10000000000036,26.096000000000004 117.20000000000073,26.096000000000004" />
<path d="M90.20000000000073,63.12800000000004 L92.60000000000036,61.174999999999955 C92.70000000000073,61.12199999999996 92.70000000000073,61.096000000000004 92.79999999999927,61.096000000000004 C92.79999999999927,61.096000000000004 92.89999999999964,61.12199999999996 93.0,61.174999999999955 L93.39999999999964,61.486999999999966 C93.39999999999964,61.549999999999955 93.5,61.62800000000004 93.5,61.721000000000004 C93.5,61.78399999999999 93.39999999999964,61.861999999999966 93.39999999999964,61.95600000000002 L91.10000000000036,63.846000000000004 L93.39999999999964,65.73699999999997 C93.39999999999964,65.80999999999995 93.5,65.89099999999996 93.5,65.97900000000004 C93.5,66.06799999999998 93.39999999999964,66.14300000000003 93.39999999999964,66.20600000000002 L93.0,66.51800000000003 C92.89999999999964,66.57000000000005 92.79999999999927,66.596 92.79999999999927,66.596 C92.70000000000073,66.596 92.70000000000073,66.57000000000005 92.60000000000036,66.51800000000003 L90.20000000000073,64.56500000000005 L87.79999999999927,66.51800000000003 C87.70000000000073,66.57000000000005 87.70000000000073,66.596 87.60000000000036,66.596 C87.5,66.596 87.5,66.57000000000005 87.39999999999964,66.51800000000003 L87.0,66.20600000000002 C86.89999999999964,66.14300000000003 86.89999999999964,66.06500000000005 86.89999999999964,65.971 C86.89999999999964,65.90899999999999 86.89999999999964,65.83100000000002 87.0,65.73699999999997 L89.29999999999927,63.846000000000004 L87.0,61.95600000000002 C86.89999999999964,61.88300000000004 86.89999999999964,61.80200000000002 86.89999999999964,61.714000000000055 C86.89999999999964,61.625 86.89999999999964,61.549999999999955 87.0,61.486999999999966 L87.39999999999964,61.174999999999955 C87.5,61.12199999999996 87.5,61.096000000000004 87.60000000000036,61.096000000000004 C87.70000000000073,61.096000000000004 87.70000000000073,61.12199999999996 87.79999999999927,61.174999999999955 L90.20000000000073,63.12800000000004" />
<path d="M91.29999999999927,81.096 C91.89999999999964,81.096 92.39999999999964,81.25800000000004 92.89999999999964,81.58100000000002 C93.29999999999927,81.93499999999995 93.5,82.37800000000004 93.5,82.90899999999999 C93.5,83.80499999999995 93.0,84.64300000000003 92.10000000000036,85.42499999999995 C91.20000000000073,86.20600000000002 90.20000000000073,86.596 89.10000000000036,86.596 C88.5,86.596 87.89999999999964,86.43499999999995 87.5,86.11199999999997 C87.10000000000036,85.75800000000004 86.89999999999964,85.31500000000005 86.89999999999964,84.78399999999999 C86.89999999999964,83.88800000000003 87.39999999999964,83.04999999999995 88.29999999999927,82.26800000000003 C89.20000000000073,81.48699999999997 90.20000000000073,81.096 91.29999999999927,81.096" />
<path d="M91.29999999999927,26.096000000000004 C91.89999999999964,26.096000000000004 92.39999999999964,26.258000000000038 92.89999999999964,26.581000000000017 C93.29999999999927,26.934999999999945 93.5,27.378000000000043 93.5,27.908999999999992 C93.5,28.80499999999995 93.0,29.64300000000003 92.10000000000036,30.424999999999955 C91.20000000000073,31.206000000000017 90.20000000000073,31.596000000000004 89.10000000000036,31.596000000000004 C88.5,31.596000000000004 87.89999999999964,31.434999999999945 87.5,31.111999999999966 C87.10000000000036,30.758000000000038 86.89999999999964,30.315000000000055 86.89999999999964,29.783999999999992 C86.89999999999964,28.888000000000034 87.39999999999964,28.049999999999955 88.29999999999927,27.26800000000003 C89.20000000000073,26.486999999999966 90.20000000000073,26.096000000000004 91.29999999999927,26.096000000000004" />
<path d="M64.29999999999927,63.12800000000004 L66.70000000000073,61.174999999999955 C66.79999999999927,61.12199999999996 66.79999999999927,61.096000000000004 66.89999999999964,61.096000000000004 C67.0,61.096000000000004 67.0,61.12199999999996 67.10000000000036,61.174999999999955 L67.5,61.486999999999966 C67.60000000000036,61.549999999999955 67.60000000000036,61.62800000000004 67.60000000000036,61.721000000000004 C67.60000000000036,61.78399999999999 67.60000000000036,61.861999999999966 67.5,61.95600000000002 L65.20000000000073,63.846000000000004 L67.5,65.73699999999997 C67.60000000000036,65.80999999999995 67.60000000000036,65.89099999999996 67.60000000000036,65.97900000000004 C67.60000000000036,66.06799999999998 67.60000000000036,66.14300000000003 67.5,66.20600000000002 L67.10000000000036,66.51800000000003 C67.0,66.57000000000005 67.0,66.596 66.89999999999964,66.596 C66.79999999999927,66.596 66.79999999999927,66.57000000000005 66.70000000000073,66.51800000000003 L64.29999999999927,64.56500000000005 L61.899999999999636,66.51800000000003 C61.79999999999927,66.57000000000005 61.79999999999927,66.596 61.70000000000073,66.596 C61.70000000000073,66.596 61.600000000000364,66.57000000000005 61.5,66.51800000000003 L61.100000000000364,66.20600000000002 C61.100000000000364,66.14300000000003 61.0,66.06500000000005 61.0,65.971 C61.0,65.90899999999999 61.100000000000364,65.83100000000002 61.100000000000364,65.73699999999997 L63.399999999999636,63.846000000000004 L61.100000000000364,61.95600000000002 C61.100000000000364,61.88300000000004 61.0,61.80200000000002 61.0,61.714000000000055 C61.0,61.625 61.100000000000364,61.549999999999955 61.100000000000364,61.486999999999966 L61.5,61.174999999999955 C61.600000000000364,61.12199999999996 61.70000000000073,61.096000000000004 61.70000000000073,61.096000000000004 C61.79999999999927,61.096000000000004 61.79999999999927,61.12199999999996 61.899999999999636,61.174999999999955 L64.29999999999927,63.12800000000004" />
<path d="M65.39999999999964,71.096 C66.0,71.096 66.60000000000036,71.25800000000004 67.0,71.58100000000002 C67.39999999999964,71.93499999999995 67.60000000000036,72.37800000000004 67.60000000000036,72.90899999999999 C67.60000000000036,73.80499999999995 67.10000000000036,74.64300000000003 66.20000000000073,75.42499999999995 C65.29999999999927,76.20600000000002 64.29999999999927,76.596 63.20000000000073,76.596 C62.600000000000364,76.596 62.100000000000364,76.43499999999995 61.600000000000364,76.11199999999997 C61.20000000000073,75.75800000000004 61.0,75.31500000000005 61.0,74.78399999999999 C61.0,73.88800000000003 61.5,73.04999999999995 62.399999999999636,72.26800000000003 C63.29999999999927,71.48699999999997 64.29999999999927,71.096 65.39999999999964,71.096" />
<path d="M65.39999999999964,81.096 C66.0,81.096 66.60000000000036,81.25800000000004 67.0,81.58100000000002 C67.39999999999964,81.93499999999995 67.60000000000036,82.37800000000004 67.60000000000036,82.90899999999999 C67.60000000000036,83.80499999999995 67.10000000000036,84.64300000000003 66.20000000000073,85.42499999999995 C65.29999999999927,86.20600000000002 64.29999999999927,86.596 63.20000000000073,86.596 C62.600000000000364,86.596 62.100000000000364,86.43499999999995 61.600000000000364,86.11199999999997 C61.20000000000073,85.75800000000004 61.0,85.31500000000005 61.0,84.78399999999999 C61.0,83.88800000000003 61.5,83.04999999999995 62.399999999999636,82.26800000000003 C63.29999999999927,81.48699999999997 64.29999999999927,81.096 65.39999999999964,81.096" />
<path d="M65.39999999999964,26.096000000000004 C66.0,26.096000000000004 66.60000000000036,26.258000000000038 67.0,26.581000000000017 C67.39999999999964,26.934999999999945 67.60000000000036,27.378000000000043 67.60000000000036,27.908999999999992 C67.60000000000036,28.80499999999995 67.10000000000036,29.64300000000003 66.20000000000073,30.424999999999955 C65.29999999999927,31.206000000000017 64.29999999999927,31.596000000000004 63.20000000000073,31.596000000000004 C62.600000000000364,31.596000000000004 62.100000000000364,31.434999999999945 61.600000000000364,31.111999999999966 C61.20000000000073,30.758000000000038 61.0,30.315000000000055 61.0,29.783999999999992 C61.0,28.888000000000034 61.5,28.049999999999955 62.399999999999636,27.26800000000003 C63.29999999999927,26.486999999999966 64.29999999999927,26.096000000000004 65.39999999999964,26.096000000000004" />
<path d="M49.20000000000073,31.096000000000004 C49.899999999999636,31.096000000000004 50.399999999999636,31.258000000000038 50.79999999999927,31.581000000000017 C51.20000000000073,31.934999999999945 51.399999999999636,32.37800000000004 51.399999999999636,32.90899999999999 C51.399999999999636,33.80499999999995 51.0,34.64300000000003 50.100000000000364,35.424999999999955 C49.100000000000364,36.20600000000002 48.100000000000364,36.596000000000004 47.0,36.596000000000004 C46.399999999999636,36.596000000000004 45.899999999999636,36.434999999999945 45.5,36.111999999999966 C45.100000000000364,35.75800000000004 44.899999999999636,35.315000000000055 44.899999999999636,34.78399999999999 C44.899999999999636,33.888000000000034 45.29999999999927,33.049999999999955 46.29999999999927,32.26800000000003 C47.20000000000073,31.486999999999966 48.20000000000073,31.096000000000004 49.20000000000073,31.096000000000004" />
<path d="M32.0,63.12800000000004 L34.399999999999636,61.174999999999955 C34.399999999999636,61.12199999999996 34.5,61.096000000000004 34.600000000000364,61.096000000000004 C34.600000000000364,61.096000000000004 34.70000000000073,61.12199999999996 34.79999999999927,61.174999999999955 L35.20000000000073,61.486999999999966 C35.20000000000073,61.549999999999955 35.29999999999927,61.62800000000004 35.29999999999927,61.721000000000004 C35.29999999999927,61.78399999999999 35.20000000000073,61.861999999999966 35.20000000000073,61.95600000000002 L32.79999999999927,63.846000000000004 L35.20000000000073,65.73699999999997 C35.20000000000073,65.80999999999995 35.29999999999927,65.89099999999996 35.29999999999927,65.97900000000004 C35.29999999999927,66.06799999999998 35.20000000000073,66.14300000000003 35.20000000000073,66.20600000000002 L34.79999999999927,66.51800000000003 C34.70000000000073,66.57000000000005 34.600000000000364,66.596 34.600000000000364,66.596 C34.5,66.596 34.399999999999636,66.57000000000005 34.399999999999636,66.51800000000003 L32.0,64.56500000000005 L29.600000000000364,66.51800000000003 C29.5,66.57000000000005 29.399999999999636,66.596 29.399999999999636,66.596 C29.299999999999272,66.596 29.299999999999272,66.57000000000005 29.200000000000728,66.51800000000003 L28.799999999999272,66.20600000000002 C28.700000000000728,66.14300000000003 28.700000000000728,66.06500000000005 28.700000000000728,65.971 C28.700000000000728,65.90899999999999 28.700000000000728,65.83100000000002 28.799999999999272,65.73699999999997 L31.100000000000364,63.846000000000004 L28.799999999999272,61.95600000000002 C28.700000000000728,61.88300000000004 28.700000000000728,61.80200000000002 28.700000000000728,61.714000000000055 C28.700000000000728,61.625 28.700000000000728,61.549999999999955 28.799999999999272,61.486999999999966 L29.200000000000728,61.174999999999955 C29.299999999999272,61.12199999999996 29.299999999999272,61.096000000000004 29.399999999999636,61.096000000000004 C29.399999999999636,61.096000000000004 29.5,61.12199999999996 29.600000000000364,61.174999999999955 L32.0,63.12800000000004" />
<path d="M0.7000000000007276,71.096 C1.2999999999992724,71.096 1.8999999999996362,71.25800000000004 2.2999999999992724,71.58100000000002 C2.7000000000007276,71.93499999999995 2.899999999999636,72.37800000000004 2.899999999999636,72.90899999999999 C2.899999999999636,73.80499999999995 2.5,74.64300000000003 1.5,75.42499999999995 C0.6000000000003638,76.20600000000002 -0.3999999999996362,76.596 -1.5,76.596 C-2.100000000000364,76.596 -2.600000000000364,76.43499999999995 -3.100000000000364,76.11199999999997 C-3.5,75.75800000000004 -3.7000000000007276,75.31500000000005 -3.7000000000007276,74.78399999999999 C-3.7000000000007276,73.88800000000003 -3.2000000000007276,73.04999999999995 -2.2999999999992724,72.26800000000003 C-1.2999999999992724,71.48699999999997 -0.2999999999992724,71.096 0.7000000000007276,71.096" />
<path d="M0.7000000000007276,23.596000000000004 C1.2999999999992724,23.596000000000004 1.8999999999996362,23.758000000000038 2.2999999999992724,24.081000000000017 C2.7000000000007276,24.434999999999945 2.899999999999636,24.878000000000043 2.899999999999636,25.408999999999992 C2.899999999999636,26.30499999999995 2.5,27.14300000000003 1.5,27.924999999999955 C0.6000000000003638,28.706000000000017 -0.3999999999996362,29.096000000000004 -1.5,29.096000000000004 C-2.100000000000364,29.096000000000004 -2.600000000000364,28.934999999999945 -3.100000000000364,28.611999999999966 C-3.5,28.258000000000038 -3.7000000000007276,27.815000000000055 -3.7000000000007276,27.283999999999992 C-3.7000000000007276,26.388000000000034 -3.2000000000007276,25.549999999999955 -2.2999999999992724,24.76800000000003 C-1.2999999999992724,23.986999999999966 -0.2999999999992724,23.596000000000004 0.7000000000007276,23.596000000000004" />
<path d="M112.79999999999927,42.596000000000004 L145.79999999999927,42.596000000000004 L145.79999999999927,45.096000000000004 L112.79999999999927,45.096000000000004 L112.79999999999927,42.596000000000004" />
<path d="M112.79999999999927,38.846000000000004 L129.60000000000036,38.846000000000004 L129.60000000000036,41.346000000000004 L112.79999999999927,41.346000000000004 L112.79999999999927,38.846000000000004" />
<path d="M61.0,96.346 L145.79999999999927,96.346 L145.79999999999927,98.846 L61.0,98.846 L61.0,96.346" />
<path d="M67.0,12.596000000000004 L93.5,12.596000000000004 L93.5,15.096000000000004 L67.0,15.096000000000004 L67.0,12.596000000000004" />
<path d="M2.2999999999992724,8.79600000000005 L51.399999999999636,12.596000000000004 L51.399999999999636,15.096000000000004 L2.2999999999992724,11.29600000000005 L2.2999999999992724,8.79600000000005" />
<path d="M51.399999999999636,16.346000000000004 L44.79999999999927,15.836000000000013 L44.79999999999927,18.336000000000013 L51.399999999999636,18.846000000000004 L51.399999999999636,16.346000000000004" />
<path d="M5.0,27.150999999999954 C4.799999999999272,26.92700000000002 4.700000000000728,26.658999999999992 4.700000000000728,26.346000000000004 C4.700000000000728,26.033999999999992 4.799999999999272,25.765999999999963 5.0,25.54200000000003 C5.200000000000728,25.317999999999984 5.5,25.206000000000017 5.799999999999272,25.206000000000017 C6.100000000000364,25.206000000000017 6.399999999999636,25.317999999999984 6.600000000000364,25.54200000000003 C6.799999999999272,25.765999999999963 6.899999999999636,26.033999999999992 6.899999999999636,26.346000000000004 C6.899999999999636,26.658999999999992 6.799999999999272,26.92700000000002 6.600000000000364,27.150999999999954 C6.399999999999636,27.375 6.100000000000364,27.486999999999966 5.799999999999272,27.486999999999966 C5.5,27.486999999999966 5.200000000000728,27.375 5.0,27.150999999999954" />
<path d="M248.79999999999927,81.346 L246.89999999999964,81.346 C246.79999999999927,81.346 246.70000000000073,81.28399999999999 246.70000000000073,81.15899999999999 L246.70000000000073,71.53399999999999 C246.70000000000073,71.40899999999999 246.79999999999927,71.346 246.89999999999964,71.346 L248.79999999999927,71.346 C248.89999999999964,71.346 249.0,71.40899999999999 249.0,71.53399999999999 L249.0,81.15899999999999 C249.0,81.28399999999999 248.89999999999964,81.346 248.79999999999927,81.346 M244.39999999999964,81.346 L242.5,81.346 C242.39999999999964,81.346 242.29999999999927,81.28399999999999 242.29999999999927,81.15899999999999 L242.29999999999927,71.53399999999999 C242.29999999999927,71.40899999999999 242.39999999999964,71.346 242.5,71.346 L244.39999999999964,71.346 C244.5,71.346 244.60000000000036,71.40899999999999 244.60000000000036,71.53399999999999 L244.60000000000036,81.15899999999999 C244.60000000000036,81.28399999999999 244.5,81.346 244.39999999999964,81.346" />
<path d="M244.29999999999927,37.40899999999999 C244.60000000000036,37.04399999999998 244.79999999999927,36.70600000000002 244.79999999999927,36.39300000000003 C244.79999999999927,36.101999999999975 244.60000000000036,35.88300000000004 244.39999999999964,35.736999999999966 C244.20000000000073,35.58100000000002 243.89999999999964,35.50300000000004 243.60000000000036,35.50300000000004 C243.39999999999964,35.50300000000004 243.20000000000073,35.57600000000002 243.10000000000036,35.721000000000004 C242.89999999999964,35.85699999999997 242.89999999999964,36.01800000000003 242.89999999999964,36.20600000000002 C242.89999999999964,36.44500000000005 243.0,36.62199999999996 243.20000000000073,36.736999999999966 L244.29999999999927,37.40899999999999 M244.60000000000036,37.565000000000055 C245.10000000000036,37.85699999999997 245.39999999999964,38.263000000000034 245.39999999999964,38.78399999999999 C245.39999999999964,38.78399999999999 245.39999999999964,38.80499999999995 245.39999999999964,38.846000000000004 C245.39999999999964,39.24199999999996 245.20000000000073,39.57600000000002 244.89999999999964,39.846000000000004 C244.60000000000036,40.12800000000004 244.10000000000036,40.26800000000003 243.5,40.26800000000003 C243.0,40.26800000000003 242.60000000000036,40.138000000000034 242.20000000000073,39.87800000000004 C241.89999999999964,39.638000000000034 241.70000000000073,39.309999999999945 241.70000000000073,38.89300000000003 C241.70000000000073,38.70600000000002 241.70000000000073,38.53899999999999 241.79999999999927,38.39300000000003 C241.89999999999964,38.226999999999975 242.0,38.111999999999966 242.10000000000036,38.049999999999955 C242.10000000000036,38.049999999999955 242.20000000000073,37.924999999999955 242.5,37.674999999999955 C242.10000000000036,37.403999999999996 241.89999999999964,37.05499999999995 241.89999999999964,36.62800000000004 C241.89999999999964,36.263000000000034 242.0,35.940000000000055 242.29999999999927,35.65899999999999 C242.60000000000036,35.399 243.10000000000036,35.26800000000003 243.60000000000036,35.26800000000003 C244.10000000000036,35.26800000000003 244.39999999999964,35.36699999999996 244.70000000000073,35.565000000000055 C245.10000000000036,35.763000000000034 245.20000000000073,36.03899999999999 245.20000000000073,36.39300000000003 C245.20000000000073,36.726999999999975 245.0,37.11699999999996 244.60000000000036,37.565000000000055 M242.79999999999927,37.846000000000004 C242.39999999999964,38.190000000000055 242.20000000000073,38.53899999999999 242.10000000000036,38.89300000000003 C242.20000000000073,39.226999999999975 242.29999999999927,39.49699999999996 242.60000000000036,39.70600000000002 C242.79999999999927,39.924999999999955 243.20000000000073,40.03399999999999 243.5,40.03399999999999 C243.79999999999927,40.03399999999999 244.0,39.95100000000002 244.20000000000073,39.78399999999999 C244.29999999999927,39.62800000000004 244.39999999999964,39.434999999999945 244.39999999999964,39.20600000000002 C244.39999999999964,38.924999999999955 244.20000000000073,38.721000000000004 244.0,38.596000000000004 L242.79999999999927,37.846000000000004 M250.39999999999964,17.065000000000055 C250.20000000000073,16.866999999999962 250.10000000000036,16.625 250.10000000000036,16.339000000000055 C250.10000000000036,16.05200000000002 250.20000000000073,15.812999999999988 250.39999999999964,15.620000000000005 C250.60000000000036,15.427000000000021 250.79999999999927,15.331000000000017 251.10000000000036,15.331000000000017 C251.39999999999964,15.331000000000017 251.60000000000036,15.427000000000021 251.79999999999927,15.620000000000005 C252.0,15.812999999999988 252.10000000000036,16.05200000000002 252.10000000000036,16.339000000000055 C252.10000000000036,16.625 252.0,16.866999999999962 251.79999999999927,17.065000000000055 C251.60000000000036,17.263000000000034 251.39999999999964,17.361999999999966 251.10000000000036,17.361999999999966 C250.79999999999927,17.361999999999966 250.60000000000036,17.263000000000034 250.39999999999964,17.065000000000055 M250.39999999999964,22.07299999999998 C250.20000000000073,21.879999999999995 250.10000000000036,21.640999999999963 250.10000000000036,21.354000000000042 C250.10000000000036,21.067999999999984 250.20000000000073,20.826000000000022 250.39999999999964,20.628000000000043 C250.60000000000036,20.42999999999995 250.79999999999927,20.331000000000017 251.10000000000036,20.331000000000017 C251.39999999999964,20.331000000000017 251.60000000000036,20.42999999999995 251.79999999999927,20.628000000000043 C252.0,20.826000000000022 252.10000000000036,21.067999999999984 252.10000000000036,21.354000000000042 C252.10000000000036,21.640999999999963 252.0,21.879999999999995 251.79999999999927,22.07299999999998 C251.60000000000036,22.265999999999963 251.39999999999964,22.361999999999966 251.10000000000036,22.361999999999966 C250.79999999999927,22.361999999999966 250.60000000000036,22.265999999999963 250.39999999999964,22.07299999999998 M243.60000000000036,13.596000000000004 C245.29999999999927,13.596000000000004 246.79999999999927,14.028999999999996 247.89999999999964,14.893000000000029 C248.89999999999964,15.809999999999945 249.5,17.049999999999955 249.5,18.611999999999966 C249.5,19.663999999999987 249.29999999999927,20.628000000000043 248.89999999999964,21.503000000000043 C248.5,22.418999999999983 247.89999999999964,23.226999999999975 247.29999999999927,23.924999999999955 C246.60000000000036,24.64300000000003 245.89999999999964,25.32000000000005 244.89999999999964,25.956000000000017 C244.0,26.581000000000017 243.10000000000036,27.14300000000003 242.20000000000073,27.64300000000003 C240.20000000000073,28.611999999999966 239.20000000000073,29.096000000000004 239.0,29.096000000000004 C238.79999999999927,29.096000000000004 238.70000000000073,29.013000000000034 238.70000000000073,28.846000000000004 C238.70000000000073,28.783999999999992 238.70000000000073,28.726999999999975 238.79999999999927,28.674999999999955 C239.5,28.278999999999996 240.29999999999927,27.778999999999996 241.20000000000073,27.174999999999955 C241.89999999999964,26.76800000000003 242.60000000000036,26.206000000000017 243.39999999999964,25.486999999999966 C244.20000000000073,24.809999999999945 244.89999999999964,24.174999999999955 245.29999999999927,23.581000000000017 C245.70000000000073,22.986999999999966 246.20000000000073,22.258000000000038 246.5,21.39300000000003 C246.89999999999964,20.51800000000003 247.0,19.653999999999996 247.0,18.799999999999955 C247.0,17.538999999999987 246.70000000000073,16.440000000000055 246.10000000000036,15.503000000000043 C245.5,14.565000000000055 244.60000000000036,14.096000000000004 243.60000000000036,14.096000000000004 C242.89999999999964,14.096000000000004 242.29999999999927,14.331000000000017 241.70000000000073,14.799999999999955 C241.20000000000073,15.278999999999996 240.79999999999927,15.883000000000038 240.5,16.611999999999966 C240.79999999999927,16.508000000000038 241.0,16.456000000000017 241.20000000000073,16.456000000000017 C241.79999999999927,16.456000000000017 242.20000000000073,16.653999999999996 242.60000000000036,17.049999999999955 C243.0,17.466000000000008 243.20000000000073,17.940000000000055 243.20000000000073,18.471000000000004 C243.20000000000073,19.033999999999992 243.0,19.538999999999987 242.60000000000036,19.986999999999966 C242.20000000000073,20.383000000000038 241.79999999999927,20.581000000000017 241.20000000000073,20.581000000000017 C240.60000000000036,20.581000000000017 240.10000000000036,20.383000000000038 239.60000000000036,19.986999999999966 C239.20000000000073,19.538999999999987 239.0,19.033999999999992 239.0,18.471000000000004 C239.0,17.128000000000043 239.39999999999964,15.981999999999971 240.29999999999927,15.033999999999992 C241.20000000000073,14.076000000000022 242.29999999999927,13.596000000000004 243.60000000000036,13.596000000000004" />
<polyline points="0.0,13.846000000000004 178.29999999999927,13.846000000000004" fill="none" stroke="#000000" stroke-width="0.40" />
<polyline points="0.0,18.846000000000004 178.29999999999927,18.846000000000004" fill="none" stroke="#000000" stroke-width="0.40" />
<polyline points="0.0,23.846000000000004 178.29999999999927,23.846000000000004" fill="none" stroke="#000000" stroke-width="0.40" />
<polyline points="0.0,28.846000000000004 178.29999999999927,28.846000000000004" fill="none" stroke="#000000" stroke-width="0.40" />
<polyline points="0.0,33.846000000000004 178.29999999999927,33.846000000000004" fill="none" stroke="#000000" stroke-width="0.40" />
<polyline points="0.0,66.346 178.29999999999927,66.346" fill="none" stroke="#000000" stroke-width="0.40" />
<polyline points="0.0,71.346 178.29999999999927,71.346" fill="none" stroke="#000000" stroke-width="0.40" />
<polyline points="0.0,76.346 178.29999999999927,76.346" fill="none" stroke="#000000" stroke-width="0.40" />
<polyline points="0.0,81.346 178.29999999999927,81.346" fill="none" stroke="#000000" stroke-width="0.40" />
<polyline points="0.0,86.346 178.29999999999927,86.346" fill="none" stroke="#000000" stroke-width="0.40" />
<polyline points="177.89999999999964,66.346 177.89999999999964,86.346" fill="" stroke="#000000" stroke-width="0.80" />
<polyline points="177.89999999999964,13.846000000000004 177.89999999999964,33.846000000000004" fill="" stroke="#000000" stroke-width="0.80" />
<polyline points="145.39999999999964,65.90999999999997 145.39999999999964,97.596" fill="" stroke="#000000" stroke-width="0.65" />
<polyline points="145.39999999999964,29.785999999999945 145.39999999999964,43.846000000000004" fill="" stroke="#000000" stroke-width="0.65" />
<polyline points="129.29999999999927,12.285999999999945 129.29999999999927,43.846000000000004" fill="" stroke="#000000" stroke-width="0.65" />
<polyline points="113.10000000000036,65.90999999999997 113.10000000000036,97.596" fill="" stroke="#000000" stroke-width="0.65" />
<polyline points="113.10000000000036,29.785999999999945 113.10000000000036,43.846000000000004" fill="" stroke="#000000" stroke-width="0.65" />
<polyline points="87.20000000000073,65.90999999999997 87.20000000000073,97.596" fill="" stroke="#000000" stroke-width="0.65" />
<polyline points="93.20000000000073,27.90700000000004 93.20000000000073,13.846000000000004" fill="" stroke="#000000" stroke-width="0.65" />
<polyline points="61.29999999999927,65.90999999999997 61.29999999999927,97.596" fill="" stroke="#000000" stroke-width="0.65" />
<polyline points="67.29999999999927,27.90700000000004 67.29999999999927,13.846000000000004" fill="" stroke="#000000" stroke-width="0.65" />
<polyline points="51.100000000000364,32.90700000000004 51.100000000000364,13.846000000000004" fill="" stroke="#000000" stroke-width="0.65" />
<polyline points="29.0,65.90999999999997 29.0,92.596" fill="" stroke="#000000" stroke-width="0.65" />
<polyline points="2.600000000000364,25.40700000000004 2.600000000000364,10.096000000000004" fill="" stroke="#000000" stroke-width="0.65" />
<polyline points="235.0,13.846000000000004 255.0,13.846000000000004" fill="none" stroke="#000000" stroke-width="0.40" />
<polyline points="235.0,18.846000000000004 255.0,18.846000000000004" fill="none" stroke="#000000" stroke-width="0.40" />
<polyline points="235.0,23.846000000000004 255.0,23.846000000000004" fill="none" stroke="#000000" stroke-width="0.40" />
<polyline points="235.0,28.846000000000004 255.0,28.846000000000004" fill="none" stroke="#000000" stroke-width="0.40" />
<polyline points="235.0,33.846000000000004 255.0,33.846000000000004" fill="none" stroke="#000000" stroke-width="0.40" />
<polyline points="235.0,66.346 255.0,66.346" fill="none" stroke="#000000" stroke-width="0.40" />
<polyline points="235.0,71.346 255.0,71.346" fill="none" stroke="#000000" stroke-width="0.40" />
<polyline points="235.0,76.346 255.0,76.346" fill="none" stroke="#000000" stroke-width="0.40" />
<polyline points="235.0,81.346 255.0,81.346" fill="none" stroke="#000000" stroke-width="0.40" />
<polyline points="235.0,86.346 255.0,86.346" fill="none" stroke="#000000" stroke-width="0.40" />
<polyline points="235.39999999999964,0.0 235.39999999999964,86.346" fill="" stroke="#000000" stroke-width="0.80" />
</svg>
