<?xml version="1.0" encoding="UTF-8" standalone="yes"?>
<svg width="256.0px" height="256.0px" xmlns="http://www.w3.org/2000/svg" xmlns:xlink="http://www.w3.org/1999/xlink" version="1.2" baseProfile="tiny">
<path d="M74.90000000000146,25.557999999999993 C74.90000000000146,25.442999999999984 75.0,25.339000000000055 75.0,25.245000000000005 C75.0,25.150999999999954 75.09999999999854,25.019000000000005 75.20000000000073,24.84699999999998 C75.29999999999927,24.674999999999955 75.29999999999927,24.53200000000004 75.5,24.41700000000003 C75.59999999999854,24.30200000000002 75.70000000000073,24.201000000000022 75.90000000000146,24.111999999999966 C76.09999999999854,24.024 76.29999999999927,23.979000000000042 76.59999999999854,23.979000000000042 C77.0,23.979000000000042 77.29999999999927,24.11500000000001 77.59999999999854,24.385999999999967 C77.90000000000146,24.65700000000004 78.0,24.99000000000001 78.0,25.385999999999967 C78.0,25.99000000000001 77.70000000000073,26.650999999999954 77.0,27.370000000000005 L75.70000000000073,28.79200000000003 L77.59999999999854,28.79200000000003 C77.79999999999927,28.79200000000003 77.90000000000146,28.760999999999967 78.0,28.69799999999998 C78.09999999999854,28.635999999999967 78.20000000000073,28.49000000000001 78.40000000000146,28.260999999999967 L78.5,28.29200000000003 L78.0,29.370000000000005 L74.90000000000146,29.370000000000005 L74.90000000000146,29.275999999999954 L76.29999999999927,27.760999999999967 C77.0,27.03200000000004 77.40000000000146,26.34400000000005 77.40000000000146,25.69799999999998 C77.40000000000146,25.354000000000042 77.29999999999927,25.077999999999975 77.09999999999854,24.870000000000005 C76.90000000000146,24.662000000000035 76.59999999999854,24.557999999999993 76.20000000000073,24.557999999999993 C76.0,24.557999999999993 75.70000000000073,24.633000000000038 75.59999999999854,24.783999999999992 C75.40000000000146,24.934999999999945 75.20000000000073,25.208999999999946 75.09999999999854,25.604000000000042 L74.90000000000146,25.557999999999993 M79.09999999999854,29.54200000000003 L79.09999999999854,29.385999999999967 C79.70000000000073,29.28200000000004 80.20000000000073,29.024 80.59999999999854,28.611999999999966 C81.09999999999854,28.201000000000022 81.40000000000146,27.66700000000003 81.5,27.010999999999967 C81.09999999999854,27.32299999999998 80.70000000000073,27.479000000000042 80.29999999999927,27.479000000000042 C79.90000000000146,27.479000000000042 79.59999999999854,27.327999999999975 79.29999999999927,27.025999999999954 C79.0,26.724000000000046 78.90000000000146,26.333999999999946 78.90000000000146,25.854000000000042 C78.90000000000146,25.312999999999988 79.0,24.860000000000014 79.40000000000146,24.495000000000005 C79.70000000000073,24.129999999999995 80.09999999999854,23.94799999999998 80.59999999999854,23.94799999999998 C81.09999999999854,23.94799999999998 81.5,24.158999999999992 81.90000000000146,24.581000000000017 C82.20000000000073,25.003000000000043 82.40000000000146,25.547000000000025 82.40000000000146,26.214000000000055 C82.40000000000146,26.432999999999993 82.29999999999927,26.653999999999996 82.29999999999927,26.878000000000043 C82.29999999999927,27.101999999999975 82.20000000000073,27.366999999999962 82.0,27.674999999999955 C81.90000000000146,27.98199999999997 81.70000000000073,28.254999999999995 81.5,28.495000000000005 C81.29999999999927,28.735000000000014 81.0,28.952999999999975 80.59999999999854,29.150999999999954 C80.20000000000073,29.349000000000046 79.70000000000073,29.479000000000042 79.09999999999854,29.54200000000003 M80.59999999999854,27.120000000000005 C80.70000000000073,27.120000000000005 80.79999999999927,27.10699999999997 81.0,27.081000000000017 C81.09999999999854,27.05499999999995 81.20000000000073,26.991999999999962 81.29999999999927,26.894000000000005 C81.5,26.79499999999996 81.5,26.672000000000025 81.5,26.525999999999954 L81.5,26.214000000000055 C81.5,24.860000000000014 81.20000000000073,24.182999999999993 80.5,24.182999999999993 C80.29999999999927,24.182999999999993 80.20000000000073,24.226999999999975 80.09999999999854,24.315000000000055 C79.90000000000146,24.403999999999996 79.90000000000146,24.520999999999958 79.79999999999927,24.66700000000003 C79.70000000000073,24.812999999999988 79.70000000000073,24.958999999999946 79.70000000000073,25.104000000000042 C79.59999999999854,25.25 79.59999999999854,25.40700000000004 79.59999999999854,25.57299999999998 C79.59999999999854,26.05200000000002 79.70000000000073,26.42999999999995 79.90000000000146,26.706000000000017 C80.09999999999854,26.98199999999997 80.29999999999927,27.120000000000005 80.59999999999854,27.120000000000005" />
<path d="M140.0,28.729000000000042 C140.09999999999854,28.729000000000042 140.29999999999927,28.80499999999995 140.5,28.956000000000017 C140.79999999999927,29.10699999999997 141.0,29.182999999999993 141.20000000000073,29.182999999999993 C141.5,29.182999999999993 141.70000000000073,29.067999999999984 141.90000000000146,28.839000000000055 C142.09999999999854,28.610000000000014 142.20000000000073,28.327999999999975 142.20000000000073,27.995000000000005 C142.20000000000073,27.787000000000035 142.20000000000073,27.604000000000042 142.09999999999854,27.44799999999998 C142.09999999999854,27.29200000000003 142.0,27.16999999999996 141.90000000000146,27.081000000000017 C141.79999999999927,26.991999999999962 141.59999999999854,26.91999999999996 141.5,26.861999999999966 C141.29999999999927,26.80499999999995 141.20000000000073,26.769000000000005 141.09999999999854,26.753000000000043 C140.90000000000146,26.736999999999966 140.79999999999927,26.729000000000042 140.59999999999854,26.729000000000042 L140.59999999999854,26.620000000000005 C140.79999999999927,26.557999999999993 140.90000000000146,26.498000000000047 141.09999999999854,26.440000000000055 C141.20000000000073,26.383000000000038 141.29999999999927,26.30200000000002 141.5,26.19799999999998 C141.59999999999854,26.09400000000005 141.70000000000073,25.966000000000008 141.79999999999927,25.815000000000055 C141.90000000000146,25.663999999999987 141.90000000000146,25.495000000000005 141.90000000000146,25.307999999999993 C141.90000000000146,25.047000000000025 141.90000000000146,24.839000000000055 141.70000000000073,24.682999999999993 C141.5,24.525999999999954 141.29999999999927,24.44799999999998 141.09999999999854,24.44799999999998 C140.79999999999927,24.44799999999998 140.59999999999854,24.515999999999963 140.40000000000146,24.650999999999954 C140.20000000000073,24.787000000000035 140.0,25.0 139.90000000000146,25.29200000000003 L139.79999999999927,25.260999999999967 C139.90000000000146,24.885999999999967 140.09999999999854,24.576000000000022 140.29999999999927,24.331000000000017 C140.5,24.086000000000013 140.90000000000146,23.964000000000055 141.29999999999927,23.964000000000055 C141.70000000000073,23.964000000000055 142.0,24.065000000000055 142.20000000000073,24.269000000000005 C142.5,24.47199999999998 142.59999999999854,24.735000000000014 142.59999999999854,25.057999999999993 C142.59999999999854,25.275999999999954 142.5,25.46900000000005 142.40000000000146,25.635999999999967 C142.29999999999927,25.80200000000002 142.09999999999854,25.979000000000042 141.79999999999927,26.16700000000003 C142.09999999999854,26.30200000000002 142.40000000000146,26.476999999999975 142.59999999999854,26.690000000000055 C142.70000000000073,26.903999999999996 142.79999999999927,27.214000000000055 142.79999999999927,27.620000000000005 C142.79999999999927,28.182999999999993 142.59999999999854,28.633000000000038 142.20000000000073,28.97199999999998 C141.79999999999927,29.309999999999945 141.20000000000073,29.479000000000042 140.59999999999854,29.479000000000042 C140.29999999999927,29.479000000000042 140.09999999999854,29.437999999999988 139.90000000000146,29.354000000000042 C139.79999999999927,29.270999999999958 139.70000000000073,29.15700000000004 139.70000000000073,29.010999999999967 C139.70000000000073,28.92700000000002 139.70000000000073,28.860000000000014 139.79999999999927,28.807999999999993 C139.79999999999927,28.754999999999995 139.90000000000146,28.729000000000042 140.0,28.729000000000042 M146.59999999999854,28.714000000000055 C146.29999999999927,29.224000000000046 145.79999999999927,29.479000000000042 145.29999999999927,29.479000000000042 C144.70000000000073,29.479000000000042 144.29999999999927,29.21900000000005 144.0,28.69799999999998 C143.70000000000073,28.17700000000002 143.5,27.504999999999995 143.5,26.682999999999993 C143.5,25.912000000000035 143.70000000000073,25.265999999999963 144.0,24.745000000000005 C144.29999999999927,24.224000000000046 144.79999999999927,23.964000000000055 145.29999999999927,23.964000000000055 C145.79999999999927,23.964000000000055 146.29999999999927,24.21900000000005 146.59999999999854,24.729000000000042 C146.90000000000146,25.24000000000001 147.09999999999854,25.90700000000004 147.09999999999854,26.729000000000042 C147.09999999999854,27.54200000000003 146.90000000000146,28.202999999999975 146.59999999999854,28.714000000000055 M145.29999999999927,24.16700000000003 C144.59999999999854,24.16700000000003 144.20000000000073,25.03200000000004 144.20000000000073,26.760999999999967 C144.20000000000073,28.437999999999988 144.59999999999854,29.275999999999954 145.29999999999927,29.275999999999954 C146.0,29.275999999999954 146.29999999999927,28.432999999999993 146.29999999999927,26.745000000000005 C146.29999999999927,25.912000000000035 146.20000000000073,25.274 146.09999999999854,24.831000000000017 C145.90000000000146,24.388000000000034 145.59999999999854,24.16700000000003 145.29999999999927,24.16700000000003" />
</svg>
