<?xml version="1.0" encoding="UTF-8" standalone="yes"?>
<svg width="256.0px" height="256.0px" xmlns="http://www.w3.org/2000/svg" xmlns:xlink="http://www.w3.org/1999/xlink" version="1.2" baseProfile="tiny">
<path d="M205.60999999999967,29.54200000000003 L205.60000000000036,29.385999999999967 C206.19999999999982,29.28200000000004 206.71000000000004,29.024 207.1300000000001,28.611999999999966 C207.5600000000004,28.201000000000022 207.85000000000036,27.66700000000003 208.02000000000044,27.010999999999967 C207.6199999999999,27.32299999999998 207.22000000000025,27.479000000000042 206.8100000000004,27.479000000000042 C206.39000000000033,27.479000000000042 206.03999999999996,27.327999999999975 205.77999999999975,27.025999999999954 C205.51000000000022,26.724000000000046 205.3800000000001,26.333999999999946 205.3800000000001,25.854000000000042 C205.3800000000001,25.312999999999988 205.53999999999996,24.860000000000014 205.85000000000036,24.495000000000005 C206.17000000000007,24.129999999999995 206.5699999999997,23.94799999999998 207.05000000000018,23.94799999999998 C207.57999999999993,23.94799999999998 208.01000000000022,24.158999999999992 208.35000000000036,24.581000000000017 C208.6800000000003,25.003000000000043 208.85000000000036,25.547000000000025 208.85000000000036,26.214000000000055 C208.85000000000036,26.432999999999993 208.82999999999993,26.653999999999996 208.78999999999996,26.878000000000043 C208.75,27.101999999999975 208.67000000000007,27.366999999999962 208.52999999999975,27.674999999999955 C208.39999999999964,27.98199999999997 208.22000000000025,28.254999999999995 207.98999999999978,28.495000000000005 C207.77000000000044,28.735000000000014 207.44999999999982,28.952999999999975 207.05000000000018,29.150999999999954 C206.64000000000033,29.349000000000046 206.15999999999985,29.479000000000042 205.60999999999967,29.54200000000003 M207.10999999999967,27.120000000000005 C207.22000000000025,27.120000000000005 207.32999999999993,27.10699999999997 207.44999999999982,27.081000000000017 C207.57999999999993,27.05499999999995 207.71000000000004,26.991999999999962 207.84000000000015,26.894000000000005 C207.97000000000025,26.79499999999996 208.02999999999975,26.672000000000025 208.02999999999975,26.525999999999954 L208.02999999999975,26.214000000000055 C208.02999999999975,24.860000000000014 207.6800000000003,24.182999999999993 206.98999999999978,24.182999999999993 C206.8199999999997,24.182999999999993 206.6800000000003,24.226999999999975 206.5600000000004,24.315000000000055 C206.4399999999996,24.403999999999996 206.35000000000036,24.520999999999958 206.28999999999996,24.66700000000003 C206.22999999999956,24.812999999999988 206.1899999999996,24.958999999999946 206.15999999999985,25.104000000000042 C206.1300000000001,25.25 206.10999999999967,25.40700000000004 206.10999999999967,25.57299999999998 C206.10999999999967,26.05200000000002 206.19999999999982,26.42999999999995 206.3800000000001,26.706000000000017 C206.5699999999997,26.98199999999997 206.8100000000004,27.120000000000005 207.10999999999967,27.120000000000005" />
</svg>
