<?xml version="1.0" encoding="UTF-8" standalone="yes"?>
<svg width="256.0px" height="256.0px" xmlns="http://www.w3.org/2000/svg" xmlns:xlink="http://www.w3.org/1999/xlink" version="1.2" baseProfile="tiny">
<path d="M219.6800000000003,235.018 L219.6800000000003,236.565 C219.6800000000003,237.117 219.70000000000073,237.555 219.76000000000022,237.878 C220.1800000000003,237.513 220.48999999999978,237.242 220.6800000000003,237.065 C220.88999999999942,236.857 221.09000000000015,236.568 221.29999999999927,236.198 C221.51000000000022,235.828 221.6200000000008,235.461 221.6200000000008,235.096 C221.6200000000008,234.732 221.54000000000087,234.419 221.3799999999992,234.159 C221.21999999999935,233.899 221.02000000000044,233.768 220.76000000000022,233.768 C220.4400000000005,233.768 220.1800000000003,233.888 219.96999999999935,234.128 C219.78000000000065,234.388 219.6800000000003,234.685 219.6800000000003,235.018 M218.85000000000036,238.596 L218.60000000000036,226.706 C218.79000000000087,226.602 218.96999999999935,226.55 219.14999999999964,226.55 C219.34000000000015,226.55 219.52000000000044,226.602 219.6900000000005,226.706 L219.54000000000087,233.596 C220.0699999999997,233.138 220.6800000000003,232.909 221.3799999999992,232.909 C221.8799999999992,232.909 222.29999999999927,233.117 222.63999999999942,233.534 C222.97999999999956,233.951 223.14999999999964,234.43 223.14999999999964,234.971 C223.14999999999964,235.305 223.04000000000087,235.664 222.8199999999997,236.05 C222.61000000000058,236.393 222.38999999999942,236.664 222.15999999999985,236.862 C222.03000000000065,236.966 221.6900000000005,237.227 221.15999999999985,237.643 C221.01000000000022,237.758 220.8199999999997,237.893 220.61000000000058,238.05 C220.38999999999942,238.206 220.26000000000022,238.305 220.20999999999913,238.346 C220.1200000000008,238.399 220.03000000000065,238.503 219.9400000000005,238.659 C219.86000000000058,238.794 219.76000000000022,238.904 219.6299999999992,238.987 C219.54999999999927,239.07 219.4400000000005,239.112 219.3099999999995,239.112 C219.1800000000003,239.112 219.0699999999997,239.065 218.98999999999978,238.971 C218.89999999999964,238.878 218.85000000000036,238.753 218.85000000000036,238.596" />
<path d="M218.6800000000003,87.5183 L218.6800000000003,89.0652 C218.6800000000003,89.6173 218.70000000000073,90.0548 218.76000000000022,90.3777 C219.1800000000003,90.0131 219.48999999999978,89.7423 219.6800000000003,89.5652 C219.88999999999942,89.3569 220.09000000000015,89.0678 220.29999999999927,88.698 C220.51000000000022,88.3282 220.6200000000008,87.961 220.6200000000008,87.5965 C220.6200000000008,87.2319 220.54000000000087,86.9194 220.3799999999992,86.659 C220.21999999999935,86.3985 220.02000000000044,86.2683 219.76000000000022,86.2683 C219.4400000000005,86.2683 219.1800000000003,86.3881 218.96999999999935,86.6277 C218.78000000000065,86.8881 218.6800000000003,87.185 218.6800000000003,87.5183 M217.85000000000036,91.0965 L217.60000000000036,79.2058 C217.79000000000087,79.1017 217.96999999999935,79.0496 218.14999999999964,79.0496 C218.34000000000015,79.0496 218.52000000000044,79.1017 218.6900000000005,79.2058 L218.54000000000087,86.0965 C219.0699999999997,85.6381 219.6800000000003,85.409 220.3799999999992,85.409 C220.8799999999992,85.409 221.29999999999927,85.6173 221.63999999999942,86.034 C221.97999999999956,86.4506 222.14999999999964,86.9298 222.14999999999964,87.4715 C222.14999999999964,87.8048 222.04000000000087,88.1642 221.8199999999997,88.5496 C221.61000000000058,88.8933 221.38999999999942,89.1642 221.15999999999985,89.3621 C221.03000000000065,89.4662 220.6900000000005,89.7267 220.15999999999985,90.1433 C220.01000000000022,90.2579 219.8199999999997,90.3933 219.61000000000058,90.5496 C219.38999999999942,90.7058 219.26000000000022,90.8048 219.20999999999913,90.8465 C219.1200000000008,90.8985 219.03000000000065,91.0027 218.9400000000005,91.159 C218.86000000000058,91.2944 218.76000000000022,91.4037 218.6299999999992,91.4871 C218.54999999999927,91.5704 218.4400000000005,91.6121 218.3099999999995,91.6121 C218.1800000000003,91.6121 218.0699999999997,91.5652 217.98999999999978,91.4715 C217.89999999999964,91.3777 217.85000000000036,91.2527 217.85000000000036,91.0965" />
<path d="M219.6800000000003,65.0183 L219.6800000000003,66.5652 C219.6800000000003,67.1173 219.70000000000073,67.5548 219.76000000000022,67.8777 C220.1800000000003,67.5131 220.48999999999978,67.2423 220.6800000000003,67.0652 C220.88999999999942,66.8569 221.09000000000015,66.5678 221.29999999999927,66.198 C221.51000000000022,65.8282 221.6200000000008,65.461 221.6200000000008,65.0965 C221.6200000000008,64.7319 221.54000000000087,64.4194 221.3799999999992,64.159 C221.21999999999935,63.8985 221.02000000000044,63.7683 220.76000000000022,63.7683 C220.4400000000005,63.7683 220.1800000000003,63.8881 219.96999999999935,64.1277 C219.78000000000065,64.3881 219.6800000000003,64.685 219.6800000000003,65.0183 M218.85000000000036,68.5965 L218.60000000000036,56.7058 C218.79000000000087,56.6017 218.96999999999935,56.5496 219.14999999999964,56.5496 C219.34000000000015,56.5496 219.52000000000044,56.6017 219.6900000000005,56.7058 L219.54000000000087,63.5965 C220.0699999999997,63.1381 220.6800000000003,62.909 221.3799999999992,62.909 C221.8799999999992,62.909 222.29999999999927,63.1173 222.63999999999942,63.534 C222.97999999999956,63.9506 223.14999999999964,64.4298 223.14999999999964,64.9715 C223.14999999999964,65.3048 223.04000000000087,65.6642 222.8199999999997,66.0496 C222.61000000000058,66.3933 222.38999999999942,66.6642 222.15999999999985,66.8621 C222.03000000000065,66.9662 221.6900000000005,67.2267 221.15999999999985,67.6433 C221.01000000000022,67.7579 220.8199999999997,67.8933 220.61000000000058,68.0496 C220.38999999999942,68.2058 220.26000000000022,68.3048 220.20999999999913,68.3465 C220.1200000000008,68.3985 220.03000000000065,68.5027 219.9400000000005,68.659 C219.86000000000058,68.7944 219.76000000000022,68.9037 219.6299999999992,68.9871 C219.54999999999927,69.0704 219.4400000000005,69.1121 219.3099999999995,69.1121 C219.1800000000003,69.1121 219.0699999999997,69.0652 218.98999999999978,68.9715 C218.89999999999964,68.8777 218.85000000000036,68.7527 218.85000000000036,68.5965" />
<path d="M164.70000000000073,217.518 L164.70000000000073,219.065 C164.70000000000073,219.617 164.72999999999956,220.055 164.78000000000065,220.378 C165.20999999999913,220.013 165.52000000000044,219.742 165.70000000000073,219.565 C165.90999999999985,219.357 166.1200000000008,219.068 166.32999999999993,218.698 C166.54000000000087,218.328 166.63999999999942,217.961 166.63999999999942,217.596 C166.63999999999942,217.232 166.5599999999995,216.919 166.40999999999985,216.659 C166.25,216.399 166.04000000000087,216.268 165.78000000000065,216.268 C165.46999999999935,216.268 165.20999999999913,216.388 165.0,216.628 C164.79999999999927,216.888 164.70000000000073,217.185 164.70000000000073,217.518 M163.8799999999992,221.096 L163.6299999999992,209.206 C163.8099999999995,209.102 164.0,209.05 164.1800000000003,209.05 C164.36000000000058,209.05 164.54000000000087,209.102 164.71999999999935,209.206 L164.5599999999995,216.096 C165.10000000000036,215.638 165.70999999999913,215.409 166.40999999999985,215.409 C166.90999999999985,215.409 167.32999999999993,215.617 167.67000000000007,216.034 C168.0,216.451 168.17000000000007,216.93 168.17000000000007,217.471 C168.17000000000007,217.805 168.0599999999995,218.164 167.85000000000036,218.55 C167.63999999999942,218.893 167.42000000000007,219.164 167.1900000000005,219.362 C167.04999999999927,219.466 166.71999999999935,219.727 166.1900000000005,220.143 C166.03000000000065,220.258 165.85000000000036,220.393 165.6299999999992,220.55 C165.42000000000007,220.706 165.29000000000087,220.805 165.23999999999978,220.846 C165.13999999999942,220.899 165.04999999999927,221.003 164.96999999999935,221.159 C164.88999999999942,221.294 164.78000000000065,221.404 164.65999999999985,221.487 C164.5699999999997,221.57 164.46999999999935,221.612 164.34000000000015,221.612 C164.20999999999913,221.612 164.10000000000036,221.565 164.02000000000044,221.471 C163.92000000000007,221.378 163.8799999999992,221.253 163.8799999999992,221.096" />
<path d="M163.52000000000044,177.518 L163.52000000000044,179.065 C163.52000000000044,179.617 163.54999999999927,180.055 163.60000000000036,180.378 C164.03000000000065,180.013 164.34000000000015,179.742 164.52000000000044,179.565 C164.72999999999956,179.357 164.9400000000005,179.068 165.14999999999964,178.698 C165.36000000000058,178.328 165.45999999999913,177.961 165.45999999999913,177.596 C165.45999999999913,177.232 165.3799999999992,176.919 165.22999999999956,176.659 C165.0699999999997,176.399 164.86000000000058,176.268 164.60000000000036,176.268 C164.29000000000087,176.268 164.03000000000065,176.388 163.8199999999997,176.628 C163.6200000000008,176.888 163.52000000000044,177.185 163.52000000000044,177.518 M162.70000000000073,181.096 L162.45000000000073,169.206 C162.6299999999992,169.102 162.8199999999997,169.05 163.0,169.05 C163.1800000000003,169.05 163.36000000000058,169.102 163.54000000000087,169.206 L163.3799999999992,176.096 C163.90999999999985,175.638 164.53000000000065,175.409 165.22999999999956,175.409 C165.72999999999956,175.409 166.14999999999964,175.617 166.48999999999978,176.034 C166.8199999999997,176.451 166.98999999999978,176.93 166.98999999999978,177.471 C166.98999999999978,177.805 166.8799999999992,178.164 166.65999999999985,178.55 C166.45999999999913,178.893 166.23999999999978,179.164 166.01000000000022,179.362 C165.8700000000008,179.466 165.54000000000087,179.727 165.01000000000022,180.143 C164.85000000000036,180.258 164.67000000000007,180.393 164.45000000000073,180.55 C164.23999999999978,180.706 164.11000000000058,180.805 164.0599999999995,180.846 C163.95999999999913,180.899 163.8700000000008,181.003 163.79000000000087,181.159 C163.70999999999913,181.294 163.60000000000036,181.404 163.47999999999956,181.487 C163.38999999999942,181.57 163.29000000000087,181.612 163.15999999999985,181.612 C163.03000000000065,181.612 162.92000000000007,181.565 162.84000000000015,181.471 C162.73999999999978,181.378 162.70000000000073,181.253 162.70000000000073,181.096" />
<path d="M163.52000000000044,195.018 L163.52000000000044,196.565 C163.52000000000044,197.117 163.54999999999927,197.555 163.60000000000036,197.878 C164.03000000000065,197.513 164.34000000000015,197.242 164.52000000000044,197.065 C164.72999999999956,196.857 164.9400000000005,196.568 165.14999999999964,196.198 C165.36000000000058,195.828 165.45999999999913,195.461 165.45999999999913,195.096 C165.45999999999913,194.732 165.3799999999992,194.419 165.22999999999956,194.159 C165.0699999999997,193.899 164.86000000000058,193.768 164.60000000000036,193.768 C164.29000000000087,193.768 164.03000000000065,193.888 163.8199999999997,194.128 C163.6200000000008,194.388 163.52000000000044,194.685 163.52000000000044,195.018 M162.70000000000073,198.596 L162.45000000000073,186.706 C162.6299999999992,186.602 162.8199999999997,186.55 163.0,186.55 C163.1800000000003,186.55 163.36000000000058,186.602 163.54000000000087,186.706 L163.3799999999992,193.596 C163.90999999999985,193.138 164.53000000000065,192.909 165.22999999999956,192.909 C165.72999999999956,192.909 166.14999999999964,193.117 166.48999999999978,193.534 C166.8199999999997,193.951 166.98999999999978,194.43 166.98999999999978,194.971 C166.98999999999978,195.305 166.8799999999992,195.664 166.65999999999985,196.05 C166.45999999999913,196.393 166.23999999999978,196.664 166.01000000000022,196.862 C165.8700000000008,196.966 165.54000000000087,197.227 165.01000000000022,197.643 C164.85000000000036,197.758 164.67000000000007,197.893 164.45000000000073,198.05 C164.23999999999978,198.206 164.11000000000058,198.305 164.0599999999995,198.346 C163.95999999999913,198.399 163.8700000000008,198.503 163.79000000000087,198.659 C163.70999999999913,198.794 163.60000000000036,198.904 163.47999999999956,198.987 C163.38999999999942,199.07 163.29000000000087,199.112 163.15999999999985,199.112 C163.03000000000065,199.112 162.92000000000007,199.065 162.84000000000015,198.971 C162.73999999999978,198.878 162.70000000000073,198.753 162.70000000000073,198.596" />
<path d="M48.469999999999345,170.018 L48.469999999999345,171.565 C48.469999999999345,172.117 48.5,172.555 48.54999999999927,172.878 C48.97999999999956,172.513 49.280000000000655,172.242 49.469999999999345,172.065 C49.68000000000029,171.857 49.88999999999942,171.568 50.100000000000364,171.198 C50.29999999999927,170.828 50.409999999999854,170.461 50.409999999999854,170.096 C50.409999999999854,169.732 50.32999999999993,169.419 50.17000000000007,169.159 C50.02000000000044,168.899 49.80999999999949,168.768 49.54999999999927,168.768 C49.23999999999978,168.768 48.97999999999956,168.888 48.77000000000044,169.128 C48.56999999999971,169.388 48.469999999999345,169.685 48.469999999999345,170.018 M47.63999999999942,173.596 L47.38999999999942,161.706 C47.57999999999993,161.602 47.76000000000022,161.55 47.95000000000073,161.55 C48.1299999999992,161.55 48.30999999999949,161.602 48.48999999999978,161.706 L48.32999999999993,168.596 C48.86000000000058,168.138 49.47999999999956,167.909 50.17000000000007,167.909 C50.67000000000007,167.909 51.090000000000146,168.117 51.43000000000029,168.534 C51.77000000000044,168.951 51.94000000000051,169.43 51.94000000000051,169.971 C51.94000000000051,170.305 51.82999999999993,170.664 51.61000000000058,171.05 C51.399999999999636,171.393 51.18000000000029,171.664 50.95000000000073,171.862 C50.81999999999971,171.966 50.48999999999978,172.227 49.95000000000073,172.643 C49.79999999999927,172.758 49.61000000000058,172.893 49.399999999999636,173.05 C49.19000000000051,173.206 49.04999999999927,173.305 49.0,173.346 C48.909999999999854,173.399 48.81999999999971,173.503 48.73999999999978,173.659 C48.649999999999636,173.794 48.54999999999927,173.904 48.42000000000007,173.987 C48.340000000000146,174.07 48.22999999999956,174.112 48.100000000000364,174.112 C47.969999999999345,174.112 47.8700000000008,174.065 47.780000000000655,173.971 C47.69000000000051,173.878 47.63999999999942,173.753 47.63999999999942,173.596" />
<path d="M21.56999999999971,228.346 C21.73999999999978,228.253 21.909999999999854,228.206 22.079999999999927,228.206 C22.25,228.206 22.420000000000073,228.253 22.590000000000146,228.346 L22.520000000000437,232.003 L24.659999999999854,231.612 L24.73999999999978,231.612 C24.969999999999345,231.612 25.090000000000146,231.721 25.090000000000146,231.94 L25.229999999999563,243.346 C25.05999999999949,243.44 24.889999999999418,243.487 24.719999999999345,243.487 C24.549999999999272,243.487 24.3799999999992,243.44 24.209999999999127,243.346 L24.270000000000437,239.69 L22.159999999999854,240.081 L22.090000000000146,240.081 C21.850000000000364,240.081 21.729999999999563,239.971 21.729999999999563,239.753 L21.56999999999971,228.346 M24.290000000000873,237.737 L24.350000000000364,233.596 L22.51000000000022,233.956 L22.450000000000728,238.096 L24.290000000000873,237.737" />
<path d="M3.850000000000364,235.018 L3.850000000000364,236.565 C3.850000000000364,237.117 3.8700000000008004,237.555 3.930000000000291,237.878 C4.350000000000364,237.513 4.6599999999998545,237.242 4.850000000000364,237.065 C5.059999999999491,236.857 5.270000000000437,236.568 5.469999999999345,236.198 C5.680000000000291,235.828 5.790000000000873,235.461 5.790000000000873,235.096 C5.790000000000873,234.732 5.709999999999127,234.419 5.549999999999272,234.159 C5.399999999999636,233.899 5.190000000000509,233.768 4.930000000000291,233.768 C4.610000000000582,233.768 4.350000000000364,233.888 4.149999999999636,234.128 C3.9500000000007276,234.388 3.850000000000364,234.685 3.850000000000364,235.018 M3.0200000000004366,238.596 L2.7700000000004366,226.706 C2.959999999999127,226.602 3.139999999999418,226.55 3.319999999999709,226.55 C3.5100000000002183,226.55 3.6900000000005093,226.602 3.860000000000582,226.706 L3.709999999999127,233.596 C4.239999999999782,233.138 4.850000000000364,232.909 5.549999999999272,232.909 C6.049999999999272,232.909 6.469999999999345,233.117 6.809999999999491,233.534 C7.149999999999636,233.951 7.319999999999709,234.43 7.319999999999709,234.971 C7.319999999999709,235.305 7.209999999999127,235.664 6.989999999999782,236.05 C6.780000000000655,236.393 6.559999999999491,236.664 6.329999999999927,236.862 C6.200000000000728,236.966 5.860000000000582,237.227 5.329999999999927,237.643 C5.180000000000291,237.758 4.989999999999782,237.893 4.780000000000655,238.05 C4.559999999999491,238.206 4.430000000000291,238.305 4.3799999999992,238.346 C4.290000000000873,238.399 4.200000000000728,238.503 4.110000000000582,238.659 C4.030000000000655,238.794 3.930000000000291,238.904 3.7999999999992724,238.987 C3.719999999999345,239.07 3.610000000000582,239.112 3.4799999999995634,239.112 C3.350000000000364,239.112 3.2399999999997817,239.065 3.1599999999998545,238.971 C3.069999999999709,238.878 3.0200000000004366,238.753 3.0200000000004366,238.596" />
<path d="M228.6800000000003,233.096 C229.3099999999995,233.096 229.84000000000015,233.258 230.27000000000044,233.581 C230.67000000000007,233.935 230.8700000000008,234.378 230.8700000000008,234.909 C230.8700000000008,235.805 230.40999999999985,236.643 229.48999999999978,237.425 C228.5599999999995,238.206 227.54999999999927,238.596 226.47999999999956,238.596 C225.85000000000036,238.596 225.32999999999993,238.435 224.89999999999964,238.112 C224.48999999999978,237.758 224.29000000000087,237.315 224.29000000000087,236.784 C224.29000000000087,235.888 224.76000000000022,235.05 225.70000000000073,234.268 C226.61000000000058,233.487 227.61000000000058,233.096 228.6800000000003,233.096" />
<path d="M228.6800000000003,85.5965 C229.3099999999995,85.5965 229.84000000000015,85.7579 230.27000000000044,86.0808 C230.67000000000007,86.435 230.8700000000008,86.8777 230.8700000000008,87.409 C230.8700000000008,88.3048 230.40999999999985,89.1433 229.48999999999978,89.9246 C228.5599999999995,90.7058 227.54999999999927,91.0965 226.47999999999956,91.0965 C225.85000000000036,91.0965 225.32999999999993,90.935 224.89999999999964,90.6121 C224.48999999999978,90.2579 224.29000000000087,89.8152 224.29000000000087,89.284 C224.29000000000087,88.3881 224.76000000000022,87.5496 225.70000000000073,86.7683 C226.61000000000058,85.9871 227.61000000000058,85.5965 228.6800000000003,85.5965" />
<path d="M228.6800000000003,63.0965 C229.3099999999995,63.0965 229.84000000000015,63.2579 230.27000000000044,63.5808 C230.67000000000007,63.935 230.8700000000008,64.3777 230.8700000000008,64.909 C230.8700000000008,65.8048 230.40999999999985,66.6433 229.48999999999978,67.4246 C228.5599999999995,68.2058 227.54999999999927,68.5965 226.47999999999956,68.5965 C225.85000000000036,68.5965 225.32999999999993,68.435 224.89999999999964,68.1121 C224.48999999999978,67.7579 224.29000000000087,67.3152 224.29000000000087,66.784 C224.29000000000087,65.8881 224.76000000000022,65.0496 225.70000000000073,64.2683 C226.61000000000058,63.4871 227.61000000000058,63.0965 228.6800000000003,63.0965" />
<path d="M204.25,223.096 C204.8700000000008,223.096 205.39999999999964,223.258 205.84000000000015,223.581 C206.23999999999978,223.935 206.4400000000005,224.378 206.4400000000005,224.909 C206.4400000000005,225.805 205.97999999999956,226.643 205.0599999999995,227.425 C204.1200000000008,228.206 203.1200000000008,228.596 202.04999999999927,228.596 C201.42000000000007,228.596 200.88999999999942,228.435 200.46999999999935,228.112 C200.0599999999995,227.758 199.86000000000058,227.315 199.86000000000058,226.784 C199.86000000000058,225.888 200.32999999999993,225.05 201.26000000000022,224.268 C202.1800000000003,223.487 203.1800000000003,223.096 204.25,223.096" />
<path d="M188.97999999999956,215.596 C189.60000000000036,215.596 190.1299999999992,215.758 190.5699999999997,216.081 C190.96999999999935,216.435 191.17000000000007,216.878 191.17000000000007,217.409 C191.17000000000007,218.305 190.70999999999913,219.143 189.79000000000087,219.925 C188.85000000000036,220.706 187.85000000000036,221.096 186.77000000000044,221.096 C186.14999999999964,221.096 185.6200000000008,220.935 185.20000000000073,220.612 C184.79000000000087,220.258 184.59000000000015,219.815 184.59000000000015,219.284 C184.59000000000015,218.388 185.0599999999995,217.55 185.98999999999978,216.768 C186.90999999999985,215.987 187.90999999999985,215.596 188.97999999999956,215.596" />
<path d="M173.70999999999913,215.596 C174.32999999999993,215.596 174.86000000000058,215.758 175.29999999999927,216.081 C175.70000000000073,216.435 175.89999999999964,216.878 175.89999999999964,217.409 C175.89999999999964,218.305 175.4400000000005,219.143 174.52000000000044,219.925 C173.57999999999993,220.706 172.57999999999993,221.096 171.5,221.096 C170.8799999999992,221.096 170.35000000000036,220.935 169.9300000000003,220.612 C169.52000000000044,220.258 169.3199999999997,219.815 169.3199999999997,219.284 C169.3199999999997,218.388 169.79000000000087,217.55 170.71999999999935,216.768 C171.63999999999942,215.987 172.6299999999992,215.596 173.70999999999913,215.596" />
<path d="M175.45000000000073,172.034 C175.45000000000073,171.815 175.3700000000008,171.628 175.20000000000073,171.471 C175.02000000000044,171.305 174.8199999999997,171.221 174.61000000000058,171.221 C174.21999999999935,171.221 173.4300000000003,171.612 172.25,172.393 C171.02000000000044,173.185 170.27000000000044,173.753 170.0,174.096 C169.85000000000036,174.274 169.78000000000065,174.461 169.78000000000065,174.659 C169.78000000000065,174.878 169.8700000000008,175.065 170.04000000000087,175.221 C170.20000000000073,175.388 170.38999999999942,175.471 170.6200000000008,175.471 C171.0,175.471 171.79000000000087,175.081 173.01000000000022,174.3 C174.20999999999913,173.518 174.95000000000073,172.951 175.22999999999956,172.596 C175.3799999999992,172.43 175.45000000000073,172.242 175.45000000000073,172.034 M174.42000000000007,170.596 C175.53000000000065,170.596 176.09000000000015,171.076 176.09000000000015,172.034 C176.09000000000015,172.503 175.95000000000073,173.05 175.6800000000003,173.675 C175.40999999999985,174.289 175.04999999999927,174.758 174.59000000000015,175.081 C173.59000000000015,175.758 172.32999999999993,176.096 170.8199999999997,176.096 C169.70000000000073,176.096 169.13999999999942,175.617 169.13999999999942,174.659 C169.13999999999942,174.232 169.27000000000044,173.69 169.54000000000087,173.034 C169.79999999999927,172.409 170.17000000000007,171.935 170.63999999999942,171.612 C171.64999999999964,170.935 172.90999999999985,170.596 174.42000000000007,170.596" />
<path d="M175.45000000000073,177.034 C175.45000000000073,176.815 175.3700000000008,176.628 175.20000000000073,176.471 C175.02000000000044,176.305 174.8199999999997,176.221 174.61000000000058,176.221 C174.21999999999935,176.221 173.4300000000003,176.612 172.25,177.393 C171.02000000000044,178.185 170.27000000000044,178.753 170.0,179.096 C169.85000000000036,179.274 169.78000000000065,179.461 169.78000000000065,179.659 C169.78000000000065,179.878 169.8700000000008,180.065 170.04000000000087,180.221 C170.20000000000073,180.388 170.38999999999942,180.471 170.6200000000008,180.471 C171.0,180.471 171.79000000000087,180.081 173.01000000000022,179.3 C174.20999999999913,178.518 174.95000000000073,177.951 175.22999999999956,177.596 C175.3799999999992,177.43 175.45000000000073,177.242 175.45000000000073,177.034 M174.42000000000007,175.596 C175.53000000000065,175.596 176.09000000000015,176.076 176.09000000000015,177.034 C176.09000000000015,177.503 175.95000000000073,178.05 175.6800000000003,178.675 C175.40999999999985,179.289 175.04999999999927,179.758 174.59000000000015,180.081 C173.59000000000015,180.758 172.32999999999993,181.096 170.8199999999997,181.096 C169.70000000000073,181.096 169.13999999999942,180.617 169.13999999999942,179.659 C169.13999999999942,179.232 169.27000000000044,178.69 169.54000000000087,178.034 C169.79999999999927,177.409 170.17000000000007,176.935 170.63999999999942,176.612 C171.64999999999964,175.935 172.90999999999985,175.596 174.42000000000007,175.596" />
<path d="M175.45000000000073,184.534 C175.45000000000073,184.315 175.3700000000008,184.128 175.20000000000073,183.971 C175.02000000000044,183.805 174.8199999999997,183.721 174.61000000000058,183.721 C174.21999999999935,183.721 173.4300000000003,184.112 172.25,184.893 C171.02000000000044,185.685 170.27000000000044,186.253 170.0,186.596 C169.85000000000036,186.774 169.78000000000065,186.961 169.78000000000065,187.159 C169.78000000000065,187.378 169.8700000000008,187.565 170.04000000000087,187.721 C170.20000000000073,187.888 170.38999999999942,187.971 170.6200000000008,187.971 C171.0,187.971 171.79000000000087,187.581 173.01000000000022,186.8 C174.20999999999913,186.018 174.95000000000073,185.451 175.22999999999956,185.096 C175.3799999999992,184.93 175.45000000000073,184.742 175.45000000000073,184.534 M174.42000000000007,183.096 C175.53000000000065,183.096 176.09000000000015,183.576 176.09000000000015,184.534 C176.09000000000015,185.003 175.95000000000073,185.55 175.6800000000003,186.175 C175.40999999999985,186.789 175.04999999999927,187.258 174.59000000000015,187.581 C173.59000000000015,188.258 172.32999999999993,188.596 170.8199999999997,188.596 C169.70000000000073,188.596 169.13999999999942,188.117 169.13999999999942,187.159 C169.13999999999942,186.732 169.27000000000044,186.19 169.54000000000087,185.534 C169.79999999999927,184.909 170.17000000000007,184.435 170.63999999999942,184.112 C171.64999999999964,183.435 172.90999999999985,183.096 174.42000000000007,183.096" />
<path d="M175.45000000000073,194.534 C175.45000000000073,194.315 175.3700000000008,194.128 175.20000000000073,193.971 C175.02000000000044,193.805 174.8199999999997,193.721 174.61000000000058,193.721 C174.21999999999935,193.721 173.4300000000003,194.112 172.25,194.893 C171.02000000000044,195.685 170.27000000000044,196.253 170.0,196.596 C169.85000000000036,196.774 169.78000000000065,196.961 169.78000000000065,197.159 C169.78000000000065,197.378 169.8700000000008,197.565 170.04000000000087,197.721 C170.20000000000073,197.888 170.38999999999942,197.971 170.6200000000008,197.971 C171.0,197.971 171.79000000000087,197.581 173.01000000000022,196.8 C174.20999999999913,196.018 174.95000000000073,195.451 175.22999999999956,195.096 C175.3799999999992,194.93 175.45000000000073,194.742 175.45000000000073,194.534 M174.42000000000007,193.096 C175.53000000000065,193.096 176.09000000000015,193.576 176.09000000000015,194.534 C176.09000000000015,195.003 175.95000000000073,195.55 175.6800000000003,196.175 C175.40999999999985,196.789 175.04999999999927,197.258 174.59000000000015,197.581 C173.59000000000015,198.258 172.32999999999993,198.596 170.8199999999997,198.596 C169.70000000000073,198.596 169.13999999999942,198.117 169.13999999999942,197.159 C169.13999999999942,196.732 169.27000000000044,196.19 169.54000000000087,195.534 C169.79999999999927,194.909 170.17000000000007,194.435 170.63999999999942,194.112 C171.64999999999964,193.435 172.90999999999985,193.096 174.42000000000007,193.096" />
<path d="M173.70999999999913,83.0965 C174.32999999999993,83.0965 174.86000000000058,83.2579 175.29999999999927,83.5808 C175.70000000000073,83.935 175.89999999999964,84.3777 175.89999999999964,84.909 C175.89999999999964,85.8048 175.4400000000005,86.6433 174.52000000000044,87.4246 C173.57999999999993,88.2058 172.57999999999993,88.5965 171.5,88.5965 C170.8799999999992,88.5965 170.35000000000036,88.435 169.9300000000003,88.1121 C169.52000000000044,87.7579 169.3199999999997,87.3152 169.3199999999997,86.784 C169.3199999999997,85.8881 169.79000000000087,85.0496 170.71999999999935,84.2683 C171.63999999999942,83.4871 172.6299999999992,83.0965 173.70999999999913,83.0965" />
<path d="M173.70999999999913,60.5965 C174.32999999999993,60.5965 174.86000000000058,60.7579 175.29999999999927,61.0808 C175.70000000000073,61.435 175.89999999999964,61.8777 175.89999999999964,62.409 C175.89999999999964,63.3048 175.4400000000005,64.1433 174.52000000000044,64.9246 C173.57999999999993,65.7058 172.57999999999993,66.0965 171.5,66.0965 C170.8799999999992,66.0965 170.35000000000036,65.935 169.9300000000003,65.6121 C169.52000000000044,65.2579 169.3199999999997,64.8152 169.3199999999997,64.284 C169.3199999999997,63.3881 169.79000000000087,62.5496 170.71999999999935,61.7683 C171.63999999999942,60.9871 172.6299999999992,60.5965 173.70999999999913,60.5965" />
<path d="M118.72999999999956,213.096 C119.36000000000058,213.096 119.88999999999942,213.258 120.32999999999993,213.581 C120.71999999999935,213.935 120.92000000000007,214.378 120.92000000000007,214.909 C120.92000000000007,215.805 120.45999999999913,216.643 119.54999999999927,217.425 C118.61000000000058,218.206 117.60000000000036,218.596 116.53000000000065,218.596 C115.90999999999985,218.596 115.3799999999992,218.435 114.95000000000073,218.112 C114.54999999999927,217.758 114.34000000000015,217.315 114.34000000000015,216.784 C114.34000000000015,215.888 114.80999999999949,215.05 115.75,214.268 C116.67000000000007,213.487 117.65999999999985,213.096 118.72999999999956,213.096" />
<path d="M103.45999999999913,220.596 C104.09000000000015,220.596 104.6200000000008,220.758 105.05999999999949,221.081 C105.45000000000073,221.435 105.64999999999964,221.878 105.64999999999964,222.409 C105.64999999999964,223.305 105.19000000000051,224.143 104.28000000000065,224.925 C103.34000000000015,225.706 102.32999999999993,226.096 101.26000000000022,226.096 C100.63999999999942,226.096 100.11000000000058,225.935 99.68000000000029,225.612 C99.28000000000065,225.258 99.06999999999971,224.815 99.06999999999971,224.284 C99.06999999999971,223.388 99.54000000000087,222.55 100.47999999999956,221.768 C101.39999999999964,220.987 102.38999999999942,220.596 103.45999999999913,220.596" />
<path d="M88.19000000000051,220.596 C88.81999999999971,220.596 89.35000000000036,220.758 89.79000000000087,221.081 C90.18000000000029,221.435 90.3799999999992,221.878 90.3799999999992,222.409 C90.3799999999992,223.305 89.92000000000007,224.143 89.01000000000022,224.925 C88.06999999999971,225.706 87.05999999999949,226.096 85.98999999999978,226.096 C85.3700000000008,226.096 84.84000000000015,225.935 84.40999999999985,225.612 C84.01000000000022,225.258 83.79999999999927,224.815 83.79999999999927,224.284 C83.79999999999927,223.388 84.27000000000044,222.55 85.20999999999913,221.768 C86.1299999999992,220.987 87.1200000000008,220.596 88.19000000000051,220.596" />
<path d="M88.19000000000051,80.5965 C88.81999999999971,80.5965 89.35000000000036,80.7579 89.79000000000087,81.0808 C90.18000000000029,81.435 90.3799999999992,81.8777 90.3799999999992,82.409 C90.3799999999992,83.3048 89.92000000000007,84.1433 89.01000000000022,84.9246 C88.06999999999971,85.7058 87.05999999999949,86.0965 85.98999999999978,86.0965 C85.3700000000008,86.0965 84.84000000000015,85.935 84.40999999999985,85.6121 C84.01000000000022,85.2579 83.79999999999927,84.8152 83.79999999999927,84.284 C83.79999999999927,83.3881 84.27000000000044,82.5496 85.20999999999913,81.7683 C86.1299999999992,80.9871 87.1200000000008,80.5965 88.19000000000051,80.5965" />
<path d="M88.19000000000051,58.0965 C88.81999999999971,58.0965 89.35000000000036,58.2579 89.79000000000087,58.5808 C90.18000000000029,58.935 90.3799999999992,59.3777 90.3799999999992,59.909 C90.3799999999992,60.8048 89.92000000000007,61.6433 89.01000000000022,62.4246 C88.06999999999971,63.2058 87.05999999999949,63.5965 85.98999999999978,63.5965 C85.3700000000008,63.5965 84.84000000000015,63.435 84.40999999999985,63.1121 C84.01000000000022,62.7579 83.79999999999927,62.3152 83.79999999999927,61.784 C83.79999999999927,60.8881 84.27000000000044,60.0496 85.20999999999913,59.2683 C86.1299999999992,58.4871 87.1200000000008,58.0965 88.19000000000051,58.0965" />
<path d="M72.92000000000007,230.596 C73.54999999999927,230.596 74.07999999999993,230.758 74.52000000000044,231.081 C74.90999999999985,231.435 75.11000000000058,231.878 75.11000000000058,232.409 C75.11000000000058,233.305 74.64999999999964,234.143 73.73999999999978,234.925 C72.79999999999927,235.706 71.79000000000087,236.096 70.71999999999935,236.096 C70.10000000000036,236.096 69.56999999999971,235.935 69.13999999999942,235.612 C68.73999999999978,235.258 68.53000000000065,234.815 68.53000000000065,234.284 C68.53000000000065,233.388 69.0,232.55 69.94000000000051,231.768 C70.86000000000058,230.987 71.85000000000036,230.596 72.92000000000007,230.596" />
<path d="M57.649999999999636,230.596 C58.280000000000655,230.596 58.80999999999949,230.758 59.25,231.081 C59.63999999999942,231.435 59.840000000000146,231.878 59.840000000000146,232.409 C59.840000000000146,233.305 59.3799999999992,234.143 58.469999999999345,234.925 C57.530000000000655,235.706 56.52000000000044,236.096 55.45000000000073,236.096 C54.82999999999993,236.096 54.29999999999927,235.935 53.8700000000008,235.612 C53.469999999999345,235.258 53.26000000000022,234.815 53.26000000000022,234.284 C53.26000000000022,233.388 53.72999999999956,232.55 54.67000000000007,231.768 C55.590000000000146,230.987 56.57999999999993,230.596 57.649999999999636,230.596" />
<path d="M65.69000000000051,169.534 C65.69000000000051,169.315 65.61000000000058,169.128 65.44000000000051,168.971 C65.26000000000022,168.805 65.05999999999949,168.721 64.85000000000036,168.721 C64.45999999999913,168.721 63.67000000000007,169.112 62.48999999999978,169.893 C61.26000000000022,170.685 60.51000000000022,171.253 60.23999999999978,171.596 C60.090000000000146,171.774 60.02000000000044,171.961 60.02000000000044,172.159 C60.02000000000044,172.378 60.11000000000058,172.565 60.280000000000655,172.721 C60.44000000000051,172.888 60.6299999999992,172.971 60.86000000000058,172.971 C61.23999999999978,172.971 62.030000000000655,172.581 63.25,171.8 C64.45000000000073,171.018 65.19000000000051,170.451 65.46999999999935,170.096 C65.6200000000008,169.93 65.69000000000051,169.742 65.69000000000051,169.534 M64.65999999999985,168.096 C65.77000000000044,168.096 66.32999999999993,168.576 66.32999999999993,169.534 C66.32999999999993,170.003 66.19000000000051,170.55 65.92000000000007,171.175 C65.64999999999964,171.789 65.29000000000087,172.258 64.82999999999993,172.581 C63.82999999999993,173.258 62.56999999999971,173.596 61.05999999999949,173.596 C59.94000000000051,173.596 59.3799999999992,173.117 59.3799999999992,172.159 C59.3799999999992,171.732 59.51000000000022,171.19 59.780000000000655,170.534 C60.04000000000087,169.909 60.409999999999854,169.435 60.8799999999992,169.112 C61.88999999999942,168.435 63.149999999999636,168.096 64.65999999999985,168.096" />
<path d="M59.399999999999636,169.534 C59.399999999999636,169.315 59.30999999999949,169.128 59.149999999999636,168.971 C58.969999999999345,168.805 58.77000000000044,168.721 58.54999999999927,168.721 C58.17000000000007,168.721 57.3799999999992,169.112 56.19000000000051,169.893 C54.95999999999913,170.685 54.20999999999913,171.253 53.94000000000051,171.596 C53.79999999999927,171.774 53.719999999999345,171.961 53.719999999999345,172.159 C53.719999999999345,172.378 53.80999999999949,172.565 53.98999999999978,172.721 C54.149999999999636,172.888 54.340000000000146,172.971 54.56999999999971,172.971 C54.94000000000051,172.971 55.73999999999978,172.581 56.95999999999913,171.8 C58.159999999999854,171.018 58.899999999999636,170.451 59.18000000000029,170.096 C59.31999999999971,169.93 59.399999999999636,169.742 59.399999999999636,169.534 M58.36000000000058,168.096 C59.47999999999956,168.096 60.04000000000087,168.576 60.04000000000087,169.534 C60.04000000000087,170.003 59.899999999999636,170.55 59.6299999999992,171.175 C59.36000000000058,171.789 58.98999999999978,172.258 58.54000000000087,172.581 C57.54000000000087,173.258 56.280000000000655,173.596 54.77000000000044,173.596 C53.649999999999636,173.596 53.07999999999993,173.117 53.07999999999993,172.159 C53.07999999999993,171.732 53.219999999999345,171.19 53.48999999999978,170.534 C53.75,169.909 54.11000000000058,169.435 54.57999999999993,169.112 C55.590000000000146,168.435 56.850000000000364,168.096 58.36000000000058,168.096" />
<path d="M59.399999999999636,174.534 C59.399999999999636,174.315 59.30999999999949,174.128 59.149999999999636,173.971 C58.969999999999345,173.805 58.77000000000044,173.721 58.54999999999927,173.721 C58.17000000000007,173.721 57.3799999999992,174.112 56.19000000000051,174.893 C54.95999999999913,175.685 54.20999999999913,176.253 53.94000000000051,176.596 C53.79999999999927,176.774 53.719999999999345,176.961 53.719999999999345,177.159 C53.719999999999345,177.378 53.80999999999949,177.565 53.98999999999978,177.721 C54.149999999999636,177.888 54.340000000000146,177.971 54.56999999999971,177.971 C54.94000000000051,177.971 55.73999999999978,177.581 56.95999999999913,176.8 C58.159999999999854,176.018 58.899999999999636,175.451 59.18000000000029,175.096 C59.31999999999971,174.93 59.399999999999636,174.742 59.399999999999636,174.534 M58.36000000000058,173.096 C59.47999999999956,173.096 60.04000000000087,173.576 60.04000000000087,174.534 C60.04000000000087,175.003 59.899999999999636,175.55 59.6299999999992,176.175 C59.36000000000058,176.789 58.98999999999978,177.258 58.54000000000087,177.581 C57.54000000000087,178.258 56.280000000000655,178.596 54.77000000000044,178.596 C53.649999999999636,178.596 53.07999999999993,178.117 53.07999999999993,177.159 C53.07999999999993,176.732 53.219999999999345,176.19 53.48999999999978,175.534 C53.75,174.909 54.11000000000058,174.435 54.57999999999993,174.112 C55.590000000000146,173.435 56.850000000000364,173.096 58.36000000000058,173.096" />
<path d="M59.399999999999636,182.034 C59.399999999999636,181.815 59.30999999999949,181.628 59.149999999999636,181.471 C58.969999999999345,181.305 58.77000000000044,181.221 58.54999999999927,181.221 C58.17000000000007,181.221 57.3799999999992,181.612 56.19000000000051,182.393 C54.95999999999913,183.185 54.20999999999913,183.753 53.94000000000051,184.096 C53.79999999999927,184.274 53.719999999999345,184.461 53.719999999999345,184.659 C53.719999999999345,184.878 53.80999999999949,185.065 53.98999999999978,185.221 C54.149999999999636,185.388 54.340000000000146,185.471 54.56999999999971,185.471 C54.94000000000051,185.471 55.73999999999978,185.081 56.95999999999913,184.3 C58.159999999999854,183.518 58.899999999999636,182.951 59.18000000000029,182.596 C59.31999999999971,182.43 59.399999999999636,182.242 59.399999999999636,182.034 M58.36000000000058,180.596 C59.47999999999956,180.596 60.04000000000087,181.076 60.04000000000087,182.034 C60.04000000000087,182.503 59.899999999999636,183.05 59.6299999999992,183.675 C59.36000000000058,184.289 58.98999999999978,184.758 58.54000000000087,185.081 C57.54000000000087,185.758 56.280000000000655,186.096 54.77000000000044,186.096 C53.649999999999636,186.096 53.07999999999993,185.617 53.07999999999993,184.659 C53.07999999999993,184.232 53.219999999999345,183.69 53.48999999999978,183.034 C53.75,182.409 54.11000000000058,181.935 54.57999999999993,181.612 C55.590000000000146,180.935 56.850000000000364,180.596 58.36000000000058,180.596" />
<path d="M59.399999999999636,192.034 C59.399999999999636,191.815 59.30999999999949,191.628 59.149999999999636,191.471 C58.969999999999345,191.305 58.77000000000044,191.221 58.54999999999927,191.221 C58.17000000000007,191.221 57.3799999999992,191.612 56.19000000000051,192.393 C54.95999999999913,193.185 54.20999999999913,193.753 53.94000000000051,194.096 C53.79999999999927,194.274 53.719999999999345,194.461 53.719999999999345,194.659 C53.719999999999345,194.878 53.80999999999949,195.065 53.98999999999978,195.221 C54.149999999999636,195.388 54.340000000000146,195.471 54.56999999999971,195.471 C54.94000000000051,195.471 55.73999999999978,195.081 56.95999999999913,194.3 C58.159999999999854,193.518 58.899999999999636,192.951 59.18000000000029,192.596 C59.31999999999971,192.43 59.399999999999636,192.242 59.399999999999636,192.034 M58.36000000000058,190.596 C59.47999999999956,190.596 60.04000000000087,191.076 60.04000000000087,192.034 C60.04000000000087,192.503 59.899999999999636,193.05 59.6299999999992,193.675 C59.36000000000058,194.289 58.98999999999978,194.758 58.54000000000087,195.081 C57.54000000000087,195.758 56.280000000000655,196.096 54.77000000000044,196.096 C53.649999999999636,196.096 53.07999999999993,195.617 53.07999999999993,194.659 C53.07999999999993,194.232 53.219999999999345,193.69 53.48999999999978,193.034 C53.75,192.409 54.11000000000058,191.935 54.57999999999993,191.612 C55.590000000000146,190.935 56.850000000000364,190.596 58.36000000000058,190.596" />
<path d="M57.649999999999636,83.0965 C58.280000000000655,83.0965 58.80999999999949,83.2579 59.25,83.5808 C59.63999999999942,83.935 59.840000000000146,84.3777 59.840000000000146,84.909 C59.840000000000146,85.8048 59.3799999999992,86.6433 58.469999999999345,87.4246 C57.530000000000655,88.2058 56.52000000000044,88.5965 55.45000000000073,88.5965 C54.82999999999993,88.5965 54.29999999999927,88.435 53.8700000000008,88.1121 C53.469999999999345,87.7579 53.26000000000022,87.3152 53.26000000000022,86.784 C53.26000000000022,85.8881 53.72999999999956,85.0496 54.67000000000007,84.2683 C55.590000000000146,83.4871 56.57999999999993,83.0965 57.649999999999636,83.0965" />
<path d="M57.649999999999636,60.5965 C58.280000000000655,60.5965 58.80999999999949,60.7579 59.25,61.0808 C59.63999999999942,61.435 59.840000000000146,61.8777 59.840000000000146,62.409 C59.840000000000146,63.3048 59.3799999999992,64.1433 58.469999999999345,64.9246 C57.530000000000655,65.7058 56.52000000000044,66.0965 55.45000000000073,66.0965 C54.82999999999993,66.0965 54.29999999999927,65.935 53.8700000000008,65.6121 C53.469999999999345,65.2579 53.26000000000022,64.8152 53.26000000000022,64.284 C53.26000000000022,63.3881 53.72999999999956,62.5496 54.67000000000007,61.7683 C55.590000000000146,60.9871 56.57999999999993,60.5965 57.649999999999636,60.5965" />
<path d="M30.700000000000728,233.096 C31.31999999999971,233.096 31.850000000000364,233.258 32.29000000000087,233.581 C32.68000000000029,233.935 32.8799999999992,234.378 32.8799999999992,234.909 C32.8799999999992,235.805 32.42000000000007,236.643 31.51000000000022,237.425 C30.56999999999971,238.206 29.56999999999971,238.596 28.48999999999978,238.596 C27.8700000000008,238.596 27.340000000000146,238.435 26.909999999999854,238.112 C26.51000000000022,237.758 26.299999999999272,237.315 26.299999999999272,236.784 C26.299999999999272,235.888 26.770000000000437,235.05 27.709999999999127,234.268 C28.6299999999992,233.487 29.6200000000008,233.096 30.700000000000728,233.096" />
<path d="M12.850000000000364,233.096 C13.479999999999563,233.096 14.010000000000218,233.258 14.450000000000728,233.581 C14.840000000000146,233.935 15.040000000000873,234.378 15.040000000000873,234.909 C15.040000000000873,235.805 14.579999999999927,236.643 13.659999999999854,237.425 C12.729999999999563,238.206 11.719999999999345,238.596 10.649999999999636,238.596 C10.020000000000437,238.596 9.5,238.435 9.069999999999709,238.112 C8.659999999999854,237.758 8.459999999999127,237.315 8.459999999999127,236.784 C8.459999999999127,235.888 8.930000000000291,235.05 9.8700000000008,234.268 C10.780000000000655,233.487 11.780000000000655,233.096 12.850000000000364,233.096" />
<path d="M156.54999999999927,226.737 C156.9400000000005,226.737 157.21999999999935,226.841 157.38999999999942,227.05 C157.5699999999997,227.279 157.6800000000003,227.503 157.71999999999935,227.721 C157.72999999999956,227.94 157.79999999999927,228.159 157.92000000000007,228.378 C157.98999999999978,228.586 158.13999999999942,228.69 158.34000000000015,228.69 C158.47999999999956,228.69 158.6800000000003,228.534 158.9400000000005,228.221 C159.22999999999956,227.857 159.42000000000007,227.596 159.5,227.44 C159.5599999999995,227.315 159.64999999999964,227.253 159.77000000000044,227.253 C159.77000000000044,227.253 159.78000000000065,227.253 159.79999999999927,227.253 C159.90999999999985,227.263 159.98999999999978,227.326 160.04999999999927,227.44 L156.46999999999935,240.846 C156.34000000000015,240.982 156.15999999999985,241.05 155.9300000000003,241.05 C155.70000000000073,241.05 155.51000000000022,240.982 155.3799999999992,240.846 L157.38999999999942,234.3 C156.52000000000044,234.612 155.8099999999995,234.768 155.27000000000044,234.768 C154.79999999999927,234.768 154.38999999999942,234.622 154.04999999999927,234.331 C153.6900000000005,234.039 153.52000000000044,233.659 153.52000000000044,233.19 C153.52000000000044,232.784 153.64999999999964,232.445 153.92000000000007,232.175 C154.20999999999913,231.893 154.5599999999995,231.753 154.96999999999935,231.753 C155.35000000000036,231.753 155.63999999999942,231.857 155.8099999999995,232.065 C156.0,232.284 156.11000000000058,232.503 156.15999999999985,232.721 C156.20000000000073,232.982 156.27000000000044,233.206 156.36000000000058,233.393 C156.4400000000005,233.602 156.57999999999993,233.706 156.78000000000065,233.706 C156.9400000000005,233.706 157.15999999999985,233.524 157.45000000000073,233.159 C157.73999999999978,232.815 157.9300000000003,232.544 158.0,232.346 L158.90999999999985,229.315 C158.0699999999997,229.617 157.3799999999992,229.768 156.82999999999993,229.768 C156.36000000000058,229.768 155.95000000000073,229.617 155.61000000000058,229.315 C155.26000000000022,229.034 155.07999999999993,228.659 155.07999999999993,228.19 C155.07999999999993,227.784 155.21999999999935,227.445 155.52000000000044,227.175 C155.79999999999927,226.883 156.13999999999942,226.737 156.54999999999927,226.737" />
<path d="M114.21999999999935,124.284 C114.21999999999935,124.044 114.35000000000036,123.784 114.6299999999992,123.503 C114.80999999999949,123.294 115.10000000000036,123.044 115.47999999999956,122.753 C115.77000000000044,122.565 116.04000000000087,122.274 116.30999999999949,121.878 C116.56999999999971,121.503 116.70000000000073,121.091 116.70000000000073,120.643 C116.70000000000073,120.122 116.54000000000087,119.664 116.20000000000073,119.268 L115.5,118.425 C115.45000000000073,118.372 115.42000000000007,118.307 115.42000000000007,118.229 C115.42000000000007,118.151 115.45999999999913,118.081 115.53000000000065,118.018 C115.6299999999992,117.945 115.70000000000073,117.909 115.77000000000044,117.909 C115.86000000000058,117.909 115.93000000000029,117.951 115.97999999999956,118.034 L119.02000000000044,121.628 C119.13999999999942,121.794 119.20000000000073,121.961 119.20000000000073,122.128 C119.20000000000073,122.367 119.06999999999971,122.628 118.80999999999949,122.909 C118.64999999999964,123.096 118.3700000000008,123.346 117.97999999999956,123.659 C117.68000000000029,123.836 117.39999999999964,124.128 117.1299999999992,124.534 C116.8700000000008,124.909 116.72999999999956,125.32 116.72999999999956,125.768 C116.72999999999956,126.32 116.88999999999942,126.784 117.20000000000073,127.159 L118.8799999999992,129.128 C118.92000000000007,129.169 118.95000000000073,129.237 118.96999999999935,129.331 C118.96999999999935,129.414 118.94000000000051,129.492 118.8799999999992,129.565 C118.78000000000065,129.628 118.70000000000073,129.659 118.63999999999942,129.659 C118.6200000000008,129.659 118.52000000000044,129.586 118.32999999999993,129.44 C118.1299999999992,129.284 117.8700000000008,129.133 117.54999999999927,128.987 C117.18000000000029,128.852 116.81999999999971,128.784 116.46999999999935,128.784 C116.14999999999964,128.784 115.8799999999992,128.872 115.67000000000007,129.05 C115.5,129.237 115.40999999999985,129.591 115.40999999999985,130.112 C115.40999999999985,130.904 115.59000000000015,131.529 115.96999999999935,131.987 C116.01000000000022,132.039 116.02000000000044,132.102 115.97999999999956,132.175 C115.95999999999913,132.227 115.92000000000007,132.253 115.84000000000015,132.253 C115.76000000000022,132.253 115.55999999999949,132.018 115.25,131.55 C114.92000000000007,131.06 114.61000000000058,130.492 114.32999999999993,129.846 C114.03000000000065,129.169 113.8799999999992,128.612 113.8799999999992,128.175 C113.8799999999992,127.612 114.13999999999942,127.331 114.67000000000007,127.331 C115.29000000000087,127.331 116.07999999999993,127.539 117.05999999999949,127.956 L114.42000000000007,124.784 C114.29000000000087,124.617 114.21999999999935,124.451 114.21999999999935,124.284" />
<path d="M114.21999999999935,71.784 C114.21999999999935,71.5444 114.35000000000036,71.284 114.6299999999992,71.0027 C114.80999999999949,70.7944 115.10000000000036,70.5444 115.47999999999956,70.2527 C115.77000000000044,70.0652 116.04000000000087,69.7735 116.30999999999949,69.3777 C116.56999999999971,69.0027 116.70000000000073,68.5912 116.70000000000073,68.1433 C116.70000000000073,67.6225 116.54000000000087,67.1642 116.20000000000073,66.7683 L115.5,65.9246 C115.45000000000073,65.8725 115.42000000000007,65.8074 115.42000000000007,65.7293 C115.42000000000007,65.6511 115.45999999999913,65.5808 115.53000000000065,65.5183 C115.6299999999992,65.4454 115.70000000000073,65.409 115.77000000000044,65.409 C115.86000000000058,65.409 115.93000000000029,65.4506 115.97999999999956,65.534 L119.02000000000044,69.1277 C119.13999999999942,69.2944 119.20000000000073,69.461 119.20000000000073,69.6277 C119.20000000000073,69.8673 119.06999999999971,70.1277 118.80999999999949,70.409 C118.64999999999964,70.5965 118.3700000000008,70.8465 117.97999999999956,71.159 C117.68000000000029,71.336 117.39999999999964,71.6277 117.1299999999992,72.034 C116.8700000000008,72.409 116.72999999999956,72.8204 116.72999999999956,73.2683 C116.72999999999956,73.8204 116.88999999999942,74.284 117.20000000000073,74.659 L118.8799999999992,76.6277 C118.92000000000007,76.6694 118.95000000000073,76.7371 118.96999999999935,76.8308 C118.96999999999935,76.9142 118.94000000000051,76.9923 118.8799999999992,77.0652 C118.78000000000065,77.1277 118.70000000000073,77.159 118.63999999999942,77.159 C118.6200000000008,77.159 118.52000000000044,77.086 118.32999999999993,76.9402 C118.1299999999992,76.784 117.8700000000008,76.6329 117.54999999999927,76.4871 C117.18000000000029,76.3517 116.81999999999971,76.284 116.46999999999935,76.284 C116.14999999999964,76.284 115.8799999999992,76.3725 115.67000000000007,76.5496 C115.5,76.7371 115.40999999999985,77.0912 115.40999999999985,77.6121 C115.40999999999985,78.4037 115.59000000000015,79.0287 115.96999999999935,79.4871 C116.01000000000022,79.5392 116.02000000000044,79.6017 115.97999999999956,79.6746 C115.95999999999913,79.7267 115.92000000000007,79.7527 115.84000000000015,79.7527 C115.76000000000022,79.7527 115.55999999999949,79.5183 115.25,79.0496 C114.92000000000007,78.56 114.61000000000058,77.9923 114.32999999999993,77.3465 C114.03000000000065,76.6694 113.8799999999992,76.1121 113.8799999999992,75.6746 C113.8799999999992,75.1121 114.13999999999942,74.8308 114.67000000000007,74.8308 C115.29000000000087,74.8308 116.07999999999993,75.0392 117.05999999999949,75.4558 L114.42000000000007,72.284 C114.29000000000087,72.1173 114.21999999999935,71.9506 114.21999999999935,71.784" />
<path d="M169.3199999999997,234.596 L200.51000000000022,239.703 L200.51000000000022,242.203 L169.3199999999997,237.096 L169.3199999999997,234.596" />
<path d="M169.3199999999997,230.846 L185.23999999999978,233.453 L185.23999999999978,235.953 L169.3199999999997,233.346 L169.3199999999997,230.846" />
<path d="M53.26000000000022,249.596 L99.71999999999935,243.258 L99.71999999999935,245.758 L53.26000000000022,252.096 L53.26000000000022,249.596" />
<path d="M53.26000000000022,245.846 L99.71999999999935,239.508 L99.71999999999935,242.008 L53.26000000000022,248.346 L53.26000000000022,245.846" />
<path d="M53.26000000000022,124.596 L84.45000000000073,123.32 L84.45000000000073,125.82 L53.26000000000022,127.096 L53.26000000000022,124.596" />
<path d="M53.26000000000022,77.0965 L84.45000000000073,75.8199 L84.45000000000073,78.3199 L53.26000000000022,79.5965 L53.26000000000022,77.0965" />
<path d="M230.21999999999935,220.846 L230.21999999999935,215.846 L230.85000000000036,215.846 C230.85000000000036,216.586 230.98999999999978,217.331 231.29000000000087,218.081 C231.60000000000036,218.883 231.9400000000005,219.586 232.3199999999997,220.19 C232.59000000000015,220.617 233.0,221.274 233.54999999999927,222.159 C233.96999999999935,222.836 234.3199999999997,223.544 234.61000000000058,224.284 C234.88999999999942,225.024 235.04000000000087,225.768 235.04000000000087,226.518 C235.04000000000087,227.872 234.75,229.253 234.1900000000005,230.659 C234.10000000000036,230.815 233.96999999999935,230.893 233.8199999999997,230.893 C233.6900000000005,230.893 233.57999999999993,230.841 233.46999999999935,230.737 C233.38999999999942,230.654 233.35000000000036,230.555 233.35000000000036,230.44 L233.35000000000036,230.346 C233.90999999999985,229.055 234.1900000000005,227.779 234.1900000000005,226.518 C234.1900000000005,225.862 233.98999999999978,225.159 233.60000000000036,224.409 C233.20999999999913,223.638 232.8199999999997,223.024 232.40999999999985,222.565 C231.95000000000073,222.034 231.4300000000003,221.461 230.85000000000036,220.846 L230.21999999999935,220.846" />
<path d="M118.88999999999942,218.878 C119.19000000000051,218.878 119.52000000000044,219.362 119.86000000000058,220.331 C120.18000000000029,221.3 120.34000000000015,222.221 120.34000000000015,223.096 C120.34000000000015,223.836 120.15999999999985,224.57 119.79999999999927,225.3 C119.42000000000007,226.081 118.96999999999935,226.758 118.45000000000073,227.331 L116.84000000000015,229.128 C116.35000000000036,229.701 115.90999999999985,230.362 115.52000000000044,231.112 C115.14999999999964,231.841 114.96999999999935,232.586 114.96999999999935,233.346 L114.34000000000015,233.346 L114.34000000000015,228.346 L114.96999999999935,228.346 C115.31999999999971,228.128 115.84000000000015,227.774 116.53000000000065,227.284 C116.84000000000015,227.055 117.30999999999949,226.664 117.94000000000051,226.112 C118.45000000000073,225.643 118.82999999999993,225.164 119.09000000000015,224.675 C119.3700000000008,224.154 119.5,223.628 119.5,223.096 C119.5,221.857 119.13999999999942,220.622 118.42000000000007,219.393 C118.42000000000007,219.393 118.42000000000007,219.367 118.42000000000007,219.315 C118.42000000000007,219.201 118.45999999999913,219.107 118.54999999999927,219.034 C118.64999999999964,218.93 118.77000000000044,218.878 118.88999999999942,218.878" />
<path d="M232.95999999999913,234.151 C232.72999999999956,233.927 232.6200000000008,233.659 232.6200000000008,233.346 C232.6200000000008,233.034 232.72999999999956,232.766 232.95999999999913,232.542 C233.1800000000003,232.318 233.45000000000073,232.206 233.76000000000022,232.206 C234.07999999999993,232.206 234.34000000000015,232.318 234.5599999999995,232.542 C234.78000000000065,232.766 234.88999999999942,233.034 234.88999999999942,233.346 C234.88999999999942,233.659 234.78000000000065,233.927 234.5599999999995,234.151 C234.34000000000015,234.375 234.07999999999993,234.487 233.76000000000022,234.487 C233.45000000000073,234.487 233.1800000000003,234.375 232.95999999999913,234.151" />
<path d="M123.01000000000022,214.151 C122.79000000000087,213.927 122.68000000000029,213.659 122.68000000000029,213.346 C122.68000000000029,213.034 122.79000000000087,212.766 123.01000000000022,212.542 C123.23999999999978,212.318 123.51000000000022,212.206 123.81999999999971,212.206 C124.1299999999992,212.206 124.39999999999964,212.318 124.61000000000058,212.542 C124.82999999999993,212.766 124.94000000000051,213.034 124.94000000000051,213.346 C124.94000000000051,213.659 124.82999999999993,213.927 124.61000000000058,214.151 C124.39999999999964,214.375 124.1299999999992,214.487 123.81999999999971,214.487 C123.51000000000022,214.487 123.23999999999978,214.375 123.01000000000022,214.151" />
<polyline points="0.0,63.3465 255.0,63.3465" fill="none" stroke="#000000" stroke-width="0.40" />
<polyline points="0.0,68.3465 255.0,68.3465" fill="none" stroke="#000000" stroke-width="0.40" />
<polyline points="0.0,73.3465 255.0,73.3465" fill="none" stroke="#000000" stroke-width="0.40" />
<polyline points="0.0,78.3465 255.0,78.3465" fill="none" stroke="#000000" stroke-width="0.40" />
<polyline points="0.0,83.3465 255.0,83.3465" fill="none" stroke="#000000" stroke-width="0.40" />
<polyline points="0.0,115.846 255.0,115.846" fill="none" stroke="#000000" stroke-width="0.40" />
<polyline points="0.0,120.846 255.0,120.846" fill="none" stroke="#000000" stroke-width="0.40" />
<polyline points="0.0,125.846 255.0,125.846" fill="none" stroke="#000000" stroke-width="0.40" />
<polyline points="0.0,130.846 255.0,130.846" fill="none" stroke="#000000" stroke-width="0.40" />
<polyline points="0.0,135.846 255.0,135.846" fill="none" stroke="#000000" stroke-width="0.40" />
<polyline points="0.0,168.346 255.0,168.346" fill="none" stroke="#000000" stroke-width="0.40" />
<polyline points="0.0,173.346 255.0,173.346" fill="none" stroke="#000000" stroke-width="0.40" />
<polyline points="0.0,178.346 255.0,178.346" fill="none" stroke="#000000" stroke-width="0.40" />
<polyline points="0.0,183.346 255.0,183.346" fill="none" stroke="#000000" stroke-width="0.40" />
<polyline points="0.0,188.346 255.0,188.346" fill="none" stroke="#000000" stroke-width="0.40" />
<polyline points="0.0,220.846 255.0,220.846" fill="none" stroke="#000000" stroke-width="0.40" />
<polyline points="0.0,225.846 255.0,225.846" fill="none" stroke="#000000" stroke-width="0.40" />
<polyline points="0.0,230.846 255.0,230.846" fill="none" stroke="#000000" stroke-width="0.40" />
<polyline points="0.0,235.846 255.0,235.846" fill="none" stroke="#000000" stroke-width="0.40" />
<polyline points="0.0,240.846 255.0,240.846" fill="none" stroke="#000000" stroke-width="0.40" />
<polyline points="44.54999999999927,220.846 44.54999999999927,240.846" fill="" stroke="#000000" stroke-width="0.80" />
<polyline points="44.54999999999927,168.346 44.54999999999927,188.346" fill="" stroke="#000000" stroke-width="0.80" />
<polyline points="44.54999999999927,115.846 44.54999999999927,135.846" fill="" stroke="#000000" stroke-width="0.80" />
<polyline points="44.54999999999927,63.3465 44.54999999999927,83.3465" fill="" stroke="#000000" stroke-width="0.80" />
<polyline points="230.54999999999927,234.907 230.54999999999927,215.846" fill="" stroke="#000000" stroke-width="0.65" />
<polyline points="224.6200000000008,89.2855 224.6200000000008,125.846" fill="" stroke="#000000" stroke-width="0.65" />
<polyline points="224.6200000000008,66.7855 224.6200000000008,83.3465" fill="" stroke="#000000" stroke-width="0.65" />
<polyline points="200.1800000000003,226.786 200.1800000000003,240.846" fill="" stroke="#000000" stroke-width="0.65" />
<polyline points="184.90999999999985,219.286 184.90999999999985,238.346" fill="" stroke="#000000" stroke-width="0.65" />
<polyline points="169.63999999999942,219.286 169.63999999999942,235.846" fill="" stroke="#000000" stroke-width="0.65" />
<polyline points="175.76000000000022,195.078 175.76000000000022,158.971" fill="" stroke="#000000" stroke-width="0.65" />
<polyline points="169.63999999999942,86.7855 169.63999999999942,125.846" fill="" stroke="#000000" stroke-width="0.65" />
<polyline points="169.63999999999942,64.2855 169.63999999999942,80.8465" fill="" stroke="#000000" stroke-width="0.65" />
<polyline points="114.67000000000007,216.786 114.67000000000007,233.346" fill="" stroke="#000000" stroke-width="0.65" />
<polyline points="99.39999999999964,224.286 99.39999999999964,244.596" fill="" stroke="#000000" stroke-width="0.65" />
<polyline points="84.1299999999992,224.286 84.1299999999992,246.68" fill="" stroke="#000000" stroke-width="0.65" />
<polyline points="84.1299999999992,84.2855 84.1299999999992,124.596" fill="" stroke="#000000" stroke-width="0.65" />
<polyline points="84.1299999999992,61.7855 84.1299999999992,77.0965" fill="" stroke="#000000" stroke-width="0.65" />
<polyline points="68.86000000000058,234.286 68.86000000000058,248.763" fill="" stroke="#000000" stroke-width="0.65" />
<polyline points="53.590000000000146,234.286 53.590000000000146,250.846" fill="" stroke="#000000" stroke-width="0.65" />
<polyline points="59.70000000000073,192.578 59.70000000000073,157.096" fill="" stroke="#000000" stroke-width="0.65" />
<polyline points="53.590000000000146,86.7855 53.590000000000146,125.846" fill="" stroke="#000000" stroke-width="0.65" />
<polyline points="53.590000000000146,64.2855 53.590000000000146,78.3465" fill="" stroke="#000000" stroke-width="0.65" />
<polyline points="26.6299999999992,236.786 26.6299999999992,255.846" fill="" stroke="#000000" stroke-width="0.65" />
<polyline points="8.790000000000873,236.786 8.790000000000873,253.763" fill="" stroke="#000000" stroke-width="0.65" />
<polyline points="222.79000000000087,90.8465 232.3700000000008,90.8465" fill="" stroke="#000000" stroke-width="0.80" />
<polyline points="222.79000000000087,95.8465 232.3700000000008,95.8465" fill="" stroke="#000000" stroke-width="0.80" />
<polyline points="222.79000000000087,100.846 232.3700000000008,100.846" fill="" stroke="#000000" stroke-width="0.80" />
<polyline points="222.79000000000087,105.846 232.3700000000008,105.846" fill="" stroke="#000000" stroke-width="0.80" />
<polyline points="222.79000000000087,110.846 232.3700000000008,110.846" fill="" stroke="#000000" stroke-width="0.80" />
<polyline points="167.63999999999942,193.346 177.57999999999993,193.346" fill="" stroke="#000000" stroke-width="0.80" />
<polyline points="167.8199999999997,85.8465 177.39999999999964,85.8465" fill="" stroke="#000000" stroke-width="0.80" />
<polyline points="167.8199999999997,90.8465 177.39999999999964,90.8465" fill="" stroke="#000000" stroke-width="0.80" />
<polyline points="167.8199999999997,95.8465 177.39999999999964,95.8465" fill="" stroke="#000000" stroke-width="0.80" />
<polyline points="167.8199999999997,100.846 177.39999999999964,100.846" fill="" stroke="#000000" stroke-width="0.80" />
<polyline points="167.8199999999997,105.846 177.39999999999964,105.846" fill="" stroke="#000000" stroke-width="0.80" />
<polyline points="167.8199999999997,110.846 177.39999999999964,110.846" fill="" stroke="#000000" stroke-width="0.80" />
<polyline points="112.84000000000015,215.846 122.43000000000029,215.846" fill="" stroke="#000000" stroke-width="0.80" />
<polyline points="82.29999999999927,85.8465 91.88999999999942,85.8465" fill="" stroke="#000000" stroke-width="0.80" />
<polyline points="82.29999999999927,90.8465 91.88999999999942,90.8465" fill="" stroke="#000000" stroke-width="0.80" />
<polyline points="82.29999999999927,95.8465 91.88999999999942,95.8465" fill="" stroke="#000000" stroke-width="0.80" />
<polyline points="82.29999999999927,100.846 91.88999999999942,100.846" fill="" stroke="#000000" stroke-width="0.80" />
<polyline points="82.29999999999927,105.846 91.88999999999942,105.846" fill="" stroke="#000000" stroke-width="0.80" />
<polyline points="82.29999999999927,110.846 91.88999999999942,110.846" fill="" stroke="#000000" stroke-width="0.80" />
<polyline points="51.57999999999993,193.346 61.530000000000655,193.346" fill="" stroke="#000000" stroke-width="0.80" />
<polyline points="51.76000000000022,85.8465 61.350000000000364,85.8465" fill="" stroke="#000000" stroke-width="0.80" />
<polyline points="51.76000000000022,90.8465 61.350000000000364,90.8465" fill="" stroke="#000000" stroke-width="0.80" />
<polyline points="51.76000000000022,95.8465 61.350000000000364,95.8465" fill="" stroke="#000000" stroke-width="0.80" />
<polyline points="51.76000000000022,100.846 61.350000000000364,100.846" fill="" stroke="#000000" stroke-width="0.80" />
<polyline points="51.76000000000022,105.846 61.350000000000364,105.846" fill="" stroke="#000000" stroke-width="0.80" />
<polyline points="51.76000000000022,110.846 61.350000000000364,110.846" fill="" stroke="#000000" stroke-width="0.80" />
<polyline points="61.100000000000364,62.9747 82.6299999999992,62.9747" fill="" stroke="#000000" stroke-width="0.75" />
</svg>
