<?xml version="1.0" encoding="UTF-8" standalone="yes"?>
<svg width="256.0px" height="256.0px" xmlns="http://www.w3.org/2000/svg" xmlns:xlink="http://www.w3.org/1999/xlink" version="1.2" baseProfile="tiny">
<path d="M176.5,85.88099999999997 C181.10000000000036,89.03499999999997 195.20000000000073,89.03499999999997 199.79999999999927,85.88099999999997 C195.20000000000073,89.83500000000004 181.10000000000036,89.83500000000004 176.5,85.88099999999997" />
<path d="M51.899999999999636,85.88099999999997 C56.5,89.03499999999997 70.60000000000036,89.03499999999997 75.29999999999927,85.88099999999997 C70.60000000000036,89.83500000000004 56.5,89.83500000000004 51.899999999999636,85.88099999999997" />
<path d="M80.29999999999927,17.596000000000004 C86.20000000000073,12.761999999999944 103.70000000000073,12.761999999999944 109.5,17.596000000000004 C103.70000000000073,13.562000000000012 86.20000000000073,13.562000000000012 80.29999999999927,17.596000000000004" />
<path d="M133.60000000000036,13.846000000000004 C133.79999999999927,13.753000000000043 133.89999999999964,13.706000000000017 134.10000000000036,13.706000000000017 C134.29999999999927,13.706000000000017 134.39999999999964,13.753000000000043 134.60000000000036,13.846000000000004 L134.60000000000036,17.503000000000043 L136.70000000000073,17.111999999999966 L136.79999999999927,17.111999999999966 C137.0,17.111999999999966 137.10000000000036,17.221000000000004 137.10000000000036,17.440000000000055 L137.29999999999927,28.846000000000004 C137.10000000000036,28.940000000000055 136.89999999999964,28.986999999999966 136.70000000000073,28.986999999999966 C136.60000000000036,28.986999999999966 136.39999999999964,28.940000000000055 136.20000000000073,28.846000000000004 L136.29999999999927,25.190000000000055 L134.20000000000073,25.581000000000017 L134.10000000000036,25.581000000000017 C133.89999999999964,25.581000000000017 133.79999999999927,25.471000000000004 133.79999999999927,25.253000000000043 L133.60000000000036,13.846000000000004 M136.29999999999927,23.236999999999966 L136.39999999999964,19.096000000000004 L134.5,19.456000000000017 L134.5,23.596000000000004 L136.29999999999927,23.236999999999966" />
<path d="M71.39999999999964,20.51800000000003 L71.39999999999964,22.065000000000055 C71.39999999999964,22.616999999999962 71.5,23.05499999999995 71.5,23.378000000000043 C71.89999999999964,23.013000000000034 72.20000000000073,22.741999999999962 72.39999999999964,22.565000000000055 C72.60000000000036,22.35699999999997 72.79999999999927,22.067999999999984 73.10000000000036,21.69799999999998 C73.29999999999927,21.327999999999975 73.39999999999964,20.961000000000013 73.39999999999964,20.596000000000004 C73.39999999999964,20.23199999999997 73.29999999999927,19.918999999999983 73.10000000000036,19.658999999999992 C73.0,19.399 72.79999999999927,19.26800000000003 72.5,19.26800000000003 C72.20000000000073,19.26800000000003 71.89999999999964,19.388000000000034 71.70000000000073,19.628000000000043 C71.5,19.888000000000034 71.39999999999964,20.184999999999945 71.39999999999964,20.51800000000003 M70.60000000000036,24.096000000000004 L70.39999999999964,12.206000000000017 C70.5,12.101999999999975 70.70000000000073,12.049999999999955 70.89999999999964,12.049999999999955 C71.10000000000036,12.049999999999955 71.29999999999927,12.101999999999975 71.39999999999964,12.206000000000017 L71.29999999999927,19.096000000000004 C71.79999999999927,18.638000000000034 72.39999999999964,18.408999999999992 73.10000000000036,18.408999999999992 C73.60000000000036,18.408999999999992 74.10000000000036,18.616999999999962 74.39999999999964,19.033999999999992 C74.70000000000073,19.451000000000022 74.89999999999964,19.92999999999995 74.89999999999964,20.471000000000004 C74.89999999999964,20.80499999999995 74.79999999999927,21.163999999999987 74.60000000000036,21.549999999999955 C74.39999999999964,21.89300000000003 74.10000000000036,22.163999999999987 73.89999999999964,22.361999999999966 C73.79999999999927,22.466000000000008 73.39999999999964,22.726999999999975 72.89999999999964,23.14300000000003 C72.79999999999927,23.258000000000038 72.60000000000036,23.39300000000003 72.39999999999964,23.549999999999955 C72.10000000000036,23.706000000000017 72.0,23.80499999999995 72.0,23.846000000000004 C71.89999999999964,23.899 71.79999999999927,24.003000000000043 71.70000000000073,24.158999999999992 C71.60000000000036,24.293999999999983 71.5,24.403999999999996 71.39999999999964,24.486999999999966 C71.29999999999927,24.57000000000005 71.20000000000073,24.611999999999966 71.10000000000036,24.611999999999966 C70.89999999999964,24.611999999999966 70.79999999999927,24.565000000000055 70.70000000000073,24.471000000000004 C70.60000000000036,24.378000000000043 70.60000000000036,24.253000000000043 70.60000000000036,24.096000000000004" />
<path d="M236.20000000000073,71.096 C236.79999999999927,71.096 237.29999999999927,71.25800000000004 237.79999999999927,71.58100000000002 C238.20000000000073,71.93499999999995 238.39999999999964,72.37800000000004 238.39999999999964,72.90899999999999 C238.39999999999964,73.80499999999995 237.89999999999964,74.64300000000003 237.0,75.42499999999995 C236.0,76.20600000000002 235.0,76.596 234.0,76.596 C233.29999999999927,76.596 232.79999999999927,76.43499999999995 232.39999999999964,76.11199999999997 C232.0,75.75800000000004 231.79999999999927,75.31500000000005 231.79999999999927,74.78399999999999 C231.79999999999927,73.88800000000003 232.20000000000073,73.04999999999995 233.20000000000073,72.26800000000003 C234.10000000000036,71.48699999999997 235.10000000000036,71.096 236.20000000000073,71.096" />
<path d="M236.20000000000073,13.596000000000004 C236.79999999999927,13.596000000000004 237.29999999999927,13.758000000000038 237.79999999999927,14.081000000000017 C238.20000000000073,14.434999999999945 238.39999999999964,14.878000000000043 238.39999999999964,15.408999999999992 C238.39999999999964,16.30499999999995 237.89999999999964,17.14300000000003 237.0,17.924999999999955 C236.0,18.706000000000017 235.0,19.096000000000004 234.0,19.096000000000004 C233.29999999999927,19.096000000000004 232.79999999999927,18.934999999999945 232.39999999999964,18.611999999999966 C232.0,18.258000000000038 231.79999999999927,17.815000000000055 231.79999999999927,17.283999999999992 C231.79999999999927,16.388000000000034 232.20000000000073,15.549999999999955 233.20000000000073,14.768000000000029 C234.10000000000036,13.986999999999966 235.10000000000036,13.596000000000004 236.20000000000073,13.596000000000004" />
<path d="M205.0,71.096 C205.60000000000036,71.096 206.20000000000073,71.25800000000004 206.60000000000036,71.58100000000002 C207.0,71.93499999999995 207.20000000000073,72.37800000000004 207.20000000000073,72.90899999999999 C207.20000000000073,73.80499999999995 206.70000000000073,74.64300000000003 205.79999999999927,75.42499999999995 C204.89999999999964,76.20600000000002 203.89999999999964,76.596 202.79999999999927,76.596 C202.20000000000073,76.596 201.70000000000073,76.43499999999995 201.20000000000073,76.11199999999997 C200.79999999999927,75.75800000000004 200.60000000000036,75.31500000000005 200.60000000000036,74.78399999999999 C200.60000000000036,73.88800000000003 201.10000000000036,73.04999999999995 202.0,72.26800000000003 C203.0,71.48699999999997 203.89999999999964,71.096 205.0,71.096" />
<path d="M205.0,81.096 C205.60000000000036,81.096 206.20000000000073,81.25800000000004 206.60000000000036,81.58100000000002 C207.0,81.93499999999995 207.20000000000073,82.37800000000004 207.20000000000073,82.90899999999999 C207.20000000000073,83.80499999999995 206.70000000000073,84.64300000000003 205.79999999999927,85.42499999999995 C204.89999999999964,86.20600000000002 203.89999999999964,86.596 202.79999999999927,86.596 C202.20000000000073,86.596 201.70000000000073,86.43499999999995 201.20000000000073,86.11199999999997 C200.79999999999927,85.75800000000004 200.60000000000036,85.31500000000005 200.60000000000036,84.78399999999999 C200.60000000000036,83.88800000000003 201.10000000000036,83.04999999999995 202.0,82.26800000000003 C203.0,81.48699999999997 203.89999999999964,81.096 205.0,81.096" />
<path d="M175.70000000000073,61.096000000000004 C176.0,61.096000000000004 176.10000000000036,61.17999999999995 176.29999999999927,61.346000000000004 C176.39999999999964,61.524 176.5,61.70100000000002 176.5,61.87800000000004 C176.5,62.15899999999999 176.20000000000073,62.513000000000034 175.70000000000073,62.940000000000055 C175.20000000000073,63.399 174.89999999999964,63.721000000000004 174.79999999999927,63.90899999999999 C174.70000000000073,64.05499999999995 174.5,64.38800000000003 174.29999999999927,64.90899999999999 C174.10000000000036,65.44000000000005 173.79999999999927,65.85699999999997 173.60000000000036,66.15899999999999 C173.29999999999927,66.44000000000005 173.0,66.58100000000002 172.70000000000073,66.58100000000002 C172.60000000000036,66.58100000000002 172.29999999999927,66.54399999999998 172.0,66.471 C171.60000000000036,66.38800000000003 171.39999999999964,66.346 171.20000000000073,66.346 C171.10000000000036,66.346 170.79999999999927,66.38800000000003 170.5,66.471 C170.20000000000073,66.55499999999995 170.0,66.596 169.79999999999927,66.596 C169.60000000000036,66.596 169.39999999999964,66.51300000000003 169.29999999999927,66.346 C169.10000000000036,66.149 169.10000000000036,65.971 169.10000000000036,65.81500000000005 C169.10000000000036,65.53399999999999 169.29999999999927,65.17999999999995 169.89999999999964,64.75300000000004 C170.39999999999964,64.29399999999998 170.70000000000073,63.971000000000004 170.79999999999927,63.78399999999999 C170.89999999999964,63.690000000000055 171.0,63.351999999999975 171.29999999999927,62.76800000000003 C171.5,62.236999999999966 171.70000000000073,61.82600000000002 172.0,61.53399999999999 C172.20000000000073,61.25300000000004 172.5,61.111999999999966 172.79999999999927,61.111999999999966 C173.0,61.111999999999966 173.20000000000073,61.149 173.60000000000036,61.221000000000004 C173.89999999999964,61.30499999999995 174.10000000000036,61.346000000000004 174.29999999999927,61.346000000000004 C174.39999999999964,61.346000000000004 174.70000000000073,61.30499999999995 175.0,61.221000000000004 C175.29999999999927,61.138000000000034 175.60000000000036,61.096000000000004 175.70000000000073,61.096000000000004" />
<path d="M173.5,81.096 C174.10000000000036,81.096 174.60000000000036,81.25800000000004 175.10000000000036,81.58100000000002 C175.5,81.93499999999995 175.70000000000073,82.37800000000004 175.70000000000073,82.90899999999999 C175.70000000000073,83.80499999999995 175.20000000000073,84.64300000000003 174.29999999999927,85.42499999999995 C173.29999999999927,86.20600000000002 172.29999999999927,86.596 171.29999999999927,86.596 C170.60000000000036,86.596 170.10000000000036,86.43499999999995 169.70000000000073,86.11199999999997 C169.29999999999927,85.75800000000004 169.10000000000036,85.31500000000005 169.10000000000036,84.78399999999999 C169.10000000000036,83.88800000000003 169.60000000000036,83.04999999999995 170.5,82.26800000000003 C171.39999999999964,81.48699999999997 172.39999999999964,81.096 173.5,81.096" />
<path d="M173.89999999999964,16.096000000000004 C174.5,16.096000000000004 175.0,16.258000000000038 175.5,16.581000000000017 C175.89999999999964,16.934999999999945 176.10000000000036,17.378000000000043 176.10000000000036,17.908999999999992 C176.10000000000036,18.80499999999995 175.60000000000036,19.64300000000003 174.70000000000073,20.424999999999955 C173.70000000000073,21.206000000000017 172.70000000000073,21.596000000000004 171.70000000000073,21.596000000000004 C171.0,21.596000000000004 170.5,21.434999999999945 170.10000000000036,21.111999999999966 C169.70000000000073,20.758000000000038 169.5,20.315000000000055 169.5,19.783999999999992 C169.5,18.888000000000034 170.0,18.049999999999955 170.89999999999964,17.26800000000003 C171.79999999999927,16.486999999999966 172.79999999999927,16.096000000000004 173.89999999999964,16.096000000000004" />
<path d="M142.70000000000073,71.096 C143.39999999999964,71.096 143.89999999999964,71.25800000000004 144.29999999999927,71.58100000000002 C144.70000000000073,71.93499999999995 144.89999999999964,72.37800000000004 144.89999999999964,72.90899999999999 C144.89999999999964,73.80499999999995 144.5,74.64300000000003 143.5,75.42499999999995 C142.60000000000036,76.20600000000002 141.60000000000036,76.596 140.5,76.596 C139.89999999999964,76.596 139.39999999999964,76.43499999999995 138.89999999999964,76.11199999999997 C138.5,75.75800000000004 138.29999999999927,75.31500000000005 138.29999999999927,74.78399999999999 C138.29999999999927,73.88800000000003 138.79999999999927,73.04999999999995 139.70000000000073,72.26800000000003 C140.70000000000073,71.48699999999997 141.70000000000073,71.096 142.70000000000073,71.096" />
<path d="M142.70000000000073,18.596000000000004 C143.39999999999964,18.596000000000004 143.89999999999964,18.758000000000038 144.29999999999927,19.081000000000017 C144.70000000000073,19.434999999999945 144.89999999999964,19.878000000000043 144.89999999999964,20.408999999999992 C144.89999999999964,21.30499999999995 144.5,22.14300000000003 143.5,22.924999999999955 C142.60000000000036,23.706000000000017 141.60000000000036,24.096000000000004 140.5,24.096000000000004 C139.89999999999964,24.096000000000004 139.39999999999964,23.934999999999945 138.89999999999964,23.611999999999966 C138.5,23.258000000000038 138.29999999999927,22.815000000000055 138.29999999999927,22.283999999999992 C138.29999999999927,21.388000000000034 138.79999999999927,20.549999999999955 139.70000000000073,19.76800000000003 C140.70000000000073,18.986999999999966 141.70000000000073,18.596000000000004 142.70000000000073,18.596000000000004" />
<path d="M111.60000000000036,71.096 C112.20000000000073,71.096 112.70000000000073,71.25800000000004 113.20000000000073,71.58100000000002 C113.60000000000036,71.93499999999995 113.79999999999927,72.37800000000004 113.79999999999927,72.90899999999999 C113.79999999999927,73.80499999999995 113.29999999999927,74.64300000000003 112.39999999999964,75.42499999999995 C111.5,76.20600000000002 110.39999999999964,76.596 109.39999999999964,76.596 C108.79999999999927,76.596 108.20000000000073,76.43499999999995 107.79999999999927,76.11199999999997 C107.39999999999964,75.75800000000004 107.20000000000073,75.31500000000005 107.20000000000073,74.78399999999999 C107.20000000000073,73.88800000000003 107.70000000000073,73.04999999999995 108.60000000000036,72.26800000000003 C109.5,71.48699999999997 110.5,71.096 111.60000000000036,71.096" />
<path d="M111.60000000000036,18.596000000000004 C112.20000000000073,18.596000000000004 112.70000000000073,18.758000000000038 113.20000000000073,19.081000000000017 C113.60000000000036,19.434999999999945 113.79999999999927,19.878000000000043 113.79999999999927,20.408999999999992 C113.79999999999927,21.30499999999995 113.29999999999927,22.14300000000003 112.39999999999964,22.924999999999955 C111.5,23.706000000000017 110.39999999999964,24.096000000000004 109.39999999999964,24.096000000000004 C108.79999999999927,24.096000000000004 108.20000000000073,23.934999999999945 107.79999999999927,23.611999999999966 C107.39999999999964,23.258000000000038 107.20000000000073,22.815000000000055 107.20000000000073,22.283999999999992 C107.20000000000073,21.388000000000034 107.70000000000073,20.549999999999955 108.60000000000036,19.76800000000003 C109.5,18.986999999999966 110.5,18.596000000000004 111.60000000000036,18.596000000000004" />
<path d="M80.39999999999964,71.096 C81.10000000000036,71.096 81.60000000000036,71.25800000000004 82.0,71.58100000000002 C82.39999999999964,71.93499999999995 82.60000000000036,72.37800000000004 82.60000000000036,72.90899999999999 C82.60000000000036,73.80499999999995 82.20000000000073,74.64300000000003 81.20000000000073,75.42499999999995 C80.29999999999927,76.20600000000002 79.29999999999927,76.596 78.20000000000073,76.596 C77.60000000000036,76.596 77.10000000000036,76.43499999999995 76.70000000000073,76.11199999999997 C76.20000000000073,75.75800000000004 76.0,75.31500000000005 76.0,74.78399999999999 C76.0,73.88800000000003 76.5,73.04999999999995 77.39999999999964,72.26800000000003 C78.39999999999964,71.48699999999997 79.39999999999964,71.096 80.39999999999964,71.096" />
<path d="M80.39999999999964,81.096 C81.10000000000036,81.096 81.60000000000036,81.25800000000004 82.0,81.58100000000002 C82.39999999999964,81.93499999999995 82.60000000000036,82.37800000000004 82.60000000000036,82.90899999999999 C82.60000000000036,83.80499999999995 82.20000000000073,84.64300000000003 81.20000000000073,85.42499999999995 C80.29999999999927,86.20600000000002 79.29999999999927,86.596 78.20000000000073,86.596 C77.60000000000036,86.596 77.10000000000036,86.43499999999995 76.70000000000073,86.11199999999997 C76.20000000000073,85.75800000000004 76.0,85.31500000000005 76.0,84.78399999999999 C76.0,83.88800000000003 76.5,83.04999999999995 77.39999999999964,82.26800000000003 C78.39999999999964,81.48699999999997 79.39999999999964,81.096 80.39999999999964,81.096" />
<path d="M80.39999999999964,18.596000000000004 C81.10000000000036,18.596000000000004 81.60000000000036,18.758000000000038 82.0,19.081000000000017 C82.39999999999964,19.434999999999945 82.60000000000036,19.878000000000043 82.60000000000036,20.408999999999992 C82.60000000000036,21.30499999999995 82.20000000000073,22.14300000000003 81.20000000000073,22.924999999999955 C80.29999999999927,23.706000000000017 79.29999999999927,24.096000000000004 78.20000000000073,24.096000000000004 C77.60000000000036,24.096000000000004 77.10000000000036,23.934999999999945 76.70000000000073,23.611999999999966 C76.20000000000073,23.258000000000038 76.0,22.815000000000055 76.0,22.283999999999992 C76.0,21.388000000000034 76.5,20.549999999999955 77.39999999999964,19.76800000000003 C78.39999999999964,18.986999999999966 79.39999999999964,18.596000000000004 80.39999999999964,18.596000000000004" />
<path d="M51.100000000000364,61.096000000000004 C51.399999999999636,61.096000000000004 51.600000000000364,61.17999999999995 51.70000000000073,61.346000000000004 C51.79999999999927,61.524 51.899999999999636,61.70100000000002 51.899999999999636,61.87800000000004 C51.899999999999636,62.15899999999999 51.600000000000364,62.513000000000034 51.100000000000364,62.940000000000055 C50.600000000000364,63.399 50.29999999999927,63.721000000000004 50.20000000000073,63.90899999999999 C50.100000000000364,64.05499999999995 49.899999999999636,64.38800000000003 49.70000000000073,64.90899999999999 C49.5,65.44000000000005 49.29999999999927,65.85699999999997 49.0,66.15899999999999 C48.70000000000073,66.44000000000005 48.399999999999636,66.58100000000002 48.100000000000364,66.58100000000002 C48.0,66.58100000000002 47.70000000000073,66.54399999999998 47.399999999999636,66.471 C47.100000000000364,66.38800000000003 46.79999999999927,66.346 46.70000000000073,66.346 C46.5,66.346 46.20000000000073,66.38800000000003 45.899999999999636,66.471 C45.600000000000364,66.55499999999995 45.399999999999636,66.596 45.20000000000073,66.596 C45.0,66.596 44.79999999999927,66.51300000000003 44.70000000000073,66.346 C44.600000000000364,66.149 44.5,65.971 44.5,65.81500000000005 C44.5,65.53399999999999 44.79999999999927,65.17999999999995 45.29999999999927,64.75300000000004 C45.79999999999927,64.29399999999998 46.100000000000364,63.971000000000004 46.20000000000073,63.78399999999999 C46.29999999999927,63.690000000000055 46.399999999999636,63.351999999999975 46.70000000000073,62.76800000000003 C46.899999999999636,62.236999999999966 47.100000000000364,61.82600000000002 47.399999999999636,61.53399999999999 C47.600000000000364,61.25300000000004 47.899999999999636,61.111999999999966 48.29999999999927,61.111999999999966 C48.399999999999636,61.111999999999966 48.600000000000364,61.149 49.0,61.221000000000004 C49.29999999999927,61.30499999999995 49.5,61.346000000000004 49.70000000000073,61.346000000000004 C49.899999999999636,61.346000000000004 50.100000000000364,61.30499999999995 50.399999999999636,61.221000000000004 C50.70000000000073,61.138000000000034 51.0,61.096000000000004 51.100000000000364,61.096000000000004" />
<path d="M48.899999999999636,81.096 C49.5,81.096 50.0,81.25800000000004 50.5,81.58100000000002 C50.899999999999636,81.93499999999995 51.100000000000364,82.37800000000004 51.100000000000364,82.90899999999999 C51.100000000000364,83.80499999999995 50.600000000000364,84.64300000000003 49.70000000000073,85.42499999999995 C48.79999999999927,86.20600000000002 47.79999999999927,86.596 46.70000000000073,86.596 C46.100000000000364,86.596 45.5,86.43499999999995 45.100000000000364,86.11199999999997 C44.70000000000073,85.75800000000004 44.5,85.31500000000005 44.5,84.78399999999999 C44.5,83.88800000000003 45.0,83.04999999999995 45.899999999999636,82.26800000000003 C46.79999999999927,81.48699999999997 47.79999999999927,81.096 48.899999999999636,81.096" />
<path d="M49.29999999999927,21.096000000000004 C49.899999999999636,21.096000000000004 50.399999999999636,21.258000000000038 50.899999999999636,21.581000000000017 C51.29999999999927,21.934999999999945 51.5,22.378000000000043 51.5,22.908999999999992 C51.5,23.80499999999995 51.0,24.64300000000003 50.100000000000364,25.424999999999955 C49.20000000000073,26.206000000000017 48.20000000000073,26.596000000000004 47.100000000000364,26.596000000000004 C46.5,26.596000000000004 45.899999999999636,26.434999999999945 45.5,26.111999999999966 C45.100000000000364,25.758000000000038 44.899999999999636,25.315000000000055 44.899999999999636,24.783999999999992 C44.899999999999636,23.888000000000034 45.399999999999636,23.049999999999955 46.29999999999927,22.26800000000003 C47.20000000000073,21.486999999999966 48.20000000000073,21.096000000000004 49.29999999999927,21.096000000000004" />
<path d="M18.100000000000364,71.096 C18.799999999999272,71.096 19.299999999999272,71.25800000000004 19.700000000000728,71.58100000000002 C20.100000000000364,71.93499999999995 20.299999999999272,72.37800000000004 20.299999999999272,72.90899999999999 C20.299999999999272,73.80499999999995 19.899999999999636,74.64300000000003 18.899999999999636,75.42499999999995 C18.0,76.20600000000002 17.0,76.596 15.899999999999636,76.596 C15.299999999999272,76.596 14.799999999999272,76.43499999999995 14.399999999999636,76.11199999999997 C13.899999999999636,75.75800000000004 13.700000000000728,75.31500000000005 13.700000000000728,74.78399999999999 C13.700000000000728,73.88800000000003 14.200000000000728,73.04999999999995 15.200000000000728,72.26800000000003 C16.100000000000364,71.48699999999997 17.100000000000364,71.096 18.100000000000364,71.096" />
<path d="M41.399999999999636,101.26800000000003 L40.399999999999636,104.36199999999997 C40.100000000000364,105.47699999999998 39.5,106.55499999999995 38.79999999999927,107.596 C38.0,108.63800000000003 37.20000000000073,109.15899999999999 36.29999999999927,109.15899999999999 C35.899999999999636,109.15899999999999 35.5,109.04700000000003 35.20000000000073,108.82299999999998 C34.899999999999636,108.59900000000005 34.70000000000073,108.30999999999995 34.70000000000073,107.95600000000002 C34.70000000000073,107.54999999999995 34.79999999999927,107.20600000000002 35.0,106.92499999999995 C35.100000000000364,106.654 35.399999999999636,106.50800000000004 35.70000000000073,106.48699999999997 C35.899999999999636,106.48699999999997 36.100000000000364,106.57000000000005 36.29999999999927,106.73699999999997 C36.399999999999636,106.904 36.5,107.096 36.5,107.31500000000005 C36.5,107.51300000000003 36.399999999999636,107.69500000000005 36.20000000000073,107.86199999999997 C35.899999999999636,108.00800000000004 35.79999999999927,108.17499999999995 35.79999999999927,108.36199999999997 C35.79999999999927,108.48699999999997 35.899999999999636,108.54999999999995 36.20000000000073,108.54999999999995 L36.29999999999927,108.54999999999995 C36.399999999999636,108.54999999999995 36.5,108.53399999999999 36.600000000000364,108.50300000000004 C36.70000000000073,108.49199999999996 36.79999999999927,108.45100000000002 36.899999999999636,108.37800000000004 C36.899999999999636,108.37800000000004 36.899999999999636,108.32600000000002 37.100000000000364,108.221 C37.20000000000073,108.10699999999997 37.20000000000073,108.024 37.20000000000073,107.971 C37.29999999999927,107.86699999999996 37.29999999999927,107.78399999999999 37.29999999999927,107.721 C37.399999999999636,107.67999999999995 37.399999999999636,107.57600000000002 37.399999999999636,107.40899999999999 C37.5,107.36699999999996 37.5,107.32000000000005 37.5,107.26800000000003 C37.5,107.21600000000001 37.5,107.17999999999995 37.5,107.15899999999999 C37.5,107.13800000000003 37.5,107.12199999999996 37.5,107.11199999999997 C37.600000000000364,106.904 37.600000000000364,106.779 37.600000000000364,106.73699999999997 C37.70000000000073,106.529 37.70000000000073,106.42499999999995 37.70000000000073,106.42499999999995 L39.0,101.26800000000003 L38.0,101.26800000000003 C37.899999999999636,101.26800000000003 37.79999999999927,101.23699999999997 37.79999999999927,101.17499999999995 C37.79999999999927,101.09100000000001 37.70000000000073,101.01800000000003 37.70000000000073,100.95600000000002 C37.70000000000073,100.87199999999996 37.79999999999927,100.79999999999995 37.79999999999927,100.73699999999997 C37.899999999999636,100.67499999999995 38.0,100.64300000000003 38.0,100.64300000000003 L39.20000000000073,100.64300000000003 C39.5,99.66399999999999 40.0,98.82000000000005 40.79999999999927,98.11199999999997 C41.5,97.38300000000004 42.29999999999927,97.01800000000003 43.20000000000073,97.01800000000003 C43.600000000000364,97.01800000000003 44.0,97.13300000000004 44.29999999999927,97.36199999999997 C44.600000000000364,97.58100000000002 44.79999999999927,97.86699999999996 44.79999999999927,98.221 C44.79999999999927,98.60699999999997 44.70000000000073,98.95100000000002 44.600000000000364,99.25300000000004 C44.399999999999636,99.524 44.100000000000364,99.66399999999999 43.79999999999927,99.67499999999995 C43.600000000000364,99.67499999999995 43.399999999999636,99.59400000000005 43.29999999999927,99.43200000000002 C43.100000000000364,99.27099999999996 43.0,99.08100000000002 43.0,98.86199999999997 C43.0,98.67499999999995 43.100000000000364,98.50300000000004 43.399999999999636,98.346 C43.600000000000364,98.19000000000005 43.70000000000073,98.01300000000003 43.70000000000073,97.81500000000005 C43.70000000000073,97.66899999999998 43.600000000000364,97.60199999999998 43.29999999999927,97.61199999999997 L43.29999999999927,97.61199999999997 C43.20000000000073,97.63300000000004 43.20000000000073,97.63800000000003 43.20000000000073,97.62800000000004 C43.0,97.62800000000004 42.79999999999927,97.68499999999995 42.600000000000364,97.79999999999995 C42.399999999999636,97.904 42.29999999999927,98.09100000000001 42.20000000000073,98.36199999999997 C42.100000000000364,98.43499999999995 42.100000000000364,98.50800000000004 42.100000000000364,98.58100000000002 C42.0,98.654 42.0,98.73400000000004 42.0,98.82299999999998 C41.899999999999636,98.91200000000003 41.899999999999636,98.971 41.899999999999636,99.00300000000004 C41.899999999999636,99.06500000000005 41.899999999999636,99.19500000000005 41.79999999999927,99.39300000000003 C41.79999999999927,99.58100000000002 41.79999999999927,99.74199999999996 41.70000000000073,99.87800000000004 C41.600000000000364,100.274 41.600000000000364,100.529 41.600000000000364,100.64300000000003 L42.600000000000364,100.64300000000003 C42.70000000000073,100.64300000000003 42.79999999999927,100.67200000000003 42.899999999999636,100.72900000000004 C42.899999999999636,100.78700000000003 43.0,100.85900000000004 43.0,100.94799999999998 C43.0,101.03700000000003 42.899999999999636,101.11199999999997 42.899999999999636,101.17499999999995 C42.79999999999927,101.23699999999997 42.70000000000073,101.26800000000003 42.600000000000364,101.26800000000003 L41.399999999999636,101.26800000000003 M46.70000000000073,101.26800000000003 L45.70000000000073,104.36199999999997 C45.399999999999636,105.47699999999998 44.79999999999927,106.55499999999995 44.0,107.596 C43.20000000000073,108.63800000000003 42.399999999999636,109.15899999999999 41.600000000000364,109.15899999999999 C41.20000000000073,109.15899999999999 40.79999999999927,109.04700000000003 40.5,108.82299999999998 C40.20000000000073,108.59900000000005 40.0,108.30999999999995 40.0,107.95600000000002 C40.0,107.54999999999995 40.100000000000364,107.20600000000002 40.20000000000073,106.92499999999995 C40.399999999999636,106.654 40.70000000000073,106.50800000000004 41.0,106.48699999999997 C41.20000000000073,106.48699999999997 41.399999999999636,106.57000000000005 41.600000000000364,106.73699999999997 C41.70000000000073,106.904 41.79999999999927,107.096 41.79999999999927,107.31500000000005 C41.79999999999927,107.51300000000003 41.70000000000073,107.69500000000005 41.399999999999636,107.86199999999997 C41.20000000000073,108.00800000000004 41.100000000000364,108.17499999999995 41.100000000000364,108.36199999999997 C41.100000000000364,108.48699999999997 41.20000000000073,108.54999999999995 41.5,108.54999999999995 L41.600000000000364,108.54999999999995 C41.70000000000073,108.54999999999995 41.79999999999927,108.53399999999999 41.899999999999636,108.50300000000004 C42.0,108.49199999999996 42.100000000000364,108.45100000000002 42.20000000000073,108.37800000000004 C42.20000000000073,108.37800000000004 42.20000000000073,108.32600000000002 42.399999999999636,108.221 C42.399999999999636,108.10699999999997 42.5,108.024 42.5,107.971 C42.5,107.86699999999996 42.600000000000364,107.78399999999999 42.600000000000364,107.721 C42.70000000000073,107.67999999999995 42.70000000000073,107.57600000000002 42.70000000000073,107.40899999999999 C42.70000000000073,107.36699999999996 42.79999999999927,107.32000000000005 42.79999999999927,107.26800000000003 C42.79999999999927,107.21600000000001 42.79999999999927,107.17999999999995 42.79999999999927,107.15899999999999 C42.79999999999927,107.13800000000003 42.79999999999927,107.12199999999996 42.79999999999927,107.11199999999997 C42.899999999999636,106.904 42.899999999999636,106.779 42.899999999999636,106.73699999999997 C43.0,106.529 43.0,106.42499999999995 43.0,106.42499999999995 L44.29999999999927,101.26800000000003 L43.29999999999927,101.26800000000003 C43.20000000000073,101.26800000000003 43.100000000000364,101.23699999999997 43.100000000000364,101.17499999999995 C43.0,101.09100000000001 43.0,101.01800000000003 43.0,100.95600000000002 C43.0,100.87199999999996 43.0,100.79999999999995 43.100000000000364,100.73699999999997 C43.20000000000073,100.67499999999995 43.20000000000073,100.64300000000003 43.29999999999927,100.64300000000003 L44.5,100.64300000000003 C44.79999999999927,99.66399999999999 45.29999999999927,98.82000000000005 46.100000000000364,98.11199999999997 C46.79999999999927,97.38300000000004 47.600000000000364,97.01800000000003 48.5,97.01800000000003 C48.899999999999636,97.01800000000003 49.29999999999927,97.13300000000004 49.600000000000364,97.36199999999997 C49.899999999999636,97.58100000000002 50.100000000000364,97.86699999999996 50.100000000000364,98.221 C50.100000000000364,98.60699999999997 50.0,98.95100000000002 49.899999999999636,99.25300000000004 C49.70000000000073,99.524 49.399999999999636,99.66399999999999 49.100000000000364,99.67499999999995 C48.899999999999636,99.67499999999995 48.70000000000073,99.59400000000005 48.5,99.43200000000002 C48.399999999999636,99.27099999999996 48.29999999999927,99.08100000000002 48.29999999999927,98.86199999999997 C48.29999999999927,98.67499999999995 48.399999999999636,98.50300000000004 48.70000000000073,98.346 C48.899999999999636,98.19000000000005 49.0,98.01300000000003 49.0,97.81500000000005 C49.0,97.66899999999998 48.899999999999636,97.60199999999998 48.600000000000364,97.61199999999997 L48.600000000000364,97.61199999999997 C48.5,97.63300000000004 48.5,97.63800000000003 48.5,97.62800000000004 C48.20000000000073,97.62800000000004 48.0,97.68499999999995 47.899999999999636,97.79999999999995 C47.70000000000073,97.904 47.600000000000364,98.09100000000001 47.399999999999636,98.36199999999997 C47.399999999999636,98.43499999999995 47.399999999999636,98.50800000000004 47.29999999999927,98.58100000000002 C47.29999999999927,98.654 47.29999999999927,98.73400000000004 47.29999999999927,98.82299999999998 C47.20000000000073,98.91200000000003 47.20000000000073,98.971 47.20000000000073,99.00300000000004 C47.20000000000073,99.06500000000005 47.100000000000364,99.19500000000005 47.100000000000364,99.39300000000003 C47.100000000000364,99.58100000000002 47.0,99.74199999999996 47.0,99.87800000000004 C46.899999999999636,100.274 46.899999999999636,100.529 46.79999999999927,100.64300000000003 L47.899999999999636,100.64300000000003 C48.0,100.64300000000003 48.100000000000364,100.67200000000003 48.100000000000364,100.72900000000004 C48.20000000000073,100.78700000000003 48.20000000000073,100.85900000000004 48.20000000000073,100.94799999999998 C48.20000000000073,101.03700000000003 48.20000000000073,101.11199999999997 48.100000000000364,101.17499999999995 C48.100000000000364,101.23699999999997 48.0,101.26800000000003 47.899999999999636,101.26800000000003 L46.70000000000073,101.26800000000003 M51.899999999999636,101.26800000000003 L51.0,104.36199999999997 C50.70000000000073,105.47699999999998 50.100000000000364,106.55499999999995 49.29999999999927,107.596 C48.5,108.63800000000003 47.70000000000073,109.15899999999999 46.899999999999636,109.15899999999999 C46.5,109.15899999999999 46.100000000000364,109.04700000000003 45.79999999999927,108.82299999999998 C45.399999999999636,108.59900000000005 45.29999999999927,108.30999999999995 45.29999999999927,107.95600000000002 C45.29999999999927,107.54999999999995 45.399999999999636,107.20600000000002 45.5,106.92499999999995 C45.70000000000073,106.654 45.899999999999636,106.50800000000004 46.29999999999927,106.48699999999997 C46.5,106.48699999999997 46.70000000000073,106.57000000000005 46.79999999999927,106.73699999999997 C47.0,106.904 47.100000000000364,107.096 47.100000000000364,107.31500000000005 C47.100000000000364,107.51300000000003 47.0,107.69500000000005 46.70000000000073,107.86199999999997 C46.5,108.00800000000004 46.399999999999636,108.17499999999995 46.399999999999636,108.36199999999997 C46.399999999999636,108.48699999999997 46.5,108.54999999999995 46.79999999999927,108.54999999999995 L46.899999999999636,108.54999999999995 C47.0,108.54999999999995 47.100000000000364,108.53399999999999 47.20000000000073,108.50300000000004 C47.29999999999927,108.49199999999996 47.29999999999927,108.45100000000002 47.399999999999636,108.37800000000004 C47.399999999999636,108.37800000000004 47.5,108.32600000000002 47.600000000000364,108.221 C47.70000000000073,108.10699999999997 47.79999999999927,108.024 47.79999999999927,107.971 C47.79999999999927,107.86699999999996 47.899999999999636,107.78399999999999 47.899999999999636,107.721 C47.899999999999636,107.67999999999995 48.0,107.57600000000002 48.0,107.40899999999999 C48.0,107.36699999999996 48.0,107.32000000000005 48.100000000000364,107.26800000000003 C48.100000000000364,107.21600000000001 48.100000000000364,107.17999999999995 48.100000000000364,107.15899999999999 C48.100000000000364,107.13800000000003 48.100000000000364,107.12199999999996 48.100000000000364,107.11199999999997 C48.20000000000073,106.904 48.20000000000073,106.779 48.20000000000073,106.73699999999997 C48.29999999999927,106.529 48.29999999999927,106.42499999999995 48.29999999999927,106.42499999999995 L49.600000000000364,101.26800000000003 L48.600000000000364,101.26800000000003 C48.5,101.26800000000003 48.399999999999636,101.23699999999997 48.399999999999636,101.17499999999995 C48.29999999999927,101.09100000000001 48.29999999999927,101.01800000000003 48.29999999999927,100.95600000000002 C48.29999999999927,100.87199999999996 48.29999999999927,100.79999999999995 48.399999999999636,100.73699999999997 C48.5,100.67499999999995 48.5,100.64300000000003 48.600000000000364,100.64300000000003 L49.70000000000073,100.64300000000003 C50.100000000000364,99.66399999999999 50.600000000000364,98.82000000000005 51.399999999999636,98.11199999999997 C52.100000000000364,97.38300000000004 52.899999999999636,97.01800000000003 53.70000000000073,97.01800000000003 C54.20000000000073,97.01800000000003 54.600000000000364,97.13300000000004 54.899999999999636,97.36199999999997 C55.20000000000073,97.58100000000002 55.399999999999636,97.86699999999996 55.399999999999636,98.221 C55.399999999999636,98.60699999999997 55.29999999999927,98.95100000000002 55.100000000000364,99.25300000000004 C54.899999999999636,99.524 54.70000000000073,99.66399999999999 54.399999999999636,99.67499999999995 C54.20000000000073,99.67499999999995 54.0,99.59400000000005 53.79999999999927,99.43200000000002 C53.70000000000073,99.27099999999996 53.600000000000364,99.08100000000002 53.600000000000364,98.86199999999997 C53.600000000000364,98.67499999999995 53.70000000000073,98.50300000000004 53.899999999999636,98.346 C54.20000000000073,98.19000000000005 54.29999999999927,98.01300000000003 54.29999999999927,97.81500000000005 C54.29999999999927,97.66899999999998 54.20000000000073,97.60199999999998 53.899999999999636,97.61199999999997 L53.79999999999927,97.61199999999997 C53.79999999999927,97.63300000000004 53.79999999999927,97.63800000000003 53.70000000000073,97.62800000000004 C53.5,97.62800000000004 53.29999999999927,97.68499999999995 53.20000000000073,97.79999999999995 C53.0,97.904 52.899999999999636,98.09100000000001 52.70000000000073,98.36199999999997 C52.70000000000073,98.43499999999995 52.70000000000073,98.50800000000004 52.600000000000364,98.58100000000002 C52.600000000000364,98.654 52.600000000000364,98.73400000000004 52.5,98.82299999999998 C52.5,98.91200000000003 52.5,98.971 52.5,99.00300000000004 C52.5,99.06500000000005 52.399999999999636,99.19500000000005 52.399999999999636,99.39300000000003 C52.399999999999636,99.58100000000002 52.29999999999927,99.74199999999996 52.29999999999927,99.87800000000004 C52.20000000000073,100.274 52.100000000000364,100.529 52.100000000000364,100.64300000000003 L53.20000000000073,100.64300000000003 C53.29999999999927,100.64300000000003 53.399999999999636,100.67200000000003 53.399999999999636,100.72900000000004 C53.5,100.78700000000003 53.5,100.85900000000004 53.5,100.94799999999998 C53.5,101.03700000000003 53.5,101.11199999999997 53.399999999999636,101.17499999999995 C53.399999999999636,101.23699999999997 53.29999999999927,101.26800000000003 53.20000000000073,101.26800000000003 L51.899999999999636,101.26800000000003" />
<path d="M231.79999999999927,93.846 L294.2999999999993,100.16200000000003 L294.2999999999993,102.66200000000003 L231.79999999999927,96.346 L231.79999999999927,93.846" />
<path d="M231.79999999999927,90.096 L263.60000000000036,93.30700000000002 L263.60000000000036,95.80700000000002 L231.79999999999927,92.596 L231.79999999999927,90.096" />
<path d="M231.79999999999927,28.846000000000004 L294.7000000000007,26.32000000000005 L294.7000000000007,28.82000000000005 L231.79999999999927,31.346000000000004 L231.79999999999927,28.846000000000004" />
<path d="M107.20000000000073,93.846 L201.29999999999927,100.13999999999999 L201.29999999999927,102.63999999999999 L107.20000000000073,96.346 L107.20000000000073,93.846" />
<path d="M107.20000000000073,90.096 L201.29999999999927,96.38999999999999 L201.29999999999927,98.88999999999999 L107.20000000000073,92.596 L107.20000000000073,90.096" />
<path d="M107.20000000000073,36.346000000000004 L170.10000000000036,36.346000000000004 L170.10000000000036,38.846000000000004 L107.20000000000073,38.846000000000004 L107.20000000000073,36.346000000000004" />
<path d="M107.20000000000073,32.596000000000004 L139.0,32.596000000000004 L139.0,35.096000000000004 L107.20000000000073,35.096000000000004 L107.20000000000073,32.596000000000004" />
<path d="M44.899999999999636,34.263000000000034 L76.70000000000073,32.56200000000001 L76.70000000000073,35.06200000000001 L44.899999999999636,36.763000000000034 L44.899999999999636,34.263000000000034" />
<polyline points="0.0,13.846000000000004 255.0,13.846000000000004" fill="none" stroke="#000000" stroke-width="0.40" />
<polyline points="0.0,18.846000000000004 255.0,18.846000000000004" fill="none" stroke="#000000" stroke-width="0.40" />
<polyline points="0.0,23.846000000000004 255.0,23.846000000000004" fill="none" stroke="#000000" stroke-width="0.40" />
<polyline points="0.0,28.846000000000004 255.0,28.846000000000004" fill="none" stroke="#000000" stroke-width="0.40" />
<polyline points="0.0,33.846000000000004 255.0,33.846000000000004" fill="none" stroke="#000000" stroke-width="0.40" />
<polyline points="0.0,66.346 255.0,66.346" fill="none" stroke="#000000" stroke-width="0.40" />
<polyline points="0.0,71.346 255.0,71.346" fill="none" stroke="#000000" stroke-width="0.40" />
<polyline points="0.0,76.346 255.0,76.346" fill="none" stroke="#000000" stroke-width="0.40" />
<polyline points="0.0,81.346 255.0,81.346" fill="none" stroke="#000000" stroke-width="0.40" />
<polyline points="0.0,86.346 255.0,86.346" fill="none" stroke="#000000" stroke-width="0.40" />
<polyline points="232.10000000000036,74.78599999999994 232.10000000000036,95.096" fill="" stroke="#000000" stroke-width="0.65" />
<polyline points="232.10000000000036,17.285999999999945 232.10000000000036,30.096000000000004" fill="" stroke="#000000" stroke-width="0.65" />
<polyline points="201.0,74.78599999999994 201.0,101.346" fill="" stroke="#000000" stroke-width="0.65" />
<polyline points="169.39999999999964,65.90999999999997 169.39999999999964,99.23599999999999" fill="" stroke="#000000" stroke-width="0.65" />
<polyline points="169.79999999999927,19.785999999999945 169.79999999999927,37.596000000000004" fill="" stroke="#000000" stroke-width="0.65" />
<polyline points="138.70000000000073,74.78599999999994 138.70000000000073,97.17999999999995" fill="" stroke="#000000" stroke-width="0.65" />
<polyline points="138.70000000000073,22.285999999999945 138.70000000000073,37.596000000000004" fill="" stroke="#000000" stroke-width="0.65" />
<polyline points="107.5,74.78599999999994 107.5,95.096" fill="" stroke="#000000" stroke-width="0.65" />
<polyline points="107.5,22.285999999999945 107.5,37.596000000000004" fill="" stroke="#000000" stroke-width="0.65" />
<polyline points="76.39999999999964,74.78599999999994 76.39999999999964,101.346" fill="" stroke="#000000" stroke-width="0.65" />
<polyline points="76.39999999999964,22.285999999999945 76.39999999999964,37.596000000000004" fill="" stroke="#000000" stroke-width="0.65" />
<polyline points="44.79999999999927,65.90999999999997 44.79999999999927,99.23599999999999" fill="" stroke="#000000" stroke-width="0.65" />
<polyline points="45.20000000000073,24.785999999999945 45.20000000000073,39.263000000000034" fill="" stroke="#000000" stroke-width="0.65" />
<polyline points="14.100000000000364,74.78599999999994 14.100000000000364,97.17999999999995" fill="" stroke="#000000" stroke-width="0.65" />
</svg>
