<?xml version="1.0" encoding="UTF-8" standalone="yes"?>
<svg width="256.0px" height="256.0px" xmlns="http://www.w3.org/2000/svg" xmlns:xlink="http://www.w3.org/1999/xlink" version="1.2" baseProfile="tiny">
<path d="M201.79999999999927,30.79200000000003 C201.70000000000073,30.69799999999998 201.59999999999854,30.591000000000008 201.40000000000146,30.47199999999998 C201.29999999999927,30.351999999999975 201.09999999999854,30.184999999999945 200.90000000000146,29.97199999999998 C200.70000000000073,29.758000000000038 200.59999999999854,29.53200000000004 200.40000000000146,29.29200000000003 C200.29999999999927,29.05200000000002 200.09999999999854,28.760999999999967 200.0,28.41700000000003 C200.0,28.07299999999998 199.90000000000146,27.71900000000005 199.90000000000146,27.354000000000042 C199.90000000000146,26.96900000000005 200.0,26.604000000000042 200.0,26.260999999999967 C200.09999999999854,25.91700000000003 200.29999999999927,25.633000000000038 200.40000000000146,25.408999999999992 C200.5,25.184999999999945 200.70000000000073,24.966000000000008 200.90000000000146,24.753000000000043 C201.09999999999854,24.538999999999987 201.29999999999927,24.383000000000038 201.40000000000146,24.283999999999992 C201.5,24.184999999999945 201.70000000000073,24.077999999999975 201.90000000000146,23.964000000000055 L201.90000000000146,24.089000000000055 C201.70000000000073,24.287000000000035 201.5,24.461000000000013 201.40000000000146,24.611999999999966 C201.20000000000073,24.763000000000034 201.09999999999854,24.964000000000055 201.0,25.214000000000055 C200.79999999999927,25.464000000000055 200.70000000000073,25.760999999999967 200.70000000000073,26.104000000000042 C200.59999999999854,26.44799999999998 200.59999999999854,26.860000000000014 200.59999999999854,27.339000000000055 C200.59999999999854,27.827999999999975 200.59999999999854,28.253000000000043 200.70000000000073,28.611999999999966 C200.70000000000073,28.97199999999998 200.79999999999927,29.275999999999954 201.0,29.525999999999954 C201.09999999999854,29.775999999999954 201.20000000000073,29.98199999999997 201.40000000000146,30.144000000000005 C201.5,30.30499999999995 201.70000000000073,30.474000000000046 201.90000000000146,30.650999999999954 L201.79999999999927,30.79200000000003 M202.40000000000146,27.66700000000003 C202.40000000000146,27.07299999999998 202.59999999999854,26.59699999999998 202.90000000000146,26.236999999999966 C203.20000000000073,25.878000000000043 203.70000000000073,25.69799999999998 204.09999999999854,25.69799999999998 C204.5,25.69799999999998 204.70000000000073,25.778999999999996 205.0,25.940000000000055 C205.20000000000073,26.101999999999975 205.29999999999927,26.297000000000025 205.29999999999927,26.525999999999954 C205.29999999999927,26.610000000000014 205.29999999999927,26.684999999999945 205.20000000000073,26.753000000000043 C205.09999999999854,26.821000000000026 205.09999999999854,26.854000000000042 205.0,26.854000000000042 C204.79999999999927,26.854000000000042 204.70000000000073,26.735000000000014 204.59999999999854,26.495000000000005 L204.5,26.32299999999998 C204.5,26.16700000000003 204.5,26.062999999999988 204.40000000000146,26.010999999999967 C204.29999999999927,25.958999999999946 204.20000000000073,25.932999999999993 204.09999999999854,25.932999999999993 C203.79999999999927,25.932999999999993 203.5,26.059999999999945 203.29999999999927,26.315000000000055 C203.09999999999854,26.571000000000026 203.0,26.90700000000004 203.0,27.32299999999998 C203.0,27.770999999999958 203.09999999999854,28.140999999999963 203.29999999999927,28.432999999999993 C203.59999999999854,28.724000000000046 203.90000000000146,28.870000000000005 204.20000000000073,28.870000000000005 C204.5,28.870000000000005 204.59999999999854,28.812999999999988 204.79999999999927,28.69799999999998 C205.0,28.583999999999946 205.09999999999854,28.390999999999963 205.29999999999927,28.120000000000005 L205.40000000000146,28.182999999999993 C205.40000000000146,28.297000000000025 205.29999999999927,28.388000000000034 205.29999999999927,28.456000000000017 C205.29999999999927,28.524 205.20000000000073,28.628000000000043 205.09999999999854,28.769000000000005 C205.0,28.908999999999992 204.90000000000146,29.020999999999958 204.79999999999927,29.104000000000042 C204.70000000000073,29.187999999999988 204.59999999999854,29.265999999999963 204.40000000000146,29.339000000000055 C204.20000000000073,29.412000000000035 204.09999999999854,29.44799999999998 203.90000000000146,29.44799999999998 C203.5,29.44799999999998 203.09999999999854,29.28200000000004 202.79999999999927,28.94799999999998 C202.5,28.61500000000001 202.40000000000146,28.187999999999988 202.40000000000146,27.66700000000003 M206.0,23.964000000000055 C206.20000000000073,24.047000000000025 206.29999999999927,24.149 206.5,24.269000000000005 C206.59999999999854,24.388000000000034 206.79999999999927,24.55499999999995 207.0,24.769000000000005 C207.20000000000073,24.98199999999997 207.40000000000146,25.211000000000013 207.5,25.456000000000017 C207.59999999999854,25.701000000000022 207.79999999999927,25.991999999999962 207.90000000000146,26.331000000000017 C208.0,26.66999999999996 208.0,27.025999999999954 208.0,27.400999999999954 C208.0,27.775999999999954 208.0,28.135999999999967 207.90000000000146,28.479000000000042 C207.79999999999927,28.82299999999998 207.59999999999854,29.110000000000014 207.5,29.339000000000055 C207.40000000000146,29.567999999999984 207.20000000000073,29.787000000000035 207.0,29.995000000000005 C206.79999999999927,30.202999999999975 206.59999999999854,30.360000000000014 206.5,30.464000000000055 C206.40000000000146,30.567999999999984 206.20000000000073,30.67700000000002 206.0,30.79200000000003 L206.0,30.650999999999954 C206.20000000000073,30.464000000000055 206.40000000000146,30.29200000000003 206.5,30.135999999999967 C206.70000000000073,29.979000000000042 206.79999999999927,29.778999999999996 206.90000000000146,29.533999999999992 C207.09999999999854,29.288999999999987 207.20000000000073,28.995000000000005 207.20000000000073,28.650999999999954 C207.29999999999927,28.307999999999993 207.29999999999927,27.895999999999958 207.29999999999927,27.41700000000003 C207.29999999999927,26.92700000000002 207.29999999999927,26.503000000000043 207.20000000000073,26.144000000000005 C207.20000000000073,25.783999999999992 207.09999999999854,25.476999999999975 206.90000000000146,25.22199999999998 C206.79999999999927,24.966000000000008 206.70000000000073,24.760999999999967 206.5,24.604000000000042 C206.40000000000146,24.44799999999998 206.20000000000073,24.275999999999954 206.0,24.089000000000055 L206.0,23.964000000000055 M211.79999999999927,24.635999999999967 C211.70000000000073,24.635999999999967 211.5,24.692999999999984 211.29999999999927,24.807999999999993 L211.29999999999927,24.69799999999998 L212.70000000000073,23.964000000000055 L212.70000000000073,23.979000000000042 L212.70000000000073,28.775999999999954 C212.70000000000073,28.974000000000046 212.79999999999927,29.101999999999975 212.90000000000146,29.158999999999992 C213.0,29.216000000000008 213.20000000000073,29.245000000000005 213.5,29.245000000000005 L213.5,29.370000000000005 L211.29999999999927,29.370000000000005 L211.29999999999927,29.245000000000005 C211.59999999999854,29.235000000000014 211.79999999999927,29.190000000000055 211.90000000000146,29.111999999999966 C212.0,29.033999999999992 212.09999999999854,28.870000000000005 212.09999999999854,28.620000000000005 L212.09999999999854,25.010999999999967 C212.09999999999854,24.760999999999967 212.0,24.635999999999967 211.79999999999927,24.635999999999967 M214.79999999999927,29.54200000000003 L214.79999999999927,29.385999999999967 C215.40000000000146,29.28200000000004 215.90000000000146,29.024 216.29999999999927,28.611999999999966 C216.79999999999927,28.201000000000022 217.09999999999854,27.66700000000003 217.20000000000073,27.010999999999967 C216.79999999999927,27.32299999999998 216.40000000000146,27.479000000000042 216.0,27.479000000000042 C215.59999999999854,27.479000000000042 215.20000000000073,27.327999999999975 215.0,27.025999999999954 C214.70000000000073,26.724000000000046 214.59999999999854,26.333999999999946 214.59999999999854,25.854000000000042 C214.59999999999854,25.312999999999988 214.70000000000073,24.860000000000014 215.09999999999854,24.495000000000005 C215.40000000000146,24.129999999999995 215.79999999999927,23.94799999999998 216.29999999999927,23.94799999999998 C216.79999999999927,23.94799999999998 217.20000000000073,24.158999999999992 217.5,24.581000000000017 C217.90000000000146,25.003000000000043 218.0,25.547000000000025 218.0,26.214000000000055 C218.0,26.432999999999993 218.0,26.653999999999996 218.0,26.878000000000043 C218.0,27.101999999999975 217.90000000000146,27.366999999999962 217.70000000000073,27.674999999999955 C217.59999999999854,27.98199999999997 217.40000000000146,28.254999999999995 217.20000000000073,28.495000000000005 C217.0,28.735000000000014 216.70000000000073,28.952999999999975 216.29999999999927,29.150999999999954 C215.79999999999927,29.349000000000046 215.40000000000146,29.479000000000042 214.79999999999927,29.54200000000003 M216.29999999999927,27.120000000000005 C216.40000000000146,27.120000000000005 216.5,27.10699999999997 216.70000000000073,27.081000000000017 C216.79999999999927,27.05499999999995 216.90000000000146,26.991999999999962 217.0,26.894000000000005 C217.20000000000073,26.79499999999996 217.20000000000073,26.672000000000025 217.20000000000073,26.525999999999954 L217.20000000000073,26.214000000000055 C217.20000000000073,24.860000000000014 216.90000000000146,24.182999999999993 216.20000000000073,24.182999999999993 C216.0,24.182999999999993 215.90000000000146,24.226999999999975 215.79999999999927,24.315000000000055 C215.59999999999854,24.403999999999996 215.59999999999854,24.520999999999958 215.5,24.66700000000003 C215.40000000000146,24.812999999999988 215.40000000000146,24.958999999999946 215.40000000000146,25.104000000000042 C215.29999999999927,25.25 215.29999999999927,25.40700000000004 215.29999999999927,25.57299999999998 C215.29999999999927,26.05200000000002 215.40000000000146,26.42999999999995 215.59999999999854,26.706000000000017 C215.79999999999927,26.98199999999997 216.0,27.120000000000005 216.29999999999927,27.120000000000005 M220.40000000000146,29.479000000000042 C219.90000000000146,29.479000000000042 219.40000000000146,29.265999999999963 219.09999999999854,28.839000000000055 C218.79999999999927,28.412000000000035 218.59999999999854,27.84400000000005 218.59999999999854,27.135999999999967 C218.59999999999854,26.91700000000003 218.59999999999854,26.692999999999984 218.70000000000073,26.464000000000055 C218.70000000000073,26.235000000000014 218.79999999999927,25.97199999999998 218.90000000000146,25.674999999999955 C219.09999999999854,25.378000000000043 219.29999999999927,25.111999999999966 219.5,24.878000000000043 C219.70000000000073,24.644000000000005 220.09999999999854,24.434999999999945 220.5,24.253000000000043 C220.90000000000146,24.071000000000026 221.40000000000146,23.952999999999975 221.90000000000146,23.900999999999954 L221.90000000000146,24.025999999999954 C221.29999999999927,24.129999999999995 220.79999999999927,24.385999999999967 220.29999999999927,24.79200000000003 C219.90000000000146,25.19799999999998 219.59999999999854,25.702999999999975 219.5,26.307999999999993 C219.79999999999927,26.162000000000035 220.0,26.067999999999984 220.09999999999854,26.025999999999954 C220.20000000000073,25.985000000000014 220.40000000000146,25.964000000000055 220.59999999999854,25.964000000000055 C221.0,25.964000000000055 221.40000000000146,26.111999999999966 221.70000000000073,26.408999999999992 C222.0,26.706000000000017 222.09999999999854,27.104000000000042 222.09999999999854,27.604000000000042 C222.09999999999854,28.15700000000004 221.90000000000146,28.60699999999997 221.59999999999854,28.956000000000017 C221.29999999999927,29.30499999999995 220.90000000000146,29.479000000000042 220.40000000000146,29.479000000000042 M220.29999999999927,26.32299999999998 C219.90000000000146,26.32299999999998 219.70000000000073,26.400999999999954 219.5,26.557999999999993 C219.40000000000146,26.714000000000055 219.29999999999927,26.94799999999998 219.29999999999927,27.260999999999967 C219.29999999999927,27.875 219.40000000000146,28.360000000000014 219.59999999999854,28.714000000000055 C219.90000000000146,29.067999999999984 220.09999999999854,29.245000000000005 220.5,29.245000000000005 C220.79999999999927,29.245000000000005 221.0,29.128000000000043 221.09999999999854,28.894000000000005 C221.29999999999927,28.658999999999992 221.29999999999927,28.32299999999998 221.29999999999927,27.885999999999967 C221.29999999999927,27.385999999999967 221.29999999999927,27.0 221.09999999999854,26.729000000000042 C220.90000000000146,26.458999999999946 220.59999999999854,26.32299999999998 220.29999999999927,26.32299999999998 M224.59999999999854,26.400999999999954 C225.09999999999854,26.754999999999995 225.5,27.05200000000002 225.59999999999854,27.29200000000003 C225.79999999999927,27.53200000000004 225.90000000000146,27.807999999999993 225.90000000000146,28.120000000000005 C225.90000000000146,28.537000000000035 225.70000000000073,28.866999999999962 225.5,29.111999999999966 C225.20000000000073,29.35699999999997 224.79999999999927,29.479000000000042 224.29999999999927,29.479000000000042 C223.90000000000146,29.479000000000042 223.5,29.35699999999997 223.20000000000073,29.111999999999966 C222.90000000000146,28.866999999999962 222.79999999999927,28.547000000000025 222.79999999999927,28.150999999999954 C222.79999999999927,27.879999999999995 222.79999999999927,27.653999999999996 223.0,27.47199999999998 C223.09999999999854,27.288999999999987 223.40000000000146,27.037000000000035 223.79999999999927,26.714000000000055 C223.40000000000146,26.339000000000055 223.09999999999854,26.062999999999988 223.0,25.885999999999967 C222.90000000000146,25.708999999999946 222.79999999999927,25.49000000000001 222.79999999999927,25.229000000000042 C222.79999999999927,24.86500000000001 223.0,24.559999999999945 223.20000000000073,24.315000000000055 C223.5,24.071000000000026 223.90000000000146,23.94799999999998 224.29999999999927,23.94799999999998 C224.70000000000073,23.94799999999998 225.09999999999854,24.05499999999995 225.29999999999927,24.269000000000005 C225.59999999999854,24.48199999999997 225.70000000000073,24.760999999999967 225.70000000000073,25.104000000000042 C225.70000000000073,25.375 225.59999999999854,25.604000000000042 225.5,25.79200000000003 C225.29999999999927,25.979000000000042 225.0,26.182999999999993 224.59999999999854,26.400999999999954 M224.0,26.870000000000005 C223.79999999999927,27.057999999999993 223.59999999999854,27.241999999999962 223.5,27.424999999999955 C223.40000000000146,27.60699999999997 223.40000000000146,27.827999999999975 223.40000000000146,28.089000000000055 C223.40000000000146,28.432999999999993 223.5,28.711000000000013 223.70000000000073,28.924999999999955 C223.79999999999927,29.138000000000034 224.09999999999854,29.245000000000005 224.40000000000146,29.245000000000005 C224.70000000000073,29.245000000000005 224.90000000000146,29.163999999999987 225.0,29.003000000000043 C225.20000000000073,28.841000000000008 225.29999999999927,28.629999999999995 225.29999999999927,28.370000000000005 C225.29999999999927,28.287000000000035 225.29999999999927,28.206000000000017 225.20000000000073,28.128000000000043 C225.20000000000073,28.049999999999955 225.20000000000073,27.985000000000014 225.20000000000073,27.932999999999993 C225.20000000000073,27.879999999999995 225.09999999999854,27.817999999999984 225.09999999999854,27.745000000000005 C225.0,27.672000000000025 225.0,27.616999999999962 224.90000000000146,27.581000000000017 C224.90000000000146,27.54499999999996 224.79999999999927,27.486999999999966 224.79999999999927,27.408999999999992 C224.70000000000073,27.331000000000017 224.59999999999854,27.275999999999954 224.59999999999854,27.245000000000005 C224.5,27.214000000000055 224.40000000000146,27.153999999999996 224.29999999999927,27.065000000000055 C224.20000000000073,26.976999999999975 224.09999999999854,26.912000000000035 224.0,26.870000000000005 M224.40000000000146,26.260999999999967 C224.40000000000146,26.25 224.5,26.22199999999998 224.5,26.174999999999955 C224.59999999999854,26.128000000000043 224.59999999999854,26.091000000000008 224.70000000000073,26.065000000000055 C224.70000000000073,26.038999999999987 224.70000000000073,26.0 224.79999999999927,25.94799999999998 C224.90000000000146,25.895999999999958 224.90000000000146,25.84400000000005 224.90000000000146,25.79200000000003 C225.0,25.74000000000001 225.0,25.67700000000002 225.0,25.604000000000042 C225.09999999999854,25.53200000000004 225.09999999999854,25.451000000000022 225.09999999999854,25.361999999999966 C225.20000000000073,25.274 225.20000000000073,25.182999999999993 225.20000000000073,25.089000000000055 C225.20000000000073,24.817999999999984 225.09999999999854,24.599000000000046 224.90000000000146,24.432999999999993 C224.79999999999927,24.265999999999963 224.59999999999854,24.182999999999993 224.29999999999927,24.182999999999993 C224.0,24.182999999999993 223.79999999999927,24.258000000000038 223.70000000000073,24.408999999999992 C223.5,24.559999999999945 223.40000000000146,24.75 223.40000000000146,24.979000000000042 C223.40000000000146,25.19799999999998 223.5,25.40700000000004 223.70000000000073,25.604000000000042 C223.79999999999927,25.80200000000002 224.09999999999854,26.020999999999958 224.40000000000146,26.260999999999967 M233.79999999999927,26.69799999999998 C233.79999999999927,26.937999999999988 233.70000000000073,27.172000000000025 233.70000000000073,27.400999999999954 C233.59999999999854,27.629999999999995 233.5,27.866999999999962 233.40000000000146,28.111999999999966 C233.20000000000073,28.35699999999997 233.09999999999854,28.567999999999984 232.79999999999927,28.745000000000005 C232.59999999999854,28.922000000000025 232.29999999999927,29.071000000000026 231.90000000000146,29.190000000000055 C231.59999999999854,29.309999999999945 231.09999999999854,29.370000000000005 230.70000000000073,29.370000000000005 L228.40000000000146,29.370000000000005 L228.40000000000146,29.214000000000055 C228.70000000000073,29.192999999999984 228.90000000000146,29.140999999999963 229.0,29.057999999999993 C229.09999999999854,28.974000000000046 229.09999999999854,28.787000000000035 229.09999999999854,28.495000000000005 L229.09999999999854,24.94799999999998 C229.09999999999854,24.65700000000004 229.09999999999854,24.47199999999998 229.0,24.394000000000005 C228.90000000000146,24.315000000000055 228.70000000000073,24.260999999999967 228.40000000000146,24.229000000000042 L228.40000000000146,24.07299999999998 L230.59999999999854,24.07299999999998 C231.09999999999854,24.07299999999998 231.5,24.128000000000043 231.90000000000146,24.236999999999966 C232.20000000000073,24.34699999999998 232.59999999999854,24.486999999999966 232.79999999999927,24.658999999999992 C233.0,24.831000000000017 233.20000000000073,25.037000000000035 233.40000000000146,25.275999999999954 C233.5,25.515999999999963 233.59999999999854,25.75 233.70000000000073,25.979000000000042 C233.70000000000073,26.208999999999946 233.79999999999927,26.44799999999998 233.79999999999927,26.69799999999998 M232.90000000000146,26.760999999999967 C232.90000000000146,26.53200000000004 232.90000000000146,26.309999999999945 232.79999999999927,26.09699999999998 C232.79999999999927,25.883000000000038 232.70000000000073,25.66999999999996 232.59999999999854,25.456000000000017 C232.5,25.241999999999962 232.29999999999927,25.059999999999945 232.09999999999854,24.908999999999992 C231.90000000000146,24.758000000000038 231.70000000000073,24.633000000000038 231.40000000000146,24.533999999999992 C231.09999999999854,24.434999999999945 230.70000000000073,24.385999999999967 230.29999999999927,24.385999999999967 C230.20000000000073,24.385999999999967 230.09999999999854,24.40700000000004 230.0,24.44799999999998 C230.0,24.49000000000001 229.90000000000146,24.57299999999998 229.90000000000146,24.69799999999998 L229.90000000000146,28.745000000000005 C229.90000000000146,28.870000000000005 230.0,28.956000000000017 230.0,29.003000000000043 C230.09999999999854,29.049999999999955 230.20000000000073,29.07299999999998 230.29999999999927,29.07299999999998 C232.0,29.07299999999998 232.90000000000146,28.30200000000002 232.90000000000146,26.760999999999967 M236.70000000000073,26.885999999999967 C236.59999999999854,26.458999999999946 236.5,26.190000000000055 236.40000000000146,26.081000000000017 C236.29999999999927,25.97199999999998 236.20000000000073,25.90700000000004 236.0,25.885999999999967 L236.0,25.775999999999954 L237.59999999999854,25.775999999999954 L237.59999999999854,25.885999999999967 C237.40000000000146,25.91700000000003 237.29999999999927,25.951000000000022 237.29999999999927,25.986999999999966 C237.20000000000073,26.024 237.20000000000073,26.089000000000055 237.20000000000073,26.182999999999993 C237.20000000000073,26.245000000000005 237.20000000000073,26.400999999999954 237.29999999999927,26.650999999999954 L238.0,28.44799999999998 L238.70000000000073,26.66700000000003 C238.79999999999927,26.44799999999998 238.79999999999927,26.270999999999958 238.79999999999927,26.135999999999967 C238.79999999999927,26.07299999999998 238.79999999999927,26.024 238.79999999999927,25.986999999999966 C238.70000000000073,25.951000000000022 238.59999999999854,25.91700000000003 238.5,25.885999999999967 L238.5,25.775999999999954 L239.5,25.775999999999954 L239.5,25.885999999999967 C239.40000000000146,25.91700000000003 239.29999999999927,25.956000000000017 239.29999999999927,26.003000000000043 C239.29999999999927,26.049999999999955 239.20000000000073,26.15700000000004 239.09999999999854,26.32299999999998 L238.0,29.089000000000055 C237.90000000000146,29.349000000000046 237.79999999999927,29.479000000000042 237.79999999999927,29.479000000000042 C237.79999999999927,29.479000000000042 237.70000000000073,29.36500000000001 237.59999999999854,29.135999999999967 L236.90000000000146,27.245000000000005 L236.0,29.16700000000003 C235.90000000000146,29.375 235.79999999999927,29.479000000000042 235.79999999999927,29.479000000000042 C235.70000000000073,29.479000000000042 235.70000000000073,29.36500000000001 235.59999999999854,29.135999999999967 L234.5,26.400999999999954 C234.40000000000146,26.192999999999984 234.40000000000146,26.057999999999993 234.29999999999927,25.995000000000005 C234.20000000000073,25.932999999999993 234.20000000000073,25.895999999999958 234.09999999999854,25.885999999999967 L234.09999999999854,25.775999999999954 L235.5,25.775999999999954 L235.5,25.885999999999967 C235.40000000000146,25.90700000000004 235.29999999999927,25.934999999999945 235.20000000000073,25.97199999999998 C235.20000000000073,26.008000000000038 235.09999999999854,26.067999999999984 235.09999999999854,26.150999999999954 C235.09999999999854,26.235000000000014 235.20000000000073,26.317999999999984 235.20000000000073,26.400999999999954 L236.0,28.479000000000042 L236.70000000000073,26.885999999999967 M239.70000000000073,28.57299999999998 C239.70000000000073,28.479000000000042 239.70000000000073,28.394000000000005 239.79999999999927,28.315000000000055 C239.79999999999927,28.236999999999966 239.79999999999927,28.162000000000035 239.90000000000146,28.089000000000055 C239.90000000000146,28.015999999999963 240.0,27.951000000000022 240.0,27.894000000000005 C240.09999999999854,27.836000000000013 240.09999999999854,27.775999999999954 240.20000000000073,27.714000000000055 C240.29999999999927,27.650999999999954 240.40000000000146,27.599000000000046 240.5,27.557999999999993 C240.5,27.515999999999963 240.59999999999854,27.46900000000005 240.79999999999927,27.41700000000003 C240.90000000000146,27.36500000000001 241.0,27.32299999999998 241.0,27.29200000000003 C241.09999999999854,27.260999999999967 241.20000000000073,27.216000000000008 241.40000000000146,27.158999999999992 C241.5,27.101999999999975 241.59999999999854,27.057999999999993 241.70000000000073,27.025999999999954 L241.70000000000073,26.54200000000003 C241.70000000000073,26.104000000000042 241.5,25.885999999999967 241.09999999999854,25.885999999999967 C240.90000000000146,25.885999999999967 240.79999999999927,25.924999999999955 240.70000000000073,26.003000000000043 C240.59999999999854,26.081000000000017 240.5,26.172000000000025 240.5,26.275999999999954 C240.5,26.317999999999984 240.5,26.375 240.5,26.44799999999998 C240.59999999999854,26.520999999999958 240.59999999999854,26.567999999999984 240.59999999999854,26.589000000000055 C240.59999999999854,26.682999999999993 240.5,26.763000000000034 240.5,26.831000000000017 C240.40000000000146,26.899 240.29999999999927,26.932999999999993 240.20000000000073,26.932999999999993 C240.09999999999854,26.932999999999993 240.0,26.899 239.90000000000146,26.831000000000017 C239.90000000000146,26.763000000000034 239.79999999999927,26.682999999999993 239.79999999999927,26.589000000000055 C239.79999999999927,26.339000000000055 240.0,26.128000000000043 240.20000000000073,25.956000000000017 C240.5,25.783999999999992 240.79999999999927,25.69799999999998 241.20000000000073,25.69799999999998 C241.59999999999854,25.69799999999998 241.90000000000146,25.80200000000002 242.09999999999854,26.010999999999967 C242.20000000000073,26.21900000000005 242.29999999999927,26.537000000000035 242.29999999999927,26.964000000000055 L242.29999999999927,28.510999999999967 C242.29999999999927,28.687999999999988 242.29999999999927,28.809999999999945 242.40000000000146,28.878000000000043 C242.40000000000146,28.946000000000026 242.5,28.979000000000042 242.59999999999854,28.979000000000042 C242.70000000000073,28.979000000000042 242.79999999999927,28.92700000000002 242.90000000000146,28.82299999999998 L242.90000000000146,29.04200000000003 C242.79999999999927,29.19799999999998 242.70000000000073,29.30499999999995 242.5,29.361999999999966 C242.40000000000146,29.41999999999996 242.29999999999927,29.44799999999998 242.20000000000073,29.44799999999998 C242.0,29.44799999999998 241.90000000000146,29.400999999999954 241.79999999999927,29.307999999999993 C241.79999999999927,29.214000000000055 241.70000000000073,29.062999999999988 241.70000000000073,28.854000000000042 C241.20000000000073,29.25 240.90000000000146,29.44799999999998 240.5,29.44799999999998 C240.29999999999927,29.44799999999998 240.09999999999854,29.366999999999962 240.0,29.206000000000017 C239.79999999999927,29.04499999999996 239.70000000000073,28.833999999999946 239.70000000000073,28.57299999999998 M241.70000000000073,28.370000000000005 L241.70000000000073,27.214000000000055 C241.20000000000073,27.390999999999963 240.90000000000146,27.562999999999988 240.70000000000073,27.729000000000042 C240.5,27.895999999999958 240.40000000000146,28.09400000000005 240.40000000000146,28.32299999999998 C240.40000000000146,28.54200000000003 240.5,28.702999999999975 240.59999999999854,28.807999999999993 C240.70000000000073,28.912000000000035 240.79999999999927,28.964000000000055 240.90000000000146,28.964000000000055 C241.09999999999854,28.964000000000055 241.29999999999927,28.90700000000004 241.5,28.79200000000003 C241.59999999999854,28.74000000000001 241.59999999999854,28.687999999999988 241.70000000000073,28.635999999999967 C241.70000000000073,28.583999999999946 241.70000000000073,28.495000000000005 241.70000000000073,28.370000000000005 M245.40000000000146,26.44799999999998 C245.29999999999927,26.44799999999998 245.20000000000073,26.400999999999954 245.09999999999854,26.307999999999993 C245.0,26.214000000000055 244.90000000000146,26.16700000000003 244.79999999999927,26.16700000000003 C244.70000000000073,26.16700000000003 244.59999999999854,26.245000000000005 244.5,26.400999999999954 C244.40000000000146,26.557999999999993 244.29999999999927,26.702999999999975 244.29999999999927,26.839000000000055 L244.29999999999927,28.650999999999954 C244.29999999999927,28.879999999999995 244.29999999999927,29.033999999999992 244.40000000000146,29.111999999999966 C244.5,29.190000000000055 244.70000000000073,29.235000000000014 245.0,29.245000000000005 L245.0,29.370000000000005 L243.0,29.370000000000005 L243.0,29.245000000000005 C243.29999999999927,29.202999999999975 243.5,29.150999999999954 243.5,29.089000000000055 C243.59999999999854,29.025999999999954 243.59999999999854,28.895999999999958 243.59999999999854,28.69799999999998 L243.59999999999854,26.682999999999993 C243.59999999999854,26.504999999999995 243.59999999999854,26.379999999999995 243.5,26.307999999999993 C243.5,26.235000000000014 243.40000000000146,26.19799999999998 243.29999999999927,26.19799999999998 C243.20000000000073,26.19799999999998 243.20000000000073,26.208999999999946 243.0,26.229000000000042 L243.0,26.104000000000042 C243.5,25.96900000000005 243.90000000000146,25.833999999999946 244.20000000000073,25.69799999999998 L244.29999999999927,25.714000000000055 L244.29999999999927,26.41700000000003 C244.5,26.145999999999958 244.59999999999854,25.958999999999946 244.79999999999927,25.854000000000042 C244.90000000000146,25.75 245.09999999999854,25.69799999999998 245.20000000000073,25.69799999999998 C245.40000000000146,25.69799999999998 245.5,25.73199999999997 245.59999999999854,25.799999999999955 C245.59999999999854,25.866999999999962 245.70000000000073,25.96900000000005 245.70000000000073,26.104000000000042 C245.70000000000073,26.208999999999946 245.59999999999854,26.29200000000003 245.59999999999854,26.354000000000042 C245.5,26.41700000000003 245.5,26.44799999999998 245.40000000000146,26.44799999999998 M248.40000000000146,24.729000000000042 C248.29999999999927,24.729000000000042 248.20000000000073,24.69799999999998 248.09999999999854,24.635999999999967 C248.09999999999854,24.57299999999998 248.0,24.504999999999995 248.0,24.432999999999993 C248.0,24.360000000000014 247.90000000000146,24.29200000000003 247.79999999999927,24.229000000000042 C247.79999999999927,24.16700000000003 247.70000000000073,24.135999999999967 247.59999999999854,24.135999999999967 C247.29999999999927,24.135999999999967 247.09999999999854,24.370000000000005 247.09999999999854,24.839000000000055 L247.09999999999854,25.775999999999954 L248.09999999999854,25.775999999999954 L248.09999999999854,26.010999999999967 L247.09999999999854,26.010999999999967 L247.09999999999854,28.54200000000003 C247.09999999999854,28.833999999999946 247.20000000000073,29.020999999999958 247.29999999999927,29.104000000000042 C247.29999999999927,29.187999999999988 247.5,29.235000000000014 247.90000000000146,29.245000000000005 L247.90000000000146,29.370000000000005 L245.79999999999927,29.370000000000005 L245.79999999999927,29.245000000000005 C246.09999999999854,29.235000000000014 246.29999999999927,29.187999999999988 246.29999999999927,29.104000000000042 C246.40000000000146,29.020999999999958 246.5,28.833999999999946 246.5,28.54200000000003 L246.5,26.010999999999967 L245.79999999999927,26.010999999999967 L245.79999999999927,25.775999999999954 L246.5,25.775999999999954 C246.5,25.172000000000025 246.59999999999854,24.706000000000017 246.79999999999927,24.378000000000043 C247.0,24.049999999999955 247.40000000000146,23.885999999999967 247.90000000000146,23.885999999999967 C248.09999999999854,23.885999999999967 248.29999999999927,23.934999999999945 248.5,24.033999999999992 C248.59999999999854,24.133000000000038 248.70000000000073,24.254999999999995 248.70000000000073,24.400999999999954 C248.70000000000073,24.495000000000005 248.70000000000073,24.57299999999998 248.59999999999854,24.635999999999967 C248.5,24.69799999999998 248.5,24.729000000000042 248.40000000000146,24.729000000000042 M256.09999999999854,24.79200000000003 L254.0,29.370000000000005 L253.90000000000146,29.370000000000005 L251.90000000000146,24.979000000000042 L251.90000000000146,28.19799999999998 C251.90000000000146,28.604000000000042 252.0,28.873000000000047 252.0,29.003000000000043 C252.09999999999854,29.133000000000038 252.29999999999927,29.202999999999975 252.70000000000073,29.214000000000055 L252.70000000000073,29.370000000000005 L250.79999999999927,29.370000000000005 L250.79999999999927,29.214000000000055 C251.09999999999854,29.192999999999984 251.29999999999927,29.120000000000005 251.40000000000146,28.995000000000005 C251.5,28.870000000000005 251.5,28.604000000000042 251.5,28.19799999999998 L251.5,24.94799999999998 C251.5,24.65700000000004 251.5,24.46900000000005 251.40000000000146,24.385999999999967 C251.29999999999927,24.30200000000002 251.09999999999854,24.25 250.79999999999927,24.229000000000042 L250.79999999999927,24.07299999999998 L252.40000000000146,24.07299999999998 L254.20000000000073,28.120000000000005 L256.0,24.07299999999998 L257.59999999999854,24.07299999999998 L257.59999999999854,24.229000000000042 C257.2999999999993,24.260999999999967 257.09999999999854,24.317999999999984 257.0,24.400999999999954 C256.90000000000146,24.485000000000014 256.90000000000146,24.66700000000003 256.90000000000146,24.94799999999998 L256.90000000000146,28.495000000000005 C256.90000000000146,28.775999999999954 256.90000000000146,28.961000000000013 257.0,29.049999999999955 C257.09999999999854,29.138000000000034 257.2999999999993,29.192999999999984 257.59999999999854,29.214000000000055 L257.59999999999854,29.370000000000005 L255.29999999999927,29.370000000000005 L255.29999999999927,29.214000000000055 C255.70000000000073,29.192999999999984 255.90000000000146,29.135999999999967 255.90000000000146,29.04200000000003 C256.0,28.94799999999998 256.09999999999854,28.74000000000001 256.09999999999854,28.41700000000003 L256.09999999999854,24.79200000000003 M261.5,28.94799999999998 L261.5,29.07299999999998 C261.09999999999854,29.187999999999988 260.7999999999993,29.312999999999988 260.5,29.44799999999998 L260.40000000000146,29.432999999999993 L260.40000000000146,28.745000000000005 C260.40000000000146,28.765999999999963 260.40000000000146,28.815000000000055 260.2999999999993,28.894000000000005 C260.2000000000007,28.97199999999998 260.09999999999854,29.025999999999954 260.09999999999854,29.057999999999993 C260.09999999999854,29.089000000000055 260.0,29.135999999999967 259.90000000000146,29.19799999999998 C259.90000000000146,29.260999999999967 259.7999999999993,29.30499999999995 259.7000000000007,29.331000000000017 C259.7000000000007,29.35699999999997 259.59999999999854,29.383000000000038 259.5,29.408999999999992 C259.40000000000146,29.434999999999945 259.2999999999993,29.44799999999998 259.2999999999993,29.44799999999998 C259.0,29.44799999999998 258.7000000000007,29.351999999999975 258.5,29.158999999999992 C258.40000000000146,28.966000000000008 258.2999999999993,28.714000000000055 258.2999999999993,28.400999999999954 L258.2999999999993,26.385999999999967 C258.2999999999993,26.208999999999946 258.2000000000007,26.083999999999946 258.2000000000007,26.010999999999967 C258.09999999999854,25.937999999999988 258.0,25.895999999999958 257.7999999999993,25.885999999999967 L257.7999999999993,25.775999999999954 L259.0,25.775999999999954 L259.0,28.370000000000005 C259.0,28.525999999999954 259.0,28.663999999999987 259.09999999999854,28.783999999999992 C259.2000000000007,28.903999999999996 259.40000000000146,28.964000000000055 259.5,28.964000000000055 C259.59999999999854,28.964000000000055 259.7000000000007,28.956000000000017 259.7000000000007,28.940000000000055 C259.7999999999993,28.924999999999955 259.90000000000146,28.895999999999958 260.0,28.854000000000042 C260.09999999999854,28.812999999999988 260.2000000000007,28.741999999999962 260.2999999999993,28.644000000000005 C260.2999999999993,28.54499999999996 260.40000000000146,28.422000000000025 260.40000000000146,28.275999999999954 L260.40000000000146,26.400999999999954 C260.40000000000146,26.214000000000055 260.2999999999993,26.086000000000013 260.2999999999993,26.019000000000005 C260.2000000000007,25.951000000000022 260.0,25.912000000000035 259.7999999999993,25.900999999999954 L259.7999999999993,25.775999999999954 L261.0,25.775999999999954 L261.0,28.495000000000005 C261.0,28.682999999999993 261.09999999999854,28.80499999999995 261.09999999999854,28.861999999999966 C261.2000000000007,28.91999999999996 261.2999999999993,28.94799999999998 261.5,28.94799999999998 L261.5,28.94799999999998 M263.7999999999993,25.854000000000042 C263.7999999999993,25.854000000000042 263.7999999999993,25.827999999999975 263.90000000000146,25.775999999999954 L264.0,25.775999999999954 L264.0,26.854000000000042 L263.90000000000146,26.854000000000042 C263.7999999999993,26.5 263.7000000000007,26.248000000000047 263.5,26.09699999999998 C263.40000000000146,25.946000000000026 263.2000000000007,25.870000000000005 263.0,25.870000000000005 C262.7999999999993,25.870000000000005 262.7000000000007,25.922000000000025 262.59999999999854,26.025999999999954 C262.5,26.129999999999995 262.40000000000146,26.260999999999967 262.40000000000146,26.41700000000003 C262.40000000000146,26.645999999999958 262.5,26.827999999999975 262.7000000000007,26.964000000000055 L263.59999999999854,27.479000000000042 C263.7999999999993,27.625 264.0,27.770999999999958 264.09999999999854,27.91700000000003 C264.2000000000007,28.062999999999988 264.2999999999993,28.235000000000014 264.2999999999993,28.432999999999993 C264.2999999999993,28.702999999999975 264.2000000000007,28.940000000000055 263.90000000000146,29.144000000000005 C263.7000000000007,29.34699999999998 263.40000000000146,29.44799999999998 263.09999999999854,29.44799999999998 C263.0,29.44799999999998 262.7999999999993,29.424999999999955 262.59999999999854,29.378000000000043 C262.40000000000146,29.331000000000017 262.2000000000007,29.307999999999993 262.2000000000007,29.307999999999993 C262.09999999999854,29.307999999999993 262.0,29.339000000000055 262.0,29.400999999999954 L261.90000000000146,29.400999999999954 L261.90000000000146,28.150999999999954 L262.0,28.150999999999954 C262.09999999999854,28.525999999999954 262.2000000000007,28.79200000000003 262.2999999999993,28.94799999999998 C262.5,29.16700000000003 262.7000000000007,29.275999999999954 263.0,29.275999999999954 C263.2000000000007,29.275999999999954 263.40000000000146,29.224000000000046 263.5,29.120000000000005 C263.59999999999854,29.015999999999963 263.7000000000007,28.875 263.7000000000007,28.69799999999998 C263.7000000000007,28.458999999999946 263.59999999999854,28.260999999999967 263.2999999999993,28.104000000000042 L262.7999999999993,27.839000000000055 C262.5,27.640999999999963 262.2000000000007,27.456000000000017 262.09999999999854,27.283999999999992 C262.0,27.111999999999966 261.90000000000146,26.912000000000035 261.90000000000146,26.682999999999993 C261.90000000000146,26.390999999999963 262.0,26.153999999999996 262.2000000000007,25.97199999999998 C262.40000000000146,25.788999999999987 262.7000000000007,25.69799999999998 263.0,25.69799999999998 C263.2000000000007,25.69799999999998 263.2999999999993,25.724000000000046 263.5,25.775999999999954 C263.59999999999854,25.827999999999975 263.7000000000007,25.854000000000042 263.7999999999993,25.854000000000042 M265.0,26.229000000000042 C264.90000000000146,26.229000000000042 264.7999999999993,26.235000000000014 264.7000000000007,26.245000000000005 L264.7000000000007,26.135999999999967 C265.09999999999854,26.03200000000004 265.5,25.885999999999967 265.90000000000146,25.69799999999998 L266.0,25.714000000000055 L266.0,28.557999999999993 C266.0,28.839000000000055 266.0,29.019000000000005 266.09999999999854,29.09699999999998 C266.09999999999854,29.174999999999955 266.2999999999993,29.224000000000046 266.59999999999854,29.245000000000005 L266.59999999999854,29.370000000000005 L264.7000000000007,29.370000000000005 L264.7000000000007,29.245000000000005 C264.90000000000146,29.235000000000014 265.09999999999854,29.187999999999988 265.2000000000007,29.104000000000042 C265.2999999999993,29.020999999999958 265.2999999999993,28.839000000000055 265.2999999999993,28.557999999999993 L265.2999999999993,26.69799999999998 C265.2999999999993,26.520999999999958 265.2999999999993,26.399 265.2000000000007,26.331000000000017 C265.2000000000007,26.263000000000034 265.09999999999854,26.229000000000042 265.0,26.229000000000042 M265.59999999999854,23.900999999999954 C265.7000000000007,23.900999999999954 265.7999999999993,23.942999999999984 265.90000000000146,24.025999999999954 C265.90000000000146,24.110000000000014 266.0,24.208999999999946 266.0,24.32299999999998 C266.0,24.437999999999988 265.90000000000146,24.533999999999992 265.90000000000146,24.611999999999966 C265.7999999999993,24.690000000000055 265.7000000000007,24.729000000000042 265.59999999999854,24.729000000000042 C265.5,24.729000000000042 265.40000000000146,24.687999999999988 265.2999999999993,24.604000000000042 C265.2000000000007,24.520999999999958 265.2000000000007,24.424999999999955 265.2000000000007,24.315000000000055 C265.2000000000007,24.206000000000017 265.2000000000007,24.110000000000014 265.2999999999993,24.025999999999954 C265.40000000000146,23.942999999999984 265.5,23.900999999999954 265.59999999999854,23.900999999999954 M267.0,27.66700000000003 C267.0,27.07299999999998 267.09999999999854,26.59699999999998 267.5,26.236999999999966 C267.7999999999993,25.878000000000043 268.2000000000007,25.69799999999998 268.7000000000007,25.69799999999998 C269.0,25.69799999999998 269.2999999999993,25.778999999999996 269.59999999999854,25.940000000000055 C269.7999999999993,26.101999999999975 269.90000000000146,26.297000000000025 269.90000000000146,26.525999999999954 C269.90000000000146,26.610000000000014 269.90000000000146,26.684999999999945 269.7999999999993,26.753000000000043 C269.7000000000007,26.821000000000026 269.59999999999854,26.854000000000042 269.5,26.854000000000042 C269.40000000000146,26.854000000000042 269.2000000000007,26.735000000000014 269.2000000000007,26.495000000000005 L269.09999999999854,26.32299999999998 C269.09999999999854,26.16700000000003 269.0,26.062999999999988 269.0,26.010999999999967 C268.90000000000146,25.958999999999946 268.7999999999993,25.932999999999993 268.7000000000007,25.932999999999993 C268.2999999999993,25.932999999999993 268.09999999999854,26.059999999999945 267.90000000000146,26.315000000000055 C267.7000000000007,26.571000000000026 267.59999999999854,26.90700000000004 267.59999999999854,27.32299999999998 C267.59999999999854,27.770999999999958 267.7000000000007,28.140999999999963 267.90000000000146,28.432999999999993 C268.2000000000007,28.724000000000046 268.5,28.870000000000005 268.7999999999993,28.870000000000005 C269.0,28.870000000000005 269.2000000000007,28.812999999999988 269.40000000000146,28.69799999999998 C269.5,28.583999999999946 269.7000000000007,28.390999999999963 269.90000000000146,28.120000000000005 L270.0,28.182999999999993 C270.0,28.297000000000025 269.90000000000146,28.388000000000034 269.90000000000146,28.456000000000017 C269.7999999999993,28.524 269.7999999999993,28.628000000000043 269.7000000000007,28.769000000000005 C269.59999999999854,28.908999999999992 269.5,29.020999999999958 269.40000000000146,29.104000000000042 C269.2999999999993,29.187999999999988 269.09999999999854,29.265999999999963 269.0,29.339000000000055 C268.7999999999993,29.412000000000035 268.59999999999854,29.44799999999998 268.5,29.44799999999998 C268.0,29.44799999999998 267.7000000000007,29.28200000000004 267.40000000000146,28.94799999999998 C267.09999999999854,28.61500000000001 267.0,28.187999999999988 267.0,27.66700000000003 M271.2999999999993,28.57299999999998 C271.40000000000146,28.57299999999998 271.5,28.616999999999962 271.59999999999854,28.706000000000017 C271.7000000000007,28.79499999999996 271.7000000000007,28.900999999999954 271.7000000000007,29.025999999999954 C271.7000000000007,29.140999999999963 271.7000000000007,29.241999999999962 271.59999999999854,29.331000000000017 C271.5,29.41999999999996 271.40000000000146,29.464000000000055 271.2999999999993,29.464000000000055 C271.2000000000007,29.464000000000055 271.09999999999854,29.41999999999996 271.0,29.331000000000017 C270.90000000000146,29.241999999999962 270.90000000000146,29.140999999999963 270.90000000000146,29.025999999999954 C270.90000000000146,28.900999999999954 270.90000000000146,28.79499999999996 271.0,28.706000000000017 C271.09999999999854,28.616999999999962 271.2000000000007,28.57299999999998 271.2999999999993,28.57299999999998" />
</svg>
